  0
SECTION
  2
HEADER
  9
$ACADVER
  1
AC1027
  9
$ACADMAINTVER
 70
105
  9
$DWGCODEPAGE
  3
ANSI_1252
  9
$LASTSAVEDBY
  1
ezdxf
  9
$REQUIREDVERSIONS
160
0
  9
$INSBASE
 10
0.0
 20
0.0
 30
0.0
  9
$EXTMIN
 10
1e+20
 20
1e+20
 30
1e+20
  9
$EXTMAX
 10
-1e+20
 20
-1e+20
 30
-1e+20
  9
$LIMMIN
 10
0.0
 20
0.0
  9
$LIMMAX
 10
420.0
 20
297.0
  9
$ORTHOMODE
 70
0
  9
$REGENMODE
 70
1
  9
$FILLMODE
 70
1
  9
$QTEXTMODE
 70
0
  9
$MIRRTEXT
 70
1
  9
$LTSCALE
 40
1.0
  9
$ATTMODE
 70
1
  9
$TEXTSIZE
 40
2.5
  9
$TRACEWID
 40
1.0
  9
$TEXTSTYLE
  7
Standard
  9
$CLAYER
  8
0
  9
$CELTYPE
  6
ByLayer
  9
$CECOLOR
 62
256
  9
$CELTSCALE
 40
1.0
  9
$DISPSILH
 70
0
  9
$DIMSCALE
 40
1.0
  9
$DIMASZ
 40
2.5
  9
$DIMEXO
 40
0.625
  9
$DIMDLI
 40
3.75
  9
$DIMRND
 40
0.0
  9
$DIMDLE
 40
0.0
  9
$DIMEXE
 40
1.25
  9
$DIMTP
 40
0.0
  9
$DIMTM
 40
0.0
  9
$DIMTXT
 40
2.5
  9
$DIMCEN
 40
2.5
  9
$DIMTSZ
 40
0.0
  9
$DIMTOL
 70
0
  9
$DIMLIM
 70
0
  9
$DIMTIH
 70
0
  9
$DIMTOH
 70
0
  9
$DIMSE1
 70
0
  9
$DIMSE2
 70
0
  9
$DIMTAD
 70
1
  9
$DIMZIN
 70
8
  9
$DIMBLK
  1

  9
$DIMASO
 70
1
  9
$DIMSHO
 70
1
  9
$DIMPOST
  1

  9
$DIMAPOST
  1

  9
$DIMALT
 70
0
  9
$DIMALTD
 70
3
  9
$DIMALTF
 40
0.03937007874
  9
$DIMLFAC
 40
1.0
  9
$DIMTOFL
 70
1
  9
$DIMTVP
 40
0.0
  9
$DIMTIX
 70
0
  9
$DIMSOXD
 70
0
  9
$DIMSAH
 70
0
  9
$DIMBLK1
  1

  9
$DIMBLK2
  1

  9
$DIMSTYLE
  2
ISO-25
  9
$DIMCLRD
 70
0
  9
$DIMCLRE
 70
0
  9
$DIMCLRT
 70
0
  9
$DIMTFAC
 40
1.0
  9
$DIMGAP
 40
0.625
  9
$DIMJUST
 70
0
  9
$DIMSD1
 70
0
  9
$DIMSD2
 70
0
  9
$DIMTOLJ
 70
0
  9
$DIMTZIN
 70
8
  9
$DIMALTZ
 70
0
  9
$DIMALTTZ
 70
0
  9
$DIMUPT
 70
0
  9
$DIMDEC
 70
2
  9
$DIMTDEC
 70
2
  9
$DIMALTU
 70
2
  9
$DIMALTTD
 70
3
  9
$DIMTXSTY
  7
Standard
  9
$DIMAUNIT
 70
0
  9
$DIMADEC
 70
0
  9
$DIMALTRND
 40
0.0
  9
$DIMAZIN
 70
0
  9
$DIMDSEP
 70
44
  9
$DIMATFIT
 70
3
  9
$DIMFRAC
 70
0
  9
$DIMLDRBLK
  1

  9
$DIMLUNIT
 70
2
  9
$DIMLWD
 70
-2
  9
$DIMLWE
 70
-2
  9
$DIMTMOVE
 70
0
  9
$DIMFXL
 40
1.0
  9
$DIMFXLON
 70
0
  9
$DIMJOGANG
 40
0.785398163397
  9
$DIMTFILL
 70
0
  9
$DIMTFILLCLR
 70
0
  9
$DIMARCSYM
 70
0
  9
$DIMLTYPE
  6

  9
$DIMLTEX1
  6

  9
$DIMLTEX2
  6

  9
$DIMTXTDIRECTION
 70
0
  9
$LUNITS
 70
2
  9
$LUPREC
 70
4
  9
$SKETCHINC
 40
1.0
  9
$FILLETRAD
 40
10.0
  9
$AUNITS
 70
0
  9
$AUPREC
 70
2
  9
$MENU
  1
.
  9
$ELEVATION
 40
0.0
  9
$PELEVATION
 40
0.0
  9
$THICKNESS
 40
0.0
  9
$LIMCHECK
 70
0
  9
$CHAMFERA
 40
0.0
  9
$CHAMFERB
 40
0.0
  9
$CHAMFERC
 40
0.0
  9
$CHAMFERD
 40
0.0
  9
$SKPOLY
 70
0
  9
$TDCREATE
 40
2459626.7207175926
  9
$TDUCREATE
 40
2458532.153996898
  9
$TDUPDATE
 40
2459626.7207175926
  9
$TDUUPDATE
 40
2458532.1544311
  9
$TDINDWG
 40
0.0
  9
$TDUSRTIMER
 40
0.0
  9
$USRTIMER
 70
1
  9
$ANGBASE
 50
0.0
  9
$ANGDIR
 70
0
  9
$PDMODE
 70
0
  9
$PDSIZE
 40
0.0
  9
$PLINEWID
 40
0.0
  9
$SPLFRAME
 70
0
  9
$SPLINETYPE
 70
6
  9
$SPLINESEGS
 70
8
  9
$HANDSEED
  5
41
  9
$SURFTAB1
 70
6
  9
$SURFTAB2
 70
6
  9
$SURFTYPE
 70
6
  9
$SURFU
 70
6
  9
$SURFV
 70
6
  9
$UCSBASE
  2

  9
$UCSNAME
  2

  9
$UCSORG
 10
0.0
 20
0.0
 30
0.0
  9
$UCSXDIR
 10
1.0
 20
0.0
 30
0.0
  9
$UCSYDIR
 10
0.0
 20
1.0
 30
0.0
  9
$UCSORTHOREF
  2

  9
$UCSORTHOVIEW
 70
0
  9
$UCSORGTOP
 10
0.0
 20
0.0
 30
0.0
  9
$UCSORGBOTTOM
 10
0.0
 20
0.0
 30
0.0
  9
$UCSORGLEFT
 10
0.0
 20
0.0
 30
0.0
  9
$UCSORGRIGHT
 10
0.0
 20
0.0
 30
0.0
  9
$UCSORGFRONT
 10
0.0
 20
0.0
 30
0.0
  9
$UCSORGBACK
 10
0.0
 20
0.0
 30
0.0
  9
$PUCSBASE
  2

  9
$PUCSNAME
  2

  9
$PUCSORG
 10
0.0
 20
0.0
 30
0.0
  9
$PUCSXDIR
 10
1.0
 20
0.0
 30
0.0
  9
$PUCSYDIR
 10
0.0
 20
1.0
 30
0.0
  9
$PUCSORTHOREF
  2

  9
$PUCSORTHOVIEW
 70
0
  9
$PUCSORGTOP
 10
0.0
 20
0.0
 30
0.0
  9
$PUCSORGBOTTOM
 10
0.0
 20
0.0
 30
0.0
  9
$PUCSORGLEFT
 10
0.0
 20
0.0
 30
0.0
  9
$PUCSORGRIGHT
 10
0.0
 20
0.0
 30
0.0
  9
$PUCSORGFRONT
 10
0.0
 20
0.0
 30
0.0
  9
$PUCSORGBACK
 10
0.0
 20
0.0
 30
0.0
  9
$USERI1
 70
0
  9
$USERI2
 70
0
  9
$USERI3
 70
0
  9
$USERI4
 70
0
  9
$USERI5
 70
0
  9
$USERR1
 40
0.0
  9
$USERR2
 40
0.0
  9
$USERR3
 40
0.0
  9
$USERR4
 40
0.0
  9
$USERR5
 40
0.0
  9
$WORLDVIEW
 70
1
  9
$SHADEDGE
 70
3
  9
$SHADEDIF
 70
70
  9
$TILEMODE
 70
1
  9
$MAXACTVP
 70
64
  9
$PINSBASE
 10
0.0
 20
0.0
 30
0.0
  9
$PLIMCHECK
 70
0
  9
$PEXTMIN
 10
1e+20
 20
1e+20
 30
1e+20
  9
$PEXTMAX
 10
-1e+20
 20
-1e+20
 30
-1e+20
  9
$PLIMMIN
 10
0.0
 20
0.0
  9
$PLIMMAX
 10
420.0
 20
297.0
  9
$UNITMODE
 70
0
  9
$VISRETAIN
 70
1
  9
$PLINEGEN
 70
0
  9
$PSLTSCALE
 70
1
  9
$TREEDEPTH
 70
3020
  9
$CMLSTYLE
  2
Standard
  9
$CMLJUST
 70
0
  9
$CMLSCALE
 40
20.0
  9
$PROXYGRAPHICS
 70
1
  9
$MEASUREMENT
 70
1
  9
$CELWEIGHT
370
-1
  9
$ENDCAPS
280
0
  9
$JOINSTYLE
280
0
  9
$LWDISPLAY
290
0
  9
$INSUNITS
 70
6
  9
$HYPERLINKBASE
  1

  9
$STYLESHEET
  1

  9
$XEDIT
290
1
  9
$CEPSNTYPE
380
0
  9
$PSTYLEMODE
290
1
  9
$FINGERPRINTGUID
  2
{338EE50C-54AF-4EC0-9070-8BC198CFB1F9}
  9
$VERSIONGUID
  2
{ECCD82EF-608D-4AB0-9197-0302102E67ED}
  9
$EXTNAMES
290
1
  9
$PSVPSCALE
 40
0.0
  9
$OLESTARTUP
290
0
  9
$SORTENTS
280
127
  9
$INDEXCTL
280
0
  9
$HIDETEXT
280
1
  9
$XCLIPFRAME
280
0
  9
$HALOGAP
280
0
  9
$OBSCOLOR
 70
257
  9
$OBSLTYPE
280
0
  9
$INTERSECTIONDISPLAY
280
0
  9
$INTERSECTIONCOLOR
 70
257
  9
$DIMASSOC
280
2
  9
$PROJECTNAME
  1

  9
$CAMERADISPLAY
290
0
  9
$LENSLENGTH
 40
50.0
  9
$CAMERAHEIGHT
 40
0.0
  9
$STEPSPERSEC
 40
24.0
  9
$STEPSIZE
 40
100.0
  9
$3DDWFPREC
 40
2.0
  9
$PSOLWIDTH
 40
0.005
  9
$PSOLHEIGHT
 40
0.08
  9
$LOFTANG1
 40
1.570796326795
  9
$LOFTANG2
 40
1.570796326795
  9
$LOFTMAG1
 40
0.0
  9
$LOFTMAG2
 40
0.0
  9
$LOFTPARAM
 70
7
  9
$LOFTNORMALS
280
1
  9
$LATITUDE
 40
37.795
  9
$LONGITUDE
 40
-122.394
  9
$NORTHDIRECTION
 40
0.0
  9
$TIMEZONE
 70
-8000
  9
$LIGHTGLYPHDISPLAY
280
1
  9
$TILEMODELIGHTSYNCH
280
1
  9
$CMATERIAL
347
20
  9
$SOLIDHIST
280
0
  9
$SHOWHIST
280
1
  9
$DWFFRAME
280
2
  9
$DGNFRAME
280
2
  9
$REALWORLDSCALE
290
1
  9
$INTERFERECOLOR
 62
256
  9
$CSHADOW
280
0
  9
$SHADOWPLANELOCATION
 40
0.0
  0
ENDSEC
  0
SECTION
  2
CLASSES
  0
CLASS
  1
ACDBDICTIONARYWDFLT
  2
AcDbDictionaryWithDefault
  3
ObjectDBX Classes
 90
0
 91
0
280
0
281
0
  0
CLASS
  1
SUN
  2
AcDbSun
  3
SCENEOE
 90
1153
 91
0
280
0
281
0
  0
CLASS
  1
VISUALSTYLE
  2
AcDbVisualStyle
  3
ObjectDBX Classes
 90
4095
 91
0
280
0
281
0
  0
CLASS
  1
MATERIAL
  2
AcDbMaterial
  3
ObjectDBX Classes
 90
1153
 91
0
280
0
281
0
  0
CLASS
  1
SCALE
  2
AcDbScale
  3
ObjectDBX Classes
 90
1153
 91
0
280
0
281
0
  0
CLASS
  1
TABLESTYLE
  2
AcDbTableStyle
  3
ObjectDBX Classes
 90
4095
 91
0
280
0
281
0
  0
CLASS
  1
MLEADERSTYLE
  2
AcDbMLeaderStyle
  3
ACDB_MLEADERSTYLE_CLASS
 90
4095
 91
0
280
0
281
0
  0
CLASS
  1
DICTIONARYVAR
  2
AcDbDictionaryVar
  3
ObjectDBX Classes
 90
0
 91
0
280
0
281
0
  0
CLASS
  1
CELLSTYLEMAP
  2
AcDbCellStyleMap
  3
ObjectDBX Classes
 90
1152
 91
0
280
0
281
0
  0
CLASS
  1
MENTALRAYRENDERSETTINGS
  2
AcDbMentalRayRenderSettings
  3
SCENEOE
 90
1024
 91
0
280
0
281
0
  0
CLASS
  1
ACDBDETAILVIEWSTYLE
  2
AcDbDetailViewStyle
  3
ObjectDBX Classes
 90
1025
 91
0
280
0
281
0
  0
CLASS
  1
ACDBSECTIONVIEWSTYLE
  2
AcDbSectionViewStyle
  3
ObjectDBX Classes
 90
1025
 91
0
280
0
281
0
  0
CLASS
  1
RASTERVARIABLES
  2
AcDbRasterVariables
  3
ISM
 90
0
 91
0
280
0
281
0
  0
CLASS
  1
ACDBPLACEHOLDER
  2
AcDbPlaceHolder
  3
ObjectDBX Classes
 90
0
 91
0
280
0
281
0
  0
CLASS
  1
LAYOUT
  2
AcDbLayout
  3
ObjectDBX Classes
 90
0
 91
0
280
0
281
0
  0
ENDSEC
  0
SECTION
  2
TABLES
  0
TABLE
  2
VPORT
  5
8
330
0
100
AcDbSymbolTable
 70
1
  0
VPORT
  5
23
330
8
100
AcDbSymbolTableRecord
100
AcDbViewportTableRecord
  2
*Active
 70
0
 10
0.0
 20
0.0
 11
1.0
 21
1.0
 12
344.2
 22
148.5
 13
0.0
 23
0.0
 14
0.5
 24
0.5
 15
0.5
 25
0.5
 16
0.0
 26
0.0
 36
1.0
 17
0.0
 27
0.0
 37
0.0
 40
297.0
 41
1.34
 42
50.0
 43
0.0
 44
0.0
 50
0.0
 51
0.0
 71
0
 72
1000
 73
1
 74
3
 75
0
 76
0
 77
0
 78
0
281
0
 65
0
146
0.0
  0
ENDTAB
  0
TABLE
  2
LTYPE
  5
2
330
0
100
AcDbSymbolTable
 70
3
  0
LTYPE
  5
24
330
2
100
AcDbSymbolTableRecord
100
AcDbLinetypeTableRecord
  2
ByBlock
 70
0
  3

 72
65
 73
0
 40
0.0
  0
LTYPE
  5
25
330
2
100
AcDbSymbolTableRecord
100
AcDbLinetypeTableRecord
  2
ByLayer
 70
0
  3

 72
65
 73
0
 40
0.0
  0
LTYPE
  5
26
330
2
100
AcDbSymbolTableRecord
100
AcDbLinetypeTableRecord
  2
Continuous
 70
0
  3

 72
65
 73
0
 40
0.0
  0
ENDTAB
  0
TABLE
  2
LAYER
  5
1
330
0
100
AcDbSymbolTable
 70
2
  0
LAYER
  5
27
330
1
100
AcDbSymbolTableRecord
100
AcDbLayerTableRecord
  2
0
 70
0
 62
7
  6
Continuous
370
-3
390
13
347
21
  0
LAYER
  5
28
330
1
100
AcDbSymbolTableRecord
100
AcDbLayerTableRecord
  2
Defpoints
 70
0
 62
7
  6
Continuous
290
0
370
-3
390
13
347
21
  0
ENDTAB
  0
TABLE
  2
STYLE
  5
5
330
0
100
AcDbSymbolTable
 70
1
  0
STYLE
  5
29
330
5
100
AcDbSymbolTableRecord
100
AcDbTextStyleTableRecord
  2
Standard
 70
0
 40
0.0
 41
1.0
 50
0.0
 71
0
 42
2.5
  3
txt
  4

  0
ENDTAB
  0
TABLE
  2
VIEW
  5
7
330
0
100
AcDbSymbolTable
 70
0
  0
ENDTAB
  0
TABLE
  2
UCS
  5
6
330
0
100
AcDbSymbolTable
 70
0
  0
ENDTAB
  0
TABLE
  2
APPID
  5
3
330
0
100
AcDbSymbolTable
 70
3
  0
APPID
  5
2A
330
3
100
AcDbSymbolTableRecord
100
AcDbRegAppTableRecord
  2
ACAD
 70
0
  0
APPID
  5
3E
330
3
100
AcDbSymbolTableRecord
100
AcDbRegAppTableRecord
  2
HATCHBACKGROUNDCOLOR
 70
0
  0
APPID
  5
3F
330
3
100
AcDbSymbolTableRecord
100
AcDbRegAppTableRecord
  2
EZDXF
 70
0
  0
ENDTAB
  0
TABLE
  2
DIMSTYLE
  5
4
330
0
100
AcDbSymbolTable
 70
1
100
AcDbDimStyleTable
  0
DIMSTYLE
105
2B
330
4
100
AcDbSymbolTableRecord
100
AcDbDimStyleTableRecord
  2
Standard
 70
0
 40
1.0
 41
2.5
 42
0.625
 43
3.75
 44
1.25
 45
0.0
 46
0.0
 47
0.0
 48
0.0
 49
2.5
140
2.5
141
2.5
142
0.0
143
0.03937007874
144
1.0
145
0.0
146
1.0
147
0.625
148
0.0
 69
0
 70
0
 71
0
 72
0
 73
0
 74
0
 75
0
 76
0
 77
1
 78
8
 79
0
170
0
171
3
172
1
173
0
174
0
175
0
176
0
177
0
178
0
179
0
271
0
272
2
273
2
274
3
275
0
276
0
277
2
278
44
279
0
280
0
281
0
282
0
283
0
284
8
285
0
286
0
288
0
289
3
290
0
371
-2
372
-2
  0
ENDTAB
  0
TABLE
  2
BLOCK_RECORD
  5
9
330
0
100
AcDbSymbolTable
 70
2
  0
BLOCK_RECORD
  5
17
330
9
100
AcDbSymbolTableRecord
100
AcDbBlockTableRecord
  2
*Model_Space
340
1A
 70
0
280
1
281
0
  0
BLOCK_RECORD
  5
1B
330
9
100
AcDbSymbolTableRecord
100
AcDbBlockTableRecord
  2
*Paper_Space
340
1E
 70
0
280
1
281
0
  0
ENDTAB
  0
ENDSEC
  0
SECTION
  2
BLOCKS
  0
BLOCK
  5
18
330
17
100
AcDbEntity
  8
0
100
AcDbBlockBegin
  2
*Model_Space
 70
0
 10
0.0
 20
0.0
 30
0.0
  3
*Model_Space
  1

  0
ENDBLK
  5
19
330
17
100
AcDbEntity
  8
0
100
AcDbBlockEnd
  0
BLOCK
  5
1C
330
1B
100
AcDbEntity
  8
0
100
AcDbBlockBegin
  2
*Paper_Space
 70
0
 10
0.0
 20
0.0
 30
0.0
  3
*Paper_Space
  1

  0
ENDBLK
  5
1D
330
1B
100
AcDbEntity
  8
0
100
AcDbBlockEnd
  0
ENDSEC
  0
SECTION
  2
ENTITIES
  0
SPLINE
  5
2F
330
17
100
AcDbEntity
  8
0
100
AcDbSpline
 70
0
 71
8
 72
130
 73
121
 74
0
 40
0.0
 40
0.0
 40
0.0
 40
0.0
 40
0.0
 40
0.0
 40
0.0
 40
0.0
 40
0.0
 40
0.07421988413653616
 40
0.07421988413653616
 40
0.07421988413653616
 40
0.07421988413653616
 40
0.07421988413653616
 40
0.07421988413653616
 40
0.07421988413653616
 40
0.33154232301385983
 40
0.33154232301385983
 40
0.33154232301385983
 40
0.33154232301385983
 40
0.33154232301385983
 40
0.33154232301385983
 40
0.33154232301385983
 40
0.47668964807219566
 40
0.47668964807219566
 40
0.47668964807219566
 40
0.47668964807219566
 40
0.47668964807219566
 40
0.47668964807219566
 40
0.47668964807219566
 40
0.5155461667804118
 40
0.5155461667804118
 40
0.5155461667804118
 40
0.5155461667804118
 40
0.5155461667804118
 40
0.5155461667804118
 40
0.5155461667804118
 40
0.5520132946303986
 40
0.5520132946303986
 40
0.5520132946303986
 40
0.5520132946303986
 40
0.5520132946303986
 40
0.5520132946303986
 40
0.5520132946303986
 40
0.6470816587685303
 40
0.6470816587685303
 40
0.6470816587685303
 40
0.6470816587685303
 40
0.6470816587685303
 40
0.6470816587685303
 40
0.6470816587685303
 40
0.7018130914500502
 40
0.7018130914500502
 40
0.7018130914500502
 40
0.7018130914500502
 40
0.7018130914500502
 40
0.7018130914500502
 40
0.7018130914500502
 40
0.7798630733738259
 40
0.7798630733738259
 40
0.7798630733738259
 40
0.7798630733738259
 40
0.7798630733738259
 40
0.7798630733738259
 40
0.7798630733738259
 40
0.8022637305025357
 40
0.8022637305025357
 40
0.8022637305025357
 40
0.8022637305025357
 40
0.8022637305025357
 40
0.8022637305025357
 40
0.8022637305025357
 40
0.8201839561271264
 40
0.8201839561271264
 40
0.8201839561271264
 40
0.8201839561271264
 40
0.8201839561271264
 40
0.8201839561271264
 40
0.8201839561271264
 40
0.8748675937528197
 40
0.8748675937528197
 40
0.8748675937528197
 40
0.8748675937528197
 40
0.8748675937528197
 40
0.8748675937528197
 40
0.8748675937528197
 40
0.9185281457820648
 40
0.9185281457820648
 40
0.9185281457820648
 40
0.9185281457820648
 40
0.9185281457820648
 40
0.9185281457820648
 40
0.9185281457820648
 40
0.9548642363579064
 40
0.9548642363579064
 40
0.9548642363579064
 40
0.9548642363579064
 40
0.9548642363579064
 40
0.9548642363579064
 40
0.9548642363579064
 40
0.9728129151107515
 40
0.9728129151107515
 40
0.9728129151107515
 40
0.9728129151107515
 40
0.9728129151107515
 40
0.9728129151107515
 40
0.9728129151107515
 40
0.9858877628511749
 40
0.9858877628511749
 40
0.9858877628511749
 40
0.9858877628511749
 40
0.9858877628511749
 40
0.9858877628511749
 40
0.9858877628511749
 40
0.9948313634577799
 40
0.9948313634577799
 40
0.9948313634577799
 40
0.9948313634577799
 40
0.9948313634577799
 40
0.9948313634577799
 40
0.9948313634577799
 40
1.0
 40
1.0
 40
1.0
 40
1.0
 40
1.0
 40
1.0
 40
1.0
 40
1.0
 40
1.0
 10
75.96588562145757
 20
27.899999999201324
 30
15.0
 10
75.93982077465378
 20
28.19609820751417
 30
15.0
 10
75.91320314670676
 20
28.492146115592064
 30
15.0
 10
75.88601062429652
 20
28.788140410751307
 30
15.0
 10
75.8582199196013
 20
29.08407746704684
 30
15.0
 10
75.82980641120182
 20
29.379953329538623
 30
15.0
 10
75.80074398498564
 20
29.67576369855798
 30
15.0
 10
75.77100487505145
 20
29.971503913973972
 30
15.0
 10
75.63500454363749
 20
31.292247950749406
 30
15.0
 10
75.52098089758763
 20
32.316206658167424
 30
15.0
 10
75.39724159428735
 20
33.339065148942616
 30
15.0
 10
75.2622372517259
 20
34.36061588253363
 30
15.0
 10
75.1141169437641
 20
35.38042844218463
 30
15.0
 10
74.95026585098876
 20
36.39776787427669
 30
15.0
 10
74.76738739262281
 20
37.41161342497322
 30
15.0
 10
74.4420685192454
 20
38.989291308226804
 30
15.0
 10
74.31683953367437
 20
39.556205274432195
 30
15.0
 10
74.18257150653027
 20
40.12110083367647
 30
15.0
 10
74.03784454677512
 20
40.68362684355582
 30
15.0
 10
73.88100038216078
 20
41.24306306215248
 30
15.0
 10
73.70962340209783
 20
41.798143044775266
 30
15.0
 10
73.52076399079465
 20
42.347135964375745
 30
15.0
 10
73.25179824755183
 20
43.03167088486054
 30
15.0
 10
73.19333375694205
 20
43.175554387850475
 30
15.0
 10
73.13311818775456
 20
43.31871878314086
 30
15.0
 10
73.07101218441625
 20
43.461045916599794
 30
15.0
 10
73.0067860522565
 20
43.602436877452526
 30
15.0
 10
72.94058035318321
 20
43.74287611929828
 30
15.0
 10
72.87216314408528
 20
43.88222577054605
 30
15.0
 10
72.73517428106727
 20
44.15007385015809
 30
15.0
 10
72.66803847921182
 20
44.27641480819099
 30
15.0
 10
72.60010199869119
 20
44.399471948861894
 30
15.0
 10
72.53137828827407
 20
44.51929624075057
 30
15.0
 10
72.46188079697406
 20
44.63593864902154
 30
15.0
 10
72.39162297404953
 20
44.74945013542395
 30
15.0
 10
72.32061826900362
 20
44.85988165829159
 30
15.0
 10
72.06186163649397
 20
45.247278291525845
 30
15.0
 10
71.86180541826242
 20
45.51874412980264
 30
15.0
 10
71.6479317620114
 20
45.779876068631225
 30
15.0
 10
71.41961771292571
 20
46.028629957856914
 30
15.0
 10
71.1764883920499
 20
46.26281567496773
 30
15.0
 10
70.91860497504213
 20
46.48030033558645
 30
15.0
 10
70.64673338689599
 20
46.67929123680612
 30
15.0
 10
70.1991452250991
 20
46.961935681335106
 30
15.0
 10
70.03153486672697
 20
47.058727570629884
 30
15.0
 10
69.86017857151367
 20
47.14882841984403
 30
15.0
 10
69.68543087194807
 20
47.232150981449536
 30
15.0
 10
69.5076643459094
 20
47.30872474128714
 30
15.0
 10
69.3272637187295
 20
47.37868238342456
 30
15.0
 10
69.14461867342585
 20
47.44224360179188
 30
15.0
 10
68.6970036824282
 20
47.58162685323058
 30
15.0
 10
68.43011028118696
 20
47.651135784729824
 30
15.0
 10
68.16038130356381
 20
47.70911253765485
 30
15.0
 10
67.88863469904616
 20
47.75671614948804
 30
15.0
 10
67.6155361458635
 20
47.79523618750973
 30
15.0
 10
67.3415822186507
 20
47.825997784070225
 30
15.0
 10
67.06709080633807
 20
47.85031073025523
 30
15.0
 10
66.71330366880674
 20
47.87495929921788
 30
15.0
 10
66.63434313980929
 20
47.880033099127026
 30
15.0
 10
66.55532498602267
 20
47.88471352518369
 30
15.0
 10
66.47625700037145
 20
47.88903007566872
 30
15.0
 10
66.39714697595774
 20
47.89301224963224
 30
15.0
 10
66.31800270606102
 20
47.896689546893704
 30
15.0
 10
66.23883198413829
 20
47.900091468041865
 30
15.0
 10
66.09629216039049
 20
47.90577230927084
 30
15.0
 10
66.0329254898682
 20
47.90814419598285
 30
15.0
 10
65.9695549189675
 20
47.910367265548636
 30
15.0
 10
65.9061928401776
 20
47.91244514856692
 30
15.0
 10
65.84285171176647
 20
47.914381015257256
 30
15.0
 10
65.77954405778091
 20
47.91617757546005
 30
15.0
 10
65.71628246804649
 20
47.91783707863658
 30
15.0
 10
65.46021579690921
 20
47.9240125235608
 30
15.0
 10
65.26733193780943
 20
47.927423500392045
 30
15.0
 10
65.0744434171888
 20
47.929665288171094
 30
15.0
 10
64.88156499621728
 20
47.9307986080041
 30
15.0
 10
64.68871092619723
 20
47.930875833777414
 30
15.0
 10
64.49589525355773
 20
47.9299423873286
 30
15.0
 10
64.30313230456002
 20
47.928037553306076
 30
15.0
 10
63.956585695597646
 20
47.92292493154538
 30
15.0
 10
63.80277871108584
 20
47.92005721143342
 30
15.0
 10
63.649023715313284
 20
47.91660858661572
 30
15.0
 10
63.4953297950239
 20
47.912593670388866
 30
15.0
 10
63.34170777204873
 20
47.90802488492661
 30
15.0
 10
63.18817073408217
 20
47.90291245141813
 30
15.0
 10
63.03473512875671
 20
47.897264141529725
 30
15.0
 10
62.75382933810831
 20
47.885942082194994
 30
15.0
 10
62.6263267616156
 20
47.8804317813701
 30
15.0
 10
62.49892274089941
 20
47.87455649272514
 30
15.0
 10
62.371631180337914
 20
47.868317578215276
 30
15.0
 10
62.244475259996534
 20
47.86171469110369
 30
15.0
 10
62.117487103323704
 20
47.854745755137046
 30
15.0
 10
61.990711824134785
 20
47.84740612073269
 30
15.0
 10
61.80174384147361
 20
47.83587199497982
 30
15.0
 10
61.739338302761
 20
47.83196569254221
 30
15.0
 10
61.67701324275825
 20
47.82796537337397
 30
15.0
 10
61.61478074785
 20
47.8238694554357
 30
15.0
 10
61.55265805325472
 20
47.81967618892227
 30
15.0
 10
61.490669050692865
 20
47.815383522812155
 30
15.0
 10
61.428848467524496
 20
47.81098877338244
 30
15.0
 10
61.32237592391043
 20
47.80320954201988
 30
15.0
 10
61.27764925030574
 20
47.79987687330914
 30
15.0
 10
61.23306186863728
 20
47.796486791203385
 30
15.0
 10
61.18863621128199
 20
47.79303688037165
 30
15.0
 10
61.14440953592538
 20
47.789525419608985
 30
15.0
 10
61.1004738884494
 20
47.78595171073287
 30
15.0
 10
61.056935279788796
 20
47.782315819294745
 30
15.0
 10
60.9847150765362
 20
47.77608845481671
 30
15.0
 10
60.95756237794016
 20
47.77369177210496
 30
15.0
 10
60.93263413750884
 20
47.771436864209576
 30
15.0
 10
60.90997262676712
 20
47.76933271603191
 30
15.0
 10
60.88962011716207
 20
47.76738831239828
 30
15.0
 10
60.871618880062876
 20
47.7656126380599
 30
15.0
 10
60.85601118676096
 20
47.764014677692884
 30
15.0
 10
60.835227088910955
 20
47.76178782723289
 30
15.0
 10
60.82801955979455
 20
47.76099078420717
 30
15.0
 10
60.82122679838793
 20
47.76020958855858
 30
15.0
 10
60.815028998490455
 20
47.75945699534798
 30
15.0
 10
60.809711404612685
 20
47.7587558947948
 30
15.0
 10
60.80569320880701
 20
47.75814322800104
 30
15.0
 10
60.80345742753697
 20
47.75766599309778
 30
15.0
 10
60.80318877597278
 20
47.757352198347625
 30
15.0
  0
LINE
  5
30
330
17
100
AcDbEntity
  8
0
100
AcDbLine
 10
66.0384306050019
 20
27.9
 30
15.0
 11
75.96588563053041
 21
27.9
 31
15.0
  0
SPLINE
  5
31
330
17
100
AcDbEntity
  8
0
100
AcDbSpline
 70
0
 71
1
 72
4
 73
2
 74
0
 40
0.0
 40
0.0
 40
1.0
 40
1.0
 10
66.03843060509769
 20
27.900000600000002
 30
15.0
 10
66.03843060509769
 20
24.099999399999998
 30
15.0
  0
LINE
  5
32
330
17
100
AcDbEntity
  8
0
100
AcDbLine
 10
66.0384306050019
 20
24.1
 30
15.0
 11
76.26499620341444
 21
24.1
 31
15.0
  0
SPLINE
  5
33
330
17
100
AcDbEntity
  8
0
100
AcDbSpline
 70
0
 71
8
 72
32
 73
23
 74
0
 40
0.0
 40
0.0
 40
0.0
 40
0.0
 40
0.0
 40
0.0
 40
0.0
 40
0.0
 40
0.0
 40
0.6299246432173029
 40
0.6299246432173029
 40
0.6299246432173029
 40
0.6299246432173029
 40
0.6299246432173029
 40
0.6299246432173029
 40
0.6299246432173029
 40
0.9802789457030067
 40
0.9802789457030067
 40
0.9802789457030067
 40
0.9802789457030067
 40
0.9802789457030067
 40
0.9802789457030067
 40
0.9802789457030067
 40
1.0
 40
1.0
 40
1.0
 40
1.0
 40
1.0
 40
1.0
 40
1.0
 40
1.0
 40
1.0
 10
77.04378604892258
 20
1.8999999999868398
 30
15.0
 10
77.03598472291847
 20
3.649444567280153
 30
15.0
 10
77.0198260420697
 20
5.398849652238373
 30
15.0
 10
76.99496281879796
 20
7.148168279858343
 30
15.0
 10
76.96102504218149
 20
8.897343760767042
 30
15.0
 10
76.91761696923272
 20
10.646309618754687
 30
15.0
 10
76.86431327880813
 20
12.394989494759395
 30
15.0
 10
76.80065428815003
 20
14.143297027303385
 30
15.0
 10
76.68469667142574
 20
16.86325643669371
 30
15.0
 10
76.63989525725047
 20
17.8352307262946
 30
15.0
 10
76.59164998554874
 20
18.80704147209797
 30
15.0
 10
76.53987110637523
 20
19.77866981477612
 30
15.0
 10
76.4844647440125
 20
20.750095119087817
 30
15.0
 10
76.42533251715787
 20
21.721294951207067
 30
15.0
 10
76.36237115911057
 20
22.692245056051828
 30
15.0
 10
76.29170646641064
 20
23.717557510928483
 30
15.0
 10
76.28792828292754
 20
23.77219481103234
 30
15.0
 10
76.28413763428627
 20
23.826831235089696
 30
15.0
 10
76.28033451467424
 20
23.881466779219817
 30
15.0
 10
76.27651888317304
 20
23.9361014368114
 30
15.0
 10
76.27269067578113
 20
23.990735199427384
 30
15.0
 10
76.26884981357642
 20
24.045368057418994
 30
15.0
 10
76.26499620817438
 20
24.10000000033575
 30
15.0
  0
LINE
  5
34
330
17
100
AcDbEntity
  8
0
100
AcDbLine
 10
66.0384306050019
 20
1.9
 30
15.0
 11
77.04378605187485
 21
1.9
 31
15.0
  0
SPLINE
  5
35
330
17
100
AcDbEntity
  8
0
100
AcDbSpline
 70
0
 71
1
 72
4
 73
2
 74
0
 40
0.0
 40
0.0
 40
0.9999993684216398
 40
0.9999993684216398
 10
66.03843060509769
 20
1.9000006000000558
 30
15.0
 10
66.03843060509769
 20
-6.553790374438061e-17
 30
15.0
  0
SPLINE
  5
36
330
17
100
AcDbEntity
  8
0
100
AcDbSpline
 70
0
 71
1
 72
4
 73
2
 74
0
 40
0.0
 40
0.0
 40
1.0
 40
1.0
 10
66.03843060509769
 20
-1.9000006000000011
 30
15.0
 10
66.03843060509769
 20
1.2000000211287443e-06
 30
15.0
  0
LINE
  5
37
330
17
100
AcDbEntity
  8
0
100
AcDbLine
 10
66.03843060500206
 20
-1.9
 30
15.0
 11
77.04376828855013
 21
-1.9
 31
15.0
  0
SPLINE
  5
38
330
17
100
AcDbEntity
  8
0
100
AcDbSpline
 70
0
 71
8
 72
39
 73
30
 74
0
 40
0.0
 40
0.0
 40
0.0
 40
0.0
 40
0.0
 40
0.0
 40
0.0
 40
0.0
 40
0.0
 40
0.03545641884036685
 40
0.03545641884036685
 40
0.03545641884036685
 40
0.03545641884036685
 40
0.03545641884036685
 40
0.03545641884036685
 40
0.03545641884036685
 40
0.3172418073352704
 40
0.3172418073352704
 40
0.3172418073352704
 40
0.3172418073352704
 40
0.3172418073352704
 40
0.3172418073352704
 40
0.3172418073352704
 40
0.6975028488312773
 40
0.6975028488312773
 40
0.6975028488312773
 40
0.6975028488312773
 40
0.6975028488312773
 40
0.6975028488312773
 40
0.6975028488312773
 40
1.0
 40
1.0
 40
1.0
 40
1.0
 40
1.0
 40
1.0
 40
1.0
 40
1.0
 40
1.0
 10
76.26495275013522
 20
-24.100000005594765
 30
15.000000000000005
 10
76.2718798101185
 20
-24.001777389407692
 30
15.000000000000005
 10
76.2787656610404
 20
-23.90355181275326
 30
15.000000000000005
 10
76.28561075407575
 20
-23.80532333166719
 30
15.000000000000005
 10
76.29241544726816
 20
-23.707091994356183
 30
15.000000000000005
 10
76.29917998347176
 20
-23.608857839275878
 30
15.000000000000005
 10
76.30590447752543
 20
-23.510620893698047
 30
15.000000000000004
 10
76.3125889126589
 20
-23.412381172767105
 30
15.0
 10
76.37203734834624
 20
-22.53336892943933
 30
15.0
 10
76.42231472950141
 20
-21.752425380985297
 30
15.0
 10
76.4701208040576
 20
-20.971321397214815
 30
15.0
 10
76.51550917199222
 20
-20.190069571934902
 30
15.0
 10
76.55853151879946
 20
-19.40868172922853
 30
15.0
 10
76.59923761549024
 20
-18.627168923454672
 30
15.0
 10
76.63767531859217
 20
-17.845541439248308
 30
15.0
 10
76.72276198022811
 20
-16.00888372111766
 30
15.0
 10
76.76758637379541
 20
-14.953767605330993
 30
15.0
 10
76.80847722765095
 20
-13.898483791991588
 30
15.0
 10
76.84554251468853
 20
-12.843053920802221
 30
15.0
 10
76.87888511236348
 20
-11.787497938896625
 30
15.0
 10
76.9086032111602
 20
-10.731834116398899
 30
15.0
 10
76.93479072305963
 20
-9.676079061982932
 30
15.0
 10
76.97563287186422
 20
-7.7803353292288175
 30
15.0
 10
76.99155089725407
 20
-6.940374936003643
 30
15.0
 10
77.00533667515852
 20
-6.1003741626213035
 30
15.0
 10
77.0170344811988
 20
-5.260340153525954
 30
15.0
 10
77.02668642911243
 20
-4.420279637986637
 30
15.0
 10
77.03433305733523
 20
-3.580198926079335
 30
15.0
 10
77.04001419490979
 20
-2.7401038944522518
 30
15.0
 10
77.04376827094036
 20
-1.899999999921308
 30
15.0
  0
LINE
  5
39
330
17
100
AcDbEntity
  8
0
100
AcDbLine
 10
66.03843060500206
 20
-24.1
 30
15.0
 11
76.2649526708041
 21
-24.1
 31
15.0
  0
SPLINE
  5
3A
330
17
100
AcDbEntity
  8
0
100
AcDbSpline
 70
0
 71
1
 72
4
 73
2
 74
0
 40
0.0
 40
0.0
 40
1.0
 40
1.0
 10
66.03843060509769
 20
-27.900000600000034
 30
15.0
 10
66.03843060509769
 20
-24.099999399999938
 30
15.0
  0
LINE
  5
3B
330
17
100
AcDbEntity
  8
0
100
AcDbLine
 10
66.03843060500206
 20
-27.9
 30
15.0
 11
75.96590981629954
 21
-27.9
 31
15.0
  0
SPLINE
  5
3C
330
17
100
AcDbEntity
  8
0
100
AcDbSpline
 70
0
 71
8
 72
137
 73
128
 74
0
 40
0.0
 40
0.0
 40
0.0
 40
0.0
 40
0.0
 40
0.0
 40
0.0
 40
0.0
 40
0.0
 40
0.0006440024744764575
 40
0.0006440024744764575
 40
0.0006440024744764575
 40
0.0006440024744764575
 40
0.0006440024744764575
 40
0.0006440024744764575
 40
0.0006440024744764575
 40
0.002878035123292174
 40
0.002878035123292174
 40
0.002878035123292174
 40
0.002878035123292174
 40
0.002878035123292174
 40
0.002878035123292174
 40
0.002878035123292174
 40
0.0054682112413847305
 40
0.0054682112413847305
 40
0.0054682112413847305
 40
0.0054682112413847305
 40
0.0054682112413847305
 40
0.0054682112413847305
 40
0.0054682112413847305
 40
0.008058387359349994
 40
0.008058387359349994
 40
0.008058387359349994
 40
0.008058387359349994
 40
0.008058387359349994
 40
0.008058387359349994
 40
0.008058387359349994
 40
0.013285413532211207
 40
0.013285413532211207
 40
0.013285413532211207
 40
0.013285413532211207
 40
0.013285413532211207
 40
0.013285413532211207
 40
0.013285413532211207
 40
0.02169119207441475
 40
0.02169119207441475
 40
0.02169119207441475
 40
0.02169119207441475
 40
0.02169119207441475
 40
0.02169119207441475
 40
0.02169119207441475
 40
0.03217588578889738
 40
0.03217588578889738
 40
0.03217588578889738
 40
0.03217588578889738
 40
0.03217588578889738
 40
0.03217588578889738
 40
0.03217588578889738
 40
0.04473891406731864
 40
0.04473891406731864
 40
0.04473891406731864
 40
0.04473891406731864
 40
0.04473891406731864
 40
0.04473891406731864
 40
0.04473891406731864
 40
0.05118083100018406
 40
0.05118083100018406
 40
0.05118083100018406
 40
0.05118083100018406
 40
0.05118083100018406
 40
0.05118083100018406
 40
0.05118083100018406
 40
0.057623793634727485
 40
0.057623793634727485
 40
0.057623793634727485
 40
0.057623793634727485
 40
0.057623793634727485
 40
0.057623793634727485
 40
0.057623793634727485
 40
0.06832820937262095
 40
0.06832820937262095
 40
0.06832820937262095
 40
0.06832820937262095
 40
0.06832820937262095
 40
0.06832820937262095
 40
0.06832820937262095
 40
0.08627701163080527
 40
0.08627701163080527
 40
0.08627701163080527
 40
0.08627701163080527
 40
0.08627701163080527
 40
0.08627701163080527
 40
0.08627701163080527
 40
0.09884194675663843
 40
0.09884194675663843
 40
0.09884194675663843
 40
0.09884194675663843
 40
0.09884194675663843
 40
0.09884194675663843
 40
0.09884194675663843
 40
0.11997648070841208
 40
0.11997648070841208
 40
0.11997648070841208
 40
0.11997648070841208
 40
0.11997648070841208
 40
0.11997648070841208
 40
0.11997648070841208
 40
0.12695848052223976
 40
0.12695848052223976
 40
0.12695848052223976
 40
0.12695848052223976
 40
0.12695848052223976
 40
0.12695848052223976
 40
0.12695848052223976
 40
0.15483715324722702
 40
0.15483715324722702
 40
0.15483715324722702
 40
0.15483715324722702
 40
0.15483715324722702
 40
0.15483715324722702
 40
0.15483715324722702
 40
0.21522773320263033
 40
0.21522773320263033
 40
0.21522773320263033
 40
0.21522773320263033
 40
0.21522773320263033
 40
0.21522773320263033
 40
0.21522773320263033
 40
0.2579971659563557
 40
0.2579971659563557
 40
0.2579971659563557
 40
0.2579971659563557
 40
0.2579971659563557
 40
0.2579971659563557
 40
0.2579971659563557
 40
0.2579971659563557
 40
0.2579971659563557
 10
60.80318877597277
 20
-47.757352198347625
 30
15.0
 10
60.8032252429102
 20
-47.757394793050395
 30
15.0
 10
60.803281404453806
 20
-47.75742127962243
 30
15.0
 10
60.8033129496318
 20
-47.757440803126556
 30
15.0
 10
60.803372825761784
 20
-47.75746914373049
 30
15.0
 10
60.80347810470991
 20
-47.757517359323906
 30
15.0
 10
60.80368096719931
 20
-47.757598037725025
 30
15.0
 10
60.80419485302474
 20
-47.757735953593965
 30
15.0
 10
60.80970051308266
 20
-47.75878156823313
 30
15.0
 10
60.818099013840616
 20
-47.759891213048945
 30
15.0
 10
60.828860840814805
 20
-47.76114712473175
 30
15.0
 10
60.841010909269784
 20
-47.7624687450628
 30
15.0
 10
60.85377085899641
 20
-47.7637976070323
 30
15.0
 10
60.866881582220365
 20
-47.765119807664554
 30
15.0
 10
60.88033129050751
 20
-47.76644241432389
 30
15.0
 10
60.91094102549435
 20
-47.76938321318994
 30
15.0
 10
60.92899824147208
 20
-47.77107713680172
 30
15.0
 10
60.94865347438828
 20
-47.77288083418403
 30
15.0
 10
60.969882262619514
 20
-47.77478910598481
 30
15.0
 10
60.992660144496625
 20
-47.77679675281086
 30
15.0
 10
61.01696265830465
 20
-47.77889857522786
 30
15.0
 10
61.04276534228296
 20
-47.781089373760366
 30
15.0
 10
61.09732212696596
 20
-47.785638524023035
 30
15.0
 10
61.126076227656846
 20
-47.78799687574958
 30
15.0
 10
61.15628157488856
 20
-47.79043380455107
 30
15.0
 10
61.18791370678801
 20
-47.79294411085962
 30
15.0
 10
61.22094816141828
 20
-47.79552259505975
 30
15.0
 10
61.255360476778534
 20
-47.79816405748836
 30
15.0
 10
61.29112619080414
 20
-47.800863298434734
 30
15.0
 10
61.40307857324749
 20
-47.809168344242075
 30
15.0
 10
61.478306740476334
 20
-47.81456171042406
 30
15.0
 10
61.55379330903081
 20
-47.81980312885494
 30
15.0
 10
61.629476312779346
 20
-47.824897197278574
 30
15.0
 10
61.70531285320202
 20
-47.829847475370315
 30
15.0
 10
61.78127315886572
 20
-47.83465704268886
 30
15.0
 10
61.85734270202751
 20
-47.839328417225616
 30
15.0
 10
62.05601151852333
 20
-47.85115761679098
 30
15.0
 10
62.17874817644355
 20
-47.85809834433097
 30
15.0
 10
62.30166800890765
 20
-47.864693792893064
 30
15.0
 10
62.42473463482596
 20
-47.87094747886508
 30
15.0
 10
62.5479217069268
 20
-47.87686078170926
 30
15.0
 10
62.6712098969525
 20
-47.8824335898875
 30
15.0
 10
62.79458678132095
 20
-47.88766437313308
 30
15.0
 10
63.07203602868444
 20
-47.898645073617196
 30
15.0
 10
63.22614737380931
 20
-47.904203192825676
 30
15.0
 10
63.38035785857976
 20
-47.90921952811881
 30
15.0
 10
63.53465145641564
 20
-47.91368582539981
 30
15.0
 10
63.68901534381405
 20
-47.917591371472426
 30
15.0
 10
63.84343886104935
 20
-47.92092322182366
 30
15.0
 10
63.99791300354915
 20
-47.923666195594095
 30
15.0
 10
64.33757719463482
 20
-47.92836257737553
 30
15.0
 10
64.52278431896245
 20
-47.93005177428211
 30
15.0
 10
64.70803852131954
 20
-47.930839591644286
 30
15.0
 10
64.89332706489708
 20
-47.93069092523388
 30
15.0
 10
65.07863744669189
 20
-47.92956529059582
 30
15.0
 10
65.26395707251297
 20
-47.927415910237976
 30
15.0
 10
65.44927293198765
 20
-47.92418880082079
 30
15.0
 10
65.72958630480112
 20
-47.91758263369241
 30
15.0
 10
65.82459567066977
 20
-47.91503932552
 30
15.0
 10
65.91959862238943
 20
-47.9122094952401
 30
15.0
 10
66.0145921838889
 20
-47.90902206511762
 30
15.0
 10
66.10957588983894
 20
-47.90552768417729
 30
15.0
 10
66.20454752823234
 20
-47.90174618292773
 30
15.0
 10
66.29950023041245
 20
-47.89753776944817
 30
15.0
 10
66.48937768242072
 20
-47.88823070997861
 30
15.0
 10
66.58427238853544
 20
-47.88312830789789
 30
15.0
 10
66.67910189710815
 20
-47.87752643385869
 30
15.0
 10
66.77385273584014
 20
-47.87137411225335
 30
15.0
 10
66.86851143281855
 20
-47.864620369146685
 30
15.0
 10
66.96306451651633
 20
-47.857214232276185
 30
15.0
 10
67.0574985157923
 20
-47.84910473105187
 30
15.0
 10
67.30847351514423
 20
-47.825514415144866
 30
15.0
 10
67.46494422217488
 20
-47.80869043320408
 30
15.0
 10
67.6211610860847
 20
-47.789526471981674
 30
15.0
 10
67.77705419339267
 20
-47.767778860817536
 30
15.0
 10
67.9325349838432
 20
-47.74320438895527
 30
15.0
 10
68.08749675981261
 20
-47.71556351383163
 30
15.0
 10
68.24181543331436
 20
-47.68462512584418
 30
15.0
 10
68.65279293524488
 20
-47.592404491586585
 30
15.0
 10
68.90814676803957
 20
-47.524731031995685
 30
15.0
 10
69.16058941583336
 20
-47.446152356079544
 30
15.0
 10
69.40921480952198
 20
-47.355806069373614
 30
15.0
 10
69.65306536291303
 20
-47.25304852714369
 30
15.0
 10
69.8911703777829
 20
-47.1375534565503
 30
15.0
 10
70.122582298644
 20
-47.009406491927244
 30
15.0
 10
70.50308581224019
 20
-46.771005082082574
 30
15.0
 10
70.65609876338343
 20
-46.66688219681494
 30
15.0
 10
70.80515356920395
 20
-46.556977438178926
 30
15.0
 10
70.95004283663908
 20
-46.44152830168265
 30
15.0
 10
71.09062864695782
 20
-46.3208244298307
 30
15.0
 10
71.22683191819192
 20
-46.19519443401888
 30
15.0
 10
71.3586217675668
 20
-46.06499271642896
 30
15.0
 10
71.70026643273918
 20
-45.70451133701124
 30
15.0
 10
71.90203570845351
 20
-45.46656731458881
 30
15.0
 10
72.09151650826294
 20
-45.21833603318632
 30
15.0
 10
72.26924195231
 20
-44.96137853695285
 30
15.0
 10
72.43589247562079
 20
-44.697105150717626
 30
15.0
 10
72.59220704123881
 20
-44.4267116908641
 30
15.0
 10
72.7389447599138
 20
-44.15115123725835
 30
15.0
 10
72.9224138136815
 20
-43.77859678682868
 30
15.0
 10
72.96701231727072
 20
-43.685599099648925
 30
15.0
 10
73.01066870420988
 20
-43.59214301012629
 30
15.0
 10
73.0534054740218
 20
-43.498253504268455
 30
15.0
 10
73.09524854400517
 20
-43.40395534389835
 30
15.0
 10
73.13622724923445
 20
-43.309273066654356
 30
15.0
 10
73.1763743425599
 20
-43.21423098599013
 30
15.0
 10
73.37285459069403
 20
-42.738015838297216
 30
15.0
 10
73.5172862771988
 20
-42.351949951440034
 30
15.0
 10
73.65134325184732
 20
-41.9619716919253
 30
15.0
 10
73.7765016196027
 20
-41.568982133863855
 30
15.0
 10
73.89393121055076
 20
-41.1736509313717
 30
15.0
 10
74.0045401913576
 20
-40.77642993562906
 30
15.0
 10
74.10909341786193
 20
-40.37759543919305
 30
15.0
 10
74.42299295047931
 20
-39.11003859430806
 30
15.0
 10
74.61216093027465
 20
-38.23654845946773
 30
15.0
 10
74.78212777596997
 20
-37.35883001122015
 30
15.0
 10
74.93622027833324
 20
-36.4781171150473
 30
15.0
 10
75.07710388891901
 20
-35.5953018617163
 30
15.0
 10
75.20662138637243
 20
-34.7108952801527
 30
15.0
 10
75.32632177781146
 20
-33.82514035613314
 30
15.0
 10
75.51612626809975
 20
-32.30971552468163
 30
15.0
 10
75.59049346699503
 20
-31.680879083028906
 30
15.0
 10
75.6609674076473
 20
-31.051571764695623
 30
15.0
 10
75.72790616461853
 20
-30.421861453977098
 30
15.0
 10
75.7916161133218
 20
-29.79180534870116
 30
15.0
 10
75.8523653286115
 20
-29.161451366763465
 30
15.0
 10
75.91039186845342
 20
-28.530839009794786
 30
15.0
 10
75.9659098363887
 20
-27.900000001767978
 30
15.0
  0
SPLINE
  5
3D
330
17
100
AcDbEntity
  8
0
100
AcDbSpline
 70
0
 71
8
 72
333
 73
324
 74
0
 40
0.0
 40
0.0
 40
0.0
 40
0.0
 40
0.0
 40
0.0
 40
0.0
 40
0.0
 40
0.0
 40
0.0015368281270971606
 40
0.0015368281270971606
 40
0.0015368281270971606
 40
0.0015368281270971606
 40
0.0015368281270971606
 40
0.0015368281270971606
 40
0.0015368281270971606
 40
0.002512565077278832
 40
0.002512565077278832
 40
0.002512565077278832
 40
0.002512565077278832
 40
0.002512565077278832
 40
0.002512565077278832
 40
0.002512565077278832
 40
0.003821996842133001
 40
0.003821996842133001
 40
0.003821996842133001
 40
0.003821996842133001
 40
0.003821996842133001
 40
0.003821996842133001
 40
0.003821996842133001
 40
0.005758238518548692
 40
0.005758238518548692
 40
0.005758238518548692
 40
0.005758238518548692
 40
0.005758238518548692
 40
0.005758238518548692
 40
0.005758238518548692
 40
0.008477431613111612
 40
0.008477431613111612
 40
0.008477431613111612
 40
0.008477431613111612
 40
0.008477431613111612
 40
0.008477431613111612
 40
0.008477431613111612
 40
0.012746438640742513
 40
0.012746438640742513
 40
0.012746438640742513
 40
0.012746438640742513
 40
0.012746438640742513
 40
0.012746438640742513
 40
0.012746438640742513
 40
0.022484156172932417
 40
0.022484156172932417
 40
0.022484156172932417
 40
0.022484156172932417
 40
0.022484156172932417
 40
0.022484156172932417
 40
0.022484156172932417
 40
0.04065298862416792
 40
0.04065298862416792
 40
0.04065298862416792
 40
0.04065298862416792
 40
0.04065298862416792
 40
0.04065298862416792
 40
0.04065298862416792
 40
0.06709844392977496
 40
0.06709844392977496
 40
0.06709844392977496
 40
0.06709844392977496
 40
0.06709844392977496
 40
0.06709844392977496
 40
0.06709844392977496
 40
0.11413843427403528
 40
0.11413843427403528
 40
0.11413843427403528
 40
0.11413843427403528
 40
0.11413843427403528
 40
0.11413843427403528
 40
0.11413843427403528
 40
0.17159789871746156
 40
0.17159789871746156
 40
0.17159789871746156
 40
0.17159789871746156
 40
0.17159789871746156
 40
0.17159789871746156
 40
0.17159789871746156
 40
0.20846703024637517
 40
0.20846703024637517
 40
0.20846703024637517
 40
0.20846703024637517
 40
0.20846703024637517
 40
0.20846703024637517
 40
0.20846703024637517
 40
0.25116221303863207
 40
0.25116221303863207
 40
0.25116221303863207
 40
0.25116221303863207
 40
0.25116221303863207
 40
0.25116221303863207
 40
0.25116221303863207
 40
0.29464348659080974
 40
0.29464348659080974
 40
0.29464348659080974
 40
0.29464348659080974
 40
0.29464348659080974
 40
0.29464348659080974
 40
0.29464348659080974
 40
0.35484358675795646
 40
0.35484358675795646
 40
0.35484358675795646
 40
0.35484358675795646
 40
0.35484358675795646
 40
0.35484358675795646
 40
0.35484358675795646
 40
0.3948790457852091
 40
0.3948790457852091
 40
0.3948790457852091
 40
0.3948790457852091
 40
0.3948790457852091
 40
0.3948790457852091
 40
0.3948790457852091
 40
0.40831251011623465
 40
0.40831251011623465
 40
0.40831251011623465
 40
0.40831251011623465
 40
0.40831251011623465
 40
0.40831251011623465
 40
0.40831251011623465
 40
0.4205841364906764
 40
0.4205841364906764
 40
0.4205841364906764
 40
0.4205841364906764
 40
0.4205841364906764
 40
0.4205841364906764
 40
0.4205841364906764
 40
0.4386522569071059
 40
0.4386522569071059
 40
0.4386522569071059
 40
0.4386522569071059
 40
0.4386522569071059
 40
0.4386522569071059
 40
0.4386522569071059
 40
0.44821405653182944
 40
0.44821405653182944
 40
0.44821405653182944
 40
0.44821405653182944
 40
0.44821405653182944
 40
0.44821405653182944
 40
0.44821405653182944
 40
0.4533031735827177
 40
0.4533031735827177
 40
0.4533031735827177
 40
0.4533031735827177
 40
0.4533031735827177
 40
0.4533031735827177
 40
0.4533031735827177
 40
0.457143058417267
 40
0.457143058417267
 40
0.457143058417267
 40
0.457143058417267
 40
0.457143058417267
 40
0.457143058417267
 40
0.457143058417267
 40
0.45976747262487694
 40
0.45976747262487694
 40
0.45976747262487694
 40
0.45976747262487694
 40
0.45976747262487694
 40
0.45976747262487694
 40
0.45976747262487694
 40
0.4617726107697672
 40
0.4617726107697672
 40
0.4617726107697672
 40
0.4617726107697672
 40
0.4617726107697672
 40
0.4617726107697672
 40
0.4617726107697672
 40
0.46448778987403855
 40
0.46448778987403855
 40
0.46448778987403855
 40
0.46448778987403855
 40
0.46448778987403855
 40
0.46448778987403855
 40
0.46448778987403855
 40
0.4685543737593579
 40
0.4685543737593579
 40
0.4685543737593579
 40
0.4685543737593579
 40
0.4685543737593579
 40
0.4685543737593579
 40
0.4685543737593579
 40
0.4744106967794985
 40
0.4744106967794985
 40
0.4744106967794985
 40
0.4744106967794985
 40
0.4744106967794985
 40
0.4744106967794985
 40
0.4744106967794985
 40
0.485833463677253
 40
0.485833463677253
 40
0.485833463677253
 40
0.485833463677253
 40
0.485833463677253
 40
0.485833463677253
 40
0.485833463677253
 40
0.5071463047987281
 40
0.5071463047987281
 40
0.5071463047987281
 40
0.5071463047987281
 40
0.5071463047987281
 40
0.5071463047987281
 40
0.5071463047987281
 40
0.5381679754073226
 40
0.5381679754073226
 40
0.5381679754073226
 40
0.5381679754073226
 40
0.5381679754073226
 40
0.5381679754073226
 40
0.5381679754073226
 40
0.5933477400572719
 40
0.5933477400572719
 40
0.5933477400572719
 40
0.5933477400572719
 40
0.5933477400572719
 40
0.5933477400572719
 40
0.5933477400572719
 40
0.6607494846707073
 40
0.6607494846707073
 40
0.6607494846707073
 40
0.6607494846707073
 40
0.6607494846707073
 40
0.6607494846707073
 40
0.6607494846707073
 40
0.7039977767858876
 40
0.7039977767858876
 40
0.7039977767858876
 40
0.7039977767858876
 40
0.7039977767858876
 40
0.7039977767858876
 40
0.7039977767858876
 40
0.7540797212860543
 40
0.7540797212860543
 40
0.7540797212860543
 40
0.7540797212860543
 40
0.7540797212860543
 40
0.7540797212860543
 40
0.7540797212860543
 40
0.8050833011776702
 40
0.8050833011776702
 40
0.8050833011776702
 40
0.8050833011776702
 40
0.8050833011776702
 40
0.8050833011776702
 40
0.8050833011776702
 40
0.8756974922578687
 40
0.8756974922578687
 40
0.8756974922578687
 40
0.8756974922578687
 40
0.8756974922578687
 40
0.8756974922578687
 40
0.8756974922578687
 40
0.9226584414159666
 40
0.9226584414159666
 40
0.9226584414159666
 40
0.9226584414159666
 40
0.9226584414159666
 40
0.9226584414159666
 40
0.9226584414159666
 40
0.9384156489434862
 40
0.9384156489434862
 40
0.9384156489434862
 40
0.9384156489434862
 40
0.9384156489434862
 40
0.9384156489434862
 40
0.9384156489434862
 40
0.9528100412980239
 40
0.9528100412980239
 40
0.9528100412980239
 40
0.9528100412980239
 40
0.9528100412980239
 40
0.9528100412980239
 40
0.9528100412980239
 40
0.9740036180742369
 40
0.9740036180742369
 40
0.9740036180742369
 40
0.9740036180742369
 40
0.9740036180742369
 40
0.9740036180742369
 40
0.9740036180742369
 40
0.9852194413253321
 40
0.9852194413253321
 40
0.9852194413253321
 40
0.9852194413253321
 40
0.9852194413253321
 40
0.9852194413253321
 40
0.9852194413253321
 40
0.9911888948246521
 40
0.9911888948246521
 40
0.9911888948246521
 40
0.9911888948246521
 40
0.9911888948246521
 40
0.9911888948246521
 40
0.9911888948246521
 40
0.9956930419041701
 40
0.9956930419041701
 40
0.9956930419041701
 40
0.9956930419041701
 40
0.9956930419041701
 40
0.9956930419041701
 40
0.9956930419041701
 40
0.9976589011549897
 40
0.9976589011549897
 40
0.9976589011549897
 40
0.9976589011549897
 40
0.9976589011549897
 40
0.9976589011549897
 40
0.9976589011549897
 40
0.9984913752605068
 40
0.9984913752605068
 40
0.9984913752605068
 40
0.9984913752605068
 40
0.9984913752605068
 40
0.9984913752605068
 40
0.9984913752605068
 40
1.0
 40
1.0
 40
1.0
 40
1.0
 40
1.0
 40
1.0
 40
1.0
 40
1.0
 40
1.0
 10
60.803188775972764
 20
47.75735219834763
 30
15.0
 10
60.80315757879317
 20
47.75741036513361
 30
15.0
 10
60.80327210655037
 20
47.75712358291361
 30
15.0
 10
60.803070240866255
 20
47.757876443597496
 30
15.0
 10
60.803291096464356
 20
47.75666555268552
 30
15.0
 10
60.8031339135565
 20
47.75655288621576
 30
15.0
 10
60.8031971443041
 20
47.7557679064695
 30
15.0
 10
60.80318519966632
 20
47.75595887345483
 30
15.0
 10
60.80317660440523
 20
47.752610169583896
 30
15.0
 10
60.80317230552774
 20
47.75093533184363
 30
15.0
 10
60.80316688429789
 20
47.748823226901905
 30
15.0
 10
60.80316017933166
 20
47.746210979736276
 30
15.0
 10
60.80315202924502
 20
47.743035715324325
 30
15.0
 10
60.80314227265399
 20
47.73923455864361
 30
15.0
 10
60.80313074817459
 20
47.734744634671706
 30
15.0
 10
60.80309923958745
 20
47.72246892522853
 30
15.0
 10
60.803078266780986
 20
47.714297943854476
 30
15.0
 10
60.803054484092065
 20
47.705032235506785
 30
15.0
 10
60.80302815347534
 20
47.69477385739458
 30
15.0
 10
60.802999604970026
 20
47.68365139243472
 30
15.0
 10
60.802969175053015
 20
47.671795931633
 30
15.0
 10
60.802937169125904
 20
47.659326459105095
 30
15.0
 10
60.802854576772596
 20
47.627148572885424
 30
15.0
 10
60.80280242152849
 20
47.60682894953828
 30
15.0
 10
60.80274805744543
 20
47.585648765079924
 30
15.0
 10
60.80269201398585
 20
47.56381429744593
 30
15.0
 10
60.80263468871992
 20
47.54148043951772
 30
15.0
 10
60.8025763586647
 20
47.51875511683304
 30
15.0
 10
60.80251718927553
 20
47.49570279061268
 30
15.0
 10
60.80237305186119
 20
47.43954701914295
 30
15.0
 10
60.80228747919126
 20
47.406208004978694
 30
15.0
 10
60.802200866431235
 20
47.372463772916134
 30
15.0
 10
60.802113454854975
 20
47.33840832296935
 30
15.0
 10
60.80202541493742
 20
47.30410807196282
 30
15.0
 10
60.80193686585745
 20
47.26960945186303
 30
15.0
 10
60.80184788322531
 20
47.23494192033965
 30
15.0
 10
60.80161815972079
 20
47.1454419062028
 30
15.0
 10
60.80147691664631
 20
47.090413766224415
 30
15.0
 10
60.80133498706152
 20
47.035118162611276
 30
15.0
 10
60.80119252466526
 20
46.97961497625852
 30
15.0
 10
60.80104963758707
 20
46.92394633432143
 30
15.0
 10
60.800906402077345
 20
46.868141943848165
 30
15.0
 10
60.800762867904815
 20
46.812221194689826
 30
15.0
 10
60.8002910154895
 20
46.628388034330946
 30
15.0
 10
60.799961662485984
 20
46.500072481543604
 30
15.0
 10
60.79963141951844
 20
46.3714101997783
 30
15.0
 10
60.79930053147156
 20
46.24249659584967
 30
15.0
 10
60.7989691649295
 20
46.113396570755114
 30
15.0
 10
60.79863742874555
 20
45.98415253358233
 30
15.0
 10
60.798305368697996
 20
45.85478231952767
 30
15.0
 10
60.7973528299739
 20
45.48367432405048
 30
15.0
 10
60.796731744966515
 20
45.24170031681696
 30
15.0
 10
60.79611002252667
 20
44.99947796662471
 30
15.0
 10
60.795487832489705
 20
44.75707344112959
 30
15.0
 10
60.7948652910851
 20
44.51453202320255
 30
15.0
 10
60.79424247512606
 20
44.27188363918645
 30
15.0
 10
60.793619419383624
 20
44.02914183583316
 30
15.0
 10
60.792088909126335
 20
43.43285679326604
 30
15.0
 10
60.79118124078121
 20
43.079239482249136
 30
15.0
 10
60.79027472759427
 20
42.7255090497206
 30
15.0
 10
60.789370145788936
 20
42.37169365100918
 30
15.0
 10
60.78846804380242
 20
42.017812555043506
 30
15.0
 10
60.787568860105615
 20
41.66387895516969
 30
15.0
 10
60.78667288221963
 20
41.30989898770297
 30
15.0
 10
60.784192804580684
 20
40.32615314053553
 30
15.0
 10
60.78261623783298
 20
39.696308453558366
 30
15.0
 10
60.7810521081136
 20
39.066375081544294
 30
15.0
 10
60.779501324504935
 20
38.43637333278605
 30
15.0
 10
60.7779646490803
 20
37.80631754283587
 30
15.0
 10
60.776442787666554
 20
37.176217978228685
 30
15.0
 10
60.77493637894232
 20
36.546080675435945
 30
15.0
 10
60.77162566149732
 20
35.1461528701369
 30
15.0
 10
60.76982928435233
 20
34.37634903660999
 30
15.0
 10
60.76805812240369
 20
33.606507314790164
 30
15.0
 10
60.76631335752502
 20
32.836634935857546
 30
15.0
 10
60.76459622356355
 20
32.06673744694638
 30
15.0
 10
60.76290804915847
 20
31.29681926944174
 30
15.0
 10
60.761250292839414
 20
30.52688397343582
 30
15.0
 10
60.75858141807391
 20
29.262892473442353
 30
15.0
 10
60.757551455067095
 20
28.76884488956567
 30
15.0
 10
60.75653510974217
 20
28.274792332598995
 30
15.0
 10
60.75553283718024
 20
27.780735548958745
 30
15.0
 10
60.754545124546524
 20
27.286675226883897
 30
15.0
 10
60.753572496451326
 20
26.79261200772779
 30
15.0
 10
60.75261552031083
 20
26.298546497249813
 30
15.0
 10
60.750585452558894
 20
25.23233967368232
 30
15.0
 10
60.74951785705844
 20
24.66019779194766
 30
15.0
 10
60.74847276658272
 20
24.088054535199312
 30
15.0
 10
60.74745253967715
 20
23.515910777255986
 30
15.0
 10
60.74645773055131
 20
22.94376738557813
 30
15.0
 10
60.74548629083721
 20
22.371625239396977
 30
15.0
 10
60.744535394611056
 20
21.799485242653102
 30
15.0
 10
60.742659264927816
 20
20.64467740951094
 30
15.0
 10
60.741734368849826
 20
20.06200971280408
 30
15.0
 10
60.74083026343342
 20
19.479346228570297
 30
15.0
 10
60.739946097185054
 20
18.896688007554772
 30
15.0
 10
60.73908109157507
 20
18.314036196619057
 30
15.0
 10
60.73823453048403
 20
17.73139207105838
 30
15.0
 10
60.73740574964895
 20
17.148757066918968
 30
15.0
 10
60.735470428149895
 20
15.759485823441509
 30
15.0
 10
60.734379620431014
 20
14.952860258051713
 30
15.0
 10
60.73332005029394
 20
14.146259657048645
 30
15.0
 10
60.732290230473005
 20
13.339688972776258
 30
15.0
 10
60.73128878172174
 20
12.533155156656013
 30
15.0
 10
60.73031440699072
 20
11.726667339855922
 30
15.0
 10
60.729365834877186
 20
10.92023780396289
 30
15.0
 10
60.72782706373821
 20
9.577628236194993
 30
15.0
 10
60.727223256541706
 20
9.041408376360467
 30
15.0
 10
60.72662982799139
 20
8.505228587672308
 30
15.0
 10
60.72604635611806
 20
7.969094939951454
 30
15.0
 10
60.72547233646468
 20
7.433018294194266
 30
15.0
 10
60.72490720028882
 20
6.897013972233875
 30
15.0
 10
60.724350227542466
 20
6.361103808070161
 30
15.0
 10
60.72361557771118
 20
5.645550553848957
 30
15.0
 10
60.72343524920248
 20
5.46916834281584
 30
15.0
 10
60.723259129471685
 20
5.296241489472222
 30
15.0
 10
60.72308718331578
 20
5.12683287261248
 30
15.0
 10
60.72291937553169
 20
4.961005371030967
 30
15.0
 10
60.7227556709164
 20
4.798821863522007
 30
15.0
 10
60.72259603426685
 20
4.640345228879899
 30
15.0
 10
60.72229828441417
 20
4.344311803562967
 30
15.0
 10
60.722156359310944
 20
4.203004211822467
 30
15.0
 10
60.72201457617368
 20
4.061717644810088
 30
15.0
 10
60.721873013422716
 20
3.9204539145592747
 30
15.0
 10
60.72173113209446
 20
3.7792200675966967
 30
15.0
 10
60.72158952173763
 20
3.6380146361843515
 30
15.0
 10
60.72144785752351
 20
3.4968443803066833
 30
15.0
 10
60.721097747345695
 20
3.1479193785547714
 30
15.0
 10
60.72088934679826
 20
2.9402242985391336
 30
15.0
 10
60.72068104792465
 20
2.7326305482405777
 30
15.0
 10
60.720472865297815
 20
2.525152651155274
 30
15.0
 10
60.72026483205931
 20
2.3178236367006235
 30
15.0
 10
60.72005699857715
 20
2.1106937024209653
 30
15.0
 10
60.719849438657626
 20
1.9038364046935943
 30
15.0
 10
60.71953264772554
 20
1.5881178579542148
 30
15.0
 10
60.719423151632114
 20
1.4789924254110005
 30
15.0
 10
60.71931379213765
 20
1.370003129422396
 30
15.0
 10
60.719204588597115
 20
1.261169259420214
 30
15.0
 10
60.71909558724502
 20
1.152536893424462
 30
15.0
 10
60.718986858922186
 20
1.0441766324643726
 30
15.0
 10
60.71887850775481
 20
0.9361922502095652
 30
15.0
 10
60.718713341532585
 20
0.7715851406936078
 30
15.0
 10
60.71865616146095
 20
0.7145986322769922
 30
15.0
 10
60.71859917440853
 20
0.6578044896583748
 30
15.0
 10
60.71854240877729
 20
0.6012310187198295
 30
15.0
 10
60.718485932753055
 20
0.54494617439358
 30
15.0
 10
60.71842985149418
 20
0.48905475905578655
 30
15.0
 10
60.718374319100846
 20
0.4337103513261029
 30
15.0
 10
60.718278305106686
 20
0.33802137908324426
 30
15.0
 10
60.718237781377915
 20
0.29763482926507834
 30
15.0
 10
60.71819781941293
 20
0.25780814156946974
 30
15.0
 10
60.71815847934642
 20
0.2186012472859744
 30
15.0
 10
60.718120157191535
 20
0.18040881850919277
 30
15.0
 10
60.71808351187531
 20
0.1438875523794252
 30
15.0
 10
60.71804966045177
 20
0.11015072098504675
 30
15.0
 10
60.71799996867022
 20
0.060627153657627275
 30
15.0
 10
60.717981613352215
 20
0.042333971230661405
 30
15.0
 10
60.71796626128399
 20
0.027033871958124678
 30
15.0
 10
60.717954629077006
 20
0.015441041947937606
 30
15.0
 10
60.71794692069185
 20
0.007758750673133363
 30
15.0
 10
60.717942549180115
 20
0.0034020372447187697
 30
15.0
 10
60.7179404574902
 20
0.0013174280157954854
 30
15.0
 10
60.717938940616946
 20
-0.00019431041274309274
 30
15.0
 10
60.71793919908255
 20
-0.0001384838033148737
 30
15.0
 10
60.71793907607492
 20
0.00017319052451496883
 30
15.0
 10
60.71793885888069
 20
0.0003051216463175268
 30
15.0
 10
60.71793929004062
 20
-0.00019634292118426394
 30
15.0
 10
60.71794093841589
 20
-0.0017958910410883328
 30
15.0
 10
60.71794407027637
 20
-0.004917984355813587
 30
15.0
 10
60.71795572343969
 20
-0.01653169993994652
 30
15.0
 10
60.71796575052807
 20
-0.02652484508362818
 30
15.0
 10
60.71797967547644
 20
-0.04040265550374045
 30
15.0
 10
60.717997335666446
 20
-0.058003062879848244
 30
15.0
 10
60.718017867580045
 20
-0.07846547307106277
 30
15.0
 10
60.71804056742942
 20
-0.10108847985128477
 30
15.0
 10
60.71806468319844
 20
-0.1251226133931027
 30
15.0
 10
60.718127004161396
 20
-0.187232610440077
 30
15.0
 10
60.71816678369609
 20
-0.22687748534776375
 30
15.0
 10
60.71820805213209
 20
-0.2680062215044643
 30
15.0
 10
60.71825029693923
 20
-0.3101080234785627
 30
15.0
 10
60.71829315678195
 20
-0.35282277919074545
 30
15.0
 10
60.718336454232464
 20
-0.3959736612350966
 30
15.0
 10
60.718380135197954
 20
-0.4395067600462639
 30
15.0
 10
60.718487854300484
 20
-0.5468612170760121
 30
15.0
 10
60.71855207371676
 20
-0.6108632408803203
 30
15.0
 10
60.718616739403814
 20
-0.67531002480741
 30
15.0
 10
60.71868173111944
 20
-0.7400817335791885
 30
15.0
 10
60.71874696618101
 20
-0.8050959645801594
 30
15.0
 10
60.71881239013884
 20
-0.8702984524241622
 30
15.0
 10
60.71887797825528
 20
-0.9356645431261121
 30
15.0
 10
60.71907196848154
 20
-1.128998083049229
 30
15.0
 10
60.719200723768544
 20
-1.2573175138924526
 30
15.0
 10
60.71932982695441
 20
-1.3859836658788023
 30
15.0
 10
60.71945918231024
 20
-1.514901134209346
 30
15.0
 10
60.719588724715976
 20
-1.6440050192825906
 30
15.0
 10
60.719718411619496
 20
-1.773252912942656
 30
15.0
 10
60.71984822512544
 20
-1.9026269804914708
 30
15.0
 10
60.72022060482123
 20
-2.273746114525327
 30
15.0
 10
60.72046340803374
 20
-2.515727401340092
 30
15.0
 10
60.720706460426776
 20
-2.757957025187949
 30
15.0
 10
60.72094969560962
 20
-3.0003688200384317
 30
15.0
 10
60.72119306814655
 20
-3.2429175040143523
 30
15.0
 10
60.721436548010196
 20
-3.485573151427399
 30
15.0
 10
60.721680121608344
 20
-3.72832221598747
 30
15.0
 10
60.722278449749346
 20
-4.324624925503097
 30
15.0
 10
60.72263325490745
 20
-4.678252640415915
 30
15.0
 10
60.722989619029136
 20
-5.031993468497099
 30
15.0
 10
60.72334821779587
 20
-5.385819252670011
 30
15.0
 10
60.72370953083786
 20
-5.739710722655507
 30
15.0
 10
60.72407394951421
 20
-6.093654683949788
 30
15.0
 10
60.72444173943396
 20
-6.447644999554585
 30
15.0
 10
60.72547379672146
 20
-7.431417367371349
 30
15.0
 10
60.726145878132144
 20
-8.061278195831347
 30
15.0
 10
60.72683071273666
 20
-8.691227660422662
 30
15.0
 10
60.72752913711794
 20
-9.321245450657358
 30
15.0
 10
60.72824186218437
 20
-9.951317228847705
 30
15.0
 10
60.728969557132324
 20
-10.581432726316777
 30
15.0
 10
60.72971283912161
 20
-11.211585904656882
 30
15.0
 10
60.73140008002394
 20
-12.611543428690114
 30
15.0
 10
60.73235201759876
 20
-13.381361075603895
 30
15.0
 10
60.73332930483574
 20
-14.151216517733864
 30
15.0
 10
60.734333097856656
 20
-14.921102520040101
 30
15.0
 10
60.73536461078535
 20
-15.691013531220731
 30
15.0
 10
60.736425156575564
 20
-16.46094512531276
 30
15.0
 10
60.73751618113465
 20
-17.230893727107325
 30
15.0
 10
60.739359933402966
 20
-18.49490288620989
 30
15.0
 10
60.74009378572604
 20
-18.98895489193
 30
15.0
 10
60.74084127318936
 20
-19.4830118211516
 30
15.0
 10
60.74160284824453
 20
-19.97707292584857
 30
15.0
 10
60.74237899564055
 20
-20.47113751604655
 30
15.0
 10
60.74317023774558
 20
-20.965204948512547
 30
15.0
 10
60.74397713986894
 20
-21.45927461544464
 30
15.0
 10
60.7457535610964
 20
-22.52548534267018
 30
15.0
 10
60.74672857795976
 20
-23.09762695161018
 30
15.0
 10
60.747726104355294
 20
-23.669769853833362
 30
15.0
 10
60.748748495836615
 20
-24.24191316698109
 30
15.0
 10
60.749796303669385
 20
-24.81405602159
 30
15.0
 10
60.75086747648057
 20
-25.38619754586137
 30
15.0
 10
60.75195918521573
 20
-25.95833684609427
 30
15.0
 10
60.754205841216105
 20
-27.113137882232675
 30
15.0
 10
60.75536112498347
 20
-27.695799477283824
 30
15.0
 10
60.756537184282585
 20
-28.278456784371876
 30
15.0
 10
60.7577331639617
 20
-28.861108755820293
 30
15.0
 10
60.75894828147529
 20
-29.443754247558307
 30
15.0
 10
60.76018181621745
 20
-30.02639198683924
 30
15.0
 10
60.761433098855235
 20
-30.60902053995872
 30
15.0
 10
60.76445759636679
 20
-31.998269510712085
 30
15.0
 10
60.766246505762524
 20
-32.80487919732494
 30
15.0
 10
60.768066563725505
 20
-33.61146380579524
 30
15.0
 10
60.76991626544813
 20
-34.41801838909148
 30
15.0
 10
60.77179420697841
 20
-35.22453600048122
 30
15.0
 10
60.773699058758986
 20
-36.03100751307473
 30
15.0
 10
60.77562950561259
 20
-36.83742064942322
 30
15.0
 10
60.778883952524794
 20
-38.179999400057
 30
15.0
 10
60.780194486149846
 20
-38.71620489349398
 30
15.0
 10
60.781515255502946
 20
-39.25237027716397
 30
15.0
 10
60.78284581696324
 20
-39.788489482662094
 30
15.0
 10
60.78418562731004
 20
-40.324551650455206
 30
15.0
 10
60.78553406310617
 20
-40.860541460261516
 30
15.0
 10
60.78689032635138
 20
-41.396437080078876
 30
15.0
 10
60.78871024996539
 20
-42.11197052963568
 30
15.0
 10
60.78915961717211
 20
-42.288347578636916
 30
15.0
 10
60.78960085726366
 20
-42.461269345129566
 30
15.0
 10
60.79003371056252
 20
-42.63067295597716
 30
15.0
 10
60.790457917391116
 20
-42.79649553804324
 30
15.0
 10
60.790873218071965
 20
-42.9586742181913
 30
15.0
 10
60.79127935292752
 20
-43.11714612328487
 30
15.0
 10
60.792038460888286
 20
-43.41317069126951
 30
15.0
 10
60.792401012705476
 20
-43.5544740505408
 30
15.0
 10
60.792763631428826
 20
-43.69575638410277
 30
15.0
 10
60.7931263890102
 20
-43.8370158796463
 30
15.0
 10
60.79348872131835
 20
-43.97824549243739
 30
15.0
 10
60.79385122315331
 20
-44.11944668813981
 30
15.0
 10
60.79421354554553
 20
-44.260612707761275
 30
15.0
 10
60.795109119429064
 20
-44.609527266633876
 30
15.0
 10
60.79564220331726
 20
-44.81721613866029
 30
15.0
 10
60.79617502711185
 20
-45.024803678520584
 30
15.0
 10
60.79670755353385
 20
-45.232275362362905
 30
15.0
 10
60.79723969780326
 20
-45.439598159994674
 30
15.0
 10
60.79777133107295
 20
-45.64672187271113
 30
15.0
 10
60.798302264538336
 20
-45.85357294248498
 30
15.0
 10
60.79911260847338
 20
-46.16928201107554
 30
15.0
 10
60.79939269704971
 20
-46.27840419949969
 30
15.0
 10
60.79967243619038
 20
-46.387390248167584
 30
15.0
 10
60.79995177638284
 20
-46.496220867087175
 30
15.0
 10
60.800230599354194
 20
-46.60484997725097
 30
15.0
 10
60.80050872388603
 20
-46.713206976167704
 30
15.0
 10
60.80078588361261
 20
-46.82118808807553
 30
15.0
 10
60.80120837500442
 20
-46.98579025024004
 30
15.0
 10
60.80135464042185
 20
-47.04277508927942
 30
15.0
 10
60.80150041207479
 20
-47.09956755821949
 30
15.0
 10
60.80164561730662
 20
-47.156139350179295
 30
15.0
 10
60.80179008169165
 20
-47.21242250906849
 30
15.0
 10
60.80193353622516
 20
-47.2683122309292
 30
15.0
 10
60.802075586704966
 20
-47.323654935114526
 30
15.0
 10
60.80232118849112
 20
-47.41934110958632
 30
15.0
 10
60.802424847620806
 20
-47.45972658773495
 30
15.0
 10
60.80252706969633
 20
-47.499552191246636
 30
15.0
 10
60.80262770085415
 20
-47.53875797500179
 30
15.0
 10
60.80272572804858
 20
-47.576949257658555
 30
15.0
 10
60.802819465734764
 20
-47.61346935277966
 30
15.0
 10
60.802906056462334
 20
-47.647205001025526
 30
15.0
 10
60.80301451578326
 20
-47.68946062818003
 30
15.0
 10
60.80304535259615
 20
-47.70147461515775
 30
15.0
 10
60.80307351877971
 20
-47.712448127996225
 30
15.0
 10
60.803098530935635
 20
-47.72219283528406
 30
15.0
 10
60.803120001054154
 20
-47.73055756885998
 30
15.0
 10
60.803137739999656
 20
-47.73746864170328
 30
15.0
 10
60.80315184360974
 20
-47.742963392033644
 30
15.0
 10
60.80316724943863
 20
-47.74896548531427
 30
15.0
 10
60.80317121957401
 20
-47.750512245508
 30
15.0
 10
60.80317462459367
 20
-47.751838837273
 30
15.0
 10
60.80317751231514
 20
-47.75296389024555
 30
15.0
 10
60.803179930555864
 20
-47.75390603406194
 30
15.0
 10
60.80318192713334
 20
-47.754683898358444
 30
15.0
 10
60.80318354986505
 20
-47.75531611277133
 30
15.0
 10
60.80318719647802
 20
-47.75673682900699
 30
15.0
 10
60.80321072476166
 20
-47.75677048123246
 30
15.0
 10
60.803200042069534
 20
-47.75683924799405
 30
15.0
 10
60.80316826596319
 20
-47.7571306498196
 30
15.0
 10
60.80315592190577
 20
-47.75743507222121
 30
15.0
 10
60.80318984425202
 20
-47.757478094532395
 30
15.0
 10
60.80324207723831
 20
-47.75725281874525
 30
15.0
 10
60.80318877597278
 20
-47.75735219834763
 30
15.0
  0
ENDSEC
  0
SECTION
  2
OBJECTS
  0
DICTIONARY
  5
A
330
0
100
AcDbDictionary
281
1
  3
ACAD_COLOR
350
B
  3
ACAD_GROUP
350
C
  3
ACAD_LAYOUT
350
D
  3
ACAD_MATERIAL
350
E
  3
ACAD_MLEADERSTYLE
350
F
  3
ACAD_MLINESTYLE
350
10
  3
ACAD_PLOTSETTINGS
350
11
  3
ACAD_PLOTSTYLENAME
350
12
  3
ACAD_SCALELIST
350
14
  3
ACAD_TABLESTYLE
350
15
  3
ACAD_VISUALSTYLE
350
16
  3
EZDXF_META
350
2D
  0
DICTIONARY
  5
B
330
A
100
AcDbDictionary
281
1
  0
DICTIONARY
  5
C
330
A
100
AcDbDictionary
281
1
  0
DICTIONARY
  5
D
330
A
100
AcDbDictionary
281
1
  3
Model
350
1A
  3
Layout1
350
1E
  0
DICTIONARY
  5
E
330
A
100
AcDbDictionary
281
1
  3
ByBlock
350
1F
  3
ByLayer
350
20
  3
Global
350
21
  0
DICTIONARY
  5
F
330
A
100
AcDbDictionary
281
1
  3
Standard
350
2C
  0
DICTIONARY
  5
10
330
A
100
AcDbDictionary
281
1
  3
Standard
350
22
  0
DICTIONARY
  5
11
330
A
100
AcDbDictionary
281
1
  0
ACDBDICTIONARYWDFLT
  5
12
330
A
100
AcDbDictionary
281
1
  3
Normal
350
13
100
AcDbDictionaryWithDefault
340
13
  0
ACDBPLACEHOLDER
  5
13
330
12
  0
DICTIONARY
  5
14
330
A
100
AcDbDictionary
281
1
  0
DICTIONARY
  5
15
330
A
100
AcDbDictionary
281
1
  0
DICTIONARY
  5
16
330
A
100
AcDbDictionary
281
1
  0
LAYOUT
  5
1A
330
D
100
AcDbPlotSettings
  1

  2
Adobe PDF
  4
A3
  6

 40
7.5
 41
20.0
 42
7.5
 43
20.0
 44
420.0
 45
297.0
 46
0.0
 47
0.0
 48
0.0
 49
0.0
140
0.0
141
0.0
142
1.0
143
1.0
 70
1024
 72
1
 73
1
 74
5
  7

 75
16
 76
0
 77
2
 78
300
147
1.0
148
0.0
149
0.0
100
AcDbLayout
  1
Model
 70
1
 71
0
 10
0.0
 20
0.0
 11
420.0
 21
297.0
 12
0.0
 22
0.0
 32
0.0
 14
1e+20
 24
1e+20
 34
1e+20
 15
-1e+20
 25
-1e+20
 35
-1e+20
146
0.0
 13
0.0
 23
0.0
 33
0.0
 16
1.0
 26
0.0
 36
0.0
 17
0.0
 27
1.0
 37
0.0
 76
1
330
17
  0
LAYOUT
  5
1E
330
D
100
AcDbPlotSettings
  1

  2
Adobe PDF
  4
A3
  6

 40
7.5
 41
20.0
 42
7.5
 43
20.0
 44
420.0
 45
297.0
 46
0.0
 47
0.0
 48
0.0
 49
0.0
140
0.0
141
0.0
142
1.0
143
1.0
 70
0
 72
1
 73
1
 74
5
  7

 75
16
 76
0
 77
2
 78
300
147
1.0
148
0.0
149
0.0
100
AcDbLayout
  1
Layout1
 70
1
 71
1
 10
0.0
 20
0.0
 11
420.0
 21
297.0
 12
0.0
 22
0.0
 32
0.0
 14
1e+20
 24
1e+20
 34
1e+20
 15
-1e+20
 25
-1e+20
 35
-1e+20
146
0.0
 13
0.0
 23
0.0
 33
0.0
 16
1.0
 26
0.0
 36
0.0
 17
0.0
 27
1.0
 37
0.0
 76
1
330
1B
  0
MATERIAL
  5
1F
102
{ACAD_REACTORS
330
E
102
}
330
E
100
AcDbMaterial
  1
ByBlock
  2

 70
0
 40
1.0
 71
1
 41
1.0
 91
-1023410177
 42
1.0
 72
1
  3

 73
1
 74
1
 75
1
 44
0.5
 73
0
 45
1.0
 46
1.0
 77
1
  4

 78
1
 79
1
170
1
 48
1.0
171
1
  6

172
1
173
1
174
1
140
1.0
141
1.0
175
1
  7

176
1
177
1
178
1
143
1.0
179
1
  8

270
1
271
1
272
1
145
1.0
146
1.0
273
1
  9

274
1
275
1
276
1
 42
1.0
 72
1
  3

 73
1
 74
1
 75
1
 94
63
  0
MATERIAL
  5
20
102
{ACAD_REACTORS
330
E
102
}
330
E
100
AcDbMaterial
  1
ByLayer
  2

 70
0
 40
1.0
 71
1
 41
1.0
 91
-1023410177
 42
1.0
 72
1
  3

 73
1
 74
1
 75
1
 44
0.5
 73
0
 45
1.0
 46
1.0
 77
1
  4

 78
1
 79
1
170
1
 48
1.0
171
1
  6

172
1
173
1
174
1
140
1.0
141
1.0
175
1
  7

176
1
177
1
178
1
143
1.0
179
1
  8

270
1
271
1
272
1
145
1.0
146
1.0
273
1
  9

274
1
275
1
276
1
 42
1.0
 72
1
  3

 73
1
 74
1
 75
1
 94
63
  0
MATERIAL
  5
21
102
{ACAD_REACTORS
330
E
102
}
330
E
100
AcDbMaterial
  1
Global
  2

 70
0
 40
1.0
 71
1
 41
1.0
 91
-1023410177
 42
1.0
 72
1
  3

 73
1
 74
1
 75
1
 44
0.5
 73
0
 45
1.0
 46
1.0
 77
1
  4

 78
1
 79
1
170
1
 48
1.0
171
1
  6

172
1
173
1
174
1
140
1.0
141
1.0
175
1
  7

176
1
177
1
178
1
143
1.0
179
1
  8

270
1
271
1
272
1
145
1.0
146
1.0
273
1
  9

274
1
275
1
276
1
 42
1.0
 72
1
  3

 73
1
 74
1
 75
1
 94
63
  0
MLINESTYLE
  5
22
102
{ACAD_REACTORS
330
10
102
}
330
10
100
AcDbMlineStyle
  2
Standard
 70
0
  3

 62
256
 51
90.0
 52
90.0
 71
2
 49
0.5
 62
256
  6
BYLAYER
 49
-0.5
 62
256
  6
BYLAYER
  0
MLEADERSTYLE
  5
2C
102
{ACAD_REACTORS
330
F
102
}
330
F
100
AcDbMLeaderStyle
179
2
170
2
171
1
172
0
 90
2
 40
0.0
 41
0.0
173
1
 91
-1056964608
 92
-2
290
1
 42
2.0
291
1
 43
8.0
  3
Standard
 44
4.0
300

342
29
174
1
175
1
176
0
178
1
 93
-1056964608
 45
4.0
292
0
297
0
 46
4.0
 94
-1056964608
 47
1.0
 49
1.0
140
1.0
294
1
141
0.0
177
0
142
1.0
295
0
296
0
143
3.75
271
0
272
9
273
9
  0
DICTIONARY
  5
2D
330
A
100
AcDbDictionary
280
1
281
1
  3
CREATED_BY_EZDXF
350
2E
  3
WRITTEN_BY_EZDXF
350
40
  0
DICTIONARYVAR
  5
2E
330
2D
100
DictionaryVariables
280
0
  1
0.17 @ 2022-02-15T16:17:50.559359+00:00
  0
DICTIONARYVAR
  5
40
330
2D
100
DictionaryVariables
280
0
  1
0.17 @ 2022-02-15T16:17:50.583370+00:00
  0
ENDSEC
  0
EOF
