  0
SECTION
  2
HEADER
  9
$ACADVER
  1
AC1027
  9
$ACADMAINTVER
 70
105
  9
$DWGCODEPAGE
  3
ANSI_1252
  9
$LASTSAVEDBY
  1
ezdxf
  9
$REQUIREDVERSIONS
160
0
  9
$INSBASE
 10
0.0
 20
0.0
 30
0.0
  9
$EXTMIN
 10
1e+20
 20
1e+20
 30
1e+20
  9
$EXTMAX
 10
-1e+20
 20
-1e+20
 30
-1e+20
  9
$LIMMIN
 10
0.0
 20
0.0
  9
$LIMMAX
 10
420.0
 20
297.0
  9
$ORTHOMODE
 70
0
  9
$REGENMODE
 70
1
  9
$FILLMODE
 70
1
  9
$QTEXTMODE
 70
0
  9
$MIRRTEXT
 70
1
  9
$LTSCALE
 40
1.0
  9
$ATTMODE
 70
1
  9
$TEXTSIZE
 40
2.5
  9
$TRACEWID
 40
1.0
  9
$TEXTSTYLE
  7
Standard
  9
$CLAYER
  8
0
  9
$CELTYPE
  6
ByLayer
  9
$CECOLOR
 62
256
  9
$CELTSCALE
 40
1.0
  9
$DISPSILH
 70
0
  9
$DIMSCALE
 40
1.0
  9
$DIMASZ
 40
2.5
  9
$DIMEXO
 40
0.625
  9
$DIMDLI
 40
3.75
  9
$DIMRND
 40
0.0
  9
$DIMDLE
 40
0.0
  9
$DIMEXE
 40
1.25
  9
$DIMTP
 40
0.0
  9
$DIMTM
 40
0.0
  9
$DIMTXT
 40
2.5
  9
$DIMCEN
 40
2.5
  9
$DIMTSZ
 40
0.0
  9
$DIMTOL
 70
0
  9
$DIMLIM
 70
0
  9
$DIMTIH
 70
0
  9
$DIMTOH
 70
0
  9
$DIMSE1
 70
0
  9
$DIMSE2
 70
0
  9
$DIMTAD
 70
1
  9
$DIMZIN
 70
8
  9
$DIMBLK
  1

  9
$DIMASO
 70
1
  9
$DIMSHO
 70
1
  9
$DIMPOST
  1

  9
$DIMAPOST
  1

  9
$DIMALT
 70
0
  9
$DIMALTD
 70
3
  9
$DIMALTF
 40
0.03937007874
  9
$DIMLFAC
 40
1.0
  9
$DIMTOFL
 70
1
  9
$DIMTVP
 40
0.0
  9
$DIMTIX
 70
0
  9
$DIMSOXD
 70
0
  9
$DIMSAH
 70
0
  9
$DIMBLK1
  1

  9
$DIMBLK2
  1

  9
$DIMSTYLE
  2
ISO-25
  9
$DIMCLRD
 70
0
  9
$DIMCLRE
 70
0
  9
$DIMCLRT
 70
0
  9
$DIMTFAC
 40
1.0
  9
$DIMGAP
 40
0.625
  9
$DIMJUST
 70
0
  9
$DIMSD1
 70
0
  9
$DIMSD2
 70
0
  9
$DIMTOLJ
 70
0
  9
$DIMTZIN
 70
8
  9
$DIMALTZ
 70
0
  9
$DIMALTTZ
 70
0
  9
$DIMUPT
 70
0
  9
$DIMDEC
 70
2
  9
$DIMTDEC
 70
2
  9
$DIMALTU
 70
2
  9
$DIMALTTD
 70
3
  9
$DIMTXSTY
  7
Standard
  9
$DIMAUNIT
 70
0
  9
$DIMADEC
 70
0
  9
$DIMALTRND
 40
0.0
  9
$DIMAZIN
 70
0
  9
$DIMDSEP
 70
44
  9
$DIMATFIT
 70
3
  9
$DIMFRAC
 70
0
  9
$DIMLDRBLK
  1

  9
$DIMLUNIT
 70
2
  9
$DIMLWD
 70
-2
  9
$DIMLWE
 70
-2
  9
$DIMTMOVE
 70
0
  9
$DIMFXL
 40
1.0
  9
$DIMFXLON
 70
0
  9
$DIMJOGANG
 40
0.785398163397
  9
$DIMTFILL
 70
0
  9
$DIMTFILLCLR
 70
0
  9
$DIMARCSYM
 70
0
  9
$DIMLTYPE
  6

  9
$DIMLTEX1
  6

  9
$DIMLTEX2
  6

  9
$DIMTXTDIRECTION
 70
0
  9
$LUNITS
 70
2
  9
$LUPREC
 70
4
  9
$SKETCHINC
 40
1.0
  9
$FILLETRAD
 40
10.0
  9
$AUNITS
 70
0
  9
$AUPREC
 70
2
  9
$MENU
  1
.
  9
$ELEVATION
 40
0.0
  9
$PELEVATION
 40
0.0
  9
$THICKNESS
 40
0.0
  9
$LIMCHECK
 70
0
  9
$CHAMFERA
 40
0.0
  9
$CHAMFERB
 40
0.0
  9
$CHAMFERC
 40
0.0
  9
$CHAMFERD
 40
0.0
  9
$SKPOLY
 70
0
  9
$TDCREATE
 40
2459626.7207291666
  9
$TDUCREATE
 40
2458532.153996898
  9
$TDUPDATE
 40
2459626.7207291666
  9
$TDUUPDATE
 40
2458532.1544311
  9
$TDINDWG
 40
0.0
  9
$TDUSRTIMER
 40
0.0
  9
$USRTIMER
 70
1
  9
$ANGBASE
 50
0.0
  9
$ANGDIR
 70
0
  9
$PDMODE
 70
0
  9
$PDSIZE
 40
0.0
  9
$PLINEWID
 40
0.0
  9
$SPLFRAME
 70
0
  9
$SPLINETYPE
 70
6
  9
$SPLINESEGS
 70
8
  9
$HANDSEED
  5
4F
  9
$SURFTAB1
 70
6
  9
$SURFTAB2
 70
6
  9
$SURFTYPE
 70
6
  9
$SURFU
 70
6
  9
$SURFV
 70
6
  9
$UCSBASE
  2

  9
$UCSNAME
  2

  9
$UCSORG
 10
0.0
 20
0.0
 30
0.0
  9
$UCSXDIR
 10
1.0
 20
0.0
 30
0.0
  9
$UCSYDIR
 10
0.0
 20
1.0
 30
0.0
  9
$UCSORTHOREF
  2

  9
$UCSORTHOVIEW
 70
0
  9
$UCSORGTOP
 10
0.0
 20
0.0
 30
0.0
  9
$UCSORGBOTTOM
 10
0.0
 20
0.0
 30
0.0
  9
$UCSORGLEFT
 10
0.0
 20
0.0
 30
0.0
  9
$UCSORGRIGHT
 10
0.0
 20
0.0
 30
0.0
  9
$UCSORGFRONT
 10
0.0
 20
0.0
 30
0.0
  9
$UCSORGBACK
 10
0.0
 20
0.0
 30
0.0
  9
$PUCSBASE
  2

  9
$PUCSNAME
  2

  9
$PUCSORG
 10
0.0
 20
0.0
 30
0.0
  9
$PUCSXDIR
 10
1.0
 20
0.0
 30
0.0
  9
$PUCSYDIR
 10
0.0
 20
1.0
 30
0.0
  9
$PUCSORTHOREF
  2

  9
$PUCSORTHOVIEW
 70
0
  9
$PUCSORGTOP
 10
0.0
 20
0.0
 30
0.0
  9
$PUCSORGBOTTOM
 10
0.0
 20
0.0
 30
0.0
  9
$PUCSORGLEFT
 10
0.0
 20
0.0
 30
0.0
  9
$PUCSORGRIGHT
 10
0.0
 20
0.0
 30
0.0
  9
$PUCSORGFRONT
 10
0.0
 20
0.0
 30
0.0
  9
$PUCSORGBACK
 10
0.0
 20
0.0
 30
0.0
  9
$USERI1
 70
0
  9
$USERI2
 70
0
  9
$USERI3
 70
0
  9
$USERI4
 70
0
  9
$USERI5
 70
0
  9
$USERR1
 40
0.0
  9
$USERR2
 40
0.0
  9
$USERR3
 40
0.0
  9
$USERR4
 40
0.0
  9
$USERR5
 40
0.0
  9
$WORLDVIEW
 70
1
  9
$SHADEDGE
 70
3
  9
$SHADEDIF
 70
70
  9
$TILEMODE
 70
1
  9
$MAXACTVP
 70
64
  9
$PINSBASE
 10
0.0
 20
0.0
 30
0.0
  9
$PLIMCHECK
 70
0
  9
$PEXTMIN
 10
1e+20
 20
1e+20
 30
1e+20
  9
$PEXTMAX
 10
-1e+20
 20
-1e+20
 30
-1e+20
  9
$PLIMMIN
 10
0.0
 20
0.0
  9
$PLIMMAX
 10
420.0
 20
297.0
  9
$UNITMODE
 70
0
  9
$VISRETAIN
 70
1
  9
$PLINEGEN
 70
0
  9
$PSLTSCALE
 70
1
  9
$TREEDEPTH
 70
3020
  9
$CMLSTYLE
  2
Standard
  9
$CMLJUST
 70
0
  9
$CMLSCALE
 40
20.0
  9
$PROXYGRAPHICS
 70
1
  9
$MEASUREMENT
 70
1
  9
$CELWEIGHT
370
-1
  9
$ENDCAPS
280
0
  9
$JOINSTYLE
280
0
  9
$LWDISPLAY
290
0
  9
$INSUNITS
 70
6
  9
$HYPERLINKBASE
  1

  9
$STYLESHEET
  1

  9
$XEDIT
290
1
  9
$CEPSNTYPE
380
0
  9
$PSTYLEMODE
290
1
  9
$FINGERPRINTGUID
  2
{99B9725B-3312-44AC-A6A8-CE32F4B4FB0E}
  9
$VERSIONGUID
  2
{1EDD777F-3192-4E4C-BC6E-96D6D5A909C9}
  9
$EXTNAMES
290
1
  9
$PSVPSCALE
 40
0.0
  9
$OLESTARTUP
290
0
  9
$SORTENTS
280
127
  9
$INDEXCTL
280
0
  9
$HIDETEXT
280
1
  9
$XCLIPFRAME
280
0
  9
$HALOGAP
280
0
  9
$OBSCOLOR
 70
257
  9
$OBSLTYPE
280
0
  9
$INTERSECTIONDISPLAY
280
0
  9
$INTERSECTIONCOLOR
 70
257
  9
$DIMASSOC
280
2
  9
$PROJECTNAME
  1

  9
$CAMERADISPLAY
290
0
  9
$LENSLENGTH
 40
50.0
  9
$CAMERAHEIGHT
 40
0.0
  9
$STEPSPERSEC
 40
24.0
  9
$STEPSIZE
 40
100.0
  9
$3DDWFPREC
 40
2.0
  9
$PSOLWIDTH
 40
0.005
  9
$PSOLHEIGHT
 40
0.08
  9
$LOFTANG1
 40
1.570796326795
  9
$LOFTANG2
 40
1.570796326795
  9
$LOFTMAG1
 40
0.0
  9
$LOFTMAG2
 40
0.0
  9
$LOFTPARAM
 70
7
  9
$LOFTNORMALS
280
1
  9
$LATITUDE
 40
37.795
  9
$LONGITUDE
 40
-122.394
  9
$NORTHDIRECTION
 40
0.0
  9
$TIMEZONE
 70
-8000
  9
$LIGHTGLYPHDISPLAY
280
1
  9
$TILEMODELIGHTSYNCH
280
1
  9
$CMATERIAL
347
20
  9
$SOLIDHIST
280
0
  9
$SHOWHIST
280
1
  9
$DWFFRAME
280
2
  9
$DGNFRAME
280
2
  9
$REALWORLDSCALE
290
1
  9
$INTERFERECOLOR
 62
256
  9
$CSHADOW
280
0
  9
$SHADOWPLANELOCATION
 40
0.0
  0
ENDSEC
  0
SECTION
  2
CLASSES
  0
CLASS
  1
ACDBDICTIONARYWDFLT
  2
AcDbDictionaryWithDefault
  3
ObjectDBX Classes
 90
0
 91
0
280
0
281
0
  0
CLASS
  1
SUN
  2
AcDbSun
  3
SCENEOE
 90
1153
 91
0
280
0
281
0
  0
CLASS
  1
VISUALSTYLE
  2
AcDbVisualStyle
  3
ObjectDBX Classes
 90
4095
 91
0
280
0
281
0
  0
CLASS
  1
MATERIAL
  2
AcDbMaterial
  3
ObjectDBX Classes
 90
1153
 91
0
280
0
281
0
  0
CLASS
  1
SCALE
  2
AcDbScale
  3
ObjectDBX Classes
 90
1153
 91
0
280
0
281
0
  0
CLASS
  1
TABLESTYLE
  2
AcDbTableStyle
  3
ObjectDBX Classes
 90
4095
 91
0
280
0
281
0
  0
CLASS
  1
MLEADERSTYLE
  2
AcDbMLeaderStyle
  3
ACDB_MLEADERSTYLE_CLASS
 90
4095
 91
0
280
0
281
0
  0
CLASS
  1
DICTIONARYVAR
  2
AcDbDictionaryVar
  3
ObjectDBX Classes
 90
0
 91
0
280
0
281
0
  0
CLASS
  1
CELLSTYLEMAP
  2
AcDbCellStyleMap
  3
ObjectDBX Classes
 90
1152
 91
0
280
0
281
0
  0
CLASS
  1
MENTALRAYRENDERSETTINGS
  2
AcDbMentalRayRenderSettings
  3
SCENEOE
 90
1024
 91
0
280
0
281
0
  0
CLASS
  1
ACDBDETAILVIEWSTYLE
  2
AcDbDetailViewStyle
  3
ObjectDBX Classes
 90
1025
 91
0
280
0
281
0
  0
CLASS
  1
ACDBSECTIONVIEWSTYLE
  2
AcDbSectionViewStyle
  3
ObjectDBX Classes
 90
1025
 91
0
280
0
281
0
  0
CLASS
  1
RASTERVARIABLES
  2
AcDbRasterVariables
  3
ISM
 90
0
 91
0
280
0
281
0
  0
CLASS
  1
ACDBPLACEHOLDER
  2
AcDbPlaceHolder
  3
ObjectDBX Classes
 90
0
 91
0
280
0
281
0
  0
CLASS
  1
LAYOUT
  2
AcDbLayout
  3
ObjectDBX Classes
 90
0
 91
0
280
0
281
0
  0
ENDSEC
  0
SECTION
  2
TABLES
  0
TABLE
  2
VPORT
  5
8
330
0
100
AcDbSymbolTable
 70
1
  0
VPORT
  5
23
330
8
100
AcDbSymbolTableRecord
100
AcDbViewportTableRecord
  2
*Active
 70
0
 10
0.0
 20
0.0
 11
1.0
 21
1.0
 12
344.2
 22
148.5
 13
0.0
 23
0.0
 14
0.5
 24
0.5
 15
0.5
 25
0.5
 16
0.0
 26
0.0
 36
1.0
 17
0.0
 27
0.0
 37
0.0
 40
297.0
 41
1.34
 42
50.0
 43
0.0
 44
0.0
 50
0.0
 51
0.0
 71
0
 72
1000
 73
1
 74
3
 75
0
 76
0
 77
0
 78
0
281
0
 65
0
146
0.0
  0
ENDTAB
  0
TABLE
  2
LTYPE
  5
2
330
0
100
AcDbSymbolTable
 70
3
  0
LTYPE
  5
24
330
2
100
AcDbSymbolTableRecord
100
AcDbLinetypeTableRecord
  2
ByBlock
 70
0
  3

 72
65
 73
0
 40
0.0
  0
LTYPE
  5
25
330
2
100
AcDbSymbolTableRecord
100
AcDbLinetypeTableRecord
  2
ByLayer
 70
0
  3

 72
65
 73
0
 40
0.0
  0
LTYPE
  5
26
330
2
100
AcDbSymbolTableRecord
100
AcDbLinetypeTableRecord
  2
Continuous
 70
0
  3

 72
65
 73
0
 40
0.0
  0
ENDTAB
  0
TABLE
  2
LAYER
  5
1
330
0
100
AcDbSymbolTable
 70
2
  0
LAYER
  5
27
330
1
100
AcDbSymbolTableRecord
100
AcDbLayerTableRecord
  2
0
 70
0
 62
7
  6
Continuous
370
-3
390
13
347
21
  0
LAYER
  5
28
330
1
100
AcDbSymbolTableRecord
100
AcDbLayerTableRecord
  2
Defpoints
 70
0
 62
7
  6
Continuous
290
0
370
-3
390
13
347
21
  0
ENDTAB
  0
TABLE
  2
STYLE
  5
5
330
0
100
AcDbSymbolTable
 70
1
  0
STYLE
  5
29
330
5
100
AcDbSymbolTableRecord
100
AcDbTextStyleTableRecord
  2
Standard
 70
0
 40
0.0
 41
1.0
 50
0.0
 71
0
 42
2.5
  3
txt
  4

  0
ENDTAB
  0
TABLE
  2
VIEW
  5
7
330
0
100
AcDbSymbolTable
 70
0
  0
ENDTAB
  0
TABLE
  2
UCS
  5
6
330
0
100
AcDbSymbolTable
 70
0
  0
ENDTAB
  0
TABLE
  2
APPID
  5
3
330
0
100
AcDbSymbolTable
 70
3
  0
APPID
  5
2A
330
3
100
AcDbSymbolTableRecord
100
AcDbRegAppTableRecord
  2
ACAD
 70
0
  0
APPID
  5
4C
330
3
100
AcDbSymbolTableRecord
100
AcDbRegAppTableRecord
  2
HATCHBACKGROUNDCOLOR
 70
0
  0
APPID
  5
4D
330
3
100
AcDbSymbolTableRecord
100
AcDbRegAppTableRecord
  2
EZDXF
 70
0
  0
ENDTAB
  0
TABLE
  2
DIMSTYLE
  5
4
330
0
100
AcDbSymbolTable
 70
1
100
AcDbDimStyleTable
  0
DIMSTYLE
105
2B
330
4
100
AcDbSymbolTableRecord
100
AcDbDimStyleTableRecord
  2
Standard
 70
0
 40
1.0
 41
2.5
 42
0.625
 43
3.75
 44
1.25
 45
0.0
 46
0.0
 47
0.0
 48
0.0
 49
2.5
140
2.5
141
2.5
142
0.0
143
0.03937007874
144
1.0
145
0.0
146
1.0
147
0.625
148
0.0
 69
0
 70
0
 71
0
 72
0
 73
0
 74
0
 75
0
 76
0
 77
1
 78
8
 79
0
170
0
171
3
172
1
173
0
174
0
175
0
176
0
177
0
178
0
179
0
271
0
272
2
273
2
274
3
275
0
276
0
277
2
278
44
279
0
280
0
281
0
282
0
283
0
284
8
285
0
286
0
288
0
289
3
290
0
371
-2
372
-2
  0
ENDTAB
  0
TABLE
  2
BLOCK_RECORD
  5
9
330
0
100
AcDbSymbolTable
 70
2
  0
BLOCK_RECORD
  5
17
330
9
100
AcDbSymbolTableRecord
100
AcDbBlockTableRecord
  2
*Model_Space
340
1A
 70
0
280
1
281
0
  0
BLOCK_RECORD
  5
1B
330
9
100
AcDbSymbolTableRecord
100
AcDbBlockTableRecord
  2
*Paper_Space
340
1E
 70
0
280
1
281
0
  0
ENDTAB
  0
ENDSEC
  0
SECTION
  2
BLOCKS
  0
BLOCK
  5
18
330
17
100
AcDbEntity
  8
0
100
AcDbBlockBegin
  2
*Model_Space
 70
0
 10
0.0
 20
0.0
 30
0.0
  3
*Model_Space
  1

  0
ENDBLK
  5
19
330
17
100
AcDbEntity
  8
0
100
AcDbBlockEnd
  0
BLOCK
  5
1C
330
1B
100
AcDbEntity
  8
0
100
AcDbBlockBegin
  2
*Paper_Space
 70
0
 10
0.0
 20
0.0
 30
0.0
  3
*Paper_Space
  1

  0
ENDBLK
  5
1D
330
1B
100
AcDbEntity
  8
0
100
AcDbBlockEnd
  0
ENDSEC
  0
SECTION
  2
ENTITIES
  0
SPLINE
  5
2F
330
17
100
AcDbEntity
  8
0
100
AcDbSpline
 70
0
 71
8
 72
74
 73
65
 74
0
 40
0.0
 40
0.0
 40
0.0
 40
0.0
 40
0.0
 40
0.0
 40
0.0
 40
0.0
 40
0.0
 40
0.036545438910231466
 40
0.036545438910231466
 40
0.036545438910231466
 40
0.036545438910231466
 40
0.036545438910231466
 40
0.036545438910231466
 40
0.036545438910231466
 40
0.15647274637596134
 40
0.15647274637596134
 40
0.15647274637596134
 40
0.15647274637596134
 40
0.15647274637596134
 40
0.15647274637596134
 40
0.15647274637596134
 40
0.4989573425786799
 40
0.4989573425786799
 40
0.4989573425786799
 40
0.4989573425786799
 40
0.4989573425786799
 40
0.4989573425786799
 40
0.4989573425786799
 40
0.6701359156761788
 40
0.6701359156761788
 40
0.6701359156761788
 40
0.6701359156761788
 40
0.6701359156761788
 40
0.6701359156761788
 40
0.6701359156761788
 40
0.8110945296667161
 40
0.8110945296667161
 40
0.8110945296667161
 40
0.8110945296667161
 40
0.8110945296667161
 40
0.8110945296667161
 40
0.8110945296667161
 40
0.869543582297966
 40
0.869543582297966
 40
0.869543582297966
 40
0.869543582297966
 40
0.869543582297966
 40
0.869543582297966
 40
0.869543582297966
 40
0.9333061851762393
 40
0.9333061851762393
 40
0.9333061851762393
 40
0.9333061851762393
 40
0.9333061851762393
 40
0.9333061851762393
 40
0.9333061851762393
 40
0.9705010368481606
 40
0.9705010368481606
 40
0.9705010368481606
 40
0.9705010368481606
 40
0.9705010368481606
 40
0.9705010368481606
 40
0.9705010368481606
 40
1.0
 40
1.0
 40
1.0
 40
1.0
 40
1.0
 40
1.0
 40
1.0
 40
1.0
 40
1.0
 10
62.76746360153364
 20
78.7625464293045
 30
41.0
 10
62.73591725465012
 20
78.7635272644452
 30
41.0
 10
62.7043678057615
 20
78.7644109064241
 30
41.0
 10
62.67281567875317
 20
78.76519958812833
 30
41.0
 10
62.641261297513225
 20
78.76589554245777
 30
41.0
 10
62.60970508593258
 20
78.76650100232516
 30
41.0
 10
62.578147467904834
 20
78.76701820065603
 30
41.0
 10
62.54658886732636
 20
78.7674493703887
 30
41.0
 10
62.41146534807745
 20
78.76893668532655
 30
41.0
 10
62.307892213587365
 20
78.76917236650245
 30
41.0
 10
62.204314685831086
 20
78.76858013122423
 30
41.0
 10
62.100748123041086
 20
78.76732370714667
 30
41.0
 10
61.99719339480502
 20
78.76518705156026
 30
41.0
 10
61.893661027460205
 20
78.7623988036472
 30
41.0
 10
61.79015285090933
 20
78.75886894135455
 30
41.0
 10
61.39116380839854
 20
78.74260459523404
 30
41.0
 10
61.09591910427595
 20
78.72490616637148
 30
41.0
 10
60.801039849085235
 20
78.70199706556816
 30
41.0
 10
60.5066180405461
 20
78.67423721072038
 30
41.0
 10
60.21273870279315
 20
78.6419236762368
 30
41.0
 10
59.91947924675176
 20
78.6053015060873
 30
41.0
 10
59.62691234842274
 20
78.56456536599973
 30
41.0
 10
59.18927380406774
 20
78.49750198077405
 30
41.0
 10
59.04362840488959
 20
78.47415996442335
 30
41.0
 10
58.8981910433846
 20
78.44984205678519
 30
41.0
 10
58.752975412099666
 20
78.4245618223282
 30
41.0
 10
58.60799844604078
 20
78.39832950084548
 30
41.0
 10
58.46328126157974
 20
78.37115136853195
 30
41.0
 10
58.318851366691284
 20
78.34302813937799
 30
41.0
 10
58.05608133360087
 20
78.29000972012913
 30
41.0
 10
57.937653102275185
 20
78.26542440448829
 30
41.0
 10
57.819467271554146
 20
78.24018971245884
 30
41.0
 10
57.701548003962884
 20
78.21429608904107
 30
41.0
 10
57.58393230688205
 20
78.18773253577764
 30
41.0
 10
57.466690951079414
 20
78.16047990372557
 30
41.0
 10
57.349911243656926
 20
78.1325155149192
 30
41.0
 10
57.1856238064096
 20
78.09186848387394
 30
41.0
 10
57.13912808307342
 20
78.08020512240044
 30
41.0
 10
57.09432570219344
 20
78.06881167170565
 30
41.0
 10
57.051250885529896
 20
78.05770721573617
 30
41.0
 10
57.009937854749566
 20
78.04691083827393
 30
41.0
 10
56.970420831425564
 20
78.03644162293617
 30
41.0
 10
56.9327340370375
 20
78.02631865317538
 30
41.0
 10
56.85783277216722
 20
78.00591631311887
 30
41.0
 10
56.820972701359395
 20
77.99570638552026
 30
41.0
 10
56.78637590920584
 20
77.98595600476142
 30
41.0
 10
56.75408682426678
 20
77.97668994592284
 30
41.0
 10
56.72414987500488
 20
77.9679329838876
 30
41.0
 10
56.69660948978514
 20
77.95970989334134
 30
41.0
 10
56.67151009687494
 20
77.95204544877245
 30
41.0
 10
56.63570464052849
 20
77.9408338269639
 30
41.0
 10
56.623358889977155
 20
77.93690175441627
 30
41.0
 10
56.61186769157808
 20
77.93317312441427
 30
41.0
 10
56.60123986411227
 20
77.9296528545277
 30
41.0
 10
56.591484226353565
 20
77.92634586231085
 30
41.0
 10
56.58260959706862
 20
77.92325706530252
 30
41.0
 10
56.574624795016994
 20
77.92039138102594
 30
41.0
 10
56.56191866072075
 20
77.91566182298203
 30
41.0
 10
56.55656556773933
 20
77.91360679733911
 30
41.0
 10
56.5515476813834
 20
77.91159553242473
 30
41.0
 10
56.54697315778164
 20
77.90965056546617
 30
41.0
 10
56.542989987814785
 20
77.90781008855338
 30
41.0
 10
56.53978599711571
 20
77.90612794863893
 30
41.0
 10
56.53758884606933
 20
77.9046736475381
 30
41.0
 10
56.536666029812686
 20
77.90353234192874
 30
41.0
  0
SPLINE
  5
30
330
17
100
AcDbEntity
  8
0
100
AcDbSpline
 70
0
 71
1
 72
4
 73
2
 74
0
 40
0.0
 40
0.0
 40
1.0
 40
1.0
 10
62.76746360151274
 20
78.76254642786344
 30
41.0
 10
62.76746360151274
 20
76.09999939999999
 30
41.0
  0
LINE
  5
31
330
17
100
AcDbEntity
  8
0
100
AcDbLine
 10
62.76746360070408
 20
76.1
 30
41.0
 11
67.91258909623166
 21
76.1
 31
41.0
  0
SPLINE
  5
32
330
17
100
AcDbEntity
  8
0
100
AcDbSpline
 70
0
 71
8
 72
53
 73
44
 74
0
 40
0.0
 40
0.0
 40
0.0
 40
0.0
 40
0.0
 40
0.0
 40
0.0
 40
0.0
 40
0.0
 40
0.20596353667731182
 40
0.20596353667731182
 40
0.20596353667731182
 40
0.20596353667731182
 40
0.20596353667731182
 40
0.20596353667731182
 40
0.20596353667731182
 40
0.45818580099631295
 40
0.45818580099631295
 40
0.45818580099631295
 40
0.45818580099631295
 40
0.45818580099631295
 40
0.45818580099631295
 40
0.45818580099631295
 40
0.7325949956267508
 40
0.7325949956267508
 40
0.7325949956267508
 40
0.7325949956267508
 40
0.7325949956267508
 40
0.7325949956267508
 40
0.7325949956267508
 40
0.798245616057593
 40
0.798245616057593
 40
0.798245616057593
 40
0.798245616057593
 40
0.798245616057593
 40
0.798245616057593
 40
0.798245616057593
 40
0.9705392985711856
 40
0.9705392985711856
 40
0.9705392985711856
 40
0.9705392985711856
 40
0.9705392985711856
 40
0.9705392985711856
 40
0.9705392985711856
 40
1.0
 40
1.0
 40
1.0
 40
1.0
 40
1.0
 40
1.0
 40
1.0
 40
1.0
 40
1.0
 10
72.7344191504219
 20
53.8999999981167
 30
41.0
 10
72.68157300808979
 20
54.502889851258274
 30
41.0
 10
72.62711517226924
 20
55.10563463932575
 30
41.0
 10
72.5709520835089
 20
55.70822099795536
 30
41.0
 10
72.51298083899461
 20
56.31063313844445
 30
41.0
 10
72.45308751982542
 20
56.912852683820695
 30
41.0
 10
72.3911446797947
 20
57.51485841963398
 30
41.0
 10
72.32700799567621
 20
58.116625959470916
 30
41.0
 10
72.1790813998821
 20
59.45472390389007
 30
41.0
 10
72.09411349750994
 20
60.19090876734746
 30
41.0
 10
72.00530554554095
 20
60.926639769455356
 30
41.0
 10
71.91230175610539
 20
61.66185323451973
 30
41.0
 10
71.8146896860946
 20
62.39646358660628
 30
41.0
 10
71.71197797231115
 20
63.13036032603417
 30
41.0
 10
71.60355549549655
 20
63.86340235301841
 30
41.0
 10
71.36359911274332
 20
65.39180852181993
 30
41.0
 10
71.23090876093879
 20
66.18673010724571
 30
41.0
 10
71.08951946424811
 20
66.98018659241741
 30
41.0
 10
70.9381019371024
 20
67.77193313473573
 30
41.0
 10
70.77508889903734
 20
68.56148663271627
 30
41.0
 10
70.59813949295832
 20
69.34799397309489
 30
41.0
 10
70.40436850283993
 20
70.13029230769727
 30
41.0
 10
70.13616390375306
 20
71.09203437211208
 30
41.0
 10
70.08388486269534
 20
71.2745152320976
 30
41.0
 10
70.0310788189807
 20
71.45377479243216
 30
41.0
 10
69.97774443592499
 20
71.62980654952247
 30
41.0
 10
69.92389434253182
 20
71.80262601354369
 30
41.0
 10
69.8695439413348
 20
71.97226723484287
 30
41.0
 10
69.81470021623986
 20
72.13877933034283
 30
41.0
 10
69.61409068723304
 20
72.73116508631233
 30
41.0
 10
69.45939309636455
 20
73.15660807588938
 30
41.0
 10
69.29415025129433
 20
73.57820355173973
 30
41.0
 10
69.1171134277319
 20
73.99520936509813
 30
41.0
 10
68.92685665301602
 20
74.40647202815052
 30
41.0
 10
68.72173336840905
 20
74.81040604359693
 30
41.0
 10
68.49979699765731
 20
75.20495617418274
 30
41.0
 10
68.21742374652798
 20
75.65294516666438
 30
41.0
 10
68.17563425290955
 20
75.71800374658295
 30
41.0
 10
68.13327691626029
 20
75.78269078891243
 30
41.0
 10
68.09034061322036
 20
75.84699156842679
 30
41.0
 10
68.046814361645
 20
75.91089026413147
 30
41.0
 10
68.00268736039378
 20
75.97436999530737
 30
41.0
 10
67.95794903543276
 20
76.0374128629603
 30
41.0
 10
67.91258909522269
 20
76.09999999926873
 30
41.0
  0
LINE
  5
33
330
17
100
AcDbEntity
  8
0
100
AcDbLine
 10
62.76746360070408
 20
53.9
 30
41.0
 11
72.73441917190745
 21
53.9
 31
41.0
  0
SPLINE
  5
34
330
17
100
AcDbEntity
  8
0
100
AcDbSpline
 70
0
 71
1
 72
4
 73
2
 74
0
 40
0.0
 40
0.0
 40
1.0
 40
1.0
 10
62.76746360151274
 20
53.90000060000026
 30
41.0
 10
62.76746360151274
 20
50.09999939999937
 30
41.0
  0
LINE
  5
35
330
17
100
AcDbEntity
  8
0
100
AcDbLine
 10
62.76746360070408
 20
50.1
 30
41.0
 11
73.04166470745021
 21
50.1
 31
41.0
  0
SPLINE
  5
36
330
17
100
AcDbEntity
  8
0
100
AcDbSpline
 70
0
 71
8
 72
39
 73
30
 74
0
 40
0.0
 40
0.0
 40
0.0
 40
0.0
 40
0.0
 40
0.0
 40
0.0
 40
0.0
 40
0.0
 40
0.24010623368785872
 40
0.24010623368785872
 40
0.24010623368785872
 40
0.24010623368785872
 40
0.24010623368785872
 40
0.24010623368785872
 40
0.24010623368785872
 40
0.4638608671709163
 40
0.4638608671709163
 40
0.4638608671709163
 40
0.4638608671709163
 40
0.4638608671709163
 40
0.4638608671709163
 40
0.4638608671709163
 40
0.6055890717166571
 40
0.6055890717166571
 40
0.6055890717166571
 40
0.6055890717166571
 40
0.6055890717166571
 40
0.6055890717166571
 40
0.6055890717166571
 40
1.0
 40
1.0
 40
1.0
 40
1.0
 40
1.0
 40
1.0
 40
1.0
 40
1.0
 40
1.0
 10
74.1920890521195
 20
27.89999999935806
 30
41.0
 10
74.1691183923156
 20
28.56684435858324
 30
41.0
 10
74.14544811050808
 20
29.233664249619416
 30
41.0
 10
74.12107255200647
 20
29.90045860864338
 30
41.0
 10
74.09598591116861
 20
30.567226339042694
 30
41.0
 10
74.07018223140071
 20
31.23396631141568
 30
41.0
 10
74.04365540515727
 20
31.900677363571397
 30
41.0
 10
74.01639917394112
 20
32.56735830052967
 30
41.0
 10
73.96232138360666
 20
33.85525763582979
 30
41.0
 10
73.9355966195616
 20
34.476480151792
 30
41.0
 10
73.90822764494808
 20
35.097674447584076
 30
41.0
 10
73.88020913649082
 20
35.71883949744327
 30
41.0
 10
73.85153563885903
 20
36.33997424466781
 30
41.0
 10
73.8222015646668
 20
36.961077601616786
 30
41.0
 10
73.79220119447291
 20
37.58214844971024
 30
41.0
 10
73.74210042721242
 20
38.596556201123754
 30
41.0
 10
73.72240373821012
 20
38.98991330436811
 30
41.0
 10
73.70242964789195
 20
39.3832562813053
 30
41.0
 10
73.68219380694312
 20
39.776585790341805
 30
41.0
 10
73.66168339744152
 20
40.16990086963263
 30
41.0
 10
73.64087841747539
 20
40.563200158901374
 30
41.0
 10
73.61977922646004
 20
40.956483444378804
 30
41.0
 10
73.53879943880878
 20
42.44415782855622
 30
41.0
 10
73.4768476552168
 20
43.53842984148204
 30
41.0
 10
73.41230701826886
 20
44.63255156265634
 30
41.0
 10
73.34494627890193
 20
45.726503227154154
 30
41.0
 10
73.27451039267407
 20
46.820259314129586
 30
41.0
 10
73.20071349375262
 20
47.91378806097359
 30
41.0
 10
73.12322726622132
 20
49.007050640390304
 30
41.0
 10
73.04166471270669
 20
50.10000000039227
 30
41.0
  0
LINE
  5
37
330
17
100
AcDbEntity
  8
0
100
AcDbLine
 10
62.76746360070408
 20
27.9
 30
41.0
 11
74.19208907075546
 21
27.9
 31
41.0
  0
SPLINE
  5
38
330
17
100
AcDbEntity
  8
0
100
AcDbSpline
 70
0
 71
1
 72
4
 73
2
 74
0
 40
0.0
 40
0.0
 40
1.0
 40
1.0
 10
62.767463601512766
 20
27.900000600000002
 30
41.0
 10
62.767463601512766
 20
24.099999399999998
 30
41.0
  0
LINE
  5
39
330
17
100
AcDbEntity
  8
0
100
AcDbLine
 10
62.76746360070408
 20
24.1
 30
41.0
 11
74.3131499132423
 21
24.1
 31
41.0
  0
SPLINE
  5
3A
330
17
100
AcDbEntity
  8
0
100
AcDbSpline
 70
0
 71
8
 72
18
 73
9
 74
0
 40
0.0
 40
0.0
 40
0.0
 40
0.0
 40
0.0
 40
0.0
 40
0.0
 40
0.0
 40
0.0
 40
1.0
 40
1.0
 40
1.0
 40
1.0
 40
1.0
 40
1.0
 40
1.0
 40
1.0
 40
1.0
 10
74.65399924027555
 20
1.9000000000017594
 30
41.0
 10
74.64806354132688
 20
4.675413115447747
 30
41.0
 10
74.63214794158634
 20
7.450803030272873
 30
41.0
 10
74.60603862452733
 20
10.226128892775424
 30
41.0
 10
74.56949569273563
 20
13.001344637031796
 30
41.0
 10
74.52225141456454
 20
15.776398945995432
 30
41.0
 10
74.46400743660193
 20
18.551235194972445
 30
41.0
 10
74.39443096194863
 20
21.325791375473997
 30
41.0
 10
74.31314989430827
 20
24.099999999445266
 30
41.0
  0
LINE
  5
3B
330
17
100
AcDbEntity
  8
0
100
AcDbLine
 10
62.76746360070408
 20
1.9
 30
41.0
 11
74.65399923945779
 21
1.9
 31
41.0
  0
SPLINE
  5
3C
330
17
100
AcDbEntity
  8
0
100
AcDbSpline
 70
0
 71
1
 72
4
 73
2
 74
0
 40
0.0
 40
0.0
 40
0.9999993684216398
 40
0.9999993684216398
 10
62.767463601512766
 20
1.9000006000000558
 30
41.0
 10
62.767463601512766
 20
-6.553790374438061e-17
 30
41.0
  0
SPLINE
  5
3D
330
17
100
AcDbEntity
  8
0
100
AcDbSpline
 70
0
 71
1
 72
4
 73
2
 74
0
 40
0.0
 40
0.0
 40
1.0
 40
1.0
 10
62.767463601512766
 20
-1.9000006000000011
 30
41.0
 10
62.767463601512766
 20
1.2000000211287443e-06
 30
41.0
  0
LINE
  5
3E
330
17
100
AcDbEntity
  8
0
100
AcDbLine
 10
62.76746360070461
 20
-1.9
 30
41.0
 11
74.65398553927467
 21
-1.9
 31
41.0
  0
SPLINE
  5
3F
330
17
100
AcDbEntity
  8
0
100
AcDbSpline
 70
0
 71
8
 72
18
 73
9
 74
0
 40
0.0
 40
0.0
 40
0.0
 40
0.0
 40
0.0
 40
0.0
 40
0.0
 40
0.0
 40
0.0
 40
1.0
 40
1.0
 40
1.0
 40
1.0
 40
1.0
 40
1.0
 40
1.0
 40
1.0
 40
1.0
 10
74.31306939930644
 20
-24.09999999916281
 30
41.0
 10
74.3943375502274
 20
-21.32578967888448
 30
41.0
 10
74.46391021921525
 20
-18.551230167273214
 30
41.0
 10
74.52215780532678
 20
-15.776391702659637
 30
41.0
 10
74.56941152468644
 20
-13.001337660141846
 30
41.0
 10
74.6059684622855
 20
-10.226124694511947
 30
41.0
 10
74.63209511753891
 20
-7.450802842700965
 30
41.0
 10
74.6480299640554
 20
-4.675415601961841
 30
41.0
 10
74.65398554407713
 20
-1.900000000010316
 30
41.0
  0
LINE
  5
40
330
17
100
AcDbEntity
  8
0
100
AcDbLine
 10
62.76746360070461
 20
-24.1
 30
41.0
 11
74.3130694278853
 21
-24.1
 31
41.0
  0
SPLINE
  5
41
330
17
100
AcDbEntity
  8
0
100
AcDbSpline
 70
0
 71
1
 72
4
 73
2
 74
0
 40
0.0
 40
0.0
 40
1.0
 40
1.0
 10
62.767463601512766
 20
-27.900000600000034
 30
41.0
 10
62.767463601512766
 20
-24.099999399999938
 30
41.0
  0
LINE
  5
42
330
17
100
AcDbEntity
  8
0
100
AcDbLine
 10
62.76746360070461
 20
-27.9
 30
41.0
 11
74.19203422575154
 21
-27.9
 31
41.0
  0
SPLINE
  5
43
330
17
100
AcDbEntity
  8
0
100
AcDbSpline
 70
0
 71
8
 72
32
 73
23
 74
0
 40
0.0
 40
0.0
 40
0.0
 40
0.0
 40
0.0
 40
0.0
 40
0.0
 40
0.0
 40
0.0
 40
0.4397071796139535
 40
0.4397071796139535
 40
0.4397071796139535
 40
0.4397071796139535
 40
0.4397071796139535
 40
0.4397071796139535
 40
0.4397071796139535
 40
0.5509936079539925
 40
0.5509936079539925
 40
0.5509936079539925
 40
0.5509936079539925
 40
0.5509936079539925
 40
0.5509936079539925
 40
0.5509936079539925
 40
1.0
 40
1.0
 40
1.0
 40
1.0
 40
1.0
 40
1.0
 40
1.0
 40
1.0
 40
1.0
 10
73.04218530087908
 20
-50.10000000176416
 30
41.0
 10
73.13286873995159
 20
-48.88414167883296
 30
41.0
 10
73.21850919849176
 20
-47.66789646826588
 30
41.0
 10
73.29963905863342
 20
-46.45133481097845
 30
41.0
 10
73.3767011398501
 20
-45.23451052466382
 30
41.0
 10
73.45007836165532
 20
-44.01746317454505
 30
41.0
 10
73.52010690461974
 20
-42.800219137829394
 30
41.0
 10
73.58709121961192
 20
-41.582792844192646
 30
41.0
 10
73.66756001805791
 20
-40.05702048339193
 30
41.0
 10
73.68364759717201
 20
-39.748612924935294
 30
41.0
 10
73.69957315019717
 20
-39.43999401385837
 30
41.0
 10
73.71533892912063
 20
-39.13118485927876
 30
41.0
 10
73.73094643139719
 20
-38.822197946023195
 30
41.0
 10
73.74639639994905
 20
-38.51303713462751
 30
41.0
 10
73.76168882316595
 20
-38.20369766133667
 30
41.0
 10
73.83788440493483
 20
-36.645301972510175
 30
41.0
 10
73.89623983924977
 20
-35.39630551319456
 30
41.0
 10
73.95193639788262
 20
-34.14718519426815
 30
41.0
 10
74.0050189445979
 20
-32.89794914795351
 30
41.0
 10
74.05553020399469
 20
-31.648605208988673
 30
41.0
 10
74.10351090060409
 20
-30.399160918523073
 30
41.0
 10
74.14899988194148
 20
-29.149623527567538
 30
41.0
 10
74.1920342274745
 20
-27.900000000059336
 30
41.0
  0
LINE
  5
44
330
17
100
AcDbEntity
  8
0
100
AcDbLine
 10
62.76746360070461
 20
-50.1
 30
41.0
 11
73.04218527722576
 21
-50.1
 31
41.0
  0
SPLINE
  5
45
330
17
100
AcDbEntity
  8
0
100
AcDbSpline
 70
0
 71
1
 72
4
 73
2
 74
0
 40
0.0
 40
0.0
 40
1.0
 40
1.0
 10
62.76746360151274
 20
-53.9000006
 30
41.0
 10
62.76746360151274
 20
-50.0999994
 30
41.0
  0
LINE
  5
46
330
17
100
AcDbEntity
  8
0
100
AcDbLine
 10
62.76746360070461
 20
-53.9
 30
41.0
 11
72.73510698963005
 21
-53.9
 31
41.0
  0
SPLINE
  5
47
330
17
100
AcDbEntity
  8
0
100
AcDbSpline
 70
0
 71
8
 72
67
 73
58
 74
0
 40
0.0
 40
0.0
 40
0.0
 40
0.0
 40
0.0
 40
0.0
 40
0.0
 40
0.0
 40
0.0
 40
0.047778038885926834
 40
0.047778038885926834
 40
0.047778038885926834
 40
0.047778038885926834
 40
0.047778038885926834
 40
0.047778038885926834
 40
0.047778038885926834
 40
0.2121847271773911
 40
0.2121847271773911
 40
0.2121847271773911
 40
0.2121847271773911
 40
0.2121847271773911
 40
0.2121847271773911
 40
0.2121847271773911
 40
0.2780113848904065
 40
0.2780113848904065
 40
0.2780113848904065
 40
0.2780113848904065
 40
0.2780113848904065
 40
0.2780113848904065
 40
0.2780113848904065
 40
0.3767454790478831
 40
0.3767454790478831
 40
0.3767454790478831
 40
0.3767454790478831
 40
0.3767454790478831
 40
0.3767454790478831
 40
0.3767454790478831
 40
0.475480165245653
 40
0.475480165245653
 40
0.475480165245653
 40
0.475480165245653
 40
0.475480165245653
 40
0.475480165245653
 40
0.475480165245653
 40
0.6626300377022041
 40
0.6626300377022041
 40
0.6626300377022041
 40
0.6626300377022041
 40
0.6626300377022041
 40
0.6626300377022041
 40
0.6626300377022041
 40
0.8748938534694303
 40
0.8748938534694303
 40
0.8748938534694303
 40
0.8748938534694303
 40
0.8748938534694303
 40
0.8748938534694303
 40
0.8748938534694303
 40
1.0
 40
1.0
 40
1.0
 40
1.0
 40
1.0
 40
1.0
 40
1.0
 40
1.0
 40
1.0
 10
67.9141182559832
 20
-76.10000000039989
 30
41.0
 10
67.97708607359843
 20
-76.01311900169412
 30
41.0
 10
68.03885689029934
 20
-75.92535855244604
 30
41.0
 10
68.09945815218981
 20
-75.83676910786478
 30
41.0
 10
68.15891802572202
 20
-75.74739799288989
 30
41.0
 10
68.21726514038616
 20
-75.65728920703134
 30
41.0
 10
68.27452839762745
 20
-75.56648328052029
 30
41.0
 10
68.33073684599059
 20
-75.47501718177037
 30
41.0
 10
68.5758063936278
 20
-75.06602785299646
 30
41.0
 10
68.75348218745357
 20
-74.74181980065347
 30
41.0
 10
68.92017600763131
 20
-74.41161721302835
 30
41.0
 10
69.07693823576992
 20
-74.07650289265722
 30
41.0
 10
69.22468340943057
 20
-73.73734597848967
 30
41.0
 10
69.36422206833156
 20
-73.39481720968465
 30
41.0
 10
69.49628166875247
 20
-73.04939882541673
 30
41.0
 10
69.67165926294399
 20
-72.56204977533942
 30
41.0
 10
69.72142065059136
 20
-72.42031444321417
 30
41.0
 10
69.77079626992835
 20
-72.2761596148584
 30
41.0
 10
69.81978166184585
 20
-72.12956180013894
 30
41.0
 10
69.86837236727715
 20
-71.98049750824835
 30
41.0
 10
69.916563927198
 20
-71.8289432477049
 30
41.0
 10
69.96435188262663
 20
-71.67487552635265
 30
41.0
 10
70.08279737145216
 20
-71.28337785719637
 30
41.0
 10
70.15296459157285
 20
-71.0427121815171
 30
41.0
 10
70.22214721768549
 20
-70.79632314037156
 30
41.0
 10
70.29049798341309
 20
-70.54433931099355
 30
41.0
 10
70.357876622035
 20
-70.2867966155112
 30
41.0
 10
70.4244019433531
 20
-70.02381637315125
 30
41.0
 10
70.49002840657322
 20
-69.75546703037688
 30
41.0
 10
70.61953340595119
 20
-69.20821698790598
 30
41.0
 10
70.6834104152592
 20
-68.92931224084914
 30
41.0
 10
70.74642082915145
 20
-68.64521384826128
 30
41.0
 10
70.80857373652408
 20
-68.35600706880653
 30
41.0
 10
70.86987822606686
 20
-68.06177715989062
 30
41.0
 10
70.93034338626312
 20
-67.76260937766084
 30
41.0
 10
70.98997830538974
 20
-67.45858897700603
 30
41.0
 10
71.16027253753506
 20
-66.5644993977216
 30
41.0
 10
71.26576099469563
 20
-65.97804216137227
 30
41.0
 10
71.36598267884955
 20
-65.39062754603727
 30
41.0
 10
71.46149740415335
 20
-64.80241057661125
 30
41.0
 10
71.55275474409669
 20
-64.21351268253345
 30
41.0
 10
71.64013189047408
 20
-63.624028109035144
 30
41.0
 10
71.72395419030153
 20
-63.03402731645673
 30
41.0
 10
71.89585088321783
 20
-61.77385130378361
 30
41.0
 10
71.98298484854608
 20
-61.10355904518943
 30
41.0
 10
72.06630475111687
 20
-60.432763597332645
 30
41.0
 10
72.14614257878881
 20
-59.76153316467622
 30
41.0
 10
72.22277783472676
 20
-59.08992363377273
 30
41.0
 10
72.29645199461513
 20
-58.4179803563528
 30
41.0
 10
72.36737739918306
 20
-57.74573923239461
 30
41.0
 10
72.47603315070661
 20
-56.6768552389851
 30
41.0
 10
72.51543531125594
 20
-56.28039331247022
 30
41.0
 10
72.55398538119724
 20
-55.883846535088395
 30
41.0
 10
72.59171869810328
 20
-55.48721978183019
 30
41.0
 10
72.6286680121073
 20
-55.090517612818246
 30
41.0
 10
72.66486380625287
 20
-54.69374429901955
 30
41.0
 10
72.7003345610941
 20
-54.296903843436326
 30
41.0
 10
72.73510697580204
 20
-53.89999999878854
 30
41.0
  0
LINE
  5
48
330
17
100
AcDbEntity
  8
0
100
AcDbLine
 10
62.76746360070461
 20
-76.1
 30
41.0
 11
67.91411825543143
 21
-76.1
 31
41.0
  0
SPLINE
  5
49
330
17
100
AcDbEntity
  8
0
100
AcDbSpline
 70
0
 71
1
 72
4
 73
2
 74
0
 40
0.0
 40
0.0
 40
1.0
 40
1.0
 10
62.767463601512745
 20
-78.76272990289553
 30
41.0
 10
62.76746360151274
 20
-76.09999939999999
 30
41.0
  0
SPLINE
  5
4A
330
17
100
AcDbEntity
  8
0
100
AcDbSpline
 70
0
 71
8
 72
74
 73
65
 74
0
 40
0.0
 40
0.0
 40
0.0
 40
0.0
 40
0.0
 40
0.0
 40
0.0
 40
0.0
 40
0.0
 40
0.0009870767676293905
 40
0.0009870767676293905
 40
0.0009870767676293905
 40
0.0009870767676293905
 40
0.0009870767676293905
 40
0.0009870767676293905
 40
0.0009870767676293905
 40
0.0020292932326562403
 40
0.0020292932326562403
 40
0.0020292932326562403
 40
0.0020292932326562403
 40
0.0020292932326562403
 40
0.0020292932326562403
 40
0.0020292932326562403
 40
0.0032452124418543386
 40
0.0032452124418543386
 40
0.0032452124418543386
 40
0.0032452124418543386
 40
0.0032452124418543386
 40
0.0032452124418543386
 40
0.0032452124418543386
 40
0.0068324050069026344
 40
0.0068324050069026344
 40
0.0068324050069026344
 40
0.0068324050069026344
 40
0.0068324050069026344
 40
0.0068324050069026344
 40
0.0068324050069026344
 40
0.011875422748740818
 40
0.011875422748740818
 40
0.011875422748740818
 40
0.011875422748740818
 40
0.011875422748740818
 40
0.011875422748740818
 40
0.011875422748740818
 40
0.023406357793302166
 40
0.023406357793302166
 40
0.023406357793302166
 40
0.023406357793302166
 40
0.023406357793302166
 40
0.023406357793302166
 40
0.023406357793302166
 40
0.0381612991649601
 40
0.0381612991649601
 40
0.0381612991649601
 40
0.0381612991649601
 40
0.0381612991649601
 40
0.0381612991649601
 40
0.0381612991649601
 40
0.04594739145111002
 40
0.04594739145111002
 40
0.04594739145111002
 40
0.04594739145111002
 40
0.04594739145111002
 40
0.04594739145111002
 40
0.04594739145111002
 40
0.049309598377639555
 40
0.049309598377639555
 40
0.049309598377639555
 40
0.049309598377639555
 40
0.049309598377639555
 40
0.049309598377639555
 40
0.049309598377639555
 40
0.049309598377639555
 40
0.049309598377639555
 10
56.536666029812686
 20
-77.90353234192877
 30
41.0
 10
56.537622126630616
 20
-77.90471480772685
 30
41.0
 10
56.53990242780324
 20
-77.90622341040861
 30
41.0
 10
56.54331303377046
 20
-77.90798644516059
 30
41.0
 10
56.54756317736066
 20
-77.90991796304925
 30
41.0
 10
56.55240873819031
 20
-77.91195189306121
 30
41.0
 10
56.55767961599547
 20
-77.91404636673458
 30
41.0
 10
56.56326952350147
 20
-77.91617943410924
 30
41.0
 10
56.57539342446601
 20
-77.92065694776757
 30
41.0
 10
56.58227922135235
 20
-77.92312345545669
 30
41.0
 10
56.58981859726946
 20
-77.92575378633985
 30
41.0
 10
56.59800599938706
 20
-77.92854484395846
 30
41.0
 10
56.60683587487102
 20
-77.9314935318457
 30
41.0
 10
56.616302670883435
 20
-77.93459675352656
 30
41.0
 10
56.62640083458262
 20
-77.93785141251776
 30
41.0
 10
56.6496361214203
 20
-77.94522457877292
 30
41.0
 10
56.662999233249366
 20
-77.94939665355213
 30
41.0
 10
56.67720533089726
 20
-77.95376571955181
 30
41.0
 10
56.69224559664095
 20
-77.95832685963748
 30
41.0
 10
56.708111212747426
 20
-77.9630751566539
 30
41.0
 10
56.72479336147362
 20
-77.96800569342504
 30
41.0
 10
56.742283225066515
 20
-77.97311355275416
 30
41.0
 10
56.814527302776185
 20
-77.99397160089876
 30
41.0
 10
56.869399562187766
 20
-78.00930732428311
 30
41.0
 10
56.924789175035514
 20
-78.0244215744279
 30
41.0
 10
56.98057015378638
 20
-78.03931578202011
 30
41.0
 10
57.0366058941087
 20
-78.05399806137196
 30
41.0
 10
57.09286093481052
 20
-78.06847682432233
 30
41.0
 10
57.14930750306486
 20
-78.08276499622852
 30
41.0
 10
57.28561756749751
 20
-78.11672175847337
 30
41.0
 10
57.36559589871176
 20
-78.13619799053845
 30
41.0
 10
57.44583078640034
 20
-78.15532697825014
 30
41.0
 10
57.526279157702334
 20
-78.17411986985103
 30
41.0
 10
57.60691003945769
 20
-78.19258493798569
 30
41.0
 10
57.6877009030469
 20
-78.21072899156765
 30
41.0
 10
57.76863785585077
 20
-78.22855742567978
 30
41.0
 10
58.03509135265543
 20
-78.28612948930355
 30
41.0
 10
58.22116019368896
 20
-78.3245525838407
 30
41.0
 10
58.407783082883746
 20
-78.36139320105556
 30
41.0
 10
58.594882461029975
 20
-78.39666056191541
 30
41.0
 10
58.78240206938442
 20
-78.43034837438096
 30
41.0
 10
58.970299792257876
 20
-78.46244013604891
 30
41.0
 10
59.15855027038384
 20
-78.49290764336025
 30
41.0
 10
59.58845184831702
 20
-78.55857611326661
 30
41.0
 10
59.83029646963003
 20
-78.59271550280663
 30
41.0
 10
60.072622986788836
 20
-78.6240546834164
 30
41.0
 10
60.31538744235208
 20
-78.65248848291998
 30
41.0
 10
60.55854633486997
 20
-78.67788772477859
 30
41.0
 10
60.80205458803863
 20
-78.7000991794565
 30
41.0
 10
61.045864941399934
 20
-78.71894248949734
 30
41.0
 10
61.41871974776287
 20
-78.74225751007512
 30
41.0
 10
61.547579417218536
 20
-78.74931348430879
 30
41.0
 10
61.67649996980182
 20
-78.75534056825593
 30
41.0
 10
61.805472400792695
 20
-78.76030483264728
 30
41.0
 10
61.934486493569864
 20
-78.76416955744237
 30
41.0
 10
62.063530811277545
 20
-78.76689494757171
 30
41.0
 10
62.19259268849218
 20
-78.76843784867897
 30
41.0
 10
62.3773915763839
 20
-78.76888688840712
 30
41.0
 10
62.433125234186065
 20
-78.7687930682525
 30
41.0
 10
62.488858309839024
 20
-78.76845779774854
 30
41.0
 10
62.544589625805656
 20
-78.76786882274061
 30
41.0
 10
62.60031771432151
 20
-78.7670138548961
 30
41.0
 10
62.656040818247924
 20
-78.76588058703018
 30
41.0
 10
62.711756891925056
 20
-78.76445670843165
 30
41.0
 10
62.76746360202499
 20
-78.76272992018872
 30
41.0
  0
SPLINE
  5
4B
330
17
100
AcDbEntity
  8
0
100
AcDbSpline
 70
0
 71
8
 72
347
 73
338
 74
0
 40
0.0
 40
0.0
 40
0.0
 40
0.0
 40
0.0
 40
0.0
 40
0.0
 40
0.0
 40
0.0
 40
0.0007694506783291744
 40
0.0007694506783291744
 40
0.0007694506783291744
 40
0.0007694506783291744
 40
0.0007694506783291744
 40
0.0007694506783291744
 40
0.0007694506783291744
 40
0.0025926497566559894
 40
0.0025926497566559894
 40
0.0025926497566559894
 40
0.0025926497566559894
 40
0.0025926497566559894
 40
0.0025926497566559894
 40
0.0025926497566559894
 40
0.00583205592112282
 40
0.00583205592112282
 40
0.00583205592112282
 40
0.00583205592112282
 40
0.00583205592112282
 40
0.00583205592112282
 40
0.00583205592112282
 40
0.010044271822450598
 40
0.010044271822450598
 40
0.010044271822450598
 40
0.010044271822450598
 40
0.010044271822450598
 40
0.010044271822450598
 40
0.010044271822450598
 40
0.01713722856239093
 40
0.01713722856239093
 40
0.01713722856239093
 40
0.01713722856239093
 40
0.01713722856239093
 40
0.01713722856239093
 40
0.01713722856239093
 40
0.031023817909013325
 40
0.031023817909013325
 40
0.031023817909013325
 40
0.031023817909013325
 40
0.031023817909013325
 40
0.031023817909013325
 40
0.031023817909013325
 40
0.05841061850114815
 40
0.05841061850114815
 40
0.05841061850114815
 40
0.05841061850114815
 40
0.05841061850114815
 40
0.05841061850114815
 40
0.05841061850114815
 40
0.07526751091782508
 40
0.07526751091782508
 40
0.07526751091782508
 40
0.07526751091782508
 40
0.07526751091782508
 40
0.07526751091782508
 40
0.07526751091782508
 40
0.09212628491317455
 40
0.09212628491317455
 40
0.09212628491317455
 40
0.09212628491317455
 40
0.09212628491317455
 40
0.09212628491317455
 40
0.09212628491317455
 40
0.14408464658486037
 40
0.14408464658486037
 40
0.14408464658486037
 40
0.14408464658486037
 40
0.14408464658486037
 40
0.14408464658486037
 40
0.14408464658486037
 40
0.21745528713330728
 40
0.21745528713330728
 40
0.21745528713330728
 40
0.21745528713330728
 40
0.21745528713330728
 40
0.21745528713330728
 40
0.21745528713330728
 40
0.2782823304880791
 40
0.2782823304880791
 40
0.2782823304880791
 40
0.2782823304880791
 40
0.2782823304880791
 40
0.2782823304880791
 40
0.2782823304880791
 40
0.32259790826782175
 40
0.32259790826782175
 40
0.32259790826782175
 40
0.32259790826782175
 40
0.32259790826782175
 40
0.32259790826782175
 40
0.32259790826782175
 40
0.36850275749741634
 40
0.36850275749741634
 40
0.36850275749741634
 40
0.36850275749741634
 40
0.36850275749741634
 40
0.36850275749741634
 40
0.36850275749741634
 40
0.4419687089116129
 40
0.4419687089116129
 40
0.4419687089116129
 40
0.4419687089116129
 40
0.4419687089116129
 40
0.4419687089116129
 40
0.4419687089116129
 40
0.4986680420898793
 40
0.4986680420898793
 40
0.4986680420898793
 40
0.4986680420898793
 40
0.4986680420898793
 40
0.4986680420898793
 40
0.4986680420898793
 40
0.5316246901991392
 40
0.5316246901991392
 40
0.5316246901991392
 40
0.5316246901991392
 40
0.5316246901991392
 40
0.5316246901991392
 40
0.5316246901991392
 40
0.55424887603189
 40
0.55424887603189
 40
0.55424887603189
 40
0.55424887603189
 40
0.55424887603189
 40
0.55424887603189
 40
0.55424887603189
 40
0.5658708369121529
 40
0.5658708369121529
 40
0.5658708369121529
 40
0.5658708369121529
 40
0.5658708369121529
 40
0.5658708369121529
 40
0.5658708369121529
 40
0.5721588061020405
 40
0.5721588061020405
 40
0.5721588061020405
 40
0.5721588061020405
 40
0.5721588061020405
 40
0.5721588061020405
 40
0.5721588061020405
 40
0.5752187326765855
 40
0.5752187326765855
 40
0.5752187326765855
 40
0.5752187326765855
 40
0.5752187326765855
 40
0.5752187326765855
 40
0.5752187326765855
 40
0.5771382276349776
 40
0.5771382276349776
 40
0.5771382276349776
 40
0.5771382276349776
 40
0.5771382276349776
 40
0.5771382276349776
 40
0.5771382276349776
 40
0.5786226247809638
 40
0.5786226247809638
 40
0.5786226247809638
 40
0.5786226247809638
 40
0.5786226247809638
 40
0.5786226247809638
 40
0.5786226247809638
 40
0.5802433067410889
 40
0.5802433067410889
 40
0.5802433067410889
 40
0.5802433067410889
 40
0.5802433067410889
 40
0.5802433067410889
 40
0.5802433067410889
 40
0.5818894327190606
 40
0.5818894327190606
 40
0.5818894327190606
 40
0.5818894327190606
 40
0.5818894327190606
 40
0.5818894327190606
 40
0.5818894327190606
 40
0.5835411528198191
 40
0.5835411528198191
 40
0.5835411528198191
 40
0.5835411528198191
 40
0.5835411528198191
 40
0.5835411528198191
 40
0.5835411528198191
 40
0.5864905780867523
 40
0.5864905780867523
 40
0.5864905780867523
 40
0.5864905780867523
 40
0.5864905780867523
 40
0.5864905780867523
 40
0.5864905780867523
 40
0.5918996348201178
 40
0.5918996348201178
 40
0.5918996348201178
 40
0.5918996348201178
 40
0.5918996348201178
 40
0.5918996348201178
 40
0.5918996348201178
 40
0.6019634044973907
 40
0.6019634044973907
 40
0.6019634044973907
 40
0.6019634044973907
 40
0.6019634044973907
 40
0.6019634044973907
 40
0.6019634044973907
 40
0.6218109104980099
 40
0.6218109104980099
 40
0.6218109104980099
 40
0.6218109104980099
 40
0.6218109104980099
 40
0.6218109104980099
 40
0.6218109104980099
 40
0.6340272764981802
 40
0.6340272764981802
 40
0.6340272764981802
 40
0.6340272764981802
 40
0.6340272764981802
 40
0.6340272764981802
 40
0.6340272764981802
 40
0.6462450058970169
 40
0.6462450058970169
 40
0.6462450058970169
 40
0.6462450058970169
 40
0.6462450058970169
 40
0.6462450058970169
 40
0.6462450058970169
 40
0.6839001863350942
 40
0.6839001863350942
 40
0.6839001863350942
 40
0.6839001863350942
 40
0.6839001863350942
 40
0.6839001863350942
 40
0.6839001863350942
 40
0.7370750637768402
 40
0.7370750637768402
 40
0.7370750637768402
 40
0.7370750637768402
 40
0.7370750637768402
 40
0.7370750637768402
 40
0.7370750637768402
 40
0.7811611563760813
 40
0.7811611563760813
 40
0.7811611563760813
 40
0.7811611563760813
 40
0.7811611563760813
 40
0.7811611563760813
 40
0.7811611563760813
 40
0.8132816487116482
 40
0.8132816487116482
 40
0.8132816487116482
 40
0.8132816487116482
 40
0.8132816487116482
 40
0.8132816487116482
 40
0.8132816487116482
 40
0.8465554683045965
 40
0.8465554683045965
 40
0.8465554683045965
 40
0.8465554683045965
 40
0.8465554683045965
 40
0.8465554683045965
 40
0.8465554683045965
 40
0.8998091203093468
 40
0.8998091203093468
 40
0.8998091203093468
 40
0.8998091203093468
 40
0.8998091203093468
 40
0.8998091203093468
 40
0.8998091203093468
 40
0.9409106241523307
 40
0.9409106241523307
 40
0.9409106241523307
 40
0.9409106241523307
 40
0.9409106241523307
 40
0.9409106241523307
 40
0.9409106241523307
 40
0.9648014329357614
 40
0.9648014329357614
 40
0.9648014329357614
 40
0.9648014329357614
 40
0.9648014329357614
 40
0.9648014329357614
 40
0.9648014329357614
 40
0.9812021213693912
 40
0.9812021213693912
 40
0.9812021213693912
 40
0.9812021213693912
 40
0.9812021213693912
 40
0.9812021213693912
 40
0.9812021213693912
 40
0.9896270874674522
 40
0.9896270874674522
 40
0.9896270874674522
 40
0.9896270874674522
 40
0.9896270874674522
 40
0.9896270874674522
 40
0.9896270874674522
 40
0.9941853384978874
 40
0.9941853384978874
 40
0.9941853384978874
 40
0.9941853384978874
 40
0.9941853384978874
 40
0.9941853384978874
 40
0.9941853384978874
 40
0.9964035174955752
 40
0.9964035174955752
 40
0.9964035174955752
 40
0.9964035174955752
 40
0.9964035174955752
 40
0.9964035174955752
 40
0.9964035174955752
 40
0.9977949645307468
 40
0.9977949645307468
 40
0.9977949645307468
 40
0.9977949645307468
 40
0.9977949645307468
 40
0.9977949645307468
 40
0.9977949645307468
 40
0.9988709565416569
 40
0.9988709565416569
 40
0.9988709565416569
 40
0.9988709565416569
 40
0.9988709565416569
 40
0.9988709565416569
 40
0.9988709565416569
 40
0.9992768070172436
 40
0.9992768070172436
 40
0.9992768070172436
 40
0.9992768070172436
 40
0.9992768070172436
 40
0.9992768070172436
 40
0.9992768070172436
 40
1.0
 40
1.0
 40
1.0
 40
1.0
 40
1.0
 40
1.0
 40
1.0
 40
1.0
 40
1.0
 10
56.536666029812686
 20
77.90353234192877
 30
41.0
 10
56.53661852744482
 20
77.90359479723156
 30
41.0
 10
56.53662852312454
 20
77.90352318612227
 30
41.0
 10
56.53665892132758
 20
77.90343574724386
 30
41.0
 10
56.53668469283304
 20
77.90339281908001
 30
41.0
 10
56.53669287472326
 20
77.90339683995511
 30
41.0
 10
56.53668257038392
 20
77.90339234803419
 30
41.0
 10
56.53666494950403
 20
77.90326598132299
 30
41.0
 10
56.536659216573554
 20
77.90185247155574
 30
41.0
 10
56.53665068305396
 20
77.89974844929702
 30
41.0
 10
56.53663470902665
 20
77.89580989749012
 30
41.0
 10
56.536608442966546
 20
77.88933374490509
 30
41.0
 10
56.536570736051964
 20
77.88003673836313
 30
41.0
 10
56.536522343662064
 20
77.86810512394057
 30
41.0
 10
56.53646546025429
 20
77.85407996648865
 30
41.0
 10
56.53629295335879
 20
77.81154671353593
 30
41.0
 10
56.53616437991231
 20
77.77984567974298
 30
41.0
 10
56.53602514631679
 20
77.74551628253457
 30
41.0
 10
56.53587995099997
 20
77.70971696494394
 30
41.0
 10
56.53573160998937
 20
77.67314204595874
 30
41.0
 10
56.5355814693084
 20
77.63612340074361
 30
41.0
 10
56.53542951238688
 20
77.59865694374493
 30
41.0
 10
56.53507269668265
 20
77.51068056133667
 30
41.0
 10
56.534868461973275
 20
77.46032450728138
 30
41.0
 10
56.53466253262928
 20
77.40955062455016
 30
41.0
 10
56.53445539307957
 20
77.3584783538601
 30
41.0
 10
56.53424737212801
 20
77.30718876497184
 30
41.0
 10
56.534038681609374
 20
77.25573408778361
 30
41.0
 10
56.53382940340065
 20
77.20413450990696
 30
41.0
 10
56.53326613862074
 20
77.065256099882
 30
41.0
 10
56.53291137923188
 20
76.97778672202685
 30
41.0
 10
56.5325556612955
 20
76.89008100497084
 30
41.0
 10
56.53219923153532
 20
76.80219978081635
 30
41.0
 10
56.5318422608299
 20
76.71418518134732
 30
41.0
 10
56.53148486353674
 20
76.62606540254735
 30
41.0
 10
56.53112709555508
 20
76.53785422687316
 30
41.0
 10
56.53006783758147
 20
76.27668387072184
 30
41.0
 10
56.52936552609764
 20
76.10352214343739
 30
41.0
 10
56.5286624030532
 20
75.93016031795663
 30
41.0
 10
56.527958684355376
 20
75.75665162837691
 30
41.0
 10
56.52725451788445
 20
75.58303253598245
 30
41.0
 10
56.526550001430046
 20
75.40932715172707
 30
41.0
 10
56.52584517936324
 20
75.23554641578697
 30
41.0
 10
56.523749441816776
 20
74.7188219397414
 30
41.0
 10
56.522357843626224
 20
74.37570987063849
 30
41.0
 10
56.52096557722562
 20
74.03243304783352
 30
41.0
 10
56.519572823336745
 20
73.68903603005958
 30
41.0
 10
56.518179705090006
 20
73.3455491763192
 30
41.0
 10
56.516786303433534
 20
73.00199244514577
 30
41.0
 10
56.51539265355934
 20
72.65837451347562
 30
41.0
 10
56.513140803949405
 20
72.10315908977336
 30
41.0
 10
56.512258529884136
 20
71.88561821532306
 30
41.0
 10
56.51135072793189
 20
71.66183509338413
 30
41.0
 10
56.51041767774029
 20
71.4316672172998
 30
41.0
 10
56.50945742214641
 20
71.19506030657695
 30
41.0
 10
56.50847206625839
 20
70.95206230686088
 30
41.0
 10
56.507461630903386
 20
70.70280992289824
 30
41.0
 10
56.50539325899261
 20
70.1922337550177
 30
41.0
 10
56.5043349484382
 20
69.93082372722506
 30
41.0
 10
56.5032532256176
 20
69.66340858953501
 30
41.0
 10
56.50214874514857
 20
69.39009092897615
 30
41.0
 10
56.50102216164881
 20
69.11097333257703
 30
41.0
 10
56.49987412973611
 20
68.8261583873663
 30
41.0
 10
56.498705304028185
 20
68.5357486803725
 30
41.0
 10
56.49385197615018
 20
67.32788386493445
 30
41.0
 10
56.490205601511406
 20
66.4158366313483
 30
41.0
 10
56.486580716579596
 20
65.50372948265633
 30
41.0
 10
56.4829793051377
 20
64.59157652161235
 30
41.0
 10
56.47940293101846
 20
63.679387583595684
 30
41.0
 10
56.47585298105855
 20
62.76716961688285
 30
41.0
 10
56.47233061406534
 20
61.85492647015515
 30
41.0
 10
56.463903594830256
 20
59.654444649059315
 30
41.0
 10
56.4590275136111
 20
58.36618666938199
 30
41.0
 10
56.45421191181239
 20
57.07789588307963
 30
41.0
 10
56.44945977096503
 20
55.789579057203724
 30
41.0
 10
56.444774096499394
 20
54.501241112953224
 30
41.0
 10
56.44015807912316
 20
53.212885813431576
 30
41.0
 10
56.43561519621431
 20
51.92451605882165
 30
41.0
 10
56.42744681713846
 20
49.56801602962021
 30
41.0
 10
56.4237972629751
 20
48.4998899868731
 30
41.0
 10
56.42020277408984
 20
47.431757035179544
 30
41.0
 10
56.41666569326572
 20
46.363618372856955
 30
41.0
 10
56.41318857166006
 20
45.295475054551595
 30
41.0
 10
56.4097742177465
 20
44.227328023692415
 30
41.0
 10
56.406425746257035
 20
43.159178144944946
 30
41.0
 10
56.400757622974034
 20
41.3128235432372
 30
41.0
 10
56.39840590640058
 20
40.534619780791374
 30
41.0
 10
56.396090645677
 20
39.75641527698235
 30
41.0
 10
56.393816348349986
 20
38.97821033563056
 30
41.0
 10
56.39158539922892
 20
38.200005262206574
 30
41.0
 10
56.38939554363861
 20
37.421800375282466
 30
41.0
 10
56.3872423159355
 20
36.643596003949774
 30
41.0
 10
56.382934628887874
 20
35.05928054329115
 30
41.0
 10
56.38078243158526
 20
34.253169520947424
 30
41.0
 10
56.37866832542589
 20
33.447059767302385
 30
41.0
 10
56.376590932270126
 20
32.640951659643655
 30
41.0
 10
56.37454897878593
 20
31.834845596362612
 30
41.0
 10
56.372541283442594
 20
31.0287420038997
 30
41.0
 10
56.370566743504305
 20
30.222641343689737
 30
41.0
 10
56.36551567784978
 20
28.126469093697406
 30
41.0
 10
56.36248929801138
 20
26.836403121248942
 30
41.0
 10
56.359540945078834
 20
25.546347986218557
 30
41.0
 10
56.356666813983864
 20
24.256306073354917
 30
41.0
 10
56.35386345808268
 20
22.966280350355518
 30
41.0
 10
56.35112769440163
 20
21.676274562297177
 30
41.0
 10
56.34845648806552
 20
20.386293637840286
 30
41.0
 10
56.34383273090392
 20
18.100791054675824
 30
41.0
 10
56.341855301349504
 20
17.105257926668305
 30
41.0
 10
56.33991312006931
 20
16.10974698953623
 30
41.0
 10
56.33800481263381
 20
15.114261794911087
 30
41.0
 10
56.33612888574189
 20
14.118808218982677
 30
41.0
 10
56.33428374167081
 20
13.123394425454215
 30
41.0
 10
56.33246749459327
 20
12.128031916119971
 30
41.0
 10
56.32963662503113
 20
10.554223172560272
 30
41.0
 10
56.32860481139215
 20
9.975733570845271
 30
41.0
 10
56.327581176567485
 20
9.397272307768953
 30
41.0
 10
56.32656507725252
 20
8.818843119152021
 30
41.0
 10
56.32555554906378
 20
8.240454079597718
 30
41.0
 10
56.32455140949478
 20
7.662116971546489
 30
41.0
 10
56.32355100303582
 20
7.083848981354114
 30
41.0
 10
56.32186424960847
 20
6.108779671060388
 30
41.0
 10
56.3211777547388
 20
5.711933328841759
 30
41.0
 10
56.32049135598124
 20
5.31514421618556
 30
41.0
 10
56.31980507211941
 20
4.918420523696234
 30
41.0
 10
56.31911893396052
 20
4.521780688556468
 30
41.0
 10
56.318432987520225
 20
4.125252670617094
 30
41.0
 10
56.31774730640597
 20
3.728877413384806
 30
41.0
 10
56.31670997640876
 20
3.129222865831615
 30
41.0
 10
56.316358062231494
 20
2.9257900746123617
 30
41.0
 10
56.31600627140708
 20
2.722428590604565
 30
41.0
 10
56.315654621803
 20
2.5191487425293957
 30
41.0
 10
56.31530315289386
 20
2.3159733496856454
 30
41.0
 10
56.31495192439155
 20
2.112936930027523
 30
41.0
 10
56.31460102352256
 20
1.910089906996573
 30
41.0
 10
56.31406100340797
 20
1.5979177743530695
 30
41.0
 10
56.313871576996185
 20
1.4884150996530607
 30
41.0
 10
56.313682320562556
 20
1.3790106850622
 30
41.0
 10
56.31349325756102
 20
1.26971808872171
 30
41.0
 10
56.31330444605153
 20
1.1605708736542777
 30
41.0
 10
56.31311597525362
 20
1.0516206154655237
 30
41.0
 10
56.31292797667925
 20
0.9429433378616086
 30
41.0
 10
56.31264953634579
 20
0.7819839395714432
 30
41.0
 10
56.31255858579486
 20
0.7294076990298954
 30
41.0
 10
56.31246783683064
 20
0.6769479907156732
 30
41.0
 10
56.31237732043096
 20
0.6246227221389091
 30
41.0
 10
56.312287100017826
 20
0.5724685559932698
 30
41.0
 10
56.31219727051054
 20
0.5205403627714205
 30
41.0
 10
56.31210796855559
 20
0.46891713433509885
 30
41.0
 10
56.31196386593019
 20
0.3856150078508076
 30
41.0
 10
56.311908682549685
 20
0.35371487469764773
 30
41.0
 10
56.31185385980049
 20
0.32202321338964524
 30
41.0
 10
56.311799453160965
 20
0.29057209480461665
 30
41.0
 10
56.311745601993096
 20
0.2594420804796549
 30
41.0
 10
56.31169252511356
 20
0.22875966278179405
 30
41.0
 10
56.3116405430127
 20
0.19871010939131573
 30
41.0
 10
56.311551234233086
 20
0.14708293580898157
 30
41.0
 10
56.31151330434307
 20
0.1251566142795184
 30
41.0
 10
56.31147653980749
 20
0.10390395508640893
 30
41.0
 10
56.31144143268762
 20
0.08360940637416547
 30
41.0
 10
56.31140879577054
 20
0.06474282029424216
 30
41.0
 10
56.31137971871157
 20
0.04793409914780966
 30
41.0
 10
56.31135555226867
 20
0.0339640824532097
 30
41.0
 10
56.311316332796366
 20
0.011292285646163691
 30
41.0
 10
56.31130249297068
 20
0.0034168699031482674
 30
41.0
 10
56.311297343970615
 20
-0.00036152673820311065
 30
41.0
 10
56.31129198802703
 20
-0.0010370660379521723
 30
41.0
 10
56.31130088499647
 20
-0.00020920476060837245
 30
41.0
 10
56.31129480131322
 20
0.0006973681627329142
 30
41.0
 10
56.311296008912855
 20
0.0004564435018750146
 30
41.0
 10
56.311305795651826
 20
-0.005201025717781249
 30
41.0
 10
56.31131531609223
 20
-0.010704554419163514
 30
41.0
 10
56.31133174278373
 20
-0.020200414146444245
 30
41.0
 10
56.31135637589997
 20
-0.03444020321848029
 30
41.0
 10
56.311387415780096
 20
-0.0523835820458487
 30
41.0
 10
56.31142333489304
 20
-0.07314752366762889
 30
41.0
 10
56.311462062431445
 20
-0.09553494576307742
 30
41.0
 10
56.3115415043185
 20
-0.14145831534432318
 30
41.0
 10
56.31158331271806
 20
-0.1656267063060497
 30
41.0
 10
56.311626514248566
 20
-0.19060043145420025
 30
41.0
 10
56.311670697761066
 20
-0.21614181581404068
 30
41.0
 10
56.31171558017181
 20
-0.24208721581472226
 30
41.0
 10
56.31176098210487
 20
-0.2683329387051643
 30
41.0
 10
56.31180682678617
 20
-0.2948346032493365
 30
41.0
 10
56.31193579010988
 20
-0.3693850777729164
 30
41.0
 10
56.31201960690595
 20
-0.41783747290968165
 30
41.0
 10
56.31210418729781
 20
-0.4667312837270625
 30
41.0
 10
56.31218931064229
 20
-0.5159389618486756
 30
41.0
 10
56.31227482744984
 20
-0.5653740911394145
 30
41.0
 10
56.31236064181107
 20
-0.6149812287921748
 30
41.0
 10
56.312446717766875
 20
-0.6647395877250482
 30
41.0
 10
56.312691399825724
 20
-0.806184171124384
 30
41.0
 10
56.31285045733867
 20
-0.8981313443423495
 30
41.0
 10
56.31301000026149
 20
-0.9903591209227187
 30
41.0
 10
56.31316989520566
 20
-1.082790392220815
 30
41.0
 10
56.313330051312164
 20
-1.1753726349304277
 30
41.0
 10
56.313490409173305
 20
-1.268071506970628
 30
41.0
 10
56.31365094376291
 20
-1.3608725413085914
 30
41.0
 10
56.31411065712284
 20
-1.6266213460263987
 30
41.0
 10
56.314410164064036
 20
-1.799758823797191
 30
41.0
 10
56.31471001720235
 20
-1.9730964294213837
 30
41.0
 10
56.31501012443593
 20
-2.1465809212091997
 30
41.0
 10
56.315310422681904
 20
-2.32017583248709
 30
41.0
 10
56.315610870225065
 20
-2.4938570487042497
 30
41.0
 10
56.31591144813734
 20
-2.667613628087347
 30
41.0
 10
56.31680519435477
 20
-3.184265980835132
 30
41.0
 10
56.31739865389257
 20
-3.527330108530297
 30
41.0
 10
56.3179923984773
 20
-3.8705590147454796
 30
41.0
 10
56.31858635101651
 20
-4.213908134237911
 30
41.0
 10
56.31918045898477
 20
-4.5573471033773885
 30
41.0
 10
56.31977468785086
 20
-4.900855960548487
 30
41.0
 10
56.32036902260272
 20
-5.244426027611418
 30
41.0
 10
56.32132934443721
 20
-5.799564080800437
 30
41.0
 10
56.321705642332574
 20
-6.017074616548712
 30
41.0
 10
56.32209252651692
 20
-6.240826524511306
 30
41.0
 10
56.322491101202594
 20
-6.470962279447406
 30
41.0
 10
56.32289972305348
 20
-6.707536173303453
 30
41.0
 10
56.32332022007384
 20
-6.950500276363059
 30
41.0
 10
56.3237518221847
 20
-7.199717941862403
 30
41.0
 10
56.32463736422354
 20
-7.710223178721628
 30
41.0
 10
56.32509142908748
 20
-7.971596969433508
 30
41.0
 10
56.325556824278124
 20
-8.238975145479579
 30
41.0
 10
56.326033610983835
 20
-8.512255162758676
 30
41.0
 10
56.32652185039295
 20
-8.791334477169658
 30
41.0
 10
56.327021603693844
 20
-9.076110544611373
 30
41.0
 10
56.32753293207491
 20
-9.366480820982687
 30
41.0
 10
56.32966767969984
 20
-10.57419261717261
 30
41.0
 10
56.3312979414848
 20
-11.486126684072829
 30
41.0
 10
56.33295004271507
 20
-12.398120553393628
 30
41.0
 10
56.33462588558642
 20
-13.310160108673728
 30
41.0
 10
56.33632697691475
 20
-14.22223550357797
 30
41.0
 10
56.33805466315244
 20
-15.1343397804734
 30
41.0
 10
56.33981008056604
 20
-16.046469083697765
 30
41.0
 10
56.344114044739264
 20
-18.2467201143499
 30
41.0
 10
56.34669128035013
 20
-19.534860989399718
 30
41.0
 10
56.349329192912265
 20
-20.82303433178778
 30
41.0
 10
56.35203072391908
 20
-22.111233355660087
 30
41.0
 10
56.354798849209914
 20
-23.399453121439233
 30
41.0
 10
56.35763673635779
 20
-24.68768984693805
 30
41.0
 10
56.36054784429262
 20
-25.9759406115527
 30
41.0
 10
56.366013348833675
 20
-28.332273145017293
 30
41.0
 10
56.368543667827396
 20
-29.400350819555033
 30
41.0
 10
56.371129096643294
 20
-30.468435089817135
 30
41.0
 10
56.37377197010188
 20
-31.536524743786387
 30
41.0
 10
56.376474832031036
 20
-32.60461871201963
 30
41.0
 10
56.379240483955506
 20
-33.672716034907715
 30
41.0
 10
56.38207203378623
 20
-34.74081582993545
 30
41.0
 10
56.38708650629683
 20
-36.58712058205913
 30
41.0
 10
56.389237363618356
 20
-37.36532476158991
 30
41.0
 10
56.39142468239547
 20
-38.14352947459856
 30
41.0
 10
56.393652967494916
 20
-38.921734391509446
 30
41.0
 10
56.39592460086731
 20
-39.69993919323416
 30
41.0
 10
56.398237324965415
 20
-40.47814357409178
 30
41.0
 10
56.40058667144252
 20
-41.256347230521676
 30
41.0
 10
56.405445695023936
 20
-42.8406947980402
 30
41.0
 10
56.4079576368468
 20
-43.64683862917372
 30
41.0
 10
56.41050766166132
 20
-44.452980974421344
 30
41.0
 10
56.413094388387904
 20
-45.259121464409
 30
41.0
 10
56.41571654074153
 20
-46.0652597080866
 30
41.0
 10
56.41837293416734
 20
-46.87139528585801
 30
41.0
 10
56.42106246277654
 20
-47.67752774271101
 30
41.0
 10
56.42813995503495
 20
-49.77383922851237
 30
41.0
 10
56.43257803358127
 20
-51.064012354392645
 30
41.0
 10
56.43709407186577
 20
-52.35417419889788
 30
41.0
 10
56.44168424920872
 20
-53.644322399550184
 30
41.0
 10
56.44634510033853
 20
-54.9344540091292
 30
41.0
 10
56.4510734194305
 20
-56.22456530180254
 30
41.0
 10
56.455866142151464
 20
-57.514651367741685
 30
41.0
 10
56.46446660252123
 20
-59.80037739333038
 30
41.0
 10
56.468249534837135
 20
-60.796028960156896
 30
41.0
 10
56.4720675830539
 20
-61.79165813877546
 30
41.0
 10
56.475919351801124
 20
-62.7872613861057
 30
41.0
 10
56.479803313498365
 20
-63.782832835881536
 30
41.0
 10
56.4837178229992
 20
-64.77836433550002
 30
41.0
 10
56.48766092787294
 20
-65.77384439663379
 30
41.0
 10
56.49393644293312
 20
-67.34784954207807
 30
41.0
 10
56.4962519162514
 20
-67.92641808149912
 30
41.0
 10
56.498575403217544
 20
-68.50495824078435
 30
41.0
 10
56.50090623896203
 20
-69.0834662884316
 30
41.0
 10
56.50324341250135
 20
-69.66193415682768
 30
41.0
 10
56.50558567333569
 20
-70.24035007241224
 30
41.0
 10
56.5079312668083
 20
-70.818696861085
 30
41.0
 10
56.51188650774563
 20
-71.79390027974472
 30
41.0
 10
56.51349626777376
 20
-72.19080192460595
 30
41.0
 10
56.51510579283749
 20
-72.5876463487055
 30
41.0
 10
56.516715054336
 20
-72.98442536256749
 30
41.0
 10
56.51832397641638
 20
-73.38112053184794
 30
41.0
 10
56.51993244334497
 20
-73.77770390097655
 30
41.0
 10
56.521540291866636
 20
-74.17413453247705
 30
41.0
 10
56.52397271769419
 20
-74.77387277899236
 30
41.0
 10
56.524797917720754
 20
-74.97733387175697
 30
41.0
 10
56.525622828582556
 20
-75.18072366814522
 30
41.0
 10
56.52644740839476
 20
-75.38403184102195
 30
41.0
 10
56.52727156462028
 20
-75.58723557448636
 30
41.0
 10
56.52809515728141
 20
-75.79030035568628
 30
41.0
 10
56.528917981900044
 20
-75.99317576851865
 30
41.0
 10
56.530184270265295
 20
-76.30539148138462
 30
41.0
 10
56.530628454076265
 20
-76.41490932029242
 30
41.0
 10
56.531072239422286
 20
-76.52432891378183
 30
41.0
 10
56.53151557132351
 20
-76.63363670604826
 30
41.0
 10
56.531958313673854
 20
-76.74279913881169
 30
41.0
 10
56.53240025732137
 20
-76.85176464362091
 30
41.0
 10
56.53284109397025
 20
-76.96045720715244
 30
41.0
 10
56.53349400649285
 20
-77.12143914008116
 30
41.0
 10
56.533707275097484
 20
-77.17402258888546
 30
41.0
 10
56.5339200711375
 20
-77.22648952229343
 30
41.0
 10
56.53413232199633
 20
-77.27882203597696
 30
41.0
 10
56.53434387899542
 20
-77.33098347178844
 30
41.0
 10
56.534554519616314
 20
-77.38291896563362
 30
41.0
 10
56.53476392351844
 20
-77.43454953445294
 30
41.0
 10
56.5351018283354
 20
-77.51786325366717
 30
41.0
 10
56.53523122642054
 20
-77.549767610134
 30
41.0
 10
56.53535977909655
 20
-77.58146352275995
 30
41.0
 10
56.53548735632741
 20
-77.6129189298949
 30
41.0
 10
56.53561363139779
 20
-77.6440532766962
 30
41.0
 10
56.53573809131036
 20
-77.67474007869062
 30
41.0
 10
56.53585998468753
 20
-77.70479407641187
 30
41.0
 10
56.53606940277158
 20
-77.75642814191652
 30
41.0
 10
56.53615834155651
 20
-77.77835686440395
 30
41.0
 10
56.53624454857608
 20
-77.79961204352892
 30
41.0
 10
56.53632687042916
 20
-77.81990929714206
 30
41.0
 10
56.536403401257864
 20
-77.83877871730671
 30
41.0
 10
56.536471586020696
 20
-77.85559033377672
 30
41.0
 10
56.53652825640144
 20
-77.86956296735039
 30
41.0
 10
56.53658880679899
 20
-77.88449225680003
 30
41.0
 10
56.53660315676234
 20
-77.88803037983938
 30
41.0
 10
56.53661544851162
 20
-77.8910610301773
 30
41.0
 10
56.53662585755343
 20
-77.89362748067983
 30
41.0
 10
56.53663455939442
 20
-77.89577300421294
 30
41.0
 10
56.53664172954121
 20
-77.89754087364265
 30
41.0
 10
56.536647543500415
 20
-77.898974361835
 30
41.0
 10
56.53666043290878
 20
-77.90215237083434
 30
41.0
 10
56.53665577670556
 20
-77.90202370159841
 30
41.0
 10
56.53666517159433
 20
-77.90248074109516
 30
41.0
 10
56.53667021446659
 20
-77.90327717952573
 30
41.0
 10
56.53666241774598
 20
-77.90364992673531
 30
41.0
 10
56.53665846499644
 20
-77.90353502949559
 30
41.0
 10
56.53667544007261
 20
-77.90351996947956
 30
41.0
 10
56.536666029812686
 20
-77.90353234192877
 30
41.0
  0
ENDSEC
  0
SECTION
  2
OBJECTS
  0
DICTIONARY
  5
A
330
0
100
AcDbDictionary
281
1
  3
ACAD_COLOR
350
B
  3
ACAD_GROUP
350
C
  3
ACAD_LAYOUT
350
D
  3
ACAD_MATERIAL
350
E
  3
ACAD_MLEADERSTYLE
350
F
  3
ACAD_MLINESTYLE
350
10
  3
ACAD_PLOTSETTINGS
350
11
  3
ACAD_PLOTSTYLENAME
350
12
  3
ACAD_SCALELIST
350
14
  3
ACAD_TABLESTYLE
350
15
  3
ACAD_VISUALSTYLE
350
16
  3
EZDXF_META
350
2D
  0
DICTIONARY
  5
B
330
A
100
AcDbDictionary
281
1
  0
DICTIONARY
  5
C
330
A
100
AcDbDictionary
281
1
  0
DICTIONARY
  5
D
330
A
100
AcDbDictionary
281
1
  3
Model
350
1A
  3
Layout1
350
1E
  0
DICTIONARY
  5
E
330
A
100
AcDbDictionary
281
1
  3
ByBlock
350
1F
  3
ByLayer
350
20
  3
Global
350
21
  0
DICTIONARY
  5
F
330
A
100
AcDbDictionary
281
1
  3
Standard
350
2C
  0
DICTIONARY
  5
10
330
A
100
AcDbDictionary
281
1
  3
Standard
350
22
  0
DICTIONARY
  5
11
330
A
100
AcDbDictionary
281
1
  0
ACDBDICTIONARYWDFLT
  5
12
330
A
100
AcDbDictionary
281
1
  3
Normal
350
13
100
AcDbDictionaryWithDefault
340
13
  0
ACDBPLACEHOLDER
  5
13
330
12
  0
DICTIONARY
  5
14
330
A
100
AcDbDictionary
281
1
  0
DICTIONARY
  5
15
330
A
100
AcDbDictionary
281
1
  0
DICTIONARY
  5
16
330
A
100
AcDbDictionary
281
1
  0
LAYOUT
  5
1A
330
D
100
AcDbPlotSettings
  1

  2
Adobe PDF
  4
A3
  6

 40
7.5
 41
20.0
 42
7.5
 43
20.0
 44
420.0
 45
297.0
 46
0.0
 47
0.0
 48
0.0
 49
0.0
140
0.0
141
0.0
142
1.0
143
1.0
 70
1024
 72
1
 73
1
 74
5
  7

 75
16
 76
0
 77
2
 78
300
147
1.0
148
0.0
149
0.0
100
AcDbLayout
  1
Model
 70
1
 71
0
 10
0.0
 20
0.0
 11
420.0
 21
297.0
 12
0.0
 22
0.0
 32
0.0
 14
1e+20
 24
1e+20
 34
1e+20
 15
-1e+20
 25
-1e+20
 35
-1e+20
146
0.0
 13
0.0
 23
0.0
 33
0.0
 16
1.0
 26
0.0
 36
0.0
 17
0.0
 27
1.0
 37
0.0
 76
1
330
17
  0
LAYOUT
  5
1E
330
D
100
AcDbPlotSettings
  1

  2
Adobe PDF
  4
A3
  6

 40
7.5
 41
20.0
 42
7.5
 43
20.0
 44
420.0
 45
297.0
 46
0.0
 47
0.0
 48
0.0
 49
0.0
140
0.0
141
0.0
142
1.0
143
1.0
 70
0
 72
1
 73
1
 74
5
  7

 75
16
 76
0
 77
2
 78
300
147
1.0
148
0.0
149
0.0
100
AcDbLayout
  1
Layout1
 70
1
 71
1
 10
0.0
 20
0.0
 11
420.0
 21
297.0
 12
0.0
 22
0.0
 32
0.0
 14
1e+20
 24
1e+20
 34
1e+20
 15
-1e+20
 25
-1e+20
 35
-1e+20
146
0.0
 13
0.0
 23
0.0
 33
0.0
 16
1.0
 26
0.0
 36
0.0
 17
0.0
 27
1.0
 37
0.0
 76
1
330
1B
  0
MATERIAL
  5
1F
102
{ACAD_REACTORS
330
E
102
}
330
E
100
AcDbMaterial
  1
ByBlock
  2

 70
0
 40
1.0
 71
1
 41
1.0
 91
-1023410177
 42
1.0
 72
1
  3

 73
1
 74
1
 75
1
 44
0.5
 73
0
 45
1.0
 46
1.0
 77
1
  4

 78
1
 79
1
170
1
 48
1.0
171
1
  6

172
1
173
1
174
1
140
1.0
141
1.0
175
1
  7

176
1
177
1
178
1
143
1.0
179
1
  8

270
1
271
1
272
1
145
1.0
146
1.0
273
1
  9

274
1
275
1
276
1
 42
1.0
 72
1
  3

 73
1
 74
1
 75
1
 94
63
  0
MATERIAL
  5
20
102
{ACAD_REACTORS
330
E
102
}
330
E
100
AcDbMaterial
  1
ByLayer
  2

 70
0
 40
1.0
 71
1
 41
1.0
 91
-1023410177
 42
1.0
 72
1
  3

 73
1
 74
1
 75
1
 44
0.5
 73
0
 45
1.0
 46
1.0
 77
1
  4

 78
1
 79
1
170
1
 48
1.0
171
1
  6

172
1
173
1
174
1
140
1.0
141
1.0
175
1
  7

176
1
177
1
178
1
143
1.0
179
1
  8

270
1
271
1
272
1
145
1.0
146
1.0
273
1
  9

274
1
275
1
276
1
 42
1.0
 72
1
  3

 73
1
 74
1
 75
1
 94
63
  0
MATERIAL
  5
21
102
{ACAD_REACTORS
330
E
102
}
330
E
100
AcDbMaterial
  1
Global
  2

 70
0
 40
1.0
 71
1
 41
1.0
 91
-1023410177
 42
1.0
 72
1
  3

 73
1
 74
1
 75
1
 44
0.5
 73
0
 45
1.0
 46
1.0
 77
1
  4

 78
1
 79
1
170
1
 48
1.0
171
1
  6

172
1
173
1
174
1
140
1.0
141
1.0
175
1
  7

176
1
177
1
178
1
143
1.0
179
1
  8

270
1
271
1
272
1
145
1.0
146
1.0
273
1
  9

274
1
275
1
276
1
 42
1.0
 72
1
  3

 73
1
 74
1
 75
1
 94
63
  0
MLINESTYLE
  5
22
102
{ACAD_REACTORS
330
10
102
}
330
10
100
AcDbMlineStyle
  2
Standard
 70
0
  3

 62
256
 51
90.0
 52
90.0
 71
2
 49
0.5
 62
256
  6
BYLAYER
 49
-0.5
 62
256
  6
BYLAYER
  0
MLEADERSTYLE
  5
2C
102
{ACAD_REACTORS
330
F
102
}
330
F
100
AcDbMLeaderStyle
179
2
170
2
171
1
172
0
 90
2
 40
0.0
 41
0.0
173
1
 91
-1056964608
 92
-2
290
1
 42
2.0
291
1
 43
8.0
  3
Standard
 44
4.0
300

342
29
174
1
175
1
176
0
178
1
 93
-1056964608
 45
4.0
292
0
297
0
 46
4.0
 94
-1056964608
 47
1.0
 49
1.0
140
1.0
294
1
141
0.0
177
0
142
1.0
295
0
296
0
143
3.75
271
0
272
9
273
9
  0
DICTIONARY
  5
2D
330
A
100
AcDbDictionary
280
1
281
1
  3
CREATED_BY_EZDXF
350
2E
  3
WRITTEN_BY_EZDXF
350
4E
  0
DICTIONARYVAR
  5
2E
330
2D
100
DictionaryVariables
280
0
  1
0.17 @ 2022-02-15T16:17:51.352096+00:00
  0
DICTIONARYVAR
  5
4E
330
2D
100
DictionaryVariables
280
0
  1
0.17 @ 2022-02-15T16:17:51.394184+00:00
  0
ENDSEC
  0
EOF
