  0
SECTION
  2
HEADER
  9
$ACADVER
  1
AC1027
  9
$ACADMAINTVER
 70
105
  9
$DWGCODEPAGE
  3
ANSI_1252
  9
$LASTSAVEDBY
  1
ezdxf
  9
$REQUIREDVERSIONS
160
0
  9
$INSBASE
 10
0.0
 20
0.0
 30
0.0
  9
$EXTMIN
 10
1e+20
 20
1e+20
 30
1e+20
  9
$EXTMAX
 10
-1e+20
 20
-1e+20
 30
-1e+20
  9
$LIMMIN
 10
0.0
 20
0.0
  9
$LIMMAX
 10
420.0
 20
297.0
  9
$ORTHOMODE
 70
0
  9
$REGENMODE
 70
1
  9
$FILLMODE
 70
1
  9
$QTEXTMODE
 70
0
  9
$MIRRTEXT
 70
1
  9
$LTSCALE
 40
1.0
  9
$ATTMODE
 70
1
  9
$TEXTSIZE
 40
2.5
  9
$TRACEWID
 40
1.0
  9
$TEXTSTYLE
  7
Standard
  9
$CLAYER
  8
0
  9
$CELTYPE
  6
ByLayer
  9
$CECOLOR
 62
256
  9
$CELTSCALE
 40
1.0
  9
$DISPSILH
 70
0
  9
$DIMSCALE
 40
1.0
  9
$DIMASZ
 40
2.5
  9
$DIMEXO
 40
0.625
  9
$DIMDLI
 40
3.75
  9
$DIMRND
 40
0.0
  9
$DIMDLE
 40
0.0
  9
$DIMEXE
 40
1.25
  9
$DIMTP
 40
0.0
  9
$DIMTM
 40
0.0
  9
$DIMTXT
 40
2.5
  9
$DIMCEN
 40
2.5
  9
$DIMTSZ
 40
0.0
  9
$DIMTOL
 70
0
  9
$DIMLIM
 70
0
  9
$DIMTIH
 70
0
  9
$DIMTOH
 70
0
  9
$DIMSE1
 70
0
  9
$DIMSE2
 70
0
  9
$DIMTAD
 70
1
  9
$DIMZIN
 70
8
  9
$DIMBLK
  1

  9
$DIMASO
 70
1
  9
$DIMSHO
 70
1
  9
$DIMPOST
  1

  9
$DIMAPOST
  1

  9
$DIMALT
 70
0
  9
$DIMALTD
 70
3
  9
$DIMALTF
 40
0.03937007874
  9
$DIMLFAC
 40
1.0
  9
$DIMTOFL
 70
1
  9
$DIMTVP
 40
0.0
  9
$DIMTIX
 70
0
  9
$DIMSOXD
 70
0
  9
$DIMSAH
 70
0
  9
$DIMBLK1
  1

  9
$DIMBLK2
  1

  9
$DIMSTYLE
  2
ISO-25
  9
$DIMCLRD
 70
0
  9
$DIMCLRE
 70
0
  9
$DIMCLRT
 70
0
  9
$DIMTFAC
 40
1.0
  9
$DIMGAP
 40
0.625
  9
$DIMJUST
 70
0
  9
$DIMSD1
 70
0
  9
$DIMSD2
 70
0
  9
$DIMTOLJ
 70
0
  9
$DIMTZIN
 70
8
  9
$DIMALTZ
 70
0
  9
$DIMALTTZ
 70
0
  9
$DIMUPT
 70
0
  9
$DIMDEC
 70
2
  9
$DIMTDEC
 70
2
  9
$DIMALTU
 70
2
  9
$DIMALTTD
 70
3
  9
$DIMTXSTY
  7
Standard
  9
$DIMAUNIT
 70
0
  9
$DIMADEC
 70
0
  9
$DIMALTRND
 40
0.0
  9
$DIMAZIN
 70
0
  9
$DIMDSEP
 70
44
  9
$DIMATFIT
 70
3
  9
$DIMFRAC
 70
0
  9
$DIMLDRBLK
  1

  9
$DIMLUNIT
 70
2
  9
$DIMLWD
 70
-2
  9
$DIMLWE
 70
-2
  9
$DIMTMOVE
 70
0
  9
$DIMFXL
 40
1.0
  9
$DIMFXLON
 70
0
  9
$DIMJOGANG
 40
0.785398163397
  9
$DIMTFILL
 70
0
  9
$DIMTFILLCLR
 70
0
  9
$DIMARCSYM
 70
0
  9
$DIMLTYPE
  6

  9
$DIMLTEX1
  6

  9
$DIMLTEX2
  6

  9
$DIMTXTDIRECTION
 70
0
  9
$LUNITS
 70
2
  9
$LUPREC
 70
4
  9
$SKETCHINC
 40
1.0
  9
$FILLETRAD
 40
10.0
  9
$AUNITS
 70
0
  9
$AUPREC
 70
2
  9
$MENU
  1
.
  9
$ELEVATION
 40
0.0
  9
$PELEVATION
 40
0.0
  9
$THICKNESS
 40
0.0
  9
$LIMCHECK
 70
0
  9
$CHAMFERA
 40
0.0
  9
$CHAMFERB
 40
0.0
  9
$CHAMFERC
 40
0.0
  9
$CHAMFERD
 40
0.0
  9
$SKPOLY
 70
0
  9
$TDCREATE
 40
2459626.728483796
  9
$TDUCREATE
 40
2458532.153996898
  9
$TDUPDATE
 40
2459626.728483796
  9
$TDUUPDATE
 40
2458532.1544311
  9
$TDINDWG
 40
0.0
  9
$TDUSRTIMER
 40
0.0
  9
$USRTIMER
 70
1
  9
$ANGBASE
 50
0.0
  9
$ANGDIR
 70
0
  9
$PDMODE
 70
0
  9
$PDSIZE
 40
0.0
  9
$PLINEWID
 40
0.0
  9
$SPLFRAME
 70
0
  9
$SPLINETYPE
 70
6
  9
$SPLINESEGS
 70
8
  9
$HANDSEED
  5
6F
  9
$SURFTAB1
 70
6
  9
$SURFTAB2
 70
6
  9
$SURFTYPE
 70
6
  9
$SURFU
 70
6
  9
$SURFV
 70
6
  9
$UCSBASE
  2

  9
$UCSNAME
  2

  9
$UCSORG
 10
0.0
 20
0.0
 30
0.0
  9
$UCSXDIR
 10
1.0
 20
0.0
 30
0.0
  9
$UCSYDIR
 10
0.0
 20
1.0
 30
0.0
  9
$UCSORTHOREF
  2

  9
$UCSORTHOVIEW
 70
0
  9
$UCSORGTOP
 10
0.0
 20
0.0
 30
0.0
  9
$UCSORGBOTTOM
 10
0.0
 20
0.0
 30
0.0
  9
$UCSORGLEFT
 10
0.0
 20
0.0
 30
0.0
  9
$UCSORGRIGHT
 10
0.0
 20
0.0
 30
0.0
  9
$UCSORGFRONT
 10
0.0
 20
0.0
 30
0.0
  9
$UCSORGBACK
 10
0.0
 20
0.0
 30
0.0
  9
$PUCSBASE
  2

  9
$PUCSNAME
  2

  9
$PUCSORG
 10
0.0
 20
0.0
 30
0.0
  9
$PUCSXDIR
 10
1.0
 20
0.0
 30
0.0
  9
$PUCSYDIR
 10
0.0
 20
1.0
 30
0.0
  9
$PUCSORTHOREF
  2

  9
$PUCSORTHOVIEW
 70
0
  9
$PUCSORGTOP
 10
0.0
 20
0.0
 30
0.0
  9
$PUCSORGBOTTOM
 10
0.0
 20
0.0
 30
0.0
  9
$PUCSORGLEFT
 10
0.0
 20
0.0
 30
0.0
  9
$PUCSORGRIGHT
 10
0.0
 20
0.0
 30
0.0
  9
$PUCSORGFRONT
 10
0.0
 20
0.0
 30
0.0
  9
$PUCSORGBACK
 10
0.0
 20
0.0
 30
0.0
  9
$USERI1
 70
0
  9
$USERI2
 70
0
  9
$USERI3
 70
0
  9
$USERI4
 70
0
  9
$USERI5
 70
0
  9
$USERR1
 40
0.0
  9
$USERR2
 40
0.0
  9
$USERR3
 40
0.0
  9
$USERR4
 40
0.0
  9
$USERR5
 40
0.0
  9
$WORLDVIEW
 70
1
  9
$SHADEDGE
 70
3
  9
$SHADEDIF
 70
70
  9
$TILEMODE
 70
1
  9
$MAXACTVP
 70
64
  9
$PINSBASE
 10
0.0
 20
0.0
 30
0.0
  9
$PLIMCHECK
 70
0
  9
$PEXTMIN
 10
1e+20
 20
1e+20
 30
1e+20
  9
$PEXTMAX
 10
-1e+20
 20
-1e+20
 30
-1e+20
  9
$PLIMMIN
 10
0.0
 20
0.0
  9
$PLIMMAX
 10
420.0
 20
297.0
  9
$UNITMODE
 70
0
  9
$VISRETAIN
 70
1
  9
$PLINEGEN
 70
0
  9
$PSLTSCALE
 70
1
  9
$TREEDEPTH
 70
3020
  9
$CMLSTYLE
  2
Standard
  9
$CMLJUST
 70
0
  9
$CMLSCALE
 40
20.0
  9
$PROXYGRAPHICS
 70
1
  9
$MEASUREMENT
 70
1
  9
$CELWEIGHT
370
-1
  9
$ENDCAPS
280
0
  9
$JOINSTYLE
280
0
  9
$LWDISPLAY
290
0
  9
$INSUNITS
 70
6
  9
$HYPERLINKBASE
  1

  9
$STYLESHEET
  1

  9
$XEDIT
290
1
  9
$CEPSNTYPE
380
0
  9
$PSTYLEMODE
290
1
  9
$FINGERPRINTGUID
  2
{12EBA546-1B8D-47CE-B884-F1AA47291665}
  9
$VERSIONGUID
  2
{00E33B59-6FF8-4D4C-8EA8-140962117BC3}
  9
$EXTNAMES
290
1
  9
$PSVPSCALE
 40
0.0
  9
$OLESTARTUP
290
0
  9
$SORTENTS
280
127
  9
$INDEXCTL
280
0
  9
$HIDETEXT
280
1
  9
$XCLIPFRAME
280
0
  9
$HALOGAP
280
0
  9
$OBSCOLOR
 70
257
  9
$OBSLTYPE
280
0
  9
$INTERSECTIONDISPLAY
280
0
  9
$INTERSECTIONCOLOR
 70
257
  9
$DIMASSOC
280
2
  9
$PROJECTNAME
  1

  9
$CAMERADISPLAY
290
0
  9
$LENSLENGTH
 40
50.0
  9
$CAMERAHEIGHT
 40
0.0
  9
$STEPSPERSEC
 40
24.0
  9
$STEPSIZE
 40
100.0
  9
$3DDWFPREC
 40
2.0
  9
$PSOLWIDTH
 40
0.005
  9
$PSOLHEIGHT
 40
0.08
  9
$LOFTANG1
 40
1.570796326795
  9
$LOFTANG2
 40
1.570796326795
  9
$LOFTMAG1
 40
0.0
  9
$LOFTMAG2
 40
0.0
  9
$LOFTPARAM
 70
7
  9
$LOFTNORMALS
280
1
  9
$LATITUDE
 40
37.795
  9
$LONGITUDE
 40
-122.394
  9
$NORTHDIRECTION
 40
0.0
  9
$TIMEZONE
 70
-8000
  9
$LIGHTGLYPHDISPLAY
280
1
  9
$TILEMODELIGHTSYNCH
280
1
  9
$CMATERIAL
347
20
  9
$SOLIDHIST
280
0
  9
$SHOWHIST
280
1
  9
$DWFFRAME
280
2
  9
$DGNFRAME
280
2
  9
$REALWORLDSCALE
290
1
  9
$INTERFERECOLOR
 62
256
  9
$CSHADOW
280
0
  9
$SHADOWPLANELOCATION
 40
0.0
  0
ENDSEC
  0
SECTION
  2
CLASSES
  0
CLASS
  1
ACDBDICTIONARYWDFLT
  2
AcDbDictionaryWithDefault
  3
ObjectDBX Classes
 90
0
 91
0
280
0
281
0
  0
CLASS
  1
SUN
  2
AcDbSun
  3
SCENEOE
 90
1153
 91
0
280
0
281
0
  0
CLASS
  1
VISUALSTYLE
  2
AcDbVisualStyle
  3
ObjectDBX Classes
 90
4095
 91
0
280
0
281
0
  0
CLASS
  1
MATERIAL
  2
AcDbMaterial
  3
ObjectDBX Classes
 90
1153
 91
0
280
0
281
0
  0
CLASS
  1
SCALE
  2
AcDbScale
  3
ObjectDBX Classes
 90
1153
 91
0
280
0
281
0
  0
CLASS
  1
TABLESTYLE
  2
AcDbTableStyle
  3
ObjectDBX Classes
 90
4095
 91
0
280
0
281
0
  0
CLASS
  1
MLEADERSTYLE
  2
AcDbMLeaderStyle
  3
ACDB_MLEADERSTYLE_CLASS
 90
4095
 91
0
280
0
281
0
  0
CLASS
  1
DICTIONARYVAR
  2
AcDbDictionaryVar
  3
ObjectDBX Classes
 90
0
 91
0
280
0
281
0
  0
CLASS
  1
CELLSTYLEMAP
  2
AcDbCellStyleMap
  3
ObjectDBX Classes
 90
1152
 91
0
280
0
281
0
  0
CLASS
  1
MENTALRAYRENDERSETTINGS
  2
AcDbMentalRayRenderSettings
  3
SCENEOE
 90
1024
 91
0
280
0
281
0
  0
CLASS
  1
ACDBDETAILVIEWSTYLE
  2
AcDbDetailViewStyle
  3
ObjectDBX Classes
 90
1025
 91
0
280
0
281
0
  0
CLASS
  1
ACDBSECTIONVIEWSTYLE
  2
AcDbSectionViewStyle
  3
ObjectDBX Classes
 90
1025
 91
0
280
0
281
0
  0
CLASS
  1
RASTERVARIABLES
  2
AcDbRasterVariables
  3
ISM
 90
0
 91
0
280
0
281
0
  0
CLASS
  1
ACDBPLACEHOLDER
  2
AcDbPlaceHolder
  3
ObjectDBX Classes
 90
0
 91
0
280
0
281
0
  0
CLASS
  1
LAYOUT
  2
AcDbLayout
  3
ObjectDBX Classes
 90
0
 91
0
280
0
281
0
  0
ENDSEC
  0
SECTION
  2
TABLES
  0
TABLE
  2
VPORT
  5
8
330
0
100
AcDbSymbolTable
 70
1
  0
VPORT
  5
23
330
8
100
AcDbSymbolTableRecord
100
AcDbViewportTableRecord
  2
*Active
 70
0
 10
0.0
 20
0.0
 11
1.0
 21
1.0
 12
344.2
 22
148.5
 13
0.0
 23
0.0
 14
0.5
 24
0.5
 15
0.5
 25
0.5
 16
0.0
 26
0.0
 36
1.0
 17
0.0
 27
0.0
 37
0.0
 40
297.0
 41
1.34
 42
50.0
 43
0.0
 44
0.0
 50
0.0
 51
0.0
 71
0
 72
1000
 73
1
 74
3
 75
0
 76
0
 77
0
 78
0
281
0
 65
0
146
0.0
  0
ENDTAB
  0
TABLE
  2
LTYPE
  5
2
330
0
100
AcDbSymbolTable
 70
3
  0
LTYPE
  5
24
330
2
100
AcDbSymbolTableRecord
100
AcDbLinetypeTableRecord
  2
ByBlock
 70
0
  3

 72
65
 73
0
 40
0.0
  0
LTYPE
  5
25
330
2
100
AcDbSymbolTableRecord
100
AcDbLinetypeTableRecord
  2
ByLayer
 70
0
  3

 72
65
 73
0
 40
0.0
  0
LTYPE
  5
26
330
2
100
AcDbSymbolTableRecord
100
AcDbLinetypeTableRecord
  2
Continuous
 70
0
  3

 72
65
 73
0
 40
0.0
  0
ENDTAB
  0
TABLE
  2
LAYER
  5
1
330
0
100
AcDbSymbolTable
 70
2
  0
LAYER
  5
27
330
1
100
AcDbSymbolTableRecord
100
AcDbLayerTableRecord
  2
0
 70
0
 62
7
  6
Continuous
370
-3
390
13
347
21
  0
LAYER
  5
28
330
1
100
AcDbSymbolTableRecord
100
AcDbLayerTableRecord
  2
Defpoints
 70
0
 62
7
  6
Continuous
290
0
370
-3
390
13
347
21
  0
ENDTAB
  0
TABLE
  2
STYLE
  5
5
330
0
100
AcDbSymbolTable
 70
1
  0
STYLE
  5
29
330
5
100
AcDbSymbolTableRecord
100
AcDbTextStyleTableRecord
  2
Standard
 70
0
 40
0.0
 41
1.0
 50
0.0
 71
0
 42
2.5
  3
txt
  4

  0
ENDTAB
  0
TABLE
  2
VIEW
  5
7
330
0
100
AcDbSymbolTable
 70
0
  0
ENDTAB
  0
TABLE
  2
UCS
  5
6
330
0
100
AcDbSymbolTable
 70
0
  0
ENDTAB
  0
TABLE
  2
APPID
  5
3
330
0
100
AcDbSymbolTable
 70
3
  0
APPID
  5
2A
330
3
100
AcDbSymbolTableRecord
100
AcDbRegAppTableRecord
  2
ACAD
 70
0
  0
APPID
  5
6C
330
3
100
AcDbSymbolTableRecord
100
AcDbRegAppTableRecord
  2
HATCHBACKGROUNDCOLOR
 70
0
  0
APPID
  5
6D
330
3
100
AcDbSymbolTableRecord
100
AcDbRegAppTableRecord
  2
EZDXF
 70
0
  0
ENDTAB
  0
TABLE
  2
DIMSTYLE
  5
4
330
0
100
AcDbSymbolTable
 70
1
100
AcDbDimStyleTable
  0
DIMSTYLE
105
2B
330
4
100
AcDbSymbolTableRecord
100
AcDbDimStyleTableRecord
  2
Standard
 70
0
 40
1.0
 41
2.5
 42
0.625
 43
3.75
 44
1.25
 45
0.0
 46
0.0
 47
0.0
 48
0.0
 49
2.5
140
2.5
141
2.5
142
0.0
143
0.03937007874
144
1.0
145
0.0
146
1.0
147
0.625
148
0.0
 69
0
 70
0
 71
0
 72
0
 73
0
 74
0
 75
0
 76
0
 77
1
 78
8
 79
0
170
0
171
3
172
1
173
0
174
0
175
0
176
0
177
0
178
0
179
0
271
0
272
2
273
2
274
3
275
0
276
0
277
2
278
44
279
0
280
0
281
0
282
0
283
0
284
8
285
0
286
0
288
0
289
3
290
0
371
-2
372
-2
  0
ENDTAB
  0
TABLE
  2
BLOCK_RECORD
  5
9
330
0
100
AcDbSymbolTable
 70
2
  0
BLOCK_RECORD
  5
17
330
9
100
AcDbSymbolTableRecord
100
AcDbBlockTableRecord
  2
*Model_Space
340
1A
 70
0
280
1
281
0
  0
BLOCK_RECORD
  5
1B
330
9
100
AcDbSymbolTableRecord
100
AcDbBlockTableRecord
  2
*Paper_Space
340
1E
 70
0
280
1
281
0
  0
ENDTAB
  0
ENDSEC
  0
SECTION
  2
BLOCKS
  0
BLOCK
  5
18
330
17
100
AcDbEntity
  8
0
100
AcDbBlockBegin
  2
*Model_Space
 70
0
 10
0.0
 20
0.0
 30
0.0
  3
*Model_Space
  1

  0
ENDBLK
  5
19
330
17
100
AcDbEntity
  8
0
100
AcDbBlockEnd
  0
BLOCK
  5
1C
330
1B
100
AcDbEntity
  8
0
100
AcDbBlockBegin
  2
*Paper_Space
 70
0
 10
0.0
 20
0.0
 30
0.0
  3
*Paper_Space
  1

  0
ENDBLK
  5
1D
330
1B
100
AcDbEntity
  8
0
100
AcDbBlockEnd
  0
ENDSEC
  0
SECTION
  2
ENTITIES
  0
SPLINE
  5
2F
330
17
100
AcDbEntity
  8
0
100
AcDbSpline
 70
0
 71
8
 72
39
 73
30
 74
0
 40
0.0
 40
0.0
 40
0.0
 40
0.0
 40
0.0
 40
0.0
 40
0.0
 40
0.0
 40
0.0
 40
0.06793512012087154
 40
0.06793512012087154
 40
0.06793512012087154
 40
0.06793512012087154
 40
0.06793512012087154
 40
0.06793512012087154
 40
0.06793512012087154
 40
0.37128686036812303
 40
0.37128686036812303
 40
0.37128686036812303
 40
0.37128686036812303
 40
0.37128686036812303
 40
0.37128686036812303
 40
0.37128686036812303
 40
0.7089253276888217
 40
0.7089253276888217
 40
0.7089253276888217
 40
0.7089253276888217
 40
0.7089253276888217
 40
0.7089253276888217
 40
0.7089253276888217
 40
1.0
 40
1.0
 40
1.0
 40
1.0
 40
1.0
 40
1.0
 40
1.0
 40
1.0
 40
1.0
 10
40.27879377064169
 20
180.66969140699803
 30
275.0
 10
40.14905260106855
 20
180.62499728476132
 30
275.0
 10
40.01948672674489
 20
180.57887011160523
 30
275.0
 10
39.890114486440076
 20
180.53132490037797
 30
275.0
 10
39.76095421892635
 20
180.48237666392524
 30
275.0
 10
39.63202426297877
 20
180.4320404150901
 30
275.0
 10
39.503342957375224
 20
180.3803311667131
 30
275.0
 10
39.37492864089647
 20
180.3272639316321
 30
275.0
 10
38.67466330238214
 20
180.02989497700383
 30
275.0
 10
38.11311921322944
 20
179.76224117580824
 30
275.0
 10
37.5627111023404
 20
179.47163988587525
 30
275.0
 10
37.02402943702723
 20
179.15954615565852
 30
275.0
 10
36.49768181324371
 20
178.82717658189668
 30
275.0
 10
35.98428131568116
 20
178.47553256935575
 30
275.0
 10
35.484452859158694
 20
178.1053927837034
 30
275.0
 10
34.45837711435035
 20
177.28528926847326
 30
275.0
 10
33.935783906134816
 20
176.8312361565623
 30
275.0
 10
33.43191225348605
 20
176.35582654666962
 30
275.0
 10
32.94799924589098
 20
175.85964005015873
 30
275.0
 10
32.48563963520325
 20
175.34317498642386
 30
275.0
 10
32.0467679371383
 20
174.80686810140676
 30
275.0
 10
31.63369440159562
 20
174.25106509861854
 30
275.0
 10
30.91777145008065
 20
173.1800993550311
 30
275.0
 10
30.6077665400563
 20
172.67018512959478
 30
275.0
 10
30.320910538918582
 20
172.1462355121762
 30
275.0
 10
30.059462661338983
 20
171.6085851495555
 30
275.0
 10
29.82613974474181
 20
171.05789047856604
 30
275.0
 10
29.624053854362458
 20
170.49515902926967
 30
275.0
 10
29.45662155223642
 20
169.92178931705897
 30
275.0
 10
29.32738100721992
 20
169.33964468298726
 30
275.0
  0
SPLINE
  5
30
330
17
100
AcDbEntity
  8
0
100
AcDbSpline
 70
0
 71
1
 72
4
 73
2
 74
0
 40
0.0
 40
0.0
 40
1.0
 40
1.0
 10
40.27879377726008
 20
180.66969138887177
 30
275.0
 10
40.27879377726008
 20
180.0999993999999
 30
275.0
  0
LINE
  5
31
330
17
100
AcDbEntity
  8
0
100
AcDbLine
 10
40.27879377769687
 20
180.1
 30
275.0
 11
48.61213652195157
 21
180.1
 31
275.0
  0
SPLINE
  5
32
330
17
100
AcDbEntity
  8
0
100
AcDbSpline
 70
0
 71
8
 72
53
 73
44
 74
0
 40
0.0
 40
0.0
 40
0.0
 40
0.0
 40
0.0
 40
0.0
 40
0.0
 40
0.0
 40
0.0
 40
0.03180620681716326
 40
0.03180620681716326
 40
0.03180620681716326
 40
0.03180620681716326
 40
0.03180620681716326
 40
0.03180620681716326
 40
0.03180620681716326
 40
0.15158252011559692
 40
0.15158252011559692
 40
0.15158252011559692
 40
0.15158252011559692
 40
0.15158252011559692
 40
0.15158252011559692
 40
0.15158252011559692
 40
0.33123314794834724
 40
0.33123314794834724
 40
0.33123314794834724
 40
0.33123314794834724
 40
0.33123314794834724
 40
0.33123314794834724
 40
0.33123314794834724
 40
0.5106523434914606
 40
0.5106523434914606
 40
0.5106523434914606
 40
0.5106523434914606
 40
0.5106523434914606
 40
0.5106523434914606
 40
0.5106523434914606
 40
0.8653395526768954
 40
0.8653395526768954
 40
0.8653395526768954
 40
0.8653395526768954
 40
0.8653395526768954
 40
0.8653395526768954
 40
0.8653395526768954
 40
1.0
 40
1.0
 40
1.0
 40
1.0
 40
1.0
 40
1.0
 40
1.0
 40
1.0
 40
1.0
 10
59.0679607075498
 20
157.89999999580542
 30
275.0
 10
59.04203422306293
 20
158.01644150865783
 30
275.0
 10
59.016001055195105
 20
158.1328592161841
 30
275.0
 10
58.98985998253008
 20
158.24925274390486
 30
275.0
 10
58.96360975521453
 20
158.36562170894157
 30
275.0
 10
58.93724909382678
 20
158.4819657197857
 30
275.0
 10
58.91077668818267
 20
158.59828437605478
 30
275.0
 10
58.88419119607512
 20
158.71457726823502
 30
275.0
 10
58.756944135228224
 20
159.2686829773348
 30
275.0
 10
58.65586847414566
 20
159.70138369210605
 30
275.0
 10
58.5542635682044
 20
160.12889004227924
 30
275.0
 10
58.45212872691435
 20
160.55114594841893
 30
275.0
 10
58.34946325978707
 20
160.9680953310983
 30
275.0
 10
58.24626647633571
 20
161.37968211089915
 30
275.0
 10
58.14253768607515
 20
161.78585020841174
 30
275.0
 10
57.88189601631478
 20
162.7875372412918
 30
275.0
 10
57.72429614126533
 20
163.37635185114473
 30
275.0
 10
57.565415221948385
 20
163.95257060058262
 30
275.0
 10
57.405659878005636
 20
164.51605164875403
 30
275.0
 10
57.244205876417546
 20
165.06646363010012
 30
275.0
 10
57.081884507577165
 20
165.60410595033224
 30
275.0
 10
56.918334275142584
 20
166.1290692574958
 30
275.0
 10
56.58909523074787
 20
167.15372543980183
 30
275.0
 10
56.419936609797595
 20
167.6642151730384
 30
275.0
 10
56.245859901780214
 20
168.17306665455834
 30
275.0
 10
56.06656547450345
 20
168.68011930248565
 30
275.0
 10
55.88172317163874
 20
169.18518070738784
 30
275.0
 10
55.690965102765595
 20
169.68802399533533
 30
275.0
 10
55.493875001032016
 20
170.188383905774
 30
275.0
 10
54.88689005176725
 20
171.6695748287136
 30
275.0
 10
54.45804482510319
 20
172.64019521320145
 30
275.0
 10
53.99899254301978
 20
173.5978318426368
 30
275.0
 10
53.50475785545675
 20
174.53984997401724
 30
275.0
 10
52.969780006568435
 20
175.46094679741773
 30
275.0
 10
52.38729942247019
 20
176.35273192474293
 30
275.0
 10
51.749276864037796
 20
177.20370417554008
 30
275.0
 10
50.77564504916638
 20
178.29883225337846
 30
275.0
 10
50.49820277936731
 20
178.59167640286728
 30
275.0
 10
50.21073278106957
 20
178.8749958575659
 30
275.0
 10
49.91279752750363
 20
179.14755828606184
 30
275.0
 10
49.60406117755509
 20
179.40793929312682
 30
275.0
 10
49.28432466870685
 20
179.65456555359603
 30
275.0
 10
48.95358530855387
 20
179.88578741378146
 30
275.0
 10
48.612136521222354
 20
180.09999999883772
 30
275.0
  0
LINE
  5
33
330
17
100
AcDbEntity
  8
0
100
AcDbLine
 10
40.27879377769687
 20
157.9
 30
275.0
 11
59.067960726388634
 21
157.9
 31
275.0
  0
SPLINE
  5
34
330
17
100
AcDbEntity
  8
0
100
AcDbSpline
 70
0
 71
1
 72
4
 73
2
 74
0
 40
0.0
 40
0.0
 40
1.0
 40
1.0
 10
40.27879377726008
 20
157.90000060000042
 30
275.0
 10
40.27879377726008
 20
154.09999939999918
 30
275.0
  0
LINE
  5
35
330
17
100
AcDbEntity
  8
0
100
AcDbLine
 10
40.27879377769687
 20
154.1
 30
275.0
 11
59.86655307672457
 21
154.1
 31
275.0
  0
SPLINE
  5
36
330
17
100
AcDbEntity
  8
0
100
AcDbSpline
 70
0
 71
8
 72
32
 73
23
 74
0
 40
0.0
 40
0.0
 40
0.0
 40
0.0
 40
0.0
 40
0.0
 40
0.0
 40
0.0
 40
0.0
 40
0.2257576436705957
 40
0.2257576436705957
 40
0.2257576436705957
 40
0.2257576436705957
 40
0.2257576436705957
 40
0.2257576436705957
 40
0.2257576436705957
 40
0.7556937973294509
 40
0.7556937973294509
 40
0.7556937973294509
 40
0.7556937973294509
 40
0.7556937973294509
 40
0.7556937973294509
 40
0.7556937973294509
 40
1.0
 40
1.0
 40
1.0
 40
1.0
 40
1.0
 40
1.0
 40
1.0
 40
1.0
 40
1.0
 10
63.33962029515129
 20
131.89999999737208
 30
275.0
 10
63.26027254836939
 20
132.52925561602765
 30
275.0
 10
63.18002144029542
 20
133.1583966202826
 30
275.0
 10
63.09884387313657
 20
133.78741855672524
 30
275.0
 10
63.016715464287316
 20
134.41631671448704
 30
275.0
 10
62.933610422663435
 20
135.04508611032878
 30
275.0
 10
62.84950140606685
 20
135.6737214714252
 30
275.0
 10
62.76435935623161
 20
136.3022172154341
 30
275.0
 10
62.475796033503215
 20
138.4055362882248
 30
275.0
 10
62.26757751397772
 20
139.8796887975314
 30
275.0
 10
62.05309819830773
 20
141.3529527204311
 30
275.0
 10
61.831897462029225
 20
142.82523257582164
 30
275.0
 10
61.60344659833613
 20
144.29640861637074
 30
275.0
 10
61.367126244559515
 20
145.76633331703553
 30
275.0
 10
61.122188244321066
 20
147.23482537215338
 30
275.0
 10
60.750381055095616
 20
149.37788811794667
 30
275.0
 10
60.63103244970806
 20
150.05375364807253
 30
275.0
 10
60.50956401649472
 20
150.7292394645546
 30
275.0
 10
60.385875862909
 20
151.4043228115995
 30
275.0
 10
60.259858478360684
 20
152.07897611892434
 30
275.0
 10
60.131391106548634
 20
152.7531666669334
 30
275.0
 10
60.00033959987324
 20
153.42685615063183
 30
275.0
 10
59.86655302747581
 20
154.0999999902118
 30
275.0
  0
LINE
  5
37
330
17
100
AcDbEntity
  8
0
100
AcDbLine
 10
40.27879377769687
 20
131.9
 30
275.0
 11
63.33962031599133
 21
131.9
 31
275.0
  0
SPLINE
  5
38
330
17
100
AcDbEntity
  8
0
100
AcDbSpline
 70
0
 71
1
 72
4
 73
2
 74
0
 40
0.0
 40
0.0
 40
1.0
 40
1.0
 10
40.27879377726008
 20
131.90000060000256
 30
275.0
 10
40.27879377726008
 20
128.09999939999764
 30
275.0
  0
LINE
  5
39
330
17
100
AcDbEntity
  8
0
100
AcDbLine
 10
40.27879377769687
 20
128.1
 30
275.0
 11
63.804702533343686
 21
128.1
 31
275.0
  0
SPLINE
  5
3A
330
17
100
AcDbEntity
  8
0
100
AcDbSpline
 70
0
 71
8
 72
25
 73
16
 74
0
 40
0.0
 40
0.0
 40
0.0
 40
0.0
 40
0.0
 40
0.0
 40
0.0
 40
0.0
 40
0.0
 40
0.48187449913537933
 40
0.48187449913537933
 40
0.48187449913537933
 40
0.48187449913537933
 40
0.48187449913537933
 40
0.48187449913537933
 40
0.48187449913537933
 40
1.0
 40
1.0
 40
1.0
 40
1.0
 40
1.0
 40
1.0
 40
1.0
 40
1.0
 40
1.0
 10
66.07012420940305
 20
105.89999999930838
 30
275.0
 10
65.95248509692755
 20
107.23904999231365
 30
275.0
 10
65.83261572571269
 20
108.57790346399437
 30
275.0
 10
65.71044772852295
 20
109.91654985650086
 30
275.0
 10
65.58590711942963
 20
111.25497759727111
 30
275.0
 10
65.45891358078123
 20
112.59317403465003
 30
275.0
 10
65.32937958318543
 20
113.93112535816175
 30
275.0
 10
65.19720933850294
 20
115.26881650343505
 30
275.0
 10
64.91723653875538
 20
118.04425811893145
 30
275.0
 10
64.76900674226721
 20
119.48195775057602
 30
275.0
 10
64.61747667979157
 20
120.91931273429498
 30
275.0
 10
64.46250249509258
 20
122.35630162402305
 30
275.0
 10
64.30392531850018
 20
123.79289839869232
 30
275.0
 10
64.1415687825232
 20
125.22907216013527
 30
275.0
 10
63.975235657927016
 20
126.66478672818992
 30
275.0
 10
63.8047025413325
 20
128.10000000094917
 30
275.0
  0
LINE
  5
3B
330
17
100
AcDbEntity
  8
0
100
AcDbLine
 10
40.27879377769687
 20
105.9
 30
275.0
 11
66.07012421727545
 21
105.9
 31
275.0
  0
SPLINE
  5
3C
330
17
100
AcDbEntity
  8
0
100
AcDbSpline
 70
0
 71
1
 72
4
 73
2
 74
0
 40
0.0
 40
0.0
 40
1.0
 40
1.0
 10
40.27879377726008
 20
105.90000060000206
 30
275.0
 10
40.27879377726008
 20
102.09999939999993
 30
275.0
  0
LINE
  5
3D
330
17
100
AcDbEntity
  8
0
100
AcDbLine
 10
40.27879377769687
 20
102.1
 30
275.0
 11
66.39621538711924
 21
102.1
 31
275.0
  0
SPLINE
  5
3E
330
17
100
AcDbEntity
  8
0
100
AcDbSpline
 70
0
 71
8
 72
32
 73
23
 74
0
 40
0.0
 40
0.0
 40
0.0
 40
0.0
 40
0.0
 40
0.0
 40
0.0
 40
0.0
 40
0.0
 40
0.470279174057032
 40
0.470279174057032
 40
0.470279174057032
 40
0.470279174057032
 40
0.470279174057032
 40
0.470279174057032
 40
0.470279174057032
 40
0.6878597024691118
 40
0.6878597024691118
 40
0.6878597024691118
 40
0.6878597024691118
 40
0.6878597024691118
 40
0.6878597024691118
 40
0.6878597024691118
 40
1.0
 40
1.0
 40
1.0
 40
1.0
 40
1.0
 40
1.0
 40
1.0
 40
1.0
 40
1.0
 10
68.02675310078575
 20
79.89999999736108
 30
275.0
 10
67.94354952578101
 20
81.20591534407863
 30
275.0
 10
67.85869563404009
 20
82.51172538945241
 30
275.0
 10
67.77218461475215
 20
83.8174272515588
 30
275.0
 10
67.68400940831238
 20
85.12301799311966
 30
275.0
 10
67.59416270632195
 20
86.42849462150241
 30
275.0
 10
67.5026369515881
 20
87.73385408872002
 30
275.0
 10
67.40942433812413
 20
89.03909329143097
 30
275.0
 10
67.27060665945929
 20
90.94803717264881
 30
275.0
 10
67.22633476441278
 20
91.55183892440584
 30
275.0
 10
67.18169816273893
 20
92.15561385748235
 30
275.0
 10
67.13669358654381
 20
92.75936147034434
 30
275.0
 10
67.09131746331059
 20
93.36308122865162
 30
275.0
 10
67.04556591589939
 20
93.96677256525795
 30
275.0
 10
66.99943476254731
 20
94.57043488021098
 30
275.0
 10
66.8861889011655
 20
96.04003693440993
 30
275.0
 10
66.81866825284396
 20
96.90594482878713
 30
275.0
 10
66.75034523915997
 20
97.77178961314195
 30
275.0
 10
66.6812068706605
 20
98.63756952871995
 30
275.0
 10
66.61123947734634
 20
99.503282666693
 30
275.0
 10
66.54042867268419
 20
100.36892696498118
 30
275.0
 10
66.46875930546769
 20
101.23450020395825
 30
275.0
 10
66.39621539952776
 20
102.10000000104007
 30
275.0
  0
LINE
  5
3F
330
17
100
AcDbEntity
  8
0
100
AcDbLine
 10
40.27879377769687
 20
79.9
 30
275.0
 11
68.02675314220545
 21
79.9
 31
275.0
  0
SPLINE
  5
40
330
17
100
AcDbEntity
  8
0
100
AcDbSpline
 70
0
 71
1
 72
4
 73
2
 74
0
 40
0.0
 40
0.0
 40
1.0
 40
1.0
 10
40.27879377726008
 20
79.90000060000001
 30
275.0
 10
40.27879377726008
 20
76.09999939999999
 30
275.0
  0
LINE
  5
41
330
17
100
AcDbEntity
  8
0
100
AcDbLine
 10
40.27879377769687
 20
76.1
 30
275.0
 11
68.26274341280754
 21
76.1
 31
275.0
  0
SPLINE
  5
42
330
17
100
AcDbEntity
  8
0
100
AcDbSpline
 70
0
 71
8
 72
25
 73
16
 74
0
 40
0.0
 40
0.0
 40
0.0
 40
0.0
 40
0.0
 40
0.0
 40
0.0
 40
0.0
 40
0.0
 40
0.9009174478446318
 40
0.9009174478446318
 40
0.9009174478446318
 40
0.9009174478446318
 40
0.9009174478446318
 40
0.9009174478446318
 40
0.9009174478446318
 40
1.0
 40
1.0
 40
1.0
 40
1.0
 40
1.0
 40
1.0
 40
1.0
 40
1.0
 40
1.0
 10
69.4016686708895
 20
53.899999999555355
 30
275.0
 10
69.29600751975252
 20
56.40113878846219
 30
275.0
 10
69.18460131940886
 20
58.9020341263992
 30
275.0
 10
69.06742149035847
 20
61.402669371590854
 30
275.0
 10
68.94443678217073
 20
63.90302759655003
 30
275.0
 10
68.81561318593657
 20
66.40309158479322
 30
275.0
 10
68.68091383330963
 20
68.90284382708833
 30
275.0
 10
68.54029888213597
 20
71.40226651723549
 30
275.0
 10
68.37760529260251
 20
74.17618885176643
 30
275.0
 10
68.36141312529034
 20
74.45103192205592
 30
275.0
 10
68.34514882995325
 20
74.72587073288705
 30
275.0
 10
68.32881234932066
 20
75.00070525878957
 30
275.0
 10
68.31240362563445
 20
75.27553547418478
 30
275.0
 10
68.29592260064895
 20
75.5503613533855
 30
275.0
 10
68.27936921563098
 20
75.8251828705961
 30
275.0
 10
68.2627434113598
 20
76.09999999991243
 30
275.0
  0
LINE
  5
43
330
17
100
AcDbEntity
  8
0
100
AcDbLine
 10
40.27879377769687
 20
53.9
 30
275.0
 11
69.40166868141473
 21
53.9
 31
275.0
  0
SPLINE
  5
44
330
17
100
AcDbEntity
  8
0
100
AcDbSpline
 70
0
 71
1
 72
4
 73
2
 74
0
 40
0.0
 40
0.0
 40
1.0
 40
1.0
 10
40.27879377726008
 20
53.90000060000026
 30
275.0
 10
40.27879377726008
 20
50.09999939999937
 30
275.0
  0
LINE
  5
45
330
17
100
AcDbEntity
  8
0
100
AcDbLine
 10
40.27879377769687
 20
50.1
 30
275.0
 11
69.55640003728753
 21
50.1
 31
275.0
  0
SPLINE
  5
46
330
17
100
AcDbEntity
  8
0
100
AcDbSpline
 70
0
 71
8
 72
18
 73
9
 74
0
 40
0.0
 40
0.0
 40
0.0
 40
0.0
 40
0.0
 40
0.0
 40
0.0
 40
0.0
 40
0.0
 40
1.0
 40
1.0
 40
1.0
 40
1.0
 40
1.0
 40
1.0
 40
1.0
 40
1.0
 40
1.0
 10
70.23122450634604
 20
27.899999999950417
 30
275.0
 10
70.17107115303432
 20
30.675665528919588
 30
275.0
 10
70.10404650732998
 20
33.451182407905335
 30
275.0
 10
70.0301336332707
 20
36.22653040615515
 30
275.0
 10
69.94931203711235
 20
39.00168887936232
 30
275.0
 10
69.86155760812747
 20
41.77663676720955
 30
275.0
 10
69.76684253445009
 20
44.55135259004315
 30
275.0
 10
69.66513519396727
 20
47.32581444467789
 30
275.0
 10
69.55640002025726
 20
50.09999999933251
 30
275.0
  0
LINE
  5
47
330
17
100
AcDbEntity
  8
0
100
AcDbLine
 10
40.27879377769687
 20
27.9
 30
275.0
 11
70.23122450863326
 21
27.9
 31
275.0
  0
SPLINE
  5
48
330
17
100
AcDbEntity
  8
0
100
AcDbSpline
 70
0
 71
1
 72
4
 73
2
 74
0
 40
0.0
 40
0.0
 40
1.0
 40
1.0
 10
40.27879377726008
 20
27.900000600000002
 30
275.0
 10
40.27879377726008
 20
24.099999399999998
 30
275.0
  0
LINE
  5
49
330
17
100
AcDbEntity
  8
0
100
AcDbLine
 10
40.27879377769687
 20
24.1
 30
275.0
 11
70.30794485467734
 21
24.1
 31
275.0
  0
SPLINE
  5
4A
330
17
100
AcDbEntity
  8
0
100
AcDbSpline
 70
0
 71
8
 72
25
 73
16
 74
0
 40
0.0
 40
0.0
 40
0.0
 40
0.0
 40
0.0
 40
0.0
 40
0.0
 40
0.0
 40
0.0
 40
0.1863114580867855
 40
0.1863114580867855
 40
0.1863114580867855
 40
0.1863114580867855
 40
0.1863114580867855
 40
0.1863114580867855
 40
0.1863114580867855
 40
1.0
 40
1.0
 40
1.0
 40
1.0
 40
1.0
 40
1.0
 40
1.0
 40
1.0
 40
1.0
 10
70.53197026255827
 20
1.9000000000399948
 30
275.0
 10
70.531200444284
 20
2.4170470887295625
 30
275.0
 10
70.53019392797158
 20
2.93409382468598
 30
275.0
 10
70.52895073530269
 20
3.4511400813298194
 30
275.0
 10
70.52747089375367
 20
3.9681857320524294
 30
275.0
 10
70.52575443140321
 20
4.485230650206423
 30
275.0
 10
70.52380136786873
 20
5.00227470910222
 30
275.0
 10
70.52161170137153
 20
5.5193177820106465
 30
275.0
 10
70.50858883382674
 20
8.294466264398086
 30
275.0
 10
70.49347909263145
 20
10.55254954846411
 30
275.0
 10
70.47385629809767
 20
12.810599795817755
 30
275.0
 10
70.44971906147204
 20
15.068607028940107
 30
275.0
 10
70.42106448065523
 20
17.326561091384818
 30
275.0
 10
70.38788813813767
 20
19.584451647565952
 30
275.0
 10
70.35018409171072
 20
21.842268182294188
 30
275.0
 10
70.30794485795343
 20
24.100000000061282
 30
275.0
  0
LINE
  5
4B
330
17
100
AcDbEntity
  8
0
100
AcDbLine
 10
40.27879377769687
 20
1.9
 30
275.0
 11
70.53197023569459
 21
1.9
 31
275.0
  0
SPLINE
  5
4C
330
17
100
AcDbEntity
  8
0
100
AcDbSpline
 70
0
 71
1
 72
4
 73
2
 74
0
 40
0.0
 40
0.0
 40
0.9999993684216398
 40
0.9999993684216398
 10
40.27879377726008
 20
1.9000006000000558
 30
275.0
 10
40.27879377726008
 20
-6.553790374438061e-17
 30
275.0
  0
SPLINE
  5
4D
330
17
100
AcDbEntity
  8
0
100
AcDbSpline
 70
0
 71
1
 72
4
 73
2
 74
0
 40
0.0
 40
0.0
 40
1.0
 40
1.0
 10
40.27879377726008
 20
-1.9000006000000011
 30
275.0
 10
40.27879377726008
 20
1.2000000211287443e-06
 30
275.0
  0
LINE
  5
4E
330
17
100
AcDbEntity
  8
0
100
AcDbLine
 10
40.27879377769668
 20
-1.9
 30
275.0
 11
70.5320339917414
 21
-1.9
 31
275.0
  0
SPLINE
  5
4F
330
17
100
AcDbEntity
  8
0
100
AcDbSpline
 70
0
 71
8
 72
25
 73
16
 74
0
 40
0.0
 40
0.0
 40
0.0
 40
0.0
 40
0.0
 40
0.0
 40
0.0
 40
0.0
 40
0.0
 40
0.8272081513468177
 40
0.8272081513468177
 40
0.8272081513468177
 40
0.8272081513468177
 40
0.8272081513468177
 40
0.8272081513468177
 40
0.8272081513468177
 40
1.0
 40
1.0
 40
1.0
 40
1.0
 40
1.0
 40
1.0
 40
1.0
 40
1.0
 40
1.0
 10
70.30872020164223
 20
-24.099999999883842
 30
275.0
 10
70.35159372679085
 20
-21.804757157955983
 30
275.0
 10
70.38977805527941
 20
-19.509426841435577
 30
275.0
 10
70.42328130450109
 20
-17.214020136397878
 30
275.0
 10
70.4521099451548
 20
-14.918547894255273
 30
275.0
 10
70.47626881983479
 20
-12.623020732821399
 30
275.0
 10
70.49576115533766
 20
-10.327449037153695
 30
275.0
 10
70.5105885696434
 20
-8.03184296021978
 30
275.0
 10
70.52287387518192
 20
-5.256688323446644
 30
275.0
 10
70.52479311289052
 20
-4.777163320224922
 30
275.0
 10
70.52650881541416
 20
-4.297637515090562
 30
275.0
 10
70.528020984602
 20
-3.8181110092442436
 30
275.0
 10
70.52932960753904
 20
-3.338583903794253
 30
275.0
 10
70.53043466523127
 20
-2.8590562997821616
 30
275.0
 10
70.53133613882702
 20
-2.3795282982046517
 30
275.0
 10
70.53203401337495
 20
-1.9000000000314903
 30
275.0
  0
LINE
  5
50
330
17
100
AcDbEntity
  8
0
100
AcDbLine
 10
40.27879377769668
 20
-24.1
 30
275.0
 11
70.3087202078596
 21
-24.1
 31
275.0
  0
SPLINE
  5
51
330
17
100
AcDbEntity
  8
0
100
AcDbSpline
 70
0
 71
1
 72
4
 73
2
 74
0
 40
0.0
 40
0.0
 40
1.0
 40
1.0
 10
40.27879377726008
 20
-27.900000600000034
 30
275.0
 10
40.27879377726008
 20
-24.099999399999938
 30
275.0
  0
LINE
  5
52
330
17
100
AcDbEntity
  8
0
100
AcDbLine
 10
40.27879377769668
 20
-27.9
 30
275.0
 11
70.23210902213233
 21
-27.9
 31
275.0
  0
SPLINE
  5
53
330
17
100
AcDbEntity
  8
0
100
AcDbSpline
 70
0
 71
8
 72
18
 73
9
 74
0
 40
0.0
 40
0.0
 40
0.0
 40
0.0
 40
0.0
 40
0.0
 40
0.0
 40
0.0
 40
0.0
 40
1.0
 40
1.0
 40
1.0
 40
1.0
 40
1.0
 40
1.0
 40
1.0
 40
1.0
 40
1.0
 10
69.55778457100854
 20
-50.10000000025158
 30
275.0
 10
69.66647564707384
 20
-47.325812928752946
 30
275.0
 10
69.76813275031896
 20
-44.551349686101176
 30
275.0
 10
69.86279187594599
 20
-41.77663287197277
 30
275.0
 10
69.95048508619975
 20
-39.001684564341474
 30
275.0
 10
70.03124064241462
 20
-36.22652632537435
 30
275.0
 10
70.10508310892786
 20
-33.45117920623199
 30
275.0
 10
70.17203343247836
 20
-30.675663750944643
 30
275.0
 10
70.23210900070973
 20
-27.899999999536313
 30
275.0
  0
LINE
  5
54
330
17
100
AcDbEntity
  8
0
100
AcDbLine
 10
40.27879377769668
 20
-50.1
 30
275.0
 11
69.55778456458711
 21
-50.1
 31
275.0
  0
SPLINE
  5
55
330
17
100
AcDbEntity
  8
0
100
AcDbSpline
 70
0
 71
1
 72
4
 73
2
 74
0
 40
0.0
 40
0.0
 40
1.0
 40
1.0
 10
40.27879377726008
 20
-53.9000006
 30
275.0
 10
40.27879377726008
 20
-50.0999994
 30
275.0
  0
LINE
  5
56
330
17
100
AcDbEntity
  8
0
100
AcDbLine
 10
40.27879377769666
 20
-53.9
 30
275.0
 11
69.40310857340147
 21
-53.9
 31
275.0
  0
SPLINE
  5
57
330
17
100
AcDbEntity
  8
0
100
AcDbSpline
 70
0
 71
8
 72
18
 73
9
 74
0
 40
0.0
 40
0.0
 40
0.0
 40
0.0
 40
0.0
 40
0.0
 40
0.0
 40
0.0
 40
0.0
 40
1.0
 40
1.0
 40
1.0
 40
1.0
 40
1.0
 40
1.0
 40
1.0
 40
1.0
 40
1.0
 10
68.26426702591712
 20
-76.09999999862593
 30
275.0
 10
68.43208289353164
 20
-73.32638802461928
 30
275.0
 10
68.59251287752167
 20
-70.55232920861275
 30
275.0
 10
68.7456184808538
 20
-67.77784937417287
 30
275.0
 10
68.89145638276366
 20
-65.00297378346147
 30
275.0
 10
69.03007868569752
 20
-62.22772714773849
 30
275.0
 10
69.1615331254483
 20
-59.452133636358454
 30
275.0
 10
69.28586324812673
 20
-56.67621688443301
 30
275.0
 10
69.40310855760806
 20
-53.899999999332984
 30
275.0
  0
LINE
  5
58
330
17
100
AcDbEntity
  8
0
100
AcDbLine
 10
40.27879377769666
 20
-76.1
 30
275.0
 11
68.26426704862698
 21
-76.1
 31
275.0
  0
SPLINE
  5
59
330
17
100
AcDbEntity
  8
0
100
AcDbSpline
 70
0
 71
1
 72
4
 73
2
 74
0
 40
0.0
 40
0.0
 40
1.0
 40
1.0
 10
40.27879377726008
 20
-79.90000060000018
 30
275.0
 10
40.27879377726008
 20
-76.09999939999999
 30
275.0
  0
LINE
  5
5A
330
17
100
AcDbEntity
  8
0
100
AcDbLine
 10
40.27879377769666
 20
-79.9
 30
275.0
 11
68.02824330195216
 21
-79.9
 31
275.0
  0
SPLINE
  5
5B
330
17
100
AcDbEntity
  8
0
100
AcDbSpline
 70
0
 71
8
 72
39
 73
30
 74
0
 40
0.0
 40
0.0
 40
0.0
 40
0.0
 40
0.0
 40
0.0
 40
0.0
 40
0.0
 40
0.0
 40
0.25674538514016443
 40
0.25674538514016443
 40
0.25674538514016443
 40
0.25674538514016443
 40
0.25674538514016443
 40
0.25674538514016443
 40
0.25674538514016443
 40
0.48048707740940644
 40
0.48048707740940644
 40
0.48048707740940644
 40
0.48048707740940644
 40
0.48048707740940644
 40
0.48048707740940644
 40
0.48048707740940644
 40
0.7042308265861061
 40
0.7042308265861061
 40
0.7042308265861061
 40
0.7042308265861061
 40
0.7042308265861061
 40
0.7042308265861061
 40
0.7042308265861061
 40
1.0
 40
1.0
 40
1.0
 40
1.0
 40
1.0
 40
1.0
 40
1.0
 40
1.0
 40
1.0
 10
66.39717672437635
 20
-102.09999999704347
 30
275.0
 10
66.45658199562482
 20
-101.39155950649732
 30
275.0
 10
66.51540080084717
 20
-100.68306969516482
 30
275.0
 10
66.57364188395142
 20
-99.97453187932857
 30
275.0
 10
66.63131361393347
 20
-99.26594731169408
 30
275.0
 10
66.68842400793596
 20
-98.55731718337682
 30
275.0
 10
66.7449807543072
 20
-97.8486426258892
 30
275.0
 10
66.80099123566006
 20
-97.13992471312756
 30
275.0
 10
66.9048032306467
 20
-95.81351278634955
 30
275.0
 10
66.95277964243039
 20
-95.19525142449122
 30
275.0
 10
67.0003922379059
 20
-94.57641795722621
 30
275.0
 10
67.04764146769804
 20
-93.95704996399061
 30
275.0
 10
67.09452778243241
 20
-93.33718502421456
 30
275.0
 10
67.14105163273545
 20
-92.71686071732235
 30
275.0
 10
67.18721346923445
 20
-92.09611462273229
 30
275.0
 10
67.27881443693266
 20
-90.8538483067914
 30
275.0
 10
67.3242532697702
 20
-90.23234822980125
 30
275.0
 10
67.36933058726092
 20
-89.61048939998153
 30
275.0
 10
67.41404660893261
 20
-88.98827647250003
 30
275.0
 10
67.4584014276499
 20
-88.36571344659698
 30
275.0
 10
67.50239500961436
 20
-87.74280366558513
 30
275.0
 10
67.5460271943644
 20
-87.1195498168496
 30
275.0
 10
67.64649741627287
 20
-85.67161608942811
 30
275.0
 10
67.7030272326928
 20
-84.8472321442339
 30
275.0
 10
67.7588890739823
 20
-84.02280281062001
 30
275.0
 10
67.81408482835346
 20
-83.19832879838064
 30
275.0
 10
67.86861634298353
 20
-82.37381081277913
 30
275.0
 10
67.92248542468732
 20
-81.54924955457633
 30
275.0
 10
67.97569384056253
 20
-80.7246457200581
 30
275.0
 10
68.02824331860872
 20
-79.90000000106143
 30
275.0
  0
LINE
  5
5C
330
17
100
AcDbEntity
  8
0
100
AcDbLine
 10
40.27879377769668
 20
-102.1
 30
275.0
 11
66.39717675963517
 21
-102.1
 31
275.0
  0
SPLINE
  5
5D
330
17
100
AcDbEntity
  8
0
100
AcDbSpline
 70
0
 71
1
 72
4
 73
2
 74
0
 40
0.0
 40
0.0
 40
1.0
 40
1.0
 10
40.27879377726008
 20
-105.90000060000003
 30
275.0
 10
40.27879377726008
 20
-102.09999939999999
 30
275.0
  0
LINE
  5
5E
330
17
100
AcDbEntity
  8
0
100
AcDbLine
 10
40.27879377769668
 20
-105.9
 30
275.0
 11
66.07094131238777
 21
-105.9
 31
275.0
  0
SPLINE
  5
5F
330
17
100
AcDbEntity
  8
0
100
AcDbSpline
 70
0
 71
8
 72
25
 73
16
 74
0
 40
0.0
 40
0.0
 40
0.0
 40
0.0
 40
0.0
 40
0.0
 40
0.0
 40
0.0
 40
0.0
 40
0.892009317653509
 40
0.892009317653509
 40
0.892009317653509
 40
0.892009317653509
 40
0.892009317653509
 40
0.892009317653509
 40
0.892009317653509
 40
1.0
 40
1.0
 40
1.0
 40
1.0
 40
1.0
 40
1.0
 40
1.0
 40
1.0
 40
1.0
 10
63.80447999266775
 20
-128.10000000019733
 30
275.0
 10
64.09819854025632
 20
-125.62912548762338
 30
275.0
 10
64.37946690417232
 20
-123.15676992161944
 30
275.0
 10
64.64942588703899
 20
-120.68313283819732
 30
275.0
 10
64.90898527646283
 20
-118.20837594889777
 30
275.0
 10
65.1589006562419
 20
-115.73263135353564
 30
275.0
 10
65.39981351441394
 20
-113.25600580609597
 30
275.0
 10
65.63227262588025
 20
-110.77858299042984
 30
275.0
 10
65.88393150098126
 20
-108.00040884024446
 30
275.0
 10
65.91099138656251
 20
-107.70038129615517
 30
275.0
 10
65.9379351864359
 20
-107.40034325855729
 30
275.0
 10
65.96476372761198
 20
-107.10029485354545
 30
275.0
 10
65.99147782207535
 20
-106.80023620491141
 30
275.0
 10
66.01807826709958
 20
-106.50016743417109
 30
275.0
 10
66.04456584556223
 20
-106.20008866059177
 30
275.0
 10
66.07094132625991
 20
-105.90000000121924
 30
275.0
  0
LINE
  5
60
330
17
100
AcDbEntity
  8
0
100
AcDbLine
 10
40.27879377769668
 20
-128.1
 30
275.0
 11
63.804479991008
 21
-128.1
 31
275.0
  0
SPLINE
  5
61
330
17
100
AcDbEntity
  8
0
100
AcDbSpline
 70
0
 71
1
 72
4
 73
2
 74
0
 40
0.0
 40
0.0
 40
1.0
 40
1.0
 10
40.27879377726008
 20
-131.9000006
 30
275.0
 10
40.27879377726008
 20
-128.09999939999992
 30
275.0
  0
LINE
  5
62
330
17
100
AcDbEntity
  8
0
100
AcDbLine
 10
40.27879377769668
 20
-131.9
 30
275.0
 11
63.339200954957285
 21
-131.9
 31
275.0
  0
SPLINE
  5
63
330
17
100
AcDbEntity
  8
0
100
AcDbSpline
 70
0
 71
8
 72
25
 73
16
 74
0
 40
0.0
 40
0.0
 40
0.0
 40
0.0
 40
0.0
 40
0.0
 40
0.0
 40
0.0
 40
0.0
 40
0.3455009517167368
 40
0.3455009517167368
 40
0.3455009517167368
 40
0.3455009517167368
 40
0.3455009517167368
 40
0.3455009517167368
 40
0.3455009517167368
 40
1.0
 40
1.0
 40
1.0
 40
1.0
 40
1.0
 40
1.0
 40
1.0
 40
1.0
 40
1.0
 10
59.865097938285075
 20
-154.10000001257683
 30
275.0
 10
60.05433301209743
 20
-153.14802733642892
 30
275.0
 10
60.23810043283663
 20
-152.19496291460936
 30
275.0
 10
60.41682786620619
 20
-151.24092798366118
 30
275.0
 10
60.59087494969311
 20
-150.28602386581375
 30
275.0
 10
60.76055104254763
 20
-149.3303353242315
 30
275.0
 10
60.926127923597825
 20
-148.37393294995113
 30
275.0
 10
61.0878474368991
 20
-147.41687458050657
 30
275.0
 10
61.545376273024715
 20
-144.6450476853685
 30
275.0
 10
61.83175007032131
 20
-142.82874132837375
 30
275.0
 10
62.106506846434144
 20
-141.0106107198409
 30
275.0
 10
62.37077255454981
 20
-139.19091231054813
 30
275.0
 10
62.62546199741793
 20
-137.36985298883567
 30
275.0
 10
62.871343056198214
 20
-135.5475993195896
 30
275.0
 10
63.10906824597842
 20
-133.72428205794654
 30
275.0
 10
63.339200961489965
 20
-131.90000000082415
 30
275.0
  0
LINE
  5
64
330
17
100
AcDbEntity
  8
0
100
AcDbLine
 10
40.27879377769666
 20
-154.1
 30
275.0
 11
59.86509787501561
 21
-154.1
 31
275.0
  0
SPLINE
  5
65
330
17
100
AcDbEntity
  8
0
100
AcDbSpline
 70
0
 71
1
 72
4
 73
2
 74
0
 40
0.0
 40
0.0
 40
1.0
 40
1.0
 10
40.27879377726008
 20
-157.90000060000003
 30
275.0
 10
40.27879377726008
 20
-154.0999994
 30
275.0
  0
LINE
  5
66
330
17
100
AcDbEntity
  8
0
100
AcDbLine
 10
40.27879377769668
 20
-157.9
 30
275.0
 11
59.06639915853416
 21
-157.9
 31
275.0
  0
SPLINE
  5
67
330
17
100
AcDbEntity
  8
0
100
AcDbSpline
 70
0
 71
8
 72
60
 73
51
 74
0
 40
0.0
 40
0.0
 40
0.0
 40
0.0
 40
0.0
 40
0.0
 40
0.0
 40
0.0
 40
0.0
 40
0.046925735431941985
 40
0.046925735431941985
 40
0.046925735431941985
 40
0.046925735431941985
 40
0.046925735431941985
 40
0.046925735431941985
 40
0.046925735431941985
 40
0.1596883815958083
 40
0.1596883815958083
 40
0.1596883815958083
 40
0.1596883815958083
 40
0.1596883815958083
 40
0.1596883815958083
 40
0.1596883815958083
 40
0.35948057999190774
 40
0.35948057999190774
 40
0.35948057999190774
 40
0.35948057999190774
 40
0.35948057999190774
 40
0.35948057999190774
 40
0.35948057999190774
 40
0.5678471831713698
 40
0.5678471831713698
 40
0.5678471831713698
 40
0.5678471831713698
 40
0.5678471831713698
 40
0.5678471831713698
 40
0.5678471831713698
 40
0.6771891666165102
 40
0.6771891666165102
 40
0.6771891666165102
 40
0.6771891666165102
 40
0.6771891666165102
 40
0.6771891666165102
 40
0.6771891666165102
 40
0.8071870723625293
 40
0.8071870723625293
 40
0.8071870723625293
 40
0.8071870723625293
 40
0.8071870723625293
 40
0.8071870723625293
 40
0.8071870723625293
 40
1.0
 40
1.0
 40
1.0
 40
1.0
 40
1.0
 40
1.0
 40
1.0
 40
1.0
 40
1.0
 10
48.61375618553507
 20
-180.09999999444318
 30
275.0
 10
48.73343786420296
 20
-180.0248524465605
 30
275.0
 10
48.85181214855781
 20
-179.94760851764778
 30
275.0
 10
48.96886193415875
 20
-179.86833945780262
 30
275.0
 10
49.08457392847833
 20
-179.78711821282067
 30
275.0
 10
49.19893833185097
 20
-179.70401879525377
 30
275.0
 10
49.31194854647159
 20
-179.61911571020508
 30
275.0
 10
49.42360091708869
 20
-179.53248344532668
 30
275.0
 10
49.79893024793424
 20
-179.23204119071374
 30
275.0
 10
50.05623018645548
 20
-179.01024015933405
 30
275.0
 10
50.3058999837924
 20
-178.77970245517264
 30
275.0
 10
50.54811905478924
 20
-178.54129178664337
 30
275.0
 10
50.78311871685004
 20
-178.29580349715002
 30
275.0
 10
51.01116615009493
 20
-178.04394809079938
 30
275.0
 10
51.232554168764885
 20
-177.78634084242566
 30
275.0
 10
51.82860808978477
 20
-177.05779317745183
 30
275.0
 10
52.18953556055715
 20
-176.57585133436666
 30
275.0
 10
52.532238290950204
 20
-176.08045808712276
 30
275.0
 10
52.85831221418552
 20
-175.5739040722342
 30
275.0
 10
53.169179347827324
 20
-175.05804301451656
 30
275.0
 10
53.46613473763298
 20
-174.53432220253325
 30
275.0
 10
53.75037145407894
 20
-174.00379867919668
 30
275.0
 10
54.30733696334385
 20
-172.90748031620748
 30
275.0
 10
54.578940069588704
 20
-172.34136300604453
 30
275.0
 10
54.83900579484261
 20
-171.76975400724896
 30
275.0
 10
55.08852237366585
 20
-171.19343497635907
 30
275.0
 10
55.32833302651376
 20
-170.6130445230573
 30
275.0
 10
55.559178158825645
 20
-170.02909678916862
 30
275.0
 10
55.781720508026226
 20
-169.44199233578482
 30
275.0
 10
56.10928837206484
 20
-168.5424295035852
 30
275.0
 10
56.221546598003094
 20
-168.22752816867924
 30
275.0
 10
56.33332187368482
 20
-167.9072738018229
 30
275.0
 10
56.444608156535594
 20
-167.58162287105878
 30
275.0
 10
56.555399403976374
 20
-167.25053184444718
 30
275.0
 10
56.66568957342367
 20
-166.91395719006573
 30
275.0
 10
56.77547262228944
 20
-166.5718553760096
 30
275.0
 10
57.014654695902536
 20
-165.8108311440759
 30
275.0
 10
57.14166443957447
 20
-165.3965626327257
 30
275.0
 10
57.265885583580136
 20
-164.98144087603484
 30
275.0
 10
57.38743850030686
 20
-164.56552616362663
 30
275.0
 10
57.50644929008993
 20
-164.14887603015165
 30
275.0
 10
57.62304898135634
 20
-163.73154575038527
 30
275.0
 10
57.73737273076838
 20
-163.31358883432492
 30
275.0
 10
58.015953761749365
 20
-162.27429177134235
 30
275.0
 10
58.17762323281825
 20
-161.65226291645573
 30
275.0
 10
58.33495354381311
 20
-161.02910905726839
 30
275.0
 10
58.488267207461064
 20
-160.40494693593854
 30
275.0
 10
58.63784067506386
 20
-159.77987615468027
 30
275.0
 10
58.783915403952534
 20
-159.15398182591971
 30
275.0
 10
58.92670477569587
 20
-158.527336223717
 30
275.0
 10
59.0663991814492
 20
-157.9000000051028
 30
275.0
  0
LINE
  5
68
330
17
100
AcDbEntity
  8
0
100
AcDbLine
 10
40.27879377769666
 20
-180.1
 30
275.0
 11
48.61375618902416
 21
-180.1
 31
275.0
  0
SPLINE
  5
69
330
17
100
AcDbEntity
  8
0
100
AcDbSpline
 70
0
 71
1
 72
4
 73
2
 74
0
 40
0.0
 40
0.0
 40
1.0
 40
1.0
 10
40.27879377726008
 20
-180.67057188062486
 30
275.0
 10
40.27879377726008
 20
-180.09999939999994
 30
275.0
  0
SPLINE
  5
6A
330
17
100
AcDbEntity
  8
0
100
AcDbSpline
 70
0
 71
8
 72
39
 73
30
 74
0
 40
0.0
 40
0.0
 40
0.0
 40
0.0
 40
0.0
 40
0.0
 40
0.0
 40
0.0
 40
0.0
 40
0.007159635594857405
 40
0.007159635594857405
 40
0.007159635594857405
 40
0.007159635594857405
 40
0.007159635594857405
 40
0.007159635594857405
 40
0.007159635594857405
 40
0.026022283574763487
 40
0.026022283574763487
 40
0.026022283574763487
 40
0.026022283574763487
 40
0.026022283574763487
 40
0.026022283574763487
 40
0.026022283574763487
 40
0.038532945035898096
 40
0.038532945035898096
 40
0.038532945035898096
 40
0.038532945035898096
 40
0.038532945035898096
 40
0.038532945035898096
 40
0.038532945035898096
 40
0.04123763971367315
 40
0.04123763971367315
 40
0.04123763971367315
 40
0.04123763971367315
 40
0.04123763971367315
 40
0.04123763971367315
 40
0.04123763971367315
 40
0.04123763971367315
 40
0.04123763971367315
 10
29.327381007219916
 20
-169.33964468298723
 30
275.0
 10
29.404438175754862
 20
-169.68673713120958
 30
275.0
 10
29.495091362210974
 20
-170.03079664413673
 30
275.0
 10
29.59858978787516
 20
-170.37136934183138
 30
275.0
 10
29.714188921836612
 20
-170.7080810176525
 30
275.0
 10
29.841171526736204
 20
-171.04063026746695
 30
275.0
 10
29.978864566105003
 20
-171.36878279787422
 30
275.0
 10
30.126651973292056
 20
-171.69236691344355
 30
275.0
 10
30.698485536000206
 20
-172.85144703734335
 30
275.0
 10
31.17865694703746
 20
-173.65796704079287
 30
275.0
 10
31.71476729936144
 20
-174.4302338446253
 30
275.0
 10
32.299412493926525
 20
-175.16705049259738
 30
275.0
 10
32.92654386187614
 20
-175.86732333227494
 30
275.0
 10
33.59157060145514
 20
-176.52996539132147
 30
275.0
 10
34.29125703935184
 20
-177.15393334246323
 30
275.0
 10
35.510323329347074
 20
-178.1250371866397
 30
275.0
 10
36.01064200662348
 20
-178.49429163172735
 30
275.0
 10
36.52449914836392
 20
-178.84503410687915
 30
275.0
 10
37.051273352420566
 20
-179.1764809836335
 30
275.0
 10
37.59035358805194
 20
-179.48762494639823
 30
275.0
 10
38.141132918682736
 20
-179.77724246740624
 30
275.0
 10
38.703020164387446
 20
-180.04387041443883
 30
275.0
 10
39.399228002976784
 20
-180.33804441187115
 30
275.0
 10
39.523474845413176
 20
-180.3891781504246
 30
275.0
 10
39.64820318268778
 20
-180.4391348621494
 30
275.0
 10
39.77340568583535
 20
-180.4878955942319
 30
275.0
 10
39.89907454210798
 20
-180.5354405949226
 30
275.0
 10
40.02520145143821
 20
-180.5817493225866
 30
275.0
 10
40.151777622902124
 20
-180.6268004547549
 30
275.0
 10
40.27879377118256
 20
-180.6705718971753
 30
275.0
  0
SPLINE
  5
6B
330
17
100
AcDbEntity
  8
0
100
AcDbSpline
 70
0
 71
8
 72
396
 73
387
 74
0
 40
0.0
 40
0.0
 40
0.0
 40
0.0
 40
0.0
 40
0.0
 40
0.0
 40
0.0
 40
0.0
 40
0.0021529585556443655
 40
0.0021529585556443655
 40
0.0021529585556443655
 40
0.0021529585556443655
 40
0.0021529585556443655
 40
0.0021529585556443655
 40
0.0021529585556443655
 40
0.004394044774758549
 40
0.004394044774758549
 40
0.004394044774758549
 40
0.004394044774758549
 40
0.004394044774758549
 40
0.004394044774758549
 40
0.004394044774758549
 40
0.006859239615790245
 40
0.006859239615790245
 40
0.006859239615790245
 40
0.006859239615790245
 40
0.006859239615790245
 40
0.006859239615790245
 40
0.006859239615790245
 40
0.009548543078782867
 40
0.009548543078782867
 40
0.009548543078782867
 40
0.009548543078782867
 40
0.009548543078782867
 40
0.009548543078782867
 40
0.009548543078782867
 40
0.013492745394858693
 40
0.013492745394858693
 40
0.013492745394858693
 40
0.013492745394858693
 40
0.013492745394858693
 40
0.013492745394858693
 40
0.013492745394858693
 40
0.02118835888794937
 40
0.02118835888794937
 40
0.02118835888794937
 40
0.02118835888794937
 40
0.02118835888794937
 40
0.02118835888794937
 40
0.02118835888794937
 40
0.03319777915991918
 40
0.03319777915991918
 40
0.03319777915991918
 40
0.03319777915991918
 40
0.03319777915991918
 40
0.03319777915991918
 40
0.03319777915991918
 40
0.05911936094007831
 40
0.05911936094007831
 40
0.05911936094007831
 40
0.05911936094007831
 40
0.05911936094007831
 40
0.05911936094007831
 40
0.05911936094007831
 40
0.07740411988328096
 40
0.07740411988328096
 40
0.07740411988328096
 40
0.07740411988328096
 40
0.07740411988328096
 40
0.07740411988328096
 40
0.07740411988328096
 40
0.08654649935487416
 40
0.08654649935487416
 40
0.08654649935487416
 40
0.08654649935487416
 40
0.08654649935487416
 40
0.08654649935487416
 40
0.08654649935487416
 40
0.09783994108221343
 40
0.09783994108221343
 40
0.09783994108221343
 40
0.09783994108221343
 40
0.09783994108221343
 40
0.09783994108221343
 40
0.09783994108221343
 40
0.15011568694937916
 40
0.15011568694937916
 40
0.15011568694937916
 40
0.15011568694937916
 40
0.15011568694937916
 40
0.15011568694937916
 40
0.15011568694937916
 40
0.24985035397490987
 40
0.24985035397490987
 40
0.24985035397490987
 40
0.24985035397490987
 40
0.24985035397490987
 40
0.24985035397490987
 40
0.24985035397490987
 40
0.3542401432040232
 40
0.3542401432040232
 40
0.3542401432040232
 40
0.3542401432040232
 40
0.3542401432040232
 40
0.3542401432040232
 40
0.3542401432040232
 40
0.4319023610987353
 40
0.4319023610987353
 40
0.4319023610987353
 40
0.4319023610987353
 40
0.4319023610987353
 40
0.4319023610987353
 40
0.4319023610987353
 40
0.5095736617966157
 40
0.5095736617966157
 40
0.5095736617966157
 40
0.5095736617966157
 40
0.5095736617966157
 40
0.5095736617966157
 40
0.5095736617966157
 40
0.6874063293776439
 40
0.6874063293776439
 40
0.6874063293776439
 40
0.6874063293776439
 40
0.6874063293776439
 40
0.6874063293776439
 40
0.6874063293776439
 40
0.751762802726238
 40
0.751762802726238
 40
0.751762802726238
 40
0.751762802726238
 40
0.751762802726238
 40
0.751762802726238
 40
0.751762802726238
 40
0.7746141547204671
 40
0.7746141547204671
 40
0.7746141547204671
 40
0.7746141547204671
 40
0.7746141547204671
 40
0.7746141547204671
 40
0.7746141547204671
 40
0.7974672807020863
 40
0.7974672807020863
 40
0.7974672807020863
 40
0.7974672807020863
 40
0.7974672807020863
 40
0.7974672807020863
 40
0.7974672807020863
 40
0.8329047256291757
 40
0.8329047256291757
 40
0.8329047256291757
 40
0.8329047256291757
 40
0.8329047256291757
 40
0.8329047256291757
 40
0.8329047256291757
 40
0.8505012913099498
 40
0.8505012913099498
 40
0.8505012913099498
 40
0.8505012913099498
 40
0.8505012913099498
 40
0.8505012913099498
 40
0.8505012913099498
 40
0.8587787862796221
 40
0.8587787862796221
 40
0.8587787862796221
 40
0.8587787862796221
 40
0.8587787862796221
 40
0.8587787862796221
 40
0.8587787862796221
 40
0.8644069304907068
 40
0.8644069304907068
 40
0.8644069304907068
 40
0.8644069304907068
 40
0.8644069304907068
 40
0.8644069304907068
 40
0.8644069304907068
 40
0.8673163862262845
 40
0.8673163862262845
 40
0.8673163862262845
 40
0.8673163862262845
 40
0.8673163862262845
 40
0.8673163862262845
 40
0.8673163862262845
 40
0.868830896444012
 40
0.868830896444012
 40
0.868830896444012
 40
0.868830896444012
 40
0.868830896444012
 40
0.868830896444012
 40
0.868830896444012
 40
0.869612565506453
 40
0.869612565506453
 40
0.869612565506453
 40
0.869612565506453
 40
0.869612565506453
 40
0.869612565506453
 40
0.869612565506453
 40
0.8704035104290027
 40
0.8704035104290027
 40
0.8704035104290027
 40
0.8704035104290027
 40
0.8704035104290027
 40
0.8704035104290027
 40
0.8704035104290027
 40
0.8710417865438305
 40
0.8710417865438305
 40
0.8710417865438305
 40
0.8710417865438305
 40
0.8710417865438305
 40
0.8710417865438305
 40
0.8710417865438305
 40
0.8716800626586564
 40
0.8716800626586564
 40
0.8716800626586564
 40
0.8716800626586564
 40
0.8716800626586564
 40
0.8716800626586564
 40
0.8716800626586564
 40
0.872260313672137
 40
0.872260313672137
 40
0.872260313672137
 40
0.872260313672137
 40
0.872260313672137
 40
0.872260313672137
 40
0.872260313672137
 40
0.8728405646856188
 40
0.8728405646856188
 40
0.8728405646856188
 40
0.8728405646856188
 40
0.8728405646856188
 40
0.8728405646856188
 40
0.8728405646856188
 40
0.8739823436374293
 40
0.8739823436374293
 40
0.8739823436374293
 40
0.8739823436374293
 40
0.8739823436374293
 40
0.8739823436374293
 40
0.8739823436374293
 40
0.8757641497534598
 40
0.8757641497534598
 40
0.8757641497534598
 40
0.8757641497534598
 40
0.8757641497534598
 40
0.8757641497534598
 40
0.8757641497534598
 40
0.8796100653623654
 40
0.8796100653623654
 40
0.8796100653623654
 40
0.8796100653623654
 40
0.8796100653623654
 40
0.8796100653623654
 40
0.8796100653623654
 40
0.8823229257889162
 40
0.8823229257889162
 40
0.8823229257889162
 40
0.8823229257889162
 40
0.8823229257889162
 40
0.8823229257889162
 40
0.8823229257889162
 40
0.8836793560021917
 40
0.8836793560021917
 40
0.8836793560021917
 40
0.8836793560021917
 40
0.8836793560021917
 40
0.8836793560021917
 40
0.8836793560021917
 40
0.8853549335463231
 40
0.8853549335463231
 40
0.8853549335463231
 40
0.8853549335463231
 40
0.8853549335463231
 40
0.8853549335463231
 40
0.8853549335463231
 40
0.89311097836462
 40
0.89311097836462
 40
0.89311097836462
 40
0.89311097836462
 40
0.89311097836462
 40
0.89311097836462
 40
0.89311097836462
 40
0.9079087237703941
 40
0.9079087237703941
 40
0.9079087237703941
 40
0.9079087237703941
 40
0.9079087237703941
 40
0.9079087237703941
 40
0.9079087237703941
 40
0.9233977654427464
 40
0.9233977654427464
 40
0.9233977654427464
 40
0.9233977654427464
 40
0.9233977654427464
 40
0.9233977654427464
 40
0.9233977654427464
 40
0.9349215781099686
 40
0.9349215781099686
 40
0.9349215781099686
 40
0.9349215781099686
 40
0.9349215781099686
 40
0.9349215781099686
 40
0.9349215781099686
 40
0.9464472808803819
 40
0.9464472808803819
 40
0.9464472808803819
 40
0.9464472808803819
 40
0.9464472808803819
 40
0.9464472808803819
 40
0.9464472808803819
 40
0.9728375979441795
 40
0.9728375979441795
 40
0.9728375979441795
 40
0.9728375979441795
 40
0.9728375979441795
 40
0.9728375979441795
 40
0.9728375979441795
 40
0.9823884792792139
 40
0.9823884792792139
 40
0.9823884792792139
 40
0.9823884792792139
 40
0.9823884792792139
 40
0.9823884792792139
 40
0.9823884792792139
 40
0.9857797799896
 40
0.9857797799896
 40
0.9857797799896
 40
0.9857797799896
 40
0.9857797799896
 40
0.9857797799896
 40
0.9857797799896
 40
0.9891713440078741
 40
0.9891713440078741
 40
0.9891713440078741
 40
0.9891713440078741
 40
0.9891713440078741
 40
0.9891713440078741
 40
0.9891713440078741
 40
0.994430508786823
 40
0.994430508786823
 40
0.994430508786823
 40
0.994430508786823
 40
0.994430508786823
 40
0.994430508786823
 40
0.994430508786823
 40
0.9970419615509777
 40
0.9970419615509777
 40
0.9970419615509777
 40
0.9970419615509777
 40
0.9970419615509777
 40
0.9970419615509777
 40
0.9970419615509777
 40
0.9982703986440847
 40
0.9982703986440847
 40
0.9982703986440847
 40
0.9982703986440847
 40
0.9982703986440847
 40
0.9982703986440847
 40
0.9982703986440847
 40
0.9991056525207842
 40
0.9991056525207842
 40
0.9991056525207842
 40
0.9991056525207842
 40
0.9991056525207842
 40
0.9991056525207842
 40
0.9991056525207842
 40
0.9995374323568756
 40
0.9995374323568756
 40
0.9995374323568756
 40
0.9995374323568756
 40
0.9995374323568756
 40
0.9995374323568756
 40
0.9995374323568756
 40
0.9997621880953239
 40
0.9997621880953239
 40
0.9997621880953239
 40
0.9997621880953239
 40
0.9997621880953239
 40
0.9997621880953239
 40
0.9997621880953239
 40
0.9998470318167902
 40
0.9998470318167902
 40
0.9998470318167902
 40
0.9998470318167902
 40
0.9998470318167902
 40
0.9998470318167902
 40
0.9998470318167902
 40
1.0
 40
1.0
 40
1.0
 40
1.0
 40
1.0
 40
1.0
 40
1.0
 40
1.0
 40
1.0
 10
29.327381007219937
 20
169.33964468298726
 30
275.0
 10
29.327275430840018
 20
169.33975250182337
 30
275.0
 10
29.3272966608384
 20
169.3396036350697
 30
275.0
 10
29.327363419683845
 20
169.33943191503332
 30
275.0
 10
29.32742053818995
 20
169.3393531628029
 30
275.0
 10
29.32743895551516
 20
169.3393651882489
 30
275.0
 10
29.32741571916278
 20
169.3393477900237
 30
275.0
 10
29.32737398498097
 20
169.33906275556123
 30
275.0
 10
29.32735160039564
 20
169.33720776255757
 30
275.0
 10
29.327334663433497
 20
169.33580420980843
 30
275.0
 10
29.32731064929821
 20
169.3338141772781
 30
275.0
 10
29.32727800101165
 20
169.33110863941474
 30
275.0
 10
29.327235161595734
 20
169.3275585706664
 30
275.0
 10
29.327180574072365
 20
169.32303494548128
 30
275.0
 10
29.327112681463447
 20
169.3174087383075
 30
275.0
 10
29.326938896651086
 20
169.30300732740753
 30
275.0
 10
29.32682988341427
 20
169.29397348609774
 30
275.0
 10
29.32670081474259
 20
169.28327766665439
 30
275.0
 10
29.326549618298213
 20
169.270748136068
 30
275.0
 10
29.326374221743293
 20
169.256213161329
 30
275.0
 10
29.326172552739987
 20
169.2395010094278
 30
275.0
 10
29.325942538950436
 20
169.22043994735486
 30
275.0
 10
29.32539800158559
 20
169.1753145636411
 30
275.0
 10
29.325077696242886
 20
169.148771111479
 30
275.0
 10
29.32471850155057
 20
169.11900492946015
 30
275.0
 10
29.324317727050488
 20
169.08579306143062
 30
275.0
 10
29.323872682284485
 20
169.04891255123664
 30
275.0
 10
29.32338067679441
 20
169.00814044272468
 30
275.0
 10
29.32283902012212
 20
168.9632537797413
 30
275.0
 10
29.32137384845445
 20
168.84183615447486
 30
275.0
 10
29.320496605002806
 20
168.76913967868362
 30
275.0
 10
29.319615759392153
 20
168.69614469477366
 30
275.0
 10
29.318732419845393
 20
168.62294304039423
 30
275.0
 10
29.31784747616892
 20
168.54960845299397
 30
275.0
 10
29.316961283491963
 20
168.47617036192437
 30
275.0
 10
29.316074001892893
 20
168.4026420327357
 30
275.0
 10
29.31345184866648
 20
168.18534625445903
 30
275.0
 10
29.311714878804974
 20
168.04140492635253
 30
275.0
 10
29.30997577317183
 20
167.89728660853754
 30
275.0
 10
29.30823516787178
 20
167.75304401449554
 30
275.0
 10
29.306493488315088
 20
167.6087123976492
 30
275.0
 10
29.304751005274625
 20
167.46431419674062
 30
275.0
 10
29.303007799457504
 20
167.31985609989226
 30
275.0
 10
29.29854232058672
 20
166.94980537332486
 30
275.0
 10
29.295819364078266
 20
166.72415610624807
 30
275.0
 10
29.29309538081959
 20
166.49842175316758
 30
275.0
 10
29.29037062200604
 20
166.27262313048647
 30
275.0
 10
29.287645263437646
 20
166.04677480659134
 30
275.0
 10
29.28491942479159
 20
165.82088669901472
 30
275.0
 10
29.28219316931964
 20
165.5949640494248
 30
275.0
 10
29.27358121725108
 20
164.88129834584655
 30
275.0
 10
29.26769429836275
 20
164.39345400150532
 30
275.0
 10
29.26180628713464
 20
163.90551913583593
 30
275.0
 10
29.25591748326935
 20
163.41751858493393
 30
275.0
 10
29.25002809020087
 20
162.9294692072259
 30
275.0
 10
29.24413824101228
 20
162.44138203121614
 30
275.0
 10
29.238247991162197
 20
161.9532616526916
 30
275.0
 10
29.228202160469692
 20
161.1207715537996
 30
275.0
 10
29.223908537614022
 20
160.76496240021964
 30
275.0
 10
29.21947378799905
 20
160.397458182945
 30
275.0
 10
29.21489522116663
 20
160.01803594582236
 30
275.0
 10
29.210170146658594
 20
159.62647273269832
 30
275.0
 10
29.205295874016805
 20
159.2225455874191
 30
275.0
 10
29.20026971278311
 20
158.80603155383076
 30
275.0
 10
29.192498602357478
 20
158.16204573675344
 30
275.0
 10
29.18986958745309
 20
157.94418133661208
 30
275.0
 10
29.1872015914789
 20
157.72308660583585
 30
275.0
 10
29.18449427812768
 20
157.49873367490565
 30
275.0
 10
29.181747311092142
 20
157.2710946743022
 30
275.0
 10
29.178960354065005
 20
157.0401417345063
 30
275.0
 10
29.176133070739002
 20
156.80584698599873
 30
275.0
 10
29.169722394999802
 20
156.27459932281985
 30
275.0
 10
29.166179696216975
 20
155.98101282304538
 30
275.0
 10
29.162636898769748
 20
155.68742327055546
 30
275.0
 10
29.15909396792746
 20
155.393830867828
 30
275.0
 10
29.15555096391753
 20
155.1002358092001
 30
275.0
 10
29.15200804192539
 20
154.80663828086767
 30
275.0
 10
29.148465452094523
 20
154.51303846088578
 30
275.0
 10
29.12852852676035
 20
152.86039462017357
 30
275.0
 10
29.112147245997015
 20
151.5013080539811
 30
275.0
 10
29.095801950745717
 20
150.14219019426832
 30
275.0
 10
29.079503503017825
 20
148.78304845725438
 30
275.0
 10
29.063259703458144
 20
147.4238879590131
 30
275.0
 10
29.047076936681023
 20
146.06471224322175
 30
275.0
 10
29.030959600460978
 20
144.70552305484352
 30
275.0
 10
28.98429484905805
 20
140.75315773559396
 30
275.0
 10
28.953930965282208
 20
138.15995250762347
 30
275.0
 10
28.923847449345534
 20
135.56671660952702
 30
275.0
 10
28.89406211258404
 20
132.97345644839803
 30
275.0
 10
28.864590803599903
 20
130.38017648925543
 30
275.0
 10
28.83544905705361
 20
127.78687988911348
 30
275.0
 10
28.80665177906832
 20
125.19356839001212
 30
275.0
 10
28.74845072002326
 20
119.88587378068712
 30
275.0
 10
28.719081360453696
 20
117.17149020726997
 30
275.0
 10
28.690124922290824
 20
114.45709401028213
 30
275.0
 10
28.66160032913614
 20
111.74268657358711
 30
275.0
 10
28.6335278545155
 20
109.02826897393248
 30
275.0
 10
28.605929659663335
 20
106.31384207136094
 30
275.0
 10
28.578830338010953
 20
103.59940655540375
 30
275.0
 10
28.532488213447333
 20
98.86551533124211
 30
275.0
 10
28.513010332625182
 20
96.84606327518972
 30
275.0
 10
28.493835226327736
 20
94.82660701602184
 30
275.0
 10
28.474975168244335
 20
92.80714676983212
 30
275.0
 10
28.456443521698713
 20
90.78768273483843
 30
275.0
 10
28.438254958009157
 20
88.76821509453411
 30
275.0
 10
28.420425674848627
 20
86.74874402083923
 30
275.0
 10
28.385519513296217
 20
82.709559150763
 30
275.0
 10
28.368443525460506
 20
80.68984535758604
 30
275.0
 10
28.351727673728046
 20
78.67012877193613
 30
275.0
 10
28.335355713826942
 20
76.65040984624463
 30
275.0
 10
28.319312923715767
 20
74.63068901798566
 30
275.0
 10
28.30358589271623
 20
72.61096671650269
 30
275.0
 10
28.288162310645802
 20
70.59124336983486
 30
275.0
 10
28.238386241741672
 20
63.94725155387823
 30
275.0
 10
28.205272572798503
 20
59.32298293220785
 30
275.0
 10
28.173553271306837
 20
54.69871618693756
 30
275.0
 10
28.14311625827385
 20
50.074456384044
 30
275.0
 10
28.113869225220075
 20
45.450209719099206
 30
275.0
 10
28.085723698658995
 20
40.82598822541965
 30
275.0
 10
28.058606105063305
 20
36.201805240315
 30
275.0
 10
28.022930131618253
 20
29.9042571343389
 30
275.0
 10
28.013570754759108
 20
28.23083169934177
 30
275.0
 10
28.004326931495715
 20
26.55741756926006
 30
275.0
 10
27.995193268242197
 20
24.88401654749802
 30
275.0
 10
27.986162730105395
 20
23.210631984549515
 30
275.0
 10
27.977227041539173
 20
21.537268637245035
 30
275.0
 10
27.968375173403565
 20
19.863933335528216
 30
275.0
 10
27.956465423616095
 20
17.596493326154757
 30
275.0
 10
27.953419280467564
 20
17.015040101408744
 30
275.0
 10
27.95044705763279
 20
16.446507455089687
 30
275.0
 10
27.947549557655698
 20
15.891121157634558
 30
275.0
 10
27.94472409610598
 20
15.3491047849175
 30
275.0
 10
27.94197340480912
 20
14.820677845056935
 30
275.0
 10
27.93929415837375
 20
14.306058104245324
 30
275.0
 10
27.93408139739209
 20
13.304821887218223
 30
275.0
 10
27.93154693155612
 20
12.818016719144584
 30
275.0
 10
27.9290833208453
 20
12.344820983331026
 30
275.0
 10
27.926689404565106
 20
11.885011740455456
 30
275.0
 10
27.924364022021006
 20
11.43836605119571
 30
275.0
 10
27.922106012518476
 20
11.004660976229546
 30
275.0
 10
27.919914215362986
 20
10.58367357623466
 30
275.0
 10
27.914489609134204
 20
9.54174738040929
 30
275.0
 10
27.91119190660238
 20
8.90834423389498
 30
275.0
 10
27.907894364359645
 20
8.274971874733108
 30
275.0
 10
27.90459700437762
 20
7.641634523153186
 30
275.0
 10
27.90129988032683
 20
7.008342487850012
 30
275.0
 10
27.898003074427216
 20
6.375111561112355
 30
275.0
 10
27.894706708010236
 20
5.74196504760922
 30
275.0
 10
27.889774498397372
 20
4.794615473792195
 30
275.0
 10
27.88813819436825
 20
4.480323899364741
 30
275.0
 10
27.886502086520455
 20
4.166070006295435
 30
275.0
 10
27.88486620247131
 20
3.8518590991275516
 30
275.0
 10
27.883230606414955
 20
3.5377035079045065
 30
275.0
 10
27.88159539607169
 20
3.2236220021854365
 30
275.0
 10
27.879960714926643
 20
2.9096421417061578
 30
275.0
 10
27.877558216325802
 20
2.448184457575298
 30
275.0
 10
27.87678981633553
 20
2.300594744153244
 30
275.0
 10
27.876021622752837
 20
2.153044676275016
 30
275.0
 10
27.875253666956908
 20
2.0055402810636167
 30
275.0
 10
27.874486007879266
 20
1.8580928777431573
 30
275.0
 10
27.87371873190344
 20
1.7107190583576966
 30
275.0
 10
27.87295196217475
 20
1.5634424759072623
 30
275.0
 10
27.871665019666924
 20
1.3162541907345542
 30
275.0
 10
27.871144585805716
 20
1.2162923408623953
 30
275.0
 10
27.87062454858603
 20
1.1164066757923194
 30
275.0
 10
27.870104967074266
 20
1.0166085398485905
 30
275.0
 10
27.869585970481538
 20
0.9169227523578058
 30
275.0
 10
27.86906786023837
 20
0.8174072091431412
 30
275.0
 10
27.868551020711507
 20
0.7181357377842517
 30
275.0
 10
27.867770185018706
 20
0.5681574483653549
 30
275.0
 10
27.86750506888555
 20
0.5172355137029854
 30
275.0
 10
27.867240655611997
 20
0.46644858001840817
 30
275.0
 10
27.866977030605227
 20
0.4158130522430099
 30
275.0
 10
27.86671439093902
 20
0.36536678244979726
 30
275.0
 10
27.866453587187955
 20
0.31527314464821643
 30
275.0
 10
27.866195514258095
 20
0.2657040266617514
 30
275.0
 10
27.86581102479117
 20
0.19185356992619518
 30
275.0
 10
27.865682415108004
 20
0.16715098466860923
 30
275.0
 10
27.865555568660696
 20
0.1427870712295487
 30
275.0
 10
27.865430329567445
 20
0.11873188897814657
 30
275.0
 10
27.865308408313307
 20
0.09531397739729641
 30
275.0
 10
27.865192336681147
 20
0.07301962666406325
 30
275.0
 10
27.865087270811756
 20
0.05283919751198596
 30
275.0
 10
27.86495489169917
 20
0.027412602592079335
 30
275.0
 10
27.86491447959722
 20
0.019650485696966973
 30
275.0
 10
27.864880620458415
 20
0.01314702310301438
 30
275.0
 10
27.864854466429318
 20
0.00812351229162443
 30
275.0
 10
27.864836100311642
 20
0.0045958573226668265
 30
275.0
 10
27.8648245349484
 20
0.0023744509370615674
 30
275.0
 10
27.864818033134167
 20
0.001125621014580247
 30
275.0
 10
27.864811423981127
 20
-0.0001438259092587657
 30
275.0
 10
27.864811647388457
 20
-0.00015238611644008415
 30
275.0
 10
27.864812961492532
 20
9.883436683111313e-05
 30
275.0
 10
27.864811121527616
 20
0.00026785145394114807
 30
275.0
 10
27.864811235753802
 20
-1.3211783095101737e-05
 30
275.0
 10
27.86481847923825
 20
-0.0011260861989370596
 30
275.0
 10
27.864829891775447
 20
-0.003403358507544141
 30
275.0
 10
27.864864006715486
 20
-0.00995595388425841
 30
275.0
 10
27.86488407431054
 20
-0.013810418538789854
 30
275.0
 10
27.864909868132948
 20
-0.018764742986026102
 30
275.0
 10
27.864942282213033
 20
-0.02499064727101613
 30
275.0
 10
27.864982210581154
 20
-0.03265985143881827
 30
275.0
 10
27.86503054726764
 20
-0.04194407553450017
 30
275.0
 10
27.865088186302813
 20
-0.05301503960313881
 30
275.0
 10
27.865223857131205
 20
-0.07907388777647383
 30
275.0
 10
27.86530188892442
 20
-0.0940617718810606
 30
275.0
 10
27.865391011127013
 20
-0.11117983604868746
 30
275.0
 10
27.86549211776931
 20
-0.13059980032444035
 30
275.0
 10
27.865606102881625
 20
-0.15249338475338448
 30
275.0
 10
27.865733860494316
 20
-0.17703230938056436
 30
275.0
 10
27.865876284637714
 20
-0.20438829425100383
 30
275.0
 10
27.866177891800724
 20
-0.2623192095541072
 30
275.0
 10
27.866334374227097
 20
-0.29237542605236144
 30
275.0
 10
27.866504388319505
 20
-0.3250307247160375
 30
275.0
 10
27.86668860577616
 20
-0.360414121356661
 30
275.0
 10
27.86688769829528
 20
-0.3986546317857156
 30
275.0
 10
27.86710233757509
 20
-0.4398812718146417
 30
275.0
 10
27.867333195313822
 20
-0.4842230572548374
 30
275.0
 10
27.86782869110556
 20
-0.5793949505805787
 30
275.0
 10
27.868093329158583
 20
-0.63022505846627
 30
275.0
 10
27.868375529066967
 20
-0.6844283433861692
 30
275.0
 10
27.868675962528922
 20
-0.7421338211517268
 30
275.0
 10
27.8689953012427
 20
-0.803470507574407
 30
275.0
 10
27.8693342169065
 20
-0.8685674184656874
 30
275.0
 10
27.86969338121856
 20
-0.9375535696370605
 30
275.0
 10
27.870821370926716
 20
-1.1542111436599
 30
275.0
 10
27.871570719290457
 20
-1.2981415336356292
 30
275.0
 10
27.872320989295677
 20
-1.442248947045023
 30
275.0
 10
27.873071906447237
 20
-1.5864806604826782
 30
275.0
 10
27.873823287169856
 20
-1.7308014138992327
 30
275.0
 10
27.87457501461817
 20
-1.8751887643326128
 30
275.0
 10
27.875327053964188
 20
-2.019636022228557
 30
275.0
 10
27.877253512877438
 20
-2.3896588261435845
 30
275.0
 10
27.878428227374275
 20
-2.6152910204924495
 30
275.0
 10
27.879603384941305
 20
-2.841008317130747
 30
275.0
 10
27.88077887718165
 20
-3.066789895842035
 30
275.0
 10
27.881954628232698
 20
-3.2926211853789127
 30
275.0
 10
27.883130586450264
 20
-3.51849226622371
 30
275.0
 10
27.884306724539908
 20
-3.7443978958373414
 30
275.0
 10
27.8880220193613
 20
-4.458009692965874
 30
275.0
 10
27.890561703545423
 20
-4.9458171704075795
 30
275.0
 10
27.893101859104323
 20
-5.433715186711989
 30
275.0
 10
27.895642356707643
 20
-5.921678900892871
 30
275.0
 10
27.898183108568617
 20
-6.409691451375124
 30
275.0
 10
27.90072405725845
 20
-6.897741807562404
 30
275.0
 10
27.90326517884412
 20
-7.385825372571919
 30
275.0
 10
27.907599065753562
 20
-8.218252669645098
 30
275.0
 10
27.909451383940254
 20
-8.574034962464141
 30
275.0
 10
27.911364585830906
 20
-8.941511436093528
 30
275.0
 10
27.913339832120062
 20
-9.3209050298553
 30
275.0
 10
27.915378283502243
 20
-9.712438683071614
 30
275.0
 10
27.917481100671978
 20
-10.1163353350647
 30
275.0
 10
27.919649444323802
 20
-10.532817925156891
 30
275.0
 10
27.923001990566465
 20
-11.176755126427421
 30
275.0
 10
27.924136177774844
 20
-11.394603079539591
 30
275.0
 10
27.925287181864196
 20
-11.615681119422346
 30
275.0
 10
27.92645514792133
 20
-11.840017113490937
 30
275.0
 10
27.927640221033066
 20
-12.067638929160648
 30
275.0
 10
27.92884254628623
 20
-12.298574433846762
 30
275.0
 10
27.930062268767625
 20
-12.532851494964602
 30
275.0
 10
27.932827907887173
 20
-13.064059056460934
 30
275.0
 10
27.934356369606096
 20
-13.357623395744566
 30
275.0
 10
27.935884785395753
 20
-13.651190789402287
 30
275.0
 10
27.937413117028388
 20
-13.944761035558379
 30
275.0
 10
27.93894142137346
 20
-14.238333938839492
 30
275.0
 10
27.940469850397758
 20
-14.531909310374639
 30
275.0
 10
27.941998651165317
 20
-14.825486967795214
 30
275.0
 10
27.950608103372293
 20
-16.4780117998684
 30
275.0
 10
27.957702544428933
 20
-17.837001294515474
 30
275.0
 10
27.964833511432516
 20
-19.196021461318182
 30
275.0
 10
27.972011738039157
 20
-20.555064696582463
 30
275.0
 10
27.979244936114647
 20
-21.914125749426464
 30
275.0
 10
27.986539428550156
 20
-23.273200965837113
 30
275.0
 10
27.993899582399884
 20
-24.632288524995175
 30
275.0
 10
28.01550496042334
 20
-28.584410577110056
 30
275.0
 10
28.029934222864874
 20
-31.177470999343413
 30
275.0
 10
28.044644381808617
 20
-33.770557250727464
 30
275.0
 10
28.05965313335567
 20
-36.363662616162415
 30
275.0
 10
28.074976243566514
 20
-38.95678235658475
 30
275.0
 10
28.090629186316757
 20
-41.54991304652867
 30
275.0
 10
28.106626830249912
 20
-44.14305268662136
 30
275.0
 10
28.140107522101715
 20
-49.45048980484038
 30
275.0
 10
28.15762502746097
 20
-52.16478715221626
 30
275.0
 10
28.175555659141608
 20
-54.87908999245443
 30
275.0
 10
28.193918307648257
 20
-57.59339661471501
 30
275.0
 10
28.21273321712355
 20
-60.30770559205316
 30
275.0
 10
28.23202252117999
 20
-63.022015681732846
 30
275.0
 10
28.251810785952223
 20
-65.73632576961147
 30
275.0
 10
28.287239707501268
 20
-70.47007480356132
 30
275.0
 10
28.302645285769152
 20
-72.48951415699892
 30
275.0
 10
28.318353687186473
 20
-74.5089524848758
 30
275.0
 10
28.334377174619156
 20
-76.5283893591682
 30
275.0
 10
28.350729099760994
 20
-78.54782435094258
 30
275.0
 10
28.367424121108712
 20
-80.56725702343698
 30
275.0
 10
28.384478421937004
 20
-82.58668692514257
 30
275.0
 10
28.419344293676648
 20
-86.62587146128178
 30
275.0
 10
28.437156790447776
 20
-88.64562607682747
 30
275.0
 10
28.45532942478672
 20
-90.66537726587127
 30
275.0
 10
28.473845937968505
 20
-92.6851248566237
 30
275.0
 10
28.49269159508941
 20
-94.7048686659755
 30
275.0
 10
28.51185297381295
 20
-96.72460849631658
 30
275.0
 10
28.531317753115776
 20
-98.74434413235488
 30
275.0
 10
28.596311385066144
 20
-105.38863905961495
 30
275.0
 10
28.64307894917911
 20
-110.0131771125555
 30
275.0
 10
28.691240610757934
 20
-114.63768921385271
 30
275.0
 10
28.74068416876284
 20
-119.26217223382957
 30
275.0
 10
28.791317183053327
 20
-123.8866215739509
 30
275.0
 10
28.843050960625412
 20
-128.5110267332224
 30
275.0
 10
28.895811687007235
 20
-133.13537565049128
 30
275.0
 10
28.968920204792294
 20
-139.4331980323012
 30
275.0
 10
28.988468316496505
 20
-141.1067456152597
 30
275.0
 10
29.008131756655207
 20
-142.78027990160197
 30
275.0
 10
29.027905100804535
 20
-144.45379918179663
 30
275.0
 10
29.047781257129284
 20
-146.12730022781793
 30
275.0
 10
29.067751869411268
 20
-147.80077842718785
 30
275.0
 10
29.08780579309843
 20
-149.47422714274623
 30
275.0
 10
29.11506463954775
 20
-151.7418237453832
 30
275.0
 10
29.12206277354392
 20
-152.32332045073858
 30
275.0
 10
29.12891163346896
 20
-152.89189576096757
 30
275.0
 10
29.135608121162605
 20
-153.44732383291853
 30
275.0
 10
29.142145690444078
 20
-153.989381082534
 30
275.0
 10
29.148523280055688
 20
-154.51784789561415
 30
275.0
 10
29.154733803388076
 20
-155.03250650889242
 30
275.0
 10
29.166816840597804
 20
-156.03381831172157
 30
275.0
 10
29.17269166303298
 20
-156.52066023248742
 30
275.0
 10
29.178402245227467
 20
-156.99389169351173
 30
275.0
 10
29.183951277639423
 20
-157.45373565094815
 30
275.0
 10
29.189341450727
 20
-157.90041506095022
 30
275.0
 10
29.194575454948325
 20
-158.3341528796716
 30
275.0
 10
29.19965598076156
 20
-158.75517206326586
 30
275.0
 10
29.212230069019103
 20
-159.7971768807259
 30
275.0
 10
29.219874052823506
 20
-160.4306278145553
 30
275.0
 10
29.22751766518099
 20
-161.06404796686738
 30
275.0
 10
29.23516085517786
 20
-161.69743311849
 30
275.0
 10
29.242803498439976
 20
-162.33077296263272
 30
275.0
 10
29.25044540443395
 20
-162.96405170994174
 30
275.0
 10
29.25808629199413
 20
-163.59724606044375
 30
275.0
 10
29.26951901910668
 20
-164.54466717631277
 30
275.0
 10
29.273311926571196
 20
-164.8589824387201
 30
275.0
 10
29.27710437941516
 20
-165.1732600270818
 30
275.0
 10
29.28089631363965
 20
-165.48749463785117
 30
275.0
 10
29.28468758048438
 20
-165.80167394338446
 30
275.0
 10
29.2884779534969
 20
-166.1157791777492
 30
275.0
 10
29.292267100171465
 20
-166.42978278644577
 30
275.0
 10
29.297836026566085
 20
-166.89127534260047
 30
275.0
 10
29.2996171562239
 20
-167.0388761583394
 30
275.0
 10
29.301397807562957
 20
-167.18643733617222
 30
275.0
 10
29.30317790786696
 20
-167.33395285016906
 30
275.0
 10
29.30495732057053
 20
-167.4814113832597
 30
275.0
 10
29.306735845491982
 20
-167.62879634653785
 30
275.0
 10
29.308513197259547
 20
-167.7760840914784
 30
275.0
 10
29.311496294390533
 20
-168.02329100762017
 30
275.0
 10
29.31270264476583
 20
-168.1232603156812
 30
275.0
 10
29.31390807599525
 20
-168.22315345484313
 30
275.0
 10
29.315112451171178
 20
-168.32295907969117
 30
275.0
 10
29.316315470908602
 20
-168.42265238039653
 30
275.0
 10
29.317516436638773
 20
-168.52217546715397
 30
275.0
 10
29.318714457668545
 20
-168.62145452889092
 30
275.0
 10
29.320524413262113
 20
-168.77144412728248
 30
275.0
 10
29.32113894315605
 20
-168.82236973690937
 30
275.0
 10
29.321751844266085
 20
-168.87316037047256
 30
275.0
 10
29.322362918704133
 20
-168.92379962920342
 30
275.0
 10
29.32297170981727
 20
-168.97424967054718
 30
275.0
 10
29.32357624640649
 20
-169.0243471428673
 30
275.0
 10
29.32417445464331
 20
-169.07392018958106
 30
275.0
 10
29.32506568972016
 20
-169.1477761403703
 30
275.0
 10
29.32536379757287
 20
-169.17248010397603
 30
275.0
 10
29.325657819301213
 20
-169.1968454536508
 30
275.0
 10
29.325948117060683
 20
-169.22090220097797
 30
275.0
 10
29.3262307271344
 20
-169.24432187579265
 30
275.0
 10
29.326499781179518
 20
-169.2666181731876
 30
275.0
 10
29.326743328665945
 20
-169.28680076208954
 30
275.0
 10
29.32702213497533
 20
-169.30990522195617
 30
275.0
 10
29.327088321728162
 20
-169.31539006617618
 30
275.0
 10
29.32714508734807
 20
-169.32009418851143
 30
275.0
 10
29.327193229007847
 20
-169.32408365004446
 30
275.0
 10
29.327233543880286
 20
-169.32742451185783
 30
275.0
 10
29.32726682913817
 20
-169.33018283503418
 30
275.0
 10
29.327293881954276
 20
-169.33242468065598
 30
275.0
 10
29.327354474653006
 20
-169.33744595000698
 30
275.0
 10
29.32744815086801
 20
-169.33760798115296
 30
275.0
 10
29.32740889011695
 20
-169.33781817565145
 30
275.0
 10
29.32729386106738
 20
-169.33877571627812
 30
275.0
 10
29.32725492011221
 20
-169.33983744840012
 30
275.0
 10
29.32738849239818
 20
-169.34009233220027
 30
275.0
 10
29.327585452854226
 20
-169.3394358949008
 30
275.0
 10
29.327381007219937
 20
-169.33964468298726
 30
275.0
  0
ENDSEC
  0
SECTION
  2
OBJECTS
  0
DICTIONARY
  5
A
330
0
100
AcDbDictionary
281
1
  3
ACAD_COLOR
350
B
  3
ACAD_GROUP
350
C
  3
ACAD_LAYOUT
350
D
  3
ACAD_MATERIAL
350
E
  3
ACAD_MLEADERSTYLE
350
F
  3
ACAD_MLINESTYLE
350
10
  3
ACAD_PLOTSETTINGS
350
11
  3
ACAD_PLOTSTYLENAME
350
12
  3
ACAD_SCALELIST
350
14
  3
ACAD_TABLESTYLE
350
15
  3
ACAD_VISUALSTYLE
350
16
  3
EZDXF_META
350
2D
  0
DICTIONARY
  5
B
330
A
100
AcDbDictionary
281
1
  0
DICTIONARY
  5
C
330
A
100
AcDbDictionary
281
1
  0
DICTIONARY
  5
D
330
A
100
AcDbDictionary
281
1
  3
Model
350
1A
  3
Layout1
350
1E
  0
DICTIONARY
  5
E
330
A
100
AcDbDictionary
281
1
  3
ByBlock
350
1F
  3
ByLayer
350
20
  3
Global
350
21
  0
DICTIONARY
  5
F
330
A
100
AcDbDictionary
281
1
  3
Standard
350
2C
  0
DICTIONARY
  5
10
330
A
100
AcDbDictionary
281
1
  3
Standard
350
22
  0
DICTIONARY
  5
11
330
A
100
AcDbDictionary
281
1
  0
ACDBDICTIONARYWDFLT
  5
12
330
A
100
AcDbDictionary
281
1
  3
Normal
350
13
100
AcDbDictionaryWithDefault
340
13
  0
ACDBPLACEHOLDER
  5
13
330
12
  0
DICTIONARY
  5
14
330
A
100
AcDbDictionary
281
1
  0
DICTIONARY
  5
15
330
A
100
AcDbDictionary
281
1
  0
DICTIONARY
  5
16
330
A
100
AcDbDictionary
281
1
  0
LAYOUT
  5
1A
330
D
100
AcDbPlotSettings
  1

  2
Adobe PDF
  4
A3
  6

 40
7.5
 41
20.0
 42
7.5
 43
20.0
 44
420.0
 45
297.0
 46
0.0
 47
0.0
 48
0.0
 49
0.0
140
0.0
141
0.0
142
1.0
143
1.0
 70
1024
 72
1
 73
1
 74
5
  7

 75
16
 76
0
 77
2
 78
300
147
1.0
148
0.0
149
0.0
100
AcDbLayout
  1
Model
 70
1
 71
0
 10
0.0
 20
0.0
 11
420.0
 21
297.0
 12
0.0
 22
0.0
 32
0.0
 14
1e+20
 24
1e+20
 34
1e+20
 15
-1e+20
 25
-1e+20
 35
-1e+20
146
0.0
 13
0.0
 23
0.0
 33
0.0
 16
1.0
 26
0.0
 36
0.0
 17
0.0
 27
1.0
 37
0.0
 76
1
330
17
  0
LAYOUT
  5
1E
330
D
100
AcDbPlotSettings
  1

  2
Adobe PDF
  4
A3
  6

 40
7.5
 41
20.0
 42
7.5
 43
20.0
 44
420.0
 45
297.0
 46
0.0
 47
0.0
 48
0.0
 49
0.0
140
0.0
141
0.0
142
1.0
143
1.0
 70
0
 72
1
 73
1
 74
5
  7

 75
16
 76
0
 77
2
 78
300
147
1.0
148
0.0
149
0.0
100
AcDbLayout
  1
Layout1
 70
1
 71
1
 10
0.0
 20
0.0
 11
420.0
 21
297.0
 12
0.0
 22
0.0
 32
0.0
 14
1e+20
 24
1e+20
 34
1e+20
 15
-1e+20
 25
-1e+20
 35
-1e+20
146
0.0
 13
0.0
 23
0.0
 33
0.0
 16
1.0
 26
0.0
 36
0.0
 17
0.0
 27
1.0
 37
0.0
 76
1
330
1B
  0
MATERIAL
  5
1F
102
{ACAD_REACTORS
330
E
102
}
330
E
100
AcDbMaterial
  1
ByBlock
  2

 70
0
 40
1.0
 71
1
 41
1.0
 91
-1023410177
 42
1.0
 72
1
  3

 73
1
 74
1
 75
1
 44
0.5
 73
0
 45
1.0
 46
1.0
 77
1
  4

 78
1
 79
1
170
1
 48
1.0
171
1
  6

172
1
173
1
174
1
140
1.0
141
1.0
175
1
  7

176
1
177
1
178
1
143
1.0
179
1
  8

270
1
271
1
272
1
145
1.0
146
1.0
273
1
  9

274
1
275
1
276
1
 42
1.0
 72
1
  3

 73
1
 74
1
 75
1
 94
63
  0
MATERIAL
  5
20
102
{ACAD_REACTORS
330
E
102
}
330
E
100
AcDbMaterial
  1
ByLayer
  2

 70
0
 40
1.0
 71
1
 41
1.0
 91
-1023410177
 42
1.0
 72
1
  3

 73
1
 74
1
 75
1
 44
0.5
 73
0
 45
1.0
 46
1.0
 77
1
  4

 78
1
 79
1
170
1
 48
1.0
171
1
  6

172
1
173
1
174
1
140
1.0
141
1.0
175
1
  7

176
1
177
1
178
1
143
1.0
179
1
  8

270
1
271
1
272
1
145
1.0
146
1.0
273
1
  9

274
1
275
1
276
1
 42
1.0
 72
1
  3

 73
1
 74
1
 75
1
 94
63
  0
MATERIAL
  5
21
102
{ACAD_REACTORS
330
E
102
}
330
E
100
AcDbMaterial
  1
Global
  2

 70
0
 40
1.0
 71
1
 41
1.0
 91
-1023410177
 42
1.0
 72
1
  3

 73
1
 74
1
 75
1
 44
0.5
 73
0
 45
1.0
 46
1.0
 77
1
  4

 78
1
 79
1
170
1
 48
1.0
171
1
  6

172
1
173
1
174
1
140
1.0
141
1.0
175
1
  7

176
1
177
1
178
1
143
1.0
179
1
  8

270
1
271
1
272
1
145
1.0
146
1.0
273
1
  9

274
1
275
1
276
1
 42
1.0
 72
1
  3

 73
1
 74
1
 75
1
 94
63
  0
MLINESTYLE
  5
22
102
{ACAD_REACTORS
330
10
102
}
330
10
100
AcDbMlineStyle
  2
Standard
 70
0
  3

 62
256
 51
90.0
 52
90.0
 71
2
 49
0.5
 62
256
  6
BYLAYER
 49
-0.5
 62
256
  6
BYLAYER
  0
MLEADERSTYLE
  5
2C
102
{ACAD_REACTORS
330
F
102
}
330
F
100
AcDbMLeaderStyle
179
2
170
2
171
1
172
0
 90
2
 40
0.0
 41
0.0
173
1
 91
-1056964608
 92
-2
290
1
 42
2.0
291
1
 43
8.0
  3
Standard
 44
4.0
300

342
29
174
1
175
1
176
0
178
1
 93
-1056964608
 45
4.0
292
0
297
0
 46
4.0
 94
-1056964608
 47
1.0
 49
1.0
140
1.0
294
1
141
0.0
177
0
142
1.0
295
0
296
0
143
3.75
271
0
272
9
273
9
  0
DICTIONARY
  5
2D
330
A
100
AcDbDictionary
280
1
281
1
  3
CREATED_BY_EZDXF
350
2E
  3
WRITTEN_BY_EZDXF
350
6E
  0
DICTIONARYVAR
  5
2E
330
2D
100
DictionaryVariables
280
0
  1
0.17 @ 2022-02-15T16:29:01.849309+00:00
  0
DICTIONARYVAR
  5
6E
330
2D
100
DictionaryVariables
280
0
  1
0.17 @ 2022-02-15T16:29:01.928127+00:00
  0
ENDSEC
  0
EOF
