  0
SECTION
  2
HEADER
  9
$ACADVER
  1
AC1027
  9
$ACADMAINTVER
 70
105
  9
$DWGCODEPAGE
  3
ANSI_1252
  9
$LASTSAVEDBY
  1
ezdxf
  9
$REQUIREDVERSIONS
160
0
  9
$INSBASE
 10
0.0
 20
0.0
 30
0.0
  9
$EXTMIN
 10
1e+20
 20
1e+20
 30
1e+20
  9
$EXTMAX
 10
-1e+20
 20
-1e+20
 30
-1e+20
  9
$LIMMIN
 10
0.0
 20
0.0
  9
$LIMMAX
 10
420.0
 20
297.0
  9
$ORTHOMODE
 70
0
  9
$REGENMODE
 70
1
  9
$FILLMODE
 70
1
  9
$QTEXTMODE
 70
0
  9
$MIRRTEXT
 70
1
  9
$LTSCALE
 40
1.0
  9
$ATTMODE
 70
1
  9
$TEXTSIZE
 40
2.5
  9
$TRACEWID
 40
1.0
  9
$TEXTSTYLE
  7
Standard
  9
$CLAYER
  8
0
  9
$CELTYPE
  6
ByLayer
  9
$CECOLOR
 62
256
  9
$CELTSCALE
 40
1.0
  9
$DISPSILH
 70
0
  9
$DIMSCALE
 40
1.0
  9
$DIMASZ
 40
2.5
  9
$DIMEXO
 40
0.625
  9
$DIMDLI
 40
3.75
  9
$DIMRND
 40
0.0
  9
$DIMDLE
 40
0.0
  9
$DIMEXE
 40
1.25
  9
$DIMTP
 40
0.0
  9
$DIMTM
 40
0.0
  9
$DIMTXT
 40
2.5
  9
$DIMCEN
 40
2.5
  9
$DIMTSZ
 40
0.0
  9
$DIMTOL
 70
0
  9
$DIMLIM
 70
0
  9
$DIMTIH
 70
0
  9
$DIMTOH
 70
0
  9
$DIMSE1
 70
0
  9
$DIMSE2
 70
0
  9
$DIMTAD
 70
1
  9
$DIMZIN
 70
8
  9
$DIMBLK
  1

  9
$DIMASO
 70
1
  9
$DIMSHO
 70
1
  9
$DIMPOST
  1

  9
$DIMAPOST
  1

  9
$DIMALT
 70
0
  9
$DIMALTD
 70
3
  9
$DIMALTF
 40
0.03937007874
  9
$DIMLFAC
 40
1.0
  9
$DIMTOFL
 70
1
  9
$DIMTVP
 40
0.0
  9
$DIMTIX
 70
0
  9
$DIMSOXD
 70
0
  9
$DIMSAH
 70
0
  9
$DIMBLK1
  1

  9
$DIMBLK2
  1

  9
$DIMSTYLE
  2
ISO-25
  9
$DIMCLRD
 70
0
  9
$DIMCLRE
 70
0
  9
$DIMCLRT
 70
0
  9
$DIMTFAC
 40
1.0
  9
$DIMGAP
 40
0.625
  9
$DIMJUST
 70
0
  9
$DIMSD1
 70
0
  9
$DIMSD2
 70
0
  9
$DIMTOLJ
 70
0
  9
$DIMTZIN
 70
8
  9
$DIMALTZ
 70
0
  9
$DIMALTTZ
 70
0
  9
$DIMUPT
 70
0
  9
$DIMDEC
 70
2
  9
$DIMTDEC
 70
2
  9
$DIMALTU
 70
2
  9
$DIMALTTD
 70
3
  9
$DIMTXSTY
  7
Standard
  9
$DIMAUNIT
 70
0
  9
$DIMADEC
 70
0
  9
$DIMALTRND
 40
0.0
  9
$DIMAZIN
 70
0
  9
$DIMDSEP
 70
44
  9
$DIMATFIT
 70
3
  9
$DIMFRAC
 70
0
  9
$DIMLDRBLK
  1

  9
$DIMLUNIT
 70
2
  9
$DIMLWD
 70
-2
  9
$DIMLWE
 70
-2
  9
$DIMTMOVE
 70
0
  9
$DIMFXL
 40
1.0
  9
$DIMFXLON
 70
0
  9
$DIMJOGANG
 40
0.785398163397
  9
$DIMTFILL
 70
0
  9
$DIMTFILLCLR
 70
0
  9
$DIMARCSYM
 70
0
  9
$DIMLTYPE
  6

  9
$DIMLTEX1
  6

  9
$DIMLTEX2
  6

  9
$DIMTXTDIRECTION
 70
0
  9
$LUNITS
 70
2
  9
$LUPREC
 70
4
  9
$SKETCHINC
 40
1.0
  9
$FILLETRAD
 40
10.0
  9
$AUNITS
 70
0
  9
$AUPREC
 70
2
  9
$MENU
  1
.
  9
$ELEVATION
 40
0.0
  9
$PELEVATION
 40
0.0
  9
$THICKNESS
 40
0.0
  9
$LIMCHECK
 70
0
  9
$CHAMFERA
 40
0.0
  9
$CHAMFERB
 40
0.0
  9
$CHAMFERC
 40
0.0
  9
$CHAMFERD
 40
0.0
  9
$SKPOLY
 70
0
  9
$TDCREATE
 40
2459626.7285185186
  9
$TDUCREATE
 40
2458532.153996898
  9
$TDUPDATE
 40
2459626.7285185186
  9
$TDUUPDATE
 40
2458532.1544311
  9
$TDINDWG
 40
0.0
  9
$TDUSRTIMER
 40
0.0
  9
$USRTIMER
 70
1
  9
$ANGBASE
 50
0.0
  9
$ANGDIR
 70
0
  9
$PDMODE
 70
0
  9
$PDSIZE
 40
0.0
  9
$PLINEWID
 40
0.0
  9
$SPLFRAME
 70
0
  9
$SPLINETYPE
 70
6
  9
$SPLINESEGS
 70
8
  9
$HANDSEED
  5
71
  9
$SURFTAB1
 70
6
  9
$SURFTAB2
 70
6
  9
$SURFTYPE
 70
6
  9
$SURFU
 70
6
  9
$SURFV
 70
6
  9
$UCSBASE
  2

  9
$UCSNAME
  2

  9
$UCSORG
 10
0.0
 20
0.0
 30
0.0
  9
$UCSXDIR
 10
1.0
 20
0.0
 30
0.0
  9
$UCSYDIR
 10
0.0
 20
1.0
 30
0.0
  9
$UCSORTHOREF
  2

  9
$UCSORTHOVIEW
 70
0
  9
$UCSORGTOP
 10
0.0
 20
0.0
 30
0.0
  9
$UCSORGBOTTOM
 10
0.0
 20
0.0
 30
0.0
  9
$UCSORGLEFT
 10
0.0
 20
0.0
 30
0.0
  9
$UCSORGRIGHT
 10
0.0
 20
0.0
 30
0.0
  9
$UCSORGFRONT
 10
0.0
 20
0.0
 30
0.0
  9
$UCSORGBACK
 10
0.0
 20
0.0
 30
0.0
  9
$PUCSBASE
  2

  9
$PUCSNAME
  2

  9
$PUCSORG
 10
0.0
 20
0.0
 30
0.0
  9
$PUCSXDIR
 10
1.0
 20
0.0
 30
0.0
  9
$PUCSYDIR
 10
0.0
 20
1.0
 30
0.0
  9
$PUCSORTHOREF
  2

  9
$PUCSORTHOVIEW
 70
0
  9
$PUCSORGTOP
 10
0.0
 20
0.0
 30
0.0
  9
$PUCSORGBOTTOM
 10
0.0
 20
0.0
 30
0.0
  9
$PUCSORGLEFT
 10
0.0
 20
0.0
 30
0.0
  9
$PUCSORGRIGHT
 10
0.0
 20
0.0
 30
0.0
  9
$PUCSORGFRONT
 10
0.0
 20
0.0
 30
0.0
  9
$PUCSORGBACK
 10
0.0
 20
0.0
 30
0.0
  9
$USERI1
 70
0
  9
$USERI2
 70
0
  9
$USERI3
 70
0
  9
$USERI4
 70
0
  9
$USERI5
 70
0
  9
$USERR1
 40
0.0
  9
$USERR2
 40
0.0
  9
$USERR3
 40
0.0
  9
$USERR4
 40
0.0
  9
$USERR5
 40
0.0
  9
$WORLDVIEW
 70
1
  9
$SHADEDGE
 70
3
  9
$SHADEDIF
 70
70
  9
$TILEMODE
 70
1
  9
$MAXACTVP
 70
64
  9
$PINSBASE
 10
0.0
 20
0.0
 30
0.0
  9
$PLIMCHECK
 70
0
  9
$PEXTMIN
 10
1e+20
 20
1e+20
 30
1e+20
  9
$PEXTMAX
 10
-1e+20
 20
-1e+20
 30
-1e+20
  9
$PLIMMIN
 10
0.0
 20
0.0
  9
$PLIMMAX
 10
420.0
 20
297.0
  9
$UNITMODE
 70
0
  9
$VISRETAIN
 70
1
  9
$PLINEGEN
 70
0
  9
$PSLTSCALE
 70
1
  9
$TREEDEPTH
 70
3020
  9
$CMLSTYLE
  2
Standard
  9
$CMLJUST
 70
0
  9
$CMLSCALE
 40
20.0
  9
$PROXYGRAPHICS
 70
1
  9
$MEASUREMENT
 70
1
  9
$CELWEIGHT
370
-1
  9
$ENDCAPS
280
0
  9
$JOINSTYLE
280
0
  9
$LWDISPLAY
290
0
  9
$INSUNITS
 70
6
  9
$HYPERLINKBASE
  1

  9
$STYLESHEET
  1

  9
$XEDIT
290
1
  9
$CEPSNTYPE
380
0
  9
$PSTYLEMODE
290
1
  9
$FINGERPRINTGUID
  2
{41E9BB9A-101C-401C-A5E9-9C76F088F892}
  9
$VERSIONGUID
  2
{CA2FFD8C-89A2-425C-9C0B-D115B89C3A7B}
  9
$EXTNAMES
290
1
  9
$PSVPSCALE
 40
0.0
  9
$OLESTARTUP
290
0
  9
$SORTENTS
280
127
  9
$INDEXCTL
280
0
  9
$HIDETEXT
280
1
  9
$XCLIPFRAME
280
0
  9
$HALOGAP
280
0
  9
$OBSCOLOR
 70
257
  9
$OBSLTYPE
280
0
  9
$INTERSECTIONDISPLAY
280
0
  9
$INTERSECTIONCOLOR
 70
257
  9
$DIMASSOC
280
2
  9
$PROJECTNAME
  1

  9
$CAMERADISPLAY
290
0
  9
$LENSLENGTH
 40
50.0
  9
$CAMERAHEIGHT
 40
0.0
  9
$STEPSPERSEC
 40
24.0
  9
$STEPSIZE
 40
100.0
  9
$3DDWFPREC
 40
2.0
  9
$PSOLWIDTH
 40
0.005
  9
$PSOLHEIGHT
 40
0.08
  9
$LOFTANG1
 40
1.570796326795
  9
$LOFTANG2
 40
1.570796326795
  9
$LOFTMAG1
 40
0.0
  9
$LOFTMAG2
 40
0.0
  9
$LOFTPARAM
 70
7
  9
$LOFTNORMALS
280
1
  9
$LATITUDE
 40
37.795
  9
$LONGITUDE
 40
-122.394
  9
$NORTHDIRECTION
 40
0.0
  9
$TIMEZONE
 70
-8000
  9
$LIGHTGLYPHDISPLAY
280
1
  9
$TILEMODELIGHTSYNCH
280
1
  9
$CMATERIAL
347
20
  9
$SOLIDHIST
280
0
  9
$SHOWHIST
280
1
  9
$DWFFRAME
280
2
  9
$DGNFRAME
280
2
  9
$REALWORLDSCALE
290
1
  9
$INTERFERECOLOR
 62
256
  9
$CSHADOW
280
0
  9
$SHADOWPLANELOCATION
 40
0.0
  0
ENDSEC
  0
SECTION
  2
CLASSES
  0
CLASS
  1
ACDBDICTIONARYWDFLT
  2
AcDbDictionaryWithDefault
  3
ObjectDBX Classes
 90
0
 91
0
280
0
281
0
  0
CLASS
  1
SUN
  2
AcDbSun
  3
SCENEOE
 90
1153
 91
0
280
0
281
0
  0
CLASS
  1
VISUALSTYLE
  2
AcDbVisualStyle
  3
ObjectDBX Classes
 90
4095
 91
0
280
0
281
0
  0
CLASS
  1
MATERIAL
  2
AcDbMaterial
  3
ObjectDBX Classes
 90
1153
 91
0
280
0
281
0
  0
CLASS
  1
SCALE
  2
AcDbScale
  3
ObjectDBX Classes
 90
1153
 91
0
280
0
281
0
  0
CLASS
  1
TABLESTYLE
  2
AcDbTableStyle
  3
ObjectDBX Classes
 90
4095
 91
0
280
0
281
0
  0
CLASS
  1
MLEADERSTYLE
  2
AcDbMLeaderStyle
  3
ACDB_MLEADERSTYLE_CLASS
 90
4095
 91
0
280
0
281
0
  0
CLASS
  1
DICTIONARYVAR
  2
AcDbDictionaryVar
  3
ObjectDBX Classes
 90
0
 91
0
280
0
281
0
  0
CLASS
  1
CELLSTYLEMAP
  2
AcDbCellStyleMap
  3
ObjectDBX Classes
 90
1152
 91
0
280
0
281
0
  0
CLASS
  1
MENTALRAYRENDERSETTINGS
  2
AcDbMentalRayRenderSettings
  3
SCENEOE
 90
1024
 91
0
280
0
281
0
  0
CLASS
  1
ACDBDETAILVIEWSTYLE
  2
AcDbDetailViewStyle
  3
ObjectDBX Classes
 90
1025
 91
0
280
0
281
0
  0
CLASS
  1
ACDBSECTIONVIEWSTYLE
  2
AcDbSectionViewStyle
  3
ObjectDBX Classes
 90
1025
 91
0
280
0
281
0
  0
CLASS
  1
RASTERVARIABLES
  2
AcDbRasterVariables
  3
ISM
 90
0
 91
0
280
0
281
0
  0
CLASS
  1
ACDBPLACEHOLDER
  2
AcDbPlaceHolder
  3
ObjectDBX Classes
 90
0
 91
0
280
0
281
0
  0
CLASS
  1
LAYOUT
  2
AcDbLayout
  3
ObjectDBX Classes
 90
0
 91
0
280
0
281
0
  0
ENDSEC
  0
SECTION
  2
TABLES
  0
TABLE
  2
VPORT
  5
8
330
0
100
AcDbSymbolTable
 70
1
  0
VPORT
  5
23
330
8
100
AcDbSymbolTableRecord
100
AcDbViewportTableRecord
  2
*Active
 70
0
 10
0.0
 20
0.0
 11
1.0
 21
1.0
 12
344.2
 22
148.5
 13
0.0
 23
0.0
 14
0.5
 24
0.5
 15
0.5
 25
0.5
 16
0.0
 26
0.0
 36
1.0
 17
0.0
 27
0.0
 37
0.0
 40
297.0
 41
1.34
 42
50.0
 43
0.0
 44
0.0
 50
0.0
 51
0.0
 71
0
 72
1000
 73
1
 74
3
 75
0
 76
0
 77
0
 78
0
281
0
 65
0
146
0.0
  0
ENDTAB
  0
TABLE
  2
LTYPE
  5
2
330
0
100
AcDbSymbolTable
 70
3
  0
LTYPE
  5
24
330
2
100
AcDbSymbolTableRecord
100
AcDbLinetypeTableRecord
  2
ByBlock
 70
0
  3

 72
65
 73
0
 40
0.0
  0
LTYPE
  5
25
330
2
100
AcDbSymbolTableRecord
100
AcDbLinetypeTableRecord
  2
ByLayer
 70
0
  3

 72
65
 73
0
 40
0.0
  0
LTYPE
  5
26
330
2
100
AcDbSymbolTableRecord
100
AcDbLinetypeTableRecord
  2
Continuous
 70
0
  3

 72
65
 73
0
 40
0.0
  0
ENDTAB
  0
TABLE
  2
LAYER
  5
1
330
0
100
AcDbSymbolTable
 70
2
  0
LAYER
  5
27
330
1
100
AcDbSymbolTableRecord
100
AcDbLayerTableRecord
  2
0
 70
0
 62
7
  6
Continuous
370
-3
390
13
347
21
  0
LAYER
  5
28
330
1
100
AcDbSymbolTableRecord
100
AcDbLayerTableRecord
  2
Defpoints
 70
0
 62
7
  6
Continuous
290
0
370
-3
390
13
347
21
  0
ENDTAB
  0
TABLE
  2
STYLE
  5
5
330
0
100
AcDbSymbolTable
 70
1
  0
STYLE
  5
29
330
5
100
AcDbSymbolTableRecord
100
AcDbTextStyleTableRecord
  2
Standard
 70
0
 40
0.0
 41
1.0
 50
0.0
 71
0
 42
2.5
  3
txt
  4

  0
ENDTAB
  0
TABLE
  2
VIEW
  5
7
330
0
100
AcDbSymbolTable
 70
0
  0
ENDTAB
  0
TABLE
  2
UCS
  5
6
330
0
100
AcDbSymbolTable
 70
0
  0
ENDTAB
  0
TABLE
  2
APPID
  5
3
330
0
100
AcDbSymbolTable
 70
3
  0
APPID
  5
2A
330
3
100
AcDbSymbolTableRecord
100
AcDbRegAppTableRecord
  2
ACAD
 70
0
  0
APPID
  5
6E
330
3
100
AcDbSymbolTableRecord
100
AcDbRegAppTableRecord
  2
HATCHBACKGROUNDCOLOR
 70
0
  0
APPID
  5
6F
330
3
100
AcDbSymbolTableRecord
100
AcDbRegAppTableRecord
  2
EZDXF
 70
0
  0
ENDTAB
  0
TABLE
  2
DIMSTYLE
  5
4
330
0
100
AcDbSymbolTable
 70
1
100
AcDbDimStyleTable
  0
DIMSTYLE
105
2B
330
4
100
AcDbSymbolTableRecord
100
AcDbDimStyleTableRecord
  2
Standard
 70
0
 40
1.0
 41
2.5
 42
0.625
 43
3.75
 44
1.25
 45
0.0
 46
0.0
 47
0.0
 48
0.0
 49
2.5
140
2.5
141
2.5
142
0.0
143
0.03937007874
144
1.0
145
0.0
146
1.0
147
0.625
148
0.0
 69
0
 70
0
 71
0
 72
0
 73
0
 74
0
 75
0
 76
0
 77
1
 78
8
 79
0
170
0
171
3
172
1
173
0
174
0
175
0
176
0
177
0
178
0
179
0
271
0
272
2
273
2
274
3
275
0
276
0
277
2
278
44
279
0
280
0
281
0
282
0
283
0
284
8
285
0
286
0
288
0
289
3
290
0
371
-2
372
-2
  0
ENDTAB
  0
TABLE
  2
BLOCK_RECORD
  5
9
330
0
100
AcDbSymbolTable
 70
2
  0
BLOCK_RECORD
  5
17
330
9
100
AcDbSymbolTableRecord
100
AcDbBlockTableRecord
  2
*Model_Space
340
1A
 70
0
280
1
281
0
  0
BLOCK_RECORD
  5
1B
330
9
100
AcDbSymbolTableRecord
100
AcDbBlockTableRecord
  2
*Paper_Space
340
1E
 70
0
280
1
281
0
  0
ENDTAB
  0
ENDSEC
  0
SECTION
  2
BLOCKS
  0
BLOCK
  5
18
330
17
100
AcDbEntity
  8
0
100
AcDbBlockBegin
  2
*Model_Space
 70
0
 10
0.0
 20
0.0
 30
0.0
  3
*Model_Space
  1

  0
ENDBLK
  5
19
330
17
100
AcDbEntity
  8
0
100
AcDbBlockEnd
  0
BLOCK
  5
1C
330
1B
100
AcDbEntity
  8
0
100
AcDbBlockBegin
  2
*Paper_Space
 70
0
 10
0.0
 20
0.0
 30
0.0
  3
*Paper_Space
  1

  0
ENDBLK
  5
1D
330
1B
100
AcDbEntity
  8
0
100
AcDbBlockEnd
  0
ENDSEC
  0
SECTION
  2
ENTITIES
  0
SPLINE
  5
2F
330
17
100
AcDbEntity
  8
0
100
AcDbSpline
 70
0
 71
8
 72
81
 73
72
 74
0
 40
0.0
 40
0.0
 40
0.0
 40
0.0
 40
0.0
 40
0.0
 40
0.0
 40
0.0
 40
0.0
 40
0.20939618480409575
 40
0.20939618480409575
 40
0.20939618480409575
 40
0.20939618480409575
 40
0.20939618480409575
 40
0.20939618480409575
 40
0.20939618480409575
 40
0.3078113863861148
 40
0.3078113863861148
 40
0.3078113863861148
 40
0.3078113863861148
 40
0.3078113863861148
 40
0.3078113863861148
 40
0.3078113863861148
 40
0.36741663740264563
 40
0.36741663740264563
 40
0.36741663740264563
 40
0.36741663740264563
 40
0.36741663740264563
 40
0.36741663740264563
 40
0.36741663740264563
 40
0.47553959288698133
 40
0.47553959288698133
 40
0.47553959288698133
 40
0.47553959288698133
 40
0.47553959288698133
 40
0.47553959288698133
 40
0.47553959288698133
 40
0.5056185253047909
 40
0.5056185253047909
 40
0.5056185253047909
 40
0.5056185253047909
 40
0.5056185253047909
 40
0.5056185253047909
 40
0.5056185253047909
 40
0.5356974763304705
 40
0.5356974763304705
 40
0.5356974763304705
 40
0.5356974763304705
 40
0.5356974763304705
 40
0.5356974763304705
 40
0.5356974763304705
 40
0.5969100088337076
 40
0.5969100088337076
 40
0.5969100088337076
 40
0.5969100088337076
 40
0.5969100088337076
 40
0.5969100088337076
 40
0.5969100088337076
 40
0.7656239207010419
 40
0.7656239207010419
 40
0.7656239207010419
 40
0.7656239207010419
 40
0.7656239207010419
 40
0.7656239207010419
 40
0.7656239207010419
 40
0.9221860570349674
 40
0.9221860570349674
 40
0.9221860570349674
 40
0.9221860570349674
 40
0.9221860570349674
 40
0.9221860570349674
 40
0.9221860570349674
 40
1.0
 40
1.0
 40
1.0
 40
1.0
 40
1.0
 40
1.0
 40
1.0
 40
1.0
 40
1.0
 10
52.89108282006708
 20
183.89999998508068
 30
327.0
 10
52.47996479613611
 20
184.8273711508002
 30
327.0
 10
52.04456956398066
 20
185.74321717065212
 30
327.0
 10
51.58135617174708
 20
186.6464209263986
 30
327.0
 10
51.08640165500416
 20
187.53408877088148
 30
327.0
 10
50.55527938951304
 20
188.40147763137406
 30
327.0
 10
49.982727175621754
 20
189.2417687432474
 30
327.0
 10
49.3624362792843
 20
190.04594914232493
 30
327.0
 10
48.36697300506789
 20
191.15683599600237
 30
327.0
 10
48.0364448223673
 20
191.50095515742018
 30
327.0
 10
47.69291843079182
 20
191.83258621732068
 30
327.0
 10
47.33576842440728
 20
192.14993222385024
 30
327.0
 10
46.96453322392601
 20
192.45088401472196
 30
327.0
 10
46.57897372531126
 20
192.73309412470394
 30
327.0
 10
46.1791801494344
 20
192.99411009399623
 30
327.0
 10
45.51537284055594
 20
193.37545072445351
 30
327.0
 10
45.25999943709327
 20
193.51065854545752
 30
327.0
 10
44.99983658723833
 20
193.63668448195554
 30
327.0
 10
44.735133124299445
 20
193.75302183315867
 30
327.0
 10
44.46619838596196
 20
193.8592242997256
 30
327.0
 10
44.19340999312267
 20
193.95492491256593
 30
327.0
 10
43.91722162872426
 20
194.0398549616431
 30
327.0
 10
43.131977183919155
 20
194.2481121656926
 30
327.0
 10
42.616078136975545
 20
194.3464983638213
 30
327.0
 10
42.09397945745546
 20
194.407961298397
 30
327.0
 10
41.56878878890825
 20
194.43319646771332
 30
327.0
 10
41.04320796480058
 20
194.42415140209349
 30
327.0
 10
40.51951903197283
 20
194.38353809648905
 30
327.0
 10
39.99957012936263
 20
194.31442238192722
 30
327.0
 10
39.341553417907924
 20
194.19366989535376
 30
327.0
 10
39.19839298368787
 20
194.1653553363534
 30
327.0
 10
39.055286943808554
 20
194.13506431180585
 30
327.0
 10
38.912239067279096
 20
194.10284741696103
 30
327.0
 10
38.76925602751985
 20
194.0687489085367
 30
327.0
 10
38.62634740236242
 20
194.03280670471895
 30
327.0
 10
38.48352567404967
 20
193.99505238516198
 30
327.0
 10
38.19808669613052
 20
193.91596997235263
 30
327.0
 10
38.05547238689181
 20
193.87463170002582
 30
327.0
 10
37.91298139473001
 20
193.83151139668868
 30
327.0
 10
37.770631812856124
 20
193.786624085022
 30
327.0
 10
37.62844173448161
 20
193.73998478770642
 30
327.0
 10
37.48642925281856
 20
193.69160852742192
 30
327.0
 10
37.344612461079564
 20
193.64151032684828
 30
327.0
 10
36.9148385398952
 20
193.48427857733333
 30
327.0
 10
36.62905232260385
 20
193.37233133377492
 30
327.0
 10
36.3457518294874
 20
193.2541058064326
 30
327.0
 10
36.065028454905104
 20
193.12983179185971
 30
327.0
 10
35.78696420807444
 20
192.99972602845816
 30
327.0
 10
35.51163196245391
 20
192.86399167021654
 30
327.0
 10
35.23909570512579
 20
192.72281776044815
 30
327.0
 10
34.22610552193809
 20
192.1727635503454
 30
327.0
 10
33.50471293649203
 20
191.72928813915956
 30
327.0
 10
32.80608532736069
 20
191.2494941226422
 30
327.0
 10
32.13123087095535
 20
190.73631576376286
 30
327.0
 10
31.48119893840807
 20
190.19224205567266
 30
327.0
 10
30.857046225743154
 20
189.61936548768043
 30
327.0
 10
30.259856443367514
 20
189.01936140712323
 30
327.0
 10
29.16270397900478
 20
187.81260487231614
 30
327.0
 10
28.659050568090386
 20
187.20968695966573
 30
327.0
 10
28.180797000802016
 20
186.58577139134925
 30
327.0
 10
27.72919999363954
 20
185.94189601605026
 30
327.0
 10
27.30574756769566
 20
185.27909300039445
 30
327.0
 10
26.912121540229098
 20
184.59841595593454
 30
327.0
 10
26.550176996029958
 20
183.90095451949304
 30
327.0
 10
26.058798954959013
 20
182.83340500901437
 30
327.0
 10
25.90400005236435
 20
182.47513764603298
 30
327.0
 10
25.757795251733352
 20
182.11319102648008
 30
327.0
 10
25.62045197656249
 20
181.7477379882467
 30
327.0
 10
25.492248081061472
 20
181.3789687886205
 30
327.0
 10
25.37346807830988
 20
181.00709241435302
 30
327.0
 10
25.26439936841383
 20
180.63233789172637
 30
327.0
 10
25.165328466662608
 20
180.25495559662042
 30
327.0
  0
LINE
  5
30
330
17
100
AcDbEntity
  8
0
100
AcDbLine
 10
36.86572807935584
 20
183.9
 30
327.0
 11
52.89108285372099
 21
183.9
 31
327.0
  0
SPLINE
  5
31
330
17
100
AcDbEntity
  8
0
100
AcDbSpline
 70
0
 71
1
 72
4
 73
2
 74
0
 40
0.0
 40
0.0
 40
1.0
 40
1.0
 10
36.86572807877122
 20
183.90000060000014
 30
327.0
 10
36.86572807877122
 20
180.0999993999999
 30
327.0
  0
LINE
  5
32
330
17
100
AcDbEntity
  8
0
100
AcDbLine
 10
36.86572807935584
 20
180.1
 30
327.0
 11
54.392488634045556
 21
180.1
 31
327.0
  0
SPLINE
  5
33
330
17
100
AcDbEntity
  8
0
100
AcDbSpline
 70
0
 71
8
 72
46
 73
37
 74
0
 40
0.0
 40
0.0
 40
0.0
 40
0.0
 40
0.0
 40
0.0
 40
0.0
 40
0.0
 40
0.0
 40
0.061903874415656146
 40
0.061903874415656146
 40
0.061903874415656146
 40
0.061903874415656146
 40
0.061903874415656146
 40
0.061903874415656146
 40
0.061903874415656146
 40
0.5201344269546165
 40
0.5201344269546165
 40
0.5201344269546165
 40
0.5201344269546165
 40
0.5201344269546165
 40
0.5201344269546165
 40
0.5201344269546165
 40
0.6796549812659343
 40
0.6796549812659343
 40
0.6796549812659343
 40
0.6796549812659343
 40
0.6796549812659343
 40
0.6796549812659343
 40
0.6796549812659343
 40
0.9189172760662223
 40
0.9189172760662223
 40
0.9189172760662223
 40
0.9189172760662223
 40
0.9189172760662223
 40
0.9189172760662223
 40
0.9189172760662223
 40
1.0
 40
1.0
 40
1.0
 40
1.0
 40
1.0
 40
1.0
 40
1.0
 40
1.0
 40
1.0
 10
59.702897674586055
 20
157.9000000068704
 30
327.0
 10
59.670697570378834
 20
158.08445818183526
 30
327.0
 10
59.638364782414584
 20
158.26889312498545
 30
327.0
 10
59.60589788710681
 20
158.45330448183526
 30
327.0
 10
59.57329542906322
 20
158.63769188994
 30
327.0
 10
59.540555919954905
 20
158.8220549787103
 30
327.0
 10
59.50767783734286
 20
159.00639336921958
 30
327.0
 10
59.47465962346176
 20
159.19070667400416
 30
327.0
 10
59.19604013004768
 20
160.73914676824378
 30
327.0
 10
58.94282110046742
 20
162.10186741226005
 30
327.0
 10
58.68118923279225
 20
163.46302101308495
 30
327.0
 10
58.41038767714288
 20
164.82241224355974
 30
327.0
 10
58.12951034637826
 20
166.17977596692253
 30
327.0
 10
57.83746578332717
 20
167.53476973180912
 30
327.0
 10
57.532886866914374
 20
168.886954926641
 30
327.0
 10
57.102883802317
 20
170.705300323599
 30
327.0
 10
56.99130504004722
 20
171.16934846610053
 30
327.0
 10
56.879186345283166
 20
171.6278372984535
 30
327.0
 10
56.76652777108364
 20
172.08070683208547
 30
327.0
 10
56.65332937050755
 20
172.52789707842524
 30
327.0
 10
56.53959119661397
 20
172.96934804890245
 30
327.0
 10
56.4253133024621
 20
173.4049997549477
 30
327.0
 10
56.13828274115785
 20
174.47943094465805
 30
327.0
 10
55.96483198786095
 20
175.111035668663
 30
327.0
 10
55.79008099922278
 20
175.72915991283705
 30
327.0
 10
55.61446870163323
 20
176.3336552857007
 30
327.0
 10
55.4371192407001
 20
176.92415981534268
 30
327.0
 10
55.25891375137039
 20
177.50099564192342
 30
327.0
 10
55.079472621090886
 20
178.06425513585182
 30
327.0
 10
54.83763994218907
 20
178.80074837267287
 30
327.0
 10
54.775857456328616
 20
178.98697297920205
 30
327.0
 10
54.71349159601001
 20
179.17300244720695
 30
327.0
 10
54.650530681836855
 20
179.3588308560497
 30
327.0
 10
54.58696264318389
 20
179.54445184862337
 30
327.0
 10
54.522774994714496
 20
179.72985862269576
 30
327.0
 10
54.4579548073486
 20
179.91504392013667
 30
327.0
 10
54.39248867368073
 20
180.10000001402906
 30
327.0
  0
LINE
  5
34
330
17
100
AcDbEntity
  8
0
100
AcDbLine
 10
36.86572807935584
 20
157.9
 30
327.0
 11
59.70289763522894
 21
157.9
 31
327.0
  0
SPLINE
  5
35
330
17
100
AcDbEntity
  8
0
100
AcDbSpline
 70
0
 71
1
 72
4
 73
2
 74
0
 40
0.0
 40
0.0
 40
1.0
 40
1.0
 10
36.86572807877122
 20
157.90000060000042
 30
327.0
 10
36.86572807877122
 20
154.09999939999918
 30
327.0
  0
LINE
  5
36
330
17
100
AcDbEntity
  8
0
100
AcDbLine
 10
36.86572807935584
 20
154.1
 30
327.0
 11
60.342233778131245
 21
154.1
 31
327.0
  0
SPLINE
  5
37
330
17
100
AcDbEntity
  8
0
100
AcDbSpline
 70
0
 71
8
 72
25
 73
16
 74
0
 40
0.0
 40
0.0
 40
0.0
 40
0.0
 40
0.0
 40
0.0
 40
0.0
 40
0.0
 40
0.0
 40
0.6684981421493695
 40
0.6684981421493695
 40
0.6684981421493695
 40
0.6684981421493695
 40
0.6684981421493695
 40
0.6684981421493695
 40
0.6684981421493695
 40
1.0
 40
1.0
 40
1.0
 40
1.0
 40
1.0
 40
1.0
 40
1.0
 40
1.0
 40
1.0
 10
63.36857918778308
 20
131.89999999858563
 30
327.0
 10
63.153534967081924
 20
133.76002690787206
 30
327.0
 10
62.93256376946779
 20
135.6193678169963
 30
327.0
 10
62.705339765297296
 20
137.4779632160951
 30
327.0
 10
62.47149436013307
 20
139.33574179788863
 30
327.0
 10
62.23060699773163
 20
141.19261929502196
 30
327.0
 10
61.98219261789055
 20
143.04849690540445
 30
327.0
 10
61.72568152309141
 20
144.9032587575489
 30
327.0
 10
61.32883058441323
 20
147.67590537165125
 30
326.99999999999994
 10
61.19511454079097
 20
148.59472956601758
 30
327.0
 10
61.05915578139973
 20
149.51322463762602
 30
327.0
 10
60.92086338849754
 20
150.43137188000944
 30
327.0
 10
60.78013852527542
 20
151.34914961826445
 30
327.0
 10
60.636873304008766
 20
152.26653302814702
 30
327.0
 10
60.49094901929335
 20
153.18349384961914
 30
327.0
 10
60.34223374636615
 20
154.09999999484563
 30
327.0
  0
LINE
  5
38
330
17
100
AcDbEntity
  8
0
100
AcDbLine
 10
36.86572807935584
 20
131.9
 30
327.0
 11
63.36857920001724
 21
131.9
 31
327.0
  0
SPLINE
  5
39
330
17
100
AcDbEntity
  8
0
100
AcDbSpline
 70
0
 71
1
 72
4
 73
2
 74
0
 40
0.0
 40
0.0
 40
1.0
 40
1.0
 10
36.86572807877122
 20
131.90000060000256
 30
327.0
 10
36.86572807877122
 20
128.09999939999764
 30
327.0
  0
LINE
  5
3A
330
17
100
AcDbEntity
  8
0
100
AcDbLine
 10
36.86572807935584
 20
128.1
 30
327.0
 11
63.79724719079357
 21
128.1
 31
327.0
  0
SPLINE
  5
3B
330
17
100
AcDbEntity
  8
0
100
AcDbSpline
 70
0
 71
8
 72
25
 73
16
 74
0
 40
0.0
 40
0.0
 40
0.0
 40
0.0
 40
0.0
 40
0.0
 40
0.0
 40
0.0
 40
0.0
 40
0.8589847955224074
 40
0.8589847955224074
 40
0.8589847955224074
 40
0.8589847955224074
 40
0.8589847955224074
 40
0.8589847955224074
 40
0.8589847955224074
 40
1.0
 40
1.0
 40
1.0
 40
1.0
 40
1.0
 40
1.0
 40
1.0
 40
1.0
 40
1.0
 10
65.93965791087156
 20
105.89999999735403
 30
327.0
 10
65.73802322792204
 20
108.28632391800714
 30
327.0
 10
65.53012844383738
 20
110.67211770669073
 30
327.0
 10
65.31572914194115
 20
113.05734256384457
 30
327.0
 10
65.09454590767176
 20
115.44195224411548
 30
327.0
 10
64.8662591996926
 20
117.82589257897577
 30
327.0
 10
64.63050054002642
 20
120.20910064550695
 30
327.0
 10
64.38684002321347
 20
122.59150358134877
 30
327.0
 10
64.09338910297183
 20
125.36397810811437
 30
327.0
 10
64.0517814836125
 20
125.7549146564631
 30
327.0
 10
64.00994502896906
 20
126.14582637340459
 30
327.0
 10
63.967877426626366
 20
126.53671292214952
 30
327.0
 10
63.92557630622802
 20
126.92757394618951
 30
327.0
 10
63.88303923655539
 20
127.31840906892047
 30
327.0
 10
63.84026372258212
 20
127.70921789326454
 30
327.0
 10
63.79724720242779
 20
128.10000000128068
 30
327.0
  0
LINE
  5
3C
330
17
100
AcDbEntity
  8
0
100
AcDbLine
 10
36.86572807935584
 20
105.9
 30
327.0
 11
65.93965794218606
 21
105.9
 31
327.0
  0
SPLINE
  5
3D
330
17
100
AcDbEntity
  8
0
100
AcDbSpline
 70
0
 71
1
 72
4
 73
2
 74
0
 40
0.0
 40
0.0
 40
1.0
 40
1.0
 10
36.86572807877122
 20
105.90000060000206
 30
327.0
 10
36.86572807877122
 20
102.09999939999993
 30
327.0
  0
LINE
  5
3E
330
17
100
AcDbEntity
  8
0
100
AcDbLine
 10
36.86572807935584
 20
102.1
 30
327.0
 11
66.25385548527036
 21
102.1
 31
327.0
  0
SPLINE
  5
3F
330
17
100
AcDbEntity
  8
0
100
AcDbSpline
 70
0
 71
8
 72
32
 73
23
 74
0
 40
0.0
 40
0.0
 40
0.0
 40
0.0
 40
0.0
 40
0.0
 40
0.0
 40
0.0
 40
0.0
 40
0.6528848395914301
 40
0.6528848395914301
 40
0.6528848395914301
 40
0.6528848395914301
 40
0.6528848395914301
 40
0.6528848395914301
 40
0.6528848395914301
 40
0.9614592021714234
 40
0.9614592021714234
 40
0.9614592021714234
 40
0.9614592021714234
 40
0.9614592021714234
 40
0.9614592021714234
 40
0.9614592021714234
 40
1.0
 40
1.0
 40
1.0
 40
1.0
 40
1.0
 40
1.0
 40
1.0
 40
1.0
 40
1.0
 10
67.83319607519417
 20
79.89999999658181
 30
327.0
 10
67.7213976396037
 20
81.71291941680423
 30
327.0
 10
67.60647696764862
 20
83.52564607265028
 30
327.0
 10
67.48841453907774
 20
85.3381724655161
 30
327.0
 10
67.36719001863798
 20
87.15049088409258
 30
327.0
 10
67.24278225607432
 20
88.96259340436539
 30
327.0
 10
67.11516928612984
 20
90.77447188961486
 30
327.0
 10
66.98432832854576
 20
92.58611799041604
 30
327.0
 10
66.7868593429403
 20
95.25365144926933
 30
327.0
 10
66.72275508852411
 20
96.10972577881827
 30
327.0
 10
66.657924105309
 20
96.96574554649145
 30
327.0
 10
66.59236383932
 20
97.82170983822392
 30
327.0
 10
66.52606874352686
 20
98.67761747384789
 30
327.0
 10
66.45903091925965
 20
99.5334670682608
 30
327.0
 10
66.39124075762456
 20
100.38925709259321
 30
327.0
 10
66.31412532026451
 20
101.35186607943665
 30
327.0
 10
66.30555116749184
 20
101.45874526150915
 30
327.0
 10
66.29696510426838
 20
101.56562347890554
 30
327.0
 10
66.28836711213509
 20
101.67250072890873
 30
327.0
 10
66.27975717250669
 20
101.77937700877304
 30
327.0
 10
66.27113526667118
 20
101.88625231572414
 30
327.0
 10
66.26250137578936
 20
101.99312664695904
 30
327.0
 10
66.25385548089425
 20
102.09999999964602
 30
327.0
  0
LINE
  5
40
330
17
100
AcDbEntity
  8
0
100
AcDbLine
 10
36.86572807935584
 20
79.9
 30
327.0
 11
67.83319613062363
 21
79.9
 31
327.0
  0
SPLINE
  5
41
330
17
100
AcDbEntity
  8
0
100
AcDbSpline
 70
0
 71
1
 72
4
 73
2
 74
0
 40
0.0
 40
0.0
 40
1.0
 40
1.0
 10
36.86572807877122
 20
79.90000060000001
 30
327.0
 10
36.86572807877122
 20
76.09999939999999
 30
327.0
  0
LINE
  5
42
330
17
100
AcDbEntity
  8
0
100
AcDbLine
 10
36.86572807935584
 20
76.1
 30
327.0
 11
68.06152978587467
 21
76.1
 31
327.0
  0
SPLINE
  5
43
330
17
100
AcDbEntity
  8
0
100
AcDbSpline
 70
0
 71
8
 72
25
 73
16
 74
0
 40
0.0
 40
0.0
 40
0.0
 40
0.0
 40
0.0
 40
0.0
 40
0.0
 40
0.0
 40
0.0
 40
0.9942839891409947
 40
0.9942839891409947
 40
0.9942839891409947
 40
0.9942839891409947
 40
0.9942839891409947
 40
0.9942839891409947
 40
0.9942839891409947
 40
1.0
 40
1.0
 40
1.0
 40
1.0
 40
1.0
 40
1.0
 40
1.0
 40
1.0
 40
1.0
 10
69.16075174078962
 20
53.89999999920507
 30
327.0
 10
69.04849383359249
 20
56.66027418989411
 30
327.0
 10
68.92941857390723
 20
59.42027023308895
 30
327.0
 10
68.80347933985082
 20
62.179966555509765
 30
327.0
 10
68.67062608887665
 20
64.93934110984955
 30
327.0
 10
68.53080523135571
 20
67.69837137038151
 30
327.0
 10
68.3839594862707
 20
70.45703432798271
 30
327.0
 10
68.2300277190227
 20
73.21530648457423
 30
327.0
 10
68.06801871613106
 20
75.98901841448871
 30
327.0
 10
68.0670924345693
 20
76.00487296817619
 30
327.0
 10
68.06616591665323
 20
76.02072750803518
 30
327.0
 10
68.06523916237055
 20
76.03658203406086
 30
327.0
 10
68.06431217170893
 20
76.05243654624839
 30
327.0
 10
68.06338494465605
 20
76.06829104459297
 30
327.0
 10
68.06245748119957
 20
76.08414552908977
 30
327.0
 10
68.06152978132717
 20
76.09999999973395
 30
327.0
  0
LINE
  5
44
330
17
100
AcDbEntity
  8
0
100
AcDbLine
 10
36.86572807935584
 20
53.9
 30
327.0
 11
69.16075176033634
 21
53.9
 31
327.0
  0
SPLINE
  5
45
330
17
100
AcDbEntity
  8
0
100
AcDbSpline
 70
0
 71
1
 72
4
 73
2
 74
0
 40
0.0
 40
0.0
 40
1.0
 40
1.0
 10
36.86572807877122
 20
53.90000060000026
 30
327.0
 10
36.86572807877122
 20
50.09999939999937
 30
327.0
  0
LINE
  5
46
330
17
100
AcDbEntity
  8
0
100
AcDbLine
 10
36.86572807935584
 20
50.1
 30
327.0
 11
69.30964632918261
 21
50.1
 31
327.0
  0
SPLINE
  5
47
330
17
100
AcDbEntity
  8
0
100
AcDbSpline
 70
0
 71
8
 72
18
 73
9
 74
0
 40
0.0
 40
0.0
 40
0.0
 40
0.0
 40
0.0
 40
0.0
 40
0.0
 40
0.0
 40
0.0
 40
1.0
 40
1.0
 40
1.0
 40
1.0
 40
1.0
 40
1.0
 40
1.0
 40
1.0
 40
1.0
 10
69.95715241861242
 20
27.90000000050584
 30
327.0
 10
69.89961169448114
 20
30.675616934022713
 30
327.0
 10
69.83545042471744
 20
33.4510970056605
 30
327.0
 10
69.76464024212018
 20
36.22642109981618
 30
327.0
 10
69.68714974609
 20
39.00156963356266
 30
327.0
 10
69.60294443779233
 20
41.77652255425875
 30
327.0
 10
69.51198663689618
 20
44.55125933655797
 30
327.0
 10
69.41423537988854
 20
47.32575897881626
 30
327.0
 10
69.30964629996456
 20
50.09999999889847
 30
327.0
  0
LINE
  5
48
330
17
100
AcDbEntity
  8
0
100
AcDbLine
 10
36.86572807935584
 20
27.9
 30
327.0
 11
69.95715239421203
 21
27.9
 31
327.0
  0
SPLINE
  5
49
330
17
100
AcDbEntity
  8
0
100
AcDbSpline
 70
0
 71
1
 72
4
 73
2
 74
0
 40
0.0
 40
0.0
 40
1.0
 40
1.0
 10
36.86572807877122
 20
27.900000600000002
 30
327.0
 10
36.86572807877122
 20
24.099999399999998
 30
327.0
  0
LINE
  5
4A
330
17
100
AcDbEntity
  8
0
100
AcDbLine
 10
36.86572807935584
 20
24.1
 30
327.0
 11
70.03050625543106
 21
24.1
 31
327.0
  0
SPLINE
  5
4B
330
17
100
AcDbEntity
  8
0
100
AcDbSpline
 70
0
 71
8
 72
18
 73
9
 74
0
 40
0.0
 40
0.0
 40
0.0
 40
0.0
 40
0.0
 40
0.0
 40
0.0
 40
0.0
 40
0.0
 40
1.0
 40
1.0
 40
1.0
 40
1.0
 40
1.0
 40
1.0
 40
1.0
 40
1.0
 40
1.0
 10
70.24415004975377
 20
1.8999999999974988
 30
327.0
 10
70.24021823671062
 20
4.675161156072721
 30
327.0
 10
70.2298092565302
 20
7.4503101885783805
 30
327.0
 10
70.21291191846018
 20
10.225430713058099
 30
327.0
 10
70.1895121548313
 20
13.000505884679303
 30
327.0
 10
70.15959302093142
 20
15.77551839795515
 30
327.0
 10
70.12313467649706
 20
18.550450485866655
 30
327.0
 10
70.08011434882258
 20
21.32528391838505
 30
327.0
 10
70.03050627748704
 20
24.100000000394335
 30
327.0
  0
LINE
  5
4C
330
17
100
AcDbEntity
  8
0
100
AcDbLine
 10
36.86572807935584
 20
1.9
 30
327.0
 11
70.24415005152385
 21
1.9
 31
327.0
  0
SPLINE
  5
4D
330
17
100
AcDbEntity
  8
0
100
AcDbSpline
 70
0
 71
1
 72
4
 73
2
 74
0
 40
0.0
 40
0.0
 40
0.9999993684216398
 40
0.9999993684216398
 10
36.86572807877122
 20
1.9000006000000558
 30
327.0
 10
36.86572807877122
 20
-6.553790374438061e-17
 30
327.0
  0
SPLINE
  5
4E
330
17
100
AcDbEntity
  8
0
100
AcDbSpline
 70
0
 71
1
 72
4
 73
2
 74
0
 40
0.0
 40
0.0
 40
1.0
 40
1.0
 10
36.86572807877122
 20
-1.9000006000000011
 30
327.0
 10
36.86572807877122
 20
1.2000000211287443e-06
 30
327.0
  0
LINE
  5
4F
330
17
100
AcDbEntity
  8
0
100
AcDbLine
 10
36.86572807935556
 20
-1.9
 30
327.0
 11
70.24422292776289
 21
-1.9
 31
327.0
  0
SPLINE
  5
50
330
17
100
AcDbEntity
  8
0
100
AcDbSpline
 70
0
 71
8
 72
18
 73
9
 74
0
 40
0.0
 40
0.0
 40
0.0
 40
0.0
 40
0.0
 40
0.0
 40
0.0
 40
0.0
 40
0.0
 40
1.0
 40
1.0
 40
1.0
 40
1.0
 40
1.0
 40
1.0
 40
1.0
 40
1.0
 40
1.0
 10
70.03139288408408
 20
-24.09999999984297
 30
327.0
 10
70.0809075526966
 20
-21.325285750083786
 30
327.00000000000006
 10
70.12383106502321
 20
-18.55045455388411
 30
327.00000000000006
 10
70.16018970393301
 20
-15.775524782530987
 30
327.00000000000006
 10
70.19000676048108
 20
-13.000514229576387
 30
327.00000000000006
 10
70.21330258840504
 20
-10.22544011371526
 30
327.00000000000006
 10
70.23009464387054
 20
-7.450319081153731
 30
327.00000000000006
 10
70.24039751320468
 20
-4.675167207599292
 30
327.00000000000006
 10
70.24422293135714
 20
-1.9000000000049633
 30
327.00000000000006
  0
LINE
  5
51
330
17
100
AcDbEntity
  8
0
100
AcDbLine
 10
36.86572807935556
 20
-24.1
 30
327.0
 11
70.03139289288269
 21
-24.1
 31
327.0
  0
SPLINE
  5
52
330
17
100
AcDbEntity
  8
0
100
AcDbSpline
 70
0
 71
1
 72
4
 73
2
 74
0
 40
0.0
 40
0.0
 40
1.0
 40
1.0
 10
36.86572807877122
 20
-27.900000600000034
 30
327.0
 10
36.86572807877122
 20
-24.099999399999938
 30
327.0
  0
LINE
  5
53
330
17
100
AcDbEntity
  8
0
100
AcDbLine
 10
36.86572807935556
 20
-27.9
 30
327.0
 11
69.95816397514182
 21
-27.9
 31
327.0
  0
SPLINE
  5
54
330
17
100
AcDbEntity
  8
0
100
AcDbSpline
 70
0
 71
8
 72
18
 73
9
 74
0
 40
0.0
 40
0.0
 40
0.0
 40
0.0
 40
0.0
 40
0.0
 40
0.0
 40
0.0
 40
0.0
 40
1.0
 40
1.0
 40
1.0
 40
1.0
 40
1.0
 40
1.0
 40
1.0
 40
1.0
 40
1.0
 10
69.31123035388443
 20
-50.10000000035183
 30
327.0
 10
69.41576902271464
 20
-47.325756385151074
 30
327.0
 10
69.51346279424064
 20
-44.55125448461556
 30
327.0
 10
69.60435653894908
 20
-41.776516128063406
 30
327.0
 10
69.68849173588848
 20
-39.001562547638386
 30
327.0
 10
69.76590659051433
 20
-36.22641438353313
 30
327.0
 10
69.83663613131651
 20
-33.45109168839157
 30
327.0
 10
69.90071228797544
 20
-30.67561393102271
 30
327.0
 10
69.95816395379353
 20
-27.899999999558144
 30
327.0
  0
LINE
  5
55
330
17
100
AcDbEntity
  8
0
100
AcDbLine
 10
36.86572807935556
 20
-50.1
 30
327.0
 11
69.3112303445479
 21
-50.1
 31
327.0
  0
SPLINE
  5
56
330
17
100
AcDbEntity
  8
0
100
AcDbSpline
 70
0
 71
1
 72
4
 73
2
 74
0
 40
0.0
 40
0.0
 40
1.0
 40
1.0
 10
36.86572807877122
 20
-53.9000006
 30
327.0
 10
36.86572807877122
 20
-50.0999994
 30
327.0
  0
LINE
  5
57
330
17
100
AcDbEntity
  8
0
100
AcDbLine
 10
36.86572807935556
 20
-53.9
 30
327.0
 11
69.16239904830749
 21
-53.9
 31
327.0
  0
SPLINE
  5
58
330
17
100
AcDbEntity
  8
0
100
AcDbSpline
 70
0
 71
8
 72
18
 73
9
 74
0
 40
0.0
 40
0.0
 40
0.0
 40
0.0
 40
0.0
 40
0.0
 40
0.0
 40
0.0
 40
0.0
 40
1.0
 40
1.0
 40
1.0
 40
1.0
 40
1.0
 40
1.0
 40
1.0
 40
1.0
 40
1.0
 10
68.06327001016282
 20
-76.10000000020571
 30
327.0
 10
68.22559014857075
 20
-73.326314536115
 30
327.0
 10
68.3806639215705
 20
-70.55220409968149
 30
327.0
 10
68.52855822111161
 20
-67.7776941672182
 30
327.0
 10
68.66933578937265
 20
-65.0028095837367
 30
327.0
 10
68.80305542334776
 20
-62.22757457163631
 30
327.0
 10
68.92977215164365
 20
-59.45201273825699
 30
327.0
 10
69.04953738624945
 20
-56.676147082428926
 30
327.0
 10
69.16239905204122
 20
-53.900000000151806
 30
327.0
  0
LINE
  5
59
330
17
100
AcDbEntity
  8
0
100
AcDbLine
 10
36.86572807935556
 20
-76.1
 30
327.0
 11
68.06327000664794
 21
-76.1
 31
327.0
  0
SPLINE
  5
5A
330
17
100
AcDbEntity
  8
0
100
AcDbSpline
 70
0
 71
1
 72
4
 73
2
 74
0
 40
0.0
 40
0.0
 40
1.0
 40
1.0
 10
36.86572807877122
 20
-79.90000060000018
 30
327.0
 10
36.86572807877122
 20
-76.09999939999999
 30
327.0
  0
LINE
  5
5B
330
17
100
AcDbEntity
  8
0
100
AcDbLine
 10
36.86572807935556
 20
-79.9
 30
327.0
 11
67.8348969260402
 21
-79.9
 31
327.0
  0
SPLINE
  5
5C
330
17
100
AcDbEntity
  8
0
100
AcDbSpline
 70
0
 71
8
 72
32
 73
23
 74
0
 40
0.0
 40
0.0
 40
0.0
 40
0.0
 40
0.0
 40
0.0
 40
0.0
 40
0.0
 40
0.0
 40
0.14177809450475026
 40
0.14177809450475026
 40
0.14177809450475026
 40
0.14177809450475026
 40
0.14177809450475026
 40
0.14177809450475026
 40
0.14177809450475026
 40
0.3822218688538335
 40
0.3822218688538335
 40
0.3822218688538335
 40
0.3822218688538335
 40
0.3822218688538335
 40
0.3822218688538335
 40
0.3822218688538335
 40
1.0
 40
1.0
 40
1.0
 40
1.0
 40
1.0
 40
1.0
 40
1.0
 40
1.0
 40
1.0
 10
66.25492644716415
 20
-102.09999999837835
 30
327.0
 10
66.28657112858858
 20
-101.70905177309294
 30
327.0
 10
66.31807068793194
 20
-101.3178958041971
 30
327.0
 10
66.34942511424346
 20
-100.92654033345775
 30
327.0
 10
66.38063439657245
 20
-100.53499360264175
 30
327.0
 10
66.41169852396817
 20
-100.1432638535159
 30
327.0
 10
66.44261748547993
 20
-99.75135932784693
 30
327.0
 10
66.47339127015707
 20
-99.35928826740147
 30
327.0
 10
66.55596340222903
 20
-98.30187077973737
 30
327.0
 10
66.60748857579416
 20
-97.636245985644
 30
327.0
 10
66.65859571457905
 20
-96.9702139642305
 30
327.0
 10
66.70928513511696
 20
-96.30379576481303
 30
327.0
 10
66.75955714363947
 20
-95.63700405345926
 30
327.0
 10
66.80941203607671
 20
-94.96984311298851
 30
327.0
 10
66.85885009805718
 20
-94.30230884297164
 30
327.0
 10
67.03382377385115
 20
-91.91828518459664
 30
327.0
 10
67.15685916607823
 20
-90.20196995718408
 30
327.0
 10
67.27699790478138
 20
-88.48544973604888
 30
327.0
 10
67.39425939138245
 20
-86.76873108216935
 30
327.0
 10
67.50866233064829
 20
-85.05182046000665
 30
327.0
 10
67.62022475399179
 20
-83.33472423848866
 30
327.0
 10
67.72896404105512
 20
-81.61744869192258
 30
327.0
 10
67.83489693967161
 20
-79.9000000008408
 30
327.0
  0
LINE
  5
5D
330
17
100
AcDbEntity
  8
0
100
AcDbLine
 10
36.865728079355556
 20
-102.1
 30
327.0
 11
66.25492646719846
 21
-102.1
 31
327.0
  0
SPLINE
  5
5E
330
17
100
AcDbEntity
  8
0
100
AcDbSpline
 70
0
 71
1
 72
4
 73
2
 74
0
 40
0.0
 40
0.0
 40
1.0
 40
1.0
 10
36.86572807877122
 20
-105.90000060000003
 30
327.0
 10
36.86572807877122
 20
-102.09999939999999
 30
327.0
  0
LINE
  5
5F
330
17
100
AcDbEntity
  8
0
100
AcDbLine
 10
36.86572807935556
 20
-105.9
 30
327.0
 11
65.94054821672172
 21
-105.9
 31
327.0
  0
SPLINE
  5
60
330
17
100
AcDbEntity
  8
0
100
AcDbSpline
 70
0
 71
8
 72
18
 73
9
 74
0
 40
0.0
 40
0.0
 40
0.0
 40
0.0
 40
0.0
 40
0.0
 40
0.0
 40
0.0
 40
0.0
 40
1.0
 40
1.0
 40
1.0
 40
1.0
 40
1.0
 40
1.0
 40
1.0
 40
1.0
 40
1.0
 10
63.79675968095022
 20
-128.09999999729288
 30
327.0
 10
64.10200691682756
 20
-125.32878909390891
 30
327.0
 10
64.3951292966928
 20
-122.55623463065972
 30
327.0
 10
64.67703770667258
 20
-119.78250099496151
 30
327.0
 10
64.94847138860916
 20
-117.00772195590467
 30
327.0
 10
65.21005033704137
 20
-114.23200620895383
 30
327.0
 10
65.46230123214902
 20
-111.4554400985772
 30
327.0
 10
65.70567176510997
 20
-108.67808914479379
 30
327.0
 10
65.94054821231902
 20
-105.89999999962777
 30
327.0
  0
LINE
  5
61
330
17
100
AcDbEntity
  8
0
100
AcDbLine
 10
36.86572807935556
 20
-128.1
 30
327.0
 11
63.79675970552657
 21
-128.1
 31
327.0
  0
SPLINE
  5
62
330
17
100
AcDbEntity
  8
0
100
AcDbSpline
 70
0
 71
1
 72
4
 73
2
 74
0
 40
0.0
 40
0.0
 40
1.0
 40
1.0
 10
36.86572807877122
 20
-131.9000006
 30
327.0
 10
36.86572807877122
 20
-128.09999939999992
 30
327.0
  0
LINE
  5
63
330
17
100
AcDbEntity
  8
0
100
AcDbLine
 10
36.86572807935556
 20
-131.9
 30
327.0
 11
63.36781645678265
 21
-131.9
 31
327.0
  0
SPLINE
  5
64
330
17
100
AcDbEntity
  8
0
100
AcDbSpline
 70
0
 71
8
 72
32
 73
23
 74
0
 40
0.0
 40
0.0
 40
0.0
 40
0.0
 40
0.0
 40
0.0
 40
0.0
 40
0.0
 40
0.0
 40
0.07868878500778441
 40
0.07868878500778441
 40
0.07868878500778441
 40
0.07868878500778441
 40
0.07868878500778441
 40
0.07868878500778441
 40
0.07868878500778441
 40
0.7765560769175937
 40
0.7765560769175937
 40
0.7765560769175937
 40
0.7765560769175937
 40
0.7765560769175937
 40
0.7765560769175937
 40
0.7765560769175937
 40
1.0
 40
1.0
 40
1.0
 40
1.0
 40
1.0
 40
1.0
 40
1.0
 40
1.0
 40
1.0
 10
60.33981642897479
 20
-154.10000000126902
 30
327.0
 10
60.37513210450945
 20
-153.88245052281303
 30
327.0
 10
60.410290597321854
 20
-153.66487528429232
 30
327.0
 10
60.445293678150854
 20
-153.44727466327188
 30
327.0
 10
60.48014307695513
 20
-153.22964901872996
 30
327.0
 10
60.51484048481343
 20
-153.01199869141576
 30
327.0
 10
60.54938755579097
 20
-152.79432400420245
 30
327.0
 10
60.58378590881817
 20
-152.57662526244388
 30
327.0
 10
60.921800959615034
 20
-150.4279869688175
 30
327.0
 10
61.21398471912906
 20
-148.49525099084406
 30
327.0
 10
61.49568413648708
 20
-146.5609365732669
 30
327.0
 10
61.767778604396085
 20
-144.62523998505552
 30
327.0
 10
62.03099461005173
 20
-142.6883210890987
 30
327.0
 10
62.28595078032899
 20
-140.75030975706233
 30
327.0
 10
62.53318454206418
 20
-138.81130962131232
 30
327.0
 10
62.84999613280301
 20
-136.25027648333412
 30
327.0
 10
62.92608764882773
 20
-135.6290623832354
 30
327.0
 10
63.001450229877335
 20
-135.00775952939554
 30
327.0
 10
63.076098441107135
 20
-134.38637047978025
 30
327.0
 10
63.15004618022772
 20
-133.76489769003987
 30
327.0
 10
63.22330672438711
 20
-133.14334351849146
 30
327.0
 10
63.29589277258741
 20
-132.52171023062147
 30
327.0
 10
63.36781648406269
 20
-131.90000000315595
 30
327.0
  0
LINE
  5
65
330
17
100
AcDbEntity
  8
0
100
AcDbLine
 10
36.86572807935556
 20
-154.1
 30
327.0
 11
60.33981642115812
 21
-154.1
 31
327.0
  0
SPLINE
  5
66
330
17
100
AcDbEntity
  8
0
100
AcDbSpline
 70
0
 71
1
 72
4
 73
2
 74
0
 40
0.0
 40
0.0
 40
1.0
 40
1.0
 10
36.86572807877122
 20
-157.90000060000003
 30
327.0
 10
36.86572807877122
 20
-154.0999994
 30
327.0
  0
LINE
  5
67
330
17
100
AcDbEntity
  8
0
100
AcDbLine
 10
36.86572807935556
 20
-157.9
 30
327.0
 11
59.70021916414323
 21
-157.9
 31
327.0
  0
SPLINE
  5
68
330
17
100
AcDbEntity
  8
0
100
AcDbSpline
 70
0
 71
8
 72
46
 73
37
 74
0
 40
0.0
 40
0.0
 40
0.0
 40
0.0
 40
0.0
 40
0.0
 40
0.0
 40
0.0
 40
0.0
 40
0.0028784570444649266
 40
0.0028784570444649266
 40
0.0028784570444649266
 40
0.0028784570444649266
 40
0.0028784570444649266
 40
0.0028784570444649266
 40
0.0028784570444649266
 40
0.14381937907307787
 40
0.14381937907307787
 40
0.14381937907307787
 40
0.14381937907307787
 40
0.14381937907307787
 40
0.14381937907307787
 40
0.14381937907307787
 40
0.37065422997327424
 40
0.37065422997327424
 40
0.37065422997327424
 40
0.37065422997327424
 40
0.37065422997327424
 40
0.37065422997327424
 40
0.37065422997327424
 40
0.6495061566086051
 40
0.6495061566086051
 40
0.6495061566086051
 40
0.6495061566086051
 40
0.6495061566086051
 40
0.6495061566086051
 40
0.6495061566086051
 40
1.0
 40
1.0
 40
1.0
 40
1.0
 40
1.0
 40
1.0
 40
1.0
 40
1.0
 40
1.0
 10
54.38919168851028
 20
-180.1000000011284
 30
327.0
 10
54.39169309208755
 20
-180.09293193509257
 30
327.0
 10
54.39419355643068
 20
-180.08586352491395
 30
327.0
 10
54.396693082321256
 20
-180.07879477091655
 30
327.0
 10
54.39919167054001
 20
-180.07172567342278
 30
327.0
 10
54.40168932186682
 20
-180.06465623275344
 30
327.0
 10
54.4041860370807
 20
-180.0575864492278
 30
327.0
 10
54.40668181695982
 20
-180.05051632316355
 30
327.0
 10
54.53133439975183
 20
-179.69724707403043
 30
327.0
 10
54.653003344553646
 20
-179.3452630456933
 30
327.0
 10
54.774176930638426
 20
-178.98744778648722
 30
327.0
 10
54.8948485919572
 20
-178.62375531303584
 30
327.0
 10
55.015011762460446
 20
-178.25413964196457
 30
327.0
 10
55.13465987609821
 20
-177.87855478990068
 30
327.0
 10
55.25378636682006
 20
-177.4969547734731
 30
327.0
 10
55.56326058813337
 20
-176.4853792691306
 30
327.0
 10
55.74850867314183
 20
-175.85974591321877
 30
327.0
 10
55.92835444609974
 20
-175.23251924163597
 30
327.0
 10
56.103405854385386
 20
-174.60392913508335
 30
327.0
 10
56.27400995840344
 20
-173.97412024777134
 30
327.0
 10
56.44039004273088
 20
-173.34319000603236
 30
327.0
 10
56.60290300046862
 20
-172.71126278038352
 30
327.0
 10
56.95703855945406
 20
-171.3004311192895
 30
327.0
 10
57.14679718076117
 20
-170.52106603190794
 30
327.0
 10
57.331482378065004
 20
-169.7404688751414
 30
327.0
 10
57.51147044146023
 20
-168.95876958146198
 30
327.0
 10
57.687083157080416
 20
-168.1760772743541
 30
327.0
 10
57.85860168758802
 20
-167.39248348983037
 30
327.0
 10
58.02627545407362
 20
-166.6080642223779
 30
327.0
 10
58.39652403216941
 20
-164.83597007023454
 30
327.0
 10
58.596994886953375
 20
-163.84786821262975
 30
327.0
 10
58.792179284157854
 20
-162.8586973238337
 30
327.0
 10
58.98244855653973
 20
-161.86856182173855
 30
327.0
 10
59.16812251007431
 20
-160.87755175337298
 30
327.0
 10
59.349481243343504
 20
-159.88574498035854
 30
327.0
 10
59.526772878038265
 20
-158.8932086037317
 30
327.0
 10
59.70021913320463
 20
-157.89999999459712
 30
327.0
  0
LINE
  5
69
330
17
100
AcDbEntity
  8
0
100
AcDbLine
 10
36.86572807935556
 20
-180.1
 30
327.0
 11
54.389191685321904
 21
-180.1
 31
327.0
  0
SPLINE
  5
6A
330
17
100
AcDbEntity
  8
0
100
AcDbSpline
 70
0
 71
1
 72
4
 73
2
 74
0
 40
0.0
 40
0.0
 40
1.0
 40
1.0
 10
36.86572807877122
 20
-183.9000006000001
 30
327.0
 10
36.86572807877122
 20
-180.09999939999994
 30
327.0
  0
LINE
  5
6B
330
17
100
AcDbEntity
  8
0
100
AcDbLine
 10
36.86572807935556
 20
-183.9
 30
327.0
 11
52.88809816837154
 21
-183.9
 31
327.0
  0
SPLINE
  5
6C
330
17
100
AcDbEntity
  8
0
100
AcDbSpline
 70
0
 71
8
 72
95
 73
86
 74
0
 40
0.0
 40
0.0
 40
0.0
 40
0.0
 40
0.0
 40
0.0
 40
0.0
 40
0.0
 40
0.0
 40
0.0072712359059852166
 40
0.0072712359059852166
 40
0.0072712359059852166
 40
0.0072712359059852166
 40
0.0072712359059852166
 40
0.0072712359059852166
 40
0.0072712359059852166
 40
0.021901000969208013
 40
0.021901000969208013
 40
0.021901000969208013
 40
0.021901000969208013
 40
0.021901000969208013
 40
0.021901000969208013
 40
0.021901000969208013
 40
0.03766584581196482
 40
0.03766584581196482
 40
0.03766584581196482
 40
0.03766584581196482
 40
0.03766584581196482
 40
0.03766584581196482
 40
0.03766584581196482
 40
0.043385272059894744
 40
0.043385272059894744
 40
0.043385272059894744
 40
0.043385272059894744
 40
0.043385272059894744
 40
0.043385272059894744
 40
0.043385272059894744
 40
0.04549304483808315
 40
0.04549304483808315
 40
0.04549304483808315
 40
0.04549304483808315
 40
0.04549304483808315
 40
0.04549304483808315
 40
0.04549304483808315
 40
0.04896768495955977
 40
0.04896768495955977
 40
0.04896768495955977
 40
0.04896768495955977
 40
0.04896768495955977
 40
0.04896768495955977
 40
0.04896768495955977
 40
0.0524060736779403
 40
0.0524060736779403
 40
0.0524060736779403
 40
0.0524060736779403
 40
0.0524060736779403
 40
0.0524060736779403
 40
0.0524060736779403
 40
0.058977374562201486
 40
0.058977374562201486
 40
0.058977374562201486
 40
0.058977374562201486
 40
0.058977374562201486
 40
0.058977374562201486
 40
0.058977374562201486
 40
0.06773811855772777
 40
0.06773811855772777
 40
0.06773811855772777
 40
0.06773811855772777
 40
0.06773811855772777
 40
0.06773811855772777
 40
0.06773811855772777
 40
0.07463120889562902
 40
0.07463120889562902
 40
0.07463120889562902
 40
0.07463120889562902
 40
0.07463120889562902
 40
0.07463120889562902
 40
0.07463120889562902
 40
0.08683495695112445
 40
0.08683495695112445
 40
0.08683495695112445
 40
0.08683495695112445
 40
0.08683495695112445
 40
0.08683495695112445
 40
0.08683495695112445
 40
0.09306506787611624
 40
0.09306506787611624
 40
0.09306506787611624
 40
0.09306506787611624
 40
0.09306506787611624
 40
0.09306506787611624
 40
0.09306506787611624
 40
0.09306506787611624
 40
0.09306506787611624
 10
25.165328466662608
 20
-180.25495559662045
 30
327.0
 10
25.264399410668943
 20
-180.63233805268513
 30
327.0
 10
25.373468171210003
 20
-181.00709273300882
 30
327.0
 10
25.49224814281542
 20
-181.3789692860654
 30
327.0
 10
25.620451833926595
 20
-181.74773872053166
 30
327.0
 10
25.757794640752678
 20
-182.1131920945334
 30
327.0
 10
25.903998621126473
 20
-182.47513920489274
 30
327.0
 10
26.0587962683604
 20
-182.83340727637508
 30
327.0
 10
26.55016883679008
 20
-183.9009594613331
 30
327.0
 10
26.912107561932515
 20
-184.5984237299978
 30
327.0
 10
27.30572504267616
 20
-185.27910536871124
 30
327.0
 10
27.72916567157951
 20
-185.94191542988844
 30
327.0
 10
28.18074721807744
 20
-186.5858010621412
 30
327.0
 10
28.658981375647144
 20
-187.2097309184714
 30
327.0
 10
29.162611289675528
 20
-187.81266801709523
 30
327.0
 10
30.259691035445258
 20
-189.01945944347366
 30
327.0
 10
30.856829330885237
 20
-189.61948145774818
 30
327.0
 10
31.480924426014095
 20
-190.19238529521107
 30
327.0
 10
32.130893004500976
 20
-190.7364969444726
 30
327.0
 10
32.80567902935975
 20
-191.2497251757818
 30
327.0
 10
33.504234084889426
 20
-191.72958213487178
 30
327.0
 10
34.22555137745779
 20
-192.17313441138128
 30
327.0
 10
35.23842160583854
 20
-192.72330348235818
 30
327.0
 10
35.510913342081906
 20
-192.8645038525529
 30
327.0
 10
35.786200757524064
 20
-193.00026719173474
 30
327.0
 10
36.06421999011163
 20
-193.13040447595884
 30
327.0
 10
36.34489830090982
 20
-193.25471255072725
 30
327.0
 10
36.62815382669585
 20
-193.3729746524309
 30
327.0
 10
36.913895332552556
 20
-193.4849609297915
 30
327.0
 10
37.30820490049137
 20
-193.62929696439724
 30
327.0
 10
37.41450780152908
 20
-193.66720503342316
 30
327.0
 10
37.520923031996304
 20
-193.7041468365239
 30
327.0
 10
37.627442956314475
 20
-193.74011603784194
 30
327.0
 10
37.73405993890524
 20
-193.77510630151968
 30
327.0
 10
37.8407663441904
 20
-193.80911129169957
 30
327.0
 10
37.94755453659194
 20
-193.84212467252377
 30
327.0
 10
38.230578273055755
 20
-193.9269171997785
 30
327.0
 10
38.407495512231804
 20
-193.9771443290522
 30
327.0
 10
38.58514910727706
 20
-194.024770837225
 30
327.0
 10
38.763498253258085
 20
-194.0697632736201
 30
327.0
 10
38.94250961094119
 20
-194.11203524147368
 30
327.0
 10
39.12216495902528
 20
-194.15143522611075
 30
327.0
 10
39.30244771875812
 20
-194.18779240543904
 30
327.0
 10
39.66228203901186
 20
-194.25390180735008
 30
327.0
 10
39.8413306965194
 20
-194.2836173828428
 30
327.0
 10
40.02044149920365
 20
-194.31007735794594
 30
327.0
 10
40.199601622809446
 20
-194.33319192136554
 30
327.0
 10
40.37879824308099
 20
-194.35287126180552
 30
327.0
 10
40.55801853576189
 20
-194.36902556796767
 30
327.0
 10
40.737249676595134
 20
-194.38156502855153
 30
327.0
 10
41.25901392537752
 20
-194.40728452975154
 30
327.0
 10
41.60229495365012
 20
-194.41067493614318
 30
327.0
 10
41.945640936866184
 20
-194.3998112649356
 30
327.0
 10
42.28831195264039
 20
-194.37404854778012
 30
327.0
 10
42.629513633268715
 20
-194.3329030409189
 30
327.0
 10
42.96840165352032
 20
-194.2760986316304
 30
327.0
 10
43.30408621842934
 20
-194.20361324467478
 30
327.0
 10
44.07765368547199
 20
-193.99855450184634
 30
327.0
 10
44.512538238224
 20
-193.85395018463342
 30
327.0
 10
44.938029295759875
 20
-193.68253338986182
 30
327.0
 10
45.352515400987166
 20
-193.48568045860196
 30
327.0
 10
45.754911009187246
 20
-193.2652785474871
 30
327.0
 10
46.14454497902628
 20
-193.02349790329103
 30
327.0
 10
46.5210692426173
 20
-192.76260296872357
 30
327.0
 10
47.170266812883334
 20
-192.26626395687308
 30
327.0
 10
47.44806889914637
 20
-192.03717328633343
 30
327.0
 10
47.717880543801726
 20
-191.7985259355616
 30
327.0
 10
47.97986390098337
 20
-191.55125077650194
 30
327.0
 10
48.23424110660115
 20
-191.296206581612
 30
327.0
 10
48.48127679161839
 20
-191.03416331803606
 30
327.0
 10
48.72126679450953
 20
-190.76579020353574
 30
327.0
 10
49.36751516826361
 20
-190.00630484975954
 30
327.0
 10
49.75924194431105
 20
-189.50309554620645
 30
327.0
 10
50.13162788594187
 20
-188.9850568361796
 30
327.0
 10
50.48632706865969
 20
-188.45468971918913
 30
327.0
 10
50.82482274796718
 20
-187.9140230870549
 30
327.0
 10
51.148474193864665
 20
-187.36464530279105
 30
327.0
 10
51.45854144192483
 20
-186.80772084741145
 30
327.0
 10
51.90817011237209
 20
-185.95622603015914
 30
327.0
 10
52.05686726589033
 20
-185.6667377687728
 30
327.0
 10
52.2024504201121
 20
-185.37566178055522
 30
327.0
 10
52.34505666257746
 20
-185.08310783493513
 30
327.0
 10
52.48481197160145
 20
-184.789176491411
 30
327.0
 10
52.62183289087618
 20
-184.49395984101753
 30
327.0
 10
52.75622784184307
 20
-184.1975420858651
 30
327.0
 10
52.88809816737803
 20
-183.89999999955967
 30
327.0
  0
SPLINE
  5
6D
330
17
100
AcDbEntity
  8
0
100
AcDbSpline
 70
0
 71
8
 72
375
 73
366
 74
0
 40
0.0
 40
0.0
 40
0.0
 40
0.0
 40
0.0
 40
0.0
 40
0.0
 40
0.0
 40
0.0
 40
0.001518667476561218
 40
0.001518667476561218
 40
0.001518667476561218
 40
0.001518667476561218
 40
0.001518667476561218
 40
0.001518667476561218
 40
0.001518667476561218
 40
0.003100361261102156
 40
0.003100361261102156
 40
0.003100361261102156
 40
0.003100361261102156
 40
0.003100361261102156
 40
0.003100361261102156
 40
0.003100361261102156
 40
0.004682055045667925
 40
0.004682055045667925
 40
0.004682055045667925
 40
0.004682055045667925
 40
0.004682055045667925
 40
0.004682055045667925
 40
0.004682055045667925
 40
0.006580087587180596
 40
0.006580087587180596
 40
0.006580087587180596
 40
0.006580087587180596
 40
0.006580087587180596
 40
0.006580087587180596
 40
0.006580087587180596
 40
0.009385816136517663
 40
0.009385816136517663
 40
0.009385816136517663
 40
0.009385816136517663
 40
0.009385816136517663
 40
0.009385816136517663
 40
0.009385816136517663
 40
0.014459765485076099
 40
0.014459765485076099
 40
0.014459765485076099
 40
0.014459765485076099
 40
0.014459765485076099
 40
0.014459765485076099
 40
0.014459765485076099
 40
0.0229213514384662
 40
0.0229213514384662
 40
0.0229213514384662
 40
0.0229213514384662
 40
0.0229213514384662
 40
0.0229213514384662
 40
0.0229213514384662
 40
0.040303119852789705
 40
0.040303119852789705
 40
0.040303119852789705
 40
0.040303119852789705
 40
0.040303119852789705
 40
0.040303119852789705
 40
0.040303119852789705
 40
0.07424685806029559
 40
0.07424685806029559
 40
0.07424685806029559
 40
0.07424685806029559
 40
0.07424685806029559
 40
0.07424685806029559
 40
0.07424685806029559
 40
0.1215253700460779
 40
0.1215253700460779
 40
0.1215253700460779
 40
0.1215253700460779
 40
0.1215253700460779
 40
0.1215253700460779
 40
0.1215253700460779
 40
0.21487163955301886
 40
0.21487163955301886
 40
0.21487163955301886
 40
0.21487163955301886
 40
0.21487163955301886
 40
0.21487163955301886
 40
0.21487163955301886
 40
0.332775698026773
 40
0.332775698026773
 40
0.332775698026773
 40
0.332775698026773
 40
0.332775698026773
 40
0.332775698026773
 40
0.332775698026773
 40
0.42231845745816826
 40
0.42231845745816826
 40
0.42231845745816826
 40
0.42231845745816826
 40
0.42231845745816826
 40
0.42231845745816826
 40
0.42231845745816826
 40
0.5118706608155613
 40
0.5118706608155613
 40
0.5118706608155613
 40
0.5118706608155613
 40
0.5118706608155613
 40
0.5118706608155613
 40
0.5118706608155613
 40
0.6062650655733967
 40
0.6062650655733967
 40
0.6062650655733967
 40
0.6062650655733967
 40
0.6062650655733967
 40
0.6062650655733967
 40
0.6062650655733967
 40
0.6922274687446957
 40
0.6922274687446957
 40
0.6922274687446957
 40
0.6922274687446957
 40
0.6922274687446957
 40
0.6922274687446957
 40
0.6922274687446957
 40
0.7564101231030115
 40
0.7564101231030115
 40
0.7564101231030115
 40
0.7564101231030115
 40
0.7564101231030115
 40
0.7564101231030115
 40
0.7564101231030115
 40
0.777120532243785
 40
0.777120532243785
 40
0.777120532243785
 40
0.777120532243785
 40
0.777120532243785
 40
0.777120532243785
 40
0.777120532243785
 40
0.7959428154266095
 40
0.7959428154266095
 40
0.7959428154266095
 40
0.7959428154266095
 40
0.7959428154266095
 40
0.7959428154266095
 40
0.7959428154266095
 40
0.8239656584856243
 40
0.8239656584856243
 40
0.8239656584856243
 40
0.8239656584856243
 40
0.8239656584856243
 40
0.8239656584856243
 40
0.8239656584856243
 40
0.8385146820160603
 40
0.8385146820160603
 40
0.8385146820160603
 40
0.8385146820160603
 40
0.8385146820160603
 40
0.8385146820160603
 40
0.8385146820160603
 40
0.8452750484988295
 40
0.8452750484988295
 40
0.8452750484988295
 40
0.8452750484988295
 40
0.8452750484988295
 40
0.8452750484988295
 40
0.8452750484988295
 40
0.8495538788039447
 40
0.8495538788039447
 40
0.8495538788039447
 40
0.8495538788039447
 40
0.8495538788039447
 40
0.8495538788039447
 40
0.8495538788039447
 40
0.8519512357859406
 40
0.8519512357859406
 40
0.8519512357859406
 40
0.8519512357859406
 40
0.8519512357859406
 40
0.8519512357859406
 40
0.8519512357859406
 40
0.8531127488355821
 40
0.8531127488355821
 40
0.8531127488355821
 40
0.8531127488355821
 40
0.8531127488355821
 40
0.8531127488355821
 40
0.8531127488355821
 40
0.8537563178336901
 40
0.8537563178336901
 40
0.8537563178336901
 40
0.8537563178336901
 40
0.8537563178336901
 40
0.8537563178336901
 40
0.8537563178336901
 40
0.8544027276982701
 40
0.8544027276982701
 40
0.8544027276982701
 40
0.8544027276982701
 40
0.8544027276982701
 40
0.8544027276982701
 40
0.8544027276982701
 40
0.8548785557444415
 40
0.8548785557444415
 40
0.8548785557444415
 40
0.8548785557444415
 40
0.8548785557444415
 40
0.8548785557444415
 40
0.8548785557444415
 40
0.8554019665952283
 40
0.8554019665952283
 40
0.8554019665952283
 40
0.8554019665952283
 40
0.8554019665952283
 40
0.8554019665952283
 40
0.8554019665952283
 40
0.8558777946413995
 40
0.8558777946413995
 40
0.8558777946413995
 40
0.8558777946413995
 40
0.8558777946413995
 40
0.8558777946413995
 40
0.8558777946413995
 40
0.8563536226875703
 40
0.8563536226875703
 40
0.8563536226875703
 40
0.8563536226875703
 40
0.8563536226875703
 40
0.8563536226875703
 40
0.8563536226875703
 40
0.857216748578767
 40
0.857216748578767
 40
0.857216748578767
 40
0.857216748578767
 40
0.857216748578767
 40
0.857216748578767
 40
0.857216748578767
 40
0.8586561404200118
 40
0.8586561404200118
 40
0.8586561404200118
 40
0.8586561404200118
 40
0.8586561404200118
 40
0.8586561404200118
 40
0.8586561404200118
 40
0.8616129334430246
 40
0.8616129334430246
 40
0.8616129334430246
 40
0.8616129334430246
 40
0.8616129334430246
 40
0.8616129334430246
 40
0.8616129334430246
 40
0.8673870627411643
 40
0.8673870627411643
 40
0.8673870627411643
 40
0.8673870627411643
 40
0.8673870627411643
 40
0.8673870627411643
 40
0.8673870627411643
 40
0.875429598912336
 40
0.875429598912336
 40
0.875429598912336
 40
0.875429598912336
 40
0.875429598912336
 40
0.875429598912336
 40
0.875429598912336
 40
0.8913092849764849
 40
0.8913092849764849
 40
0.8913092849764849
 40
0.8913092849764849
 40
0.8913092849764849
 40
0.8913092849764849
 40
0.8913092849764849
 40
0.9113681902756314
 40
0.9113681902756314
 40
0.9113681902756314
 40
0.9113681902756314
 40
0.9113681902756314
 40
0.9113681902756314
 40
0.9113681902756314
 40
0.9266035356501617
 40
0.9266035356501617
 40
0.9266035356501617
 40
0.9266035356501617
 40
0.9266035356501617
 40
0.9266035356501617
 40
0.9266035356501617
 40
0.9527099545307576
 40
0.9527099545307576
 40
0.9527099545307576
 40
0.9527099545307576
 40
0.9527099545307576
 40
0.9527099545307576
 40
0.9527099545307576
 40
0.9750462939501815
 40
0.9750462939501815
 40
0.9750462939501815
 40
0.9750462939501815
 40
0.9750462939501815
 40
0.9750462939501815
 40
0.9750462939501815
 40
0.9847058642346267
 40
0.9847058642346267
 40
0.9847058642346267
 40
0.9847058642346267
 40
0.9847058642346267
 40
0.9847058642346267
 40
0.9847058642346267
 40
0.9880178748341546
 40
0.9880178748341546
 40
0.9880178748341546
 40
0.9880178748341546
 40
0.9880178748341546
 40
0.9880178748341546
 40
0.9880178748341546
 40
0.9909163303082524
 40
0.9909163303082524
 40
0.9909163303082524
 40
0.9909163303082524
 40
0.9909163303082524
 40
0.9909163303082524
 40
0.9909163303082524
 40
0.994281129521507
 40
0.994281129521507
 40
0.994281129521507
 40
0.994281129521507
 40
0.994281129521507
 40
0.994281129521507
 40
0.994281129521507
 40
0.9960135792764716
 40
0.9960135792764716
 40
0.9960135792764716
 40
0.9960135792764716
 40
0.9960135792764716
 40
0.9960135792764716
 40
0.9960135792764716
 40
0.9969706461068109
 40
0.9969706461068109
 40
0.9969706461068109
 40
0.9969706461068109
 40
0.9969706461068109
 40
0.9969706461068109
 40
0.9969706461068109
 40
0.997782187227298
 40
0.997782187227298
 40
0.997782187227298
 40
0.997782187227298
 40
0.997782187227298
 40
0.997782187227298
 40
0.997782187227298
 40
0.998248829527963
 40
0.998248829527963
 40
0.998248829527963
 40
0.998248829527963
 40
0.998248829527963
 40
0.998248829527963
 40
0.998248829527963
 40
0.9985754791384278
 40
0.9985754791384278
 40
0.9985754791384278
 40
0.9985754791384278
 40
0.9985754791384278
 40
0.9985754791384278
 40
0.9985754791384278
 40
0.9991354498992258
 40
0.9991354498992258
 40
0.9991354498992258
 40
0.9991354498992258
 40
0.9991354498992258
 40
0.9991354498992258
 40
0.9991354498992258
 40
1.0
 40
1.0
 40
1.0
 40
1.0
 40
1.0
 40
1.0
 40
1.0
 40
1.0
 40
1.0
 10
25.165328466662604
 20
180.25495559662048
 30
327.0
 10
25.165216283142303
 20
180.25506960010867
 30
327.0
 10
25.16523872171261
 20
180.25491143153198
 30
327.0
 10
25.165309560267982
 20
180.2547291907536
 30
327.0
 10
25.16537023260692
 20
180.25464566590122
 30
327.0
 10
25.165389828431966
 20
180.25465833336662
 30
327.0
 10
25.16536509334968
 20
180.25463935780593
 30
327.0
 10
25.165320428870693
 20
180.25433559213948
 30
327.0
 10
25.165294835672228
 20
180.25236143083566
 30
327.0
 10
25.16527546578701
 20
180.25086731208037
 30
327.0
 10
25.165248002122595
 20
180.24874887019857
 30
327.0
 10
25.165210664047567
 20
180.2458687541024
 30
327.0
 10
25.165161670930484
 20
180.24208961270404
 30
327.0
 10
25.165099242139938
 20
180.2372740949155
 30
327.0
 10
25.165021597044507
 20
180.23128484964897
 30
327.0
 10
25.164832312980998
 20
180.21668420198404
 30
327.0
 10
25.16472067401293
 20
180.20807279958606
 30
327.0
 10
25.16459025747714
 20
180.19801296753454
 30
327.0
 10
25.16443928274218
 20
180.18636735474124
 30
327.0
 10
25.16426596917663
 20
180.1729986101184
 30
327.0
 10
25.164068536149063
 20
180.15776938257827
 30
327.0
 10
25.163845203028078
 20
180.1405423210332
 30
327.0
 10
25.163292972567238
 20
180.09794537843035
 30
327.0
 10
25.162951895708428
 20
180.0716360159313
 30
327.0
 10
25.162567881674736
 20
180.04201464421874
 30
327.0
 10
25.162137853535057
 20
180.00884392061272
 30
327.0
 10
25.16165873435829
 20
179.97188650243345
 30
327.0
 10
25.161127447213328
 20
179.93090504700118
 30
327.0
 10
25.160540915169076
 20
179.88566221163623
 30
327.0
 10
25.158942818983437
 20
179.76239119288672
 30
327.0
 10
25.157982851455635
 20
179.68834297466142
 30
327.0
 10
25.157018975695408
 20
179.6139932902839
 30
327.0
 10
25.156052406948653
 20
179.5394358794176
 30
327.0
 10
25.15508414637047
 20
179.4647479669155
 30
327.0
 10
25.154114564582542
 20
179.3899581415445
 30
327.0
 10
25.15314382735591
 20
179.31507918997195
 30
327.0
 10
25.150413773145814
 20
179.10449326482845
 30
327.0
 10
25.148652761576013
 20
178.968655577344
 30
327.0
 10
25.14688974672048
 20
178.8326633640621
 30
327.0
 10
25.14512530327213
 20
178.69656095461042
 30
327.0
 10
25.143359818438135
 20
178.56037821666038
 30
327.0
 10
25.141593541769524
 20
178.4241343996135
 30
327.0
 10
25.13982656203299
 20
178.28783635060358
 30
327.0
 10
25.13511098584459
 20
177.92409486497803
 30
327.0
 10
25.132161500402347
 20
177.69658285505338
 30
327.0
 10
25.129210881309582
 20
177.46898339965634
 30
327.0
 10
25.12625941316549
 20
177.2413184517079
 30
327.0
 10
25.123307293783867
 20
177.01360326979022
 30
327.0
 10
25.120354656640767
 20
176.78584814971853
 30
327.0
 10
25.117401569360077
 20
176.55805830777302
 30
327.0
 10
25.10838094843599
 20
175.8622421603712
 30
327.0
 10
25.102312265588907
 20
175.3941272097433
 30
327.0
 10
25.096242503858733
 20
174.92592903822668
 30
327.0
 10
25.090171953557288
 20
174.45767003931584
 30
327.0
 10
25.084100812698182
 20
173.98936548705169
 30
327.0
 10
25.07802921169527
 20
173.52102544108388
 30
327.0
 10
25.071957207810314
 20
173.05265431831305
 30
327.0
 10
25.054026416962614
 20
171.6695417906367
 30
327.0
 10
25.04216675893081
 20
170.75473319479104
 30
327.0
 10
25.03030623709117
 20
169.83985796812604
 30
327.0
 10
25.0184450841594
 20
168.92493406142356
 30
327.0
 10
25.006583458759597
 20
168.0099737103447
 30
327.0
 10
24.99472146531364
 20
167.09498496960248
 30
327.0
 10
24.982859149576754
 20
166.17997136856812
 30
327.0
 10
24.954473662730347
 20
163.99042363501246
 30
327.0
 10
24.93794989734115
 20
162.71587374504483
 30
327.0
 10
24.921448267902726
 20
161.44129556419855
 30
327.0
 10
24.904980244504465
 20
160.16669571049414
 30
327.0
 10
24.888553944939552
 20
158.8920787545444
 30
327.0
 10
24.872175906548858
 20
157.6174478626103
 30
327.0
 10
24.85585064204012
 20
156.3428046332055
 30
327.0
 10
24.80746197553687
 20
152.55148259756348
 30
327.0
 10
24.775563311070755
 20
150.03477432451737
 30
327.0
 10
24.743916363977775
 20
147.51803601282668
 30
327.0
 10
24.712539163492757
 20
145.00127394757953
 30
327.0
 10
24.68144694273873
 20
142.48449249038177
 30
327.0
 10
24.65065408132344
 20
139.96769470218786
 30
327.0
 10
24.62017359046945
 20
137.45088221131311
 30
327.0
 10
24.551931391231097
 20
131.7550959401449
 30
327.0
 10
24.514363745844257
 20
128.57611524770985
 30
327.0
 10
24.477343122624493
 20
125.39711673910739
 30
327.0
 10
24.440896945316503
 20
122.2181025432352
 30
327.0
 10
24.405054287960994
 20
119.0390742223996
 30
327.0
 10
24.369846971734024
 20
115.86003296482988
 30
327.0
 10
24.33531053201086
 20
112.68097967026512
 30
327.0
 10
24.275796147814606
 20
107.08756012977696
 30
327.0
 10
24.250517287452002
 20
104.6731988136235
 30
327.0
 10
24.22566614297072
 20
102.25883129195819
 30
327.0
 10
24.201261824200717
 20
99.84445784143539
 30
327.0
 10
24.17732531139935
 20
97.43007870831504
 30
327.0
 10
24.153879884253122
 20
95.01569411321866
 30
327.0
 10
24.130951550879402
 20
92.60130425588507
 30
327.0
 10
24.086185042176773
 20
87.77225974174671
 30
327.0
 10
24.064348147411064
 20
85.35760509418236
 30
327.0
 10
24.043029578018047
 20
82.9429461024323
 30
327.0
 10
24.022203262862174
 20
80.5282834492328
 30
327.0
 10
24.00184585474599
 20
78.11361778741308
 30
327.0
 10
23.981936310970664
 20
75.69894975245126
 30
327.0
 10
23.962455473896544
 20
73.28427997503026
 30
327.0
 10
23.923284699588404
 20
68.32437389005955
 30
327.0
 10
23.90364043165567
 20
65.77913750395359
 30
327.0
 10
23.884432214443695
 20
63.23390066206672
 30
327.0
 10
23.865641334602984
 20
60.68866415823451
 30
327.0
 10
23.847250674582757
 20
58.14342886350669
 30
327.0
 10
23.82924438717814
 20
55.59819575661484
 30
327.0
 10
23.811607568738314
 20
53.05296597473814
 30
327.0
 10
23.77858801615085
 20
48.18987399484739
 30
327.0
 10
23.76314464268626
 20
45.87201121118073
 30
327.0
 10
23.747985084467796
 20
43.554153370132944
 30
327.0
 10
23.73309882134535
 20
41.23630171737724
 30
327.0
 10
23.718475608977798
 20
38.91845786774288
 30
327.0
 10
23.704105075811324
 20
36.6006239239286
 30
327.0
 10
23.68997584725096
 20
34.282802753881285
 30
327.0
 10
23.66569471973596
 20
30.23444147979535
 30
327.0
 10
23.65544213384445
 20
28.50389503371496
 30
327.0
 10
23.64531048895184
 20
26.773359899526806
 30
327.0
 10
23.635293620697862
 20
25.042837845036615
 30
327.0
 10
23.625383016574744
 20
23.31233241655784
 30
327.0
 10
23.615568585219048
 20
21.58184869373011
 30
327.0
 10
23.605836630410003
 20
19.851394032666718
 30
327.0
 10
23.593036667533635
 20
17.56261379206967
 30
327.0
 10
23.589919560811772
 20
17.004250279549808
 30
327.0
 10
23.5868080931471
 20
16.445891656163923
 30
327.0
 10
23.583697358201487
 20
15.887539064629408
 30
327.0
 10
23.580594509847657
 20
15.329192123867386
 30
327.0
 10
23.5774856883811
 20
14.77085355025767
 30
327.0
 10
23.57437889674919
 20
14.212523180052273
 30
327.0
 10
23.568448128614662
 20
13.1467828426039
 30
327.0
 10
23.56570432648405
 20
12.653730249373883
 30
327.0
 10
23.56303915567755
 20
12.174807457206779
 30
327.0
 10
23.560451295669093
 20
11.709777171733537
 30
327.0
 10
23.557939425932652
 20
11.258402098585128
 30
327.0
 10
23.555502225942156
 20
10.820444943392571
 30
327.0
 10
23.553138375171542
 20
10.395668411786914
 30
327.0
 10
23.54743446064284
 20
9.370692952165964
 30
327.0
 10
23.54402252536679
 20
8.757578938933996
 30
327.0
 10
23.54061075060354
 20
8.144493769376489
 30
327.0
 10
23.537199158931003
 20
7.531441500612431
 30
327.0
 10
23.53378780285586
 20
6.918431567954386
 30
327.0
 10
23.530376762330025
 20
6.305478338543047
 30
327.0
 10
23.526966154830802
 20
5.6926029226240225
 30
327.0
 10
23.52178577987513
 20
4.761705873854243
 30
327.0
 10
23.520015583362373
 20
4.443607140937253
 30
327.0
 10
23.518245596467686
 20
4.125546075702353
 30
327.0
 10
23.51647584766526
 20
3.8075277949273527
 30
327.0
 10
23.514706407692376
 20
3.489565009845087
 30
327.0
 10
23.512937385084523
 20
3.171677223912525
 30
327.0
 10
23.511168940086442
 20
2.8538932326627453
 30
327.0
 10
23.50858002804596
 20
2.3886739003488806
 30
327.0
 10
23.507758913574932
 20
2.241122218406531
 30
327.0
 10
23.506938023239513
 20
2.0936108129376763
 30
327.0
 10
23.506117390748322
 20
1.946145741254412
 30
327.0
 10
23.505297082514367
 20
1.798738937572164
 30
327.0
 10
23.50447719688378
 20
1.651408074391341
 30
327.0
 10
23.503657875165736
 20
1.504178544511074
 30
327.0
 10
23.5023212767456
 20
1.263996021944962
 30
327.0
 10
23.50180361931165
 20
1.1709746129337333
 30
327.0
 10
23.501286356449654
 20
1.078024107289913
 30
327.0
 10
23.500769527745465
 20
0.9851516183992715
 30
327.0
 10
23.50025328671984
 20
0.8923847334933015
 30
327.0
 10
23.499737876228306
 20
0.7997670929825915
 30
327.0
 10
23.499223659606535
 20
0.7073639870727355
 30
327.0
 10
23.4984243023893
 20
0.5637220150518374
 30
327.0
 10
23.498138353495484
 20
0.5123379002774016
 30
327.0
 10
23.497853150306568
 20
0.4610877862704399
 30
327.0
 10
23.49756878056211
 20
0.40998743972451734
 30
327.0
 10
23.497285426819325
 20
0.3590696653157295
 30
327.0
 10
23.49700407862675
 20
0.3085122820890831
 30
327.0
 10
23.49672571085347
 20
0.2584904707537987
 30
327.0
 10
23.496321208360627
 20
0.1858026479545174
 30
327.0
 10
23.496191969296802
 20
0.16257879563065103
 30
327.0
 10
23.4960644648949
 20
0.13966665644775844
 30
327.0
 10
23.49593865464761
 20
0.11705895180514858
 30
327.0
 10
23.495816018304932
 20
0.09502158745189604
 30
327.0
 10
23.495698922394734
 20
0.07397982161643313
 30
327.0
 10
23.495591815457022
 20
0.05473304253607125
 30
327.0
 10
23.495450482343703
 20
0.029335927616532587
 30
327.0
 10
23.49540481545109
 20
0.021129730976170435
 30
327.0
 10
23.49536617912019
 20
0.014186904107461373
 30
327.0
 10
23.49533605200397
 20
0.008773156297820606
 30
327.0
 10
23.495314785876186
 20
0.004951700178168039
 30
327.0
 10
23.495301421966317
 20
0.0025502477009027302
 30
327.0
 10
23.49529392767592
 20
0.0012035473426763588
 30
327.0
 10
23.49528637550809
 20
-0.00015355340913814075
 30
327.0
 10
23.495286634491553
 20
-0.0001620120831731242
 30
327.0
 10
23.495288127454977
 20
0.00010530311269363324
 30
327.0
 10
23.495286028561168
 20
0.00028581724140508413
 30
327.0
 10
23.495286165435186
 20
-1.4319153478936641e-05
 30
327.0
 10
23.4952944395022
 20
-0.0012047475947696284
 30
327.0
 10
23.495307461674297
 20
-0.003635564186815543
 30
327.0
 10
23.49534462589714
 20
-0.010313857873228473
 30
327.0
 10
23.495364926976833
 20
-0.013961897897751943
 30
327.0
 10
23.495390535726496
 20
-0.01856370948115479
 30
327.0
 10
23.49542221633942
 20
-0.02425661575361175
 30
327.0
 10
23.495460733008947
 20
-0.031177939845323167
 30
327.0
 10
23.495506849928375
 20
-0.03946500488651493
 30
327.0
 10
23.49556133129103
 20
-0.049255134007438535
 30
327.0
 10
23.495694912289355
 20
-0.07325921830236838
 30
327.0
 10
23.495775928938706
 20
-0.0878176547902671
 30
327.0
 10
23.49586900837957
 20
-0.1045437368884409
 30
327.0
 10
23.49597516775328
 20
-0.12362024168323513
 30
327.0
 10
23.49609542420112
 20
-0.14522994626096666
 30
327.0
 10
23.49623079486441
 20
-0.169555627707924
 30
327.0
 10
23.49638229688446
 20
-0.19678006311036714
 30
327.0
 10
23.49670426605538
 20
-0.2546369081402133
 30
327.0
 10
23.49687175702065
 20
-0.2847345065951288
 30
327.0
 10
23.497054184491674
 20
-0.3175161480495104
 30
327.0
 10
23.49725231266179
 20
-0.3531191556335804
 30
327.0
 10
23.497466905724302
 20
-0.391680852477547
 30
327.0
 10
23.49769872787253
 20
-0.43333856171160384
 30
327.0
 10
23.497948543299795
 20
-0.47822960646593055
 30
327.0
 10
23.498485689099034
 20
-0.5747530132754122
 30
327.0
 10
23.49877301947101
 20
-0.6263853753307618
 30
327.0
 10
23.49907987150867
 20
-0.681525719166836
 30
327.0
 10
23.4994070094053
 20
-0.7403113679137744
 30
327.0
 10
23.499755197354247
 20
-0.8028796447017612
 30
327.0
 10
23.500125199548823
 20
-0.869367872661026
 30
327.0
 10
23.50051778018234
 20
-0.9399133749218437
 30
327.0
 10
23.501688165364225
 20
-1.1502279025502382
 30
327.0
 10
23.502443937715086
 20
-1.2860378114857625
 30
327.0
 10
23.503200570277414
 20
-1.4220022976934779
 30
327.0
 10
23.503957816279392
 20
-1.558077017093126
 30
327.0
 10
23.50471550945507
 20
-1.6942320921947491
 30
327.0
 10
23.50547354264734
 20
-1.830448267186469
 30
327.0
 10
23.506231877738298
 20
-1.96671869243972
 30
327.0
 10
23.508255660880906
 20
-2.330386143334561
 30
327.0
 10
23.509521490666252
 20
-2.557851765327662
 30
327.0
 10
23.51078780724438
 20
-2.7854048624325394
 30
327.0
 10
23.51205448840644
 20
-3.013023474136247
 30
327.0
 10
23.513321449211826
 20
-3.2406923368668785
 30
327.0
 10
23.514588632346477
 20
-3.4684011514516726
 30
327.0
 10
23.515856008770573
 20
-3.696144699548661
 30
327.0
 10
23.519727387020055
 20
-4.391819166734447
 30
327.0
 10
23.522331882316497
 20
-4.859838761022608
 30
327.0
 10
23.52493684088736
 20
-5.3279416042524375
 30
327.0
 10
23.527542138074164
 20
-5.79610529571039
 30
327.0
 10
23.530147688848395
 20
-6.264314556029923
 30
327.0
 10
23.53275343720895
 20
-6.732559321977121
 30
327.0
 10
23.535359358569366
 20
-7.200835175464597
 30
327.0
 10
23.543054713207948
 20
-8.5836661449583
 30
327.0
 10
23.5481445205266
 20
-9.498288474873632
 30
327.0
 10
23.55323469876661
 20
-10.412977458149648
 30
327.0
 10
23.558325148000222
 20
-11.327715138166894
 30
327.0
 10
23.563415800113123
 20
-12.24248927495319
 30
327.0
 10
23.568506610265764
 20
-13.157291810935924
 30
327.0
 10
23.57359755881198
 20
-14.072119215846996
 30
327.0
 10
23.585779793782102
 20
-16.26122843634664
 30
327.0
 10
23.592870777881302
 20
-17.53552602233089
 30
327.0
 10
23.599984424854004
 20
-18.80985149316767
 30
327.0
 10
23.607132083341615
 20
-20.084198016867717
 30
327.0
 10
23.61432178694882
 20
-21.35856087221665
 30
327.0
 10
23.621560014459682
 20
-22.632936771830394
 30
327.0
 10
23.628851248739313
 20
-23.907324032630648
 30
327.0
 10
23.6507084631242
 20
-27.697972683068983
 30
327.0
 10
23.6654397540491
 20
-30.21426049422194
 30
327.0
 10
23.680423349984064
 20
-32.730573686825906
 30
327.0
 10
23.695677158716222
 20
-35.24690563962713
 30
327.0
 10
23.711216325783333
 20
-37.76325170814491
 30
327.0
 10
23.727055165917935
 20
-40.27960856467498
 30
327.0
 10
23.743206650091768
 20
-42.795974338907435
 30
327.0
 10
23.780498632595275
 20
-48.4909813746947
 30
327.0
 10
23.801833396006813
 20
-51.669625955647234
 30
327.0
 10
23.823715557727983
 20
-54.848278222545
 30
327.0
 10
23.846172480186098
 20
-58.02693553770335
 30
327.0
 10
23.86923318203516
 20
-61.20559579981743
 30
327.0
 10
23.8929294304169
 20
-64.38425723106678
 30
327.0
 10
23.917296704485917
 20
-67.56291827358868
 30
327.0
 10
23.961422777220143
 20
-73.15586550746342
 30
327.0
 10
23.980880703055462
 20
-75.5701523421165
 30
327.0
 10
24.000766453352682
 20
-77.98443746014281
 30
327.0
 10
24.021099113508512
 20
-80.39872023094411
 30
327.0
 10
24.04189963634053
 20
-82.81300001977377
 30
327.0
 10
24.063191269759006
 20
-85.22727617505018
 30
327.0
 10
24.08499998443865
 20
-87.6415480156701
 30
327.0
 10
24.145661012329864
 20
-94.19276471280334
 30
327.0
 10
24.18557434096019
 20
-98.32969957104748
 30
327.0
 10
24.22694758546197
 20
-102.466618665913
 30
327.0
 10
24.269661246022295
 20
-106.60352096580122
 30
327.0
 10
24.3136159329182
 20
-110.74040518779933
 30
327.0
 10
24.358726503023057
 20
-114.87726972480229
 30
327.0
 10
24.40491802483564
 20
-119.01411244661483
 30
327.0
 10
24.492512073016535
 20
-126.69034226404403
 30
327.0
 10
24.53364279495705
 20
-130.22973442354458
 30
327.0
 10
24.575473810206972
 20
-133.76910635526812
 30
327.0
 10
24.617966432580353
 20
-137.308455794372
 30
327.0
 10
24.661085836258138
 20
-140.8477791278636
 30
327.0
 10
24.704794122943785
 20
-144.38706946439885
 30
327.0
 10
24.74905555813492
 20
-147.92631802554985
 30
327.0
 10
24.813163953594408
 20
-152.99606312668465
 30
327.0
 10
24.832610429249634
 20
-154.52660742617195
 30
327.0
 10
24.85214396182308
 20
-156.0571384894884
 30
327.0
 10
24.871759162090626
 20
-157.5876546723601
 30
327.0
 10
24.891448221973576
 20
-159.11815255918572
 30
327.0
 10
24.911201680288638
 20
-160.64862720654162
 30
327.0
 10
24.93100642370971
 20
-162.17907143261743
 30
327.0
 10
24.957634067776866
 20
-164.23420599364317
 30
327.0
 10
24.964435398964522
 20
-164.75893454006257
 30
327.0
 10
24.971240042917337
 20
-165.28365748648363
 30
327.0
 10
24.978041721443343
 20
-165.808373402829
 30
327.0
 10
24.984843880982122
 20
-166.33308208221655
 30
327.0
 10
24.991646431955218
 20
-166.85778243863535
 30
327.0
 10
24.998448489425204
 20
-167.3824733343608
 30
327.0
 10
25.011203151667996
 20
-168.36631912700432
 30
327.0
 10
25.017155706873375
 20
-168.82547643613609
 30
327.0
 10
25.02310814197318
 20
-169.28462448078443
 30
327.0
 10
25.029060442806536
 20
-169.7437621686335
 30
327.0
 10
25.035012590916207
 20
-170.2028880759615
 30
327.0
 10
25.040964562549455
 20
-170.6620003705743
 30
327.0
 10
25.046916327658987
 20
-171.12109673473876
 30
327.0
 10
25.059776933477092
 20
-172.11311460899813
 30
327.0
 10
25.066685634204802
 20
-172.6460253215066
 30
327.0
 10
25.073593942947454
 20
-173.17890579778575
 30
327.0
 10
25.080501804576517
 20
-173.71175178543655
 30
327.0
 10
25.08740909083481
 20
-174.24455339119146
 30
327.0
 10
25.094315606423574
 20
-174.77729555044937
 30
327.0
 10
25.101221064400704
 20
-175.30995612959623
 30
327.0
 10
25.11167961278314
 20
-176.1166884936013
 30
327.0
 10
25.11523376295191
 20
-176.3908420245546
 30
327.0
 10
25.11878741049531
 20
-176.66495678491071
 30
327.0
 10
25.122340485897737
 20
-176.9390274125043
 30
327.0
 10
25.125892821978553
 20
-177.21304101166083
 30
327.0
 10
25.12944416320254
 20
-177.48697787137107
 30
327.0
 10
25.132994133356725
 20
-177.76080897200828
 30
327.0
 10
25.138502083333307
 20
-178.18567113671327
 30
327.0
 10
25.14036041356541
 20
-178.3290156130617
 30
327.0
 10
25.142120142141813
 20
-178.46475433535295
 30
327.0
 10
25.143784345993627
 20
-178.59312464626683
 30
327.0
 10
25.14535610205195
 20
-178.71436388848312
 30
327.0
 10
25.14683848724788
 20
-178.82870940468163
 30
327.0
 10
25.14823457851251
 20
-178.93639853754217
 30
327.0
 10
25.150660699436266
 20
-179.12354021309935
 30
327.0
 10
25.15177285162953
 20
-179.20932737353456
 30
327.0
 10
25.15288401345147
 20
-179.295038140521
 30
327.0
 10
25.15399403493439
 20
-179.3806609461172
 30
327.0
 10
25.155102593592595
 20
-179.46617091502657
 30
327.0
 10
25.156208946889056
 20
-179.5515107707712
 30
327.0
 10
25.157312145423642
 20
-179.636607280271
 30
327.0
 10
25.159041539244303
 20
-179.7700060956918
 30
327.0
 10
25.15962900987262
 20
-179.8153213298367
 30
327.0
 10
25.160174360473995
 20
-179.85738758643095
 30
327.0
 10
25.160679371679855
 20
-179.89634221656232
 30
327.0
 10
25.161145824121608
 20
-179.9323225713187
 30
327.0
 10
25.161575498430697
 20
-179.9654660017879
 30
327.0
 10
25.161970175238537
 20
-179.99590985905772
 30
327.0
 10
25.162584657133166
 20
-180.04330863882703
 30
327.0
 10
25.162821402823546
 20
-180.0615702946033
 30
327.0
 10
25.163042483004304
 20
-180.07862357296813
 30
327.0
 10
25.163248508432005
 20
-180.09451558534454
 30
327.0
 10
25.163440089863222
 20
-180.10929344315574
 30
327.0
 10
25.163617838054545
 20
-180.12300425782482
 30
327.0
 10
25.16378236376254
 20
-180.13569514077497
 30
327.0
 10
25.164194701711647
 20
-180.16750131083668
 30
327.0
 10
25.1644180626458
 20
-180.18473051778295
 30
327.0
 10
25.164607437477358
 20
-180.19933816694765
 30
327.0
 10
25.164765903137408
 20
-180.2115616010108
 30
327.0
 10
25.164896536557055
 20
-180.22163816265214
 30
327.0
 10
25.165002414667413
 20
-180.22980519455146
 30
327.0
 10
25.165086614399563
 20
-180.2363000393886
 30
327.0
 10
25.165253491193983
 20
-180.24917227614065
 30
327.0
 10
25.165301273256407
 20
-180.24887906621353
 30
327.0
 10
25.165061684485693
 20
-180.25148857803737
 30
327.0
 10
25.165741652554598
 20
-180.2524997557221
 30
327.0
 10
25.164825842065966
 20
-180.25668997246888
 30
327.0
 10
25.1656999441446
 20
-180.25428067414697
 30
327.0
 10
25.16518118934325
 20
-180.25510526323902
 30
327.0
 10
25.165328466662608
 20
-180.25495559662048
 30
327.0
  0
ENDSEC
  0
SECTION
  2
OBJECTS
  0
DICTIONARY
  5
A
330
0
100
AcDbDictionary
281
1
  3
ACAD_COLOR
350
B
  3
ACAD_GROUP
350
C
  3
ACAD_LAYOUT
350
D
  3
ACAD_MATERIAL
350
E
  3
ACAD_MLEADERSTYLE
350
F
  3
ACAD_MLINESTYLE
350
10
  3
ACAD_PLOTSETTINGS
350
11
  3
ACAD_PLOTSTYLENAME
350
12
  3
ACAD_SCALELIST
350
14
  3
ACAD_TABLESTYLE
350
15
  3
ACAD_VISUALSTYLE
350
16
  3
EZDXF_META
350
2D
  0
DICTIONARY
  5
B
330
A
100
AcDbDictionary
281
1
  0
DICTIONARY
  5
C
330
A
100
AcDbDictionary
281
1
  0
DICTIONARY
  5
D
330
A
100
AcDbDictionary
281
1
  3
Model
350
1A
  3
Layout1
350
1E
  0
DICTIONARY
  5
E
330
A
100
AcDbDictionary
281
1
  3
ByBlock
350
1F
  3
ByLayer
350
20
  3
Global
350
21
  0
DICTIONARY
  5
F
330
A
100
AcDbDictionary
281
1
  3
Standard
350
2C
  0
DICTIONARY
  5
10
330
A
100
AcDbDictionary
281
1
  3
Standard
350
22
  0
DICTIONARY
  5
11
330
A
100
AcDbDictionary
281
1
  0
ACDBDICTIONARYWDFLT
  5
12
330
A
100
AcDbDictionary
281
1
  3
Normal
350
13
100
AcDbDictionaryWithDefault
340
13
  0
ACDBPLACEHOLDER
  5
13
330
12
  0
DICTIONARY
  5
14
330
A
100
AcDbDictionary
281
1
  0
DICTIONARY
  5
15
330
A
100
AcDbDictionary
281
1
  0
DICTIONARY
  5
16
330
A
100
AcDbDictionary
281
1
  0
LAYOUT
  5
1A
330
D
100
AcDbPlotSettings
  1

  2
Adobe PDF
  4
A3
  6

 40
7.5
 41
20.0
 42
7.5
 43
20.0
 44
420.0
 45
297.0
 46
0.0
 47
0.0
 48
0.0
 49
0.0
140
0.0
141
0.0
142
1.0
143
1.0
 70
1024
 72
1
 73
1
 74
5
  7

 75
16
 76
0
 77
2
 78
300
147
1.0
148
0.0
149
0.0
100
AcDbLayout
  1
Model
 70
1
 71
0
 10
0.0
 20
0.0
 11
420.0
 21
297.0
 12
0.0
 22
0.0
 32
0.0
 14
1e+20
 24
1e+20
 34
1e+20
 15
-1e+20
 25
-1e+20
 35
-1e+20
146
0.0
 13
0.0
 23
0.0
 33
0.0
 16
1.0
 26
0.0
 36
0.0
 17
0.0
 27
1.0
 37
0.0
 76
1
330
17
  0
LAYOUT
  5
1E
330
D
100
AcDbPlotSettings
  1

  2
Adobe PDF
  4
A3
  6

 40
7.5
 41
20.0
 42
7.5
 43
20.0
 44
420.0
 45
297.0
 46
0.0
 47
0.0
 48
0.0
 49
0.0
140
0.0
141
0.0
142
1.0
143
1.0
 70
0
 72
1
 73
1
 74
5
  7

 75
16
 76
0
 77
2
 78
300
147
1.0
148
0.0
149
0.0
100
AcDbLayout
  1
Layout1
 70
1
 71
1
 10
0.0
 20
0.0
 11
420.0
 21
297.0
 12
0.0
 22
0.0
 32
0.0
 14
1e+20
 24
1e+20
 34
1e+20
 15
-1e+20
 25
-1e+20
 35
-1e+20
146
0.0
 13
0.0
 23
0.0
 33
0.0
 16
1.0
 26
0.0
 36
0.0
 17
0.0
 27
1.0
 37
0.0
 76
1
330
1B
  0
MATERIAL
  5
1F
102
{ACAD_REACTORS
330
E
102
}
330
E
100
AcDbMaterial
  1
ByBlock
  2

 70
0
 40
1.0
 71
1
 41
1.0
 91
-1023410177
 42
1.0
 72
1
  3

 73
1
 74
1
 75
1
 44
0.5
 73
0
 45
1.0
 46
1.0
 77
1
  4

 78
1
 79
1
170
1
 48
1.0
171
1
  6

172
1
173
1
174
1
140
1.0
141
1.0
175
1
  7

176
1
177
1
178
1
143
1.0
179
1
  8

270
1
271
1
272
1
145
1.0
146
1.0
273
1
  9

274
1
275
1
276
1
 42
1.0
 72
1
  3

 73
1
 74
1
 75
1
 94
63
  0
MATERIAL
  5
20
102
{ACAD_REACTORS
330
E
102
}
330
E
100
AcDbMaterial
  1
ByLayer
  2

 70
0
 40
1.0
 71
1
 41
1.0
 91
-1023410177
 42
1.0
 72
1
  3

 73
1
 74
1
 75
1
 44
0.5
 73
0
 45
1.0
 46
1.0
 77
1
  4

 78
1
 79
1
170
1
 48
1.0
171
1
  6

172
1
173
1
174
1
140
1.0
141
1.0
175
1
  7

176
1
177
1
178
1
143
1.0
179
1
  8

270
1
271
1
272
1
145
1.0
146
1.0
273
1
  9

274
1
275
1
276
1
 42
1.0
 72
1
  3

 73
1
 74
1
 75
1
 94
63
  0
MATERIAL
  5
21
102
{ACAD_REACTORS
330
E
102
}
330
E
100
AcDbMaterial
  1
Global
  2

 70
0
 40
1.0
 71
1
 41
1.0
 91
-1023410177
 42
1.0
 72
1
  3

 73
1
 74
1
 75
1
 44
0.5
 73
0
 45
1.0
 46
1.0
 77
1
  4

 78
1
 79
1
170
1
 48
1.0
171
1
  6

172
1
173
1
174
1
140
1.0
141
1.0
175
1
  7

176
1
177
1
178
1
143
1.0
179
1
  8

270
1
271
1
272
1
145
1.0
146
1.0
273
1
  9

274
1
275
1
276
1
 42
1.0
 72
1
  3

 73
1
 74
1
 75
1
 94
63
  0
MLINESTYLE
  5
22
102
{ACAD_REACTORS
330
10
102
}
330
10
100
AcDbMlineStyle
  2
Standard
 70
0
  3

 62
256
 51
90.0
 52
90.0
 71
2
 49
0.5
 62
256
  6
BYLAYER
 49
-0.5
 62
256
  6
BYLAYER
  0
MLEADERSTYLE
  5
2C
102
{ACAD_REACTORS
330
F
102
}
330
F
100
AcDbMLeaderStyle
179
2
170
2
171
1
172
0
 90
2
 40
0.0
 41
0.0
173
1
 91
-1056964608
 92
-2
290
1
 42
2.0
291
1
 43
8.0
  3
Standard
 44
4.0
300

342
29
174
1
175
1
176
0
178
1
 93
-1056964608
 45
4.0
292
0
297
0
 46
4.0
 94
-1056964608
 47
1.0
 49
1.0
140
1.0
294
1
141
0.0
177
0
142
1.0
295
0
296
0
143
3.75
271
0
272
9
273
9
  0
DICTIONARY
  5
2D
330
A
100
AcDbDictionary
280
1
281
1
  3
CREATED_BY_EZDXF
350
2E
  3
WRITTEN_BY_EZDXF
350
70
  0
DICTIONARYVAR
  5
2E
330
2D
100
DictionaryVariables
280
0
  1
0.17 @ 2022-02-15T16:29:04.083128+00:00
  0
DICTIONARYVAR
  5
70
330
2D
100
DictionaryVariables
280
0
  1
0.17 @ 2022-02-15T16:29:04.163754+00:00
  0
ENDSEC
  0
EOF
