  0
SECTION
  2
HEADER
  9
$ACADVER
  1
AC1027
  9
$ACADMAINTVER
 70
105
  9
$DWGCODEPAGE
  3
ANSI_1252
  9
$LASTSAVEDBY
  1
ezdxf
  9
$REQUIREDVERSIONS
160
0
  9
$INSBASE
 10
0.0
 20
0.0
 30
0.0
  9
$EXTMIN
 10
1e+20
 20
1e+20
 30
1e+20
  9
$EXTMAX
 10
-1e+20
 20
-1e+20
 30
-1e+20
  9
$LIMMIN
 10
0.0
 20
0.0
  9
$LIMMAX
 10
420.0
 20
297.0
  9
$ORTHOMODE
 70
0
  9
$REGENMODE
 70
1
  9
$FILLMODE
 70
1
  9
$QTEXTMODE
 70
0
  9
$MIRRTEXT
 70
1
  9
$LTSCALE
 40
1.0
  9
$ATTMODE
 70
1
  9
$TEXTSIZE
 40
2.5
  9
$TRACEWID
 40
1.0
  9
$TEXTSTYLE
  7
Standard
  9
$CLAYER
  8
0
  9
$CELTYPE
  6
ByLayer
  9
$CECOLOR
 62
256
  9
$CELTSCALE
 40
1.0
  9
$DISPSILH
 70
0
  9
$DIMSCALE
 40
1.0
  9
$DIMASZ
 40
2.5
  9
$DIMEXO
 40
0.625
  9
$DIMDLI
 40
3.75
  9
$DIMRND
 40
0.0
  9
$DIMDLE
 40
0.0
  9
$DIMEXE
 40
1.25
  9
$DIMTP
 40
0.0
  9
$DIMTM
 40
0.0
  9
$DIMTXT
 40
2.5
  9
$DIMCEN
 40
2.5
  9
$DIMTSZ
 40
0.0
  9
$DIMTOL
 70
0
  9
$DIMLIM
 70
0
  9
$DIMTIH
 70
0
  9
$DIMTOH
 70
0
  9
$DIMSE1
 70
0
  9
$DIMSE2
 70
0
  9
$DIMTAD
 70
1
  9
$DIMZIN
 70
8
  9
$DIMBLK
  1

  9
$DIMASO
 70
1
  9
$DIMSHO
 70
1
  9
$DIMPOST
  1

  9
$DIMAPOST
  1

  9
$DIMALT
 70
0
  9
$DIMALTD
 70
3
  9
$DIMALTF
 40
0.03937007874
  9
$DIMLFAC
 40
1.0
  9
$DIMTOFL
 70
1
  9
$DIMTVP
 40
0.0
  9
$DIMTIX
 70
0
  9
$DIMSOXD
 70
0
  9
$DIMSAH
 70
0
  9
$DIMBLK1
  1

  9
$DIMBLK2
  1

  9
$DIMSTYLE
  2
ISO-25
  9
$DIMCLRD
 70
0
  9
$DIMCLRE
 70
0
  9
$DIMCLRT
 70
0
  9
$DIMTFAC
 40
1.0
  9
$DIMGAP
 40
0.625
  9
$DIMJUST
 70
0
  9
$DIMSD1
 70
0
  9
$DIMSD2
 70
0
  9
$DIMTOLJ
 70
0
  9
$DIMTZIN
 70
8
  9
$DIMALTZ
 70
0
  9
$DIMALTTZ
 70
0
  9
$DIMUPT
 70
0
  9
$DIMDEC
 70
2
  9
$DIMTDEC
 70
2
  9
$DIMALTU
 70
2
  9
$DIMALTTD
 70
3
  9
$DIMTXSTY
  7
Standard
  9
$DIMAUNIT
 70
0
  9
$DIMADEC
 70
0
  9
$DIMALTRND
 40
0.0
  9
$DIMAZIN
 70
0
  9
$DIMDSEP
 70
44
  9
$DIMATFIT
 70
3
  9
$DIMFRAC
 70
0
  9
$DIMLDRBLK
  1

  9
$DIMLUNIT
 70
2
  9
$DIMLWD
 70
-2
  9
$DIMLWE
 70
-2
  9
$DIMTMOVE
 70
0
  9
$DIMFXL
 40
1.0
  9
$DIMFXLON
 70
0
  9
$DIMJOGANG
 40
0.785398163397
  9
$DIMTFILL
 70
0
  9
$DIMTFILLCLR
 70
0
  9
$DIMARCSYM
 70
0
  9
$DIMLTYPE
  6

  9
$DIMLTEX1
  6

  9
$DIMLTEX2
  6

  9
$DIMTXTDIRECTION
 70
0
  9
$LUNITS
 70
2
  9
$LUPREC
 70
4
  9
$SKETCHINC
 40
1.0
  9
$FILLETRAD
 40
10.0
  9
$AUNITS
 70
0
  9
$AUPREC
 70
2
  9
$MENU
  1
.
  9
$ELEVATION
 40
0.0
  9
$PELEVATION
 40
0.0
  9
$THICKNESS
 40
0.0
  9
$LIMCHECK
 70
0
  9
$CHAMFERA
 40
0.0
  9
$CHAMFERB
 40
0.0
  9
$CHAMFERC
 40
0.0
  9
$CHAMFERD
 40
0.0
  9
$SKPOLY
 70
0
  9
$TDCREATE
 40
2459626.7285300926
  9
$TDUCREATE
 40
2458532.153996898
  9
$TDUPDATE
 40
2459626.7285300926
  9
$TDUUPDATE
 40
2458532.1544311
  9
$TDINDWG
 40
0.0
  9
$TDUSRTIMER
 40
0.0
  9
$USRTIMER
 70
1
  9
$ANGBASE
 50
0.0
  9
$ANGDIR
 70
0
  9
$PDMODE
 70
0
  9
$PDSIZE
 40
0.0
  9
$PLINEWID
 40
0.0
  9
$SPLFRAME
 70
0
  9
$SPLINETYPE
 70
6
  9
$SPLINESEGS
 70
8
  9
$HANDSEED
  5
71
  9
$SURFTAB1
 70
6
  9
$SURFTAB2
 70
6
  9
$SURFTYPE
 70
6
  9
$SURFU
 70
6
  9
$SURFV
 70
6
  9
$UCSBASE
  2

  9
$UCSNAME
  2

  9
$UCSORG
 10
0.0
 20
0.0
 30
0.0
  9
$UCSXDIR
 10
1.0
 20
0.0
 30
0.0
  9
$UCSYDIR
 10
0.0
 20
1.0
 30
0.0
  9
$UCSORTHOREF
  2

  9
$UCSORTHOVIEW
 70
0
  9
$UCSORGTOP
 10
0.0
 20
0.0
 30
0.0
  9
$UCSORGBOTTOM
 10
0.0
 20
0.0
 30
0.0
  9
$UCSORGLEFT
 10
0.0
 20
0.0
 30
0.0
  9
$UCSORGRIGHT
 10
0.0
 20
0.0
 30
0.0
  9
$UCSORGFRONT
 10
0.0
 20
0.0
 30
0.0
  9
$UCSORGBACK
 10
0.0
 20
0.0
 30
0.0
  9
$PUCSBASE
  2

  9
$PUCSNAME
  2

  9
$PUCSORG
 10
0.0
 20
0.0
 30
0.0
  9
$PUCSXDIR
 10
1.0
 20
0.0
 30
0.0
  9
$PUCSYDIR
 10
0.0
 20
1.0
 30
0.0
  9
$PUCSORTHOREF
  2

  9
$PUCSORTHOVIEW
 70
0
  9
$PUCSORGTOP
 10
0.0
 20
0.0
 30
0.0
  9
$PUCSORGBOTTOM
 10
0.0
 20
0.0
 30
0.0
  9
$PUCSORGLEFT
 10
0.0
 20
0.0
 30
0.0
  9
$PUCSORGRIGHT
 10
0.0
 20
0.0
 30
0.0
  9
$PUCSORGFRONT
 10
0.0
 20
0.0
 30
0.0
  9
$PUCSORGBACK
 10
0.0
 20
0.0
 30
0.0
  9
$USERI1
 70
0
  9
$USERI2
 70
0
  9
$USERI3
 70
0
  9
$USERI4
 70
0
  9
$USERI5
 70
0
  9
$USERR1
 40
0.0
  9
$USERR2
 40
0.0
  9
$USERR3
 40
0.0
  9
$USERR4
 40
0.0
  9
$USERR5
 40
0.0
  9
$WORLDVIEW
 70
1
  9
$SHADEDGE
 70
3
  9
$SHADEDIF
 70
70
  9
$TILEMODE
 70
1
  9
$MAXACTVP
 70
64
  9
$PINSBASE
 10
0.0
 20
0.0
 30
0.0
  9
$PLIMCHECK
 70
0
  9
$PEXTMIN
 10
1e+20
 20
1e+20
 30
1e+20
  9
$PEXTMAX
 10
-1e+20
 20
-1e+20
 30
-1e+20
  9
$PLIMMIN
 10
0.0
 20
0.0
  9
$PLIMMAX
 10
420.0
 20
297.0
  9
$UNITMODE
 70
0
  9
$VISRETAIN
 70
1
  9
$PLINEGEN
 70
0
  9
$PSLTSCALE
 70
1
  9
$TREEDEPTH
 70
3020
  9
$CMLSTYLE
  2
Standard
  9
$CMLJUST
 70
0
  9
$CMLSCALE
 40
20.0
  9
$PROXYGRAPHICS
 70
1
  9
$MEASUREMENT
 70
1
  9
$CELWEIGHT
370
-1
  9
$ENDCAPS
280
0
  9
$JOINSTYLE
280
0
  9
$LWDISPLAY
290
0
  9
$INSUNITS
 70
6
  9
$HYPERLINKBASE
  1

  9
$STYLESHEET
  1

  9
$XEDIT
290
1
  9
$CEPSNTYPE
380
0
  9
$PSTYLEMODE
290
1
  9
$FINGERPRINTGUID
  2
{278E60DC-8D64-4562-A634-0A24208E4307}
  9
$VERSIONGUID
  2
{21011B83-6F9F-489D-A3E5-C09983A7CB2E}
  9
$EXTNAMES
290
1
  9
$PSVPSCALE
 40
0.0
  9
$OLESTARTUP
290
0
  9
$SORTENTS
280
127
  9
$INDEXCTL
280
0
  9
$HIDETEXT
280
1
  9
$XCLIPFRAME
280
0
  9
$HALOGAP
280
0
  9
$OBSCOLOR
 70
257
  9
$OBSLTYPE
280
0
  9
$INTERSECTIONDISPLAY
280
0
  9
$INTERSECTIONCOLOR
 70
257
  9
$DIMASSOC
280
2
  9
$PROJECTNAME
  1

  9
$CAMERADISPLAY
290
0
  9
$LENSLENGTH
 40
50.0
  9
$CAMERAHEIGHT
 40
0.0
  9
$STEPSPERSEC
 40
24.0
  9
$STEPSIZE
 40
100.0
  9
$3DDWFPREC
 40
2.0
  9
$PSOLWIDTH
 40
0.005
  9
$PSOLHEIGHT
 40
0.08
  9
$LOFTANG1
 40
1.570796326795
  9
$LOFTANG2
 40
1.570796326795
  9
$LOFTMAG1
 40
0.0
  9
$LOFTMAG2
 40
0.0
  9
$LOFTPARAM
 70
7
  9
$LOFTNORMALS
280
1
  9
$LATITUDE
 40
37.795
  9
$LONGITUDE
 40
-122.394
  9
$NORTHDIRECTION
 40
0.0
  9
$TIMEZONE
 70
-8000
  9
$LIGHTGLYPHDISPLAY
280
1
  9
$TILEMODELIGHTSYNCH
280
1
  9
$CMATERIAL
347
20
  9
$SOLIDHIST
280
0
  9
$SHOWHIST
280
1
  9
$DWFFRAME
280
2
  9
$DGNFRAME
280
2
  9
$REALWORLDSCALE
290
1
  9
$INTERFERECOLOR
 62
256
  9
$CSHADOW
280
0
  9
$SHADOWPLANELOCATION
 40
0.0
  0
ENDSEC
  0
SECTION
  2
CLASSES
  0
CLASS
  1
ACDBDICTIONARYWDFLT
  2
AcDbDictionaryWithDefault
  3
ObjectDBX Classes
 90
0
 91
0
280
0
281
0
  0
CLASS
  1
SUN
  2
AcDbSun
  3
SCENEOE
 90
1153
 91
0
280
0
281
0
  0
CLASS
  1
VISUALSTYLE
  2
AcDbVisualStyle
  3
ObjectDBX Classes
 90
4095
 91
0
280
0
281
0
  0
CLASS
  1
MATERIAL
  2
AcDbMaterial
  3
ObjectDBX Classes
 90
1153
 91
0
280
0
281
0
  0
CLASS
  1
SCALE
  2
AcDbScale
  3
ObjectDBX Classes
 90
1153
 91
0
280
0
281
0
  0
CLASS
  1
TABLESTYLE
  2
AcDbTableStyle
  3
ObjectDBX Classes
 90
4095
 91
0
280
0
281
0
  0
CLASS
  1
MLEADERSTYLE
  2
AcDbMLeaderStyle
  3
ACDB_MLEADERSTYLE_CLASS
 90
4095
 91
0
280
0
281
0
  0
CLASS
  1
DICTIONARYVAR
  2
AcDbDictionaryVar
  3
ObjectDBX Classes
 90
0
 91
0
280
0
281
0
  0
CLASS
  1
CELLSTYLEMAP
  2
AcDbCellStyleMap
  3
ObjectDBX Classes
 90
1152
 91
0
280
0
281
0
  0
CLASS
  1
MENTALRAYRENDERSETTINGS
  2
AcDbMentalRayRenderSettings
  3
SCENEOE
 90
1024
 91
0
280
0
281
0
  0
CLASS
  1
ACDBDETAILVIEWSTYLE
  2
AcDbDetailViewStyle
  3
ObjectDBX Classes
 90
1025
 91
0
280
0
281
0
  0
CLASS
  1
ACDBSECTIONVIEWSTYLE
  2
AcDbSectionViewStyle
  3
ObjectDBX Classes
 90
1025
 91
0
280
0
281
0
  0
CLASS
  1
RASTERVARIABLES
  2
AcDbRasterVariables
  3
ISM
 90
0
 91
0
280
0
281
0
  0
CLASS
  1
ACDBPLACEHOLDER
  2
AcDbPlaceHolder
  3
ObjectDBX Classes
 90
0
 91
0
280
0
281
0
  0
CLASS
  1
LAYOUT
  2
AcDbLayout
  3
ObjectDBX Classes
 90
0
 91
0
280
0
281
0
  0
ENDSEC
  0
SECTION
  2
TABLES
  0
TABLE
  2
VPORT
  5
8
330
0
100
AcDbSymbolTable
 70
1
  0
VPORT
  5
23
330
8
100
AcDbSymbolTableRecord
100
AcDbViewportTableRecord
  2
*Active
 70
0
 10
0.0
 20
0.0
 11
1.0
 21
1.0
 12
344.2
 22
148.5
 13
0.0
 23
0.0
 14
0.5
 24
0.5
 15
0.5
 25
0.5
 16
0.0
 26
0.0
 36
1.0
 17
0.0
 27
0.0
 37
0.0
 40
297.0
 41
1.34
 42
50.0
 43
0.0
 44
0.0
 50
0.0
 51
0.0
 71
0
 72
1000
 73
1
 74
3
 75
0
 76
0
 77
0
 78
0
281
0
 65
0
146
0.0
  0
ENDTAB
  0
TABLE
  2
LTYPE
  5
2
330
0
100
AcDbSymbolTable
 70
3
  0
LTYPE
  5
24
330
2
100
AcDbSymbolTableRecord
100
AcDbLinetypeTableRecord
  2
ByBlock
 70
0
  3

 72
65
 73
0
 40
0.0
  0
LTYPE
  5
25
330
2
100
AcDbSymbolTableRecord
100
AcDbLinetypeTableRecord
  2
ByLayer
 70
0
  3

 72
65
 73
0
 40
0.0
  0
LTYPE
  5
26
330
2
100
AcDbSymbolTableRecord
100
AcDbLinetypeTableRecord
  2
Continuous
 70
0
  3

 72
65
 73
0
 40
0.0
  0
ENDTAB
  0
TABLE
  2
LAYER
  5
1
330
0
100
AcDbSymbolTable
 70
2
  0
LAYER
  5
27
330
1
100
AcDbSymbolTableRecord
100
AcDbLayerTableRecord
  2
0
 70
0
 62
7
  6
Continuous
370
-3
390
13
347
21
  0
LAYER
  5
28
330
1
100
AcDbSymbolTableRecord
100
AcDbLayerTableRecord
  2
Defpoints
 70
0
 62
7
  6
Continuous
290
0
370
-3
390
13
347
21
  0
ENDTAB
  0
TABLE
  2
STYLE
  5
5
330
0
100
AcDbSymbolTable
 70
1
  0
STYLE
  5
29
330
5
100
AcDbSymbolTableRecord
100
AcDbTextStyleTableRecord
  2
Standard
 70
0
 40
0.0
 41
1.0
 50
0.0
 71
0
 42
2.5
  3
txt
  4

  0
ENDTAB
  0
TABLE
  2
VIEW
  5
7
330
0
100
AcDbSymbolTable
 70
0
  0
ENDTAB
  0
TABLE
  2
UCS
  5
6
330
0
100
AcDbSymbolTable
 70
0
  0
ENDTAB
  0
TABLE
  2
APPID
  5
3
330
0
100
AcDbSymbolTable
 70
3
  0
APPID
  5
2A
330
3
100
AcDbSymbolTableRecord
100
AcDbRegAppTableRecord
  2
ACAD
 70
0
  0
APPID
  5
6E
330
3
100
AcDbSymbolTableRecord
100
AcDbRegAppTableRecord
  2
HATCHBACKGROUNDCOLOR
 70
0
  0
APPID
  5
6F
330
3
100
AcDbSymbolTableRecord
100
AcDbRegAppTableRecord
  2
EZDXF
 70
0
  0
ENDTAB
  0
TABLE
  2
DIMSTYLE
  5
4
330
0
100
AcDbSymbolTable
 70
1
100
AcDbDimStyleTable
  0
DIMSTYLE
105
2B
330
4
100
AcDbSymbolTableRecord
100
AcDbDimStyleTableRecord
  2
Standard
 70
0
 40
1.0
 41
2.5
 42
0.625
 43
3.75
 44
1.25
 45
0.0
 46
0.0
 47
0.0
 48
0.0
 49
2.5
140
2.5
141
2.5
142
0.0
143
0.03937007874
144
1.0
145
0.0
146
1.0
147
0.625
148
0.0
 69
0
 70
0
 71
0
 72
0
 73
0
 74
0
 75
0
 76
0
 77
1
 78
8
 79
0
170
0
171
3
172
1
173
0
174
0
175
0
176
0
177
0
178
0
179
0
271
0
272
2
273
2
274
3
275
0
276
0
277
2
278
44
279
0
280
0
281
0
282
0
283
0
284
8
285
0
286
0
288
0
289
3
290
0
371
-2
372
-2
  0
ENDTAB
  0
TABLE
  2
BLOCK_RECORD
  5
9
330
0
100
AcDbSymbolTable
 70
2
  0
BLOCK_RECORD
  5
17
330
9
100
AcDbSymbolTableRecord
100
AcDbBlockTableRecord
  2
*Model_Space
340
1A
 70
0
280
1
281
0
  0
BLOCK_RECORD
  5
1B
330
9
100
AcDbSymbolTableRecord
100
AcDbBlockTableRecord
  2
*Paper_Space
340
1E
 70
0
280
1
281
0
  0
ENDTAB
  0
ENDSEC
  0
SECTION
  2
BLOCKS
  0
BLOCK
  5
18
330
17
100
AcDbEntity
  8
0
100
AcDbBlockBegin
  2
*Model_Space
 70
0
 10
0.0
 20
0.0
 30
0.0
  3
*Model_Space
  1

  0
ENDBLK
  5
19
330
17
100
AcDbEntity
  8
0
100
AcDbBlockEnd
  0
BLOCK
  5
1C
330
1B
100
AcDbEntity
  8
0
100
AcDbBlockBegin
  2
*Paper_Space
 70
0
 10
0.0
 20
0.0
 30
0.0
  3
*Paper_Space
  1

  0
ENDBLK
  5
1D
330
1B
100
AcDbEntity
  8
0
100
AcDbBlockEnd
  0
ENDSEC
  0
SECTION
  2
ENTITIES
  0
SPLINE
  5
2F
330
17
100
AcDbEntity
  8
0
100
AcDbSpline
 70
0
 71
8
 72
102
 73
93
 74
0
 40
0.0
 40
0.0
 40
0.0
 40
0.0
 40
0.0
 40
0.0
 40
0.0
 40
0.0
 40
0.0
 40
0.007893454353471952
 40
0.007893454353471952
 40
0.007893454353471952
 40
0.007893454353471952
 40
0.007893454353471952
 40
0.007893454353471952
 40
0.007893454353471952
 40
0.10943049479956347
 40
0.10943049479956347
 40
0.10943049479956347
 40
0.10943049479956347
 40
0.10943049479956347
 40
0.10943049479956347
 40
0.10943049479956347
 40
0.21866196625654397
 40
0.21866196625654397
 40
0.21866196625654397
 40
0.21866196625654397
 40
0.21866196625654397
 40
0.21866196625654397
 40
0.21866196625654397
 40
0.31013181658422223
 40
0.31013181658422223
 40
0.31013181658422223
 40
0.31013181658422223
 40
0.31013181658422223
 40
0.31013181658422223
 40
0.31013181658422223
 40
0.3939426246554926
 40
0.3939426246554926
 40
0.3939426246554926
 40
0.3939426246554926
 40
0.3939426246554926
 40
0.3939426246554926
 40
0.3939426246554926
 40
0.4447453724469736
 40
0.4447453724469736
 40
0.4447453724469736
 40
0.4447453724469736
 40
0.4447453724469736
 40
0.4447453724469736
 40
0.4447453724469736
 40
0.5051684001988657
 40
0.5051684001988657
 40
0.5051684001988657
 40
0.5051684001988657
 40
0.5051684001988657
 40
0.5051684001988657
 40
0.5051684001988657
 40
0.5530978176848099
 40
0.5530978176848099
 40
0.5530978176848099
 40
0.5530978176848099
 40
0.5530978176848099
 40
0.5530978176848099
 40
0.5530978176848099
 40
0.5792492756368829
 40
0.5792492756368829
 40
0.5792492756368829
 40
0.5792492756368829
 40
0.5792492756368829
 40
0.5792492756368829
 40
0.5792492756368829
 40
0.6056396028071365
 40
0.6056396028071365
 40
0.6056396028071365
 40
0.6056396028071365
 40
0.6056396028071365
 40
0.6056396028071365
 40
0.6056396028071365
 40
0.666258181609713
 40
0.666258181609713
 40
0.666258181609713
 40
0.666258181609713
 40
0.666258181609713
 40
0.666258181609713
 40
0.666258181609713
 40
0.8380283107250368
 40
0.8380283107250368
 40
0.8380283107250368
 40
0.8380283107250368
 40
0.8380283107250368
 40
0.8380283107250368
 40
0.8380283107250368
 40
1.0
 40
1.0
 40
1.0
 40
1.0
 40
1.0
 40
1.0
 40
1.0
 40
1.0
 40
1.0
 10
54.12254606953222
 20
183.90000021575173
 30
353.0
 10
54.10811951067752
 20
183.94375913228208
 30
353.0
 10
54.09366267491082
 20
183.9875080364929
 30
353.0
 10
54.0791754304103
 20
184.0312468583219
 30
353.0
 10
54.06465764870563
 20
184.07497552835878
 30
353.0
 10
54.0501092064878
 20
184.11869397838174
 30
353.0
 10
54.035529987892694
 20
184.16240214203202
 30
353.0
 10
54.02091988735083
 20
184.20609995565246
 30
353.0
 10
53.817944114428045
 20
184.81175800925712
 30
353.0
 10
53.6244733199141
 20
185.371991380183
 30
353.0
 10
53.4255682401461
 20
185.9303397715571
 30
353.0
 10
53.220901866016256
 20
186.4866215718256
 30
353.0
 10
53.010114284210246
 20
187.04061973941356
 30
353.0
 10
52.79280484514186
 20
187.59207882662574
 30
353.0
 10
52.56852058334464
 20
188.1407005464583
 30
353.0
 10
52.08739703696738
 20
189.2729082128538
 30
353.0
 10
51.82940519503766
 20
189.85592952549004
 30
353.0
 10
51.56210074250667
 20
190.4348214764862
 30
353.0
 10
51.284749993037586
 20
191.00906138694165
 30
353.0
 10
50.99654209504382
 20
191.57798051632048
 30
353.0
 10
50.69656372916898
 20
192.1407512543776
 30
353.0
 10
50.3837566041844
 20
192.69636523148972
 30
353.0
 10
49.78311439926125
 20
193.70185578312257
 30
353.0
 10
49.49955744244399
 20
194.15412056719333
 30
353.0
 10
49.2054171336161
 20
194.5997443451141
 30
353.0
 10
48.8998930651366
 20
195.03783307798741
 30
353.0
 10
48.582148947509666
 20
195.4672472442393
 30
353.0
 10
48.25130441416756
 20
195.8865958022567
 30
353.0
 10
47.90642385248731
 20
196.29422791393168
 30
353.0
 10
47.21671797350348
 20
197.0492266132718
 30
353.0
 10
46.87438767453449
 20
197.39869190434842
 30
353.0
 10
46.518764838117875
 20
197.73513370247042
 30
353.0
 10
46.149231830533786
 20
198.05669048460388
 30
353.0
 10
45.765345411816966
 20
198.36118340738165
 30
353.0
 10
45.3668972913085
 20
198.6461942187069
 30
353.0
 10
44.954023458686514
 20
198.90920457520616
 30
353.0
 10
44.26879157789018
 20
199.29249099530549
 30
353.0
 10
44.00514614171287
 20
199.4281788488126
 30
353.0
 10
43.736672294163384
 20
199.5543421738273
 30
353.0
 10
43.46363642567942
 20
199.67046423701674
 30
353.0
 10
43.186366368235205
 20
199.77609205728626
 30
353.0
 10
42.905259037273915
 20
199.87085564204952
 30
353.0
 10
42.62078807364016
 20
199.9544872234988
 30
353.0
 10
41.99183466660981
 20
200.1128949685873
 30
353.0
 10
41.6460933475638
 20
200.18301956318646
 30
353.0
 10
41.29725381505377
 20
200.23694423027064
 30
353.0
 10
40.9462358555688
 20
200.27470651046985
 30
353.0
 10
40.593908669085145
 20
200.2966034429141
 30
353.0
 10
40.24108678274365
 20
200.3031434747016
 30
353.0
 10
39.88852596452731
 20
200.29499837036676
 30
353.0
 10
39.258013708703494
 20
200.25546973333874
 30
353.0
 10
38.97966207411721
 20
200.22923659287684
 30
353.0
 10
38.702155171636996
 20
200.19464042289584
 30
353.0
 10
38.42573436561356
 20
200.15210121186178
 30
353.0
 10
38.150594400901284
 20
200.10205555556004
 30
353.0
 10
37.87688579895299
 20
200.04494155815502
 30
353.0
 10
37.604716695398885
 20
199.98118729252303
 30
353.0
 10
37.18652858539059
 20
199.87301758644128
 30
353.0
 10
37.0393794485456
 20
199.8329862697891
 30
353.0
 10
36.89272634907697
 20
199.79114363155682
 30
353.0
 10
36.74658781172384
 20
199.74752340479984
 30
353.0
 10
36.60098124546268
 20
199.7021582939735
 30
353.0
 10
36.45592294350724
 20
199.65507997493305
 30
353.0
 10
36.311428083308556
 20
199.60631909493353
 30
353.0
 10
36.0222788187521
 20
199.50503096700078
 30
353.0
 10
35.877251028999474
 20
199.45233953796975
 30
353.0
 10
35.73244391566596
 20
199.39784557707702
 30
353.0
 10
35.587874037119356
 20
199.3415636758638
 30
353.0
 10
35.443557951726255
 20
199.28350842587167
 30
353.0
 10
35.29951221785215
 20
199.22369441864328
 30
353.0
 10
35.155753393861374
 20
199.16213624572185
 30
353.0
 10
34.682781100690285
 20
198.95347655012304
 30
353.0
 10
34.356895282199744
 20
198.7998746093165
 30
353.0
 10
34.03476174461873
 20
198.63839626667223
 30
353.0
 10
33.7164878785551
 20
198.46937539834792
 30
353.0
 10
33.40216775823498
 20
198.29312536811716
 30
353.0
 10
33.091882596486435
 20
198.1099382292678
 30
353.0
 10
32.78570119972308
 20
197.92008392650104
 30
353.0
 10
31.62786775211952
 20
197.16764198910747
 30
353.0
 10
30.805858622944644
 20
196.56018273929521
 30
353.0
 10
30.01844777995612
 20
195.90683563349683
 30
353.0
 10
29.266786883924265
 20
195.21203205170454
 30
353.0
 10
28.55212510262797
 20
194.4795349794016
 30
353.0
 10
27.875736603308788
 20
193.71252414457308
 30
353.0
 10
27.238957473751803
 20
192.91356328967962
 30
353.0
 10
26.081532945527254
 20
191.30282820516499
 30
353.0
 10
25.55662101949808
 20
190.4947818562186
 30
353.0
 10
25.069844433118433
 20
189.66226765313525
 30
353.0
 10
24.62293162450773
 20
188.80713617973012
 30
353.0
 10
24.21787727238147
 20
187.931302839509
 30
353.0
 10
23.856868121182014
 20
187.03678660087982
 30
353.0
 10
23.542222538541584
 20
186.1257403622589
 30
353.0
 10
23.276295127005117
 20
185.20049606045473
 30
353.0
  0
LINE
  5
30
330
17
100
AcDbEntity
  8
0
100
AcDbLine
 10
35.35980705011985
 20
183.9
 30
353.0
 11
54.122545415110125
 21
183.9
 31
353.0
  0
SPLINE
  5
31
330
17
100
AcDbEntity
  8
0
100
AcDbSpline
 70
0
 71
1
 72
4
 73
2
 74
0
 40
0.0
 40
0.0
 40
1.0
 40
1.0
 10
35.359807049955904
 20
183.90000060000014
 30
353.0
 10
35.359807049955904
 20
180.0999993999999
 30
353.0
  0
LINE
  5
32
330
17
100
AcDbEntity
  8
0
100
AcDbLine
 10
35.35980705011985
 20
180.1
 30
353.0
 11
55.2763561218131
 21
180.1
 31
353.0
  0
SPLINE
  5
33
330
17
100
AcDbEntity
  8
0
100
AcDbSpline
 70
0
 71
8
 72
39
 73
30
 74
0
 40
0.0
 40
0.0
 40
0.0
 40
0.0
 40
0.0
 40
0.0
 40
0.0
 40
0.0
 40
0.0
 40
0.2682535497640352
 40
0.2682535497640352
 40
0.2682535497640352
 40
0.2682535497640352
 40
0.2682535497640352
 40
0.2682535497640352
 40
0.2682535497640352
 40
0.7907813179579326
 40
0.7907813179579326
 40
0.7907813179579326
 40
0.7907813179579326
 40
0.7907813179579326
 40
0.7907813179579326
 40
0.7907813179579326
 40
0.9636284953214471
 40
0.9636284953214471
 40
0.9636284953214471
 40
0.9636284953214471
 40
0.9636284953214471
 40
0.9636284953214471
 40
0.9636284953214471
 40
1.0
 40
1.0
 40
1.0
 40
1.0
 40
1.0
 40
1.0
 40
1.0
 40
1.0
 40
1.0
 10
59.90843556354267
 20
157.90000008714333
 30
353.0
 10
59.7851829472188
 20
158.6582463781233
 30
353.0
 10
59.66012401020127
 20
159.41619809675058
 30
353.0
 10
59.53319250284413
 20
160.17383906169806
 30
353.0
 10
59.40431697918383
 20
160.93115153454198
 30
353.0
 10
59.273420051557046
 20
161.68811609679187
 30
353.0
 10
59.14041747761269
 20
162.44471149873323
 30
353.0
 10
59.005217079718236
 20
163.2009144800828
 30
353.0
 10
58.59988376157279
 20
165.42888396663082
 30
353.0
 10
58.32333446025026
 20
166.89943760563918
 30
353.0
 10
58.037311447711325
 20
168.36820649275433
 30
353.0
 10
57.7409336507105
 20
169.83496248322538
 30
353.0
 10
57.433137243143214
 20
171.2993900437898
 30
353.0
 10
57.1126329715572
 20
172.7610772648498
 30
353.0
 10
56.77778980937001
 20
174.21949118368022
 30
353.0
 10
56.31010256014599
 20
176.15502776770907
 30
353.0
 10
56.19330466414729
 20
176.63044867112026
 30
353.0
 10
56.07596084575995
 20
177.1001184315542
 30
353.0
 10
55.95807152044699
 20
177.56397528329794
 30
353.0
 10
55.83963710367093
 20
178.02195746063703
 30
353.0
 10
55.72065801089398
 20
178.4740031978555
 30
353.0
 10
55.601134657577916
 20
178.92005072923547
 30
353.0
 10
55.455802223530725
 20
179.45262302104243
 30
353.0
 10
55.43044666062386
 20
179.5451829545442
 30
353.0
 10
55.404999543130906
 20
179.63771767637695
 30
353.0
 10
55.379459836965914
 20
179.73022681090495
 30
353.0
 10
55.3538265831276
 20
179.8227099898655
 30
353.0
 10
55.328098830083704
 20
179.91516683573073
 30
353.0
 10
55.30227559902461
 20
180.00759695374455
 30
353.0
 10
55.276355869724675
 20
180.0999999292873
 30
353.0
  0
LINE
  5
34
330
17
100
AcDbEntity
  8
0
100
AcDbLine
 10
35.35980705011985
 20
157.9
 30
353.0
 11
59.908435027439694
 21
157.9
 31
353.0
  0
SPLINE
  5
35
330
17
100
AcDbEntity
  8
0
100
AcDbSpline
 70
0
 71
1
 72
4
 73
2
 74
0
 40
0.0
 40
0.0
 40
1.0
 40
1.0
 10
35.359807049955904
 20
157.90000060000042
 30
353.0
 10
35.359807049955904
 20
154.09999939999918
 30
353.0
  0
LINE
  5
36
330
17
100
AcDbEntity
  8
0
100
AcDbLine
 10
35.35980705011985
 20
154.1
 30
353.0
 11
60.50667273515304
 21
154.1
 31
353.0
  0
SPLINE
  5
37
330
17
100
AcDbEntity
  8
0
100
AcDbSpline
 70
0
 71
8
 72
25
 73
16
 74
0
 40
0.0
 40
0.0
 40
0.0
 40
0.0
 40
0.0
 40
0.0
 40
0.0
 40
0.0
 40
0.0
 40
0.8564465365198584
 40
0.8564465365198584
 40
0.8564465365198584
 40
0.8564465365198584
 40
0.8564465365198584
 40
0.8564465365198584
 40
0.8564465365198584
 40
1.0
 40
1.0
 40
1.0
 40
1.0
 40
1.0
 40
1.0
 40
1.0
 40
1.0
 40
1.0
 10
63.401508902802824
 20
131.90000000061076
 30
353.0
 10
63.13436394480891
 20
134.28199612759346
 30
353.0
 10
62.85839748691384
 20
136.66299704435994
 30
353.0
 10
62.573068396164174
 20
139.04291130130875
 30
353.0
 10
62.27775126646012
 20
141.4216211646185
 30
353.0
 10
61.97171409863448
 20
143.79897972375065
 30
353.0
 10
61.654091113367464
 20
146.17480743493294
 30
353.0
 10
61.323831513986505
 20
148.54888558832897
 30
353.0
 10
60.92190742052877
 20
151.3185372794992
 30
353.0
 10
60.863817533968046
 20
151.7160726992425
 30
353.0
 10
60.805329106218565
 20
152.1135492396939
 30
353.0
 10
60.746435655209524
 20
152.51096560381242
 30
353.0
 10
60.68713046053915
 20
152.9083204026402
 30
353.0
 10
60.62740655348523
 20
153.30561215371577
 30
353.0
 10
60.56725670358626
 20
153.70283927891083
 30
353.0
 10
60.50667340179336
 20
154.10000010168994
 30
353.0
  0
LINE
  5
38
330
17
100
AcDbEntity
  8
0
100
AcDbLine
 10
35.35980705011985
 20
131.9
 30
353.0
 11
63.40150889735679
 21
131.9
 31
353.0
  0
SPLINE
  5
39
330
17
100
AcDbEntity
  8
0
100
AcDbSpline
 70
0
 71
1
 72
4
 73
2
 74
0
 40
0.0
 40
0.0
 40
1.0
 40
1.0
 10
35.359807049955904
 20
131.90000060000256
 30
353.0
 10
35.359807049955904
 20
128.09999939999764
 30
353.0
  0
LINE
  5
3A
330
17
100
AcDbEntity
  8
0
100
AcDbLine
 10
35.35980705011985
 20
128.1
 30
353.0
 11
63.81798018253603
 21
128.1
 31
353.0
  0
SPLINE
  5
3B
330
17
100
AcDbEntity
  8
0
100
AcDbSpline
 70
0
 71
8
 72
18
 73
9
 74
0
 40
0.0
 40
0.0
 40
0.0
 40
0.0
 40
0.0
 40
0.0
 40
0.0
 40
0.0
 40
0.0
 40
1.0
 40
1.0
 40
1.0
 40
1.0
 40
1.0
 40
1.0
 40
1.0
 40
1.0
 40
1.0
 10
65.91471944123653
 20
105.89999997525892
 30
353.0
 10
65.68398882055324
 20
108.67785554017165
 30
353.0
 10
65.4450810270662
 20
111.45502832638736
 30
353.0
 10
65.19768319504804
 20
114.23146794507156
 30
353.0
 10
64.94142761847422
 20
117.0071118578627
 30
353.0
 10
64.6758853556217
 20
119.78188478093733
 30
353.0
 10
64.40055211334293
 20
122.55569733571693
 30
353.0
 10
64.11482641101429
 20
125.32844394621692
 30
353.0
 10
63.817980024159866
 20
128.0999999830372
 30
353.0
  0
LINE
  5
3C
330
17
100
AcDbEntity
  8
0
100
AcDbLine
 10
35.35980705011985
 20
105.9
 30
353.0
 11
65.91471973910436
 21
105.9
 31
353.0
  0
SPLINE
  5
3D
330
17
100
AcDbEntity
  8
0
100
AcDbSpline
 70
0
 71
1
 72
4
 73
2
 74
0
 40
0.0
 40
0.0
 40
1.0
 40
1.0
 10
35.359807049955904
 20
105.90000060000206
 30
353.0
 10
35.359807049955904
 20
102.09999939999993
 30
353.0
  0
LINE
  5
3E
330
17
100
AcDbEntity
  8
0
100
AcDbLine
 10
35.35980705011985
 20
102.1
 30
353.0
 11
66.22369645200003
 21
102.1
 31
353.0
  0
SPLINE
  5
3F
330
17
100
AcDbEntity
  8
0
100
AcDbSpline
 70
0
 71
8
 72
25
 73
16
 74
0
 40
0.0
 40
0.0
 40
0.0
 40
0.0
 40
0.0
 40
0.0
 40
0.0
 40
0.0
 40
0.0
 40
0.7761070393238122
 40
0.7761070393238122
 40
0.7761070393238122
 40
0.7761070393238122
 40
0.7761070393238122
 40
0.7761070393238122
 40
0.7761070393238122
 40
1.0
 40
1.0
 40
1.0
 40
1.0
 40
1.0
 40
1.0
 40
1.0
 40
1.0
 40
1.0
 10
67.77643954178592
 20
79.89999999963688
 30
353.0
 10
67.64596120567799
 20
82.05504595082873
 30
353.0
 10
67.51110901682888
 20
84.20982678168805
 30
353.0
 10
67.37184820810114
 20
86.36433002824872
 30
353.0
 10
67.22814244463265
 20
88.51854277803528
 30
353.0
 10
67.07995382383659
 20
90.67245167006307
 30
353.0
 10
66.92724287540142
 20
92.82604289483814
 30
353.0
 10
66.76996856129095
 20
94.97930219435723
 30
353.0
 10
66.5613887168306
 20
97.75329155235393
 30
353.0
 10
66.51430527743203
 20
98.37433933249994
 30
353.0
 10
66.4668378528223
 20
98.9953579345591
 30
353.0
 10
66.41898573604166
 20
99.61634703175055
 30
353.0
 10
66.370747637405
 20
100.23730624212962
 30
353.0
 10
66.32212170400999
 20
100.85823513221781
 30
353.0
 10
66.2731055392453
 20
101.4791332206331
 30
353.0
 10
66.22369622229871
 20
102.09999998172009
 30
353.0
  0
LINE
  5
40
330
17
100
AcDbEntity
  8
0
100
AcDbLine
 10
35.35980705011985
 20
79.9
 30
353.0
 11
67.7764395477835
 21
79.9
 31
353.0
  0
SPLINE
  5
41
330
17
100
AcDbEntity
  8
0
100
AcDbSpline
 70
0
 71
1
 72
4
 73
2
 74
0
 40
0.0
 40
0.0
 40
1.0
 40
1.0
 10
35.359807049955904
 20
79.90000060000001
 30
353.0
 10
35.359807049955904
 20
76.09999939999999
 30
353.0
  0
LINE
  5
42
330
17
100
AcDbEntity
  8
0
100
AcDbLine
 10
35.35980705011985
 20
76.1
 30
353.0
 11
68.00056298361122
 21
76.1
 31
353.0
  0
SPLINE
  5
43
330
17
100
AcDbEntity
  8
0
100
AcDbSpline
 70
0
 71
8
 72
18
 73
9
 74
0
 40
0.0
 40
0.0
 40
0.0
 40
0.0
 40
0.0
 40
0.0
 40
0.0
 40
0.0
 40
0.0
 40
1.0
 40
1.0
 40
1.0
 40
1.0
 40
1.0
 40
1.0
 40
1.0
 40
1.0
 40
1.0
 10
69.07769620787643
 20
53.900000022385086
 30
353.0
 10
68.96724880288964
 20
56.67610584584179
 30
352.99999999999994
 10
68.85000339782785
 20
59.45194032346361
 30
352.9999999999999
 10
68.72590692525156
 20
62.227481838829135
 30
352.9999999999999
 10
68.59490302446395
 20
65.00270823060656
 30
352.9999999999999
 10
68.45693191464083
 20
67.77759678822248
 30
352.9999999999999
 10
68.31193025118472
 20
70.55212424699997
 30
352.9999999999999
 10
68.15983096530287
 20
73.32626678276559
 30
352.9999999999999
 10
68.00056308680975
 20
76.10000000592566
 30
352.9999999999999
  0
LINE
  5
44
330
17
100
AcDbEntity
  8
0
100
AcDbLine
 10
35.35980705011985
 20
53.9
 30
353.0
 11
69.07769564522584
 21
53.9
 31
353.0
  0
SPLINE
  5
45
330
17
100
AcDbEntity
  8
0
100
AcDbSpline
 70
0
 71
1
 72
4
 73
2
 74
0
 40
0.0
 40
0.0
 40
1.0
 40
1.0
 10
35.359807049955904
 20
53.90000060000026
 30
353.0
 10
35.359807049955904
 20
50.09999939999937
 30
353.0
  0
LINE
  5
46
330
17
100
AcDbEntity
  8
0
100
AcDbLine
 10
35.35980705011985
 20
50.1
 30
353.0
 11
69.22331293749257
 21
50.1
 31
353.0
  0
SPLINE
  5
47
330
17
100
AcDbEntity
  8
0
100
AcDbSpline
 70
0
 71
8
 72
18
 73
9
 74
0
 40
0.0
 40
0.0
 40
0.0
 40
0.0
 40
0.0
 40
0.0
 40
0.0
 40
0.0
 40
0.0
 40
1.0
 40
1.0
 40
1.0
 40
1.0
 40
1.0
 40
1.0
 40
1.0
 40
1.0
 40
1.0
 10
69.8554078056764
 20
27.89999999734802
 30
353.0
 10
69.79934547377752
 20
30.675590176075914
 30
353.0
 10
69.7368037418365
 20
33.45104992851897
 30
353.0
 10
69.667747426189
 20
36.226360818861
 30
353.0
 10
69.59213851472728
 20
39.00150388392144
 30
353.0
 10
69.50993609919203
 20
41.7764596306977
 30
353.0
 10
69.4210962907658
 20
44.551208033379105
 30
353.0
 10
69.32557211896841
 20
47.32572852983234
 30
353.0
 10
69.22331341385397
 20
50.10000001755853
 30
353.0
  0
LINE
  5
48
330
17
100
AcDbEntity
  8
0
100
AcDbLine
 10
35.35980705011985
 20
27.9
 30
353.0
 11
69.8554079369732
 21
27.9
 31
353.0
  0
SPLINE
  5
49
330
17
100
AcDbEntity
  8
0
100
AcDbSpline
 70
0
 71
1
 72
4
 73
2
 74
0
 40
0.0
 40
0.0
 40
1.0
 40
1.0
 10
35.359807049955904
 20
27.900000600000002
 30
353.0
 10
35.359807049955904
 20
24.099999399999998
 30
353.0
  0
LINE
  5
4A
330
17
100
AcDbEntity
  8
0
100
AcDbLine
 10
35.35980705011985
 20
24.1
 30
353.0
 11
69.92685608583935
 21
24.1
 31
353.0
  0
SPLINE
  5
4B
330
17
100
AcDbEntity
  8
0
100
AcDbSpline
 70
0
 71
8
 72
18
 73
9
 74
0
 40
0.0
 40
0.0
 40
0.0
 40
0.0
 40
0.0
 40
0.0
 40
0.0
 40
0.0
 40
0.0
 40
1.0
 40
1.0
 40
1.0
 40
1.0
 40
1.0
 40
1.0
 40
1.0
 40
1.0
 40
1.0
 10
70.13461632020824
 20
1.9000000000426138
 30
353.0
 10
70.13079893386082
 20
4.675152974860231
 30
353.0
 10
70.12069739929082
 20
7.450294257392338
 30
353.0
 10
70.10429245092186
 20
10.225408490412601
 30
353.0
 10
70.08156217832001
 20
13.000479797246392
 30
353.0
 10
70.05248201715132
 20
15.775491781170292
 30
353.0
 10
70.01702472347729
 20
18.550427524284284
 30
353.0
 10
69.97516033138845
 20
21.32526958585666
 30
353.0
 10
69.92685609397574
 20
24.100000000141634
 30
353.0
  0
LINE
  5
4C
330
17
100
AcDbEntity
  8
0
100
AcDbLine
 10
35.35980705011985
 20
1.9
 30
353.0
 11
70.13461628922718
 21
1.9
 31
353.0
  0
SPLINE
  5
4D
330
17
100
AcDbEntity
  8
0
100
AcDbSpline
 70
0
 71
1
 72
4
 73
2
 74
0
 40
0.0
 40
0.0
 40
0.9999993684216398
 40
0.9999993684216398
 10
35.359807049955904
 20
1.9000006000000558
 30
353.0
 10
35.359807049955904
 20
-6.553790374438061e-17
 30
353.0
  0
SPLINE
  5
4E
330
17
100
AcDbEntity
  8
0
100
AcDbSpline
 70
0
 71
1
 72
4
 73
2
 74
0
 40
0.0
 40
0.0
 40
1.0
 40
1.0
 10
35.359807049955904
 20
-1.9000006000000011
 30
353.0
 10
35.359807049955904
 20
1.2000000211287443e-06
 30
353.0
  0
LINE
  5
4F
330
17
100
AcDbEntity
  8
0
100
AcDbLine
 10
35.35980705011986
 20
-1.9
 30
353.0
 11
70.13469254326414
 21
-1.9
 31
353.0
  0
SPLINE
  5
50
330
17
100
AcDbEntity
  8
0
100
AcDbSpline
 70
0
 71
8
 72
18
 73
9
 74
0
 40
0.0
 40
0.0
 40
0.0
 40
0.0
 40
0.0
 40
0.0
 40
0.0
 40
0.0
 40
0.0
 40
1.0
 40
1.0
 40
1.0
 40
1.0
 40
1.0
 40
1.0
 40
1.0
 40
1.0
 40
1.0
 10
69.92778408623607
 20
-24.100000000479685
 30
353.0
 10
69.97599050321736
 20
-21.325271816830412
 30
353.0
 10
70.01775352177864
 20
-18.550432314801846
 30
353.0
 10
70.05310643275017
 20
-15.775499114465083
 30
353.0
 10
70.08207974174435
 20
-13.00048920025387
 30
353.0
 10
70.10470122838245
 20
-10.225418923920103
 30
353.0
 10
70.12099599268677
 20
-7.450304007043885
 30
353.0
 10
70.13098649116446
 20
-4.6751595432182995
 30
353.0
 10
70.13469256510898
 20
-1.900000000029159
 30
353.0
  0
LINE
  5
51
330
17
100
AcDbEntity
  8
0
100
AcDbLine
 10
35.35980705011986
 20
-24.1
 30
353.0
 11
69.92778405862519
 21
-24.1
 31
353.0
  0
SPLINE
  5
52
330
17
100
AcDbEntity
  8
0
100
AcDbSpline
 70
0
 71
1
 72
4
 73
2
 74
0
 40
0.0
 40
0.0
 40
1.0
 40
1.0
 10
35.359807049955904
 20
-27.900000600000034
 30
353.0
 10
35.359807049955904
 20
-24.099999399999938
 30
353.0
  0
LINE
  5
53
330
17
100
AcDbEntity
  8
0
100
AcDbLine
 10
35.35980705011986
 20
-27.9
 30
353.0
 11
69.85646665453424
 21
-27.9
 31
353.0
  0
SPLINE
  5
54
330
17
100
AcDbEntity
  8
0
100
AcDbSpline
 70
0
 71
8
 72
18
 73
9
 74
0
 40
0.0
 40
0.0
 40
0.0
 40
0.0
 40
0.0
 40
0.0
 40
0.0
 40
0.0
 40
0.0
 40
1.0
 40
1.0
 40
1.0
 40
1.0
 40
1.0
 40
1.0
 40
1.0
 40
1.0
 40
1.0
 10
69.2249726296904
 20
-50.100000013599015
 30
353.0
 10
69.32717836269342
 20
-47.325725728839046
 30
353.0
 10
69.42264216870983
 20
-44.551202893076386
 30
353.0
 10
69.51141475179722
 20
-41.77645292187637
 30
353.0
 10
69.59354362668743
 20
-39.00149657592866
 30
353.0
 10
69.6690732337344
 20
-36.22635396607249
 30
353.0
 10
69.73804503506645
 20
-33.451044557593164
 30
353.0
 10
69.80049759447638
 20
-30.675587173910436
 30
353.0
 10
69.85646664358164
 20
-27.899999999779123
 30
353.0
  0
LINE
  5
55
330
17
100
AcDbEntity
  8
0
100
AcDbLine
 10
35.35980705011986
 20
-50.1
 30
353.0
 11
69.22497226055839
 21
-50.1
 31
353.0
  0
SPLINE
  5
56
330
17
100
AcDbEntity
  8
0
100
AcDbSpline
 70
0
 71
1
 72
4
 73
2
 74
0
 40
0.0
 40
0.0
 40
1.0
 40
1.0
 10
35.359807049955904
 20
-53.9000006
 30
353.0
 10
35.359807049955904
 20
-50.0999994
 30
353.0
  0
LINE
  5
57
330
17
100
AcDbEntity
  8
0
100
AcDbLine
 10
35.35980705011986
 20
-53.9
 30
353.0
 11
69.07942138952018
 21
-53.9
 31
353.0
  0
SPLINE
  5
58
330
17
100
AcDbEntity
  8
0
100
AcDbSpline
 70
0
 71
8
 72
18
 73
9
 74
0
 40
0.0
 40
0.0
 40
0.0
 40
0.0
 40
0.0
 40
0.0
 40
0.0
 40
0.0
 40
0.0
 40
1.0
 40
1.0
 40
1.0
 40
1.0
 40
1.0
 40
1.0
 40
1.0
 40
1.0
 40
1.0
 10
68.00238795431288
 20
-76.09999999991749
 30
353.0
 10
68.16167835194356
 20
-73.32627532027064
 30
353.0
 10
68.31378919595447
 20
-70.55213717948305
 30
353.0
 10
68.45879195084025
 20
-67.77761097143723
 30
353.0
 10
68.59675416960042
 20
-65.00272140267664
 30
353.0
 10
68.72773968595077
 20
-62.22749250052116
 30
353.0
 10
68.85180878168738
 20
-59.45194762016645
 30
353.0
 10
68.96901833174982
 20
-56.67610945088871
 30
353.0
 10
69.07942192953008
 20
-53.90000002147575
 30
353.0
  0
LINE
  5
59
330
17
100
AcDbEntity
  8
0
100
AcDbLine
 10
35.35980705011986
 20
-76.1
 30
353.0
 11
68.00238795574957
 21
-76.1
 31
353.0
  0
SPLINE
  5
5A
330
17
100
AcDbEntity
  8
0
100
AcDbSpline
 70
0
 71
1
 72
4
 73
2
 74
0
 40
0.0
 40
0.0
 40
1.0
 40
1.0
 10
35.359807049955904
 20
-79.90000060000018
 30
353.0
 10
35.359807049955904
 20
-76.09999939999999
 30
353.0
  0
LINE
  5
5B
330
17
100
AcDbEntity
  8
0
100
AcDbLine
 10
35.35980705011986
 20
-79.9
 30
353.0
 11
67.77822349566623
 21
-79.9
 31
353.0
  0
SPLINE
  5
5C
330
17
100
AcDbEntity
  8
0
100
AcDbSpline
 70
0
 71
8
 72
32
 73
23
 74
0
 40
0.0
 40
0.0
 40
0.0
 40
0.0
 40
0.0
 40
0.0
 40
0.0
 40
0.0
 40
0.0
 40
0.034991960137056605
 40
0.034991960137056605
 40
0.034991960137056605
 40
0.034991960137056605
 40
0.034991960137056605
 40
0.034991960137056605
 40
0.034991960137056605
 40
0.2830253724059799
 40
0.2830253724059799
 40
0.2830253724059799
 40
0.2830253724059799
 40
0.2830253724059799
 40
0.2830253724059799
 40
0.2830253724059799
 40
1.0
 40
1.0
 40
1.0
 40
1.0
 40
1.0
 40
1.0
 40
1.0
 40
1.0
 40
1.0
 10
66.22482149070899
 20
-102.09999997891586
 30
353.0
 10
66.23251995551637
 20
-102.00332017247044
 30
353.0
 10
66.2402095568869
 20
-101.90663090090455
 30
353.0
 10
66.24789029398062
 20
-101.80993228043926
 30
353.0
 10
66.25556216595757
 20
-101.71322442729563
 30
353.0
 10
66.2632251719778
 20
-101.61650745769472
 30
353.0
 10
66.27087931120134
 20
-101.51978148785761
 30
353.0
 10
66.27852458278824
 20
-101.42304663400536
 30
353.0
 10
66.34029008051012
 20
-100.6405554721181
 30
353.0
 10
66.39397247006171
 20
-99.95439412132473
 30
353.0
 10
66.44720877627138
 20
-99.2678294699741
 30
353.0
 10
66.4999995327146
 20
-98.58086976388705
 30
353.0
 10
66.55234518482409
 20
-97.89352098471042
 30
353.0
 10
66.60424608989001
 20
-97.20578684991679
 30
353.0
 10
66.65570251705986
 20
-96.51766881280471
 30
353.0
 10
66.85417221273137
 20
-93.83895434673535
 30
353.0
 10
66.99770313255074
 20
-91.8484550958313
 30
353.0
 10
67.13734097205797
 20
-89.85767888079646
 30
353.0
 10
67.27311803982535
 20
-87.86663608059887
 30
353.0
 10
67.40506543832745
 20
-85.87533688428971
 30
353.0
 10
67.53321311049731
 20
-83.88379129295942
 30
353.0
 10
67.65758988249857
 20
-81.89200912153666
 30
353.0
 10
67.77822350296478
 20
-79.90000000044199
 30
353.0
  0
LINE
  5
5D
330
17
100
AcDbEntity
  8
0
100
AcDbLine
 10
35.35980705011986
 20
-102.1
 30
353.0
 11
66.22482175549067
 21
-102.1
 31
353.0
  0
SPLINE
  5
5E
330
17
100
AcDbEntity
  8
0
100
AcDbSpline
 70
0
 71
1
 72
4
 73
2
 74
0
 40
0.0
 40
0.0
 40
1.0
 40
1.0
 10
35.359807049955904
 20
-105.90000060000003
 30
353.0
 10
35.359807049955904
 20
-102.09999939999999
 30
353.0
  0
LINE
  5
5F
330
17
100
AcDbEntity
  8
0
100
AcDbLine
 10
35.35980705011986
 20
-105.9
 30
353.0
 11
65.91565269082795
 21
-105.9
 31
353.0
  0
SPLINE
  5
60
330
17
100
AcDbEntity
  8
0
100
AcDbSpline
 70
0
 71
8
 72
25
 73
16
 74
0
 40
0.0
 40
0.0
 40
0.0
 40
0.0
 40
0.0
 40
0.0
 40
0.0
 40
0.0
 40
0.0
 40
0.9246348284323903
 40
0.9246348284323903
 40
0.9246348284323903
 40
0.9246348284323903
 40
0.9246348284323903
 40
0.9246348284323903
 40
0.9246348284323903
 40
1.0
 40
1.0
 40
1.0
 40
1.0
 40
1.0
 40
1.0
 40
1.0
 40
1.0
 40
1.0
 10
63.81740901950478
 20
-128.0999999982522
 30
353.0
 10
64.09206459726414
 20
-125.53752792719882
 30
353.0
 10
64.3572087669104
 20
-122.97403207064808
 30
353.0
 10
64.61341595977098
 20
-120.40961841049327
 30
353.0
 10
64.86116661521645
 20
-117.84437475574939
 30
353.0
 10
65.10087117425337
 20
-115.27837330976601
 30
353.0
 10
65.33288273872053
 20
-112.71167202052982
 30
353.0
 10
65.55750513318128
 20
-110.14431546023624
 30
353.0
 10
65.79273093988397
 20
-107.36702500895508
 30
352.99999999999994
 10
65.81041688354631
 20
-107.15764562644995
 30
352.99999999999994
 10
65.82806092890912
 20
-106.9481990341632
 30
352.99999999999994
 10
65.84566306728982
 20
-106.73868643346454
 30
352.99999999999994
 10
65.86322329000578
 20
-106.52910902572364
 30
352.99999999999994
 10
65.88074158837442
 20
-106.31946801231024
 30
352.99999999999994
 10
65.89821795371314
 20
-106.109764594594
 30
352.99999999999994
 10
65.91565237733934
 20
-105.89999997394466
 30
352.99999999999994
  0
LINE
  5
61
330
17
100
AcDbEntity
  8
0
100
AcDbLine
 10
35.35980705011986
 20
-128.1
 30
353.0
 11
63.81740903581168
 21
-128.1
 31
353.0
  0
SPLINE
  5
62
330
17
100
AcDbEntity
  8
0
100
AcDbSpline
 70
0
 71
1
 72
4
 73
2
 74
0
 40
0.0
 40
0.0
 40
1.0
 40
1.0
 10
35.359807049955904
 20
-131.9000006
 30
353.0
 10
35.359807049955904
 20
-128.09999939999992
 30
353.0
  0
LINE
  5
63
330
17
100
AcDbEntity
  8
0
100
AcDbLine
 10
35.35980705011986
 20
-131.9
 30
353.0
 11
63.40063148967865
 21
-131.9
 31
353.0
  0
SPLINE
  5
64
330
17
100
AcDbEntity
  8
0
100
AcDbSpline
 70
0
 71
8
 72
25
 73
16
 74
0
 40
0.0
 40
0.0
 40
0.0
 40
0.0
 40
0.0
 40
0.0
 40
0.0
 40
0.0
 40
0.0
 40
0.6155488926623744
 40
0.6155488926623744
 40
0.6155488926623744
 40
0.6155488926623744
 40
0.6155488926623744
 40
0.6155488926623744
 40
0.6155488926623744
 40
1.0
 40
1.0
 40
1.0
 40
1.0
 40
1.0
 40
1.0
 40
1.0
 40
1.0
 40
1.0
 10
60.50389704585703
 20
-154.10000000018212
 30
353.0
 10
60.76381899331595
 20
-152.39699903605944
 30
353.0
 10
61.01577346990827
 20
-150.69277736849517
 30
353.0
 10
61.260351432050044
 20
-148.98746800132028
 30
353.0
 10
61.49804783971611
 20
-147.2811820400403
 30
353.0
 10
61.72928854883696
 20
-145.57401256915205
 30
353.0
 10
61.95444552395223
 20
-143.86603683769323
 30
353.0
 10
62.17384610821429
 20
-142.15731759449704
 30
353.0
 10
62.52139929557465
 20
-139.38026251365494
 30
353.0
 10
62.65288418434814
 20
-138.31235560814565
 30
353.0
 10
62.782307659549794
 20
-137.24419630717597
 30
353.0
 10
62.90973508186498
 20
-136.17579637901088
 30
353.0
 10
63.035226924923094
 20
-135.10716682191125
 30
353.0
 10
63.15883932989232
 20
-134.03831792373563
 30
353.0
 10
63.28062457191365
 20
-132.96925931198118
 30
353.0
 10
63.400631453271885
 20
-131.89999999591396
 30
353.0
  0
LINE
  5
65
330
17
100
AcDbEntity
  8
0
100
AcDbLine
 10
35.35980705011986
 20
-154.1
 30
353.0
 11
60.50389704466365
 21
-154.1
 31
353.0
  0
SPLINE
  5
66
330
17
100
AcDbEntity
  8
0
100
AcDbSpline
 70
0
 71
1
 72
4
 73
2
 74
0
 40
0.0
 40
0.0
 40
1.0
 40
1.0
 10
35.359807049955904
 20
-157.90000060000003
 30
353.0
 10
35.359807049955904
 20
-154.0999994
 30
353.0
  0
LINE
  5
67
330
17
100
AcDbEntity
  8
0
100
AcDbLine
 10
35.35980705011986
 20
-157.9
 30
353.0
 11
59.905341961450155
 21
-157.9
 31
353.0
  0
SPLINE
  5
68
330
17
100
AcDbEntity
  8
0
100
AcDbSpline
 70
0
 71
8
 72
32
 73
23
 74
0
 40
0.0
 40
0.0
 40
0.0
 40
0.0
 40
0.0
 40
0.0
 40
0.0
 40
0.0
 40
0.0
 40
0.12385456474038632
 40
0.12385456474038632
 40
0.12385456474038632
 40
0.12385456474038632
 40
0.12385456474038632
 40
0.12385456474038632
 40
0.12385456474038632
 40
0.41504129585460364
 40
0.41504129585460364
 40
0.41504129585460364
 40
0.41504129585460364
 40
0.41504129585460364
 40
0.41504129585460364
 40
0.41504129585460364
 40
1.0
 40
1.0
 40
1.0
 40
1.0
 40
1.0
 40
1.0
 40
1.0
 40
1.0
 40
1.0
 10
55.27198500444307
 20
-180.09999995961113
 30
353.0
 10
55.366855524708086
 20
-179.76179546115483
 30
353.0
 10
55.46043426861396
 20
-179.42322725436247
 30
353.0
 10
55.55277306586768
 20
-179.08431640821334
 30
353.0
 10
55.64391875152381
 20
-178.74508171533512
 30
353.0
 10
55.733913743203246
 20
-178.4055398020172
 30
353.0
 10
55.822799894176015
 20
-178.06570621639096
 30
353.0
 10
55.91061890165835
 20
-177.72559558360607
 30
353.0
 10
56.20143416395354
 20
-176.58498059574816
 30
353.0
 10
56.39974764867575
 20
-175.78328381808834
 30
353.0
 10
56.592807599177014
 20
-174.98029113859914
 30
353.0
 10
56.781002748393576
 20
-174.17613870118876
 30
353.0
 10
56.96466550222288
 20
-173.370940862011
 30
353.0
 10
57.14408630013707
 20
-172.56479357607517
 30
353.0
 10
57.31952280104886
 20
-171.75777654737857
 30
353.0
 10
57.83609031671247
 20
-169.32713724670631
 30
353.0
 10
58.165813116194
 20
-167.701113031152
 30
353.0
 10
58.482231032437994
 20
-166.07240471851085
 30
353.0
 10
58.786734814203456
 20
-164.44141438717995
 30
353.0
 10
59.080439720933356
 20
-162.80845935417057
 30
353.0
 10
59.364274143477566
 20
-161.17378876641402
 30
353.0
 10
59.639017638470804
 20
-159.5375906857412
 30
353.0
 10
59.905341670785575
 20
-157.89999995272868
 30
353.0
  0
LINE
  5
69
330
17
100
AcDbEntity
  8
0
100
AcDbLine
 10
35.35980705011986
 20
-180.1
 30
353.0
 11
55.271985148425614
 21
-180.1
 31
353.0
  0
SPLINE
  5
6A
330
17
100
AcDbEntity
  8
0
100
AcDbSpline
 70
0
 71
1
 72
4
 73
2
 74
0
 40
0.0
 40
0.0
 40
1.0
 40
1.0
 10
35.359807049955904
 20
-183.9000006000001
 30
353.0
 10
35.359807049955904
 20
-180.09999939999994
 30
353.0
  0
LINE
  5
6B
330
17
100
AcDbEntity
  8
0
100
AcDbLine
 10
35.35980705011986
 20
-183.9
 30
353.0
 11
54.118222374419695
 21
-183.9
 31
353.0
  0
SPLINE
  5
6C
330
17
100
AcDbEntity
  8
0
100
AcDbSpline
 70
0
 71
8
 72
88
 73
79
 74
0
 40
0.0
 40
0.0
 40
0.0
 40
0.0
 40
0.0
 40
0.0
 40
0.0
 40
0.0
 40
0.0
 40
0.01826569097115298
 40
0.01826569097115298
 40
0.01826569097115298
 40
0.01826569097115298
 40
0.01826569097115298
 40
0.01826569097115298
 40
0.01826569097115298
 40
0.032795086117000806
 40
0.032795086117000806
 40
0.032795086117000806
 40
0.032795086117000806
 40
0.032795086117000806
 40
0.032795086117000806
 40
0.032795086117000806
 40
0.04459478740508381
 40
0.04459478740508381
 40
0.04459478740508381
 40
0.04459478740508381
 40
0.04459478740508381
 40
0.04459478740508381
 40
0.04459478740508381
 40
0.04965770559349914
 40
0.04965770559349914
 40
0.04965770559349914
 40
0.04965770559349914
 40
0.04965770559349914
 40
0.04965770559349914
 40
0.04965770559349914
 40
0.05492091781845232
 40
0.05492091781845232
 40
0.05492091781845232
 40
0.05492091781845232
 40
0.05492091781845232
 40
0.05492091781845232
 40
0.05492091781845232
 40
0.061543354662186106
 40
0.061543354662186106
 40
0.061543354662186106
 40
0.061543354662186106
 40
0.061543354662186106
 40
0.061543354662186106
 40
0.061543354662186106
 40
0.07075253723467279
 40
0.07075253723467279
 40
0.07075253723467279
 40
0.07075253723467279
 40
0.07075253723467279
 40
0.07075253723467279
 40
0.07075253723467279
 40
0.07772492625497812
 40
0.07772492625497812
 40
0.07772492625497812
 40
0.07772492625497812
 40
0.07772492625497812
 40
0.07772492625497812
 40
0.07772492625497812
 40
0.0900714705253865
 40
0.0900714705253865
 40
0.0900714705253865
 40
0.0900714705253865
 40
0.0900714705253865
 40
0.0900714705253865
 40
0.0900714705253865
 40
0.10640964357088686
 40
0.10640964357088686
 40
0.10640964357088686
 40
0.10640964357088686
 40
0.10640964357088686
 40
0.10640964357088686
 40
0.10640964357088686
 40
0.11045527393995534
 40
0.11045527393995534
 40
0.11045527393995534
 40
0.11045527393995534
 40
0.11045527393995534
 40
0.11045527393995534
 40
0.11045527393995534
 40
0.11045527393995534
 40
0.11045527393995534
 10
23.276295127005117
 20
-185.20049606045473
 30
353.0
 10
23.54453364898108
 20
-186.13378143539478
 30
353.0
 10
23.862339457692652
 20
-187.05261616717755
 30
353.0
 10
24.227295118174126
 20
-187.9546118366464
 30
353.0
 10
24.6370214455105
 20
-188.83756345924047
 30
353.0
 10
25.089276215263727
 20
-189.6994026376584
 30
353.0
 10
25.582016378869685
 20
-190.53816625776358
 30
353.0
 10
26.113475188303724
 20
-191.35195612249842
 30
353.0
 10
27.13478029481698
 20
-192.76480942075955
 30
353.0
 10
27.610802570946383
 20
-193.3736079717338
 30
353.0
 10
28.10968696783255
 20
-193.96433060349102
 30
353.0
 10
28.630802826638448
 20
-194.53587234365358
 30
353.0
 10
29.17355839766422
 20
-195.08696817889813
 30
353.0
 10
29.737404249697132
 20
-195.6161885343105
 30
353.0
 10
30.321856015605274
 20
-196.12191526866977
 30
353.0
 10
31.41761326809828
 20
-196.99242969957018
 30
353.0
 10
31.92192915190575
 20
-197.3657636396663
 30
353.0
 10
32.43929199340665
 20
-197.72133532533167
 30
353.0
 10
32.96943935732816
 20
-198.05797730990193
 30
353.0
 10
33.51202814036381
 20
-198.37433584677632
 30
353.0
 10
34.06662870153105
 20
-198.6688797767543
 30
353.0
 10
34.63272348783843
 20
-198.93990183660048
 30
353.0
 10
35.45727882006576
 20
-199.29089693221206
 30
353.0
 10
35.70683675194434
 20
-199.39159631098372
 30
353.0
 10
35.95832866953415
 20
-199.48745930664185
 30
353.0
 10
36.21169014320493
 20
-199.57832660014927
 30
353.0
 10
36.46684721080612
 20
-199.66403190853515
 30
353.0
 10
36.723715993412945
 20
-199.74440312148903
 30
353.0
 10
36.982202311072584
 20
-199.81926343795303
 30
353.0
 10
37.512486102381374
 20
-199.96033796389378
 30
353.0
 10
37.784399276981084
 20
-200.0261036085944
 30
353.0
 10
38.05787719499528
 20
-200.08533097255133
 30
353.0
 10
38.33282708026739
 20
-200.13757649784566
 30
353.0
 10
38.609098597253876
 20
-200.18241985741992
 30
353.0
 10
38.88651381582639
 20
-200.21940721674045
 30
353.0
 10
39.1648368007734
 20
-200.24812013461656
 30
353.0
 10
39.79478025330739
 20
-200.2933817705129
 30
353.0
 10
40.14683674469904
 20
-200.30487950873894
 30
353.0
 10
40.499293159655885
 20
-200.30185574373257
 30
353.0
 10
40.85141551530927
 20
-200.2836159835775
 30
353.0
 10
41.2024050296445
 20
-200.2496199806372
 30
353.0
 10
41.55140198082016
 20
-200.19953133285486
 30
353.0
 10
41.89748939956119
 20
-200.1332683479997
 30
353.0
 10
42.71557105161733
 20
-199.93673164548363
 30
353.0
 10
43.184197502794454
 20
-199.791503484869
 30
353.0
 10
43.64284576644808
 20
-199.61594141469527
 30
353.0
 10
44.08956445365169
 20
-199.4115656789741
 30
353.0
 10
44.52303227524973
 20
-199.1805437036121
 30
353.0
 10
44.94242316275486
 20
-198.9254047651626
 30
353.0
 10
45.3472958377265
 20
-198.6488030455012
 30
353.0
 10
46.03296096791279
 20
-198.12967535925392
 30
353.0
 10
46.32013272213762
 20
-197.8950942791163
 30
353.0
 10
46.599113156966695
 20
-197.65062478188312
 30
353.0
 10
46.870066944834036
 20
-197.39722802468683
 30
353.0
 10
47.133220159927866
 20
-197.13579188253792
 30
353.0
 10
47.38884267129869
 20
-196.86711194223807
 30
353.0
 10
47.63723676966651
 20
-196.59187936032464
 30
353.0
 10
48.306366213072785
 20
-195.8127264817532
 30
353.0
 10
48.71218026308857
 20
-195.29627187131948
 30
353.0
 10
49.09813456789005
 20
-194.7644488867636
 30
353.0
 10
49.46591990392976
 20
-194.21984135790137
 30
353.0
 10
49.81705268565981
 20
-193.6645454939077
 30
353.0
 10
50.15292384318417
 20
-193.1002031754751
 30
353.0
 10
50.474824044243014
 20
-192.52801908464673
 30
353.0
 10
51.1930579220619
 20
-191.18226846294178
 30
353.0
 10
51.579582012606515
 20
-190.40382898020894
 30
353.0
 10
51.94622352120369
 20
-189.61562279249526
 30
353.0
 10
52.2950530734491
 20
-188.81933852954134
 30
353.0
 10
52.62778503972923
 20
-188.01630531021934
 30
353.0
 10
52.94589144172996
 20
-187.20754319699856
 30
353.0
 10
53.250649277727824
 20
-186.39378403901233
 30
353.0
 10
53.61563737579136
 20
-185.3728752127292
 30
353.0
 10
53.687919554486285
 20
-185.1683229311908
 30
353.0
 10
53.76004242561282
 20
-184.96183230637388
 30
353.0
 10
53.83200470966617
 20
-184.7533946517187
 30
353.0
 10
53.903805127141666
 20
-184.5430012806651
 30
353.0
 10
53.97544239853475
 20
-184.3306435066525
 30
353.0
 10
54.04691524434098
 20
-184.11631264312
 30
353.0
 10
54.11822238505602
 20
-183.90000000350625
 30
353.0
  0
SPLINE
  5
6D
330
17
100
AcDbEntity
  8
0
100
AcDbSpline
 70
0
 71
8
 72
368
 73
359
 74
0
 40
0.0
 40
0.0
 40
0.0
 40
0.0
 40
0.0
 40
0.0
 40
0.0
 40
0.0
 40
0.0
 40
0.0014424299060557652
 40
0.0014424299060557652
 40
0.0014424299060557652
 40
0.0014424299060557652
 40
0.0014424299060557652
 40
0.0014424299060557652
 40
0.0014424299060557652
 40
0.0029451100709621918
 40
0.0029451100709621918
 40
0.0029451100709621918
 40
0.0029451100709621918
 40
0.0029451100709621918
 40
0.0029451100709621918
 40
0.0029451100709621918
 40
0.004447790235855407
 40
0.004447790235855407
 40
0.004447790235855407
 40
0.004447790235855407
 40
0.004447790235855407
 40
0.004447790235855407
 40
0.004447790235855407
 40
0.006251006433703993
 40
0.006251006433703993
 40
0.006251006433703993
 40
0.006251006433703993
 40
0.006251006433703993
 40
0.006251006433703993
 40
0.006251006433703993
 40
0.008918307224354688
 40
0.008918307224354688
 40
0.008918307224354688
 40
0.008918307224354688
 40
0.008918307224354688
 40
0.008918307224354688
 40
0.008918307224354688
 40
0.013744470483690424
 40
0.013744470483690424
 40
0.013744470483690424
 40
0.013744470483690424
 40
0.013744470483690424
 40
0.013744470483690424
 40
0.013744470483690424
 40
0.02179418501440547
 40
0.02179418501440547
 40
0.02179418501440547
 40
0.02179418501440547
 40
0.02179418501440547
 40
0.02179418501440547
 40
0.02179418501440547
 40
0.0383309991995036
 40
0.0383309991995036
 40
0.0383309991995036
 40
0.0383309991995036
 40
0.0383309991995036
 40
0.0383309991995036
 40
0.0383309991995036
 40
0.07062561861132806
 40
0.07062561861132806
 40
0.07062561861132806
 40
0.07062561861132806
 40
0.07062561861132806
 40
0.07062561861132806
 40
0.07062561861132806
 40
0.11560758827803287
 40
0.11560758827803287
 40
0.11560758827803287
 40
0.11560758827803287
 40
0.11560758827803287
 40
0.11560758827803287
 40
0.11560758827803287
 40
0.20717525615607302
 40
0.20717525615607302
 40
0.20717525615607302
 40
0.20717525615607302
 40
0.20717525615607302
 40
0.20717525615607302
 40
0.20717525615607302
 40
0.3103944706700196
 40
0.3103944706700196
 40
0.3103944706700196
 40
0.3103944706700196
 40
0.3103944706700196
 40
0.3103944706700196
 40
0.3103944706700196
 40
0.40178463166170925
 40
0.40178463166170925
 40
0.40178463166170925
 40
0.40178463166170925
 40
0.40178463166170925
 40
0.40178463166170925
 40
0.40178463166170925
 40
0.4931832290613679
 40
0.4931832290613679
 40
0.4931832290613679
 40
0.4931832290613679
 40
0.4931832290613679
 40
0.4931832290613679
 40
0.4931832290613679
 40
0.6609488811177061
 40
0.6609488811177061
 40
0.6609488811177061
 40
0.6609488811177061
 40
0.6609488811177061
 40
0.6609488811177061
 40
0.6609488811177061
 40
0.719623491039542
 40
0.719623491039542
 40
0.719623491039542
 40
0.719623491039542
 40
0.719623491039542
 40
0.719623491039542
 40
0.719623491039542
 40
0.739325811265204
 40
0.739325811265204
 40
0.739325811265204
 40
0.739325811265204
 40
0.739325811265204
 40
0.739325811265204
 40
0.739325811265204
 40
0.7572318641039394
 40
0.7572318641039394
 40
0.7572318641039394
 40
0.7572318641039394
 40
0.7572318641039394
 40
0.7572318641039394
 40
0.7572318641039394
 40
0.7838902854361004
 40
0.7838902854361004
 40
0.7838902854361004
 40
0.7838902854361004
 40
0.7838902854361004
 40
0.7838902854361004
 40
0.7838902854361004
 40
0.7977302092782134
 40
0.7977302092782134
 40
0.7977302092782134
 40
0.7977302092782134
 40
0.7977302092782134
 40
0.7977302092782134
 40
0.7977302092782134
 40
0.8041603069690152
 40
0.8041603069690152
 40
0.8041603069690152
 40
0.8041603069690152
 40
0.8041603069690152
 40
0.8041603069690152
 40
0.8041603069690152
 40
0.8082288135480412
 40
0.8082288135480412
 40
0.8082288135480412
 40
0.8082288135480412
 40
0.8082288135480412
 40
0.8082288135480412
 40
0.8082288135480412
 40
0.8105056207883116
 40
0.8105056207883116
 40
0.8105056207883116
 40
0.8105056207883116
 40
0.8105056207883116
 40
0.8105056207883116
 40
0.8105056207883116
 40
0.8116028546726947
 40
0.8116028546726947
 40
0.8116028546726947
 40
0.8116028546726947
 40
0.8116028546726947
 40
0.8116028546726947
 40
0.8116028546726947
 40
0.8122431932475034
 40
0.8122431932475034
 40
0.8122431932475034
 40
0.8122431932475034
 40
0.8122431932475034
 40
0.8122431932475034
 40
0.8122431932475034
 40
0.812889738427453
 40
0.812889738427453
 40
0.812889738427453
 40
0.812889738427453
 40
0.812889738427453
 40
0.812889738427453
 40
0.812889738427453
 40
0.8138017649174657
 40
0.8138017649174657
 40
0.8138017649174657
 40
0.8138017649174657
 40
0.8138017649174657
 40
0.8138017649174657
 40
0.8138017649174657
 40
0.8144682594546294
 40
0.8144682594546294
 40
0.8144682594546294
 40
0.8144682594546294
 40
0.8144682594546294
 40
0.8144682594546294
 40
0.8144682594546294
 40
0.8151347539917957
 40
0.8151347539917957
 40
0.8151347539917957
 40
0.8151347539917957
 40
0.8151347539917957
 40
0.8151347539917957
 40
0.8151347539917957
 40
0.8162773160555064
 40
0.8162773160555064
 40
0.8162773160555064
 40
0.8162773160555064
 40
0.8162773160555064
 40
0.8162773160555064
 40
0.8162773160555064
 40
0.8174198781192163
 40
0.8174198781192163
 40
0.8174198781192163
 40
0.8174198781192163
 40
0.8174198781192163
 40
0.8174198781192163
 40
0.8174198781192163
 40
0.8193540866166843
 40
0.8193540866166843
 40
0.8193540866166843
 40
0.8193540866166843
 40
0.8193540866166843
 40
0.8193540866166843
 40
0.8193540866166843
 40
0.823128928411168
 40
0.823128928411168
 40
0.823128928411168
 40
0.823128928411168
 40
0.823128928411168
 40
0.823128928411168
 40
0.823128928411168
 40
0.830500785521883
 40
0.830500785521883
 40
0.830500785521883
 40
0.830500785521883
 40
0.830500785521883
 40
0.830500785521883
 40
0.830500785521883
 40
0.8407688482807791
 40
0.8407688482807791
 40
0.8407688482807791
 40
0.8407688482807791
 40
0.8407688482807791
 40
0.8407688482807791
 40
0.8407688482807791
 40
0.8616721326054525
 40
0.8616721326054525
 40
0.8616721326054525
 40
0.8616721326054525
 40
0.8616721326054525
 40
0.8616721326054525
 40
0.8616721326054525
 40
0.8852376906778352
 40
0.8852376906778352
 40
0.8852376906778352
 40
0.8852376906778352
 40
0.8852376906778352
 40
0.8852376906778352
 40
0.8852376906778352
 40
0.9061054376040811
 40
0.9061054376040811
 40
0.9061054376040811
 40
0.9061054376040811
 40
0.9061054376040811
 40
0.9061054376040811
 40
0.9061054376040811
 40
0.9269783634430425
 40
0.9269783634430425
 40
0.9269783634430425
 40
0.9269783634430425
 40
0.9269783634430425
 40
0.9269783634430425
 40
0.9269783634430425
 40
0.9652979815271231
 40
0.9652979815271231
 40
0.9652979815271231
 40
0.9652979815271231
 40
0.9652979815271231
 40
0.9652979815271231
 40
0.9652979815271231
 40
0.9787013846977133
 40
0.9787013846977133
 40
0.9787013846977133
 40
0.9787013846977133
 40
0.9787013846977133
 40
0.9787013846977133
 40
0.9787013846977133
 40
0.9832021949467825
 40
0.9832021949467825
 40
0.9832021949467825
 40
0.9832021949467825
 40
0.9832021949467825
 40
0.9832021949467825
 40
0.9832021949467825
 40
0.9872926674283145
 40
0.9872926674283145
 40
0.9872926674283145
 40
0.9872926674283145
 40
0.9872926674283145
 40
0.9872926674283145
 40
0.9872926674283145
 40
0.9933825366869277
 40
0.9933825366869277
 40
0.9933825366869277
 40
0.9933825366869277
 40
0.9933825366869277
 40
0.9933825366869277
 40
0.9933825366869277
 40
0.9965441367981612
 40
0.9965441367981612
 40
0.9965441367981612
 40
0.9965441367981612
 40
0.9965441367981612
 40
0.9965441367981612
 40
0.9965441367981612
 40
0.9980130295794
 40
0.9980130295794
 40
0.9980130295794
 40
0.9980130295794
 40
0.9980130295794
 40
0.9980130295794
 40
0.9980130295794
 40
0.998942436032786
 40
0.998942436032786
 40
0.998942436032786
 40
0.998942436032786
 40
0.998942436032786
 40
0.998942436032786
 40
0.998942436032786
 40
0.9994625396818744
 40
0.9994625396818744
 40
0.9994625396818744
 40
0.9994625396818744
 40
0.9994625396818744
 40
0.9994625396818744
 40
0.9994625396818744
 40
0.9997131684342305
 40
0.9997131684342305
 40
0.9997131684342305
 40
0.9997131684342305
 40
0.9997131684342305
 40
0.9997131684342305
 40
0.9997131684342305
 40
0.9998156666696368
 40
0.9998156666696368
 40
0.9998156666696368
 40
0.9998156666696368
 40
0.9998156666696368
 40
0.9998156666696368
 40
0.9998156666696368
 40
1.0
 40
1.0
 40
1.0
 40
1.0
 40
1.0
 40
1.0
 40
1.0
 40
1.0
 40
1.0
 10
23.276295127005113
 20
185.20049606045473
 30
353.0
 10
23.276179949267103
 20
185.20061289086914
 30
353.0
 10
23.27620294236
 20
185.2004505074795
 30
353.0
 10
23.276275635257957
 20
185.20026348504345
 30
353.0
 10
23.27633791906134
 20
185.20017777708117
 30
353.0
 10
23.276358046996794
 20
185.2001907158752
 30
353.0
 10
23.27633263441719
 20
185.20017101247038
 30
353.0
 10
23.276286658801645
 20
185.19985875667393
 30
353.0
 10
23.276259709385553
 20
185.19783058566753
 30
353.0
 10
23.276239310485078
 20
185.1962953962459
 30
353.0
 10
23.276210387827525
 20
185.1941187221656
 30
353.0
 10
23.27617106618634
 20
185.1911594368017
 30
353.0
 10
23.276119470334944
 20
185.18727641352945
 30
353.0
 10
23.27605372504679
 20
185.18232852572385
 30
353.0
 10
23.275971955095326
 20
185.17617464676002
 30
353.0
 10
23.27577261541264
 20
185.16117265326625
 30
353.0
 10
23.275655045681425
 20
185.15232453873605
 30
353.0
 10
23.275517700833777
 20
185.14198817979778
 30
353.0
 10
23.275358705643143
 20
185.13002244982673
 30
353.0
 10
23.275176184882966
 20
185.11628622219803
 30
353.0
 10
23.27496826332668
 20
185.10063837028662
 30
353.0
 10
23.274733065747732
 20
185.08293776746748
 30
353.0
 10
23.27415149832574
 20
185.03916991069354
 30
353.0
 10
23.273792301933053
 20
185.01213735062458
 30
353.0
 10
23.273387887349994
 20
184.98170174010104
 30
353.0
 10
23.272935014185062
 20
184.94761921231498
 30
353.0
 10
23.27243044204678
 20
184.90964590045874
 30
353.0
 10
23.27187093054365
 20
184.86753793772436
 30
353.0
 10
23.271253239284174
 20
184.821051457304
 30
353.0
 10
23.269569592538375
 20
184.69434283016602
 30
353.0
 10
23.268558321241915
 20
184.61823613025365
 30
353.0
 10
23.267543144958573
 20
184.5418355471246
 30
353.0
 10
23.266525278237374
 20
184.46523248583753
 30
353.0
 10
23.265505725250815
 20
184.38850251885083
 30
353.0
 10
23.264484854225234
 20
184.31167335830622
 30
353.0
 10
23.26346283015304
 20
184.23475742126942
 30
353.0
 10
23.2605877612351
 20
184.01838422040132
 30
353.0
 10
23.258733025921245
 20
183.8787997345857
 30
353.0
 10
23.2568762908776
 20
183.73906475219263
 30
353.0
 10
23.255018130109704
 20
183.5992224720555
 30
353.0
 10
23.253158930295513
 20
183.45930199491715
 30
353.0
 10
23.25129894060116
 20
183.31932207259038
 30
353.0
 10
23.24943824938764
 20
183.17928935505748
 30
353.0
 10
23.244472166452937
 20
182.80554970184295
 30
353.0
 10
23.241365887638427
 20
182.57177600491204
 30
353.0
 10
23.23825847763902
 20
182.33791717676394
 30
353.0
 10
23.23515022051548
 20
182.10399459538297
 30
353.0
 10
23.232041313680618
 20
181.87002311774188
 30
353.0
 10
23.2289318903263
 20
181.63601276764282
 30
353.0
 10
23.225822017903724
 20
181.4019686213765
 30
353.0
 10
23.216322117908867
 20
180.68702097021267
 30
353.0
 10
23.209930943741128
 20
180.20603117433612
 30
353.0
 10
23.2035386932278
 20
179.72496037435852
 30
353.0
 10
23.197145656031545
 20
179.24383036986427
 30
353.0
 10
23.190752029711813
 20
178.76265602885715
 30
353.0
 10
23.184357944378437
 20
178.28144714318685
 30
353.0
 10
23.177963457145168
 20
177.80020801116768
 30
353.0
 10
23.15908006598353
 20
176.37907345561186
 30
353.0
 10
23.146590293075462
 20
175.43911263401282
 30
353.0
 10
23.13409965845682
 20
174.49908696145422
 30
353.0
 10
23.121608394287133
 20
173.55901390982478
 30
353.0
 10
23.109116658811054
 20
172.61890538841226
 30
353.0
 10
23.096624556199
 20
171.67876923696267
 30
353.0
 10
23.084132132087404
 20
170.73860888992107
 30
353.0
 10
23.054238725723426
 20
168.48887776888012
 30
353.0
 10
23.03683712869526
 20
167.17929165944264
 30
353.0
 10
23.019458880443228
 20
165.8696779844242
 30
353.0
 10
23.002116063698463
 20
164.56004316955932
 30
353.0
 10
22.98481722998635
 20
163.25039165214105
 30
353.0
 10
22.967569266406056
 20
161.94072650490105
 30
353.0
 10
22.950376927515542
 20
160.63104927799782
 30
353.0
 10
22.89836880998721
 20
156.6552894081849
 30
353.0
 10
22.86374138468689
 20
153.98917535442308
 30
353.0
 10
22.829396996534825
 20
151.32303019601596
 30
353.0
 10
22.795356092123868
 20
148.65686045519143
 30
353.0
 10
22.761636025657108
 20
145.9906706359449
 30
353.0
 10
22.72825329579744
 20
143.3244638837463
 30
353.0
 10
22.695222828074314
 20
140.65824181043206
 30
353.0
 10
22.625741730026363
 20
134.98650271182225
 30
353.0
 10
22.589390692352346
 20
131.9809828981721
 30
353.0
 10
22.553529453088924
 20
128.97544790478796
 30
353.0
 10
22.518180637451646
 20
125.96989931937632
 30
353.0
 10
22.48336813529643
 20
122.96433833322675
 30
353.0
 10
22.449117863824778
 20
119.95876586400762
 30
353.0
 10
22.415458438308075
 20
116.95318261403706
 30
353.0
 10
22.353171109839238
 20
111.28644036507652
 30
353.0
 10
22.32440862188154
 20
108.62528367439202
 30
353.0
 10
22.296156571928044
 20
105.96411937268292
 30
353.0
 10
22.26843912528076
 20
103.30294779173936
 30
353.0
 10
22.24128295227885
 20
100.641769220879
 30
353.0
 10
22.21471785300419
 20
97.98058391339063
 30
353.0
 10
22.188777381986874
 20
95.3193920929778
 30
353.0
 10
22.138219230380454
 20
89.99675016692224
 30
353.0
 10
22.11360308792221
 20
87.33530007739226
 30
353.0
 10
22.089613059548274
 20
84.67384461372234
 30
353.0
 10
22.066215521958693
 20
82.01238463793446
 30
353.0
 10
22.04338060083861
 20
79.35092097008086
 30
353.0
 10
22.02108155715551
 20
76.68945440636148
 30
353.0
 10
21.999294173456555
 20
74.02798573724152
 30
353.0
 10
21.93890277829607
 20
66.48128494223866
 30
353.0
 10
21.90145820456606
 20
61.596052412770035
 30
353.0
 10
21.865525530237456
 20
56.71082041229238
 30
353.0
 10
21.830989453115308
 20
51.82559383523562
 30
353.0
 10
21.797755110329195
 20
46.94037855955389
 30
353.0
 10
21.765726378804946
 20
42.05518685174789
 30
353.0
 10
21.734825025775113
 20
37.17003179717082
 30
353.0
 10
21.69446389402954
 20
30.576429907886016
 30
353.0
 10
21.68412777820836
 20
28.8679226964758
 30
353.0
 10
21.673908108083467
 20
27.159426005704297
 30
353.0
 10
21.66379887182744
 20
25.45094151069074
 30
353.0
 10
21.653791894514736
 20
23.742472410527995
 30
353.0
 10
21.643877411161675
 20
22.034023264729036
 30
353.0
 10
21.63404216037557
 20
20.3256006417424
 30
353.0
 10
21.620975366777895
 20
18.043558597805486
 30
353.0
 10
21.61769650344697
 20
17.46990540268075
 30
353.0
 10
21.614423581953027
 20
16.896256962986513
 30
353.0
 10
21.61115143076248
 20
16.322614394214668
 30
353.0
 10
21.607887590062198
 20
15.748977321161192
 30
353.0
 10
21.60461745119086
 20
15.175348395757396
 30
353.0
 10
21.60134944908341
 20
14.601727454348861
 30
353.0
 10
21.595110936153315
 20
13.506800854914987
 30
353.0
 10
21.59222476336435
 20
13.000246265287473
 30
353.0
 10
21.589421301928915
 20
12.508208414192929
 30
353.0
 10
21.586699162801356
 20
12.030443509075816
 30
353.0
 10
21.58405695693606
 20
11.566707757380625
 30
353.0
 10
21.58149329528738
 20
11.116757366551843
 30
353.0
 10
21.57900678880969
 20
10.680348544033977
 30
353.0
 10
21.573006953048466
 20
9.627312373266307
 30
353.0
 10
21.56941801428514
 20
8.997414742264866
 30
353.0
 10
21.56582923548705
 20
8.36754518686324
 30
353.0
 10
21.562240639152094
 20
7.737707655752274
 30
353.0
 10
21.558652277611767
 20
7.107911333643759
 30
353.0
 10
21.55506423055347
 20
6.478170206502689
 30
353.0
 10
21.551476615070005
 20
5.84850482545097
 30
353.0
 10
21.54602742511698
 20
4.8921129590243275
 30
353.0
 10
21.54416542301064
 20
4.565311418769056
 30
353.0
 10
21.542303629818136
 20
4.238546545169108
 30
353.0
 10
21.54044207390353
 20
3.911823316397289
 30
353.0
 10
21.538580825780016
 20
3.5851541082943896
 30
353.0
 10
21.53671999364627
 20
3.2585579109125646
 30
353.0
 10
21.53485973725993
 20
2.9320627634306327
 30
353.0
 10
21.53213645325131
 20
2.4540969192848365
 30
353.0
 10
21.531272780184107
 20
2.3025129400555002
 30
353.0
 10
21.53040933052601
 20
2.15096817149686
 30
353.0
 10
21.52954613785772
 20
1.999468507492196
 30
353.0
 10
21.52868326840868
 20
1.8480255719647651
 30
353.0
 10
21.52782082026921
 20
1.6966565807739116
 30
353.0
 10
21.52695893440202
 20
1.545386274507731
 30
353.0
 10
21.525553000734895
 20
1.2986296858116582
 30
353.0
 10
21.525008573400804
 20
1.2030767910463425
 30
353.0
 10
21.5244645395017
 20
1.107592948354693
 30
353.0
 10
21.523920938169496
 20
1.0121850258682628
 30
353.0
 10
21.523377922676644
 20
0.9168799245393515
 30
353.0
 10
21.522835735538067
 20
0.8217202083323016
 30
353.0
 10
21.5222947396415
 20
0.7267695680181347
 30
353.0
 10
21.521453955092728
 20
0.5792027717062069
 30
353.0
 10
21.521153365851475
 20
0.5264461036834405
 30
353.0
 10
21.520853519734047
 20
0.47381986183989966
 30
353.0
 10
21.520554504546784
 20
0.4213394574472318
 30
353.0
 10
21.52025649379178
 20
0.36903534155760553
 30
353.0
 10
21.51996048991631
 20
0.31708345493504453
 30
353.0
 10
21.519667462315393
 20
0.2656539366696222
 30
353.0
 10
21.51924199401943
 20
0.19097964173929327
 30
353.0
 10
21.51910656043799
 20
0.1672095810799803
 30
353.0
 10
21.518972799548276
 20
0.14373309593545613
 30
353.0
 10
21.518840775159923
 20
0.12056138559586316
 30
353.0
 10
21.518711736961578
 20
0.09791378395127381
 30
353.0
 10
21.518588333704226
 20
0.07625517548527938
 30
353.0
 10
21.518475030234168
 20
0.056369189105449635
 30
353.0
 10
21.518322301194274
 20
0.029563588129331464
 30
353.0
 10
21.518271343762002
 20
0.020620006752352538
 30
353.0
 10
21.5182288664405
 20
0.013164776694530644
 30
353.0
 10
21.518196842474396
 20
0.007544223728473298
 30
353.0
 10
21.518175563866855
 20
0.003809597592148606
 30
353.0
 10
21.518163466848996
 20
0.0016864399274396646
 30
353.0
 10
21.51815761707161
 20
0.0006597406203745493
 30
353.0
 10
21.51815273415237
 20
-0.00019726460137903246
 30
353.0
 10
21.51815479954472
 20
-2.0647956731068007e-05
 30
353.0
 10
21.51815273030239
 20
0.00025469999410532296
 30
353.0
 10
21.51815253042913
 20
0.0001664754861963047
 30
353.0
 10
21.518158563129983
 20
-0.0008230492988658966
 30
353.0
 10
21.518172403922737
 20
-0.0032436157335808957
 30
353.0
 10
21.51819619990243
 20
-0.007431445388387914
 30
353.0
 10
21.51827741409347
 20
-0.021685415687386467
 30
353.0
 10
21.51834340901698
 20
-0.03326823968939152
 30
353.0
 10
21.5184261658423
 20
-0.04779295894303459
 30
353.0
 10
21.518519257091054
 20
-0.06413148165825078
 30
353.0
 10
21.518618984909594
 20
-0.0816347940203741
 30
353.0
 10
21.518722369053215
 20
-0.09977983121839884
 30
353.0
 10
21.51882823411378
 20
-0.11836029614369181
 30
353.0
 10
21.519016100134554
 20
-0.15133281789378827
 30
353.0
 10
21.51910154539438
 20
-0.16632938660064106
 30
353.0
 10
21.51919338948642
 20
-0.18244901967714255
 30
353.0
 10
21.5192919081298
 20
-0.19974010881695434
 30
353.0
 10
21.519397377043642
 20
-0.21825104571369586
 30
353.0
 10
21.519510071947078
 20
-0.2380302220609443
 30
353.0
 10
21.51963026855923
 20
-0.2591260295522346
 30
353.0
 10
21.51988621663922
 20
-0.3040476902099698
 30
353.0
 10
21.52002196810706
 20
-0.327873543376573
 30
353.0
 10
21.52016577272187
 20
-0.353112811074441
 30
353.0
 10
21.520317906202784
 20
-0.37981388499715935
 30
353.0
 10
21.520478644268916
 20
-0.4080251568383265
 30
353.0
 10
21.52064826263941
 20
-0.4377950182915547
 30
353.0
 10
21.520827037033385
 20
-0.4691718610504694
 30
353.0
 10
21.521337882261243
 20
-0.5588307323940995
 30
353.0
 10
21.521688239126714
 20
-0.6203221576101368
 30
353.0
 10
21.522067702812016
 20
-0.6869221450122406
 30
353.0
 10
21.522477662362768
 20
-0.7588744871558655
 30
353.0
 10
21.522919506824614
 20
-0.8364229765965011
 30
353.0
 10
21.523394625243178
 20
-0.9198114058896728
 30
353.0
 10
21.523904406664087
 20
-1.0092835675909413
 30
353.0
 10
21.52499607360189
 20
-1.2008829409208204
 30
353.0
 10
21.525577959118763
 20
-1.3030101525493827
 30
353.0
 10
21.52619728572926
 20
-1.4117086816970539
 30
353.0
 10
21.526855442479008
 20
-1.527222320919326
 30
353.0
 10
21.52755381841363
 20
-1.6497948627717136
 30
353.0
 10
21.528293802578766
 20
-1.779670099809757
 30
353.0
 10
21.52907678402004
 20
-1.9170918245890218
 30
353.0
 10
21.531304777454668
 20
-2.3081288076452466
 30
353.0
 10
21.532706243683304
 20
-2.55410131248599
 30
353.0
 10
21.534108285607317
 20
-2.8001748581294272
 30
353.0
 10
21.53551074875265
 20
-3.0463223326415516
 30
353.0
 10
21.536913527598735
 20
-3.292525216057829
 30
353.0
 10
21.538316552570887
 20
-3.5387712973021195
 30
353.0
 10
21.539719792967453
 20
-3.78505518783043
 30
353.0
 10
21.543862246437072
 20
-4.512100645879688
 30
353.0
 10
21.546601924894137
 20
-4.992943893326029
 30
353.0
 10
21.54934206508918
 20
-5.473868180785814
 30
353.0
 10
21.5520825427638
 20
-5.954851699568621
 30
353.0
 10
21.55482327316554
 20
-6.435879574701158
 30
353.0
 10
21.55756420047732
 20
-6.9169420096763545
 30
353.0
 10
21.560305300201676
 20
-7.3980347049262605
 30
353.0
 10
21.56839996758449
 20
-8.818736518053129
 30
353.0
 10
21.57375390802653
 20
-9.758411063489142
 30
353.0
 10
21.579108218132223
 20
-10.69815048889851
 30
353.0
 10
21.584462798308582
 20
-11.637937314634172
 30
353.0
 10
21.589817580670182
 20
-12.577759626070666
 30
353.0
 10
21.595172520528685
 20
-13.517609579920602
 30
353.0
 10
21.60052759830716
 20
-14.45748374021916
 30
353.0
 10
21.613341943029113
 20
-16.706540053411594
 30
353.0
 10
21.62080088629392
 20
-18.015737557039103
 30
353.0
 10
21.62828370698978
 20
-19.324962189579928
 30
353.0
 10
21.635802368266656
 20
-20.63420729455251
 30
353.0
 10
21.64336533862243
 20
-21.9434682713592
 30
353.0
 10
21.650979447372062
 20
-23.252741915875212
 30
353.0
 10
21.65864941959462
 20
-24.562026587226683
 30
353.0
 10
21.682116138551645
 20
-28.536728384483332
 30
353.0
 10
21.698101889120018
 20
-31.202173357671434
 30
353.0
 10
21.714371332516897
 20
-33.86764407314379
 30
353.0
 10
21.730944784558908
 20
-36.533133617416766
 30
353.0
 10
21.747839503968702
 20
-39.19863715561648
 30
353.0
 10
21.765071917433662
 20
-41.864151228250165
 30
353.0
 10
21.78265690434945
 20
-44.52967393921598
 30
353.0
 10
21.82084997049668
 20
-50.200220474414756
 30
353.0
 10
21.841557792465142
 20
-53.205245198670625
 30
353.0
 10
21.862755781239432
 20
-56.210275810390826
 30
353.0
 10
21.884466507940196
 20
-59.21531029162131
 30
353.0
 10
21.90671381105639
 20
-62.220346997176385
 30
353.0
 10
21.92952355588428
 20
-65.22538451724645
 30
353.0
 10
21.952924302382776
 20
-68.2304216064287
 30
353.0
 10
21.99822121461214
 20
-73.89647295669634
 30
353.0
 10
22.019982906107966
 20
-76.55748746282049
 30
353.0
 10
22.04225520583146
 20
-79.2184998937532
 30
353.0
 10
22.06506224097937
 20
-81.87950945909357
 30
353.0
 10
22.088430638183013
 20
-84.54051536356715
 30
353.0
 10
22.11239014564483
 20
-87.20151678875338
 30
353.0
 10
22.136974255274986
 20
-89.86251287481285
 30
353.0
 10
22.187473660020398
 20
-95.18515292836952
 30
353.0
 10
22.21339069892829
 20
-97.84679684861325
 30
353.0
 10
22.23993387923987
 20
-100.5084342622468
 30
353.0
 10
22.267069514736587
 20
-103.1700649458784
 30
353.0
 10
22.294767679005247
 20
-105.83168864697778
 30
353.0
 10
22.32300158915015
 20
-108.49330507743096
 30
353.0
 10
22.35174698950524
 20
-111.15491390709462
 30
353.0
 10
22.434651856418228
 20
-118.7028219699075
 30
353.0
 10
22.489970789323593
 20
-123.58909960898217
 30
353.0
 10
22.546801212573808
 20
-128.47534803605888
 30
353.0
 10
22.605027609778162
 20
-133.361564551606
 30
353.0
 10
22.66455491397716
 20
-138.24774507798463
 30
353.0
 10
22.72528671814092
 20
-143.13387918817378
 30
353.0
 10
22.787144491851897
 20
-148.01995529049128
 30
353.0
 10
22.871983849314514
 20
-154.61495882560644
 30
353.0
 10
22.89409086904467
 20
-156.32396320102623
 30
353.0
 10
22.916314076859823
 20
-158.03295485355557
 30
353.0
 10
22.938647429283222
 20
-159.7419322234779
 30
353.0
 10
22.96108269258892
 20
-161.45089226871244
 30
353.0
 10
22.98361001860287
 20
-163.15983061782478
 30
353.0
 10
23.006216027408612
 20
-164.86874095836663
 30
353.0
 10
23.03648306723721
 20
-167.15144435311146
 30
353.0
 10
23.04409744667977
 20
-167.72527205768023
 30
353.0
 10
23.051717674424957
 20
-168.29909489721604
 30
353.0
 10
23.059338560637336
 20
-168.87291185387977
 30
353.0
 10
23.066967648408106
 20
-169.4467231613993
 30
353.0
 10
23.074590286904915
 20
-170.02052644427536
 30
353.0
 10
23.082214909476455
 20
-170.59432170761343
 30
353.0
 10
23.096768223533946
 20
-171.68958141641917
 30
353.0
 10
23.10350114111316
 20
-172.1962902882326
 30
353.0
 10
23.11004110810804
 20
-172.68847800012546
 30
353.0
 10
23.11639136491009
 20
-173.16638841890563
 30
353.0
 10
23.122555151910802
 20
-173.63026541138098
 30
353.0
 10
23.128535709501666
 20
-174.08035284435928
 30
353.0
 10
23.13433627807418
 20
-174.51689458464836
 30
353.0
 10
23.148332805172256
 20
-175.57025137562871
 30
353.0
 10
23.156705147174264
 20
-176.20034077155015
 30
353.0
 10
23.165077116286383
 20
-176.83040210436147
 30
353.0
 10
23.17344866006608
 20
-177.46043142731625
 30
353.0
 10
23.18181965652466
 20
-178.09041955973788
 30
353.0
 10
23.190189919904853
 20
-178.72035252182673
 30
353.0
 10
23.19855917725661
 20
-179.35020977178212
 30
353.0
 10
23.211271149442428
 20
-180.30689296432365
 30
353.0
 10
23.21561486112671
 20
-180.63379392830387
 30
353.0
 10
23.219958085818888
 20
-180.9606582420101
 30
353.0
 10
23.22430075740179
 20
-181.28748092958318
 30
353.0
 10
23.228642711503667
 20
-181.61424962065487
 30
353.0
 10
23.23298369590511
 20
-181.94094533357722
 30
353.0
 10
23.237323338199932
 20
-182.2675400416546
 30
353.0
 10
23.243676267012056
 20
-182.74565155174406
 30
353.0
 10
23.245691058110157
 20
-182.89728158615887
 30
353.0
 10
23.24770532842559
 20
-183.04887242728682
 30
353.0
 10
23.249718999681065
 20
-183.2004181840932
 30
353.0
 10
23.251731917489984
 20
-183.35190723768702
 30
353.0
 10
23.253743853194585
 20
-183.50332237964642
 30
353.0
 10
23.25575447819838
 20
-183.65463888030428
 30
353.0
 10
23.259034265833854
 20
-183.90147058038212
 30
353.0
 10
23.26030431318783
 20
-183.9970523626198
 30
353.0
 10
23.261573443412054
 20
-184.0925651231044
 30
353.0
 10
23.262841565300153
 20
-184.1880019977844
 30
353.0
 10
23.264108321554346
 20
-184.28333609698734
 30
353.0
 10
23.265373146840417
 20
-184.37852487454322
 30
353.0
 10
23.266635195221724
 20
-184.4735046665789
 30
353.0
 10
23.26859659146755
 20
-184.62111628772348
 30
353.0
 10
23.269297805402214
 20
-184.67388855435885
 30
353.0
 10
23.26999728705602
 20
-184.7265304522487
 30
353.0
 10
23.270694831769433
 20
-184.7790265790005
 30
353.0
 10
23.271390035326096
 20
-184.83134651399155
 30
353.0
 10
23.272080560474876
 20
-184.8833143592619
 30
353.0
 10
23.27276414754465
 20
-184.93476005555576
 30
353.0
 10
23.273756686945358
 20
-185.00945702221946
 30
353.0
 10
23.274072613323824
 20
-185.03323314853003
 30
353.0
 10
23.274384639894244
 20
-185.0567157813746
 30
353.0
 10
23.274692621107555
 20
-185.0798939669529
 30
353.0
 10
23.27499364294834
 20
-185.10254840101206
 30
353.0
 10
23.27528152848794
 20
-185.12421421754348
 30
353.0
 10
23.275545865294323
 20
-185.14410779315335
 30
353.0
 10
23.27586290078059
 20
-185.16796738918788
 30
353.0
 10
23.275942616196655
 20
-185.17396664702227
 30
353.0
 10
23.27601098478728
 20
-185.17911196047913
 30
353.0
 10
23.27606896666848
 20
-185.18347558639033
 30
353.0
 10
23.276117521956238
 20
-185.18712978158783
 30
353.0
 10
23.276157610766568
 20
-185.1901468029036
 30
353.0
 10
23.27619019321546
 20
-185.19259890716958
 30
353.0
 10
23.276263053055175
 20
-185.19808222502522
 30
353.0
 10
23.276365251795713
 20
-185.1982674182639
 30
353.0
 10
23.27632290910709
 20
-185.19850226409446
 30
353.0
 10
23.27619914327897
 20
-185.19954763531584
 30
353.0
 10
23.276158262671157
 20
-185.20070489691977
 30
353.0
 10
23.276303920960505
 20
-185.20098385864372
 30
353.0
 10
23.276517272387878
 20
-185.2002707275251
 30
353.0
 10
23.276295127005117
 20
-185.20049606045473
 30
353.0
  0
ENDSEC
  0
SECTION
  2
OBJECTS
  0
DICTIONARY
  5
A
330
0
100
AcDbDictionary
281
1
  3
ACAD_COLOR
350
B
  3
ACAD_GROUP
350
C
  3
ACAD_LAYOUT
350
D
  3
ACAD_MATERIAL
350
E
  3
ACAD_MLEADERSTYLE
350
F
  3
ACAD_MLINESTYLE
350
10
  3
ACAD_PLOTSETTINGS
350
11
  3
ACAD_PLOTSTYLENAME
350
12
  3
ACAD_SCALELIST
350
14
  3
ACAD_TABLESTYLE
350
15
  3
ACAD_VISUALSTYLE
350
16
  3
EZDXF_META
350
2D
  0
DICTIONARY
  5
B
330
A
100
AcDbDictionary
281
1
  0
DICTIONARY
  5
C
330
A
100
AcDbDictionary
281
1
  0
DICTIONARY
  5
D
330
A
100
AcDbDictionary
281
1
  3
Model
350
1A
  3
Layout1
350
1E
  0
DICTIONARY
  5
E
330
A
100
AcDbDictionary
281
1
  3
ByBlock
350
1F
  3
ByLayer
350
20
  3
Global
350
21
  0
DICTIONARY
  5
F
330
A
100
AcDbDictionary
281
1
  3
Standard
350
2C
  0
DICTIONARY
  5
10
330
A
100
AcDbDictionary
281
1
  3
Standard
350
22
  0
DICTIONARY
  5
11
330
A
100
AcDbDictionary
281
1
  0
ACDBDICTIONARYWDFLT
  5
12
330
A
100
AcDbDictionary
281
1
  3
Normal
350
13
100
AcDbDictionaryWithDefault
340
13
  0
ACDBPLACEHOLDER
  5
13
330
12
  0
DICTIONARY
  5
14
330
A
100
AcDbDictionary
281
1
  0
DICTIONARY
  5
15
330
A
100
AcDbDictionary
281
1
  0
DICTIONARY
  5
16
330
A
100
AcDbDictionary
281
1
  0
LAYOUT
  5
1A
330
D
100
AcDbPlotSettings
  1

  2
Adobe PDF
  4
A3
  6

 40
7.5
 41
20.0
 42
7.5
 43
20.0
 44
420.0
 45
297.0
 46
0.0
 47
0.0
 48
0.0
 49
0.0
140
0.0
141
0.0
142
1.0
143
1.0
 70
1024
 72
1
 73
1
 74
5
  7

 75
16
 76
0
 77
2
 78
300
147
1.0
148
0.0
149
0.0
100
AcDbLayout
  1
Model
 70
1
 71
0
 10
0.0
 20
0.0
 11
420.0
 21
297.0
 12
0.0
 22
0.0
 32
0.0
 14
1e+20
 24
1e+20
 34
1e+20
 15
-1e+20
 25
-1e+20
 35
-1e+20
146
0.0
 13
0.0
 23
0.0
 33
0.0
 16
1.0
 26
0.0
 36
0.0
 17
0.0
 27
1.0
 37
0.0
 76
1
330
17
  0
LAYOUT
  5
1E
330
D
100
AcDbPlotSettings
  1

  2
Adobe PDF
  4
A3
  6

 40
7.5
 41
20.0
 42
7.5
 43
20.0
 44
420.0
 45
297.0
 46
0.0
 47
0.0
 48
0.0
 49
0.0
140
0.0
141
0.0
142
1.0
143
1.0
 70
0
 72
1
 73
1
 74
5
  7

 75
16
 76
0
 77
2
 78
300
147
1.0
148
0.0
149
0.0
100
AcDbLayout
  1
Layout1
 70
1
 71
1
 10
0.0
 20
0.0
 11
420.0
 21
297.0
 12
0.0
 22
0.0
 32
0.0
 14
1e+20
 24
1e+20
 34
1e+20
 15
-1e+20
 25
-1e+20
 35
-1e+20
146
0.0
 13
0.0
 23
0.0
 33
0.0
 16
1.0
 26
0.0
 36
0.0
 17
0.0
 27
1.0
 37
0.0
 76
1
330
1B
  0
MATERIAL
  5
1F
102
{ACAD_REACTORS
330
E
102
}
330
E
100
AcDbMaterial
  1
ByBlock
  2

 70
0
 40
1.0
 71
1
 41
1.0
 91
-1023410177
 42
1.0
 72
1
  3

 73
1
 74
1
 75
1
 44
0.5
 73
0
 45
1.0
 46
1.0
 77
1
  4

 78
1
 79
1
170
1
 48
1.0
171
1
  6

172
1
173
1
174
1
140
1.0
141
1.0
175
1
  7

176
1
177
1
178
1
143
1.0
179
1
  8

270
1
271
1
272
1
145
1.0
146
1.0
273
1
  9

274
1
275
1
276
1
 42
1.0
 72
1
  3

 73
1
 74
1
 75
1
 94
63
  0
MATERIAL
  5
20
102
{ACAD_REACTORS
330
E
102
}
330
E
100
AcDbMaterial
  1
ByLayer
  2

 70
0
 40
1.0
 71
1
 41
1.0
 91
-1023410177
 42
1.0
 72
1
  3

 73
1
 74
1
 75
1
 44
0.5
 73
0
 45
1.0
 46
1.0
 77
1
  4

 78
1
 79
1
170
1
 48
1.0
171
1
  6

172
1
173
1
174
1
140
1.0
141
1.0
175
1
  7

176
1
177
1
178
1
143
1.0
179
1
  8

270
1
271
1
272
1
145
1.0
146
1.0
273
1
  9

274
1
275
1
276
1
 42
1.0
 72
1
  3

 73
1
 74
1
 75
1
 94
63
  0
MATERIAL
  5
21
102
{ACAD_REACTORS
330
E
102
}
330
E
100
AcDbMaterial
  1
Global
  2

 70
0
 40
1.0
 71
1
 41
1.0
 91
-1023410177
 42
1.0
 72
1
  3

 73
1
 74
1
 75
1
 44
0.5
 73
0
 45
1.0
 46
1.0
 77
1
  4

 78
1
 79
1
170
1
 48
1.0
171
1
  6

172
1
173
1
174
1
140
1.0
141
1.0
175
1
  7

176
1
177
1
178
1
143
1.0
179
1
  8

270
1
271
1
272
1
145
1.0
146
1.0
273
1
  9

274
1
275
1
276
1
 42
1.0
 72
1
  3

 73
1
 74
1
 75
1
 94
63
  0
MLINESTYLE
  5
22
102
{ACAD_REACTORS
330
10
102
}
330
10
100
AcDbMlineStyle
  2
Standard
 70
0
  3

 62
256
 51
90.0
 52
90.0
 71
2
 49
0.5
 62
256
  6
BYLAYER
 49
-0.5
 62
256
  6
BYLAYER
  0
MLEADERSTYLE
  5
2C
102
{ACAD_REACTORS
330
F
102
}
330
F
100
AcDbMLeaderStyle
179
2
170
2
171
1
172
0
 90
2
 40
0.0
 41
0.0
173
1
 91
-1056964608
 92
-2
290
1
 42
2.0
291
1
 43
8.0
  3
Standard
 44
4.0
300

342
29
174
1
175
1
176
0
178
1
 93
-1056964608
 45
4.0
292
0
297
0
 46
4.0
 94
-1056964608
 47
1.0
 49
1.0
140
1.0
294
1
141
0.0
177
0
142
1.0
295
0
296
0
143
3.75
271
0
272
9
273
9
  0
DICTIONARY
  5
2D
330
A
100
AcDbDictionary
280
1
281
1
  3
CREATED_BY_EZDXF
350
2E
  3
WRITTEN_BY_EZDXF
350
70
  0
DICTIONARYVAR
  5
2E
330
2D
100
DictionaryVariables
280
0
  1
0.17 @ 2022-02-15T16:29:05.206491+00:00
  0
DICTIONARYVAR
  5
70
330
2D
100
DictionaryVariables
280
0
  1
0.17 @ 2022-02-15T16:29:05.285582+00:00
  0
ENDSEC
  0
EOF
