  0
SECTION
  2
HEADER
  9
$ACADVER
  1
AC1027
  9
$ACADMAINTVER
 70
105
  9
$DWGCODEPAGE
  3
ANSI_1252
  9
$LASTSAVEDBY
  1
ezdxf
  9
$REQUIREDVERSIONS
160
0
  9
$INSBASE
 10
0.0
 20
0.0
 30
0.0
  9
$EXTMIN
 10
1e+20
 20
1e+20
 30
1e+20
  9
$EXTMAX
 10
-1e+20
 20
-1e+20
 30
-1e+20
  9
$LIMMIN
 10
0.0
 20
0.0
  9
$LIMMAX
 10
420.0
 20
297.0
  9
$ORTHOMODE
 70
0
  9
$REGENMODE
 70
1
  9
$FILLMODE
 70
1
  9
$QTEXTMODE
 70
0
  9
$MIRRTEXT
 70
1
  9
$LTSCALE
 40
1.0
  9
$ATTMODE
 70
1
  9
$TEXTSIZE
 40
2.5
  9
$TRACEWID
 40
1.0
  9
$TEXTSTYLE
  7
Standard
  9
$CLAYER
  8
0
  9
$CELTYPE
  6
ByLayer
  9
$CECOLOR
 62
256
  9
$CELTSCALE
 40
1.0
  9
$DISPSILH
 70
0
  9
$DIMSCALE
 40
1.0
  9
$DIMASZ
 40
2.5
  9
$DIMEXO
 40
0.625
  9
$DIMDLI
 40
3.75
  9
$DIMRND
 40
0.0
  9
$DIMDLE
 40
0.0
  9
$DIMEXE
 40
1.25
  9
$DIMTP
 40
0.0
  9
$DIMTM
 40
0.0
  9
$DIMTXT
 40
2.5
  9
$DIMCEN
 40
2.5
  9
$DIMTSZ
 40
0.0
  9
$DIMTOL
 70
0
  9
$DIMLIM
 70
0
  9
$DIMTIH
 70
0
  9
$DIMTOH
 70
0
  9
$DIMSE1
 70
0
  9
$DIMSE2
 70
0
  9
$DIMTAD
 70
1
  9
$DIMZIN
 70
8
  9
$DIMBLK
  1

  9
$DIMASO
 70
1
  9
$DIMSHO
 70
1
  9
$DIMPOST
  1

  9
$DIMAPOST
  1

  9
$DIMALT
 70
0
  9
$DIMALTD
 70
3
  9
$DIMALTF
 40
0.03937007874
  9
$DIMLFAC
 40
1.0
  9
$DIMTOFL
 70
1
  9
$DIMTVP
 40
0.0
  9
$DIMTIX
 70
0
  9
$DIMSOXD
 70
0
  9
$DIMSAH
 70
0
  9
$DIMBLK1
  1

  9
$DIMBLK2
  1

  9
$DIMSTYLE
  2
ISO-25
  9
$DIMCLRD
 70
0
  9
$DIMCLRE
 70
0
  9
$DIMCLRT
 70
0
  9
$DIMTFAC
 40
1.0
  9
$DIMGAP
 40
0.625
  9
$DIMJUST
 70
0
  9
$DIMSD1
 70
0
  9
$DIMSD2
 70
0
  9
$DIMTOLJ
 70
0
  9
$DIMTZIN
 70
8
  9
$DIMALTZ
 70
0
  9
$DIMALTTZ
 70
0
  9
$DIMUPT
 70
0
  9
$DIMDEC
 70
2
  9
$DIMTDEC
 70
2
  9
$DIMALTU
 70
2
  9
$DIMALTTD
 70
3
  9
$DIMTXSTY
  7
Standard
  9
$DIMAUNIT
 70
0
  9
$DIMADEC
 70
0
  9
$DIMALTRND
 40
0.0
  9
$DIMAZIN
 70
0
  9
$DIMDSEP
 70
44
  9
$DIMATFIT
 70
3
  9
$DIMFRAC
 70
0
  9
$DIMLDRBLK
  1

  9
$DIMLUNIT
 70
2
  9
$DIMLWD
 70
-2
  9
$DIMLWE
 70
-2
  9
$DIMTMOVE
 70
0
  9
$DIMFXL
 40
1.0
  9
$DIMFXLON
 70
0
  9
$DIMJOGANG
 40
0.785398163397
  9
$DIMTFILL
 70
0
  9
$DIMTFILLCLR
 70
0
  9
$DIMARCSYM
 70
0
  9
$DIMLTYPE
  6

  9
$DIMLTEX1
  6

  9
$DIMLTEX2
  6

  9
$DIMTXTDIRECTION
 70
0
  9
$LUNITS
 70
2
  9
$LUPREC
 70
4
  9
$SKETCHINC
 40
1.0
  9
$FILLETRAD
 40
10.0
  9
$AUNITS
 70
0
  9
$AUPREC
 70
2
  9
$MENU
  1
.
  9
$ELEVATION
 40
0.0
  9
$PELEVATION
 40
0.0
  9
$THICKNESS
 40
0.0
  9
$LIMCHECK
 70
0
  9
$CHAMFERA
 40
0.0
  9
$CHAMFERB
 40
0.0
  9
$CHAMFERC
 40
0.0
  9
$CHAMFERD
 40
0.0
  9
$SKPOLY
 70
0
  9
$TDCREATE
 40
2459626.7285648147
  9
$TDUCREATE
 40
2458532.153996898
  9
$TDUPDATE
 40
2459626.7285648147
  9
$TDUUPDATE
 40
2458532.1544311
  9
$TDINDWG
 40
0.0
  9
$TDUSRTIMER
 40
0.0
  9
$USRTIMER
 70
1
  9
$ANGBASE
 50
0.0
  9
$ANGDIR
 70
0
  9
$PDMODE
 70
0
  9
$PDSIZE
 40
0.0
  9
$PLINEWID
 40
0.0
  9
$SPLFRAME
 70
0
  9
$SPLINETYPE
 70
6
  9
$SPLINESEGS
 70
8
  9
$HANDSEED
  5
79
  9
$SURFTAB1
 70
6
  9
$SURFTAB2
 70
6
  9
$SURFTYPE
 70
6
  9
$SURFU
 70
6
  9
$SURFV
 70
6
  9
$UCSBASE
  2

  9
$UCSNAME
  2

  9
$UCSORG
 10
0.0
 20
0.0
 30
0.0
  9
$UCSXDIR
 10
1.0
 20
0.0
 30
0.0
  9
$UCSYDIR
 10
0.0
 20
1.0
 30
0.0
  9
$UCSORTHOREF
  2

  9
$UCSORTHOVIEW
 70
0
  9
$UCSORGTOP
 10
0.0
 20
0.0
 30
0.0
  9
$UCSORGBOTTOM
 10
0.0
 20
0.0
 30
0.0
  9
$UCSORGLEFT
 10
0.0
 20
0.0
 30
0.0
  9
$UCSORGRIGHT
 10
0.0
 20
0.0
 30
0.0
  9
$UCSORGFRONT
 10
0.0
 20
0.0
 30
0.0
  9
$UCSORGBACK
 10
0.0
 20
0.0
 30
0.0
  9
$PUCSBASE
  2

  9
$PUCSNAME
  2

  9
$PUCSORG
 10
0.0
 20
0.0
 30
0.0
  9
$PUCSXDIR
 10
1.0
 20
0.0
 30
0.0
  9
$PUCSYDIR
 10
0.0
 20
1.0
 30
0.0
  9
$PUCSORTHOREF
  2

  9
$PUCSORTHOVIEW
 70
0
  9
$PUCSORGTOP
 10
0.0
 20
0.0
 30
0.0
  9
$PUCSORGBOTTOM
 10
0.0
 20
0.0
 30
0.0
  9
$PUCSORGLEFT
 10
0.0
 20
0.0
 30
0.0
  9
$PUCSORGRIGHT
 10
0.0
 20
0.0
 30
0.0
  9
$PUCSORGFRONT
 10
0.0
 20
0.0
 30
0.0
  9
$PUCSORGBACK
 10
0.0
 20
0.0
 30
0.0
  9
$USERI1
 70
0
  9
$USERI2
 70
0
  9
$USERI3
 70
0
  9
$USERI4
 70
0
  9
$USERI5
 70
0
  9
$USERR1
 40
0.0
  9
$USERR2
 40
0.0
  9
$USERR3
 40
0.0
  9
$USERR4
 40
0.0
  9
$USERR5
 40
0.0
  9
$WORLDVIEW
 70
1
  9
$SHADEDGE
 70
3
  9
$SHADEDIF
 70
70
  9
$TILEMODE
 70
1
  9
$MAXACTVP
 70
64
  9
$PINSBASE
 10
0.0
 20
0.0
 30
0.0
  9
$PLIMCHECK
 70
0
  9
$PEXTMIN
 10
1e+20
 20
1e+20
 30
1e+20
  9
$PEXTMAX
 10
-1e+20
 20
-1e+20
 30
-1e+20
  9
$PLIMMIN
 10
0.0
 20
0.0
  9
$PLIMMAX
 10
420.0
 20
297.0
  9
$UNITMODE
 70
0
  9
$VISRETAIN
 70
1
  9
$PLINEGEN
 70
0
  9
$PSLTSCALE
 70
1
  9
$TREEDEPTH
 70
3020
  9
$CMLSTYLE
  2
Standard
  9
$CMLJUST
 70
0
  9
$CMLSCALE
 40
20.0
  9
$PROXYGRAPHICS
 70
1
  9
$MEASUREMENT
 70
1
  9
$CELWEIGHT
370
-1
  9
$ENDCAPS
280
0
  9
$JOINSTYLE
280
0
  9
$LWDISPLAY
290
0
  9
$INSUNITS
 70
6
  9
$HYPERLINKBASE
  1

  9
$STYLESHEET
  1

  9
$XEDIT
290
1
  9
$CEPSNTYPE
380
0
  9
$PSTYLEMODE
290
1
  9
$FINGERPRINTGUID
  2
{2B8A5C27-D1B3-49E5-AC7B-AA8ECA9E5217}
  9
$VERSIONGUID
  2
{0F6803EC-9A9F-4C8C-BF76-5AF927D43BB3}
  9
$EXTNAMES
290
1
  9
$PSVPSCALE
 40
0.0
  9
$OLESTARTUP
290
0
  9
$SORTENTS
280
127
  9
$INDEXCTL
280
0
  9
$HIDETEXT
280
1
  9
$XCLIPFRAME
280
0
  9
$HALOGAP
280
0
  9
$OBSCOLOR
 70
257
  9
$OBSLTYPE
280
0
  9
$INTERSECTIONDISPLAY
280
0
  9
$INTERSECTIONCOLOR
 70
257
  9
$DIMASSOC
280
2
  9
$PROJECTNAME
  1

  9
$CAMERADISPLAY
290
0
  9
$LENSLENGTH
 40
50.0
  9
$CAMERAHEIGHT
 40
0.0
  9
$STEPSPERSEC
 40
24.0
  9
$STEPSIZE
 40
100.0
  9
$3DDWFPREC
 40
2.0
  9
$PSOLWIDTH
 40
0.005
  9
$PSOLHEIGHT
 40
0.08
  9
$LOFTANG1
 40
1.570796326795
  9
$LOFTANG2
 40
1.570796326795
  9
$LOFTMAG1
 40
0.0
  9
$LOFTMAG2
 40
0.0
  9
$LOFTPARAM
 70
7
  9
$LOFTNORMALS
280
1
  9
$LATITUDE
 40
37.795
  9
$LONGITUDE
 40
-122.394
  9
$NORTHDIRECTION
 40
0.0
  9
$TIMEZONE
 70
-8000
  9
$LIGHTGLYPHDISPLAY
280
1
  9
$TILEMODELIGHTSYNCH
280
1
  9
$CMATERIAL
347
20
  9
$SOLIDHIST
280
0
  9
$SHOWHIST
280
1
  9
$DWFFRAME
280
2
  9
$DGNFRAME
280
2
  9
$REALWORLDSCALE
290
1
  9
$INTERFERECOLOR
 62
256
  9
$CSHADOW
280
0
  9
$SHADOWPLANELOCATION
 40
0.0
  0
ENDSEC
  0
SECTION
  2
CLASSES
  0
CLASS
  1
ACDBDICTIONARYWDFLT
  2
AcDbDictionaryWithDefault
  3
ObjectDBX Classes
 90
0
 91
0
280
0
281
0
  0
CLASS
  1
SUN
  2
AcDbSun
  3
SCENEOE
 90
1153
 91
0
280
0
281
0
  0
CLASS
  1
VISUALSTYLE
  2
AcDbVisualStyle
  3
ObjectDBX Classes
 90
4095
 91
0
280
0
281
0
  0
CLASS
  1
MATERIAL
  2
AcDbMaterial
  3
ObjectDBX Classes
 90
1153
 91
0
280
0
281
0
  0
CLASS
  1
SCALE
  2
AcDbScale
  3
ObjectDBX Classes
 90
1153
 91
0
280
0
281
0
  0
CLASS
  1
TABLESTYLE
  2
AcDbTableStyle
  3
ObjectDBX Classes
 90
4095
 91
0
280
0
281
0
  0
CLASS
  1
MLEADERSTYLE
  2
AcDbMLeaderStyle
  3
ACDB_MLEADERSTYLE_CLASS
 90
4095
 91
0
280
0
281
0
  0
CLASS
  1
DICTIONARYVAR
  2
AcDbDictionaryVar
  3
ObjectDBX Classes
 90
0
 91
0
280
0
281
0
  0
CLASS
  1
CELLSTYLEMAP
  2
AcDbCellStyleMap
  3
ObjectDBX Classes
 90
1152
 91
0
280
0
281
0
  0
CLASS
  1
MENTALRAYRENDERSETTINGS
  2
AcDbMentalRayRenderSettings
  3
SCENEOE
 90
1024
 91
0
280
0
281
0
  0
CLASS
  1
ACDBDETAILVIEWSTYLE
  2
AcDbDetailViewStyle
  3
ObjectDBX Classes
 90
1025
 91
0
280
0
281
0
  0
CLASS
  1
ACDBSECTIONVIEWSTYLE
  2
AcDbSectionViewStyle
  3
ObjectDBX Classes
 90
1025
 91
0
280
0
281
0
  0
CLASS
  1
RASTERVARIABLES
  2
AcDbRasterVariables
  3
ISM
 90
0
 91
0
280
0
281
0
  0
CLASS
  1
ACDBPLACEHOLDER
  2
AcDbPlaceHolder
  3
ObjectDBX Classes
 90
0
 91
0
280
0
281
0
  0
CLASS
  1
LAYOUT
  2
AcDbLayout
  3
ObjectDBX Classes
 90
0
 91
0
280
0
281
0
  0
ENDSEC
  0
SECTION
  2
TABLES
  0
TABLE
  2
VPORT
  5
8
330
0
100
AcDbSymbolTable
 70
1
  0
VPORT
  5
23
330
8
100
AcDbSymbolTableRecord
100
AcDbViewportTableRecord
  2
*Active
 70
0
 10
0.0
 20
0.0
 11
1.0
 21
1.0
 12
344.2
 22
148.5
 13
0.0
 23
0.0
 14
0.5
 24
0.5
 15
0.5
 25
0.5
 16
0.0
 26
0.0
 36
1.0
 17
0.0
 27
0.0
 37
0.0
 40
297.0
 41
1.34
 42
50.0
 43
0.0
 44
0.0
 50
0.0
 51
0.0
 71
0
 72
1000
 73
1
 74
3
 75
0
 76
0
 77
0
 78
0
281
0
 65
0
146
0.0
  0
ENDTAB
  0
TABLE
  2
LTYPE
  5
2
330
0
100
AcDbSymbolTable
 70
3
  0
LTYPE
  5
24
330
2
100
AcDbSymbolTableRecord
100
AcDbLinetypeTableRecord
  2
ByBlock
 70
0
  3

 72
65
 73
0
 40
0.0
  0
LTYPE
  5
25
330
2
100
AcDbSymbolTableRecord
100
AcDbLinetypeTableRecord
  2
ByLayer
 70
0
  3

 72
65
 73
0
 40
0.0
  0
LTYPE
  5
26
330
2
100
AcDbSymbolTableRecord
100
AcDbLinetypeTableRecord
  2
Continuous
 70
0
  3

 72
65
 73
0
 40
0.0
  0
ENDTAB
  0
TABLE
  2
LAYER
  5
1
330
0
100
AcDbSymbolTable
 70
2
  0
LAYER
  5
27
330
1
100
AcDbSymbolTableRecord
100
AcDbLayerTableRecord
  2
0
 70
0
 62
7
  6
Continuous
370
-3
390
13
347
21
  0
LAYER
  5
28
330
1
100
AcDbSymbolTableRecord
100
AcDbLayerTableRecord
  2
Defpoints
 70
0
 62
7
  6
Continuous
290
0
370
-3
390
13
347
21
  0
ENDTAB
  0
TABLE
  2
STYLE
  5
5
330
0
100
AcDbSymbolTable
 70
1
  0
STYLE
  5
29
330
5
100
AcDbSymbolTableRecord
100
AcDbTextStyleTableRecord
  2
Standard
 70
0
 40
0.0
 41
1.0
 50
0.0
 71
0
 42
2.5
  3
txt
  4

  0
ENDTAB
  0
TABLE
  2
VIEW
  5
7
330
0
100
AcDbSymbolTable
 70
0
  0
ENDTAB
  0
TABLE
  2
UCS
  5
6
330
0
100
AcDbSymbolTable
 70
0
  0
ENDTAB
  0
TABLE
  2
APPID
  5
3
330
0
100
AcDbSymbolTable
 70
3
  0
APPID
  5
2A
330
3
100
AcDbSymbolTableRecord
100
AcDbRegAppTableRecord
  2
ACAD
 70
0
  0
APPID
  5
76
330
3
100
AcDbSymbolTableRecord
100
AcDbRegAppTableRecord
  2
HATCHBACKGROUNDCOLOR
 70
0
  0
APPID
  5
77
330
3
100
AcDbSymbolTableRecord
100
AcDbRegAppTableRecord
  2
EZDXF
 70
0
  0
ENDTAB
  0
TABLE
  2
DIMSTYLE
  5
4
330
0
100
AcDbSymbolTable
 70
1
100
AcDbDimStyleTable
  0
DIMSTYLE
105
2B
330
4
100
AcDbSymbolTableRecord
100
AcDbDimStyleTableRecord
  2
Standard
 70
0
 40
1.0
 41
2.5
 42
0.625
 43
3.75
 44
1.25
 45
0.0
 46
0.0
 47
0.0
 48
0.0
 49
2.5
140
2.5
141
2.5
142
0.0
143
0.03937007874
144
1.0
145
0.0
146
1.0
147
0.625
148
0.0
 69
0
 70
0
 71
0
 72
0
 73
0
 74
0
 75
0
 76
0
 77
1
 78
8
 79
0
170
0
171
3
172
1
173
0
174
0
175
0
176
0
177
0
178
0
179
0
271
0
272
2
273
2
274
3
275
0
276
0
277
2
278
44
279
0
280
0
281
0
282
0
283
0
284
8
285
0
286
0
288
0
289
3
290
0
371
-2
372
-2
  0
ENDTAB
  0
TABLE
  2
BLOCK_RECORD
  5
9
330
0
100
AcDbSymbolTable
 70
2
  0
BLOCK_RECORD
  5
17
330
9
100
AcDbSymbolTableRecord
100
AcDbBlockTableRecord
  2
*Model_Space
340
1A
 70
0
280
1
281
0
  0
BLOCK_RECORD
  5
1B
330
9
100
AcDbSymbolTableRecord
100
AcDbBlockTableRecord
  2
*Paper_Space
340
1E
 70
0
280
1
281
0
  0
ENDTAB
  0
ENDSEC
  0
SECTION
  2
BLOCKS
  0
BLOCK
  5
18
330
17
100
AcDbEntity
  8
0
100
AcDbBlockBegin
  2
*Model_Space
 70
0
 10
0.0
 20
0.0
 30
0.0
  3
*Model_Space
  1

  0
ENDBLK
  5
19
330
17
100
AcDbEntity
  8
0
100
AcDbBlockEnd
  0
BLOCK
  5
1C
330
1B
100
AcDbEntity
  8
0
100
AcDbBlockBegin
  2
*Paper_Space
 70
0
 10
0.0
 20
0.0
 30
0.0
  3
*Paper_Space
  1

  0
ENDBLK
  5
1D
330
1B
100
AcDbEntity
  8
0
100
AcDbBlockEnd
  0
ENDSEC
  0
SECTION
  2
ENTITIES
  0
SPLINE
  5
2F
330
17
100
AcDbEntity
  8
0
100
AcDbSpline
 70
0
 71
8
 72
74
 73
65
 74
0
 40
0.0
 40
0.0
 40
0.0
 40
0.0
 40
0.0
 40
0.0
 40
0.0
 40
0.0
 40
0.0
 40
0.06119672879268169
 40
0.06119672879268169
 40
0.06119672879268169
 40
0.06119672879268169
 40
0.06119672879268169
 40
0.06119672879268169
 40
0.06119672879268169
 40
0.184132085311295
 40
0.184132085311295
 40
0.184132085311295
 40
0.184132085311295
 40
0.184132085311295
 40
0.184132085311295
 40
0.184132085311295
 40
0.25942372551386794
 40
0.25942372551386794
 40
0.25942372551386794
 40
0.25942372551386794
 40
0.25942372551386794
 40
0.25942372551386794
 40
0.25942372551386794
 40
0.3463575529417354
 40
0.3463575529417354
 40
0.3463575529417354
 40
0.3463575529417354
 40
0.3463575529417354
 40
0.3463575529417354
 40
0.3463575529417354
 40
0.3793913430333415
 40
0.3793913430333415
 40
0.3793913430333415
 40
0.3793913430333415
 40
0.3793913430333415
 40
0.3793913430333415
 40
0.3793913430333415
 40
0.41242496387054933
 40
0.41242496387054933
 40
0.41242496387054933
 40
0.41242496387054933
 40
0.41242496387054933
 40
0.41242496387054933
 40
0.41242496387054933
 40
0.5504933204700603
 40
0.5504933204700603
 40
0.5504933204700603
 40
0.5504933204700603
 40
0.5504933204700603
 40
0.5504933204700603
 40
0.5504933204700603
 40
0.7627792763475726
 40
0.7627792763475726
 40
0.7627792763475726
 40
0.7627792763475726
 40
0.7627792763475726
 40
0.7627792763475726
 40
0.7627792763475726
 40
1.0
 40
1.0
 40
1.0
 40
1.0
 40
1.0
 40
1.0
 40
1.0
 40
1.0
 40
1.0
 10
46.5287437547088
 20
209.90000000065356
 30
431.0
 10
46.36062466667803
 20
210.13872150508675
 30
431.0
 10
46.18930987266695
 20
210.3751876279608
 30
431.0
 10
46.01468545868826
 20
210.60923968001921
 30
431.0
 10
45.836633579154224
 20
210.84070306930005
 30
431.0
 10
45.655031897745246
 20
211.0693868952204
 30
431.0
 10
45.46975290182869
 20
211.29508344763195
 30
431.0
 10
45.28066309042792
 20
211.51756761084744
 30
431.0
 10
44.69983054183709
 20
212.1765928009333
 30
431.0
 10
44.29623294674545
 20
212.60248572664025
 30
431.0
 10
43.875670430641
 20
213.01236686106532
 30
431.0
 10
43.437155538105685
 20
213.4036889147197
 30
431.0
 10
42.97993779123152
 20
213.7733520177284
 30
431.0
 10
42.50358240615888
 20
214.11780390959305
 30
431.0
 10
42.008133219581836
 20
214.43324505029364
 30
431.0
 10
41.17981446239863
 20
214.88922137654433
 30
431.0
 10
40.85838061048292
 20
215.05014750588396
 30
431.0
 10
40.53045761261729
 20
215.1979026513961
 30
431.0
 10
40.196465478544916
 20
215.33165194331468
 30
431.0
 10
39.85692914572289
 20
215.4506678029604
 30
431.0
 10
39.512492521483786
 20
215.55436817366444
 30
431.0
 10
39.16393341277528
 20
215.64235656309413
 30
431.0
 10
38.406034285738315
 20
215.7977210355374
 30
431.0
 10
37.99547784727612
 20
215.85983734756735
 30
431.0
 10
37.581961712012685
 20
215.9005167727957
 30
431.0
 10
37.16682454854057
 20
215.9199549285133
 30
431.0
 10
36.75129015349151
 20
215.9187384789666
 30
431.0
 10
36.33646527522767
 20
215.89775127749365
 30
431.0
 10
35.92333711785608
 20
215.8580872814077
 30
431.0
 10
35.35676024706336
 20
215.7792664630359
 30
431.0
 10
35.20091451146569
 20
215.75501409460483
 30
431.0
 10
35.04524176318672
 20
215.72826305598133
 30
431.0
 10
34.88975044664042
 20
215.69906326881696
 30
431.0
 10
34.73444900624118
 20
215.66746465476808
 30
431.0
 10
34.579345886403814
 20
215.63351713549608
 30
431.0
 10
34.42444953154358
 20
215.59727063266723
 30
431.0
 10
34.115088033144744
 20
215.52027970047666
 30
431.0
 10
33.96062112815437
 20
215.4795319031231
 30
431.0
 10
33.80637750214567
 20
215.43659334369465
 30
431.0
 10
33.652366748750666
 20
215.39151236991808
 30
431.0
 10
33.4985982241928
 20
215.34432400944382
 30
431.0
 10
33.3450810472869
 20
215.29504996984627
 30
431.0
 10
33.1918240994392
 20
215.24369863862344
 30
431.0
 10
32.39940227410812
 20
214.96693252085618
 30
431.0
 10
31.771862070828327
 20
214.7099150674636
 30
431.0
 10
31.157422410766575
 20
214.42190311437102
 30
431.0
 10
30.556924598757266
 20
214.10557489512527
 30
431.0
 10
29.9709140694112
 20
213.76346298389893
 30
431.0
 10
29.399682074316452
 20
213.39787591408373
 30
431.0
 10
28.843293619385804
 20
213.010846315414
 30
431.0
 10
27.468763771154613
 20
211.97865183896712
 30
431.0
 10
26.671161958585774
 20
211.30691753938729
 30
431.0
 10
25.908086097961395
 20
210.59502435697405
 30
431.0
 10
25.178949758362627
 20
209.84812229419035
 30
431.0
 10
24.483129863664093
 20
209.07054274078965
 30
431.0
 10
23.81992131632864
 20
208.26584663449466
 30
431.0
 10
23.188558425303775
 20
207.43680688217984
 30
431.0
 10
21.917410413549167
 20
205.6339730152868
 30
431.0
 10
21.28570858934991
 20
204.6551271005376
 30
431.0
 10
20.69218914858454
 20
203.65199407371318
 30
431.0
 10
20.136318047820552
 20
202.62725818026402
 30
431.0
 10
19.61778933857304
 20
201.5832518905396
 30
431.0
 10
19.13645743630447
 20
200.5219946109794
 30
431.0
 10
18.692329501721986
 20
199.44519864403793
 30
431.0
 10
18.285561933722576
 20
198.354273917862
 30
431.0
  0
LINE
  5
30
330
17
100
AcDbEntity
  8
0
100
AcDbLine
 10
31.613951922910367
 20
209.9
 30
431.0
 11
46.52874375378069
 21
209.9
 31
431.0
  0
SPLINE
  5
31
330
17
100
AcDbEntity
  8
0
100
AcDbSpline
 70
0
 71
1
 72
4
 73
2
 74
0
 40
0.0
 40
0.0
 40
1.0
 40
1.0
 10
31.61395193038204
 20
209.90000060000008
 30
431.0
 10
31.61395193038204
 20
206.09999939999994
 30
431.0
  0
LINE
  5
32
330
17
100
AcDbEntity
  8
0
100
AcDbLine
 10
31.613951922910367
 20
206.1
 30
431.0
 11
48.796974195153226
 21
206.1
 31
431.0
  0
SPLINE
  5
33
330
17
100
AcDbEntity
  8
0
100
AcDbSpline
 70
0
 71
8
 72
46
 73
37
 74
0
 40
0.0
 40
0.0
 40
0.0
 40
0.0
 40
0.0
 40
0.0
 40
0.0
 40
0.0
 40
0.0
 40
0.17266034630595858
 40
0.17266034630595858
 40
0.17266034630595858
 40
0.17266034630595858
 40
0.17266034630595858
 40
0.17266034630595858
 40
0.17266034630595858
 40
0.33668262648339525
 40
0.33668262648339525
 40
0.33668262648339525
 40
0.33668262648339525
 40
0.33668262648339525
 40
0.33668262648339525
 40
0.33668262648339525
 40
0.5826855039781862
 40
0.5826855039781862
 40
0.5826855039781862
 40
0.5826855039781862
 40
0.5826855039781862
 40
0.5826855039781862
 40
0.5826855039781862
 40
0.8287633376893914
 40
0.8287633376893914
 40
0.8287633376893914
 40
0.8287633376893914
 40
0.8287633376893914
 40
0.8287633376893914
 40
0.8287633376893914
 40
1.0
 40
1.0
 40
1.0
 40
1.0
 40
1.0
 40
1.0
 40
1.0
 40
1.0
 40
1.0
 10
55.88778367509703
 20
183.90000000160325
 30
431.0
 10
55.765150634084435
 20
184.46037937411222
 30
431.0
 10
55.64085244550459
 20
185.0203928426227
 30
431.0
 10
55.51482605132967
 20
185.58002022090625
 30
431.0
 10
55.38700342062891
 20
186.1392395307268
 30
431.0
 10
55.257310835655844
 20
186.69802684743257
 30
431.0
 10
55.12566800492627
 20
187.25635610794896
 30
431.0
 10
54.99198694999126
 20
187.81419886934907
 30
431.0
 10
54.72714906354368
 20
188.90096658925316
 30
431.0
 10
54.59755607820414
 20
189.42437939246014
 30
431.0
 10
54.46739310803386
 20
189.94169591269923
 30
431.0
 10
54.33666160447471
 20
190.45284964686604
 30
431.0
 10
54.20536301896746
 20
190.95777409185234
 30
431.0
 10
54.073498802951924
 20
191.45640274454547
 30
431.0
 10
53.94107040786688
 20
191.94866910182873
 30
431.0
 10
53.60861736549992
 20
193.1631725303575
 30
431.0
 10
53.40784770264286
 20
193.87758408746325
 30
431.0
 10
53.205753192703504
 20
194.57725364856566
 30
431.0
 10
53.002572301659285
 20
195.2619120966344
 30
431.0
 10
52.79810609467572
 20
195.93130412234353
 30
431.0
 10
52.5922164232108
 20
196.5853425517415
 30
431.0
 10
52.385244679179905
 20
197.2242325615975
 30
431.0
 10
51.9688529448749
 20
198.47231071962852
 30
431.0
 10
51.755084441828814
 20
199.09458083877797
 30
431.0
 10
51.53546064775487
 20
199.71483150798815
 30
431.0
 10
51.30963700680406
 20
200.33287264869602
 30
431.0
 10
51.077234502211255
 20
200.94847795946438
 30
431.0
 10
50.83783148802112
 20
201.56138183750403
 30
431.0
 10
50.59095162618628
 20
202.171274799323
 30
431.0
 10
50.15866966764757
 20
203.19985453695938
 30
431.0
 10
49.977417094901625
 20
203.62025272462594
 30
431.0
 10
49.79210149220736
 20
204.03888496563243
 30
431.0
 10
49.60252119380441
 20
204.45561900816222
 30
431.0
 10
49.40846063587544
 20
204.8702969186739
 30
431.0
 10
49.20968800699926
 20
205.28273392808617
 30
431.0
 10
49.00595149994616
 20
205.69271655192512
 30
431.0
 10
48.79697416481553
 20
206.09999998443365
 30
431.0
  0
LINE
  5
34
330
17
100
AcDbEntity
  8
0
100
AcDbLine
 10
31.613951922910367
 20
183.9
 30
431.0
 11
55.887783667771465
 21
183.9
 31
431.0
  0
SPLINE
  5
35
330
17
100
AcDbEntity
  8
0
100
AcDbSpline
 70
0
 71
1
 72
4
 73
2
 74
0
 40
0.0
 40
0.0
 40
1.0
 40
1.0
 10
31.61395193038204
 20
183.90000060000014
 30
431.0
 10
31.61395193038204
 20
180.0999993999999
 30
431.0
  0
LINE
  5
36
330
17
100
AcDbEntity
  8
0
100
AcDbLine
 10
31.613951922910367
 20
180.1
 30
431.0
 11
56.68650003903382
 21
180.1
 31
431.0
  0
SPLINE
  5
37
330
17
100
AcDbEntity
  8
0
100
AcDbSpline
 70
0
 71
8
 72
32
 73
23
 74
0
 40
0.0
 40
0.0
 40
0.0
 40
0.0
 40
0.0
 40
0.0
 40
0.0
 40
0.0
 40
0.0
 40
0.12064779339991076
 40
0.12064779339991076
 40
0.12064779339991076
 40
0.12064779339991076
 40
0.12064779339991076
 40
0.12064779339991076
 40
0.12064779339991076
 40
0.7930067176741569
 40
0.7930067176741569
 40
0.7930067176741569
 40
0.7930067176741569
 40
0.7930067176741569
 40
0.7930067176741569
 40
0.7930067176741569
 40
1.0
 40
1.0
 40
1.0
 40
1.0
 40
1.0
 40
1.0
 40
1.0
 40
1.0
 40
1.0
 10
60.42504561671989
 20
157.9000000023466
 30
431.0
 10
60.37721004832862
 20
158.23617642957447
 30
431.0
 10
60.32913789982149
 20
158.57231914030345
 30
431.0
 10
60.280826617691524
 20
158.90842759217202
 30
431.0
 10
60.23227358280684
 20
159.24450122981307
 30
431.0
 10
60.18347610765326
 20
159.58053948449424
 30
431.0
 10
60.134431433406405
 20
159.91654177373584
 30
431.0
 10
60.08513672682217
 20
160.25250750090504
 30
431.0
 10
59.75946463537028
 20
162.4605346216497
 30
431.0
 10
59.47548659785256
 20
164.33146023980547
 30
431.0
 10
59.18315235503696
 20
166.2011133969546
 30
431.0
 10
58.88188035196916
 20
168.06936312703644
 30
431.0
 10
58.57100129744132
 20
169.93604564378484
 30
431.0
 10
58.24972881634634
 20
171.8009594529177
 30
431.0
 10
57.917109545030286
 20
173.66385694295874
 30
431.0
 10
57.465692230502015
 20
176.09723162234468
 30
431.0
 10
57.35824451947711
 20
176.66980508729455
 30
431.0
 10
57.24957439852629
 20
177.24214537017642
 30
431.0
 10
57.13964473123498
 20
177.81424380154232
 30
431.0
 10
57.02841605682707
 20
178.38609044910618
 30
431.0
 10
56.915846292072075
 20
178.95767405203725
 30
431.0
 10
56.801890401716626
 20
179.52898194913027
 30
431.0
 10
56.68649997806854
 20
180.09999998768018
 30
431.0
  0
LINE
  5
38
330
17
100
AcDbEntity
  8
0
100
AcDbLine
 10
31.613951922910367
 20
157.9
 30
431.0
 11
60.42504560022833
 21
157.9
 31
431.0
  0
SPLINE
  5
39
330
17
100
AcDbEntity
  8
0
100
AcDbSpline
 70
0
 71
1
 72
4
 73
2
 74
0
 40
0.0
 40
0.0
 40
1.0
 40
1.0
 10
31.61395193038204
 20
157.90000060000042
 30
431.0
 10
31.61395193038204
 20
154.09999939999918
 30
431.0
  0
LINE
  5
3A
330
17
100
AcDbEntity
  8
0
100
AcDbLine
 10
31.613951922910367
 20
154.1
 30
431.0
 11
60.95267603566059
 21
154.1
 31
431.0
  0
SPLINE
  5
3B
330
17
100
AcDbEntity
  8
0
100
AcDbSpline
 70
0
 71
8
 72
25
 73
16
 74
0
 40
0.0
 40
0.0
 40
0.0
 40
0.0
 40
0.0
 40
0.0
 40
0.0
 40
0.0
 40
0.0
 40
0.1884642299338764
 40
0.1884642299338764
 40
0.1884642299338764
 40
0.1884642299338764
 40
0.1884642299338764
 40
0.1884642299338764
 40
0.1884642299338764
 40
1.0
 40
1.0
 40
1.0
 40
1.0
 40
1.0
 40
1.0
 40
1.0
 40
1.0
 40
1.0
 10
63.597393659115724
 20
131.9000000025581
 30
431.0
 10
63.542499665250034
 20
132.4238409178091
 30
431.0
 10
63.487250306671754
 20
132.94764451631283
 30
431.0
 10
63.43164229704327
 20
133.47141017768405
 30
431.0
 10
63.37567224742108
 20
133.99513726498265
 30
431.0
 10
63.31933666224848
 20
134.5188251243189
 30
431.0
 10
63.26263193513179
 20
135.04247308443723
 30
431.0
 10
63.205554344400255
 20
135.5660804562783
 30
431.0
 10
62.900699168588346
 20
138.34414649260387
 30
431.0
 10
62.64631494498677
 20
140.59786645865884
 30
431.0
 10
62.38463913332913
 20
142.85075749119
 30
431.0
 10
62.115323252674216
 20
145.10275656817802
 30
431.0
 10
61.837968422509626
 20
147.35378522795708
 30
431.0
 10
61.552115767586216
 20
149.6037483161809
 30
431.0
 10
61.257230905174225
 20
151.85253197332196
 30
431.0
 10
60.95267602938273
 20
154.09999999914933
 30
431.0
  0
LINE
  5
3C
330
17
100
AcDbEntity
  8
0
100
AcDbLine
 10
31.613951922910367
 20
131.9
 30
431.0
 11
63.59739363470467
 21
131.9
 31
431.0
  0
SPLINE
  5
3D
330
17
100
AcDbEntity
  8
0
100
AcDbSpline
 70
0
 71
1
 72
4
 73
2
 74
0
 40
0.0
 40
0.0
 40
1.0
 40
1.0
 10
31.61395193038204
 20
131.90000060000256
 30
431.0
 10
31.61395193038204
 20
128.09999939999764
 30
431.0
  0
LINE
  5
3E
330
17
100
AcDbEntity
  8
0
100
AcDbLine
 10
31.613951922910367
 20
128.1
 30
431.0
 11
63.987468149090226
 21
128.1
 31
431.0
  0
SPLINE
  5
3F
330
17
100
AcDbEntity
  8
0
100
AcDbSpline
 70
0
 71
8
 72
25
 73
16
 74
0
 40
0.0
 40
0.0
 40
0.0
 40
0.0
 40
0.0
 40
0.0
 40
0.0
 40
0.0
 40
0.0
 40
0.20781130634255887
 40
0.20781130634255887
 40
0.20781130634255887
 40
0.20781130634255887
 40
0.20781130634255887
 40
0.20781130634255887
 40
0.20781130634255887
 40
1.0
 40
1.0
 40
1.0
 40
1.0
 40
1.0
 40
1.0
 40
1.0
 40
1.0
 40
1.0
 10
65.97134731017749
 20
105.89999999666354
 30
431.0
 10
65.92579640053374
 20
106.47719179156331
 30
431.0
 10
65.87990790284098
 20
107.05435692572475
 30
431.0
 10
65.83368084620213
 20
107.63149509139768
 30
431.0
 10
65.7871142189252
 20
108.2086059738067
 30
431.0
 10
65.74020685661719
 20
108.78568924181687
 30
431.0
 10
65.69295733027792
 20
109.36274453859917
 30
431.0
 10
65.64536383439388
 20
109.9397714722962
 30
431.0
 10
65.41467494549009
 20
112.71631979657401
 30
431.0
 10
65.2268963702059
 20
114.91544912953208
 30
431.0
 10
65.03398342167206
 20
117.11413754888642
 30
431.0
 10
64.83581432782651
 20
119.3123613419005
 30
431.0
 10
64.63224956912659
 20
121.5100930544981
 30
431.0
 10
64.42312980414727
 20
123.70730128956865
 30
431.0
 10
64.20827262370379
 20
125.90395038885626
 30
431.0
 10
63.98746813349873
 20
128.09999999843242
 30
431.0
  0
LINE
  5
40
330
17
100
AcDbEntity
  8
0
100
AcDbLine
 10
31.613951922910367
 20
105.9
 30
431.0
 11
65.97134735245542
 21
105.9
 31
431.0
  0
SPLINE
  5
41
330
17
100
AcDbEntity
  8
0
100
AcDbSpline
 70
0
 71
1
 72
4
 73
2
 74
0
 40
0.0
 40
0.0
 40
1.0
 40
1.0
 10
31.61395193038204
 20
105.90000060000206
 30
431.0
 10
31.61395193038204
 20
102.09999939999993
 30
431.0
  0
LINE
  5
42
330
17
100
AcDbEntity
  8
0
100
AcDbLine
 10
31.613951922910367
 20
102.1
 30
431.0
 11
66.26482818185534
 21
102.1
 31
431.0
  0
SPLINE
  5
43
330
17
100
AcDbEntity
  8
0
100
AcDbSpline
 70
0
 71
8
 72
25
 73
16
 74
0
 40
0.0
 40
0.0
 40
0.0
 40
0.0
 40
0.0
 40
0.0
 40
0.0
 40
0.0
 40
0.0
 40
0.11942911430402124
 40
0.11942911430402124
 40
0.11942911430402124
 40
0.11942911430402124
 40
0.11942911430402124
 40
0.11942911430402124
 40
0.11942911430402124
 40
1.0
 40
1.0
 40
1.0
 40
1.0
 40
1.0
 40
1.0
 40
1.0
 40
1.0
 40
1.0
 10
67.73209389492085
 20
79.9000000011596
 30
430.9999999999999
 10
67.7132247586481
 20
80.23160706873632
 30
430.9999999999999
 10
67.69425479131526
 20
80.56320843433004
 30
430.9999999999999
 10
67.6751838371224
 20
80.8948040556042
 30
430.9999999999999
 10
67.65601173954761
 20
81.22639389007075
 30
430.9999999999999
 10
67.63673834134276
 20
81.55797789508998
 30
430.9999999999999
 10
67.61736348452943
 20
81.88955602787036
 30
430.9999999999999
 10
67.59788701039466
 20
82.22112824546844
 30
430.99999999999994
 10
67.43395503265072
 20
84.99738813195023
 30
431.0
 10
67.28406852242195
 20
87.44175469433713
 30
431.0
 10
67.12858536759393
 20
89.88577587425026
 30
431.0
 10
66.96743955843806
 20
92.32943250410081
 30
431.0
 10
66.80056282612534
 20
94.77270455883712
 30
431.0
 10
66.6278845321486
 20
97.21557114837157
 30
431.0
 10
66.44933155774433
 20
99.65801051000747
 30
431.0
 10
66.26482819331495
 20
102.10000000086586
 30
431.0
  0
LINE
  5
44
330
17
100
AcDbEntity
  8
0
100
AcDbLine
 10
31.613951922910367
 20
79.9
 30
431.0
 11
67.73209387454132
 21
79.9
 31
431.0
  0
SPLINE
  5
45
330
17
100
AcDbEntity
  8
0
100
AcDbSpline
 70
0
 71
1
 72
4
 73
2
 74
0
 40
0.0
 40
0.0
 40
1.0
 40
1.0
 10
31.61395193038204
 20
79.90000060000001
 30
431.0
 10
31.61395193038204
 20
76.09999939999999
 30
431.0
  0
LINE
  5
46
330
17
100
AcDbEntity
  8
0
100
AcDbLine
 10
31.613951922910367
 20
76.1
 30
431.0
 11
67.94253716183717
 21
76.1
 31
431.0
  0
SPLINE
  5
47
330
17
100
AcDbEntity
  8
0
100
AcDbSpline
 70
0
 71
8
 72
18
 73
9
 74
0
 40
0.0
 40
0.0
 40
0.0
 40
0.0
 40
0.0
 40
0.0
 40
0.0
 40
0.0
 40
0.0
 40
1.0
 40
1.0
 40
1.0
 40
1.0
 40
1.0
 40
1.0
 40
1.0
 40
1.0
 40
1.0
 10
68.94764000058922
 20
53.89999999911389
 30
431.0000000000001
 10
68.8452160085634
 20
56.67598937129788
 30
431.0000000000001
 10
68.73631200922105
 20
59.45173885692573
 30
431.0000000000001
 10
68.62085542544393
 20
62.22722796426362
 30
431.0000000000001
 10
68.49877083663347
 20
65.00243548180904
 30
431.0000000000001
 10
68.3699798541251
 20
67.77733947433425
 30
431.0000000000001
 10
68.23440098379254
 20
70.551917278553
 30
431.0000000000001
 10
68.09194947584157
 20
73.32614549841067
 30
431.0
 10
67.94253716179368
 20
76.09999999999766
 30
431.0
  0
LINE
  5
48
330
17
100
AcDbEntity
  8
0
100
AcDbLine
 10
31.613951922910367
 20
53.9
 30
431.0
 11
68.94764002460647
 21
53.9
 31
431.0
  0
SPLINE
  5
49
330
17
100
AcDbEntity
  8
0
100
AcDbSpline
 70
0
 71
1
 72
4
 73
2
 74
0
 40
0.0
 40
0.0
 40
1.0
 40
1.0
 10
31.61395193038204
 20
53.90000060000026
 30
431.0
 10
31.61395193038204
 20
50.09999939999937
 30
431.0
  0
LINE
  5
4A
330
17
100
AcDbEntity
  8
0
100
AcDbLine
 10
31.613951922910367
 20
50.1
 30
431.0
 11
69.08254765723578
 21
50.1
 31
431.0
  0
SPLINE
  5
4B
330
17
100
AcDbEntity
  8
0
100
AcDbSpline
 70
0
 71
8
 72
18
 73
9
 74
0
 40
0.0
 40
0.0
 40
0.0
 40
0.0
 40
0.0
 40
0.0
 40
0.0
 40
0.0
 40
0.0
 40
1.0
 40
1.0
 40
1.0
 40
1.0
 40
1.0
 40
1.0
 40
1.0
 40
1.0
 40
1.0
 10
69.66427742193855
 20
27.900000000572405
 30
431.0
 10
69.6130428123711
 20
30.675506995952404
 30
431.0
 10
69.55579130875337
 20
33.450903485704316
 30
431.0
 10
69.49246559068933
 20
36.22617317554264
 30
431.0
 10
69.42300597874146
 20
39.001299068764396
 30
431.0
 10
69.34735035509684
 20
41.77626346362409
 30
431.0
 10
69.26543407147551
 20
44.55104795033358
 30
431.0
 10
69.177189844281
 20
47.32563340768682
 30
431.0
 10
69.08254763699307
 20
50.099999999309475
 30
431.0
  0
LINE
  5
4C
330
17
100
AcDbEntity
  8
0
100
AcDbLine
 10
31.613951922910367
 20
27.9
 30
431.0
 11
69.66427739093082
 21
27.9
 31
431.0
  0
SPLINE
  5
4D
330
17
100
AcDbEntity
  8
0
100
AcDbSpline
 70
0
 71
1
 72
4
 73
2
 74
0
 40
0.0
 40
0.0
 40
1.0
 40
1.0
 10
31.61395193038204
 20
27.900000600000002
 30
431.0
 10
31.61395193038204
 20
24.099999399999998
 30
431.0
  0
LINE
  5
4E
330
17
100
AcDbEntity
  8
0
100
AcDbLine
 10
31.613951922910367
 20
24.1
 30
431.0
 11
69.7295039193163
 21
24.1
 31
431.0
  0
SPLINE
  5
4F
330
17
100
AcDbEntity
  8
0
100
AcDbSpline
 70
0
 71
8
 72
18
 73
9
 74
0
 40
0.0
 40
0.0
 40
0.0
 40
0.0
 40
0.0
 40
0.0
 40
0.0
 40
0.0
 40
0.0
 40
1.0
 40
1.0
 40
1.0
 40
1.0
 40
1.0
 40
1.0
 40
1.0
 40
1.0
 40
1.0
 10
69.91807402036514
 20
1.9000000000754051
 30
431.0
 10
69.91463148361245
 20
4.675127882739871
 30
431.0
 10
69.90553189226752
 20
7.45024536320217
 30
431.0
 10
69.89073089432749
 20
10.22534024054392
 30
431.0
 10
69.87018204793658
 20
13.000399621491356
 30
431.0
 10
69.84383678691695
 20
15.775409919109919
 30
431.0
 10
69.81164437356534
 20
18.55035685112442
 30
431.0
 10
69.77355183871543
 20
21.325225437864773
 30
431.0
 10
69.729503909066
 20
24.0999999998373
 30
431.0
  0
LINE
  5
50
330
17
100
AcDbEntity
  8
0
100
AcDbLine
 10
31.613951922910367
 20
1.9
 30
431.0
 11
69.91807395958428
 21
1.9
 31
431.0
  0
SPLINE
  5
51
330
17
100
AcDbEntity
  8
0
100
AcDbSpline
 70
0
 71
1
 72
4
 73
2
 74
0
 40
0.0
 40
0.0
 40
0.9999993684216398
 40
0.9999993684216398
 10
31.61395193038204
 20
1.9000006000000558
 30
431.0
 10
31.61395193038204
 20
-6.553790374438061e-17
 30
431.0
  0
SPLINE
  5
52
330
17
100
AcDbEntity
  8
0
100
AcDbSpline
 70
0
 71
1
 72
4
 73
2
 74
0
 40
0.0
 40
0.0
 40
1.0
 40
1.0
 10
31.61395193038204
 20
-1.9000006000000011
 30
431.0
 10
31.61395193038204
 20
1.2000000211287443e-06
 30
431.0
  0
LINE
  5
53
330
17
100
AcDbEntity
  8
0
100
AcDbLine
 10
31.61395192291038
 20
-1.9
 30
431.0
 11
69.91815666368558
 21
-1.9
 31
431.0
  0
SPLINE
  5
54
330
17
100
AcDbEntity
  8
0
100
AcDbSpline
 70
0
 71
8
 72
18
 73
9
 74
0
 40
0.0
 40
0.0
 40
0.0
 40
0.0
 40
0.0
 40
0.0
 40
0.0
 40
0.0
 40
0.0
 40
1.0
 40
1.0
 40
1.0
 40
1.0
 40
1.0
 40
1.0
 40
1.0
 40
1.0
 40
1.0
 10
69.73051076594538
 20
-24.100000000277255
 30
431.0
 10
69.77445250993934
 20
-21.325227271117686
 30
431.0
 10
69.81243501604425
 20
-18.550360755856904
 30
431.0
 10
69.84451414491087
 20
-15.775415858069977
 30
431.0
 10
69.870743449882
 20
-13.000407196797093
 30
431.0
 10
69.89117425165705
 20
-10.225348609557557
 30
431.0
 10
69.90585570394431
 20
-7.450253155065045
 30
431.0
 10
69.91483485211097
 20
-4.675133115729057
 30
431.0
 10
69.91815668684123
 20
-1.9000000000277117
 30
431.0
  0
LINE
  5
55
330
17
100
AcDbEntity
  8
0
100
AcDbLine
 10
31.613951922910353
 20
-24.1
 30
431.0
 11
69.73051074843694
 21
-24.1
 31
431.0
  0
SPLINE
  5
56
330
17
100
AcDbEntity
  8
0
100
AcDbSpline
 70
0
 71
1
 72
4
 73
2
 74
0
 40
0.0
 40
0.0
 40
1.0
 40
1.0
 10
31.61395193038204
 20
-27.900000600000034
 30
431.0
 10
31.61395193038204
 20
-24.099999399999938
 30
431.0
  0
LINE
  5
57
330
17
100
AcDbEntity
  8
0
100
AcDbLine
 10
31.613951922910353
 20
-27.9
 30
431.0
 11
69.66542634780764
 21
-27.9
 31
431.0
  0
SPLINE
  5
58
330
17
100
AcDbEntity
  8
0
100
AcDbSpline
 70
0
 71
8
 72
18
 73
9
 74
0
 40
0.0
 40
0.0
 40
0.0
 40
0.0
 40
0.0
 40
0.0
 40
0.0
 40
0.0
 40
0.0
 40
1.0
 40
1.0
 40
1.0
 40
1.0
 40
1.0
 40
1.0
 40
1.0
 40
1.0
 40
1.0
 10
69.08434884837868
 20
-50.100000000103044
 30
431.0
 10
69.17893342429426
 20
-47.32563111388686
 30
431.0
 10
69.2671119973754
 20
-44.55104377878748
 30
431.0
 10
69.34895519699316
 20
-41.77625805926395
 30
431.0
 10
69.42453090481149
 20
-39.00129321712132
 30
431.0
 10
69.4939043695797
 20
-36.22616771593205
 30
431.0
 10
69.55713830817692
 20
-33.45089922495837
 30
431.0
 10
69.61429299492316
 20
-30.675504622660732
 30
431.0
 10
69.66542634117175
 20
-27.899999999877746
 30
431.0
  0
LINE
  5
59
330
17
100
AcDbEntity
  8
0
100
AcDbLine
 10
31.61395192291038
 20
-50.1
 30
431.0
 11
69.08434884535586
 21
-50.1
 31
431.0
  0
SPLINE
  5
5A
330
17
100
AcDbEntity
  8
0
100
AcDbSpline
 70
0
 71
1
 72
4
 73
2
 74
0
 40
0.0
 40
0.0
 40
1.0
 40
1.0
 10
31.61395193038204
 20
-53.9000006
 30
431.0
 10
31.61395193038204
 20
-50.0999994
 30
431.0
  0
LINE
  5
5B
330
17
100
AcDbEntity
  8
0
100
AcDbLine
 10
31.613951922910353
 20
-53.9
 30
431.0
 11
68.94951352273786
 21
-53.9
 31
431.0
  0
SPLINE
  5
5C
330
17
100
AcDbEntity
  8
0
100
AcDbSpline
 70
0
 71
8
 72
18
 73
9
 74
0
 40
0.0
 40
0.0
 40
0.0
 40
0.0
 40
0.0
 40
0.0
 40
0.0
 40
0.0
 40
0.0
 40
1.0
 40
1.0
 40
1.0
 40
1.0
 40
1.0
 40
1.0
 40
1.0
 40
1.0
 40
1.0
 10
67.94451794513594
 20
-76.10000000116086
 30
431.0
 10
68.09395513412424
 20
-73.32615158744267
 30
431.0
 10
68.2364194538824
 20
-70.55192643604312
 30
431.0
 10
68.3719996325716
 20
-67.77734943513423
 30
431.0
 10
68.50078097694454
 20
-65.00244464257875
 30
431.0
 10
68.62284554435948
 20
-62.22723529247999
 30
431.0
 10
68.73827229624834
 20
-59.45174380102988
 30
431.0
 10
68.84713723506327
 20
-56.675991771740826
 30
431.0
 10
68.94951352672595
 20
-53.90000000014708
 30
431.0
  0
LINE
  5
5D
330
17
100
AcDbEntity
  8
0
100
AcDbLine
 10
31.61395192291038
 20
-76.1
 30
431.0
 11
67.94451792358774
 21
-76.1
 31
431.0
  0
SPLINE
  5
5E
330
17
100
AcDbEntity
  8
0
100
AcDbSpline
 70
0
 71
1
 72
4
 73
2
 74
0
 40
0.0
 40
0.0
 40
1.0
 40
1.0
 10
31.61395193038204
 20
-79.90000060000018
 30
431.0
 10
31.61395193038204
 20
-76.09999939999999
 30
431.0
  0
LINE
  5
5F
330
17
100
AcDbEntity
  8
0
100
AcDbLine
 10
31.61395192291038
 20
-79.9
 30
431.0
 11
67.73402988811972
 21
-79.9
 31
431.0
  0
SPLINE
  5
60
330
17
100
AcDbEntity
  8
0
100
AcDbSpline
 70
0
 71
8
 72
25
 73
16
 74
0
 40
0.0
 40
0.0
 40
0.0
 40
0.0
 40
0.0
 40
0.0
 40
0.0
 40
0.0
 40
0.0
 40
0.25089624274577843
 40
0.25089624274577843
 40
0.25089624274577843
 40
0.25089624274577843
 40
0.25089624274577843
 40
0.25089624274577843
 40
0.25089624274577843
 40
1.0
 40
1.0
 40
1.0
 40
1.0
 40
1.0
 40
1.0
 40
1.0
 40
1.0
 40
1.0
 10
66.26604366318796
 20
-102.09999999815525
 30
431.0
 10
66.31864944333367
 20
-101.40421668961685
 30
431.0
 10
66.37077112581466
 20
-100.70839675270547
 30
431.0
 10
66.42241047157839
 20
-100.01254071591259
 30
431.0
 10
66.47356919705501
 20
-99.3166490985658
 30
431.0
 10
66.52424897653766
 20
-98.62072241132014
 30
431.0
 10
66.57445153078991
 20
-97.92476116432411
 30
431.0
 10
66.62417878811064
 20
-97.22876588088633
 30
431.0
 10
66.82048851694402
 20
-94.45459578657575
 30
431.0
 10
66.96332093199929
 20
-92.37615926282315
 30
431.0
 10
67.10197416277767
 20
-90.29743959401304
 30
431.0
 10
67.2364916505921
 20
-88.21844864640109
 30
431.0
 10
67.36691557614239
 20
-86.13919801677989
 30
431.0
 10
67.49328690974765
 20
-84.059699034392
 30
431.0
 10
67.61564545788538
 20
-81.97996276270146
 30
431.0
 10
67.73402990630693
 20
-79.90000000103517
 30
431.0
  0
LINE
  5
61
330
17
100
AcDbEntity
  8
0
100
AcDbLine
 10
31.61395192291038
 20
-102.1
 30
431.0
 11
66.26604368758778
 21
-102.1
 31
431.0
  0
SPLINE
  5
62
330
17
100
AcDbEntity
  8
0
100
AcDbSpline
 70
0
 71
1
 72
4
 73
2
 74
0
 40
0.0
 40
0.0
 40
1.0
 40
1.0
 10
31.61395193038204
 20
-105.90000060000003
 30
431.0
 10
31.61395193038204
 20
-102.09999939999999
 30
431.0
  0
LINE
  5
63
330
17
100
AcDbEntity
  8
0
100
AcDbLine
 10
31.61395192291038
 20
-105.9
 30
431.0
 11
65.9723511271907
 21
-105.9
 31
431.0
  0
SPLINE
  5
64
330
17
100
AcDbEntity
  8
0
100
AcDbSpline
 70
0
 71
8
 72
32
 73
23
 74
0
 40
0.0
 40
0.0
 40
0.0
 40
0.0
 40
0.0
 40
0.0
 40
0.0
 40
0.0
 40
0.0
 40
0.5463659565475939
 40
0.5463659565475939
 40
0.5463659565475939
 40
0.5463659565475939
 40
0.5463659565475939
 40
0.5463659565475939
 40
0.5463659565475939
 40
0.8493485761024627
 40
0.8493485761024627
 40
0.8493485761024627
 40
0.8493485761024627
 40
0.8493485761024627
 40
0.8493485761024627
 40
0.8493485761024627
 40
1.0
 40
1.0
 40
1.0
 40
1.0
 40
1.0
 40
1.0
 40
1.0
 40
1.0
 40
1.0
 10
63.986699386736994
 20
-128.09999999707523
 30
431.0
 10
64.13882949586815
 20
-126.58842618507802
 30
431.0
 10
64.28813847618211
 20
-125.07656893888924
 30
431.0
 10
64.43469460386922
 20
-123.56444125267554
 30
431.0
 10
64.57856003531712
 20
-122.05205462547565
 30
431.0
 10
64.71979146833475
 20
-120.53941913596262
 30
431.0
 10
64.85844065158156
 20
-119.02654350077486
 30
431.0
 10
64.9945548476266
 20
-117.51343512865105
 30
431.0
 10
65.20227658626092
 20
-115.16089308940532
 30
431.0
 10
65.27569368025215
 20
-114.32066358131422
 30
431.0
 10
65.34842714146211
 20
-113.47947817889133
 30
431.0
 10
65.42047547431741
 20
-112.63740340270188
 30
431.0
 10
65.49183718324407
 20
-111.79450577331589
 30
431.0
 10
65.56251077266741
 20
-110.95085181130825
 30
431.0
 10
65.63249474701207
 20
-110.10650803725875
 30
431.0
 10
65.73624195859884
 20
-108.84139973806623
 30
431.0
 10
65.77051405178602
 20
-108.4212435431542
 30
431.0
 10
65.80460463718963
 20
-108.0010725434068
 30
431.0
 10
65.83851423954178
 20
-107.58088687450285
 30
431.0
 10
65.87224329095876
 20
-107.16068666311503
 30
431.0
 10
65.90579219053174
 20
-106.74047203225675
 30
431.0
 10
65.93916132915851
 20
-106.3202431034941
 30
431.0
 10
65.97235109811662
 20
-105.89999999770382
 30
431.0
  0
LINE
  5
65
330
17
100
AcDbEntity
  8
0
100
AcDbLine
 10
31.61395192291038
 20
-128.1
 30
431.0
 11
63.986699415798014
 21
-128.1
 31
431.0
  0
SPLINE
  5
66
330
17
100
AcDbEntity
  8
0
100
AcDbSpline
 70
0
 71
1
 72
4
 73
2
 74
0
 40
0.0
 40
0.0
 40
1.0
 40
1.0
 10
31.61395193038204
 20
-131.9000006
 30
431.0
 10
31.61395193038204
 20
-128.09999939999992
 30
431.0
  0
LINE
  5
67
330
17
100
AcDbEntity
  8
0
100
AcDbLine
 10
31.61395192291038
 20
-131.9
 30
431.0
 11
63.59624608239274
 21
-131.9
 31
431.0
  0
SPLINE
  5
68
330
17
100
AcDbEntity
  8
0
100
AcDbSpline
 70
0
 71
8
 72
25
 73
16
 74
0
 40
0.0
 40
0.0
 40
0.0
 40
0.0
 40
0.0
 40
0.0
 40
0.0
 40
0.0
 40
0.0
 40
0.12005152714924443
 40
0.12005152714924443
 40
0.12005152714924443
 40
0.12005152714924443
 40
0.12005152714924443
 40
0.12005152714924443
 40
0.12005152714924443
 40
1.0
 40
1.0
 40
1.0
 40
1.0
 40
1.0
 40
1.0
 40
1.0
 40
1.0
 40
1.0
 10
60.94905087156414
 20
-154.1000000008318
 30
431.0
 10
60.99414307053439
 20
-153.76753003141795
 30
431.0
 10
61.03902363973956
 20
-153.4350312316978
 30
431.0
 10
61.08369464389304
 20
-153.10250401709055
 30
431.0
 10
61.128158099066624
 20
-152.76994878614724
 30
431.0
 10
61.172415974697884
 20
-152.43736592085565
 30
431.0
 10
61.21647019551241
 20
-152.1047557869329
 30
431.0
 10
61.26032264339935
 20
-151.77211873411187
 30
431.0
 10
61.62393747542875
 20
-149.0011116042204
 30
431.0
 10
61.93315484473493
 20
-146.56136834123998
 30
431.0
 10
62.23235034165042
 20
-144.1203622357913
 30
431.0
 10
62.522125623820415
 20
-141.67821102289878
 30
431.0
 10
62.80299120378717
 20
-139.23501665915552
 30
431.0
 10
63.07538665543576
 20
-136.7908675907573
 30
431.0
 10
63.33969382591937
 20
-134.34584023110295
 30
431.0
 10
63.59624612380338
 20
-131.90000000434367
 30
431.0
  0
LINE
  5
69
330
17
100
AcDbEntity
  8
0
100
AcDbLine
 10
31.613951922910353
 20
-154.1
 30
431.0
 11
60.949050865431246
 21
-154.1
 31
431.0
  0
SPLINE
  5
6A
330
17
100
AcDbEntity
  8
0
100
AcDbSpline
 70
0
 71
1
 72
4
 73
2
 74
0
 40
0.0
 40
0.0
 40
1.0
 40
1.0
 10
31.61395193038204
 20
-157.90000060000003
 30
431.0
 10
31.61395193038204
 20
-154.0999994
 30
431.0
  0
LINE
  5
6B
330
17
100
AcDbEntity
  8
0
100
AcDbLine
 10
31.61395192291038
 20
-157.9
 30
431.0
 11
60.420972504890784
 21
-157.9
 31
431.0
  0
SPLINE
  5
6C
330
17
100
AcDbEntity
  8
0
100
AcDbSpline
 70
0
 71
8
 72
25
 73
16
 74
0
 40
0.0
 40
0.0
 40
0.0
 40
0.0
 40
0.0
 40
0.0
 40
0.0
 40
0.0
 40
0.0
 40
0.48384404798961383
 40
0.48384404798961383
 40
0.48384404798961383
 40
0.48384404798961383
 40
0.48384404798961383
 40
0.48384404798961383
 40
0.48384404798961383
 40
1.0
 40
1.0
 40
1.0
 40
1.0
 40
1.0
 40
1.0
 40
1.0
 40
1.0
 40
1.0
 10
56.67997243726826
 20
-180.0999999953447
 30
431.0
 10
56.94982225020432
 20
-178.7652474879121
 30
431.0
 10
57.21184102720085
 20
-177.42890428352285
 30
431.0
 10
57.46664550532747
 20
-176.09115313961058
 30
431.0
 10
57.714749622937205
 20
-174.75214381693726
 30
431.0
 10
57.95659537304634
 20
-173.4119991762981
 30
431.0
 10
58.19256851011693
 20
-172.0708182635055
 30
431.0
 10
58.42300796074875
 20
-170.72867817880862
 30
431.0
 10
58.88846750081082
 20
-167.95290433704454
 30
431.0
 10
59.12276068445718
 20
-166.5191753253713
 30
431.0
 10
59.35146304048652
 20
-165.0845353844084
 30
431.0
 10
59.57489065872208
 20
-163.64905957106362
 30
431.0
 10
59.79332112200596
 20
-162.21281378411882
 30
431.0
 10
60.00700113683382
 20
-160.77585591421627
 30
431.0
 10
60.21615178549444
 20
-159.33823663430667
 30
431.0
 10
60.42097249453991
 20
-157.899999998526
 30
431.0
  0
LINE
  5
6D
330
17
100
AcDbEntity
  8
0
100
AcDbLine
 10
31.61395192291038
 20
-180.1
 30
431.0
 11
56.679972460294906
 21
-180.1
 31
431.0
  0
SPLINE
  5
6E
330
17
100
AcDbEntity
  8
0
100
AcDbSpline
 70
0
 71
1
 72
4
 73
2
 74
0
 40
0.0
 40
0.0
 40
1.0
 40
1.0
 10
31.61395193038204
 20
-183.9000006000001
 30
431.0
 10
31.61395193038204
 20
-180.09999939999994
 30
431.0
  0
LINE
  5
6F
330
17
100
AcDbEntity
  8
0
100
AcDbLine
 10
31.613951922910353
 20
-183.9
 30
431.0
 11
55.88092191335155
 21
-183.9
 31
431.0
  0
SPLINE
  5
70
330
17
100
AcDbEntity
  8
0
100
AcDbSpline
 70
0
 71
8
 72
46
 73
37
 74
0
 40
0.0
 40
0.0
 40
0.0
 40
0.0
 40
0.0
 40
0.0
 40
0.0
 40
0.0
 40
0.0
 40
0.2977374027288145
 40
0.2977374027288145
 40
0.2977374027288145
 40
0.2977374027288145
 40
0.2977374027288145
 40
0.2977374027288145
 40
0.2977374027288145
 40
0.4545660148192503
 40
0.4545660148192503
 40
0.4545660148192503
 40
0.4545660148192503
 40
0.4545660148192503
 40
0.4545660148192503
 40
0.4545660148192503
 40
0.6897732484570981
 40
0.6897732484570981
 40
0.6897732484570981
 40
0.6897732484570981
 40
0.6897732484570981
 40
0.6897732484570981
 40
0.6897732484570981
 40
0.961102114377088
 40
0.961102114377088
 40
0.961102114377088
 40
0.961102114377088
 40
0.961102114377088
 40
0.961102114377088
 40
0.961102114377088
 40
1.0
 40
1.0
 40
1.0
 40
1.0
 40
1.0
 40
1.0
 40
1.0
 40
1.0
 40
1.0
 10
48.79042938480406
 20
-206.10000001566027
 30
431.0
 10
49.14037350772956
 20
-205.41770997956377
 30
431.0
 10
49.47562057894617
 20
-204.72785636232499
 30
431.0
 10
49.797492632351094
 20
-204.03155014539738
 30
431.0
 10
50.10708835324823
 20
-203.32969497850718
 30
431.0
 10
50.40535989407323
 20
-202.6230231201541
 30
431.0
 10
50.69315040474187
 20
-201.91211280700412
 30
431.0
 10
50.97121359596096
 20
-201.1973973600979
 30
431.0
 10
51.381940425019884
 20
-200.1008644227431
 30
431.0
 10
51.52316242139939
 20
-199.71616975538112
 30
431.0
 10
51.66389423534207
 20
-199.3250423972308
 30
431.0
 10
51.80412745921354
 20
-198.92743241180062
 30
431.0
 10
51.94385368538237
 20
-198.5232898625904
 30
431.0
 10
52.08306450622025
 20
-198.11256481309076
 30
431.0
 10
52.221751514101946
 20
-197.69520732678373
 30
431.0
 10
52.5671070468706
 20
-196.63520416294088
 30
431.0
 10
52.77317200430428
 20
-195.9840018897368
 30
431.0
 10
52.97809571005743
 20
-195.31756401368438
 30
431.0
 10
53.18139738241833
 20
-194.63579211411474
 30
431.0
 10
53.38385436476745
 20
-193.93908849207367
 30
431.0
 10
53.58484883589456
 20
-193.22747501824324
 30
431.0
 10
53.78466263859103
 20
-192.5013438904849
 30
431.0
 10
54.21215223504639
 20
-190.90701688195418
 30
431.0
 10
54.43480630859835
 20
-190.05130908120861
 30
431.0
 10
54.651643012194626
 20
-189.19409270138615
 30
431.0
 10
54.86309313170607
 20
-188.33552595130064
 30
431.0
 10
55.069524581381216
 20
-187.47574160837647
 30
431.0
 10
55.271258594651876
 20
-186.61485103473873
 30
431.0
 10
55.46858003781508
 20
-185.75294671626477
 30
431.0
 10
55.6894336512175
 20
-184.76640552545194
 30
431.0
 10
55.71703991152005
 20
-184.64268869132246
 30
431.0
 10
55.7445613741655
 20
-184.51895304188193
 30
431.0
 10
55.77199877231625
 20
-184.39519879317757
 30
431.0
 10
55.79935282602651
 20
-184.27142615771152
 30
431.0
 10
55.82662424262311
 20
-184.14763534451635
 30
431.0
 10
55.85381371707195
 20
-184.02382655922787
 30
431.0
 10
55.880921932330345
 20
-183.90000000415486
 30
431.0
  0
LINE
  5
71
330
17
100
AcDbEntity
  8
0
100
AcDbLine
 10
31.613951922910353
 20
-206.1
 30
431.0
 11
48.79042935427111
 21
-206.1
 31
431.0
  0
SPLINE
  5
72
330
17
100
AcDbEntity
  8
0
100
AcDbSpline
 70
0
 71
1
 72
4
 73
2
 74
0
 40
0.0
 40
0.0
 40
1.0
 40
1.0
 10
31.61395193038204
 20
-209.90000060000008
 30
431.0
 10
31.61395193038204
 20
-206.09999939999992
 30
431.0
  0
LINE
  5
73
330
17
100
AcDbEntity
  8
0
100
AcDbLine
 10
31.613951922910353
 20
-209.9
 30
431.0
 11
46.52329172431961
 21
-209.9
 31
431.0
  0
SPLINE
  5
74
330
17
100
AcDbEntity
  8
0
100
AcDbSpline
 70
0
 71
8
 72
74
 73
65
 74
0
 40
0.0
 40
0.0
 40
0.0
 40
0.0
 40
0.0
 40
0.0
 40
0.0
 40
0.0
 40
0.0
 40
0.021367156456432262
 40
0.021367156456432262
 40
0.021367156456432262
 40
0.021367156456432262
 40
0.021367156456432262
 40
0.021367156456432262
 40
0.021367156456432262
 40
0.040778674945155746
 40
0.040778674945155746
 40
0.040778674945155746
 40
0.040778674945155746
 40
0.040778674945155746
 40
0.040778674945155746
 40
0.040778674945155746
 40
0.05340297662842253
 40
0.05340297662842253
 40
0.05340297662842253
 40
0.05340297662842253
 40
0.05340297662842253
 40
0.05340297662842253
 40
0.05340297662842253
 40
0.05755425206683062
 40
0.05755425206683062
 40
0.05755425206683062
 40
0.05755425206683062
 40
0.05755425206683062
 40
0.05755425206683062
 40
0.05755425206683062
 40
0.06208297319146094
 40
0.06208297319146094
 40
0.06208297319146094
 40
0.06208297319146094
 40
0.06208297319146094
 40
0.06208297319146094
 40
0.06208297319146094
 40
0.06779359087087247
 40
0.06779359087087247
 40
0.06779359087087247
 40
0.06779359087087247
 40
0.06779359087087247
 40
0.06779359087087247
 40
0.06779359087087247
 40
0.07785710432173254
 40
0.07785710432173254
 40
0.07785710432173254
 40
0.07785710432173254
 40
0.07785710432173254
 40
0.07785710432173254
 40
0.07785710432173254
 40
0.085482682696609
 40
0.085482682696609
 40
0.085482682696609
 40
0.085482682696609
 40
0.085482682696609
 40
0.085482682696609
 40
0.085482682696609
 40
0.09145295258521455
 40
0.09145295258521455
 40
0.09145295258521455
 40
0.09145295258521455
 40
0.09145295258521455
 40
0.09145295258521455
 40
0.09145295258521455
 40
0.09145295258521455
 40
0.09145295258521455
 10
18.285561933722565
 20
-198.354273917862
 30
431.0
 10
18.686913799857773
 20
-199.43067407635345
 30
431.0
 10
19.124640869834128
 20
-200.49332732094544
 30
431.0
 10
19.598589460537244
 20
-201.5408723400114
 30
431.0
 10
20.108747300840683
 20
-202.57166503497623
 30
431.0
 10
20.65524742378477
 20
-203.58377400730416
 30
431.0
 10
21.238376232110095
 20
-204.57497454210824
 30
431.0
 10
21.858636661264025
 20
-205.5427127757302
 30
431.0
 10
23.114948648973616
 20
-207.33915791103624
 30
431.0
 10
23.744075784159886
 20
-208.17207836433806
 30
431.0
 10
24.40508816191919
 20
-208.9808216968174
 30
431.0
 10
25.098745746344818
 20
-209.7626426041297
 30
431.0
 10
25.82575467559691
 20
-210.51401598033792
 30
431.0
 10
26.586746747273295
 20
-211.23065348187853
 30
431.0
 10
27.382326883976063
 20
-211.9074537695644
 30
431.0
 10
28.753646148489892
 20
-212.94860064148332
 30
431.0
 10
29.308789755905856
 20
-213.33930268813847
 30
431.0
 10
29.87882910578044
 20
-213.70873764672496
 30
431.0
 10
30.46371655214072
 20
-214.0548883068908
 30
431.0
 10
31.063183115720125
 20
-214.37545857019535
 30
431.0
 10
31.67671120278264
 20
-214.6679233067497
 30
431.0
 10
32.30349410211659
 20
-214.92960334786775
 30
431.0
 10
33.15245055388377
 20
-215.23282917917413
 30
431.0
 10
33.36304344093152
 20
-215.30397627034765
 30
431.0
 10
33.574147494357604
 20
-215.37112197896215
 30
431.0
 10
33.78571653927982
 20
-215.4343679233133
 30
431.0
 10
33.99771258474
 20
-215.49364474689628
 30
431.0
 10
34.21012625880714
 20
-215.54875908344644
 30
431.0
 10
34.4229577168699
 20
-215.59956549071367
 30
431.0
 10
34.86873262900083
 20
-215.69656528841242
 30
431.0
 10
35.10176056217287
 20
-215.7419138961906
 30
431.0
 10
35.3352084368395
 20
-215.78183368133972
 30
431.0
 10
35.56904787662236
 20
-215.8161561082764
 30
431.0
 10
35.80325050514678
 20
-215.8447126414408
 30
431.0
 10
36.03778794604169
 20
-215.86733474529706
 30
431.0
 10
36.27263182293971
 20
-215.883853884333
 30
431.0
 10
36.8042373473724
 20
-215.90702356998628
 30
431.0
 10
37.10118589620038
 20
-215.9099745707599
 30
431.0
 10
37.39818539613472
 20
-215.90259820562898
 30
431.0
 10
37.694800670984556
 20
-215.88460458452457
 30
431.0
 10
37.990576438870875
 20
-215.855784201138
 30
431.0
 10
38.28503837290297
 20
-215.81602188699665
 30
431.0
 10
38.57769416185494
 20
-215.76531076554062
 30
431.0
 10
39.3796858098498
 20
-215.59530954957577
 30
431.0
 10
39.8843716990414
 20
-215.45316167398116
 30
431.0
 10
40.379110330372306
 20
-215.27793776813857
 30
431.0
 10
40.86174201731807
 20
-215.0712908203285
 30
431.0
 10
41.330772605399716
 20
-214.8355685385128
 30
431.0
 10
41.78523627441676
 20
-214.5735033014313
 30
431.0
 10
42.224584807937376
 20
-214.28795862805384
 30
431.0
 10
42.96991356425535
 20
-213.74973183742964
 30
431.0
 10
43.28255465910854
 20
-213.5057479572264
 30
431.0
 10
43.58659102155844
 20
-213.25089811977017
 30
431.0
 10
43.88217265217013
 20
-212.98622548891956
 30
431.0
 10
44.16951767733523
 20
-212.71269460726853
 30
431.0
 10
44.4488941923061
 20
-212.43117094800385
 30
431.0
 10
44.72060839059824
 20
-212.14240769613775
 30
431.0
 10
45.1919974650845
 20
-211.61578827709076
 30
431.0
 10
45.394465923554506
 20
-211.38053380833765
 30
431.0
 10
45.5925792472934
 20
-211.14157289836723
 30
431.0
 10
45.786501813712405
 20
-210.89917903685506
 30
431.0
 10
45.97638923581239
 20
-210.6536039186464
 30
431.0
 10
46.16238971847663
 20
-210.4050784171229
 30
431.0
 10
46.344645108522286
 20
-210.15381333546878
 30
431.0
 10
46.52329172627673
 20
-209.90000000137752
 30
431.0
  0
SPLINE
  5
75
330
17
100
AcDbEntity
  8
0
100
AcDbSpline
 70
0
 71
8
 72
389
 73
380
 74
0
 40
0.0
 40
0.0
 40
0.0
 40
0.0
 40
0.0
 40
0.0
 40
0.0
 40
0.0
 40
0.0
 40
0.002345716423668887
 40
0.002345716423668887
 40
0.002345716423668887
 40
0.002345716423668887
 40
0.002345716423668887
 40
0.002345716423668887
 40
0.002345716423668887
 40
0.004705389753182838
 40
0.004705389753182838
 40
0.004705389753182838
 40
0.004705389753182838
 40
0.004705389753182838
 40
0.004705389753182838
 40
0.004705389753182838
 40
0.007848475892702593
 40
0.007848475892702593
 40
0.007848475892702593
 40
0.007848475892702593
 40
0.007848475892702593
 40
0.007848475892702593
 40
0.007848475892702593
 40
0.010991562032213522
 40
0.010991562032213522
 40
0.010991562032213522
 40
0.010991562032213522
 40
0.010991562032213522
 40
0.010991562032213522
 40
0.010991562032213522
 40
0.015791553694133143
 40
0.015791553694133143
 40
0.015791553694133143
 40
0.015791553694133143
 40
0.015791553694133143
 40
0.015791553694133143
 40
0.015791553694133143
 40
0.023910914862677254
 40
0.023910914862677254
 40
0.023910914862677254
 40
0.023910914862677254
 40
0.023910914862677254
 40
0.023910914862677254
 40
0.023910914862677254
 40
0.04077565875319961
 40
0.04077565875319961
 40
0.04077565875319961
 40
0.04077565875319961
 40
0.04077565875319961
 40
0.04077565875319961
 40
0.04077565875319961
 40
0.0740106211337988
 40
0.0740106211337988
 40
0.0740106211337988
 40
0.0740106211337988
 40
0.0740106211337988
 40
0.0740106211337988
 40
0.0740106211337988
 40
0.0956066010236952
 40
0.0956066010236952
 40
0.0956066010236952
 40
0.0956066010236952
 40
0.0956066010236952
 40
0.0956066010236952
 40
0.0956066010236952
 40
0.1190631334850378
 40
0.1190631334850378
 40
0.1190631334850378
 40
0.1190631334850378
 40
0.1190631334850378
 40
0.1190631334850378
 40
0.1190631334850378
 40
0.20061715517763973
 40
0.20061715517763973
 40
0.20061715517763973
 40
0.20061715517763973
 40
0.20061715517763973
 40
0.20061715517763973
 40
0.20061715517763973
 40
0.29864046308115877
 40
0.29864046308115877
 40
0.29864046308115877
 40
0.29864046308115877
 40
0.29864046308115877
 40
0.29864046308115877
 40
0.29864046308115877
 40
0.38948334450808697
 40
0.38948334450808697
 40
0.38948334450808697
 40
0.38948334450808697
 40
0.38948334450808697
 40
0.38948334450808697
 40
0.38948334450808697
 40
0.48032754601810035
 40
0.48032754601810035
 40
0.48032754601810035
 40
0.48032754601810035
 40
0.48032754601810035
 40
0.48032754601810035
 40
0.48032754601810035
 40
0.5629302131990839
 40
0.5629302131990839
 40
0.5629302131990839
 40
0.5629302131990839
 40
0.5629302131990839
 40
0.5629302131990839
 40
0.5629302131990839
 40
0.6373108795237961
 40
0.6373108795237961
 40
0.6373108795237961
 40
0.6373108795237961
 40
0.6373108795237961
 40
0.6373108795237961
 40
0.6373108795237961
 40
0.6886585533334816
 40
0.6886585533334816
 40
0.6886585533334816
 40
0.6886585533334816
 40
0.6886585533334816
 40
0.6886585533334816
 40
0.6886585533334816
 40
0.7081048242280058
 40
0.7081048242280058
 40
0.7081048242280058
 40
0.7081048242280058
 40
0.7081048242280058
 40
0.7081048242280058
 40
0.7081048242280058
 40
0.726954287963253
 40
0.726954287963253
 40
0.726954287963253
 40
0.726954287963253
 40
0.726954287963253
 40
0.726954287963253
 40
0.726954287963253
 40
0.7489728717651931
 40
0.7489728717651931
 40
0.7489728717651931
 40
0.7489728717651931
 40
0.7489728717651931
 40
0.7489728717651931
 40
0.7489728717651931
 40
0.7604266796007002
 40
0.7604266796007002
 40
0.7604266796007002
 40
0.7604266796007002
 40
0.7604266796007002
 40
0.7604266796007002
 40
0.7604266796007002
 40
0.7667960409419817
 40
0.7667960409419817
 40
0.7667960409419817
 40
0.7667960409419817
 40
0.7667960409419817
 40
0.7667960409419817
 40
0.7667960409419817
 40
0.7722385402405247
 40
0.7722385402405247
 40
0.7722385402405247
 40
0.7722385402405247
 40
0.7722385402405247
 40
0.7722385402405247
 40
0.7722385402405247
 40
0.775275843383759
 40
0.775275843383759
 40
0.775275843383759
 40
0.775275843383759
 40
0.775275843383759
 40
0.775275843383759
 40
0.775275843383759
 40
0.7767946081743187
 40
0.7767946081743187
 40
0.7767946081743187
 40
0.7767946081743187
 40
0.7767946081743187
 40
0.7767946081743187
 40
0.7767946081743187
 40
0.7775886340439232
 40
0.7775886340439232
 40
0.7775886340439232
 40
0.7775886340439232
 40
0.7775886340439232
 40
0.7775886340439232
 40
0.7775886340439232
 40
0.7783473198048703
 40
0.7783473198048703
 40
0.7783473198048703
 40
0.7783473198048703
 40
0.7783473198048703
 40
0.7783473198048703
 40
0.7783473198048703
 40
0.7794126567828012
 40
0.7794126567828012
 40
0.7794126567828012
 40
0.7794126567828012
 40
0.7794126567828012
 40
0.7794126567828012
 40
0.7794126567828012
 40
0.780240285431997
 40
0.780240285431997
 40
0.780240285431997
 40
0.780240285431997
 40
0.780240285431997
 40
0.780240285431997
 40
0.780240285431997
 40
0.7810679140811848
 40
0.7810679140811848
 40
0.7810679140811848
 40
0.7810679140811848
 40
0.7810679140811848
 40
0.7810679140811848
 40
0.7810679140811848
 40
0.7823684733870373
 40
0.7823684733870373
 40
0.7823684733870373
 40
0.7823684733870373
 40
0.7823684733870373
 40
0.7823684733870373
 40
0.7823684733870373
 40
0.783787265357059
 40
0.783787265357059
 40
0.783787265357059
 40
0.783787265357059
 40
0.783787265357059
 40
0.783787265357059
 40
0.783787265357059
 40
0.7862069263838675
 40
0.7862069263838675
 40
0.7862069263838675
 40
0.7862069263838675
 40
0.7862069263838675
 40
0.7862069263838675
 40
0.7862069263838675
 40
0.7909832420319849
 40
0.7909832420319849
 40
0.7909832420319849
 40
0.7909832420319849
 40
0.7909832420319849
 40
0.7909832420319849
 40
0.7909832420319849
 40
0.8003958100296185
 40
0.8003958100296185
 40
0.8003958100296185
 40
0.8003958100296185
 40
0.8003958100296185
 40
0.8003958100296185
 40
0.8003958100296185
 40
0.8065120825327131
 40
0.8065120825327131
 40
0.8065120825327131
 40
0.8065120825327131
 40
0.8065120825327131
 40
0.8065120825327131
 40
0.8065120825327131
 40
0.8131553271051296
 40
0.8131553271051296
 40
0.8131553271051296
 40
0.8131553271051296
 40
0.8131553271051296
 40
0.8131553271051296
 40
0.8131553271051296
 40
0.8362543473433309
 40
0.8362543473433309
 40
0.8362543473433309
 40
0.8362543473433309
 40
0.8362543473433309
 40
0.8362543473433309
 40
0.8362543473433309
 40
0.8640237066597749
 40
0.8640237066597749
 40
0.8640237066597749
 40
0.8640237066597749
 40
0.8640237066597749
 40
0.8640237066597749
 40
0.8640237066597749
 40
0.889766186130636
 40
0.889766186130636
 40
0.889766186130636
 40
0.889766186130636
 40
0.889766186130636
 40
0.889766186130636
 40
0.889766186130636
 40
0.9155176739141703
 40
0.9155176739141703
 40
0.9155176739141703
 40
0.9155176739141703
 40
0.9155176739141703
 40
0.9155176739141703
 40
0.9155176739141703
 40
0.9389391369023519
 40
0.9389391369023519
 40
0.9389391369023519
 40
0.9389391369023519
 40
0.9389391369023519
 40
0.9389391369023519
 40
0.9389391369023519
 40
0.9600332155230306
 40
0.9600332155230306
 40
0.9600332155230306
 40
0.9600332155230306
 40
0.9600332155230306
 40
0.9600332155230306
 40
0.9600332155230306
 40
0.9745968740093559
 40
0.9745968740093559
 40
0.9745968740093559
 40
0.9745968740093559
 40
0.9745968740093559
 40
0.9745968740093559
 40
0.9745968740093559
 40
0.980112556018053
 40
0.980112556018053
 40
0.980112556018053
 40
0.980112556018053
 40
0.980112556018053
 40
0.980112556018053
 40
0.980112556018053
 40
0.9854589603698752
 40
0.9854589603698752
 40
0.9854589603698752
 40
0.9854589603698752
 40
0.9854589603698752
 40
0.9854589603698752
 40
0.9854589603698752
 40
0.9917042414779242
 40
0.9917042414779242
 40
0.9917042414779242
 40
0.9917042414779242
 40
0.9917042414779242
 40
0.9917042414779242
 40
0.9917042414779242
 40
0.9949529588628945
 40
0.9949529588628945
 40
0.9949529588628945
 40
0.9949529588628945
 40
0.9949529588628945
 40
0.9949529588628945
 40
0.9949529588628945
 40
0.9967595395616783
 40
0.9967595395616783
 40
0.9967595395616783
 40
0.9967595395616783
 40
0.9967595395616783
 40
0.9967595395616783
 40
0.9967595395616783
 40
0.9983032210446307
 40
0.9983032210446307
 40
0.9983032210446307
 40
0.9983032210446307
 40
0.9983032210446307
 40
0.9983032210446307
 40
0.9983032210446307
 40
0.999164680527833
 40
0.999164680527833
 40
0.999164680527833
 40
0.999164680527833
 40
0.999164680527833
 40
0.999164680527833
 40
0.999164680527833
 40
0.9995953807400281
 40
0.9995953807400281
 40
0.9995953807400281
 40
0.9995953807400281
 40
0.9995953807400281
 40
0.9995953807400281
 40
0.9995953807400281
 40
0.9997513309517423
 40
0.9997513309517423
 40
0.9997513309517423
 40
0.9997513309517423
 40
0.9997513309517423
 40
0.9997513309517423
 40
0.9997513309517423
 40
1.0
 40
1.0
 40
1.0
 40
1.0
 40
1.0
 40
1.0
 40
1.0
 40
1.0
 40
1.0
 10
18.285561933722573
 20
198.35427391786203
 30
431.0
 10
18.285426078539146
 20
198.35441113813675
 30
431.0
 10
18.285917826716084
 20
198.3536570590154
 30
431.0
 10
18.28506749015832
 20
198.3558087658841
 30
431.0
 10
18.285979179736124
 20
198.3523033839977
 30
431.0
 10
18.285288100106612
 20
198.35072247081865
 30
431.0
 10
18.28552554074596
 20
198.34783349730498
 30
431.0
 10
18.28547721810427
 20
198.3481622818337
 30
431.0
 10
18.285249558263697
 20
198.33173822554141
 30
431.0
 10
18.28509538009115
 20
198.32061535479102
 30
431.0
 10
18.284905873040557
 20
198.30694375389504
 30
431.0
 10
18.28469424386256
 20
198.29167619727087
 30
431.0
 10
18.284468262779058
 20
198.27537325137843
 30
431.0
 10
18.28423411686439
 20
198.258481270524
 30
431.0
 10
18.283994246865007
 20
198.24117633713547
 30
431.0
 10
18.283420609215334
 20
198.19979241529
 30
431.0
 10
18.283047857590837
 20
198.1729010072651
 30
431.0
 10
18.282626385675336
 20
198.14249477290943
 30
431.0
 10
18.28215257236612
 20
198.10831247513102
 30
431.0
 10
18.281622796560477
 20
198.07009287683786
 30
431.0
 10
18.281033437155696
 20
198.02757474093778
 30
431.0
 10
18.28038087304907
 20
197.9804968303383
 30
431.0
 10
18.278942093226693
 20
197.87669898555546
 30
431.0
 10
18.278155877510944
 20
197.81997905137288
 30
431.0
 10
18.27729921488793
 20
197.75817686830686
 30
431.0
 10
18.27636848425494
 20
197.69103119926507
 30
431.0
 10
18.275360064509265
 20
197.61828080715523
 30
431.0
 10
18.274270334548188
 20
197.53966445488535
 30
431.0
 10
18.273095673269
 20
197.4549209053634
 30
431.0
 10
18.269903331648823
 20
197.22461591023497
 30
431.0
 10
18.267970797116032
 20
197.0851971358307
 30
431.0
 10
18.266036077499862
 20
196.9456207230334
 30
431.0
 10
18.264099819246358
 20
196.80593330837084
 30
431.0
 10
18.262162455437082
 20
196.66616613563383
 30
431.0
 10
18.260224262383975
 20
196.52633913878898
 30
431.0
 10
18.25828532489124
 20
196.38645843586042
 30
431.0
 10
18.253064549047544
 20
196.00981617813642
 30
431.0
 10
18.24978174874204
 20
195.77298522508946
 30
431.0
 10
18.246497740169254
 20
195.5360671040471
 30
431.0
 10
18.243212834843806
 20
195.29908428861742
 30
431.0
 10
18.23992724775674
 20
195.06205228888228
 30
431.0
 10
18.236641122645736
 20
194.82498147449397
 30
431.0
 10
18.233354528815337
 20
194.5878768453063
 30
431.0
 10
18.223239958243898
 20
193.85818171761076
 30
431.0
 10
18.216410759771342
 20
193.3655030797787
 30
431.0
 10
18.209580432449812
 20
192.87274300339772
 30
431.0
 10
18.202749286376513
 20
192.37992385987778
 30
431.0
 10
18.195917531979912
 20
191.88706083010902
 30
431.0
 10
18.18908530686472
 20
191.39416384126113
 30
431.0
 10
18.182252668148344
 20
190.90123701403476
 30
431.0
 10
18.161953895852537
 20
189.43682336069858
 30
431.0
 10
18.148486853490528
 20
188.46527097232283
 30
431.0
 10
18.135018920842366
 20
187.4936543560828
 30
431.0
 10
18.121550341726447
 20
186.52199110171588
 30
431.0
 10
18.10808128166612
 20
185.5502931505937
 30
431.0
 10
18.094611849007844
 20
184.5785683191754
 30
431.0
 10
18.081142089159425
 20
183.6068198832665
 30
431.0
 10
18.0589191885706
 20
182.00359390660358
 30
431.0
 10
18.0501665786388
 20
181.37213126520413
 30
431.0
 10
18.041411842773527
 20
180.74066108132868
 30
431.0
 10
18.032660424129997
 20
180.10918465947114
 30
431.0
 10
18.02391393708065
 20
179.4777027696421
 30
431.0
 10
18.01517231150094
 20
178.84621589029723
 30
431.0
 10
18.006438183103956
 20
178.2147246499297
 30
431.0
 10
17.98823408380389
 20
176.89732901245242
 30
431.0
 10
17.978558010023303
 20
176.19639655242912
 30
431.0
 10
17.96868949219937
 20
175.48069338841634
 30
431.0
 10
17.95863421924256
 20
174.75048093655099
 30
431.0
 10
17.948397880063347
 20
174.00602061296996
 30
431.0
 10
17.937986163572216
 20
173.24757383381018
 30
431.0
 10
17.927404758679643
 20
172.47540201520837
 30
431.0
 10
17.879299572169923
 20
168.958257558601
 30
431.0
 10
17.842182832428882
 20
166.2267079459937
 30
431.0
 10
17.805346961167114
 20
163.49512870267162
 30
431.0
 10
17.768813522714233
 20
160.76352592176696
 30
431.0
 10
17.732600432107745
 20
158.03190380496866
 30
431.0
 10
17.69672444272747
 20
155.30026527643776
 30
431.0
 10
17.661200307240964
 20
152.56861181525474
 30
431.0
 10
17.583786813819746
 20
146.553634446741
 30
431.0
 10
17.54206073600869
 20
143.27030546229676
 30
431.0
 10
17.500891448801024
 20
139.98695954991052
 30
431.0
 10
17.46030527028677
 20
136.70359842858477
 30
431.0
 10
17.420329764080577
 20
133.42022335679616
 30
431.0
 10
17.380994750658015
 20
130.13683528096374
 30
431.0
 10
17.342333130368523
 20
126.85343490230535
 30
431.0
 10
17.269209946335252
 20
120.52712770991619
 30
431.0
 10
17.23464812538485
 20
117.48422268458236
 30
431.0
 10
17.200725436676525
 20
114.4413080014062
 30
431.0
 10
17.167473807754813
 20
111.39838401311106
 30
431.0
 10
17.134928654768796
 20
108.35545101685965
 30
431.0
 10
17.10312982493475
 20
105.31250926129495
 30
431.0
 10
17.072122538998855
 20
102.26955895358107
 30
431.0
 10
17.01179369006983
 20
96.18359736056155
 30
431.0
 10
16.98247395585925
 20
93.1405861022966
 30
431.0
 10
16.9539476072044
 20
90.0975676860708
 30
431.0
 10
16.92616940051978
 20
87.05454321584268
 30
431.0
 10
16.899099446275265
 20
84.01151373055256
 30
431.0
 10
16.872702282773336
 20
80.96848022956735
 30
431.0
 10
16.8469459499262
 20
77.9254436981252
 30
431.0
 10
16.798937361345764
 20
72.11543599601718
 30
431.0
 10
16.776579236021256
 20
69.34846523333617
 30
431.0
 10
16.7547047374023
 20
66.58149357656637
 30
431.0
 10
16.73329383276101
 20
63.814521831099704
 30
431.0
 10
16.71232808974103
 20
61.04755088486971
 30
431.0
 10
16.69179032554368
 20
58.28058174068842
 30
431.0
 10
16.67166422185803
 20
55.51361557194161
 30
431.0
 10
16.634167480732916
 20
50.25510640742843
 30
431.0
 10
16.61672197733794
 20
47.763562818085006
 30
431.0
 10
16.599585759752962
 20
45.27202388305368
 30
431.0
 10
16.582747556084506
 20
42.78049080052833
 30
431.0
 10
16.566195854011646
 20
40.28896525819137
 30
431.0
 10
16.549918750101487
 20
37.79744947304503
 30
431.0
 10
16.53390306918579
 20
35.30594641558224
 30
431.0
 10
16.507243932342078
 20
31.09449734329902
 30
431.0
 10
16.496472693960673
 20
29.374543254222488
 30
431.0
 10
16.485811994808735
 20
27.65459898805189
 30
431.0
 10
16.47525559347525
 20
25.934666107397447
 30
431.0
 10
16.46479481908129
 20
24.214747609363187
 30
431.0
 10
16.454419200920928
 20
22.494847769477026
 30
431.0
 10
16.444114367422706
 20
20.77497274920292
 30
431.0
 10
16.429965192187666
 20
18.403800017413857
 30
431.0
 10
16.426176044516254
 20
17.76774544893135
 30
431.0
 10
16.422483836180742
 20
17.147577624318956
 30
431.0
 10
16.418896096773636
 20
16.5436634060124
 30
431.0
 10
16.415396487101187
 20
15.956132190179176
 30
431.0
 10
16.411998823673734
 20
15.38486998553509
 30
431.0
 10
16.408694308894678
 20
14.82952527527118
 30
431.0
 10
16.40236668835133
 20
13.766059336978005
 30
431.0
 10
16.399252226899126
 20
13.24262028941669
 30
431.0
 10
16.39613781320208
 20
12.719189267934913
 30
431.0
 10
16.393023452817975
 20
12.195767206611785
 30
431.0
 10
16.389909152950327
 20
11.672355316125442
 30
431.0
 10
16.386794922822673
 20
11.148955146649563
 30
431.0
 10
16.383680774052777
 20
10.62556865074991
 30
431.0
 10
16.37692910891874
 20
9.490834693868031
 30
431.0
 10
16.373291647736547
 20
8.879496507163331
 30
431.0
 10
16.369654341882438
 20
8.268184426030196
 30
431.0
 10
16.366017213702765
 20
7.656902206146384
 30
431.0
 10
16.362380312762856
 20
7.045658177833374
 30
431.0
 10
16.358743714043737
 20
6.434464942955827
 30
431.0
 10
16.355107527199277
 20
5.823340930716032
 30
431.0
 10
16.34958074887736
 20
4.894470361821373
 30
431.0
 10
16.34768975037577
 20
4.576655397726562
 30
431.0
 10
16.345798948531513
 20
4.258873485287449
 30
431.0
 10
16.34390837138616
 20
3.94112933738586
 30
431.0
 10
16.342018082361328
 20
3.6234336131155622
 30
431.0
 10
16.340128177630458
 20
3.30580247608097
 30
431.0
 10
16.338238798012323
 20
2.9882595933141616
 30
431.0
 10
16.33529994383231
 20
2.4943343813582004
 30
431.0
 10
16.334302585398344
 20
2.326711067738971
 30
431.0
 10
16.333356556301794
 20
2.167714535958851
 30
431.0
 10
16.33246030324773
 20
2.0170837279706677
 30
431.0
 10
16.331612272941207
 20
1.8745575857271013
 30
431.0
 10
16.330810912087284
 20
1.7398750511806855
 30
431.0
 10
16.330054667391018
 20
1.6127750662838027
 30
431.0
 10
16.328733012354125
 20
1.3906481065083618
 30
431.0
 10
16.32812444196665
 20
1.288367340183683
 30
431.0
 10
16.32751625576683
 20
1.1861511432592096
 30
431.0
 10
16.326908491187837
 20
1.0840058069666156
 30
431.0
 10
16.326301298339487
 20
0.9819565598835815
 30
431.0
 10
16.325694914845986
 20
0.8800433388956037
 30
431.0
 10
16.325089696406266
 20
0.7783259252948547
 30
431.0
 10
16.32414962495116
 20
0.6203306780749642
 30
431.0
 10
16.323814003031103
 20
0.5639236167687045
 30
431.0
 10
16.32347910566092
 20
0.5076383284282997
 30
431.0
 10
16.32314501972079
 20
0.45148941523859776
 30
431.0
 10
16.322811893817644
 20
0.3955018524977163
 30
431.0
 10
16.322480744367724
 20
0.3398464670954411
 30
431.0
 10
16.322152510230385
 20
0.28468105024776946
 30
431.0
 10
16.321669010024902
 20
0.2034204885302131
 30
431.0
 10
16.321511899512746
 20
0.17701535299497095
 30
431.0
 10
16.32135667889996
 20
0.15092784756632227
 30
431.0
 10
16.32120273439181
 20
0.12505481384783934
 30
431.0
 10
16.321051960825606
 20
0.0997147113512824
 30
431.0
 10
16.320907633549925
 20
0.07545801959324194
 30
431.0
 10
16.320776337775392
 20
0.053391496602813504
 30
431.0
 10
16.32061193630119
 20
0.025760988923423156
 30
431.0
 10
16.32056165260767
 20
0.01730994560909238
 30
431.0
 10
16.32052091884708
 20
0.010463933482306231
 30
431.0
 10
16.320491602384827
 20
0.005536795578223064
 30
431.0
 10
16.320473411101215
 20
0.002479436128190571
 30
431.0
 10
16.320464100419937
 20
0.0009146152988748213
 30
431.0
 10
16.320460347665776
 20
0.000283900136594184
 30
431.0
 10
16.32045794426609
 20
-0.00012003269935334515
 30
431.0
 10
16.32045959836188
 20
6.705280922147949e-05
 30
431.0
 10
16.32045705035117
 20
0.00019788456542002564
 30
431.0
 10
16.320459017790363
 20
-0.00014200745877701593
 30
431.0
 10
16.320467767627704
 20
-0.001429660419223211
 30
431.0
 10
16.320482895870086
 20
-0.004110796358432367
 30
431.0
 10
16.320508815310653
 20
-0.008429725107845343
 30
431.0
 10
16.320592638949897
 20
-0.022517735687841878
 30
431.0
 10
16.320658755431875
 20
-0.03362975260955636
 30
431.0
 10
16.320740030516745
 20
-0.04728943459781476
 30
431.0
 10
16.32083080652552
 20
-0.06254591098178253
 30
431.0
 10
16.32092774715735
 20
-0.07883845874744111
 30
431.0
 10
16.321028198817885
 20
-0.0957210955495782
 30
431.0
 10
16.321131110007606
 20
-0.11301709871108301
 30
431.0
 10
16.32131863125895
 20
-0.1445332843206586
 30
431.0
 10
16.321407200806966
 20
-0.1594189268532956
 30
431.0
 10
16.321502661548656
 20
-0.17546275352310253
 30
431.0
 10
16.321605321805865
 20
-0.1927165831439006
 30
431.0
 10
16.32171548990046
 20
-0.21123223452950413
 30
431.0
 10
16.32183347415428
 20
-0.2310615264937204
 30
431.0
 10
16.321959582889182
 20
-0.2522562778503499
 30
431.0
 10
16.322228665964886
 20
-0.2974803369758091
 30
431.0
 10
16.322371640305676
 20
-0.321509644744974
 30
431.0
 10
16.322523355771267
 20
-0.3470080495342264
 30
431.0
 10
16.322684120683505
 20
-0.3740273701572164
 30
431.0
 10
16.32285424336425
 20
-0.40261942542769746
 30
431.0
 10
16.32303403213536
 20
-0.4328360341595275
 30
431.0
 10
16.32322379531869
 20
-0.46472901516666804
 30
431.0
 10
16.323738199106284
 20
-0.5511834576999916
 30
431.0
 10
16.324077949034088
 20
-0.608284302051012
 30
431.0
 10
16.324444287452117
 20
-0.6698538014855363
 30
431.0
 10
16.324838410793
 20
-0.7360930371729824
 30
431.0
 10
16.32526151548935
 20
-0.8072030902828972
 30
431.0
 10
16.325714797973784
 20
-0.8833850419849554
 30
431.0
 10
16.32619945467893
 20
-0.9648399734489602
 30
431.0
 10
16.32728093006484
 20
-1.146600593913121
 30
431.0
 10
16.327883939861533
 20
-1.24794680689112
 30
431.0
 10
16.32852726472241
 20
-1.356068662826644
 30
431.0
 10
16.329212457942432
 20
-1.471227219767339
 30
431.0
 10
16.329941072816535
 20
-1.593683535760694
 30
431.0
 10
16.33071466263966
 20
-1.7236986688540372
 30
431.0
 10
16.331534780706757
 20
-1.8615336770945419
 30
431.0
 10
16.33388364047614
 20
-2.2563001365330244
 30
431.0
 10
16.33536521446608
 20
-2.5053042388629265
 30
431.0
 10
16.336847404599204
 20
-2.754411894743477
 30
431.0
 10
16.338330041243474
 20
-3.003594594484383
 30
431.0
 10
16.339813009245315
 20
-3.252832984587563
 30
431.0
 10
16.341296233349592
 20
-3.502114417178852
 30
431.0
 10
16.34277968261037
 20
-3.7514336911700426
 30
431.0
 10
16.347192062314555
 20
-4.493010321763791
 30
431.0
 10
16.35012148908568
 20
-4.985351094808763
 30
431.0
 10
16.35305140082114
 20
-5.477773374470079
 30
431.0
 10
16.355981664303098
 20
-5.97025477122628
 30
431.0
 10
16.3589121891277
 20
-6.462780091128881
 30
431.0
 10
16.361842916177206
 20
-6.9553393983995235
 30
431.0
 10
16.364773820916547
 20
-7.447928569533353
 30
431.0
 10
16.373481107426148
 20
-8.911338480807164
 30
431.0
 10
16.37925787962042
 20
-9.882224838450085
 30
431.0
 10
16.385035034292784
 20
-10.853175478145051
 30
431.0
 10
16.390812466694637
 20
-11.824172795078908
 30
431.0
 10
16.39659010571607
 20
-12.795204838000451
 30
431.0
 10
16.40236790481085
 20
-13.76626378401329
 30
431.0
 10
16.408145844469505
 20
-14.737346354215855
 30
431.0
 10
16.41767850864276
 20
-16.33947523978721
 30
431.0
 10
16.421433468900496
 20
-16.97050663693333
 30
431.0
 10
16.42518645152498
 20
-17.60154562265544
 30
431.0
 10
16.42894287696517
 20
-18.23259078459327
 30
431.0
 10
16.432704345241326
 20
-18.863641320212995
 30
431.0
 10
16.436470776653806
 20
-19.494696751922852
 30
431.0
 10
16.440244795906274
 20
-20.125756399103615
 30
431.0
 10
16.448134803652394
 20
-21.442255316580802
 30
431.0
 10
16.452342367537586
 20
-22.142714276134342
 30
431.0
 10
16.456650076046706
 20
-22.857935947771107
 30
431.0
 10
16.461058443692576
 20
-23.587659452488452
 30
431.0
 10
16.46556798498802
 20
-24.331623911283746
 30
431.0
 10
16.47017921444586
 20
-25.089568445154327
 30
431.0
 10
16.474892646578922
 20
-25.861232175097555
 30
431.0
 10
16.49645487974893
 20
-29.376277809256198
 30
431.0
 10
16.513444975930522
 20
-32.10623721376917
 30
431.0
 10
16.530716706628002
 20
-34.83622070891295
 30
431.0
 10
16.548291507055946
 20
-37.566221768379705
 30
431.0
 10
16.566187193741538
 20
-40.29623583175307
 30
431.0
 10
16.58442044219495
 20
-43.02625964053942
 30
431.0
 10
16.603005949128608
 20
-45.75629142225193
 30
431.0
 10
16.644744245470616
 20
-51.76834939332246
 30
431.0
 10
16.668060666034386
 20
-55.05037743192167
 30
431.0
 10
16.691934501847154
 20
-58.332411382327834
 30
431.0
 10
16.71639198679935
 20
-61.614449002126776
 30
431.0
 10
16.741460598310567
 20
-64.89648848566665
 30
431.0
 10
16.767170063919764
 20
-68.17852829531323
 30
431.0
 10
16.79355317905585
 20
-71.4605670782853
 30
431.0
 10
16.84576216165019
 20
-77.78508508169871
 30
431.0
 10
16.871488096957858
 20
-80.82756449696426
 30
431.0
 10
16.897853546933785
 20
-83.87004091721047
 30
431.0
 10
16.92489035390645
 20
-86.91251335743543
 30
431.0
 10
16.952633832577636
 20
-89.95498081965613
 30
431.0
 10
16.981123705089473
 20
-92.99744226727303
 30
431.0
 10
17.010405036091463
 20
-96.03989659943487
 30
431.0
 10
17.070663841149777
 20
-102.12585332368182
 30
431.0
 10
17.101643707532578
 20
-105.16935564695702
 30
431.0
 10
17.13341704751043
 20
-108.21284942241428
 30
431.0
 10
17.165938460604018
 20
-111.25633444332503
 30
431.0
 10
17.199167931629574
 20
-114.29981046202003
 30
431.0
 10
17.23306989702831
 20
-117.34327718286264
 30
431.0
 10
17.26761231119582
 20
-120.38673425522218
 30
431.0
 10
17.33473839344921
 20
-126.19825362518247
 30
431.0
 10
17.367216538068384
 20
-128.9663176045931
 30
431.0
 10
17.40017812389851
 20
-131.73437290866005
 30
431.0
 10
17.433603054349025
 20
-134.50241912994193
 30
431.0
 10
17.467472839851617
 20
-137.27045574696314
 30
431.0
 10
17.501770244758998
 20
-140.03848209891527
 30
431.0
 10
17.536478900300054
 20
-142.80649733767154
 30
431.0
 10
17.603198593669656
 20
-148.06744767402017
 30
431.0
 10
17.63513496667854
 20
-150.56038484131366
 30
431.0
 10
17.66738032804908
 20
-153.05331124110626
 30
431.0
 10
17.699923363740936
 20
-155.54622590000128
 30
431.0
 10
17.73275251360407
 20
-158.03912736065396
 30
431.0
 10
17.765855819462477
 20
-160.53201364494623
 30
431.0
 10
17.79922004107093
 20
-163.02488204747448
 30
431.0
 10
17.856031175014184
 20
-167.23882592154268
 30
431.0
 10
17.87935062309182
 20
-168.9599119812644
 30
431.0
 10
17.902780321234147
 20
-170.68098604238276
 30
431.0
 10
17.92631399746547
 20
-172.40204666761332
 30
431.0
 10
17.949942925312595
 20
-174.12309103472734
 30
431.0
 10
17.97365655597748
 20
-175.84411508009774
 30
431.0
 10
17.99744040790007
 20
-177.56511293326284
 30
431.0
 10
18.030289143369487
 20
-179.9378524091544
 30
431.0
 10
18.039107143705596
 20
-180.57434247855042
 30
431.0
 10
18.04770720221324
 20
-181.19493559846663
 30
431.0
 10
18.056089565084452
 20
-181.79926406457088
 30
431.0
 10
18.06423534078003
 20
-182.38719843896314
 30
431.0
 10
18.07216058963458
 20
-182.95885238478132
 30
431.0
 10
18.0798634888833
 20
-183.51457786615194
 30
431.0
 10
18.09461468865859
 20
-184.57877317999734
 30
431.0
 10
18.101875244044486
 20
-185.10257118526454
 30
431.0
 10
18.10913568827159
 20
-185.62636117120624
 30
431.0
 10
18.116396008403175
 20
-186.15014220452932
 30
431.0
 10
18.123656187671667
 20
-186.67391307557088
 30
431.0
 10
18.13091620460756
 20
-187.1976722354571
 30
431.0
 10
18.138176032168353
 20
-187.72141773326183
 30
431.0
 10
18.15391577961313
 20
-188.85692980868717
 30
431.0
 10
18.162395571052375
 20
-189.46868711992397
 30
431.0
 10
18.170875000934032
 20
-190.08041834732126
 30
431.0
 10
18.17935401724925
 20
-190.69211973881076
 30
431.0
 10
18.187832504622364
 20
-191.30378297084857
 30
431.0
 10
18.196310288517907
 20
-191.91539545192435
 30
431.0
 10
18.204787113701954
 20
-192.52693876871118
 30
431.0
 10
18.2176713593176
 20
-193.45644647082915
 30
431.0
 10
18.222079727176794
 20
-193.7744792063981
 30
431.0
 10
18.226487637278865
 20
-194.09247891801078
 30
431.0
 10
18.230895024353817
 20
-194.41044089689535
 30
431.0
 10
18.235301740774904
 20
-194.72835449281996
 30
431.0
 10
18.2397075626784
 20
-195.04620355559192
 30
431.0
 10
18.244112162280786
 20
-195.3639644379357
 30
431.0
 10
18.25096334127199
 20
-195.85822881560205
 30
431.0
 10
18.25328842276727
 20
-196.02596709243872
 30
431.0
 10
18.255493843277538
 20
-196.1850726708213
 30
431.0
 10
18.257583223905506
 20
-196.33580678784188
 30
431.0
 10
18.25956018575388
 20
-196.4784306805926
 30
431.0
 10
18.261428349925374
 20
-196.6132055861656
 30
431.0
 10
18.2631913375227
 20
-196.74039274165315
 30
431.0
 10
18.266272425028273
 20
-196.96267153489896
 30
431.0
 10
18.26769114275215
 20
-197.0650220403763
 30
431.0
 10
18.269108966196267
 20
-197.16730802986325
 30
431.0
 10
18.27052580824884
 20
-197.26952321884755
 30
431.0
 10
18.271941319485506
 20
-197.37164239882455
 30
431.0
 10
18.27335494676444
 20
-197.47362566450735
 30
431.0
 10
18.274765862090984
 20
-197.5754132818931
 30
431.0
 10
18.2769573906154
 20
-197.73351665120373
 30
431.0
 10
18.27773979327814
 20
-197.78996150043014
 30
431.0
 10
18.278520509424588
 20
-197.84628467936975
 30
431.0
 10
18.279299336792555
 20
-197.902471596221
 30
431.0
 10
18.280075929994386
 20
-197.95849733370721
 30
431.0
 10
18.280847922166235
 20
-198.01419113923384
 30
431.0
 10
18.28161312812713
 20
-198.06939536737306
 30
431.0
 10
18.282740276055236
 20
-198.1507111627912
 30
431.0
 10
18.283106498840297
 20
-198.17713156097076
 30
431.0
 10
18.283468322028792
 20
-198.20323455920075
 30
431.0
 10
18.283827180034525
 20
-198.22912364035128
 30
431.0
 10
18.284178667810156
 20
-198.25448101123592
 30
431.0
 10
18.284515147296624
 20
-198.27875563961626
 30
431.0
 10
18.284821283451127
 20
-198.3008412100091
 30
431.0
 10
18.285164178306786
 20
-198.325578662155
 30
431.0
 10
18.285242382404125
 20
-198.3312205377432
 30
431.0
 10
18.285308711235334
 20
-198.33600569640296
 30
431.0
 10
18.285364237719737
 20
-198.3400115417171
 30
431.0
 10
18.285410034776657
 20
-198.34331547726856
 30
431.0
 10
18.285447175325416
 20
-198.3459949066401
 30
431.0
 10
18.28547673228534
 20
-198.3481272334146
 30
431.0
 10
18.285536526836836
 20
-198.35244098975144
 30
431.0
 10
18.285658248262227
 20
-198.35331976860354
 30
431.0
 10
18.28572550779554
 20
-198.3534262251485
 30
431.0
 10
18.28567311728921
 20
-198.35343037658888
 30
431.0
 10
18.28551013550441
 20
-198.3536722299134
 30
431.0
 10
18.28531986811109
 20
-198.35416178189615
 30
431.0
 10
18.28525986768798
 20
-198.3545790190971
 30
431.0
 10
18.285561933722573
 20
-198.354273917862
 30
431.0
  0
ENDSEC
  0
SECTION
  2
OBJECTS
  0
DICTIONARY
  5
A
330
0
100
AcDbDictionary
281
1
  3
ACAD_COLOR
350
B
  3
ACAD_GROUP
350
C
  3
ACAD_LAYOUT
350
D
  3
ACAD_MATERIAL
350
E
  3
ACAD_MLEADERSTYLE
350
F
  3
ACAD_MLINESTYLE
350
10
  3
ACAD_PLOTSETTINGS
350
11
  3
ACAD_PLOTSTYLENAME
350
12
  3
ACAD_SCALELIST
350
14
  3
ACAD_TABLESTYLE
350
15
  3
ACAD_VISUALSTYLE
350
16
  3
EZDXF_META
350
2D
  0
DICTIONARY
  5
B
330
A
100
AcDbDictionary
281
1
  0
DICTIONARY
  5
C
330
A
100
AcDbDictionary
281
1
  0
DICTIONARY
  5
D
330
A
100
AcDbDictionary
281
1
  3
Model
350
1A
  3
Layout1
350
1E
  0
DICTIONARY
  5
E
330
A
100
AcDbDictionary
281
1
  3
ByBlock
350
1F
  3
ByLayer
350
20
  3
Global
350
21
  0
DICTIONARY
  5
F
330
A
100
AcDbDictionary
281
1
  3
Standard
350
2C
  0
DICTIONARY
  5
10
330
A
100
AcDbDictionary
281
1
  3
Standard
350
22
  0
DICTIONARY
  5
11
330
A
100
AcDbDictionary
281
1
  0
ACDBDICTIONARYWDFLT
  5
12
330
A
100
AcDbDictionary
281
1
  3
Normal
350
13
100
AcDbDictionaryWithDefault
340
13
  0
ACDBPLACEHOLDER
  5
13
330
12
  0
DICTIONARY
  5
14
330
A
100
AcDbDictionary
281
1
  0
DICTIONARY
  5
15
330
A
100
AcDbDictionary
281
1
  0
DICTIONARY
  5
16
330
A
100
AcDbDictionary
281
1
  0
LAYOUT
  5
1A
330
D
100
AcDbPlotSettings
  1

  2
Adobe PDF
  4
A3
  6

 40
7.5
 41
20.0
 42
7.5
 43
20.0
 44
420.0
 45
297.0
 46
0.0
 47
0.0
 48
0.0
 49
0.0
140
0.0
141
0.0
142
1.0
143
1.0
 70
1024
 72
1
 73
1
 74
5
  7

 75
16
 76
0
 77
2
 78
300
147
1.0
148
0.0
149
0.0
100
AcDbLayout
  1
Model
 70
1
 71
0
 10
0.0
 20
0.0
 11
420.0
 21
297.0
 12
0.0
 22
0.0
 32
0.0
 14
1e+20
 24
1e+20
 34
1e+20
 15
-1e+20
 25
-1e+20
 35
-1e+20
146
0.0
 13
0.0
 23
0.0
 33
0.0
 16
1.0
 26
0.0
 36
0.0
 17
0.0
 27
1.0
 37
0.0
 76
1
330
17
  0
LAYOUT
  5
1E
330
D
100
AcDbPlotSettings
  1

  2
Adobe PDF
  4
A3
  6

 40
7.5
 41
20.0
 42
7.5
 43
20.0
 44
420.0
 45
297.0
 46
0.0
 47
0.0
 48
0.0
 49
0.0
140
0.0
141
0.0
142
1.0
143
1.0
 70
0
 72
1
 73
1
 74
5
  7

 75
16
 76
0
 77
2
 78
300
147
1.0
148
0.0
149
0.0
100
AcDbLayout
  1
Layout1
 70
1
 71
1
 10
0.0
 20
0.0
 11
420.0
 21
297.0
 12
0.0
 22
0.0
 32
0.0
 14
1e+20
 24
1e+20
 34
1e+20
 15
-1e+20
 25
-1e+20
 35
-1e+20
146
0.0
 13
0.0
 23
0.0
 33
0.0
 16
1.0
 26
0.0
 36
0.0
 17
0.0
 27
1.0
 37
0.0
 76
1
330
1B
  0
MATERIAL
  5
1F
102
{ACAD_REACTORS
330
E
102
}
330
E
100
AcDbMaterial
  1
ByBlock
  2

 70
0
 40
1.0
 71
1
 41
1.0
 91
-1023410177
 42
1.0
 72
1
  3

 73
1
 74
1
 75
1
 44
0.5
 73
0
 45
1.0
 46
1.0
 77
1
  4

 78
1
 79
1
170
1
 48
1.0
171
1
  6

172
1
173
1
174
1
140
1.0
141
1.0
175
1
  7

176
1
177
1
178
1
143
1.0
179
1
  8

270
1
271
1
272
1
145
1.0
146
1.0
273
1
  9

274
1
275
1
276
1
 42
1.0
 72
1
  3

 73
1
 74
1
 75
1
 94
63
  0
MATERIAL
  5
20
102
{ACAD_REACTORS
330
E
102
}
330
E
100
AcDbMaterial
  1
ByLayer
  2

 70
0
 40
1.0
 71
1
 41
1.0
 91
-1023410177
 42
1.0
 72
1
  3

 73
1
 74
1
 75
1
 44
0.5
 73
0
 45
1.0
 46
1.0
 77
1
  4

 78
1
 79
1
170
1
 48
1.0
171
1
  6

172
1
173
1
174
1
140
1.0
141
1.0
175
1
  7

176
1
177
1
178
1
143
1.0
179
1
  8

270
1
271
1
272
1
145
1.0
146
1.0
273
1
  9

274
1
275
1
276
1
 42
1.0
 72
1
  3

 73
1
 74
1
 75
1
 94
63
  0
MATERIAL
  5
21
102
{ACAD_REACTORS
330
E
102
}
330
E
100
AcDbMaterial
  1
Global
  2

 70
0
 40
1.0
 71
1
 41
1.0
 91
-1023410177
 42
1.0
 72
1
  3

 73
1
 74
1
 75
1
 44
0.5
 73
0
 45
1.0
 46
1.0
 77
1
  4

 78
1
 79
1
170
1
 48
1.0
171
1
  6

172
1
173
1
174
1
140
1.0
141
1.0
175
1
  7

176
1
177
1
178
1
143
1.0
179
1
  8

270
1
271
1
272
1
145
1.0
146
1.0
273
1
  9

274
1
275
1
276
1
 42
1.0
 72
1
  3

 73
1
 74
1
 75
1
 94
63
  0
MLINESTYLE
  5
22
102
{ACAD_REACTORS
330
10
102
}
330
10
100
AcDbMlineStyle
  2
Standard
 70
0
  3

 62
256
 51
90.0
 52
90.0
 71
2
 49
0.5
 62
256
  6
BYLAYER
 49
-0.5
 62
256
  6
BYLAYER
  0
MLEADERSTYLE
  5
2C
102
{ACAD_REACTORS
330
F
102
}
330
F
100
AcDbMLeaderStyle
179
2
170
2
171
1
172
0
 90
2
 40
0.0
 41
0.0
173
1
 91
-1056964608
 92
-2
290
1
 42
2.0
291
1
 43
8.0
  3
Standard
 44
4.0
300

342
29
174
1
175
1
176
0
178
1
 93
-1056964608
 45
4.0
292
0
297
0
 46
4.0
 94
-1056964608
 47
1.0
 49
1.0
140
1.0
294
1
141
0.0
177
0
142
1.0
295
0
296
0
143
3.75
271
0
272
9
273
9
  0
DICTIONARY
  5
2D
330
A
100
AcDbDictionary
280
1
281
1
  3
CREATED_BY_EZDXF
350
2E
  3
WRITTEN_BY_EZDXF
350
78
  0
DICTIONARYVAR
  5
2E
330
2D
100
DictionaryVariables
280
0
  1
0.17 @ 2022-02-15T16:29:08.774520+00:00
  0
DICTIONARYVAR
  5
78
330
2D
100
DictionaryVariables
280
0
  1
0.17 @ 2022-02-15T16:29:08.863537+00:00
  0
ENDSEC
  0
EOF
