  0
SECTION
  2
HEADER
  9
$ACADVER
  1
AC1027
  9
$ACADMAINTVER
 70
105
  9
$DWGCODEPAGE
  3
ANSI_1252
  9
$LASTSAVEDBY
  1
ezdxf
  9
$REQUIREDVERSIONS
160
0
  9
$INSBASE
 10
0.0
 20
0.0
 30
0.0
  9
$EXTMIN
 10
1e+20
 20
1e+20
 30
1e+20
  9
$EXTMAX
 10
-1e+20
 20
-1e+20
 30
-1e+20
  9
$LIMMIN
 10
0.0
 20
0.0
  9
$LIMMAX
 10
420.0
 20
297.0
  9
$ORTHOMODE
 70
0
  9
$REGENMODE
 70
1
  9
$FILLMODE
 70
1
  9
$QTEXTMODE
 70
0
  9
$MIRRTEXT
 70
1
  9
$LTSCALE
 40
1.0
  9
$ATTMODE
 70
1
  9
$TEXTSIZE
 40
2.5
  9
$TRACEWID
 40
1.0
  9
$TEXTSTYLE
  7
Standard
  9
$CLAYER
  8
0
  9
$CELTYPE
  6
ByLayer
  9
$CECOLOR
 62
256
  9
$CELTSCALE
 40
1.0
  9
$DISPSILH
 70
0
  9
$DIMSCALE
 40
1.0
  9
$DIMASZ
 40
2.5
  9
$DIMEXO
 40
0.625
  9
$DIMDLI
 40
3.75
  9
$DIMRND
 40
0.0
  9
$DIMDLE
 40
0.0
  9
$DIMEXE
 40
1.25
  9
$DIMTP
 40
0.0
  9
$DIMTM
 40
0.0
  9
$DIMTXT
 40
2.5
  9
$DIMCEN
 40
2.5
  9
$DIMTSZ
 40
0.0
  9
$DIMTOL
 70
0
  9
$DIMLIM
 70
0
  9
$DIMTIH
 70
0
  9
$DIMTOH
 70
0
  9
$DIMSE1
 70
0
  9
$DIMSE2
 70
0
  9
$DIMTAD
 70
1
  9
$DIMZIN
 70
8
  9
$DIMBLK
  1

  9
$DIMASO
 70
1
  9
$DIMSHO
 70
1
  9
$DIMPOST
  1

  9
$DIMAPOST
  1

  9
$DIMALT
 70
0
  9
$DIMALTD
 70
3
  9
$DIMALTF
 40
0.03937007874
  9
$DIMLFAC
 40
1.0
  9
$DIMTOFL
 70
1
  9
$DIMTVP
 40
0.0
  9
$DIMTIX
 70
0
  9
$DIMSOXD
 70
0
  9
$DIMSAH
 70
0
  9
$DIMBLK1
  1

  9
$DIMBLK2
  1

  9
$DIMSTYLE
  2
ISO-25
  9
$DIMCLRD
 70
0
  9
$DIMCLRE
 70
0
  9
$DIMCLRT
 70
0
  9
$DIMTFAC
 40
1.0
  9
$DIMGAP
 40
0.625
  9
$DIMJUST
 70
0
  9
$DIMSD1
 70
0
  9
$DIMSD2
 70
0
  9
$DIMTOLJ
 70
0
  9
$DIMTZIN
 70
8
  9
$DIMALTZ
 70
0
  9
$DIMALTTZ
 70
0
  9
$DIMUPT
 70
0
  9
$DIMDEC
 70
2
  9
$DIMTDEC
 70
2
  9
$DIMALTU
 70
2
  9
$DIMALTTD
 70
3
  9
$DIMTXSTY
  7
Standard
  9
$DIMAUNIT
 70
0
  9
$DIMADEC
 70
0
  9
$DIMALTRND
 40
0.0
  9
$DIMAZIN
 70
0
  9
$DIMDSEP
 70
44
  9
$DIMATFIT
 70
3
  9
$DIMFRAC
 70
0
  9
$DIMLDRBLK
  1

  9
$DIMLUNIT
 70
2
  9
$DIMLWD
 70
-2
  9
$DIMLWE
 70
-2
  9
$DIMTMOVE
 70
0
  9
$DIMFXL
 40
1.0
  9
$DIMFXLON
 70
0
  9
$DIMJOGANG
 40
0.785398163397
  9
$DIMTFILL
 70
0
  9
$DIMTFILLCLR
 70
0
  9
$DIMARCSYM
 70
0
  9
$DIMLTYPE
  6

  9
$DIMLTEX1
  6

  9
$DIMLTEX2
  6

  9
$DIMTXTDIRECTION
 70
0
  9
$LUNITS
 70
2
  9
$LUPREC
 70
4
  9
$SKETCHINC
 40
1.0
  9
$FILLETRAD
 40
10.0
  9
$AUNITS
 70
0
  9
$AUPREC
 70
2
  9
$MENU
  1
.
  9
$ELEVATION
 40
0.0
  9
$PELEVATION
 40
0.0
  9
$THICKNESS
 40
0.0
  9
$LIMCHECK
 70
0
  9
$CHAMFERA
 40
0.0
  9
$CHAMFERB
 40
0.0
  9
$CHAMFERC
 40
0.0
  9
$CHAMFERD
 40
0.0
  9
$SKPOLY
 70
0
  9
$TDCREATE
 40
2459626.7285763887
  9
$TDUCREATE
 40
2458532.153996898
  9
$TDUPDATE
 40
2459626.728587963
  9
$TDUUPDATE
 40
2458532.1544311
  9
$TDINDWG
 40
0.0
  9
$TDUSRTIMER
 40
0.0
  9
$USRTIMER
 70
1
  9
$ANGBASE
 50
0.0
  9
$ANGDIR
 70
0
  9
$PDMODE
 70
0
  9
$PDSIZE
 40
0.0
  9
$PLINEWID
 40
0.0
  9
$SPLFRAME
 70
0
  9
$SPLINETYPE
 70
6
  9
$SPLINESEGS
 70
8
  9
$HANDSEED
  5
79
  9
$SURFTAB1
 70
6
  9
$SURFTAB2
 70
6
  9
$SURFTYPE
 70
6
  9
$SURFU
 70
6
  9
$SURFV
 70
6
  9
$UCSBASE
  2

  9
$UCSNAME
  2

  9
$UCSORG
 10
0.0
 20
0.0
 30
0.0
  9
$UCSXDIR
 10
1.0
 20
0.0
 30
0.0
  9
$UCSYDIR
 10
0.0
 20
1.0
 30
0.0
  9
$UCSORTHOREF
  2

  9
$UCSORTHOVIEW
 70
0
  9
$UCSORGTOP
 10
0.0
 20
0.0
 30
0.0
  9
$UCSORGBOTTOM
 10
0.0
 20
0.0
 30
0.0
  9
$UCSORGLEFT
 10
0.0
 20
0.0
 30
0.0
  9
$UCSORGRIGHT
 10
0.0
 20
0.0
 30
0.0
  9
$UCSORGFRONT
 10
0.0
 20
0.0
 30
0.0
  9
$UCSORGBACK
 10
0.0
 20
0.0
 30
0.0
  9
$PUCSBASE
  2

  9
$PUCSNAME
  2

  9
$PUCSORG
 10
0.0
 20
0.0
 30
0.0
  9
$PUCSXDIR
 10
1.0
 20
0.0
 30
0.0
  9
$PUCSYDIR
 10
0.0
 20
1.0
 30
0.0
  9
$PUCSORTHOREF
  2

  9
$PUCSORTHOVIEW
 70
0
  9
$PUCSORGTOP
 10
0.0
 20
0.0
 30
0.0
  9
$PUCSORGBOTTOM
 10
0.0
 20
0.0
 30
0.0
  9
$PUCSORGLEFT
 10
0.0
 20
0.0
 30
0.0
  9
$PUCSORGRIGHT
 10
0.0
 20
0.0
 30
0.0
  9
$PUCSORGFRONT
 10
0.0
 20
0.0
 30
0.0
  9
$PUCSORGBACK
 10
0.0
 20
0.0
 30
0.0
  9
$USERI1
 70
0
  9
$USERI2
 70
0
  9
$USERI3
 70
0
  9
$USERI4
 70
0
  9
$USERI5
 70
0
  9
$USERR1
 40
0.0
  9
$USERR2
 40
0.0
  9
$USERR3
 40
0.0
  9
$USERR4
 40
0.0
  9
$USERR5
 40
0.0
  9
$WORLDVIEW
 70
1
  9
$SHADEDGE
 70
3
  9
$SHADEDIF
 70
70
  9
$TILEMODE
 70
1
  9
$MAXACTVP
 70
64
  9
$PINSBASE
 10
0.0
 20
0.0
 30
0.0
  9
$PLIMCHECK
 70
0
  9
$PEXTMIN
 10
1e+20
 20
1e+20
 30
1e+20
  9
$PEXTMAX
 10
-1e+20
 20
-1e+20
 30
-1e+20
  9
$PLIMMIN
 10
0.0
 20
0.0
  9
$PLIMMAX
 10
420.0
 20
297.0
  9
$UNITMODE
 70
0
  9
$VISRETAIN
 70
1
  9
$PLINEGEN
 70
0
  9
$PSLTSCALE
 70
1
  9
$TREEDEPTH
 70
3020
  9
$CMLSTYLE
  2
Standard
  9
$CMLJUST
 70
0
  9
$CMLSCALE
 40
20.0
  9
$PROXYGRAPHICS
 70
1
  9
$MEASUREMENT
 70
1
  9
$CELWEIGHT
370
-1
  9
$ENDCAPS
280
0
  9
$JOINSTYLE
280
0
  9
$LWDISPLAY
290
0
  9
$INSUNITS
 70
6
  9
$HYPERLINKBASE
  1

  9
$STYLESHEET
  1

  9
$XEDIT
290
1
  9
$CEPSNTYPE
380
0
  9
$PSTYLEMODE
290
1
  9
$FINGERPRINTGUID
  2
{922B6211-B250-4DD5-8BE7-1EE4CE351DEA}
  9
$VERSIONGUID
  2
{F3909B11-4916-4D4F-ABEC-8945B3C95DC4}
  9
$EXTNAMES
290
1
  9
$PSVPSCALE
 40
0.0
  9
$OLESTARTUP
290
0
  9
$SORTENTS
280
127
  9
$INDEXCTL
280
0
  9
$HIDETEXT
280
1
  9
$XCLIPFRAME
280
0
  9
$HALOGAP
280
0
  9
$OBSCOLOR
 70
257
  9
$OBSLTYPE
280
0
  9
$INTERSECTIONDISPLAY
280
0
  9
$INTERSECTIONCOLOR
 70
257
  9
$DIMASSOC
280
2
  9
$PROJECTNAME
  1

  9
$CAMERADISPLAY
290
0
  9
$LENSLENGTH
 40
50.0
  9
$CAMERAHEIGHT
 40
0.0
  9
$STEPSPERSEC
 40
24.0
  9
$STEPSIZE
 40
100.0
  9
$3DDWFPREC
 40
2.0
  9
$PSOLWIDTH
 40
0.005
  9
$PSOLHEIGHT
 40
0.08
  9
$LOFTANG1
 40
1.570796326795
  9
$LOFTANG2
 40
1.570796326795
  9
$LOFTMAG1
 40
0.0
  9
$LOFTMAG2
 40
0.0
  9
$LOFTPARAM
 70
7
  9
$LOFTNORMALS
280
1
  9
$LATITUDE
 40
37.795
  9
$LONGITUDE
 40
-122.394
  9
$NORTHDIRECTION
 40
0.0
  9
$TIMEZONE
 70
-8000
  9
$LIGHTGLYPHDISPLAY
280
1
  9
$TILEMODELIGHTSYNCH
280
1
  9
$CMATERIAL
347
20
  9
$SOLIDHIST
280
0
  9
$SHOWHIST
280
1
  9
$DWFFRAME
280
2
  9
$DGNFRAME
280
2
  9
$REALWORLDSCALE
290
1
  9
$INTERFERECOLOR
 62
256
  9
$CSHADOW
280
0
  9
$SHADOWPLANELOCATION
 40
0.0
  0
ENDSEC
  0
SECTION
  2
CLASSES
  0
CLASS
  1
ACDBDICTIONARYWDFLT
  2
AcDbDictionaryWithDefault
  3
ObjectDBX Classes
 90
0
 91
0
280
0
281
0
  0
CLASS
  1
SUN
  2
AcDbSun
  3
SCENEOE
 90
1153
 91
0
280
0
281
0
  0
CLASS
  1
VISUALSTYLE
  2
AcDbVisualStyle
  3
ObjectDBX Classes
 90
4095
 91
0
280
0
281
0
  0
CLASS
  1
MATERIAL
  2
AcDbMaterial
  3
ObjectDBX Classes
 90
1153
 91
0
280
0
281
0
  0
CLASS
  1
SCALE
  2
AcDbScale
  3
ObjectDBX Classes
 90
1153
 91
0
280
0
281
0
  0
CLASS
  1
TABLESTYLE
  2
AcDbTableStyle
  3
ObjectDBX Classes
 90
4095
 91
0
280
0
281
0
  0
CLASS
  1
MLEADERSTYLE
  2
AcDbMLeaderStyle
  3
ACDB_MLEADERSTYLE_CLASS
 90
4095
 91
0
280
0
281
0
  0
CLASS
  1
DICTIONARYVAR
  2
AcDbDictionaryVar
  3
ObjectDBX Classes
 90
0
 91
0
280
0
281
0
  0
CLASS
  1
CELLSTYLEMAP
  2
AcDbCellStyleMap
  3
ObjectDBX Classes
 90
1152
 91
0
280
0
281
0
  0
CLASS
  1
MENTALRAYRENDERSETTINGS
  2
AcDbMentalRayRenderSettings
  3
SCENEOE
 90
1024
 91
0
280
0
281
0
  0
CLASS
  1
ACDBDETAILVIEWSTYLE
  2
AcDbDetailViewStyle
  3
ObjectDBX Classes
 90
1025
 91
0
280
0
281
0
  0
CLASS
  1
ACDBSECTIONVIEWSTYLE
  2
AcDbSectionViewStyle
  3
ObjectDBX Classes
 90
1025
 91
0
280
0
281
0
  0
CLASS
  1
RASTERVARIABLES
  2
AcDbRasterVariables
  3
ISM
 90
0
 91
0
280
0
281
0
  0
CLASS
  1
ACDBPLACEHOLDER
  2
AcDbPlaceHolder
  3
ObjectDBX Classes
 90
0
 91
0
280
0
281
0
  0
CLASS
  1
LAYOUT
  2
AcDbLayout
  3
ObjectDBX Classes
 90
0
 91
0
280
0
281
0
  0
ENDSEC
  0
SECTION
  2
TABLES
  0
TABLE
  2
VPORT
  5
8
330
0
100
AcDbSymbolTable
 70
1
  0
VPORT
  5
23
330
8
100
AcDbSymbolTableRecord
100
AcDbViewportTableRecord
  2
*Active
 70
0
 10
0.0
 20
0.0
 11
1.0
 21
1.0
 12
344.2
 22
148.5
 13
0.0
 23
0.0
 14
0.5
 24
0.5
 15
0.5
 25
0.5
 16
0.0
 26
0.0
 36
1.0
 17
0.0
 27
0.0
 37
0.0
 40
297.0
 41
1.34
 42
50.0
 43
0.0
 44
0.0
 50
0.0
 51
0.0
 71
0
 72
1000
 73
1
 74
3
 75
0
 76
0
 77
0
 78
0
281
0
 65
0
146
0.0
  0
ENDTAB
  0
TABLE
  2
LTYPE
  5
2
330
0
100
AcDbSymbolTable
 70
3
  0
LTYPE
  5
24
330
2
100
AcDbSymbolTableRecord
100
AcDbLinetypeTableRecord
  2
ByBlock
 70
0
  3

 72
65
 73
0
 40
0.0
  0
LTYPE
  5
25
330
2
100
AcDbSymbolTableRecord
100
AcDbLinetypeTableRecord
  2
ByLayer
 70
0
  3

 72
65
 73
0
 40
0.0
  0
LTYPE
  5
26
330
2
100
AcDbSymbolTableRecord
100
AcDbLinetypeTableRecord
  2
Continuous
 70
0
  3

 72
65
 73
0
 40
0.0
  0
ENDTAB
  0
TABLE
  2
LAYER
  5
1
330
0
100
AcDbSymbolTable
 70
2
  0
LAYER
  5
27
330
1
100
AcDbSymbolTableRecord
100
AcDbLayerTableRecord
  2
0
 70
0
 62
7
  6
Continuous
370
-3
390
13
347
21
  0
LAYER
  5
28
330
1
100
AcDbSymbolTableRecord
100
AcDbLayerTableRecord
  2
Defpoints
 70
0
 62
7
  6
Continuous
290
0
370
-3
390
13
347
21
  0
ENDTAB
  0
TABLE
  2
STYLE
  5
5
330
0
100
AcDbSymbolTable
 70
1
  0
STYLE
  5
29
330
5
100
AcDbSymbolTableRecord
100
AcDbTextStyleTableRecord
  2
Standard
 70
0
 40
0.0
 41
1.0
 50
0.0
 71
0
 42
2.5
  3
txt
  4

  0
ENDTAB
  0
TABLE
  2
VIEW
  5
7
330
0
100
AcDbSymbolTable
 70
0
  0
ENDTAB
  0
TABLE
  2
UCS
  5
6
330
0
100
AcDbSymbolTable
 70
0
  0
ENDTAB
  0
TABLE
  2
APPID
  5
3
330
0
100
AcDbSymbolTable
 70
3
  0
APPID
  5
2A
330
3
100
AcDbSymbolTableRecord
100
AcDbRegAppTableRecord
  2
ACAD
 70
0
  0
APPID
  5
76
330
3
100
AcDbSymbolTableRecord
100
AcDbRegAppTableRecord
  2
HATCHBACKGROUNDCOLOR
 70
0
  0
APPID
  5
77
330
3
100
AcDbSymbolTableRecord
100
AcDbRegAppTableRecord
  2
EZDXF
 70
0
  0
ENDTAB
  0
TABLE
  2
DIMSTYLE
  5
4
330
0
100
AcDbSymbolTable
 70
1
100
AcDbDimStyleTable
  0
DIMSTYLE
105
2B
330
4
100
AcDbSymbolTableRecord
100
AcDbDimStyleTableRecord
  2
Standard
 70
0
 40
1.0
 41
2.5
 42
0.625
 43
3.75
 44
1.25
 45
0.0
 46
0.0
 47
0.0
 48
0.0
 49
2.5
140
2.5
141
2.5
142
0.0
143
0.03937007874
144
1.0
145
0.0
146
1.0
147
0.625
148
0.0
 69
0
 70
0
 71
0
 72
0
 73
0
 74
0
 75
0
 76
0
 77
1
 78
8
 79
0
170
0
171
3
172
1
173
0
174
0
175
0
176
0
177
0
178
0
179
0
271
0
272
2
273
2
274
3
275
0
276
0
277
2
278
44
279
0
280
0
281
0
282
0
283
0
284
8
285
0
286
0
288
0
289
3
290
0
371
-2
372
-2
  0
ENDTAB
  0
TABLE
  2
BLOCK_RECORD
  5
9
330
0
100
AcDbSymbolTable
 70
2
  0
BLOCK_RECORD
  5
17
330
9
100
AcDbSymbolTableRecord
100
AcDbBlockTableRecord
  2
*Model_Space
340
1A
 70
0
280
1
281
0
  0
BLOCK_RECORD
  5
1B
330
9
100
AcDbSymbolTableRecord
100
AcDbBlockTableRecord
  2
*Paper_Space
340
1E
 70
0
280
1
281
0
  0
ENDTAB
  0
ENDSEC
  0
SECTION
  2
BLOCKS
  0
BLOCK
  5
18
330
17
100
AcDbEntity
  8
0
100
AcDbBlockBegin
  2
*Model_Space
 70
0
 10
0.0
 20
0.0
 30
0.0
  3
*Model_Space
  1

  0
ENDBLK
  5
19
330
17
100
AcDbEntity
  8
0
100
AcDbBlockEnd
  0
BLOCK
  5
1C
330
1B
100
AcDbEntity
  8
0
100
AcDbBlockBegin
  2
*Paper_Space
 70
0
 10
0.0
 20
0.0
 30
0.0
  3
*Paper_Space
  1

  0
ENDBLK
  5
1D
330
1B
100
AcDbEntity
  8
0
100
AcDbBlockEnd
  0
ENDSEC
  0
SECTION
  2
ENTITIES
  0
SPLINE
  5
2F
330
17
100
AcDbEntity
  8
0
100
AcDbSpline
 70
0
 71
8
 72
81
 73
72
 74
0
 40
0.0
 40
0.0
 40
0.0
 40
0.0
 40
0.0
 40
0.0
 40
0.0
 40
0.0
 40
0.0
 40
0.055185284952881046
 40
0.055185284952881046
 40
0.055185284952881046
 40
0.055185284952881046
 40
0.055185284952881046
 40
0.055185284952881046
 40
0.055185284952881046
 40
0.16653605616012074
 40
0.16653605616012074
 40
0.16653605616012074
 40
0.16653605616012074
 40
0.16653605616012074
 40
0.16653605616012074
 40
0.16653605616012074
 40
0.280379583435281
 40
0.280379583435281
 40
0.280379583435281
 40
0.280379583435281
 40
0.280379583435281
 40
0.280379583435281
 40
0.280379583435281
 40
0.3466433406216336
 40
0.3466433406216336
 40
0.3466433406216336
 40
0.3466433406216336
 40
0.3466433406216336
 40
0.3466433406216336
 40
0.3466433406216336
 40
0.4302051278731672
 40
0.4302051278731672
 40
0.4302051278731672
 40
0.4302051278731672
 40
0.4302051278731672
 40
0.4302051278731672
 40
0.4302051278731672
 40
0.46286023821110595
 40
0.46286023821110595
 40
0.46286023821110595
 40
0.46286023821110595
 40
0.46286023821110595
 40
0.46286023821110595
 40
0.46286023821110595
 40
0.4991437762866594
 40
0.4991437762866594
 40
0.4991437762866594
 40
0.4991437762866594
 40
0.4991437762866594
 40
0.4991437762866594
 40
0.4991437762866594
 40
0.6210972557980298
 40
0.6210972557980298
 40
0.6210972557980298
 40
0.6210972557980298
 40
0.6210972557980298
 40
0.6210972557980298
 40
0.6210972557980298
 40
0.8015835416296969
 40
0.8015835416296969
 40
0.8015835416296969
 40
0.8015835416296969
 40
0.8015835416296969
 40
0.8015835416296969
 40
0.8015835416296969
 40
1.0
 40
1.0
 40
1.0
 40
1.0
 40
1.0
 40
1.0
 40
1.0
 40
1.0
 40
1.0
 10
48.41142300403426
 20
209.8999999586056
 30
457.0
 10
48.27555933969612
 20
210.17348626865487
 30
457.0
 10
48.13754726335284
 20
210.445902112551
 30
457.0
 10
47.99731480148043
 20
210.71718604781273
 30
457.0
 10
47.85478588443467
 20
210.98727142395626
 30
457.0
 10
47.70987980644687
 20
211.2560861128197
 30
457.0
 10
47.562510582992026
 20
211.5235521862441
 30
457.0
 10
47.41258620552925
 20
211.78958554111122
 30
457.0
 10
46.95214087128598
 20
212.58781355967406
 30
457.0
 10
46.63353923408747
 20
213.11520492233606
 30
457.0
 10
46.303359036360526
 20
213.6355985819544
 30
457.0
 10
45.96070989230645
 20
214.1480675123438
 30
457.0
 10
45.60464886006803
 20
214.65142478659754
 30
457.0
 10
45.23416299247298
 20
215.14421125096163
 30
457.0
 10
44.848140454439154
 20
215.6246747248873
 30
457.0
 10
44.03350244070388
 20
216.56724032469134
 30
457.0
 10
43.60430166563522
 20
217.0284872888893
 30
457.0
 10
43.15633568896569
 20
217.47238140225653
 30
457.0
 10
42.68840428038318
 20
217.89602624760113
 30
457.0
 10
42.19957649606285
 20
218.29583162886973
 30
457.0
 10
41.68927750525111
 20
218.66762323569725
 30
457.0
 10
41.15748178561651
 20
219.00688389285133
 30
457.0
 10
40.28359580260735
 20
219.48524636342802
 30
457.0
 10
39.955159280871
 20
219.64871612717616
 30
457.0
 10
39.62012930780961
 20
219.79872830555396
 30
457.0
 10
39.27893036631657
 20
219.9344180357654
 30
457.0
 10
38.93209558448948
 20
220.05502493601526
 30
457.0
 10
38.58028136090625
 20
220.1599332881821
 30
457.0
 10
38.224283133327795
 20
220.2487147806994
 30
457.0
 10
37.41204490775939
 20
220.41254813730484
 30
457.0
 10
36.95369368747291
 20
220.47800702904505
 30
457.0
 10
36.491976991847636
 20
220.5170985868417
 30
457.0
 10
36.02869400043589
 20
220.5301034609757
 30
457.0
 10
35.565464947225806
 20
220.51786805004312
 30
457.0
 10
35.103730547504355
 20
220.48165240253837
 30
457.0
 10
34.64475061482024
 20
220.42299282201427
 30
457.0
 10
34.01173429202961
 20
220.31254511749734
 30
457.0
 10
33.834145733654736
 20
220.27828821231066
 30
457.0
 10
33.6568490060962
 20
220.24088071932604
 30
457.0
 10
33.47985692252846
 20
220.2003948976196
 30
457.0
 10
33.30318229612618
 20
220.15690300627514
 30
457.0
 10
33.12683794006416
 20
220.11047730438463
 30
457.0
 10
32.95083666751742
 20
220.0611900510473
 30
457.0
 10
32.5800293210928
 20
219.95125054584076
 30
457.0
 10
32.38530865323982
 20
219.88995569572066
 30
457.0
 10
32.19104184328145
 20
219.82526980102114
 30
457.0
 10
31.997245277063563
 20
219.7572172913289
 30
457.0
 10
31.803935370207153
 20
219.68582195978777
 30
457.0
 10
31.61112698811159
 20
219.61111347157393
 30
457.0
 10
31.418834086853284
 20
219.5331246008636
 30
457.0
 10
30.582538308208157
 20
219.1788032972173
 30
457.0
 10
29.952253303575265
 20
218.87244509067048
 30
457.0
 10
29.337115910264355
 20
218.53577241713032
 30
457.0
 10
28.737663443609016
 20
218.1716784345823
 30
457.0
 10
28.15414950889666
 20
217.78285330455077
 30
457.0
 10
27.586589438386813
 20
217.3717098714372
 30
457.0
 10
27.034789763631135
 20
216.9403359357664
 30
457.0
 10
25.704509103490594
 20
215.82462614834242
 30
457.0
 10
24.9447709111313
 20
215.11860977694283
 30
457.0
 10
24.217814148788342
 20
214.3779638435263
 30
457.0
 10
23.522508164333892
 20
213.60732395628867
 30
457.0
 10
22.857767427318706
 20
212.81055806240792
 30
457.0
 10
22.22249707933859
 20
211.990818099605
 30
457.0
 10
21.61559725415625
 20
211.15053803639364
 30
457.0
 10
20.398752548620777
 20
209.34698971166821
 30
457.0
 10
19.794785618661848
 20
208.38022692857092
 30
457.0
 10
19.222754713179217
 20
207.3937675187871
 30
457.0
 10
18.681706433047935
 20
206.3898210661771
 30
457.0
 10
18.170896506720634
 20
205.37026951639854
 30
457.0
 10
17.68973022835975
 20
204.33670047794794
 30
457.0
 10
17.23774812137139
 20
203.2904160153509
 30
457.0
 10
16.814613402911206
 20
202.23244076689832
 30
457.0
  0
LINE
  5
30
330
17
100
AcDbEntity
  8
0
100
AcDbLine
 10
30.614194405273814
 20
209.9
 30
457.0
 11
48.41142308735896
 21
209.9
 31
457.0
  0
SPLINE
  5
31
330
17
100
AcDbEntity
  8
0
100
AcDbSpline
 70
0
 71
1
 72
4
 73
2
 74
0
 40
0.0
 40
0.0
 40
1.0
 40
1.0
 10
30.614194401006372
 20
209.90000060000008
 30
457.0
 10
30.614194401006372
 20
206.09999939999994
 30
457.0
  0
LINE
  5
32
330
17
100
AcDbEntity
  8
0
100
AcDbLine
 10
30.614194405273814
 20
206.1
 30
457.0
 11
50.10630891516142
 21
206.1
 31
457.0
  0
SPLINE
  5
33
330
17
100
AcDbEntity
  8
0
100
AcDbSpline
 70
0
 71
8
 72
39
 73
30
 74
0
 40
0.0
 40
0.0
 40
0.0
 40
0.0
 40
0.0
 40
0.0
 40
0.0
 40
0.0
 40
0.0
 40
0.3444000610158147
 40
0.3444000610158147
 40
0.3444000610158147
 40
0.3444000610158147
 40
0.3444000610158147
 40
0.3444000610158147
 40
0.3444000610158147
 40
0.6955206811405356
 40
0.6955206811405356
 40
0.6955206811405356
 40
0.6955206811405356
 40
0.6955206811405356
 40
0.6955206811405356
 40
0.6955206811405356
 40
0.8563365493433697
 40
0.8563365493433697
 40
0.8563365493433697
 40
0.8563365493433697
 40
0.8563365493433697
 40
0.8563365493433697
 40
0.8563365493433697
 40
1.0
 40
1.0
 40
1.0
 40
1.0
 40
1.0
 40
1.0
 40
1.0
 40
1.0
 40
1.0
 10
56.25018211309492
 20
183.90000000222454
 30
457.0
 10
56.04603011713048
 20
184.89929162923852
 30
457.0
 10
55.837559631985
 20
185.89770102464917
 30
457.0
 10
55.624522995140886
 20
186.89515382233557
 30
457.0
 10
55.406642969370196
 20
187.8915632467013
 30
457.0
 10
55.183606410456825
 20
188.88682875012083
 30
457.0
 10
54.95505542667694
 20
189.88083411603975
 30
457.0
 10
54.72057384989704
 20
190.87344454617448
 30
457.0
 10
54.23405881151817
 20
192.87489927112426
 30
457.0
 10
53.98178101615428
 20
193.8836456234567
 30
457.0
 10
53.722305106067374
 20
194.89058840248964
 30
457.0
 10
53.45502596702856
 20
195.89551862587268
 30
457.0
 10
53.179231932348046
 20
196.8981627604242
 30
457.0
 10
52.89407790510324
 20
197.89817531043323
 30
457.0
 10
52.59852569511713
 20
198.89512231167774
 30
457.0
 10
52.15046568644501
 20
200.34339505392637
 30
457.0
 10
52.009155680620005
 20
200.7913848868373
 30
457.0
 10
51.86729317108492
 20
201.23246458144106
 30
457.0
 10
51.72488601437037
 20
201.6666840476413
 30
457.0
 10
51.58194261396517
 20
202.0940935978665
 30
457.0
 10
51.43847192031629
 20
202.5147439470703
 30
457.0
 10
51.29448343082878
 20
202.928686212731
 30
457.0
 10
51.02090273560377
 20
203.69981703799627
 30
457.00000000000006
 10
50.89141249811164
 20
204.0583493370795
 30
457.0
 10
50.76152289307313
 20
204.41160499369894
 30
457.0
 10
50.63124033617392
 20
204.75962018944713
 30
457.0
 10
50.50057124310172
 20
205.10243110591165
 30
457.0
 10
50.369522029546246
 20
205.44007392467546
 30
457.0
 10
50.23809911119923
 20
205.77258482731668
 30
457.0
 10
50.10630890375444
 20
206.09999999540855
 30
457.0
  0
LINE
  5
34
330
17
100
AcDbEntity
  8
0
100
AcDbLine
 10
30.614194405273814
 20
183.9
 30
457.0
 11
56.25018210220617
 21
183.9
 31
457.0
  0
SPLINE
  5
35
330
17
100
AcDbEntity
  8
0
100
AcDbSpline
 70
0
 71
1
 72
4
 73
2
 74
0
 40
0.0
 40
0.0
 40
1.0
 40
1.0
 10
30.614194401006365
 20
183.90000060000014
 30
457.0
 10
30.614194401006365
 20
180.0999993999999
 30
457.0
  0
LINE
  5
36
330
17
100
AcDbEntity
  8
0
100
AcDbLine
 10
30.614194405273814
 20
180.1
 30
457.0
 11
56.99959444358266
 21
180.1
 31
457.0
  0
SPLINE
  5
37
330
17
100
AcDbEntity
  8
0
100
AcDbSpline
 70
0
 71
8
 72
32
 73
23
 74
0
 40
0.0
 40
0.0
 40
0.0
 40
0.0
 40
0.0
 40
0.0
 40
0.0
 40
0.0
 40
0.0
 40
0.2090280771085989
 40
0.2090280771085989
 40
0.2090280771085989
 40
0.2090280771085989
 40
0.2090280771085989
 40
0.2090280771085989
 40
0.2090280771085989
 40
0.9041004147678439
 40
0.9041004147678439
 40
0.9041004147678439
 40
0.9041004147678439
 40
0.9041004147678439
 40
0.9041004147678439
 40
0.9041004147678439
 40
1.0
 40
1.0
 40
1.0
 40
1.0
 40
1.0
 40
1.0
 40
1.0
 40
1.0
 40
1.0
 10
60.58306508055882
 20
157.900000000132
 30
457.00000000000006
 10
60.50264575066198
 20
158.4821001206793
 30
457.0
 10
60.42157622671459
 20
159.06411013541575
 30
457.0
 10
60.339845640792646
 20
159.6460277129068
 30
457.0
 10
60.25744267299658
 20
160.22785042866448
 30
457.0
 10
60.174355520688124
 20
160.80957576116114
 30
457.0
 10
60.090571864450865
 20
161.39120108741642
 30
457.0
 10
60.00607883039173
 20
161.97272367810672
 30
457.0
 10
59.637498133870224
 20
164.4875024141396
 30
457.0
 10
59.34614256629228
 20
166.41967933590345
 30
457.0
 10
59.04630208191362
 20
168.35057267014085
 30
457.0
 10
58.73740610060669
 20
170.28005356175947
 30
457.0
 10
58.418798787195435
 20
172.20796171261
 30
457.0
 10
58.08971128162973
 20
174.13410079278495
 30
457.0
 10
57.7492149980083
 20
176.0582306384793
 30
457.0
 10
57.347444210436706
 20
178.24521177166275
 30
457.0
 10
57.29849350319408
 20
178.5103222512021
 30
457.0
 10
57.249300803561276
 20
178.7753870376511
 30
457.0
 10
57.19986296844961
 20
179.04040544796777
 30
457.0
 10
57.15017677323889
 20
179.3053767521995
 30
457.0
 10
57.10023890641733
 20
179.5703001722959
 30
457.0
 10
57.05004596426839
 20
179.83517488093915
 30
457.0
 10
56.999594445408114
 20
180.10000000034776
 30
457.0
  0
LINE
  5
38
330
17
100
AcDbEntity
  8
0
100
AcDbLine
 10
30.614194405273814
 20
157.9
 30
457.0
 11
60.583065079604324
 21
157.9
 31
457.0
  0
SPLINE
  5
39
330
17
100
AcDbEntity
  8
0
100
AcDbSpline
 70
0
 71
1
 72
4
 73
2
 74
0
 40
0.0
 40
0.0
 40
1.0
 40
1.0
 10
30.614194401006372
 20
157.90000060000042
 30
457.0
 10
30.614194401006372
 20
154.09999939999918
 30
457.0
  0
LINE
  5
3A
330
17
100
AcDbEntity
  8
0
100
AcDbLine
 10
30.614194405273814
 20
154.1
 30
457.0
 11
61.096031552295564
 21
154.1
 31
457.0
  0
SPLINE
  5
3B
330
17
100
AcDbEntity
  8
0
100
AcDbSpline
 70
0
 71
8
 72
25
 73
16
 74
0
 40
0.0
 40
0.0
 40
0.0
 40
0.0
 40
0.0
 40
0.0
 40
0.0
 40
0.0
 40
0.0
 40
0.24567197781395914
 40
0.24567197781395914
 40
0.24567197781395914
 40
0.24567197781395914
 40
0.24567197781395914
 40
0.24567197781395914
 40
0.24567197781395914
 40
1.0
 40
1.0
 40
1.0
 40
1.0
 40
1.0
 40
1.0
 40
1.0
 40
1.0
 40
1.0
 10
63.68350813422585
 20
131.9000000021283
 30
457.0
 10
63.61323823368046
 20
132.5827746715385
 30
457.0
 10
63.542386557646196
 20
133.26548933516568
 30
457.0
 10
63.47094687536514
 20
133.9481427749313
 30
457.0
 10
63.39891270364121
 20
134.63073373182073
 30
457.0
 10
63.32627729480751
 20
135.3132609047071
 30
457.0
 10
63.253033623817046
 20
135.9957229490893
 30
457.0
 10
63.17917437445686
 20
136.67811847574308
 30
457.0
 10
62.875995923116804
 20
139.45551123992666
 30
457.0
 10
62.64142572548805
 20
141.54992461368076
 30
457.0
 10
62.40075966026798
 20
143.6436498775334
 30
457.0
 10
62.15374949429239
 20
145.73664160503023
 30
457.0
 10
61.900114642705375
 20
147.8288444684477
 30
457.0
 10
61.63953658143615
 20
149.92019251162753
 30
457.0
 10
61.3716505397273
 20
152.01060807692588
 30
457.0
 10
61.09603155023012
 20
154.09999999972746
 30
457.0
  0
LINE
  5
3C
330
17
100
AcDbEntity
  8
0
100
AcDbLine
 10
30.614194405273814
 20
131.9
 30
457.0
 11
63.68350811354618
 21
131.9
 31
457.0
  0
SPLINE
  5
3D
330
17
100
AcDbEntity
  8
0
100
AcDbSpline
 70
0
 71
1
 72
4
 73
2
 74
0
 40
0.0
 40
0.0
 40
1.0
 40
1.0
 10
30.614194401006365
 20
131.90000060000256
 30
457.0
 10
30.614194401006365
 20
128.09999939999764
 30
457.0
  0
LINE
  5
3E
330
17
100
AcDbEntity
  8
0
100
AcDbLine
 10
30.614194405273814
 20
128.1
 30
457.0
 11
64.0667484032465
 21
128.1
 31
457.0
  0
SPLINE
  5
3F
330
17
100
AcDbEntity
  8
0
100
AcDbSpline
 70
0
 71
8
 72
25
 73
16
 74
0
 40
0.0
 40
0.0
 40
0.0
 40
0.0
 40
0.0
 40
0.0
 40
0.0
 40
0.0
 40
0.0
 40
0.243197865166003
 40
0.243197865166003
 40
0.243197865166003
 40
0.243197865166003
 40
0.243197865166003
 40
0.243197865166003
 40
0.243197865166003
 40
1.0
 40
1.0
 40
1.0
 40
1.0
 40
1.0
 40
1.0
 40
1.0
 40
1.0
 40
1.0
 10
66.01770932988398
 20
105.90000000217978
 30
457.0
 10
65.96517083056497
 20
106.5773649082816
 30
457.0
 10
65.91219236260726
 20
107.2543917149612
 30
457.0
 10
65.85877310596135
 20
107.93107764030596
 30
457.0
 10
65.80491228029686
 20
108.60741967793084
 30
457.0
 10
65.75060910772942
 20
109.28341459363102
 30
457.0
 10
65.69586277554758
 20
109.9590589220345
 30
457.0
 10
65.64067239893971
 20
110.63434896325467
 30
457.0
 10
65.41190634796803
 20
113.40958638496241
 30
457.0
 10
65.23420850969751
 20
115.50951306844749
 30
457.0
 10
65.05186486330044
 20
117.6090443912735
 30
457.0
 10
64.8647838484691
 20
119.70816119829473
 30
457.0
 10
64.67286036925617
 20
121.80684156317307
 30
457.0
 10
64.47597447875648
 20
123.9050606612887
 30
457.0
 10
64.27398932941131
 20
126.00279057033346
 30
457.0
 10
64.06674838893504
 20
128.09999999858582
 30
457.0
  0
LINE
  5
40
330
17
100
AcDbEntity
  8
0
100
AcDbLine
 10
30.614194405273814
 20
105.9
 30
457.0
 11
66.0177093017808
 21
105.9
 31
457.0
  0
SPLINE
  5
41
330
17
100
AcDbEntity
  8
0
100
AcDbSpline
 70
0
 71
1
 72
4
 73
2
 74
0
 40
0.0
 40
0.0
 40
1.0
 40
1.0
 10
30.614194401006365
 20
105.90000060000206
 30
457.0
 10
30.614194401006365
 20
102.09999939999993
 30
457.0
  0
LINE
  5
42
330
17
100
AcDbEntity
  8
0
100
AcDbLine
 10
30.614194405273814
 20
102.1
 30
457.0
 11
66.30606596057694
 21
102.1
 31
457.0
  0
SPLINE
  5
43
330
17
100
AcDbEntity
  8
0
100
AcDbSpline
 70
0
 71
8
 72
25
 73
16
 74
0
 40
0.0
 40
0.0
 40
0.0
 40
0.0
 40
0.0
 40
0.0
 40
0.0
 40
0.0
 40
0.0
 40
0.15969021434155442
 40
0.15969021434155442
 40
0.15969021434155442
 40
0.15969021434155442
 40
0.15969021434155442
 40
0.15969021434155442
 40
0.15969021434155442
 40
1.0
 40
1.0
 40
1.0
 40
1.0
 40
1.0
 40
1.0
 40
1.0
 40
1.0
 40
1.0
 10
67.74477893760894
 20
79.89999999989034
 30
457.0000000000001
 10
67.72008894164483
 20
80.34338900941674
 30
457.0000000000001
 10
67.695220320909
 20
80.78676813015207
 30
457.0000000000001
 10
67.6701726791533
 20
81.23013726137201
 30
457.0000000000001
 10
67.64494561787554
 20
81.67349630183702
 30
457.0000000000001
 10
67.61953873629852
 20
82.11684514979193
 30
457.0000000000001
 10
67.5939516313484
 20
82.56018370296549
 30
457.00000000000006
 10
67.56818389763241
 20
83.00351185857004
 30
457.0
 10
67.40568946850559
 20
85.77962219544287
 30
457.0
 10
67.26413099901981
 20
88.11212114751103
 30
457.0
 10
67.11750059382175
 20
90.44431039863238
 30
457.0
 10
66.96573721057385
 20
92.77617323278527
 30
457.0
 10
66.80877788973773
 20
95.10769218879976
 30
457.0
 10
66.64655775457412
 20
97.4388490603576
 30
457.0
 10
66.47901001114289
 20
99.76962489599234
 30
457.0
 10
66.30606594830307
 20
102.09999999908909
 30
457.0
  0
LINE
  5
44
330
17
100
AcDbEntity
  8
0
100
AcDbLine
 10
30.614194405273814
 20
79.9
 30
457.0
 11
67.74477893957871
 21
79.9
 31
457.0
  0
SPLINE
  5
45
330
17
100
AcDbEntity
  8
0
100
AcDbSpline
 70
0
 71
1
 72
4
 73
2
 74
0
 40
0.0
 40
0.0
 40
1.0
 40
1.0
 10
30.614194401006365
 20
79.90000060000001
 30
457.0
 10
30.614194401006365
 20
76.09999939999999
 30
457.0
  0
LINE
  5
46
330
17
100
AcDbEntity
  8
0
100
AcDbLine
 10
30.614194405273814
 20
76.1
 30
457.0
 11
67.95065153658705
 21
76.1
 31
457.0
  0
SPLINE
  5
47
330
17
100
AcDbEntity
  8
0
100
AcDbSpline
 70
0
 71
8
 72
18
 73
9
 74
0
 40
0.0
 40
0.0
 40
0.0
 40
0.0
 40
0.0
 40
0.0
 40
0.0
 40
0.0
 40
0.0
 40
1.0
 40
1.0
 40
1.0
 40
1.0
 40
1.0
 40
1.0
 40
1.0
 40
1.0
 40
1.0
 10
68.93171138324871
 20
53.89999999992372
 30
457.0
 10
68.83196201963025
 20
56.67595158602113
 30
457.0
 10
68.7258398228489
 20
59.45167340095516
 30
457.0
 10
68.61326573289406
 20
62.22714535492443
 30
457.0
 10
68.49415796046036
 20
65.00234658897146
 30
457.0
 10
68.3684318653143
 20
67.77725547108949
 30
457.0
 10
68.23599982252505
 20
70.55184959196849
 30
457.0
 10
68.09677107121998
 20
73.32610576052417
 30
457.0
 10
67.95065153133763
 20
76.09999999972348
 30
457.0
  0
LINE
  5
48
330
17
100
AcDbEntity
  8
0
100
AcDbLine
 10
30.614194405273814
 20
53.9
 30
457.0
 11
68.93171138537156
 21
53.9
 31
457.0
  0
SPLINE
  5
49
330
17
100
AcDbEntity
  8
0
100
AcDbSpline
 70
0
 71
1
 72
4
 73
2
 74
0
 40
0.0
 40
0.0
 40
1.0
 40
1.0
 10
30.614194401006365
 20
53.90000060000026
 30
457.0
 10
30.614194401006365
 20
50.09999939999937
 30
457.0
  0
LINE
  5
4A
330
17
100
AcDbEntity
  8
0
100
AcDbLine
 10
30.614194405273814
 20
50.1
 30
457.0
 11
69.06304962764352
 21
50.1
 31
457.0
  0
SPLINE
  5
4B
330
17
100
AcDbEntity
  8
0
100
AcDbSpline
 70
0
 71
8
 72
18
 73
9
 74
0
 40
0.0
 40
0.0
 40
0.0
 40
0.0
 40
0.0
 40
0.0
 40
0.0
 40
0.0
 40
0.0
 40
1.0
 40
1.0
 40
1.0
 40
1.0
 40
1.0
 40
1.0
 40
1.0
 40
1.0
 40
1.0
 10
69.62802553422257
 20
27.899999999583848
 30
457.0
 10
69.5783934405939
 20
30.67548068024975
 30
457.0
 10
69.52289893334174
 20
33.450857119120485
 30
457.0
 10
69.46147755011361
 20
36.226113711369166
 30
457.0
 10
69.39406259183538
 20
39.001234100016724
 30
457.0
 10
69.32058503676512
 20
41.77620117331385
 30
457.0
 10
69.24097344236888
 20
44.55099706193178
 30
457.0
 10
69.15515384040927
 20
47.32560313567495
 30
457.0
 10
69.06304962149773
 20
50.099999999795955
 30
457.0
  0
LINE
  5
4C
330
17
100
AcDbEntity
  8
0
100
AcDbLine
 10
30.614194405273814
 20
27.9
 30
457.0
 11
69.62802555749364
 21
27.9
 31
457.0
  0
SPLINE
  5
4D
330
17
100
AcDbEntity
  8
0
100
AcDbSpline
 70
0
 71
1
 72
4
 73
2
 74
0
 40
0.0
 40
0.0
 40
1.0
 40
1.0
 10
30.614194401006372
 20
27.900000600000002
 30
457.0
 10
30.614194401006372
 20
24.099999399999998
 30
457.0
  0
LINE
  5
4E
330
17
100
AcDbEntity
  8
0
100
AcDbLine
 10
30.614194405273814
 20
24.1
 30
457.0
 11
69.6911873550346
 21
24.1
 31
457.0
  0
SPLINE
  5
4F
330
17
100
AcDbEntity
  8
0
100
AcDbSpline
 70
0
 71
8
 72
18
 73
9
 74
0
 40
0.0
 40
0.0
 40
0.0
 40
0.0
 40
0.0
 40
0.0
 40
0.0
 40
0.0
 40
0.0
 40
1.0
 40
1.0
 40
1.0
 40
1.0
 40
1.0
 40
1.0
 40
1.0
 40
1.0
 40
1.0
 10
69.87340067347023
 20
1.9000000000552058
 30
457.0
 10
69.87008237898455
 20
4.675120057192263
 30
457.0
 10
69.86131402435078
 20
7.450230120240753
 30
457.0
 10
69.84704337515967
 20
10.22531896112829
 30
457.0
 10
69.82721621315015
 20
13.00037461371279
 30
457.0
 10
69.80177632989209
 20
15.77538437007103
 30
457.0
 10
69.77066548320091
 20
18.550334777770104
 30
457.0
 10
69.73382333234471
 20
21.325211637406078
 30
457.0
 10
69.69118735898513
 20
24.10000000006066
 30
457.0
  0
LINE
  5
50
330
17
100
AcDbEntity
  8
0
100
AcDbLine
 10
30.614194405273814
 20
1.9
 30
457.0
 11
69.87340062729159
 21
1.9
 31
457.0
  0
SPLINE
  5
51
330
17
100
AcDbEntity
  8
0
100
AcDbSpline
 70
0
 71
1
 72
4
 73
2
 74
0
 40
0.0
 40
0.0
 40
0.9999993684216398
 40
0.9999993684216398
 10
30.614194401006365
 20
1.9000006000000558
 30
457.0
 10
30.614194401006365
 20
-6.553790374438061e-17
 30
457.0
  0
SPLINE
  5
52
330
17
100
AcDbEntity
  8
0
100
AcDbSpline
 70
0
 71
1
 72
4
 73
2
 74
0
 40
0.0
 40
0.0
 40
1.0
 40
1.0
 10
30.614194401006365
 20
-1.9000006000000011
 30
457.0
 10
30.614194401006365
 20
1.2000000211287443e-06
 30
457.0
  0
LINE
  5
53
330
17
100
AcDbEntity
  8
0
100
AcDbLine
 10
30.61419440527382
 20
-1.9
 30
457.0
 11
69.87348468277678
 21
-1.9
 31
457.0
  0
SPLINE
  5
54
330
17
100
AcDbEntity
  8
0
100
AcDbSpline
 70
0
 71
8
 72
18
 73
9
 74
0
 40
0.0
 40
0.0
 40
0.0
 40
0.0
 40
0.0
 40
0.0
 40
0.0
 40
0.0
 40
0.0
 40
1.0
 40
1.0
 40
1.0
 40
1.0
 40
1.0
 40
1.0
 40
1.0
 40
1.0
 40
1.0
 10
69.69221046859688
 20
-24.099999999580167
 30
457.0
 10
69.73473857086543
 20
-21.325213921930466
 30
457.00000000000006
 10
69.77146893568873
 20
-18.55033955528293
 30
457.0000000000001
 10
69.80246468320604
 20
-15.775391532172396
 30
457.00000000000017
 10
69.82778674921342
 20
-13.000383644062698
 30
457.00000000000017
 10
69.847493964246
 20
-10.225328844442055
 30
457.00000000000017
 10
69.86164312467838
 20
-7.450239251653783
 30
457.00000000000017
 10
69.87028905777389
 20
-4.67512615154298
 30
457.00000000000017
 10
69.87348468261413
 20
-1.8999999999998134
 30
457.00000000000017
  0
LINE
  5
55
330
17
100
AcDbEntity
  8
0
100
AcDbLine
 10
30.61419440527382
 20
-24.1
 30
457.0
 11
69.6922104959909
 21
-24.1
 31
457.0
  0
SPLINE
  5
56
330
17
100
AcDbEntity
  8
0
100
AcDbSpline
 70
0
 71
1
 72
4
 73
2
 74
0
 40
0.0
 40
0.0
 40
1.0
 40
1.0
 10
30.614194401006372
 20
-27.900000600000034
 30
457.0
 10
30.614194401006372
 20
-24.099999399999938
 30
457.0
  0
LINE
  5
57
330
17
100
AcDbEntity
  8
0
100
AcDbLine
 10
30.61419440527382
 20
-27.9
 30
457.0
 11
69.6291929438967
 21
-27.9
 31
457.0
  0
SPLINE
  5
58
330
17
100
AcDbEntity
  8
0
100
AcDbSpline
 70
0
 71
8
 72
18
 73
9
 74
0
 40
0.0
 40
0.0
 40
0.0
 40
0.0
 40
0.0
 40
0.0
 40
0.0
 40
0.0
 40
0.0
 40
1.0
 40
1.0
 40
1.0
 40
1.0
 40
1.0
 40
1.0
 40
1.0
 40
1.0
 40
1.0
 10
69.06487854174526
 20
-50.100000000385435
 30
457.0
 10
69.15692451275446
 20
-47.325600513044336
 30
457.0
 10
69.24267766468115
 20
-44.55099234327898
 30
457.0
 10
69.32221521135747
 20
-41.77619511471265
 30
457.0
 10
69.39561173049205
 20
-39.00122759169669
 30
457.0
 10
69.46293927892214
 20
-36.22610768367415
 30
457.0
 10
69.52426749533751
 20
-33.450852449089126
 30
457.0
 10
69.57966369241129
 20
-30.67547809892256
 30
457.0
 10
69.62919294027253
 20
-27.89999999993533
 30
457.0
  0
LINE
  5
59
330
17
100
AcDbEntity
  8
0
100
AcDbLine
 10
30.61419440527382
 20
-50.1
 30
457.0
 11
69.06487853012842
 21
-50.1
 31
457.0
  0
SPLINE
  5
5A
330
17
100
AcDbEntity
  8
0
100
AcDbSpline
 70
0
 71
1
 72
4
 73
2
 74
0
 40
0.0
 40
0.0
 40
1.0
 40
1.0
 10
30.614194401006365
 20
-53.9000006
 30
457.0
 10
30.614194401006365
 20
-50.0999994
 30
457.0
  0
LINE
  5
5B
330
17
100
AcDbEntity
  8
0
100
AcDbLine
 10
30.61419440527382
 20
-53.9
 30
457.0
 11
68.93361331071507
 21
-53.9
 31
457.0
  0
SPLINE
  5
5C
330
17
100
AcDbEntity
  8
0
100
AcDbSpline
 70
0
 71
8
 72
18
 73
9
 74
0
 40
0.0
 40
0.0
 40
0.0
 40
0.0
 40
0.0
 40
0.0
 40
0.0
 40
0.0
 40
0.0
 40
1.0
 40
1.0
 40
1.0
 40
1.0
 40
1.0
 40
1.0
 40
1.0
 40
1.0
 40
1.0
 10
67.95265789652655
 20
-76.09999999890123
 30
457.0
 10
68.09880357977622
 20
-73.32611176206636
 30
457.0
 10
68.23804611249574
 20
-70.55185853242295
 30
457.0
 10
68.3704801427887
 20
-67.77726508497794
 30
457.0
 10
68.49619701807815
 20
-65.00235530843074
 30
457.0
 10
68.61528495292274
 20
-62.22715221148755
 30
457.0
 10
68.72782917970252
 20
-59.45167792852942
 30
457.0
 10
68.83391208411844
 20
-56.67595372471525
 30
457.0
 10
68.933613327449
 20
-53.90000000060101
 30
457.0
  0
LINE
  5
5D
330
17
100
AcDbEntity
  8
0
100
AcDbLine
 10
30.61419440527382
 20
-76.1
 30
457.0
 11
67.95265791738191
 21
-76.1
 31
457.0
  0
SPLINE
  5
5E
330
17
100
AcDbEntity
  8
0
100
AcDbSpline
 70
0
 71
1
 72
4
 73
2
 74
0
 40
0.0
 40
0.0
 40
1.0
 40
1.0
 10
30.614194401006365
 20
-79.90000060000018
 30
457.0
 10
30.614194401006365
 20
-76.09999939999999
 30
457.0
  0
LINE
  5
5F
330
17
100
AcDbEntity
  8
0
100
AcDbLine
 10
30.61419440527382
 20
-79.9
 30
457.0
 11
67.74673857461943
 21
-79.9
 31
457.0
  0
SPLINE
  5
60
330
17
100
AcDbEntity
  8
0
100
AcDbSpline
 70
0
 71
8
 72
25
 73
16
 74
0
 40
0.0
 40
0.0
 40
0.0
 40
0.0
 40
0.0
 40
0.0
 40
0.0
 40
0.0
 40
0.0
 40
0.15758096235902863
 40
0.15758096235902863
 40
0.15758096235902863
 40
0.15758096235902863
 40
0.15758096235902863
 40
0.15758096235902863
 40
0.15758096235902863
 40
1.0
 40
1.0
 40
1.0
 40
1.0
 40
1.0
 40
1.0
 40
1.0
 40
1.0
 40
1.0
 10
66.30728297456147
 20
-102.10000000515431
 30
457.0
 10
66.33973811349398
 20
-101.66299055139166
 30
457.0
 10
66.37200305254363
 20
-101.22596696193845
 30
457.0
 10
66.40407824650799
 20
-100.78892936763779
 30
457.0
 10
66.43596415067607
 20
-100.35187789853236
 30
457.0
 10
66.4676612235773
 20
-99.9148126840923
 30
457.0
 10
66.49916992714907
 20
-99.47773385316026
 30
457.0
 10
66.53049071502423
 20
-99.04064153271689
 30
457.0
 10
66.72806071242371
 20
-96.26679320137166
 30
457.0
 10
66.88913866405315
 20
-93.92967383909206
 30
457.0
 10
67.04492581034293
 20
-91.59219535844065
 30
457.0
 10
67.19548804937331
 20
-89.25437489792975
 30
457.0
 10
67.34088930360747
 20
-86.91622913617027
 30
457.0
 10
67.48119160871761
 20
-84.57777429522004
 30
457.0
 10
67.61645519541764
 20
-82.23902614366504
 30
457.0
 10
67.74673856489204
 20
-79.89999999945822
 30
457.0
  0
LINE
  5
61
330
17
100
AcDbEntity
  8
0
100
AcDbLine
 10
30.61419440527382
 20
-102.1
 30
457.0
 11
66.30728290515835
 21
-102.1
 31
457.0
  0
SPLINE
  5
62
330
17
100
AcDbEntity
  8
0
100
AcDbSpline
 70
0
 71
1
 72
4
 73
2
 74
0
 40
0.0
 40
0.0
 40
1.0
 40
1.0
 10
30.614194401006365
 20
-105.90000060000003
 30
457.0
 10
30.614194401006365
 20
-102.09999939999999
 30
457.0
  0
LINE
  5
63
330
17
100
AcDbEntity
  8
0
100
AcDbLine
 10
30.61419440527382
 20
-105.9
 30
457.0
 11
66.01870870471613
 21
-105.9
 31
457.0
  0
SPLINE
  5
64
330
17
100
AcDbEntity
  8
0
100
AcDbSpline
 70
0
 71
8
 72
32
 73
23
 74
0
 40
0.0
 40
0.0
 40
0.0
 40
0.0
 40
0.0
 40
0.0
 40
0.0
 40
0.0
 40
0.0
 40
0.43437243899813516
 40
0.43437243899813516
 40
0.43437243899813516
 40
0.43437243899813516
 40
0.43437243899813516
 40
0.43437243899813516
 40
0.43437243899813516
 40
0.7441185887489526
 40
0.7441185887489526
 40
0.7441185887489526
 40
0.7441185887489526
 40
0.7441185887489526
 40
0.7441185887489526
 40
0.7441185887489526
 40
1.0
 40
1.0
 40
1.0
 40
1.0
 40
1.0
 40
1.0
 40
1.0
 40
1.0
 40
1.0
 10
64.06590394669585
 20
-128.09999999762715
 30
457.00000000000006
 10
64.18470272892829
 20
-126.89904047045303
 30
457.00000000000006
 10
64.30177561376189
 20
-125.69791030930006
 30
457.00000000000006
 10
64.41715192150119
 20
-124.49661509228952
 30
457.00000000000006
 10
64.53085886940907
 20
-123.29515985306551
 30
457.00000000000006
 10
64.6429217382331
 20
-122.09354910003285
 30
457.00000000000006
 10
64.75336401487996
 20
-120.89178683306525
 30
457.00000000000006
 10
64.86220752975711
 20
-119.68987655986072
 30
457.0
 10
65.04596213975833
 20
-117.63064910260982
 30
457.0
 10
65.12173568853581
 20
-116.7724318962436
 30
457.0
 10
65.19679142090477
 20
-115.91323761919824
 30
457.0
 10
65.27112750413674
 20
-115.05313419565414
 30
457.0
 10
65.34474210550255
 20
-114.19218954979632
 30
457.0
 10
65.41763339227238
 20
-113.3304716058146
 30
457.0
 10
65.48979953171583
 20
-112.46804828790327
 30
457.0
 10
65.6202546076418
 20
-110.89201269427144
 30
457.0
 10
65.67874206957273
 20
-110.17899408753703
 30
457.0
 10
65.73670435606594
 20
-109.46593243994494
 30
457.0
 10
65.79414348427966
 20
-108.75282836940286
 30
457.0
 10
65.85106142675029
 20
-108.03968248391106
 30
457.0
 10
65.90746023607844
 20
-107.32649539246337
 30
457.0
 10
65.96334199093295
 20
-106.61326770002194
 30
457.0
 10
66.01870875618015
 20
-105.90000000399485
 30
457.0
  0
LINE
  5
65
330
17
100
AcDbEntity
  8
0
100
AcDbLine
 10
30.61419440527382
 20
-128.1
 30
457.0
 11
64.06590397068426
 21
-128.1
 31
457.0
  0
SPLINE
  5
66
330
17
100
AcDbEntity
  8
0
100
AcDbSpline
 70
0
 71
1
 72
4
 73
2
 74
0
 40
0.0
 40
0.0
 40
1.0
 40
1.0
 10
30.614194401006365
 20
-131.9000006
 30
457.0
 10
30.614194401006365
 20
-128.09999939999992
 30
457.0
  0
LINE
  5
67
330
17
100
AcDbEntity
  8
0
100
AcDbLine
 10
30.61419440527382
 20
-131.9
 30
457.0
 11
63.6822643289968
 21
-131.9
 31
457.0
  0
SPLINE
  5
68
330
17
100
AcDbEntity
  8
0
100
AcDbSpline
 70
0
 71
8
 72
18
 73
9
 74
0
 40
0.0
 40
0.0
 40
0.0
 40
0.0
 40
0.0
 40
0.0
 40
0.0
 40
0.0
 40
0.0
 40
1.0
 40
1.0
 40
1.0
 40
1.0
 40
1.0
 40
1.0
 40
1.0
 40
1.0
 40
1.0
 10
61.09214351138768
 20
-154.09999999961897
 30
457.0
 10
61.4578785681057
 20
-151.33013056202452
 30
457.0
 10
61.81001876228089
 20
-148.55847636719733
 30
457.0
 10
62.14955440969891
 20
-145.78522928422169
 30
457.0
 10
62.47729095079779
 20
-143.0105513624792
 30
457.0
 10
62.79390007449394
 20
-140.23458067078698
 30
457.0
 10
63.0999517115839
 20
-137.4574349298556
 30
457.0
 10
63.39593349877518
 20
-134.6792137140571
 30
457.0
 10
63.68226431439999
 20
-131.89999999849618
 30
457.0
  0
LINE
  5
69
330
17
100
AcDbEntity
  8
0
100
AcDbLine
 10
30.61419440527382
 20
-154.1
 30
457.0
 11
61.092143514273374
 21
-154.1
 31
457.0
  0
SPLINE
  5
6A
330
17
100
AcDbEntity
  8
0
100
AcDbSpline
 70
0
 71
1
 72
4
 73
2
 74
0
 40
0.0
 40
0.0
 40
1.0
 40
1.0
 10
30.614194401006372
 20
-157.90000060000003
 30
457.0
 10
30.614194401006372
 20
-154.0999994
 30
457.0
  0
LINE
  5
6B
330
17
100
AcDbEntity
  8
0
100
AcDbLine
 10
30.61419440527382
 20
-157.9
 30
457.0
 11
60.578692146928105
 21
-157.9
 31
457.0
  0
SPLINE
  5
6C
330
17
100
AcDbEntity
  8
0
100
AcDbSpline
 70
0
 71
8
 72
25
 73
16
 74
0
 40
0.0
 40
0.0
 40
0.0
 40
0.0
 40
0.0
 40
0.0
 40
0.0
 40
0.0
 40
0.0
 40
0.3200652839963641
 40
0.3200652839963641
 40
0.3200652839963641
 40
0.3200652839963641
 40
0.3200652839963641
 40
0.3200652839963641
 40
0.3200652839963641
 40
1.0
 40
1.0
 40
1.0
 40
1.0
 40
1.0
 40
1.0
 40
1.0
 40
1.0
 40
1.0
 10
56.99247542842507
 20
-180.09999999786623
 30
457.0
 10
57.16095714576166
 20
-179.21613923528264
 30
457.0
 10
57.32655980514048
 20
-178.3317295747844
 30
457.0
 10
57.489412720147016
 20
-177.44680767171815
 30
457.0
 10
57.64963288089389
 20
-176.5614054296998
 30
457.0
 10
57.80732704483414
 20
-175.67555041852313
 30
457.0
 10
57.96259316443822
 20
-174.78926616054952
 30
457.0
 10
58.11552157808772
 20
-173.90257237313818
 30
457.0
 10
58.586284325516
 20
-171.1309905652457
 30
457.0
 10
58.89619314572789
 20
-169.24477059518233
 30
457.0
 10
59.19672157707021
 20
-167.35701566277842
 30
457.0
 10
59.48852875159331
 20
-165.46788521991056
 30
457.0
 10
59.772174405600474
 20
-163.5775140039544
 30
457.0
 10
60.04814289087399
 20
-161.68601569930155
 30
457.0
 10
60.31685756728026
 20
-159.79348512933655
 30
457.0
 10
60.578692145005995
 20
-157.8999999997343
 30
457.0
  0
LINE
  5
6D
330
17
100
AcDbEntity
  8
0
100
AcDbLine
 10
30.61419440527382
 20
-180.1
 30
457.0
 11
56.99247543961826
 21
-180.1
 31
457.0
  0
SPLINE
  5
6E
330
17
100
AcDbEntity
  8
0
100
AcDbSpline
 70
0
 71
1
 72
4
 73
2
 74
0
 40
0.0
 40
0.0
 40
1.0
 40
1.0
 10
30.614194401006365
 20
-183.9000006000001
 30
457.0
 10
30.614194401006365
 20
-180.09999939999994
 30
457.0
  0
LINE
  5
6F
330
17
100
AcDbEntity
  8
0
100
AcDbLine
 10
30.61419440527382
 20
-183.9
 30
457.0
 11
56.24265631422651
 21
-183.9
 31
457.0
  0
SPLINE
  5
70
330
17
100
AcDbEntity
  8
0
100
AcDbSpline
 70
0
 71
8
 72
46
 73
37
 74
0
 40
0.0
 40
0.0
 40
0.0
 40
0.0
 40
0.0
 40
0.0
 40
0.0
 40
0.0
 40
0.0
 40
0.07328981137431412
 40
0.07328981137431412
 40
0.07328981137431412
 40
0.07328981137431412
 40
0.07328981137431412
 40
0.07328981137431412
 40
0.07328981137431412
 40
0.2435893861215681
 40
0.2435893861215681
 40
0.2435893861215681
 40
0.2435893861215681
 40
0.2435893861215681
 40
0.2435893861215681
 40
0.2435893861215681
 40
0.4990001803016567
 40
0.4990001803016567
 40
0.4990001803016567
 40
0.4990001803016567
 40
0.4990001803016567
 40
0.4990001803016567
 40
0.4990001803016567
 40
0.7936059802509269
 40
0.7936059802509269
 40
0.7936059802509269
 40
0.7936059802509269
 40
0.7936059802509269
 40
0.7936059802509269
 40
0.7936059802509269
 40
1.0
 40
1.0
 40
1.0
 40
1.0
 40
1.0
 40
1.0
 40
1.0
 40
1.0
 40
1.0
 10
50.098045002186055
 20
-206.10000000393134
 30
457.0
 10
50.164409495437184
 20
-205.93508613315004
 30
457.0
 10
50.23024680141289
 20
-205.76995924301593
 30
457.0
 10
50.29556608804108
 20
-205.6046247958414
 30
457.0
 10
50.36037629051786
 20
-205.4390878671069
 30
457.0
 10
50.42468612580592
 20
-205.27335315239554
 30
457.0
 10
50.48850410626723
 20
-205.10742497396495
 30
457.0
 10
50.55183855309812
 20
-204.9413072872814
 30
457.0
 10
50.7607598049472
 20
-204.38857299942333
 30
457.0
 10
50.906340279019346
 20
-203.9956219685916
 30
457.0
 10
51.05143007433975
 20
-203.59609983065664
 30
457.0
 10
51.196020232799825
 20
-203.18995582091958
 30
457.0
 10
51.34010179629409
 20
-202.77713917467307
 30
457.0
 10
51.48366580672018
 20
-202.3575991272014
 30
457.0
 10
51.6267033059787
 20
-201.9312849137804
 30
457.0
 10
51.98292610836643
 20
-200.84853514704292
 30
457.0
 10
52.19550542425678
 20
-200.18336131697157
 30
457.0
 10
52.40693666866848
 20
-199.50262838851316
 30
457.0
 10
52.61672468280999
 20
-198.80623350698465
 30
457.0
 10
52.825667344014796
 20
-198.09459190143255
 30
457.0
 10
53.03312875913074
 20
-197.36772264001246
 30
457.0
 10
53.23939755820299
 20
-196.6260276020329
 30
457.0
 10
53.68072916890501
 20
-194.99761881462942
 30
457.0
 10
53.91062489918717
 20
-194.12363333542865
 30
457.0
 10
54.13455246792754
 20
-193.24808344662452
 30
457.0
 10
54.35295211791228
 20
-192.3711325312816
 30
457.0
 10
54.566199937877876
 20
-191.49291776367454
 30
457.0
 10
54.77462436861565
 20
-190.61355424864504
 30
457.0
 10
54.97851672290483
 20
-189.7331376400817
 30
457.0
 10
55.31798417808302
 20
-188.23426207707237
 30
457.0
 10
55.45573388735059
 20
-187.61630649164394
 30
457.0
 10
55.59147397820483
 20
-186.9979050164298
 30
457.0
 10
55.72528571021965
 20
-186.37908204916818
 30
457.0
 10
55.85724359843394
 20
-185.75986007761654
 30
457.0
 10
55.98741633135408
 20
-185.1402598636669
 30
457.0
 10
56.11586751635516
 20
-184.52030059258072
 30
457.0
 10
56.24265628889566
 20
-183.89999999482234
 30
457.0
  0
LINE
  5
71
330
17
100
AcDbEntity
  8
0
100
AcDbLine
 10
30.61419440527382
 20
-206.1
 30
457.0
 11
50.09804499241645
 21
-206.1
 31
457.0
  0
SPLINE
  5
72
330
17
100
AcDbEntity
  8
0
100
AcDbSpline
 70
0
 71
1
 72
4
 73
2
 74
0
 40
0.0
 40
0.0
 40
1.0
 40
1.0
 10
30.614194401006372
 20
-209.90000060000008
 30
457.0
 10
30.614194401006372
 20
-206.09999939999992
 30
457.0
  0
LINE
  5
73
330
17
100
AcDbEntity
  8
0
100
AcDbLine
 10
30.61419440527382
 20
-209.9
 30
457.0
 11
48.403702401866816
 21
-209.9
 31
457.0
  0
SPLINE
  5
74
330
17
100
AcDbEntity
  8
0
100
AcDbSpline
 70
0
 71
8
 72
88
 73
79
 74
0
 40
0.0
 40
0.0
 40
0.0
 40
0.0
 40
0.0
 40
0.0
 40
0.0
 40
0.0
 40
0.0
 40
0.020581627224098252
 40
0.020581627224098252
 40
0.020581627224098252
 40
0.020581627224098252
 40
0.020581627224098252
 40
0.020581627224098252
 40
0.020581627224098252
 40
0.03918438006272573
 40
0.03918438006272573
 40
0.03918438006272573
 40
0.03918438006272573
 40
0.03918438006272573
 40
0.03918438006272573
 40
0.03918438006272573
 40
0.05208142591771219
 40
0.05208142591771219
 40
0.05208142591771219
 40
0.05208142591771219
 40
0.05208142591771219
 40
0.05208142591771219
 40
0.05208142591771219
 40
0.054764910826287976
 40
0.054764910826287976
 40
0.054764910826287976
 40
0.054764910826287976
 40
0.054764910826287976
 40
0.054764910826287976
 40
0.054764910826287976
 40
0.05855987197854204
 40
0.05855987197854204
 40
0.05855987197854204
 40
0.05855987197854204
 40
0.05855987197854204
 40
0.05855987197854204
 40
0.05855987197854204
 40
0.06269660283479642
 40
0.06269660283479642
 40
0.06269660283479642
 40
0.06269660283479642
 40
0.06269660283479642
 40
0.06269660283479642
 40
0.06269660283479642
 40
0.06838241239706448
 40
0.06838241239706448
 40
0.06838241239706448
 40
0.06838241239706448
 40
0.06838241239706448
 40
0.06838241239706448
 40
0.06838241239706448
 40
0.07837003004326351
 40
0.07837003004326351
 40
0.07837003004326351
 40
0.07837003004326351
 40
0.07837003004326351
 40
0.07837003004326351
 40
0.07837003004326351
 40
0.08591736126643983
 40
0.08591736126643983
 40
0.08591736126643983
 40
0.08591736126643983
 40
0.08591736126643983
 40
0.08591736126643983
 40
0.08591736126643983
 40
0.10000343036452553
 40
0.10000343036452553
 40
0.10000343036452553
 40
0.10000343036452553
 40
0.10000343036452553
 40
0.10000343036452553
 40
0.10000343036452553
 40
0.10475113072000695
 40
0.10475113072000695
 40
0.10475113072000695
 40
0.10475113072000695
 40
0.10475113072000695
 40
0.10475113072000695
 40
0.10475113072000695
 40
0.10475113072000695
 40
0.10475113072000695
 10
16.814613402911206
 20
-202.23244076689826
 30
457.0
 10
17.23173048891048
 20
-203.27536996519194
 30
457.0
 10
17.676882936719686
 20
-204.3069451304464
 30
457.0
 10
18.15039015703954
 20
-205.32617922785317
 30
457.0
 10
18.65268766439027
 20
-206.3318262131972
 30
457.0
 10
19.184339067633225
 20
-207.32237347735457
 30
457.0
 10
19.746050056259765
 20
-208.29603338505618
 30
457.0
 10
20.338723575376065
 20
-209.25071262492915
 30
457.0
 10
21.528387254873163
 20
-211.02743614753172
 30
457.0
 10
22.119272613823817
 20
-211.85309289877344
 30
457.0
 10
22.737261129326477
 20
-212.65929749113175
 30
457.0
 10
23.383367696943587
 20
-213.44380403046796
 30
457.0
 10
24.05861161817726
 20
-214.2037273800294
 30
457.0
 10
24.764015595595986
 20
-214.93554239115684
 30
457.0
 10
25.5006571115961
 20
-215.63503612807432
 30
457.0
 10
26.80307865596008
 20
-216.75620633176942
 30
457.0
 10
27.351780532988382
 20
-217.19712950990703
 30
457.0
 10
27.91633023109789
 20
-217.61826317719846
 30
457.0
 10
28.496960105273136
 20
-218.0175647283352
 30
457.0
 10
29.093707356504513
 20
-218.39266194698266
 30
457.0
 10
29.706386743025885
 20
-218.74089563774456
 30
457.0
 10
30.33454905394781
 20
-219.05938520365405
 30
457.0
 10
31.111170785481495
 20
-219.40459869880024
 30
457.0
 10
31.24519774075447
 20
-219.46247457213806
 30
457.0
 10
31.37948635270193
 20
-219.51875941049417
 30
457.0
 10
31.51403138057103
 20
-219.5734435357639
 30
457.0
 10
31.64882758360618
 20
-219.6265172698439
 30
457.0
 10
31.783869721049054
 20
-219.67797093463216
 30
457.0
 10
31.919152552138573
 20
-219.72779485202776
 30
457.0
 10
32.246319621409306
 20
-219.84412143570503
 30
457.0
 10
32.43904850067281
 20
-219.90920009717846
 30
457.0
 10
32.63283366125992
 20
-219.97113853874515
 30
457.0
 10
32.827620242076044
 20
-220.02989967983262
 30
457.0
 10
33.023361828644255
 20
-220.0853931302264
 30
457.0
 10
33.220031979393106
 20
-220.13745362320353
 30
457.0
 10
33.417607783161486
 20
-220.18589090047521
 30
457.0
 10
33.832312372424965
 20
-220.27935864097506
 30
457.0
 10
34.049060410730014
 20
-220.32355283592085
 30
457.0
 10
34.26624627478466
 20
-220.36306166542568
 30
457.0
 10
34.48384667653993
 20
-220.39775316115575
 30
457.0
 10
34.70183832794895
 20
-220.42749535479365
 30
457.0
 10
34.92019794096692
 20
-220.45215627803802
 30
457.0
 10
35.13890222755115
 20
-220.47160396260384
 30
457.0
 10
35.65897196178112
 20
-220.50508986275645
 30
457.0
 10
35.960695787614334
 20
-220.51437996567472
 30
457.0
 10
36.26269019122211
 20
-220.51320314217992
 30
457.0
 10
36.5645213888519
 20
-220.5012491413737
 30
457.0
 10
36.865731852109285
 20
-220.4782859681007
 30
457.0
 10
37.1658411611304
 20
-220.44417478279166
 30
457.0
 10
37.46434685775422
 20
-220.39888480130728
 30
457.0
 10
38.28133973614182
 20
-220.2434777956795
 30
457.0
 10
38.79563383966337
 20
-220.11019227649192
 30
457.0
 10
39.30054180367304
 20
-219.943134410908
 30
457.0
 10
39.79379547678897
 20
-219.743850353943
 30
457.0
 10
40.27378108698516
 20
-219.5146190441415
 30
457.0
 10
40.73941131405412
 20
-219.2581474607892
 30
457.0
 10
41.19002016051614
 20
-218.9773169865045
 30
457.0
 10
41.95420646045771
 20
-218.4465592345831
 30
457.0
 10
42.27450997005959
 20
-218.2057450175331
 30
457.0
 10
42.58621764101967
 20
-217.95366872381095
 30
457.0
 10
42.88944859207754
 20
-217.69139054066102
 30
457.0
 10
43.18439650668015
 20
-217.41989571946417
 30
457.0
 10
43.47131056316729
 20
-217.14007236649917
 30
457.0
 10
43.75048280907085
 20
-216.85269689819629
 30
457.0
 10
44.52944357700595
 20
-216.00921264640908
 30
457.0
 10
45.01055995626811
 20
-215.43626758521177
 30
457.0
 10
45.46794047690735
 20
-214.84372446324906
 30
457.0
 10
45.903601894506664
 20
-214.2349663140708
 30
457.0
 10
46.31936168289896
 20
-213.61272486419375
 30
457.0
 10
46.716900387648266
 20
-212.9791256741565
 30
457.0
 10
47.09778976034461
 20
-212.33570839045973
 30
457.0
 10
47.58679371465242
 20
-211.46360703604194
 30
457.0
 10
47.70832164787752
 20
-211.24279632513486
 30
457.0
 10
47.82816098320724
 20
-211.02106384719974
 30
457.0
 10
47.946362240140715
 20
-210.798452710192
 30
457.0
 10
48.062973061956185
 20
-210.57500354619955
 30
457.0
 10
48.17803852601894
 20
-210.35075465800597
 30
457.0
 10
48.29160140758762
 20
-210.12574214346884
 30
457.0
 10
48.40370240481584
 20
-209.9000000014645
 30
457.0
  0
SPLINE
  5
75
330
17
100
AcDbEntity
  8
0
100
AcDbSpline
 70
0
 71
8
 72
389
 73
380
 74
0
 40
0.0
 40
0.0
 40
0.0
 40
0.0
 40
0.0
 40
0.0
 40
0.0
 40
0.0
 40
0.0
 40
0.0024476019182085363
 40
0.0024476019182085363
 40
0.0024476019182085363
 40
0.0024476019182085363
 40
0.0024476019182085363
 40
0.0024476019182085363
 40
0.0024476019182085363
 40
0.004932823469978007
 40
0.004932823469978007
 40
0.004932823469978007
 40
0.004932823469978007
 40
0.004932823469978007
 40
0.004932823469978007
 40
0.004932823469978007
 40
0.008257124334480167
 40
0.008257124334480167
 40
0.008257124334480167
 40
0.008257124334480167
 40
0.008257124334480167
 40
0.008257124334480167
 40
0.008257124334480167
 40
0.011581425198942851
 40
0.011581425198942851
 40
0.011581425198942851
 40
0.011581425198942851
 40
0.011581425198942851
 40
0.011581425198942851
 40
0.011581425198942851
 40
0.016658825091656095
 40
0.016658825091656095
 40
0.016658825091656095
 40
0.016658825091656095
 40
0.016658825091656095
 40
0.016658825091656095
 40
0.016658825091656095
 40
0.02524844199918152
 40
0.02524844199918152
 40
0.02524844199918152
 40
0.02524844199918152
 40
0.02524844199918152
 40
0.02524844199918152
 40
0.02524844199918152
 40
0.0430907676374759
 40
0.0430907676374759
 40
0.0430907676374759
 40
0.0430907676374759
 40
0.0430907676374759
 40
0.0430907676374759
 40
0.0430907676374759
 40
0.07825290259572318
 40
0.07825290259572318
 40
0.07825290259572318
 40
0.07825290259572318
 40
0.07825290259572318
 40
0.07825290259572318
 40
0.07825290259572318
 40
0.10110128618530859
 40
0.10110128618530859
 40
0.10110128618530859
 40
0.10110128618530859
 40
0.10110128618530859
 40
0.10110128618530859
 40
0.10110128618530859
 40
0.12591813622911055
 40
0.12591813622911055
 40
0.12591813622911055
 40
0.12591813622911055
 40
0.12591813622911055
 40
0.12591813622911055
 40
0.12591813622911055
 40
0.2122013667998109
 40
0.2122013667998109
 40
0.2122013667998109
 40
0.2122013667998109
 40
0.2122013667998109
 40
0.2122013667998109
 40
0.2122013667998109
 40
0.3128746240244437
 40
0.3128746240244437
 40
0.3128746240244437
 40
0.3128746240244437
 40
0.3128746240244437
 40
0.3128746240244437
 40
0.3128746240244437
 40
0.4120149534004761
 40
0.4120149534004761
 40
0.4120149534004761
 40
0.4120149534004761
 40
0.4120149534004761
 40
0.4120149534004761
 40
0.4120149534004761
 40
0.5111543655755003
 40
0.5111543655755003
 40
0.5111543655755003
 40
0.5111543655755003
 40
0.5111543655755003
 40
0.5111543655755003
 40
0.5111543655755003
 40
0.5982608834895466
 40
0.5982608834895466
 40
0.5982608834895466
 40
0.5982608834895466
 40
0.5982608834895466
 40
0.5982608834895466
 40
0.5982608834895466
 40
0.6764696002948966
 40
0.6764696002948966
 40
0.6764696002948966
 40
0.6764696002948966
 40
0.6764696002948966
 40
0.6764696002948966
 40
0.6764696002948966
 40
0.7302163241168094
 40
0.7302163241168094
 40
0.7302163241168094
 40
0.7302163241168094
 40
0.7302163241168094
 40
0.7302163241168094
 40
0.7302163241168094
 40
0.7487384244070988
 40
0.7487384244070988
 40
0.7487384244070988
 40
0.7487384244070988
 40
0.7487384244070988
 40
0.7487384244070988
 40
0.7487384244070988
 40
0.7649802774159471
 40
0.7649802774159471
 40
0.7649802774159471
 40
0.7649802774159471
 40
0.7649802774159471
 40
0.7649802774159471
 40
0.7649802774159471
 40
0.783893706911954
 40
0.783893706911954
 40
0.783893706911954
 40
0.783893706911954
 40
0.783893706911954
 40
0.783893706911954
 40
0.783893706911954
 40
0.7936811317661573
 40
0.7936811317661573
 40
0.7936811317661573
 40
0.7936811317661573
 40
0.7936811317661573
 40
0.7936811317661573
 40
0.7936811317661573
 40
0.7991054262545575
 40
0.7991054262545575
 40
0.7991054262545575
 40
0.7991054262545575
 40
0.7991054262545575
 40
0.7991054262545575
 40
0.7991054262545575
 40
0.8037203882975429
 40
0.8037203882975429
 40
0.8037203882975429
 40
0.8037203882975429
 40
0.8037203882975429
 40
0.8037203882975429
 40
0.8037203882975429
 40
0.8062638346931673
 40
0.8062638346931673
 40
0.8062638346931673
 40
0.8062638346931673
 40
0.8062638346931673
 40
0.8062638346931673
 40
0.8062638346931673
 40
0.8074571536900096
 40
0.8074571536900096
 40
0.8074571536900096
 40
0.8074571536900096
 40
0.8074571536900096
 40
0.8074571536900096
 40
0.8074571536900096
 40
0.808145319670076
 40
0.808145319670076
 40
0.808145319670076
 40
0.808145319670076
 40
0.808145319670076
 40
0.808145319670076
 40
0.808145319670076
 40
0.8088018011210847
 40
0.8088018011210847
 40
0.8088018011210847
 40
0.8088018011210847
 40
0.8088018011210847
 40
0.8088018011210847
 40
0.8088018011210847
 40
0.8097331827703098
 40
0.8097331827703098
 40
0.8097331827703098
 40
0.8097331827703098
 40
0.8097331827703098
 40
0.8097331827703098
 40
0.8097331827703098
 40
0.8104597869347759
 40
0.8104597869347759
 40
0.8104597869347759
 40
0.8104597869347759
 40
0.8104597869347759
 40
0.8104597869347759
 40
0.8104597869347759
 40
0.8111863910992357
 40
0.8111863910992357
 40
0.8111863910992357
 40
0.8111863910992357
 40
0.8111863910992357
 40
0.8111863910992357
 40
0.8111863910992357
 40
0.8123281976433818
 40
0.8123281976433818
 40
0.8123281976433818
 40
0.8123281976433818
 40
0.8123281976433818
 40
0.8123281976433818
 40
0.8123281976433818
 40
0.8135738047824528
 40
0.8135738047824528
 40
0.8135738047824528
 40
0.8135738047824528
 40
0.8135738047824528
 40
0.8135738047824528
 40
0.8135738047824528
 40
0.8156982118438273
 40
0.8156982118438273
 40
0.8156982118438273
 40
0.8156982118438273
 40
0.8156982118438273
 40
0.8156982118438273
 40
0.8156982118438273
 40
0.8198919081245274
 40
0.8198919081245274
 40
0.8198919081245274
 40
0.8198919081245274
 40
0.8198919081245274
 40
0.8198919081245274
 40
0.8198919081245274
 40
0.828156480379758
 40
0.828156480379758
 40
0.828156480379758
 40
0.828156480379758
 40
0.828156480379758
 40
0.828156480379758
 40
0.828156480379758
 40
0.8335268199769298
 40
0.8335268199769298
 40
0.8335268199769298
 40
0.8335268199769298
 40
0.8335268199769298
 40
0.8335268199769298
 40
0.8335268199769298
 40
0.839359871451552
 40
0.839359871451552
 40
0.839359871451552
 40
0.839359871451552
 40
0.839359871451552
 40
0.839359871451552
 40
0.839359871451552
 40
0.8596419243536185
 40
0.8596419243536185
 40
0.8596419243536185
 40
0.8596419243536185
 40
0.8596419243536185
 40
0.8596419243536185
 40
0.8596419243536185
 40
0.8833119578920499
 40
0.8833119578920499
 40
0.8833119578920499
 40
0.8833119578920499
 40
0.8833119578920499
 40
0.8833119578920499
 40
0.8833119578920499
 40
0.9066291108017306
 40
0.9066291108017306
 40
0.9066291108017306
 40
0.9066291108017306
 40
0.9066291108017306
 40
0.9066291108017306
 40
0.9066291108017306
 40
0.9299552582545824
 40
0.9299552582545824
 40
0.9299552582545824
 40
0.9299552582545824
 40
0.9299552582545824
 40
0.9299552582545824
 40
0.9299552582545824
 40
0.9504564962265897
 40
0.9504564962265897
 40
0.9504564962265897
 40
0.9504564962265897
 40
0.9504564962265897
 40
0.9504564962265897
 40
0.9504564962265897
 40
0.968867425479257
 40
0.968867425479257
 40
0.968867425479257
 40
0.968867425479257
 40
0.968867425479257
 40
0.968867425479257
 40
0.968867425479257
 40
0.9815214228457018
 40
0.9815214228457018
 40
0.9815214228457018
 40
0.9815214228457018
 40
0.9815214228457018
 40
0.9815214228457018
 40
0.9815214228457018
 40
0.9858823745288645
 40
0.9858823745288645
 40
0.9858823745288645
 40
0.9858823745288645
 40
0.9858823745288645
 40
0.9858823745288645
 40
0.9858823745288645
 40
0.9897064523255535
 40
0.9897064523255535
 40
0.9897064523255535
 40
0.9897064523255535
 40
0.9897064523255535
 40
0.9897064523255535
 40
0.9897064523255535
 40
0.9941595395698365
 40
0.9941595395698365
 40
0.9941595395698365
 40
0.9941595395698365
 40
0.9941595395698365
 40
0.9941595395698365
 40
0.9941595395698365
 40
0.9964639439592725
 40
0.9964639439592725
 40
0.9964639439592725
 40
0.9964639439592725
 40
0.9964639439592725
 40
0.9964639439592725
 40
0.9964639439592725
 40
0.9977410673209421
 40
0.9977410673209421
 40
0.9977410673209421
 40
0.9977410673209421
 40
0.9977410673209421
 40
0.9977410673209421
 40
0.9977410673209421
 40
0.9988276307733187
 40
0.9988276307733187
 40
0.9988276307733187
 40
0.9988276307733187
 40
0.9988276307733187
 40
0.9988276307733187
 40
0.9988276307733187
 40
0.9994264474683899
 40
0.9994264474683899
 40
0.9994264474683899
 40
0.9994264474683899
 40
0.9994264474683899
 40
0.9994264474683899
 40
0.9994264474683899
 40
0.9997073486181633
 40
0.9997073486181633
 40
0.9997073486181633
 40
0.9997073486181633
 40
0.9997073486181633
 40
0.9997073486181633
 40
0.9997073486181633
 40
0.9998201974339396
 40
0.9998201974339396
 40
0.9998201974339396
 40
0.9998201974339396
 40
0.9998201974339396
 40
0.9998201974339396
 40
0.9998201974339396
 40
1.0
 40
1.0
 40
1.0
 40
1.0
 40
1.0
 40
1.0
 40
1.0
 40
1.0
 40
1.0
 10
16.814613402911206
 20
202.2324407668983
 30
457.0
 10
16.814475690665844
 20
202.23257970092854
 30
457.0
 10
16.814974103547648
 20
202.23181561663884
 30
457.0
 10
16.81411239361091
 20
202.2339972258234
 30
457.0
 10
16.81503611167676
 20
202.23044358672692
 30
457.0
 10
16.814335086902823
 20
202.22881348419688
 30
457.0
 10
16.814575374455128
 20
202.2258797077504
 30
457.0
 10
16.814526195678777
 20
202.22619647640218
 30
457.0
 10
16.814291583673892
 20
202.20939757714117
 30
457.0
 10
16.81413202195191
 20
202.1979724955835
 30
457.0
 10
16.81393642635635
 20
202.18396728420922
 30
457.0
 10
16.81371880831998
 20
202.1683852024345
 30
457.0
 10
16.813486945732937
 20
202.15178316935126
 30
457.0
 10
16.813247219882268
 20
202.13461810397231
 30
457.0
 10
16.81300185803892
 20
202.11704948512065
 30
457.0
 10
16.812413624174688
 20
202.07493023622743
 30
457.0
 10
16.812030697114924
 20
202.04751154934283
 30
457.0
 10
16.811597719789614
 20
202.01650911844112
 30
457.0
 10
16.811110972246603
 20
201.9816565841702
 30
457.0
 10
16.81056673453372
 20
201.94268758717735
 30
457.0
 10
16.80996128669879
 20
201.89933576810998
 30
457.0
 10
16.809290908789638
 20
201.8513347676151
 30
457.0
 10
16.80781285291857
 20
201.745501685065
 30
457.0
 10
16.80700517495665
 20
201.68766960300985
 30
457.0
 10
16.80612512701618
 20
201.62465562082215
 30
457.0
 10
16.805168989144995
 20
201.55619337914942
 30
457.0
 10
16.80413304139092
 20
201.4820165186392
 30
457.0
 10
16.803013563801787
 20
201.40185867993867
 30
457.0
 10
16.801806836425424
 20
201.31545350369507
 30
457.0
 10
16.798527090312003
 20
201.08061417998684
 30
457.0
 10
16.796541672051827
 20
200.9384524804577
 30
457.0
 10
16.79455409354477
 20
200.79613610100364
 30
457.0
 10
16.792564994135496
 20
200.65371082053295
 30
457.0
 10
16.790574802103766
 20
200.5112073051286
 30
457.0
 10
16.788583790669655
 20
200.36864511815077
 30
457.0
 10
16.786592043463436
 20
200.22603024774975
 30
457.0
 10
16.78122875555402
 20
199.84200329506973
 30
457.0
 10
16.777856264083972
 20
199.6005231351315
 30
457.0
 10
16.774482578416823
 20
199.35895746720692
 30
457.0
 10
16.771108006479597
 20
199.1173283397931
 30
457.0
 10
16.767732760792505
 20
198.87565096993762
 30
457.0
 10
16.764356983434702
 20
198.63393553090378
 30
457.0
 10
16.760980742862976
 20
198.39218692442265
 30
457.0
 10
16.7505900169298
 20
197.64818084389037
 30
457.0
 10
16.743574324126193
 20
197.14583691349245
 30
457.0
 10
16.736557515747
 20
196.64341310462572
 30
457.0
 10
16.72953989825849
 20
196.14093136121727
 30
457.0
 10
16.722521679629146
 20
195.6384065743838
 30
457.0
 10
16.71550299585202
 20
195.13584848159175
 30
457.0
 10
16.708483903351812
 20
194.63326112306746
 30
457.0
 10
16.687630985891637
 20
193.1401318184373
 30
457.0
 10
16.673796262857568
 20
192.14952556763393
 30
457.0
 10
16.659960660044394
 20
191.15885632208594
 30
457.0
 10
16.646124418402234
 20
190.168141334546
 30
457.0
 10
16.632287701502143
 20
189.17739231716027
 30
457.0
 10
16.618450616411327
 20
188.18661693623744
 30
457.0
 10
16.604613208000906
 20
187.19581840470818
 30
457.0
 10
16.581783715958316
 20
185.5611606335012
 30
457.0
 10
16.572792169206163
 20
184.91731600684275
 30
457.0
 10
16.563798444709484
 20
184.2734639841641
 30
457.0
 10
16.554808127790828
 20
183.62960584094046
 30
457.0
 10
16.545822874770423
 20
182.98574233113402
 30
457.0
 10
16.536842613417708
 20
182.3418739240704
 30
457.0
 10
16.527870048289095
 20
181.6980012343842
 30
457.0
 10
16.50916896807521
 20
180.354775705223
 30
457.0
 10
16.499228721494504
 20
179.64010013025296
 30
457.0
 10
16.489090767076423
 20
178.91036440578
 30
457.0
 10
16.47876094727752
 20
178.1658351029553
 30
457.0
 10
16.46824510455437
 20
177.40677879292986
 30
457.0
 10
16.45754908136352
 20
176.63346204685448
 30
457.0
 10
16.44667872016153
 20
175.8461514358798
 30
457.0
 10
16.397259963414268
 20
172.26006473942294
 30
457.0
 10
16.35912950357638
 20
169.47497595396808
 30
457.0
 10
16.321287297215758
 20
166.6898579050837
 30
457.0
 10
16.283755472633953
 20
163.9047165547219
 30
457.0
 10
16.24655241452837
 20
161.11955601310643
 30
457.0
 10
16.20969531648765
 20
158.3343791388181
 30
457.0
 10
16.173199320050184
 20
155.5491873748932
 30
457.0
 10
16.094937288993048
 20
149.51426809373345
 30
457.0
 10
16.05330743027514
 20
146.26453659402046
 30
457.0
 10
16.012215313779382
 20
143.01478903106053
 30
457.0
 10
15.971685642764191
 20
139.76502695576355
 30
457.0
 10
15.93174422866806
 20
136.5152515103241
 30
457.0
 10
15.892418895503711
 20
133.26546355612098
 30
457.0
 10
15.853740209603759
 20
130.0156637324158
 30
457.0
 10
15.778322449043396
 20
123.5655252661988
 30
457.0
 10
15.741562747711297
 20
120.36518708784776
 30
457.0
 10
15.70549554881557
 20
117.16483836018763
 30
457.0
 10
15.670156327047158
 20
113.96447946061022
 30
457.0
 10
15.635584528848145
 20
110.76411070240758
 30
457.0
 10
15.601824687565749
 20
107.56373234267069
 30
457.0
 10
15.568927538606353
 20
104.36334459018812
 30
457.0
 10
15.504975026403761
 20
97.96258024511093
 30
457.0
 10
15.473921618002464
 20
94.7622036861143
 30
457.0
 10
15.44373289747491
 20
91.56181926431937
 30
457.0
 10
15.41435812587106
 20
88.36142820236223
 30
457.0
 10
15.38575274061357
 20
85.16103164739997
 30
457.0
 10
15.357877258909758
 20
81.96063070095988
 30
457.0
 10
15.330696181163576
 20
78.76022644878896
 30
457.0
 10
15.280876345413787
 20
72.74785796311618
 30
457.0
 10
15.258086735696386
 20
69.93589429153528
 30
457.0
 10
15.235786099029607
 20
67.12392970529127
 30
457.0
 10
15.213954354373888
 20
64.31196501005617
 30
457.0
 10
15.192572996290348
 20
61.50000109646357
 30
457.0
 10
15.171624741423376
 20
58.68803897304393
 30
457.0
 10
15.151093131031475
 20
55.87607982347522
 30
457.0
 10
15.112887404012934
 20
50.53940734220886
 30
457.0
 10
15.095135636006276
 20
48.01469340322265
 30
457.0
 10
15.077695099348713
 20
45.48998411545584
 30
457.0
 10
15.06055443807544
 20
42.96528068049051
 30
457.0
 10
15.04370197484246
 20
40.44058480392776
 30
457.0
 10
15.027125568111646
 20
37.9158987336709
 30
457.0
 10
15.010811666832321
 20
35.39122549203404
 30
457.0
 10
14.983699000989743
 20
31.131571405428378
 30
457.0
 10
14.972771250336907
 20
29.39658235867814
 30
457.0
 10
14.961952935802268
 20
27.661603186006303
 30
457.0
 10
14.951237620079212
 20
25.926635441986235
 30
457.0
 10
14.940616184481875
 20
24.19168219216614
 30
457.0
 10
14.930077602779445
 20
22.456747823749332
 30
457.0
 10
14.919606665533724
 20
20.72183867867049
 30
457.0
 10
14.905576728688771
 20
18.389097533959756
 30
457.0
 10
14.90198531122746
 20
17.79123334038789
 30
457.0
 10
14.898396524396965
 20
17.193374123524933
 30
457.0
 10
14.894812046458355
 20
16.5955203037731
 30
457.0
 10
14.891220080992483
 20
15.997673633879486
 30
457.0
 10
14.887633389684348
 20
15.399833694139687
 30
457.0
 10
14.884044825301174
 20
14.802002144726316
 30
457.0
 10
14.87731017365621
 20
13.679955408571365
 30
457.0
 10
14.87416376248905
 20
13.155738185939194
 30
457.0
 10
14.871017399729615
 20
12.631529028420633
 30
457.0
 10
14.867871091048688
 20
12.107328880813581
 30
457.0
 10
14.864724843816948
 20
11.583138971131739
 30
457.0
 10
14.861578667495948
 20
11.058960875744708
 30
457.0
 10
14.858432574029084
 20
10.534796584518059
 30
457.0
 10
14.851623106480949
 20
9.400284921534677
 30
457.0
 10
14.847959788571272
 20
8.789946908413754
 30
457.0
 10
14.844296628380569
 20
8.179635172529803
 30
457.0
 10
14.840633648347787
 20
7.5693534523978485
 30
457.0
 10
14.836970899442544
 20
6.959110239959557
 30
457.0
 10
14.833308459027757
 20
6.348918424490343
 30
457.0
 10
14.829646440511086
 20
5.738796900618869
 30
457.0
 10
14.82409031645176
 20
4.813102270057588
 30
457.0
 10
14.822195791036986
 20
4.497459209318549
 30
457.0
 10
14.820301466589992
 20
4.181849631427166
 30
457.0
 10
14.818407371331306
 20
3.866278238123641
 30
457.0
 10
14.81651357110714
 20
3.5507559999272686
 30
457.0
 10
14.81462016618058
 20
3.235299621481971
 30
457.0
 10
14.812727303787053
 20
2.9199336333600137
 30
457.0
 10
14.809786636639945
 20
2.429995007210294
 30
457.0
 10
14.808791621405147
 20
2.264217524500696
 30
457.0
 10
14.807848595834365
 20
2.1071019349213618
 30
457.0
 10
14.806955962479819
 20
1.9583820909178535
 30
457.0
 10
14.806112123893726
 20
1.8177918449358363
 30
457.0
 10
14.805315482628313
 20
1.6850650494210817
 30
457.0
 10
14.804564441235803
 20
1.559935556819468
 30
457.0
 10
14.803255857126588
 20
1.3419149959747472
 30
457.0
 10
14.802654738821513
 20
1.2417638868102472
 30
457.0
 10
14.802054011178285
 20
1.1416778649029027
 30
457.0
 10
14.801453733824046
 20
1.0416668650081249
 30
457.0
 10
14.800854033126042
 20
0.9417519403099561
 30
457.0
 10
14.80025519330632
 20
0.8419804450602157
 30
457.0
 10
14.799657580134856
 20
0.7424133190947941
 30
457.0
 10
14.798733700217735
 20
0.5884875482819609
 30
457.0
 10
14.798406634835096
 20
0.5339958440928001
 30
457.0
 10
14.798080326355777
 20
0.47963024615970085
 30
457.0
 10
14.797754864433834
 20
0.4254056911768487
 30
457.0
 10
14.79743037636282
 20
0.3713433878702119
 30
457.0
 10
14.79710801135722
 20
0.3176348039620507
 30
457.0
 10
14.796788771521985
 20
0.26444689849518
 30
457.0
 10
14.79632931459626
 20
0.18789770618499801
 30
457.0
 10
14.796185915078375
 20
0.16400620155491197
 30
457.0
 10
14.796044333658624
 20
0.14041760654802715
 30
457.0
 10
14.79590430057543
 20
0.11708697687757308
 30
457.0
 10
14.795767494751065
 20
0.09429403415188631
 30
457.0
 10
14.795636689143407
 20
0.07250077555769963
 30
457.0
 10
14.79551727952041
 20
0.0526061789410619
 30
457.0
 10
14.795359505897677
 20
0.02631983366686086
 30
457.0
 10
14.795307888935184
 20
0.017720035581966442
 30
457.0
 10
14.795265915933495
 20
0.010726998382654784
 30
457.0
 10
14.795235607073067
 20
0.005677300229137927
 30
457.0
 10
14.795216770940703
 20
0.002539050176157076
 30
457.0
 10
14.795207145684275
 20
0.0009354056156993806
 30
457.0
 10
14.795203271188603
 20
0.0002898836962685891
 30
457.0
 10
14.795200796148528
 20
-0.00012247774223084207
 30
457.0
 10
14.795202499047159
 20
6.85472892882899e-05
 30
457.0
 10
14.795199874568329
 20
0.00020199610569449078
 30
457.0
 10
14.795201903255784
 20
-0.0001453007969303144
 30
457.0
 10
14.795210929096013
 20
-0.001462241127772046
 30
457.0
 10
14.795226530269774
 20
-0.0042031496875196694
 30
457.0
 10
14.795253206186661
 20
-0.008609453072814688
 30
457.0
 10
14.795339711278505
 20
-0.023021892064946314
 30
457.0
 10
14.795408208575505
 20
-0.0344340887043586
 30
457.0
 10
14.79549218503044
 20
-0.04842523638646412
 30
457.0
 10
14.795585632191647
 20
-0.0639942799537323
 30
457.0
 10
14.795685205908603
 20
-0.08058405584060324
 30
457.0
 10
14.795788166413786
 20
-0.09773809829542301
 30
457.0
 10
14.795893551745369
 20
-0.11529613592477972
 30
457.0
 10
14.796085949034614
 20
-0.1473510604884893
 30
457.0
 10
14.796177036196294
 20
-0.16252690889985946
 30
457.0
 10
14.796275210435702
 20
-0.17888352104782862
 30
457.0
 10
14.79638078883884
 20
-0.19647372598968743
 30
457.0
 10
14.796494088491688
 20
-0.21535035278277398
 30
457.0
 10
14.796615426480232
 20
-0.23556623048447378
 30
457.0
 10
14.796745119890462
 20
-0.25717418815222004
 30
457.0
 10
14.797021851726276
 20
-0.3032799215345676
 30
457.0
 10
14.797168890151863
 20
-0.3277776972492055
 30
457.0
 10
14.797324918171109
 20
-0.3537732110446095
 30
457.0
 10
14.797490252870004
 20
-0.3813192919780468
 30
457.0
 10
14.797665211334541
 20
-0.4104687691068502
 30
457.0
 10
14.797850110650705
 20
-0.44127447148841675
 30
457.0
 10
14.798045267904483
 20
-0.4737892281802089
 30
457.0
 10
14.798574293760614
 20
-0.561929159761661
 30
457.0
 10
14.798923701173152
 20
-0.6201432244972815
 30
457.0
 10
14.799300452861043
 20
-0.6829130638324746
 30
457.0
 10
14.799705779265812
 20
-0.7504436791530937
 30
457.0
 10
14.800140910829022
 20
-0.8229400718449862
 30
457.0
 10
14.800607077992208
 20
-0.9006072432939942
 30
457.0
 10
14.80110551119692
 20
-0.9836501948859535
 30
457.0
 10
14.802217727816839
 20
-1.1689543641385998
 30
457.0
 10
14.80283787833213
 20
-1.272276391511182
 30
457.0
 10
14.803499489878355
 20
-1.3825061576789
 30
457.0
 10
14.804204159903293
 20
-1.4999098101961408
 30
457.0
 10
14.804953485854723
 20
-1.624753496617223
 30
457.0
 10
14.805749065180423
 20
-1.7573033644963945
 30
457.0
 10
14.806592495328164
 20
-1.8978255613878332
 30
457.0
 10
14.809008195152025
 20
-2.300300439939516
 30
457.0
 10
14.810531921067678
 20
-2.554165343515429
 30
457.0
 10
14.812056256759863
 20
-2.8081318407251814
 30
457.0
 10
14.813581034321263
 20
-3.0621719568792685
 30
457.0
 10
14.815106139774866
 20
-3.3162667024926797
 30
457.0
 10
14.816631498638767
 20
-3.570403668279468
 30
457.0
 10
14.81815708030513
 20
-3.824577754740723
 30
457.0
 10
14.82269489716572
 20
-4.58061427542815
 30
457.0
 10
14.825707623522565
 20
-5.082558541271581
 30
457.0
 10
14.828720829775444
 20
-5.584582761616851
 30
457.0
 10
14.831734384088769
 20
-6.086664971623094
 30
457.0
 10
14.834748197000106
 20
-6.588790266123251
 30
457.0
 10
14.837762210008856
 20
-7.0909488984373255
 30
457.0
 10
14.840776398840642
 20
-7.593136824284024
 30
457.0
 10
14.84973120344493
 20
-9.085078770036443
 30
457.0
 10
14.855672205548863
 20
-10.07489715584206
 30
457.0
 10
14.861613586114565
 20
-11.064778596418456
 30
457.0
 10
14.867555241491253
 20
-12.054705822676368
 30
457.0
 10
14.87349710131377
 20
-13.044667111243786
 30
457.0
 10
14.879439119523841
 20
-14.034654788464117
 30
457.0
 10
14.885381276819679
 20
-15.024665638462704
 30
457.0
 10
14.895184888332448
 20
-16.658025592376468
 30
457.0
 10
14.899046587779983
 20
-17.30136006289422
 30
457.0
 10
14.90290625578871
 20
-17.944701977649817
 30
457.0
 10
14.906769456041259
 20
-18.58804994949074
 30
457.0
 10
14.910637830905921
 20
-19.231403190724432
 30
457.0
 10
14.91451129866614
 20
-19.87476123291283
 30
457.0
 10
14.918392553368575
 20
-20.518123407536397
 30
457.0
 10
14.926506718721773
 20
-21.86028823008699
 30
457.0
 10
14.930833805098445
 20
-22.57440368468773
 30
457.0
 10
14.93526385843466
 20
-23.303569834884247
 30
457.0
 10
14.939797403787018
 20
-24.047520744920384
 30
457.0
 10
14.944434966212144
 20
-24.805990479040133
 30
457.0
 10
14.949177070766645
 20
-25.57871310148762
 30
457.0
 10
14.95402424250714
 20
-26.365422676507066
 30
457.0
 10
14.976198219358647
 20
-29.949023565857836
 30
457.0
 10
14.993669872024238
 20
-32.73222891584291
 30
457.0
 10
15.011430580243106
 20
-35.515457801261874
 30
457.0
 10
15.029502343952966
 20
-38.298703811411144
 30
457.0
 10
15.047903448297296
 20
-41.08196246463761
 30
457.0
 10
15.066651006784983
 20
-43.865230556248875
 30
457.0
 10
15.085760101193504
 20
-46.64850633943385
 30
457.0
 10
15.127987911880611
 20
-52.679999993063255
 30
457.0
 10
15.15124315465558
 20
-55.92821913325484
 30
457.0
 10
15.175036790870669
 20
-59.176443614643816
 30
457.0
 10
15.199393439554166
 20
-62.42467139091201
 30
457.0
 10
15.224338824463132
 20
-65.6729008032624
 30
457.0
 10
15.249900674161156
 20
-68.92113043422684
 30
457.0
 10
15.27610944675125
 20
-72.16935903438551
 30
457.0
 10
15.329487435291
 20
-78.61738638302965
 30
457.0
 10
15.35663644566419
 20
-81.8171850773018
 30
457.0
 10
15.384478434504489
 20
-85.01698050373328
 30
457.0
 10
15.413048771337008
 20
-88.21677157681683
 30
457.0
 10
15.442386776328522
 20
-91.41655719656468
 30
457.0
 10
15.472536825525063
 20
-94.61633621845431
 30
457.0
 10
15.503549456089589
 20
-97.81610742337445
 30
457.0
 10
15.567427805083861
 20
-104.21686585331953
 30
457.0
 10
15.600296203056491
 20
-107.4178529985154
 30
457.0
 10
15.634029403065828
 20
-110.61883075474142
 30
457.0
 10
15.668576466896148
 20
-113.81979891371215
 30
457.0
 10
15.703892673932359
 20
-117.02075721941597
 30
457.0
 10
15.73993841458462
 20
-120.22170536025772
 30
457.0
 10
15.776678083713014
 20
-123.42264296120074
 30
457.0
 10
15.846950435349326
 20
-129.43684846783609
 30
457.0
 10
15.880332707820395
 20
-132.25011881347888
 30
457.0
 10
15.914203743439824
 20
-135.06338032323842
 30
457.0
 10
15.948543389981408
 20
-137.87663259366914
 30
457.0
 10
15.98333307855289
 20
-140.68987510514336
 30
457.0
 10
16.018555467583596
 20
-143.50310719607188
 30
457.0
 10
16.05419404326512
 20
-146.31632801368244
 30
457.0
 10
16.122596806198903
 20
-151.6559097952764
 30
457.0
 10
16.15528357160118
 20
-154.1822729090587
 30
457.0
 10
16.188281244334604
 20
-156.70862517268154
 30
457.0
 10
16.221578423425303
 20
-159.23496561334295
 30
457.0
 10
16.255163381101724
 20
-161.7612927610233
 30
457.0
 10
16.289023918707908
 20
-164.28760461357214
 30
457.0
 10
16.323146418023796
 20
-166.81389842422945
 30
457.0
 10
16.381133078641156
 20
-171.07649924766852
 30
457.0
 10
16.404868596362846
 20
-172.8128170179488
 30
457.0
 10
16.428713247938994
 20
-174.54912274478494
 30
457.0
 10
16.452660565731748
 20
-176.28541500417282
 30
457.0
 10
16.47670137462918
 20
-178.0216909161108
 30
457.0
 10
16.50082456892982
 20
-179.75794631855447
 30
457.0
 10
16.525014827233413
 20
-181.49417518051345
 30
457.0
 10
16.557590219961355
 20
-183.8287109929256
 30
457.0
 10
16.565943615821517
 20
-184.427050744575
 30
457.0
 10
16.574299540221276
 20
-185.0253854728684
 30
457.0
 10
16.58265966118123
 20
-185.6237147238357
 30
457.0
 10
16.591012160062675
 20
-186.222036981725
 30
457.0
 10
16.599369793167085
 20
-186.820352411735
 30
457.0
 10
16.607725387839654
 20
-187.41865949768146
 30
457.0
 10
16.62340826431532
 20
-188.54159888932443
 30
457.0
 10
16.630735263173907
 20
-189.06623323517286
 30
457.0
 10
16.63806214950319
 20
-189.5908595235966
 30
457.0
 10
16.64538891012076
 20
-190.1154768106978
 30
457.0
 10
16.652715527892607
 20
-190.64008386963133
 30
457.0
 10
16.660041980824225
 20
-191.16467912552721
 30
457.0
 10
16.667368241151763
 20
-191.68926059041294
 30
457.0
 10
16.683225341814865
 20
-192.82467493863388
 30
457.0
 10
16.69175605157276
 20
-193.43549847222843
 30
457.0
 10
16.700286394694853
 20
-194.04629575364044
 30
457.0
 10
16.70881631901923
 20
-194.6570630479203
 30
457.0
 10
16.717345706060836
 20
-195.26779187119695
 30
457.0
 10
16.72587437598022
 20
-195.87846934644648
 30
457.0
 10
16.734402065147094
 20
-196.48907659697366
 30
457.0
 10
16.747340527331826
 20
-197.41550797434627
 30
457.0
 10
16.75175227639337
 20
-197.7314019887473
 30
457.0
 10
16.756163558282843
 20
-198.04726255227365
 30
457.0
 10
16.76057430739645
 20
-198.3630849675056
 30
457.0
 10
16.764984370667165
 20
-198.67885827439994
 30
457.0
 10
16.76939351502098
 20
-198.99456578418065
 30
457.0
 10
16.773801398185686
 20
-199.31018298916803
 30
457.0
 10
16.780649291457802
 20
-199.80051198697333
 30
457.0
 10
16.782966368193556
 20
-199.96642139422275
 30
457.0
 10
16.785162377395103
 20
-200.12366201526902
 30
457.0
 10
16.787241039014603
 20
-200.272500209465
 30
457.0
 10
16.78920607300423
 20
-200.413202336163
 30
457.0
 10
16.791061199316154
 20
-200.5460347547159
 30
457.0
 10
16.792810137902535
 20
-200.67126382447614
 30
457.0
 10
16.79585740918989
 20
-200.88945727711882
 30
457.0
 10
16.7972572173937
 20
-200.989687599995
 30
457.0
 10
16.798656117447784
 20
-201.08985289672435
 30
457.0
 10
16.800053970756295
 20
-201.18994324343157
 30
457.0
 10
16.801450483558643
 20
-201.28993760601722
 30
457.0
 10
16.80284499510337
 20
-201.389788672761
 30
457.0
 10
16.80423665506455
 20
-201.48943555785795
 30
457.0
 10
16.80638807598674
 20
-201.64348352892245
 30
457.0
 10
16.80714969300446
 20
-201.6980175139273
 30
457.0
 10
16.80790955054625
 20
-201.75242551535666
 30
457.0
 10
16.808667440096674
 20
-201.80669260290222
 30
457.0
 10
16.80942306659126
 20
-201.86079764909613
 30
457.0
 10
16.810173757091928
 20
-201.91454926382173
 30
457.0
 10
16.810917182480722
 20
-201.96778067549073
 30
457.0
 10
16.811987110678224
 20
-202.04439063419744
 30
457.0
 10
16.812321002659825
 20
-202.06829826742214
 30
457.0
 10
16.812650667790393
 20
-202.0919032458683
 30
457.0
 10
16.812976738551484
 20
-202.1152508570451
 30
457.0
 10
16.813295315027588
 20
-202.13806185570334
 30
457.0
 10
16.813599939929908
 20
-202.15987388126192
 30
457.0
 10
16.81387806057703
 20
-202.17978812535844
 30
457.0
 10
16.81420478950253
 20
-202.20318286301398
 30
457.0
 10
16.814285128428203
 20
-202.20893536284782
 30
457.0
 10
16.81435326791478
 20
-202.21381434749838
 30
457.0
 10
16.814410310170306
 20
-202.21789873825534
 30
457.0
 10
16.81445735740283
 20
-202.22126745640824
 30
457.0
 10
16.814495511820407
 20
-202.22399942324685
 30
457.0
 10
16.814525875631087
 20
-202.22617356006086
 30
457.0
 10
16.814587273191542
 20
-202.23056980326845
 30
457.0
 10
16.814711327218937
 20
-202.23146634980137
 30
457.0
 10
16.814779843899835
 20
-202.23157620965378
 30
457.0
 10
16.81472651770455
 20
-202.23158135318604
 30
457.0
 10
16.8145606067989
 20
-202.2318279392036
 30
457.0
 10
16.814366933044262
 20
-202.2323263149569
 30
457.0
 10
16.814305881997548
 20
-202.23275101614155
 30
457.0
 10
16.814613402911206
 20
-202.23244076689824
 30
457.0
  0
ENDSEC
  0
SECTION
  2
OBJECTS
  0
DICTIONARY
  5
A
330
0
100
AcDbDictionary
281
1
  3
ACAD_COLOR
350
B
  3
ACAD_GROUP
350
C
  3
ACAD_LAYOUT
350
D
  3
ACAD_MATERIAL
350
E
  3
ACAD_MLEADERSTYLE
350
F
  3
ACAD_MLINESTYLE
350
10
  3
ACAD_PLOTSETTINGS
350
11
  3
ACAD_PLOTSTYLENAME
350
12
  3
ACAD_SCALELIST
350
14
  3
ACAD_TABLESTYLE
350
15
  3
ACAD_VISUALSTYLE
350
16
  3
EZDXF_META
350
2D
  0
DICTIONARY
  5
B
330
A
100
AcDbDictionary
281
1
  0
DICTIONARY
  5
C
330
A
100
AcDbDictionary
281
1
  0
DICTIONARY
  5
D
330
A
100
AcDbDictionary
281
1
  3
Model
350
1A
  3
Layout1
350
1E
  0
DICTIONARY
  5
E
330
A
100
AcDbDictionary
281
1
  3
ByBlock
350
1F
  3
ByLayer
350
20
  3
Global
350
21
  0
DICTIONARY
  5
F
330
A
100
AcDbDictionary
281
1
  3
Standard
350
2C
  0
DICTIONARY
  5
10
330
A
100
AcDbDictionary
281
1
  3
Standard
350
22
  0
DICTIONARY
  5
11
330
A
100
AcDbDictionary
281
1
  0
ACDBDICTIONARYWDFLT
  5
12
330
A
100
AcDbDictionary
281
1
  3
Normal
350
13
100
AcDbDictionaryWithDefault
340
13
  0
ACDBPLACEHOLDER
  5
13
330
12
  0
DICTIONARY
  5
14
330
A
100
AcDbDictionary
281
1
  0
DICTIONARY
  5
15
330
A
100
AcDbDictionary
281
1
  0
DICTIONARY
  5
16
330
A
100
AcDbDictionary
281
1
  0
LAYOUT
  5
1A
330
D
100
AcDbPlotSettings
  1

  2
Adobe PDF
  4
A3
  6

 40
7.5
 41
20.0
 42
7.5
 43
20.0
 44
420.0
 45
297.0
 46
0.0
 47
0.0
 48
0.0
 49
0.0
140
0.0
141
0.0
142
1.0
143
1.0
 70
1024
 72
1
 73
1
 74
5
  7

 75
16
 76
0
 77
2
 78
300
147
1.0
148
0.0
149
0.0
100
AcDbLayout
  1
Model
 70
1
 71
0
 10
0.0
 20
0.0
 11
420.0
 21
297.0
 12
0.0
 22
0.0
 32
0.0
 14
1e+20
 24
1e+20
 34
1e+20
 15
-1e+20
 25
-1e+20
 35
-1e+20
146
0.0
 13
0.0
 23
0.0
 33
0.0
 16
1.0
 26
0.0
 36
0.0
 17
0.0
 27
1.0
 37
0.0
 76
1
330
17
  0
LAYOUT
  5
1E
330
D
100
AcDbPlotSettings
  1

  2
Adobe PDF
  4
A3
  6

 40
7.5
 41
20.0
 42
7.5
 43
20.0
 44
420.0
 45
297.0
 46
0.0
 47
0.0
 48
0.0
 49
0.0
140
0.0
141
0.0
142
1.0
143
1.0
 70
0
 72
1
 73
1
 74
5
  7

 75
16
 76
0
 77
2
 78
300
147
1.0
148
0.0
149
0.0
100
AcDbLayout
  1
Layout1
 70
1
 71
1
 10
0.0
 20
0.0
 11
420.0
 21
297.0
 12
0.0
 22
0.0
 32
0.0
 14
1e+20
 24
1e+20
 34
1e+20
 15
-1e+20
 25
-1e+20
 35
-1e+20
146
0.0
 13
0.0
 23
0.0
 33
0.0
 16
1.0
 26
0.0
 36
0.0
 17
0.0
 27
1.0
 37
0.0
 76
1
330
1B
  0
MATERIAL
  5
1F
102
{ACAD_REACTORS
330
E
102
}
330
E
100
AcDbMaterial
  1
ByBlock
  2

 70
0
 40
1.0
 71
1
 41
1.0
 91
-1023410177
 42
1.0
 72
1
  3

 73
1
 74
1
 75
1
 44
0.5
 73
0
 45
1.0
 46
1.0
 77
1
  4

 78
1
 79
1
170
1
 48
1.0
171
1
  6

172
1
173
1
174
1
140
1.0
141
1.0
175
1
  7

176
1
177
1
178
1
143
1.0
179
1
  8

270
1
271
1
272
1
145
1.0
146
1.0
273
1
  9

274
1
275
1
276
1
 42
1.0
 72
1
  3

 73
1
 74
1
 75
1
 94
63
  0
MATERIAL
  5
20
102
{ACAD_REACTORS
330
E
102
}
330
E
100
AcDbMaterial
  1
ByLayer
  2

 70
0
 40
1.0
 71
1
 41
1.0
 91
-1023410177
 42
1.0
 72
1
  3

 73
1
 74
1
 75
1
 44
0.5
 73
0
 45
1.0
 46
1.0
 77
1
  4

 78
1
 79
1
170
1
 48
1.0
171
1
  6

172
1
173
1
174
1
140
1.0
141
1.0
175
1
  7

176
1
177
1
178
1
143
1.0
179
1
  8

270
1
271
1
272
1
145
1.0
146
1.0
273
1
  9

274
1
275
1
276
1
 42
1.0
 72
1
  3

 73
1
 74
1
 75
1
 94
63
  0
MATERIAL
  5
21
102
{ACAD_REACTORS
330
E
102
}
330
E
100
AcDbMaterial
  1
Global
  2

 70
0
 40
1.0
 71
1
 41
1.0
 91
-1023410177
 42
1.0
 72
1
  3

 73
1
 74
1
 75
1
 44
0.5
 73
0
 45
1.0
 46
1.0
 77
1
  4

 78
1
 79
1
170
1
 48
1.0
171
1
  6

172
1
173
1
174
1
140
1.0
141
1.0
175
1
  7

176
1
177
1
178
1
143
1.0
179
1
  8

270
1
271
1
272
1
145
1.0
146
1.0
273
1
  9

274
1
275
1
276
1
 42
1.0
 72
1
  3

 73
1
 74
1
 75
1
 94
63
  0
MLINESTYLE
  5
22
102
{ACAD_REACTORS
330
10
102
}
330
10
100
AcDbMlineStyle
  2
Standard
 70
0
  3

 62
256
 51
90.0
 52
90.0
 71
2
 49
0.5
 62
256
  6
BYLAYER
 49
-0.5
 62
256
  6
BYLAYER
  0
MLEADERSTYLE
  5
2C
102
{ACAD_REACTORS
330
F
102
}
330
F
100
AcDbMLeaderStyle
179
2
170
2
171
1
172
0
 90
2
 40
0.0
 41
0.0
173
1
 91
-1056964608
 92
-2
290
1
 42
2.0
291
1
 43
8.0
  3
Standard
 44
4.0
300

342
29
174
1
175
1
176
0
178
1
 93
-1056964608
 45
4.0
292
0
297
0
 46
4.0
 94
-1056964608
 47
1.0
 49
1.0
140
1.0
294
1
141
0.0
177
0
142
1.0
295
0
296
0
143
3.75
271
0
272
9
273
9
  0
DICTIONARY
  5
2D
330
A
100
AcDbDictionary
280
1
281
1
  3
CREATED_BY_EZDXF
350
2E
  3
WRITTEN_BY_EZDXF
350
78
  0
DICTIONARYVAR
  5
2E
330
2D
100
DictionaryVariables
280
0
  1
0.17 @ 2022-02-15T16:29:09.964705+00:00
  0
DICTIONARYVAR
  5
78
330
2D
100
DictionaryVariables
280
0
  1
0.17 @ 2022-02-15T16:29:10.053267+00:00
  0
ENDSEC
  0
EOF
