  0
SECTION
  2
HEADER
  9
$ACADVER
  1
AC1027
  9
$ACADMAINTVER
 70
105
  9
$DWGCODEPAGE
  3
ANSI_1252
  9
$LASTSAVEDBY
  1
ezdxf
  9
$REQUIREDVERSIONS
160
0
  9
$INSBASE
 10
0.0
 20
0.0
 30
0.0
  9
$EXTMIN
 10
1e+20
 20
1e+20
 30
1e+20
  9
$EXTMAX
 10
-1e+20
 20
-1e+20
 30
-1e+20
  9
$LIMMIN
 10
0.0
 20
0.0
  9
$LIMMAX
 10
420.0
 20
297.0
  9
$ORTHOMODE
 70
0
  9
$REGENMODE
 70
1
  9
$FILLMODE
 70
1
  9
$QTEXTMODE
 70
0
  9
$MIRRTEXT
 70
1
  9
$LTSCALE
 40
1.0
  9
$ATTMODE
 70
1
  9
$TEXTSIZE
 40
2.5
  9
$TRACEWID
 40
1.0
  9
$TEXTSTYLE
  7
Standard
  9
$CLAYER
  8
0
  9
$CELTYPE
  6
ByLayer
  9
$CECOLOR
 62
256
  9
$CELTSCALE
 40
1.0
  9
$DISPSILH
 70
0
  9
$DIMSCALE
 40
1.0
  9
$DIMASZ
 40
2.5
  9
$DIMEXO
 40
0.625
  9
$DIMDLI
 40
3.75
  9
$DIMRND
 40
0.0
  9
$DIMDLE
 40
0.0
  9
$DIMEXE
 40
1.25
  9
$DIMTP
 40
0.0
  9
$DIMTM
 40
0.0
  9
$DIMTXT
 40
2.5
  9
$DIMCEN
 40
2.5
  9
$DIMTSZ
 40
0.0
  9
$DIMTOL
 70
0
  9
$DIMLIM
 70
0
  9
$DIMTIH
 70
0
  9
$DIMTOH
 70
0
  9
$DIMSE1
 70
0
  9
$DIMSE2
 70
0
  9
$DIMTAD
 70
1
  9
$DIMZIN
 70
8
  9
$DIMBLK
  1

  9
$DIMASO
 70
1
  9
$DIMSHO
 70
1
  9
$DIMPOST
  1

  9
$DIMAPOST
  1

  9
$DIMALT
 70
0
  9
$DIMALTD
 70
3
  9
$DIMALTF
 40
0.03937007874
  9
$DIMLFAC
 40
1.0
  9
$DIMTOFL
 70
1
  9
$DIMTVP
 40
0.0
  9
$DIMTIX
 70
0
  9
$DIMSOXD
 70
0
  9
$DIMSAH
 70
0
  9
$DIMBLK1
  1

  9
$DIMBLK2
  1

  9
$DIMSTYLE
  2
ISO-25
  9
$DIMCLRD
 70
0
  9
$DIMCLRE
 70
0
  9
$DIMCLRT
 70
0
  9
$DIMTFAC
 40
1.0
  9
$DIMGAP
 40
0.625
  9
$DIMJUST
 70
0
  9
$DIMSD1
 70
0
  9
$DIMSD2
 70
0
  9
$DIMTOLJ
 70
0
  9
$DIMTZIN
 70
8
  9
$DIMALTZ
 70
0
  9
$DIMALTTZ
 70
0
  9
$DIMUPT
 70
0
  9
$DIMDEC
 70
2
  9
$DIMTDEC
 70
2
  9
$DIMALTU
 70
2
  9
$DIMALTTD
 70
3
  9
$DIMTXSTY
  7
Standard
  9
$DIMAUNIT
 70
0
  9
$DIMADEC
 70
0
  9
$DIMALTRND
 40
0.0
  9
$DIMAZIN
 70
0
  9
$DIMDSEP
 70
44
  9
$DIMATFIT
 70
3
  9
$DIMFRAC
 70
0
  9
$DIMLDRBLK
  1

  9
$DIMLUNIT
 70
2
  9
$DIMLWD
 70
-2
  9
$DIMLWE
 70
-2
  9
$DIMTMOVE
 70
0
  9
$DIMFXL
 40
1.0
  9
$DIMFXLON
 70
0
  9
$DIMJOGANG
 40
0.785398163397
  9
$DIMTFILL
 70
0
  9
$DIMTFILLCLR
 70
0
  9
$DIMARCSYM
 70
0
  9
$DIMLTYPE
  6

  9
$DIMLTEX1
  6

  9
$DIMLTEX2
  6

  9
$DIMTXTDIRECTION
 70
0
  9
$LUNITS
 70
2
  9
$LUPREC
 70
4
  9
$SKETCHINC
 40
1.0
  9
$FILLETRAD
 40
10.0
  9
$AUNITS
 70
0
  9
$AUPREC
 70
2
  9
$MENU
  1
.
  9
$ELEVATION
 40
0.0
  9
$PELEVATION
 40
0.0
  9
$THICKNESS
 40
0.0
  9
$LIMCHECK
 70
0
  9
$CHAMFERA
 40
0.0
  9
$CHAMFERB
 40
0.0
  9
$CHAMFERC
 40
0.0
  9
$CHAMFERD
 40
0.0
  9
$SKPOLY
 70
0
  9
$TDCREATE
 40
2459626.728599537
  9
$TDUCREATE
 40
2458532.153996898
  9
$TDUPDATE
 40
2459626.728599537
  9
$TDUUPDATE
 40
2458532.1544311
  9
$TDINDWG
 40
0.0
  9
$TDUSRTIMER
 40
0.0
  9
$USRTIMER
 70
1
  9
$ANGBASE
 50
0.0
  9
$ANGDIR
 70
0
  9
$PDMODE
 70
0
  9
$PDSIZE
 40
0.0
  9
$PLINEWID
 40
0.0
  9
$SPLFRAME
 70
0
  9
$SPLINETYPE
 70
6
  9
$SPLINESEGS
 70
8
  9
$HANDSEED
  5
79
  9
$SURFTAB1
 70
6
  9
$SURFTAB2
 70
6
  9
$SURFTYPE
 70
6
  9
$SURFU
 70
6
  9
$SURFV
 70
6
  9
$UCSBASE
  2

  9
$UCSNAME
  2

  9
$UCSORG
 10
0.0
 20
0.0
 30
0.0
  9
$UCSXDIR
 10
1.0
 20
0.0
 30
0.0
  9
$UCSYDIR
 10
0.0
 20
1.0
 30
0.0
  9
$UCSORTHOREF
  2

  9
$UCSORTHOVIEW
 70
0
  9
$UCSORGTOP
 10
0.0
 20
0.0
 30
0.0
  9
$UCSORGBOTTOM
 10
0.0
 20
0.0
 30
0.0
  9
$UCSORGLEFT
 10
0.0
 20
0.0
 30
0.0
  9
$UCSORGRIGHT
 10
0.0
 20
0.0
 30
0.0
  9
$UCSORGFRONT
 10
0.0
 20
0.0
 30
0.0
  9
$UCSORGBACK
 10
0.0
 20
0.0
 30
0.0
  9
$PUCSBASE
  2

  9
$PUCSNAME
  2

  9
$PUCSORG
 10
0.0
 20
0.0
 30
0.0
  9
$PUCSXDIR
 10
1.0
 20
0.0
 30
0.0
  9
$PUCSYDIR
 10
0.0
 20
1.0
 30
0.0
  9
$PUCSORTHOREF
  2

  9
$PUCSORTHOVIEW
 70
0
  9
$PUCSORGTOP
 10
0.0
 20
0.0
 30
0.0
  9
$PUCSORGBOTTOM
 10
0.0
 20
0.0
 30
0.0
  9
$PUCSORGLEFT
 10
0.0
 20
0.0
 30
0.0
  9
$PUCSORGRIGHT
 10
0.0
 20
0.0
 30
0.0
  9
$PUCSORGFRONT
 10
0.0
 20
0.0
 30
0.0
  9
$PUCSORGBACK
 10
0.0
 20
0.0
 30
0.0
  9
$USERI1
 70
0
  9
$USERI2
 70
0
  9
$USERI3
 70
0
  9
$USERI4
 70
0
  9
$USERI5
 70
0
  9
$USERR1
 40
0.0
  9
$USERR2
 40
0.0
  9
$USERR3
 40
0.0
  9
$USERR4
 40
0.0
  9
$USERR5
 40
0.0
  9
$WORLDVIEW
 70
1
  9
$SHADEDGE
 70
3
  9
$SHADEDIF
 70
70
  9
$TILEMODE
 70
1
  9
$MAXACTVP
 70
64
  9
$PINSBASE
 10
0.0
 20
0.0
 30
0.0
  9
$PLIMCHECK
 70
0
  9
$PEXTMIN
 10
1e+20
 20
1e+20
 30
1e+20
  9
$PEXTMAX
 10
-1e+20
 20
-1e+20
 30
-1e+20
  9
$PLIMMIN
 10
0.0
 20
0.0
  9
$PLIMMAX
 10
420.0
 20
297.0
  9
$UNITMODE
 70
0
  9
$VISRETAIN
 70
1
  9
$PLINEGEN
 70
0
  9
$PSLTSCALE
 70
1
  9
$TREEDEPTH
 70
3020
  9
$CMLSTYLE
  2
Standard
  9
$CMLJUST
 70
0
  9
$CMLSCALE
 40
20.0
  9
$PROXYGRAPHICS
 70
1
  9
$MEASUREMENT
 70
1
  9
$CELWEIGHT
370
-1
  9
$ENDCAPS
280
0
  9
$JOINSTYLE
280
0
  9
$LWDISPLAY
290
0
  9
$INSUNITS
 70
6
  9
$HYPERLINKBASE
  1

  9
$STYLESHEET
  1

  9
$XEDIT
290
1
  9
$CEPSNTYPE
380
0
  9
$PSTYLEMODE
290
1
  9
$FINGERPRINTGUID
  2
{BCA3A354-7480-4606-A8FE-8356A7C2C946}
  9
$VERSIONGUID
  2
{1738A465-0722-4F81-AA32-3B141793F511}
  9
$EXTNAMES
290
1
  9
$PSVPSCALE
 40
0.0
  9
$OLESTARTUP
290
0
  9
$SORTENTS
280
127
  9
$INDEXCTL
280
0
  9
$HIDETEXT
280
1
  9
$XCLIPFRAME
280
0
  9
$HALOGAP
280
0
  9
$OBSCOLOR
 70
257
  9
$OBSLTYPE
280
0
  9
$INTERSECTIONDISPLAY
280
0
  9
$INTERSECTIONCOLOR
 70
257
  9
$DIMASSOC
280
2
  9
$PROJECTNAME
  1

  9
$CAMERADISPLAY
290
0
  9
$LENSLENGTH
 40
50.0
  9
$CAMERAHEIGHT
 40
0.0
  9
$STEPSPERSEC
 40
24.0
  9
$STEPSIZE
 40
100.0
  9
$3DDWFPREC
 40
2.0
  9
$PSOLWIDTH
 40
0.005
  9
$PSOLHEIGHT
 40
0.08
  9
$LOFTANG1
 40
1.570796326795
  9
$LOFTANG2
 40
1.570796326795
  9
$LOFTMAG1
 40
0.0
  9
$LOFTMAG2
 40
0.0
  9
$LOFTPARAM
 70
7
  9
$LOFTNORMALS
280
1
  9
$LATITUDE
 40
37.795
  9
$LONGITUDE
 40
-122.394
  9
$NORTHDIRECTION
 40
0.0
  9
$TIMEZONE
 70
-8000
  9
$LIGHTGLYPHDISPLAY
280
1
  9
$TILEMODELIGHTSYNCH
280
1
  9
$CMATERIAL
347
20
  9
$SOLIDHIST
280
0
  9
$SHOWHIST
280
1
  9
$DWFFRAME
280
2
  9
$DGNFRAME
280
2
  9
$REALWORLDSCALE
290
1
  9
$INTERFERECOLOR
 62
256
  9
$CSHADOW
280
0
  9
$SHADOWPLANELOCATION
 40
0.0
  0
ENDSEC
  0
SECTION
  2
CLASSES
  0
CLASS
  1
ACDBDICTIONARYWDFLT
  2
AcDbDictionaryWithDefault
  3
ObjectDBX Classes
 90
0
 91
0
280
0
281
0
  0
CLASS
  1
SUN
  2
AcDbSun
  3
SCENEOE
 90
1153
 91
0
280
0
281
0
  0
CLASS
  1
VISUALSTYLE
  2
AcDbVisualStyle
  3
ObjectDBX Classes
 90
4095
 91
0
280
0
281
0
  0
CLASS
  1
MATERIAL
  2
AcDbMaterial
  3
ObjectDBX Classes
 90
1153
 91
0
280
0
281
0
  0
CLASS
  1
SCALE
  2
AcDbScale
  3
ObjectDBX Classes
 90
1153
 91
0
280
0
281
0
  0
CLASS
  1
TABLESTYLE
  2
AcDbTableStyle
  3
ObjectDBX Classes
 90
4095
 91
0
280
0
281
0
  0
CLASS
  1
MLEADERSTYLE
  2
AcDbMLeaderStyle
  3
ACDB_MLEADERSTYLE_CLASS
 90
4095
 91
0
280
0
281
0
  0
CLASS
  1
DICTIONARYVAR
  2
AcDbDictionaryVar
  3
ObjectDBX Classes
 90
0
 91
0
280
0
281
0
  0
CLASS
  1
CELLSTYLEMAP
  2
AcDbCellStyleMap
  3
ObjectDBX Classes
 90
1152
 91
0
280
0
281
0
  0
CLASS
  1
MENTALRAYRENDERSETTINGS
  2
AcDbMentalRayRenderSettings
  3
SCENEOE
 90
1024
 91
0
280
0
281
0
  0
CLASS
  1
ACDBDETAILVIEWSTYLE
  2
AcDbDetailViewStyle
  3
ObjectDBX Classes
 90
1025
 91
0
280
0
281
0
  0
CLASS
  1
ACDBSECTIONVIEWSTYLE
  2
AcDbSectionViewStyle
  3
ObjectDBX Classes
 90
1025
 91
0
280
0
281
0
  0
CLASS
  1
RASTERVARIABLES
  2
AcDbRasterVariables
  3
ISM
 90
0
 91
0
280
0
281
0
  0
CLASS
  1
ACDBPLACEHOLDER
  2
AcDbPlaceHolder
  3
ObjectDBX Classes
 90
0
 91
0
280
0
281
0
  0
CLASS
  1
LAYOUT
  2
AcDbLayout
  3
ObjectDBX Classes
 90
0
 91
0
280
0
281
0
  0
ENDSEC
  0
SECTION
  2
TABLES
  0
TABLE
  2
VPORT
  5
8
330
0
100
AcDbSymbolTable
 70
1
  0
VPORT
  5
23
330
8
100
AcDbSymbolTableRecord
100
AcDbViewportTableRecord
  2
*Active
 70
0
 10
0.0
 20
0.0
 11
1.0
 21
1.0
 12
344.2
 22
148.5
 13
0.0
 23
0.0
 14
0.5
 24
0.5
 15
0.5
 25
0.5
 16
0.0
 26
0.0
 36
1.0
 17
0.0
 27
0.0
 37
0.0
 40
297.0
 41
1.34
 42
50.0
 43
0.0
 44
0.0
 50
0.0
 51
0.0
 71
0
 72
1000
 73
1
 74
3
 75
0
 76
0
 77
0
 78
0
281
0
 65
0
146
0.0
  0
ENDTAB
  0
TABLE
  2
LTYPE
  5
2
330
0
100
AcDbSymbolTable
 70
3
  0
LTYPE
  5
24
330
2
100
AcDbSymbolTableRecord
100
AcDbLinetypeTableRecord
  2
ByBlock
 70
0
  3

 72
65
 73
0
 40
0.0
  0
LTYPE
  5
25
330
2
100
AcDbSymbolTableRecord
100
AcDbLinetypeTableRecord
  2
ByLayer
 70
0
  3

 72
65
 73
0
 40
0.0
  0
LTYPE
  5
26
330
2
100
AcDbSymbolTableRecord
100
AcDbLinetypeTableRecord
  2
Continuous
 70
0
  3

 72
65
 73
0
 40
0.0
  0
ENDTAB
  0
TABLE
  2
LAYER
  5
1
330
0
100
AcDbSymbolTable
 70
2
  0
LAYER
  5
27
330
1
100
AcDbSymbolTableRecord
100
AcDbLayerTableRecord
  2
0
 70
0
 62
7
  6
Continuous
370
-3
390
13
347
21
  0
LAYER
  5
28
330
1
100
AcDbSymbolTableRecord
100
AcDbLayerTableRecord
  2
Defpoints
 70
0
 62
7
  6
Continuous
290
0
370
-3
390
13
347
21
  0
ENDTAB
  0
TABLE
  2
STYLE
  5
5
330
0
100
AcDbSymbolTable
 70
1
  0
STYLE
  5
29
330
5
100
AcDbSymbolTableRecord
100
AcDbTextStyleTableRecord
  2
Standard
 70
0
 40
0.0
 41
1.0
 50
0.0
 71
0
 42
2.5
  3
txt
  4

  0
ENDTAB
  0
TABLE
  2
VIEW
  5
7
330
0
100
AcDbSymbolTable
 70
0
  0
ENDTAB
  0
TABLE
  2
UCS
  5
6
330
0
100
AcDbSymbolTable
 70
0
  0
ENDTAB
  0
TABLE
  2
APPID
  5
3
330
0
100
AcDbSymbolTable
 70
3
  0
APPID
  5
2A
330
3
100
AcDbSymbolTableRecord
100
AcDbRegAppTableRecord
  2
ACAD
 70
0
  0
APPID
  5
76
330
3
100
AcDbSymbolTableRecord
100
AcDbRegAppTableRecord
  2
HATCHBACKGROUNDCOLOR
 70
0
  0
APPID
  5
77
330
3
100
AcDbSymbolTableRecord
100
AcDbRegAppTableRecord
  2
EZDXF
 70
0
  0
ENDTAB
  0
TABLE
  2
DIMSTYLE
  5
4
330
0
100
AcDbSymbolTable
 70
1
100
AcDbDimStyleTable
  0
DIMSTYLE
105
2B
330
4
100
AcDbSymbolTableRecord
100
AcDbDimStyleTableRecord
  2
Standard
 70
0
 40
1.0
 41
2.5
 42
0.625
 43
3.75
 44
1.25
 45
0.0
 46
0.0
 47
0.0
 48
0.0
 49
2.5
140
2.5
141
2.5
142
0.0
143
0.03937007874
144
1.0
145
0.0
146
1.0
147
0.625
148
0.0
 69
0
 70
0
 71
0
 72
0
 73
0
 74
0
 75
0
 76
0
 77
1
 78
8
 79
0
170
0
171
3
172
1
173
0
174
0
175
0
176
0
177
0
178
0
179
0
271
0
272
2
273
2
274
3
275
0
276
0
277
2
278
44
279
0
280
0
281
0
282
0
283
0
284
8
285
0
286
0
288
0
289
3
290
0
371
-2
372
-2
  0
ENDTAB
  0
TABLE
  2
BLOCK_RECORD
  5
9
330
0
100
AcDbSymbolTable
 70
2
  0
BLOCK_RECORD
  5
17
330
9
100
AcDbSymbolTableRecord
100
AcDbBlockTableRecord
  2
*Model_Space
340
1A
 70
0
280
1
281
0
  0
BLOCK_RECORD
  5
1B
330
9
100
AcDbSymbolTableRecord
100
AcDbBlockTableRecord
  2
*Paper_Space
340
1E
 70
0
280
1
281
0
  0
ENDTAB
  0
ENDSEC
  0
SECTION
  2
BLOCKS
  0
BLOCK
  5
18
330
17
100
AcDbEntity
  8
0
100
AcDbBlockBegin
  2
*Model_Space
 70
0
 10
0.0
 20
0.0
 30
0.0
  3
*Model_Space
  1

  0
ENDBLK
  5
19
330
17
100
AcDbEntity
  8
0
100
AcDbBlockEnd
  0
BLOCK
  5
1C
330
1B
100
AcDbEntity
  8
0
100
AcDbBlockBegin
  2
*Paper_Space
 70
0
 10
0.0
 20
0.0
 30
0.0
  3
*Paper_Space
  1

  0
ENDBLK
  5
1D
330
1B
100
AcDbEntity
  8
0
100
AcDbBlockEnd
  0
ENDSEC
  0
SECTION
  2
ENTITIES
  0
SPLINE
  5
2F
330
17
100
AcDbEntity
  8
0
100
AcDbSpline
 70
0
 71
8
 72
88
 73
79
 74
0
 40
0.0
 40
0.0
 40
0.0
 40
0.0
 40
0.0
 40
0.0
 40
0.0
 40
0.0
 40
0.0
 40
0.027689517058645287
 40
0.027689517058645287
 40
0.027689517058645287
 40
0.027689517058645287
 40
0.027689517058645287
 40
0.027689517058645287
 40
0.027689517058645287
 40
0.14583969581155215
 40
0.14583969581155215
 40
0.14583969581155215
 40
0.14583969581155215
 40
0.14583969581155215
 40
0.14583969581155215
 40
0.14583969581155215
 40
0.24486625534931095
 40
0.24486625534931095
 40
0.24486625534931095
 40
0.24486625534931095
 40
0.24486625534931095
 40
0.24486625534931095
 40
0.24486625534931095
 40
0.34624700478957265
 40
0.34624700478957265
 40
0.34624700478957265
 40
0.34624700478957265
 40
0.34624700478957265
 40
0.34624700478957265
 40
0.34624700478957265
 40
0.40544576209391464
 40
0.40544576209391464
 40
0.40544576209391464
 40
0.40544576209391464
 40
0.40544576209391464
 40
0.40544576209391464
 40
0.40544576209391464
 40
0.4803239715751111
 40
0.4803239715751111
 40
0.4803239715751111
 40
0.4803239715751111
 40
0.4803239715751111
 40
0.4803239715751111
 40
0.4803239715751111
 40
0.5131146221963282
 40
0.5131146221963282
 40
0.5131146221963282
 40
0.5131146221963282
 40
0.5131146221963282
 40
0.5131146221963282
 40
0.5131146221963282
 40
0.5495041740881328
 40
0.5495041740881328
 40
0.5495041740881328
 40
0.5495041740881328
 40
0.5495041740881328
 40
0.5495041740881328
 40
0.5495041740881328
 40
0.6612046800895237
 40
0.6612046800895237
 40
0.6612046800895237
 40
0.6612046800895237
 40
0.6612046800895237
 40
0.6612046800895237
 40
0.6612046800895237
 40
0.8198318687923161
 40
0.8198318687923161
 40
0.8198318687923161
 40
0.8198318687923161
 40
0.8198318687923161
 40
0.8198318687923161
 40
0.8198318687923161
 40
1.0
 40
1.0
 40
1.0
 40
1.0
 40
1.0
 40
1.0
 40
1.0
 40
1.0
 40
1.0
 10
49.61615082399735
 20
209.9000000142949
 30
483.0
 10
49.54853415957789
 20
210.06871065880665
 30
483.0
 10
49.48082498309607
 20
210.23611735109168
 30
483.0
 10
49.413024145245544
 20
210.40222467761782
 30
483.0
 10
49.3451324967201
 20
210.56703722485258
 30
483.0
 10
49.277150888213626
 20
210.7305595792632
 30
483.0
 10
49.20908017042014
 20
210.8927963273167
 30
483.0
 10
49.140921194033766
 20
211.05375205547978
 30
483.0
 10
48.78146992938068
 20
211.89477718866775
 30
483.0
 10
48.480547647845974
 20
212.57189436895715
 30
483.0
 10
48.16918284131297
 20
213.24436319335396
 30
483.0
 10
47.84657429242686
 20
213.91161281000063
 30
483.0
 10
47.51183615371518
 20
214.57291732678368
 30
483.0
 10
47.163969308638606
 20
215.227381331033
 30
483.0
 10
46.80181263028706
 20
215.87391481505227
 30
483.0
 10
46.10729204401084
 20
217.04533053334876
 30
483.0
 10
45.779668160471005
 20
217.5728381184722
 30
483.0
 10
45.440250152336525
 20
218.09301797740406
 30
483.0
 10
45.08814358755383
 20
218.60490377020548
 30
483.0
 10
44.722406424359164
 20
219.10726147351502
 30
483.0
 10
44.342032979750414
 20
219.5985777242364
 30
483.0
 10
43.94592737885228
 20
220.07704013584745
 30
483.0
 10
43.1099857634683
 20
221.01499724551906
 30
483.0
 10
42.669503124192154
 20
221.47357978272922
 30
483.0
 10
42.2100620916806
 20
221.91406153426442
 30
483.0
 10
41.73052080324877
 20
222.33345131637728
 30
483.0
 10
41.230032915510925
 20
222.72807301596706
 30
483.0
 10
40.708140815298975
 20
223.0936874573743
 30
483.0
 10
40.16497564828026
 20
223.42575114637089
 30
483.0
 10
39.272723799008915
 20
223.89172026224585
 30
483.0
 10
38.93696330897387
 20
224.05056431843104
 30
483.0
 10
38.59474989858482
 20
224.1955391046764
 30
483.0
 10
38.246549968603574
 20
224.32579226004646
 30
483.0
 10
37.892936038760254
 20
224.4405865191884
 30
483.0
 10
37.53459999472698
 20
224.53933849099667
 30
483.0
 10
37.172367173541254
 20
224.6216593147496
 30
483.0
 10
36.34533978586523
 20
224.77054648428737
 30
483.0
 10
35.878590405526204
 20
224.82720161342075
 30
483.0
 10
35.40898685813548
 20
224.8570012606568
 30
483.0
 10
34.93835128435078
 20
224.86031755313329
 30
483.0
 10
34.46830776387867
 20
224.83807941354337
 30
483.0
 10
34.00028476370978
 20
224.79161427641637
 30
483.0
 10
33.53551652452457
 20
224.72250817272567
 30
483.0
 10
32.87339307960149
 20
224.5930608950488
 30
483.0
 10
32.672532988369
 20
224.5496145221451
 30
483.0
 10
32.47252315855591
 20
224.50230252051725
 30
483.0
 10
32.27342863558519
 20
224.4512420066734
 30
483.0
 10
32.07529917042338
 20
224.3965695152051
 30
483.0
 10
31.878166086423196
 20
224.33845031231027
 30
483.0
 10
31.68205630590457
 20
224.27703726485797
 30
483.0
 10
31.270585163055205
 20
224.14062479850375
 30
483.0
 10
31.054785880087724
 20
224.06464752764523
 30
483.0
 10
30.839639827806486
 20
223.98448526786922
 30
483.0
 10
30.62516114643065
 20
223.9001758346322
 30
483.0
 10
30.411363976163432
 20
223.8117570433974
 30
483.0
 10
30.198262457192172
 20
223.71926670963504
 30
483.0
 10
29.985870729688305
 20
223.6227426488222
 30
483.0
 10
29.12447248440825
 20
223.21366895169692
 30
483.0
 10
28.490727779480732
 20
222.8718166939238
 30
483.0
 10
27.873628576999337
 20
222.4998980556605
 30
483.0
 10
27.273466024180394
 20
222.10102825680013
 30
483.0
 10
26.69025133837087
 20
221.6780708860207
 30
483.0
 10
26.123766434386063
 20
221.23356192121238
 30
483.0
 10
25.57359499323536
 20
220.76966342868553
 30
483.0
 10
24.280184415311
 20
219.6042694920797
 30
483.0
 10
23.553331013315386
 20
218.8851875515764
 30
483.0
 10
22.85684992128379
 20
218.13591673787155
 30
483.0
 10
22.189265933600446
 20
217.36063946523558
 30
483.0
 10
21.549205630806767
 20
216.56282368871464
 30
483.0
 10
20.9353369696554
 20
215.7452765285285
 30
483.0
 10
20.34635973142489
 20
214.91015357231504
 30
483.0
 10
19.13885117384585
 20
213.09220696642066
 30
483.0
 10
18.527440248796943
 20
212.1051364728914
 30
483.0
 10
17.945034266118103
 20
211.10030861005242
 30
483.0
 10
17.390296681036574
 20
210.0798348142471
 30
483.0
 10
16.862121955817138
 20
209.04547909050643
 30
483.0
 10
16.3595677828614
 20
207.99869575403255
 30
483.0
 10
15.881832205132916
 20
206.94064258482226
 30
483.0
 10
15.428230152640396
 20
205.87219459645547
 30
483.0
  0
LINE
  5
30
330
17
100
AcDbEntity
  8
0
100
AcDbLine
 10
29.734663231093663
 20
209.9
 30
483.0
 11
49.61615078833021
 21
209.9
 31
483.0
  0
SPLINE
  5
31
330
17
100
AcDbEntity
  8
0
100
AcDbSpline
 70
0
 71
1
 72
4
 73
2
 74
0
 40
0.0
 40
0.0
 40
1.0
 40
1.0
 10
29.734663235021873
 20
209.90000060000008
 30
483.0
 10
29.734663235021873
 20
206.09999939999994
 30
483.0
  0
LINE
  5
32
330
17
100
AcDbEntity
  8
0
100
AcDbLine
 10
29.734663231093663
 20
206.1
 30
483.0
 11
51.01767914236783
 21
206.1
 31
483.0
  0
SPLINE
  5
33
330
17
100
AcDbEntity
  8
0
100
AcDbSpline
 70
0
 71
8
 72
39
 73
30
 74
0
 40
0.0
 40
0.0
 40
0.0
 40
0.0
 40
0.0
 40
0.0
 40
0.0
 40
0.0
 40
0.0
 40
0.4990912968691251
 40
0.4990912968691251
 40
0.4990912968691251
 40
0.4990912968691251
 40
0.4990912968691251
 40
0.4990912968691251
 40
0.4990912968691251
 40
0.6894582071976507
 40
0.6894582071976507
 40
0.6894582071976507
 40
0.6894582071976507
 40
0.6894582071976507
 40
0.6894582071976507
 40
0.6894582071976507
 40
0.8322333899440986
 40
0.8322333899440986
 40
0.8322333899440986
 40
0.8322333899440986
 40
0.8322333899440986
 40
0.8322333899440986
 40
0.8322333899440986
 40
1.0
 40
1.0
 40
1.0
 40
1.0
 40
1.0
 40
1.0
 40
1.0
 40
1.0
 40
1.0
 10
56.56200822245356
 20
183.9000000031831
 30
483.0
 10
56.27628114981169
 20
185.37616575713218
 30
483.0
 10
55.982541455293024
 20
186.85077256049237
 30
483.0
 10
55.68019537920068
 20
188.32366716210365
 30
483.0
 10
55.36855788372476
 20
189.79464937817355
 30
483.0
 10
55.046825167902355
 20
191.2634660182395
 30
483.0
 10
54.71404189282204
 20
192.72980381328148
 30
483.0
 10
54.36903394192556
 20
194.19327483077933
 30
483.0
 10
53.873438153388754
 20
196.21031443614163
 30
483.0
 10
53.73600845641187
 20
196.7610140431768
 30
483.0
 10
53.59799056281409
 20
197.3054174529764
 30
483.0
 10
53.45938658507939
 20
197.84345543589328
 30
483.0
 10
53.320198635690836
 20
198.37505876227664
 30
483.0
 10
53.18042882713056
 20
198.90015820247237
 30
483.0
 10
53.0400792718798
 20
199.4186845268229
 30
483.0
 10
52.793456690323055
 20
200.31448148980056
 30
483.0
 10
52.68743637898402
 20
200.69465815458665
 30
483.0
 10
52.581092039604286
 20
201.0710692937622
 30
483.0
 10
52.47442456338617
 20
201.44368570106283
 30
483.0
 10
52.3674348415317
 20
201.81247817022265
 30
483.0
 10
52.2601237652426
 20
202.1774174949744
 30
483.0
 10
52.152492225720344
 20
202.53847446904965
 30
483.0
 10
51.91769419519287
 20
203.3152801855121
 30
483.00000000000006
 10
51.79043461188617
 20
203.7294758372793
 30
483.0
 10
51.66272705888527
 20
204.1381888865847
 30
483.0
 10
51.53456967125399
 20
204.54142155922366
 30
483.0
 10
51.40597475105403
 20
204.93918978407277
 30
483.0
 10
51.27695604013108
 20
205.33151897730653
 30
483.0
 10
51.14752253911375
 20
205.71844208844152
 30
483.0
 10
51.01767887262542
 20
206.099999908207
 30
483.0
  0
LINE
  5
34
330
17
100
AcDbEntity
  8
0
100
AcDbLine
 10
29.734663231093663
 20
183.9
 30
483.0
 11
56.5620082060084
 21
183.9
 31
483.0
  0
SPLINE
  5
35
330
17
100
AcDbEntity
  8
0
100
AcDbSpline
 70
0
 71
1
 72
4
 73
2
 74
0
 40
0.0
 40
0.0
 40
1.0
 40
1.0
 10
29.734663235021873
 20
183.90000060000014
 30
483.0
 10
29.734663235021873
 20
180.0999993999999
 30
483.0
  0
LINE
  5
36
330
17
100
AcDbEntity
  8
0
100
AcDbLine
 10
29.734663231093663
 20
180.1
 30
483.0
 11
57.27457585811095
 21
180.1
 31
483.0
  0
SPLINE
  5
37
330
17
100
AcDbEntity
  8
0
100
AcDbSpline
 70
0
 71
8
 72
25
 73
16
 74
0
 40
0.0
 40
0.0
 40
0.0
 40
0.0
 40
0.0
 40
0.0
 40
0.0
 40
0.0
 40
0.0
 40
0.31941041249143665
 40
0.31941041249143665
 40
0.31941041249143665
 40
0.31941041249143665
 40
0.31941041249143665
 40
0.31941041249143665
 40
0.31941041249143665
 40
1.0
 40
1.0
 40
1.0
 40
1.0
 40
1.0
 40
1.0
 40
1.0
 40
1.0
 40
1.0
 10
60.73580756940568
 20
157.89999999896054
 30
483.0
 10
60.61601115318085
 20
158.78911702991047
 30
483.0
 10
60.49480247959663
 20
159.6780429132097
 30
483.0
 10
60.3721489910551
 20
160.5667708539811
 30
483.0
 10
60.248016166970196
 20
161.45529370451624
 30
483.0
 10
60.12236733393541
 20
162.3436039411915
 30
483.0
 10
59.99516344561172
 20
163.23169363769162
 30
483.0
 10
59.86636282569138
 20
164.11955443371642
 30
483.0
 10
59.45797926942157
 20
166.89849660245167
 30
483.00000000000006
 10
59.172589868508936
 20
168.78870738409165
 30
483.0
 10
58.87932085058151
 20
170.67772383932393
 30
483.0
 10
58.57768243344415
 20
172.56543558793996
 30
483.0
 10
58.26711046971803
 20
174.45170508357873
 30
483.0
 10
57.946949544486635
 20
176.33636478407342
 30
483.0
 10
57.61642282126958
 20
178.21921210831286
 30
483.0
 10
57.274575891807764
 20
180.10000000612465
 30
483.0
  0
LINE
  5
38
330
17
100
AcDbEntity
  8
0
100
AcDbLine
 10
29.734663231093663
 20
157.9
 30
483.0
 11
60.735807577120795
 21
157.9
 31
483.0
  0
SPLINE
  5
39
330
17
100
AcDbEntity
  8
0
100
AcDbSpline
 70
0
 71
1
 72
4
 73
2
 74
0
 40
0.0
 40
0.0
 40
1.0
 40
1.0
 10
29.734663235021873
 20
157.90000060000042
 30
483.0
 10
29.734663235021873
 20
154.09999939999918
 30
483.0
  0
LINE
  5
3A
330
17
100
AcDbEntity
  8
0
100
AcDbLine
 10
29.734663231093663
 20
154.1
 30
483.0
 11
61.2365974223233
 21
154.1
 31
483.0
  0
SPLINE
  5
3B
330
17
100
AcDbEntity
  8
0
100
AcDbSpline
 70
0
 71
8
 72
18
 73
9
 74
0
 40
0.0
 40
0.0
 40
0.0
 40
0.0
 40
0.0
 40
0.0
 40
0.0
 40
0.0
 40
0.0
 40
1.0
 40
1.0
 40
1.0
 40
1.0
 40
1.0
 40
1.0
 40
1.0
 40
1.0
 40
1.0
 10
63.774704630835664
 20
131.9000000020711
 30
483.0
 10
63.49338028678919
 20
134.6789492027432
 30
483.0
 10
63.2026920817092
 20
137.45695248038686
 30
483.0
 10
62.90227603767829
 20
140.23394270381914
 30
483.0
 10
62.59170870748433
 20
143.00983485238416
 30
483.0
 10
62.270496035306934
 20
145.78452463697448
 30
483.0
 10
61.93805740814321
 20
148.5578865213066
 30
483.0
 10
61.59370430444008
 20
151.3297711226347
 30
483.0
 10
61.23659737253947
 20
154.09999999358251
 30
483.0
  0
LINE
  5
3C
330
17
100
AcDbEntity
  8
0
100
AcDbLine
 10
29.734663231093663
 20
131.9
 30
483.0
 11
63.77470461037677
 21
131.9
 31
483.0
  0
SPLINE
  5
3D
330
17
100
AcDbEntity
  8
0
100
AcDbSpline
 70
0
 71
1
 72
4
 73
2
 74
0
 40
0.0
 40
0.0
 40
1.0
 40
1.0
 10
29.734663235021873
 20
131.90000060000256
 30
483.0
 10
29.734663235021873
 20
128.09999939999764
 30
483.0
  0
LINE
  5
3E
330
17
100
AcDbEntity
  8
0
100
AcDbLine
 10
29.734663231093663
 20
128.1
 30
483.0
 11
64.15175872106116
 21
128.1
 31
483.0
  0
SPLINE
  5
3F
330
17
100
AcDbEntity
  8
0
100
AcDbSpline
 70
0
 71
8
 72
25
 73
16
 74
0
 40
0.0
 40
0.0
 40
0.0
 40
0.0
 40
0.0
 40
0.0
 40
0.0
 40
0.0
 40
0.0
 40
0.647973897220955
 40
0.647973897220955
 40
0.647973897220955
 40
0.647973897220955
 40
0.647973897220955
 40
0.647973897220955
 40
0.647973897220955
 40
1.0
 40
1.0
 40
1.0
 40
1.0
 40
1.0
 40
1.0
 40
1.0
 40
1.0
 40
1.0
 10
66.07155814264857
 20
105.89999999904515
 30
483.0
 10
65.93434978415544
 20
107.69965856317536
 30
483.0
 10
65.79388138327832
 20
109.49906823571304
 30
483.0
 10
65.6501237975294
 20
111.29822007375898
 30
483.0
 10
65.50301833645834
 20
113.09710231705876
 30
483.0
 10
65.35258532126038
 20
114.89570959791538
 30
483.0
 10
65.19872392563943
 20
116.69402547687501
 30
483.0
 10
65.04140495498923
 20
118.4920398036033
 30
483.0
 10
64.79317592978407
 20
121.26637771821234
 30
483.0
 10
64.70475265332446
 20
122.24291780994585
 30
483.0
 10
64.61527916460399
 20
123.21935762244914
 30
483.0
 10
64.52474474975187
 20
124.19569590374631
 30
483.0
 10
64.43313800314732
 20
125.17193115604061
 30
483.0
 10
64.34044680161945
 20
126.14806163268776
 30
483.0
 10
64.24665826781717
 20
127.12408533374386
 30
483.0
 10
64.15175872410757
 20
128.10000000029626
 30
483.0
  0
LINE
  5
40
330
17
100
AcDbEntity
  8
0
100
AcDbLine
 10
29.734663231093663
 20
105.9
 30
483.0
 11
66.07155815517301
 21
105.9
 31
483.0
  0
SPLINE
  5
41
330
17
100
AcDbEntity
  8
0
100
AcDbSpline
 70
0
 71
1
 72
4
 73
2
 74
0
 40
0.0
 40
0.0
 40
1.0
 40
1.0
 10
29.734663235021873
 20
105.90000060000206
 30
483.0
 10
29.734663235021873
 20
102.09999939999993
 30
483.0
  0
LINE
  5
42
330
17
100
AcDbEntity
  8
0
100
AcDbLine
 10
29.734663231093663
 20
102.1
 30
483.0
 11
66.35491653235498
 21
102.1
 31
483.0
  0
SPLINE
  5
43
330
17
100
AcDbEntity
  8
0
100
AcDbSpline
 70
0
 71
8
 72
25
 73
16
 74
0
 40
0.0
 40
0.0
 40
0.0
 40
0.0
 40
0.0
 40
0.0
 40
0.0
 40
0.0
 40
0.0
 40
0.23398704033953688
 40
0.23398704033953688
 40
0.23398704033953688
 40
0.23398704033953688
 40
0.23398704033953688
 40
0.23398704033953688
 40
0.23398704033953688
 40
1.0
 40
1.0
 40
1.0
 40
1.0
 40
1.0
 40
1.0
 40
1.0
 40
1.0
 40
1.0
 10
67.76579163087465
 20
79.8999999993801
 30
483.0
 10
67.73038570111241
 20
80.5496682322007
 30
483.0
 10
67.69459975093525
 20
81.19931585790766
 30
483.0
 10
67.65843246128058
 20
81.8489425608866
 30
483.0
 10
67.62188250303512
 20
82.49854802300078
 30
483.0
 10
67.5849485368974
 20
83.14813192358844
 30
483.0
 10
67.54762921323442
 20
83.79769393946017
 30
483.0
 10
67.50992317193185
 20
84.44723374489638
 30
483.0
 10
67.34711872926033
 20
87.22310229644535
 30
483.0
 10
67.2182492935873
 20
89.34920939648534
 30
482.9999999999999
 10
67.08517271412983
 20
91.47506004967043
 30
482.9999999999999
 10
66.94783979223416
 20
93.60064146193032
 30
482.9999999999999
 10
66.8062000991223
 20
95.72594030364863
 30
482.9999999999999
 10
66.66020192333316
 20
97.85094270609248
 30
482.9999999999999
 10
66.50979221816395
 20
99.97563425784229
 30
482.9999999999999
 10
66.35491654911138
 20
102.10000000122156
 30
482.9999999999999
  0
LINE
  5
44
330
17
100
AcDbEntity
  8
0
100
AcDbLine
 10
29.734663231093663
 20
79.9
 30
483.0
 11
67.76579164224975
 21
79.9
 31
483.0
  0
SPLINE
  5
45
330
17
100
AcDbEntity
  8
0
100
AcDbSpline
 70
0
 71
1
 72
4
 73
2
 74
0
 40
0.0
 40
0.0
 40
1.0
 40
1.0
 10
29.734663235021873
 20
79.90000060000001
 30
483.0
 10
29.734663235021873
 20
76.09999939999999
 30
483.0
  0
LINE
  5
46
330
17
100
AcDbEntity
  8
0
100
AcDbLine
 10
29.734663231093663
 20
76.1
 30
483.0
 11
67.96721087578976
 21
76.1
 31
483.0
  0
SPLINE
  5
47
330
17
100
AcDbEntity
  8
0
100
AcDbSpline
 70
0
 71
8
 72
18
 73
9
 74
0
 40
0.0
 40
0.0
 40
0.0
 40
0.0
 40
0.0
 40
0.0
 40
0.0
 40
0.0
 40
0.0
 40
1.0
 40
1.0
 40
1.0
 40
1.0
 40
1.0
 40
1.0
 40
1.0
 40
1.0
 40
1.0
 10
68.92486318877886
 20
53.90000000000238
 30
483.00000000000006
 10
68.82771561312485
 20
56.6759155094302
 30
483.0
 10
68.72430008278128
 20
59.451610911880465
 30
483.0
 10
68.61453128184908
 20
62.22706650102292
 30
483.0
 10
68.49832126382894
 20
65.00226175191081
 30
483.0
 10
68.37557932994716
 20
67.77717531713853
 30
483.0
 10
68.24621189682084
 20
70.55178502265372
 30
483.0
 10
68.11012234845445
 20
73.32606786336625
 30
483.0
 10
67.96721085808231
 20
76.09999999908769
 30
483.0
  0
LINE
  5
48
330
17
100
AcDbEntity
  8
0
100
AcDbLine
 10
29.734663231093663
 20
53.9
 30
483.0
 11
68.92486318871102
 21
53.9
 31
483.0
  0
SPLINE
  5
49
330
17
100
AcDbEntity
  8
0
100
AcDbSpline
 70
0
 71
1
 72
4
 73
2
 74
0
 40
0.0
 40
0.0
 40
1.0
 40
1.0
 10
29.734663235021873
 20
53.90000060000026
 30
483.0
 10
29.734663235021873
 20
50.09999939999937
 30
483.0
  0
LINE
  5
4A
330
17
100
AcDbEntity
  8
0
100
AcDbLine
 10
29.734663231093663
 20
50.1
 30
483.0
 11
69.05272960416124
 21
50.1
 31
483.0
  0
SPLINE
  5
4B
330
17
100
AcDbEntity
  8
0
100
AcDbSpline
 70
0
 71
8
 72
18
 73
9
 74
0
 40
0.0
 40
0.0
 40
0.0
 40
0.0
 40
0.0
 40
0.0
 40
0.0
 40
0.0
 40
0.0
 40
1.0
 40
1.0
 40
1.0
 40
1.0
 40
1.0
 40
1.0
 40
1.0
 40
1.0
 40
1.0
 10
69.60142461714733
 20
27.90000000044911
 30
483.0
 10
69.55334830954493
 20
30.675455616798338
 30
483.0
 10
69.49955996717668
 20
33.450812934532735
 30
483.0
 10
69.43998828162752
 20
36.22605701970846
 30
483.0
 10
69.37455981560544
 20
39.001172136748124
 30
483.0
 10
69.30319891359534
 20
41.77614174577933
 30
483.0
 10
69.22582760063719
 20
44.55094849982997
 30
483.0
 10
69.14236547528637
 20
47.32557424156668
 30
483.0
 10
69.05272959338467
 20
50.09999999965185
 30
483.0
  0
LINE
  5
4C
330
17
100
AcDbEntity
  8
0
100
AcDbLine
 10
29.734663231093663
 20
27.9
 30
483.0
 11
69.60142459122105
 21
27.9
 31
483.0
  0
SPLINE
  5
4D
330
17
100
AcDbEntity
  8
0
100
AcDbSpline
 70
0
 71
1
 72
4
 73
2
 74
0
 40
0.0
 40
0.0
 40
1.0
 40
1.0
 10
29.734663235021873
 20
27.900000600000002
 30
483.0
 10
29.734663235021873
 20
24.099999399999998
 30
483.0
  0
LINE
  5
4E
330
17
100
AcDbEntity
  8
0
100
AcDbLine
 10
29.734663231093663
 20
24.1
 30
483.0
 11
69.66258224290142
 21
24.1
 31
483.0
  0
SPLINE
  5
4F
330
17
100
AcDbEntity
  8
0
100
AcDbSpline
 70
0
 71
8
 72
18
 73
9
 74
0
 40
0.0
 40
0.0
 40
0.0
 40
0.0
 40
0.0
 40
0.0
 40
0.0
 40
0.0
 40
0.0
 40
1.0
 40
1.0
 40
1.0
 40
1.0
 40
1.0
 40
1.0
 40
1.0
 40
1.0
 40
1.0
 10
69.8386297344641
 20
1.9000000000464496
 30
483.0
 10
69.83543192965746
 20
4.675113023916312
 30
483.0
 10
69.82698458413991
 20
7.4502162701776635
 30
483.0
 10
69.81322794537506
 20
10.225299468395814
 30
483.0
 10
69.79410039814638
 20
13.000351561398485
 30
483.0
 10
69.76953845698692
 20
15.775360701209552
 30
483.0
 10
69.73947671968415
 20
18.550314246104975
 30
483.0
 10
69.70384779892608
 20
21.325198758023532
 30
483.0
 10
69.66258223974542
 20
24.099999999953056
 30
483.0
  0
LINE
  5
50
330
17
100
AcDbEntity
  8
0
100
AcDbLine
 10
29.734663231093663
 20
1.9
 30
483.0
 11
69.83862969415233
 21
1.9
 31
483.0
  0
SPLINE
  5
51
330
17
100
AcDbEntity
  8
0
100
AcDbSpline
 70
0
 71
1
 72
4
 73
2
 74
0
 40
0.0
 40
0.0
 40
0.9999993684216398
 40
0.9999993684216398
 10
29.734663235021873
 20
1.9000006000000558
 30
483.0
 10
29.734663235021873
 20
-6.553790374438061e-17
 30
483.0
  0
SPLINE
  5
52
330
17
100
AcDbEntity
  8
0
100
AcDbSpline
 70
0
 71
1
 72
4
 73
2
 74
0
 40
0.0
 40
0.0
 40
1.0
 40
1.0
 10
29.734663235021873
 20
-1.9000006000000011
 30
483.0
 10
29.734663235021873
 20
1.2000000211287443e-06
 30
483.0
  0
LINE
  5
53
330
17
100
AcDbEntity
  8
0
100
AcDbLine
 10
29.73466323109364
 20
-1.9
 30
483.0
 11
69.8387148512544
 21
-1.9
 31
483.0
  0
SPLINE
  5
54
330
17
100
AcDbEntity
  8
0
100
AcDbSpline
 70
0
 71
8
 72
18
 73
9
 74
0
 40
0.0
 40
0.0
 40
0.0
 40
0.0
 40
0.0
 40
0.0
 40
0.0
 40
0.0
 40
0.0
 40
1.0
 40
1.0
 40
1.0
 40
1.0
 40
1.0
 40
1.0
 40
1.0
 40
1.0
 40
1.0
 10
69.66361849198682
 20
-24.10000000034832
 30
483.0
 10
69.70477480234617
 20
-21.325206183856853
 30
483.0
 10
69.74029050531782
 20
-18.550328898829623
 30
483.0
 10
69.77023567143054
 20
-15.775381628215904
 30
483.0
 10
69.79467829217279
 20
-13.000376889355051
 30
483.0
 10
69.81368436249517
 20
-10.225326237616404
 30
483.0
 10
69.82731795680142
 20
-7.450240269806653
 30
483.0
 10
69.83564130047917
 20
-4.675128627442485
 30
483.0
 10
69.83871483902128
 20
-1.8999999999864408
 30
483.0
  0
LINE
  5
55
330
17
100
AcDbEntity
  8
0
100
AcDbLine
 10
29.734663231093645
 20
-24.1
 30
483.0
 11
69.66361846850243
 21
-24.1
 31
483.0
  0
SPLINE
  5
56
330
17
100
AcDbEntity
  8
0
100
AcDbSpline
 70
0
 71
1
 72
4
 73
2
 74
0
 40
0.0
 40
0.0
 40
1.0
 40
1.0
 10
29.734663235021873
 20
-27.900000600000034
 30
483.0
 10
29.734663235021873
 20
-24.099999399999938
 30
483.0
  0
LINE
  5
57
330
17
100
AcDbEntity
  8
0
100
AcDbLine
 10
29.734663231093645
 20
-27.9
 30
483.0
 11
69.60260690224426
 21
-27.9
 31
483.0
  0
SPLINE
  5
58
330
17
100
AcDbEntity
  8
0
100
AcDbSpline
 70
0
 71
8
 72
18
 73
9
 74
0
 40
0.0
 40
0.0
 40
0.0
 40
0.0
 40
0.0
 40
0.0
 40
0.0
 40
0.0
 40
0.0
 40
1.0
 40
1.0
 40
1.0
 40
1.0
 40
1.0
 40
1.0
 40
1.0
 40
1.0
 40
1.0
 10
69.05457961278088
 20
-50.10000000029591
 30
483.0
 10
69.14415709118471
 20
-47.325568352162946
 30
483.0
 10
69.22755238062813
 20
-44.550938355529624
 30
483.0
 10
69.30484905458836
 20
-41.77612921973292
 30
483.0
 10
69.37612815130464
 20
-39.00115916781192
 30
483.0
 10
69.44146828776692
 20
-36.226045441374524
 30
483.0
 10
69.50094576236827
 20
-33.45080430500158
 30
483.0
 10
69.55463464827648
 20
-30.67545105028647
 30
483.0
 10
69.60260687957967
 20
-27.899999999608248
 30
483.0
  0
LINE
  5
59
330
17
100
AcDbEntity
  8
0
100
AcDbLine
 10
29.734663231093645
 20
-50.1
 30
483.0
 11
69.05457960361491
 21
-50.1
 31
483.0
  0
SPLINE
  5
5A
330
17
100
AcDbEntity
  8
0
100
AcDbSpline
 70
0
 71
1
 72
4
 73
2
 74
0
 40
0.0
 40
0.0
 40
1.0
 40
1.0
 10
29.734663235021873
 20
-53.9000006
 30
483.0
 10
29.734663235021873
 20
-50.0999994
 30
483.0
  0
LINE
  5
5B
330
17
100
AcDbEntity
  8
0
100
AcDbLine
 10
29.734663231093645
 20
-53.9
 30
483.0
 11
68.92678642184345
 21
-53.9
 31
483.0
  0
SPLINE
  5
5C
330
17
100
AcDbEntity
  8
0
100
AcDbSpline
 70
0
 71
8
 72
18
 73
9
 74
0
 40
0.0
 40
0.0
 40
0.0
 40
0.0
 40
0.0
 40
0.0
 40
0.0
 40
0.0
 40
0.0
 40
1.0
 40
1.0
 40
1.0
 40
1.0
 40
1.0
 40
1.0
 40
1.0
 40
1.0
 40
1.0
 10
67.96923243151667
 20
-76.09999999972979
 30
483.0
 10
68.11217175872693
 20
-73.32607325836716
 30
483.0
 10
68.24827651978231
 20
-70.55179217785263
 30
483.0
 10
68.37764709761449
 20
-67.77718186863574
 30
483.0
 10
68.50038069103711
 20
-65.00226642507862
 30
483.0
 10
68.61657147756118
 20
-62.22706893237442
 30
483.0
 10
68.7263107599969
 20
-59.451611472770615
 30
483.0
 10
68.82968709890623
 20
-56.67591513119592
 30
483.0
 10
68.92678643297029
 20
-53.90000000038919
 30
483.0
  0
LINE
  5
5D
330
17
100
AcDbEntity
  8
0
100
AcDbLine
 10
29.734663231093645
 20
-76.1
 30
483.0
 11
67.96923243676044
 21
-76.1
 31
483.0
  0
SPLINE
  5
5E
330
17
100
AcDbEntity
  8
0
100
AcDbSpline
 70
0
 71
1
 72
4
 73
2
 74
0
 40
0.0
 40
0.0
 40
1.0
 40
1.0
 10
29.734663235021873
 20
-79.90000060000018
 30
483.0
 10
29.734663235021873
 20
-76.09999939999999
 30
483.0
  0
LINE
  5
5F
330
17
100
AcDbEntity
  8
0
100
AcDbLine
 10
29.73466323109364
 20
-79.9
 30
483.0
 11
67.76776397532763
 21
-79.9
 31
483.0
  0
SPLINE
  5
60
330
17
100
AcDbEntity
  8
0
100
AcDbSpline
 70
0
 71
8
 72
18
 73
9
 74
0
 40
0.0
 40
0.0
 40
0.0
 40
0.0
 40
0.0
 40
0.0
 40
0.0
 40
0.0
 40
0.0
 40
1.0
 40
1.0
 40
1.0
 40
1.0
 40
1.0
 40
1.0
 40
1.0
 40
1.0
 40
1.0
 10
66.35612092000744
 20
-102.09999999950759
 30
483.0
 10
66.55845758564206
 20
-99.32672706841377
 30
483.0
 10
66.75316550908465
 20
-96.55290076648711
 30
483.0
 10
66.94036665639338
 20
-93.77855237004968
 30
483.0
 10
67.12017888101434
 20
-91.00371209589525
 30
483.0
 10
67.2927161533859
 20
-88.22840911111143
 30
483.0
 10
67.4580887693507
 20
-85.45267154196978
 30
483.0
 10
67.61640353945552
 20
-82.67652648198339
 30
483.0
 10
67.7677639612191
 20
-79.89999999923084
 30
483.0
  0
LINE
  5
61
330
17
100
AcDbEntity
  8
0
100
AcDbLine
 10
29.734663231093645
 20
-102.1
 30
483.0
 11
66.35612092675626
 21
-102.1
 31
483.0
  0
SPLINE
  5
62
330
17
100
AcDbEntity
  8
0
100
AcDbSpline
 70
0
 71
1
 72
4
 73
2
 74
0
 40
0.0
 40
0.0
 40
1.0
 40
1.0
 10
29.734663235021873
 20
-105.90000060000003
 30
483.0
 10
29.734663235021873
 20
-102.09999939999999
 30
483.0
  0
LINE
  5
63
330
17
100
AcDbEntity
  8
0
100
AcDbLine
 10
29.734663231093645
 20
-105.9
 30
483.0
 11
66.07253849533119
 21
-105.9
 31
483.0
  0
SPLINE
  5
64
330
17
100
AcDbEntity
  8
0
100
AcDbSpline
 70
0
 71
8
 72
32
 73
23
 74
0
 40
0.0
 40
0.0
 40
0.0
 40
0.0
 40
0.0
 40
0.0
 40
0.0
 40
0.0
 40
0.0
 40
0.40651553127135437
 40
0.40651553127135437
 40
0.40651553127135437
 40
0.40651553127135437
 40
0.40651553127135437
 40
0.40651553127135437
 40
0.40651553127135437
 40
0.7231345126425404
 40
0.7231345126425404
 40
0.7231345126425404
 40
0.7231345126425404
 40
0.7231345126425404
 40
0.7231345126425404
 40
0.7231345126425404
 40
1.0
 40
1.0
 40
1.0
 40
1.0
 40
1.0
 40
1.0
 40
1.0
 40
1.0
 40
1.0
 10
64.15082569140966
 20
-128.09999999690368
 30
483.0000000000001
 10
64.26053677820899
 20
-126.9730129678398
 30
483.0000000000001
 10
64.36876383263171
 20
-125.84588146301647
 30
483.0000000000001
 10
64.47552776440425
 20
-124.71860962031774
 30
483.0000000000001
 10
64.58084804776558
 20
-123.59120121465106
 30
483.0000000000001
 10
64.68474281909752
 20
-122.4636596691046
 30
483.0000000000001
 10
64.78722896196517
 20
-121.33598806478643
 30
483.00000000000006
 10
64.8883221884474
 20
-120.20818915037452
 30
483.0
 10
65.06570117389981
 20
-118.20176980548288
 30
483.0
 10
65.14252890367531
 20
-117.32320025534413
 30
483.0
 10
65.21852722104695
 20
-116.44455824668657
 30
483.0
 10
65.29370260248764
 20
-115.5658452647346
 30
483.0
 10
65.3680610948594
 20
-114.6870627352405
 30
483.0
 10
65.44160831541343
 20
-113.80821202448452
 30
483.0
 10
65.51434945179008
 20
-112.92929443927481
 30
483.0
 10
65.64919657898741
 20
-111.2816898562193
 30
483.0
 10
65.71149086915989
 20
-110.51301919822575
 30
483.0
 10
65.77317494144211
 20
-109.74429997130758
 30
483.0
 10
65.83425157781468
 20
-108.97553288742598
 30
483.0
 10
65.89472353375861
 20
-108.20671865218071
 30
483.0
 10
65.95459353867034
 20
-107.43785796482793
 30
483.0
 10
66.01386429626672
 20
-106.66895151829755
 30
483.0
 10
66.07253848497984
 20
-105.89999999921015
 30
483.0
  0
LINE
  5
65
330
17
100
AcDbEntity
  8
0
100
AcDbLine
 10
29.73466323109364
 20
-128.1
 30
483.0
 11
64.15082572321654
 21
-128.1
 31
483.0
  0
SPLINE
  5
66
330
17
100
AcDbEntity
  8
0
100
AcDbSpline
 70
0
 71
1
 72
4
 73
2
 74
0
 40
0.0
 40
0.0
 40
1.0
 40
1.0
 10
29.734663235021873
 20
-131.9000006
 30
483.0
 10
29.734663235021873
 20
-128.09999939999992
 30
483.0
  0
LINE
  5
67
330
17
100
AcDbEntity
  8
0
100
AcDbLine
 10
29.734663231093645
 20
-131.9
 30
483.0
 11
63.773352229208626
 21
-131.9
 31
483.0
  0
SPLINE
  5
68
330
17
100
AcDbEntity
  8
0
100
AcDbSpline
 70
0
 71
8
 72
18
 73
9
 74
0
 40
0.0
 40
0.0
 40
0.0
 40
0.0
 40
0.0
 40
0.0
 40
0.0
 40
0.0
 40
0.0
 40
1.0
 40
1.0
 40
1.0
 40
1.0
 40
1.0
 40
1.0
 40
1.0
 40
1.0
 40
1.0
 10
61.23243845587542
 20
-154.09999999777534
 30
483.0
 10
61.58992201532227
 20
-151.32977474684532
 30
483.0
 10
61.934645315919454
 20
-148.55790891663946
 30
483.0
 10
62.26744761487841
 20
-145.78456742264862
 30
483.0
 10
62.58901821873518
 20
-143.00989085180373
 30
483.0
 10
62.899935666285145
 20
-140.23399987664465
 30
483.0
 10
63.200692516469864
 20
-137.45699803345505
 30
483.0
 10
63.4917106768664
 20
-134.67897343617412
 30
483.0
 10
63.773352208429706
 20
-131.89999999789413
 30
483.0
  0
LINE
  5
69
330
17
100
AcDbEntity
  8
0
100
AcDbLine
 10
29.73466323109364
 20
-154.1
 30
483.0
 11
61.232438473115145
 21
-154.1
 31
483.0
  0
SPLINE
  5
6A
330
17
100
AcDbEntity
  8
0
100
AcDbSpline
 70
0
 71
1
 72
4
 73
2
 74
0
 40
0.0
 40
0.0
 40
1.0
 40
1.0
 10
29.734663235021873
 20
-157.90000060000003
 30
483.0
 10
29.734663235021873
 20
-154.0999994
 30
483.0
  0
LINE
  5
6B
330
17
100
AcDbEntity
  8
0
100
AcDbLine
 10
29.734663231093645
 20
-157.9
 30
483.0
 11
60.73112801383168
 21
-157.9
 31
483.0
  0
SPLINE
  5
6C
330
17
100
AcDbEntity
  8
0
100
AcDbSpline
 70
0
 71
8
 72
25
 73
16
 74
0
 40
0.0
 40
0.0
 40
0.0
 40
0.0
 40
0.0
 40
0.0
 40
0.0
 40
0.0
 40
0.0
 40
0.22942678945709985
 40
0.22942678945709985
 40
0.22942678945709985
 40
0.22942678945709985
 40
0.22942678945709985
 40
0.22942678945709985
 40
0.22942678945709985
 40
1.0
 40
1.0
 40
1.0
 40
1.0
 40
1.0
 40
1.0
 40
1.0
 40
1.0
 40
1.0
 10
57.266877825217506
 20
-180.10000000146445
 30
483.0
 10
57.38219351427019
 20
-179.46599498140938
 30
483.0
 10
57.496223574783684
 20
-178.83175623608813
 30
483.0
 10
57.60900449633452
 20
-178.197293321933
 30
483.0
 10
57.72057053812098
 20
-177.56261483484423
 30
483.0
 10
57.83095396924976
 20
-176.92772845831132
 30
483.0
 10
57.94018526969752
 20
-176.29264100399615
 30
483.0
 10
58.048293322766156
 20
-175.65735845108685
 30
483.0
 10
58.5147266775524
 20
-172.88753169345483
 30
483.0
 10
58.861775595624884
 20
-170.7510990411416
 30
483.0
 10
59.19748383811173
 20
-168.61283273586065
 30
483.0
 10
59.52268835266356
 20
-166.47293500196824
 30
483.0
 10
59.83809162041096
 20
-164.33157467326535
 30
483.0
 10
60.14429584265422
 20
-162.18889234581394
 30
483.0
 10
60.441822435904974
 20
-160.04500331278405
 30
483.0
 10
60.73112799681569
 20
-157.899999997705
 30
483.0
  0
LINE
  5
6D
330
17
100
AcDbEntity
  8
0
100
AcDbLine
 10
29.73466323109364
 20
-180.1
 30
483.0
 11
57.26687781716601
 21
-180.1
 31
483.0
  0
SPLINE
  5
6E
330
17
100
AcDbEntity
  8
0
100
AcDbSpline
 70
0
 71
1
 72
4
 73
2
 74
0
 40
0.0
 40
0.0
 40
1.0
 40
1.0
 10
29.734663235021873
 20
-183.9000006000001
 30
483.0
 10
29.734663235021873
 20
-180.09999939999994
 30
483.0
  0
LINE
  5
6F
330
17
100
AcDbEntity
  8
0
100
AcDbLine
 10
29.734663231093645
 20
-183.9
 30
483.0
 11
56.55383977297348
 21
-183.9
 31
483.0
  0
SPLINE
  5
70
330
17
100
AcDbEntity
  8
0
100
AcDbSpline
 70
0
 71
8
 72
39
 73
30
 74
0
 40
0.0
 40
0.0
 40
0.0
 40
0.0
 40
0.0
 40
0.0
 40
0.0
 40
0.0
 40
0.0
 40
0.028920773995921783
 40
0.028920773995921783
 40
0.028920773995921783
 40
0.028920773995921783
 40
0.028920773995921783
 40
0.028920773995921783
 40
0.028920773995921783
 40
0.15532247660962534
 40
0.15532247660962534
 40
0.15532247660962534
 40
0.15532247660962534
 40
0.15532247660962534
 40
0.15532247660962534
 40
0.15532247660962534
 40
0.6390208809834493
 40
0.6390208809834493
 40
0.6390208809834493
 40
0.6390208809834493
 40
0.6390208809834493
 40
0.6390208809834493
 40
0.6390208809834493
 40
1.0
 40
1.0
 40
1.0
 40
1.0
 40
1.0
 40
1.0
 40
1.0
 40
1.0
 40
1.0
 10
51.00799158085037
 20
-206.10000001104743
 30
483.0
 10
51.03420683266655
 20
-206.0229571076983
 30
483.0
 10
51.06040535716106
 20
-205.94569569160848
 30
483.0
 10
51.08658710078047
 20
-205.86821547259134
 30
483.0
 10
51.11275200997136
 20
-205.79051616046021
 30
483.0
 10
51.1389000311803
 20
-205.7125974650285
 30
483.0
 10
51.165031110853874
 20
-205.63445909610945
 30
483.0
 10
51.191145195438665
 20
-205.55610076351644
 30
483.0
 10
51.331302449021976
 20
-205.13408506441422
 30
483.0
 10
51.443814437406466
 20
-204.79013247256768
 30
483.0
 10
51.55481548075452
 20
-204.4456860161532
 30
483.0
 10
51.66434644750573
 20
-204.10076752169388
 30
483.0
 10
51.77245179031946
 20
-203.75539902760568
 30
483.0
 10
51.879179546074866
 20
-203.4096027841972
 30
483.0
 10
51.98458133587093
 20
-203.06340125367007
 30
483.0
 10
52.487188110264185
 20
-201.39055176914172
 30
483.0
 10
52.8669862897818
 20
-200.05871392939542
 30
483.0
 10
53.230751818161586
 20
-198.72233437508464
 30
483.0
 10
53.58036517744085
 20
-197.38217110639596
 30
483.0
 10
53.917303056836744
 20
-196.03880556416397
 30
483.0
 10
54.2427813640378
 20
-194.69268025256778
 30
483.0
 10
54.55780295682917
 20
-193.3441111665336
 30
483.0
 10
55.09117131262003
 20
-190.985218312372
 30
483.0
 10
55.313758281018366
 20
-189.97592615167574
 30
483.0
 10
55.531347810370576
 20
-188.96553707069447
 30
483.0
 10
55.7442453416337
 20
-187.95414300116153
 30
483.0
 10
55.95271822988225
 20
-186.9418248729298
 30
483.0
 10
56.15700353965791
 20
-185.92865416873866
 30
483.0
 10
56.35731354257284
 20
-184.9146940173385
 30
483.0
 10
56.5538397585894
 20
-183.89999999721408
 30
483.0
  0
LINE
  5
71
330
17
100
AcDbEntity
  8
0
100
AcDbLine
 10
29.734663231093645
 20
-206.1
 30
483.0
 11
51.007991548383515
 21
-206.1
 31
483.0
  0
SPLINE
  5
72
330
17
100
AcDbEntity
  8
0
100
AcDbSpline
 70
0
 71
1
 72
4
 73
2
 74
0
 40
0.0
 40
0.0
 40
1.0
 40
1.0
 10
29.734663235021873
 20
-209.90000060000008
 30
483.0
 10
29.734663235021873
 20
-206.09999939999992
 30
483.0
  0
LINE
  5
73
330
17
100
AcDbEntity
  8
0
100
AcDbLine
 10
29.73466323109364
 20
-209.9
 30
483.0
 11
49.60669968171507
 21
-209.9
 31
483.0
  0
SPLINE
  5
74
330
17
100
AcDbEntity
  8
0
100
AcDbSpline
 70
0
 71
8
 72
81
 73
72
 74
0
 40
0.0
 40
0.0
 40
0.0
 40
0.0
 40
0.0
 40
0.0
 40
0.0
 40
0.0
 40
0.0
 40
0.021607571190923137
 40
0.021607571190923137
 40
0.021607571190923137
 40
0.021607571190923137
 40
0.021607571190923137
 40
0.021607571190923137
 40
0.021607571190923137
 40
0.04062007006971626
 40
0.04062007006971626
 40
0.04062007006971626
 40
0.04062007006971626
 40
0.04062007006971626
 40
0.04062007006971626
 40
0.04062007006971626
 40
0.04569832032959799
 40
0.04569832032959799
 40
0.04569832032959799
 40
0.04569832032959799
 40
0.04569832032959799
 40
0.04569832032959799
 40
0.04569832032959799
 40
0.04834481504682735
 40
0.04834481504682735
 40
0.04834481504682735
 40
0.04834481504682735
 40
0.04834481504682735
 40
0.04834481504682735
 40
0.04834481504682735
 40
0.05097082382562251
 40
0.05097082382562251
 40
0.05097082382562251
 40
0.05097082382562251
 40
0.05097082382562251
 40
0.05097082382562251
 40
0.05097082382562251
 40
0.05973282856997516
 40
0.05973282856997516
 40
0.05973282856997516
 40
0.05973282856997516
 40
0.05973282856997516
 40
0.05973282856997516
 40
0.05973282856997516
 40
0.0683248811401313
 40
0.0683248811401313
 40
0.0683248811401313
 40
0.0683248811401313
 40
0.0683248811401313
 40
0.0683248811401313
 40
0.0683248811401313
 40
0.0748279971714528
 40
0.0748279971714528
 40
0.0748279971714528
 40
0.0748279971714528
 40
0.0748279971714528
 40
0.0748279971714528
 40
0.0748279971714528
 40
0.08696924556031901
 40
0.08696924556031901
 40
0.08696924556031901
 40
0.08696924556031901
 40
0.08696924556031901
 40
0.08696924556031901
 40
0.08696924556031901
 40
0.10008341307573286
 40
0.10008341307573286
 40
0.10008341307573286
 40
0.10008341307573286
 40
0.10008341307573286
 40
0.10008341307573286
 40
0.10008341307573286
 40
0.10008341307573286
 40
0.10008341307573286
 10
15.428230152640392
 20
-205.87219459645547
 30
483.0
 10
15.96998882089242
 20
-207.14829322981365
 30
483.0
 10
16.546103676869187
 20
-208.40940156485829
 30
483.0
 10
17.15779274997574
 20
-209.65419184930823
 30
483.0
 10
17.806496230650545
 20
-210.88068448615704
 30
483.0
 10
18.49393419774022
 20
-212.08620786398595
 30
483.0
 10
19.22213568528371
 20
-213.2673801632207
 30
483.0
 10
19.993615466398907
 20
-214.4200056140867
 30
483.0
 10
21.53186132165051
 20
-216.52318506862957
 30
483.0
 10
22.28729418164791
 20
-217.48032736589386
 30
483.0
 10
23.08101006817769
 20
-218.40747688565256
 30
483.0
 10
23.915673616690604
 20
-219.29991226629332
 30
483.0
 10
24.793730652330055
 20
-220.150949617575
 30
483.0
 10
25.71735493506733
 20
-220.95199292925832
 30
483.0
 10
26.68847971055378
 20
-221.69249511422802
 30
483.0
 10
27.9815882399298
 20
-222.53793752049864
 30
483.0
 10
28.257615569890053
 20
-222.7108736620189
 30
483.0
 10
28.53708915390536
 20
-222.87827258445975
 30
483.0
 10
28.819996181578876
 20
-223.03986099811172
 30
483.0
 10
29.10630743912513
 20
-223.1953523088889
 30
483.0
 10
29.39597564266867
 20
-223.3444497067615
 30
483.0
 10
29.688933771542683
 20
-223.48684925418837
 30
483.0
 10
30.13943492795194
 20
-223.6928024679473
 30
483.0
 10
30.294152548605762
 20
-223.761233732088
 30
483.0
 10
30.449240810470474
 20
-223.82752222495486
 30
483.0
 10
30.604694260463074
 20
-223.89165340453255
 30
483.0
 10
30.760507445496142
 20
-223.9536127288078
 30
483.0
 10
30.916674912477827
 20
-224.01338565576916
 30
483.0
 10
31.07319120831184
 20
-224.0709576434071
 30
483.0
 10
31.385696334974796
 20
-224.18124215337835
 30
483.0
 10
31.542062842517936
 20
-224.23412314759082
 30
483.0
 10
31.699127618022644
 20
-224.2849259577095
 30
483.0
 10
31.85686872514973
 20
-224.33360779060857
 30
483.0
 10
32.01526507572507
 20
-224.38011423467734
 30
483.0
 10
32.174296429739634
 20
-224.4243792598211
 30
483.0
 10
32.33394339534947
 20
-224.46632521746082
 30
483.0
 10
33.02886156757186
 20
-224.637785035057
 30
483.0
 10
33.570522286051215
 20
-224.74309319244435
 30
483.0
 10
34.11781175125772
 20
-224.8189089087239
 30
483.0
 10
34.668995123983464
 20
-224.862470056336
 30
483.0
 10
35.221952797420826
 20
-224.87135385983507
 30
483.0
 10
35.77417104075491
 20
-224.8437887171307
 30
483.0
 10
36.32272927439522
 20
-224.77902834260027
 30
483.0
 10
37.39533090424857
 20
-224.57845948995356
 30
483.0
 10
37.91998944536995
 20
-224.44398931040504
 30
483.0
 10
38.435122952683194
 20
-224.2749098535409
 30
483.0
 10
38.93842225958168
 20
-224.07287287389647
 30
483.0
 10
39.428247793061
 20
-223.84025697647948
 30
483.0
 10
39.903499291644025
 20
-223.57985795922716
 30
483.0
 10
40.363511355148624
 20
-223.29463581820252
 30
483.0
 10
41.14437843893492
 20
-222.75506870825552
 30
483.0
 10
41.47201910050277
 20
-222.50997645184117
 30
483.0
 10
41.79091988748881
 20
-222.2533763110915
 30
483.0
 10
42.10120371685951
 20
-221.98635404257467
 30
483.0
 10
42.403068217016944
 20
-221.709916920398
 30
483.0
 10
42.69676693791927
 20
-221.4249717431966
 30
483.0
 10
42.98259690036516
 20
-221.13231042233664
 30
483.0
 10
43.780467376775356
 20
-220.2730528674847
 30
483.0
 10
44.27350966680214
 20
-219.68923354985878
 30
483.0
 10
44.742407569392086
 20
-219.0853653392714
 30
483.0
 10
45.189204502307135
 20
-218.46489847514286
 30
483.0
 10
45.61574114774372
 20
-217.83061865307383
 30
483.0
 10
46.023720478784156
 20
-217.18469442118345
 30
483.0
 10
46.41473607263409
 20
-216.52869768726575
 30
483.0
 10
47.19596751799474
 20
-215.14526488907026
 30
483.0
 10
47.583391429972565
 20
-214.4167009868838
 30
483.0
 10
47.9543702544014
 20
-213.67947620113415
 30
483.0
 10
48.310352020028
 20
-212.9348448016931
 30
483.0
 10
48.65256352505091
 20
-212.18383555928455
 30
483.0
 10
48.982075776729864
 20
-211.42728264077275
 30
483.0
 10
49.29983688574777
 20
-210.6658410494822
 30
483.0
 10
49.606699657118014
 20
-209.8999999901443
 30
483.0
  0
SPLINE
  5
75
330
17
100
AcDbEntity
  8
0
100
AcDbSpline
 70
0
 71
8
 72
389
 73
380
 74
0
 40
0.0
 40
0.0
 40
0.0
 40
0.0
 40
0.0
 40
0.0
 40
0.0
 40
0.0
 40
0.0
 40
0.002418468857387425
 40
0.002418468857387425
 40
0.002418468857387425
 40
0.002418468857387425
 40
0.002418468857387425
 40
0.002418468857387425
 40
0.002418468857387425
 40
0.004895481427541105
 40
0.004895481427541105
 40
0.004895481427541105
 40
0.004895481427541105
 40
0.004895481427541105
 40
0.004895481427541105
 40
0.004895481427541105
 40
0.008221468450758754
 40
0.008221468450758754
 40
0.008221468450758754
 40
0.008221468450758754
 40
0.008221468450758754
 40
0.008221468450758754
 40
0.008221468450758754
 40
0.011547455473950493
 40
0.011547455473950493
 40
0.011547455473950493
 40
0.011547455473950493
 40
0.011547455473950493
 40
0.011547455473950493
 40
0.011547455473950493
 40
0.016628021191328484
 40
0.016628021191328484
 40
0.016628021191328484
 40
0.016628021191328484
 40
0.016628021191328484
 40
0.016628021191328484
 40
0.016628021191328484
 40
0.025223890591044174
 40
0.025223890591044174
 40
0.025223890591044174
 40
0.025223890591044174
 40
0.025223890591044174
 40
0.025223890591044174
 40
0.025223890591044174
 40
0.043079925311564154
 40
0.043079925311564154
 40
0.043079925311564154
 40
0.043079925311564154
 40
0.043079925311564154
 40
0.043079925311564154
 40
0.043079925311564154
 40
0.07826967602846019
 40
0.07826967602846019
 40
0.07826967602846019
 40
0.07826967602846019
 40
0.07826967602846019
 40
0.07826967602846019
 40
0.07826967602846019
 40
0.10113612264156635
 40
0.10113612264156635
 40
0.10113612264156635
 40
0.10113612264156635
 40
0.10113612264156635
 40
0.10113612264156635
 40
0.10113612264156635
 40
0.1259726072439431
 40
0.1259726072439431
 40
0.1259726072439431
 40
0.1259726072439431
 40
0.1259726072439431
 40
0.1259726072439431
 40
0.1259726072439431
 40
0.21501472345536993
 40
0.21501472345536993
 40
0.21501472345536993
 40
0.21501472345536993
 40
0.21501472345536993
 40
0.21501472345536993
 40
0.21501472345536993
 40
0.313075392820683
 40
0.313075392820683
 40
0.313075392820683
 40
0.313075392820683
 40
0.313075392820683
 40
0.313075392820683
 40
0.313075392820683
 40
0.41229128976573237
 40
0.41229128976573237
 40
0.41229128976573237
 40
0.41229128976573237
 40
0.41229128976573237
 40
0.41229128976573237
 40
0.41229128976573237
 40
0.5145330569024101
 40
0.5145330569024101
 40
0.5145330569024101
 40
0.5145330569024101
 40
0.5145330569024101
 40
0.5145330569024101
 40
0.5145330569024101
 40
0.6014173535833501
 40
0.6014173535833501
 40
0.6014173535833501
 40
0.6014173535833501
 40
0.6014173535833501
 40
0.6014173535833501
 40
0.6014173535833501
 40
0.6769390415802051
 40
0.6769390415802051
 40
0.6769390415802051
 40
0.6769390415802051
 40
0.6769390415802051
 40
0.6769390415802051
 40
0.6769390415802051
 40
0.7307238717426825
 40
0.7307238717426825
 40
0.7307238717426825
 40
0.7307238717426825
 40
0.7307238717426825
 40
0.7307238717426825
 40
0.7307238717426825
 40
0.7492590203677704
 40
0.7492590203677704
 40
0.7492590203677704
 40
0.7492590203677704
 40
0.7492590203677704
 40
0.7492590203677704
 40
0.7492590203677704
 40
0.7655122542925944
 40
0.7655122542925944
 40
0.7655122542925944
 40
0.7655122542925944
 40
0.7655122542925944
 40
0.7655122542925944
 40
0.7655122542925944
 40
0.7844387413161368
 40
0.7844387413161368
 40
0.7844387413161368
 40
0.7844387413161368
 40
0.7844387413161368
 40
0.7844387413161368
 40
0.7844387413161368
 40
0.7942326229252605
 40
0.7942326229252605
 40
0.7942326229252605
 40
0.7942326229252605
 40
0.7942326229252605
 40
0.7942326229252605
 40
0.7942326229252605
 40
0.799660329964416
 40
0.799660329964416
 40
0.799660329964416
 40
0.799660329964416
 40
0.799660329964416
 40
0.799660329964416
 40
0.799660329964416
 40
0.8042776358760682
 40
0.8042776358760682
 40
0.8042776358760682
 40
0.8042776358760682
 40
0.8042776358760682
 40
0.8042776358760682
 40
0.8042776358760682
 40
0.8068205377794709
 40
0.8068205377794709
 40
0.8068205377794709
 40
0.8068205377794709
 40
0.8068205377794709
 40
0.8068205377794709
 40
0.8068205377794709
 40
0.8080094990585532
 40
0.8080094990585532
 40
0.8080094990585532
 40
0.8080094990585532
 40
0.8080094990585532
 40
0.8080094990585532
 40
0.8080094990585532
 40
0.8086875730363524
 40
0.8086875730363524
 40
0.8086875730363524
 40
0.8086875730363524
 40
0.8086875730363524
 40
0.8086875730363524
 40
0.8086875730363524
 40
0.8093334345323873
 40
0.8093334345323873
 40
0.8093334345323873
 40
0.8093334345323873
 40
0.8093334345323873
 40
0.8093334345323873
 40
0.8093334345323873
 40
0.8102586114222128
 40
0.8102586114222128
 40
0.8102586114222128
 40
0.8102586114222128
 40
0.8102586114222128
 40
0.8102586114222128
 40
0.8102586114222128
 40
0.8109831234535206
 40
0.8109831234535206
 40
0.8109831234535206
 40
0.8109831234535206
 40
0.8109831234535206
 40
0.8109831234535206
 40
0.8109831234535206
 40
0.8117076354848207
 40
0.8117076354848207
 40
0.8117076354848207
 40
0.8117076354848207
 40
0.8117076354848207
 40
0.8117076354848207
 40
0.8117076354848207
 40
0.8128461543911412
 40
0.8128461543911412
 40
0.8128461543911412
 40
0.8128461543911412
 40
0.8128461543911412
 40
0.8128461543911412
 40
0.8128461543911412
 40
0.8140881750162154
 40
0.8140881750162154
 40
0.8140881750162154
 40
0.8140881750162154
 40
0.8140881750162154
 40
0.8140881750162154
 40
0.8140881750162154
 40
0.8162065555164654
 40
0.8162065555164654
 40
0.8162065555164654
 40
0.8162065555164654
 40
0.8162065555164654
 40
0.8162065555164654
 40
0.8162065555164654
 40
0.8203885324969578
 40
0.8203885324969578
 40
0.8203885324969578
 40
0.8203885324969578
 40
0.8203885324969578
 40
0.8203885324969578
 40
0.8203885324969578
 40
0.8286301492633377
 40
0.8286301492633377
 40
0.8286301492633377
 40
0.8286301492633377
 40
0.8286301492633377
 40
0.8286301492633377
 40
0.8286301492633377
 40
0.833985601437875
 40
0.833985601437875
 40
0.833985601437875
 40
0.833985601437875
 40
0.833985601437875
 40
0.833985601437875
 40
0.833985601437875
 40
0.8398024901603802
 40
0.8398024901603802
 40
0.8398024901603802
 40
0.8398024901603802
 40
0.8398024901603802
 40
0.8398024901603802
 40
0.8398024901603802
 40
0.8606587982292749
 40
0.8606587982292749
 40
0.8606587982292749
 40
0.8606587982292749
 40
0.8606587982292749
 40
0.8606587982292749
 40
0.8606587982292749
 40
0.883633297051942
 40
0.883633297051942
 40
0.883633297051942
 40
0.883633297051942
 40
0.883633297051942
 40
0.883633297051942
 40
0.883633297051942
 40
0.9068866125337238
 40
0.9068866125337238
 40
0.9068866125337238
 40
0.9068866125337238
 40
0.9068866125337238
 40
0.9068866125337238
 40
0.9068866125337238
 40
0.9308596361356566
 40
0.9308596361356566
 40
0.9308596361356566
 40
0.9308596361356566
 40
0.9308596361356566
 40
0.9308596361356566
 40
0.9308596361356566
 40
0.9512386338104906
 40
0.9512386338104906
 40
0.9512386338104906
 40
0.9512386338104906
 40
0.9512386338104906
 40
0.9512386338104906
 40
0.9512386338104906
 40
0.9689564771710978
 40
0.9689564771710978
 40
0.9689564771710978
 40
0.9689564771710978
 40
0.9689564771710978
 40
0.9689564771710978
 40
0.9689564771710978
 40
0.9815764390947802
 40
0.9815764390947802
 40
0.9815764390947802
 40
0.9815764390947802
 40
0.9815764390947802
 40
0.9815764390947802
 40
0.9815764390947802
 40
0.9859256564673318
 40
0.9859256564673318
 40
0.9859256564673318
 40
0.9859256564673318
 40
0.9859256564673318
 40
0.9859256564673318
 40
0.9859256564673318
 40
0.9897394303460155
 40
0.9897394303460155
 40
0.9897394303460155
 40
0.9897394303460155
 40
0.9897394303460155
 40
0.9897394303460155
 40
0.9897394303460155
 40
0.9941804728292785
 40
0.9941804728292785
 40
0.9941804728292785
 40
0.9941804728292785
 40
0.9941804728292785
 40
0.9941804728292785
 40
0.9941804728292785
 40
0.9964785735596262
 40
0.9964785735596262
 40
0.9964785735596262
 40
0.9964785735596262
 40
0.9964785735596262
 40
0.9964785735596262
 40
0.9964785735596262
 40
0.9977521643398561
 40
0.9977521643398561
 40
0.9977521643398561
 40
0.9977521643398561
 40
0.9977521643398561
 40
0.9977521643398561
 40
0.9977521643398561
 40
0.9988355906253255
 40
0.9988355906253255
 40
0.9988355906253255
 40
0.9988355906253255
 40
0.9988355906253255
 40
0.9988355906253255
 40
0.9988355906253255
 40
0.9994322461807919
 40
0.9994322461807919
 40
0.9994322461807919
 40
0.9994322461807919
 40
0.9994322461807919
 40
0.9994322461807919
 40
0.9994322461807919
 40
0.9997111677012587
 40
0.9997111677012587
 40
0.9997111677012587
 40
0.9997111677012587
 40
0.9997111677012587
 40
0.9997111677012587
 40
0.9997111677012587
 40
0.9998225945092731
 40
0.9998225945092731
 40
0.9998225945092731
 40
0.9998225945092731
 40
0.9998225945092731
 40
0.9998225945092731
 40
0.9998225945092731
 40
1.0
 40
1.0
 40
1.0
 40
1.0
 40
1.0
 40
1.0
 40
1.0
 40
1.0
 40
1.0
 10
15.428230152640392
 20
205.87219459645544
 30
483.0
 10
15.4280907270373
 20
205.872335107441
 30
483.0
 10
15.428595291640098
 20
205.87156179557056
 30
483.0
 10
15.427723072990043
 20
205.8737710321187
 30
483.0
 10
15.42865792291295
 20
205.87017284395856
 30
483.0
 10
15.427947741349723
 20
205.8684959691876
 30
483.0
 10
15.428190691747485
 20
205.86552060291174
 30
483.0
 10
15.428140702732694
 20
205.86582531608317
 30
483.0
 10
15.4278998209954
 20
205.84867333280104
 30
483.0
 10
15.427735357953507
 20
205.83696274247527
 30
483.0
 10
15.427534272647199
 20
205.82264446387862
 30
483.0
 10
15.42731131049448
 20
205.80676844464253
 30
483.0
 10
15.427074227820764
 20
205.789886973581
 30
483.0
 10
15.426829582983133
 20
205.77246703880192
 30
483.0
 10
15.426579384936542
 20
205.7546516877359
 30
483.0
 10
15.425978173436377
 20
205.711842424918
 30
483.0
 10
15.425586159566556
 20
205.68392907865518
 30
483.0
 10
15.425142907744807
 20
205.65236733420025
 30
483.0
 10
15.424644609744979
 20
205.61688602682278
 30
483.0
 10
15.424087457340908
 20
205.57721399179232
 30
483.0
 10
15.423467642306445
 20
205.53308006437828
 30
483.0
 10
15.422781356415424
 20
205.48421307985
 30
483.0
 10
15.421268226467946
 20
205.3764706671038
 30
483.0
 10
15.420441382411505
 20
205.31759523888616
 30
483.0
 10
15.41954045104619
 20
205.25344442409323
 30
483.0
 10
15.418561624145854
 20
205.1837470579948
 30
483.0
 10
15.417501093484333
 20
205.10823197586026
 30
483.0
 10
15.416355050835476
 20
205.02662801295918
 30
483.0
 10
15.41511968797312
 20
204.93866400456085
 30
483.0
 10
15.411761878060503
 20
204.69957116119105
 30
483.0
 10
15.409729228799014
 20
204.5548363774645
 30
483.0
 10
15.407694444825038
 20
204.40994959153656
 30
483.0
 10
15.405658158134223
 20
204.26495580466943
 30
483.0
 10
15.403620792055378
 20
204.11988515998016
 30
483.0
 10
15.40158261662714
 20
203.97475688556133
 30
483.0
 10
15.399543714297796
 20
203.8295768521608
 30
483.0
 10
15.394053161311572
 20
203.43862204551306
 30
483.0
 10
15.390600571347061
 20
203.1927803888613
 30
483.0
 10
15.38714680158759
 20
202.94685472494976
 30
483.0
 10
15.383692156291575
 20
202.70086671842037
 30
483.0
 10
15.38023684543802
 20
202.45483132086824
 30
483.0
 10
15.376781009399688
 20
202.20875852757612
 30
483.0
 10
15.373324715783463
 20
201.9626531524177
 30
483.0
 10
15.362687377346273
 20
201.20522150529658
 30
483.0
 10
15.355505139708965
 20
200.69381029883948
 30
483.0
 10
15.34832180006535
 20
200.18232062403328
 30
483.0
 10
15.341137661171784
 20
199.6707740386281
 30
483.0
 10
15.333952928476046
 20
199.15918517154225
 30
483.0
 10
15.326767736319958
 20
198.6475635885933
 30
483.0
 10
15.31958214042956
 20
198.13591325773493
 30
483.0
 10
15.298234362360441
 20
196.61584479317074
 30
483.0
 10
15.284071293054957
 20
195.60736349160373
 30
483.0
 10
15.26990735470708
 20
194.59882030987703
 30
483.0
 10
15.255742785334514
 20
193.59023219603841
 30
483.0
 10
15.241577746513572
 20
192.5816106551296
 30
483.0
 10
15.227412344004128
 20
191.57296321778244
 30
483.0
 10
15.21324662212809
 20
190.5642930399391
 30
483.0
 10
15.189875437055285
 20
188.9001478865824
 30
483.0
 10
15.180670515741049
 20
188.24468726527297
 30
483.0
 10
15.17146337122796
 20
187.58921938024073
 30
483.0
 10
15.162259714010858
 20
186.933745480827
 30
483.0
 10
15.153061237335892
 20
186.2782663066196
 30
483.0
 10
15.14386786710625
 20
185.62278231868666
 30
483.0
 10
15.13468236848842
 20
184.96729411902356
 30
483.0
 10
15.115537458545662
 20
183.59983655047742
 30
483.0
 10
15.105361288325794
 20
182.8722679856849
 30
483.0
 10
15.094982705445087
 20
182.1293677084798
 30
483.0
 10
15.084407688777018
 20
181.371407122155
 30
483.0
 10
15.07364221719509
 20
180.59865763000337
 30
483.0
 10
15.062692269572787
 20
179.8113906353176
 30
483.0
 10
15.051563824783592
 20
179.00987754139035
 30
483.0
 10
14.999747398896506
 20
175.27075705076635
 30
483.0
 10
14.959503165022484
 20
172.34708244448984
 30
483.0
 10
14.919573627220332
 20
169.42337740871682
 30
483.0
 10
14.879983093984178
 20
166.49964819247324
 30
483.0
 10
14.840751859902056
 20
163.57589908376855
 30
483.0
 10
14.801899050094178
 20
160.65213305164923
 30
483.0
 10
14.763441483685977
 20
157.72835153443185
 30
483.0
 10
14.683498952646788
 20
151.58462458428627
 30
483.0
 10
14.642101848261253
 20
148.3646771089502
 30
483.0
 10
14.60122882254021
 20
145.14471457736468
 30
483.0
 10
14.560903288525129
 20
141.9247383413629
 30
483.0
 10
14.521149742726172
 20
138.7047494051872
 30
483.0
 10
14.481994556469992
 20
135.48474852992317
 30
483.0
 10
14.443466628125044
 20
132.26473628264844
 30
483.0
 10
14.367283042471488
 20
125.78675551038673
 30
483.0
 10
14.329642944374331
 20
122.52878683176671
 30
483.0
 10
14.29271095979521
 20
119.27080742420335
 30
483.0
 10
14.256523368348264
 20
116.01281764731343
 30
483.0
 10
14.221120512173083
 20
112.75481779776052
 30
483.0
 10
14.186547936728436
 20
109.49680811645266
 30
483.0
 10
14.152857531585948
 20
106.23878879574004
 30
483.0
 10
14.08636104147652
 20
99.62336834793294
 30
483.0
 10
14.053615394896111
 20
96.26596667138396
 30
483.0
 10
14.021806844517887
 20
92.90855642526438
 30
483.0
 10
13.990878861989401
 20
89.55113895641502
 30
483.0
 10
13.960781990329581
 20
86.19371552504725
 30
483.0
 10
13.931472556687863
 20
82.83628733957191
 30
483.0
 10
13.902911385103346
 20
79.47885559142789
 30
483.0
 10
13.85139674077787
 20
73.26829884999276
 30
483.0
 10
13.828245408091915
 20
70.41517457291374
 30
483.0
 10
13.805586607758812
 20
67.56204938482769
 30
483.0
 10
13.783400282207744
 20
64.70892409123333
 30
483.0
 10
13.761667918368305
 20
61.855799585361325
 30
483.0
 10
13.740372192140892
 20
59.00267688181332
 30
483.0
 10
13.71949655871347
 20
56.149557175453154
 30
483.0
 10
13.681230288626383
 20
50.8164531594153
 30
483.0
 10
13.663740897677012
 20
48.33646798499194
 30
483.0
 10
13.646546054611429
 20
45.856487157648935
 30
483.0
 10
13.629635060902517
 20
43.37651184403169
 30
483.0
 10
13.612997261787115
 20
40.896543572946456
 30
483.0
 10
13.596621528597021
 20
38.416584352989865
 30
483.0
 10
13.580495042395063
 20
35.936636956923664
 30
483.0
 10
13.553282272927696
 20
31.690554448406942
 30
483.0
 10
13.542081275300228
 20
29.924412479583808
 30
483.0
 10
13.5309921856588
 20
28.158280178594858
 30
483.0
 10
13.520008421227306
 20
26.39215907450071
 30
483.0
 10
13.50912065682435
 20
24.62605218197242
 30
483.0
 10
13.498317616301495
 20
22.859963814532833
 30
483.0
 10
13.487583745259498
 20
21.093900206522584
 30
483.0
 10
13.47320138877778
 20
18.71927007250852
 30
483.0
 10
13.46951975859621
 20
18.110671928598748
 30
483.0
 10
13.46584081752506
 20
17.502078673726345
 30
483.0
 10
13.462166281733094
 20
16.893490718110826
 30
483.0
 10
13.45848408765277
 20
16.284909790362548
 30
483.0
 10
13.454807285648183
 20
15.676335471048418
 30
483.0
 10
13.451128566539142
 20
15.067769395681154
 30
483.0
 10
13.444224728558543
 20
13.925576823665866
 30
483.0
 10
13.440999278865974
 20
13.391948327369343
 30
483.0
 10
13.43777387706279
 20
12.858327754043863
 30
483.0
 10
13.434548528759146
 20
12.324716031848455
 30
483.0
 10
13.431323241246975
 20
11.791114367184475
 30
483.0
 10
13.428098023886832
 20
11.25752430869212
 30
483.0
 10
13.424872888494717
 20
10.723947811246907
 30
483.0
 10
13.417892372226104
 20
9.56906934317744
 30
483.0
 10
13.414137046922102
 20
8.947776566644244
 30
483.0
 10
13.410381877648646
 20
8.32650960427791
 30
483.0
 10
13.406626886603235
 20
7.70527212853483
 30
483.0
 10
13.402872124212182
 20
7.08407248208491
 30
483.0
 10
13.399117667014952
 20
6.462923327839611
 30
483.0
 10
13.395363627215056
 20
5.8418432291303155
 30
483.0
 10
13.389667911803576
 20
4.899526237685386
 30
483.0
 10
13.38772582078717
 20
4.578220619086416
 30
483.0
 10
13.385783928593272
 20
4.256947894276067
 30
483.0
 10
13.383842263134444
 20
3.9357126812634817
 30
483.0
 10
13.38190088956165
 20
3.6145257587876394
 30
483.0
 10
13.379959907083192
 20
3.2934035401452064
 30
483.0
 10
13.378019461391684
 20
2.972370129251658
 30
483.0
 10
13.375004859601924
 20
2.4736249701795847
 30
483.0
 10
13.373984847616237
 20
2.3048709935222274
 30
483.0
 10
13.373018131377753
 20
2.1449344321568007
 30
483.0
 10
13.372103073307656
 20
1.9935443599151215
 30
483.0
 10
13.371238035827119
 20
1.8504298506290084
 30
483.0
 10
13.37042138135732
 20
1.7153199781302735
 30
483.0
 10
13.369651472319426
 20
1.5879438162507284
 30
483.0
 10
13.368310088704648
 20
1.3660211110355647
 30
483.0
 10
13.367693928888698
 20
1.2640817018483972
 30
483.0
 10
13.36707815562199
 20
1.1622062445207746
 30
483.0
 10
13.366462827841591
 20
1.0604044899596659
 30
483.0
 10
13.365848070510786
 20
0.9586971122302828
 30
483.0
 10
13.365234165289635
 20
0.8571307102834282
 30
483.0
 10
13.364621474393585
 20
0.7557652100479118
 30
483.0
 10
13.36367442100161
 20
0.5990817315746142
 30
483.0
 10
13.36333927239378
 20
0.5436336965139787
 30
483.0
 10
13.363004872363806
 20
0.4883095085248499
 30
483.0
 10
13.362671310362677
 20
0.4331239666508111
 30
483.0
 10
13.362338705218484
 20
0.37809673016280954
 30
483.0
 10
13.3620082062256
 20
0.32341794197631657
 30
483.0
 10
13.361680801413009
 20
0.2692510646438677
 30
483.0
 10
13.361209821678997
 20
0.19133070277121078
 30
483.0
 10
13.361063176655193
 20
0.1670692908724618
 30
483.0
 10
13.360918334114182
 20
0.14310608738125552
 30
483.0
 10
13.360774981558198
 20
0.11938939165779061
 30
483.0
 10
13.360634750285199
 20
0.0961890907901477
 30
483.0
 10
13.360500485350649
 20
0.07397587961429508
 30
483.0
 10
13.360377602436174
 20
0.05364574548909218
 30
483.0
 10
13.360215617092082
 20
0.02684638297288444
 30
483.0
 10
13.360162798408245
 20
0.018107894536640856
 30
483.0
 10
13.360119695169773
 20
0.01097675981036872
 30
483.0
 10
13.360088471033748
 20
0.005810940976374468
 30
483.0
 10
13.36006903645995
 20
0.0025956242319509215
 30
483.0
 10
13.360059120380745
 20
0.0009550770473936154
 30
483.0
 10
13.360055133800127
 20
0.00029552466540749833
 30
483.0
 10
13.360052593335373
 20
-0.00012477777822184066
 30
483.0
 10
13.360054340759877
 20
6.995564556433465e-05
 30
483.0
 10
13.360051646345854
 20
0.00020587862451648675
 30
483.0
 10
13.360053731281146
 20
-0.00014842334093145837
 30
483.0
 10
13.360063010749743
 20
-0.0014931073923740712
 30
483.0
 10
13.360079045712455
 20
-0.004290493675846108
 30
483.0
 10
13.360106410380311
 20
-0.008778882642147323
 30
483.0
 10
13.360195373405535
 20
-0.023497204085657586
 30
483.0
 10
13.360266068482673
 20
-0.035193219017230604
 30
483.0
 10
13.360352517927778
 20
-0.049495685814605395
 30
483.0
 10
13.360448390131104
 20
-0.0653570834802224
 30
483.0
 10
13.360550344894602
 20
-0.08222479860526732
 30
483.0
 10
13.360655562665519
 20
-0.0996323561751069
 30
483.0
 10
13.360763173233224
 20
-0.1174357854082757
 30
483.0
 10
13.360959983623191
 20
-0.1499967125551649
 30
483.0
 10
13.36105335907455
 20
-0.16544503959392742
 30
483.0
 10
13.361153999645053
 20
-0.18209533069185319
 30
483.0
 10
13.361262230386515
 20
-0.20000136343904026
 30
483.0
 10
13.361378376350755
 20
-0.21921691542559682
 30
483.0
 10
13.361502762589588
 20
-0.2397957642416405
 30
483.0
 10
13.361635714154826
 20
-0.26179168747729875
 30
483.0
 10
13.36191939804174
 20
-0.3087252379678631
 30
483.0
 10
13.362070130363422
 20
-0.33366286522301897
 30
483.0
 10
13.36223007811515
 20
-0.36012512207800484
 30
483.0
 10
13.362399566348724
 20
-0.3881657861227588
 30
483.0
 10
13.362578920115963
 20
-0.417838634947328
 30
483.0
 10
13.36276846446869
 20
-0.44919744614186846
 30
483.0
 10
13.362968524458717
 20
-0.4822959972966459
 30
483.0
 10
13.363510840490802
 20
-0.5720184596815301
 30
483.0
 10
13.363869025708693
 20
-0.6312777436382951
 30
483.0
 10
13.36425524214421
 20
-0.695174600007584
 30
483.0
 10
13.364670751150038
 20
-0.7639177109246864
 30
483.0
 10
13.365116814078828
 20
-0.8377157585249283
 30
483.0
 10
13.365594692283262
 20
-0.9167774249436708
 30
483.0
 10
13.366105647116006
 20
-1.0013113923163104
 30
483.0
 10
13.367245804817445
 20
-1.189942652372963
 30
483.0
 10
13.36788153474037
 20
-1.2951198013466787
 30
483.0
 10
13.368559767277347
 20
-1.4073287158674685
 30
483.0
 10
13.369282140007192
 20
-1.5268403221034386
 30
483.0
 10
13.370050290508729
 20
-1.6539255462227558
 30
483.0
 10
13.370865856360787
 20
-1.7888553143936496
 30
483.0
 10
13.371730475142192
 20
-1.9319005527844126
 30
483.0
 10
13.374206928676557
 20
-2.3416127794961064
 30
483.0
 10
13.375768968003038
 20
-2.6000414565450143
 30
483.0
 10
13.377331610675371
 20
-2.858569953030422
 30
483.0
 10
13.378894690532995
 20
-3.117170778806468
 30
483.0
 10
13.380458094788862
 20
-3.3758252740444767
 30
483.0
 10
13.382021749742156
 20
-3.6345212454631834
 30
483.0
 10
13.383585625124425
 20
-3.8932536853287374
 30
483.0
 10
13.388237453714794
 20
-4.6628667725908315
 30
483.0
 10
13.391325892875074
 20
-5.173827817431807
 30
483.0
 10
13.394414806818274
 20
-5.684867411853585
 30
483.0
 10
13.397504065108622
 20
-6.195963976134692
 30
483.0
 10
13.400593579231167
 20
-6.70710286609668
 30
483.0
 10
13.403683291305521
 20
-7.218274505836753
 30
483.0
 10
13.406773177324354
 20
-7.729474923485842
 30
483.0
 10
13.415952954430134
 20
-9.248205990529808
 30
483.0
 10
13.42204322772412
 20
-10.255799873455011
 30
483.0
 10
13.428133875433945
 20
-11.263455700894678
 30
483.0
 10
13.434224795012438
 20
-12.271156507155808
 30
483.0
 10
13.440315916846991
 20
-13.278890775291181
 30
483.0
 10
13.44640719537257
 20
-14.286650966863633
 30
483.0
 10
13.45249861149288
 20
-15.294433922554749
 30
483.0
 10
13.462548489688567
 20
-16.95711723827438
 30
483.0
 10
13.466507205464959
 20
-17.612003222510623
 30
483.0
 10
13.47046384237297
 20
-18.26689652031737
 30
483.0
 10
13.474424090206542
 20
-18.92179576752025
 30
483.0
 10
13.478389628621615
 20
-19.57670018977893
 30
483.0
 10
13.482360374129058
 20
-20.231609326873787
 30
483.0
 10
13.486339081829538
 20
-20.88652252141959
 30
483.0
 10
13.494656943582353
 20
-22.252785383959424
 30
483.0
 10
13.499092635116655
 20
-22.97972304854311
 30
483.0
 10
13.503633849508175
 20
-23.721981776985377
 30
483.0
 10
13.508281119825408
 20
-24.479290881680345
 30
483.0
 10
13.513034979136867
 20
-25.251379675022108
 30
483.0
 10
13.517895960511058
 20
-26.0379774694048
 30
483.0
 10
13.522864597016488
 20
-26.838813577222556
 30
483.0
 10
13.546144248888222
 20
-30.575075584409646
 30
483.0
 10
13.564619393179596
 20
-33.49657036127313
 30
483.0
 10
13.58341011283884
 20
-36.41808927750867
 30
483.0
 10
13.602540579109123
 20
-39.339625588505925
 30
483.0
 10
13.622030978712719
 20
-42.26117459305605
 30
483.0
 10
13.641900348630099
 20
-45.18273293427943
 30
483.0
 10
13.662165440430583
 20
-48.10429883535272
 30
483.0
 10
13.705622511793779
 20
-54.24416209976651
 30
483.0
 10
13.728902670732825
 20
-57.4624597453941
 30
483.0
 10
13.75270756715257
 20
-60.680761935082806
 30
483.0
 10
13.777060531184178
 20
-63.899066844597435
 30
483.0
 10
13.80198597159153
 20
-67.11737297643378
 30
483.0
 10
13.827510163209498
 20
-70.33567903928173
 30
483.0
 10
13.853661894389038
 20
-73.55398388575192
 30
483.0
 10
13.907609431607998
 20
-80.0296461912544
 30
483.0
 10
13.935421273393187
 20
-83.28700348990887
 30
483.0
 10
13.963941754209122
 20
-86.54435730404741
 30
483.0
 10
13.993207037472677
 20
-89.80170654552848
 30
483.0
 10
14.023257325327407
 20
-93.05905010835859
 30
483.0
 10
14.054137988357661
 20
-96.3163868386994
 30
483.0
 10
14.085900695302701
 20
-99.57371550487488
 30
483.0
 10
14.152320599642033
 20
-106.18917058333103
 30
483.0
 10
14.187039086047083
 20
-109.54729632356455
 30
483.0
 10
14.222694808484484
 20
-112.90541182476736
 30
483.0
 10
14.259230996587847
 20
-116.2635168771743
 30
483.0
 10
14.296598003128478
 20
-119.62161121572508
 30
483.0
 10
14.334752004018009
 20
-122.97969451122259
 30
483.0
 10
14.373653698311022
 20
-126.33776636149139
 30
483.0
 10
14.446941506830806
 20
-132.55044722894905
 30
483.0
 10
14.481130297944558
 20
-135.4050594914148
 30
483.0
 10
14.515811390057818
 20
-138.25966278509011
 30
483.0
 10
14.550964649122571
 20
-141.11425670874172
 30
483.0
 10
14.586571494060495
 20
-143.96884074265807
 30
483.0
 10
14.622614538606095
 20
-146.82341422230087
 30
483.0
 10
14.659077179466426
 20
-149.6779762876953
 30
483.0
 10
14.72799500898311
 20
-155.01431917655242
 30
483.0
 10
14.760351711125164
 20
-157.49610283877252
 30
483.0
 10
14.793002635475816
 20
-159.9778762531013
 30
483.0
 10
14.825937039737349
 20
-162.45963846964008
 30
483.0
 10
14.859144221806293
 20
-164.94138817612387
 30
483.0
 10
14.892613000147536
 20
-167.423123590863
 30
483.0
 10
14.926330493798222
 20
-169.90484220321153
 30
483.0
 10
14.984461701754311
 20
-174.15418982244967
 30
483.0
 10
15.00876101466041
 20
-175.9218279712669
 30
483.0
 10
15.033171925273292
 20
-177.68945422140925
 30
483.0
 10
15.057687820777481
 20
-179.45706717779805
 30
483.0
 10
15.082299320646303
 20
-181.22466401693995
 30
483.0
 10
15.106995071016694
 20
-182.9922406573444
 30
483.0
 10
15.131759408447037
 20
-184.75979118447756
 30
483.0
 10
15.165107831377764
 20
-187.13644326401788
 30
483.0
 10
15.173659447656549
 20
-187.74557705716097
 30
483.0
 10
15.182213651838467
 20
-188.35470591428106
 30
483.0
 10
15.190772149773203
 20
-188.9638293883594
 30
483.0
 10
15.199322857359723
 20
-189.57294599800701
 30
483.0
 10
15.207878818105181
 20
-190.18205589736766
 30
483.0
 10
15.216432698563057
 20
-190.79115760161878
 30
483.0
 10
15.232487723990845
 20
-191.9343556324181
 30
483.0
 10
15.239988578655721
 20
-192.46845396323485
 30
483.0
 10
15.247489322166375
 20
-193.00254437931503
 30
483.0
 10
15.254989941501298
 20
-193.53662595346316
 30
483.0
 10
15.262490419735467
 20
-194.0706974805324
 30
483.0
 10
15.269990735142445
 20
-194.60475741349205
 30
483.0
 10
15.277490860296515
 20
-195.13880379949424
 30
483.0
 10
15.293724204603912
 20
-196.2946990255073
 30
483.0
 10
15.30245729477041
 20
-196.9165386810119
 30
483.0
 10
15.311190022779574
 20
-197.53835254910453
 30
483.0
 10
15.319922337111207
 20
-198.16013696129068
 30
483.0
 10
15.328654120722017
 20
-198.78188358350212
 30
483.0
 10
15.337385195957943
 20
-199.4035797658821
 30
483.0
 10
15.346115302387641
 20
-200.02520696441772
 30
483.0
 10
15.359360817171337
 20
-200.96835379939193
 30
483.0
 10
15.363877189708802
 20
-201.2899420905109
 30
483.0
 10
15.368393100767184
 20
-201.61149752201146
 30
483.0
 10
15.372908485558488
 20
-201.93301548066853
 30
483.0
 10
15.37742319286316
 20
-202.2544851988927
 30
483.0
 10
15.381936992411381
 20
-202.57589028031967
 30
483.0
 10
15.386449546035616
 20
-202.8972066457351
 30
483.0
 10
15.393460077174852
 20
-203.39639149158145
 30
483.0
 10
15.39583213784461
 20
-203.56529406347687
 30
483.0
 10
15.39808025806308
 20
-203.72537145596158
 30
483.0
 10
15.40020824605642
 20
-203.87689483376604
 30
483.0
 10
15.40221991005079
 20
-204.0201353616207
 30
483.0
 10
15.404119058272348
 20
-204.15536420425613
 30
483.0
 10
15.405909498947253
 20
-204.2828525264028
 30
483.0
 10
15.409028907315262
 20
-204.50496998860217
 30
483.0
 10
15.41046179336943
 20
-204.60699863519892
 30
483.0
 10
15.411893782220751
 20
-204.70896339647297
 30
483.0
 10
15.413324737051
 20
-204.8108545302745
 30
483.0
 10
15.414754367857899
 20
-204.91265138700368
 30
483.0
 10
15.416182020793894
 20
-205.01430740943886
 30
483.0
 10
15.417606855116643
 20
-205.11576273252786
 30
483.0
 10
15.419809244455607
 20
-205.27258385789338
 30
483.0
 10
15.42058862359482
 20
-205.32807954684256
 30
483.0
 10
15.421366265265858
 20
-205.38345151937202
 30
483.0
 10
15.422141961755095
 20
-205.43868498524546
 30
483.0
 10
15.422915438134977
 20
-205.49376036823222
 30
483.0
 10
15.423684025290578
 20
-205.54848761402576
 30
483.0
 10
15.42444543036632
 20
-205.60270345984515
 30
483.0
 10
15.425540701687632
 20
-205.68069225054163
 30
483.0
 10
15.425881683671838
 20
-205.70497187156406
 30
483.0
 10
15.426218481535834
 20
-205.7289535623184
 30
483.0
 10
15.426551826171012
 20
-205.75268936593253
 30
483.0
 10
15.426877935557481
 20
-205.7759099836799
 30
483.0
 10
15.427190192737717
 20
-205.7981442551344
 30
483.0
 10
15.427476018623626
 20
-205.8184964863651
 30
483.0
 10
15.427811842887893
 20
-205.8424088519564
 30
483.0
 10
15.427894088245978
 20
-205.84826513239807
 30
483.0
 10
15.427963844673837
 20
-205.8532321386057
 30
483.0
 10
15.428022240534775
 20
-205.8573902156846
 30
483.0
 10
15.4280704041921
 20
-205.86081970874022
 30
483.0
 10
15.428109464009122
 20
-205.86360096287785
 30
483.0
 10
15.428140548349141
 20
-205.86581432320276
 30
483.0
 10
15.428203374287698
 20
-205.87028784394312
 30
483.0
 10
15.428329594126918
 20
-205.87120107921263
 30
483.0
 10
15.428399284822442
 20
-205.87131419426862
 30
483.0
 10
15.428345085545995
 20
-205.87132031778967
 30
483.0
 10
15.428176434911757
 20
-205.8715713534934
 30
483.0
 10
15.427979570976321
 20
-205.8720779801358
 30
483.0
 10
15.427917531238714
 20
-205.87250965151193
 30
483.0
 10
15.428230152640394
 20
-205.8721945964555
 30
483.0
  0
ENDSEC
  0
SECTION
  2
OBJECTS
  0
DICTIONARY
  5
A
330
0
100
AcDbDictionary
281
1
  3
ACAD_COLOR
350
B
  3
ACAD_GROUP
350
C
  3
ACAD_LAYOUT
350
D
  3
ACAD_MATERIAL
350
E
  3
ACAD_MLEADERSTYLE
350
F
  3
ACAD_MLINESTYLE
350
10
  3
ACAD_PLOTSETTINGS
350
11
  3
ACAD_PLOTSTYLENAME
350
12
  3
ACAD_SCALELIST
350
14
  3
ACAD_TABLESTYLE
350
15
  3
ACAD_VISUALSTYLE
350
16
  3
EZDXF_META
350
2D
  0
DICTIONARY
  5
B
330
A
100
AcDbDictionary
281
1
  0
DICTIONARY
  5
C
330
A
100
AcDbDictionary
281
1
  0
DICTIONARY
  5
D
330
A
100
AcDbDictionary
281
1
  3
Model
350
1A
  3
Layout1
350
1E
  0
DICTIONARY
  5
E
330
A
100
AcDbDictionary
281
1
  3
ByBlock
350
1F
  3
ByLayer
350
20
  3
Global
350
21
  0
DICTIONARY
  5
F
330
A
100
AcDbDictionary
281
1
  3
Standard
350
2C
  0
DICTIONARY
  5
10
330
A
100
AcDbDictionary
281
1
  3
Standard
350
22
  0
DICTIONARY
  5
11
330
A
100
AcDbDictionary
281
1
  0
ACDBDICTIONARYWDFLT
  5
12
330
A
100
AcDbDictionary
281
1
  3
Normal
350
13
100
AcDbDictionaryWithDefault
340
13
  0
ACDBPLACEHOLDER
  5
13
330
12
  0
DICTIONARY
  5
14
330
A
100
AcDbDictionary
281
1
  0
DICTIONARY
  5
15
330
A
100
AcDbDictionary
281
1
  0
DICTIONARY
  5
16
330
A
100
AcDbDictionary
281
1
  0
LAYOUT
  5
1A
330
D
100
AcDbPlotSettings
  1

  2
Adobe PDF
  4
A3
  6

 40
7.5
 41
20.0
 42
7.5
 43
20.0
 44
420.0
 45
297.0
 46
0.0
 47
0.0
 48
0.0
 49
0.0
140
0.0
141
0.0
142
1.0
143
1.0
 70
1024
 72
1
 73
1
 74
5
  7

 75
16
 76
0
 77
2
 78
300
147
1.0
148
0.0
149
0.0
100
AcDbLayout
  1
Model
 70
1
 71
0
 10
0.0
 20
0.0
 11
420.0
 21
297.0
 12
0.0
 22
0.0
 32
0.0
 14
1e+20
 24
1e+20
 34
1e+20
 15
-1e+20
 25
-1e+20
 35
-1e+20
146
0.0
 13
0.0
 23
0.0
 33
0.0
 16
1.0
 26
0.0
 36
0.0
 17
0.0
 27
1.0
 37
0.0
 76
1
330
17
  0
LAYOUT
  5
1E
330
D
100
AcDbPlotSettings
  1

  2
Adobe PDF
  4
A3
  6

 40
7.5
 41
20.0
 42
7.5
 43
20.0
 44
420.0
 45
297.0
 46
0.0
 47
0.0
 48
0.0
 49
0.0
140
0.0
141
0.0
142
1.0
143
1.0
 70
0
 72
1
 73
1
 74
5
  7

 75
16
 76
0
 77
2
 78
300
147
1.0
148
0.0
149
0.0
100
AcDbLayout
  1
Layout1
 70
1
 71
1
 10
0.0
 20
0.0
 11
420.0
 21
297.0
 12
0.0
 22
0.0
 32
0.0
 14
1e+20
 24
1e+20
 34
1e+20
 15
-1e+20
 25
-1e+20
 35
-1e+20
146
0.0
 13
0.0
 23
0.0
 33
0.0
 16
1.0
 26
0.0
 36
0.0
 17
0.0
 27
1.0
 37
0.0
 76
1
330
1B
  0
MATERIAL
  5
1F
102
{ACAD_REACTORS
330
E
102
}
330
E
100
AcDbMaterial
  1
ByBlock
  2

 70
0
 40
1.0
 71
1
 41
1.0
 91
-1023410177
 42
1.0
 72
1
  3

 73
1
 74
1
 75
1
 44
0.5
 73
0
 45
1.0
 46
1.0
 77
1
  4

 78
1
 79
1
170
1
 48
1.0
171
1
  6

172
1
173
1
174
1
140
1.0
141
1.0
175
1
  7

176
1
177
1
178
1
143
1.0
179
1
  8

270
1
271
1
272
1
145
1.0
146
1.0
273
1
  9

274
1
275
1
276
1
 42
1.0
 72
1
  3

 73
1
 74
1
 75
1
 94
63
  0
MATERIAL
  5
20
102
{ACAD_REACTORS
330
E
102
}
330
E
100
AcDbMaterial
  1
ByLayer
  2

 70
0
 40
1.0
 71
1
 41
1.0
 91
-1023410177
 42
1.0
 72
1
  3

 73
1
 74
1
 75
1
 44
0.5
 73
0
 45
1.0
 46
1.0
 77
1
  4

 78
1
 79
1
170
1
 48
1.0
171
1
  6

172
1
173
1
174
1
140
1.0
141
1.0
175
1
  7

176
1
177
1
178
1
143
1.0
179
1
  8

270
1
271
1
272
1
145
1.0
146
1.0
273
1
  9

274
1
275
1
276
1
 42
1.0
 72
1
  3

 73
1
 74
1
 75
1
 94
63
  0
MATERIAL
  5
21
102
{ACAD_REACTORS
330
E
102
}
330
E
100
AcDbMaterial
  1
Global
  2

 70
0
 40
1.0
 71
1
 41
1.0
 91
-1023410177
 42
1.0
 72
1
  3

 73
1
 74
1
 75
1
 44
0.5
 73
0
 45
1.0
 46
1.0
 77
1
  4

 78
1
 79
1
170
1
 48
1.0
171
1
  6

172
1
173
1
174
1
140
1.0
141
1.0
175
1
  7

176
1
177
1
178
1
143
1.0
179
1
  8

270
1
271
1
272
1
145
1.0
146
1.0
273
1
  9

274
1
275
1
276
1
 42
1.0
 72
1
  3

 73
1
 74
1
 75
1
 94
63
  0
MLINESTYLE
  5
22
102
{ACAD_REACTORS
330
10
102
}
330
10
100
AcDbMlineStyle
  2
Standard
 70
0
  3

 62
256
 51
90.0
 52
90.0
 71
2
 49
0.5
 62
256
  6
BYLAYER
 49
-0.5
 62
256
  6
BYLAYER
  0
MLEADERSTYLE
  5
2C
102
{ACAD_REACTORS
330
F
102
}
330
F
100
AcDbMLeaderStyle
179
2
170
2
171
1
172
0
 90
2
 40
0.0
 41
0.0
173
1
 91
-1056964608
 92
-2
290
1
 42
2.0
291
1
 43
8.0
  3
Standard
 44
4.0
300

342
29
174
1
175
1
176
0
178
1
 93
-1056964608
 45
4.0
292
0
297
0
 46
4.0
 94
-1056964608
 47
1.0
 49
1.0
140
1.0
294
1
141
0.0
177
0
142
1.0
295
0
296
0
143
3.75
271
0
272
9
273
9
  0
DICTIONARY
  5
2D
330
A
100
AcDbDictionary
280
1
281
1
  3
CREATED_BY_EZDXF
350
2E
  3
WRITTEN_BY_EZDXF
350
78
  0
DICTIONARYVAR
  5
2E
330
2D
100
DictionaryVariables
280
0
  1
0.17 @ 2022-02-15T16:29:11.144129+00:00
  0
DICTIONARYVAR
  5
78
330
2D
100
DictionaryVariables
280
0
  1
0.17 @ 2022-02-15T16:29:11.232445+00:00
  0
ENDSEC
  0
EOF
