  0
SECTION
  2
HEADER
  9
$ACADVER
  1
AC1027
  9
$ACADMAINTVER
 70
105
  9
$DWGCODEPAGE
  3
ANSI_1252
  9
$LASTSAVEDBY
  1
ezdxf
  9
$REQUIREDVERSIONS
160
0
  9
$INSBASE
 10
0.0
 20
0.0
 30
0.0
  9
$EXTMIN
 10
1e+20
 20
1e+20
 30
1e+20
  9
$EXTMAX
 10
-1e+20
 20
-1e+20
 30
-1e+20
  9
$LIMMIN
 10
0.0
 20
0.0
  9
$LIMMAX
 10
420.0
 20
297.0
  9
$ORTHOMODE
 70
0
  9
$REGENMODE
 70
1
  9
$FILLMODE
 70
1
  9
$QTEXTMODE
 70
0
  9
$MIRRTEXT
 70
1
  9
$LTSCALE
 40
1.0
  9
$ATTMODE
 70
1
  9
$TEXTSIZE
 40
2.5
  9
$TRACEWID
 40
1.0
  9
$TEXTSTYLE
  7
Standard
  9
$CLAYER
  8
0
  9
$CELTYPE
  6
ByLayer
  9
$CECOLOR
 62
256
  9
$CELTSCALE
 40
1.0
  9
$DISPSILH
 70
0
  9
$DIMSCALE
 40
1.0
  9
$DIMASZ
 40
2.5
  9
$DIMEXO
 40
0.625
  9
$DIMDLI
 40
3.75
  9
$DIMRND
 40
0.0
  9
$DIMDLE
 40
0.0
  9
$DIMEXE
 40
1.25
  9
$DIMTP
 40
0.0
  9
$DIMTM
 40
0.0
  9
$DIMTXT
 40
2.5
  9
$DIMCEN
 40
2.5
  9
$DIMTSZ
 40
0.0
  9
$DIMTOL
 70
0
  9
$DIMLIM
 70
0
  9
$DIMTIH
 70
0
  9
$DIMTOH
 70
0
  9
$DIMSE1
 70
0
  9
$DIMSE2
 70
0
  9
$DIMTAD
 70
1
  9
$DIMZIN
 70
8
  9
$DIMBLK
  1

  9
$DIMASO
 70
1
  9
$DIMSHO
 70
1
  9
$DIMPOST
  1

  9
$DIMAPOST
  1

  9
$DIMALT
 70
0
  9
$DIMALTD
 70
3
  9
$DIMALTF
 40
0.03937007874
  9
$DIMLFAC
 40
1.0
  9
$DIMTOFL
 70
1
  9
$DIMTVP
 40
0.0
  9
$DIMTIX
 70
0
  9
$DIMSOXD
 70
0
  9
$DIMSAH
 70
0
  9
$DIMBLK1
  1

  9
$DIMBLK2
  1

  9
$DIMSTYLE
  2
ISO-25
  9
$DIMCLRD
 70
0
  9
$DIMCLRE
 70
0
  9
$DIMCLRT
 70
0
  9
$DIMTFAC
 40
1.0
  9
$DIMGAP
 40
0.625
  9
$DIMJUST
 70
0
  9
$DIMSD1
 70
0
  9
$DIMSD2
 70
0
  9
$DIMTOLJ
 70
0
  9
$DIMTZIN
 70
8
  9
$DIMALTZ
 70
0
  9
$DIMALTTZ
 70
0
  9
$DIMUPT
 70
0
  9
$DIMDEC
 70
2
  9
$DIMTDEC
 70
2
  9
$DIMALTU
 70
2
  9
$DIMALTTD
 70
3
  9
$DIMTXSTY
  7
Standard
  9
$DIMAUNIT
 70
0
  9
$DIMADEC
 70
0
  9
$DIMALTRND
 40
0.0
  9
$DIMAZIN
 70
0
  9
$DIMDSEP
 70
44
  9
$DIMATFIT
 70
3
  9
$DIMFRAC
 70
0
  9
$DIMLDRBLK
  1

  9
$DIMLUNIT
 70
2
  9
$DIMLWD
 70
-2
  9
$DIMLWE
 70
-2
  9
$DIMTMOVE
 70
0
  9
$DIMFXL
 40
1.0
  9
$DIMFXLON
 70
0
  9
$DIMJOGANG
 40
0.785398163397
  9
$DIMTFILL
 70
0
  9
$DIMTFILLCLR
 70
0
  9
$DIMARCSYM
 70
0
  9
$DIMLTYPE
  6

  9
$DIMLTEX1
  6

  9
$DIMLTEX2
  6

  9
$DIMTXTDIRECTION
 70
0
  9
$LUNITS
 70
2
  9
$LUPREC
 70
4
  9
$SKETCHINC
 40
1.0
  9
$FILLETRAD
 40
10.0
  9
$AUNITS
 70
0
  9
$AUPREC
 70
2
  9
$MENU
  1
.
  9
$ELEVATION
 40
0.0
  9
$PELEVATION
 40
0.0
  9
$THICKNESS
 40
0.0
  9
$LIMCHECK
 70
0
  9
$CHAMFERA
 40
0.0
  9
$CHAMFERB
 40
0.0
  9
$CHAMFERC
 40
0.0
  9
$CHAMFERD
 40
0.0
  9
$SKPOLY
 70
0
  9
$TDCREATE
 40
2459626.728611111
  9
$TDUCREATE
 40
2458532.153996898
  9
$TDUPDATE
 40
2459626.728611111
  9
$TDUUPDATE
 40
2458532.1544311
  9
$TDINDWG
 40
0.0
  9
$TDUSRTIMER
 40
0.0
  9
$USRTIMER
 70
1
  9
$ANGBASE
 50
0.0
  9
$ANGDIR
 70
0
  9
$PDMODE
 70
0
  9
$PDSIZE
 40
0.0
  9
$PLINEWID
 40
0.0
  9
$SPLFRAME
 70
0
  9
$SPLINETYPE
 70
6
  9
$SPLINESEGS
 70
8
  9
$HANDSEED
  5
79
  9
$SURFTAB1
 70
6
  9
$SURFTAB2
 70
6
  9
$SURFTYPE
 70
6
  9
$SURFU
 70
6
  9
$SURFV
 70
6
  9
$UCSBASE
  2

  9
$UCSNAME
  2

  9
$UCSORG
 10
0.0
 20
0.0
 30
0.0
  9
$UCSXDIR
 10
1.0
 20
0.0
 30
0.0
  9
$UCSYDIR
 10
0.0
 20
1.0
 30
0.0
  9
$UCSORTHOREF
  2

  9
$UCSORTHOVIEW
 70
0
  9
$UCSORGTOP
 10
0.0
 20
0.0
 30
0.0
  9
$UCSORGBOTTOM
 10
0.0
 20
0.0
 30
0.0
  9
$UCSORGLEFT
 10
0.0
 20
0.0
 30
0.0
  9
$UCSORGRIGHT
 10
0.0
 20
0.0
 30
0.0
  9
$UCSORGFRONT
 10
0.0
 20
0.0
 30
0.0
  9
$UCSORGBACK
 10
0.0
 20
0.0
 30
0.0
  9
$PUCSBASE
  2

  9
$PUCSNAME
  2

  9
$PUCSORG
 10
0.0
 20
0.0
 30
0.0
  9
$PUCSXDIR
 10
1.0
 20
0.0
 30
0.0
  9
$PUCSYDIR
 10
0.0
 20
1.0
 30
0.0
  9
$PUCSORTHOREF
  2

  9
$PUCSORTHOVIEW
 70
0
  9
$PUCSORGTOP
 10
0.0
 20
0.0
 30
0.0
  9
$PUCSORGBOTTOM
 10
0.0
 20
0.0
 30
0.0
  9
$PUCSORGLEFT
 10
0.0
 20
0.0
 30
0.0
  9
$PUCSORGRIGHT
 10
0.0
 20
0.0
 30
0.0
  9
$PUCSORGFRONT
 10
0.0
 20
0.0
 30
0.0
  9
$PUCSORGBACK
 10
0.0
 20
0.0
 30
0.0
  9
$USERI1
 70
0
  9
$USERI2
 70
0
  9
$USERI3
 70
0
  9
$USERI4
 70
0
  9
$USERI5
 70
0
  9
$USERR1
 40
0.0
  9
$USERR2
 40
0.0
  9
$USERR3
 40
0.0
  9
$USERR4
 40
0.0
  9
$USERR5
 40
0.0
  9
$WORLDVIEW
 70
1
  9
$SHADEDGE
 70
3
  9
$SHADEDIF
 70
70
  9
$TILEMODE
 70
1
  9
$MAXACTVP
 70
64
  9
$PINSBASE
 10
0.0
 20
0.0
 30
0.0
  9
$PLIMCHECK
 70
0
  9
$PEXTMIN
 10
1e+20
 20
1e+20
 30
1e+20
  9
$PEXTMAX
 10
-1e+20
 20
-1e+20
 30
-1e+20
  9
$PLIMMIN
 10
0.0
 20
0.0
  9
$PLIMMAX
 10
420.0
 20
297.0
  9
$UNITMODE
 70
0
  9
$VISRETAIN
 70
1
  9
$PLINEGEN
 70
0
  9
$PSLTSCALE
 70
1
  9
$TREEDEPTH
 70
3020
  9
$CMLSTYLE
  2
Standard
  9
$CMLJUST
 70
0
  9
$CMLSCALE
 40
20.0
  9
$PROXYGRAPHICS
 70
1
  9
$MEASUREMENT
 70
1
  9
$CELWEIGHT
370
-1
  9
$ENDCAPS
280
0
  9
$JOINSTYLE
280
0
  9
$LWDISPLAY
290
0
  9
$INSUNITS
 70
6
  9
$HYPERLINKBASE
  1

  9
$STYLESHEET
  1

  9
$XEDIT
290
1
  9
$CEPSNTYPE
380
0
  9
$PSTYLEMODE
290
1
  9
$FINGERPRINTGUID
  2
{D721E283-E7CB-432D-9553-42AF2A97666D}
  9
$VERSIONGUID
  2
{EB0F26EC-4C4B-4D2F-82FB-411296885E0A}
  9
$EXTNAMES
290
1
  9
$PSVPSCALE
 40
0.0
  9
$OLESTARTUP
290
0
  9
$SORTENTS
280
127
  9
$INDEXCTL
280
0
  9
$HIDETEXT
280
1
  9
$XCLIPFRAME
280
0
  9
$HALOGAP
280
0
  9
$OBSCOLOR
 70
257
  9
$OBSLTYPE
280
0
  9
$INTERSECTIONDISPLAY
280
0
  9
$INTERSECTIONCOLOR
 70
257
  9
$DIMASSOC
280
2
  9
$PROJECTNAME
  1

  9
$CAMERADISPLAY
290
0
  9
$LENSLENGTH
 40
50.0
  9
$CAMERAHEIGHT
 40
0.0
  9
$STEPSPERSEC
 40
24.0
  9
$STEPSIZE
 40
100.0
  9
$3DDWFPREC
 40
2.0
  9
$PSOLWIDTH
 40
0.005
  9
$PSOLHEIGHT
 40
0.08
  9
$LOFTANG1
 40
1.570796326795
  9
$LOFTANG2
 40
1.570796326795
  9
$LOFTMAG1
 40
0.0
  9
$LOFTMAG2
 40
0.0
  9
$LOFTPARAM
 70
7
  9
$LOFTNORMALS
280
1
  9
$LATITUDE
 40
37.795
  9
$LONGITUDE
 40
-122.394
  9
$NORTHDIRECTION
 40
0.0
  9
$TIMEZONE
 70
-8000
  9
$LIGHTGLYPHDISPLAY
280
1
  9
$TILEMODELIGHTSYNCH
280
1
  9
$CMATERIAL
347
20
  9
$SOLIDHIST
280
0
  9
$SHOWHIST
280
1
  9
$DWFFRAME
280
2
  9
$DGNFRAME
280
2
  9
$REALWORLDSCALE
290
1
  9
$INTERFERECOLOR
 62
256
  9
$CSHADOW
280
0
  9
$SHADOWPLANELOCATION
 40
0.0
  0
ENDSEC
  0
SECTION
  2
CLASSES
  0
CLASS
  1
ACDBDICTIONARYWDFLT
  2
AcDbDictionaryWithDefault
  3
ObjectDBX Classes
 90
0
 91
0
280
0
281
0
  0
CLASS
  1
SUN
  2
AcDbSun
  3
SCENEOE
 90
1153
 91
0
280
0
281
0
  0
CLASS
  1
VISUALSTYLE
  2
AcDbVisualStyle
  3
ObjectDBX Classes
 90
4095
 91
0
280
0
281
0
  0
CLASS
  1
MATERIAL
  2
AcDbMaterial
  3
ObjectDBX Classes
 90
1153
 91
0
280
0
281
0
  0
CLASS
  1
SCALE
  2
AcDbScale
  3
ObjectDBX Classes
 90
1153
 91
0
280
0
281
0
  0
CLASS
  1
TABLESTYLE
  2
AcDbTableStyle
  3
ObjectDBX Classes
 90
4095
 91
0
280
0
281
0
  0
CLASS
  1
MLEADERSTYLE
  2
AcDbMLeaderStyle
  3
ACDB_MLEADERSTYLE_CLASS
 90
4095
 91
0
280
0
281
0
  0
CLASS
  1
DICTIONARYVAR
  2
AcDbDictionaryVar
  3
ObjectDBX Classes
 90
0
 91
0
280
0
281
0
  0
CLASS
  1
CELLSTYLEMAP
  2
AcDbCellStyleMap
  3
ObjectDBX Classes
 90
1152
 91
0
280
0
281
0
  0
CLASS
  1
MENTALRAYRENDERSETTINGS
  2
AcDbMentalRayRenderSettings
  3
SCENEOE
 90
1024
 91
0
280
0
281
0
  0
CLASS
  1
ACDBDETAILVIEWSTYLE
  2
AcDbDetailViewStyle
  3
ObjectDBX Classes
 90
1025
 91
0
280
0
281
0
  0
CLASS
  1
ACDBSECTIONVIEWSTYLE
  2
AcDbSectionViewStyle
  3
ObjectDBX Classes
 90
1025
 91
0
280
0
281
0
  0
CLASS
  1
RASTERVARIABLES
  2
AcDbRasterVariables
  3
ISM
 90
0
 91
0
280
0
281
0
  0
CLASS
  1
ACDBPLACEHOLDER
  2
AcDbPlaceHolder
  3
ObjectDBX Classes
 90
0
 91
0
280
0
281
0
  0
CLASS
  1
LAYOUT
  2
AcDbLayout
  3
ObjectDBX Classes
 90
0
 91
0
280
0
281
0
  0
ENDSEC
  0
SECTION
  2
TABLES
  0
TABLE
  2
VPORT
  5
8
330
0
100
AcDbSymbolTable
 70
1
  0
VPORT
  5
23
330
8
100
AcDbSymbolTableRecord
100
AcDbViewportTableRecord
  2
*Active
 70
0
 10
0.0
 20
0.0
 11
1.0
 21
1.0
 12
344.2
 22
148.5
 13
0.0
 23
0.0
 14
0.5
 24
0.5
 15
0.5
 25
0.5
 16
0.0
 26
0.0
 36
1.0
 17
0.0
 27
0.0
 37
0.0
 40
297.0
 41
1.34
 42
50.0
 43
0.0
 44
0.0
 50
0.0
 51
0.0
 71
0
 72
1000
 73
1
 74
3
 75
0
 76
0
 77
0
 78
0
281
0
 65
0
146
0.0
  0
ENDTAB
  0
TABLE
  2
LTYPE
  5
2
330
0
100
AcDbSymbolTable
 70
3
  0
LTYPE
  5
24
330
2
100
AcDbSymbolTableRecord
100
AcDbLinetypeTableRecord
  2
ByBlock
 70
0
  3

 72
65
 73
0
 40
0.0
  0
LTYPE
  5
25
330
2
100
AcDbSymbolTableRecord
100
AcDbLinetypeTableRecord
  2
ByLayer
 70
0
  3

 72
65
 73
0
 40
0.0
  0
LTYPE
  5
26
330
2
100
AcDbSymbolTableRecord
100
AcDbLinetypeTableRecord
  2
Continuous
 70
0
  3

 72
65
 73
0
 40
0.0
  0
ENDTAB
  0
TABLE
  2
LAYER
  5
1
330
0
100
AcDbSymbolTable
 70
2
  0
LAYER
  5
27
330
1
100
AcDbSymbolTableRecord
100
AcDbLayerTableRecord
  2
0
 70
0
 62
7
  6
Continuous
370
-3
390
13
347
21
  0
LAYER
  5
28
330
1
100
AcDbSymbolTableRecord
100
AcDbLayerTableRecord
  2
Defpoints
 70
0
 62
7
  6
Continuous
290
0
370
-3
390
13
347
21
  0
ENDTAB
  0
TABLE
  2
STYLE
  5
5
330
0
100
AcDbSymbolTable
 70
1
  0
STYLE
  5
29
330
5
100
AcDbSymbolTableRecord
100
AcDbTextStyleTableRecord
  2
Standard
 70
0
 40
0.0
 41
1.0
 50
0.0
 71
0
 42
2.5
  3
txt
  4

  0
ENDTAB
  0
TABLE
  2
VIEW
  5
7
330
0
100
AcDbSymbolTable
 70
0
  0
ENDTAB
  0
TABLE
  2
UCS
  5
6
330
0
100
AcDbSymbolTable
 70
0
  0
ENDTAB
  0
TABLE
  2
APPID
  5
3
330
0
100
AcDbSymbolTable
 70
3
  0
APPID
  5
2A
330
3
100
AcDbSymbolTableRecord
100
AcDbRegAppTableRecord
  2
ACAD
 70
0
  0
APPID
  5
76
330
3
100
AcDbSymbolTableRecord
100
AcDbRegAppTableRecord
  2
HATCHBACKGROUNDCOLOR
 70
0
  0
APPID
  5
77
330
3
100
AcDbSymbolTableRecord
100
AcDbRegAppTableRecord
  2
EZDXF
 70
0
  0
ENDTAB
  0
TABLE
  2
DIMSTYLE
  5
4
330
0
100
AcDbSymbolTable
 70
1
100
AcDbDimStyleTable
  0
DIMSTYLE
105
2B
330
4
100
AcDbSymbolTableRecord
100
AcDbDimStyleTableRecord
  2
Standard
 70
0
 40
1.0
 41
2.5
 42
0.625
 43
3.75
 44
1.25
 45
0.0
 46
0.0
 47
0.0
 48
0.0
 49
2.5
140
2.5
141
2.5
142
0.0
143
0.03937007874
144
1.0
145
0.0
146
1.0
147
0.625
148
0.0
 69
0
 70
0
 71
0
 72
0
 73
0
 74
0
 75
0
 76
0
 77
1
 78
8
 79
0
170
0
171
3
172
1
173
0
174
0
175
0
176
0
177
0
178
0
179
0
271
0
272
2
273
2
274
3
275
0
276
0
277
2
278
44
279
0
280
0
281
0
282
0
283
0
284
8
285
0
286
0
288
0
289
3
290
0
371
-2
372
-2
  0
ENDTAB
  0
TABLE
  2
BLOCK_RECORD
  5
9
330
0
100
AcDbSymbolTable
 70
2
  0
BLOCK_RECORD
  5
17
330
9
100
AcDbSymbolTableRecord
100
AcDbBlockTableRecord
  2
*Model_Space
340
1A
 70
0
280
1
281
0
  0
BLOCK_RECORD
  5
1B
330
9
100
AcDbSymbolTableRecord
100
AcDbBlockTableRecord
  2
*Paper_Space
340
1E
 70
0
280
1
281
0
  0
ENDTAB
  0
ENDSEC
  0
SECTION
  2
BLOCKS
  0
BLOCK
  5
18
330
17
100
AcDbEntity
  8
0
100
AcDbBlockBegin
  2
*Model_Space
 70
0
 10
0.0
 20
0.0
 30
0.0
  3
*Model_Space
  1

  0
ENDBLK
  5
19
330
17
100
AcDbEntity
  8
0
100
AcDbBlockEnd
  0
BLOCK
  5
1C
330
1B
100
AcDbEntity
  8
0
100
AcDbBlockBegin
  2
*Paper_Space
 70
0
 10
0.0
 20
0.0
 30
0.0
  3
*Paper_Space
  1

  0
ENDBLK
  5
1D
330
1B
100
AcDbEntity
  8
0
100
AcDbBlockEnd
  0
ENDSEC
  0
SECTION
  2
ENTITIES
  0
SPLINE
  5
2F
330
17
100
AcDbEntity
  8
0
100
AcDbSpline
 70
0
 71
8
 72
95
 73
86
 74
0
 40
0.0
 40
0.0
 40
0.0
 40
0.0
 40
0.0
 40
0.0
 40
0.0
 40
0.0
 40
0.0
 40
0.020759648587454525
 40
0.020759648587454525
 40
0.020759648587454525
 40
0.020759648587454525
 40
0.020759648587454525
 40
0.020759648587454525
 40
0.020759648587454525
 40
0.08653065857183068
 40
0.08653065857183068
 40
0.08653065857183068
 40
0.08653065857183068
 40
0.08653065857183068
 40
0.08653065857183068
 40
0.08653065857183068
 40
0.19797118872716618
 40
0.19797118872716618
 40
0.19797118872716618
 40
0.19797118872716618
 40
0.19797118872716618
 40
0.19797118872716618
 40
0.19797118872716618
 40
0.2914187758478353
 40
0.2914187758478353
 40
0.2914187758478353
 40
0.2914187758478353
 40
0.2914187758478353
 40
0.2914187758478353
 40
0.2914187758478353
 40
0.3903406622317719
 40
0.3903406622317719
 40
0.3903406622317719
 40
0.3903406622317719
 40
0.3903406622317719
 40
0.3903406622317719
 40
0.3903406622317719
 40
0.44534420102426864
 40
0.44534420102426864
 40
0.44534420102426864
 40
0.44534420102426864
 40
0.44534420102426864
 40
0.44534420102426864
 40
0.44534420102426864
 40
0.5177620256432517
 40
0.5177620256432517
 40
0.5177620256432517
 40
0.5177620256432517
 40
0.5177620256432517
 40
0.5177620256432517
 40
0.5177620256432517
 40
0.5512263567323512
 40
0.5512263567323512
 40
0.5512263567323512
 40
0.5512263567323512
 40
0.5512263567323512
 40
0.5512263567323512
 40
0.5512263567323512
 40
0.5881029452032911
 40
0.5881029452032911
 40
0.5881029452032911
 40
0.5881029452032911
 40
0.5881029452032911
 40
0.5881029452032911
 40
0.5881029452032911
 40
0.6923652495973746
 40
0.6923652495973746
 40
0.6923652495973746
 40
0.6923652495973746
 40
0.6923652495973746
 40
0.6923652495973746
 40
0.6923652495973746
 40
0.8379024060443631
 40
0.8379024060443631
 40
0.8379024060443631
 40
0.8379024060443631
 40
0.8379024060443631
 40
0.8379024060443631
 40
0.8379024060443631
 40
1.0
 40
1.0
 40
1.0
 40
1.0
 40
1.0
 40
1.0
 40
1.0
 40
1.0
 40
1.0
 10
50.47920414151565
 20
209.90000028557435
 30
509.0
 10
50.42542804040471
 20
210.05631704197555
 30
509.0
 10
50.37158465146999
 20
210.2117480835193
 30
509.0
 10
50.317674430638625
 20
210.3662957520488
 30
509.0
 10
50.26369784299496
 20
210.51996239610918
 30
509.0
 10
50.20965536278051
 20
210.67275037094714
 30
509.0
 10
50.15554747339402
 20
210.82466203851126
 30
509.0
 10
50.101374667391404
 20
210.97569976745189
 30
509.0
 10
49.875302322077
 20
211.6016244865448
 30
509.0
 10
49.70281967849723
 20
212.06863383431482
 30
509.0
 10
49.52970390288355
 20
212.52696836834306
 30
509.0
 10
49.35596938237717
 20
212.9767024805321
 30
509.0
 10
49.18163050412339
 20
213.41791056277563
 30
509.0
 10
49.00670165527156
 20
213.85066700695788
 30
509.0
 10
48.83119722297517
 20
214.2750462049542
 30
509.0
 10
48.35681099697158
 20
215.39611048078262
 30
509.0
 10
48.04859531769746
 20
216.0968369079756
 30
509.0
 10
47.729751517706084
 20
216.79288105341223
 30
509.0
 10
47.39946882234091
 20
217.48367196274623
 30
509.0
 10
47.05685005274083
 20
218.16848460407226
 30
509.0
 10
46.7008823320755
 20
218.846425228826
 30
509.0
 10
46.3303871664272
 20
219.51640599359473
 30
509.0
 10
45.61990594574559
 20
220.7311360623753
 30
509.0
 10
45.28472621932796
 20
221.27851137080134
 30
509.0
 10
44.93754354534971
 20
221.81853441114123
 30
509.0
 10
44.57744390261493
 20
222.35023986602633
 30
509.0
 10
44.20346072215483
 20
222.87239384552365
 30
509.0
 10
43.81455634619763
 20
223.38348062203855
 30
509.0
 10
43.4095906484016
 20
223.88167971228825
 30
509.0
 10
42.5402232070287
 20
224.87629075977563
 30
509.0
 10
42.073940635642614
 20
225.3706451080721
 30
509.0
 10
41.58681464433069
 20
225.845502732356
 30
509.0
 10
41.077470333894254
 20
226.29749196460776
 30
509.0
 10
40.54486717342379
 20
226.7223931536866
 30
509.0
 10
39.98840075833009
 20
227.11527057499413
 30
509.0
 10
39.40813746915775
 20
227.4707734214235
 30
509.0
 10
38.47011669218012
 20
227.957810339174
 30
509.0
 10
38.12801563383301
 20
228.11867218929856
 30
509.0
 10
37.779379167711774
 20
228.26540525592787
 30
509.0
 10
37.42467847044979
 20
228.3971306430958
 30
509.0
 10
37.06449419890425
 20
228.51308193050366
 30
509.0
 10
36.699530202035746
 20
228.61264569145158
 30
509.0
 10
36.330628282881406
 20
228.69540456475292
 30
509.0
 10
35.469212723296295
 20
228.84778680916577
 30
509.0
 10
34.974307175928544
 20
228.90499756656766
 30
509.0
 10
34.47643029976249
 20
228.93234416882325
 30
509.0
 10
33.97769611524367
 20
228.93024484889864
 30
509.0
 10
33.47997672322732
 20
228.89978559225105
 30
509.0
 10
32.98490762475383
 20
228.84252346323572
 30
509.0
 10
32.493891369391605
 20
228.7603147224035
 30
509.0
 10
31.78361475968306
 20
228.6065792327807
 30
509.0
 10
31.56020596888842
 20
228.5530726958383
 30
509.0
 10
31.337932365610367
 20
228.49489336794332
 30
509.0
 10
31.116908964136936
 20
228.43210609181367
 30
509.0
 10
30.89715610416898
 20
228.36500114125718
 30
509.0
 10
30.67869794583926
 20
228.29383982058474
 30
509.0
 10
30.461650825585657
 20
228.21860605825734
 30
509.0
 10
30.00844893736253
 20
228.05218106348264
 30
509.0
 10
29.771725876378866
 20
227.9598203379297
 30
509.0
 10
29.535883788903494
 20
227.86239733964786
 30
509.0
 10
29.300933291087414
 20
227.7599613629144
 30
509.0
 10
29.066884999063795
 20
227.6525617020139
 30
509.0
 10
28.833749528947916
 20
227.5402476512388
 30
509.0
 10
28.601537496837196
 20
227.42306850488902
 30
509.0
 10
27.716360230822783
 20
226.95615351747568
 30
509.0
 10
27.08012909549632
 20
226.5781179360556
 30
509.0
 10
26.461931772368963
 20
226.17046505622255
 30
509.0
 10
25.861777212912394
 20
225.73651609219425
 30
509.0
 10
25.279413035399493
 20
225.27928180077782
 30
509.0
 10
24.714377917781416
 20
224.8013899154974
 30
509.0
 10
24.166031629048078
 20
224.30504372233014
 30
509.0
 10
22.890351972699072
 20
223.07581204224107
 30
509.0
 10
22.178492584930883
 20
222.32745402602475
 30
509.0
 10
21.495840413613074
 20
221.55173935783085
 30
509.0
 10
20.840581531780437
 20
220.75263632637822
 30
509.0
 10
20.211068989272857
 20
219.93340552004344
 30
509.0
 10
19.605748487153086
 20
219.0966619324034
 30
509.0
 10
19.023136196123428
 20
218.24439376060113
 30
509.0
 10
17.836571981555377
 20
216.41299500263847
 30
509.0
 10
17.237976483361237
 20
215.43083569349852
 30
509.0
 10
16.664160834156327
 20
214.43372557833888
 30
509.0
 10
16.1136492088095
 20
213.42348970040436
 30
509.0
 10
15.585191793866963
 20
212.40164094227345
 30
509.0
 10
15.077698854663119
 20
211.36941650030712
 30
509.0
 10
14.59021248675292
 20
210.32779367698186
 30
509.0
 10
14.12187748475857
 20
209.27750629126237
 30
509.0
  0
LINE
  5
30
330
17
100
AcDbEntity
  8
0
100
AcDbLine
 10
28.972845652264212
 20
209.9
 30
509.0
 11
50.479203311405634
 21
209.9
 31
509.0
  0
SPLINE
  5
31
330
17
100
AcDbEntity
  8
0
100
AcDbSpline
 70
0
 71
1
 72
4
 73
2
 74
0
 40
0.0
 40
0.0
 40
1.0
 40
1.0
 10
28.97284560120904
 20
209.90000060000008
 30
509.0
 10
28.97284560120904
 20
206.09999939999994
 30
509.0
  0
LINE
  5
32
330
17
100
AcDbEntity
  8
0
100
AcDbLine
 10
28.972845652264212
 20
206.1
 30
509.0
 11
51.69908074721509
 21
206.1
 31
509.0
  0
SPLINE
  5
33
330
17
100
AcDbEntity
  8
0
100
AcDbSpline
 70
0
 71
8
 72
25
 73
16
 74
0
 40
0.0
 40
0.0
 40
0.0
 40
0.0
 40
0.0
 40
0.0
 40
0.0
 40
0.0
 40
0.0
 40
0.6612268678702093
 40
0.6612268678702093
 40
0.6612268678702093
 40
0.6612268678702093
 40
0.6612268678702093
 40
0.6612268678702093
 40
0.6612268678702093
 40
1.0
 40
1.0
 40
1.0
 40
1.0
 40
1.0
 40
1.0
 40
1.0
 40
1.0
 40
1.0
 10
56.836172085734596
 20
183.90000000168737
 30
509.0
 10
56.49279314116726
 20
185.7527740919115
 30
509.0
 10
56.13835127521863
 20
187.60345256145615
 30
509.0
 10
55.771927503144774
 20
189.4518369272938
 30
509.0
 10
55.392450588197
 20
191.29763889200845
 30
509.0
 10
54.99862788648335
 20
193.14046487973033
 30
509.0
 10
54.58889203143676
 20
194.97980466835082
 30
509.0
 10
54.16125784154252
 20
196.8150006477239
 30
509.0
 10
53.48331502290222
 20
199.58284580764018
 30
509.0
 10
53.24823671686622
 20
200.51916503718888
 30
509.0
 10
53.00737672811326
 20
201.45402615601262
 30
509.0
 10
52.76031634296856
 20
202.38728803017972
 30
509.0
 10
52.50657371779334
 20
203.31876934814287
 30
509.0
 10
52.245589625296496
 20
204.2482446134717
 30
509.0
 10
51.976700128349094
 20
205.17543648423555
 30
509.0
 10
51.699080757447035
 20
206.10000000307235
 30
509.0
  0
LINE
  5
34
330
17
100
AcDbEntity
  8
0
100
AcDbLine
 10
28.972845652264212
 20
183.9
 30
509.0
 11
56.83617207662989
 21
183.9
 31
509.0
  0
SPLINE
  5
35
330
17
100
AcDbEntity
  8
0
100
AcDbSpline
 70
0
 71
1
 72
4
 73
2
 74
0
 40
0.0
 40
0.0
 40
1.0
 40
1.0
 10
28.97284560120904
 20
183.90000060000014
 30
509.0
 10
28.97284560120904
 20
180.0999993999999
 30
509.0
  0
LINE
  5
36
330
17
100
AcDbEntity
  8
0
100
AcDbLine
 10
28.972845652264212
 20
180.1
 30
509.0
 11
57.520249542376945
 21
180.1
 31
509.0
  0
SPLINE
  5
37
330
17
100
AcDbEntity
  8
0
100
AcDbSpline
 70
0
 71
8
 72
25
 73
16
 74
0
 40
0.0
 40
0.0
 40
0.0
 40
0.0
 40
0.0
 40
0.0
 40
0.0
 40
0.0
 40
0.0
 40
0.38479206382659337
 40
0.38479206382659337
 40
0.38479206382659337
 40
0.38479206382659337
 40
0.38479206382659337
 40
0.38479206382659337
 40
0.38479206382659337
 40
1.0
 40
1.0
 40
1.0
 40
1.0
 40
1.0
 40
1.0
 40
1.0
 40
1.0
 40
1.0
 10
60.88289890327028
 20
157.89999998953175
 30
509.00000000000006
 10
60.74169063240099
 20
158.97078817983964
 30
509.00000000000006
 10
60.59855132469754
 20
160.0413203357975
 30
509.00000000000006
 10
60.45343229616134
 20
161.1115861182657
 30
509.00000000000006
 10
60.30628148627991
 20
162.18157456571305
 30
509.00000000000006
 10
60.157043089661826
 20
163.25127404965062
 30
509.00000000000006
 10
60.005657118851104
 20
164.32067222173538
 30
509.00000000000006
 10
59.85205888003217
 20
165.38975595029183
 30
509.0
 10
59.446955559508424
 20
168.16724382859212
 30
509.0
 10
59.19190178933955
 20
169.87511599256757
 30
509.0
 10
58.93073068154617
 20
171.58207012170178
 30
509.0
 10
58.66312237529778
 20
173.28803473866228
 30
509.0
 10
58.38871543881385
 20
174.9929231442387
 30
509.0
 10
58.107098481411995
 20
176.6966320234377
 30
509.0
 10
57.81779681185155
 20
178.39903923409452
 30
509.0
 10
57.52024952188854
 20
180.09999999641602
 30
509.0
  0
LINE
  5
38
330
17
100
AcDbEntity
  8
0
100
AcDbLine
 10
28.972845652264212
 20
157.9
 30
509.0
 11
60.882898982651824
 21
157.9
 31
509.0
  0
SPLINE
  5
39
330
17
100
AcDbEntity
  8
0
100
AcDbSpline
 70
0
 71
1
 72
4
 73
2
 74
0
 40
0.0
 40
0.0
 40
1.0
 40
1.0
 10
28.97284560120904
 20
157.90000060000042
 30
509.0
 10
28.97284560120904
 20
154.09999939999918
 30
509.0
  0
LINE
  5
3A
330
17
100
AcDbEntity
  8
0
100
AcDbLine
 10
28.972845652264212
 20
154.1
 30
509.0
 11
61.37343448621645
 21
154.1
 31
509.0
  0
SPLINE
  5
3B
330
17
100
AcDbEntity
  8
0
100
AcDbSpline
 70
0
 71
8
 72
18
 73
9
 74
0
 40
0.0
 40
0.0
 40
0.0
 40
0.0
 40
0.0
 40
0.0
 40
0.0
 40
0.0
 40
0.0
 40
1.0
 40
1.0
 40
1.0
 40
1.0
 40
1.0
 40
1.0
 40
1.0
 40
1.0
 40
1.0
 10
63.868503711208334
 20
131.90000000280074
 30
509.0
 10
63.59143243135653
 20
134.67876268320094
 30
509.0
 10
63.30520399414797
 20
137.4566116450947
 30
509.0
 10
63.00950092400123
 20
140.23348744378893
 30
509.0
 10
62.70395301632317
 20
143.00931476213955
 30
509.0
 10
62.38812836274039
 20
145.7840013048871
 30
509.0
 10
62.06152027544182
 20
148.55743618174554
 30
509.0
 10
61.72353018810868
 20
151.32948783001945
 30
509.0
 10
61.37343448599163
 20
154.09999999997157
 30
509.0
  0
LINE
  5
3C
330
17
100
AcDbEntity
  8
0
100
AcDbLine
 10
28.972845652264212
 20
131.9
 30
509.0
 11
63.86850368311978
 21
131.9
 31
509.0
  0
SPLINE
  5
3D
330
17
100
AcDbEntity
  8
0
100
AcDbSpline
 70
0
 71
1
 72
4
 73
2
 74
0
 40
0.0
 40
0.0
 40
1.0
 40
1.0
 10
28.97284560120904
 20
131.90000060000256
 30
509.0
 10
28.97284560120904
 20
128.09999939999764
 30
509.0
  0
LINE
  5
3E
330
17
100
AcDbEntity
  8
0
100
AcDbLine
 10
28.972845652264212
 20
128.1
 30
509.0
 11
64.23992640268524
 21
128.1
 31
509.0
  0
SPLINE
  5
3F
330
17
100
AcDbEntity
  8
0
100
AcDbSpline
 70
0
 71
8
 72
32
 73
23
 74
0
 40
0.0
 40
0.0
 40
0.0
 40
0.0
 40
0.0
 40
0.0
 40
0.0
 40
0.0
 40
0.0
 40
0.031016067286425603
 40
0.031016067286425603
 40
0.031016067286425603
 40
0.031016067286425603
 40
0.031016067286425603
 40
0.031016067286425603
 40
0.031016067286425603
 40
0.7065959629285586
 40
0.7065959629285586
 40
0.7065959629285586
 40
0.7065959629285586
 40
0.7065959629285586
 40
0.7065959629285586
 40
0.7065959629285586
 40
1.0
 40
1.0
 40
1.0
 40
1.0
 40
1.0
 40
1.0
 40
1.0
 40
1.0
 40
1.0
 10
66.13026670361211
 20
105.9000000000172
 30
509.0
 10
66.12380890023489
 20
105.9861411832013
 30
509.0
 10
66.11734365264356
 20
106.0722818104201
 30
509.0
 10
66.11087095695206
 20
106.15842188067114
 30
509.0
 10
66.10439080927054
 20
106.24456139295074
 30
509.0
 10
66.09790320570534
 20
106.330700346254
 30
509.0
 10
66.09140814235894
 20
106.41683873957484
 30
509.0
 10
66.08490561533002
 20
106.50297657190592
 30
509.0
 10
65.93659745387549
 20
108.46532231073724
 30
509.0
 10
65.79125583560034
 20
110.34126260604523
 30
509.0
 10
65.64233473643431
 20
112.21692451190273
 30
509.0
 10
65.48978070875359
 20
114.09229533988554
 30
509.0
 10
65.33356892660923
 20
115.96736557941216
 30
509.0
 10
65.17365086966034
 20
117.84212179802074
 30
509.0
 10
65.00996677795003
 20
119.71655034874743
 30
509.0
 10
64.7697045156635
 20
122.404551210568
 30
509.0
 10
64.69623242246374
 20
123.21839764521819
 30
509.0
 10
64.62203331710997
 20
124.03217516234632
 30
509.0
 10
64.54710162559444
 20
124.84588304175824
 30
509.0
 10
64.47143146191381
 20
125.65952045597348
 30
509.0
 10
64.39501661949214
 20
126.47308646921842
 30
509.0
 10
64.3178505593957
 20
127.28658003600243
 30
509.0
 10
64.23992639573447
 20
128.09999999933416
 30
509.0
  0
LINE
  5
40
330
17
100
AcDbEntity
  8
0
100
AcDbLine
 10
28.972845652264212
 20
105.9
 30
509.0
 11
66.13026670338284
 21
105.9
 31
509.0
  0
SPLINE
  5
41
330
17
100
AcDbEntity
  8
0
100
AcDbSpline
 70
0
 71
1
 72
4
 73
2
 74
0
 40
0.0
 40
0.0
 40
1.0
 40
1.0
 10
28.97284560120904
 20
105.90000060000206
 30
509.0
 10
28.97284560120904
 20
102.09999939999993
 30
509.0
  0
LINE
  5
42
330
17
100
AcDbEntity
  8
0
100
AcDbLine
 10
28.972845652264212
 20
102.1
 30
509.0
 11
66.40880897796947
 21
102.1
 31
509.0
  0
SPLINE
  5
43
330
17
100
AcDbEntity
  8
0
100
AcDbSpline
 70
0
 71
8
 72
18
 73
9
 74
0
 40
0.0
 40
0.0
 40
0.0
 40
0.0
 40
0.0
 40
0.0
 40
0.0
 40
0.0
 40
0.0
 40
1.0
 40
1.0
 40
1.0
 40
1.0
 40
1.0
 40
1.0
 40
1.0
 40
1.0
 40
1.0
 10
67.79286457342114
 20
79.89999999930225
 30
509.0
 10
67.64472297199693
 20
82.67647902300266
 30
508.99999999999994
 10
67.4897020133564
 20
85.45259050386065
 30
508.99999999999994
 10
67.32769335815475
 20
88.22830850452601
 30
508.99999999999994
 10
67.15858546482971
 20
91.00360583048244
 30
508.99999999999994
 10
66.98226342497955
 20
93.77845402157568
 30
508.99999999999994
 10
66.79860878413962
 20
96.55282334275755
 30
508.99999999999994
 10
66.60749934795781
 20
99.32668277404565
 30
508.99999999999994
 10
66.40880897376888
 20
102.09999999969901
 30
508.99999999999994
  0
LINE
  5
44
330
17
100
AcDbEntity
  8
0
100
AcDbLine
 10
28.972845652264212
 20
79.9
 30
509.0
 11
67.79286458649864
 21
79.9
 31
509.0
  0
SPLINE
  5
45
330
17
100
AcDbEntity
  8
0
100
AcDbSpline
 70
0
 71
1
 72
4
 73
2
 74
0
 40
0.0
 40
0.0
 40
1.0
 40
1.0
 10
28.97284560120904
 20
79.90000060000001
 30
509.0
 10
28.97284560120904
 20
76.09999939999999
 30
509.0
  0
LINE
  5
46
330
17
100
AcDbEntity
  8
0
100
AcDbLine
 10
28.972845652264212
 20
76.1
 30
509.0
 11
67.98999472072775
 21
76.1
 31
509.0
  0
SPLINE
  5
47
330
17
100
AcDbEntity
  8
0
100
AcDbSpline
 70
0
 71
8
 72
18
 73
9
 74
0
 40
0.0
 40
0.0
 40
0.0
 40
0.0
 40
0.0
 40
0.0
 40
0.0
 40
0.0
 40
0.0
 40
1.0
 40
1.0
 40
1.0
 40
1.0
 40
1.0
 40
1.0
 40
1.0
 40
1.0
 40
1.0
 10
68.92511369722158
 20
53.8999999996876
 30
509.0
 10
68.83046952492265
 20
56.67587812854863
 30
509.0
 10
68.72965870244464
 20
59.451545676845114
 30
509.0
 10
68.62258989395151
 20
62.226984017455976
 30
509.0
 10
68.50916922266578
 20
65.00217330446532
 30
509.0
 10
68.3893001580945
 20
67.77709246747328
 30
509.0
 10
68.2628833887465
 20
70.55171920512753
 30
509.0
 10
68.12981668034053
 20
73.32602997787566
 30
509.0
 10
67.98999471950465
 20
76.0999999999383
 30
509.0
  0
LINE
  5
48
330
17
100
AcDbEntity
  8
0
100
AcDbLine
 10
28.972845652264212
 20
53.9
 30
509.0
 11
68.92511370638441
 21
53.9
 31
509.0
  0
SPLINE
  5
49
330
17
100
AcDbEntity
  8
0
100
AcDbSpline
 70
0
 71
1
 72
4
 73
2
 74
0
 40
0.0
 40
0.0
 40
1.0
 40
1.0
 10
28.97284560120904
 20
53.90000060000026
 30
509.0
 10
28.97284560120904
 20
50.09999939999937
 30
509.0
  0
LINE
  5
4A
330
17
100
AcDbEntity
  8
0
100
AcDbLine
 10
28.972845652264212
 20
50.1
 30
509.0
 11
69.04963990361966
 21
50.1
 31
509.0
  0
SPLINE
  5
4B
330
17
100
AcDbEntity
  8
0
100
AcDbSpline
 70
0
 71
8
 72
25
 73
16
 74
0
 40
0.0
 40
0.0
 40
0.0
 40
0.0
 40
0.0
 40
0.0
 40
0.0
 40
0.0
 40
0.0
 40
0.6592893875870516
 40
0.6592893875870516
 40
0.6592893875870516
 40
0.6592893875870516
 40
0.6592893875870516
 40
0.6592893875870516
 40
0.6592893875870516
 40
1.0
 40
1.0
 40
1.0
 40
1.0
 40
1.0
 40
1.0
 40
1.0
 40
1.0
 40
1.0
 10
69.58268103874882
 20
27.900000000035227
 30
509.0
 10
69.55197033956543
 20
29.729814809647046
 30
509.0
 10
69.51883975720078
 20
31.559588938640758
 30
509.0
 10
69.4832669946718
 20
33.389318269361226
 30
509.0
 10
69.4452293713689
 20
35.21899856205256
 30
509.0
 10
69.4047038097655
 20
37.048625454770175
 30
509.0
 10
69.36166681972882
 20
38.878194463343235
 30
509.0
 10
69.31609448043218
 20
40.707700981387376
 30
509.0
 10
69.24308851147558
 20
43.48256636436582
 30
509.0
 10
69.21753100051126
 20
44.427974109262436
 30
509.0
 10
69.19128652679885
 20
45.373362902207504
 30
509.0
 10
69.16435169879979
 20
46.3187321141067
 30
509.0
 10
69.13672309319942
 20
47.2640810996009
 30
509.0
 10
69.1083972544701
 20
48.209409197044366
 30
509.0
 10
69.07937069441175
 20
49.154715728481804
 30
509.0
 10
69.04963989166964
 20
50.099999999624124
 30
509.0
  0
LINE
  5
4C
330
17
100
AcDbEntity
  8
0
100
AcDbLine
 10
28.972845652264212
 20
27.9
 30
509.0
 11
69.58268103664926
 21
27.9
 31
509.0
  0
SPLINE
  5
4D
330
17
100
AcDbEntity
  8
0
100
AcDbSpline
 70
0
 71
1
 72
4
 73
2
 74
0
 40
0.0
 40
0.0
 40
1.0
 40
1.0
 10
28.97284560120904
 20
27.900000600000002
 30
509.0
 10
28.97284560120904
 20
24.099999399999998
 30
509.0
  0
LINE
  5
4E
330
17
100
AcDbEntity
  8
0
100
AcDbLine
 10
28.972845652264212
 20
24.1
 30
509.0
 11
69.6419130559469
 21
24.1
 31
509.0
  0
SPLINE
  5
4F
330
17
100
AcDbEntity
  8
0
100
AcDbSpline
 70
0
 71
8
 72
18
 73
9
 74
0
 40
0.0
 40
0.0
 40
0.0
 40
0.0
 40
0.0
 40
0.0
 40
0.0
 40
0.0
 40
0.0
 40
1.0
 40
1.0
 40
1.0
 40
1.0
 40
1.0
 40
1.0
 40
1.0
 40
1.0
 40
1.0
 10
69.81204004647921
 20
1.900000000083758
 30
509.0
 10
69.80895791010298
 20
4.675100396255214
 30
509.0
 10
69.80081860515669
 20
7.450194899148445
 30
509.0
 10
69.78755527059347
 20
10.225272912229933
 30
509.0
 10
69.76909927617731
 20
13.000323201708827
 30
509.0
 10
69.74538021838688
 20
15.77533389368203
 30
509.0
 10
69.71632588715681
 20
18.5502924718912
 30
509.0
 10
69.68186220345652
 20
21.32518577609165
 30
509.0
 10
69.64191312770656
 20
24.100000001033163
 30
509.0
  0
LINE
  5
50
330
17
100
AcDbEntity
  8
0
100
AcDbLine
 10
28.972845652264212
 20
1.9
 30
509.0
 11
69.81203997105845
 21
1.9
 31
509.0
  0
SPLINE
  5
51
330
17
100
AcDbEntity
  8
0
100
AcDbSpline
 70
0
 71
1
 72
4
 73
2
 74
0
 40
0.0
 40
0.0
 40
0.9999993684216398
 40
0.9999993684216398
 10
28.97284560120904
 20
1.9000006000000558
 30
509.0
 10
28.97284560120904
 20
-6.553790374438061e-17
 30
509.0
  0
SPLINE
  5
52
330
17
100
AcDbEntity
  8
0
100
AcDbSpline
 70
0
 71
1
 72
4
 73
2
 74
0
 40
0.0
 40
0.0
 40
1.0
 40
1.0
 10
28.97284560120904
 20
-1.9000006000000011
 30
509.0
 10
28.97284560120904
 20
1.2000000211287443e-06
 30
509.0
  0
LINE
  5
53
330
17
100
AcDbEntity
  8
0
100
AcDbLine
 10
28.972845652264173
 20
-1.9
 30
509.0
 11
69.81212605149827
 21
-1.9
 31
509.0
  0
SPLINE
  5
54
330
17
100
AcDbEntity
  8
0
100
AcDbSpline
 70
0
 71
8
 72
18
 73
9
 74
0
 40
0.0
 40
0.0
 40
0.0
 40
0.0
 40
0.0
 40
0.0
 40
0.0
 40
0.0
 40
0.0
 40
1.0
 40
1.0
 40
1.0
 40
1.0
 40
1.0
 40
1.0
 40
1.0
 40
1.0
 40
1.0
 10
69.64296015338012
 20
-24.099999999974195
 30
509.0
 10
69.68279896675827
 20
-21.325191602276583
 30
509.0
 10
69.71714832333917
 20
-18.550304812326623
 30
509.0
 10
69.74608490325843
 20
-15.77535266379282
 30
509.0
 10
69.76968340696094
 20
-13.00034722026225
 30
509.0
 10
69.78801664172353
 20
-10.225299578636086
 30
509.0
 10
69.80115560209066
 20
-7.4502198723166915
 30
509.0
 10
69.80916954608088
 20
-4.675117274266503
 30
509.0
 10
69.8121260690232
 20
-1.9000000000186434
 30
509.0
  0
LINE
  5
55
330
17
100
AcDbEntity
  8
0
100
AcDbLine
 10
28.972845652264173
 20
-24.1
 30
509.0
 11
69.64296015517684
 21
-24.1
 31
509.0
  0
SPLINE
  5
56
330
17
100
AcDbEntity
  8
0
100
AcDbSpline
 70
0
 71
1
 72
4
 73
2
 74
0
 40
0.0
 40
0.0
 40
1.0
 40
1.0
 10
28.97284560120904
 20
-27.900000600000034
 30
509.0
 10
28.97284560120904
 20
-24.099999399999938
 30
509.0
  0
LINE
  5
57
330
17
100
AcDbEntity
  8
0
100
AcDbLine
 10
28.972845652264173
 20
-27.9
 30
509.0
 11
69.58387543036329
 21
-27.9
 31
509.0
  0
SPLINE
  5
58
330
17
100
AcDbEntity
  8
0
100
AcDbSpline
 70
0
 71
8
 72
18
 73
9
 74
0
 40
0.0
 40
0.0
 40
0.0
 40
0.0
 40
0.0
 40
0.0
 40
0.0
 40
0.0
 40
0.0
 40
1.0
 40
1.0
 40
1.0
 40
1.0
 40
1.0
 40
1.0
 40
1.0
 40
1.0
 40
1.0
 10
69.05150571811569
 20
-50.10000000052606
 30
509.0
 10
69.13870862988291
 20
-47.325542807726066
 30
509.0
 10
69.21983623421283
 20
-44.55089542967562
 30
509.0
 10
69.29497817941548
 20
-41.77607664739278
 30
509.0
 10
69.36422166406396
 20
-39.001104252644204
 30
509.0
 10
69.42765155271091
 20
-36.22599505240814
 30
509.0
 10
69.48535048114739
 20
-33.45076487294091
 30
509.0
 10
69.53739895306602
 20
-30.67542856352712
 30
509.0
 10
69.58387542999012
 20
-27.89999999999373
 30
509.0
  0
LINE
  5
59
330
17
100
AcDbEntity
  8
0
100
AcDbLine
 10
28.972845652264173
 20
-50.1
 30
509.0
 11
69.0515057013778
 21
-50.1
 31
509.0
  0
SPLINE
  5
5A
330
17
100
AcDbEntity
  8
0
100
AcDbSpline
 70
0
 71
1
 72
4
 73
2
 74
0
 40
0.0
 40
0.0
 40
1.0
 40
1.0
 10
28.97284560120904
 20
-53.9000006
 30
509.0
 10
28.97284560120904
 20
-50.0999994
 30
509.0
  0
LINE
  5
5B
330
17
100
AcDbEntity
  8
0
100
AcDbLine
 10
28.972845652264173
 20
-53.9
 30
509.0
 11
68.9270524352844
 21
-53.9
 31
509.0
  0
SPLINE
  5
5C
330
17
100
AcDbEntity
  8
0
100
AcDbSpline
 70
0
 71
8
 72
18
 73
9
 74
0
 40
0.0
 40
0.0
 40
0.0
 40
0.0
 40
0.0
 40
0.0
 40
0.0
 40
0.0
 40
0.0
 40
1.0
 40
1.0
 40
1.0
 40
1.0
 40
1.0
 40
1.0
 40
1.0
 40
1.0
 40
1.0
 10
67.99202251697761
 20
-76.09999999860773
 30
509.0
 10
68.13187432550265
 20
-73.32603713484829
 30
509.0
 10
68.26495790473982
 20
-70.55173109583714
 30
509.0
 10
68.39137922142743
 20
-67.77710657148076
 30
509.0
 10
68.51124114461167
 20
-65.00218723529667
 30
509.0
 10
68.62464360627624
 20
-62.22699575061924
 30
509.0
 10
68.73168374709753
 20
-59.4515537762189
 30
509.0
 10
68.83245604919547
 20
-56.6758819714154
 30
509.0
 10
68.92705245774903
 20
-53.90000000076554
 30
509.0
  0
LINE
  5
5D
330
17
100
AcDbEntity
  8
0
100
AcDbLine
 10
28.972845652264173
 20
-76.1
 30
509.0
 11
67.99202254459323
 21
-76.1
 31
509.0
  0
SPLINE
  5
5E
330
17
100
AcDbEntity
  8
0
100
AcDbSpline
 70
0
 71
1
 72
4
 73
2
 74
0
 40
0.0
 40
0.0
 40
1.0
 40
1.0
 10
28.97284560120904
 20
-79.90000060000018
 30
509.0
 10
28.97284560120904
 20
-76.09999939999999
 30
509.0
  0
LINE
  5
5F
330
17
100
AcDbEntity
  8
0
100
AcDbLine
 10
28.972845652264173
 20
-79.9
 30
509.0
 11
67.7948400283401
 21
-79.9
 31
509.0
  0
SPLINE
  5
60
330
17
100
AcDbEntity
  8
0
100
AcDbSpline
 70
0
 71
8
 72
18
 73
9
 74
0
 40
0.0
 40
0.0
 40
0.0
 40
0.0
 40
0.0
 40
0.0
 40
0.0
 40
0.0
 40
0.0
 40
1.0
 40
1.0
 40
1.0
 40
1.0
 40
1.0
 40
1.0
 40
1.0
 40
1.0
 40
1.0
 10
66.40998678888597
 20
-102.10000000252204
 30
509.0
 10
66.60883517971723
 20
-99.32668033178166
 30
509.0
 10
66.80008438440339
 20
-96.55282150638294
 30
509.0
 10
66.98386139571521
 20
-93.77845436743686
 30
509.0
 10
67.16028920383633
 20
-91.00360870073656
 30
509.0
 10
67.32948701818741
 20
-88.22831324540378
 30
509.0
 10
67.49157046986927
 20
-85.45259570175502
 30
509.0
 10
67.64665179660891
 20
-82.67648273846844
 30
509.0
 10
67.79484001209165
 20
-79.8999999991328
 30
509.0
  0
LINE
  5
61
330
17
100
AcDbEntity
  8
0
100
AcDbLine
 10
28.972845652264173
 20
-102.1
 30
509.0
 11
66.40998675371166
 21
-102.1
 31
509.0
  0
SPLINE
  5
62
330
17
100
AcDbEntity
  8
0
100
AcDbSpline
 70
0
 71
1
 72
4
 73
2
 74
0
 40
0.0
 40
0.0
 40
1.0
 40
1.0
 10
28.97284560120904
 20
-105.90000060000003
 30
509.0
 10
28.97284560120904
 20
-102.09999939999999
 30
509.0
  0
LINE
  5
63
330
17
100
AcDbEntity
  8
0
100
AcDbLine
 10
28.972845652264173
 20
-105.9
 30
509.0
 11
66.13121319585248
 21
-105.9
 31
509.0
  0
SPLINE
  5
64
330
17
100
AcDbEntity
  8
0
100
AcDbSpline
 70
0
 71
8
 72
32
 73
23
 74
0
 40
0.0
 40
0.0
 40
0.0
 40
0.0
 40
0.0
 40
0.0
 40
0.0
 40
0.0
 40
0.0
 40
0.3087661645184765
 40
0.3087661645184765
 40
0.3087661645184765
 40
0.3087661645184765
 40
0.3087661645184765
 40
0.3087661645184765
 40
0.3087661645184765
 40
0.9550819286513367
 40
0.9550819286513367
 40
0.9550819286513367
 40
0.9550819286513367
 40
0.9550819286513367
 40
0.9550819286513367
 40
0.9550819286513367
 40
1.0
 40
1.0
 40
1.0
 40
1.0
 40
1.0
 40
1.0
 40
1.0
 40
1.0
 40
1.0
 10
64.23888906466507
 20
-128.10000000223621
 30
509.0
 10
64.3209899368824
 20
-127.24398474040423
 30
509.0
 10
64.40224967699422
 20
-126.38788857060396
 30
509.0
 10
64.48267624505681
 20
-125.5317130820286
 30
509.0
 10
64.56227717355975
 20
-124.67545975111176
 30
509.0
 10
64.64105958839006
 20
-123.819129943974
 30
509.0
 10
64.71903022836418
 20
-122.96272491872693
 30
509.0
 10
64.7961954644887
 20
-122.10624582777075
 30
509.0
 10
65.03241191905035
 20
-119.4567410151411
 30
509.0
 10
65.18875972343955
 20
-117.66347578592755
 30
509.0
 10
65.34165657508493
 20
-115.86991058927656
 30
509.0
 10
65.49115743819986
 20
-114.07605803235361
 30
509.0
 10
65.6372971766924
 20
-112.28192863228611
 30
509.0
 10
65.78010605978136
 20
-110.48753210053945
 30
509.0
 10
65.91962618700317
 20
-108.69287879505463
 30
509.0
 10
66.06536124549622
 20
-106.77323491146744
 30
509.0
 10
66.07481574402809
 20
-106.64849056591001
 30
509.0
 10
66.08425453123729
 20
-106.52374504926784
 30
509.0
 10
66.0936776190777
 20
-106.3989983644501
 30
509.0
 10
66.10308501948599
 20
-106.27425051436157
 30
509.0
 10
66.11247674438175
 20
-106.14950150190268
 30
509.0
 10
66.12185280566749
 20
-106.02475132996952
 30
509.0
 10
66.13121321522863
 20
-105.90000000145383
 30
509.0
  0
LINE
  5
65
330
17
100
AcDbEntity
  8
0
100
AcDbLine
 10
28.972845652264173
 20
-128.1
 30
509.0
 11
64.23888904134978
 21
-128.1
 31
509.0
  0
SPLINE
  5
66
330
17
100
AcDbEntity
  8
0
100
AcDbSpline
 70
0
 71
1
 72
4
 73
2
 74
0
 40
0.0
 40
0.0
 40
1.0
 40
1.0
 10
28.97284560120904
 20
-131.9000006
 30
509.0
 10
28.97284560120904
 20
-128.09999939999992
 30
509.0
  0
LINE
  5
67
330
17
100
AcDbEntity
  8
0
100
AcDbLine
 10
28.972845652264173
 20
-131.9
 30
509.0
 11
63.86702699851976
 21
-131.9
 31
509.0
  0
SPLINE
  5
68
330
17
100
AcDbEntity
  8
0
100
AcDbSpline
 70
0
 71
8
 72
18
 73
9
 74
0
 40
0.0
 40
0.0
 40
0.0
 40
0.0
 40
0.0
 40
0.0
 40
0.0
 40
0.0
 40
0.0
 40
1.0
 40
1.0
 40
1.0
 40
1.0
 40
1.0
 40
1.0
 40
1.0
 40
1.0
 40
1.0
 10
61.36898953020084
 20
-154.10000000795702
 30
509.0
 10
61.71948561150185
 20
-151.32950054316183
 30
509.0
 10
62.05786945809321
 20
-148.55746767541802
 30
509.0
 10
62.38486438528182
 20
-145.7840489120673
 30
509.0
 10
62.70106848578018
 20
-143.00937038062432
 30
509.0
 10
63.0069862884244
 20
-140.23354042996502
 30
509.0
 10
63.303048382055536
 20
-137.45665185140803
 30
509.0
 10
63.58962342645263
 20
-134.67878323763196
 30
509.0
 10
63.86702697220612
 20
-131.89999999737307
 30
509.0
  0
LINE
  5
69
330
17
100
AcDbEntity
  8
0
100
AcDbLine
 10
28.972845652264173
 20
-154.1
 30
509.0
 11
61.36898946730432
 21
-154.1
 31
509.0
  0
SPLINE
  5
6A
330
17
100
AcDbEntity
  8
0
100
AcDbSpline
 70
0
 71
1
 72
4
 73
2
 74
0
 40
0.0
 40
0.0
 40
1.0
 40
1.0
 10
28.97284560120904
 20
-157.90000060000003
 30
509.0
 10
28.97284560120904
 20
-154.0999994
 30
509.0
  0
LINE
  5
6B
330
17
100
AcDbEntity
  8
0
100
AcDbLine
 10
28.972845652264173
 20
-157.9
 30
509.0
 11
60.8778979411863
 21
-157.9
 31
509.0
  0
SPLINE
  5
6C
330
17
100
AcDbEntity
  8
0
100
AcDbSpline
 70
0
 71
8
 72
32
 73
23
 74
0
 40
0.0
 40
0.0
 40
0.0
 40
0.0
 40
0.0
 40
0.0
 40
0.0
 40
0.0
 40
0.0
 40
0.08549892294253505
 40
0.08549892294253505
 40
0.08549892294253505
 40
0.08549892294253505
 40
0.08549892294253505
 40
0.08549892294253505
 40
0.08549892294253505
 40
0.9869493575961525
 40
0.9869493575961525
 40
0.9869493575961525
 40
0.9869493575961525
 40
0.9869493575961525
 40
0.9869493575961525
 40
0.9869493575961525
 40
1.0
 40
1.0
 40
1.0
 40
1.0
 40
1.0
 40
1.0
 40
1.0
 40
1.0
 40
1.0
 10
57.511968120025834
 20
-180.10000000086634
 30
509.0
 10
57.55335289175999
 20
-179.86361124535443
 30
509.0
 10
57.59457853284395
 20
-179.6271943156914
 30
509.0
 10
57.635646554289
 20
-179.39074955006748
 30
509.0
 10
57.67655843641912
 20
-179.15427727103585
 30
509.0
 10
57.717315630219204
 20
-178.9177777857911
 30
509.0
 10
57.75791955868275
 20
-178.68125138644854
 30
509.0
 10
57.798371618186096
 20
-178.44469835033067
 30
509.0
 10
58.263589179895675
 20
-175.7137645707211
 30
509.0
 10
58.67175994237762
 20
-173.2165648439697
 30
509.0
 10
59.064776147974484
 20
-170.71690224148003
 30
509.0
 10
59.4438839797104
 20
-168.21508316077302
 30
509.0
 10
59.81010707249468
 20
-165.71135658635217
 30
509.0
 10
60.164308205314356
 20
-163.20592348495302
 30
509.0
 10
60.50722058667592
 20
-160.69894156812938
 30
509.0
 10
60.844288809812326
 20
-158.15421483335768
 30
509.0
 10
60.8490968019706
 20
-158.11789930757703
 30
509.0
 10
60.853902562220064
 20
-158.0815834882359
 30
509.0
 10
60.858706092475984
 20
-158.04526737571408
 30
509.0
 10
60.86350739464916
 20
-158.0089509703906
 30
509.0
 10
60.86830647064597
 20
-157.97263427264377
 30
509.0
 10
60.87310332236834
 20
-157.93631728285123
 30
509.0
 10
60.877897951713784
 20
-157.90000000138986
 30
509.0
  0
LINE
  5
6D
330
17
100
AcDbEntity
  8
0
100
AcDbLine
 10
28.972845652264173
 20
-180.1
 30
509.0
 11
57.51196811507731
 21
-180.1
 31
509.0
  0
SPLINE
  5
6E
330
17
100
AcDbEntity
  8
0
100
AcDbSpline
 70
0
 71
1
 72
4
 73
2
 74
0
 40
0.0
 40
0.0
 40
1.0
 40
1.0
 10
28.97284560120904
 20
-183.9000006000001
 30
509.0
 10
28.97284560120904
 20
-180.09999939999994
 30
509.0
  0
LINE
  5
6F
330
17
100
AcDbEntity
  8
0
100
AcDbLine
 10
28.972845652264173
 20
-183.9
 30
509.0
 11
56.82736174761723
 21
-183.9
 31
509.0
  0
SPLINE
  5
70
330
17
100
AcDbEntity
  8
0
100
AcDbSpline
 70
0
 71
8
 72
25
 73
16
 74
0
 40
0.0
 40
0.0
 40
0.0
 40
0.0
 40
0.0
 40
0.0
 40
0.0
 40
0.0
 40
0.0
 40
0.48108318223052393
 40
0.48108318223052393
 40
0.48108318223052393
 40
0.48108318223052393
 40
0.48108318223052393
 40
0.48108318223052393
 40
0.48108318223052393
 40
1.0
 40
1.0
 40
1.0
 40
1.0
 40
1.0
 40
1.0
 40
1.0
 40
1.0
 40
1.0
 10
51.68813331608412
 20
-206.10000008047479
 30
509.0
 10
52.08240969389749
 20
-204.78702666906406
 30
509.0
 10
52.45909257060935
 20
-203.46879377776997
 30
509.0
 10
52.82055401505671
 20
-202.14623776031812
 30
509.0
 10
53.168509500614114
 20
-200.82005513120475
 30
509.0
 10
53.50431910209574
 20
-199.49078368513705
 30
509.0
 10
53.82910877276978
 20
-198.15883471497145
 30
509.0
 10
54.14381316399229
 20
-196.82450430243983
 30
509.0
 10
54.77868941254703
 20
-194.04637217092662
 30
508.99999999999994
 10
55.09732534057408
 20
-192.60229846222614
 30
509.0
 10
55.40615076084015
 20
-191.1560708528674
 30
509.0
 10
55.70597281198145
 20
-189.70793680367257
 30
509.0
 10
55.99746510515392
 20
-188.2581032288482
 30
509.0
 10
56.281204055116575
 20
-186.8067438042257
 30
509.0
 10
56.557689913811394
 20
-185.35400317856443
 30
509.0
 10
56.82736173852626
 20
-183.89999999831403
 30
509.0
  0
LINE
  5
71
330
17
100
AcDbEntity
  8
0
100
AcDbLine
 10
28.972845652264173
 20
-206.1
 30
509.0
 11
51.688133048096105
 21
-206.1
 31
509.0
  0
SPLINE
  5
72
330
17
100
AcDbEntity
  8
0
100
AcDbSpline
 70
0
 71
1
 72
4
 73
2
 74
0
 40
0.0
 40
0.0
 40
1.0
 40
1.0
 10
28.97284560120904
 20
-209.90000060000008
 30
509.0
 10
28.97284560120904
 20
-206.09999939999992
 30
509.0
  0
LINE
  5
73
330
17
100
AcDbEntity
  8
0
100
AcDbLine
 10
28.972845652264173
 20
-209.9
 30
509.0
 11
50.46827116376108
 21
-209.9
 31
509.0
  0
SPLINE
  5
74
330
17
100
AcDbEntity
  8
0
100
AcDbSpline
 70
0
 71
8
 72
88
 73
79
 74
0
 40
0.0
 40
0.0
 40
0.0
 40
0.0
 40
0.0
 40
0.0
 40
0.0
 40
0.0
 40
0.0
 40
0.019346516187704662
 40
0.019346516187704662
 40
0.019346516187704662
 40
0.019346516187704662
 40
0.019346516187704662
 40
0.019346516187704662
 40
0.019346516187704662
 40
0.036240895997661046
 40
0.036240895997661046
 40
0.036240895997661046
 40
0.036240895997661046
 40
0.036240895997661046
 40
0.036240895997661046
 40
0.036240895997661046
 40
0.04319429236958465
 40
0.04319429236958465
 40
0.04319429236958465
 40
0.04319429236958465
 40
0.04319429236958465
 40
0.04319429236958465
 40
0.04319429236958465
 40
0.04654572522759257
 40
0.04654572522759257
 40
0.04654572522759257
 40
0.04654572522759257
 40
0.04654572522759257
 40
0.04654572522759257
 40
0.04654572522759257
 40
0.04989717350349108
 40
0.04989717350349108
 40
0.04989717350349108
 40
0.04989717350349108
 40
0.04989717350349108
 40
0.04989717350349108
 40
0.04989717350349108
 40
0.055533020566733995
 40
0.055533020566733995
 40
0.055533020566733995
 40
0.055533020566733995
 40
0.055533020566733995
 40
0.055533020566733995
 40
0.055533020566733995
 40
0.06587967109980516
 40
0.06587967109980516
 40
0.06587967109980516
 40
0.06587967109980516
 40
0.06587967109980516
 40
0.06587967109980516
 40
0.06587967109980516
 40
0.07569582505791542
 40
0.07569582505791542
 40
0.07569582505791542
 40
0.07569582505791542
 40
0.07569582505791542
 40
0.07569582505791542
 40
0.07569582505791542
 40
0.08817800108217577
 40
0.08817800108217577
 40
0.08817800108217577
 40
0.08817800108217577
 40
0.08817800108217577
 40
0.08817800108217577
 40
0.08817800108217577
 40
0.10402615442575695
 40
0.10402615442575695
 40
0.10402615442575695
 40
0.10402615442575695
 40
0.10402615442575695
 40
0.10402615442575695
 40
0.10402615442575695
 40
0.10959343418421846
 40
0.10959343418421846
 40
0.10959343418421846
 40
0.10959343418421846
 40
0.10959343418421846
 40
0.10959343418421846
 40
0.10959343418421846
 40
0.10959343418421846
 40
0.10959343418421846
 10
14.12187748475856
 20
-209.27750629126237
 30
509.0
 10
14.640424779307786
 20
-210.4403996903139
 30
509.0
 10
15.182425642106047
 20
-211.59261627126563
 30
509.0
 10
15.749058564008688
 20
-212.7332133627877
 30
509.0
 10
16.341649570011448
 20
-213.86085872992106
 30
509.0
 10
16.961721415913036
 20
-214.9738012593958
 30
509.0
 10
17.611033935015797
 20
-216.0698478719458
 30
509.0
 10
18.291699151659955
 20
-217.14629835622733
 30
509.0
 10
19.630616405837877
 20
-219.1197531200891
 30
509.0
 10
20.280412239809543
 20
-220.02167525460638
 30
509.0
 10
20.957870577696774
 20
-220.90372481703434
 30
509.0
 10
21.665027699352002
 20
-221.76306429657734
 30
509.0
 10
22.403957255138344
 20
-222.59581746926443
 30
509.0
 10
23.176785155812063
 20
-223.39705519620912
 30
509.0
 10
23.9857809170915
 20
-224.16071204673244
 30
509.0
 10
25.18256892254544
 20
-225.17512191585018
 30
509.0
 10
25.538017306016716
 20
-225.46320001604101
 30
509.0
 10
25.900108273356125
 20
-225.7430385295637
 30
509.0
 10
26.268957657090244
 20
-226.0140287575421
 30
509.0
 10
26.644647337880613
 20
-226.27549953925907
 30
509.0
 10
27.027220580980654
 20
-226.5267238789177
 30
509.0
 10
27.41667578236845
 20
-226.76692789824918
 30
509.0
 10
28.003961016384128
 20
-227.1053750653527
 30
509.0
 10
28.195623501264443
 20
-227.2121661875069
 30
509.0
 10
28.38793990589255
 20
-227.31564696354167
 30
509.0
 10
28.58090405695718
 20
-227.4157888755695
 30
509.0
 10
28.774509781139653
 20
-227.51256340570623
 30
509.0
 10
28.96875090511392
 20
-227.60594203607124
 30
509.0
 10
29.163621255546506
 20
-227.69589624878705
 30
509.0
 10
29.554608961991953
 20
-227.86889920111153
 30
509.0
 10
29.750725519647943
 20
-227.9519443133759
 30
509.0
 10
29.947456613459302
 20
-228.03151628152972
 30
509.0
 10
30.144800139437372
 20
-228.10757429115475
 30
509.0
 10
30.342751041859977
 20
-228.18008619379052
 30
509.0
 10
30.541299459657832
 20
-228.24903574742027
 30
509.0
 10
30.74043558553765
 20
-228.31440419830872
 30
509.0
 10
31.276022972330324
 20
-228.47991888036196
 30
509.0
 10
31.614953650359688
 20
-228.57380189314875
 30
509.0
 10
31.956783478198197
 20
-228.6571040508572
 30
509.0
 10
32.30126612209675
 20
-228.72913221200068
 30
509.0
 10
32.648075011684405
 20
-228.78919152943755
 30
509.0
 10
32.99679820498351
 20
-228.83661379822306
 30
509.0
 10
33.34693181504451
 20
-228.8707939071744
 30
509.0
 10
34.342150558703636
 20
-228.92876035486316
 30
509.0
 10
34.990259854633145
 20
-228.92004334859584
 30
509.0
 10
35.63680524887076
 20
-228.86162916620222
 30
509.0
 10
36.27692804566529
 20
-228.7520267307955
 30
509.0
 10
36.90630333795042
 20
-228.59175577813988
 30
509.0
 10
37.521107481467176
 20
-228.383231125949
 30
509.0
 10
38.117966101980194
 20
-228.13054478794092
 30
509.0
 10
39.240291857030215
 20
-227.5628071379849
 30
509.0
 10
39.76861409885409
 20
-227.25123101779315
 30
509.0
 10
40.277747269557366
 20
-226.90824211786384
 30
509.0
 10
40.767434771715244
 20
-226.53781685297687
 30
509.0
 10
41.23795450846602
 20
-226.14371146286948
 30
509.0
 10
41.68994974690891
 20
-225.72923497930472
 30
509.0
 10
42.124343802269145
 20
-225.2971336842821
 30
509.0
 10
43.073702114550734
 20
-224.28027354648185
 30
509.0
 10
43.57818587159132
 20
-223.68627113881072
 30
509.0
 10
44.05814316299653
 20
-223.07178729639307
 30
509.0
 10
44.515640756753946
 20
-222.4403354654168
 30
509.0
 10
44.952539908232325
 20
-221.79475235333376
 30
509.0
 10
45.37056376160418
 20
-221.13724738256005
 30
509.0
 10
45.77132576072918
 20
-220.46942339411157
 30
509.0
 10
46.64522971455333
 20
-218.9325872383602
 30
509.0
 10
47.10844081218036
 20
-218.05842401189466
 30
509.0
 10
47.54894806455999
 20
-217.1723655403832
 30
509.0
 10
47.96903417574769
 20
-216.27640936426278
 30
509.0
 10
48.37059757801021
 20
-215.37213482643966
 30
509.0
 10
48.75527725559411
 20
-214.46076221288834
 30
509.0
 10
49.124503225612486
 20
-213.54317652883688
 30
509.0
 10
49.6042856212781
 20
-212.2956422065602
 30
509.0
 10
49.72869812244491
 20
-211.9669015804309
 30
509.0
 10
49.852790810595
 20
-211.6337089617361
 30
509.0
 10
49.9765583759977
 20
-211.29603675156523
 30
509.0
 10
50.09999550892332
 20
-210.95385735100518
 30
509.0
 10
50.22309689964326
 20
-210.60714316114002
 30
509.0
 10
50.34585723842997
 20
-210.2558665830511
 30
509.0
 10
50.468271215556896
 20
-209.90000001781706
 30
509.0
  0
SPLINE
  5
75
330
17
100
AcDbEntity
  8
0
100
AcDbSpline
 70
0
 71
8
 72
389
 73
380
 74
0
 40
0.0
 40
0.0
 40
0.0
 40
0.0
 40
0.0
 40
0.0
 40
0.0
 40
0.0
 40
0.0
 40
0.002027991273067376
 40
0.002027991273067376
 40
0.002027991273067376
 40
0.002027991273067376
 40
0.002027991273067376
 40
0.002027991273067376
 40
0.002027991273067376
 40
0.004121821726922383
 40
0.004121821726922383
 40
0.004121821726922383
 40
0.004121821726922383
 40
0.004121821726922383
 40
0.004121821726922383
 40
0.004121821726922383
 40
0.006943010279843917
 40
0.006943010279843917
 40
0.006943010279843917
 40
0.006943010279843917
 40
0.006943010279843917
 40
0.006943010279843917
 40
0.006943010279843917
 40
0.009764198832747258
 40
0.009764198832747258
 40
0.009764198832747258
 40
0.009764198832747258
 40
0.009764198832747258
 40
0.009764198832747258
 40
0.009764198832747258
 40
0.014074111752835733
 40
0.014074111752835733
 40
0.014074111752835733
 40
0.014074111752835733
 40
0.014074111752835733
 40
0.014074111752835733
 40
0.014074111752835733
 40
0.021366780468804268
 40
0.021366780468804268
 40
0.021366780468804268
 40
0.021366780468804268
 40
0.021366780468804268
 40
0.021366780468804268
 40
0.021366780468804268
 40
0.036516244999997005
 40
0.036516244999997005
 40
0.036516244999997005
 40
0.036516244999997005
 40
0.036516244999997005
 40
0.036516244999997005
 40
0.036516244999997005
 40
0.0663724783871511
 40
0.0663724783871511
 40
0.0663724783871511
 40
0.0663724783871511
 40
0.0663724783871511
 40
0.0663724783871511
 40
0.0663724783871511
 40
0.08577327306704334
 40
0.08577327306704334
 40
0.08577327306704334
 40
0.08577327306704334
 40
0.08577327306704334
 40
0.08577327306704334
 40
0.08577327306704334
 40
0.10684553905836283
 40
0.10684553905836283
 40
0.10684553905836283
 40
0.10684553905836283
 40
0.10684553905836283
 40
0.10684553905836283
 40
0.10684553905836283
 40
0.18239229775667487
 40
0.18239229775667487
 40
0.18239229775667487
 40
0.18239229775667487
 40
0.18239229775667487
 40
0.18239229775667487
 40
0.18239229775667487
 40
0.26302052850351615
 40
0.26302052850351615
 40
0.26302052850351615
 40
0.26302052850351615
 40
0.26302052850351615
 40
0.26302052850351615
 40
0.26302052850351615
 40
0.34976751095873776
 40
0.34976751095873776
 40
0.34976751095873776
 40
0.34976751095873776
 40
0.34976751095873776
 40
0.34976751095873776
 40
0.34976751095873776
 40
0.43651096378701926
 40
0.43651096378701926
 40
0.43651096378701926
 40
0.43651096378701926
 40
0.43651096378701926
 40
0.43651096378701926
 40
0.43651096378701926
 40
0.5102242049935288
 40
0.5102242049935288
 40
0.5102242049935288
 40
0.5102242049935288
 40
0.5102242049935288
 40
0.5102242049935288
 40
0.5102242049935288
 40
0.5762130669624459
 40
0.5762130669624459
 40
0.5762130669624459
 40
0.5762130669624459
 40
0.5762130669624459
 40
0.5762130669624459
 40
0.5762130669624459
 40
0.6213528725188341
 40
0.6213528725188341
 40
0.6213528725188341
 40
0.6213528725188341
 40
0.6213528725188341
 40
0.6213528725188341
 40
0.6213528725188341
 40
0.636829324779205
 40
0.636829324779205
 40
0.636829324779205
 40
0.636829324779205
 40
0.636829324779205
 40
0.636829324779205
 40
0.636829324779205
 40
0.6503728146411693
 40
0.6503728146411693
 40
0.6503728146411693
 40
0.6503728146411693
 40
0.6503728146411693
 40
0.6503728146411693
 40
0.6503728146411693
 40
0.6660937914741227
 40
0.6660937914741227
 40
0.6660937914741227
 40
0.6660937914741227
 40
0.6660937914741227
 40
0.6660937914741227
 40
0.6660937914741227
 40
0.6741856854078192
 40
0.6741856854078192
 40
0.6741856854078192
 40
0.6741856854078192
 40
0.6741856854078192
 40
0.6741856854078192
 40
0.6741856854078192
 40
0.6786545812389788
 40
0.6786545812389788
 40
0.6786545812389788
 40
0.6786545812389788
 40
0.6786545812389788
 40
0.6786545812389788
 40
0.6786545812389788
 40
0.6824393032802802
 40
0.6824393032802802
 40
0.6824393032802802
 40
0.6824393032802802
 40
0.6824393032802802
 40
0.6824393032802802
 40
0.6824393032802802
 40
0.6850449643844401
 40
0.6850449643844401
 40
0.6850449643844401
 40
0.6850449643844401
 40
0.6850449643844401
 40
0.6850449643844401
 40
0.6850449643844401
 40
0.686975433665278
 40
0.686975433665278
 40
0.686975433665278
 40
0.686975433665278
 40
0.686975433665278
 40
0.686975433665278
 40
0.686975433665278
 40
0.6880651248581019
 40
0.6880651248581019
 40
0.6880651248581019
 40
0.6880651248581019
 40
0.6880651248581019
 40
0.6880651248581019
 40
0.6880651248581019
 40
0.6891015335779332
 40
0.6891015335779332
 40
0.6891015335779332
 40
0.6891015335779332
 40
0.6891015335779332
 40
0.6891015335779332
 40
0.6891015335779332
 40
0.6905995147787096
 40
0.6905995147787096
 40
0.6905995147787096
 40
0.6905995147787096
 40
0.6905995147787096
 40
0.6905995147787096
 40
0.6905995147787096
 40
0.6917766383413761
 40
0.6917766383413761
 40
0.6917766383413761
 40
0.6917766383413761
 40
0.6917766383413761
 40
0.6917766383413761
 40
0.6917766383413761
 40
0.6929537619040419
 40
0.6929537619040419
 40
0.6929537619040419
 40
0.6929537619040419
 40
0.6929537619040419
 40
0.6929537619040419
 40
0.6929537619040419
 40
0.6948035275025183
 40
0.6948035275025183
 40
0.6948035275025183
 40
0.6948035275025183
 40
0.6948035275025183
 40
0.6948035275025183
 40
0.6948035275025183
 40
0.6968214536099412
 40
0.6968214536099412
 40
0.6968214536099412
 40
0.6968214536099412
 40
0.6968214536099412
 40
0.6968214536099412
 40
0.6968214536099412
 40
0.7002633428902957
 40
0.7002633428902957
 40
0.7002633428902957
 40
0.7002633428902957
 40
0.7002633428902957
 40
0.7002633428902957
 40
0.7002633428902957
 40
0.7070583663440463
 40
0.7070583663440463
 40
0.7070583663440463
 40
0.7070583663440463
 40
0.7070583663440463
 40
0.7070583663440463
 40
0.7070583663440463
 40
0.7204498376692222
 40
0.7204498376692222
 40
0.7204498376692222
 40
0.7204498376692222
 40
0.7204498376692222
 40
0.7204498376692222
 40
0.7204498376692222
 40
0.7291517380768995
 40
0.7291517380768995
 40
0.7291517380768995
 40
0.7291517380768995
 40
0.7291517380768995
 40
0.7291517380768995
 40
0.7291517380768995
 40
0.73860342158346
 40
0.73860342158346
 40
0.73860342158346
 40
0.73860342158346
 40
0.73860342158346
 40
0.73860342158346
 40
0.73860342158346
 40
0.7724923136971863
 40
0.7724923136971863
 40
0.7724923136971863
 40
0.7724923136971863
 40
0.7724923136971863
 40
0.7724923136971863
 40
0.7724923136971863
 40
0.8086700752129761
 40
0.8086700752129761
 40
0.8086700752129761
 40
0.8086700752129761
 40
0.8086700752129761
 40
0.8086700752129761
 40
0.8086700752129761
 40
0.847607683242262
 40
0.847607683242262
 40
0.847607683242262
 40
0.847607683242262
 40
0.847607683242262
 40
0.847607683242262
 40
0.847607683242262
 40
0.8865620049153122
 40
0.8865620049153122
 40
0.8865620049153122
 40
0.8865620049153122
 40
0.8865620049153122
 40
0.8865620049153122
 40
0.8865620049153122
 40
0.9196766119016543
 40
0.9196766119016543
 40
0.9196766119016543
 40
0.9196766119016543
 40
0.9196766119016543
 40
0.9196766119016543
 40
0.9196766119016543
 40
0.9493282676654078
 40
0.9493282676654078
 40
0.9493282676654078
 40
0.9493282676654078
 40
0.9493282676654078
 40
0.9493282676654078
 40
0.9493282676654078
 40
0.9696144601242369
 40
0.9696144601242369
 40
0.9696144601242369
 40
0.9696144601242369
 40
0.9696144601242369
 40
0.9696144601242369
 40
0.9696144601242369
 40
0.9765699651085261
 40
0.9765699651085261
 40
0.9765699651085261
 40
0.9765699651085261
 40
0.9765699651085261
 40
0.9765699651085261
 40
0.9765699651085261
 40
0.9826567486757409
 40
0.9826567486757409
 40
0.9826567486757409
 40
0.9826567486757409
 40
0.9826567486757409
 40
0.9826567486757409
 40
0.9826567486757409
 40
0.9897221452801904
 40
0.9897221452801904
 40
0.9897221452801904
 40
0.9897221452801904
 40
0.9897221452801904
 40
0.9897221452801904
 40
0.9897221452801904
 40
0.9933588365449165
 40
0.9933588365449165
 40
0.9933588365449165
 40
0.9933588365449165
 40
0.9933588365449165
 40
0.9933588365449165
 40
0.9933588365449165
 40
0.9953672619812869
 40
0.9953672619812869
 40
0.9953672619812869
 40
0.9953672619812869
 40
0.9953672619812869
 40
0.9953672619812869
 40
0.9953672619812869
 40
0.997068191534256
 40
0.997068191534256
 40
0.997068191534256
 40
0.997068191534256
 40
0.997068191534256
 40
0.997068191534256
 40
0.997068191534256
 40
0.9982392121587573
 40
0.9982392121587573
 40
0.9982392121587573
 40
0.9982392121587573
 40
0.9982392121587573
 40
0.9982392121587573
 40
0.9982392121587573
 40
0.9991066771256035
 40
0.9991066771256035
 40
0.9991066771256035
 40
0.9991066771256035
 40
0.9991066771256035
 40
0.9991066771256035
 40
0.9991066771256035
 40
0.9994514554235513
 40
0.9994514554235513
 40
0.9994514554235513
 40
0.9994514554235513
 40
0.9994514554235513
 40
0.9994514554235513
 40
0.9994514554235513
 40
1.0
 40
1.0
 40
1.0
 40
1.0
 40
1.0
 40
1.0
 40
1.0
 40
1.0
 40
1.0
 10
14.121877484758567
 20
209.27750629126234
 30
509.0
 10
14.121736482744273
 20
209.27764824823015
 30
509.0
 10
14.122246709200052
 20
209.2768664530305
 30
509.0
 10
14.121364811159317
 20
209.27910113918568
 30
509.0
 10
14.122309927269832
 20
209.27546194007078
 30
509.0
 10
14.121591332769862
 20
209.27374079001862
 30
509.0
 10
14.121836759058258
 20
209.27072692936645
 30
509.0
 10
14.121786007625085
 20
209.27101968292374
 30
509.0
 10
14.12153945024079
 20
209.25353639366836
 30
509.0
 10
14.121370514270557
 20
209.2415572090104
 30
509.0
 10
14.121164463888599
 20
209.22694625574997
 30
509.0
 10
14.120936711176235
 20
209.21079639844282
 30
509.0
 10
14.12069497049185
 20
209.19365465964876
 30
509.0
 10
14.120445961624178
 20
209.1759975365718
 30
509.0
 10
14.120191475499077
 20
209.15795202337716
 30
509.0
 10
14.119578659754394
 20
209.114497494707
 30
509.0
 10
14.119178491189642
 20
209.08612169574852
 30
509.0
 10
14.118726018818153
 20
209.05403705397873
 30
509.0
 10
14.118217355194842
 20
209.01796791216194
 30
509.0
 10
14.117648612874605
 20
208.97763861306214
 30
509.0
 10
14.117015904412353
 20
208.9327734994434
 30
509.0
 10
14.116315342362991
 20
208.8830969140697
 30
509.0
 10
14.114770736199846
 20
208.77356948534037
 30
509.0
 10
14.113926692086059
 20
208.71371864198443
 30
509.0
 10
14.113007019494967
 20
208.6485050124015
 30
509.0
 10
14.112007830981483
 20
208.57765293935591
 30
509.0
 10
14.11092523910051
 20
208.50088676561174
 30
509.0
 10
14.109755356406948
 20
208.41793083393284
 30
509.0
 10
14.108494295455701
 20
208.32850948708304
 30
509.0
 10
14.105066422203427
 20
208.085440313665
 30
509.0
 10
14.1029913833024
 20
207.93830010357556
 30
509.0
 10
14.100914234947801
 20
207.79101031296491
 30
509.0
 10
14.098835601842781
 20
207.64361523924723
 30
509.0
 10
14.096755902403913
 20
207.49614455220882
 30
509.0
 10
14.094675403514488
 20
207.34861717646498
 30
509.0
 10
14.09259418647838
 20
207.20103887719196
 30
509.0
 10
14.086989423305658
 20
206.8036072770908
 30
509.0
 10
14.083464949174278
 20
206.5536881724964
 30
509.0
 10
14.079939309452657
 20
206.30368641637318
 30
509.0
 10
14.07641280478827
 20
206.05362332745838
 30
509.0
 10
14.072885642642635
 20
205.8035136168026
 30
509.0
 10
14.069357961696742
 20
205.5533671182538
 30
509.0
 10
14.065829828736813
 20
205.3031885675332
 30
509.0
 10
14.054971173787342
 20
204.53320552301832
 30
509.0
 10
14.047639473409184
 20
204.01331747012944
 30
509.0
 10
14.040306684405213
 20
203.49335222321375
 30
509.0
 10
14.032973105865592
 20
202.9733309906155
 30
509.0
 10
14.025638940754273
 20
202.4532681644444
 30
509.0
 10
14.018304321788612
 20
201.9331731556497
 30
509.0
 10
14.01096930400271
 20
201.41304986665352
 30
509.0
 10
13.989177426887672
 20
199.86779624502074
 30
509.0
 10
13.974719691219722
 20
198.8426037715366
 30
509.0
 10
13.960261097090381
 20
197.81735042487358
 30
509.0
 10
13.945801879625515
 20
196.79205287774172
 30
509.0
 10
13.93134219843541
 20
195.76672244803189
 30
509.0
 10
13.916882157992415
 20
194.7413665438245
 30
509.0
 10
13.902421802077546
 20
193.71598826963924
 30
509.0
 10
13.878564491334117
 20
192.0242755441093
 30
509.0
 10
13.869168082566736
 20
191.35795521307594
 30
509.0
 10
13.859769410485903
 20
190.6916277380224
 30
509.0
 10
13.850374296382737
 20
190.02529434433725
 30
509.0
 10
13.840984466185008
 20
189.3589557588497
 30
509.0
 10
13.831599844136772
 20
188.6926124353703
 30
509.0
 10
13.822223249049701
 20
188.02626496409198
 30
509.0
 10
13.8026800199143
 20
186.636152944187
 30
509.0
 10
13.792292114208117
 20
185.89653070796564
 30
509.0
 10
13.781697569728834
 20
185.14132283776704
 30
509.0
 10
13.770902487117661
 20
184.3708052477285
 30
509.0
 10
13.759912967015788
 20
183.5852538519872
 30
509.0
 10
13.74873511006443
 20
182.78494456468013
 30
509.0
 10
13.737375016904778
 20
181.97015329994395
 30
509.0
 10
13.684479938196386
 20
178.1690949165009
 30
509.0
 10
13.643397623532195
 20
175.19699248781032
 30
509.0
 10
13.60263615387697
 20
172.22485995241172
 30
509.0
 10
13.56222030953945
 20
169.2527034451991
 30
509.0
 10
13.522170779820534
 20
166.28052717527535
 30
509.0
 10
13.482507062557195
 20
163.3083340553625
 30
509.0
 10
13.443246305525832
 20
160.33612549349448
 30
509.0
 10
13.362954373370208
 20
154.1917591787493
 30
509.0
 10
13.321981712106068
 20
151.0196003944375
 30
509.0
 10
13.28151017594892
 20
147.8474273945593
 30
509.0
 10
13.24156148224555
 20
144.67524139739874
 30
509.0
 10
13.202158300208223
 20
141.50304331383435
 30
509.0
 10
13.163324947779103
 20
138.33083383687458
 30
509.0
 10
13.125087961494858
 20
135.15861348466797
 30
509.0
 10
13.04701084456256
 20
128.57341601433401
 30
509.0
 10
13.007269184176884
 20
125.16043734760453
 30
509.0
 10
12.968288242282375
 20
121.74744706483264
 30
509.0
 10
12.930107944207709
 20
118.33444555335065
 30
509.0
 10
12.892772790625122
 20
114.92143312796657
 30
509.0
 10
12.856333191653095
 20
111.5084100391411
 30
509.0
 10
12.820846800959046
 20
108.09537648116408
 30
509.0
 10
12.751914301182431
 20
101.26942759201324
 30
509.0
 10
12.718470293883273
 20
97.85651230224926
 30
509.0
 10
12.685981681631686
 20
94.44358821395613
 30
509.0
 10
12.65439083819741
 20
91.03065668551629
 30
509.0
 10
12.623647345407555
 20
87.61771898550967
 30
509.0
 10
12.593706681101464
 20
84.20477632744551
 30
509.0
 10
12.564528907085498
 20
80.79182990449436
 30
509.0
 10
12.511899671057444
 20
74.47860980051297
 30
509.0
 10
12.488246470099178
 20
71.57833689217735
 30
509.0
 10
12.46509542508249
 20
68.67806292484181
 30
509.0
 10
12.442426088410828
 20
65.77778870136505
 30
509.0
 10
12.420219586842288
 20
62.87751510992183
 30
509.0
 10
12.398458259068736
 20
59.9772431571229
 30
509.0
 10
12.377125238053395
 20
57.076974026168585
 30
509.0
 10
12.337475048142105
 20
51.58036181738801
 30
509.0
 10
12.319076108735112
 20
48.98401814772964
 30
509.0
 10
12.3009952327516
 20
46.38767898215283
 30
509.0
 10
12.283220793567427
 20
43.79134551178484
 30
509.0
 10
12.265740749477905
 20
41.195019439583454
 30
509.0
 10
12.248542508647446
 20
38.598703015976085
 30
509.0
 10
12.231611897626951
 20
36.00239927560071
 30
509.0
 10
12.203518306291066
 20
31.630118124165374
 30
509.0
 10
12.192223162800651
 20
29.85413253248185
 30
509.0
 10
12.18103794333355
 20
28.0781566988267
 30
509.0
 10
12.16995590102139
 20
26.302192146006433
 30
509.0
 10
12.15896727939119
 20
24.52624196755485
 30
509.0
 10
12.14806027226473
 20
22.750310604012547
 30
509.0
 10
12.137218520744629
 20
20.974404493591493
 30
509.0
 10
12.12270165453388
 20
18.589668095183015
 30
509.0
 10
12.118998546178904
 20
17.980805279973936
 30
509.0
 10
12.115299730995732
 20
17.37194722799717
 30
509.0
 10
12.111597332789778
 20
16.76309529084375
 30
509.0
 10
12.10789569614521
 20
16.15424958033242
 30
509.0
 10
12.104194732264006
 20
15.545411036125842
 30
509.0
 10
12.100493350789563
 20
14.936580654111452
 30
509.0
 10
12.093553176727545
 20
13.7949784942515
 30
509.0
 10
12.090314269735916
 20
13.262204649649734
 30
509.0
 10
12.087075411177626
 20
12.729438771937188
 30
509.0
 10
12.083836606898558
 20
12.196681822715433
 30
509.0
 10
12.080597864450558
 20
11.663935044201272
 30
509.0
 10
12.077359193372272
 20
11.131200005424235
 30
509.0
 10
12.074120605689536
 20
10.5984786845369
 30
509.0
 10
12.067122951758762
 20
9.447421553989113
 30
509.0
 10
12.063363942087351
 20
8.829095050718628
 30
509.0
 10
12.05960509088219
 20
8.210794613877333
 30
509.0
 10
12.055846420406528
 20
7.592523905544169
 30
509.0
 10
12.052087982534742
 20
6.97429145865512
 30
509.0
 10
12.048329856268365
 20
6.356110268344565
 30
509.0
 10
12.044572157696017
 20
5.737999430201043
 30
509.0
 10
12.03888125072148
 20
4.80189154073928
 30
509.0
 10
12.036947613632892
 20
4.483823973996692
 30
509.0
 10
12.035014179795732
 20
4.165789840439359
 30
509.0
 10
12.033080977243936
 20
3.8477937514654457
 30
509.0
 10
12.031148073659757
 20
3.52984684023307
 30
509.0
 10
12.029215572533394
 20
3.211966130012833
 30
509.0
 10
12.02728362628504
 20
2.8941766927291894
 30
509.0
 10
12.024286003270987
 20
2.401092099070695
 30
509.0
 10
12.023274830966592
 20
2.234762483073388
 30
509.0
 10
12.02231731073204
 20
2.0772581959895735
 30
509.0
 10
12.021411768318337
 20
1.9283038374842554
 30
509.0
 10
12.020556529476506
 20
1.7876240072225122
 30
509.0
 10
12.019749919957555
 20
1.6549433048695008
 30
509.0
 10
12.018990265512492
 20
1.5299863300904517
 30
509.0
 10
12.01767088660958
 20
1.312959236565348
 30
509.0
 10
12.017066327608871
 20
1.213514200311863
 30
509.0
 10
12.016462169606836
 20
1.1141351252460368
 30
509.0
 10
12.015858472826284
 20
1.014831916983951
 30
509.0
 10
12.015255366662974
 20
0.915625860929083
 30
509.0
 10
12.014653156853932
 20
0.8165672474974883
 30
509.0
 10
12.014052230696699
 20
0.7177197844966088
 30
509.0
 10
12.013041169798766
 20
0.5514084939568562
 30
509.0
 10
12.012663310712426
 20
0.4892537489548375
 30
509.0
 10
12.012318175583573
 20
0.4324818286801793
 30
509.0
 10
12.012004090163224
 20
0.3808173327980174
 30
509.0
 10
12.011719380202395
 20
0.33398486097346686
 30
509.0
 10
12.011462371452097
 20
0.2917090128716231
 30
509.0
 10
12.011231389663338
 20
0.25371438815756164
 30
509.0
 10
12.010871674261544
 20
0.19454413162689121
 30
509.0
 10
12.010722092522625
 20
0.16993915273771876
 30
509.0
 10
12.010574237952124
 20
0.14561827902681657
 30
509.0
 10
12.01042791771951
 20
0.12154979138139765
 30
509.0
 10
12.01028451302799
 20
0.09796088652208113
 30
509.0
 10
12.010147110071562
 20
0.07535921828100811
 30
509.0
 10
12.010021031510846
 20
0.0546203209568219
 30
509.0
 10
12.009855191421476
 20
0.02734097572324501
 30
509.0
 10
12.0098012831165
 20
0.01847349820105393
 30
509.0
 10
12.009757144467137
 20
0.011213049580511836
 30
509.0
 10
12.009725073281514
 20
0.005937600494746675
 30
509.0
 10
12.009705081617632
 20
0.0026491344395509486
 30
509.0
 10
12.009694895675247
 20
0.000973629833517009
 30
509.0
 10
12.009690805484727
 20
0.0003008267638193729
 30
509.0
 10
12.009688204979984
 20
-0.00012693510598893454
 30
509.0
 10
12.00968999323044
 20
7.127861604772079e-05
 30
509.0
 10
12.009687234544543
 20
0.00020953417209668146
 30
509.0
 10
12.009689371371795
 20
-0.00015137451535451873
 30
509.0
 10
12.00969888492375
 20
-0.001522255200988809
 30
509.0
 10
12.009715319513692
 20
-0.004372836220447596
 30
509.0
 10
12.009743314410853
 20
-0.008938117838507509
 30
509.0
 10
12.009834539532784
 20
-0.023943908081804466
 30
509.0
 10
12.009907269057775
 20
-0.03590732313298872
 30
509.0
 10
12.009995990456215
 20
-0.050501271223367894
 30
509.0
 10
12.010094075376536
 20
-0.06663544251028952
 30
509.0
 10
12.010198195894729
 20
-0.08376242047523874
 30
509.0
 10
12.010305458584568
 20
-0.10140626015993348
 30
509.0
 10
12.010415085177062
 20
-0.11943894256992849
 30
509.0
 10
12.010615914969126
 20
-0.15247380917854517
 30
509.0
 10
12.010711381369008
 20
-0.16817725513363005
 30
509.0
 10
12.010814275575232
 20
-0.18510251479041734
 30
509.0
 10
12.01092492991847
 20
-0.20330425384024894
 30
509.0
 10
12.011043676729393
 20
-0.22283713797454702
 30
509.0
 10
12.01117084833867
 20
-0.24375583288481348
 30
509.0
 10
12.011306777076985
 20
-0.26611500426263035
 30
509.0
 10
12.01159681347302
 20
-0.31382363133667474
 30
509.0
 10
12.011750921130744
 20
-0.339173087032555
 30
509.0
 10
12.011914450578843
 20
-0.36607235057890364
 30
509.0
 10
12.01208773414799
 20
-0.39457608766726937
 30
509.0
 10
12.012271104168866
 20
-0.4247389639891464
 30
509.0
 10
12.012464892972142
 20
-0.4566156452359747
 30
509.0
 10
12.012669432888483
 20
-0.4902607970991397
 30
509.0
 10
12.01322389295727
 20
-0.5814649666813382
 30
509.0
 10
12.013590098986235
 20
-0.6417028785674027
 30
509.0
 10
12.0139849639335
 20
-0.706654949310961
 30
509.0
 10
12.014409777397095
 20
-0.7765333072948659
 30
509.0
 10
12.014865828975053
 20
-0.8515500809020274
 30
509.0
 10
12.015354408265408
 20
-0.9319173985154134
 30
509.0
 10
12.015876804866197
 20
-1.0178473885180497
 30
509.0
 10
12.01704249402192
 20
-1.2095937692290593
 30
509.0
 10
12.01769245979086
 20
-1.316507849340614
 30
509.0
 10
12.018385879931259
 20
-1.430569819962291
 30
509.0
 10
12.019124428692106
 20
-1.5520550814288077
 30
509.0
 10
12.019909780322392
 20
-1.6812390340749932
 30
509.0
 10
12.020743609071104
 20
-1.8183970782357886
 30
509.0
 10
12.02162758918723
 20
-1.963804614246243
 30
509.0
 10
12.024159558281456
 20
-2.3802929271963222
 30
509.0
 10
12.025756607512958
 20
-2.642994530327499
 30
509.0
 10
12.02735425381577
 20
-2.9057943468239777
 30
509.0
 10
12.028952332735066
 20
-3.168665325218001
 30
509.0
 10
12.03055073264684
 20
-3.4315891042629794
 30
509.0
 10
12.032149380613632
 20
-3.69455368633551
 30
509.0
 10
12.033748246695254
 20
-3.9575541465259505
 30
509.0
 10
12.038504254921452
 20
-4.739878799311306
 30
509.0
 10
12.041661877935855
 20
-5.259282091086142
 30
509.0
 10
12.0448199707511
 20
-5.778762661259464
 30
509.0
 10
12.047978404292587
 20
-6.29829927814572
 30
509.0
 10
12.051137090971404
 20
-6.817877534063911
 30
509.0
 10
12.054295973513913
 20
-7.337488007947023
 30
509.0
 10
12.05745502816837
 20
-7.85712679285999
 30
509.0
 10
12.066840376422764
 20
-9.400940210579595
 30
509.0
 10
12.073067048210108
 20
-10.425177052151561
 30
509.0
 10
12.079294090469377
 20
-11.44947483330811
 30
509.0
 10
12.085521401732457
 20
-12.473816863436355
 30
509.0
 10
12.091748913118192
 20
-13.498191812116037
 30
509.0
 10
12.097976579540541
 20
-14.522592263024357
 30
509.0
 10
12.104204382107065
 20
-15.547015108566328
 30
509.0
 10
12.114479288545208
 20
-17.237153609031132
 30
509.0
 10
12.11852665369435
 20
-17.902855121326397
 30
509.0
 10
12.122571897984086
 20
-18.56856382912212
 30
509.0
 10
12.126620822753583
 20
-19.234278388714046
 30
509.0
 10
12.130675140642618
 20
-19.899998038024464
 30
509.0
 10
12.13473476659763
 20
-20.5657223244323
 30
509.0
 10
12.138802509721462
 20
-21.231450600276972
 30
509.0
 10
12.147306461782719
 20
-22.62027609512793
 30
509.0
 10
12.15184136461156
 20
-23.359218932571387
 30
509.0
 10
12.156484117187265
 20
-24.113735936862277
 30
509.0
 10
12.161235258456955
 20
-24.883551964566557
 30
509.0
 10
12.166095327367755
 20
-25.668391872250336
 30
509.0
 10
12.171064862866778
 20
-26.46798051647987
 30
509.0
 10
12.176144403901146
 20
-27.2820427538216
 30
509.0
 10
12.199943475639204
 20
-31.08002169738285
 30
509.0
 10
12.218830099724789
 20
-34.04977579451374
 30
509.0
 10
12.23803846767153
 20
-37.01955355617145
 30
509.0
 10
12.257593223595197
 20
-39.98934833952217
 30
509.0
 10
12.277514948672417
 20
-42.95915551226098
 30
509.0
 10
12.297823051486215
 20
-45.92897176446147
 30
509.0
 10
12.318534609963235
 20
-48.898795341111224
 30
509.0
 10
12.36222797255861
 20
-55.03903873034073
 30
509.0
 10
12.385268579948765
 20
-58.20945839707549
 30
509.0
 10
12.40881096009106
 20
-61.37988218098923
 30
509.0
 10
12.43287675139159
 20
-64.55030842355353
 30
509.0
 10
12.457488539093083
 20
-67.72073575526457
 30
509.0
 10
12.482670548712116
 20
-70.89116299182808
 30
509.0
 10
12.508449211653003
 20
-74.06158907965992
 30
509.0
 10
12.563272272296354
 20
-80.64429517384734
 30
509.0
 10
12.592415700275263
 20
-84.05657474155315
 30
509.0
 10
12.62232045292408
 20
-87.46885058485647
 30
509.0
 10
12.653026322917121
 20
-90.88112151089746
 30
509.0
 10
12.684577650133626
 20
-94.29338630795765
 30
509.0
 10
12.717024642177298
 20
-97.70564371049821
 30
509.0
 10
12.750424694895866
 20
-101.11789236419798
 30
509.0
 10
12.819277504982093
 20
-107.94383389269417
 30
509.0
 10
12.854733318587881
 20
-111.35752667410392
 30
509.0
 10
12.891144678851694
 20
-114.77120898893499
 30
509.0
 10
12.928453700380542
 20
-118.18488064348197
 30
509.0
 10
12.966609761527584
 20
-121.59854138849543
 30
509.0
 10
13.005568178664864
 20
-125.0121909110574
 30
509.0
 10
13.045288880456088
 20
-128.42582882645684
 30
509.0
 10
13.120117918615241
 20
-134.74133752553527
 30
509.0
 10
13.155025091498821
 20
-137.64321159414058
 30
509.0
 10
13.190434177784482
 20
-140.54507660214577
 30
509.0
 10
13.226324648628152
 20
-143.446932160875
 30
509.0
 10
13.262677558838028
 20
-146.34877776481883
 30
509.0
 10
13.299475181681702
 20
-149.2506127658972
 30
509.0
 10
13.336700588999696
 20
-152.15243632387856
 30
509.0
 10
13.408037928105104
 20
-157.65260222716026
 30
509.0
 10
13.442068357749049
 20
-160.2509468052478
 30
509.0
 10
13.476416492069536
 20
-162.84928047783075
 30
509.0
 10
13.511070655789045
 20
-165.44760229076326
 30
509.0
 10
13.54601875375562
 20
-168.0459107868268
 30
509.0
 10
13.581248134564067
 20
-170.64420397346402
 30
509.0
 10
13.61674455591415
 20
-173.24247910776518
 30
509.0
 10
13.676943191660744
 20
-177.61832779915719
 30
509.0
 10
13.701513615396562
 20
-179.39591218159975
 30
509.0
 10
13.726193646187944
 20
-181.1734846052226
 30
509.0
 10
13.7509765075989
 20
-182.95104368588147
 30
509.0
 10
13.775852386930234
 20
-184.72858653067823
 30
509.0
 10
13.800809398662112
 20
-186.50610894288184
 30
509.0
 10
13.825831072284943
 20
-188.28360482298132
 30
509.0
 10
13.859472888575722
 20
-190.67049828098177
 30
509.0
 10
13.868065729467435
 20
-191.2799289062197
 30
509.0
 10
13.87666276227474
 20
-191.8893546873867
 30
509.0
 10
13.885256093144635
 20
-192.49877443391333
 30
509.0
 10
13.893850059134769
 20
-193.10818794506346
 30
509.0
 10
13.902444552602221
 20
-193.71759428598835
 30
509.0
 10
13.911038464441479
 20
-194.32699248253738
 30
509.0
 10
13.927152878618609
 20
-195.46965939169098
 30
509.0
 10
13.934673308353867
 20
-196.00293017067452
 30
509.0
 10
13.94219362585948
 20
-196.53619299149602
 30
509.0
 10
13.949713817589004
 20
-197.06944689358403
 30
509.0
 10
13.957233866043046
 20
-197.60269063606327
 30
509.0
 10
13.964753749118767
 20
-198.13592265162913
 30
509.0
 10
13.972273438950065
 20
-198.6691409643067
 30
509.0
 10
13.988521315774744
 20
-199.82127165844713
 30
509.0
 10
13.997249371667515
 20
-200.44017474361647
 30
509.0
 10
14.005977060363154
 20
-201.05905179097647
 30
509.0
 10
14.014704330270234
 20
-201.67789914220265
 30
509.0
 10
14.023431061186308
 20
-202.29670827378456
 30
509.0
 10
14.032157070049436
 20
-202.915466204868
 30
509.0
 10
14.040882087854108
 20
-203.53415386037852
 30
509.0
 10
14.054095827797473
 20
-204.47113507567332
 30
509.0
 10
14.058585543293312
 20
-204.78949907402975
 30
509.0
 10
14.063074787813141
 20
-205.1078296756593
 30
509.0
 10
14.067563496397307
 20
-205.42612227429672
 30
509.0
 10
14.072051512210884
 20
-205.7443657488386
 30
509.0
 10
14.07653859544348
 20
-206.06254309442124
 30
509.0
 10
14.081024392901556
 20
-206.38062926622794
 30
509.0
 10
14.087984593135848
 20
-206.87417438685057
 30
509.0
 10
14.090332437956476
 20
-207.04065915972942
 30
509.0
 10
14.092555707832014
 20
-207.1983103711831
 30
509.0
 10
14.094658290207555
 20
-207.3474036784477
 30
509.0
 10
14.096644072528191
 20
-207.48821473875893
 30
509.0
 10
14.098516942239025
 20
-207.62101920935285
 30
509.0
 10
14.100280786785145
 20
-207.7460927474655
 30
509.0
 10
14.103344247509822
 20
-207.9633215687617
 30
509.0
 10
14.104747967225894
 20
-208.06285879373667
 30
509.0
 10
14.106150757742009
 20
-208.16233012949914
 30
509.0
 10
14.107552479503408
 20
-208.26172568027627
 30
509.0
 10
14.108952832701393
 20
-208.36102418674975
 30
509.0
 10
14.110351108791512
 20
-208.46017540630137
 30
509.0
 10
14.111746410287422
 20
-208.55911569852356
 30
509.0
 10
14.114094014756416
 20
-208.72558342816063
 30
509.0
 10
14.114971367206582
 20
-208.78779615283358
 30
509.0
 10
14.115772737775341
 20
-208.84462103153092
 30
509.0
 10
14.116502013907796
 20
-208.89633372148853
 30
509.0
 10
14.11716308304904
 20
-208.94320987994243
 30
509.0
 10
14.117759832644163
 20
-208.9855251641286
 30
509.0
 10
14.118296150138265
 20
-209.02355523128293
 30
509.0
 10
14.119131327587121
 20
-209.08277734284084
 30
509.0
 10
14.119478596140942
 20
-209.1074020223777
 30
509.0
 10
14.119821859385189
 20
-209.13174268695423
 30
509.0
 10
14.120161576836068
 20
-209.1558319206871
 30
509.0
 10
14.120494544539158
 20
-209.17944253240125
 30
509.0
 10
14.1208136033854
 20
-209.202066872428
 30
509.0
 10
14.121106408036127
 20
-209.22282953755223
 30
509.0
 10
14.121450473302684
 20
-209.24722707322158
 30
509.0
 10
14.12153442953341
 20
-209.2531803772394
 30
509.0
 10
14.121605637038463
 20
-209.2582296740255
 30
509.0
 10
14.121665247653441
 20
-209.26245663979802
 30
509.0
 10
14.121714413213924
 20
-209.26594295077484
 30
509.0
 10
14.121754285555491
 20
-209.2687702831741
 30
509.0
 10
14.121786016513726
 20
-209.27102031321388
 30
509.0
 10
14.121850121673674
 20
-209.27556598544044
 30
509.0
 10
14.121978348522608
 20
-209.27649484206827
 30
509.0
 10
14.122049132255784
 20
-209.276611056628
 30
509.0
 10
14.121994120916616
 20
-209.2766181395482
 30
509.0
 10
14.121822916807215
 20
-209.27687334205328
 30
509.0
 10
14.121623076488337
 20
-209.2773876561637
 30
509.0
 10
14.121560110779416
 20
-209.27782581469594
 30
509.0
 10
14.121877484758569
 20
-209.27750629126237
 30
509.0
  0
ENDSEC
  0
SECTION
  2
OBJECTS
  0
DICTIONARY
  5
A
330
0
100
AcDbDictionary
281
1
  3
ACAD_COLOR
350
B
  3
ACAD_GROUP
350
C
  3
ACAD_LAYOUT
350
D
  3
ACAD_MATERIAL
350
E
  3
ACAD_MLEADERSTYLE
350
F
  3
ACAD_MLINESTYLE
350
10
  3
ACAD_PLOTSETTINGS
350
11
  3
ACAD_PLOTSTYLENAME
350
12
  3
ACAD_SCALELIST
350
14
  3
ACAD_TABLESTYLE
350
15
  3
ACAD_VISUALSTYLE
350
16
  3
EZDXF_META
350
2D
  0
DICTIONARY
  5
B
330
A
100
AcDbDictionary
281
1
  0
DICTIONARY
  5
C
330
A
100
AcDbDictionary
281
1
  0
DICTIONARY
  5
D
330
A
100
AcDbDictionary
281
1
  3
Model
350
1A
  3
Layout1
350
1E
  0
DICTIONARY
  5
E
330
A
100
AcDbDictionary
281
1
  3
ByBlock
350
1F
  3
ByLayer
350
20
  3
Global
350
21
  0
DICTIONARY
  5
F
330
A
100
AcDbDictionary
281
1
  3
Standard
350
2C
  0
DICTIONARY
  5
10
330
A
100
AcDbDictionary
281
1
  3
Standard
350
22
  0
DICTIONARY
  5
11
330
A
100
AcDbDictionary
281
1
  0
ACDBDICTIONARYWDFLT
  5
12
330
A
100
AcDbDictionary
281
1
  3
Normal
350
13
100
AcDbDictionaryWithDefault
340
13
  0
ACDBPLACEHOLDER
  5
13
330
12
  0
DICTIONARY
  5
14
330
A
100
AcDbDictionary
281
1
  0
DICTIONARY
  5
15
330
A
100
AcDbDictionary
281
1
  0
DICTIONARY
  5
16
330
A
100
AcDbDictionary
281
1
  0
LAYOUT
  5
1A
330
D
100
AcDbPlotSettings
  1

  2
Adobe PDF
  4
A3
  6

 40
7.5
 41
20.0
 42
7.5
 43
20.0
 44
420.0
 45
297.0
 46
0.0
 47
0.0
 48
0.0
 49
0.0
140
0.0
141
0.0
142
1.0
143
1.0
 70
1024
 72
1
 73
1
 74
5
  7

 75
16
 76
0
 77
2
 78
300
147
1.0
148
0.0
149
0.0
100
AcDbLayout
  1
Model
 70
1
 71
0
 10
0.0
 20
0.0
 11
420.0
 21
297.0
 12
0.0
 22
0.0
 32
0.0
 14
1e+20
 24
1e+20
 34
1e+20
 15
-1e+20
 25
-1e+20
 35
-1e+20
146
0.0
 13
0.0
 23
0.0
 33
0.0
 16
1.0
 26
0.0
 36
0.0
 17
0.0
 27
1.0
 37
0.0
 76
1
330
17
  0
LAYOUT
  5
1E
330
D
100
AcDbPlotSettings
  1

  2
Adobe PDF
  4
A3
  6

 40
7.5
 41
20.0
 42
7.5
 43
20.0
 44
420.0
 45
297.0
 46
0.0
 47
0.0
 48
0.0
 49
0.0
140
0.0
141
0.0
142
1.0
143
1.0
 70
0
 72
1
 73
1
 74
5
  7

 75
16
 76
0
 77
2
 78
300
147
1.0
148
0.0
149
0.0
100
AcDbLayout
  1
Layout1
 70
1
 71
1
 10
0.0
 20
0.0
 11
420.0
 21
297.0
 12
0.0
 22
0.0
 32
0.0
 14
1e+20
 24
1e+20
 34
1e+20
 15
-1e+20
 25
-1e+20
 35
-1e+20
146
0.0
 13
0.0
 23
0.0
 33
0.0
 16
1.0
 26
0.0
 36
0.0
 17
0.0
 27
1.0
 37
0.0
 76
1
330
1B
  0
MATERIAL
  5
1F
102
{ACAD_REACTORS
330
E
102
}
330
E
100
AcDbMaterial
  1
ByBlock
  2

 70
0
 40
1.0
 71
1
 41
1.0
 91
-1023410177
 42
1.0
 72
1
  3

 73
1
 74
1
 75
1
 44
0.5
 73
0
 45
1.0
 46
1.0
 77
1
  4

 78
1
 79
1
170
1
 48
1.0
171
1
  6

172
1
173
1
174
1
140
1.0
141
1.0
175
1
  7

176
1
177
1
178
1
143
1.0
179
1
  8

270
1
271
1
272
1
145
1.0
146
1.0
273
1
  9

274
1
275
1
276
1
 42
1.0
 72
1
  3

 73
1
 74
1
 75
1
 94
63
  0
MATERIAL
  5
20
102
{ACAD_REACTORS
330
E
102
}
330
E
100
AcDbMaterial
  1
ByLayer
  2

 70
0
 40
1.0
 71
1
 41
1.0
 91
-1023410177
 42
1.0
 72
1
  3

 73
1
 74
1
 75
1
 44
0.5
 73
0
 45
1.0
 46
1.0
 77
1
  4

 78
1
 79
1
170
1
 48
1.0
171
1
  6

172
1
173
1
174
1
140
1.0
141
1.0
175
1
  7

176
1
177
1
178
1
143
1.0
179
1
  8

270
1
271
1
272
1
145
1.0
146
1.0
273
1
  9

274
1
275
1
276
1
 42
1.0
 72
1
  3

 73
1
 74
1
 75
1
 94
63
  0
MATERIAL
  5
21
102
{ACAD_REACTORS
330
E
102
}
330
E
100
AcDbMaterial
  1
Global
  2

 70
0
 40
1.0
 71
1
 41
1.0
 91
-1023410177
 42
1.0
 72
1
  3

 73
1
 74
1
 75
1
 44
0.5
 73
0
 45
1.0
 46
1.0
 77
1
  4

 78
1
 79
1
170
1
 48
1.0
171
1
  6

172
1
173
1
174
1
140
1.0
141
1.0
175
1
  7

176
1
177
1
178
1
143
1.0
179
1
  8

270
1
271
1
272
1
145
1.0
146
1.0
273
1
  9

274
1
275
1
276
1
 42
1.0
 72
1
  3

 73
1
 74
1
 75
1
 94
63
  0
MLINESTYLE
  5
22
102
{ACAD_REACTORS
330
10
102
}
330
10
100
AcDbMlineStyle
  2
Standard
 70
0
  3

 62
256
 51
90.0
 52
90.0
 71
2
 49
0.5
 62
256
  6
BYLAYER
 49
-0.5
 62
256
  6
BYLAYER
  0
MLEADERSTYLE
  5
2C
102
{ACAD_REACTORS
330
F
102
}
330
F
100
AcDbMLeaderStyle
179
2
170
2
171
1
172
0
 90
2
 40
0.0
 41
0.0
173
1
 91
-1056964608
 92
-2
290
1
 42
2.0
291
1
 43
8.0
  3
Standard
 44
4.0
300

342
29
174
1
175
1
176
0
178
1
 93
-1056964608
 45
4.0
292
0
297
0
 46
4.0
 94
-1056964608
 47
1.0
 49
1.0
140
1.0
294
1
141
0.0
177
0
142
1.0
295
0
296
0
143
3.75
271
0
272
9
273
9
  0
DICTIONARY
  5
2D
330
A
100
AcDbDictionary
280
1
281
1
  3
CREATED_BY_EZDXF
350
2E
  3
WRITTEN_BY_EZDXF
350
78
  0
DICTIONARYVAR
  5
2E
330
2D
100
DictionaryVariables
280
0
  1
0.17 @ 2022-02-15T16:29:12.379661+00:00
  0
DICTIONARYVAR
  5
78
330
2D
100
DictionaryVariables
280
0
  1
0.17 @ 2022-02-15T16:29:12.475630+00:00
  0
ENDSEC
  0
EOF
