  0
SECTION
  2
HEADER
  9
$ACADVER
  1
AC1027
  9
$ACADMAINTVER
 70
105
  9
$DWGCODEPAGE
  3
ANSI_1252
  9
$LASTSAVEDBY
  1
ezdxf
  9
$REQUIREDVERSIONS
160
0
  9
$INSBASE
 10
0.0
 20
0.0
 30
0.0
  9
$EXTMIN
 10
1e+20
 20
1e+20
 30
1e+20
  9
$EXTMAX
 10
-1e+20
 20
-1e+20
 30
-1e+20
  9
$LIMMIN
 10
0.0
 20
0.0
  9
$LIMMAX
 10
420.0
 20
297.0
  9
$ORTHOMODE
 70
0
  9
$REGENMODE
 70
1
  9
$FILLMODE
 70
1
  9
$QTEXTMODE
 70
0
  9
$MIRRTEXT
 70
1
  9
$LTSCALE
 40
1.0
  9
$ATTMODE
 70
1
  9
$TEXTSIZE
 40
2.5
  9
$TRACEWID
 40
1.0
  9
$TEXTSTYLE
  7
Standard
  9
$CLAYER
  8
0
  9
$CELTYPE
  6
ByLayer
  9
$CECOLOR
 62
256
  9
$CELTSCALE
 40
1.0
  9
$DISPSILH
 70
0
  9
$DIMSCALE
 40
1.0
  9
$DIMASZ
 40
2.5
  9
$DIMEXO
 40
0.625
  9
$DIMDLI
 40
3.75
  9
$DIMRND
 40
0.0
  9
$DIMDLE
 40
0.0
  9
$DIMEXE
 40
1.25
  9
$DIMTP
 40
0.0
  9
$DIMTM
 40
0.0
  9
$DIMTXT
 40
2.5
  9
$DIMCEN
 40
2.5
  9
$DIMTSZ
 40
0.0
  9
$DIMTOL
 70
0
  9
$DIMLIM
 70
0
  9
$DIMTIH
 70
0
  9
$DIMTOH
 70
0
  9
$DIMSE1
 70
0
  9
$DIMSE2
 70
0
  9
$DIMTAD
 70
1
  9
$DIMZIN
 70
8
  9
$DIMBLK
  1

  9
$DIMASO
 70
1
  9
$DIMSHO
 70
1
  9
$DIMPOST
  1

  9
$DIMAPOST
  1

  9
$DIMALT
 70
0
  9
$DIMALTD
 70
3
  9
$DIMALTF
 40
0.03937007874
  9
$DIMLFAC
 40
1.0
  9
$DIMTOFL
 70
1
  9
$DIMTVP
 40
0.0
  9
$DIMTIX
 70
0
  9
$DIMSOXD
 70
0
  9
$DIMSAH
 70
0
  9
$DIMBLK1
  1

  9
$DIMBLK2
  1

  9
$DIMSTYLE
  2
ISO-25
  9
$DIMCLRD
 70
0
  9
$DIMCLRE
 70
0
  9
$DIMCLRT
 70
0
  9
$DIMTFAC
 40
1.0
  9
$DIMGAP
 40
0.625
  9
$DIMJUST
 70
0
  9
$DIMSD1
 70
0
  9
$DIMSD2
 70
0
  9
$DIMTOLJ
 70
0
  9
$DIMTZIN
 70
8
  9
$DIMALTZ
 70
0
  9
$DIMALTTZ
 70
0
  9
$DIMUPT
 70
0
  9
$DIMDEC
 70
2
  9
$DIMTDEC
 70
2
  9
$DIMALTU
 70
2
  9
$DIMALTTD
 70
3
  9
$DIMTXSTY
  7
Standard
  9
$DIMAUNIT
 70
0
  9
$DIMADEC
 70
0
  9
$DIMALTRND
 40
0.0
  9
$DIMAZIN
 70
0
  9
$DIMDSEP
 70
44
  9
$DIMATFIT
 70
3
  9
$DIMFRAC
 70
0
  9
$DIMLDRBLK
  1

  9
$DIMLUNIT
 70
2
  9
$DIMLWD
 70
-2
  9
$DIMLWE
 70
-2
  9
$DIMTMOVE
 70
0
  9
$DIMFXL
 40
1.0
  9
$DIMFXLON
 70
0
  9
$DIMJOGANG
 40
0.785398163397
  9
$DIMTFILL
 70
0
  9
$DIMTFILLCLR
 70
0
  9
$DIMARCSYM
 70
0
  9
$DIMLTYPE
  6

  9
$DIMLTEX1
  6

  9
$DIMLTEX2
  6

  9
$DIMTXTDIRECTION
 70
0
  9
$LUNITS
 70
2
  9
$LUPREC
 70
4
  9
$SKETCHINC
 40
1.0
  9
$FILLETRAD
 40
10.0
  9
$AUNITS
 70
0
  9
$AUPREC
 70
2
  9
$MENU
  1
.
  9
$ELEVATION
 40
0.0
  9
$PELEVATION
 40
0.0
  9
$THICKNESS
 40
0.0
  9
$LIMCHECK
 70
0
  9
$CHAMFERA
 40
0.0
  9
$CHAMFERB
 40
0.0
  9
$CHAMFERC
 40
0.0
  9
$CHAMFERD
 40
0.0
  9
$SKPOLY
 70
0
  9
$TDCREATE
 40
2459626.7287037037
  9
$TDUCREATE
 40
2458532.153996898
  9
$TDUPDATE
 40
2459626.7287037037
  9
$TDUUPDATE
 40
2458532.1544311
  9
$TDINDWG
 40
0.0
  9
$TDUSRTIMER
 40
0.0
  9
$USRTIMER
 70
1
  9
$ANGBASE
 50
0.0
  9
$ANGDIR
 70
0
  9
$PDMODE
 70
0
  9
$PDSIZE
 40
0.0
  9
$PLINEWID
 40
0.0
  9
$SPLFRAME
 70
0
  9
$SPLINETYPE
 70
6
  9
$SPLINESEGS
 70
8
  9
$HANDSEED
  5
81
  9
$SURFTAB1
 70
6
  9
$SURFTAB2
 70
6
  9
$SURFTYPE
 70
6
  9
$SURFU
 70
6
  9
$SURFV
 70
6
  9
$UCSBASE
  2

  9
$UCSNAME
  2

  9
$UCSORG
 10
0.0
 20
0.0
 30
0.0
  9
$UCSXDIR
 10
1.0
 20
0.0
 30
0.0
  9
$UCSYDIR
 10
0.0
 20
1.0
 30
0.0
  9
$UCSORTHOREF
  2

  9
$UCSORTHOVIEW
 70
0
  9
$UCSORGTOP
 10
0.0
 20
0.0
 30
0.0
  9
$UCSORGBOTTOM
 10
0.0
 20
0.0
 30
0.0
  9
$UCSORGLEFT
 10
0.0
 20
0.0
 30
0.0
  9
$UCSORGRIGHT
 10
0.0
 20
0.0
 30
0.0
  9
$UCSORGFRONT
 10
0.0
 20
0.0
 30
0.0
  9
$UCSORGBACK
 10
0.0
 20
0.0
 30
0.0
  9
$PUCSBASE
  2

  9
$PUCSNAME
  2

  9
$PUCSORG
 10
0.0
 20
0.0
 30
0.0
  9
$PUCSXDIR
 10
1.0
 20
0.0
 30
0.0
  9
$PUCSYDIR
 10
0.0
 20
1.0
 30
0.0
  9
$PUCSORTHOREF
  2

  9
$PUCSORTHOVIEW
 70
0
  9
$PUCSORGTOP
 10
0.0
 20
0.0
 30
0.0
  9
$PUCSORGBOTTOM
 10
0.0
 20
0.0
 30
0.0
  9
$PUCSORGLEFT
 10
0.0
 20
0.0
 30
0.0
  9
$PUCSORGRIGHT
 10
0.0
 20
0.0
 30
0.0
  9
$PUCSORGFRONT
 10
0.0
 20
0.0
 30
0.0
  9
$PUCSORGBACK
 10
0.0
 20
0.0
 30
0.0
  9
$USERI1
 70
0
  9
$USERI2
 70
0
  9
$USERI3
 70
0
  9
$USERI4
 70
0
  9
$USERI5
 70
0
  9
$USERR1
 40
0.0
  9
$USERR2
 40
0.0
  9
$USERR3
 40
0.0
  9
$USERR4
 40
0.0
  9
$USERR5
 40
0.0
  9
$WORLDVIEW
 70
1
  9
$SHADEDGE
 70
3
  9
$SHADEDIF
 70
70
  9
$TILEMODE
 70
1
  9
$MAXACTVP
 70
64
  9
$PINSBASE
 10
0.0
 20
0.0
 30
0.0
  9
$PLIMCHECK
 70
0
  9
$PEXTMIN
 10
1e+20
 20
1e+20
 30
1e+20
  9
$PEXTMAX
 10
-1e+20
 20
-1e+20
 30
-1e+20
  9
$PLIMMIN
 10
0.0
 20
0.0
  9
$PLIMMAX
 10
420.0
 20
297.0
  9
$UNITMODE
 70
0
  9
$VISRETAIN
 70
1
  9
$PLINEGEN
 70
0
  9
$PSLTSCALE
 70
1
  9
$TREEDEPTH
 70
3020
  9
$CMLSTYLE
  2
Standard
  9
$CMLJUST
 70
0
  9
$CMLSCALE
 40
20.0
  9
$PROXYGRAPHICS
 70
1
  9
$MEASUREMENT
 70
1
  9
$CELWEIGHT
370
-1
  9
$ENDCAPS
280
0
  9
$JOINSTYLE
280
0
  9
$LWDISPLAY
290
0
  9
$INSUNITS
 70
6
  9
$HYPERLINKBASE
  1

  9
$STYLESHEET
  1

  9
$XEDIT
290
1
  9
$CEPSNTYPE
380
0
  9
$PSTYLEMODE
290
1
  9
$FINGERPRINTGUID
  2
{AFE8F95D-40E1-4F2B-AC72-76C0AF78E480}
  9
$VERSIONGUID
  2
{1438AD7D-AA26-4928-92A7-FD5D7D36184B}
  9
$EXTNAMES
290
1
  9
$PSVPSCALE
 40
0.0
  9
$OLESTARTUP
290
0
  9
$SORTENTS
280
127
  9
$INDEXCTL
280
0
  9
$HIDETEXT
280
1
  9
$XCLIPFRAME
280
0
  9
$HALOGAP
280
0
  9
$OBSCOLOR
 70
257
  9
$OBSLTYPE
280
0
  9
$INTERSECTIONDISPLAY
280
0
  9
$INTERSECTIONCOLOR
 70
257
  9
$DIMASSOC
280
2
  9
$PROJECTNAME
  1

  9
$CAMERADISPLAY
290
0
  9
$LENSLENGTH
 40
50.0
  9
$CAMERAHEIGHT
 40
0.0
  9
$STEPSPERSEC
 40
24.0
  9
$STEPSIZE
 40
100.0
  9
$3DDWFPREC
 40
2.0
  9
$PSOLWIDTH
 40
0.005
  9
$PSOLHEIGHT
 40
0.08
  9
$LOFTANG1
 40
1.570796326795
  9
$LOFTANG2
 40
1.570796326795
  9
$LOFTMAG1
 40
0.0
  9
$LOFTMAG2
 40
0.0
  9
$LOFTPARAM
 70
7
  9
$LOFTNORMALS
280
1
  9
$LATITUDE
 40
37.795
  9
$LONGITUDE
 40
-122.394
  9
$NORTHDIRECTION
 40
0.0
  9
$TIMEZONE
 70
-8000
  9
$LIGHTGLYPHDISPLAY
280
1
  9
$TILEMODELIGHTSYNCH
280
1
  9
$CMATERIAL
347
20
  9
$SOLIDHIST
280
0
  9
$SHOWHIST
280
1
  9
$DWFFRAME
280
2
  9
$DGNFRAME
280
2
  9
$REALWORLDSCALE
290
1
  9
$INTERFERECOLOR
 62
256
  9
$CSHADOW
280
0
  9
$SHADOWPLANELOCATION
 40
0.0
  0
ENDSEC
  0
SECTION
  2
CLASSES
  0
CLASS
  1
ACDBDICTIONARYWDFLT
  2
AcDbDictionaryWithDefault
  3
ObjectDBX Classes
 90
0
 91
0
280
0
281
0
  0
CLASS
  1
SUN
  2
AcDbSun
  3
SCENEOE
 90
1153
 91
0
280
0
281
0
  0
CLASS
  1
VISUALSTYLE
  2
AcDbVisualStyle
  3
ObjectDBX Classes
 90
4095
 91
0
280
0
281
0
  0
CLASS
  1
MATERIAL
  2
AcDbMaterial
  3
ObjectDBX Classes
 90
1153
 91
0
280
0
281
0
  0
CLASS
  1
SCALE
  2
AcDbScale
  3
ObjectDBX Classes
 90
1153
 91
0
280
0
281
0
  0
CLASS
  1
TABLESTYLE
  2
AcDbTableStyle
  3
ObjectDBX Classes
 90
4095
 91
0
280
0
281
0
  0
CLASS
  1
MLEADERSTYLE
  2
AcDbMLeaderStyle
  3
ACDB_MLEADERSTYLE_CLASS
 90
4095
 91
0
280
0
281
0
  0
CLASS
  1
DICTIONARYVAR
  2
AcDbDictionaryVar
  3
ObjectDBX Classes
 90
0
 91
0
280
0
281
0
  0
CLASS
  1
CELLSTYLEMAP
  2
AcDbCellStyleMap
  3
ObjectDBX Classes
 90
1152
 91
0
280
0
281
0
  0
CLASS
  1
MENTALRAYRENDERSETTINGS
  2
AcDbMentalRayRenderSettings
  3
SCENEOE
 90
1024
 91
0
280
0
281
0
  0
CLASS
  1
ACDBDETAILVIEWSTYLE
  2
AcDbDetailViewStyle
  3
ObjectDBX Classes
 90
1025
 91
0
280
0
281
0
  0
CLASS
  1
ACDBSECTIONVIEWSTYLE
  2
AcDbSectionViewStyle
  3
ObjectDBX Classes
 90
1025
 91
0
280
0
281
0
  0
CLASS
  1
RASTERVARIABLES
  2
AcDbRasterVariables
  3
ISM
 90
0
 91
0
280
0
281
0
  0
CLASS
  1
ACDBPLACEHOLDER
  2
AcDbPlaceHolder
  3
ObjectDBX Classes
 90
0
 91
0
280
0
281
0
  0
CLASS
  1
LAYOUT
  2
AcDbLayout
  3
ObjectDBX Classes
 90
0
 91
0
280
0
281
0
  0
ENDSEC
  0
SECTION
  2
TABLES
  0
TABLE
  2
VPORT
  5
8
330
0
100
AcDbSymbolTable
 70
1
  0
VPORT
  5
23
330
8
100
AcDbSymbolTableRecord
100
AcDbViewportTableRecord
  2
*Active
 70
0
 10
0.0
 20
0.0
 11
1.0
 21
1.0
 12
344.2
 22
148.5
 13
0.0
 23
0.0
 14
0.5
 24
0.5
 15
0.5
 25
0.5
 16
0.0
 26
0.0
 36
1.0
 17
0.0
 27
0.0
 37
0.0
 40
297.0
 41
1.34
 42
50.0
 43
0.0
 44
0.0
 50
0.0
 51
0.0
 71
0
 72
1000
 73
1
 74
3
 75
0
 76
0
 77
0
 78
0
281
0
 65
0
146
0.0
  0
ENDTAB
  0
TABLE
  2
LTYPE
  5
2
330
0
100
AcDbSymbolTable
 70
3
  0
LTYPE
  5
24
330
2
100
AcDbSymbolTableRecord
100
AcDbLinetypeTableRecord
  2
ByBlock
 70
0
  3

 72
65
 73
0
 40
0.0
  0
LTYPE
  5
25
330
2
100
AcDbSymbolTableRecord
100
AcDbLinetypeTableRecord
  2
ByLayer
 70
0
  3

 72
65
 73
0
 40
0.0
  0
LTYPE
  5
26
330
2
100
AcDbSymbolTableRecord
100
AcDbLinetypeTableRecord
  2
Continuous
 70
0
  3

 72
65
 73
0
 40
0.0
  0
ENDTAB
  0
TABLE
  2
LAYER
  5
1
330
0
100
AcDbSymbolTable
 70
2
  0
LAYER
  5
27
330
1
100
AcDbSymbolTableRecord
100
AcDbLayerTableRecord
  2
0
 70
0
 62
7
  6
Continuous
370
-3
390
13
347
21
  0
LAYER
  5
28
330
1
100
AcDbSymbolTableRecord
100
AcDbLayerTableRecord
  2
Defpoints
 70
0
 62
7
  6
Continuous
290
0
370
-3
390
13
347
21
  0
ENDTAB
  0
TABLE
  2
STYLE
  5
5
330
0
100
AcDbSymbolTable
 70
1
  0
STYLE
  5
29
330
5
100
AcDbSymbolTableRecord
100
AcDbTextStyleTableRecord
  2
Standard
 70
0
 40
0.0
 41
1.0
 50
0.0
 71
0
 42
2.5
  3
txt
  4

  0
ENDTAB
  0
TABLE
  2
VIEW
  5
7
330
0
100
AcDbSymbolTable
 70
0
  0
ENDTAB
  0
TABLE
  2
UCS
  5
6
330
0
100
AcDbSymbolTable
 70
0
  0
ENDTAB
  0
TABLE
  2
APPID
  5
3
330
0
100
AcDbSymbolTable
 70
3
  0
APPID
  5
2A
330
3
100
AcDbSymbolTableRecord
100
AcDbRegAppTableRecord
  2
ACAD
 70
0
  0
APPID
  5
7E
330
3
100
AcDbSymbolTableRecord
100
AcDbRegAppTableRecord
  2
HATCHBACKGROUNDCOLOR
 70
0
  0
APPID
  5
7F
330
3
100
AcDbSymbolTableRecord
100
AcDbRegAppTableRecord
  2
EZDXF
 70
0
  0
ENDTAB
  0
TABLE
  2
DIMSTYLE
  5
4
330
0
100
AcDbSymbolTable
 70
1
100
AcDbDimStyleTable
  0
DIMSTYLE
105
2B
330
4
100
AcDbSymbolTableRecord
100
AcDbDimStyleTableRecord
  2
Standard
 70
0
 40
1.0
 41
2.5
 42
0.625
 43
3.75
 44
1.25
 45
0.0
 46
0.0
 47
0.0
 48
0.0
 49
2.5
140
2.5
141
2.5
142
0.0
143
0.03937007874
144
1.0
145
0.0
146
1.0
147
0.625
148
0.0
 69
0
 70
0
 71
0
 72
0
 73
0
 74
0
 75
0
 76
0
 77
1
 78
8
 79
0
170
0
171
3
172
1
173
0
174
0
175
0
176
0
177
0
178
0
179
0
271
0
272
2
273
2
274
3
275
0
276
0
277
2
278
44
279
0
280
0
281
0
282
0
283
0
284
8
285
0
286
0
288
0
289
3
290
0
371
-2
372
-2
  0
ENDTAB
  0
TABLE
  2
BLOCK_RECORD
  5
9
330
0
100
AcDbSymbolTable
 70
2
  0
BLOCK_RECORD
  5
17
330
9
100
AcDbSymbolTableRecord
100
AcDbBlockTableRecord
  2
*Model_Space
340
1A
 70
0
280
1
281
0
  0
BLOCK_RECORD
  5
1B
330
9
100
AcDbSymbolTableRecord
100
AcDbBlockTableRecord
  2
*Paper_Space
340
1E
 70
0
280
1
281
0
  0
ENDTAB
  0
ENDSEC
  0
SECTION
  2
BLOCKS
  0
BLOCK
  5
18
330
17
100
AcDbEntity
  8
0
100
AcDbBlockBegin
  2
*Model_Space
 70
0
 10
0.0
 20
0.0
 30
0.0
  3
*Model_Space
  1

  0
ENDBLK
  5
19
330
17
100
AcDbEntity
  8
0
100
AcDbBlockEnd
  0
BLOCK
  5
1C
330
1B
100
AcDbEntity
  8
0
100
AcDbBlockBegin
  2
*Paper_Space
 70
0
 10
0.0
 20
0.0
 30
0.0
  3
*Paper_Space
  1

  0
ENDBLK
  5
1D
330
1B
100
AcDbEntity
  8
0
100
AcDbBlockEnd
  0
ENDSEC
  0
SECTION
  2
ENTITIES
  0
SPLINE
  5
2F
330
17
100
AcDbEntity
  8
0
100
AcDbSpline
 70
0
 71
8
 72
74
 73
65
 74
0
 40
0.0
 40
0.0
 40
0.0
 40
0.0
 40
0.0
 40
0.0
 40
0.0
 40
0.0
 40
0.0
 40
0.02873756663490617
 40
0.02873756663490617
 40
0.02873756663490617
 40
0.02873756663490617
 40
0.02873756663490617
 40
0.02873756663490617
 40
0.02873756663490617
 40
0.14106306912260502
 40
0.14106306912260502
 40
0.14106306912260502
 40
0.14106306912260502
 40
0.14106306912260502
 40
0.14106306912260502
 40
0.14106306912260502
 40
0.23842901199058766
 40
0.23842901199058766
 40
0.23842901199058766
 40
0.23842901199058766
 40
0.23842901199058766
 40
0.23842901199058766
 40
0.23842901199058766
 40
0.3477812851989645
 40
0.3477812851989645
 40
0.3477812851989645
 40
0.3477812851989645
 40
0.3477812851989645
 40
0.3477812851989645
 40
0.3477812851989645
 40
0.4350718999437923
 40
0.4350718999437923
 40
0.4350718999437923
 40
0.4350718999437923
 40
0.4350718999437923
 40
0.4350718999437923
 40
0.4350718999437923
 40
0.45525542593122337
 40
0.45525542593122337
 40
0.45525542593122337
 40
0.45525542593122337
 40
0.45525542593122337
 40
0.45525542593122337
 40
0.45525542593122337
 40
0.5245215527572369
 40
0.5245215527572369
 40
0.5245215527572369
 40
0.5245215527572369
 40
0.5245215527572369
 40
0.5245215527572369
 40
0.5245215527572369
 40
0.7473278290806616
 40
0.7473278290806616
 40
0.7473278290806616
 40
0.7473278290806616
 40
0.7473278290806616
 40
0.7473278290806616
 40
0.7473278290806616
 40
1.0
 40
1.0
 40
1.0
 40
1.0
 40
1.0
 40
1.0
 40
1.0
 40
1.0
 40
1.0
 10
44.3398295333496
 20
235.90000050360612
 30
665.0
 10
44.25229396769003
 20
236.06988014537936
 30
665.0
 10
44.16404318715297
 20
236.23939026977283
 30
665.0
 10
44.07506456327401
 20
236.40852008919197
 30
665.0
 10
43.98534504505403
 20
236.57725839493128
 30
665.0
 10
43.89487112880788
 20
236.74559354268507
 30
665.0
 10
43.80362882466771
 20
236.91351343643947
 30
665.0
 10
43.71160361931985
 20
237.08100551053778
 30
665.0
 10
43.255965760513476
 20
237.9010037781517
 30
665.0
 10
42.881034182425424
 20
238.5470815060563
 30
665.0
 10
42.493054578342466
 20
239.18558442757129
 30
665.0
 10
42.091037891080475
 20
239.81554765758608
 30
665.0
 10
41.67391680388274
 20
240.43573263354654
 30
665.0
 10
41.240525263942565
 20
241.04461326566457
 30
665.0
 10
40.78955664097706
 20
241.64034758762318
 30
665.0
 10
39.91200708020577
 20
242.7237981600546
 30
665.0
 10
39.49032914895651
 20
243.21514570951157
 30
665.0
 10
39.053396709166655
 20
243.69342120181307
 30
665.0
 10
38.60022320418912
 20
244.15681430660766
 30
665.0
 10
38.129901924373705
 20
244.60306532570016
 30
665.0
 10
37.641624823600075
 20
245.02948524145413
 30
665.0
 10
37.13472135064902
 20
245.43299705223484
 30
665.0
 10
36.01799890027265
 20
246.23387954498548
 30
665.0
 10
35.402630313153715
 20
246.62478274691142
 30
665.0
 10
34.762924379656006
 20
246.97729502249882
 30
665.0
 10
34.09994055956845
 20
247.28545230725888
 30
665.0
 10
33.41567734948851
 20
247.54340684545372
 30
665.0
 10
32.713324625379414
 20
247.74609222229626
 30
665.0
 10
31.997608988314788
 20
247.89011871114795
 30
665.0
 10
30.69861938911572
 20
248.04259631690178
 30
665.0
 10
30.11741032006915
 20
248.0725780225513
 30
665.0
 10
29.534918210221143
 20
248.0644933378267
 30
665.0
 10
28.953982598491148
 20
248.0192318208378
 30
665.0
 10
28.37702053574379
 20
247.93856063553466
 30
665.0
 10
27.8060569110015
 20
247.82480941378654
 30
665.0
 10
27.24274811332616
 20
247.68061456979507
 30
665.0
 10
26.560221227267537
 20
247.46897793929176
 30
665.0
 10
26.432356873557836
 20
247.4276973273223
 30
665.0
 10
26.304817610885628
 20
247.38491397880173
 30
665.0
 10
26.17761099963134
 20
247.34065326462363
 30
665.0
 10
26.050740517910814
 20
247.2949331787058
 30
665.0
 10
25.924205561575338
 20
247.24776433799076
 30
665.0
 10
25.79800144421162
 20
247.1991499824452
 30
665.0
 10
25.24011550233732
 20
246.97727556457457
 30
665.0
 10
24.814481937787427
 20
246.78945230203826
 30
665.0
 10
24.395697481353007
 20
246.5864345698573
 30
665.0
 10
23.98409060826043
 20
246.36912277169824
 30
665.0
 10
23.57986463127652
 20
246.13845245185544
 30
665.0
 10
23.183118341770136
 20
245.89535580760946
 30
665.0
 10
22.79386215166032
 20
245.6407315945751
 30
665.0
 10
21.183800837721776
 20
244.5220145794634
 30
665.0
 10
20.035510173989174
 20
243.56022930680174
 30
665.0
 10
18.959011116596642
 20
242.5154706928574
 30
665.0
 10
17.946410403067375
 20
241.40845098294002
 30
665.0
 10
16.990299689378162
 20
240.2549348614494
 30
665.0
 10
16.08348892145913
 20
239.0659776392507
 30
665.0
 10
15.21884863090898
 20
237.8480482966917
 30
665.0
 10
13.448163560935448
 20
235.19149864168318
 30
665.0
 10
12.55451006381147
 20
233.7487889651625
 30
665.0
 10
11.699722954530657
 20
232.28221893714098
 30
665.0
 10
10.87789090365051
 20
230.79690447721006
 30
665.0
 10
10.084226874474496
 20
229.29672627292447
 30
665.0
 10
9.314789153525716
 20
227.78448283615737
 30
665.0
 10
8.56614139483387
 20
226.26208718337742
 30
665.0
 10
7.835214540610934
 20
224.73064115506006
 30
665.0
  0
LINE
  5
30
330
17
100
AcDbEntity
  8
0
100
AcDbLine
 10
26.524370102517317
 20
235.9
 30
665.0
 11
44.339828556004775
 21
235.9
 31
665.0
  0
SPLINE
  5
31
330
17
100
AcDbEntity
  8
0
100
AcDbSpline
 70
0
 71
1
 72
4
 73
2
 74
0
 40
0.0
 40
0.0
 40
1.0
 40
1.0
 10
26.524370064810242
 20
235.9000006000011
 30
665.0
 10
26.524370064810242
 20
232.09999939999986
 30
665.0
  0
LINE
  5
32
330
17
100
AcDbEntity
  8
0
100
AcDbLine
 10
26.524370102517317
 20
232.1
 30
665.0
 11
46.125427289160136
 21
232.1
 31
665.0
  0
SPLINE
  5
33
330
17
100
AcDbEntity
  8
0
100
AcDbSpline
 70
0
 71
8
 72
46
 73
37
 74
0
 40
0.0
 40
0.0
 40
0.0
 40
0.0
 40
0.0
 40
0.0
 40
0.0
 40
0.0
 40
0.0
 40
0.07929369354661671
 40
0.07929369354661671
 40
0.07929369354661671
 40
0.07929369354661671
 40
0.07929369354661671
 40
0.07929369354661671
 40
0.07929369354661671
 40
0.5112380719217332
 40
0.5112380719217332
 40
0.5112380719217332
 40
0.5112380719217332
 40
0.5112380719217332
 40
0.5112380719217332
 40
0.5112380719217332
 40
0.6982477697299012
 40
0.6982477697299012
 40
0.6982477697299012
 40
0.6982477697299012
 40
0.6982477697299012
 40
0.6982477697299012
 40
0.6982477697299012
 40
0.9086477759665414
 40
0.9086477759665414
 40
0.9086477759665414
 40
0.9086477759665414
 40
0.9086477759665414
 40
0.9086477759665414
 40
0.9086477759665414
 40
1.0
 40
1.0
 40
1.0
 40
1.0
 40
1.0
 40
1.0
 40
1.0
 40
1.0
 40
1.0
 10
52.94433034868328
 20
209.8999998400948
 30
665.0
 10
52.889157153073356
 20
210.13702737982882
 30
665.0
 10
52.833728923483456
 20
210.37399558410533
 30
665.0
 10
52.778042388582456
 20
210.61090341131344
 30
665.0
 10
52.72209418551035
 20
210.84774979283245
 30
665.0
 10
52.665880855408815
 20
211.08453363208912
 30
665.0
 10
52.60939883860842
 20
211.32125380354242
 30
665.0
 10
52.55264446943576
 20
211.55790915158792
 30
665.0
 10
52.184946094420454
 20
213.08329498590086
 30
665.0
 10
51.86609495045395
 20
214.37008880343433
 30
665.0
 10
51.53844721634166
 20
215.65469970124224
 30
665.0
 10
51.20130132969956
 20
216.93688553976423
 30
665.0
 10
50.85383483511351
 20
218.21633315172195
 30
665.0
 10
50.495073834947604
 20
219.49265002633794
 30
665.0
 10
50.12382746277234
 20
220.7653464315832
 30
665.0
 10
49.571745103563686
 20
222.58297170939667
 30
665.0
 10
49.404335074127786
 20
223.12472143305922
 30
665.0
 10
49.23632025746337
 20
223.65892458738065
 30
665.0
 10
49.06770391364014
 20
224.18548262990436
 30
665.0
 10
48.89849251524618
 20
224.7043206586987
 30
665.0
 10
48.72869574738789
 20
225.21538741235705
 30
665.0
 10
48.558326507690005
 20
225.71865526999787
 30
665.0
 10
48.19509672089304
 20
226.7715557017807
 30
665.0
 10
48.00207669104757
 20
227.3192124062141
 30
665.0
 10
47.80835872203654
 20
227.85716955084442
 30
665.0
 10
47.61396071913697
 20
228.38550632195202
 30
665.0
 10
47.41890058762549
 20
228.9043019058181
 30
665.0
 10
47.22319623277838
 20
229.41363548872485
 30
665.0
 10
47.02686555987157
 20
229.9135862569553
 30
665.0
 10
46.744418760569936
 20
230.61726431937535
 30
665.0
 10
46.65820777967858
 20
230.8300077288696
 30
665.0
 10
46.57128064060165
 20
231.0424567129817
 30
665.0
 10
46.48362412874064
 20
231.2546037506246
 30
665.0
 10
46.395224680243594
 20
231.46644069935252
 30
665.0
 10
46.30606835638735
 20
231.67795878285844
 30
665.0
 10
46.21614081638306
 20
231.88914857778607
 30
665.0
 10
46.12542728708652
 20
232.09999999910784
 30
665.0
  0
LINE
  5
34
330
17
100
AcDbEntity
  8
0
100
AcDbLine
 10
26.524370102517317
 20
209.9
 30
665.0
 11
52.94433103564617
 21
209.9
 31
665.0
  0
SPLINE
  5
35
330
17
100
AcDbEntity
  8
0
100
AcDbSpline
 70
0
 71
1
 72
4
 73
2
 74
0
 40
0.0
 40
0.0
 40
1.0
 40
1.0
 10
26.524370064810242
 20
209.90000060000008
 30
665.0
 10
26.524370064810242
 20
206.09999939999994
 30
665.0
  0
LINE
  5
36
330
17
100
AcDbEntity
  8
0
100
AcDbLine
 10
26.524370102517317
 20
206.1
 30
665.0
 11
53.80020320296903
 21
206.1
 31
665.0
  0
SPLINE
  5
37
330
17
100
AcDbEntity
  8
0
100
AcDbSpline
 70
0
 71
8
 72
25
 73
16
 74
0
 40
0.0
 40
0.0
 40
0.0
 40
0.0
 40
0.0
 40
0.0
 40
0.0
 40
0.0
 40
0.0
 40
0.3397216060710752
 40
0.3397216060710752
 40
0.3397216060710752
 40
0.3397216060710752
 40
0.3397216060710752
 40
0.3397216060710752
 40
0.3397216060710752
 40
1.0
 40
1.0
 40
1.0
 40
1.0
 40
1.0
 40
1.0
 40
1.0
 40
1.0
 40
1.0
 10
57.94366882612219
 20
183.8999999933366
 30
665.0
 10
57.79096724367936
 20
184.84690751439385
 30
665.0
 10
57.63638374506655
 20
185.79351077778034
 30
665.0
 10
57.47987024083116
 20
186.73979743531942
 30
665.0
 10
57.321375477302524
 20
187.68575428578194
 30
665.0
 10
57.16084468855231
 20
188.6313672198637
 30
665.0
 10
56.99821918230219
 20
189.57662115469532
 30
665.0
 10
56.83343584344067
 20
190.52149995525394
 30
665.0
 10
56.34182947621191
 20
193.30167751215416
 30
665.0
 10
56.00883273613189
 20
195.1358347994823
 30
665.0
 10
55.6669319130212
 20
196.96836096647368
 30
665.0
 10
55.315552619478154
 20
198.79911751408176
 30
665.0
 10
54.95403769218353
 20
200.62792204571014
 30
665.0
 10
54.581618135058505
 20
202.45454205103306
 30
665.0
 10
54.19738252952183
 20
204.27868844423298
 30
665.0
 10
53.80020291011812
 20
206.0999999361369
 30
665.0
  0
LINE
  5
38
330
17
100
AcDbEntity
  8
0
100
AcDbLine
 10
26.524370102517317
 20
183.9
 30
665.0
 11
57.943668867442675
 21
183.9
 31
665.0
  0
SPLINE
  5
39
330
17
100
AcDbEntity
  8
0
100
AcDbSpline
 70
0
 71
1
 72
4
 73
2
 74
0
 40
0.0
 40
0.0
 40
1.0
 40
1.0
 10
26.524370064810242
 20
183.90000060000014
 30
665.0
 10
26.524370064810242
 20
180.0999993999999
 30
665.0
  0
LINE
  5
3A
330
17
100
AcDbEntity
  8
0
100
AcDbLine
 10
26.524370102517317
 20
180.1
 30
665.0
 11
58.54321884148302
 21
180.1
 31
665.0
  0
SPLINE
  5
3B
330
17
100
AcDbEntity
  8
0
100
AcDbSpline
 70
0
 71
8
 72
25
 73
16
 74
0
 40
0.0
 40
0.0
 40
0.0
 40
0.0
 40
0.0
 40
0.0
 40
0.0
 40
0.0
 40
0.0
 40
0.4847581620829433
 40
0.4847581620829433
 40
0.4847581620829433
 40
0.4847581620829433
 40
0.4847581620829433
 40
0.4847581620829433
 40
0.4847581620829433
 40
1.0
 40
1.0
 40
1.0
 40
1.0
 40
1.0
 40
1.0
 40
1.0
 40
1.0
 40
1.0
 10
61.59118336153419
 20
157.8999999963851
 30
665.0
 10
61.426684140939244
 20
159.24788419627978
 30
665.0
 10
61.25964537319422
 20
160.5954576823506
 30
665.0
 10
61.09001686241019
 20
161.94270856024661
 30
665.0
 10
60.91774449155604
 20
163.28962414672353
 30
665.0
 10
60.74276983325032
 20
164.636190923525
 30
665.0
 10
60.56502968454509
 20
165.98239448225186
 30
665.0
 10
60.38445550861235
 20
167.32821945814567
 30
665.0
 10
60.005951840761895
 20
170.10368586140336
 30
665.0
 10
59.80764602957166
 20
171.53326881198052
 30
665.0
 10
59.60596556282958
 20
172.96237999308556
 30
665.0
 10
59.400813294523346
 20
174.3909981251184
 30
665.0
 10
59.19208356248508
 20
175.81909877478483
 30
665.0
 10
58.97966104259393
 20
177.24665417263478
 30
665.0
 10
58.76341931177663
 20
178.67363298564587
 30
665.0
 10
58.54321883441524
 20
180.09999999890897
 30
665.0
  0
LINE
  5
3C
330
17
100
AcDbEntity
  8
0
100
AcDbLine
 10
26.524370102517317
 20
157.9
 30
665.0
 11
61.591183391153436
 21
157.9
 31
665.0
  0
SPLINE
  5
3D
330
17
100
AcDbEntity
  8
0
100
AcDbSpline
 70
0
 71
1
 72
4
 73
2
 74
0
 40
0.0
 40
0.0
 40
1.0
 40
1.0
 10
26.524370064810242
 20
157.90000060000042
 30
665.0
 10
26.524370064810242
 20
154.09999939999918
 30
665.0
  0
LINE
  5
3E
330
17
100
AcDbEntity
  8
0
100
AcDbLine
 10
26.524370102517317
 20
154.1
 30
665.0
 11
62.0461097671395
 21
154.1
 31
665.0
  0
SPLINE
  5
3F
330
17
100
AcDbEntity
  8
0
100
AcDbSpline
 70
0
 71
8
 72
25
 73
16
 74
0
 40
0.0
 40
0.0
 40
0.0
 40
0.0
 40
0.0
 40
0.0
 40
0.0
 40
0.0
 40
0.0
 40
0.1021089238109432
 40
0.1021089238109432
 40
0.1021089238109432
 40
0.1021089238109432
 40
0.1021089238109432
 40
0.1021089238109432
 40
0.1021089238109432
 40
1.0
 40
1.0
 40
1.0
 40
1.0
 40
1.0
 40
1.0
 40
1.0
 40
1.0
 40
1.0
 10
64.37842557478209
 20
131.8999999922734
 30
665.0
 10
64.35187768868764
 20
132.18429759928011
 30
665.0
 10
64.32524599569386
 20
132.46850049398847
 30
665.0
 10
64.29853062014918
 20
132.75260661525562
 30
665.0
 10
64.27173168932823
 20
133.03661388003832
 30
665.0
 10
64.24484933260413
 20
133.32052018332118
 30
665.0
 10
64.21788367955108
 20
133.60432339795193
 30
665.0
 10
64.19083485644268
 20
133.8880213743374
 30
665.0
 10
63.925119825682486
 20
136.6653551766391
 30
665.0
 10
63.67938751917957
 20
139.15840488898934
 30
665.0
 10
63.42638150173281
 20
141.65073131483595
 30
665.0
 10
63.1659543119024
 20
144.14229824438203
 30
665.0
 10
62.89793268608307
 20
146.63306266208969
 30
665.0
 10
62.62211462250032
 20
149.12297439262105
 30
665.0
 10
62.33826516626333
 20
151.61197559996484
 30
665.0
 10
62.046109672439755
 20
154.09999998888
 30
665.0
  0
LINE
  5
40
330
17
100
AcDbEntity
  8
0
100
AcDbLine
 10
26.524370102517317
 20
131.9
 30
665.0
 11
64.3784256575248
 21
131.9
 31
665.0
  0
SPLINE
  5
41
330
17
100
AcDbEntity
  8
0
100
AcDbSpline
 70
0
 71
1
 72
4
 73
2
 74
0
 40
0.0
 40
0.0
 40
1.0
 40
1.0
 10
26.524370064810242
 20
131.90000060000256
 30
665.0
 10
26.524370064810242
 20
128.09999939999764
 30
665.0
  0
LINE
  5
42
330
17
100
AcDbEntity
  8
0
100
AcDbLine
 10
26.524370102517317
 20
128.1
 30
665.0
 11
64.72607456147307
 21
128.1
 31
665.0
  0
SPLINE
  5
43
330
17
100
AcDbEntity
  8
0
100
AcDbSpline
 70
0
 71
8
 72
32
 73
23
 74
0
 40
0.0
 40
0.0
 40
0.0
 40
0.0
 40
0.0
 40
0.0
 40
0.0
 40
0.0
 40
0.0
 40
0.045156694480127206
 40
0.045156694480127206
 40
0.045156694480127206
 40
0.045156694480127206
 40
0.045156694480127206
 40
0.045156694480127206
 40
0.045156694480127206
 40
0.7492579146783985
 40
0.7492579146783985
 40
0.7492579146783985
 40
0.7492579146783985
 40
0.7492579146783985
 40
0.7492579146783985
 40
0.7492579146783985
 40
1.0
 40
1.0
 40
1.0
 40
1.0
 40
1.0
 40
1.0
 40
1.0
 40
1.0
 40
1.0
 10
66.48118990447608
 20
105.9000000015534
 30
665.0
 10
66.47254040967884
 20
106.02545206392927
 30
665.0
 10
66.46387529504563
 20
106.15090304901541
 30
665.0
 10
66.45519454616856
 20
106.2763529535534
 30
665.0
 10
66.44649814862595
 20
106.40180177427695
 30
665.0
 10
66.43778608798226
 20
106.52724950791205
 30
665.0
 10
66.42905834978812
 20
106.6526961511769
 30
665.0
 10
66.42031491958029
 20
106.7781417007819
 30
665.0
 10
66.2749798242482
 20
108.85956617351917
 30
665.0
 10
66.13458516301411
 20
110.81527938519815
 30
665.0
 10
65.99031688100108
 20
112.77071326555262
 30
665.0
 10
65.84211910370125
 20
114.7258547173681
 30
665.0
 10
65.68993500027706
 20
116.68069006912964
 30
665.0
 10
65.53370678356134
 20
118.63520507502184
 30
665.0
 10
65.37337571005737
 20
120.5893849149288
 30
665.0
 10
65.15030317870288
 20
123.23900510325768
 30
665.0
 10
65.09121762404786
 20
123.93450356216316
 30
665.0
 10
65.03162409269959
 20
124.62968625245546
 30
665.0
 10
64.97152320890038
 20
125.32452924716802
 30
665.0
 10
64.91091630685322
 20
126.01900790561726
 30
665.0
 10
64.84980487489901
 20
126.71309682642655
 30
665.0
 10
64.78819041400098
 20
127.4067698359961
 30
665.0
 10
64.72607444311144
 20
128.0999999893944
 30
665.0
  0
LINE
  5
44
330
17
100
AcDbEntity
  8
0
100
AcDbLine
 10
26.524370102517317
 20
105.9
 30
665.0
 11
66.48118988194587
 21
105.9
 31
665.0
  0
SPLINE
  5
45
330
17
100
AcDbEntity
  8
0
100
AcDbSpline
 70
0
 71
1
 72
4
 73
2
 74
0
 40
0.0
 40
0.0
 40
1.0
 40
1.0
 10
26.524370064810242
 20
105.90000060000206
 30
665.0
 10
26.524370064810242
 20
102.09999939999993
 30
665.0
  0
LINE
  5
46
330
17
100
AcDbEntity
  8
0
100
AcDbLine
 10
26.524370102517317
 20
102.1
 30
665.0
 11
66.73693282809579
 21
102.1
 31
665.0
  0
SPLINE
  5
47
330
17
100
AcDbEntity
  8
0
100
AcDbSpline
 70
0
 71
8
 72
25
 73
16
 74
0
 40
0.0
 40
0.0
 40
0.0
 40
0.0
 40
0.0
 40
0.0
 40
0.0
 40
0.0
 40
0.0
 40
0.2831855113468564
 40
0.2831855113468564
 40
0.2831855113468564
 40
0.2831855113468564
 40
0.2831855113468564
 40
0.2831855113468564
 40
0.2831855113468564
 40
1.0
 40
1.0
 40
1.0
 40
1.0
 40
1.0
 40
1.0
 40
1.0
 40
1.0
 40
1.0
 10
67.99304036829692
 20
79.90000000544691
 30
665.0
 10
67.95540171804265
 20
80.68620511950286
 30
665.0
 10
67.91723340741353
 20
81.47238503766579
 30
665.0
 10
67.87853232241527
 20
82.25853922498521
 30
665.0
 10
67.83929533059306
 20
83.04466713979753
 30
665.0
 10
67.79951928075778
 20
83.83076823371906
 30
665.0
 10
67.75920100270888
 20
84.61684195163895
 30
665.0
 10
67.71833730695418
 20
85.40288773171198
 30
665.0
 10
67.57209987294615
 20
88.17851445746166
 30
665.0
 10
67.46375963098909
 20
90.16793853042742
 30
665.0
 10
67.35185235685131
 20
92.15716730129913
 30
665.0
 10
67.23632527674249
 20
94.14619035689238
 30
665.0
 10
67.11712474478611
 20
96.13499679378799
 30
665.0
 10
66.99419624301942
 20
98.12357521833201
 30
665.0
 10
66.86748438139344
 20
100.11191374663566
 30
665.0
 10
66.73693289777293
 20
102.10000000457543
 30
665.0
  0
LINE
  5
48
330
17
100
AcDbEntity
  8
0
100
AcDbLine
 10
26.524370102517317
 20
79.9
 30
665.0
 11
67.99304025451936
 21
79.9
 31
665.0
  0
SPLINE
  5
49
330
17
100
AcDbEntity
  8
0
100
AcDbSpline
 70
0
 71
1
 72
4
 73
2
 74
0
 40
0.0
 40
0.0
 40
1.0
 40
1.0
 10
26.524370064810242
 20
79.90000060000001
 30
665.0
 10
26.524370064810242
 20
76.09999939999999
 30
665.0
  0
LINE
  5
4A
330
17
100
AcDbEntity
  8
0
100
AcDbLine
 10
26.524370102517317
 20
76.1
 30
665.0
 11
68.16957445818055
 21
76.1
 31
665.0
  0
SPLINE
  5
4B
330
17
100
AcDbEntity
  8
0
100
AcDbSpline
 70
0
 71
8
 72
18
 73
9
 74
0
 40
0.0
 40
0.0
 40
0.0
 40
0.0
 40
0.0
 40
0.0
 40
0.0
 40
0.0
 40
0.0
 40
1.0
 40
1.0
 40
1.0
 40
1.0
 40
1.0
 40
1.0
 40
1.0
 40
1.0
 40
1.0
 10
68.99599375775291
 20
53.89999999878053
 30
665.0
 10
68.91346624268259
 20
56.6757254808811
 30
665.0
 10
68.8252527383194
 20
59.45128114908756
 30
665.0
 10
68.7312312901245
 20
62.22664955304036
 30
665.0
 10
68.63127773443323
 20
65.00181221862098
 30
665.0
 10
68.52526557024737
 20
67.77674964480147
 30
665.0
 10
68.41306582491106
 20
70.55144130030516
 30
665.0
 10
68.29454691367036
 20
73.32586562007843
 30
665.0
 10
68.1695744931168
 20
76.10000000157386
 30
665.0
  0
LINE
  5
4C
330
17
100
AcDbEntity
  8
0
100
AcDbLine
 10
26.524370102517317
 20
53.9
 30
665.0
 11
68.99599379876884
 21
53.9
 31
665.0
  0
SPLINE
  5
4D
330
17
100
AcDbEntity
  8
0
100
AcDbSpline
 70
0
 71
1
 72
4
 73
2
 74
0
 40
0.0
 40
0.0
 40
1.0
 40
1.0
 10
26.524370064810242
 20
53.90000060000026
 30
665.0
 10
26.524370064810242
 20
50.09999939999937
 30
665.0
  0
LINE
  5
4E
330
17
100
AcDbEntity
  8
0
100
AcDbLine
 10
26.524370102517317
 20
50.1
 30
665.0
 11
69.10434305198288
 21
50.1
 31
665.0
  0
SPLINE
  5
4F
330
17
100
AcDbEntity
  8
0
100
AcDbSpline
 70
0
 71
8
 72
18
 73
9
 74
0
 40
0.0
 40
0.0
 40
0.0
 40
0.0
 40
0.0
 40
0.0
 40
0.0
 40
0.0
 40
0.0
 40
1.0
 40
1.0
 40
1.0
 40
1.0
 40
1.0
 40
1.0
 40
1.0
 40
1.0
 40
1.0
 10
69.56137575993063
 20
27.900000002007616
 30
665.0
 10
69.52206712559928
 20
30.67532766457522
 30
665.0
 10
69.47789233486473
 20
33.45058719894702
 30
665.0
 10
69.42874086547266
 20
36.22576712355904
 30
665.0
 10
69.37450053930247
 20
39.000854948243926
 30
665.0
 10
69.31505741589746
 20
41.77583717174956
 30
665.0
 10
69.2502956798964
 20
44.55069927906946
 30
665.0
 10
69.1800975223667
 20
47.32542573858488
 30
665.0
 10
69.10434301603892
 20
50.09999999901865
 30
665.0
  0
LINE
  5
50
330
17
100
AcDbEntity
  8
0
100
AcDbLine
 10
26.524370102517317
 20
27.9
 30
665.0
 11
69.56137561818457
 21
27.9
 31
665.0
  0
SPLINE
  5
51
330
17
100
AcDbEntity
  8
0
100
AcDbSpline
 70
0
 71
1
 72
4
 73
2
 74
0
 40
0.0
 40
0.0
 40
1.0
 40
1.0
 10
26.524370064810242
 20
27.900000600000002
 30
665.0
 10
26.524370064810242
 20
24.099999399999998
 30
665.0
  0
LINE
  5
52
330
17
100
AcDbEntity
  8
0
100
AcDbLine
 10
26.524370102517317
 20
24.1
 30
665.0
 11
69.61123653457908
 21
24.1
 31
665.0
  0
SPLINE
  5
53
330
17
100
AcDbEntity
  8
0
100
AcDbSpline
 70
0
 71
8
 72
18
 73
9
 74
0
 40
0.0
 40
0.0
 40
0.0
 40
0.0
 40
0.0
 40
0.0
 40
0.0
 40
0.0
 40
0.0
 40
1.0
 40
1.0
 40
1.0
 40
1.0
 40
1.0
 40
1.0
 40
1.0
 40
1.0
 40
1.0
 10
69.75251626085087
 20
1.8999999998919503
 30
665.0
 10
69.74999844635411
 20
4.675076421870687
 30
665.0
 10
69.74336175598654
 20
7.4501447155685785
 30
665.0
 10
69.73250405943521
 20
10.225199276816475
 30
665.0
 10
69.71732201996687
 20
13.000233503685582
 30
665.0
 10
69.69771100946346
 20
15.77523979466925
 30
665.0
 10
69.67356501736617
 20
18.550209546676733
 30
665.0
 10
69.64477655352792
 20
21.32513315283885
 30
665.0
 10
69.61123654497453
 20
24.100000000125625
 30
665.0
  0
LINE
  5
54
330
17
100
AcDbEntity
  8
0
100
AcDbLine
 10
26.524370102517317
 20
1.9
 30
665.0
 11
69.75251637993962
 21
1.9
 31
665.0
  0
SPLINE
  5
55
330
17
100
AcDbEntity
  8
0
100
AcDbSpline
 70
0
 71
1
 72
4
 73
2
 74
0
 40
0.0
 40
0.0
 40
0.9999993684216398
 40
0.9999993684216398
 10
26.524370064810242
 20
1.9000006000000558
 30
665.0
 10
26.524370064810242
 20
-6.553790374438061e-17
 30
665.0
  0
SPLINE
  5
56
330
17
100
AcDbEntity
  8
0
100
AcDbSpline
 70
0
 71
1
 72
4
 73
2
 74
0
 40
0.0
 40
0.0
 40
1.0
 40
1.0
 10
26.524370064810242
 20
-1.9000006000000011
 30
665.0
 10
26.524370064810242
 20
1.2000000211287443e-06
 30
665.0
  0
LINE
  5
57
330
17
100
AcDbEntity
  8
0
100
AcDbLine
 10
26.524370102517327
 20
-1.9
 30
665.0
 11
69.75260659969032
 21
-1.9
 31
665.0
  0
SPLINE
  5
58
330
17
100
AcDbEntity
  8
0
100
AcDbSpline
 70
0
 71
8
 72
18
 73
9
 74
0
 40
0.0
 40
0.0
 40
0.0
 40
0.0
 40
0.0
 40
0.0
 40
0.0
 40
0.0
 40
0.0
 40
1.0
 40
1.0
 40
1.0
 40
1.0
 40
1.0
 40
1.0
 40
1.0
 40
1.0
 40
1.0
 10
69.6123285858854
 20
-24.10000000002203
 30
665.0
 10
69.64575502822892
 20
-21.32514632403291
 30
665.0
 10
69.67442512326146
 20
-18.550235147092874
 30
665.0
 10
69.69844869482742
 20
-15.775275871957374
 30
665.0
 10
69.71793397105405
 20
-13.00027665384442
 30
665.0
 10
69.7329876875431
 20
-10.225244404183307
 30
665.0
 10
69.74371518790785
 20
-7.45018479426778
 30
665.0
 10
69.7502205232423
 20
-4.675102258880931
 30
665.0
 10
69.75260655210863
 20
-1.8999999999590766
 30
665.0
  0
LINE
  5
59
330
17
100
AcDbEntity
  8
0
100
AcDbLine
 10
26.524370102517327
 20
-24.1
 30
665.0
 11
69.6123285840566
 21
-24.1
 31
665.0
  0
SPLINE
  5
5A
330
17
100
AcDbEntity
  8
0
100
AcDbSpline
 70
0
 71
1
 72
4
 73
2
 74
0
 40
0.0
 40
0.0
 40
1.0
 40
1.0
 10
26.524370064810242
 20
-27.900000600000034
 30
665.0
 10
26.524370064810242
 20
-24.099999399999938
 30
665.0
  0
LINE
  5
5B
330
17
100
AcDbEntity
  8
0
100
AcDbLine
 10
26.524370102517327
 20
-27.9
 30
665.0
 11
69.56261891465947
 21
-27.9
 31
665.0
  0
SPLINE
  5
5C
330
17
100
AcDbEntity
  8
0
100
AcDbSpline
 70
0
 71
8
 72
18
 73
9
 74
0
 40
0.0
 40
0.0
 40
0.0
 40
0.0
 40
0.0
 40
0.0
 40
0.0
 40
0.0
 40
0.0
 40
1.0
 40
1.0
 40
1.0
 40
1.0
 40
1.0
 40
1.0
 40
1.0
 40
1.0
 40
1.0
 10
69.10624366106741
 20
-50.10000000057606
 30
665.0
 10
69.18194652300028
 20
-47.32541670789895
 30
665.0
 10
69.25208273368635
 20
-44.55068396997345
 30
665.0
 10
69.31677300722384
 20
-41.77581855968728
 30
665.0
 10
69.37613594478083
 20
-39.000835982615925
 30
665.0
 10
69.43028815376299
 20
-36.22575048138838
 30
665.0
 10
69.47934436060228
 20
-33.45057503979944
 30
665.0
 10
69.52341751875535
 20
-30.67532138673581
 30
665.0
 10
69.56261891350039
 20
-27.8999999999836
 30
665.0
  0
LINE
  5
5D
330
17
100
AcDbEntity
  8
0
100
AcDbLine
 10
26.524370102517327
 20
-50.1
 30
665.0
 11
69.10624363995353
 21
-50.1
 31
665.0
  0
SPLINE
  5
5E
330
17
100
AcDbEntity
  8
0
100
AcDbSpline
 70
0
 71
1
 72
4
 73
2
 74
0
 40
0.0
 40
0.0
 40
1.0
 40
1.0
 10
26.524370064810242
 20
-53.9000006
 30
665.0
 10
26.524370064810242
 20
-50.0999994
 30
665.0
  0
LINE
  5
5F
330
17
100
AcDbEntity
  8
0
100
AcDbLine
 10
26.524370102517327
 20
-53.9
 30
665.0
 11
68.99795703597741
 21
-53.9
 31
665.0
  0
SPLINE
  5
60
330
17
100
AcDbEntity
  8
0
100
AcDbSpline
 70
0
 71
8
 72
18
 73
9
 74
0
 40
0.0
 40
0.0
 40
0.0
 40
0.0
 40
0.0
 40
0.0
 40
0.0
 40
0.0
 40
0.0
 40
1.0
 40
1.0
 40
1.0
 40
1.0
 40
1.0
 40
1.0
 40
1.0
 40
1.0
 40
1.0
 10
68.17149987904828
 20
-76.09999999989347
 30
665.0
 10
68.29652625800678
 20
-73.32586980070606
 30
665.0
 10
68.41508361788463
 20
-70.5514457143956
 30
665.0
 10
68.52730699856042
 20
-67.77675203779974
 30
665.0
 10
68.63332870046882
 20
-65.00181177498825
 30
665.0
 10
68.73327843308911
 20
-62.22664664281048
 30
665.0
 10
68.82728345330258
 20
-59.45127707603018
 30
665.0
 10
68.91546869521304
 20
-56.67572223211553
 30
665.0
 10
68.99795689302428
 20
-53.899999995751756
 30
665.0
  0
LINE
  5
61
330
17
100
AcDbEntity
  8
0
100
AcDbLine
 10
26.524370102517327
 20
-76.1
 30
665.0
 11
68.17149988141202
 21
-76.1
 31
665.0
  0
SPLINE
  5
62
330
17
100
AcDbEntity
  8
0
100
AcDbSpline
 70
0
 71
1
 72
4
 73
2
 74
0
 40
0.0
 40
0.0
 40
1.0
 40
1.0
 10
26.524370064810242
 20
-79.90000060000018
 30
665.0
 10
26.524370064810242
 20
-76.09999939999999
 30
665.0
  0
LINE
  5
63
330
17
100
AcDbEntity
  8
0
100
AcDbLine
 10
26.524370102517327
 20
-79.9
 30
665.0
 11
67.99487846399357
 21
-79.9
 31
665.0
  0
SPLINE
  5
64
330
17
100
AcDbEntity
  8
0
100
AcDbSpline
 70
0
 71
8
 72
18
 73
9
 74
0
 40
0.0
 40
0.0
 40
0.0
 40
0.0
 40
0.0
 40
0.0
 40
0.0
 40
0.0
 40
0.0
 40
1.0
 40
1.0
 40
1.0
 40
1.0
 40
1.0
 40
1.0
 40
1.0
 40
1.0
 40
1.0
 10
66.73767200938617
 20
-102.10000000128105
 30
665.0
 10
66.92000549365267
 20
-99.326511010098
 30
665.0
 10
67.09484494090074
 20
-96.55252951654145
 30
665.0
 10
67.26234408735232
 20
-93.77808756568132
 30
665.0
 10
67.42265312681192
 20
-91.00321587510906
 30
665.0
 10
67.57591890222834
 20
-88.22794384224792
 30
665.0
 10
67.72228508331159
 20
-85.45229955108876
 30
665.0
 10
67.86189233180963
 20
-82.67630977842
 30
665.0
 10
67.9948784560491
 20
-79.89999999961945
 30
665.0
  0
LINE
  5
65
330
17
100
AcDbEntity
  8
0
100
AcDbLine
 10
26.524370102517327
 20
-102.1
 30
665.0
 11
66.73767198989938
 21
-102.1
 31
665.0
  0
SPLINE
  5
66
330
17
100
AcDbEntity
  8
0
100
AcDbSpline
 70
0
 71
1
 72
4
 73
2
 74
0
 40
0.0
 40
0.0
 40
1.0
 40
1.0
 10
26.524370064810242
 20
-105.90000060000003
 30
665.0
 10
26.524370064810242
 20
-102.09999939999999
 30
665.0
  0
LINE
  5
67
330
17
100
AcDbEntity
  8
0
100
AcDbLine
 10
26.524370102517327
 20
-105.9
 30
665.0
 11
66.48162760489265
 21
-105.9
 31
665.0
  0
SPLINE
  5
68
330
17
100
AcDbEntity
  8
0
100
AcDbSpline
 70
0
 71
8
 72
25
 73
16
 74
0
 40
0.0
 40
0.0
 40
0.0
 40
0.0
 40
0.0
 40
0.0
 40
0.0
 40
0.0
 40
0.0
 40
0.3386526094088226
 40
0.3386526094088226
 40
0.3386526094088226
 40
0.3386526094088226
 40
0.3386526094088226
 40
0.3386526094088226
 40
0.3386526094088226
 40
1.0
 40
1.0
 40
1.0
 40
1.0
 40
1.0
 40
1.0
 40
1.0
 40
1.0
 40
1.0
 10
64.72396002727511
 20
-128.09999999768178
 30
665.0
 10
64.80793070333156
 20
-127.16440742508367
 30
665.0
 10
64.89098737969962
 20
-126.22798605461419
 30
665.0
 10
64.97312176093669
 20
-125.29084050645693
 30
665.0
 10
65.05432907537255
 20
-124.35304751178543
 30
665.0
 10
65.13460807510927
 20
-123.41465591276358
 30
665.0
 10
65.21396103602112
 20
-122.47568666254514
 30
665.0
 10
65.29239375775477
 20
-121.53613282527428
 30
665.0
 10
65.52130622977046
 20
-118.75991547726555
 30
665.0
 10
65.6690494454894
 20
-116.92357844110556
 30
665.0
 10
65.8131946894565
 20
-115.08695942615428
 30
665.0
 10
65.95379062128764
 20
-113.25006912956832
 30
665.0
 10
66.09088511103957
 20
-111.41291798824875
 30
665.0
 10
66.2245252671961
 20
-109.57551617991979
 30
665.0
 10
66.35475746333537
 20
-107.73787362415305
 30
665.0
 10
66.4816273635683
 20
-105.89999998334117
 30
665.0
  0
LINE
  5
69
330
17
100
AcDbEntity
  8
0
100
AcDbLine
 10
26.524370102517327
 20
-128.1
 30
665.0
 11
64.72396005310426
 21
-128.1
 31
665.0
  0
SPLINE
  5
6A
330
17
100
AcDbEntity
  8
0
100
AcDbSpline
 70
0
 71
1
 72
4
 73
2
 74
0
 40
0.0
 40
0.0
 40
1.0
 40
1.0
 10
26.524370064810242
 20
-131.9000006
 30
665.0
 10
26.524370064810242
 20
-128.09999939999992
 30
665.0
  0
LINE
  5
6B
330
17
100
AcDbEntity
  8
0
100
AcDbLine
 10
26.524370102517327
 20
-131.9
 30
665.0
 11
64.37572995733436
 21
-131.9
 31
665.0
  0
SPLINE
  5
6C
330
17
100
AcDbEntity
  8
0
100
AcDbSpline
 70
0
 71
8
 72
18
 73
9
 74
0
 40
0.0
 40
0.0
 40
0.0
 40
0.0
 40
0.0
 40
0.0
 40
0.0
 40
0.0
 40
0.0
 40
1.0
 40
1.0
 40
1.0
 40
1.0
 40
1.0
 40
1.0
 40
1.0
 40
1.0
 40
1.0
 10
62.0393273272843
 20
-154.10000000153963
 30
665.0
 10
62.36531490196689
 20
-151.32871678999985
 30
665.0
 10
62.6809844205244
 20
-148.5562168302202
 30
665.0
 10
62.98671360435167
 20
-145.78259174213628
 30
665.0
 10
63.282819020570116
 20
-143.00792087890835
 30
665.0
 10
63.56956769850805
 20
-140.23227268161193
 30
665.0
 10
63.84718403183017
 20
-137.45570548504352
 30
665.0
 10
64.11585415350228
 20
-134.6782680379835
 30
665.0
 10
64.37572997077734
 20
-131.90000000125752
 30
665.0
  0
LINE
  5
6D
330
17
100
AcDbEntity
  8
0
100
AcDbLine
 10
26.524370102517327
 20
-154.1
 30
665.0
 11
62.039327314195994
 21
-154.1
 31
665.0
  0
SPLINE
  5
6E
330
17
100
AcDbEntity
  8
0
100
AcDbSpline
 70
0
 71
1
 72
4
 73
2
 74
0
 40
0.0
 40
0.0
 40
1.0
 40
1.0
 10
26.524370064810242
 20
-157.90000060000003
 30
665.0
 10
26.524370064810242
 20
-154.0999994
 30
665.0
  0
LINE
  5
6F
330
17
100
AcDbEntity
  8
0
100
AcDbLine
 10
26.524370102517327
 20
-157.9
 30
665.0
 11
61.58360778530365
 21
-157.9
 31
665.0
  0
SPLINE
  5
70
330
17
100
AcDbEntity
  8
0
100
AcDbSpline
 70
0
 71
8
 72
25
 73
16
 74
0
 40
0.0
 40
0.0
 40
0.0
 40
0.0
 40
0.0
 40
0.0
 40
0.0
 40
0.0
 40
0.0
 40
0.5151718733698105
 40
0.5151718733698105
 40
0.5151718733698105
 40
0.5151718733698105
 40
0.5151718733698105
 40
0.5151718733698105
 40
0.5151718733698105
 40
1.0
 40
1.0
 40
1.0
 40
1.0
 40
1.0
 40
1.0
 40
1.0
 40
1.0
 40
1.0
 10
58.53071210156179
 20
-180.10000000162495
 30
665.0
 10
58.75120616733747
 20
-178.6738324313426
 30
665.0
 10
58.96774297208222
 20
-177.24705256096684
 30
665.0
 10
59.180461612707816
 20
-175.81969557521356
 30
665.0
 10
59.38948811722798
 20
-174.39179271869227
 30
665.0
 10
59.59493744695037
 20
-172.96337161487423
 30
665.0
 10
59.796914922442284
 20
-171.53445649361495
 30
665.0
 10
59.995517370766386
 20
-170.10506837558995
 30
665.0
 10
60.37464699878529
 20
-167.32960025029465
 30
665.0
 10
60.555548753297316
 20
-165.9835801701795
 30
665.0
 10
60.73361389715368
 20
-164.6371811251022
 30
665.0
 10
60.90891079691707
 20
-163.29041823308114
 30
665.0
 10
61.08150249273486
 20
-161.94330570265765
 30
665.0
 10
61.25144724655167
 20
-160.59585689694006
 30
665.0
 10
61.41879900352915
 20
-159.24808438744682
 30
665.0
 10
61.58360778082479
 20
-157.8999999994525
 30
665.0
  0
LINE
  5
71
330
17
100
AcDbEntity
  8
0
100
AcDbLine
 10
26.524370102517327
 20
-180.1
 30
665.0
 11
58.530712091051285
 21
-180.1
 31
665.0
  0
SPLINE
  5
72
330
17
100
AcDbEntity
  8
0
100
AcDbSpline
 70
0
 71
1
 72
4
 73
2
 74
0
 40
0.0
 40
0.0
 40
1.0
 40
1.0
 10
26.524370064810242
 20
-183.9000006000001
 30
665.0
 10
26.524370064810242
 20
-180.09999939999994
 30
665.0
  0
LINE
  5
73
330
17
100
AcDbEntity
  8
0
100
AcDbLine
 10
26.524370102517327
 20
-183.9
 30
665.0
 11
57.930299026627594
 21
-183.9
 31
665.0
  0
SPLINE
  5
74
330
17
100
AcDbEntity
  8
0
100
AcDbSpline
 70
0
 71
8
 72
25
 73
16
 74
0
 40
0.0
 40
0.0
 40
0.0
 40
0.0
 40
0.0
 40
0.0
 40
0.0
 40
0.0
 40
0.0
 40
0.6246283340339366
 40
0.6246283340339366
 40
0.6246283340339366
 40
0.6246283340339366
 40
0.6246283340339366
 40
0.6246283340339366
 40
0.6246283340339366
 40
1.0
 40
1.0
 40
1.0
 40
1.0
 40
1.0
 40
1.0
 40
1.0
 40
1.0
 40
1.0
 10
53.78212126379454
 20
-206.0999998744945
 30
665.0
 10
54.15817477613328
 20
-204.37702512003145
 30
665.0
 10
54.52265819976749
 20
-202.65151493244133
 30
665.0
 10
54.87652425461779
 20
-200.92377512825064
 30
665.0
 10
55.2205524561779
 20
-199.19405301566186
 30
665.0
 10
55.555405559017785
 20
-197.46254937064143
 30
665.0
 10
55.881656474937934
 20
-195.72942410351084
 30
665.0
 10
56.199803371623304
 20
-193.99479947965457
 30
665.0
 10
56.69687862278297
 20
-191.21549116604518
 30
665.0
 10
56.880697438724425
 20
-190.17172406198847
 30
665.0
 10
57.06184242016391
 20
-189.12748771947034
 30
665.0
 10
57.24040102492273
 20
-188.08280461930315
 30
665.0
 10
57.41645389334309
 20
-187.03769561547819
 30
665.0
 10
57.59007569760283
 20
-185.99218007066534
 30
665.0
 10
57.76133583523058
 20
-184.9462759667354
 30
665.0
 10
57.93029900110176
 20
-183.89999999587786
 30
665.0
  0
LINE
  5
75
330
17
100
AcDbEntity
  8
0
100
AcDbLine
 10
26.524370102517327
 20
-206.1
 30
665.0
 11
53.78212183882628
 21
-206.1
 31
665.0
  0
SPLINE
  5
76
330
17
100
AcDbEntity
  8
0
100
AcDbSpline
 70
0
 71
1
 72
4
 73
2
 74
0
 40
0.0
 40
0.0
 40
1.0
 40
1.0
 10
26.524370064810242
 20
-209.90000060000008
 30
665.0
 10
26.524370064810242
 20
-206.09999939999992
 30
665.0
  0
LINE
  5
77
330
17
100
AcDbEntity
  8
0
100
AcDbLine
 10
26.524370102517327
 20
-209.9
 30
665.0
 11
52.925578729519444
 21
-209.9
 31
665.0
  0
SPLINE
  5
78
330
17
100
AcDbEntity
  8
0
100
AcDbSpline
 70
0
 71
8
 72
46
 73
37
 74
0
 40
0.0
 40
0.0
 40
0.0
 40
0.0
 40
0.0
 40
0.0
 40
0.0
 40
0.0
 40
0.0
 40
0.08954431034389841
 40
0.08954431034389841
 40
0.08954431034389841
 40
0.08954431034389841
 40
0.08954431034389841
 40
0.08954431034389841
 40
0.08954431034389841
 40
0.273225614592368
 40
0.273225614592368
 40
0.273225614592368
 40
0.273225614592368
 40
0.273225614592368
 40
0.273225614592368
 40
0.273225614592368
 40
0.41098978405994263
 40
0.41098978405994263
 40
0.41098978405994263
 40
0.41098978405994263
 40
0.41098978405994263
 40
0.41098978405994263
 40
0.41098978405994263
 40
0.9193962010482823
 40
0.9193962010482823
 40
0.9193962010482823
 40
0.9193962010482823
 40
0.9193962010482823
 40
0.9193962010482823
 40
0.9193962010482823
 40
1.0
 40
1.0
 40
1.0
 40
1.0
 40
1.0
 40
1.0
 40
1.0
 40
1.0
 40
1.0
 10
46.105533427705616
 20
-232.09999977259014
 30
665.0
 10
46.196032938426306
 20
-231.88957074292662
 30
665.0
 10
46.28575099954678
 20
-231.67880486489491
 30
665.0
 10
46.37470246405611
 20
-231.46771170981478
 30
665.0
 10
46.462901779531336
 20
-231.25630011294584
 30
665.0
 10
46.5503630169442
 20
-231.04457818821783
 30
665.0
 10
46.63709989745808
 20
-230.8325533420672
 30
665.0
 10
46.72312581898253
 20
-230.62023228730118
 30
665.0
 10
46.9834864492216
 20
-229.97149387392412
 30
665.0
 10
47.158042974519645
 20
-229.52801492913702
 30
665.0
 10
47.332110968301095
 20
-229.07712859520524
 30
665.0
 10
47.505677938719934
 20
-228.61877924378499
 30
665.0
 10
47.678731393929915
 20
-228.1529112465327
 30
665.0
 10
47.85125884208467
 20
-227.6794689751056
 30
665.0
 10
48.02324779133761
 20
-227.198396801161
 30
665.0
 10
48.32326719728551
 20
-226.34306232607128
 30
665.0
 10
48.45153481090046
 20
-225.9721872821653
 30
665.0
 10
48.57948548842665
 20
-225.59695415219343
 30
665.0
 10
48.70711595285126
 20
-225.21732880164708
 30
665.0
 10
48.83442275240899
 20
-224.83330277395487
 30
665.0
 10
48.96140226058194
 20
-224.44489329048193
 30
665.0
 10
49.08805067609966
 20
-224.05214325053046
 30
665.0
 10
49.6805121972624
 20
-222.18994677398675
 30
665.0
 10
50.125642974626714
 20
-220.7181330775494
 30
665.0
 10
50.55265757149377
 20
-219.24087892879558
 30
665.0
 10
50.96362935269089
 20
-217.75906981086493
 30
665.0
 10
51.36019099703228
 20
-216.27338754688083
 30
665.0
 10
51.743689622003025
 20
-214.7843536488396
 30
665.0
 10
52.115239738122106
 20
-213.2923439800648
 30
665.0
 10
52.53296848794163
 20
-211.56063451111805
 30
665.0
 10
52.5898564048415
 20
-211.32359044574855
 30
665.0
 10
52.64647143679347
 20
-211.08648133897975
 30
665.0
 10
52.70281725595385
 20
-210.84930835500046
 30
665.0
 10
52.758897429303225
 20
-210.61207262771705
 30
665.0
 10
52.81471542349922
 20
-210.3747752617878
 30
665.0
 10
52.87027460943814
 20
-210.13741733359433
 30
665.0
 10
52.92557826654227
 20
-209.89999989215477
 30
665.0
  0
LINE
  5
79
330
17
100
AcDbEntity
  8
0
100
AcDbLine
 10
26.524370102517327
 20
-232.1
 30
665.0
 11
46.10553395647791
 21
-232.1
 31
665.0
  0
SPLINE
  5
7A
330
17
100
AcDbEntity
  8
0
100
AcDbSpline
 70
0
 71
1
 72
4
 73
2
 74
0
 40
0.0
 40
0.0
 40
1.0
 40
1.0
 10
26.524370064810242
 20
-235.90000060000008
 30
665.0
 10
26.524370064810242
 20
-232.09999939999992
 30
665.0
  0
LINE
  5
7B
330
17
100
AcDbEntity
  8
0
100
AcDbLine
 10
26.524370102517327
 20
-235.9
 30
665.0
 11
44.320763038523765
 21
-235.9
 31
665.0
  0
SPLINE
  5
7C
330
17
100
AcDbEntity
  8
0
100
AcDbSpline
 70
0
 71
8
 72
74
 73
65
 74
0
 40
0.0
 40
0.0
 40
0.0
 40
0.0
 40
0.0
 40
0.0
 40
0.0
 40
0.0
 40
0.0
 40
0.027340212146300925
 40
0.027340212146300925
 40
0.027340212146300925
 40
0.027340212146300925
 40
0.027340212146300925
 40
0.027340212146300925
 40
0.027340212146300925
 40
0.04933649833558186
 40
0.04933649833558186
 40
0.04933649833558186
 40
0.04933649833558186
 40
0.04933649833558186
 40
0.04933649833558186
 40
0.04933649833558186
 40
0.0532499037494079
 40
0.0532499037494079
 40
0.0532499037494079
 40
0.0532499037494079
 40
0.0532499037494079
 40
0.0532499037494079
 40
0.0532499037494079
 40
0.0574645932296327
 40
0.0574645932296327
 40
0.0574645932296327
 40
0.0574645932296327
 40
0.0574645932296327
 40
0.0574645932296327
 40
0.0574645932296327
 40
0.06615258668240083
 40
0.06615258668240083
 40
0.06615258668240083
 40
0.06615258668240083
 40
0.06615258668240083
 40
0.06615258668240083
 40
0.06615258668240083
 40
0.07573229378055943
 40
0.07573229378055943
 40
0.07573229378055943
 40
0.07573229378055943
 40
0.07573229378055943
 40
0.07573229378055943
 40
0.07573229378055943
 40
0.08320936862939018
 40
0.08320936862939018
 40
0.08320936862939018
 40
0.08320936862939018
 40
0.08320936862939018
 40
0.08320936862939018
 40
0.08320936862939018
 40
0.09634974948967319
 40
0.09634974948967319
 40
0.09634974948967319
 40
0.09634974948967319
 40
0.09634974948967319
 40
0.09634974948967319
 40
0.09634974948967319
 40
0.10216311157954772
 40
0.10216311157954772
 40
0.10216311157954772
 40
0.10216311157954772
 40
0.10216311157954772
 40
0.10216311157954772
 40
0.10216311157954772
 40
0.10216311157954772
 40
0.10216311157954772
 10
7.835214540610927
 20
-224.73064115506003
 30
665.0
 10
8.620251825886122
 20
-226.3754599569275
 30
665.0
 10
9.425633520308487
 20
-228.0096340012385
 30
665.0
 10
10.255233946673044
 20
-229.63198951211243
 30
665.0
 10
11.113395517112721
 20
-231.24018585685832
 30
665.0
 10
12.005096792679723
 20
-232.83062661529144
 30
665.0
 10
12.936496361477268
 20
-234.39813610857874
 30
665.0
 10
13.915247161872344
 20
-235.9357880090146
 30
665.0
 10
15.787622954029118
 20
-238.6385609603966
 30
665.0
 10
16.658500368828378
 20
-239.81487394044916
 30
665.0
 10
17.57294213795278
 20
-240.9600730172838
 30
665.0
 10
18.53813503971071
 20
-242.06701688492205
 30
665.0
 10
19.561155622961394
 20
-243.12366796649204
 30
665.0
 10
20.648953761870438
 20
-244.11316312844713
 30
665.0
 10
21.808555152393417
 20
-245.01362264534146
 30
665.0
 10
23.265914042071586
 20
-245.93931781579033
 30
665.0
 10
23.486998243404546
 20
-246.07455986391335
 30
665.0
 10
23.709061788692907
 20
-246.2051947230938
 30
665.0
 10
23.932119621911056
 20
-246.3311903546748
 30
665.0
 10
24.156186687033866
 20
-246.45251471999939
 30
665.0
 10
24.381277928036685
 20
-246.5691357804105
 30
665.0
 10
24.607408288895325
 20
-246.681021497251
 30
665.0
 10
25.0792675437052
 20
-246.9035049602597
 30
665.0
 10
25.326280311407785
 20
-247.01386933923877
 30
665.0
 10
25.575601553326976
 20
-247.11904105946846
 30
665.0
 10
25.827081745958083
 20
-247.21895942268128
 30
665.0
 10
26.08080619532491
 20
-247.3131418953275
 30
665.0
 10
26.336407823594506
 20
-247.40200627755857
 30
665.0
 10
26.59398213736737
 20
-247.48482902099715
 30
665.0
 10
27.38807954814457
 20
-247.71954070247983
 30
665.0
 10
27.93082790835763
 20
-247.85143343378758
 30
665.0
 10
28.4803838732734
 20
-247.95473762902031
 30
665.0
 10
29.03520957399186
 20
-248.02713975152818
 30
665.0
 10
29.593452766551202
 20
-248.0666198364756
 30
665.0
 10
30.15292849761727
 20
-248.07166485954738
 30
665.0
 10
30.711095935416193
 20
-248.0415270337207
 30
665.0
 10
31.875819223494794
 20
-247.90485559914003
 30
665.0
 10
32.48187776805366
 20
-247.79074973272222
 30
665.0
 10
33.079183858665544
 20
-247.63454389686336
 30
665.0
 10
33.664668316720956
 20
-247.43800964478288
 30
665.0
 10
34.236049665212235
 20
-247.20389380623834
 30
665.0
 10
34.79169572484634
 20
-246.93552783066502
 30
665.0
 10
35.330512066980354
 20
-246.63650828812175
 30
665.0
 10
36.25877347063151
 20
-246.05595502356257
 30
665.0
 10
36.65525586194012
 20
-245.78485740309995
 30
665.0
 10
37.04124380184071
 20
-245.49868127681734
 30
665.0
 10
37.41682346081208
 20
-245.19889120054472
 30
665.0
 10
37.78219271486434
 20
-244.88684600592356
 30
665.0
 10
38.1376348393771
 20
-244.56376559335558
 30
665.0
 10
38.4835010571882
 20
-244.23070918775784
 30
665.0
 10
39.41192770774062
 20
-243.2872732048178
 30
665.0
 10
39.97502942052587
 20
-242.6582346171255
 30
665.0
 10
40.511943323826785
 20
-242.00615491375763
 30
665.0
 10
41.02476066178703
 20
-241.33488802829808
 30
665.0
 10
41.51538492013203
 20
-240.64756039506844
 30
665.0
 10
41.98559891761358
 20
-239.94662293270747
 30
665.0
 10
42.437090347532184
 20
-239.23387067728586
 30
665.0
 10
43.06366218951024
 20
-238.190434250944
 30
665.0
 10
43.252450838604624
 20
-237.8683858264289
 30
665.0
 10
43.437982466310764
 20
-237.54444538073696
 30
665.0
 10
43.62037886071196
 20
-237.2187246804072
 30
665.0
 10
43.79975298895441
 20
-236.8913273005503
 30
665.0
 10
43.97621023999557
 20
-236.56234925132503
 30
665.0
 10
44.14984942400015
 20
-236.23187948047723
 30
665.0
 10
44.32076358234399
 20
-235.90000028006145
 30
665.0
  0
SPLINE
  5
7D
330
17
100
AcDbEntity
  8
0
100
AcDbSpline
 70
0
 71
8
 72
417
 73
408
 74
0
 40
0.0
 40
0.0
 40
0.0
 40
0.0
 40
0.0
 40
0.0
 40
0.0
 40
0.0
 40
0.0
 40
0.0022997266398921794
 40
0.0022997266398921794
 40
0.0022997266398921794
 40
0.0022997266398921794
 40
0.0022997266398921794
 40
0.0022997266398921794
 40
0.0022997266398921794
 40
0.004701037925156457
 40
0.004701037925156457
 40
0.004701037925156457
 40
0.004701037925156457
 40
0.004701037925156457
 40
0.004701037925156457
 40
0.004701037925156457
 40
0.0073424803389468135
 40
0.0073424803389468135
 40
0.0073424803389468135
 40
0.0073424803389468135
 40
0.0073424803389468135
 40
0.0073424803389468135
 40
0.0073424803389468135
 40
0.009023398238636057
 40
0.009023398238636057
 40
0.009023398238636057
 40
0.009023398238636057
 40
0.009023398238636057
 40
0.009023398238636057
 40
0.009023398238636057
 40
0.01142470952392413
 40
0.01142470952392413
 40
0.01142470952392413
 40
0.01142470952392413
 40
0.01142470952392413
 40
0.01142470952392413
 40
0.01142470952392413
 40
0.014066151937753764
 40
0.014066151937753764
 40
0.014066151937753764
 40
0.014066151937753764
 40
0.014066151937753764
 40
0.014066151937753764
 40
0.014066151937753764
 40
0.01873392846527453
 40
0.01873392846527453
 40
0.01873392846527453
 40
0.01873392846527453
 40
0.01873392846527453
 40
0.01873392846527453
 40
0.01873392846527453
 40
0.026471319630074874
 40
0.026471319630074874
 40
0.026471319630074874
 40
0.026471319630074874
 40
0.026471319630074874
 40
0.026471319630074874
 40
0.026471319630074874
 40
0.04293472768525516
 40
0.04293472768525516
 40
0.04293472768525516
 40
0.04293472768525516
 40
0.04293472768525516
 40
0.04293472768525516
 40
0.04293472768525516
 40
0.05401971029386534
 40
0.05401971029386534
 40
0.05401971029386534
 40
0.05401971029386534
 40
0.05401971029386534
 40
0.05401971029386534
 40
0.05401971029386534
 40
0.059844027765995456
 40
0.059844027765995456
 40
0.059844027765995456
 40
0.059844027765995456
 40
0.059844027765995456
 40
0.059844027765995456
 40
0.059844027765995456
 40
0.06697259229085992
 40
0.06697259229085992
 40
0.06697259229085992
 40
0.06697259229085992
 40
0.06697259229085992
 40
0.06697259229085992
 40
0.06697259229085992
 40
0.10039053805587081
 40
0.10039053805587081
 40
0.10039053805587081
 40
0.10039053805587081
 40
0.10039053805587081
 40
0.10039053805587081
 40
0.10039053805587081
 40
0.18550797790133325
 40
0.18550797790133325
 40
0.18550797790133325
 40
0.18550797790133325
 40
0.18550797790133325
 40
0.18550797790133325
 40
0.18550797790133325
 40
0.2481623598894207
 40
0.2481623598894207
 40
0.2481623598894207
 40
0.2481623598894207
 40
0.2481623598894207
 40
0.2481623598894207
 40
0.2481623598894207
 40
0.310824893420812
 40
0.310824893420812
 40
0.310824893420812
 40
0.310824893420812
 40
0.310824893420812
 40
0.310824893420812
 40
0.310824893420812
 40
0.36077070443033155
 40
0.36077070443033155
 40
0.36077070443033155
 40
0.36077070443033155
 40
0.36077070443033155
 40
0.36077070443033155
 40
0.36077070443033155
 40
0.40393445569335285
 40
0.40393445569335285
 40
0.40393445569335285
 40
0.40393445569335285
 40
0.40393445569335285
 40
0.40393445569335285
 40
0.40393445569335285
 40
0.43439413828666124
 40
0.43439413828666124
 40
0.43439413828666124
 40
0.43439413828666124
 40
0.43439413828666124
 40
0.43439413828666124
 40
0.43439413828666124
 40
0.4458115983860791
 40
0.4458115983860791
 40
0.4458115983860791
 40
0.4458115983860791
 40
0.4458115983860791
 40
0.4458115983860791
 40
0.4458115983860791
 40
0.45684595221130453
 40
0.45684595221130453
 40
0.45684595221130453
 40
0.45684595221130453
 40
0.45684595221130453
 40
0.45684595221130453
 40
0.45684595221130453
 40
0.4696125188255205
 40
0.4696125188255205
 40
0.4696125188255205
 40
0.4696125188255205
 40
0.4696125188255205
 40
0.4696125188255205
 40
0.4696125188255205
 40
0.47614734884527626
 40
0.47614734884527626
 40
0.47614734884527626
 40
0.47614734884527626
 40
0.47614734884527626
 40
0.47614734884527626
 40
0.47614734884527626
 40
0.4797430837818384
 40
0.4797430837818384
 40
0.4797430837818384
 40
0.4797430837818384
 40
0.4797430837818384
 40
0.4797430837818384
 40
0.4797430837818384
 40
0.48333881871839635
 40
0.48333881871839635
 40
0.48333881871839635
 40
0.48333881871839635
 40
0.48333881871839635
 40
0.48333881871839635
 40
0.48333881871839635
 40
0.4851366861866692
 40
0.4851366861866692
 40
0.4851366861866692
 40
0.4851366861866692
 40
0.4851366861866692
 40
0.4851366861866692
 40
0.4851366861866692
 40
0.4881331319671035
 40
0.4881331319671035
 40
0.4881331319671035
 40
0.4881331319671035
 40
0.4881331319671035
 40
0.4881331319671035
 40
0.4881331319671035
 40
0.4911295777475301
 40
0.4911295777475301
 40
0.4911295777475301
 40
0.4911295777475301
 40
0.4911295777475301
 40
0.4911295777475301
 40
0.4911295777475301
 40
0.4943479158675731
 40
0.4943479158675731
 40
0.4943479158675731
 40
0.4943479158675731
 40
0.4943479158675731
 40
0.4943479158675731
 40
0.4943479158675731
 40
0.4974172438875615
 40
0.4974172438875615
 40
0.4974172438875615
 40
0.4974172438875615
 40
0.4974172438875615
 40
0.4974172438875615
 40
0.4974172438875615
 40
0.500443782691506
 40
0.500443782691506
 40
0.500443782691506
 40
0.500443782691506
 40
0.500443782691506
 40
0.500443782691506
 40
0.500443782691506
 40
0.5034703214954211
 40
0.5034703214954211
 40
0.5034703214954211
 40
0.5034703214954211
 40
0.5034703214954211
 40
0.5034703214954211
 40
0.5034703214954211
 40
0.505992437165332
 40
0.505992437165332
 40
0.505992437165332
 40
0.505992437165332
 40
0.505992437165332
 40
0.505992437165332
 40
0.505992437165332
 40
0.5085145528352271
 40
0.5085145528352271
 40
0.5085145528352271
 40
0.5085145528352271
 40
0.5085145528352271
 40
0.5085145528352271
 40
0.5085145528352271
 40
0.5134171492777775
 40
0.5134171492777775
 40
0.5134171492777775
 40
0.5134171492777775
 40
0.5134171492777775
 40
0.5134171492777775
 40
0.5134171492777775
 40
0.5215437744787693
 40
0.5215437744787693
 40
0.5215437744787693
 40
0.5215437744787693
 40
0.5215437744787693
 40
0.5215437744787693
 40
0.5215437744787693
 40
0.5388353773571557
 40
0.5388353773571557
 40
0.5388353773571557
 40
0.5388353773571557
 40
0.5388353773571557
 40
0.5388353773571557
 40
0.5388353773571557
 40
0.5504779909325992
 40
0.5504779909325992
 40
0.5504779909325992
 40
0.5504779909325992
 40
0.5504779909325992
 40
0.5504779909325992
 40
0.5504779909325992
 40
0.5565953011204079
 40
0.5565953011204079
 40
0.5565953011204079
 40
0.5565953011204079
 40
0.5565953011204079
 40
0.5565953011204079
 40
0.5565953011204079
 40
0.564082468762015
 40
0.564082468762015
 40
0.564082468762015
 40
0.564082468762015
 40
0.564082468762015
 40
0.564082468762015
 40
0.564082468762015
 40
0.5991820101624874
 40
0.5991820101624874
 40
0.5991820101624874
 40
0.5991820101624874
 40
0.5991820101624874
 40
0.5991820101624874
 40
0.5991820101624874
 40
0.688589727932395
 40
0.688589727932395
 40
0.688589727932395
 40
0.688589727932395
 40
0.688589727932395
 40
0.688589727932395
 40
0.688589727932395
 40
0.7544113115327802
 40
0.7544113115327802
 40
0.7544113115327802
 40
0.7544113115327802
 40
0.7544113115327802
 40
0.7544113115327802
 40
0.7544113115327802
 40
0.8202514935879027
 40
0.8202514935879027
 40
0.8202514935879027
 40
0.8202514935879027
 40
0.8202514935879027
 40
0.8202514935879027
 40
0.8202514935879027
 40
0.8727359637122929
 40
0.8727359637122929
 40
0.8727359637122929
 40
0.8727359637122929
 40
0.8727359637122929
 40
0.8727359637122929
 40
0.8727359637122929
 40
0.9180968878491511
 40
0.9180968878491511
 40
0.9180968878491511
 40
0.9180968878491511
 40
0.9180968878491511
 40
0.9180968878491511
 40
0.9180968878491511
 40
0.9491013022237224
 40
0.9491013022237224
 40
0.9491013022237224
 40
0.9491013022237224
 40
0.9491013022237224
 40
0.9491013022237224
 40
0.9491013022237224
 40
0.9601986407870783
 40
0.9601986407870783
 40
0.9601986407870783
 40
0.9601986407870783
 40
0.9601986407870783
 40
0.9601986407870783
 40
0.9601986407870783
 40
0.9699098210995104
 40
0.9699098210995104
 40
0.9699098210995104
 40
0.9699098210995104
 40
0.9699098210995104
 40
0.9699098210995104
 40
0.9699098210995104
 40
0.9811819018465873
 40
0.9811819018465873
 40
0.9811819018465873
 40
0.9811819018465873
 40
0.9811819018465873
 40
0.9811819018465873
 40
0.9811819018465873
 40
0.9869831851075094
 40
0.9869831851075094
 40
0.9869831851075094
 40
0.9869831851075094
 40
0.9869831851075094
 40
0.9869831851075094
 40
0.9869831851075094
 40
0.9901866733225517
 40
0.9901866733225517
 40
0.9901866733225517
 40
0.9901866733225517
 40
0.9901866733225517
 40
0.9901866733225517
 40
0.9901866733225517
 40
0.9928984155196359
 40
0.9928984155196359
 40
0.9928984155196359
 40
0.9928984155196359
 40
0.9928984155196359
 40
0.9928984155196359
 40
0.9928984155196359
 40
0.993831073693153
 40
0.993831073693153
 40
0.993831073693153
 40
0.993831073693153
 40
0.993831073693153
 40
0.993831073693153
 40
0.993831073693153
 40
0.9953855039823495
 40
0.9953855039823495
 40
0.9953855039823495
 40
0.9953855039823495
 40
0.9953855039823495
 40
0.9953855039823495
 40
0.9953855039823495
 40
0.9969399342715463
 40
0.9969399342715463
 40
0.9969399342715463
 40
0.9969399342715463
 40
0.9969399342715463
 40
0.9969399342715463
 40
0.9969399342715463
 40
0.9980280354739863
 40
0.9980280354739863
 40
0.9980280354739863
 40
0.9980280354739863
 40
0.9980280354739863
 40
0.9980280354739863
 40
0.9980280354739863
 40
1.0
 40
1.0
 40
1.0
 40
1.0
 40
1.0
 40
1.0
 40
1.0
 40
1.0
 40
1.0
 10
7.835214540610927
 20
224.73064115506006
 30
665.0
 10
7.835075506766731
 20
224.73078046177596
 30
665.0
 10
7.835103096811646
 20
224.73058467691013
 30
665.0
 10
7.835190708670312
 20
224.7303596511061
 30
665.0
 10
7.835265857495018
 20
224.7302564043287
 30
665.0
 10
7.835290175665701
 20
224.73027112586408
 30
665.0
 10
7.835259412789953
 20
224.7302451743194
 30
665.0
 10
7.83520343570301
 20
224.72986507762351
 30
665.0
 10
7.835168261146131
 20
224.7274068690435
 30
665.0
 10
7.835141606328328
 20
224.7255440708271
 30
665.0
 10
7.8351038136949205
 20
224.7229028953884
 30
665.0
 10
7.835052432926473
 20
224.71931209973832
 30
665.0
 10
7.834985013703554
 20
224.714600440888
 30
665.0
 10
7.834899105706731
 20
224.70859667584855
 30
665.0
 10
7.834792258616568
 20
224.70112956163092
 30
665.0
 10
7.834518761960406
 20
224.68201597822303
 30
665.0
 10
7.834347200617725
 20
224.6700262446779
 30
665.0
 10
7.834144076710427
 20
224.65583073019238
 30
665.0
 10
7.833906128863339
 20
224.63920151034802
 30
665.0
 10
7.833630095701302
 20
224.61991066072656
 30
665.0
 10
7.833312715849143
 20
224.59773025690984
 30
665.0
 10
7.832950727931703
 20
224.57243237447986
 30
665.0
 10
7.8322800522551725
 20
224.52556154372525
 30
665.0
 10
7.8319998487912095
 20
224.5059792484433
 30
665.0
 10
7.831699419722376
 20
224.484983466828
 30
665.0
 10
7.831377924589109
 20
224.4625154625344
 30
665.0
 10
7.831034522931842
 20
224.43851649921746
 30
665.0
 10
7.830668374291009
 20
224.41292784053178
 30
665.0
 10
7.830278638207043
 20
224.38569075013191
 30
665.0
 10
7.829272811382261
 20
224.31539755101545
 30
665.0
 10
7.828631295681518
 20
224.2705645939122
 30
665.0
 10
7.827937476798692
 20
224.22207637737273
 30
665.0
 10
7.827188904414345
 20
224.16976165840768
 30
665.0
 10
7.82638312820904
 20
224.11344919402794
 30
665.0
 10
7.825517697863346
 20
224.05296774124463
 30
665.0
 10
7.824590163057839
 20
223.98814605706932
 30
665.0
 10
7.8225067749298685
 20
223.8425464241025
 30
665.0
 10
7.821337365103745
 20
223.7608210656898
 30
665.0
 10
7.820086582619563
 20
223.6734088988578
 30
665.0
 10
7.818751166102158
 20
223.5800819991882
 30
665.0
 10
7.817327854176363
 20
223.48061244226275
 30
665.0
 10
7.815813385467014
 20
223.37477230366335
 30
665.0
 10
7.814204498598944
 20
223.26233365897158
 30
665.0
 10
7.809482204671744
 20
222.93231149299555
 30
665.0
 10
7.806463981812868
 20
222.72138001336364
 30
665.0
 10
7.803444123583223
 20
222.51033424426237
 30
665.0
 10
7.80042309960682
 20
222.29920700576443
 30
665.0
 10
7.79740122589871
 20
222.08802038293004
 30
665.0
 10
7.794378706063549
 20
221.87678860490587
 30
665.0
 10
7.791355612092687
 20
221.66551670280953
 30
665.0
 10
7.783319845919109
 20
221.10392926272993
 30
665.0
 10
7.778306463591106
 20
220.75356409693092
 30
665.0
 10
7.773292164161708
 20
220.40313483860038
 30
665.0
 10
7.768277176619272
 20
220.05265749080561
 30
665.0
 10
7.76326166028572
 20
219.70214318792398
 30
665.0
 10
7.758245722857034
 20
219.35159945640044
 30
665.0
 10
7.753229419416273
 20
219.001030145755
 30
665.0
 10
7.737538474982147
 20
217.904453027052
 30
665.0
 10
7.726862806077154
 20
217.15837338236568
 30
665.0
 10
7.716186207596512
 20
216.41222877340047
 30
665.0
 10
7.705508934629193
 20
215.66603702723327
 30
665.0
 10
7.694831160295989
 20
214.91981024261568
 30
665.0
 10
7.684152997842634
 20
214.17355633387422
 30
665.0
 10
7.6734744944149185
 20
213.4272785957748
 30
665.0
 10
7.655605482855853
 20
212.1784851090746
 30
665.0
 10
7.648186858559704
 20
211.6600272374298
 30
665.0
 10
7.640535548366072
 20
211.12530788247568
 30
665.0
 10
7.632647318122976
 20
210.5740311363273
 30
665.0
 10
7.6245179336784386
 20
210.0059010911
 30
665.0
 10
7.616143160880479
 20
209.4206218389087
 30
665.0
 10
7.607518765577113
 20
208.81789747186858
 30
665.0
 10
7.593975665700693
 20
207.87142458726038
 30
665.0
 10
7.589310824945993
 20
207.5454152643248
 30
665.0
 10
7.584645944114385
 20
207.21940422027194
 30
665.0
 10
7.579981002382414
 20
206.89339155483253
 30
665.0
 10
7.575316005341068
 20
206.56737736048373
 30
665.0
 10
7.570650984995756
 20
206.2413617224491
 30
665.0
 10
7.565985999766319
 20
205.9153447186989
 30
665.0
 10
7.555611659805684
 20
205.19030241584258
 30
665.0
 10
7.549813160450703
 20
204.78503101097377
 30
665.0
 10
7.543926951281163
 20
204.37357095516347
 30
665.0
 10
7.537954347156156
 20
203.95598099823178
 30
665.0
 10
7.531896662934766
 20
203.53231988999917
 30
665.0
 10
7.525755213476083
 20
203.1026463802862
 30
665.0
 10
7.519531313639199
 20
202.66701921891345
 30
665.0
 10
7.483668948916536
 20
200.15568908831324
 30
665.0
 10
7.45417811904122
 20
198.08584810919479
 30
665.0
 10
7.424787944238752
 20
196.0159833333653
 30
665.0
 10
7.395515750884385
 20
193.94609990988644
 30
665.0
 10
7.36637428022355
 20
191.87620140059408
 30
665.0
 10
7.337374183996862
 20
189.80629027483778
 30
665.0
 10
7.308523256667659
 20
187.7363677822556
 30
665.0
 10
7.206742676736983
 20
180.3941946396556
 30
665.0
 10
7.1346720707951
 20
175.12189052286186
 30
665.0
 10
7.063735423171507
 20
169.84954000881834
 30
665.0
 10
6.994008250212021
 20
164.5771507927589
 30
665.0
 10
6.925576547651531
 20
159.30472910259294
 30
665.0
 10
6.858524911789858
 20
154.03227776676704
 30
665.0
 10
6.792952010304433
 20
148.75979843210195
 30
665.0
 10
6.681875344866179
 20
139.60623318365475
 30
665.0
 10
6.63564204314351
 20
135.72516102506813
 30
665.0
 10
6.590317024772928
 20
131.84407495353392
 30
665.0
 10
6.545950110817462
 20
127.96297536933206
 30
665.0
 10
6.502597075017831
 20
124.08186258086283
 30
665.0
 10
6.460321508647766
 20
120.20073681306371
 30
665.0
 10
6.419196685369315
 20
116.31959821582598
 30
665.0
 10
6.339412977081801
 20
108.55679057831047
 30
665.0
 10
6.300757063990081
 20
104.67512159252307
 30
665.0
 10
6.263254688406714
 20
100.79344174513427
 30
665.0
 10
6.226832393556576
 20
96.91175269510332
 30
665.0
 10
6.191426413212671
 20
93.03005597667033
 30
665.0
 10
6.156980820613098
 20
89.14835304576276
 30
665.0
 10
6.123445677378021
 20
85.2666453264016
 30
665.0
 10
6.064734831447026
 20
78.29097688681739
 30
665.0
 10
6.039243867281383
 20
75.19701745683045
 30
665.0
 10
6.0142793055025985
 20
72.10305668299071
 30
665.0
 10
5.9898200274122315
 20
69.00909535965047
 30
665.0
 10
5.965846478795757
 20
65.91513436691805
 30
665.0
 10
5.9423402882302545
 20
62.82117470418088
 30
665.0
 10
5.9192838049445475
 20
59.727217549903756
 30
665.0
 10
5.877107417139186
 20
53.9594339755456
 30
665.0
 10
5.857878101071005
 20
51.28560677805589
 30
665.0
 10
5.838960274180045
 20
48.61178351303975
 30
665.0
 10
5.82034278723115
 20
45.93796525747376
 30
665.0
 10
5.802013985477035
 20
43.26415353698686
 30
665.0
 10
5.7839615602692325
 20
40.59035036046103
 30
665.0
 10
5.766171520441307
 20
37.916558425683554
 30
665.0
 10
5.73624258131877
 20
33.35595807037674
 30
665.0
 10
5.723981549349829
 20
31.469142989003828
 30
665.0
 10
5.711834789008399
 20
29.582337137698573
 30
665.0
 10
5.699794967451561
 20
27.695541954464943
 30
665.0
 10
5.687851247203858
 20
25.80876045511951
 30
665.0
 10
5.675990513888741
 20
23.921996979085606
 30
665.0
 10
5.664194524760052
 20
22.035257834455802
 30
665.0
 10
5.648012673450181
 20
19.44134590458762
 30
665.0
 10
5.643719062137151
 20
18.752524035338354
 30
665.0
 10
5.63954274506348
 20
18.082126316868653
 30
665.0
 10
5.635474240971584
 20
17.430081196476692
 30
665.0
 10
5.631525704541197
 20
16.79620644799644
 30
665.0
 10
5.627684600459807
 20
16.18021231341592
 30
665.0
 10
5.623953881697295
 20
15.581698847912776
 30
665.0
 10
5.61682522542256
 20
14.438129194755229
 30
665.0
 10
5.613321760417744
 20
13.876107951760817
 30
665.0
 10
5.6098183427905965
 20
13.314094309029583
 30
665.0
 10
5.606314978302462
 20
12.752089190788539
 30
665.0
 10
5.602811674415479
 20
12.190093794104799
 30
665.0
 10
5.5993084405744655
 20
11.628109634103273
 30
665.0
 10
5.59580528871303
 20
11.066138625157656
 30
665.0
 10
5.588249257048401
 20
9.854009974686662
 30
665.0
 10
5.584196432892993
 20
9.203861260105342
 30
665.0
 10
5.5801437640479215
 20
8.553737460203521
 30
665.0
 10
5.576091272022724
 20
7.903642025514529
 30
665.0
 10
5.572039008330648
 20
7.253583219723499
 30
665.0
 10
5.567987051691323
 20
6.603573670929329
 30
665.0
 10
5.563935518061607
 20
5.953631980781278
 30
665.0
 10
5.55781106950783
 20
4.9711560079606905
 30
665.0
 10
5.555737727503913
 20
4.638553213716698
 30
665.0
 10
5.553664586060949
 20
4.305982593138591
 30
665.0
 10
5.551591672253824
 20
3.9734484896692948
 30
665.0
 10
5.549519053995831
 20
3.6409617978031967
 30
665.0
 10
5.5474468355728845
 20
3.308539246882951
 30
665.0
 10
5.545375171028836
 20
2.976205548541248
 30
665.0
 10
5.542164872529218
 20
2.4612136902931065
 30
665.0
 10
5.541085431135804
 20
2.28805112328211
 30
665.0
 10
5.540064165055936
 20
2.1242209634702567
 30
665.0
 10
5.539099230115417
 20
1.9694273708600378
 30
665.0
 10
5.53818878214004
 20
1.8233745054538477
 30
665.0
 10
5.537330976955599
 20
1.6857665272539826
 30
665.0
 10
5.536523970387891
 20
1.5563075962626411
 30
665.0
 10
5.535007866137522
 20
1.313096148701362
 30
665.0
 10
5.534298768454864
 20
1.1993436321316984
 30
665.0
 10
5.533636781040529
 20
1.0931484827752362
 30
665.0
 10
5.533020059720309
 20
0.9942148606342908
 30
665.0
 10
5.532446760320003
 20
0.9022469257111904
 30
665.0
 10
5.531915038665403
 20
0.8169488380082747
 30
665.0
 10
5.531423050582306
 20
0.7380247575278958
 30
665.0
 10
5.5307419025536095
 20
0.6287558876448144
 30
665.0
 10
5.530524325560036
 20
0.593852472823191
 30
665.0
 10
5.530315990394008
 20
0.5604316198080304
 30
665.0
 10
5.530116666533755
 20
0.5284563485997398
 30
665.0
 10
5.5299261234575
 20
0.49788967919865
 30
665.0
 10
5.5297441306434685
 20
0.4686946316050162
 30
665.0
 10
5.529570457569884
 20
0.44083422581901743
 30
665.0
 10
5.529128900623442
 20
0.37000024187727837
 30
665.0
 10
5.52887539758378
 20
0.32933361804692496
 30
665.0
 10
5.528643297365538
 20
0.29210040664741505
 30
665.0
 10
5.528431532738276
 20
0.2581294039764406
 30
665.0
 10
5.52823903647155
 20
0.22724940633166768
 30
665.0
 10
5.528064741334919
 20
0.19928921001073668
 30
665.0
 10
5.527907580097938
 20
0.17407761131126162
 30
665.0
 10
5.527625390962392
 20
0.12880920175047098
 30
665.0
 10
5.527500363063823
 20
0.10875239088909441
 30
665.0
 10
5.527390334604024
 20
0.09110177024444155
 30
665.0
 10
5.527294238352545
 20
0.07568613611421426
 30
665.0
 10
5.52721100707895
 20
0.06233428479607587
 30
665.0
 10
5.527139573552792
 20
0.050875012587651106
 30
665.0
 10
5.52707887054363
 20
0.04113711578652612
 30
665.0
 10
5.526973011512761
 20
0.02415534944115194
 30
665.0
 10
5.526924153331102
 20
0.01631758427983243
 30
665.0
 10
5.526884467142801
 20
0.009951178186433651
 30
665.0
 10
5.526855730228968
 20
0.0053412403229629035
 30
665.0
 10
5.526837697545076
 20
0.002448460930395413
 30
665.0
 10
5.526828278065456
 20
0.0009374003879756287
 30
665.0
 10
5.526824336532358
 20
0.0003051048481133023
 30
665.0
 10
5.526821688091951
 20
-0.00011975447433343334
 30
665.0
 10
5.526823373800225
 20
4.7522293684210126e-05
 30
665.0
 10
5.526820932890226
 20
0.0001904791375650916
 30
665.0
 10
5.5268223734132444
 20
-6.391965035845715e-05
 30
665.0
 10
5.52683006271138
 20
-0.0011429687100203978
 30
665.0
 10
5.526843792193549
 20
-0.0034540981773645285
 30
665.0
 10
5.526867566870229
 20
-0.007240058727099097
 30
665.0
 10
5.5269320320341695
 20
-0.01758147544380506
 30
665.0
 10
5.526974097495367
 20
-0.0243295613410461
 30
665.0
 10
5.527028066262798
 20
-0.03298715995052045
 30
665.0
 10
5.527095782510665
 20
-0.04385011126992059
 30
665.0
 10
5.527179090413171
 20
-0.05721425529692275
 30
665.0
 10
5.527279834144522
 20
-0.07337543202918693
 30
665.0
 10
5.527399857878924
 20
-0.09262948146435691
 30
665.0
 10
5.527682153702231
 20
-0.13791500573553606
 30
665.0
 10
5.527844425791142
 20
-0.16394648057195937
 30
665.0
 10
5.528029666231514
 20
-0.19366250810672017
 30
665.0
 10
5.528239719197549
 20
-0.22735892833731597
 30
665.0
 10
5.528476428863452
 20
-0.265331581261352
 30
665.0
 10
5.528741639403429
 20
-0.307876306876541
 30
665.0
 10
5.529037194991682
 20
-0.35528894518070336
 30
665.0
 10
5.529638060478035
 20
-0.451678995330667
 30
665.0
 10
5.529933534780376
 20
-0.4990785938555028
 30
665.0
 10
5.5302524299398845
 20
-0.5502353354484585
 30
665.0
 10
5.530595813187002
 20
-0.6053204238117802
 30
665.0
 10
5.53096475175217
 20
-0.6645050626477748
 30
665.0
 10
5.531360312865831
 20
-0.7279604556588106
 30
665.0
 10
5.531783563758431
 20
-0.7958578065473176
 30
665.0
 10
5.532687579562392
 20
-0.9408788314838006
 30
665.0
 10
5.533168344473753
 20
-1.0180025055322823
 30
665.0
 10
5.5336789336249375
 20
-1.0999105448630804
 30
665.0
 10
5.534220414246388
 20
-1.1867741531782425
 30
665.0
 10
5.534793853568541
 20
-1.278764534180011
 30
665.0
 10
5.535400318821844
 20
-1.376052891570826
 30
665.0
 10
5.536040877236741
 20
-1.4788104290533253
 30
665.0
 10
5.538030087196599
 20
-1.7979168715833396
 30
665.0
 10
5.539344665856945
 20
-2.008799849347973
 30
665.0
 10
5.540659957241974
 20
-2.2197971614592014
 30
665.0
 10
5.541975756680104
 20
-2.43087597479132
 30
665.0
 10
5.543291926447751
 20
-2.6420141958954417
 30
665.0
 10
5.544608377811192
 20
-2.853197590214222
 30
665.0
 10
5.545925079392521
 20
-3.064421124169126
 30
665.0
 10
5.5494250370925675
 20
-3.6258797299504764
 30
665.0
 10
5.551608602695777
 20
-3.9761644488741297
 30
665.0
 10
5.553792567990272
 20
-4.326513285752579
 30
665.0
 10
5.555976833176828
 20
-4.676910230915098
 30
665.0
 10
5.558161328820549
 20
-5.02734414571216
 30
665.0
 10
5.560346007986491
 20
-5.377807500907053
 30
665.0
 10
5.562530846667069
 20
-5.728296445226611
 30
665.0
 10
5.569364997602173
 20
-6.824621939581348
 30
665.0
 10
5.574014757839016
 20
-7.5705303543493585
 30
665.0
 10
5.578664923204922
 20
-8.316503759386993
 30
665.0
 10
5.583315382523643
 20
-9.06252431994966
 30
665.0
 10
5.587966060347268
 20
-9.808579932781562
 30
665.0
 10
5.592616907322871
 20
-10.55466268074992
 30
665.0
 10
5.5972679029002075
 20
-11.300769267212988
 30
665.0
 10
5.605050706231525
 20
-12.54927632985944
 30
665.0
 10
5.6082818693131395
 20
-13.067615256879094
 30
665.0
 10
5.611614378149916
 20
-13.60221193649796
 30
665.0
 10
5.6150500769160585
 20
-14.153362208713773
 30
665.0
 10
5.618590809785775
 20
-14.72136191352422
 30
665.0
 10
5.622238420933266
 20
-15.30650689092695
 30
665.0
 10
5.625994754532741
 20
-15.909092980919581
 30
665.0
 10
5.631893417471503
 20
-16.85534872267572
 30
665.0
 10
5.633925224907618
 20
-17.181283249992017
 30
665.0
 10
5.635957027625905
 20
-17.507219499422803
 30
665.0
 10
5.637988802751668
 20
-17.833157371654533
 30
665.0
 10
5.640020553976367
 20
-18.159096774085878
 30
665.0
 10
5.642052311557603
 20
-18.485037620827764
 30
665.0
 10
5.644084132319126
 20
-18.81097983270334
 30
665.0
 10
5.648603088145394
 20
-19.53585580679696
 30
665.0
 10
5.6511293817790955
 20
-19.9410342648271
 30
665.0
 10
5.6536950888914195
 20
-20.352400001943902
 30
665.0
 10
5.656300317821847
 20
-20.76989430875283
 30
665.0
 10
5.658945176909861
 20
-21.1934584758593
 30
665.0
 10
5.661629774494944
 20
-21.623033793868714
 30
665.0
 10
5.6643542189165785
 20
-22.05856155338643
 30
665.0
 10
5.6800780128767405
 20
-24.569349280985833
 30
665.0
 10
5.693104591482426
 20
-26.638747067751588
 30
665.0
 10
5.706232326891071
 20
-28.708166587536283
 30
665.0
 10
5.719478440101405
 20
-30.77760233424206
 30
665.0
 10
5.732855598237785
 20
-32.84705048383316
 30
665.0
 10
5.746374400579016
 20
-34.916508347839745
 30
665.0
 10
5.760042613288558
 20
-36.98597451597386
 30
665.0
 10
5.809083506103647
 20
-44.326939603468844
 30
665.0
 10
5.84531652081515
 20
-49.59847435726746
 30
665.0
 10
5.882684617935061
 20
-54.87003222474476
 30
665.0
 10
5.921263095331225
 20
-60.14160395269164
 30
665.0
 10
5.96113775153123
 20
-65.41318155087123
 30
665.0
 10
6.002393030131374
 20
-70.68476044641366
 30
665.0
 10
6.045127446401927
 20
-75.95633697124481
 30
665.0
 10
6.122087359613961
 20
-85.10881796936197
 30
665.0
 10
6.155583430148053
 20
-88.9897236695832
 30
665.0
 10
6.189988081662566
 20
-92.87062462717996
 30
665.0
 10
6.225351072555284
 20
-96.75151941861365
 30
665.0
 10
6.261728103108972
 20
-100.63240659030355
 30
665.0
 10
6.299182674147355
 20
-104.51328461196269
 30
665.0
 10
6.337787945691063
 20
-108.39415182993393
 30
665.0
 10
6.417480502854542
 20
-116.15695757997094
 30
665.0
 10
6.458571134295886
 20
-120.0388959926838
 30
665.0
 10
6.500815347723913
 20
-123.92082157558377
 30
665.0
 10
6.544139572160556
 20
-127.80273417957166
 30
665.0
 10
6.5884799505406715
 20
-131.68463358121107
 30
665.0
 10
6.633780482389319
 20
-135.5665194744103
 30
665.0
 10
6.679991166499037
 20
-139.44839146210373
 30
665.0
 10
6.764591939443579
 20
-146.4246699947051
 30
665.0
 10
6.802667018463029
 20
-149.51908171985266
 30
665.0
 10
6.841268360212317
 20
-152.6134839801802
 30
665.0
 10
6.880374812451193
 20
-155.7078764157381
 30
665.0
 10
6.919966788842508
 20
-158.80225854877
 30
665.0
 10
6.960025886006294
 20
-161.89662975805985
 30
665.0
 10
7.000534419937763
 20
-164.99098922867836
 30
665.0
 10
7.076858628253013
 20
-170.75969694509584
 30
665.0
 10
7.11256501013611
 20
-173.43404821246378
 30
665.0
 10
7.1485826714564595
 20
-176.10838915453581
 30
665.0
 10
7.184900435642367
 20
-178.78271892432562
 30
665.0
 10
7.221506613050612
 20
-181.45703623648612
 30
665.0
 10
7.258388851754342
 20
-184.13133933621106
 30
665.0
 10
7.295533105373503
 20
-186.8056258152272
 30
665.0
 10
7.358474617163939
 20
-191.3077661305059
 30
665.0
 10
7.384142453264096
 20
-193.13562995610803
 30
665.0
 10
7.40991750588679
 20
-194.96348298074105
 30
665.0
 10
7.435792987169592
 20
-196.79132396136853
 30
665.0
 10
7.461759275727016
 20
-198.61915043677178
 30
665.0
 10
7.487804632605572
 20
-200.44695885360713
 30
665.0
 10
7.513912799371201
 20
-202.2747440763525
 30
665.0
 10
7.549406999671584
 20
-204.75670043226592
 30
665.0
 10
7.5587661860315105
 20
-205.41089956372517
 30
665.0
 10
7.568129913826009
 20
-206.06509417239874
 30
665.0
 10
7.57748965089821
 20
-206.71928316780185
 30
665.0
 10
7.58685008644125
 20
-207.37346635255312
 30
665.0
 10
7.596211106116029
 20
-208.02764285599423
 30
665.0
 10
7.605571512528064
 20
-208.68181177308372
 30
665.0
 10
7.623123098635529
 20
-209.90842166920518
 30
665.0
 10
7.631314195871718
 20
-210.48086457370923
 30
665.0
 10
7.639505187022514
 20
-211.05330006433047
 30
665.0
 10
7.647696059282314
 20
-211.6257272461371
 30
665.0
 10
7.655886796108255
 20
-212.19814496301552
 30
665.0
 10
7.664077376605129
 20
-212.7705517546829
 30
665.0
 10
7.672267774428554
 20
-213.34294578003616
 30
665.0
 10
7.689964564812552
 20
-214.57970342015452
 30
665.0
 10
7.699470833431969
 20
-215.2440583731697
 30
665.0
 10
7.708976754949896
 20
-215.90838906865474
 30
665.0
 10
7.718482280616835
 20
-216.57269209970394
 30
665.0
 10
7.7279872967886
 20
-217.2369595241806
 30
665.0
 10
7.7374916303810695
 20
-217.90117924592982
 30
665.0
 10
7.746995027036101
 20
-218.5653334888831
 30
665.0
 10
7.761387350169306
 20
-219.57115517789052
 30
665.0
 10
7.766277215859117
 20
-219.91288826167607
 30
665.0
 10
7.771166636299723
 20
-220.25459022878098
 30
665.0
 10
7.7760555501442274
 20
-220.59625679191925
 30
665.0
 10
7.780943809059696
 20
-220.93787758469637
 30
665.0
 10
7.785831186204103
 20
-221.27943675403247
 30
665.0
 10
7.790717347436712
 20
-221.62091094817478
 30
665.0
 10
7.798298867029329
 20
-222.1507529181828
 30
665.0
 10
7.800856107467332
 20
-222.3294681869233
 30
665.0
 10
7.803277662580499
 20
-222.49870095298957
 30
665.0
 10
7.805567766520815
 20
-222.65874712426648
 30
665.0
 10
7.807730653440256
 20
-222.80990260863894
 30
665.0
 10
7.809770557490806
 20
-222.9524633139918
 30
665.0
 10
7.811691712824445
 20
-223.08672514820998
 30
665.0
 10
7.81502766903888
 20
-223.3198617365844
 30
665.0
 10
7.816556003626569
 20
-223.42667090575978
 30
665.0
 10
7.81808345934772
 20
-223.53341865448039
 30
665.0
 10
7.819609904616002
 20
-223.6400957867068
 30
665.0
 10
7.821135056936055
 20
-223.74668255997025
 30
665.0
 10
7.8226582417603865
 20
-223.85313183285814
 30
665.0
 10
7.8241786078657345
 20
-223.9593841167896
 30
665.0
 10
7.826215595208072
 20
-224.10174098511396
 30
665.0
 10
7.826715143491474
 20
-224.13665240931584
 30
665.0
 10
7.82719347289961
 20
-224.17008093150366
 30
665.0
 10
7.827651112701476
 20
-224.20206354016324
 30
665.0
 10
7.828088592166073
 20
-224.23263722378005
 30
665.0
 10
7.828506440562394
 20
-224.2618389708398
 30
665.0
 10
7.828905187159439
 20
-224.289705769828
 30
665.0
 10
7.829918984670819
 20
-224.3605560082342
 30
665.0
 10
7.830501017753545
 20
-224.40123196394373
 30
665.0
 10
7.831033910793818
 20
-224.43847371934817
 30
665.0
 10
7.831520114111071
 20
-224.47245251743627
 30
665.0
 10
7.8319620780247385
 20
-224.50333960119698
 30
665.0
 10
7.832362252854256
 20
-224.53130621361933
 30
665.0
 10
7.832723088919054
 20
-224.5565235976921
 30
665.0
 10
7.833370984158074
 20
-224.60180239511638
 30
665.0
 10
7.833658043332302
 20
-224.62186380846788
 30
665.0
 10
7.833910664380673
 20
-224.63951847944776
 30
665.0
 10
7.834131297622627
 20
-224.6549376510449
 30
665.0
 10
7.834322393377596
 20
-224.66829256624825
 30
665.0
 10
7.834486401965009
 20
-224.6797544680467
 30
665.0
 10
7.834625773704302
 20
-224.68949459942914
 30
665.0
 10
7.834824988562336
 20
-224.70341692615347
 30
665.0
 10
7.834896146810704
 20
-224.70838989048306
 30
665.0
 10
7.834957274119582
 20
-224.7126618327186
 30
665.0
 10
7.8350092109485345
 20
-224.71629148920533
 30
665.0
 10
7.835052797757128
 20
-224.71933759628845
 30
665.0
 10
7.835088875004927
 20
-224.72185889031306
 30
665.0
 10
7.835118283151498
 20
-224.72391410762447
 30
665.0
 10
7.835184595765348
 20
-224.72854843000906
 30
665.0
 10
7.835321751585726
 20
-224.729547987647
 30
665.0
 10
7.835397418213979
 20
-224.7296788991982
 30
665.0
 10
7.835338798657428
 20
-224.7296908196554
 30
665.0
 10
7.835156210834289
 20
-224.72996481728723
 30
665.0
 10
7.834943087573673
 20
-224.73051337363862
 30
665.0
 10
7.834875976615585
 20
-224.73098038353055
 30
665.0
 10
7.835214540610926
 20
-224.73064115506006
 30
665.0
  0
ENDSEC
  0
SECTION
  2
OBJECTS
  0
DICTIONARY
  5
A
330
0
100
AcDbDictionary
281
1
  3
ACAD_COLOR
350
B
  3
ACAD_GROUP
350
C
  3
ACAD_LAYOUT
350
D
  3
ACAD_MATERIAL
350
E
  3
ACAD_MLEADERSTYLE
350
F
  3
ACAD_MLINESTYLE
350
10
  3
ACAD_PLOTSETTINGS
350
11
  3
ACAD_PLOTSTYLENAME
350
12
  3
ACAD_SCALELIST
350
14
  3
ACAD_TABLESTYLE
350
15
  3
ACAD_VISUALSTYLE
350
16
  3
EZDXF_META
350
2D
  0
DICTIONARY
  5
B
330
A
100
AcDbDictionary
281
1
  0
DICTIONARY
  5
C
330
A
100
AcDbDictionary
281
1
  0
DICTIONARY
  5
D
330
A
100
AcDbDictionary
281
1
  3
Model
350
1A
  3
Layout1
350
1E
  0
DICTIONARY
  5
E
330
A
100
AcDbDictionary
281
1
  3
ByBlock
350
1F
  3
ByLayer
350
20
  3
Global
350
21
  0
DICTIONARY
  5
F
330
A
100
AcDbDictionary
281
1
  3
Standard
350
2C
  0
DICTIONARY
  5
10
330
A
100
AcDbDictionary
281
1
  3
Standard
350
22
  0
DICTIONARY
  5
11
330
A
100
AcDbDictionary
281
1
  0
ACDBDICTIONARYWDFLT
  5
12
330
A
100
AcDbDictionary
281
1
  3
Normal
350
13
100
AcDbDictionaryWithDefault
340
13
  0
ACDBPLACEHOLDER
  5
13
330
12
  0
DICTIONARY
  5
14
330
A
100
AcDbDictionary
281
1
  0
DICTIONARY
  5
15
330
A
100
AcDbDictionary
281
1
  0
DICTIONARY
  5
16
330
A
100
AcDbDictionary
281
1
  0
LAYOUT
  5
1A
330
D
100
AcDbPlotSettings
  1

  2
Adobe PDF
  4
A3
  6

 40
7.5
 41
20.0
 42
7.5
 43
20.0
 44
420.0
 45
297.0
 46
0.0
 47
0.0
 48
0.0
 49
0.0
140
0.0
141
0.0
142
1.0
143
1.0
 70
1024
 72
1
 73
1
 74
5
  7

 75
16
 76
0
 77
2
 78
300
147
1.0
148
0.0
149
0.0
100
AcDbLayout
  1
Model
 70
1
 71
0
 10
0.0
 20
0.0
 11
420.0
 21
297.0
 12
0.0
 22
0.0
 32
0.0
 14
1e+20
 24
1e+20
 34
1e+20
 15
-1e+20
 25
-1e+20
 35
-1e+20
146
0.0
 13
0.0
 23
0.0
 33
0.0
 16
1.0
 26
0.0
 36
0.0
 17
0.0
 27
1.0
 37
0.0
 76
1
330
17
  0
LAYOUT
  5
1E
330
D
100
AcDbPlotSettings
  1

  2
Adobe PDF
  4
A3
  6

 40
7.5
 41
20.0
 42
7.5
 43
20.0
 44
420.0
 45
297.0
 46
0.0
 47
0.0
 48
0.0
 49
0.0
140
0.0
141
0.0
142
1.0
143
1.0
 70
0
 72
1
 73
1
 74
5
  7

 75
16
 76
0
 77
2
 78
300
147
1.0
148
0.0
149
0.0
100
AcDbLayout
  1
Layout1
 70
1
 71
1
 10
0.0
 20
0.0
 11
420.0
 21
297.0
 12
0.0
 22
0.0
 32
0.0
 14
1e+20
 24
1e+20
 34
1e+20
 15
-1e+20
 25
-1e+20
 35
-1e+20
146
0.0
 13
0.0
 23
0.0
 33
0.0
 16
1.0
 26
0.0
 36
0.0
 17
0.0
 27
1.0
 37
0.0
 76
1
330
1B
  0
MATERIAL
  5
1F
102
{ACAD_REACTORS
330
E
102
}
330
E
100
AcDbMaterial
  1
ByBlock
  2

 70
0
 40
1.0
 71
1
 41
1.0
 91
-1023410177
 42
1.0
 72
1
  3

 73
1
 74
1
 75
1
 44
0.5
 73
0
 45
1.0
 46
1.0
 77
1
  4

 78
1
 79
1
170
1
 48
1.0
171
1
  6

172
1
173
1
174
1
140
1.0
141
1.0
175
1
  7

176
1
177
1
178
1
143
1.0
179
1
  8

270
1
271
1
272
1
145
1.0
146
1.0
273
1
  9

274
1
275
1
276
1
 42
1.0
 72
1
  3

 73
1
 74
1
 75
1
 94
63
  0
MATERIAL
  5
20
102
{ACAD_REACTORS
330
E
102
}
330
E
100
AcDbMaterial
  1
ByLayer
  2

 70
0
 40
1.0
 71
1
 41
1.0
 91
-1023410177
 42
1.0
 72
1
  3

 73
1
 74
1
 75
1
 44
0.5
 73
0
 45
1.0
 46
1.0
 77
1
  4

 78
1
 79
1
170
1
 48
1.0
171
1
  6

172
1
173
1
174
1
140
1.0
141
1.0
175
1
  7

176
1
177
1
178
1
143
1.0
179
1
  8

270
1
271
1
272
1
145
1.0
146
1.0
273
1
  9

274
1
275
1
276
1
 42
1.0
 72
1
  3

 73
1
 74
1
 75
1
 94
63
  0
MATERIAL
  5
21
102
{ACAD_REACTORS
330
E
102
}
330
E
100
AcDbMaterial
  1
Global
  2

 70
0
 40
1.0
 71
1
 41
1.0
 91
-1023410177
 42
1.0
 72
1
  3

 73
1
 74
1
 75
1
 44
0.5
 73
0
 45
1.0
 46
1.0
 77
1
  4

 78
1
 79
1
170
1
 48
1.0
171
1
  6

172
1
173
1
174
1
140
1.0
141
1.0
175
1
  7

176
1
177
1
178
1
143
1.0
179
1
  8

270
1
271
1
272
1
145
1.0
146
1.0
273
1
  9

274
1
275
1
276
1
 42
1.0
 72
1
  3

 73
1
 74
1
 75
1
 94
63
  0
MLINESTYLE
  5
22
102
{ACAD_REACTORS
330
10
102
}
330
10
100
AcDbMlineStyle
  2
Standard
 70
0
  3

 62
256
 51
90.0
 52
90.0
 71
2
 49
0.5
 62
256
  6
BYLAYER
 49
-0.5
 62
256
  6
BYLAYER
  0
MLEADERSTYLE
  5
2C
102
{ACAD_REACTORS
330
F
102
}
330
F
100
AcDbMLeaderStyle
179
2
170
2
171
1
172
0
 90
2
 40
0.0
 41
0.0
173
1
 91
-1056964608
 92
-2
290
1
 42
2.0
291
1
 43
8.0
  3
Standard
 44
4.0
300

342
29
174
1
175
1
176
0
178
1
 93
-1056964608
 45
4.0
292
0
297
0
 46
4.0
 94
-1056964608
 47
1.0
 49
1.0
140
1.0
294
1
141
0.0
177
0
142
1.0
295
0
296
0
143
3.75
271
0
272
9
273
9
  0
DICTIONARY
  5
2D
330
A
100
AcDbDictionary
280
1
281
1
  3
CREATED_BY_EZDXF
350
2E
  3
WRITTEN_BY_EZDXF
350
80
  0
DICTIONARYVAR
  5
2E
330
2D
100
DictionaryVariables
280
0
  1
0.17 @ 2022-02-15T16:29:20.152039+00:00
  0
DICTIONARYVAR
  5
80
330
2D
100
DictionaryVariables
280
0
  1
0.17 @ 2022-02-15T16:29:20.249874+00:00
  0
ENDSEC
  0
EOF
