  0
SECTION
  2
HEADER
  9
$ACADVER
  1
AC1027
  9
$ACADMAINTVER
 70
105
  9
$DWGCODEPAGE
  3
ANSI_1252
  9
$LASTSAVEDBY
  1
ezdxf
  9
$REQUIREDVERSIONS
160
0
  9
$INSBASE
 10
0.0
 20
0.0
 30
0.0
  9
$EXTMIN
 10
1e+20
 20
1e+20
 30
1e+20
  9
$EXTMAX
 10
-1e+20
 20
-1e+20
 30
-1e+20
  9
$LIMMIN
 10
0.0
 20
0.0
  9
$LIMMAX
 10
420.0
 20
297.0
  9
$ORTHOMODE
 70
0
  9
$REGENMODE
 70
1
  9
$FILLMODE
 70
1
  9
$QTEXTMODE
 70
0
  9
$MIRRTEXT
 70
1
  9
$LTSCALE
 40
1.0
  9
$ATTMODE
 70
1
  9
$TEXTSIZE
 40
2.5
  9
$TRACEWID
 40
1.0
  9
$TEXTSTYLE
  7
Standard
  9
$CLAYER
  8
0
  9
$CELTYPE
  6
ByLayer
  9
$CECOLOR
 62
256
  9
$CELTSCALE
 40
1.0
  9
$DISPSILH
 70
0
  9
$DIMSCALE
 40
1.0
  9
$DIMASZ
 40
2.5
  9
$DIMEXO
 40
0.625
  9
$DIMDLI
 40
3.75
  9
$DIMRND
 40
0.0
  9
$DIMDLE
 40
0.0
  9
$DIMEXE
 40
1.25
  9
$DIMTP
 40
0.0
  9
$DIMTM
 40
0.0
  9
$DIMTXT
 40
2.5
  9
$DIMCEN
 40
2.5
  9
$DIMTSZ
 40
0.0
  9
$DIMTOL
 70
0
  9
$DIMLIM
 70
0
  9
$DIMTIH
 70
0
  9
$DIMTOH
 70
0
  9
$DIMSE1
 70
0
  9
$DIMSE2
 70
0
  9
$DIMTAD
 70
1
  9
$DIMZIN
 70
8
  9
$DIMBLK
  1

  9
$DIMASO
 70
1
  9
$DIMSHO
 70
1
  9
$DIMPOST
  1

  9
$DIMAPOST
  1

  9
$DIMALT
 70
0
  9
$DIMALTD
 70
3
  9
$DIMALTF
 40
0.03937007874
  9
$DIMLFAC
 40
1.0
  9
$DIMTOFL
 70
1
  9
$DIMTVP
 40
0.0
  9
$DIMTIX
 70
0
  9
$DIMSOXD
 70
0
  9
$DIMSAH
 70
0
  9
$DIMBLK1
  1

  9
$DIMBLK2
  1

  9
$DIMSTYLE
  2
ISO-25
  9
$DIMCLRD
 70
0
  9
$DIMCLRE
 70
0
  9
$DIMCLRT
 70
0
  9
$DIMTFAC
 40
1.0
  9
$DIMGAP
 40
0.625
  9
$DIMJUST
 70
0
  9
$DIMSD1
 70
0
  9
$DIMSD2
 70
0
  9
$DIMTOLJ
 70
0
  9
$DIMTZIN
 70
8
  9
$DIMALTZ
 70
0
  9
$DIMALTTZ
 70
0
  9
$DIMUPT
 70
0
  9
$DIMDEC
 70
2
  9
$DIMTDEC
 70
2
  9
$DIMALTU
 70
2
  9
$DIMALTTD
 70
3
  9
$DIMTXSTY
  7
Standard
  9
$DIMAUNIT
 70
0
  9
$DIMADEC
 70
0
  9
$DIMALTRND
 40
0.0
  9
$DIMAZIN
 70
0
  9
$DIMDSEP
 70
44
  9
$DIMATFIT
 70
3
  9
$DIMFRAC
 70
0
  9
$DIMLDRBLK
  1

  9
$DIMLUNIT
 70
2
  9
$DIMLWD
 70
-2
  9
$DIMLWE
 70
-2
  9
$DIMTMOVE
 70
0
  9
$DIMFXL
 40
1.0
  9
$DIMFXLON
 70
0
  9
$DIMJOGANG
 40
0.785398163397
  9
$DIMTFILL
 70
0
  9
$DIMTFILLCLR
 70
0
  9
$DIMARCSYM
 70
0
  9
$DIMLTYPE
  6

  9
$DIMLTEX1
  6

  9
$DIMLTEX2
  6

  9
$DIMTXTDIRECTION
 70
0
  9
$LUNITS
 70
2
  9
$LUPREC
 70
4
  9
$SKETCHINC
 40
1.0
  9
$FILLETRAD
 40
10.0
  9
$AUNITS
 70
0
  9
$AUPREC
 70
2
  9
$MENU
  1
.
  9
$ELEVATION
 40
0.0
  9
$PELEVATION
 40
0.0
  9
$THICKNESS
 40
0.0
  9
$LIMCHECK
 70
0
  9
$CHAMFERA
 40
0.0
  9
$CHAMFERB
 40
0.0
  9
$CHAMFERC
 40
0.0
  9
$CHAMFERD
 40
0.0
  9
$SKPOLY
 70
0
  9
$TDCREATE
 40
2459626.7287268518
  9
$TDUCREATE
 40
2458532.153996898
  9
$TDUPDATE
 40
2459626.7287268518
  9
$TDUUPDATE
 40
2458532.1544311
  9
$TDINDWG
 40
0.0
  9
$TDUSRTIMER
 40
0.0
  9
$USRTIMER
 70
1
  9
$ANGBASE
 50
0.0
  9
$ANGDIR
 70
0
  9
$PDMODE
 70
0
  9
$PDSIZE
 40
0.0
  9
$PLINEWID
 40
0.0
  9
$SPLFRAME
 70
0
  9
$SPLINETYPE
 70
6
  9
$SPLINESEGS
 70
8
  9
$HANDSEED
  5
81
  9
$SURFTAB1
 70
6
  9
$SURFTAB2
 70
6
  9
$SURFTYPE
 70
6
  9
$SURFU
 70
6
  9
$SURFV
 70
6
  9
$UCSBASE
  2

  9
$UCSNAME
  2

  9
$UCSORG
 10
0.0
 20
0.0
 30
0.0
  9
$UCSXDIR
 10
1.0
 20
0.0
 30
0.0
  9
$UCSYDIR
 10
0.0
 20
1.0
 30
0.0
  9
$UCSORTHOREF
  2

  9
$UCSORTHOVIEW
 70
0
  9
$UCSORGTOP
 10
0.0
 20
0.0
 30
0.0
  9
$UCSORGBOTTOM
 10
0.0
 20
0.0
 30
0.0
  9
$UCSORGLEFT
 10
0.0
 20
0.0
 30
0.0
  9
$UCSORGRIGHT
 10
0.0
 20
0.0
 30
0.0
  9
$UCSORGFRONT
 10
0.0
 20
0.0
 30
0.0
  9
$UCSORGBACK
 10
0.0
 20
0.0
 30
0.0
  9
$PUCSBASE
  2

  9
$PUCSNAME
  2

  9
$PUCSORG
 10
0.0
 20
0.0
 30
0.0
  9
$PUCSXDIR
 10
1.0
 20
0.0
 30
0.0
  9
$PUCSYDIR
 10
0.0
 20
1.0
 30
0.0
  9
$PUCSORTHOREF
  2

  9
$PUCSORTHOVIEW
 70
0
  9
$PUCSORGTOP
 10
0.0
 20
0.0
 30
0.0
  9
$PUCSORGBOTTOM
 10
0.0
 20
0.0
 30
0.0
  9
$PUCSORGLEFT
 10
0.0
 20
0.0
 30
0.0
  9
$PUCSORGRIGHT
 10
0.0
 20
0.0
 30
0.0
  9
$PUCSORGFRONT
 10
0.0
 20
0.0
 30
0.0
  9
$PUCSORGBACK
 10
0.0
 20
0.0
 30
0.0
  9
$USERI1
 70
0
  9
$USERI2
 70
0
  9
$USERI3
 70
0
  9
$USERI4
 70
0
  9
$USERI5
 70
0
  9
$USERR1
 40
0.0
  9
$USERR2
 40
0.0
  9
$USERR3
 40
0.0
  9
$USERR4
 40
0.0
  9
$USERR5
 40
0.0
  9
$WORLDVIEW
 70
1
  9
$SHADEDGE
 70
3
  9
$SHADEDIF
 70
70
  9
$TILEMODE
 70
1
  9
$MAXACTVP
 70
64
  9
$PINSBASE
 10
0.0
 20
0.0
 30
0.0
  9
$PLIMCHECK
 70
0
  9
$PEXTMIN
 10
1e+20
 20
1e+20
 30
1e+20
  9
$PEXTMAX
 10
-1e+20
 20
-1e+20
 30
-1e+20
  9
$PLIMMIN
 10
0.0
 20
0.0
  9
$PLIMMAX
 10
420.0
 20
297.0
  9
$UNITMODE
 70
0
  9
$VISRETAIN
 70
1
  9
$PLINEGEN
 70
0
  9
$PSLTSCALE
 70
1
  9
$TREEDEPTH
 70
3020
  9
$CMLSTYLE
  2
Standard
  9
$CMLJUST
 70
0
  9
$CMLSCALE
 40
20.0
  9
$PROXYGRAPHICS
 70
1
  9
$MEASUREMENT
 70
1
  9
$CELWEIGHT
370
-1
  9
$ENDCAPS
280
0
  9
$JOINSTYLE
280
0
  9
$LWDISPLAY
290
0
  9
$INSUNITS
 70
6
  9
$HYPERLINKBASE
  1

  9
$STYLESHEET
  1

  9
$XEDIT
290
1
  9
$CEPSNTYPE
380
0
  9
$PSTYLEMODE
290
1
  9
$FINGERPRINTGUID
  2
{9B749228-C26C-4427-818D-83D970F4FAFF}
  9
$VERSIONGUID
  2
{FC769427-BDD3-4FA3-8726-B6CB47CA2E32}
  9
$EXTNAMES
290
1
  9
$PSVPSCALE
 40
0.0
  9
$OLESTARTUP
290
0
  9
$SORTENTS
280
127
  9
$INDEXCTL
280
0
  9
$HIDETEXT
280
1
  9
$XCLIPFRAME
280
0
  9
$HALOGAP
280
0
  9
$OBSCOLOR
 70
257
  9
$OBSLTYPE
280
0
  9
$INTERSECTIONDISPLAY
280
0
  9
$INTERSECTIONCOLOR
 70
257
  9
$DIMASSOC
280
2
  9
$PROJECTNAME
  1

  9
$CAMERADISPLAY
290
0
  9
$LENSLENGTH
 40
50.0
  9
$CAMERAHEIGHT
 40
0.0
  9
$STEPSPERSEC
 40
24.0
  9
$STEPSIZE
 40
100.0
  9
$3DDWFPREC
 40
2.0
  9
$PSOLWIDTH
 40
0.005
  9
$PSOLHEIGHT
 40
0.08
  9
$LOFTANG1
 40
1.570796326795
  9
$LOFTANG2
 40
1.570796326795
  9
$LOFTMAG1
 40
0.0
  9
$LOFTMAG2
 40
0.0
  9
$LOFTPARAM
 70
7
  9
$LOFTNORMALS
280
1
  9
$LATITUDE
 40
37.795
  9
$LONGITUDE
 40
-122.394
  9
$NORTHDIRECTION
 40
0.0
  9
$TIMEZONE
 70
-8000
  9
$LIGHTGLYPHDISPLAY
280
1
  9
$TILEMODELIGHTSYNCH
280
1
  9
$CMATERIAL
347
20
  9
$SOLIDHIST
280
0
  9
$SHOWHIST
280
1
  9
$DWFFRAME
280
2
  9
$DGNFRAME
280
2
  9
$REALWORLDSCALE
290
1
  9
$INTERFERECOLOR
 62
256
  9
$CSHADOW
280
0
  9
$SHADOWPLANELOCATION
 40
0.0
  0
ENDSEC
  0
SECTION
  2
CLASSES
  0
CLASS
  1
ACDBDICTIONARYWDFLT
  2
AcDbDictionaryWithDefault
  3
ObjectDBX Classes
 90
0
 91
0
280
0
281
0
  0
CLASS
  1
SUN
  2
AcDbSun
  3
SCENEOE
 90
1153
 91
0
280
0
281
0
  0
CLASS
  1
VISUALSTYLE
  2
AcDbVisualStyle
  3
ObjectDBX Classes
 90
4095
 91
0
280
0
281
0
  0
CLASS
  1
MATERIAL
  2
AcDbMaterial
  3
ObjectDBX Classes
 90
1153
 91
0
280
0
281
0
  0
CLASS
  1
SCALE
  2
AcDbScale
  3
ObjectDBX Classes
 90
1153
 91
0
280
0
281
0
  0
CLASS
  1
TABLESTYLE
  2
AcDbTableStyle
  3
ObjectDBX Classes
 90
4095
 91
0
280
0
281
0
  0
CLASS
  1
MLEADERSTYLE
  2
AcDbMLeaderStyle
  3
ACDB_MLEADERSTYLE_CLASS
 90
4095
 91
0
280
0
281
0
  0
CLASS
  1
DICTIONARYVAR
  2
AcDbDictionaryVar
  3
ObjectDBX Classes
 90
0
 91
0
280
0
281
0
  0
CLASS
  1
CELLSTYLEMAP
  2
AcDbCellStyleMap
  3
ObjectDBX Classes
 90
1152
 91
0
280
0
281
0
  0
CLASS
  1
MENTALRAYRENDERSETTINGS
  2
AcDbMentalRayRenderSettings
  3
SCENEOE
 90
1024
 91
0
280
0
281
0
  0
CLASS
  1
ACDBDETAILVIEWSTYLE
  2
AcDbDetailViewStyle
  3
ObjectDBX Classes
 90
1025
 91
0
280
0
281
0
  0
CLASS
  1
ACDBSECTIONVIEWSTYLE
  2
AcDbSectionViewStyle
  3
ObjectDBX Classes
 90
1025
 91
0
280
0
281
0
  0
CLASS
  1
RASTERVARIABLES
  2
AcDbRasterVariables
  3
ISM
 90
0
 91
0
280
0
281
0
  0
CLASS
  1
ACDBPLACEHOLDER
  2
AcDbPlaceHolder
  3
ObjectDBX Classes
 90
0
 91
0
280
0
281
0
  0
CLASS
  1
LAYOUT
  2
AcDbLayout
  3
ObjectDBX Classes
 90
0
 91
0
280
0
281
0
  0
ENDSEC
  0
SECTION
  2
TABLES
  0
TABLE
  2
VPORT
  5
8
330
0
100
AcDbSymbolTable
 70
1
  0
VPORT
  5
23
330
8
100
AcDbSymbolTableRecord
100
AcDbViewportTableRecord
  2
*Active
 70
0
 10
0.0
 20
0.0
 11
1.0
 21
1.0
 12
344.2
 22
148.5
 13
0.0
 23
0.0
 14
0.5
 24
0.5
 15
0.5
 25
0.5
 16
0.0
 26
0.0
 36
1.0
 17
0.0
 27
0.0
 37
0.0
 40
297.0
 41
1.34
 42
50.0
 43
0.0
 44
0.0
 50
0.0
 51
0.0
 71
0
 72
1000
 73
1
 74
3
 75
0
 76
0
 77
0
 78
0
281
0
 65
0
146
0.0
  0
ENDTAB
  0
TABLE
  2
LTYPE
  5
2
330
0
100
AcDbSymbolTable
 70
3
  0
LTYPE
  5
24
330
2
100
AcDbSymbolTableRecord
100
AcDbLinetypeTableRecord
  2
ByBlock
 70
0
  3

 72
65
 73
0
 40
0.0
  0
LTYPE
  5
25
330
2
100
AcDbSymbolTableRecord
100
AcDbLinetypeTableRecord
  2
ByLayer
 70
0
  3

 72
65
 73
0
 40
0.0
  0
LTYPE
  5
26
330
2
100
AcDbSymbolTableRecord
100
AcDbLinetypeTableRecord
  2
Continuous
 70
0
  3

 72
65
 73
0
 40
0.0
  0
ENDTAB
  0
TABLE
  2
LAYER
  5
1
330
0
100
AcDbSymbolTable
 70
2
  0
LAYER
  5
27
330
1
100
AcDbSymbolTableRecord
100
AcDbLayerTableRecord
  2
0
 70
0
 62
7
  6
Continuous
370
-3
390
13
347
21
  0
LAYER
  5
28
330
1
100
AcDbSymbolTableRecord
100
AcDbLayerTableRecord
  2
Defpoints
 70
0
 62
7
  6
Continuous
290
0
370
-3
390
13
347
21
  0
ENDTAB
  0
TABLE
  2
STYLE
  5
5
330
0
100
AcDbSymbolTable
 70
1
  0
STYLE
  5
29
330
5
100
AcDbSymbolTableRecord
100
AcDbTextStyleTableRecord
  2
Standard
 70
0
 40
0.0
 41
1.0
 50
0.0
 71
0
 42
2.5
  3
txt
  4

  0
ENDTAB
  0
TABLE
  2
VIEW
  5
7
330
0
100
AcDbSymbolTable
 70
0
  0
ENDTAB
  0
TABLE
  2
UCS
  5
6
330
0
100
AcDbSymbolTable
 70
0
  0
ENDTAB
  0
TABLE
  2
APPID
  5
3
330
0
100
AcDbSymbolTable
 70
3
  0
APPID
  5
2A
330
3
100
AcDbSymbolTableRecord
100
AcDbRegAppTableRecord
  2
ACAD
 70
0
  0
APPID
  5
7E
330
3
100
AcDbSymbolTableRecord
100
AcDbRegAppTableRecord
  2
HATCHBACKGROUNDCOLOR
 70
0
  0
APPID
  5
7F
330
3
100
AcDbSymbolTableRecord
100
AcDbRegAppTableRecord
  2
EZDXF
 70
0
  0
ENDTAB
  0
TABLE
  2
DIMSTYLE
  5
4
330
0
100
AcDbSymbolTable
 70
1
100
AcDbDimStyleTable
  0
DIMSTYLE
105
2B
330
4
100
AcDbSymbolTableRecord
100
AcDbDimStyleTableRecord
  2
Standard
 70
0
 40
1.0
 41
2.5
 42
0.625
 43
3.75
 44
1.25
 45
0.0
 46
0.0
 47
0.0
 48
0.0
 49
2.5
140
2.5
141
2.5
142
0.0
143
0.03937007874
144
1.0
145
0.0
146
1.0
147
0.625
148
0.0
 69
0
 70
0
 71
0
 72
0
 73
0
 74
0
 75
0
 76
0
 77
1
 78
8
 79
0
170
0
171
3
172
1
173
0
174
0
175
0
176
0
177
0
178
0
179
0
271
0
272
2
273
2
274
3
275
0
276
0
277
2
278
44
279
0
280
0
281
0
282
0
283
0
284
8
285
0
286
0
288
0
289
3
290
0
371
-2
372
-2
  0
ENDTAB
  0
TABLE
  2
BLOCK_RECORD
  5
9
330
0
100
AcDbSymbolTable
 70
2
  0
BLOCK_RECORD
  5
17
330
9
100
AcDbSymbolTableRecord
100
AcDbBlockTableRecord
  2
*Model_Space
340
1A
 70
0
280
1
281
0
  0
BLOCK_RECORD
  5
1B
330
9
100
AcDbSymbolTableRecord
100
AcDbBlockTableRecord
  2
*Paper_Space
340
1E
 70
0
280
1
281
0
  0
ENDTAB
  0
ENDSEC
  0
SECTION
  2
BLOCKS
  0
BLOCK
  5
18
330
17
100
AcDbEntity
  8
0
100
AcDbBlockBegin
  2
*Model_Space
 70
0
 10
0.0
 20
0.0
 30
0.0
  3
*Model_Space
  1

  0
ENDBLK
  5
19
330
17
100
AcDbEntity
  8
0
100
AcDbBlockEnd
  0
BLOCK
  5
1C
330
1B
100
AcDbEntity
  8
0
100
AcDbBlockBegin
  2
*Paper_Space
 70
0
 10
0.0
 20
0.0
 30
0.0
  3
*Paper_Space
  1

  0
ENDBLK
  5
1D
330
1B
100
AcDbEntity
  8
0
100
AcDbBlockEnd
  0
ENDSEC
  0
SECTION
  2
ENTITIES
  0
SPLINE
  5
2F
330
17
100
AcDbEntity
  8
0
100
AcDbSpline
 70
0
 71
8
 72
74
 73
65
 74
0
 40
0.0
 40
0.0
 40
0.0
 40
0.0
 40
0.0
 40
0.0
 40
0.0
 40
0.0
 40
0.0
 40
0.10301766709861447
 40
0.10301766709861447
 40
0.10301766709861447
 40
0.10301766709861447
 40
0.10301766709861447
 40
0.10301766709861447
 40
0.10301766709861447
 40
0.20566990757052558
 40
0.20566990757052558
 40
0.20566990757052558
 40
0.20566990757052558
 40
0.20566990757052558
 40
0.20566990757052558
 40
0.20566990757052558
 40
0.29477410237213625
 40
0.29477410237213625
 40
0.29477410237213625
 40
0.29477410237213625
 40
0.29477410237213625
 40
0.29477410237213625
 40
0.29477410237213625
 40
0.39499129803069793
 40
0.39499129803069793
 40
0.39499129803069793
 40
0.39499129803069793
 40
0.39499129803069793
 40
0.39499129803069793
 40
0.39499129803069793
 40
0.474974394252992
 40
0.474974394252992
 40
0.474974394252992
 40
0.474974394252992
 40
0.474974394252992
 40
0.474974394252992
 40
0.474974394252992
 40
0.49345828963381133
 40
0.49345828963381133
 40
0.49345828963381133
 40
0.49345828963381133
 40
0.49345828963381133
 40
0.49345828963381133
 40
0.49345828963381133
 40
0.5601988502845364
 40
0.5601988502845364
 40
0.5601988502845364
 40
0.5601988502845364
 40
0.5601988502845364
 40
0.5601988502845364
 40
0.5601988502845364
 40
0.766807934345652
 40
0.766807934345652
 40
0.766807934345652
 40
0.766807934345652
 40
0.766807934345652
 40
0.766807934345652
 40
0.766807934345652
 40
1.0
 40
1.0
 40
1.0
 40
1.0
 40
1.0
 40
1.0
 40
1.0
 40
1.0
 40
1.0
 10
45.50293094557436
 20
235.90000000264067
 30
717.0
 10
45.19984395697348
 20
236.60297783981343
 30
717.0
 10
44.88831689453065
 20
237.30231079626768
 30
717.0
 10
44.56783695567766
 20
237.99765384675462
 30
717.0
 10
44.23784378959593
 20
238.6885858314899
 30
717.0
 10
43.897718638224845
 20
239.37460414046944
 30
717.0
 10
43.546770244202186
 20
240.0551178969145
 30
717.0
 10
43.18421149609068
 20
240.7294366317255
 30
717.0
 10
42.43536059676807
 20
242.0616991355647
 30
717.0
 10
42.04923299045272
 20
242.7195576622087
 30
717.0
 10
41.6497950268074
 20
243.36960097259586
 30
717.0
 10
41.2360467635023
 20
244.0108396399514
 30
717.0
 10
40.80691118000809
 20
244.64200663098416
 30
717.0
 10
40.361213881629006
 20
245.26154343002364
 30
717.0
 10
39.8976417493495
 20
245.86757172232356
 30
717.0
 10
38.9954216465592
 20
246.97019688916214
 30
717.0
 10
38.56171274640545
 20
247.4704921971578
 30
717.0
 10
38.11247794553448
 20
247.95734722633307
 30
717.0
 10
37.64672825182086
 20
248.42891462274812
 30
717.0
 10
37.163558825384605
 20
248.88289442547543
 30
717.0
 10
36.66216849443746
 20
249.31655505042724
 30
717.0
 10
36.14189940514651
 20
249.72677588676095
 30
717.0
 10
34.9954351575457
 20
250.54130069088302
 30
717.0
 10
34.36355807927249
 20
250.93888674011077
 30
717.0
 10
33.707009476925805
 20
251.2971779080519
 30
717.0
 10
33.02689312892244
 20
251.610130295537
 30
717.0
 10
32.32526522138773
 20
251.87182092343735
 30
717.0
 10
31.605385430249772
 20
252.07711584428327
 30
717.0
 10
30.872060484203722
 20
252.22256996609812
 30
717.0
 10
29.541531167041004
 20
252.3754162796666
 30
717.0
 10
28.946384689820043
 20
252.40479468516435
 30
717.0
 10
28.35000848614395
 20
252.39532773540503
 30
717.0
 10
27.755292372675523
 20
252.3478953492347
 30
717.0
 10
27.164701045474633
 20
252.26426692306626
 30
717.0
 10
26.580304946684183
 20
252.14678732484185
 30
717.0
 10
26.00380445758082
 20
251.99812123269623
 30
717.0
 10
25.305455721506288
 20
251.78013643973327
 30
717.0
 10
25.174692940798938
 20
251.73764528471426
 30
717.0
 10
25.044270975757247
 20
251.69361609289004
 30
717.0
 10
24.914197574970164
 20
251.64807468516094
 30
717.0
 10
24.784476335726573
 20
251.60103896370106
 30
717.0
 10
24.65510670401534
 20
251.55251891195806
 30
717.0
 10
24.5260839745253
 20
251.5025165946534
 30
717.0
 10
23.93275221423786
 20
251.26510752136227
 30
717.0
 10
23.47539100846819
 20
251.06098190927165
 30
717.0
 10
23.02591820867792
 20
250.83957843653778
 30
717.0
 10
22.584745269751178
 20
250.60193918940328
 30
717.0
 10
22.1521258838667
 20
250.34915841001072
 30
717.0
 10
21.728183328211497
 20
250.0823325659129
 30
717.0
 10
21.31293184265629
 20
249.8025213044092
 30
717.0
 10
19.64745517882895
 20
248.60738635617753
 30
717.0
 10
18.474398590731155
 20
247.59147320107235
 30
717.0
 10
17.378397245487108
 20
246.48948472852618
 30
717.0
 10
16.35091437098653
 20
245.3231088572897
 30
717.0
 10
15.383980291988408
 20
244.1088259760624
 30
717.0
 10
14.4699048369595
 20
242.85815833605045
 30
717.0
 10
13.60114043769746
 20
241.57776514607156
 30
717.0
 10
11.832114509231758
 20
238.79315020415055
 30
717.0
 10
10.944617531146058
 20
237.28515954529877
 30
717.0
 10
10.098831036824322
 20
235.75285556626812
 30
717.0
 10
9.288633494319114
 20
234.2014100653193
 30
717.0
 10
8.50908594250238
 20
232.63473618351958
 30
717.0
 10
7.756143773229496
 20
231.05563755871884
 30
717.0
 10
7.02630443016686
 20
229.46600168929479
 30
717.0
 10
6.316467970556857
 20
227.8668705592612
 30
717.0
  0
LINE
  5
30
330
17
100
AcDbEntity
  8
0
100
AcDbLine
 10
26.322106929086416
 20
235.9
 30
717.0
 11
45.50293093944951
 21
235.9
 31
717.0
  0
SPLINE
  5
31
330
17
100
AcDbEntity
  8
0
100
AcDbSpline
 70
0
 71
1
 72
4
 73
2
 74
0
 40
0.0
 40
0.0
 40
1.0
 40
1.0
 10
26.32210693313996
 20
235.9000006000011
 30
717.0
 10
26.32210693313996
 20
232.09999939999986
 30
717.0
  0
LINE
  5
32
330
17
100
AcDbEntity
  8
0
100
AcDbLine
 10
26.322106929086416
 20
232.1
 30
717.0
 11
47.02606973873531
 21
232.1
 31
717.0
  0
SPLINE
  5
33
330
17
100
AcDbEntity
  8
0
100
AcDbSpline
 70
0
 71
8
 72
39
 73
30
 74
0
 40
0.0
 40
0.0
 40
0.0
 40
0.0
 40
0.0
 40
0.0
 40
0.0
 40
0.0
 40
0.0
 40
0.21421171724950944
 40
0.21421171724950944
 40
0.21421171724950944
 40
0.21421171724950944
 40
0.21421171724950944
 40
0.21421171724950944
 40
0.21421171724950944
 40
0.6760673028237297
 40
0.6760673028237297
 40
0.6760673028237297
 40
0.6760673028237297
 40
0.6760673028237297
 40
0.6760673028237297
 40
0.6760673028237297
 40
0.9013877333788853
 40
0.9013877333788853
 40
0.9013877333788853
 40
0.9013877333788853
 40
0.9013877333788853
 40
0.9013877333788853
 40
0.9013877333788853
 40
1.0
 40
1.0
 40
1.0
 40
1.0
 40
1.0
 40
1.0
 40
1.0
 40
1.0
 40
1.0
 10
53.27575346672737
 20
209.90000000504773
 30
717.0
 10
53.13841906129013
 20
210.51700812523512
 30
717.0
 10
52.999599550079694
 20
211.13368426955387
 30
717.0
 10
52.85925191804431
 20
211.75001459558308
 30
717.0
 10
52.71733037677761
 20
212.36598437982536
 30
717.0
 10
52.573786047378164
 20
212.98157795094016
 30
717.0
 10
52.42856658260686
 20
213.59677861018994
 30
717.0
 10
52.28161571057472
 20
214.21156853531625
 30
717.0
 10
51.81217219047938
 20
216.1505324703641
 30
717.0
 10
51.48315158129754
 20
217.47309303915975
 30
717.0
 10
51.14519977430706
 20
218.79342839833035
 30
717.0
 10
50.79761852411887
 20
220.11129589105096
 30
717.0
 10
50.43959092882064
 20
221.4263833657068
 30
717.0
 10
50.07015143520705
 20
222.73830099075212
 30
717.0
 10
49.68812263709142
 20
224.0465639739018
 30
717.0
 10
49.09872443068773
 20
225.9867210145896
 30
717.0
 10
48.90467211629612
 20
226.6133868374613
 30
717.0
 10
48.709874591804684
 20
227.23040816500972
 30
717.0
 10
48.51433670383609
 20
227.83764903562192
 30
717.0
 10
48.318044365269
 20
228.4349916305101
 30
717.0
 10
48.120988140001636
 20
229.02234460803513
 30
717.0
 10
47.92318682771526
 20
229.59965143802958
 30
717.0
 10
47.63784743668741
 20
230.41515648026578
 30
717.0
 10
47.55084746310045
 20
230.6615093178719
 30
717.0
 10
47.46371266129572
 20
230.90596397668054
 30
717.0
 10
47.376444564692
 20
231.1485271844335
 30
717.0
 10
47.28904470670805
 20
231.38920566887256
 30
717.0
 10
47.20151462076261
 20
231.6280061577396
 30
717.0
 10
47.11385584027441
 20
231.86493537877658
 30
717.0
 10
47.02606989866213
 20
232.1000000597254
 30
717.0
  0
LINE
  5
34
330
17
100
AcDbEntity
  8
0
100
AcDbLine
 10
26.322106929086416
 20
209.9
 30
717.0
 11
53.275753444049
 21
209.9
 31
717.0
  0
SPLINE
  5
35
330
17
100
AcDbEntity
  8
0
100
AcDbSpline
 70
0
 71
1
 72
4
 73
2
 74
0
 40
0.0
 40
0.0
 40
1.0
 40
1.0
 10
26.32210693313996
 20
209.90000060000008
 30
717.0
 10
26.32210693313996
 20
206.09999939999994
 30
717.0
  0
LINE
  5
36
330
17
100
AcDbEntity
  8
0
100
AcDbLine
 10
26.322106929086416
 20
206.1
 30
717.0
 11
54.0968665199089
 21
206.1
 31
717.0
  0
SPLINE
  5
37
330
17
100
AcDbEntity
  8
0
100
AcDbSpline
 70
0
 71
8
 72
25
 73
16
 74
0
 40
0.0
 40
0.0
 40
0.0
 40
0.0
 40
0.0
 40
0.0
 40
0.0
 40
0.0
 40
0.0
 40
0.38051249399415293
 40
0.38051249399415293
 40
0.38051249399415293
 40
0.38051249399415293
 40
0.38051249399415293
 40
0.38051249399415293
 40
0.38051249399415293
 40
1.0
 40
1.0
 40
1.0
 40
1.0
 40
1.0
 40
1.0
 40
1.0
 40
1.0
 40
1.0
 10
58.13066515995369
 20
183.8999999994714
 30
717.0
 10
57.96273016350225
 20
184.9601201522682
 30
717.0
 10
57.79258190814782
 20
186.01988883283877
 30
717.0
 10
57.62016356671936
 20
187.07929136117406
 30
717.0
 10
57.44541434106664
 20
188.13831200271107
 30
717.0
 10
57.26826900892278
 20
189.19693389794384
 30
717.0
 10
57.088657380643
 20
190.2551389779962
 30
717.0
 10
56.90650364269986
 20
191.3129078624903
 30
717.0
 10
56.420900460675284
 20
194.09156004932413
 30
717.0000000000001
 10
56.113127884725884
 20
195.8116405326969
 30
717.0
 10
55.798049738343835
 20
197.5303954525624
 30
717.0
 10
55.475263605479626
 20
199.24773241453119
 30
717.0
 10
55.144316240350875
 20
200.96353104549652
 30
717.0
 10
54.80468825811447
 20
202.67763972202437
 30
717.0
 10
54.45577763516103
 20
204.38987207576437
 30
717.0
 10
54.09686652629676
 20
206.10000000134053
 30
717.0
  0
LINE
  5
38
330
17
100
AcDbEntity
  8
0
100
AcDbLine
 10
26.322106929086416
 20
183.9
 30
717.0
 11
58.13066516329049
 21
183.9
 31
717.0
  0
SPLINE
  5
39
330
17
100
AcDbEntity
  8
0
100
AcDbSpline
 70
0
 71
1
 72
4
 73
2
 74
0
 40
0.0
 40
0.0
 40
1.0
 40
1.0
 10
26.32210693313996
 20
183.90000060000014
 30
717.0
 10
26.32210693313996
 20
180.0999993999999
 30
717.0
  0
LINE
  5
3A
330
17
100
AcDbEntity
  8
0
100
AcDbLine
 10
26.322106929086416
 20
180.1
 30
717.0
 11
58.720172814622046
 21
180.1
 31
717.0
  0
SPLINE
  5
3B
330
17
100
AcDbEntity
  8
0
100
AcDbSpline
 70
0
 71
8
 72
25
 73
16
 74
0
 40
0.0
 40
0.0
 40
0.0
 40
0.0
 40
0.0
 40
0.0
 40
0.0
 40
0.0
 40
0.0
 40
0.41190733908298516
 40
0.41190733908298516
 40
0.41190733908298516
 40
0.41190733908298516
 40
0.41190733908298516
 40
0.41190733908298516
 40
0.41190733908298516
 40
1.0
 40
1.0
 40
1.0
 40
1.0
 40
1.0
 40
1.0
 40
1.0
 40
1.0
 40
1.0
 10
61.73029901745285
 20
157.89999999894604
 30
716.9999999999999
 10
61.591923092931076
 20
159.0452217222356
 30
716.9999999999999
 10
61.45175249056209
 20
160.19022614540654
 30
716.9999999999999
 10
61.309760577919434
 20
161.33500670405388
 30
716.9999999999999
 10
61.165918942050254
 20
162.47955648955096
 30
716.9999999999999
 10
61.02019725145473
 20
163.6238682330216
 30
716.9999999999999
 10
60.872563096113936
 20
164.767934286765
 30
716.9999999999999
 10
60.72298180170611
 20
165.91174660267572
 30
717.0
 10
60.35502140582636
 20
168.68797804121073
 30
717.0
 10
60.13458294150318
 20
170.32011634236213
 30
717.0
 10
59.90999229659474
 20
171.9516892720003
 30
717.0
 10
59.681131065473274
 20
173.58267053803445
 30
717.0
 10
59.44786934775945
 20
175.21302963873651
 30
717.0
 10
59.21006415460832
 20
176.84273161300644
 30
717.0
 10
58.96755737200421
 20
178.47173672368862
 30
717.0
 10
58.72017281807615
 20
180.1000000005248
 30
717.0
  0
LINE
  5
3C
330
17
100
AcDbEntity
  8
0
100
AcDbLine
 10
26.322106929086416
 20
157.9
 30
717.0
 11
61.73029902617541
 21
157.9
 31
717.0
  0
SPLINE
  5
3D
330
17
100
AcDbEntity
  8
0
100
AcDbSpline
 70
0
 71
1
 72
4
 73
2
 74
0
 40
0.0
 40
0.0
 40
1.0
 40
1.0
 10
26.32210693313996
 20
157.90000060000042
 30
717.0
 10
26.32210693313996
 20
154.09999939999918
 30
717.0
  0
LINE
  5
3E
330
17
100
AcDbEntity
  8
0
100
AcDbLine
 10
26.322106929086416
 20
154.1
 30
717.0
 11
62.18078829023722
 21
154.1
 31
717.0
  0
SPLINE
  5
3F
330
17
100
AcDbEntity
  8
0
100
AcDbSpline
 70
0
 71
8
 72
25
 73
16
 74
0
 40
0.0
 40
0.0
 40
0.0
 40
0.0
 40
0.0
 40
0.0
 40
0.0
 40
0.0
 40
0.0
 40
0.11926539645566578
 40
0.11926539645566578
 40
0.11926539645566578
 40
0.11926539645566578
 40
0.11926539645566578
 40
0.11926539645566578
 40
0.11926539645566578
 40
1.0
 40
1.0
 40
1.0
 40
1.0
 40
1.0
 40
1.0
 40
1.0
 40
1.0
 40
1.0
 10
64.49042110391117
 20
131.89999999655444
 30
717.0
 10
64.45981688777479
 20
132.23134599339102
 30
717.0
 10
64.42908696986112
 20
132.5626803727595
 30
717.0
 10
64.39823113047473
 20
132.89400305772824
 30
717.0
 10
64.3672491380564
 20
133.22531396995362
 30
717.0
 10
64.3361407541719
 20
133.5566130300643
 30
717.0
 10
64.30490574489502
 20
133.88790015853067
 30
717.0
 10
64.27354390091854
 20
134.2191752771827
 30
717.0
 10
64.00952069613604
 20
136.9967037489979
 30
717.0
 10
63.770057994773865
 20
139.44230426117494
 30
717.0
 10
63.52356927086983
 20
141.88721183072198
 30
717.0
 10
63.26993677365532
 20
144.33139329447272
 30
717.0
 10
63.00902070291817
 20
146.774810103769
 30
717.0
 10
62.74065700115112
 20
149.21741806425098
 30
717.0
 10
62.46465416202583
 20
151.6591669640868
 30
717.0
 10
62.18078828692433
 20
154.09999999961474
 30
717.0
  0
LINE
  5
40
330
17
100
AcDbEntity
  8
0
100
AcDbLine
 10
26.322106929086416
 20
131.9
 30
717.0
 11
64.49042114121595
 21
131.9
 31
717.0
  0
SPLINE
  5
41
330
17
100
AcDbEntity
  8
0
100
AcDbSpline
 70
0
 71
1
 72
4
 73
2
 74
0
 40
0.0
 40
0.0
 40
1.0
 40
1.0
 10
26.32210693313996
 20
131.90000060000256
 30
717.0
 10
26.32210693313996
 20
128.09999939999764
 30
717.0
  0
LINE
  5
42
330
17
100
AcDbEntity
  8
0
100
AcDbLine
 10
26.322106929086416
 20
128.1
 30
717.0
 11
64.8341428337198
 21
128.1
 31
717.0
  0
SPLINE
  5
43
330
17
100
AcDbEntity
  8
0
100
AcDbSpline
 70
0
 71
8
 72
32
 73
23
 74
0
 40
0.0
 40
0.0
 40
0.0
 40
0.0
 40
0.0
 40
0.0
 40
0.0
 40
0.0
 40
0.0
 40
0.12918853177297265
 40
0.12918853177297265
 40
0.12918853177297265
 40
0.12918853177297265
 40
0.12918853177297265
 40
0.12918853177297265
 40
0.12918853177297265
 40
0.8013094295143215
 40
0.8013094295143215
 40
0.8013094295143215
 40
0.8013094295143215
 40
0.8013094295143215
 40
0.8013094295143215
 40
0.8013094295143215
 40
1.0
 40
1.0
 40
1.0
 40
1.0
 40
1.0
 40
1.0
 40
1.0
 40
1.0
 40
1.0
 10
66.5641787783362
 20
105.90000000176065
 30
717.0
 10
66.53986563869013
 20
106.25876873103756
 30
717.0
 10
66.51542436146117
 20
106.61752877293647
 30
717.0
 10
66.49085459202065
 20
106.97628004996423
 30
717.0
 10
66.46615597481447
 20
107.33502248406988
 30
717.0
 10
66.44132815336313
 20
107.69375599664464
 30
717.0
 10
66.41637077026172
 20
108.05248050852188
 30
717.0
 10
66.3912834671799
 20
108.41119593997715
 30
717.0
 10
66.23486798491068
 20
110.63612034490686
 30
717.0
 10
66.1001436872212
 20
112.50209042486499
 30
717.0
 10
65.96184236834227
 20
114.36780112266507
 30
717.0
 10
65.81991262007409
 20
116.23324060540297
 30
717.0
 10
65.67430224946835
 20
118.09839653520794
 30
717.0
 10
65.52495827882842
 20
119.96325606924252
 30
717.0
 10
65.37182694570909
 20
121.8278058597027
 30
717.0
 10
65.16844969544388
 20
124.24312958294965
 30
717.0
 10
65.12171017850648
 20
124.79419885140487
 30
717.0
 10
65.07463339253785
 20
125.34523945995946
 30
717.0
 10
65.0272177085158
 20
125.89625102687188
 30
717.0
 10
64.97946178890021
 20
126.44723319531587
 30
717.0
 10
64.93136457883507
 20
126.99818562967408
 30
717.0
 10
64.88292520936746
 20
127.54910800642752
 30
717.0
 10
64.8341428944356
 20
128.1000000053765
 30
717.0
  0
LINE
  5
44
330
17
100
AcDbEntity
  8
0
100
AcDbLine
 10
26.322106929086416
 20
105.9
 30
717.0
 11
66.56417875235623
 21
105.9
 31
717.0
  0
SPLINE
  5
45
330
17
100
AcDbEntity
  8
0
100
AcDbSpline
 70
0
 71
1
 72
4
 73
2
 74
0
 40
0.0
 40
0.0
 40
1.0
 40
1.0
 10
26.32210693313996
 20
105.90000060000206
 30
717.0
 10
26.32210693313996
 20
102.09999939999993
 30
717.0
  0
LINE
  5
46
330
17
100
AcDbEntity
  8
0
100
AcDbLine
 10
26.322106929086416
 20
102.1
 30
717.0
 11
66.81542806136308
 21
102.1
 31
717.0
  0
SPLINE
  5
47
330
17
100
AcDbEntity
  8
0
100
AcDbSpline
 70
0
 71
8
 72
25
 73
16
 74
0
 40
0.0
 40
0.0
 40
0.0
 40
0.0
 40
0.0
 40
0.0
 40
0.0
 40
0.0
 40
0.0
 40
0.39635563614820923
 40
0.39635563614820923
 40
0.39635563614820923
 40
0.39635563614820923
 40
0.39635563614820923
 40
0.39635563614820923
 40
0.39635563614820923
 40
1.0
 40
1.0
 40
1.0
 40
1.0
 40
1.0
 40
1.0
 40
1.0
 40
1.0
 40
1.0
 10
68.04526550077661
 20
79.90000000105141
 30
717.0
 10
67.99386226524207
 20
81.00038578811476
 30
717.0
 10
67.94142683662035
 20
82.10072350126475
 30
717.0
 10
67.88795015557452
 20
83.20101165056572
 30
717.0
 10
67.83342309322867
 20
84.30124871767462
 30
717.0
 10
67.7778364496923
 20
85.40143315580094
 30
717.0
 10
67.72118095256143
 20
86.50156338966558
 30
717.0
 10
67.66344725539703
 20
87.60163781545916
 30
717.0
 10
67.51504184911019
 20
90.37696604348784
 30
717.0
 10
67.42293507764879
 20
92.05214226766037
 30
717.0
 10
67.32827242068215
 20
93.72717729978241
 30
717.0
 10
67.23102023860841
 20
95.40206470200309
 30
717.0
 10
67.13114445333792
 20
97.07679777215535
 30
717.0
 10
67.02861054829322
 20
98.75136954375603
 30
717.0
 10
66.92338356840902
 20
100.42577278600587
 30
717.0
 10
66.81542812013228
 20
102.1000000037894
 30
717.0
  0
LINE
  5
48
330
17
100
AcDbEntity
  8
0
100
AcDbLine
 10
26.322106929086416
 20
79.9
 30
717.0
 11
68.04526547826875
 21
79.9
 31
717.0
  0
SPLINE
  5
49
330
17
100
AcDbEntity
  8
0
100
AcDbSpline
 70
0
 71
1
 72
4
 73
2
 74
0
 40
0.0
 40
0.0
 40
1.0
 40
1.0
 10
26.32210693313996
 20
79.90000060000001
 30
717.0
 10
26.32210693313996
 20
76.09999939999999
 30
717.0
  0
LINE
  5
4A
330
17
100
AcDbEntity
  8
0
100
AcDbLine
 10
26.322106929086416
 20
76.1
 30
717.0
 11
68.21742256260931
 21
76.1
 31
717.0
  0
SPLINE
  5
4B
330
17
100
AcDbEntity
  8
0
100
AcDbSpline
 70
0
 71
8
 72
18
 73
9
 74
0
 40
0.0
 40
0.0
 40
0.0
 40
0.0
 40
0.0
 40
0.0
 40
0.0
 40
0.0
 40
0.0
 40
1.0
 40
1.0
 40
1.0
 40
1.0
 40
1.0
 40
1.0
 40
1.0
 40
1.0
 40
1.0
 10
69.02015006338333
 20
53.899999999454664
 30
717.0
 10
68.94031599563874
 20
56.67569465209895
 30
717.0
 10
68.8548897332725
 20
59.45122806569125
 30
717.0
 10
68.76374064453464
 20
62.22658303895517
 30
717.0
 10
68.66673594509825
 20
65.00174124122347
 30
717.0
 10
68.56374056856924
 20
67.77668320902009
 30
717.0
 10
68.4546170311019
 20
70.55138834244958
 30
717.0
 10
68.33922529012071
 20
73.3258349013939
 30
717.0
 10
68.21742259714813
 20
76.10000000151646
 30
717.0
  0
LINE
  5
4C
330
17
100
AcDbEntity
  8
0
100
AcDbLine
 10
26.322106929086416
 20
53.9
 30
717.0
 11
69.0201500823429
 21
53.9
 31
717.0
  0
SPLINE
  5
4D
330
17
100
AcDbEntity
  8
0
100
AcDbSpline
 70
0
 71
1
 72
4
 73
2
 74
0
 40
0.0
 40
0.0
 40
1.0
 40
1.0
 10
26.32210693313996
 20
53.90000060000026
 30
717.0
 10
26.32210693313996
 20
50.09999939999937
 30
717.0
  0
LINE
  5
4E
330
17
100
AcDbEntity
  8
0
100
AcDbLine
 10
26.322106929086416
 20
50.1
 30
717.0
 11
69.12489273660552
 21
50.1
 31
717.0
  0
SPLINE
  5
4F
330
17
100
AcDbEntity
  8
0
100
AcDbSpline
 70
0
 71
8
 72
18
 73
9
 74
0
 40
0.0
 40
0.0
 40
0.0
 40
0.0
 40
0.0
 40
0.0
 40
0.0
 40
0.0
 40
0.0
 40
1.0
 40
1.0
 40
1.0
 40
1.0
 40
1.0
 40
1.0
 40
1.0
 40
1.0
 40
1.0
 10
69.5647017019636
 20
27.899999999910946
 30
717.0
 10
69.52706408664952
 20
30.675306246201664
 30
717.0
 10
69.4847159084853
 20
33.45054902085478
 30
717.0
 10
69.43753762059069
 20
36.225717704196825
 30
717.0
 10
69.38540808433591
 20
39.00080056363534
 30
717.0
 10
69.32820446080093
 20
41.77578475092385
 30
717.0
 10
69.265802096357
 20
44.55065629923477
 30
717.0
 10
69.19807440237045
 20
47.325400120040115
 30
717.0
 10
69.12489272902886
 20
50.099999999800154
 30
717.0
  0
LINE
  5
50
330
17
100
AcDbEntity
  8
0
100
AcDbLine
 10
26.322106929086416
 20
27.9
 30
717.0
 11
69.56470170853015
 21
27.9
 31
717.0
  0
SPLINE
  5
51
330
17
100
AcDbEntity
  8
0
100
AcDbSpline
 70
0
 71
1
 72
4
 73
2
 74
0
 40
0.0
 40
0.0
 40
1.0
 40
1.0
 10
26.32210693313996
 20
27.900000600000002
 30
717.0
 10
26.32210693313996
 20
24.099999399999998
 30
717.0
  0
LINE
  5
52
330
17
100
AcDbEntity
  8
0
100
AcDbLine
 10
26.322106929086416
 20
24.1
 30
717.0
 11
69.61240510077064
 21
24.1
 31
717.0
  0
SPLINE
  5
53
330
17
100
AcDbEntity
  8
0
100
AcDbSpline
 70
0
 71
8
 72
25
 73
16
 74
0
 40
0.0
 40
0.0
 40
0.0
 40
0.0
 40
0.0
 40
0.0
 40
0.0
 40
0.0
 40
0.0
 40
0.28392214793987886
 40
0.28392214793987886
 40
0.28392214793987886
 40
0.28392214793987886
 40
0.28392214793987886
 40
0.28392214793987886
 40
0.28392214793987886
 40
1.0
 40
1.0
 40
1.0
 40
1.0
 40
1.0
 40
1.0
 40
1.0
 40
1.0
 40
1.0
 10
69.7469824832239
 20
1.8999999998366206
 30
717.0
 10
69.74630515068723
 20
2.6879033210229135
 30
717.0
 10
69.74531383134129
 20
3.475806368160244
 30
717.0
 10
69.74400585501556
 20
4.263708990274878
 30
717.0
 10
69.74237798589763
 20
5.051611035122372
 30
717.0
 10
69.7404276372025
 20
5.839512348680573
 30
717.0
 10
69.73815301409167
 20
6.627412774501538
 30
717.0
 10
69.73555218484249
 20
7.415312152922331
 30
717.0
 10
69.7252285641027
 20
10.190362190157305
 30
717.0
 10
69.71573877131462
 20
12.177503783868248
 30
717.0
 10
69.70411012288335
 20
14.164633008179981
 30
717.0
 10
69.69030071547371
 20
16.15174747990772
 30
717.0
 10
69.67426830396022
 20
18.13884452535117
 30
717.0
 10
69.65597028316056
 20
20.125921179850376
 30
717.0
 10
69.6353636687774
 20
22.112974187315658
 30
717.0
 10
69.61240507754866
 20
24.099999999731697
 30
717.0
  0
LINE
  5
54
330
17
100
AcDbEntity
  8
0
100
AcDbLine
 10
26.322106929086416
 20
1.9
 30
717.0
 11
69.74698267327358
 21
1.9
 31
717.0
  0
SPLINE
  5
55
330
17
100
AcDbEntity
  8
0
100
AcDbSpline
 70
0
 71
1
 72
4
 73
2
 74
0
 40
0.0
 40
0.0
 40
0.9999993684216398
 40
0.9999993684216398
 10
26.32210693313996
 20
1.9000006000000558
 30
717.0
 10
26.32210693313996
 20
-6.553790374438061e-17
 30
717.0
  0
SPLINE
  5
56
330
17
100
AcDbEntity
  8
0
100
AcDbSpline
 70
0
 71
1
 72
4
 73
2
 74
0
 40
0.0
 40
0.0
 40
1.0
 40
1.0
 10
26.32210693313996
 20
-1.9000006000000011
 30
717.0
 10
26.32210693313996
 20
1.2000000211287443e-06
 30
717.0
  0
LINE
  5
57
330
17
100
AcDbEntity
  8
0
100
AcDbLine
 10
26.322106929086427
 20
-1.9
 30
717.0
 11
69.74707460529518
 21
-1.9
 31
717.0
  0
SPLINE
  5
58
330
17
100
AcDbEntity
  8
0
100
AcDbSpline
 70
0
 71
8
 72
25
 73
16
 74
0
 40
0.0
 40
0.0
 40
0.0
 40
0.0
 40
0.0
 40
0.0
 40
0.0
 40
0.0
 40
0.0
 40
0.9932061467495772
 40
0.9932061467495772
 40
0.9932061467495772
 40
0.9932061467495772
 40
0.9932061467495772
 40
0.9932061467495772
 40
0.9932061467495772
 40
1.0
 40
1.0
 40
1.0
 40
1.0
 40
1.0
 40
1.0
 40
1.0
 40
1.0
 40
1.0
 10
69.61351369444648
 20
-24.100000000043572
 30
717.0
 10
69.64524376667308
 20
-21.34399224718465
 30
717.0
 10
69.67244398151082
 20
-18.587931386833688
 30
717.0
 10
69.6952308945952
 20
-15.831825782738125
 30
717.0
 10
69.71371957604278
 20
-13.075682506917559
 30
717.0
 10
69.72802371481582
 20
-10.319507343369768
 30
717.0
 10
69.73825572125251
 20
-7.563304791708214
 30
717.0
 10
69.74452682921873
 20
-4.807078070791726
 30
717.0
 10
69.74696375545638
 20
-2.031975482668358
 30
717.0
 10
69.74698013078464
 20
-2.013121842764638
 30
717.0
 10
69.74699632541117
 20
-1.9942682026978138
 30
717.0
 10
69.74701233942321
 20
-1.975414562469922
 30
717.0
 10
69.74702817290601
 20
-1.956560922082999
 30
717.0
 10
69.74704382594287
 20
-1.9377072815390817
 30
717.0
 10
69.74705929861511
 20
-1.9188536408402073
 30
717.0
 10
69.7470745910022
 20
-1.8999999999884127
 30
717.0
  0
LINE
  5
59
330
17
100
AcDbEntity
  8
0
100
AcDbLine
 10
26.322106929086427
 20
-24.1
 30
717.0
 11
69.61351369066278
 21
-24.1
 31
717.0
  0
SPLINE
  5
5A
330
17
100
AcDbEntity
  8
0
100
AcDbSpline
 70
0
 71
1
 72
4
 73
2
 74
0
 40
0.0
 40
0.0
 40
1.0
 40
1.0
 10
26.32210693313996
 20
-27.900000600000034
 30
717.0
 10
26.32210693313996
 20
-24.099999399999938
 30
717.0
  0
LINE
  5
5B
330
17
100
AcDbEntity
  8
0
100
AcDbLine
 10
26.322106929086427
 20
-27.9
 30
717.0
 11
69.56596230905022
 21
-27.9
 31
717.0
  0
SPLINE
  5
5C
330
17
100
AcDbEntity
  8
0
100
AcDbSpline
 70
0
 71
8
 72
18
 73
9
 74
0
 40
0.0
 40
0.0
 40
0.0
 40
0.0
 40
0.0
 40
0.0
 40
0.0
 40
0.0
 40
0.0
 40
1.0
 40
1.0
 40
1.0
 40
1.0
 40
1.0
 40
1.0
 40
1.0
 40
1.0
 40
1.0
 10
69.12679704247117
 20
-50.1000000000448
 30
717.0
 10
69.19993128628812
 20
-47.32539179976019
 30
717.0
 10
69.26760041131746
 20
-44.550642267629854
 30
717.0
 10
69.32993392060123
 20
-41.77576777817464
 30
717.0
 10
69.38705925758177
 20
-39.00078335852544
 30
717.0
 10
69.43910192719699
 20
-36.22570269277418
 30
717.0
 10
69.48618561148133
 20
-33.45053812610416
 30
717.0
 10
69.52843228120129
 20
-30.675300668763608
 30
717.0
 10
69.56596230505474
 20
-27.899999999945948
 30
717.0
  0
LINE
  5
5D
330
17
100
AcDbEntity
  8
0
100
AcDbLine
 10
26.322106929086427
 20
-50.1
 30
717.0
 11
69.12679704077026
 21
-50.1
 31
717.0
  0
SPLINE
  5
5E
330
17
100
AcDbEntity
  8
0
100
AcDbSpline
 70
0
 71
1
 72
4
 73
2
 74
0
 40
0.0
 40
0.0
 40
1.0
 40
1.0
 10
26.32210693313996
 20
-53.9000006
 30
717.0
 10
26.32210693313996
 20
-50.0999994
 30
717.0
  0
LINE
  5
5F
330
17
100
AcDbEntity
  8
0
100
AcDbLine
 10
26.322106929086427
 20
-53.9
 30
717.0
 11
69.0221103274884
 21
-53.9
 31
717.0
  0
SPLINE
  5
60
330
17
100
AcDbEntity
  8
0
100
AcDbSpline
 70
0
 71
8
 72
18
 73
9
 74
0
 40
0.0
 40
0.0
 40
0.0
 40
0.0
 40
0.0
 40
0.0
 40
0.0
 40
0.0
 40
0.0
 40
1.0
 40
1.0
 40
1.0
 40
1.0
 40
1.0
 40
1.0
 40
1.0
 40
1.0
 40
1.0
 10
68.21927317682842
 20
-76.0999999995848
 30
717.0
 10
68.34114308071165
 20
-73.32583749816371
 30
717.0
 10
68.45658514106502
 20
-70.55139040225177
 30
717.0
 10
68.56574288752137
 20
-67.77668307685924
 30
717.0
 10
68.66875716260995
 20
-65.00173851449392
 30
717.0
 10
68.76576626879469
 20
-62.22657834056178
 30
717.0
 10
68.85690610641056
 20
-59.45122281839687
 30
717.0
 10
68.94231030403176
 20
-56.67569085398433
 30
717.0
 10
69.02211034280577
 20
-53.90000000044037
 30
717.0
  0
LINE
  5
61
330
17
100
AcDbEntity
  8
0
100
AcDbLine
 10
26.322106929086427
 20
-76.1
 30
717.0
 11
68.21927318627952
 21
-76.1
 31
717.0
  0
SPLINE
  5
62
330
17
100
AcDbEntity
  8
0
100
AcDbSpline
 70
0
 71
1
 72
4
 73
2
 74
0
 40
0.0
 40
0.0
 40
1.0
 40
1.0
 10
26.32210693313996
 20
-79.90000060000018
 30
717.0
 10
26.32210693313996
 20
-76.09999939999999
 30
717.0
  0
LINE
  5
63
330
17
100
AcDbEntity
  8
0
100
AcDbLine
 10
26.322106929086427
 20
-79.9
 30
717.0
 11
68.04700962948633
 21
-79.9
 31
717.0
  0
SPLINE
  5
64
330
17
100
AcDbEntity
  8
0
100
AcDbSpline
 70
0
 71
8
 72
18
 73
9
 74
0
 40
0.0
 40
0.0
 40
0.0
 40
0.0
 40
0.0
 40
0.0
 40
0.0
 40
0.0
 40
0.0
 40
1.0
 40
1.0
 40
1.0
 40
1.0
 40
1.0
 40
1.0
 40
1.0
 40
1.0
 40
1.0
 10
66.81591142899026
 20
-102.0999999993762
 30
717.0
 10
66.99498315888498
 20
-99.32648270799777
 30
717.0
 10
67.16654387186345
 20
-96.55248013486693
 30
717.0
 10
67.33075545907789
 20
-93.77802485646627
 30
717.0
 10
67.48777633791785
 20
-91.00314804298317
 30
717.0
 10
67.63776163820387
 20
-88.22787946530855
 30
717.0
 10
67.78086337561545
 20
-85.45224750151235
 30
717.0
 10
67.91723061389683
 20
-82.67627914286001
 30
717.0
 10
68.04700961738388
 20
-79.89999999943427
 30
717.0
  0
LINE
  5
65
330
17
100
AcDbEntity
  8
0
100
AcDbLine
 10
26.322106929086427
 20
-102.1
 30
717.0
 11
66.81591143865185
 21
-102.1
 31
717.0
  0
SPLINE
  5
66
330
17
100
AcDbEntity
  8
0
100
AcDbSpline
 70
0
 71
1
 72
4
 73
2
 74
0
 40
0.0
 40
0.0
 40
1.0
 40
1.0
 10
26.32210693313996
 20
-105.90000060000003
 30
717.0
 10
26.32210693313996
 20
-102.09999939999999
 30
717.0
  0
LINE
  5
67
330
17
100
AcDbEntity
  8
0
100
AcDbLine
 10
26.322106929086427
 20
-105.9
 30
717.0
 11
66.56432301235039
 21
-105.9
 31
717.0
  0
SPLINE
  5
68
330
17
100
AcDbEntity
  8
0
100
AcDbSpline
 70
0
 71
8
 72
25
 73
16
 74
0
 40
0.0
 40
0.0
 40
0.0
 40
0.0
 40
0.0
 40
0.0
 40
0.0
 40
0.0
 40
0.0
 40
0.288021949827602
 40
0.288021949827602
 40
0.288021949827602
 40
0.288021949827602
 40
0.288021949827602
 40
0.288021949827602
 40
0.288021949827602
 40
1.0
 40
1.0
 40
1.0
 40
1.0
 40
1.0
 40
1.0
 40
1.0
 40
1.0
 40
1.0
 10
64.8314486754229
 20
-128.0999999905004
 30
717.0
 10
64.90229435863075
 20
-127.30142398670604
 30
717.0
 10
64.97241679075839
 20
-126.50278379727109
 30
717.0
 10
65.0418187305343
 20
-125.70408043677465
 30
717.0
 10
65.11050343317096
 20
-124.90531495018385
 30
717.0
 10
65.17847465036485
 20
-124.10648841285347
 30
717.0
 10
65.2457366302965
 20
-123.30760193052625
 30
717.0
 10
65.3122941176306
 20
-122.50865663933277
 30
717.0
 10
65.54095112076703
 20
-119.7345523253405
 30
717.0
 10
65.6994721806311
 20
-117.75910788745227
 30
717.0
 10
65.85378035514638
 20
-115.78333447792923
 30
717.0
 10
66.00393938150883
 20
-113.80724581195499
 30
717.0
 10
66.1500119533028
 20
-111.83085523566812
 30
717.0
 10
66.29205975969525
 20
-109.85417572765232
 30
717.0
 10
66.430143522738
 20
-107.8772199003486
 30
717.0
 10
66.56432303292266
 20
-105.90000000139611
 30
717.0
  0
LINE
  5
69
330
17
100
AcDbEntity
  8
0
100
AcDbLine
 10
26.322106929086427
 20
-128.1
 30
717.0
 11
64.8314487825029
 21
-128.1
 31
717.0
  0
SPLINE
  5
6A
330
17
100
AcDbEntity
  8
0
100
AcDbSpline
 70
0
 71
1
 72
4
 73
2
 74
0
 40
0.0
 40
0.0
 40
1.0
 40
1.0
 10
26.32210693313996
 20
-131.9000006
 30
717.0
 10
26.32210693313996
 20
-128.09999939999992
 30
717.0
  0
LINE
  5
6B
330
17
100
AcDbEntity
  8
0
100
AcDbLine
 10
26.322106929086427
 20
-131.9
 30
717.0
 11
64.4870813694765
 21
-131.9
 31
717.0
  0
SPLINE
  5
6C
330
17
100
AcDbEntity
  8
0
100
AcDbSpline
 70
0
 71
8
 72
18
 73
9
 74
0
 40
0.0
 40
0.0
 40
0.0
 40
0.0
 40
0.0
 40
0.0
 40
0.0
 40
0.0
 40
0.0
 40
1.0
 40
1.0
 40
1.0
 40
1.0
 40
1.0
 40
1.0
 40
1.0
 40
1.0
 40
1.0
 10
62.17287227932061
 20
-154.09999999916303
 30
717.0
 10
62.49581885837933
 20
-151.32865265691137
 30
717.0
 10
62.80861292896437
 20
-148.55611957999017
 30
717.0
 10
63.111580269586725
 20
-145.78248399547766
 30
717.0
 10
63.404992798281384
 20
-143.00781868290824
 30
717.0
 10
63.6890779304816
 20
-140.23218705041967
 30
717.0
 10
63.96402423968952
 20
-137.45564378735327
 30
717.0
 10
64.22998502269759
 20
-134.67823528287056
 30
717.0
 10
64.48708137111417
 20
-131.90000000015152
 30
717.0
  0
LINE
  5
6D
330
17
100
AcDbEntity
  8
0
100
AcDbLine
 10
26.322106929086427
 20
-154.1
 30
717.0
 11
62.17287228650296
 21
-154.1
 31
717.0
  0
SPLINE
  5
6E
330
17
100
AcDbEntity
  8
0
100
AcDbSpline
 70
0
 71
1
 72
4
 73
2
 74
0
 40
0.0
 40
0.0
 40
1.0
 40
1.0
 10
26.32210693313996
 20
-157.90000060000003
 30
717.0
 10
26.32210693313996
 20
-154.0999994
 30
717.0
  0
LINE
  5
6F
330
17
100
AcDbEntity
  8
0
100
AcDbLine
 10
26.322106929086427
 20
-157.9
 30
717.0
 11
61.721489115544394
 21
-157.9
 31
717.0
  0
SPLINE
  5
70
330
17
100
AcDbEntity
  8
0
100
AcDbSpline
 70
0
 71
8
 72
25
 73
16
 74
0
 40
0.0
 40
0.0
 40
0.0
 40
0.0
 40
0.0
 40
0.0
 40
0.0
 40
0.0
 40
0.0
 40
0.546686783793516
 40
0.546686783793516
 40
0.546686783793516
 40
0.546686783793516
 40
0.546686783793516
 40
0.546686783793516
 40
0.546686783793516
 40
1.0
 40
1.0
 40
1.0
 40
1.0
 40
1.0
 40
1.0
 40
1.0
 40
1.0
 40
1.0
 10
58.705762611475535
 20
-180.09999999997245
 30
717.0
 10
58.936122669609404
 20
-178.58638523877124
 30
717.0
 10
59.16226748324593
 20
-177.07212855784064
 30
717.0
 10
59.384338129251645
 20
-175.5572660108085
 30
717.0
 10
59.602462236779225
 20
-174.0418296378871
 30
717.0
 10
59.816756014918774
 20
-172.52584778445748
 30
717.0
 10
60.0273256980359
 20
-171.00934532856368
 30
717.0
 10
60.23426870976293
 20
-169.49234386557575
 30
717.0
 10
60.60633941437253
 20
-166.71656436571942
 30
717.0
 10
60.772571305772786
 20
-165.4579425099335
 30
717.0
 10
60.936421538321326
 20
-164.19900776439036
 30
717.0
 10
61.097937374760726
 20
-162.93977094836117
 30
717.0
 10
61.257162677911076
 20
-161.68024230778985
 30
717.0
 10
61.41413821489
 20
-160.42043155029646
 30
717.0
 10
61.568901917175616
 20
-159.16034787507897
 30
717.0
 10
61.72148910298109
 20
-157.899999998479
 30
717.0
  0
LINE
  5
71
330
17
100
AcDbEntity
  8
0
100
AcDbLine
 10
26.322106929086427
 20
-180.1
 30
717.0
 11
58.70576261165637
 21
-180.1
 31
717.0
  0
SPLINE
  5
72
330
17
100
AcDbEntity
  8
0
100
AcDbSpline
 70
0
 71
1
 72
4
 73
2
 74
0
 40
0.0
 40
0.0
 40
1.0
 40
1.0
 10
26.32210693313996
 20
-183.9000006000001
 30
717.0
 10
26.32210693313996
 20
-180.09999939999994
 30
717.0
  0
LINE
  5
73
330
17
100
AcDbEntity
  8
0
100
AcDbLine
 10
26.322106929086427
 20
-183.9
 30
717.0
 11
58.115264639821845
 21
-183.9
 31
717.0
  0
SPLINE
  5
74
330
17
100
AcDbEntity
  8
0
100
AcDbSpline
 70
0
 71
8
 72
25
 73
16
 74
0
 40
0.0
 40
0.0
 40
0.0
 40
0.0
 40
0.0
 40
0.0
 40
0.0
 40
0.0
 40
0.0
 40
0.5826248240021207
 40
0.5826248240021207
 40
0.5826248240021207
 40
0.5826248240021207
 40
0.5826248240021207
 40
0.5826248240021207
 40
0.5826248240021207
 40
1.0
 40
1.0
 40
1.0
 40
1.0
 40
1.0
 40
1.0
 40
1.0
 40
1.0
 40
1.0
 10
54.07593016874962
 20
-206.10000000175756
 30
717.0
 10
54.413847271875184
 20
-204.49163624656603
 30
717.0
 10
54.74292925324235
 20
-202.88141205081496
 30
717.0
 10
55.063771804014536
 20
-201.269516745781
 30
717.0
 10
55.3768802855142
 20
-199.6561066412363
 30
717.0
 10
55.68269405172303
 20
-198.04131017580656
 30
717.0
 10
55.981599303203794
 20
-196.42523065159503
 30
717.0
 10
56.27394062424001
 20
-194.80794870621403
 30
717.0
 10
56.7649697173853
 20
-192.03013145134918
 30
717.0
 10
56.966699193718036
 20
-190.87017343698375
 30
717.0
 10
57.16532718085924
 20
-189.7096780284477
 30
717.0
 10
57.360956325329
 20
-188.54867168426117
 30
717.0
 10
57.553680870351144
 20
-187.3871788778319
 30
717.0
 10
57.7435877394513
 20
-186.22522226792472
 30
717.0
 10
57.93075741268481
 20
-185.06282283635232
 30
717.0
 10
58.11526464335769
 20
-183.9000000005611
 30
717.0
  0
LINE
  5
75
330
17
100
AcDbEntity
  8
0
100
AcDbLine
 10
26.322106929086427
 20
-206.1
 30
717.0
 11
54.07593016038425
 21
-206.1
 31
717.0
  0
SPLINE
  5
76
330
17
100
AcDbEntity
  8
0
100
AcDbSpline
 70
0
 71
1
 72
4
 73
2
 74
0
 40
0.0
 40
0.0
 40
1.0
 40
1.0
 10
26.32210693313996
 20
-209.90000060000008
 30
717.0
 10
26.32210693313996
 20
-206.09999939999992
 30
717.0
  0
LINE
  5
77
330
17
100
AcDbEntity
  8
0
100
AcDbLine
 10
26.322106929086427
 20
-209.9
 30
717.0
 11
53.25398573529995
 21
-209.9
 31
717.0
  0
SPLINE
  5
78
330
17
100
AcDbEntity
  8
0
100
AcDbSpline
 70
0
 71
8
 72
39
 73
30
 74
0
 40
0.0
 40
0.0
 40
0.0
 40
0.0
 40
0.0
 40
0.0
 40
0.0
 40
0.0
 40
0.0
 40
0.07112557712353436
 40
0.07112557712353436
 40
0.07112557712353436
 40
0.07112557712353436
 40
0.07112557712353436
 40
0.07112557712353436
 40
0.07112557712353436
 40
0.21668798173979528
 40
0.21668798173979528
 40
0.21668798173979528
 40
0.21668798173979528
 40
0.21668798173979528
 40
0.21668798173979528
 40
0.21668798173979528
 40
0.7831531313243449
 40
0.7831531313243449
 40
0.7831531313243449
 40
0.7831531313243449
 40
0.7831531313243449
 40
0.7831531313243449
 40
0.7831531313243449
 40
1.0
 40
1.0
 40
1.0
 40
1.0
 40
1.0
 40
1.0
 40
1.0
 40
1.0
 40
1.0
 10
47.00174907491869
 20
-232.09999998590072
 30
717.0
 10
47.06709268204399
 20
-231.92500325618545
 30
717.0
 10
47.132366601564
 20
-231.74897320994887
 30
717.0
 10
47.19757020578929
 20
-231.57190707150286
 30
717.0
 10
47.26270286703041
 20
-231.39380206515946
 30
717.0
 10
47.32776395759792
 20
-231.2146554152306
 30
717.0
 10
47.39275284980235
 20
-231.0344643460283
 30
717.0
 10
47.457668915954244
 20
-230.85322608186456
 30
717.0
 10
47.65521550020799
 20
-230.29787495089295
 30
717.0
 10
47.78760776812639
 20
-229.92043977458573
 30
717.0
 10
47.91968530096219
 20
-229.53857163431437
 30
717.0
 10
48.05144478723616
 20
-229.1522359184284
 30
717.0
 10
48.18288263514707
 20
-228.76142408744246
 30
717.0
 10
48.313994972571535
 20
-228.3661536740362
 30
717.0
 10
48.44477764706419
 20
-227.96646828305435
 30
717.0
 10
49.082874982376104
 20
-225.99012703008393
 30
717.0
 10
49.56662535799997
 20
-224.410162443501
 30
717.0
 10
50.02993763266418
 20
-222.82398581989005
 30
717.0
 10
50.47523479190895
 20
-221.23264583627738
 30
717.0
 10
50.904407852384345
 20
-219.63694259408499
 30
717.0
 10
51.3190095540703
 20
-218.03748225875793
 30
717.0
 10
51.7203139247416
 20
-216.4346936463658
 30
717.0
 10
52.25837148414626
 20
-214.21413385482134
 30
717.0
 10
52.40553209912955
 20
-213.59897855177252
 30
717.0
 10
52.550961777029755
 20
-212.98341204258136
 30
717.0
 10
52.694716742503545
 20
-212.36745222464882
 30
717.0
 10
52.83684929710512
 20
-211.75111586014833
 30
717.0
 10
52.97740827665821
 20
-211.13441867281932
 30
717.0
 10
53.116439429344375
 20
-210.5173754279477
 30
717.0
 10
53.2539857327494
 20
-209.89999999943177
 30
717.0
  0
LINE
  5
79
330
17
100
AcDbEntity
  8
0
100
AcDbLine
 10
26.322106929086427
 20
-232.1
 30
717.0
 11
47.001749112677935
 21
-232.1
 31
717.0
  0
SPLINE
  5
7A
330
17
100
AcDbEntity
  8
0
100
AcDbSpline
 70
0
 71
1
 72
4
 73
2
 74
0
 40
0.0
 40
0.0
 40
1.0
 40
1.0
 10
26.32210693313996
 20
-235.90000060000008
 30
717.0
 10
26.32210693313996
 20
-232.09999939999992
 30
717.0
  0
LINE
  5
7B
330
17
100
AcDbEntity
  8
0
100
AcDbLine
 10
26.322106929086427
 20
-235.9
 30
717.0
 11
45.47901597286993
 21
-235.9
 31
717.0
  0
SPLINE
  5
7C
330
17
100
AcDbEntity
  8
0
100
AcDbSpline
 70
0
 71
8
 72
74
 73
65
 74
0
 40
0.0
 40
0.0
 40
0.0
 40
0.0
 40
0.0
 40
0.0
 40
0.0
 40
0.0
 40
0.0
 40
0.029055991806929922
 40
0.029055991806929922
 40
0.029055991806929922
 40
0.029055991806929922
 40
0.029055991806929922
 40
0.029055991806929922
 40
0.029055991806929922
 40
0.05100216699785863
 40
0.05100216699785863
 40
0.05100216699785863
 40
0.05100216699785863
 40
0.05100216699785863
 40
0.05100216699785863
 40
0.05100216699785863
 40
0.05489370495788705
 40
0.05489370495788705
 40
0.05489370495788705
 40
0.05489370495788705
 40
0.05489370495788705
 40
0.05489370495788705
 40
0.05489370495788705
 40
0.05874516915560393
 40
0.05874516915560393
 40
0.05874516915560393
 40
0.05874516915560393
 40
0.05874516915560393
 40
0.05874516915560393
 40
0.05874516915560393
 40
0.06708892652962187
 40
0.06708892652962187
 40
0.06708892652962187
 40
0.06708892652962187
 40
0.06708892652962187
 40
0.06708892652962187
 40
0.06708892652962187
 40
0.07667493002751238
 40
0.07667493002751238
 40
0.07667493002751238
 40
0.07667493002751238
 40
0.07667493002751238
 40
0.07667493002751238
 40
0.07667493002751238
 40
0.08414934672617498
 40
0.08414934672617498
 40
0.08414934672617498
 40
0.08414934672617498
 40
0.08414934672617498
 40
0.08414934672617498
 40
0.08414934672617498
 40
0.09726672126162302
 40
0.09726672126162302
 40
0.09726672126162302
 40
0.09726672126162302
 40
0.09726672126162302
 40
0.09726672126162302
 40
0.09726672126162302
 40
0.11174452020257479
 40
0.11174452020257479
 40
0.11174452020257479
 40
0.11174452020257479
 40
0.11174452020257479
 40
0.11174452020257479
 40
0.11174452020257479
 40
0.11174452020257479
 40
0.11174452020257479
 10
6.316467970556857
 20
-227.8668705592612
 30
717.0
 10
7.118688850821748
 20
-229.67412681586342
 30
717.0
 10
7.946247383163481
 20
-231.46877848015708
 30
717.0
 10
8.803776620043294
 20
-233.24977326848486
 30
717.0
 10
9.696528325270165
 20
-235.0144655436343
 30
717.0
 10
10.630550379512655
 20
-236.75853243220428
 30
717.0
 10
11.613489585529038
 20
-238.47550848889787
 30
717.0
 10
12.654889011383183
 20
-240.15663860076896
 30
717.0
 10
14.611823605220607
 20
-243.0217382146766
 30
717.0
 10
15.49371892128454
 20
-244.2236505581679
 30
717.0
 10
16.42335751122185
 20
-245.39187884625449
 30
717.0
 10
17.408323635668864
 20
-246.51845421401237
 30
717.0
 10
18.45601094314152
 20
-247.59004187916148
 30
717.0
 10
19.573424031130465
 20
-248.58822584989073
 30
717.0
 10
20.767292882306712
 20
-249.48940627389766
 30
717.0
 10
22.267656503857665
 20
-250.4052980515509
 30
717.0
 10
22.494669935912054
 20
-250.5384572732091
 30
717.0
 10
22.72273467004888
 20
-250.6668034075755
 30
717.0
 10
22.951865308563885
 20
-250.7903108594517
 30
717.0
 10
23.182076453753226
 20
-250.90895403363953
 30
717.0
 10
23.41338270791351
 20
-251.02270733494137
 30
717.0
 10
23.645798673341776
 20
-251.13154516816002
 30
717.0
 10
24.11047431128822
 20
-251.33826881369026
 30
717.0
 10
24.343581170053653
 20
-251.4366464204113
 30
717.0
 10
24.57859368107175
 20
-251.53043891151026
 30
717.0
 10
24.815476010066753
 20
-251.61950279596797
 30
717.0
 10
25.05410034696429
 20
-251.70381761651313
 30
717.0
 10
25.294365302827707
 20
-251.78324408629246
 30
717.0
 10
25.536276172639756
 20
-251.85740654606033
 30
717.0
 10
26.307076977501982
 20
-252.07522240839884
 30
717.0
 10
26.84184531451471
 20
-252.19901562369523
 30
717.0
 10
27.38281252736872
 20
-252.29540198923823
 30
717.0
 10
27.928522649474726
 20
-252.36235105927454
 30
717.0
 10
28.477253980565852
 20
-252.3981188871863
 30
717.0
 10
29.027004879057337
 20
-252.40142321982563
 30
717.0
 10
29.57547614128022
 20
-252.37165120170042
 30
717.0
 10
30.745701741705354
 20
-252.23723508586818
 30
717.0
 10
31.366626126781807
 20
-252.12205595183124
 30
717.0
 10
31.978744946427994
 20
-251.96391780581303
 30
717.0
 10
32.57893852169489
 20
-251.76462546687242
 30
717.0
 10
33.1648808433753
 20
-251.52696686534458
 30
717.0
 10
33.73490155418085
 20
-251.25431909062146
 30
717.0
 10
34.28787474079526
 20
-250.95032657558386
 30
717.0
 10
35.24048831110943
 20
-250.3600370389946
 30
717.0
 10
35.64728281216585
 20
-250.0844623221232
 30
717.0
 10
36.04344706763785
 20
-249.79347215306103
 30
717.0
 10
36.42905916217564
 20
-249.4885508394552
 30
717.0
 10
36.80431104515709
 20
-249.1710770052866
 30
717.0
 10
37.169482144677644
 20
-248.84228998556742
 30
717.0
 10
37.52492178678814
 20
-248.50326772105987
 30
717.0
 10
38.47846812013741
 20
-247.54356971994017
 30
717.0
 10
39.056868243500716
 20
-246.90381078282016
 30
717.0
 10
39.60867065748713
 20
-246.24041862221694
 30
717.0
 10
40.135969659424845
 20
-245.5573152715867
 30
717.0
 10
40.640677553389075
 20
-244.85768803398955
 30
717.0
 10
41.124590243374804
 20
-244.1440408294315
 30
717.0
 10
41.589412229935256
 20
-243.41821361372575
 30
717.0
 10
42.530562680236564
 20
-241.86818940345142
 30
717.0
 10
43.002813683734445
 20
-241.04204424328736
 30
717.0
 10
43.455618635733856
 20
-240.20489739913774
 30
717.0
 10
43.89065107194578
 20
-239.35831768164218
 30
717.0
 10
44.309330343790116
 20
-238.50359540681075
 30
717.0
 10
44.712899194275884
 20
-237.64178164487345
 30
717.0
 10
45.10246196346677
 20
-236.7737074172175
 30
717.0
 10
45.4790159850597
 20
-235.9000000052536
 30
717.0
  0
SPLINE
  5
7D
330
17
100
AcDbEntity
  8
0
100
AcDbSpline
 70
0
 71
8
 72
424
 73
415
 74
0
 40
0.0
 40
0.0
 40
0.0
 40
0.0
 40
0.0
 40
0.0
 40
0.0
 40
0.0
 40
0.0
 40
0.0026122086327218315
 40
0.0026122086327218315
 40
0.0026122086327218315
 40
0.0026122086327218315
 40
0.0026122086327218315
 40
0.0026122086327218315
 40
0.0026122086327218315
 40
0.005340340287433415
 40
0.005340340287433415
 40
0.005340340287433415
 40
0.005340340287433415
 40
0.005340340287433415
 40
0.005340340287433415
 40
0.005340340287433415
 40
0.00834128510763064
 40
0.00834128510763064
 40
0.00834128510763064
 40
0.00834128510763064
 40
0.00834128510763064
 40
0.00834128510763064
 40
0.00834128510763064
 40
0.010250977265942523
 40
0.010250977265942523
 40
0.010250977265942523
 40
0.010250977265942523
 40
0.010250977265942523
 40
0.010250977265942523
 40
0.010250977265942523
 40
0.012979108920655192
 40
0.012979108920655192
 40
0.012979108920655192
 40
0.012979108920655192
 40
0.012979108920655192
 40
0.012979108920655192
 40
0.012979108920655192
 40
0.015980053740853508
 40
0.015980053740853508
 40
0.015980053740853508
 40
0.015980053740853508
 40
0.015980053740853508
 40
0.015980053740853508
 40
0.015980053740853508
 40
0.021283351585764356
 40
0.021283351585764356
 40
0.021283351585764356
 40
0.021283351585764356
 40
0.021283351585764356
 40
0.021283351585764356
 40
0.021283351585764356
 40
0.030074549999138313
 40
0.030074549999138313
 40
0.030074549999138313
 40
0.030074549999138313
 40
0.030074549999138313
 40
0.030074549999138313
 40
0.030074549999138313
 40
0.04878052647246354
 40
0.04878052647246354
 40
0.04878052647246354
 40
0.04878052647246354
 40
0.04878052647246354
 40
0.04878052647246354
 40
0.04878052647246354
 40
0.06137550685395739
 40
0.06137550685395739
 40
0.06137550685395739
 40
0.06137550685395739
 40
0.06137550685395739
 40
0.06137550685395739
 40
0.06137550685395739
 40
0.06799321670786355
 40
0.06799321670786355
 40
0.06799321670786355
 40
0.06799321670786355
 40
0.06799321670786355
 40
0.06799321670786355
 40
0.06799321670786355
 40
0.07609284267530583
 40
0.07609284267530583
 40
0.07609284267530583
 40
0.07609284267530583
 40
0.07609284267530583
 40
0.07609284267530583
 40
0.07609284267530583
 40
0.11406371041757782
 40
0.11406371041757782
 40
0.11406371041757782
 40
0.11406371041757782
 40
0.11406371041757782
 40
0.11406371041757782
 40
0.11406371041757782
 40
0.21078714020946152
 40
0.21078714020946152
 40
0.21078714020946152
 40
0.21078714020946152
 40
0.21078714020946152
 40
0.21078714020946152
 40
0.21078714020946152
 40
0.2819965766265171
 40
0.2819965766265171
 40
0.2819965766265171
 40
0.2819965766265171
 40
0.2819965766265171
 40
0.2819965766265171
 40
0.2819965766265171
 40
0.38425513021319585
 40
0.38425513021319585
 40
0.38425513021319585
 40
0.38425513021319585
 40
0.38425513021319585
 40
0.38425513021319585
 40
0.38425513021319585
 40
0.430767366018021
 40
0.430767366018021
 40
0.430767366018021
 40
0.430767366018021
 40
0.430767366018021
 40
0.430767366018021
 40
0.430767366018021
 40
0.47042025537443705
 40
0.47042025537443705
 40
0.47042025537443705
 40
0.47042025537443705
 40
0.47042025537443705
 40
0.47042025537443705
 40
0.47042025537443705
 40
0.4867816723026315
 40
0.4867816723026315
 40
0.4867816723026315
 40
0.4867816723026315
 40
0.4867816723026315
 40
0.4867816723026315
 40
0.4867816723026315
 40
0.5031424184480093
 40
0.5031424184480093
 40
0.5031424184480093
 40
0.5031424184480093
 40
0.5031424184480093
 40
0.5031424184480093
 40
0.5031424184480093
 40
0.5307817221830307
 40
0.5307817221830307
 40
0.5307817221830307
 40
0.5307817221830307
 40
0.5307817221830307
 40
0.5307817221830307
 40
0.5307817221830307
 40
0.5448169970635639
 40
0.5448169970635639
 40
0.5448169970635639
 40
0.5448169970635639
 40
0.5448169970635639
 40
0.5448169970635639
 40
0.5448169970635639
 40
0.5512142739868225
 40
0.5512142739868225
 40
0.5512142739868225
 40
0.5512142739868225
 40
0.5512142739868225
 40
0.5512142739868225
 40
0.5512142739868225
 40
0.5555787806898668
 40
0.5555787806898668
 40
0.5555787806898668
 40
0.5555787806898668
 40
0.5555787806898668
 40
0.5555787806898668
 40
0.5555787806898668
 40
0.5577425359719295
 40
0.5577425359719295
 40
0.5577425359719295
 40
0.5577425359719295
 40
0.5577425359719295
 40
0.5577425359719295
 40
0.5577425359719295
 40
0.5584613935306673
 40
0.5584613935306673
 40
0.5584613935306673
 40
0.5584613935306673
 40
0.5584613935306673
 40
0.5584613935306673
 40
0.5584613935306673
 40
0.5593000606825326
 40
0.5593000606825326
 40
0.5593000606825326
 40
0.5593000606825326
 40
0.5593000606825326
 40
0.5593000606825326
 40
0.5593000606825326
 40
0.560138727834391
 40
0.560138727834391
 40
0.560138727834391
 40
0.560138727834391
 40
0.560138727834391
 40
0.560138727834391
 40
0.560138727834391
 40
0.561456633358757
 40
0.561456633358757
 40
0.561456633358757
 40
0.561456633358757
 40
0.561456633358757
 40
0.561456633358757
 40
0.561456633358757
 40
0.562774538954249
 40
0.562774538954249
 40
0.562774538954249
 40
0.562774538954249
 40
0.562774538954249
 40
0.562774538954249
 40
0.562774538954249
 40
0.5648459905028079
 40
0.5648459905028079
 40
0.5648459905028079
 40
0.5648459905028079
 40
0.5648459905028079
 40
0.5648459905028079
 40
0.5648459905028079
 40
0.5663345578008057
 40
0.5663345578008057
 40
0.5663345578008057
 40
0.5663345578008057
 40
0.5663345578008057
 40
0.5663345578008057
 40
0.5663345578008057
 40
0.5680357775699516
 40
0.5680357775699516
 40
0.5680357775699516
 40
0.5680357775699516
 40
0.5680357775699516
 40
0.5680357775699516
 40
0.5680357775699516
 40
0.5701623022813822
 40
0.5701623022813822
 40
0.5701623022813822
 40
0.5701623022813822
 40
0.5701623022813822
 40
0.5701623022813822
 40
0.5701623022813822
 40
0.5722888269928096
 40
0.5722888269928096
 40
0.5722888269928096
 40
0.5722888269928096
 40
0.5722888269928096
 40
0.5722888269928096
 40
0.5722888269928096
 40
0.57642264871945
 40
0.57642264871945
 40
0.57642264871945
 40
0.57642264871945
 40
0.57642264871945
 40
0.57642264871945
 40
0.57642264871945
 40
0.5832752328013662
 40
0.5832752328013662
 40
0.5832752328013662
 40
0.5832752328013662
 40
0.5832752328013662
 40
0.5832752328013662
 40
0.5832752328013662
 40
0.597856219175259
 40
0.597856219175259
 40
0.597856219175259
 40
0.597856219175259
 40
0.597856219175259
 40
0.597856219175259
 40
0.597856219175259
 40
0.6076737907218107
 40
0.6076737907218107
 40
0.6076737907218107
 40
0.6076737907218107
 40
0.6076737907218107
 40
0.6076737907218107
 40
0.6076737907218107
 40
0.6128321823044084
 40
0.6128321823044084
 40
0.6128321823044084
 40
0.6128321823044084
 40
0.6128321823044084
 40
0.6128321823044084
 40
0.6128321823044084
 40
0.6191457019473938
 40
0.6191457019473938
 40
0.6191457019473938
 40
0.6191457019473938
 40
0.6191457019473938
 40
0.6191457019473938
 40
0.6191457019473938
 40
0.6487427446421611
 40
0.6487427446421611
 40
0.6487427446421611
 40
0.6487427446421611
 40
0.6487427446421611
 40
0.6487427446421611
 40
0.6487427446421611
 40
0.724126963917272
 40
0.724126963917272
 40
0.724126963917272
 40
0.724126963917272
 40
0.724126963917272
 40
0.724126963917272
 40
0.724126963917272
 40
0.7796152187692679
 40
0.7796152187692679
 40
0.7796152187692679
 40
0.7796152187692679
 40
0.7796152187692679
 40
0.7796152187692679
 40
0.7796152187692679
 40
0.8351089557300471
 40
0.8351089557300471
 40
0.8351089557300471
 40
0.8351089557300471
 40
0.8351089557300471
 40
0.8351089557300471
 40
0.8351089557300471
 40
0.8793397792918863
 40
0.8793397792918863
 40
0.8793397792918863
 40
0.8793397792918863
 40
0.8793397792918863
 40
0.8793397792918863
 40
0.8793397792918863
 40
0.9187023120449058
 40
0.9187023120449058
 40
0.9187023120449058
 40
0.9187023120449058
 40
0.9187023120449058
 40
0.9187023120449058
 40
0.9187023120449058
 40
0.9445376966401385
 40
0.9445376966401385
 40
0.9445376966401385
 40
0.9445376966401385
 40
0.9445376966401385
 40
0.9445376966401385
 40
0.9445376966401385
 40
0.9546484437188562
 40
0.9546484437188562
 40
0.9546484437188562
 40
0.9546484437188562
 40
0.9546484437188562
 40
0.9546484437188562
 40
0.9546484437188562
 40
0.9644199157491979
 40
0.9644199157491979
 40
0.9644199157491979
 40
0.9644199157491979
 40
0.9644199157491979
 40
0.9644199157491979
 40
0.9644199157491979
 40
0.9757252674918853
 40
0.9757252674918853
 40
0.9757252674918853
 40
0.9757252674918853
 40
0.9757252674918853
 40
0.9757252674918853
 40
0.9757252674918853
 40
0.9815120180758921
 40
0.9815120180758921
 40
0.9815120180758921
 40
0.9815120180758921
 40
0.9815120180758921
 40
0.9815120180758921
 40
0.9815120180758921
 40
0.9846960578869887
 40
0.9846960578869887
 40
0.9846960578869887
 40
0.9846960578869887
 40
0.9846960578869887
 40
0.9846960578869887
 40
0.9846960578869887
 40
0.9878800976980834
 40
0.9878800976980834
 40
0.9878800976980834
 40
0.9878800976980834
 40
0.9878800976980834
 40
0.9878800976980834
 40
0.9878800976980834
 40
0.98947211760363
 40
0.98947211760363
 40
0.98947211760363
 40
0.98947211760363
 40
0.98947211760363
 40
0.98947211760363
 40
0.98947211760363
 40
0.9921254841128747
 40
0.9921254841128747
 40
0.9921254841128747
 40
0.9921254841128747
 40
0.9921254841128747
 40
0.9921254841128747
 40
0.9921254841128747
 40
0.9947788506221138
 40
0.9947788506221138
 40
0.9947788506221138
 40
0.9947788506221138
 40
0.9947788506221138
 40
0.9947788506221138
 40
0.9947788506221138
 40
0.996636207178583
 40
0.996636207178583
 40
0.996636207178583
 40
0.996636207178583
 40
0.996636207178583
 40
0.996636207178583
 40
0.996636207178583
 40
1.0
 40
1.0
 40
1.0
 40
1.0
 40
1.0
 40
1.0
 40
1.0
 40
1.0
 40
1.0
 10
6.316467970556858
 20
227.86687055926112
 30
717.0
 10
6.316327113935109
 20
227.86701154712654
 30
717.0
 10
6.316355050263648
 20
227.8668132122576
 30
717.0
 10
6.316443797909684
 20
227.86658529526213
 30
717.0
 10
6.316519928636326
 20
227.86648071076513
 30
717.0
 10
6.3165445676025875
 20
227.86649554740862
 30
717.0
 10
6.316513393363392
 20
227.86646906785145
 30
717.0
 10
6.3164566378695675
 20
227.86608370876968
 30
717.0
 10
6.316420756180594
 20
227.8635923734067
 30
717.0
 10
6.316393562897302
 20
227.8617042909268
 30
717.0
 10
6.316355006798576
 20
227.8590272661001
 30
717.0
 10
6.316302588065025
 20
227.85538773161034
 30
717.0
 10
6.316233806877256
 20
227.85061212014122
 30
717.0
 10
6.31614616341587
 20
227.84452686437643
 30
717.0
 10
6.316037157861473
 20
227.8369583969998
 30
717.0
 10
6.315758136181189
 20
227.8175853797595
 30
717.0
 10
6.315583109053698
 20
227.80543290632102
 30
717.0
 10
6.3153758817525825
 20
227.79104471228135
 30
717.0
 10
6.3151331270182265
 20
227.77418977954258
 30
717.0
 10
6.314851517591014
 20
227.75463709000664
 30
717.0
 10
6.314527726211335
 20
227.73215562557556
 30
717.0
 10
6.314158425619574
 20
227.70651436815143
 30
717.0
 10
6.313474201333916
 20
227.65900734694506
 30
717.0
 10
6.313188337358712
 20
227.63915925587784
 30
717.0
 10
6.312881839192455
 20
227.61787849284536
 30
717.0
 10
6.312553849397094
 20
227.59510552425832
 30
717.0
 10
6.312203510534576
 20
227.57078081652725
 30
717.0
 10
6.3118299651668455
 20
227.5448448360625
 30
717.0
 10
6.3114323558558505
 20
227.51723804927448
 30
717.0
 10
6.310406209888803
 20
227.44599074157256
 30
717.0
 10
6.309751734652203
 20
227.40054925462752
 30
717.0
 10
6.309043899634339
 20
227.35140289442202
 30
717.0
 10
6.3082802050158175
 20
227.2983780936397
 30
717.0
 10
6.307458150977239
 20
227.2413012849643
 30
717.0
 10
6.306575237699212
 20
227.1799989010795
 30
717.0
 10
6.305628965362341
 20
227.11429737466915
 30
717.0
 10
6.3035034898106135
 20
226.96672147853934
 30
717.0
 10
6.302310456231328
 20
226.8838868397533
 30
717.0
 10
6.301034406149761
 20
226.79528820396064
 30
717.0
 10
6.299672012306295
 20
226.7006945530633
 30
717.0
 10
6.298219947441315
 20
226.59987486896307
 30
717.0
 10
6.296674884295206
 20
226.49259813356204
 30
717.0
 10
6.295033495608357
 20
226.37863332876242
 30
717.0
 10
6.2902156692683295
 20
226.04412228771588
 30
717.0
 10
6.287136405656345
 20
225.83032303391226
 30
717.0
 10
6.28405551774832
 20
225.61641100204284
 30
717.0
 10
6.280973472057692
 20
225.4024185831229
 30
717.0
 10
6.277890582486418
 20
225.188367571929
 30
717.0
 10
6.274807051269285
 20
224.97427200997174
 30
717.0
 10
6.271722949868376
 20
224.76013685908754
 30
717.0
 10
6.2635248528585095
 20
224.19092705951755
 30
717.0
 10
6.258410151996329
 20
223.83580344373527
 30
717.0
 10
6.253294540336891
 20
223.48061658955493
 30
717.0
 10
6.248178245302734
 20
223.12538228731088
 30
717.0
 10
6.243061425131115
 20
222.77011152375366
 30
717.0
 10
6.2379441867835
 20
222.41481172545474
 30
717.0
 10
6.232826584951248
 20
222.05948668968475
 30
717.0
 10
6.216818631363395
 20
220.94802337785748
 30
717.0
 10
6.205927258780978
 20
220.19181422380154
 30
717.0
 10
6.1950349630423895
 20
219.43554097322797
 30
717.0
 10
6.184141997491151
 20
218.67922121625114
 30
717.0
 10
6.173248534049504
 20
217.92286688977651
 30
717.0
 10
6.162354685175704
 20
217.16648580200905
 30
717.0
 10
6.151460497695965
 20
216.410081204164
 30
717.0
 10
6.133230552622229
 20
215.14434070742365
 30
717.0
 10
6.125662061491302
 20
214.6188456669898
 30
717.0
 10
6.117856183874545
 20
214.07686842173956
 30
717.0
 10
6.10980860008404
 20
213.51810904735012
 30
717.0
 10
6.101514990431868
 20
212.94226761949884
 30
717.0
 10
6.092971035230115
 20
212.3490442138633
 30
717.0
 10
6.0841724147908725
 20
211.7381389061211
 30
717.0
 10
6.070355722674303
 20
210.77881913460246
 30
717.0
 10
6.065596643883069
 20
210.4483846935996
 30
717.0
 10
6.060837524898899
 20
210.11794855452405
 30
717.0
 10
6.05607834447549
 20
209.78751081578594
 30
717.0
 10
6.051319108273883
 20
209.45707156862335
 30
717.0
 10
6.046559848862448
 20
209.12663089710202
 30
717.0
 10
6.0418006257168875
 20
208.7961888781153
 30
717.0
 10
6.03121671047085
 20
208.06130550074369
 30
717.0
 10
6.025301071515032
 20
207.6505331866975
 30
717.0
 10
6.01929594835343
 20
207.2334881415964
 30
717.0
 10
6.013202680986676
 20
206.81022986779146
 30
717.0
 10
6.00702260941541
 20
206.3808178676333
 30
717.0
 10
6.000757073640267
 20
205.94531164347288
 30
717.0
 10
5.994407413661882
 20
205.50377069766083
 30
717.0
 10
5.957819813151722
 20
202.95830862907778
 30
717.0
 10
5.927732404893456
 20
200.8603302148734
 30
717.0
 10
5.897747531927301
 20
198.7623282647933
 30
717.0
 10
5.867882838608145
 20
196.6643078498441
 30
717.0
 10
5.838151298572863
 20
194.5662724779018
 30
717.0
 10
5.8085637568901065
 20
192.4682245801868
 30
717.0
 10
5.779128147995935
 20
190.37016538589307
 30
717.0
 10
5.675276667377589
 20
182.92766864974595
 30
717.0
 10
5.601735933172448
 20
177.5831778790871
 30
717.0
 10
5.529350290762183
 20
172.23864071909128
 30
717.0
 10
5.458196571793288
 20
166.8940647384274
 30
717.0
 10
5.388362270235955
 20
161.54945604785775
 30
717.0
 10
5.319933425209342
 20
156.20481741822886
 30
717.0
 10
5.253010377498718
 20
150.86015044050032
 30
717.0
 10
5.139631922193575
 20
141.58059903880513
 30
717.0
 10
5.092434005197013
 20
137.64572852856656
 30
717.0
 10
5.046161138097401
 20
133.7108438649603
 30
717.0
 10
5.0008639937361785
 20
129.77594542955936
 30
717.0
 10
4.956599291903913
 20
125.8410335130517
 30
717.0
 10
4.9134316911843054
 20
121.90610832280716
 30
717.0
 10
4.871435680798197
 20
117.9711699904445
 30
717.0
 10
4.772196373839693
 20
108.38552872741357
 30
717.0
 10
4.716294924884761
 20
102.73481221714933
 30
717.0
 10
4.662735256958579
 20
97.08407432271385
 30
717.0
 10
4.611313242599149
 20
91.43331967599178
 30
717.0
 10
4.561860206647518
 20
85.78255261731539
 30
717.0
 10
4.514232862934795
 20
80.13177735886259
 30
717.0
 10
4.46830692845028
 20
74.48099827034355
 30
717.0
 10
4.4038031836684395
 20
66.25996809025787
 30
717.0
 10
4.383965212367283
 20
63.68971597735395
 30
717.0
 10
4.3644453720364575
 20
61.11946475092524
 30
717.0
 10
4.3452335272136065
 20
58.54921500558461
 30
717.0
 10
4.326319910026244
 20
55.97896744170086
 30
717.0
 10
4.30769491789264
 20
53.40872289505681
 30
717.0
 10
4.289348786857083
 20
50.83848239192301
 30
717.0
 10
4.255859477455034
 20
46.07705498195637
 30
717.0
 10
4.240642918805107
 20
43.885866828946696
 30
717.0
 10
4.225615140638905
 20
41.69468338099378
 30
717.0
 10
4.210769156294572
 20
39.50350563505562
 30
717.0
 10
4.196097558839192
 20
37.31233492811188
 30
717.0
 10
4.1815919963680965
 20
35.12117304232518
 30
717.0
 10
4.167241880183569
 20
32.93002246182434
 30
717.0
 10
4.147169236263732
 20
29.834789122646928
 30
717.0
 10
4.141430175612344
 20
28.946130293353303
 30
717.0
 10
4.135814601381763
 20
28.07321053230622
 30
717.0
 10
4.130321971054982
 20
27.21633007858315
 30
717.0
 10
4.124951742114993
 20
26.37578917126162
 30
717.0
 10
4.119703372044793
 20
25.551888049419173
 30
717.0
 10
4.114576318327376
 20
24.744926952133383
 30
717.0
 10
4.104563963810774
 20
23.165517661681747
 30
717.0
 10
4.099678157747199
 20
22.393003172037965
 30
717.0
 10
4.094913009978865
 20
21.63803082965053
 30
717.0
 10
4.0902669763080315
 20
20.90093546782191
 30
717.0
 10
4.085740871801642
 20
20.18201819179175
 30
717.0
 10
4.081334084662116
 20
19.481546711896648
 30
717.0
 10
4.077042857449176
 20
18.799755496998444
 30
717.0
 10
4.065822616502288
 20
17.016945526235375
 30
717.0
 10
4.058774577294978
 20
15.897066315738996
 30
717.0
 10
4.051726666920604
 20
14.777207575823361
 30
717.0
 10
4.044678903295486
 20
13.65737215321613
 30
717.0
 10
4.0376313290036006
 20
12.537566814201114
 30
717.0
 10
4.030584009072793
 20
11.417801891223895
 30
717.0
 10
4.023537039268326
 20
10.298092600614073
 30
717.0
 10
4.012912388673215
 20
8.609917354957748
 30
717.0
 10
4.009334350837893
 20
8.041394668259976
 30
717.0
 10
4.0057564757180115
 20
7.472897835778134
 30
717.0
 10
4.002178785818052
 20
6.904430433331584
 30
717.0
 10
3.9986013351647003
 20
6.336001045333369
 30
717.0
 10
3.9950242063355033
 20
5.76762279270384
 30
717.0
 10
3.9914475209750133
 20
5.19931500384936
 30
717.0
 10
3.9862415381661602
 20
4.372124384398369
 30
717.0
 10
3.984611738182972
 20
4.1131617049028435
 30
717.0
 10
3.9829821015978712
 20
3.8542249880463295
 30
717.0
 10
3.981352653288644
 20
3.595318186848999
 30
717.0
 10
3.9797234389784557
 20
3.3364485662978787
 30
717.0
 10
3.9780945253645688
 20
3.077626724004034
 30
717.0
 10
3.9764660072278764
 20
2.8188677200567156
 30
717.0
 10
3.9737273583119825
 20
2.3837174753528245
 30
717.0
 10
3.9726170211251643
 20
2.207293438096656
 30
717.0
 10
3.9715069932617215
 20
2.030918549610874
 30
717.0
 10
3.970397321056865
 20
1.8546001732885884
 30
717.0
 10
3.969288104257739
 20
1.678354156484886
 30
717.0
 10
3.968179568092021
 20
1.502216287808892
 30
717.0
 10
3.9670720026287003
 20
1.3262326559719781
 30
717.0
 10
3.9654177212400863
 20
1.0633800694696731
 30
717.0
 10
3.9648700302230804
 20
0.9763561801893843
 30
717.0
 10
3.9643228265312693
 20
0.8894097230613625
 30
717.0
 10
3.963776176407862
 20
0.802551223858643
 30
717.0
 10
3.9632302228847207
 20
0.7158034088697036
 30
717.0
 10
3.962685451459128
 20
0.6292434202460981
 30
717.0
 10
3.962142405901702
 20
0.5429576587295344
 30
717.0
 10
3.9614231183176116
 20
0.42866839499330917
 30
717.0
 10
3.9612522645795165
 20
0.40152105036316393
 30
717.0
 10
3.961089694863981
 20
0.37568997319012
 30
717.0
 10
3.9609351730978237
 20
0.35113765326148977
 30
717.0
 10
3.9607884632078623
 20
0.3278265803646942
 30
717.0
 10
3.960649329120915
 20
0.30571924428726255
 30
717.0
 10
3.9605175347638006
 20
0.2847781348168326
 30
717.0
 10
3.9602473715794684
 20
0.24185128315274088
 30
717.0
 10
3.9601115679615932
 20
0.22027313299008713
 30
717.0
 10
3.959985058334247
 20
0.20017172642505646
 30
717.0
 10
3.9598674678219594
 20
0.1814874986294902
 30
717.0
 10
3.959758421549262
 20
0.16416088477520369
 30
717.0
 10
3.9596575446406863
 20
0.14813232003398621
 30
717.0
 10
3.9595644622207615
 20
0.13334223957760116
 30
717.0
 10
3.959393136607278
 20
0.10611991757807003
 30
717.0
 10
3.959314893413717
 20
0.09368767603501535
 30
717.0
 10
3.9592436949578698
 20
0.08237478912042613
 30
717.0
 10
3.9591791663642666
 20
0.07212169200611121
 30
717.0
 10
3.959120932757438
 20
0.06286881986388389
 30
717.0
 10
3.959068619261916
 20
0.0545566078655619
 30
717.0
 10
3.9590218510022304
 20
0.047125491182967494
 30
717.0
 10
3.9589148849754108
 20
0.030129412395595526
 30
717.0
 10
3.9588622844724903
 20
0.021771597129711853
 30
717.0
 10
3.958820996902462
 20
0.01521131987146873
 30
717.0
 10
3.9587895675736346
 20
0.01021744130208739
 30
717.0
 10
3.958766541794319
 20
0.006558822102817887
 30
717.0
 10
3.9587504648728253
 20
0.004004322954939101
 30
717.0
 10
3.958739882117465
 20
0.0023228045397587493
 30
717.0
 10
3.9587267955552785
 20
0.00024345048135643307
 30
717.0
 10
3.9587240836636304
 20
-0.0001543850079376138
 30
717.0
 10
3.958724992138849
 20
-0.0001415184937272329
 30
717.0
 10
3.958725705262879
 20
5.0910721847279615e-05
 30
717.0
 10
3.958724686865701
 20
0.00019176342500770718
 30
717.0
 10
3.958724430584686
 20
4.990036201084943e-05
 30
717.0
 10
3.958729076139964
 20
-0.0006058178435495165
 30
717.0
 10
3.9587517475892877
 20
-0.004208136732927414
 30
717.0
 10
3.9587771453078364
 20
-0.00824363887244317
 30
717.0
 10
3.9588189229211896
 20
-0.014881780060818528
 30
717.0
 10
3.9588785254102143
 20
-0.024352157397629526
 30
717.0
 10
3.95895085105969
 20
-0.03584414635798794
 30
717.0
 10
3.959032702818358
 20
-0.04884976133078567
 30
717.0
 10
3.9591196326529525
 20
-0.06266224326245151
 30
717.0
 10
3.959271931606634
 20
-0.08686137538836648
 30
717.0
 10
3.9593420103045838
 20
-0.09799634138749574
 30
717.0
 10
3.959418861103544
 20
-0.11020734214002709
 30
717.0
 10
3.9595028588789805
 20
-0.12355394247425042
 30
717.0
 10
3.9595943785063654
 20
-0.13809570721838732
 30
717.0
 10
3.9596937948611672
 20
-0.15389220120059122
 30
717.0
 10
3.9598014828188535
 20
-0.17100298924894727
 30
717.0
 10
3.9600507708960797
 20
-0.21061294698300517
 30
717.0
 10
3.9601950178967513
 20
-0.23353268571835473
 30
717.0
 10
3.9603511178377815
 20
-0.25833576549372594
 30
717.0
 10
3.9605196303000465
 20
-0.2851110994053658
 30
717.0
 10
3.9607011148644196
 20
-0.31394760054956405
 30
717.0
 10
3.9608961311117765
 20
-0.3449341820226531
 30
717.0
 10
3.9611052386229932
 20
-0.37815975692100784
 30
717.0
 10
3.9616086949238856
 20
-0.4581550901160512
 30
717.0
 10
3.9619112848137217
 20
-0.5062342958308262
 30
717.0
 10
3.962237859579855
 20
-0.5581245138767059
 30
717.0
 10
3.9625895121536803
 20
-0.6139994026449861
 30
717.0
 10
3.9629673354665957
 20
-0.6740326205269236
 30
717.0
 10
3.963372422449998
 20
-0.7383978259137364
 30
717.0
 10
3.963805866035284
 20
-0.8072686771966034
 30
717.0
 10
3.9647316522724174
 20
-0.9543689883366113
 30
717.0
 10
3.9652239949242643
 20
-1.0325984481940935
 30
717.0
 10
3.965746880040789
 20
-1.1156808707301127
 30
717.0
 10
3.9663014005533896
 20
-1.2037899143357667
 30
717.0
 10
3.9668886493934594
 20
-1.29709923740225
 30
717.0
 10
3.967509719492399
 20
-1.3957824983208533
 30
717.0
 10
3.968165703781605
 20
-1.500013355482963
 30
717.0
 10
3.970202880185405
 20
-1.823705014342135
 30
717.0
 10
3.971549147958349
 20
-2.037616606819263
 30
717.0
 10
3.9728961252574986
 20
-2.2516409375504693
 30
717.0
 10
3.9742436083010757
 20
-2.465745627182997
 30
717.0
 10
3.9755914599682116
 20
-2.679908888263089
 30
717.0
 10
3.9769395919172803
 20
-2.8941166839835333
 30
717.0
 10
3.9782879729355103
 20
-3.1083640548799245
 30
717.0
 10
3.98187221487143
 20
-3.677872525440705
 30
717.0
 10
3.9841083838578917
 20
-4.0331825748681425
 30
717.0
 10
3.9863449507004747
 20
-4.388555840553842
 30
717.0
 10
3.988581816053272
 20
-4.743976537241338
 30
717.0
 10
3.990818910796157
 20
-5.099433682246541
 30
717.0
 10
3.9930561882076754
 20
-5.454919851866279
 30
717.0
 10
3.995293624395111
 20
-5.810431249783118
 30
717.0
 10
4.002292368447595
 20
-6.922477839392794
 30
717.0
 10
4.007054122229415
 20
-7.679083883856194
 30
717.0
 10
4.011816279263851
 20
-8.435754001992443
 30
717.0
 10
4.016578728885204
 20
-9.192470610015818
 30
717.0
 10
4.021341395994593
 20
-9.949221775215161
 30
717.0
 10
4.026104231468229
 20
-10.70599969212099
 30
717.0
 10
4.030867214851381
 20
-11.462801110776432
 30
717.0
 10
4.038837421720945
 20
-12.729205668697036
 30
717.0
 10
4.042146397402328
 20
-13.254976448995178
 30
717.0
 10
4.04555915943889
 20
-13.797238082718447
 30
717.0
 10
4.049077596416091
 20
-14.356290651566733
 30
717.0
 10
4.0527035969193825
 20
-14.932434237240013
 30
717.0
 10
4.056439049534218
 20
-15.525968921438398
 30
717.0
 10
4.060285842846053
 20
-16.13719478586209
 30
717.0
 10
4.066326557913061
 20
-17.097017939658823
 30
717.0
 10
4.068407295648951
 20
-17.427625769415318
 30
717.0
 10
4.07048802834199
 20
-17.758235296965346
 30
717.0
 10
4.072568732724226
 20
-18.08884642440337
 30
717.0
 10
4.074649412565774
 20
-18.4194590604339
 30
717.0
 10
4.076730098674828
 20
-18.750073120371457
 30
717.0
 10
4.078810848897646
 20
-19.08068852614059
 30
717.0
 10
4.083438626907405
 20
-19.815957484202002
 30
717.0
 10
4.086025754837135
 20
-20.226945269512186
 30
717.0
 10
4.088653239594857
 20
-20.644208966139445
 30
717.0
 10
4.091321188867686
 20
-21.06768897801684
 30
717.0
 10
4.094029710342734
 20
-21.49732570907747
 30
717.0
 10
4.096778911707118
 20
-21.933059563254442
 30
717.0
 10
4.099568900647952
 20
-22.37483094448091
 30
717.0
 10
4.115670639367637
 20
-24.92157673716099
 30
717.0
 10
4.129009867508811
 20
-27.020604302693357
 30
717.0
 10
4.1424520469429265
 20
-29.119653265391023
 30
717.0
 10
4.156014707496351
 20
-31.2187181925203
 30
717.0
 10
4.1697107449594135
 20
-33.31779531066857
 30
717.0
 10
4.183550951043758
 20
-35.416881966264405
 30
717.0
 10
4.197543234460341
 20
-37.51597676639152
 30
717.0
 10
4.247740193926202
 20
-44.96153158963048
 30
717.0
 10
4.28482038874973
 20
-50.30802668676904
 30
717.0
 10
4.32305579862531
 20
-55.65454423618286
 30
717.0
 10
4.36252314600736
 20
-61.0010750905754
 30
717.0
 10
4.403309853156119
 20
-66.34761132949217
 30
717.0
 10
4.445501993661239
 20
-71.69414840884784
 30
717.0
 10
4.4891999943439185
 20
-77.0406826572517
 30
717.0
 10
4.567877558657952
 20
-86.32264531630277
 30
717.0
 10
4.602114139249777
 20
-90.25807518965463
 30
717.0
 10
4.6372755722695755
 20
-94.19350006573802
 30
717.0
 10
4.673412574915761
 20
-98.12891851445822
 30
717.0
 10
4.710581928331149
 20
-102.06432907093544
 30
717.0
 10
4.748848376976441
 20
-105.99973018870793
 30
717.0
 10
4.788286528003712
 20
-109.93512019293524
 30
717.0
 10
4.869682993946947
 20
-117.80626308024274
 30
717.0
 10
4.9116442544958225
 20
-121.742015846879
 30
717.0
 10
4.954779994296139
 20
-125.67775547029194
 30
717.0
 10
4.999015422036056
 20
-129.61348181967927
 30
717.0
 10
5.044285608951786
 20
-133.54919468918573
 30
717.0
 10
5.090533604707082
 20
-137.48489379043446
 30
717.0
 10
5.137708553272732
 20
-141.42057874505798
 30
717.0
 10
5.224065852336038
 20
-148.49314252851886
 30
717.0
 10
5.2629272045742415
 20
-151.63002662064036
 30
717.0
 10
5.302324458747757
 20
-154.7669011202024
 30
717.0
 10
5.342236104797909
 20
-157.90376567815352
 30
717.0
 10
5.3826422227794835
 20
-161.04061982887575
 30
717.0
 10
5.423524093757018
 20
-164.17746296504325
 30
717.0
 10
5.464863728198184
 20
-167.31429428824597
 30
717.0
 10
5.543824401837925
 20
-173.24267547200571
 30
717.0
 10
5.5813539246708155
 20
-176.0342277462089
 30
717.0
 10
5.619219256662708
 20
-178.8257690224403
 30
717.0
 10
5.657408007469364
 20
-181.6172984018969
 30
717.0
 10
5.695907137626506
 20
-184.40881447866087
 30
717.0
 10
5.73470284546675
 20
-187.20031531369213
 30
717.0
 10
5.773779317674374
 20
-189.99179821862438
 30
717.0
 10
5.838931830138242
 20
-194.61541919191862
 30
717.0
 10
5.864860665153739
 20
-196.44756896308047
 30
717.0
 10
5.890894457640639
 20
-198.27970784981926
 30
717.0
 10
5.9170262408979
 20
-200.11183461289644
 30
717.0
 10
5.943245943811103
 20
-201.94394672170608
 30
717.0
 10
5.969541268959971
 20
-203.77604050878656
 30
717.0
 10
5.995895107302378
 20
-205.6081106571106
 30
717.0
 10
6.032595398275021
 20
-208.15712023049622
 30
717.0
 10
6.042653479166762
 20
-208.85545187472763
 30
717.0
 10
6.0524450287291325
 20
-209.5351049396907
 30
717.0
 10
6.061961893961754
 20
-210.196152182185
 30
717.0
 10
6.0712202656990115
 20
-210.8387780497332
 30
717.0
 10
6.08021345253812
 20
-211.46327654291665
 30
717.0
 10
6.088952838369345
 20
-212.07005300078086
 30
717.0
 10
6.105650581531759
 20
-213.2294097426331
 30
717.0
 10
6.113856887355313
 20
-213.79918949608253
 30
717.0
 10
6.12206308522276
 20
-214.36896175392943
 30
717.0
 10
6.130269162006473
 20
-214.93872560469768
 30
717.0
 10
6.138475100703086
 20
-215.5084798678104
 30
717.0
 10
6.146680879790708
 20
-216.0782230489606
 30
717.0
 10
6.154886472076001
 20
-216.64795326006228
 30
717.0
 10
6.172585254519127
 20
-217.87681410361674
 30
717.0
 10
6.182078317872755
 20
-218.5359359318067
 30
717.0
 10
6.191571027331965
 20
-219.19503318842024
 30
717.0
 10
6.2010633338878876
 20
-219.85410247067549
 30
717.0
 10
6.210555120157287
 20
-220.51313562842682
 30
717.0
 10
6.220046206759707
 20
-221.17212020694126
 30
717.0
 10
6.22953632945774
 20
-221.8310378597012
 30
717.0
 10
6.243881905024231
 20
-222.82707903646343
 30
717.0
 10
6.24873833109153
 20
-223.1642701315513
 30
717.0
 10
6.25359430014397
 20
-223.5014294952099
 30
717.0
 10
6.258449750502752
 20
-223.8385528449601
 30
717.0
 10
6.263304527401604
 20
-224.17562943507914
 30
717.0
 10
6.268158393179776
 20
-224.51264276432
 30
717.0
 10
6.27301099677641
 20
-224.8495684578447
 30
717.0
 10
6.280530723679799
 20
-225.37167770324
 30
717.0
 10
6.283059145305715
 20
-225.5472309279925
 30
717.0
 10
6.285451300412882
 20
-225.7133229036609
 30
717.0
 10
6.287711508689212
 20
-225.87025355456782
 30
717.0
 10
6.28984408982262
 20
-226.01832280503572
 30
717.0
 10
6.291853363501021
 20
-226.1578305793872
 30
717.0
 10
6.293743649412329
 20
-226.28907680194484
 30
717.0
 10
6.297294885076592
 20
-226.5356459921173
 30
717.0
 10
6.298955834829541
 20
-226.65096895973235
 30
717.0
 10
6.300506436191229
 20
-226.75863022419855
 30
717.0
 10
6.301951008849566
 20
-226.85892970983852
 30
717.0
 10
6.303293872492466
 20
-226.9521673409747
 30
717.0
 10
6.304539346807846
 20
-227.03864304192984
 30
717.0
 10
6.305691751483618
 20
-227.11865673702644
 30
717.0
 10
6.307287233569735
 20
-227.22943415736725
 30
717.0
 10
6.30779687344385
 20
-227.26481944376354
 30
717.0
 10
6.308284865791035
 20
-227.29870170031614
 30
717.0
 10
6.308751750572272
 20
-227.33111841756536
 30
717.0
 10
6.309198067748554
 20
-227.36210708605154
 30
717.0
 10
6.309624357280869
 20
-227.39170519631497
 30
717.0
 10
6.310031159130208
 20
-227.41995023889598
 30
717.0
 10
6.311065436803146
 20
-227.49176214673318
 30
717.0
 10
6.311659227787656
 20
-227.5329902081811
 30
717.0
 10
6.312202886030484
 20
-227.57073745599502
 30
717.0
 10
6.312698911351023
 20
-227.60517745749135
 30
717.0
 10
6.313149803568671
 20
-227.63648377998624
 30
717.0
 10
6.313558062502822
 20
-227.66482999079605
 30
717.0
 10
6.313926187972871
 20
-227.69038965723706
 30
717.0
 10
6.314587171623554
 20
-227.7362830360141
 30
717.0
 10
6.314880029804188
 20
-227.75661674834993
 30
717.0
 10
6.31513775415951
 20
-227.77451105094968
 30
717.0
 10
6.315362844508913
 20
-227.79013951112952
 30
717.0
 10
6.315557800671793
 20
-227.80367569620566
 30
717.0
 10
6.315725122467544
 20
-227.81529317349444
 30
717.0
 10
6.3158673097155615
 20
-227.8251655103122
 30
717.0
 10
6.316070548999017
 20
-227.8392768085392
 30
717.0
 10
6.316143144745904
 20
-227.84431727225743
 30
717.0
 10
6.3162055069139615
 20
-227.84864719871928
 30
717.0
 10
6.3162584929412375
 20
-227.85232612151427
 30
717.0
 10
6.316302960265784
 20
-227.8554135742319
 30
717.0
 10
6.316339766325655
 20
-227.85796909046167
 30
717.0
 10
6.316369768558902
 20
-227.86005220379306
 30
717.0
 10
6.3164373910937455
 20
-227.8647473677389
 30
717.0
 10
6.316576357598674
 20
-227.8657610168735
 30
717.0
 10
6.3166529920206
 20
-227.86589499641528
 30
717.0
 10
6.316593668234536
 20
-227.86590797423386
 30
717.0
 10
6.316408865888233
 20
-227.86618568487302
 30
717.0
 10
6.316193170402212
 20
-227.86674092955047
 30
717.0
 10
6.316125272969743
 20
-227.86721357615795
 30
717.0
 10
6.316467970556858
 20
-227.86687055926112
 30
717.0
  0
ENDSEC
  0
SECTION
  2
OBJECTS
  0
DICTIONARY
  5
A
330
0
100
AcDbDictionary
281
1
  3
ACAD_COLOR
350
B
  3
ACAD_GROUP
350
C
  3
ACAD_LAYOUT
350
D
  3
ACAD_MATERIAL
350
E
  3
ACAD_MLEADERSTYLE
350
F
  3
ACAD_MLINESTYLE
350
10
  3
ACAD_PLOTSETTINGS
350
11
  3
ACAD_PLOTSTYLENAME
350
12
  3
ACAD_SCALELIST
350
14
  3
ACAD_TABLESTYLE
350
15
  3
ACAD_VISUALSTYLE
350
16
  3
EZDXF_META
350
2D
  0
DICTIONARY
  5
B
330
A
100
AcDbDictionary
281
1
  0
DICTIONARY
  5
C
330
A
100
AcDbDictionary
281
1
  0
DICTIONARY
  5
D
330
A
100
AcDbDictionary
281
1
  3
Model
350
1A
  3
Layout1
350
1E
  0
DICTIONARY
  5
E
330
A
100
AcDbDictionary
281
1
  3
ByBlock
350
1F
  3
ByLayer
350
20
  3
Global
350
21
  0
DICTIONARY
  5
F
330
A
100
AcDbDictionary
281
1
  3
Standard
350
2C
  0
DICTIONARY
  5
10
330
A
100
AcDbDictionary
281
1
  3
Standard
350
22
  0
DICTIONARY
  5
11
330
A
100
AcDbDictionary
281
1
  0
ACDBDICTIONARYWDFLT
  5
12
330
A
100
AcDbDictionary
281
1
  3
Normal
350
13
100
AcDbDictionaryWithDefault
340
13
  0
ACDBPLACEHOLDER
  5
13
330
12
  0
DICTIONARY
  5
14
330
A
100
AcDbDictionary
281
1
  0
DICTIONARY
  5
15
330
A
100
AcDbDictionary
281
1
  0
DICTIONARY
  5
16
330
A
100
AcDbDictionary
281
1
  0
LAYOUT
  5
1A
330
D
100
AcDbPlotSettings
  1

  2
Adobe PDF
  4
A3
  6

 40
7.5
 41
20.0
 42
7.5
 43
20.0
 44
420.0
 45
297.0
 46
0.0
 47
0.0
 48
0.0
 49
0.0
140
0.0
141
0.0
142
1.0
143
1.0
 70
1024
 72
1
 73
1
 74
5
  7

 75
16
 76
0
 77
2
 78
300
147
1.0
148
0.0
149
0.0
100
AcDbLayout
  1
Model
 70
1
 71
0
 10
0.0
 20
0.0
 11
420.0
 21
297.0
 12
0.0
 22
0.0
 32
0.0
 14
1e+20
 24
1e+20
 34
1e+20
 15
-1e+20
 25
-1e+20
 35
-1e+20
146
0.0
 13
0.0
 23
0.0
 33
0.0
 16
1.0
 26
0.0
 36
0.0
 17
0.0
 27
1.0
 37
0.0
 76
1
330
17
  0
LAYOUT
  5
1E
330
D
100
AcDbPlotSettings
  1

  2
Adobe PDF
  4
A3
  6

 40
7.5
 41
20.0
 42
7.5
 43
20.0
 44
420.0
 45
297.0
 46
0.0
 47
0.0
 48
0.0
 49
0.0
140
0.0
141
0.0
142
1.0
143
1.0
 70
0
 72
1
 73
1
 74
5
  7

 75
16
 76
0
 77
2
 78
300
147
1.0
148
0.0
149
0.0
100
AcDbLayout
  1
Layout1
 70
1
 71
1
 10
0.0
 20
0.0
 11
420.0
 21
297.0
 12
0.0
 22
0.0
 32
0.0
 14
1e+20
 24
1e+20
 34
1e+20
 15
-1e+20
 25
-1e+20
 35
-1e+20
146
0.0
 13
0.0
 23
0.0
 33
0.0
 16
1.0
 26
0.0
 36
0.0
 17
0.0
 27
1.0
 37
0.0
 76
1
330
1B
  0
MATERIAL
  5
1F
102
{ACAD_REACTORS
330
E
102
}
330
E
100
AcDbMaterial
  1
ByBlock
  2

 70
0
 40
1.0
 71
1
 41
1.0
 91
-1023410177
 42
1.0
 72
1
  3

 73
1
 74
1
 75
1
 44
0.5
 73
0
 45
1.0
 46
1.0
 77
1
  4

 78
1
 79
1
170
1
 48
1.0
171
1
  6

172
1
173
1
174
1
140
1.0
141
1.0
175
1
  7

176
1
177
1
178
1
143
1.0
179
1
  8

270
1
271
1
272
1
145
1.0
146
1.0
273
1
  9

274
1
275
1
276
1
 42
1.0
 72
1
  3

 73
1
 74
1
 75
1
 94
63
  0
MATERIAL
  5
20
102
{ACAD_REACTORS
330
E
102
}
330
E
100
AcDbMaterial
  1
ByLayer
  2

 70
0
 40
1.0
 71
1
 41
1.0
 91
-1023410177
 42
1.0
 72
1
  3

 73
1
 74
1
 75
1
 44
0.5
 73
0
 45
1.0
 46
1.0
 77
1
  4

 78
1
 79
1
170
1
 48
1.0
171
1
  6

172
1
173
1
174
1
140
1.0
141
1.0
175
1
  7

176
1
177
1
178
1
143
1.0
179
1
  8

270
1
271
1
272
1
145
1.0
146
1.0
273
1
  9

274
1
275
1
276
1
 42
1.0
 72
1
  3

 73
1
 74
1
 75
1
 94
63
  0
MATERIAL
  5
21
102
{ACAD_REACTORS
330
E
102
}
330
E
100
AcDbMaterial
  1
Global
  2

 70
0
 40
1.0
 71
1
 41
1.0
 91
-1023410177
 42
1.0
 72
1
  3

 73
1
 74
1
 75
1
 44
0.5
 73
0
 45
1.0
 46
1.0
 77
1
  4

 78
1
 79
1
170
1
 48
1.0
171
1
  6

172
1
173
1
174
1
140
1.0
141
1.0
175
1
  7

176
1
177
1
178
1
143
1.0
179
1
  8

270
1
271
1
272
1
145
1.0
146
1.0
273
1
  9

274
1
275
1
276
1
 42
1.0
 72
1
  3

 73
1
 74
1
 75
1
 94
63
  0
MLINESTYLE
  5
22
102
{ACAD_REACTORS
330
10
102
}
330
10
100
AcDbMlineStyle
  2
Standard
 70
0
  3

 62
256
 51
90.0
 52
90.0
 71
2
 49
0.5
 62
256
  6
BYLAYER
 49
-0.5
 62
256
  6
BYLAYER
  0
MLEADERSTYLE
  5
2C
102
{ACAD_REACTORS
330
F
102
}
330
F
100
AcDbMLeaderStyle
179
2
170
2
171
1
172
0
 90
2
 40
0.0
 41
0.0
173
1
 91
-1056964608
 92
-2
290
1
 42
2.0
291
1
 43
8.0
  3
Standard
 44
4.0
300

342
29
174
1
175
1
176
0
178
1
 93
-1056964608
 45
4.0
292
0
297
0
 46
4.0
 94
-1056964608
 47
1.0
 49
1.0
140
1.0
294
1
141
0.0
177
0
142
1.0
295
0
296
0
143
3.75
271
0
272
9
273
9
  0
DICTIONARY
  5
2D
330
A
100
AcDbDictionary
280
1
281
1
  3
CREATED_BY_EZDXF
350
2E
  3
WRITTEN_BY_EZDXF
350
80
  0
DICTIONARYVAR
  5
2E
330
2D
100
DictionaryVariables
280
0
  1
0.17 @ 2022-02-15T16:29:22.702997+00:00
  0
DICTIONARYVAR
  5
80
330
2D
100
DictionaryVariables
280
0
  1
0.17 @ 2022-02-15T16:29:22.808963+00:00
  0
ENDSEC
  0
EOF
