  0
SECTION
  2
HEADER
  9
$ACADVER
  1
AC1027
  9
$ACADMAINTVER
 70
105
  9
$DWGCODEPAGE
  3
ANSI_1252
  9
$LASTSAVEDBY
  1
ezdxf
  9
$REQUIREDVERSIONS
160
0
  9
$INSBASE
 10
0.0
 20
0.0
 30
0.0
  9
$EXTMIN
 10
1e+20
 20
1e+20
 30
1e+20
  9
$EXTMAX
 10
-1e+20
 20
-1e+20
 30
-1e+20
  9
$LIMMIN
 10
0.0
 20
0.0
  9
$LIMMAX
 10
420.0
 20
297.0
  9
$ORTHOMODE
 70
0
  9
$REGENMODE
 70
1
  9
$FILLMODE
 70
1
  9
$QTEXTMODE
 70
0
  9
$MIRRTEXT
 70
1
  9
$LTSCALE
 40
1.0
  9
$ATTMODE
 70
1
  9
$TEXTSIZE
 40
2.5
  9
$TRACEWID
 40
1.0
  9
$TEXTSTYLE
  7
Standard
  9
$CLAYER
  8
0
  9
$CELTYPE
  6
ByLayer
  9
$CECOLOR
 62
256
  9
$CELTSCALE
 40
1.0
  9
$DISPSILH
 70
0
  9
$DIMSCALE
 40
1.0
  9
$DIMASZ
 40
2.5
  9
$DIMEXO
 40
0.625
  9
$DIMDLI
 40
3.75
  9
$DIMRND
 40
0.0
  9
$DIMDLE
 40
0.0
  9
$DIMEXE
 40
1.25
  9
$DIMTP
 40
0.0
  9
$DIMTM
 40
0.0
  9
$DIMTXT
 40
2.5
  9
$DIMCEN
 40
2.5
  9
$DIMTSZ
 40
0.0
  9
$DIMTOL
 70
0
  9
$DIMLIM
 70
0
  9
$DIMTIH
 70
0
  9
$DIMTOH
 70
0
  9
$DIMSE1
 70
0
  9
$DIMSE2
 70
0
  9
$DIMTAD
 70
1
  9
$DIMZIN
 70
8
  9
$DIMBLK
  1

  9
$DIMASO
 70
1
  9
$DIMSHO
 70
1
  9
$DIMPOST
  1

  9
$DIMAPOST
  1

  9
$DIMALT
 70
0
  9
$DIMALTD
 70
3
  9
$DIMALTF
 40
0.03937007874
  9
$DIMLFAC
 40
1.0
  9
$DIMTOFL
 70
1
  9
$DIMTVP
 40
0.0
  9
$DIMTIX
 70
0
  9
$DIMSOXD
 70
0
  9
$DIMSAH
 70
0
  9
$DIMBLK1
  1

  9
$DIMBLK2
  1

  9
$DIMSTYLE
  2
ISO-25
  9
$DIMCLRD
 70
0
  9
$DIMCLRE
 70
0
  9
$DIMCLRT
 70
0
  9
$DIMTFAC
 40
1.0
  9
$DIMGAP
 40
0.625
  9
$DIMJUST
 70
0
  9
$DIMSD1
 70
0
  9
$DIMSD2
 70
0
  9
$DIMTOLJ
 70
0
  9
$DIMTZIN
 70
8
  9
$DIMALTZ
 70
0
  9
$DIMALTTZ
 70
0
  9
$DIMUPT
 70
0
  9
$DIMDEC
 70
2
  9
$DIMTDEC
 70
2
  9
$DIMALTU
 70
2
  9
$DIMALTTD
 70
3
  9
$DIMTXSTY
  7
Standard
  9
$DIMAUNIT
 70
0
  9
$DIMADEC
 70
0
  9
$DIMALTRND
 40
0.0
  9
$DIMAZIN
 70
0
  9
$DIMDSEP
 70
44
  9
$DIMATFIT
 70
3
  9
$DIMFRAC
 70
0
  9
$DIMLDRBLK
  1

  9
$DIMLUNIT
 70
2
  9
$DIMLWD
 70
-2
  9
$DIMLWE
 70
-2
  9
$DIMTMOVE
 70
0
  9
$DIMFXL
 40
1.0
  9
$DIMFXLON
 70
0
  9
$DIMJOGANG
 40
0.785398163397
  9
$DIMTFILL
 70
0
  9
$DIMTFILLCLR
 70
0
  9
$DIMARCSYM
 70
0
  9
$DIMLTYPE
  6

  9
$DIMLTEX1
  6

  9
$DIMLTEX2
  6

  9
$DIMTXTDIRECTION
 70
0
  9
$LUNITS
 70
2
  9
$LUPREC
 70
4
  9
$SKETCHINC
 40
1.0
  9
$FILLETRAD
 40
10.0
  9
$AUNITS
 70
0
  9
$AUPREC
 70
2
  9
$MENU
  1
.
  9
$ELEVATION
 40
0.0
  9
$PELEVATION
 40
0.0
  9
$THICKNESS
 40
0.0
  9
$LIMCHECK
 70
0
  9
$CHAMFERA
 40
0.0
  9
$CHAMFERB
 40
0.0
  9
$CHAMFERC
 40
0.0
  9
$CHAMFERD
 40
0.0
  9
$SKPOLY
 70
0
  9
$TDCREATE
 40
2459626.72875
  9
$TDUCREATE
 40
2458532.153996898
  9
$TDUPDATE
 40
2459626.72875
  9
$TDUUPDATE
 40
2458532.1544311
  9
$TDINDWG
 40
0.0
  9
$TDUSRTIMER
 40
0.0
  9
$USRTIMER
 70
1
  9
$ANGBASE
 50
0.0
  9
$ANGDIR
 70
0
  9
$PDMODE
 70
0
  9
$PDSIZE
 40
0.0
  9
$PLINEWID
 40
0.0
  9
$SPLFRAME
 70
0
  9
$SPLINETYPE
 70
6
  9
$SPLINESEGS
 70
8
  9
$HANDSEED
  5
81
  9
$SURFTAB1
 70
6
  9
$SURFTAB2
 70
6
  9
$SURFTYPE
 70
6
  9
$SURFU
 70
6
  9
$SURFV
 70
6
  9
$UCSBASE
  2

  9
$UCSNAME
  2

  9
$UCSORG
 10
0.0
 20
0.0
 30
0.0
  9
$UCSXDIR
 10
1.0
 20
0.0
 30
0.0
  9
$UCSYDIR
 10
0.0
 20
1.0
 30
0.0
  9
$UCSORTHOREF
  2

  9
$UCSORTHOVIEW
 70
0
  9
$UCSORGTOP
 10
0.0
 20
0.0
 30
0.0
  9
$UCSORGBOTTOM
 10
0.0
 20
0.0
 30
0.0
  9
$UCSORGLEFT
 10
0.0
 20
0.0
 30
0.0
  9
$UCSORGRIGHT
 10
0.0
 20
0.0
 30
0.0
  9
$UCSORGFRONT
 10
0.0
 20
0.0
 30
0.0
  9
$UCSORGBACK
 10
0.0
 20
0.0
 30
0.0
  9
$PUCSBASE
  2

  9
$PUCSNAME
  2

  9
$PUCSORG
 10
0.0
 20
0.0
 30
0.0
  9
$PUCSXDIR
 10
1.0
 20
0.0
 30
0.0
  9
$PUCSYDIR
 10
0.0
 20
1.0
 30
0.0
  9
$PUCSORTHOREF
  2

  9
$PUCSORTHOVIEW
 70
0
  9
$PUCSORGTOP
 10
0.0
 20
0.0
 30
0.0
  9
$PUCSORGBOTTOM
 10
0.0
 20
0.0
 30
0.0
  9
$PUCSORGLEFT
 10
0.0
 20
0.0
 30
0.0
  9
$PUCSORGRIGHT
 10
0.0
 20
0.0
 30
0.0
  9
$PUCSORGFRONT
 10
0.0
 20
0.0
 30
0.0
  9
$PUCSORGBACK
 10
0.0
 20
0.0
 30
0.0
  9
$USERI1
 70
0
  9
$USERI2
 70
0
  9
$USERI3
 70
0
  9
$USERI4
 70
0
  9
$USERI5
 70
0
  9
$USERR1
 40
0.0
  9
$USERR2
 40
0.0
  9
$USERR3
 40
0.0
  9
$USERR4
 40
0.0
  9
$USERR5
 40
0.0
  9
$WORLDVIEW
 70
1
  9
$SHADEDGE
 70
3
  9
$SHADEDIF
 70
70
  9
$TILEMODE
 70
1
  9
$MAXACTVP
 70
64
  9
$PINSBASE
 10
0.0
 20
0.0
 30
0.0
  9
$PLIMCHECK
 70
0
  9
$PEXTMIN
 10
1e+20
 20
1e+20
 30
1e+20
  9
$PEXTMAX
 10
-1e+20
 20
-1e+20
 30
-1e+20
  9
$PLIMMIN
 10
0.0
 20
0.0
  9
$PLIMMAX
 10
420.0
 20
297.0
  9
$UNITMODE
 70
0
  9
$VISRETAIN
 70
1
  9
$PLINEGEN
 70
0
  9
$PSLTSCALE
 70
1
  9
$TREEDEPTH
 70
3020
  9
$CMLSTYLE
  2
Standard
  9
$CMLJUST
 70
0
  9
$CMLSCALE
 40
20.0
  9
$PROXYGRAPHICS
 70
1
  9
$MEASUREMENT
 70
1
  9
$CELWEIGHT
370
-1
  9
$ENDCAPS
280
0
  9
$JOINSTYLE
280
0
  9
$LWDISPLAY
290
0
  9
$INSUNITS
 70
6
  9
$HYPERLINKBASE
  1

  9
$STYLESHEET
  1

  9
$XEDIT
290
1
  9
$CEPSNTYPE
380
0
  9
$PSTYLEMODE
290
1
  9
$FINGERPRINTGUID
  2
{F62FB72B-3299-48BA-A6F2-1287CA51D893}
  9
$VERSIONGUID
  2
{E24E81FF-FC0C-4C7E-8378-79F0E2385C34}
  9
$EXTNAMES
290
1
  9
$PSVPSCALE
 40
0.0
  9
$OLESTARTUP
290
0
  9
$SORTENTS
280
127
  9
$INDEXCTL
280
0
  9
$HIDETEXT
280
1
  9
$XCLIPFRAME
280
0
  9
$HALOGAP
280
0
  9
$OBSCOLOR
 70
257
  9
$OBSLTYPE
280
0
  9
$INTERSECTIONDISPLAY
280
0
  9
$INTERSECTIONCOLOR
 70
257
  9
$DIMASSOC
280
2
  9
$PROJECTNAME
  1

  9
$CAMERADISPLAY
290
0
  9
$LENSLENGTH
 40
50.0
  9
$CAMERAHEIGHT
 40
0.0
  9
$STEPSPERSEC
 40
24.0
  9
$STEPSIZE
 40
100.0
  9
$3DDWFPREC
 40
2.0
  9
$PSOLWIDTH
 40
0.005
  9
$PSOLHEIGHT
 40
0.08
  9
$LOFTANG1
 40
1.570796326795
  9
$LOFTANG2
 40
1.570796326795
  9
$LOFTMAG1
 40
0.0
  9
$LOFTMAG2
 40
0.0
  9
$LOFTPARAM
 70
7
  9
$LOFTNORMALS
280
1
  9
$LATITUDE
 40
37.795
  9
$LONGITUDE
 40
-122.394
  9
$NORTHDIRECTION
 40
0.0
  9
$TIMEZONE
 70
-8000
  9
$LIGHTGLYPHDISPLAY
280
1
  9
$TILEMODELIGHTSYNCH
280
1
  9
$CMATERIAL
347
20
  9
$SOLIDHIST
280
0
  9
$SHOWHIST
280
1
  9
$DWFFRAME
280
2
  9
$DGNFRAME
280
2
  9
$REALWORLDSCALE
290
1
  9
$INTERFERECOLOR
 62
256
  9
$CSHADOW
280
0
  9
$SHADOWPLANELOCATION
 40
0.0
  0
ENDSEC
  0
SECTION
  2
CLASSES
  0
CLASS
  1
ACDBDICTIONARYWDFLT
  2
AcDbDictionaryWithDefault
  3
ObjectDBX Classes
 90
0
 91
0
280
0
281
0
  0
CLASS
  1
SUN
  2
AcDbSun
  3
SCENEOE
 90
1153
 91
0
280
0
281
0
  0
CLASS
  1
VISUALSTYLE
  2
AcDbVisualStyle
  3
ObjectDBX Classes
 90
4095
 91
0
280
0
281
0
  0
CLASS
  1
MATERIAL
  2
AcDbMaterial
  3
ObjectDBX Classes
 90
1153
 91
0
280
0
281
0
  0
CLASS
  1
SCALE
  2
AcDbScale
  3
ObjectDBX Classes
 90
1153
 91
0
280
0
281
0
  0
CLASS
  1
TABLESTYLE
  2
AcDbTableStyle
  3
ObjectDBX Classes
 90
4095
 91
0
280
0
281
0
  0
CLASS
  1
MLEADERSTYLE
  2
AcDbMLeaderStyle
  3
ACDB_MLEADERSTYLE_CLASS
 90
4095
 91
0
280
0
281
0
  0
CLASS
  1
DICTIONARYVAR
  2
AcDbDictionaryVar
  3
ObjectDBX Classes
 90
0
 91
0
280
0
281
0
  0
CLASS
  1
CELLSTYLEMAP
  2
AcDbCellStyleMap
  3
ObjectDBX Classes
 90
1152
 91
0
280
0
281
0
  0
CLASS
  1
MENTALRAYRENDERSETTINGS
  2
AcDbMentalRayRenderSettings
  3
SCENEOE
 90
1024
 91
0
280
0
281
0
  0
CLASS
  1
ACDBDETAILVIEWSTYLE
  2
AcDbDetailViewStyle
  3
ObjectDBX Classes
 90
1025
 91
0
280
0
281
0
  0
CLASS
  1
ACDBSECTIONVIEWSTYLE
  2
AcDbSectionViewStyle
  3
ObjectDBX Classes
 90
1025
 91
0
280
0
281
0
  0
CLASS
  1
RASTERVARIABLES
  2
AcDbRasterVariables
  3
ISM
 90
0
 91
0
280
0
281
0
  0
CLASS
  1
ACDBPLACEHOLDER
  2
AcDbPlaceHolder
  3
ObjectDBX Classes
 90
0
 91
0
280
0
281
0
  0
CLASS
  1
LAYOUT
  2
AcDbLayout
  3
ObjectDBX Classes
 90
0
 91
0
280
0
281
0
  0
ENDSEC
  0
SECTION
  2
TABLES
  0
TABLE
  2
VPORT
  5
8
330
0
100
AcDbSymbolTable
 70
1
  0
VPORT
  5
23
330
8
100
AcDbSymbolTableRecord
100
AcDbViewportTableRecord
  2
*Active
 70
0
 10
0.0
 20
0.0
 11
1.0
 21
1.0
 12
344.2
 22
148.5
 13
0.0
 23
0.0
 14
0.5
 24
0.5
 15
0.5
 25
0.5
 16
0.0
 26
0.0
 36
1.0
 17
0.0
 27
0.0
 37
0.0
 40
297.0
 41
1.34
 42
50.0
 43
0.0
 44
0.0
 50
0.0
 51
0.0
 71
0
 72
1000
 73
1
 74
3
 75
0
 76
0
 77
0
 78
0
281
0
 65
0
146
0.0
  0
ENDTAB
  0
TABLE
  2
LTYPE
  5
2
330
0
100
AcDbSymbolTable
 70
3
  0
LTYPE
  5
24
330
2
100
AcDbSymbolTableRecord
100
AcDbLinetypeTableRecord
  2
ByBlock
 70
0
  3

 72
65
 73
0
 40
0.0
  0
LTYPE
  5
25
330
2
100
AcDbSymbolTableRecord
100
AcDbLinetypeTableRecord
  2
ByLayer
 70
0
  3

 72
65
 73
0
 40
0.0
  0
LTYPE
  5
26
330
2
100
AcDbSymbolTableRecord
100
AcDbLinetypeTableRecord
  2
Continuous
 70
0
  3

 72
65
 73
0
 40
0.0
  0
ENDTAB
  0
TABLE
  2
LAYER
  5
1
330
0
100
AcDbSymbolTable
 70
2
  0
LAYER
  5
27
330
1
100
AcDbSymbolTableRecord
100
AcDbLayerTableRecord
  2
0
 70
0
 62
7
  6
Continuous
370
-3
390
13
347
21
  0
LAYER
  5
28
330
1
100
AcDbSymbolTableRecord
100
AcDbLayerTableRecord
  2
Defpoints
 70
0
 62
7
  6
Continuous
290
0
370
-3
390
13
347
21
  0
ENDTAB
  0
TABLE
  2
STYLE
  5
5
330
0
100
AcDbSymbolTable
 70
1
  0
STYLE
  5
29
330
5
100
AcDbSymbolTableRecord
100
AcDbTextStyleTableRecord
  2
Standard
 70
0
 40
0.0
 41
1.0
 50
0.0
 71
0
 42
2.5
  3
txt
  4

  0
ENDTAB
  0
TABLE
  2
VIEW
  5
7
330
0
100
AcDbSymbolTable
 70
0
  0
ENDTAB
  0
TABLE
  2
UCS
  5
6
330
0
100
AcDbSymbolTable
 70
0
  0
ENDTAB
  0
TABLE
  2
APPID
  5
3
330
0
100
AcDbSymbolTable
 70
3
  0
APPID
  5
2A
330
3
100
AcDbSymbolTableRecord
100
AcDbRegAppTableRecord
  2
ACAD
 70
0
  0
APPID
  5
7E
330
3
100
AcDbSymbolTableRecord
100
AcDbRegAppTableRecord
  2
HATCHBACKGROUNDCOLOR
 70
0
  0
APPID
  5
7F
330
3
100
AcDbSymbolTableRecord
100
AcDbRegAppTableRecord
  2
EZDXF
 70
0
  0
ENDTAB
  0
TABLE
  2
DIMSTYLE
  5
4
330
0
100
AcDbSymbolTable
 70
1
100
AcDbDimStyleTable
  0
DIMSTYLE
105
2B
330
4
100
AcDbSymbolTableRecord
100
AcDbDimStyleTableRecord
  2
Standard
 70
0
 40
1.0
 41
2.5
 42
0.625
 43
3.75
 44
1.25
 45
0.0
 46
0.0
 47
0.0
 48
0.0
 49
2.5
140
2.5
141
2.5
142
0.0
143
0.03937007874
144
1.0
145
0.0
146
1.0
147
0.625
148
0.0
 69
0
 70
0
 71
0
 72
0
 73
0
 74
0
 75
0
 76
0
 77
1
 78
8
 79
0
170
0
171
3
172
1
173
0
174
0
175
0
176
0
177
0
178
0
179
0
271
0
272
2
273
2
274
3
275
0
276
0
277
2
278
44
279
0
280
0
281
0
282
0
283
0
284
8
285
0
286
0
288
0
289
3
290
0
371
-2
372
-2
  0
ENDTAB
  0
TABLE
  2
BLOCK_RECORD
  5
9
330
0
100
AcDbSymbolTable
 70
2
  0
BLOCK_RECORD
  5
17
330
9
100
AcDbSymbolTableRecord
100
AcDbBlockTableRecord
  2
*Model_Space
340
1A
 70
0
280
1
281
0
  0
BLOCK_RECORD
  5
1B
330
9
100
AcDbSymbolTableRecord
100
AcDbBlockTableRecord
  2
*Paper_Space
340
1E
 70
0
280
1
281
0
  0
ENDTAB
  0
ENDSEC
  0
SECTION
  2
BLOCKS
  0
BLOCK
  5
18
330
17
100
AcDbEntity
  8
0
100
AcDbBlockBegin
  2
*Model_Space
 70
0
 10
0.0
 20
0.0
 30
0.0
  3
*Model_Space
  1

  0
ENDBLK
  5
19
330
17
100
AcDbEntity
  8
0
100
AcDbBlockEnd
  0
BLOCK
  5
1C
330
1B
100
AcDbEntity
  8
0
100
AcDbBlockBegin
  2
*Paper_Space
 70
0
 10
0.0
 20
0.0
 30
0.0
  3
*Paper_Space
  1

  0
ENDBLK
  5
1D
330
1B
100
AcDbEntity
  8
0
100
AcDbBlockEnd
  0
ENDSEC
  0
SECTION
  2
ENTITIES
  0
SPLINE
  5
2F
330
17
100
AcDbEntity
  8
0
100
AcDbSpline
 70
0
 71
8
 72
74
 73
65
 74
0
 40
0.0
 40
0.0
 40
0.0
 40
0.0
 40
0.0
 40
0.0
 40
0.0
 40
0.0
 40
0.0
 40
0.12144598776675256
 40
0.12144598776675256
 40
0.12144598776675256
 40
0.12144598776675256
 40
0.12144598776675256
 40
0.12144598776675256
 40
0.12144598776675256
 40
0.22223224577408088
 40
0.22223224577408088
 40
0.22223224577408088
 40
0.22223224577408088
 40
0.22223224577408088
 40
0.22223224577408088
 40
0.22223224577408088
 40
0.31356160480465833
 40
0.31356160480465833
 40
0.31356160480465833
 40
0.31356160480465833
 40
0.31356160480465833
 40
0.31356160480465833
 40
0.31356160480465833
 40
0.410779522861157
 40
0.410779522861157
 40
0.410779522861157
 40
0.410779522861157
 40
0.410779522861157
 40
0.410779522861157
 40
0.410779522861157
 40
0.4883221577453544
 40
0.4883221577453544
 40
0.4883221577453544
 40
0.4883221577453544
 40
0.4883221577453544
 40
0.4883221577453544
 40
0.4883221577453544
 40
0.5092211346203245
 40
0.5092211346203245
 40
0.5092211346203245
 40
0.5092211346203245
 40
0.5092211346203245
 40
0.5092211346203245
 40
0.5092211346203245
 40
0.5739745660878923
 40
0.5739745660878923
 40
0.5739745660878923
 40
0.5739745660878923
 40
0.5739745660878923
 40
0.5739745660878923
 40
0.5739745660878923
 40
0.7796359046336128
 40
0.7796359046336128
 40
0.7796359046336128
 40
0.7796359046336128
 40
0.7796359046336128
 40
0.7796359046336128
 40
0.7796359046336128
 40
1.0
 40
1.0
 40
1.0
 40
1.0
 40
1.0
 40
1.0
 40
1.0
 40
1.0
 40
1.0
 10
45.87135600836959
 20
235.9000000007958
 30
743.0
 10
45.5168341934229
 20
236.77262439134063
 30
743.0
 10
45.15088974188132
 20
237.64055096147916
 30
743.0
 10
44.772705880702865
 20
238.50331517424556
 30
743.0
 10
44.38138270455594
 20
239.36030471870959
 30
743.0
 10
43.975912894553005
 20
240.21074767128982
 30
743.0
 10
43.555154938694336
 20
241.05369975785302
 30
743.0
 10
43.11778218710124
 20
241.888020075804
 30
743.0
 10
42.284093491459565
 20
243.3964029943627
 30
743.0
 10
41.89352388313097
 20
244.0734502796051
 30
743.0
 10
41.48952740608558
 20
244.74274902263878
 30
743.0
 10
41.07109370988858
 20
245.40332223982327
 30
743.0
 10
40.6371307948925
 20
246.0539187392139
 30
743.0
 10
40.186443619249964
 20
246.6929987757562
 30
743.0
 10
39.717690596931185
 20
247.31870483276379
 30
743.0
 10
38.78672831469107
 20
248.48165358347893
 30
743.0
 10
38.32821634565375
 20
249.0214575559493
 30
743.0
 10
37.85251070392793
 20
249.54669605276084
 30
743.0
 10
37.35843396562264
 20
250.05527263730872
 30
743.0
 10
36.84490153745893
 20
250.5445356803986
 30
743.0
 10
36.310942894093614
 20
251.01130092245918
 30
743.0
 10
35.75574751008364
 20
251.4519002455952
 30
743.0
 10
34.56456993960056
 20
252.29912639939798
 30
743.0
 10
33.92516296445822
 20
252.70210442167306
 30
743.0
 10
33.260847599323
 20
253.06547971436032
 30
743.0
 10
32.57271571196976
 20
253.38317074240948
 30
743.0
 10
31.86281703036699
 20
253.64920532199972
 30
743.0
 10
31.13441176304093
 20
253.85839002202903
 30
743.0
 10
30.392317135913935
 20
254.00721402942662
 30
743.0
 10
29.0459864315053
 20
254.1650298017668
 30
743.0
 10
28.443892459487042
 20
254.19626704190347
 30
743.0
 10
27.840455148122444
 20
254.18830285313805
 30
743.0
 10
27.238589024523023
 20
254.14199141082815
 30
743.0
 10
26.640786429468417
 20
254.05908650980425
 30
743.0
 10
26.049147467695285
 20
253.94192921048418
 30
743.0
 10
25.465403535200785
 20
253.7931922538626
 30
743.0
 10
24.736105835423725
 20
253.56783919735867
 30
743.0
 10
24.581728649714258
 20
253.51783455004053
 30
743.0
 10
24.427819795750075
 20
253.46571866577713
 30
743.0
 10
24.274389978229514
 20
253.411530068676
 30
743.0
 10
24.12144367723154
 20
253.3552944445956
 30
743.0
 10
23.96897914821576
 20
253.29702464114547
 30
743.0
 10
23.81698842202243
 20
253.23672066768606
 30
743.0
 10
23.19595299046146
 20
252.9811813187096
 30
743.0
 10
22.73397892106686
 20
252.76969213856785
 30
743.0
 10
22.280132990276126
 20
252.54083583208208
 30
743.0
 10
21.834823223135313
 20
252.29565543512476
 30
743.0
 10
21.398300875984752
 20
252.035244206882
 30
743.0
 10
20.9706876462625
 20
251.76069701464496
 30
743.0
 10
20.551996992275456
 20
251.4730722387721
 30
743.0
 10
18.840446023732817
 20
250.2214709085012
 30
743.0
 10
17.631517373627986
 20
249.15029783139573
 30
743.0
 10
16.50578335600548
 20
247.9883421982933
 30
743.0
 10
15.453964479670518
 20
246.75882023262767
 30
743.0
 10
14.467425514601402
 20
245.47931697433074
 30
743.0
 10
13.537872813498218
 20
244.16204307967962
 30
743.0
 10
12.657213865771979
 20
242.81393012628337
 30
743.0
 10
10.917488603585383
 20
239.96120421178642
 30
743.0
 10
10.066782469858111
 20
238.45609014292057
 30
743.0
 10
9.257297642930268
 20
236.92791282281945
 30
743.0
 10
8.483383462179134
 20
235.38138061027524
 30
743.0
 10
7.740462780027528
 20
233.82007959320305
 30
743.0
 10
7.0247649523757545
 20
232.24660628817168
 30
743.0
 10
6.333027136171928
 20
230.66272489499505
 30
743.0
 10
5.662368098510626
 20
229.06942871504754
 30
743.0
  0
LINE
  5
30
330
17
100
AcDbEntity
  8
0
100
AcDbLine
 10
26.29930866517008
 20
235.9
 30
743.0
 11
45.87135600641089
 21
235.9
 31
743.0
  0
SPLINE
  5
31
330
17
100
AcDbEntity
  8
0
100
AcDbSpline
 70
0
 71
1
 72
4
 73
2
 74
0
 40
0.0
 40
0.0
 40
1.0
 40
1.0
 10
26.299308675955835
 20
235.9000006000011
 30
743.0
 10
26.299308675955835
 20
232.09999939999986
 30
743.0
  0
LINE
  5
32
330
17
100
AcDbEntity
  8
0
100
AcDbLine
 10
26.29930866517008
 20
232.1
 30
743.0
 11
47.31464898025199
 21
232.1
 31
743.0
  0
SPLINE
  5
33
330
17
100
AcDbEntity
  8
0
100
AcDbSpline
 70
0
 71
8
 72
39
 73
30
 74
0
 40
0.0
 40
0.0
 40
0.0
 40
0.0
 40
0.0
 40
0.0
 40
0.0
 40
0.0
 40
0.0
 40
0.24785869413292966
 40
0.24785869413292966
 40
0.24785869413292966
 40
0.24785869413292966
 40
0.24785869413292966
 40
0.24785869413292966
 40
0.24785869413292966
 40
0.7224389261483873
 40
0.7224389261483873
 40
0.7224389261483873
 40
0.7224389261483873
 40
0.7224389261483873
 40
0.7224389261483873
 40
0.7224389261483873
 40
0.954367441063669
 40
0.954367441063669
 40
0.954367441063669
 40
0.954367441063669
 40
0.954367441063669
 40
0.954367441063669
 40
0.954367441063669
 40
1.0
 40
1.0
 40
1.0
 40
1.0
 40
1.0
 40
1.0
 40
1.0
 40
1.0
 40
1.0
 10
53.38432502967766
 20
209.89999999099237
 30
743.0
 10
53.22908970329439
 20
210.6079839272201
 30
743.0
 10
53.07200465742986
 20
211.3155605130396
 30
743.0
 10
52.913011736632285
 20
212.02271107751983
 30
743.0
 10
52.752048675262685
 20
212.72941562161958
 30
743.0
 10
52.58904858231804
 20
213.43565271023704
 30
743.0
 10
52.42393931666106
 20
214.1413993413052
 30
743.0
 10
52.25664271586459
 20
214.84663078415224
 30
743.0
 10
51.76239613673781
 20
216.90060429363362
 30
743.0
 10
51.42939769299011
 20
218.2478588432204
 30
743.0
 10
51.087478660396215
 20
219.59290502753808
 30
743.0
 10
50.735954534631105
 20
220.93550578509914
 30
743.0
 10
50.3740260688357
 20
222.2753577144272
 30
743.0
 10
50.000750297856776
 20
223.6120832270046
 30
743.0
 10
49.614980589601245
 20
224.945214286158
 30
743.0
 10
49.01989153874507
 20
226.92361735273266
 30
743.0
 10
48.82376045738215
 20
227.5635613510669
 30
743.0
 10
48.62686877361609
 20
228.19387904560048
 30
743.0
 10
48.42922232584271
 20
228.8144562225368
 30
743.0
 10
48.23082180986972
 20
229.42517894624172
 30
743.0
 10
48.031669961146825
 20
230.0259362124307
 30
743.0
 10
47.83177873699597
 20
230.61662260135566
 30
743.0
 10
47.59170746909031
 20
231.31135947328954
 30
743.0
 10
47.552210472058064
 20
231.42518788349292
 30
743.0
 10
47.51268564726197
 20
231.53862677647217
 30
743.0
 10
47.47313313421921
 20
231.6516767670968
 30
743.0
 10
47.433553072447
 20
231.76433847023642
 30
743.0
 10
47.39394560146252
 20
231.8766125007606
 30
743.0
 10
47.354310860782974
 20
231.9884994735389
 30
743.0
 10
47.31464898992555
 20
232.10000000344093
 30
743.0
  0
LINE
  5
34
330
17
100
AcDbEntity
  8
0
100
AcDbLine
 10
26.29930866517008
 20
209.9
 30
743.0
 11
53.384325070758905
 21
209.9
 31
743.0
  0
SPLINE
  5
35
330
17
100
AcDbEntity
  8
0
100
AcDbSpline
 70
0
 71
1
 72
4
 73
2
 74
0
 40
0.0
 40
0.0
 40
1.0
 40
1.0
 10
26.299308675955835
 20
209.90000060000008
 30
743.0
 10
26.299308675955835
 20
206.09999939999994
 30
743.0
  0
LINE
  5
36
330
17
100
AcDbEntity
  8
0
100
AcDbLine
 10
26.29930866517008
 20
206.1
 30
743.0
 11
54.194141289169465
 21
206.1
 31
743.0
  0
SPLINE
  5
37
330
17
100
AcDbEntity
  8
0
100
AcDbSpline
 70
0
 71
8
 72
25
 73
16
 74
0
 40
0.0
 40
0.0
 40
0.0
 40
0.0
 40
0.0
 40
0.0
 40
0.0
 40
0.0
 40
0.0
 40
0.39815362767783724
 40
0.39815362767783724
 40
0.39815362767783724
 40
0.39815362767783724
 40
0.39815362767783724
 40
0.39815362767783724
 40
0.39815362767783724
 40
1.0
 40
1.0
 40
1.0
 40
1.0
 40
1.0
 40
1.0
 40
1.0
 40
1.0
 40
1.0
 10
58.19347289341137
 20
183.89999999824607
 30
743.0
 10
58.018708111997526
 20
185.0091013421727
 30
743.0
 10
57.841575512571666
 20
186.1178286621923
 30
743.0
 10
57.662014344034475
 20
187.22616617324232
 30
743.0
 10
57.479959497336665
 20
188.3340969402356
 30
743.0
 10
57.2953410009567
 20
189.44160280013162
 30
743.0
 10
57.1080834141771
 20
190.54866426817696
 30
743.0
 10
56.91810509168307
 20
191.65526042413836
 30
743.0
 10
56.43390054028904
 20
194.43335479103843
 30
743.0
 10
56.13607170330694
 20
196.1041834020752
 30
743.0
 10
55.83152158935327
 20
197.77379669372488
 30
743.0
 10
55.51990461559713
 20
199.44211511606534
 30
743.0
 10
55.200833618084616
 20
201.1090364305768
 30
743.0
 10
54.873868366580425
 20
202.77443327192475
 30
743.0
 10
54.53850283373882
 20
204.43815046314285
 30
743.0
 10
54.19414130277289
 20
206.10000000281877
 30
743.0
  0
LINE
  5
38
330
17
100
AcDbEntity
  8
0
100
AcDbLine
 10
26.29930866517008
 20
183.9
 30
743.0
 11
58.193472904541764
 21
183.9
 31
743.0
  0
SPLINE
  5
39
330
17
100
AcDbEntity
  8
0
100
AcDbSpline
 70
0
 71
1
 72
4
 73
2
 74
0
 40
0.0
 40
0.0
 40
1.0
 40
1.0
 10
26.299308675955835
 20
183.90000060000014
 30
743.0
 10
26.299308675955835
 20
180.0999993999999
 30
743.0
  0
LINE
  5
3A
330
17
100
AcDbEntity
  8
0
100
AcDbLine
 10
26.29930866517008
 20
180.1
 30
743.0
 11
58.780068026697904
 21
180.1
 31
743.0
  0
SPLINE
  5
3B
330
17
100
AcDbEntity
  8
0
100
AcDbSpline
 70
0
 71
8
 72
25
 73
16
 74
0
 40
0.0
 40
0.0
 40
0.0
 40
0.0
 40
0.0
 40
0.0
 40
0.0
 40
0.0
 40
0.0
 40
0.374273674195834
 40
0.374273674195834
 40
0.374273674195834
 40
0.374273674195834
 40
0.374273674195834
 40
0.374273674195834
 40
0.374273674195834
 40
1.0
 40
1.0
 40
1.0
 40
1.0
 40
1.0
 40
1.0
 40
1.0
 40
1.0
 40
1.0
 10
61.780097407882025
 20
157.89999999987953
 30
743.0
 10
61.654681804854995
 20
158.94056194557209
 30
743.0
 10
61.52779317513678
 20
159.98094597583264
 30
743.0
 10
61.39941272715194
 20
161.02114740889468
 30
743.0
 10
61.26952051613404
 20
162.06116135972735
 30
743.0
 10
61.13809536589064
 20
163.1009827312668
 30
743.0
 10
61.00511477968232
 20
164.14060620445196
 30
743.0
 10
60.87055483867163
 20
165.18002622689866
 30
743.0
 10
60.50674417908963
 20
167.95663287811885
 30
743.0
 10
60.27461418170543
 20
169.69343309383095
 30
743.0
 10
60.03788073208126
 20
171.42961289022685
 30
743.0
 10
59.79641297935007
 20
173.16514291708938
 30
743.0
 10
59.550066650035745
 20
174.89998892507282
 30
743.0
 10
59.29868215898217
 20
176.6341114711462
 30
743.0
 10
59.04208216819677
 20
178.36746554117417
 30
743.0
 10
58.78006799668775
 20
180.09999999546142
 30
743.0
  0
LINE
  5
3C
330
17
100
AcDbEntity
  8
0
100
AcDbLine
 10
26.29930866517008
 20
157.9
 30
743.0
 11
61.780097408882
 21
157.9
 31
743.0
  0
SPLINE
  5
3D
330
17
100
AcDbEntity
  8
0
100
AcDbSpline
 70
0
 71
1
 72
4
 73
2
 74
0
 40
0.0
 40
0.0
 40
1.0
 40
1.0
 10
26.299308675955835
 20
157.90000060000042
 30
743.0
 10
26.299308675955835
 20
154.09999939999918
 30
743.0
  0
LINE
  5
3E
330
17
100
AcDbEntity
  8
0
100
AcDbLine
 10
26.29930866517008
 20
154.1
 30
743.0
 11
62.22948383007481
 21
154.1
 31
743.0
  0
SPLINE
  5
3F
330
17
100
AcDbEntity
  8
0
100
AcDbSpline
 70
0
 71
8
 72
18
 73
9
 74
0
 40
0.0
 40
0.0
 40
0.0
 40
0.0
 40
0.0
 40
0.0
 40
0.0
 40
0.0
 40
0.0
 40
1.0
 40
1.0
 40
1.0
 40
1.0
 40
1.0
 40
1.0
 40
1.0
 40
1.0
 40
1.0
 10
64.53303315244517
 20
131.9000000003544
 30
743.0
 10
64.27728193331158
 20
134.67821865786638
 30
743.0
 10
64.01263856421976
 20
137.4556149703186
 30
743.0
 10
63.73899273695035
 20
140.23214968701296
 30
743.0
 10
63.45620275122525
 20
143.00777634830533
 30
743.0
 10
63.164092649664
 20
145.78244096324482
 30
743.0
 10
62.862448905462934
 20
148.55608162911474
 30
743.0
 10
62.55101520057482
 20
151.32862793609206
 30
743.0
 10
62.229483832166764
 20
154.10000000024266
 30
743.0
  0
LINE
  5
40
330
17
100
AcDbEntity
  8
0
100
AcDbLine
 10
26.29930866517008
 20
131.9
 30
743.0
 11
64.533033148595
 21
131.9
 31
743.0
  0
SPLINE
  5
41
330
17
100
AcDbEntity
  8
0
100
AcDbSpline
 70
0
 71
1
 72
4
 73
2
 74
0
 40
0.0
 40
0.0
 40
1.0
 40
1.0
 10
26.299308675955835
 20
131.90000060000256
 30
743.0
 10
26.299308675955835
 20
128.09999939999764
 30
743.0
  0
LINE
  5
42
330
17
100
AcDbEntity
  8
0
100
AcDbLine
 10
26.29930866517008
 20
128.1
 30
743.0
 11
64.87553776160851
 21
128.1
 31
743.0
  0
SPLINE
  5
43
330
17
100
AcDbEntity
  8
0
100
AcDbSpline
 70
0
 71
8
 72
25
 73
16
 74
0
 40
0.0
 40
0.0
 40
0.0
 40
0.0
 40
0.0
 40
0.0
 40
0.0
 40
0.0
 40
0.0
 40
0.9678347469743235
 40
0.9678347469743235
 40
0.9678347469743235
 40
0.9678347469743235
 40
0.9678347469743235
 40
0.9678347469743235
 40
0.9678347469743235
 40
1.0
 40
1.0
 40
1.0
 40
1.0
 40
1.0
 40
1.0
 40
1.0
 40
1.0
 40
1.0
 10
66.59703100630861
 20
105.8999999991702
 30
743.0
 10
66.41602384150016
 20
108.58776552326391
 30
743.0
 10
66.22780341289936
 20
111.27504512588456
 30
743.0
 10
66.03221695466686
 20
113.96180569231922
 30
743.0
 10
65.82910862266
 20
116.64801211175285
 30
743.0
 10
65.61831934784759
 20
119.33362726697496
 30
743.0
 10
65.39968668972455
 20
122.01861202408625
 30
743.0
 10
65.17304468972662
 20
124.70292522220535
 30
743.0
 10
64.93041962814907
 20
127.47571101994566
 30
743.0
 10
64.9226064941124
 20
127.56489757463262
 30
743.0
 10
64.91478431990498
 20
127.65408332617682
 30
743.0
 10
64.90695310286583
 20
127.74326827351146
 30
743.0
 10
64.89911284030302
 20
127.83245241556237
 30
743.0
 10
64.89126352949351
 20
127.92163575124799
 30
743.0
 10
64.88340516768314
 20
128.0108182794793
 30
743.0
 10
64.87553775208643
 20
128.09999999915996
 30
743.0
  0
LINE
  5
44
330
17
100
AcDbEntity
  8
0
100
AcDbLine
 10
26.29930866517008
 20
105.9
 30
743.0
 11
66.59703101863079
 21
105.9
 31
743.0
  0
SPLINE
  5
45
330
17
100
AcDbEntity
  8
0
100
AcDbSpline
 70
0
 71
1
 72
4
 73
2
 74
0
 40
0.0
 40
0.0
 40
1.0
 40
1.0
 10
26.299308675955835
 20
105.90000060000206
 30
743.0
 10
26.299308675955835
 20
102.09999939999993
 30
743.0
  0
LINE
  5
46
330
17
100
AcDbEntity
  8
0
100
AcDbLine
 10
26.29930866517008
 20
102.1
 30
743.0
 11
66.84665384282853
 21
102.1
 31
743.0
  0
SPLINE
  5
47
330
17
100
AcDbEntity
  8
0
100
AcDbSpline
 70
0
 71
8
 72
25
 73
16
 74
0
 40
0.0
 40
0.0
 40
0.0
 40
0.0
 40
0.0
 40
0.0
 40
0.0
 40
0.0
 40
0.0
 40
0.3253186511754036
 40
0.3253186511754036
 40
0.3253186511754036
 40
0.3253186511754036
 40
0.3253186511754036
 40
0.3253186511754036
 40
0.3253186511754036
 40
1.0
 40
1.0
 40
1.0
 40
1.0
 40
1.0
 40
1.0
 40
1.0
 40
1.0
 40
1.0
 10
68.06659292808698
 20
79.90000000195622
 30
743.0
 10
68.02480845910428
 20
80.80316554761731
 30
743.0
 10
67.98232915429477
 20
81.70629911206987
 30
743.0
 10
67.93914986494495
 20
82.60939987617641
 30
743.0
 10
67.89526541093564
 20
83.51246700796446
 30
743.0
 10
67.85067058019366
 20
84.41549966261263
 30
743.0
 10
67.80536012813724
 20
85.31849698243649
 30
743.0
 10
67.75932877711477
 20
86.22145809687419
 30
743.0
 10
67.61560027858455
 20
88.99696458054959
 30
743.0
 10
67.51550598820239
 20
90.86938464161179
 30
743.0
 10
67.41224097901417
 20
92.74163404909902
 30
743.0
 10
67.3057572828604
 20
94.61370408631598
 30
743.0
 10
67.1960063051474
 20
96.48558557474979
 30
743.0
 10
67.08293880089599
 20
98.3572688723882
 30
743.0
 10
66.96650485078995
 20
100.22874387203757
 30
743.0
 10
66.84665383722464
 20
102.09999999964106
 30
743.0
  0
LINE
  5
48
330
17
100
AcDbEntity
  8
0
100
AcDbLine
 10
26.29930866517008
 20
79.9
 30
743.0
 11
68.06659288580312
 21
79.9
 31
743.0
  0
SPLINE
  5
49
330
17
100
AcDbEntity
  8
0
100
AcDbSpline
 70
0
 71
1
 72
4
 73
2
 74
0
 40
0.0
 40
0.0
 40
1.0
 40
1.0
 10
26.299308675955835
 20
79.90000060000001
 30
743.0
 10
26.299308675955835
 20
76.09999939999999
 30
743.0
  0
LINE
  5
4A
330
17
100
AcDbEntity
  8
0
100
AcDbLine
 10
26.29930866517008
 20
76.1
 30
743.0
 11
68.23704777584999
 21
76.1
 31
743.0
  0
SPLINE
  5
4B
330
17
100
AcDbEntity
  8
0
100
AcDbSpline
 70
0
 71
8
 72
18
 73
9
 74
0
 40
0.0
 40
0.0
 40
0.0
 40
0.0
 40
0.0
 40
0.0
 40
0.0
 40
0.0
 40
0.0
 40
1.0
 40
1.0
 40
1.0
 40
1.0
 40
1.0
 40
1.0
 40
1.0
 40
1.0
 40
1.0
 10
69.03035528910982
 20
53.89999999918601
 30
743.0
 10
68.95161017375356
 20
56.67568350371043
 30
743.0
 10
68.86730638157135
 20
59.45120872540561
 30
743.0
 10
68.77730915266163
 20
62.226558572419265
 30
743.0
 10
68.68148159055062
 20
65.0017148273834
 30
743.0
 10
68.57968453126749
 20
67.77665814420433
 30
743.0
 10
68.47177640704214
 20
70.55136804468373
 30
743.0
 10
68.35761310462593
 20
73.32582291497019
 30
743.0
 10
68.23704781823511
 20
76.10000000184205
 30
743.0
  0
LINE
  5
4C
330
17
100
AcDbEntity
  8
0
100
AcDbLine
 10
26.29930866517008
 20
53.9
 30
743.0
 11
69.03035531780276
 21
53.9
 31
743.0
  0
SPLINE
  5
4D
330
17
100
AcDbEntity
  8
0
100
AcDbSpline
 70
0
 71
1
 72
4
 73
2
 74
0
 40
0.0
 40
0.0
 40
1.0
 40
1.0
 10
26.299308675955835
 20
53.90000060000026
 30
743.0
 10
26.299308675955835
 20
50.09999939999937
 30
743.0
  0
LINE
  5
4E
330
17
100
AcDbEntity
  8
0
100
AcDbLine
 10
26.29930866517008
 20
50.1
 30
743.0
 11
69.13363631641775
 21
50.1
 31
743.0
  0
SPLINE
  5
4F
330
17
100
AcDbEntity
  8
0
100
AcDbSpline
 70
0
 71
8
 72
18
 73
9
 74
0
 40
0.0
 40
0.0
 40
0.0
 40
0.0
 40
0.0
 40
0.0
 40
0.0
 40
0.0
 40
0.0
 40
1.0
 40
1.0
 40
1.0
 40
1.0
 40
1.0
 40
1.0
 40
1.0
 40
1.0
 40
1.0
 10
69.56637070627589
 20
27.90000000007028
 30
743.0
 10
69.52942722274149
 20
30.675297690967295
 30
743.0
 10
69.4878359489679
 20
33.450534168965916
 30
743.0
 10
69.4414730910377
 20
36.225698903265354
 30
743.0
 10
69.39021329015641
 20
39.000780253196424
 30
743.0
 10
69.33392951086508
 20
41.77576546561164
 30
743.0
 10
69.27249292389018
 20
44.55064067210657
 30
743.0
 10
69.205772783631
 20
47.32539088607251
 30
743.0
 10
69.13363630028424
 20
50.09999999958054
 30
743.0
  0
LINE
  5
50
330
17
100
AcDbEntity
  8
0
100
AcDbLine
 10
26.29930866517008
 20
27.9
 30
743.0
 11
69.56637070099758
 21
27.9
 31
743.0
  0
SPLINE
  5
51
330
17
100
AcDbEntity
  8
0
100
AcDbSpline
 70
0
 71
1
 72
4
 73
2
 74
0
 40
0.0
 40
0.0
 40
1.0
 40
1.0
 10
26.299308675955835
 20
27.900000600000002
 30
743.0
 10
26.299308675955835
 20
24.099999399999998
 30
743.0
  0
LINE
  5
52
330
17
100
AcDbEntity
  8
0
100
AcDbLine
 10
26.29930866517008
 20
24.1
 30
743.0
 11
69.61317652140345
 21
24.1
 31
743.0
  0
SPLINE
  5
53
330
17
100
AcDbEntity
  8
0
100
AcDbSpline
 70
0
 71
8
 72
25
 73
16
 74
0
 40
0.0
 40
0.0
 40
0.0
 40
0.0
 40
0.0
 40
0.0
 40
0.0
 40
0.0
 40
0.0
 40
0.13905662915406458
 40
0.13905662915406458
 40
0.13905662915406458
 40
0.13905662915406458
 40
0.13905662915406458
 40
0.13905662915406458
 40
0.13905662915406458
 40
1.0
 40
1.0
 40
1.0
 40
1.0
 40
1.0
 40
1.0
 40
1.0
 40
1.0
 40
1.0
 10
69.74494484714403
 20
1.899999999763693
 30
743.0
 10
69.74462088041659
 20
2.2858915328877343
 30
743.0
 10
69.74422344933413
 20
2.6717830026499154
 30
743.0
 10
69.74375221389884
 20
3.057674392549687
 30
743.0
 10
69.74320676433541
 20
3.4435656862795767
 30
743.0
 10
69.7425866683608
 20
3.829456867822045
 30
743.0
 10
69.7418915432757
 20
4.215347921561192
 30
743.0
 10
69.7411211528774
 20
4.601238832409313
 30
743.0
 10
69.73504000674016
 20
7.376300732633048
 30
743.0
 10
69.7269118100694
 20
9.765461740063646
 30
743.0
 10
69.71581640957476
 20
12.1546095275
 30
743.0
 10
69.70167865101524
 20
14.543740410175808
 30
743.0
 10
69.68442271053124
 20
16.932850098311945
 30
743.0
 10
69.66397204747832
 20
19.321933696061226
 30
743.0
 10
69.64024935507933
 20
21.71098570038451
 30
743.0
 10
69.61317650889497
 20
24.099999999858202
 30
743.0
  0
LINE
  5
54
330
17
100
AcDbEntity
  8
0
100
AcDbLine
 10
26.29930866517008
 20
1.9
 30
743.0
 11
69.74494512861747
 21
1.9
 31
743.0
  0
SPLINE
  5
55
330
17
100
AcDbEntity
  8
0
100
AcDbSpline
 70
0
 71
1
 72
4
 73
2
 74
0
 40
0.0
 40
0.0
 40
0.9999993684216398
 40
0.9999993684216398
 10
26.299308675955835
 20
1.9000006000000558
 30
743.0
 10
26.299308675955835
 20
-6.553790374438061e-17
 30
743.0
  0
SPLINE
  5
56
330
17
100
AcDbEntity
  8
0
100
AcDbSpline
 70
0
 71
1
 72
4
 73
2
 74
0
 40
0.0
 40
0.0
 40
1.0
 40
1.0
 10
26.299308675955835
 20
-1.9000006000000011
 30
743.0
 10
26.299308675955835
 20
1.2000000211287443e-06
 30
743.0
  0
LINE
  5
57
330
17
100
AcDbEntity
  8
0
100
AcDbLine
 10
26.299308665170088
 20
-1.9
 30
743.0
 11
69.74503800295545
 21
-1.9
 31
743.0
  0
SPLINE
  5
58
330
17
100
AcDbEntity
  8
0
100
AcDbSpline
 70
0
 71
8
 72
25
 73
16
 74
0
 40
0.0
 40
0.0
 40
0.0
 40
0.0
 40
0.0
 40
0.0
 40
0.0
 40
0.0
 40
0.0
 40
0.8450693416122808
 40
0.8450693416122808
 40
0.8450693416122808
 40
0.8450693416122808
 40
0.8450693416122808
 40
0.8450693416122808
 40
0.8450693416122808
 40
1.0
 40
1.0
 40
1.0
 40
1.0
 40
1.0
 40
1.0
 40
1.0
 40
1.0
 40
1.0
 10
69.61429462878779
 20
-24.100000000141844
 30
743.0
 10
69.64077105126432
 20
-21.755053435877095
 30
743.0
 10
69.66401587493107
 20
-19.410068551210067
 30
743.0
 10
69.6841034890431
 20
-17.065050104949886
 30
743.0
 10
69.70110751676447
 20
-14.720002143718084
 30
743.0
 10
69.71510086275673
 20
-12.374928003691887
 30
743.0
 10
69.72615576025224
 20
-10.029830312327697
 30
743.0
 10
69.7343438180825
 20
-7.684710990084854
 30
743.0
 10
69.74072465546892
 20
-4.909625417295235
 30
743.0
 10
69.7416196830995
 20
-4.479679375747261
 30
743.0
 10
69.74242098037843
 20
-4.049733148759962
 30
743.0
 10
69.7431288479488
 20
-3.6197867579150023
 30
743.0
 10
69.74374383908413
 20
-3.1898402251546623
 30
743.0
 10
69.74426658851239
 20
-2.759893572766494
 30
743.0
 10
69.74469768872154
 20
-2.3299468233395637
 30
743.0
 10
69.74503761374667
 20
-1.8999999996922934
 30
743.0
  0
LINE
  5
59
330
17
100
AcDbEntity
  8
0
100
AcDbLine
 10
26.299308665170088
 20
-24.1
 30
743.0
 11
69.61429461622555
 21
-24.1
 31
743.0
  0
SPLINE
  5
5A
330
17
100
AcDbEntity
  8
0
100
AcDbSpline
 70
0
 71
1
 72
4
 73
2
 74
0
 40
0.0
 40
0.0
 40
1.0
 40
1.0
 10
26.299308675955835
 20
-27.900000600000034
 30
743.0
 10
26.299308675955835
 20
-24.099999399999938
 30
743.0
  0
LINE
  5
5B
330
17
100
AcDbEntity
  8
0
100
AcDbLine
 10
26.299308665170088
 20
-27.9
 30
743.0
 11
69.56764132163723
 21
-27.9
 31
743.0
  0
SPLINE
  5
5C
330
17
100
AcDbEntity
  8
0
100
AcDbSpline
 70
0
 71
8
 72
18
 73
9
 74
0
 40
0.0
 40
0.0
 40
0.0
 40
0.0
 40
0.0
 40
0.0
 40
0.0
 40
0.0
 40
0.0
 40
1.0
 40
1.0
 40
1.0
 40
1.0
 40
1.0
 40
1.0
 40
1.0
 40
1.0
 40
1.0
 10
69.13554323889686
 20
-50.09999999981798
 30
743.0
 10
69.20763463255861
 20
-47.325382470733004
 30
743.0
 10
69.27429805472389
 20
-44.5506269388236
 30
743.0
 10
69.33566719165745
 20
-41.775749534022424
 30
743.0
 10
69.39187368716732
 20
-39.00076496895778
 30
743.0
 10
69.44304726439188
 20
-36.22568654346302
 30
743.0
 10
69.4893158425887
 20
-33.45052614887818
 30
743.0
 10
69.53080565045441
 20
-30.67529427220927
 30
743.0
 10
69.56764133750504
 20
-27.9000000002106
 30
743.0
  0
LINE
  5
5D
330
17
100
AcDbEntity
  8
0
100
AcDbLine
 10
26.299308665170088
 20
-50.1
 30
743.0
 11
69.13554324590208
 21
-50.1
 31
743.0
  0
SPLINE
  5
5E
330
17
100
AcDbEntity
  8
0
100
AcDbSpline
 70
0
 71
1
 72
4
 73
2
 74
0
 40
0.0
 40
0.0
 40
1.0
 40
1.0
 10
26.299308675955835
 20
-53.9000006
 30
743.0
 10
26.299308675955835
 20
-50.0999994
 30
743.0
  0
LINE
  5
5F
330
17
100
AcDbEntity
  8
0
100
AcDbLine
 10
26.299308665170088
 20
-53.9
 30
743.0
 11
69.03231457054791
 21
-53.9
 31
743.0
  0
SPLINE
  5
60
330
17
100
AcDbEntity
  8
0
100
AcDbSpline
 70
0
 71
8
 72
18
 73
9
 74
0
 40
0.0
 40
0.0
 40
0.0
 40
0.0
 40
0.0
 40
0.0
 40
0.0
 40
0.0
 40
0.0
 40
1.0
 40
1.0
 40
1.0
 40
1.0
 40
1.0
 40
1.0
 40
1.0
 40
1.0
 40
1.0
 10
68.23885746843223
 20
-76.10000000032153
 30
743.0
 10
68.35949733168607
 20
-73.3258243012383
 30
743.0
 10
68.47371757514256
 20
-70.55136762188688
 30
743.0
 10
68.5816658139548
 20
-67.77665449370356
 30
743.0
 10
68.68348699429473
 20
-65.0017080049856
 30
743.0
 10
68.77932353933251
 20
-62.22654980641287
 30
743.0
 10
68.86931548661083
 20
-59.451200116207374
 30
743.0
 10
68.95360061834799
 20
-56.67567772499625
 30
743.0
 10
69.0323145862043
 20
-53.900000000444
 30
743.0
  0
LINE
  5
61
330
17
100
AcDbEntity
  8
0
100
AcDbLine
 10
26.299308665170088
 20
-76.1
 30
743.0
 11
68.23885746103842
 21
-76.1
 31
743.0
  0
SPLINE
  5
62
330
17
100
AcDbEntity
  8
0
100
AcDbSpline
 70
0
 71
1
 72
4
 73
2
 74
0
 40
0.0
 40
0.0
 40
1.0
 40
1.0
 10
26.299308675955835
 20
-79.90000060000018
 30
743.0
 10
26.299308675955835
 20
-76.09999939999999
 30
743.0
  0
LINE
  5
63
330
17
100
AcDbEntity
  8
0
100
AcDbLine
 10
26.299308665170088
 20
-79.9
 30
743.0
 11
68.06828547152705
 21
-79.9
 31
743.0
  0
SPLINE
  5
64
330
17
100
AcDbEntity
  8
0
100
AcDbSpline
 70
0
 71
8
 72
18
 73
9
 74
0
 40
0.0
 40
0.0
 40
0.0
 40
0.0
 40
0.0
 40
0.0
 40
0.0
 40
0.0
 40
0.0
 40
1.0
 40
1.0
 40
1.0
 40
1.0
 40
1.0
 40
1.0
 40
1.0
 40
1.0
 40
1.0
 10
66.84699559144033
 20
-102.09999999954044
 30
743.0
 10
67.02488320203061
 20
-99.32647576233266
 30
743.0
 10
67.19523983109087
 20
-96.55246724118541
 30
743.0
 10
67.35823133207599
 20
-93.77800759502458
 30
743.0
 10
67.51402011209603
 20
-91.00312850514115
 30
743.0
 10
67.66276531528452
 20
-88.22786018228794
 30
743.0
 10
67.8046229939
 20
-85.45223137325755
 30
743.0
 10
67.93974626870501
 20
-82.67626936700773
 30
743.0
 10
68.06828548016581
 20
-79.90000000039998
 30
743.0
  0
LINE
  5
65
330
17
100
AcDbEntity
  8
0
100
AcDbLine
 10
26.299308665170088
 20
-102.1
 30
743.0
 11
66.84699559860502
 21
-102.1
 31
743.0
  0
SPLINE
  5
66
330
17
100
AcDbEntity
  8
0
100
AcDbSpline
 70
0
 71
1
 72
4
 73
2
 74
0
 40
0.0
 40
0.0
 40
1.0
 40
1.0
 10
26.299308675955835
 20
-105.90000060000003
 30
743.0
 10
26.299308675955835
 20
-102.09999939999999
 30
743.0
  0
LINE
  5
67
330
17
100
AcDbEntity
  8
0
100
AcDbLine
 10
26.299308665170088
 20
-105.9
 30
743.0
 11
66.59701288610157
 21
-105.9
 31
743.0
  0
SPLINE
  5
68
330
17
100
AcDbEntity
  8
0
100
AcDbSpline
 70
0
 71
8
 72
25
 73
16
 74
0
 40
0.0
 40
0.0
 40
0.0
 40
0.0
 40
0.0
 40
0.0
 40
0.0
 40
0.0
 40
0.0
 40
0.19659014335719222
 40
0.19659014335719222
 40
0.19659014335719222
 40
0.19659014335719222
 40
0.19659014335719222
 40
0.19659014335719222
 40
0.19659014335719222
 40
1.0
 40
1.0
 40
1.0
 40
1.0
 40
1.0
 40
1.0
 40
1.0
 40
1.0
 40
1.0
 10
64.8725219460697
 20
-128.09999998085704
 30
743.0
 10
64.92070076616507
 20
-127.55492912858014
 30
743.0
 10
64.96854024056094
 20
-127.00982827023553
 30
743.0
 10
65.01604127995094
 20
-126.46469773475656
 30
743.0
 10
65.06320497099925
 20
-125.9195378636035
 30
743.0
 10
65.11003257634071
 20
-125.3743490107635
 30
743.0
 10
65.15652553458074
 20
-124.82913154275062
 30
743.0
 10
65.20268546029538
 20
-124.28388583860576
 30
743.0
 10
65.43580337227878
 20
-121.51022923814064
 30
743.0
 10
65.61755410158993
 20
-119.2813932041808
 30
743.0
 10
65.79386245935487
 20
-117.05212525454198
 30
743.0
 10
65.96482279669387
 20
-114.82244582346806
 30
743.0
 10
66.13052776389493
 20
-112.59237471589114
 30
743.0
 10
66.29106838170539
 20
-110.36193111022492
 30
743.0
 10
66.44653410881429
 20
-108.13113356099674
 30
743.0
 10
66.59701290586304
 20
-105.9000000013328
 30
743.0
  0
LINE
  5
69
330
17
100
AcDbEntity
  8
0
100
AcDbLine
 10
26.299308665170088
 20
-128.1
 30
743.0
 11
64.8725221626437
 21
-128.1
 31
743.0
  0
SPLINE
  5
6A
330
17
100
AcDbEntity
  8
0
100
AcDbSpline
 70
0
 71
1
 72
4
 73
2
 74
0
 40
0.0
 40
0.0
 40
1.0
 40
1.0
 10
26.299308675955835
 20
-131.9000006
 30
743.0
 10
26.299308675955835
 20
-128.09999939999992
 30
743.0
  0
LINE
  5
6B
330
17
100
AcDbEntity
  8
0
100
AcDbLine
 10
26.299308665170088
 20
-131.9
 30
743.0
 11
64.52933657333422
 21
-131.9
 31
743.0
  0
SPLINE
  5
6C
330
17
100
AcDbEntity
  8
0
100
AcDbSpline
 70
0
 71
8
 72
18
 73
9
 74
0
 40
0.0
 40
0.0
 40
0.0
 40
0.0
 40
0.0
 40
0.0
 40
0.0
 40
0.0
 40
0.0
 40
1.0
 40
1.0
 40
1.0
 40
1.0
 40
1.0
 40
1.0
 40
1.0
 40
1.0
 40
1.0
 10
62.22094684566275
 20
-154.10000000051363
 30
743.0
 10
62.54315735870789
 20
-151.32864216648127
 30
743.0
 10
62.855252930510105
 20
-148.5561063271499
 30
743.0
 10
63.157539170663284
 20
-145.78247317850324
 30
743.0
 10
63.450270476237094
 20
-143.00781315528437
 30
743.0
 10
63.733658572332075
 20
-140.23218742671412
 30
743.0
 10
64.00787761337938
 20
-137.45564849378508
 30
743.0
 10
64.27306744231824
 20
-134.67824057943486
 30
743.0
 10
64.52933660478521
 20
-131.90000000290104
 30
743.0
  0
LINE
  5
6D
330
17
100
AcDbEntity
  8
0
100
AcDbLine
 10
26.299308665170088
 20
-154.1
 30
743.0
 11
62.22094684124498
 21
-154.1
 31
743.0
  0
SPLINE
  5
6E
330
17
100
AcDbEntity
  8
0
100
AcDbSpline
 70
0
 71
1
 72
4
 73
2
 74
0
 40
0.0
 40
0.0
 40
1.0
 40
1.0
 10
26.299308675955835
 20
-157.90000060000003
 30
743.0
 10
26.299308675955835
 20
-154.0999994
 30
743.0
  0
LINE
  5
6F
330
17
100
AcDbEntity
  8
0
100
AcDbLine
 10
26.299308665170088
 20
-157.9
 30
743.0
 11
61.77061258886778
 21
-157.9
 31
743.0
  0
SPLINE
  5
70
330
17
100
AcDbEntity
  8
0
100
AcDbSpline
 70
0
 71
8
 72
25
 73
16
 74
0
 40
0.0
 40
0.0
 40
0.0
 40
0.0
 40
0.0
 40
0.0
 40
0.0
 40
0.0
 40
0.0
 40
0.48612347611030354
 40
0.48612347611030354
 40
0.48612347611030354
 40
0.48612347611030354
 40
0.48612347611030354
 40
0.48612347611030354
 40
0.48612347611030354
 40
1.0
 40
1.0
 40
1.0
 40
1.0
 40
1.0
 40
1.0
 40
1.0
 40
1.0
 40
1.0
 10
58.764627702597366
 20
-180.10000000114246
 30
743.0
 10
58.968557833649285
 20
-178.75401125142486
 30
743.0
 10
59.16921978908818
 20
-177.4075273153804
 30
743.0
 10
59.3667064345906
 20
-176.06057199714206
 30
743.0
 10
59.5611028996844
 20
-174.71316669112656
 30
743.0
 10
59.752487577679645
 20
-173.36533054093837
 30
743.0
 10
59.940932878894
 20
-172.01708055940193
 30
743.0
 10
60.12650586537275
 20
-170.66843173049924
 30
743.0
 10
60.50246596380983
 20
-167.89334539378734
 30
743.0
 10
60.69252202540854
 20
-166.46687028624658
 30
743.0
 10
60.87951047672661
 20
-165.03998855534488
 30
743.0
 10
61.06349859127068
 20
-163.61271594754336
 30
743.0
 10
61.2445481727064
 20
-162.1850672680233
 30
743.0
 10
61.422716102037384
 20
-160.75705644446813
 30
743.0
 10
61.59805479419658
 20
-159.32869658024958
 30
743.0
 10
61.77061257956256
 20
-157.89999999887604
 30
743.0
  0
LINE
  5
71
330
17
100
AcDbEntity
  8
0
100
AcDbLine
 10
26.299308665170088
 20
-180.1
 30
743.0
 11
58.76462769505649
 21
-180.1
 31
743.0
  0
SPLINE
  5
72
330
17
100
AcDbEntity
  8
0
100
AcDbSpline
 70
0
 71
1
 72
4
 73
2
 74
0
 40
0.0
 40
0.0
 40
1.0
 40
1.0
 10
26.299308675955835
 20
-183.9000006000001
 30
743.0
 10
26.299308675955835
 20
-180.09999939999994
 30
743.0
  0
LINE
  5
73
330
17
100
AcDbEntity
  8
0
100
AcDbLine
 10
26.299308665170088
 20
-183.9
 30
743.0
 11
58.176975531781096
 21
-183.9
 31
743.0
  0
SPLINE
  5
74
330
17
100
AcDbEntity
  8
0
100
AcDbSpline
 70
0
 71
8
 72
25
 73
16
 74
0
 40
0.0
 40
0.0
 40
0.0
 40
0.0
 40
0.0
 40
0.0
 40
0.0
 40
0.0
 40
0.0
 40
0.5148067160283177
 40
0.5148067160283177
 40
0.5148067160283177
 40
0.5148067160283177
 40
0.5148067160283177
 40
0.5148067160283177
 40
0.5148067160283177
 40
1.0
 40
1.0
 40
1.0
 40
1.0
 40
1.0
 40
1.0
 40
1.0
 40
1.0
 40
1.0
 10
54.17168665041969
 20
-206.10000000181685
 30
743.0
 10
54.46659549586637
 20
-204.67849418150917
 30
743.0
 10
54.75492987219236
 20
-203.25562405173827
 30
743.0
 10
55.03706165203373
 20
-201.8315069941068
 30
743.0
 10
55.3133150134901
 20
-200.40624177216995
 30
743.0
 10
55.58397728509003
 20
-198.97991085430638
 30
743.0
 10
55.84930551809549
 20
-197.55258182822928
 30
743.0
 10
56.10953217756335
 20
-196.12430862995166
 30
743.0
 10
56.605515987414364
 20
-193.34816672158541
 30
743.0
 10
56.841814685448895
 20
-192.00042710275875
 30
743.0
 10
57.073938926621196
 20
-190.65195838503092
 30
743.0
 10
57.30204603226112
 20
-189.30280168710775
 30
743.0
 10
57.526278571011474
 20
-187.95299457918503
 30
743.0
 10
57.74676653001383
 20
-186.60257142809803
 30
743.0
 10
57.963629005547645
 20
-185.25156366573418
 30
743.0
 10
58.176975545975154
 20
-183.90000000224057
 30
743.0
  0
LINE
  5
75
330
17
100
AcDbEntity
  8
0
100
AcDbLine
 10
26.299308665170088
 20
-206.1
 30
743.0
 11
54.17168664166209
 21
-206.1
 31
743.0
  0
SPLINE
  5
76
330
17
100
AcDbEntity
  8
0
100
AcDbSpline
 70
0
 71
1
 72
4
 73
2
 74
0
 40
0.0
 40
0.0
 40
1.0
 40
1.0
 10
26.299308675955835
 20
-209.90000060000008
 30
743.0
 10
26.299308675955835
 20
-206.09999939999992
 30
743.0
  0
LINE
  5
77
330
17
100
AcDbEntity
  8
0
100
AcDbLine
 10
26.299308665170088
 20
-209.9
 30
743.0
 11
53.360960322583594
 21
-209.9
 31
743.0
  0
SPLINE
  5
78
330
17
100
AcDbEntity
  8
0
100
AcDbSpline
 70
0
 71
8
 72
32
 73
23
 74
0
 40
0.0
 40
0.0
 40
0.0
 40
0.0
 40
0.0
 40
0.0
 40
0.0
 40
0.0
 40
0.0
 40
0.13000956961989568
 40
0.13000956961989568
 40
0.13000956961989568
 40
0.13000956961989568
 40
0.13000956961989568
 40
0.13000956961989568
 40
0.13000956961989568
 40
0.7074608438673357
 40
0.7074608438673357
 40
0.7074608438673357
 40
0.7074608438673357
 40
0.7074608438673357
 40
0.7074608438673357
 40
0.7074608438673357
 40
1.0
 40
1.0
 40
1.0
 40
1.0
 40
1.0
 40
1.0
 40
1.0
 40
1.0
 40
1.0
 10
47.28812987703961
 20
-232.10000019019324
 30
743.0
 10
47.41355304032645
 20
-231.74738726339518
 30
743.0
 10
47.53751828040237
 20
-231.39425489044834
 30
743.0
 10
47.66005773484497
 20
-231.0406225411742
 30
743.0
 10
47.78120647422132
 20
-230.6865099533788
 30
743.0
 10
47.901002502087806
 20
-230.33193713285226
 30
743.0
 10
48.01948675499028
 20
-229.97692435336907
 30
743.0
 10
48.136703102463954
 20
-229.6214921566882
 30
743.0
 10
48.767903512154014
 20
-227.6852011459293
 30
743.0
 10
49.258926342100814
 20
-226.09692145400894
 30
743.0
 10
49.729267658012176
 20
-224.5022947976574
 30
743.0
 10
50.18137753747627
 20
-222.90239165270816
 30
743.0
 10
50.617167876094236
 20
-221.29802870257757
 30
743.0
 10
51.03820859874646
 20
-219.6898247322876
 30
743.0
 10
51.44578779610365
 20
-218.07821753743227
 30
743.0
 10
52.04124030337864
 20
-215.64547035143573
 30
743.0
 10
52.23828753443833
 20
-214.8266746228664
 30
743.0
 10
52.43230001306693
 20
-214.00715336410514
 30
743.0
 10
52.62340607284908
 20
-213.18694797216784
 30
743.0
 10
52.81172243473284
 20
-212.3660964076876
 30
743.0
 10
52.997355948320056
 20
-211.5446335671055
 30
743.0
 10
53.180404946257454
 20
-210.72259157208393
 30
743.0
 10
53.3609603264181
 20
-209.90000000084166
 30
743.0
  0
LINE
  5
79
330
17
100
AcDbEntity
  8
0
100
AcDbLine
 10
26.299308665170088
 20
-232.1
 30
743.0
 11
47.28812934233302
 21
-232.1
 31
743.0
  0
SPLINE
  5
7A
330
17
100
AcDbEntity
  8
0
100
AcDbSpline
 70
0
 71
1
 72
4
 73
2
 74
0
 40
0.0
 40
0.0
 40
1.0
 40
1.0
 10
26.299308675955835
 20
-235.90000060000008
 30
743.0
 10
26.299308675955835
 20
-232.09999939999992
 30
743.0
  0
LINE
  5
7B
330
17
100
AcDbEntity
  8
0
100
AcDbLine
 10
26.299308665170088
 20
-235.9
 30
743.0
 11
45.84508553544054
 21
-235.9
 31
743.0
  0
SPLINE
  5
7C
330
17
100
AcDbEntity
  8
0
100
AcDbSpline
 70
0
 71
8
 72
88
 73
79
 74
0
 40
0.0
 40
0.0
 40
0.0
 40
0.0
 40
0.0
 40
0.0
 40
0.0
 40
0.0
 40
0.0
 40
0.014988705819766676
 40
0.014988705819766676
 40
0.014988705819766676
 40
0.014988705819766676
 40
0.014988705819766676
 40
0.014988705819766676
 40
0.014988705819766676
 40
0.02809115789281203
 40
0.02809115789281203
 40
0.02809115789281203
 40
0.02809115789281203
 40
0.02809115789281203
 40
0.02809115789281203
 40
0.02809115789281203
 40
0.04799436888777281
 40
0.04799436888777281
 40
0.04799436888777281
 40
0.04799436888777281
 40
0.04799436888777281
 40
0.04799436888777281
 40
0.04799436888777281
 40
0.05159846843224324
 40
0.05159846843224324
 40
0.05159846843224324
 40
0.05159846843224324
 40
0.05159846843224324
 40
0.05159846843224324
 40
0.05159846843224324
 40
0.05520268245156582
 40
0.05520268245156582
 40
0.05520268245156582
 40
0.05520268245156582
 40
0.05520268245156582
 40
0.05520268245156582
 40
0.05520268245156582
 40
0.06275168969087867
 40
0.06275168969087867
 40
0.06275168969087867
 40
0.06275168969087867
 40
0.06275168969087867
 40
0.06275168969087867
 40
0.06275168969087867
 40
0.07178654126747826
 40
0.07178654126747826
 40
0.07178654126747826
 40
0.07178654126747826
 40
0.07178654126747826
 40
0.07178654126747826
 40
0.07178654126747826
 40
0.07881902368315509
 40
0.07881902368315509
 40
0.07881902368315509
 40
0.07881902368315509
 40
0.07881902368315509
 40
0.07881902368315509
 40
0.07881902368315509
 40
0.09114675995806396
 40
0.09114675995806396
 40
0.09114675995806396
 40
0.09114675995806396
 40
0.09114675995806396
 40
0.09114675995806396
 40
0.09114675995806396
 40
0.10758173843014239
 40
0.10758173843014239
 40
0.10758173843014239
 40
0.10758173843014239
 40
0.10758173843014239
 40
0.10758173843014239
 40
0.10758173843014239
 40
0.108099461910948
 40
0.108099461910948
 40
0.108099461910948
 40
0.108099461910948
 40
0.108099461910948
 40
0.108099461910948
 40
0.108099461910948
 40
0.108099461910948
 40
0.108099461910948
 10
5.662368098510626
 20
-229.06942871504768
 30
743.0
 10
6.093097514129936
 20
-230.09271997626797
 30
743.0
 10
6.532585578911507
 20
-231.1122793188234
 30
743.0
 10
6.981555854688215
 20
-232.12774188461307
 30
743.0
 10
7.440808501514928
 20
-233.1386448656754
 30
743.0
 10
7.911232401894141
 20
-234.1444220330338
 30
743.0
 10
8.39383150035417
 20
-235.14439146510477
 30
743.0
 10
8.889765358379874
 20
-236.13773647566828
 30
743.0
 10
9.846781178493377
 20
-237.9851721417256
 30
743.0
 10
10.304351596080533
 20
-238.84097015333938
 30
743.0
 10
10.77405195084683
 20
-239.69027444152104
 30
743.0
 10
11.256904211096332
 20
-240.53229275489744
 30
743.0
 10
11.754029008551967
 20
-241.36603230600448
 30
743.0
 10
12.266678883082186
 20
-242.19028001497716
 30
743.0
 10
12.796291303650115
 20
-243.0035706163654
 30
743.0
 10
14.177408374781905
 20
-245.02024733961937
 30
743.0
 10
15.05171087712742
 20
-246.2046710958381
 30
743.0
 10
15.97505552394847
 20
-247.35422909020443
 30
743.0
 10
16.95468061817722
 20
-248.46067594045624
 30
743.0
 10
17.997542549488756
 20
-249.51063512980096
 30
743.0
 10
19.110014587203125
 20
-250.48599283729098
 30
743.0
 10
20.29783976954043
 20
-251.36396171074097
 30
743.0
 10
21.79255444593587
 20
-252.25693688769383
 30
743.0
 10
22.022789425946193
 20
-252.38896451692284
 30
743.0
 10
22.254105076711735
 20
-252.5160889063773
 30
743.0
 10
22.48651411662482
 20
-252.6382885720336
 30
743.0
 10
22.720029264077635
 20
-252.75554202986967
 30
743.0
 10
22.954663237462196
 20
-252.867827795864
 30
743.0
 10
23.190428755170373
 20
-252.9751243859961
 30
743.0
 10
23.664255840840667
 20
-253.1796994953435
 30
743.0
 10
23.902286032608167
 20
-253.27698376761438
 30
743.0
 10
24.141507324460534
 20
-253.3691737475128
 30
743.0
 10
24.38191294245282
 20
-253.45640275861126
 30
743.0
 10
24.623482649817674
 20
-253.53860808659942
 30
743.0
 10
24.866211358763863
 20
-253.6155766742743
 30
743.0
 10
25.110084010007405
 20
-253.68713294800375
 30
743.0
 10
25.867931617952653
 20
-253.89141142835206
 30
743.0
 10
26.387509465463935
 20
-254.00589245510733
 30
743.0
 10
26.912607817122996
 20
-254.0946834227792
 30
743.0
 10
27.441899061317724
 20
-254.15601949904655
 30
743.0
 10
27.973831055682744
 20
-254.18839582894907
 30
743.0
 10
28.506616131502977
 20
-254.1907103827325
 30
743.0
 10
29.038217647729052
 20
-254.16243096448733
 30
743.0
 10
30.198397829798132
 20
-254.03359899328726
 30
743.0
 10
30.82588347856199
 20
-253.91987098864567
 30
743.0
 10
31.44469869602626
 20
-253.7629053837906
 30
743.0
 10
32.05169569613697
 20
-253.56445538297785
 30
743.0
 10
32.64451186410194
 20
-253.32726821375374
 30
743.0
 10
33.22143568656177
 20
-253.05469752739594
 30
743.0
 10
33.78129799948563
 20
-252.75038436462228
 30
743.0
 10
34.74533707818634
 20
-252.15929295381554
 30
743.0
 10
35.156731102966894
 20
-251.8834453332176
 30
743.0
 10
35.55748269932233
 20
-251.59200718908463
 30
743.0
 10
35.94765617433899
 20
-251.28646532624063
 30
743.0
 10
36.327432386324574
 20
-250.9682038279955
 30
743.0
 10
36.69708194114633
 20
-250.63846959908622
 30
743.0
 10
37.05694726958405
 20
-250.29834961358873
 30
743.0
 10
38.02182586108915
 20
-249.3359392540026
 30
743.0
 10
38.60707770018987
 20
-248.69433702135885
 30
743.0
 10
39.16558929888579
 20
-248.02876509194147
 30
743.0
 10
39.699440985398645
 20
-247.3431816047711
 30
743.0
 10
40.21053925031665
 20
-246.64080838950755
 30
743.0
 10
40.700679472046254
 20
-245.92418049120374
 30
743.0
 10
41.171570083460594
 20
-245.19516511229386
 30
743.0
 10
42.22917972259184
 20
-243.46820391604183
 30
743.0
 10
42.80181974012242
 20
-242.46223384328113
 30
743.0
 10
43.34645993536218
 20
-241.44051830862705
 30
743.0
 10
43.86591798238333
 20
-240.40573374504382
 30
743.0
 10
44.36253629399619
 20
-239.3599899185333
 30
743.0
 10
44.83834306420338
 20
-238.30491166889755
 30
743.0
 10
45.29511220911207
 20
-237.2416690925259
 30
743.0
 10
45.748283617266246
 20
-236.137294130247
 30
743.0
 10
45.76212048954298
 20
-236.10352426857165
 30
743.0
 10
45.775954695534615
 20
-236.06971134790354
 30
743.0
 10
45.78978622972151
 20
-236.03585534371064
 30
743.0
 10
45.803615086584
 20
-236.00195623146095
 30
743.0
 10
45.817441260602465
 20
-235.96801398662248
 30
743.0
 10
45.83126474625725
 20
-235.93402858466322
 30
743.0
 10
45.845085538028705
 20
-235.90000000105115
 30
743.0
  0
SPLINE
  5
7D
330
17
100
AcDbEntity
  8
0
100
AcDbSpline
 70
0
 71
8
 72
417
 73
408
 74
0
 40
0.0
 40
0.0
 40
0.0
 40
0.0
 40
0.0
 40
0.0
 40
0.0
 40
0.0
 40
0.0
 40
0.002267425260247611
 40
0.002267425260247611
 40
0.002267425260247611
 40
0.002267425260247611
 40
0.002267425260247611
 40
0.002267425260247611
 40
0.002267425260247611
 40
0.00463564952441516
 40
0.00463564952441516
 40
0.00463564952441516
 40
0.00463564952441516
 40
0.00463564952441516
 40
0.00463564952441516
 40
0.00463564952441516
 40
0.0072406962150081446
 40
0.0072406962150081446
 40
0.0072406962150081446
 40
0.0072406962150081446
 40
0.0072406962150081446
 40
0.0072406962150081446
 40
0.0072406962150081446
 40
0.008898453199891191
 40
0.008898453199891191
 40
0.008898453199891191
 40
0.008898453199891191
 40
0.008898453199891191
 40
0.008898453199891191
 40
0.008898453199891191
 40
0.011266677463965894
 40
0.011266677463965894
 40
0.011266677463965894
 40
0.011266677463965894
 40
0.011266677463965894
 40
0.011266677463965894
 40
0.011266677463965894
 40
0.013871724154482828
 40
0.013871724154482828
 40
0.013871724154482828
 40
0.013871724154482828
 40
0.013871724154482828
 40
0.013871724154482828
 40
0.013871724154482828
 40
0.018475461296251643
 40
0.018475461296251643
 40
0.018475461296251643
 40
0.018475461296251643
 40
0.018475461296251643
 40
0.018475461296251643
 40
0.018475461296251643
 40
0.026107121368515257
 40
0.026107121368515257
 40
0.026107121368515257
 40
0.026107121368515257
 40
0.026107121368515257
 40
0.026107121368515257
 40
0.026107121368515257
 40
0.04234592107831508
 40
0.04234592107831508
 40
0.04234592107831508
 40
0.04234592107831508
 40
0.04234592107831508
 40
0.04234592107831508
 40
0.04234592107831508
 40
0.053279735795924536
 40
0.053279735795924536
 40
0.053279735795924536
 40
0.053279735795924536
 40
0.053279735795924536
 40
0.053279735795924536
 40
0.053279735795924536
 40
0.05902462968639639
 40
0.05902462968639639
 40
0.05902462968639639
 40
0.05902462968639639
 40
0.05902462968639639
 40
0.05902462968639639
 40
0.05902462968639639
 40
0.06605598961415815
 40
0.06605598961415815
 40
0.06605598961415815
 40
0.06605598961415815
 40
0.06605598961415815
 40
0.06605598961415815
 40
0.06605598961415815
 40
0.09901921225262271
 40
0.09901921225262271
 40
0.09901921225262271
 40
0.09901921225262271
 40
0.09901921225262271
 40
0.09901921225262271
 40
0.09901921225262271
 40
0.18299167066648103
 40
0.18299167066648103
 40
0.18299167066648103
 40
0.18299167066648103
 40
0.18299167066648103
 40
0.18299167066648103
 40
0.18299167066648103
 40
0.24482003055514626
 40
0.24482003055514626
 40
0.24482003055514626
 40
0.24482003055514626
 40
0.24482003055514626
 40
0.24482003055514626
 40
0.24482003055514626
 40
0.30839363776888984
 40
0.30839363776888984
 40
0.30839363776888984
 40
0.30839363776888984
 40
0.30839363776888984
 40
0.30839363776888984
 40
0.30839363776888984
 40
0.35753327617479347
 40
0.35753327617479347
 40
0.35753327617479347
 40
0.35753327617479347
 40
0.35753327617479347
 40
0.35753327617479347
 40
0.35753327617479347
 40
0.3998794662485279
 40
0.3998794662485279
 40
0.3998794662485279
 40
0.3998794662485279
 40
0.3998794662485279
 40
0.3998794662485279
 40
0.3998794662485279
 40
0.4286902881714084
 40
0.4286902881714084
 40
0.4286902881714084
 40
0.4286902881714084
 40
0.4286902881714084
 40
0.4286902881714084
 40
0.4286902881714084
 40
0.43996571587008987
 40
0.43996571587008987
 40
0.43996571587008987
 40
0.43996571587008987
 40
0.43996571587008987
 40
0.43996571587008987
 40
0.43996571587008987
 40
0.4508627784413256
 40
0.4508627784413256
 40
0.4508627784413256
 40
0.4508627784413256
 40
0.4508627784413256
 40
0.4508627784413256
 40
0.4508627784413256
 40
0.4634703723666748
 40
0.4634703723666748
 40
0.4634703723666748
 40
0.4634703723666748
 40
0.4634703723666748
 40
0.4634703723666748
 40
0.4634703723666748
 40
0.46992362832313805
 40
0.46992362832313805
 40
0.46992362832313805
 40
0.46992362832313805
 40
0.46992362832313805
 40
0.46992362832313805
 40
0.46992362832313805
 40
0.4734743656379207
 40
0.4734743656379207
 40
0.4734743656379207
 40
0.4734743656379207
 40
0.4734743656379207
 40
0.4734743656379207
 40
0.4734743656379207
 40
0.4770251029527034
 40
0.4770251029527034
 40
0.4770251029527034
 40
0.4770251029527034
 40
0.4770251029527034
 40
0.4770251029527034
 40
0.4770251029527034
 40
0.4788004716101113
 40
0.4788004716101113
 40
0.4788004716101113
 40
0.4788004716101113
 40
0.4788004716101113
 40
0.4788004716101113
 40
0.4788004716101113
 40
0.48175941937249894
 40
0.48175941937249894
 40
0.48175941937249894
 40
0.48175941937249894
 40
0.48175941937249894
 40
0.48175941937249894
 40
0.48175941937249894
 40
0.48471836713491967
 40
0.48471836713491967
 40
0.48471836713491967
 40
0.48471836713491967
 40
0.48471836713491967
 40
0.48471836713491967
 40
0.48471836713491967
 40
0.48787749449932943
 40
0.48787749449932943
 40
0.48787749449932943
 40
0.48787749449932943
 40
0.48787749449932943
 40
0.48787749449932943
 40
0.48787749449932943
 40
0.4908852845603928
 40
0.4908852845603928
 40
0.4908852845603928
 40
0.4908852845603928
 40
0.4908852845603928
 40
0.4908852845603928
 40
0.4908852845603928
 40
0.49385833818719055
 40
0.49385833818719055
 40
0.49385833818719055
 40
0.49385833818719055
 40
0.49385833818719055
 40
0.49385833818719055
 40
0.49385833818719055
 40
0.4968313918139977
 40
0.4968313918139977
 40
0.4968313918139977
 40
0.4968313918139977
 40
0.4968313918139977
 40
0.4968313918139977
 40
0.4968313918139977
 40
0.49930893650299984
 40
0.49930893650299984
 40
0.49930893650299984
 40
0.49930893650299984
 40
0.49930893650299984
 40
0.49930893650299984
 40
0.49930893650299984
 40
0.5017864811920022
 40
0.5017864811920022
 40
0.5017864811920022
 40
0.5017864811920022
 40
0.5017864811920022
 40
0.5017864811920022
 40
0.5017864811920022
 40
0.5066027469296572
 40
0.5066027469296572
 40
0.5066027469296572
 40
0.5066027469296572
 40
0.5066027469296572
 40
0.5066027469296572
 40
0.5066027469296572
 40
0.5145867388966818
 40
0.5145867388966818
 40
0.5145867388966818
 40
0.5145867388966818
 40
0.5145867388966818
 40
0.5145867388966818
 40
0.5145867388966818
 40
0.5315752557244077
 40
0.5315752557244077
 40
0.5315752557244077
 40
0.5315752557244077
 40
0.5315752557244077
 40
0.5315752557244077
 40
0.5315752557244077
 40
0.5430138688085241
 40
0.5430138688085241
 40
0.5430138688085241
 40
0.5430138688085241
 40
0.5430138688085241
 40
0.5430138688085241
 40
0.5430138688085241
 40
0.5490239962706839
 40
0.5490239962706839
 40
0.5490239962706839
 40
0.5490239962706839
 40
0.5490239962706839
 40
0.5490239962706839
 40
0.5490239962706839
 40
0.5563799836181634
 40
0.5563799836181634
 40
0.5563799836181634
 40
0.5563799836181634
 40
0.5563799836181634
 40
0.5563799836181634
 40
0.5563799836181634
 40
0.5908636376935785
 40
0.5908636376935785
 40
0.5908636376935785
 40
0.5908636376935785
 40
0.5908636376935785
 40
0.5908636376935785
 40
0.5908636376935785
 40
0.6609394922793
 40
0.6609394922793
 40
0.6609394922793
 40
0.6609394922793
 40
0.6609394922793
 40
0.6609394922793
 40
0.6609394922793
 40
0.743328082423087
 40
0.743328082423087
 40
0.743328082423087
 40
0.743328082423087
 40
0.743328082423087
 40
0.743328082423087
 40
0.743328082423087
 40
0.8097620839102
 40
0.8097620839102
 40
0.8097620839102
 40
0.8097620839102
 40
0.8097620839102
 40
0.8097620839102
 40
0.8097620839102
 40
0.8610958648534122
 40
0.8610958648534122
 40
0.8610958648534122
 40
0.8610958648534122
 40
0.8610958648534122
 40
0.8610958648534122
 40
0.8610958648534122
 40
0.9053238378766618
 40
0.9053238378766618
 40
0.9053238378766618
 40
0.9053238378766618
 40
0.9053238378766618
 40
0.9053238378766618
 40
0.9053238378766618
 40
0.9354113817643541
 40
0.9354113817643541
 40
0.9354113817643541
 40
0.9354113817643541
 40
0.9354113817643541
 40
0.9354113817643541
 40
0.9354113817643541
 40
0.9471861315550112
 40
0.9471861315550112
 40
0.9471861315550112
 40
0.9471861315550112
 40
0.9471861315550112
 40
0.9471861315550112
 40
0.9471861315550112
 40
0.9585657634458484
 40
0.9585657634458484
 40
0.9585657634458484
 40
0.9585657634458484
 40
0.9585657634458484
 40
0.9585657634458484
 40
0.9585657634458484
 40
0.971731682521175
 40
0.971731682521175
 40
0.971731682521175
 40
0.971731682521175
 40
0.971731682521175
 40
0.971731682521175
 40
0.971731682521175
 40
0.9784707292519202
 40
0.9784707292519202
 40
0.9784707292519202
 40
0.9784707292519202
 40
0.9784707292519202
 40
0.9784707292519202
 40
0.9784707292519202
 40
0.9821787208293034
 40
0.9821787208293034
 40
0.9821787208293034
 40
0.9821787208293034
 40
0.9821787208293034
 40
0.9821787208293034
 40
0.9821787208293034
 40
0.9858867124066851
 40
0.9858867124066851
 40
0.9858867124066851
 40
0.9858867124066851
 40
0.9858867124066851
 40
0.9858867124066851
 40
0.9858867124066851
 40
0.9877407081953756
 40
0.9877407081953756
 40
0.9877407081953756
 40
0.9877407081953756
 40
0.9877407081953756
 40
0.9877407081953756
 40
0.9877407081953756
 40
0.9908307011765262
 40
0.9908307011765262
 40
0.9908307011765262
 40
0.9908307011765262
 40
0.9908307011765262
 40
0.9908307011765262
 40
0.9908307011765262
 40
0.9939206941576679
 40
0.9939206941576679
 40
0.9939206941576679
 40
0.9939206941576679
 40
0.9939206941576679
 40
0.9939206941576679
 40
0.9939206941576679
 40
0.9960836892444678
 40
0.9960836892444678
 40
0.9960836892444678
 40
0.9960836892444678
 40
0.9960836892444678
 40
0.9960836892444678
 40
0.9960836892444678
 40
1.0
 40
1.0
 40
1.0
 40
1.0
 40
1.0
 40
1.0
 40
1.0
 40
1.0
 40
1.0
 10
5.662368098510627
 20
229.0694287150475
 30
743.0
 10
5.662226558230255
 20
229.06957033971517
 30
743.0
 10
5.662254621570675
 20
229.06937104430318
 30
743.0
 10
5.662343792865572
 20
229.06914203635418
 30
743.0
 10
5.662420291378667
 20
229.06903694554387
 30
743.0
 10
5.66244505130371
 20
229.0690518236816
 30
743.0
 10
5.662413721764486
 20
229.06902514471003
 30
743.0
 10
5.662356666814816
 20
229.06863780470505
 30
743.0
 10
5.6623204771428135
 20
229.0661339954405
 30
743.0
 10
5.66229304945133
 20
229.0642363902886
 30
743.0
 10
5.662254160996075
 20
229.06154586370576
 30
743.0
 10
5.662201290409019
 20
229.05788797297714
 30
743.0
 10
5.662131916322129
 20
229.05308827538795
 30
743.0
 10
5.662043517367377
 20
229.04697232822326
 30
743.0
 10
5.661933572176733
 20
229.0393656887684
 30
743.0
 10
5.661652145308145
 20
229.01989496240265
 30
743.0
 10
5.661475609433376
 20
229.00768119714076
 30
743.0
 10
5.661266595817016
 20
228.9932204352693
 30
743.0
 10
5.6610217485182135
 20
228.9762804935349
 30
743.0
 10
5.660737711596121
 20
228.956629188684
 30
743.0
 10
5.660411129109891
 20
228.93403433746332
 30
743.0
 10
5.660038645118676
 20
228.90826375661948
 30
743.0
 10
5.659348522767157
 20
228.86051713053214
 30
743.0
 10
5.659060194622538
 20
228.8405689342722
 30
743.0
 10
5.658751054418552
 20
228.81918084026861
 30
743.0
 10
5.65842023732597
 20
228.79629301467085
 30
743.0
 10
5.658066878515561
 20
228.7718456236278
 30
743.0
 10
5.657690113158089
 20
228.74577883328803
 30
743.0
 10
5.657289076424312
 20
228.71803280979998
 30
743.0
 10
5.656254085000249
 20
228.64642616147248
 30
743.0
 10
5.6555939681368645
 20
228.60075548730816
 30
743.0
 10
5.6548800315268055
 20
228.55136125410388
 30
743.0
 10
5.6541097538020395
 20
228.49806901914496
 30
743.0
 10
5.653280613594538
 20
228.44070433971638
 30
743.0
 10
5.652390089536273
 20
228.3790927731036
 30
743.0
 10
5.651435660259214
 20
228.31305987659175
 30
743.0
 10
5.649291862945046
 20
228.16473967142693
 30
743.0
 10
5.648088545324724
 20
228.08148725052632
 30
743.0
 10
5.646801495593497
 20
227.9924417615096
 30
743.0
 10
5.645427357810513
 20
227.89737102112295
 30
743.0
 10
5.64396277603492
 20
227.79604284611244
 30
743.0
 10
5.642404394325869
 20
227.68822505322504
 30
743.0
 10
5.640748856742524
 20
227.57368545920787
 30
743.0
 10
5.635889450360872
 20
227.2374838291643
 30
743.0
 10
5.632783618011141
 20
227.0226045174563
 30
743.0
 10
5.629676163665931
 20
226.80761298677308
 30
743.0
 10
5.6265675532019275
 20
226.59254146917436
 30
743.0
 10
5.623458100088852
 20
226.37741165227507
 30
743.0
 10
5.620348006278848
 20
226.16223750826398
 30
743.0
 10
5.617237343113046
 20
225.9470239729683
 30
743.0
 10
5.608968579042443
 20
225.37494340578672
 30
743.0
 10
5.603809773906667
 20
225.0180276511588
 30
743.0
 10
5.598650059294041
 20
224.66104897372196
 30
743.0
 10
5.593489662305885
 20
224.30402308560346
 30
743.0
 10
5.588328740951242
 20
223.94696091880186
 30
743.0
 10
5.583167402034949
 20
223.58986986271302
 30
743.0
 10
5.578005700168633
 20
223.2327536956364
 30
743.0
 10
5.56185974585348
 20
222.11568388648072
 30
743.0
 10
5.550874474067535
 20
221.35565972080232
 30
743.0
 10
5.539888280482483
 20
220.5955717797715
 30
743.0
 10
5.528901418068612
 20
219.83543756532168
 30
743.0
 10
5.517914058498799
 20
219.0752689547698
 30
743.0
 10
5.506926314068269
 20
218.3150737173456
 30
743.0
 10
5.495938231529053
 20
217.55485508762
 30
743.0
 10
5.4775511599661595
 20
216.282731921607
 30
743.0
 10
5.469917427860642
 20
215.75458651131981
 30
743.0
 10
5.46204426297956
 20
215.20987576709888
 30
743.0
 10
5.4539273083989555
 20
214.64829825193326
 30
743.0
 10
5.445562207194876
 20
214.06955252881193
 30
743.0
 10
5.436944602443366
 20
213.47333716072362
 30
743.0
 10
5.428070137220466
 20
212.85935071065686
 30
743.0
 10
5.414134343331417
 20
211.89519248772243
 30
743.0
 10
5.409334240330873
 20
211.56309143922897
 30
743.0
 10
5.404534097047714
 20
211.23098870118457
 30
743.0
 10
5.399733892052421
 20
210.89888437151154
 30
743.0
 10
5.394933631038831
 20
210.56677854098922
 30
743.0
 10
5.390133346824148
 20
210.23467129325397
 30
743.0
 10
5.385333099348932
 20
209.90256270479938
 30
743.0
 10
5.3746579503279985
 20
209.16397293351076
 30
743.0
 10
5.368691317312171
 20
208.75112882988503
 30
743.0
 10
5.362634427477052
 20
208.33198030869812
 30
743.0
 10
5.356488631670064
 20
207.90658714454895
 30
743.0
 10
5.350255280738633
 20
207.47500911203642
 30
743.0
 10
5.343935725530179
 20
207.0373059857593
 30
743.0
 10
5.337531316892125
 20
206.5935375403162
 30
743.0
 10
5.300627886596154
 20
204.03520982499015
 30
743.0
 10
5.270280662865796
 20
201.92662373422834
 30
743.0
 10
5.240036799121561
 20
199.81801419973112
 30
743.0
 10
5.209914078992685
 20
197.70938626323408
 30
743.0
 10
5.179925577599585
 20
195.6007434122754
 30
743.0
 10
5.150082224199534
 20
193.49208806362583
 30
743.0
 10
5.120392013851501
 20
191.38342143878953
 30
743.0
 10
5.0156373696608805
 20
183.90297489956825
 30
743.0
 10
4.941455153321478
 20
178.53114180913522
 30
743.0
 10
4.868437309688038
 20
173.15926229128323
 30
743.0
 10
4.796661231419304
 20
167.7873438618682
 30
743.0
 10
4.726215051493068
 20
162.41539259455126
 30
743.0
 10
4.657185417571174
 20
157.0434112294582
 30
743.0
 10
4.5896733741524685
 20
151.6714013411212
 30
743.0
 10
4.475289113397476
 20
142.34396657911242
 30
743.0
 10
4.4276688076327
 20
138.38855570038533
 30
743.0
 10
4.380980886115872
 20
134.43313055040417
 30
743.0
 10
4.335276381292112
 20
130.47769150310688
 30
743.0
 10
4.290612410786373
 20
126.52223884187003
 30
743.0
 10
4.247054079635764
 20
122.56677276672839
 30
743.0
 10
4.204676382521863
 20
118.61129340159472
 30
743.0
 10
4.121295397600575
 20
110.58865534671705
 30
743.0
 10
4.080367675115743
 20
106.52149596641976
 30
743.0
 10
4.040687541171396
 20
102.45432468228424
 30
743.0
 10
4.002173674048959
 20
98.38714332605299
 30
743.0
 10
3.9647556854667716
 20
94.31995358440528
 30
743.0
 10
3.9283716292487134
 20
90.25275704949024
 30
743.0
 10
3.892966160883111
 20
86.18555527510185
 30
743.0
 10
3.831840268360207
 20
78.97457660874439
 30
743.0
 10
3.8057460177880227
 20
75.83080126319834
 30
743.0
 10
3.780183545331986
 20
72.68702451716358
 30
743.0
 10
3.7551316371395385
 20
69.54324716698098
 30
743.0
 10
3.7305706212704672
 20
66.3994700968762
 30
743.0
 10
3.7064819792743635
 20
63.255694313166764
 30
743.0
 10
3.6828478645040166
 20
60.11192100582641
 30
743.0
 10
3.6396601713534324
 20
54.259001559349514
 30
743.0
 10
3.6199941778532145
 20
51.54985463867017
 30
743.0
 10
3.6006411256888953
 20
48.84071162965151
 30
743.0
 10
3.581589744605937
 20
46.13157361261821
 30
743.0
 10
3.5628281665920034
 20
43.422442130897394
 30
743.0
 10
3.5443437869937124
 20
40.713319223150876
 30
743.0
 10
3.5261221588407095
 20
38.00420763585535
 30
743.0
 10
3.495911206170561
 20
33.45194010356548
 30
743.0
 10
3.4837915044685377
 20
31.608776714698237
 30
743.0
 10
3.4717777148749307
 20
29.765621969659584
 30
743.0
 10
3.4598628444617656
 20
27.92247724494723
 30
743.0
 10
3.448036802203146
 20
26.079345263589932
 30
743.0
 10
3.4362872801346533
 20
24.23622992439507
 30
743.0
 10
3.424597161525735
 20
22.393136866195317
 30
743.0
 10
3.4083659788854286
 20
19.828774523934186
 30
743.0
 10
3.4039228054989334
 20
19.126225823912137
 30
743.0
 10
3.399600988286256
 20
18.44246829325911
 30
743.0
 10
3.3953908011785607
 20
17.777429075247966
 30
743.0
 10
3.3913046983383275
 20
17.130922416003642
 30
743.0
 10
3.3873298082296275
 20
16.502652762214865
 30
743.0
 10
3.3834691352959054
 20
15.89221214435375
 30
743.0
 10
3.3760921733372817
 20
14.72585452999588
 30
743.0
 10
3.3724666779197743
 20
14.152634251817902
 30
743.0
 10
3.3688412296339116
 20
13.579421425536006
 30
743.0
 10
3.365215834210934
 20
13.006216957305671
 30
743.0
 10
3.3615904990742016
 20
12.433022020820395
 30
743.0
 10
3.357965233619892
 20
11.859838101692223
 30
743.0
 10
3.3543400497202938
 20
11.286667077026628
 30
743.0
 10
3.3465208387624394
 20
10.050386303163766
 30
743.0
 10
3.342326867065107
 20
9.387285306979159
 30
743.0
 10
3.338133049871885
 20
8.724208739145997
 30
743.0
 10
3.3339394085779332
 20
8.061159982421373
 30
743.0
 10
3.329745994431624
 20
7.398147139583685
 30
743.0
 10
3.3255528857488894
 20
6.735182593013555
 30
743.0
 10
3.3213601978930534
 20
6.072284582599956
 30
743.0
 10
3.315022404274753
 20
5.070227924805522
 30
743.0
 10
3.3128768736230074
 20
4.7310020989677355
 30
743.0
 10
3.310731542498335
 20
4.391807820023043
 30
743.0
 10
3.3085864378246854
 20
4.052649344776
 30
743.0
 10
3.306441627173648
 20
3.7135373568924948
 30
743.0
 10
3.304297214310019
 20
3.3744882624784722
 30
743.0
 10
3.3021533525094173
 20
3.0355262955638693
 30
743.0
 10
3.298831161681543
 20
2.5102609369819366
 30
743.0
 10
3.2977141200069937
 20
2.3336475736523896
 30
743.0
 10
3.2966572800720293
 20
2.1665525944161805
 30
743.0
 10
3.295658733464159
 20
2.00867426375474
 30
743.0
 10
3.2947165717708895
 20
1.8597108461493406
 30
743.0
 10
3.293828886579725
 20
1.7193606060810966
 30
743.0
 10
3.29299376947817
 20
1.5873218080309641
 30
743.0
 10
3.2914248546292892
 20
1.3392636249285204
 30
743.0
 10
3.290691056881968
 20
1.2232442398771164
 30
743.0
 10
3.290006010399269
 20
1.1149328258063596
 30
743.0
 10
3.2893678067686976
 20
1.0140276471972212
 30
743.0
 10
3.288774537577759
 20
0.9202269685308168
 30
743.0
 10
3.28822429441396
 20
0.8332290542884035
 30
743.0
 10
3.2877151688648074
 20
0.7527321689513826
 30
743.0
 10
3.2870102943443062
 20
0.6412857810259142
 30
743.0
 10
3.286785138471345
 20
0.6056868083974609
 30
743.0
 10
3.28656954634736
 20
0.5715999421758409
 30
743.0
 10
3.2863632794207884
 20
0.5389874654210547
 30
743.0
 10
3.286166099140069
 20
0.5078116611931998
 30
743.0
 10
3.2859777669536405
 20
0.4780348125524715
 30
743.0
 10
3.285798044309941
 20
0.44961920255916255
 30
743.0
 10
3.285341106569855
 20
0.3773736337972053
 30
743.0
 10
3.285078773235547
 20
0.335896602508821
 30
743.0
 10
3.284838588249103
 20
0.29792140494580266
 30
743.0
 10
3.284619447205143
 20
0.26327342564561446
 30
743.0
 10
3.2844202456982883
 20
0.2317780491458917
 30
743.0
 10
3.284239879323161
 20
0.20326065998444112
 30
743.0
 10
3.284077243674384
 20
0.1775466426992409
 30
743.0
 10
3.2837852250187805
 20
0.13137612095738402
 30
743.0
 10
3.283655842011949
 20
0.1109196165001732
 30
743.0
 10
3.2835419809207083
 20
0.09291725299455526
 30
743.0
 10
3.2834425373396834
 20
0.07719441497827363
 30
743.0
 10
3.283356406863495
 20
0.06357648698906765
 30
743.0
 10
3.283282485086762
 20
0.0518888535646726
 30
743.0
 10
3.283219667604109
 20
0.04195689924281965
 30
743.0
 10
3.2831104591848446
 20
0.0246901609736554
 30
743.0
 10
3.28305999157546
 20
0.016710821942706188
 30
743.0
 10
3.2830188493309422
 20
0.010205898854475697
 30
743.0
 10
3.2829889542856225
 20
0.005479249329340518
 30
743.0
 10
3.2829701631411816
 20
0.002508216738594423
 30
743.0
 10
3.2829603663129805
 20
0.0009592586130468459
 30
743.0
 10
3.2829562704407773
 20
0.0003116679435919422
 30
743.0
 10
3.2829535260350666
 20
-0.00012224489415046946
 30
743.0
 10
3.282955272359836
 20
4.8632400428516576e-05
 30
743.0
 10
3.2829527425177205
 20
0.0001944940415654628
 30
743.0
 10
3.2829542369748324
 20
-6.548148965634937e-05
 30
743.0
 10
3.2829622168869386
 20
-0.001169298910266292
 30
743.0
 10
3.282976462210066
 20
-0.0035327444620918413
 30
743.0
 10
3.283001084858088
 20
-0.007397191382228385
 30
743.0
 10
3.2830677142553717
 20
-0.01793184037421725
 30
743.0
 10
3.2831112449866415
 20
-0.02481440262144475
 30
743.0
 10
3.283167093653101
 20
-0.03364453049009139
 30
743.0
 10
3.2832371686672444
 20
-0.044723959499020395
 30
743.0
 10
3.283323378441566
 20
-0.0583544251670572
 30
743.0
 10
3.283427631388559
 20
-0.0748376630129895
 30
743.0
 10
3.283551835920717
 20
-0.09447540855556724
 30
743.0
 10
3.283843964980353
 20
-0.14066338607150894
 30
743.0
 10
3.2840118895078296
 20
-0.16721361804498866
 30
743.0
 10
3.284203582445461
 20
-0.19752182875276345
 30
743.0
 10
3.2844209522057413
 20
-0.23188975371365197
 30
743.0
 10
3.284665907201162
 20
-0.2706191284464694
 30
743.0
 10
3.28494035584422
 20
-0.31401168847002786
 30
743.0
 10
3.2852462065474093
 20
-0.3623691693031362
 30
743.0
 10
3.2858680020364006
 20
-0.460680087432408
 30
743.0
 10
3.2861737686222323
 20
-0.5090242686283335
 30
743.0
 10
3.286503771886101
 20
-0.5612004655145861
 30
743.0
 10
3.286859116233382
 20
-0.6173832935533992
 30
743.0
 10
3.2872409060694543
 20
-0.6777473682070284
 30
743.0
 10
3.287650245799697
 20
-0.7424673049377535
 30
743.0
 10
3.2880882398294875
 20
-0.811717719207877
 30
743.0
 10
3.2890237452989237
 20
-0.959628733751572
 30
743.0
 10
3.2895212567385688
 20
-1.0382893340250945
 30
743.0
 10
3.2900496312885186
 20
-1.1218296427625731
 30
743.0
 10
3.290609973354154
 20
-1.2104242754262857
 30
743.0
 10
3.2912033873408526
 20
-1.304247847478505
 30
743.0
 10
3.291830977653991
 20
-1.4034749743815018
 30
743.0
 10
3.2924938486989492
 20
-1.508280271597542
 30
743.0
 10
3.294552435999095
 20
-1.8337596472282236
 30
743.0
 10
3.295912849433359
 20
-2.0488520628706866
 30
743.0
 10
3.297273972053417
 20
-2.264056606523315
 30
743.0
 10
3.2986356001626573
 20
-2.4793410721495377
 30
743.0
 10
3.2999975967013544
 20
-2.6946837894673905
 30
743.0
 10
3.3013598733690888
 20
-2.9100707974350897
 30
743.0
 10
3.3027223989753476
 20
-3.1254971646267897
 30
743.0
 10
3.306344268997798
 20
-3.698144238394157
 30
743.0
 10
3.308603921323666
 20
-4.055413627997822
 30
743.0
 10
3.310863971298828
 20
-4.412745889180279
 30
743.0
 10
3.313124319626654
 20
-4.770125322349344
 30
743.0
 10
3.3153848972217044
 20
-5.127541004528624
 30
743.0
 10
3.317645657386369
 20
-5.484985552440264
 30
743.0
 10
3.319906576241616
 20
-5.8424551906279625
 30
743.0
 10
3.3269788008183983
 20
-6.960631349302144
 30
743.0
 10
3.331790552221507
 20
-7.721408335679925
 30
743.0
 10
3.3366027066601456
 20
-8.482249045206387
 30
743.0
 10
3.3414151535280165
 20
-9.24313599021724
 30
743.0
 10
3.3462278177656275
 20
-10.004057303151608
 30
743.0
 10
3.3510406502748125
 20
-10.765005221142566
 30
743.0
 10
3.3558536306133817
 20
-11.525976512198149
 30
743.0
 10
3.3639075034012103
 20
-12.79935922771739
 30
743.0
 10
3.367251217883021
 20
-13.328027650839834
 30
743.0
 10
3.3706998083059863
 20
-13.873277812246073
 30
743.0
 10
3.3742551830826
 20
-14.435411447454946
 30
743.0
 10
3.3779192506253555
 20
-15.014730291985275
 30
743.0
 10
3.381693919346747
 20
-15.61153608135587
 30
743.0
 10
3.385581097659268
 20
-16.226130551085532
 30
743.0
 10
3.391685230684653
 20
-17.191243570936262
 30
743.0
 10
3.3937878129061754
 20
-17.52367349761323
 30
743.0
 10
3.3958903899606545
 20
-17.8561051127864
 30
743.0
 10
3.397992938409994
 20
-18.188538319088753
 30
743.0
 10
3.4000954620573216
 20
-18.52097302572386
 30
743.0
 10
3.402197991946991
 20
-18.853409148465815
 30
743.0
 10
3.4043005863645814
 20
-19.18584660965928
 30
743.0
 10
3.408976947092251
 20
-19.925167737386207
 30
743.0
 10
3.4115912337832976
 20
-20.338420538669975
 30
743.0
 10
3.414246298117186
 20
-20.757983789714913
 30
743.0
 10
3.4169422473010607
 20
-21.183797538165138
 30
743.0
 10
3.419679188542065
 20
-21.615801831664704
 30
743.0
 10
3.4224572290473434
 20
-22.053936717857642
 30
743.0
 10
3.42527647602404
 20
-22.498142244387953
 30
743.0
 10
3.441546872699683
 20
-25.05889773350586
 30
743.0
 10
3.4550255940479753
 20
-27.169467913634016
 30
743.0
 10
3.4686080385164626
 20
-29.280059360424275
 30
743.0
 10
3.4823118691179116
 20
-31.390666669254756
 30
743.0
 10
3.4961500805611387
 20
-33.50128608577675
 30
743.0
 10
3.510133548032685
 20
-35.61191496949118
 30
743.0
 10
3.5242702424123347
 20
-37.7225519342778
 30
743.0
 10
3.567622345023019
 20
-44.12233592651467
 30
743.0
 10
3.5973408922997288
 20
-48.41150262817946
 30
743.0
 10
3.6277846967672964
 20
-52.70068598570698
 30
743.0
 10
3.658998009801366
 20
-56.98988005567189
 30
743.0
 10
3.691023714326649
 20
-61.279080525496575
 30
743.0
 10
3.7239067141673825
 20
-65.56828411463734
 30
743.0
 10
3.7576934865198535
 20
-69.85748872019924
 30
743.0
 10
3.833283563597769
 20
-79.18953502540543
 30
743.0
 10
3.8754523366785194
 20
-84.23237547935229
 30
743.0
 10
3.919026729667024
 20
-89.27521087489855
 30
743.0
 10
3.964101018040949
 20
-94.3180382004394
 30
743.0
 10
4.010782055425991
 20
-99.36085450071859
 30
743.0
 10
4.059193911177309
 20
-104.40365668836392
 30
743.0
 10
4.109484702826269
 20
-109.44644139586738
 30
743.0
 10
4.20404876393385
 20
-118.55543485717224
 30
743.0
 10
4.247604279749184
 20
-122.62165085557528
 30
743.0
 10
4.292407161389369
 20
-126.68785282135457
 30
743.0
 10
4.338376368356496
 20
-130.75404061039532
 30
743.0
 10
4.3854417211577665
 20
-134.82021399645143
 30
743.0
 10
4.433541433657758
 20
-138.8863726721512
 30
743.0
 10
4.482620285728992
 20
-142.9525162308895
 30
743.0
 10
4.571269905692864
 20
-150.1605551114445
 30
743.0
 10
4.610466223362637
 20
-153.3024566711147
 30
743.0
 10
4.6501944037554
 20
-156.44434857118938
 30
743.0
 10
4.690433283557606
 20
-159.5862304549121
 30
743.0
 10
4.7311632291448
 20
-162.72810184542868
 30
743.0
 10
4.7723657493391505
 20
-165.86996211958143
 30
743.0
 10
4.814023013376604
 20
-169.01181045626657
 30
743.0
 10
4.892384694733002
 20
-174.86057683817435
 30
743.0
 10
4.928976503293084
 20
-177.56749800920417
 30
743.0
 10
4.96588129111418
 20
-180.27440875472928
 30
743.0
 10
5.003087789485304
 20
-182.98130822734797
 30
743.0
 10
5.04058411787019
 20
-185.68819512850328
 30
743.0
 10
5.0783576448251395
 20
-188.39506767909378
 30
743.0
 10
5.116393876723292
 20
-191.10192342976458
 30
743.0
 10
5.180713287915697
 20
-195.65017299817652
 30
743.0
 10
5.2068661167396035
 20
-197.49157698379997
 30
743.0
 10
5.233124740686555
 20
-199.33297011424725
 30
743.0
 10
5.259482139007426
 20
-201.17435115787868
 30
743.0
 10
5.285928161618385
 20
-203.01571759902308
 30
743.0
 10
5.312450414152391
 20
-204.8570657913959
 30
743.0
 10
5.339031651849937
 20
-206.6983904485269
 30
743.0
 10
5.376048523840974
 20
-209.26027094642296
 30
743.0
 10
5.3861933062952
 20
-209.96212469559816
 30
743.0
 10
5.396069257561403
 20
-210.64520560442298
 30
743.0
 10
5.405668160938685
 20
-211.3095868547207
 30
743.0
 10
5.4150063386397775
 20
-211.95545384204297
 30
743.0
 10
5.424077048516134
 20
-212.58310205789934
 30
743.0
 10
5.432891768734142
 20
-213.1929388584781
 30
743.0
 10
5.449733442903787
 20
-214.35814256111016
 30
743.0
 10
5.458010484204924
 20
-214.93079579461755
 30
743.0
 10
5.466287417709259
 20
-215.50344157012336
 30
743.0
 10
5.474564230308477
 20
-216.07607898071916
 30
743.0
 10
5.4828409050241955
 20
-216.6487068517429
 30
743.0
 10
5.491117420366114
 20
-217.2213236963722
 30
743.0
 10
5.499393749180769
 20
-217.79392763597446
 30
743.0
 10
5.5172450846196455
 20
-219.02898550140904
 30
743.0
 10
5.526819964625442
 20
-219.69143066705195
 30
743.0
 10
5.536394491258543
 20
-220.35385138434313
 30
743.0
 10
5.545968615583618
 20
-221.01624426765562
 30
743.0
 10
5.555542220389097
 20
-221.67860120761972
 30
743.0
 10
5.56511512655618
 20
-222.3409098117692
 30
743.0
 10
5.5746870702318265
 20
-223.00315182523556
 30
743.0
 10
5.589156312418866
 20
-224.00421706380953
 30
743.0
 10
5.594054582709352
 20
-224.34310752217348
 30
743.0
 10
5.5989523966552674
 20
-224.6819664080005
 30
743.0
 10
5.6038496926731876
 20
-225.02078946059515
 30
743.0
 10
5.608746316219231
 20
-225.35956598772498
 30
743.0
 10
5.6136420299719925
 20
-225.69827957013288
 30
743.0
 10
5.618536483368671
 20
-226.0369059538714
 30
743.0
 10
5.626121069806562
 20
-226.56165118474013
 30
743.0
 10
5.628671286621003
 20
-226.7380898240801
 30
743.0
 10
5.63108406228884
 20
-226.905019495885
 30
743.0
 10
5.633363753734027
 20
-227.06274163716608
 30
743.0
 10
5.635514717880526
 20
-227.21155768493443
 30
743.0
 10
5.637541311652288
 20
-227.3517690762013
 30
743.0
 10
5.63944789197327
 20
-227.48367724797788
 30
743.0
 10
5.6430297395615865
 20
-227.73149002657277
 30
743.0
 10
5.644705006828921
 20
-227.84739463339125
 30
743.0
 10
5.6462689744933865
 20
-227.9555988947417
 30
743.0
 10
5.64772599947894
 20
-228.05640424763544
 30
743.0
 10
5.649080438709535
 20
-228.15011212908374
 30
743.0
 10
5.650336649109129
 20
-228.23702397609776
 30
743.0
 10
5.651498987601677
 20
-228.31744122568867
 30
743.0
 10
5.653108222865862
 20
-228.42877735945714
 30
743.0
 10
5.65362225587482
 20
-228.4643411139437
 30
743.0
 10
5.654114454753498
 20
-228.4983942579537
 30
743.0
 10
5.654585364117391
 20
-228.53097447111347
 30
743.0
 10
5.655035528581998
 20
-228.5621194330494
 30
743.0
 10
5.6554654927628105
 20
-228.59186682338796
 30
743.0
 10
5.655875801275321
 20
-228.62025432175557
 30
743.0
 10
5.656918994501198
 20
-228.6924284178172
 30
743.0
 10
5.65751790400958
 20
-228.7338644157874
 30
743.0
 10
5.6580662486282005
 20
-228.7718020444041
 30
743.0
 10
5.658566549725084
 20
-228.8064157463822
 30
743.0
 10
5.659021328668263
 20
-228.8378799644364
 30
743.0
 10
5.65943310682577
 20
-228.8663691412816
 30
743.0
 10
5.65980440556563
 20
-228.89205771963265
 30
743.0
 10
5.660471086946125
 20
-228.93818256477599
 30
743.0
 10
5.66076646958676
 20
-228.95861883156832
 30
743.0
 10
5.661026415545811
 20
-228.97660338529604
 30
743.0
 10
5.661253446191306
 20
-228.992310668674
 30
743.0
 10
5.661450082891277
 20
-229.005915124417
 30
743.0
 10
5.661618847013753
 20
-229.0175911952399
 30
743.0
 10
5.661762259926766
 20
-229.02751332385748
 30
743.0
 10
5.661967251148445
 20
-229.04169579337358
 30
743.0
 10
5.662040472676246
 20
-229.0467616790122
 30
743.0
 10
5.662103372410981
 20
-229.05111344375163
 30
743.0
 10
5.662156815181877
 20
-229.05481092144305
 30
743.0
 10
5.662201665818174
 20
-229.05791394593777
 30
743.0
 10
5.662238789149106
 20
-229.06048235108685
 30
743.0
 10
5.662269050003908
 20
-229.06257597074145
 30
743.0
 10
5.662337244084634
 20
-229.06729402873017
 30
743.0
 10
5.662476908149753
 20
-229.0683129850686
 30
743.0
 10
5.662553908703522
 20
-229.06844812970226
 30
743.0
 10
5.662494320818527
 20
-229.06846151699466
 30
743.0
 10
5.662308691343587
 20
-229.06874063373857
 30
743.0
 10
5.662092038903739
 20
-229.06929839915605
 30
743.0
 10
5.662023853900253
 20
-229.06977316489872
 30
743.0
 10
5.662368098510627
 20
-229.0694287150475
 30
743.0
  0
ENDSEC
  0
SECTION
  2
OBJECTS
  0
DICTIONARY
  5
A
330
0
100
AcDbDictionary
281
1
  3
ACAD_COLOR
350
B
  3
ACAD_GROUP
350
C
  3
ACAD_LAYOUT
350
D
  3
ACAD_MATERIAL
350
E
  3
ACAD_MLEADERSTYLE
350
F
  3
ACAD_MLINESTYLE
350
10
  3
ACAD_PLOTSETTINGS
350
11
  3
ACAD_PLOTSTYLENAME
350
12
  3
ACAD_SCALELIST
350
14
  3
ACAD_TABLESTYLE
350
15
  3
ACAD_VISUALSTYLE
350
16
  3
EZDXF_META
350
2D
  0
DICTIONARY
  5
B
330
A
100
AcDbDictionary
281
1
  0
DICTIONARY
  5
C
330
A
100
AcDbDictionary
281
1
  0
DICTIONARY
  5
D
330
A
100
AcDbDictionary
281
1
  3
Model
350
1A
  3
Layout1
350
1E
  0
DICTIONARY
  5
E
330
A
100
AcDbDictionary
281
1
  3
ByBlock
350
1F
  3
ByLayer
350
20
  3
Global
350
21
  0
DICTIONARY
  5
F
330
A
100
AcDbDictionary
281
1
  3
Standard
350
2C
  0
DICTIONARY
  5
10
330
A
100
AcDbDictionary
281
1
  3
Standard
350
22
  0
DICTIONARY
  5
11
330
A
100
AcDbDictionary
281
1
  0
ACDBDICTIONARYWDFLT
  5
12
330
A
100
AcDbDictionary
281
1
  3
Normal
350
13
100
AcDbDictionaryWithDefault
340
13
  0
ACDBPLACEHOLDER
  5
13
330
12
  0
DICTIONARY
  5
14
330
A
100
AcDbDictionary
281
1
  0
DICTIONARY
  5
15
330
A
100
AcDbDictionary
281
1
  0
DICTIONARY
  5
16
330
A
100
AcDbDictionary
281
1
  0
LAYOUT
  5
1A
330
D
100
AcDbPlotSettings
  1

  2
Adobe PDF
  4
A3
  6

 40
7.5
 41
20.0
 42
7.5
 43
20.0
 44
420.0
 45
297.0
 46
0.0
 47
0.0
 48
0.0
 49
0.0
140
0.0
141
0.0
142
1.0
143
1.0
 70
1024
 72
1
 73
1
 74
5
  7

 75
16
 76
0
 77
2
 78
300
147
1.0
148
0.0
149
0.0
100
AcDbLayout
  1
Model
 70
1
 71
0
 10
0.0
 20
0.0
 11
420.0
 21
297.0
 12
0.0
 22
0.0
 32
0.0
 14
1e+20
 24
1e+20
 34
1e+20
 15
-1e+20
 25
-1e+20
 35
-1e+20
146
0.0
 13
0.0
 23
0.0
 33
0.0
 16
1.0
 26
0.0
 36
0.0
 17
0.0
 27
1.0
 37
0.0
 76
1
330
17
  0
LAYOUT
  5
1E
330
D
100
AcDbPlotSettings
  1

  2
Adobe PDF
  4
A3
  6

 40
7.5
 41
20.0
 42
7.5
 43
20.0
 44
420.0
 45
297.0
 46
0.0
 47
0.0
 48
0.0
 49
0.0
140
0.0
141
0.0
142
1.0
143
1.0
 70
0
 72
1
 73
1
 74
5
  7

 75
16
 76
0
 77
2
 78
300
147
1.0
148
0.0
149
0.0
100
AcDbLayout
  1
Layout1
 70
1
 71
1
 10
0.0
 20
0.0
 11
420.0
 21
297.0
 12
0.0
 22
0.0
 32
0.0
 14
1e+20
 24
1e+20
 34
1e+20
 15
-1e+20
 25
-1e+20
 35
-1e+20
146
0.0
 13
0.0
 23
0.0
 33
0.0
 16
1.0
 26
0.0
 36
0.0
 17
0.0
 27
1.0
 37
0.0
 76
1
330
1B
  0
MATERIAL
  5
1F
102
{ACAD_REACTORS
330
E
102
}
330
E
100
AcDbMaterial
  1
ByBlock
  2

 70
0
 40
1.0
 71
1
 41
1.0
 91
-1023410177
 42
1.0
 72
1
  3

 73
1
 74
1
 75
1
 44
0.5
 73
0
 45
1.0
 46
1.0
 77
1
  4

 78
1
 79
1
170
1
 48
1.0
171
1
  6

172
1
173
1
174
1
140
1.0
141
1.0
175
1
  7

176
1
177
1
178
1
143
1.0
179
1
  8

270
1
271
1
272
1
145
1.0
146
1.0
273
1
  9

274
1
275
1
276
1
 42
1.0
 72
1
  3

 73
1
 74
1
 75
1
 94
63
  0
MATERIAL
  5
20
102
{ACAD_REACTORS
330
E
102
}
330
E
100
AcDbMaterial
  1
ByLayer
  2

 70
0
 40
1.0
 71
1
 41
1.0
 91
-1023410177
 42
1.0
 72
1
  3

 73
1
 74
1
 75
1
 44
0.5
 73
0
 45
1.0
 46
1.0
 77
1
  4

 78
1
 79
1
170
1
 48
1.0
171
1
  6

172
1
173
1
174
1
140
1.0
141
1.0
175
1
  7

176
1
177
1
178
1
143
1.0
179
1
  8

270
1
271
1
272
1
145
1.0
146
1.0
273
1
  9

274
1
275
1
276
1
 42
1.0
 72
1
  3

 73
1
 74
1
 75
1
 94
63
  0
MATERIAL
  5
21
102
{ACAD_REACTORS
330
E
102
}
330
E
100
AcDbMaterial
  1
Global
  2

 70
0
 40
1.0
 71
1
 41
1.0
 91
-1023410177
 42
1.0
 72
1
  3

 73
1
 74
1
 75
1
 44
0.5
 73
0
 45
1.0
 46
1.0
 77
1
  4

 78
1
 79
1
170
1
 48
1.0
171
1
  6

172
1
173
1
174
1
140
1.0
141
1.0
175
1
  7

176
1
177
1
178
1
143
1.0
179
1
  8

270
1
271
1
272
1
145
1.0
146
1.0
273
1
  9

274
1
275
1
276
1
 42
1.0
 72
1
  3

 73
1
 74
1
 75
1
 94
63
  0
MLINESTYLE
  5
22
102
{ACAD_REACTORS
330
10
102
}
330
10
100
AcDbMlineStyle
  2
Standard
 70
0
  3

 62
256
 51
90.0
 52
90.0
 71
2
 49
0.5
 62
256
  6
BYLAYER
 49
-0.5
 62
256
  6
BYLAYER
  0
MLEADERSTYLE
  5
2C
102
{ACAD_REACTORS
330
F
102
}
330
F
100
AcDbMLeaderStyle
179
2
170
2
171
1
172
0
 90
2
 40
0.0
 41
0.0
173
1
 91
-1056964608
 92
-2
290
1
 42
2.0
291
1
 43
8.0
  3
Standard
 44
4.0
300

342
29
174
1
175
1
176
0
178
1
 93
-1056964608
 45
4.0
292
0
297
0
 46
4.0
 94
-1056964608
 47
1.0
 49
1.0
140
1.0
294
1
141
0.0
177
0
142
1.0
295
0
296
0
143
3.75
271
0
272
9
273
9
  0
DICTIONARY
  5
2D
330
A
100
AcDbDictionary
280
1
281
1
  3
CREATED_BY_EZDXF
350
2E
  3
WRITTEN_BY_EZDXF
350
80
  0
DICTIONARYVAR
  5
2E
330
2D
100
DictionaryVariables
280
0
  1
0.17 @ 2022-02-15T16:29:24.042102+00:00
  0
DICTIONARYVAR
  5
80
330
2D
100
DictionaryVariables
280
0
  1
0.17 @ 2022-02-15T16:29:24.139853+00:00
  0
ENDSEC
  0
EOF
