  0
SECTION
  2
HEADER
  9
$ACADVER
  1
AC1027
  9
$ACADMAINTVER
 70
105
  9
$DWGCODEPAGE
  3
ANSI_1252
  9
$LASTSAVEDBY
  1
ezdxf
  9
$REQUIREDVERSIONS
160
0
  9
$INSBASE
 10
0.0
 20
0.0
 30
0.0
  9
$EXTMIN
 10
1e+20
 20
1e+20
 30
1e+20
  9
$EXTMAX
 10
-1e+20
 20
-1e+20
 30
-1e+20
  9
$LIMMIN
 10
0.0
 20
0.0
  9
$LIMMAX
 10
420.0
 20
297.0
  9
$ORTHOMODE
 70
0
  9
$REGENMODE
 70
1
  9
$FILLMODE
 70
1
  9
$QTEXTMODE
 70
0
  9
$MIRRTEXT
 70
1
  9
$LTSCALE
 40
1.0
  9
$ATTMODE
 70
1
  9
$TEXTSIZE
 40
2.5
  9
$TRACEWID
 40
1.0
  9
$TEXTSTYLE
  7
Standard
  9
$CLAYER
  8
0
  9
$CELTYPE
  6
ByLayer
  9
$CECOLOR
 62
256
  9
$CELTSCALE
 40
1.0
  9
$DISPSILH
 70
0
  9
$DIMSCALE
 40
1.0
  9
$DIMASZ
 40
2.5
  9
$DIMEXO
 40
0.625
  9
$DIMDLI
 40
3.75
  9
$DIMRND
 40
0.0
  9
$DIMDLE
 40
0.0
  9
$DIMEXE
 40
1.25
  9
$DIMTP
 40
0.0
  9
$DIMTM
 40
0.0
  9
$DIMTXT
 40
2.5
  9
$DIMCEN
 40
2.5
  9
$DIMTSZ
 40
0.0
  9
$DIMTOL
 70
0
  9
$DIMLIM
 70
0
  9
$DIMTIH
 70
0
  9
$DIMTOH
 70
0
  9
$DIMSE1
 70
0
  9
$DIMSE2
 70
0
  9
$DIMTAD
 70
1
  9
$DIMZIN
 70
8
  9
$DIMBLK
  1

  9
$DIMASO
 70
1
  9
$DIMSHO
 70
1
  9
$DIMPOST
  1

  9
$DIMAPOST
  1

  9
$DIMALT
 70
0
  9
$DIMALTD
 70
3
  9
$DIMALTF
 40
0.03937007874
  9
$DIMLFAC
 40
1.0
  9
$DIMTOFL
 70
1
  9
$DIMTVP
 40
0.0
  9
$DIMTIX
 70
0
  9
$DIMSOXD
 70
0
  9
$DIMSAH
 70
0
  9
$DIMBLK1
  1

  9
$DIMBLK2
  1

  9
$DIMSTYLE
  2
ISO-25
  9
$DIMCLRD
 70
0
  9
$DIMCLRE
 70
0
  9
$DIMCLRT
 70
0
  9
$DIMTFAC
 40
1.0
  9
$DIMGAP
 40
0.625
  9
$DIMJUST
 70
0
  9
$DIMSD1
 70
0
  9
$DIMSD2
 70
0
  9
$DIMTOLJ
 70
0
  9
$DIMTZIN
 70
8
  9
$DIMALTZ
 70
0
  9
$DIMALTTZ
 70
0
  9
$DIMUPT
 70
0
  9
$DIMDEC
 70
2
  9
$DIMTDEC
 70
2
  9
$DIMALTU
 70
2
  9
$DIMALTTD
 70
3
  9
$DIMTXSTY
  7
Standard
  9
$DIMAUNIT
 70
0
  9
$DIMADEC
 70
0
  9
$DIMALTRND
 40
0.0
  9
$DIMAZIN
 70
0
  9
$DIMDSEP
 70
44
  9
$DIMATFIT
 70
3
  9
$DIMFRAC
 70
0
  9
$DIMLDRBLK
  1

  9
$DIMLUNIT
 70
2
  9
$DIMLWD
 70
-2
  9
$DIMLWE
 70
-2
  9
$DIMTMOVE
 70
0
  9
$DIMFXL
 40
1.0
  9
$DIMFXLON
 70
0
  9
$DIMJOGANG
 40
0.785398163397
  9
$DIMTFILL
 70
0
  9
$DIMTFILLCLR
 70
0
  9
$DIMARCSYM
 70
0
  9
$DIMLTYPE
  6

  9
$DIMLTEX1
  6

  9
$DIMLTEX2
  6

  9
$DIMTXTDIRECTION
 70
0
  9
$LUNITS
 70
2
  9
$LUPREC
 70
4
  9
$SKETCHINC
 40
1.0
  9
$FILLETRAD
 40
10.0
  9
$AUNITS
 70
0
  9
$AUPREC
 70
2
  9
$MENU
  1
.
  9
$ELEVATION
 40
0.0
  9
$PELEVATION
 40
0.0
  9
$THICKNESS
 40
0.0
  9
$LIMCHECK
 70
0
  9
$CHAMFERA
 40
0.0
  9
$CHAMFERB
 40
0.0
  9
$CHAMFERC
 40
0.0
  9
$CHAMFERD
 40
0.0
  9
$SKPOLY
 70
0
  9
$TDCREATE
 40
2459626.7287615743
  9
$TDUCREATE
 40
2458532.153996898
  9
$TDUPDATE
 40
2459626.7287615743
  9
$TDUUPDATE
 40
2458532.1544311
  9
$TDINDWG
 40
0.0
  9
$TDUSRTIMER
 40
0.0
  9
$USRTIMER
 70
1
  9
$ANGBASE
 50
0.0
  9
$ANGDIR
 70
0
  9
$PDMODE
 70
0
  9
$PDSIZE
 40
0.0
  9
$PLINEWID
 40
0.0
  9
$SPLFRAME
 70
0
  9
$SPLINETYPE
 70
6
  9
$SPLINESEGS
 70
8
  9
$HANDSEED
  5
81
  9
$SURFTAB1
 70
6
  9
$SURFTAB2
 70
6
  9
$SURFTYPE
 70
6
  9
$SURFU
 70
6
  9
$SURFV
 70
6
  9
$UCSBASE
  2

  9
$UCSNAME
  2

  9
$UCSORG
 10
0.0
 20
0.0
 30
0.0
  9
$UCSXDIR
 10
1.0
 20
0.0
 30
0.0
  9
$UCSYDIR
 10
0.0
 20
1.0
 30
0.0
  9
$UCSORTHOREF
  2

  9
$UCSORTHOVIEW
 70
0
  9
$UCSORGTOP
 10
0.0
 20
0.0
 30
0.0
  9
$UCSORGBOTTOM
 10
0.0
 20
0.0
 30
0.0
  9
$UCSORGLEFT
 10
0.0
 20
0.0
 30
0.0
  9
$UCSORGRIGHT
 10
0.0
 20
0.0
 30
0.0
  9
$UCSORGFRONT
 10
0.0
 20
0.0
 30
0.0
  9
$UCSORGBACK
 10
0.0
 20
0.0
 30
0.0
  9
$PUCSBASE
  2

  9
$PUCSNAME
  2

  9
$PUCSORG
 10
0.0
 20
0.0
 30
0.0
  9
$PUCSXDIR
 10
1.0
 20
0.0
 30
0.0
  9
$PUCSYDIR
 10
0.0
 20
1.0
 30
0.0
  9
$PUCSORTHOREF
  2

  9
$PUCSORTHOVIEW
 70
0
  9
$PUCSORGTOP
 10
0.0
 20
0.0
 30
0.0
  9
$PUCSORGBOTTOM
 10
0.0
 20
0.0
 30
0.0
  9
$PUCSORGLEFT
 10
0.0
 20
0.0
 30
0.0
  9
$PUCSORGRIGHT
 10
0.0
 20
0.0
 30
0.0
  9
$PUCSORGFRONT
 10
0.0
 20
0.0
 30
0.0
  9
$PUCSORGBACK
 10
0.0
 20
0.0
 30
0.0
  9
$USERI1
 70
0
  9
$USERI2
 70
0
  9
$USERI3
 70
0
  9
$USERI4
 70
0
  9
$USERI5
 70
0
  9
$USERR1
 40
0.0
  9
$USERR2
 40
0.0
  9
$USERR3
 40
0.0
  9
$USERR4
 40
0.0
  9
$USERR5
 40
0.0
  9
$WORLDVIEW
 70
1
  9
$SHADEDGE
 70
3
  9
$SHADEDIF
 70
70
  9
$TILEMODE
 70
1
  9
$MAXACTVP
 70
64
  9
$PINSBASE
 10
0.0
 20
0.0
 30
0.0
  9
$PLIMCHECK
 70
0
  9
$PEXTMIN
 10
1e+20
 20
1e+20
 30
1e+20
  9
$PEXTMAX
 10
-1e+20
 20
-1e+20
 30
-1e+20
  9
$PLIMMIN
 10
0.0
 20
0.0
  9
$PLIMMAX
 10
420.0
 20
297.0
  9
$UNITMODE
 70
0
  9
$VISRETAIN
 70
1
  9
$PLINEGEN
 70
0
  9
$PSLTSCALE
 70
1
  9
$TREEDEPTH
 70
3020
  9
$CMLSTYLE
  2
Standard
  9
$CMLJUST
 70
0
  9
$CMLSCALE
 40
20.0
  9
$PROXYGRAPHICS
 70
1
  9
$MEASUREMENT
 70
1
  9
$CELWEIGHT
370
-1
  9
$ENDCAPS
280
0
  9
$JOINSTYLE
280
0
  9
$LWDISPLAY
290
0
  9
$INSUNITS
 70
6
  9
$HYPERLINKBASE
  1

  9
$STYLESHEET
  1

  9
$XEDIT
290
1
  9
$CEPSNTYPE
380
0
  9
$PSTYLEMODE
290
1
  9
$FINGERPRINTGUID
  2
{508501F3-A502-4D1D-996D-8A521E9D1479}
  9
$VERSIONGUID
  2
{AADA4C2A-ADF0-4D39-92DF-F6F32338733C}
  9
$EXTNAMES
290
1
  9
$PSVPSCALE
 40
0.0
  9
$OLESTARTUP
290
0
  9
$SORTENTS
280
127
  9
$INDEXCTL
280
0
  9
$HIDETEXT
280
1
  9
$XCLIPFRAME
280
0
  9
$HALOGAP
280
0
  9
$OBSCOLOR
 70
257
  9
$OBSLTYPE
280
0
  9
$INTERSECTIONDISPLAY
280
0
  9
$INTERSECTIONCOLOR
 70
257
  9
$DIMASSOC
280
2
  9
$PROJECTNAME
  1

  9
$CAMERADISPLAY
290
0
  9
$LENSLENGTH
 40
50.0
  9
$CAMERAHEIGHT
 40
0.0
  9
$STEPSPERSEC
 40
24.0
  9
$STEPSIZE
 40
100.0
  9
$3DDWFPREC
 40
2.0
  9
$PSOLWIDTH
 40
0.005
  9
$PSOLHEIGHT
 40
0.08
  9
$LOFTANG1
 40
1.570796326795
  9
$LOFTANG2
 40
1.570796326795
  9
$LOFTMAG1
 40
0.0
  9
$LOFTMAG2
 40
0.0
  9
$LOFTPARAM
 70
7
  9
$LOFTNORMALS
280
1
  9
$LATITUDE
 40
37.795
  9
$LONGITUDE
 40
-122.394
  9
$NORTHDIRECTION
 40
0.0
  9
$TIMEZONE
 70
-8000
  9
$LIGHTGLYPHDISPLAY
280
1
  9
$TILEMODELIGHTSYNCH
280
1
  9
$CMATERIAL
347
20
  9
$SOLIDHIST
280
0
  9
$SHOWHIST
280
1
  9
$DWFFRAME
280
2
  9
$DGNFRAME
280
2
  9
$REALWORLDSCALE
290
1
  9
$INTERFERECOLOR
 62
256
  9
$CSHADOW
280
0
  9
$SHADOWPLANELOCATION
 40
0.0
  0
ENDSEC
  0
SECTION
  2
CLASSES
  0
CLASS
  1
ACDBDICTIONARYWDFLT
  2
AcDbDictionaryWithDefault
  3
ObjectDBX Classes
 90
0
 91
0
280
0
281
0
  0
CLASS
  1
SUN
  2
AcDbSun
  3
SCENEOE
 90
1153
 91
0
280
0
281
0
  0
CLASS
  1
VISUALSTYLE
  2
AcDbVisualStyle
  3
ObjectDBX Classes
 90
4095
 91
0
280
0
281
0
  0
CLASS
  1
MATERIAL
  2
AcDbMaterial
  3
ObjectDBX Classes
 90
1153
 91
0
280
0
281
0
  0
CLASS
  1
SCALE
  2
AcDbScale
  3
ObjectDBX Classes
 90
1153
 91
0
280
0
281
0
  0
CLASS
  1
TABLESTYLE
  2
AcDbTableStyle
  3
ObjectDBX Classes
 90
4095
 91
0
280
0
281
0
  0
CLASS
  1
MLEADERSTYLE
  2
AcDbMLeaderStyle
  3
ACDB_MLEADERSTYLE_CLASS
 90
4095
 91
0
280
0
281
0
  0
CLASS
  1
DICTIONARYVAR
  2
AcDbDictionaryVar
  3
ObjectDBX Classes
 90
0
 91
0
280
0
281
0
  0
CLASS
  1
CELLSTYLEMAP
  2
AcDbCellStyleMap
  3
ObjectDBX Classes
 90
1152
 91
0
280
0
281
0
  0
CLASS
  1
MENTALRAYRENDERSETTINGS
  2
AcDbMentalRayRenderSettings
  3
SCENEOE
 90
1024
 91
0
280
0
281
0
  0
CLASS
  1
ACDBDETAILVIEWSTYLE
  2
AcDbDetailViewStyle
  3
ObjectDBX Classes
 90
1025
 91
0
280
0
281
0
  0
CLASS
  1
ACDBSECTIONVIEWSTYLE
  2
AcDbSectionViewStyle
  3
ObjectDBX Classes
 90
1025
 91
0
280
0
281
0
  0
CLASS
  1
RASTERVARIABLES
  2
AcDbRasterVariables
  3
ISM
 90
0
 91
0
280
0
281
0
  0
CLASS
  1
ACDBPLACEHOLDER
  2
AcDbPlaceHolder
  3
ObjectDBX Classes
 90
0
 91
0
280
0
281
0
  0
CLASS
  1
LAYOUT
  2
AcDbLayout
  3
ObjectDBX Classes
 90
0
 91
0
280
0
281
0
  0
ENDSEC
  0
SECTION
  2
TABLES
  0
TABLE
  2
VPORT
  5
8
330
0
100
AcDbSymbolTable
 70
1
  0
VPORT
  5
23
330
8
100
AcDbSymbolTableRecord
100
AcDbViewportTableRecord
  2
*Active
 70
0
 10
0.0
 20
0.0
 11
1.0
 21
1.0
 12
344.2
 22
148.5
 13
0.0
 23
0.0
 14
0.5
 24
0.5
 15
0.5
 25
0.5
 16
0.0
 26
0.0
 36
1.0
 17
0.0
 27
0.0
 37
0.0
 40
297.0
 41
1.34
 42
50.0
 43
0.0
 44
0.0
 50
0.0
 51
0.0
 71
0
 72
1000
 73
1
 74
3
 75
0
 76
0
 77
0
 78
0
281
0
 65
0
146
0.0
  0
ENDTAB
  0
TABLE
  2
LTYPE
  5
2
330
0
100
AcDbSymbolTable
 70
3
  0
LTYPE
  5
24
330
2
100
AcDbSymbolTableRecord
100
AcDbLinetypeTableRecord
  2
ByBlock
 70
0
  3

 72
65
 73
0
 40
0.0
  0
LTYPE
  5
25
330
2
100
AcDbSymbolTableRecord
100
AcDbLinetypeTableRecord
  2
ByLayer
 70
0
  3

 72
65
 73
0
 40
0.0
  0
LTYPE
  5
26
330
2
100
AcDbSymbolTableRecord
100
AcDbLinetypeTableRecord
  2
Continuous
 70
0
  3

 72
65
 73
0
 40
0.0
  0
ENDTAB
  0
TABLE
  2
LAYER
  5
1
330
0
100
AcDbSymbolTable
 70
2
  0
LAYER
  5
27
330
1
100
AcDbSymbolTableRecord
100
AcDbLayerTableRecord
  2
0
 70
0
 62
7
  6
Continuous
370
-3
390
13
347
21
  0
LAYER
  5
28
330
1
100
AcDbSymbolTableRecord
100
AcDbLayerTableRecord
  2
Defpoints
 70
0
 62
7
  6
Continuous
290
0
370
-3
390
13
347
21
  0
ENDTAB
  0
TABLE
  2
STYLE
  5
5
330
0
100
AcDbSymbolTable
 70
1
  0
STYLE
  5
29
330
5
100
AcDbSymbolTableRecord
100
AcDbTextStyleTableRecord
  2
Standard
 70
0
 40
0.0
 41
1.0
 50
0.0
 71
0
 42
2.5
  3
txt
  4

  0
ENDTAB
  0
TABLE
  2
VIEW
  5
7
330
0
100
AcDbSymbolTable
 70
0
  0
ENDTAB
  0
TABLE
  2
UCS
  5
6
330
0
100
AcDbSymbolTable
 70
0
  0
ENDTAB
  0
TABLE
  2
APPID
  5
3
330
0
100
AcDbSymbolTable
 70
3
  0
APPID
  5
2A
330
3
100
AcDbSymbolTableRecord
100
AcDbRegAppTableRecord
  2
ACAD
 70
0
  0
APPID
  5
7E
330
3
100
AcDbSymbolTableRecord
100
AcDbRegAppTableRecord
  2
HATCHBACKGROUNDCOLOR
 70
0
  0
APPID
  5
7F
330
3
100
AcDbSymbolTableRecord
100
AcDbRegAppTableRecord
  2
EZDXF
 70
0
  0
ENDTAB
  0
TABLE
  2
DIMSTYLE
  5
4
330
0
100
AcDbSymbolTable
 70
1
100
AcDbDimStyleTable
  0
DIMSTYLE
105
2B
330
4
100
AcDbSymbolTableRecord
100
AcDbDimStyleTableRecord
  2
Standard
 70
0
 40
1.0
 41
2.5
 42
0.625
 43
3.75
 44
1.25
 45
0.0
 46
0.0
 47
0.0
 48
0.0
 49
2.5
140
2.5
141
2.5
142
0.0
143
0.03937007874
144
1.0
145
0.0
146
1.0
147
0.625
148
0.0
 69
0
 70
0
 71
0
 72
0
 73
0
 74
0
 75
0
 76
0
 77
1
 78
8
 79
0
170
0
171
3
172
1
173
0
174
0
175
0
176
0
177
0
178
0
179
0
271
0
272
2
273
2
274
3
275
0
276
0
277
2
278
44
279
0
280
0
281
0
282
0
283
0
284
8
285
0
286
0
288
0
289
3
290
0
371
-2
372
-2
  0
ENDTAB
  0
TABLE
  2
BLOCK_RECORD
  5
9
330
0
100
AcDbSymbolTable
 70
2
  0
BLOCK_RECORD
  5
17
330
9
100
AcDbSymbolTableRecord
100
AcDbBlockTableRecord
  2
*Model_Space
340
1A
 70
0
280
1
281
0
  0
BLOCK_RECORD
  5
1B
330
9
100
AcDbSymbolTableRecord
100
AcDbBlockTableRecord
  2
*Paper_Space
340
1E
 70
0
280
1
281
0
  0
ENDTAB
  0
ENDSEC
  0
SECTION
  2
BLOCKS
  0
BLOCK
  5
18
330
17
100
AcDbEntity
  8
0
100
AcDbBlockBegin
  2
*Model_Space
 70
0
 10
0.0
 20
0.0
 30
0.0
  3
*Model_Space
  1

  0
ENDBLK
  5
19
330
17
100
AcDbEntity
  8
0
100
AcDbBlockEnd
  0
BLOCK
  5
1C
330
1B
100
AcDbEntity
  8
0
100
AcDbBlockBegin
  2
*Paper_Space
 70
0
 10
0.0
 20
0.0
 30
0.0
  3
*Paper_Space
  1

  0
ENDBLK
  5
1D
330
1B
100
AcDbEntity
  8
0
100
AcDbBlockEnd
  0
ENDSEC
  0
SECTION
  2
ENTITIES
  0
SPLINE
  5
2F
330
17
100
AcDbEntity
  8
0
100
AcDbSpline
 70
0
 71
8
 72
81
 73
72
 74
0
 40
0.0
 40
0.0
 40
0.0
 40
0.0
 40
0.0
 40
0.0
 40
0.0
 40
0.0
 40
0.0
 40
0.01610157481979485
 40
0.01610157481979485
 40
0.01610157481979485
 40
0.01610157481979485
 40
0.01610157481979485
 40
0.01610157481979485
 40
0.01610157481979485
 40
0.14009855772264418
 40
0.14009855772264418
 40
0.14009855772264418
 40
0.14009855772264418
 40
0.14009855772264418
 40
0.14009855772264418
 40
0.14009855772264418
 40
0.23834955282163656
 40
0.23834955282163656
 40
0.23834955282163656
 40
0.23834955282163656
 40
0.23834955282163656
 40
0.23834955282163656
 40
0.23834955282163656
 40
0.32744812956389013
 40
0.32744812956389013
 40
0.32744812956389013
 40
0.32744812956389013
 40
0.32744812956389013
 40
0.32744812956389013
 40
0.32744812956389013
 40
0.42231430557515864
 40
0.42231430557515864
 40
0.42231430557515864
 40
0.42231430557515864
 40
0.42231430557515864
 40
0.42231430557515864
 40
0.42231430557515864
 40
0.5008193706173554
 40
0.5008193706173554
 40
0.5008193706173554
 40
0.5008193706173554
 40
0.5008193706173554
 40
0.5008193706173554
 40
0.5008193706173554
 40
0.5212112609711151
 40
0.5212112609711151
 40
0.5212112609711151
 40
0.5212112609711151
 40
0.5212112609711151
 40
0.5212112609711151
 40
0.5212112609711151
 40
0.5844493472502448
 40
0.5844493472502448
 40
0.5844493472502448
 40
0.5844493472502448
 40
0.5844493472502448
 40
0.5844493472502448
 40
0.5844493472502448
 40
0.7946448382069022
 40
0.7946448382069022
 40
0.7946448382069022
 40
0.7946448382069022
 40
0.7946448382069022
 40
0.7946448382069022
 40
0.7946448382069022
 40
1.0
 40
1.0
 40
1.0
 40
1.0
 40
1.0
 40
1.0
 40
1.0
 40
1.0
 40
1.0
 10
46.1432930141514
 20
235.90000000446443
 30
769.0
 10
46.095224778865315
 20
236.02393498345995
 30
769.0
 10
46.04712208836844
 20
236.147340849826
 30
769.0
 10
45.998985172176916
 20
236.2702186247468
 30
769.0
 10
45.95081425980691
 20
236.3925693294066
 30
769.0
 10
45.90260958077458
 20
236.51439398498957
 30
769.0
 10
45.85437136459606
 20
236.63569361267994
 30
769.0
 10
45.80609984078752
 20
236.75646923366196
 30
769.0
 10
45.38580523380411
 20
237.80277811826147
 30
769.0
 10
45.001428748407555
 20
238.72377158429214
 30
769.0
 10
44.60374289120961
 20
239.63920436203247
 30
769.0
 10
44.19172971504753
 20
240.54840266905433
 30
769.0
 10
43.76424578921048
 20
241.4505019503286
 30
769.0
 10
43.31999112220128
 20
242.34443209283117
 30
769.0
 10
42.857447581599644
 20
243.22888808586734
 30
769.0
 10
41.99228931168537
 20
244.7943107680672
 30
769.0
 10
41.59724586216505
 20
245.47926536340182
 30
769.0
 10
41.188671837471716
 20
246.15641327341086
 30
769.0
 10
40.765551533547246
 20
246.82477286980253
 30
769.0
 10
40.32678713437121
 20
247.48308817561107
 30
769.0
 10
39.87117719534101
 20
248.12981445045438
 30
769.0
 10
39.397373104092686
 20
248.76308897498544
 30
769.0
 10
38.456189356961076
 20
249.9407249502779
 30
769.0
 10
37.99250693337971
 20
250.4876429045347
 30
769.0
 10
37.51148670753234
 20
251.0199002637492
 30
769.0
 10
37.011941784572066
 20
251.53539255937477
 30
769.0
 10
36.49277658746741
 20
252.0314589875411
 30
769.0
 10
35.9530076913942
 20
252.50490448273274
 30
769.0
 10
35.39180899904269
 20
252.95204754867132
 30
769.0
 10
34.18764882975507
 20
253.81257152424342
 30
769.0
 10
33.54123173881595
 20
254.22226144969025
 30
769.0
 10
32.869625448813885
 20
254.5921362477044
 30
769.0
 10
32.173887729955226
 20
254.91607787041931
 30
769.0
 10
31.456038932524464
 20
255.1880568087994
 30
769.0
 10
30.719317481131707
 20
255.4028025600491
 30
769.0
 10
29.968531867917502
 20
255.5567127637113
 30
769.0
 10
28.583250764852178
 20
255.7254113903331
 30
769.0
 10
27.950648553870746
 20
255.75966218868734
 30
769.0
 10
27.316532143042252
 20
255.75125386748502
 30
769.0
 10
26.684174991988755
 20
255.70115849812223
 30
769.0
 10
26.05635708000263
 20
255.61139173050643
 30
769.0
 10
25.43540189602968
 20
255.4846355504055
 30
769.0
 10
24.823205142659702
 20
255.32393296890206
 30
769.0
 10
24.06489711330204
 20
255.08271766194608
 30
769.0
 10
23.909002321787685
 20
255.0308347296555
 30
769.0
 10
23.753581156892384
 20
254.97684677447157
 30
769.0
 10
23.59863959519956
 20
254.92078371698582
 30
769.0
 10
23.444179212565356
 20
254.86266447099135
 30
769.0
 10
23.290197184118664
 20
254.80249694348262
 30
769.0
 10
23.136686284261117
 20
254.74027803465555
 30
769.0
 10
22.509001229939557
 20
254.47663878863054
 30
769.0
 10
22.042090968333376
 20
254.2588919761175
 30
769.0
 10
21.583503262218336
 20
254.02367955506952
 30
769.0
 10
21.133650209956997
 20
253.77203431703273
 30
769.0
 10
20.692789093753554
 20
253.50503878075733
 30
769.0
 10
20.261048980259776
 20
253.2237784175537
 30
769.0
 10
19.83845167593799
 20
252.9293048116474
 30
769.0
 10
18.050422848637226
 20
251.60318941692663
 30
769.0
 10
16.780395542588167
 20
250.45187855095872
 30
769.0
 10
15.603801146454941
 20
249.201031189903
 30
769.0
 10
14.5100842464051
 20
247.87681844860856
 30
769.0
 10
13.48944413710862
 20
246.49895355557067
 30
769.0
 10
12.532513338309741
 20
245.08095766640554
 30
769.0
 10
11.63020635281508
 20
243.63026148812048
 30
769.0
 10
9.936608804774046
 20
240.7005762724749
 30
769.0
 10
9.145387408900028
 20
239.2267222369008
 30
769.0
 10
8.3932377244751
 20
237.73211532022515
 30
769.0
 10
7.675301844761918
 20
236.22073171674958
 30
769.0
 10
6.987610379664915
 20
234.69563800972026
 30
769.0
 10
6.3268557772659975
 20
233.1590982770776
 30
769.0
 10
5.690170258127921
 20
231.6126850875508
 30
769.0
 10
5.075020508972898
 20
230.05732827906002
 30
769.0
  0
LINE
  5
30
330
17
100
AcDbEntity
  8
0
100
AcDbLine
 10
26.317859062022055
 20
235.9
 30
769.0
 11
46.14329300264059
 21
235.9
 31
769.0
  0
SPLINE
  5
31
330
17
100
AcDbEntity
  8
0
100
AcDbSpline
 70
0
 71
1
 72
4
 73
2
 74
0
 40
0.0
 40
0.0
 40
1.0
 40
1.0
 10
26.317859057598152
 20
235.9000006000011
 30
769.0
 10
26.317859057598152
 20
232.09999939999986
 30
769.0
  0
LINE
  5
32
330
17
100
AcDbEntity
  8
0
100
AcDbLine
 10
26.317859062022055
 20
232.1
 30
769.0
 11
47.52688586136847
 21
232.1
 31
769.0
  0
SPLINE
  5
33
330
17
100
AcDbEntity
  8
0
100
AcDbSpline
 70
0
 71
8
 72
32
 73
23
 74
0
 40
0.0
 40
0.0
 40
0.0
 40
0.0
 40
0.0
 40
0.0
 40
0.0
 40
0.0
 40
0.0
 40
0.30234448154548466
 40
0.30234448154548466
 40
0.30234448154548466
 40
0.30234448154548466
 40
0.30234448154548466
 40
0.30234448154548466
 40
0.30234448154548466
 40
0.7896363750706017
 40
0.7896363750706017
 40
0.7896363750706017
 40
0.7896363750706017
 40
0.7896363750706017
 40
0.7896363750706017
 40
0.7896363750706017
 40
1.0
 40
1.0
 40
1.0
 40
1.0
 40
1.0
 40
1.0
 40
1.0
 40
1.0
 40
1.0
 10
53.4625089917365
 20
209.9000000091524
 30
769.0
 10
53.27839144159455
 20
210.74922946933384
 30
769.0
 10
53.09173029111068
 20
211.5979049946543
 30
769.0
 10
52.90243409150398
 20
212.44599714090583
 30
769.0
 10
52.71040393526047
 20
213.29347399034427
 30
769.0
 10
52.51553237728864
 20
214.14030092526275
 30
769.0
 10
52.317702087404236
 20
214.98644034525606
 30
769.0
 10
52.11678412486461
 20
215.83185130502562
 30
769.0
 10
51.5836073673219
 20
218.03780086619264
 30
769.0
 10
51.24619813167491
 20
219.3970602030061
 30
769.0
 10
50.89980836139504
 20
220.7540867786164
 30
769.0
 10
50.543753839451476
 20
222.1086424167916
 30
769.0
 10
50.17723614749896
 20
223.46042280919687
 30
769.0
 10
49.799313830977695
 20
224.809049678768
 30
769.0
 10
49.40884303758811
 20
226.15405462044134
 30
769.0
 10
48.82973969413793
 20
228.07366472299805
 30
769.0
 10
48.6525105501565
 20
228.6516923984491
 30
768.9999999999998
 10
48.472555345825384
 20
229.22888186604516
 30
768.9999999999998
 10
48.28974581191782
 20
229.8051773562788
 30
768.9999999999998
 10
48.10393898932121
 20
230.38051439965227
 30
768.9999999999998
 10
47.91497722903706
 20
230.9548198266777
 30
768.9999999999998
 10
47.72268819218104
 20
231.5280117678769
 30
768.9999999999998
 10
47.52688484998296
 20
232.09999965378165
 30
768.9999999999998
  0
LINE
  5
34
330
17
100
AcDbEntity
  8
0
100
AcDbLine
 10
26.317859062022055
 20
209.9
 30
769.0
 11
53.462508949522366
 21
209.9
 31
769.0
  0
SPLINE
  5
35
330
17
100
AcDbEntity
  8
0
100
AcDbSpline
 70
0
 71
1
 72
4
 73
2
 74
0
 40
0.0
 40
0.0
 40
1.0
 40
1.0
 10
26.317859057598152
 20
209.90000060000008
 30
769.0
 10
26.317859057598152
 20
206.09999939999994
 30
769.0
  0
LINE
  5
36
330
17
100
AcDbEntity
  8
0
100
AcDbLine
 10
26.317859062022055
 20
206.1
 30
769.0
 11
54.26399610155789
 21
206.1
 31
769.0
  0
SPLINE
  5
37
330
17
100
AcDbEntity
  8
0
100
AcDbSpline
 70
0
 71
8
 72
25
 73
16
 74
0
 40
0.0
 40
0.0
 40
0.0
 40
0.0
 40
0.0
 40
0.0
 40
0.0
 40
0.0
 40
0.0
 40
0.40293683593147056
 40
0.40293683593147056
 40
0.40293683593147056
 40
0.40293683593147056
 40
0.40293683593147056
 40
0.40293683593147056
 40
0.40293683593147056
 40
1.0
 40
1.0
 40
1.0
 40
1.0
 40
1.0
 40
1.0
 40
1.0
 40
1.0
 40
1.0
 10
58.2392460344816
 20
183.89999999898677
 30
769.0
 10
58.06299325807103
 20
185.0222995081565
 30
769.0
 10
57.88435939424424
 20
186.14422413581096
 30
769.0
 10
57.703285105987206
 20
187.26575837303477
 30
769.0
 10
57.519706811327964
 20
188.38688560578606
 30
769.0
 10
57.33355619923447
 20
189.50758804062275
 30
769.0
 10
57.144759649175654
 20
190.62784661560164
 30
769.0
 10
56.95323753034993
 20
191.74764089258719
 30
769.0
 10
56.47094314464222
 20
194.5255155736951
 30
769.0
 10
56.17681610502673
 20
196.18297049189732
 30
769.0
 10
55.876238241424865
 20
197.83926181932972
 30
769.0
 10
55.56889298204391
 20
199.49431808585933
 30
769.0
 10
55.25442692220754
 20
201.14804735906273
 30
769.0
 10
54.93244001114208
 20
202.80033515672858
 30
769.0
 10
54.60247466224606
 20
204.45104214365597
 30
769.0
 10
54.263996106319496
 20
206.10000000097745
 30
769.0
  0
LINE
  5
38
330
17
100
AcDbEntity
  8
0
100
AcDbLine
 10
26.317859062022055
 20
183.9
 30
769.0
 11
58.23924604093306
 21
183.9
 31
769.0
  0
SPLINE
  5
39
330
17
100
AcDbEntity
  8
0
100
AcDbSpline
 70
0
 71
1
 72
4
 73
2
 74
0
 40
0.0
 40
0.0
 40
1.0
 40
1.0
 10
26.317859057598152
 20
183.90000060000014
 30
769.0
 10
26.317859057598152
 20
180.0999993999999
 30
769.0
  0
LINE
  5
3A
330
17
100
AcDbEntity
  8
0
100
AcDbLine
 10
26.317859062022055
 20
180.1
 30
769.0
 11
58.82404729753372
 21
180.1
 31
769.0
  0
SPLINE
  5
3B
330
17
100
AcDbEntity
  8
0
100
AcDbSpline
 70
0
 71
8
 72
25
 73
16
 74
0
 40
0.0
 40
0.0
 40
0.0
 40
0.0
 40
0.0
 40
0.0
 40
0.0
 40
0.0
 40
0.0
 40
0.3234686384822238
 40
0.3234686384822238
 40
0.3234686384822238
 40
0.3234686384822238
 40
0.3234686384822238
 40
0.3234686384822238
 40
0.3234686384822238
 40
1.0
 40
1.0
 40
1.0
 40
1.0
 40
1.0
 40
1.0
 40
1.0
 40
1.0
 40
1.0
 10
61.81877314007586
 20
157.9000000002827
 30
768.9999999999999
 10
61.71050296956436
 20
158.79929908616953
 30
768.9999999999999
 10
61.60113623836979
 20
159.69846594285764
 30
768.9999999999999
 10
61.49066146682332
 20
160.59749761347868
 30
768.9999999999999
 10
61.37906656069712
 20
161.4963910259221
 30
768.9999999999999
 10
61.26633877741916
 20
162.39514298893744
 30
768.9999999999999
 10
61.1524646891801
 20
163.29375018787505
 30
768.9999999999999
 10
61.037430142932195
 20
164.19220918006482
 30
769.0
 10
60.67816834185849
 20
166.96931676608557
 30
769.0
 10
60.42997631625428
 20
168.8474426172009
 30
769.0
 10
60.176506826765376
 20
170.72486515669596
 30
769.0
 10
59.91760828537838
 20
172.60154991225843
 30
769.0
 10
59.65311232143205
 20
174.47745633088834
 30
769.0
 10
59.382831359169685
 20
176.3525374035451
 30
769.0
 10
59.10655542076894
 20
178.22673917436742
 30
769.0
 10
58.82404729443726
 20
180.09999999953288
 30
769.0
  0
LINE
  5
3C
330
17
100
AcDbEntity
  8
0
100
AcDbLine
 10
26.317859062022055
 20
157.9
 30
769.0
 11
61.81877313772739
 21
157.9
 31
769.0
  0
SPLINE
  5
3D
330
17
100
AcDbEntity
  8
0
100
AcDbSpline
 70
0
 71
1
 72
4
 73
2
 74
0
 40
0.0
 40
0.0
 40
1.0
 40
1.0
 10
26.317859057598152
 20
157.90000060000042
 30
769.0
 10
26.317859057598152
 20
154.09999939999918
 30
769.0
  0
LINE
  5
3E
330
17
100
AcDbEntity
  8
0
100
AcDbLine
 10
26.317859062022055
 20
154.1
 30
769.0
 11
62.26767884991429
 21
154.1
 31
769.0
  0
SPLINE
  5
3F
330
17
100
AcDbEntity
  8
0
100
AcDbSpline
 70
0
 71
8
 72
25
 73
16
 74
0
 40
0.0
 40
0.0
 40
0.0
 40
0.0
 40
0.0
 40
0.0
 40
0.0
 40
0.0
 40
0.0
 40
0.17913987301632153
 40
0.17913987301632153
 40
0.17913987301632153
 40
0.17913987301632153
 40
0.17913987301632153
 40
0.17913987301632153
 40
0.17913987301632153
 40
1.0
 40
1.0
 40
1.0
 40
1.0
 40
1.0
 40
1.0
 40
1.0
 40
1.0
 40
1.0
 10
64.56814956281048
 20
131.89999999551168
 30
769.0
 10
64.52242858677398
 20
132.39769186774475
 30
769.0
 10
64.47642018494967
 20
132.89535732468687
 30
769.0
 10
64.43012380850575
 20
133.39299611904684
 30
769.0
 10
64.3835388500915
 20
133.89060799637602
 30
769.0
 10
64.33666462924975
 20
134.38819269392204
 30
769.0
 10
64.28950042023664
 20
134.88574994327288
 30
769.0
 10
64.24204552224806
 20
135.3832794767914
 30
769.0
 10
63.9755155231436
 20
138.16044768994155
 30
769.0000000000001
 10
63.75061458221731
 20
140.43952367750177
 30
769.0
 10
63.51952613564965
 20
142.71798545911156
 30
769.0
 10
63.28216441708496
 20
144.99580590303484
 30
769.0
 10
63.03842776111317
 20
147.27295422715068
 30
769.0
 10
62.788197245114894
 20
149.5493958444179
 30
769.0
 10
62.53133451927529
 20
151.82509211386204
 30
769.0
 10
62.26767882476676
 20
154.09999999708538
 30
769.0
  0
LINE
  5
40
330
17
100
AcDbEntity
  8
0
100
AcDbLine
 10
26.317859062022055
 20
131.9
 30
769.0
 11
64.56814961166856
 21
131.9
 31
769.0
  0
SPLINE
  5
41
330
17
100
AcDbEntity
  8
0
100
AcDbSpline
 70
0
 71
1
 72
4
 73
2
 74
0
 40
0.0
 40
0.0
 40
1.0
 40
1.0
 10
26.317859057598152
 20
131.90000060000256
 30
769.0
 10
26.317859057598152
 20
128.09999939999764
 30
769.0
  0
LINE
  5
42
330
17
100
AcDbEntity
  8
0
100
AcDbLine
 10
26.317859062022055
 20
128.1
 30
769.0
 11
64.90987637828499
 21
128.1
 31
769.0
  0
SPLINE
  5
43
330
17
100
AcDbEntity
  8
0
100
AcDbSpline
 70
0
 71
8
 72
25
 73
16
 74
0
 40
0.0
 40
0.0
 40
0.0
 40
0.0
 40
0.0
 40
0.0
 40
0.0
 40
0.0
 40
0.0
 40
0.9123475531318732
 40
0.9123475531318732
 40
0.9123475531318732
 40
0.9123475531318732
 40
0.9123475531318732
 40
0.9123475531318732
 40
0.9123475531318732
 40
1.0
 40
1.0
 40
1.0
 40
1.0
 40
1.0
 40
1.0
 40
1.0
 40
1.0
 40
1.0
 10
66.62521143482695
 20
105.89999999875812
 30
769.0
 10
66.455403108202
 20
108.43367378038845
 30
769.0
 10
66.27916024894677
 20
110.96691614566015
 30
769.0
 10
66.09635194759852
 20
113.49969904478701
 30
769.0
 10
65.90684487400111
 20
116.03199284033256
 30
769.0
 10
65.7105031705436
 20
118.56376629988634
 30
769.0
 10
65.50718834539887
 20
121.09498658874018
 30
769.0
 10
65.29675916576241
 20
123.6256192625645
 30
769.0
 10
65.05815753426316
 20
126.39869514667805
 30
768.9999999999999
 10
65.03717659146658
 20
126.64175627084255
 30
768.9999999999999
 10
65.01612852464066
 20
126.88481159381539
 30
768.9999999999999
 10
64.99501316723583
 20
127.1278610794894
 30
768.9999999999999
 10
64.97383037872328
 20
127.37090469392659
 30
768.9999999999999
 10
64.95258003967882
 20
127.61394240492301
 30
768.9999999999999
 10
64.93126204744028
 20
127.85697418162505
 30
768.9999999999999
 10
64.90987631233872
 20
128.09999999419685
 30
768.9999999999999
  0
LINE
  5
44
330
17
100
AcDbEntity
  8
0
100
AcDbLine
 10
26.317859062022055
 20
105.9
 30
769.0
 11
66.62521145335613
 21
105.9
 31
769.0
  0
SPLINE
  5
45
330
17
100
AcDbEntity
  8
0
100
AcDbSpline
 70
0
 71
1
 72
4
 73
2
 74
0
 40
0.0
 40
0.0
 40
1.0
 40
1.0
 10
26.317859057598152
 20
105.90000060000206
 30
769.0
 10
26.317859057598152
 20
102.09999939999993
 30
769.0
  0
LINE
  5
46
330
17
100
AcDbEntity
  8
0
100
AcDbLine
 10
26.317859062022055
 20
102.1
 30
769.0
 11
66.87357911692746
 21
102.1
 31
769.0
  0
SPLINE
  5
47
330
17
100
AcDbEntity
  8
0
100
AcDbSpline
 70
0
 71
8
 72
25
 73
16
 74
0
 40
0.0
 40
0.0
 40
0.0
 40
0.0
 40
0.0
 40
0.0
 40
0.0
 40
0.0
 40
0.0
 40
0.25706386614833704
 40
0.25706386614833704
 40
0.25706386614833704
 40
0.25706386614833704
 40
0.25706386614833704
 40
0.25706386614833704
 40
0.25706386614833704
 40
1.0
 40
1.0
 40
1.0
 40
1.0
 40
1.0
 40
1.0
 40
1.0
 40
1.0
 40
1.0
 10
68.08556515529203
 20
79.9000000005254
 30
769.0
 10
68.05281200389318
 20
80.6136716560659
 30
769.0
 10
68.01962484961265
 20
81.32732353312399
 30
769.0
 10
67.98600108522172
 20
82.04095522809376
 30
769.0
 10
67.95193809128406
 20
82.75456633233306
 30
769.0
 10
67.91743323598692
 20
83.46815643215925
 30
769.0
 10
67.8824838749706
 20
84.18172510884516
 30
769.0
 10
67.84708735115673
 20
84.89527193861487
 30
769.0
 10
67.7076420175168
 20
87.67094229911939
 30
769.0
 10
67.60028595052103
 20
89.73289854777403
 30
769.0
 10
67.48910835718756
 20
91.79465439037139
 30
769.0
 10
67.37404392981718
 20
93.85619829754611
 30
769.0
 10
67.25502645146885
 20
95.91751805619667
 30
769.0
 10
67.1319887580172
 20
97.97860076688255
 30
769.0
 10
67.00486270020988
 20
100.03943284122141
 30
769.0
 10
66.87357910572513
 20
102.0999999992863
 30
769.0
  0
LINE
  5
48
330
17
100
AcDbEntity
  8
0
100
AcDbLine
 10
26.317859062022055
 20
79.9
 30
769.0
 11
68.08556514384465
 21
79.9
 31
769.0
  0
SPLINE
  5
49
330
17
100
AcDbEntity
  8
0
100
AcDbSpline
 70
0
 71
1
 72
4
 73
2
 74
0
 40
0.0
 40
0.0
 40
1.0
 40
1.0
 10
26.317859057598152
 20
79.90000060000001
 30
769.0
 10
26.317859057598152
 20
76.09999939999999
 30
769.0
  0
LINE
  5
4A
330
17
100
AcDbEntity
  8
0
100
AcDbLine
 10
26.317859062022055
 20
76.1
 30
769.0
 11
68.25461121168557
 21
76.1
 31
769.0
  0
SPLINE
  5
4B
330
17
100
AcDbEntity
  8
0
100
AcDbSpline
 70
0
 71
8
 72
18
 73
9
 74
0
 40
0.0
 40
0.0
 40
0.0
 40
0.0
 40
0.0
 40
0.0
 40
0.0
 40
0.0
 40
0.0
 40
1.0
 40
1.0
 40
1.0
 40
1.0
 40
1.0
 40
1.0
 40
1.0
 40
1.0
 40
1.0
 10
69.03996709138332
 20
53.899999999303965
 30
769.0
 10
68.96215448848926
 20
56.675674304795976
 30
769.0
 10
68.87880870545935
 20
59.45119282070437
 30
769.0
 10
68.78979099787226
 20
62.22653853267374
 30
769.0
 10
68.6949604962432
 20
65.00169329273808
 30
769.0
 10
68.59417407376338
 20
67.7766378162328
 30
769.0
 10
68.48728620903566
 20
70.55135167855347
 30
769.0
 10
68.37414884380618
 20
73.32581331176112
 30
769.0
 10
68.254611235692
 20
76.10000000103436
 30
769.0
  0
LINE
  5
4C
330
17
100
AcDbEntity
  8
0
100
AcDbLine
 10
26.317859062022055
 20
53.9
 30
769.0
 11
69.03996711621286
 21
53.9
 31
769.0
  0
SPLINE
  5
4D
330
17
100
AcDbEntity
  8
0
100
AcDbSpline
 70
0
 71
1
 72
4
 73
2
 74
0
 40
0.0
 40
0.0
 40
1.0
 40
1.0
 10
26.317859057598152
 20
53.90000060000026
 30
769.0
 10
26.317859057598152
 20
50.09999939999937
 30
769.0
  0
LINE
  5
4E
330
17
100
AcDbEntity
  8
0
100
AcDbLine
 10
26.317859062022055
 20
50.1
 30
769.0
 11
69.14199392291047
 21
50.1
 31
769.0
  0
SPLINE
  5
4F
330
17
100
AcDbEntity
  8
0
100
AcDbSpline
 70
0
 71
8
 72
18
 73
9
 74
0
 40
0.0
 40
0.0
 40
0.0
 40
0.0
 40
0.0
 40
0.0
 40
0.0
 40
0.0
 40
0.0
 40
1.0
 40
1.0
 40
1.0
 40
1.0
 40
1.0
 40
1.0
 40
1.0
 40
1.0
 40
1.0
 10
69.5685895393201
 20
27.900000000067337
 30
769.0
 10
69.53225392160533
 20
30.675290663941325
 30
769.0
 10
69.4913241792554
 20
33.45052189197861
 30
769.0
 10
69.44567244500925
 20
36.225683279323434
 30
769.0
 10
69.39516930748172
 20
39.00076330269943
 30
769.0
 10
69.3396836967319
 20
41.7757493178658
 30
769.0
 10
69.27908276484077
 20
44.5506275569205
 30
769.0
 10
69.21323176149826
 20
47.32538312545066
 30
769.0
 10
69.1419939045997
 20
50.0999999995299
 30
769.0
  0
LINE
  5
50
330
17
100
AcDbEntity
  8
0
100
AcDbLine
 10
26.317859062022055
 20
27.9
 30
769.0
 11
69.56858953417654
 21
27.9
 31
769.0
  0
SPLINE
  5
51
330
17
100
AcDbEntity
  8
0
100
AcDbSpline
 70
0
 71
1
 72
4
 73
2
 74
0
 40
0.0
 40
0.0
 40
1.0
 40
1.0
 10
26.317859057598152
 20
27.900000600000002
 30
769.0
 10
26.317859057598152
 20
24.099999399999998
 30
769.0
  0
LINE
  5
52
330
17
100
AcDbEntity
  8
0
100
AcDbLine
 10
26.317859062022055
 20
24.1
 30
769.0
 11
69.6146083554413
 21
24.1
 31
769.0
  0
SPLINE
  5
53
330
17
100
AcDbEntity
  8
0
100
AcDbSpline
 70
0
 71
8
 72
25
 73
16
 74
0
 40
0.0
 40
0.0
 40
0.0
 40
0.0
 40
0.0
 40
0.0
 40
0.0
 40
0.0
 40
0.0
 40
0.09355098080311884
 40
0.09355098080311884
 40
0.09355098080311884
 40
0.09355098080311884
 40
0.09355098080311884
 40
0.09355098080311884
 40
0.09355098080311884
 40
1.0
 40
1.0
 40
1.0
 40
1.0
 40
1.0
 40
1.0
 40
1.0
 40
1.0
 40
1.0
 10
69.7438988294126
 20
1.8999999995214722
 30
769.0000000000001
 10
69.74368542463534
 20
2.1596101215178285
 30
769.0000000000001
 10
69.74343951828759
 20
2.41922021592145
 30
769.0000000000001
 10
69.74316101396273
 20
2.6788302780046562
 30
769.0000000000001
 10
69.74284979705902
 20
2.9384403031398656
 30
769.0000000000001
 10
69.74250573759826
 20
3.1980502868356107
 30
769.0000000000001
 10
69.7421286942019
 20
3.4576602247792754
 30
769.0000000000001
 10
69.7417185192242
 20
3.7172701128865597
 30
769.0
 10
69.73697827836709
 20
6.492332781844214
 30
769.0
 10
69.72956715727565
 20
9.007776099344841
 30
769.0
 10
69.71895176678834
 20
11.523206619058886
 30
769.0
 10
69.70504143945124
 20
14.038620312321243
 30
769.0
 10
69.68774471523275
 20
16.554012401349205
 30
769.0
 10
69.66696927865422
 20
19.069377357904578
 30
769.0
 10
69.64262189315488
 20
21.584708901871018
 30
769.0
 10
69.61460833269156
 20
24.09999999974666
 30
769.0
  0
LINE
  5
54
330
17
100
AcDbEntity
  8
0
100
AcDbLine
 10
26.317859062022055
 20
1.9
 30
769.0
 11
69.74389941156149
 21
1.9
 31
769.0
  0
SPLINE
  5
55
330
17
100
AcDbEntity
  8
0
100
AcDbSpline
 70
0
 71
1
 72
4
 73
2
 74
0
 40
0.0
 40
0.0
 40
0.9999993684216398
 40
0.9999993684216398
 10
26.317859057598152
 20
1.9000006000000558
 30
769.0
 10
26.317859057598152
 20
-6.553790374438061e-17
 30
769.0
  0
SPLINE
  5
56
330
17
100
AcDbEntity
  8
0
100
AcDbSpline
 70
0
 71
1
 72
4
 73
2
 74
0
 40
0.0
 40
0.0
 40
1.0
 40
1.0
 10
26.317859057598152
 20
-1.9000006000000011
 30
769.0
 10
26.317859057598152
 20
1.2000000211287443e-06
 30
769.0
  0
LINE
  5
57
330
17
100
AcDbEntity
  8
0
100
AcDbLine
 10
26.31785906202206
 20
-1.9
 30
769.0
 11
69.74399330109166
 21
-1.9
 31
769.0
  0
SPLINE
  5
58
330
17
100
AcDbEntity
  8
0
100
AcDbSpline
 70
0
 71
8
 72
25
 73
16
 74
0
 40
0.0
 40
0.0
 40
0.0
 40
0.0
 40
0.0
 40
0.0
 40
0.0
 40
0.0
 40
0.0
 40
0.7967312149867912
 40
0.7967312149867912
 40
0.7967312149867912
 40
0.7967312149867912
 40
0.7967312149867912
 40
0.7967312149867912
 40
0.7967312149867912
 40
1.0
 40
1.0
 40
1.0
 40
1.0
 40
1.0
 40
1.0
 40
1.0
 40
1.0
 40
1.0
 10
69.61573678944822
 20
-24.100000000178717
 30
769.0
 10
69.6402673621344
 20
-21.889182856696404
 30
769.0
 10
69.66196200581116
 20
-19.678332318352663
 30
769.0
 10
69.68088514776998
 20
-17.467452212172827
 30
769.0
 10
69.69710061853932
 20
-15.256545787386788
 30
769.0
 10
69.7106716880808
 20
-13.045615716740155
 30
769.0
 10
69.7216611016949
 20
-10.834664097793855
 30
769.0
 10
69.73013111594273
 20
-8.623692454225129
 30
769.0
 10
69.73767747390394
 20
-5.84861514396951
 30
769.0
 10
69.73905222122347
 20
-5.2845281272866345
 30
769.0
 10
69.74026754371667
 20
-4.72044074119738
 30
769.0
 10
69.74132427613551
 20
-4.156353036015858
 30
769.0
 10
69.7422237846539
 20
-3.592265060434183
 30
769.0
 10
69.74296755218555
 20
-3.0281768629817276
 30
769.0
 10
69.7435568854818
 20
-2.4640884927766313
 30
769.0
 10
69.7439927440092
 20
-1.8999999995695491
 30
769.0
  0
LINE
  5
59
330
17
100
AcDbEntity
  8
0
100
AcDbLine
 10
26.31785906202206
 20
-24.1
 30
769.0
 11
69.61573677334226
 21
-24.1
 31
769.0
  0
SPLINE
  5
5A
330
17
100
AcDbEntity
  8
0
100
AcDbSpline
 70
0
 71
1
 72
4
 73
2
 74
0
 40
0.0
 40
0.0
 40
1.0
 40
1.0
 10
26.317859057598152
 20
-27.900000600000034
 30
769.0
 10
26.317859057598152
 20
-24.099999399999938
 30
769.0
  0
LINE
  5
5B
330
17
100
AcDbEntity
  8
0
100
AcDbLine
 10
26.31785906202206
 20
-27.9
 30
769.0
 11
69.56987115041062
 21
-27.9
 31
769.0
  0
SPLINE
  5
5C
330
17
100
AcDbEntity
  8
0
100
AcDbSpline
 70
0
 71
8
 72
18
 73
9
 74
0
 40
0.0
 40
0.0
 40
0.0
 40
0.0
 40
0.0
 40
0.0
 40
0.0
 40
0.0
 40
0.0
 40
1.0
 40
1.0
 40
1.0
 40
1.0
 40
1.0
 40
1.0
 40
1.0
 40
1.0
 40
1.0
 10
69.1439045926275
 20
-50.099999999846474
 30
769.0
 10
69.21509972554287
 20
-47.32537467732659
 30
769.0
 10
69.28089588138545
 20
-44.55061387001814
 30
769.0
 10
69.34143077704272
 20
-41.77573360914363
 30
769.0
 10
69.39684009967205
 20
-39.000748471042115
 30
769.0
 10
69.44725762973567
 20
-36.22567158167802
 30
769.0
 10
69.49281535937325
 20
-33.4505146209555
 30
769.0
 10
69.53364360761707
 20
-30.675287826902085
 30
769.0
 10
69.56987113395539
 20
-27.8999999997852
 30
769.0
  0
LINE
  5
5D
330
17
100
AcDbEntity
  8
0
100
AcDbLine
 10
26.31785906202206
 20
-50.1
 30
769.0
 11
69.14390459861112
 21
-50.1
 31
769.0
  0
SPLINE
  5
5E
330
17
100
AcDbEntity
  8
0
100
AcDbSpline
 70
0
 71
1
 72
4
 73
2
 74
0
 40
0.0
 40
0.0
 40
1.0
 40
1.0
 10
26.317859057598152
 20
-53.9000006
 30
769.0
 10
26.317859057598152
 20
-50.0999994
 30
769.0
  0
LINE
  5
5F
330
17
100
AcDbEntity
  8
0
100
AcDbLine
 10
26.31785906202206
 20
-53.9
 30
769.0
 11
69.04192648027578
 21
-53.9
 31
769.0
  0
SPLINE
  5
60
330
17
100
AcDbEntity
  8
0
100
AcDbSpline
 70
0
 71
8
 72
18
 73
9
 74
0
 40
0.0
 40
0.0
 40
0.0
 40
0.0
 40
0.0
 40
0.0
 40
0.0
 40
0.0
 40
0.0
 40
1.0
 40
1.0
 40
1.0
 40
1.0
 40
1.0
 40
1.0
 40
1.0
 40
1.0
 40
1.0
 10
68.25638008912428
 20
-76.09999999995189
 30
769.0
 10
68.37599976397871
 20
-73.32581522295578
 30
769.0
 10
68.48920081147136
 20
-70.55135191163923
 30
769.0
 10
68.59613481622493
 20
-67.77663471820237
 30
769.0
 10
68.6969507037796
 20
-65.00168681422801
 30
769.0
 10
68.79179488653519
 20
-62.22652989614802
 30
769.0
 10
68.88081140148164
 20
-59.45118419036526
 30
769.0
 10
68.96414204122814
 20
-56.67566845809469
 30
769.0
 10
69.0419264798405
 20
-53.899999999987806
 30
769.0
  0
LINE
  5
61
330
17
100
AcDbEntity
  8
0
100
AcDbLine
 10
26.31785906202206
 20
-76.1
 30
769.0
 11
68.25638009024023
 21
-76.1
 31
769.0
  0
SPLINE
  5
62
330
17
100
AcDbEntity
  8
0
100
AcDbSpline
 70
0
 71
1
 72
4
 73
2
 74
0
 40
0.0
 40
0.0
 40
1.0
 40
1.0
 10
26.317859057598152
 20
-79.90000060000018
 30
769.0
 10
26.317859057598152
 20
-76.09999939999999
 30
769.0
  0
LINE
  5
63
330
17
100
AcDbEntity
  8
0
100
AcDbLine
 10
26.31785906202206
 20
-79.9
 30
769.0
 11
68.08720600405955
 21
-79.9
 31
769.0
  0
SPLINE
  5
64
330
17
100
AcDbEntity
  8
0
100
AcDbSpline
 70
0
 71
8
 72
18
 73
9
 74
0
 40
0.0
 40
0.0
 40
0.0
 40
0.0
 40
0.0
 40
0.0
 40
0.0
 40
0.0
 40
0.0
 40
1.0
 40
1.0
 40
1.0
 40
1.0
 40
1.0
 40
1.0
 40
1.0
 40
1.0
 40
1.0
 10
66.87377641932213
 20
-102.10000000204116
 30
769.0
 10
67.05074725837058
 20
-99.32647078746493
 30
769.0
 10
67.22016047082714
 20
-96.55245812498491
 30
769.0
 10
67.38218582131113
 20
-93.77799551304594
 30
769.0
 10
67.53698964171862
 20
-91.00311493530432
 30
769.0
 10
67.6847350130555
 20
-88.22784686759962
 30
769.0
 10
67.82558193545745
 20
-85.45222028442956
 30
769.0
 10
67.95968748791626
 20
-82.67626266499217
 30
769.0
 10
68.08720597923164
 20
-79.89999999885961
 30
769.0
  0
LINE
  5
65
330
17
100
AcDbEntity
  8
0
100
AcDbLine
 10
26.31785906202206
 20
-102.1
 30
769.0
 11
66.87377638733227
 21
-102.1
 31
769.0
  0
SPLINE
  5
66
330
17
100
AcDbEntity
  8
0
100
AcDbSpline
 70
0
 71
1
 72
4
 73
2
 74
0
 40
0.0
 40
0.0
 40
1.0
 40
1.0
 10
26.317859057598152
 20
-105.90000060000003
 30
769.0
 10
26.317859057598152
 20
-102.09999939999999
 30
769.0
  0
LINE
  5
67
330
17
100
AcDbEntity
  8
0
100
AcDbLine
 10
26.31785906202206
 20
-105.9
 30
769.0
 11
66.62502743600152
 21
-105.9
 31
769.0
  0
SPLINE
  5
68
330
17
100
AcDbEntity
  8
0
100
AcDbSpline
 70
0
 71
8
 72
25
 73
16
 74
0
 40
0.0
 40
0.0
 40
0.0
 40
0.0
 40
0.0
 40
0.0
 40
0.0
 40
0.0
 40
0.0
 40
0.20781071531237352
 40
0.20781071531237352
 40
0.20781071531237352
 40
0.20781071531237352
 40
0.20781071531237352
 40
0.20781071531237352
 40
0.20781071531237352
 40
1.0
 40
1.0
 40
1.0
 40
1.0
 40
1.0
 40
1.0
 40
1.0
 40
1.0
 40
1.0
 10
64.9065299283989
 20
-128.0999999365418
 30
769.0
 10
64.9573372037318
 20
-127.52382002332388
 30
769.0
 10
65.00776257806086
 20
-126.94760642172301
 30
769.0
 10
65.05780731472834
 20
-126.37135953976949
 30
769.0
 10
65.1074728573613
 20
-125.79507979793611
 30
769.0
 10
65.15676082987169
 20
-125.21876762913811
 30
769.0
 10
65.20567303645628
 20
-124.64242347873318
 30
769.0
 10
65.25421146159668
 20
-124.06604780452146
 30
769.0
 10
65.48599358308314
 20
-121.29233747438032
 30
769.0
 10
65.66420098413307
 20
-119.09459413487735
 30
769.0
 10
65.83709442094161
 20
-116.89643147031583
 30
769.0
 10
66.00476617491447
 20
-114.69786928076486
 30
769.0
 10
66.1673069303665
 20
-112.49892675698335
 30
769.0
 10
66.3248058400806
 20
-110.29962248296513
 30
769.0
 10
66.47735058749032
 20
-108.09997443834195
 30
769.0
 10
66.6250274457865
 20
-105.90000000065686
 30
769.0
  0
LINE
  5
69
330
17
100
AcDbEntity
  8
0
100
AcDbLine
 10
26.31785906202206
 20
-128.1
 30
769.0
 11
64.90653064804687
 21
-128.1
 31
769.0
  0
SPLINE
  5
6A
330
17
100
AcDbEntity
  8
0
100
AcDbSpline
 70
0
 71
1
 72
4
 73
2
 74
0
 40
0.0
 40
0.0
 40
1.0
 40
1.0
 10
26.317859057598152
 20
-131.9000006
 30
769.0
 10
26.317859057598152
 20
-128.09999939999992
 30
769.0
  0
LINE
  5
6B
330
17
100
AcDbEntity
  8
0
100
AcDbLine
 10
26.31785906202206
 20
-131.9
 30
769.0
 11
64.56408692469473
 21
-131.9
 31
769.0
  0
SPLINE
  5
6C
330
17
100
AcDbEntity
  8
0
100
AcDbSpline
 70
0
 71
8
 72
18
 73
9
 74
0
 40
0.0
 40
0.0
 40
0.0
 40
0.0
 40
0.0
 40
0.0
 40
0.0
 40
0.0
 40
0.0
 40
1.0
 40
1.0
 40
1.0
 40
1.0
 40
1.0
 40
1.0
 40
1.0
 40
1.0
 40
1.0
 10
62.25850645870392
 20
-154.09999999947766
 30
769.0
 10
62.58041913689294
 20
-151.32864353049055
 30
769.0
 10
62.89223185647533
 20
-148.55611194771024
 30
769.0
 10
63.19423309150794
 20
-145.78248372902027
 30
769.0
 10
63.486662141487095
 20
-143.0078276019326
 30
769.0
 10
63.76971704219761
 20
-140.23220346526244
 30
769.0
 10
64.04355929985525
 20
-137.45566294343917
 30
769.0
 10
64.30831688550879
 20
-134.67824974542046
 30
769.0
 10
64.5640869266687
 20
-131.90000000018176
 30
769.0
  0
LINE
  5
6D
330
17
100
AcDbEntity
  8
0
100
AcDbLine
 10
26.31785906202206
 20
-154.1
 30
769.0
 11
62.25850646320083
 21
-154.1
 31
769.0
  0
SPLINE
  5
6E
330
17
100
AcDbEntity
  8
0
100
AcDbSpline
 70
0
 71
1
 72
4
 73
2
 74
0
 40
0.0
 40
0.0
 40
1.0
 40
1.0
 10
26.317859057598152
 20
-157.90000060000003
 30
769.0
 10
26.317859057598152
 20
-154.0999994
 30
769.0
  0
LINE
  5
6F
330
17
100
AcDbEntity
  8
0
100
AcDbLine
 10
26.31785906202206
 20
-157.9
 30
769.0
 11
61.80859813507804
 21
-157.9
 31
769.0
  0
SPLINE
  5
70
330
17
100
AcDbEntity
  8
0
100
AcDbSpline
 70
0
 71
8
 72
25
 73
16
 74
0
 40
0.0
 40
0.0
 40
0.0
 40
0.0
 40
0.0
 40
0.0
 40
0.0
 40
0.0
 40
0.0
 40
0.4814521743032293
 40
0.4814521743032293
 40
0.4814521743032293
 40
0.4814521743032293
 40
0.4814521743032293
 40
0.4814521743032293
 40
0.4814521743032293
 40
1.0
 40
1.0
 40
1.0
 40
1.0
 40
1.0
 40
1.0
 40
1.0
 40
1.0
 40
1.0
 10
58.807557315762615
 20
-180.09999999960178
 30
769.0
 10
59.008996018325746
 20
-178.7669064383167
 30
769.0
 10
59.20727789602314
 20
-177.43333599239776
 30
769.0
 10
59.402488159803646
 20
-176.09931064751095
 30
769.0
 10
59.594705079865676
 20
-174.76485018273533
 30
769.0
 10
59.78400084814962
 20
-173.42997230844452
 30
769.0
 10
59.97044223578948
 20
-172.0946927717829
 30
769.0
 10
60.15409115618881
 20
-170.7590254477939
 30
769.0
 10
60.52985867340662
 20
-167.98399796875117
 30
769.0
 10
60.72153847564522
 20
-166.54458590637367
 30
769.0
 10
60.91011636596883
 20
-165.10476288949545
 30
769.0
 10
61.095658034595985
 20
-163.66454456361865
 30
769.0
 10
61.278223779926314
 20
-162.22394565113876
 30
769.0
 10
61.45786903868998
 20
-160.78298001307243
 30
769.0
 10
61.63464482828465
 20
-159.34166070053084
 30
769.0
 10
61.80859811616763
 20
-157.89999999771825
 30
769.0
  0
LINE
  5
71
330
17
100
AcDbEntity
  8
0
100
AcDbLine
 10
26.31785906202206
 20
-180.1
 30
769.0
 11
58.80755731839807
 21
-180.1
 31
769.0
  0
SPLINE
  5
72
330
17
100
AcDbEntity
  8
0
100
AcDbSpline
 70
0
 71
1
 72
4
 73
2
 74
0
 40
0.0
 40
0.0
 40
1.0
 40
1.0
 10
26.317859057598152
 20
-183.9000006000001
 30
769.0
 10
26.317859057598152
 20
-180.09999939999994
 30
769.0
  0
LINE
  5
73
330
17
100
AcDbEntity
  8
0
100
AcDbLine
 10
26.31785906202206
 20
-183.9
 30
769.0
 11
58.22163177385306
 21
-183.9
 31
769.0
  0
SPLINE
  5
74
330
17
100
AcDbEntity
  8
0
100
AcDbSpline
 70
0
 71
8
 72
25
 73
16
 74
0
 40
0.0
 40
0.0
 40
0.0
 40
0.0
 40
0.0
 40
0.0
 40
0.0
 40
0.0
 40
0.0
 40
0.4612433503350006
 40
0.4612433503350006
 40
0.4612433503350006
 40
0.4612433503350006
 40
0.4612433503350006
 40
0.4612433503350006
 40
0.4612433503350006
 40
1.0
 40
1.0
 40
1.0
 40
1.0
 40
1.0
 40
1.0
 40
1.0
 40
1.0
 40
1.0
 10
54.24000447330629
 20
-206.09999999831342
 30
769.0
 10
54.501823867420825
 20
-204.8261543689357
 30
769.0
 10
54.75856859168768
 20
-203.55126697033253
 30
769.0
 10
55.010484625737774
 20
-202.2754146477186
 30
769.0
 10
55.25779068609178
 20
-200.99866302848392
 30
769.0
 10
55.50068358518985
 20
-199.72106768064373
 30
769.0
 10
55.73934179774326
 20
-198.44267488699816
 30
769.0
 10
55.973928477483
 20
-197.16352230041574
 30
769.0
 10
56.47402147703664
 20
-194.38866815250032
 30
769.0
 10
56.738092594163774
 20
-192.8927354267975
 30
769.0
 10
56.99704243980235
 20
-191.3959024279259
 30
769.0
 10
57.25108093330168
 20
-189.89822454091274
 30
769.0
 10
57.50039642185784
 20
-188.39975193587907
 30
769.0
 10
57.7451591382693
 20
-186.90053012072013
 30
769.0
 10
57.98552382269876
 20
-185.4006003595274
 30
769.0
 10
58.22163176353398
 20
-183.89999999837636
 30
769.0
  0
LINE
  5
75
330
17
100
AcDbEntity
  8
0
100
AcDbLine
 10
26.31785906202206
 20
-206.1
 30
769.0
 11
54.24000448151208
 21
-206.1
 31
769.0
  0
SPLINE
  5
76
330
17
100
AcDbEntity
  8
0
100
AcDbSpline
 70
0
 71
1
 72
4
 73
2
 74
0
 40
0.0
 40
0.0
 40
1.0
 40
1.0
 10
26.317859057598152
 20
-209.90000060000008
 30
769.0
 10
26.317859057598152
 20
-206.09999939999992
 30
769.0
  0
LINE
  5
77
330
17
100
AcDbEntity
  8
0
100
AcDbLine
 10
26.31785906202206
 20
-209.9
 30
769.0
 11
53.43753038188881
 21
-209.9
 31
769.0
  0
SPLINE
  5
78
330
17
100
AcDbEntity
  8
0
100
AcDbSpline
 70
0
 71
8
 72
32
 73
23
 74
0
 40
0.0
 40
0.0
 40
0.0
 40
0.0
 40
0.0
 40
0.0
 40
0.0
 40
0.0
 40
0.0
 40
0.0657309835104919
 40
0.0657309835104919
 40
0.0657309835104919
 40
0.0657309835104919
 40
0.0657309835104919
 40
0.0657309835104919
 40
0.0657309835104919
 40
0.6479999732057751
 40
0.6479999732057751
 40
0.6479999732057751
 40
0.6479999732057751
 40
0.6479999732057751
 40
0.6479999732057751
 40
0.6479999732057751
 40
1.0
 40
1.0
 40
1.0
 40
1.0
 40
1.0
 40
1.0
 40
1.0
 40
1.0
 40
1.0
 10
47.498200867277916
 20
-232.0999995241994
 30
769.0
 10
47.559388467103076
 20
-231.9212678693589
 30
769.0
 10
47.620234017144924
 20
-231.7424189312793
 30
769.0
 10
47.6807425131192
 20
-231.56345527546227
 30
769.0
 10
47.740919136099635
 20
-231.38437948438093
 30
769.0
 10
47.800769252517945
 20
-231.20519415747964
 30
769.0
 10
47.86029841416381
 20
-231.02590191117432
 30
769.0
 10
47.91951235818488
 20
-230.84650537885213
 30
769.0
 10
48.50021583882051
 20
-229.07694706966862
 30
769.0
 10
48.99765124426768
 20
-227.47895600693073
 30
769.0
 10
49.474240164747414
 20
-225.87452323574647
 30
769.0
 10
49.93244524790619
 20
-224.26473184917177
 30
769.0
 10
50.374188726942485
 20
-222.65040850706907
 30
769.0
 10
50.801049345379525
 20
-221.03217993672823
 30
769.0
 10
51.21432286873447
 20
-219.41049007267807
 30
769.0
 10
51.85742533631375
 20
-216.80335334208806
 30
769.0
 10
52.09515643805272
 20
-215.81995811274857
 30
769.0
 10
52.32856323004256
 20
-214.83552409645227
 30
769.0
 10
52.55786052024255
 20
-213.85012133836034
 30
769.0
 10
52.783240346072006
 20
-212.86381301856056
 30
769.0
 10
53.00487594151856
 20
-211.87665630666123
 30
769.0
 10
53.22292468469723
 20
-210.88870299677532
 30
769.0
 10
53.43753037672207
 20
-209.89999999887849
 30
769.0
  0
LINE
  5
79
330
17
100
AcDbEntity
  8
0
100
AcDbLine
 10
26.31785906202206
 20
-232.1
 30
769.0
 11
47.498202257112034
 21
-232.1
 31
769.0
  0
SPLINE
  5
7A
330
17
100
AcDbEntity
  8
0
100
AcDbSpline
 70
0
 71
1
 72
4
 73
2
 74
0
 40
0.0
 40
0.0
 40
1.0
 40
1.0
 10
26.317859057598152
 20
-235.90000060000008
 30
769.0
 10
26.317859057598152
 20
-232.09999939999992
 30
769.0
  0
LINE
  5
7B
330
17
100
AcDbEntity
  8
0
100
AcDbLine
 10
26.31785906202206
 20
-235.9
 30
769.0
 11
46.11472334735747
 21
-235.9
 31
769.0
  0
SPLINE
  5
7C
330
17
100
AcDbEntity
  8
0
100
AcDbSpline
 70
0
 71
8
 72
88
 73
79
 74
0
 40
0.0
 40
0.0
 40
0.0
 40
0.0
 40
0.0
 40
0.0
 40
0.0
 40
0.0
 40
0.0
 40
0.015951348434831314
 40
0.015951348434831314
 40
0.015951348434831314
 40
0.015951348434831314
 40
0.015951348434831314
 40
0.015951348434831314
 40
0.015951348434831314
 40
0.02972530200273079
 40
0.02972530200273079
 40
0.02972530200273079
 40
0.02972530200273079
 40
0.02972530200273079
 40
0.02972530200273079
 40
0.02972530200273079
 40
0.0491037863452515
 40
0.0491037863452515
 40
0.0491037863452515
 40
0.0491037863452515
 40
0.0491037863452515
 40
0.0491037863452515
 40
0.0491037863452515
 40
0.05276809575136866
 40
0.05276809575136866
 40
0.05276809575136866
 40
0.05276809575136866
 40
0.05276809575136866
 40
0.05276809575136866
 40
0.05276809575136866
 40
0.05643251900665655
 40
0.05643251900665655
 40
0.05643251900665655
 40
0.05643251900665655
 40
0.05643251900665655
 40
0.05643251900665655
 40
0.05643251900665655
 40
0.0644471372767625
 40
0.0644471372767625
 40
0.0644471372767625
 40
0.0644471372767625
 40
0.0644471372767625
 40
0.0644471372767625
 40
0.0644471372767625
 40
0.0736916673647737
 40
0.0736916673647737
 40
0.0736916673647737
 40
0.0736916673647737
 40
0.0736916673647737
 40
0.0736916673647737
 40
0.0736916673647737
 40
0.08041679409671433
 40
0.08041679409671433
 40
0.08041679409671433
 40
0.08041679409671433
 40
0.08041679409671433
 40
0.08041679409671433
 40
0.08041679409671433
 40
0.09290976399774864
 40
0.09290976399774864
 40
0.09290976399774864
 40
0.09290976399774864
 40
0.09290976399774864
 40
0.09290976399774864
 40
0.09290976399774864
 40
0.10955187135200335
 40
0.10955187135200335
 40
0.10955187135200335
 40
0.10955187135200335
 40
0.10955187135200335
 40
0.10955187135200335
 40
0.10955187135200335
 40
0.11277433227922495
 40
0.11277433227922495
 40
0.11277433227922495
 40
0.11277433227922495
 40
0.11277433227922495
 40
0.11277433227922495
 40
0.11277433227922495
 40
0.11277433227922495
 40
0.11277433227922495
 10
5.075020508972898
 20
-230.0573282790601
 30
769.0
 10
5.507274244521901
 20
-231.150247184587
 30
769.0
 10
5.9502137606275305
 20
-232.23888118382385
 30
769.0
 10
6.40468280610064
 20
-233.3228137853309
 30
769.0
 10
6.87161868809273
 20
-234.401503874725
 30
769.0
 10
7.352066029107847
 20
-235.4742798560664
 30
769.0
 10
7.8472098921548525
 20
-236.54032487940034
 30
769.0
 10
8.35842827404011
 20
-237.59865315445177
 30
769.0
 10
9.34409875021101
 20
-239.55425278812274
 30
769.0
 10
9.813986818204068
 20
-240.45367474087476
 30
769.0
 10
10.29811643739694
 20
-241.3456490341849
 30
769.0
 10
10.797667425398515
 20
-242.22924219793066
 30
769.0
 10
11.313940375448569
 20
-243.1032638429233
 30
769.0
 10
11.848388106161192
 20
-243.9662480560063
 30
769.0
 10
12.402672266363098
 20
-244.8164198736039
 30
769.0
 10
13.789273344629734
 20
-246.8266885775278
 30
769.0
 10
14.641663721338212
 20
-247.97026966668528
 30
769.0
 10
15.542713412466
 20
-249.07874580513024
 30
769.0
 10
16.49885748862991
 20
-250.1440145621104
 30
769.0
 10
17.51617159741187
 20
-251.15352260755787
 30
769.0
 10
18.60002591278365
 20
-252.09069228473908
 30
769.0
 10
19.754863971231295
 20
-252.93516733097954
 30
769.0
 10
21.213602346044745
 20
-253.8036987483242
 30
769.0
 10
21.44666394305665
 20
-253.93685388819526
 30
769.0
 10
21.68082561097913
 20
-254.06503170451268
 30
769.0
 10
21.91609720731056
 20
-254.18821527126602
 30
769.0
 10
22.15248858954843
 20
-254.306387662446
 30
769.0
 10
22.390009615189392
 20
-254.41953195204488
 30
769.0
 10
22.62867014172924
 20
-254.52763121405624
 30
769.0
 10
23.108297362429326
 20
-254.73370903223667
 30
769.0
 10
23.34923273160186
 20
-254.83169459207753
 30
769.0
 10
23.591362095083
 20
-254.9245346399905
 30
769.0
 10
23.834673977826604
 20
-255.0123763939699
 30
769.0
 10
24.07914535706572
 20
-255.09515992565304
 30
769.0
 10
24.3247716985589
 20
-255.172667026474
 30
769.0
 10
24.571540317930918
 20
-255.24472061370065
 30
769.0
 10
25.36130141017136
 20
-255.45657260143034
 30
769.0
 10
25.91055563014651
 20
-255.57584003106908
 30
769.0
 10
26.465798151921557
 20
-255.66679659309492
 30
769.0
 10
27.025481622110775
 20
-255.72742375670958
 30
769.0
 10
27.587803117745967
 20
-255.75602680809016
 30
769.0
 10
28.150692408005494
 20
-255.751407970001
 30
769.0
 10
28.711797446056213
 20
-255.71306741279204
 30
769.0
 10
29.91056246079536
 20
-255.55880385719104
 30
769.0
 10
30.547172903788127
 20
-255.43182442567598
 30
769.0
 10
31.17419009810104
 20
-255.2610475632158
 30
769.0
 10
31.788511154384977
 20
-255.04847882223243
 30
769.0
 10
32.38785872900481
 20
-254.79708335501982
 30
769.0
 10
32.970631931645116
 20
-254.51037477601747
 30
769.0
 10
33.53578802734435
 20
-254.19208513793052
 30
769.0
 10
34.480657446487555
 20
-253.59408805908595
 30
769.0
 10
34.86911586832548
 20
-253.32739061460487
 30
769.0
 10
35.24809234565873
 20
-253.04710095455692
 30
769.0
 10
35.61766140830576
 20
-252.75444431100846
 30
769.0
 10
35.97798502436003
 20
-252.45056207253148
 30
769.0
 10
36.32929365070815
 20
-252.1364877521175
 30
769.0
 10
36.67187327842186
 20
-251.81313073225996
 30
769.0
 10
37.626859499376216
 20
-250.86478070092812
 30
769.0
 10
38.21838334588723
 20
-250.21924703109607
 30
769.0
 10
38.78301599695637
 20
-249.5494994713838
 30
769.0
 10
39.322833407041955
 20
-248.85952006822373
 30
769.0
 10
39.839742271721
 20
-248.15255393774615
 30
769.0
 10
40.335540929869055
 20
-247.43115756585834
 30
769.0
 10
40.811943159679544
 20
-246.69721754963956
 30
769.0
 10
41.8816027297499
 20
-244.95922563619325
 30
769.0
 10
42.46072095251096
 20
-243.94707129680322
 30
769.0
 10
43.011647186554974
 20
-242.9189823968828
 30
769.0
 10
43.53720936360957
 20
-241.8776601784708
 30
769.0
 10
44.03976042962657
 20
-240.82523538699147
 30
769.0
 10
44.52133901338783
 20
-239.76335025297738
 30
769.0
 10
44.98372958663401
 20
-238.69318895163582
 30
769.0
 10
45.514673439468304
 20
-237.40684902644443
 30
769.0
 10
45.60070424483941
 20
-237.19654041587728
 30
769.0
 10
45.68663404782117
 20
-236.98458951178975
 30
769.0
 10
45.77246157196204
 20
-236.77099058312177
 30
769.0
 10
45.85818554081048
 20
-236.5557378988133
 30
769.0
 10
45.943804677914926
 20
-236.33882572780442
 30
769.0
 10
46.02931770682379
 20
-236.12024833903513
 30
769.0
 10
46.114723351085466
 20
-235.90000000144565
 30
769.0
  0
SPLINE
  5
7D
330
17
100
AcDbEntity
  8
0
100
AcDbSpline
 70
0
 71
8
 72
417
 73
408
 74
0
 40
0.0
 40
0.0
 40
0.0
 40
0.0
 40
0.0
 40
0.0
 40
0.0
 40
0.0
 40
0.0
 40
0.00226806957455464
 40
0.00226806957455464
 40
0.00226806957455464
 40
0.00226806957455464
 40
0.00226806957455464
 40
0.00226806957455464
 40
0.00226806957455464
 40
0.0046371103017542915
 40
0.0046371103017542915
 40
0.0046371103017542915
 40
0.0046371103017542915
 40
0.0046371103017542915
 40
0.0046371103017542915
 40
0.0046371103017542915
 40
0.007243055101727393
 40
0.007243055101727393
 40
0.007243055101727393
 40
0.007243055101727393
 40
0.007243055101727393
 40
0.007243055101727393
 40
0.007243055101727393
 40
0.008901383610793333
 40
0.008901383610793333
 40
0.008901383610793333
 40
0.008901383610793333
 40
0.008901383610793333
 40
0.008901383610793333
 40
0.008901383610793333
 40
0.011270424338013663
 40
0.011270424338013663
 40
0.011270424338013663
 40
0.011270424338013663
 40
0.011270424338013663
 40
0.011270424338013663
 40
0.011270424338013663
 40
0.013876369137923134
 40
0.013876369137923134
 40
0.013876369137923134
 40
0.013876369137923134
 40
0.013876369137923134
 40
0.013876369137923134
 40
0.013876369137923134
 40
0.0184817526924241
 40
0.0184817526924241
 40
0.0184817526924241
 40
0.0184817526924241
 40
0.0184817526924241
 40
0.0184817526924241
 40
0.0184817526924241
 40
0.02611623234309218
 40
0.02611623234309218
 40
0.02611623234309218
 40
0.02611623234309218
 40
0.02611623234309218
 40
0.02611623234309218
 40
0.02611623234309218
 40
0.0423611094003341
 40
0.0423611094003341
 40
0.0423611094003341
 40
0.0423611094003341
 40
0.0423611094003341
 40
0.0423611094003341
 40
0.0423611094003341
 40
0.05329902961784054
 40
0.05329902961784054
 40
0.05329902961784054
 40
0.05329902961784054
 40
0.05329902961784054
 40
0.05329902961784054
 40
0.05329902961784054
 40
0.05904608142959289
 40
0.05904608142959289
 40
0.05904608142959289
 40
0.05904608142959289
 40
0.05904608142959289
 40
0.05904608142959289
 40
0.05904608142959289
 40
0.0660800835347691
 40
0.0660800835347691
 40
0.0660800835347691
 40
0.0660800835347691
 40
0.0660800835347691
 40
0.0660800835347691
 40
0.0660800835347691
 40
0.10039679438853286
 40
0.10039679438853286
 40
0.10039679438853286
 40
0.10039679438853286
 40
0.10039679438853286
 40
0.10039679438853286
 40
0.10039679438853286
 40
0.18134827927358146
 40
0.18134827927358146
 40
0.18134827927358146
 40
0.18134827927358146
 40
0.18134827927358146
 40
0.18134827927358146
 40
0.18134827927358146
 40
0.24492976600759941
 40
0.24492976600759941
 40
0.24492976600759941
 40
0.24492976600759941
 40
0.24492976600759941
 40
0.24492976600759941
 40
0.24492976600759941
 40
0.3085471323758536
 40
0.3085471323758536
 40
0.3085471323758536
 40
0.3085471323758536
 40
0.3085471323758536
 40
0.3085471323758536
 40
0.3085471323758536
 40
0.35772505604840166
 40
0.35772505604840166
 40
0.35772505604840166
 40
0.35772505604840166
 40
0.35772505604840166
 40
0.35772505604840166
 40
0.35772505604840166
 40
0.4001066282382197
 40
0.4001066282382197
 40
0.4001066282382197
 40
0.4001066282382197
 40
0.4001066282382197
 40
0.4001066282382197
 40
0.4001066282382197
 40
0.4289424624143913
 40
0.4289424624143913
 40
0.4289424624143913
 40
0.4289424624143913
 40
0.4289424624143913
 40
0.4289424624143913
 40
0.4289424624143913
 40
0.4402277646859904
 40
0.4402277646859904
 40
0.4402277646859904
 40
0.4402277646859904
 40
0.4402277646859904
 40
0.4402277646859904
 40
0.4402277646859904
 40
0.4511343647108095
 40
0.4511343647108095
 40
0.4511343647108095
 40
0.4511343647108095
 40
0.4511343647108095
 40
0.4511343647108095
 40
0.4511343647108095
 40
0.4637529641252493
 40
0.4637529641252493
 40
0.4637529641252493
 40
0.4637529641252493
 40
0.4637529641252493
 40
0.4637529641252493
 40
0.4637529641252493
 40
0.47021180805745444
 40
0.47021180805745444
 40
0.47021180805745444
 40
0.47021180805745444
 40
0.47021180805745444
 40
0.47021180805745444
 40
0.47021180805745444
 40
0.47376559471486845
 40
0.47376559471486845
 40
0.47376559471486845
 40
0.47376559471486845
 40
0.47376559471486845
 40
0.47376559471486845
 40
0.47376559471486845
 40
0.4773193813722769
 40
0.4773193813722769
 40
0.4773193813722769
 40
0.4773193813722769
 40
0.4773193813722769
 40
0.4773193813722769
 40
0.4773193813722769
 40
0.4790962747009839
 40
0.4790962747009839
 40
0.4790962747009839
 40
0.4790962747009839
 40
0.4790962747009839
 40
0.4790962747009839
 40
0.4790962747009839
 40
0.48205776358217767
 40
0.48205776358217767
 40
0.48205776358217767
 40
0.48205776358217767
 40
0.48205776358217767
 40
0.48205776358217767
 40
0.48205776358217767
 40
0.4850192524633887
 40
0.4850192524633887
 40
0.4850192524633887
 40
0.4850192524633887
 40
0.4850192524633887
 40
0.4850192524633887
 40
0.4850192524633887
 40
0.488176697824734
 40
0.488176697824734
 40
0.488176697824734
 40
0.488176697824734
 40
0.488176697824734
 40
0.488176697824734
 40
0.488176697824734
 40
0.49118168139835827
 40
0.49118168139835827
 40
0.49118168139835827
 40
0.49118168139835827
 40
0.49118168139835827
 40
0.49118168139835827
 40
0.49118168139835827
 40
0.494153656910493
 40
0.494153656910493
 40
0.494153656910493
 40
0.494153656910493
 40
0.494153656910493
 40
0.494153656910493
 40
0.494153656910493
 40
0.49712563242262514
 40
0.49712563242262514
 40
0.49712563242262514
 40
0.49712563242262514
 40
0.49712563242262514
 40
0.49712563242262514
 40
0.49712563242262514
 40
0.49960227868273394
 40
0.49960227868273394
 40
0.49960227868273394
 40
0.49960227868273394
 40
0.49960227868273394
 40
0.49960227868273394
 40
0.49960227868273394
 40
0.502078924942853
 40
0.502078924942853
 40
0.502078924942853
 40
0.502078924942853
 40
0.502078924942853
 40
0.502078924942853
 40
0.502078924942853
 40
0.5068935136077577
 40
0.5068935136077577
 40
0.5068935136077577
 40
0.5068935136077577
 40
0.5068935136077577
 40
0.5068935136077577
 40
0.5068935136077577
 40
0.5148748313237365
 40
0.5148748313237365
 40
0.5148748313237365
 40
0.5148748313237365
 40
0.5148748313237365
 40
0.5148748313237365
 40
0.5148748313237365
 40
0.5318577490080274
 40
0.5318577490080274
 40
0.5318577490080274
 40
0.5318577490080274
 40
0.5318577490080274
 40
0.5318577490080274
 40
0.5318577490080274
 40
0.5432926079748692
 40
0.5432926079748692
 40
0.5432926079748692
 40
0.5432926079748692
 40
0.5432926079748692
 40
0.5432926079748692
 40
0.5432926079748692
 40
0.5493007638415919
 40
0.5493007638415919
 40
0.5493007638415919
 40
0.5493007638415919
 40
0.5493007638415919
 40
0.5493007638415919
 40
0.5493007638415919
 40
0.5566543389092361
 40
0.5566543389092361
 40
0.5566543389092361
 40
0.5566543389092361
 40
0.5566543389092361
 40
0.5566543389092361
 40
0.5566543389092361
 40
0.5911262977546186
 40
0.5911262977546186
 40
0.5911262977546186
 40
0.5911262977546186
 40
0.5911262977546186
 40
0.5911262977546186
 40
0.5911262977546186
 40
0.6771212406214783
 40
0.6771212406214783
 40
0.6771212406214783
 40
0.6771212406214783
 40
0.6771212406214783
 40
0.6771212406214783
 40
0.6771212406214783
 40
0.743522074052497
 40
0.743522074052497
 40
0.743522074052497
 40
0.743522074052497
 40
0.743522074052497
 40
0.743522074052497
 40
0.743522074052497
 40
0.8099136505324016
 40
0.8099136505324016
 40
0.8099136505324016
 40
0.8099136505324016
 40
0.8099136505324016
 40
0.8099136505324016
 40
0.8099136505324016
 40
0.8612099864381934
 40
0.8612099864381934
 40
0.8612099864381934
 40
0.8612099864381934
 40
0.8612099864381934
 40
0.8612099864381934
 40
0.8612099864381934
 40
0.9054031904592476
 40
0.9054031904592476
 40
0.9054031904592476
 40
0.9054031904592476
 40
0.9054031904592476
 40
0.9054031904592476
 40
0.9054031904592476
 40
0.9354660804232573
 40
0.9354660804232573
 40
0.9354660804232573
 40
0.9354660804232573
 40
0.9354660804232573
 40
0.9354660804232573
 40
0.9354660804232573
 40
0.9472310846595907
 40
0.9472310846595907
 40
0.9472310846595907
 40
0.9472310846595907
 40
0.9472310846595907
 40
0.9472310846595907
 40
0.9472310846595907
 40
0.9586012935406245
 40
0.9586012935406245
 40
0.9586012935406245
 40
0.9586012935406245
 40
0.9586012935406245
 40
0.9586012935406245
 40
0.9586012935406245
 40
0.971756283420894
 40
0.971756283420894
 40
0.971756283420894
 40
0.971756283420894
 40
0.971756283420894
 40
0.971756283420894
 40
0.971756283420894
 40
0.9784896939264947
 40
0.9784896939264947
 40
0.9784896939264947
 40
0.9784896939264947
 40
0.9784896939264947
 40
0.9784896939264947
 40
0.9784896939264947
 40
0.982194560792742
 40
0.982194560792742
 40
0.982194560792742
 40
0.982194560792742
 40
0.982194560792742
 40
0.982194560792742
 40
0.982194560792742
 40
0.9858994276589861
 40
0.9858994276589861
 40
0.9858994276589861
 40
0.9858994276589861
 40
0.9858994276589861
 40
0.9858994276589861
 40
0.9858994276589861
 40
0.9877518610921074
 40
0.9877518610921074
 40
0.9877518610921074
 40
0.9877518610921074
 40
0.9877518610921074
 40
0.9877518610921074
 40
0.9877518610921074
 40
0.9908392501473096
 40
0.9908392501473096
 40
0.9908392501473096
 40
0.9908392501473096
 40
0.9908392501473096
 40
0.9908392501473096
 40
0.9908392501473096
 40
0.9939266392025122
 40
0.9939266392025122
 40
0.9939266392025122
 40
0.9939266392025122
 40
0.9939266392025122
 40
0.9939266392025122
 40
0.9939266392025122
 40
0.9960878115411547
 40
0.9960878115411547
 40
0.9960878115411547
 40
0.9960878115411547
 40
0.9960878115411547
 40
0.9960878115411547
 40
0.9960878115411547
 40
1.0
 40
1.0
 40
1.0
 40
1.0
 40
1.0
 40
1.0
 40
1.0
 40
1.0
 40
1.0
 10
5.0750205089728935
 20
230.0573282790601
 30
769.0
 10
5.074878416609462
 20
230.05747042189006
 30
769.0
 10
5.0749065814304615
 20
230.05727034893167
 30
769.0
 10
5.074996093950487
 20
230.05704045652635
 30
769.0
 10
5.075072889279987
 20
230.05693495426405
 30
769.0
 10
5.075097747125268
 20
230.05694986498332
 30
769.0
 10
5.075066291788493
 20
230.05692302477112
 30
769.0
 10
5.075008992167681
 20
230.05653408296274
 30
769.0
 10
5.074972537561821
 20
230.0540201821747
 30
769.0
 10
5.074944908261713
 20
230.0521148723332
 30
769.0
 10
5.074905733954911
 20
230.04941342162738
 30
769.0
 10
5.074852474739943
 20
230.0457406790668
 30
769.0
 10
5.074782590715338
 20
230.0409214936613
 30
769.0
 10
5.074693541979621
 20
230.0347807144209
 30
769.0
 10
5.074582788631322
 20
230.0271431903553
 30
769.0
 10
5.074299293120381
 20
230.00759340860552
 30
769.0
 10
5.074121459609785
 20
229.99533005280006
 30
769.0
 10
5.073910909628323
 20
229.98081057709012
 30
769.0
 10
5.0736642625671315
 20
229.9638018555078
 30
769.0
 10
5.0733781378173575
 20
229.9440707620851
 30
769.0
 10
5.073049154770135
 20
229.921384170854
 30
769.0
 10
5.0726739328166035
 20
229.89550895584674
 30
769.0
 10
5.071978737686014
 20
229.84756846807196
 30
769.0
 10
5.071688290170868
 20
229.82753927779663
 30
769.0
 10
5.0713768776162675
 20
229.80606434347982
 30
769.0
 10
5.071043628836007
 20
229.78308358833203
 30
769.0
 10
5.070687672643883
 20
229.75853693556374
 30
769.0
 10
5.07030813785369
 20
229.73236430838517
 30
769.0
 10
5.069904153279225
 20
229.7045056300067
 30
769.0
 10
5.0688615540986435
 20
229.63260824311303
 30
769.0
 10
5.068196585013043
 20
229.58675213607768
 30
769.0
 10
5.0674774005760135
 20
229.5371573515428
 30
769.0
 10
5.066701460886083
 20
229.4836487385186
 30
769.0
 10
5.065866226041783
 20
229.42605114601497
 30
769.0
 10
5.064969156141638
 20
229.36418942304155
 30
769.0
 10
5.064007711284168
 20
229.2978884186077
 30
769.0
 10
5.061848155880003
 20
229.1489660011499
 30
769.0
 10
5.06063599321297
 20
229.06537555731222
 30
769.0
 10
5.059339482957937
 20
228.9759685242415
 30
769.0
 10
5.057955244506045
 20
228.88051177597006
 30
769.0
 10
5.056479897248437
 20
228.77877218653006
 30
769.0
 10
5.054910060576251
 20
228.6705166299535
 30
769.0
 10
5.053242353880626
 20
228.55551198027243
 30
769.0
 10
5.04834718797494
 20
228.2179425254091
 30
769.0
 10
5.045218505744901
 20
228.00218935683185
 30
769.0
 10
5.042088202708051
 20
227.78632441782938
 30
769.0
 10
5.038956744415888
 20
227.57037981267834
 30
769.0
 10
5.035824444119216
 20
227.35437714309964
 30
769.0
 10
5.032691503627276
 20
227.13833032583216
 30
769.0
 10
5.029557994211611
 20
226.92224427570466
 30
769.0
 10
5.021228451112557
 20
226.34784100166172
 30
769.0
 10
5.0160317137294035
 20
225.98947525076977
 30
769.0
 10
5.010834067562656
 20
225.63104683040484
 30
769.0
 10
5.005635739541574
 20
225.27257138950372
 30
769.0
 10
5.000436887558569
 20
224.9140598163144
 30
769.0
 10
4.995237618339651
 20
224.55551947066374
 30
769.0
 10
4.990037986449784
 20
224.19695411529108
 30
769.0
 10
4.9737733416904035
 20
223.07534815325545
 30
769.0
 10
4.962707310264008
 20
222.31223730715405
 30
769.0
 10
4.951640357750815
 20
221.5490629431192
 30
769.0
 10
4.940572736927666
 20
220.78584249260473
 30
769.0
 10
4.929504619335103
 20
220.0225877849916
 30
769.0
 10
4.9184361171819075
 20
219.2593065581573
 30
769.0
 10
4.907367277183875
 20
218.49600203363664
 30
769.0
 10
4.888845064224388
 20
217.21871471548147
 30
769.0
 10
4.881155219987012
 20
216.6884249199548
 30
769.0
 10
4.873224183011407
 20
216.1415025316356
 30
769.0
 10
4.865047564347836
 20
215.57764488961323
 30
769.0
 10
4.85662097504655
 20
214.99654933297666
 30
769.0
 10
4.847940026157805
 20
214.3979132008147
 30
769.0
 10
4.839000328731853
 20
213.7814338322162
 30
769.0
 10
4.824962098423131
 20
212.81336087128602
 30
769.0
 10
4.820126711550118
 20
212.47991138893238
 30
769.0
 10
4.815291284305761
 20
212.14646022386088
 30
769.0
 10
4.810455795104277
 20
211.81300747360348
 30
769.0
 10
4.8056202496682525
 20
211.47955322857175
 30
769.0
 10
4.800784681028638
 20
211.1460975720572
 30
769.0
 10
4.795949149524753
 20
210.8126405802312
 30
769.0
 10
4.785195532534865
 20
210.07105200312282
 30
769.0
 10
4.77918504067989
 20
209.6565316283842
 30
769.0
 10
4.773083627307764
 20
209.2356811850014
 30
769.0
 10
4.7668926524868915
 20
208.80856066004662
 30
769.0
 10
4.76061347628568
 20
208.37523004059187
 30
769.0
 10
4.75424745877253
 20
207.93574931370904
 30
769.0
 10
4.7477959600158375
 20
207.49017846646996
 30
769.0
 10
4.70937508100998
 20
204.83535661137444
 30
769.0
 10
4.677564301646455
 20
202.63210084936892
 30
769.0
 10
4.645867735525922
 20
200.42882014330834
 30
769.0
 10
4.614304868671598
 20
198.22551997061342
 30
769.0
 10
4.582890035404542
 20
196.02220409974052
 30
769.0
 10
4.551635307871071
 20
193.8188751275492
 30
769.0
 10
4.520549376034652
 20
191.61553429901852
 30
769.0
 10
4.416728320852514
 20
184.21457934330633
 30
769.0
 10
4.344801796790074
 20
179.0169188982284
 30
769.0
 10
4.273967264832896
 20
173.8192155649418
 30
769.0
 10
4.204295862641028
 20
168.62147608895347
 30
769.0
 10
4.13586641869602
 20
163.42370575146785
 30
769.0
 10
4.068757360928991
 20
158.22590712022722
 30
769.0
 10
4.00305886593959
 20
153.02808167354507
 30
769.0
 10
3.8884612766600166
 20
143.74769554919715
 30
769.0
 10
3.8389823913066543
 20
139.6651459365571
 30
769.0
 10
3.7904871608511854
 20
135.58258108951088
 30
769.0
 10
3.7430309841263907
 20
131.50000141074287
 30
769.0
 10
3.6966757867791817
 20
127.41740720322815
 30
769.0
 10
3.6514918144021813
 20
123.33479868859096
 30
769.0
 10
3.607560165906646
 20
119.2521760053597
 30
769.0
 10
3.5223679377572723
 20
111.08459849831304
 30
769.0
 10
3.481111749883927
 20
106.99964373449592
 30
769.0
 10
3.4411113677639436
 20
102.91467693077203
 30
769.0
 10
3.4022848534938324
 20
98.82969992953824
 30
769.0
 10
3.364561294562184
 20
94.74471442577024
 30
769.0
 10
3.327878289439865
 20
90.65972201777029
 30
769.0
 10
3.2921800912176415
 20
86.57472426337623
 30
769.0
 10
3.2305431544875436
 20
79.33190743887819
 30
769.0
 10
3.2042283315856595
 20
76.17408995716802
 30
769.0
 10
3.178448717845958
 20
73.01627101315239
 30
769.0
 10
3.153182943202473
 20
69.85845140370854
 30
769.0
 10
3.128411192394087
 20
66.700632012759
 30
769.0
 10
3.1041148134939642
 20
63.54281384535013
 30
769.0
 10
3.080275832837212
 20
60.38499808899065
 30
769.0
 10
3.0367107068675967
 20
54.505781505888436
 30
769.0
 10
3.0168714762943183
 20
51.78437991467422
 30
769.0
 10
2.9973471818131037
 20
49.06298218143091
 30
769.0
 10
2.9781264734092003
 20
46.34158938326141
 30
769.0
 10
2.959197400654829
 20
43.62020305828362
 30
769.0
 10
2.940547272794566
 20
40.89882523753293
 30
769.0
 10
2.922161546224429
 20
38.177458656392474
 30
769.0
 10
2.8916770013212107
 20
33.60453778189789
 30
769.0
 10
2.879446996712648
 20
31.752976093425602
 30
769.0
 10
2.8673235727689415
 20
29.901422998228163
 30
769.0
 10
2.8552996909819433
 20
28.04987986694934
 30
769.0
 10
2.8433651955051955
 20
26.198349411427845
 30
769.0
 10
2.831507699953299
 20
24.346835514126887
 30
769.0
 10
2.819709979465817
 20
22.495343789586425
 30
769.0
 10
2.803329260261924
 20
19.919290155966166
 30
769.0
 10
2.798845116300561
 20
19.21353444363416
 30
769.0
 10
2.794483439805389
 20
18.526655621478568
 30
769.0
 10
2.790234442528126
 20
17.85858055505011
 30
769.0
 10
2.7861106537470857
 20
17.209122677034287
 30
769.0
 10
2.782099115472505
 20
16.577985083647775
 30
769.0
 10
2.778202843316817
 20
15.964757916268923
 30
769.0
 10
2.7707578610728576
 20
14.793076296734109
 30
769.0
 10
2.767098936868898
 20
14.217239565823613
 30
769.0
 10
2.7634400598001116
 20
13.641410252984832
 30
769.0
 10
2.759781235598063
 20
13.065589260244721
 30
769.0
 10
2.7561224716866057
 20
12.489777755959663
 30
769.0
 10
2.752463777462727
 20
11.91397721901499
 30
769.0
 10
2.7488051647997915
 20
11.338189518025098
 30
769.0
 10
2.7409138587115565
 20
10.096266032551522
 30
769.0
 10
2.736681220652547
 20
9.430138961545431
 30
769.0
 10
2.7324487371075437
 20
8.764036207739807
 30
769.0
 10
2.728216429475501
 20
8.097961138904793
 30
769.0
 10
2.7239843490079414
 20
7.431921820918237
 30
769.0
 10
2.7197525740263213
 20
6.765930579892654
 30
769.0
 10
2.715521219906958
 20
6.100005573640338
 30
769.0
 10
2.7091249837665257
 20
5.09337425144631
 30
769.0
 10
2.706959676819818
 20
4.752601061266866
 30
769.0
 10
2.7047945694160624
 20
4.411859274895296
 30
769.0
 10
2.702629688479515
 20
4.071153129641203
 30
769.0
 10
2.7004651015892263
 20
3.7304932610044226
 30
769.0
 10
2.6983009125219053
 20
3.389896001226063
 30
769.0
 10
2.6961372745717527
 20
3.0493854755530165
 30
769.0
 10
2.6927844349023737
 20
2.521719930474533
 30
769.0
 10
2.691657093146384
 20
2.3443003516032768
 30
769.0
 10
2.6905905082416064
 20
2.176442606930339
 30
769.0
 10
2.6895827541783506
 20
2.017843583556368
 30
769.0
 10
2.6886319049469245
 20
1.868200168581822
 30
769.0
 10
2.687736034537634
 20
1.7272092491069666
 30
769.0
 10
2.6868932169407866
 20
1.5945677122318782
 30
769.0
 10
2.6853098353525846
 20
1.3453771778811894
 30
769.0
 10
2.6845692713612372
 20
1.2288281804062051
 30
769.0
 10
2.683877908162945
 20
1.1200223397317575
 30
769.0
 10
2.683233819748019
 20
1.0186565429581373
 30
769.0
 10
2.682635080106765
 20
0.9244276771856537
 30
769.0
 10
2.6820797632294906
 20
0.8370326295146343
 30
769.0
 10
2.6815659431065026
 20
0.7561682870454262
 30
769.0
 10
2.680854569038911
 20
0.6442131617948234
 30
769.0
 10
2.680627337035862
 20
0.6084516847869098
 30
769.0
 10
2.680409756967751
 20
0.574209216742111
 30
769.0
 10
2.6802015880833645
 20
0.5414478685479147
 30
769.0
 10
2.6800025896314925
 20
0.5101297510918406
 30
769.0
 10
2.6798125208609225
 20
0.48021697526143986
 30
769.0
 10
2.6796311410204425
 20
0.4516716519442952
 30
769.0
 10
2.67916998992284
 20
0.3790962921673185
 30
769.0
 10
2.678905237650394
 20
0.3374299239758127
 30
769.0
 10
2.6786628379525563
 20
0.29928137489556905
 30
769.0
 10
2.678441676240388
 20
0.2644752323687555
 30
769.0
 10
2.678240637924945
 20
0.23283608383764173
 30
769.0
 10
2.6780586084172833
 20
0.20418851674460015
 30
769.0
 10
2.6778944731284615
 20
0.17835711853210512
 30
769.0
 10
2.677599761810619
 20
0.13197583475322008
 30
769.0
 10
2.677469185781594
 20
0.11142594918649502
 30
769.0
 10
2.6773542747935264
 20
0.09334140738491216
 30
769.0
 10
2.6772539142574696
 20
0.0775467967908136
 30
769.0
 10
2.6771669895844843
 20
0.0638667048465302
 30
769.0
 10
2.677092386185627
 20
0.05212571899438144
 30
769.0
 10
2.6770289894719554
 20
0.042148426676675406
 30
769.0
 10
2.676918853164862
 20
0.02481531795522329
 30
769.0
 10
2.6768679443049472
 20
0.016803347814513158
 30
769.0
 10
2.6768264029524844
 20
0.01026562381009504
 30
769.0
 10
2.6767961961007063
 20
0.005511708777189842
 30
769.0
 10
2.6767772022799363
 20
0.002522485975439233
 30
769.0
 10
2.6767673012686
 20
0.0009642776922953138
 30
769.0
 10
2.6767631642936953
 20
0.00031320596408335183
 30
769.0
 10
2.676760393693849
 20
-0.00012282743512415095
 30
769.0
 10
2.6767621565730457
 20
4.889250175210691e-05
 30
769.0
 10
2.6767596024664546
 20
0.0001954349823520829
 30
769.0
 10
2.6767611116070924
 20
-6.584898045502996e-05
 30
769.0
 10
2.6767691705531993
 20
-0.0011754841701936414
 30
769.0
 10
2.676783556180301
 20
-0.0035512012852265684
 30
769.0
 10
2.6768084105035124
 20
-0.007433995599313903
 30
769.0
 10
2.676875634983131
 20
-0.01801369674183207
 30
769.0
 10
2.6769195671050463
 20
-0.02492767693251657
 30
769.0
 10
2.6769759307440677
 20
-0.03379811311194204
 30
769.0
 10
2.6770466519098903
 20
-0.04492811817976587
 30
769.0
 10
2.677133656612204
 20
-0.05862080503564674
 30
769.0
 10
2.6772388708607027
 20
-0.07517928657924447
 30
769.0
 10
2.677364220665079
 20
-0.09490667571022016
 30
769.0
 10
2.67765904340497
 20
-0.14130549494622355
 30
769.0
 10
2.6778285163404867
 20
-0.16797692505133657
 30
769.0
 10
2.6780219768512663
 20
-0.1984234885431846
 30
769.0
 10
2.6782413509470016
 20
-0.2329482983213982
 30
769.0
 10
2.678488564637385
 20
-0.27185446728562923
 30
769.0
 10
2.6787655439321094
 20
-0.31544510833555045
 30
769.0
 10
2.6790742148408664
 20
-0.3640233343708558
 30
769.0
 10
2.6797017438170854
 20
-0.46278302822489076
 30
769.0
 10
2.6800103298328537
 20
-0.5113478939120029
 30
769.0
 10
2.6803433760095974
 20
-0.5637622679102938
 30
769.0
 10
2.6807019969362567
 20
-0.6202015627774498
 30
769.0
 10
2.6810873072017762
 20
-0.6808411910711447
 30
769.0
 10
2.6815004213950964
 20
-0.7458565653490421
 30
769.0
 10
2.6819424541051617
 20
-0.8154230981687932
 30
769.0
 10
2.6828865857366684
 20
-0.9640093060076111
 30
769.0
 10
2.683388684658107
 20
-1.0430289810263247
 30
769.0
 10
2.683921931274175
 20
-1.1269506397021711
 30
769.0
 10
2.6844874401738146
 20
-1.21594969459302
 30
769.0
 10
2.6850863259459694
 20
-1.3102015582566204
 30
769.0
 10
2.6857197031795828
 20
-1.4098816432505996
 30
769.0
 10
2.686388686463596
 20
-1.515165362132464
 30
769.0
 10
2.688466275490148
 20
-1.8421336201605705
 30
769.0
 10
2.6898392430920146
 20
-2.058209475084709
 30
769.0
 10
2.6912129199683497
 20
-2.274396954733131
 30
769.0
 10
2.692587102387662
 20
-2.4906639960412917
 30
769.0
 10
2.6939616532688935
 20
-2.706989025406912
 30
769.0
 10
2.6953364842988843
 20
-2.9233581442564756
 30
769.0
 10
2.6967115642896973
 20
-3.1397664442046924
 30
769.0
 10
2.7003668305962374
 20
-3.715027499978497
 30
769.0
 10
2.7026473248505845
 20
-4.0739287187717395
 30
769.0
 10
2.704928216792122
 20
-4.432892525069505
 30
769.0
 10
2.707209407111314
 20
-4.791903289638469
 30
769.0
 10
2.7094908267160847
 20
-5.15095013887505
 30
769.0
 10
2.711772428904954
 20
-5.510025722975939
 30
769.0
 10
2.714054189796017
 20
-5.86912628340583
 30
769.0
 10
2.721191630671245
 20
-6.992407442444939
 30
769.0
 10
2.726047756375168
 20
-7.756658187847492
 30
769.0
 10
2.730904285146208
 20
-8.520972367419656
 30
769.0
 10
2.735761106368945
 20
-9.285332572669915
 30
769.0
 10
2.7406181449773235
 20
-10.049726989789502
 30
769.0
 10
2.7454753518688833
 20
-10.814147891086535
 30
769.0
 10
2.750332706600808
 20
-11.578592059317227
 30
769.0
 10
2.7584608362570333
 20
-12.857786529810722
 30
769.0
 10
2.7618353826516184
 20
-13.388868251061247
 30
769.0
 10
2.7653157720334036
 20
-13.936607403934142
 30
769.0
 10
2.7689039304120806
 20
-14.50130710132914
 30
769.0
 10
2.7726017837973433
 20
-15.083270456145922
 30
769.0
 10
2.7764112581988836
 20
-15.682800581284148
 30
769.0
 10
2.7803342796263935
 20
-16.30020058964345
 30
769.0
 10
2.786494698310233
 20
-17.269719267320568
 30
769.0
 10
2.788616668258932
 20
-17.60366672480783
 30
769.0
 10
2.7907386329417077
 20
-17.937615863125302
 30
769.0
 10
2.792860568776887
 20
-18.271566585350605
 30
769.0
 10
2.794982479595086
 20
-18.605518801098867
 30
769.0
 10
2.797104396639203
 20
-18.939472426522723
 30
769.0
 10
2.7992263785644242
 20
-19.273427384312328
 30
769.0
 10
2.8039458580678938
 20
-20.01612335396421
 30
769.0
 10
2.806584248889143
 20
-20.431262562824937
 30
769.0
 10
2.809263790480159
 20
-20.85274097405271
 30
769.0
 10
2.811984589419135
 20
-21.280498331422674
 30
769.0
 10
2.81474675228426
 20
-21.714474378709927
 30
769.0
 10
2.8175503856537256
 20
-22.154608859689525
 30
769.0
 10
2.8203955961057208
 20
-22.600841518136473
 30
769.0
 10
2.836815621264091
 20
-25.173258103899485
 30
769.0
 10
2.8504180682075426
 20
-27.293434866611584
 30
769.0
 10
2.8641248876617436
 20
-29.4136327878314
 30
769.0
 10
2.877953855005754
 20
-31.53384648552347
 30
769.0
 10
2.8919180486453193
 20
-33.65407222128981
 30
769.0
 10
2.9060284145755673
 20
-35.77430736564759
 30
769.0
 10
2.920292976662859
 20
-37.894550537508536
 30
769.0
 10
2.9707079089262503
 20
-45.30405145274466
 30
769.0
 10
3.0077032936451813
 20
-50.59334204398385
 30
769.0
 10
3.045820057450581
 20
-55.882654066406786
 30
769.0
 10
3.085132141849117
 20
-61.17197877566039
 30
769.0
 10
3.1257227913895163
 20
-66.4613086999639
 30
769.0
 10
3.167673988811929
 20
-71.75063945749085
 30
769.0
 10
3.2110807471689773
 20
-77.03996754139186
 30
769.0
 10
3.2907760278310976
 20
-86.4134318510338
 30
769.0
 10
3.3264329599680313
 20
-90.49756916092159
 30
769.0
 10
3.363072627079439
 20
-94.58170117395808
 30
769.0
 10
3.400750633048313
 20
-98.66582633227891
 30
769.0
 10
3.439529163711553
 20
-102.74994303982481
 30
769.0
 10
3.4794788007246513
 20
-106.83404960646432
 30
769.0
 10
3.5206810919949434
 20
-110.91814419646343
 30
769.0
 10
3.605776733359681
 20
-119.08573600379461
 30
769.0
 10
3.6496725745248084
 20
-123.16923308928219
 30
769.0
 10
3.694823885356961
 20
-127.25271600370232
 30
769.0
 10
3.7411491794360603
 20
-131.336184610018
 30
769.0
 10
3.788577882059049
 20
-135.41963868867614
 30
769.0
 10
3.837047853176112
 20
-139.50307793894544
 30
769.0
 10
3.8865035519478384
 20
-143.58650196113388
 30
769.0
 10
3.97582882710712
 20
-150.82488699199683
 30
769.0
 10
4.015321315747293
 20
-153.97985428197933
 30
769.0
 10
4.055349194111059
 20
-157.13481185551004
 30
769.0
 10
4.095891177959149
 20
-160.28975935943868
 30
769.0
 10
4.1369275199568385
 20
-163.44469632086893
 30
769.0
 10
4.1784396204049035
 20
-166.59962212111773
 30
769.0
 10
4.220409542290505
 20
-169.75453594435282
 30
769.0
 10
4.299356715749447
 20
-175.62747046177364
 30
769.0
 10
4.336220556249749
 20
-178.3454942922886
 30
769.0
 10
4.373399476094152
 20
-181.06350767819805
 30
769.0
 10
4.410882139001146
 20
-183.7815097770046
 30
769.0
 10
4.448656591635452
 20
-186.499499296949
 30
769.0
 10
4.486710123746183
 20
-189.2174744678092
 30
769.0
 10
4.525028149248493
 20
-191.9354328522324
 30
769.0
 10
4.589822963571274
 20
-196.50227646946513
 30
769.0
 10
4.616168504633679
 20
-198.35117185726278
 30
769.0
 10
4.64262055771365
 20
-200.20005641176394
 30
769.0
 10
4.669172056094618
 20
-202.04892890751128
 30
769.0
 10
4.695812782300095
 20
-203.897786840898
 30
769.0
 10
4.722530259077889
 20
-205.74662658273968
 30
769.0
 10
4.74930712542723
 20
-207.595442871302
 30
769.0
 10
4.786596328801519
 20
-210.16774104482346
 30
769.0
 10
4.796815681173678
 20
-210.8724444969847
 30
769.0
 10
4.806764224052547
 20
-211.55829882783195
 30
769.0
 10
4.816433686387556
 20
-212.2253775787069
 30
769.0
 10
4.8258405031038185
 20
-212.87386691873718
 30
769.0
 10
4.83497788871715
 20
-213.5040635470551
 30
769.0
 10
4.843857402237369
 20
-214.11637644439284
 30
769.0
 10
4.860822868012209
 20
-215.28631085386098
 30
769.0
 10
4.869160747300783
 20
-215.8612889895134
 30
769.0
 10
4.877498518876482
 20
-216.436259697312
 30
769.0
 10
4.885836169641163
 20
-217.01122207401218
 30
769.0
 10
4.894173682629587
 20
-217.58617494969513
 30
769.0
 10
4.902511036368052
 20
-218.16111684353947
 30
769.0
 10
4.910848203724016
 20
-218.73604588449163
 30
769.0
 10
4.928830746760007
 20
-219.97611769547282
 30
769.0
 10
4.9384759959191165
 20
-220.64125174065006
 30
769.0
 10
4.948120891980361
 20
-221.30636143628388
 30
769.0
 10
4.95776538604735
 20
-221.9714434104914
 30
769.0
 10
4.967409360998632
 20
-222.6364895866057
 30
769.0
 10
4.977052637852535
 20
-223.30148762209356
 30
769.0
 10
4.986694952956854
 20
-223.96641933556322
 30
769.0
 10
5.001270557389444
 20
-224.97154948588127
 30
769.0
 10
5.006204817753052
 20
-225.3118148850912
 30
769.0
 10
5.011138622124207
 20
-225.6520488391725
 30
769.0
 10
5.016071908970846
 20
-225.99224710488792
 30
769.0
 10
5.021004523864677
 20
-226.33239903290053
 30
769.0
 10
5.025936229660067
 20
-226.67248826970524
 30
769.0
 10
5.030866676051202
 20
-227.01249065829762
 30
769.0
 10
5.038507044660923
 20
-227.53936862652813
 30
769.0
 10
5.0410760069723475
 20
-227.71652364512002
 30
769.0
 10
5.0435065178691065
 20
-227.8841310877003
 30
769.0
 10
5.045802966300943
 20
-228.0424936151801
 30
769.0
 10
5.047969741217605
 20
-228.19191388847045
 30
769.0
 10
5.050011231568836
 20
-228.33269456848234
 30
769.0
 10
5.051931826304379
 20
-228.46513831612685
 30
769.0
 10
5.055540002443578
 20
-228.71395726850315
 30
769.0
 10
5.0572275838472365
 20
-228.8303324732349
 30
769.0
 10
5.0588030475346955
 20
-228.93897606742144
 30
769.0
 10
5.060270782455699
 20
-229.0401907119735
 30
769.0
 10
5.061635177559994
 20
-229.13427906780225
 30
769.0
 10
5.062900621797324
 20
-229.22154379581877
 30
769.0
 10
5.0640715041174325
 20
-229.3022875569341
 30
769.0
 10
5.065692568146383
 20
-229.41407573962172
 30
769.0
 10
5.066210379580831
 20
-229.4497838906868
 30
769.0
 10
5.0667061963921265
 20
-229.48397529786808
 30
769.0
 10
5.06718056719899
 20
-229.51668779377962
 30
769.0
 10
5.067634040620139
 20
-229.54795921103516
 30
769.0
 10
5.06806716527429
 20
-229.57782738224873
 30
769.0
 10
5.068480489780162
 20
-229.60633014003415
 30
769.0
 10
5.06953135105033
 20
-229.67879727862382
 30
769.0
 10
5.070134662873181
 20
-229.72040151575825
 30
769.0
 10
5.070687038126501
 20
-229.7584931793988
 30
769.0
 10
5.071191016711766
 20
-229.79324742053552
 30
769.0
 10
5.071649138530445
 20
-229.82483939015864
 30
769.0
 10
5.072063943484012
 20
-229.85344423925844
 30
769.0
 10
5.07243797147394
 20
-229.87923711882493
 30
769.0
 10
5.073109553329461
 20
-229.92554924087193
 30
769.0
 10
5.073407107195052
 20
-229.94606848335232
 30
769.0
 10
5.07366896389995
 20
-229.96412605827985
 30
769.0
 10
5.073897663345627
 20
-229.9798971166447
 30
769.0
 10
5.074095745433553
 20
-229.99355680943708
 30
769.0
 10
5.074265750065201
 20
-230.00528028764714
 30
769.0
 10
5.074410217142045
 20
-230.01524270226503
 30
769.0
 10
5.074616715162012
 20
-230.02948275569207
 30
769.0
 10
5.074690474908336
 20
-230.03456920992815
 30
769.0
 10
5.074753836990733
 20
-230.03893864377895
 30
769.0
 10
5.074807672595407
 20
-230.04265113403414
 30
769.0
 10
5.074852852908563
 20
-230.04576675748316
 30
769.0
 10
5.074890249116407
 20
-230.04834559091577
 30
769.0
 10
5.074920732405144
 20
-230.05044771112156
 30
769.0
 10
5.074989418453161
 20
-230.05518428435184
 30
769.0
 10
5.075129652815592
 20
-230.0562075333784
 30
769.0
 10
5.075206950240324
 20
-230.05634362369094
 30
769.0
 10
5.075147149118735
 20
-230.0563573473572
 30
769.0
 10
5.074960853041522
 20
-230.05663760679207
 30
769.0
 10
5.0747434307987005
 20
-230.05719741475724
 30
769.0
 10
5.074675016379605
 20
-230.0576738943614
 30
769.0
 10
5.0750205089728935
 20
-230.0573282790601
 30
769.0
  0
ENDSEC
  0
SECTION
  2
OBJECTS
  0
DICTIONARY
  5
A
330
0
100
AcDbDictionary
281
1
  3
ACAD_COLOR
350
B
  3
ACAD_GROUP
350
C
  3
ACAD_LAYOUT
350
D
  3
ACAD_MATERIAL
350
E
  3
ACAD_MLEADERSTYLE
350
F
  3
ACAD_MLINESTYLE
350
10
  3
ACAD_PLOTSETTINGS
350
11
  3
ACAD_PLOTSTYLENAME
350
12
  3
ACAD_SCALELIST
350
14
  3
ACAD_TABLESTYLE
350
15
  3
ACAD_VISUALSTYLE
350
16
  3
EZDXF_META
350
2D
  0
DICTIONARY
  5
B
330
A
100
AcDbDictionary
281
1
  0
DICTIONARY
  5
C
330
A
100
AcDbDictionary
281
1
  0
DICTIONARY
  5
D
330
A
100
AcDbDictionary
281
1
  3
Model
350
1A
  3
Layout1
350
1E
  0
DICTIONARY
  5
E
330
A
100
AcDbDictionary
281
1
  3
ByBlock
350
1F
  3
ByLayer
350
20
  3
Global
350
21
  0
DICTIONARY
  5
F
330
A
100
AcDbDictionary
281
1
  3
Standard
350
2C
  0
DICTIONARY
  5
10
330
A
100
AcDbDictionary
281
1
  3
Standard
350
22
  0
DICTIONARY
  5
11
330
A
100
AcDbDictionary
281
1
  0
ACDBDICTIONARYWDFLT
  5
12
330
A
100
AcDbDictionary
281
1
  3
Normal
350
13
100
AcDbDictionaryWithDefault
340
13
  0
ACDBPLACEHOLDER
  5
13
330
12
  0
DICTIONARY
  5
14
330
A
100
AcDbDictionary
281
1
  0
DICTIONARY
  5
15
330
A
100
AcDbDictionary
281
1
  0
DICTIONARY
  5
16
330
A
100
AcDbDictionary
281
1
  0
LAYOUT
  5
1A
330
D
100
AcDbPlotSettings
  1

  2
Adobe PDF
  4
A3
  6

 40
7.5
 41
20.0
 42
7.5
 43
20.0
 44
420.0
 45
297.0
 46
0.0
 47
0.0
 48
0.0
 49
0.0
140
0.0
141
0.0
142
1.0
143
1.0
 70
1024
 72
1
 73
1
 74
5
  7

 75
16
 76
0
 77
2
 78
300
147
1.0
148
0.0
149
0.0
100
AcDbLayout
  1
Model
 70
1
 71
0
 10
0.0
 20
0.0
 11
420.0
 21
297.0
 12
0.0
 22
0.0
 32
0.0
 14
1e+20
 24
1e+20
 34
1e+20
 15
-1e+20
 25
-1e+20
 35
-1e+20
146
0.0
 13
0.0
 23
0.0
 33
0.0
 16
1.0
 26
0.0
 36
0.0
 17
0.0
 27
1.0
 37
0.0
 76
1
330
17
  0
LAYOUT
  5
1E
330
D
100
AcDbPlotSettings
  1

  2
Adobe PDF
  4
A3
  6

 40
7.5
 41
20.0
 42
7.5
 43
20.0
 44
420.0
 45
297.0
 46
0.0
 47
0.0
 48
0.0
 49
0.0
140
0.0
141
0.0
142
1.0
143
1.0
 70
0
 72
1
 73
1
 74
5
  7

 75
16
 76
0
 77
2
 78
300
147
1.0
148
0.0
149
0.0
100
AcDbLayout
  1
Layout1
 70
1
 71
1
 10
0.0
 20
0.0
 11
420.0
 21
297.0
 12
0.0
 22
0.0
 32
0.0
 14
1e+20
 24
1e+20
 34
1e+20
 15
-1e+20
 25
-1e+20
 35
-1e+20
146
0.0
 13
0.0
 23
0.0
 33
0.0
 16
1.0
 26
0.0
 36
0.0
 17
0.0
 27
1.0
 37
0.0
 76
1
330
1B
  0
MATERIAL
  5
1F
102
{ACAD_REACTORS
330
E
102
}
330
E
100
AcDbMaterial
  1
ByBlock
  2

 70
0
 40
1.0
 71
1
 41
1.0
 91
-1023410177
 42
1.0
 72
1
  3

 73
1
 74
1
 75
1
 44
0.5
 73
0
 45
1.0
 46
1.0
 77
1
  4

 78
1
 79
1
170
1
 48
1.0
171
1
  6

172
1
173
1
174
1
140
1.0
141
1.0
175
1
  7

176
1
177
1
178
1
143
1.0
179
1
  8

270
1
271
1
272
1
145
1.0
146
1.0
273
1
  9

274
1
275
1
276
1
 42
1.0
 72
1
  3

 73
1
 74
1
 75
1
 94
63
  0
MATERIAL
  5
20
102
{ACAD_REACTORS
330
E
102
}
330
E
100
AcDbMaterial
  1
ByLayer
  2

 70
0
 40
1.0
 71
1
 41
1.0
 91
-1023410177
 42
1.0
 72
1
  3

 73
1
 74
1
 75
1
 44
0.5
 73
0
 45
1.0
 46
1.0
 77
1
  4

 78
1
 79
1
170
1
 48
1.0
171
1
  6

172
1
173
1
174
1
140
1.0
141
1.0
175
1
  7

176
1
177
1
178
1
143
1.0
179
1
  8

270
1
271
1
272
1
145
1.0
146
1.0
273
1
  9

274
1
275
1
276
1
 42
1.0
 72
1
  3

 73
1
 74
1
 75
1
 94
63
  0
MATERIAL
  5
21
102
{ACAD_REACTORS
330
E
102
}
330
E
100
AcDbMaterial
  1
Global
  2

 70
0
 40
1.0
 71
1
 41
1.0
 91
-1023410177
 42
1.0
 72
1
  3

 73
1
 74
1
 75
1
 44
0.5
 73
0
 45
1.0
 46
1.0
 77
1
  4

 78
1
 79
1
170
1
 48
1.0
171
1
  6

172
1
173
1
174
1
140
1.0
141
1.0
175
1
  7

176
1
177
1
178
1
143
1.0
179
1
  8

270
1
271
1
272
1
145
1.0
146
1.0
273
1
  9

274
1
275
1
276
1
 42
1.0
 72
1
  3

 73
1
 74
1
 75
1
 94
63
  0
MLINESTYLE
  5
22
102
{ACAD_REACTORS
330
10
102
}
330
10
100
AcDbMlineStyle
  2
Standard
 70
0
  3

 62
256
 51
90.0
 52
90.0
 71
2
 49
0.5
 62
256
  6
BYLAYER
 49
-0.5
 62
256
  6
BYLAYER
  0
MLEADERSTYLE
  5
2C
102
{ACAD_REACTORS
330
F
102
}
330
F
100
AcDbMLeaderStyle
179
2
170
2
171
1
172
0
 90
2
 40
0.0
 41
0.0
173
1
 91
-1056964608
 92
-2
290
1
 42
2.0
291
1
 43
8.0
  3
Standard
 44
4.0
300

342
29
174
1
175
1
176
0
178
1
 93
-1056964608
 45
4.0
292
0
297
0
 46
4.0
 94
-1056964608
 47
1.0
 49
1.0
140
1.0
294
1
141
0.0
177
0
142
1.0
295
0
296
0
143
3.75
271
0
272
9
273
9
  0
DICTIONARY
  5
2D
330
A
100
AcDbDictionary
280
1
281
1
  3
CREATED_BY_EZDXF
350
2E
  3
WRITTEN_BY_EZDXF
350
80
  0
DICTIONARYVAR
  5
2E
330
2D
100
DictionaryVariables
280
0
  1
0.17 @ 2022-02-15T16:29:25.379494+00:00
  0
DICTIONARYVAR
  5
80
330
2D
100
DictionaryVariables
280
0
  1
0.17 @ 2022-02-15T16:29:25.486401+00:00
  0
ENDSEC
  0
EOF
