  0
SECTION
  2
HEADER
  9
$ACADVER
  1
AC1027
  9
$ACADMAINTVER
 70
105
  9
$DWGCODEPAGE
  3
ANSI_1252
  9
$LASTSAVEDBY
  1
ezdxf
  9
$REQUIREDVERSIONS
160
0
  9
$INSBASE
 10
0.0
 20
0.0
 30
0.0
  9
$EXTMIN
 10
1e+20
 20
1e+20
 30
1e+20
  9
$EXTMAX
 10
-1e+20
 20
-1e+20
 30
-1e+20
  9
$LIMMIN
 10
0.0
 20
0.0
  9
$LIMMAX
 10
420.0
 20
297.0
  9
$ORTHOMODE
 70
0
  9
$REGENMODE
 70
1
  9
$FILLMODE
 70
1
  9
$QTEXTMODE
 70
0
  9
$MIRRTEXT
 70
1
  9
$LTSCALE
 40
1.0
  9
$ATTMODE
 70
1
  9
$TEXTSIZE
 40
2.5
  9
$TRACEWID
 40
1.0
  9
$TEXTSTYLE
  7
Standard
  9
$CLAYER
  8
0
  9
$CELTYPE
  6
ByLayer
  9
$CECOLOR
 62
256
  9
$CELTSCALE
 40
1.0
  9
$DISPSILH
 70
0
  9
$DIMSCALE
 40
1.0
  9
$DIMASZ
 40
2.5
  9
$DIMEXO
 40
0.625
  9
$DIMDLI
 40
3.75
  9
$DIMRND
 40
0.0
  9
$DIMDLE
 40
0.0
  9
$DIMEXE
 40
1.25
  9
$DIMTP
 40
0.0
  9
$DIMTM
 40
0.0
  9
$DIMTXT
 40
2.5
  9
$DIMCEN
 40
2.5
  9
$DIMTSZ
 40
0.0
  9
$DIMTOL
 70
0
  9
$DIMLIM
 70
0
  9
$DIMTIH
 70
0
  9
$DIMTOH
 70
0
  9
$DIMSE1
 70
0
  9
$DIMSE2
 70
0
  9
$DIMTAD
 70
1
  9
$DIMZIN
 70
8
  9
$DIMBLK
  1

  9
$DIMASO
 70
1
  9
$DIMSHO
 70
1
  9
$DIMPOST
  1

  9
$DIMAPOST
  1

  9
$DIMALT
 70
0
  9
$DIMALTD
 70
3
  9
$DIMALTF
 40
0.03937007874
  9
$DIMLFAC
 40
1.0
  9
$DIMTOFL
 70
1
  9
$DIMTVP
 40
0.0
  9
$DIMTIX
 70
0
  9
$DIMSOXD
 70
0
  9
$DIMSAH
 70
0
  9
$DIMBLK1
  1

  9
$DIMBLK2
  1

  9
$DIMSTYLE
  2
ISO-25
  9
$DIMCLRD
 70
0
  9
$DIMCLRE
 70
0
  9
$DIMCLRT
 70
0
  9
$DIMTFAC
 40
1.0
  9
$DIMGAP
 40
0.625
  9
$DIMJUST
 70
0
  9
$DIMSD1
 70
0
  9
$DIMSD2
 70
0
  9
$DIMTOLJ
 70
0
  9
$DIMTZIN
 70
8
  9
$DIMALTZ
 70
0
  9
$DIMALTTZ
 70
0
  9
$DIMUPT
 70
0
  9
$DIMDEC
 70
2
  9
$DIMTDEC
 70
2
  9
$DIMALTU
 70
2
  9
$DIMALTTD
 70
3
  9
$DIMTXSTY
  7
Standard
  9
$DIMAUNIT
 70
0
  9
$DIMADEC
 70
0
  9
$DIMALTRND
 40
0.0
  9
$DIMAZIN
 70
0
  9
$DIMDSEP
 70
44
  9
$DIMATFIT
 70
3
  9
$DIMFRAC
 70
0
  9
$DIMLDRBLK
  1

  9
$DIMLUNIT
 70
2
  9
$DIMLWD
 70
-2
  9
$DIMLWE
 70
-2
  9
$DIMTMOVE
 70
0
  9
$DIMFXL
 40
1.0
  9
$DIMFXLON
 70
0
  9
$DIMJOGANG
 40
0.785398163397
  9
$DIMTFILL
 70
0
  9
$DIMTFILLCLR
 70
0
  9
$DIMARCSYM
 70
0
  9
$DIMLTYPE
  6

  9
$DIMLTEX1
  6

  9
$DIMLTEX2
  6

  9
$DIMTXTDIRECTION
 70
0
  9
$LUNITS
 70
2
  9
$LUPREC
 70
4
  9
$SKETCHINC
 40
1.0
  9
$FILLETRAD
 40
10.0
  9
$AUNITS
 70
0
  9
$AUPREC
 70
2
  9
$MENU
  1
.
  9
$ELEVATION
 40
0.0
  9
$PELEVATION
 40
0.0
  9
$THICKNESS
 40
0.0
  9
$LIMCHECK
 70
0
  9
$CHAMFERA
 40
0.0
  9
$CHAMFERB
 40
0.0
  9
$CHAMFERC
 40
0.0
  9
$CHAMFERD
 40
0.0
  9
$SKPOLY
 70
0
  9
$TDCREATE
 40
2459626.733773148
  9
$TDUCREATE
 40
2458532.153996898
  9
$TDUPDATE
 40
2459626.733773148
  9
$TDUUPDATE
 40
2458532.1544311
  9
$TDINDWG
 40
0.0
  9
$TDUSRTIMER
 40
0.0
  9
$USRTIMER
 70
1
  9
$ANGBASE
 50
0.0
  9
$ANGDIR
 70
0
  9
$PDMODE
 70
0
  9
$PDSIZE
 40
0.0
  9
$PLINEWID
 40
0.0
  9
$SPLFRAME
 70
0
  9
$SPLINETYPE
 70
6
  9
$SPLINESEGS
 70
8
  9
$HANDSEED
  5
81
  9
$SURFTAB1
 70
6
  9
$SURFTAB2
 70
6
  9
$SURFTYPE
 70
6
  9
$SURFU
 70
6
  9
$SURFV
 70
6
  9
$UCSBASE
  2

  9
$UCSNAME
  2

  9
$UCSORG
 10
0.0
 20
0.0
 30
0.0
  9
$UCSXDIR
 10
1.0
 20
0.0
 30
0.0
  9
$UCSYDIR
 10
0.0
 20
1.0
 30
0.0
  9
$UCSORTHOREF
  2

  9
$UCSORTHOVIEW
 70
0
  9
$UCSORGTOP
 10
0.0
 20
0.0
 30
0.0
  9
$UCSORGBOTTOM
 10
0.0
 20
0.0
 30
0.0
  9
$UCSORGLEFT
 10
0.0
 20
0.0
 30
0.0
  9
$UCSORGRIGHT
 10
0.0
 20
0.0
 30
0.0
  9
$UCSORGFRONT
 10
0.0
 20
0.0
 30
0.0
  9
$UCSORGBACK
 10
0.0
 20
0.0
 30
0.0
  9
$PUCSBASE
  2

  9
$PUCSNAME
  2

  9
$PUCSORG
 10
0.0
 20
0.0
 30
0.0
  9
$PUCSXDIR
 10
1.0
 20
0.0
 30
0.0
  9
$PUCSYDIR
 10
0.0
 20
1.0
 30
0.0
  9
$PUCSORTHOREF
  2

  9
$PUCSORTHOVIEW
 70
0
  9
$PUCSORGTOP
 10
0.0
 20
0.0
 30
0.0
  9
$PUCSORGBOTTOM
 10
0.0
 20
0.0
 30
0.0
  9
$PUCSORGLEFT
 10
0.0
 20
0.0
 30
0.0
  9
$PUCSORGRIGHT
 10
0.0
 20
0.0
 30
0.0
  9
$PUCSORGFRONT
 10
0.0
 20
0.0
 30
0.0
  9
$PUCSORGBACK
 10
0.0
 20
0.0
 30
0.0
  9
$USERI1
 70
0
  9
$USERI2
 70
0
  9
$USERI3
 70
0
  9
$USERI4
 70
0
  9
$USERI5
 70
0
  9
$USERR1
 40
0.0
  9
$USERR2
 40
0.0
  9
$USERR3
 40
0.0
  9
$USERR4
 40
0.0
  9
$USERR5
 40
0.0
  9
$WORLDVIEW
 70
1
  9
$SHADEDGE
 70
3
  9
$SHADEDIF
 70
70
  9
$TILEMODE
 70
1
  9
$MAXACTVP
 70
64
  9
$PINSBASE
 10
0.0
 20
0.0
 30
0.0
  9
$PLIMCHECK
 70
0
  9
$PEXTMIN
 10
1e+20
 20
1e+20
 30
1e+20
  9
$PEXTMAX
 10
-1e+20
 20
-1e+20
 30
-1e+20
  9
$PLIMMIN
 10
0.0
 20
0.0
  9
$PLIMMAX
 10
420.0
 20
297.0
  9
$UNITMODE
 70
0
  9
$VISRETAIN
 70
1
  9
$PLINEGEN
 70
0
  9
$PSLTSCALE
 70
1
  9
$TREEDEPTH
 70
3020
  9
$CMLSTYLE
  2
Standard
  9
$CMLJUST
 70
0
  9
$CMLSCALE
 40
20.0
  9
$PROXYGRAPHICS
 70
1
  9
$MEASUREMENT
 70
1
  9
$CELWEIGHT
370
-1
  9
$ENDCAPS
280
0
  9
$JOINSTYLE
280
0
  9
$LWDISPLAY
290
0
  9
$INSUNITS
 70
6
  9
$HYPERLINKBASE
  1

  9
$STYLESHEET
  1

  9
$XEDIT
290
1
  9
$CEPSNTYPE
380
0
  9
$PSTYLEMODE
290
1
  9
$FINGERPRINTGUID
  2
{E1FDF236-7B6E-4CDE-8FFF-24AA42E4B298}
  9
$VERSIONGUID
  2
{76F744BF-CC5F-4768-BBCA-0A9C0DDD298E}
  9
$EXTNAMES
290
1
  9
$PSVPSCALE
 40
0.0
  9
$OLESTARTUP
290
0
  9
$SORTENTS
280
127
  9
$INDEXCTL
280
0
  9
$HIDETEXT
280
1
  9
$XCLIPFRAME
280
0
  9
$HALOGAP
280
0
  9
$OBSCOLOR
 70
257
  9
$OBSLTYPE
280
0
  9
$INTERSECTIONDISPLAY
280
0
  9
$INTERSECTIONCOLOR
 70
257
  9
$DIMASSOC
280
2
  9
$PROJECTNAME
  1

  9
$CAMERADISPLAY
290
0
  9
$LENSLENGTH
 40
50.0
  9
$CAMERAHEIGHT
 40
0.0
  9
$STEPSPERSEC
 40
24.0
  9
$STEPSIZE
 40
100.0
  9
$3DDWFPREC
 40
2.0
  9
$PSOLWIDTH
 40
0.005
  9
$PSOLHEIGHT
 40
0.08
  9
$LOFTANG1
 40
1.570796326795
  9
$LOFTANG2
 40
1.570796326795
  9
$LOFTMAG1
 40
0.0
  9
$LOFTMAG2
 40
0.0
  9
$LOFTPARAM
 70
7
  9
$LOFTNORMALS
280
1
  9
$LATITUDE
 40
37.795
  9
$LONGITUDE
 40
-122.394
  9
$NORTHDIRECTION
 40
0.0
  9
$TIMEZONE
 70
-8000
  9
$LIGHTGLYPHDISPLAY
280
1
  9
$TILEMODELIGHTSYNCH
280
1
  9
$CMATERIAL
347
20
  9
$SOLIDHIST
280
0
  9
$SHOWHIST
280
1
  9
$DWFFRAME
280
2
  9
$DGNFRAME
280
2
  9
$REALWORLDSCALE
290
1
  9
$INTERFERECOLOR
 62
256
  9
$CSHADOW
280
0
  9
$SHADOWPLANELOCATION
 40
0.0
  0
ENDSEC
  0
SECTION
  2
CLASSES
  0
CLASS
  1
ACDBDICTIONARYWDFLT
  2
AcDbDictionaryWithDefault
  3
ObjectDBX Classes
 90
0
 91
0
280
0
281
0
  0
CLASS
  1
SUN
  2
AcDbSun
  3
SCENEOE
 90
1153
 91
0
280
0
281
0
  0
CLASS
  1
VISUALSTYLE
  2
AcDbVisualStyle
  3
ObjectDBX Classes
 90
4095
 91
0
280
0
281
0
  0
CLASS
  1
MATERIAL
  2
AcDbMaterial
  3
ObjectDBX Classes
 90
1153
 91
0
280
0
281
0
  0
CLASS
  1
SCALE
  2
AcDbScale
  3
ObjectDBX Classes
 90
1153
 91
0
280
0
281
0
  0
CLASS
  1
TABLESTYLE
  2
AcDbTableStyle
  3
ObjectDBX Classes
 90
4095
 91
0
280
0
281
0
  0
CLASS
  1
MLEADERSTYLE
  2
AcDbMLeaderStyle
  3
ACDB_MLEADERSTYLE_CLASS
 90
4095
 91
0
280
0
281
0
  0
CLASS
  1
DICTIONARYVAR
  2
AcDbDictionaryVar
  3
ObjectDBX Classes
 90
0
 91
0
280
0
281
0
  0
CLASS
  1
CELLSTYLEMAP
  2
AcDbCellStyleMap
  3
ObjectDBX Classes
 90
1152
 91
0
280
0
281
0
  0
CLASS
  1
MENTALRAYRENDERSETTINGS
  2
AcDbMentalRayRenderSettings
  3
SCENEOE
 90
1024
 91
0
280
0
281
0
  0
CLASS
  1
ACDBDETAILVIEWSTYLE
  2
AcDbDetailViewStyle
  3
ObjectDBX Classes
 90
1025
 91
0
280
0
281
0
  0
CLASS
  1
ACDBSECTIONVIEWSTYLE
  2
AcDbSectionViewStyle
  3
ObjectDBX Classes
 90
1025
 91
0
280
0
281
0
  0
CLASS
  1
RASTERVARIABLES
  2
AcDbRasterVariables
  3
ISM
 90
0
 91
0
280
0
281
0
  0
CLASS
  1
ACDBPLACEHOLDER
  2
AcDbPlaceHolder
  3
ObjectDBX Classes
 90
0
 91
0
280
0
281
0
  0
CLASS
  1
LAYOUT
  2
AcDbLayout
  3
ObjectDBX Classes
 90
0
 91
0
280
0
281
0
  0
ENDSEC
  0
SECTION
  2
TABLES
  0
TABLE
  2
VPORT
  5
8
330
0
100
AcDbSymbolTable
 70
1
  0
VPORT
  5
23
330
8
100
AcDbSymbolTableRecord
100
AcDbViewportTableRecord
  2
*Active
 70
0
 10
0.0
 20
0.0
 11
1.0
 21
1.0
 12
344.2
 22
148.5
 13
0.0
 23
0.0
 14
0.5
 24
0.5
 15
0.5
 25
0.5
 16
0.0
 26
0.0
 36
1.0
 17
0.0
 27
0.0
 37
0.0
 40
297.0
 41
1.34
 42
50.0
 43
0.0
 44
0.0
 50
0.0
 51
0.0
 71
0
 72
1000
 73
1
 74
3
 75
0
 76
0
 77
0
 78
0
281
0
 65
0
146
0.0
  0
ENDTAB
  0
TABLE
  2
LTYPE
  5
2
330
0
100
AcDbSymbolTable
 70
3
  0
LTYPE
  5
24
330
2
100
AcDbSymbolTableRecord
100
AcDbLinetypeTableRecord
  2
ByBlock
 70
0
  3

 72
65
 73
0
 40
0.0
  0
LTYPE
  5
25
330
2
100
AcDbSymbolTableRecord
100
AcDbLinetypeTableRecord
  2
ByLayer
 70
0
  3

 72
65
 73
0
 40
0.0
  0
LTYPE
  5
26
330
2
100
AcDbSymbolTableRecord
100
AcDbLinetypeTableRecord
  2
Continuous
 70
0
  3

 72
65
 73
0
 40
0.0
  0
ENDTAB
  0
TABLE
  2
LAYER
  5
1
330
0
100
AcDbSymbolTable
 70
2
  0
LAYER
  5
27
330
1
100
AcDbSymbolTableRecord
100
AcDbLayerTableRecord
  2
0
 70
0
 62
7
  6
Continuous
370
-3
390
13
347
21
  0
LAYER
  5
28
330
1
100
AcDbSymbolTableRecord
100
AcDbLayerTableRecord
  2
Defpoints
 70
0
 62
7
  6
Continuous
290
0
370
-3
390
13
347
21
  0
ENDTAB
  0
TABLE
  2
STYLE
  5
5
330
0
100
AcDbSymbolTable
 70
1
  0
STYLE
  5
29
330
5
100
AcDbSymbolTableRecord
100
AcDbTextStyleTableRecord
  2
Standard
 70
0
 40
0.0
 41
1.0
 50
0.0
 71
0
 42
2.5
  3
txt
  4

  0
ENDTAB
  0
TABLE
  2
VIEW
  5
7
330
0
100
AcDbSymbolTable
 70
0
  0
ENDTAB
  0
TABLE
  2
UCS
  5
6
330
0
100
AcDbSymbolTable
 70
0
  0
ENDTAB
  0
TABLE
  2
APPID
  5
3
330
0
100
AcDbSymbolTable
 70
3
  0
APPID
  5
2A
330
3
100
AcDbSymbolTableRecord
100
AcDbRegAppTableRecord
  2
ACAD
 70
0
  0
APPID
  5
7E
330
3
100
AcDbSymbolTableRecord
100
AcDbRegAppTableRecord
  2
HATCHBACKGROUNDCOLOR
 70
0
  0
APPID
  5
7F
330
3
100
AcDbSymbolTableRecord
100
AcDbRegAppTableRecord
  2
EZDXF
 70
0
  0
ENDTAB
  0
TABLE
  2
DIMSTYLE
  5
4
330
0
100
AcDbSymbolTable
 70
1
100
AcDbDimStyleTable
  0
DIMSTYLE
105
2B
330
4
100
AcDbSymbolTableRecord
100
AcDbDimStyleTableRecord
  2
Standard
 70
0
 40
1.0
 41
2.5
 42
0.625
 43
3.75
 44
1.25
 45
0.0
 46
0.0
 47
0.0
 48
0.0
 49
2.5
140
2.5
141
2.5
142
0.0
143
0.03937007874
144
1.0
145
0.0
146
1.0
147
0.625
148
0.0
 69
0
 70
0
 71
0
 72
0
 73
0
 74
0
 75
0
 76
0
 77
1
 78
8
 79
0
170
0
171
3
172
1
173
0
174
0
175
0
176
0
177
0
178
0
179
0
271
0
272
2
273
2
274
3
275
0
276
0
277
2
278
44
279
0
280
0
281
0
282
0
283
0
284
8
285
0
286
0
288
0
289
3
290
0
371
-2
372
-2
  0
ENDTAB
  0
TABLE
  2
BLOCK_RECORD
  5
9
330
0
100
AcDbSymbolTable
 70
2
  0
BLOCK_RECORD
  5
17
330
9
100
AcDbSymbolTableRecord
100
AcDbBlockTableRecord
  2
*Model_Space
340
1A
 70
0
280
1
281
0
  0
BLOCK_RECORD
  5
1B
330
9
100
AcDbSymbolTableRecord
100
AcDbBlockTableRecord
  2
*Paper_Space
340
1E
 70
0
280
1
281
0
  0
ENDTAB
  0
ENDSEC
  0
SECTION
  2
BLOCKS
  0
BLOCK
  5
18
330
17
100
AcDbEntity
  8
0
100
AcDbBlockBegin
  2
*Model_Space
 70
0
 10
0.0
 20
0.0
 30
0.0
  3
*Model_Space
  1

  0
ENDBLK
  5
19
330
17
100
AcDbEntity
  8
0
100
AcDbBlockEnd
  0
BLOCK
  5
1C
330
1B
100
AcDbEntity
  8
0
100
AcDbBlockBegin
  2
*Paper_Space
 70
0
 10
0.0
 20
0.0
 30
0.0
  3
*Paper_Space
  1

  0
ENDBLK
  5
1D
330
1B
100
AcDbEntity
  8
0
100
AcDbBlockEnd
  0
ENDSEC
  0
SECTION
  2
ENTITIES
  0
SPLINE
  5
2F
330
17
100
AcDbEntity
  8
0
100
AcDbSpline
 70
0
 71
8
 72
81
 73
72
 74
0
 40
0.0
 40
0.0
 40
0.0
 40
0.0
 40
0.0
 40
0.0
 40
0.0
 40
0.0
 40
0.0
 40
0.028170905249295473
 40
0.028170905249295473
 40
0.028170905249295473
 40
0.028170905249295473
 40
0.028170905249295473
 40
0.028170905249295473
 40
0.028170905249295473
 40
0.15047381592030912
 40
0.15047381592030912
 40
0.15047381592030912
 40
0.15047381592030912
 40
0.15047381592030912
 40
0.15047381592030912
 40
0.15047381592030912
 40
0.2522401971346044
 40
0.2522401971346044
 40
0.2522401971346044
 40
0.2522401971346044
 40
0.2522401971346044
 40
0.2522401971346044
 40
0.2522401971346044
 40
0.3391617486614051
 40
0.3391617486614051
 40
0.3391617486614051
 40
0.3391617486614051
 40
0.3391617486614051
 40
0.3391617486614051
 40
0.3391617486614051
 40
0.43186940111448
 40
0.43186940111448
 40
0.43186940111448
 40
0.43186940111448
 40
0.43186940111448
 40
0.43186940111448
 40
0.43186940111448
 40
0.5058455464255486
 40
0.5058455464255486
 40
0.5058455464255486
 40
0.5058455464255486
 40
0.5058455464255486
 40
0.5058455464255486
 40
0.5058455464255486
 40
0.5257787563530413
 40
0.5257787563530413
 40
0.5257787563530413
 40
0.5257787563530413
 40
0.5257787563530413
 40
0.5257787563530413
 40
0.5257787563530413
 40
0.5936432136099531
 40
0.5936432136099531
 40
0.5936432136099531
 40
0.5936432136099531
 40
0.5936432136099531
 40
0.5936432136099531
 40
0.5936432136099531
 40
0.8096749942360356
 40
0.8096749942360356
 40
0.8096749942360356
 40
0.8096749942360356
 40
0.8096749942360356
 40
0.8096749942360356
 40
0.8096749942360356
 40
1.0
 40
1.0
 40
1.0
 40
1.0
 40
1.0
 40
1.0
 40
1.0
 40
1.0
 40
1.0
 10
46.339758939510105
 20
235.90000000271493
 30
795.0
 10
46.25768763829337
 20
236.11942137627716
 30
795.0
 10
46.17501505057483
 20
236.33861747958622
 30
795.0
 10
46.09173180932662
 20
236.55758258825125
 30
795.0
 10
46.007828266113165
 20
236.77631074774342
 30
795.0
 10
45.92329445534196
 20
236.99479576137887
 30
795.0
 10
45.838120058514235
 20
237.21303117830166
 30
795.0
 10
45.752294368475695
 20
237.43101028146665
 30
795.0
 10
45.290321401976755
 20
238.5939308920329
 30
795.0
 10
44.90238229167721
 20
239.53410301246694
 30
795.0
 10
44.50106456542333
 20
240.4687486658542
 30
795.0
 10
44.08534796598004
 20
241.3972010616249
 30
795.0
 10
43.65408589655874
 20
242.31860568549982
 30
795.0
 10
43.20597417350094
 20
243.2319056173142
 30
795.0
 10
42.739489496656745
 20
244.13581258103167
 30
795.0
 10
41.84777478583448
 20
245.7717485366047
 30
795.0
 10
41.428860129970815
 20
246.50698751921854
 30
795.0
 10
40.99490705631149
 20
247.23366101090468
 30
795.0
 10
40.54472458489879
 20
247.95064437659323
 30
795.0
 10
40.07702019789774
 20
248.656474473158
 30
795.0
 10
39.59037315904079
 20
249.34933187000723
 30
795.0
 10
39.08317739605426
 20
250.02700269628073
 30
795.0
 10
38.10112922285495
 20
251.2503483831291
 30
795.0
 10
37.63254293492896
 20
251.8006187317161
 30
795.0
 10
37.146506210112776
 20
252.33606707687454
 30
795.0
 10
36.64183462026779
 20
252.8545728868341
 30
795.0
 10
36.11743780405394
 20
253.3534608231304
 30
795.0
 10
35.57234114356064
 20
253.8295238149282
 30
795.0
 10
35.005732701906155
 20
254.27907297473956
 30
795.0
 10
33.789201332789546
 20
255.1448996914845
 30
795.0
 10
33.13572170399675
 20
255.55734212351751
 30
795.0
 10
32.456927080403744
 20
255.92958563719503
 30
795.0
 10
31.753908573573817
 20
256.25550588797296
 30
795.0
 10
31.028718162802253
 20
256.5290893424882
 30
795.0
 10
30.284623279691345
 20
256.7451033904079
 30
795.0
 10
29.52645508600864
 20
256.89999850459594
 30
795.0
 10
28.15032171897068
 20
257.06731180214246
 30
795.0
 10
27.534621585629562
 20
257.10223758689386
 30
795.0
 10
26.917358247807716
 20
257.0973937308193
 30
795.0
 10
26.301472884658903
 20
257.05361573841606
 30
795.0
 10
25.68948849876658
 20
256.9726493418802
 30
795.0
 10
25.083538022385483
 20
256.8568399431989
 30
795.0
 10
24.48538643211734
 20
256.70887667631223
 30
795.0
 10
23.737754420059574
 20
256.48382067893067
 30
795.0
 10
23.579504213999932
 20
256.43384667010656
 30
795.0
 10
23.421713347133597
 20
256.3817244398364
 30
795.0
 10
23.264393377572862
 20
256.3274953135375
 30
795.0
 10
23.107550328250113
 20
256.2711865650792
 30
795.0
 10
22.951184686917813
 20
256.21281141678213
 30
795.0
 10
22.795291406148543
 20
256.15236903941855
 30
795.0
 10
22.11067897274523
 20
255.87697415125928
 30
795.0
 10
21.59056991173126
 20
255.64154116707357
 30
795.0
 10
21.080406876792026
 20
255.38467529307283
 30
795.0
 10
20.580794575969133
 20
255.10767857440453
 30
795.0
 10
20.092116786310985
 20
254.81193941073718
 30
795.0
 10
19.614576210824108
 20
254.49886192326505
 30
795.0
 10
19.14822567491172
 20
254.16981068592705
 30
795.0
 10
17.243848735095433
 20
252.73184951371394
 30
795.0
 10
15.912214788898005
 20
251.4924605651263
 30
795.0
 10
14.685463284491817
 20
250.14437496296352
 30
795.0
 10
13.551704418789072
 20
248.71687130466114
 30
795.0
 10
12.499869927713235
 20
247.23193046826793
 30
795.0
 10
11.519428879369258
 20
245.70446220539247
 30
795.0
 10
10.600229022863346
 20
244.14241578270713
 30
795.0
 10
8.967768206913046
 20
241.1412319552368
 30
795.0
 10
8.244931874912972
 20
239.71310867430242
 30
795.0
 10
7.558506254679341
 20
238.26675979291826
 30
795.0
 10
6.9044362207866925
 20
236.80544453295096
 30
795.0
 10
6.279393427357868
 20
235.331704696702
 30
795.0
 10
5.680535245270546
 20
233.84747376239346
 30
795.0
 10
5.105410594582967
 20
232.3541192652382
 30
795.0
 10
4.551835201253638
 20
230.85250160417695
 30
795.0
  0
LINE
  5
30
330
17
100
AcDbEntity
  8
0
100
AcDbLine
 10
26.36960956206562
 20
235.9
 30
795.0
 11
46.339758932251584
 21
235.9
 31
795.0
  0
SPLINE
  5
31
330
17
100
AcDbEntity
  8
0
100
AcDbSpline
 70
0
 71
1
 72
4
 73
2
 74
0
 40
0.0
 40
0.0
 40
1.0
 40
1.0
 10
26.36960955010672
 20
235.9000006000011
 30
795.0
 10
26.36960955010672
 20
232.09999939999986
 30
795.0
  0
LINE
  5
32
330
17
100
AcDbEntity
  8
0
100
AcDbLine
 10
26.36960956206562
 20
232.1
 30
795.0
 11
47.67838898664332
 21
232.1
 31
795.0
  0
SPLINE
  5
33
330
17
100
AcDbEntity
  8
0
100
AcDbSpline
 70
0
 71
8
 72
32
 73
23
 74
0
 40
0.0
 40
0.0
 40
0.0
 40
0.0
 40
0.0
 40
0.0
 40
0.0
 40
0.0
 40
0.0
 40
0.3199107468344725
 40
0.3199107468344725
 40
0.3199107468344725
 40
0.3199107468344725
 40
0.3199107468344725
 40
0.3199107468344725
 40
0.3199107468344725
 40
0.8115692537779026
 40
0.8115692537779026
 40
0.8115692537779026
 40
0.8115692537779026
 40
0.8115692537779026
 40
0.8115692537779026
 40
0.8115692537779026
 40
1.0
 40
1.0
 40
1.0
 40
1.0
 40
1.0
 40
1.0
 40
1.0
 40
1.0
 40
1.0
 10
53.514898433146215
 20
209.89999999020105
 30
795.0
 10
53.32052302547168
 20
210.80390899589298
 30
795.0
 10
53.12336982945311
 20
211.7072179711048
 30
795.0
 10
52.923336753568805
 20
212.6098941423907
 30
795.0
 10
52.72031310489989
 20
213.51190189484169
 30
795.0
 10
52.514178307135744
 20
214.41320250477492
 30
795.0
 10
52.30480028875493
 20
215.31375380376699
 30
795.0
 10
52.09203340248365
 20
216.21350974481012
 30
795.0
 10
51.543265243098666
 20
218.49392010752072
 30
795.0
 10
51.20243832553032
 20
219.87337920574697
 30
795.0
 10
50.85264559494593
 20
221.25061946149728
 30
795.0
 10
50.49321513786867
 20
222.62540747503408
 30
795.0
 10
50.12336417010415
 20
223.99744629878865
 30
795.0
 10
49.74217108978462
 20
225.36636788720574
 30
795.0
 10
49.348518785614026
 20
226.73171775804542
 30
795.0
 10
48.784788774516926
 20
228.6146133084702
 30
795.0
 10
48.628122855845554
 20
229.13046642575603
 30
795.0
 10
48.470986439873975
 20
229.6404292203222
 30
795.0
 10
48.31338358608309
 20
230.1444477392031
 30
795.0
 10
48.155318353953795
 20
230.64246802943333
 30
795.0
 10
47.996794802966946
 20
231.13443613804782
 30
795.0
 10
47.83781699260342
 20
231.62029811208188
 30
795.0
 10
47.678388982344046
 20
232.0999999985712
 30
795.0
  0
LINE
  5
34
330
17
100
AcDbEntity
  8
0
100
AcDbLine
 10
26.36960956206562
 20
209.9
 30
795.0
 11
53.5148984787144
 21
209.9
 31
795.0
  0
SPLINE
  5
35
330
17
100
AcDbEntity
  8
0
100
AcDbSpline
 70
0
 71
1
 72
4
 73
2
 74
0
 40
0.0
 40
0.0
 40
1.0
 40
1.0
 10
26.36960955010672
 20
209.90000060000008
 30
795.0
 10
26.36960955010672
 20
206.09999939999994
 30
795.0
  0
LINE
  5
36
330
17
100
AcDbEntity
  8
0
100
AcDbLine
 10
26.36960956206562
 20
206.1
 30
795.0
 11
54.31045916522639
 21
206.1
 31
795.0
  0
SPLINE
  5
37
330
17
100
AcDbEntity
  8
0
100
AcDbSpline
 70
0
 71
8
 72
25
 73
16
 74
0
 40
0.0
 40
0.0
 40
0.0
 40
0.0
 40
0.0
 40
0.0
 40
0.0
 40
0.0
 40
0.0
 40
0.3717990413215336
 40
0.3717990413215336
 40
0.3717990413215336
 40
0.3717990413215336
 40
0.3717990413215336
 40
0.3717990413215336
 40
0.3717990413215336
 40
1.0
 40
1.0
 40
1.0
 40
1.0
 40
1.0
 40
1.0
 40
1.0
 40
1.0
 40
1.0
 10
58.27023657730502
 20
183.89999999804783
 30
795.0
 10
58.10789172302398
 20
184.9354849634543
 30
795.0
 10
57.94354820304645
 20
185.97065575191672
 30
795.0
 10
57.77716169825617
 20
187.005500750543
 30
795.0
 10
57.60868499355007
 20
188.04000761902284
 30
795.0
 10
57.43806768072106
 20
189.07416324465677
 30
795.0
 10
57.26525580927107
 20
190.10795368947322
 30
795.0
 10
57.09019147430333
 20
191.14136412775488
 30
795.0
 10
56.61310809337303
 20
193.91978615076135
 30
795.0
 10
56.30680367615869
 20
195.66401479625532
 30
795.0
 10
55.993595497277994
 20
197.40701040748453
 30
795.0
 10
55.67314418968294
 20
199.1486971378405
 30
795.0
 10
55.34507004643796
 20
200.88897669114107
 30
795.0
 10
55.008941936282646
 20
202.62772597738535
 30
795.0
 10
54.66426516818848
 20
204.36479456155644
 30
795.0
 10
54.31045917288419
 20
206.1000000015615
 30
795.0
  0
LINE
  5
38
330
17
100
AcDbEntity
  8
0
100
AcDbLine
 10
26.36960956206562
 20
183.9
 30
795.0
 11
58.27023658975641
 21
183.9
 31
795.0
  0
SPLINE
  5
39
330
17
100
AcDbEntity
  8
0
100
AcDbSpline
 70
0
 71
1
 72
4
 73
2
 74
0
 40
0.0
 40
0.0
 40
1.0
 40
1.0
 10
26.36960955010672
 20
183.90000060000014
 30
795.0
 10
26.36960955010672
 20
180.0999993999999
 30
795.0
  0
LINE
  5
3A
330
17
100
AcDbEntity
  8
0
100
AcDbLine
 10
26.36960956206562
 20
180.1
 30
795.0
 11
58.854191331887655
 21
180.1
 31
795.0
  0
SPLINE
  5
3B
330
17
100
AcDbEntity
  8
0
100
AcDbSpline
 70
0
 71
8
 72
25
 73
16
 74
0
 40
0.0
 40
0.0
 40
0.0
 40
0.0
 40
0.0
 40
0.0
 40
0.0
 40
0.0
 40
0.0
 40
0.23363275446856865
 40
0.23363275446856865
 40
0.23363275446856865
 40
0.23363275446856865
 40
0.23363275446856865
 40
0.23363275446856865
 40
0.23363275446856865
 40
1.0
 40
1.0
 40
1.0
 40
1.0
 40
1.0
 40
1.0
 40
1.0
 40
1.0
 40
1.0
 10
61.84773154508989
 20
157.90000000240855
 30
795.0
 10
61.76952203388048
 20
158.5495337604791
 30
795.0
 10
61.69074122951696
 20
159.19899865170962
 30
795.0
 10
61.61138501261101
 20
159.8483935995104
 30
795.0
 10
61.53144910280494
 20
160.49771749881464
 30
795.0
 10
61.450929052734224
 20
161.14696921539607
 30
795.0
 10
61.36982024161494
 20
161.79614758514396
 30
795.0
 10
61.2881178684561
 20
162.44525141329538
 30
795.0
 10
60.93585166440252
 20
165.223235441288
 30
795.0
 10
60.659447728631676
 20
167.35136298799563
 30
795.0
 10
60.37642801484664
 20
169.47862427530868
 30
795.0
 10
60.08659437203764
 20
171.60497322217947
 30
795.0
 10
59.78972366010708
 20
173.73035488890957
 30
795.0
 10
59.48556395946575
 20
175.8547048981642
 30
795.0
 10
59.17382931447591
 20
177.97794863981312
 30
795.0
 10
58.85419137417616
 20
180.10000000636978
 30
795.0
  0
LINE
  5
3C
330
17
100
AcDbEntity
  8
0
100
AcDbLine
 10
26.36960956206562
 20
157.9
 30
795.0
 11
61.847731525086274
 21
157.9
 31
795.0
  0
SPLINE
  5
3D
330
17
100
AcDbEntity
  8
0
100
AcDbSpline
 70
0
 71
1
 72
4
 73
2
 74
0
 40
0.0
 40
0.0
 40
1.0
 40
1.0
 10
26.36960955010672
 20
157.90000060000042
 30
795.0
 10
26.36960955010672
 20
154.09999939999918
 30
795.0
  0
LINE
  5
3E
330
17
100
AcDbEntity
  8
0
100
AcDbLine
 10
26.36960956206562
 20
154.1
 30
795.0
 11
62.29670017351778
 21
154.1
 31
795.0
  0
SPLINE
  5
3F
330
17
100
AcDbEntity
  8
0
100
AcDbSpline
 70
0
 71
8
 72
25
 73
16
 74
0
 40
0.0
 40
0.0
 40
0.0
 40
0.0
 40
0.0
 40
0.0
 40
0.0
 40
0.0
 40
0.0
 40
0.07562971633617786
 40
0.07562971633617786
 40
0.07562971633617786
 40
0.07562971633617786
 40
0.07562971633617786
 40
0.07562971633617786
 40
0.07562971633617786
 40
1.0
 40
1.0
 40
1.0
 40
1.0
 40
1.0
 40
1.0
 40
1.0
 40
1.0
 40
1.0
 10
64.59676659396504
 20
131.89999999912462
 30
795.0
 10
64.57748132368846
 20
132.1101180258697
 30
795.0
 10
64.55814440933321
 20
132.32023131043644
 30
795.0
 10
64.53875581906146
 20
132.53033983466833
 30
795.0
 10
64.51931551855169
 20
132.74044358007788
 30
795.0
 10
64.49982346869822
 20
132.95054252763464
 30
795.0
 10
64.48027962289726
 20
133.16063665751585
 30
795.0
 10
64.46068392391938
 20
133.37072594881985
 30
795.0
 10
64.20089683886076
 20
136.1485286512464
 30
794.9999999999999
 10
63.95300533778121
 20
138.71551781612501
 30
795.0
 10
63.697282538507444
 20
141.2817462240139
 30
795.0
 10
63.43362569760561
 20
143.8471770796072
 30
795.0
 10
63.161907845485985
 20
146.4117683617291
 30
795.0
 10
62.88197563769643
 20
148.97547258290115
 30
795.0
 10
62.59364579885393
 20
151.53823638890526
 30
795.0
 10
62.29670015921414
 20
154.09999999834204
 30
795.0
  0
LINE
  5
40
330
17
100
AcDbEntity
  8
0
100
AcDbLine
 10
26.36960956206562
 20
131.9
 30
795.0
 11
64.59676660350175
 21
131.9
 31
795.0
  0
SPLINE
  5
41
330
17
100
AcDbEntity
  8
0
100
AcDbSpline
 70
0
 71
1
 72
4
 73
2
 74
0
 40
0.0
 40
0.0
 40
1.0
 40
1.0
 10
26.36960955010672
 20
131.90000060000256
 30
795.0
 10
26.36960955010672
 20
128.09999939999764
 30
795.0
  0
LINE
  5
42
330
17
100
AcDbEntity
  8
0
100
AcDbLine
 10
26.36960956206562
 20
128.1
 30
795.0
 11
64.93811570937902
 21
128.1
 31
795.0
  0
SPLINE
  5
43
330
17
100
AcDbEntity
  8
0
100
AcDbSpline
 70
0
 71
8
 72
25
 73
16
 74
0
 40
0.0
 40
0.0
 40
0.0
 40
0.0
 40
0.0
 40
0.0
 40
0.0
 40
0.0
 40
0.0
 40
0.8054328770463842
 40
0.8054328770463842
 40
0.8054328770463842
 40
0.8054328770463842
 40
0.8054328770463842
 40
0.8054328770463842
 40
0.8054328770463842
 40
1.0
 40
1.0
 40
1.0
 40
1.0
 40
1.0
 40
1.0
 40
1.0
 40
1.0
 40
1.0
 10
66.6494806843158
 20
105.89999999872951
 30
795.0
 10
66.50009211808467
 20
108.13676615594943
 30
795.0
 10
66.34566581428062
 20
110.3731956565758
 30
795.0
 10
66.18610972764436
 20
112.60926897565136
 30
795.0
 10
66.02133034556802
 20
114.84496562885599
 30
795.0
 10
65.85123263218325
 20
117.08026416881272
 30
795.0
 10
65.6757199724493
 20
119.31514218139392
 30
795.0
 10
65.49469411624102
 20
121.54957628202742
 30
795.0
 10
65.2629690412869
 20
124.32319763973423
 30
795.0
 10
65.21755504418167
 20
124.86282577640367
 30
795.0
 10
65.17181240642628
 20
125.40242622309736
 30
795.0
 10
65.12573971479674
 20
125.94199861823509
 30
795.0
 10
65.07933527811441
 20
126.48154257402759
 30
795.0
 10
65.0325974196452
 20
127.02105770228704
 30
795.0
 10
64.98552465132381
 20
127.56054362959037
 30
795.0
 10
64.9381157298029
 20
128.10000000179494
 30
795.0
  0
LINE
  5
44
330
17
100
AcDbEntity
  8
0
100
AcDbLine
 10
26.36960956206562
 20
105.9
 30
795.0
 11
66.6494807033376
 21
105.9
 31
795.0
  0
SPLINE
  5
45
330
17
100
AcDbEntity
  8
0
100
AcDbSpline
 70
0
 71
1
 72
4
 73
2
 74
0
 40
0.0
 40
0.0
 40
1.0
 40
1.0
 10
26.36960955010672
 20
105.90000060000206
 30
795.0
 10
26.36960955010672
 20
102.09999939999993
 30
795.0
  0
LINE
  5
46
330
17
100
AcDbEntity
  8
0
100
AcDbLine
 10
26.36960956206562
 20
102.1
 30
795.0
 11
66.8969357545349
 21
102.1
 31
795.0
  0
SPLINE
  5
47
330
17
100
AcDbEntity
  8
0
100
AcDbSpline
 70
0
 71
8
 72
25
 73
16
 74
0
 40
0.0
 40
0.0
 40
0.0
 40
0.0
 40
0.0
 40
0.0
 40
0.0
 40
0.0
 40
0.0
 40
0.13814727270448166
 40
0.13814727270448166
 40
0.13814727270448166
 40
0.13814727270448166
 40
0.13814727270448166
 40
0.13814727270448166
 40
0.13814727270448166
 40
1.0
 40
1.0
 40
1.0
 40
1.0
 40
1.0
 40
1.0
 40
1.0
 40
1.0
 40
1.0
 10
68.10277202610503
 20
79.90000000039687
 30
795.0
 10
68.08528436024132
 20
80.28353004974693
 30
795.0
 10
68.06767118716921
 20
80.66705444002784
 30
795.0
 10
68.0499320921704
 20
81.05057310902677
 30
795.0
 10
68.03206665950928
 20
81.43408599411576
 30
795.0
 10
68.01407447242545
 20
81.81759303225158
 30
795.0
 10
67.99595511312607
 20
82.20109415997547
 30
795.0
 10
67.97770816277823
 20
82.58458931341306
 30
795.0
 10
67.84469821681827
 20
85.36053347324773
 30
795.0
 10
67.72508117625301
 20
87.7527487122816
 30
795.0
 10
67.60038015241761
 20
90.1447077499659
 30
795.0
 10
67.4704916789482
 20
92.53639296529296
 30
795.0
 10
67.3353106726517
 20
94.9277855065139
 30
795.0
 10
67.19473035565255
 20
97.31886528599512
 30
795.0
 10
67.0486421775396
 20
99.70961097507484
 30
795.0
 10
66.89693573751285
 20
102.09999999891966
 30
795.0
  0
LINE
  5
48
330
17
100
AcDbEntity
  8
0
100
AcDbLine
 10
26.36960956206562
 20
79.9
 30
795.0
 11
68.10277201740166
 21
79.9
 31
795.0
  0
SPLINE
  5
49
330
17
100
AcDbEntity
  8
0
100
AcDbSpline
 70
0
 71
1
 72
4
 73
2
 74
0
 40
0.0
 40
0.0
 40
1.0
 40
1.0
 10
26.36960955010672
 20
79.90000060000001
 30
795.0
 10
26.36960955010672
 20
76.09999939999999
 30
795.0
  0
LINE
  5
4A
330
17
100
AcDbEntity
  8
0
100
AcDbLine
 10
26.36960956206562
 20
76.1
 30
795.0
 11
68.27068259334062
 21
76.1
 31
795.0
  0
SPLINE
  5
4B
330
17
100
AcDbEntity
  8
0
100
AcDbSpline
 70
0
 71
8
 72
18
 73
9
 74
0
 40
0.0
 40
0.0
 40
0.0
 40
0.0
 40
0.0
 40
0.0
 40
0.0
 40
0.0
 40
0.0
 40
1.0
 40
1.0
 40
1.0
 40
1.0
 40
1.0
 40
1.0
 40
1.0
 40
1.0
 40
1.0
 10
69.04946027568103
 20
53.89999999917599
 30
795.0
 10
68.97243334197351
 20
56.67566693233788
 30
795.0
 10
68.88989133612205
 20
59.451179977824694
 30
795.0
 10
68.80169168284871
 20
62.22652220799367
 30
795.0
 10
68.70768968769993
 20
65.00167557381346
 30
795.0
 10
68.60773840324211
 20
67.77662090200647
 30
795.0
 10
68.50168849072186
 20
70.55133789205861
 30
795.0
 10
68.38938807719015
 20
73.32580511309631
 30
795.0
 10
68.27068260809102
 20
76.10000000063116
 30
795.0
  0
LINE
  5
4C
330
17
100
AcDbEntity
  8
0
100
AcDbLine
 10
26.36960956206562
 20
53.9
 30
795.0
 11
69.04946030537354
 21
53.9
 31
795.0
  0
SPLINE
  5
4D
330
17
100
AcDbEntity
  8
0
100
AcDbSpline
 70
0
 71
1
 72
4
 73
2
 74
0
 40
0.0
 40
0.0
 40
1.0
 40
1.0
 10
26.36960955010672
 20
53.90000060000026
 30
795.0
 10
26.36960955010672
 20
50.09999939999937
 30
795.0
  0
LINE
  5
4E
330
17
100
AcDbEntity
  8
0
100
AcDbLine
 10
26.36960956206562
 20
50.1
 30
795.0
 11
69.15042776080077
 21
50.1
 31
795.0
  0
SPLINE
  5
4F
330
17
100
AcDbEntity
  8
0
100
AcDbSpline
 70
0
 71
8
 72
18
 73
9
 74
0
 40
0.0
 40
0.0
 40
0.0
 40
0.0
 40
0.0
 40
0.0
 40
0.0
 40
0.0
 40
0.0
 40
1.0
 40
1.0
 40
1.0
 40
1.0
 40
1.0
 40
1.0
 40
1.0
 40
1.0
 40
1.0
 10
69.57176640023692
 20
27.900000000426424
 30
795.0
 10
69.5359571146163
 20
30.675285064864823
 30
795.0
 10
69.49559881812867
 20
33.45051222911137
 30
795.0
 10
69.45055975254881
 20
36.225671106142386
 30
795.0
 10
69.4007066324331
 20
39.00075020178261
 30
795.0
 10
69.34590452750348
 20
41.77573691231849
 30
795.0
 10
69.28601674050763
 20
44.550617521979234
 30
795.0
 10
69.22090468055531
 20
47.32537720028566
 30
795.0
 10
69.1504277319309
 20
50.099999999266664
 30
795.0
  0
LINE
  5
50
330
17
100
AcDbEntity
  8
0
100
AcDbLine
 10
26.36960956206562
 20
27.9
 30
795.0
 11
69.57176636718717
 21
27.9
 31
795.0
  0
SPLINE
  5
51
330
17
100
AcDbEntity
  8
0
100
AcDbSpline
 70
0
 71
1
 72
4
 73
2
 74
0
 40
0.0
 40
0.0
 40
1.0
 40
1.0
 10
26.36960955010672
 20
27.900000600000002
 30
795.0
 10
26.36960955010672
 20
24.099999399999998
 30
795.0
  0
LINE
  5
52
330
17
100
AcDbEntity
  8
0
100
AcDbLine
 10
26.36960956206562
 20
24.1
 30
795.0
 11
69.61710270856948
 21
24.1
 31
795.0
  0
SPLINE
  5
53
330
17
100
AcDbEntity
  8
0
100
AcDbSpline
 70
0
 71
8
 72
18
 73
9
 74
0
 40
0.0
 40
0.0
 40
0.0
 40
0.0
 40
0.0
 40
0.0
 40
0.0
 40
0.0
 40
0.0
 40
1.0
 40
1.0
 40
1.0
 40
1.0
 40
1.0
 40
1.0
 40
1.0
 40
1.0
 40
1.0
 10
69.744230343275
 20
1.8999999999991788
 30
795.0
 10
69.74199349959082
 20
4.675063805010236
 30
795.0
 10
69.73610681193911
 20
7.450119991593997
 30
795.0
 10
69.72644598539223
 20
10.225164626372251
 30
795.0
 10
69.71288571216289
 20
13.000192679631304
 30
795.0
 10
69.69529956996402
 20
15.775198023401543
 30
795.0
 10
69.6735599158495
 20
18.550173429404857
 30
795.0
 10
69.64753777553528
 20
21.325110566869917
 30
795.0
 10
69.61710272820156
 20
24.10000000021534
 30
795.0
  0
LINE
  5
54
330
17
100
AcDbEntity
  8
0
100
AcDbLine
 10
26.36960956206562
 20
1.9
 30
795.0
 11
69.74423034431251
 21
1.9
 31
795.0
  0
SPLINE
  5
55
330
17
100
AcDbEntity
  8
0
100
AcDbSpline
 70
0
 71
1
 72
4
 73
2
 74
0
 40
0.0
 40
0.0
 40
0.9999993684216398
 40
0.9999993684216398
 10
26.36960955010672
 20
1.9000006000000558
 30
795.0
 10
26.36960955010672
 20
-6.553790374438061e-17
 30
795.0
  0
SPLINE
  5
56
330
17
100
AcDbEntity
  8
0
100
AcDbSpline
 70
0
 71
1
 72
4
 73
2
 74
0
 40
0.0
 40
0.0
 40
1.0
 40
1.0
 10
26.36960955010672
 20
-1.9000006000000011
 30
795.0
 10
26.36960955010672
 20
1.2000000211287443e-06
 30
795.0
  0
LINE
  5
57
330
17
100
AcDbEntity
  8
0
100
AcDbLine
 10
26.36960956206561
 20
-1.9
 30
795.0
 11
69.74432531781412
 21
-1.9
 31
795.0
  0
SPLINE
  5
58
330
17
100
AcDbEntity
  8
0
100
AcDbSpline
 70
0
 71
8
 72
25
 73
16
 74
0
 40
0.0
 40
0.0
 40
0.0
 40
0.0
 40
0.0
 40
0.0
 40
0.0
 40
0.0
 40
0.0
 40
0.6541361407620463
 40
0.6541361407620463
 40
0.6541361407620463
 40
0.6541361407620463
 40
0.6541361407620463
 40
0.6541361407620463
 40
0.6541361407620463
 40
1.0
 40
1.0
 40
1.0
 40
1.0
 40
1.0
 40
1.0
 40
1.0
 40
1.0
 40
1.0
 10
69.61824235775626
 20
-24.10000000014117
 30
795.0
 10
69.63807483762841
 20
-22.284864630463783
 30
795.0
 10
69.6560165800214
 20
-20.46970644622042
 30
795.0
 10
69.67210434350866
 20
-18.654527392763114
 30
795.0
 10
69.68637461828776
 20
-16.83932913998861
 30
795.0
 10
69.69886363997331
 20
-15.024113082854072
 30
795.0
 10
69.70960740333565
 20
-13.208880341890481
 30
795.0
 10
69.71864167606232
 20
-11.393631763717162
 30
795.0
 10
69.7298936710196
 20
-8.618576650508325
 30
795.0
 10
69.73331672452589
 20
-7.658783491117285
 30
795.0
 10
69.73627822041044
 20
-6.698988720820602
 30
795.0
 10
69.73878239650551
 20
-5.739192614633463
 30
795.0
 10
69.74083351033823
 20
-4.779395439035383
 30
795.0
 10
69.74243704080251
 20
-3.8195974492753515
 30
795.0
 10
69.74359926236814
 20
-2.8597988900999876
 30
795.0
 10
69.74432519182723
 20
-1.8999999999046964
 30
795.0
  0
LINE
  5
59
330
17
100
AcDbEntity
  8
0
100
AcDbLine
 10
26.36960956206561
 20
-24.1
 30
795.0
 11
69.61824234483706
 21
-24.1
 31
795.0
  0
SPLINE
  5
5A
330
17
100
AcDbEntity
  8
0
100
AcDbSpline
 70
0
 71
1
 72
4
 73
2
 74
0
 40
0.0
 40
0.0
 40
1.0
 40
1.0
 10
26.36960955010672
 20
-27.900000600000034
 30
795.0
 10
26.36960955010672
 20
-24.099999399999938
 30
795.0
  0
LINE
  5
5B
330
17
100
AcDbEntity
  8
0
100
AcDbLine
 10
26.36960956206561
 20
-27.9
 30
795.0
 11
69.57305993746112
 21
-27.9
 31
795.0
  0
SPLINE
  5
5C
330
17
100
AcDbEntity
  8
0
100
AcDbSpline
 70
0
 71
8
 72
18
 73
9
 74
0
 40
0.0
 40
0.0
 40
0.0
 40
0.0
 40
0.0
 40
0.0
 40
0.0
 40
0.0
 40
0.0
 40
1.0
 40
1.0
 40
1.0
 40
1.0
 40
1.0
 40
1.0
 40
1.0
 40
1.0
 40
1.0
 10
69.1523437158805
 20
-50.09999999972965
 30
795.0
 10
69.22278024281687
 20
-47.325369119456006
 30
795.0
 10
69.28783925190086
 20
-44.550604923054934
 30
795.0
 10
69.34766233614033
 20
-41.77572324056745
 30
795.0
 10
69.40238906634985
 20
-39.00073837566279
 30
795.0
 10
69.45215711505148
 20
-36.225663110318635
 30
795.0
 10
69.49710237615324
 20
-33.45050870931907
 30
795.0
 10
69.53735908191251
 20
-30.675284924635875
 30
795.0
 10
69.57305991869043
 20
-27.899999999758542
 30
795.0
  0
LINE
  5
5D
330
17
100
AcDbEntity
  8
0
100
AcDbLine
 10
26.36960956206561
 20
-50.1
 30
795.0
 11
69.15234372653042
 21
-50.1
 31
795.0
  0
SPLINE
  5
5E
330
17
100
AcDbEntity
  8
0
100
AcDbSpline
 70
0
 71
1
 72
4
 73
2
 74
0
 40
0.0
 40
0.0
 40
1.0
 40
1.0
 10
26.36960955010672
 20
-53.9000006
 30
795.0
 10
26.36960955010672
 20
-50.0999994
 30
795.0
  0
LINE
  5
5F
330
17
100
AcDbEntity
  8
0
100
AcDbLine
 10
26.36960956206561
 20
-53.9
 30
795.0
 11
69.05142137290211
 21
-53.9
 31
795.0
  0
SPLINE
  5
60
330
17
100
AcDbEntity
  8
0
100
AcDbSpline
 70
0
 71
8
 72
18
 73
9
 74
0
 40
0.0
 40
0.0
 40
0.0
 40
0.0
 40
0.0
 40
0.0
 40
0.0
 40
0.0
 40
0.0
 40
1.0
 40
1.0
 40
1.0
 40
1.0
 40
1.0
 40
1.0
 40
1.0
 40
1.0
 40
1.0
 10
68.27241249995897
 20
-76.10000000011219
 30
795.0
 10
68.39120754919782
 20
-73.32580692605356
 30
795.0
 10
68.50357840070453
 20
-70.55133742956274
 30
795.0
 10
68.60968047800716
 20
-67.77661638241125
 30
795.0
 10
68.70966655273297
 20
-65.00166710346124
 30
795.0
 10
68.80368688986646
 20
-62.226511364268205
 30
795.0
 10
68.89188938523527
 20
-59.451169394346955
 30
795.0
 10
68.97441969673474
 20
-56.675659886166855
 30
795.0
 10
69.05142137080222
 20
-53.89999999994174
 30
795.0
  0
LINE
  5
61
330
17
100
AcDbEntity
  8
0
100
AcDbLine
 10
26.36960956206561
 20
-76.1
 30
795.0
 11
68.27241249733876
 21
-76.1
 31
795.0
  0
SPLINE
  5
62
330
17
100
AcDbEntity
  8
0
100
AcDbSpline
 70
0
 71
1
 72
4
 73
2
 74
0
 40
0.0
 40
0.0
 40
1.0
 40
1.0
 10
26.36960955010672
 20
-79.90000060000018
 30
795.0
 10
26.36960955010672
 20
-76.09999939999999
 30
795.0
  0
LINE
  5
63
330
17
100
AcDbEntity
  8
0
100
AcDbLine
 10
26.36960956206561
 20
-79.9
 30
795.0
 11
68.1043629523442
 21
-79.9
 31
795.0
  0
SPLINE
  5
64
330
17
100
AcDbEntity
  8
0
100
AcDbSpline
 70
0
 71
8
 72
18
 73
9
 74
0
 40
0.0
 40
0.0
 40
0.0
 40
0.0
 40
0.0
 40
0.0
 40
0.0
 40
0.0
 40
0.0
 40
1.0
 40
1.0
 40
1.0
 40
1.0
 40
1.0
 40
1.0
 40
1.0
 40
1.0
 40
1.0
 10
66.89699008098025
 20
-102.09999999846102
 30
795.0
 10
67.07329045959214
 20
-99.32647012592425
 30
795.0
 10
67.242000855219
 20
-96.55245588392653
 30
795.0
 10
67.40329481993875
 20
-93.77799141702484
 30
795.0
 10
67.55734248723063
 20
-91.00310928188875
 30
795.0
 10
67.70431075157063
 20
-88.22784045438836
 30
795.0
 10
67.84436343665301
 20
-85.45221433618894
 30
795.0
 10
67.97766145375813
 20
-82.67625876091854
 30
795.0
 10
68.10436295178698
 20
-79.89999999997455
 30
795.0
  0
LINE
  5
65
330
17
100
AcDbEntity
  8
0
100
AcDbLine
 10
26.36960956206561
 20
-102.1
 30
795.0
 11
66.89699010519092
 21
-102.1
 31
795.0
  0
SPLINE
  5
66
330
17
100
AcDbEntity
  8
0
100
AcDbSpline
 70
0
 71
1
 72
4
 73
2
 74
0
 40
0.0
 40
0.0
 40
1.0
 40
1.0
 10
26.36960955010672
 20
-105.90000060000003
 30
795.0
 10
26.36960955010672
 20
-102.09999939999999
 30
795.0
  0
LINE
  5
67
330
17
100
AcDbEntity
  8
0
100
AcDbLine
 10
26.36960956206561
 20
-105.9
 30
795.0
 11
66.64913214556195
 21
-105.9
 31
795.0
  0
SPLINE
  5
68
330
17
100
AcDbEntity
  8
0
100
AcDbSpline
 70
0
 71
8
 72
25
 73
16
 74
0
 40
0.0
 40
0.0
 40
0.0
 40
0.0
 40
0.0
 40
0.0
 40
0.0
 40
0.0
 40
0.0
 40
0.13338696504677866
 40
0.13338696504677866
 40
0.13338696504677866
 40
0.13338696504677866
 40
0.13338696504677866
 40
0.13338696504677866
 40
0.13338696504677866
 40
1.0
 40
1.0
 40
1.0
 40
1.0
 40
1.0
 40
1.0
 40
1.0
 40
1.0
 40
1.0
 10
64.93444015275604
 20
-128.1000000002761
 30
795.0
 10
64.96701248144092
 20
-127.73016962542096
 30
795.0
 10
64.99942623291787
 20
-127.36032527884457
 30
795.0
 10
65.03168179002851
 20
-126.9904670741516
 30
795.0
 10
65.06377957987962
 20
-126.62059512826124
 30
795.0
 10
65.09572007384307
 20
-126.25070956140723
 30
795.0
 10
65.12750378755584
 20
-125.88081049713782
 30
795.0
 10
65.15913128092009
 20
-125.51089806231582
 30
795.0
 10
65.39507545411531
 20
-122.73757103543944
 30
795.0
 10
65.5929703578812
 20
-120.33362494792303
 30
795.0
 10
65.78441430421285
 20
-117.9291618955186
 30
795.0
 10
65.9695313188358
 20
-115.52420872947164
 30
795.0
 10
66.14844312672396
 20
-113.11879138567703
 30
795.0
 10
66.32126925422212
 20
-110.71293488876296
 30
795.0
 10
66.48812712552062
 20
-108.30666335592962
 30
795.0
 10
66.64913215404566
 20
-105.90000000056754
 30
795.0
  0
LINE
  5
69
330
17
100
AcDbEntity
  8
0
100
AcDbLine
 10
26.36960956206561
 20
-128.1
 30
795.0
 11
64.93444014962142
 21
-128.1
 31
795.0
  0
SPLINE
  5
6A
330
17
100
AcDbEntity
  8
0
100
AcDbSpline
 70
0
 71
1
 72
4
 73
2
 74
0
 40
0.0
 40
0.0
 40
1.0
 40
1.0
 10
26.36960955010672
 20
-131.9000006
 30
795.0
 10
26.36960955010672
 20
-128.09999939999992
 30
795.0
  0
LINE
  5
6B
330
17
100
AcDbEntity
  8
0
100
AcDbLine
 10
26.36960956206561
 20
-131.9
 30
795.0
 11
64.59233801404083
 21
-131.9
 31
795.0
  0
SPLINE
  5
6C
330
17
100
AcDbEntity
  8
0
100
AcDbSpline
 70
0
 71
8
 72
25
 73
16
 74
0
 40
0.0
 40
0.0
 40
0.0
 40
0.0
 40
0.0
 40
0.0
 40
0.0
 40
0.0
 40
0.0
 40
0.9868205694394035
 40
0.9868205694394035
 40
0.9868205694394035
 40
0.9868205694394035
 40
0.9868205694394035
 40
0.9868205694394035
 40
0.9868205694394035
 40
1.0
 40
1.0
 40
1.0
 40
1.0
 40
1.0
 40
1.0
 40
1.0
 40
1.0
 40
1.0
 10
62.28689310270697
 20
-154.1000000007933
 30
795.0
 10
62.60464745832438
 20
-151.36517961462584
 30
795.0
 10
62.912563118372674
 20
-148.62921469356806
 30
795.0
 10
63.210903260818625
 20
-145.89217910318195
 30
795.0
 10
63.49988600801317
 20
-143.15413756503494
 30
795.0
 10
63.77969132896314
 20
-140.41514647054908
 30
795.0
 10
64.05046517002215
 20
-137.67525437117098
 30
795.0
 10
64.31232211904239
 20
-134.93450230263443
 30
795.0
 10
64.56872718073492
 20
-132.15630909664495
 30
795.0
 10
64.57210487919134
 20
-132.11969394683118
 30
795.0
 10
64.57548100347266
 20
-132.083078651734
 30
795.0
 10
64.57885555365755
 20
-132.04646321144185
 30
795.0
 10
64.58222852982895
 20
-132.0098476260434
 30
795.0
 10
64.58559993207409
 20
-131.97323189562778
 30
795.0
 10
64.58896976048442
 20
-131.93661602028428
 30
795.0
 10
64.59233801515566
 20
-131.90000000010264
 30
795.0
  0
LINE
  5
6D
330
17
100
AcDbEntity
  8
0
100
AcDbLine
 10
26.36960956206561
 20
-154.1
 30
795.0
 11
62.28689309587914
 21
-154.1
 31
795.0
  0
SPLINE
  5
6E
330
17
100
AcDbEntity
  8
0
100
AcDbSpline
 70
0
 71
1
 72
4
 73
2
 74
0
 40
0.0
 40
0.0
 40
1.0
 40
1.0
 10
26.36960955010672
 20
-157.90000060000003
 30
795.0
 10
26.36960955010672
 20
-154.0999994
 30
795.0
  0
LINE
  5
6F
330
17
100
AcDbEntity
  8
0
100
AcDbLine
 10
26.36960956206561
 20
-157.9
 30
795.0
 11
61.83686727775137
 21
-157.9
 31
795.0
  0
SPLINE
  5
70
330
17
100
AcDbEntity
  8
0
100
AcDbSpline
 70
0
 71
8
 72
25
 73
16
 74
0
 40
0.0
 40
0.0
 40
0.0
 40
0.0
 40
0.0
 40
0.0
 40
0.0
 40
0.0
 40
0.0
 40
0.44177560690217904
 40
0.44177560690217904
 40
0.44177560690217904
 40
0.44177560690217904
 40
0.44177560690217904
 40
0.44177560690217904
 40
0.44177560690217904
 40
1.0
 40
1.0
 40
1.0
 40
1.0
 40
1.0
 40
1.0
 40
1.0
 40
1.0
 40
1.0
 10
58.836655241322276
 20
-180.09999999914248
 30
795.0
 10
59.02129289471905
 20
-178.8767439823336
 30
795.0
 10
59.20330361896876
 20
-177.65309163280847
 30
795.0
 10
59.38275010240136
 20
-176.42905918739956
 30
795.0
 10
59.55969039357235
 20
-175.20466136528947
 30
795.0
 10
59.7341784169233
 20
-173.97991145122845
 30
795.0
 10
59.90626438068879
 20
-172.75482136163282
 30
795.0
 10
60.075995135588066
 20
-171.52940170319795
 30
795.0
 10
60.45496446896836
 20
-168.75482599012417
 30
795.0
 10
60.662822647857325
 20
-167.2054882446599
 30
795.0
 10
60.867077202016254
 20
-165.6556694268841
 30
795.0
 10
61.06780827259057
 20
-164.10538902755604
 30
795.0
 10
61.26508891745668
 20
-162.5546653044408
 30
795.0
 10
61.458985851622586
 20
-161.00351536949037
 30
795.0
 10
61.64956005475777
 20
-159.4519552603438
 30
795.0
 10
61.83686727067704
 20
-157.8999999991462
 30
795.0
  0
LINE
  5
71
330
17
100
AcDbEntity
  8
0
100
AcDbLine
 10
26.36960956206561
 20
-180.1
 30
795.0
 11
58.83665524700268
 21
-180.1
 31
795.0
  0
SPLINE
  5
72
330
17
100
AcDbEntity
  8
0
100
AcDbSpline
 70
0
 71
1
 72
4
 73
2
 74
0
 40
0.0
 40
0.0
 40
1.0
 40
1.0
 10
26.36960955010672
 20
-183.9000006000001
 30
795.0
 10
26.36960955010672
 20
-180.09999939999994
 30
795.0
  0
LINE
  5
73
330
17
100
AcDbEntity
  8
0
100
AcDbLine
 10
26.36960956206561
 20
-183.9
 30
795.0
 11
58.25150960983402
 21
-183.9
 31
795.0
  0
SPLINE
  5
74
330
17
100
AcDbEntity
  8
0
100
AcDbSpline
 70
0
 71
8
 72
25
 73
16
 74
0
 40
0.0
 40
0.0
 40
0.0
 40
0.0
 40
0.0
 40
0.0
 40
0.0
 40
0.0
 40
0.0
 40
0.41530351843263474
 40
0.41530351843263474
 40
0.41530351843263474
 40
0.41530351843263474
 40
0.41530351843263474
 40
0.41530351843263474
 40
0.41530351843263474
 40
1.0
 40
1.0
 40
1.0
 40
1.0
 40
1.0
 40
1.0
 40
1.0
 40
1.0
 40
1.0
 10
54.28494263832492
 20
-206.09999999959444
 30
795.0
 10
54.51916946927825
 20
-204.95286680274666
 30
795.0
 10
54.74941093139634
 20
-203.8049215660837
 30
795.0
 10
54.97583446107194
 20
-202.65621598526832
 30
795.0
 10
55.198591281126404
 20
-201.50679477090915
 30
795.0
 10
55.4178191912303
 20
-200.35669625703167
 30
795.0
 10
55.633644554796305
 20
-199.20595283573996
 30
795.0
 10
55.84618395416629
 20
-198.05459131880113
 30
795.0
 10
56.35029997209587
 20
-195.2808171123507
 30
795.0
 10
56.638747846581694
 20
-193.6578594677932
 30
795.0
 10
56.921186672584966
 20
-192.03383839550537
 30
795.0
 10
57.197878777600195
 20
-190.40882392569716
 30
795.0
 10
57.46905756439565
 20
-188.78287900134444
 30
795.0
 10
57.73493246722191
 20
-187.15606027703865
 30
795.0
 10
57.99569261394497
 20
-185.5284187083108
 30
795.0
 10
58.251509630615566
 20
-183.90000000326467
 30
795.0
  0
LINE
  5
75
330
17
100
AcDbEntity
  8
0
100
AcDbLine
 10
26.36960956206561
 20
-206.1
 30
795.0
 11
54.28494264031095
 21
-206.1
 31
795.0
  0
SPLINE
  5
76
330
17
100
AcDbEntity
  8
0
100
AcDbSpline
 70
0
 71
1
 72
4
 73
2
 74
0
 40
0.0
 40
0.0
 40
1.0
 40
1.0
 10
26.36960955010672
 20
-209.90000060000008
 30
795.0
 10
26.36960955010672
 20
-206.09999939999992
 30
795.0
  0
LINE
  5
77
330
17
100
AcDbEntity
  8
0
100
AcDbLine
 10
26.36960956206561
 20
-209.9
 30
795.0
 11
53.488320462520896
 21
-209.9
 31
795.0
  0
SPLINE
  5
78
330
17
100
AcDbEntity
  8
0
100
AcDbSpline
 70
0
 71
8
 72
32
 73
23
 74
0
 40
0.0
 40
0.0
 40
0.0
 40
0.0
 40
0.0
 40
0.0
 40
0.0
 40
0.0
 40
0.0
 40
0.0105578812266052
 40
0.0105578812266052
 40
0.0105578812266052
 40
0.0105578812266052
 40
0.0105578812266052
 40
0.0105578812266052
 40
0.0105578812266052
 40
0.596908329622013
 40
0.596908329622013
 40
0.596908329622013
 40
0.596908329622013
 40
0.596908329622013
 40
0.596908329622013
 40
0.596908329622013
 40
1.0
 40
1.0
 40
1.0
 40
1.0
 40
1.0
 40
1.0
 40
1.0
 40
1.0
 40
1.0
 10
47.647603173127784
 20
-232.10000015365043
 30
795.0
 10
47.65716329071367
 20
-232.0712385566572
 30
795.0
 10
47.6667153472384
 20
-232.0424742764029
 30
795.0
 10
47.676259366204214
 20
-232.01370732368346
 30
795.0
 10
47.68579537123295
 20
-231.9849377093056
 30
795.0
 10
47.69532338606608
 20
-231.95616544408708
 30
795.0
 10
47.704843434564715
 20
-231.9273905388565
 30
795.0
 10
47.714355540709576
 20
-231.89861300445347
 30
795.0
 10
48.25169146985441
 20
-230.27147660078742
 30
795.0
 10
48.75500758724972
 20
-228.66508925038264
 30
795.0
 10
49.237337108483075
 20
-227.052174538252
 30
795.0
 10
49.70115239645243
 20
-225.43382658981184
 30
795.0
 10
50.148383776055695
 20
-223.81088083092038
 30
795.0
 10
50.58061695127288
 20
-222.18397101668282
 30
795.0
 10
50.999153822240444
 20
-220.553546578471
 30
795.0
 10
51.68420041268442
 20
-217.7968431557312
 30
795.0
 10
51.957327767642354
 20
-216.67231455958554
 30
795.0
 10
52.224858755760835
 20
-215.5464350415873
 30
795.0
 10
52.487105067741375
 20
-214.4193072716738
 30
795.0
 10
52.74434143820332
 20
-213.2910225850867
 30
795.0
 10
52.9968127868959
 20
-212.16166253231205
 30
795.0
 10
53.244739336236336
 20
-211.03129999032376
 30
795.0
 10
53.488320474584796
 20
-209.90000000259744
 30
795.0
  0
LINE
  5
79
330
17
100
AcDbEntity
  8
0
100
AcDbLine
 10
26.36960956206561
 20
-232.1
 30
795.0
 11
47.647602710870714
 21
-232.1
 31
795.0
  0
SPLINE
  5
7A
330
17
100
AcDbEntity
  8
0
100
AcDbSpline
 70
0
 71
1
 72
4
 73
2
 74
0
 40
0.0
 40
0.0
 40
1.0
 40
1.0
 10
26.36960955010672
 20
-235.90000060000008
 30
795.0
 10
26.36960955010672
 20
-232.09999939999992
 30
795.0
  0
LINE
  5
7B
330
17
100
AcDbEntity
  8
0
100
AcDbLine
 10
26.36960956206561
 20
-235.9
 30
795.0
 11
46.30896802396529
 21
-235.9
 31
795.0
  0
SPLINE
  5
7C
330
17
100
AcDbEntity
  8
0
100
AcDbSpline
 70
0
 71
8
 72
88
 73
79
 74
0
 40
0.0
 40
0.0
 40
0.0
 40
0.0
 40
0.0
 40
0.0
 40
0.0
 40
0.0
 40
0.0
 40
0.017033115894089627
 40
0.017033115894089627
 40
0.017033115894089627
 40
0.017033115894089627
 40
0.017033115894089627
 40
0.017033115894089627
 40
0.017033115894089627
 40
0.03155619301045205
 40
0.03155619301045205
 40
0.03155619301045205
 40
0.03155619301045205
 40
0.03155619301045205
 40
0.03155619301045205
 40
0.03155619301045205
 40
0.05083087252296108
 40
0.05083087252296108
 40
0.05083087252296108
 40
0.05083087252296108
 40
0.05083087252296108
 40
0.05083087252296108
 40
0.05083087252296108
 40
0.05456367572587857
 40
0.05456367572587857
 40
0.05456367572587857
 40
0.05456367572587857
 40
0.05456367572587857
 40
0.05456367572587857
 40
0.05456367572587857
 40
0.058263134546871785
 40
0.058263134546871785
 40
0.058263134546871785
 40
0.058263134546871785
 40
0.058263134546871785
 40
0.058263134546871785
 40
0.058263134546871785
 40
0.06596982909211939
 40
0.06596982909211939
 40
0.06596982909211939
 40
0.06596982909211939
 40
0.06596982909211939
 40
0.06596982909211939
 40
0.06596982909211939
 40
0.07523342738337721
 40
0.07523342738337721
 40
0.07523342738337721
 40
0.07523342738337721
 40
0.07523342738337721
 40
0.07523342738337721
 40
0.07523342738337721
 40
0.08196313628082699
 40
0.08196313628082699
 40
0.08196313628082699
 40
0.08196313628082699
 40
0.08196313628082699
 40
0.08196313628082699
 40
0.08196313628082699
 40
0.09445127266347282
 40
0.09445127266347282
 40
0.09445127266347282
 40
0.09445127266347282
 40
0.09445127266347282
 40
0.09445127266347282
 40
0.09445127266347282
 40
0.1110734585964862
 40
0.1110734585964862
 40
0.1110734585964862
 40
0.1110734585964862
 40
0.1110734585964862
 40
0.1110734585964862
 40
0.1110734585964862
 40
0.11648718800893407
 40
0.11648718800893407
 40
0.11648718800893407
 40
0.11648718800893407
 40
0.11648718800893407
 40
0.11648718800893407
 40
0.11648718800893407
 40
0.11648718800893407
 40
0.11648718800893407
 10
4.551835201253624
 20
-230.85250160417695
 30
795.0
 10
4.981067737066775
 20
-232.0168292897027
 30
795.0
 10
5.423293794504826
 20
-233.17629050225275
 30
795.0
 10
5.87950447156709
 20
-234.33040637627124
 30
795.0
 10
6.350796257699166
 20
-235.47854309149199
 30
795.0
 10
6.83840267655379
 20
-236.61989833497557
 30
795.0
 10
7.3437269325901
 20
-237.7534872648724
 30
795.0
 10
7.868400648025727
 20
-238.87811727625925
 30
795.0
 10
8.879928113497932
 20
-240.94236993446455
 30
795.0
 10
9.36088707395562
 20
-241.88468192264276
 30
795.0
 10
9.858528036195406
 20
-242.81847367070318
 30
795.0
 10
10.374212012356175
 20
-243.7426403005435
 30
795.0
 10
10.909436455598062
 20
-244.65575543843147
 30
795.0
 10
11.465869559815118
 20
-245.5560510528289
 30
795.0
 10
12.045415197725017
 20
-246.4413792312115
 30
795.0
 10
13.453176199238378
 20
-248.46080712210457
 30
795.0
 10
14.29963886275695
 20
-249.5799890976882
 30
795.0
 10
15.196044079695596
 20
-250.66250643222773
 30
795.0
 10
16.148320650031053
 20
-251.69997248647132
 30
795.0
 10
17.161903110650854
 20
-252.6799046470682
 30
795.0
 10
18.24130285418216
 20
-253.5862415005235
 30
795.0
 10
19.38970987101576
 20
-254.39978366614324
 30
795.0
 10
20.84193034290842
 20
-255.23695092345184
 30
795.0
 10
21.0786562771084
 20
-255.36773461296735
 30
795.0
 10
21.316501672471695
 20
-255.49346542631048
 30
795.0
 10
21.555472673640644
 20
-255.61413133184394
 30
795.0
 10
21.795575425255937
 20
-255.72972029793235
 30
795.0
 10
22.036816071956608
 20
-255.84022029294218
 30
795.0
 10
22.27920075838006
 20
-255.94561928524155
 30
795.0
 10
22.764095051815154
 20
-256.14529536682204
 30
795.0
 10
23.007370821114144
 20
-256.2400063061236
 30
795.0
 10
23.252537250663494
 20
-256.3298311763049
 30
795.0
 10
23.499418357112447
 20
-256.4149147694998
 30
795.0
 10
23.747966782333574
 20
-256.49498554293183
 30
795.0
 10
23.998164667671045
 20
-256.5696793425415
 30
795.0
 10
24.249884017278486
 20
-256.63894496345927
 30
795.0
 10
25.030425909385283
 20
-256.8349642888376
 30
795.0
 10
25.56421966793868
 20
-256.9428040993346
 30
795.0
 10
26.10321935191543
 20
-257.0241232766047
 30
795.0
 10
26.646012120088553
 20
-257.0771780290322
 30
795.0
 10
27.19097173471235
 20
-257.1005191806747
 30
795.0
 10
27.736250122577413
 20
-257.0931327116247
 30
795.0
 10
28.27976706372319
 20
-257.0546002350272
 30
795.0
 10
29.467604603209093
 20
-256.90195441772
 30
795.0
 10
30.11051625664598
 20
-256.774092342447
 30
795.0
 10
30.74382070606611
 20
-256.6022195805328
 30
795.0
 10
31.36440339539622
 20
-256.38831245944505
 30
795.0
 10
31.96997062693338
 20
-256.13531261868314
 30
795.0
 10
32.55890253982121
 20
-255.84672071419442
 30
795.0
 10
33.1301359146118
 20
-255.52626844704528
 30
795.0
 10
34.0847707359577
 20
-254.9244224682989
 30
795.0
 10
34.476993697462994
 20
-254.6562056375927
 30
795.0
 10
34.85970103790722
 20
-254.37429432039687
 30
795.0
 10
35.23296185601607
 20
-254.07991441495105
 30
795.0
 10
35.596933803801896
 20
-253.77420957054403
 30
795.0
 10
35.951843929054846
 20
-253.4582167980707
 30
795.0
 10
36.29797555628634
 20
-253.13284994216937
 30
795.0
 10
37.26229521272257
 20
-252.179172585358
 30
795.0
 10
37.8595374734305
 20
-251.53017118109628
 30
795.0
 10
38.42975685962704
 20
-250.85673448284342
 30
795.0
 10
38.97502338890656
 20
-250.162864513995
 30
795.0
 10
39.49724279193494
 20
-249.4518267528059
 30
795.0
 10
39.99821529571656
 20
-248.72619694205497
 30
795.0
 10
40.47965902557487
 20
-247.98787960234463
 30
795.0
 10
41.56028029798308
 20
-246.24018993407967
 30
795.0
 10
42.14527159569365
 20
-245.22264655675903
 30
795.0
 10
42.70190290647078
 20
-244.1889971844428
 30
795.0
 10
43.23301090413662
 20
-243.1419653848487
 30
795.0
 10
43.74095779351138
 20
-242.08370089259682
 30
795.0
 10
44.227791469818015
 20
-241.01586173315846
 30
795.0
 10
44.69530589762913
 20
-239.93964495048118
 30
795.0
 10
45.29162290583879
 20
-238.50283917375364
 30
795.0
 10
45.437844962603286
 20
-238.14519228810036
 30
795.0
 10
45.5837813659341
 20
-237.7828620040202
 30
795.0
 10
45.72942609961194
 20
-237.41582090405086
 30
795.0
 10
45.87477314741736
 20
-237.04404157073054
 30
795.0
 10
46.01981649313072
 20
-236.66749658659757
 30
795.0
 10
46.16455012053226
 20
-236.28615853419083
 30
795.0
 10
46.30896801340208
 20
-235.8999999960496
 30
795.0
  0
SPLINE
  5
7D
330
17
100
AcDbEntity
  8
0
100
AcDbSpline
 70
0
 71
8
 72
417
 73
408
 74
0
 40
0.0
 40
0.0
 40
0.0
 40
0.0
 40
0.0
 40
0.0
 40
0.0
 40
0.0
 40
0.0
 40
0.0022684763276184803
 40
0.0022684763276184803
 40
0.0022684763276184803
 40
0.0022684763276184803
 40
0.0022684763276184803
 40
0.0022684763276184803
 40
0.0022684763276184803
 40
0.004638055607616547
 40
0.004638055607616547
 40
0.004638055607616547
 40
0.004638055607616547
 40
0.004638055607616547
 40
0.004638055607616547
 40
0.004638055607616547
 40
0.0072445928155872134
 40
0.0072445928155872134
 40
0.0072445928155872134
 40
0.0072445928155872134
 40
0.0072445928155872134
 40
0.0072445928155872134
 40
0.0072445928155872134
 40
0.008903298311575712
 40
0.008903298311575712
 40
0.008903298311575712
 40
0.008903298311575712
 40
0.008903298311575712
 40
0.008903298311575712
 40
0.008903298311575712
 40
0.011272877591582213
 40
0.011272877591582213
 40
0.011272877591582213
 40
0.011272877591582213
 40
0.011272877591582213
 40
0.011272877591582213
 40
0.011272877591582213
 40
0.013879414799590643
 40
0.013879414799590643
 40
0.013879414799590643
 40
0.013879414799590643
 40
0.013879414799590643
 40
0.013879414799590643
 40
0.013879414799590643
 40
0.018485891584654884
 40
0.018485891584654884
 40
0.018485891584654884
 40
0.018485891584654884
 40
0.018485891584654884
 40
0.018485891584654884
 40
0.018485891584654884
 40
0.02612225407954405
 40
0.02612225407954405
 40
0.02612225407954405
 40
0.02612225407954405
 40
0.02612225407954405
 40
0.02612225407954405
 40
0.02612225407954405
 40
0.042371198292582526
 40
0.042371198292582526
 40
0.042371198292582526
 40
0.042371198292582526
 40
0.042371198292582526
 40
0.042371198292582526
 40
0.042371198292582526
 40
0.053311867563552426
 40
0.053311867563552426
 40
0.053311867563552426
 40
0.053311867563552426
 40
0.053311867563552426
 40
0.053311867563552426
 40
0.053311867563552426
 40
0.059060364415746656
 40
0.059060364415746656
 40
0.059060364415746656
 40
0.059060364415746656
 40
0.059060364415746656
 40
0.059060364415746656
 40
0.059060364415746656
 40
0.06609613600183115
 40
0.06609613600183115
 40
0.06609613600183115
 40
0.06609613600183115
 40
0.06609613600183115
 40
0.06609613600183115
 40
0.06609613600183115
 40
0.10042192112219384
 40
0.10042192112219384
 40
0.10042192112219384
 40
0.10042192112219384
 40
0.10042192112219384
 40
0.10042192112219384
 40
0.10042192112219384
 40
0.18140018936173707
 40
0.18140018936173707
 40
0.18140018936173707
 40
0.18140018936173707
 40
0.18140018936173707
 40
0.18140018936173707
 40
0.18140018936173707
 40
0.24501006363446307
 40
0.24501006363446307
 40
0.24501006363446307
 40
0.24501006363446307
 40
0.24501006363446307
 40
0.24501006363446307
 40
0.24501006363446307
 40
0.3086641638062688
 40
0.3086641638062688
 40
0.3086641638062688
 40
0.3086641638062688
 40
0.3086641638062688
 40
0.3086641638062688
 40
0.3086641638062688
 40
0.35787513952780275
 40
0.35787513952780275
 40
0.35787513952780275
 40
0.35787513952780275
 40
0.35787513952780275
 40
0.35787513952780275
 40
0.35787513952780275
 40
0.4002876906704519
 40
0.4002876906704519
 40
0.4002876906704519
 40
0.4002876906704519
 40
0.4002876906704519
 40
0.4002876906704519
 40
0.4002876906704519
 40
0.4291455850471927
 40
0.4291455850471927
 40
0.4291455850471927
 40
0.4291455850471927
 40
0.4291455850471927
 40
0.4291455850471927
 40
0.4291455850471927
 40
0.4404396112570581
 40
0.4404396112570581
 40
0.4404396112570581
 40
0.4404396112570581
 40
0.4404396112570581
 40
0.4404396112570581
 40
0.4404396112570581
 40
0.45135463770159256
 40
0.45135463770159256
 40
0.45135463770159256
 40
0.45135463770159256
 40
0.45135463770159256
 40
0.45135463770159256
 40
0.45135463770159256
 40
0.46398296270065326
 40
0.46398296270065326
 40
0.46398296270065326
 40
0.46398296270065326
 40
0.46398296270065326
 40
0.46398296270065326
 40
0.46398296270065326
 40
0.4704467480887554
 40
0.4704467480887554
 40
0.4704467480887554
 40
0.4704467480887554
 40
0.4704467480887554
 40
0.4704467480887554
 40
0.4704467480887554
 40
0.47400323316980114
 40
0.47400323316980114
 40
0.47400323316980114
 40
0.47400323316980114
 40
0.47400323316980114
 40
0.47400323316980114
 40
0.47400323316980114
 40
0.4775597182508428
 40
0.4775597182508428
 40
0.4775597182508428
 40
0.4775597182508428
 40
0.4775597182508428
 40
0.4775597182508428
 40
0.4775597182508428
 40
0.47933796079136015
 40
0.47933796079136015
 40
0.47933796079136015
 40
0.47933796079136015
 40
0.47933796079136015
 40
0.47933796079136015
 40
0.47933796079136015
 40
0.48230169835889886
 40
0.48230169835889886
 40
0.48230169835889886
 40
0.48230169835889886
 40
0.48230169835889886
 40
0.48230169835889886
 40
0.48230169835889886
 40
0.48526543592646165
 40
0.48526543592646165
 40
0.48526543592646165
 40
0.48526543592646165
 40
0.48526543592646165
 40
0.48526543592646165
 40
0.48526543592646165
 40
0.48842168118865503
 40
0.48842168118865503
 40
0.48842168118865503
 40
0.48842168118865503
 40
0.48842168118865503
 40
0.48842168118865503
 40
0.48842168118865503
 40
0.49142453340120684
 40
0.49142453340120684
 40
0.49142453340120684
 40
0.49142453340120684
 40
0.49142453340120684
 40
0.49142453340120684
 40
0.49142453340120684
 40
0.49439579267623596
 40
0.49439579267623596
 40
0.49439579267623596
 40
0.49439579267623596
 40
0.49439579267623596
 40
0.49439579267623596
 40
0.49439579267623596
 40
0.49736705195121494
 40
0.49736705195121494
 40
0.49736705195121494
 40
0.49736705195121494
 40
0.49736705195121494
 40
0.49736705195121494
 40
0.49736705195121494
 40
0.4998431013470218
 40
0.4998431013470218
 40
0.4998431013470218
 40
0.4998431013470218
 40
0.4998431013470218
 40
0.4998431013470218
 40
0.4998431013470218
 40
0.5023191507428483
 40
0.5023191507428483
 40
0.5023191507428483
 40
0.5023191507428483
 40
0.5023191507428483
 40
0.5023191507428483
 40
0.5023191507428483
 40
0.5071326352346041
 40
0.5071326352346041
 40
0.5071326352346041
 40
0.5071326352346041
 40
0.5071326352346041
 40
0.5071326352346041
 40
0.5071326352346041
 40
0.5151122080797579
 40
0.5151122080797579
 40
0.5151122080797579
 40
0.5151122080797579
 40
0.5151122080797579
 40
0.5151122080797579
 40
0.5151122080797579
 40
0.5320914866690661
 40
0.5320914866690661
 40
0.5320914866690661
 40
0.5320914866690661
 40
0.5320914866690661
 40
0.5320914866690661
 40
0.5320914866690661
 40
0.5435239082009204
 40
0.5435239082009204
 40
0.5435239082009204
 40
0.5435239082009204
 40
0.5435239082009204
 40
0.5435239082009204
 40
0.5435239082009204
 40
0.5495307841126807
 40
0.5495307841126807
 40
0.5495307841126807
 40
0.5495307841126807
 40
0.5495307841126807
 40
0.5495307841126807
 40
0.5495307841126807
 40
0.5568827932215484
 40
0.5568827932215484
 40
0.5568827932215484
 40
0.5568827932215484
 40
0.5568827932215484
 40
0.5568827932215484
 40
0.5568827932215484
 40
0.5913470056600759
 40
0.5913470056600759
 40
0.5913470056600759
 40
0.5913470056600759
 40
0.5913470056600759
 40
0.5913470056600759
 40
0.5913470056600759
 40
0.6773169907959468
 40
0.6773169907959468
 40
0.6773169907959468
 40
0.6773169907959468
 40
0.6773169907959468
 40
0.6773169907959468
 40
0.6773169907959468
 40
0.7436908478758081
 40
0.7436908478758081
 40
0.7436908478758081
 40
0.7436908478758081
 40
0.7436908478758081
 40
0.7436908478758081
 40
0.7436908478758081
 40
0.8100467668489578
 40
0.8100467668489578
 40
0.8100467668489578
 40
0.8100467668489578
 40
0.8100467668489578
 40
0.8100467668489578
 40
0.8100467668489578
 40
0.8613106914152447
 40
0.8613106914152447
 40
0.8613106914152447
 40
0.8613106914152447
 40
0.8613106914152447
 40
0.8613106914152447
 40
0.8613106914152447
 40
0.9054733592452506
 40
0.9054733592452506
 40
0.9054733592452506
 40
0.9054733592452506
 40
0.9054733592452506
 40
0.9054733592452506
 40
0.9054733592452506
 40
0.935514435091687
 40
0.935514435091687
 40
0.935514435091687
 40
0.935514435091687
 40
0.935514435091687
 40
0.935514435091687
 40
0.935514435091687
 40
0.9472708019831352
 40
0.9472708019831352
 40
0.9472708019831352
 40
0.9472708019831352
 40
0.9472708019831352
 40
0.9472708019831352
 40
0.9472708019831352
 40
0.9586326599845952
 40
0.9586326599845952
 40
0.9586326599845952
 40
0.9586326599845952
 40
0.9586326599845952
 40
0.9586326599845952
 40
0.9586326599845952
 40
0.9717779670459802
 40
0.9717779670459802
 40
0.9717779670459802
 40
0.9717779670459802
 40
0.9717779670459802
 40
0.9717779670459802
 40
0.9717779670459802
 40
0.9785063885491709
 40
0.9785063885491709
 40
0.9785063885491709
 40
0.9785063885491709
 40
0.9785063885491709
 40
0.9785063885491709
 40
0.9785063885491709
 40
0.9822084919997005
 40
0.9822084919997005
 40
0.9822084919997005
 40
0.9822084919997005
 40
0.9822084919997005
 40
0.9822084919997005
 40
0.9822084919997005
 40
0.9859105954502287
 40
0.9859105954502287
 40
0.9859105954502287
 40
0.9859105954502287
 40
0.9859105954502287
 40
0.9859105954502287
 40
0.9859105954502287
 40
0.9877616471754921
 40
0.9877616471754921
 40
0.9877616471754921
 40
0.9877616471754921
 40
0.9877616471754921
 40
0.9877616471754921
 40
0.9877616471754921
 40
0.9908467333842629
 40
0.9908467333842629
 40
0.9908467333842629
 40
0.9908467333842629
 40
0.9908467333842629
 40
0.9908467333842629
 40
0.9908467333842629
 40
0.9939318195930279
 40
0.9939318195930279
 40
0.9939318195930279
 40
0.9939318195930279
 40
0.9939318195930279
 40
0.9939318195930279
 40
0.9939318195930279
 40
0.9960913799391646
 40
0.9960913799391646
 40
0.9960913799391646
 40
0.9960913799391646
 40
0.9960913799391646
 40
0.9960913799391646
 40
0.9960913799391646
 40
1.0
 40
1.0
 40
1.0
 40
1.0
 40
1.0
 40
1.0
 40
1.0
 40
1.0
 40
1.0
 10
4.551835201253637
 20
230.85250160417692
 30
795.0
 10
4.551692673175002
 20
230.8526441592914
 30
795.0
 10
4.551720917873002
 20
230.85244347180023
 30
795.0
 10
4.551810699519391
 20
230.85221287902314
 30
795.0
 10
4.5518877290635125
 20
230.85210705003175
 30
795.0
 10
4.551912664232309
 20
230.8521219856495
 30
795.0
 10
4.551881109530316
 20
230.852095018452
 30
795.0
 10
4.551823616239669
 20
230.85170481276654
 30
795.0
 10
4.551786949314201
 20
230.8491829434485
 30
795.0
 10
4.5517591584428185
 20
230.8472715493249
 30
795.0
 10
4.55171975505158
 20
230.84456147199694
 30
795.0
 10
4.551666184386115
 20
230.84087700115944
 30
795.0
 10
4.551595891692056
 20
230.83604242650745
 30
795.0
 10
4.551506322215036
 20
230.82988203773604
 30
795.0
 10
4.5513949212006874
 20
230.8222201245401
 30
795.0
 10
4.551109767857989
 20
230.80260791389688
 30
795.0
 10
4.5509308944083795
 20
230.79030539715635
 30
795.0
 10
4.550719113167749
 20
230.77573955597722
 30
795.0
 10
4.550471023758038
 20
230.75867651994358
 30
795.0
 10
4.550183225801179
 20
230.7388824186395
 30
795.0
 10
4.549852318919109
 20
230.716123381649
 30
795.0
 10
4.5494749027337615
 20
230.69016553855622
 30
795.0
 10
4.54877564222463
 20
230.6420719610105
 30
795.0
 10
4.548483496223631
 20
230.62197881093232
 30
795.0
 10
4.548170262583326
 20
230.60043530007596
 30
795.0
 10
4.547835065022964
 20
230.57738115980646
 30
795.0
 10
4.547477027261796
 20
230.55275612148938
 30
795.0
 10
4.5470952730190755
 20
230.52649991649
 30
795.0
 10
4.5466889260140535
 20
230.49855227617383
 30
795.0
 10
4.545640229897302
 20
230.42642529723796
 30
795.0
 10
4.544971372189753
 20
230.38042275654675
 30
795.0
 10
4.544247982088958
 20
230.33066959952743
 30
795.0
 10
4.54346750484055
 20
230.27699011587458
 30
795.0
 10
4.542627385690155
 20
230.2192085952832
 30
795.0
 10
4.541725069883407
 20
230.15714932744822
 30
795.0
 10
4.5407580026659415
 20
230.09063660206508
 30
795.0
 10
4.538585818562589
 20
229.94123862626938
 30
795.0
 10
4.537366567382025
 20
229.857381250607
 30
795.0
 10
4.536062475363641
 20
229.76768871142616
 30
795.0
 10
4.5346701421293725
 20
229.6719271383109
 30
795.0
 10
4.533186167301156
 20
229.56986266084553
 30
795.0
 10
4.531607150500927
 20
229.461261408614
 30
795.0
 10
4.52992969135062
 20
229.34588951120023
 30
795.0
 10
4.525005867778203
 20
229.0072399125041
 30
795.0
 10
4.5218588736123895
 20
228.79079667572728
 30
795.0
 10
4.51871025946482
 20
228.5742420202067
 30
795.0
 10
4.515560490661624
 20
228.35760795006192
 30
795.0
 10
4.512409880303337
 20
228.1409159996377
 30
795.0
 10
4.509258630101231
 20
227.92418004217038
 30
795.0
 10
4.506106811275961
 20
227.7074049760796
 30
795.0
 10
4.49772855921435
 20
227.1311674938244
 30
795.0
 10
4.492501422650571
 20
226.77165670436543
 30
795.0
 10
4.48727337778131
 20
226.41208344369832
 30
795.0
 10
4.482044651425757
 20
226.05246331190645
 30
795.0
 10
4.476815401390676
 20
225.69280716260457
 30
795.0
 10
4.47158573434265
 20
225.33312233210106
 30
795.0
 10
4.466355704823435
 20
224.973412571623
 30
795.0
 10
4.449995940378686
 20
223.84822447694546
 30
795.0
 10
4.438865187442862
 20
223.08267612626224
 30
795.0
 10
4.427733513917342
 20
222.31706445948566
 30
795.0
 10
4.416601172444359
 20
221.55140685275987
 30
795.0
 10
4.4054683344721814
 20
220.78571509792724
 30
795.0
 10
4.394335112149015
 20
220.01999690830425
 30
795.0
 10
4.383201552165109
 20
219.25425549511755
 30
795.0
 10
4.364571035333373
 20
217.97289011803306
 30
795.0
 10
4.356836222242887
 20
217.44090693249484
 30
795.0
 10
4.34885880596157
 20
216.8922380408161
 30
795.0
 10
4.3406343718738745
 20
216.3265798155899
 30
795.0
 10
4.33215850536425
 20
215.74362862940907
 30
795.0
 10
4.323426791817148
 20
215.14308085486664
 30
795.0
 10
4.314434816617023
 20
214.52463286455563
 30
795.0
 10
4.3003144926881
 20
213.55346849165315
 30
795.0
 10
4.295450828947942
 20
213.21895417054813
 30
795.0
 10
4.290587124764789
 20
212.88443817208238
 30
795.0
 10
4.285723358429778
 20
212.54992059348191
 30
795.0
 10
4.280859535688245
 20
212.2154015248703
 30
795.0
 10
4.275995689739731
 20
211.88088104926834
 30
795.0
 10
4.271131881237974
 20
211.5463592425943
 30
795.0
 10
4.26031537911705
 20
210.80240254887678
 30
795.0
 10
4.254269738151574
 20
210.38655843817085
 30
795.0
 10
4.2481326426981525
 20
209.96436398854217
 30
795.0
 10
4.241905460060447
 20
209.5358793469871
 30
795.0
 10
4.235589557542122
 20
209.10116466050195
 30
795.0
 10
4.229186302446846
 20
208.66028007608307
 30
795.0
 10
4.222697062078282
 20
208.21328574072677
 30
795.0
 10
4.184050978829519
 20
205.5499527492433
 30
795.0
 10
4.152053634497787
 20
203.33962890679746
 30
795.0
 10
4.120171115609429
 20
201.12928017908615
 30
795.0
 10
4.088423009979727
 20
198.91891202400845
 30
795.0
 10
4.056823725581115
 20
196.7085281958269
 30
795.0
 10
4.02538539572386
 20
194.4981312811764
 30
795.0
 10
3.9941167530504975
 20
192.28772252053434
 30
795.0
 10
3.889680241103364
 20
184.86268045075877
 30
795.0
 10
3.8173253564966365
 20
179.64800083389775
 30
795.0
 10
3.7460683154978263
 20
174.43327828610785
 30
795.0
 10
3.675980580523603
 20
169.2185195310381
 30
795.0
 10
3.6071413372344767
 20
164.00372981780407
 30
795.0
 10
3.539629350667088
 20
158.78891170825335
 30
795.0
 10
3.4735351776557652
 20
153.57406666236875
 30
795.0
 10
3.3582389600251434
 20
144.2628196552981
 30
795.0
 10
3.3084544043856927
 20
140.1664288017662
 30
795.0
 10
3.259658669384257
 20
136.07002262394232
 30
795.0
 10
3.2119073916881007
 20
131.9736015191335
 30
795.0
 10
3.1652627576148378
 20
127.87716578511798
 30
795.0
 10
3.1197953013255697
 20
123.78071563825577
 30
795.0
 10
3.075586444023277
 20
119.68425121148492
 30
795.0
 10
2.989847308816422
 20
111.48844570309105
 30
795.0
 10
2.9483217998426072
 20
107.38910467772195
 30
795.0
 10
2.908058505475468
 20
103.28975150215928
 30
795.0
 10
2.868974985208455
 20
99.1903880275342
 30
795.0
 10
2.830999901119615
 20
95.09101595556581
 30
795.0
 10
2.7940704836255716
 20
90.99163688946653
 30
795.0
 10
2.758130661657899
 20
86.89225239023216
 30
795.0
 10
2.6960707403987634
 20
79.6236274908713
 30
795.0
 10
2.669572851382479
 20
76.45438871305403
 30
795.0
 10
2.6436128280120825
 20
73.28514842262432
 30
795.0
 10
2.6181691738909834
 20
70.11590741687422
 30
795.0
 10
2.593221958233746
 20
66.9466665794407
 30
795.0
 10
2.568752421883814
 20
63.7774269142894
 30
795.0
 10
2.5447424895421835
 20
60.608189606870205
 30
795.0
 10
2.500861813354306
 20
54.70754760662833
 30
795.0
 10
2.480877480756746
 20
51.976142163455464
 30
795.0
 10
2.4612096219700286
 20
49.24474053409523
 30
795.0
 10
2.4418468232782122
 20
46.51334379375629
 30
795.0
 10
2.4227770688308286
 20
43.78195347582901
 30
795.0
 10
2.4039875998990397
 20
41.05057160474922
 30
795.0
 10
2.385463797143665
 20
38.31920090771703
 30
795.0
 10
2.3547487644546026
 20
33.72940584527642
 30
795.0
 10
2.3424257306738565
 20
31.870974124953364
 30
795.0
 10
2.3302097911882074
 20
30.01255095676401
 30
795.0
 10
2.3180938720829127
 20
28.15413770644662
 30
795.0
 10
2.306067767436362
 20
26.295737076838314
 30
795.0
 10
2.294119030466056
 20
24.43735293717146
 30
795.0
 10
2.282230353297629
 20
22.57899088205127
 30
795.0
 10
2.2657232052385443
 20
19.993372128912426
 30
795.0
 10
2.261204414383595
 20
19.284991662295397
 30
795.0
 10
2.256809029447325
 20
18.595558231234406
 30
795.0
 10
2.2525272142403088
 20
17.924998483411116
 30
795.0
 10
2.248371554894141
 20
17.273125199054164
 30
795.0
 10
2.2443290257137343
 20
16.639640361920527
 30
795.0
 10
2.2404026489911413
 20
16.024132567077658
 30
795.0
 10
2.2329001452975734
 20
14.848093541218125
 30
795.0
 10
2.2292129519982806
 20
14.2701153897964
 30
795.0
 10
2.225525805847028
 20
13.692144628961337
 30
795.0
 10
2.221838712577035
 20
13.114182157416698
 30
795.0
 10
2.2181516796142757
 20
12.536229139207872
 30
795.0
 10
2.214464716358328
 20
11.95828704774256
 30
795.0
 10
2.2107778346858344
 20
11.380357744713711
 30
795.0
 10
2.2028255612203154
 20
10.133816013881166
 30
795.0
 10
2.198560224808296
 20
9.465212267210973
 30
795.0
 10
2.194295042954536
 20
8.79663274798147
 30
795.0
 10
2.190030037060297
 20
8.128080810922086
 30
795.0
 10
2.185765258393073
 20
7.459564492352907
 30
795.0
 10
2.1815007852983284
 20
6.791096073139947
 30
795.0
 10
2.177236733182838
 20
6.122693643640705
 30
795.0
 10
2.1707910751680854
 20
5.1123182166759165
 30
795.0
 10
2.168609044220907
 20
4.770278591729664
 30
795.0
 10
2.1664272128723283
 20
4.4282702544355494
 30
795.0
 10
2.164245608053431
 20
4.086297426319533
 30
795.0
 10
2.162064297363291
 20
3.7443707037346847
 30
795.0
 10
2.159883384610297
 20
3.402506358943107
 30
795.0
 10
2.1577030231378775
 20
3.060728428962637
 30
795.0
 10
2.1543242656248736
 20
2.5310984738830333
 30
795.0
 10
2.1531882136019873
 20
2.353019052813794
 30
795.0
 10
2.152113387860625
 20
2.1845370274167744
 30
795.0
 10
2.151097847510017
 20
2.025348157483383
 30
795.0
 10
2.150139651659395
 20
1.8751482028049955
 30
795.0
 10
2.14923685941799
 20
1.7336329231729601
 30
795.0
 10
2.1483875298950323
 20
1.6004980783785927
 30
795.0
 10
2.146791914504476
 20
1.3503807780479347
 30
795.0
 10
2.1460456286368776
 20
1.2333983225116631
 30
795.0
 10
2.145348923706189
 20
1.1241878213958014
 30
795.0
 10
2.1446998588216433
 20
1.0224450344917637
 30
795.0
 10
2.14409649309247
 20
0.9278657215909414
 30
795.0
 10
2.143536885627902
 20
0.8401456424847019
 30
795.0
 10
2.1430190955371695
 20
0.7589805569643886
 30
795.0
 10
2.1423022251256705
 20
0.64660905874986
 30
795.0
 10
2.142073237442604
 20
0.6107145810226364
 30
795.0
 10
2.141853976268958
 20
0.5763447616136426
 30
795.0
 10
2.141644198993387
 20
0.5434615704968405
 30
795.0
 10
2.141443663004545
 20
0.5120269776461644
 30
795.0
 10
2.1412521256910853
 20
0.48200295303551866
 30
795.0
 10
2.1410693444416617
 20
0.45335146663877884
 30
795.0
 10
2.140604630317035
 20
0.38050619141465347
 30
795.0
 10
2.1403378324688416
 20
0.33868486158842315
 30
795.0
 10
2.1400935598996673
 20
0.3003944340152214
 30
795.0
 10
2.139870689408834
 20
0.2654588437592946
 30
795.0
 10
2.139668097795666
 20
0.23370202588501496
 30
795.0
 10
2.139484661859487
 20
0.20494791545688024
 30
795.0
 10
2.1393192583996203
 20
0.1790204475395143
 30
795.0
 10
2.1390222700311643
 20
0.13246666685562047
 30
795.0
 10
2.1388906851225724
 20
0.11184035408876977
 30
795.0
 10
2.138774886288941
 20
0.09368855396155187
 30
795.0
 10
2.1386737503295943
 20
0.07783520153840909
 30
795.0
 10
2.1385861540438547
 20
0.064104231883789
 30
795.0
 10
2.138510974231047
 20
0.052319580062144516
 30
795.0
 10
2.1384470876904937
 20
0.04230518113793381
 30
795.0
 10
2.13833616563336
 20
0.024917829748837054
 30
795.0
 10
2.1382848834427395
 20
0.01687919891906477
 30
795.0
 10
2.1382430049304397
 20
0.010314621701771744
 30
795.0
 10
2.138212534856637
 20
0.00553835002165418
 30
795.0
 10
2.138193369946638
 20
0.0025341952757165537
 30
795.0
 10
2.138183380947182
 20
0.0009683908910318451
 30
795.0
 10
2.1381792092532885
 20
0.00031446587718164665
 30
795.0
 10
2.1381764165116173
 20
-0.00012330440974750445
 30
795.0
 10
2.1381781933853197
 20
4.910559376725132e-05
 30
795.0
 10
2.138175618767325
 20
0.00019620592242119983
 30
795.0
 10
2.1381771403182794
 20
-6.615049551328411e-05
 30
795.0
 10
2.1381852660514014
 20
-0.0011805560644155833
 30
795.0
 10
2.1381997702325717
 20
-0.0035663306288213903
 30
795.0
 10
2.138224820398825
 20
-0.007464144085460589
 30
795.0
 10
2.138292548327145
 20
-0.018080691587201162
 30
795.0
 10
2.138336819885176
 20
-0.025020385602266916
 30
795.0
 10
2.1383936190108974
 20
-0.03392381187302768
 30
795.0
 10
2.138464886595075
 20
-0.0450952106080698
 30
795.0
 10
2.138552563528479
 20
-0.058838822016016125
 30
795.0
 10
2.1386585907018785
 20
-0.07545888630552612
 30
795.0
 10
2.1387849090060427
 20
-0.09525964368529573
 30
795.0
 10
2.139082009657435
 20
-0.14183102504242126
 30
795.0
 10
2.1392527920046662
 20
-0.16860164902008784
 30
795.0
 10
2.1394477472641995
 20
-0.1991614465053126
 30
795.0
 10
2.139668816326802
 20
-0.2338146577065008
 30
795.0
 10
2.139917940083242
 20
-0.2728655228322075
 30
795.0
 10
2.140197059424289
 20
-0.31661828209113757
 30
795.0
 10
2.140508115240714
 20
-0.36537717569214584
 30
795.0
 10
2.141140492742097
 20
-0.46450416730414196
 30
795.0
 10
2.1414514630096173
 20
-0.5132496508685024
 30
795.0
 10
2.141787082426527
 20
-0.5658589594730066
 30
795.0
 10
2.1421484741935006
 20
-0.6225081580532815
 30
795.0
 10
2.1425367615112165
 20
-0.683373311544892
 30
795.0
 10
2.14295306758035
 20
-0.7486304848833398
 30
795.0
 10
2.143398515601578
 20
-0.8184557430040655
 30
795.0
 10
2.1443499419495726
 20
-0.9675945586814265
 30
795.0
 10
2.144855920276338
 20
-1.046908116237629
 30
795.0
 10
2.14539328695655
 20
-1.1311418884471567
 30
795.0
 10
2.145963165190886
 20
-1.2204719402458897
 30
795.0
 10
2.146566678180023
 20
-1.315074336569489
 30
795.0
 10
2.1472049491246366
 20
-1.4151251423533955
 30
795.0
 10
2.1478791012254015
 20
-1.5208004225328295
 30
795.0
 10
2.149972758607887
 20
-1.8489872371148195
 30
795.0
 10
2.151356342412974
 20
-2.065867976763748
 30
795.0
 10
2.1527406357168783
 20
-2.2828599324174554
 30
795.0
 10
2.1541254347170606
 20
-2.4999311573857597
 30
795.0
 10
2.155510602284826
 20
-2.717060156383422
 30
795.0
 10
2.156896050077158
 20
-2.9342330814190376
 30
795.0
 10
2.1582817469030657
 20
-3.151445043155938
 30
795.0
 10
2.1619652547972623
 20
-3.72884549673401
 30
795.0
 10
2.164263373895512
 20
-4.089082273151924
 30
795.0
 10
2.1665618907957014
 20
-4.449381406159397
 30
795.0
 10
2.1688607061598937
 20
-4.809727324265481
 30
795.0
 10
2.1711597508739757
 20
-5.1701091936275
 30
795.0
 10
2.173458978221598
 20
-5.53051969131451
 30
795.0
 10
2.175758364316993
 20
-5.890955073176428
 30
795.0
 10
2.1829509552730713
 20
-7.018414386344812
 30
795.0
 10
2.187844605981647
 20
-7.785508205592279
 30
795.0
 10
2.192738659869785
 20
-8.552665224393387
 30
795.0
 10
2.197633006291212
 20
-9.319868098629314
 30
795.0
 10
2.202527570157992
 20
-10.087105058050359
 30
795.0
 10
2.2074223023533963
 20
-10.854368403467255
 30
795.0
 10
2.2123171824303762
 20
-11.621654929745748
 30
795.0
 10
2.2205081075862516
 20
-12.90560599923502
 30
795.0
 10
2.223908726996936
 20
-13.438662869635422
 30
795.0
 10
2.2274160071775944
 20
-13.988439122410089
 30
795.0
 10
2.2310318890189933
 20
-14.55523899776747
 30
795.0
 10
2.234758313411902
 20
-15.139366735916143
 30
795.0
 10
2.2385972212470904
 20
-15.741126577064819
 30
795.0
 10
2.2425505534153274
 20
-16.36082276142234
 30
795.0
 10
2.2487585700745996
 20
-17.333947222627213
 30
795.0
 10
2.250896935237822
 20
-17.66913669373705
 30
795.0
 10
2.2530352950616157
 20
-18.004327839454696
 30
795.0
 10
2.2551736258540456
 20
-18.33952056321843
 30
795.0
 10
2.257311931466683
 20
-18.67471477497735
 30
795.0
 10
2.259450243294602
 20
-19.009910391191315
 30
795.0
 10
2.2615886202763815
 20
-19.345107334830985
 30
795.0
 10
2.2663445630221872
 20
-20.09056542086544
 30
795.0
 10
2.269003337189476
 20
-20.507248540595825
 30
795.0
 10
2.2717035771610563
 20
-20.930294382657856
 30
795.0
 10
2.274445388702013
 20
-21.3596424351404
 30
795.0
 10
2.2772288775774303
 20
-21.795232186132314
 30
795.0
 10
2.2800541495523934
 20
-22.237003123722424
 30
795.0
 10
2.2829213103919863
 20
-22.684894735999535
 30
795.0
 10
2.299467792832225
 20
-25.26684855520131
 30
795.0
 10
2.3131747655869344
 20
-27.39488123484505
 30
795.0
 10
2.326986608379245
 20
-29.522934984719097
 30
795.0
 10
2.3409211830847045
 20
-31.65100444143792
 30
795.0
 10
2.3549916328282356
 20
-33.77908587949378
 30
795.0
 10
2.3692089585760434
 20
-35.90717667823648
 30
795.0
 10
2.3835812256413242
 20
-38.03527546088944
 30
795.0
 10
2.4343729150924096
 20
-45.471880874396305
 30
795.0
 10
2.4716413190472935
 20
-50.78042015027032
 30
795.0
 10
2.510036432947177
 20
-56.08898067307695
 30
795.0
 10
2.5496326080914677
 20
-61.39755372561086
 30
795.0
 10
2.590513551711309
 20
-66.70613185019903
 30
795.0
 10
2.6327617229890343
 20
-72.01471067221033
 30
795.0
 10
2.6764726940942727
 20
-77.3232866807653
 30
795.0
 10
2.7567170241469814
 20
-86.73038510460296
 30
795.0
 10
2.792615386118874
 20
-90.82890866808334
 30
795.0
 10
2.82950126126108
 20
-94.92742684812953
 30
795.0
 10
2.867430576707806
 20
-99.02593808372045
 30
795.0
 10
2.9064658850184224
 20
-103.12444077390036
 30
795.0
 10
2.9466781912542683
 20
-107.22293322186461
 30
795.0
 10
2.988149543478101
 20
-111.32141358324073
 30
795.0
 10
3.0737916555509646
 20
-119.51723840807976
 30
795.0
 10
3.117964564129573
 20
-123.61458274283602
 30
795.0
 10
3.163399232201834
 20
-127.71191279497734
 30
795.0
 10
3.2100138495702977
 20
-131.8092284330588
 30
795.0
 10
3.257737551630433
 20
-135.90652944279645
 30
795.0
 10
3.306507936818512
 20
-140.00381552866838
 30
795.0
 10
3.3562692259272175
 20
-144.1010862963667
 30
795.0
 10
3.446141271555351
 20
-151.36371621782587
 30
795.0
 10
3.4858728363772977
 20
-154.52908168868106
 30
795.0
 10
3.5261425482347097
 20
-157.69443739713375
 30
795.0
 10
3.5669290336165074
 20
-160.85978299283246
 30
795.0
 10
3.6082124607595096
 20
-164.02511800594803
 30
795.0
 10
3.6499741489401023
 20
-167.19044182126726
 30
795.0
 10
3.692196081318709
 20
-170.3557536270394
 30
795.0
 10
3.7716145627668576
 20
-176.24788288779598
 30
795.0
 10
3.8086970584531747
 20
-178.9747034880076
 30
795.0
 10
3.846096281849707
 20
-181.7015136277853
 30
795.0
 10
3.883800845764553
 20
-184.42831246832196
 30
795.0
 10
3.921798741534181
 20
-187.15509872319265
 30
795.0
 10
3.960077198587093
 20
-189.88187062914815
 30
795.0
 10
3.9986215594667445
 20
-192.6086257580743
 30
795.0
 10
4.0637979583953046
 20
-197.19018592841348
 30
795.0
 10
4.090298038501596
 20
-199.0450011154981
 30
795.0
 10
4.116905194996666
 20
-200.89980548603037
 30
795.0
 10
4.143612325343101
 20
-202.75459781939202
 30
795.0
 10
4.170409159271715
 20
-204.60937562144284
 30
795.0
 10
4.197283154421962
 20
-206.4641352764038
 30
795.0
 10
4.224216858228354
 20
-208.3188715419343
 30
795.0
 10
4.261724368260081
 20
-210.89940039011984
 30
795.0
 10
4.272003481813331
 20
-211.60635421790872
 30
795.0
 10
4.282010200001882
 20
-212.2943986712625
 30
795.0
 10
4.291736209251234
 20
-212.96360759024915
 30
795.0
 10
4.301198033716603
 20
-213.6141677627829
 30
795.0
 10
4.310388854163109
 20
-214.2463768417396
 30
795.0
 10
4.3193202937975155
 20
-214.86064508397823
 30
795.0
 10
4.336384967413766
 20
-216.03431525859537
 30
795.0
 10
4.3447716029336
 20
-216.611129336401
 30
795.0
 10
4.353158130799192
 20
-217.18793600998816
 30
795.0
 10
4.361544537919516
 20
-217.7647343789853
 30
795.0
 10
4.369930807338518
 20
-218.34152327719278
 30
795.0
 10
4.378316917594074
 20
-218.9183012284936
 30
795.0
 10
4.386702841568234
 20
-219.49506636777545
 30
795.0
 10
4.404790535847398
 20
-220.73909762090358
 30
795.0
 10
4.414492179699627
 20
-221.40635503760996
 30
795.0
 10
4.424193470645767
 20
-222.0735881822234
 30
795.0
 10
4.4338943598171685
 20
-222.7407936936663
 30
795.0
 10
4.443594730155038
 20
-223.4079635208965
 30
795.0
 10
4.453294402773094
 20
-224.0750853605154
 30
795.0
 10
4.4629931141595645
 20
-224.74214108877013
 30
795.0
 10
4.477653958362576
 20
-225.75048124005173
 30
795.0
 10
4.482617061695944
 20
-226.0918324130605
 30
795.0
 10
4.487579709282581
 20
-226.43315224082588
 30
795.0
 10
4.492541839626705
 20
-226.77443649380533
 30
795.0
 10
4.497503298380356
 20
-227.11567455629066
 30
795.0
 10
4.502463848519934
 20
-227.45685012632748
 30
795.0
 10
4.507423139918011
 20
-227.79793912293235
 30
795.0
 10
4.5151082126409445
 20
-228.32650127697678
 30
795.0
 10
4.517692197790967
 20
-228.5042220099036
 30
795.0
 10
4.520136921886868
 20
-228.67236467826336
 30
795.0
 10
4.522446799544193
 20
-228.83123290946324
 30
795.0
 10
4.5246262453784905
 20
-228.98113033091008
 30
795.0
 10
4.526679674005309
 20
-229.122360570011
 30
795.0
 10
4.528611500040197
 20
-229.25522725417306
 30
795.0
 10
4.532240776157213
 20
-229.50484076743336
 30
795.0
 10
4.533938226239341
 20
-229.6215875965316
 30
795.0
 10
4.535522902960635
 20
-229.73057812550496
 30
795.0
 10
4.536999220936647
 20
-229.83211598176047
 30
795.0
 10
4.538371594782924
 20
-229.92650479270523
 30
795.0
 10
4.539644439115012
 20
-230.01404818574616
 30
795.0
 10
4.540822168548461
 20
-230.0950497882903
 30
795.0
 10
4.5424527122740015
 20
-230.20719494747192
 30
795.0
 10
4.5429735517784104
 20
-230.2430171264267
 30
795.0
 10
4.543472268038989
 20
-230.27731771803488
 30
795.0
 10
4.543949412882683
 20
-230.31013467572248
 30
795.0
 10
4.544405538136435
 20
-230.3415059529152
 30
795.0
 10
4.544841195627189
 20
-230.37146950303895
 30
795.0
 10
4.54525693718189
 20
-230.40006327951963
 30
795.0
 10
4.546313943703462
 20
-230.472761829556
 30
795.0
 10
4.546920783587467
 20
-230.51449892272538
 30
795.0
 10
4.547476389033865
 20
-230.5527122255965
 30
795.0
 10
4.547983314797027
 20
-230.58757744847432
 30
795.0
 10
4.54844411563132
 20
-230.61927030166387
 30
795.0
 10
4.54886134629111
 20
-230.64796649547017
 30
795.0
 10
4.54923756153077
 20
-230.67384174019816
 30
795.0
 10
4.549913070678557
 20
-230.7203017521075
 30
795.0
 10
4.550212364586689
 20
-230.7408865192889
 30
795.0
 10
4.550475752583424
 20
-230.75900175800192
 30
795.0
 10
4.550705789423132
 20
-230.77482317855166
 30
795.0
 10
4.5509050298601785
 20
-230.7885264912431
 30
795.0
 10
4.551076028648934
 20
-230.80028740638113
 30
795.0
 10
4.551221340543768
 20
-230.8102816342708
 30
795.0
 10
4.551429046127746
 20
-230.82456716087958
 30
795.0
 10
4.551503237208061
 20
-230.8296698578398
 30
795.0
 10
4.551566969820741
 20
-230.8340532447323
 30
795.0
 10
4.551621120246539
 20
-230.8377775901918
 30
795.0
 10
4.551666564766199
 20
-230.84090316285287
 30
795.0
 10
4.551704179660471
 20
-230.84349023135016
 30
795.0
 10
4.551734841210104
 20
-230.84559906431826
 30
795.0
 10
4.551803921518493
 20
-230.85035025378923
 30
795.0
 10
4.5519446072161855
 20
-230.85137689073932
 30
795.0
 10
4.552022139129492
 20
-230.85151372900717
 30
795.0
 10
4.551962169847599
 20
-230.85152772196204
 30
795.0
 10
4.551775348208319
 20
-230.85180888857704
 30
795.0
 10
4.55155731929809
 20
-230.85237031342962
 30
795.0
 10
4.5514887244519695
 20
-230.8528481467011
 30
795.0
 10
4.551835201253637
 20
-230.85250160417692
 30
795.0
  0
ENDSEC
  0
SECTION
  2
OBJECTS
  0
DICTIONARY
  5
A
330
0
100
AcDbDictionary
281
1
  3
ACAD_COLOR
350
B
  3
ACAD_GROUP
350
C
  3
ACAD_LAYOUT
350
D
  3
ACAD_MATERIAL
350
E
  3
ACAD_MLEADERSTYLE
350
F
  3
ACAD_MLINESTYLE
350
10
  3
ACAD_PLOTSETTINGS
350
11
  3
ACAD_PLOTSTYLENAME
350
12
  3
ACAD_SCALELIST
350
14
  3
ACAD_TABLESTYLE
350
15
  3
ACAD_VISUALSTYLE
350
16
  3
EZDXF_META
350
2D
  0
DICTIONARY
  5
B
330
A
100
AcDbDictionary
281
1
  0
DICTIONARY
  5
C
330
A
100
AcDbDictionary
281
1
  0
DICTIONARY
  5
D
330
A
100
AcDbDictionary
281
1
  3
Model
350
1A
  3
Layout1
350
1E
  0
DICTIONARY
  5
E
330
A
100
AcDbDictionary
281
1
  3
ByBlock
350
1F
  3
ByLayer
350
20
  3
Global
350
21
  0
DICTIONARY
  5
F
330
A
100
AcDbDictionary
281
1
  3
Standard
350
2C
  0
DICTIONARY
  5
10
330
A
100
AcDbDictionary
281
1
  3
Standard
350
22
  0
DICTIONARY
  5
11
330
A
100
AcDbDictionary
281
1
  0
ACDBDICTIONARYWDFLT
  5
12
330
A
100
AcDbDictionary
281
1
  3
Normal
350
13
100
AcDbDictionaryWithDefault
340
13
  0
ACDBPLACEHOLDER
  5
13
330
12
  0
DICTIONARY
  5
14
330
A
100
AcDbDictionary
281
1
  0
DICTIONARY
  5
15
330
A
100
AcDbDictionary
281
1
  0
DICTIONARY
  5
16
330
A
100
AcDbDictionary
281
1
  0
LAYOUT
  5
1A
330
D
100
AcDbPlotSettings
  1

  2
Adobe PDF
  4
A3
  6

 40
7.5
 41
20.0
 42
7.5
 43
20.0
 44
420.0
 45
297.0
 46
0.0
 47
0.0
 48
0.0
 49
0.0
140
0.0
141
0.0
142
1.0
143
1.0
 70
1024
 72
1
 73
1
 74
5
  7

 75
16
 76
0
 77
2
 78
300
147
1.0
148
0.0
149
0.0
100
AcDbLayout
  1
Model
 70
1
 71
0
 10
0.0
 20
0.0
 11
420.0
 21
297.0
 12
0.0
 22
0.0
 32
0.0
 14
1e+20
 24
1e+20
 34
1e+20
 15
-1e+20
 25
-1e+20
 35
-1e+20
146
0.0
 13
0.0
 23
0.0
 33
0.0
 16
1.0
 26
0.0
 36
0.0
 17
0.0
 27
1.0
 37
0.0
 76
1
330
17
  0
LAYOUT
  5
1E
330
D
100
AcDbPlotSettings
  1

  2
Adobe PDF
  4
A3
  6

 40
7.5
 41
20.0
 42
7.5
 43
20.0
 44
420.0
 45
297.0
 46
0.0
 47
0.0
 48
0.0
 49
0.0
140
0.0
141
0.0
142
1.0
143
1.0
 70
0
 72
1
 73
1
 74
5
  7

 75
16
 76
0
 77
2
 78
300
147
1.0
148
0.0
149
0.0
100
AcDbLayout
  1
Layout1
 70
1
 71
1
 10
0.0
 20
0.0
 11
420.0
 21
297.0
 12
0.0
 22
0.0
 32
0.0
 14
1e+20
 24
1e+20
 34
1e+20
 15
-1e+20
 25
-1e+20
 35
-1e+20
146
0.0
 13
0.0
 23
0.0
 33
0.0
 16
1.0
 26
0.0
 36
0.0
 17
0.0
 27
1.0
 37
0.0
 76
1
330
1B
  0
MATERIAL
  5
1F
102
{ACAD_REACTORS
330
E
102
}
330
E
100
AcDbMaterial
  1
ByBlock
  2

 70
0
 40
1.0
 71
1
 41
1.0
 91
-1023410177
 42
1.0
 72
1
  3

 73
1
 74
1
 75
1
 44
0.5
 73
0
 45
1.0
 46
1.0
 77
1
  4

 78
1
 79
1
170
1
 48
1.0
171
1
  6

172
1
173
1
174
1
140
1.0
141
1.0
175
1
  7

176
1
177
1
178
1
143
1.0
179
1
  8

270
1
271
1
272
1
145
1.0
146
1.0
273
1
  9

274
1
275
1
276
1
 42
1.0
 72
1
  3

 73
1
 74
1
 75
1
 94
63
  0
MATERIAL
  5
20
102
{ACAD_REACTORS
330
E
102
}
330
E
100
AcDbMaterial
  1
ByLayer
  2

 70
0
 40
1.0
 71
1
 41
1.0
 91
-1023410177
 42
1.0
 72
1
  3

 73
1
 74
1
 75
1
 44
0.5
 73
0
 45
1.0
 46
1.0
 77
1
  4

 78
1
 79
1
170
1
 48
1.0
171
1
  6

172
1
173
1
174
1
140
1.0
141
1.0
175
1
  7

176
1
177
1
178
1
143
1.0
179
1
  8

270
1
271
1
272
1
145
1.0
146
1.0
273
1
  9

274
1
275
1
276
1
 42
1.0
 72
1
  3

 73
1
 74
1
 75
1
 94
63
  0
MATERIAL
  5
21
102
{ACAD_REACTORS
330
E
102
}
330
E
100
AcDbMaterial
  1
Global
  2

 70
0
 40
1.0
 71
1
 41
1.0
 91
-1023410177
 42
1.0
 72
1
  3

 73
1
 74
1
 75
1
 44
0.5
 73
0
 45
1.0
 46
1.0
 77
1
  4

 78
1
 79
1
170
1
 48
1.0
171
1
  6

172
1
173
1
174
1
140
1.0
141
1.0
175
1
  7

176
1
177
1
178
1
143
1.0
179
1
  8

270
1
271
1
272
1
145
1.0
146
1.0
273
1
  9

274
1
275
1
276
1
 42
1.0
 72
1
  3

 73
1
 74
1
 75
1
 94
63
  0
MLINESTYLE
  5
22
102
{ACAD_REACTORS
330
10
102
}
330
10
100
AcDbMlineStyle
  2
Standard
 70
0
  3

 62
256
 51
90.0
 52
90.0
 71
2
 49
0.5
 62
256
  6
BYLAYER
 49
-0.5
 62
256
  6
BYLAYER
  0
MLEADERSTYLE
  5
2C
102
{ACAD_REACTORS
330
F
102
}
330
F
100
AcDbMLeaderStyle
179
2
170
2
171
1
172
0
 90
2
 40
0.0
 41
0.0
173
1
 91
-1056964608
 92
-2
290
1
 42
2.0
291
1
 43
8.0
  3
Standard
 44
4.0
300

342
29
174
1
175
1
176
0
178
1
 93
-1056964608
 45
4.0
292
0
297
0
 46
4.0
 94
-1056964608
 47
1.0
 49
1.0
140
1.0
294
1
141
0.0
177
0
142
1.0
295
0
296
0
143
3.75
271
0
272
9
273
9
  0
DICTIONARY
  5
2D
330
A
100
AcDbDictionary
280
1
281
1
  3
CREATED_BY_EZDXF
350
2E
  3
WRITTEN_BY_EZDXF
350
80
  0
DICTIONARYVAR
  5
2E
330
2D
100
DictionaryVariables
280
0
  1
0.17 @ 2022-02-15T16:36:38.467421+00:00
  0
DICTIONARYVAR
  5
80
330
2D
100
DictionaryVariables
280
0
  1
0.17 @ 2022-02-15T16:36:38.565110+00:00
  0
ENDSEC
  0
EOF
