  0
SECTION
  2
HEADER
  9
$ACADVER
  1
AC1027
  9
$ACADMAINTVER
 70
105
  9
$DWGCODEPAGE
  3
ANSI_1252
  9
$LASTSAVEDBY
  1
ezdxf
  9
$REQUIREDVERSIONS
160
0
  9
$INSBASE
 10
0.0
 20
0.0
 30
0.0
  9
$EXTMIN
 10
1e+20
 20
1e+20
 30
1e+20
  9
$EXTMAX
 10
-1e+20
 20
-1e+20
 30
-1e+20
  9
$LIMMIN
 10
0.0
 20
0.0
  9
$LIMMAX
 10
420.0
 20
297.0
  9
$ORTHOMODE
 70
0
  9
$REGENMODE
 70
1
  9
$FILLMODE
 70
1
  9
$QTEXTMODE
 70
0
  9
$MIRRTEXT
 70
1
  9
$LTSCALE
 40
1.0
  9
$ATTMODE
 70
1
  9
$TEXTSIZE
 40
2.5
  9
$TRACEWID
 40
1.0
  9
$TEXTSTYLE
  7
Standard
  9
$CLAYER
  8
0
  9
$CELTYPE
  6
ByLayer
  9
$CECOLOR
 62
256
  9
$CELTSCALE
 40
1.0
  9
$DISPSILH
 70
0
  9
$DIMSCALE
 40
1.0
  9
$DIMASZ
 40
2.5
  9
$DIMEXO
 40
0.625
  9
$DIMDLI
 40
3.75
  9
$DIMRND
 40
0.0
  9
$DIMDLE
 40
0.0
  9
$DIMEXE
 40
1.25
  9
$DIMTP
 40
0.0
  9
$DIMTM
 40
0.0
  9
$DIMTXT
 40
2.5
  9
$DIMCEN
 40
2.5
  9
$DIMTSZ
 40
0.0
  9
$DIMTOL
 70
0
  9
$DIMLIM
 70
0
  9
$DIMTIH
 70
0
  9
$DIMTOH
 70
0
  9
$DIMSE1
 70
0
  9
$DIMSE2
 70
0
  9
$DIMTAD
 70
1
  9
$DIMZIN
 70
8
  9
$DIMBLK
  1

  9
$DIMASO
 70
1
  9
$DIMSHO
 70
1
  9
$DIMPOST
  1

  9
$DIMAPOST
  1

  9
$DIMALT
 70
0
  9
$DIMALTD
 70
3
  9
$DIMALTF
 40
0.03937007874
  9
$DIMLFAC
 40
1.0
  9
$DIMTOFL
 70
1
  9
$DIMTVP
 40
0.0
  9
$DIMTIX
 70
0
  9
$DIMSOXD
 70
0
  9
$DIMSAH
 70
0
  9
$DIMBLK1
  1

  9
$DIMBLK2
  1

  9
$DIMSTYLE
  2
ISO-25
  9
$DIMCLRD
 70
0
  9
$DIMCLRE
 70
0
  9
$DIMCLRT
 70
0
  9
$DIMTFAC
 40
1.0
  9
$DIMGAP
 40
0.625
  9
$DIMJUST
 70
0
  9
$DIMSD1
 70
0
  9
$DIMSD2
 70
0
  9
$DIMTOLJ
 70
0
  9
$DIMTZIN
 70
8
  9
$DIMALTZ
 70
0
  9
$DIMALTTZ
 70
0
  9
$DIMUPT
 70
0
  9
$DIMDEC
 70
2
  9
$DIMTDEC
 70
2
  9
$DIMALTU
 70
2
  9
$DIMALTTD
 70
3
  9
$DIMTXSTY
  7
Standard
  9
$DIMAUNIT
 70
0
  9
$DIMADEC
 70
0
  9
$DIMALTRND
 40
0.0
  9
$DIMAZIN
 70
0
  9
$DIMDSEP
 70
44
  9
$DIMATFIT
 70
3
  9
$DIMFRAC
 70
0
  9
$DIMLDRBLK
  1

  9
$DIMLUNIT
 70
2
  9
$DIMLWD
 70
-2
  9
$DIMLWE
 70
-2
  9
$DIMTMOVE
 70
0
  9
$DIMFXL
 40
1.0
  9
$DIMFXLON
 70
0
  9
$DIMJOGANG
 40
0.785398163397
  9
$DIMTFILL
 70
0
  9
$DIMTFILLCLR
 70
0
  9
$DIMARCSYM
 70
0
  9
$DIMLTYPE
  6

  9
$DIMLTEX1
  6

  9
$DIMLTEX2
  6

  9
$DIMTXTDIRECTION
 70
0
  9
$LUNITS
 70
2
  9
$LUPREC
 70
4
  9
$SKETCHINC
 40
1.0
  9
$FILLETRAD
 40
10.0
  9
$AUNITS
 70
0
  9
$AUPREC
 70
2
  9
$MENU
  1
.
  9
$ELEVATION
 40
0.0
  9
$PELEVATION
 40
0.0
  9
$THICKNESS
 40
0.0
  9
$LIMCHECK
 70
0
  9
$CHAMFERA
 40
0.0
  9
$CHAMFERB
 40
0.0
  9
$CHAMFERC
 40
0.0
  9
$CHAMFERD
 40
0.0
  9
$SKPOLY
 70
0
  9
$TDCREATE
 40
2459626.733784722
  9
$TDUCREATE
 40
2458532.153996898
  9
$TDUPDATE
 40
2459626.733784722
  9
$TDUUPDATE
 40
2458532.1544311
  9
$TDINDWG
 40
0.0
  9
$TDUSRTIMER
 40
0.0
  9
$USRTIMER
 70
1
  9
$ANGBASE
 50
0.0
  9
$ANGDIR
 70
0
  9
$PDMODE
 70
0
  9
$PDSIZE
 40
0.0
  9
$PLINEWID
 40
0.0
  9
$SPLFRAME
 70
0
  9
$SPLINETYPE
 70
6
  9
$SPLINESEGS
 70
8
  9
$HANDSEED
  5
87
  9
$SURFTAB1
 70
6
  9
$SURFTAB2
 70
6
  9
$SURFTYPE
 70
6
  9
$SURFU
 70
6
  9
$SURFV
 70
6
  9
$UCSBASE
  2

  9
$UCSNAME
  2

  9
$UCSORG
 10
0.0
 20
0.0
 30
0.0
  9
$UCSXDIR
 10
1.0
 20
0.0
 30
0.0
  9
$UCSYDIR
 10
0.0
 20
1.0
 30
0.0
  9
$UCSORTHOREF
  2

  9
$UCSORTHOVIEW
 70
0
  9
$UCSORGTOP
 10
0.0
 20
0.0
 30
0.0
  9
$UCSORGBOTTOM
 10
0.0
 20
0.0
 30
0.0
  9
$UCSORGLEFT
 10
0.0
 20
0.0
 30
0.0
  9
$UCSORGRIGHT
 10
0.0
 20
0.0
 30
0.0
  9
$UCSORGFRONT
 10
0.0
 20
0.0
 30
0.0
  9
$UCSORGBACK
 10
0.0
 20
0.0
 30
0.0
  9
$PUCSBASE
  2

  9
$PUCSNAME
  2

  9
$PUCSORG
 10
0.0
 20
0.0
 30
0.0
  9
$PUCSXDIR
 10
1.0
 20
0.0
 30
0.0
  9
$PUCSYDIR
 10
0.0
 20
1.0
 30
0.0
  9
$PUCSORTHOREF
  2

  9
$PUCSORTHOVIEW
 70
0
  9
$PUCSORGTOP
 10
0.0
 20
0.0
 30
0.0
  9
$PUCSORGBOTTOM
 10
0.0
 20
0.0
 30
0.0
  9
$PUCSORGLEFT
 10
0.0
 20
0.0
 30
0.0
  9
$PUCSORGRIGHT
 10
0.0
 20
0.0
 30
0.0
  9
$PUCSORGFRONT
 10
0.0
 20
0.0
 30
0.0
  9
$PUCSORGBACK
 10
0.0
 20
0.0
 30
0.0
  9
$USERI1
 70
0
  9
$USERI2
 70
0
  9
$USERI3
 70
0
  9
$USERI4
 70
0
  9
$USERI5
 70
0
  9
$USERR1
 40
0.0
  9
$USERR2
 40
0.0
  9
$USERR3
 40
0.0
  9
$USERR4
 40
0.0
  9
$USERR5
 40
0.0
  9
$WORLDVIEW
 70
1
  9
$SHADEDGE
 70
3
  9
$SHADEDIF
 70
70
  9
$TILEMODE
 70
1
  9
$MAXACTVP
 70
64
  9
$PINSBASE
 10
0.0
 20
0.0
 30
0.0
  9
$PLIMCHECK
 70
0
  9
$PEXTMIN
 10
1e+20
 20
1e+20
 30
1e+20
  9
$PEXTMAX
 10
-1e+20
 20
-1e+20
 30
-1e+20
  9
$PLIMMIN
 10
0.0
 20
0.0
  9
$PLIMMAX
 10
420.0
 20
297.0
  9
$UNITMODE
 70
0
  9
$VISRETAIN
 70
1
  9
$PLINEGEN
 70
0
  9
$PSLTSCALE
 70
1
  9
$TREEDEPTH
 70
3020
  9
$CMLSTYLE
  2
Standard
  9
$CMLJUST
 70
0
  9
$CMLSCALE
 40
20.0
  9
$PROXYGRAPHICS
 70
1
  9
$MEASUREMENT
 70
1
  9
$CELWEIGHT
370
-1
  9
$ENDCAPS
280
0
  9
$JOINSTYLE
280
0
  9
$LWDISPLAY
290
0
  9
$INSUNITS
 70
6
  9
$HYPERLINKBASE
  1

  9
$STYLESHEET
  1

  9
$XEDIT
290
1
  9
$CEPSNTYPE
380
0
  9
$PSTYLEMODE
290
1
  9
$FINGERPRINTGUID
  2
{DE36E0FA-7C69-4297-B015-B0B2D0CBBDC6}
  9
$VERSIONGUID
  2
{F1FE8609-F13C-43FA-AFF6-62D0E46990CA}
  9
$EXTNAMES
290
1
  9
$PSVPSCALE
 40
0.0
  9
$OLESTARTUP
290
0
  9
$SORTENTS
280
127
  9
$INDEXCTL
280
0
  9
$HIDETEXT
280
1
  9
$XCLIPFRAME
280
0
  9
$HALOGAP
280
0
  9
$OBSCOLOR
 70
257
  9
$OBSLTYPE
280
0
  9
$INTERSECTIONDISPLAY
280
0
  9
$INTERSECTIONCOLOR
 70
257
  9
$DIMASSOC
280
2
  9
$PROJECTNAME
  1

  9
$CAMERADISPLAY
290
0
  9
$LENSLENGTH
 40
50.0
  9
$CAMERAHEIGHT
 40
0.0
  9
$STEPSPERSEC
 40
24.0
  9
$STEPSIZE
 40
100.0
  9
$3DDWFPREC
 40
2.0
  9
$PSOLWIDTH
 40
0.005
  9
$PSOLHEIGHT
 40
0.08
  9
$LOFTANG1
 40
1.570796326795
  9
$LOFTANG2
 40
1.570796326795
  9
$LOFTMAG1
 40
0.0
  9
$LOFTMAG2
 40
0.0
  9
$LOFTPARAM
 70
7
  9
$LOFTNORMALS
280
1
  9
$LATITUDE
 40
37.795
  9
$LONGITUDE
 40
-122.394
  9
$NORTHDIRECTION
 40
0.0
  9
$TIMEZONE
 70
-8000
  9
$LIGHTGLYPHDISPLAY
280
1
  9
$TILEMODELIGHTSYNCH
280
1
  9
$CMATERIAL
347
20
  9
$SOLIDHIST
280
0
  9
$SHOWHIST
280
1
  9
$DWFFRAME
280
2
  9
$DGNFRAME
280
2
  9
$REALWORLDSCALE
290
1
  9
$INTERFERECOLOR
 62
256
  9
$CSHADOW
280
0
  9
$SHADOWPLANELOCATION
 40
0.0
  0
ENDSEC
  0
SECTION
  2
CLASSES
  0
CLASS
  1
ACDBDICTIONARYWDFLT
  2
AcDbDictionaryWithDefault
  3
ObjectDBX Classes
 90
0
 91
0
280
0
281
0
  0
CLASS
  1
SUN
  2
AcDbSun
  3
SCENEOE
 90
1153
 91
0
280
0
281
0
  0
CLASS
  1
VISUALSTYLE
  2
AcDbVisualStyle
  3
ObjectDBX Classes
 90
4095
 91
0
280
0
281
0
  0
CLASS
  1
MATERIAL
  2
AcDbMaterial
  3
ObjectDBX Classes
 90
1153
 91
0
280
0
281
0
  0
CLASS
  1
SCALE
  2
AcDbScale
  3
ObjectDBX Classes
 90
1153
 91
0
280
0
281
0
  0
CLASS
  1
TABLESTYLE
  2
AcDbTableStyle
  3
ObjectDBX Classes
 90
4095
 91
0
280
0
281
0
  0
CLASS
  1
MLEADERSTYLE
  2
AcDbMLeaderStyle
  3
ACDB_MLEADERSTYLE_CLASS
 90
4095
 91
0
280
0
281
0
  0
CLASS
  1
DICTIONARYVAR
  2
AcDbDictionaryVar
  3
ObjectDBX Classes
 90
0
 91
0
280
0
281
0
  0
CLASS
  1
CELLSTYLEMAP
  2
AcDbCellStyleMap
  3
ObjectDBX Classes
 90
1152
 91
0
280
0
281
0
  0
CLASS
  1
MENTALRAYRENDERSETTINGS
  2
AcDbMentalRayRenderSettings
  3
SCENEOE
 90
1024
 91
0
280
0
281
0
  0
CLASS
  1
ACDBDETAILVIEWSTYLE
  2
AcDbDetailViewStyle
  3
ObjectDBX Classes
 90
1025
 91
0
280
0
281
0
  0
CLASS
  1
ACDBSECTIONVIEWSTYLE
  2
AcDbSectionViewStyle
  3
ObjectDBX Classes
 90
1025
 91
0
280
0
281
0
  0
CLASS
  1
RASTERVARIABLES
  2
AcDbRasterVariables
  3
ISM
 90
0
 91
0
280
0
281
0
  0
CLASS
  1
ACDBPLACEHOLDER
  2
AcDbPlaceHolder
  3
ObjectDBX Classes
 90
0
 91
0
280
0
281
0
  0
CLASS
  1
LAYOUT
  2
AcDbLayout
  3
ObjectDBX Classes
 90
0
 91
0
280
0
281
0
  0
ENDSEC
  0
SECTION
  2
TABLES
  0
TABLE
  2
VPORT
  5
8
330
0
100
AcDbSymbolTable
 70
1
  0
VPORT
  5
23
330
8
100
AcDbSymbolTableRecord
100
AcDbViewportTableRecord
  2
*Active
 70
0
 10
0.0
 20
0.0
 11
1.0
 21
1.0
 12
344.2
 22
148.5
 13
0.0
 23
0.0
 14
0.5
 24
0.5
 15
0.5
 25
0.5
 16
0.0
 26
0.0
 36
1.0
 17
0.0
 27
0.0
 37
0.0
 40
297.0
 41
1.34
 42
50.0
 43
0.0
 44
0.0
 50
0.0
 51
0.0
 71
0
 72
1000
 73
1
 74
3
 75
0
 76
0
 77
0
 78
0
281
0
 65
0
146
0.0
  0
ENDTAB
  0
TABLE
  2
LTYPE
  5
2
330
0
100
AcDbSymbolTable
 70
3
  0
LTYPE
  5
24
330
2
100
AcDbSymbolTableRecord
100
AcDbLinetypeTableRecord
  2
ByBlock
 70
0
  3

 72
65
 73
0
 40
0.0
  0
LTYPE
  5
25
330
2
100
AcDbSymbolTableRecord
100
AcDbLinetypeTableRecord
  2
ByLayer
 70
0
  3

 72
65
 73
0
 40
0.0
  0
LTYPE
  5
26
330
2
100
AcDbSymbolTableRecord
100
AcDbLinetypeTableRecord
  2
Continuous
 70
0
  3

 72
65
 73
0
 40
0.0
  0
ENDTAB
  0
TABLE
  2
LAYER
  5
1
330
0
100
AcDbSymbolTable
 70
2
  0
LAYER
  5
27
330
1
100
AcDbSymbolTableRecord
100
AcDbLayerTableRecord
  2
0
 70
0
 62
7
  6
Continuous
370
-3
390
13
347
21
  0
LAYER
  5
28
330
1
100
AcDbSymbolTableRecord
100
AcDbLayerTableRecord
  2
Defpoints
 70
0
 62
7
  6
Continuous
290
0
370
-3
390
13
347
21
  0
ENDTAB
  0
TABLE
  2
STYLE
  5
5
330
0
100
AcDbSymbolTable
 70
1
  0
STYLE
  5
29
330
5
100
AcDbSymbolTableRecord
100
AcDbTextStyleTableRecord
  2
Standard
 70
0
 40
0.0
 41
1.0
 50
0.0
 71
0
 42
2.5
  3
txt
  4

  0
ENDTAB
  0
TABLE
  2
VIEW
  5
7
330
0
100
AcDbSymbolTable
 70
0
  0
ENDTAB
  0
TABLE
  2
UCS
  5
6
330
0
100
AcDbSymbolTable
 70
0
  0
ENDTAB
  0
TABLE
  2
APPID
  5
3
330
0
100
AcDbSymbolTable
 70
3
  0
APPID
  5
2A
330
3
100
AcDbSymbolTableRecord
100
AcDbRegAppTableRecord
  2
ACAD
 70
0
  0
APPID
  5
84
330
3
100
AcDbSymbolTableRecord
100
AcDbRegAppTableRecord
  2
HATCHBACKGROUNDCOLOR
 70
0
  0
APPID
  5
85
330
3
100
AcDbSymbolTableRecord
100
AcDbRegAppTableRecord
  2
EZDXF
 70
0
  0
ENDTAB
  0
TABLE
  2
DIMSTYLE
  5
4
330
0
100
AcDbSymbolTable
 70
1
100
AcDbDimStyleTable
  0
DIMSTYLE
105
2B
330
4
100
AcDbSymbolTableRecord
100
AcDbDimStyleTableRecord
  2
Standard
 70
0
 40
1.0
 41
2.5
 42
0.625
 43
3.75
 44
1.25
 45
0.0
 46
0.0
 47
0.0
 48
0.0
 49
2.5
140
2.5
141
2.5
142
0.0
143
0.03937007874
144
1.0
145
0.0
146
1.0
147
0.625
148
0.0
 69
0
 70
0
 71
0
 72
0
 73
0
 74
0
 75
0
 76
0
 77
1
 78
8
 79
0
170
0
171
3
172
1
173
0
174
0
175
0
176
0
177
0
178
0
179
0
271
0
272
2
273
2
274
3
275
0
276
0
277
2
278
44
279
0
280
0
281
0
282
0
283
0
284
8
285
0
286
0
288
0
289
3
290
0
371
-2
372
-2
  0
ENDTAB
  0
TABLE
  2
BLOCK_RECORD
  5
9
330
0
100
AcDbSymbolTable
 70
2
  0
BLOCK_RECORD
  5
17
330
9
100
AcDbSymbolTableRecord
100
AcDbBlockTableRecord
  2
*Model_Space
340
1A
 70
0
280
1
281
0
  0
BLOCK_RECORD
  5
1B
330
9
100
AcDbSymbolTableRecord
100
AcDbBlockTableRecord
  2
*Paper_Space
340
1E
 70
0
280
1
281
0
  0
ENDTAB
  0
ENDSEC
  0
SECTION
  2
BLOCKS
  0
BLOCK
  5
18
330
17
100
AcDbEntity
  8
0
100
AcDbBlockBegin
  2
*Model_Space
 70
0
 10
0.0
 20
0.0
 30
0.0
  3
*Model_Space
  1

  0
ENDBLK
  5
19
330
17
100
AcDbEntity
  8
0
100
AcDbBlockEnd
  0
BLOCK
  5
1C
330
1B
100
AcDbEntity
  8
0
100
AcDbBlockBegin
  2
*Paper_Space
 70
0
 10
0.0
 20
0.0
 30
0.0
  3
*Paper_Space
  1

  0
ENDBLK
  5
1D
330
1B
100
AcDbEntity
  8
0
100
AcDbBlockEnd
  0
ENDSEC
  0
SECTION
  2
ENTITIES
  0
SPLINE
  5
2F
330
17
100
AcDbEntity
  8
0
100
AcDbSpline
 70
0
 71
8
 72
53
 73
44
 74
0
 40
0.0
 40
0.0
 40
0.0
 40
0.0
 40
0.0
 40
0.0
 40
0.0
 40
0.0
 40
0.0
 40
0.08425635386713952
 40
0.08425635386713952
 40
0.08425635386713952
 40
0.08425635386713952
 40
0.08425635386713952
 40
0.08425635386713952
 40
0.08425635386713952
 40
0.12106820144409819
 40
0.12106820144409819
 40
0.12106820144409819
 40
0.12106820144409819
 40
0.12106820144409819
 40
0.12106820144409819
 40
0.12106820144409819
 40
0.24635893496082134
 40
0.24635893496082134
 40
0.24635893496082134
 40
0.24635893496082134
 40
0.24635893496082134
 40
0.24635893496082134
 40
0.24635893496082134
 40
0.4385735169728092
 40
0.4385735169728092
 40
0.4385735169728092
 40
0.4385735169728092
 40
0.4385735169728092
 40
0.4385735169728092
 40
0.4385735169728092
 40
0.6942672838956361
 40
0.6942672838956361
 40
0.6942672838956361
 40
0.6942672838956361
 40
0.6942672838956361
 40
0.6942672838956361
 40
0.6942672838956361
 40
1.0
 40
1.0
 40
1.0
 40
1.0
 40
1.0
 40
1.0
 40
1.0
 40
1.0
 40
1.0
 10
26.446416270492303
 20
258.20355598302285
 30
821.0
 10
26.063259284804026
 20
258.18507246038905
 30
821.0
 10
25.680806081224862
 20
258.1520913968661
 30
821.0
 10
25.299659960623583
 20
258.1049697185434
 30
821.0
 10
24.92036523398135
 20
258.04417441011185
 30
821.0
 10
24.54340962472519
 20
257.97025541057434
 30
821.0
 10
24.169226343404016
 20
257.8838215329742
 30
821.0
 10
23.798195834707162
 20
257.7855194081433
 30
821.0
 10
23.27006412132049
 20
257.6281728537752
 30
821.0
 10
23.109915303055995
 20
257.57811659394497
 30
821.0
 10
22.95021700703621
 20
257.5259027968838
 30
821.0
 10
22.790980504967486
 20
257.4715729986503
 30
821.0
 10
22.632212075258437
 20
257.41515414745595
 30
821.0
 10
22.473913003019906
 20
257.35665860366447
 30
821.0
 10
22.316079580064972
 20
257.2960841397919
 30
821.0
 10
21.62306538747704
 20
257.02011317581076
 30
821.0
 10
21.096459889841945
 20
256.7841047138109
 30
821.0
 10
20.579794340603886
 20
256.52645655677327
 30
821.0
 10
20.07371565844905
 20
256.24841153601363
 30
821.0
 10
19.578654775030802
 20
255.95130726197806
 30
821.0
 10
19.09486385084853
 20
255.63650968049265
 30
821.0
 10
18.622445884124115
 20
255.30536023518272
 30
821.0
 10
17.45402816756883
 20
254.42797824533469
 30
821.0
 10
16.773535070645465
 20
253.86144946250866
 30
821.0
 10
16.119427305220697
 20
253.2639153111618
 30
821.0
 10
15.490843464126819
 20
252.63944305471298
 30
821.0
 10
14.886686689965906
 20
251.9916431005176
 30
821.0
 10
14.30570483143353
 20
251.32358755757696
 30
821.0
 10
13.74653033958892
 20
250.63776950428843
 30
821.0
 10
12.49095576392537
 20
249.0026238009538
 30
821.0
 10
11.810592100008376
 20
248.0415517508606
 30
821.0
 10
11.163246792352547
 20
247.05744339412104
 30
821.0
 10
10.546092352705088
 20
246.05404953158134
 30
821.0
 10
9.956638128266366
 20
245.03441227513028
 30
821.0
 10
9.392630988676043
 20
244.00092667379653
 30
821.0
 10
8.852010828887487
 20
242.9553682282612
 30
821.0
 10
7.712115950658103
 20
240.63573625371265
 30
821.0
 10
7.122297217529086
 20
239.35745305189886
 30
821.0
 10
6.560268189002803
 20
238.06647837553533
 30
821.0
 10
6.0235055916539935
 20
236.76474970149567
 30
821.0
 10
5.50987294016684
 20
235.45383349974708
 30
821.0
 10
5.017510661656814
 20
234.1349709795846
 30
821.0
 10
4.5447831812604065
 20
232.80910014272783
 30
821.0
 10
4.0902224591678475
 20
231.47687961306386
 30
821.0
  0
SPLINE
  5
30
330
17
100
AcDbEntity
  8
0
100
AcDbSpline
 70
0
 71
1
 72
4
 73
2
 74
0
 40
0.0
 40
0.0
 40
1.0
 40
1.0
 10
26.446416269334165
 20
258.2035560067692
 30
821.0
 10
26.446416269334165
 20
258.09999939999005
 30
821.0
  0
LINE
  5
31
330
17
100
AcDbEntity
  8
0
100
AcDbLine
 10
26.44641626924031
 20
258.1
 30
821.0
 11
28.612695685565594
 21
258.1
 31
821.0
  0
SPLINE
  5
32
330
17
100
AcDbEntity
  8
0
100
AcDbSpline
 70
0
 71
8
 72
46
 73
37
 74
0
 40
0.0
 40
0.0
 40
0.0
 40
0.0
 40
0.0
 40
0.0
 40
0.0
 40
0.0
 40
0.0
 40
0.08331762444162857
 40
0.08331762444162857
 40
0.08331762444162857
 40
0.08331762444162857
 40
0.08331762444162857
 40
0.08331762444162857
 40
0.08331762444162857
 40
0.3616457932543568
 40
0.3616457932543568
 40
0.3616457932543568
 40
0.3616457932543568
 40
0.3616457932543568
 40
0.3616457932543568
 40
0.3616457932543568
 40
0.5935052345875419
 40
0.5935052345875419
 40
0.5935052345875419
 40
0.5935052345875419
 40
0.5935052345875419
 40
0.5935052345875419
 40
0.5935052345875419
 40
0.7998628264783411
 40
0.7998628264783411
 40
0.7998628264783411
 40
0.7998628264783411
 40
0.7998628264783411
 40
0.7998628264783411
 40
0.7998628264783411
 40
1.0
 40
1.0
 40
1.0
 40
1.0
 40
1.0
 40
1.0
 40
1.0
 40
1.0
 40
1.0
 10
46.47618513872365
 20
235.90000069988477
 30
821.0
 10
46.37024677334705
 20
236.1913289784618
 30
821.0
 10
46.263315429656494
 20
236.4822957296846
 30
821.0
 10
46.155371644047996
 20
236.77288933476657
 30
821.0
 10
46.04639569082828
 20
237.06309769102643
 30
821.0
 10
45.93636701809072
 20
237.35290802634626
 30
821.0
 10
45.82526368359139
 20
237.64230671362935
 30
821.0
 10
45.713061790624984
 20
237.93127908525827
 30
821.0
 10
45.22115884826239
 20
239.1836638012184
 30
821.0
 10
44.83007465981061
 20
240.14252231033686
 30
821.0
 10
44.42555719924258
 20
241.09589568795562
 30
821.0
 10
44.00658463502545
 20
242.0431247793285
 30
821.0
 10
43.572008039561815
 20
242.98336586344163
 30
821.0
 10
43.12051999731246
 20
243.91557608827011
 30
821.0
 10
42.650593187651594
 20
244.83848493952613
 30
821.0
 10
41.75197427299721
 20
246.51031748511426
 30
821.0
 10
41.32958418444095
 20
247.26240092512228
 30
821.0
 10
40.89206743551685
 20
248.00599136302552
 30
821.0
 10
40.438224720251135
 20
248.73997729855833
 30
821.0
 10
39.966751012462296
 20
249.46291299561108
 30
821.0
 10
39.476207886908796
 20
250.17300033265693
 30
821.0
 10
38.96496463916609
 20
250.8680501040765
 30
821.0
 10
37.95590907698973
 20
252.1482508463841
 30
821.0
 10
37.463030251402934
 20
252.73679396412237
 30
821.0
 10
36.950972294633026
 20
253.3093370936335
 30
821.0
 10
36.418348432976686
 20
253.86348991468404
 30
821.0
 10
35.86387736406884
 20
254.39619271001686
 30
821.0
 10
35.286407360473284
 20
254.90374183928472
 30
821.0
 10
34.684972433268996
 20
255.38184903942403
 30
821.0
 10
33.45172630326253
 20
256.2563108986292
 30
821.0
 10
32.82092634284893
 20
256.65501606858265
 30
821.0
 10
32.166812977575
 20
257.01679127399035
 30
821.0
 10
31.490345570500498
 20
257.3362798015166
 30
821.0
 10
30.79327800080618
 20
257.60822218159075
 30
821.0
 10
30.078362478321463
 20
257.82798749398745
 30
821.0
 10
29.349622605638586
 20
257.9922769877386
 30
821.0
 10
28.612695687813417
 20
258.1000000153772
 30
821.0
  0
LINE
  5
33
330
17
100
AcDbEntity
  8
0
100
AcDbLine
 10
26.44641626924031
 20
235.9
 30
821.0
 11
46.47618321405539
 21
235.9
 31
821.0
  0
SPLINE
  5
34
330
17
100
AcDbEntity
  8
0
100
AcDbSpline
 70
0
 71
1
 72
4
 73
2
 74
0
 40
0.0
 40
0.0
 40
1.0
 40
1.0
 10
26.446416269334165
 20
235.9000006000011
 30
821.0
 10
26.446416269334165
 20
232.09999939999986
 30
821.0
  0
LINE
  5
35
330
17
100
AcDbEntity
  8
0
100
AcDbLine
 10
26.44641626924031
 20
232.1
 30
821.0
 11
47.78117171515932
 21
232.1
 31
821.0
  0
SPLINE
  5
36
330
17
100
AcDbEntity
  8
0
100
AcDbSpline
 70
0
 71
8
 72
32
 73
23
 74
0
 40
0.0
 40
0.0
 40
0.0
 40
0.0
 40
0.0
 40
0.0
 40
0.0
 40
0.0
 40
0.0
 40
0.3316883559757892
 40
0.3316883559757892
 40
0.3316883559757892
 40
0.3316883559757892
 40
0.3316883559757892
 40
0.3316883559757892
 40
0.3316883559757892
 40
0.8312147033454445
 40
0.8312147033454445
 40
0.8312147033454445
 40
0.8312147033454445
 40
0.8312147033454445
 40
0.8312147033454445
 40
0.8312147033454445
 40
1.0
 40
1.0
 40
1.0
 40
1.0
 40
1.0
 40
1.0
 40
1.0
 40
1.0
 40
1.0
 10
53.54545797012369
 20
209.90000000309217
 30
821.0
 10
53.345480230893074
 20
210.8351980646516
 30
821.0
 10
53.14261566704041
 20
211.76977597084954
 30
821.0
 10
52.93675819999528
 20
212.70369975757075
 30
821.0
 10
52.72779272330919
 20
213.63693250698336
 30
821.0
 10
52.51559374711895
 20
214.56943406678087
 30
821.0
 10
52.30002369132369
 20
215.50116069678506
 30
821.0
 10
52.08093067940166
 20
216.43206461195285
 30
821.0
 10
51.522628795080735
 20
218.7627270137788
 30
821.0
 10
51.17874833058217
 20
220.16133308054862
 30
821.0
 10
50.82592561221172
 20
221.55773674404037
 30
821.0
 10
50.46350149219488
 20
222.95170956531334
 30
821.0
 10
50.09070926896625
 20
224.3429620968288
 30
821.0
 10
49.706647637674926
 20
225.7311366171024
 30
821.0
 10
49.31022658700938
 20
227.11579258100116
 30
821.0
 10
48.76146751451135
 20
228.9628640991802
 30
821.0
 10
48.622507334408446
 20
229.42484366407757
 30
821.0
 10
48.483181609629845
 20
229.88227908848944
 30
821.0
 10
48.34349325170918
 20
230.3351333980749
 30
821.0
 10
48.20344517218008
 20
230.78336961849323
 30
821.0
 10
48.063040282576196
 20
231.2269507754037
 30
821.0
 10
47.922281494431154
 20
231.6658398944657
 30
821.0
 10
47.781171719278575
 20
232.1000000013388
 30
821.0
  0
LINE
  5
37
330
17
100
AcDbEntity
  8
0
100
AcDbLine
 10
26.44641626924031
 20
209.9
 30
821.0
 11
53.54545795566332
 21
209.9
 31
821.0
  0
SPLINE
  5
38
330
17
100
AcDbEntity
  8
0
100
AcDbSpline
 70
0
 71
1
 72
4
 73
2
 74
0
 40
0.0
 40
0.0
 40
1.0
 40
1.0
 10
26.446416269334165
 20
209.90000060000008
 30
821.0
 10
26.446416269334165
 20
206.09999939999994
 30
821.0
  0
LINE
  5
39
330
17
100
AcDbEntity
  8
0
100
AcDbLine
 10
26.44641626924031
 20
206.1
 30
821.0
 11
54.33705434345923
 21
206.1
 31
821.0
  0
SPLINE
  5
3A
330
17
100
AcDbEntity
  8
0
100
AcDbSpline
 70
0
 71
8
 72
25
 73
16
 74
0
 40
0.0
 40
0.0
 40
0.0
 40
0.0
 40
0.0
 40
0.0
 40
0.0
 40
0.0
 40
0.0
 40
0.3322498481869628
 40
0.3322498481869628
 40
0.3322498481869628
 40
0.3322498481869628
 40
0.3322498481869628
 40
0.3322498481869628
 40
0.3322498481869628
 40
1.0
 40
1.0
 40
1.0
 40
1.0
 40
1.0
 40
1.0
 40
1.0
 40
1.0
 40
1.0
 10
58.288513286291156
 20
183.8999999982513
 30
820.9999999999999
 10
58.14348632661363
 20
184.82528202994246
 30
820.9999999999999
 10
57.996880432639365
 20
185.75031595009602
 30
820.9999999999999
 10
57.848665300113204
 20
186.67509380912443
 30
820.9999999999999
 10
57.69880886827157
 20
187.59960723262841
 30
820.9999999999999
 10
57.547277162681866
 20
188.52384739793135
 30
820.9999999999999
 10
57.3940341146488
 20
189.4478050070981
 30
820.9999999999999
 10
57.23904135323083
 20
190.37147025583386
 30
821.0
 10
56.76715735335402
 20
193.15059129038838
 30
821.0
 10
56.444833147093846
 20
195.00507200011407
 30
821.0
 10
56.1149500094244
 20
196.858216149395
 30
821.0
 10
55.7771314606229
 20
198.7099401997272
 30
821.0
 10
55.430954735620766
 20
200.56013484467928
 30
821.0
 10
55.07593743169304
 20
202.40866220106676
 30
821.0
 10
54.711523179793204
 20
204.2553528155021
 30
821.0
 10
54.33705435246898
 20
206.10000000182907
 30
821.0
  0
LINE
  5
3B
330
17
100
AcDbEntity
  8
0
100
AcDbLine
 10
26.44641626924031
 20
183.9
 30
821.0
 11
58.28851329744742
 21
183.9
 31
821.0
  0
SPLINE
  5
3C
330
17
100
AcDbEntity
  8
0
100
AcDbSpline
 70
0
 71
1
 72
4
 73
2
 74
0
 40
0.0
 40
0.0
 40
1.0
 40
1.0
 10
26.446416269334165
 20
183.90000060000014
 30
821.0
 10
26.446416269334165
 20
180.0999993999999
 30
821.0
  0
LINE
  5
3D
330
17
100
AcDbEntity
  8
0
100
AcDbLine
 10
26.44641626924031
 20
180.1
 30
821.0
 11
58.872421530752234
 21
180.1
 31
821.0
  0
SPLINE
  5
3E
330
17
100
AcDbEntity
  8
0
100
AcDbSpline
 70
0
 71
8
 72
25
 73
16
 74
0
 40
0.0
 40
0.0
 40
0.0
 40
0.0
 40
0.0
 40
0.0
 40
0.0
 40
0.0
 40
0.0
 40
0.13570412329292803
 40
0.13570412329292803
 40
0.13570412329292803
 40
0.13570412329292803
 40
0.13570412329292803
 40
0.13570412329292803
 40
0.13570412329292803
 40
1.0
 40
1.0
 40
1.0
 40
1.0
 40
1.0
 40
1.0
 40
1.0
 40
1.0
 40
1.0
 10
61.86829540000156
 20
157.90000000274182
 30
821.0
 10
61.8228142357063
 20
158.277276528708
 30
821.0
 10
61.77714026813197
 20
158.6545298057523
 30
821.0
 10
61.731272724265786
 20
159.03175962943962
 30
821.0
 10
61.68521081336574
 20
159.40896579237778
 30
821.0
 10
61.63895372659542
 20
159.78614808417714
 30
821.0
 10
61.59250063664629
 20
160.1633062914088
 30
821.0
 10
61.5458506973476
 20
160.54044019756148
 30
821.0
 10
61.20063160637892
 20
163.31934901982024
 30
821.0
 10
60.89424213117067
 20
165.72013756157423
 30
821.0
 10
60.57960964801783
 20
168.11986593362553
 30
821.0
 10
60.256478510613505
 20
170.5184730622555
 30
821.0
 10
59.92455625422372
 20
172.91588513011774
 30
821.0
 10
59.583507774783996
 20
175.31201469992556
 30
821.0
 10
59.23294678413647
 20
177.7067594411954
 30
821.0
 10
58.87242149670955
 20
180.09999999487164
 30
821.0
  0
LINE
  5
3F
330
17
100
AcDbEntity
  8
0
100
AcDbLine
 10
26.44641626924031
 20
157.9
 30
821.0
 11
61.8682953772576
 21
157.9
 31
821.0
  0
SPLINE
  5
40
330
17
100
AcDbEntity
  8
0
100
AcDbSpline
 70
0
 71
1
 72
4
 73
2
 74
0
 40
0.0
 40
0.0
 40
1.0
 40
1.0
 10
26.446416269334165
 20
157.90000060000042
 30
821.0
 10
26.446416269334165
 20
154.09999939999918
 30
821.0
  0
LINE
  5
41
330
17
100
AcDbEntity
  8
0
100
AcDbLine
 10
26.44641626924031
 20
154.1
 30
821.0
 11
62.31779902836576
 21
154.1
 31
821.0
  0
SPLINE
  5
42
330
17
100
AcDbEntity
  8
0
100
AcDbSpline
 70
0
 71
8
 72
18
 73
9
 74
0
 40
0.0
 40
0.0
 40
0.0
 40
0.0
 40
0.0
 40
0.0
 40
0.0
 40
0.0
 40
0.0
 40
1.0
 40
1.0
 40
1.0
 40
1.0
 40
1.0
 40
1.0
 40
1.0
 40
1.0
 40
1.0
 10
64.61982811760542
 20
131.9000000012214
 30
821.0
 10
64.36479356295595
 20
134.67826866379636
 30
821.0
 10
64.1006516244801
 20
137.45569752203113
 30
821.0
 10
63.827322609960724
 20
140.23224765855315
 30
821.0
 10
63.54469573149149
 20
143.00787381696114
 30
821.0
 10
63.252628181794826
 20
145.7825243016369
 30
821.0
 10
62.950942256723486
 20
148.55614066099358
 30
821.0
 10
62.639420523945255
 20
151.32865715415915
 30
821.0
 10
62.31779903781111
 20
154.10000000109605
 30
821.0
  0
LINE
  5
43
330
17
100
AcDbEntity
  8
0
100
AcDbLine
 10
26.44641626924031
 20
131.9
 30
821.0
 11
64.61982810429943
 21
131.9
 31
821.0
  0
SPLINE
  5
44
330
17
100
AcDbEntity
  8
0
100
AcDbSpline
 70
0
 71
1
 72
4
 73
2
 74
0
 40
0.0
 40
0.0
 40
1.0
 40
1.0
 10
26.446416269334165
 20
131.90000060000256
 30
821.0
 10
26.446416269334165
 20
128.09999939999764
 30
821.0
  0
LINE
  5
45
330
17
100
AcDbEntity
  8
0
100
AcDbLine
 10
26.44641626924031
 20
128.1
 30
821.0
 11
64.96116308498844
 21
128.1
 31
821.0
  0
SPLINE
  5
46
330
17
100
AcDbEntity
  8
0
100
AcDbSpline
 70
0
 71
8
 72
25
 73
16
 74
0
 40
0.0
 40
0.0
 40
0.0
 40
0.0
 40
0.0
 40
0.0
 40
0.0
 40
0.0
 40
0.0
 40
0.7380882043801327
 40
0.7380882043801327
 40
0.7380882043801327
 40
0.7380882043801327
 40
0.7380882043801327
 40
0.7380882043801327
 40
0.7380882043801327
 40
1.0
 40
1.0
 40
1.0
 40
1.0
 40
1.0
 40
1.0
 40
1.0
 40
1.0
 40
1.0
 10
66.67055756289531
 20
105.8999999997785
 30
821.0
 10
66.53391501190274
 20
107.95048917314715
 30
821.0
 10
66.39301699356032
 20
110.00069459475338
 30
821.0
 10
66.2477911244869
 20
112.05060103755952
 30
821.0
 10
66.09816398653331
 20
114.10019258623065
 30
821.0
 10
65.94406109101425
 20
116.14945263480203
 30
821.0
 10
65.78540684293992
 20
118.1983638843466
 30
821.0
 10
65.62212450524784
 20
120.24690834064245
 30
821.0
 10
65.39452522752408
 20
123.02185984243192
 30
821.0
 10
65.33434488890151
 20
123.74831498723273
 30
821.0
 10
65.27359306148838
 20
124.47443571451333
 30
821.0
 10
65.21226704091593
 20
125.20022315529116
 30
821.0
 10
65.15036382464353
 20
125.92567663267474
 30
821.0
 10
65.08788043247742
 20
126.65079369120791
 30
821.0
 10
65.02481422708917
 20
127.3755701262139
 30
821.0
 10
64.96116323453441
 20
128.10000001313963
 30
821.0
  0
LINE
  5
47
330
17
100
AcDbEntity
  8
0
100
AcDbLine
 10
26.44641626924031
 20
105.9
 30
821.0
 11
66.67055756621866
 21
105.9
 31
821.0
  0
SPLINE
  5
48
330
17
100
AcDbEntity
  8
0
100
AcDbSpline
 70
0
 71
1
 72
4
 73
2
 74
0
 40
0.0
 40
0.0
 40
1.0
 40
1.0
 10
26.446416269334165
 20
105.90000060000206
 30
821.0
 10
26.446416269334165
 20
102.09999939999993
 30
821.0
  0
LINE
  5
49
330
17
100
AcDbEntity
  8
0
100
AcDbLine
 10
26.44641626924031
 20
102.1
 30
821.0
 11
66.91741555746155
 21
102.1
 31
821.0
  0
SPLINE
  5
4A
330
17
100
AcDbEntity
  8
0
100
AcDbSpline
 70
0
 71
8
 72
25
 73
16
 74
0
 40
0.0
 40
0.0
 40
0.0
 40
0.0
 40
0.0
 40
0.0
 40
0.0
 40
0.0
 40
0.0
 40
0.15450817701739103
 40
0.15450817701739103
 40
0.15450817701739103
 40
0.15450817701739103
 40
0.15450817701739103
 40
0.15450817701739103
 40
0.15450817701739103
 40
1.0
 40
1.0
 40
1.0
 40
1.0
 40
1.0
 40
1.0
 40
1.0
 40
1.0
 40
1.0
 10
68.11877472732718
 20
79.89999999990401
 30
821.0000000000001
 10
68.09931415730135
 20
80.328951636341
 30
821.0000000000001
 10
68.07969624992654
 20
80.75789620504612
 30
821.0000000000001
 10
68.0599204115376
 20
81.1868336178508
 30
821.0000000000001
 10
68.03998604687779
 20
81.61576378591138
 30
821.0000000000001
 10
68.01989255908549
 20
82.04468661970888
 30
821.0000000000001
 10
67.9996393496808
 20
82.4736020290486
 30
821.0000000000001
 10
67.97922581855212
 20
82.90250992305991
 30
821.0
 10
67.84606487518533
 20
85.67841664473224
 30
821.0
 10
67.72865983145344
 20
88.0251909930465
 30
821.0
 10
67.60633765799068
 20
90.37171750147425
 30
821.0
 10
67.4789983477251
 20
92.71797926189176
 30
821.0
 10
67.34654039137104
 20
95.06395820715764
 30
821.0
 10
67.20886070753113
 20
97.40963510655472
 30
821.0
 10
67.06585457279817
 20
99.75498956123175
 30
821.0
 10
66.91741555185718
 20
102.09999999964526
 30
821.0
  0
LINE
  5
4B
330
17
100
AcDbEntity
  8
0
100
AcDbLine
 10
26.44641626924031
 20
79.9
 30
821.0
 11
68.11877472944452
 21
79.9
 31
821.0
  0
SPLINE
  5
4C
330
17
100
AcDbEntity
  8
0
100
AcDbSpline
 70
0
 71
1
 72
4
 73
2
 74
0
 40
0.0
 40
0.0
 40
1.0
 40
1.0
 10
26.446416269334165
 20
79.90000060000001
 30
821.0
 10
26.446416269334165
 20
76.09999939999999
 30
821.0
  0
LINE
  5
4D
330
17
100
AcDbEntity
  8
0
100
AcDbLine
 10
26.44641626924031
 20
76.1
 30
821.0
 11
68.28580499557305
 21
76.1
 31
821.0
  0
SPLINE
  5
4E
330
17
100
AcDbEntity
  8
0
100
AcDbSpline
 70
0
 71
8
 72
18
 73
9
 74
0
 40
0.0
 40
0.0
 40
0.0
 40
0.0
 40
0.0
 40
0.0
 40
0.0
 40
0.0
 40
0.0
 40
1.0
 40
1.0
 40
1.0
 40
1.0
 40
1.0
 40
1.0
 40
1.0
 40
1.0
 40
1.0
 10
69.05929433959017
 20
53.89999999937707
 30
821.0
 10
68.98291447076049
 20
56.675661692763555
 30
821.0
 10
68.9010308266674
 20
59.451171198771085
 30
821.0
 10
68.81349717538735
 20
62.22651154334675
 30
821.0
 10
68.72016517100683
 20
65.00166458698976
 30
821.0
 10
68.62088421865808
 20
67.77661102178178
 30
821.0
 10
68.51550133508297
 20
70.5513303682844
 30
821.0
 10
68.40386100472466
 20
73.3258009723038
 30
821.0
 10
68.28580503134735
 20
76.10000000152233
 30
821.0
  0
LINE
  5
4F
330
17
100
AcDbEntity
  8
0
100
AcDbLine
 10
26.44641626924031
 20
53.9
 30
821.0
 11
69.05929436222775
 21
53.9
 31
821.0
  0
SPLINE
  5
50
330
17
100
AcDbEntity
  8
0
100
AcDbSpline
 70
0
 71
1
 72
4
 73
2
 74
0
 40
0.0
 40
0.0
 40
1.0
 40
1.0
 10
26.446416269334165
 20
53.90000060000026
 30
821.0
 10
26.446416269334165
 20
50.09999939999937
 30
821.0
  0
LINE
  5
51
330
17
100
AcDbEntity
  8
0
100
AcDbLine
 10
26.44641626924031
 20
50.1
 30
821.0
 11
69.15938649126765
 21
50.1
 31
821.0
  0
SPLINE
  5
52
330
17
100
AcDbEntity
  8
0
100
AcDbSpline
 70
0
 71
8
 72
18
 73
9
 74
0
 40
0.0
 40
0.0
 40
0.0
 40
0.0
 40
0.0
 40
0.0
 40
0.0
 40
0.0
 40
0.0
 40
1.0
 40
1.0
 40
1.0
 40
1.0
 40
1.0
 40
1.0
 40
1.0
 40
1.0
 40
1.0
 10
69.57630470351708
 20
27.90000000013547
 30
821.0
 10
69.54094409370845
 20
30.67528004873131
 30
821.0
 10
69.50107152945421
 20
33.45050332004467
 30
821.0
 10
69.45655155161643
 20
36.225659636619554
 30
821.0
 10
69.40724718493472
 20
39.000737670365865
 30
821.0
 10
69.35301981902683
 20
41.77572494006192
 30
821.0
 10
69.29372908492874
 20
44.550607808724465
 30
821.0
 10
69.22923272717448
 20
47.325371480846115
 30
821.0
 10
69.15938647141542
 20
50.09999999950024
 30
821.0
  0
LINE
  5
53
330
17
100
AcDbEntity
  8
0
100
AcDbLine
 10
26.44641626924031
 20
27.9
 30
821.0
 11
69.57630469288367
 21
27.9
 31
821.0
  0
SPLINE
  5
54
330
17
100
AcDbEntity
  8
0
100
AcDbSpline
 70
0
 71
1
 72
4
 73
2
 74
0
 40
0.0
 40
0.0
 40
1.0
 40
1.0
 10
26.446416269334165
 20
27.900000600000002
 30
821.0
 10
26.446416269334165
 20
24.099999399999998
 30
821.0
  0
LINE
  5
55
330
17
100
AcDbEntity
  8
0
100
AcDbLine
 10
26.44641626924031
 20
24.1
 30
821.0
 11
69.62105821136501
 21
24.1
 31
821.0
  0
SPLINE
  5
56
330
17
100
AcDbEntity
  8
0
100
AcDbSpline
 70
0
 71
8
 72
25
 73
16
 74
0
 40
0.0
 40
0.0
 40
0.0
 40
0.0
 40
0.0
 40
0.0
 40
0.0
 40
0.0
 40
0.0
 40
0.09530344577216524
 40
0.09530344577216524
 40
0.09530344577216524
 40
0.09530344577216524
 40
0.09530344577216524
 40
0.09530344577216524
 40
0.09530344577216524
 40
1.0
 40
1.0
 40
1.0
 40
1.0
 40
1.0
 40
1.0
 40
1.0
 40
1.0
 40
1.0
 10
69.74632207800015
 20
1.899999999498706
 30
821.0
 10
69.74611239551908
 20
2.164472949183949
 30
821.0
 10
69.74587022494943
 20
2.4289458721573096
 30
821.0
 10
69.7455954586307
 20
2.693418763777882
 30
821.0
 10
69.74528796813104
 20
2.957891619514048
 30
821.0
 10
69.74494760745213
 20
3.222364434983497
 30
821.0
 10
69.74457421757509
 20
3.4868372060008275
 30
821.0
 10
69.74416763234704
 20
3.7513099286327285
 30
821.0
 10
69.73955136023977
 20
6.526368778658674
 30
821.0
 10
69.73237947483645
 20
9.036945956187749
 30
821.0
 10
69.72211683188307
 20
11.547511159553306
 30
821.0
 10
69.70866754082664
 20
14.058060652727175
 30
821.0
 10
69.69193495483128
 20
16.568589934694344
 30
821.0
 10
69.67182160498956
 20
19.079093738127003
 30
821.0
 10
69.64822913209053
 20
21.58956602798598
 30
821.0
 10
69.62105821594466
 20
24.100000000049583
 30
821.0
  0
LINE
  5
57
330
17
100
AcDbEntity
  8
0
100
AcDbLine
 10
26.44641626924031
 20
1.9
 30
821.0
 11
69.74632271031257
 21
1.9
 31
821.0
  0
SPLINE
  5
58
330
17
100
AcDbEntity
  8
0
100
AcDbSpline
 70
0
 71
1
 72
4
 73
2
 74
0
 40
0.0
 40
0.0
 40
0.9999993684216398
 40
0.9999993684216398
 10
26.446416269334165
 20
1.9000006000000558
 30
821.0
 10
26.446416269334165
 20
-6.553790374438061e-17
 30
821.0
  0
SPLINE
  5
59
330
17
100
AcDbEntity
  8
0
100
AcDbSpline
 70
0
 71
1
 72
4
 73
2
 74
0
 40
0.0
 40
0.0
 40
1.0
 40
1.0
 10
26.446416269334165
 20
-1.9000006000000011
 30
821.0
 10
26.446416269334165
 20
1.2000000211287443e-06
 30
821.0
  0
LINE
  5
5A
330
17
100
AcDbEntity
  8
0
100
AcDbLine
 10
26.446416269240324
 20
-1.9
 30
821.0
 11
69.74641883264476
 21
-1.9
 31
821.0
  0
SPLINE
  5
5B
330
17
100
AcDbEntity
  8
0
100
AcDbSpline
 70
0
 71
8
 72
25
 73
16
 74
0
 40
0.0
 40
0.0
 40
0.0
 40
0.0
 40
0.0
 40
0.0
 40
0.0
 40
0.0
 40
0.0
 40
0.7939942377024761
 40
0.7939942377024761
 40
0.7939942377024761
 40
0.7939942377024761
 40
0.7939942377024761
 40
0.7939942377024761
 40
0.7939942377024761
 40
1.0
 40
1.0
 40
1.0
 40
1.0
 40
1.0
 40
1.0
 40
1.0
 40
1.0
 40
1.0
 10
69.62220988797858
 20
-24.100000000126634
 30
821.0000000000001
 10
69.64596298276867
 20
-21.896775171069454
 30
821.0000000000001
 10
69.66695597855283
 20
-19.693518417793904
 30
821.0000000000001
 10
69.68525648976868
 20
-17.49023327364651
 30
821.0000000000001
 10
69.70093155395935
 20
-15.286922670936956
 30
821.0000000000001
 10
69.71404766873485
 20
-13.08358894225339
 30
821.0000000000001
 10
69.72467082857321
 20
-10.88023382177034
 30
821.0000000000001
 10
69.7328665617538
 20
-8.676858446561422
 30
821.0
 10
69.74021347396501
 20
-5.9017815203004815
 30
821.0
 10
69.74156881177204
 20
-5.330099274068848
 30
821.0
 10
69.74276572057815
 20
-4.7584166721036905
 30
821.0
 10
69.74380512967954
 20
-4.186733763165734
 30
821.0
 10
69.74468855819187
 20
-3.6150505942660844
 30
821.0
 10
69.74541765179622
 20
-3.0433672122519733
 30
821.0
 10
69.74599385626553
 20
-2.4716836646191624
 30
821.0
 10
69.74641822777102
 20
-1.8999999995509902
 30
821.0
  0
LINE
  5
5C
330
17
100
AcDbEntity
  8
0
100
AcDbLine
 10
26.446416269240324
 20
-24.1
 30
821.0
 11
69.62220987623496
 21
-24.1
 31
821.0
  0
SPLINE
  5
5D
330
17
100
AcDbEntity
  8
0
100
AcDbSpline
 70
0
 71
1
 72
4
 73
2
 74
0
 40
0.0
 40
0.0
 40
1.0
 40
1.0
 10
26.446416269334165
 20
-27.900000600000034
 30
821.0
 10
26.446416269334165
 20
-24.099999399999938
 30
821.0
  0
LINE
  5
5E
330
17
100
AcDbEntity
  8
0
100
AcDbLine
 10
26.446416269240324
 20
-27.9
 30
821.0
 11
69.57761111153306
 21
-27.9
 31
821.0
  0
SPLINE
  5
5F
330
17
100
AcDbEntity
  8
0
100
AcDbSpline
 70
0
 71
8
 72
18
 73
9
 74
0
 40
0.0
 40
0.0
 40
0.0
 40
0.0
 40
0.0
 40
0.0
 40
0.0
 40
0.0
 40
0.0
 40
1.0
 40
1.0
 40
1.0
 40
1.0
 40
1.0
 40
1.0
 40
1.0
 40
1.0
 40
1.0
 10
69.16130969272962
 20
-50.0999999999214
 30
821.0
 10
69.23111773193094
 20
-47.32536195224089
 30
821.0
 10
69.29556274668505
 20
-44.55059234959349
 30
821.0
 10
69.35479002359921
 20
-41.775707174430146
 30
821.0
 10
69.4089428328783
 20
-39.000720875695905
 30
821.0
 10
69.45816255384194
 20
-36.2256463733588
 30
821.0
 10
69.50258879636228
 20
-33.45049506276503
 30
821.0
 10
69.54235951969127
 20
-30.675276818881965
 30
821.0
 10
69.57761115014667
 20
-27.90000000049048
 30
821.0
  0
LINE
  5
60
330
17
100
AcDbEntity
  8
0
100
AcDbLine
 10
26.446416269240324
 20
-50.1
 30
821.0
 11
69.16130969585352
 21
-50.1
 31
821.0
  0
SPLINE
  5
61
330
17
100
AcDbEntity
  8
0
100
AcDbSpline
 70
0
 71
1
 72
4
 73
2
 74
0
 40
0.0
 40
0.0
 40
1.0
 40
1.0
 10
26.446416269334165
 20
-53.9000006
 30
821.0
 10
26.446416269334165
 20
-50.0999994
 30
821.0
  0
LINE
  5
62
330
17
100
AcDbEntity
  8
0
100
AcDbLine
 10
26.446416269240324
 20
-53.9
 30
821.0
 11
69.06125928632889
 21
-53.9
 31
821.0
  0
SPLINE
  5
63
330
17
100
AcDbEntity
  8
0
100
AcDbSpline
 70
0
 71
8
 72
18
 73
9
 74
0
 40
0.0
 40
0.0
 40
0.0
 40
0.0
 40
0.0
 40
0.0
 40
0.0
 40
0.0
 40
0.0
 40
1.0
 40
1.0
 40
1.0
 40
1.0
 40
1.0
 40
1.0
 40
1.0
 40
1.0
 40
1.0
 10
68.28749942192245
 20
-76.10000000002465
 30
821.0
 10
68.40565226468932
 20
-73.32580370794705
 30
821.0
 10
68.51736956823007
 20
-70.55133154545254
 30
821.0
 10
68.62281043764087
 20
-67.77660857610027
 30
821.0
 10
68.72213132580549
 20
-65.00165830423086
 30
821.0
 10
68.81548617961124
 20
-62.226502680370814
 30
821.0
 10
68.90302657862439
 20
-59.451162106318286
 30
821.0
 10
68.98490186769855
 20
-56.67565543997168
 30
821.0
 10
69.061259284989
 20
-53.899999999963114
 30
821.0
  0
LINE
  5
64
330
17
100
AcDbEntity
  8
0
100
AcDbLine
 10
26.446416269240324
 20
-76.1
 30
821.0
 11
68.28749942134391
 21
-76.1
 31
821.0
  0
SPLINE
  5
65
330
17
100
AcDbEntity
  8
0
100
AcDbSpline
 70
0
 71
1
 72
4
 73
2
 74
0
 40
0.0
 40
0.0
 40
1.0
 40
1.0
 10
26.446416269334165
 20
-79.90000060000018
 30
821.0
 10
26.446416269334165
 20
-76.09999939999999
 30
821.0
  0
LINE
  5
66
330
17
100
AcDbEntity
  8
0
100
AcDbLine
 10
26.446416269240324
 20
-79.9
 30
821.0
 11
68.12031948660052
 21
-79.9
 31
821.0
  0
SPLINE
  5
67
330
17
100
AcDbEntity
  8
0
100
AcDbSpline
 70
0
 71
8
 72
18
 73
9
 74
0
 40
0.0
 40
0.0
 40
0.0
 40
0.0
 40
0.0
 40
0.0
 40
0.0
 40
0.0
 40
0.0
 40
1.0
 40
1.0
 40
1.0
 40
1.0
 40
1.0
 40
1.0
 40
1.0
 40
1.0
 40
1.0
 10
66.91733256430005
 20
-102.09999999951023
 30
821.0
 10
67.09318938236771
 20
-99.32647181069807
 30
821.0
 10
67.26141891108423
 20
-96.55245833256116
 30
821.0
 10
67.42219840392005
 20
-93.77799393581354
 30
821.0
 10
67.57570169311084
 20
-91.00311139806581
 30
821.0
 10
67.72209936923767
 20
-88.22784191063407
 30
821.0
 10
67.86155894975548
 20
-85.45221508488301
 30
821.0
 10
67.99424503795267
 20
-82.67625895816539
 30
821.0
 10
68.12031947382343
 20
-79.89999999941982
 30
821.0
  0
LINE
  5
68
330
17
100
AcDbEntity
  8
0
100
AcDbLine
 10
26.446416269240324
 20
-102.1
 30
821.0
 11
66.91733257202428
 21
-102.1
 31
821.0
  0
SPLINE
  5
69
330
17
100
AcDbEntity
  8
0
100
AcDbSpline
 70
0
 71
1
 72
4
 73
2
 74
0
 40
0.0
 40
0.0
 40
1.0
 40
1.0
 10
26.446416269334165
 20
-105.90000060000003
 30
821.0
 10
26.446416269334165
 20
-102.09999939999999
 30
821.0
  0
LINE
  5
6A
330
17
100
AcDbEntity
  8
0
100
AcDbLine
 10
26.446416269240324
 20
-105.9
 30
821.0
 11
66.67005051210951
 21
-105.9
 31
821.0
  0
SPLINE
  5
6B
330
17
100
AcDbEntity
  8
0
100
AcDbSpline
 70
0
 71
8
 72
25
 73
16
 74
0
 40
0.0
 40
0.0
 40
0.0
 40
0.0
 40
0.0
 40
0.0
 40
0.0
 40
0.0
 40
0.0
 40
0.1544347506516322
 40
0.1544347506516322
 40
0.1544347506516322
 40
0.1544347506516322
 40
0.1544347506516322
 40
0.1544347506516322
 40
0.1544347506516322
 40
1.0
 40
1.0
 40
1.0
 40
1.0
 40
1.0
 40
1.0
 40
1.0
 40
1.0
 40
1.0
 10
64.9571666156705
 20
-128.10000001612926
 30
821.0
 10
64.99487423792927
 20
-127.67181422757915
 30
821.0
 10
65.03236771410354
 20
-127.24360957302386
 30
821.0
 10
65.06964767749295
 20
-126.81538623402542
 30
821.0
 10
65.10671482503135
 20
-126.3871443967693
 30
821.0
 10
65.14356991728678
 20
-125.95888425206445
 30
821.0
 10
65.18021377846154
 20
-125.53060599534331
 30
821.0
 10
65.2166472963921
 20
-125.10230982666175
 30
821.0
 10
65.45120672038357
 20
-122.32888043881115
 30
821.0
 10
65.64325472398065
 20
-119.9832484671816
 30
821.0
 10
65.82913486151966
 20
-117.63712588012973
 30
821.0
 10
66.00896438702574
 20
-115.29053768678648
 30
821.0
 10
66.18285847528746
 20
-112.94350806476356
 30
821.0
 10
66.3509303115853
 20
-110.59606036360412
 30
821.0
 10
66.51329117669415
 20
-108.24821710803437
 30
821.0
 10
66.6700505276226
 20
-105.9000000010356
 30
821.0
  0
LINE
  5
6C
330
17
100
AcDbEntity
  8
0
100
AcDbLine
 10
26.446416269240324
 20
-128.1
 30
821.0
 11
64.95716643251671
 21
-128.1
 31
821.0
  0
SPLINE
  5
6D
330
17
100
AcDbEntity
  8
0
100
AcDbSpline
 70
0
 71
1
 72
4
 73
2
 74
0
 40
0.0
 40
0.0
 40
1.0
 40
1.0
 10
26.446416269334165
 20
-131.9000006
 30
821.0
 10
26.446416269334165
 20
-128.09999939999992
 30
821.0
  0
LINE
  5
6E
330
17
100
AcDbEntity
  8
0
100
AcDbLine
 10
26.446416269240324
 20
-131.9
 30
821.0
 11
64.6150429641965
 21
-131.9
 31
821.0
  0
SPLINE
  5
6F
330
17
100
AcDbEntity
  8
0
100
AcDbSpline
 70
0
 71
8
 72
25
 73
16
 74
0
 40
0.0
 40
0.0
 40
0.0
 40
0.0
 40
0.0
 40
0.0
 40
0.0
 40
0.0
 40
0.0
 40
0.23939691009113237
 40
0.23939691009113237
 40
0.23939691009113237
 40
0.23939691009113237
 40
0.23939691009113237
 40
0.23939691009113237
 40
0.23939691009113237
 40
1.0
 40
1.0
 40
1.0
 40
1.0
 40
1.0
 40
1.0
 40
1.0
 40
1.0
 40
1.0
 10
62.30737270572499
 20
-154.10000000398807
 30
821.0
 10
62.3845581825518
 20
-153.43655354639796
 30
821.0
 10
62.461163615963784
 20
-152.77303955814375
 30
821.0
 10
62.53719259193494
 20
-152.10945905486008
 30
821.0
 10
62.6126485455122
 20
-151.44581301709422
 30
821.0
 10
62.68753476757462
 20
-150.78210239114694
 30
821.0
 10
62.76185441159255
 20
-150.11832808991323
 30
821.0
 10
62.83561050038682
 20
-149.4544909937233
 30
821.0
 10
63.141359778742796
 20
-146.681276242174
 30
821.0
 10
63.3682538937689
 20
-144.57133638082405
 30
821.0
 10
63.58958039399381
 20
-142.4608000074192
 30
821.0
 10
63.80541816583076
 20
-140.3496927237654
 30
821.0
 10
64.01583369330439
 20
-138.2380381793676
 30
821.0
 10
64.22088188527674
 20
-136.12585815760727
 30
821.0
 10
64.42060690267341
 20
-134.01317266192117
 30
821.0
 10
64.61504298570925
 20
-131.90000000197935
 30
821.0
  0
LINE
  5
70
330
17
100
AcDbEntity
  8
0
100
AcDbLine
 10
26.446416269240324
 20
-154.1
 30
821.0
 11
62.30737267144487
 21
-154.1
 31
821.0
  0
SPLINE
  5
71
330
17
100
AcDbEntity
  8
0
100
AcDbSpline
 70
0
 71
1
 72
4
 73
2
 74
0
 40
0.0
 40
0.0
 40
1.0
 40
1.0
 10
26.446416269334165
 20
-157.90000060000003
 30
821.0
 10
26.446416269334165
 20
-154.0999994
 30
821.0
  0
LINE
  5
72
330
17
100
AcDbEntity
  8
0
100
AcDbLine
 10
26.446416269240324
 20
-157.9
 30
821.0
 11
61.85675861856976
 21
-157.9
 31
821.0
  0
SPLINE
  5
73
330
17
100
AcDbEntity
  8
0
100
AcDbSpline
 70
0
 71
8
 72
25
 73
16
 74
0
 40
0.0
 40
0.0
 40
0.0
 40
0.0
 40
0.0
 40
0.0
 40
0.0
 40
0.0
 40
0.0
 40
0.5785774197965409
 40
0.5785774197965409
 40
0.5785774197965409
 40
0.5785774197965409
 40
0.5785774197965409
 40
0.5785774197965409
 40
0.5785774197965409
 40
1.0
 40
1.0
 40
1.0
 40
1.0
 40
1.0
 40
1.0
 40
1.0
 40
1.0
 40
1.0
 10
58.85386537481688
 20
-180.10000000168094
 30
821.0
 10
59.09573438454044
 20
-178.4979279450684
 30
821.0
 10
59.3331367626125
 20
-176.89518148156918
 30
821.0
 10
59.56620746738297
 20
-175.29179637924668
 30
821.0
 10
59.795068425328665
 20
-173.68780446394345
 30
821.0
 10
60.01983040615387
 20
-172.083233914321
 30
821.0
 10
60.2405943677076
 20
-170.47810947405597
 30
821.0
 10
60.45745255363919
 20
-168.87245262667778
 30
821.0
 10
60.82566096583339
 20
-166.09638361121276
 30
821.0
 10
60.97880463469143
 20
-164.9262164464975
 30
821.0
 10
61.12995304859869
 20
-163.75578857558452
 30
821.0
 10
61.279136497574555
 20
-162.58510786630296
 30
821.0
 10
61.42638326274519
 20
-161.41418177759357
 30
821.0
 10
61.57171973274171
 20
-160.24301737398847
 30
821.0
 10
61.715170520098255
 20
-159.07162134009093
 30
821.0
 10
61.856758577650155
 20
-157.899999995055
 30
821.0
  0
LINE
  5
74
330
17
100
AcDbEntity
  8
0
100
AcDbLine
 10
26.446416269240324
 20
-180.1
 30
821.0
 11
58.85386536368199
 21
-180.1
 31
821.0
  0
SPLINE
  5
75
330
17
100
AcDbEntity
  8
0
100
AcDbSpline
 70
0
 71
1
 72
4
 73
2
 74
0
 40
0.0
 40
0.0
 40
1.0
 40
1.0
 10
26.446416269334165
 20
-183.9000006000001
 30
821.0
 10
26.446416269334165
 20
-180.09999939999994
 30
821.0
  0
LINE
  5
76
330
17
100
AcDbEntity
  8
0
100
AcDbLine
 10
26.446416269240324
 20
-183.9
 30
821.0
 11
58.26870173433322
 21
-183.9
 31
821.0
  0
SPLINE
  5
77
330
17
100
AcDbEntity
  8
0
100
AcDbSpline
 70
0
 71
8
 72
25
 73
16
 74
0
 40
0.0
 40
0.0
 40
0.0
 40
0.0
 40
0.0
 40
0.0
 40
0.0
 40
0.0
 40
0.0
 40
0.4898827689445096
 40
0.4898827689445096
 40
0.4898827689445096
 40
0.4898827689445096
 40
0.4898827689445096
 40
0.4898827689445096
 40
0.4898827689445096
 40
1.0
 40
1.0
 40
1.0
 40
1.0
 40
1.0
 40
1.0
 40
1.0
 40
1.0
 40
1.0
 10
54.31005554913972
 20
-206.09999999809622
 30
821.0
 10
54.58518729524316
 20
-204.74672055625143
 30
821.0
 10
54.85491378524277
 20
-203.3923444395676
 30
821.0
 10
55.11949404510031
 20
-202.0369522696492
 30
821.0
 10
55.379158075158315
 20
-200.6806125644433
 30
821.0
 10
55.634112583986635
 20
-199.32338297521156
 30
821.0
 10
55.88454480426056
 20
-197.9653111137301
 30
821.0
 10
56.13062573961169
 20
-196.6064352559588
 30
821.0
 10
56.624388717781926
 20
-193.83097410161145
 30
821.0
 10
56.87171127830304
 20
-192.41435660620695
 30
821.0
 10
57.114654191414566
 20
-190.99697767012321
 30
821.0
 10
57.35337471904907
 20
-189.57887885541834
 30
821.0
 10
57.5880153155361
 20
-188.16009822044134
 30
821.0
 10
57.818705766608474
 20
-186.74067065667066
 30
821.0
 10
58.0455648644162
 20
-185.32062815212691
 30
821.0
 10
58.26870174130475
 20
-183.90000000109504
 30
821.0
  0
LINE
  5
78
330
17
100
AcDbEntity
  8
0
100
AcDbLine
 10
26.446416269240324
 20
-206.1
 30
821.0
 11
54.31005555850383
 21
-206.1
 31
821.0
  0
SPLINE
  5
79
330
17
100
AcDbEntity
  8
0
100
AcDbSpline
 70
0
 71
1
 72
4
 73
2
 74
0
 40
0.0
 40
0.0
 40
1.0
 40
1.0
 10
26.446416269334165
 20
-209.90000060000008
 30
821.0
 10
26.446416269334165
 20
-206.09999939999992
 30
821.0
  0
LINE
  5
7A
330
17
100
AcDbEntity
  8
0
100
AcDbLine
 10
26.446416269240324
 20
-209.9
 30
821.0
 11
53.51732672924972
 21
-209.9
 31
821.0
  0
SPLINE
  5
7B
330
17
100
AcDbEntity
  8
0
100
AcDbSpline
 70
0
 71
8
 72
25
 73
16
 74
0
 40
0.0
 40
0.0
 40
0.0
 40
0.0
 40
0.0
 40
0.0
 40
0.0
 40
0.0
 40
0.0
 40
0.5844809975834889
 40
0.5844809975834889
 40
0.5844809975834889
 40
0.5844809975834889
 40
0.5844809975834889
 40
0.5844809975834889
 40
0.5844809975834889
 40
1.0
 40
1.0
 40
1.0
 40
1.0
 40
1.0
 40
1.0
 40
1.0
 40
1.0
 40
1.0
 10
47.74837272886311
 20
-232.10000000552895
 30
821.0
 10
48.266680834393675
 20
-230.5056508213039
 30
821.0
 10
48.76200361412698
 20
-228.90387420137478
 30
821.0
 10
49.23749236907506
 20
-227.29600620186827
 30
821.0
 10
49.69539392406053
 20
-225.68303128001918
 30
821.0
 10
50.13747797166147
 20
-224.06570660304467
 30
821.0
 10
50.5652049196677
 20
-222.44461019177587
 30
821.0
 10
50.97978149994149
 20
-220.82015672543807
 30
821.0
 10
51.66837513822483
 20
-218.0355804976449
 30
821.0
 10
51.94836642575183
 20
-216.8770344431535
 30
821.0
 10
52.222595225217304
 20
-215.717105142992
 30
821.0
 10
52.49138216626026
 20
-214.55589720665267
 30
821.0
 10
52.75500961894406
 20
-213.3935037647725
 30
821.0
 10
53.013729113153005
 20
-212.2300080624503
 30
821.0
 10
53.2677666550595
 20
-211.06548460124822
 30
821.0
 10
53.5173267324579
 20
-209.90000000068693
 30
821.0
  0
LINE
  5
7C
330
17
100
AcDbEntity
  8
0
100
AcDbLine
 10
26.446416269240324
 20
-232.1
 30
821.0
 11
47.74837271185584
 21
-232.1
 31
821.0
  0
SPLINE
  5
7D
330
17
100
AcDbEntity
  8
0
100
AcDbSpline
 70
0
 71
1
 72
4
 73
2
 74
0
 40
0.0
 40
0.0
 40
1.0
 40
1.0
 10
26.446416269334165
 20
-235.90000060000008
 30
821.0
 10
26.446416269334165
 20
-232.09999939999992
 30
821.0
  0
LINE
  5
7E
330
17
100
AcDbEntity
  8
0
100
AcDbLine
 10
26.446416269240324
 20
-235.9
 30
821.0
 11
46.44327610957498
 21
-235.9
 31
821.0
  0
SPLINE
  5
7F
330
17
100
AcDbEntity
  8
0
100
AcDbSpline
 70
0
 71
8
 72
46
 73
37
 74
0
 40
0.0
 40
0.0
 40
0.0
 40
0.0
 40
0.0
 40
0.0
 40
0.0
 40
0.0
 40
0.0
 40
0.1716825812339557
 40
0.1716825812339557
 40
0.1716825812339557
 40
0.1716825812339557
 40
0.1716825812339557
 40
0.1716825812339557
 40
0.1716825812339557
 40
0.31063336369024114
 40
0.31063336369024114
 40
0.31063336369024114
 40
0.31063336369024114
 40
0.31063336369024114
 40
0.31063336369024114
 40
0.31063336369024114
 40
0.553743267567232
 40
0.553743267567232
 40
0.553743267567232
 40
0.553743267567232
 40
0.553743267567232
 40
0.553743267567232
 40
0.553743267567232
 40
0.8769574759581725
 40
0.8769574759581725
 40
0.8769574759581725
 40
0.8769574759581725
 40
0.8769574759581725
 40
0.8769574759581725
 40
0.8769574759581725
 40
1.0
 40
1.0
 40
1.0
 40
1.0
 40
1.0
 40
1.0
 40
1.0
 40
1.0
 40
1.0
 10
28.60554787088397
 20
-258.1000000041171
 30
821.0
 10
29.233438604711154
 20
-258.0076175949597
 30
821.0
 10
29.85538345549854
 20
-257.8740434447046
 30
821.0
 10
30.46788896034792
 20
-257.69995371737355
 30
821.0
 10
31.06828503606853
 20
-257.48720140677705
 30
821.0
 10
31.654584955577896
 20
-257.23843216432596
 30
821.0
 10
32.22536805166903
 20
-256.9567594668546
 30
821.0
 10
32.77968514814433
 20
-256.6454991244568
 30
821.0
 10
33.75185013342597
 20
-256.03477938172637
 30
821.0
 10
34.17577050635037
 20
-255.74425635642203
 30
821.0
 10
34.58869327898914
 20
-255.4379634850924
 30
821.0
 10
34.99071137448414
 20
-255.11740686370874
 30
821.0
 10
35.38203033723145
 20
-254.7839849668348
 30
821.0
 10
35.76294219628135
 20
-254.43895564755528
 30
821.0
 10
36.13380805212596
 20
-254.08341442203957
 30
821.0
 10
37.12708142451121
 20
-253.0794476765579
 30
821.0
 10
37.72933531185504
 20
-252.41157638572824
 30
821.0
 10
38.304275983096204
 20
-251.7194954805396
 30
821.0
 10
38.85403659498638
 20
-251.00717570189465
 30
821.0
 10
39.38056650938911
 20
-250.2778509642642
 30
821.0
 10
39.885696154436744
 20
-249.53406906078442
 30
821.0
 10
40.37116303330095
 20
-248.7777118650969
 30
821.0
 10
41.460157178067654
 20
-246.98937861019937
 30
821.0
 10
42.04948663815476
 20
-245.9493474702248
 30
821.0
 10
42.61033874816345
 20
-244.8933741845339
 30
821.0
 10
43.14556384031078
 20
-243.82414503451687
 30
821.0
 10
43.657533804289216
 20
-242.74378097170825
 30
821.0
 10
44.148302741774074
 20
-241.65391889061735
 30
821.0
 10
44.61966823298883
 20
-240.55574240143955
 30
821.0
 10
45.24592361823196
 20
-239.02909557911605
 30
821.0
 10
45.41820917112483
 20
-238.60173339108596
 30
821.0
 10
45.59009879406933
 20
-238.16789413689278
 30
821.0
 10
45.76158300599985
 20
-237.7275337631399
 30
821.0
 10
45.93265232585055
 20
-237.2806082164309
 30
821.0
 10
46.10329727255535
 20
-236.82707344337018
 30
821.0
 10
46.27350836504793
 20
-236.36688539056254
 30
821.0
 10
46.44327612226179
 20
-235.90000000461313
 30
821.0
  0
LINE
  5
80
330
17
100
AcDbEntity
  8
0
100
AcDbLine
 10
26.446416269240324
 20
-258.1
 30
821.0
 11
28.60554787027822
 21
-258.1
 31
821.0
  0
SPLINE
  5
81
330
17
100
AcDbEntity
  8
0
100
AcDbSpline
 70
0
 71
1
 72
4
 73
2
 74
0
 40
0.0
 40
0.0
 40
1.0
 40
1.0
 10
26.446416269334165
 20
-258.20530396349784
 30
821.0
 10
26.446416269334165
 20
-258.09999939999994
 30
821.0
  0
SPLINE
  5
82
330
17
100
AcDbEntity
  8
0
100
AcDbSpline
 70
0
 71
8
 72
60
 73
51
 74
0
 40
0.0
 40
0.0
 40
0.0
 40
0.0
 40
0.0
 40
0.0
 40
0.0
 40
0.0
 40
0.0
 40
0.01925590108711701
 40
0.01925590108711701
 40
0.01925590108711701
 40
0.01925590108711701
 40
0.01925590108711701
 40
0.01925590108711701
 40
0.01925590108711701
 40
0.03593804921638171
 40
0.03593804921638171
 40
0.03593804921638171
 40
0.03593804921638171
 40
0.03593804921638171
 40
0.03593804921638171
 40
0.03593804921638171
 40
0.05578961616950212
 40
0.05578961616950212
 40
0.05578961616950212
 40
0.05578961616950212
 40
0.05578961616950212
 40
0.05578961616950212
 40
0.05578961616950212
 40
0.06082507567070348
 40
0.06082507567070348
 40
0.06082507567070348
 40
0.06082507567070348
 40
0.06082507567070348
 40
0.06082507567070348
 40
0.06082507567070348
 40
0.0633040753861256
 40
0.0633040753861256
 40
0.0633040753861256
 40
0.0633040753861256
 40
0.0633040753861256
 40
0.0633040753861256
 40
0.0633040753861256
 40
0.06613721738883463
 40
0.06613721738883463
 40
0.06613721738883463
 40
0.06613721738883463
 40
0.06613721738883463
 40
0.06613721738883463
 40
0.06613721738883463
 40
0.06783762222515223
 40
0.06783762222515223
 40
0.06783762222515223
 40
0.06783762222515223
 40
0.06783762222515223
 40
0.06783762222515223
 40
0.06783762222515223
 40
0.06783762222515223
 40
0.06783762222515223
 10
4.0902224591678475
 20
-231.4768796130639
 30
821.0
 10
4.512185164877634
 20
-232.71356230907705
 30
821.0
 10
4.949811786739733
 20
-233.9448005381281
 30
821.0
 10
5.404268014769167
 20
-235.17004452697893
 30
821.0
 10
5.8768461475862
 20
-236.3885468493599
 30
821.0
 10
6.369003403910599
 20
-237.59934673853186
 30
821.0
 10
6.882400195549755
 20
-238.8012543985022
 30
821.0
 10
7.418972905880309
 20
-239.99282120363253
 30
821.0
 10
8.468047598820938
 20
-242.1940948976796
 30
821.0
 10
8.97407194094017
 20
-243.20659325310038
 30
821.0
 10
9.500734356139032
 20
-244.20877941723168
 30
821.0
 10
10.049747430230262
 20
-245.1992237435417
 30
821.0
 10
10.622990847701047
 20
-246.17603966725622
 30
821.0
 10
11.222550548626563
 20
-247.136860604806
 30
821.0
 10
11.850800465069947
 20
-248.07879164478297
 30
821.0
 10
13.295689100787385
 20
-250.09252492990123
 30
821.0
 10
14.12465168885953
 20
-251.15389978953604
 30
821.0
 10
15.002874508218326
 20
-252.17772135313558
 30
821.0
 10
15.9353264771663
 20
-253.1556987029284
 30
821.0
 10
16.92634556679357
 20
-254.07616917309986
 30
821.0
 10
17.979178799772335
 20
-254.92465005412143
 30
821.0
 10
19.095435422291075
 20
-255.6844580145538
 30
821.0
 10
20.571316189015675
 20
-256.50553283672696
 30
821.0
 10
20.87373059446658
 20
-256.6648438632756
 30
821.0
 10
21.179850527539976
 20
-256.8170573522231
 30
821.0
 10
21.489564969352898
 20
-256.9619023154326
 30
821.0
 10
21.802739602142847
 20
-257.0991199984578
 30
821.0
 10
22.119214606306173
 20
-257.22846883193574
 30
821.0
 10
22.438802457436413
 20
-257.34972938297955
 30
821.0
 10
22.920046989195207
 20
-257.51833028780595
 30
821.0
 10
23.079272146747545
 20
-257.5718654471879
 30
821.0
 10
23.238952784925885
 20
-257.62327655200176
 30
821.0
 10
23.399080535565204
 20
-257.67252527857056
 30
821.0
 10
23.559647073429197
 20
-257.71957321225585
 30
821.0
 10
23.720644116210334
 20
-257.7643818474568
 30
821.0
 10
23.882063424529818
 20
-257.8069125876105
 30
821.0
 10
24.22884919871357
 20
-257.8930857738439
 30
821.0
 10
24.414342308097133
 20
-257.9360192163491
 30
821.0
 10
24.60036375712213
 20
-257.97586958212173
 30
821.0
 10
24.786901172821903
 20
-258.0125793805754
 30
821.0
 10
24.973942182229337
 20
-258.04609112112314
 30
821.0
 10
25.161474412376855
 20
-258.07634731317796
 30
821.0
 10
25.349485490296416
 20
-258.1032904661523
 30
821.0
 10
25.65108414386132
 20
-258.1410109869646
 30
821.0
 10
25.76436063650562
 20
-258.1539431628722
 30
821.0
 10
25.877777407282274
 20
-258.16564612406376
 30
821.0
 10
25.991319054157337
 20
-258.17610710347503
 30
821.0
 10
26.10496988673706
 20
-258.1853141080821
 30
821.0
 10
26.218713926271846
 20
-258.19325596688805
 30
821.0
 10
26.332534905660253
 20
-258.19992237891
 30
821.0
 10
26.446416269452932
 20
-258.20530396116567
 30
821.0
  0
SPLINE
  5
83
330
17
100
AcDbEntity
  8
0
100
AcDbSpline
 70
0
 71
8
 72
417
 73
408
 74
0
 40
0.0
 40
0.0
 40
0.0
 40
0.0
 40
0.0
 40
0.0
 40
0.0
 40
0.0
 40
0.0
 40
0.0022686844595049107
 40
0.0022686844595049107
 40
0.0022686844595049107
 40
0.0022686844595049107
 40
0.0022686844595049107
 40
0.0022686844595049107
 40
0.0022686844595049107
 40
0.00463856841542171
 40
0.00463856841542171
 40
0.00463856841542171
 40
0.00463856841542171
 40
0.00463856841542171
 40
0.00463856841542171
 40
0.00463856841542171
 40
0.007245440766831826
 40
0.007245440766831826
 40
0.007245440766831826
 40
0.007245440766831826
 40
0.007245440766831826
 40
0.007245440766831826
 40
0.007245440766831826
 40
0.008904359535890556
 40
0.008904359535890556
 40
0.008904359535890556
 40
0.008904359535890556
 40
0.008904359535890556
 40
0.008904359535890556
 40
0.008904359535890556
 40
0.011274243491706717
 40
0.011274243491706717
 40
0.011274243491706717
 40
0.011274243491706717
 40
0.011274243491706717
 40
0.011274243491706717
 40
0.011274243491706717
 40
0.013881115843126412
 40
0.013881115843126412
 40
0.013881115843126412
 40
0.013881115843126412
 40
0.013881115843126412
 40
0.013881115843126412
 40
0.013881115843126412
 40
0.018488220094354503
 40
0.018488220094354503
 40
0.018488220094354503
 40
0.018488220094354503
 40
0.018488220094354503
 40
0.018488220094354503
 40
0.018488220094354503
 40
0.026125676383869433
 40
0.026125676383869433
 40
0.026125676383869433
 40
0.026125676383869433
 40
0.026125676383869433
 40
0.026125676383869433
 40
0.026125676383869433
 40
0.04237699419651765
 40
0.04237699419651765
 40
0.04237699419651765
 40
0.04237699419651765
 40
0.04237699419651765
 40
0.04237699419651765
 40
0.04237699419651765
 40
0.05331926968541174
 40
0.05331926968541174
 40
0.05331926968541174
 40
0.05331926968541174
 40
0.05331926968541174
 40
0.05331926968541174
 40
0.05331926968541174
 40
0.05906861095741826
 40
0.05906861095741826
 40
0.05906861095741826
 40
0.05906861095741826
 40
0.05906861095741826
 40
0.05906861095741826
 40
0.05906861095741826
 40
0.06610541674756679
 40
0.06610541674756679
 40
0.06610541674756679
 40
0.06610541674756679
 40
0.06610541674756679
 40
0.06610541674756679
 40
0.06610541674756679
 40
0.1004366926434322
 40
0.1004366926434322
 40
0.1004366926434322
 40
0.1004366926434322
 40
0.1004366926434322
 40
0.1004366926434322
 40
0.1004366926434322
 40
0.18143335306726638
 40
0.18143335306726638
 40
0.18143335306726638
 40
0.18143335306726638
 40
0.18143335306726638
 40
0.18143335306726638
 40
0.18143335306726638
 40
0.24506511424337293
 40
0.24506511424337293
 40
0.24506511424337293
 40
0.24506511424337293
 40
0.24506511424337293
 40
0.24506511424337293
 40
0.24506511424337293
 40
0.3087495467498451
 40
0.3087495467498451
 40
0.3087495467498451
 40
0.3087495467498451
 40
0.3087495467498451
 40
0.3087495467498451
 40
0.3087495467498451
 40
0.35798868375145193
 40
0.35798868375145193
 40
0.35798868375145193
 40
0.35798868375145193
 40
0.35798868375145193
 40
0.35798868375145193
 40
0.35798868375145193
 40
0.4004280306261108
 40
0.4004280306261108
 40
0.4004280306261108
 40
0.4004280306261108
 40
0.4004280306261108
 40
0.4004280306261108
 40
0.4004280306261108
 40
0.4293051528061898
 40
0.4293051528061898
 40
0.4293051528061898
 40
0.4293051528061898
 40
0.4293051528061898
 40
0.4293051528061898
 40
0.4293051528061898
 40
0.4406067962472779
 40
0.4406067962472779
 40
0.4406067962472779
 40
0.4406067962472779
 40
0.4406067962472779
 40
0.4406067962472779
 40
0.4406067962472779
 40
0.4515291804233074
 40
0.4515291804233074
 40
0.4515291804233074
 40
0.4515291804233074
 40
0.4515291804233074
 40
0.4515291804233074
 40
0.4515291804233074
 40
0.4641659993960269
 40
0.4641659993960269
 40
0.4641659993960269
 40
0.4641659993960269
 40
0.4641659993960269
 40
0.4641659993960269
 40
0.4641659993960269
 40
0.4706341033474714
 40
0.4706341033474714
 40
0.4706341033474714
 40
0.4706341033474714
 40
0.4706341033474714
 40
0.4706341033474714
 40
0.4706341033474714
 40
0.47419294832372016
 40
0.47419294832372016
 40
0.47419294832372016
 40
0.47419294832372016
 40
0.47419294832372016
 40
0.47419294832372016
 40
0.47419294832372016
 40
0.477751793299956
 40
0.477751793299956
 40
0.477751793299956
 40
0.477751793299956
 40
0.477751793299956
 40
0.477751793299956
 40
0.477751793299956
 40
0.47953121578806224
 40
0.47953121578806224
 40
0.47953121578806224
 40
0.47953121578806224
 40
0.47953121578806224
 40
0.47953121578806224
 40
0.47953121578806224
 40
0.48249691993492116
 40
0.48249691993492116
 40
0.48249691993492116
 40
0.48249691993492116
 40
0.48249691993492116
 40
0.48249691993492116
 40
0.48249691993492116
 40
0.48546262408180957
 40
0.48546262408180957
 40
0.48546262408180957
 40
0.48546262408180957
 40
0.48546262408180957
 40
0.48546262408180957
 40
0.48546262408180957
 40
0.48861807960871156
 40
0.48861807960871156
 40
0.48861807960871156
 40
0.48861807960871156
 40
0.48861807960871156
 40
0.48861807960871156
 40
0.48861807960871156
 40
0.49161938560821333
 40
0.49161938560821333
 40
0.49161938560821333
 40
0.49161938560821333
 40
0.49161938560821333
 40
0.49161938560821333
 40
0.49161938560821333
 40
0.4945902329099852
 40
0.4945902329099852
 40
0.4945902329099852
 40
0.4945902329099852
 40
0.4945902329099852
 40
0.4945902329099852
 40
0.4945902329099852
 40
0.49756108021172235
 40
0.49756108021172235
 40
0.49756108021172235
 40
0.49756108021172235
 40
0.49756108021172235
 40
0.49756108021172235
 40
0.49756108021172235
 40
0.5000367862965044
 40
0.5000367862965044
 40
0.5000367862965044
 40
0.5000367862965044
 40
0.5000367862965044
 40
0.5000367862965044
 40
0.5000367862965044
 40
0.5025124923812888
 40
0.5025124923812888
 40
0.5025124923812888
 40
0.5025124923812888
 40
0.5025124923812888
 40
0.5025124923812888
 40
0.5025124923812888
 40
0.5073253540101617
 40
0.5073253540101617
 40
0.5073253540101617
 40
0.5073253540101617
 40
0.5073253540101617
 40
0.5073253540101617
 40
0.5073253540101617
 40
0.5153039621913611
 40
0.5153039621913611
 40
0.5153039621913611
 40
0.5153039621913611
 40
0.5153039621913611
 40
0.5153039621913611
 40
0.5153039621913611
 40
0.5322812466065386
 40
0.5322812466065386
 40
0.5322812466065386
 40
0.5322812466065386
 40
0.5322812466065386
 40
0.5322812466065386
 40
0.5322812466065386
 40
0.543712335603762
 40
0.543712335603762
 40
0.543712335603762
 40
0.543712335603762
 40
0.543712335603762
 40
0.543712335603762
 40
0.543712335603762
 40
0.5497185119489573
 40
0.5497185119489573
 40
0.5497185119489573
 40
0.5497185119489573
 40
0.5497185119489573
 40
0.5497185119489573
 40
0.5497185119489573
 40
0.557069665285886
 40
0.557069665285886
 40
0.557069665285886
 40
0.557069665285886
 40
0.557069665285886
 40
0.557069665285886
 40
0.557069665285886
 40
0.5915294544371161
 40
0.5915294544371161
 40
0.5915294544371161
 40
0.5915294544371161
 40
0.5915294544371161
 40
0.5915294544371161
 40
0.5915294544371161
 40
0.6774827066080316
 40
0.6774827066080316
 40
0.6774827066080316
 40
0.6774827066080316
 40
0.6774827066080316
 40
0.6774827066080316
 40
0.6774827066080316
 40
0.7438358543904108
 40
0.7438358543904108
 40
0.7438358543904108
 40
0.7438358543904108
 40
0.7438358543904108
 40
0.7438358543904108
 40
0.7438358543904108
 40
0.8101622886031894
 40
0.8101622886031894
 40
0.8101622886031894
 40
0.8101622886031894
 40
0.8101622886031894
 40
0.8101622886031894
 40
0.8101622886031894
 40
0.8613985190683944
 40
0.8613985190683944
 40
0.8613985190683944
 40
0.8613985190683944
 40
0.8613985190683944
 40
0.8613985190683944
 40
0.8613985190683944
 40
0.9055346875120818
 40
0.9055346875120818
 40
0.9055346875120818
 40
0.9055346875120818
 40
0.9055346875120818
 40
0.9055346875120818
 40
0.9055346875120818
 40
0.935556685857823
 40
0.935556685857823
 40
0.935556685857823
 40
0.935556685857823
 40
0.935556685857823
 40
0.935556685857823
 40
0.935556685857823
 40
0.9473054859901253
 40
0.9473054859901253
 40
0.9473054859901253
 40
0.9473054859901253
 40
0.9473054859901253
 40
0.9473054859901253
 40
0.9473054859901253
 40
0.958660028709579
 40
0.958660028709579
 40
0.958660028709579
 40
0.958660028709579
 40
0.958660028709579
 40
0.958660028709579
 40
0.958660028709579
 40
0.9717968562023441
 40
0.9717968562023441
 40
0.9717968562023441
 40
0.9717968562023441
 40
0.9717968562023441
 40
0.9717968562023441
 40
0.9717968562023441
 40
0.9785209125158684
 40
0.9785209125158684
 40
0.9785209125158684
 40
0.9785209125158684
 40
0.9785209125158684
 40
0.9785209125158684
 40
0.9785209125158684
 40
0.9822206002184404
 40
0.9822206002184404
 40
0.9822206002184404
 40
0.9822206002184404
 40
0.9822206002184404
 40
0.9822206002184404
 40
0.9822206002184404
 40
0.9859202879210102
 40
0.9859202879210102
 40
0.9859202879210102
 40
0.9859202879210102
 40
0.9859202879210102
 40
0.9859202879210102
 40
0.9859202879210102
 40
0.9877701317722942
 40
0.9877701317722942
 40
0.9877701317722942
 40
0.9877701317722942
 40
0.9877701317722942
 40
0.9877701317722942
 40
0.9877701317722942
 40
0.9908532048577676
 40
0.9908532048577676
 40
0.9908532048577676
 40
0.9908532048577676
 40
0.9908532048577676
 40
0.9908532048577676
 40
0.9908532048577676
 40
0.9939362779432399
 40
0.9939362779432399
 40
0.9939362779432399
 40
0.9939362779432399
 40
0.9939362779432399
 40
0.9939362779432399
 40
0.9939362779432399
 40
0.9960944291030781
 40
0.9960944291030781
 40
0.9960944291030781
 40
0.9960944291030781
 40
0.9960944291030781
 40
0.9960944291030781
 40
0.9960944291030781
 40
1.0
 40
1.0
 40
1.0
 40
1.0
 40
1.0
 40
1.0
 40
1.0
 40
1.0
 40
1.0
 10
4.090222459167848
 20
231.47687961306383
 30
821.0
 10
4.090079596577048
 20
231.47702248749383
 30
821.0
 10
4.090107903468003
 20
231.47682132852123
 30
821.0
 10
4.090197892440039
 20
231.47659019697332
 30
821.0
 10
4.090275101941599
 20
231.47648411571618
 30
821.0
 10
4.090300096270256
 20
231.47649906965503
 30
821.0
 10
4.090268465572703
 20
231.4764720057343
 30
821.0
 10
4.090210825844756
 20
231.4760808329375
 30
821.0
 10
4.090174008781269
 20
231.47355285890993
 30
821.0
 10
4.0901461036135665
 20
231.47163680334992
 30
821.0
 10
4.090106538166863
 20
231.4689201167868
 30
821.0
 10
4.090052747179775
 20
231.4652266603997
 30
821.0
 10
4.089982165390925
 20
231.46038029536817
 30
821.0
 10
4.089892227538932
 20
231.4542048828714
 30
821.0
 10
4.089780368362414
 20
231.44652428408855
 30
821.0
 10
4.089494042261326
 20
231.42686424392036
 30
821.0
 10
4.089314433153713
 20
231.41453172426242
 30
821.0
 10
4.089101780914258
 20
231.39993036045504
 30
821.0
 10
4.0888526711800655
 20
231.38282571172797
 30
821.0
 10
4.08856368958824
 20
231.36298333731094
 30
821.0
 10
4.088231421775881
 20
231.34016879643337
 30
821.0
 10
4.087852453380091
 20
231.31414764832482
 30
821.0
 10
4.087150317002067
 20
231.2659367819628
 30
821.0
 10
4.086856969483773
 20
231.24579462946267
 30
821.0
 10
4.086542447598429
 20
231.22419857909856
 30
821.0
 10
4.086205871461378
 20
231.2010882152549
 30
821.0
 10
4.08584636118797
 20
231.1764031223163
 30
821.0
 10
4.08546303689355
 20
231.15008288466726
 30
821.0
 10
4.085055018693465
 20
231.1220670866923
 30
821.0
 10
4.084002009573911
 20
231.04976420718108
 30
821.0
 10
4.083330401035952
 20
231.00364947721616
 30
821.0
 10
4.082604035827798
 20
230.95377498406012
 30
821.0
 10
4.081820348688068
 20
230.89996458889235
 30
821.0
 10
4.08097677435538
 20
230.84204215289205
 30
821.0
 10
4.080070747568356
 20
230.7798315372384
 30
821.0
 10
4.0790997030656175
 20
230.71315660311106
 30
821.0
 10
4.076918585357963
 20
230.56339428112534
 30
821.0
 10
4.075694319727861
 20
230.4793323972353
 30
821.0
 10
4.074384864332579
 20
230.3894211192487
 30
821.0
 10
4.0729868048092115
 20
230.29342600639487
 30
821.0
 10
4.07149672679486
 20
230.19111261790323
 30
821.0
 10
4.069911215926628
 20
230.08224651300353
 30
821.0
 10
4.068226857841624
 20
229.96659325092585
 30
821.0
 10
4.063282759811008
 20
229.62711611102085
 30
821.0
 10
4.060122810742885
 20
229.410144185048
 30
821.0
 10
4.056961242886121
 20
229.1930611080212
 30
821.0
 10
4.053798521239755
 20
228.97589880820743
 30
821.0
 10
4.050634958676545
 20
228.7586787684288
 30
821.0
 10
4.0474707567581465
 20
228.54141482854124
 30
821.0
 10
4.044305986648294
 20
228.32411187485707
 30
821.0
 10
4.035893277669535
 20
227.74646912479918
 30
821.0
 10
4.0306446360049675
 20
227.38608107229925
 30
821.0
 10
4.0253950867174435
 20
227.02563069954715
 30
821.0
 10
4.020144856464479
 20
226.6651335696386
 30
821.0
 10
4.014894102930233
 20
226.3046005096087
 30
821.0
 10
4.009642932698023
 20
225.9440388377533
 30
821.0
 10
4.00439140027666
 20
225.58345229690775
 30
821.0
 10
3.9879643472842417
 20
224.45551977364474
 30
821.0
 10
3.9767878094777385
 20
223.6881039446818
 30
821.0
 10
3.9656103517848695
 20
222.92062495349785
 30
821.0
 10
3.954432226653898
 20
222.1531001338946
 30
821.0
 10
3.9432536054038883
 20
221.38554124921782
 30
821.0
 10
3.9320746000987894
 20
220.61795599416982
 30
821.0
 10
3.9208952573902485
 20
219.8503475719117
 30
821.0
 10
3.9021881265042757
 20
218.56585781267344
 30
821.0
 10
3.894421502224616
 20
218.03257724646136
 30
821.0
 10
3.886411276992979
 20
217.48257028163366
 30
821.0
 10
3.878153018037693
 20
216.91553255030755
 30
821.0
 10
3.8696422925870912
 20
216.3311596846008
 30
821.0
 10
3.8608746678695103
 20
215.7291473166315
 30
821.0
 10
3.8518457111132904
 20
215.10919107851777
 30
821.0
 10
3.8376673137182515
 20
214.135658238696
 30
821.0
 10
3.832783646753261
 20
213.8003280976536
 30
821.0
 10
3.8278999393066435
 20
213.46499628333174
 30
821.0
 10
3.823016169585899
 20
213.12966289272302
 30
821.0
 10
3.818132343351196
 20
212.79432801573085
 30
821.0
 10
3.8132484939153626
 20
212.45899173517031
 30
821.0
 10
3.8083646821438983
 20
212.12365412676778
 30
821.0
 10
3.797503694689893
 20
211.37788311161628
 30
821.0
 10
3.7914331888106334
 20
210.96102481949995
 30
821.0
 10
3.785270851010494
 20
210.53780064440915
 30
821.0
 10
3.7790180534827833
 20
210.10827084794133
 30
821.0
 10
3.7726761684208094
 20
209.67249569169385
 30
821.0
 10
3.766246568017883
 20
209.2305354372641
 30
821.0
 10
3.7597306244673137
 20
208.78245034624945
 30
821.0
 10
3.72092506714705
 20
206.11258833198815
 30
821.0
 10
3.6887955762474296
 20
203.8968412678097
 30
821.0
 10
3.656781324989821
 20
201.68106936411925
 30
821.0
 10
3.6249019693791795
 20
199.46527806409148
 30
821.0
 10
3.593171966296467
 20
197.2494711113901
 30
821.0
 10
3.561603489347989
 20
195.0336510851016
 30
821.0
 10
3.5302052987886934
 20
192.81781922235228
 30
821.0
 10
3.4253307759781904
 20
185.37420934668847
 30
821.0
 10
3.3526704159674163
 20
180.14638503870225
 30
821.0
 10
3.2811118625799938
 20
174.91851778091905
 30
821.0
 10
3.210726778921732
 20
169.69061426974474
 30
821.0
 10
3.1415945706960877
 20
164.46267974855482
 30
821.0
 10
3.0737942026784917
 20
159.23471675677604
 30
821.0
 10
3.0074164543343946
 20
154.00672675454638
 30
821.0
 10
2.8916169523603292
 20
144.6715288512519
 30
821.0
 10
2.841610977475114
 20
140.56433208570567
 30
821.0
 10
2.792597286218713
 20
136.45711993546507
 30
821.0
 10
2.744631656208987
 20
132.3498927941204
 30
821.0
 10
2.6977764260412664
 20
128.24265095581828
 30
821.0
 10
2.652102295367447
 20
124.13539463324177
 30
821.0
 10
2.6076908654126405
 20
120.0281239554286
 30
821.0
 10
2.5215493372756863
 20
111.81015412121947
 30
821.0
 10
2.4798242313321257
 20
107.69945501528943
 30
821.0
 10
2.4393659068854747
 20
103.58874368602825
 30
821.0
 10
2.400091183865143
 20
99.47802198749145
 30
821.0
 10
2.3619281828227097
 20
95.36729162351926
 30
821.0
 10
2.3248141104114826
 20
91.25655420185736
 30
821.0
 10
2.2886930448660543
 20
87.14581128827713
 30
821.0
 10
2.226313989058058
 20
79.85674256544186
 30
821.0
 10
2.1996773112747103
 20
76.67841840305412
 30
821.0
 10
2.173580226361466
 20
73.50009269187447
 30
821.0
 10
2.148001148341452
 20
70.32176622924617
 30
821.0
 10
2.122920065014484
 20
67.14343989831536
 30
821.0
 10
2.0983181421318045
 20
63.96511470193102
 30
821.0
 10
2.074177233762349
 20
60.7867918236435
 30
821.0
 10
2.030053983924706
 20
54.86907078250608
 30
821.0
 10
2.009957747567844
 20
52.12967187964988
 30
821.0
 10
1.9901789755389152
 20
49.39027675792631
 30
821.0
 10
1.9707062099978185
 20
46.65088648957794
 30
821.0
 10
1.9515273903325445
 20
43.91150260474885
 30
821.0
 10
1.9326297118118023
 20
41.172127123087776
 30
821.0
 10
1.9139985045664996
 20
38.43276276371436
 30
821.0
 10
1.8831037999834535
 20
33.8294706995593
 30
821.0
 10
1.8707081095229239
 20
31.965535671373445
 30
821.0
 10
1.8584198417593802
 20
30.10160916254989
 30
821.0
 10
1.8462318996015386
 20
28.23769253574602
 30
821.0
 10
1.8341340447145278
 20
26.37378848615449
 30
821.0
 10
1.82211379147651
 20
24.50990087194357
 30
821.0
 10
1.810153779007876
 20
22.64603527256332
 30
821.0
 10
1.793547442373804
 20
20.05275298902569
 30
821.0
 10
1.7890014604289108
 20
19.342268640573195
 30
821.0
 10
1.7845796190144112
 20
18.650787538511963
 30
821.0
 10
1.7802720510353787
 20
17.978236173570963
 30
821.0
 10
1.7760913775351233
 20
17.324426801737104
 30
821.0
 10
1.772024527575316
 20
16.689060524374128
 30
821.0
 10
1.768074524627444
 20
16.07172468403482
 30
821.0
 10
1.7605268780276628
 20
14.892192946793614
 30
821.0
 10
1.7568174991333596
 20
14.312498326298364
 30
821.0
 10
1.7531081673902216
 20
13.732811074499127
 30
821.0
 10
1.7493988885320486
 20
13.153132087460703
 30
821.0
 10
1.745689669985464
 20
12.573462525800082
 30
821.0
 10
1.7419805211506343
 20
11.993803858558291
 30
821.0
 10
1.738271453904931
 20
11.414157941910497
 30
821.0
 10
1.7302713332490445
 20
10.163914426845768
 30
821.0
 10
1.7259803352248857
 20
9.493325484053727
 30
821.0
 10
1.7216894917679058
 20
8.822760696716479
 30
821.0
 10
1.7173988242843654
 20
8.152223410177356
 30
821.0
 10
1.7131083840438388
 20
7.481721636742073
 30
821.0
 10
1.7088182493961765
 20
6.811267620767872
 30
821.0
 10
1.7045285357614732
 20
6.1408793998952405
 30
821.0
 10
1.6980440913631847
 20
5.127502863905992
 30
821.0
 10
1.6958489355185782
 20
4.784448117928818
 30
821.0
 10
1.693653979288032
 20
4.441424567302725
 30
821.0
 10
1.6914592496026521
 20
4.0984364206703106
 30
821.0
 10
1.6892648140677804
 20
3.755494243310455
 30
821.0
 10
1.6870707765022606
 20
3.4126142598866878
 30
821.0
 10
1.68487729026492
 20
3.069820436936535
 30
821.0
 10
1.681478192153935
 20
2.5386159022648522
 30
821.0
 10
1.6803353043039875
 20
2.3600075806776157
 30
821.0
 10
1.679254011144988
 20
2.191025159277699
 30
821.0
 10
1.6782323601074818
 20
2.0313634942550567
 30
821.0
 10
1.6772683986220163
 20
1.8807174417996992
 30
821.0
 10
1.6763601741191367
 20
1.738781858101681
 30
821.0
 10
1.6755057340293906
 20
1.6052515993511067
 30
821.0
 10
1.6739005175372623
 20
1.3543914441256106
 30
821.0
 10
1.6731497411348735
 20
1.237061547649617
 30
821.0
 10
1.6724488440067093
 20
1.1275266885009378
 30
821.0
 10
1.671795873583319
 20
1.0254817228700548
 30
821.0
 10
1.6711888772952501
 20
0.9306215069471417
 30
821.0
 10
1.6706259025730474
 20
0.8426408969220672
 30
821.0
 10
1.6701049968472546
 20
0.7612347489843927
 30
821.0
 10
1.6693838128989935
 20
0.6485295044931123
 30
821.0
 10
1.669153447356315
 20
0.6125284192323315
 30
821.0
 10
1.6689328668491936
 20
0.5780565205647334
 30
821.0
 10
1.6687218273064484
 20
0.5450756655140355
 30
821.0
 10
1.6685200846568968
 20
0.5135477111039717
 30
821.0
 10
1.6683273948293573
 20
0.4834345143582917
 30
821.0
 10
1.6681435137526481
 20
0.45469793230076055
 30
821.0
 10
1.6676760033604885
 20
0.38163630471225934
 30
821.0
 10
1.6674076001421934
 20
0.3396907644473036
 30
821.0
 10
1.6671618577415277
 20
0.30128661330702555
 30
821.0
 10
1.666937646199315
 20
0.26624726343825705
 30
821.0
 10
1.6667338355563808
 20
0.23439612698792953
 30
821.0
 10
1.6665492958535504
 20
0.205556616103073
 30
821.0
 10
1.66638289713165
 20
0.1795521429308167
 30
821.0
 10
1.6660841217313618
 20
0.132860096305734
 30
821.0
 10
1.6659517450529735
 20
0.11217252285283459
 30
821.0
 10
1.6658352494371667
 20
0.09396681140659628
 30
821.0
 10
1.665733504924766
 20
0.07806637411395953
 30
821.0
 10
1.6656453815565968
 20
0.06429462312189976
 30
821.0
 10
1.6655697493734845
 20
0.052474970577427324
 30
821.0
 10
1.6655054784162542
 20
0.04243082862758741
 30
821.0
 10
1.6653939414732482
 20
0.02500004905795805
 30
821.0
 10
1.6653423669290557
 20
0.016940078190907166
 30
821.0
 10
1.6653002234232728
 20
0.010353971921614198
 30
821.0
 10
1.6652695459380173
 20
0.005559753353074775
 30
821.0
 10
1.6652502460316907
 20
0.0025436010017685366
 30
821.0
 10
1.6652401876176635
 20
0.0009716913454533531
 30
821.0
 10
1.665235988597362
 20
0.00031547650495866725
 30
821.0
 10
1.6652331784568848
 20
-0.00012368686002162121
 30
821.0
 10
1.6652349663245194
 20
4.9276522858576755e-05
 30
821.0
 10
1.665232375584964
 20
0.00019682444316515557
 30
821.0
 10
1.665233906899441
 20
-6.639266385377596e-05
 30
821.0
 10
1.6652420851871517
 20
-0.0011846277673726036
 30
821.0
 10
1.6652566826296857
 20
-0.0035784729291918893
 30
821.0
 10
1.6652818865907317
 20
-0.007488326894765862
 30
821.0
 10
1.6653500091620728
 20
-0.018134391712095525
 30
821.0
 10
1.6653945471099418
 20
-0.025094696799072832
 30
821.0
 10
1.6654516880061025
 20
-0.034024566477676946
 30
821.0
 10
1.665523384420009
 20
-0.045229144557869666
 30
821.0
 10
1.6656115889211147
 20
-0.05901357484962741
 30
821.0
 10
1.6657182540788733
 20
-0.07568300116294122
 30
821.0
 10
1.665845332462739
 20
-0.09554256730781674
 30
821.0
 10
1.6661442208215902
 20
-0.14225226688046178
 30
821.0
 10
1.666316030796576
 20
-0.16910240030844445
 30
821.0
 10
1.666512159136577
 20
-0.1997529611879421
 30
821.0
 10
1.6667345584110447
 20
-0.23450909332877842
 30
821.0
 10
1.6669851811894332
 20
-0.27367594054088124
 30
821.0
 10
1.6672659800411955
 20
-0.3175586466342821
 30
821.0
 10
1.6675789075357874
 20
-0.36646235541911665
 30
821.0
 10
1.6682150901650614
 20
-0.46588375677772836
 30
821.0
 10
1.6685279315959858
 20
-0.5147740156977066
 30
821.0
 10
1.6688655704946147
 20
-0.5675395753187453
 30
821.0
 10
1.669229136820122
 20
-0.62435702349396
 30
821.0
 10
1.6696197605316834
 20
-0.6854029480763972
 30
821.0
 10
1.6700385715884725
 20
-0.7508539369190328
 30
821.0
 10
1.6704866999496641
 20
-0.8208865778747736
 30
821.0
 10
1.6714438511991987
 20
-0.9704683397182238
 30
821.0
 10
1.6719528740875442
 20
-1.0500174606061217
 30
821.0
 10
1.6724934741986408
 20
-1.1345014093131147
 30
821.0
 10
1.6730667814916629
 20
-1.2240967736921806
 30
821.0
 10
1.6736739259257856
 20
-1.318980141596309
 30
821.0
 10
1.6743160374601833
 20
-1.419328100878504
 30
821.0
 10
1.6749942460540315
 20
-1.5253172393917822
 30
821.0
 10
1.6771005142166049
 20
-1.8544807888573303
 30
821.0
 10
1.6784924297884736
 20
-2.0720066852823322
 30
821.0
 10
1.6798850549338669
 20
-2.289643472529143
 30
821.0
 10
1.6812781858205912
 20
-2.5073592960205247
 30
821.0
 10
1.6826716853041954
 20
-2.725132723128226
 30
821.0
 10
1.6840654650327165
 20
-2.9429499464159576
 30
821.0
 10
1.6854594938138023
 20
-3.160806091121973
 30
821.0
 10
1.6891651657298474
 20
-3.739921392162252
 30
821.0
 10
1.6914771169204628
 20
-4.101228690828535
 30
821.0
 10
1.6937894659457777
 20
-4.462598162354581
 30
821.0
 10
1.696102113458624
 20
-4.8240142809183055
 30
821.0
 10
1.6984149903386319
 20
-5.185466244544298
 30
821.0
 10
1.7007280498651682
 20
-5.546946751841261
 30
821.0
 10
1.7030412681509377
 20
-5.908452069706211
 30
821.0
 10
1.7102771410205095
 20
-7.039260406247855
 30
821.0
 10
1.7152002414864354
 20
-7.80863310653038
 30
821.0
 10
1.720123745163022
 20
-8.578068819771431
 30
821.0
 10
1.725047541392704
 20
-9.347550252683021
 30
821.0
 10
1.729971555082954
 20
-10.117065669916592
 30
821.0
 10
1.7348957371145841
 20
-10.886607395184988
 30
821.0
 10
1.7398200670369024
 20
-11.656172232553356
 30
821.0
 10
1.7480602740628326
 20
-12.943935985138594
 30
821.0
 10
1.751481355605293
 20
-13.478576048325852
 30
821.0
 10
1.7550097397145485
 20
-14.02998515088846
 30
821.0
 10
1.7586473789600525
 20
-14.59846843663622
 30
821.0
 10
1.7623962259112587
 20
-15.184331049379033
 30
821.0
 10
1.7662582331376195
 20
-15.787878132926927
 30
821.0
 10
1.7702353532085908
 20
-16.409414831090043
 30
821.0
 10
1.7764807248158823
 20
-17.385429529748336
 30
821.0
 10
1.7786319569399796
 20
-17.72161454423523
 30
821.0
 10
1.780783183676686
 20
-18.057801228375425
 30
821.0
 10
1.7829343812638763
 20
-18.393989485894494
 30
821.0
 10
1.7850855535665338
 20
-18.73017922700747
 30
821.0
 10
1.787236732076753
 20
-19.066370368418834
 30
821.0
 10
1.789387975913738
 20
-19.40256283332255
 30
821.0
 10
1.794172534807097
 20
-20.150234908092543
 30
821.0
 10
1.7968473053999254
 20
-20.568155551249614
 30
821.0
 10
1.7995637883349453
 20
-20.992457757221423
 30
821.0
 10
1.802322088344814
 20
-21.42308080235623
 30
821.0
 10
1.805122310162192
 20
-21.859963963002322
 30
821.0
 10
1.8079645585197393
 20
-22.303046515508083
 30
821.0
 10
1.8108489381501154
 20
-22.752267736221942
 30
821.0
 10
1.827494565363669
 20
-25.341859646705064
 30
821.0
 10
1.8412834323233604
 20
-27.476182931075314
 30
821.0
 10
1.8551774854809802
 20
-29.61052721544608
 30
821.0
 10
1.8691946422692987
 20
-31.74488715183952
 30
821.0
 10
1.8833480877852233
 20
-33.87925902492676
 30
821.0
 10
1.897648858945875
 20
-36.01364022099832
 30
821.0
 10
1.9121050486005045
 20
-38.14802936721274
 30
821.0
 10
1.9631893459466436
 20
-45.60626315943395
 30
821.0
 10
2.00066893142108
 20
-50.93014029119499
 30
821.0
 10
2.0392786068421693
 20
-56.2540385319069
 30
821.0
 10
2.0790930055115844
 20
-61.577949178820404
 30
821.0
 10
2.1201961536811513
 20
-66.90186479806204
 30
821.0
 10
2.162670845724536
 20
-72.22578101098901
 30
821.0
 10
2.2066130495422054
 20
-77.54969431183244
 30
821.0
 10
2.287272200532169
 20
-86.98348858463426
 30
821.0
 10
2.3233518356735474
 20
-91.09337075223647
 30
821.0
 10
2.36042205411226
 20
-95.20324747533525
 30
821.0
 10
2.3985390105084
 20
-99.31311719119512
 30
821.0
 10
2.437765517190026
 20
-103.4229782958646
 30
821.0
 10
2.4781728813747472
 20
-107.53282908823051
 30
821.0
 10
2.5198435114186597
 20
-111.64266771816031
 30
821.0
 10
2.6058877487090215
 20
-119.8606619568562
 30
821.0
 10
2.6502631515756896
 20
-123.96881744036565
 30
821.0
 10
2.695904424910608
 20
-128.07695856575083
 30
821.0
 10
2.7427295776895
 20
-132.18508520548795
 30
821.0
 10
2.7906675790611346
 20
-136.29319714898108
 30
821.0
 10
2.8396558747169824
 20
-140.401294104332
 30
821.0
 10
2.889638544215247
 20
-144.50937568093786
 30
821.0
 10
2.9799051413104056
 20
-151.79086386588318
 30
821.0
 10
3.0198084237109497
 20
-154.96427681603205
 30
821.0
 10
3.0602516826485724
 20
-158.1376799736203
 30
821.0
 10
3.1012134925924584
 20
-161.31107299026635
 30
821.0
 10
3.1426739718824126
 20
-164.4844553983116
 30
821.0
 10
3.1846143912641773
 20
-167.65782658500117
 30
821.0
 10
3.227016685370961
 20
-170.83118574148372
 30
821.0
 10
3.3067716381331493
 20
-176.73813131780145
 30
821.0
 10
3.344009796563964
 20
-179.47172088895684
 30
821.0
 10
3.3815657854464707
 20
-182.20529999059883
 30
821.0
 10
3.4194281864427505
 20
-184.93886778675764
 30
821.0
 10
3.4575849563573797
 20
-187.67242299485332
 30
821.0
 10
3.496023286373444
 20
-190.4059638566906
 30
821.0
 10
3.534728472947978
 20
-193.13948795109803
 30
821.0
 10
3.6001756555617326
 20
-197.73235648880203
 30
821.0
 10
3.626785210458338
 20
-199.5917110697707
 30
821.0
 10
3.653502221641141
 20
-201.45105484795562
 30
821.0
 10
3.6803195629738945
 20
-203.31038660633885
 30
821.0
 10
3.707226929032318
 20
-205.1697038578522
 30
821.0
 10
3.7342117338590044
 20
-207.0290029967607
 30
821.0
 10
3.761256463231054
 20
-208.8882787952947
 30
821.0
 10
3.798918479919991
 20
-211.4751175476193
 30
821.0
 10
3.8092398688932767
 20
-212.18379549375368
 30
821.0
 10
3.8192877399339924
 20
-212.87351788759375
 30
821.0
 10
3.829053751276556
 20
-213.54435881306154
 30
821.0
 10
3.8385544879579694
 20
-214.19650554000498
 30
821.0
 10
3.8477831087965946
 20
-214.83025645232237
 30
821.0
 10
3.8567512813094518
 20
-215.44602277754214
 30
821.0
 10
3.8738861347587408
 20
-216.6225550804279
 30
821.0
 10
3.8823072605458364
 20
-217.2007757547107
 30
821.0
 10
3.8907282787611805
 20
-217.77898904278237
 30
821.0
 10
3.89914917632373
 20
-218.35719404645818
 30
821.0
 10
3.9075699362903613
 20
-218.9353896023707
 30
821.0
 10
3.915990537215323
 20
-219.51357423798783
 30
821.0
 10
3.924410952001333
 20
-220.09174609272563
 30
821.0
 10
3.942573030343866
 20
-221.338810849992
 30
821.0
 10
3.9523145675438656
 20
-222.00769507648866
 30
821.0
 10
3.9620557521079167
 20
-222.6765550899054
 30
821.0
 10
3.9717965352053426
 20
-223.3453875373751
 30
821.0
 10
3.981536799866329
 20
-224.01418438738727
 30
821.0
 10
3.9912763673402223
 20
-224.6829333663668
 30
821.0
 10
4.001014974314427
 20
-225.35161639445164
 30
821.0
 10
4.015736117803055
 20
-226.36241586822862
 30
821.0
 10
4.02071962409849
 20
-226.70459890209963
 30
821.0
 10
4.0257026749944105
 20
-227.04675066682458
 30
821.0
 10
4.030685209044191
 20
-227.3888669432865
 30
821.0
 10
4.0356670720152925
 20
-227.73093714140032
 30
821.0
 10
4.040648027060333
 20
-228.0729449984889
 30
821.0
 10
4.045627724310664
 20
-228.41486649148231
 30
821.0
 10
4.053344422408428
 20
-228.9447189708458
 30
821.0
 10
4.055939034788803
 20
-229.1228731224417
 30
821.0
 10
4.058393813372095
 20
-229.29142585084546
 30
821.0
 10
4.0607131909299685
 20
-229.4506815239391
 30
821.0
 10
4.06290160023409
 20
-229.6009445096048
 30
821.0
 10
4.064963474056125
 20
-229.74251917572482
 30
821.0
 10
4.0669032451677385
 20
-229.8757098901813
 30
821.0
 10
4.070547447513454
 20
-230.12593215153152
 30
821.0
 10
4.072251878747556
 20
-230.24296369842534
 30
821.0
 10
4.073843072814566
 20
-230.35222002941987
 30
821.0
 10
4.075325462486153
 20
-230.45400551239743
 30
821.0
 10
4.076703480533978
 20
-230.54862451524014
 30
821.0
 10
4.077981559729709
 20
-230.63638140583012
 30
821.0
 10
4.079164132845014
 20
-230.7175805520496
 30
821.0
 10
4.080801382554825
 20
-230.82999920664645
 30
821.0
 10
4.081324364130905
 20
-230.86590874739002
 30
821.0
 10
4.081825131476253
 20
-230.9002929899967
 30
821.0
 10
4.082304238687324
 20
-230.93318998045189
 30
821.0
 10
4.08276223986058
 20
-230.9646377647408
 30
821.0
 10
4.083199689092479
 20
-230.99467438884872
 30
821.0
 10
4.083617140479477
 20
-231.02333789876093
 30
821.0
 10
4.084678494182294
 20
-231.09621374329896
 30
821.0
 10
4.085287829834216
 20
-231.1380526233285
 30
821.0
 10
4.085845720335183
 20
-231.1763591193718
 30
821.0
 10
4.086354730946569
 20
-231.21130937024975
 30
821.0
 10
4.086817426929761
 20
-231.24307951478298
 30
821.0
 10
4.087236373546136
 20
-231.2718456917923
 30
821.0
 10
4.087614136057076
 20
-231.2977840400983
 30
821.0
 10
4.088292423390848
 20
-231.34435735694524
 30
821.0
 10
4.088592948213676
 20
-231.364992325486
 30
821.0
 10
4.08885741945383
 20
-231.383151742965
 30
821.0
 10
4.08908840237269
 20
-231.3990117482027
 30
821.0
 10
4.089288462231637
 20
-231.41274848002004
 30
821.0
 10
4.089460164292051
 20
-231.42453807723754
 30
821.0
 10
4.089606073815312
 20
-231.434556678676
 30
821.0
 10
4.089814633636041
 20
-231.44887704429217
 30
821.0
 10
4.0898891298441535
 20
-231.45399218551867
 30
821.0
 10
4.089953124571793
 20
-231.45838626245097
 30
821.0
 10
4.090007497703611
 20
-231.46211969070475
 30
821.0
 10
4.09005312912426
 20
-231.46525288589544
 30
821.0
 10
4.090090898718394
 20
-231.4678462636385
 30
821.0
 10
4.090121686370667
 20
-231.4699602395495
 30
821.0
 10
4.090191045083845
 20
-231.47472262440334
 30
821.0
 10
4.090332071341501
 20
-231.4757518543792
 30
821.0
 10
4.090409782182158
 20
-231.47588926540843
 30
821.0
 10
4.090349684099506
 20
-231.47590346741944
 30
821.0
 10
4.090162458637468
 20
-231.47618533403252
 30
821.0
 10
4.089943962390207
 20
-231.47674800255982
 30
821.0
 10
4.089875227002123
 20
-231.47722687400505
 30
821.0
 10
4.090222459167848
 20
-231.47687961306383
 30
821.0
  0
ENDSEC
  0
SECTION
  2
OBJECTS
  0
DICTIONARY
  5
A
330
0
100
AcDbDictionary
281
1
  3
ACAD_COLOR
350
B
  3
ACAD_GROUP
350
C
  3
ACAD_LAYOUT
350
D
  3
ACAD_MATERIAL
350
E
  3
ACAD_MLEADERSTYLE
350
F
  3
ACAD_MLINESTYLE
350
10
  3
ACAD_PLOTSETTINGS
350
11
  3
ACAD_PLOTSTYLENAME
350
12
  3
ACAD_SCALELIST
350
14
  3
ACAD_TABLESTYLE
350
15
  3
ACAD_VISUALSTYLE
350
16
  3
EZDXF_META
350
2D
  0
DICTIONARY
  5
B
330
A
100
AcDbDictionary
281
1
  0
DICTIONARY
  5
C
330
A
100
AcDbDictionary
281
1
  0
DICTIONARY
  5
D
330
A
100
AcDbDictionary
281
1
  3
Model
350
1A
  3
Layout1
350
1E
  0
DICTIONARY
  5
E
330
A
100
AcDbDictionary
281
1
  3
ByBlock
350
1F
  3
ByLayer
350
20
  3
Global
350
21
  0
DICTIONARY
  5
F
330
A
100
AcDbDictionary
281
1
  3
Standard
350
2C
  0
DICTIONARY
  5
10
330
A
100
AcDbDictionary
281
1
  3
Standard
350
22
  0
DICTIONARY
  5
11
330
A
100
AcDbDictionary
281
1
  0
ACDBDICTIONARYWDFLT
  5
12
330
A
100
AcDbDictionary
281
1
  3
Normal
350
13
100
AcDbDictionaryWithDefault
340
13
  0
ACDBPLACEHOLDER
  5
13
330
12
  0
DICTIONARY
  5
14
330
A
100
AcDbDictionary
281
1
  0
DICTIONARY
  5
15
330
A
100
AcDbDictionary
281
1
  0
DICTIONARY
  5
16
330
A
100
AcDbDictionary
281
1
  0
LAYOUT
  5
1A
330
D
100
AcDbPlotSettings
  1

  2
Adobe PDF
  4
A3
  6

 40
7.5
 41
20.0
 42
7.5
 43
20.0
 44
420.0
 45
297.0
 46
0.0
 47
0.0
 48
0.0
 49
0.0
140
0.0
141
0.0
142
1.0
143
1.0
 70
1024
 72
1
 73
1
 74
5
  7

 75
16
 76
0
 77
2
 78
300
147
1.0
148
0.0
149
0.0
100
AcDbLayout
  1
Model
 70
1
 71
0
 10
0.0
 20
0.0
 11
420.0
 21
297.0
 12
0.0
 22
0.0
 32
0.0
 14
1e+20
 24
1e+20
 34
1e+20
 15
-1e+20
 25
-1e+20
 35
-1e+20
146
0.0
 13
0.0
 23
0.0
 33
0.0
 16
1.0
 26
0.0
 36
0.0
 17
0.0
 27
1.0
 37
0.0
 76
1
330
17
  0
LAYOUT
  5
1E
330
D
100
AcDbPlotSettings
  1

  2
Adobe PDF
  4
A3
  6

 40
7.5
 41
20.0
 42
7.5
 43
20.0
 44
420.0
 45
297.0
 46
0.0
 47
0.0
 48
0.0
 49
0.0
140
0.0
141
0.0
142
1.0
143
1.0
 70
0
 72
1
 73
1
 74
5
  7

 75
16
 76
0
 77
2
 78
300
147
1.0
148
0.0
149
0.0
100
AcDbLayout
  1
Layout1
 70
1
 71
1
 10
0.0
 20
0.0
 11
420.0
 21
297.0
 12
0.0
 22
0.0
 32
0.0
 14
1e+20
 24
1e+20
 34
1e+20
 15
-1e+20
 25
-1e+20
 35
-1e+20
146
0.0
 13
0.0
 23
0.0
 33
0.0
 16
1.0
 26
0.0
 36
0.0
 17
0.0
 27
1.0
 37
0.0
 76
1
330
1B
  0
MATERIAL
  5
1F
102
{ACAD_REACTORS
330
E
102
}
330
E
100
AcDbMaterial
  1
ByBlock
  2

 70
0
 40
1.0
 71
1
 41
1.0
 91
-1023410177
 42
1.0
 72
1
  3

 73
1
 74
1
 75
1
 44
0.5
 73
0
 45
1.0
 46
1.0
 77
1
  4

 78
1
 79
1
170
1
 48
1.0
171
1
  6

172
1
173
1
174
1
140
1.0
141
1.0
175
1
  7

176
1
177
1
178
1
143
1.0
179
1
  8

270
1
271
1
272
1
145
1.0
146
1.0
273
1
  9

274
1
275
1
276
1
 42
1.0
 72
1
  3

 73
1
 74
1
 75
1
 94
63
  0
MATERIAL
  5
20
102
{ACAD_REACTORS
330
E
102
}
330
E
100
AcDbMaterial
  1
ByLayer
  2

 70
0
 40
1.0
 71
1
 41
1.0
 91
-1023410177
 42
1.0
 72
1
  3

 73
1
 74
1
 75
1
 44
0.5
 73
0
 45
1.0
 46
1.0
 77
1
  4

 78
1
 79
1
170
1
 48
1.0
171
1
  6

172
1
173
1
174
1
140
1.0
141
1.0
175
1
  7

176
1
177
1
178
1
143
1.0
179
1
  8

270
1
271
1
272
1
145
1.0
146
1.0
273
1
  9

274
1
275
1
276
1
 42
1.0
 72
1
  3

 73
1
 74
1
 75
1
 94
63
  0
MATERIAL
  5
21
102
{ACAD_REACTORS
330
E
102
}
330
E
100
AcDbMaterial
  1
Global
  2

 70
0
 40
1.0
 71
1
 41
1.0
 91
-1023410177
 42
1.0
 72
1
  3

 73
1
 74
1
 75
1
 44
0.5
 73
0
 45
1.0
 46
1.0
 77
1
  4

 78
1
 79
1
170
1
 48
1.0
171
1
  6

172
1
173
1
174
1
140
1.0
141
1.0
175
1
  7

176
1
177
1
178
1
143
1.0
179
1
  8

270
1
271
1
272
1
145
1.0
146
1.0
273
1
  9

274
1
275
1
276
1
 42
1.0
 72
1
  3

 73
1
 74
1
 75
1
 94
63
  0
MLINESTYLE
  5
22
102
{ACAD_REACTORS
330
10
102
}
330
10
100
AcDbMlineStyle
  2
Standard
 70
0
  3

 62
256
 51
90.0
 52
90.0
 71
2
 49
0.5
 62
256
  6
BYLAYER
 49
-0.5
 62
256
  6
BYLAYER
  0
MLEADERSTYLE
  5
2C
102
{ACAD_REACTORS
330
F
102
}
330
F
100
AcDbMLeaderStyle
179
2
170
2
171
1
172
0
 90
2
 40
0.0
 41
0.0
173
1
 91
-1056964608
 92
-2
290
1
 42
2.0
291
1
 43
8.0
  3
Standard
 44
4.0
300

342
29
174
1
175
1
176
0
178
1
 93
-1056964608
 45
4.0
292
0
297
0
 46
4.0
 94
-1056964608
 47
1.0
 49
1.0
140
1.0
294
1
141
0.0
177
0
142
1.0
295
0
296
0
143
3.75
271
0
272
9
273
9
  0
DICTIONARY
  5
2D
330
A
100
AcDbDictionary
280
1
281
1
  3
CREATED_BY_EZDXF
350
2E
  3
WRITTEN_BY_EZDXF
350
86
  0
DICTIONARYVAR
  5
2E
330
2D
100
DictionaryVariables
280
0
  1
0.17 @ 2022-02-15T16:36:39.768428+00:00
  0
DICTIONARYVAR
  5
86
330
2D
100
DictionaryVariables
280
0
  1
0.17 @ 2022-02-15T16:36:39.875301+00:00
  0
ENDSEC
  0
EOF
