  0
SECTION
  2
HEADER
  9
$ACADVER
  1
AC1027
  9
$ACADMAINTVER
 70
105
  9
$DWGCODEPAGE
  3
ANSI_1252
  9
$LASTSAVEDBY
  1
ezdxf
  9
$REQUIREDVERSIONS
160
0
  9
$INSBASE
 10
0.0
 20
0.0
 30
0.0
  9
$EXTMIN
 10
1e+20
 20
1e+20
 30
1e+20
  9
$EXTMAX
 10
-1e+20
 20
-1e+20
 30
-1e+20
  9
$LIMMIN
 10
0.0
 20
0.0
  9
$LIMMAX
 10
420.0
 20
297.0
  9
$ORTHOMODE
 70
0
  9
$REGENMODE
 70
1
  9
$FILLMODE
 70
1
  9
$QTEXTMODE
 70
0
  9
$MIRRTEXT
 70
1
  9
$LTSCALE
 40
1.0
  9
$ATTMODE
 70
1
  9
$TEXTSIZE
 40
2.5
  9
$TRACEWID
 40
1.0
  9
$TEXTSTYLE
  7
Standard
  9
$CLAYER
  8
0
  9
$CELTYPE
  6
ByLayer
  9
$CECOLOR
 62
256
  9
$CELTSCALE
 40
1.0
  9
$DISPSILH
 70
0
  9
$DIMSCALE
 40
1.0
  9
$DIMASZ
 40
2.5
  9
$DIMEXO
 40
0.625
  9
$DIMDLI
 40
3.75
  9
$DIMRND
 40
0.0
  9
$DIMDLE
 40
0.0
  9
$DIMEXE
 40
1.25
  9
$DIMTP
 40
0.0
  9
$DIMTM
 40
0.0
  9
$DIMTXT
 40
2.5
  9
$DIMCEN
 40
2.5
  9
$DIMTSZ
 40
0.0
  9
$DIMTOL
 70
0
  9
$DIMLIM
 70
0
  9
$DIMTIH
 70
0
  9
$DIMTOH
 70
0
  9
$DIMSE1
 70
0
  9
$DIMSE2
 70
0
  9
$DIMTAD
 70
1
  9
$DIMZIN
 70
8
  9
$DIMBLK
  1

  9
$DIMASO
 70
1
  9
$DIMSHO
 70
1
  9
$DIMPOST
  1

  9
$DIMAPOST
  1

  9
$DIMALT
 70
0
  9
$DIMALTD
 70
3
  9
$DIMALTF
 40
0.03937007874
  9
$DIMLFAC
 40
1.0
  9
$DIMTOFL
 70
1
  9
$DIMTVP
 40
0.0
  9
$DIMTIX
 70
0
  9
$DIMSOXD
 70
0
  9
$DIMSAH
 70
0
  9
$DIMBLK1
  1

  9
$DIMBLK2
  1

  9
$DIMSTYLE
  2
ISO-25
  9
$DIMCLRD
 70
0
  9
$DIMCLRE
 70
0
  9
$DIMCLRT
 70
0
  9
$DIMTFAC
 40
1.0
  9
$DIMGAP
 40
0.625
  9
$DIMJUST
 70
0
  9
$DIMSD1
 70
0
  9
$DIMSD2
 70
0
  9
$DIMTOLJ
 70
0
  9
$DIMTZIN
 70
8
  9
$DIMALTZ
 70
0
  9
$DIMALTTZ
 70
0
  9
$DIMUPT
 70
0
  9
$DIMDEC
 70
2
  9
$DIMTDEC
 70
2
  9
$DIMALTU
 70
2
  9
$DIMALTTD
 70
3
  9
$DIMTXSTY
  7
Standard
  9
$DIMAUNIT
 70
0
  9
$DIMADEC
 70
0
  9
$DIMALTRND
 40
0.0
  9
$DIMAZIN
 70
0
  9
$DIMDSEP
 70
44
  9
$DIMATFIT
 70
3
  9
$DIMFRAC
 70
0
  9
$DIMLDRBLK
  1

  9
$DIMLUNIT
 70
2
  9
$DIMLWD
 70
-2
  9
$DIMLWE
 70
-2
  9
$DIMTMOVE
 70
0
  9
$DIMFXL
 40
1.0
  9
$DIMFXLON
 70
0
  9
$DIMJOGANG
 40
0.785398163397
  9
$DIMTFILL
 70
0
  9
$DIMTFILLCLR
 70
0
  9
$DIMARCSYM
 70
0
  9
$DIMLTYPE
  6

  9
$DIMLTEX1
  6

  9
$DIMLTEX2
  6

  9
$DIMTXTDIRECTION
 70
0
  9
$LUNITS
 70
2
  9
$LUPREC
 70
4
  9
$SKETCHINC
 40
1.0
  9
$FILLETRAD
 40
10.0
  9
$AUNITS
 70
0
  9
$AUPREC
 70
2
  9
$MENU
  1
.
  9
$ELEVATION
 40
0.0
  9
$PELEVATION
 40
0.0
  9
$THICKNESS
 40
0.0
  9
$LIMCHECK
 70
0
  9
$CHAMFERA
 40
0.0
  9
$CHAMFERB
 40
0.0
  9
$CHAMFERC
 40
0.0
  9
$CHAMFERD
 40
0.0
  9
$SKPOLY
 70
0
  9
$TDCREATE
 40
2459626.7338310187
  9
$TDUCREATE
 40
2458532.153996898
  9
$TDUPDATE
 40
2459626.7338310187
  9
$TDUUPDATE
 40
2458532.1544311
  9
$TDINDWG
 40
0.0
  9
$TDUSRTIMER
 40
0.0
  9
$USRTIMER
 70
1
  9
$ANGBASE
 50
0.0
  9
$ANGDIR
 70
0
  9
$PDMODE
 70
0
  9
$PDSIZE
 40
0.0
  9
$PLINEWID
 40
0.0
  9
$SPLFRAME
 70
0
  9
$SPLINETYPE
 70
6
  9
$SPLINESEGS
 70
8
  9
$HANDSEED
  5
87
  9
$SURFTAB1
 70
6
  9
$SURFTAB2
 70
6
  9
$SURFTYPE
 70
6
  9
$SURFU
 70
6
  9
$SURFV
 70
6
  9
$UCSBASE
  2

  9
$UCSNAME
  2

  9
$UCSORG
 10
0.0
 20
0.0
 30
0.0
  9
$UCSXDIR
 10
1.0
 20
0.0
 30
0.0
  9
$UCSYDIR
 10
0.0
 20
1.0
 30
0.0
  9
$UCSORTHOREF
  2

  9
$UCSORTHOVIEW
 70
0
  9
$UCSORGTOP
 10
0.0
 20
0.0
 30
0.0
  9
$UCSORGBOTTOM
 10
0.0
 20
0.0
 30
0.0
  9
$UCSORGLEFT
 10
0.0
 20
0.0
 30
0.0
  9
$UCSORGRIGHT
 10
0.0
 20
0.0
 30
0.0
  9
$UCSORGFRONT
 10
0.0
 20
0.0
 30
0.0
  9
$UCSORGBACK
 10
0.0
 20
0.0
 30
0.0
  9
$PUCSBASE
  2

  9
$PUCSNAME
  2

  9
$PUCSORG
 10
0.0
 20
0.0
 30
0.0
  9
$PUCSXDIR
 10
1.0
 20
0.0
 30
0.0
  9
$PUCSYDIR
 10
0.0
 20
1.0
 30
0.0
  9
$PUCSORTHOREF
  2

  9
$PUCSORTHOVIEW
 70
0
  9
$PUCSORGTOP
 10
0.0
 20
0.0
 30
0.0
  9
$PUCSORGBOTTOM
 10
0.0
 20
0.0
 30
0.0
  9
$PUCSORGLEFT
 10
0.0
 20
0.0
 30
0.0
  9
$PUCSORGRIGHT
 10
0.0
 20
0.0
 30
0.0
  9
$PUCSORGFRONT
 10
0.0
 20
0.0
 30
0.0
  9
$PUCSORGBACK
 10
0.0
 20
0.0
 30
0.0
  9
$USERI1
 70
0
  9
$USERI2
 70
0
  9
$USERI3
 70
0
  9
$USERI4
 70
0
  9
$USERI5
 70
0
  9
$USERR1
 40
0.0
  9
$USERR2
 40
0.0
  9
$USERR3
 40
0.0
  9
$USERR4
 40
0.0
  9
$USERR5
 40
0.0
  9
$WORLDVIEW
 70
1
  9
$SHADEDGE
 70
3
  9
$SHADEDIF
 70
70
  9
$TILEMODE
 70
1
  9
$MAXACTVP
 70
64
  9
$PINSBASE
 10
0.0
 20
0.0
 30
0.0
  9
$PLIMCHECK
 70
0
  9
$PEXTMIN
 10
1e+20
 20
1e+20
 30
1e+20
  9
$PEXTMAX
 10
-1e+20
 20
-1e+20
 30
-1e+20
  9
$PLIMMIN
 10
0.0
 20
0.0
  9
$PLIMMAX
 10
420.0
 20
297.0
  9
$UNITMODE
 70
0
  9
$VISRETAIN
 70
1
  9
$PLINEGEN
 70
0
  9
$PSLTSCALE
 70
1
  9
$TREEDEPTH
 70
3020
  9
$CMLSTYLE
  2
Standard
  9
$CMLJUST
 70
0
  9
$CMLSCALE
 40
20.0
  9
$PROXYGRAPHICS
 70
1
  9
$MEASUREMENT
 70
1
  9
$CELWEIGHT
370
-1
  9
$ENDCAPS
280
0
  9
$JOINSTYLE
280
0
  9
$LWDISPLAY
290
0
  9
$INSUNITS
 70
6
  9
$HYPERLINKBASE
  1

  9
$STYLESHEET
  1

  9
$XEDIT
290
1
  9
$CEPSNTYPE
380
0
  9
$PSTYLEMODE
290
1
  9
$FINGERPRINTGUID
  2
{30025490-C0F7-4EAF-B984-E6748366D0FC}
  9
$VERSIONGUID
  2
{07524933-B312-4350-B346-2093A449111A}
  9
$EXTNAMES
290
1
  9
$PSVPSCALE
 40
0.0
  9
$OLESTARTUP
290
0
  9
$SORTENTS
280
127
  9
$INDEXCTL
280
0
  9
$HIDETEXT
280
1
  9
$XCLIPFRAME
280
0
  9
$HALOGAP
280
0
  9
$OBSCOLOR
 70
257
  9
$OBSLTYPE
280
0
  9
$INTERSECTIONDISPLAY
280
0
  9
$INTERSECTIONCOLOR
 70
257
  9
$DIMASSOC
280
2
  9
$PROJECTNAME
  1

  9
$CAMERADISPLAY
290
0
  9
$LENSLENGTH
 40
50.0
  9
$CAMERAHEIGHT
 40
0.0
  9
$STEPSPERSEC
 40
24.0
  9
$STEPSIZE
 40
100.0
  9
$3DDWFPREC
 40
2.0
  9
$PSOLWIDTH
 40
0.005
  9
$PSOLHEIGHT
 40
0.08
  9
$LOFTANG1
 40
1.570796326795
  9
$LOFTANG2
 40
1.570796326795
  9
$LOFTMAG1
 40
0.0
  9
$LOFTMAG2
 40
0.0
  9
$LOFTPARAM
 70
7
  9
$LOFTNORMALS
280
1
  9
$LATITUDE
 40
37.795
  9
$LONGITUDE
 40
-122.394
  9
$NORTHDIRECTION
 40
0.0
  9
$TIMEZONE
 70
-8000
  9
$LIGHTGLYPHDISPLAY
280
1
  9
$TILEMODELIGHTSYNCH
280
1
  9
$CMATERIAL
347
20
  9
$SOLIDHIST
280
0
  9
$SHOWHIST
280
1
  9
$DWFFRAME
280
2
  9
$DGNFRAME
280
2
  9
$REALWORLDSCALE
290
1
  9
$INTERFERECOLOR
 62
256
  9
$CSHADOW
280
0
  9
$SHADOWPLANELOCATION
 40
0.0
  0
ENDSEC
  0
SECTION
  2
CLASSES
  0
CLASS
  1
ACDBDICTIONARYWDFLT
  2
AcDbDictionaryWithDefault
  3
ObjectDBX Classes
 90
0
 91
0
280
0
281
0
  0
CLASS
  1
SUN
  2
AcDbSun
  3
SCENEOE
 90
1153
 91
0
280
0
281
0
  0
CLASS
  1
VISUALSTYLE
  2
AcDbVisualStyle
  3
ObjectDBX Classes
 90
4095
 91
0
280
0
281
0
  0
CLASS
  1
MATERIAL
  2
AcDbMaterial
  3
ObjectDBX Classes
 90
1153
 91
0
280
0
281
0
  0
CLASS
  1
SCALE
  2
AcDbScale
  3
ObjectDBX Classes
 90
1153
 91
0
280
0
281
0
  0
CLASS
  1
TABLESTYLE
  2
AcDbTableStyle
  3
ObjectDBX Classes
 90
4095
 91
0
280
0
281
0
  0
CLASS
  1
MLEADERSTYLE
  2
AcDbMLeaderStyle
  3
ACDB_MLEADERSTYLE_CLASS
 90
4095
 91
0
280
0
281
0
  0
CLASS
  1
DICTIONARYVAR
  2
AcDbDictionaryVar
  3
ObjectDBX Classes
 90
0
 91
0
280
0
281
0
  0
CLASS
  1
CELLSTYLEMAP
  2
AcDbCellStyleMap
  3
ObjectDBX Classes
 90
1152
 91
0
280
0
281
0
  0
CLASS
  1
MENTALRAYRENDERSETTINGS
  2
AcDbMentalRayRenderSettings
  3
SCENEOE
 90
1024
 91
0
280
0
281
0
  0
CLASS
  1
ACDBDETAILVIEWSTYLE
  2
AcDbDetailViewStyle
  3
ObjectDBX Classes
 90
1025
 91
0
280
0
281
0
  0
CLASS
  1
ACDBSECTIONVIEWSTYLE
  2
AcDbSectionViewStyle
  3
ObjectDBX Classes
 90
1025
 91
0
280
0
281
0
  0
CLASS
  1
RASTERVARIABLES
  2
AcDbRasterVariables
  3
ISM
 90
0
 91
0
280
0
281
0
  0
CLASS
  1
ACDBPLACEHOLDER
  2
AcDbPlaceHolder
  3
ObjectDBX Classes
 90
0
 91
0
280
0
281
0
  0
CLASS
  1
LAYOUT
  2
AcDbLayout
  3
ObjectDBX Classes
 90
0
 91
0
280
0
281
0
  0
ENDSEC
  0
SECTION
  2
TABLES
  0
TABLE
  2
VPORT
  5
8
330
0
100
AcDbSymbolTable
 70
1
  0
VPORT
  5
23
330
8
100
AcDbSymbolTableRecord
100
AcDbViewportTableRecord
  2
*Active
 70
0
 10
0.0
 20
0.0
 11
1.0
 21
1.0
 12
344.2
 22
148.5
 13
0.0
 23
0.0
 14
0.5
 24
0.5
 15
0.5
 25
0.5
 16
0.0
 26
0.0
 36
1.0
 17
0.0
 27
0.0
 37
0.0
 40
297.0
 41
1.34
 42
50.0
 43
0.0
 44
0.0
 50
0.0
 51
0.0
 71
0
 72
1000
 73
1
 74
3
 75
0
 76
0
 77
0
 78
0
281
0
 65
0
146
0.0
  0
ENDTAB
  0
TABLE
  2
LTYPE
  5
2
330
0
100
AcDbSymbolTable
 70
3
  0
LTYPE
  5
24
330
2
100
AcDbSymbolTableRecord
100
AcDbLinetypeTableRecord
  2
ByBlock
 70
0
  3

 72
65
 73
0
 40
0.0
  0
LTYPE
  5
25
330
2
100
AcDbSymbolTableRecord
100
AcDbLinetypeTableRecord
  2
ByLayer
 70
0
  3

 72
65
 73
0
 40
0.0
  0
LTYPE
  5
26
330
2
100
AcDbSymbolTableRecord
100
AcDbLinetypeTableRecord
  2
Continuous
 70
0
  3

 72
65
 73
0
 40
0.0
  0
ENDTAB
  0
TABLE
  2
LAYER
  5
1
330
0
100
AcDbSymbolTable
 70
2
  0
LAYER
  5
27
330
1
100
AcDbSymbolTableRecord
100
AcDbLayerTableRecord
  2
0
 70
0
 62
7
  6
Continuous
370
-3
390
13
347
21
  0
LAYER
  5
28
330
1
100
AcDbSymbolTableRecord
100
AcDbLayerTableRecord
  2
Defpoints
 70
0
 62
7
  6
Continuous
290
0
370
-3
390
13
347
21
  0
ENDTAB
  0
TABLE
  2
STYLE
  5
5
330
0
100
AcDbSymbolTable
 70
1
  0
STYLE
  5
29
330
5
100
AcDbSymbolTableRecord
100
AcDbTextStyleTableRecord
  2
Standard
 70
0
 40
0.0
 41
1.0
 50
0.0
 71
0
 42
2.5
  3
txt
  4

  0
ENDTAB
  0
TABLE
  2
VIEW
  5
7
330
0
100
AcDbSymbolTable
 70
0
  0
ENDTAB
  0
TABLE
  2
UCS
  5
6
330
0
100
AcDbSymbolTable
 70
0
  0
ENDTAB
  0
TABLE
  2
APPID
  5
3
330
0
100
AcDbSymbolTable
 70
3
  0
APPID
  5
2A
330
3
100
AcDbSymbolTableRecord
100
AcDbRegAppTableRecord
  2
ACAD
 70
0
  0
APPID
  5
84
330
3
100
AcDbSymbolTableRecord
100
AcDbRegAppTableRecord
  2
HATCHBACKGROUNDCOLOR
 70
0
  0
APPID
  5
85
330
3
100
AcDbSymbolTableRecord
100
AcDbRegAppTableRecord
  2
EZDXF
 70
0
  0
ENDTAB
  0
TABLE
  2
DIMSTYLE
  5
4
330
0
100
AcDbSymbolTable
 70
1
100
AcDbDimStyleTable
  0
DIMSTYLE
105
2B
330
4
100
AcDbSymbolTableRecord
100
AcDbDimStyleTableRecord
  2
Standard
 70
0
 40
1.0
 41
2.5
 42
0.625
 43
3.75
 44
1.25
 45
0.0
 46
0.0
 47
0.0
 48
0.0
 49
2.5
140
2.5
141
2.5
142
0.0
143
0.03937007874
144
1.0
145
0.0
146
1.0
147
0.625
148
0.0
 69
0
 70
0
 71
0
 72
0
 73
0
 74
0
 75
0
 76
0
 77
1
 78
8
 79
0
170
0
171
3
172
1
173
0
174
0
175
0
176
0
177
0
178
0
179
0
271
0
272
2
273
2
274
3
275
0
276
0
277
2
278
44
279
0
280
0
281
0
282
0
283
0
284
8
285
0
286
0
288
0
289
3
290
0
371
-2
372
-2
  0
ENDTAB
  0
TABLE
  2
BLOCK_RECORD
  5
9
330
0
100
AcDbSymbolTable
 70
2
  0
BLOCK_RECORD
  5
17
330
9
100
AcDbSymbolTableRecord
100
AcDbBlockTableRecord
  2
*Model_Space
340
1A
 70
0
280
1
281
0
  0
BLOCK_RECORD
  5
1B
330
9
100
AcDbSymbolTableRecord
100
AcDbBlockTableRecord
  2
*Paper_Space
340
1E
 70
0
280
1
281
0
  0
ENDTAB
  0
ENDSEC
  0
SECTION
  2
BLOCKS
  0
BLOCK
  5
18
330
17
100
AcDbEntity
  8
0
100
AcDbBlockBegin
  2
*Model_Space
 70
0
 10
0.0
 20
0.0
 30
0.0
  3
*Model_Space
  1

  0
ENDBLK
  5
19
330
17
100
AcDbEntity
  8
0
100
AcDbBlockEnd
  0
BLOCK
  5
1C
330
1B
100
AcDbEntity
  8
0
100
AcDbBlockBegin
  2
*Paper_Space
 70
0
 10
0.0
 20
0.0
 30
0.0
  3
*Paper_Space
  1

  0
ENDBLK
  5
1D
330
1B
100
AcDbEntity
  8
0
100
AcDbBlockEnd
  0
ENDSEC
  0
SECTION
  2
ENTITIES
  0
SPLINE
  5
2F
330
17
100
AcDbEntity
  8
0
100
AcDbSpline
 70
0
 71
8
 72
53
 73
44
 74
0
 40
0.0
 40
0.0
 40
0.0
 40
0.0
 40
0.0
 40
0.0
 40
0.0
 40
0.0
 40
0.0
 40
0.10669767185557777
 40
0.10669767185557777
 40
0.10669767185557777
 40
0.10669767185557777
 40
0.10669767185557777
 40
0.10669767185557777
 40
0.10669767185557777
 40
0.14679027054997631
 40
0.14679027054997631
 40
0.14679027054997631
 40
0.14679027054997631
 40
0.14679027054997631
 40
0.14679027054997631
 40
0.14679027054997631
 40
0.28314787292992094
 40
0.28314787292992094
 40
0.28314787292992094
 40
0.28314787292992094
 40
0.28314787292992094
 40
0.28314787292992094
 40
0.28314787292992094
 40
0.48274790254876854
 40
0.48274790254876854
 40
0.48274790254876854
 40
0.48274790254876854
 40
0.48274790254876854
 40
0.48274790254876854
 40
0.48274790254876854
 40
0.7114500267343531
 40
0.7114500267343531
 40
0.7114500267343531
 40
0.7114500267343531
 40
0.7114500267343531
 40
0.7114500267343531
 40
0.7114500267343531
 40
1.0
 40
1.0
 40
1.0
 40
1.0
 40
1.0
 40
1.0
 40
1.0
 40
1.0
 40
1.0
 10
26.745792842226546
 20
260.55610510235084
 30
899.0
 10
26.21972705056179
 20
260.59399098325224
 30
899.0
 10
25.691733501866846
 20
260.60473896428493
 30
899.0
 10
25.16352814700401
 20
260.5885688160156
 30
899.0
 10
24.636636915746518
 20
260.54619632556745
 30
899.0
 10
24.112404618017163
 20
260.4787067351678
 30
899.0
 10
23.59200241907306
 20
260.3874434132594
 30
899.0
 10
23.076433888636572
 20
260.2739117581782
 30
899.0
 10
22.374942321292348
 20
260.08926644731105
 30
899.0
 10
22.184125282881258
 20
260.0358917487338
 30
899.0
 10
21.994110058957258
 20
259.97968024572265
 30
899.0
 10
21.804921492132642
 20
259.92072070617274
 30
899.0
 10
21.6165877174138
 20
259.85908465881454
 30
899.0
 10
21.4291401622012
 20
259.7948263932143
 30
899.0
 10
21.242613546289412
 20
259.7279829597738
 30
899.0
 10
20.4259178776001
 20
259.4225102451508
 30
899.0
 10
19.80586016030045
 20
259.1567475436146
 30
899.0
 10
19.198359715166596
 20
258.862505201924
 30
899.0
 10
18.60452909934351
 20
258.54129569737785
 30
899.0
 10
18.025167323696287
 20
258.194814587662
 30
899.0
 10
17.46081108251457
 20
257.8248479253363
 30
899.0
 10
16.911776331147635
 20
257.43319734691903
 30
899.0
 10
15.597127744843094
 20
256.4191607587472
 30
899.0
 10
14.849280170379508
 20
255.77409411408706
 30
899.0
 10
14.13453271815813
 20
255.0915802475965
 30
899.0
 10
13.452150803088564
 20
254.3765100951068
 30
899.0
 10
12.801010407465856
 20
253.63328594152765
 30
899.0
 10
12.17972765719318
 20
252.86569758322523
 30
899.0
 10
11.586734219381533
 20
252.07685041743542
 30
899.0
 10
10.371375387889248
 20
250.3435757262501
 30
899.0
 10
9.757586915306332
 20
249.39359573497717
 30
899.0
 10
9.17646653712866
 20
248.42283473585675
 30
899.0
 10
8.625784024959565
 20
247.43440111971196
 30
899.0
 10
8.103496719521086
 20
246.43089042933892
 30
899.0
 10
7.607707511601987
 20
245.41440915350626
 30
899.0
 10
7.136648852470716
 20
244.38658386071077
 30
899.0
 10
6.123451631035248
 20
242.03892764516462
 30
899.0
 10
5.595147167901295
 20
240.71347792607008
 30
899.0
 10
5.100493710895606
 20
239.3748052319373
 30
899.0
 10
4.6368000984439135
 20
238.02503501193556
 30
899.0
 10
4.201740708647497
 20
236.66590588303353
 30
899.0
 10
3.793261541785501
 20
235.29880246896022
 30
899.0
 10
3.409537752232259
 20
233.92477034206266
 30
899.0
 10
3.04892635252196
 20
232.54453273220204
 30
899.0
  0
SPLINE
  5
30
330
17
100
AcDbEntity
  8
0
100
AcDbSpline
 70
0
 71
1
 72
4
 73
2
 74
0
 40
0.0
 40
0.0
 40
1.0
 40
1.0
 10
26.74579283956168
 20
260.55610506557315
 30
899.0
 10
26.74579283956168
 20
258.09999939999005
 30
899.0
  0
LINE
  5
31
330
17
100
AcDbEntity
  8
0
100
AcDbLine
 10
26.745792829991625
 20
258.1
 30
899.0
 11
33.25510994755634
 21
258.1
 31
899.0
  0
SPLINE
  5
32
330
17
100
AcDbEntity
  8
0
100
AcDbSpline
 70
0
 71
8
 72
46
 73
37
 74
0
 40
0.0
 40
0.0
 40
0.0
 40
0.0
 40
0.0
 40
0.0
 40
0.0
 40
0.0
 40
0.0
 40
0.16987986824192827
 40
0.16987986824192827
 40
0.16987986824192827
 40
0.16987986824192827
 40
0.16987986824192827
 40
0.16987986824192827
 40
0.16987986824192827
 40
0.4908703160389912
 40
0.4908703160389912
 40
0.4908703160389912
 40
0.4908703160389912
 40
0.4908703160389912
 40
0.4908703160389912
 40
0.4908703160389912
 40
0.7587793665794148
 40
0.7587793665794148
 40
0.7587793665794148
 40
0.7587793665794148
 40
0.7587793665794148
 40
0.7587793665794148
 40
0.7587793665794148
 40
0.9883212082428865
 40
0.9883212082428865
 40
0.9883212082428865
 40
0.9883212082428865
 40
0.9883212082428865
 40
0.9883212082428865
 40
0.9883212082428865
 40
1.0
 40
1.0
 40
1.0
 40
1.0
 40
1.0
 40
1.0
 40
1.0
 40
1.0
 40
1.0
 10
46.63260130368882
 20
235.8999998962105
 30
899.0
 10
46.44997792952453
 20
236.42768927649962
 30
899.0
 10
46.26452426810272
 20
236.95439661609078
 30
899.0
 10
46.076106165969634
 20
237.48005688957568
 30
899.0
 10
45.8846119684486
 20
238.00460883073913
 30
899.0
 10
45.6899397004194
 20
238.52799053864146
 30
899.0
 10
45.491984247097356
 20
239.05013508370092
 30
899.0
 10
45.29062453481258
 20
239.5709661137764
 30
899.0
 10
44.69852310390606
 20
241.07185888206752
 30
899.0
 10
44.298694527464974
 20
242.04825487488597
 30
899.0
 10
43.885290952131264
 20
243.019085910072
 30
899.0
 10
43.457281067474675
 20
243.98368601393875
 30
899.0
 10
43.0135060469638
 20
244.94120434112676
 30
899.0
 10
42.55264802643874
 20
245.89059051310474
 30
899.0
 10
42.07316920124922
 20
246.8305662581092
 30
899.0
 10
41.1558974465209
 20
248.5349464845205
 30
899.0
 10
40.72440968851477
 20
249.30251887742605
 30
899.0
 10
40.277597639822325
 20
250.06147923552953
 30
899.0
 10
39.814250985707105
 20
250.81070542721264
 30
899.0
 10
39.33305364763423
 20
251.54874197826607
 30
899.0
 10
38.832556048328016
 20
252.27378189672217
 30
899.0
 10
38.31111772426886
 20
252.98362898989393
 30
899.0
 10
37.30041607288371
 20
254.26851165032508
 30
899.0
 10
36.817426245211216
 20
254.84805714272792
 30
899.0
 10
36.31652919435431
 20
255.4127146385788
 30
899.0
 10
35.796494902914205
 20
255.9603687437722
 30
899.0
 10
35.25617393742578
 20
256.4883514024143
 30
899.0
 10
34.69451647815432
 20
256.99346167986477
 30
899.0
 10
34.11061564871624
 20
257.4720106896225
 30
899.0
 10
33.472925277817055
 20
257.94270654537144
 30
899.0
 10
33.441990592945864
 20
257.9654171363258
 30
899.0
 10
33.41099527006696
 20
257.98804875906
 30
899.0
 10
33.379939330112045
 20
258.0106007772673
 30
899.0
 10
33.348822798016215
 20
258.03307255279447
 30
899.0
 10
33.3176457027605
 20
258.05546344575083
 30
899.0
 10
33.28640807741543
 20
258.07777281462023
 30
899.0
 10
33.25510995918581
 20
258.10000001637553
 30
899.0
  0
LINE
  5
33
330
17
100
AcDbEntity
  8
0
100
AcDbLine
 10
26.745792829991625
 20
235.9
 30
899.0
 11
46.632601603588
 21
235.9
 31
899.0
  0
SPLINE
  5
34
330
17
100
AcDbEntity
  8
0
100
AcDbSpline
 70
0
 71
1
 72
4
 73
2
 74
0
 40
0.0
 40
0.0
 40
1.0
 40
1.0
 10
26.74579283956168
 20
235.9000006000011
 30
899.0
 10
26.74579283956168
 20
232.09999939999986
 30
899.0
  0
LINE
  5
35
330
17
100
AcDbEntity
  8
0
100
AcDbLine
 10
26.745792829991625
 20
232.1
 30
899.0
 11
47.8823527572758
 21
232.1
 31
899.0
  0
SPLINE
  5
36
330
17
100
AcDbEntity
  8
0
100
AcDbSpline
 70
0
 71
8
 72
32
 73
23
 74
0
 40
0.0
 40
0.0
 40
0.0
 40
0.0
 40
0.0
 40
0.0
 40
0.0
 40
0.0
 40
0.0
 40
0.4026613792206304
 40
0.4026613792206304
 40
0.4026613792206304
 40
0.4026613792206304
 40
0.4026613792206304
 40
0.4026613792206304
 40
0.4026613792206304
 40
0.9123500884688056
 40
0.9123500884688056
 40
0.9123500884688056
 40
0.9123500884688056
 40
0.9123500884688056
 40
0.9123500884688056
 40
0.9123500884688056
 40
1.0
 40
1.0
 40
1.0
 40
1.0
 40
1.0
 40
1.0
 40
1.0
 40
1.0
 40
1.0
 10
53.539951464530375
 20
209.90000000669065
 30
899.0
 10
53.29969259881842
 20
211.02981450313092
 30
899.0
 10
53.055449768454025
 20
212.15877744448966
 30
899.0
 10
52.80705855822937
 20
213.28683568265723
 30
899.0
 10
52.5543384434406
 20
214.41393076018957
 30
899.0
 10
52.29709001721118
 20
215.53999833518247
 30
899.0
 10
52.0350913865106
 20
216.66496743409687
 30
899.0
 10
51.76809333081491
 20
217.78875944736092
 30
899.0
 10
51.15115958152222
 20
220.3321815733242
 30
899.0
 10
50.79805376538976
 20
221.75100262568574
 30
899.0
 10
50.435920282113884
 20
223.16757308654797
 30
899.0
 10
50.06410474659857
 20
224.5816631033547
 30
899.0
 10
49.68184688463501
 20
225.99298247991604
 30
899.0
 10
49.288253931230244
 20
227.40117345545403
 30
899.0
 10
48.88224790945127
 20
228.80579637700097
 30
899.0
 10
48.39027121896838
 20
230.44714243803836
 30
899.0
 10
48.31798810808678
 20
230.68681387753747
 30
899.0
 10
48.24561205023747
 20
230.92531050960517
 30
899.0
 10
48.17314347993093
 20
231.16262743263405
 30
899.0
 10
48.100582831677684
 20
231.3987597450167
 30
899.0
 10
48.027930539988226
 20
231.63370254514572
 30
899.0
 10
47.95518703937306
 20
231.86745093141374
 30
899.0
 10
47.882352764342684
 20
232.10000000221333
 30
899.0
  0
LINE
  5
37
330
17
100
AcDbEntity
  8
0
100
AcDbLine
 10
26.745792829991625
 20
209.9
 30
899.0
 11
53.53995143306794
 21
209.9
 31
899.0
  0
SPLINE
  5
38
330
17
100
AcDbEntity
  8
0
100
AcDbSpline
 70
0
 71
1
 72
4
 73
2
 74
0
 40
0.0
 40
0.0
 40
1.0
 40
1.0
 10
26.74579283956168
 20
209.90000060000008
 30
899.0
 10
26.74579283956168
 20
206.09999939999994
 30
899.0
  0
LINE
  5
39
330
17
100
AcDbEntity
  8
0
100
AcDbLine
 10
26.745792829991625
 20
206.1
 30
899.0
 11
54.32815751640978
 21
206.1
 31
899.0
  0
SPLINE
  5
3A
330
17
100
AcDbEntity
  8
0
100
AcDbSpline
 70
0
 71
8
 72
25
 73
16
 74
0
 40
0.0
 40
0.0
 40
0.0
 40
0.0
 40
0.0
 40
0.0
 40
0.0
 40
0.0
 40
0.0
 40
0.22857855316220815
 40
0.22857855316220815
 40
0.22857855316220815
 40
0.22857855316220815
 40
0.22857855316220815
 40
0.22857855316220815
 40
0.22857855316220815
 40
1.0
 40
1.0
 40
1.0
 40
1.0
 40
1.0
 40
1.0
 40
1.0
 40
1.0
 40
1.0
 10
58.286057775389224
 20
183.90000000235523
 30
899.0
 10
58.18574966618333
 20
184.53651872032358
 30
899.0
 10
58.08470689906546
 20
185.17292151097692
 30
899.0
 10
57.982920451815204
 20
185.80920600153183
 30
899.0
 10
57.880380946689186
 20
186.44536974050737
 30
899.0
 10
57.77707862987489
 20
187.08141019474496
 30
899.0
 10
57.673003349080375
 20
187.7173247461558
 30
899.0
 10
57.56814452908678
 20
188.353110688171
 30
899.0
 10
57.10592538151179
 20
191.1340125921463
 30
899.0
 10
56.740324016314396
 20
193.27767517606256
 30
899.0
 10
56.365258412499
 20
195.41968782621703
 30
899.0
 10
55.98024087369758
 20
197.55994845038
 30
899.0
 10
55.58471929889282
 20
199.69831706352795
 30
899.0
 10
55.178054990679385
 20
201.83461108255736
 30
899.0
 10
54.75950116525237
 20
203.9686008120625
 30
899.0
 10
54.328157535889574
 20
206.10000000394223
 30
899.0
  0
LINE
  5
3B
330
17
100
AcDbEntity
  8
0
100
AcDbLine
 10
26.745792829991625
 20
183.9
 30
899.0
 11
58.28605776044354
 21
183.9
 31
899.0
  0
SPLINE
  5
3C
330
17
100
AcDbEntity
  8
0
100
AcDbSpline
 70
0
 71
1
 72
4
 73
2
 74
0
 40
0.0
 40
0.0
 40
1.0
 40
1.0
 10
26.74579283956168
 20
183.90000060000014
 30
899.0
 10
26.74579283956168
 20
180.0999993999999
 30
899.0
  0
LINE
  5
3D
330
17
100
AcDbEntity
  8
0
100
AcDbLine
 10
26.745792829991625
 20
180.1
 30
899.0
 11
58.87337584554713
 21
180.1
 31
899.0
  0
SPLINE
  5
3E
330
17
100
AcDbEntity
  8
0
100
AcDbSpline
 70
0
 71
8
 72
18
 73
9
 74
0
 40
0.0
 40
0.0
 40
0.0
 40
0.0
 40
0.0
 40
0.0
 40
0.0
 40
0.0
 40
0.0
 40
1.0
 40
1.0
 40
1.0
 40
1.0
 40
1.0
 40
1.0
 40
1.0
 40
1.0
 40
1.0
 10
61.8920872198938
 20
157.90000000256958
 30
899.0
 10
61.55411399830082
 20
160.68017673340117
 30
899.0
 10
61.2055951181685
 20
163.45906165178346
 30
899.0
 10
60.84624984211267
 20
166.2365833935343
 30
899.0
 10
60.475749085072366
 20
169.0126539237261
 30
899.0
 10
60.093706802704716
 20
171.78716725316076
 30
899.0
 10
59.69967071260696
 20
174.55999808901288
 30
899.0
 10
59.293107271061835
 20
177.3309996651127
 30
899.0
 10
58.873375828002395
 20
180.09999999734057
 30
899.0
  0
LINE
  5
3F
330
17
100
AcDbEntity
  8
0
100
AcDbLine
 10
26.745792829991625
 20
157.9
 30
899.0
 11
61.892087198756435
 21
157.9
 31
899.0
  0
SPLINE
  5
40
330
17
100
AcDbEntity
  8
0
100
AcDbSpline
 70
0
 71
1
 72
4
 73
2
 74
0
 40
0.0
 40
0.0
 40
1.0
 40
1.0
 10
26.74579283956168
 20
157.90000060000042
 30
899.0
 10
26.74579283956168
 20
154.09999939999918
 30
899.0
  0
LINE
  5
41
330
17
100
AcDbEntity
  8
0
100
AcDbLine
 10
26.745792829991625
 20
154.1
 30
899.0
 11
62.34537054774678
 21
154.1
 31
899.0
  0
SPLINE
  5
42
330
17
100
AcDbEntity
  8
0
100
AcDbSpline
 70
0
 71
8
 72
25
 73
16
 74
0
 40
0.0
 40
0.0
 40
0.0
 40
0.0
 40
0.0
 40
0.0
 40
0.0
 40
0.0
 40
0.0
 40
0.08452455596589932
 40
0.08452455596589932
 40
0.08452455596589932
 40
0.08452455596589932
 40
0.08452455596589932
 40
0.08452455596589932
 40
0.08452455596589932
 40
1.0
 40
1.0
 40
1.0
 40
1.0
 40
1.0
 40
1.0
 40
1.0
 40
1.0
 40
1.0
 10
64.6645871009367
 20
131.90000001676216
 30
899.0
 10
64.64290806497617
 20
132.1348396544147
 30
899.0
 10
64.62116218536826
 20
132.36967311957105
 30
899.0
 10
64.59934941399439
 20
132.60450038532971
 30
899.0
 10
64.57746971334656
 20
132.83932142564578
 30
899.0
 10
64.55552305652733
 20
133.0741362153309
 30
899.0
 10
64.5335094272499
 20
133.30894473005333
 30
899.0
 10
64.511428819838
 20
133.54374694633788
 30
899.0
 10
64.24940341953969
 20
136.32158934426542
 30
899.0000000000001
 10
64.00166097948339
 20
138.86389264869675
 30
899.0
 10
63.74599825937403
 20
141.40542017853915
 30
899.0
 10
63.4823391683673
 20
143.94613555055813
 30
899.0
 10
63.21058483373286
 20
146.48599831471665
 30
899.0
 10
62.93061125012946
 20
149.0249636942855
 30
899.0
 10
62.6422669288801
 20
151.56298232595415
 30
899.0
 10
62.34537054724718
 20
154.09999999994153
 30
899.0
  0
LINE
  5
43
330
17
100
AcDbEntity
  8
0
100
AcDbLine
 10
26.745792829991625
 20
131.9
 30
899.0
 11
64.66458691935904
 21
131.9
 31
899.0
  0
SPLINE
  5
44
330
17
100
AcDbEntity
  8
0
100
AcDbSpline
 70
0
 71
1
 72
4
 73
2
 74
0
 40
0.0
 40
0.0
 40
1.0
 40
1.0
 10
26.74579283956168
 20
131.90000060000256
 30
899.0
 10
26.74579283956168
 20
128.09999939999764
 30
899.0
  0
LINE
  5
45
330
17
100
AcDbEntity
  8
0
100
AcDbLine
 10
26.745792829991625
 20
128.1
 30
899.0
 11
65.00769744789753
 21
128.1
 31
899.0
  0
SPLINE
  5
46
330
17
100
AcDbEntity
  8
0
100
AcDbSpline
 70
0
 71
8
 72
32
 73
23
 74
0
 40
0.0
 40
0.0
 40
0.0
 40
0.0
 40
0.0
 40
0.0
 40
0.0
 40
0.0
 40
0.0
 40
0.5636324279245618
 40
0.5636324279245618
 40
0.5636324279245618
 40
0.5636324279245618
 40
0.5636324279245618
 40
0.5636324279245618
 40
0.5636324279245618
 40
0.9798539301778137
 40
0.9798539301778137
 40
0.9798539301778137
 40
0.9798539301778137
 40
0.9798539301778137
 40
0.9798539301778137
 40
0.9798539301778137
 40
1.0
 40
1.0
 40
1.0
 40
1.0
 40
1.0
 40
1.0
 40
1.0
 40
1.0
 40
1.0
 10
66.72135623126606
 20
105.8999999998973
 30
899.0
 10
66.61696427205699
 20
107.46677418782136
 30
899.0
 10
66.51004335334468
 20
109.03337976255301
 30
899.0
 10
66.40055940058784
 20
110.59980966022218
 30
899.0
 10
66.28847798553247
 20
112.1660565738283
 30
899.0
 10
66.173764317154
 20
113.73211295267325
 30
899.0
 10
66.05638323259942
 20
115.29797100179434
 30
899.0
 10
65.93629918812941
 20
116.86362268139723
 30
899.0
 10
65.7227760964471
 20
119.58507649649108
 30
899.0
 10
65.63063485240893
 20
120.74030703050549
 30
899.0
 10
65.53704164731718
 20
121.8947408702529
 30
899.0
 10
65.44198561054291
 20
123.04836757765388
 30
899.0
 10
65.3454558714573
 20
124.20117671462921
 30
899.0
 10
65.24744155943151
 20
125.35315784309961
 30
899.0
 10
65.14793180383667
 20
126.50430052498575
 30
899.0
 10
65.04202632591824
 20
127.71027116501774
 30
899.0
 10
65.03713324585384
 20
127.76594768532028
 30
899.0
 10
65.03223649161487
 20
127.82162388262904
 30
899.0
 10
65.02733606099895
 20
127.87729975645986
 30
899.0
 10
65.02243195183716
 20
127.93297530633127
 30
899.0
 10
65.01752416199407
 20
127.98865053176453
 30
899.0
 10
65.01261268936771
 20
128.0443254322836
 30
899.0
 10
65.00769753188956
 20
128.10000000741513
 30
899.0
  0
LINE
  5
47
330
17
100
AcDbEntity
  8
0
100
AcDbLine
 10
26.745792829991625
 20
105.9
 30
899.0
 11
66.72135623280822
 21
105.9
 31
899.0
  0
SPLINE
  5
48
330
17
100
AcDbEntity
  8
0
100
AcDbSpline
 70
0
 71
1
 72
4
 73
2
 74
0
 40
0.0
 40
0.0
 40
1.0
 40
1.0
 10
26.74579283956168
 20
105.90000060000206
 30
899.0
 10
26.74579283956168
 20
102.09999939999993
 30
899.0
  0
LINE
  5
49
330
17
100
AcDbEntity
  8
0
100
AcDbLine
 10
26.745792829991625
 20
102.1
 30
899.0
 11
66.96806270138215
 21
102.1
 31
899.0
  0
SPLINE
  5
4A
330
17
100
AcDbEntity
  8
0
100
AcDbSpline
 70
0
 71
8
 72
25
 73
16
 74
0
 40
0.0
 40
0.0
 40
0.0
 40
0.0
 40
0.0
 40
0.0
 40
0.0
 40
0.0
 40
0.0
 40
0.10200870895603524
 40
0.10200870895603524
 40
0.10200870895603524
 40
0.10200870895603524
 40
0.10200870895603524
 40
0.10200870895603524
 40
0.10200870895603524
 40
1.0
 40
1.0
 40
1.0
 40
1.0
 40
1.0
 40
1.0
 40
1.0
 40
1.0
 40
1.0
 10
68.16483502552184
 20
79.90000000097686
 30
899.0
 10
68.15207727997556
 20
80.18320171487204
 30
899.0
 10
68.13925022663425
 20
80.46640033960868
 30
899.0
 10
68.12635368424993
 20
80.74959584907467
 30
899.0
 10
68.11338747127013
 20
81.03278821702064
 30
899.0
 10
68.10035140583612
 20
81.31597741705995
 30
899.0
 10
68.08724530578128
 20
81.59916342266865
 30
899.0
 10
68.07406898862936
 20
81.8823462071854
 30
899.0
 10
67.94421030134535
 20
84.65837915107994
 30
899.0
 10
67.8221429445827
 20
87.15097646357879
 30
899.0
 10
67.69449554944472
 20
89.64329847837888
 30
899.0
 10
67.56114164487119
 20
92.13532446879758
 30
899.0
 10
67.42195284875984
 20
94.62703217864903
 30
899.0
 10
67.2767987761247
 20
97.11839781649456
 30
899.0
 10
67.12554694725424
 20
99.60939604989309
 30
899.0
 10
66.96806269586959
 20
102.09999999965144
 30
899.0
  0
LINE
  5
4B
330
17
100
AcDbEntity
  8
0
100
AcDbLine
 10
26.745792829991625
 20
79.9
 30
899.0
 11
68.16483500383653
 21
79.9
 31
899.0
  0
SPLINE
  5
4C
330
17
100
AcDbEntity
  8
0
100
AcDbSpline
 70
0
 71
1
 72
4
 73
2
 74
0
 40
0.0
 40
0.0
 40
1.0
 40
1.0
 10
26.74579283956168
 20
79.90000060000001
 30
899.0
 10
26.74579283956168
 20
76.09999939999999
 30
899.0
  0
LINE
  5
4D
330
17
100
AcDbEntity
  8
0
100
AcDbLine
 10
26.745792829991625
 20
76.1
 30
899.0
 11
68.3305968228068
 21
76.1
 31
899.0
  0
SPLINE
  5
4E
330
17
100
AcDbEntity
  8
0
100
AcDbSpline
 70
0
 71
8
 72
18
 73
9
 74
0
 40
0.0
 40
0.0
 40
0.0
 40
0.0
 40
0.0
 40
0.0
 40
0.0
 40
0.0
 40
0.0
 40
1.0
 40
1.0
 40
1.0
 40
1.0
 40
1.0
 40
1.0
 40
1.0
 40
1.0
 40
1.0
 10
69.09525245550115
 20
53.8999999995721
 30
899.0
 10
69.02004936509185
 20
56.67565558919219
 30
899.0
 10
68.93934118694607
 20
59.45116136358545
 30
899.0
 10
68.85297198946128
 20
62.22650013764172
 30
899.0
 10
68.76078372196726
 20
65.00165347843472
 30
899.0
 10
68.6626160759725
 20
67.77660170217253
 30
899.0
 10
68.55830634234164
 20
70.5513238710266
 30
899.0
 10
68.44768926440379
 20
73.3257977898391
 30
899.0
 10
68.33059688699183
 20
76.10000000270908
 30
899.0
  0
LINE
  5
4F
330
17
100
AcDbEntity
  8
0
100
AcDbLine
 10
26.745792829991625
 20
53.9
 30
899.0
 11
69.09525247129474
 21
53.9
 31
899.0
  0
SPLINE
  5
50
330
17
100
AcDbEntity
  8
0
100
AcDbSpline
 70
0
 71
1
 72
4
 73
2
 74
0
 40
0.0
 40
0.0
 40
1.0
 40
1.0
 10
26.74579283956168
 20
53.90000060000026
 30
899.0
 10
26.74579283956168
 20
50.09999939999937
 30
899.0
  0
LINE
  5
51
330
17
100
AcDbEntity
  8
0
100
AcDbLine
 10
26.745792829991625
 20
50.1
 30
899.0
 11
69.19373549262573
 21
50.1
 31
899.0
  0
SPLINE
  5
52
330
17
100
AcDbEntity
  8
0
100
AcDbSpline
 70
0
 71
8
 72
18
 73
9
 74
0
 40
0.0
 40
0.0
 40
0.0
 40
0.0
 40
0.0
 40
0.0
 40
0.0
 40
0.0
 40
0.0
 40
1.0
 40
1.0
 40
1.0
 40
1.0
 40
1.0
 40
1.0
 40
1.0
 40
1.0
 40
1.0
 10
69.60206458296473
 20
27.900000000106225
 30
899.0
 10
69.56761195761666
 20
30.675271312914298
 30
899.0
 10
69.52871411550225
 20
33.45048801049296
 30
899.0
 10
69.48522587898327
 20
36.22564018468499
 30
899.0
 10
69.43700057021596
 20
39.00071669490899
 30
899.0
 10
69.38388988695414
 20
41.77570516554198
 30
899.0
 10
69.32574377429393
 20
44.55059198318099
 30
899.0
 10
69.26241029235962
 20
47.32536229378333
 30
899.0
 10
69.19373547993105
 20
50.099999999685785
 30
899.0
  0
LINE
  5
53
330
17
100
AcDbEntity
  8
0
100
AcDbLine
 10
26.745792829991625
 20
27.9
 30
899.0
 11
69.60206457440846
 21
27.9
 31
899.0
  0
SPLINE
  5
54
330
17
100
AcDbEntity
  8
0
100
AcDbSpline
 70
0
 71
1
 72
4
 73
2
 74
0
 40
0.0
 40
0.0
 40
1.0
 40
1.0
 10
26.74579283956168
 20
27.900000600000002
 30
899.0
 10
26.74579283956168
 20
24.099999399999998
 30
899.0
  0
LINE
  5
55
330
17
100
AcDbEntity
  8
0
100
AcDbLine
 10
26.745792829991625
 20
24.1
 30
899.0
 11
69.64563248778524
 21
24.1
 31
899.0
  0
SPLINE
  5
56
330
17
100
AcDbEntity
  8
0
100
AcDbSpline
 70
0
 71
8
 72
25
 73
16
 74
0
 40
0.0
 40
0.0
 40
0.0
 40
0.0
 40
0.0
 40
0.0
 40
0.0
 40
0.0
 40
0.0
 40
0.24809089057793887
 40
0.24809089057793887
 40
0.24809089057793887
 40
0.24809089057793887
 40
0.24809089057793887
 40
0.24809089057793887
 40
0.24809089057793887
 40
1.0
 40
1.0
 40
1.0
 40
1.0
 40
1.0
 40
1.0
 40
1.0
 40
1.0
 40
1.0
 10
69.76701511143594
 20
1.8999999994937617
 30
898.9999999999999
 10
69.76648893807032
 20
2.5884662235495433
 30
899.0
 10
69.76575090247705
 20
3.2769322819876066
 30
899.0
 10
69.76479906945099
 20
3.9653980956367643
 30
899.0
 10
69.76363080429832
 20
4.653863584608432
 30
899.0
 10
69.76224326786067
 20
5.342328667764042
 30
899.0
 10
69.76063391153946
 20
6.0307932621824545
 30
899.0
 10
69.75880097231996
 20
6.719257282627375
 30
899.0
 10
69.75050963796448
 20
9.494302173568737
 30
899.0
 10
69.74220754325574
 20
11.580874971388212
 30
899.0
 10
69.73177850268617
 20
13.667437231938788
 30
899.0
 10
69.71916299588648
 20
15.753986761889951
 30
899.0
 10
69.70430113597405
 20
17.84052097656711
 30
899.0
 10
69.68713264169278
 20
19.92703689938171
 30
899.0
 10
69.66759680882025
 20
22.013531161239506
 30
899.0
 10
69.64563248084212
 20
24.099999999926922
 30
899.0
  0
LINE
  5
57
330
17
100
AcDbEntity
  8
0
100
AcDbLine
 10
26.745792829991625
 20
1.9
 30
899.0
 11
69.76701577379922
 21
1.9
 31
899.0
  0
SPLINE
  5
58
330
17
100
AcDbEntity
  8
0
100
AcDbSpline
 70
0
 71
1
 72
4
 73
2
 74
0
 40
0.0
 40
0.0
 40
0.9999993684216398
 40
0.9999993684216398
 10
26.74579283956168
 20
1.9000006000000558
 30
899.0
 10
26.74579283956168
 20
-6.553790374438061e-17
 30
899.0
  0
SPLINE
  5
59
330
17
100
AcDbEntity
  8
0
100
AcDbSpline
 70
0
 71
1
 72
4
 73
2
 74
0
 40
0.0
 40
0.0
 40
1.0
 40
1.0
 10
26.74579283956168
 20
-1.9000006000000011
 30
899.0
 10
26.74579283956168
 20
1.2000000211287443e-06
 30
899.0
  0
LINE
  5
5A
330
17
100
AcDbEntity
  8
0
100
AcDbLine
 10
26.745792829991622
 20
-1.9
 30
899.0
 11
69.7671156925806
 21
-1.9
 31
899.0
  0
SPLINE
  5
5B
330
17
100
AcDbEntity
  8
0
100
AcDbSpline
 70
0
 71
8
 72
25
 73
16
 74
0
 40
0.0
 40
0.0
 40
0.0
 40
0.0
 40
0.0
 40
0.0
 40
0.0
 40
0.0
 40
0.0
 40
0.9902473274253344
 40
0.9902473274253344
 40
0.9902473274253344
 40
0.9902473274253344
 40
0.9902473274253344
 40
0.9902473274253344
 40
0.9902473274253344
 40
1.0
 40
1.0
 40
1.0
 40
1.0
 40
1.0
 40
1.0
 40
1.0
 40
1.0
 40
1.0
 10
69.6468254260833
 20
-24.100000000314488
 30
898.9999999999999
 10
69.67563273034733
 20
-21.35219783216112
 30
898.9999999999999
 10
69.70022140783934
 20
-18.604348869267433
 30
898.9999999999999
 10
69.72073217490471
 20
-15.85645947215573
 30
898.9999999999999
 10
69.73730436985042
 20
-13.108534423778385
 30
898.9999999999999
 10
69.75007606981944
 20
-10.360576933617214
 30
898.9999999999999
 10
69.75918420767714
 20
-7.612588641772323
 30
899.0
 10
69.76476469025077
 20
-4.864569623097685
 30
899.0000000000001
 10
69.76697406658741
 20
-2.089453593446838
 30
899.0
 10
69.7669952850257
 20
-2.0623887951760027
 30
899.0
 10
69.76701617477558
 20
-2.035323996633045
 30
899.0
 10
69.76703673602925
 20
-2.008259197822787
 30
899.0
 10
69.76705696897385
 20
-1.9811943987500469
 30
899.0
 10
69.76707687379147
 20
-1.9541295994196424
 30
899.0
 10
69.76709645065921
 20
-1.9270647998363888
 30
899.0
 10
69.7671156997493
 20
-1.9000000000050994
 30
899.0
  0
LINE
  5
5C
330
17
100
AcDbEntity
  8
0
100
AcDbLine
 10
26.745792829991622
 20
-24.1
 30
899.0
 11
69.64682539608438
 21
-24.1
 31
899.0
  0
SPLINE
  5
5D
330
17
100
AcDbEntity
  8
0
100
AcDbSpline
 70
0
 71
1
 72
4
 73
2
 74
0
 40
0.0
 40
0.0
 40
1.0
 40
1.0
 10
26.74579283956168
 20
-27.900000600000034
 30
899.0
 10
26.74579283956168
 20
-24.099999399999938
 30
899.0
  0
LINE
  5
5E
330
17
100
AcDbEntity
  8
0
100
AcDbLine
 10
26.745792829991622
 20
-27.9
 30
899.0
 11
69.60341607116875
 21
-27.9
 31
899.0
  0
SPLINE
  5
5F
330
17
100
AcDbEntity
  8
0
100
AcDbSpline
 70
0
 71
8
 72
18
 73
9
 74
0
 40
0.0
 40
0.0
 40
0.0
 40
0.0
 40
0.0
 40
0.0
 40
0.0
 40
0.0
 40
0.0
 40
1.0
 40
1.0
 40
1.0
 40
1.0
 40
1.0
 40
1.0
 40
1.0
 40
1.0
 40
1.0
 10
69.19569619971918
 20
-50.09999999988628
 30
898.9999999999998
 10
69.26433782386522
 20
-47.32534789172016
 30
898.9999999999998
 10
69.32762360523509
 20
-44.55056807879663
 30
898.9999999999998
 10
69.38570862695335
 20
-41.775676788133865
 30
898.9999999999998
 10
69.43874595343853
 20
-39.00068858434682
 30
898.9999999999998
 10
69.48688675912196
 20
-36.22561637424811
 30
898.9999999999998
 10
69.5302804538106
 20
-33.450471411293904
 30
898.9999999999998
 10
69.56907480613262
 20
-30.675263299936084
 30
898.9999999999998
 10
69.60341606650312
 20
-27.89999999994227
 30
898.9999999999998
  0
LINE
  5
60
330
17
100
AcDbEntity
  8
0
100
AcDbLine
 10
26.745792829991622
 20
-50.1
 30
899.0
 11
69.19569620431574
 21
-50.1
 31
899.0
  0
SPLINE
  5
61
330
17
100
AcDbEntity
  8
0
100
AcDbSpline
 70
0
 71
1
 72
4
 73
2
 74
0
 40
0.0
 40
0.0
 40
1.0
 40
1.0
 10
26.74579283956168
 20
-53.9000006
 30
899.0
 10
26.74579283956168
 20
-50.0999994
 30
899.0
  0
LINE
  5
62
330
17
100
AcDbEntity
  8
0
100
AcDbLine
 10
26.745792829991622
 20
-53.9
 30
899.0
 11
69.09724704275835
 21
-53.9
 31
899.0
  0
SPLINE
  5
63
330
17
100
AcDbEntity
  8
0
100
AcDbSpline
 70
0
 71
8
 72
18
 73
9
 74
0
 40
0.0
 40
0.0
 40
0.0
 40
0.0
 40
0.0
 40
0.0
 40
0.0
 40
0.0
 40
0.0
 40
1.0
 40
1.0
 40
1.0
 40
1.0
 40
1.0
 40
1.0
 40
1.0
 40
1.0
 40
1.0
 10
68.33222198116789
 20
-76.10000000047035
 30
899.0
 10
68.44943016921141
 20
-73.3257996473797
 30
899.0
 10
68.56014108908865
 20
-70.55132290565953
 30
899.0
 10
68.6645236954148
 20
-67.77659583964255
 30
899.0
 10
68.76274427953437
 20
-65.00164282520839
 30
899.0
 10
68.85496661626236
 20
-62.226486555193816
 30
899.0
 10
68.94135210388316
 20
-59.45114804450306
 30
899.0
 10
69.02205989884959
 20
-56.67564663498017
 30
899.0
 10
69.09724704662403
 20
-53.900000000104725
 30
899.0
  0
LINE
  5
64
330
17
100
AcDbEntity
  8
0
100
AcDbLine
 10
26.745792829991622
 20
-76.1
 30
899.0
 11
68.33222197003546
 21
-76.1
 31
899.0
  0
SPLINE
  5
65
330
17
100
AcDbEntity
  8
0
100
AcDbSpline
 70
0
 71
1
 72
4
 73
2
 74
0
 40
0.0
 40
0.0
 40
1.0
 40
1.0
 10
26.74579283956168
 20
-79.90000060000018
 30
899.0
 10
26.74579283956168
 20
-76.09999939999999
 30
899.0
  0
LINE
  5
66
330
17
100
AcDbEntity
  8
0
100
AcDbLine
 10
26.745792829991622
 20
-79.9
 30
899.0
 11
68.16628282188785
 21
-79.9
 31
899.0
  0
SPLINE
  5
67
330
17
100
AcDbEntity
  8
0
100
AcDbSpline
 70
0
 71
8
 72
18
 73
9
 74
0
 40
0.0
 40
0.0
 40
0.0
 40
0.0
 40
0.0
 40
0.0
 40
0.0
 40
0.0
 40
0.0
 40
1.0
 40
1.0
 40
1.0
 40
1.0
 40
1.0
 40
1.0
 40
1.0
 40
1.0
 40
1.0
 10
66.9676431513872
 20
-102.09999999913515
 30
899.0
 10
67.14334739222564
 20
-99.32649645037912
 30
899.0
 10
67.31129282698583
 20
-96.55249737040033
 30
899.0
 10
67.471666645822
 20
-93.77803889291596
 30
899.0
 10
67.62465261082704
 20
-91.00315542895692
 30
899.0
 10
67.77043123319707
 20
-88.2278796736153
 30
899.0
 10
67.90917994021945
 20
-85.45224261234526
 30
899.0
 10
68.04107323353557
 20
-82.67627352687941
 30
899.0
 10
68.16628284012958
 20
-79.90000000082271
 30
899.0
  0
LINE
  5
68
330
17
100
AcDbEntity
  8
0
100
AcDbLine
 10
26.745792829991622
 20
-102.1
 30
899.0
 11
66.96764316503933
 21
-102.1
 31
899.0
  0
SPLINE
  5
69
330
17
100
AcDbEntity
  8
0
100
AcDbSpline
 70
0
 71
1
 72
4
 73
2
 74
0
 40
0.0
 40
0.0
 40
1.0
 40
1.0
 10
26.74579283956168
 20
-105.90000060000003
 30
899.0
 10
26.74579283956168
 20
-102.09999939999999
 30
899.0
  0
LINE
  5
6A
330
17
100
AcDbEntity
  8
0
100
AcDbLine
 10
26.745792829991622
 20
-105.9
 30
899.0
 11
66.72045650379836
 21
-105.9
 31
899.0
  0
SPLINE
  5
6B
330
17
100
AcDbEntity
  8
0
100
AcDbSpline
 70
0
 71
8
 72
18
 73
9
 74
0
 40
0.0
 40
0.0
 40
0.0
 40
0.0
 40
0.0
 40
0.0
 40
0.0
 40
0.0
 40
0.0
 40
1.0
 40
1.0
 40
1.0
 40
1.0
 40
1.0
 40
1.0
 40
1.0
 40
1.0
 40
1.0
 10
65.00287448060075
 20
-128.1000000005357
 30
899.0
 10
65.24826635876761
 20
-125.32744755214716
 30
899.0
 10
65.48447725196344
 20
-122.55410710875684
 30
899.0
 10
65.7117180378717
 20
-119.78002522086348
 30
899.0
 10
65.93019521479134
 20
-117.00524666969585
 30
899.0
 10
66.1401111222839
 20
-114.2298144758529
 30
899.0
 10
66.3416641481146
 20
-111.45376990734661
 30
899.0
 10
66.53504892295419
 20
-108.67715248711016
 30
899.0
 10
66.72045650430847
 20
-105.90000000003405
 30
899.0
  0
LINE
  5
6C
330
17
100
AcDbEntity
  8
0
100
AcDbLine
 10
26.745792829991622
 20
-128.1
 30
899.0
 11
65.0028744745484
 21
-128.1
 31
899.0
  0
SPLINE
  5
6D
330
17
100
AcDbEntity
  8
0
100
AcDbSpline
 70
0
 71
1
 72
4
 73
2
 74
0
 40
0.0
 40
0.0
 40
1.0
 40
1.0
 10
26.74579283956168
 20
-131.9000006
 30
899.0
 10
26.74579283956168
 20
-128.09999939999992
 30
899.0
  0
LINE
  5
6E
330
17
100
AcDbEntity
  8
0
100
AcDbLine
 10
26.745792829991622
 20
-131.9
 30
899.0
 11
64.65888101885568
 21
-131.9
 31
899.0
  0
SPLINE
  5
6F
330
17
100
AcDbEntity
  8
0
100
AcDbSpline
 70
0
 71
8
 72
25
 73
16
 74
0
 40
0.0
 40
0.0
 40
0.0
 40
0.0
 40
0.0
 40
0.0
 40
0.0
 40
0.0
 40
0.0
 40
0.6872570513457659
 40
0.6872570513457659
 40
0.6872570513457659
 40
0.6872570513457659
 40
0.6872570513457659
 40
0.6872570513457659
 40
0.6872570513457659
 40
1.0
 40
1.0
 40
1.0
 40
1.0
 40
1.0
 40
1.0
 40
1.0
 40
1.0
 40
1.0
 10
62.33332630621625
 20
-154.10000000317575
 30
899.0
 10
62.556637906437
 20
-152.1970404466654
 30
899.0
 10
62.77512636589209
 20
-150.29351445931414
 30
899.0
 10
62.98886758012439
 20
-148.38944526782274
 30
899.0
 10
63.197927783842005
 20
-146.48485440254018
 30
899.0
 10
63.40236422707638
 20
-144.5797617742289
 30
899.0
 10
63.60222585134049
 20
-142.6741857508303
 30
899.0
 10
63.79755396578694
 20
-140.76814323423014
 30
899.0
 10
64.07522148073724
 20
-137.9940814861946
 30
899.0
 10
64.16120445894575
 20
-137.12565935675306
 30
899.0
 10
64.24632731966678
 20
-136.25643343567864
 30
899.0
 10
64.3305855245754
 20
-135.38645380995013
 30
899.0
 10
64.41397453534671
 20
-134.5157705665462
 30
899.0
 10
64.4964898136559
 20
-133.6444337924455
 30
899.0
 10
64.57812682117813
 20
-132.77249357462662
 30
899.0
 10
64.65888101958865
 20
-131.9000000000679
 30
899.0
  0
LINE
  5
70
330
17
100
AcDbEntity
  8
0
100
AcDbLine
 10
26.745792829991622
 20
-154.1
 30
899.0
 11
62.33332627915402
 21
-154.1
 31
899.0
  0
SPLINE
  5
71
330
17
100
AcDbEntity
  8
0
100
AcDbSpline
 70
0
 71
1
 72
4
 73
2
 74
0
 40
0.0
 40
0.0
 40
1.0
 40
1.0
 10
26.74579283956168
 20
-157.90000060000003
 30
899.0
 10
26.74579283956168
 20
-154.0999994
 30
899.0
  0
LINE
  5
72
330
17
100
AcDbEntity
  8
0
100
AcDbLine
 10
26.745792829991622
 20
-157.9
 30
899.0
 11
61.878791690353225
 21
-157.9
 31
899.0
  0
SPLINE
  5
73
330
17
100
AcDbEntity
  8
0
100
AcDbSpline
 70
0
 71
8
 72
18
 73
9
 74
0
 40
0.0
 40
0.0
 40
0.0
 40
0.0
 40
0.0
 40
0.0
 40
0.0
 40
0.0
 40
0.0
 40
1.0
 40
1.0
 40
1.0
 40
1.0
 40
1.0
 40
1.0
 40
1.0
 40
1.0
 40
1.0
 10
58.85214451220889
 20
-180.0999999979917
 30
899.0
 10
59.27290782842359
 20
-177.3310192295605
 30
899.0
 10
59.68049786290122
 20
-174.56003160543023
 30
899.0
 10
60.075551650548064
 20
-171.7872105205366
 30
899.0
 10
60.4585996830601
 20
-169.01270299641195
 30
899.0
 10
60.83009172948479
 20
-166.23663350192635
 30
899.0
 10
61.1904113626941
 20
-163.45910609718112
 30
899.0
 10
61.539885054025774
 20
-160.68020579081363
 30
899.0
 10
61.87879169835086
 20
-157.900000000975
 30
899.0
  0
LINE
  5
74
330
17
100
AcDbEntity
  8
0
100
AcDbLine
 10
26.745792829991622
 20
-180.1
 30
899.0
 11
58.85214452542482
 21
-180.1
 31
899.0
  0
SPLINE
  5
75
330
17
100
AcDbEntity
  8
0
100
AcDbSpline
 70
0
 71
1
 72
4
 73
2
 74
0
 40
0.0
 40
0.0
 40
1.0
 40
1.0
 10
26.74579283956168
 20
-183.9000006000001
 30
899.0
 10
26.74579283956168
 20
-180.09999939999994
 30
899.0
  0
LINE
  5
76
330
17
100
AcDbEntity
  8
0
100
AcDbLine
 10
26.745792829991622
 20
-183.9
 30
899.0
 11
58.26340139909716
 21
-183.9
 31
899.0
  0
SPLINE
  5
77
330
17
100
AcDbEntity
  8
0
100
AcDbSpline
 70
0
 71
8
 72
25
 73
16
 74
0
 40
0.0
 40
0.0
 40
0.0
 40
0.0
 40
0.0
 40
0.0
 40
0.0
 40
0.0
 40
0.0
 40
0.6916514823121575
 40
0.6916514823121575
 40
0.6916514823121575
 40
0.6916514823121575
 40
0.6916514823121575
 40
0.6916514823121575
 40
0.6916514823121575
 40
1.0
 40
1.0
 40
1.0
 40
1.0
 40
1.0
 40
1.0
 40
1.0
 40
1.0
 40
1.0
 10
54.2972786754775
 20
-206.10000000182598
 30
899.0
 10
54.684689181042806
 20
-204.18901375067452
 30
899.0
 10
55.061831541923624
 20
-202.27594577503243
 30
899.0
 10
55.429352378654
 20
-200.3610012268043
 30
899.0
 10
55.787799555075836
 20
-198.44434790509314
 30
899.0
 10
56.13764835045
 20
-196.52612174268242
 30
899.0
 10
56.47931540309247
 20
-194.60642975386736
 30
899.0
 10
56.81317192031598
 20
-192.68535284387548
 30
899.0
 10
57.28505135680092
 20
-189.90590936610005
 30
899.0
 10
57.429065836001804
 20
-189.04862062700406
 30
899.0
 10
57.57162041410898
 20
-188.1910878390342
 30
899.0
 10
57.712742414331444
 20
-187.3333180775254
 30
899.0
 10
57.852457671802
 20
-186.47531809907198
 30
899.0
 10
57.99079065161494
 20
-185.61709435903853
 30
899.0
 10
58.127764553340576
 20
-184.75865302705148
 30
899.0
 10
58.26340140364333
 20
-183.90000000071814
 30
899.0
  0
LINE
  5
78
330
17
100
AcDbEntity
  8
0
100
AcDbLine
 10
26.745792829991622
 20
-206.1
 30
899.0
 11
54.29727866647044
 21
-206.1
 31
899.0
  0
SPLINE
  5
79
330
17
100
AcDbEntity
  8
0
100
AcDbSpline
 70
0
 71
1
 72
4
 73
2
 74
0
 40
0.0
 40
0.0
 40
1.0
 40
1.0
 10
26.74579283956168
 20
-209.90000060000008
 30
899.0
 10
26.74579283956168
 20
-206.09999939999992
 30
899.0
  0
LINE
  5
7A
330
17
100
AcDbEntity
  8
0
100
AcDbLine
 10
26.745792829991622
 20
-209.9
 30
899.0
 11
53.507758123307006
 21
-209.9
 31
899.0
  0
SPLINE
  5
7B
330
17
100
AcDbEntity
  8
0
100
AcDbSpline
 70
0
 71
8
 72
25
 73
16
 74
0
 40
0.0
 40
0.0
 40
0.0
 40
0.0
 40
0.0
 40
0.0
 40
0.0
 40
0.0
 40
0.0
 40
0.5967083013955795
 40
0.5967083013955795
 40
0.5967083013955795
 40
0.5967083013955795
 40
0.5967083013955795
 40
0.5967083013955795
 40
0.5967083013955795
 40
1.0
 40
1.0
 40
1.0
 40
1.0
 40
1.0
 40
1.0
 40
1.0
 40
1.0
 40
1.0
 10
47.84438127120397
 20
-232.0999999911305
 30
899.0
 10
48.35549099053213
 20
-230.46877388810304
 30
899.0
 10
48.84576851892464
 20
-228.83098067503087
 30
899.0
 10
49.31780582629003
 20
-227.18776979372362
 30
899.0
 10
49.77350671746237
 20
-225.53998876841183
 30
899.0
 10
50.214421108904304
 20
-223.88828270530212
 30
899.0
 10
50.64181145586134
 20
-222.23311389425663
 30
899.0
 10
51.05676857697178
 20
-220.57479752248486
 30
899.0
 10
51.732909145823626
 20
-217.79070296881503
 30
899.0
 10
52.000316404003684
 20
-216.66663447247467
 30
899.0
 10
52.262731471523864
 20
-215.54138794119422
 30
899.0
 10
52.520402745198936
 20
-214.4150424353409
 30
899.0
 10
52.77355139439945
 20
-213.28766926190895
 30
899.0
 10
53.02237619809867
 20
-212.1593329858478
 30
899.0
 10
53.26705713200472
 20
-211.0300921797537
 30
899.0
 10
53.50775812595168
 20
-209.9000000005633
 30
899.0
  0
LINE
  5
7C
330
17
100
AcDbEntity
  8
0
100
AcDbLine
 10
26.745792829991622
 20
-232.1
 30
899.0
 11
47.84438129951137
 21
-232.1
 31
899.0
  0
SPLINE
  5
7D
330
17
100
AcDbEntity
  8
0
100
AcDbSpline
 70
0
 71
1
 72
4
 73
2
 74
0
 40
0.0
 40
0.0
 40
1.0
 40
1.0
 10
26.74579283956168
 20
-235.90000060000008
 30
899.0
 10
26.74579283956168
 20
-232.09999939999992
 30
899.0
  0
LINE
  5
7E
330
17
100
AcDbEntity
  8
0
100
AcDbLine
 10
26.745792829991622
 20
-235.9
 30
899.0
 11
46.5942961858609
 21
-235.9
 31
899.0
  0
SPLINE
  5
7F
330
17
100
AcDbEntity
  8
0
100
AcDbSpline
 70
0
 71
8
 72
46
 73
37
 74
0
 40
0.0
 40
0.0
 40
0.0
 40
0.0
 40
0.0
 40
0.0
 40
0.0
 40
0.0
 40
0.0
 40
0.13531363594573023
 40
0.13531363594573023
 40
0.13531363594573023
 40
0.13531363594573023
 40
0.13531363594573023
 40
0.13531363594573023
 40
0.13531363594573023
 40
0.4319040996570763
 40
0.4319040996570763
 40
0.4319040996570763
 40
0.4319040996570763
 40
0.4319040996570763
 40
0.4319040996570763
 40
0.4319040996570763
 40
0.8299756783765748
 40
0.8299756783765748
 40
0.8299756783765748
 40
0.8299756783765748
 40
0.8299756783765748
 40
0.8299756783765748
 40
0.8299756783765748
 40
0.9967732425920968
 40
0.9967732425920968
 40
0.9967732425920968
 40
0.9967732425920968
 40
0.9967732425920968
 40
0.9967732425920968
 40
0.9967732425920968
 40
1.0
 40
1.0
 40
1.0
 40
1.0
 40
1.0
 40
1.0
 40
1.0
 40
1.0
 40
1.0
 10
33.22985290991184
 20
-258.099999947048
 30
899.0
 10
33.592000809053495
 20
-257.84236007194033
 30
899.0
 10
33.946238695514495
 20
-257.5735471301926
 30
899.0
 10
34.292600396639315
 20
-257.29446494440435
 30
899.0
 10
34.631187968780154
 20
-257.00597015936
 30
899.0
 10
34.96215796718209
 20
-256.70885293092743
 30
899.0
 10
35.285712282082756
 20
-256.4038239870983
 30
899.0
 10
35.602091589663765
 20
-256.0915052493395
 30
899.0
 10
36.589906031429
 20
-255.07302912138073
 30
899.0
 10
37.234655252874234
 20
-254.34157966203628
 30
899.0
 10
37.84880885936509
 20
-253.5836323567924
 30
899.0
 10
38.434909554073144
 20
-252.8037163691234
 30
899.0
 10
38.99525288247284
 20
-252.0054871467996
 30
899.0
 10
39.531974472752914
 20
-251.19179284314401
 30
899.0
 10
40.047084223389476
 20
-250.36470013453413
 30
899.0
 10
41.207447882520974
 20
-248.3992280028634
 30
899.0
 10
41.836457916381654
 20
-247.25196324048352
 30
899.0
 10
42.43390550331536
 20
-246.0876056774094
 30
899.0
 10
43.00309541642238
 20
-244.90913925187877
 30
899.0
 10
43.54675220082137
 20
-243.71890003162466
 30
899.0
 10
44.067219238908486
 20
-242.518673436421
 30
899.0
 10
44.56653087514116
 20
-241.30972914634816
 30
899.0
 10
45.247632205564415
 20
-239.58299359767173
 30
899.0
 10
45.44534571900307
 20
-239.07176863088878
 30
899.0
 10
45.639773017732146
 20
-238.5592758278534
 30
899.0
 10
45.83102963978254
 20
-238.04558762430707
 30
899.0
 10
46.01922716676293
 20
-237.530771415925
 30
899.0
 10
46.20447322385981
 20
-237.01488955831627
 30
899.0
 10
46.38687147983748
 20
-236.49799936702414
 30
899.0
 10
46.56999704256062
 20
-235.9701352001204
 30
899.0
 10
46.573471414051774
 20
-235.9601169327463
 30
899.0
 10
46.576944762467
 20
-235.9500983158127
 30
899.0
 10
46.58041708875991
 20
-235.9400793497281
 30
899.0
 10
46.583888393882205
 20
-235.93006003490038
 30
899.0
 10
46.58735867878375
 20
-235.9200403717366
 30
899.0
 10
46.59082794441255
 20
-235.91002036064327
 30
899.0
 10
46.59429619171474
 20
-235.90000000202613
 30
899.0
  0
LINE
  5
80
330
17
100
AcDbEntity
  8
0
100
AcDbLine
 10
26.745792829991622
 20
-258.1
 30
899.0
 11
33.22985294758309
 21
-258.1
 31
899.0
  0
SPLINE
  5
81
330
17
100
AcDbEntity
  8
0
100
AcDbSpline
 70
0
 71
1
 72
4
 73
2
 74
0
 40
0.0
 40
0.0
 40
1.0
 40
1.0
 10
26.74579283956168
 20
-260.55594971156603
 30
899.0
 10
26.74579283956168
 20
-258.09999939999994
 30
899.0
  0
SPLINE
  5
82
330
17
100
AcDbEntity
  8
0
100
AcDbSpline
 70
0
 71
8
 72
60
 73
51
 74
0
 40
0.0
 40
0.0
 40
0.0
 40
0.0
 40
0.0
 40
0.0
 40
0.0
 40
0.0
 40
0.0
 40
0.0186637064010911
 40
0.0186637064010911
 40
0.0186637064010911
 40
0.0186637064010911
 40
0.0186637064010911
 40
0.0186637064010911
 40
0.0186637064010911
 40
0.03368945896690331
 40
0.03368945896690331
 40
0.03368945896690331
 40
0.03368945896690331
 40
0.03368945896690331
 40
0.03368945896690331
 40
0.03368945896690331
 40
0.05037960655715275
 40
0.05037960655715275
 40
0.05037960655715275
 40
0.05037960655715275
 40
0.05037960655715275
 40
0.05037960655715275
 40
0.05037960655715275
 40
0.052255869248822806
 40
0.052255869248822806
 40
0.052255869248822806
 40
0.052255869248822806
 40
0.052255869248822806
 40
0.052255869248822806
 40
0.052255869248822806
 40
0.05538277714797311
 40
0.05538277714797311
 40
0.05538277714797311
 40
0.05538277714797311
 40
0.05538277714797311
 40
0.05538277714797311
 40
0.05538277714797311
 40
0.05850975693296636
 40
0.05850975693296636
 40
0.05850975693296636
 40
0.05850975693296636
 40
0.05850975693296636
 40
0.05850975693296636
 40
0.05850975693296636
 40
0.06151150326053905
 40
0.06151150326053905
 40
0.06151150326053905
 40
0.06151150326053905
 40
0.06151150326053905
 40
0.06151150326053905
 40
0.06151150326053905
 40
0.06151150326053905
 40
0.06151150326053905
 10
3.04892635252196
 20
-232.54453273220204
 30
899.0
 10
3.429756635144445
 20
-234.002157974975
 30
899.0
 10
3.836353944029817
 20
-235.45282525466513
 30
899.0
 10
4.270657769529917
 20
-236.89571777913866
 30
899.0
 10
4.734831444905687
 20
-238.3296031477713
 30
899.0
 10
5.2313247635658975
 20
-239.75281042687214
 30
899.0
 10
5.762925869601981
 20
-241.1632116055568
 30
899.0
 10
6.332887187667477
 20
-242.55817681845218
 30
899.0
 10
7.438178341987505
 20
-245.04249924398707
 30
899.0
 10
7.958426136751479
 20
-246.13802693327918
 30
899.0
 10
8.50810292757211
 20
-247.21959445277025
 30
899.0
 10
9.089497144730053
 20
-248.2850326313059
 30
899.0
 10
9.705055129181199
 20
-249.3314517023109
 30
899.0
 10
10.357394244818774
 20
-250.35523322103577
 30
899.0
 10
11.049352241757335
 20
-251.35200029629289
 30
899.0
 10
12.600266793732892
 20
-253.38792080036512
 30
899.0
 10
13.469026810655201
 20
-254.41927049048005
 30
899.0
 10
14.394689780034724
 20
-255.40344058742485
 30
899.0
 10
15.380726400571405
 20
-256.3302825067761
 30
899.0
 10
16.42936955784826
 20
-257.1871639590832
 30
899.0
 10
17.540927279995742
 20
-257.95985001839455
 30
899.0
 10
18.712858642757524
 20
-258.63366151852654
 30
899.0
 10
20.075019253502145
 20
-259.25977643218425
 30
899.0
 10
20.213003127990177
 20
-259.3214927063898
 30
899.0
 10
20.35131284478425
 20
-259.3816534741065
 30
899.0
 10
20.48994601407964
 20
-259.44026014721555
 30
899.0
 10
20.62890024607138
 20
-259.49731413759827
 30
899.0
 10
20.768173150954258
 20
-259.552816857136
 30
899.0
 10
20.90776233892279
 20
-259.60676971771034
 30
899.0
 10
21.28082256379153
 20
-259.7465093296425
 30
899.0
 10
21.514882908432323
 20
-259.82952888008896
 30
899.0
 10
21.74980035031752
 20
-259.9083224960617
 30
899.0
 10
21.98555135959817
 20
-259.9828328026346
 30
899.0
 10
22.222125665840586
 20
-260.05293591488146
 30
899.0
 10
22.459514309254192
 20
-260.1184959162733
 30
899.0
 10
22.697695057659015
 20
-260.1793932370273
 30
899.0
 10
23.175540813365306
 20
-260.2916619182722
 30
899.0
 10
23.41522409569218
 20
-260.34303109492276
 30
899.0
 10
23.655642571273457
 20
-260.3895210497404
 30
899.0
 10
23.896773775208292
 20
-260.4310183701049
 30
899.0
 10
24.13859524259499
 20
-260.4674096433961
 30
899.0
 10
24.38108450853101
 20
-260.49858145699375
 30
899.0
 10
24.624219108112968
 20
-260.5244203982776
 30
899.0
 10
25.1019717205276
 20
-260.5643889986739
 30
899.0
 10
25.336507010226057
 20
-260.5789433397099
 30
899.0
 10
25.571410869384792
 20
-260.58836561147825
 30
899.0
 10
25.80651659949939
 20
-260.5925642508241
 30
899.0
 10
26.04166235035823
 20
-260.59146659744283
 30
899.0
 10
26.276691072514634
 20
-260.58501877888483
 30
899.0
 10
26.51145045342284
 20
-260.57318549360184
 30
899.0
 10
26.74579283907945
 20
-260.5559497048191
 30
899.0
  0
SPLINE
  5
83
330
17
100
AcDbEntity
  8
0
100
AcDbSpline
 70
0
 71
8
 72
417
 73
408
 74
0
 40
0.0
 40
0.0
 40
0.0
 40
0.0
 40
0.0
 40
0.0
 40
0.0
 40
0.0
 40
0.0
 40
0.002268526057807098
 40
0.002268526057807098
 40
0.002268526057807098
 40
0.002268526057807098
 40
0.002268526057807098
 40
0.002268526057807098
 40
0.002268526057807098
 40
0.004638383103567095
 40
0.004638383103567095
 40
0.004638383103567095
 40
0.004638383103567095
 40
0.004638383103567095
 40
0.004638383103567095
 40
0.004638383103567095
 40
0.007245225853989845
 40
0.007245225853989845
 40
0.007245225853989845
 40
0.007245225853989845
 40
0.007245225853989845
 40
0.007245225853989845
 40
0.007245225853989845
 40
0.008904125786071405
 40
0.008904125786071405
 40
0.008904125786071405
 40
0.008904125786071405
 40
0.008904125786071405
 40
0.008904125786071405
 40
0.008904125786071405
 40
0.01127398283186051
 40
0.01127398283186051
 40
0.01127398283186051
 40
0.01127398283186051
 40
0.01127398283186051
 40
0.01127398283186051
 40
0.01127398283186051
 40
0.013880825582212765
 40
0.013880825582212765
 40
0.013880825582212765
 40
0.013880825582212765
 40
0.013880825582212765
 40
0.013880825582212765
 40
0.013880825582212765
 40
0.018487932986344206
 40
0.018487932986344206
 40
0.018487932986344206
 40
0.018487932986344206
 40
0.018487932986344206
 40
0.018487932986344206
 40
0.018487932986344206
 40
0.02612547904608563
 40
0.02612547904608563
 40
0.02612547904608563
 40
0.02612547904608563
 40
0.02612547904608563
 40
0.02612547904608563
 40
0.02612547904608563
 40
0.04237706070161998
 40
0.04237706070161998
 40
0.04237706070161998
 40
0.04237706070161998
 40
0.04237706070161998
 40
0.04237706070161998
 40
0.04237706070161998
 40
0.053319526511625526
 40
0.053319526511625526
 40
0.053319526511625526
 40
0.053319526511625526
 40
0.053319526511625526
 40
0.053319526511625526
 40
0.053319526511625526
 40
0.05906896853958421
 40
0.05906896853958421
 40
0.05906896853958421
 40
0.05906896853958421
 40
0.05906896853958421
 40
0.05906896853958421
 40
0.05906896853958421
 40
0.06610589895964104
 40
0.06610589895964104
 40
0.06610589895964104
 40
0.06610589895964104
 40
0.06610589895964104
 40
0.06610589895964104
 40
0.06610589895964104
 40
0.10043901295559554
 40
0.10043901295559554
 40
0.10043901295559554
 40
0.10043901295559554
 40
0.10043901295559554
 40
0.10043901295559554
 40
0.10043901295559554
 40
0.18145509992668463
 40
0.18145509992668463
 40
0.18145509992668463
 40
0.18145509992668463
 40
0.18145509992668463
 40
0.18145509992668463
 40
0.18145509992668463
 40
0.24512277885173595
 40
0.24512277885173595
 40
0.24512277885173595
 40
0.24512277885173595
 40
0.24512277885173595
 40
0.24512277885173595
 40
0.24512277885173595
 40
0.3088665629534304
 40
0.3088665629534304
 40
0.3088665629534304
 40
0.3088665629534304
 40
0.3088665629534304
 40
0.3088665629534304
 40
0.3088665629534304
 40
0.3581646665403786
 40
0.3581646665403786
 40
0.3581646665403786
 40
0.3581646665403786
 40
0.3581646665403786
 40
0.3581646665403786
 40
0.3581646665403786
 40
0.4006618466500356
 40
0.4006618466500356
 40
0.4006618466500356
 40
0.4006618466500356
 40
0.4006618466500356
 40
0.4006618466500356
 40
0.4006618466500356
 40
0.4295810894302655
 40
0.4295810894302655
 40
0.4295810894302655
 40
0.4295810894302655
 40
0.4295810894302655
 40
0.4295810894302655
 40
0.4295810894302655
 40
0.4408994756005437
 40
0.4408994756005437
 40
0.4408994756005437
 40
0.4408994756005437
 40
0.4408994756005437
 40
0.4408994756005437
 40
0.4408994756005437
 40
0.45183803324863464
 40
0.45183803324863464
 40
0.45183803324863464
 40
0.45183803324863464
 40
0.45183803324863464
 40
0.45183803324863464
 40
0.45183803324863464
 40
0.4644935309949411
 40
0.4644935309949411
 40
0.4644935309949411
 40
0.4644935309949411
 40
0.4644935309949411
 40
0.4644935309949411
 40
0.4644935309949411
 40
0.4709711436810497
 40
0.4709711436810497
 40
0.4709711436810497
 40
0.4709711436810497
 40
0.4709711436810497
 40
0.4709711436810497
 40
0.4709711436810497
 40
0.4745351914655713
 40
0.4745351914655713
 40
0.4745351914655713
 40
0.4745351914655713
 40
0.4745351914655713
 40
0.4745351914655713
 40
0.4745351914655713
 40
0.47809923925007897
 40
0.47809923925007897
 40
0.47809923925007897
 40
0.47809923925007897
 40
0.47809923925007897
 40
0.47809923925007897
 40
0.47809923925007897
 40
0.47988126314235374
 40
0.47988126314235374
 40
0.47988126314235374
 40
0.47988126314235374
 40
0.47988126314235374
 40
0.47988126314235374
 40
0.47988126314235374
 40
0.4828513029628721
 40
0.4828513029628721
 40
0.4828513029628721
 40
0.4828513029628721
 40
0.4828513029628721
 40
0.4828513029628721
 40
0.4828513029628721
 40
0.4858213427834031
 40
0.4858213427834031
 40
0.4858213427834031
 40
0.4858213427834031
 40
0.4858213427834031
 40
0.4858213427834031
 40
0.4858213427834031
 40
0.48897625166158976
 40
0.48897625166158976
 40
0.48897625166158976
 40
0.48897625166158976
 40
0.48897625166158976
 40
0.48897625166158976
 40
0.48897625166158976
 40
0.49197550337077967
 40
0.49197550337077967
 40
0.49197550337077967
 40
0.49197550337077967
 40
0.49197550337077967
 40
0.49197550337077967
 40
0.49197550337077967
 40
0.4949463419443085
 40
0.4949463419443085
 40
0.4949463419443085
 40
0.4949463419443085
 40
0.4949463419443085
 40
0.4949463419443085
 40
0.4949463419443085
 40
0.4979171805178234
 40
0.4979171805178234
 40
0.4979171805178234
 40
0.4979171805178234
 40
0.4979171805178234
 40
0.4979171805178234
 40
0.4979171805178234
 40
0.5003928793290923
 40
0.5003928793290923
 40
0.5003928793290923
 40
0.5003928793290923
 40
0.5003928793290923
 40
0.5003928793290923
 40
0.5003928793290923
 40
0.5028685781403665
 40
0.5028685781403665
 40
0.5028685781403665
 40
0.5028685781403665
 40
0.5028685781403665
 40
0.5028685781403665
 40
0.5028685781403665
 40
0.507681505091478
 40
0.507681505091478
 40
0.507681505091478
 40
0.507681505091478
 40
0.507681505091478
 40
0.507681505091478
 40
0.507681505091478
 40
0.515660342682551
 40
0.515660342682551
 40
0.515660342682551
 40
0.515660342682551
 40
0.515660342682551
 40
0.515660342682551
 40
0.515660342682551
 40
0.5326382195741892
 40
0.5326382195741892
 40
0.5326382195741892
 40
0.5326382195741892
 40
0.5326382195741892
 40
0.5326382195741892
 40
0.5326382195741892
 40
0.5440697256479051
 40
0.5440697256479051
 40
0.5440697256479051
 40
0.5440697256479051
 40
0.5440697256479051
 40
0.5440697256479051
 40
0.5440697256479051
 40
0.5500761221613525
 40
0.5500761221613525
 40
0.5500761221613525
 40
0.5500761221613525
 40
0.5500761221613525
 40
0.5500761221613525
 40
0.5500761221613525
 40
0.5574275455832435
 40
0.5574275455832435
 40
0.5574275455832435
 40
0.5574275455832435
 40
0.5574275455832435
 40
0.5574275455832435
 40
0.5574275455832435
 40
0.5918874540655356
 40
0.5918874540655356
 40
0.5918874540655356
 40
0.5918874540655356
 40
0.5918874540655356
 40
0.5918874540655356
 40
0.5918874540655356
 40
0.677825196194886
 40
0.677825196194886
 40
0.677825196194886
 40
0.677825196194886
 40
0.677825196194886
 40
0.677825196194886
 40
0.677825196194886
 40
0.74414477906614
 40
0.74414477906614
 40
0.74414477906614
 40
0.74414477906614
 40
0.74414477906614
 40
0.74414477906614
 40
0.74414477906614
 40
0.8104133220639658
 40
0.8104133220639658
 40
0.8104133220639658
 40
0.8104133220639658
 40
0.8104133220639658
 40
0.8104133220639658
 40
0.8104133220639658
 40
0.8615912053811922
 40
0.8615912053811922
 40
0.8615912053811922
 40
0.8615912053811922
 40
0.8615912053811922
 40
0.8615912053811922
 40
0.8615912053811922
 40
0.9056697902013066
 40
0.9056697902013066
 40
0.9056697902013066
 40
0.9056697902013066
 40
0.9056697902013066
 40
0.9056697902013066
 40
0.9056697902013066
 40
0.9356497091703215
 40
0.9356497091703215
 40
0.9356497091703215
 40
0.9356497091703215
 40
0.9356497091703215
 40
0.9356497091703215
 40
0.9356497091703215
 40
0.9473817646271224
 40
0.9473817646271224
 40
0.9473817646271224
 40
0.9473817646271224
 40
0.9473817646271224
 40
0.9473817646271224
 40
0.9473817646271224
 40
0.9587201213203769
 40
0.9587201213203769
 40
0.9587201213203769
 40
0.9587201213203769
 40
0.9587201213203769
 40
0.9587201213203769
 40
0.9587201213203769
 40
0.9718381968947396
 40
0.9718381968947396
 40
0.9718381968947396
 40
0.9718381968947396
 40
0.9718381968947396
 40
0.9718381968947396
 40
0.9718381968947396
 40
0.9785526158340867
 40
0.9785526158340867
 40
0.9785526158340867
 40
0.9785526158340867
 40
0.9785526158340867
 40
0.9785526158340867
 40
0.9785526158340867
 40
0.982246978945109
 40
0.982246978945109
 40
0.982246978945109
 40
0.982246978945109
 40
0.982246978945109
 40
0.982246978945109
 40
0.982246978945109
 40
0.98594134205613
 40
0.98594134205613
 40
0.98594134205613
 40
0.98594134205613
 40
0.98594134205613
 40
0.98594134205613
 40
0.98594134205613
 40
0.9877885236116398
 40
0.9877885236116398
 40
0.9877885236116398
 40
0.9877885236116398
 40
0.9877885236116398
 40
0.9877885236116398
 40
0.9877885236116398
 40
0.9908671595374914
 40
0.9908671595374914
 40
0.9908671595374914
 40
0.9908671595374914
 40
0.9908671595374914
 40
0.9908671595374914
 40
0.9908671595374914
 40
0.993945795463342
 40
0.993945795463342
 40
0.993945795463342
 40
0.993945795463342
 40
0.993945795463342
 40
0.993945795463342
 40
0.993945795463342
 40
0.9961008406114397
 40
0.9961008406114397
 40
0.9961008406114397
 40
0.9961008406114397
 40
0.9961008406114397
 40
0.9961008406114397
 40
0.9961008406114397
 40
1.0
 40
1.0
 40
1.0
 40
1.0
 40
1.0
 40
1.0
 40
1.0
 40
1.0
 40
1.0
 10
3.0489263525219634
 20
232.54453273220201
 30
899.0
 10
3.048782942383952
 20
232.54467613898703
 30
899.0
 10
3.048811368867673
 20
232.54447422411954
 30
899.0
 10
3.048901711730943
 20
232.54424221925456
 30
899.0
 10
3.0489792187740505
 20
232.5441357232514
 30
899.0
 10
3.0490043058397647
 20
232.54415070217405
 30
899.0
 10
3.0489725568133252
 20
232.544123489291
 30
899.0
 10
3.0489147236224476
 20
232.54373078507538
 30
899.0
 10
3.0488779249413036
 20
232.5411930903796
 30
899.0
 10
3.0488500329087462
 20
232.53926961212244
 30
899.0
 10
3.0488104860857588
 20
232.53654240126025
 30
899.0
 10
3.048756720418442
 20
232.53283463661984
 30
899.0
 10
3.0486861718529035
 20
232.52796949702807
 30
899.0
 10
3.048596276335246
 20
232.52177016131185
 30
899.0
 10
3.0484844698115774
 20
232.51405980829813
 30
899.0
 10
3.048198278486068
 20
232.4943236061809
 30
899.0
 10
3.04801875392165
 20
232.48194331099884
 30
899.0
 10
3.047806201779009
 20
232.46728538228604
 30
899.0
 10
3.0475572093024095
 20
232.45011447106057
 30
899.0
 10
3.0472683637361175
 20
232.43019522834115
 30
899.0
 10
3.0469362523243975
 20
232.40729230514637
 30
899.0
 10
3.046557462311519
 20
232.3811703524952
 30
899.0
 10
3.0458556564337234
 20
232.33277271980478
 30
899.0
 10
3.045562446996035
 20
232.31255253767807
 30
899.0
 10
3.0452480731582074
 20
232.2908728253644
 30
899.0
 10
3.0449116554497584
 20
232.26767293320162
 30
899.0
 10
3.044552314400203
 20
232.2428922115274
 30
899.0
 10
3.044169170539055
 20
232.21647001067933
 30
899.0
 10
3.0437613443958242
 20
232.18834568099487
 30
899.0
 10
3.042708830934595
 20
232.11576270397813
 30
899.0
 10
3.042037538527189
 20
232.06946932800417
 30
899.0
 10
3.041311515223913
 20
232.01940162371673
 30
899.0
 10
3.0405281969708744
 20
231.96538276994286
 30
899.0
 10
3.0396850197141805
 20
231.9072359455096
 30
899.0
 10
3.0387794193999333
 20
231.84478432924365
 30
899.0
 10
3.037808831974237
 20
231.77785109997174
 30
899.0
 10
3.0356287409330434
 20
231.6275086067245
 30
899.0
 10
3.034405051572827
 20
231.54312107157165
 30
899.0
 10
3.0330962125468077
 20
231.45286148208072
 30
899.0
 10
3.031698811099254
 20
231.35649448927037
 30
899.0
 10
3.030209434474432
 20
231.25378474415925
 30
899.0
 10
3.0286246699166077
 20
231.14449689776595
 30
899.0
 10
3.0269411046700454
 20
231.02839560110897
 30
899.0
 10
3.021999295862301
 20
230.68760072453333
 30
899.0
 10
3.01884081502376
 20
230.46978693825363
 30
899.0
 10
3.0156807285410734
 20
230.25186242419989
 30
899.0
 10
3.012519497661671
 20
230.0338589908011
 30
899.0
 10
3.0093574327208925
 20
229.81579803922307
 30
899.0
 10
3.0061947336430244
 20
229.59769335651322
 30
899.0
 10
3.003031471010007
 20
229.379549810196
 30
899.0
 10
2.9946227228345736
 20
228.7996693639687
 30
899.0
 10
2.9893765402251695
 20
228.43788439324206
 30
899.0
 10
2.9841294573879855
 20
228.07603734138235
 30
899.0
 10
2.978881699137853
 20
227.71414371200615
 30
899.0
 10
2.973633421876902
 20
227.35221429083063
 30
899.0
 10
2.96838473132003
 20
226.9902563681025
 30
899.0
 10
2.963135681528247
 20
226.62827367198796
 30
899.0
 10
2.946716352550294
 20
225.49597102528668
 30
899.0
 10
2.9355450644212375
 20
224.72558149642165
 30
899.0
 10
2.9243728639150524
 20
223.9551290486047
 30
899.0
 10
2.9132000014159414
 20
223.1846309487118
 30
899.0
 10
2.9020266468489644
 20
222.41409891504986
 30
899.0
 10
2.8908529113666526
 20
221.64354061287708
 30
899.0
 10
2.879678841232551
 20
220.87295923258432
 30
899.0
 10
2.860980528856225
 20
219.58349432077287
 30
899.0
 10
2.853217560377724
 20
219.0481478540404
 30
899.0
 10
2.845211105611814
 20
218.4960101915143
 30
899.0
 10
2.836956733873364
 20
217.92677578620746
 30
899.0
 10
2.8284500144772426
 20
217.3401390911326
 30
899.0
 10
2.819686516738319
 20
216.73579455930283
 30
899.0
 10
2.8106618099714664
 20
216.11343664373092
 30
899.0
 10
2.796490085799058
 20
215.13613234522492
 30
899.0
 10
2.7916087170904533
 20
214.7995031225103
 30
899.0
 10
2.7867273081414132
 20
214.46287223296594
 30
899.0
 10
2.7818458372086834
 20
214.12623977321047
 30
899.0
 10
2.7769643100300825
 20
213.78960583280139
 30
899.0
 10
2.772082759824507
 20
213.4529704942344
 30
899.0
 10
2.76720124729193
 20
213.11633383294395
 30
899.0
 10
2.756345371568518
 20
212.36767374583027
 30
899.0
 10
2.750277720443991
 20
211.94920046562947
 30
899.0
 10
2.744118276429473
 20
211.52433648241325
 30
899.0
 10
2.7378684087146117
 20
211.09314220189373
 30
899.0
 10
2.7315294864890465
 20
210.65567802978254
 30
899.0
 10
2.7251028789424137
 20
210.21200437179056
 30
899.0
 10
2.718589955264341
 20
209.7621816336285
 30
899.0
 10
2.679801139075672
 20
207.08188294314033
 30
899.0
 10
2.6476851563999793
 20
204.85746108098425
 30
899.0
 10
2.6156841210048256
 20
202.63301447548974
 30
899.0
 10
2.583817633116722
 20
200.4085485501692
 30
899.0
 10
2.552100105119985
 20
198.18406703558261
 30
899.0
 10
2.5205436706251545
 20
195.95957250192924
 30
899.0
 10
2.489157057184716
 20
193.73506618192798
 30
899.0
 10
2.3843060344745446
 20
186.2613389358374
 30
899.0
 10
2.311655691668616
 20
181.01207189632186
 30
899.0
 10
2.2401043862231056
 20
175.7627620927766
 30
899.0
 10
2.169723443669066
 20
170.51341620948222
 30
899.0
 10
2.1005918880378998
 20
165.2640394662269
 30
899.0
 10
2.0327882524381824
 20
160.0146344066751
 30
899.0
 10
1.9664027995376663
 20
154.7652024805314
 30
899.0
 10
1.85056393317229
 20
145.39037952277494
 30
899.0
 10
1.8005288519417169
 20
141.26499955579655
 30
899.0
 10
1.7514832671181209
 20
137.1396042837153
 30
899.0
 10
1.7034826504920157
 20
133.01419410063752
 30
899.0
 10
1.6565889842888024
 20
128.8887693009426
 30
899.0
 10
1.6108725440328697
 20
124.76333009727848
 30
899.0
 10
1.5664144110701905
 20
120.63787661873407
 30
899.0
 10
1.4801534932186238
 20
112.38200978071484
 30
899.0
 10
1.4383566777471382
 20
108.25159646054648
 30
899.0
 10
1.3978225667291995
 20
104.12117097758393
 30
899.0
 10
1.3584680063422359
 20
99.99073517657915
 30
899.0
 10
1.3202211676637594
 20
95.8602907521452
 30
899.0
 10
1.2830193237882663
 20
91.72983930276538
 30
899.0
 10
1.2468066269441351
 20
87.599382384802
 30
899.0
 10
1.1842511416639032
 20
80.27450993638715
 30
899.0
 10
1.1575314871347433
 20
77.08009604555104
 30
899.0
 10
1.1313494771493555
 20
73.8856806085901
 30
899.0
 10
1.105683546926269
 20
70.69126441837012
 30
899.0
 10
1.080513708467962
 20
67.49684835294175
 30
899.0
 10
1.0558211545638028
 20
64.3024334093026
 30
899.0
 10
1.0315877701042013
 20
61.10802076400898
 30
899.0
 10
0.987285588670779
 20
55.15988787060559
 30
899.0
 10
0.9671034699054943
 20
52.40616688948725
 30
899.0
 10
0.9472375982336902
 20
49.65244966354259
 30
899.0
 10
0.9276765366163724
 20
46.898737259534556
 30
899.0
 10
0.9084082509967137
 20
44.14503119878115
 30
899.0
 10
0.8894199690693991
 20
41.391333489289096
 30
899.0
 10
0.870697064179502
 20
38.6376468352521
 30
899.0
 10
0.8396453451527726
 20
34.01010754615849
 30
899.0
 10
0.8271849087352302
 20
32.13624763305917
 30
899.0
 10
0.8148314647457375
 20
30.262396190953694
 30
899.0
 10
0.8025779404883282
 20
28.388554575020635
 30
899.0
 10
0.7904141357165289
 20
26.514725466065556
 30
899.0
 10
0.7783276131854456
 20
24.640912701610397
 30
899.0
 10
0.7663010820395801
 20
22.76712183123022
 30
899.0
 10
0.7496019437323831
 20
20.16001286500699
 30
899.0
 10
0.7450304442364208
 20
19.44572829278374
 30
899.0
 10
0.7405837562893152
 20
18.75054844207716
 30
899.0
 10
0.7362520495719389
 20
18.074399573003348
 30
899.0
 10
0.7320478825775414
 20
17.417093036916526
 30
899.0
 10
0.7279582191585217
 20
16.77832833000221
 30
899.0
 10
0.7239860443658239
 20
16.157690514211765
 30
899.0
 10
0.7163960369177921
 20
14.971849853473644
 30
899.0
 10
0.7126658401159532
 20
14.38905476790126
 30
899.0
 10
0.708935690226941
 20
13.806267011850851
 30
899.0
 10
0.7052055929555391
 20
13.223487476622894
 30
899.0
 10
0.7014755556908278
 20
12.64071731666666
 30
899.0
 10
0.6977455877855433
 20
12.057957993225454
 30
899.0
 10
0.6940157010571758
 20
11.475211352627992
 30
899.0
 10
0.6859706838262243
 20
10.21828128844545
 30
899.0
 10
0.6816556084297921
 20
9.54410647450107
 30
899.0
 10
0.6773406868203862
 20
8.869955687734251
 30
899.0
 10
0.673025940293219
 20
8.195832255375308
 30
899.0
 10
0.6687114198605224
 20
7.5217441473587705
 30
899.0
 10
0.6643972034784982
 20
6.847703543265318
 30
899.0
 10
0.6600834059838014
 20
6.173728384965816
 30
899.0
 10
0.6535625634535145
 20
5.154930937449535
 30
899.0
 10
0.6513550954790964
 20
4.810042569517691
 30
899.0
 10
0.6491478261099743
 20
4.465185231098918
 30
899.0
 10
0.6469407821415132
 20
4.12036310862274
 30
899.0
 10
0.6447340308390025
 20
3.7755867114227897
 30
899.0
 10
0.6425276755003073
 20
3.4308721784567453
 30
899.0
 10
0.6403218687198227
 20
3.086243350627157
 30
899.0
 10
0.63690367462248
 20
2.5521946590181845
 30
899.0
 10
0.6357543721179393
 20
2.372630982604952
 30
899.0
 10
0.6346670100151405
 20
2.2027446941825826
 30
899.0
 10
0.6336396247855002
 20
2.04222901776318
 30
899.0
 10
0.6326702529004335
 20
1.8907771773586552
 30
899.0
 10
0.6317569308313544
 20
1.748082396980726
 30
899.0
 10
0.6308976950496752
 20
1.6138379006409165
 30
899.0
 10
0.6292834690039422
 20
1.3616359240606928
 30
899.0
 10
0.6285284787398917
 20
1.2436784438206863
 30
899.0
 10
0.6278236477060706
 20
1.1335576956424902
 30
899.0
 10
0.6271670123738937
 20
1.030966903538005
 30
899.0
 10
0.6265566092147761
 20
0.9355992915190764
 30
899.0
 10
0.6259904747001318
 20
0.8471480835974988
 30
899.0
 10
0.6254666453013753
 20
0.7653065037850125
 30
899.0
 10
0.6247414135841897
 20
0.6519984122470106
 30
899.0
 10
0.6245097550752894
 20
0.6158047614316676
 30
899.0
 10
0.6242879365221423
 20
0.581148476648173
 30
899.0
 10
0.6240757124836729
 20
0.5479912108976537
 30
899.0
 10
0.6238728375188074
 20
0.5162946171814663
 30
899.0
 10
0.6236790661864734
 20
0.4860203485011973
 30
899.0
 10
0.6234941530456
 20
0.457130057858663
 30
899.0
 10
0.6230240186709736
 20
0.38367763225036805
 30
899.0
 10
0.6227541089934604
 20
0.34150773024260717
 30
899.0
 10
0.6225069873213122
 20
0.30289815983182466
 30
899.0
 10
0.6222815173532631
 20
0.26767138861730516
 30
899.0
 10
0.6220765627880473
 20
0.23564988419841934
 30
899.0
 10
0.6218909873244008
 20
0.20665611417462468
 30
899.0
 10
0.6217236546610597
 20
0.18051254614546505
 30
899.0
 10
0.6214232023324605
 20
0.13357074927557733
 30
899.0
 10
0.6212900826672012
 20
0.11277252043462992
 30
899.0
 10
0.6211729331997172
 20
0.09446942878715402
 30
899.0
 10
0.6210706176287442
 20
0.07848394193257778
 30
899.0
 10
0.620981999653017
 20
0.06463852747033223
 30
899.0
 10
0.620905942971271
 20
0.05275565299985124
 30
899.0
 10
0.6208413112822416
 20
0.04265778612057148
 30
899.0
 10
0.6207292427267985
 20
0.02514852137420931
 30
899.0
 10
0.6206774094334271
 20
0.017050238558326214
 30
899.0
 10
0.6206350075441871
 20
0.010425490873217313
 30
899.0
 10
0.620604111814377
 20
0.005598432011311161
 30
899.0
 10
0.6205846666380479
 20
0.002560374281834754
 30
899.0
 10
0.6205745376707585
 20
0.0009778539424587507
 30
899.0
 10
0.6205703098451082
 20
0.0003173107690344068
 30
899.0
 10
0.6205674828035557
 20
-0.00012437797044739796
 30
899.0
 10
0.6205692812566197
 20
4.958558238143951e-05
 30
899.0
 10
0.6205666748255558
 20
0.00019794291571173517
 30
899.0
 10
0.6205682158470112
 20
-6.68311951699252e-05
 30
899.0
 10
0.6205764467210013
 20
-0.001191996678983287
 30
899.0
 10
0.6205911370037218
 20
-0.0036004401326366064
 30
899.0
 10
0.6206164879722691
 20
-0.0075320468807831276
 30
899.0
 10
0.6206849694301364
 20
-0.018231390432390523
 30
899.0
 10
0.6207297573548969
 20
-0.025228925369570936
 30
899.0
 10
0.6207872189641636
 20
-0.03420655986685973
 30
899.0
 10
0.620859317786522
 20
-0.04547106991241492
 30
899.0
 10
0.6209480173505579
 20
-0.05932923149441853
 30
899.0
 10
0.6210552811848568
 20
-0.07608782060107648
 30
899.0
 10
0.6211830728180041
 20
-0.09605361322061867
 30
899.0
 10
0.6214836387391672
 20
-0.14301315746187981
 30
899.0
 10
0.6216564130271828
 20
-0.17000690908355615
 30
899.0
 10
0.6218536421712181
 20
-0.20082141619447413
 30
899.0
 10
0.6220772896998579
 20
-0.23576345478279562
 30
899.0
 10
0.6223293191416879
 20
-0.27513980083669765
 30
899.0
 10
0.6226116940252935
 20
-0.31925723034437276
 30
899.0
 10
0.6229263778792609
 20
-0.3684225192940289
 30
899.0
 10
0.6235661311929388
 20
-0.4683757139905537
 30
899.0
 10
0.6238807285001916
 20
-0.5175274811335007
 30
899.0
 10
0.6242202624551998
 20
-0.5705752775034774
 30
899.0
 10
0.6245858693592289
 20
-0.6276966355011626
 30
899.0
 10
0.6249786855135439
 20
-0.6890690875271648
 30
899.0
 10
0.6253998472194093
 20
-0.7548701659820247
 30
899.0
 10
0.6258504907780894
 20
-0.8252774032662132
 30
899.0
 10
0.6268130142036066
 20
-0.9756592602942076
 30
899.0
 10
0.6273248940704448
 20
-1.0556338800381357
 30
899.0
 10
0.6278685283926269
 20
-1.1405697234125438
 30
899.0
 10
0.6284450534714183
 20
-1.2306443228180381
 30
899.0
 10
0.6290556056080838
 20
-1.326035210655204
 30
899.0
 10
0.629701321103888
 20
-1.4269199193246058
 30
899.0
 10
0.6303833362600954
 20
-1.5334759812267864
 30
899.0
 10
0.6325014493070635
 20
-1.8644037955052504
 30
899.0
 10
0.6339011889012911
 20
-2.083095033512258
 30
899.0
 10
0.6353016345229809
 20
-2.3018965791878827
 30
899.0
 10
0.6367025833498214
 20
-2.520776744178278
 30
899.0
 10
0.6381038989162183
 20
-2.739714207488511
 30
899.0
 10
0.6395054933087647
 20
-2.9586952337768793
 30
899.0
 10
0.6409073355014967
 20
-3.1777149756518526
 30
899.0
 10
0.6446338055991188
 20
-3.7599278118106483
 30
899.0
 10
0.6469587400112461
 20
-4.123168793891132
 30
899.0
 10
0.64928407025638
 20
-4.486471619781948
 30
899.0
 10
0.6516096974844874
 20
-4.849820845410022
 30
899.0
 10
0.6539355529220343
 20
-5.213205725817396
 30
899.0
 10
0.656261590083401
 20
-5.576618998243163
 30
899.0
 10
0.6585877852022994
 20
-5.940056949477285
 30
899.0
 10
0.6658642757013445
 20
-7.076914635101716
 30
899.0
 10
0.6708150147165908
 20
-7.850403681742982
 30
899.0
 10
0.6757661549062646
 20
-8.623955406710763
 30
899.0
 10
0.68071758617181
 20
-9.397552608521693
 30
899.0
 10
0.6856692337986315
 20
-10.171183613988848
 30
899.0
 10
0.6906210489146263
 20
-10.94484078748011
 30
899.0
 10
0.6955730111743292
 20
-11.71852095027246
 30
899.0
 10
0.7038594599156872
 20
-13.013171570565616
 30
899.0
 10
0.7072997428666002
 20
-13.550671360331284
 30
899.0
 10
0.7108479306384167
 20
-14.105029885084111
 30
899.0
 10
0.7145059867597221
 20
-14.676553920812253
 30
899.0
 10
0.7182758747591016
 20
-15.265550243503892
 30
899.0
 10
0.722159558165141
 20
-15.872325629147225
 30
899.0
 10
0.726159000506426
 20
-16.49718685373047
 30
899.0
 10
0.7324394257053405
 20
-17.47842219751506
 30
899.0
 10
0.7346027319021499
 20
-17.816405464781212
 30
899.0
 10
0.736766032723166
 20
-18.154390392824816
 30
899.0
 10
0.7389293045038675
 20
-18.492376885883953
 30
899.0
 10
0.7410925510940168
 20
-18.830364854650277
 30
899.0
 10
0.7432558038576592
 20
-19.168354216269016
 30
899.0
 10
0.7454191216731226
 20
-19.50634489433898
 30
899.0
 10
0.7502305311004953
 20
-20.258016093192566
 30
899.0
 10
0.7529203082364524
 20
-20.678172043532832
 30
899.0
 10
0.7556520223087086
 20
-21.10474353236906
 30
899.0
 10
0.7584257732850833
 20
-21.537669422136915
 30
899.0
 10
0.761241661133395
 20
-21.976888575271982
 30
899.0
 10
0.764099785821462
 20
-22.422339854209827
 30
899.0
 10
0.7670002473171017
 20
-22.873962121385972
 30
899.0
 10
0.7837380257456803
 20
-25.47732046497379
 30
899.0
 10
0.7976024716421
 20
-27.622977061987953
 30
899.0
 10
0.8115716679964766
 20
-29.768654542154103
 30
899.0
 10
0.8256634623345029
 20
-31.914347586231628
 30
899.0
 10
0.8398909913421334
 20
-34.06005249912711
 30
899.0
 10
0.8542652536963691
 20
-36.20576668138264
 30
899.0
 10
0.8687943174813078
 20
-38.351488767473256
 30
899.0
 10
0.9201242865052901
 20
-45.84833886473521
 30
899.0
 10
0.9577729613005763
 20
-51.199499155519845
 30
899.0
 10
0.9965469889799117
 20
-56.55068041600245
 30
899.0
 10
1.0365208524303524
 20
-61.90187399645822
 30
899.0
 10
1.0777784125846441
 20
-67.25307250382554
 30
899.0
 10
1.1204023592491854
 20
-72.60427158656924
 30
899.0
 10
1.1644885589292646
 20
-77.95546775626968
 30
899.0
 10
1.2453819724514341
 20
-87.43626193734455
 30
899.0
 10
1.2815534131275839
 20
-91.56586114867567
 30
899.0
 10
1.3187115812182926
 20
-95.69545493861263
 30
899.0
 10
1.3569125609463637
 20
-99.82504175373904
 30
899.0
 10
1.3962191005105262
 20
-103.9546199992952
 30
899.0
 10
1.4367024545325664
 20
-108.08418798342719
 30
899.0
 10
1.4784450015145447
 20
-112.21374386537008
 30
899.0
 10
1.5646091021787703
 20
-120.46964923435874
 30
899.0
 10
1.6090314496166442
 20
-124.5959986076354
 30
899.0
 10
1.6547152601446595
 20
-128.722333703218
 30
899.0
 10
1.7015790652518246
 20
-132.848654393447
 30
899.0
 10
1.7495522602537779
 20
-136.9749604677061
 30
899.0
 10
1.7985726486121993
 20
-141.1012516339262
 30
899.0
 10
1.8485846167110882
 20
-145.2275275010687
 30
899.0
 10
1.9388881808390395
 20
-152.54041645260207
 30
899.0
 10
1.9787998535553368
 20
-155.72703585250463
 30
899.0
 10
2.019249833408509
 20
-158.91364551268288
 30
899.0
 10
2.0602168181952556
 20
-162.1002450852667
 30
899.0
 10
2.101681036182988
 20
-165.28683410347008
 30
899.0
 10
2.1436238574279645
 20
-168.47341195582396
 30
899.0
 10
2.1860273075678345
 20
-171.65997783530096
 30
899.0
 10
2.2657761206099463
 20
-177.59105095236941
 30
899.0
 10
2.303007173745778
 20
-180.33556132977142
 30
899.0
 10
2.340555146350517
 20
-183.08006128749082
 30
899.0
 10
2.37840867624117
 20
-185.82454999207854
 30
899.0
 10
2.416555774747507
 20
-188.5690261649294
 30
899.0
 10
2.454983686786506
 20
-191.31348805338476
 30
899.0
 10
2.49367776438159
 20
-194.05793324400284
 30
899.0
 10
2.5591026584536203
 20
-198.6689704892562
 30
899.0
 10
2.5857013481603395
 20
-200.5355726428172
 30
899.0
 10
2.612407205156576
 20
-202.40216403782864
 30
899.0
 10
2.6392131267139867
 20
-204.26874346146238
 30
899.0
 10
2.6661088383427067
 20
-206.13530843559292
 30
899.0
 10
2.6930817899651185
 20
-208.00185536753872
 30
899.0
 10
2.7201145145147065
 20
-209.868379048622
 30
899.0
 10
2.757759495304706
 20
-212.46528497395795
 30
899.0
 10
2.768076026333323
 20
-213.17670837318983
 30
899.0
 10
2.7781191601989423
 20
-213.86910261430853
 30
899.0
 10
2.7878805817916574
 20
-214.5425422409635
 30
899.0
 10
2.79737683978035
 20
-215.19721533079138
 30
899.0
 10
2.806601120334059
 20
-215.8334214311324
 30
899.0
 10
2.8155650721218297
 20
-216.45157328243153
 30
899.0
 10
2.832691855623805
 20
-217.63266310131542
 30
899.0
 10
2.841109014866734
 20
-218.2131235879328
 30
899.0
 10
2.849526067416333
 20
-218.79357671681097
 30
899.0
 10
2.8579430002983264
 20
-219.37402159322363
 30
899.0
 10
2.8663597967078625
 20
-219.95445705828192
 30
899.0
 10
2.874776435374197
 20
-220.53488164512189
 30
899.0
 10
2.883192889421129
 20
-221.11529350031856
 30
899.0
 10
2.901346409739978
 20
-222.3671886984461
 30
899.0
 10
2.911083350686206
 20
-223.0386633987212
 30
899.0
 10
2.920819941875679
 20
-223.71011397922243
 30
899.0
 10
2.9305561348773885
 20
-224.38153710007165
 30
899.0
 10
2.940291813675519
 20
-225.0529247606367
 30
899.0
 10
2.950026800976808
 20
-225.72426473449642
 30
899.0
 10
2.959760835614751
 20
-226.39553901119933
 30
899.0
 10
2.9744750548205316
 20
-227.4102546170087
 30
899.0
 10
2.9794562012623533
 20
-227.7537622784516
 30
899.0
 10
2.9844368960204073
 20
-228.09723879107472
 30
899.0
 10
2.98941707815295
 20
-228.44067995223926
 30
899.0
 10
2.9943965946825086
 20
-228.78407521237943
 30
899.0
 10
2.9993752106874148
 20
-229.127408370929
 30
899.0
 10
3.0043525791411136
 20
-229.47065549639296
 30
899.0
 10
3.012065674497139
 20
-230.0025626344747
 30
899.0
 10
3.0146590655763927
 20
-230.18140694576852
 30
899.0
 10
3.0171126886792505
 20
-230.3506126384679
 30
899.0
 10
3.0194309744908434
 20
-230.51048525955989
 30
899.0
 10
3.0216183536963035
 20
-230.66133035603173
 30
899.0
 10
3.0236792569807616
 20
-230.8034534748705
 30
899.0
 10
3.025618115029347
 20
-230.93716016306334
 30
899.0
 10
3.0292606020250363
 20
-231.18835177213163
 30
899.0
 10
3.0309642309721383
 20
-231.30583669300697
 30
899.0
 10
3.0325546760536315
 20
-231.41551627721066
 30
899.0
 10
3.034036367954643
 20
-231.51769607172994
 30
899.0
 10
3.0354137373603063
 20
-231.612681623552
 30
899.0
 10
3.0366912149557503
 20
-231.7007784796638
 30
899.0
 10
3.0378732314261057
 20
-231.7822921870525
 30
899.0
 10
3.0395097104717044
 20
-231.8951463455318
 30
899.0
 10
3.0400324458769123
 20
-231.93119499792425
 30
899.0
 10
3.0405329775077754
 20
-231.9657124432561
 30
899.0
 10
3.0410118591999296
 20
-231.9987368749008
 30
899.0
 10
3.0414696447890197
 20
-232.03030648623167
 30
899.0
 10
3.0419068881106863
 20
-232.06045947062213
 30
899.0
 10
3.04232414300057
 20
-232.0892340214456
 30
899.0
 10
3.0433849971172133
 20
-232.16239218312532
 30
899.0
 10
3.0439940459508357
 20
-232.20439314474845
 30
899.0
 10
3.0445516738490705
 20
-232.24284803811787
 30
899.0
 10
3.0450604448658147
 20
-232.27793368440692
 30
899.0
 10
3.0455229230549614
 20
-232.30982690478857
 30
899.0
 10
3.0459416724704074
 20
-232.33870452043604
 30
899.0
 10
3.046319257166047
 20
-232.36474335252234
 30
899.0
 10
3.0469972252255038
 20
-232.41149709191893
 30
899.0
 10
3.0472976085893224
 20
-232.4322119992292
 30
899.0
 10
3.0475619553411235
 20
-232.45044176532468
 30
899.0
 10
3.0477928295348042
 20
-232.46636321137828
 30
899.0
 10
3.0479927952242596
 20
-232.48015315856324
 30
899.0
 10
3.0481644164633828
 20
-232.49198842805265
 30
899.0
 10
3.0483102573060705
 20
-232.50204584101968
 30
899.0
 10
3.048518718956321
 20
-232.51642168296988
 30
899.0
 10
3.0485931800985786
 20
-232.52155663998107
 30
899.0
 10
3.048657144703478
 20
-232.52596773933348
 30
899.0
 10
3.048711492241503
 20
-232.5297156306896
 30
899.0
 10
3.0487571021831417
 20
-232.5328609637116
 30
899.0
 10
3.0487948539988796
 20
-232.53546438806202
 30
899.0
 10
3.0488256271592036
 20
-232.53758655340312
 30
899.0
 10
3.0488949441727717
 20
-232.5423667632416
 30
899.0
 10
3.049036408176687
 20
-232.54340010138557
 30
899.0
 10
3.0491143901088797
 20
-232.54353841278697
 30
899.0
 10
3.0490540853624433
 20
-232.54355295854705
 30
899.0
 10
3.0488661877610355
 20
-232.54383597190994
 30
899.0
 10
3.048646889558873
 20
-232.54440065826276
 30
899.0
 10
3.0485778814407354
 20
-232.5448811951357
 30
899.0
 10
3.0489263525219634
 20
-232.54453273220201
 30
899.0
  0
ENDSEC
  0
SECTION
  2
OBJECTS
  0
DICTIONARY
  5
A
330
0
100
AcDbDictionary
281
1
  3
ACAD_COLOR
350
B
  3
ACAD_GROUP
350
C
  3
ACAD_LAYOUT
350
D
  3
ACAD_MATERIAL
350
E
  3
ACAD_MLEADERSTYLE
350
F
  3
ACAD_MLINESTYLE
350
10
  3
ACAD_PLOTSETTINGS
350
11
  3
ACAD_PLOTSTYLENAME
350
12
  3
ACAD_SCALELIST
350
14
  3
ACAD_TABLESTYLE
350
15
  3
ACAD_VISUALSTYLE
350
16
  3
EZDXF_META
350
2D
  0
DICTIONARY
  5
B
330
A
100
AcDbDictionary
281
1
  0
DICTIONARY
  5
C
330
A
100
AcDbDictionary
281
1
  0
DICTIONARY
  5
D
330
A
100
AcDbDictionary
281
1
  3
Model
350
1A
  3
Layout1
350
1E
  0
DICTIONARY
  5
E
330
A
100
AcDbDictionary
281
1
  3
ByBlock
350
1F
  3
ByLayer
350
20
  3
Global
350
21
  0
DICTIONARY
  5
F
330
A
100
AcDbDictionary
281
1
  3
Standard
350
2C
  0
DICTIONARY
  5
10
330
A
100
AcDbDictionary
281
1
  3
Standard
350
22
  0
DICTIONARY
  5
11
330
A
100
AcDbDictionary
281
1
  0
ACDBDICTIONARYWDFLT
  5
12
330
A
100
AcDbDictionary
281
1
  3
Normal
350
13
100
AcDbDictionaryWithDefault
340
13
  0
ACDBPLACEHOLDER
  5
13
330
12
  0
DICTIONARY
  5
14
330
A
100
AcDbDictionary
281
1
  0
DICTIONARY
  5
15
330
A
100
AcDbDictionary
281
1
  0
DICTIONARY
  5
16
330
A
100
AcDbDictionary
281
1
  0
LAYOUT
  5
1A
330
D
100
AcDbPlotSettings
  1

  2
Adobe PDF
  4
A3
  6

 40
7.5
 41
20.0
 42
7.5
 43
20.0
 44
420.0
 45
297.0
 46
0.0
 47
0.0
 48
0.0
 49
0.0
140
0.0
141
0.0
142
1.0
143
1.0
 70
1024
 72
1
 73
1
 74
5
  7

 75
16
 76
0
 77
2
 78
300
147
1.0
148
0.0
149
0.0
100
AcDbLayout
  1
Model
 70
1
 71
0
 10
0.0
 20
0.0
 11
420.0
 21
297.0
 12
0.0
 22
0.0
 32
0.0
 14
1e+20
 24
1e+20
 34
1e+20
 15
-1e+20
 25
-1e+20
 35
-1e+20
146
0.0
 13
0.0
 23
0.0
 33
0.0
 16
1.0
 26
0.0
 36
0.0
 17
0.0
 27
1.0
 37
0.0
 76
1
330
17
  0
LAYOUT
  5
1E
330
D
100
AcDbPlotSettings
  1

  2
Adobe PDF
  4
A3
  6

 40
7.5
 41
20.0
 42
7.5
 43
20.0
 44
420.0
 45
297.0
 46
0.0
 47
0.0
 48
0.0
 49
0.0
140
0.0
141
0.0
142
1.0
143
1.0
 70
0
 72
1
 73
1
 74
5
  7

 75
16
 76
0
 77
2
 78
300
147
1.0
148
0.0
149
0.0
100
AcDbLayout
  1
Layout1
 70
1
 71
1
 10
0.0
 20
0.0
 11
420.0
 21
297.0
 12
0.0
 22
0.0
 32
0.0
 14
1e+20
 24
1e+20
 34
1e+20
 15
-1e+20
 25
-1e+20
 35
-1e+20
146
0.0
 13
0.0
 23
0.0
 33
0.0
 16
1.0
 26
0.0
 36
0.0
 17
0.0
 27
1.0
 37
0.0
 76
1
330
1B
  0
MATERIAL
  5
1F
102
{ACAD_REACTORS
330
E
102
}
330
E
100
AcDbMaterial
  1
ByBlock
  2

 70
0
 40
1.0
 71
1
 41
1.0
 91
-1023410177
 42
1.0
 72
1
  3

 73
1
 74
1
 75
1
 44
0.5
 73
0
 45
1.0
 46
1.0
 77
1
  4

 78
1
 79
1
170
1
 48
1.0
171
1
  6

172
1
173
1
174
1
140
1.0
141
1.0
175
1
  7

176
1
177
1
178
1
143
1.0
179
1
  8

270
1
271
1
272
1
145
1.0
146
1.0
273
1
  9

274
1
275
1
276
1
 42
1.0
 72
1
  3

 73
1
 74
1
 75
1
 94
63
  0
MATERIAL
  5
20
102
{ACAD_REACTORS
330
E
102
}
330
E
100
AcDbMaterial
  1
ByLayer
  2

 70
0
 40
1.0
 71
1
 41
1.0
 91
-1023410177
 42
1.0
 72
1
  3

 73
1
 74
1
 75
1
 44
0.5
 73
0
 45
1.0
 46
1.0
 77
1
  4

 78
1
 79
1
170
1
 48
1.0
171
1
  6

172
1
173
1
174
1
140
1.0
141
1.0
175
1
  7

176
1
177
1
178
1
143
1.0
179
1
  8

270
1
271
1
272
1
145
1.0
146
1.0
273
1
  9

274
1
275
1
276
1
 42
1.0
 72
1
  3

 73
1
 74
1
 75
1
 94
63
  0
MATERIAL
  5
21
102
{ACAD_REACTORS
330
E
102
}
330
E
100
AcDbMaterial
  1
Global
  2

 70
0
 40
1.0
 71
1
 41
1.0
 91
-1023410177
 42
1.0
 72
1
  3

 73
1
 74
1
 75
1
 44
0.5
 73
0
 45
1.0
 46
1.0
 77
1
  4

 78
1
 79
1
170
1
 48
1.0
171
1
  6

172
1
173
1
174
1
140
1.0
141
1.0
175
1
  7

176
1
177
1
178
1
143
1.0
179
1
  8

270
1
271
1
272
1
145
1.0
146
1.0
273
1
  9

274
1
275
1
276
1
 42
1.0
 72
1
  3

 73
1
 74
1
 75
1
 94
63
  0
MLINESTYLE
  5
22
102
{ACAD_REACTORS
330
10
102
}
330
10
100
AcDbMlineStyle
  2
Standard
 70
0
  3

 62
256
 51
90.0
 52
90.0
 71
2
 49
0.5
 62
256
  6
BYLAYER
 49
-0.5
 62
256
  6
BYLAYER
  0
MLEADERSTYLE
  5
2C
102
{ACAD_REACTORS
330
F
102
}
330
F
100
AcDbMLeaderStyle
179
2
170
2
171
1
172
0
 90
2
 40
0.0
 41
0.0
173
1
 91
-1056964608
 92
-2
290
1
 42
2.0
291
1
 43
8.0
  3
Standard
 44
4.0
300

342
29
174
1
175
1
176
0
178
1
 93
-1056964608
 45
4.0
292
0
297
0
 46
4.0
 94
-1056964608
 47
1.0
 49
1.0
140
1.0
294
1
141
0.0
177
0
142
1.0
295
0
296
0
143
3.75
271
0
272
9
273
9
  0
DICTIONARY
  5
2D
330
A
100
AcDbDictionary
280
1
281
1
  3
CREATED_BY_EZDXF
350
2E
  3
WRITTEN_BY_EZDXF
350
86
  0
DICTIONARYVAR
  5
2E
330
2D
100
DictionaryVariables
280
0
  1
0.17 @ 2022-02-15T16:36:43.643007+00:00
  0
DICTIONARYVAR
  5
86
330
2D
100
DictionaryVariables
280
0
  1
0.17 @ 2022-02-15T16:36:43.749814+00:00
  0
ENDSEC
  0
EOF
