  0
SECTION
  2
HEADER
  9
$ACADVER
  1
AC1027
  9
$ACADMAINTVER
 70
105
  9
$DWGCODEPAGE
  3
ANSI_1252
  9
$LASTSAVEDBY
  1
ezdxf
  9
$REQUIREDVERSIONS
160
0
  9
$INSBASE
 10
0.0
 20
0.0
 30
0.0
  9
$EXTMIN
 10
1e+20
 20
1e+20
 30
1e+20
  9
$EXTMAX
 10
-1e+20
 20
-1e+20
 30
-1e+20
  9
$LIMMIN
 10
0.0
 20
0.0
  9
$LIMMAX
 10
420.0
 20
297.0
  9
$ORTHOMODE
 70
0
  9
$REGENMODE
 70
1
  9
$FILLMODE
 70
1
  9
$QTEXTMODE
 70
0
  9
$MIRRTEXT
 70
1
  9
$LTSCALE
 40
1.0
  9
$ATTMODE
 70
1
  9
$TEXTSIZE
 40
2.5
  9
$TRACEWID
 40
1.0
  9
$TEXTSTYLE
  7
Standard
  9
$CLAYER
  8
0
  9
$CELTYPE
  6
ByLayer
  9
$CECOLOR
 62
256
  9
$CELTSCALE
 40
1.0
  9
$DISPSILH
 70
0
  9
$DIMSCALE
 40
1.0
  9
$DIMASZ
 40
2.5
  9
$DIMEXO
 40
0.625
  9
$DIMDLI
 40
3.75
  9
$DIMRND
 40
0.0
  9
$DIMDLE
 40
0.0
  9
$DIMEXE
 40
1.25
  9
$DIMTP
 40
0.0
  9
$DIMTM
 40
0.0
  9
$DIMTXT
 40
2.5
  9
$DIMCEN
 40
2.5
  9
$DIMTSZ
 40
0.0
  9
$DIMTOL
 70
0
  9
$DIMLIM
 70
0
  9
$DIMTIH
 70
0
  9
$DIMTOH
 70
0
  9
$DIMSE1
 70
0
  9
$DIMSE2
 70
0
  9
$DIMTAD
 70
1
  9
$DIMZIN
 70
8
  9
$DIMBLK
  1

  9
$DIMASO
 70
1
  9
$DIMSHO
 70
1
  9
$DIMPOST
  1

  9
$DIMAPOST
  1

  9
$DIMALT
 70
0
  9
$DIMALTD
 70
3
  9
$DIMALTF
 40
0.03937007874
  9
$DIMLFAC
 40
1.0
  9
$DIMTOFL
 70
1
  9
$DIMTVP
 40
0.0
  9
$DIMTIX
 70
0
  9
$DIMSOXD
 70
0
  9
$DIMSAH
 70
0
  9
$DIMBLK1
  1

  9
$DIMBLK2
  1

  9
$DIMSTYLE
  2
ISO-25
  9
$DIMCLRD
 70
0
  9
$DIMCLRE
 70
0
  9
$DIMCLRT
 70
0
  9
$DIMTFAC
 40
1.0
  9
$DIMGAP
 40
0.625
  9
$DIMJUST
 70
0
  9
$DIMSD1
 70
0
  9
$DIMSD2
 70
0
  9
$DIMTOLJ
 70
0
  9
$DIMTZIN
 70
8
  9
$DIMALTZ
 70
0
  9
$DIMALTTZ
 70
0
  9
$DIMUPT
 70
0
  9
$DIMDEC
 70
2
  9
$DIMTDEC
 70
2
  9
$DIMALTU
 70
2
  9
$DIMALTTD
 70
3
  9
$DIMTXSTY
  7
Standard
  9
$DIMAUNIT
 70
0
  9
$DIMADEC
 70
0
  9
$DIMALTRND
 40
0.0
  9
$DIMAZIN
 70
0
  9
$DIMDSEP
 70
44
  9
$DIMATFIT
 70
3
  9
$DIMFRAC
 70
0
  9
$DIMLDRBLK
  1

  9
$DIMLUNIT
 70
2
  9
$DIMLWD
 70
-2
  9
$DIMLWE
 70
-2
  9
$DIMTMOVE
 70
0
  9
$DIMFXL
 40
1.0
  9
$DIMFXLON
 70
0
  9
$DIMJOGANG
 40
0.785398163397
  9
$DIMTFILL
 70
0
  9
$DIMTFILLCLR
 70
0
  9
$DIMARCSYM
 70
0
  9
$DIMLTYPE
  6

  9
$DIMLTEX1
  6

  9
$DIMLTEX2
  6

  9
$DIMTXTDIRECTION
 70
0
  9
$LUNITS
 70
2
  9
$LUPREC
 70
4
  9
$SKETCHINC
 40
1.0
  9
$FILLETRAD
 40
10.0
  9
$AUNITS
 70
0
  9
$AUPREC
 70
2
  9
$MENU
  1
.
  9
$ELEVATION
 40
0.0
  9
$PELEVATION
 40
0.0
  9
$THICKNESS
 40
0.0
  9
$LIMCHECK
 70
0
  9
$CHAMFERA
 40
0.0
  9
$CHAMFERB
 40
0.0
  9
$CHAMFERC
 40
0.0
  9
$CHAMFERD
 40
0.0
  9
$SKPOLY
 70
0
  9
$TDCREATE
 40
2459626.7338773147
  9
$TDUCREATE
 40
2458532.153996898
  9
$TDUPDATE
 40
2459626.7338773147
  9
$TDUUPDATE
 40
2458532.1544311
  9
$TDINDWG
 40
0.0
  9
$TDUSRTIMER
 40
0.0
  9
$USRTIMER
 70
1
  9
$ANGBASE
 50
0.0
  9
$ANGDIR
 70
0
  9
$PDMODE
 70
0
  9
$PDSIZE
 40
0.0
  9
$PLINEWID
 40
0.0
  9
$SPLFRAME
 70
0
  9
$SPLINETYPE
 70
6
  9
$SPLINESEGS
 70
8
  9
$HANDSEED
  5
87
  9
$SURFTAB1
 70
6
  9
$SURFTAB2
 70
6
  9
$SURFTYPE
 70
6
  9
$SURFU
 70
6
  9
$SURFV
 70
6
  9
$UCSBASE
  2

  9
$UCSNAME
  2

  9
$UCSORG
 10
0.0
 20
0.0
 30
0.0
  9
$UCSXDIR
 10
1.0
 20
0.0
 30
0.0
  9
$UCSYDIR
 10
0.0
 20
1.0
 30
0.0
  9
$UCSORTHOREF
  2

  9
$UCSORTHOVIEW
 70
0
  9
$UCSORGTOP
 10
0.0
 20
0.0
 30
0.0
  9
$UCSORGBOTTOM
 10
0.0
 20
0.0
 30
0.0
  9
$UCSORGLEFT
 10
0.0
 20
0.0
 30
0.0
  9
$UCSORGRIGHT
 10
0.0
 20
0.0
 30
0.0
  9
$UCSORGFRONT
 10
0.0
 20
0.0
 30
0.0
  9
$UCSORGBACK
 10
0.0
 20
0.0
 30
0.0
  9
$PUCSBASE
  2

  9
$PUCSNAME
  2

  9
$PUCSORG
 10
0.0
 20
0.0
 30
0.0
  9
$PUCSXDIR
 10
1.0
 20
0.0
 30
0.0
  9
$PUCSYDIR
 10
0.0
 20
1.0
 30
0.0
  9
$PUCSORTHOREF
  2

  9
$PUCSORTHOVIEW
 70
0
  9
$PUCSORGTOP
 10
0.0
 20
0.0
 30
0.0
  9
$PUCSORGBOTTOM
 10
0.0
 20
0.0
 30
0.0
  9
$PUCSORGLEFT
 10
0.0
 20
0.0
 30
0.0
  9
$PUCSORGRIGHT
 10
0.0
 20
0.0
 30
0.0
  9
$PUCSORGFRONT
 10
0.0
 20
0.0
 30
0.0
  9
$PUCSORGBACK
 10
0.0
 20
0.0
 30
0.0
  9
$USERI1
 70
0
  9
$USERI2
 70
0
  9
$USERI3
 70
0
  9
$USERI4
 70
0
  9
$USERI5
 70
0
  9
$USERR1
 40
0.0
  9
$USERR2
 40
0.0
  9
$USERR3
 40
0.0
  9
$USERR4
 40
0.0
  9
$USERR5
 40
0.0
  9
$WORLDVIEW
 70
1
  9
$SHADEDGE
 70
3
  9
$SHADEDIF
 70
70
  9
$TILEMODE
 70
1
  9
$MAXACTVP
 70
64
  9
$PINSBASE
 10
0.0
 20
0.0
 30
0.0
  9
$PLIMCHECK
 70
0
  9
$PEXTMIN
 10
1e+20
 20
1e+20
 30
1e+20
  9
$PEXTMAX
 10
-1e+20
 20
-1e+20
 30
-1e+20
  9
$PLIMMIN
 10
0.0
 20
0.0
  9
$PLIMMAX
 10
420.0
 20
297.0
  9
$UNITMODE
 70
0
  9
$VISRETAIN
 70
1
  9
$PLINEGEN
 70
0
  9
$PSLTSCALE
 70
1
  9
$TREEDEPTH
 70
3020
  9
$CMLSTYLE
  2
Standard
  9
$CMLJUST
 70
0
  9
$CMLSCALE
 40
20.0
  9
$PROXYGRAPHICS
 70
1
  9
$MEASUREMENT
 70
1
  9
$CELWEIGHT
370
-1
  9
$ENDCAPS
280
0
  9
$JOINSTYLE
280
0
  9
$LWDISPLAY
290
0
  9
$INSUNITS
 70
6
  9
$HYPERLINKBASE
  1

  9
$STYLESHEET
  1

  9
$XEDIT
290
1
  9
$CEPSNTYPE
380
0
  9
$PSTYLEMODE
290
1
  9
$FINGERPRINTGUID
  2
{7E9381DC-3C4F-4EE6-AD91-6FBB5F8D78E3}
  9
$VERSIONGUID
  2
{9DB8D10F-C638-4682-8C3E-DE97E11172C3}
  9
$EXTNAMES
290
1
  9
$PSVPSCALE
 40
0.0
  9
$OLESTARTUP
290
0
  9
$SORTENTS
280
127
  9
$INDEXCTL
280
0
  9
$HIDETEXT
280
1
  9
$XCLIPFRAME
280
0
  9
$HALOGAP
280
0
  9
$OBSCOLOR
 70
257
  9
$OBSLTYPE
280
0
  9
$INTERSECTIONDISPLAY
280
0
  9
$INTERSECTIONCOLOR
 70
257
  9
$DIMASSOC
280
2
  9
$PROJECTNAME
  1

  9
$CAMERADISPLAY
290
0
  9
$LENSLENGTH
 40
50.0
  9
$CAMERAHEIGHT
 40
0.0
  9
$STEPSPERSEC
 40
24.0
  9
$STEPSIZE
 40
100.0
  9
$3DDWFPREC
 40
2.0
  9
$PSOLWIDTH
 40
0.005
  9
$PSOLHEIGHT
 40
0.08
  9
$LOFTANG1
 40
1.570796326795
  9
$LOFTANG2
 40
1.570796326795
  9
$LOFTMAG1
 40
0.0
  9
$LOFTMAG2
 40
0.0
  9
$LOFTPARAM
 70
7
  9
$LOFTNORMALS
280
1
  9
$LATITUDE
 40
37.795
  9
$LONGITUDE
 40
-122.394
  9
$NORTHDIRECTION
 40
0.0
  9
$TIMEZONE
 70
-8000
  9
$LIGHTGLYPHDISPLAY
280
1
  9
$TILEMODELIGHTSYNCH
280
1
  9
$CMATERIAL
347
20
  9
$SOLIDHIST
280
0
  9
$SHOWHIST
280
1
  9
$DWFFRAME
280
2
  9
$DGNFRAME
280
2
  9
$REALWORLDSCALE
290
1
  9
$INTERFERECOLOR
 62
256
  9
$CSHADOW
280
0
  9
$SHADOWPLANELOCATION
 40
0.0
  0
ENDSEC
  0
SECTION
  2
CLASSES
  0
CLASS
  1
ACDBDICTIONARYWDFLT
  2
AcDbDictionaryWithDefault
  3
ObjectDBX Classes
 90
0
 91
0
280
0
281
0
  0
CLASS
  1
SUN
  2
AcDbSun
  3
SCENEOE
 90
1153
 91
0
280
0
281
0
  0
CLASS
  1
VISUALSTYLE
  2
AcDbVisualStyle
  3
ObjectDBX Classes
 90
4095
 91
0
280
0
281
0
  0
CLASS
  1
MATERIAL
  2
AcDbMaterial
  3
ObjectDBX Classes
 90
1153
 91
0
280
0
281
0
  0
CLASS
  1
SCALE
  2
AcDbScale
  3
ObjectDBX Classes
 90
1153
 91
0
280
0
281
0
  0
CLASS
  1
TABLESTYLE
  2
AcDbTableStyle
  3
ObjectDBX Classes
 90
4095
 91
0
280
0
281
0
  0
CLASS
  1
MLEADERSTYLE
  2
AcDbMLeaderStyle
  3
ACDB_MLEADERSTYLE_CLASS
 90
4095
 91
0
280
0
281
0
  0
CLASS
  1
DICTIONARYVAR
  2
AcDbDictionaryVar
  3
ObjectDBX Classes
 90
0
 91
0
280
0
281
0
  0
CLASS
  1
CELLSTYLEMAP
  2
AcDbCellStyleMap
  3
ObjectDBX Classes
 90
1152
 91
0
280
0
281
0
  0
CLASS
  1
MENTALRAYRENDERSETTINGS
  2
AcDbMentalRayRenderSettings
  3
SCENEOE
 90
1024
 91
0
280
0
281
0
  0
CLASS
  1
ACDBDETAILVIEWSTYLE
  2
AcDbDetailViewStyle
  3
ObjectDBX Classes
 90
1025
 91
0
280
0
281
0
  0
CLASS
  1
ACDBSECTIONVIEWSTYLE
  2
AcDbSectionViewStyle
  3
ObjectDBX Classes
 90
1025
 91
0
280
0
281
0
  0
CLASS
  1
RASTERVARIABLES
  2
AcDbRasterVariables
  3
ISM
 90
0
 91
0
280
0
281
0
  0
CLASS
  1
ACDBPLACEHOLDER
  2
AcDbPlaceHolder
  3
ObjectDBX Classes
 90
0
 91
0
280
0
281
0
  0
CLASS
  1
LAYOUT
  2
AcDbLayout
  3
ObjectDBX Classes
 90
0
 91
0
280
0
281
0
  0
ENDSEC
  0
SECTION
  2
TABLES
  0
TABLE
  2
VPORT
  5
8
330
0
100
AcDbSymbolTable
 70
1
  0
VPORT
  5
23
330
8
100
AcDbSymbolTableRecord
100
AcDbViewportTableRecord
  2
*Active
 70
0
 10
0.0
 20
0.0
 11
1.0
 21
1.0
 12
344.2
 22
148.5
 13
0.0
 23
0.0
 14
0.5
 24
0.5
 15
0.5
 25
0.5
 16
0.0
 26
0.0
 36
1.0
 17
0.0
 27
0.0
 37
0.0
 40
297.0
 41
1.34
 42
50.0
 43
0.0
 44
0.0
 50
0.0
 51
0.0
 71
0
 72
1000
 73
1
 74
3
 75
0
 76
0
 77
0
 78
0
281
0
 65
0
146
0.0
  0
ENDTAB
  0
TABLE
  2
LTYPE
  5
2
330
0
100
AcDbSymbolTable
 70
3
  0
LTYPE
  5
24
330
2
100
AcDbSymbolTableRecord
100
AcDbLinetypeTableRecord
  2
ByBlock
 70
0
  3

 72
65
 73
0
 40
0.0
  0
LTYPE
  5
25
330
2
100
AcDbSymbolTableRecord
100
AcDbLinetypeTableRecord
  2
ByLayer
 70
0
  3

 72
65
 73
0
 40
0.0
  0
LTYPE
  5
26
330
2
100
AcDbSymbolTableRecord
100
AcDbLinetypeTableRecord
  2
Continuous
 70
0
  3

 72
65
 73
0
 40
0.0
  0
ENDTAB
  0
TABLE
  2
LAYER
  5
1
330
0
100
AcDbSymbolTable
 70
2
  0
LAYER
  5
27
330
1
100
AcDbSymbolTableRecord
100
AcDbLayerTableRecord
  2
0
 70
0
 62
7
  6
Continuous
370
-3
390
13
347
21
  0
LAYER
  5
28
330
1
100
AcDbSymbolTableRecord
100
AcDbLayerTableRecord
  2
Defpoints
 70
0
 62
7
  6
Continuous
290
0
370
-3
390
13
347
21
  0
ENDTAB
  0
TABLE
  2
STYLE
  5
5
330
0
100
AcDbSymbolTable
 70
1
  0
STYLE
  5
29
330
5
100
AcDbSymbolTableRecord
100
AcDbTextStyleTableRecord
  2
Standard
 70
0
 40
0.0
 41
1.0
 50
0.0
 71
0
 42
2.5
  3
txt
  4

  0
ENDTAB
  0
TABLE
  2
VIEW
  5
7
330
0
100
AcDbSymbolTable
 70
0
  0
ENDTAB
  0
TABLE
  2
UCS
  5
6
330
0
100
AcDbSymbolTable
 70
0
  0
ENDTAB
  0
TABLE
  2
APPID
  5
3
330
0
100
AcDbSymbolTable
 70
3
  0
APPID
  5
2A
330
3
100
AcDbSymbolTableRecord
100
AcDbRegAppTableRecord
  2
ACAD
 70
0
  0
APPID
  5
84
330
3
100
AcDbSymbolTableRecord
100
AcDbRegAppTableRecord
  2
HATCHBACKGROUNDCOLOR
 70
0
  0
APPID
  5
85
330
3
100
AcDbSymbolTableRecord
100
AcDbRegAppTableRecord
  2
EZDXF
 70
0
  0
ENDTAB
  0
TABLE
  2
DIMSTYLE
  5
4
330
0
100
AcDbSymbolTable
 70
1
100
AcDbDimStyleTable
  0
DIMSTYLE
105
2B
330
4
100
AcDbSymbolTableRecord
100
AcDbDimStyleTableRecord
  2
Standard
 70
0
 40
1.0
 41
2.5
 42
0.625
 43
3.75
 44
1.25
 45
0.0
 46
0.0
 47
0.0
 48
0.0
 49
2.5
140
2.5
141
2.5
142
0.0
143
0.03937007874
144
1.0
145
0.0
146
1.0
147
0.625
148
0.0
 69
0
 70
0
 71
0
 72
0
 73
0
 74
0
 75
0
 76
0
 77
1
 78
8
 79
0
170
0
171
3
172
1
173
0
174
0
175
0
176
0
177
0
178
0
179
0
271
0
272
2
273
2
274
3
275
0
276
0
277
2
278
44
279
0
280
0
281
0
282
0
283
0
284
8
285
0
286
0
288
0
289
3
290
0
371
-2
372
-2
  0
ENDTAB
  0
TABLE
  2
BLOCK_RECORD
  5
9
330
0
100
AcDbSymbolTable
 70
2
  0
BLOCK_RECORD
  5
17
330
9
100
AcDbSymbolTableRecord
100
AcDbBlockTableRecord
  2
*Model_Space
340
1A
 70
0
280
1
281
0
  0
BLOCK_RECORD
  5
1B
330
9
100
AcDbSymbolTableRecord
100
AcDbBlockTableRecord
  2
*Paper_Space
340
1E
 70
0
280
1
281
0
  0
ENDTAB
  0
ENDSEC
  0
SECTION
  2
BLOCKS
  0
BLOCK
  5
18
330
17
100
AcDbEntity
  8
0
100
AcDbBlockBegin
  2
*Model_Space
 70
0
 10
0.0
 20
0.0
 30
0.0
  3
*Model_Space
  1

  0
ENDBLK
  5
19
330
17
100
AcDbEntity
  8
0
100
AcDbBlockEnd
  0
BLOCK
  5
1C
330
1B
100
AcDbEntity
  8
0
100
AcDbBlockBegin
  2
*Paper_Space
 70
0
 10
0.0
 20
0.0
 30
0.0
  3
*Paper_Space
  1

  0
ENDBLK
  5
1D
330
1B
100
AcDbEntity
  8
0
100
AcDbBlockEnd
  0
ENDSEC
  0
SECTION
  2
ENTITIES
  0
SPLINE
  5
2F
330
17
100
AcDbEntity
  8
0
100
AcDbSpline
 70
0
 71
8
 72
53
 73
44
 74
0
 40
0.0
 40
0.0
 40
0.0
 40
0.0
 40
0.0
 40
0.0
 40
0.0
 40
0.0
 40
0.0
 40
0.12260048316060876
 40
0.12260048316060876
 40
0.12260048316060876
 40
0.12260048316060876
 40
0.12260048316060876
 40
0.12260048316060876
 40
0.12260048316060876
 40
0.16695506631342058
 40
0.16695506631342058
 40
0.16695506631342058
 40
0.16695506631342058
 40
0.16695506631342058
 40
0.16695506631342058
 40
0.16695506631342058
 40
0.321557242948131
 40
0.321557242948131
 40
0.321557242948131
 40
0.321557242948131
 40
0.321557242948131
 40
0.321557242948131
 40
0.321557242948131
 40
0.5327165759835699
 40
0.5327165759835699
 40
0.5327165759835699
 40
0.5327165759835699
 40
0.5327165759835699
 40
0.5327165759835699
 40
0.5327165759835699
 40
0.7394885695048536
 40
0.7394885695048536
 40
0.7394885695048536
 40
0.7394885695048536
 40
0.7394885695048536
 40
0.7394885695048536
 40
0.7394885695048536
 40
1.0
 40
1.0
 40
1.0
 40
1.0
 40
1.0
 40
1.0
 40
1.0
 40
1.0
 40
1.0
 10
26.9778238935196
 20
261.53007703677696
 30
977.0
 10
26.35762542713814
 20
261.62478388654205
 30
977.0
 10
25.731664524163744
 20
261.68271502019513
 30
977.0
 10
25.102845952750673
 20
261.7034635710323
 30
977.0
 10
24.473742609769022
 20
261.6876874194057
 30
977.0
 10
23.846609223033095
 20
261.6368340753505
 30
977.0
 10
23.223393421229712
 20
261.5528983838186
 30
977.0
 10
22.605744171546164
 20
261.4382130525227
 30
977.0
 10
21.77406802208951
 20
261.24355857899326
 30
977.0
 10
21.55364117000353
 20
261.1880640366076
 30
977.0
 10
21.33376670944995
 20
261.12885063288525
 30
977.0
 10
21.114457974017967
 20
261.0660191423174
 30
977.0
 10
20.89572136675846
 20
260.9996756767866
 30
977.0
 10
20.677565776766492
 20
260.92989850612094
 30
977.0
 10
20.460011995763807
 20
260.8567048786482
 30
977.0
 10
19.487041897538404
 20
260.51271777980975
 30
977.0
 10
18.745014777516438
 20
260.2054450233452
 30
977.0
 10
18.0194818845151
 20
259.85961793037444
 30
977.0
 10
17.312353841665026
 20
259.477135175697
 30
977.0
 10
16.625072546621848
 20
259.0602270241447
 30
977.0
 10
15.95868071640984
 20
258.6113297557646
 30
977.0
 10
15.313879215815263
 20
258.13298324293237
 30
977.0
 10
13.840427479788765
 20
256.9376943832651
 30
977.0
 10
13.030843268993976
 20
256.19750725330266
 30
977.0
 10
12.262697112846503
 20
255.41320190530465
 30
977.0
 10
11.535440979051714
 20
254.59057872668347
 30
977.0
 10
10.847923679157441
 20
253.7349399765945
 30
977.0
 10
10.198588356370024
 20
252.8509163134251
 30
977.0
 10
9.585601226083513
 20
251.94235428291532
 30
977.0
 10
8.440356837859365
 20
250.1013962388446
 30
977.0
 10
7.906834325065752
 20
249.1701257433227
 30
977.0
 10
7.404534617157015
 20
248.221256188191
 30
977.0
 10
6.931703347218501
 20
247.2572732282092
 30
977.0
 10
6.486677281560226
 20
246.28030352122641
 30
977.0
 10
6.06787348245141
 20
245.29212054541148
 30
977.0
 10
5.6737877639702115
 20
244.29414551080683
 30
977.0
 10
4.835851095872284
 20
242.0191022733194
 30
977.0
 10
4.4057933758994
 20
240.73720292378724
 30
977.0
 10
4.010007052412295
 20
239.44400913277525
 30
977.0
 10
3.6460610205427884
 20
238.1414291583
 30
977.0
 10
3.3117954327180055
 20
236.8310495932014
 30
977.0
 10
3.005266689462939
 20
235.51415124275266
 30
977.0
 10
2.724723105325353
 20
234.19171629373918
 30
977.0
 10
2.4685770677685497
 20
232.864436081843
 30
977.0
  0
SPLINE
  5
30
330
17
100
AcDbEntity
  8
0
100
AcDbSpline
 70
0
 71
1
 72
4
 73
2
 74
0
 40
0.0
 40
0.0
 40
1.0
 40
1.0
 10
26.97782389365855
 20
261.5300770377814
 30
977.0
 10
26.97782389365855
 20
258.09999939999005
 30
977.0
  0
LINE
  5
31
330
17
100
AcDbEntity
  8
0
100
AcDbLine
 10
26.977823893659387
 20
258.1
 30
977.0
 11
34.02794360285542
 21
258.1
 31
977.0
  0
SPLINE
  5
32
330
17
100
AcDbEntity
  8
0
100
AcDbSpline
 70
0
 71
8
 72
46
 73
37
 74
0
 40
0.0
 40
0.0
 40
0.0
 40
0.0
 40
0.0
 40
0.0
 40
0.0
 40
0.0
 40
0.0
 40
0.018387321866381843
 40
0.018387321866381843
 40
0.018387321866381843
 40
0.018387321866381843
 40
0.018387321866381843
 40
0.018387321866381843
 40
0.018387321866381843
 40
0.21197308494795694
 40
0.21197308494795694
 40
0.21197308494795694
 40
0.21197308494795694
 40
0.21197308494795694
 40
0.21197308494795694
 40
0.21197308494795694
 40
0.541407821042231
 40
0.541407821042231
 40
0.541407821042231
 40
0.541407821042231
 40
0.541407821042231
 40
0.541407821042231
 40
0.541407821042231
 40
0.8167031549707542
 40
0.8167031549707542
 40
0.8167031549707542
 40
0.8167031549707542
 40
0.8167031549707542
 40
0.8167031549707542
 40
0.8167031549707542
 40
1.0
 40
1.0
 40
1.0
 40
1.0
 40
1.0
 40
1.0
 40
1.0
 40
1.0
 40
1.0
 10
46.56784331474917
 20
235.89999999922827
 30
977.0
 10
46.548558481058514
 20
235.95657986034178
 30
977.0
 10
46.52926816202952
 20
236.0130768575816
 30
977.0
 10
46.50997236581296
 20
236.0694909070535
 30
977.0
 10
46.49067110055964
 20
236.1258219248632
 30
977.0
 10
46.471364374420325
 20
236.18206982711644
 30
977.0
 10
46.452052195545804
 20
236.23823452991894
 30
977.0
 10
46.43273457208686
 20
236.29431594937648
 30
977.0
 10
46.20997409365345
 20
236.93987379439855
 30
977.0
 10
46.00315266497987
 20
237.5282616706871
 30
977.0
 10
45.79274504117916
 20
238.11538446979836
 30
977.0
 10
45.57859068899811
 20
238.70115741708764
 30
977.0
 10
45.3605495240898
 20
239.2854967795323
 30
977.0
 10
45.13848070817862
 20
239.86831252133604
 30
977.0
 10
44.91222144622557
 20
240.4495009595336
 30
977.0
 10
44.28904731457818
 20
242.0149939056991
 30
977.0
 10
43.883845009437124
 20
242.99591849981576
 30
977.0
 10
43.46501808383255
 20
243.97120915999966
 30
977.0
 10
43.03152822697131
 20
244.94019194459628
 30
977.0
 10
42.582209568148116
 20
245.90200658398248
 30
977.0
 10
42.11573708102089
 20
246.85559167148642
 30
977.0
 10
41.630566222114304
 20
247.79965634035602
 30
977.0
 10
40.70218202076115
 20
249.5122698526376
 30
977.0
 10
40.26526343559911
 20
250.2840060815073
 30
977.0
 10
39.812922250349764
 20
251.0470134218779
 30
977.0
 10
39.34394303923649
 20
251.8001558685295
 30
977.0
 10
38.857006849575264
 20
252.54196374713274
 30
977.0
 10
38.350664009222385
 20
253.27061578153672
 30
977.0
 10
37.82327969352194
 20
253.98390313430366
 30
977.0
 10
36.90648927312862
 20
255.14207035939583
 30
976.9999999999999
 10
36.52997859412727
 20
255.5968519749767
 30
977.0
 10
36.14279664120147
 20
256.04277088771323
 30
977.0
 10
35.7443699832137
 20
256.47889253980867
 30
977.0
 10
35.33415459247038
 20
256.9040854796925
 30
977.0
 10
34.91164195776429
 20
257.31702784265997
 30
977.0
 10
34.476370015992984
 20
257.7162187932079
 30
977.0
 10
34.027943612210564
 20
258.10000001093096
 30
977.0
  0
LINE
  5
33
330
17
100
AcDbEntity
  8
0
100
AcDbLine
 10
26.977823893659387
 20
235.9
 30
977.0
 11
46.56784331701351
 21
235.9
 31
977.0
  0
SPLINE
  5
34
330
17
100
AcDbEntity
  8
0
100
AcDbSpline
 70
0
 71
1
 72
4
 73
2
 74
0
 40
0.0
 40
0.0
 40
1.0
 40
1.0
 10
26.97782389365855
 20
235.9000006000011
 30
977.0
 10
26.97782389365855
 20
232.09999939999986
 30
977.0
  0
LINE
  5
35
330
17
100
AcDbEntity
  8
0
100
AcDbLine
 10
26.977823893659387
 20
232.1
 30
977.0
 11
47.80218667787021
 21
232.1
 31
977.0
  0
SPLINE
  5
36
330
17
100
AcDbEntity
  8
0
100
AcDbSpline
 70
0
 71
8
 72
32
 73
23
 74
0
 40
0.0
 40
0.0
 40
0.0
 40
0.0
 40
0.0
 40
0.0
 40
0.0
 40
0.0
 40
0.0
 40
0.40896629291684466
 40
0.40896629291684466
 40
0.40896629291684466
 40
0.40896629291684466
 40
0.40896629291684466
 40
0.40896629291684466
 40
0.40896629291684466
 40
0.9541457098693195
 40
0.9541457098693195
 40
0.9541457098693195
 40
0.9541457098693195
 40
0.9541457098693195
 40
0.9541457098693195
 40
0.9541457098693195
 40
1.0
 40
1.0
 40
1.0
 40
1.0
 40
1.0
 40
1.0
 40
1.0
 40
1.0
 40
1.0
 10
53.451180338064674
 20
209.89999998936457
 30
977.0000000000001
 10
53.206323153325734
 20
211.0460063694045
 30
977.0
 10
52.957459193824626
 20
212.19115183059182
 30
977.0
 10
52.70442671270942
 20
213.33538381907226
 30
977.0
 10
52.44704816945577
 20
214.47864466785376
 30
977.0
 10
52.18512753253561
 20
215.62087103787394
 30
977.0
 10
51.91844678405953
 20
216.7619931939505
 30
977.0
 10
51.64676125219751
 20
217.90193403706624
 30
977.0
 10
51.00057618870465
 20
220.55853598998792
 30
977.0
 10
50.62198574001765
 20
222.07415448559243
 30
977.0
 10
50.23336282032143
 20
223.58726326267896
 30
977.0
 10
49.83395399411383
 20
225.09759775839592
 30
977.0
 10
49.422877578570564
 20
226.60481937392154
 30
977.0
 10
48.9990912499441
 20
228.1085066181683
 30
977.0
 10
48.56132412605567
 20
229.60813650949157
 30
977.0
 10
48.06980256289401
 20
231.2287806569733
 30
977.0
 10
48.031644353874576
 20
231.354198093093
 30
977.0
 10
47.99346182191863
 20
231.47929750454176
 30
977.0
 10
47.95525503418712
 20
231.60407820004647
 30
977.0
 10
47.917024057841
 20
231.7285394883341
 30
977.0
 10
47.87876896004122
 20
231.8526806781315
 30
977.0
 10
47.84048980794873
 20
231.9765010781656
 30
977.0
 10
47.80218666872446
 20
232.09999999716337
 30
977.0
  0
LINE
  5
37
330
17
100
AcDbEntity
  8
0
100
AcDbLine
 10
26.977823893659387
 20
209.9
 30
977.0
 11
53.451180387842115
 21
209.9
 31
977.0
  0
SPLINE
  5
38
330
17
100
AcDbEntity
  8
0
100
AcDbSpline
 70
0
 71
1
 72
4
 73
2
 74
0
 40
0.0
 40
0.0
 40
1.0
 40
1.0
 10
26.97782389365855
 20
209.90000060000008
 30
977.0
 10
26.97782389365855
 20
206.09999939999994
 30
977.0
  0
LINE
  5
39
330
17
100
AcDbEntity
  8
0
100
AcDbLine
 10
26.977823893659387
 20
206.1
 30
977.0
 11
54.24363099218445
 21
206.1
 31
977.0
  0
SPLINE
  5
3A
330
17
100
AcDbEntity
  8
0
100
AcDbSpline
 70
0
 71
8
 72
25
 73
16
 74
0
 40
0.0
 40
0.0
 40
0.0
 40
0.0
 40
0.0
 40
0.0
 40
0.0
 40
0.0
 40
0.0
 40
0.14020504500314404
 40
0.14020504500314404
 40
0.14020504500314404
 40
0.14020504500314404
 40
0.14020504500314404
 40
0.14020504500314404
 40
0.14020504500314404
 40
1.0
 40
1.0
 40
1.0
 40
1.0
 40
1.0
 40
1.0
 40
1.0
 40
1.0
 40
1.0
 10
58.235494352900396
 20
183.90000000514635
 30
977.0
 10
58.173307678901466
 20
184.29042972915136
 30
977.0
 10
58.11084541258669
 20
184.6808156001656
 30
977.0
 10
58.048105563890815
 20
185.07115709572182
 30
977.0
 10
57.985086094762536
 20
185.46145368341286
 30
977.0
 10
57.92178491754337
 20
185.85170482066076
 30
977.0
 10
57.85819989326438
 20
186.24190995447407
 30
977.0
 10
57.79432882985684
 20
186.63206852119265
 30
977.0
 10
57.336717981527556
 20
189.41450352571314
 30
977.0
 10
56.9324433008153
 20
191.80493983392768
 30
977.0
 10
56.51682102439426
 20
194.1934134264066
 30
977.0
 10
56.08924709255798
 20
196.57979867631508
 30
977.0
 10
55.64903191588447
 20
198.96391883274023
 30
977.0
 10
55.19536651420713
 20
201.34553881533924
 30
977.0
 10
54.72729254992902
 20
203.72435891790298
 30
977.0
 10
54.2436310024724
 20
206.10000000209456
 30
977.0
  0
LINE
  5
3B
330
17
100
AcDbEntity
  8
0
100
AcDbLine
 10
26.977823893659387
 20
183.9
 30
977.0
 11
58.23549432059012
 21
183.9
 31
977.0
  0
SPLINE
  5
3C
330
17
100
AcDbEntity
  8
0
100
AcDbSpline
 70
0
 71
1
 72
4
 73
2
 74
0
 40
0.0
 40
0.0
 40
1.0
 40
1.0
 10
26.97782389365855
 20
183.90000060000014
 30
977.0
 10
26.97782389365855
 20
180.0999993999999
 30
977.0
  0
LINE
  5
3D
330
17
100
AcDbEntity
  8
0
100
AcDbLine
 10
26.977823893659387
 20
180.1
 30
977.0
 11
58.8292501354363
 21
180.1
 31
977.0
  0
SPLINE
  5
3E
330
17
100
AcDbEntity
  8
0
100
AcDbSpline
 70
0
 71
8
 72
18
 73
9
 74
0
 40
0.0
 40
0.0
 40
0.0
 40
0.0
 40
0.0
 40
0.0
 40
0.0
 40
0.0
 40
0.0
 40
1.0
 40
1.0
 40
1.0
 40
1.0
 40
1.0
 40
1.0
 40
1.0
 40
1.0
 40
1.0
 10
61.88436686500936
 20
157.89999999761818
 30
977.0
 10
61.54212690426126
 20
160.68027059454153
 30
977.0
 10
61.18922228523855
 20
163.45922771462298
 30
977.0
 10
60.82538953372438
 20
166.23679469207744
 30
977.0
 10
60.45031738491593
 20
169.01288022847086
 30
977.0
 10
60.063639604326895
 20
171.78737735236646
 30
977.0
 10
59.6649258062494
 20
174.56016211438484
 30
977.0
 10
59.253666691957704
 20
177.3310914945935
 30
977.0
 10
58.829250129836396
 20
180.09999999914172
 30
977.0
  0
LINE
  5
3F
330
17
100
AcDbEntity
  8
0
100
AcDbLine
 10
26.977823893659387
 20
157.9
 30
977.0
 11
61.884366884358656
 21
157.9
 31
977.0
  0
SPLINE
  5
40
330
17
100
AcDbEntity
  8
0
100
AcDbSpline
 70
0
 71
1
 72
4
 73
2
 74
0
 40
0.0
 40
0.0
 40
1.0
 40
1.0
 10
26.97782389365855
 20
157.90000060000042
 30
977.0
 10
26.97782389365855
 20
154.09999939999918
 30
977.0
  0
LINE
  5
41
330
17
100
AcDbEntity
  8
0
100
AcDbLine
 10
26.977823893659387
 20
154.1
 30
977.0
 11
62.34336131742268
 21
154.1
 31
977.0
  0
SPLINE
  5
42
330
17
100
AcDbEntity
  8
0
100
AcDbSpline
 70
0
 71
8
 72
25
 73
16
 74
0
 40
0.0
 40
0.0
 40
0.0
 40
0.0
 40
0.0
 40
0.0
 40
0.0
 40
0.0
 40
0.0
 40
0.7933766590467476
 40
0.7933766590467476
 40
0.7933766590467476
 40
0.7933766590467476
 40
0.7933766590467476
 40
0.7933766590467476
 40
0.7933766590467476
 40
1.0
 40
1.0
 40
1.0
 40
1.0
 40
1.0
 40
1.0
 40
1.0
 40
1.0
 40
1.0
 10
64.69063601739484
 20
131.9000000012858
 30
977.0
 10
64.48489410470879
 20
134.1043720568065
 30
977.0
 10
64.2731283861551
 20
136.30818138254705
 30
977.0
 10
64.05531653655295
 20
138.51140699742544
 30
977.0
 10
63.83142450472381
 20
140.7140260617215
 30
977.0
 10
63.60140569463464
 20
142.91601378944048
 30
977.0
 10
63.36520014654125
 20
145.11734336067602
 30
977.0
 10
63.12273371813147
 20
147.31798583397318
 30
977.0
 10
62.80911666168578
 20
150.09084813037876
 30
977.0
 10
62.74388545599907
 20
150.66373662016687
 30
977.0
 10
62.67822205320988
 20
151.23657508770188
 30
977.0
 10
62.61212478986549
 20
151.80936306897442
 30
977.0
 10
62.545591932080065
 20
152.3821000759641
 30
977.0
 10
62.47862167320835
 20
152.95478559629328
 30
977.0
 10
62.41121213151608
 20
153.52741909288235
 30
977.0
 10
62.34336134779106
 20
154.10000000359858
 30
977.0
  0
LINE
  5
43
330
17
100
AcDbEntity
  8
0
100
AcDbLine
 10
26.977823893659387
 20
131.9
 30
977.0
 11
64.69063600361888
 21
131.9
 31
977.0
  0
SPLINE
  5
44
330
17
100
AcDbEntity
  8
0
100
AcDbSpline
 70
0
 71
1
 72
4
 73
2
 74
0
 40
0.0
 40
0.0
 40
1.0
 40
1.0
 10
26.97782389365855
 20
131.90000060000256
 30
977.0
 10
26.97782389365855
 20
128.09999939999764
 30
977.0
  0
LINE
  5
45
330
17
100
AcDbEntity
  8
0
100
AcDbLine
 10
26.977823893659387
 20
128.1
 30
977.0
 11
65.03744746332215
 21
128.1
 31
977.0
  0
SPLINE
  5
46
330
17
100
AcDbEntity
  8
0
100
AcDbSpline
 70
0
 71
8
 72
25
 73
16
 74
0
 40
0.0
 40
0.0
 40
0.0
 40
0.0
 40
0.0
 40
0.0
 40
0.0
 40
0.0
 40
0.0
 40
0.30550921006515835
 40
0.30550921006515835
 40
0.30550921006515835
 40
0.30550921006515835
 40
0.30550921006515835
 40
0.30550921006515835
 40
0.30550921006515835
 40
1.0
 40
1.0
 40
1.0
 40
1.0
 40
1.0
 40
1.0
 40
1.0
 40
1.0
 40
1.0
 10
66.76678783422226
 20
105.90000000048617
 30
976.9999999999998
 10
66.70982993302955
 20
106.74846384363669
 30
976.9999999999998
 10
66.65211682997996
 20
107.59687697037569
 30
976.9999999999998
 10
66.59364290076167
 20
108.44523822310066
 30
976.9999999999998
 10
66.5344024903653
 20
109.29354642368631
 30
976.9999999999998
 10
66.47438991267197
 20
110.14180037346087
 30
976.9999999999998
 10
66.41359945004143
 20
110.98999885318253
 30
976.9999999999999
 10
66.35202535290009
 20
111.83814062301578
 30
977.0
 10
66.14789561960092
 20
114.61410865131563
 30
977.0
 10
66.00205004664012
 20
116.54169271734835
 30
977.0
 10
65.85205728551327
 20
118.46896160709278
 30
977.0
 10
65.69784858774771
 20
120.39589955080112
 30
977.0
 10
65.5393542913316
 20
122.32249002249112
 30
977.0
 10
65.37650382071384
 20
124.24871573994594
 30
977.0
 10
65.20922568680412
 20
126.1745586647142
 30
977.0
 10
65.0374474869729
 20
128.10000000210997
 30
977.0
  0
LINE
  5
47
330
17
100
AcDbEntity
  8
0
100
AcDbLine
 10
26.977823893659387
 20
105.9
 30
977.0
 11
66.76678782697958
 21
105.9
 31
977.0
  0
SPLINE
  5
48
330
17
100
AcDbEntity
  8
0
100
AcDbSpline
 70
0
 71
1
 72
4
 73
2
 74
0
 40
0.0
 40
0.0
 40
1.0
 40
1.0
 10
26.97782389365855
 20
105.90000060000206
 30
977.0
 10
26.97782389365855
 20
102.09999939999993
 30
977.0
  0
LINE
  5
49
330
17
100
AcDbEntity
  8
0
100
AcDbLine
 10
26.977823893659387
 20
102.1
 30
977.0
 11
67.01528422865556
 21
102.1
 31
977.0
  0
SPLINE
  5
4A
330
17
100
AcDbEntity
  8
0
100
AcDbSpline
 70
0
 71
8
 72
18
 73
9
 74
0
 40
0.0
 40
0.0
 40
0.0
 40
0.0
 40
0.0
 40
0.0
 40
0.0
 40
0.0
 40
0.0
 40
1.0
 40
1.0
 40
1.0
 40
1.0
 40
1.0
 40
1.0
 40
1.0
 40
1.0
 40
1.0
 10
68.2183941652368
 20
79.90000000138156
 30
977.0
 10
68.09291320340694
 20
82.67627753168712
 30
977.0
 10
67.96067882759051
 20
85.45224945355302
 30
977.0
 10
67.82151312195928
 20
88.22788895045329
 30
977.0
 10
67.67523538840062
 20
91.00316690602612
 30
977.0
 10
67.52166199294889
 20
93.77805189526522
 30
977.0
 10
67.36060621221701
 20
96.55251017571106
 30
977.0
 10
67.19187807982783
 20
99.32650567864223
 30
977.0
 10
67.01528423284563
 20
102.10000000026682
 30
977.0
  0
LINE
  5
4B
330
17
100
AcDbEntity
  8
0
100
AcDbLine
 10
26.977823893659387
 20
79.9
 30
977.0
 11
68.2183941346691
 21
79.9
 31
977.0
  0
SPLINE
  5
4C
330
17
100
AcDbEntity
  8
0
100
AcDbSpline
 70
0
 71
1
 72
4
 73
2
 74
0
 40
0.0
 40
0.0
 40
1.0
 40
1.0
 10
26.97782389365855
 20
79.90000060000001
 30
977.0
 10
26.97782389365855
 20
76.09999939999999
 30
977.0
  0
LINE
  5
4D
330
17
100
AcDbEntity
  8
0
100
AcDbLine
 10
26.977823893659387
 20
76.1
 30
977.0
 11
68.38464897006165
 21
76.1
 31
977.0
  0
SPLINE
  5
4E
330
17
100
AcDbEntity
  8
0
100
AcDbSpline
 70
0
 71
8
 72
25
 73
16
 74
0
 40
0.0
 40
0.0
 40
0.0
 40
0.0
 40
0.0
 40
0.0
 40
0.0
 40
0.0
 40
0.0
 40
0.956697185929846
 40
0.956697185929846
 40
0.956697185929846
 40
0.956697185929846
 40
0.956697185929846
 40
0.956697185929846
 40
0.956697185929846
 40
1.0
 40
1.0
 40
1.0
 40
1.0
 40
1.0
 40
1.0
 40
1.0
 40
1.0
 40
1.0
 10
69.14977066350298
 20
53.900000001342846
 30
977.0
 10
69.07795843740598
 20
56.555465732845924
 30
977.0
 10
69.00106861328595
 20
59.21079339335586
 30
977.0
 10
68.91895846455385
 20
61.86596784186831
 30
977.0
 10
68.83148346688233
 20
64.52097292992195
 30
977.0
 10
68.73849718381912
 20
67.17579149956582
 30
977.0
 10
68.63985114990984
 20
69.8304053812591
 30
977.0
 10
68.53539475133022
 20
72.48479539170353
 30
977.0
 10
68.41997719922844
 20
75.25907546583696
 30
977.0
 10
68.4149670778112
 20
75.37920908960508
 30
977.0
 10
68.40994472560297
 20
75.49934220094013
 30
977.0
 10
68.40491012842166
 20
75.61947479786161
 30
977.0
 10
68.39986327207583
 20
75.739606878381
 30
977.0
 10
68.39480414236473
 20
75.85973844050172
 30
977.0
 10
68.38973272507825
 20
75.97986948221917
 30
977.0
 10
68.38464900599688
 20
76.10000000152074
 30
977.0
  0
LINE
  5
4F
330
17
100
AcDbEntity
  8
0
100
AcDbLine
 10
26.977823893659387
 20
53.9
 30
977.0
 11
69.14977061384833
 21
53.9
 31
977.0
  0
SPLINE
  5
50
330
17
100
AcDbEntity
  8
0
100
AcDbSpline
 70
0
 71
1
 72
4
 73
2
 74
0
 40
0.0
 40
0.0
 40
1.0
 40
1.0
 10
26.97782389365855
 20
53.90000060000026
 30
977.0
 10
26.97782389365855
 20
50.09999939999937
 30
977.0
  0
LINE
  5
51
330
17
100
AcDbEntity
  8
0
100
AcDbLine
 10
26.977823893659387
 20
50.1
 30
977.0
 11
69.24802831598147
 21
50.1
 31
977.0
  0
SPLINE
  5
52
330
17
100
AcDbEntity
  8
0
100
AcDbSpline
 70
0
 71
8
 72
18
 73
9
 74
0
 40
0.0
 40
0.0
 40
0.0
 40
0.0
 40
0.0
 40
0.0
 40
0.0
 40
0.0
 40
0.0
 40
1.0
 40
1.0
 40
1.0
 40
1.0
 40
1.0
 40
1.0
 40
1.0
 40
1.0
 40
1.0
 10
69.65426516688986
 20
27.900000000125353
 30
977.0
 10
69.620099522211
 20
30.67527130228614
 30
977.0
 10
69.58149533948772
 20
33.450488611677514
 30
977.0
 10
69.53830047508663
 20
36.225641656284424
 30
977.0
 10
69.49036128360868
 20
39.00071897467305
 30
977.0
 10
69.43752248685401
 20
41.77570791376843
 30
977.0
 10
69.37962703954682
 20
44.55059462654437
 30
977.0
 10
69.31651599182038
 20
47.32536406962553
 30
977.0
 10
69.24802834846196
 20
50.100000000801714
 30
977.0
  0
LINE
  5
53
330
17
100
AcDbEntity
  8
0
100
AcDbLine
 10
26.977823893659387
 20
27.9
 30
977.0
 11
69.65426515670467
 21
27.9
 31
977.0
  0
SPLINE
  5
54
330
17
100
AcDbEntity
  8
0
100
AcDbSpline
 70
0
 71
1
 72
4
 73
2
 74
0
 40
0.0
 40
0.0
 40
1.0
 40
1.0
 10
26.97782389365855
 20
27.900000600000002
 30
977.0
 10
26.97782389365855
 20
24.099999399999998
 30
977.0
  0
LINE
  5
55
330
17
100
AcDbEntity
  8
0
100
AcDbLine
 10
26.977823893659387
 20
24.1
 30
977.0
 11
69.6974475577363
 21
24.1
 31
977.0
  0
SPLINE
  5
56
330
17
100
AcDbEntity
  8
0
100
AcDbSpline
 70
0
 71
8
 72
18
 73
9
 74
0
 40
0.0
 40
0.0
 40
0.0
 40
0.0
 40
0.0
 40
0.0
 40
0.0
 40
0.0
 40
0.0
 40
1.0
 40
1.0
 40
1.0
 40
1.0
 40
1.0
 40
1.0
 40
1.0
 40
1.0
 40
1.0
 10
69.81741143153998
 20
1.9000000000010286
 30
977.0
 10
69.81532354436504
 20
4.675055432746863
 30
977.0
 10
69.80984035668818
 20
7.450104649976861
 30
977.0
 10
69.80081684024964
 20
10.225144316195397
 30
977.0
 10
69.78810705270038
 20
13.000169916904838
 30
977.0
 10
69.77156401804157
 20
15.77517575669315
 30
977.0
 10
69.75103960382705
 20
18.550154957233786
 30
977.0
 10
69.72638439512885
 20
21.325099455197837
 30
977.0
 10
69.69744756526572
 20
24.10000000007848
 30
977.0
  0
LINE
  5
57
330
17
100
AcDbEntity
  8
0
100
AcDbLine
 10
26.977823893659387
 20
1.9
 30
977.0
 11
69.81741143018043
 21
1.9
 31
977.0
  0
SPLINE
  5
58
330
17
100
AcDbEntity
  8
0
100
AcDbSpline
 70
0
 71
1
 72
4
 73
2
 74
0
 40
0.0
 40
0.0
 40
0.9999993684216398
 40
0.9999993684216398
 10
26.97782389365855
 20
1.9000006000000558
 30
977.0
 10
26.97782389365855
 20
-6.553790374438061e-17
 30
977.0
  0
SPLINE
  5
59
330
17
100
AcDbEntity
  8
0
100
AcDbSpline
 70
0
 71
1
 72
4
 73
2
 74
0
 40
0.0
 40
0.0
 40
1.0
 40
1.0
 10
26.97782389365855
 20
-1.9000006000000011
 30
977.0
 10
26.97782389365855
 20
1.2000000211287443e-06
 30
977.0
  0
LINE
  5
5A
330
17
100
AcDbEntity
  8
0
100
AcDbLine
 10
26.97782389365939
 20
-1.9
 30
977.0
 11
69.81751559162703
 21
-1.9
 31
977.0
  0
SPLINE
  5
5B
330
17
100
AcDbEntity
  8
0
100
AcDbSpline
 70
0
 71
8
 72
18
 73
9
 74
0
 40
0.0
 40
0.0
 40
0.0
 40
0.0
 40
0.0
 40
0.0
 40
0.0
 40
0.0
 40
0.0
 40
1.0
 40
1.0
 40
1.0
 40
1.0
 40
1.0
 40
1.0
 40
1.0
 40
1.0
 40
1.0
 10
69.69868971972443
 20
-24.100000000068995
 30
977.0
 10
69.72750158510752
 20
-21.32512639422476
 30
977.0
 10
69.75202468811975
 20
-18.55020720777522
 30
977.0
 10
69.7724109831808
 20
-15.77524927328341
 30
977.0
 10
69.788810992167
 20
-13.00025774110667
 30
977.0
 10
69.80137393145402
 20
-10.225236083581102
 30
977.0
 10
69.81024783916482
 20
-7.4501860991961575
 30
977.0
 10
69.8155797040276
 20
-4.675107916815929
 30
977.0
 10
69.81751559724822
 20
-1.900000000003915
 30
977.0
  0
LINE
  5
5C
330
17
100
AcDbEntity
  8
0
100
AcDbLine
 10
26.97782389365939
 20
-24.1
 30
977.0
 11
69.69868971307757
 21
-24.1
 31
977.0
  0
SPLINE
  5
5D
330
17
100
AcDbEntity
  8
0
100
AcDbSpline
 70
0
 71
1
 72
4
 73
2
 74
0
 40
0.0
 40
0.0
 40
1.0
 40
1.0
 10
26.97782389365855
 20
-27.900000600000034
 30
977.0
 10
26.97782389365855
 20
-24.099999399999938
 30
977.0
  0
LINE
  5
5E
330
17
100
AcDbEntity
  8
0
100
AcDbLine
 10
26.97782389365939
 20
-27.9
 30
977.0
 11
69.6556718179226
 21
-27.9
 31
977.0
  0
SPLINE
  5
5F
330
17
100
AcDbEntity
  8
0
100
AcDbSpline
 70
0
 71
8
 72
18
 73
9
 74
0
 40
0.0
 40
0.0
 40
0.0
 40
0.0
 40
0.0
 40
0.0
 40
0.0
 40
0.0
 40
0.0
 40
1.0
 40
1.0
 40
1.0
 40
1.0
 40
1.0
 40
1.0
 40
1.0
 40
1.0
 40
1.0
 10
69.2500594026363
 20
-50.099999999912455
 30
977.0
 10
69.31851467420701
 20
-47.32534700900028
 30
977.0
 10
69.3815779328404
 20
-44.55056562040727
 30
977.0
 10
69.4394113539339
 20
-41.775672585041974
 30
977.0
 10
69.49217507645561
 20
-39.000682950463165
 30
977.0
 10
69.54002733515281
 20
-36.225610065335985
 30
977.0
 10
69.5831245896724
 20
-33.45046558374539
 30
977.0
 10
69.62162165199925
 20
-30.675259469423438
 30
977.0
 10
69.65567181361882
 20
-27.89999999994721
 30
977.0
  0
LINE
  5
60
330
17
100
AcDbEntity
  8
0
100
AcDbLine
 10
26.97782389365939
 20
-50.1
 30
977.0
 11
69.25005940618429
 21
-50.1
 31
977.0
  0
SPLINE
  5
61
330
17
100
AcDbEntity
  8
0
100
AcDbSpline
 70
0
 71
1
 72
4
 73
2
 74
0
 40
0.0
 40
0.0
 40
1.0
 40
1.0
 10
26.97782389365855
 20
-53.9000006
 30
977.0
 10
26.97782389365855
 20
-50.0999994
 30
977.0
  0
LINE
  5
62
330
17
100
AcDbEntity
  8
0
100
AcDbLine
 10
26.97782389365939
 20
-53.9
 30
977.0
 11
69.15183380964042
 21
-53.9
 31
977.0
  0
SPLINE
  5
63
330
17
100
AcDbEntity
  8
0
100
AcDbSpline
 70
0
 71
8
 72
18
 73
9
 74
0
 40
0.0
 40
0.0
 40
0.0
 40
0.0
 40
0.0
 40
0.0
 40
0.0
 40
0.0
 40
0.0
 40
1.0
 40
1.0
 40
1.0
 40
1.0
 40
1.0
 40
1.0
 40
1.0
 40
1.0
 40
1.0
 10
68.38629714925338
 20
-76.10000000021569
 30
977.0
 10
68.50382194337303
 20
-73.32581293260168
 30
977.0
 10
68.61476285553697
 20
-70.55134425592985
 30
977.0
 10
68.71929609057119
 20
-67.77662079730553
 30
977.0
 10
68.81759515827152
 20
-65.00166765515372
 30
977.0
 10
68.90983102257053
 20
-62.22650820442206
 30
977.0
 10
68.9961722443052
 20
-59.45116410150719
 30
977.0
 10
69.0767851189956
 20
-56.675655288961636
 30
977.0
 10
69.15183381104497
 20
-53.90000000003796
 30
977.0
  0
LINE
  5
64
330
17
100
AcDbEntity
  8
0
100
AcDbLine
 10
26.97782389365939
 20
-76.1
 30
977.0
 11
68.38629714416231
 21
-76.1
 31
977.0
  0
SPLINE
  5
65
330
17
100
AcDbEntity
  8
0
100
AcDbSpline
 70
0
 71
1
 72
4
 73
2
 74
0
 40
0.0
 40
0.0
 40
1.0
 40
1.0
 10
26.97782389365855
 20
-79.90000060000018
 30
977.0
 10
26.97782389365855
 20
-76.09999939999999
 30
977.0
  0
LINE
  5
66
330
17
100
AcDbEntity
  8
0
100
AcDbLine
 10
26.97782389365939
 20
-79.9
 30
977.0
 11
68.21985013590749
 21
-79.9
 31
977.0
  0
SPLINE
  5
67
330
17
100
AcDbEntity
  8
0
100
AcDbSpline
 70
0
 71
8
 72
18
 73
9
 74
0
 40
0.0
 40
0.0
 40
0.0
 40
0.0
 40
0.0
 40
0.0
 40
0.0
 40
0.0
 40
0.0
 40
1.0
 40
1.0
 40
1.0
 40
1.0
 40
1.0
 40
1.0
 40
1.0
 40
1.0
 40
1.0
 10
67.01473402678444
 20
-102.09999999980064
 30
977.0
 10
67.19168170200138
 20
-99.32652986333626
 30
977.0
 10
67.3607317160868
 20
-96.55255274819403
 30
977.0
 10
67.52207875282187
 20
-93.77810578800998
 30
977.0
 10
67.67591402743876
 20
-91.00322435444315
 30
977.0
 10
67.82242546489353
 20
-88.22794206361402
 30
977.0
 10
67.96179786838151
 20
-85.45229078213079
 30
977.0
 10
68.09421307951463
 20
-82.67630063276073
 30
977.0
 10
68.21985013157962
 20
-79.89999999980415
 30
977.0
  0
LINE
  5
68
330
17
100
AcDbEntity
  8
0
100
AcDbLine
 10
26.97782389365939
 20
-102.1
 30
977.0
 11
67.01473402990915
 21
-102.1
 31
977.0
  0
SPLINE
  5
69
330
17
100
AcDbEntity
  8
0
100
AcDbSpline
 70
0
 71
1
 72
4
 73
2
 74
0
 40
0.0
 40
0.0
 40
1.0
 40
1.0
 10
26.97782389365855
 20
-105.90000060000003
 30
977.0
 10
26.97782389365855
 20
-102.09999939999999
 30
977.0
  0
LINE
  5
6A
330
17
100
AcDbEntity
  8
0
100
AcDbLine
 10
26.97782389365939
 20
-105.9
 30
977.0
 11
66.765723636849
 21
-105.9
 31
977.0
  0
SPLINE
  5
6B
330
17
100
AcDbEntity
  8
0
100
AcDbSpline
 70
0
 71
8
 72
18
 73
9
 74
0
 40
0.0
 40
0.0
 40
0.0
 40
0.0
 40
0.0
 40
0.0
 40
0.0
 40
0.0
 40
0.0
 40
1.0
 40
1.0
 40
1.0
 40
1.0
 40
1.0
 40
1.0
 40
1.0
 40
1.0
 40
1.0
 10
65.03219238398779
 20
-128.10000000298427
 30
977.0
 10
65.28020186026012
 20
-125.32750717456189
 30
977.0
 10
65.51883659118702
 20
-122.55420693946155
 30
977.0
 10
65.74831525380223
 20
-119.78014708480282
 30
977.0
 10
65.96885210280635
 20
-117.00537359041626
 30
977.0
 10
66.18065719075291
 20
-114.2299306370324
 30
977.0
 10
66.38393657502407
 20
-111.4538606139191
 30
977.0
 10
66.57889251303098
 20
-108.67720412602512
 30
977.0
 10
66.76572364707349
 20
-105.90000000068784
 30
977.0
  0
LINE
  5
6C
330
17
100
AcDbEntity
  8
0
100
AcDbLine
 10
26.97782389365939
 20
-128.1
 30
977.0
 11
65.03219235062707
 21
-128.1
 31
977.0
  0
SPLINE
  5
6D
330
17
100
AcDbEntity
  8
0
100
AcDbSpline
 70
0
 71
1
 72
4
 73
2
 74
0
 40
0.0
 40
0.0
 40
1.0
 40
1.0
 10
26.97782389365855
 20
-131.9000006
 30
977.0
 10
26.97782389365855
 20
-128.09999939999992
 30
977.0
  0
LINE
  5
6E
330
17
100
AcDbEntity
  8
0
100
AcDbLine
 10
26.97782389365939
 20
-131.9
 30
977.0
 11
64.68443885163136
 21
-131.9
 31
977.0
  0
SPLINE
  5
6F
330
17
100
AcDbEntity
  8
0
100
AcDbSpline
 70
0
 71
8
 72
32
 73
23
 74
0
 40
0.0
 40
0.0
 40
0.0
 40
0.0
 40
0.0
 40
0.0
 40
0.0
 40
0.0
 40
0.0
 40
0.43536581025658494
 40
0.43536581025658494
 40
0.43536581025658494
 40
0.43536581025658494
 40
0.43536581025658494
 40
0.43536581025658494
 40
0.43536581025658494
 40
0.8014356262375644
 40
0.8014356262375644
 40
0.8014356262375644
 40
0.8014356262375644
 40
0.8014356262375644
 40
0.8014356262375644
 40
0.8014356262375644
 40
1.0
 40
1.0
 40
1.0
 40
1.0
 40
1.0
 40
1.0
 40
1.0
 40
1.0
 40
1.0
 10
62.33038923386904
 20
-154.10000000521717
 30
977.0
 10
62.4733030358678
 20
-152.8974932145983
 30
977.0
 10
62.614265521065505
 20
-151.69475453890612
 30
977.0
 10
62.75329456102101
 20
-150.49178982563961
 30
977.0
 10
62.890406511895904
 20
-149.28860455217503
 30
977.0
 10
63.02561630029386
 20
-148.0852038368044
 30
977.0
 10
63.15893748796047
 20
-146.881592446993
 30
977.0
 10
63.290382315343656
 20
-145.67777480485614
 30
977.0
 10
63.52891632993341
 20
-143.4613757406548
 30
977.0
 10
63.63669514315181
 20
-142.4475245829374
 30
977.0
 10
63.74329019214903
 20
-141.43228182384485
 30
977.0
 10
63.84869350540442
 20
-140.41572777051908
 30
977.0
 10
63.952897111397306
 20
-139.39794273010224
 30
977.0
 10
64.05589303860704
 20
-138.37900700973654
 30
977.0
 10
64.15767331551302
 20
-137.35900091656413
 30
977.0
 10
64.31277412685189
 20
-135.78419383411966
 30
977.0
 10
64.36696028633105
 20
-135.23007921315582
 30
976.9999999999999
 10
64.42078567216163
 20
-134.67568143304334
 30
976.9999999999998
 10
64.47424799832984
 20
-134.12101868846582
 30
976.9999999999997
 10
64.52734546967858
 20
-133.56610683058304
 30
976.9999999999995
 10
64.58007678190745
 20
-133.01095936703067
 30
976.9999999999994
 10
64.63244112157273
 20
-132.45558746192052
 30
976.9999999999994
 10
64.68443816608738
 20
-131.8999999358404
 30
976.9999999999994
  0
LINE
  5
70
330
17
100
AcDbEntity
  8
0
100
AcDbLine
 10
26.97782389365939
 20
-154.1
 30
977.0
 11
62.3303891899709
 21
-154.1
 31
977.0
  0
SPLINE
  5
71
330
17
100
AcDbEntity
  8
0
100
AcDbSpline
 70
0
 71
1
 72
4
 73
2
 74
0
 40
0.0
 40
0.0
 40
1.0
 40
1.0
 10
26.97782389365855
 20
-157.90000060000003
 30
977.0
 10
26.97782389365855
 20
-154.0999994
 30
977.0
  0
LINE
  5
72
330
17
100
AcDbEntity
  8
0
100
AcDbLine
 10
26.97782389365939
 20
-157.9
 30
977.0
 11
61.870055213912664
 21
-157.9
 31
977.0
  0
SPLINE
  5
73
330
17
100
AcDbEntity
  8
0
100
AcDbSpline
 70
0
 71
8
 72
25
 73
16
 74
0
 40
0.0
 40
0.0
 40
0.0
 40
0.0
 40
0.0
 40
0.0
 40
0.0
 40
0.0
 40
0.0
 40
0.23114429588345778
 40
0.23114429588345778
 40
0.23114429588345778
 40
0.23114429588345778
 40
0.23114429588345778
 40
0.23114429588345778
 40
0.23114429588345778
 40
1.0
 40
1.0
 40
1.0
 40
1.0
 40
1.0
 40
1.0
 40
1.0
 40
1.0
 40
1.0
 10
58.80642879055078
 20
-180.10000000679582
 30
977.0
 10
58.90478592166086
 20
-179.45999065987218
 30
977.0
 10
59.00243975675978
 20
-178.81987299727172
 30
977.0
 10
59.09939782278535
 20
-178.1796489734211
 30
977.0
 10
59.195667360862586
 20
-177.53932043052498
 30
977.0
 10
59.29125534227784
 20
-176.89888910136577
 30
977.0
 10
59.3861684834917
 20
-176.25835661194873
 30
977.0
 10
59.48041326086227
 20
-175.6177244841109
 30
977.0
 10
59.88528011916364
 20
-172.84573158915828
 30
977.0
 10
60.18923582548258
 20
-170.7134010721633
 30
977.0
 10
60.48609132289906
 20
-168.58006266790147
 30
977.0
 10
60.77604625530442
 20
-166.44577100316877
 30
977.0
 10
61.05927561426532
 20
-164.310575770197
 30
977.0
 10
61.33593305169448
 20
-162.1745221579201
 30
977.0
 10
61.6061535232171
 20
-160.03765119519335
 30
977.0
 10
61.87005526223274
 20
-157.9000000059653
 30
977.0
  0
LINE
  5
74
330
17
100
AcDbEntity
  8
0
100
AcDbLine
 10
26.97782389365939
 20
-180.1
 30
977.0
 11
58.80642874633038
 21
-180.1
 31
977.0
  0
SPLINE
  5
75
330
17
100
AcDbEntity
  8
0
100
AcDbSpline
 70
0
 71
1
 72
4
 73
2
 74
0
 40
0.0
 40
0.0
 40
1.0
 40
1.0
 10
26.97782389365855
 20
-183.9000006000001
 30
977.0
 10
26.97782389365855
 20
-180.09999939999994
 30
977.0
  0
LINE
  5
76
330
17
100
AcDbEntity
  8
0
100
AcDbLine
 10
26.97782389365939
 20
-183.9
 30
977.0
 11
58.21114192816178
 21
-183.9
 31
977.0
  0
SPLINE
  5
77
330
17
100
AcDbEntity
  8
0
100
AcDbSpline
 70
0
 71
8
 72
25
 73
16
 74
0
 40
0.0
 40
0.0
 40
0.0
 40
0.0
 40
0.0
 40
0.0
 40
0.0
 40
0.0
 40
0.0
 40
0.15493596500771836
 40
0.15493596500771836
 40
0.15493596500771836
 40
0.15493596500771836
 40
0.15493596500771836
 40
0.15493596500771836
 40
0.15493596500771836
 40
1.0
 40
1.0
 40
1.0
 40
1.0
 40
1.0
 40
1.0
 40
1.0
 40
1.0
 40
1.0
 10
54.21041371738653
 20
-206.09999999372639
 30
977.0
 10
54.29773247242561
 20
-205.67191137675542
 30
977.0
 10
54.38454574776111
 20
-205.24371953404673
 30
977.0
 10
54.47086044540652
 20
-204.81542654495152
 30
977.0
 10
54.55668323846173
 20
-204.38703438399233
 30
977.0
 10
54.64202058300759
 20
-203.95854492343952
 30
977.0
 10
54.72687872768813
 20
-203.5299599353704
 30
977.0
 10
54.81126372098039
 20
-203.10128109321104
 30
977.0
 10
55.35289196828455
 20
-200.33387250328525
 30
977.0
 10
55.79669470255406
 20
-197.99252561539038
 30
977.0
 10
56.22754108965417
 20
-195.6487357464475
 30
977.0
 10
56.64621498912712
 20
-193.30272877314206
 30
977.0
 10
57.05337865966348
 20
-190.95469800353345
 30
977.0
 10
57.44960161628177
 20
-188.60480916898956
 30
977.0
 10
57.835378477338054
 20
-186.25320350408853
 30
977.0
 10
58.211141944315614
 20
-183.90000000257945
 30
977.0
  0
LINE
  5
78
330
17
100
AcDbEntity
  8
0
100
AcDbLine
 10
26.97782389365939
 20
-206.1
 30
977.0
 11
54.2104137481434
 21
-206.1
 31
977.0
  0
SPLINE
  5
79
330
17
100
AcDbEntity
  8
0
100
AcDbSpline
 70
0
 71
1
 72
4
 73
2
 74
0
 40
0.0
 40
0.0
 40
1.0
 40
1.0
 10
26.97782389365855
 20
-209.90000060000008
 30
977.0
 10
26.97782389365855
 20
-206.09999939999992
 30
977.0
  0
LINE
  5
7A
330
17
100
AcDbEntity
  8
0
100
AcDbLine
 10
26.97782389365939
 20
-209.9
 30
977.0
 11
53.41653722370493
 21
-209.9
 31
977.0
  0
SPLINE
  5
7B
330
17
100
AcDbEntity
  8
0
100
AcDbSpline
 70
0
 71
8
 72
25
 73
16
 74
0
 40
0.0
 40
0.0
 40
0.0
 40
0.0
 40
0.0
 40
0.0
 40
0.0
 40
0.0
 40
0.0
 40
0.6234353064476655
 40
0.6234353064476655
 40
0.6234353064476655
 40
0.6234353064476655
 40
0.6234353064476655
 40
0.6234353064476655
 40
0.6234353064476655
 40
1.0
 40
1.0
 40
1.0
 40
1.0
 40
1.0
 40
1.0
 40
1.0
 40
1.0
 40
1.0
 10
47.76112190188181
 20
-232.09999999315062
 30
977.0
 10
48.29037163826108
 20
-230.39443689983153
 30
977.0
 10
48.798169742424996
 20
-228.6821815401556
 30
977.0
 10
49.28717776682859
 20
-226.96439344611528
 30
977.0
 10
49.75934682411513
 20
-225.24192929561056
 30
977.0
 10
50.21626262297866
 20
-223.51544405875293
 30
977.0
 10
50.65921625914357
 20
-221.78541156302114
 30
977.0
 10
51.08931966055126
 20
-220.05215945404257
 30
977.0
 10
51.76012823994173
 20
-217.2671304632129
 30
977.0
 10
52.00837627580995
 20
-216.21734029093102
 30
977.0
 10
52.252473992702335
 20
-215.1665716185907
 30
977.0
 10
52.492604417994656
 20
-214.1148857842829
 30
977.0
 10
52.72893250435108
 20
-213.06233812677723
 30
977.0
 10
52.96160797601865
 20
-212.00897861463233
 30
977.0
 10
53.19076765121736
 20
-210.9548523580712
 30
977.0
 10
53.41653724062574
 20
-209.90000000362164
 30
977.0
  0
LINE
  5
7C
330
17
100
AcDbEntity
  8
0
100
AcDbLine
 10
26.97782389365939
 20
-232.1
 30
977.0
 11
47.761121923954725
 21
-232.1
 31
977.0
  0
SPLINE
  5
7D
330
17
100
AcDbEntity
  8
0
100
AcDbSpline
 70
0
 71
1
 72
4
 73
2
 74
0
 40
0.0
 40
0.0
 40
1.0
 40
1.0
 10
26.97782389365855
 20
-235.90000060000008
 30
977.0
 10
26.97782389365855
 20
-232.09999939999992
 30
977.0
  0
LINE
  5
7E
330
17
100
AcDbEntity
  8
0
100
AcDbLine
 10
26.97782389365939
 20
-235.9
 30
977.0
 11
46.52633021577117
 21
-235.9
 31
977.0
  0
SPLINE
  5
7F
330
17
100
AcDbEntity
  8
0
100
AcDbSpline
 70
0
 71
8
 72
39
 73
30
 74
0
 40
0.0
 40
0.0
 40
0.0
 40
0.0
 40
0.0
 40
0.0
 40
0.0
 40
0.0
 40
0.0
 40
0.08666423674607315
 40
0.08666423674607315
 40
0.08666423674607315
 40
0.08666423674607315
 40
0.08666423674607315
 40
0.08666423674607315
 40
0.08666423674607315
 40
0.3985774813015213
 40
0.3985774813015213
 40
0.3985774813015213
 40
0.3985774813015213
 40
0.3985774813015213
 40
0.3985774813015213
 40
0.3985774813015213
 40
0.8162837599225214
 40
0.8162837599225214
 40
0.8162837599225214
 40
0.8162837599225214
 40
0.8162837599225214
 40
0.8162837599225214
 40
0.8162837599225214
 40
1.0
 40
1.0
 40
1.0
 40
1.0
 40
1.0
 40
1.0
 40
1.0
 40
1.0
 40
1.0
 10
33.99792064986474
 20
-258.0999999925328
 30
977.0
 10
34.207714975003185
 20
-257.9201438805308
 30
977.0
 10
34.41462021102792
 20
-257.73691162037915
 30
977.0
 10
34.61867386285063
 20
-257.5504773154794
 30
977.0
 10
34.8199190556135
 20
-257.3610058856218
 30
977.0
 10
35.01840380092028
 20
-257.1686521875525
 30
977.0
 10
35.214180416192974
 20
-256.9735603239921
 30
977.0
 10
35.40730509715418
 20
-256.7758631411065
 30
977.0
 10
36.28358330895142
 20
-255.85520968440113
 30
977.0
 10
36.93539145611982
 20
-255.10293812423632
 30
977.0
 10
37.556308057082916
 20
-254.3243618313151
 30
977.0
 10
38.14892539540702
 20
-253.5239632642691
 30
977.0
 10
38.71557737107812
 20
-252.70536160274864
 30
977.0
 10
39.2584272011059
 20
-251.8713784359182
 30
977.0
 10
39.77950434626241
 20
-251.02406523903716
 30
977.0
 10
40.95199956146348
 20
-249.01394789061862
 30
977.0
 10
41.58722904005275
 20
-247.84238800663852
 30
977.0
 10
42.19081139583692
 20
-246.65387701518915
 30
977.0
 10
42.76606721497449
 20
-245.45136340980096
 30
977.0
 10
43.31573416409762
 20
-244.23715699634081
 30
977.0
 10
43.8421649850377
 20
-243.01302462497836
 30
977.0
 10
44.34740139105439
 20
-241.78022563147
 30
977.0
 10
45.046970876986336
 20
-239.99389257656202
 30
977.0
 10
45.26007300933121
 20
-239.4386441318717
 30
977.0
 10
45.472617525949616
 20
-238.87365427531802
 30
977.0
 10
45.68459584925569
 20
-238.29879777251193
 30
977.0
 10
45.89597599525589
 20
-237.71399577567595
 30
977.0
 10
46.10672514239357
 20
-237.1192242004674
 30
977.0
 10
46.31683220039366
 20
-236.51452210280303
 30
977.0
 10
46.526330379107335
 20
-235.90000005568336
 30
977.0
  0
LINE
  5
80
330
17
100
AcDbEntity
  8
0
100
AcDbLine
 10
26.97782389365939
 20
-258.1
 30
977.0
 11
33.99792065626638
 21
-258.1
 31
977.0
  0
SPLINE
  5
81
330
17
100
AcDbEntity
  8
0
100
AcDbSpline
 70
0
 71
1
 72
4
 73
2
 74
0
 40
0.0
 40
0.0
 40
1.0
 40
1.0
 10
26.97782389365855
 20
-261.52804466414005
 30
977.0
 10
26.97782389365855
 20
-258.09999939999994
 30
977.0
  0
SPLINE
  5
82
330
17
100
AcDbEntity
  8
0
100
AcDbSpline
 70
0
 71
8
 72
60
 73
51
 74
0
 40
0.0
 40
0.0
 40
0.0
 40
0.0
 40
0.0
 40
0.0
 40
0.0
 40
0.0
 40
0.0
 40
0.02170389740766811
 40
0.02170389740766811
 40
0.02170389740766811
 40
0.02170389740766811
 40
0.02170389740766811
 40
0.02170389740766811
 40
0.02170389740766811
 40
0.03922636174573817
 40
0.03922636174573817
 40
0.03922636174573817
 40
0.03922636174573817
 40
0.03922636174573817
 40
0.03922636174573817
 40
0.03922636174573817
 40
0.05004512125182886
 40
0.05004512125182886
 40
0.05004512125182886
 40
0.05004512125182886
 40
0.05004512125182886
 40
0.05004512125182886
 40
0.05004512125182886
 40
0.055142375360182974
 40
0.055142375360182974
 40
0.055142375360182974
 40
0.055142375360182974
 40
0.055142375360182974
 40
0.055142375360182974
 40
0.055142375360182974
 40
0.05762989803489405
 40
0.05762989803489405
 40
0.05762989803489405
 40
0.05762989803489405
 40
0.05762989803489405
 40
0.05762989803489405
 40
0.05762989803489405
 40
0.06011743993590013
 40
0.06011743993590013
 40
0.06011743993590013
 40
0.06011743993590013
 40
0.06011743993590013
 40
0.06011743993590013
 40
0.06011743993590013
 40
0.07069749116094386
 40
0.07069749116094386
 40
0.07069749116094386
 40
0.07069749116094386
 40
0.07069749116094386
 40
0.07069749116094386
 40
0.07069749116094386
 40
0.07069749116094386
 40
0.07069749116094386
 10
2.4685770677685355
 20
-232.864436081843
 30
977.0
 10
2.771644523512622
 20
-234.43485052477445
 30
977.0
 10
3.108838005101582
 20
-235.9983348537677
 30
977.0
 10
3.482801803743671
 20
-237.55389026986046
 30
977.0
 10
3.896500445852233
 20
-239.09987926390292
 30
977.0
 10
4.353281135198358
 20
-240.63400498991476
 30
977.0
 10
4.856912497871271
 20
-242.15329900631644
 30
977.0
 10
5.411714809266138
 20
-243.65408100986755
 30
977.0
 10
6.516329738085852
 20
-246.32492229431674
 30
977.0
 10
7.046282332728295
 20
-247.5024384883957
 30
977.0
 10
7.6155354114945455
 20
-248.6623019533548
 30
977.0
 10
8.227005534521023
 20
-249.8013743466573
 30
977.0
 10
8.883693216846371
 20
-250.91550902657545
 30
977.0
 10
9.588631068425473
 20
-251.99958027951337
 30
977.0
 10
10.344831934143487
 20
-253.0475125473303
 30
977.0
 10
11.655599180777859
 20
-254.6726937540079
 30
977.0
 10
12.176501116875535
 20
-255.2764816328765
 30
977.0
 10
12.71853275413587
 20
-255.8619326146135
 30
977.0
 10
13.282146217802428
 20
-256.42706530303684
 30
977.0
 10
13.867620947652055
 20
-256.9696938067871
 30
977.0
 10
14.475012441452572
 20
-257.4874820847937
 30
977.0
 10
15.104084640575453
 20
-257.9780164128587
 30
977.0
 10
16.060539772963935
 20
-258.65603918650254
 30
977.0
 10
16.3715225380073
 20
-258.8665939230182
 30
977.0
 10
16.687102658513844
 20
-259.07030511156444
 30
977.0
 10
17.007191138664396
 20
-259.26692025867925
 30
977.0
 10
17.33167993074928
 20
-259.45619225144384
 30
977.0
 10
17.660440284717193
 20
-259.6378821621476
 30
977.0
 10
17.993321097724152
 20
-259.81176205295236
 30
977.0
 10
18.494522573887952
 20
-260.05855741479473
 30
977.0
 10
18.659346552041825
 20
-260.13734432314595
 30
977.0
 10
18.824610642681407
 20
-260.21398426981176
 30
977.0
 10
18.990306290343852
 20
-260.28848301899365
 30
977.0
 10
19.156424939566133
 20
-260.36084633489304
 30
977.0
 10
19.322958034885012
 20
-260.4310799817115
 30
977.0
 10
19.48989702083705
 20
-260.4991897236507
 30
977.0
 10
19.824570956438208
 20
-260.6311734362294
 30
977.0
 10
19.992305178071618
 20
-260.6950420569823
 30
977.0
 10
20.160427278828674
 20
-260.7568002327483
 30
977.0
 10
20.328928815952555
 20
-260.8164571607249
 30
977.0
 10
20.49780163195972
 20
-260.87401818972984
 30
977.0
 10
20.66703785463999
 20
-260.9294848202012
 30
977.0
 10
20.836629897056493
 20
-260.982854704197
 30
977.0
 10
21.729364246249737
 20
-261.25217098310384
 30
977.0
 10
22.463913636683436
 20
-261.43348134061387
 30
977.0
 10
23.208533460007292
 20
-261.57361759615225
 30
977.0
 10
23.960908580696525
 20
-261.6681791095427
 30
977.0
 10
24.718067067826105
 20
-261.7131537028681
 30
977.0
 10
25.47634417831036
 20
-261.7054347475411
 30
977.0
 10
26.23133378637147
 20
-261.64347422935725
 30
977.0
 10
26.97782389351053
 20
-261.5280446630957
 30
977.0
  0
SPLINE
  5
83
330
17
100
AcDbEntity
  8
0
100
AcDbSpline
 70
0
 71
8
 72
417
 73
408
 74
0
 40
0.0
 40
0.0
 40
0.0
 40
0.0
 40
0.0
 40
0.0
 40
0.0
 40
0.0
 40
0.0
 40
0.0031177518677910875
 40
0.0031177518677910875
 40
0.0031177518677910875
 40
0.0031177518677910875
 40
0.0031177518677910875
 40
0.0031177518677910875
 40
0.0031177518677910875
 40
0.0063748092450656105
 40
0.0063748092450656105
 40
0.0063748092450656105
 40
0.0063748092450656105
 40
0.0063748092450656105
 40
0.0063748092450656105
 40
0.0063748092450656105
 40
0.00995757235993611
 40
0.00995757235993611
 40
0.00995757235993611
 40
0.00995757235993611
 40
0.00995757235993611
 40
0.00995757235993611
 40
0.00995757235993611
 40
0.012237512523887703
 40
0.012237512523887703
 40
0.012237512523887703
 40
0.012237512523887703
 40
0.012237512523887703
 40
0.012237512523887703
 40
0.012237512523887703
 40
0.015494569900907302
 40
0.015494569900907302
 40
0.015494569900907302
 40
0.015494569900907302
 40
0.015494569900907302
 40
0.015494569900907302
 40
0.015494569900907302
 40
0.01907733301559166
 40
0.01907733301559166
 40
0.01907733301559166
 40
0.01907733301559166
 40
0.01907733301559166
 40
0.01907733301559166
 40
0.01907733301559166
 40
0.02540921480973294
 40
0.02540921480973294
 40
0.02540921480973294
 40
0.02540921480973294
 40
0.02540921480973294
 40
0.02540921480973294
 40
0.02540921480973294
 40
0.035906074917332116
 40
0.035906074917332116
 40
0.035906074917332116
 40
0.035906074917332116
 40
0.035906074917332116
 40
0.035906074917332116
 40
0.035906074917332116
 40
0.05824188193692718
 40
0.05824188193692718
 40
0.05824188193692718
 40
0.05824188193692718
 40
0.05824188193692718
 40
0.05824188193692718
 40
0.05824188193692718
 40
0.07328096397078276
 40
0.07328096397078276
 40
0.07328096397078276
 40
0.07328096397078276
 40
0.07328096397078276
 40
0.07328096397078276
 40
0.07328096397078276
 40
0.08118286968132184
 40
0.08118286968132184
 40
0.08118286968132184
 40
0.08118286968132184
 40
0.08118286968132184
 40
0.08118286968132184
 40
0.08118286968132184
 40
0.09085427161773008
 40
0.09085427161773008
 40
0.09085427161773008
 40
0.09085427161773008
 40
0.09085427161773008
 40
0.09085427161773008
 40
0.09085427161773008
 40
0.13619828729091915
 40
0.13619828729091915
 40
0.13619828729091915
 40
0.13619828729091915
 40
0.13619828729091915
 40
0.13619828729091915
 40
0.13619828729091915
 40
0.25176953382723255
 40
0.25176953382723255
 40
0.25176953382723255
 40
0.25176953382723255
 40
0.25176953382723255
 40
0.25176953382723255
 40
0.25176953382723255
 40
0.33693946969196326
 40
0.33693946969196326
 40
0.33693946969196326
 40
0.33693946969196326
 40
0.33693946969196326
 40
0.33693946969196326
 40
0.33693946969196326
 40
0.4222285684461526
 40
0.4222285684461526
 40
0.4222285684461526
 40
0.4222285684461526
 40
0.4222285684461526
 40
0.4222285684461526
 40
0.4222285684461526
 40
0.4902724279651257
 40
0.4902724279651257
 40
0.4902724279651257
 40
0.4902724279651257
 40
0.4902724279651257
 40
0.4902724279651257
 40
0.4902724279651257
 40
0.549111483719368
 40
0.549111483719368
 40
0.549111483719368
 40
0.549111483719368
 40
0.549111483719368
 40
0.549111483719368
 40
0.549111483719368
 40
0.5893404823044051
 40
0.5893404823044051
 40
0.5893404823044051
 40
0.5893404823044051
 40
0.5893404823044051
 40
0.5893404823044051
 40
0.5893404823044051
 40
0.6037406465940641
 40
0.6037406465940641
 40
0.6037406465940641
 40
0.6037406465940641
 40
0.6037406465940641
 40
0.6037406465940641
 40
0.6037406465940641
 40
0.6163420240165534
 40
0.6163420240165534
 40
0.6163420240165534
 40
0.6163420240165534
 40
0.6163420240165534
 40
0.6163420240165534
 40
0.6163420240165534
 40
0.6309685821937293
 40
0.6309685821937293
 40
0.6309685821937293
 40
0.6309685821937293
 40
0.6309685821937293
 40
0.6309685821937293
 40
0.6309685821937293
 40
0.6384958650336183
 40
0.6384958650336183
 40
0.6384958650336183
 40
0.6384958650336183
 40
0.6384958650336183
 40
0.6384958650336183
 40
0.6384958650336183
 40
0.6426522259263202
 40
0.6426522259263202
 40
0.6426522259263202
 40
0.6426522259263202
 40
0.6426522259263202
 40
0.6426522259263202
 40
0.6426522259263202
 40
0.6461697732158416
 40
0.6461697732158416
 40
0.6461697732158416
 40
0.6461697732158416
 40
0.6461697732158416
 40
0.6461697732158416
 40
0.6461697732158416
 40
0.6473790737181092
 40
0.6473790737181092
 40
0.6473790737181092
 40
0.6473790737181092
 40
0.6473790737181092
 40
0.6473790737181092
 40
0.6473790737181092
 40
0.6493945745552369
 40
0.6493945745552369
 40
0.6493945745552369
 40
0.6493945745552369
 40
0.6493945745552369
 40
0.6493945745552369
 40
0.6493945745552369
 40
0.6514100753923594
 40
0.6514100753923594
 40
0.6514100753923594
 40
0.6514100753923594
 40
0.6514100753923594
 40
0.6514100753923594
 40
0.6514100753923594
 40
0.653549798608911
 40
0.653549798608911
 40
0.653549798608911
 40
0.653549798608911
 40
0.653549798608911
 40
0.653549798608911
 40
0.653549798608911
 40
0.6555836092995291
 40
0.6555836092995291
 40
0.6555836092995291
 40
0.6555836092995291
 40
0.6555836092995291
 40
0.6555836092995291
 40
0.6555836092995291
 40
0.6575986316819926
 40
0.6575986316819926
 40
0.6575986316819926
 40
0.6575986316819926
 40
0.6575986316819926
 40
0.6575986316819926
 40
0.6575986316819926
 40
0.6596136540644646
 40
0.6596136540644646
 40
0.6596136540644646
 40
0.6596136540644646
 40
0.6596136540644646
 40
0.6596136540644646
 40
0.6596136540644646
 40
0.6612928393831987
 40
0.6612928393831987
 40
0.6612928393831987
 40
0.6612928393831987
 40
0.6612928393831987
 40
0.6612928393831987
 40
0.6612928393831987
 40
0.6629720247019384
 40
0.6629720247019384
 40
0.6629720247019384
 40
0.6629720247019384
 40
0.6629720247019384
 40
0.6629720247019384
 40
0.6629720247019384
 40
0.6662364937660238
 40
0.6662364937660238
 40
0.6662364937660238
 40
0.6662364937660238
 40
0.6662364937660238
 40
0.6662364937660238
 40
0.6662364937660238
 40
0.6716483366566227
 40
0.6716483366566227
 40
0.6716483366566227
 40
0.6716483366566227
 40
0.6716483366566227
 40
0.6716483366566227
 40
0.6716483366566227
 40
0.6831640236882217
 40
0.6831640236882217
 40
0.6831640236882217
 40
0.6831640236882217
 40
0.6831640236882217
 40
0.6831640236882217
 40
0.6831640236882217
 40
0.6909177445447288
 40
0.6909177445447288
 40
0.6909177445447288
 40
0.6909177445447288
 40
0.6909177445447288
 40
0.6909177445447288
 40
0.6909177445447288
 40
0.6949917418201166
 40
0.6949917418201166
 40
0.6949917418201166
 40
0.6949917418201166
 40
0.6949917418201166
 40
0.6949917418201166
 40
0.6949917418201166
 40
0.6999780391991416
 40
0.6999780391991416
 40
0.6999780391991416
 40
0.6999780391991416
 40
0.6999780391991416
 40
0.6999780391991416
 40
0.6999780391991416
 40
0.7233508767465254
 40
0.7233508767465254
 40
0.7233508767465254
 40
0.7233508767465254
 40
0.7233508767465254
 40
0.7233508767465254
 40
0.7233508767465254
 40
0.7828482217503643
 40
0.7828482217503643
 40
0.7828482217503643
 40
0.7828482217503643
 40
0.7828482217503643
 40
0.7828482217503643
 40
0.7828482217503643
 40
0.8265993485185223
 40
0.8265993485185223
 40
0.8265993485185223
 40
0.8265993485185223
 40
0.8265993485185223
 40
0.8265993485185223
 40
0.8265993485185223
 40
0.8703073790220227
 40
0.8703073790220227
 40
0.8703073790220227
 40
0.8703073790220227
 40
0.8703073790220227
 40
0.8703073790220227
 40
0.8703073790220227
 40
0.905116692745821
 40
0.905116692745821
 40
0.905116692745821
 40
0.905116692745821
 40
0.905116692745821
 40
0.905116692745821
 40
0.905116692745821
 40
0.9351835451390031
 40
0.9351835451390031
 40
0.9351835451390031
 40
0.9351835451390031
 40
0.9351835451390031
 40
0.9351835451390031
 40
0.9351835451390031
 40
0.9563943979312772
 40
0.9563943979312772
 40
0.9563943979312772
 40
0.9563943979312772
 40
0.9563943979312772
 40
0.9563943979312772
 40
0.9563943979312772
 40
0.9643444069315411
 40
0.9643444069315411
 40
0.9643444069315411
 40
0.9643444069315411
 40
0.9643444069315411
 40
0.9643444069315411
 40
0.9643444069315411
 40
0.9720276331746462
 40
0.9720276331746462
 40
0.9720276331746462
 40
0.9720276331746462
 40
0.9720276331746462
 40
0.9720276331746462
 40
0.9720276331746462
 40
0.9809168488420656
 40
0.9809168488420656
 40
0.9809168488420656
 40
0.9809168488420656
 40
0.9809168488420656
 40
0.9809168488420656
 40
0.9809168488420656
 40
0.9854667416599162
 40
0.9854667416599162
 40
0.9854667416599162
 40
0.9854667416599162
 40
0.9854667416599162
 40
0.9854667416599162
 40
0.9854667416599162
 40
0.9879701501278892
 40
0.9879701501278892
 40
0.9879701501278892
 40
0.9879701501278892
 40
0.9879701501278892
 40
0.9879701501278892
 40
0.9879701501278892
 40
0.9904735585958612
 40
0.9904735585958612
 40
0.9904735585958612
 40
0.9904735585958612
 40
0.9904735585958612
 40
0.9904735585958612
 40
0.9904735585958612
 40
0.9917252628298466
 40
0.9917252628298466
 40
0.9917252628298466
 40
0.9917252628298466
 40
0.9917252628298466
 40
0.9917252628298466
 40
0.9917252628298466
 40
0.9938114365531544
 40
0.9938114365531544
 40
0.9938114365531544
 40
0.9938114365531544
 40
0.9938114365531544
 40
0.9938114365531544
 40
0.9938114365531544
 40
0.9958976102764556
 40
0.9958976102764556
 40
0.9958976102764556
 40
0.9958976102764556
 40
0.9958976102764556
 40
0.9958976102764556
 40
0.9958976102764556
 40
0.9973579318827694
 40
0.9973579318827694
 40
0.9973579318827694
 40
0.9973579318827694
 40
0.9973579318827694
 40
0.9973579318827694
 40
0.9973579318827694
 40
1.0
 40
1.0
 40
1.0
 40
1.0
 40
1.0
 40
1.0
 40
1.0
 40
1.0
 40
1.0
 10
2.468577067768542
 20
232.86443608184297
 30
977.0
 10
2.4684334770431318
 20
232.86457967116752
 30
977.0
 10
2.468462004695461
 20
232.86437756725007
 30
977.0
 10
2.4685525146877243
 20
232.86414532105147
 30
977.0
 10
2.4686301302062197
 20
232.86403869683977
 30
977.0
 10
2.4686552336613534
 20
232.86405367219007
 30
977.0
 10
2.468623466687634
 20
232.8640264379847
 30
977.0
 10
2.4685657301436743
 20
232.86363339841319
 30
977.0
 10
2.4685298540995135
 20
232.86109343907322
 30
977.0
 10
2.4685026612235585
 20
232.85916823241
 30
977.0
 10
2.4684641057023797
 20
232.85643857092094
 30
977.0
 10
2.468411687754027
 20
232.85272747454417
 30
977.0
 10
2.468342907596553
 20
232.84785796321785
 30
977.0
 10
2.4682552654480077
 20
232.84165305688043
 30
977.0
 10
2.4681462615264427
 20
232.83393577547017
 30
977.0
 10
2.467867244025727
 20
232.81418183872634
 30
977.0
 10
2.4676922195200213
 20
232.8017904188139
 30
977.0
 10
2.4674849953230273
 20
232.78711931872627
 30
977.0
 10
2.467242244224974
 20
232.76993297800178
 30
977.0
 10
2.4669606390160896
 20
232.7499958361783
 30
977.0
 10
2.4666368524865976
 20
232.72707233279363
 30
977.0
 10
2.4662675574267183
 20
232.70092690738514
 30
977.0
 10
2.465583343390283
 20
232.6524857853758
 30
977.0
 10
2.4652974836971318
 20
232.6322474337254
 30
977.0
 10
2.464990990122013
 20
232.61054824037828
 30
977.0
 10
2.464663005239719
 20
232.58732750117343
 30
977.0
 10
2.4643126716250445
 20
232.5625245119498
 30
977.0
 10
2.4639391318527784
 20
232.53607856854597
 30
977.0
 10
2.46354152849771
 20
232.50792896680062
 30
977.0
 10
2.4625153979016536
 20
232.4352807679125
 30
977.0
 10
2.4618609324686576
 20
232.38894579347118
 30
977.0
 10
2.4611531080536904
 20
232.33883309916686
 30
977.0
 10
2.4603894248748053
 20
232.28476570493805
 30
977.0
 10
2.459567383150055
 20
232.22656663072314
 30
977.0
 10
2.4586844830974894
 20
232.16405889646038
 30
977.0
 10
2.457738224935156
 20
232.09706552208777
 30
977.0
 10
2.4556127812216544
 20
231.9465879335453
 30
977.0
 10
2.4544197655132174
 20
231.86212456913893
 30
977.0
 10
2.4531437345460274
 20
231.77178387386263
 30
977.0
 10
2.451781361110315
 20
231.67533028725487
 30
977.0
 10
2.4503293179963093
 20
231.57252824885356
 30
977.0
 10
2.448784277994234
 20
231.4631421981965
 30
977.0
 10
2.447142913894309
 20
231.34693657482114
 30
977.0
 10
2.442324970593513
 20
231.00583486272575
 30
977.0
 10
2.4392456576227373
 20
230.78782504798326
 30
977.0
 10
2.4361647820398877
 20
230.56970460314741
 30
977.0
 10
2.4330827927208207
 20
230.35150530775834
 30
977.0
 10
2.429999991695682
 20
230.1332485450414
 30
977.0
 10
2.42691657353998
 20
229.91494809062578
 30
977.0
 10
2.423832606923866
 20
229.69660880617062
 30
977.0
 10
2.4156346371262734
 20
229.1162073030637
 30
977.0
 10
2.4105199555536374
 20
228.7540970555334
 30
977.0
 10
2.4054043978826227
 20
228.39192478180928
 30
977.0
 10
2.400288182899691
 20
228.0297059715883
 30
977.0
 10
2.3951714628173
 20
227.6674514012374
 30
977.0
 10
2.3900543405190784
 20
227.30516835472704
 30
977.0
 10
2.3849368686131283
 20
226.9428605566186
 30
977.0
 10
2.368929113452487
 20
225.80954030953376
 30
977.0
 10
2.3580378482975917
 20
225.03845834379112
 30
977.0
 10
2.3471456952181895
 20
224.2673135145876
 30
977.0
 10
2.3362528978932007
 20
223.4961230739618
 30
977.0
 10
2.3253596216899686
 20
222.7248987296179
 30
977.0
 10
2.3144659747791665
 20
221.9536481398398
 30
977.0
 10
2.303572002190597
 20
221.18237449266806
 30
977.0
 10
2.285342394609269
 20
219.89175109413387
 30
977.0
 10
2.2777740168493352
 20
219.35592357385724
 30
977.0
 10
2.269968256159459
 20
218.80328976949434
 30
977.0
 10
2.2619207929164338
 20
218.23354385949847
 30
977.0
 10
2.2536273074970508
 20
217.64638002232283
 30
977.0
 10
2.245083480278102
 20
217.0414924364209
 30
977.0
 10
2.2362849916363787
 20
216.418575280246
 30
977.0
 10
2.222468503327243
 20
215.44039278137478
 30
977.0
 10
2.217709493373876
 20
215.10346106158354
 30
977.0
 10
2.21295044429351
 20
214.76652767642824
 30
977.0
 10
2.2081913349758215
 20
214.42959272242487
 30
977.0
 10
2.2034321709952183
 20
214.09265628905464
 30
977.0
 10
2.198672984610844
 20
213.75571845876388
 30
977.0
 10
2.193913834766577
 20
213.4187793069642
 30
977.0
 10
2.183330076809153
 20
212.66944647366398
 30
977.0
 10
2.177414517555743
 20
212.25059709452376
 30
977.0
 10
2.171409461450195
 20
211.82535116661748
 30
977.0
 10
2.1653162406119058
 20
211.39376909195033
 30
977.0
 10
2.1591361871602657
 20
210.9559112725274
 30
977.0
 10
2.1528706332146617
 20
210.51183811035358
 30
977.0
 10
2.146520910894479
 20
210.06161000743336
 30
977.0
 10
2.109929535760905
 20
207.46583528306257
 30
977.0
 10
2.0798379259281305
 20
205.3263513092264
 30
977.0
 10
2.049848020279714
 20
203.18684425116803
 30
977.0
 10
2.019977303310897
 20
201.04731908696758
 30
977.0
 10
1.9902386222045698
 20
198.90777925958741
 30
977.0
 10
1.9606427097766868
 20
196.768227155336
 30
977.0
 10
1.9311974087605597
 20
194.62866398206842
 30
977.0
 10
1.8272638110065293
 20
187.03581934636628
 30
977.0
 10
1.7536440729111262
 20
181.58248566859447
 30
977.0
 10
1.6811701616487127
 20
176.12910654789295
 30
977.0
 10
1.6099177707462182
 20
170.67568941913538
 30
977.0
 10
1.5399730962445615
 20
165.22224031072875
 30
977.0
 10
1.4714207123294254
 20
159.76876193350466
 30
977.0
 10
1.4043591933496244
 20
154.31525586624144
 30
977.0
 10
1.290662739259994
 20
144.84275395001595
 30
977.0
 10
1.2432948790255594
 20
140.82377167023157
 30
977.0
 10
1.1968437386495943
 20
136.80477554947888
 30
977.0
 10
1.1513591379658532
 20
132.78576596589744
 30
977.0
 10
1.1068967980124542
 20
128.766743206677
 30
977.0
 10
1.0635201728390287
 20
124.74770747598548
 30
977.0
 10
1.02130228131387
 20
120.72865890289687
 30
977.0
 10
0.9392954680009908
 20
112.68491304998085
 30
977.0
 10
0.899512688377623
 20
108.66021579012532
 30
977.0
 10
0.8608925300001022
 20
104.63550758755923
 30
977.0
 10
0.823360190254897
 20
100.61079008546648
 30
977.0
 10
0.786850821222631
 20
96.58606479832642
 30
977.0
 10
0.7513076169248957
 20
92.56133315783197
 30
977.0
 10
0.7166799005710633
 20
88.53659655880777
 30
977.0
 10
0.6559884442006881
 20
81.30090849246905
 30
977.0
 10
0.6296088784823762
 20
78.0899583838208
 30
977.0
 10
0.6037591408944696
 20
74.87900678052064
 30
977.0
 10
0.5784177749383201
 20
71.66805445766927
 30
977.0
 10
0.5535649296405497
 20
68.45710227131144
 30
977.0
 10
0.5291819695800354
 20
65.2461511908297
 30
977.0
 10
0.5052510066736593
 20
62.03520235655149
 30
977.0
 10
0.4614362694307216
 20
56.047680633428534
 30
977.0
 10
0.4414429417036557
 20
53.27110704031463
 30
977.0
 10
0.42176287788031996
 20
50.49453711803873
 30
977.0
 10
0.4023847828010001
 20
47.717971907024065
 30
977.0
 10
0.3832968649406974
 20
44.94141287928644
 30
977.0
 10
0.3644866856722224
 20
42.164861971259796
 30
977.0
 10
0.3459401267217336
 20
39.38832178130871
 30
977.0
 10
0.31512469264228826
 20
34.71345090428609
 30
977.0
 10
0.3027256552540216
 20
32.81511321668512
 30
977.0
 10
0.2904346076942889
 20
30.916783766186057
 30
977.0
 10
0.2782447395822132
 20
29.018463885817994
 30
977.0
 10
0.2661464207684207
 20
27.120156137554915
 30
977.0
 10
0.2541279188561123
 20
25.22186417688667
 30
977.0
 10
0.24217299741142606
 20
23.32359327367929
 30
977.0
 10
0.22598104307170974
 20
20.745868478741812
 30
977.0
 10
0.22171646425534863
 20
20.06638818149085
 30
977.0
 10
0.21745654142864712
 20
19.38691214603307
 30
977.0
 10
0.21319272299148562
 20
18.707441595409193
 30
977.0
 10
0.20892972509054086
 20
18.027976624381438
 30
977.0
 10
0.20466745061634484
 20
17.348518073311936
 30
977.0
 10
0.20040471479571176
 20
16.669066838183426
 30
977.0
 10
0.1924120257425331
 20
15.395053261763422
 30
977.0
 10
0.1886819503283116
 20
14.80048906851449
 30
977.0
 10
0.18495191970388397
 20
14.205932014642041
 30
977.0
 10
0.1812219392760361
 20
13.611382961971787
 30
977.0
 10
0.17749201602957265
 20
13.016843023862268
 30
977.0
 10
0.17376215878703088
 20
12.42231360660392
 30
977.0
 10
0.17003237867189946
 20
11.82779648325323
 30
977.0
 10
0.1619735986133783
 20
10.543248174714215
 30
977.0
 10
0.1576446510021685
 20
9.85322533114666
 30
977.0
 10
0.1533158499407281
 20
9.163225847197175
 30
977.0
 10
0.14898721600742593
 20
8.473253003064912
 30
977.0
 10
0.14465879718820646
 20
7.783314447552069
 30
977.0
 10
0.14033066656927717
 20
7.0934218303742185
 30
977.0
 10
0.1360029315577581
 20
6.403592272000864
 30
977.0
 10
0.12944889031954088
 20
5.358895366822903
 30
977.0
 10
0.12722218750400527
 20
5.003964804800788
 30
977.0
 10
0.1249956726877513
 20
4.649064209399096
 30
977.0
 10
0.12276937175849345
 20
4.294197706986097
 30
977.0
 10
0.12054334736103672
 20
3.9393752830134083
 30
977.0
 10
0.11831769530261027
 20
3.5846122089360293
 30
977.0
 10
0.11609255671477448
 20
3.229930980688181
 30
977.0
 10
0.11263993816537311
 20
2.679592680665451
 30
977.0
 10
0.11147541425365692
 20
2.4939706373554644
 30
977.0
 10
0.1103726791369593
 20
2.318197565174019
 30
977.0
 10
0.10932980465430248
 20
2.1519661203414904
 30
977.0
 10
0.10834486264470762
 20
1.994968959078075
 30
977.0
 10
0.10741592494719505
 20
1.8468987376037942
 30
977.0
 10
0.10654106340078395
 20
1.7074481121384935
 30
977.0
 10
0.10502208358785747
 20
1.4653267320746863
 30
977.0
 10
0.10432623212748116
 20
1.3544098426861524
 30
977.0
 10
0.10363075183599468
 20
1.243552116591502
 30
977.0
 10
0.10293569820748605
 20
1.1327623995808835
 30
977.0
 10
0.10224119032023538
 20
1.0220596721038078
 30
977.0
 10
0.10154751395377382
 20
0.9114894870029104
 30
977.0
 10
0.1008550290740633
 20
0.8011092216806901
 30
977.0
 10
0.09992713376189301
 20
0.6532051536835156
 30
977.0
 10
0.09969964794850134
 20
0.6169445143948311
 30
977.0
 10
0.09948182485092708
 20
0.5822240865486877
 30
977.0
 10
0.09927342344904667
 20
0.549005452172428
 30
977.0
 10
0.09907420272273727
 20
0.5172501932935002
 30
977.0
 10
0.09888392165187668
 20
0.4869198919394588
 30
977.0
 10
0.09870233921634351
 20
0.4579761301379648
 30
977.0
 10
0.0982406730288039
 20
0.38438775621446547
 30
977.0
 10
0.09797562503716012
 20
0.34213980467897287
 30
977.0
 10
0.09773295458718519
 20
0.3034587743265028
 30
977.0
 10
0.09751154584497884
 20
0.2681668041732706
 30
977.0
 10
0.09731028297664084
 20
0.23608603323551286
 30
977.0
 10
0.09712805014827111
 20
0.20703860052948644
 30
977.0
 10
0.09696373152596972
 20
0.180846645071469
 30
977.0
 10
0.0966686910257042
 20
0.13381796668411994
 30
977.0
 10
0.09653796914773978
 20
0.11298124375467873
 30
977.0
 10
0.09642292980804358
 20
0.09464427610577833
 30
977.0
 10
0.09632245717271556
 20
0.07862920275372816
 30
977.0
 10
0.09623543540785569
 20
0.06475816271480384
 30
977.0
 10
0.0961607486795638
 20
0.05285329500524733
 30
977.0
 10
0.09609728115393978
 20
0.04273673864126692
 30
977.0
 10
0.0959872638202382
 20
0.02520026551630039
 30
977.0
 10
0.09593637394781895
 20
0.017088553949200502
 30
977.0
 10
0.09589472857340303
 20
0.010450390954019895
 30
977.0
 10
0.09586437404225912
 20
0.005611958688234608
 30
977.0
 10
0.09584526638151453
 20
0.002566247932783483
 30
977.0
 10
0.09583531466599449
 20
0.0009799706627049432
 30
977.0
 10
0.09583116137552433
 20
0.0003179471181944393
 30
977.0
 10
0.09582838488300077
 20
-0.00012461847472167165
 30
977.0
 10
0.09583015113047932
 20
4.969317948422258e-05
 30
977.0
 10
0.09582759125223322
 20
0.00019833237633193335
 30
977.0
 10
0.09582910489842389
 20
-6.698407108274296e-05
 30
977.0
 10
0.09583718980846695
 20
-0.0011945642786344024
 30
977.0
 10
0.09585161922130425
 20
-0.0036080919833949565
 30
977.0
 10
0.09587651544980252
 20
-0.0075472670619411986
 30
977.0
 10
0.09594375537341883
 20
-0.018265133726657726
 30
977.0
 10
0.09598773656600522
 20
-0.025275619945903473
 30
977.0
 10
0.09604416316127626
 20
-0.034269870562687696
 30
977.0
 10
0.09611496332021109
 20
-0.04555522935689526
 30
977.0
 10
0.09620206520378904
 20
-0.05943904010842971
 30
977.0
 10
0.09630739697298964
 20
-0.07622864659721326
 30
977.0
 10
0.09643288678879249
 20
-0.0962313926031868
 30
977.0
 10
0.0967280388355629
 20
-0.14327785120953257
 30
977.0
 10
0.09689770106652812
 20
-0.17032156380953312
 30
977.0
 10
0.09709137766605355
 20
-0.20119310348640945
 30
977.0
 10
0.0973109967951193
 20
-0.23619981402018844
 30
977.0
 10
0.09755848661470497
 20
-0.2756490391908264
 30
977.0
 10
0.0978357752857898
 20
-0.319848122778209
 30
977.0
 10
0.09814479096935248
 20
-0.3691044085621513
 30
977.0
 10
0.09877302087388841
 20
-0.4692426001228114
 30
977.0
 10
0.09908195156963762
 20
-0.5184853390732534
 30
977.0
 10
0.09941536974752092
 20
-0.5716313181577175
 30
977.0
 10
0.0997743912414395
 20
-0.6288583983600919
 30
977.0
 10
0.10016013188529373
 20
-0.6903444406641583
 30
977.0
 10
0.10057370751298318
 20
-0.7562673060535932
 30
977.0
 10
0.10101623395840666
 20
-0.8268048555119663
 30
977.0
 10
0.10196142015251917
 20
-0.9774650445337586
 30
977.0
 10
0.10246407990121084
 20
-1.0575876840975311
 30
977.0
 10
0.1029979221354371
 20
-1.1426807296977932
 30
977.0
 10
0.10356406268909814
 20
-1.2329220423182812
 30
977.0
 10
0.10416361739609391
 20
-1.3284894829427345
 30
977.0
 10
0.10479770209032459
 20
-1.4295609125548945
 30
977.0
 10
0.10546743260569034
 20
-1.5363141921385048
 30
977.0
 10
0.10754740143084401
 20
-1.8678557426911446
 30
977.0
 10
0.10892193247563431
 20
-2.086952369695723
 30
977.0
 10
0.11029715428835507
 20
-2.306159103300036
 30
977.0
 10
0.11167286842572355
 20
-2.5254443121420707
 30
977.0
 10
0.11304894137060473
 20
-2.7447867139568736
 30
977.0
 10
0.11442528710970679
 20
-2.964172598465929
 30
977.0
 10
0.11580187528912678
 20
-3.1835971273098735
 30
977.0
 10
0.11946122302075268
 20
-3.766887514301544
 30
977.0
 10
0.12174428245124247
 20
-4.130801172249953
 30
977.0
 10
0.12402772915495142
 20
-4.494776560545301
 30
977.0
 10
0.1263114664175944
 20
-4.858798263147406
 30
977.0
 10
0.1285954269531272
 20
-5.222855554861969
 30
977.0
 10
0.13087956528175637
 20
-5.586941186350025
 30
977.0
 10
0.13316385815042425
 20
-5.95105145109186
 30
977.0
 10
0.14030928424654254
 20
-7.090013544474015
 30
977.0
 10
0.14517085151379905
 20
-7.8649345579066505
 30
977.0
 10
0.15003281127661905
 20
-8.63991813410977
 30
977.0
 10
0.15489505581912733
 20
-9.41494710342829
 30
977.0
 10
0.15975751204210625
 20
-10.190009814058484
 30
977.0
 10
0.16462013212992177
 20
-10.96509864432926
 30
977.0
 10
0.16948289617883794
 20
-11.740210421602814
 30
977.0
 10
0.17762008451536151
 20
-13.03725680306995
 30
977.0
 10
0.180998400162382
 20
-13.57575141622202
 30
977.0
 10
0.18448267701958485
 20
-14.131135967096926
 30
977.0
 10
0.18807484324794785
 20
-14.703717799474344
 30
977.0
 10
0.19177682700845
 20
-15.293804257134104
 30
977.0
 10
0.19559055646207107
 20
-15.901702683856175
 30
977.0
 10
0.19951795976979178
 20
-16.52772042342069
 30
977.0
 10
0.20568526037924298
 20
-17.510771891334286
 30
977.0
 10
0.20780960019262146
 20
-17.84938072281177
 30
977.0
 10
0.2099339348788277
 20
-18.187991211999208
 30
977.0
 10
0.21205824147587193
 20
-18.526603263304693
 30
977.0
 10
0.21418252371367638
 20
-18.865216787585595
 30
977.0
 10
0.21630681201407523
 20
-19.203831702148523
 30
977.0
 10
0.21843116349081448
 20
-19.54244793074936
 30
977.0
 10
0.22315590450752912
 20
-20.29551030946836
 30
977.0
 10
0.22579722562093335
 20
-20.7164438336592
 30
977.0
 10
0.2284797172529182
 20
-21.143804667692155
 30
977.0
 10
0.23120347136663685
 20
-21.57753150309357
 30
977.0
 10
0.23396857992524267
 20
-22.01756303138977
 30
977.0
 10
0.23677513489188834
 20
-22.46383794410706
 30
977.0
 10
0.2396232282297268
 20
-22.916294932771724
 30
977.0
 10
0.2560582815950253
 20
-25.524416244445682
 30
977.0
 10
0.2696710958262083
 20
-27.673990133298176
 30
977.0
 10
0.28338552553380747
 20
-29.82358489594905
 30
977.0
 10
0.29721888633108495
 20
-31.97319522936462
 30
977.0
 10
0.31118392530804667
 20
-34.12281745006063
 30
977.0
 10
0.3252913164176583
 20
-36.272448967582775
 30
977.0
 10
0.33954889164272223
 20
-38.42208842261367
 30
977.0
 10
0.39065909779056307
 20
-46.04382522944712
 30
977.0
 10
0.42837532741804196
 20
-51.515956703143615
 30
977.0
 10
0.46723160843952716
 20
-56.988109993630246
 30
977.0
 10
0.5073041673106458
 20
-62.46027618507674
 30
977.0
 10
0.5486798657149281
 20
-67.9324475523917
 30
977.0
 10
0.5914444133669807
 20
-73.40461966475738
 30
977.0
 10
0.635697872766688
 20
-78.87678893404617
 30
977.0
 10
0.7152766059079344
 20
-88.37288660866093
 30
977.0
 10
0.7498650494684184
 20
-92.39681649175068
 30
977.0
 10
0.7853670989387802
 20
-96.42074146124465
 30
977.0
 10
0.8218332482016467
 20
-100.44466012290125
 30
977.0
 10
0.8593200729456378
 20
-104.46857104744788
 30
977.0
 10
0.897892150675158
 20
-108.49247272441411
 30
977.0
 10
0.9376239807201857
 20
-112.51636351596517
 30
977.0
 10
1.019539463201521
 20
-120.5601560563805
 30
977.0
 10
1.0617233380546949
 20
-124.58005772006138
 30
977.0
 10
1.1050687955617695
 20
-128.59994654013823
 30
977.0
 10
1.1495025216415848
 20
-132.6198223883782
 30
977.0
 10
1.1949607975219534
 20
-136.63968506212709
 30
977.0
 10
1.2413876758859768
 20
-140.65953427648142
 30
977.0
 10
1.2887331570183627
 20
-144.67936965646044
 30
977.0
 10
1.3753526085634398
 20
-151.90059814154287
 30
977.0
 10
1.414307456928586
 20
-155.10199641156976
 30
977.0
 10
1.4537929391610118
 20
-158.30338530865646
 30
977.0
 10
1.4937879289890752
 20
-161.50476448852473
 30
977.0
 10
1.5342728483755808
 20
-164.70613349223893
 30
977.0
 10
1.5752292871351532
 20
-167.90749172140522
 30
977.0
 10
1.616639538549047
 20
-171.10883838955155
 30
977.0
 10
1.694631345950362
 20
-177.07535303931877
 30
977.0
 10
1.731102125381573
 20
-179.84052400611654
 30
977.0
 10
1.7678870251477006
 20
-182.605684845034
 30
977.0
 10
1.8049748505009324
 20
-185.37083473845902
 30
977.0
 10
1.842353877133245
 20
-188.13597244439057
 30
977.0
 10
1.8800117021616578
 20
-190.90109626622692
 30
977.0
 10
1.9179342006998301
 20
-193.6662038748082
 30
977.0
 10
1.9830279624992628
 20
-198.38194063347947
 30
977.0
 10
2.0100759609732877
 20
-200.33257872099006
 30
977.0
 10
2.037239102969332
 20
-202.28320555710008
 30
977.0
 10
2.0645099738126587
 20
-204.2338198991162
 30
977.0
 10
2.091877586130787
 20
-206.18441904926507
 30
977.0
 10
2.119328623822236
 20
-208.13499907562507
 30
977.0
 10
2.1468445483086267
 20
-210.0855542468047
 30
977.0
 10
2.18470875954022
 20
-212.7671454851223
 30
977.0
 10
2.1947666903818672
 20
-213.47920820546645
 30
977.0
 10
2.204558065668785
 20
-214.17222455735651
 30
977.0
 10
2.2140748169672517
 20
-214.84626925627904
 30
977.0
 10
2.2233330249775927
 20
-215.50153061484903
 30
977.0
 10
2.232326090260807
 20
-216.13830844484062
 30
977.0
 10
2.241065346658437
 20
-216.75701580987587
 30
977.0
 10
2.2577628196188275
 20
-217.93916683550447
 30
977.0
 10
2.2659689892505144
 20
-218.52014887210308
 30
977.0
 10
2.274175055048794
 20
-219.10112355748353
 30
977.0
 10
2.2823810043871786
 20
-219.68208999771315
 30
977.0
 10
2.290586820911268
 20
-220.26304703492968
 30
977.0
 10
2.2987924839204488
 20
-220.84399320356692
 30
977.0
 10
2.306997967258884
 20
-221.42492665183903
 30
977.0
 10
2.3246964397110674
 20
-222.67794663941666
 30
977.0
 10
2.3341893068583186
 20
-223.35002454371397
 30
977.0
 10
2.343681833623984
 20
-224.02207834960728
 30
977.0
 10
2.3531739728755765
 20
-224.69410472020255
 30
977.0
 10
2.362665611706815
 20
-225.3660956619376
 30
977.0
 10
2.3721565775762716
 20
-226.03803895918927
 30
977.0
 10
2.3816466163172443
 20
-226.709916617414
 30
977.0
 10
2.395992002170154
 20
-227.72554411022577
 30
977.0
 10
2.4008482853755497
 20
-228.0693602185449
 30
977.0
 10
2.405704129003954
 20
-228.41314520560357
 30
977.0
 10
2.410559473747978
 20
-228.75689487254712
 30
977.0
 10
2.4154141707297274
 20
-229.10059867908777
 30
977.0
 10
2.420267991322751
 20
-229.44424043888358
 30
977.0
 10
2.4251205977993946
 20
-229.78779624142612
 30
977.0
 10
2.4326403592076744
 20
-230.3201818115281
 30
977.0
 10
2.435168742959507
 20
-230.49918682938326
 30
977.0
 10
2.4375608622337706
 20
-230.66854456753947
 30
977.0
 10
2.4398210366536754
 20
-230.8285608475435
 30
977.0
 10
2.4419535858424286
 20
-230.97954149094198
 30
977.0
 10
2.4439628294232385
 20
-231.1217923192815
 30
977.0
 10
2.4458530870193136
 20
-231.25561915410876
 30
977.0
 10
2.449404269488411
 20
-231.50703647983204
 30
977.0
 10
2.4510651943614343
 20
-231.6246269707281
 30
977.0
 10
2.4526157724961393
 20
-231.73440511120504
 30
977.0
 10
2.4540603235157326
 20
-231.8366767228098
 30
977.0
 10
2.455403167043423
 20
-231.93174762708884
 30
977.0
 10
2.4566486227024202
 20
-232.01992364558882
 30
977.0
 10
2.4578010101159324
 20
-232.10151059985645
 30
977.0
 10
2.459396468302784
 20
-232.2144661672293
 30
977.0
 10
2.459906100542832
 20
-232.25054721234886
 30
977.0
 10
2.4603940855802118
 20
-232.2850956744903
 30
977.0
 10
2.4608609633678244
 20
-232.318149781347
 30
977.0
 10
2.46130727385857
 20
-232.34974776061225
 30
977.0
 10
2.4617335570053505
 20
-232.37992783997933
 30
977.0
 10
2.4621403527610664
 20
-232.40872824714162
 30
977.0
 10
2.463174614941209
 20
-232.48195214754404
 30
977.0
 10
2.463768397031122
 20
-232.52399085054157
 30
977.0
 10
2.464312047130309
 20
-232.56248029884674
 30
977.0
 10
2.4648080650207187
 20
-232.59759747252133
 30
977.0
 10
2.4652589504842997
 20
-232.62951935162715
 30
977.0
 10
2.465667203303002
 20
-232.65842291622576
 30
977.0
 10
2.466035323258774
 20
-232.684485146379
 30
977.0
 10
2.4666962970083586
 20
-232.73128089791808
 30
977.0
 10
2.4669891508021706
 20
-232.75201441930398
 30
977.0
 10
2.4672468712969513
 20
-232.77026056636785
 30
977.0
 10
2.4674719582746496
 20
-232.7861963191715
 30
977.0
 10
2.467666911517215
 20
-232.7999986577766
 30
977.0
 10
2.4678342308065973
 20
-232.81184456224477
 30
977.0
 10
2.4679764159247446
 20
-232.82191101263788
 30
977.0
 10
2.468179652163809
 20
-232.83629977248353
 30
977.0
 10
2.4682522468232624
 20
-232.84143934368285
 30
977.0
 10
2.4683146080571743
 20
-232.84585440677665
 30
977.0
 10
2.4683675932907536
 20
-232.84960566592636
 30
977.0
 10
2.468412059949209
 20
-232.852753825293
 30
977.0
 10
2.468448865457749
 20
-232.8553595890378
 30
977.0
 10
2.4684788672415827
 20
-232.8574836613218
 30
977.0
 10
2.4685464448021017
 20
-232.86226803094866
 30
977.0
 10
2.468687638479242
 20
-232.86330227209032
 30
977.0
 10
2.468765634408076
 20
-232.86344075622745
 30
977.0
 10
2.468705275341701
 20
-232.86345540175105
 30
977.0
 10
2.46851711613557
 20
-232.86373875894674
 30
977.0
 10
2.468297423747494
 20
-232.8643040099948
 30
977.0
 10
2.4682281772376435
 20
-232.8647849689703
 30
977.0
 10
2.468577067768542
 20
-232.86443608184297
 30
977.0
  0
ENDSEC
  0
SECTION
  2
OBJECTS
  0
DICTIONARY
  5
A
330
0
100
AcDbDictionary
281
1
  3
ACAD_COLOR
350
B
  3
ACAD_GROUP
350
C
  3
ACAD_LAYOUT
350
D
  3
ACAD_MATERIAL
350
E
  3
ACAD_MLEADERSTYLE
350
F
  3
ACAD_MLINESTYLE
350
10
  3
ACAD_PLOTSETTINGS
350
11
  3
ACAD_PLOTSTYLENAME
350
12
  3
ACAD_SCALELIST
350
14
  3
ACAD_TABLESTYLE
350
15
  3
ACAD_VISUALSTYLE
350
16
  3
EZDXF_META
350
2D
  0
DICTIONARY
  5
B
330
A
100
AcDbDictionary
281
1
  0
DICTIONARY
  5
C
330
A
100
AcDbDictionary
281
1
  0
DICTIONARY
  5
D
330
A
100
AcDbDictionary
281
1
  3
Model
350
1A
  3
Layout1
350
1E
  0
DICTIONARY
  5
E
330
A
100
AcDbDictionary
281
1
  3
ByBlock
350
1F
  3
ByLayer
350
20
  3
Global
350
21
  0
DICTIONARY
  5
F
330
A
100
AcDbDictionary
281
1
  3
Standard
350
2C
  0
DICTIONARY
  5
10
330
A
100
AcDbDictionary
281
1
  3
Standard
350
22
  0
DICTIONARY
  5
11
330
A
100
AcDbDictionary
281
1
  0
ACDBDICTIONARYWDFLT
  5
12
330
A
100
AcDbDictionary
281
1
  3
Normal
350
13
100
AcDbDictionaryWithDefault
340
13
  0
ACDBPLACEHOLDER
  5
13
330
12
  0
DICTIONARY
  5
14
330
A
100
AcDbDictionary
281
1
  0
DICTIONARY
  5
15
330
A
100
AcDbDictionary
281
1
  0
DICTIONARY
  5
16
330
A
100
AcDbDictionary
281
1
  0
LAYOUT
  5
1A
330
D
100
AcDbPlotSettings
  1

  2
Adobe PDF
  4
A3
  6

 40
7.5
 41
20.0
 42
7.5
 43
20.0
 44
420.0
 45
297.0
 46
0.0
 47
0.0
 48
0.0
 49
0.0
140
0.0
141
0.0
142
1.0
143
1.0
 70
1024
 72
1
 73
1
 74
5
  7

 75
16
 76
0
 77
2
 78
300
147
1.0
148
0.0
149
0.0
100
AcDbLayout
  1
Model
 70
1
 71
0
 10
0.0
 20
0.0
 11
420.0
 21
297.0
 12
0.0
 22
0.0
 32
0.0
 14
1e+20
 24
1e+20
 34
1e+20
 15
-1e+20
 25
-1e+20
 35
-1e+20
146
0.0
 13
0.0
 23
0.0
 33
0.0
 16
1.0
 26
0.0
 36
0.0
 17
0.0
 27
1.0
 37
0.0
 76
1
330
17
  0
LAYOUT
  5
1E
330
D
100
AcDbPlotSettings
  1

  2
Adobe PDF
  4
A3
  6

 40
7.5
 41
20.0
 42
7.5
 43
20.0
 44
420.0
 45
297.0
 46
0.0
 47
0.0
 48
0.0
 49
0.0
140
0.0
141
0.0
142
1.0
143
1.0
 70
0
 72
1
 73
1
 74
5
  7

 75
16
 76
0
 77
2
 78
300
147
1.0
148
0.0
149
0.0
100
AcDbLayout
  1
Layout1
 70
1
 71
1
 10
0.0
 20
0.0
 11
420.0
 21
297.0
 12
0.0
 22
0.0
 32
0.0
 14
1e+20
 24
1e+20
 34
1e+20
 15
-1e+20
 25
-1e+20
 35
-1e+20
146
0.0
 13
0.0
 23
0.0
 33
0.0
 16
1.0
 26
0.0
 36
0.0
 17
0.0
 27
1.0
 37
0.0
 76
1
330
1B
  0
MATERIAL
  5
1F
102
{ACAD_REACTORS
330
E
102
}
330
E
100
AcDbMaterial
  1
ByBlock
  2

 70
0
 40
1.0
 71
1
 41
1.0
 91
-1023410177
 42
1.0
 72
1
  3

 73
1
 74
1
 75
1
 44
0.5
 73
0
 45
1.0
 46
1.0
 77
1
  4

 78
1
 79
1
170
1
 48
1.0
171
1
  6

172
1
173
1
174
1
140
1.0
141
1.0
175
1
  7

176
1
177
1
178
1
143
1.0
179
1
  8

270
1
271
1
272
1
145
1.0
146
1.0
273
1
  9

274
1
275
1
276
1
 42
1.0
 72
1
  3

 73
1
 74
1
 75
1
 94
63
  0
MATERIAL
  5
20
102
{ACAD_REACTORS
330
E
102
}
330
E
100
AcDbMaterial
  1
ByLayer
  2

 70
0
 40
1.0
 71
1
 41
1.0
 91
-1023410177
 42
1.0
 72
1
  3

 73
1
 74
1
 75
1
 44
0.5
 73
0
 45
1.0
 46
1.0
 77
1
  4

 78
1
 79
1
170
1
 48
1.0
171
1
  6

172
1
173
1
174
1
140
1.0
141
1.0
175
1
  7

176
1
177
1
178
1
143
1.0
179
1
  8

270
1
271
1
272
1
145
1.0
146
1.0
273
1
  9

274
1
275
1
276
1
 42
1.0
 72
1
  3

 73
1
 74
1
 75
1
 94
63
  0
MATERIAL
  5
21
102
{ACAD_REACTORS
330
E
102
}
330
E
100
AcDbMaterial
  1
Global
  2

 70
0
 40
1.0
 71
1
 41
1.0
 91
-1023410177
 42
1.0
 72
1
  3

 73
1
 74
1
 75
1
 44
0.5
 73
0
 45
1.0
 46
1.0
 77
1
  4

 78
1
 79
1
170
1
 48
1.0
171
1
  6

172
1
173
1
174
1
140
1.0
141
1.0
175
1
  7

176
1
177
1
178
1
143
1.0
179
1
  8

270
1
271
1
272
1
145
1.0
146
1.0
273
1
  9

274
1
275
1
276
1
 42
1.0
 72
1
  3

 73
1
 74
1
 75
1
 94
63
  0
MLINESTYLE
  5
22
102
{ACAD_REACTORS
330
10
102
}
330
10
100
AcDbMlineStyle
  2
Standard
 70
0
  3

 62
256
 51
90.0
 52
90.0
 71
2
 49
0.5
 62
256
  6
BYLAYER
 49
-0.5
 62
256
  6
BYLAYER
  0
MLEADERSTYLE
  5
2C
102
{ACAD_REACTORS
330
F
102
}
330
F
100
AcDbMLeaderStyle
179
2
170
2
171
1
172
0
 90
2
 40
0.0
 41
0.0
173
1
 91
-1056964608
 92
-2
290
1
 42
2.0
291
1
 43
8.0
  3
Standard
 44
4.0
300

342
29
174
1
175
1
176
0
178
1
 93
-1056964608
 45
4.0
292
0
297
0
 46
4.0
 94
-1056964608
 47
1.0
 49
1.0
140
1.0
294
1
141
0.0
177
0
142
1.0
295
0
296
0
143
3.75
271
0
272
9
273
9
  0
DICTIONARY
  5
2D
330
A
100
AcDbDictionary
280
1
281
1
  3
CREATED_BY_EZDXF
350
2E
  3
WRITTEN_BY_EZDXF
350
86
  0
DICTIONARYVAR
  5
2E
330
2D
100
DictionaryVariables
280
0
  1
0.17 @ 2022-02-15T16:36:47.522598+00:00
  0
DICTIONARYVAR
  5
86
330
2D
100
DictionaryVariables
280
0
  1
0.17 @ 2022-02-15T16:36:47.631133+00:00
  0
ENDSEC
  0
EOF
