  0
SECTION
  2
HEADER
  9
$ACADVER
  1
AC1027
  9
$ACADMAINTVER
 70
105
  9
$DWGCODEPAGE
  3
ANSI_1252
  9
$LASTSAVEDBY
  1
ezdxf
  9
$REQUIREDVERSIONS
160
0
  9
$INSBASE
 10
0.0
 20
0.0
 30
0.0
  9
$EXTMIN
 10
1e+20
 20
1e+20
 30
1e+20
  9
$EXTMAX
 10
-1e+20
 20
-1e+20
 30
-1e+20
  9
$LIMMIN
 10
0.0
 20
0.0
  9
$LIMMAX
 10
420.0
 20
297.0
  9
$ORTHOMODE
 70
0
  9
$REGENMODE
 70
1
  9
$FILLMODE
 70
1
  9
$QTEXTMODE
 70
0
  9
$MIRRTEXT
 70
1
  9
$LTSCALE
 40
1.0
  9
$ATTMODE
 70
1
  9
$TEXTSIZE
 40
2.5
  9
$TRACEWID
 40
1.0
  9
$TEXTSTYLE
  7
Standard
  9
$CLAYER
  8
0
  9
$CELTYPE
  6
ByLayer
  9
$CECOLOR
 62
256
  9
$CELTSCALE
 40
1.0
  9
$DISPSILH
 70
0
  9
$DIMSCALE
 40
1.0
  9
$DIMASZ
 40
2.5
  9
$DIMEXO
 40
0.625
  9
$DIMDLI
 40
3.75
  9
$DIMRND
 40
0.0
  9
$DIMDLE
 40
0.0
  9
$DIMEXE
 40
1.25
  9
$DIMTP
 40
0.0
  9
$DIMTM
 40
0.0
  9
$DIMTXT
 40
2.5
  9
$DIMCEN
 40
2.5
  9
$DIMTSZ
 40
0.0
  9
$DIMTOL
 70
0
  9
$DIMLIM
 70
0
  9
$DIMTIH
 70
0
  9
$DIMTOH
 70
0
  9
$DIMSE1
 70
0
  9
$DIMSE2
 70
0
  9
$DIMTAD
 70
1
  9
$DIMZIN
 70
8
  9
$DIMBLK
  1

  9
$DIMASO
 70
1
  9
$DIMSHO
 70
1
  9
$DIMPOST
  1

  9
$DIMAPOST
  1

  9
$DIMALT
 70
0
  9
$DIMALTD
 70
3
  9
$DIMALTF
 40
0.03937007874
  9
$DIMLFAC
 40
1.0
  9
$DIMTOFL
 70
1
  9
$DIMTVP
 40
0.0
  9
$DIMTIX
 70
0
  9
$DIMSOXD
 70
0
  9
$DIMSAH
 70
0
  9
$DIMBLK1
  1

  9
$DIMBLK2
  1

  9
$DIMSTYLE
  2
ISO-25
  9
$DIMCLRD
 70
0
  9
$DIMCLRE
 70
0
  9
$DIMCLRT
 70
0
  9
$DIMTFAC
 40
1.0
  9
$DIMGAP
 40
0.625
  9
$DIMJUST
 70
0
  9
$DIMSD1
 70
0
  9
$DIMSD2
 70
0
  9
$DIMTOLJ
 70
0
  9
$DIMTZIN
 70
8
  9
$DIMALTZ
 70
0
  9
$DIMALTTZ
 70
0
  9
$DIMUPT
 70
0
  9
$DIMDEC
 70
2
  9
$DIMTDEC
 70
2
  9
$DIMALTU
 70
2
  9
$DIMALTTD
 70
3
  9
$DIMTXSTY
  7
Standard
  9
$DIMAUNIT
 70
0
  9
$DIMADEC
 70
0
  9
$DIMALTRND
 40
0.0
  9
$DIMAZIN
 70
0
  9
$DIMDSEP
 70
44
  9
$DIMATFIT
 70
3
  9
$DIMFRAC
 70
0
  9
$DIMLDRBLK
  1

  9
$DIMLUNIT
 70
2
  9
$DIMLWD
 70
-2
  9
$DIMLWE
 70
-2
  9
$DIMTMOVE
 70
0
  9
$DIMFXL
 40
1.0
  9
$DIMFXLON
 70
0
  9
$DIMJOGANG
 40
0.785398163397
  9
$DIMTFILL
 70
0
  9
$DIMTFILLCLR
 70
0
  9
$DIMARCSYM
 70
0
  9
$DIMLTYPE
  6

  9
$DIMLTEX1
  6

  9
$DIMLTEX2
  6

  9
$DIMTXTDIRECTION
 70
0
  9
$LUNITS
 70
2
  9
$LUPREC
 70
4
  9
$SKETCHINC
 40
1.0
  9
$FILLETRAD
 40
10.0
  9
$AUNITS
 70
0
  9
$AUPREC
 70
2
  9
$MENU
  1
.
  9
$ELEVATION
 40
0.0
  9
$PELEVATION
 40
0.0
  9
$THICKNESS
 40
0.0
  9
$LIMCHECK
 70
0
  9
$CHAMFERA
 40
0.0
  9
$CHAMFERB
 40
0.0
  9
$CHAMFERC
 40
0.0
  9
$CHAMFERD
 40
0.0
  9
$SKPOLY
 70
0
  9
$TDCREATE
 40
2459626.7338888887
  9
$TDUCREATE
 40
2458532.153996898
  9
$TDUPDATE
 40
2459626.7338888887
  9
$TDUUPDATE
 40
2458532.1544311
  9
$TDINDWG
 40
0.0
  9
$TDUSRTIMER
 40
0.0
  9
$USRTIMER
 70
1
  9
$ANGBASE
 50
0.0
  9
$ANGDIR
 70
0
  9
$PDMODE
 70
0
  9
$PDSIZE
 40
0.0
  9
$PLINEWID
 40
0.0
  9
$SPLFRAME
 70
0
  9
$SPLINETYPE
 70
6
  9
$SPLINESEGS
 70
8
  9
$HANDSEED
  5
87
  9
$SURFTAB1
 70
6
  9
$SURFTAB2
 70
6
  9
$SURFTYPE
 70
6
  9
$SURFU
 70
6
  9
$SURFV
 70
6
  9
$UCSBASE
  2

  9
$UCSNAME
  2

  9
$UCSORG
 10
0.0
 20
0.0
 30
0.0
  9
$UCSXDIR
 10
1.0
 20
0.0
 30
0.0
  9
$UCSYDIR
 10
0.0
 20
1.0
 30
0.0
  9
$UCSORTHOREF
  2

  9
$UCSORTHOVIEW
 70
0
  9
$UCSORGTOP
 10
0.0
 20
0.0
 30
0.0
  9
$UCSORGBOTTOM
 10
0.0
 20
0.0
 30
0.0
  9
$UCSORGLEFT
 10
0.0
 20
0.0
 30
0.0
  9
$UCSORGRIGHT
 10
0.0
 20
0.0
 30
0.0
  9
$UCSORGFRONT
 10
0.0
 20
0.0
 30
0.0
  9
$UCSORGBACK
 10
0.0
 20
0.0
 30
0.0
  9
$PUCSBASE
  2

  9
$PUCSNAME
  2

  9
$PUCSORG
 10
0.0
 20
0.0
 30
0.0
  9
$PUCSXDIR
 10
1.0
 20
0.0
 30
0.0
  9
$PUCSYDIR
 10
0.0
 20
1.0
 30
0.0
  9
$PUCSORTHOREF
  2

  9
$PUCSORTHOVIEW
 70
0
  9
$PUCSORGTOP
 10
0.0
 20
0.0
 30
0.0
  9
$PUCSORGBOTTOM
 10
0.0
 20
0.0
 30
0.0
  9
$PUCSORGLEFT
 10
0.0
 20
0.0
 30
0.0
  9
$PUCSORGRIGHT
 10
0.0
 20
0.0
 30
0.0
  9
$PUCSORGFRONT
 10
0.0
 20
0.0
 30
0.0
  9
$PUCSORGBACK
 10
0.0
 20
0.0
 30
0.0
  9
$USERI1
 70
0
  9
$USERI2
 70
0
  9
$USERI3
 70
0
  9
$USERI4
 70
0
  9
$USERI5
 70
0
  9
$USERR1
 40
0.0
  9
$USERR2
 40
0.0
  9
$USERR3
 40
0.0
  9
$USERR4
 40
0.0
  9
$USERR5
 40
0.0
  9
$WORLDVIEW
 70
1
  9
$SHADEDGE
 70
3
  9
$SHADEDIF
 70
70
  9
$TILEMODE
 70
1
  9
$MAXACTVP
 70
64
  9
$PINSBASE
 10
0.0
 20
0.0
 30
0.0
  9
$PLIMCHECK
 70
0
  9
$PEXTMIN
 10
1e+20
 20
1e+20
 30
1e+20
  9
$PEXTMAX
 10
-1e+20
 20
-1e+20
 30
-1e+20
  9
$PLIMMIN
 10
0.0
 20
0.0
  9
$PLIMMAX
 10
420.0
 20
297.0
  9
$UNITMODE
 70
0
  9
$VISRETAIN
 70
1
  9
$PLINEGEN
 70
0
  9
$PSLTSCALE
 70
1
  9
$TREEDEPTH
 70
3020
  9
$CMLSTYLE
  2
Standard
  9
$CMLJUST
 70
0
  9
$CMLSCALE
 40
20.0
  9
$PROXYGRAPHICS
 70
1
  9
$MEASUREMENT
 70
1
  9
$CELWEIGHT
370
-1
  9
$ENDCAPS
280
0
  9
$JOINSTYLE
280
0
  9
$LWDISPLAY
290
0
  9
$INSUNITS
 70
6
  9
$HYPERLINKBASE
  1

  9
$STYLESHEET
  1

  9
$XEDIT
290
1
  9
$CEPSNTYPE
380
0
  9
$PSTYLEMODE
290
1
  9
$FINGERPRINTGUID
  2
{F3829CF5-84C4-48FF-A93A-BC9A56C77B4D}
  9
$VERSIONGUID
  2
{1635883A-909B-480D-8DC9-FAB74F56F6E2}
  9
$EXTNAMES
290
1
  9
$PSVPSCALE
 40
0.0
  9
$OLESTARTUP
290
0
  9
$SORTENTS
280
127
  9
$INDEXCTL
280
0
  9
$HIDETEXT
280
1
  9
$XCLIPFRAME
280
0
  9
$HALOGAP
280
0
  9
$OBSCOLOR
 70
257
  9
$OBSLTYPE
280
0
  9
$INTERSECTIONDISPLAY
280
0
  9
$INTERSECTIONCOLOR
 70
257
  9
$DIMASSOC
280
2
  9
$PROJECTNAME
  1

  9
$CAMERADISPLAY
290
0
  9
$LENSLENGTH
 40
50.0
  9
$CAMERAHEIGHT
 40
0.0
  9
$STEPSPERSEC
 40
24.0
  9
$STEPSIZE
 40
100.0
  9
$3DDWFPREC
 40
2.0
  9
$PSOLWIDTH
 40
0.005
  9
$PSOLHEIGHT
 40
0.08
  9
$LOFTANG1
 40
1.570796326795
  9
$LOFTANG2
 40
1.570796326795
  9
$LOFTMAG1
 40
0.0
  9
$LOFTMAG2
 40
0.0
  9
$LOFTPARAM
 70
7
  9
$LOFTNORMALS
280
1
  9
$LATITUDE
 40
37.795
  9
$LONGITUDE
 40
-122.394
  9
$NORTHDIRECTION
 40
0.0
  9
$TIMEZONE
 70
-8000
  9
$LIGHTGLYPHDISPLAY
280
1
  9
$TILEMODELIGHTSYNCH
280
1
  9
$CMATERIAL
347
20
  9
$SOLIDHIST
280
0
  9
$SHOWHIST
280
1
  9
$DWFFRAME
280
2
  9
$DGNFRAME
280
2
  9
$REALWORLDSCALE
290
1
  9
$INTERFERECOLOR
 62
256
  9
$CSHADOW
280
0
  9
$SHADOWPLANELOCATION
 40
0.0
  0
ENDSEC
  0
SECTION
  2
CLASSES
  0
CLASS
  1
ACDBDICTIONARYWDFLT
  2
AcDbDictionaryWithDefault
  3
ObjectDBX Classes
 90
0
 91
0
280
0
281
0
  0
CLASS
  1
SUN
  2
AcDbSun
  3
SCENEOE
 90
1153
 91
0
280
0
281
0
  0
CLASS
  1
VISUALSTYLE
  2
AcDbVisualStyle
  3
ObjectDBX Classes
 90
4095
 91
0
280
0
281
0
  0
CLASS
  1
MATERIAL
  2
AcDbMaterial
  3
ObjectDBX Classes
 90
1153
 91
0
280
0
281
0
  0
CLASS
  1
SCALE
  2
AcDbScale
  3
ObjectDBX Classes
 90
1153
 91
0
280
0
281
0
  0
CLASS
  1
TABLESTYLE
  2
AcDbTableStyle
  3
ObjectDBX Classes
 90
4095
 91
0
280
0
281
0
  0
CLASS
  1
MLEADERSTYLE
  2
AcDbMLeaderStyle
  3
ACDB_MLEADERSTYLE_CLASS
 90
4095
 91
0
280
0
281
0
  0
CLASS
  1
DICTIONARYVAR
  2
AcDbDictionaryVar
  3
ObjectDBX Classes
 90
0
 91
0
280
0
281
0
  0
CLASS
  1
CELLSTYLEMAP
  2
AcDbCellStyleMap
  3
ObjectDBX Classes
 90
1152
 91
0
280
0
281
0
  0
CLASS
  1
MENTALRAYRENDERSETTINGS
  2
AcDbMentalRayRenderSettings
  3
SCENEOE
 90
1024
 91
0
280
0
281
0
  0
CLASS
  1
ACDBDETAILVIEWSTYLE
  2
AcDbDetailViewStyle
  3
ObjectDBX Classes
 90
1025
 91
0
280
0
281
0
  0
CLASS
  1
ACDBSECTIONVIEWSTYLE
  2
AcDbSectionViewStyle
  3
ObjectDBX Classes
 90
1025
 91
0
280
0
281
0
  0
CLASS
  1
RASTERVARIABLES
  2
AcDbRasterVariables
  3
ISM
 90
0
 91
0
280
0
281
0
  0
CLASS
  1
ACDBPLACEHOLDER
  2
AcDbPlaceHolder
  3
ObjectDBX Classes
 90
0
 91
0
280
0
281
0
  0
CLASS
  1
LAYOUT
  2
AcDbLayout
  3
ObjectDBX Classes
 90
0
 91
0
280
0
281
0
  0
ENDSEC
  0
SECTION
  2
TABLES
  0
TABLE
  2
VPORT
  5
8
330
0
100
AcDbSymbolTable
 70
1
  0
VPORT
  5
23
330
8
100
AcDbSymbolTableRecord
100
AcDbViewportTableRecord
  2
*Active
 70
0
 10
0.0
 20
0.0
 11
1.0
 21
1.0
 12
344.2
 22
148.5
 13
0.0
 23
0.0
 14
0.5
 24
0.5
 15
0.5
 25
0.5
 16
0.0
 26
0.0
 36
1.0
 17
0.0
 27
0.0
 37
0.0
 40
297.0
 41
1.34
 42
50.0
 43
0.0
 44
0.0
 50
0.0
 51
0.0
 71
0
 72
1000
 73
1
 74
3
 75
0
 76
0
 77
0
 78
0
281
0
 65
0
146
0.0
  0
ENDTAB
  0
TABLE
  2
LTYPE
  5
2
330
0
100
AcDbSymbolTable
 70
3
  0
LTYPE
  5
24
330
2
100
AcDbSymbolTableRecord
100
AcDbLinetypeTableRecord
  2
ByBlock
 70
0
  3

 72
65
 73
0
 40
0.0
  0
LTYPE
  5
25
330
2
100
AcDbSymbolTableRecord
100
AcDbLinetypeTableRecord
  2
ByLayer
 70
0
  3

 72
65
 73
0
 40
0.0
  0
LTYPE
  5
26
330
2
100
AcDbSymbolTableRecord
100
AcDbLinetypeTableRecord
  2
Continuous
 70
0
  3

 72
65
 73
0
 40
0.0
  0
ENDTAB
  0
TABLE
  2
LAYER
  5
1
330
0
100
AcDbSymbolTable
 70
2
  0
LAYER
  5
27
330
1
100
AcDbSymbolTableRecord
100
AcDbLayerTableRecord
  2
0
 70
0
 62
7
  6
Continuous
370
-3
390
13
347
21
  0
LAYER
  5
28
330
1
100
AcDbSymbolTableRecord
100
AcDbLayerTableRecord
  2
Defpoints
 70
0
 62
7
  6
Continuous
290
0
370
-3
390
13
347
21
  0
ENDTAB
  0
TABLE
  2
STYLE
  5
5
330
0
100
AcDbSymbolTable
 70
1
  0
STYLE
  5
29
330
5
100
AcDbSymbolTableRecord
100
AcDbTextStyleTableRecord
  2
Standard
 70
0
 40
0.0
 41
1.0
 50
0.0
 71
0
 42
2.5
  3
txt
  4

  0
ENDTAB
  0
TABLE
  2
VIEW
  5
7
330
0
100
AcDbSymbolTable
 70
0
  0
ENDTAB
  0
TABLE
  2
UCS
  5
6
330
0
100
AcDbSymbolTable
 70
0
  0
ENDTAB
  0
TABLE
  2
APPID
  5
3
330
0
100
AcDbSymbolTable
 70
3
  0
APPID
  5
2A
330
3
100
AcDbSymbolTableRecord
100
AcDbRegAppTableRecord
  2
ACAD
 70
0
  0
APPID
  5
84
330
3
100
AcDbSymbolTableRecord
100
AcDbRegAppTableRecord
  2
HATCHBACKGROUNDCOLOR
 70
0
  0
APPID
  5
85
330
3
100
AcDbSymbolTableRecord
100
AcDbRegAppTableRecord
  2
EZDXF
 70
0
  0
ENDTAB
  0
TABLE
  2
DIMSTYLE
  5
4
330
0
100
AcDbSymbolTable
 70
1
100
AcDbDimStyleTable
  0
DIMSTYLE
105
2B
330
4
100
AcDbSymbolTableRecord
100
AcDbDimStyleTableRecord
  2
Standard
 70
0
 40
1.0
 41
2.5
 42
0.625
 43
3.75
 44
1.25
 45
0.0
 46
0.0
 47
0.0
 48
0.0
 49
2.5
140
2.5
141
2.5
142
0.0
143
0.03937007874
144
1.0
145
0.0
146
1.0
147
0.625
148
0.0
 69
0
 70
0
 71
0
 72
0
 73
0
 74
0
 75
0
 76
0
 77
1
 78
8
 79
0
170
0
171
3
172
1
173
0
174
0
175
0
176
0
177
0
178
0
179
0
271
0
272
2
273
2
274
3
275
0
276
0
277
2
278
44
279
0
280
0
281
0
282
0
283
0
284
8
285
0
286
0
288
0
289
3
290
0
371
-2
372
-2
  0
ENDTAB
  0
TABLE
  2
BLOCK_RECORD
  5
9
330
0
100
AcDbSymbolTable
 70
2
  0
BLOCK_RECORD
  5
17
330
9
100
AcDbSymbolTableRecord
100
AcDbBlockTableRecord
  2
*Model_Space
340
1A
 70
0
280
1
281
0
  0
BLOCK_RECORD
  5
1B
330
9
100
AcDbSymbolTableRecord
100
AcDbBlockTableRecord
  2
*Paper_Space
340
1E
 70
0
280
1
281
0
  0
ENDTAB
  0
ENDSEC
  0
SECTION
  2
BLOCKS
  0
BLOCK
  5
18
330
17
100
AcDbEntity
  8
0
100
AcDbBlockBegin
  2
*Model_Space
 70
0
 10
0.0
 20
0.0
 30
0.0
  3
*Model_Space
  1

  0
ENDBLK
  5
19
330
17
100
AcDbEntity
  8
0
100
AcDbBlockEnd
  0
BLOCK
  5
1C
330
1B
100
AcDbEntity
  8
0
100
AcDbBlockBegin
  2
*Paper_Space
 70
0
 10
0.0
 20
0.0
 30
0.0
  3
*Paper_Space
  1

  0
ENDBLK
  5
1D
330
1B
100
AcDbEntity
  8
0
100
AcDbBlockEnd
  0
ENDSEC
  0
SECTION
  2
ENTITIES
  0
SPLINE
  5
2F
330
17
100
AcDbEntity
  8
0
100
AcDbSpline
 70
0
 71
8
 72
53
 73
44
 74
0
 40
0.0
 40
0.0
 40
0.0
 40
0.0
 40
0.0
 40
0.0
 40
0.0
 40
0.0
 40
0.0
 40
0.12136873050347023
 40
0.12136873050347023
 40
0.12136873050347023
 40
0.12136873050347023
 40
0.12136873050347023
 40
0.12136873050347023
 40
0.12136873050347023
 40
0.17055827949117972
 40
0.17055827949117972
 40
0.17055827949117972
 40
0.17055827949117972
 40
0.17055827949117972
 40
0.17055827949117972
 40
0.17055827949117972
 40
0.3301656047903489
 40
0.3301656047903489
 40
0.3301656047903489
 40
0.3301656047903489
 40
0.3301656047903489
 40
0.3301656047903489
 40
0.3301656047903489
 40
0.5480027762858987
 40
0.5480027762858987
 40
0.5480027762858987
 40
0.5480027762858987
 40
0.5480027762858987
 40
0.5480027762858987
 40
0.5480027762858987
 40
0.7482163181431822
 40
0.7482163181431822
 40
0.7482163181431822
 40
0.7482163181431822
 40
0.7482163181431822
 40
0.7482163181431822
 40
0.7482163181431822
 40
1.0
 40
1.0
 40
1.0
 40
1.0
 40
1.0
 40
1.0
 40
1.0
 40
1.0
 40
1.0
 10
27.002268033763556
 20
261.64303134937103
 30
1002.9999999999999
 10
26.38522066136041
 20
261.746547806749
 30
1003.0
 10
25.7619816136677
 20
261.81399781331896
 30
1003.0
 10
25.13535128738295
 20
261.8448880539627
 30
1003.0
 10
24.50783852765203
 20
261.83975390841596
 30
1003.0
 10
23.881668917855954
 20
261.79991141177345
 30
1003.0
 10
23.25879113549665
 20
261.72723446051475
 30
1003.0
 10
22.6408813741819
 20
261.62395726405043
 30
1003.0
 10
21.78149651006447
 20
261.4392245372143
 30
1003.0
 10
21.534234894141655
 20
261.3812271161972
 30
1003.0
 10
21.287602734451582
 20
261.31860747941494
 30
1003.0
 10
21.041614320716988
 20
261.25148492615523
 30
1003.0
 10
20.796274975389714
 20
261.18000064216363
 30
1003.0
 10
20.55159699833136
 20
261.1042848437479
 30
1003.0
 10
20.307613062657484
 20
261.02439077813955
 30
1003.0
 10
19.27518178851757
 20
260.66700400515083
 30
1003.0
 10
18.500614122017545
 20
260.3511657427602
 30
1003.0
 10
17.743433303877143
 20
259.99408563538896
 30
1003.0
 10
17.005811620559797
 20
259.5976910737375
 30
1003.0
 10
16.2894242142461
 20
259.164285449824
 30
1003.0
 10
15.595517366115924
 20
258.6964240333396
 30
1003.0
 10
14.92496525202697
 20
258.1968122712954
 30
1003.0
 10
13.395746501366226
 20
256.9467957952432
 30
1003.0
 10
12.5577097971158
 20
256.1713985999172
 30
1003.0
 10
11.764880126349277
 20
255.3485070234303
 30
1003.0
 10
11.016825280418544
 20
254.48442094266545
 30
1003.0
 10
10.312385886346522
 20
253.5849371452714
 30
1003.0
 10
9.649912928455548
 20
252.6551454814358
 30
1003.0
 10
9.027426343721173
 20
251.69929353537134
 30
1003.0
 10
7.9053916250548495
 20
249.82120315124718
 30
1003.0
 10
7.400088092231082
 20
248.9026971241198
 30
1003.0
 10
6.925166801742955
 20
247.96774840778298
 30
1003.0
 10
6.479020579711769
 20
247.01864253462793
 30
1003.0
 10
6.0601078388843845
 20
246.0573498808414
 30
1003.0
 10
5.666950163589898
 20
245.08552719730415
 30
1003.0
 10
5.298135674712764
 20
244.1045161876028
 30
1003.0
 10
4.517449071282771
 20
241.8713741222644
 30
1003.0
 10
4.119045395759809
 20
240.61475289833407
 30
1003.0
 10
3.7544638383663553
 20
239.34760975911905
 30
1003.0
 10
3.4213884472996483
 20
238.071755542014
 30
1003.0
 10
3.117744020111001
 20
236.78870304986708
 30
1003.0
 10
2.841652270451444
 20
235.49967897384346
 30
1003.0
 10
2.5914127283151114
 20
234.2056292434428
 30
1003.0
 10
2.36548033194218
 20
232.9072247337727
 30
1003.0
  0
SPLINE
  5
30
330
17
100
AcDbEntity
  8
0
100
AcDbSpline
 70
0
 71
1
 72
4
 73
2
 74
0
 40
0.0
 40
0.0
 40
1.0
 40
1.0
 10
27.002268031135458
 20
261.64303133410147
 30
1003.0
 10
27.002268031135458
 20
258.09999939999005
 30
1003.0
  0
LINE
  5
31
330
17
100
AcDbEntity
  8
0
100
AcDbLine
 10
27.002268041006516
 20
258.1
 30
1003.0
 11
34.0648856925639
 21
258.1
 31
1003.0
  0
SPLINE
  5
32
330
17
100
AcDbEntity
  8
0
100
AcDbSpline
 70
0
 71
8
 72
46
 73
37
 74
0
 40
0.0
 40
0.0
 40
0.0
 40
0.0
 40
0.0
 40
0.0
 40
0.0
 40
0.0
 40
0.0
 40
0.022829900395262583
 40
0.022829900395262583
 40
0.022829900395262583
 40
0.022829900395262583
 40
0.022829900395262583
 40
0.022829900395262583
 40
0.022829900395262583
 40
0.21694049813569663
 40
0.21694049813569663
 40
0.21694049813569663
 40
0.21694049813569663
 40
0.21694049813569663
 40
0.21694049813569663
 40
0.21694049813569663
 40
0.547296571035129
 40
0.547296571035129
 40
0.547296571035129
 40
0.547296571035129
 40
0.547296571035129
 40
0.547296571035129
 40
0.547296571035129
 40
0.8234425170179319
 40
0.8234425170179319
 40
0.8234425170179319
 40
0.8234425170179319
 40
0.8234425170179319
 40
0.8234425170179319
 40
0.8234425170179319
 40
1.0
 40
1.0
 40
1.0
 40
1.0
 40
1.0
 40
1.0
 40
1.0
 40
1.0
 40
1.0
 10
46.52460635173992
 20
235.89999999823385
 30
1003.0
 10
46.50067107971359
 20
235.97026886268227
 30
1003.0
 10
46.476727518531845
 20
236.04041080569684
 30
1003.0
 10
46.45277568406055
 20
236.11042566792696
 30
1003.0
 10
46.42881559216556
 20
236.18031329002204
 30
1003.0
 10
46.40484725871275
 20
236.25007351263153
 30
1003.0
 10
46.38087069956797
 20
236.31970617640485
 30
1003.0
 10
46.3568859305971
 20
236.38921112199142
 30
1003.0
 10
46.128893462828565
 20
237.04846479551665
 30
1003.0
 10
45.921513163941476
 20
237.63716800946048
 30
1003.0
 10
45.710550430694084
 20
238.22460475592052
 30
1003.0
 10
45.495844786261465
 20
238.81069021247922
 30
1003.0
 10
45.277255901626525
 20
239.3953405139885
 30
1003.0
 10
45.05464257990194
 20
239.97846545630443
 30
1003.0
 10
44.82784174065222
 20
240.55996120002285
 30
1003.0
 10
44.203178660361495
 20
242.12636324957737
 30
1003.0
 10
43.79703216661869
 20
243.1078849123285
 30
1003.0
 10
43.37726575158136
 20
244.08376499047236
 30
1003.0
 10
42.94283960968427
 20
245.05332838037668
 30
1003.0
 10
42.492586317167095
 20
246.01571342750765
 30
1003.0
 10
42.02517920024875
 20
246.96985707877946
 30
1003.0
 10
41.53907212166992
 20
247.91446658891897
 30
1003.0
 10
40.60884094233566
 20
249.62827957375606
 30
1003.0
 10
40.17100385080308
 20
250.400671007429
 30
1003.0
 10
39.71773256766129
 20
251.16431611553224
 30
1003.0
 10
39.2478105094475
 20
251.91807645503405
 30
1003.0
 10
38.759918100616055
 20
252.66048012488758
 30
1003.0
 10
38.2526057234316
 20
253.3897039100164
 30
1003.0
 10
37.72424018090693
 20
254.10353788216233
 30
1003.0
 10
36.82039174871805
 20
255.24416878454508
 30
1003.0
 10
36.45859101258576
 20
255.68151676270793
 30
1003.0
 10
36.086970757720394
 20
256.11071021971236
 30
1003.0
 10
35.70502505299629
 20
256.5309291599263
 30
1003.0
 10
35.31227304758744
 20
256.9411876858277
 30
1003.0
 10
34.908264141030095
 20
257.34033949686545
 30
1003.0
 10
34.492586942872535
 20
257.72708728661354
 30
1003.0
 10
34.064885701164776
 20
258.1000000098645
 30
1003.0
  0
LINE
  5
33
330
17
100
AcDbEntity
  8
0
100
AcDbLine
 10
27.002268041006516
 20
235.9
 30
1003.0
 11
46.524606356924636
 21
235.9
 31
1003.0
  0
SPLINE
  5
34
330
17
100
AcDbEntity
  8
0
100
AcDbSpline
 70
0
 71
1
 72
4
 73
2
 74
0
 40
0.0
 40
0.0
 40
1.0
 40
1.0
 10
27.002268031135458
 20
235.9000006000011
 30
1003.0
 10
27.002268031135458
 20
232.09999939999986
 30
1003.0
  0
LINE
  5
35
330
17
100
AcDbEntity
  8
0
100
AcDbLine
 10
27.002268041006516
 20
232.1
 30
1003.0
 11
47.75866980805256
 21
232.1
 31
1003.0
  0
SPLINE
  5
36
330
17
100
AcDbEntity
  8
0
100
AcDbSpline
 70
0
 71
8
 72
32
 73
23
 74
0
 40
0.0
 40
0.0
 40
0.0
 40
0.0
 40
0.0
 40
0.0
 40
0.0
 40
0.0
 40
0.0
 40
0.4134764182114026
 40
0.4134764182114026
 40
0.4134764182114026
 40
0.4134764182114026
 40
0.4134764182114026
 40
0.4134764182114026
 40
0.4134764182114026
 40
0.959032279430152
 40
0.959032279430152
 40
0.959032279430152
 40
0.959032279430152
 40
0.959032279430152
 40
0.959032279430152
 40
0.959032279430152
 40
1.0
 40
1.0
 40
1.0
 40
1.0
 40
1.0
 40
1.0
 40
1.0
 40
1.0
 40
1.0
 10
53.41622230942019
 20
209.90000000009675
 30
1002.9999999999999
 10
53.16804078339102
 20
211.05852889294414
 30
1002.9999999999999
 10
52.91577640114613
 20
212.21617795833595
 30
1002.9999999999999
 10
52.65926352144101
 20
213.37289324752868
 30
1002.9999999999999
 10
52.39832017595498
 20
214.52861555442993
 30
1002.9999999999999
 10
52.13274525644856
 20
215.6832798321685
 30
1002.9999999999999
 10
51.862314864384736
 20
216.83681443614742
 30
1002.9999999999999
 10
51.58677743217384
 20
217.98914011137583
 30
1002.9999999999999
 10
50.93517712015114
 20
220.65887753256723
 30
1003.0
 10
50.55513282678015
 20
222.17526879310853
 30
1003.0
 10
50.1650563937907
 20
223.6891420548306
 30
1003.0
 10
49.764195869410955
 20
225.200232494237
 30
1003.0
 10
49.35167132644901
 20
226.70820131178746
 30
1003.0
 10
48.92644253140822
 20
228.21262686640557
 30
1003.0
 10
48.48724117250307
 20
229.71298606159132
 30
1003.0
 10
47.99827747662371
 20
231.3209277478607
 30
1002.9999999999999
 10
47.96410497128847
 20
231.43298682957663
 30
1002.9999999999999
 10
47.929913330443895
 20
231.5447923829397
 30
1002.9999999999999
 10
47.895702603088615
 20
231.65634391582668
 30
1002.9999999999999
 10
47.86147283822126
 20
231.76764093611433
 30
1002.9999999999999
 10
47.827224084840466
 20
231.87868295167942
 30
1002.9999999999999
 10
47.792956391944855
 20
231.98946947039872
 30
1002.9999999999999
 10
47.75866980853307
 20
232.100000000149
 30
1002.9999999999999
  0
LINE
  5
37
330
17
100
AcDbEntity
  8
0
100
AcDbLine
 10
27.002268041006516
 20
209.9
 30
1003.0
 11
53.41622230896875
 21
209.9
 31
1003.0
  0
SPLINE
  5
38
330
17
100
AcDbEntity
  8
0
100
AcDbSpline
 70
0
 71
1
 72
4
 73
2
 74
0
 40
0.0
 40
0.0
 40
1.0
 40
1.0
 10
27.002268031135458
 20
209.90000060000008
 30
1003.0
 10
27.002268031135458
 20
206.09999939999994
 30
1003.0
  0
LINE
  5
39
330
17
100
AcDbEntity
  8
0
100
AcDbLine
 10
27.002268041006516
 20
206.1
 30
1003.0
 11
54.210849318911634
 21
206.1
 31
1003.0
  0
SPLINE
  5
3A
330
17
100
AcDbEntity
  8
0
100
AcDbSpline
 70
0
 71
8
 72
25
 73
16
 74
0
 40
0.0
 40
0.0
 40
0.0
 40
0.0
 40
0.0
 40
0.0
 40
0.0
 40
0.0
 40
0.0
 40
0.10325349928460037
 40
0.10325349928460037
 40
0.10325349928460037
 40
0.10325349928460037
 40
0.10325349928460037
 40
0.10325349928460037
 40
0.10325349928460037
 40
1.0
 40
1.0
 40
1.0
 40
1.0
 40
1.0
 40
1.0
 40
1.0
 40
1.0
 40
1.0
 10
58.216308403992436
 20
183.9000000045558
 30
1003.0
 10
58.1703329628683
 20
184.18753486386564
 30
1003.0
 10
58.12420797074371
 20
184.47504585784588
 30
1003.0
 10
58.07793263897655
 20
184.76253277978358
 30
1003.0
 10
58.031506164916635
 20
185.04999542011103
 30
1003.0
 10
57.98492773156128
 20
185.33743356635688
 30
1003.0
 10
57.93819650719833
 20
185.62484700309554
 30
1003.0
 10
57.8913116450362
 20
185.9122355118947
 30
1003.0
 10
57.43574004173342
 20
188.6953214252737
 30
1002.9999999999999
 10
57.01557479310297
 20
191.18901734585683
 30
1002.9999999999999
 10
56.58320469854115
 20
193.68060827767317
 30
1002.9999999999999
 10
56.137967167824726
 20
196.16995824684426
 30
1002.9999999999999
 10
55.67910340859679
 20
198.6568728998334
 30
1002.9999999999999
 10
55.20571737901811
 20
201.14109073725527
 30
1002.9999999999999
 10
54.71674144131286
 20
203.6222758830377
 30
1002.9999999999999
 10
54.21084935993527
 20
206.100000008376
 30
1002.9999999999999
  0
LINE
  5
3B
330
17
100
AcDbEntity
  8
0
100
AcDbLine
 10
27.002268041006516
 20
183.9
 30
1003.0
 11
58.21630837549976
 21
183.9
 31
1003.0
  0
SPLINE
  5
3C
330
17
100
AcDbEntity
  8
0
100
AcDbSpline
 70
0
 71
1
 72
4
 73
2
 74
0
 40
0.0
 40
0.0
 40
1.0
 40
1.0
 10
27.002268031135458
 20
183.90000060000014
 30
1003.0
 10
27.002268031135458
 20
180.0999993999999
 30
1003.0
  0
LINE
  5
3D
330
17
100
AcDbEntity
  8
0
100
AcDbLine
 10
27.002268041006516
 20
180.1
 30
1003.0
 11
58.812401737061535
 21
180.1
 31
1003.0
  0
SPLINE
  5
3E
330
17
100
AcDbEntity
  8
0
100
AcDbSpline
 70
0
 71
8
 72
18
 73
9
 74
0
 40
0.0
 40
0.0
 40
0.0
 40
0.0
 40
0.0
 40
0.0
 40
0.0
 40
0.0
 40
0.0
 40
1.0
 40
1.0
 40
1.0
 40
1.0
 40
1.0
 40
1.0
 40
1.0
 40
1.0
 40
1.0
 10
61.8804476437495
 20
157.89999999538847
 30
1003.0
 10
61.53669335047483
 20
160.6803070349138
 30
1003.0
 10
61.18223782940893
 20
163.45929121307842
 30
1003.0
 10
60.81682112539874
 20
166.23687479362212
 30
1003.0
 10
60.44013559420199
 20
169.012965836373
 30
1003.0
 10
60.051818876396446
 20
171.78745718615278
 30
1003.0
 10
59.651444676582415
 20
174.56022516862646
 30
1003.0
 10
59.23850803371303
 20
177.33112751091886
 30
1003.0
 10
58.81240176838659
 20
180.10000000482074
 30
1003.0
  0
LINE
  5
3F
330
17
100
AcDbEntity
  8
0
100
AcDbLine
 10
27.002268041006516
 20
157.9
 30
1003.0
 11
61.88044768104833
 21
157.9
 31
1003.0
  0
SPLINE
  5
40
330
17
100
AcDbEntity
  8
0
100
AcDbSpline
 70
0
 71
1
 72
4
 73
2
 74
0
 40
0.0
 40
0.0
 40
1.0
 40
1.0
 10
27.002268031135458
 20
157.90000060000042
 30
1003.0
 10
27.002268031135458
 20
154.09999939999918
 30
1003.0
  0
LINE
  5
41
330
17
100
AcDbEntity
  8
0
100
AcDbLine
 10
27.002268041006516
 20
154.1
 30
1003.0
 11
62.3414736289617
 21
154.1
 31
1003.0
  0
SPLINE
  5
42
330
17
100
AcDbEntity
  8
0
100
AcDbSpline
 70
0
 71
8
 72
32
 73
23
 74
0
 40
0.0
 40
0.0
 40
0.0
 40
0.0
 40
0.0
 40
0.0
 40
0.0
 40
0.0
 40
0.0
 40
0.33868569665873405
 40
0.33868569665873405
 40
0.33868569665873405
 40
0.33868569665873405
 40
0.33868569665873405
 40
0.33868569665873405
 40
0.33868569665873405
 40
0.7496142519473927
 40
0.7496142519473927
 40
0.7496142519473927
 40
0.7496142519473927
 40
0.7496142519473927
 40
0.7496142519473927
 40
0.7496142519473927
 40
1.0
 40
1.0
 40
1.0
 40
1.0
 40
1.0
 40
1.0
 40
1.0
 40
1.0
 40
1.0
 10
64.69909957558455
 20
131.8999999487637
 30
1003.0
 10
64.61049984658926
 20
132.84524198151365
 30
1003.0
 10
64.52078642751455
 20
133.79037958725328
 30
1003.0
 10
64.42995622296345
 20
134.735410943991
 30
1003.0
 10
64.33800719580911
 20
135.68033430208428
 30
1003.0
 10
64.2449376372597
 20
136.62514792087512
 30
1003.0
 10
64.15074543692322
 20
137.56985000532543
 30
1003.0
 10
64.05542735287247
 20
138.51443864265238
 30
1003.0
 10
63.841956282071806
 20
140.6048442917857
 30
1003.0
 10
63.72340434285605
 20
141.7492942922316
 30
1003.0
 10
63.603333851924646
 20
142.89214736503234
 30
1003.0
 10
63.48175619713974
 20
144.03328913491816
 30
1003.0
 10
63.35868276636351
 20
145.17260522661888
 30
1003.0
 10
63.23412494745816
 20
146.30998126486395
 30
1003.0
 10
63.10809412828602
 20
147.44530287438258
 30
1003.0
 10
62.90291839278582
 20
149.26890493006331
 30
1003.0
 10
62.82460990744815
 20
149.95928261307975
 30
1003.0
 10
62.74567362727218
 20
150.6495879719128
 30
1003.0
 10
62.666106797881724
 20
151.33982020155997
 30
1003.0
 10
62.585906518306714
 20
152.02997844821493
 30
1003.0
 10
62.505069735476674
 20
152.72006180845204
 30
1003.0
 10
62.42359323865814
 20
153.4100693284087
 30
1003.0
 10
62.34147365364483
 20
154.10000000293792
 30
1003.0
  0
LINE
  5
43
330
17
100
AcDbEntity
  8
0
100
AcDbLine
 10
27.002268041006516
 20
131.9
 30
1003.0
 11
64.69910012220825
 21
131.9
 31
1003.0
  0
SPLINE
  5
44
330
17
100
AcDbEntity
  8
0
100
AcDbSpline
 70
0
 71
1
 72
4
 73
2
 74
0
 40
0.0
 40
0.0
 40
1.0
 40
1.0
 10
27.002268031135458
 20
131.90000060000256
 30
1003.0
 10
27.002268031135458
 20
128.09999939999764
 30
1003.0
  0
LINE
  5
45
330
17
100
AcDbEntity
  8
0
100
AcDbLine
 10
27.002268041006516
 20
128.1
 30
1003.0
 11
65.04738058055328
 21
128.1
 31
1003.0
  0
SPLINE
  5
46
330
17
100
AcDbEntity
  8
0
100
AcDbSpline
 70
0
 71
8
 72
25
 73
16
 74
0
 40
0.0
 40
0.0
 40
0.0
 40
0.0
 40
0.0
 40
0.0
 40
0.0
 40
0.0
 40
0.0
 40
0.2611504521018532
 40
0.2611504521018532
 40
0.2611504521018532
 40
0.2611504521018532
 40
0.2611504521018532
 40
0.2611504521018532
 40
0.2611504521018532
 40
1.0
 40
1.0
 40
1.0
 40
1.0
 40
1.0
 40
1.0
 40
1.0
 40
1.0
 40
1.0
 10
66.78358919554067
 20
105.90000001516154
 30
1003.0
 10
66.73472037712037
 20
106.62527567327282
 30
1003.0
 10
66.68529674637963
 20
107.35051393874221
 30
1003.0
 10
66.63531476034241
 20
108.07571408111858
 30
1003.0
 10
66.58477085960116
 20
108.80087535890934
 30
1003.0
 10
66.53366146812935
 20
109.52599701956976
 30
1003.0
 10
66.48198299309391
 20
110.25107829949218
 30
1003.0
 10
66.42973182466775
 20
110.97611842399539
 30
1003.0
 10
66.22744426054402
 20
113.75228893215802
 30
1003.0
 10
66.07337105791441
 20
115.80312490547449
 30
1003.0
 10
65.91460269116065
 20
117.85360650142812
 30
1003.0
 10
65.75105595945453
 20
119.90371472400501
 30
1003.0
 10
65.58264649793252
 20
121.95342960701248
 30
1003.0
 10
65.40928877769572
 20
124.00273021407905
 30
1003.0
 10
65.23089610580995
 20
126.05159463865435
 30
1003.0
 10
65.04738062530568
 20
128.10000000400927
 30
1003.0
  0
LINE
  5
47
330
17
100
AcDbEntity
  8
0
100
AcDbLine
 10
27.002268041006516
 20
105.9
 30
1003.0
 11
66.78358897052384
 21
105.9
 31
1003.0
  0
SPLINE
  5
48
330
17
100
AcDbEntity
  8
0
100
AcDbSpline
 70
0
 71
1
 72
4
 73
2
 74
0
 40
0.0
 40
0.0
 40
1.0
 40
1.0
 10
27.002268031135458
 20
105.90000060000206
 30
1003.0
 10
27.002268031135458
 20
102.09999939999993
 30
1003.0
  0
LINE
  5
49
330
17
100
AcDbEntity
  8
0
100
AcDbLine
 10
27.002268041006516
 20
102.1
 30
1003.0
 11
67.03299607422551
 21
102.1
 31
1003.0
  0
SPLINE
  5
4A
330
17
100
AcDbEntity
  8
0
100
AcDbSpline
 70
0
 71
8
 72
18
 73
9
 74
0
 40
0.0
 40
0.0
 40
0.0
 40
0.0
 40
0.0
 40
0.0
 40
0.0
 40
0.0
 40
0.0
 40
1.0
 40
1.0
 40
1.0
 40
1.0
 40
1.0
 40
1.0
 40
1.0
 40
1.0
 40
1.0
 10
68.240132094753
 20
79.90000000037564
 30
1003.0
 10
68.11427121481069
 20
82.67628804936902
 30
1003.0
 10
67.98162493781373
 20
85.45226814464311
 30
1003.0
 10
67.84201373374418
 20
88.2279131624058
 30
1003.0
 10
67.69525527966515
 20
91.00319366086852
 30
1003.0
 10
67.54116430655725
 20
93.77807787150311
 30
1003.0
 10
67.37955244615517
 20
96.5525316902984
 30
1003.0
 10
67.21022807778411
 20
99.32651866901706
 30
1003.0
 10
67.0329961751963
 20
102.10000000645228
 30
1003.0
  0
LINE
  5
4B
330
17
100
AcDbEntity
  8
0
100
AcDbLine
 10
27.002268041006516
 20
79.9
 30
1003.0
 11
68.24013208646625
 21
79.9
 31
1003.0
  0
SPLINE
  5
4C
330
17
100
AcDbEntity
  8
0
100
AcDbSpline
 70
0
 71
1
 72
4
 73
2
 74
0
 40
0.0
 40
0.0
 40
1.0
 40
1.0
 10
27.002268031135458
 20
79.90000060000001
 30
1003.0
 10
27.002268031135458
 20
76.09999939999999
 30
1003.0
  0
LINE
  5
4D
330
17
100
AcDbEntity
  8
0
100
AcDbLine
 10
27.002268041006516
 20
76.1
 30
1003.0
 11
68.40688046239312
 21
76.1
 31
1003.0
  0
SPLINE
  5
4E
330
17
100
AcDbEntity
  8
0
100
AcDbSpline
 70
0
 71
8
 72
25
 73
16
 74
0
 40
0.0
 40
0.0
 40
0.0
 40
0.0
 40
0.0
 40
0.0
 40
0.0
 40
0.0
 40
0.0
 40
0.9582060050318644
 40
0.9582060050318644
 40
0.9582060050318644
 40
0.9582060050318644
 40
0.9582060050318644
 40
0.9582060050318644
 40
0.9582060050318644
 40
1.0
 40
1.0
 40
1.0
 40
1.0
 40
1.0
 40
1.0
 40
1.0
 40
1.0
 40
1.0
 10
69.17397818348783
 20
53.90000000051489
 30
1003.0
 10
69.10189601890615
 20
56.55965784253502
 30
1003.0
 10
69.02470120211358
 20
59.21917635053064
 30
1003.0
 10
68.94224896130157
 20
61.8785401811565
 30
1003.0
 10
68.85439270885111
 20
64.53773296440626
 30
1003.0
 10
68.76098392545902
 20
67.19673730155127
 30
1003.0
 10
68.6618720417947
 20
69.85553476301175
 30
1003.0
 10
68.55690431768718
 20
72.51410588616027
 30
1003.0
 10
68.44108517413993
 20
75.28837809165418
 30
1003.0
 10
68.43623319453089
 20
75.40432553093808
 30
1003.0
 10
68.43136976715518
 20
75.52027248911367
 30
1003.0
 10
68.42649487914446
 20
75.63621896437832
 30
1003.0
 10
68.42160851762227
 20
75.75216495492243
 30
1003.0
 10
68.41671066970405
 20
75.86811045892938
 30
1003.0
 10
68.41180132249701
 20
75.98405547457548
 30
1003.0
 10
68.40688046310025
 20
76.10000000003002
 30
1003.0
  0
LINE
  5
4F
330
17
100
AcDbEntity
  8
0
100
AcDbLine
 10
27.002268041006516
 20
53.9
 30
1003.0
 11
69.17397816449007
 21
53.9
 31
1003.0
  0
SPLINE
  5
50
330
17
100
AcDbEntity
  8
0
100
AcDbSpline
 70
0
 71
1
 72
4
 73
2
 74
0
 40
0.0
 40
0.0
 40
1.0
 40
1.0
 10
27.002268031135458
 20
53.90000060000026
 30
1003.0
 10
27.002268031135458
 20
50.09999939999937
 30
1003.0
  0
LINE
  5
51
330
17
100
AcDbEntity
  8
0
100
AcDbLine
 10
27.002268041006516
 20
50.1
 30
1003.0
 11
69.27244299296046
 21
50.1
 31
1003.0
  0
SPLINE
  5
52
330
17
100
AcDbEntity
  8
0
100
AcDbSpline
 70
0
 71
8
 72
18
 73
9
 74
0
 40
0.0
 40
0.0
 40
0.0
 40
0.0
 40
0.0
 40
0.0
 40
0.0
 40
0.0
 40
0.0
 40
1.0
 40
1.0
 40
1.0
 40
1.0
 40
1.0
 40
1.0
 40
1.0
 40
1.0
 40
1.0
 10
69.67934698738249
 20
27.8999999926221
 30
1003.0
 10
69.6451432672738
 20
30.67527244051334
 30
1003.0
 10
69.60649110658231
 20
33.450490725150004
 30
1003.0
 10
69.56323684463733
 20
36.225644515110815
 30
1003.0
 10
69.51522531492026
 20
39.000722274447725
 30
1003.0
 10
69.46229971310983
 20
41.77571126044617
 30
1003.0
 10
69.40430146194481
 20
44.550597521298094
 30
1003.0
 10
69.34107007290443
 20
47.325365893687774
 30
1003.0
 10
69.2724430047063
 20
50.10000000029051
 30
1003.0
  0
LINE
  5
53
330
17
100
AcDbEntity
  8
0
100
AcDbLine
 10
27.002268041006516
 20
27.9
 30
1003.0
 11
69.67934758602078
 21
27.9
 31
1003.0
  0
SPLINE
  5
54
330
17
100
AcDbEntity
  8
0
100
AcDbSpline
 70
0
 71
1
 72
4
 73
2
 74
0
 40
0.0
 40
0.0
 40
1.0
 40
1.0
 10
27.002268031135458
 20
27.900000600000002
 30
1003.0
 10
27.002268031135458
 20
24.099999399999998
 30
1003.0
  0
LINE
  5
55
330
17
100
AcDbEntity
  8
0
100
AcDbLine
 10
27.002268041006516
 20
24.1
 30
1003.0
 11
69.72257379503863
 21
24.1
 31
1003.0
  0
SPLINE
  5
56
330
17
100
AcDbEntity
  8
0
100
AcDbSpline
 70
0
 71
8
 72
18
 73
9
 74
0
 40
0.0
 40
0.0
 40
0.0
 40
0.0
 40
0.0
 40
0.0
 40
0.0
 40
0.0
 40
0.0
 40
1.0
 40
1.0
 40
1.0
 40
1.0
 40
1.0
 40
1.0
 40
1.0
 40
1.0
 40
1.0
 10
69.84260571971768
 20
1.899999999862286
 30
1003.0000000000001
 10
69.84051739606595
 20
4.675055583958082
 30
1003.0000000000001
 10
69.83503447822565
 20
7.450104889282498
 30
1003.0000000000001
 10
69.826010432203
 20
10.225144609130215
 30
1003.0000000000001
 10
69.81329781061582
 20
13.000170242784513
 30
1003.0000000000001
 10
69.79674813201213
 20
15.775176093585321
 30
1003.0000000000001
 10
69.77621175700938
 20
18.55015526691018
 30
1003.0000000000001
 10
69.75153776125423
 20
21.32509966806807
 30
1003.0000000000001
 10
69.72257380520287
 20
24.100000000106114
 30
1003.0000000000001
  0
LINE
  5
57
330
17
100
AcDbEntity
  8
0
100
AcDbLine
 10
27.002268041006516
 20
1.9
 30
1003.0
 11
69.84260590272368
 21
1.9
 31
1003.0
  0
SPLINE
  5
58
330
17
100
AcDbEntity
  8
0
100
AcDbSpline
 70
0
 71
1
 72
4
 73
2
 74
0
 40
0.0
 40
0.0
 40
0.9999993684216398
 40
0.9999993684216398
 10
27.002268031135458
 20
1.9000006000000558
 30
1003.0
 10
27.002268031135458
 20
-6.553790374438061e-17
 30
1003.0
  0
SPLINE
  5
59
330
17
100
AcDbEntity
  8
0
100
AcDbSpline
 70
0
 71
1
 72
4
 73
2
 74
0
 40
0.0
 40
0.0
 40
1.0
 40
1.0
 10
27.002268031135458
 20
-1.9000006000000011
 30
1003.0
 10
27.002268031135458
 20
1.2000000211287443e-06
 30
1003.0
  0
LINE
  5
5A
330
17
100
AcDbEntity
  8
0
100
AcDbLine
 10
27.00226804100651
 20
-1.9
 30
1003.0
 11
69.84271174604137
 21
-1.9
 31
1003.0
  0
SPLINE
  5
5B
330
17
100
AcDbEntity
  8
0
100
AcDbSpline
 70
0
 71
8
 72
18
 73
9
 74
0
 40
0.0
 40
0.0
 40
0.0
 40
0.0
 40
0.0
 40
0.0
 40
0.0
 40
0.0
 40
0.0
 40
1.0
 40
1.0
 40
1.0
 40
1.0
 40
1.0
 40
1.0
 40
1.0
 40
1.0
 40
1.0
 10
69.72383420346489
 20
-24.099999995688645
 30
1003.0
 10
69.7526712669051
 20
-21.32512573681905
 30
1003.0
 10
69.7772111598369
 20
-18.550205924006104
 30
1003.0
 10
69.79760736013212
 20
-15.775247484223208
 30
1003.0
 10
69.81401190990762
 20
-13.000255650744835
 30
1003.0
 10
69.82657554349944
 20
-10.225233967318944
 30
1003.0
 10
69.83544781568513
 20
-7.450184292330071
 30
1003.0
 10
69.84077723155275
 20
-4.675106803008955
 30
1003.0
 10
69.8427113794166
 20
-1.8999999997444597
 30
1003.0
  0
LINE
  5
5C
330
17
100
AcDbEntity
  8
0
100
AcDbLine
 10
27.00226804100651
 20
-24.1
 30
1003.0
 11
69.72383461832919
 21
-24.1
 31
1003.0
  0
SPLINE
  5
5D
330
17
100
AcDbEntity
  8
0
100
AcDbSpline
 70
0
 71
1
 72
4
 73
2
 74
0
 40
0.0
 40
0.0
 40
1.0
 40
1.0
 10
27.002268031135458
 20
-27.900000600000034
 30
1003.0
 10
27.002268031135458
 20
-24.099999399999938
 30
1003.0
  0
LINE
  5
5E
330
17
100
AcDbEntity
  8
0
100
AcDbLine
 10
27.00226804100651
 20
-27.9
 30
1003.0
 11
69.68077517801328
 21
-27.9
 31
1003.0
  0
SPLINE
  5
5F
330
17
100
AcDbEntity
  8
0
100
AcDbSpline
 70
0
 71
8
 72
18
 73
9
 74
0
 40
0.0
 40
0.0
 40
0.0
 40
0.0
 40
0.0
 40
0.0
 40
0.0
 40
0.0
 40
0.0
 40
1.0
 40
1.0
 40
1.0
 40
1.0
 40
1.0
 40
1.0
 40
1.0
 40
1.0
 40
1.0
 10
69.27450703040101
 20
-50.10000000290834
 30
1003.0
 10
69.3431006152638
 20
-47.32534903593387
 30
1003.0
 10
69.40628296927065
 20
-44.55056879796409
 30
1003.0
 10
69.46421782295806
 20
-41.77567620153337
 30
1003.0
 10
69.51706686323665
 20
-39.00068644439205
 30
1003.0
 10
69.56498986635988
 20
-36.225613013944766
 30
1003.0
 10
69.60814482786003
 20
-33.45046769154857
 30
1003.0
 10
69.64668809085208
 20
-30.675260556726784
 30
1003.0
 10
69.68077447410627
 20
-27.899999991354456
 30
1003.0
  0
LINE
  5
60
330
17
100
AcDbEntity
  8
0
100
AcDbLine
 10
27.00226804100651
 20
-50.1
 30
1003.0
 11
69.27450691275602
 21
-50.1
 31
1003.0
  0
SPLINE
  5
61
330
17
100
AcDbEntity
  8
0
100
AcDbSpline
 70
0
 71
1
 72
4
 73
2
 74
0
 40
0.0
 40
0.0
 40
1.0
 40
1.0
 10
27.002268031135458
 20
-53.9000006
 30
1003.0
 10
27.002268031135458
 20
-50.0999994
 30
1003.0
  0
LINE
  5
62
330
17
100
AcDbEntity
  8
0
100
AcDbLine
 10
27.00226804100651
 20
-53.9
 30
1003.0
 11
69.17607569773479
 21
-53.9
 31
1003.0
  0
SPLINE
  5
63
330
17
100
AcDbEntity
  8
0
100
AcDbSpline
 70
0
 71
8
 72
18
 73
9
 74
0
 40
0.0
 40
0.0
 40
0.0
 40
0.0
 40
0.0
 40
0.0
 40
0.0
 40
0.0
 40
0.0
 40
1.0
 40
1.0
 40
1.0
 40
1.0
 40
1.0
 40
1.0
 40
1.0
 40
1.0
 40
1.0
 10
68.40856571388781
 20
-76.10000000308015
 30
1003.0
 10
68.52643234762073
 20
-73.32581930181324
 30
1003.0
 10
68.63768471072025
 20
-70.55135474316977
 30
1003.0
 10
68.74250061843728
 20
-67.77663338311815
 30
1003.0
 10
68.8410551806731
 20
-65.00168053758479
 30
1003.0
 10
68.93352095169315
 20
-62.22651978762595
 30
1003.0
 10
69.02006807350952
 20
-59.45117298432797
 30
1003.0
 10
69.10086441433714
 20
-56.675660253491635
 30
1003.0
 10
69.17607570352868
 20
-53.90000000015699
 30
1003.0
  0
LINE
  5
64
330
17
100
AcDbEntity
  8
0
100
AcDbLine
 10
27.00226804100651
 20
-76.1
 30
1003.0
 11
68.40856564139081
 21
-76.1
 31
1003.0
  0
SPLINE
  5
65
330
17
100
AcDbEntity
  8
0
100
AcDbSpline
 70
0
 71
1
 72
4
 73
2
 74
0
 40
0.0
 40
0.0
 40
1.0
 40
1.0
 10
27.002268031135458
 20
-79.90000060000018
 30
1003.0
 10
27.002268031135458
 20
-76.09999939999999
 30
1003.0
  0
LINE
  5
66
330
17
100
AcDbEntity
  8
0
100
AcDbLine
 10
27.00226804100651
 20
-79.9
 30
1003.0
 11
68.24162523852688
 21
-79.9
 31
1003.0
  0
SPLINE
  5
67
330
17
100
AcDbEntity
  8
0
100
AcDbSpline
 70
0
 71
8
 72
18
 73
9
 74
0
 40
0.0
 40
0.0
 40
0.0
 40
0.0
 40
0.0
 40
0.0
 40
0.0
 40
0.0
 40
0.0
 40
1.0
 40
1.0
 40
1.0
 40
1.0
 40
1.0
 40
1.0
 40
1.0
 40
1.0
 40
1.0
 10
67.03247073599982
 20
-102.10000001996349
 30
1003.0
 10
67.21005891489997
 20
-99.32654227464077
 30
1003.0
 10
67.3797072935241
 20
-96.55257344353956
 30
1003.0
 10
67.54161224172225
 20
-93.77813095688731
 30
1003.0
 10
67.69596664836035
 20
-91.00325047167291
 30
1003.0
 10
67.84296009988603
 20
-88.22796587803364
 30
1003.0
 10
67.98277904921767
 20
-85.45230930523687
 30
1003.0
 10
68.11560697637086
 20
-82.67631112731286
 30
1003.0
 10
68.24162454223561
 20
-79.89999996839515
 30
1003.0
  0
LINE
  5
68
330
17
100
AcDbEntity
  8
0
100
AcDbLine
 10
27.00226804100651
 20
-102.1
 30
1003.0
 11
67.0324704242233
 21
-102.1
 31
1003.0
  0
SPLINE
  5
69
330
17
100
AcDbEntity
  8
0
100
AcDbSpline
 70
0
 71
1
 72
4
 73
2
 74
0
 40
0.0
 40
0.0
 40
1.0
 40
1.0
 10
27.002268031135458
 20
-105.90000060000003
 30
1003.0
 10
27.002268031135458
 20
-102.09999939999999
 30
1003.0
  0
LINE
  5
6A
330
17
100
AcDbEntity
  8
0
100
AcDbLine
 10
27.00226804100651
 20
-105.9
 30
1003.0
 11
66.78254645114336
 21
-105.9
 31
1003.0
  0
SPLINE
  5
6B
330
17
100
AcDbEntity
  8
0
100
AcDbSpline
 70
0
 71
8
 72
25
 73
16
 74
0
 40
0.0
 40
0.0
 40
0.0
 40
0.0
 40
0.0
 40
0.0
 40
0.0
 40
0.0
 40
0.0
 40
0.04163440973206384
 40
0.04163440973206384
 40
0.04163440973206384
 40
0.04163440973206384
 40
0.04163440973206384
 40
0.04163440973206384
 40
0.04163440973206384
 40
1.0
 40
1.0
 40
1.0
 40
1.0
 40
1.0
 40
1.0
 40
1.0
 40
1.0
 40
1.0
 10
65.04211547251056
 20
-128.10000003542967
 30
1003.0
 10
65.05248000838544
 20
-127.98461975644008
 30
1003.0
 10
65.06282885288799
 20
-127.86923090407106
 30
1003.0
 10
65.07316202488632
 20
-127.75383344731566
 30
1003.0
 10
65.08347954433911
 20
-127.63842734976566
 30
1003.0
 10
65.09378143229563
 20
-127.52301256961161
 30
1003.0
 10
65.1040677108957
 20
-127.40758905964277
 30
1003.0
 10
65.1143384033697
 20
-127.29215676724722
 30
1003.0
 10
65.36065222731621
 20
-124.51942302180957
 30
1003.0
 10
65.58810061651096
 20
-121.861393881233
 30
1003.0
 10
65.80713194835903
 20
-119.20267026596034
 30
1003.0
 10
66.0179357583633
 20
-116.5432926963787
 30
1003.0
 10
66.22069804749471
 20
-113.8833001664861
 30
1003.0
 10
66.41560144882236
 20
-111.22273014997674
 30
1003.0
 10
66.60282538513358
 20
-108.56161860595185
 30
1003.0
 10
66.78254621860587
 20
-105.89999998429835
 30
1003.0
  0
LINE
  5
6C
330
17
100
AcDbEntity
  8
0
100
AcDbLine
 10
27.00226804100651
 20
-128.1
 30
1003.0
 11
65.04211507810007
 21
-128.1
 31
1003.0
  0
SPLINE
  5
6D
330
17
100
AcDbEntity
  8
0
100
AcDbSpline
 70
0
 71
1
 72
4
 73
2
 74
0
 40
0.0
 40
0.0
 40
1.0
 40
1.0
 10
27.002268031135458
 20
-131.9000006
 30
1003.0
 10
27.002268031135458
 20
-128.09999939999992
 30
1003.0
  0
LINE
  5
6E
330
17
100
AcDbEntity
  8
0
100
AcDbLine
 10
27.00226804100651
 20
-131.9
 30
1003.0
 11
64.69288522045692
 21
-131.9
 31
1003.0
  0
SPLINE
  5
6F
330
17
100
AcDbEntity
  8
0
100
AcDbSpline
 70
0
 71
8
 72
32
 73
23
 74
0
 40
0.0
 40
0.0
 40
0.0
 40
0.0
 40
0.0
 40
0.0
 40
0.0
 40
0.0
 40
0.0
 40
0.4779668045160271
 40
0.4779668045160271
 40
0.4779668045160271
 40
0.4779668045160271
 40
0.4779668045160271
 40
0.4779668045160271
 40
0.4779668045160271
 40
0.844401554815714
 40
0.844401554815714
 40
0.844401554815714
 40
0.844401554815714
 40
0.844401554815714
 40
0.844401554815714
 40
0.844401554815714
 40
1.0
 40
1.0
 40
1.0
 40
1.0
 40
1.0
 40
1.0
 40
1.0
 40
1.0
 40
1.0
 10
62.32842610286396
 20
-154.10000000468932
 30
1003.0
 10
62.48611350329025
 20
-152.7790647530357
 30
1003.0
 10
62.64143731098663
 20
-151.45784740608124
 30
1003.0
 10
62.79442084930406
 20
-150.1363557457367
 30
1003.0
 10
62.94508524018738
 20
-148.8145970220031
 30
1003.0
 10
63.09344954162718
 20
-147.49257797069322
 30
1003.0
 10
63.2395308489886
 20
-146.17030482638884
 30
1003.0
 10
63.383344360217066
 20
-144.8477833306343
 30
1003.0
 10
63.63343009068384
 20
-142.51091710823817
 30
1003.0
 10
63.740767563790854
 20
-141.49540335584547
 30
1003.0
 10
63.84690765427533
 20
-140.47855781722575
 30
1003.0
 10
63.951842192170645
 20
-139.46046083141727
 30
1003.0
 10
64.05556300751014
 20
-138.4411927374583
 30
1003.0
 10
64.15806193032718
 20
-137.42083387438706
 30
1003.0
 10
64.25933079065508
 20
-136.3994645812419
 30
1003.0
 10
64.40183722125877
 20
-134.94306828195857
 30
1003.0
 10
64.44409068035253
 20
-134.50879764669642
 30
1003.0
 10
64.48612048848139
 20
-134.07436313740237
 30
1003.0
 10
64.52792556086459
 20
-133.6397734979969
 30
1003.0
 10
64.56950503526771
 20
-133.205036370193
 30
1003.0
 10
64.6108582720027
 20
-132.77015829349622
 30
1003.0
 10
64.65198485392784
 20
-132.3351447052046
 30
1003.0
 10
64.69288458644778
 20
-131.89999994040878
 30
1003.0
  0
LINE
  5
70
330
17
100
AcDbEntity
  8
0
100
AcDbLine
 10
27.00226804100651
 20
-154.1
 30
1003.0
 11
62.328426063581205
 21
-154.1
 31
1003.0
  0
SPLINE
  5
71
330
17
100
AcDbEntity
  8
0
100
AcDbSpline
 70
0
 71
1
 72
4
 73
2
 74
0
 40
0.0
 40
0.0
 40
1.0
 40
1.0
 10
27.002268031135458
 20
-157.90000060000003
 30
1003.0
 10
27.002268031135458
 20
-154.0999994
 30
1003.0
  0
LINE
  5
72
330
17
100
AcDbEntity
  8
0
100
AcDbLine
 10
27.00226804100651
 20
-157.9
 30
1003.0
 11
61.866048651864325
 21
-157.9
 31
1003.0
  0
SPLINE
  5
73
330
17
100
AcDbEntity
  8
0
100
AcDbSpline
 70
0
 71
8
 72
25
 73
16
 74
0
 40
0.0
 40
0.0
 40
0.0
 40
0.0
 40
0.0
 40
0.0
 40
0.0
 40
0.0
 40
0.0
 40
0.22759720548966214
 40
0.22759720548966214
 40
0.22759720548966214
 40
0.22759720548966214
 40
0.22759720548966214
 40
0.22759720548966214
 40
0.22759720548966214
 40
1.0
 40
1.0
 40
1.0
 40
1.0
 40
1.0
 40
1.0
 40
1.0
 40
1.0
 40
1.0
 10
58.78941433106521
 20
-180.1000000010332
 30
1003.0
 10
58.8866490853616
 20
-179.4698202342998
 30
1003.0
 10
58.98320133428621
 20
-178.8395349223813
 30
1003.0
 10
59.07907820312065
 20
-178.2091459258547
 30
1003.0
 10
59.1742865502636
 20
-177.57865500008847
 30
1003.0
 10
59.26883298190065
 20
-176.94806379782602
 30
1003.0
 10
59.362723865821266
 20
-176.3173738716314
 30
1003.0
 10
59.455965344982104
 20
-175.68658667630373
 30
1003.0
 10
59.86281571133226
 20
-172.9146585079452
 30
1003.0
 10
60.169654210755425
 20
-170.77252799122377
 30
1003.0
 10
60.46930887957926
 20
-168.62937287264862
 30
1003.0
 10
60.76198069975423
 20
-166.48524850384047
 30
1003.0
 10
61.04784562250511
 20
-164.34020526177483
 30
1003.0
 10
61.32705791629722
 20
-162.194288985698
 30
1003.0
 10
61.59975284555108
 20
-160.0475413257796
 30
1003.0
 10
61.86604868010562
 20
-157.90000000350182
 30
1003.0
  0
LINE
  5
74
330
17
100
AcDbEntity
  8
0
100
AcDbLine
 10
27.00226804100651
 20
-180.1
 30
1003.0
 11
58.78941432436935
 21
-180.1
 31
1003.0
  0
SPLINE
  5
75
330
17
100
AcDbEntity
  8
0
100
AcDbSpline
 70
0
 71
1
 72
4
 73
2
 74
0
 40
0.0
 40
0.0
 40
1.0
 40
1.0
 10
27.002268031135458
 20
-183.9000006000001
 30
1003.0
 10
27.002268031135458
 20
-180.09999939999994
 30
1003.0
  0
LINE
  5
76
330
17
100
AcDbEntity
  8
0
100
AcDbLine
 10
27.00226804100651
 20
-183.9
 30
1003.0
 11
58.191775194814866
 21
-183.9
 31
1003.0
  0
SPLINE
  5
77
330
17
100
AcDbEntity
  8
0
100
AcDbSpline
 70
0
 71
8
 72
25
 73
16
 74
0
 40
0.0
 40
0.0
 40
0.0
 40
0.0
 40
0.0
 40
0.0
 40
0.0
 40
0.0
 40
0.0
 40
0.15079675919585472
 40
0.15079675919585472
 40
0.15079675919585472
 40
0.15079675919585472
 40
0.15079675919585472
 40
0.15079675919585472
 40
0.15079675919585472
 40
1.0
 40
1.0
 40
1.0
 40
1.0
 40
1.0
 40
1.0
 40
1.0
 40
1.0
 40
1.0
 10
54.177360841588744
 20
-206.09999999378277
 30
1003.0
 10
54.26259127332671
 20
-205.68335121977697
 30
1003.0
 10
54.34734400303411
 20
-205.26660460298166
 30
1003.0
 10
54.43162534077838
 20
-204.8497620477797
 30
1003.0
 10
54.51544139320768
 20
-204.43282536493905
 30
1003.0
 10
54.59879807372485
 20
-204.01579627382372
 30
1003.0
 10
54.68170111070693
 20
-203.5986764041662
 30
1003.0
 10
54.764156053770144
 20
-203.18146729740045
 30
1003.0
 10
55.308015383025854
 20
-200.41418707155435
 30
1003.0
 10
55.75581632531213
 20
-198.06145588092514
 30
1003.0
 10
56.190532791634936
 20
-195.70624736019977
 30
1003.0
 10
56.61295620834585
 20
-193.34879068754603
 30
1003.0
 10
57.0237546662796
 20
-190.9892818825523
 30
1003.0
 10
57.42350227574103
 20
-188.6278889072101
 30
1003.0
 10
57.812697270605724
 20
-186.26475480433976
 30
1003.0
 10
58.19177518048885
 20
-183.8999999977034
 30
1003.0
  0
LINE
  5
78
330
17
100
AcDbEntity
  8
0
100
AcDbLine
 10
27.00226804100651
 20
-206.1
 30
1003.0
 11
54.17736087198175
 21
-206.1
 31
1003.0
  0
SPLINE
  5
79
330
17
100
AcDbEntity
  8
0
100
AcDbSpline
 70
0
 71
1
 72
4
 73
2
 74
0
 40
0.0
 40
0.0
 40
1.0
 40
1.0
 10
27.002268031135458
 20
-209.90000060000008
 30
1003.0
 10
27.002268031135458
 20
-206.09999939999992
 30
1003.0
  0
LINE
  5
7A
330
17
100
AcDbEntity
  8
0
100
AcDbLine
 10
27.00226804100651
 20
-209.9
 30
1003.0
 11
53.38129210958253
 21
-209.9
 31
1003.0
  0
SPLINE
  5
7B
330
17
100
AcDbEntity
  8
0
100
AcDbSpline
 70
0
 71
8
 72
25
 73
16
 74
0
 40
0.0
 40
0.0
 40
0.0
 40
0.0
 40
0.0
 40
0.0
 40
0.0
 40
0.0
 40
0.0
 40
0.6189745639878127
 40
0.6189745639878127
 40
0.6189745639878127
 40
0.6189745639878127
 40
0.6189745639878127
 40
0.6189745639878127
 40
0.6189745639878127
 40
1.0
 40
1.0
 40
1.0
 40
1.0
 40
1.0
 40
1.0
 40
1.0
 40
1.0
 40
1.0
 10
47.71722566930738
 20
-232.0999999812826
 30
1003.0
 10
48.24282070895588
 20
-230.40651316745445
 30
1003.0
 10
48.747434966206114
 20
-228.70647922275376
 30
1003.0
 10
49.23363627651808
 20
-227.0010192935825
 30
1003.0
 10
49.703315657802605
 20
-225.29096411924687
 30
1003.0
 10
50.158012300339124
 20
-223.57694956306776
 30
1003.0
 10
50.59898219811324
 20
-221.85943662800167
 30
1003.0
 10
51.02730820427027
 20
-220.13874486541962
 30
1003.0
 10
51.700374433066976
 20
-217.35399746803014
 30
1003.0000000000001
 10
51.952376102506065
 20
-216.29186379894173
 30
1003.0
 10
52.200135097757624
 20
-215.2287265392511
 30
1002.9999999999998
 10
52.44384004753154
 20
-214.16464911641796
 30
1002.9999999999997
 10
52.683660755964524
 20
-213.09968868868702
 30
1002.9999999999995
 10
52.91975119997025
 20
-212.0338968100646
 30
1002.9999999999994
 10
53.15225196755679
 20
-210.96731996973352
 30
1002.9999999999994
 10
53.38129213711149
 20
-209.90000000590743
 30
1002.9999999999994
  0
LINE
  5
7C
330
17
100
AcDbEntity
  8
0
100
AcDbLine
 10
27.00226804100651
 20
-232.1
 30
1003.0
 11
47.71722572961551
 21
-232.1
 31
1003.0
  0
SPLINE
  5
7D
330
17
100
AcDbEntity
  8
0
100
AcDbSpline
 70
0
 71
1
 72
4
 73
2
 74
0
 40
0.0
 40
0.0
 40
1.0
 40
1.0
 10
27.002268031135458
 20
-235.90000060000008
 30
1003.0
 10
27.002268031135458
 20
-232.09999939999992
 30
1003.0
  0
LINE
  5
7E
330
17
100
AcDbEntity
  8
0
100
AcDbLine
 10
27.00226804100651
 20
-235.9
 30
1003.0
 11
46.48269730482282
 21
-235.9
 31
1003.0
  0
SPLINE
  5
7F
330
17
100
AcDbEntity
  8
0
100
AcDbSpline
 70
0
 71
8
 72
46
 73
37
 74
0
 40
0.0
 40
0.0
 40
0.0
 40
0.0
 40
0.0
 40
0.0
 40
0.0
 40
0.0
 40
0.0
 40
0.07955238275179316
 40
0.07955238275179316
 40
0.07955238275179316
 40
0.07955238275179316
 40
0.07955238275179316
 40
0.07955238275179316
 40
0.07955238275179316
 40
0.39261059403539145
 40
0.39261059403539145
 40
0.39261059403539145
 40
0.39261059403539145
 40
0.39261059403539145
 40
0.39261059403539145
 40
0.39261059403539145
 40
0.8116650569135956
 40
0.8116650569135956
 40
0.8116650569135956
 40
0.8116650569135956
 40
0.8116650569135956
 40
0.8116650569135956
 40
0.8116650569135956
 40
0.9998073839931741
 40
0.9998073839931741
 40
0.9998073839931741
 40
0.9998073839931741
 40
0.9998073839931741
 40
0.9998073839931741
 40
0.9998073839931741
 40
1.0
 40
1.0
 40
1.0
 40
1.0
 40
1.0
 40
1.0
 40
1.0
 40
1.0
 40
1.0
 10
34.03428793510345
 20
-258.1000000405122
 30
1003.0
 10
34.2248941648625
 20
-257.93352843192457
 30
1003.0
 10
34.413102971707055
 20
-257.7643077372561
 30
1003.0
 10
34.59894437607224
 20
-257.5924673264524
 30
1003.0
 10
34.782452184252946
 20
-257.4181300829016
 30
1003.0
 10
34.96366353747598
 20
-257.241411863378
 30
1003.0
 10
35.142618551739666
 20
-257.06242106971524
 30
1003.0
 10
35.319360048420826
 20
-256.88125833221113
 30
1003.0
 10
36.180922396839016
 20
-255.9769138140444
 30
1003.0
 10
36.833978302020085
 20
-255.22398453663317
 30
1003.0
 10
37.4561265614099
 20
-254.4447104713754
 30
1003.0
 10
38.04995309682216
 20
-253.64357258574444
 30
1003.0
 10
38.617789880516746
 20
-252.82419226188216
 30
1003.0
 10
39.16179981090966
 20
-251.98939490154913
 30
1003.0
 10
39.6840135976522
 20
-251.14123740219773
 30
1003.0
 10
40.8588190889395
 20
-249.12959705161947
 30
1003.0
 10
41.49523812318006
 20
-247.95735409956865
 30
1003.0
 10
42.1000042876833
 20
-246.76813509765097
 30
1003.0
 10
42.676441607627794
 20
-245.5648927923703
 30
1003.0
 10
43.22729127416807
 20
-244.34994061232547
 30
1003.0
 10
43.75490915166716
 20
-243.12504829264705
 30
1003.0
 10
44.261340078390724
 20
-241.89147756584705
 30
1003.0
 10
44.96709954696916
 20
-240.0926633271685
 30
1003.0
 10
45.185171074677974
 20
-239.52530836660893
 30
1003.0
 10
45.40267218824238
 20
-238.94779391300523
 30
1003.0
 10
45.619593548370375
 20
-238.35998723536468
 30
1003.0
 10
45.83590085661039
 20
-237.7618063356349
 30
1003.0
 10
46.051559656536156
 20
-237.15322917325383
 30
1003.0
 10
46.26656013493176
 20
-236.53430288969963
 30
1003.0
 10
46.481161402370674
 20
-235.90450892315326
 30
1003.0
 10
46.48138087789045
 20
-235.9038648119638
 30
1003.0
 10
46.48160034953614
 20
-235.9032206994723
 30
1003.0
 10
46.48181981730795
 20
-235.90257658567882
 30
1003.0
 10
46.482039281206106
 20
-235.90193247058343
 30
1003.0
 10
46.48225874123082
 20
-235.90128835418625
 30
1003.0
 10
46.482478197382314
 20
-235.90064423648735
 30
1003.0
 10
46.4826976496608
 20
-235.90000011748683
 30
1003.0
  0
LINE
  5
80
330
17
100
AcDbEntity
  8
0
100
AcDbLine
 10
27.00226804100651
 20
-258.1
 30
1003.0
 11
34.03428789972093
 21
-258.1
 31
1003.0
  0
SPLINE
  5
81
330
17
100
AcDbEntity
  8
0
100
AcDbSpline
 70
0
 71
1
 72
4
 73
2
 74
0
 40
0.0
 40
0.0
 40
1.0
 40
1.0
 10
27.002268031135458
 20
-261.640611693469
 30
1003.0
 10
27.002268031135458
 20
-258.09999939999994
 30
1003.0
  0
SPLINE
  5
82
330
17
100
AcDbEntity
  8
0
100
AcDbSpline
 70
0
 71
8
 72
60
 73
51
 74
0
 40
0.0
 40
0.0
 40
0.0
 40
0.0
 40
0.0
 40
0.0
 40
0.0
 40
0.0
 40
0.0
 40
0.022341675015047902
 40
0.022341675015047902
 40
0.022341675015047902
 40
0.022341675015047902
 40
0.022341675015047902
 40
0.022341675015047902
 40
0.022341675015047902
 40
0.040184149436332965
 40
0.040184149436332965
 40
0.040184149436332965
 40
0.040184149436332965
 40
0.040184149436332965
 40
0.040184149436332965
 40
0.040184149436332965
 40
0.05090950440608728
 40
0.05090950440608728
 40
0.05090950440608728
 40
0.05090950440608728
 40
0.05090950440608728
 40
0.05090950440608728
 40
0.05090950440608728
 40
0.05599167039573008
 40
0.05599167039573008
 40
0.05599167039573008
 40
0.05599167039573008
 40
0.05599167039573008
 40
0.05599167039573008
 40
0.05599167039573008
 40
0.058476792083448324
 40
0.058476792083448324
 40
0.058476792083448324
 40
0.058476792083448324
 40
0.058476792083448324
 40
0.058476792083448324
 40
0.058476792083448324
 40
0.06096196199127442
 40
0.06096196199127442
 40
0.06096196199127442
 40
0.06096196199127442
 40
0.06096196199127442
 40
0.06096196199127442
 40
0.06096196199127442
 40
0.07112464015727234
 40
0.07112464015727234
 40
0.07112464015727234
 40
0.07112464015727234
 40
0.07112464015727234
 40
0.07112464015727234
 40
0.07112464015727234
 40
0.07112464015727234
 40
0.07112464015727234
 10
2.36548033194218
 20
-232.9072247337727
 30
1003.0
 10
2.648219526152685
 20
-234.53209062603472
 30
1003.0
 10
2.9689866615322202
 20
-236.14991355957946
 30
1003.0
 10
3.330828832509402
 20
-237.75960647031997
 30
1003.0
 10
3.737176120739761
 20
-239.3592968138795
 30
1003.0
 10
4.191904891488036
 20
-240.9463055412006
 30
1003.0
 10
4.699367173456459
 20
-242.51713783098666
 30
1003.0
 10
5.264524265212371
 20
-244.06744288218124
 30
1003.0
 10
6.3954927672899755
 20
-246.80935974342432
 30
1003.0
 10
6.937998283644485
 20
-248.00971690559248
 30
1003.0
 10
7.523891157418767
 20
-249.19051203823227
 30
1003.0
 10
8.156330334791825
 20
-250.34809813321
 30
1003.0
 10
8.838506350150578
 20
-251.47768456648706
 30
1003.0
 10
9.573539730341796
 20
-252.57339694001783
 30
1003.0
 10
10.364353264160451
 20
-253.62835289127793
 30
1003.0
 10
11.723962735441544
 20
-255.2397152389204
 30
1003.0
 10
12.255370885846514
 20
-255.8269891562655
 30
1003.0
 10
12.808174875229291
 20
-256.3947657238902
 30
1003.0
 10
13.382647310798118
 20
-256.9410427809782
 30
1003.0
 10
13.978864076893561
 20
-257.46366657771546
 30
1003.0
 10
14.596653142639388
 20
-257.96038899288294
 30
1003.0
 10
15.23552922038026
 20
-258.42894129579366
 30
1003.0
 10
16.2069190571572
 20
-259.0747557657454
 30
1003.0
 10
16.523757905061167
 20
-259.27556603459215
 30
1003.0
 10
16.8450326104062
 20
-259.46931889082447
 30
1003.0
 10
17.17062863663926
 20
-259.65578455131225
 30
1003.0
 10
17.50041389349547
 20
-259.8347420514634
 30
1003.0
 10
17.834237511627293
 20
-260.0059814786054
 30
1003.0
 10
18.171928617233803
 20
-260.169306205366
 30
1003.0
 10
18.680219459049976
 20
-260.40044030810617
 30
1003.0
 10
18.84756863284387
 20
-260.4742032722124
 30
1003.0
 10
19.01533251913085
 20
-260.54583070948877
 30
1003.0
 10
19.183501008970097
 20
-260.61532931405077
 30
1003.0
 10
19.352063993420725
 20
-260.6827057800141
 30
1003.0
 10
19.52101136354175
 20
-260.74796680149444
 30
1003.0
 10
19.690333010392095
 20
-260.8111190726077
 30
1003.0
 10
20.029707932171203
 20
-260.9332206869204
 30
1003.0
 10
20.199757850572688
 20
-260.992155402057
 30
1003.0
 10
20.37015973305284
 20
-261.0490051557717
 30
1003.0
 10
20.540904908711333
 20
-261.10378446484356
 30
1003.0
 10
20.711984882929688
 20
-261.1564906399386
 30
1003.0
 10
20.883391337371325
 20
-261.20710378560966
 30
1003.0
 10
21.055116129981545
 20
-261.2555868002962
 30
1003.0
 10
21.93065973909201
 20
-261.4912155006925
 30
1003.0
 10
22.644235404105167
 20
-261.6453895979581
 30
1003.0
 10
23.366137518830865
 20
-261.7604575274999
 30
1003.0
 10
24.09410638363568
 20
-261.8326028301707
 30
1003.0
 10
24.825347507259824
 20
-261.858447774104
 30
1003.0
 10
25.556511454077338
 20
-261.835483943577
 30
1003.0
 10
26.28366735480005
 20
-261.76259168295223
 30
1003.0
 10
27.002268033620396
 20
-261.64061170771544
 30
1003.0
  0
SPLINE
  5
83
330
17
100
AcDbEntity
  8
0
100
AcDbSpline
 70
0
 71
8
 72
410
 73
401
 74
0
 40
0.0
 40
0.0
 40
0.0
 40
0.0
 40
0.0
 40
0.0
 40
0.0
 40
0.0
 40
0.0
 40
0.003121309198900615
 40
0.003121309198900615
 40
0.003121309198900615
 40
0.003121309198900615
 40
0.003121309198900615
 40
0.003121309198900615
 40
0.003121309198900615
 40
0.006382086901509107
 40
0.006382086901509107
 40
0.006382086901509107
 40
0.006382086901509107
 40
0.006382086901509107
 40
0.006382086901509107
 40
0.006382086901509107
 40
0.009968942374315755
 40
0.009968942374315755
 40
0.009968942374315755
 40
0.009968942374315755
 40
0.009968942374315755
 40
0.009968942374315755
 40
0.009968942374315755
 40
0.012251486766148179
 40
0.012251486766148179
 40
0.012251486766148179
 40
0.012251486766148179
 40
0.012251486766148179
 40
0.012251486766148179
 40
0.012251486766148179
 40
0.015512264468825919
 40
0.015512264468825919
 40
0.015512264468825919
 40
0.015512264468825919
 40
0.015512264468825919
 40
0.015512264468825919
 40
0.015512264468825919
 40
0.01909911994177888
 40
0.01909911994177888
 40
0.01909911994177888
 40
0.01909911994177888
 40
0.01909911994177888
 40
0.01909911994177888
 40
0.01909911994177888
 40
0.025438236544901908
 40
0.025438236544901908
 40
0.025438236544901908
 40
0.025438236544901908
 40
0.025438236544901908
 40
0.025438236544901908
 40
0.025438236544901908
 40
0.035947093887355994
 40
0.035947093887355994
 40
0.035947093887355994
 40
0.035947093887355994
 40
0.035947093887355994
 40
0.035947093887355994
 40
0.035947093887355994
 40
0.0583084323299263
 40
0.0583084323299263
 40
0.0583084323299263
 40
0.0583084323299263
 40
0.0583084323299263
 40
0.0583084323299263
 40
0.0583084323299263
 40
0.07336470563645442
 40
0.07336470563645442
 40
0.07336470563645442
 40
0.07336470563645442
 40
0.07336470563645442
 40
0.07336470563645442
 40
0.07336470563645442
 40
0.08127564410026533
 40
0.08127564410026533
 40
0.08127564410026533
 40
0.08127564410026533
 40
0.08127564410026533
 40
0.08127564410026533
 40
0.08127564410026533
 40
0.09095810161546866
 40
0.09095810161546866
 40
0.09095810161546866
 40
0.09095810161546866
 40
0.09095810161546866
 40
0.09095810161546866
 40
0.09095810161546866
 40
0.13635408665117446
 40
0.13635408665117446
 40
0.13635408665117446
 40
0.13635408665117446
 40
0.13635408665117446
 40
0.13635408665117446
 40
0.13635408665117446
 40
0.2544327672510958
 40
0.2544327672510958
 40
0.2544327672510958
 40
0.2544327672510958
 40
0.2544327672510958
 40
0.2544327672510958
 40
0.2544327672510958
 40
0.33733113071705023
 40
0.33733113071705023
 40
0.33733113071705023
 40
0.33733113071705023
 40
0.33733113071705023
 40
0.33733113071705023
 40
0.33733113071705023
 40
0.42272452334827104
 40
0.42272452334827104
 40
0.42272452334827104
 40
0.42272452334827104
 40
0.42272452334827104
 40
0.42272452334827104
 40
0.42272452334827104
 40
0.49085314696729865
 40
0.49085314696729865
 40
0.49085314696729865
 40
0.49085314696729865
 40
0.49085314696729865
 40
0.49085314696729865
 40
0.49085314696729865
 40
0.5497663536762679
 40
0.5497663536762679
 40
0.5497663536762679
 40
0.5497663536762679
 40
0.5497663536762679
 40
0.5497663536762679
 40
0.5497663536762679
 40
0.5900463924698867
 40
0.5900463924698867
 40
0.5900463924698867
 40
0.5900463924698867
 40
0.5900463924698867
 40
0.5900463924698867
 40
0.5900463924698867
 40
0.6044648586937172
 40
0.6044648586937172
 40
0.6044648586937172
 40
0.6044648586937172
 40
0.6044648586937172
 40
0.6044648586937172
 40
0.6044648586937172
 40
0.6170822515576105
 40
0.6170822515576105
 40
0.6170822515576105
 40
0.6170822515576105
 40
0.6170822515576105
 40
0.6170822515576105
 40
0.6170822515576105
 40
0.6317273973583801
 40
0.6317273973583801
 40
0.6317273973583801
 40
0.6317273973583801
 40
0.6317273973583801
 40
0.6317273973583801
 40
0.6317273973583801
 40
0.6392642433755394
 40
0.6392642433755394
 40
0.6392642433755394
 40
0.6392642433755394
 40
0.6392642433755394
 40
0.6392642433755394
 40
0.6392642433755394
 40
0.6434258833531515
 40
0.6434258833531515
 40
0.6434258833531515
 40
0.6434258833531515
 40
0.6434258833531515
 40
0.6434258833531515
 40
0.6434258833531515
 40
0.6469478933504408
 40
0.6469478933504408
 40
0.6469478933504408
 40
0.6469478933504408
 40
0.6469478933504408
 40
0.6469478933504408
 40
0.6469478933504408
 40
0.6481587249504718
 40
0.6481587249504718
 40
0.6481587249504718
 40
0.6481587249504718
 40
0.6481587249504718
 40
0.6481587249504718
 40
0.6481587249504718
 40
0.6501767776171825
 40
0.6501767776171825
 40
0.6501767776171825
 40
0.6501767776171825
 40
0.6501767776171825
 40
0.6501767776171825
 40
0.6501767776171825
 40
0.6521948302838781
 40
0.6521948302838781
 40
0.6521948302838781
 40
0.6521948302838781
 40
0.6521948302838781
 40
0.6521948302838781
 40
0.6521948302838781
 40
0.6543370983885484
 40
0.6543370983885484
 40
0.6543370983885484
 40
0.6543370983885484
 40
0.6543370983885484
 40
0.6543370983885484
 40
0.6543370983885484
 40
0.6563732822809755
 40
0.6563732822809755
 40
0.6563732822809755
 40
0.6563732822809755
 40
0.6563732822809755
 40
0.6563732822809755
 40
0.6563732822809755
 40
0.658390719841607
 40
0.658390719841607
 40
0.658390719841607
 40
0.658390719841607
 40
0.658390719841607
 40
0.658390719841607
 40
0.658390719841607
 40
0.6604081574022611
 40
0.6604081574022611
 40
0.6604081574022611
 40
0.6604081574022611
 40
0.6604081574022611
 40
0.6604081574022611
 40
0.6604081574022611
 40
0.6620893553694801
 40
0.6620893553694801
 40
0.6620893553694801
 40
0.6620893553694801
 40
0.6620893553694801
 40
0.6620893553694801
 40
0.6620893553694801
 40
0.6637705533367066
 40
0.6637705533367066
 40
0.6637705533367066
 40
0.6637705533367066
 40
0.6637705533367066
 40
0.6637705533367066
 40
0.6637705533367066
 40
0.667038937613413
 40
0.667038937613413
 40
0.667038937613413
 40
0.667038937613413
 40
0.667038937613413
 40
0.667038937613413
 40
0.667038937613413
 40
0.6724572749071421
 40
0.6724572749071421
 40
0.6724572749071421
 40
0.6724572749071421
 40
0.6724572749071421
 40
0.6724572749071421
 40
0.6724572749071421
 40
0.6839867844060529
 40
0.6839867844060529
 40
0.6839867844060529
 40
0.6839867844060529
 40
0.6839867844060529
 40
0.6839867844060529
 40
0.6839867844060529
 40
0.6917498127434324
 40
0.6917498127434324
 40
0.6917498127434324
 40
0.6917498127434324
 40
0.6917498127434324
 40
0.6917498127434324
 40
0.6917498127434324
 40
0.6958287004313009
 40
0.6958287004313009
 40
0.6958287004313009
 40
0.6958287004313009
 40
0.6958287004313009
 40
0.6958287004313009
 40
0.6958287004313009
 40
0.7008209833490954
 40
0.7008209833490954
 40
0.7008209833490954
 40
0.7008209833490954
 40
0.7008209833490954
 40
0.7008209833490954
 40
0.7008209833490954
 40
0.7242218099521837
 40
0.7242218099521837
 40
0.7242218099521837
 40
0.7242218099521837
 40
0.7242218099521837
 40
0.7242218099521837
 40
0.7242218099521837
 40
0.7837894359005237
 40
0.7837894359005237
 40
0.7837894359005237
 40
0.7837894359005237
 40
0.7837894359005237
 40
0.7837894359005237
 40
0.7837894359005237
 40
0.8275910008745914
 40
0.8275910008745914
 40
0.8275910008745914
 40
0.8275910008745914
 40
0.8275910008745914
 40
0.8275910008745914
 40
0.8275910008745914
 40
0.8903920607327636
 40
0.8903920607327636
 40
0.8903920607327636
 40
0.8903920607327636
 40
0.8903920607327636
 40
0.8903920607327636
 40
0.8903920607327636
 40
0.9178983260906391
 40
0.9178983260906391
 40
0.9178983260906391
 40
0.9178983260906391
 40
0.9178983260906391
 40
0.9178983260906391
 40
0.9178983260906391
 40
0.9424022316099874
 40
0.9424022316099874
 40
0.9424022316099874
 40
0.9424022316099874
 40
0.9424022316099874
 40
0.9424022316099874
 40
0.9424022316099874
 40
0.9525329430871761
 40
0.9525329430871761
 40
0.9525329430871761
 40
0.9525329430871761
 40
0.9525329430871761
 40
0.9525329430871761
 40
0.9525329430871761
 40
0.9626636043467445
 40
0.9626636043467445
 40
0.9626636043467445
 40
0.9626636043467445
 40
0.9626636043467445
 40
0.9626636043467445
 40
0.9626636043467445
 40
0.9798054264571585
 40
0.9798054264571585
 40
0.9798054264571585
 40
0.9798054264571585
 40
0.9798054264571585
 40
0.9798054264571585
 40
0.9798054264571585
 40
0.9885495007684374
 40
0.9885495007684374
 40
0.9885495007684374
 40
0.9885495007684374
 40
0.9885495007684374
 40
0.9885495007684374
 40
0.9885495007684374
 40
0.9925561674200806
 40
0.9925561674200806
 40
0.9925561674200806
 40
0.9925561674200806
 40
0.9925561674200806
 40
0.9925561674200806
 40
0.9925561674200806
 40
0.9953081569342765
 40
0.9953081569342765
 40
0.9953081569342765
 40
0.9953081569342765
 40
0.9953081569342765
 40
0.9953081569342765
 40
0.9953081569342765
 40
0.9966864404615546
 40
0.9966864404615546
 40
0.9966864404615546
 40
0.9966864404615546
 40
0.9966864404615546
 40
0.9966864404615546
 40
0.9966864404615546
 40
0.9972244562529805
 40
0.9972244562529805
 40
0.9972244562529805
 40
0.9972244562529805
 40
0.9972244562529805
 40
0.9972244562529805
 40
0.9972244562529805
 40
0.9977624720444053
 40
0.9977624720444053
 40
0.9977624720444053
 40
0.9977624720444053
 40
0.9977624720444053
 40
0.9977624720444053
 40
0.9977624720444053
 40
0.9986079254309311
 40
0.9986079254309311
 40
0.9986079254309311
 40
0.9986079254309311
 40
0.9986079254309311
 40
0.9986079254309311
 40
0.9986079254309311
 40
1.0
 40
1.0
 40
1.0
 40
1.0
 40
1.0
 40
1.0
 40
1.0
 40
1.0
 40
1.0
 10
2.3654803319421753
 20
232.90722473377267
 30
1003.0
 10
2.365336692146741
 20
232.90736837303226
 30
1003.0
 10
2.3653652676588504
 20
232.907166238017
 30
1003.0
 10
2.365455839700337
 20
232.906933942891
 30
1003.0
 10
2.3655334881075967
 20
232.90682728774144
 30
1003.0
 10
2.365558591331583
 20
232.9068422585784
 30
1003.0
 10
2.365526826437815
 20
232.90681502733503
 30
1003.0
 10
2.365469169106374
 20
232.90642195186774
 30
1003.0
 10
2.365433846242692
 20
232.90388168734125
 30
1003.0
 10
2.365407072643314
 20
232.9019562481879
 30
1003.0
 10
2.365369111595003
 20
232.8992262570614
 30
1003.0
 10
2.3653175018589945
 20
232.89551471252787
 30
1003.0
 10
2.365249782196521
 20
232.89064461315328
 30
1003.0
 10
2.365163491368819
 20
232.88443895750353
 30
1003.0
 10
2.365056168137123
 20
232.8767207441446
 30
1003.0
 10
2.364781452700775
 20
232.85696442189078
 30
1003.0
 10
2.3646091268311347
 20
232.84457150557503
 30
1003.0
 10
2.364405097744959
 20
232.82989863378717
 30
1003.0
 10
2.364166089533452
 20
232.81271021761862
 30
1003.0
 10
2.363888826287819
 20
232.79277066816076
 30
1003.0
 10
2.363570032099263
 20
232.76984439650482
 30
1003.0
 10
2.363206431058986
 20
232.743695813742
 30
1003.0
 10
2.3625327666576754
 20
232.69524884192185
 30
1003.0
 10
2.3622513145260524
 20
232.67500804626317
 30
1003.0
 10
2.3619495466584155
 20
232.65330623249483
 30
1003.0
 10
2.3616266188498645
 20
232.63008268912475
 30
1003.0
 10
2.3612816868955018
 20
232.60527670466075
 30
1003.0
 10
2.3609139065904325
 20
232.57882756761117
 30
1003.0
 10
2.360522433729763
 20
232.5506745664844
 30
1003.0
 10
2.35951212464979
 20
232.47801759450869
 30
1003.0
 10
2.358867750169562
 20
232.43167702459823
 30
1003.0
 10
2.358170839429148
 20
232.38155827862275
 30
1003.0
 10
2.3574189311897764
 20
232.32748435514804
 30
1003.0
 10
2.3566095642126816
 20
232.26927825273984
 30
1003.0
 10
2.3557402772591
 20
232.20676296996436
 30
1003.0
 10
2.35480860909027
 20
232.1397615053877
 30
1003.0
 10
2.352715936782306
 20
231.98926574498344
 30
1003.0
 10
2.3515413157278195
 20
231.9047921806756
 30
1003.0
 10
2.3502849593951782
 20
231.81444057574433
 30
1003.0
 10
2.3489435918755848
 20
231.71797534128086
 30
1003.0
 10
2.3475139372602443
 20
231.61516088837664
 30
1003.0
 10
2.345992719640361
 20
231.50576162812277
 30
1003.0
 10
2.3443766631071354
 20
231.38954197161053
 30
1003.0
 10
2.339633004731364
 20
231.04839898823786
 30
1003.0
 10
2.336601169955414
 20
230.83036280632078
 30
1003.0
 10
2.333567797019449
 20
230.612216006729
 30
1003.0
 10
2.3305333277773888
 20
230.39399036563074
 30
1003.0
 10
2.3274980595325525
 20
230.1757072637778
 30
1003.0
 10
2.3244621838146187
 20
229.9573804751481
 30
1003.0
 10
2.321425768220131
 20
229.73901486097046
 30
1003.0
 10
2.313354199816252
 20
229.15854326970654
 30
1003.0
 10
2.3083183792321913
 20
228.79638926921177
 30
1003.0
 10
2.303281696261272
 20
228.43417324965134
 30
1003.0
 10
2.2982443662641403
 20
228.07191069882842
 30
1003.0
 10
2.2932065390726972
 20
227.70961239198417
 30
1003.0
 10
2.2881683159613604
 20
227.34728561231927
 30
1003.0
 10
2.283129748712006
 20
226.9849340837736
 30
1003.0
 10
2.267368810778083
 20
225.85147695815243
 30
1003.0
 10
2.256645473560394
 20
225.08030185227864
 30
1003.0
 10
2.2459212623115836
 20
224.3090638899515
 30
1003.0
 10
2.2351964169019247
 20
223.53778032156217
 30
1003.0
 10
2.2244711001088873
 20
222.76646285336045
 30
1003.0
 10
2.2137454184077883
 20
221.99511914259233
 30
1003.0
 10
2.203019416127691
 20
221.22375237718674
 30
1003.0
 10
2.1850708842850124
 20
219.9329731483863
 30
1003.0
 10
2.177619200453624
 20
219.3970809209076
 30
1003.0
 10
2.1699337938091046
 20
218.84438037979464
 30
1003.0
 10
2.162010411330868
 20
218.2745656665694
 30
1003.0
 10
2.1538447999983275
 20
217.68733092275392
 30
1003.0
 10
2.145432706790898
 20
217.08237028987006
 30
1003.0
 10
2.136769878687992
 20
216.4593779094397
 30
1003.0
 10
2.1231664215198878
 20
215.4810772826043
 30
1003.0
 10
2.1184807888436663
 20
215.14410487352666
 30
1003.0
 10
2.1137951176803744
 20
214.80713079926846
 30
1003.0
 10
2.1091093872897946
 20
214.47015515632464
 30
1003.0
 10
2.1044236031514783
 20
214.13317803416822
 30
1003.0
 10
2.099737796964743
 20
213.79619951525027
 30
1003.0
 10
2.0950520266486707
 20
213.45921967499984
 30
1003.0
 10
2.0846314549757197
 20
212.70979634971417
 30
1003.0
 10
2.078807104263482
 20
212.29089638110955
 30
1003.0
 10
2.0728946347181827
 20
211.8655990776437
 30
1003.0
 10
2.0668953568526023
 20
211.4339648409498
 30
1003.0
 10
2.060810581179518
 20
210.99605407266054
 30
1003.0
 10
2.054641618211703
 20
210.55192717440875
 30
1003.0
 10
2.04838977846193
 20
210.10164454782702
 30
1003.0
 10
2.0123623402811535
 20
207.5055487899351
 30
1003.0
 10
1.9827343438185085
 20
205.36579912848242
 30
1003.0
 10
1.9532062800284617
 20
203.22602643174204
 30
1003.0
 10
1.9237953287100422
 20
201.08623568506115
 30
1003.0
 10
1.8945141128990333
 20
198.94643033665864
 30
1003.0
 10
1.8653731779449862
 20
196.80661277707088
 30
1003.0
 10
1.8363802292959492
 20
194.66678421698992
 30
1003.0
 10
1.7325334493322297
 20
186.9610483338896
 30
1003.0
 10
1.6585748760677497
 20
181.39508664220983
 30
1003.0
 10
1.5857913024547883
 20
175.82907849427255
 30
1003.0
 10
1.5142609642167708
 20
170.26303161390211
 30
1003.0
 10
1.4440740685021796
 20
164.69695232921612
 30
1003.0
 10
1.375319122215554
 20
159.13084342769105
 30
1003.0
 10
1.308099997978835
 20
153.5647065234811
 30
1003.0
 10
1.1965067964102096
 20
144.0907573238936
 30
1003.0
 10
1.1512931088445986
 20
140.18296015794198
 30
1003.0
 10
1.1069372110403095
 20
136.2751502915438
 30
1003.0
 10
1.0634846800938142
 20
132.36732806970525
 30
1003.0
 10
1.0209863790811027
 20
128.4594937587831
 30
1003.0
 10
0.9795000391058396
 20
124.55164755331818
 30
1003.0
 10
0.9390918413475252
 20
120.64378958286844
 30
1003.0
 10
0.8594027164049569
 20
112.71043335168176
 30
1003.0
 10
0.8201949218956018
 20
108.68493442824331
 30
1003.0
 10
0.7821294353837086
 20
104.65942492433341
 30
1003.0
 10
0.7451327425348486
 20
100.63390644692656
 30
1003.0
 10
0.709141114388381
 20
96.60838047952524
 30
1003.0
 10
0.6740987268677958
 20
92.58284842751934
 30
1003.0
 10
0.6399557802910515
 20
88.55731166354602
 30
1003.0
 10
0.5801078339629956
 20
81.32011201404978
 30
1003.0
 10
0.5540925729192788
 20
78.10845040344367
 30
1003.0
 10
0.5285978653544875
 20
74.89678743247939
 30
1003.0
 10
0.5036026255331811
 20
71.68512386722567
 30
1003.0
 10
0.479087345896621
 20
68.47346055548459
 30
1003.0
 10
0.45503371377521074
 20
65.26179845908689
 30
1003.0
 10
0.43142415129650924
 20
62.05013871136999
 30
1003.0
 10
0.3881942365073955
 20
56.06125127441803
 30
1003.0
 10
0.36846626225056706
 20
53.28402285680352
 30
1003.0
 10
0.3490460622051517
 20
50.506798177226564
 30
1003.0
 10
0.32992253719710374
 20
47.72957827222143
 30
1003.0
 10
0.311084100691922
 20
44.95236460954754
 30
1003.0
 10
0.2925185306632542
 20
42.17515912124013
 30
1003.0
 10
0.27421195519631847
 20
39.397964401235996
 30
1003.0
 10
0.24379325479681913
 20
34.7219754236715
 30
1003.0
 10
0.23155325397154303
 20
32.82317414180258
 30
1003.0
 10
0.21941934913343808
 20
30.92438111630687
 30
1003.0
 10
0.20738484902902954
 20
29.025597677712938
 30
1003.0
 10
0.19544029222753023
 20
27.12682638551705
 30
1003.0
 10
0.1835741520599583
 20
25.228070892172994
 30
1003.0
 10
0.1717704770348889
 20
23.32933646258218
 30
1003.0
 10
0.1557831581523934
 20
20.75098071624913
 30
1003.0
 10
0.15157245109767592
 20
20.071332995236048
 30
1003.0
 10
0.14736631845537973
 20
19.391689536295132
 30
1003.0
 10
0.14315635870834953
 20
18.712051559425674
 30
1003.0
 10
0.13894720525506
 20
18.03241916155872
 30
1003.0
 10
0.134738762714397
 20
17.352793181855816
 30
1003.0
 10
0.1305298671248245
 20
16.673174516302737
 30
1003.0
 10
0.12263812828166554
 20
15.398847004712076
 30
1003.0
 10
0.1189551649386606
 20
14.804136307178904
 30
1003.0
 10
0.11527224579783714
 20
14.209432747241653
 30
1003.0
 10
0.11158937619522627
 20
13.614737186543811
 30
1003.0
 10
0.10790656302414604
 20
13.020050738192928
 30
1003.0
 10
0.10422381499132694
 20
12.425374808117086
 30
1003.0
 10
0.10054114307420935
 20
11.830711168909168
 30
1003.0
 10
0.09258414812480387
 20
10.54584635329189
 30
1003.0
 10
0.08830987673863211
 20
9.85565351650363
 30
1003.0
 10
0.08403574997925156
 20
9.16548403346907
 30
1003.0
 10
0.07976178815688861
 20
8.475341183850531
 30
1003.0
 10
0.07548803862726722
 20
7.785232614446095
 30
1003.0
 10
0.07121457351720928
 20
7.0951699719915595
 30
1003.0
 10
0.06694149882701861
 20
6.405170373046467
 30
1003.0
 10
0.06047023701563431
 20
5.360216006861197
 30
1003.0
 10
0.05827165850735094
 20
5.0051980399437
 30
1003.0
 10
0.05607326553239678
 20
4.650210032253053
 30
1003.0
 10
0.0538750836395292
 20
4.295256109256229
 30
1003.0
 10
0.0516771746516374
 20
3.940346253901911
 30
1003.0
 10
0.04947963311928394
 20
3.5854957338755398
 30
1003.0
 10
0.04728259832414761
 20
3.230727039794534
 30
1003.0
 10
0.04387358664961805
 20
2.6802529997225397
 30
1003.0
 10
0.04272377103356456
 20
2.494585214470922
 30
1003.0
 10
0.04163496380101912
 20
2.3187688273822618
 30
1003.0
 10
0.040605261144269156
 20
2.152496418939359
 30
1003.0
 10
0.03963275925560224
 20
1.99546056962506
 30
1003.0
 10
0.038715554327306265
 20
1.8473538599222543
 30
1003.0
 10
0.03785174255166934
 20
1.7078688703138736
 30
1003.0
 10
0.03635194889874516
 20
1.465687983235057
 30
1003.0
 10
0.03566488703592885
 20
1.354743886970141
 30
1003.0
 10
0.03497819147630876
 20
1.2438589399077387
 30
1003.0
 10
0.034291916981506354
 20
1.1330419848113706
 30
1003.0
 10
0.033606181071448304
 20
1.022311998250359
 30
1003.0
 10
0.032921265780350595
 20
0.9117145221020735
 30
1003.0
 10
0.03223752635789312
 20
0.8013069206684236
 30
1003.0
 10
0.03132134888111393
 20
0.6533661198686646
 30
1003.0
 10
0.031096736283607394
 20
0.6170965450460386
 30
1003.0
 10
0.030881664358841467
 20
0.5823675612128077
 30
1003.0
 10
0.03067589513085142
 20
0.5491407409292306
 30
1003.0
 10
0.030479190623672898
 20
0.5173776567556132
 30
1003.0
 10
0.030291312861341825
 20
0.48703988125230885
 30
1003.0
 10
0.030112023867894466
 20
0.4580889869797176
 30
1003.0
 10
0.029656188666490117
 20
0.3844824790294013
 30
1003.0
 10
0.029394488312610996
 20
0.3422241165355474
 30
1003.0
 10
0.02915488286515704
 20
0.30353355420375305
 30
1003.0
 10
0.028936270583554736
 20
0.26823288722097316
 30
1003.0
 10
0.028737549727230104
 20
0.2361442107740897
 30
1003.0
 10
0.028557618555608646
 20
0.20708962004991144
 30
1003.0
 10
0.02839537532811542
 20
0.18089121023517404
 30
1003.0
 10
0.028104061280235678
 20
0.13385094279807677
 30
1003.0
 10
0.027974990459850302
 20
0.11300908517588126
 30
1003.0
 10
0.027861404102444785
 20
0.0946675988368213
 30
1003.0
 10
0.027762200467444983
 20
0.07864857896775398
 30
1003.0
 10
0.02767627781427669
 20
0.06477412075552585
 30
1003.0
 10
0.027602534402365632
 20
0.052866319386972865
 30
1003.0
 10
0.027539868491137435
 20
0.04274727004892043
 30
1003.0
 10
0.027431244997921822
 20
0.025207167853341872
 30
1003.0
 10
0.027380999168718945
 20
0.017093665403031366
 30
1003.0
 10
0.02733987883834249
 20
0.010453713236330486
 30
1003.0
 10
0.027309905681572877
 20
0.00561376364487387
 30
1003.0
 10
0.027291037680045815
 20
0.002567031635404504
 30
1003.0
 10
0.02728121097401548
 20
0.0009802530765057327
 30
1003.0
 10
0.027277109927993703
 20
0.00031803200966606937
 30
1003.0
 10
0.02727436845440806
 20
-0.00012465055772992173
 30
1003.0
 10
0.027276112418427423
 20
4.970753631283742e-05
 30
1003.0
 10
0.027273584820369845
 20
0.00019838432691443586
 30
1003.0
 10
0.027275079398930258
 20
-6.700446576246577e-05
 30
1003.0
 10
0.027283062495846444
 20
-0.001194906844517618
 30
1003.0
 10
0.027297310152548993
 20
-0.0036091128624278213
 30
1003.0
 10
0.027321892182137597
 20
-0.007549297465970994
 30
1003.0
 10
0.02738828178850849
 20
-0.018269634715224473
 30
1003.0
 10
0.027431707485086467
 20
-0.02528184849458423
 30
1003.0
 10
0.027487421395080206
 20
-0.03427831552095638
 30
1003.0
 10
0.027557327326202342
 20
-0.0455664553115432
 30
1003.0
 10
0.027643329086165264
 20
-0.05945368738349543
 30
1003.0
 10
0.027747330482681066
 20
-0.07624743125391222
 30
1003.0
 10
0.02787123532346159
 20
-0.09625510643984114
 30
1003.0
 10
0.02816265950897678
 20
-0.14331315847698528
 30
1003.0
 10
0.028330178853711363
 20
-0.17036353532817627
 30
1003.0
 10
0.028521409258135493
 20
-0.20124268252920227
 30
1003.0
 10
0.028738254529962082
 20
-0.2362580195973257
 30
1003.0
 10
0.028982618476903567
 20
-0.2757169660497202
 30
1003.0
 10
0.029256404906671946
 20
-0.3199269414034701
 30
1003.0
 10
0.02956151762697878
 20
-0.36919536517557106
 30
1003.0
 10
0.03018181279433318
 20
-0.4693582333059112
 30
1003.0
 10
0.030486841600250576
 20
-0.5186131069063761
 30
1003.0
 10
0.030816048603861043
 20
-0.5717721824974626
 30
1003.0
 10
0.031170535545738527
 20
-0.6290133648923227
 30
1003.0
 10
0.0315514041664572
 20
-0.6905145589041206
 30
1003.0
 10
0.03195975620659151
 20
-0.7564536693460338
 30
1003.0
 10
0.03239669340671614
 20
-0.8270086010312525
 30
1003.0
 10
0.03332994160809788
 20
-0.977705916515049
 30
1003.0
 10
0.033826252609350245
 20
-1.0578483003129144
 30
1003.0
 10
0.03435335225174052
 20
-1.1429623149802604
 30
1003.0
 10
0.0349123422758449
 20
-1.2332258653305648
 30
1003.0
 10
0.03550432442223829
 20
-1.3288168561770968
 30
1003.0
 10
0.03613040043149434
 20
-1.4299131923329185
 30
1003.0
 10
0.03679167204418543
 20
-1.5366927786108846
 30
1003.0
 10
0.038845371245168514
 20
-1.8683161944837252
 30
1003.0
 10
0.04020254205542939
 20
-2.0874668957142575
 30
1003.0
 10
0.04156039457629601
 20
-2.3067276769570384
 30
1003.0
 10
0.04291873296500626
 20
-2.5260669142439554
 30
1003.0
 10
0.044277425455500063
 20
-2.7454633305195735
 30
1003.0
 10
0.04563638716285923
 20
-2.964903218913939
 30
1003.0
 10
0.0469955881304886
 20
-3.184381742116102
 30
1003.0
 10
0.050608717149422944
 20
-3.767815862689652
 30
1003.0
 10
0.052862941145845666
 20
-4.131819248136189
 30
1003.0
 10
0.0551175473371629
 20
-4.495884348919798
 30
1003.0
 10
0.057372440276090675
 20
-4.859995752621643
 30
1003.0
 10
0.05962755355971977
 20
-5.224142736735043
 30
1003.0
 10
0.06188284230529206
 20
-5.588318053744025
 30
1003.0
 10
0.06413828356326323
 20
-5.95251799788446
 30
1003.0
 10
0.07119346095068674
 20
-7.091760796287488
 30
1003.0
 10
0.07599362542739108
 20
-7.866872818416333
 30
1003.0
 10
0.08079417725150118
 20
-8.642047387904448
 30
1003.0
 10
0.08559501012075765
 20
-9.417267339481754
 30
1003.0
 10
0.09039605189417327
 20
-10.192521024096095
 30
1003.0
 10
0.0951972553827638
 20
-10.96780082184808
 30
1003.0
 10
0.09999860094481133
 20
-11.74310356107669
 30
1003.0
 10
0.10803301373827699
 20
-13.04046951117583
 30
1003.0
 10
0.1113686602182027
 20
-13.57909682294937
 30
1003.0
 10
0.11480892958559098
 20
-14.134618234551269
 30
1003.0
 10
0.11835572564815433
 20
-14.707341165498715
 30
1003.0
 10
0.12201095221360518
 20
-15.297573035308885
 30
1003.0
 10
0.12577651308965582
 20
-15.905621263498904
 30
1003.0
 10
0.12965431208401834
 20
-16.531793269585847
 30
1003.0
 10
0.13574371780334893
 20
-17.51508698870167
 30
1003.0
 10
0.13784122639665158
 20
-17.8537792636421
 30
1003.0
 10
0.1399387299988257
 20
-18.19247319588313
 30
1003.0
 10
0.14203620604812664
 20
-18.531168689852343
 30
1003.0
 10
0.14413365820655183
 20
-18.869865656429766
 30
1003.0
 10
0.14623111635984104
 20
-19.208564012947903
 30
1003.0
 10
0.14832863661747628
 20
-19.54726368319173
 30
1003.0
 10
0.15299370115952723
 20
-20.30051163022471
 30
1003.0
 10
0.15560165886405575
 20
-20.72154887438087
 30
1003.0
 10
0.15825026283713126
 20
-21.14901499865745
 30
1003.0
 10
0.16093960148961728
 20
-21.582848671844665
 30
1003.0
 10
0.16366976323237672
 20
-22.022988562732632
 30
1003.0
 10
0.16644083647627186
 20
-22.469373340111357
 30
1003.0
 10
0.16925290963216447
 20
-22.92194167277076
 30
1003.0
 10
0.1854799800287958
 20
-25.530698313346075
 30
1003.0
 10
0.19892018985988147
 20
-27.680794735328398
 30
1003.0
 10
0.21246023224626903
 20
-29.830912044978422
 30
1003.0
 10
0.22611711909184184
 20
-31.981044943987115
 30
1003.0
 10
0.23990337416595803
 20
-34.13118975257635
 30
1003.0
 10
0.2538294846242042
 20
-36.28134388346013
 30
1003.0
 10
0.2679031456728591
 20
-38.43150597961878
 30
1003.0
 10
0.3183508840623608
 20
-46.055007074010916
 30
1003.0
 10
0.3555733875704874
 20
-51.52838035895587
 30
1003.0
 10
0.39391592818861154
 20
-57.00177569454138
 30
1003.0
 10
0.4334534082572947
 20
-62.4751841874712
 30
1003.0
 10
0.47427118090148035
 20
-67.94859815275021
 30
1003.0
 10
0.5164534726259229
 20
-73.42201318783017
 30
1003.0
 10
0.5600986161938273
 20
-78.8954257507232
 30
1003.0
 10
0.6385720984711838
 20
-88.39356751594968
 30
1003.0
 10
0.6726764410848486
 20
-92.4182980066804
 30
1003.0
 10
0.7076783755170216
 20
-96.44302382961536
 30
1003.0
 10
0.7436275217006357
 20
-100.4677436126072
 30
1003.0
 10
0.780579477396313
 20
-104.49245595255398
 30
1003.0
 10
0.8185977058026368
 20
-108.51715936980192
 30
1003.0
 10
0.8577554231664226
 20
-112.54185226254779
 30
1003.0
 10
0.956035791428194
 20
-122.3369706832288
 30
1003.0
 10
1.0164566377780149
 20
-128.10738282189848
 30
1003.0
 10
1.0791527069890987
 20
-133.87776928930685
 30
1003.0
 10
1.1439276770851057
 20
-139.64812965051834
 30
1003.0
 10
1.2106190416071385
 20
-145.41846303764697
 30
1003.0
 10
1.2790885794392082
 20
-151.18876818760677
 30
1003.0
 10
1.3492162257504463
 20
-156.9590432872971
 30
1003.0
 10
1.4522868793498602
 20
-165.25659643564043
 30
1003.0
 10
1.4839778531874972
 20
-167.7839010504421
 30
1003.0
 10
1.51595687186815
 20
-170.31119900536217
 30
1003.0
 10
1.5482151582394166
 20
-172.83848996005756
 30
1003.0
 10
1.5807442336622395
 20
-175.36577347940712
 30
1003.0
 10
1.6135357563513562
 20
-177.89304901296182
 30
1003.0
 10
1.6465812664209822
 20
-180.4203158572712
 30
1003.0
 10
1.7095286813081598
 20
-185.19897553321454
 30
1003.0
 10
1.7393799772745049
 20
-187.45037015318997
 30
1003.0
 10
1.7694195145683052
 20
-189.70175649336093
 30
1003.0
 10
1.7996404807347215
 20
-191.9531337390296
 30
1003.0
 10
1.8300356716436736
 20
-194.2045007640323
 30
1003.0
 10
1.860597001860177
 20
-196.45585604271074
 30
1003.0
 10
1.8913143155718863
 20
-198.70719743827155
 30
1003.0
 10
1.9349316877469978
 20
-201.88929260595611
 30
1003.0
 10
1.9475002894198312
 20
-202.8044604417483
 30
1003.0
 10
1.9598727008588728
 20
-203.70372107747355
 30
1003.0
 10
1.9720423198306636
 20
-204.58677021569292
 30
1003.0
 10
1.9840025441017426
 20
-205.45330355896732
 30
1003.0
 10
1.9957467714386488
 20
-206.3030168098579
 30
1003.0
 10
2.007268399607922
 20
-207.13560567092566
 30
1003.0
 10
2.029853197168075
 20
-208.7659219778143
 30
1003.0
 10
2.0409165560436016
 20
-209.56365761793654
 30
1003.0
 10
2.0517436418221453
 20
-210.34366011713308
 30
1003.0
 10
2.0623295882585113
 20
-211.10562108105307
 30
1003.0
 10
2.0726641919407682
 20
-211.84923569303425
 30
1003.0
 10
2.0827457426592115
 20
-212.57420384461153
 30
1003.0
 10
2.092563201971801
 20
-213.28022874115638
 30
1003.0
 10
2.1182723372038934
 20
-215.12911632922635
 30
1003.0
 10
2.1344312664245786
 20
-216.2911952324226
 30
1003.0
 10
2.150589922508395
 20
-217.45325449281938
 30
1003.0
 10
2.1667482670405547
 20
-218.6152913477963
 30
1003.0
 10
2.1829062107114474
 20
-219.77729937459924
 30
1003.0
 10
2.199063617525503
 20
-220.93926879302626
 30
1003.0
 10
2.2152202876166887
 20
-222.101185229595
 30
1003.0
 10
2.239616869069015
 20
-223.85567974025588
 30
1003.0
 10
2.247857527179174
 20
-224.44831151724333
 30
1003.0
 10
2.2560978422441367
 20
-225.04091862393318
 30
1003.0
 10
2.264337766112736
 20
-225.63349759750682
 30
1003.0
 10
2.272577186418065
 20
-226.2260403570315
 30
1003.0
 10
2.2808159320107912
 20
-226.81853459420208
 30
1003.0
 10
2.2890537513833817
 20
-227.4109622217069
 30
1003.0
 10
2.3010642774180647
 20
-228.2747062687644
 30
1003.0
 10
2.304838025404721
 20
-228.54609757578595
 30
1003.0
 10
2.3086114313608883
 20
-228.8174642854837
 30
1003.0
 10
2.3123844431306315
 20
-229.0888026470328
 30
1003.0
 10
2.31615696652535
 20
-229.36010588680463
 30
1003.0
 10
2.3199288647532867
 20
-229.63136416733943
 30
1003.0
 10
2.3236999441119477
 20
-229.90256355840853
 30
1003.0
 10
2.330059307007831
 20
-230.35990088306326
 30
1003.0
 10
2.3326480172737942
 20
-230.54606950509745
 30
1003.0
 10
2.3352360835220676
 20
-230.73219181222024
 30
1003.0
 10
2.3378234080345934
 20
-230.91826077698136
 30
1003.0
 10
2.340409783295188
 20
-231.1042614757294
 30
1003.0
 10
2.342994757385997
 20
-231.29016140852949
 30
1003.0
 10
2.345577741750472
 20
-231.4759182489888
 30
1003.0
 10
2.3494495472384824
 20
-231.7543614189196
 30
1003.0
 10
2.350740352196086
 20
-231.84719041698582
 30
1003.0
 10
2.3520301525956646
 20
-231.9399471716686
 30
1003.0
 10
2.3533188090958257
 20
-232.03262166215544
 30
1003.0
 10
2.3546060179624884
 20
-232.12519204522326
 30
1003.0
 10
2.355890831573211
 20
-232.21759017205355
 30
1003.0
 10
2.3571721581413283
 20
-232.3097375261619
 30
1003.0
 10
2.3589450178074833
 20
-232.4372337722454
 30
1003.0
 10
2.359415922674319
 20
-232.47109917283532
 30
1003.0
 10
2.359860832608563
 20
-232.50309513255186
 30
1003.0
 10
2.360280591815112
 20
-232.53328236288687
 30
1003.0
 10
2.360676044498862
 20
-232.56172157533234
 30
1003.0
 10
2.3610480348647105
 20
-232.5884734813801
 30
1003.0
 10
2.3613974071175527
 20
-232.61359879252208
 30
1003.0
 10
2.3620526038070198
 20
-232.660717647978
 30
1003.0
 10
2.3623584282436436
 20
-232.68271119229206
 30
1003.0
 10
2.362643322977056
 20
-232.7031995646841
 30
1003.0
 10
2.362908132212151
 20
-232.72224347664584
 30
1003.0
 10
2.3631537001538265
 20
-232.7399036396694
 30
1003.0
 10
2.3633808710069792
 20
-232.75624076524647
 30
1003.0
 10
2.363590488976504
 20
-232.77131556486896
 30
1003.0
 10
2.364086541438549
 20
-232.80698946956574
 30
1003.0
 10
2.364348424403138
 20
-232.8258229370622
 30
1003.0
 10
2.364572323069864
 20
-232.84192474142696
 30
1003.0
 10
2.3647615133475215
 20
-232.85553047156867
 30
1003.0
 10
2.364919271144908
 20
-232.86687571639607
 30
1003.0
 10
2.36504887237082
 20
-232.87619606481798
 30
1003.0
 10
2.3651535929340546
 20
-232.88372710574302
 30
1003.0
 10
2.3653735624201837
 20
-232.89954634077313
 30
1003.0
 10
2.3654338749925854
 20
-232.89948344891934
 30
1003.0
 10
2.3651538410875417
 20
-232.90264811305474
 30
1003.0
 10
2.365966732529106
 20
-232.90427954123214
 30
1003.0
 10
2.3648866149529852
 20
-232.9093077767885
 30
1003.0
 10
2.365920517490062
 20
-232.90642315422994
 30
1003.0
 10
2.365305422848248
 20
-232.907399642214
 30
1003.0
 10
2.365480331942175
 20
-232.9072247337727
 30
1003.0
  0
ENDSEC
  0
SECTION
  2
OBJECTS
  0
DICTIONARY
  5
A
330
0
100
AcDbDictionary
281
1
  3
ACAD_COLOR
350
B
  3
ACAD_GROUP
350
C
  3
ACAD_LAYOUT
350
D
  3
ACAD_MATERIAL
350
E
  3
ACAD_MLEADERSTYLE
350
F
  3
ACAD_MLINESTYLE
350
10
  3
ACAD_PLOTSETTINGS
350
11
  3
ACAD_PLOTSTYLENAME
350
12
  3
ACAD_SCALELIST
350
14
  3
ACAD_TABLESTYLE
350
15
  3
ACAD_VISUALSTYLE
350
16
  3
EZDXF_META
350
2D
  0
DICTIONARY
  5
B
330
A
100
AcDbDictionary
281
1
  0
DICTIONARY
  5
C
330
A
100
AcDbDictionary
281
1
  0
DICTIONARY
  5
D
330
A
100
AcDbDictionary
281
1
  3
Model
350
1A
  3
Layout1
350
1E
  0
DICTIONARY
  5
E
330
A
100
AcDbDictionary
281
1
  3
ByBlock
350
1F
  3
ByLayer
350
20
  3
Global
350
21
  0
DICTIONARY
  5
F
330
A
100
AcDbDictionary
281
1
  3
Standard
350
2C
  0
DICTIONARY
  5
10
330
A
100
AcDbDictionary
281
1
  3
Standard
350
22
  0
DICTIONARY
  5
11
330
A
100
AcDbDictionary
281
1
  0
ACDBDICTIONARYWDFLT
  5
12
330
A
100
AcDbDictionary
281
1
  3
Normal
350
13
100
AcDbDictionaryWithDefault
340
13
  0
ACDBPLACEHOLDER
  5
13
330
12
  0
DICTIONARY
  5
14
330
A
100
AcDbDictionary
281
1
  0
DICTIONARY
  5
15
330
A
100
AcDbDictionary
281
1
  0
DICTIONARY
  5
16
330
A
100
AcDbDictionary
281
1
  0
LAYOUT
  5
1A
330
D
100
AcDbPlotSettings
  1

  2
Adobe PDF
  4
A3
  6

 40
7.5
 41
20.0
 42
7.5
 43
20.0
 44
420.0
 45
297.0
 46
0.0
 47
0.0
 48
0.0
 49
0.0
140
0.0
141
0.0
142
1.0
143
1.0
 70
1024
 72
1
 73
1
 74
5
  7

 75
16
 76
0
 77
2
 78
300
147
1.0
148
0.0
149
0.0
100
AcDbLayout
  1
Model
 70
1
 71
0
 10
0.0
 20
0.0
 11
420.0
 21
297.0
 12
0.0
 22
0.0
 32
0.0
 14
1e+20
 24
1e+20
 34
1e+20
 15
-1e+20
 25
-1e+20
 35
-1e+20
146
0.0
 13
0.0
 23
0.0
 33
0.0
 16
1.0
 26
0.0
 36
0.0
 17
0.0
 27
1.0
 37
0.0
 76
1
330
17
  0
LAYOUT
  5
1E
330
D
100
AcDbPlotSettings
  1

  2
Adobe PDF
  4
A3
  6

 40
7.5
 41
20.0
 42
7.5
 43
20.0
 44
420.0
 45
297.0
 46
0.0
 47
0.0
 48
0.0
 49
0.0
140
0.0
141
0.0
142
1.0
143
1.0
 70
0
 72
1
 73
1
 74
5
  7

 75
16
 76
0
 77
2
 78
300
147
1.0
148
0.0
149
0.0
100
AcDbLayout
  1
Layout1
 70
1
 71
1
 10
0.0
 20
0.0
 11
420.0
 21
297.0
 12
0.0
 22
0.0
 32
0.0
 14
1e+20
 24
1e+20
 34
1e+20
 15
-1e+20
 25
-1e+20
 35
-1e+20
146
0.0
 13
0.0
 23
0.0
 33
0.0
 16
1.0
 26
0.0
 36
0.0
 17
0.0
 27
1.0
 37
0.0
 76
1
330
1B
  0
MATERIAL
  5
1F
102
{ACAD_REACTORS
330
E
102
}
330
E
100
AcDbMaterial
  1
ByBlock
  2

 70
0
 40
1.0
 71
1
 41
1.0
 91
-1023410177
 42
1.0
 72
1
  3

 73
1
 74
1
 75
1
 44
0.5
 73
0
 45
1.0
 46
1.0
 77
1
  4

 78
1
 79
1
170
1
 48
1.0
171
1
  6

172
1
173
1
174
1
140
1.0
141
1.0
175
1
  7

176
1
177
1
178
1
143
1.0
179
1
  8

270
1
271
1
272
1
145
1.0
146
1.0
273
1
  9

274
1
275
1
276
1
 42
1.0
 72
1
  3

 73
1
 74
1
 75
1
 94
63
  0
MATERIAL
  5
20
102
{ACAD_REACTORS
330
E
102
}
330
E
100
AcDbMaterial
  1
ByLayer
  2

 70
0
 40
1.0
 71
1
 41
1.0
 91
-1023410177
 42
1.0
 72
1
  3

 73
1
 74
1
 75
1
 44
0.5
 73
0
 45
1.0
 46
1.0
 77
1
  4

 78
1
 79
1
170
1
 48
1.0
171
1
  6

172
1
173
1
174
1
140
1.0
141
1.0
175
1
  7

176
1
177
1
178
1
143
1.0
179
1
  8

270
1
271
1
272
1
145
1.0
146
1.0
273
1
  9

274
1
275
1
276
1
 42
1.0
 72
1
  3

 73
1
 74
1
 75
1
 94
63
  0
MATERIAL
  5
21
102
{ACAD_REACTORS
330
E
102
}
330
E
100
AcDbMaterial
  1
Global
  2

 70
0
 40
1.0
 71
1
 41
1.0
 91
-1023410177
 42
1.0
 72
1
  3

 73
1
 74
1
 75
1
 44
0.5
 73
0
 45
1.0
 46
1.0
 77
1
  4

 78
1
 79
1
170
1
 48
1.0
171
1
  6

172
1
173
1
174
1
140
1.0
141
1.0
175
1
  7

176
1
177
1
178
1
143
1.0
179
1
  8

270
1
271
1
272
1
145
1.0
146
1.0
273
1
  9

274
1
275
1
276
1
 42
1.0
 72
1
  3

 73
1
 74
1
 75
1
 94
63
  0
MLINESTYLE
  5
22
102
{ACAD_REACTORS
330
10
102
}
330
10
100
AcDbMlineStyle
  2
Standard
 70
0
  3

 62
256
 51
90.0
 52
90.0
 71
2
 49
0.5
 62
256
  6
BYLAYER
 49
-0.5
 62
256
  6
BYLAYER
  0
MLEADERSTYLE
  5
2C
102
{ACAD_REACTORS
330
F
102
}
330
F
100
AcDbMLeaderStyle
179
2
170
2
171
1
172
0
 90
2
 40
0.0
 41
0.0
173
1
 91
-1056964608
 92
-2
290
1
 42
2.0
291
1
 43
8.0
  3
Standard
 44
4.0
300

342
29
174
1
175
1
176
0
178
1
 93
-1056964608
 45
4.0
292
0
297
0
 46
4.0
 94
-1056964608
 47
1.0
 49
1.0
140
1.0
294
1
141
0.0
177
0
142
1.0
295
0
296
0
143
3.75
271
0
272
9
273
9
  0
DICTIONARY
  5
2D
330
A
100
AcDbDictionary
280
1
281
1
  3
CREATED_BY_EZDXF
350
2E
  3
WRITTEN_BY_EZDXF
350
86
  0
DICTIONARYVAR
  5
2E
330
2D
100
DictionaryVariables
280
0
  1
0.17 @ 2022-02-15T16:36:48.832962+00:00
  0
DICTIONARYVAR
  5
86
330
2D
100
DictionaryVariables
280
0
  1
0.17 @ 2022-02-15T16:36:48.940002+00:00
  0
ENDSEC
  0
EOF
