  0
SECTION
  2
HEADER
  9
$ACADVER
  1
AC1027
  9
$ACADMAINTVER
 70
105
  9
$DWGCODEPAGE
  3
ANSI_1252
  9
$LASTSAVEDBY
  1
ezdxf
  9
$REQUIREDVERSIONS
160
0
  9
$INSBASE
 10
0.0
 20
0.0
 30
0.0
  9
$EXTMIN
 10
1e+20
 20
1e+20
 30
1e+20
  9
$EXTMAX
 10
-1e+20
 20
-1e+20
 30
-1e+20
  9
$LIMMIN
 10
0.0
 20
0.0
  9
$LIMMAX
 10
420.0
 20
297.0
  9
$ORTHOMODE
 70
0
  9
$REGENMODE
 70
1
  9
$FILLMODE
 70
1
  9
$QTEXTMODE
 70
0
  9
$MIRRTEXT
 70
1
  9
$LTSCALE
 40
1.0
  9
$ATTMODE
 70
1
  9
$TEXTSIZE
 40
2.5
  9
$TRACEWID
 40
1.0
  9
$TEXTSTYLE
  7
Standard
  9
$CLAYER
  8
0
  9
$CELTYPE
  6
ByLayer
  9
$CECOLOR
 62
256
  9
$CELTSCALE
 40
1.0
  9
$DISPSILH
 70
0
  9
$DIMSCALE
 40
1.0
  9
$DIMASZ
 40
2.5
  9
$DIMEXO
 40
0.625
  9
$DIMDLI
 40
3.75
  9
$DIMRND
 40
0.0
  9
$DIMDLE
 40
0.0
  9
$DIMEXE
 40
1.25
  9
$DIMTP
 40
0.0
  9
$DIMTM
 40
0.0
  9
$DIMTXT
 40
2.5
  9
$DIMCEN
 40
2.5
  9
$DIMTSZ
 40
0.0
  9
$DIMTOL
 70
0
  9
$DIMLIM
 70
0
  9
$DIMTIH
 70
0
  9
$DIMTOH
 70
0
  9
$DIMSE1
 70
0
  9
$DIMSE2
 70
0
  9
$DIMTAD
 70
1
  9
$DIMZIN
 70
8
  9
$DIMBLK
  1

  9
$DIMASO
 70
1
  9
$DIMSHO
 70
1
  9
$DIMPOST
  1

  9
$DIMAPOST
  1

  9
$DIMALT
 70
0
  9
$DIMALTD
 70
3
  9
$DIMALTF
 40
0.03937007874
  9
$DIMLFAC
 40
1.0
  9
$DIMTOFL
 70
1
  9
$DIMTVP
 40
0.0
  9
$DIMTIX
 70
0
  9
$DIMSOXD
 70
0
  9
$DIMSAH
 70
0
  9
$DIMBLK1
  1

  9
$DIMBLK2
  1

  9
$DIMSTYLE
  2
ISO-25
  9
$DIMCLRD
 70
0
  9
$DIMCLRE
 70
0
  9
$DIMCLRT
 70
0
  9
$DIMTFAC
 40
1.0
  9
$DIMGAP
 40
0.625
  9
$DIMJUST
 70
0
  9
$DIMSD1
 70
0
  9
$DIMSD2
 70
0
  9
$DIMTOLJ
 70
0
  9
$DIMTZIN
 70
8
  9
$DIMALTZ
 70
0
  9
$DIMALTTZ
 70
0
  9
$DIMUPT
 70
0
  9
$DIMDEC
 70
2
  9
$DIMTDEC
 70
2
  9
$DIMALTU
 70
2
  9
$DIMALTTD
 70
3
  9
$DIMTXSTY
  7
Standard
  9
$DIMAUNIT
 70
0
  9
$DIMADEC
 70
0
  9
$DIMALTRND
 40
0.0
  9
$DIMAZIN
 70
0
  9
$DIMDSEP
 70
44
  9
$DIMATFIT
 70
3
  9
$DIMFRAC
 70
0
  9
$DIMLDRBLK
  1

  9
$DIMLUNIT
 70
2
  9
$DIMLWD
 70
-2
  9
$DIMLWE
 70
-2
  9
$DIMTMOVE
 70
0
  9
$DIMFXL
 40
1.0
  9
$DIMFXLON
 70
0
  9
$DIMJOGANG
 40
0.785398163397
  9
$DIMTFILL
 70
0
  9
$DIMTFILLCLR
 70
0
  9
$DIMARCSYM
 70
0
  9
$DIMLTYPE
  6

  9
$DIMLTEX1
  6

  9
$DIMLTEX2
  6

  9
$DIMTXTDIRECTION
 70
0
  9
$LUNITS
 70
2
  9
$LUPREC
 70
4
  9
$SKETCHINC
 40
1.0
  9
$FILLETRAD
 40
10.0
  9
$AUNITS
 70
0
  9
$AUPREC
 70
2
  9
$MENU
  1
.
  9
$ELEVATION
 40
0.0
  9
$PELEVATION
 40
0.0
  9
$THICKNESS
 40
0.0
  9
$LIMCHECK
 70
0
  9
$CHAMFERA
 40
0.0
  9
$CHAMFERB
 40
0.0
  9
$CHAMFERC
 40
0.0
  9
$CHAMFERD
 40
0.0
  9
$SKPOLY
 70
0
  9
$TDCREATE
 40
2459626.733912037
  9
$TDUCREATE
 40
2458532.153996898
  9
$TDUPDATE
 40
2459626.733912037
  9
$TDUUPDATE
 40
2458532.1544311
  9
$TDINDWG
 40
0.0
  9
$TDUSRTIMER
 40
0.0
  9
$USRTIMER
 70
1
  9
$ANGBASE
 50
0.0
  9
$ANGDIR
 70
0
  9
$PDMODE
 70
0
  9
$PDSIZE
 40
0.0
  9
$PLINEWID
 40
0.0
  9
$SPLFRAME
 70
0
  9
$SPLINETYPE
 70
6
  9
$SPLINESEGS
 70
8
  9
$HANDSEED
  5
87
  9
$SURFTAB1
 70
6
  9
$SURFTAB2
 70
6
  9
$SURFTYPE
 70
6
  9
$SURFU
 70
6
  9
$SURFV
 70
6
  9
$UCSBASE
  2

  9
$UCSNAME
  2

  9
$UCSORG
 10
0.0
 20
0.0
 30
0.0
  9
$UCSXDIR
 10
1.0
 20
0.0
 30
0.0
  9
$UCSYDIR
 10
0.0
 20
1.0
 30
0.0
  9
$UCSORTHOREF
  2

  9
$UCSORTHOVIEW
 70
0
  9
$UCSORGTOP
 10
0.0
 20
0.0
 30
0.0
  9
$UCSORGBOTTOM
 10
0.0
 20
0.0
 30
0.0
  9
$UCSORGLEFT
 10
0.0
 20
0.0
 30
0.0
  9
$UCSORGRIGHT
 10
0.0
 20
0.0
 30
0.0
  9
$UCSORGFRONT
 10
0.0
 20
0.0
 30
0.0
  9
$UCSORGBACK
 10
0.0
 20
0.0
 30
0.0
  9
$PUCSBASE
  2

  9
$PUCSNAME
  2

  9
$PUCSORG
 10
0.0
 20
0.0
 30
0.0
  9
$PUCSXDIR
 10
1.0
 20
0.0
 30
0.0
  9
$PUCSYDIR
 10
0.0
 20
1.0
 30
0.0
  9
$PUCSORTHOREF
  2

  9
$PUCSORTHOVIEW
 70
0
  9
$PUCSORGTOP
 10
0.0
 20
0.0
 30
0.0
  9
$PUCSORGBOTTOM
 10
0.0
 20
0.0
 30
0.0
  9
$PUCSORGLEFT
 10
0.0
 20
0.0
 30
0.0
  9
$PUCSORGRIGHT
 10
0.0
 20
0.0
 30
0.0
  9
$PUCSORGFRONT
 10
0.0
 20
0.0
 30
0.0
  9
$PUCSORGBACK
 10
0.0
 20
0.0
 30
0.0
  9
$USERI1
 70
0
  9
$USERI2
 70
0
  9
$USERI3
 70
0
  9
$USERI4
 70
0
  9
$USERI5
 70
0
  9
$USERR1
 40
0.0
  9
$USERR2
 40
0.0
  9
$USERR3
 40
0.0
  9
$USERR4
 40
0.0
  9
$USERR5
 40
0.0
  9
$WORLDVIEW
 70
1
  9
$SHADEDGE
 70
3
  9
$SHADEDIF
 70
70
  9
$TILEMODE
 70
1
  9
$MAXACTVP
 70
64
  9
$PINSBASE
 10
0.0
 20
0.0
 30
0.0
  9
$PLIMCHECK
 70
0
  9
$PEXTMIN
 10
1e+20
 20
1e+20
 30
1e+20
  9
$PEXTMAX
 10
-1e+20
 20
-1e+20
 30
-1e+20
  9
$PLIMMIN
 10
0.0
 20
0.0
  9
$PLIMMAX
 10
420.0
 20
297.0
  9
$UNITMODE
 70
0
  9
$VISRETAIN
 70
1
  9
$PLINEGEN
 70
0
  9
$PSLTSCALE
 70
1
  9
$TREEDEPTH
 70
3020
  9
$CMLSTYLE
  2
Standard
  9
$CMLJUST
 70
0
  9
$CMLSCALE
 40
20.0
  9
$PROXYGRAPHICS
 70
1
  9
$MEASUREMENT
 70
1
  9
$CELWEIGHT
370
-1
  9
$ENDCAPS
280
0
  9
$JOINSTYLE
280
0
  9
$LWDISPLAY
290
0
  9
$INSUNITS
 70
6
  9
$HYPERLINKBASE
  1

  9
$STYLESHEET
  1

  9
$XEDIT
290
1
  9
$CEPSNTYPE
380
0
  9
$PSTYLEMODE
290
1
  9
$FINGERPRINTGUID
  2
{961F33DE-2B49-4658-8541-D51DD62E53A3}
  9
$VERSIONGUID
  2
{43135C55-6DC0-46A7-9387-AAB3D462B969}
  9
$EXTNAMES
290
1
  9
$PSVPSCALE
 40
0.0
  9
$OLESTARTUP
290
0
  9
$SORTENTS
280
127
  9
$INDEXCTL
280
0
  9
$HIDETEXT
280
1
  9
$XCLIPFRAME
280
0
  9
$HALOGAP
280
0
  9
$OBSCOLOR
 70
257
  9
$OBSLTYPE
280
0
  9
$INTERSECTIONDISPLAY
280
0
  9
$INTERSECTIONCOLOR
 70
257
  9
$DIMASSOC
280
2
  9
$PROJECTNAME
  1

  9
$CAMERADISPLAY
290
0
  9
$LENSLENGTH
 40
50.0
  9
$CAMERAHEIGHT
 40
0.0
  9
$STEPSPERSEC
 40
24.0
  9
$STEPSIZE
 40
100.0
  9
$3DDWFPREC
 40
2.0
  9
$PSOLWIDTH
 40
0.005
  9
$PSOLHEIGHT
 40
0.08
  9
$LOFTANG1
 40
1.570796326795
  9
$LOFTANG2
 40
1.570796326795
  9
$LOFTMAG1
 40
0.0
  9
$LOFTMAG2
 40
0.0
  9
$LOFTPARAM
 70
7
  9
$LOFTNORMALS
280
1
  9
$LATITUDE
 40
37.795
  9
$LONGITUDE
 40
-122.394
  9
$NORTHDIRECTION
 40
0.0
  9
$TIMEZONE
 70
-8000
  9
$LIGHTGLYPHDISPLAY
280
1
  9
$TILEMODELIGHTSYNCH
280
1
  9
$CMATERIAL
347
20
  9
$SOLIDHIST
280
0
  9
$SHOWHIST
280
1
  9
$DWFFRAME
280
2
  9
$DGNFRAME
280
2
  9
$REALWORLDSCALE
290
1
  9
$INTERFERECOLOR
 62
256
  9
$CSHADOW
280
0
  9
$SHADOWPLANELOCATION
 40
0.0
  0
ENDSEC
  0
SECTION
  2
CLASSES
  0
CLASS
  1
ACDBDICTIONARYWDFLT
  2
AcDbDictionaryWithDefault
  3
ObjectDBX Classes
 90
0
 91
0
280
0
281
0
  0
CLASS
  1
SUN
  2
AcDbSun
  3
SCENEOE
 90
1153
 91
0
280
0
281
0
  0
CLASS
  1
VISUALSTYLE
  2
AcDbVisualStyle
  3
ObjectDBX Classes
 90
4095
 91
0
280
0
281
0
  0
CLASS
  1
MATERIAL
  2
AcDbMaterial
  3
ObjectDBX Classes
 90
1153
 91
0
280
0
281
0
  0
CLASS
  1
SCALE
  2
AcDbScale
  3
ObjectDBX Classes
 90
1153
 91
0
280
0
281
0
  0
CLASS
  1
TABLESTYLE
  2
AcDbTableStyle
  3
ObjectDBX Classes
 90
4095
 91
0
280
0
281
0
  0
CLASS
  1
MLEADERSTYLE
  2
AcDbMLeaderStyle
  3
ACDB_MLEADERSTYLE_CLASS
 90
4095
 91
0
280
0
281
0
  0
CLASS
  1
DICTIONARYVAR
  2
AcDbDictionaryVar
  3
ObjectDBX Classes
 90
0
 91
0
280
0
281
0
  0
CLASS
  1
CELLSTYLEMAP
  2
AcDbCellStyleMap
  3
ObjectDBX Classes
 90
1152
 91
0
280
0
281
0
  0
CLASS
  1
MENTALRAYRENDERSETTINGS
  2
AcDbMentalRayRenderSettings
  3
SCENEOE
 90
1024
 91
0
280
0
281
0
  0
CLASS
  1
ACDBDETAILVIEWSTYLE
  2
AcDbDetailViewStyle
  3
ObjectDBX Classes
 90
1025
 91
0
280
0
281
0
  0
CLASS
  1
ACDBSECTIONVIEWSTYLE
  2
AcDbSectionViewStyle
  3
ObjectDBX Classes
 90
1025
 91
0
280
0
281
0
  0
CLASS
  1
RASTERVARIABLES
  2
AcDbRasterVariables
  3
ISM
 90
0
 91
0
280
0
281
0
  0
CLASS
  1
ACDBPLACEHOLDER
  2
AcDbPlaceHolder
  3
ObjectDBX Classes
 90
0
 91
0
280
0
281
0
  0
CLASS
  1
LAYOUT
  2
AcDbLayout
  3
ObjectDBX Classes
 90
0
 91
0
280
0
281
0
  0
ENDSEC
  0
SECTION
  2
TABLES
  0
TABLE
  2
VPORT
  5
8
330
0
100
AcDbSymbolTable
 70
1
  0
VPORT
  5
23
330
8
100
AcDbSymbolTableRecord
100
AcDbViewportTableRecord
  2
*Active
 70
0
 10
0.0
 20
0.0
 11
1.0
 21
1.0
 12
344.2
 22
148.5
 13
0.0
 23
0.0
 14
0.5
 24
0.5
 15
0.5
 25
0.5
 16
0.0
 26
0.0
 36
1.0
 17
0.0
 27
0.0
 37
0.0
 40
297.0
 41
1.34
 42
50.0
 43
0.0
 44
0.0
 50
0.0
 51
0.0
 71
0
 72
1000
 73
1
 74
3
 75
0
 76
0
 77
0
 78
0
281
0
 65
0
146
0.0
  0
ENDTAB
  0
TABLE
  2
LTYPE
  5
2
330
0
100
AcDbSymbolTable
 70
3
  0
LTYPE
  5
24
330
2
100
AcDbSymbolTableRecord
100
AcDbLinetypeTableRecord
  2
ByBlock
 70
0
  3

 72
65
 73
0
 40
0.0
  0
LTYPE
  5
25
330
2
100
AcDbSymbolTableRecord
100
AcDbLinetypeTableRecord
  2
ByLayer
 70
0
  3

 72
65
 73
0
 40
0.0
  0
LTYPE
  5
26
330
2
100
AcDbSymbolTableRecord
100
AcDbLinetypeTableRecord
  2
Continuous
 70
0
  3

 72
65
 73
0
 40
0.0
  0
ENDTAB
  0
TABLE
  2
LAYER
  5
1
330
0
100
AcDbSymbolTable
 70
2
  0
LAYER
  5
27
330
1
100
AcDbSymbolTableRecord
100
AcDbLayerTableRecord
  2
0
 70
0
 62
7
  6
Continuous
370
-3
390
13
347
21
  0
LAYER
  5
28
330
1
100
AcDbSymbolTableRecord
100
AcDbLayerTableRecord
  2
Defpoints
 70
0
 62
7
  6
Continuous
290
0
370
-3
390
13
347
21
  0
ENDTAB
  0
TABLE
  2
STYLE
  5
5
330
0
100
AcDbSymbolTable
 70
1
  0
STYLE
  5
29
330
5
100
AcDbSymbolTableRecord
100
AcDbTextStyleTableRecord
  2
Standard
 70
0
 40
0.0
 41
1.0
 50
0.0
 71
0
 42
2.5
  3
txt
  4

  0
ENDTAB
  0
TABLE
  2
VIEW
  5
7
330
0
100
AcDbSymbolTable
 70
0
  0
ENDTAB
  0
TABLE
  2
UCS
  5
6
330
0
100
AcDbSymbolTable
 70
0
  0
ENDTAB
  0
TABLE
  2
APPID
  5
3
330
0
100
AcDbSymbolTable
 70
3
  0
APPID
  5
2A
330
3
100
AcDbSymbolTableRecord
100
AcDbRegAppTableRecord
  2
ACAD
 70
0
  0
APPID
  5
84
330
3
100
AcDbSymbolTableRecord
100
AcDbRegAppTableRecord
  2
HATCHBACKGROUNDCOLOR
 70
0
  0
APPID
  5
85
330
3
100
AcDbSymbolTableRecord
100
AcDbRegAppTableRecord
  2
EZDXF
 70
0
  0
ENDTAB
  0
TABLE
  2
DIMSTYLE
  5
4
330
0
100
AcDbSymbolTable
 70
1
100
AcDbDimStyleTable
  0
DIMSTYLE
105
2B
330
4
100
AcDbSymbolTableRecord
100
AcDbDimStyleTableRecord
  2
Standard
 70
0
 40
1.0
 41
2.5
 42
0.625
 43
3.75
 44
1.25
 45
0.0
 46
0.0
 47
0.0
 48
0.0
 49
2.5
140
2.5
141
2.5
142
0.0
143
0.03937007874
144
1.0
145
0.0
146
1.0
147
0.625
148
0.0
 69
0
 70
0
 71
0
 72
0
 73
0
 74
0
 75
0
 76
0
 77
1
 78
8
 79
0
170
0
171
3
172
1
173
0
174
0
175
0
176
0
177
0
178
0
179
0
271
0
272
2
273
2
274
3
275
0
276
0
277
2
278
44
279
0
280
0
281
0
282
0
283
0
284
8
285
0
286
0
288
0
289
3
290
0
371
-2
372
-2
  0
ENDTAB
  0
TABLE
  2
BLOCK_RECORD
  5
9
330
0
100
AcDbSymbolTable
 70
2
  0
BLOCK_RECORD
  5
17
330
9
100
AcDbSymbolTableRecord
100
AcDbBlockTableRecord
  2
*Model_Space
340
1A
 70
0
280
1
281
0
  0
BLOCK_RECORD
  5
1B
330
9
100
AcDbSymbolTableRecord
100
AcDbBlockTableRecord
  2
*Paper_Space
340
1E
 70
0
280
1
281
0
  0
ENDTAB
  0
ENDSEC
  0
SECTION
  2
BLOCKS
  0
BLOCK
  5
18
330
17
100
AcDbEntity
  8
0
100
AcDbBlockBegin
  2
*Model_Space
 70
0
 10
0.0
 20
0.0
 30
0.0
  3
*Model_Space
  1

  0
ENDBLK
  5
19
330
17
100
AcDbEntity
  8
0
100
AcDbBlockEnd
  0
BLOCK
  5
1C
330
1B
100
AcDbEntity
  8
0
100
AcDbBlockBegin
  2
*Paper_Space
 70
0
 10
0.0
 20
0.0
 30
0.0
  3
*Paper_Space
  1

  0
ENDBLK
  5
1D
330
1B
100
AcDbEntity
  8
0
100
AcDbBlockEnd
  0
ENDSEC
  0
SECTION
  2
ENTITIES
  0
SPLINE
  5
2F
330
17
100
AcDbEntity
  8
0
100
AcDbSpline
 70
0
 71
8
 72
60
 73
51
 74
0
 40
0.0
 40
0.0
 40
0.0
 40
0.0
 40
0.0
 40
0.0
 40
0.0
 40
0.0
 40
0.0
 40
5.4861981292115364e-05
 40
5.4861981292115364e-05
 40
5.4861981292115364e-05
 40
5.4861981292115364e-05
 40
5.4861981292115364e-05
 40
5.4861981292115364e-05
 40
5.4861981292115364e-05
 40
0.12326667940305364
 40
0.12326667940305364
 40
0.12326667940305364
 40
0.12326667940305364
 40
0.12326667940305364
 40
0.12326667940305364
 40
0.12326667940305364
 40
0.1725221760934487
 40
0.1725221760934487
 40
0.1725221760934487
 40
0.1725221760934487
 40
0.1725221760934487
 40
0.1725221760934487
 40
0.1725221760934487
 40
0.3376334469318516
 40
0.3376334469318516
 40
0.3376334469318516
 40
0.3376334469318516
 40
0.3376334469318516
 40
0.3376334469318516
 40
0.3376334469318516
 40
0.5627532395878903
 40
0.5627532395878903
 40
0.5627532395878903
 40
0.5627532395878903
 40
0.5627532395878903
 40
0.5627532395878903
 40
0.5627532395878903
 40
0.7567190978072638
 40
0.7567190978072638
 40
0.7567190978072638
 40
0.7567190978072638
 40
0.7567190978072638
 40
0.7567190978072638
 40
0.7567190978072638
 40
1.0
 40
1.0
 40
1.0
 40
1.0
 40
1.0
 40
1.0
 40
1.0
 40
1.0
 40
1.0
 10
26.987132936451864
 20
261.6824513142984
 30
1029.0
 10
26.98685319020722
 20
261.68250051863083
 30
1029.0
 10
26.98657344270202
 20
261.6825497156081
 30
1029.0
 10
26.98629369393652
 20
261.6825989052301
 30
1029.0
 10
26.986013943910987
 20
261.68264808749683
 30
1029.0
 10
26.985734192625685
 20
261.6826972624082
 30
1029.0
 10
26.98545444008088
 20
261.68274642996425
 30
1029.0
 10
26.98517468627683
 20
261.68279559016486
 30
1029.0
 10
26.356606835592267
 20
261.7932346930649
 30
1029.0
 10
25.721639728453916
 20
261.8665828195128
 30
1029.0
 10
25.082920247151144
 20
261.9023401618667
 30
1029.0
 10
24.443064479823747
 20
261.9010585459543
 30
1029.0
 10
23.804386193756454
 20
261.8641196626265
 30
1029.0
 10
23.168903003129717
 20
261.79349243722123
 30
1029.0
 10
22.538340476163594
 20
261.69151868978184
 30
1029.0
 10
21.664599748053845
 20
261.5084414730047
 30
1029.0
 10
21.415609086532516
 20
261.45145910724267
 30
1029.0
 10
21.16720075852235
 20
261.38987705297046
 30
1029.0
 10
20.919386945076788
 20
261.323814563594
 30
1029.0
 10
20.672172083018246
 20
261.2534139606298
 30
1029.0
 10
20.425568957768075
 20
261.1788069053093
 30
1029.0
 10
20.179612252859553
 20
261.1000460628528
 30
1029.0
 10
19.11228195087167
 20
260.7386274529726
 30
1029.0
 10
18.305391931664246
 20
260.4149194681846
 30
1029.0
 10
17.516743551653324
 20
260.04726125160016
 30
1029.0
 10
16.748783861421618
 20
259.63759620721135
 30
1029.0
 10
16.003438673139208
 20
259.1882872995432
 30
1029.0
 10
15.282177645486621
 20
258.701997728595
 30
1029.0
 10
14.586068689354898
 20
258.1815930766304
 30
1029.0
 10
13.001978176651926
 20
256.87808777771625
 30
1029.0
 10
12.136194157127289
 20
256.06823704936653
 30
1029.0
 10
11.319495531658957
 20
255.207448061033
 30
1029.0
 10
10.551597201440408
 20
254.30253358736698
 30
1029.0
 10
9.831346368916376
 20
253.3598059709244
 30
1029.0
 10
9.157004709252718
 20
252.38484028340477
 30
1029.0
 10
8.526440835679566
 20
251.3823138106798
 30
1029.0
 10
7.429697668917535
 20
249.47145000682656
 30
1029.0
 10
6.952932337811911
 20
248.56942949812057
 30
1029.0
 10
6.505502513236441
 20
247.65215658394533
 30
1029.0
 10
6.085945959704758
 20
246.72171739191253
 30
1029.0
 10
5.692844832440465
 20
245.77992337713533
 30
1029.0
 10
5.3248294638537645
 20
244.82830992880443
 30
1029.0
 10
4.980585280824317
 20
243.86813341007147
 30
1029.0
 10
4.255343783680601
 20
241.68654901803666
 30
1029.0
 10
3.887328425973383
 20
240.46101416536405
 30
1029.0
 10
3.5523496178733733
 20
239.2257548072322
 30
1029.0
 10
3.248226195488222
 20
237.9824720490154
 30
1029.0
 10
2.9729873582679183
 20
236.73259390056162
 30
1029.0
 10
2.7248389844245793
 20
235.477283968662
 30
1029.0
 10
2.502149317143857
 20
234.21744531379906
 30
1029.0
 10
2.3034314423992157
 20
232.95372447609563
 30
1029.0
  0
SPLINE
  5
30
330
17
100
AcDbEntity
  8
0
100
AcDbSpline
 70
0
 71
1
 72
4
 73
2
 74
0
 40
0.0
 40
0.0
 40
1.0
 40
1.0
 10
26.987132936413772
 20
261.6824513140979
 30
1029.0
 10
26.987132936413772
 20
258.09999939999005
 30
1029.0
  0
LINE
  5
31
330
17
100
AcDbEntity
  8
0
100
AcDbLine
 10
26.98713293966119
 20
258.1
 30
1029.0
 11
34.03916110754802
 21
258.1
 31
1029.0
  0
SPLINE
  5
32
330
17
100
AcDbEntity
  8
0
100
AcDbSpline
 70
0
 71
8
 72
46
 73
37
 74
0
 40
0.0
 40
0.0
 40
0.0
 40
0.0
 40
0.0
 40
0.0
 40
0.0
 40
0.0
 40
0.0
 40
0.024114070415520415
 40
0.024114070415520415
 40
0.024114070415520415
 40
0.024114070415520415
 40
0.024114070415520415
 40
0.024114070415520415
 40
0.024114070415520415
 40
0.21838916197985855
 40
0.21838916197985855
 40
0.21838916197985855
 40
0.21838916197985855
 40
0.21838916197985855
 40
0.21838916197985855
 40
0.21838916197985855
 40
0.5490394563936004
 40
0.5490394563936004
 40
0.5490394563936004
 40
0.5490394563936004
 40
0.5490394563936004
 40
0.5490394563936004
 40
0.5490394563936004
 40
0.8254918237544439
 40
0.8254918237544439
 40
0.8254918237544439
 40
0.8254918237544439
 40
0.8254918237544439
 40
0.8254918237544439
 40
0.8254918237544439
 40
1.0
 40
1.0
 40
1.0
 40
1.0
 40
1.0
 40
1.0
 40
1.0
 40
1.0
 40
1.0
 10
46.47901892271778
 20
235.90000010288358
 30
1029.0
 10
46.453718001285594
 20
235.97422317061788
 30
1029.0
 10
46.428408000338614
 20
236.04830492131447
 30
1029.0
 10
46.40308893893151
 20
236.12224516764672
 30
1029.0
 10
46.37776083611895
 20
236.19604372228787
 30
1029.0
 10
46.3524237109556
 20
236.2697003979112
 30
1029.0
 10
46.32707758249613
 20
236.34321500719005
 30
1029.0
 10
46.30172246979522
 20
236.41658736279769
 30
1029.0
 10
46.07201261082769
 20
237.07979433731097
 30
1029.0
 10
45.864291811528865
 20
237.66859823207676
 30
1029.0
 10
45.6529949822851
 20
238.25613607965784
 30
1029.0
 10
45.43796176742865
 20
238.84232310758432
 30
1029.0
 10
45.219051646046815
 20
239.4270754125727
 30
1029.0
 10
44.99612311067893
 20
240.0103027201354
 30
1029.0
 10
44.76901284601328
 20
240.59190114419005
 30
1029.0
 10
44.14351246042824
 20
242.1586241568924
 30
1029.0
 10
43.73684784795223
 20
243.1403642477476
 30
1029.0
 10
43.31657791086855
 20
244.11646295932607
 30
1029.0
 10
42.881661723883845
 20
245.08624479482032
 30
1029.0
 10
42.43093064670463
 20
246.0488476103768
 30
1029.0
 10
41.96305664532822
 20
247.0032077343849
 30
1029.0
 10
41.476492195764536
 20
247.948031708006
 30
1029.0
 10
40.54534440412682
 20
249.66240442917567
 30
1029.0
 10
40.10703901506884
 20
250.43513892499584
 30
1029.0
 10
39.65329797215838
 20
251.1991208728022
 30
1029.0
 10
39.18290371323403
 20
251.95321052447636
 30
1029.0
 10
38.694536073196666
 20
252.6959350160899
 30
1029.0
 10
38.18674534560921
 20
253.4254705781967
 30
1029.0
 10
37.65789956159007
 20
254.13960766535124
 30
1029.0
 10
36.757750542541515
 20
255.27507291762015
 30
1029.0
 10
36.40035371939115
 20
255.70715582514015
 30
1029.0
 10
36.03339168837337
 20
256.131298173841
 30
1029.0
 10
35.65638315136408
 20
256.5467093684862
 30
1029.0
 10
35.268868989295505
 20
256.9524455932635
 30
1029.0
 10
34.87041699275383
 20
257.3474147598309
 30
1029.0
 10
34.46063008077388
 20
257.73038500262544
 30
1029.0
 10
34.039161242520706
 20
258.1000001539081
 30
1029.0
  0
LINE
  5
33
330
17
100
AcDbEntity
  8
0
100
AcDbLine
 10
26.98713293966119
 20
235.9
 30
1029.0
 11
46.47901862089744
 21
235.9
 31
1029.0
  0
SPLINE
  5
34
330
17
100
AcDbEntity
  8
0
100
AcDbSpline
 70
0
 71
1
 72
4
 73
2
 74
0
 40
0.0
 40
0.0
 40
1.0
 40
1.0
 10
26.98713293641378
 20
235.9000006000011
 30
1029.0
 10
26.98713293641378
 20
232.09999939999986
 30
1029.0
  0
LINE
  5
35
330
17
100
AcDbEntity
  8
0
100
AcDbLine
 10
26.98713293966119
 20
232.1
 30
1029.0
 11
47.71427283962096
 21
232.1
 31
1029.0
  0
SPLINE
  5
36
330
17
100
AcDbEntity
  8
0
100
AcDbSpline
 70
0
 71
8
 72
32
 73
23
 74
0
 40
0.0
 40
0.0
 40
0.0
 40
0.0
 40
0.0
 40
0.0
 40
0.0
 40
0.0
 40
0.0
 40
0.41476515838564915
 40
0.41476515838564915
 40
0.41476515838564915
 40
0.41476515838564915
 40
0.41476515838564915
 40
0.41476515838564915
 40
0.41476515838564915
 40
0.9604364156630266
 40
0.9604364156630266
 40
0.9604364156630266
 40
0.9604364156630266
 40
0.9604364156630266
 40
0.9604364156630266
 40
0.9604364156630266
 40
1.0
 40
1.0
 40
1.0
 40
1.0
 40
1.0
 40
1.0
 40
1.0
 40
1.0
 40
1.0
 10
53.38321715976967
 20
209.89999998662242
 30
1029.0
 10
53.133581022894084
 20
211.06211732233547
 30
1029.0
 10
52.87984230481651
 20
212.22334818264682
 30
1029.0
 10
52.62183460297608
 20
213.3836382194717
 30
1029.0
 10
52.35937506839642
 20
214.54292777455927
 30
1029.0
 10
52.092261566085476
 20
215.70115128860675
 30
1029.0
 10
51.820268987616494
 20
216.85823653416642
 30
1029.0
 10
51.54314431874516
 20
218.01410358855156
 30
1029.0
 10
50.888880052910686
 20
220.6876196131026
 30
1029.0
 10
50.50779373424416
 20
222.20425405447784
 30
1029.0
 10
50.11668482646599
 20
223.71836638871565
 30
1029.0
 10
49.714803288265855
 20
225.22969190438423
 30
1029.0
 10
49.301271419850934
 20
226.7378920575518
 30
1029.0
 10
48.875051607277946
 20
228.24254560597316
 30
1029.0
 10
48.434878711141586
 20
229.74312999634705
 30
1029.0
 10
47.94607583942132
 20
231.34743860305633
 30
1029.0
 10
47.91301370314544
 20
231.45565864456677
 30
1029.0
 10
47.87993397721866
 20
231.5636423377716
 30
1029.0
 10
47.846836706701254
 20
231.6713892396828
 30
1029.0
 10
47.81372193665347
 20
231.77889890731245
 30
1029.0
 10
47.78058971213557
 20
231.8861708976725
 30
1029.0
 10
47.747440078207816
 20
231.993204767775
 30
1029.0
 10
47.71427307993046
 20
232.100000074632
 30
1029.0
  0
LINE
  5
37
330
17
100
AcDbEntity
  8
0
100
AcDbLine
 10
26.98713293966119
 20
209.9
 30
1029.0
 11
53.38321722204606
 21
209.9
 31
1029.0
  0
SPLINE
  5
38
330
17
100
AcDbEntity
  8
0
100
AcDbSpline
 70
0
 71
1
 72
4
 73
2
 74
0
 40
0.0
 40
0.0
 40
1.0
 40
1.0
 10
26.987132936413772
 20
209.90000060000008
 30
1029.0
 10
26.987132936413772
 20
206.09999939999994
 30
1029.0
  0
LINE
  5
39
330
17
100
AcDbEntity
  8
0
100
AcDbLine
 10
26.98713293966119
 20
206.1
 30
1029.0
 11
54.18010672109094
 21
206.1
 31
1029.0
  0
SPLINE
  5
3A
330
17
100
AcDbEntity
  8
0
100
AcDbSpline
 70
0
 71
8
 72
25
 73
16
 74
0
 40
0.0
 40
0.0
 40
0.0
 40
0.0
 40
0.0
 40
0.0
 40
0.0
 40
0.0
 40
0.0
 40
0.10432025568542298
 40
0.10432025568542298
 40
0.10432025568542298
 40
0.10432025568542298
 40
0.10432025568542298
 40
0.10432025568542298
 40
0.10432025568542298
 40
1.0
 40
1.0
 40
1.0
 40
1.0
 40
1.0
 40
1.0
 40
1.0
 40
1.0
 40
1.0
 10
58.19902296658162
 20
183.9000000078517
 30
1029.0
 10
58.152397810956984
 20
184.1905090274333
 30
1029.0
 10
58.105619877380896
 20
184.4809935802507
 30
1029.0
 10
58.0586883567158
 20
184.7714534536516
 30
1029.0
 10
58.01160242528088
 20
185.06188843203503
 30
1029.0
 10
57.96436124449257
 20
185.35229829680014
 30
1029.0
 10
57.91696396049205
 20
185.64268282629334
 30
1029.0
 10
57.86940970375902
 20
185.93304179575347
 30
1029.0
 10
57.41204775871864
 20
188.71613679100346
 30
1029.0
 10
56.99078168475989
 20
191.2068679196932
 30
1029.0
 10
56.55733190655809
 20
193.69548990373954
 30
1029.0
 10
56.11104089103616
 20
196.1818670601541
 30
1029.0
 10
55.65115563075665
 20
198.66580572446577
 30
1029.0
 10
55.176787032461824
 20
201.1470455505201
 30
1029.0
 10
54.68687586933983
 20
203.62525231915947
 30
1029.0
 10
54.18010680102066
 20
206.10000001636772
 30
1029.0
  0
LINE
  5
3B
330
17
100
AcDbEntity
  8
0
100
AcDbLine
 10
26.98713293966119
 20
183.9
 30
1029.0
 11
58.19902291765957
 21
183.9
 31
1029.0
  0
SPLINE
  5
3C
330
17
100
AcDbEntity
  8
0
100
AcDbSpline
 70
0
 71
1
 72
4
 73
2
 74
0
 40
0.0
 40
0.0
 40
1.0
 40
1.0
 10
26.98713293641378
 20
183.90000060000014
 30
1029.0
 10
26.987132936413772
 20
180.0999993999999
 30
1029.0
  0
LINE
  5
3D
330
17
100
AcDbEntity
  8
0
100
AcDbLine
 10
26.98713293966119
 20
180.1
 30
1029.0
 11
58.79738235087701
 21
180.1
 31
1029.0
  0
SPLINE
  5
3E
330
17
100
AcDbEntity
  8
0
100
AcDbSpline
 70
0
 71
8
 72
18
 73
9
 74
0
 40
0.0
 40
0.0
 40
0.0
 40
0.0
 40
0.0
 40
0.0
 40
0.0
 40
0.0
 40
0.0
 40
1.0
 40
1.0
 40
1.0
 40
1.0
 40
1.0
 40
1.0
 40
1.0
 40
1.0
 40
1.0
 10
61.877959819417356
 20
157.8999999970519
 30
1029.0
 10
61.53272914951313
 20
160.6803407910153
 30
1029.0
 10
61.176766048602445
 20
163.45934986968894
 30
1029.0
 10
60.80981318935742
 20
166.23694888044017
 30
1029.0
 10
60.43156559141754
 20
169.0130454376814
 30
1029.0
 10
60.04166368803872
 20
171.78753212413346
 30
1029.0
 10
59.639684101373405
 20
174.56028518472596
 30
1029.0
 10
59.22512493241274
 20
177.3311624471658
 30
1029.0
 10
58.797382371622014
 20
180.1000000032048
 30
1029.0
  0
LINE
  5
3F
330
17
100
AcDbEntity
  8
0
100
AcDbLine
 10
26.98713293966119
 20
157.9
 30
1029.0
 11
61.87795984316029
 21
157.9
 31
1029.0
  0
SPLINE
  5
40
330
17
100
AcDbEntity
  8
0
100
AcDbSpline
 70
0
 71
1
 72
4
 73
2
 74
0
 40
0.0
 40
0.0
 40
1.0
 40
1.0
 10
26.987132936413776
 20
157.90000060000042
 30
1029.0
 10
26.987132936413776
 20
154.09999939999918
 30
1029.0
  0
LINE
  5
41
330
17
100
AcDbEntity
  8
0
100
AcDbLine
 10
26.98713293966119
 20
154.1
 30
1029.0
 11
62.34097048332164
 21
154.1
 31
1029.0
  0
SPLINE
  5
42
330
17
100
AcDbEntity
  8
0
100
AcDbSpline
 70
0
 71
8
 72
32
 73
23
 74
0
 40
0.0
 40
0.0
 40
0.0
 40
0.0
 40
0.0
 40
0.0
 40
0.0
 40
0.0
 40
0.0
 40
0.2937209490040839
 40
0.2937209490040839
 40
0.2937209490040839
 40
0.2937209490040839
 40
0.2937209490040839
 40
0.2937209490040839
 40
0.2937209490040839
 40
0.704969116127987
 40
0.704969116127987
 40
0.704969116127987
 40
0.704969116127987
 40
0.704969116127987
 40
0.704969116127987
 40
0.704969116127987
 40
1.0
 40
1.0
 40
1.0
 40
1.0
 40
1.0
 40
1.0
 40
1.0
 40
1.0
 40
1.0
 10
64.70891626009751
 20
131.89999995772254
 30
1029.0
 10
64.63172702903842
 20
132.71993503199738
 30
1029.0
 10
64.5536954392918
 20
133.53979078321973
 30
1029.0
 10
64.47481903674371
 20
134.35956597229284
 30
1029.0
 10
64.39509682436217
 20
135.1792594784352
 30
1029.0
 10
64.31452836532537
 20
135.99887021837833
 30
1029.0
 10
64.23311288614984
 20
136.8183970655643
 30
1029.0
 10
64.15084837981848
 20
137.6378387693433
 30
1029.0
 10
63.95135497904298
 20
139.6043993636899
 30
1029.0
 10
63.83343416882589
 20
140.75019853270697
 30
1029.0
 10
63.713979913652885
 20
141.8944769935023
 30
1029.0
 10
63.59300384891929
 20
143.03712035835593
 30
1029.0
 10
63.47051761002044
 20
144.17801423954808
 30
1029.0
 10
63.34653283235165
 20
145.31704424935907
 30
1029.0
 10
63.22106115130821
 20
146.45409600006948
 30
1029.0
 10
63.00304201383771
 20
148.40327876341397
 30
1029.0
 10
62.911101171049594
 20
149.21740345877723
 30
1029.0
 10
62.81828766551778
 20
150.03142799483646
 30
1029.0
 10
62.72459722202469
 20
150.84535108575318
 30
1029.0
 10
62.630025286124514
 20
151.65917135319998
 30
1029.0
 10
62.53456701214672
 20
152.47288732457437
 30
1029.0
 10
62.43821725103308
 20
153.2864974312054
 30
1029.0
 10
62.3409705374241
 20
154.1000000064674
 30
1029.0
  0
LINE
  5
43
330
17
100
AcDbEntity
  8
0
100
AcDbLine
 10
26.98713293966119
 20
131.9
 30
1029.0
 11
64.70891670918515
 21
131.9
 31
1029.0
  0
SPLINE
  5
44
330
17
100
AcDbEntity
  8
0
100
AcDbSpline
 70
0
 71
1
 72
4
 73
2
 74
0
 40
0.0
 40
0.0
 40
1.0
 40
1.0
 10
26.98713293641378
 20
131.90000060000256
 30
1029.0
 10
26.98713293641378
 20
128.09999939999764
 30
1029.0
  0
LINE
  5
45
330
17
100
AcDbEntity
  8
0
100
AcDbLine
 10
26.98713293966119
 20
128.1
 30
1029.0
 11
65.05871052406987
 21
128.1
 31
1029.0
  0
SPLINE
  5
46
330
17
100
AcDbEntity
  8
0
100
AcDbSpline
 70
0
 71
8
 72
25
 73
16
 74
0
 40
0.0
 40
0.0
 40
0.0
 40
0.0
 40
0.0
 40
0.0
 40
0.0
 40
0.0
 40
0.0
 40
0.2151272346947224
 40
0.2151272346947224
 40
0.2151272346947224
 40
0.2151272346947224
 40
0.2151272346947224
 40
0.2151272346947224
 40
0.2151272346947224
 40
1.0
 40
1.0
 40
1.0
 40
1.0
 40
1.0
 40
1.0
 40
1.0
 40
1.0
 40
1.0
 10
66.8022721151927
 20
105.90000000054728
 30
1029.0
 10
66.76184918483514
 20
106.49746282950689
 30
1029.0
 10
66.7210479462158
 20
107.09490006123593
 30
1029.0
 10
66.67986640700548
 20
107.69231128419199
 30
1029.0
 10
66.63830256729136
 20
108.28969608175413
 30
1029.0
 10
66.5963544195062
 20
108.8870540322189
 30
1029.0
 10
66.55401994835735
 20
109.48438470879631
 30
1029.0
 10
66.51129713075598
 20
110.08168767960586
 30
1029.0
 10
66.31088924157797
 20
112.85806710415545
 30
1029.0
 10
66.1483982571561
 20
115.03679637734584
 30
1029.0
 10
65.98061247256551
 20
117.2151288289252
 30
1029.0
 10
65.80743190406494
 20
119.39304172742105
 30
1029.0
 10
65.62875509408703
 20
121.57051110820703
 30
1029.0
 10
65.44447911123825
 20
123.74751177350285
 30
1029.0
 10
65.25449955029896
 20
125.92401729237439
 30
1029.0
 10
65.05871053222342
 20
128.1000000007336
 30
1029.0
  0
LINE
  5
47
330
17
100
AcDbEntity
  8
0
100
AcDbLine
 10
26.98713293966119
 20
105.9
 30
1029.0
 11
66.80227210710385
 21
105.9
 31
1029.0
  0
SPLINE
  5
48
330
17
100
AcDbEntity
  8
0
100
AcDbSpline
 70
0
 71
1
 72
4
 73
2
 74
0
 40
0.0
 40
0.0
 40
1.0
 40
1.0
 10
26.987132936413776
 20
105.90000060000206
 30
1029.0
 10
26.98713293641378
 20
102.09999939999993
 30
1029.0
  0
LINE
  5
49
330
17
100
AcDbEntity
  8
0
100
AcDbLine
 10
26.98713293966119
 20
102.1
 30
1029.0
 11
67.0527034065419
 21
102.1
 31
1029.0
  0
SPLINE
  5
4A
330
17
100
AcDbEntity
  8
0
100
AcDbSpline
 70
0
 71
8
 72
18
 73
9
 74
0
 40
0.0
 40
0.0
 40
0.0
 40
0.0
 40
0.0
 40
0.0
 40
0.0
 40
0.0
 40
0.0
 40
1.0
 40
1.0
 40
1.0
 40
1.0
 40
1.0
 40
1.0
 40
1.0
 40
1.0
 40
1.0
 10
68.26463719690032
 20
79.89999999996526
 30
1029.0
 10
68.13829246162202
 20
82.67629905495899
 30
1029.0
 10
68.00513148194779
 20
85.45228767563185
 30
1029.0
 10
67.86497360995793
 20
88.22793840315182
 30
1029.0
 10
67.71763539448189
 20
91.00322146294752
 30
1029.0
 10
67.56293042849006
 20
93.77810475609976
 30
1029.0
 10
67.40066919648538
 20
96.55255385073306
 30
1029.0
 10
67.23065892189506
 20
99.32653197340707
 30
1029.0
 10
67.05270341446234
 20
102.10000000050815
 30
1029.0
  0
LINE
  5
4B
330
17
100
AcDbEntity
  8
0
100
AcDbLine
 10
26.98713293966119
 20
79.9
 30
1029.0
 11
68.26463719766308
 21
79.9
 31
1029.0
  0
SPLINE
  5
4C
330
17
100
AcDbEntity
  8
0
100
AcDbSpline
 70
0
 71
1
 72
4
 73
2
 74
0
 40
0.0
 40
0.0
 40
1.0
 40
1.0
 10
26.98713293641378
 20
79.90000060000001
 30
1029.0
 10
26.987132936413776
 20
76.09999939999999
 30
1029.0
  0
LINE
  5
4D
330
17
100
AcDbEntity
  8
0
100
AcDbLine
 10
26.98713293966119
 20
76.1
 30
1029.0
 11
68.43202213578927
 21
76.1
 31
1029.0
  0
SPLINE
  5
4E
330
17
100
AcDbEntity
  8
0
100
AcDbSpline
 70
0
 71
8
 72
25
 73
16
 74
0
 40
0.0
 40
0.0
 40
0.0
 40
0.0
 40
0.0
 40
0.0
 40
0.0
 40
0.0
 40
0.0
 40
0.9112736683560206
 40
0.9112736683560206
 40
0.9112736683560206
 40
0.9112736683560206
 40
0.9112736683560206
 40
0.9112736683560206
 40
0.9112736683560206
 40
1.0
 40
1.0
 40
1.0
 40
1.0
 40
1.0
 40
1.0
 40
1.0
 40
1.0
 40
1.0
 10
69.2019251143094
 20
53.899999995888315
 30
1029.0
 10
69.13313422386327
 20
56.42939384566546
 30
1029.0
 10
69.05970013734738
 20
58.95866075637575
 30
1029.0
 10
68.98149751994816
 20
61.487787444617354
 30
1029.0
 10
68.8983995460404
 20
64.0167597842159
 30
1029.0
 10
68.81027780874805
 20
66.54556280463777
 30
1029.0
 10
68.71700222772076
 20
69.07418068935485
 30
1029.0
 10
68.6184409551258
 20
71.6025967741609
 30
1029.0
 10
68.50433618190495
 20
74.37695189828024
 30
1029.0
 10
68.49416070984024
 20
74.6231081294925
 30
1029.0
 10
68.4839337402826
 20
74.86926222203867
 30
1029.0
 10
68.47365514968948
 20
75.11541415873877
 30
1029.0
 10
68.46332481435421
 20
75.3615639222703
 30
1029.0
 10
68.45294261040512
 20
75.60771149516825
 30
1029.0
 10
68.44250841380472
 20
75.85385685982496
 30
1029.0
 10
68.43202210034883
 20
76.09999999849015
 30
1029.0
  0
LINE
  5
4F
330
17
100
AcDbEntity
  8
0
100
AcDbLine
 10
26.98713293966119
 20
53.9
 30
1029.0
 11
69.20192526549289
 21
53.9
 31
1029.0
  0
SPLINE
  5
50
330
17
100
AcDbEntity
  8
0
100
AcDbSpline
 70
0
 71
1
 72
4
 73
2
 74
0
 40
0.0
 40
0.0
 40
1.0
 40
1.0
 10
26.98713293641378
 20
53.90000060000026
 30
1029.0
 10
26.987132936413772
 20
50.09999939999937
 30
1029.0
  0
LINE
  5
51
330
17
100
AcDbEntity
  8
0
100
AcDbLine
 10
26.98713293966119
 20
50.1
 30
1029.0
 11
69.30073064094839
 21
50.1
 31
1029.0
  0
SPLINE
  5
52
330
17
100
AcDbEntity
  8
0
100
AcDbSpline
 70
0
 71
8
 72
18
 73
9
 74
0
 40
0.0
 40
0.0
 40
0.0
 40
0.0
 40
0.0
 40
0.0
 40
0.0
 40
0.0
 40
0.0
 40
1.0
 40
1.0
 40
1.0
 40
1.0
 40
1.0
 40
1.0
 40
1.0
 40
1.0
 40
1.0
 10
69.7089642616784
 20
27.900000000214682
 30
1029.0
 10
69.67465616635553
 20
30.67527449434205
 30
1029.0
 10
69.63588403795575
 20
33.45049442719264
 30
1029.0
 10
69.59249318609136
 20
36.22564937932117
 30
1029.0
 10
69.54432740945732
 20
39.000727722396945
 30
1029.0
 10
69.49122886314734
 20
41.7757166169809
 30
1029.0
 10
69.43303792286211
 20
44.55060201021828
 30
1029.0
 10
69.36959304600971
 20
47.325368633446836
 30
1029.0
 10
69.30073062969805
 20
50.09999999972075
 30
1029.0
  0
LINE
  5
53
330
17
100
AcDbEntity
  8
0
100
AcDbLine
 10
26.98713293966119
 20
27.9
 30
1029.0
 11
69.70896424431051
 21
27.9
 31
1029.0
  0
SPLINE
  5
54
330
17
100
AcDbEntity
  8
0
100
AcDbSpline
 70
0
 71
1
 72
4
 73
2
 74
0
 40
0.0
 40
0.0
 40
1.0
 40
1.0
 10
26.987132936413772
 20
27.900000600000002
 30
1029.0
 10
26.987132936413772
 20
24.099999399999998
 30
1029.0
  0
LINE
  5
55
330
17
100
AcDbEntity
  8
0
100
AcDbLine
 10
26.98713293966119
 20
24.1
 30
1029.0
 11
69.75232144869888
 21
24.1
 31
1029.0
  0
SPLINE
  5
56
330
17
100
AcDbEntity
  8
0
100
AcDbSpline
 70
0
 71
8
 72
18
 73
9
 74
0
 40
0.0
 40
0.0
 40
0.0
 40
0.0
 40
0.0
 40
0.0
 40
0.0
 40
0.0
 40
0.0
 40
1.0
 40
1.0
 40
1.0
 40
1.0
 40
1.0
 40
1.0
 40
1.0
 40
1.0
 40
1.0
 10
69.87269411124696
 20
1.8999999999982584
 30
1029.0
 10
69.87059977968877
 20
4.675055602636596
 30
1029.0
 10
69.8651024263652
 20
7.450105056771829
 30
1029.0
 10
69.85605450699717
 20
10.225144993413053
 30
1029.0
 10
69.84330756287984
 20
13.000170845151386
 30
1029.0
 10
69.8267120992118
 20
15.775176844235045
 30
1029.0
 10
69.80611746031926
 20
18.550156020560095
 30
1029.0
 10
69.78137170177529
 20
21.325100199576895
 30
1029.0
 10
69.75232145941416
 20
24.100000000112196
 30
1029.0
  0
LINE
  5
57
330
17
100
AcDbEntity
  8
0
100
AcDbLine
 10
26.98713293966119
 20
1.9
 30
1029.0
 11
69.87269411355643
 21
1.9
 31
1029.0
  0
SPLINE
  5
58
330
17
100
AcDbEntity
  8
0
100
AcDbSpline
 70
0
 71
1
 72
4
 73
2
 74
0
 40
0.0
 40
0.0
 40
0.9999993684216398
 40
0.9999993684216398
 10
26.98713293641378
 20
1.9000006000000558
 30
1029.0
 10
26.987132936413772
 20
-6.553790374438061e-17
 30
1029.0
  0
SPLINE
  5
59
330
17
100
AcDbEntity
  8
0
100
AcDbSpline
 70
0
 71
1
 72
4
 73
2
 74
0
 40
0.0
 40
0.0
 40
1.0
 40
1.0
 10
26.987132936413772
 20
-1.9000006000000011
 30
1029.0
 10
26.98713293641378
 20
1.2000000211287443e-06
 30
1029.0
  0
LINE
  5
5A
330
17
100
AcDbEntity
  8
0
100
AcDbLine
 10
26.9871329396612
 20
-1.9
 30
1029.0
 11
69.87280129486136
 21
-1.9
 31
1029.0
  0
SPLINE
  5
5B
330
17
100
AcDbEntity
  8
0
100
AcDbSpline
 70
0
 71
8
 72
18
 73
9
 74
0
 40
0.0
 40
0.0
 40
0.0
 40
0.0
 40
0.0
 40
0.0
 40
0.0
 40
0.0
 40
0.0
 40
1.0
 40
1.0
 40
1.0
 40
1.0
 40
1.0
 40
1.0
 40
1.0
 40
1.0
 40
1.0
 10
69.75360103540334
 20
-24.10000000010845
 30
1029.0
 10
69.78252215976067
 20
-21.325132120053908
 30
1029.0
 10
69.80713159848615
 20
-18.55021766261651
 30
1029.0
 10
69.8275838559421
 20
-15.775263235007728
 30
1029.0
 10
69.84403199367691
 20
-13.000273686692601
 30
1029.0
 10
69.85662775885373
 20
-10.22525211376429
 30
1029.0
 10
69.86552171317959
 20
-7.450199863318949
 30
1029.0
 10
69.87086336374126
 20
-4.675116537890093
 30
1029.0
 10
69.87280129715491
 20
-1.9000000000016062
 30
1029.0
  0
LINE
  5
5C
330
17
100
AcDbEntity
  8
0
100
AcDbLine
 10
26.9871329396612
 20
-24.1
 30
1029.0
 11
69.75360102500012
 21
-24.1
 31
1029.0
  0
SPLINE
  5
5D
330
17
100
AcDbEntity
  8
0
100
AcDbSpline
 70
0
 71
1
 72
4
 73
2
 74
0
 40
0.0
 40
0.0
 40
1.0
 40
1.0
 10
26.987132936413772
 20
-27.900000600000034
 30
1029.0
 10
26.987132936413772
 20
-24.099999399999938
 30
1029.0
  0
LINE
  5
5E
330
17
100
AcDbEntity
  8
0
100
AcDbLine
 10
26.9871329396612
 20
-27.9
 30
1029.0
 11
69.710413877113
 21
-27.9
 31
1029.0
  0
SPLINE
  5
5F
330
17
100
AcDbEntity
  8
0
100
AcDbSpline
 70
0
 71
8
 72
18
 73
9
 74
0
 40
0.0
 40
0.0
 40
0.0
 40
0.0
 40
0.0
 40
0.0
 40
0.0
 40
0.0
 40
0.0
 40
1.0
 40
1.0
 40
1.0
 40
1.0
 40
1.0
 40
1.0
 40
1.0
 40
1.0
 40
1.0
 10
69.30283321534297
 20
-50.10000000060276
 30
1029.0
 10
69.37166025503909
 20
-47.32534955107576
 30
1029.0
 10
69.43505413721725
 20
-44.55056972880638
 30
1029.0
 10
69.49317966459421
 20
-41.775677504544156
 30
1029.0
 10
69.5461995890691
 20
-39.00068806925331
 30
1029.0
 10
69.59427474429253
 20
-36.225614838733506
 30
1029.0
 10
69.6375641754379
 20
-33.45046945810222
 30
1029.0
 10
69.67622526758325
 20
-30.675261806197877
 30
1029.0
 10
69.7104138741118
 20
-27.89999999996305
 30
1029.0
  0
LINE
  5
60
330
17
100
AcDbEntity
  8
0
100
AcDbLine
 10
26.9871329396612
 20
-50.1
 30
1029.0
 11
69.30283319104365
 21
-50.1
 31
1029.0
  0
SPLINE
  5
61
330
17
100
AcDbEntity
  8
0
100
AcDbSpline
 70
0
 71
1
 72
4
 73
2
 74
0
 40
0.0
 40
0.0
 40
1.0
 40
1.0
 10
26.98713293641378
 20
-53.9000006
 30
1029.0
 10
26.98713293641378
 20
-50.0999994
 30
1029.0
  0
LINE
  5
62
330
17
100
AcDbEntity
  8
0
100
AcDbLine
 10
26.9871329396612
 20
-53.9
 30
1029.0
 11
69.20406379156886
 21
-53.9
 31
1029.0
  0
SPLINE
  5
63
330
17
100
AcDbEntity
  8
0
100
AcDbSpline
 70
0
 71
8
 72
18
 73
9
 74
0
 40
0.0
 40
0.0
 40
0.0
 40
0.0
 40
0.0
 40
0.0
 40
0.0
 40
0.0
 40
0.0
 40
1.0
 40
1.0
 40
1.0
 40
1.0
 40
1.0
 40
1.0
 40
1.0
 40
1.0
 40
1.0
 10
68.43376256109559
 20
-76.10000000069346
 30
1029.0
 10
68.55207410463768
 20
-73.3258232822108
 30
1029.0
 10
68.66374174586264
 20
-70.5513608487959
 30
1029.0
 10
68.76894440708143
 20
-67.7766401985771
 30
1029.0
 10
68.86785830180725
 20
-65.00168702365806
 30
1029.0
 10
68.96065708327241
 20
-62.22652521548031
 30
1029.0
 10
69.04751198683223
 20
-59.451176869907925
 30
1029.0
 10
69.12859196766804
 20
-56.675662292093755
 30
1029.0
 10
69.2040638352019
 20
-53.90000000118643
 30
1029.0
  0
LINE
  5
64
330
17
100
AcDbEntity
  8
0
100
AcDbLine
 10
26.9871329396612
 20
-76.1
 30
1029.0
 11
68.4337625448361
 21
-76.1
 31
1029.0
  0
SPLINE
  5
65
330
17
100
AcDbEntity
  8
0
100
AcDbSpline
 70
0
 71
1
 72
4
 73
2
 74
0
 40
0.0
 40
0.0
 40
1.0
 40
1.0
 10
26.98713293641378
 20
-79.90000060000018
 30
1029.0
 10
26.98713293641378
 20
-76.09999939999999
 30
1029.0
  0
LINE
  5
66
330
17
100
AcDbEntity
  8
0
100
AcDbLine
 10
26.9871329396612
 20
-79.9
 30
1029.0
 11
68.26618695871629
 21
-79.9
 31
1029.0
  0
SPLINE
  5
67
330
17
100
AcDbEntity
  8
0
100
AcDbSpline
 70
0
 71
8
 72
18
 73
9
 74
0
 40
0.0
 40
0.0
 40
0.0
 40
0.0
 40
0.0
 40
0.0
 40
0.0
 40
0.0
 40
0.0
 40
1.0
 40
1.0
 40
1.0
 40
1.0
 40
1.0
 40
1.0
 40
1.0
 40
1.0
 40
1.0
 10
67.0522455043737
 20
-102.09999999962177
 30
1029.0
 10
67.23055601362698
 20
-99.3265592413835
 30
1029.0
 10
67.40088909511458
 20
-96.55260104404073
 30
1029.0
 10
67.56344223319192
 20
-93.77816367251648
 30
1029.0
 10
67.71840943505654
 20
-91.00328355125498
 30
1029.0
 10
67.86598140737891
 20
-88.22799527083617
 30
1029.0
 10
68.00634572345788
 20
-85.45233159417101
 30
1029.0
 10
68.1396869823219
 20
-82.67632346233687
 30
1029.0
 10
68.26618696119759
 20
-79.9000000001131
 30
1029.0
  0
LINE
  5
68
330
17
100
AcDbEntity
  8
0
100
AcDbLine
 10
26.9871329396612
 20
-102.1
 30
1029.0
 11
67.05224551025678
 21
-102.1
 31
1029.0
  0
SPLINE
  5
69
330
17
100
AcDbEntity
  8
0
100
AcDbSpline
 70
0
 71
1
 72
4
 73
2
 74
0
 40
0.0
 40
0.0
 40
1.0
 40
1.0
 10
26.98713293641378
 20
-105.90000060000003
 30
1029.0
 10
26.987132936413772
 20
-102.09999939999999
 30
1029.0
  0
LINE
  5
6A
330
17
100
AcDbEntity
  8
0
100
AcDbLine
 10
26.9871329396612
 20
-105.9
 30
1029.0
 11
66.80129810695179
 21
-105.9
 31
1029.0
  0
SPLINE
  5
6B
330
17
100
AcDbEntity
  8
0
100
AcDbSpline
 70
0
 71
8
 72
18
 73
9
 74
0
 40
0.0
 40
0.0
 40
0.0
 40
0.0
 40
0.0
 40
0.0
 40
0.0
 40
0.0
 40
0.0
 40
1.0
 40
1.0
 40
1.0
 40
1.0
 40
1.0
 40
1.0
 40
1.0
 40
1.0
 40
1.0
 10
65.05351888734606
 20
-128.10000000065764
 30
1029.0
 10
65.30364138790434
 20
-125.32756723937834
 30
1029.0
 10
65.5442885564448
 20
-122.55430689510148
 30
1029.0
 10
65.7756819303327
 20
-119.78026836199369
 30
1029.0
 10
65.99803862539133
 20
-117.00549914677205
 30
1029.0
 10
66.21157155348105
 20
-114.23004487710867
 30
1029.0
 10
66.41648962714447
 20
-111.45394930947013
 30
1029.0
 10
66.61299795275518
 20
-108.67725433645238
 30
1029.0
 10
66.80129801360756
 20
-105.8999999936712
 30
1029.0
  0
LINE
  5
6C
330
17
100
AcDbEntity
  8
0
100
AcDbLine
 10
26.9871329396612
 20
-128.1
 30
1029.0
 11
65.05351888005652
 21
-128.1
 31
1029.0
  0
SPLINE
  5
6D
330
17
100
AcDbEntity
  8
0
100
AcDbSpline
 70
0
 71
1
 72
4
 73
2
 74
0
 40
0.0
 40
0.0
 40
1.0
 40
1.0
 10
26.98713293641378
 20
-131.9000006
 30
1029.0
 10
26.987132936413776
 20
-128.09999939999992
 30
1029.0
  0
LINE
  5
6E
330
17
100
AcDbEntity
  8
0
100
AcDbLine
 10
26.9871329396612
 20
-131.9
 30
1029.0
 11
64.70277589026526
 21
-131.9
 31
1029.0
  0
SPLINE
  5
6F
330
17
100
AcDbEntity
  8
0
100
AcDbSpline
 70
0
 71
8
 72
25
 73
16
 74
0
 40
0.0
 40
0.0
 40
0.0
 40
0.0
 40
0.0
 40
0.0
 40
0.0
 40
0.0
 40
0.0
 40
0.2481095772315299
 40
0.2481095772315299
 40
0.2481095772315299
 40
0.2481095772315299
 40
0.2481095772315299
 40
0.2481095772315299
 40
0.2481095772315299
 40
1.0
 40
1.0
 40
1.0
 40
1.0
 40
1.0
 40
1.0
 40
1.0
 40
1.0
 40
1.0
 10
62.32799526855853
 20
-154.10000000640258
 30
1029.0
 10
62.41042277484618
 20
-153.41247802817458
 30
1029.0
 10
62.492207978522266
 20
-152.72487869773641
 30
1029.0
 10
62.573354139779624
 20
-152.0372030008226
 30
1029.0
 10
62.65386435795597
 20
-151.34945187186952
 30
1029.0
 10
62.73374157724355
 20
-150.66162619486326
 30
1029.0
 10
62.81298859218964
 20
-149.97372680416277
 30
1029.0
 10
62.89160805318005
 20
-149.28575448532717
 30
1029.0
 10
63.20596278219989
 20
-146.51260676153174
 30
1029.0
 10
63.43658142977621
 20
-144.426852610679
 30
1029.0
 10
63.66152732720704
 20
-142.34047357329942
 30
1029.0
 10
63.880857468990044
 20
-140.2534939800298
 30
1029.0
 10
64.09461751323101
 20
-138.1659365048499
 30
1029.0
 10
64.3028423631343
 20
-136.07782222767153
 30
1029.0
 10
64.50555674849362
 20
-133.98917069692686
 30
1029.0
 10
64.70277580718238
 20
-131.89999999215692
 30
1029.0
  0
LINE
  5
70
330
17
100
AcDbEntity
  8
0
100
AcDbLine
 10
26.9871329396612
 20
-154.1
 30
1029.0
 11
62.327995215154914
 21
-154.1
 31
1029.0
  0
SPLINE
  5
71
330
17
100
AcDbEntity
  8
0
100
AcDbSpline
 70
0
 71
1
 72
4
 73
2
 74
0
 40
0.0
 40
0.0
 40
1.0
 40
1.0
 10
26.987132936413776
 20
-157.90000060000003
 30
1029.0
 10
26.987132936413776
 20
-154.0999994
 30
1029.0
  0
LINE
  5
72
330
17
100
AcDbEntity
  8
0
100
AcDbLine
 10
26.9871329396612
 20
-157.9
 30
1029.0
 11
61.863632172272766
 21
-157.9
 31
1029.0
  0
SPLINE
  5
73
330
17
100
AcDbEntity
  8
0
100
AcDbSpline
 70
0
 71
8
 72
18
 73
9
 74
0
 40
0.0
 40
0.0
 40
0.0
 40
0.0
 40
0.0
 40
0.0
 40
0.0
 40
0.0
 40
0.0
 40
1.0
 40
1.0
 40
1.0
 40
1.0
 40
1.0
 40
1.0
 40
1.0
 40
1.0
 40
1.0
 10
58.77445742478888
 20
-180.1000000018388
 30
1029.0
 10
59.20331984673783
 20
-177.33118532338875
 30
1029.0
 10
59.61899261784036
 20
-174.56032353598636
 30
1029.0
 10
60.02207583414311
 20
-171.78757949602505
 30
1029.0
 10
60.413068004333894
 20
-169.0130958870846
 30
1029.0
 10
60.792389505628464
 20
-166.236996588381
 30
1029.0
 10
61.160397128092384
 20
-163.459388755573
 30
1029.0
 10
61.517393121069986
 20
-160.68036411818412
 30
1029.0
 10
61.863632155392516
 20
-157.8999999978979
 30
1029.0
  0
LINE
  5
74
330
17
100
AcDbEntity
  8
0
100
AcDbLine
 10
26.9871329396612
 20
-180.1
 30
1029.0
 11
58.77445741291683
 21
-180.1
 31
1029.0
  0
SPLINE
  5
75
330
17
100
AcDbEntity
  8
0
100
AcDbSpline
 70
0
 71
1
 72
4
 73
2
 74
0
 40
0.0
 40
0.0
 40
1.0
 40
1.0
 10
26.98713293641378
 20
-183.9000006000001
 30
1029.0
 10
26.987132936413772
 20
-180.09999939999994
 30
1029.0
  0
LINE
  5
76
330
17
100
AcDbEntity
  8
0
100
AcDbLine
 10
26.9871329396612
 20
-183.9
 30
1029.0
 11
58.174550164850515
 21
-183.9
 31
1029.0
  0
SPLINE
  5
77
330
17
100
AcDbEntity
  8
0
100
AcDbSpline
 70
0
 71
8
 72
25
 73
16
 74
0
 40
0.0
 40
0.0
 40
0.0
 40
0.0
 40
0.0
 40
0.0
 40
0.0
 40
0.0
 40
0.0
 40
0.8548774589167393
 40
0.8548774589167393
 40
0.8548774589167393
 40
0.8548774589167393
 40
0.8548774589167393
 40
0.8548774589167393
 40
0.8548774589167393
 40
1.0
 40
1.0
 40
1.0
 40
1.0
 40
1.0
 40
1.0
 40
1.0
 40
1.0
 40
1.0
 10
54.1466634408495
 20
-206.10000000333358
 30
1029.0
 10
54.63125668132711
 20
-203.73800428965632
 30
1029.0
 10
55.100513562835566
 20
-201.37285727789384
 30
1029.0
 10
55.55557312639442
 20
-199.00492812226415
 30
1029.0
 10
55.997362735083456
 20
-196.63450916715095
 30
1029.0
 10
56.42666582350287
 20
-194.26183014052242
 30
1029.0
 10
56.84415073136835
 20
-191.88706426838957
 30
1029.0
 10
57.25040304308192
 20
-189.5103352163873
 30
1029.0
 10
57.71307543022253
 20
-186.72792799852562
 30
1029.0
 10
57.77991005382997
 20
-186.32408682476208
 30
1029.0
 10
57.84643756628862
 20
-185.92019511888645
 30
1029.0
 10
57.912660362835666
 20
-185.5162535043297
 30
1029.0
 10
57.97858077838606
 20
-185.11226259240294
 30
1029.0
 10
58.04420108962002
 20
-184.70822298259768
 30
1029.0
 10
58.10952351696762
 20
-184.3041352628714
 30
1029.0
 10
58.17455022649535
 20
-183.90000000991884
 30
1029.0
  0
LINE
  5
78
330
17
100
AcDbEntity
  8
0
100
AcDbLine
 10
26.9871329396612
 20
-206.1
 30
1029.0
 11
54.14666342460101
 21
-206.1
 31
1029.0
  0
SPLINE
  5
79
330
17
100
AcDbEntity
  8
0
100
AcDbSpline
 70
0
 71
1
 72
4
 73
2
 74
0
 40
0.0
 40
0.0
 40
1.0
 40
1.0
 10
26.987132936413772
 20
-209.90000060000008
 30
1029.0
 10
26.98713293641378
 20
-206.09999939999992
 30
1029.0
  0
LINE
  5
7A
330
17
100
AcDbEntity
  8
0
100
AcDbLine
 10
26.9871329396612
 20
-209.9
 30
1029.0
 11
53.34832879386119
 21
-209.9
 31
1029.0
  0
SPLINE
  5
7B
330
17
100
AcDbEntity
  8
0
100
AcDbSpline
 70
0
 71
8
 72
25
 73
16
 74
0
 40
0.0
 40
0.0
 40
0.0
 40
0.0
 40
0.0
 40
0.0
 40
0.0
 40
0.0
 40
0.0
 40
0.5850417597099288
 40
0.5850417597099288
 40
0.5850417597099288
 40
0.5850417597099288
 40
0.5850417597099288
 40
0.5850417597099288
 40
0.5850417597099288
 40
1.0
 40
1.0
 40
1.0
 40
1.0
 40
1.0
 40
1.0
 40
1.0
 40
1.0
 40
1.0
 10
47.67284597884152
 20
-232.09999999451153
 30
1029.0
 10
48.1702276269702
 20
-230.4993128940322
 30
1029.0
 10
48.6489334799871
 20
-228.89278837393215
 30
1029.0
 10
49.11111511176467
 20
-227.2813797783752
 30
1029.0
 10
49.558391490323395
 20
-225.665802025681
 30
1029.0
 10
49.99209102925164
 20
-224.0466038577367
 30
1029.0
 10
50.4133091560787
 20
-222.42418497517878
 30
1029.0
 10
50.82299644340045
 20
-220.7988231993992
 30
1029.0
 10
51.50495859417657
 20
-218.01586747381074
 30
1029.0
 10
51.782533672608466
 20
-216.85974922055163
 30
1029.0
 10
52.05498483115202
 20
-215.7024123614646
 30
1029.0
 10
52.322564228288044
 20
-214.5439369568308
 30
1029.0
 10
52.58549620239248
 20
-213.3843953244907
 30
1029.0
 10
52.84398219889887
 20
-212.22385307061842
 30
1029.0
 10
53.09820444573971
 20
-211.06236985798316
 30
1029.0
 10
53.348328781446064
 20
-209.89999999732845
 30
1029.0
  0
LINE
  5
7C
330
17
100
AcDbEntity
  8
0
100
AcDbLine
 10
26.9871329396612
 20
-232.1
 30
1029.0
 11
47.6728459965047
 21
-232.1
 31
1029.0
  0
SPLINE
  5
7D
330
17
100
AcDbEntity
  8
0
100
AcDbSpline
 70
0
 71
1
 72
4
 73
2
 74
0
 40
0.0
 40
0.0
 40
1.0
 40
1.0
 10
26.98713293641378
 20
-235.90000060000008
 30
1029.0
 10
26.987132936413772
 20
-232.09999939999992
 30
1029.0
  0
LINE
  5
7E
330
17
100
AcDbEntity
  8
0
100
AcDbLine
 10
26.9871329396612
 20
-235.9
 30
1029.0
 11
46.43712122118564
 21
-235.9
 31
1029.0
  0
SPLINE
  5
7F
330
17
100
AcDbEntity
  8
0
100
AcDbSpline
 70
0
 71
8
 72
46
 73
37
 74
0
 40
0.0
 40
0.0
 40
0.0
 40
0.0
 40
0.0
 40
0.0
 40
0.0
 40
0.0
 40
0.0
 40
0.0765506857032428
 40
0.0765506857032428
 40
0.0765506857032428
 40
0.0765506857032428
 40
0.0765506857032428
 40
0.0765506857032428
 40
0.0765506857032428
 40
0.3867987797587138
 40
0.3867987797587138
 40
0.3867987797587138
 40
0.3867987797587138
 40
0.3867987797587138
 40
0.3867987797587138
 40
0.3867987797587138
 40
0.7813581913190537
 40
0.7813581913190537
 40
0.7813581913190537
 40
0.7813581913190537
 40
0.7813581913190537
 40
0.7813581913190537
 40
0.7813581913190537
 40
0.9756479254914692
 40
0.9756479254914692
 40
0.9756479254914692
 40
0.9756479254914692
 40
0.9756479254914692
 40
0.9756479254914692
 40
0.9756479254914692
 40
1.0
 40
1.0
 40
1.0
 40
1.0
 40
1.0
 40
1.0
 40
1.0
 40
1.0
 40
1.0
 10
34.008476428367814
 20
-258.0999999922158
 30
1029.0
 10
34.19322451217238
 20
-257.9377079466899
 30
1029.0
 10
34.375719929271504
 20
-257.7728479730774
 30
1029.0
 10
34.55599029418924
 20
-257.6055369421296
 30
1029.0
 10
34.734066557686695
 20
-257.4358860234579
 30
1029.0
 10
34.90998261902129
 20
-257.26400022128166
 30
1029.0
 10
35.08377501523438
 20
-257.089978004959
 30
1029.0
 10
35.2554826874672
 20
-256.91391103429936
 30
1029.0
 10
36.11276934002767
 20
-256.0143678510306
 30
1029.0
 10
36.76647290898511
 20
-255.26102558190544
 30
1029.0
 10
37.389264841133965
 20
-254.48132433000575
 30
1029.0
 10
37.98372586249179
 20
-253.67974106062297
 30
1029.0
 10
38.55218657394785
 20
-252.8598969228101
 30
1029.0
 10
39.09680970621047
 20
-252.0246188824014
 30
1029.0
 10
39.61962701786124
 20
-251.17596722003594
 30
1029.0
 10
40.762212002246585
 20
-249.22066875819067
 30
1029.0
 10
41.36932155832517
 20
-248.10725939183519
 30
1029.0
 10
41.9476522087272
 20
-246.9783413036582
 30
1029.0
 10
42.50010002266715
 20
-245.83649787425242
 30
1029.0
 10
43.02907390515271
 20
-244.68377247019947
 30
1029.0
 10
43.53665454548926
 20
-243.52174606277526
 30
1029.0
 10
44.02465948556137
 20
-242.35156883373745
 30
1029.0
 10
44.72619127636736
 20
-240.59414015953524
 30
1029.0
 10
44.953284105621
 20
-240.01253084447296
 30
1029.0
 10
45.17620622217248
 20
-239.42929707247532
 30
1029.0
 10
45.39512080124878
 20
-238.8445424499874
 30
1029.0
 10
45.61016926036596
 20
-238.25835701453232
 30
1029.0
 10
45.8214919580547
 20
-237.67082443467748
 30
1029.0
 10
46.02924889258587
 20
-237.08202921000054
 30
1029.0
 10
46.25925862111113
 20
-236.4181182251228
 30
1029.0
 10
46.28482383294265
 20
-236.344154472395
 30
1029.0
 10
46.31033638721951
 20
-236.27017276325705
 30
1029.0
 10
46.33579663004077
 20
-236.19617324624397
 30
1029.0
 10
46.36120490269161
 20
-236.12215606807538
 30
1029.0
 10
46.386561541755405
 20
-236.0481213736891
 30
1029.0
 10
46.411866879222075
 20
-235.97406930627352
 30
1029.0
 10
46.43712124259301
 20
-235.900000007299
 30
1029.0
  0
LINE
  5
80
330
17
100
AcDbEntity
  8
0
100
AcDbLine
 10
26.9871329396612
 20
-258.1
 30
1029.0
 11
34.00847643520594
 21
-258.1
 31
1029.0
  0
SPLINE
  5
81
330
17
100
AcDbEntity
  8
0
100
AcDbSpline
 70
0
 71
1
 72
4
 73
2
 74
0
 40
0.0
 40
0.0
 40
1.0
 40
1.0
 10
26.98713293641378
 20
-261.67984117806367
 30
1029.0
 10
26.987132936413776
 20
-258.09999939999994
 30
1029.0
  0
SPLINE
  5
82
330
17
100
AcDbEntity
  8
0
100
AcDbSpline
 70
0
 71
8
 72
67
 73
58
 74
0
 40
0.0
 40
0.0
 40
0.0
 40
0.0
 40
0.0
 40
0.0
 40
0.0
 40
0.0
 40
0.0
 40
0.02100504559964605
 40
0.02100504559964605
 40
0.02100504559964605
 40
0.02100504559964605
 40
0.02100504559964605
 40
0.02100504559964605
 40
0.02100504559964605
 40
0.037233061346002294
 40
0.037233061346002294
 40
0.037233061346002294
 40
0.037233061346002294
 40
0.037233061346002294
 40
0.037233061346002294
 40
0.037233061346002294
 40
0.047026920186651354
 40
0.047026920186651354
 40
0.047026920186651354
 40
0.047026920186651354
 40
0.047026920186651354
 40
0.047026920186651354
 40
0.047026920186651354
 40
0.051687600990512554
 40
0.051687600990512554
 40
0.051687600990512554
 40
0.051687600990512554
 40
0.051687600990512554
 40
0.051687600990512554
 40
0.051687600990512554
 40
0.05396950050813217
 40
0.05396950050813217
 40
0.05396950050813217
 40
0.05396950050813217
 40
0.05396950050813217
 40
0.05396950050813217
 40
0.05396950050813217
 40
0.05623741618153592
 40
0.05623741618153592
 40
0.05623741618153592
 40
0.05623741618153592
 40
0.05623741618153592
 40
0.05623741618153592
 40
0.05623741618153592
 40
0.0652263128785084
 40
0.0652263128785084
 40
0.0652263128785084
 40
0.0652263128785084
 40
0.0652263128785084
 40
0.0652263128785084
 40
0.0652263128785084
 40
0.0652635711902514
 40
0.0652635711902514
 40
0.0652635711902514
 40
0.0652635711902514
 40
0.0652635711902514
 40
0.0652635711902514
 40
0.0652635711902514
 40
0.0652635711902514
 40
0.0652635711902514
 10
2.3034314423992015
 20
-232.95372447609563
 30
1029.0
 10
2.5665527573781404
 20
-234.62701073184928
 30
1029.0
 10
2.871652769285653
 20
-236.29317939446483
 30
1029.0
 10
3.2222049741621
 20
-237.951056090572
 30
1029.0
 10
3.6221360885766174
 20
-239.59851343014984
 30
1029.0
 10
4.075885777052518
 20
-241.2324505539242
 30
1029.0
 10
4.588420601905529
 20
-242.84878829681625
 30
1029.0
 10
5.165361888770736
 20
-244.4424312765013
 30
1029.0
 10
6.314036672314375
 20
-247.21601258229776
 30
1029.0
 10
6.856862023387826
 20
-248.40700094993468
 30
1029.0
 10
7.444926035658941
 20
-249.57740735279464
 30
1029.0
 10
8.081360083231353
 20
-250.7233238578199
 30
1029.0
 10
8.769250923915092
 20
-251.83970980881514
 30
1029.0
 10
9.51151020469256
 20
-252.92047067740836
 30
1029.0
 10
10.310697110460222
 20
-253.9585656092123
 30
1029.0
 10
11.686621595223546
 20
-255.54219292521654
 30
1029.0
 10
12.225817325402492
 20
-256.11970707280597
 30
1029.0
 10
12.786647254629
 20
-256.6768592284904
 30
1029.0
 10
13.369233227439627
 20
-257.21165555628073
 30
1029.0
 10
13.973486506927749
 20
-257.7219964212663
 30
1029.0
 10
14.599059142757675
 20
-258.20573264434506
 30
1029.0
 10
15.245283653883538
 20
-258.660735941987
 30
1029.0
 10
16.2279487869489
 20
-259.2868736047587
 30
1029.0
 10
16.549233824567427
 20
-259.4817989510685
 30
1029.0
 10
16.874839748192354
 20
-259.66954043809335
 30
1029.0
 10
17.204635131439943
 20
-259.8498879265224
 30
1029.0
 10
17.538472619662468
 20
-260.02264199423684
 30
1029.0
 10
17.876188037431813
 20
-260.18761564094655
 30
1029.0
 10
18.217599496023105
 20
-260.34463599282753
 30
1029.0
 10
18.731375205100598
 20
-260.5664533149464
 30
1029.0
 10
18.90064837690712
 20
-260.63722932285896
 30
1029.0
 10
19.0703144238611
 20
-260.7058814861309
 30
1029.0
 10
19.240361753505805
 20
-260.7724172599977
 30
1029.0
 10
19.410778773384564
 20
-260.8368440996946
 30
1029.0
 10
19.581553891040745
 20
-260.8991694604566
 30
1029.0
 10
19.75267551401779
 20
-260.95940079751915
 30
1029.0
 10
20.094537872700965
 20
-261.0753340142997
 30
1029.0
 10
20.265604734268322
 20
-261.13116905911085
 30
1029.0
 10
20.43730453410252
 20
-261.1850537953082
 30
1029.0
 10
20.60961279476885
 20
-261.23697526001524
 30
1029.0
 10
20.78250866185664
 20
-261.2869044327217
 30
1029.0
 10
20.95597490397927
 20
-261.3347962352839
 30
1029.0
 10
21.129997912774186
 20
-261.3805895319243
 30
1029.0
 10
21.996476060996123
 20
-261.59708572474807
 30
1029.0
 10
22.69736608116623
 20
-261.7360908303587
 30
1029.0
 10
23.4055620962231
 20
-261.83758621339854
 30
1029.0
 10
24.11891835862439
 20
-261.8980865200462
 30
1029.0
 10
24.834807477524414
 20
-261.91453439748074
 30
1029.0
 10
25.550105978130322
 20
-261.884685358239
 30
1029.0
 10
26.261175348083466
 20
-261.8075648716436
 30
1029.0
 10
26.966749415876045
 20
-261.68344984310875
 30
1029.0
 10
26.969661759565454
 20
-261.6829367190805
 30
1029.0
 10
26.972573966355956
 20
-261.68242279513686
 30
1029.0
 10
26.975486035951555
 20
-261.68190807132635
 30
1029.0
 10
26.97839796805659
 20
-261.6813925476979
 30
1029.0
 10
26.98130976237571
 20
-261.68087622430073
 30
1029.0
 10
26.984221418613878
 20
-261.68035910118465
 30
1029.0
 10
26.987132936476378
 20
-261.6798411783998
 30
1029.0
  0
SPLINE
  5
83
330
17
100
AcDbEntity
  8
0
100
AcDbSpline
 70
0
 71
8
 72
417
 73
408
 74
0
 40
0.0
 40
0.0
 40
0.0
 40
0.0
 40
0.0
 40
0.0
 40
0.0
 40
0.0
 40
0.0
 40
0.003150929225846568
 40
0.003150929225846568
 40
0.003150929225846568
 40
0.003150929225846568
 40
0.003150929225846568
 40
0.003150929225846568
 40
0.003150929225846568
 40
0.006442657945462695
 40
0.006442657945462695
 40
0.006442657945462695
 40
0.006442657945462695
 40
0.006442657945462695
 40
0.006442657945462695
 40
0.006442657945462695
 40
0.010063559537054968
 40
0.010063559537054968
 40
0.010063559537054968
 40
0.010063559537054968
 40
0.010063559537054968
 40
0.010063559537054968
 40
0.010063559537054968
 40
0.01236776964084875
 40
0.01236776964084875
 40
0.01236776964084875
 40
0.01236776964084875
 40
0.01236776964084875
 40
0.01236776964084875
 40
0.01236776964084875
 40
0.015659498360589094
 40
0.015659498360589094
 40
0.015659498360589094
 40
0.015659498360589094
 40
0.015659498360589094
 40
0.015659498360589094
 40
0.015659498360589094
 40
0.01928039995229584
 40
0.01928039995229584
 40
0.01928039995229584
 40
0.01928039995229584
 40
0.01928039995229584
 40
0.01928039995229584
 40
0.01928039995229584
 40
0.025679690749720617
 40
0.025679690749720617
 40
0.025679690749720617
 40
0.025679690749720617
 40
0.025679690749720617
 40
0.025679690749720617
 40
0.025679690749720617
 40
0.03628830950220162
 40
0.03628830950220162
 40
0.03628830950220162
 40
0.03628830950220162
 40
0.03628830950220162
 40
0.03628830950220162
 40
0.03628830950220162
 40
0.058861930950198024
 40
0.058861930950198024
 40
0.058861930950198024
 40
0.058861930950198024
 40
0.058861930950198024
 40
0.058861930950198024
 40
0.058861930950198024
 40
0.07406113893068585
 40
0.07406113893068585
 40
0.07406113893068585
 40
0.07406113893068585
 40
0.07406113893068585
 40
0.07406113893068585
 40
0.07406113893068585
 40
0.08204717885926396
 40
0.08204717885926396
 40
0.08204717885926396
 40
0.08204717885926396
 40
0.08204717885926396
 40
0.08204717885926396
 40
0.08204717885926396
 40
0.09182155558385748
 40
0.09182155558385748
 40
0.09182155558385748
 40
0.09182155558385748
 40
0.09182155558385748
 40
0.09182155558385748
 40
0.09182155558385748
 40
0.1376485099834009
 40
0.1376485099834009
 40
0.1376485099834009
 40
0.1376485099834009
 40
0.1376485099834009
 40
0.1376485099834009
 40
0.1376485099834009
 40
0.2568482884851221
 40
0.2568482884851221
 40
0.2568482884851221
 40
0.2568482884851221
 40
0.2568482884851221
 40
0.2568482884851221
 40
0.2568482884851221
 40
0.3405338540975153
 40
0.3405338540975153
 40
0.3405338540975153
 40
0.3405338540975153
 40
0.3405338540975153
 40
0.3405338540975153
 40
0.3405338540975153
 40
0.42433619994467353
 40
0.42433619994467353
 40
0.42433619994467353
 40
0.42433619994467353
 40
0.42433619994467353
 40
0.42433619994467353
 40
0.42433619994467353
 40
0.49334726836162957
 40
0.49334726836162957
 40
0.49334726836162957
 40
0.49334726836162957
 40
0.49334726836162957
 40
0.49334726836162957
 40
0.49334726836162957
 40
0.5549868278995083
 40
0.5549868278995083
 40
0.5549868278995083
 40
0.5549868278995083
 40
0.5549868278995083
 40
0.5549868278995083
 40
0.5549868278995083
 40
0.595649499511568
 40
0.595649499511568
 40
0.595649499511568
 40
0.595649499511568
 40
0.595649499511568
 40
0.595649499511568
 40
0.595649499511568
 40
0.6102049321499573
 40
0.6102049321499573
 40
0.6102049321499573
 40
0.6102049321499573
 40
0.6102049321499573
 40
0.6102049321499573
 40
0.6102049321499573
 40
0.6229421819390168
 40
0.6229421819390168
 40
0.6229421819390168
 40
0.6229421819390168
 40
0.6229421819390168
 40
0.6229421819390168
 40
0.6229421819390168
 40
0.6377264456034907
 40
0.6377264456034907
 40
0.6377264456034907
 40
0.6377264456034907
 40
0.6377264456034907
 40
0.6377264456034907
 40
0.6377264456034907
 40
0.6453348838536954
 40
0.6453348838536954
 40
0.6453348838536954
 40
0.6453348838536954
 40
0.6453348838536954
 40
0.6453348838536954
 40
0.6453348838536954
 40
0.6495360539164343
 40
0.6495360539164343
 40
0.6495360539164343
 40
0.6495360539164343
 40
0.6495360539164343
 40
0.6495360539164343
 40
0.6495360539164343
 40
0.6530915142433946
 40
0.6530915142433946
 40
0.6530915142433946
 40
0.6530915142433946
 40
0.6530915142433946
 40
0.6530915142433946
 40
0.6530915142433946
 40
0.6543138431477435
 40
0.6543138431477435
 40
0.6543138431477435
 40
0.6543138431477435
 40
0.6543138431477435
 40
0.6543138431477435
 40
0.6543138431477435
 40
0.6563510579883332
 40
0.6563510579883332
 40
0.6563510579883332
 40
0.6563510579883332
 40
0.6563510579883332
 40
0.6563510579883332
 40
0.6563510579883332
 40
0.6583882728289405
 40
0.6583882728289405
 40
0.6583882728289405
 40
0.6583882728289405
 40
0.6583882728289405
 40
0.6583882728289405
 40
0.6583882728289405
 40
0.6605507474435337
 40
0.6605507474435337
 40
0.6605507474435337
 40
0.6605507474435337
 40
0.6605507474435337
 40
0.6605507474435337
 40
0.6605507474435337
 40
0.6626060996043105
 40
0.6626060996043105
 40
0.6626060996043105
 40
0.6626060996043105
 40
0.6626060996043105
 40
0.6626060996043105
 40
0.6626060996043105
 40
0.6646425815548919
 40
0.6646425815548919
 40
0.6646425815548919
 40
0.6646425815548919
 40
0.6646425815548919
 40
0.6646425815548919
 40
0.6646425815548919
 40
0.6666790635054711
 40
0.6666790635054711
 40
0.6666790635054711
 40
0.6666790635054711
 40
0.6666790635054711
 40
0.6666790635054711
 40
0.6666790635054711
 40
0.6683761317976271
 40
0.6683761317976271
 40
0.6683761317976271
 40
0.6683761317976271
 40
0.6683761317976271
 40
0.6683761317976271
 40
0.6683761317976271
 40
0.6700732000897938
 40
0.6700732000897938
 40
0.6700732000897938
 40
0.6700732000897938
 40
0.6700732000897938
 40
0.6700732000897938
 40
0.6700732000897938
 40
0.6733724395831192
 40
0.6733724395831192
 40
0.6733724395831192
 40
0.6733724395831192
 40
0.6733724395831192
 40
0.6733724395831192
 40
0.6733724395831192
 40
0.6788419318373973
 40
0.6788419318373973
 40
0.6788419318373973
 40
0.6788419318373973
 40
0.6788419318373973
 40
0.6788419318373973
 40
0.6788419318373973
 40
0.6904802950288591
 40
0.6904802950288591
 40
0.6904802950288591
 40
0.6904802950288591
 40
0.6904802950288591
 40
0.6904802950288591
 40
0.6904802950288591
 40
0.6983166169989533
 40
0.6983166169989533
 40
0.6983166169989533
 40
0.6983166169989533
 40
0.6983166169989533
 40
0.6983166169989533
 40
0.6983166169989533
 40
0.7024340150065778
 40
0.7024340150065778
 40
0.7024340150065778
 40
0.7024340150065778
 40
0.7024340150065778
 40
0.7024340150065778
 40
0.7024340150065778
 40
0.7074734319816265
 40
0.7074734319816265
 40
0.7074734319816265
 40
0.7074734319816265
 40
0.7074734319816265
 40
0.7074734319816265
 40
0.7074734319816265
 40
0.7310951925027697
 40
0.7310951925027697
 40
0.7310951925027697
 40
0.7310951925027697
 40
0.7310951925027697
 40
0.7310951925027697
 40
0.7310951925027697
 40
0.7924569568384624
 40
0.7924569568384624
 40
0.7924569568384624
 40
0.7924569568384624
 40
0.7924569568384624
 40
0.7924569568384624
 40
0.7924569568384624
 40
0.8354402045880518
 40
0.8354402045880518
 40
0.8354402045880518
 40
0.8354402045880518
 40
0.8354402045880518
 40
0.8354402045880518
 40
0.8354402045880518
 40
0.8783807501776238
 40
0.8783807501776238
 40
0.8783807501776238
 40
0.8783807501776238
 40
0.8783807501776238
 40
0.8783807501776238
 40
0.8783807501776238
 40
0.9136791286445259
 40
0.9136791286445259
 40
0.9136791286445259
 40
0.9136791286445259
 40
0.9136791286445259
 40
0.9136791286445259
 40
0.9136791286445259
 40
0.9451700805641042
 40
0.9451700805641042
 40
0.9451700805641042
 40
0.9451700805641042
 40
0.9451700805641042
 40
0.9451700805641042
 40
0.9451700805641042
 40
0.9659298045356361
 40
0.9659298045356361
 40
0.9659298045356361
 40
0.9659298045356361
 40
0.9659298045356361
 40
0.9659298045356361
 40
0.9659298045356361
 40
0.9733595496211842
 40
0.9733595496211842
 40
0.9733595496211842
 40
0.9733595496211842
 40
0.9733595496211842
 40
0.9733595496211842
 40
0.9733595496211842
 40
0.9798612100033046
 40
0.9798612100033046
 40
0.9798612100033046
 40
0.9798612100033046
 40
0.9798612100033046
 40
0.9798612100033046
 40
0.9798612100033046
 40
0.987407775280072
 40
0.987407775280072
 40
0.987407775280072
 40
0.987407775280072
 40
0.987407775280072
 40
0.987407775280072
 40
0.987407775280072
 40
0.9912914980171994
 40
0.9912914980171994
 40
0.9912914980171994
 40
0.9912914980171994
 40
0.9912914980171994
 40
0.9912914980171994
 40
0.9912914980171994
 40
0.9934359979815152
 40
0.9934359979815152
 40
0.9934359979815152
 40
0.9934359979815152
 40
0.9934359979815152
 40
0.9934359979815152
 40
0.9934359979815152
 40
0.9952509463329592
 40
0.9952509463329592
 40
0.9952509463329592
 40
0.9952509463329592
 40
0.9952509463329592
 40
0.9952509463329592
 40
0.9952509463329592
 40
0.9958749391690572
 40
0.9958749391690572
 40
0.9958749391690572
 40
0.9958749391690572
 40
0.9958749391690572
 40
0.9958749391690572
 40
0.9958749391690572
 40
0.9969149272292215
 40
0.9969149272292215
 40
0.9969149272292215
 40
0.9969149272292215
 40
0.9969149272292215
 40
0.9969149272292215
 40
0.9969149272292215
 40
0.997954915289387
 40
0.997954915289387
 40
0.997954915289387
 40
0.997954915289387
 40
0.997954915289387
 40
0.997954915289387
 40
0.997954915289387
 40
0.9986829069315017
 40
0.9986829069315017
 40
0.9986829069315017
 40
0.9986829069315017
 40
0.9986829069315017
 40
0.9986829069315017
 40
0.9986829069315017
 40
1.0
 40
1.0
 40
1.0
 40
1.0
 40
1.0
 40
1.0
 40
1.0
 40
1.0
 40
1.0
 10
2.3034314423992046
 20
232.95372447609563
 30
1029.0
 10
2.303287734568977
 20
232.953868184025
 30
1029.0
 10
2.3033163713530533
 20
232.95366600092797
 30
1029.0
 10
2.3034070252721213
 20
232.95343363411078
 30
1029.0
 10
2.3034847184274994
 20
232.95332693534996
 30
1029.0
 10
2.3035098225011317
 20
232.95334190089292
 30
1029.0
 10
2.3034780587555956
 20
232.9533146714571
 30
1029.0
 10
2.303420498034094
 20
232.95292153223053
 30
1029.0
 10
2.30338586664356
 20
232.95038076697955
 30
1029.0
 10
2.303359617129482
 20
232.94845494615072
 30
1029.0
 10
2.3033223991574796
 20
232.9457244138643
 30
1029.0
 10
2.3032717996668075
 20
232.94201213359975
 30
1029.0
 10
2.303205405596724
 20
232.9371410688363
 30
1029.0
 10
2.303120803886485
 20
232.93093418305344
 30
1029.0
 10
2.3030155814753486
 20
232.92321443973057
 30
1029.0
 10
2.3027462435125168
 20
232.90345420122526
 30
1029.0
 10
2.3025772908708744
 20
232.89105882828966
 30
1029.0
 10
2.3023772555937954
 20
232.8763830479317
 30
1029.0
 10
2.3021429258974315
 20
232.85919122454243
 30
1029.0
 10
2.3018710899979338
 20
232.83924772251274
 30
1029.0
 10
2.3015585361114517
 20
232.81631690623362
 30
1029.0
 10
2.301202052454135
 20
232.79016314009607
 30
1029.0
 10
2.3005415748344875
 20
232.741706564742
 30
1029.0
 10
2.3002656320452055
 20
232.72146175679612
 30
1029.0
 10
2.299969771194442
 20
232.69975564112625
 30
1029.0
 10
2.299653164602358
 20
232.67652749420554
 30
1029.0
 10
2.2993149845891145
 20
232.6517165925072
 30
1029.0
 10
2.298954403474879
 20
232.62526221250488
 30
1029.0
 10
2.2985705935798215
 20
232.5971036306722
 30
1029.0
 10
2.2975800610016703
 20
232.52443225606933
 30
1029.0
 10
2.2969482999615534
 20
232.47808250017204
 30
1029.0
 10
2.2962650310430206
 20
232.42795381927027
 30
1029.0
 10
2.295527841185331
 20
232.37386917684353
 30
1029.0
 10
2.2947343173277415
 20
232.31565153637118
 30
1029.0
 10
2.293882046409508
 20
232.25312386133257
 30
1029.0
 10
2.292968615369887
 20
232.186109115207
 30
1029.0
 10
2.290916906504207
 20
232.0355835223673
 30
1029.0
 10
2.289765278309899
 20
231.95109321305543
 30
1029.0
 10
2.288533514781363
 20
231.86072369792933
 30
1029.0
 10
2.2872184041347485
 20
231.7642393413802
 30
1029.0
 10
2.2858167345862084
 20
231.66140450779898
 30
1029.0
 10
2.284325294351892
 20
231.55198356157666
 30
1029.0
 10
2.2827408716479503
 20
231.43574086710424
 30
1029.0
 10
2.278090067195171
 20
231.0945301285114
 30
1029.0
 10
2.275117578789845
 20
230.8764506597808
 30
1029.0
 10
2.2721435829088317
 20
230.6582605936428
 30
1029.0
 10
2.2691685126050967
 20
230.43999170145307
 30
1029.0
 10
2.2661926592422916
 20
230.22166535938308
 30
1029.0
 10
2.263216210521684
 20
230.00329533831214
 30
1029.0
 10
2.26023923270658
 20
229.78488649971712
 30
1029.0
 10
2.252325662911163
 20
229.20429984589936
 30
1029.0
 10
2.247388416484057
 20
228.84207401655382
 30
1029.0
 10
2.2424503248830288
 20
228.47978618023222
 30
1029.0
 10
2.237511599163729
 20
228.1174518211853
 30
1029.0
 10
2.232572386171854
 20
227.75508171292145
 30
1029.0
 10
2.2276327851644706
 20
227.39268313755684
 30
1029.0
 10
2.2226928468823424
 20
227.03025981767652
 30
1029.0
 10
2.2072404242627015
 20
225.89657798077513
 30
1029.0
 10
2.196726992676778
 20
225.12524996794733
 30
1029.0
 10
2.186212704501845
 20
224.35385911067033
 30
1029.0
 10
2.17569779482111
 20
223.58242265599134
 30
1029.0
 10
2.165182423163449
 20
222.81095230793156
 30
1029.0
 10
2.1546666938797423
 20
222.03945572232507
 30
1029.0
 10
2.1441506504149404
 20
221.26793608649277
 30
1029.0
 10
2.126553456390056
 20
219.97690103409346
 30
1029.0
 10
2.119247637068568
 20
219.44090257790805
 30
1029.0
 10
2.111712669988981
 20
218.88809247621435
 30
1029.0
 10
2.103944385382325
 20
218.31816480990443
 30
1029.0
 10
2.095938613479636
 20
217.73081365987053
 30
1029.0
 10
2.087691184511949
 20
217.12573310700515
 30
1029.0
 10
2.079197928710302
 20
216.5026172322008
 30
1029.0
 10
2.0658607551686545
 20
215.52412267688422
 30
1029.0
 10
2.061266842266932
 20
215.18708346907763
 30
1029.0
 10
2.056672891677931
 20
214.85004259639922
 30
1029.0
 10
2.052078883121047
 20
214.51300015531228
 30
1029.0
 10
2.0474848219577075
 20
214.17595623527518
 30
1029.0
 10
2.042890739191377
 20
213.83891091874074
 30
1029.0
 10
2.0382966914675515
 20
213.5018642811568
 30
1029.0
 10
2.028080098688265
 20
212.7522924013016
 30
1029.0
 10
2.022369756606087
 20
212.3333093949052
 30
1029.0
 10
2.0165730185271395
 20
211.90792778521052
 30
1029.0
 10
2.0106911681513364
 20
211.47620798565083
 30
1029.0
 10
2.0047254891785884
 20
211.03821040965929
 30
1029.0
 10
1.9986772653088039
 20
210.59399547066894
 30
1029.0
 10
1.9925477802418878
 20
210.14362358211247
 30
1029.0
 10
1.9572253864095284
 20
207.5470127961745
 30
1029.0
 10
1.928177035396633
 20
205.40683862211034
 30
1029.0
 10
1.8992264152346316
 20
203.26664147423688
 30
1029.0
 10
1.8703903274321867
 20
201.1264263464083
 30
1029.0
 10
1.8416811170497671
 20
198.9861966930741
 30
1029.0
 10
1.8131090971868251
 20
196.8459549098071
 30
1029.0
 10
1.7846818035514098
 20
194.70570221061126
 30
1029.0
 10
1.6828596059128968
 20
186.99843408951568
 30
1029.0
 10
1.6103402397606832
 20
181.43136480247392
 30
1029.0
 10
1.5389699908180035
 20
175.86424971144305
 30
1029.0
 10
1.4688253706678713
 20
170.2970965607497
 30
1029.0
 10
1.3999945986517117
 20
164.7299117221574
 30
1029.0
 10
1.3325642306252445
 20
159.16269799727888
 30
1029.0
 10
1.2666358495588619
 20
153.5954570386561
 30
1029.0
 10
1.1571774227726803
 20
144.11962425357197
 30
1029.0
 10
1.1128262672993419
 20
140.21104715008138
 30
1029.0
 10
1.0693140049227292
 20
136.30245775178554
 30
1029.0
 10
1.0266852080987003
 20
132.39385641558275
 30
1029.0
 10
0.9849896186808785
 20
128.48524341951662
 30
1029.0
 10
0.9442836950754068
 20
124.57661897029894
 30
1029.0
 10
0.9046321593957124
 20
120.66798321083247
 30
1029.0
 10
0.8275331728980001
 20
112.8452348665838
 30
1029.0
 10
0.7900912910020668
 20
108.93112229527081
 30
1029.0
 10
0.7537073364086345
 20
105.01700010038995
 30
1029.0
 10
0.7183149704213386
 20
101.10286972316523
 30
1029.0
 10
0.683856461849259
 20
97.18873249801578
 30
1029.0
 10
0.6502810706879039
 20
93.27458969112251
 30
1029.0
 10
0.6175434318001917
 20
89.36044253899432
 30
1029.0
 10
0.5592981812208113
 20
82.22299718590578
 30
1029.0
 10
0.5335343954609281
 20
78.99970004357384
 30
1029.0
 10
0.508287545171729
 20
75.77640154309239
 30
1029.0
 10
0.4835365217471348
 20
72.55310243769473
 30
1029.0
 10
0.45926182873240645
 20
69.32980355824178
 30
1029.0
 10
0.43544520175284657
 20
66.10650584433732
 30
1029.0
 10
0.4120691637598344
 20
62.88321039911053
 30
1029.0
 10
0.36861558500998753
 20
56.78092693183291
 30
1029.0
 10
0.3484524300714048
 20
53.90193842104033
 30
1029.0
 10
0.32861473180011025
 20
51.02295380018983
 30
1029.0
 10
0.30909045629137055
 20
48.143974168137646
 30
1029.0
 10
0.28986706606110435
 20
45.26500110568225
 30
1029.0
 10
0.2709313930190055
 20
42.386036705025305
 30
1029.0
 10
0.25226851302611514
 20
39.50708379287921
 30
1029.0
 10
0.22171280397690962
 20
34.728956007672444
 30
1029.0
 10
0.20967748764172
 20
32.829773001068745
 30
1029.0
 10
0.19774592967828475
 20
30.93059827535518
 30
1029.0
 10
0.18591158630529137
 20
29.03143315878259
 30
1029.0
 10
0.17416520465109742
 20
27.13228020783307
 30
1029.0
 10
0.1624955121538617
 20
25.233143071294364
 30
1029.0
 10
0.15088690898953544
 20
23.334027009038145
 30
1029.0
 10
0.13516357456336792
 20
20.755152984502075
 30
1029.0
 10
0.13102237562814922
 20
20.075368617055744
 30
1029.0
 10
0.12688565043675926
 20
19.395588511078643
 30
1029.0
 10
0.12274518265447165
 20
18.715813886853482
 30
1029.0
 10
0.11860550356803534
 20
18.036044838442592
 30
1029.0
 10
0.11446651994045842
 20
17.356282209079694
 30
1029.0
 10
0.1103270934749423
 20
16.676526891127452
 30
1029.0
 10
0.10256560918147296
 20
15.401943161803336
 30
1029.0
 10
0.09894343384934123
 20
14.80711289886252
 30
1029.0
 10
0.09532130197249408
 20
14.212289772108598
 30
1029.0
 10
0.09169921879670502
 20
13.617474642996912
 30
1029.0
 10
0.08807719109874354
 20
13.022668624401932
 30
1029.0
 10
0.08445522743826173
 20
12.427873121982303
 30
1029.0
 10
0.08083333860727838
 20
11.833089907994008
 30
1029.0
 10
0.073007675441421
 20
10.547966783958877
 30
1029.0
 10
0.06880395187948685
 20
9.857635211805452
 30
1029.0
 10
0.06460037050147938
 20
9.167326988936516
 30
1029.0
 10
0.06039695127185407
 20
8.477045393953858
 30
1029.0
 10
0.05619374074755079
 20
7.786798072367045
 30
1029.0
 10
0.05199080983774851
 20
7.096596668784208
 30
1029.0
 10
0.04778826274858944
 20
6.406458295893028
 30
1029.0
 10
0.0414238101407135
 20
5.361293810167204
 30
1029.0
 10
0.039261519848287074
 20
5.0062045101426165
 30
1029.0
 10
0.03709941195332295
 20
4.651145163311938
 30
1029.0
 10
0.034937511573739366
 20
4.296119894406019
 30
1029.0
 10
0.03277587948745553
 20
3.9411386843739074
 30
1029.0
 10
0.030614608646864716
 20
3.5862167978306942
 30
1029.0
 10
0.028453835980852216
 20
3.2313767210063027
 30
1029.0
 10
0.025101090031554255
 20
2.680791900635284
 30
1029.0
 10
0.023970252323614175
 20
2.4950867843782283
 30
1029.0
 10
0.022899416045127307
 20
2.319235047040144
 30
1029.0
 10
0.0218867088110622
 20
2.1529292072932185
 30
1029.0
 10
0.02093025823638667
 20
1.9958617838095385
 30
1029.0
 10
0.020028191936067766
 20
1.8477252952610892
 30
1029.0
 10
0.019178637525071762
 20
1.7082122603197545
 30
1029.0
 10
0.017703599011607896
 20
1.4659828080268085
 30
1029.0
 10
0.017027877851087947
 20
1.355016507758421
 30
1029.0
 10
0.01635251680088956
 20
1.244109344393621
 30
1029.0
 10
0.01567756970479861
 20
1.1332701603565738
 30
1029.0
 10
0.015003152086366267
 20
1.0225179264448911
 30
1029.0
 10
0.014329541226490328
 20
0.911898177816056
 30
1029.0
 10
0.013657086369469162
 20
0.8014682668437842
 30
1029.0
 10
0.012756029145741811
 20
0.6534974879143931
 30
1029.0
 10
0.012535123818493867
 20
0.6172206206059465
 30
1029.0
 10
0.012323601693511637
 20
0.5824846540433535
 30
1029.0
 10
0.012121228722666086
 20
0.5492511530605908
 30
1029.0
 10
0.01192777085782813
 20
0.5174816824916552
 30
1029.0
 10
0.01174299405086865
 20
0.4871378071705632
 30
1029.0
 10
0.011566664253658486
 20
0.45818109193135115
 30
1029.0
 10
0.011118352692084168
 20
0.38455978440242683
 30
1029.0
 10
0.010860971748379382
 20
0.34229292529658606
 30
1029.0
 10
0.010625321030800147
 20
0.3035945837071097
 30
1029.0
 10
0.010410316983192835
 20
0.26828681905060175
 30
1029.0
 10
0.010214876049404138
 20
0.23619169074371327
 30
1029.0
 10
0.010037914673281063
 20
0.2071312582031421
 30
1029.0
 10
0.00987834929867093
 20
0.18092758084563346
 30
1029.0
 10
0.009591843440170498
 20
0.1338778553301267
 30
1029.0
 10
0.009464902956280965
 20
0.11303180717219567
 30
1029.0
 10
0.009353191361598352
 20
0.09468663303073707
 30
1029.0
 10
0.00925562509996874
 20
0.078664392322351
 30
1029.0
 10
0.009171120615238695
 20
0.06478714446368729
 30
1029.0
 10
0.00909859435125528
 20
0.05287694887144515
 30
1029.0
 10
0.009036962751866051
 20
0.04275586496237337
 30
1029.0
 10
0.00893013554589095
 20
0.02521280059003672
 30
1029.0
 10
0.008880720066406722
 20
0.017097836544479605
 30
1029.0
 10
0.008840277672976016
 20
0.010456424274451592
 30
1029.0
 10
0.00881079761459036
 20
0.005615236544315394
 30
1029.0
 10
0.008792239688422854
 20
0.002567671205738975
 30
1029.0
 10
0.008782574625587958
 20
0.000980483531655807
 30
1029.0
 10
0.008778541097311798
 20
0.0003181012890109969
 30
1029.0
 10
0.008775844832916546
 20
-0.00012467674135763218
 30
1029.0
 10
0.008777560032410592
 20
4.97192498372101e-05
 30
1029.0
 10
0.008775074111149306
 20
0.00019842673069092598
 30
1029.0
 10
0.008776544061716685
 20
-6.702111082290685e-05
 30
1029.0
 10
0.008784395638257059
 20
-0.0011951864090100628
 30
1029.0
 10
0.008798408529199109
 20
-0.003609945967518513
 30
1029.0
 10
0.008822585027093044
 20
-0.007550954458938719
 30
1029.0
 10
0.008887878014312456
 20
-0.01827330807097382
 30
1029.0
 10
0.008930586962163454
 20
-0.025286931750295186
 30
1029.0
 10
0.008985381304315728
 20
-0.034285207637416146
 30
1029.0
 10
0.009054133425801832
 20
-0.04557561706031136
 30
1029.0
 10
0.00913871571165435
 20
-0.05946564134695466
 30
1029.0
 10
0.009241000546905909
 20
-0.0762627618253191
 30
1029.0
 10
0.009362860316589172
 20
-0.09627445982337691
 30
1029.0
 10
0.00964947449488429
 20
-0.1433419735147936
 30
1029.0
 10
0.009814228903496145
 20
-0.17039778920814036
 30
1029.0
 10
0.010002303016604954
 20
-0.20128314507712528
 30
1029.0
 10
0.010215569219243261
 20
-0.2363055224497259
 30
1029.0
 10
0.010455899896443625
 20
-0.2757724026539116
 30
1029.0
 10
0.010725167433238607
 20
-0.3199912670176437
 30
1029.0
 10
0.011025244214660777
 20
-0.3692695968688753
 30
1029.0
 10
0.011635301301645251
 20
-0.4694526040912876
 30
1029.0
 10
0.011935295553698592
 20
-0.5187173810463516
 30
1029.0
 10
0.012259068938057505
 20
-0.5718871449843366
 30
1029.0
 10
0.012607705010876075
 20
-0.6291398364887197
 30
1029.0
 10
0.012982287328307703
 20
-0.6906533961428615
 30
1029.0
 10
0.013383899446505101
 20
-0.7566057645300056
 30
1029.0
 10
0.013813624921620303
 20
-0.8271748822332795
 30
1029.0
 10
0.014731469697991882
 20
-0.9779024974385918
 30
1029.0
 10
0.015219588999248735
 20
-1.0580609949406912
 30
1029.0
 10
0.015737988769729667
 20
-1.1431921229255693
 30
1029.0
 10
0.016287752565588606
 20
-1.233473821976702
 30
1029.0
 10
0.016869963942978985
 20
-1.329084032677465
 30
1029.0
 10
0.01748570645805371
 20
-1.4302006956111322
 30
1029.0
 10
0.018136063666965185
 20
-1.537001751360876
 30
1029.0
 10
0.02015586702220057
 20
-1.868691979115841
 30
1029.0
 10
0.021490637904479137
 20
-2.0878868115213507
 30
1029.0
 10
0.022826078977688624
 20
-2.3071917020596153
 30
1029.0
 10
0.02416199770931282
 20
-2.5265750332164885
 30
1029.0
 10
0.02549826455900739
 20
-2.746015531998534
 30
1029.0
 10
0.026834796075368983
 20
-2.9654994940960435
 30
1029.0
 10
0.02817156280949079
 20
-3.185022083434646
 30
1029.0
 10
0.03172505648204288
 20
-3.7685735081411877
 30
1029.0
 10
0.0339420743647072
 20
-4.13265012209866
 30
1029.0
 10
0.03615946798419817
 20
-4.496788439216662
 30
1029.0
 10
0.03837714350546828
 20
-4.860973049969857
 30
1029.0
 10
0.04059503564775602
 20
-5.225193234027206
 30
1029.0
 10
0.042813100287037775
 20
-5.589441745393749
 30
1029.0
 10
0.04503131486135559
 20
-5.953714878938683
 30
1029.0
 10
0.0519700454896152
 20
-7.093186766858917
 30
1029.0
 10
0.056690982651807276
 20
-7.868454675232947
 30
1029.0
 10
0.061412300616823956
 20
-8.643785118700812
 30
1029.0
 10
0.0661338948764485
 20
-9.419160935001145
 30
1029.0
 10
0.07085569451000223
 20
-10.194570477617905
 30
1029.0
 10
0.0755776531270248
 20
-10.97000612836321
 30
1029.0
 10
0.08029975141523316
 20
-11.745464715770321
 30
1029.0
 10
0.08820155453961419
 20
-13.04309147295291
 30
1029.0
 10
0.09148214559020391
 20
-13.581827082991607
 30
1029.0
 10
0.09486563270917592
 20
-14.137460189644688
 30
1029.0
 10
0.09835388828156243
 20
-14.710298274240067
 30
1029.0
 10
0.10194878469239586
 20
-15.300648818105698
 30
1029.0
 10
0.10565219432670898
 20
-15.90881930256955
 30
1029.0
 10
0.10946598956953468
 20
-16.535117208959647
 30
1029.0
 10
0.11545488859439666
 20
-17.518608634701142
 30
1029.0
 10
0.11751777726817067
 20
-17.85736900978102
 30
1029.0
 10
0.11958066111352035
 20
-18.196131041827222
 30
1029.0
 10
0.1216435180628252
 20
-18.534894635280864
 30
1029.0
 10
0.12370635169455188
 20
-18.87365970104064
 30
1029.0
 10
0.1257691912332544
 20
-19.21242615646282
 30
1029.0
 10
0.1278320915495739
 20
-19.551193925361247
 30
1029.0
 10
0.13242015670514928
 20
-20.30459332102803
 30
1029.0
 10
0.13498506667400037
 20
-20.72571522018987
 30
1029.0
 10
0.13758994742710282
 20
-21.153267291778835
 30
1029.0
 10
0.1402348833247689
 20
-21.58718819208106
 30
1029.0
 10
0.14291995872731197
 20
-22.027416577382855
 30
1029.0
 10
0.14564525799504638
 20
-22.473891103970743
 30
1029.0
 10
0.14841086548828786
 20
-22.926550428131424
 30
1029.0
 10
0.1643697088859697
 20
-25.53583136244242
 30
1029.0
 10
0.1775873930774452
 20
-27.686359866474206
 30
1029.0
 10
0.19090271058226688
 20
-29.83690927791605
 30
1029.0
 10
0.20433229827384003
 20
-31.98747430364378
 30
1029.0
 10
0.21788840385114527
 20
-34.13805126808216
 30
1029.0
 10
0.2315812833180022
 20
-36.288637587567536
 30
1029.0
 10
0.2454184622950028
 20
-38.43923190764856
 30
1029.0
 10
0.2957450762456144
 20
-46.1764075092191
 30
1029.0
 10
0.3331048591436119
 20
-51.76302498094759
 30
1029.0
 10
0.3716077360793628
 20
-57.34966532640766
 30
1029.0
 10
0.4113307949316525
 20
-62.93631935617526
 30
1029.0
 10
0.45236295991166875
 20
-68.52297902944599
 30
1029.0
 10
0.49479199797128803
 20
-74.10963983851337
 30
1029.0
 10
0.538721080401366
 20
-79.69629813092445
 30
1029.0
 10
0.6161758451611917
 20
-89.19634183839538
 30
1029.0
 10
0.6488766262620786
 20
-93.10972883316357
 30
1029.0
 10
0.682413437068608
 20
-97.02311152359849
 30
1029.0
 10
0.7168314780585291
 20
-100.93648867367675
 30
1029.0
 10
0.7521812824139233
 20
-104.84985901928233
 30
1029.0
 10
0.7885203401556428
 20
-108.7632212294175
 30
1029.0
 10
0.8259147222777475
 20
-112.6765738674135
 30
1029.0
 10
0.9029284134431115
 20
-120.49936908657095
 30
1029.0
 10
0.9425479035768127
 20
-124.40881159728532
 30
1029.0
 10
0.9832243659447937
 20
-128.31824279784752
 30
1029.0
 10
1.0248928180732686
 20
-132.22766254608518
 30
1029.0
 10
1.0674965656185564
 20
-136.13707063663298
 30
1029.0
 10
1.1109856636327184
 20
-140.04646679347513
 30
1029.0
 10
1.1553153778291971
 20
-143.9558506624879
 30
1029.0
 10
1.2375422178659061
 20
-151.07883868344598
 30
1029.0
 10
1.27518013296959
 20
-154.2924469004302
 30
1029.0
 10
1.3133357664136078
 20
-157.50604622038978
 30
1029.0
 10
1.3519883466505644
 20
-160.7196362996699
 30
1029.0
 10
1.3911186557988806
 20
-163.9332166842012
 30
1029.0
 10
1.430708659683287
 20
-167.1467867855518
 30
1029.0
 10
1.4707410674484944
 20
-170.36034583433732
 30
1029.0
 10
1.547292636360323
 20
-176.4408135514949
 30
1029.0
 10
1.5837249874789379
 20
-179.3077244390141
 30
1029.0
 10
1.6204837015179085
 20
-182.17462494674172
 30
1029.0
 10
1.6575568594115433
 20
-185.04151420492374
 30
1029.0
 10
1.6949320012030964
 20
-187.90839086841893
 30
1029.0
 10
1.7325960017712818
 20
-190.77525308920272
 30
1029.0
 10
1.7705339334262233
 20
-193.64209831365065
 30
1029.0
 10
1.8339020137053028
 20
-198.39881409291698
 30
1029.0
 10
1.8591889209128574
 20
-200.28869568920555
 30
1029.0
 10
1.884579864654984
 20
-202.17856689407898
 30
1029.0
 10
1.910068274623216
 20
-204.06842650070408
 30
1029.0
 10
1.935644828001368
 20
-205.9582721220159
 30
1029.0
 10
1.961298143786581
 20
-207.84810031275725
 30
1029.0
 10
1.9870124497849808
 20
-209.7379060942386
 30
1029.0
 10
2.0219697295031915
 20
-212.30401641428483
 30
1029.0
 10
2.031186621216328
 20
-212.98034802990583
 30
1029.0
 10
2.0404079238871473
 20
-213.65667527232648
 30
1029.0
 10
2.049625357339557
 20
-214.33299708373318
 30
1029.0
 10
2.0588434726594613
 20
-215.00931327421966
 30
1029.0
 10
2.0680621597016757
 20
-215.68562300243696
 30
1029.0
 10
2.0772802568323927
 20
-216.36192539179254
 30
1029.0
 10
2.094564960076306
 20
-217.63003425770904
 30
1029.0
 10
2.102631484798331
 20
-218.2218425967233
 30
1029.0
 10
2.110697911769889
 20
-218.81364376418054
 30
1029.0
 10
2.1187642291911826
 20
-219.4054368943775
 30
1029.0
 10
2.126830421818515
 20
-219.99722086894542
 30
1029.0
 10
2.1348964703974223
 20
-220.58899427526228
 30
1029.0
 10
2.1429623506518447
 20
-221.18075533229154
 30
1029.0
 10
2.1603899772293955
 20
-222.45934990594478
 30
1029.0
 10
2.1697516093421076
 20
-223.14617504341143
 30
1029.0
 10
2.17911292162179
 20
-223.83297671602213
 30
1029.0
 10
2.188473869155512
 20
-224.519751628693
 30
1029.0
 10
2.197834347219327
 20
-225.20649209825288
 30
1029.0
 10
2.207194196310952
 20
-225.89318642266542
 30
1029.0
 10
2.216553182025182
 20
-226.57981740456395
 30
1029.0
 10
2.2307267015539542
 20
-227.6196712870428
 30
1029.0
 10
2.2355421008805823
 20
-227.97295768674854
 30
1029.0
 10
2.2403570899178322
 20
-228.32621398517972
 30
1029.0
 10
2.2451716121608585
 20
-228.67943603680436
 30
1029.0
 10
2.249985530898083
 20
-229.0326138116456
 30
1029.0
 10
2.2547986370474336
 20
-229.38573197019628
 30
1029.0
 10
2.259610622610619
 20
-229.73876791586625
 30
1029.0
 10
2.267077095480975
 20
-230.28655287406949
 30
1029.0
 10
2.2695954514262073
 20
-230.47131447839774
 30
1029.0
 10
2.271980185229618
 20
-230.6462727658663
 30
1029.0
 10
2.2742354666601727
 20
-230.81173365558283
 30
1029.0
 10
2.276365465486836
 20
-230.96800306665497
 30
1029.0
 10
2.278374351478572
 20
-231.11538691819044
 30
1029.0
 10
2.2802662944043455
 20
-231.2541911292969
 30
1029.0
 10
2.2835512234355066
 20
-231.49519310483203
 30
1029.0
 10
2.2850560777493336
 20
-231.60559818789005
 30
1029.0
 10
2.286560122038595
 20
-231.71594384271754
 30
1029.0
 10
2.2880632351828742
 20
-231.82622118319725
 30
1029.0
 10
2.289565157246031
 20
-231.93641113886764
 30
1029.0
 10
2.2910652647905616
 20
-232.04646797063359
 30
1029.0
 10
2.2925627723630524
 20
-232.1563340529525
 30
1029.0
 10
2.29456933177428
 20
-232.3035472126729
 30
1029.0
 10
2.2950612841033387
 20
-232.33963976811245
 30
1029.0
 10
2.2955323402038355
 20
-232.3741992516601
 30
1029.0
 10
2.2959830212968915
 20
-232.40726390320435
 30
1029.0
 10
2.2964138486036276
 20
-232.43887196263358
 30
1029.0
 10
2.296825343345164
 20
-232.4690616698364
 30
1029.0
 10
2.297218026742622
 20
-232.4978712647012
 30
1029.0
 10
2.298216408807952
 20
-232.57111852447483
 30
1029.0
 10
2.2987895917016767
 20
-232.61317063836225
 30
1029.0
 10
2.2993143817590385
 20
-232.6516723652993
 30
1029.0
 10
2.29979319204078
 20
-232.68680074180654
 30
1029.0
 10
2.300228435607644
 20
-232.71873280440457
 30
1029.0
 10
2.300622525520374
 20
-232.74764558961417
 30
1029.0
 10
2.300977874839715
 20
-232.77371613395596
 30
1029.0
 10
2.301615918413105
 20
-232.82052681394495
 30
1029.0
 10
2.301898612667154
 20
-232.84126694959227
 30
1029.0
 10
2.302147392449299
 20
-232.85951891741303
 30
1029.0
 10
2.302364670820286
 20
-232.87545975392788
 30
1029.0
 10
2.302552860840855
 20
-232.88926649565752
 30
1029.0
 10
2.302714375571752
 20
-232.9011161791225
 30
1029.0
 10
2.3028516280737197
 20
-232.9111858408435
 30
1029.0
 10
2.303047813741149
 20
-232.92557919088966
 30
1029.0
 10
2.3031178899823845
 20
-232.93072040167857
 30
1029.0
 10
2.303178087811045
 20
-232.9351368732347
 30
1029.0
 10
2.3032292349069636
 20
-232.93888932908462
 30
1029.0
 10
2.3032721589499765
 20
-232.9420384927548
 30
1029.0
 10
2.3033076876199186
 20
-232.94464508777182
 30
1029.0
 10
2.3033366485966242
 20
-232.94676983766232
 30
1029.0
 10
2.303401881264519
 20
-232.951555695038
 30
1029.0
 10
2.303542607207372
 20
-232.95259020762933
 30
1029.0
 10
2.3036205590225407
 20
-232.95272871854317
 30
1029.0
 10
2.3035601744729957
 20
-232.95274341701816
 30
1029.0
 10
2.3033718174506252
 20
-232.95302696671556
 30
1029.0
 10
2.303151777976235
 20
-232.95359250571943
 30
1029.0
 10
2.3030822721995476
 20
-232.95407364653633
 30
1029.0
 10
2.3034314423992046
 20
-232.95372447609563
 30
1029.0
  0
ENDSEC
  0
SECTION
  2
OBJECTS
  0
DICTIONARY
  5
A
330
0
100
AcDbDictionary
281
1
  3
ACAD_COLOR
350
B
  3
ACAD_GROUP
350
C
  3
ACAD_LAYOUT
350
D
  3
ACAD_MATERIAL
350
E
  3
ACAD_MLEADERSTYLE
350
F
  3
ACAD_MLINESTYLE
350
10
  3
ACAD_PLOTSETTINGS
350
11
  3
ACAD_PLOTSTYLENAME
350
12
  3
ACAD_SCALELIST
350
14
  3
ACAD_TABLESTYLE
350
15
  3
ACAD_VISUALSTYLE
350
16
  3
EZDXF_META
350
2D
  0
DICTIONARY
  5
B
330
A
100
AcDbDictionary
281
1
  0
DICTIONARY
  5
C
330
A
100
AcDbDictionary
281
1
  0
DICTIONARY
  5
D
330
A
100
AcDbDictionary
281
1
  3
Model
350
1A
  3
Layout1
350
1E
  0
DICTIONARY
  5
E
330
A
100
AcDbDictionary
281
1
  3
ByBlock
350
1F
  3
ByLayer
350
20
  3
Global
350
21
  0
DICTIONARY
  5
F
330
A
100
AcDbDictionary
281
1
  3
Standard
350
2C
  0
DICTIONARY
  5
10
330
A
100
AcDbDictionary
281
1
  3
Standard
350
22
  0
DICTIONARY
  5
11
330
A
100
AcDbDictionary
281
1
  0
ACDBDICTIONARYWDFLT
  5
12
330
A
100
AcDbDictionary
281
1
  3
Normal
350
13
100
AcDbDictionaryWithDefault
340
13
  0
ACDBPLACEHOLDER
  5
13
330
12
  0
DICTIONARY
  5
14
330
A
100
AcDbDictionary
281
1
  0
DICTIONARY
  5
15
330
A
100
AcDbDictionary
281
1
  0
DICTIONARY
  5
16
330
A
100
AcDbDictionary
281
1
  0
LAYOUT
  5
1A
330
D
100
AcDbPlotSettings
  1

  2
Adobe PDF
  4
A3
  6

 40
7.5
 41
20.0
 42
7.5
 43
20.0
 44
420.0
 45
297.0
 46
0.0
 47
0.0
 48
0.0
 49
0.0
140
0.0
141
0.0
142
1.0
143
1.0
 70
1024
 72
1
 73
1
 74
5
  7

 75
16
 76
0
 77
2
 78
300
147
1.0
148
0.0
149
0.0
100
AcDbLayout
  1
Model
 70
1
 71
0
 10
0.0
 20
0.0
 11
420.0
 21
297.0
 12
0.0
 22
0.0
 32
0.0
 14
1e+20
 24
1e+20
 34
1e+20
 15
-1e+20
 25
-1e+20
 35
-1e+20
146
0.0
 13
0.0
 23
0.0
 33
0.0
 16
1.0
 26
0.0
 36
0.0
 17
0.0
 27
1.0
 37
0.0
 76
1
330
17
  0
LAYOUT
  5
1E
330
D
100
AcDbPlotSettings
  1

  2
Adobe PDF
  4
A3
  6

 40
7.5
 41
20.0
 42
7.5
 43
20.0
 44
420.0
 45
297.0
 46
0.0
 47
0.0
 48
0.0
 49
0.0
140
0.0
141
0.0
142
1.0
143
1.0
 70
0
 72
1
 73
1
 74
5
  7

 75
16
 76
0
 77
2
 78
300
147
1.0
148
0.0
149
0.0
100
AcDbLayout
  1
Layout1
 70
1
 71
1
 10
0.0
 20
0.0
 11
420.0
 21
297.0
 12
0.0
 22
0.0
 32
0.0
 14
1e+20
 24
1e+20
 34
1e+20
 15
-1e+20
 25
-1e+20
 35
-1e+20
146
0.0
 13
0.0
 23
0.0
 33
0.0
 16
1.0
 26
0.0
 36
0.0
 17
0.0
 27
1.0
 37
0.0
 76
1
330
1B
  0
MATERIAL
  5
1F
102
{ACAD_REACTORS
330
E
102
}
330
E
100
AcDbMaterial
  1
ByBlock
  2

 70
0
 40
1.0
 71
1
 41
1.0
 91
-1023410177
 42
1.0
 72
1
  3

 73
1
 74
1
 75
1
 44
0.5
 73
0
 45
1.0
 46
1.0
 77
1
  4

 78
1
 79
1
170
1
 48
1.0
171
1
  6

172
1
173
1
174
1
140
1.0
141
1.0
175
1
  7

176
1
177
1
178
1
143
1.0
179
1
  8

270
1
271
1
272
1
145
1.0
146
1.0
273
1
  9

274
1
275
1
276
1
 42
1.0
 72
1
  3

 73
1
 74
1
 75
1
 94
63
  0
MATERIAL
  5
20
102
{ACAD_REACTORS
330
E
102
}
330
E
100
AcDbMaterial
  1
ByLayer
  2

 70
0
 40
1.0
 71
1
 41
1.0
 91
-1023410177
 42
1.0
 72
1
  3

 73
1
 74
1
 75
1
 44
0.5
 73
0
 45
1.0
 46
1.0
 77
1
  4

 78
1
 79
1
170
1
 48
1.0
171
1
  6

172
1
173
1
174
1
140
1.0
141
1.0
175
1
  7

176
1
177
1
178
1
143
1.0
179
1
  8

270
1
271
1
272
1
145
1.0
146
1.0
273
1
  9

274
1
275
1
276
1
 42
1.0
 72
1
  3

 73
1
 74
1
 75
1
 94
63
  0
MATERIAL
  5
21
102
{ACAD_REACTORS
330
E
102
}
330
E
100
AcDbMaterial
  1
Global
  2

 70
0
 40
1.0
 71
1
 41
1.0
 91
-1023410177
 42
1.0
 72
1
  3

 73
1
 74
1
 75
1
 44
0.5
 73
0
 45
1.0
 46
1.0
 77
1
  4

 78
1
 79
1
170
1
 48
1.0
171
1
  6

172
1
173
1
174
1
140
1.0
141
1.0
175
1
  7

176
1
177
1
178
1
143
1.0
179
1
  8

270
1
271
1
272
1
145
1.0
146
1.0
273
1
  9

274
1
275
1
276
1
 42
1.0
 72
1
  3

 73
1
 74
1
 75
1
 94
63
  0
MLINESTYLE
  5
22
102
{ACAD_REACTORS
330
10
102
}
330
10
100
AcDbMlineStyle
  2
Standard
 70
0
  3

 62
256
 51
90.0
 52
90.0
 71
2
 49
0.5
 62
256
  6
BYLAYER
 49
-0.5
 62
256
  6
BYLAYER
  0
MLEADERSTYLE
  5
2C
102
{ACAD_REACTORS
330
F
102
}
330
F
100
AcDbMLeaderStyle
179
2
170
2
171
1
172
0
 90
2
 40
0.0
 41
0.0
173
1
 91
-1056964608
 92
-2
290
1
 42
2.0
291
1
 43
8.0
  3
Standard
 44
4.0
300

342
29
174
1
175
1
176
0
178
1
 93
-1056964608
 45
4.0
292
0
297
0
 46
4.0
 94
-1056964608
 47
1.0
 49
1.0
140
1.0
294
1
141
0.0
177
0
142
1.0
295
0
296
0
143
3.75
271
0
272
9
273
9
  0
DICTIONARY
  5
2D
330
A
100
AcDbDictionary
280
1
281
1
  3
CREATED_BY_EZDXF
350
2E
  3
WRITTEN_BY_EZDXF
350
86
  0
DICTIONARYVAR
  5
2E
330
2D
100
DictionaryVariables
280
0
  1
0.17 @ 2022-02-15T16:36:50.136335+00:00
  0
DICTIONARYVAR
  5
86
330
2D
100
DictionaryVariables
280
0
  1
0.17 @ 2022-02-15T16:36:50.247511+00:00
  0
ENDSEC
  0
EOF
