  0
SECTION
  2
HEADER
  9
$ACADVER
  1
AC1027
  9
$ACADMAINTVER
 70
105
  9
$DWGCODEPAGE
  3
ANSI_1252
  9
$LASTSAVEDBY
  1
ezdxf
  9
$REQUIREDVERSIONS
160
0
  9
$INSBASE
 10
0.0
 20
0.0
 30
0.0
  9
$EXTMIN
 10
1e+20
 20
1e+20
 30
1e+20
  9
$EXTMAX
 10
-1e+20
 20
-1e+20
 30
-1e+20
  9
$LIMMIN
 10
0.0
 20
0.0
  9
$LIMMAX
 10
420.0
 20
297.0
  9
$ORTHOMODE
 70
0
  9
$REGENMODE
 70
1
  9
$FILLMODE
 70
1
  9
$QTEXTMODE
 70
0
  9
$MIRRTEXT
 70
1
  9
$LTSCALE
 40
1.0
  9
$ATTMODE
 70
1
  9
$TEXTSIZE
 40
2.5
  9
$TRACEWID
 40
1.0
  9
$TEXTSTYLE
  7
Standard
  9
$CLAYER
  8
0
  9
$CELTYPE
  6
ByLayer
  9
$CECOLOR
 62
256
  9
$CELTSCALE
 40
1.0
  9
$DISPSILH
 70
0
  9
$DIMSCALE
 40
1.0
  9
$DIMASZ
 40
2.5
  9
$DIMEXO
 40
0.625
  9
$DIMDLI
 40
3.75
  9
$DIMRND
 40
0.0
  9
$DIMDLE
 40
0.0
  9
$DIMEXE
 40
1.25
  9
$DIMTP
 40
0.0
  9
$DIMTM
 40
0.0
  9
$DIMTXT
 40
2.5
  9
$DIMCEN
 40
2.5
  9
$DIMTSZ
 40
0.0
  9
$DIMTOL
 70
0
  9
$DIMLIM
 70
0
  9
$DIMTIH
 70
0
  9
$DIMTOH
 70
0
  9
$DIMSE1
 70
0
  9
$DIMSE2
 70
0
  9
$DIMTAD
 70
1
  9
$DIMZIN
 70
8
  9
$DIMBLK
  1

  9
$DIMASO
 70
1
  9
$DIMSHO
 70
1
  9
$DIMPOST
  1

  9
$DIMAPOST
  1

  9
$DIMALT
 70
0
  9
$DIMALTD
 70
3
  9
$DIMALTF
 40
0.03937007874
  9
$DIMLFAC
 40
1.0
  9
$DIMTOFL
 70
1
  9
$DIMTVP
 40
0.0
  9
$DIMTIX
 70
0
  9
$DIMSOXD
 70
0
  9
$DIMSAH
 70
0
  9
$DIMBLK1
  1

  9
$DIMBLK2
  1

  9
$DIMSTYLE
  2
ISO-25
  9
$DIMCLRD
 70
0
  9
$DIMCLRE
 70
0
  9
$DIMCLRT
 70
0
  9
$DIMTFAC
 40
1.0
  9
$DIMGAP
 40
0.625
  9
$DIMJUST
 70
0
  9
$DIMSD1
 70
0
  9
$DIMSD2
 70
0
  9
$DIMTOLJ
 70
0
  9
$DIMTZIN
 70
8
  9
$DIMALTZ
 70
0
  9
$DIMALTTZ
 70
0
  9
$DIMUPT
 70
0
  9
$DIMDEC
 70
2
  9
$DIMTDEC
 70
2
  9
$DIMALTU
 70
2
  9
$DIMALTTD
 70
3
  9
$DIMTXSTY
  7
Standard
  9
$DIMAUNIT
 70
0
  9
$DIMADEC
 70
0
  9
$DIMALTRND
 40
0.0
  9
$DIMAZIN
 70
0
  9
$DIMDSEP
 70
44
  9
$DIMATFIT
 70
3
  9
$DIMFRAC
 70
0
  9
$DIMLDRBLK
  1

  9
$DIMLUNIT
 70
2
  9
$DIMLWD
 70
-2
  9
$DIMLWE
 70
-2
  9
$DIMTMOVE
 70
0
  9
$DIMFXL
 40
1.0
  9
$DIMFXLON
 70
0
  9
$DIMJOGANG
 40
0.785398163397
  9
$DIMTFILL
 70
0
  9
$DIMTFILLCLR
 70
0
  9
$DIMARCSYM
 70
0
  9
$DIMLTYPE
  6

  9
$DIMLTEX1
  6

  9
$DIMLTEX2
  6

  9
$DIMTXTDIRECTION
 70
0
  9
$LUNITS
 70
2
  9
$LUPREC
 70
4
  9
$SKETCHINC
 40
1.0
  9
$FILLETRAD
 40
10.0
  9
$AUNITS
 70
0
  9
$AUPREC
 70
2
  9
$MENU
  1
.
  9
$ELEVATION
 40
0.0
  9
$PELEVATION
 40
0.0
  9
$THICKNESS
 40
0.0
  9
$LIMCHECK
 70
0
  9
$CHAMFERA
 40
0.0
  9
$CHAMFERB
 40
0.0
  9
$CHAMFERC
 40
0.0
  9
$CHAMFERD
 40
0.0
  9
$SKPOLY
 70
0
  9
$TDCREATE
 40
2459626.7207523147
  9
$TDUCREATE
 40
2458532.153996898
  9
$TDUPDATE
 40
2459626.7207523147
  9
$TDUUPDATE
 40
2458532.1544311
  9
$TDINDWG
 40
0.0
  9
$TDUSRTIMER
 40
0.0
  9
$USRTIMER
 70
1
  9
$ANGBASE
 50
0.0
  9
$ANGDIR
 70
0
  9
$PDMODE
 70
0
  9
$PDSIZE
 40
0.0
  9
$PLINEWID
 40
0.0
  9
$SPLFRAME
 70
0
  9
$SPLINETYPE
 70
6
  9
$SPLINESEGS
 70
8
  9
$HANDSEED
  5
59
  9
$SURFTAB1
 70
6
  9
$SURFTAB2
 70
6
  9
$SURFTYPE
 70
6
  9
$SURFU
 70
6
  9
$SURFV
 70
6
  9
$UCSBASE
  2

  9
$UCSNAME
  2

  9
$UCSORG
 10
0.0
 20
0.0
 30
0.0
  9
$UCSXDIR
 10
1.0
 20
0.0
 30
0.0
  9
$UCSYDIR
 10
0.0
 20
1.0
 30
0.0
  9
$UCSORTHOREF
  2

  9
$UCSORTHOVIEW
 70
0
  9
$UCSORGTOP
 10
0.0
 20
0.0
 30
0.0
  9
$UCSORGBOTTOM
 10
0.0
 20
0.0
 30
0.0
  9
$UCSORGLEFT
 10
0.0
 20
0.0
 30
0.0
  9
$UCSORGRIGHT
 10
0.0
 20
0.0
 30
0.0
  9
$UCSORGFRONT
 10
0.0
 20
0.0
 30
0.0
  9
$UCSORGBACK
 10
0.0
 20
0.0
 30
0.0
  9
$PUCSBASE
  2

  9
$PUCSNAME
  2

  9
$PUCSORG
 10
0.0
 20
0.0
 30
0.0
  9
$PUCSXDIR
 10
1.0
 20
0.0
 30
0.0
  9
$PUCSYDIR
 10
0.0
 20
1.0
 30
0.0
  9
$PUCSORTHOREF
  2

  9
$PUCSORTHOVIEW
 70
0
  9
$PUCSORGTOP
 10
0.0
 20
0.0
 30
0.0
  9
$PUCSORGBOTTOM
 10
0.0
 20
0.0
 30
0.0
  9
$PUCSORGLEFT
 10
0.0
 20
0.0
 30
0.0
  9
$PUCSORGRIGHT
 10
0.0
 20
0.0
 30
0.0
  9
$PUCSORGFRONT
 10
0.0
 20
0.0
 30
0.0
  9
$PUCSORGBACK
 10
0.0
 20
0.0
 30
0.0
  9
$USERI1
 70
0
  9
$USERI2
 70
0
  9
$USERI3
 70
0
  9
$USERI4
 70
0
  9
$USERI5
 70
0
  9
$USERR1
 40
0.0
  9
$USERR2
 40
0.0
  9
$USERR3
 40
0.0
  9
$USERR4
 40
0.0
  9
$USERR5
 40
0.0
  9
$WORLDVIEW
 70
1
  9
$SHADEDGE
 70
3
  9
$SHADEDIF
 70
70
  9
$TILEMODE
 70
1
  9
$MAXACTVP
 70
64
  9
$PINSBASE
 10
0.0
 20
0.0
 30
0.0
  9
$PLIMCHECK
 70
0
  9
$PEXTMIN
 10
1e+20
 20
1e+20
 30
1e+20
  9
$PEXTMAX
 10
-1e+20
 20
-1e+20
 30
-1e+20
  9
$PLIMMIN
 10
0.0
 20
0.0
  9
$PLIMMAX
 10
420.0
 20
297.0
  9
$UNITMODE
 70
0
  9
$VISRETAIN
 70
1
  9
$PLINEGEN
 70
0
  9
$PSLTSCALE
 70
1
  9
$TREEDEPTH
 70
3020
  9
$CMLSTYLE
  2
Standard
  9
$CMLJUST
 70
0
  9
$CMLSCALE
 40
20.0
  9
$PROXYGRAPHICS
 70
1
  9
$MEASUREMENT
 70
1
  9
$CELWEIGHT
370
-1
  9
$ENDCAPS
280
0
  9
$JOINSTYLE
280
0
  9
$LWDISPLAY
290
0
  9
$INSUNITS
 70
6
  9
$HYPERLINKBASE
  1

  9
$STYLESHEET
  1

  9
$XEDIT
290
1
  9
$CEPSNTYPE
380
0
  9
$PSTYLEMODE
290
1
  9
$FINGERPRINTGUID
  2
{876AF72F-A98E-4378-BFF7-256B97E5F676}
  9
$VERSIONGUID
  2
{692E4004-D06B-4A58-8322-CF8B9657FB5E}
  9
$EXTNAMES
290
1
  9
$PSVPSCALE
 40
0.0
  9
$OLESTARTUP
290
0
  9
$SORTENTS
280
127
  9
$INDEXCTL
280
0
  9
$HIDETEXT
280
1
  9
$XCLIPFRAME
280
0
  9
$HALOGAP
280
0
  9
$OBSCOLOR
 70
257
  9
$OBSLTYPE
280
0
  9
$INTERSECTIONDISPLAY
280
0
  9
$INTERSECTIONCOLOR
 70
257
  9
$DIMASSOC
280
2
  9
$PROJECTNAME
  1

  9
$CAMERADISPLAY
290
0
  9
$LENSLENGTH
 40
50.0
  9
$CAMERAHEIGHT
 40
0.0
  9
$STEPSPERSEC
 40
24.0
  9
$STEPSIZE
 40
100.0
  9
$3DDWFPREC
 40
2.0
  9
$PSOLWIDTH
 40
0.005
  9
$PSOLHEIGHT
 40
0.08
  9
$LOFTANG1
 40
1.570796326795
  9
$LOFTANG2
 40
1.570796326795
  9
$LOFTMAG1
 40
0.0
  9
$LOFTMAG2
 40
0.0
  9
$LOFTPARAM
 70
7
  9
$LOFTNORMALS
280
1
  9
$LATITUDE
 40
37.795
  9
$LONGITUDE
 40
-122.394
  9
$NORTHDIRECTION
 40
0.0
  9
$TIMEZONE
 70
-8000
  9
$LIGHTGLYPHDISPLAY
280
1
  9
$TILEMODELIGHTSYNCH
280
1
  9
$CMATERIAL
347
20
  9
$SOLIDHIST
280
0
  9
$SHOWHIST
280
1
  9
$DWFFRAME
280
2
  9
$DGNFRAME
280
2
  9
$REALWORLDSCALE
290
1
  9
$INTERFERECOLOR
 62
256
  9
$CSHADOW
280
0
  9
$SHADOWPLANELOCATION
 40
0.0
  0
ENDSEC
  0
SECTION
  2
CLASSES
  0
CLASS
  1
ACDBDICTIONARYWDFLT
  2
AcDbDictionaryWithDefault
  3
ObjectDBX Classes
 90
0
 91
0
280
0
281
0
  0
CLASS
  1
SUN
  2
AcDbSun
  3
SCENEOE
 90
1153
 91
0
280
0
281
0
  0
CLASS
  1
VISUALSTYLE
  2
AcDbVisualStyle
  3
ObjectDBX Classes
 90
4095
 91
0
280
0
281
0
  0
CLASS
  1
MATERIAL
  2
AcDbMaterial
  3
ObjectDBX Classes
 90
1153
 91
0
280
0
281
0
  0
CLASS
  1
SCALE
  2
AcDbScale
  3
ObjectDBX Classes
 90
1153
 91
0
280
0
281
0
  0
CLASS
  1
TABLESTYLE
  2
AcDbTableStyle
  3
ObjectDBX Classes
 90
4095
 91
0
280
0
281
0
  0
CLASS
  1
MLEADERSTYLE
  2
AcDbMLeaderStyle
  3
ACDB_MLEADERSTYLE_CLASS
 90
4095
 91
0
280
0
281
0
  0
CLASS
  1
DICTIONARYVAR
  2
AcDbDictionaryVar
  3
ObjectDBX Classes
 90
0
 91
0
280
0
281
0
  0
CLASS
  1
CELLSTYLEMAP
  2
AcDbCellStyleMap
  3
ObjectDBX Classes
 90
1152
 91
0
280
0
281
0
  0
CLASS
  1
MENTALRAYRENDERSETTINGS
  2
AcDbMentalRayRenderSettings
  3
SCENEOE
 90
1024
 91
0
280
0
281
0
  0
CLASS
  1
ACDBDETAILVIEWSTYLE
  2
AcDbDetailViewStyle
  3
ObjectDBX Classes
 90
1025
 91
0
280
0
281
0
  0
CLASS
  1
ACDBSECTIONVIEWSTYLE
  2
AcDbSectionViewStyle
  3
ObjectDBX Classes
 90
1025
 91
0
280
0
281
0
  0
CLASS
  1
RASTERVARIABLES
  2
AcDbRasterVariables
  3
ISM
 90
0
 91
0
280
0
281
0
  0
CLASS
  1
ACDBPLACEHOLDER
  2
AcDbPlaceHolder
  3
ObjectDBX Classes
 90
0
 91
0
280
0
281
0
  0
CLASS
  1
LAYOUT
  2
AcDbLayout
  3
ObjectDBX Classes
 90
0
 91
0
280
0
281
0
  0
ENDSEC
  0
SECTION
  2
TABLES
  0
TABLE
  2
VPORT
  5
8
330
0
100
AcDbSymbolTable
 70
1
  0
VPORT
  5
23
330
8
100
AcDbSymbolTableRecord
100
AcDbViewportTableRecord
  2
*Active
 70
0
 10
0.0
 20
0.0
 11
1.0
 21
1.0
 12
344.2
 22
148.5
 13
0.0
 23
0.0
 14
0.5
 24
0.5
 15
0.5
 25
0.5
 16
0.0
 26
0.0
 36
1.0
 17
0.0
 27
0.0
 37
0.0
 40
297.0
 41
1.34
 42
50.0
 43
0.0
 44
0.0
 50
0.0
 51
0.0
 71
0
 72
1000
 73
1
 74
3
 75
0
 76
0
 77
0
 78
0
281
0
 65
0
146
0.0
  0
ENDTAB
  0
TABLE
  2
LTYPE
  5
2
330
0
100
AcDbSymbolTable
 70
3
  0
LTYPE
  5
24
330
2
100
AcDbSymbolTableRecord
100
AcDbLinetypeTableRecord
  2
ByBlock
 70
0
  3

 72
65
 73
0
 40
0.0
  0
LTYPE
  5
25
330
2
100
AcDbSymbolTableRecord
100
AcDbLinetypeTableRecord
  2
ByLayer
 70
0
  3

 72
65
 73
0
 40
0.0
  0
LTYPE
  5
26
330
2
100
AcDbSymbolTableRecord
100
AcDbLinetypeTableRecord
  2
Continuous
 70
0
  3

 72
65
 73
0
 40
0.0
  0
ENDTAB
  0
TABLE
  2
LAYER
  5
1
330
0
100
AcDbSymbolTable
 70
2
  0
LAYER
  5
27
330
1
100
AcDbSymbolTableRecord
100
AcDbLayerTableRecord
  2
0
 70
0
 62
7
  6
Continuous
370
-3
390
13
347
21
  0
LAYER
  5
28
330
1
100
AcDbSymbolTableRecord
100
AcDbLayerTableRecord
  2
Defpoints
 70
0
 62
7
  6
Continuous
290
0
370
-3
390
13
347
21
  0
ENDTAB
  0
TABLE
  2
STYLE
  5
5
330
0
100
AcDbSymbolTable
 70
1
  0
STYLE
  5
29
330
5
100
AcDbSymbolTableRecord
100
AcDbTextStyleTableRecord
  2
Standard
 70
0
 40
0.0
 41
1.0
 50
0.0
 71
0
 42
2.5
  3
txt
  4

  0
ENDTAB
  0
TABLE
  2
VIEW
  5
7
330
0
100
AcDbSymbolTable
 70
0
  0
ENDTAB
  0
TABLE
  2
UCS
  5
6
330
0
100
AcDbSymbolTable
 70
0
  0
ENDTAB
  0
TABLE
  2
APPID
  5
3
330
0
100
AcDbSymbolTable
 70
3
  0
APPID
  5
2A
330
3
100
AcDbSymbolTableRecord
100
AcDbRegAppTableRecord
  2
ACAD
 70
0
  0
APPID
  5
56
330
3
100
AcDbSymbolTableRecord
100
AcDbRegAppTableRecord
  2
HATCHBACKGROUNDCOLOR
 70
0
  0
APPID
  5
57
330
3
100
AcDbSymbolTableRecord
100
AcDbRegAppTableRecord
  2
EZDXF
 70
0
  0
ENDTAB
  0
TABLE
  2
DIMSTYLE
  5
4
330
0
100
AcDbSymbolTable
 70
1
100
AcDbDimStyleTable
  0
DIMSTYLE
105
2B
330
4
100
AcDbSymbolTableRecord
100
AcDbDimStyleTableRecord
  2
Standard
 70
0
 40
1.0
 41
2.5
 42
0.625
 43
3.75
 44
1.25
 45
0.0
 46
0.0
 47
0.0
 48
0.0
 49
2.5
140
2.5
141
2.5
142
0.0
143
0.03937007874
144
1.0
145
0.0
146
1.0
147
0.625
148
0.0
 69
0
 70
0
 71
0
 72
0
 73
0
 74
0
 75
0
 76
0
 77
1
 78
8
 79
0
170
0
171
3
172
1
173
0
174
0
175
0
176
0
177
0
178
0
179
0
271
0
272
2
273
2
274
3
275
0
276
0
277
2
278
44
279
0
280
0
281
0
282
0
283
0
284
8
285
0
286
0
288
0
289
3
290
0
371
-2
372
-2
  0
ENDTAB
  0
TABLE
  2
BLOCK_RECORD
  5
9
330
0
100
AcDbSymbolTable
 70
2
  0
BLOCK_RECORD
  5
17
330
9
100
AcDbSymbolTableRecord
100
AcDbBlockTableRecord
  2
*Model_Space
340
1A
 70
0
280
1
281
0
  0
BLOCK_RECORD
  5
1B
330
9
100
AcDbSymbolTableRecord
100
AcDbBlockTableRecord
  2
*Paper_Space
340
1E
 70
0
280
1
281
0
  0
ENDTAB
  0
ENDSEC
  0
SECTION
  2
BLOCKS
  0
BLOCK
  5
18
330
17
100
AcDbEntity
  8
0
100
AcDbBlockBegin
  2
*Model_Space
 70
0
 10
0.0
 20
0.0
 30
0.0
  3
*Model_Space
  1

  0
ENDBLK
  5
19
330
17
100
AcDbEntity
  8
0
100
AcDbBlockEnd
  0
BLOCK
  5
1C
330
1B
100
AcDbEntity
  8
0
100
AcDbBlockBegin
  2
*Paper_Space
 70
0
 10
0.0
 20
0.0
 30
0.0
  3
*Paper_Space
  1

  0
ENDBLK
  5
1D
330
1B
100
AcDbEntity
  8
0
100
AcDbBlockEnd
  0
ENDSEC
  0
SECTION
  2
ENTITIES
  0
SPLINE
  5
2F
330
17
100
AcDbEntity
  8
0
100
AcDbSpline
 70
0
 71
8
 72
130
 73
121
 74
0
 40
0.0
 40
0.0
 40
0.0
 40
0.0
 40
0.0
 40
0.0
 40
0.0
 40
0.0
 40
0.0
 40
0.06743136180853268
 40
0.06743136180853268
 40
0.06743136180853268
 40
0.06743136180853268
 40
0.06743136180853268
 40
0.06743136180853268
 40
0.06743136180853268
 40
0.1780709270794971
 40
0.1780709270794971
 40
0.1780709270794971
 40
0.1780709270794971
 40
0.1780709270794971
 40
0.1780709270794971
 40
0.1780709270794971
 40
0.2328088390941577
 40
0.2328088390941577
 40
0.2328088390941577
 40
0.2328088390941577
 40
0.2328088390941577
 40
0.2328088390941577
 40
0.2328088390941577
 40
0.2875467519121113
 40
0.2875467519121113
 40
0.2875467519121113
 40
0.2875467519121113
 40
0.2875467519121113
 40
0.2875467519121113
 40
0.2875467519121113
 40
0.47948273526670887
 40
0.47948273526670887
 40
0.47948273526670887
 40
0.47948273526670887
 40
0.47948273526670887
 40
0.47948273526670887
 40
0.47948273526670887
 40
0.5750220093704622
 40
0.5750220093704622
 40
0.5750220093704622
 40
0.5750220093704622
 40
0.5750220093704622
 40
0.5750220093704622
 40
0.5750220093704622
 40
0.6254761073632534
 40
0.6254761073632534
 40
0.6254761073632534
 40
0.6254761073632534
 40
0.6254761073632534
 40
0.6254761073632534
 40
0.6254761073632534
 40
0.6801948250328245
 40
0.6801948250328245
 40
0.6801948250328245
 40
0.6801948250328245
 40
0.6801948250328245
 40
0.6801948250328245
 40
0.6801948250328245
 40
0.7235546450653145
 40
0.7235546450653145
 40
0.7235546450653145
 40
0.7235546450653145
 40
0.7235546450653145
 40
0.7235546450653145
 40
0.7235546450653145
 40
0.7563003196219843
 40
0.7563003196219843
 40
0.7563003196219843
 40
0.7563003196219843
 40
0.7563003196219843
 40
0.7563003196219843
 40
0.7563003196219843
 40
0.8583722153127216
 40
0.8583722153127216
 40
0.8583722153127216
 40
0.8583722153127216
 40
0.8583722153127216
 40
0.8583722153127216
 40
0.8583722153127216
 40
0.9183141472075869
 40
0.9183141472075869
 40
0.9183141472075869
 40
0.9183141472075869
 40
0.9183141472075869
 40
0.9183141472075869
 40
0.9183141472075869
 40
0.9449459068118061
 40
0.9449459068118061
 40
0.9449459068118061
 40
0.9449459068118061
 40
0.9449459068118061
 40
0.9449459068118061
 40
0.9449459068118061
 40
0.9673960621917966
 40
0.9673960621917966
 40
0.9673960621917966
 40
0.9673960621917966
 40
0.9673960621917966
 40
0.9673960621917966
 40
0.9673960621917966
 40
0.9849235493991954
 40
0.9849235493991954
 40
0.9849235493991954
 40
0.9849235493991954
 40
0.9849235493991954
 40
0.9849235493991954
 40
0.9849235493991954
 40
0.9929290619719321
 40
0.9929290619719321
 40
0.9929290619719321
 40
0.9929290619719321
 40
0.9929290619719321
 40
0.9929290619719321
 40
0.9929290619719321
 40
1.0
 40
1.0
 40
1.0
 40
1.0
 40
1.0
 40
1.0
 40
1.0
 40
1.0
 40
1.0
 10
66.53803752748821
 20
105.89999999754713
 30
119.0
 10
66.48154682790178
 20
106.25850971720206
 30
119.0
 10
66.42414566580155
 20
106.61687427064976
 30
119.0
 10
66.36579912952381
 20
106.97508518806845
 30
119.0
 10
66.30646967550868
 20
107.3331332515568
 30
119.0
 10
66.24611677012676
 20
107.69100843899255
 30
119.0
 10
66.18469644830661
 20
108.0486998547887
 30
119.0
 10
66.12216076358229
 20
108.40619564345835
 30
119.0
 10
65.95393385278322
 20
109.34971017551646
 30
119.0
 10
65.84626805450239
 20
109.93536433856256
 30
119.0
 10
65.73522770736817
 20
110.52039207431298
 30
119.0
 10
65.62054576025446
 20
111.1047216442614
 30
119.0
 10
65.50191624167056
 20
111.68826214185299
 30
119.0
 10
65.37898097471272
 20
112.27090077503489
 30
119.0
 10
65.25130687817516
 20
112.85249815762506
 30
119.0
 10
65.05257656220397
 20
113.72002100891363
 30
119.0
 10
64.98631653488485
 20
114.00332976464713
 30
119.0
 10
64.91957116176879
 20
114.28276786102064
 30
119.0
 10
64.85233783313441
 20
114.55829528249205
 30
119.0
 10
64.78461393963369
 20
114.82987201365538
 30
119.0
 10
64.71639687229188
 20
115.09745803924092
 30
119.0
 10
64.64768402250759
 20
115.36101334411526
 30
119.0
 10
64.5092615405822
 20
115.87998248625513
 30
119.0
 10
64.43955198743167
 20
116.13539705985715
 30
119.0
 10
64.36934956343586
 20
116.38677505418309
 30
119.0
 10
64.29865970943403
 20
116.63414988929688
 30
119.0
 10
64.22748786626993
 20
116.87755498523028
 30
119.0
 10
64.15583947479183
 20
117.11702376198286
 30
119.0
 10
64.08371997585263
 20
117.35258963952215
 30
119.0
 10
63.75661825298739
 20
118.39671884259118
 30
119.0
 10
63.48373241039529
 20
119.20193136722992
 30
119.0
 10
63.189542280352384
 20
120.0000634842994
 30
119.0
 10
62.87059214865107
 20
120.78973114568964
 30
119.0
 10
62.52287037495131
 20
121.56802626974513
 30
119.0
 10
62.14120353510666
 20
122.33019497434819
 30
119.0
 10
61.71923670440475
 20
123.0696486536228
 30
119.0
 10
61.01133824322774
 20
124.1284689224273
 30
119.0
 10
60.76377749432417
 20
124.4719143632395
 30
119.0
 10
60.50272554931321
 20
124.80568300012922
 30
119.0
 10
60.22703379395995
 20
125.12793863499579
 30
119.0
 10
59.93565508591442
 20
125.43630483629748
 30
119.0
 10
59.62769833779167
 20
125.72792000780699
 30
119.0
 10
59.302588467776765
 20
125.99959423746489
 30
119.0
 10
58.7797517623667
 20
126.37945115165877
 30
119.0
 10
58.594350031134184
 20
126.50425855246039
 30
119.0
 10
58.40432789024029
 20
126.62208634409805
 30
119.0
 10
58.20983065625083
 20
126.73244985749609
 30
119.0
 10
58.0110658808712
 20
126.83491098898641
 30
119.0
 10
57.80831428783262
 20
126.92909886721867
 30
119.0
 10
57.60194143358664
 20
127.01473156484248
 30
119.0
 10
57.16516816717063
 20
127.17504671402855
 30
119.0
 10
56.93414371521042
 20
127.24821659750624
 30
119.0
 10
56.69993974329885
 20
127.31091349745624
 30
119.0
 10
56.463148695653615
 20
127.36311474484938
 30
119.0
 10
56.224347134843214
 20
127.40498091539993
 30
119.0
 10
55.98408988157234
 20
127.43682505844033
 30
119.0
 10
55.74290361274797
 20
127.45908024883654
 30
119.0
 10
55.3098141749584
 20
127.48271359544782
 30
119.0
 10
55.1180425958397
 20
127.48746828267392
 30
119.0
 10
54.92617223612597
 20
127.48678683234225
 30
119.0
 10
54.73437910301983
 20
127.4809558781732
 30
119.0
 10
54.542808615671376
 20
127.47027826220211
 30
119.0
 10
54.35157597104301
 20
127.45506251106272
 30
119.0
 10
54.160766415238555
 20
127.43561490523827
 30
119.0
 10
53.82669596718654
 20
127.39457680582865
 30
119.0
 10
53.68293543268942
 20
127.37464069242398
 30
119.0
 10
53.53918373960502
 20
127.35251793398521
 30
119.0
 10
53.395475235688856
 20
127.32846209684476
 30
119.0
 10
53.25189395957825
 20
127.3022388053414
 30
119.0
 10
53.1084706510771
 20
127.27415194866899
 30
119.0
 10
52.96528043475399
 20
127.24413774616497
 30
119.0
 10
52.37697375234102
 20
127.11305163164698
 30
119.0
 10
51.93558298501504
 20
126.99627128170717
 30
119.0
 10
51.49850458413789
 20
126.86365751996519
 30
119.0
 10
51.06603700278371
 20
126.71654976774354
 30
119.0
 10
50.63846711488797
 20
126.5560027232122
 30
119.0
 10
50.21605850983483
 20
126.38282359385192
 30
119.0
 10
49.79906406073404
 20
126.19754609554299
 30
119.0
 10
49.14624981376753
 20
125.88449345236997
 30
119.0
 10
48.906739994022004
 20
125.7645723291194
 30
119.0
 10
48.669313199287544
 20
125.64058719716465
 30
119.0
 10
48.434066887873655
 20
125.5125425920173
 30
119.0
 10
48.20114106366988
 20
125.38040029876706
 30
119.0
 10
47.970719865148794
 20
125.24407694527522
 30
119.0
 10
47.74304852958119
 20
125.10341698460347
 30
119.0
 10
47.41871886672575
 20
124.8935444826837
 30
119.0
 10
47.31956750373236
 20
124.8280681569256
 30
119.0
 10
47.22106607311818
 20
124.76164880095602
 30
119.0
 10
47.12325408709405
 20
124.69425375105503
 30
119.0
 10
47.02617963176816
 20
124.6258449389873
 30
119.0
 10
46.92990135249163
 20
124.55637632852857
 30
119.0
 10
46.834492210868895
 20
124.48578911735635
 30
119.0
 10
46.660427508275674
 20
124.35349157070571
 30
119.0
 10
46.58150151793081
 20
124.2921331760037
 30
119.0
 10
46.5033156479571
 20
124.2298791883116
 30
119.0
 10
46.42593894752082
 20
124.16667098526763
 30
119.0
 10
46.3494590650553
 20
124.1024432372102
 30
119.0
 10
46.273987937792086
 20
124.03711779444086
 30
119.0
 10
46.19967501516364
 20
123.97058987857518
 30
119.0
 10
46.069776178923235
 20
123.84970811705163
 30
119.0
 10
46.01368718933989
 20
123.79591191987782
 30
119.0
 10
45.958535802110795
 20
123.74122039169933
 30
119.0
 10
45.90443677119548
 20
123.68554154863136
 30
119.0
 10
45.85157541514711
 20
123.62876856285268
 30
119.0
 10
45.800200021138345
 20
123.57078452050413
 30
119.0
 10
45.75065370106285
 20
123.51143618318775
 30
119.0
 10
45.68199695813042
 20
123.42255223281705
 30
119.0
 10
45.66158427388099
 20
123.39512515781554
 30
119.0
 10
45.642296869797306
 20
123.36815149715842
 30
119.0
 10
45.624146355243965
 20
123.34164342904906
 30
119.0
 10
45.607144339584536
 20
123.31561313168802
 30
119.0
 10
45.59130243218158
 20
123.2900727832732
 30
119.0
 10
45.57663224239668
 20
123.26503456199971
 30
119.0
 10
45.55123299169142
 20
123.21884968578549
 30
119.0
 10
45.53989624211724
 20
123.19694750635203
 30
119.0
 10
45.52918565010262
 20
123.17477640514731
 30
119.0
 10
45.51918482781966
 20
123.15232011514831
 30
119.0
 10
45.51001048037771
 20
123.12957380492118
 30
119.0
 10
45.50181240582343
 20
123.1065440786213
 30
119.0
 10
45.49477349514068
 20
123.08324897599329
 30
119.0
 10
45.48910973225061
 20
123.05971797237102
 30
119.0
  0
LINE
  5
30
330
17
100
AcDbEntity
  8
0
100
AcDbLine
 10
53.912669853155194
 20
105.9
 30
119.0
 11
66.53803754305488
 21
105.9
 31
119.0
  0
SPLINE
  5
31
330
17
100
AcDbEntity
  8
0
100
AcDbSpline
 70
0
 71
1
 72
4
 73
2
 74
0
 40
0.0
 40
0.0
 40
1.0
 40
1.0
 10
53.912669852533284
 20
105.90000060000206
 30
119.0
 10
53.912669852533284
 20
102.09999939999993
 30
119.0
  0
LINE
  5
32
330
17
100
AcDbEntity
  8
0
100
AcDbLine
 10
53.912669853155194
 20
102.1
 30
119.0
 11
67.09526065925454
 21
102.1
 31
119.0
  0
SPLINE
  5
33
330
17
100
AcDbEntity
  8
0
100
AcDbSpline
 70
0
 71
8
 72
32
 73
23
 74
0
 40
0.0
 40
0.0
 40
0.0
 40
0.0
 40
0.0
 40
0.0
 40
0.0
 40
0.0
 40
0.0
 40
0.5243221807946434
 40
0.5243221807946434
 40
0.5243221807946434
 40
0.5243221807946434
 40
0.5243221807946434
 40
0.5243221807946434
 40
0.5243221807946434
 40
0.9383369527923373
 40
0.9383369527923373
 40
0.9383369527923373
 40
0.9383369527923373
 40
0.9383369527923373
 40
0.9383369527923373
 40
0.9383369527923373
 40
1.0
 40
1.0
 40
1.0
 40
1.0
 40
1.0
 40
1.0
 40
1.0
 40
1.0
 40
1.0
 10
69.33646341204337
 20
79.90000000035816
 30
119.0
 10
69.22556637566973
 20
81.35843178422112
 30
119.0
 10
69.11079163395071
 20
82.81656566114253
 30
119.0
 10
68.99186870227805
 20
84.27436667326162
 30
119.0
 10
68.86849337727375
 20
85.731794013821
 30
119.0
 10
68.7403198628989
 20
87.18880039888239
 30
119.0
 10
68.60694975258654
 20
88.64533119127842
 30
119.0
 10
68.46791533972515
 20
90.10132307489002
 30
119.0
 10
68.207948239398
 20
92.70589653575205
 30
119.0
 10
68.08936211945633
 20
93.85469441659366
 30
119.0
 10
67.96661569092488
 20
95.00305772102674
 30
119.0
 10
67.83939166541184
 20
96.15093622743409
 30
119.0
 10
67.70732784160303
 20
97.29826666777934
 30
119.0
 10
67.5700029745459
 20
98.44497108660156
 30
119.0
 10
67.42691349393766
 20
99.59095410419731
 30
119.0
 10
67.25517876178662
 20
100.90665611172108
 30
119.0
 10
67.23277492757808
 20
101.07719401370014
 30
119.0
 10
67.21022751173692
 20
101.24771246904282
 30
119.0
 10
67.18753440271242
 20
101.41821113146747
 30
119.0
 10
67.16469343074097
 20
101.58868962869494
 30
119.0
 10
67.1417023642194
 20
101.75914756186627
 30
119.0
 10
67.11855890603267
 20
101.92958450495647
 30
119.0
 10
67.0952606896997
 20
102.10000000416227
 30
119.0
  0
LINE
  5
34
330
17
100
AcDbEntity
  8
0
100
AcDbLine
 10
53.912669853155194
 20
79.9
 30
119.0
 11
69.33646340733333
 21
79.9
 31
119.0
  0
SPLINE
  5
35
330
17
100
AcDbEntity
  8
0
100
AcDbSpline
 70
0
 71
1
 72
4
 73
2
 74
0
 40
0.0
 40
0.0
 40
1.0
 40
1.0
 10
53.912669852533284
 20
79.90000060000001
 30
119.0
 10
53.912669852533284
 20
76.09999939999999
 30
119.0
  0
LINE
  5
36
330
17
100
AcDbEntity
  8
0
100
AcDbLine
 10
53.912669853155194
 20
76.1
 30
119.0
 11
69.61433316808969
 21
76.1
 31
119.0
  0
SPLINE
  5
37
330
17
100
AcDbEntity
  8
0
100
AcDbSpline
 70
0
 71
8
 72
32
 73
23
 74
0
 40
0.0
 40
0.0
 40
0.0
 40
0.0
 40
0.0
 40
0.0
 40
0.0
 40
0.0
 40
0.0
 40
0.29627941860489043
 40
0.29627941860489043
 40
0.29627941860489043
 40
0.29627941860489043
 40
0.29627941860489043
 40
0.29627941860489043
 40
0.29627941860489043
 40
0.476455779421288
 40
0.476455779421288
 40
0.476455779421288
 40
0.476455779421288
 40
0.476455779421288
 40
0.476455779421288
 40
0.476455779421288
 40
1.0
 40
1.0
 40
1.0
 40
1.0
 40
1.0
 40
1.0
 40
1.0
 40
1.0
 40
1.0
 10
70.8956018256307
 20
53.89999999838527
 30
119.0
 10
70.85695927751861
 20
54.72477267442997
 30
119.0
 10
70.81760458241484
 20
55.54951181379437
 30
119.0
 10
70.77753528651583
 20
56.37421657809608
 30
119.0
 10
70.73674885186115
 20
57.19888611542559
 30
119.0
 10
70.69524265633355
 20
58.023519560346095
 30
119.0
 10
70.6530139936589
 20
58.84811603389369
 30
119.0
 10
70.61006007340626
 20
59.672674643577224
 30
119.0
 10
70.53981366064586
 20
60.99860961661919
 30
119.0
 10
70.51299485222638
 20
61.49971989356059
 30
119.0
 10
70.48592229026666
 20
62.000525331412966
 30
119.0
 10
70.45859631927306
 20
62.50102425298944
 30
119.0
 10
70.43101693372114
 20
63.001213286705706
 30
119.0
 10
70.40318377805568
 20
63.50108736658017
 30
119.0
 10
70.37509614669055
 20
64.0006397322339
 30
119.0
 10
70.26439534870252
 20
65.95046785000014
 30
119.0
 10
70.1797135803467
 20
67.40092286972231
 30
119.0
 10
70.09257247503552
 20
68.85122348477067
 30
119.0
 10
70.0028252901975
 20
70.30136219031591
 30
119.0
 10
69.9103127765768
 20
71.7513274192876
 30
119.0
 10
69.81486004196915
 20
73.20110328996401
 30
119.0
 10
69.71627301710181
 20
74.65066931965347
 30
119.0
 10
69.61433314399883
 20
76.09999999830558
 30
119.0
  0
LINE
  5
38
330
17
100
AcDbEntity
  8
0
100
AcDbLine
 10
53.912669853155194
 20
53.9
 30
119.0
 11
70.8956018600947
 21
53.9
 31
119.0
  0
SPLINE
  5
39
330
17
100
AcDbEntity
  8
0
100
AcDbSpline
 70
0
 71
1
 72
4
 73
2
 74
0
 40
0.0
 40
0.0
 40
1.0
 40
1.0
 10
53.912669852533284
 20
53.90000060000026
 30
119.0
 10
53.912669852533284
 20
50.09999939999937
 30
119.0
  0
LINE
  5
3A
330
17
100
AcDbEntity
  8
0
100
AcDbLine
 10
53.912669853155194
 20
50.1
 30
119.0
 11
71.06703954535146
 21
50.1
 31
119.0
  0
SPLINE
  5
3B
330
17
100
AcDbEntity
  8
0
100
AcDbSpline
 70
0
 71
8
 72
25
 73
16
 74
0
 40
0.0
 40
0.0
 40
0.0
 40
0.0
 40
0.0
 40
0.0
 40
0.0
 40
0.0
 40
0.0
 40
0.9915634883506925
 40
0.9915634883506925
 40
0.9915634883506925
 40
0.9915634883506925
 40
0.9915634883506925
 40
0.9915634883506925
 40
0.9915634883506925
 40
1.0
 40
1.0
 40
1.0
 40
1.0
 40
1.0
 40
1.0
 40
1.0
 40
1.0
 40
1.0
 10
71.8109490398493
 20
27.900000000024537
 30
119.0
 10
71.74545206543289
 20
30.65240229781866
 30
119.0
 10
71.67248683628264
 20
33.404626001055945
 30
119.0
 10
71.59201513956323
 20
36.15664620926364
 30
119.0
 10
71.5039908098977
 20
38.90843736881614
 30
119.0
 10
71.4083594376692
 20
41.65997326413278
 30
119.0
 10
71.30505797489081
 20
44.41122700616515
 30
119.0
 10
71.19401423864372
 20
47.16217101817375
 30
119.0
 10
71.07413494906056
 20
49.936179977696455
 30
119.0
 10
71.07312301963506
 20
49.95958291199261
 30
119.0
 10
71.0721105237569
 20
49.982985821664414
 30
119.0
 10
71.07109746137583
 20
50.006388706693635
 30
119.0
 10
71.07008383244148
 20
50.029791567062055
 30
119.0
 10
71.06906963690348
 20
50.05319440275143
 30
119.0
 10
71.06805487471138
 20
50.076597213743526
 30
119.0
 10
71.06703954581468
 20
50.10000000002008
 30
119.0
  0
LINE
  5
3C
330
17
100
AcDbEntity
  8
0
100
AcDbLine
 10
53.912669853155194
 20
27.9
 30
119.0
 11
71.81094903881741
 21
27.9
 31
119.0
  0
SPLINE
  5
3D
330
17
100
AcDbEntity
  8
0
100
AcDbSpline
 70
0
 71
1
 72
4
 73
2
 74
0
 40
0.0
 40
0.0
 40
1.0
 40
1.0
 10
53.912669852533284
 20
27.900000600000002
 30
119.0
 10
53.912669852533284
 20
24.099999399999998
 30
119.0
  0
LINE
  5
3E
330
17
100
AcDbEntity
  8
0
100
AcDbLine
 10
53.912669853155194
 20
24.1
 30
119.0
 11
71.89515466750471
 21
24.1
 31
119.0
  0
SPLINE
  5
3F
330
17
100
AcDbEntity
  8
0
100
AcDbSpline
 70
0
 71
8
 72
25
 73
16
 74
0
 40
0.0
 40
0.0
 40
0.0
 40
0.0
 40
0.0
 40
0.0
 40
0.0
 40
0.0
 40
0.0
 40
0.1752774326429826
 40
0.1752774326429826
 40
0.1752774326429826
 40
0.1752774326429826
 40
0.1752774326429826
 40
0.1752774326429826
 40
0.1752774326429826
 40
1.0
 40
1.0
 40
1.0
 40
1.0
 40
1.0
 40
1.0
 40
1.0
 40
1.0
 40
1.0
 10
72.14056090287647
 20
1.8999999999964399
 30
119.0
 10
72.13977384036889
 20
2.3864316266502836
 30
119.0
 10
72.13875709824651
 20
2.872862880167398
 30
119.0
 10
72.1375107120888
 20
3.3592936334190333
 30
119.0
 10
72.13603472654162
 20
3.8457237592168507
 30
119.0
 10
72.13432918628583
 20
4.332153130292977
 30
119.0
 10
72.13239412072299
 20
4.818581619287486
 30
119.0
 10
72.13022952237822
 20
5.305009098743313
 30
119.0
 10
72.11657001514982
 20
8.080188624313351
 30
119.0
 10
72.1002224317757
 20
10.368915305927676
 30
119.0
 10
72.0787924546675
 20
12.657603028452579
 30
119.0
 10
72.05227643499151
 20
14.94623903148944
 30
119.0
 10
72.02066719597795
 20
17.23481025148635
 30
119.0
 10
71.98395400577826
 20
19.523303320589783
 30
119.0
 10
71.94212251651243
 20
21.81170456460155
 30
119.0
 10
71.89515466950616
 20
24.100000000041092
 30
119.0
  0
LINE
  5
40
330
17
100
AcDbEntity
  8
0
100
AcDbLine
 10
53.912669853155194
 20
1.9
 30
119.0
 11
72.14056090507934
 21
1.9
 31
119.0
  0
SPLINE
  5
41
330
17
100
AcDbEntity
  8
0
100
AcDbSpline
 70
0
 71
1
 72
4
 73
2
 74
0
 40
0.0
 40
0.0
 40
0.9999993684216398
 40
0.9999993684216398
 10
53.912669852533284
 20
1.9000006000000558
 30
119.0
 10
53.912669852533284
 20
-6.553790374438061e-17
 30
119.0
  0
SPLINE
  5
42
330
17
100
AcDbEntity
  8
0
100
AcDbSpline
 70
0
 71
1
 72
4
 73
2
 74
0
 40
0.0
 40
0.0
 40
1.0
 40
1.0
 10
53.912669852533284
 20
-1.9000006000000011
 30
119.0
 10
53.912669852533284
 20
1.2000000211287443e-06
 30
119.0
  0
LINE
  5
43
330
17
100
AcDbEntity
  8
0
100
AcDbLine
 10
53.9126698531548
 20
-1.9
 30
119.0
 11
72.14057615234988
 21
-1.9
 31
119.0
  0
SPLINE
  5
44
330
17
100
AcDbEntity
  8
0
100
AcDbSpline
 70
0
 71
8
 72
25
 73
16
 74
0
 40
0.0
 40
0.0
 40
0.0
 40
0.0
 40
0.0
 40
0.0
 40
0.0
 40
0.0
 40
0.0
 40
0.8341732215154983
 40
0.8341732215154983
 40
0.8341732215154983
 40
0.8341732215154983
 40
0.8341732215154983
 40
0.8341732215154983
 40
0.8341732215154983
 40
1.0
 40
1.0
 40
1.0
 40
1.0
 40
1.0
 40
1.0
 40
1.0
 40
1.0
 40
1.0
 10
71.89535711959223
 20
-24.10000000132847
 30
119.0
 10
71.94284181308919
 20
-21.78548326119712
 30
119.0
 10
71.98507241983415
 20
-19.470858683975223
 30
119.0
 10
72.02206752379617
 20
-17.156140620345624
 30
119.0
 10
72.05384183871686
 20
-14.841343000615739
 30
119.0
 10
72.0804063031377
 20
-12.526479338428826
 30
119.0
 10
72.10176813529836
 20
-10.211562733107128
 30
119.0
 10
72.11793084790634
 20
-7.896605870626823
 30
119.0
 10
72.1310736515696
 20
-5.121421067647658
 30
119.0
 10
72.13304757946912
 20
-4.661220132494909
 30
119.0
 10
72.13481605820516
 20
-4.201018326007304
 30
119.0
 10
72.13637909078005
 20
-3.740815756218361
 30
119.0
 10
72.13773665209118
 20
-3.2806125310020104
 30
119.0
 10
72.1388887050471
 20
-2.820408758114874
 30
119.0
 10
72.13983521217821
 20
-2.36020454523321
 30
119.0
 10
72.14057614274212
 20
-1.8999999999845336
 30
119.0
  0
LINE
  5
45
330
17
100
AcDbEntity
  8
0
100
AcDbLine
 10
53.9126698531548
 20
-24.1
 30
119.0
 11
71.89535705484025
 21
-24.1
 31
119.0
  0
SPLINE
  5
46
330
17
100
AcDbEntity
  8
0
100
AcDbSpline
 70
0
 71
1
 72
4
 73
2
 74
0
 40
0.0
 40
0.0
 40
1.0
 40
1.0
 10
53.912669852533284
 20
-27.900000600000034
 30
119.0
 10
53.912669852533284
 20
-24.099999399999938
 30
119.0
  0
LINE
  5
47
330
17
100
AcDbEntity
  8
0
100
AcDbLine
 10
53.9126698531548
 20
-27.9
 30
119.0
 11
71.81118735979214
 21
-27.9
 31
119.0
  0
SPLINE
  5
48
330
17
100
AcDbEntity
  8
0
100
AcDbSpline
 70
0
 71
8
 72
18
 73
9
 74
0
 40
0.0
 40
0.0
 40
0.0
 40
0.0
 40
0.0
 40
0.0
 40
0.0
 40
0.0
 40
0.0
 40
1.0
 40
1.0
 40
1.0
 40
1.0
 40
1.0
 40
1.0
 40
1.0
 40
1.0
 40
1.0
 10
71.06753939428545
 20
-50.10000000114783
 30
119.0
 10
71.1878482644423
 20
-47.326013783420784
 30
119.0
 10
71.30019784698247
 20
-44.551680144652366
 30
119.0
 10
71.40467225827197
 20
-41.777029131085506
 30
119.0
 10
71.50134551758393
 20
-39.00208984235995
 30
119.0
 10
71.59028220267308
 20
-36.22689045503364
 30
119.0
 10
71.67153798588808
 20
-33.451458242030995
 30
119.0
 10
71.74516005082162
 20
-30.675819588018395
 30
119.0
 10
71.81118738949857
 20
-27.900000000706605
 30
119.0
  0
LINE
  5
49
330
17
100
AcDbEntity
  8
0
100
AcDbLine
 10
53.9126698531548
 20
-50.1
 30
119.0
 11
71.06753936781976
 21
-50.1
 31
119.0
  0
SPLINE
  5
4A
330
17
100
AcDbEntity
  8
0
100
AcDbSpline
 70
0
 71
1
 72
4
 73
2
 74
0
 40
0.0
 40
0.0
 40
1.0
 40
1.0
 10
53.912669852533284
 20
-53.9000006
 30
119.0
 10
53.912669852533284
 20
-50.0999994
 30
119.0
  0
LINE
  5
4B
330
17
100
AcDbEntity
  8
0
100
AcDbLine
 10
53.9126698531548
 20
-53.9
 30
119.0
 11
70.8961593505837
 21
-53.9
 31
119.0
  0
SPLINE
  5
4C
330
17
100
AcDbEntity
  8
0
100
AcDbSpline
 70
0
 71
8
 72
39
 73
30
 74
0
 40
0.0
 40
0.0
 40
0.0
 40
0.0
 40
0.0
 40
0.0
 40
0.0
 40
0.0
 40
0.0
 40
0.3089717422438385
 40
0.3089717422438385
 40
0.3089717422438385
 40
0.3089717422438385
 40
0.3089717422438385
 40
0.3089717422438385
 40
0.3089717422438385
 40
0.465719377295764
 40
0.465719377295764
 40
0.465719377295764
 40
0.465719377295764
 40
0.465719377295764
 40
0.465719377295764
 40
0.465719377295764
 40
0.6228067559517892
 40
0.6228067559517892
 40
0.6228067559517892
 40
0.6228067559517892
 40
0.6228067559517892
 40
0.6228067559517892
 40
0.6228067559517892
 40
1.0
 40
1.0
 40
1.0
 40
1.0
 40
1.0
 40
1.0
 40
1.0
 40
1.0
 40
1.0
 10
69.61534497310615
 20
-76.10000000039881
 30
119.0
 10
69.67534353486495
 20
-75.2466677396435
 30
119.0
 10
69.7341801297371
 20
-74.39325290530398
 30
119.0
 10
69.79189938437048
 20
-73.539760532448
 30
119.0
 10
69.8485430088353
 20
-72.68619524535191
 30
119.0
 10
69.90415009922488
 20
-71.83256127843154
 30
119.0
 10
69.95875744025642
 20
-70.97886249717331
 30
119.0
 10
70.01239980787197
 20
-70.12510241906506
 30
119.0
 10
70.09185135990543
 20
-68.838124942293
 30
119.0
 10
70.11838204314645
 20
-68.40447365545387
 30
119.0
 10
70.14470407239872
 20
-67.9703571880717
 30
119.0
 10
70.17081919849758
 20
-67.53580235421803
 30
119.0
 10
70.19672917227751
 20
-67.10083596797404
 30
119.0
 10
70.22243574457197
 20
-66.6654848434304
 30
119.0
 10
70.24794066621332
 20
-66.2297757946874
 30
119.0
 10
70.29860555737434
 20
-65.35675037915811
 30
119.0
 10
70.32374532386658
 20
-64.91975227384502
 30
119.0
 10
70.34867038752131
 20
-64.48274176207046
 30
119.0
 10
70.37338490450747
 20
-64.04571920957882
 30
119.0
 10
70.39789178715114
 20
-63.608684905704145
 30
119.0
 10
70.42219270393565
 20
-63.17163906336995
 30
119.0
 10
70.44628807950157
 20
-62.73458181908945
 30
119.0
 10
70.52753864206565
 20
-61.24803797096683
 30
119.0
 10
70.58371304787005
 20
-60.19849809801235
 30
119.0
 10
70.63870649833184
 20
-59.14889538919142
 30
119.0
 10
70.69252493835975
 20
-58.0992315989441
 30
119.0
 10
70.74517407812586
 20
-57.049508461296035
 30
119.0
 10
70.79665939934071
 20
-55.999727690081535
 30
119.0
 10
70.84698616117703
 20
-54.94989097915462
 30
119.0
 10
70.89615940584189
 20
-53.90000000258809
 30
119.0
  0
LINE
  5
4D
330
17
100
AcDbEntity
  8
0
100
AcDbLine
 10
53.9126698531548
 20
-76.1
 30
119.0
 11
69.615344967434
 21
-76.1
 31
119.0
  0
SPLINE
  5
4E
330
17
100
AcDbEntity
  8
0
100
AcDbSpline
 70
0
 71
1
 72
4
 73
2
 74
0
 40
0.0
 40
0.0
 40
1.0
 40
1.0
 10
53.912669852533284
 20
-79.90000060000018
 30
119.0
 10
53.912669852533284
 20
-76.09999939999999
 30
119.0
  0
LINE
  5
4F
330
17
100
AcDbEntity
  8
0
100
AcDbLine
 10
53.9126698531548
 20
-79.9
 30
119.0
 11
69.33757218760319
 21
-79.9
 31
119.0
  0
SPLINE
  5
50
330
17
100
AcDbEntity
  8
0
100
AcDbSpline
 70
0
 71
8
 72
32
 73
23
 74
0
 40
0.0
 40
0.0
 40
0.0
 40
0.0
 40
0.0
 40
0.0
 40
0.0
 40
0.0
 40
0.0
 40
0.030072218589441122
 40
0.030072218589441122
 40
0.030072218589441122
 40
0.030072218589441122
 40
0.030072218589441122
 40
0.030072218589441122
 40
0.030072218589441122
 40
0.5396555693693228
 40
0.5396555693693228
 40
0.5396555693693228
 40
0.5396555693693228
 40
0.5396555693693228
 40
0.5396555693693228
 40
0.5396555693693228
 40
1.0
 40
1.0
 40
1.0
 40
1.0
 40
1.0
 40
1.0
 40
1.0
 40
1.0
 40
1.0
 10
67.09700313693634
 20
-102.09999999714357
 30
119.0
 10
67.1083628972786
 20
-102.01689033003133
 30
119.0
 10
67.11968585229316
 20
-101.93377555563617
 30
119.0
 10
67.1309722763718
 20
-101.85065572681017
 30
119.0
 10
67.14222243988165
 20
-101.76753089485496
 30
119.0
 10
67.15343660923874
 20
-101.68440110953266
 30
119.0
 10
67.1646150469724
 20
-101.60126641907553
 30
119.0
 10
67.17575801178018
 20
-101.51812687019398
 30
119.0
 10
67.37509007643413
 20
-100.02607473106383
 30
119.0
 10
67.55319883559831
 20
-98.6158123225789
 30
119.0
 10
67.72243500520202
 20
-97.20442880737194
 30
119.0
 10
67.8837436623925
 20
-95.79210537099317
 30
119.0
 10
68.03789035726219
 20
-94.37898475106941
 30
119.0
 10
68.1855161169037
 20
-92.96517762957346
 30
119.0
 10
68.3271621928272
 20
-91.55076550000481
 30
119.0
 10
68.58627891543267
 20
-88.857564314194
 30
119.0
 10
68.70476188437463
 20
-87.57888897856549
 30
119.0
 10
68.81909070838559
 20
-86.29982719236295
 30
119.0
 10
68.92956041273722
 20
-85.02042115653305
 30
119.0
 10
69.03642781443537
 20
-83.74070700318494
 30
119.0
 10
69.13991999855483
 20
-82.46071552762949
 30
119.0
 10
69.24024035886731
 20
-81.18047270638549
 30
119.0
 10
69.33757220276311
 20
-79.90000000115235
 30
119.0
  0
LINE
  5
51
330
17
100
AcDbEntity
  8
0
100
AcDbLine
 10
53.9126698531548
 20
-102.1
 30
119.0
 11
67.09700315783454
 21
-102.1
 31
119.0
  0
SPLINE
  5
52
330
17
100
AcDbEntity
  8
0
100
AcDbSpline
 70
0
 71
1
 72
4
 73
2
 74
0
 40
0.0
 40
0.0
 40
1.0
 40
1.0
 10
53.912669852533284
 20
-105.90000060000003
 30
119.0
 10
53.912669852533284
 20
-102.09999939999999
 30
119.0
  0
LINE
  5
53
330
17
100
AcDbEntity
  8
0
100
AcDbLine
 10
53.9126698531548
 20
-105.9
 30
119.0
 11
66.5398954928186
 21
-105.9
 31
119.0
  0
SPLINE
  5
54
330
17
100
AcDbEntity
  8
0
100
AcDbSpline
 70
0
 71
8
 72
130
 73
121
 74
0
 40
0.0
 40
0.0
 40
0.0
 40
0.0
 40
0.0
 40
0.0
 40
0.0
 40
0.0
 40
0.0
 40
0.0015934404376348138
 40
0.0015934404376348138
 40
0.0015934404376348138
 40
0.0015934404376348138
 40
0.0015934404376348138
 40
0.0015934404376348138
 40
0.0015934404376348138
 40
0.0044870876965353804
 40
0.0044870876965353804
 40
0.0044870876965353804
 40
0.0044870876965353804
 40
0.0044870876965353804
 40
0.0044870876965353804
 40
0.0044870876965353804
 40
0.01009956784115875
 40
0.01009956784115875
 40
0.01009956784115875
 40
0.01009956784115875
 40
0.01009956784115875
 40
0.01009956784115875
 40
0.01009956784115875
 40
0.017103945604346308
 40
0.017103945604346308
 40
0.017103945604346308
 40
0.017103945604346308
 40
0.017103945604346308
 40
0.017103945604346308
 40
0.017103945604346308
 40
0.029319175336535205
 40
0.029319175336535205
 40
0.029319175336535205
 40
0.029319175336535205
 40
0.029319175336535205
 40
0.029319175336535205
 40
0.029319175336535205
 40
0.035681554904192406
 40
0.035681554904192406
 40
0.035681554904192406
 40
0.035681554904192406
 40
0.035681554904192406
 40
0.035681554904192406
 40
0.035681554904192406
 40
0.03886084685236924
 40
0.03886084685236924
 40
0.03886084685236924
 40
0.03886084685236924
 40
0.03886084685236924
 40
0.03886084685236924
 40
0.03886084685236924
 40
0.04243755489239381
 40
0.04243755489239381
 40
0.04243755489239381
 40
0.04243755489239381
 40
0.04243755489239381
 40
0.04243755489239381
 40
0.04243755489239381
 40
0.05441745053845433
 40
0.05441745053845433
 40
0.05441745053845433
 40
0.05441745053845433
 40
0.05441745053845433
 40
0.05441745053845433
 40
0.05441745053845433
 40
0.0651913063391203
 40
0.0651913063391203
 40
0.0651913063391203
 40
0.0651913063391203
 40
0.0651913063391203
 40
0.0651913063391203
 40
0.0651913063391203
 40
0.07338796045012674
 40
0.07338796045012674
 40
0.07338796045012674
 40
0.07338796045012674
 40
0.07338796045012674
 40
0.07338796045012674
 40
0.07338796045012674
 40
0.08870180770285646
 40
0.08870180770285646
 40
0.08870180770285646
 40
0.08870180770285646
 40
0.08870180770285646
 40
0.08870180770285646
 40
0.08870180770285646
 40
0.10303341912255841
 40
0.10303341912255841
 40
0.10303341912255841
 40
0.10303341912255841
 40
0.10303341912255841
 40
0.10303341912255841
 40
0.10303341912255841
 40
0.11097364451378804
 40
0.11097364451378804
 40
0.11097364451378804
 40
0.11097364451378804
 40
0.11097364451378804
 40
0.11097364451378804
 40
0.11097364451378804
 40
0.11990607215310478
 40
0.11990607215310478
 40
0.11990607215310478
 40
0.11990607215310478
 40
0.11990607215310478
 40
0.11990607215310478
 40
0.11990607215310478
 40
0.1382573514710284
 40
0.1382573514710284
 40
0.1382573514710284
 40
0.1382573514710284
 40
0.1382573514710284
 40
0.1382573514710284
 40
0.1382573514710284
 40
0.14546719793467297
 40
0.14546719793467297
 40
0.14546719793467297
 40
0.14546719793467297
 40
0.14546719793467297
 40
0.14546719793467297
 40
0.14546719793467297
 40
0.14546719793467297
 40
0.14546719793467297
 10
45.48910973225062
 20
-123.05971797237103
 30
119.0
 10
45.49999434416293
 20
-123.10493982351628
 30
119.0
 10
45.51595351332381
 20
-123.14915790511697
 30
119.0
 10
45.53534515059957
 20
-123.19241234751598
 30
119.0
 10
45.557359859222224
 20
-123.23462582378022
 30
119.0
 10
45.58130053035737
 20
-123.27581478165034
 30
119.0
 10
45.606797014050834
 20
-123.31605542201498
 30
119.0
 10
45.63360408169632
 20
-123.35550878948906
 30
119.0
 10
45.712657683837605
 20
-123.46509451627686
 30
119.0
 10
45.767357077184954
 20
-123.53336296370777
 30
119.0
 10
45.82464474280506
 20
-123.59979473740152
 30
119.0
 10
45.88399028801109
 20
-123.66458499511013
 30
119.0
 10
45.94495036677269
 20
-123.72793604847477
 30
119.0
 10
46.00728010039599
 20
-123.78998574256043
 30
119.0
 10
46.070803821237675
 20
-123.85089071798922
 30
119.0
 10
46.260838916708174
 20
-124.02702567668348
 30
119.0
 10
46.39017112544521
 20
-124.13927255487485
 30
119.0
 10
46.52245337535358
 20
-124.24834615015249
 30
119.0
 10
46.6571808460152
 20
-124.35457676654278
 30
119.0
 10
46.79394974726715
 20
-124.45825323226276
 30
119.0
 10
46.9325171468043
 20
-124.55956188958244
 30
119.0
 10
47.072709448541005
 20
-124.65868050891328
 30
119.0
 10
47.39132182460224
 20
-124.87691987112555
 30
119.0
 10
47.570509405825774
 20
-124.99484369008185
 30
119.0
 10
47.75173361798691
 20
-125.10977361590867
 30
119.0
 10
47.934805058812294
 20
-125.22185076228979
 30
119.0
 10
48.11957918145883
 20
-125.33116962715629
 30
119.0
 10
48.305944121189334
 20
-125.43779612393533
 30
119.0
 10
48.49381823316115
 20
-125.54177120552473
 30
119.0
 10
49.01331568926135
 20
-125.81986647986122
 30
119.0
 10
49.34783953050313
 20
-125.98859250641965
 30
119.0
 10
49.68638932695005
 20
-126.14942334260664
 30
119.0
 10
50.02873065473084
 20
-126.30225922642144
 30
119.0
 10
50.37467334821375
 20
-126.44686688203612
 30
119.0
 10
50.72405835518933
 20
-126.58290484718685
 30
119.0
 10
51.07676036609028
 20
-126.70991593862718
 30
119.0
 10
51.61807541142112
 20
-126.88847089262924
 30
119.0
 10
51.80432475786284
 20
-126.9470110854044
 30
119.0
 10
51.99141825899484
 20
-127.0028574186388
 30
119.0
 10
52.17933423375563
 20
-127.0559160504787
 30
119.0
 10
52.36804732048585
 20
-127.10608231761402
 30
119.0
 10
52.557528529418136
 20
-127.15324043447488
 30
119.0
 10
52.747745295167036
 20
-127.19726319242793
 30
119.0
 10
53.03406269779783
 20
-127.25837373737572
 30
119.0
 10
53.129577098735204
 20
-127.2779050117584
 30
119.0
 10
53.22518739773162
 20
-127.29658741532009
 30
119.0
 10
53.32087626568927
 20
-127.31440282506962
 30
119.0
 10
53.416626378711875
 20
-127.33133306182542
 30
119.0
 10
53.51242041810464
 20
-127.34735989021523
 30
119.0
 10
53.60824107037436
 20
-127.36246501867633
 30
119.0
 10
53.81187986729354
 20
-127.39256583581944
 30
119.0
 10
53.91970272611031
 20
-127.40730922390735
 30
119.0
 10
54.0275318489062
 20
-127.42081266807926
 30
119.0
 10
54.13535948091826
 20
-127.43302857272067
 30
119.0
 10
54.24317786739391
 20
-127.44390934224243
 30
119.0
 10
54.35097925359112
 20
-127.45340738108077
 30
119.0
 10
54.458755884778256
 20
-127.46147509369726
 30
119.0
 10
54.92738026737773
 20
-127.49013685864224
 30
119.0
 10
55.28957691126887
 20
-127.49573154849695
 30
119.0
 10
55.65203704830696
 20
-127.48274320070074
 30
119.0
 10
56.01342737052526
 20
-127.44917486447602
 30
119.0
 10
56.372159192286524
 20
-127.3933219157832
 30
119.0
 10
56.72642583568316
 20
-127.3140444822868
 30
119.0
 10
57.07424248884488
 20
-127.21107140154152
 30
119.0
 10
57.71856326342927
 20
-126.97214912433036
 30
119.0
 10
58.0168963361285
 20
-126.84049412063457
 30
119.0
 10
58.30699046561629
 20
-126.69087748525348
 30
119.0
 10
58.58786840072624
 20
-126.52436796647484
 30
119.0
 10
58.85894822515569
 20
-126.34235435158213
 30
119.0
 10
59.119948149020765
 20
-126.14639000403521
 30
119.0
 10
59.37081092377595
 20
-125.93806649550888
 30
119.0
 10
59.79487450501569
 20
-125.55218882915274
 30
119.0
 10
59.97235958859204
 20
-125.3791391104756
 30
119.0
 10
60.14421901513297
 20
-125.20036927522995
 30
119.0
 10
60.310613504924774
 20
-125.0164484534899
 30
119.0
 10
60.47173389860935
 20
-124.82789923928738
 30
119.0
 10
60.62779039858396
 20
-124.63518781895112
 30
119.0
 10
60.77900576782556
 20
-124.43871779542863
 30
119.0
 10
61.199518504385814
 20
-123.86537212345743
 30
119.0
 10
61.45721824319979
 20
-123.4801418951146
 30
119.0
 10
61.700321043709
 20
-123.08526054478291
 30
119.0
 10
61.93020051821533
 20
-122.68246621774229
 30
119.0
 10
62.148059829520655
 20
-122.27315027332264
 30
119.0
 10
62.354978571273335
 20
-121.8583847405727
 30
119.0
 10
62.551941249335975
 20
-121.43893863960662
 30
119.0
 10
62.91570111123145
 20
-120.6188011164269
 30
119.0
 10
63.083562502544225
 20
-120.21876987819466
 30
119.0
 10
63.24413076291356
 20
-119.81568925363995
 30
119.0
 10
63.397995196493035
 20
-119.40997563073482
 30
119.0
 10
63.545664232901395
 20
-119.00197326939916
 30
119.0
 10
63.6875865450271
 20
-118.59196245392447
 30
119.0
 10
63.824164238524816
 20
-118.1801645141394
 30
119.0
 10
64.02866582678956
 20
-117.53769380404286
 30
119.0
 10
64.10111079830835
 20
-117.30479358177678
 30
119.0
 10
64.17308758157813
 20
-117.06800962054308
 30
119.0
 10
64.24459073062108
 20
-116.82730849233589
 30
119.0
 10
64.31561479946397
 20
-116.58265676911758
 30
119.0
 10
64.38615434213821
 20
-116.33402102281887
 30
119.0
 10
64.45620391267973
 20
-116.08136782533893
 30
119.0
 10
64.60400363161563
 20
-115.5358821991942
 30
119.0
 10
64.68162517588948
 20
-115.24192577197972
 30
119.0
 10
64.75861574141076
 20
-114.9428452295666
 30
119.0
 10
64.8349767121286
 20
-114.63869484340614
 30
119.0
 10
64.91071419013751
 20
-114.32953132166888
 30
119.0
 10
64.98583537333386
 20
-114.01541273717713
 30
119.0
 10
65.06034493307223
 20
-113.69639745533745
 30
119.0
 10
65.2860584128914
 20
-112.70719846941502
 30
119.0
 10
65.43099522723259
 20
-112.04028065698427
 30
119.0
 10
65.56985436235558
 20
-111.37204197806683
 30
119.0
 10
65.70325850324211
 20
-110.70268075145583
 30
119.0
 10
65.8317098043205
 20
-110.03235347288403
 30
119.0
 10
65.95563073973793
 20
-109.36118316530633
 30
119.0
 10
66.07538649192973
 20
-108.68926386803302
 30
119.0
 10
66.23682458187542
 20
-107.75240930619952
 30
119.0
 10
66.28176518980412
 20
-107.48805428811764
 30
119.0
 10
66.32612961559835
 20
-107.22360082758127
 30
119.0
 10
66.36993561138414
 20
-106.95905326463227
 30
119.0
 10
66.41319987623986
 20
-106.69441567918807
 30
119.0
 10
66.45593815436749
 20
-106.42969190640471
 30
119.0
 10
66.49816532328217
 20
-106.16488555045527
 30
119.0
 10
66.53989547202025
 20
-105.89999999672344
 30
119.0
  0
SPLINE
  5
55
330
17
100
AcDbEntity
  8
0
100
AcDbSpline
 70
0
 71
8
 72
368
 73
359
 74
0
 40
0.0
 40
0.0
 40
0.0
 40
0.0
 40
0.0
 40
0.0
 40
0.0
 40
0.0
 40
0.0
 40
0.0008727941076744224
 40
0.0008727941076744224
 40
0.0008727941076744224
 40
0.0008727941076744224
 40
0.0008727941076744224
 40
0.0008727941076744224
 40
0.0008727941076744224
 40
0.0030166002420101384
 40
0.0030166002420101384
 40
0.0030166002420101384
 40
0.0030166002420101384
 40
0.0030166002420101384
 40
0.0030166002420101384
 40
0.0030166002420101384
 40
0.004690180858920612
 40
0.004690180858920612
 40
0.004690180858920612
 40
0.004690180858920612
 40
0.004690180858920612
 40
0.004690180858920612
 40
0.004690180858920612
 40
0.006515905168283931
 40
0.006515905168283931
 40
0.006515905168283931
 40
0.006515905168283931
 40
0.006515905168283931
 40
0.006515905168283931
 40
0.006515905168283931
 40
0.009289117828901364
 40
0.009289117828901364
 40
0.009289117828901364
 40
0.009289117828901364
 40
0.009289117828901364
 40
0.009289117828901364
 40
0.009289117828901364
 40
0.013957310037524241
 40
0.013957310037524241
 40
0.013957310037524241
 40
0.013957310037524241
 40
0.013957310037524241
 40
0.013957310037524241
 40
0.013957310037524241
 40
0.02363519232293997
 40
0.02363519232293997
 40
0.02363519232293997
 40
0.02363519232293997
 40
0.02363519232293997
 40
0.02363519232293997
 40
0.02363519232293997
 40
0.04269184219073479
 40
0.04269184219073479
 40
0.04269184219073479
 40
0.04269184219073479
 40
0.04269184219073479
 40
0.04269184219073479
 40
0.04269184219073479
 40
0.05507169720360048
 40
0.05507169720360048
 40
0.05507169720360048
 40
0.05507169720360048
 40
0.05507169720360048
 40
0.05507169720360048
 40
0.05507169720360048
 40
0.06851753734735927
 40
0.06851753734735927
 40
0.06851753734735927
 40
0.06851753734735927
 40
0.06851753734735927
 40
0.06851753734735927
 40
0.06851753734735927
 40
0.11093909475657096
 40
0.11093909475657096
 40
0.11093909475657096
 40
0.11093909475657096
 40
0.11093909475657096
 40
0.11093909475657096
 40
0.11093909475657096
 40
0.17475170122791187
 40
0.17475170122791187
 40
0.17475170122791187
 40
0.17475170122791187
 40
0.17475170122791187
 40
0.17475170122791187
 40
0.17475170122791187
 40
0.22353323790360025
 40
0.22353323790360025
 40
0.22353323790360025
 40
0.22353323790360025
 40
0.22353323790360025
 40
0.22353323790360025
 40
0.22353323790360025
 40
0.3214836340653398
 40
0.3214836340653398
 40
0.3214836340653398
 40
0.3214836340653398
 40
0.3214836340653398
 40
0.3214836340653398
 40
0.3214836340653398
 40
0.3705102311551456
 40
0.3705102311551456
 40
0.3705102311551456
 40
0.3705102311551456
 40
0.3705102311551456
 40
0.3705102311551456
 40
0.3705102311551456
 40
0.39781586282929354
 40
0.39781586282929354
 40
0.39781586282929354
 40
0.39781586282929354
 40
0.39781586282929354
 40
0.39781586282929354
 40
0.39781586282929354
 40
0.40850302532181
 40
0.40850302532181
 40
0.40850302532181
 40
0.40850302532181
 40
0.40850302532181
 40
0.40850302532181
 40
0.40850302532181
 40
0.41883293386799325
 40
0.41883293386799325
 40
0.41883293386799325
 40
0.41883293386799325
 40
0.41883293386799325
 40
0.41883293386799325
 40
0.41883293386799325
 40
0.43079183209018784
 40
0.43079183209018784
 40
0.43079183209018784
 40
0.43079183209018784
 40
0.43079183209018784
 40
0.43079183209018784
 40
0.43079183209018784
 40
0.43692467851799155
 40
0.43692467851799155
 40
0.43692467851799155
 40
0.43692467851799155
 40
0.43692467851799155
 40
0.43692467851799155
 40
0.43692467851799155
 40
0.44030561331955387
 40
0.44030561331955387
 40
0.44030561331955387
 40
0.44030561331955387
 40
0.44030561331955387
 40
0.44030561331955387
 40
0.44030561331955387
 40
0.44317673517720363
 40
0.44317673517720363
 40
0.44317673517720363
 40
0.44317673517720363
 40
0.44317673517720363
 40
0.44317673517720363
 40
0.44317673517720363
 40
0.44516696443960085
 40
0.44516696443960085
 40
0.44516696443960085
 40
0.44516696443960085
 40
0.44516696443960085
 40
0.44516696443960085
 40
0.44516696443960085
 40
0.4467937506321118
 40
0.4467937506321118
 40
0.4467937506321118
 40
0.4467937506321118
 40
0.4467937506321118
 40
0.4467937506321118
 40
0.4467937506321118
 40
0.44796935540544375
 40
0.44796935540544375
 40
0.44796935540544375
 40
0.44796935540544375
 40
0.44796935540544375
 40
0.44796935540544375
 40
0.44796935540544375
 40
0.449247281783157
 40
0.449247281783157
 40
0.449247281783157
 40
0.449247281783157
 40
0.449247281783157
 40
0.449247281783157
 40
0.449247281783157
 40
0.4508728706854717
 40
0.4508728706854717
 40
0.4508728706854717
 40
0.4508728706854717
 40
0.4508728706854717
 40
0.4508728706854717
 40
0.4508728706854717
 40
0.4538679077065722
 40
0.4538679077065722
 40
0.4538679077065722
 40
0.4538679077065722
 40
0.4538679077065722
 40
0.4538679077065722
 40
0.4538679077065722
 40
0.45740563321774946
 40
0.45740563321774946
 40
0.45740563321774946
 40
0.45740563321774946
 40
0.45740563321774946
 40
0.45740563321774946
 40
0.45740563321774946
 40
0.4609433587289265
 40
0.4609433587289265
 40
0.4609433587289265
 40
0.4609433587289265
 40
0.4609433587289265
 40
0.4609433587289265
 40
0.4609433587289265
 40
0.46696464094110063
 40
0.46696464094110063
 40
0.46696464094110063
 40
0.46696464094110063
 40
0.46696464094110063
 40
0.46696464094110063
 40
0.46696464094110063
 40
0.47882662660635406
 40
0.47882662660635406
 40
0.47882662660635406
 40
0.47882662660635406
 40
0.47882662660635406
 40
0.47882662660635406
 40
0.47882662660635406
 40
0.5021839646567356
 40
0.5021839646567356
 40
0.5021839646567356
 40
0.5021839646567356
 40
0.5021839646567356
 40
0.5021839646567356
 40
0.5021839646567356
 40
0.5173577033499622
 40
0.5173577033499622
 40
0.5173577033499622
 40
0.5173577033499622
 40
0.5173577033499622
 40
0.5173577033499622
 40
0.5173577033499622
 40
0.5338380277241215
 40
0.5338380277241215
 40
0.5338380277241215
 40
0.5338380277241215
 40
0.5338380277241215
 40
0.5338380277241215
 40
0.5338380277241215
 40
0.5858344200530171
 40
0.5858344200530171
 40
0.5858344200530171
 40
0.5858344200530171
 40
0.5858344200530171
 40
0.5858344200530171
 40
0.5858344200530171
 40
0.6640550358242623
 40
0.6640550358242623
 40
0.6640550358242623
 40
0.6640550358242623
 40
0.6640550358242623
 40
0.6640550358242623
 40
0.6640550358242623
 40
0.7238562141984494
 40
0.7238562141984494
 40
0.7238562141984494
 40
0.7238562141984494
 40
0.7238562141984494
 40
0.7238562141984494
 40
0.7238562141984494
 40
0.8439500323987481
 40
0.8439500323987481
 40
0.8439500323987481
 40
0.8439500323987481
 40
0.8439500323987481
 40
0.8439500323987481
 40
0.8439500323987481
 40
0.9040661543995779
 40
0.9040661543995779
 40
0.9040661543995779
 40
0.9040661543995779
 40
0.9040661543995779
 40
0.9040661543995779
 40
0.9040661543995779
 40
0.9375493650866663
 40
0.9375493650866663
 40
0.9375493650866663
 40
0.9375493650866663
 40
0.9375493650866663
 40
0.9375493650866663
 40
0.9375493650866663
 40
0.950654470061738
 40
0.950654470061738
 40
0.950654470061738
 40
0.950654470061738
 40
0.950654470061738
 40
0.950654470061738
 40
0.950654470061738
 40
0.9633214917233438
 40
0.9633214917233438
 40
0.9633214917233438
 40
0.9633214917233438
 40
0.9633214917233438
 40
0.9633214917233438
 40
0.9633214917233438
 40
0.9779860513657767
 40
0.9779860513657767
 40
0.9779860513657767
 40
0.9779860513657767
 40
0.9779860513657767
 40
0.9779860513657767
 40
0.9779860513657767
 40
0.9855064247104881
 40
0.9855064247104881
 40
0.9855064247104881
 40
0.9855064247104881
 40
0.9855064247104881
 40
0.9855064247104881
 40
0.9855064247104881
 40
0.9896522744485993
 40
0.9896522744485993
 40
0.9896522744485993
 40
0.9896522744485993
 40
0.9896522744485993
 40
0.9896522744485993
 40
0.9896522744485993
 40
0.99317295157222
 40
0.99317295157222
 40
0.99317295157222
 40
0.99317295157222
 40
0.99317295157222
 40
0.99317295157222
 40
0.99317295157222
 40
0.9956134231574104
 40
0.9956134231574104
 40
0.9956134231574104
 40
0.9956134231574104
 40
0.9956134231574104
 40
0.9956134231574104
 40
0.9956134231574104
 40
0.9976081247839501
 40
0.9976081247839501
 40
0.9976081247839501
 40
0.9976081247839501
 40
0.9976081247839501
 40
0.9976081247839501
 40
0.9976081247839501
 40
0.9984489256364434
 40
0.9984489256364434
 40
0.9984489256364434
 40
0.9984489256364434
 40
0.9984489256364434
 40
0.9984489256364434
 40
0.9984489256364434
 40
1.0
 40
1.0
 40
1.0
 40
1.0
 40
1.0
 40
1.0
 40
1.0
 40
1.0
 40
1.0
 10
45.48910973225061
 20
123.0597179723711
 30
119.0
 10
45.48903251836897
 20
123.05980081750606
 30
119.0
 10
45.48904848929928
 20
123.05969132638475
 30
119.0
 10
45.48909767581329
 20
123.05956348655353
 30
119.0
 10
45.489139522786566
 20
123.05950408398851
 30
119.0
 10
45.48915288919862
 20
123.05951270309556
 30
119.0
 10
45.48913604813278
 20
123.0595017267104
 30
119.0
 10
45.48910668677627
 20
123.05929633609843
 30
119.0
 10
45.489090164640004
 20
123.05700889869415
 30
119.0
 10
45.48906480839115
 20
123.05349840640308
 30
119.0
 10
45.489016797413385
 20
123.04685143867373
 30
119.0
 10
45.48893907965617
 20
123.036091661523
 30
119.0
 10
45.48883698833581
 20
123.0219574417303
 30
119.0
 10
45.48871620477527
 20
123.00523534058625
 30
119.0
 10
45.488584600069
 20
122.98701508607827
 30
119.0
 10
45.48834503899909
 20
122.95384861516844
 30
119.0
 10
45.48822727303182
 20
122.9375442902247
 30
119.0
 10
45.488095865586786
 20
122.91935134591783
 30
119.0
 10
45.48794991517912
 20
122.89914497452367
 30
119.0
 10
45.48778852032394
 20
122.87680036831802
 30
119.0
 10
45.48761077953637
 20
122.85219271957669
 30
119.0
 10
45.487415791331536
 20
122.8251972205756
 30
119.0
 10
45.48697014101695
 20
122.76349834687962
 30
119.0
 10
45.48671602911589
 20
122.72831735951017
 30
119.0
 10
45.48643914814882
 20
122.68998406711152
 30
119.0
 10
45.48613832774316
 20
122.64833643531297
 30
119.0
 10
45.485812397526416
 20
122.60321242974373
 30
119.0
 10
45.48546018712599
 20
122.55445001603324
 30
119.0
 10
45.48508052616933
 20
122.50188715981088
 30
119.0
 10
45.484052078091295
 20
122.35950178277295
 30
119.0
 10
45.483429152026794
 20
122.27325964331983
 30
119.0
 10
45.48280442619156
 20
122.18676833132422
 30
119.0
 10
45.48217842450407
 20
122.10010038162149
 30
119.0
 10
45.48155149946375
 20
122.01330459663801
 30
119.0
 10
45.480923877013545
 20
121.92641225747687
 30
119.0
 10
45.48029563409574
 20
121.83943401653987
 30
119.0
 10
45.47860817041638
 20
121.60581001805598
 30
119.0
 10
45.477548148598075
 20
121.45905335674432
 30
119.0
 10
45.47648712003225
 20
121.31215731442073
 30
119.0
 10
45.47542534238113
 20
121.16515756361953
 30
119.0
 10
45.47436299395636
 20
121.0180787910187
 30
119.0
 10
45.47330019428881
 20
120.87093754527405
 30
119.0
 10
45.47223700198613
 20
120.72374194044734
 30
119.0
 10
45.468968492262434
 20
120.27122712779217
 30
119.0
 10
45.466762154201554
 20
119.96576661559708
 30
119.0
 10
45.4645548708804
 20
119.66017523514319
 30
119.0
 10
45.462346901204114
 20
119.35448883096922
 30
119.0
 10
45.46013842105119
 20
119.04873175291874
 30
119.0
 10
45.45792954554783
 20
118.74291993987644
 30
119.0
 10
45.455720322956736
 20
118.43706007362502
 30
119.0
 10
45.44915992239375
 20
117.52879340695375
 30
119.0
 10
45.444807982471865
 20
116.92628111696557
 30
119.0
 10
45.44045529553004
 20
116.32366540445508
 30
119.0
 10
45.43610206591228
 20
115.72097456016171
 30
119.0
 10
45.43174843239971
 20
115.11822779790842
 30
119.0
 10
45.4273944858704
 20
114.51543769950037
 30
119.0
 10
45.42304026456548
 20
113.91260955926529
 30
119.0
 10
45.41585694591555
 20
112.91810185761653
 30
119.0
 10
45.41302812310213
 20
112.52644629868853
 30
119.0
 10
45.410198581697905
 20
112.13477854606464
 30
119.0
 10
45.407370029710385
 20
111.74310080890321
 30
119.0
 10
45.40454297670837
 20
111.35141435979618
 30
119.0
 10
45.40171740451622
 20
110.95971996814562
 30
119.0
 10
45.398894140254974
 20
110.56801869858522
 30
119.0
 10
45.39300963788278
 20
109.75087485447241
 30
119.0
 10
45.3898817854794
 20
109.3161144901519
 30
119.0
 10
45.38669159151395
 20
108.87219202664673
 30
119.0
 10
45.38344087085585
 20
108.41926953325115
 30
119.0
 10
45.380131438374505
 20
107.9575090792598
 30
119.0
 10
45.376765108939324
 20
107.48707273396721
 30
119.0
 10
45.37334369741972
 20
107.00812256666819
 30
119.0
 10
45.35890642491314
 20
104.98338556232457
 30
119.0
 10
45.34800603958756
 20
103.44590043508843
 30
119.0
 10
45.337176769072485
 20
101.90837918752167
 30
119.0
 10
45.32642398814634
 20
100.37083002107124
 30
119.0
 10
45.31575210949366
 20
98.8332586972933
 30
119.0
 10
45.30516516936413
 20
97.29566931668657
 30
119.0
 10
45.29466672957538
 20
95.75806423062897
 30
119.0
 10
45.26860667402888
 20
91.90748134659201
 30
119.0
 10
45.25316137040176
 20
89.59448770168969
 30
119.0
 10
45.237936630437076
 20
87.28147083979344
 30
119.0
 10
45.222944224535055
 20
84.96843548148541
 30
119.0
 10
45.208196619287094
 20
82.65538515273767
 30
119.0
 10
45.1937074507133
 20
80.34232255888969
 30
119.0
 10
45.17949185640221
 20
78.02924965776229
 30
119.0
 10
45.15492236331761
 20
73.94793291534552
 30
119.0
 10
45.14444756457804
 20
72.1796929461777
 30
119.0
 10
45.13415048788994
 20
70.4114487608646
 30
119.0
 10
45.124039548024555
 20
68.64320105067618
 30
119.0
 10
45.11412403113507
 20
66.8749504422388
 30
119.0
 10
45.10441431218645
 20
65.10669751553584
 30
119.0
 10
45.094922072385515
 20
63.33844282190841
 30
119.0
 10
45.06706386880056
 20
58.01963520426169
 30
119.0
 10
45.04939935088498
 20
54.46907938802498
 30
119.0
 10
45.032559502032385
 20
50.918524167303474
 30
119.0
 10
45.016463009578004
 20
47.367974459946375
 30
119.0
 10
45.00104411930615
 20
43.81743648377273
 30
119.0
 10
44.98624795397191
 20
40.2669177634672
 30
119.0
 10
44.972027656033454
 20
36.71642814723109
 30
119.0
 10
44.95148789491701
 20
31.388898745699244
 30
119.0
 10
44.9447697840244
 20
29.611825958109762
 30
119.0
 10
44.93817938000687
 20
27.83476698046941
 30
119.0
 10
44.93171141427307
 20
26.05772421743027
 30
119.0
 10
44.92536039770917
 20
24.280701688341452
 30
119.0
 10
44.91912067680953
 20
22.503704971223137
 30
119.0
 10
44.912985865866524
 20
20.726741946538517
 30
119.0
 10
44.903582788143794
 20
17.960162651039017
 30
119.0
 10
44.90024872005766
 20
16.970515689832226
 30
119.0
 10
44.89694254777695
 20
15.980886027335778
 30
119.0
 10
44.89366243749482
 20
14.991276133887837
 30
119.0
 10
44.89040574687899
 20
14.001690955254421
 30
119.0
 10
44.88716925478347
 20
13.012137605289986
 30
119.0
 10
44.883948481885795
 20
12.022626385508126
 30
119.0
 10
44.87947626585488
 20
10.645914414656758
 30
119.0
 10
44.87825191593938
 20
10.268721387084028
 30
119.0
 10
44.87706097499671
 20
9.901617196276263
 30
119.0
 10
44.875900881222094
 20
9.54456324120126
 30
119.0
 10
44.874774891235774
 20
9.197458658353
 30
119.0
 10
44.87367959927497
 20
8.860145570414986
 30
119.0
 10
44.87261576203905
 20
8.532404661913276
 30
119.0
 10
44.870582859324614
 20
7.906155680740468
 30
119.0
 10
44.86958372699272
 20
7.59836642920969
 30
119.0
 10
44.868584639679966
 20
7.290591046114284
 30
119.0
 10
44.86758560285527
 20
6.982831216201335
 30
119.0
 10
44.86658662359896
 20
6.675089120607839
 30
119.0
 10
44.86558771086912
 20
6.367367518931483
 30
119.0
 10
44.864588875978896
 20
6.059669896251891
 30
119.0
 10
44.862433892435035
 20
5.395813116869828
 30
119.0
 10
44.86127779652928
 20
5.039670209506973
 30
119.0
 10
44.860121848150555
 20
4.683572748790592
 30
119.0
 10
44.85896606786344
 20
4.327527069812007
 30
119.0
 10
44.85781050446153
 20
3.9715482037383474
 30
119.0
 10
44.856655232440055
 20
3.6156590993048496
 30
119.0
 10
44.85550036143134
 20
3.2598935294850726
 30
119.0
 10
44.85375413680586
 20
2.721957609164999
 30
119.0
 10
44.85316237900416
 20
2.5396627468382214
 30
119.0
 10
44.85257081137571
 20
2.3574264686719655
 30
119.0
 10
44.85197946006673
 20
2.175256829086024
 30
119.0
 10
44.85138838901758
 20
1.9931735253748997
 30
119.0
 10
44.850797696195954
 20
1.811206737172693
 30
119.0
 10
44.850207525990406
 20
1.6294009442311683
 30
119.0
 10
44.84929320869228
 20
1.3477395187429337
 30
119.0
 10
44.84898540046791
 20
1.252917181435204
 30
119.0
 10
44.848694181231224
 20
1.1632051903103875
 30
119.0
 10
44.84841902510653
 20
1.0784415459216379
 30
119.0
 10
44.84815940621811
 20
0.9984642488221919
 30
119.0
 10
44.84791479869029
 20
0.9231112995653723
 30
119.0
 10
44.84768467664738
 20
0.8522206987045847
 30
119.0
 10
44.84728494702752
 20
0.7290813741284161
 30
119.0
 10
44.847101788721915
 20
0.6726582597944031
 30
119.0
 10
44.84691901580888
 20
0.6163538681841096
 30
119.0
 10
44.84673666622398
 20
0.5601798855484077
 30
119.0
 10
44.846554895913634
 20
0.5041843522243799
 30
119.0
 10
44.846373953834316
 20
0.44844396092302574
 30
119.0
 10
44.84619421270616
 20
0.3930735304533002
 30
119.0
 10
44.84589313015415
 20
0.30032308051598733
 30
119.0
 10
44.845780408863035
 20
0.2655985493181561
 30
119.0
 10
44.84567770311344
 20
0.23395937121916532
 30
119.0
 10
44.8455844870297
 20
0.20524354677236037
 30
119.0
 10
44.845500234736136
 20
0.17928907653104884
 30
119.0
 10
44.84542442035707
 20
0.15593396104850094
 30
119.0
 10
44.84535651801678
 20
0.1350162008779492
 30
119.0
 10
44.84524653674358
 20
0.10113575013635767
 30
119.0
 10
44.845198479948685
 20
0.08633154005969956
 30
119.0
 10
44.845152145188315
 20
0.07205781400526945
 30
119.0
 10
44.84510818764577
 20
0.058516405422068374
 30
119.0
 10
44.845067526605575
 20
0.04599050596616294
 30
119.0
 10
44.84503136822098
 20
0.03485167905170172
 30
119.0
 10
44.84500097191934
 20
0.025487899454766705
 30
119.0
 10
44.8449593388829
 20
0.012662570201726451
 30
119.0
 10
44.84494584176905
 20
0.008504695972477397
 30
119.0
 10
44.844935786750604
 20
0.005407181758120113
 30
119.0
 10
44.84492864795188
 20
0.0032080281119279764
 30
119.0
 10
44.844923899497225
 20
0.0017452355871786349
 30
119.0
 10
44.84492101551092
 20
0.0008568047371539937
 30
119.0
 10
44.844919470117276
 20
0.0003807361151402233
 30
119.0
 10
44.84491794099365
 20
-9.032041994672113e-05
 30
119.0
 10
44.84491837389945
 20
-3.948609840977365e-05
 30
119.0
 10
44.84491811110851
 20
9.744109627009475e-05
 30
119.0
 10
44.84491782956906
 20
0.00011676162896532916
 30
119.0
 10
44.844918762659084
 20
-0.00019172982350162168
 30
119.0
 10
44.844921663292325
 20
-0.0010416969105696086
 30
119.0
 10
44.844926775698774
 20
-0.002631268288670441
 30
119.0
 10
44.844945043407215
 20
-0.008258755387185346
 30
119.0
 10
44.844959951424
 20
-0.012851267493271479
 30
119.0
 10
44.84498042213332
 20
-0.01915740342597516
 30
119.0
 10
44.84500657628749
 20
-0.02721436172842573
 30
119.0
 10
44.8450377497075
 20
-0.036817537712373394
 30
119.0
 10
44.84507291403754
 20
-0.04765013963546849
 30
119.0
 10
44.84511107225278
 20
-0.05940502748500087
 30
119.0
 10
44.845225017355936
 20
-0.0945065619817651
 30
119.0
 10
44.845306315986626
 20
-0.11955113704669174
 30
119.0
 10
44.84539202447813
 20
-0.14595419861271886
 30
119.0
 10
44.84548042232197
 20
-0.17318573272113724
 30
119.0
 10
44.84557041520176
 20
-0.20090862809587584
 30
119.0
 10
44.84566141162973
 20
-0.22894067309558253
 30
119.0
 10
44.845753377038214
 20
-0.25727121883292803
 30
119.0
 10
44.84595689342114
 20
-0.3199657720697644
 30
119.0
 10
44.8460770725857
 20
-0.3569877499665129
 30
119.0
 10
44.84620774536061
 20
-0.3972423531864462
 30
119.0
 10
44.84634943762156
 20
-0.44089158117623956
 30
119.0
 10
44.84650267524423
 20
-0.4880974333825968
 30
119.0
 10
44.84666798410434
 20
-0.5390219092522506
 30
119.0
 10
44.846845890077574
 20
-0.593827008231962
 30
119.0
 10
44.847227948001645
 20
-0.7115224513050719
 30
119.0
 10
44.8474320999525
 20
-0.7744127953983124
 30
119.0
 10
44.84764990076782
 20
-0.8415077614950216
 30
119.0
 10
44.84788187632334
 20
-0.9129693490419544
 30
119.0
 10
44.848128552494735
 20
-0.988959557485842
 30
119.0
 10
44.848390455157706
 20
-1.0696403862733908
 30
119.0
 10
44.84866811018792
 20
-1.1551738348512828
 30
119.0
 10
44.84946232398979
 20
-1.3998365925588718
 30
119.0
 10
44.84996339660072
 20
-1.5541952885616368
 30
119.0
 10
44.85046500634491
 20
-1.708719451965619
 30
119.0
 10
44.85096700640369
 20
-1.8633638543467868
 30
119.0
 10
44.851469296864124
 20
-2.018097716851674
 30
119.0
 10
44.851971812270854
 20
-2.172900875525805
 30
119.0
 10
44.852474525012035
 20
-2.327764824386197
 30
119.0
 10
44.85396816255483
 20
-2.787889641368187
 30
119.0
 10
44.854959521397575
 20
-3.0932842187004326
 30
119.0
 10
44.855951305168
 20
-3.398809697809794
 30
119.0
 10
44.85694339747863
 20
-3.70443022472233
 30
119.0
 10
44.857935719266564
 20
-4.010121443623161
 30
119.0
 10
44.85892821877911
 20
-4.315867411768288
 30
119.0
 10
44.859920874319286
 20
-4.621661445230371
 30
119.0
 10
44.86286861521361
 20
-5.529732312928221
 30
119.0
 10
44.864824043090564
 20
-6.132114663561175
 30
119.0
 10
44.86677980677964
 20
-6.734600463271406
 30
119.0
 10
44.868735814420496
 20
-7.337161413980439
 30
119.0
 10
44.87069200362647
 20
-7.939778297010216
 30
119.0
 10
44.872648333544966
 20
-8.542438527392555
 30
119.0
 10
44.874604786984555
 20
-9.145136809312081
 30
119.0
 10
44.87783242083757
 20
-10.139430534098246
 30
119.0
 10
44.87910362449553
 20
-10.531001967283697
 30
119.0
 10
44.880374237114346
 20
-10.922585603845707
 30
119.0
 10
44.881645943885125
 20
-11.314179216519946
 30
119.0
 10
44.88291924114346
 20
-11.705781527208222
 30
119.0
 10
44.884194102649026
 20
-12.097391766532414
 30
119.0
 10
44.885471344520276
 20
-12.489008861033657
 30
119.0
 10
44.8881410770619
 20
-13.305977809753978
 30
119.0
 10
44.889564497591124
 20
-13.74064581446087
 30
119.0
 10
44.89102149168613
 20
-14.18447435947487
 30
119.0
 10
44.892512177968094
 20
-14.637301480273022
 30
119.0
 10
44.894036675058175
 20
-15.098965212332503
 30
119.0
 10
44.895595101577555
 20
-15.569303591130598
 30
119.0
 10
44.89718757614741
 20
-16.048154652144696
 30
119.0
 10
44.90394636614097
 20
-18.07250668675009
 30
119.0
 10
44.909141260518055
 20
-19.609706349083584
 30
119.0
 10
44.914407662081786
 20
-21.146941398234958
 30
119.0
 10
44.91975085926843
 20
-22.68420357419106
 30
119.0
 10
44.925175203452426
 20
-24.221487067611776
 30
119.0
 10
44.930684686620424
 20
-25.758787734689342
 30
119.0
 10
44.93628284420218
 20
-27.29610318625687
 30
119.0
 10
44.950533636357946
 20
-31.146108212685842
 30
119.0
 10
44.95930278558164
 20
-33.4588124264061
 30
119.0
 10
44.96829278093514
 20
-35.77153755996488
 30
119.0
 10
44.97751533673877
 20
-38.08427876816343
 30
119.0
 10
44.98698287431651
 20
-40.397032393370125
 30
119.0
 10
44.99670899101853
 20
-42.70979558684232
 30
119.0
 10
45.00670879085297
 20
-45.02256623255612
 30
119.0
 10
45.02486699736696
 20
-49.10350518956489
 30
119.0
 10
45.03290450118653
 20
-50.871670891077756
 30
119.0
 10
45.04111978720097
 20
-52.6398389539487
 30
119.0
 10
45.04952125648494
 20
-54.408008598813446
 30
119.0
 10
45.05811818082231
 20
-56.17617910196244
 30
119.0
 10
45.06692091942582
 20
-57.944349775074095
 30
119.0
 10
45.07594113565673
 20
-59.71251994494813
 30
119.0
 10
45.10376979601342
 20
-65.03155817695999
 30
119.0
 10
45.12327986794854
 20
-68.58242180920652
 30
119.0
 10
45.143614594812725
 20
-72.13327623673216
 30
119.0
 10
45.164692541379
 20
-75.68411739121144
 30
119.0
 10
45.18644784155963
 20
-79.23493974355434
 30
119.0
 10
45.208825505891525
 20
-82.7857363457753
 30
119.0
 10
45.231778551459406
 20
-86.33649784495498
 30
119.0
 10
45.26701851707564
 20
-91.66461005654058
 30
119.0
 10
45.278907308768595
 20
-93.44199791306995
 30
119.0
 10
45.29092363786849
 20
-95.2193706307604
 30
119.0
 10
45.30306220781942
 20
-96.99672586086338
 30
119.0
 10
45.31531748536416
 20
-98.77405964301062
 30
119.0
 10
45.32768375709156
 20
-100.55136646062714
 30
119.0
 10
45.34015455404134
 20
-102.32863850337617
 30
119.0
 10
45.35971901947432
 20
-105.09573309882414
 30
119.0
 10
45.366747231297566
 20
-106.0855870157002
 30
119.0
 10
45.37380315045813
 20
-107.07542334791609
 30
119.0
 10
45.38088491744892
 20
-108.06523964584892
 30
119.0
 10
45.387989838630496
 20
-109.05503099259667
 30
119.0
 10
45.39511461912058
 20
-110.04479030991271
 30
119.0
 10
45.402254673018525
 20
-111.03450734701278
 30
119.0
 10
45.4121975461252
 20
-112.41150849615573
 30
119.0
 10
45.41492267260829
 20
-112.78878282580999
 30
119.0
 10
45.417575570866525
 20
-113.1559661668833
 30
119.0
 10
45.420154083763386
 20
-113.51309712361162
 30
119.0
 10
45.422662522897184
 20
-113.86027653118643
 30
119.0
 10
45.42509913641128
 20
-114.19766232812225
 30
119.0
 10
45.4274669770752
 20
-114.52547387706194
 30
119.0
 10
45.4319913419156
 20
-115.15185785056019
 30
119.0
 10
45.43421497955402
 20
-115.45971343442686
 30
119.0
 10
45.43643851704655
 20
-115.7675551534158
 30
119.0
 10
45.438661942227405
 20
-116.07538132321129
 30
119.0
 10
45.440885239346336
 20
-116.38318976323498
 30
119.0
 10
45.44310838847589
 20
-116.69097771459455
 30
119.0
 10
45.445331364449714
 20
-116.99874169309862
 30
119.0
 10
45.45012742817443
 20
-117.66274151606243
 30
119.0
 10
45.45270039858664
 20
-118.01896111534928
 30
119.0
 10
45.45527304082201
 20
-118.37513527960405
 30
119.0
 10
45.45784530913476
 20
-118.73125767544803
 30
119.0
 10
45.460417094982375
 20
-119.08731327552096
 30
119.0
 10
45.462988232648144
 20
-119.4432791368825
 30
119.0
 10
45.46555847825246
 20
-119.7991214951535
 30
119.0
 10
45.46944482166734
 20
-120.33717342431149
 30
119.0
 10
45.470761818597204
 20
-120.5195074754167
 30
119.0
 10
45.47207839248246
 20
-120.70178295732698
 30
119.0
 10
45.47339448516125
 20
-120.88399181773657
 30
119.0
 10
45.47470995439611
 20
-121.06611436431069
 30
119.0
 10
45.4760245822543
 20
-121.24812042494243
 30
119.0
 10
45.47733804753801
 20
-121.42996553082918
 30
119.0
 10
45.479372925293255
 20
-121.7116879070931
 30
119.0
 10
45.48005797368782
 20
-121.80653068626015
 30
119.0
 10
45.480706102148254
 20
-121.8962620175527
 30
119.0
 10
45.48131848104711
 20
-121.9810439353414
 30
119.0
 10
45.48189628075692
 20
-122.06103847399689
 30
119.0
 10
45.48244067165023
 20
-122.13640766788987
 30
119.0
 10
45.48295282409963
 20
-122.20731355139098
 30
119.0
 10
45.48384244782934
 20
-122.33047913736621
 30
119.0
 10
45.4842500775889
 20
-122.38691418571321
 30
119.0
 10
45.484656850025054
 20
-122.44323054035063
 30
119.0
 10
45.48506268076719
 20
-122.4994165204403
 30
119.0
 10
45.48546722289497
 20
-122.55542409595391
 30
119.0
 10
45.48586992257355
 20
-122.61117659020721
 30
119.0
 10
45.486269950636235
 20
-122.66655920771882
 30
119.0
 10
45.48694003416049
 20
-122.75933014801618
 30
119.0
 10
45.487190903154264
 20
-122.79406216515031
 30
119.0
 10
45.48741948187084
 20
-122.82570816404319
 30
119.0
 10
45.487626940682695
 20
-122.85443017906543
 30
119.0
 10
45.487814449962414
 20
-122.88039024458782
 30
119.0
 10
45.48798318008255
 20
-122.90375039498095
 30
119.0
 10
45.48813430141567
 20
-122.92467266461547
 30
119.0
 10
45.48837906643423
 20
-122.95855960572132
 30
119.0
 10
45.48848601524463
 20
-122.97336632957828
 30
119.0
 10
45.48858913343166
 20
-122.98764271577434
 30
119.0
 10
45.488686963233825
 20
-123.00118694183848
 30
119.0
 10
45.48877745899378
 20
-123.01371579300228
 30
119.0
 10
45.48885793593863
 20
-123.0248575709736
 30
119.0
 10
45.48892558971352
 20
-123.0342240216935
 30
119.0
 10
45.489002055193374
 20
-123.04481042504567
 30
119.0
 10
45.489021724222994
 20
-123.04753353986172
 30
119.0
 10
45.489038620575506
 20
-123.04987278631998
 30
119.0
 10
45.48905297656445
 20
-123.0518603274928
 30
119.0
 10
45.489065024503354
 20
-123.05352832645268
 30
119.0
 10
45.48907499670577
 20
-123.05490894627196
 30
119.0
 10
45.489083125485216
 20
-123.05603435002311
 30
119.0
 10
45.48910166668112
 20
-123.05860131983732
 30
119.0
 10
45.48917486391
 20
-123.05913788072655
 30
119.0
 10
45.489216847503194
 20
-123.05918919660816
 30
119.0
 10
45.489183583381624
 20
-123.05918454365548
 30
119.0
 10
45.48907939072575
 20
-123.05933966105334
 30
119.0
 10
45.48895694197562
 20
-123.05965675099809
 30
119.0
 10
45.48891726283085
 20
-123.05992447869758
 30
119.0
 10
45.48910973225061
 20
-123.0597179723711
 30
119.0
  0
ENDSEC
  0
SECTION
  2
OBJECTS
  0
DICTIONARY
  5
A
330
0
100
AcDbDictionary
281
1
  3
ACAD_COLOR
350
B
  3
ACAD_GROUP
350
C
  3
ACAD_LAYOUT
350
D
  3
ACAD_MATERIAL
350
E
  3
ACAD_MLEADERSTYLE
350
F
  3
ACAD_MLINESTYLE
350
10
  3
ACAD_PLOTSETTINGS
350
11
  3
ACAD_PLOTSTYLENAME
350
12
  3
ACAD_SCALELIST
350
14
  3
ACAD_TABLESTYLE
350
15
  3
ACAD_VISUALSTYLE
350
16
  3
EZDXF_META
350
2D
  0
DICTIONARY
  5
B
330
A
100
AcDbDictionary
281
1
  0
DICTIONARY
  5
C
330
A
100
AcDbDictionary
281
1
  0
DICTIONARY
  5
D
330
A
100
AcDbDictionary
281
1
  3
Model
350
1A
  3
Layout1
350
1E
  0
DICTIONARY
  5
E
330
A
100
AcDbDictionary
281
1
  3
ByBlock
350
1F
  3
ByLayer
350
20
  3
Global
350
21
  0
DICTIONARY
  5
F
330
A
100
AcDbDictionary
281
1
  3
Standard
350
2C
  0
DICTIONARY
  5
10
330
A
100
AcDbDictionary
281
1
  3
Standard
350
22
  0
DICTIONARY
  5
11
330
A
100
AcDbDictionary
281
1
  0
ACDBDICTIONARYWDFLT
  5
12
330
A
100
AcDbDictionary
281
1
  3
Normal
350
13
100
AcDbDictionaryWithDefault
340
13
  0
ACDBPLACEHOLDER
  5
13
330
12
  0
DICTIONARY
  5
14
330
A
100
AcDbDictionary
281
1
  0
DICTIONARY
  5
15
330
A
100
AcDbDictionary
281
1
  0
DICTIONARY
  5
16
330
A
100
AcDbDictionary
281
1
  0
LAYOUT
  5
1A
330
D
100
AcDbPlotSettings
  1

  2
Adobe PDF
  4
A3
  6

 40
7.5
 41
20.0
 42
7.5
 43
20.0
 44
420.0
 45
297.0
 46
0.0
 47
0.0
 48
0.0
 49
0.0
140
0.0
141
0.0
142
1.0
143
1.0
 70
1024
 72
1
 73
1
 74
5
  7

 75
16
 76
0
 77
2
 78
300
147
1.0
148
0.0
149
0.0
100
AcDbLayout
  1
Model
 70
1
 71
0
 10
0.0
 20
0.0
 11
420.0
 21
297.0
 12
0.0
 22
0.0
 32
0.0
 14
1e+20
 24
1e+20
 34
1e+20
 15
-1e+20
 25
-1e+20
 35
-1e+20
146
0.0
 13
0.0
 23
0.0
 33
0.0
 16
1.0
 26
0.0
 36
0.0
 17
0.0
 27
1.0
 37
0.0
 76
1
330
17
  0
LAYOUT
  5
1E
330
D
100
AcDbPlotSettings
  1

  2
Adobe PDF
  4
A3
  6

 40
7.5
 41
20.0
 42
7.5
 43
20.0
 44
420.0
 45
297.0
 46
0.0
 47
0.0
 48
0.0
 49
0.0
140
0.0
141
0.0
142
1.0
143
1.0
 70
0
 72
1
 73
1
 74
5
  7

 75
16
 76
0
 77
2
 78
300
147
1.0
148
0.0
149
0.0
100
AcDbLayout
  1
Layout1
 70
1
 71
1
 10
0.0
 20
0.0
 11
420.0
 21
297.0
 12
0.0
 22
0.0
 32
0.0
 14
1e+20
 24
1e+20
 34
1e+20
 15
-1e+20
 25
-1e+20
 35
-1e+20
146
0.0
 13
0.0
 23
0.0
 33
0.0
 16
1.0
 26
0.0
 36
0.0
 17
0.0
 27
1.0
 37
0.0
 76
1
330
1B
  0
MATERIAL
  5
1F
102
{ACAD_REACTORS
330
E
102
}
330
E
100
AcDbMaterial
  1
ByBlock
  2

 70
0
 40
1.0
 71
1
 41
1.0
 91
-1023410177
 42
1.0
 72
1
  3

 73
1
 74
1
 75
1
 44
0.5
 73
0
 45
1.0
 46
1.0
 77
1
  4

 78
1
 79
1
170
1
 48
1.0
171
1
  6

172
1
173
1
174
1
140
1.0
141
1.0
175
1
  7

176
1
177
1
178
1
143
1.0
179
1
  8

270
1
271
1
272
1
145
1.0
146
1.0
273
1
  9

274
1
275
1
276
1
 42
1.0
 72
1
  3

 73
1
 74
1
 75
1
 94
63
  0
MATERIAL
  5
20
102
{ACAD_REACTORS
330
E
102
}
330
E
100
AcDbMaterial
  1
ByLayer
  2

 70
0
 40
1.0
 71
1
 41
1.0
 91
-1023410177
 42
1.0
 72
1
  3

 73
1
 74
1
 75
1
 44
0.5
 73
0
 45
1.0
 46
1.0
 77
1
  4

 78
1
 79
1
170
1
 48
1.0
171
1
  6

172
1
173
1
174
1
140
1.0
141
1.0
175
1
  7

176
1
177
1
178
1
143
1.0
179
1
  8

270
1
271
1
272
1
145
1.0
146
1.0
273
1
  9

274
1
275
1
276
1
 42
1.0
 72
1
  3

 73
1
 74
1
 75
1
 94
63
  0
MATERIAL
  5
21
102
{ACAD_REACTORS
330
E
102
}
330
E
100
AcDbMaterial
  1
Global
  2

 70
0
 40
1.0
 71
1
 41
1.0
 91
-1023410177
 42
1.0
 72
1
  3

 73
1
 74
1
 75
1
 44
0.5
 73
0
 45
1.0
 46
1.0
 77
1
  4

 78
1
 79
1
170
1
 48
1.0
171
1
  6

172
1
173
1
174
1
140
1.0
141
1.0
175
1
  7

176
1
177
1
178
1
143
1.0
179
1
  8

270
1
271
1
272
1
145
1.0
146
1.0
273
1
  9

274
1
275
1
276
1
 42
1.0
 72
1
  3

 73
1
 74
1
 75
1
 94
63
  0
MLINESTYLE
  5
22
102
{ACAD_REACTORS
330
10
102
}
330
10
100
AcDbMlineStyle
  2
Standard
 70
0
  3

 62
256
 51
90.0
 52
90.0
 71
2
 49
0.5
 62
256
  6
BYLAYER
 49
-0.5
 62
256
  6
BYLAYER
  0
MLEADERSTYLE
  5
2C
102
{ACAD_REACTORS
330
F
102
}
330
F
100
AcDbMLeaderStyle
179
2
170
2
171
1
172
0
 90
2
 40
0.0
 41
0.0
173
1
 91
-1056964608
 92
-2
290
1
 42
2.0
291
1
 43
8.0
  3
Standard
 44
4.0
300

342
29
174
1
175
1
176
0
178
1
 93
-1056964608
 45
4.0
292
0
297
0
 46
4.0
 94
-1056964608
 47
1.0
 49
1.0
140
1.0
294
1
141
0.0
177
0
142
1.0
295
0
296
0
143
3.75
271
0
272
9
273
9
  0
DICTIONARY
  5
2D
330
A
100
AcDbDictionary
280
1
281
1
  3
CREATED_BY_EZDXF
350
2E
  3
WRITTEN_BY_EZDXF
350
58
  0
DICTIONARYVAR
  5
2E
330
2D
100
DictionaryVariables
280
0
  1
0.17 @ 2022-02-15T16:17:53.894669+00:00
  0
DICTIONARYVAR
  5
58
330
2D
100
DictionaryVariables
280
0
  1
0.17 @ 2022-02-15T16:17:53.946547+00:00
  0
ENDSEC
  0
EOF
