  0
SECTION
  2
HEADER
  9
$ACADVER
  1
AC1027
  9
$ACADMAINTVER
 70
105
  9
$DWGCODEPAGE
  3
ANSI_1252
  9
$LASTSAVEDBY
  1
ezdxf
  9
$REQUIREDVERSIONS
160
0
  9
$INSBASE
 10
0.0
 20
0.0
 30
0.0
  9
$EXTMIN
 10
1e+20
 20
1e+20
 30
1e+20
  9
$EXTMAX
 10
-1e+20
 20
-1e+20
 30
-1e+20
  9
$LIMMIN
 10
0.0
 20
0.0
  9
$LIMMAX
 10
420.0
 20
297.0
  9
$ORTHOMODE
 70
0
  9
$REGENMODE
 70
1
  9
$FILLMODE
 70
1
  9
$QTEXTMODE
 70
0
  9
$MIRRTEXT
 70
1
  9
$LTSCALE
 40
1.0
  9
$ATTMODE
 70
1
  9
$TEXTSIZE
 40
2.5
  9
$TRACEWID
 40
1.0
  9
$TEXTSTYLE
  7
Standard
  9
$CLAYER
  8
0
  9
$CELTYPE
  6
ByLayer
  9
$CECOLOR
 62
256
  9
$CELTSCALE
 40
1.0
  9
$DISPSILH
 70
0
  9
$DIMSCALE
 40
1.0
  9
$DIMASZ
 40
2.5
  9
$DIMEXO
 40
0.625
  9
$DIMDLI
 40
3.75
  9
$DIMRND
 40
0.0
  9
$DIMDLE
 40
0.0
  9
$DIMEXE
 40
1.25
  9
$DIMTP
 40
0.0
  9
$DIMTM
 40
0.0
  9
$DIMTXT
 40
2.5
  9
$DIMCEN
 40
2.5
  9
$DIMTSZ
 40
0.0
  9
$DIMTOL
 70
0
  9
$DIMLIM
 70
0
  9
$DIMTIH
 70
0
  9
$DIMTOH
 70
0
  9
$DIMSE1
 70
0
  9
$DIMSE2
 70
0
  9
$DIMTAD
 70
1
  9
$DIMZIN
 70
8
  9
$DIMBLK
  1

  9
$DIMASO
 70
1
  9
$DIMSHO
 70
1
  9
$DIMPOST
  1

  9
$DIMAPOST
  1

  9
$DIMALT
 70
0
  9
$DIMALTD
 70
3
  9
$DIMALTF
 40
0.03937007874
  9
$DIMLFAC
 40
1.0
  9
$DIMTOFL
 70
1
  9
$DIMTVP
 40
0.0
  9
$DIMTIX
 70
0
  9
$DIMSOXD
 70
0
  9
$DIMSAH
 70
0
  9
$DIMBLK1
  1

  9
$DIMBLK2
  1

  9
$DIMSTYLE
  2
ISO-25
  9
$DIMCLRD
 70
0
  9
$DIMCLRE
 70
0
  9
$DIMCLRT
 70
0
  9
$DIMTFAC
 40
1.0
  9
$DIMGAP
 40
0.625
  9
$DIMJUST
 70
0
  9
$DIMSD1
 70
0
  9
$DIMSD2
 70
0
  9
$DIMTOLJ
 70
0
  9
$DIMTZIN
 70
8
  9
$DIMALTZ
 70
0
  9
$DIMALTTZ
 70
0
  9
$DIMUPT
 70
0
  9
$DIMDEC
 70
2
  9
$DIMTDEC
 70
2
  9
$DIMALTU
 70
2
  9
$DIMALTTD
 70
3
  9
$DIMTXSTY
  7
Standard
  9
$DIMAUNIT
 70
0
  9
$DIMADEC
 70
0
  9
$DIMALTRND
 40
0.0
  9
$DIMAZIN
 70
0
  9
$DIMDSEP
 70
44
  9
$DIMATFIT
 70
3
  9
$DIMFRAC
 70
0
  9
$DIMLDRBLK
  1

  9
$DIMLUNIT
 70
2
  9
$DIMLWD
 70
-2
  9
$DIMLWE
 70
-2
  9
$DIMTMOVE
 70
0
  9
$DIMFXL
 40
1.0
  9
$DIMFXLON
 70
0
  9
$DIMJOGANG
 40
0.785398163397
  9
$DIMTFILL
 70
0
  9
$DIMTFILLCLR
 70
0
  9
$DIMARCSYM
 70
0
  9
$DIMLTYPE
  6

  9
$DIMLTEX1
  6

  9
$DIMLTEX2
  6

  9
$DIMTXTDIRECTION
 70
0
  9
$LUNITS
 70
2
  9
$LUPREC
 70
4
  9
$SKETCHINC
 40
1.0
  9
$FILLETRAD
 40
10.0
  9
$AUNITS
 70
0
  9
$AUPREC
 70
2
  9
$MENU
  1
.
  9
$ELEVATION
 40
0.0
  9
$PELEVATION
 40
0.0
  9
$THICKNESS
 40
0.0
  9
$LIMCHECK
 70
0
  9
$CHAMFERA
 40
0.0
  9
$CHAMFERB
 40
0.0
  9
$CHAMFERC
 40
0.0
  9
$CHAMFERD
 40
0.0
  9
$SKPOLY
 70
0
  9
$TDCREATE
 40
2459626.733923611
  9
$TDUCREATE
 40
2458532.153996898
  9
$TDUPDATE
 40
2459626.733923611
  9
$TDUUPDATE
 40
2458532.1544311
  9
$TDINDWG
 40
0.0
  9
$TDUSRTIMER
 40
0.0
  9
$USRTIMER
 70
1
  9
$ANGBASE
 50
0.0
  9
$ANGDIR
 70
0
  9
$PDMODE
 70
0
  9
$PDSIZE
 40
0.0
  9
$PLINEWID
 40
0.0
  9
$SPLFRAME
 70
0
  9
$SPLINETYPE
 70
6
  9
$SPLINESEGS
 70
8
  9
$HANDSEED
  5
87
  9
$SURFTAB1
 70
6
  9
$SURFTAB2
 70
6
  9
$SURFTYPE
 70
6
  9
$SURFU
 70
6
  9
$SURFV
 70
6
  9
$UCSBASE
  2

  9
$UCSNAME
  2

  9
$UCSORG
 10
0.0
 20
0.0
 30
0.0
  9
$UCSXDIR
 10
1.0
 20
0.0
 30
0.0
  9
$UCSYDIR
 10
0.0
 20
1.0
 30
0.0
  9
$UCSORTHOREF
  2

  9
$UCSORTHOVIEW
 70
0
  9
$UCSORGTOP
 10
0.0
 20
0.0
 30
0.0
  9
$UCSORGBOTTOM
 10
0.0
 20
0.0
 30
0.0
  9
$UCSORGLEFT
 10
0.0
 20
0.0
 30
0.0
  9
$UCSORGRIGHT
 10
0.0
 20
0.0
 30
0.0
  9
$UCSORGFRONT
 10
0.0
 20
0.0
 30
0.0
  9
$UCSORGBACK
 10
0.0
 20
0.0
 30
0.0
  9
$PUCSBASE
  2

  9
$PUCSNAME
  2

  9
$PUCSORG
 10
0.0
 20
0.0
 30
0.0
  9
$PUCSXDIR
 10
1.0
 20
0.0
 30
0.0
  9
$PUCSYDIR
 10
0.0
 20
1.0
 30
0.0
  9
$PUCSORTHOREF
  2

  9
$PUCSORTHOVIEW
 70
0
  9
$PUCSORGTOP
 10
0.0
 20
0.0
 30
0.0
  9
$PUCSORGBOTTOM
 10
0.0
 20
0.0
 30
0.0
  9
$PUCSORGLEFT
 10
0.0
 20
0.0
 30
0.0
  9
$PUCSORGRIGHT
 10
0.0
 20
0.0
 30
0.0
  9
$PUCSORGFRONT
 10
0.0
 20
0.0
 30
0.0
  9
$PUCSORGBACK
 10
0.0
 20
0.0
 30
0.0
  9
$USERI1
 70
0
  9
$USERI2
 70
0
  9
$USERI3
 70
0
  9
$USERI4
 70
0
  9
$USERI5
 70
0
  9
$USERR1
 40
0.0
  9
$USERR2
 40
0.0
  9
$USERR3
 40
0.0
  9
$USERR4
 40
0.0
  9
$USERR5
 40
0.0
  9
$WORLDVIEW
 70
1
  9
$SHADEDGE
 70
3
  9
$SHADEDIF
 70
70
  9
$TILEMODE
 70
1
  9
$MAXACTVP
 70
64
  9
$PINSBASE
 10
0.0
 20
0.0
 30
0.0
  9
$PLIMCHECK
 70
0
  9
$PEXTMIN
 10
1e+20
 20
1e+20
 30
1e+20
  9
$PEXTMAX
 10
-1e+20
 20
-1e+20
 30
-1e+20
  9
$PLIMMIN
 10
0.0
 20
0.0
  9
$PLIMMAX
 10
420.0
 20
297.0
  9
$UNITMODE
 70
0
  9
$VISRETAIN
 70
1
  9
$PLINEGEN
 70
0
  9
$PSLTSCALE
 70
1
  9
$TREEDEPTH
 70
3020
  9
$CMLSTYLE
  2
Standard
  9
$CMLJUST
 70
0
  9
$CMLSCALE
 40
20.0
  9
$PROXYGRAPHICS
 70
1
  9
$MEASUREMENT
 70
1
  9
$CELWEIGHT
370
-1
  9
$ENDCAPS
280
0
  9
$JOINSTYLE
280
0
  9
$LWDISPLAY
290
0
  9
$INSUNITS
 70
6
  9
$HYPERLINKBASE
  1

  9
$STYLESHEET
  1

  9
$XEDIT
290
1
  9
$CEPSNTYPE
380
0
  9
$PSTYLEMODE
290
1
  9
$FINGERPRINTGUID
  2
{A5E65852-9EB9-4CB3-A648-96A83E47C3F3}
  9
$VERSIONGUID
  2
{A6D98091-F0D7-464C-A2DF-130B3A739BE9}
  9
$EXTNAMES
290
1
  9
$PSVPSCALE
 40
0.0
  9
$OLESTARTUP
290
0
  9
$SORTENTS
280
127
  9
$INDEXCTL
280
0
  9
$HIDETEXT
280
1
  9
$XCLIPFRAME
280
0
  9
$HALOGAP
280
0
  9
$OBSCOLOR
 70
257
  9
$OBSLTYPE
280
0
  9
$INTERSECTIONDISPLAY
280
0
  9
$INTERSECTIONCOLOR
 70
257
  9
$DIMASSOC
280
2
  9
$PROJECTNAME
  1

  9
$CAMERADISPLAY
290
0
  9
$LENSLENGTH
 40
50.0
  9
$CAMERAHEIGHT
 40
0.0
  9
$STEPSPERSEC
 40
24.0
  9
$STEPSIZE
 40
100.0
  9
$3DDWFPREC
 40
2.0
  9
$PSOLWIDTH
 40
0.005
  9
$PSOLHEIGHT
 40
0.08
  9
$LOFTANG1
 40
1.570796326795
  9
$LOFTANG2
 40
1.570796326795
  9
$LOFTMAG1
 40
0.0
  9
$LOFTMAG2
 40
0.0
  9
$LOFTPARAM
 70
7
  9
$LOFTNORMALS
280
1
  9
$LATITUDE
 40
37.795
  9
$LONGITUDE
 40
-122.394
  9
$NORTHDIRECTION
 40
0.0
  9
$TIMEZONE
 70
-8000
  9
$LIGHTGLYPHDISPLAY
280
1
  9
$TILEMODELIGHTSYNCH
280
1
  9
$CMATERIAL
347
20
  9
$SOLIDHIST
280
0
  9
$SHOWHIST
280
1
  9
$DWFFRAME
280
2
  9
$DGNFRAME
280
2
  9
$REALWORLDSCALE
290
1
  9
$INTERFERECOLOR
 62
256
  9
$CSHADOW
280
0
  9
$SHADOWPLANELOCATION
 40
0.0
  0
ENDSEC
  0
SECTION
  2
CLASSES
  0
CLASS
  1
ACDBDICTIONARYWDFLT
  2
AcDbDictionaryWithDefault
  3
ObjectDBX Classes
 90
0
 91
0
280
0
281
0
  0
CLASS
  1
SUN
  2
AcDbSun
  3
SCENEOE
 90
1153
 91
0
280
0
281
0
  0
CLASS
  1
VISUALSTYLE
  2
AcDbVisualStyle
  3
ObjectDBX Classes
 90
4095
 91
0
280
0
281
0
  0
CLASS
  1
MATERIAL
  2
AcDbMaterial
  3
ObjectDBX Classes
 90
1153
 91
0
280
0
281
0
  0
CLASS
  1
SCALE
  2
AcDbScale
  3
ObjectDBX Classes
 90
1153
 91
0
280
0
281
0
  0
CLASS
  1
TABLESTYLE
  2
AcDbTableStyle
  3
ObjectDBX Classes
 90
4095
 91
0
280
0
281
0
  0
CLASS
  1
MLEADERSTYLE
  2
AcDbMLeaderStyle
  3
ACDB_MLEADERSTYLE_CLASS
 90
4095
 91
0
280
0
281
0
  0
CLASS
  1
DICTIONARYVAR
  2
AcDbDictionaryVar
  3
ObjectDBX Classes
 90
0
 91
0
280
0
281
0
  0
CLASS
  1
CELLSTYLEMAP
  2
AcDbCellStyleMap
  3
ObjectDBX Classes
 90
1152
 91
0
280
0
281
0
  0
CLASS
  1
MENTALRAYRENDERSETTINGS
  2
AcDbMentalRayRenderSettings
  3
SCENEOE
 90
1024
 91
0
280
0
281
0
  0
CLASS
  1
ACDBDETAILVIEWSTYLE
  2
AcDbDetailViewStyle
  3
ObjectDBX Classes
 90
1025
 91
0
280
0
281
0
  0
CLASS
  1
ACDBSECTIONVIEWSTYLE
  2
AcDbSectionViewStyle
  3
ObjectDBX Classes
 90
1025
 91
0
280
0
281
0
  0
CLASS
  1
RASTERVARIABLES
  2
AcDbRasterVariables
  3
ISM
 90
0
 91
0
280
0
281
0
  0
CLASS
  1
ACDBPLACEHOLDER
  2
AcDbPlaceHolder
  3
ObjectDBX Classes
 90
0
 91
0
280
0
281
0
  0
CLASS
  1
LAYOUT
  2
AcDbLayout
  3
ObjectDBX Classes
 90
0
 91
0
280
0
281
0
  0
ENDSEC
  0
SECTION
  2
TABLES
  0
TABLE
  2
VPORT
  5
8
330
0
100
AcDbSymbolTable
 70
1
  0
VPORT
  5
23
330
8
100
AcDbSymbolTableRecord
100
AcDbViewportTableRecord
  2
*Active
 70
0
 10
0.0
 20
0.0
 11
1.0
 21
1.0
 12
344.2
 22
148.5
 13
0.0
 23
0.0
 14
0.5
 24
0.5
 15
0.5
 25
0.5
 16
0.0
 26
0.0
 36
1.0
 17
0.0
 27
0.0
 37
0.0
 40
297.0
 41
1.34
 42
50.0
 43
0.0
 44
0.0
 50
0.0
 51
0.0
 71
0
 72
1000
 73
1
 74
3
 75
0
 76
0
 77
0
 78
0
281
0
 65
0
146
0.0
  0
ENDTAB
  0
TABLE
  2
LTYPE
  5
2
330
0
100
AcDbSymbolTable
 70
3
  0
LTYPE
  5
24
330
2
100
AcDbSymbolTableRecord
100
AcDbLinetypeTableRecord
  2
ByBlock
 70
0
  3

 72
65
 73
0
 40
0.0
  0
LTYPE
  5
25
330
2
100
AcDbSymbolTableRecord
100
AcDbLinetypeTableRecord
  2
ByLayer
 70
0
  3

 72
65
 73
0
 40
0.0
  0
LTYPE
  5
26
330
2
100
AcDbSymbolTableRecord
100
AcDbLinetypeTableRecord
  2
Continuous
 70
0
  3

 72
65
 73
0
 40
0.0
  0
ENDTAB
  0
TABLE
  2
LAYER
  5
1
330
0
100
AcDbSymbolTable
 70
2
  0
LAYER
  5
27
330
1
100
AcDbSymbolTableRecord
100
AcDbLayerTableRecord
  2
0
 70
0
 62
7
  6
Continuous
370
-3
390
13
347
21
  0
LAYER
  5
28
330
1
100
AcDbSymbolTableRecord
100
AcDbLayerTableRecord
  2
Defpoints
 70
0
 62
7
  6
Continuous
290
0
370
-3
390
13
347
21
  0
ENDTAB
  0
TABLE
  2
STYLE
  5
5
330
0
100
AcDbSymbolTable
 70
1
  0
STYLE
  5
29
330
5
100
AcDbSymbolTableRecord
100
AcDbTextStyleTableRecord
  2
Standard
 70
0
 40
0.0
 41
1.0
 50
0.0
 71
0
 42
2.5
  3
txt
  4

  0
ENDTAB
  0
TABLE
  2
VIEW
  5
7
330
0
100
AcDbSymbolTable
 70
0
  0
ENDTAB
  0
TABLE
  2
UCS
  5
6
330
0
100
AcDbSymbolTable
 70
0
  0
ENDTAB
  0
TABLE
  2
APPID
  5
3
330
0
100
AcDbSymbolTable
 70
3
  0
APPID
  5
2A
330
3
100
AcDbSymbolTableRecord
100
AcDbRegAppTableRecord
  2
ACAD
 70
0
  0
APPID
  5
84
330
3
100
AcDbSymbolTableRecord
100
AcDbRegAppTableRecord
  2
HATCHBACKGROUNDCOLOR
 70
0
  0
APPID
  5
85
330
3
100
AcDbSymbolTableRecord
100
AcDbRegAppTableRecord
  2
EZDXF
 70
0
  0
ENDTAB
  0
TABLE
  2
DIMSTYLE
  5
4
330
0
100
AcDbSymbolTable
 70
1
100
AcDbDimStyleTable
  0
DIMSTYLE
105
2B
330
4
100
AcDbSymbolTableRecord
100
AcDbDimStyleTableRecord
  2
Standard
 70
0
 40
1.0
 41
2.5
 42
0.625
 43
3.75
 44
1.25
 45
0.0
 46
0.0
 47
0.0
 48
0.0
 49
2.5
140
2.5
141
2.5
142
0.0
143
0.03937007874
144
1.0
145
0.0
146
1.0
147
0.625
148
0.0
 69
0
 70
0
 71
0
 72
0
 73
0
 74
0
 75
0
 76
0
 77
1
 78
8
 79
0
170
0
171
3
172
1
173
0
174
0
175
0
176
0
177
0
178
0
179
0
271
0
272
2
273
2
274
3
275
0
276
0
277
2
278
44
279
0
280
0
281
0
282
0
283
0
284
8
285
0
286
0
288
0
289
3
290
0
371
-2
372
-2
  0
ENDTAB
  0
TABLE
  2
BLOCK_RECORD
  5
9
330
0
100
AcDbSymbolTable
 70
2
  0
BLOCK_RECORD
  5
17
330
9
100
AcDbSymbolTableRecord
100
AcDbBlockTableRecord
  2
*Model_Space
340
1A
 70
0
280
1
281
0
  0
BLOCK_RECORD
  5
1B
330
9
100
AcDbSymbolTableRecord
100
AcDbBlockTableRecord
  2
*Paper_Space
340
1E
 70
0
280
1
281
0
  0
ENDTAB
  0
ENDSEC
  0
SECTION
  2
BLOCKS
  0
BLOCK
  5
18
330
17
100
AcDbEntity
  8
0
100
AcDbBlockBegin
  2
*Model_Space
 70
0
 10
0.0
 20
0.0
 30
0.0
  3
*Model_Space
  1

  0
ENDBLK
  5
19
330
17
100
AcDbEntity
  8
0
100
AcDbBlockEnd
  0
BLOCK
  5
1C
330
1B
100
AcDbEntity
  8
0
100
AcDbBlockBegin
  2
*Paper_Space
 70
0
 10
0.0
 20
0.0
 30
0.0
  3
*Paper_Space
  1

  0
ENDBLK
  5
1D
330
1B
100
AcDbEntity
  8
0
100
AcDbBlockEnd
  0
ENDSEC
  0
SECTION
  2
ENTITIES
  0
SPLINE
  5
2F
330
17
100
AcDbEntity
  8
0
100
AcDbSpline
 70
0
 71
8
 72
53
 73
44
 74
0
 40
0.0
 40
0.0
 40
0.0
 40
0.0
 40
0.0
 40
0.0
 40
0.0
 40
0.0
 40
0.0
 40
0.11699189933205183
 40
0.11699189933205183
 40
0.11699189933205183
 40
0.11699189933205183
 40
0.11699189933205183
 40
0.11699189933205183
 40
0.11699189933205183
 40
0.17104433353811974
 40
0.17104433353811974
 40
0.17104433353811974
 40
0.17104433353811974
 40
0.17104433353811974
 40
0.17104433353811974
 40
0.17104433353811974
 40
0.34258240800716855
 40
0.34258240800716855
 40
0.34258240800716855
 40
0.34258240800716855
 40
0.34258240800716855
 40
0.34258240800716855
 40
0.34258240800716855
 40
0.569266832265525
 40
0.569266832265525
 40
0.569266832265525
 40
0.569266832265525
 40
0.569266832265525
 40
0.569266832265525
 40
0.569266832265525
 40
0.7645281989634095
 40
0.7645281989634095
 40
0.7645281989634095
 40
0.7645281989634095
 40
0.7645281989634095
 40
0.7645281989634095
 40
0.7645281989634095
 40
1.0
 40
1.0
 40
1.0
 40
1.0
 40
1.0
 40
1.0
 40
1.0
 40
1.0
 40
1.0
 10
26.934263928384066
 20
261.6507194097865
 30
1055.0
 10
26.329639466591
 20
261.7578474434559
 30
1055.0
 10
25.71885081467632
 20
261.8309808682091
 30
1055.0
 10
25.104443767206753
 20
261.8696843787017
 30
1055.0
 10
24.488710621253215
 20
261.87444126797374
 30
1055.0
 10
23.873694509189274
 20
261.84643774354015
 30
1055.0
 10
23.261192377902198
 20
261.78736748464246
 30
1055.0
 10
22.652756614416152
 20
261.6992564406689
 30
1055.0
 10
21.77106977858029
 20
261.53119949272786
 30
1055.0
 10
21.493563607622427
 20
261.47233801958726
 30
1055.0
 10
21.217224004144516
 20
261.4080216120216
 30
1055.0
 10
20.94220411041769
 20
261.3382822956962
 30
1055.0
 10
20.668522440073005
 20
261.2634419851
 30
1055.0
 10
20.39618974284513
 20
261.18384390876577
 30
1055.0
 10
20.125350241914596
 20
261.09949607475113
 30
1055.0
 10
19.001555008730904
 20
260.72749651020564
 30
1055.0
 10
18.162739578843162
 20
260.39660794718884
 30
1055.0
 10
17.342979170024055
 20
260.0190555971879
 30
1055.0
 10
16.545004901000492
 20
259.5967895162463
 30
1055.0
 10
15.771007504020474
 20
259.132220298392
 30
1055.0
 10
15.022697310100169
 20
258.62810791048565
 30
1055.0
 10
14.301354444919328
 20
258.0874710090253
 30
1055.0
 10
12.691441229826987
 20
256.75504668102366
 30
1055.0
 10
11.823591382977956
 20
255.9383344872628
 30
1055.0
 10
11.005651444840659
 20
255.07015192187035
 30
1055.0
 10
10.237577978411707
 20
254.1572176292835
 30
1055.0
 10
9.518396859444252
 20
253.20582249763567
 30
1055.0
 10
8.846494835538046
 20
252.22158770579173
 30
1055.0
 10
8.219824631713633
 20
251.209295592097
 30
1055.0
 10
7.133272991183387
 20
249.2798599000733
 30
1055.0
 10
6.662379857074852
 20
248.36909774796536
 30
1055.0
 10
6.221923389355281
 20
247.44286806145482
 30
1055.0
 10
5.810434357658589
 20
246.50331882288017
 30
1055.0
 10
5.426470988502457
 20
245.55232130336026
 30
1055.0
 10
5.068629610877099
 20
244.59146572443083
 30
1055.0
 10
4.735556558139526
 20
243.62205624011452
 30
1055.0
 10
4.05261073419981
 20
241.46696941282997
 30
1055.0
 10
3.7134666814245554
 20
240.2780683856447
 30
1055.0
 10
3.406265960571251
 20
239.0802435526663
 30
1055.0
 10
3.1289768022597473
 20
237.87507686836634
 30
1055.0
 10
2.8797537093057404
 20
236.66390204050003
 30
1055.0
 10
2.656906916275926
 20
235.44781195025982
 30
1055.0
 10
2.458886474338584
 20
234.22766229897357
 30
1055.0
 10
2.2842809614095927
 20
233.00407148134806
 30
1055.0
  0
SPLINE
  5
30
330
17
100
AcDbEntity
  8
0
100
AcDbSpline
 70
0
 71
1
 72
4
 73
2
 74
0
 40
0.0
 40
0.0
 40
1.0
 40
1.0
 10
26.934263928088527
 20
261.65071940826374
 30
1055.0
 10
26.934263928088527
 20
258.09999939999005
 30
1055.0
  0
LINE
  5
31
330
17
100
AcDbEntity
  8
0
100
AcDbLine
 10
26.9342639257804
 20
258.1
 30
1055.0
 11
33.955079678662884
 21
258.1
 31
1055.0
  0
SPLINE
  5
32
330
17
100
AcDbEntity
  8
0
100
AcDbSpline
 70
0
 71
8
 72
46
 73
37
 74
0
 40
0.0
 40
0.0
 40
0.0
 40
0.0
 40
0.0
 40
0.0
 40
0.0
 40
0.0
 40
0.0
 40
0.022257914556583033
 40
0.022257914556583033
 40
0.022257914556583033
 40
0.022257914556583033
 40
0.022257914556583033
 40
0.022257914556583033
 40
0.022257914556583033
 40
0.21634601313980883
 40
0.21634601313980883
 40
0.21634601313980883
 40
0.21634601313980883
 40
0.21634601313980883
 40
0.21634601313980883
 40
0.21634601313980883
 40
0.5466780117151369
 40
0.5466780117151369
 40
0.5466780117151369
 40
0.5466780117151369
 40
0.5466780117151369
 40
0.5466780117151369
 40
0.5466780117151369
 40
0.8229032321999682
 40
0.8229032321999682
 40
0.8229032321999682
 40
0.8229032321999682
 40
0.8229032321999682
 40
0.8229032321999682
 40
0.8229032321999682
 40
1.0
 40
1.0
 40
1.0
 40
1.0
 40
1.0
 40
1.0
 40
1.0
 40
1.0
 40
1.0
 10
46.433143557289554
 20
235.89999999999162
 30
1055.0
 10
46.40974737694358
 20
235.96849288547818
 30
1055.0
 10
46.38634359180104
 20
236.03686509228518
 30
1055.0
 10
46.36293221716592
 20
236.10511647270408
 30
1055.0
 10
46.339513268342195
 20
236.17324687902638
 30
1055.0
 10
46.31608676063384
 20
236.24125616354354
 30
1055.0
 10
46.292652709344814
 20
236.30914417854706
 30
1055.0
 10
46.2692111297791
 20
236.37691077632843
 30
1055.0
 10
46.04128691569609
 20
237.034417710716
 30
1055.0
 10
45.83344508494435
 20
237.62310837106241
 30
1055.0
 10
45.62203624206863
 20
238.21053520953419
 30
1055.0
 10
45.40690021835178
 20
238.79661360151977
 30
1055.0
 10
45.18789635775573
 20
239.3812597010001
 30
1055.0
 10
44.96488289540096
 20
239.96438326306838
 30
1055.0
 10
44.73769633604586
 20
240.54588046644966
 30
1055.0
 10
44.11201343884694
 20
242.11233712832006
 30
1055.0
 10
43.70525895020653
 20
243.0939171233452
 30
1055.0
 10
43.28492364086644
 20
244.0698638259033
 30
1055.0
 10
42.849965864597884
 20
245.03950212771102
 30
1055.0
 10
42.39921612425028
 20
246.0019703074207
 30
1055.0
 10
41.931345335234745
 20
246.95620512129858
 30
1055.0
 10
41.44480481186707
 20
247.90091357996567
 30
1055.0
 10
40.513677621476965
 20
249.61520366118
 30
1055.0
 10
40.07535865038523
 20
250.38796607798875
 30
1055.0
 10
39.62161290803507
 20
251.15198111497452
 30
1055.0
 10
39.1512220375795
 20
251.9061088804979
 30
1055.0
 10
38.66286531335571
 20
252.64887682925706
 30
1055.0
 10
38.155092777067864
 20
253.37846202747525
 30
1055.0
 10
37.62627323519273
 20
254.09265676996955
 30
1055.0
 10
36.7207293950738
 20
255.23512140677084
 30
1055.0
 10
36.357616929708556
 20
255.67390937366224
 30
1055.0
 10
35.98463475545837
 20
256.10450226948495
 30
1055.0
 10
35.60128072212595
 20
256.5260704616708
 30
1055.0
 10
35.20707650044579
 20
256.93762282294404
 30
1055.0
 10
34.801572864150245
 20
257.33801225650143
 30
1055.0
 10
34.38435901388218
 20
257.72594533291687
 30
1055.0
 10
33.95507967890363
 20
258.10000000027634
 30
1055.0
  0
LINE
  5
33
330
17
100
AcDbEntity
  8
0
100
AcDbLine
 10
26.9342639257804
 20
235.9
 30
1055.0
 11
46.433143557313926
 21
235.9
 31
1055.0
  0
SPLINE
  5
34
330
17
100
AcDbEntity
  8
0
100
AcDbSpline
 70
0
 71
1
 72
4
 73
2
 74
0
 40
0.0
 40
0.0
 40
1.0
 40
1.0
 10
26.934263928088527
 20
235.9000006000011
 30
1055.0
 10
26.934263928088527
 20
232.09999939999986
 30
1055.0
  0
LINE
  5
35
330
17
100
AcDbEntity
  8
0
100
AcDbLine
 10
26.9342639257804
 20
232.1
 30
1055.0
 11
47.67101024310119
 21
232.1
 31
1055.0
  0
SPLINE
  5
36
330
17
100
AcDbEntity
  8
0
100
AcDbSpline
 70
0
 71
8
 72
32
 73
23
 74
0
 40
0.0
 40
0.0
 40
0.0
 40
0.0
 40
0.0
 40
0.0
 40
0.0
 40
0.0
 40
0.0
 40
0.4128581645084023
 40
0.4128581645084023
 40
0.4128581645084023
 40
0.4128581645084023
 40
0.4128581645084023
 40
0.4128581645084023
 40
0.4128581645084023
 40
0.9583878482668169
 40
0.9583878482668169
 40
0.9583878482668169
 40
0.9583878482668169
 40
0.9583878482668169
 40
0.9583878482668169
 40
0.9583878482668169
 40
1.0
 40
1.0
 40
1.0
 40
1.0
 40
1.0
 40
1.0
 40
1.0
 40
1.0
 40
1.0
 10
53.35403963686904
 20
209.8999999949915
 30
1055.0
 10
53.104824452350016
 20
211.0568371333075
 30
1055.0
 10
52.851543307608836
 20
212.21279319470136
 30
1055.0
 10
52.59403214847223
 20
213.36781449841908
 30
1055.0
 10
52.332110756362
 20
214.52184214388066
 30
1055.0
 10
52.065579967120755
 20
215.6748114305216
 30
1055.0
 10
51.79421806290355
 20
216.8266511053332
 30
1055.0
 10
51.517775952009295
 20
217.9772823566414
 30
1055.0
 10
50.863607219657425
 20
220.64529005335683
 30
1055.0
 10
50.48189403528764
 20
222.161640734454
 30
1055.0
 10
50.090176978752496
 20
223.67546939025198
 30
1055.0
 10
49.68770833678123
 20
225.1865117924368
 30
1055.0
 10
49.27361309832307
 20
226.69443010597206
 30
1055.0
 10
48.84685678608136
 20
228.19880403228697
 30
1055.0
 10
48.40617802016041
 20
229.6991122145754
 30
1055.0
 10
47.915148716464635
 20
231.30877417888163
 30
1055.0
 10
47.88032905867445
 20
231.42259373170245
 30
1055.0
 10
47.84549022234789
 20
231.53615171305347
 30
1055.0
 10
47.810632260920514
 20
231.6494476071938
 30
1055.0
 10
47.775755227827865
 20
231.76248089838245
 30
1055.0
 10
47.74085917650548
 20
231.87525107087853
 30
1055.0
 10
47.705944160388924
 20
231.98775760894114
 30
1055.0
 10
47.67101023291374
 20
232.09999999682927
 30
1055.0
  0
LINE
  5
37
330
17
100
AcDbEntity
  8
0
100
AcDbLine
 10
26.9342639257804
 20
209.9
 30
1055.0
 11
53.35403966011799
 21
209.9
 31
1055.0
  0
SPLINE
  5
38
330
17
100
AcDbEntity
  8
0
100
AcDbSpline
 70
0
 71
1
 72
4
 73
2
 74
0
 40
0.0
 40
0.0
 40
1.0
 40
1.0
 10
26.934263928088527
 20
209.90000060000008
 30
1055.0
 10
26.934263928088527
 20
206.09999939999994
 30
1055.0
  0
LINE
  5
39
330
17
100
AcDbEntity
  8
0
100
AcDbLine
 10
26.9342639257804
 20
206.1
 30
1055.0
 11
54.15326425468356
 21
206.1
 31
1055.0
  0
SPLINE
  5
3A
330
17
100
AcDbEntity
  8
0
100
AcDbSpline
 70
0
 71
8
 72
25
 73
16
 74
0
 40
0.0
 40
0.0
 40
0.0
 40
0.0
 40
0.0
 40
0.0
 40
0.0
 40
0.0
 40
0.0
 40
0.10270741541769604
 40
0.10270741541769604
 40
0.10270741541769604
 40
0.10270741541769604
 40
0.10270741541769604
 40
0.10270741541769604
 40
0.10270741541769604
 40
1.0
 40
1.0
 40
1.0
 40
1.0
 40
1.0
 40
1.0
 40
1.0
 40
1.0
 40
1.0
 10
58.18543961864859
 20
183.90000000835747
 30
1055.0
 10
58.13936898488136
 20
184.18602170368754
 30
1055.0
 10
58.09315010927241
 20
184.47201956797142
 30
1055.0
 10
58.04678222158982
 20
184.7579933974294
 30
1055.0
 10
58.000264537935905
 20
185.04394298548496
 30
1055.0
 10
57.95359626041347
 20
185.329868122717
 30
1055.0
 10
57.90677657678001
 20
185.61576859681026
 30
1055.0
 10
57.85980466008937
 20
185.90164419250428
 30
1055.0
 10
57.4009771102255
 20
188.68479765687016
 30
1055.0
 10
56.977611739984994
 20
191.18005618224606
 30
1055.0
 10
56.54201507748273
 20
193.67319107945758
 30
1055.0
 10
56.093528094210754
 20
196.16406564086503
 30
1055.0
 10
55.6313957778611
 20
198.6524848737338
 30
1055.0
 10
55.15472616872523
 20
201.13818670265763
 30
1055.0
 10
54.66245610144979
 20
203.62083471646673
 30
1055.0
 10
54.153264308852485
 20
206.10000001112567
 30
1055.0
  0
LINE
  5
3B
330
17
100
AcDbEntity
  8
0
100
AcDbLine
 10
26.9342639257804
 20
183.9
 30
1055.0
 11
58.18543956676234
 21
183.9
 31
1055.0
  0
SPLINE
  5
3C
330
17
100
AcDbEntity
  8
0
100
AcDbSpline
 70
0
 71
1
 72
4
 73
2
 74
0
 40
0.0
 40
0.0
 40
1.0
 40
1.0
 10
26.934263928088527
 20
183.90000060000014
 30
1055.0
 10
26.934263928088527
 20
180.0999993999999
 30
1055.0
  0
LINE
  5
3D
330
17
100
AcDbEntity
  8
0
100
AcDbLine
 10
26.9342639257804
 20
180.1
 30
1055.0
 11
58.78598581823875
 21
180.1
 31
1055.0
  0
SPLINE
  5
3E
330
17
100
AcDbEntity
  8
0
100
AcDbSpline
 70
0
 71
8
 72
18
 73
9
 74
0
 40
0.0
 40
0.0
 40
0.0
 40
0.0
 40
0.0
 40
0.0
 40
0.0
 40
0.0
 40
0.0
 40
1.0
 40
1.0
 40
1.0
 40
1.0
 40
1.0
 40
1.0
 40
1.0
 40
1.0
 40
1.0
 10
61.87866183581404
 20
157.8999999970023
 30
1055.0
 10
61.53199618805849
 20
160.6803727407708
 30
1055.0
 10
61.17457261110277
 20
163.45940438741434
 30
1055.0
 10
60.80613549157544
 20
166.23701692226933
 30
1055.0
 10
60.426381551191824
 20
169.0131181353496
 30
1055.0
 10
60.03495287905275
 20
171.7876006105197
 30
1055.0
 10
59.631427772379155
 20
174.56034041964148
 30
1055.0
 10
59.215306091412394
 20
177.33119503864538
 30
1055.0
 10
58.78598583420976
 20
180.10000000247646
 30
1055.0
  0
LINE
  5
3F
330
17
100
AcDbEntity
  8
0
100
AcDbLine
 10
26.9342639257804
 20
157.9
 30
1055.0
 11
61.87866185985616
 21
157.9
 31
1055.0
  0
SPLINE
  5
40
330
17
100
AcDbEntity
  8
0
100
AcDbSpline
 70
0
 71
1
 72
4
 73
2
 74
0
 40
0.0
 40
0.0
 40
1.0
 40
1.0
 10
26.934263928088527
 20
157.90000060000042
 30
1055.0
 10
26.934263928088527
 20
154.09999939999918
 30
1055.0
  0
LINE
  5
41
330
17
100
AcDbEntity
  8
0
100
AcDbLine
 10
26.9342639257804
 20
154.1
 30
1055.0
 11
62.343605755878755
 21
154.1
 31
1055.0
  0
SPLINE
  5
42
330
17
100
AcDbEntity
  8
0
100
AcDbSpline
 70
0
 71
8
 72
32
 73
23
 74
0
 40
0.0
 40
0.0
 40
0.0
 40
0.0
 40
0.0
 40
0.0
 40
0.0
 40
0.0
 40
0.0
 40
0.33825625287763866
 40
0.33825625287763866
 40
0.33825625287763866
 40
0.33825625287763866
 40
0.33825625287763866
 40
0.33825625287763866
 40
0.33825625287763866
 40
0.7491584574715703
 40
0.7491584574715703
 40
0.7491584574715703
 40
0.7491584574715703
 40
0.7491584574715703
 40
0.7491584574715703
 40
0.7491584574715703
 40
1.0
 40
1.0
 40
1.0
 40
1.0
 40
1.0
 40
1.0
 40
1.0
 40
1.0
 40
1.0
 10
64.72181886485569
 20
131.8999999465594
 30
1055.0
 10
64.63254949750888
 20
132.84405936468875
 30
1055.0
 10
64.54215927867816
 20
133.7880127578983
 30
1055.0
 10
64.45064527085373
 20
134.7318582949097
 30
1055.0
 10
64.35800563686779
 20
135.6755942220648
 30
1055.0
 10
64.26423888830604
 20
136.61921879750275
 30
1055.0
 10
64.16934313391934
 20
137.56273022533725
 30
1055.0
 10
64.07331532803519
 20
138.50612658983368
 30
1055.0
 10
63.858118009845036
 20
140.59526931591802
 30
1055.0
 10
63.738543543046084
 20
141.73965064106238
 30
1055.0
 10
63.617438968092
 20
142.88243539765926
 30
1055.0
 10
63.494816134502365
 20
144.023509218348
 30
1055.0
 10
63.37068689179677
 20
145.1627577357683
 30
1055.0
 10
63.24506308949471
 20
146.30006658255994
 30
1055.0
 10
63.117956577115656
 20
147.43532139136275
 30
1055.0
 10
62.91088717809337
 20
149.26011773962296
 30
1055.0
 10
62.83176359236186
 20
149.95175478888262
 30
1055.0
 10
62.75200588821033
 20
150.64331817740762
 30
1055.0
 10
62.67161136465443
 20
151.33480709173463
 30
1055.0
 10
62.59057717286818
 20
152.0262206692782
 30
1055.0
 10
62.50890031068663
 20
152.7175579975099
 30
1055.0
 10
62.42657761705025
 20
153.4088181131351
 30
1055.0
 10
62.34360576619852
 20
154.10000000123875
 30
1055.0
  0
LINE
  5
43
330
17
100
AcDbEntity
  8
0
100
AcDbLine
 10
26.9342639257804
 20
131.9
 30
1055.0
 11
64.7218194300118
 21
131.9
 31
1055.0
  0
SPLINE
  5
44
330
17
100
AcDbEntity
  8
0
100
AcDbSpline
 70
0
 71
1
 72
4
 73
2
 74
0
 40
0.0
 40
0.0
 40
1.0
 40
1.0
 10
26.934263928088527
 20
131.90000060000256
 30
1055.0
 10
26.934263928088527
 20
128.09999939999764
 30
1055.0
  0
LINE
  5
45
330
17
100
AcDbEntity
  8
0
100
AcDbLine
 10
26.9342639257804
 20
128.1
 30
1055.0
 11
65.0731687073192
 21
128.1
 31
1055.0
  0
SPLINE
  5
46
330
17
100
AcDbEntity
  8
0
100
AcDbSpline
 70
0
 71
8
 72
25
 73
16
 74
0
 40
0.0
 40
0.0
 40
0.0
 40
0.0
 40
0.0
 40
0.0
 40
0.0
 40
0.0
 40
0.0
 40
0.26079769733408376
 40
0.26079769733408376
 40
0.26079769733408376
 40
0.26079769733408376
 40
0.26079769733408376
 40
0.26079769733408376
 40
0.26079769733408376
 40
1.0
 40
1.0
 40
1.0
 40
1.0
 40
1.0
 40
1.0
 40
1.0
 40
1.0
 40
1.0
 10
66.82455726987043
 20
105.9000000009622
 30
1055.0
 10
66.77533034687465
 20
106.62430638345361
 30
1055.0
 10
66.7255450916901
 20
107.34857480993972
 30
1055.0
 10
66.67519794277985
 20
108.0728045396812
 30
1055.0
 10
66.62428532220598
 20
108.79699482075713
 30
1055.0
 10
66.57280363544396
 20
109.52114489005427
 30
1055.0
 10
66.52074927119716
 20
110.24525397325633
 30
1055.0
 10
66.46811860121129
 20
110.96932128483337
 30
1055.0
 10
66.264088344555
 20
113.74551429036525
 30
1055.0
 10
66.10860950944165
 20
115.79733992086908
 30
1055.0
 10
65.94838856713909
 20
117.84880454095565
 30
1055.0
 10
65.78334144199931
 20
119.89988878298752
 30
1055.0
 10
65.61338289033574
 20
121.95057229027614
 30
1055.0
 10
65.4384265004234
 20
124.00083371708209
 30
1055.0
 10
65.2583846924988
 20
126.0506507286151
 30
1055.0
 10
65.07316871875999
 20
128.100000001034
 30
1055.0
  0
LINE
  5
47
330
17
100
AcDbEntity
  8
0
100
AcDbLine
 10
26.9342639257804
 20
105.9
 30
1055.0
 11
66.82455725571312
 21
105.9
 31
1055.0
  0
SPLINE
  5
48
330
17
100
AcDbEntity
  8
0
100
AcDbSpline
 70
0
 71
1
 72
4
 73
2
 74
0
 40
0.0
 40
0.0
 40
1.0
 40
1.0
 10
26.934263928088527
 20
105.90000060000206
 30
1055.0
 10
26.934263928088527
 20
102.09999939999993
 30
1055.0
  0
LINE
  5
49
330
17
100
AcDbEntity
  8
0
100
AcDbLine
 10
26.9342639257804
 20
102.1
 30
1055.0
 11
67.07612517620265
 21
102.1
 31
1055.0
  0
SPLINE
  5
4A
330
17
100
AcDbEntity
  8
0
100
AcDbSpline
 70
0
 71
8
 72
18
 73
9
 74
0
 40
0.0
 40
0.0
 40
0.0
 40
0.0
 40
0.0
 40
0.0
 40
0.0
 40
0.0
 40
0.0
 40
1.0
 40
1.0
 40
1.0
 40
1.0
 40
1.0
 40
1.0
 40
1.0
 40
1.0
 40
1.0
 10
68.29362236107534
 20
79.90000000225643
 30
1055.0
 10
68.16669042552277
 20
82.6763106957136
 30
1055.0
 10
68.03291259992685
 20
85.45230805240908
 30
1055.0
 10
67.89210760440815
 20
88.22796445812772
 30
1055.0
 10
67.74409135122379
 20
91.00324993819568
 30
1055.0
 10
67.58867679221191
 20
93.77813214870143
 30
1055.0
 10
67.42567376623633
 20
96.55257636771654
 30
1055.0
 10
67.25488884663099
 20
99.32654548651657
 30
1055.0
 10
67.07612518864468
 20
102.10000000080198
 30
1055.0
  0
LINE
  5
4B
330
17
100
AcDbEntity
  8
0
100
AcDbLine
 10
26.9342639257804
 20
79.9
 30
1055.0
 11
68.29362231172193
 21
79.9
 31
1055.0
  0
SPLINE
  5
4C
330
17
100
AcDbEntity
  8
0
100
AcDbSpline
 70
0
 71
1
 72
4
 73
2
 74
0
 40
0.0
 40
0.0
 40
1.0
 40
1.0
 10
26.934263928088527
 20
79.90000060000001
 30
1055.0
 10
26.934263928088527
 20
76.09999939999999
 30
1055.0
  0
LINE
  5
4D
330
17
100
AcDbEntity
  8
0
100
AcDbLine
 10
26.9342639257804
 20
76.1
 30
1055.0
 11
68.4617859784378
 21
76.1
 31
1055.0
  0
SPLINE
  5
4E
330
17
100
AcDbEntity
  8
0
100
AcDbSpline
 70
0
 71
8
 72
25
 73
16
 74
0
 40
0.0
 40
0.0
 40
0.0
 40
0.0
 40
0.0
 40
0.0
 40
0.0
 40
0.0
 40
0.0
 40
0.9579656693493944
 40
0.9579656693493944
 40
0.9579656693493944
 40
0.9579656693493944
 40
0.9579656693493944
 40
0.9579656693493944
 40
0.9579656693493944
 40
1.0
 40
1.0
 40
1.0
 40
1.0
 40
1.0
 40
1.0
 40
1.0
 40
1.0
 40
1.0
 10
69.23532047044799
 20
53.89999999981154
 30
1055.0
 10
69.16265866443344
 20
56.559001667045465
 30
1055.0
 10
69.0848424698435
 20
59.217861698888306
 30
1055.0
 10
69.00172577266821
 20
61.8765644931872
 30
1055.0
 10
68.91316063286402
 20
64.53509340316708
 30
1055.0
 10
68.8189971681242
 20
67.19343073534824
 30
1055.0
 10
68.71908343522854
 20
69.85155774739651
 30
1055.0
 10
68.6132653089726
 20
72.50945464590609
 30
1055.0
 10
68.4964772508239
 20
75.28371475066925
 30
1055.0
 10
68.49155647421085
 20
75.40032842402017
 30
1055.0
 10
68.48662401562606
 20
75.51694160230824
 30
1055.0
 10
68.48167986185022
 20
75.6335542836667
 30
1055.0
 10
68.47672399965572
 20
75.7501664662215
 30
1055.0
 10
68.47175641580654
 20
75.86677814809129
 30
1055.0
 10
68.46677709705828
 20
75.98338932738734
 30
1055.0
 10
68.46178603015815
 20
76.10000000221366
 30
1055.0
  0
LINE
  5
4F
330
17
100
AcDbEntity
  8
0
100
AcDbLine
 10
26.9342639257804
 20
53.9
 30
1055.0
 11
69.23532047734541
 21
53.9
 31
1055.0
  0
SPLINE
  5
50
330
17
100
AcDbEntity
  8
0
100
AcDbSpline
 70
0
 71
1
 72
4
 73
2
 74
0
 40
0.0
 40
0.0
 40
1.0
 40
1.0
 10
26.934263928088527
 20
53.90000060000026
 30
1055.0
 10
26.934263928088527
 20
50.09999939999937
 30
1055.0
  0
LINE
  5
51
330
17
100
AcDbEntity
  8
0
100
AcDbLine
 10
26.9342639257804
 20
50.1
 30
1055.0
 11
69.33459993140036
 21
50.1
 31
1055.0
  0
SPLINE
  5
52
330
17
100
AcDbEntity
  8
0
100
AcDbSpline
 70
0
 71
8
 72
18
 73
9
 74
0
 40
0.0
 40
0.0
 40
0.0
 40
0.0
 40
0.0
 40
0.0
 40
0.0
 40
0.0
 40
0.0
 40
1.0
 40
1.0
 40
1.0
 40
1.0
 40
1.0
 40
1.0
 40
1.0
 40
1.0
 40
1.0
 10
69.74482465787054
 20
27.900000000293264
 30
1055.0
 10
69.71034595513743
 20
30.675276970322237
 30
1055.0
 10
69.67138195040047
 20
33.450498891707824
 30
1055.0
 10
69.62777741202922
 20
36.22565525750361
 30
1055.0
 10
69.57937559169468
 20
39.00073433390136
 30
1055.0
 10
69.52601809159401
 20
41.77572315796117
 30
1055.0
 10
69.46754472855116
 20
44.550607535254585
 30
1055.0
 10
69.40379339499398
 20
47.325372037420856
 30
1055.0
 10
69.33459991680735
 20
50.09999999963607
 30
1055.0
  0
LINE
  5
53
330
17
100
AcDbEntity
  8
0
100
AcDbLine
 10
26.9342639257804
 20
27.9
 30
1055.0
 11
69.7448246342627
 21
27.9
 31
1055.0
  0
SPLINE
  5
54
330
17
100
AcDbEntity
  8
0
100
AcDbSpline
 70
0
 71
1
 72
4
 73
2
 74
0
 40
0.0
 40
0.0
 40
1.0
 40
1.0
 10
26.934263928088527
 20
27.900000600000002
 30
1055.0
 10
26.934263928088527
 20
24.099999399999998
 30
1055.0
  0
LINE
  5
55
330
17
100
AcDbEntity
  8
0
100
AcDbLine
 10
26.9342639257804
 20
24.1
 30
1055.0
 11
69.78839809176007
 21
24.1
 31
1055.0
  0
SPLINE
  5
56
330
17
100
AcDbEntity
  8
0
100
AcDbSpline
 70
0
 71
8
 72
18
 73
9
 74
0
 40
0.0
 40
0.0
 40
0.0
 40
0.0
 40
0.0
 40
0.0
 40
0.0
 40
0.0
 40
0.0
 40
1.0
 40
1.0
 40
1.0
 40
1.0
 40
1.0
 40
1.0
 40
1.0
 40
1.0
 40
1.0
 10
69.90938403262471
 20
1.8999999999981396
 30
1055.0
 10
69.9072781341527
 20
4.675056481248455
 30
1055.0
 10
69.90175164542626
 20
7.4501065731575045
 30
1055.0
 10
69.89265651465549
 20
10.225146923879755
 30
1055.0
 10
69.87984377014968
 20
13.000172965391997
 30
1055.0
 10
69.86316339861166
 20
15.775178911530643
 30
1055.0
 10
69.8424642203114
 20
18.550157755942116
 30
1055.0
 10
69.81759376113877
 20
21.32510126994633
 30
1055.0
 10
69.78839812153541
 20
24.10000000031327
 30
1055.0
  0
LINE
  5
57
330
17
100
AcDbEntity
  8
0
100
AcDbLine
 10
26.9342639257804
 20
1.9
 30
1055.0
 11
69.90938403507425
 21
1.9
 31
1055.0
  0
SPLINE
  5
58
330
17
100
AcDbEntity
  8
0
100
AcDbSpline
 70
0
 71
1
 72
4
 73
2
 74
0
 40
0.0
 40
0.0
 40
0.9999993684216398
 40
0.9999993684216398
 10
26.934263928088527
 20
1.9000006000000558
 30
1055.0
 10
26.934263928088527
 20
-6.553790374438061e-17
 30
1055.0
  0
SPLINE
  5
59
330
17
100
AcDbEntity
  8
0
100
AcDbSpline
 70
0
 71
1
 72
4
 73
2
 74
0
 40
0.0
 40
0.0
 40
1.0
 40
1.0
 10
26.934263928088527
 20
-1.9000006000000011
 30
1055.0
 10
26.934263928088527
 20
1.2000000211287443e-06
 30
1055.0
  0
LINE
  5
5A
330
17
100
AcDbEntity
  8
0
100
AcDbLine
 10
26.934263925780392
 20
-1.9
 30
1055.0
 11
69.90949275084638
 21
-1.9
 31
1055.0
  0
SPLINE
  5
5B
330
17
100
AcDbEntity
  8
0
100
AcDbSpline
 70
0
 71
8
 72
18
 73
9
 74
0
 40
0.0
 40
0.0
 40
0.0
 40
0.0
 40
0.0
 40
0.0
 40
0.0
 40
0.0
 40
0.0
 40
1.0
 40
1.0
 40
1.0
 40
1.0
 40
1.0
 40
1.0
 40
1.0
 40
1.0
 40
1.0
 10
69.78969750485473
 20
-24.100000000297133
 30
1055.0
 10
69.81876166420955
 20
-21.325133280398052
 30
1055.0
 10
69.84349347412478
 20
-18.550219541397535
 30
1055.0
 10
69.86404796917597
 20
-15.775265462315804
 30
1055.0
 10
69.88057873526891
 20
-13.000275951057011
 30
1055.0
 10
69.89323803825323
 20
-10.225254148806084
 30
1055.0
 10
69.90217695306605
 20
-7.45020143442673
 30
1055.0
 10
69.9075454948106
 20
-4.675117428919851
 30
1055.0
 10
69.90949275317408
 20
-1.9000000000016366
 30
1055.0
  0
LINE
  5
5C
330
17
100
AcDbEntity
  8
0
100
AcDbLine
 10
26.934263925780392
 20
-24.1
 30
1055.0
 11
69.78969747648787
 21
-24.1
 31
1055.0
  0
SPLINE
  5
5D
330
17
100
AcDbEntity
  8
0
100
AcDbSpline
 70
0
 71
1
 72
4
 73
2
 74
0
 40
0.0
 40
0.0
 40
1.0
 40
1.0
 10
26.934263928088527
 20
-27.900000600000034
 30
1055.0
 10
26.934263928088527
 20
-24.099999399999938
 30
1055.0
  0
LINE
  5
5E
330
17
100
AcDbEntity
  8
0
100
AcDbLine
 10
26.934263925780392
 20
-27.9
 30
1055.0
 11
69.74629730498766
 21
-27.9
 31
1055.0
  0
SPLINE
  5
5F
330
17
100
AcDbEntity
  8
0
100
AcDbSpline
 70
0
 71
8
 72
18
 73
9
 74
0
 40
0.0
 40
0.0
 40
0.0
 40
0.0
 40
0.0
 40
0.0
 40
0.0
 40
0.0
 40
0.0
 40
1.0
 40
1.0
 40
1.0
 40
1.0
 40
1.0
 40
1.0
 40
1.0
 40
1.0
 40
1.0
 10
69.33674607917663
 20
-50.09999999990846
 30
1055.0
 10
69.4059014240982
 20
-47.32535289564625
 30
1055.0
 10
69.46959906936007
 20
-44.5505751954277
 30
1055.0
 10
69.52800438526597
 20
-41.77568402057378
 30
1055.0
 10
69.5812806848289
 20
-39.000694699132495
 30
1055.0
 10
69.6295893564095
 20
-36.22562077051951
 30
1055.0
 10
69.6730899935927
 20
-33.45047399002086
 30
1055.0
 10
69.71194052370817
 20
-30.675264333217193
 30
1055.0
 10
69.74629733640081
 20
-27.900000000388893
 30
1055.0
  0
LINE
  5
60
330
17
100
AcDbEntity
  8
0
100
AcDbLine
 10
26.934263925780392
 20
-50.1
 30
1055.0
 11
69.33674608284943
 21
-50.1
 31
1055.0
  0
SPLINE
  5
61
330
17
100
AcDbEntity
  8
0
100
AcDbSpline
 70
0
 71
1
 72
4
 73
2
 74
0
 40
0.0
 40
0.0
 40
1.0
 40
1.0
 10
26.934263928088527
 20
-53.9000006
 30
1055.0
 10
26.934263928088527
 20
-50.0999994
 30
1055.0
  0
LINE
  5
62
330
17
100
AcDbEntity
  8
0
100
AcDbLine
 10
26.934263925780392
 20
-53.9
 30
1055.0
 11
69.23750660127894
 21
-53.9
 31
1055.0
  0
SPLINE
  5
63
330
17
100
AcDbEntity
  8
0
100
AcDbSpline
 70
0
 71
8
 72
18
 73
9
 74
0
 40
0.0
 40
0.0
 40
0.0
 40
0.0
 40
0.0
 40
0.0
 40
0.0
 40
0.0
 40
0.0
 40
1.0
 40
1.0
 40
1.0
 40
1.0
 40
1.0
 40
1.0
 40
1.0
 40
1.0
 40
1.0
 10
68.46359894253976
 20
-76.10000000059476
 30
1055.0
 10
68.5824576998865
 20
-73.32583076572274
 30
1055.0
 10
68.694643806464
 20
-70.55137325072644
 30
1055.0
 10
68.80033679340892
 20
-67.77665518424153
 30
1055.0
 10
68.89971347651652
 20
-65.00170247525104
 30
1055.0
 10
68.99294810469388
 20
-62.2265392184661
 30
1055.0
 10
69.08021250234125
 20
-59.45118769942923
 30
1055.0
 10
69.16167620707185
 20
-56.6756683993995
 30
1055.0
 10
69.23750660418008
 20
-53.90000000007924
 30
1055.0
  0
LINE
  5
64
330
17
100
AcDbEntity
  8
0
100
AcDbLine
 10
26.934263925780392
 20
-76.1
 30
1055.0
 11
68.46359892865749
 21
-76.1
 31
1055.0
  0
SPLINE
  5
65
330
17
100
AcDbEntity
  8
0
100
AcDbSpline
 70
0
 71
1
 72
4
 73
2
 74
0
 40
0.0
 40
0.0
 40
1.0
 40
1.0
 10
26.934263928088527
 20
-79.90000060000018
 30
1055.0
 10
26.934263928088527
 20
-76.09999939999999
 30
1055.0
  0
LINE
  5
66
330
17
100
AcDbEntity
  8
0
100
AcDbLine
 10
26.934263925780392
 20
-79.9
 30
1055.0
 11
68.29524937521224
 21
-79.9
 31
1055.0
  0
SPLINE
  5
67
330
17
100
AcDbEntity
  8
0
100
AcDbSpline
 70
0
 71
8
 72
18
 73
9
 74
0
 40
0.0
 40
0.0
 40
0.0
 40
0.0
 40
0.0
 40
0.0
 40
0.0
 40
0.0
 40
0.0
 40
1.0
 40
1.0
 40
1.0
 40
1.0
 40
1.0
 40
1.0
 40
1.0
 40
1.0
 40
1.0
 10
67.07577655519869
 20
-102.10000000117107
 30
1055.0
 10
67.25489073949292
 20
-99.32657287810397
 30
1055.0
 10
67.42599413471535
 20
-96.55262382969912
 30
1055.0
 10
67.58928487752952
 20
-93.77819143335662
 30
1055.0
 10
67.7449576214134
 20
-91.00331241217756
 30
1055.0
 10
67.89320371307755
 20
-88.2280216415961
 30
1055.0
 10
68.03421135945437
 20
-85.45235215559242
 30
1055.0
 10
68.16816578667769
 20
-82.67633515254612
 30
1055.0
 10
68.29524939247182
 20
-79.90000000079006
 30
1055.0
  0
LINE
  5
68
330
17
100
AcDbEntity
  8
0
100
AcDbLine
 10
26.934263925780392
 20
-102.1
 30
1055.0
 11
67.0757765370658
 21
-102.1
 31
1055.0
  0
SPLINE
  5
69
330
17
100
AcDbEntity
  8
0
100
AcDbSpline
 70
0
 71
1
 72
4
 73
2
 74
0
 40
0.0
 40
0.0
 40
1.0
 40
1.0
 10
26.934263928088527
 20
-105.90000060000003
 30
1055.0
 10
26.934263928088527
 20
-102.09999939999999
 30
1055.0
  0
LINE
  5
6A
330
17
100
AcDbEntity
  8
0
100
AcDbLine
 10
26.934263925780392
 20
-105.9
 30
1055.0
 11
66.82369864772429
 21
-105.9
 31
1055.0
  0
SPLINE
  5
6B
330
17
100
AcDbEntity
  8
0
100
AcDbSpline
 70
0
 71
8
 72
18
 73
9
 74
0
 40
0.0
 40
0.0
 40
0.0
 40
0.0
 40
0.0
 40
0.0
 40
0.0
 40
0.0
 40
0.0
 40
1.0
 40
1.0
 40
1.0
 40
1.0
 40
1.0
 40
1.0
 40
1.0
 40
1.0
 40
1.0
 10
65.06813419399086
 20
-128.1000000004644
 30
1055.0
 10
65.31935969321094
 20
-125.32758915205628
 30
1055.0
 10
65.56107138546253
 20
-122.55434369955537
 30
1055.0
 10
65.79349150496864
 20
-119.78031343501513
 30
1055.0
 10
66.01683785949267
 20
-117.00554624894139
 30
1055.0
 10
66.23132404754317
 20
-114.23008813871522
 30
1055.0
 10
66.4371596626965
 20
-111.45398321645055
 30
1055.0
 10
66.63455048647222
 20
-108.677273716347
 30
1055.0
 10
66.82369867119671
 20
-105.9000000015986
 30
1055.0
  0
LINE
  5
6C
330
17
100
AcDbEntity
  8
0
100
AcDbLine
 10
26.934263925780392
 20
-128.1
 30
1055.0
 11
65.0681341888655
 21
-128.1
 31
1055.0
  0
SPLINE
  5
6D
330
17
100
AcDbEntity
  8
0
100
AcDbSpline
 70
0
 71
1
 72
4
 73
2
 74
0
 40
0.0
 40
0.0
 40
1.0
 40
1.0
 10
26.934263928088527
 20
-131.9000006
 30
1055.0
 10
26.934263928088527
 20
-128.09999939999992
 30
1055.0
  0
LINE
  5
6E
330
17
100
AcDbEntity
  8
0
100
AcDbLine
 10
26.934263925780392
 20
-131.9
 30
1055.0
 11
64.71584382308656
 21
-131.9
 31
1055.0
  0
SPLINE
  5
6F
330
17
100
AcDbEntity
  8
0
100
AcDbSpline
 70
0
 71
8
 72
32
 73
23
 74
0
 40
0.0
 40
0.0
 40
0.0
 40
0.0
 40
0.0
 40
0.0
 40
0.0
 40
0.0
 40
0.0
 40
0.29650057126108625
 40
0.29650057126108625
 40
0.29650057126108625
 40
0.29650057126108625
 40
0.29650057126108625
 40
0.29650057126108625
 40
0.29650057126108625
 40
0.6622338284194792
 40
0.6622338284194792
 40
0.6622338284194792
 40
0.6622338284194792
 40
0.6622338284194792
 40
0.6622338284194792
 40
0.6622338284194792
 40
1.0
 40
1.0
 40
1.0
 40
1.0
 40
1.0
 40
1.0
 40
1.0
 40
1.0
 40
1.0
 10
62.33084935451794
 20
-154.0999999985852
 30
1055.0
 10
62.42920872470659
 20
-153.28299927691006
 30
1055.0
 10
62.52665874337395
 20
-152.46588877142938
 30
1055.0
 10
62.623204832787536
 20
-151.64867017526785
 30
1055.0
 10
62.71885209335143
 20
-150.83134508214357
 30
1055.0
 10
62.81360531667199
 20
-150.01391498828903
 30
1055.0
 10
62.907468997848554
 20
-149.19638129427582
 30
1055.0
 10
63.00044734758734
 20
-148.37874530683064
 30
1055.0
 10
63.20614584003682
 20
-146.55233011437107
 30
1055.0
 10
63.31857512305446
 20
-145.54199915339015
 30
1055.0
 10
63.42982366043966
 20
-144.53009569122685
 30
1055.0
 10
63.53988295884243
 20
-143.51670006132045
 30
1055.0
 10
63.64874452491278
 20
-142.5018925971101
 30
1055.0
 10
63.7563998653007
 20
-141.48575363203506
 30
1055.0
 10
63.86284048665618
 20
-140.46836349953455
 30
1055.0
 10
64.06522948371118
 20
-138.50912942925407
 30
1055.0
 10
64.16135778126633
 20
-137.56745770901108
 30
1055.0
 10
64.25643609817152
 20
-136.62485065013044
 30
1055.0
 10
64.35045774430357
 20
-135.68137153042406
 30
1055.0
 10
64.44341602953924
 20
-134.73708362770375
 30
1055.0
 10
64.53530426375536
 20
-133.79205021978143
 30
1055.0
 10
64.62611575682872
 20
-132.8463345844689
 30
1055.0
 10
64.71584381863607
 20
-131.89999999957806
 30
1055.0
  0
LINE
  5
70
330
17
100
AcDbEntity
  8
0
100
AcDbLine
 10
26.934263925780392
 20
-154.1
 30
1055.0
 11
62.33084936626976
 21
-154.1
 31
1055.0
  0
SPLINE
  5
71
330
17
100
AcDbEntity
  8
0
100
AcDbSpline
 70
0
 71
1
 72
4
 73
2
 74
0
 40
0.0
 40
0.0
 40
1.0
 40
1.0
 10
26.934263928088527
 20
-157.90000060000003
 30
1055.0
 10
26.934263928088527
 20
-154.0999994
 30
1055.0
  0
LINE
  5
72
330
17
100
AcDbEntity
  8
0
100
AcDbLine
 10
26.934263925780392
 20
-157.9
 30
1055.0
 11
61.864563084237695
 21
-157.9
 31
1055.0
  0
SPLINE
  5
73
330
17
100
AcDbEntity
  8
0
100
AcDbSpline
 70
0
 71
8
 72
18
 73
9
 74
0
 40
0.0
 40
0.0
 40
0.0
 40
0.0
 40
0.0
 40
0.0
 40
0.0
 40
0.0
 40
0.0
 40
1.0
 40
1.0
 40
1.0
 40
1.0
 40
1.0
 40
1.0
 40
1.0
 40
1.0
 40
1.0
 10
58.76335093866345
 20
-180.1000000020328
 30
1055.0
 10
59.193783160465586
 20
-177.33121867410316
 30
1055.0
 10
59.61101033831137
 20
-174.5603814719301
 30
1055.0
 10
60.01563104811541
 20
-171.78765232005867
 30
1055.0
 10
60.40814226881321
 20
-169.01317343147213
 30
1055.0
 10
60.7889626626564
 20
-166.23706863215116
 30
1055.0
 10
61.15844721305881
 20
-163.45944544372645
 30
1055.0
 10
61.51689639495339
 20
-160.68039639036726
 30
1055.0
 10
61.864563052620355
 20
-157.89999999604652
 30
1055.0
  0
LINE
  5
74
330
17
100
AcDbEntity
  8
0
100
AcDbLine
 10
26.934263925780392
 20
-180.1
 30
1055.0
 11
58.76335092558743
 21
-180.1
 31
1055.0
  0
SPLINE
  5
75
330
17
100
AcDbEntity
  8
0
100
AcDbSpline
 70
0
 71
1
 72
4
 73
2
 74
0
 40
0.0
 40
0.0
 40
1.0
 40
1.0
 10
26.934263928088527
 20
-183.9000006000001
 30
1055.0
 10
26.934263928088527
 20
-180.09999939999994
 30
1055.0
  0
LINE
  5
76
330
17
100
AcDbEntity
  8
0
100
AcDbLine
 10
26.934263925780392
 20
-183.9
 30
1055.0
 11
58.16126754858288
 21
-183.9
 31
1055.0
  0
SPLINE
  5
77
330
17
100
AcDbEntity
  8
0
100
AcDbSpline
 70
0
 71
8
 72
25
 73
16
 74
0
 40
0.0
 40
0.0
 40
0.0
 40
0.0
 40
0.0
 40
0.0
 40
0.0
 40
0.0
 40
0.0
 40
0.8972338725854562
 40
0.8972338725854562
 40
0.8972338725854562
 40
0.8972338725854562
 40
0.8972338725854562
 40
0.8972338725854562
 40
0.8972338725854562
 40
1.0
 40
1.0
 40
1.0
 40
1.0
 40
1.0
 40
1.0
 40
1.0
 40
1.0
 40
1.0
 10
54.120181495594494
 20
-206.10000000914698
 30
1055.0
 10
54.63028938035447
 20
-203.6210098532559
 30
1055.0
 10
55.12350054764354
 20
-201.1385356567868
 30
1055.0
 10
55.60113057976304
 20
-198.65300519079605
 30
1055.0
 10
56.0642379111211
 20
-196.16475403622178
 30
1055.0
 10
56.51371039026074
 20
-193.67404370515857
 30
1055.0
 10
56.95029940601307
 20
-191.18106887957134
 30
1055.0
 10
57.37466069486794
 20
-188.6859661913619
 30
1055.0
 10
57.83462889513699
 20
-185.90279974762527
 30
1055.0
 10
57.88174478254114
 20
-185.6167593290985
 30
1055.0
 10
57.92870824587523
 20
-185.33069394710182
 30
1055.0
 10
57.97552010928603
 20
-185.04460381634348
 30
1055.0
 10
58.0221811822349
 20
-184.75848914860904
 30
1055.0
 10
58.06869225985405
 20
-184.47235015281217
 30
1055.0
 10
58.11505412329046
 20
-184.1861870350439
 30
1055.0
 10
58.161267540037926
 20
-183.89999999862013
 30
1055.0
  0
LINE
  5
78
330
17
100
AcDbEntity
  8
0
100
AcDbLine
 10
26.934263925780392
 20
-206.1
 30
1055.0
 11
54.12018145114242
 21
-206.1
 31
1055.0
  0
SPLINE
  5
79
330
17
100
AcDbEntity
  8
0
100
AcDbSpline
 70
0
 71
1
 72
4
 73
2
 74
0
 40
0.0
 40
0.0
 40
1.0
 40
1.0
 10
26.934263928088527
 20
-209.90000060000008
 30
1055.0
 10
26.934263928088527
 20
-206.09999939999992
 30
1055.0
  0
LINE
  5
7A
330
17
100
AcDbEntity
  8
0
100
AcDbLine
 10
26.934263925780392
 20
-209.9
 30
1055.0
 11
53.31952120924543
 21
-209.9
 31
1055.0
  0
SPLINE
  5
7B
330
17
100
AcDbEntity
  8
0
100
AcDbSpline
 70
0
 71
8
 72
25
 73
16
 74
0
 40
0.0
 40
0.0
 40
0.0
 40
0.0
 40
0.0
 40
0.0
 40
0.0
 40
0.0
 40
0.0
 40
0.5869362833434556
 40
0.5869362833434556
 40
0.5869362833434556
 40
0.5869362833434556
 40
0.5869362833434556
 40
0.5869362833434556
 40
0.5869362833434556
 40
1.0
 40
1.0
 40
1.0
 40
1.0
 40
1.0
 40
1.0
 40
1.0
 40
1.0
 40
1.0
 10
47.629995836508584
 20
-232.09999999194906
 30
1055.0
 10
48.13004403595274
 20
-230.49418967199705
 30
1055.0
 10
48.61128433211779
 20
-228.88248806376785
 30
1055.0
 10
49.075893935083194
 20
-227.26586031983126
 30
1055.0
 10
49.52550797726739
 20
-225.64502939512073
 30
1055.0
 10
49.96146717942225
 20
-224.02055006854613
 30
1055.0
 10
50.38487604497704
 20
-222.39282628082185
 30
1055.0
 10
50.796692584818686
 20
-220.76213882409658
 30
1055.0
 10
51.47998668381705
 20
-217.9790598710021
 30
1055.0
 10
51.756876030222465
 20
-216.8281750110481
 30
1055.0
 10
52.02869300210126
 20
-215.67608183730152
 30
1055.0
 10
52.29568593599286
 20
-214.52285902057383
 30
1055.0
 10
52.55807586123882
 20
-213.36857768386056
 30
1055.0
 10
52.81606130952172
 20
-212.21330240822024
 30
1055.0
 10
53.06982191470702
 20
-211.0570919849173
 30
1055.0
 10
53.31952118744811
 20
-209.8999999952962
 30
1055.0
  0
LINE
  5
7C
330
17
100
AcDbEntity
  8
0
100
AcDbLine
 10
26.934263925780392
 20
-232.1
 30
1055.0
 11
47.62999586236263
 21
-232.1
 31
1055.0
  0
SPLINE
  5
7D
330
17
100
AcDbEntity
  8
0
100
AcDbSpline
 70
0
 71
1
 72
4
 73
2
 74
0
 40
0.0
 40
0.0
 40
1.0
 40
1.0
 10
26.934263928088527
 20
-235.90000060000008
 30
1055.0
 10
26.934263928088527
 20
-232.09999939999992
 30
1055.0
  0
LINE
  5
7E
330
17
100
AcDbEntity
  8
0
100
AcDbLine
 10
26.934263925780392
 20
-235.9
 30
1055.0
 11
46.39166255752144
 21
-235.9
 31
1055.0
  0
SPLINE
  5
7F
330
17
100
AcDbEntity
  8
0
100
AcDbSpline
 70
0
 71
8
 72
46
 73
37
 74
0
 40
0.0
 40
0.0
 40
0.0
 40
0.0
 40
0.0
 40
0.0
 40
0.0
 40
0.0
 40
0.0
 40
0.07919025106815306
 40
0.07919025106815306
 40
0.07919025106815306
 40
0.07919025106815306
 40
0.07919025106815306
 40
0.07919025106815306
 40
0.07919025106815306
 40
0.3892257088447731
 40
0.3892257088447731
 40
0.3892257088447731
 40
0.3892257088447731
 40
0.3892257088447731
 40
0.3892257088447731
 40
0.3892257088447731
 40
0.7834172975082264
 40
0.7834172975082264
 40
0.7834172975082264
 40
0.7834172975082264
 40
0.7834172975082264
 40
0.7834172975082264
 40
0.7834172975082264
 40
0.9775242196659204
 40
0.9775242196659204
 40
0.9775242196659204
 40
0.9775242196659204
 40
0.9775242196659204
 40
0.9775242196659204
 40
0.9775242196659204
 40
1.0
 40
1.0
 40
1.0
 40
1.0
 40
1.0
 40
1.0
 40
1.0
 40
1.0
 40
1.0
 10
33.92479025029644
 20
-258.09999999572375
 30
1055.0
 10
34.11660313725918
 20
-257.93258227615553
 30
1055.0
 10
34.30599904824639
 20
-257.7623912018751
 30
1055.0
 10
34.49300762111568
 20
-257.5895567392804
 30
1055.0
 10
34.67766240436303
 20
-257.4142025125104
 30
1055.0
 10
34.8600003802395
 20
-257.23644523236
 30
1055.0
 10
35.040061583839936
 20
-257.05639424317184
 30
1055.0
 10
35.217888818163736
 20
-256.87415118770843
 30
1055.0
 10
36.0811652436159
 20
-255.9681001243009
 30
1055.0
 10
36.73490776515552
 20
-255.2145930522239
 30
1055.0
 10
37.35774689424469
 20
-254.4347389606597
 30
1055.0
 10
37.95225948249854
 20
-253.63300841230435
 30
1055.0
 10
38.520775387326346
 20
-252.81301991097843
 30
1055.0
 10
39.06545735806919
 20
-251.97759971428437
 30
1055.0
 10
39.58833801154087
 20
-251.12880938371904
 30
1055.0
 10
40.7309204479814
 20
-249.17347943930938
 30
1055.0
 10
41.33798511028168
 20
-248.060187107349
 30
1055.0
 10
41.91629760312604
 20
-246.93139988924526
 30
1055.0
 10
42.468756256466236
 20
-245.7897004208796
 30
1055.0
 10
42.99777201259084
 20
-244.63713143104718
 30
1055.0
 10
43.50542711014927
 20
-243.4752732352023
 30
1055.0
 10
43.993540447569124
 20
-242.30527549010384
 30
1055.0
 10
44.69528414304295
 20
-240.548135802085
 30
1055.0
 10
44.92245417015374
 20
-239.96662785673482
 30
1055.0
 10
45.14546201905226
 20
-239.38349793639816
 30
1055.0
 10
45.364471045884876
 20
-238.7988495857363
 30
1055.0
 10
45.57962292615345
 20
-238.21277281530894
 30
1055.0
 10
45.791058154694014
 20
-237.62535123894892
 30
1055.0
 10
45.99893654565556
 20
-237.03666921113648
 30
1055.0
 10
46.22713938801979
 20
-236.3785197794258
 30
1055.0
 10
46.250775914492465
 20
-236.31020516551308
 30
1055.0
 10
46.27436758788583
 20
-236.24187524092133
 30
1055.0
 10
46.29791468060746
 20
-236.17353012259073
 30
1055.0
 10
46.3214174615611
 20
-236.10516992614
 30
1055.0
 10
46.34487619622208
 20
-236.0367947658888
 30
1055.0
 10
46.368291146710504
 20
-235.96840475487974
 30
1055.0
 10
46.39166257186211
 20
-235.90000000489968
 30
1055.0
  0
LINE
  5
80
330
17
100
AcDbEntity
  8
0
100
AcDbLine
 10
26.934263925780392
 20
-258.1
 30
1055.0
 11
33.924790254028764
 21
-258.1
 31
1055.0
  0
SPLINE
  5
81
330
17
100
AcDbEntity
  8
0
100
AcDbSpline
 70
0
 71
1
 72
4
 73
2
 74
0
 40
0.0
 40
0.0
 40
1.0
 40
1.0
 10
26.934263928088527
 20
-261.64812515318135
 30
1055.0
 10
26.934263928088527
 20
-258.09999939999994
 30
1055.0
  0
SPLINE
  5
82
330
17
100
AcDbEntity
  8
0
100
AcDbSpline
 70
0
 71
8
 72
67
 73
58
 74
0
 40
0.0
 40
0.0
 40
0.0
 40
0.0
 40
0.0
 40
0.0
 40
0.0
 40
0.0
 40
0.0
 40
0.021701080415738823
 40
0.021701080415738823
 40
0.021701080415738823
 40
0.021701080415738823
 40
0.021701080415738823
 40
0.021701080415738823
 40
0.021701080415738823
 40
0.038343555634070575
 40
0.038343555634070575
 40
0.038343555634070575
 40
0.038343555634070575
 40
0.038343555634070575
 40
0.038343555634070575
 40
0.038343555634070575
 40
0.04815664892201959
 40
0.04815664892201959
 40
0.04815664892201959
 40
0.04815664892201959
 40
0.04815664892201959
 40
0.04815664892201959
 40
0.04815664892201959
 40
0.05252539726194614
 40
0.05252539726194614
 40
0.05252539726194614
 40
0.05252539726194614
 40
0.05252539726194614
 40
0.05252539726194614
 40
0.05252539726194614
 40
0.05483535046794561
 40
0.05483535046794561
 40
0.05483535046794561
 40
0.05483535046794561
 40
0.05483535046794561
 40
0.05483535046794561
 40
0.05483535046794561
 40
0.057131539886880925
 40
0.057131539886880925
 40
0.057131539886880925
 40
0.057131539886880925
 40
0.057131539886880925
 40
0.057131539886880925
 40
0.057131539886880925
 40
0.06591486745880287
 40
0.06591486745880287
 40
0.06591486745880287
 40
0.06591486745880287
 40
0.06591486745880287
 40
0.06591486745880287
 40
0.06591486745880287
 40
0.06593760370581048
 40
0.06593760370581048
 40
0.06593760370581048
 40
0.06593760370581048
 40
0.06593760370581048
 40
0.06593760370581048
 40
0.06593760370581048
 40
0.06593760370581048
 40
0.06593760370581048
 10
2.2842809614095927
 20
-233.00407148134803
 30
1055.0
 10
2.5290436426730807
 20
-234.71930580738666
 30
1055.0
 10
2.8197582227501563
 20
-236.42736961350687
 30
1055.0
 10
3.160341045557878
 20
-238.12699836853227
 30
1055.0
 10
3.555237937865172
 20
-239.81578755625517
 30
1055.0
 10
4.009474128246831
 20
-241.49017424355017
 30
1055.0
 10
4.528645518451491
 20
-243.14543838912886
 30
1055.0
 10
5.119028285911638
 20
-244.77567020958992
 30
1055.0
 10
6.301003207488876
 20
-247.59913442114848
 30
1055.0
 10
6.859967890872813
 20
-248.80501416342844
 30
1055.0
 10
7.468139835112223
 20
-249.9881248310487
 30
1055.0
 10
8.12879855257885
 20
-251.14397992665505
 30
1055.0
 10
8.84507819605558
 20
-252.26687475165912
 30
1055.0
 10
9.61978302093923
 20
-253.35000186260353
 30
1055.0
 10
10.455127417865926
 20
-254.38561457098908
 30
1055.0
 10
11.881384447129667
 20
-255.94292348665277
 30
1055.0
 10
12.43183466292641
 20
-256.5010098631617
 30
1055.0
 10
13.003805309826177
 20
-257.0376730688286
 30
1055.0
 10
13.597217889891693
 20
-257.55096160816504
 30
1055.0
 10
14.211773218137234
 20
-258.0388750176498
 30
1055.0
 10
14.846908414450322
 20
-258.4994166062578
 30
1055.0
 10
15.501745154965402
 20
-258.9306575243288
 30
1055.0
 10
16.47477243335901
 20
-259.50895934152703
 30
1055.0
 10
16.778175372741767
 20
-259.68094732872527
 30
1055.0
 10
17.08512828342387
 20
-259.8466189717817
 30
1055.0
 10
17.395511467850607
 20
-260.00582549338526
 30
1055.0
 10
17.709194856148187
 20
-260.1584272877091
 30
1055.0
 10
18.02603761374547
 20
-260.3042947186161
 30
1055.0
 10
18.34588774899578
 20
-260.4433089178652
 30
1055.0
 10
18.839204498016283
 20
-260.64518527946194
 30
1055.0
 10
19.010207898203316
 20
-260.7128924219701
 30
1055.0
 10
19.18157893777069
 20
-260.77849204726004
 30
1055.0
 10
19.353304633129472
 20
-260.8419921917506
 30
1055.0
 10
19.525372000690872
 20
-260.9034008918605
 30
1055.0
 10
19.697768056866277
 20
-260.9627261840085
 30
1055.0
 10
19.87047981806725
 20
-261.0199761046131
 30
1055.0
 10
20.21547788172557
 20
-261.1300124717884
 30
1055.0
 10
20.38807760376133
 20
-261.1829366748914
 30
1055.0
 10
20.561271012992744
 20
-261.2339142668623
 30
1055.0
 10
20.735037707748877
 20
-261.28291686503127
 30
1055.0
 10
20.909359338507883
 20
-261.32990473659765
 30
1055.0
 10
21.084219607897044
 20
-261.37482679863064
 30
1055.0
 10
21.259604270692744
 20
-261.4176206180688
 30
1055.0
 10
22.108337510028964
 20
-261.61348314741497
 30
1055.0
 10
22.788980965013586
 20
-261.73679873704106
 30
1055.0
 10
23.475868071510796
 20
-261.82491568770837
 30
1055.0
 10
24.167027128843166
 20
-261.87474864464826
 30
1055.0
 10
24.860070650902113
 20
-261.88360961469584
 30
1055.0
 10
25.55218621203899
 20
-261.84953385151874
 30
1055.0
 10
26.240124361561428
 20
-261.7716609182588
 30
1055.0
 10
26.92194269428414
 20
-261.65032617085467
 30
1055.0
 10
26.923703021054845
 20
-261.6500126088236
 30
1055.0
 10
26.925463297779178
 20
-261.6496987571757
 30
1055.0
 10
26.927223524392506
 20
-261.6493846159206
 30
1055.0
 10
26.92898370083024
 20
-261.6490701850681
 30
1055.0
 10
26.93074382702784
 20
-261.648755464628
 30
1055.0
 10
26.932503902920796
 20
-261.64844045460995
 30
1055.0
 10
26.93426392844465
 20
-261.64812515502405
 30
1055.0
  0
SPLINE
  5
83
330
17
100
AcDbEntity
  8
0
100
AcDbSpline
 70
0
 71
8
 72
417
 73
408
 74
0
 40
0.0
 40
0.0
 40
0.0
 40
0.0
 40
0.0
 40
0.0
 40
0.0
 40
0.0
 40
0.0
 40
0.003151346840118155
 40
0.003151346840118155
 40
0.003151346840118155
 40
0.003151346840118155
 40
0.003151346840118155
 40
0.003151346840118155
 40
0.003151346840118155
 40
0.006443306241832572
 40
0.006443306241832572
 40
0.006443306241832572
 40
0.006443306241832572
 40
0.006443306241832572
 40
0.006443306241832572
 40
0.006443306241832572
 40
0.010064461583763146
 40
0.010064461583763146
 40
0.010064461583763146
 40
0.010064461583763146
 40
0.010064461583763146
 40
0.010064461583763146
 40
0.010064461583763146
 40
0.012368833165045084
 40
0.012368833165045084
 40
0.012368833165045084
 40
0.012368833165045084
 40
0.012368833165045084
 40
0.012368833165045084
 40
0.012368833165045084
 40
0.015660792566916038
 40
0.015660792566916038
 40
0.015660792566916038
 40
0.015660792566916038
 40
0.015660792566916038
 40
0.015660792566916038
 40
0.015660792566916038
 40
0.019281947908954235
 40
0.019281947908954235
 40
0.019281947908954235
 40
0.019281947908954235
 40
0.019281947908954235
 40
0.019281947908954235
 40
0.019281947908954235
 40
0.0256816925450709
 40
0.0256816925450709
 40
0.0256816925450709
 40
0.0256816925450709
 40
0.0256816925450709
 40
0.0256816925450709
 40
0.0256816925450709
 40
0.03629107187127094
 40
0.03629107187127094
 40
0.03629107187127094
 40
0.03629107187127094
 40
0.03629107187127094
 40
0.03629107187127094
 40
0.03629107187127094
 40
0.05886631877602179
 40
0.05886631877602179
 40
0.05886631877602179
 40
0.05886631877602179
 40
0.05886631877602179
 40
0.05886631877602179
 40
0.05886631877602179
 40
0.07406662243497833
 40
0.07406662243497833
 40
0.07406662243497833
 40
0.07406662243497833
 40
0.07406662243497833
 40
0.07406662243497833
 40
0.07406662243497833
 40
0.0820532381287245
 40
0.0820532381287245
 40
0.0820532381287245
 40
0.0820532381287245
 40
0.0820532381287245
 40
0.0820532381287245
 40
0.0820532381287245
 40
0.09182831957313686
 40
0.09182831957313686
 40
0.09182831957313686
 40
0.09182831957313686
 40
0.09182831957313686
 40
0.09182831957313686
 40
0.09182831957313686
 40
0.13765845739135693
 40
0.13765845739135693
 40
0.13765845739135693
 40
0.13765845739135693
 40
0.13765845739135693
 40
0.13765845739135693
 40
0.13765845739135693
 40
0.25926590359884677
 40
0.25926590359884677
 40
0.25926590359884677
 40
0.25926590359884677
 40
0.25926590359884677
 40
0.25926590359884677
 40
0.25926590359884677
 40
0.3405526728601799
 40
0.3405526728601799
 40
0.3405526728601799
 40
0.3405526728601799
 40
0.3405526728601799
 40
0.3405526728601799
 40
0.3405526728601799
 40
0.4243550895276931
 40
0.4243550895276931
 40
0.4243550895276931
 40
0.4243550895276931
 40
0.4243550895276931
 40
0.4243550895276931
 40
0.4243550895276931
 40
0.4933647841361555
 40
0.4933647841361555
 40
0.4933647841361555
 40
0.4933647841361555
 40
0.4933647841361555
 40
0.4933647841361555
 40
0.4933647841361555
 40
0.5532156463006882
 40
0.5532156463006882
 40
0.5532156463006882
 40
0.5532156463006882
 40
0.5532156463006882
 40
0.5532156463006882
 40
0.5532156463006882
 40
0.5956632510039258
 40
0.5956632510039258
 40
0.5956632510039258
 40
0.5956632510039258
 40
0.5956632510039258
 40
0.5956632510039258
 40
0.5956632510039258
 40
0.6102180467655887
 40
0.6102180467655887
 40
0.6102180467655887
 40
0.6102180467655887
 40
0.6102180467655887
 40
0.6102180467655887
 40
0.6102180467655887
 40
0.6229547387132698
 40
0.6229547387132698
 40
0.6229547387132698
 40
0.6229547387132698
 40
0.6229547387132698
 40
0.6229547387132698
 40
0.6229547387132698
 40
0.6377383538154413
 40
0.6377383538154413
 40
0.6377383538154413
 40
0.6377383538154413
 40
0.6377383538154413
 40
0.6377383538154413
 40
0.6377383538154413
 40
0.6453464566412377
 40
0.6453464566412377
 40
0.6453464566412377
 40
0.6453464566412377
 40
0.6453464566412377
 40
0.6453464566412377
 40
0.6453464566412377
 40
0.6495474405724623
 40
0.6495474405724623
 40
0.6495474405724623
 40
0.6495474405724623
 40
0.6495474405724623
 40
0.6495474405724623
 40
0.6495474405724623
 40
0.6531027401836476
 40
0.6531027401836476
 40
0.6531027401836476
 40
0.6531027401836476
 40
0.6531027401836476
 40
0.6531027401836476
 40
0.6531027401836476
 40
0.6543250118326777
 40
0.6543250118326777
 40
0.6543250118326777
 40
0.6543250118326777
 40
0.6543250118326777
 40
0.6543250118326777
 40
0.6543250118326777
 40
0.6563621312477292
 40
0.6563621312477292
 40
0.6563621312477292
 40
0.6563621312477292
 40
0.6563621312477292
 40
0.6563621312477292
 40
0.6563621312477292
 40
0.6583992506627847
 40
0.6583992506627847
 40
0.6583992506627847
 40
0.6583992506627847
 40
0.6583992506627847
 40
0.6583992506627847
 40
0.6583992506627847
 40
0.6605615191156787
 40
0.6605615191156787
 40
0.6605615191156787
 40
0.6605615191156787
 40
0.6605615191156787
 40
0.6605615191156787
 40
0.6605615191156787
 40
0.6626166461353035
 40
0.6626166461353035
 40
0.6626166461353035
 40
0.6626166461353035
 40
0.6626166461353035
 40
0.6626166461353035
 40
0.6626166461353035
 40
0.6646529458337492
 40
0.6646529458337492
 40
0.6646529458337492
 40
0.6646529458337492
 40
0.6646529458337492
 40
0.6646529458337492
 40
0.6646529458337492
 40
0.6666892455321798
 40
0.6666892455321798
 40
0.6666892455321798
 40
0.6666892455321798
 40
0.6666892455321798
 40
0.6666892455321798
 40
0.6666892455321798
 40
0.6683861619475331
 40
0.6683861619475331
 40
0.6683861619475331
 40
0.6683861619475331
 40
0.6683861619475331
 40
0.6683861619475331
 40
0.6683861619475331
 40
0.6700830783628874
 40
0.6700830783628874
 40
0.6700830783628874
 40
0.6700830783628874
 40
0.6700830783628874
 40
0.6700830783628874
 40
0.6700830783628874
 40
0.6733820241672698
 40
0.6733820241672698
 40
0.6733820241672698
 40
0.6733820241672698
 40
0.6733820241672698
 40
0.6733820241672698
 40
0.6733820241672698
 40
0.678851031938165
 40
0.678851031938165
 40
0.678851031938165
 40
0.678851031938165
 40
0.678851031938165
 40
0.678851031938165
 40
0.678851031938165
 40
0.6904883662768105
 40
0.6904883662768105
 40
0.6904883662768105
 40
0.6904883662768105
 40
0.6904883662768105
 40
0.6904883662768105
 40
0.6904883662768105
 40
0.6983239958606603
 40
0.6983239958606603
 40
0.6983239958606603
 40
0.6983239958606603
 40
0.6983239958606603
 40
0.6983239958606603
 40
0.6983239958606603
 40
0.7024410300934805
 40
0.7024410300934805
 40
0.7024410300934805
 40
0.7024410300934805
 40
0.7024410300934805
 40
0.7024410300934805
 40
0.7024410300934805
 40
0.7074800018845642
 40
0.7074800018845642
 40
0.7074800018845642
 40
0.7074800018845642
 40
0.7074800018845642
 40
0.7074800018845642
 40
0.7074800018845642
 40
0.7310997394262595
 40
0.7310997394262595
 40
0.7310997394262595
 40
0.7310997394262595
 40
0.7310997394262595
 40
0.7310997394262595
 40
0.7310997394262595
 40
0.7924571865521474
 40
0.7924571865521474
 40
0.7924571865521474
 40
0.7924571865521474
 40
0.7924571865521474
 40
0.7924571865521474
 40
0.7924571865521474
 40
0.8354385309565404
 40
0.8354385309565404
 40
0.8354385309565404
 40
0.8354385309565404
 40
0.8354385309565404
 40
0.8354385309565404
 40
0.8354385309565404
 40
0.8771460793172131
 40
0.8771460793172131
 40
0.8771460793172131
 40
0.8771460793172131
 40
0.8771460793172131
 40
0.8771460793172131
 40
0.8771460793172131
 40
0.9125641248752767
 40
0.9125641248752767
 40
0.9125641248752767
 40
0.9125641248752767
 40
0.9125641248752767
 40
0.9125641248752767
 40
0.9125641248752767
 40
0.9442559747954666
 40
0.9442559747954666
 40
0.9442559747954666
 40
0.9442559747954666
 40
0.9442559747954666
 40
0.9442559747954666
 40
0.9442559747954666
 40
0.9659286403068335
 40
0.9659286403068335
 40
0.9659286403068335
 40
0.9659286403068335
 40
0.9659286403068335
 40
0.9659286403068335
 40
0.9659286403068335
 40
0.9733585896787139
 40
0.9733585896787139
 40
0.9733585896787139
 40
0.9733585896787139
 40
0.9733585896787139
 40
0.9733585896787139
 40
0.9733585896787139
 40
0.9798604286243832
 40
0.9798604286243832
 40
0.9798604286243832
 40
0.9798604286243832
 40
0.9798604286243832
 40
0.9798604286243832
 40
0.9798604286243832
 40
0.9874072001984059
 40
0.9874072001984059
 40
0.9874072001984059
 40
0.9874072001984059
 40
0.9874072001984059
 40
0.9874072001984059
 40
0.9874072001984059
 40
0.9912910276125612
 40
0.9912910276125612
 40
0.9912910276125612
 40
0.9912910276125612
 40
0.9912910276125612
 40
0.9912910276125612
 40
0.9912910276125612
 40
0.9934355845485076
 40
0.9934355845485076
 40
0.9934355845485076
 40
0.9934355845485076
 40
0.9934355845485076
 40
0.9934355845485076
 40
0.9934355845485076
 40
0.9952505782399217
 40
0.9952505782399217
 40
0.9952505782399217
 40
0.9952505782399217
 40
0.9952505782399217
 40
0.9952505782399217
 40
0.9952505782399217
 40
0.9958745848595704
 40
0.9958745848595704
 40
0.9958745848595704
 40
0.9958745848595704
 40
0.9958745848595704
 40
0.9958745848595704
 40
0.9958745848595704
 40
0.99691459589232
 40
0.99691459589232
 40
0.99691459589232
 40
0.99691459589232
 40
0.99691459589232
 40
0.99691459589232
 40
0.99691459589232
 40
0.9979546069250718
 40
0.9979546069250718
 40
0.9979546069250718
 40
0.9979546069250718
 40
0.9979546069250718
 40
0.9979546069250718
 40
0.9979546069250718
 40
0.9986826146479963
 40
0.9986826146479963
 40
0.9986826146479963
 40
0.9986826146479963
 40
0.9986826146479963
 40
0.9986826146479963
 40
0.9986826146479963
 40
1.0
 40
1.0
 40
1.0
 40
1.0
 40
1.0
 40
1.0
 40
1.0
 40
1.0
 40
1.0
 10
2.2842809614095922
 20
233.00407148134806
 30
1055.0
 10
2.284428658149826
 20
233.00421917831244
 30
1055.0
 10
2.2843945497432396
 20
233.0040160599473
 30
1055.0
 10
2.284297560715808
 20
233.00378106804172
 30
1055.0
 10
2.2842169296140264
 20
233.00367220702714
 30
1055.0
 10
2.2841922090049134
 20
233.00368654397673
 30
1055.0
 10
2.284223265476008
 20
233.0036602086059
 30
1055.0
 10
2.2842702796353724
 20
233.0032683932722
 30
1055.0
 10
2.284236474864785
 20
233.00072684843073
 30
1055.0
 10
2.284210852685455
 20
232.9988004955352
 30
1055.0
 10
2.284174524182378
 20
232.99606920885617
 30
1055.0
 10
2.2841251339643307
 20
232.99235590296132
 30
1055.0
 10
2.284060326640089
 20
232.9874834924183
 30
1055.0
 10
2.283977746818428
 20
232.98127489179464
 30
1055.0
 10
2.2838750391081235
 20
232.97355301565804
 30
1055.0
 10
2.283612138028757
 20
232.95378731778558
 30
1055.0
 10
2.2834472231709304
 20
232.9413885202517
 30
1055.0
 10
2.283251968518745
 20
232.92670868526366
 30
1055.0
 10
2.2830232390464773
 20
232.9095121121105
 30
1055.0
 10
2.2827578997284084
 20
232.88956310008183
 30
1055.0
 10
2.2824528155388197
 20
232.86662594846726
 30
1055.0
 10
2.282104851451995
 20
232.84046495655653
 30
1055.0
 10
2.2814601585269068
 20
232.7919949936012
 30
1055.0
 10
2.2811908104692407
 20
232.77174459241158
 30
1055.0
 10
2.28090202037003
 20
232.75003247976716
 30
1055.0
 10
2.2805929803300846
 20
232.72679791536464
 30
1055.0
 10
2.2802628824502134
 20
232.70198015890048
 30
1055.0
 10
2.2799109188312268
 20
232.67551847007155
 30
1055.0
 10
2.279536281573937
 20
232.6473521085747
 30
1055.0
 10
2.2785694216437484
 20
232.57466065629498
 30
1055.0
 10
2.2779527590032567
 20
232.5282980948686
 30
1055.0
 10
2.277285819466453
 20
232.478155564395
 30
1055.0
 10
2.2765662476421107
 20
232.42405597944176
 30
1055.0
 10
2.2757916881390043
 20
232.36582225457636
 30
1055.0
 10
2.2749597855659096
 20
232.3032773043665
 30
1055.0
 10
2.274068184531604
 20
232.23624404337988
 30
1055.0
 10
2.2720655092694577
 20
232.08567686326953
 30
1055.0
 10
2.270941403732595
 20
232.00116321094092
 30
1055.0
 10
2.269739078008564
 20
231.91076872848876
 30
1055.0
 10
2.268455397071652
 20
231.81425771520273
 30
1055.0
 10
2.2670872258961396
 20
231.7113944703727
 30
1055.0
 10
2.265631429456306
 20
231.60194329328795
 30
1055.0
 10
2.2640848727264276
 20
231.48566848323756
 30
1055.0
 10
2.2595452149885746
 20
231.14436329153997
 30
1055.0
 10
2.2566437645788007
 20
230.92622347891404
 30
1055.0
 10
2.2537408435242092
 20
230.70797309877383
 30
1055.0
 10
2.250836874283851
 20
230.48964391284989
 30
1055.0
 10
2.247932141113318
 20
230.27125729234547
 30
1055.0
 10
2.2450268271374547
 20
230.05282700514957
 30
1055.0
 10
2.242120996982801
 20
229.83435791006474
 30
1055.0
 10
2.234396552929419
 20
229.25361085585075
 30
1055.0
 10
2.229577300568016
 20
228.89128489516045
 30
1055.0
 10
2.2247572236751694
 20
228.52889694372652
 30
1055.0
 10
2.2199365281573757
 20
228.166462482167
 30
1055.0
 10
2.2151153572706446
 20
227.80399228093793
 30
1055.0
 10
2.210293807844444
 20
227.4414936200009
 30
1055.0
 10
2.205471929385729
 20
227.07897022137172
 30
1055.0
 10
2.190388802275357
 20
225.94497513031428
 30
1055.0
 10
2.1801266295149313
 20
225.17343396057302
 30
1055.0
 10
2.1698636210947275
 20
224.40182996344691
 30
1055.0
 10
2.159600006347462
 20
223.63018038077007
 30
1055.0
 10
2.149335940909444
 20
222.85849691379943
 30
1055.0
 10
2.1390715265860063
 20
222.08678721661764
 30
1055.0
 10
2.12880680575163
 20
221.3150544749748
 30
1055.0
 10
2.1116301662968207
 20
220.02366279736816
 30
1055.0
 10
2.1044989480866576
 20
219.4875162553143
 30
1055.0
 10
2.0971440584998158
 20
218.93455342302389
 30
1055.0
 10
2.089561427420262
 20
218.36446829686983
 30
1055.0
 10
2.0817469847319607
 20
217.77695487322518
 30
1055.0
 10
2.073696660318877
 20
217.17170714846267
 30
1055.0
 10
2.0654063840649735
 20
216.54841911895508
 30
1055.0
 10
2.052387954381945
 20
215.56965422187486
 30
1055.0
 10
2.047903830866252
 20
215.23252189482838
 30
1055.0
 10
2.0434196706199326
 20
214.8953879033445
 30
1055.0
 10
2.0389354539096414
 20
214.55825234384614
 30
1055.0
 10
2.0344511859558922
 20
214.22111530577033
 30
1055.0
 10
2.029966896933059
 20
213.8839768715686
 30
1055.0
 10
2.0254826419693743
 20
213.5468371167068
 30
1055.0
 10
2.015510213813669
 20
212.7970581503017
 30
1055.0
 10
2.0099363412546922
 20
212.37795939541414
 30
1055.0
 10
2.0042781352356274
 20
211.9524602824513
 30
1055.0
 10
1.998536847522097
 20
211.520621248862
 30
1055.0
 10
1.9927137298797257
 20
211.08250273209478
 30
1055.0
 10
1.9868100340741306
 20
210.63816516959812
 30
1055.0
 10
1.9808270118709295
 20
210.18766899882027
 30
1055.0
 10
1.9463486680934923
 20
207.5903475725249
 30
1055.0
 10
1.9179942674464605
 20
205.44958872815008
 30
1055.0
 10
1.8897349744448875
 20
203.30880698310045
 30
1055.0
 10
1.8615871402201676
 20
201.1680073408661
 30
1055.0
 10
1.8335627791231475
 20
199.0271932628545
 30
1055.0
 10
1.805671928123392
 20
196.8863671503925
 30
1055.0
 10
1.7779219213764477
 20
194.74553022145562
 30
1055.0
 10
1.6770789401794801
 20
186.92407686773993
 30
1055.0
 10
1.6048786845022591
 20
181.24340462601617
 30
1055.0
 10
1.5338446526483855
 20
175.56268587186185
 30
1055.0
 10
1.4640551116112293
 20
169.88192863622282
 30
1055.0
 10
1.3956014573488211
 20
164.20113963236543
 30
1055.0
 10
1.3285733642165183
 20
158.52032172904052
 30
1055.0
 10
1.2630768099457401
 20
152.83947664092597
 30
1055.0
 10
1.1565601124376346
 20
143.36130555857451
 30
1055.0
 10
1.1146247630794532
 20
139.56399552616986
 30
1055.0
 10
1.073465558559802
 20
135.76667439322262
 30
1055.0
 10
1.033122801380688
 20
131.96934248874646
 30
1055.0
 10
0.9936413677629496
 20
128.1720000738425
 30
1055.0
 10
0.9550720272023138
 20
124.37464734838274
 30
1055.0
 10
0.9174727620254497
 20
120.57728445769398
 30
1055.0
 10
0.8432158771831298
 20
112.86501816791612
 30
1055.0
 10
0.8066257505417617
 20
108.95011417712387
 30
1055.0
 10
0.7710652143408688
 20
105.03520105767534
 30
1055.0
 10
0.7364697214924124
 20
101.12028020267238
 30
1055.0
 10
0.7027830983473594
 20
97.20535290533631
 30
1055.0
 10
0.6699559725416685
 20
93.29042039683632
 30
1055.0
 10
0.6379442008422812
 20
89.3754838841178
 30
1055.0
 10
0.5809843013938568
 20
82.23666661382639
 30
1055.0
 10
0.5557868242127584
 20
79.01278681214826
 30
1055.0
 10
0.5310924508501058
 20
75.78890585117348
 30
1055.0
 10
0.5068806418185111
 20
72.56502447091827
 30
1055.0
 10
0.4831324259812162
 20
69.34114349027021
 30
1055.0
 10
0.4598300307801482
 20
66.1172638379595
 30
1055.0
 10
0.4369564494537265
 20
62.893386607169
 30
1055.0
 10
0.39501448818593055
 20
56.873505877320845
 30
1055.0
 10
0.3758439548639123
 20
54.07750165696746
 30
1055.0
 10
0.3569725358681405
 20
51.28150115327057
 30
1055.0
 10
0.33838922250337705
 20
48.48550542754864
 30
1055.0
 10
0.32008302207751715
 20
45.689515872869585
 30
1055.0
 10
0.3020424009614657
 20
42.89353432306137
 30
1055.0
 10
0.28425395542074583
 20
40.09756331975535
 30
1055.0
 10
0.2542508622796748
 20
35.31864983525336
 30
1055.0
 10
0.24191954277214367
 20
33.33570117968975
 30
1055.0
 10
0.22969984785325787
 20
31.352761185177293
 30
1055.0
 10
0.21758490642751904
 20
29.369831219177257
 30
1055.0
 10
0.20556479456132126
 20
27.386914057715174
 30
1055.0
 10
0.19362751115410126
 20
25.40401368379321
 30
1055.0
 10
0.18175643906699113
 20
23.42113587192502
 30
1055.0
 10
0.16585754807981257
 20
20.758396555436974
 30
1055.0
 10
0.16180134311287597
 20
20.07850594902206
 30
1055.0
 10
0.15774949250840642
 20
19.39861960521472
 30
1055.0
 10
0.1536939995085218
 20
18.718738740077697
 30
1055.0
 10
0.14963927433316293
 20
18.038863451753855
 30
1055.0
 10
0.14558522626146475
 20
17.358994580128552
 30
1055.0
 10
0.14153074744963767
 20
16.679133019578558
 30
1055.0
 10
0.13392854010966326
 20
15.40435009756443
 30
1055.0
 10
0.1303806971519387
 20
14.809426885104202
 30
1055.0
 10
0.1268328967446121
 20
14.214510807742773
 30
1055.0
 10
0.12328514402411712
 20
13.619602726790644
 30
1055.0
 10
0.11973744562600527
 20
13.024703754938084
 30
1055.0
 10
0.11618980993171266
 20
12.42981529763173
 30
1055.0
 10
0.1126422475086082
 20
11.834939126867233
 30
1055.0
 10
0.10497717853202049
 20
10.549615195219886
 30
1055.0
 10
0.10085972169406143
 20
9.859175770921311
 30
1055.0
 10
0.09674240407876167
 20
9.168759692319654
 30
1055.0
 10
0.09262524523537019
 20
8.478370237506539
 30
1055.0
 10
0.08850829075066385
 20
7.788015050758908
 30
1055.0
 10
0.08439161005683415
 20
7.097705774898422
 30
1055.0
 10
0.08027530519094017
 20
6.407459520066848
 30
1055.0
 10
0.07404146037215731
 20
5.3621316885456025
 30
1055.0
 10
0.07192354365895315
 20
5.006986934457515
 30
1055.0
 10
0.069805805544911
 20
4.651872128948554
 30
1055.0
 10
0.06768827062415639
 20
4.296791396065316
 30
1055.0
 10
0.06557099840937325
 20
3.941754715266928
 30
1055.0
 10
0.06345407991758234
 20
3.586777348846006
 30
1055.0
 10
0.061337649225373325
 20
3.2318817795149215
 30
1055.0
 10
0.05805370606030724
 20
2.6812108392896192
 30
1055.0
 10
0.056946074794967515
 20
2.495476702110894
 30
1055.0
 10
0.055897213642050254
 20
2.319597483680192
 30
1055.0
 10
0.054905288640602
 20
2.153265654618405
 30
1055.0
 10
0.05396846582966823
 20
1.9961736855462469
 30
1055.0
 10
0.05308491124829338
 20
1.8480140470842508
 30
1055.0
 10
0.05225279093552083
 20
1.7084792098527688
 30
1055.0
 10
0.050808022962887556
 20
1.466212003050714
 30
1055.0
 10
0.0501461690635745
 20
1.3552284413278812
 30
1055.0
 10
0.04948466777322791
 20
1.2443040070402276
 30
1055.0
 10
0.04882357181977248
 20
1.1334475422924584
 30
1055.0
 10
0.048162994312528795
 20
1.0226780133195916
 30
1055.0
 10
0.0475032067685075
 20
0.912040950300792
 30
1055.0
 10
0.04684455115621011
 20
0.8015936961454031
 30
1055.0
 10
0.045961983867425234
 20
0.6535996127223597
 30
1055.0
 10
0.04574561184036825
 20
0.6173170762748461
 30
1055.0
 10
0.04553843045855216
 20
0.5825756813762755
 30
1055.0
 10
0.04534021047685726
 20
0.5493369868542113
 30
1055.0
 10
0.04515072265016401
 20
0.5175625515362157
 30
1055.0
 10
0.04496973773335301
 20
0.4872139342498494
 30
1055.0
 10
0.0447970264813049
 20
0.4582526938226721
 30
1055.0
 10
0.04435791492822604
 20
0.38461988118147866
 30
1055.0
 10
0.04410581581767449
 20
0.34234641685537176
 30
1055.0
 10
0.043875000997247546
 20
0.3036420277129049
 30
1055.0
 10
0.04366440914694738
 20
0.26832874536313106
 30
1055.0
 10
0.043472978946776646
 20
0.2362286014151717
 30
1055.0
 10
0.0432996490767384
 20
0.2071636274782175
 30
1055.0
 10
0.04314335821683613
 20
0.18095585516152826
 30
1055.0
 10
0.042862731877310926
 20
0.1338987769872802
 30
1055.0
 10
0.04273839639768629
 20
0.11304947112945947
 30
1055.0
 10
0.042628977288203036
 20
0.09470143011016321
 30
1055.0
 10
0.04253341322886426
 20
0.07867668553857439
 30
1055.0
 10
0.0424506428996729
 20
0.06479726902386623
 30
1055.0
 10
0.042379604980631855
 20
0.0528852121752022
 30
1055.0
 10
0.042319238151743876
 20
0.042762546601736055
 30
1055.0
 10
0.04221460580909492
 20
0.025217178850724054
 30
1055.0
 10
0.04216620519330938
 20
0.017101078403179315
 30
1055.0
 10
0.04212659215821957
 20
0.010458531256496428
 30
1055.0
 10
0.04209771584708588
 20
0.005616381257851799
 30
1055.0
 10
0.04207953773475903
 20
0.002568168274422078
 30
1055.0
 10
0.042070070596048836
 20
0.0009806626659738527
 30
1055.0
 10
0.042066119711947014
 20
0.00031815514152100377
 30
1055.0
 10
0.04206347874894667
 20
-0.0001246970960409044
 30
1055.0
 10
0.04206515876521866
 20
4.972837245276196e-05
 30
1055.0
 10
0.042062723826957304
 20
0.00019845965976372781
 30
1055.0
 10
0.04206416364261578
 20
-6.703404119434708e-05
 30
1055.0
 10
0.04207185427740223
 20
-0.0011954036696621984
 30
1055.0
 10
0.04208557990312922
 20
-0.003610593550320118
 30
1055.0
 10
0.042109260415212735
 20
-0.0075522424673479804
 30
1055.0
 10
0.04217321285090626
 20
-0.01827616371780039
 30
1055.0
 10
0.042215045348724264
 20
-0.025290883445768887
 30
1055.0
 10
0.042268715230888446
 20
-0.03429056553150848
 30
1055.0
 10
0.04233605645835337
 20
-0.04558273935429693
 30
1055.0
 10
0.042418902992074015
 20
-0.05947493429349241
 30
1055.0
 10
0.042519088793005755
 20
-0.07627467972853351
 30
1055.0
 10
0.04263844782210447
 20
-0.0962895050389392
 30
1055.0
 10
0.042919180258547344
 20
-0.14336437416950787
 30
1055.0
 10
0.04308055366588905
 20
-0.17042441798922017
 30
1055.0
 10
0.0432647682233072
 20
-0.20131460044293345
 30
1055.0
 10
0.04347365789175716
 20
-0.23634245091008876
 30
1055.0
 10
0.04370905663219408
 20
-0.27581549877008027
 30
1055.0
 10
0.0439727984055728
 20
-0.32004127340225563
 30
1055.0
 10
0.04426671717284792
 20
-0.3693273041859158
 30
1055.0
 10
0.044864254996744395
 20
-0.4695259674288224
 30
1055.0
 10
0.04515809292827532
 20
-0.5187984431985706
 30
1055.0
 10
0.04547522200956197
 20
-0.571976516200136
 30
1055.0
 10
0.045816703560600386
 20
-0.629238154824195
 30
1055.0
 10
0.04618359890138737
 20
-0.6907613274615261
 30
1055.0
 10
0.04657696935192028
 20
-0.756724002503008
 30
1055.0
 10
0.04699787623219721
 20
-0.8273041483396212
 30
1055.0
 10
0.04789688549223681
 20
-0.9780553183853302
 30
1055.0
 10
0.048374987871996636
 20
-1.0582263425939136
 30
1055.0
 10
0.04888274932149406
 20
-1.1433707743791903
 30
1055.0
 10
0.04942123116072661
 20
-1.233666582132105
 30
1055.0
 10
0.04999149470969168
 20
-1.3292917342435524
 30
1055.0
 10
0.05059460128838645
 20
-1.4304241991043816
 30
1055.0
 10
0.05123161221680794
 20
-1.5372419451053931
 30
1055.0
 10
0.05320996687755858
 20
-1.8689841118772819
 30
1055.0
 10
0.05451734662458119
 20
-2.0882132514613545
 30
1055.0
 10
0.055825382606433605
 20
-2.3075524323717076
 30
1055.0
 10
0.05713388629943439
 20
-2.526970041841082
 30
1055.0
 10
0.058442730860810366
 20
-2.7464448101271017
 30
1055.0
 10
0.05975183457701594
 20
-2.9659630350239894
 30
1055.0
 10
0.06106116861233701
 20
-3.185519881186636
 30
1055.0
 10
0.06454173938620084
 20
-3.7691624974636966
 30
1055.0
 10
0.0667132610109532
 20
-4.133296038983097
 30
1055.0
 10
0.06888515054572059
 20
-4.497491273797809
 30
1055.0
 10
0.0710573161132404
 20
-4.861732795438229
 30
1055.0
 10
0.07322969379059424
 20
-5.226009884905935
 30
1055.0
 10
0.07540224037084187
 20
-5.590315296979
 30
1055.0
 10
0.07757493376534369
 20
-5.954645327754072
 30
1055.0
 10
0.08437127163530872
 20
-7.094295308531613
 30
1055.0
 10
0.08899532845028746
 20
-7.869684402064642
 30
1055.0
 10
0.09361975813727841
 20
-8.645136020955622
 30
1055.0
 10
0.09824445836497775
 20
-9.420633005730451
 30
1055.0
 10
0.10286935968956706
 20
-10.196163711614801
 30
1055.0
 10
0.10749441668647852
 20
-10.971720521527061
 30
1055.0
 10
0.1121196104459466
 20
-11.747300264613404
 30
1055.0
 10
0.11985925680895294
 20
-13.0451297718552
 30
1055.0
 10
0.12307252533626974
 20
-13.583949572379451
 30
1055.0
 10
0.12638657835425302
 20
-14.139669510161195
 30
1055.0
 10
0.1298032498238565
 20
-14.712597114579577
 30
1055.0
 10
0.13332437370603478
 20
-15.303039915013896
 30
1055.0
 10
0.13695178396174337
 20
-15.911305440843597
 30
1055.0
 10
0.1406873145519385
 20
-16.537701221448277
 30
1055.0
 10
0.14655331262628146
 20
-17.52134634336165
 30
1055.0
 10
0.1485738676175213
 20
-17.860159659235382
 30
1055.0
 10
0.15059441796881498
 20
-18.19897463181487
 30
1055.0
 10
0.15261494219874883
 20
-18.53779116554996
 30
1055.0
 10
0.15463544378697758
 20
-18.87660917135436
 30
1055.0
 10
0.1566559511742243
 20
-19.215428566605635
 30
1055.0
 10
0.1586765177622802
 20
-19.55424927514521
 30
1055.0
 10
0.16317042729507647
 20
-20.30776640891875
 30
1055.0
 10
0.16568269839409921
 20
-20.72895412683471
 30
1055.0
 10
0.16823411504474453
 20
-21.156573035013377
 30
1055.0
 10
0.17082475708068412
 20
-21.59056178744189
 30
1055.0
 10
0.17345470433558965
 20
-22.030859038107423
 30
1055.0
 10
0.17612403664313314
 20
-22.47740344099718
 30
1055.0
 10
0.17883283383698687
 20
-22.9301336500984
 30
1055.0
 10
0.19446378699991423
 20
-25.539829266320446
 30
1055.0
 10
0.20740950801269653
 20
-27.690700575156207
 30
1055.0
 10
0.2204502548356183
 20
-29.84159281653269
 30
1055.0
 10
0.23360221938820946
 20
-31.992500703189876
 30
1055.0
 10
0.2468773215941557
 20
-34.14342056401111
 30
1055.0
 10
0.2602855428380737
 20
-36.29434981923651
 30
1055.0
 10
0.2738342070132367
 20
-38.44528711758976
 30
1055.0
 10
0.32310881612496956
 20
-46.18378221426511
 30
1055.0
 10
0.3596818743714738
 20
-51.771376468847905
 30
1055.0
 10
0.39736749552615835
 20
-57.35899395544598
 30
1055.0
 10
0.43624069476108396
 20
-62.946625529196865
 30
1055.0
 10
0.47638800546346793
 20
-68.53426318971418
 30
1055.0
 10
0.5178948300941155
 20
-74.12190249058682
 30
1055.0
 10
0.5608615589131163
 20
-79.70953983737056
 30
1055.0
 10
0.6366069263491594
 20
-89.21135157344025
 30
1055.0
 10
0.6685827924187796
 20
-93.12552721764546
 30
1055.0
 10
0.7013723361476729
 20
-97.03969889748602
 30
1055.0
 10
0.7350195405493053
 20
-100.95386540637315
 30
1055.0
 10
0.7695735767442069
 20
-104.86802551503338
 30
1055.0
 10
0.8050903837269755
 20
-108.78217793346083
 30
1055.0
 10
0.8416342481332788
 20
-112.69632127287005
 30
1055.0
 10
0.9158088678270729
 20
-120.40858742083206
 30
1055.0
 10
0.9533775550468745
 20
-124.20671076701908
 30
1055.0
 10
0.9919186882301131
 20
-128.00482394885267
 30
1055.0
 10
1.0313740529804032
 20
-131.80292682164523
 30
1055.0
 10
1.0716926672120666
 20
-135.60101918672976
 30
1055.0
 10
1.1128294704210817
 20
-139.39910078481103
 30
1055.0
 10
1.154744012956029
 20
-143.1971712893168
 30
1055.0
 10
1.2336218790539433
 20
-150.22054160072437
 30
1055.0
 10
1.270378734155368
 20
-153.44584455549224
 30
1055.0
 10
1.3076471299565084
 20
-156.67113892933676
 30
1055.0
 10
1.3454063715545221
 20
-159.8964243826631
 30
1055.0
 10
1.383637343169871
 20
-163.1217004694539
 30
1055.0
 10
1.4223221428216934
 20
-166.34696661424087
 30
1055.0
 10
1.4614436582891948
 20
-169.57222206759096
 30
1055.0
 10
1.5363665098694594
 20
-175.68339418494207
 30
1055.0
 10
1.5720841393037577
 20
-178.56931294727278
 30
1055.0
 10
1.6081258786964003
 20
-181.45522160315548
 30
1055.0
 10
1.6444799237314034
 20
-184.34111929912535
 30
1055.0
 10
1.6811340275820539
 20
-187.2270047283174
 30
1055.0
 10
1.7180753641270674
 20
-190.11287610136014
 30
1055.0
 10
1.7552894708799998
 20
-192.99873095317142
 30
1055.0
 10
1.818378988163816
 20
-197.858061160285
 30
1055.0
 10
1.8441196450116701
 20
-199.83154640840814
 30
1055.0
 10
1.8699722202301619
 20
-201.80502077858426
 30
1055.0
 10
1.8959298187627915
 20
-203.7784830282702
 30
1055.0
 10
1.9219824443184277
 20
-205.75193055847092
 30
1055.0
 10
1.9481179826228006
 20
-207.72535959695128
 30
1055.0
 10
1.9743196347387355
 20
-209.6987646609328
 30
1055.0
 10
2.0095458772034123
 20
-212.34865836845867
 30
1055.0
 10
2.0185425000388113
 20
-213.02517682251099
 30
1055.0
 10
2.027543415348008
 20
-213.70169090764804
 30
1055.0
 10
2.0365405650658657
 20
-214.3781995605139
 30
1055.0
 10
2.0455383781767393
 20
-215.05470259462868
 30
1055.0
 10
2.054536747457201
 20
-215.73119916851542
 30
1055.0
 10
2.0635345424142977
 20
-216.40768840525286
 30
1055.0
 10
2.0804061599325125
 20
-217.6761476116131
 30
1055.0
 10
2.088279903347555
 20
-218.26811944315483
 30
1055.0
 10
2.0961535514000937
 20
-218.86008410505525
 30
1055.0
 10
2.104027092578593
 20
-219.45204073184232
 30
1055.0
 10
2.111900512011743
 20
-220.04398820544614
 30
1055.0
 10
2.1197737909154455
 20
-220.63592511362125
 30
1055.0
 10
2.127646905606671
 20
-221.22784967580577
 30
1055.0
 10
2.144658030361589
 20
-222.50679745793894
 30
1055.0
 10
2.1537959290049504
 20
-223.19381230097008
 30
1055.0
 10
2.1629335156283966
 20
-223.88080368540082
 30
1055.0
 10
2.172070746416491
 20
-224.56776831705432
 30
1055.0
 10
2.1812075192034217
 20
-225.25469851479573
 30
1055.0
 10
2.1903436783831713
 20
-225.9415825796944
 30
1055.0
 10
2.199478995276887
 20
-226.6284033189828
 30
1055.0
 10
2.2133137834677363
 20
-227.66854451645736
 30
1055.0
 10
2.2180140991339803
 20
-228.02192845686562
 30
1055.0
 10
2.222714014533676
 20
-228.37528230402455
 30
1055.0
 10
2.2274134745426037
 20
-228.7286019135293
 30
1055.0
 10
2.232112345788647
 20
-229.0818772580605
 30
1055.0
 10
2.236810424296922
 20
-229.43509300216968
 30
1055.0
 10
2.2415074095925296
 20
-229.78822655524613
 30
1055.0
 10
2.248795443721067
 20
-230.33616299208342
 30
1055.0
 10
2.251253613706669
 20
-230.52097564242166
 30
1055.0
 10
2.253581354973861
 20
-230.69598226743594
 30
1055.0
 10
2.2557827376386785
 20
-230.86148887075328
 30
1055.0
 10
2.257861831817157
 20
-231.01780145600088
 30
1055.0
 10
2.2598227076253323
 20
-231.16522602680595
 30
1055.0
 10
2.26166943517924
 20
-231.3040685867955
 30
1055.0
 10
2.264875855660823
 20
-231.54513697131375
 30
1055.0
 10
2.266344743738723
 20
-231.65557241732301
 30
1055.0
 10
2.267812841578837
 20
-231.7659484508681
 30
1055.0
 10
2.269280031020283
 20
-231.8762561882517
 30
1055.0
 10
2.27074605848022
 20
-231.98647656435782
 30
1055.0
 10
2.272210315736238
 20
-232.0965638511783
 30
1055.0
 10
2.2736720365146668
 20
-232.20646043794778
 30
1055.0
 10
2.275630645560272
 20
-232.35371458669056
 30
1055.0
 10
2.276110840765373
 20
-232.38981711379577
 30
1055.0
 10
2.2765706391389773
 20
-232.4243861454513
 30
1055.0
 10
2.277010549445591
 20
-232.45745993211074
 30
1055.0
 10
2.277431080449718
 20
-232.48907672422735
 30
1055.0
 10
2.277832740915862
 20
-232.51927477225453
 30
1055.0
 10
2.278216039608527
 20
-232.5480923266457
 30
1055.0
 10
2.2791905614317054
 20
-232.62135982320157
 30
1055.0
 10
2.279750045879597
 20
-232.663423555264
 30
1055.0
 10
2.2802622940271196
 20
-232.70193591947347
 30
1055.0
 10
2.2807296612654966
 20
-232.73707400126264
 30
1055.0
 10
2.281154502985952
 20
-232.7690148860638
 30
1055.0
 10
2.2815391745797102
 20
-232.79793565930927
 30
1055.0
 10
2.2818860314379963
 20
-232.82401340643142
 30
1055.0
 10
2.2825088264660707
 20
-232.87083701929393
 30
1055.0
 10
2.2827847646358594
 20
-232.89158288503415
 30
1055.0
 10
2.283027598852623
 20
-232.90983989551594
 30
1055.0
 10
2.283239684507588
 20
-232.92578513617147
 30
1055.0
 10
2.2834233769919767
 20
-232.93959569243324
 30
1055.0
 10
2.2835810316970138
 20
-232.9514486497335
 30
1055.0
 10
2.2837150040139234
 20
-232.9615210935047
 30
1055.0
 10
2.2839065010579342
 20
-232.9759184201512
 30
1055.0
 10
2.2839749025534566
 20
-232.98106105135597
 30
1055.0
 10
2.2840336617196857
 20
-232.98547874309668
 30
1055.0
 10
2.2840835864558118
 20
-232.98923223567658
 30
1055.0
 10
2.2841254846610255
 20
-232.99238226939897
 30
1055.0
 10
2.2841601642345166
 20
-232.99498958456715
 30
1055.0
 10
2.2841884330754754
 20
-232.99711492148447
 30
1055.0
 10
2.2842521149480044
 20
-233.00190271716573
 30
1055.0
 10
2.284139099371186
 20
-233.00293389683185
 30
1055.0
 10
2.2840647814989508
 20
-233.00306995381533
 30
1055.0
 10
2.284125630243072
 20
-233.00308598648098
 30
1055.0
 10
2.28432185428078
 20
-233.00337479719627
 30
1055.0
 10
2.284557402054763
 20
-233.0039468923308
 30
1055.0
 10
2.2846399617731667
 20
-233.0044304822566
 30
1055.0
 10
2.2842809614095922
 20
-233.00407148134806
 30
1055.0
  0
ENDSEC
  0
SECTION
  2
OBJECTS
  0
DICTIONARY
  5
A
330
0
100
AcDbDictionary
281
1
  3
ACAD_COLOR
350
B
  3
ACAD_GROUP
350
C
  3
ACAD_LAYOUT
350
D
  3
ACAD_MATERIAL
350
E
  3
ACAD_MLEADERSTYLE
350
F
  3
ACAD_MLINESTYLE
350
10
  3
ACAD_PLOTSETTINGS
350
11
  3
ACAD_PLOTSTYLENAME
350
12
  3
ACAD_SCALELIST
350
14
  3
ACAD_TABLESTYLE
350
15
  3
ACAD_VISUALSTYLE
350
16
  3
EZDXF_META
350
2D
  0
DICTIONARY
  5
B
330
A
100
AcDbDictionary
281
1
  0
DICTIONARY
  5
C
330
A
100
AcDbDictionary
281
1
  0
DICTIONARY
  5
D
330
A
100
AcDbDictionary
281
1
  3
Model
350
1A
  3
Layout1
350
1E
  0
DICTIONARY
  5
E
330
A
100
AcDbDictionary
281
1
  3
ByBlock
350
1F
  3
ByLayer
350
20
  3
Global
350
21
  0
DICTIONARY
  5
F
330
A
100
AcDbDictionary
281
1
  3
Standard
350
2C
  0
DICTIONARY
  5
10
330
A
100
AcDbDictionary
281
1
  3
Standard
350
22
  0
DICTIONARY
  5
11
330
A
100
AcDbDictionary
281
1
  0
ACDBDICTIONARYWDFLT
  5
12
330
A
100
AcDbDictionary
281
1
  3
Normal
350
13
100
AcDbDictionaryWithDefault
340
13
  0
ACDBPLACEHOLDER
  5
13
330
12
  0
DICTIONARY
  5
14
330
A
100
AcDbDictionary
281
1
  0
DICTIONARY
  5
15
330
A
100
AcDbDictionary
281
1
  0
DICTIONARY
  5
16
330
A
100
AcDbDictionary
281
1
  0
LAYOUT
  5
1A
330
D
100
AcDbPlotSettings
  1

  2
Adobe PDF
  4
A3
  6

 40
7.5
 41
20.0
 42
7.5
 43
20.0
 44
420.0
 45
297.0
 46
0.0
 47
0.0
 48
0.0
 49
0.0
140
0.0
141
0.0
142
1.0
143
1.0
 70
1024
 72
1
 73
1
 74
5
  7

 75
16
 76
0
 77
2
 78
300
147
1.0
148
0.0
149
0.0
100
AcDbLayout
  1
Model
 70
1
 71
0
 10
0.0
 20
0.0
 11
420.0
 21
297.0
 12
0.0
 22
0.0
 32
0.0
 14
1e+20
 24
1e+20
 34
1e+20
 15
-1e+20
 25
-1e+20
 35
-1e+20
146
0.0
 13
0.0
 23
0.0
 33
0.0
 16
1.0
 26
0.0
 36
0.0
 17
0.0
 27
1.0
 37
0.0
 76
1
330
17
  0
LAYOUT
  5
1E
330
D
100
AcDbPlotSettings
  1

  2
Adobe PDF
  4
A3
  6

 40
7.5
 41
20.0
 42
7.5
 43
20.0
 44
420.0
 45
297.0
 46
0.0
 47
0.0
 48
0.0
 49
0.0
140
0.0
141
0.0
142
1.0
143
1.0
 70
0
 72
1
 73
1
 74
5
  7

 75
16
 76
0
 77
2
 78
300
147
1.0
148
0.0
149
0.0
100
AcDbLayout
  1
Layout1
 70
1
 71
1
 10
0.0
 20
0.0
 11
420.0
 21
297.0
 12
0.0
 22
0.0
 32
0.0
 14
1e+20
 24
1e+20
 34
1e+20
 15
-1e+20
 25
-1e+20
 35
-1e+20
146
0.0
 13
0.0
 23
0.0
 33
0.0
 16
1.0
 26
0.0
 36
0.0
 17
0.0
 27
1.0
 37
0.0
 76
1
330
1B
  0
MATERIAL
  5
1F
102
{ACAD_REACTORS
330
E
102
}
330
E
100
AcDbMaterial
  1
ByBlock
  2

 70
0
 40
1.0
 71
1
 41
1.0
 91
-1023410177
 42
1.0
 72
1
  3

 73
1
 74
1
 75
1
 44
0.5
 73
0
 45
1.0
 46
1.0
 77
1
  4

 78
1
 79
1
170
1
 48
1.0
171
1
  6

172
1
173
1
174
1
140
1.0
141
1.0
175
1
  7

176
1
177
1
178
1
143
1.0
179
1
  8

270
1
271
1
272
1
145
1.0
146
1.0
273
1
  9

274
1
275
1
276
1
 42
1.0
 72
1
  3

 73
1
 74
1
 75
1
 94
63
  0
MATERIAL
  5
20
102
{ACAD_REACTORS
330
E
102
}
330
E
100
AcDbMaterial
  1
ByLayer
  2

 70
0
 40
1.0
 71
1
 41
1.0
 91
-1023410177
 42
1.0
 72
1
  3

 73
1
 74
1
 75
1
 44
0.5
 73
0
 45
1.0
 46
1.0
 77
1
  4

 78
1
 79
1
170
1
 48
1.0
171
1
  6

172
1
173
1
174
1
140
1.0
141
1.0
175
1
  7

176
1
177
1
178
1
143
1.0
179
1
  8

270
1
271
1
272
1
145
1.0
146
1.0
273
1
  9

274
1
275
1
276
1
 42
1.0
 72
1
  3

 73
1
 74
1
 75
1
 94
63
  0
MATERIAL
  5
21
102
{ACAD_REACTORS
330
E
102
}
330
E
100
AcDbMaterial
  1
Global
  2

 70
0
 40
1.0
 71
1
 41
1.0
 91
-1023410177
 42
1.0
 72
1
  3

 73
1
 74
1
 75
1
 44
0.5
 73
0
 45
1.0
 46
1.0
 77
1
  4

 78
1
 79
1
170
1
 48
1.0
171
1
  6

172
1
173
1
174
1
140
1.0
141
1.0
175
1
  7

176
1
177
1
178
1
143
1.0
179
1
  8

270
1
271
1
272
1
145
1.0
146
1.0
273
1
  9

274
1
275
1
276
1
 42
1.0
 72
1
  3

 73
1
 74
1
 75
1
 94
63
  0
MLINESTYLE
  5
22
102
{ACAD_REACTORS
330
10
102
}
330
10
100
AcDbMlineStyle
  2
Standard
 70
0
  3

 62
256
 51
90.0
 52
90.0
 71
2
 49
0.5
 62
256
  6
BYLAYER
 49
-0.5
 62
256
  6
BYLAYER
  0
MLEADERSTYLE
  5
2C
102
{ACAD_REACTORS
330
F
102
}
330
F
100
AcDbMLeaderStyle
179
2
170
2
171
1
172
0
 90
2
 40
0.0
 41
0.0
173
1
 91
-1056964608
 92
-2
290
1
 42
2.0
291
1
 43
8.0
  3
Standard
 44
4.0
300

342
29
174
1
175
1
176
0
178
1
 93
-1056964608
 45
4.0
292
0
297
0
 46
4.0
 94
-1056964608
 47
1.0
 49
1.0
140
1.0
294
1
141
0.0
177
0
142
1.0
295
0
296
0
143
3.75
271
0
272
9
273
9
  0
DICTIONARY
  5
2D
330
A
100
AcDbDictionary
280
1
281
1
  3
CREATED_BY_EZDXF
350
2E
  3
WRITTEN_BY_EZDXF
350
86
  0
DICTIONARYVAR
  5
2E
330
2D
100
DictionaryVariables
280
0
  1
0.17 @ 2022-02-15T16:36:51.455544+00:00
  0
DICTIONARYVAR
  5
86
330
2D
100
DictionaryVariables
280
0
  1
0.17 @ 2022-02-15T16:36:51.562199+00:00
  0
ENDSEC
  0
EOF
