  0
SECTION
  2
HEADER
  9
$ACADVER
  1
AC1027
  9
$ACADMAINTVER
 70
105
  9
$DWGCODEPAGE
  3
ANSI_1252
  9
$LASTSAVEDBY
  1
ezdxf
  9
$REQUIREDVERSIONS
160
0
  9
$INSBASE
 10
0.0
 20
0.0
 30
0.0
  9
$EXTMIN
 10
1e+20
 20
1e+20
 30
1e+20
  9
$EXTMAX
 10
-1e+20
 20
-1e+20
 30
-1e+20
  9
$LIMMIN
 10
0.0
 20
0.0
  9
$LIMMAX
 10
420.0
 20
297.0
  9
$ORTHOMODE
 70
0
  9
$REGENMODE
 70
1
  9
$FILLMODE
 70
1
  9
$QTEXTMODE
 70
0
  9
$MIRRTEXT
 70
1
  9
$LTSCALE
 40
1.0
  9
$ATTMODE
 70
1
  9
$TEXTSIZE
 40
2.5
  9
$TRACEWID
 40
1.0
  9
$TEXTSTYLE
  7
Standard
  9
$CLAYER
  8
0
  9
$CELTYPE
  6
ByLayer
  9
$CECOLOR
 62
256
  9
$CELTSCALE
 40
1.0
  9
$DISPSILH
 70
0
  9
$DIMSCALE
 40
1.0
  9
$DIMASZ
 40
2.5
  9
$DIMEXO
 40
0.625
  9
$DIMDLI
 40
3.75
  9
$DIMRND
 40
0.0
  9
$DIMDLE
 40
0.0
  9
$DIMEXE
 40
1.25
  9
$DIMTP
 40
0.0
  9
$DIMTM
 40
0.0
  9
$DIMTXT
 40
2.5
  9
$DIMCEN
 40
2.5
  9
$DIMTSZ
 40
0.0
  9
$DIMTOL
 70
0
  9
$DIMLIM
 70
0
  9
$DIMTIH
 70
0
  9
$DIMTOH
 70
0
  9
$DIMSE1
 70
0
  9
$DIMSE2
 70
0
  9
$DIMTAD
 70
1
  9
$DIMZIN
 70
8
  9
$DIMBLK
  1

  9
$DIMASO
 70
1
  9
$DIMSHO
 70
1
  9
$DIMPOST
  1

  9
$DIMAPOST
  1

  9
$DIMALT
 70
0
  9
$DIMALTD
 70
3
  9
$DIMALTF
 40
0.03937007874
  9
$DIMLFAC
 40
1.0
  9
$DIMTOFL
 70
1
  9
$DIMTVP
 40
0.0
  9
$DIMTIX
 70
0
  9
$DIMSOXD
 70
0
  9
$DIMSAH
 70
0
  9
$DIMBLK1
  1

  9
$DIMBLK2
  1

  9
$DIMSTYLE
  2
ISO-25
  9
$DIMCLRD
 70
0
  9
$DIMCLRE
 70
0
  9
$DIMCLRT
 70
0
  9
$DIMTFAC
 40
1.0
  9
$DIMGAP
 40
0.625
  9
$DIMJUST
 70
0
  9
$DIMSD1
 70
0
  9
$DIMSD2
 70
0
  9
$DIMTOLJ
 70
0
  9
$DIMTZIN
 70
8
  9
$DIMALTZ
 70
0
  9
$DIMALTTZ
 70
0
  9
$DIMUPT
 70
0
  9
$DIMDEC
 70
2
  9
$DIMTDEC
 70
2
  9
$DIMALTU
 70
2
  9
$DIMALTTD
 70
3
  9
$DIMTXSTY
  7
Standard
  9
$DIMAUNIT
 70
0
  9
$DIMADEC
 70
0
  9
$DIMALTRND
 40
0.0
  9
$DIMAZIN
 70
0
  9
$DIMDSEP
 70
44
  9
$DIMATFIT
 70
3
  9
$DIMFRAC
 70
0
  9
$DIMLDRBLK
  1

  9
$DIMLUNIT
 70
2
  9
$DIMLWD
 70
-2
  9
$DIMLWE
 70
-2
  9
$DIMTMOVE
 70
0
  9
$DIMFXL
 40
1.0
  9
$DIMFXLON
 70
0
  9
$DIMJOGANG
 40
0.785398163397
  9
$DIMTFILL
 70
0
  9
$DIMTFILLCLR
 70
0
  9
$DIMARCSYM
 70
0
  9
$DIMLTYPE
  6

  9
$DIMLTEX1
  6

  9
$DIMLTEX2
  6

  9
$DIMTXTDIRECTION
 70
0
  9
$LUNITS
 70
2
  9
$LUPREC
 70
4
  9
$SKETCHINC
 40
1.0
  9
$FILLETRAD
 40
10.0
  9
$AUNITS
 70
0
  9
$AUPREC
 70
2
  9
$MENU
  1
.
  9
$ELEVATION
 40
0.0
  9
$PELEVATION
 40
0.0
  9
$THICKNESS
 40
0.0
  9
$LIMCHECK
 70
0
  9
$CHAMFERA
 40
0.0
  9
$CHAMFERB
 40
0.0
  9
$CHAMFERC
 40
0.0
  9
$CHAMFERD
 40
0.0
  9
$SKPOLY
 70
0
  9
$TDCREATE
 40
2459626.7339583333
  9
$TDUCREATE
 40
2458532.153996898
  9
$TDUPDATE
 40
2459626.7339583333
  9
$TDUUPDATE
 40
2458532.1544311
  9
$TDINDWG
 40
0.0
  9
$TDUSRTIMER
 40
0.0
  9
$USRTIMER
 70
1
  9
$ANGBASE
 50
0.0
  9
$ANGDIR
 70
0
  9
$PDMODE
 70
0
  9
$PDSIZE
 40
0.0
  9
$PLINEWID
 40
0.0
  9
$SPLFRAME
 70
0
  9
$SPLINETYPE
 70
6
  9
$SPLINESEGS
 70
8
  9
$HANDSEED
  5
87
  9
$SURFTAB1
 70
6
  9
$SURFTAB2
 70
6
  9
$SURFTYPE
 70
6
  9
$SURFU
 70
6
  9
$SURFV
 70
6
  9
$UCSBASE
  2

  9
$UCSNAME
  2

  9
$UCSORG
 10
0.0
 20
0.0
 30
0.0
  9
$UCSXDIR
 10
1.0
 20
0.0
 30
0.0
  9
$UCSYDIR
 10
0.0
 20
1.0
 30
0.0
  9
$UCSORTHOREF
  2

  9
$UCSORTHOVIEW
 70
0
  9
$UCSORGTOP
 10
0.0
 20
0.0
 30
0.0
  9
$UCSORGBOTTOM
 10
0.0
 20
0.0
 30
0.0
  9
$UCSORGLEFT
 10
0.0
 20
0.0
 30
0.0
  9
$UCSORGRIGHT
 10
0.0
 20
0.0
 30
0.0
  9
$UCSORGFRONT
 10
0.0
 20
0.0
 30
0.0
  9
$UCSORGBACK
 10
0.0
 20
0.0
 30
0.0
  9
$PUCSBASE
  2

  9
$PUCSNAME
  2

  9
$PUCSORG
 10
0.0
 20
0.0
 30
0.0
  9
$PUCSXDIR
 10
1.0
 20
0.0
 30
0.0
  9
$PUCSYDIR
 10
0.0
 20
1.0
 30
0.0
  9
$PUCSORTHOREF
  2

  9
$PUCSORTHOVIEW
 70
0
  9
$PUCSORGTOP
 10
0.0
 20
0.0
 30
0.0
  9
$PUCSORGBOTTOM
 10
0.0
 20
0.0
 30
0.0
  9
$PUCSORGLEFT
 10
0.0
 20
0.0
 30
0.0
  9
$PUCSORGRIGHT
 10
0.0
 20
0.0
 30
0.0
  9
$PUCSORGFRONT
 10
0.0
 20
0.0
 30
0.0
  9
$PUCSORGBACK
 10
0.0
 20
0.0
 30
0.0
  9
$USERI1
 70
0
  9
$USERI2
 70
0
  9
$USERI3
 70
0
  9
$USERI4
 70
0
  9
$USERI5
 70
0
  9
$USERR1
 40
0.0
  9
$USERR2
 40
0.0
  9
$USERR3
 40
0.0
  9
$USERR4
 40
0.0
  9
$USERR5
 40
0.0
  9
$WORLDVIEW
 70
1
  9
$SHADEDGE
 70
3
  9
$SHADEDIF
 70
70
  9
$TILEMODE
 70
1
  9
$MAXACTVP
 70
64
  9
$PINSBASE
 10
0.0
 20
0.0
 30
0.0
  9
$PLIMCHECK
 70
0
  9
$PEXTMIN
 10
1e+20
 20
1e+20
 30
1e+20
  9
$PEXTMAX
 10
-1e+20
 20
-1e+20
 30
-1e+20
  9
$PLIMMIN
 10
0.0
 20
0.0
  9
$PLIMMAX
 10
420.0
 20
297.0
  9
$UNITMODE
 70
0
  9
$VISRETAIN
 70
1
  9
$PLINEGEN
 70
0
  9
$PSLTSCALE
 70
1
  9
$TREEDEPTH
 70
3020
  9
$CMLSTYLE
  2
Standard
  9
$CMLJUST
 70
0
  9
$CMLSCALE
 40
20.0
  9
$PROXYGRAPHICS
 70
1
  9
$MEASUREMENT
 70
1
  9
$CELWEIGHT
370
-1
  9
$ENDCAPS
280
0
  9
$JOINSTYLE
280
0
  9
$LWDISPLAY
290
0
  9
$INSUNITS
 70
6
  9
$HYPERLINKBASE
  1

  9
$STYLESHEET
  1

  9
$XEDIT
290
1
  9
$CEPSNTYPE
380
0
  9
$PSTYLEMODE
290
1
  9
$FINGERPRINTGUID
  2
{C137F7C9-497F-4445-B534-F61C07A2D68A}
  9
$VERSIONGUID
  2
{DD7A8EBE-C038-4655-BF35-AB483981BFF2}
  9
$EXTNAMES
290
1
  9
$PSVPSCALE
 40
0.0
  9
$OLESTARTUP
290
0
  9
$SORTENTS
280
127
  9
$INDEXCTL
280
0
  9
$HIDETEXT
280
1
  9
$XCLIPFRAME
280
0
  9
$HALOGAP
280
0
  9
$OBSCOLOR
 70
257
  9
$OBSLTYPE
280
0
  9
$INTERSECTIONDISPLAY
280
0
  9
$INTERSECTIONCOLOR
 70
257
  9
$DIMASSOC
280
2
  9
$PROJECTNAME
  1

  9
$CAMERADISPLAY
290
0
  9
$LENSLENGTH
 40
50.0
  9
$CAMERAHEIGHT
 40
0.0
  9
$STEPSPERSEC
 40
24.0
  9
$STEPSIZE
 40
100.0
  9
$3DDWFPREC
 40
2.0
  9
$PSOLWIDTH
 40
0.005
  9
$PSOLHEIGHT
 40
0.08
  9
$LOFTANG1
 40
1.570796326795
  9
$LOFTANG2
 40
1.570796326795
  9
$LOFTMAG1
 40
0.0
  9
$LOFTMAG2
 40
0.0
  9
$LOFTPARAM
 70
7
  9
$LOFTNORMALS
280
1
  9
$LATITUDE
 40
37.795
  9
$LONGITUDE
 40
-122.394
  9
$NORTHDIRECTION
 40
0.0
  9
$TIMEZONE
 70
-8000
  9
$LIGHTGLYPHDISPLAY
280
1
  9
$TILEMODELIGHTSYNCH
280
1
  9
$CMATERIAL
347
20
  9
$SOLIDHIST
280
0
  9
$SHOWHIST
280
1
  9
$DWFFRAME
280
2
  9
$DGNFRAME
280
2
  9
$REALWORLDSCALE
290
1
  9
$INTERFERECOLOR
 62
256
  9
$CSHADOW
280
0
  9
$SHADOWPLANELOCATION
 40
0.0
  0
ENDSEC
  0
SECTION
  2
CLASSES
  0
CLASS
  1
ACDBDICTIONARYWDFLT
  2
AcDbDictionaryWithDefault
  3
ObjectDBX Classes
 90
0
 91
0
280
0
281
0
  0
CLASS
  1
SUN
  2
AcDbSun
  3
SCENEOE
 90
1153
 91
0
280
0
281
0
  0
CLASS
  1
VISUALSTYLE
  2
AcDbVisualStyle
  3
ObjectDBX Classes
 90
4095
 91
0
280
0
281
0
  0
CLASS
  1
MATERIAL
  2
AcDbMaterial
  3
ObjectDBX Classes
 90
1153
 91
0
280
0
281
0
  0
CLASS
  1
SCALE
  2
AcDbScale
  3
ObjectDBX Classes
 90
1153
 91
0
280
0
281
0
  0
CLASS
  1
TABLESTYLE
  2
AcDbTableStyle
  3
ObjectDBX Classes
 90
4095
 91
0
280
0
281
0
  0
CLASS
  1
MLEADERSTYLE
  2
AcDbMLeaderStyle
  3
ACDB_MLEADERSTYLE_CLASS
 90
4095
 91
0
280
0
281
0
  0
CLASS
  1
DICTIONARYVAR
  2
AcDbDictionaryVar
  3
ObjectDBX Classes
 90
0
 91
0
280
0
281
0
  0
CLASS
  1
CELLSTYLEMAP
  2
AcDbCellStyleMap
  3
ObjectDBX Classes
 90
1152
 91
0
280
0
281
0
  0
CLASS
  1
MENTALRAYRENDERSETTINGS
  2
AcDbMentalRayRenderSettings
  3
SCENEOE
 90
1024
 91
0
280
0
281
0
  0
CLASS
  1
ACDBDETAILVIEWSTYLE
  2
AcDbDetailViewStyle
  3
ObjectDBX Classes
 90
1025
 91
0
280
0
281
0
  0
CLASS
  1
ACDBSECTIONVIEWSTYLE
  2
AcDbSectionViewStyle
  3
ObjectDBX Classes
 90
1025
 91
0
280
0
281
0
  0
CLASS
  1
RASTERVARIABLES
  2
AcDbRasterVariables
  3
ISM
 90
0
 91
0
280
0
281
0
  0
CLASS
  1
ACDBPLACEHOLDER
  2
AcDbPlaceHolder
  3
ObjectDBX Classes
 90
0
 91
0
280
0
281
0
  0
CLASS
  1
LAYOUT
  2
AcDbLayout
  3
ObjectDBX Classes
 90
0
 91
0
280
0
281
0
  0
ENDSEC
  0
SECTION
  2
TABLES
  0
TABLE
  2
VPORT
  5
8
330
0
100
AcDbSymbolTable
 70
1
  0
VPORT
  5
23
330
8
100
AcDbSymbolTableRecord
100
AcDbViewportTableRecord
  2
*Active
 70
0
 10
0.0
 20
0.0
 11
1.0
 21
1.0
 12
344.2
 22
148.5
 13
0.0
 23
0.0
 14
0.5
 24
0.5
 15
0.5
 25
0.5
 16
0.0
 26
0.0
 36
1.0
 17
0.0
 27
0.0
 37
0.0
 40
297.0
 41
1.34
 42
50.0
 43
0.0
 44
0.0
 50
0.0
 51
0.0
 71
0
 72
1000
 73
1
 74
3
 75
0
 76
0
 77
0
 78
0
281
0
 65
0
146
0.0
  0
ENDTAB
  0
TABLE
  2
LTYPE
  5
2
330
0
100
AcDbSymbolTable
 70
3
  0
LTYPE
  5
24
330
2
100
AcDbSymbolTableRecord
100
AcDbLinetypeTableRecord
  2
ByBlock
 70
0
  3

 72
65
 73
0
 40
0.0
  0
LTYPE
  5
25
330
2
100
AcDbSymbolTableRecord
100
AcDbLinetypeTableRecord
  2
ByLayer
 70
0
  3

 72
65
 73
0
 40
0.0
  0
LTYPE
  5
26
330
2
100
AcDbSymbolTableRecord
100
AcDbLinetypeTableRecord
  2
Continuous
 70
0
  3

 72
65
 73
0
 40
0.0
  0
ENDTAB
  0
TABLE
  2
LAYER
  5
1
330
0
100
AcDbSymbolTable
 70
2
  0
LAYER
  5
27
330
1
100
AcDbSymbolTableRecord
100
AcDbLayerTableRecord
  2
0
 70
0
 62
7
  6
Continuous
370
-3
390
13
347
21
  0
LAYER
  5
28
330
1
100
AcDbSymbolTableRecord
100
AcDbLayerTableRecord
  2
Defpoints
 70
0
 62
7
  6
Continuous
290
0
370
-3
390
13
347
21
  0
ENDTAB
  0
TABLE
  2
STYLE
  5
5
330
0
100
AcDbSymbolTable
 70
1
  0
STYLE
  5
29
330
5
100
AcDbSymbolTableRecord
100
AcDbTextStyleTableRecord
  2
Standard
 70
0
 40
0.0
 41
1.0
 50
0.0
 71
0
 42
2.5
  3
txt
  4

  0
ENDTAB
  0
TABLE
  2
VIEW
  5
7
330
0
100
AcDbSymbolTable
 70
0
  0
ENDTAB
  0
TABLE
  2
UCS
  5
6
330
0
100
AcDbSymbolTable
 70
0
  0
ENDTAB
  0
TABLE
  2
APPID
  5
3
330
0
100
AcDbSymbolTable
 70
3
  0
APPID
  5
2A
330
3
100
AcDbSymbolTableRecord
100
AcDbRegAppTableRecord
  2
ACAD
 70
0
  0
APPID
  5
84
330
3
100
AcDbSymbolTableRecord
100
AcDbRegAppTableRecord
  2
HATCHBACKGROUNDCOLOR
 70
0
  0
APPID
  5
85
330
3
100
AcDbSymbolTableRecord
100
AcDbRegAppTableRecord
  2
EZDXF
 70
0
  0
ENDTAB
  0
TABLE
  2
DIMSTYLE
  5
4
330
0
100
AcDbSymbolTable
 70
1
100
AcDbDimStyleTable
  0
DIMSTYLE
105
2B
330
4
100
AcDbSymbolTableRecord
100
AcDbDimStyleTableRecord
  2
Standard
 70
0
 40
1.0
 41
2.5
 42
0.625
 43
3.75
 44
1.25
 45
0.0
 46
0.0
 47
0.0
 48
0.0
 49
2.5
140
2.5
141
2.5
142
0.0
143
0.03937007874
144
1.0
145
0.0
146
1.0
147
0.625
148
0.0
 69
0
 70
0
 71
0
 72
0
 73
0
 74
0
 75
0
 76
0
 77
1
 78
8
 79
0
170
0
171
3
172
1
173
0
174
0
175
0
176
0
177
0
178
0
179
0
271
0
272
2
273
2
274
3
275
0
276
0
277
2
278
44
279
0
280
0
281
0
282
0
283
0
284
8
285
0
286
0
288
0
289
3
290
0
371
-2
372
-2
  0
ENDTAB
  0
TABLE
  2
BLOCK_RECORD
  5
9
330
0
100
AcDbSymbolTable
 70
2
  0
BLOCK_RECORD
  5
17
330
9
100
AcDbSymbolTableRecord
100
AcDbBlockTableRecord
  2
*Model_Space
340
1A
 70
0
280
1
281
0
  0
BLOCK_RECORD
  5
1B
330
9
100
AcDbSymbolTableRecord
100
AcDbBlockTableRecord
  2
*Paper_Space
340
1E
 70
0
280
1
281
0
  0
ENDTAB
  0
ENDSEC
  0
SECTION
  2
BLOCKS
  0
BLOCK
  5
18
330
17
100
AcDbEntity
  8
0
100
AcDbBlockBegin
  2
*Model_Space
 70
0
 10
0.0
 20
0.0
 30
0.0
  3
*Model_Space
  1

  0
ENDBLK
  5
19
330
17
100
AcDbEntity
  8
0
100
AcDbBlockEnd
  0
BLOCK
  5
1C
330
1B
100
AcDbEntity
  8
0
100
AcDbBlockBegin
  2
*Paper_Space
 70
0
 10
0.0
 20
0.0
 30
0.0
  3
*Paper_Space
  1

  0
ENDBLK
  5
1D
330
1B
100
AcDbEntity
  8
0
100
AcDbBlockEnd
  0
ENDSEC
  0
SECTION
  2
ENTITIES
  0
SPLINE
  5
2F
330
17
100
AcDbEntity
  8
0
100
AcDbSpline
 70
0
 71
8
 72
46
 73
37
 74
0
 40
0.0
 40
0.0
 40
0.0
 40
0.0
 40
0.0
 40
0.0
 40
0.0
 40
0.0
 40
0.0
 40
0.109572862982515
 40
0.109572862982515
 40
0.109572862982515
 40
0.109572862982515
 40
0.109572862982515
 40
0.109572862982515
 40
0.109572862982515
 40
0.16478913662071026
 40
0.16478913662071026
 40
0.16478913662071026
 40
0.16478913662071026
 40
0.16478913662071026
 40
0.16478913662071026
 40
0.16478913662071026
 40
0.3489291401020563
 40
0.3489291401020563
 40
0.3489291401020563
 40
0.3489291401020563
 40
0.3489291401020563
 40
0.3489291401020563
 40
0.3489291401020563
 40
0.5980780622735906
 40
0.5980780622735906
 40
0.5980780622735906
 40
0.5980780622735906
 40
0.5980780622735906
 40
0.5980780622735906
 40
0.5980780622735906
 40
1.0
 40
1.0
 40
1.0
 40
1.0
 40
1.0
 40
1.0
 40
1.0
 40
1.0
 40
1.0
 10
26.761343189863574
 20
261.314594848677
 30
1107.0
 10
26.2071654738799
 20
261.40452032926476
 30
1107.0
 10
25.64842221395469
 20
261.4663955525084
 30
1107.0
 10
25.08692273706444
 20
261.5001202130064
 30
1107.0
 10
24.524320289195266
 20
261.5061757588591
 30
1107.0
 10
23.962111918742654
 20
261.4855004769404
 30
1107.0
 10
23.401637741716645
 20
261.43937337090233
 30
1107.0
 10
22.84407958875259
 20
261.3693068319123
 30
1107.0
 10
22.011476964691543
 20
261.23040642421176
 30
1107.0
 10
21.732977318431523
 20
261.17812038011186
 30
1107.0
 10
21.454977215983703
 20
261.1202247391156
 30
1107.0
 10
21.177488220613455
 20
261.05693064202757
 30
1107.0
 10
20.900546301187845
 20
260.98831039919486
 30
1107.0
 10
20.624163547288052
 20
260.9145308100052
 30
1107.0
 10
20.348326288978704
 20
260.83592071170426
 30
1107.0
 10
19.155530194963674
 20
260.47325437269853
 30
1107.0
 10
18.25383926765529
 20
260.1410120128721
 30
1107.0
 10
17.372022252348764
 20
259.7567445046409
 30
1107.0
 10
16.513415373997937
 20
259.32230364549235
 30
1107.0
 10
15.680817418569482
 20
258.84006705854426
 30
1107.0
 10
14.876526069365003
 20
258.3128678641499
 30
1107.0
 10
14.102365433841154
 20
257.74394243608776
 30
1107.0
 10
12.354882752384356
 20
256.315480516986
 30
1107.0
 10
11.407617988663937
 20
255.42415727493741
 30
1107.0
 10
10.520505782721
 20
254.47104326817214
 30
1107.0
 10
9.694087280167714
 20
253.46441365302638
 30
1107.0
 10
8.927506402351453
 20
252.41214700003673
 30
1107.0
 10
8.218941652314793
 20
251.321377321686
 30
1107.0
 10
7.565918351814295
 20
250.19824458925856
 30
1107.0
 10
5.997165475047709
 20
247.19155959475762
 30
1107.0
 10
5.166862102788286
 20
245.2659063931232
 30
1107.0
 10
4.460841130494799
 20
243.2888424868163
 30
1107.0
 10
3.8668382604843003
 20
241.27503203700633
 30
1107.0
 10
3.373371127677686
 20
239.23595765512493
 30
1107.0
 10
2.9701235591140147
 20
237.17979586510302
 30
1107.0
 10
2.647988298032871
 20
235.11143869213709
 30
1107.0
 10
2.399277555568787
 20
233.03242005469087
 30
1107.0
  0
SPLINE
  5
30
330
17
100
AcDbEntity
  8
0
100
AcDbSpline
 70
0
 71
1
 72
4
 73
2
 74
0
 40
0.0
 40
0.0
 40
1.0
 40
1.0
 10
26.761343181554274
 20
261.3145947975405
 30
1107.0
 10
26.761343181554274
 20
258.09999939999005
 30
1107.0
  0
LINE
  5
31
330
17
100
AcDbEntity
  8
0
100
AcDbLine
 10
26.761343181431897
 20
258.1
 30
1107.0
 11
33.55167731248051
 21
258.1
 31
1107.0
  0
SPLINE
  5
32
330
17
100
AcDbEntity
  8
0
100
AcDbSpline
 70
0
 71
8
 72
46
 73
37
 74
0
 40
0.0
 40
0.0
 40
0.0
 40
0.0
 40
0.0
 40
0.0
 40
0.0
 40
0.0
 40
0.0
 40
0.029383803862960054
 40
0.029383803862960054
 40
0.029383803862960054
 40
0.029383803862960054
 40
0.029383803862960054
 40
0.029383803862960054
 40
0.029383803862960054
 40
0.21955812961426466
 40
0.21955812961426466
 40
0.21955812961426466
 40
0.21955812961426466
 40
0.21955812961426466
 40
0.21955812961426466
 40
0.21955812961426466
 40
0.5429930278576722
 40
0.5429930278576722
 40
0.5429930278576722
 40
0.5429930278576722
 40
0.5429930278576722
 40
0.5429930278576722
 40
0.5429930278576722
 40
0.8133511891367887
 40
0.8133511891367887
 40
0.8133511891367887
 40
0.8133511891367887
 40
0.8133511891367887
 40
0.8133511891367887
 40
0.8133511891367887
 40
1.0
 40
1.0
 40
1.0
 40
1.0
 40
1.0
 40
1.0
 40
1.0
 40
1.0
 40
1.0
 10
46.336964365664215
 20
235.90000000315877
 30
1107.0
 10
46.305467679810455
 20
235.99132156802287
 30
1107.0
 10
46.27395783471148
 20
236.08242351161502
 30
1107.0
 10
46.24243486879173
 20
236.17330547370597
 30
1107.0
 10
46.210898820475634
 20
236.26396709406643
 30
1107.0
 10
46.17934972818762
 20
236.35440801246713
 30
1107.0
 10
46.147787630352106
 20
236.44462786867888
 30
1107.0
 10
46.11621256539353
 20
236.53462630247236
 30
1107.0
 10
45.88018455356806
 20
237.20544461110842
 30
1107.0
 10
45.67234323909257
 20
237.78528541577793
 30
1107.0
 10
45.46094380716163
 20
238.36384662272073
 30
1107.0
 10
45.245841099479314
 20
238.94104740357525
 30
1107.0
 10
45.02689175722369
 20
239.51680152626562
 30
1107.0
 10
44.80394435766837
 20
240.0910140347431
 30
1107.0
 10
44.57682955080438
 20
240.66357792872657
 30
1107.0
 10
43.95166665701319
 20
242.20513462851395
 30
1107.0
 10
43.54539849227415
 20
243.17070997714424
 30
1107.0
 10
43.12559819439714
 20
244.1305863923568
 30
1107.0
 10
42.69122072709068
 20
245.08407751050373
 30
1107.0
 10
42.241093711230974
 20
246.03030654000295
 30
1107.0
 10
41.773885706061094
 20
246.96819112449776
 30
1107.0
 10
41.28804648619388
 20
247.8964148137294
 30
1107.0
 10
40.358434191248186
 20
249.57985407546002
 30
1107.0
 10
39.92092968724605
 20
250.33830423537398
 30
1107.0
 10
39.468039062834386
 20
251.087882422603
 30
1107.0
 10
38.99854861402146
 20
251.82742858445795
 30
1107.0
 10
38.51114777036473
 20
252.55544653308354
 30
1107.0
 10
38.00440363543831
 20
253.27008684002675
 30
1107.0
 10
37.47671317867764
 20
253.96911467135726
 30
1107.0
 10
36.546159801311276
 20
255.1198102591191
 30
1107.0
 10
36.15538681705442
 20
255.58086566122103
 30
1107.0
 10
35.753219889964114
 20
256.0322366501359
 30
1107.0
 10
35.33902999474068
 20
256.4728967118715
 30
1107.0
 10
34.91224129627511
 20
256.90158116411527
 30
1107.0
 10
34.47234569260626
 20
257.31680522142443
 30
1107.0
 10
34.01892272347528
 20
257.71688840502037
 30
1107.0
 10
33.55167731444379
 20
258.10000000239444
 30
1107.0
  0
LINE
  5
33
330
17
100
AcDbEntity
  8
0
100
AcDbLine
 10
26.761343181431897
 20
235.9
 30
1107.0
 11
46.33696435650558
 21
235.9
 31
1107.0
  0
SPLINE
  5
34
330
17
100
AcDbEntity
  8
0
100
AcDbSpline
 70
0
 71
1
 72
4
 73
2
 74
0
 40
0.0
 40
0.0
 40
1.0
 40
1.0
 10
26.761343181554274
 20
235.9000006000011
 30
1107.0
 10
26.761343181554274
 20
232.09999939999986
 30
1107.0
  0
LINE
  5
35
330
17
100
AcDbEntity
  8
0
100
AcDbLine
 10
26.761343181431897
 20
232.1
 30
1107.0
 11
47.586071981055056
 21
232.1
 31
1107.0
  0
SPLINE
  5
36
330
17
100
AcDbEntity
  8
0
100
AcDbSpline
 70
0
 71
8
 72
32
 73
23
 74
0
 40
0.0
 40
0.0
 40
0.0
 40
0.0
 40
0.0
 40
0.0
 40
0.0
 40
0.0
 40
0.0
 40
0.42993976261888206
 40
0.42993976261888206
 40
0.42993976261888206
 40
0.42993976261888206
 40
0.42993976261888206
 40
0.42993976261888206
 40
0.42993976261888206
 40
0.9699199039968904
 40
0.9699199039968904
 40
0.9699199039968904
 40
0.9699199039968904
 40
0.9699199039968904
 40
0.9699199039968904
 40
0.9699199039968904
 40
1.0
 40
1.0
 40
1.0
 40
1.0
 40
1.0
 40
1.0
 40
1.0
 40
1.0
 40
1.0
 10
53.31087801202018
 20
209.89999999821444
 30
1107.0
 10
53.049570540373956
 20
211.10472417193108
 30
1107.0
 10
52.7838253571217
 20
212.30848066090587
 30
1107.0
 10
52.51345463362756
 20
213.51120737756565
 30
1107.0
 10
52.23825114281951
 20
214.71283576713864
 30
1107.0
 10
51.95798475572489
 20
215.91329006484173
 30
1107.0
 10
51.67239783278159
 20
217.1124863192855
 30
1107.0
 10
51.38119894602383
 20
218.31033106109652
 30
1107.0
 10
50.71085664190346
 20
221.00931583753277
 30
1107.0
 10
50.328294631050916
 20
222.50955551317128
 30
1107.0
 10
49.935704859332425
 20
224.0072344644587
 30
1107.0
 10
49.532328642862446
 20
225.50208225323462
 30
1107.0
 10
49.11727670224171
 20
226.99375197503727
 30
1107.0
 10
48.689496127955465
 20
228.48181104528032
 30
1107.0
 10
48.24770006120022
 20
229.9657215516246
 30
1107.0
 10
47.76473652861897
 20
231.5271923324995
 30
1107.0
 10
47.73924238086078
 20
231.60944518907135
 30
1107.0
 10
47.71373841265123
 20
231.69155731862566
 30
1107.0
 10
47.68822464547574
 20
231.7735285197365
 30
1107.0
 10
47.66270110081972
 20
231.85535859097797
 30
1107.0
 10
47.63716780016858
 20
231.9370473309242
 30
1107.0
 10
47.61162476500773
 20
232.01859453814924
 30
1107.0
 10
47.5860720168226
 20
232.10000001122725
 30
1107.0
  0
LINE
  5
37
330
17
100
AcDbEntity
  8
0
100
AcDbLine
 10
26.761343181431897
 20
209.9
 30
1107.0
 11
53.31087802025208
 21
209.9
 31
1107.0
  0
SPLINE
  5
38
330
17
100
AcDbEntity
  8
0
100
AcDbSpline
 70
0
 71
1
 72
4
 73
2
 74
0
 40
0.0
 40
0.0
 40
1.0
 40
1.0
 10
26.761343181554274
 20
209.90000060000008
 30
1107.0
 10
26.761343181554274
 20
206.09999939999994
 30
1107.0
  0
LINE
  5
39
330
17
100
AcDbEntity
  8
0
100
AcDbLine
 10
26.761343181431897
 20
206.1
 30
1107.0
 11
54.11557480456389
 21
206.1
 31
1107.0
  0
SPLINE
  5
3A
330
17
100
AcDbEntity
  8
0
100
AcDbSpline
 70
0
 71
8
 72
25
 73
16
 74
0
 40
0.0
 40
0.0
 40
0.0
 40
0.0
 40
0.0
 40
0.0
 40
0.0
 40
0.0
 40
0.0
 40
0.17092379820770215
 40
0.17092379820770215
 40
0.17092379820770215
 40
0.17092379820770215
 40
0.17092379820770215
 40
0.17092379820770215
 40
0.17092379820770215
 40
1.0
 40
1.0
 40
1.0
 40
1.0
 40
1.0
 40
1.0
 40
1.0
 40
1.0
 40
1.0
 10
58.17624772680457
 20
183.9000000061502
 30
1107.0
 10
58.09900832127637
 20
184.37600901230027
 30
1107.0
 10
58.021356854188
 20
184.85195115790845
 30
1107.0
 10
57.94328975785551
 20
185.3278254777184
 30
1107.0
 10
57.86480335835853
 20
185.80363098367064
 30
1107.0
 10
57.78589387111336
 20
186.2793666642527
 30
1107.0
 10
57.706557396163745
 20
186.7550314838075
 30
1107.0
 10
57.62678991317163
 20
187.23062438179733
 30
1107.0
 10
57.157559543133374
 20
190.0126822064529
 30
1107.0
 10
56.758311530728875
 20
192.3173923928387
 30
1107.0
 10
56.34836407142326
 20
194.62020491807817
 30
1107.0
 10
55.92716663653535
 20
196.92100424708696
 30
1107.0
 10
55.49409267371077
 20
199.21962849428184
 30
1107.0
 10
55.0484103106717
 20
201.51586305140745
 30
1107.0
 10
54.58925604397962
 20
203.80943492477107
 30
1107.0
 10
54.11557481543019
 20
206.10000000224704
 30
1107.0
  0
LINE
  5
3B
330
17
100
AcDbEntity
  8
0
100
AcDbLine
 10
26.761343181431897
 20
183.9
 30
1107.0
 11
58.17624768890233
 21
183.9
 31
1107.0
  0
SPLINE
  5
3C
330
17
100
AcDbEntity
  8
0
100
AcDbSpline
 70
0
 71
1
 72
4
 73
2
 74
0
 40
0.0
 40
0.0
 40
1.0
 40
1.0
 10
26.761343181554274
 20
183.90000060000014
 30
1107.0
 10
26.761343181554274
 20
180.0999993999999
 30
1107.0
  0
LINE
  5
3D
330
17
100
AcDbEntity
  8
0
100
AcDbLine
 10
26.761343181431897
 20
180.1
 30
1107.0
 11
58.78127263071474
 21
180.1
 31
1107.0
  0
SPLINE
  5
3E
330
17
100
AcDbEntity
  8
0
100
AcDbSpline
 70
0
 71
8
 72
18
 73
9
 74
0
 40
0.0
 40
0.0
 40
0.0
 40
0.0
 40
0.0
 40
0.0
 40
0.0
 40
0.0
 40
0.0
 40
1.0
 40
1.0
 40
1.0
 40
1.0
 40
1.0
 40
1.0
 40
1.0
 40
1.0
 40
1.0
 10
61.89849826750752
 20
157.90000000044353
 30
1107.0
 10
61.548910112344885
 20
160.68043653963156
 30
1107.0
 10
61.18852257346588
 20
163.45951234947373
 30
1107.0
 10
60.81708035670958
 20
166.2371514947872
 30
1107.0
 10
60.4342802640376
 20
169.01326279518085
 30
1107.0
 10
60.03976386716073
 20
171.78773872670791
 30
1107.0
 10
59.63310853313373
 20
174.56045410527472
 30
1107.0
 10
59.213812864297566
 20
177.331263959102
 30
1107.0
 10
58.78127261494865
 20
180.09999999753705
 30
1107.0
  0
LINE
  5
3F
330
17
100
AcDbEntity
  8
0
100
AcDbLine
 10
26.761343181431897
 20
157.9
 30
1107.0
 11
61.89849826398005
 21
157.9
 31
1107.0
  0
SPLINE
  5
40
330
17
100
AcDbEntity
  8
0
100
AcDbSpline
 70
0
 71
1
 72
4
 73
2
 74
0
 40
0.0
 40
0.0
 40
1.0
 40
1.0
 10
26.761343181554274
 20
157.90000060000042
 30
1107.0
 10
26.761343181554274
 20
154.09999939999918
 30
1107.0
  0
LINE
  5
41
330
17
100
AcDbEntity
  8
0
100
AcDbLine
 10
26.761343181431897
 20
154.1
 30
1107.0
 11
62.36738877182966
 21
154.1
 31
1107.0
  0
SPLINE
  5
42
330
17
100
AcDbEntity
  8
0
100
AcDbSpline
 70
0
 71
8
 72
32
 73
23
 74
0
 40
0.0
 40
0.0
 40
0.0
 40
0.0
 40
0.0
 40
0.0
 40
0.0
 40
0.0
 40
0.0
 40
0.3740018660666486
 40
0.3740018660666486
 40
0.3740018660666486
 40
0.3740018660666486
 40
0.3740018660666486
 40
0.3740018660666486
 40
0.3740018660666486
 40
0.8747993590100973
 40
0.8747993590100973
 40
0.8747993590100973
 40
0.8747993590100973
 40
0.8747993590100973
 40
0.8747993590100973
 40
0.8747993590100973
 40
1.0
 40
1.0
 40
1.0
 40
1.0
 40
1.0
 40
1.0
 40
1.0
 40
1.0
 40
1.0
 10
64.7671373305645
 20
131.89999998273632
 30
1107.0
 10
64.66745186457197
 20
132.9441878689598
 30
1107.0
 10
64.56638734862527
 20
133.98824405501497
 30
1107.0
 10
64.46394032029264
 20
135.03216608773354
 30
1107.0
 10
64.36011023666215
 20
136.07595174503604
 30
1107.0
 10
64.25489506933378
 20
137.1195986420086
 30
1107.0
 10
64.14828992567203
 20
138.16310410717824
 30
1107.0
 10
64.04028869631887
 20
139.2064653289857
 30
1107.0
 10
63.784399541750275
 20
141.6465690002752
 30
1107.0
 10
63.63561725759058
 20
143.04113378619257
 30
1107.0
 10
63.48456411780237
 20
144.4331656176883
 30
1107.0
 10
63.331262363699736
 20
145.82245598224156
 30
1107.0
 10
63.17573423659679
 20
147.20879636733113
 30
1107.0
 10
63.01800197780762
 20
148.5919782604353
 30
1107.0
 10
62.85808782864636
 20
149.9717931490318
 30
1107.0
 10
62.6554951705873
 20
151.69209584739895
 30
1107.0
 10
62.61481725714788
 20
152.03614013333487
 30
1107.0
 10
62.57397992951078
 20
152.3801652756007
 30
1107.0
 10
62.53298281779771
 20
152.7241711681201
 30
1107.0
 10
62.49182554265103
 20
153.06815770151496
 30
1107.0
 10
62.45050771503706
 20
153.41212476307527
 30
1107.0
 10
62.40902893605008
 20
153.75607223672915
 30
1107.0
 10
62.36738879671515
 20
154.10000000301295
 30
1107.0
  0
LINE
  5
43
330
17
100
AcDbEntity
  8
0
100
AcDbLine
 10
26.761343181431897
 20
131.9
 30
1107.0
 11
64.76713751139854
 21
131.9
 31
1107.0
  0
SPLINE
  5
44
330
17
100
AcDbEntity
  8
0
100
AcDbSpline
 70
0
 71
1
 72
4
 73
2
 74
0
 40
0.0
 40
0.0
 40
1.0
 40
1.0
 10
26.761343181554274
 20
131.90000060000256
 30
1107.0
 10
26.761343181554274
 20
128.09999939999764
 30
1107.0
  0
LINE
  5
45
330
17
100
AcDbEntity
  8
0
100
AcDbLine
 10
26.761343181431897
 20
128.1
 30
1107.0
 11
65.1218883368729
 21
128.1
 31
1107.0
  0
SPLINE
  5
46
330
17
100
AcDbEntity
  8
0
100
AcDbSpline
 70
0
 71
8
 72
32
 73
23
 74
0
 40
0.0
 40
0.0
 40
0.0
 40
0.0
 40
0.0
 40
0.0
 40
0.0
 40
0.0
 40
0.0
 40
0.34536836733228354
 40
0.34536836733228354
 40
0.34536836733228354
 40
0.34536836733228354
 40
0.34536836733228354
 40
0.34536836733228354
 40
0.34536836733228354
 40
0.7631795433234925
 40
0.7631795433234925
 40
0.7631795433234925
 40
0.7631795433234925
 40
0.7631795433234925
 40
0.7631795433234925
 40
0.7631795433234925
 40
1.0
 40
1.0
 40
1.0
 40
1.0
 40
1.0
 40
1.0
 40
1.0
 40
1.0
 40
1.0
 10
66.89110376563147
 20
105.90000000136902
 30
1107.0
 10
66.82508271556433
 20
106.86115051982156
 30
1107.0
 10
66.75807131552668
 20
107.82223297934826
 30
1107.0
 10
66.69006124108098
 20
108.78324562098167
 30
1107.0
 10
66.6210441168056
 20
109.74418665021113
 30
1107.0
 10
66.55101151553212
 20
110.7050542369374
 30
1107.0
 10
66.4799549575827
 20
111.66584651542726
 30
1107.0
 10
66.40786591000747
 20
112.62656158426819
 30
1107.0
 10
66.24626623829965
 20
114.74933180192552
 30
1107.0
 10
66.15632152247255
 20
115.91071372892385
 30
1107.0
 10
66.06488990564046
 20
117.07133283688079
 30
1107.0
 10
65.97195965510326
 20
118.23117867535929
 30
1107.0
 10
65.8775190381608
 20
119.3902407939225
 30
1107.0
 10
65.78155632211295
 20
120.54850874213366
 30
1107.0
 10
65.68405977425955
 20
121.70597206955611
 30
1107.0
 10
65.52887938789797
 20
123.51822262647384
 30
1107.0
 10
65.47224456106876
 20
124.17356306434718
 30
1107.0
 10
65.415111044851
 20
124.828639736316
 30
1107.0
 10
65.35747670268287
 20
125.4834507393231
 30
1107.0
 10
65.29933939800256
 20
126.137994170311
 30
1107.0
 10
65.24069699424831
 20
126.7922681262222
 30
1107.0
 10
65.18154735485832
 20
127.44627070399908
 30
1107.0
 10
65.12188834327085
 20
128.1000000005839
 30
1107.0
  0
LINE
  5
47
330
17
100
AcDbEntity
  8
0
100
AcDbLine
 10
26.761343181431897
 20
105.9
 30
1107.0
 11
66.89110374570096
 21
105.9
 31
1107.0
  0
SPLINE
  5
48
330
17
100
AcDbEntity
  8
0
100
AcDbSpline
 70
0
 71
1
 72
4
 73
2
 74
0
 40
0.0
 40
0.0
 40
1.0
 40
1.0
 10
26.761343181554274
 20
105.90000060000206
 30
1107.0
 10
26.761343181554274
 20
102.09999939999993
 30
1107.0
  0
LINE
  5
49
330
17
100
AcDbEntity
  8
0
100
AcDbLine
 10
26.761343181431897
 20
102.1
 30
1107.0
 11
67.14537821195361
 21
102.1
 31
1107.0
  0
SPLINE
  5
4A
330
17
100
AcDbEntity
  8
0
100
AcDbSpline
 70
0
 71
8
 72
18
 73
9
 74
0
 40
0.0
 40
0.0
 40
0.0
 40
0.0
 40
0.0
 40
0.0
 40
0.0
 40
0.0
 40
0.0
 40
1.0
 40
1.0
 40
1.0
 40
1.0
 40
1.0
 40
1.0
 40
1.0
 40
1.0
 40
1.0
 10
68.37670962843322
 20
79.89999999982999
 30
1107.0
 10
68.24825616456693
 20
82.67633677452037
 30
1107.0
 10
68.11289745449565
 20
85.45235355520512
 30
1107.0
 10
67.97045222948013
 20
88.2280224042961
 30
1107.0
 10
67.82073640347318
 20
91.00331296489699
 30
1107.0
 10
67.66356292074
 20
93.77819245174021
 30
1107.0
 10
67.49874160347879
 20
96.55262564212339
 30
1107.0
 10
67.326078999441
 20
99.3265748668461
 30
1107.0
 10
67.14537822955182
 20
102.10000000114651
 30
1107.0
  0
LINE
  5
4B
330
17
100
AcDbEntity
  8
0
100
AcDbLine
 10
26.761343181431897
 20
79.9
 30
1107.0
 11
68.3767096321085
 21
79.9
 31
1107.0
  0
SPLINE
  5
4C
330
17
100
AcDbEntity
  8
0
100
AcDbSpline
 70
0
 71
1
 72
4
 73
2
 74
0
 40
0.0
 40
0.0
 40
1.0
 40
1.0
 10
26.761343181554274
 20
79.90000060000001
 30
1107.0
 10
26.761343181554274
 20
76.09999939999999
 30
1107.0
  0
LINE
  5
4D
330
17
100
AcDbEntity
  8
0
100
AcDbLine
 10
26.761343181431897
 20
76.1
 30
1107.0
 11
68.54690530703621
 21
76.1
 31
1107.0
  0
SPLINE
  5
4E
330
17
100
AcDbEntity
  8
0
100
AcDbSpline
 70
0
 71
8
 72
25
 73
16
 74
0
 40
0.0
 40
0.0
 40
0.0
 40
0.0
 40
0.0
 40
0.0
 40
0.0
 40
0.0
 40
0.0
 40
0.9999681560552666
 40
0.9999681560552666
 40
0.9999681560552666
 40
0.9999681560552666
 40
0.9999681560552666
 40
0.9999681560552666
 40
0.9999681560552666
 40
1.0
 40
1.0
 40
1.0
 40
1.0
 40
1.0
 40
1.0
 40
1.0
 40
1.0
 40
1.0
 10
69.33035932753441
 20
53.89999999985509
 30
1107.0
 10
69.25347921603526
 20
56.67560295474634
 30
1107.0
 10
69.17092334797726
 20
59.45104779969803
 30
1107.0
 10
69.08252564351046
 20
62.226316413560326
 30
1107.0
 10
68.9881178408321
 20
65.00138941307672
 30
1107.0
 10
68.8875293524172
 20
67.7762461502293
 30
1107.0
 10
68.78058711806182
 20
70.55086470949264
 30
1107.0
 10
68.66711545473892
 20
73.32522190499628
 30
1107.0
 10
68.5469320761539
 20
76.09938161778442
 30
1107.0
 10
68.54692824903424
 20
76.09946995797269
 30
1107.0
 10
68.54692442190776
 20
76.09955829816067
 30
1107.0
 10
68.54692059477449
 20
76.09964663834836
 30
1107.0
 10
68.54691676763441
 20
76.09973497853576
 30
1107.0
 10
68.54691294048754
 20
76.09982331872285
 30
1107.0
 10
68.54690911333385
 20
76.09991165890965
 30
1107.0
 10
68.54690528617337
 20
76.09999999909616
 30
1107.0
  0
LINE
  5
4F
330
17
100
AcDbEntity
  8
0
100
AcDbLine
 10
26.761343181431897
 20
53.9
 30
1107.0
 11
69.33035933276406
 21
53.9
 31
1107.0
  0
SPLINE
  5
50
330
17
100
AcDbEntity
  8
0
100
AcDbSpline
 70
0
 71
1
 72
4
 73
2
 74
0
 40
0.0
 40
0.0
 40
1.0
 40
1.0
 10
26.761343181554274
 20
53.90000060000026
 30
1107.0
 10
26.761343181554274
 20
50.09999939999937
 30
1107.0
  0
LINE
  5
51
330
17
100
AcDbEntity
  8
0
100
AcDbLine
 10
26.761343181431897
 20
50.1
 30
1107.0
 11
69.43100277208396
 21
50.1
 31
1107.0
  0
SPLINE
  5
52
330
17
100
AcDbEntity
  8
0
100
AcDbSpline
 70
0
 71
8
 72
18
 73
9
 74
0
 40
0.0
 40
0.0
 40
0.0
 40
0.0
 40
0.0
 40
0.0
 40
0.0
 40
0.0
 40
0.0
 40
1.0
 40
1.0
 40
1.0
 40
1.0
 40
1.0
 40
1.0
 40
1.0
 40
1.0
 40
1.0
 10
69.84723581215749
 20
27.900000000186047
 30
1107.0
 10
69.81221616820108
 20
30.67528445977119
 30
1107.0
 10
69.7726508332018
 20
33.45051228022673
 30
1107.0
 10
69.7283847752114
 20
36.22567270681464
 30
1107.0
 10
69.67926142993709
 20
39.00075373646503
 30
1107.0
 10
69.62512256844424
 20
41.77574211544718
 30
1107.0
 10
69.56580816167977
 20
44.55062333694947
 30
1107.0
 10
69.50115624181598
 20
47.32538163856816
 30
1107.0
 10
69.43100276041517
 20
50.09999999970496
 30
1107.0
  0
LINE
  5
53
330
17
100
AcDbEntity
  8
0
100
AcDbLine
 10
26.761343181431897
 20
27.9
 30
1107.0
 11
69.84723579741019
 21
27.9
 31
1107.0
  0
SPLINE
  5
54
330
17
100
AcDbEntity
  8
0
100
AcDbSpline
 70
0
 71
1
 72
4
 73
2
 74
0
 40
0.0
 40
0.0
 40
1.0
 40
1.0
 10
26.761343181554274
 20
27.900000600000002
 30
1107.0
 10
26.761343181554274
 20
24.099999399999998
 30
1107.0
  0
LINE
  5
55
330
17
100
AcDbEntity
  8
0
100
AcDbLine
 10
26.761343181431897
 20
24.1
 30
1107.0
 11
69.891500238076
 21
24.1
 31
1107.0
  0
SPLINE
  5
56
330
17
100
AcDbEntity
  8
0
100
AcDbSpline
 70
0
 71
8
 72
18
 73
9
 74
0
 40
0.0
 40
0.0
 40
0.0
 40
0.0
 40
0.0
 40
0.0
 40
0.0
 40
0.0
 40
0.0
 40
1.0
 40
1.0
 40
1.0
 40
1.0
 40
1.0
 40
1.0
 40
1.0
 40
1.0
 40
1.0
 10
70.01452393633348
 20
1.8999999999978208
 30
1107.0
 10
70.01237865972266
 20
4.675058538744548
 30
1107.0
 10
70.00675070872177
 20
7.450110398861192
 30
1107.0
 10
69.9974923321177
 20
10.22515210574779
 30
1107.0
 10
69.98445484047907
 20
13.000178947434911
 30
1107.0
 10
69.96748848512641
 20
15.775184972576552
 30
1107.0
 10
69.94644233392593
 20
18.550162988351985
 30
1107.0
 10
69.92116414390709
 20
21.32510455827652
 30
1107.0
 10
69.8915002307038
 20
24.099999999921238
 30
1107.0
  0
LINE
  5
57
330
17
100
AcDbEntity
  8
0
100
AcDbLine
 10
26.761343181431897
 20
1.9
 30
1107.0
 11
70.01452393915187
 21
1.9
 31
1107.0
  0
SPLINE
  5
58
330
17
100
AcDbEntity
  8
0
100
AcDbSpline
 70
0
 71
1
 72
4
 73
2
 74
0
 40
0.0
 40
0.0
 40
0.9999993684216398
 40
0.9999993684216398
 10
26.761343181554274
 20
1.9000006000000558
 30
1107.0
 10
26.761343181554274
 20
-6.553790374438061e-17
 30
1107.0
  0
SPLINE
  5
59
330
17
100
AcDbEntity
  8
0
100
AcDbSpline
 70
0
 71
1
 72
4
 73
2
 74
0
 40
0.0
 40
0.0
 40
1.0
 40
1.0
 10
26.761343181554274
 20
-1.9000006000000011
 30
1107.0
 10
26.761343181554274
 20
1.2000000211287443e-06
 30
1107.0
  0
LINE
  5
5A
330
17
100
AcDbEntity
  8
0
100
AcDbLine
 10
26.761343181431908
 20
-1.9
 30
1107.0
 11
70.01463558532124
 21
-1.9
 31
1107.0
  0
SPLINE
  5
5B
330
17
100
AcDbEntity
  8
0
100
AcDbSpline
 70
0
 71
8
 72
18
 73
9
 74
0
 40
0.0
 40
0.0
 40
0.0
 40
0.0
 40
0.0
 40
0.0
 40
0.0
 40
0.0
 40
0.0
 40
1.0
 40
1.0
 40
1.0
 40
1.0
 40
1.0
 40
1.0
 40
1.0
 40
1.0
 40
1.0
 10
69.89283879165646
 20
-24.099999999884155
 30
1107.0
 10
69.92236627397834
 20
-21.325133491939106
 30
1107.0
 10
69.94750103667243
 20
-18.5502190128783
 30
1107.0
 10
69.96839787137604
 20
-15.775263675853113
 30
1107.0
 10
69.98521010622787
 20
-13.00027283222654
 30
1107.0
 10
69.99808973403142
 20
-10.225250075917364
 30
1107.0
 10
70.00718754082494
 20
-7.450197247740377
 30
1107.0
 10
70.01265323625601
 20
-4.6751144398008515
 30
1107.0
 10
70.01463558716011
 20
-1.900000000001307
 30
1107.0
  0
LINE
  5
5C
330
17
100
AcDbEntity
  8
0
100
AcDbLine
 10
26.761343181431908
 20
-24.1
 30
1107.0
 11
69.89283880254258
 21
-24.1
 31
1107.0
  0
SPLINE
  5
5D
330
17
100
AcDbEntity
  8
0
100
AcDbSpline
 70
0
 71
1
 72
4
 73
2
 74
0
 40
0.0
 40
0.0
 40
1.0
 40
1.0
 10
26.761343181554274
 20
-27.900000600000034
 30
1107.0
 10
26.761343181554274
 20
-24.099999399999938
 30
1107.0
  0
LINE
  5
5E
330
17
100
AcDbEntity
  8
0
100
AcDbLine
 10
26.761343181431908
 20
-27.9
 30
1107.0
 11
69.84875467551245
 21
-27.9
 31
1107.0
  0
SPLINE
  5
5F
330
17
100
AcDbEntity
  8
0
100
AcDbSpline
 70
0
 71
8
 72
18
 73
9
 74
0
 40
0.0
 40
0.0
 40
0.0
 40
0.0
 40
0.0
 40
0.0
 40
0.0
 40
0.0
 40
0.0
 40
1.0
 40
1.0
 40
1.0
 40
1.0
 40
1.0
 40
1.0
 40
1.0
 40
1.0
 40
1.0
 10
69.43324442940482
 20
-50.09999999902365
 30
1107.0
 10
69.50335243619095
 20
-47.3253634994322
 30
1107.0
 10
69.56794372607249
 20
-44.55059259176713
 30
1107.0
 10
69.62718351067434
 20
-41.77570477659549
 30
1107.0
 10
69.6812349305823
 20
-39.000715770733336
 30
1107.0
 10
69.73025918794806
 20
-36.225639511846886
 30
1107.0
 10
69.77441567622074
 20
-33.45048816291346
 30
1107.0
 10
69.81386210840544
 20
-30.67527211660029
 30
1107.0
 10
69.84875464524899
 20
-27.89999999961948
 30
1107.0
  0
LINE
  5
60
330
17
100
AcDbEntity
  8
0
100
AcDbLine
 10
26.761343181431908
 20
-50.1
 30
1107.0
 11
69.43324446804476
 21
-50.1
 31
1107.0
  0
SPLINE
  5
61
330
17
100
AcDbEntity
  8
0
100
AcDbSpline
 70
0
 71
1
 72
4
 73
2
 74
0
 40
0.0
 40
0.0
 40
1.0
 40
1.0
 10
26.761343181554274
 20
-53.9000006
 30
1107.0
 10
26.761343181554274
 20
-50.0999994
 30
1107.0
  0
LINE
  5
62
330
17
100
AcDbEntity
  8
0
100
AcDbLine
 10
26.761343181431908
 20
-53.9
 30
1107.0
 11
69.33265131583124
 21
-53.9
 31
1107.0
  0
SPLINE
  5
63
330
17
100
AcDbEntity
  8
0
100
AcDbSpline
 70
0
 71
8
 72
18
 73
9
 74
0
 40
0.0
 40
0.0
 40
0.0
 40
0.0
 40
0.0
 40
0.0
 40
0.0
 40
0.0
 40
0.0
 40
1.0
 40
1.0
 40
1.0
 40
1.0
 40
1.0
 40
1.0
 40
1.0
 40
1.0
 40
1.0
 10
68.5488999890582
 20
-76.10000000079583
 30
1107.0
 10
68.669194254864
 20
-73.32585044411445
 30
1107.0
 10
68.78275746127767
 20
-70.55140631202981
 30
1107.0
 10
68.88976906898839
 20
-67.77669565765041
 30
1107.0
 10
68.990405808707
 20
-65.0017447240566
 30
1107.0
 10
69.08484182996537
 20
-62.22657794964643
 30
1107.0
 10
69.17324884374445
 20
-59.451217973203825
 30
1107.0
 10
69.2557962603357
 20
-56.67568563874793
 30
1107.0
 10
69.33265132384079
 20
-53.90000000022175
 30
1107.0
  0
LINE
  5
64
330
17
100
AcDbEntity
  8
0
100
AcDbLine
 10
26.761343181431908
 20
-76.1
 30
1107.0
 11
68.54889997070532
 21
-76.1
 31
1107.0
  0
SPLINE
  5
65
330
17
100
AcDbEntity
  8
0
100
AcDbSpline
 70
0
 71
1
 72
4
 73
2
 74
0
 40
0.0
 40
0.0
 40
1.0
 40
1.0
 10
26.761343181554274
 20
-79.90000060000018
 30
1107.0
 10
26.761343181554274
 20
-76.09999939999999
 30
1107.0
  0
LINE
  5
66
330
17
100
AcDbEntity
  8
0
100
AcDbLine
 10
26.761343181431908
 20
-79.9
 30
1107.0
 11
68.37853455240696
 21
-79.9
 31
1107.0
  0
SPLINE
  5
67
330
17
100
AcDbEntity
  8
0
100
AcDbSpline
 70
0
 71
8
 72
18
 73
9
 74
0
 40
0.0
 40
0.0
 40
0.0
 40
0.0
 40
0.0
 40
0.0
 40
0.0
 40
0.0
 40
0.0
 40
1.0
 40
1.0
 40
1.0
 40
1.0
 40
1.0
 40
1.0
 40
1.0
 40
1.0
 40
1.0
 10
67.1453443243665
 20
-102.0999999998596
 30
1107.0
 10
67.32637843020534
 20
-99.32660036040468
 30
1107.0
 10
67.49934308033318
 20
-96.5526703775999
 30
1107.0
 10
67.66443644479682
 20
-93.77824889955731
 30
1107.0
 10
67.82185319306798
 20
-91.00337292978207
 30
1107.0
 10
67.97178467115609
 20
-88.2280776337648
 30
1107.0
 10
68.11441906920365
 20
-85.45239634515755
 30
1107.0
 10
68.24994158097806
 20
-82.67636057159186
 30
1107.0
 10
68.37853455667386
 20
-79.90000000019765
 30
1107.0
  0
LINE
  5
68
330
17
100
AcDbEntity
  8
0
100
AcDbLine
 10
26.761343181431908
 20
-102.1
 30
1107.0
 11
67.14534432651703
 21
-102.1
 31
1107.0
  0
SPLINE
  5
69
330
17
100
AcDbEntity
  8
0
100
AcDbSpline
 70
0
 71
1
 72
4
 73
2
 74
0
 40
0.0
 40
0.0
 40
1.0
 40
1.0
 10
26.761343181554274
 20
-105.90000060000003
 30
1107.0
 10
26.761343181554274
 20
-102.09999939999999
 30
1107.0
  0
LINE
  5
6A
330
17
100
AcDbEntity
  8
0
100
AcDbLine
 10
26.761343181431908
 20
-105.9
 30
1107.0
 11
66.89058426728114
 21
-105.9
 31
1107.0
  0
SPLINE
  5
6B
330
17
100
AcDbEntity
  8
0
100
AcDbSpline
 70
0
 71
8
 72
18
 73
9
 74
0
 40
0.0
 40
0.0
 40
0.0
 40
0.0
 40
0.0
 40
0.0
 40
0.0
 40
0.0
 40
0.0
 40
1.0
 40
1.0
 40
1.0
 40
1.0
 40
1.0
 40
1.0
 40
1.0
 40
1.0
 40
1.0
 10
65.11736616931958
 20
-128.0999999996068
 30
1107.0
 10
65.37100740093666
 20
-125.32762325681975
 30
1107.0
 10
65.61507482734842
 20
-122.55440170441894
 30
1107.0
 10
65.84979084726845
 20
-119.7803853528199
 30
1107.0
 10
66.0753734109916
 20
-117.00562232067085
 30
1107.0
 10
66.29203623862058
 20
-114.23015884322221
 30
1107.0
 10
66.49998902533095
 20
-111.45403928013636
 30
1107.0
 10
66.69943763510481
 20
-108.67730612279667
 30
1107.0
 10
66.89058428436351
 20
-105.90000000117564
 30
1107.0
  0
LINE
  5
6C
330
17
100
AcDbEntity
  8
0
100
AcDbLine
 10
26.761343181431908
 20
-128.1
 30
1107.0
 11
65.11736617361697
 21
-128.1
 31
1107.0
  0
SPLINE
  5
6D
330
17
100
AcDbEntity
  8
0
100
AcDbSpline
 70
0
 71
1
 72
4
 73
2
 74
0
 40
0.0
 40
0.0
 40
1.0
 40
1.0
 10
26.761343181554274
 20
-131.9000006
 30
1107.0
 10
26.761343181554274
 20
-128.09999939999992
 30
1107.0
  0
LINE
  5
6E
330
17
100
AcDbEntity
  8
0
100
AcDbLine
 10
26.761343181431908
 20
-131.9
 30
1107.0
 11
64.76170973514611
 21
-131.9
 31
1107.0
  0
SPLINE
  5
6F
330
17
100
AcDbEntity
  8
0
100
AcDbSpline
 70
0
 71
8
 72
25
 73
16
 74
0
 40
0.0
 40
0.0
 40
0.0
 40
0.0
 40
0.0
 40
0.0
 40
0.0
 40
0.0
 40
0.0
 40
0.7619374505883495
 40
0.7619374505883495
 40
0.7619374505883495
 40
0.7619374505883495
 40
0.7619374505883495
 40
0.7619374505883495
 40
0.7619374505883495
 40
1.0
 40
1.0
 40
1.0
 40
1.0
 40
1.0
 40
1.0
 40
1.0
 40
1.0
 40
1.0
 10
62.355426328479126
 20
-154.10000000344587
 30
1107.0
 10
62.61164418974027
 20
-151.98960132259396
 30
1107.0
 10
62.86177062971154
 20
-149.87846278553778
 30
1107.0
 10
63.10589842332987
 20
-147.76661697119394
 30
1107.0
 10
63.344105796042015
 20
-145.65409340325516
 30
1107.0
 10
63.576457878442355
 20
-143.54091873352206
 30
1107.0
 10
63.80300768766425
 20
-141.4271168665137
 30
1107.0
 10
64.02379682256196
 20
-139.31270904931338
 30
1107.0
 10
64.30604996157142
 20
-136.53689707541085
 30
1107.0
 10
64.37272549870187
 20
-135.87562935360413
 30
1107.0
 10
64.43887863369055
 20
-135.21393933882518
 30
1107.0
 10
64.50450591597436
 20
-134.5518533788662
 30
1107.0
 10
64.56960448184732
 20
-133.88939561567165
 30
1107.0
 10
64.63417205446055
 20
-133.22658798533817
 30
1107.0
 10
64.69820694382231
 20
-132.5634502181147
 30
1107.0
 10
64.76170804679796
 20
-131.89999983840238
 30
1107.0
  0
LINE
  5
70
330
17
100
AcDbEntity
  8
0
100
AcDbLine
 10
26.761343181431908
 20
-154.1
 30
1107.0
 11
62.35542630009595
 21
-154.1
 31
1107.0
  0
SPLINE
  5
71
330
17
100
AcDbEntity
  8
0
100
AcDbSpline
 70
0
 71
1
 72
4
 73
2
 74
0
 40
0.0
 40
0.0
 40
1.0
 40
1.0
 10
26.761343181554274
 20
-157.90000060000003
 30
1107.0
 10
26.761343181554274
 20
-154.0999994
 30
1107.0
  0
LINE
  5
72
330
17
100
AcDbEntity
  8
0
100
AcDbLine
 10
26.761343181431908
 20
-157.9
 30
1107.0
 11
61.88524112549614
 21
-157.9
 31
1107.0
  0
SPLINE
  5
73
330
17
100
AcDbEntity
  8
0
100
AcDbSpline
 70
0
 71
8
 72
25
 73
16
 74
0
 40
0.0
 40
0.0
 40
0.0
 40
0.0
 40
0.0
 40
0.0
 40
0.0
 40
0.0
 40
0.0
 40
0.41196026088553417
 40
0.41196026088553417
 40
0.41196026088553417
 40
0.41196026088553417
 40
0.41196026088553417
 40
0.41196026088553417
 40
0.41196026088553417
 40
1.0
 40
1.0
 40
1.0
 40
1.0
 40
1.0
 40
1.0
 40
1.0
 40
1.0
 40
1.0
 10
58.7597796400085
 20
-180.09999999831274
 30
1107.0
 10
58.938410480645686
 20
-178.95940394117844
 30
1107.0
 10
59.114792368813525
 20
-177.8184559476108
 30
1107.0
 10
59.28896732451318
 20
-176.6771677199913
 30
1107.0
 10
59.460974468637275
 20
-175.53554992359568
 30
1107.0
 10
59.63085029840117
 20
-174.3936122340788
 30
1107.0
 10
59.79862891629141
 20
-173.25136337721892
 30
1107.0
 10
59.96434224232277
 20
-172.10881116615445
 30
1107.0
 10
60.361657256932915
 20
-169.334639156575
 30
1107.0
 10
60.591145533870744
 20
-167.70272329651888
 30
1107.0
 10
60.81657160944319
 20
-166.0702384398941
 30
1107.0
 10
61.038013370775076
 20
-164.4372065353231
 30
1107.0
 10
61.255541014790126
 20
-162.80364812211337
 30
1107.0
 10
61.46921782622935
 20
-161.1695824278936
 30
1107.0
 10
61.679100803241276
 20
-159.53502744713722
 30
1107.0
 10
61.885241162005656
 20
-157.9000000046031
 30
1107.0
  0
LINE
  5
74
330
17
100
AcDbEntity
  8
0
100
AcDbLine
 10
26.761343181431908
 20
-180.1
 30
1107.0
 11
58.759779650782136
 21
-180.1
 31
1107.0
  0
SPLINE
  5
75
330
17
100
AcDbEntity
  8
0
100
AcDbSpline
 70
0
 71
1
 72
4
 73
2
 74
0
 40
0.0
 40
0.0
 40
1.0
 40
1.0
 10
26.761343181554274
 20
-183.9000006000001
 30
1107.0
 10
26.761343181554274
 20
-180.09999939999994
 30
1107.0
  0
LINE
  5
76
330
17
100
AcDbEntity
  8
0
100
AcDbLine
 10
26.761343181431908
 20
-183.9
 30
1107.0
 11
58.153271377764405
 21
-183.9
 31
1107.0
  0
SPLINE
  5
77
330
17
100
AcDbEntity
  8
0
100
AcDbSpline
 70
0
 71
8
 72
25
 73
16
 74
0
 40
0.0
 40
0.0
 40
0.0
 40
0.0
 40
0.0
 40
0.0
 40
0.0
 40
0.0
 40
0.0
 40
0.24097209597222574
 40
0.24097209597222574
 40
0.24097209597222574
 40
0.24097209597222574
 40
0.24097209597222574
 40
0.24097209597222574
 40
0.24097209597222574
 40
1.0
 40
1.0
 40
1.0
 40
1.0
 40
1.0
 40
1.0
 40
1.0
 40
1.0
 40
1.0
 10
54.08400274571202
 20
-206.0999999986265
 30
1107.0
 10
54.22192388450792
 20
-205.43425096204425
 30
1107.0
 10
54.35861940149593
 20
-204.76824799182788
 30
1107.0
 10
54.4941151797819
 20
-204.10199912889263
 30
1107.0
 10
54.62843575138757
 20
-203.4355118199699
 30
1107.0
 10
54.76160441948447
 20
-202.7687929446179
 30
1107.0
 10
54.89364336241945
 20
-202.10184883827705
 30
1107.0
 10
55.024573728748116
 20
-201.4346853134362
 30
1107.0
 10
55.563399617365135
 20
-198.66516285165113
 30
1107.0
 10
55.961578889697634
 20
-196.56092650038013
 30
1107.0
 10
56.34958274732416
 20
-194.45477438794194
 30
1107.0
 10
56.727942851831784
 20
-192.34685914402954
 30
1107.0
 10
57.097116464239136
 20
-190.23731424817743
 30
1107.0
 10
57.45750217271508
 20
-188.12625672662372
 30
1107.0
 10
57.80945046375972
 20
-186.0137889606212
 30
1107.0
 10
58.15327138827068
 20
-183.90000000170895
 30
1107.0
  0
LINE
  5
78
330
17
100
AcDbEntity
  8
0
100
AcDbLine
 10
26.761343181431908
 20
-206.1
 30
1107.0
 11
54.084002752342016
 21
-206.1
 31
1107.0
  0
SPLINE
  5
79
330
17
100
AcDbEntity
  8
0
100
AcDbSpline
 70
0
 71
1
 72
4
 73
2
 74
0
 40
0.0
 40
0.0
 40
1.0
 40
1.0
 10
26.761343181554274
 20
-209.90000060000008
 30
1107.0
 10
26.761343181554274
 20
-206.09999939999992
 30
1107.0
  0
LINE
  5
7A
330
17
100
AcDbEntity
  8
0
100
AcDbLine
 10
26.761343181431908
 20
-209.9
 30
1107.0
 11
53.27792257996252
 21
-209.9
 31
1107.0
  0
SPLINE
  5
7B
330
17
100
AcDbEntity
  8
0
100
AcDbSpline
 70
0
 71
8
 72
25
 73
16
 74
0
 40
0.0
 40
0.0
 40
0.0
 40
0.0
 40
0.0
 40
0.0
 40
0.0
 40
0.0
 40
0.0
 40
0.6348426753150498
 40
0.6348426753150498
 40
0.6348426753150498
 40
0.6348426753150498
 40
0.6348426753150498
 40
0.6348426753150498
 40
0.6348426753150498
 40
1.0
 40
1.0
 40
1.0
 40
1.0
 40
1.0
 40
1.0
 40
1.0
 40
1.0
 40
1.0
 10
47.5468948883879
 20
-232.09999999381094
 30
1107.0
 10
48.09218978801352
 20
-230.36365022626504
 30
1107.0
 10
48.61510749416897
 20
-228.62023835877096
 30
1107.0
 10
49.11850444188534
 20
-226.871010981777
 30
1107.0
 10
49.60444906531461
 20
-225.1168821707069
 30
1107.0
 10
50.07461576825608
 20
-223.3585497866209
 30
1107.0
 10
50.53035987331637
 20
-221.5965173406019
 30
1107.0
 10
50.97284544347713
 20
-219.83113297698023
 30
1107.0
 10
51.65052723717331
 20
-217.04534326169755
 30
1107.0
 10
51.89391666136022
 20
-216.02710438262366
 30
1107.0
 10
52.13341977445605
 20
-215.0079395929443
 30
1107.0
 10
52.36920202479635
 20
-213.98790442130678
 30
1107.0
 10
52.60141291400714
 20
-212.96704921427676
 30
1107.0
 10
52.83018854081378
 20
-211.94541969755778
 30
1107.0
 10
53.05565353740518
 20
-210.9230574026886
 30
1107.0
 10
53.27792258755033
 20
-209.90000000164855
 30
1107.0
  0
LINE
  5
7C
330
17
100
AcDbEntity
  8
0
100
AcDbLine
 10
26.761343181431908
 20
-232.1
 30
1107.0
 11
47.546894908095325
 21
-232.1
 31
1107.0
  0
SPLINE
  5
7D
330
17
100
AcDbEntity
  8
0
100
AcDbSpline
 70
0
 71
1
 72
4
 73
2
 74
0
 40
0.0
 40
0.0
 40
1.0
 40
1.0
 10
26.761343181554274
 20
-235.90000060000008
 30
1107.0
 10
26.761343181554274
 20
-232.09999939999992
 30
1107.0
  0
LINE
  5
7E
330
17
100
AcDbEntity
  8
0
100
AcDbLine
 10
26.761343181431908
 20
-235.9
 30
1107.0
 11
46.297360818702224
 21
-235.9
 31
1107.0
  0
SPLINE
  5
7F
330
17
100
AcDbEntity
  8
0
100
AcDbSpline
 70
0
 71
8
 72
39
 73
30
 74
0
 40
0.0
 40
0.0
 40
0.0
 40
0.0
 40
0.0
 40
0.0
 40
0.0
 40
0.0
 40
0.0
 40
0.11475436915107565
 40
0.11475436915107565
 40
0.11475436915107565
 40
0.11475436915107565
 40
0.11475436915107565
 40
0.11475436915107565
 40
0.11475436915107565
 40
0.4287624516508019
 40
0.4287624516508019
 40
0.4287624516508019
 40
0.4287624516508019
 40
0.4287624516508019
 40
0.4287624516508019
 40
0.4287624516508019
 40
0.8277944795189717
 40
0.8277944795189717
 40
0.8277944795189717
 40
0.8277944795189717
 40
0.8277944795189717
 40
0.8277944795189717
 40
0.8277944795189717
 40
1.0
 40
1.0
 40
1.0
 40
1.0
 40
1.0
 40
1.0
 40
1.0
 40
1.0
 40
1.0
 10
33.52359667119304
 20
-258.1000000135084
 30
1107.0
 10
33.80822098410816
 20
-257.8662383312936
 30
1107.0
 10
34.087687226476646
 20
-257.6261815712513
 30
1107.0
 10
34.3620660148248
 20
-257.3802457922316
 30
1107.0
 10
34.63144697281485
 20
-257.12882415156474
 30
1107.0
 10
34.89593521709813
 20
-256.8722827975132
 30
1107.0
 10
35.15564866541146
 20
-256.61095774250305
 30
1107.0
 10
35.410716166916835
 20
-256.3451527171352
 30
1107.0
 10
36.346897020919364
 20
-255.3362833309548
 30
1107.0
 10
36.99842735465408
 20
-254.56627584692774
 30
1107.0
 10
37.61896214524238
 20
-253.7704880468343
 30
1107.0
 10
38.211146996334534
 20
-252.95331460501674
 30
1107.0
 10
38.77735702960121
 20
-252.11830491831398
 30
1107.0
 10
39.31978295031358
 20
-251.26822604483837
 30
1107.0
 10
39.84047170162617
 20
-250.405092304005
 30
1107.0
 10
40.97789384671215
 20
-248.41840818099732
 30
1107.0
 10
41.58207854645147
 20
-247.28829016594
 30
1107.0
 10
42.157674947767276
 20
-246.143064727257
 30
1107.0
 10
42.707585686629486
 20
-244.98525138282682
 30
1107.0
 10
43.23422165948068
 20
-243.81684184389138
 30
1107.0
 10
43.73966128963202
 20
-242.63937633895617
 30
1107.0
 10
44.22571694160947
 20
-241.45397528413184
 30
1107.0
 10
44.89611141371351
 20
-239.74670431783355
 30
1107.0000000000002
 10
45.097718644181924
 20
-239.22350561027537
 30
1107.0
 10
45.298869479507225
 20
-238.69164319822823
 30
1107.0
 10
45.49956196798604
 20
-238.15100851927014
 30
1107.0
 10
45.699774556435294
 20
-237.60153010680813
 30
1107.0
 10
45.89948222476966
 20
-237.04317960124126
 30
1107.0
 10
46.09867262057894
 20
-236.4759777611227
 30
1107.0
 10
46.2973621937055
 20
-235.90000047432227
 30
1107.0
  0
LINE
  5
80
330
17
100
AcDbEntity
  8
0
100
AcDbLine
 10
26.761343181431908
 20
-258.1
 30
1107.0
 11
33.52359666009866
 21
-258.1
 31
1107.0
  0
SPLINE
  5
81
330
17
100
AcDbEntity
  8
0
100
AcDbSpline
 70
0
 71
1
 72
4
 73
2
 74
0
 40
0.0
 40
0.0
 40
1.0
 40
1.0
 10
26.761343181554274
 20
-261.3125384623937
 30
1107.0
 10
26.761343181554274
 20
-258.09999939999994
 30
1107.0
  0
SPLINE
  5
82
330
17
100
AcDbEntity
  8
0
100
AcDbSpline
 70
0
 71
8
 72
60
 73
51
 74
0
 40
0.0
 40
0.0
 40
0.0
 40
0.0
 40
0.0
 40
0.0
 40
0.0
 40
0.0
 40
0.0
 40
0.026601619014286332
 40
0.026601619014286332
 40
0.026601619014286332
 40
0.026601619014286332
 40
0.026601619014286332
 40
0.026601619014286332
 40
0.026601619014286332
 40
0.04272171228733701
 40
0.04272171228733701
 40
0.04272171228733701
 40
0.04272171228733701
 40
0.04272171228733701
 40
0.04272171228733701
 40
0.04272171228733701
 40
0.052039818124233764
 40
0.052039818124233764
 40
0.052039818124233764
 40
0.052039818124233764
 40
0.052039818124233764
 40
0.052039818124233764
 40
0.052039818124233764
 40
0.056318519803285075
 40
0.056318519803285075
 40
0.056318519803285075
 40
0.056318519803285075
 40
0.056318519803285075
 40
0.056318519803285075
 40
0.056318519803285075
 40
0.0584578820087677
 40
0.0584578820087677
 40
0.0584578820087677
 40
0.0584578820087677
 40
0.0584578820087677
 40
0.0584578820087677
 40
0.0584578820087677
 40
0.06095380415643276
 40
0.06095380415643276
 40
0.06095380415643276
 40
0.06095380415643276
 40
0.06095380415643276
 40
0.06095380415643276
 40
0.06095380415643276
 40
0.06911753188078613
 40
0.06911753188078613
 40
0.06911753188078613
 40
0.06911753188078613
 40
0.06911753188078613
 40
0.06911753188078613
 40
0.06911753188078613
 40
0.06911753188078613
 40
0.06911753188078613
 10
2.399277555568787
 20
-233.0324200546909
 30
1107.0
 10
2.6392264646485017
 20
-235.03819692250622
 30
1107.0
 10
2.947541625842618
 20
-237.03425155659573
 30
1107.0
 10
3.331122511454666
 20
-239.0190092190836
 30
1107.0
 10
3.798073574065384
 20
-240.9880849854676
 30
1107.0
 10
4.357551636220606
 20
-242.934336386715
 30
1107.0
 10
5.019735954381375
 20
-244.8478453481874
 30
1107.0
 10
5.795568126644952
 20
-246.71600077536186
 30
1107.0
 10
7.243941201158744
 20
-249.6184230178672
 30
1107.0
 10
7.83641770759626
 20
-250.69059361182542
 30
1107.0
 10
8.477307266878816
 20
-251.73592823680406
 30
1107.0
 10
9.168825207612535
 20
-252.74961266556045
 30
1107.0
 10
9.912756756444285
 20
-253.72600990322914
 30
1107.0
 10
10.710237598007572
 20
-254.65882341011726
 30
1107.0
 10
11.561455231690358
 20
-255.54132058781641
 30
1107.0
 10
12.987625398971907
 20
-256.84374682556495
 30
1107.0
 10
13.527555888460022
 20
-257.30169987044775
 30
1107.0
 10
14.084691446793405
 20
-257.73913432476485
 30
1107.0
 10
14.658576028711293
 20
-258.15469422409444
 30
1107.0
 10
15.248597473429406
 20
-258.54707602134
 30
1107.0
 10
15.85397118278366
 20
-258.9150523467386
 30
1107.0
 10
16.473721593989204
 20
-259.2574992633791
 30
1107.0
 10
17.39729570887888
 20
-259.7184951939697
 30
1107.0
 10
17.689271861220256
 20
-259.85725358599313
 30
1107.0
 10
17.982512134218325
 20
-259.98974593104
 30
1107.0
 10
18.276938758054737
 20
-260.11601596585115
 30
1107.0
 10
18.572473962913303
 20
-260.2361074271672
 30
1107.0
 10
18.869039978979988
 20
-260.35006405172754
 30
1107.0
 10
19.16655903644292
 20
-260.4579295762713
 30
1107.0
 10
19.614151322672782
 20
-260.61065708863936
 30
1107.0
 10
19.763568021880335
 20
-260.6600500141765
 30
1107.0
 10
19.913193066376838
 20
-260.7079384277576
 30
1107.0
 10
20.063016562907244
 20
-260.7543307756986
 30
1107.0
 10
20.21302912169962
 20
-260.79923203702253
 30
1107.0
 10
20.36322185646517
 20
-260.8426437234595
 30
1107.0
 10
20.51358638439823
 20
-260.88456387944626
 30
1107.0
 10
20.839731311652397
 20
-260.9721474772154
 30
1107.0
 10
21.01557481073639
 20
-261.01725318479185
 30
1107.0
 10
21.191639882654133
 20
-261.06026440895243
 30
1107.0
 10
21.367921086631604
 20
-261.1011413537941
 30
1107.0
 10
21.544412981894894
 20
-261.1398442234133
 30
1107.0
 10
21.72111012767022
 20
-261.1763332219066
 30
1107.0
 10
21.898007083183906
 20
-261.2105685533702
 30
1107.0
 10
22.654333363664534
 20
-261.3469867245489
 30
1107.0
 10
23.23817895330092
 20
-261.427383473748
 30
1107.0
 10
23.825512950268763
 20
-261.48175871221696
 30
1107.0
 10
24.41501439943722
 20
-261.5083156128624
 30
1107.0
 10
25.00516395993157
 20
-261.5055156421962
 30
1107.0
 10
25.59424457053961
 20
-261.47222065634395
 30
1107.0
 10
26.180341792213575
 20
-261.4078499736309
 30
1107.0
 10
26.761343182440957
 20
-261.3125384677286
 30
1107.0
  0
SPLINE
  5
83
330
17
100
AcDbEntity
  8
0
100
AcDbSpline
 70
0
 71
8
 72
417
 73
408
 74
0
 40
0.0
 40
0.0
 40
0.0
 40
0.0
 40
0.0
 40
0.0
 40
0.0
 40
0.0
 40
0.0
 40
0.002866988159829743
 40
0.002866988159829743
 40
0.002866988159829743
 40
0.002866988159829743
 40
0.002866988159829743
 40
0.002866988159829743
 40
0.002866988159829743
 40
0.005862109497266453
 40
0.005862109497266453
 40
0.005862109497266453
 40
0.005862109497266453
 40
0.005862109497266453
 40
0.005862109497266453
 40
0.005862109497266453
 40
0.009156742968422473
 40
0.009156742968422473
 40
0.009156742968422473
 40
0.009156742968422473
 40
0.009156742968422473
 40
0.009156742968422473
 40
0.009156742968422473
 40
0.011253327904618263
 40
0.011253327904618263
 40
0.011253327904618263
 40
0.011253327904618263
 40
0.011253327904618263
 40
0.011253327904618263
 40
0.011253327904618263
 40
0.01424844924206521
 40
0.01424844924206521
 40
0.01424844924206521
 40
0.01424844924206521
 40
0.01424844924206521
 40
0.01424844924206521
 40
0.01424844924206521
 40
0.017543082713259252
 40
0.017543082713259252
 40
0.017543082713259252
 40
0.017543082713259252
 40
0.017543082713259252
 40
0.017543082713259252
 40
0.017543082713259252
 40
0.023365765234803722
 40
0.023365765234803722
 40
0.023365765234803722
 40
0.023365765234803722
 40
0.023365765234803722
 40
0.023365765234803722
 40
0.023365765234803722
 40
0.033018512102214875
 40
0.033018512102214875
 40
0.033018512102214875
 40
0.033018512102214875
 40
0.033018512102214875
 40
0.033018512102214875
 40
0.033018512102214875
 40
0.05355819057222949
 40
0.05355819057222949
 40
0.05355819057222949
 40
0.05355819057222949
 40
0.05355819057222949
 40
0.05355819057222949
 40
0.05355819057222949
 40
0.06738791242504799
 40
0.06738791242504799
 40
0.06738791242504799
 40
0.06738791242504799
 40
0.06738791242504799
 40
0.06738791242504799
 40
0.06738791242504799
 40
0.07465439060165252
 40
0.07465439060165252
 40
0.07465439060165252
 40
0.07465439060165252
 40
0.07465439060165252
 40
0.07465439060165252
 40
0.07465439060165252
 40
0.08354807193508751
 40
0.08354807193508751
 40
0.08354807193508751
 40
0.08354807193508751
 40
0.08354807193508751
 40
0.08354807193508751
 40
0.08354807193508751
 40
0.12524528470846086
 40
0.12524528470846086
 40
0.12524528470846086
 40
0.12524528470846086
 40
0.12524528470846086
 40
0.12524528470846086
 40
0.12524528470846086
 40
0.24026152931684236
 40
0.24026152931684236
 40
0.24026152931684236
 40
0.24026152931684236
 40
0.24026152931684236
 40
0.24026152931684236
 40
0.24026152931684236
 40
0.3098206950361847
 40
0.3098206950361847
 40
0.3098206950361847
 40
0.3098206950361847
 40
0.3098206950361847
 40
0.3098206950361847
 40
0.3098206950361847
 40
0.38165805566625466
 40
0.38165805566625466
 40
0.38165805566625466
 40
0.38165805566625466
 40
0.38165805566625466
 40
0.38165805566625466
 40
0.38165805566625466
 40
0.4448339144453112
 40
0.4448339144453112
 40
0.4448339144453112
 40
0.4448339144453112
 40
0.4448339144453112
 40
0.4448339144453112
 40
0.4448339144453112
 40
0.4999399376983566
 40
0.4999399376983566
 40
0.4999399376983566
 40
0.4999399376983566
 40
0.4999399376983566
 40
0.4999399376983566
 40
0.4999399376983566
 40
0.5393751985206756
 40
0.5393751985206756
 40
0.5393751985206756
 40
0.5393751985206756
 40
0.5393751985206756
 40
0.5393751985206756
 40
0.5393751985206756
 40
0.5543113588492041
 40
0.5543113588492041
 40
0.5543113588492041
 40
0.5543113588492041
 40
0.5543113588492041
 40
0.5543113588492041
 40
0.5543113588492041
 40
0.5687888681996409
 40
0.5687888681996409
 40
0.5687888681996409
 40
0.5687888681996409
 40
0.5687888681996409
 40
0.5687888681996409
 40
0.5687888681996409
 40
0.5856990710507621
 40
0.5856990710507621
 40
0.5856990710507621
 40
0.5856990710507621
 40
0.5856990710507621
 40
0.5856990710507621
 40
0.5856990710507621
 40
0.5944934513129648
 40
0.5944934513129648
 40
0.5944934513129648
 40
0.5944934513129648
 40
0.5944934513129648
 40
0.5944934513129648
 40
0.5944934513129648
 40
0.5993827710937388
 40
0.5993827710937388
 40
0.5993827710937388
 40
0.5993827710937388
 40
0.5993827710937388
 40
0.5993827710937388
 40
0.5993827710937388
 40
0.6035567786775341
 40
0.6035567786775341
 40
0.6035567786775341
 40
0.6035567786775341
 40
0.6035567786775341
 40
0.6035567786775341
 40
0.6035567786775341
 40
0.6050092980818123
 40
0.6050092980818123
 40
0.6050092980818123
 40
0.6050092980818123
 40
0.6050092980818123
 40
0.6050092980818123
 40
0.6050092980818123
 40
0.6074301637556119
 40
0.6074301637556119
 40
0.6074301637556119
 40
0.6074301637556119
 40
0.6074301637556119
 40
0.6074301637556119
 40
0.6074301637556119
 40
0.6100931159967864
 40
0.6100931159967864
 40
0.6100931159967864
 40
0.6100931159967864
 40
0.6100931159967864
 40
0.6100931159967864
 40
0.6100931159967864
 40
0.6125704738926884
 40
0.6125704738926884
 40
0.6125704738926884
 40
0.6125704738926884
 40
0.6125704738926884
 40
0.6125704738926884
 40
0.6125704738926884
 40
0.6150435861159894
 40
0.6150435861159894
 40
0.6150435861159894
 40
0.6150435861159894
 40
0.6150435861159894
 40
0.6150435861159894
 40
0.6150435861159894
 40
0.6173187978899699
 40
0.6173187978899699
 40
0.6173187978899699
 40
0.6173187978899699
 40
0.6173187978899699
 40
0.6173187978899699
 40
0.6173187978899699
 40
0.6195940096639332
 40
0.6195940096639332
 40
0.6195940096639332
 40
0.6195940096639332
 40
0.6195940096639332
 40
0.6195940096639332
 40
0.6195940096639332
 40
0.6214900194755575
 40
0.6214900194755575
 40
0.6214900194755575
 40
0.6214900194755575
 40
0.6214900194755575
 40
0.6214900194755575
 40
0.6214900194755575
 40
0.6233860292871869
 40
0.6233860292871869
 40
0.6233860292871869
 40
0.6233860292871869
 40
0.6233860292871869
 40
0.6233860292871869
 40
0.6233860292871869
 40
0.6270720274043484
 40
0.6270720274043484
 40
0.6270720274043484
 40
0.6270720274043484
 40
0.6270720274043484
 40
0.6270720274043484
 40
0.6270720274043484
 40
0.633182689702596
 40
0.633182689702596
 40
0.633182689702596
 40
0.633182689702596
 40
0.633182689702596
 40
0.633182689702596
 40
0.633182689702596
 40
0.646185378837353
 40
0.646185378837353
 40
0.646185378837353
 40
0.646185378837353
 40
0.646185378837353
 40
0.646185378837353
 40
0.646185378837353
 40
0.6549403263317447
 40
0.6549403263317447
 40
0.6549403263317447
 40
0.6549403263317447
 40
0.6549403263317447
 40
0.6549403263317447
 40
0.6549403263317447
 40
0.6595403929928331
 40
0.6595403929928331
 40
0.6595403929928331
 40
0.6595403929928331
 40
0.6595403929928331
 40
0.6595403929928331
 40
0.6595403929928331
 40
0.6651705639711573
 40
0.6651705639711573
 40
0.6651705639711573
 40
0.6651705639711573
 40
0.6651705639711573
 40
0.6651705639711573
 40
0.6651705639711573
 40
0.6915618203595522
 40
0.6915618203595522
 40
0.6915618203595522
 40
0.6915618203595522
 40
0.6915618203595522
 40
0.6915618203595522
 40
0.6915618203595522
 40
0.7628857058131235
 40
0.7628857058131235
 40
0.7628857058131235
 40
0.7628857058131235
 40
0.7628857058131235
 40
0.7628857058131235
 40
0.7628857058131235
 40
0.8081575331740564
 40
0.8081575331740564
 40
0.8081575331740564
 40
0.8081575331740564
 40
0.8081575331740564
 40
0.8081575331740564
 40
0.8081575331740564
 40
0.8533932706701429
 40
0.8533932706701429
 40
0.8533932706701429
 40
0.8533932706701429
 40
0.8533932706701429
 40
0.8533932706701429
 40
0.8533932706701429
 40
0.89311423144027
 40
0.89311423144027
 40
0.89311423144027
 40
0.89311423144027
 40
0.89311423144027
 40
0.89311423144027
 40
0.89311423144027
 40
0.9277255441343613
 40
0.9277255441343613
 40
0.9277255441343613
 40
0.9277255441343613
 40
0.9277255441343613
 40
0.9277255441343613
 40
0.9277255441343613
 40
0.9524786249778683
 40
0.9524786249778683
 40
0.9524786249778683
 40
0.9524786249778683
 40
0.9524786249778683
 40
0.9524786249778683
 40
0.9524786249778683
 40
0.9618522618651074
 40
0.9618522618651074
 40
0.9618522618651074
 40
0.9618522618651074
 40
0.9618522618651074
 40
0.9618522618651074
 40
0.9618522618651074
 40
0.9709380674854555
 40
0.9709380674854555
 40
0.9709380674854555
 40
0.9709380674854555
 40
0.9709380674854555
 40
0.9709380674854555
 40
0.9709380674854555
 40
0.981550604237205
 40
0.981550604237205
 40
0.981550604237205
 40
0.981550604237205
 40
0.981550604237205
 40
0.981550604237205
 40
0.981550604237205
 40
0.9870698278455665
 40
0.9870698278455665
 40
0.9870698278455665
 40
0.9870698278455665
 40
0.9870698278455665
 40
0.9870698278455665
 40
0.9870698278455665
 40
0.9901383094436543
 40
0.9901383094436543
 40
0.9901383094436543
 40
0.9901383094436543
 40
0.9901383094436543
 40
0.9901383094436543
 40
0.9901383094436543
 40
0.9927579238067344
 40
0.9927579238067344
 40
0.9927579238067344
 40
0.9927579238067344
 40
0.9927579238067344
 40
0.9927579238067344
 40
0.9927579238067344
 40
0.9936695614477087
 40
0.9936695614477087
 40
0.9936695614477087
 40
0.9936695614477087
 40
0.9936695614477087
 40
0.9936695614477087
 40
0.9936695614477087
 40
0.9951889575159991
 40
0.9951889575159991
 40
0.9951889575159991
 40
0.9951889575159991
 40
0.9951889575159991
 40
0.9951889575159991
 40
0.9951889575159991
 40
0.9968602931911158
 40
0.9968602931911158
 40
0.9968602931911158
 40
0.9968602931911158
 40
0.9968602931911158
 40
0.9968602931911158
 40
0.9968602931911158
 40
0.9980758100457433
 40
0.9980758100457433
 40
0.9980758100457433
 40
0.9980758100457433
 40
0.9980758100457433
 40
0.9980758100457433
 40
0.9980758100457433
 40
1.0
 40
1.0
 40
1.0
 40
1.0
 40
1.0
 40
1.0
 40
1.0
 40
1.0
 40
1.0
 10
2.39927755556878
 20
233.0324200546909
 30
1107.0
 10
2.399133588798795
 20
233.03256402016174
 30
1107.0
 10
2.399162472707405
 20
233.03236166873043
 30
1107.0
 10
2.3992534496246964
 20
233.03212904298377
 30
1107.0
 10
2.3993313154269296
 20
233.03202218307413
 30
1107.0
 10
2.3993564195365353
 20
233.03203712671956
 30
1107.0
 10
2.399324664922115
 20
233.03200990920377
 30
1107.0
 10
2.3992675080984447
 20
233.03161656337616
 30
1107.0
 10
2.3992357152303887
 20
233.02907410318468
 30
1107.0
 10
2.399211617142794
 20
233.02714699084322
 30
1107.0
 10
2.3991774495789024
 20
233.02441462738108
 30
1107.0
 10
2.3991309972539288
 20
233.02069985755153
 30
1107.0
 10
2.3990700448830866
 20
233.01582552610813
 30
1107.0
 10
2.3989923771815906
 20
233.00961447780432
 30
1107.0
 10
2.398895778864655
 20
233.00188955739327
 30
1107.0
 10
2.398648516008614
 20
232.9821160670872
 30
1107.0
 10
2.3984934108304663
 20
232.96971238144812
 30
1107.0
 10
2.398309770568997
 20
232.95502675907798
 30
1107.0
 10
2.398094646680155
 20
232.93782340634343
 30
1107.0
 10
2.3978450906198927
 20
232.91786652961125
 30
1107.0
 10
2.3975581538441597
 20
232.8949203352483
 30
1107.0
 10
2.397230887808908
 20
232.86874902962148
 30
1107.0
 10
2.3966245433453883
 20
232.82025995785563
 30
1107.0
 10
2.396371216998578
 20
232.8000015731425
 30
1107.0
 10
2.39609960508698
 20
232.77828090070898
 30
1107.0
 10
2.3958089477679128
 20
232.7550371763057
 30
1107.0
 10
2.3954984851986967
 20
232.73020963568308
 30
1107.0
 10
2.3951674575366484
 20
232.70373751459147
 30
1107.0
 10
2.3948151049390867
 20
232.6755600487812
 30
1107.0
 10
2.3939057570265243
 20
232.60283993860426
 30
1107.0
 10
2.3933257755138255
 20
232.55645909919002
 30
1107.0
 10
2.3926985077404344
 20
232.50629680051276
 30
1107.0
 10
2.3920217384215623
 20
232.45217588732544
 30
1107.0
 10
2.3912932522724204
 20
232.3939192043813
 30
1107.0
 10
2.390510834008225
 20
232.3313495964339
 30
1107.0
 10
2.3896722683441967
 20
232.26428990823712
 30
1107.0
 10
2.387788718812053
 20
232.1136633684835
 30
1107.0
 10
2.3867314787801495
 20
232.02911639747103
 30
1107.0
 10
2.385600671355805
 20
231.93868627787498
 30
1107.0
 10
2.384393347994972
 20
231.8421372160625
 30
1107.0
 10
2.383106560153605
 20
231.73923341840046
 30
1107.0
 10
2.3817373592876527
 20
231.6297390912556
 30
1107.0
 10
2.3802827968530598
 20
231.51341844099437
 30
1107.0
 10
2.3760131696932745
 20
231.1719784341661
 30
1107.0
 10
2.373284305490505
 20
230.95375249143785
 30
1107.0
 10
2.370554059174773
 20
230.73541602182357
 30
1107.0
 10
2.367822827778569
 20
230.5170007757816
 30
1107.0
 10
2.3650908784435316
 20
230.29852811652339
 30
1107.0
 10
2.3623583832684285
 20
230.08001180672323
 30
1107.0
 10
2.3596254029926857
 20
229.86145670363865
 30
1107.0
 10
2.3523604344245332
 20
229.28048070159315
 30
1107.0
 10
2.347827846107364
 20
228.9180118189366
 30
1107.0
 10
2.3432944828997146
 20
228.55548096867005
 30
1107.0
 10
2.338760538309181
 20
228.19290362548875
 30
1107.0
 10
2.334226146969083
 20
227.83029055596444
 30
1107.0
 10
2.329691399880907
 20
227.46764903744855
 30
1107.0
 10
2.3251563435676617
 20
227.10498279034388
 30
1107.0
 10
2.310970409898995
 20
225.97054057620494
 30
1107.0
 10
2.3013186640678267
 20
225.19869515757628
 30
1107.0
 10
2.2916661328891488
 20
224.42678693511792
 30
1107.0
 10
2.282013031885519
 20
223.65483314400265
 30
1107.0
 10
2.2723595073247576
 20
222.8828454812289
 30
1107.0
 10
2.262705654884818
 20
222.11083159814945
 30
1107.0
 10
2.253051514385916
 20
221.33879467910768
 30
1107.0
 10
2.236896599201828
 20
220.04689397107433
 30
1107.0
 10
2.230189569371635
 20
219.51053605847065
 30
1107.0
 10
2.2232721728759817
 20
218.95735522597195
 30
1107.0
 10
2.2161405817027613
 20
218.38704534931207
 30
1107.0
 10
2.2087909678398643
 20
217.7993003042252
 30
1107.0
 10
2.2012195032751816
 20
217.19381396644502
 30
1107.0
 10
2.193422359996602
 20
216.57028021170538
 30
1107.0
 10
2.181178309402881
 20
215.59112944235935
 30
1107.0
 10
2.176960916095009
 20
215.25386420184395
 30
1107.0
 10
2.1727434883588885
 20
214.91659729748847
 30
1107.0
 10
2.168526007780303
 20
214.5793288256452
 30
1107.0
 10
2.1643084792403253
 20
214.24205887572464
 30
1107.0
 10
2.1600909309153153
 20
213.90478753019536
 30
1107.0
 10
2.1558734142769236
 20
213.56751486458379
 30
1107.0
 10
2.146494177231166
 20
212.81744032137405
 30
1107.0
 10
2.1412518539235856
 20
212.39817637851016
 30
1107.0
 10
2.135930208764837
 20
211.97250961335357
 30
1107.0
 10
2.1305304163504064
 20
211.54050052037488
 30
1107.0
 10
2.12505365127578
 20
211.10220959404467
 30
1107.0
 10
2.1195010881364436
 20
210.65769732883345
 30
1107.0
 10
2.1138739015278833
 20
210.20702421921158
 30
1107.0
 10
2.081446357160818
 20
207.60871010640034
 30
1107.0
 10
2.0547781149520574
 20
205.46713780932802
 30
1107.0
 10
2.0281986573736965
 20
203.32554277603785
 30
1107.0
 10
2.001723250549128
 20
201.18393003301227
 30
1107.0
 10
1.9753631125200208
 20
199.0423030587523
 30
1107.0
 10
1.949127615671057
 20
196.90066426859698
 30
1107.0
 10
1.9230236094997317
 20
194.75901488947054
 30
1107.0
 10
1.8254337434068704
 20
186.70987129056095
 30
1107.0
 10
1.7548596971273693
 20
180.80231756687562
 30
1107.0
 10
1.6854672448263819
 20
174.89471633323643
 30
1107.0
 10
1.6173369072612647
 20
168.98707621080513
 30
1107.0
 10
1.5505651895003765
 20
163.07940464296433
 30
1107.0
 10
1.4852467819576054
 20
157.1717046519954
 30
1107.0
 10
1.4214951661570951
 20
151.263978092049
 30
1107.0
 10
1.3219156199112179
 20
141.78335185589654
 30
1107.0
 10
1.2850096584479358
 20
138.21046997273515
 30
1107.0
 10
1.2487549990096694
 20
134.63757928042196
 30
1107.0
 10
1.2131838736712275
 20
131.06468006081315
 30
1107.0
 10
1.1783320069777374
 20
127.49177254605206
 30
1107.0
 10
1.144239550713111
 20
123.91885692399255
 30
1107.0
 10
1.1109520186685127
 20
120.34593334362263
 30
1107.0
 10
1.045028253891331
 20
113.0830502010287
 30
1107.0
 10
1.0124510011365506
 20
109.39309014272636
 30
1107.0
 10
0.9807312569578721
 20
105.70312292307192
 30
1107.0
 10
0.9498181755637712
 20
102.01314962352994
 30
1107.0
 10
0.9196671557860125
 20
98.32317125609379
 30
1107.0
 10
0.8902387253058572
 20
94.63318878984069
 30
1107.0
 10
0.8614974248802639
 20
90.94320317748694
 30
1107.0
 10
0.8087104054395591
 20
84.00813307625859
 30
1107.0
 10
0.7845164069324236
 20
80.76304913298033
 30
1107.0
 10
0.7608067101259097
 20
77.51796419268969
 30
1107.0
 10
0.7375612339950894
 20
74.27287896061249
 30
1107.0
 10
0.7147614882348605
 20
71.02779421424525
 30
1107.0
 10
0.6923902171189387
 20
67.78271083198524
 30
1107.0
 10
0.670431002393866
 20
64.5376298427642
 30
1107.0
 10
0.6300590433983986
 20
58.46198855743955
 30
1107.0
 10
0.6115515590009319
 20
55.631427575736815
 30
1107.0
 10
0.5933348275847444
 20
52.80087021432096
 30
1107.0
 10
0.5753982501902638
 20
49.97031747943493
 30
1107.0
 10
0.5577313186474612
 20
47.13977068259486
 30
1107.0
 10
0.540323132367949
 20
44.309231539399605
 30
1107.0
 10
0.5231612866109583
 20
41.47870240537597
 30
1107.0
 10
0.49411377089117375
 20
36.62259814635885
 30
1107.0
 10
0.48211556840403724
 20
34.59701725619537
 30
1107.0
 10
0.470229556074691
 20
32.57144462031216
 30
1107.0
 10
0.4584493803143104
 20
30.54588157021206
 30
1107.0
 10
0.4467662238300085
 20
28.520330655821766
 30
1107.0
 10
0.43516944539955404
 20
26.49479551326783
 30
1107.0
 10
0.42364444928219414
 20
24.469281383494263
 30
1107.0
 10
0.40781341341412736
 20
21.67664276832241
 30
1107.0
 10
0.40357290362436693
 20
20.927478469187463
 30
1107.0
 10
0.3994406244886015
 20
20.197023189211848
 30
1107.0
 10
0.39542445678340954
 20
19.485711194589214
 30
1107.0
 10
0.39150790485480247
 20
18.793695519052733
 30
1107.0
 10
0.38770492325745254
 20
18.120842886223414
 30
1107.0
 10
0.3840063632596591
 20
17.466738735056992
 30
1107.0
 10
0.37692422070441084
 20
16.21416159205926
 30
1107.0
 10
0.37343840086206276
 20
15.597645018851333
 30
1107.0
 10
0.36995261955261627
 20
14.981135260732174
 30
1107.0
 10
0.36646688126105803
 20
14.364633110935166
 30
1107.0
 10
0.3629811918009052
 20
13.748139597663336
 30
1107.0
 10
0.35949555861643057
 20
13.131656037541907
 30
1107.0
 10
0.35600999108488773
 20
12.51518408907087
 30
1107.0
 10
0.348453334569795
 20
11.178682436576551
 30
1107.0
 10
0.34438229012361476
 20
10.458660609627891
 30
1107.0
 10
0.34031137101497566
 20
9.738660950362043
 30
1107.0
 10
0.33624059526175376
 20
9.018686645569119
 30
1107.0
 10
0.33217000287508347
 20
8.298744771748098
 30
1107.0
 10
0.3280996543900375
 20
7.578846035343361
 30
1107.0
 10
0.3240296383434846
 20
6.859006095421247
 30
1107.0
 10
0.31784368996099216
 20
5.764933575526676
 30
1107.0
 10
0.31572742902030726
 20
5.39064287716608
 30
1107.0
 10
0.31361132680316456
 20
5.016380251297491
 30
1107.0
 10
0.311495405898331
 20
4.642149693089692
 30
1107.0
 10
0.30937971754201476
 20
4.267960264380122
 30
1107.0
 10
0.3072643394530973
 20
3.8938257108388825
 30
1107.0
 10
0.30514938545955533
 20
3.519766164575632
 30
1107.0
 10
0.30185956643553724
 20
2.937915110048323
 30
1107.0
 10
0.3007432709370377
 20
2.74048245243889
 30
1107.0
 10
0.29968442590605143
 20
2.5532107230938164
 30
1107.0
 10
0.29868129281398925
 20
2.3757924386270175
 30
1107.0
 10
0.2977321331322612
 20
2.2079201156522883
 30
1107.0
 10
0.2968352083322762
 20
2.0492862707833006
 30
1107.0
 10
0.29598877988544253
 20
1.899583420633604
 30
1107.0
 10
0.29451013862184516
 20
1.6380647862617828
 30
1107.0
 10
0.29382949488809385
 20
1.5176833089564141
 30
1107.0
 10
0.29314916189697227
 20
1.3973567908153726
 30
1107.0
 10
0.29246916868858897
 20
1.2770903681391133
 30
1107.0
 10
0.29178963736167024
 20
1.1569056357368233
 30
1107.0
 10
0.2911107613635051
 20
1.0368368074207126
 30
1107.0
 10
0.29043283044813817
 20
0.9169351304405318
 30
1107.0
 10
0.28952103289872827
 20
0.7556708293448651
 30
1107.0
 10
0.2892950116099571
 20
0.715695765593054
 30
1107.0
 10
0.2890781373522929
 20
0.6773384837485686
 30
1107.0
 10
0.28887019280966175
 20
0.6405605483880668
 30
1107.0
 10
0.28867096066598974
 20
0.6053235240882424
 30
1107.0
 10
0.2884802236052032
 20
0.5715889754258275
 30
1107.0
 10
0.28829776431122833
 20
0.5393184669775906
 30
1107.0
 10
0.28783270072926337
 20
0.4570653905581992
 30
1107.0
 10
0.2875644261314729
 20
0.4096172311039469
 30
1107.0
 10
0.2873175355816868
 20
0.3659511431832587
 30
1107.0
 10
0.2870910229869709
 20
0.3258891850217484
 30
1107.0
 10
0.286883882254391
 20
0.28925341484496414
 30
1107.0
 10
0.28669510729101244
 20
0.25586589087838874
 30
1107.0
 10
0.28652369200390027
 20
0.2255486713474397
 30
1107.0
 10
0.28619806242596035
 20
0.1679564719205473
 30
1107.0
 10
0.28604728238763494
 20
0.1412888881839385
 30
1107.0
 10
0.2859149510754466
 20
0.11788422276568969
 30
1107.0
 10
0.28579972937969933
 20
0.0975056351638983
 30
1107.0
 10
0.28570027819069715
 20
0.0799162848767127
 30
1107.0
 10
0.2856152583987447
 20
0.06487933140233183
 30
1107.0
 10
0.28554333089414663
 20
0.052157934239005506
 30
1107.0
 10
0.28542717608747276
 20
0.031614312763700525
 30
1107.0
 10
0.28537533614881705
 20
0.02244568593787477
 30
1107.0
 10
0.28533103278149824
 20
0.014610008397568208
 30
1107.0
 10
0.28529665445291963
 20
0.008529714447519154
 30
1107.0
 10
0.2852732198766121
 20
0.004384977970989468
 30
1107.0
 10
0.28525967159180277
 20
0.0019887720424165423
 30
1107.0
 10
0.28525296476922934
 20
0.0008025755556282377
 30
1107.0
 10
0.2852472215540418
 20
-0.00021319333291103248
 30
1107.0
 10
0.28524859108964495
 20
-5.224961060434907e-05
 30
1107.0
 10
0.28524961309476593
 20
0.00025504521698849203
 30
1107.0
 10
0.28524402643491875
 20
0.00022886086998141764
 30
1107.0
 10
0.285254026483984
 20
-0.0006747388042072089
 30
1107.0
 10
0.28526505734568586
 20
-0.003022151468599077
 30
1107.0
 10
0.2852887758931346
 20
-0.007136279645635568
 30
1107.0
 10
0.2853517459782084
 20
-0.018273430393591632
 30
1107.0
 10
0.2853914016716782
 20
-0.025287101022543973
 30
1107.0
 10
0.28544227877695943
 20
-0.034285437144684947
 30
1107.0
 10
0.2855061158226427
 20
-0.04557592214627724
 30
1107.0
 10
0.2855846513373182
 20
-0.059466039413590834
 30
1107.0
 10
0.2856796238495767
 20
-0.07626327233290299
 30
1107.0
 10
0.28579277188800883
 20
-0.09627510429049833
 30
1107.0
 10
0.2860588960744013
 20
-0.14334293305466872
 30
1107.0
 10
0.28621187222236255
 20
-0.17039892986145694
 30
1107.0
 10
0.28638650095367857
 20
-0.20128449247906743
 30
1107.0
 10
0.28658452079693897
 20
-0.23630710429363588
 30
1107.0
 10
0.28680767028073406
 20
-0.2757742486913993
 30
1107.0
 10
0.28705768793365477
 20
-0.31999340905869644
 30
1107.0
 10
0.28733631228429274
 20
-0.36927206878196733
 30
1107.0
 10
0.28790275650869473
 20
-0.4694557466356457
 30
1107.0
 10
0.28818130422997457
 20
-0.5187208533724043
 30
1107.0
 10
0.28848193111801324
 20
-0.5718909732323342
 30
1107.0
 10
0.28880564326574437
 20
-0.629144047989811
 30
1107.0
 10
0.2891534467661022
 20
-0.6906580194192803
 30
1107.0
 10
0.2895263477120215
 20
-0.7566108292952589
 30
1107.0
 10
0.28992535219643734
 20
-0.8271804193923343
 30
1107.0
 10
0.29077758042813406
 20
-0.9779090435781941
 30
1107.0
 10
0.2912308041754105
 20
-1.0580680776661313
 30
1107.0
 10
0.291712143647051
 20
-1.1431997755238847
 30
1107.0
 10
0.292222604935991
 20
-1.2334820789261896
 30
1107.0
 10
0.2927631941351656
 20
-1.329092929647609
 30
1107.0
 10
0.29333491733750877
 20
-1.4302102694625347
 30
1107.0
 10
0.29393878063595347
 20
-1.5370120401451857
 30
1107.0
 10
0.29581418865758446
 20
-1.8687044910333448
 30
1107.0
 10
0.29705353703685544
 20
-2.0879007921429604
 30
1107.0
 10
0.29829350768998764
 20
-2.3072071512143566
 30
1107.0
 10
0.29953392185037697
 20
-2.5265919507947956
 30
1107.0
 10
0.30077465923922764
 20
-2.7460339179033006
 30
1107.0
 10
0.3020156423715332
 20
-2.965519348246083
 30
1107.0
 10
0.30325684390438057
 20
-3.185043405792996
 30
1107.0
 10
0.30655629900434544
 20
-3.7685987367289044
 30
1107.0
 10
0.30861482271489493
 20
-4.132677788804145
 30
1107.0
 10
0.3106736952963653
 20
-4.4968185436271
 30
1107.0
 10
0.31273282962579474
 20
-4.861005592295356
 30
1107.0
 10
0.31479216508847324
 20
-5.225228214225282
 30
1107.0
 10
0.31685166071360893
 20
-5.5894791631382645
 30
1107.0
 10
0.31891129555523734
 20
-5.95375473447055
 30
1107.0
 10
0.3253539776827286
 20
-7.093234250667969
 30
1107.0
 10
0.3297374159694252
 20
-7.868507349555749
 30
1107.0
 10
0.3341212078322329
 20
-8.643842983425483
 30
1107.0
 10
0.33850525623560124
 20
-9.419223990074755
 30
1107.0
 10
0.34288949532914104
 20
-10.19463872297965
 30
1107.0
 10
0.3472738820389035
 20
-10.970079563952098
 30
1107.0
 10
0.3516583984340843
 20
-11.745543341583623
 30
1107.0
 10
0.35899530318345624
 20
-13.043178784208836
 30
1107.0
 10
0.3620413654174277
 20
-13.58191800057687
 30
1107.0
 10
0.365182967699851
 20
-14.13755482667217
 30
1107.0
 10
0.36842184855931576
 20
-14.710396745880885
 30
1107.0
 10
0.3717597465244122
 20
-15.30075124158925
 30
1107.0
 10
0.3751984001237314
 20
-15.90892579718359
 30
1107.0
 10
0.3787395478858646
 20
-16.535227896050316
 30
1107.0
 10
0.38430030168710744
 20
-17.518725906001016
 30
1107.0
 10
0.3862157142293746
 20
-17.857488549437186
 30
1107.0
 10
0.3881311225780166
 20
-18.196252849822457
 30
1107.0
 10
0.39004650666025065
 20
-18.53501871157731
 30
1107.0
 10
0.39196186971869934
 20
-18.873786045604646
 30
1107.0
 10
0.39387723831139104
 20
-19.212554769289802
 30
1107.0
 10
0.3957926623117596
 20
-19.551324806500542
 30
1107.0
 10
0.4000527219414803
 20
-20.304729260448944
 30
1107.0
 10
0.4024342571724555
 20
-20.72585402432177
 30
1107.0
 10
0.4048528902644977
 20
-21.153409075397583
 30
1107.0
 10
0.407308690880534
 20
-21.587333109868542
 30
1107.0
 10
0.40980172868349274
 20
-22.02756482392689
 30
1107.0
 10
0.4123320733363025
 20
-22.474042913764965
 30
1107.0
 10
0.41489979450189285
 20
-22.9267060755752
 30
1107.0
 10
0.42971660506036047
 20
-25.536042881073886
 30
1107.0
 10
0.44198719979375134
 20
-27.686623168164857
 30
1107.0
 10
0.4543465569909483
 20
-29.83722445809254
 30
1107.0
 10
0.46680979924699106
 20
-31.987841474478756
 30
1107.0
 10
0.4793880583662583
 20
-34.138470554655555
 30
1107.0
 10
0.4920906551235932
 20
-36.289109126581295
 30
1107.0
 10
0.5049244277187053
 20
-38.43975584563152
 30
1107.0
 10
0.5529519574871775
 20
-46.40267652229491
 30
1107.0
 10
0.5890134153184614
 20
-52.214991162236686
 30
1107.0
 10
0.6262042559657393
 20
-58.02733103347765
 30
1107.0
 10
0.6646017660911046
 20
-63.839686435383896
 30
1107.0
 10
0.7042973714190754
 20
-69.65204866409522
 30
1107.0
 10
0.7453812926562657
 20
-75.46441311983071
 30
1107.0
 10
0.7879610469755447
 20
-81.27677604661207
 30
1107.0
 10
0.860218496439371
 20
-90.77844833786835
 30
1107.0
 10
0.8889278901383806
 20
-94.4677590910828
 30
1107.0
 10
0.918323000614331
 20
-98.15706673148912
 30
1107.0
 10
0.9484391569904083
 20
-101.84637030663879
 30
1107.0
 10
0.979315668823455
 20
-105.53566884887124
 30
1107.0
 10
1.0109969502315312
 20
-109.2249613485745
 30
1107.0
 10
1.0435336440214762
 20
-112.91424672744586
 30
1107.0
 10
1.1104071818079555
 20
-120.28985987248866
 30
1107.0
 10
1.1447445267102245
 20
-123.97618758850895
 30
1107.0
 10
1.1799387280049642
 20
-127.66250683451143
 30
1107.0
 10
1.2159398439117095
 20
-131.34881744750743
 30
1107.0
 10
1.2527039748702726
 20
-135.0351192201161
 30
1107.0
 10
1.290192195023171
 20
-138.72141189385914
 30
1107.0
 10
1.3283694836980546
 20
-142.40769515245552
 30
1107.0
 10
1.401303480509377
 20
-149.33084131142067
 30
1107.0
 10
1.4359098313421552
 20
-152.5677064029627
 30
1107.0
 10
1.4710010689470034
 20
-155.80456364420218
 30
1107.0
 10
1.5065573952750784
 20
-159.04141268954365
 30
1107.0
 10
1.5425605532152393
 20
-162.27825309134087
 30
1107.0
 10
1.5789934794351463
 20
-165.5150842774601
 30
1107.0
 10
1.6158399115183895
 20
-168.75190550840128
 30
1107.0
 10
1.6855369670496938
 20
-174.80914743107982
 30
1107.0
 10
1.7182918460158736
 20
-177.6295705659728
 30
1107.0
 10
1.7513381574008304
 20
-180.4499847436064
 30
1107.0
 10
1.784665389274622
 20
-183.27038914394254
 30
1107.0
 10
1.8182630980653272
 20
-186.09078263774956
 30
1107.0
 10
1.8521204225750456
 20
-188.91116369599425
 30
1107.0
 10
1.886224960619284
 20
-191.73153017283266
 30
1107.0
 10
1.9451172269846204
 20
-196.56891663445018
 30
1107.0
 10
1.969791859950229
 20
-198.58594449452488
 30
1107.0
 10
1.9945789388528576
 20
-200.602962005246
 30
1107.0
 10
2.0194720918809237
 20
-202.6199679446426
 30
1107.0
 10
2.044462444884093
 20
-204.63695991062312
 30
1107.0
 10
2.0695392660031393
 20
-206.65393444281196
 30
1107.0
 10
2.094687813104627
 20
-208.6708865421215
 30
1107.0
 10
2.129418325376479
 20
-211.4515863736575
 30
1107.0
 10
2.138740397810862
 20
-212.197444863972
 30
1107.0
 10
2.147831949788626
 20
-212.92467205110609
 30
1107.0
 10
2.156693063562922
 20
-213.63283871123605
 30
1107.0
 10
2.1653044246922093
 20
-214.32179479245886
 30
1107.0
 10
2.1736824720702455
 20
-214.99167347899473
 30
1107.0
 10
2.181825527455479
 20
-215.64288715515903
 30
1107.0
 10
2.1974194755905003
 20
-216.8899276011844
 30
1107.0
 10
2.2050947964159096
 20
-217.50371927360968
 30
1107.0
 10
2.2127700316527243
 20
-218.11750410155656
 30
1107.0
 10
2.2204451713389957
 20
-218.73128128837305
 30
1107.0
 10
2.228120202561927
 20
-219.34504980142887
 30
1107.0
 10
2.235795108786555
 20
-219.95880831843132
 30
1107.0
 10
2.243469869184444
 20
-220.57255517374048
 30
1107.0
 10
2.2601086443937817
 20
-221.9031499325989
 30
1107.0
 10
2.269072560280948
 20
-222.6199899252214
 30
1107.0
 10
2.278036197769916
 20
-223.33680765447585
 30
1107.0
 10
2.286999516840804
 20
-224.05359991999083
 30
1107.0
 10
2.29596242862188
 20
-224.77035961473777
 30
1107.0
 10
2.3049247986546573
 20
-225.48707598613726
 30
1107.0
 10
2.3138864302871065
 20
-226.20373330802133
 30
1107.0
 10
2.327507073409627
 20
-227.2929695121943
 30
1107.0
 10
2.332166814780373
 20
-227.66560676268548
 30
1107.0
 10
2.336826203602411
 20
-228.03821582002834
 30
1107.0
 10
2.341485189694457
 20
-228.41079267124937
 30
1107.0
 10
2.346143659257407
 20
-228.7833282158899
 30
1107.0
 10
2.350801439672196
 20
-229.15580864968737
 30
1107.0
 10
2.355458278110919
 20
-229.52821375411705
 30
1107.0
 10
2.3627020034593444
 20
-230.1074909462155
 30
1107.0
 10
2.3651599398482466
 20
-230.30405092346956
 30
1107.0
 10
2.367491377836992
 20
-230.4904948852035
 30
1107.0
 10
2.369700145437692
 20
-230.6671289556834
 30
1107.0
 10
2.371790070662454
 20
-230.83425925917555
 30
1107.0
 10
2.373764981523387
 20
-230.9921919199459
 30
1107.0
 10
2.3756287060326007
 20
-231.1412330622605
 30
1107.0
 10
2.378884511549531
 20
-231.4015982455259
 30
1107.0
 10
2.38038322487335
 20
-231.52144962091933
 30
1107.0
 10
2.381881248016211
 20
-231.64124580287802
 30
1107.0
 10
2.3833785164205836
 20
-231.76098162876616
 30
1107.0
 10
2.384874758930286
 20
-231.88063541435665
 30
1107.0
 10
2.3863695459477183
 20
-232.00017280493918
 30
1107.0
 10
2.3878622340203433
 20
-232.11954234392587
 30
1107.0
 10
2.389869837251203
 20
-232.28008939761463
 30
1107.0
 10
2.3903675065073138
 20
-232.31988776591365
 30
1107.0
 10
2.390845035199714
 20
-232.35807550313103
 30
1107.0
 10
2.3913029018299157
 20
-232.3946908747998
 30
1107.0
 10
2.391741584899434
 20
-232.42977214645327
 30
1107.0
 10
2.392161562909781
 20
-232.46335758362477
 30
1107.0
 10
2.3925633143624716
 20
-232.49548545184754
 30
1107.0
 10
2.393587323419933
 20
-232.57737495800032
 30
1107.0
 10
2.394178028924894
 20
-232.62461338985852
 30
1107.0
 10
2.394721649558687
 20
-232.66808646747594
 30
1107.0
 10
2.395220400606098
 20
-232.707971346099
 30
1107.0
 10
2.395676497351914
 20
-232.74444518097437
 30
1107.0
 10
2.3960921550809187
 20
-232.77768512734863
 30
1107.0
 10
2.3964695890778978
 20
-232.80786834046836
 30
1107.0
 10
2.397186582732349
 20
-232.86520597420323
 30
1107.0
 10
2.3975185806159023
 20
-232.8917556834365
 30
1107.0
 10
2.3978099568223437
 20
-232.9150568969134
 30
1107.0
 10
2.3980636598957235
 20
-232.93534540826707
 30
1107.0
 10
2.3982826383800915
 20
-232.9528570111307
 30
1107.0
 10
2.3984698408194967
 20
-232.96782749913746
 30
1107.0
 10
2.398628215757989
 20
-232.98049266592054
 30
1107.0
 10
2.398857072453528
 20
-232.99879422452594
 30
1107.0
 10
2.3989397451241405
 20
-233.00540551777524
 30
1107.0
 10
2.3990098639772635
 20
-233.01101288834718
 30
1107.0
 10
2.399068563238706
 20
-233.01570703972797
 30
1107.0
 10
2.39911697713428
 20
-233.01957867540403
 30
1107.0
 10
2.3991562398897943
 20
-233.02271849886145
 30
1107.0
 10
2.3991874857310593
 20
-233.02521721358656
 30
1107.0
 10
2.3992504162914408
 20
-233.03024973988508
 30
1107.0
 10
2.399390068848062
 20
-233.03128481573367
 30
1107.0
 10
2.3994679159251184
 20
-233.03142337753584
 30
1107.0
 10
2.3994074763004636
 20
-233.03143818987994
 30
1107.0
 10
2.399218678158436
 20
-233.0317221550186
 30
1107.0
 10
2.398997859089859
 20
-233.03228831286867
 30
1107.0
 10
2.3989277660920423
 20
-233.03276984101106
 30
1107.0
 10
2.39927755556878
 20
-233.0324200546909
 30
1107.0
  0
ENDSEC
  0
SECTION
  2
OBJECTS
  0
DICTIONARY
  5
A
330
0
100
AcDbDictionary
281
1
  3
ACAD_COLOR
350
B
  3
ACAD_GROUP
350
C
  3
ACAD_LAYOUT
350
D
  3
ACAD_MATERIAL
350
E
  3
ACAD_MLEADERSTYLE
350
F
  3
ACAD_MLINESTYLE
350
10
  3
ACAD_PLOTSETTINGS
350
11
  3
ACAD_PLOTSTYLENAME
350
12
  3
ACAD_SCALELIST
350
14
  3
ACAD_TABLESTYLE
350
15
  3
ACAD_VISUALSTYLE
350
16
  3
EZDXF_META
350
2D
  0
DICTIONARY
  5
B
330
A
100
AcDbDictionary
281
1
  0
DICTIONARY
  5
C
330
A
100
AcDbDictionary
281
1
  0
DICTIONARY
  5
D
330
A
100
AcDbDictionary
281
1
  3
Model
350
1A
  3
Layout1
350
1E
  0
DICTIONARY
  5
E
330
A
100
AcDbDictionary
281
1
  3
ByBlock
350
1F
  3
ByLayer
350
20
  3
Global
350
21
  0
DICTIONARY
  5
F
330
A
100
AcDbDictionary
281
1
  3
Standard
350
2C
  0
DICTIONARY
  5
10
330
A
100
AcDbDictionary
281
1
  3
Standard
350
22
  0
DICTIONARY
  5
11
330
A
100
AcDbDictionary
281
1
  0
ACDBDICTIONARYWDFLT
  5
12
330
A
100
AcDbDictionary
281
1
  3
Normal
350
13
100
AcDbDictionaryWithDefault
340
13
  0
ACDBPLACEHOLDER
  5
13
330
12
  0
DICTIONARY
  5
14
330
A
100
AcDbDictionary
281
1
  0
DICTIONARY
  5
15
330
A
100
AcDbDictionary
281
1
  0
DICTIONARY
  5
16
330
A
100
AcDbDictionary
281
1
  0
LAYOUT
  5
1A
330
D
100
AcDbPlotSettings
  1

  2
Adobe PDF
  4
A3
  6

 40
7.5
 41
20.0
 42
7.5
 43
20.0
 44
420.0
 45
297.0
 46
0.0
 47
0.0
 48
0.0
 49
0.0
140
0.0
141
0.0
142
1.0
143
1.0
 70
1024
 72
1
 73
1
 74
5
  7

 75
16
 76
0
 77
2
 78
300
147
1.0
148
0.0
149
0.0
100
AcDbLayout
  1
Model
 70
1
 71
0
 10
0.0
 20
0.0
 11
420.0
 21
297.0
 12
0.0
 22
0.0
 32
0.0
 14
1e+20
 24
1e+20
 34
1e+20
 15
-1e+20
 25
-1e+20
 35
-1e+20
146
0.0
 13
0.0
 23
0.0
 33
0.0
 16
1.0
 26
0.0
 36
0.0
 17
0.0
 27
1.0
 37
0.0
 76
1
330
17
  0
LAYOUT
  5
1E
330
D
100
AcDbPlotSettings
  1

  2
Adobe PDF
  4
A3
  6

 40
7.5
 41
20.0
 42
7.5
 43
20.0
 44
420.0
 45
297.0
 46
0.0
 47
0.0
 48
0.0
 49
0.0
140
0.0
141
0.0
142
1.0
143
1.0
 70
0
 72
1
 73
1
 74
5
  7

 75
16
 76
0
 77
2
 78
300
147
1.0
148
0.0
149
0.0
100
AcDbLayout
  1
Layout1
 70
1
 71
1
 10
0.0
 20
0.0
 11
420.0
 21
297.0
 12
0.0
 22
0.0
 32
0.0
 14
1e+20
 24
1e+20
 34
1e+20
 15
-1e+20
 25
-1e+20
 35
-1e+20
146
0.0
 13
0.0
 23
0.0
 33
0.0
 16
1.0
 26
0.0
 36
0.0
 17
0.0
 27
1.0
 37
0.0
 76
1
330
1B
  0
MATERIAL
  5
1F
102
{ACAD_REACTORS
330
E
102
}
330
E
100
AcDbMaterial
  1
ByBlock
  2

 70
0
 40
1.0
 71
1
 41
1.0
 91
-1023410177
 42
1.0
 72
1
  3

 73
1
 74
1
 75
1
 44
0.5
 73
0
 45
1.0
 46
1.0
 77
1
  4

 78
1
 79
1
170
1
 48
1.0
171
1
  6

172
1
173
1
174
1
140
1.0
141
1.0
175
1
  7

176
1
177
1
178
1
143
1.0
179
1
  8

270
1
271
1
272
1
145
1.0
146
1.0
273
1
  9

274
1
275
1
276
1
 42
1.0
 72
1
  3

 73
1
 74
1
 75
1
 94
63
  0
MATERIAL
  5
20
102
{ACAD_REACTORS
330
E
102
}
330
E
100
AcDbMaterial
  1
ByLayer
  2

 70
0
 40
1.0
 71
1
 41
1.0
 91
-1023410177
 42
1.0
 72
1
  3

 73
1
 74
1
 75
1
 44
0.5
 73
0
 45
1.0
 46
1.0
 77
1
  4

 78
1
 79
1
170
1
 48
1.0
171
1
  6

172
1
173
1
174
1
140
1.0
141
1.0
175
1
  7

176
1
177
1
178
1
143
1.0
179
1
  8

270
1
271
1
272
1
145
1.0
146
1.0
273
1
  9

274
1
275
1
276
1
 42
1.0
 72
1
  3

 73
1
 74
1
 75
1
 94
63
  0
MATERIAL
  5
21
102
{ACAD_REACTORS
330
E
102
}
330
E
100
AcDbMaterial
  1
Global
  2

 70
0
 40
1.0
 71
1
 41
1.0
 91
-1023410177
 42
1.0
 72
1
  3

 73
1
 74
1
 75
1
 44
0.5
 73
0
 45
1.0
 46
1.0
 77
1
  4

 78
1
 79
1
170
1
 48
1.0
171
1
  6

172
1
173
1
174
1
140
1.0
141
1.0
175
1
  7

176
1
177
1
178
1
143
1.0
179
1
  8

270
1
271
1
272
1
145
1.0
146
1.0
273
1
  9

274
1
275
1
276
1
 42
1.0
 72
1
  3

 73
1
 74
1
 75
1
 94
63
  0
MLINESTYLE
  5
22
102
{ACAD_REACTORS
330
10
102
}
330
10
100
AcDbMlineStyle
  2
Standard
 70
0
  3

 62
256
 51
90.0
 52
90.0
 71
2
 49
0.5
 62
256
  6
BYLAYER
 49
-0.5
 62
256
  6
BYLAYER
  0
MLEADERSTYLE
  5
2C
102
{ACAD_REACTORS
330
F
102
}
330
F
100
AcDbMLeaderStyle
179
2
170
2
171
1
172
0
 90
2
 40
0.0
 41
0.0
173
1
 91
-1056964608
 92
-2
290
1
 42
2.0
291
1
 43
8.0
  3
Standard
 44
4.0
300

342
29
174
1
175
1
176
0
178
1
 93
-1056964608
 45
4.0
292
0
297
0
 46
4.0
 94
-1056964608
 47
1.0
 49
1.0
140
1.0
294
1
141
0.0
177
0
142
1.0
295
0
296
0
143
3.75
271
0
272
9
273
9
  0
DICTIONARY
  5
2D
330
A
100
AcDbDictionary
280
1
281
1
  3
CREATED_BY_EZDXF
350
2E
  3
WRITTEN_BY_EZDXF
350
86
  0
DICTIONARYVAR
  5
2E
330
2D
100
DictionaryVariables
280
0
  1
0.17 @ 2022-02-15T16:36:54.046483+00:00
  0
DICTIONARYVAR
  5
86
330
2D
100
DictionaryVariables
280
0
  1
0.17 @ 2022-02-15T16:36:54.159208+00:00
  0
ENDSEC
  0
EOF
