  0
SECTION
  2
HEADER
  9
$ACADVER
  1
AC1027
  9
$ACADMAINTVER
 70
105
  9
$DWGCODEPAGE
  3
ANSI_1252
  9
$LASTSAVEDBY
  1
ezdxf
  9
$REQUIREDVERSIONS
160
0
  9
$INSBASE
 10
0.0
 20
0.0
 30
0.0
  9
$EXTMIN
 10
1e+20
 20
1e+20
 30
1e+20
  9
$EXTMAX
 10
-1e+20
 20
-1e+20
 30
-1e+20
  9
$LIMMIN
 10
0.0
 20
0.0
  9
$LIMMAX
 10
420.0
 20
297.0
  9
$ORTHOMODE
 70
0
  9
$REGENMODE
 70
1
  9
$FILLMODE
 70
1
  9
$QTEXTMODE
 70
0
  9
$MIRRTEXT
 70
1
  9
$LTSCALE
 40
1.0
  9
$ATTMODE
 70
1
  9
$TEXTSIZE
 40
2.5
  9
$TRACEWID
 40
1.0
  9
$TEXTSTYLE
  7
Standard
  9
$CLAYER
  8
0
  9
$CELTYPE
  6
ByLayer
  9
$CECOLOR
 62
256
  9
$CELTSCALE
 40
1.0
  9
$DISPSILH
 70
0
  9
$DIMSCALE
 40
1.0
  9
$DIMASZ
 40
2.5
  9
$DIMEXO
 40
0.625
  9
$DIMDLI
 40
3.75
  9
$DIMRND
 40
0.0
  9
$DIMDLE
 40
0.0
  9
$DIMEXE
 40
1.25
  9
$DIMTP
 40
0.0
  9
$DIMTM
 40
0.0
  9
$DIMTXT
 40
2.5
  9
$DIMCEN
 40
2.5
  9
$DIMTSZ
 40
0.0
  9
$DIMTOL
 70
0
  9
$DIMLIM
 70
0
  9
$DIMTIH
 70
0
  9
$DIMTOH
 70
0
  9
$DIMSE1
 70
0
  9
$DIMSE2
 70
0
  9
$DIMTAD
 70
1
  9
$DIMZIN
 70
8
  9
$DIMBLK
  1

  9
$DIMASO
 70
1
  9
$DIMSHO
 70
1
  9
$DIMPOST
  1

  9
$DIMAPOST
  1

  9
$DIMALT
 70
0
  9
$DIMALTD
 70
3
  9
$DIMALTF
 40
0.03937007874
  9
$DIMLFAC
 40
1.0
  9
$DIMTOFL
 70
1
  9
$DIMTVP
 40
0.0
  9
$DIMTIX
 70
0
  9
$DIMSOXD
 70
0
  9
$DIMSAH
 70
0
  9
$DIMBLK1
  1

  9
$DIMBLK2
  1

  9
$DIMSTYLE
  2
ISO-25
  9
$DIMCLRD
 70
0
  9
$DIMCLRE
 70
0
  9
$DIMCLRT
 70
0
  9
$DIMTFAC
 40
1.0
  9
$DIMGAP
 40
0.625
  9
$DIMJUST
 70
0
  9
$DIMSD1
 70
0
  9
$DIMSD2
 70
0
  9
$DIMTOLJ
 70
0
  9
$DIMTZIN
 70
8
  9
$DIMALTZ
 70
0
  9
$DIMALTTZ
 70
0
  9
$DIMUPT
 70
0
  9
$DIMDEC
 70
2
  9
$DIMTDEC
 70
2
  9
$DIMALTU
 70
2
  9
$DIMALTTD
 70
3
  9
$DIMTXSTY
  7
Standard
  9
$DIMAUNIT
 70
0
  9
$DIMADEC
 70
0
  9
$DIMALTRND
 40
0.0
  9
$DIMAZIN
 70
0
  9
$DIMDSEP
 70
44
  9
$DIMATFIT
 70
3
  9
$DIMFRAC
 70
0
  9
$DIMLDRBLK
  1

  9
$DIMLUNIT
 70
2
  9
$DIMLWD
 70
-2
  9
$DIMLWE
 70
-2
  9
$DIMTMOVE
 70
0
  9
$DIMFXL
 40
1.0
  9
$DIMFXLON
 70
0
  9
$DIMJOGANG
 40
0.785398163397
  9
$DIMTFILL
 70
0
  9
$DIMTFILLCLR
 70
0
  9
$DIMARCSYM
 70
0
  9
$DIMLTYPE
  6

  9
$DIMLTEX1
  6

  9
$DIMLTEX2
  6

  9
$DIMTXTDIRECTION
 70
0
  9
$LUNITS
 70
2
  9
$LUPREC
 70
4
  9
$SKETCHINC
 40
1.0
  9
$FILLETRAD
 40
10.0
  9
$AUNITS
 70
0
  9
$AUPREC
 70
2
  9
$MENU
  1
.
  9
$ELEVATION
 40
0.0
  9
$PELEVATION
 40
0.0
  9
$THICKNESS
 40
0.0
  9
$LIMCHECK
 70
0
  9
$CHAMFERA
 40
0.0
  9
$CHAMFERB
 40
0.0
  9
$CHAMFERC
 40
0.0
  9
$CHAMFERD
 40
0.0
  9
$SKPOLY
 70
0
  9
$TDCREATE
 40
2459626.7339814813
  9
$TDUCREATE
 40
2458532.153996898
  9
$TDUPDATE
 40
2459626.7339814813
  9
$TDUUPDATE
 40
2458532.1544311
  9
$TDINDWG
 40
0.0
  9
$TDUSRTIMER
 40
0.0
  9
$USRTIMER
 70
1
  9
$ANGBASE
 50
0.0
  9
$ANGDIR
 70
0
  9
$PDMODE
 70
0
  9
$PDSIZE
 40
0.0
  9
$PLINEWID
 40
0.0
  9
$SPLFRAME
 70
0
  9
$SPLINETYPE
 70
6
  9
$SPLINESEGS
 70
8
  9
$HANDSEED
  5
87
  9
$SURFTAB1
 70
6
  9
$SURFTAB2
 70
6
  9
$SURFTYPE
 70
6
  9
$SURFU
 70
6
  9
$SURFV
 70
6
  9
$UCSBASE
  2

  9
$UCSNAME
  2

  9
$UCSORG
 10
0.0
 20
0.0
 30
0.0
  9
$UCSXDIR
 10
1.0
 20
0.0
 30
0.0
  9
$UCSYDIR
 10
0.0
 20
1.0
 30
0.0
  9
$UCSORTHOREF
  2

  9
$UCSORTHOVIEW
 70
0
  9
$UCSORGTOP
 10
0.0
 20
0.0
 30
0.0
  9
$UCSORGBOTTOM
 10
0.0
 20
0.0
 30
0.0
  9
$UCSORGLEFT
 10
0.0
 20
0.0
 30
0.0
  9
$UCSORGRIGHT
 10
0.0
 20
0.0
 30
0.0
  9
$UCSORGFRONT
 10
0.0
 20
0.0
 30
0.0
  9
$UCSORGBACK
 10
0.0
 20
0.0
 30
0.0
  9
$PUCSBASE
  2

  9
$PUCSNAME
  2

  9
$PUCSORG
 10
0.0
 20
0.0
 30
0.0
  9
$PUCSXDIR
 10
1.0
 20
0.0
 30
0.0
  9
$PUCSYDIR
 10
0.0
 20
1.0
 30
0.0
  9
$PUCSORTHOREF
  2

  9
$PUCSORTHOVIEW
 70
0
  9
$PUCSORGTOP
 10
0.0
 20
0.0
 30
0.0
  9
$PUCSORGBOTTOM
 10
0.0
 20
0.0
 30
0.0
  9
$PUCSORGLEFT
 10
0.0
 20
0.0
 30
0.0
  9
$PUCSORGRIGHT
 10
0.0
 20
0.0
 30
0.0
  9
$PUCSORGFRONT
 10
0.0
 20
0.0
 30
0.0
  9
$PUCSORGBACK
 10
0.0
 20
0.0
 30
0.0
  9
$USERI1
 70
0
  9
$USERI2
 70
0
  9
$USERI3
 70
0
  9
$USERI4
 70
0
  9
$USERI5
 70
0
  9
$USERR1
 40
0.0
  9
$USERR2
 40
0.0
  9
$USERR3
 40
0.0
  9
$USERR4
 40
0.0
  9
$USERR5
 40
0.0
  9
$WORLDVIEW
 70
1
  9
$SHADEDGE
 70
3
  9
$SHADEDIF
 70
70
  9
$TILEMODE
 70
1
  9
$MAXACTVP
 70
64
  9
$PINSBASE
 10
0.0
 20
0.0
 30
0.0
  9
$PLIMCHECK
 70
0
  9
$PEXTMIN
 10
1e+20
 20
1e+20
 30
1e+20
  9
$PEXTMAX
 10
-1e+20
 20
-1e+20
 30
-1e+20
  9
$PLIMMIN
 10
0.0
 20
0.0
  9
$PLIMMAX
 10
420.0
 20
297.0
  9
$UNITMODE
 70
0
  9
$VISRETAIN
 70
1
  9
$PLINEGEN
 70
0
  9
$PSLTSCALE
 70
1
  9
$TREEDEPTH
 70
3020
  9
$CMLSTYLE
  2
Standard
  9
$CMLJUST
 70
0
  9
$CMLSCALE
 40
20.0
  9
$PROXYGRAPHICS
 70
1
  9
$MEASUREMENT
 70
1
  9
$CELWEIGHT
370
-1
  9
$ENDCAPS
280
0
  9
$JOINSTYLE
280
0
  9
$LWDISPLAY
290
0
  9
$INSUNITS
 70
6
  9
$HYPERLINKBASE
  1

  9
$STYLESHEET
  1

  9
$XEDIT
290
1
  9
$CEPSNTYPE
380
0
  9
$PSTYLEMODE
290
1
  9
$FINGERPRINTGUID
  2
{ABC3CB34-55F1-48B9-9C19-DB5E13A03C73}
  9
$VERSIONGUID
  2
{8C7658DB-97B8-460D-9019-1EBFA64F0A73}
  9
$EXTNAMES
290
1
  9
$PSVPSCALE
 40
0.0
  9
$OLESTARTUP
290
0
  9
$SORTENTS
280
127
  9
$INDEXCTL
280
0
  9
$HIDETEXT
280
1
  9
$XCLIPFRAME
280
0
  9
$HALOGAP
280
0
  9
$OBSCOLOR
 70
257
  9
$OBSLTYPE
280
0
  9
$INTERSECTIONDISPLAY
280
0
  9
$INTERSECTIONCOLOR
 70
257
  9
$DIMASSOC
280
2
  9
$PROJECTNAME
  1

  9
$CAMERADISPLAY
290
0
  9
$LENSLENGTH
 40
50.0
  9
$CAMERAHEIGHT
 40
0.0
  9
$STEPSPERSEC
 40
24.0
  9
$STEPSIZE
 40
100.0
  9
$3DDWFPREC
 40
2.0
  9
$PSOLWIDTH
 40
0.005
  9
$PSOLHEIGHT
 40
0.08
  9
$LOFTANG1
 40
1.570796326795
  9
$LOFTANG2
 40
1.570796326795
  9
$LOFTMAG1
 40
0.0
  9
$LOFTMAG2
 40
0.0
  9
$LOFTPARAM
 70
7
  9
$LOFTNORMALS
280
1
  9
$LATITUDE
 40
37.795
  9
$LONGITUDE
 40
-122.394
  9
$NORTHDIRECTION
 40
0.0
  9
$TIMEZONE
 70
-8000
  9
$LIGHTGLYPHDISPLAY
280
1
  9
$TILEMODELIGHTSYNCH
280
1
  9
$CMATERIAL
347
20
  9
$SOLIDHIST
280
0
  9
$SHOWHIST
280
1
  9
$DWFFRAME
280
2
  9
$DGNFRAME
280
2
  9
$REALWORLDSCALE
290
1
  9
$INTERFERECOLOR
 62
256
  9
$CSHADOW
280
0
  9
$SHADOWPLANELOCATION
 40
0.0
  0
ENDSEC
  0
SECTION
  2
CLASSES
  0
CLASS
  1
ACDBDICTIONARYWDFLT
  2
AcDbDictionaryWithDefault
  3
ObjectDBX Classes
 90
0
 91
0
280
0
281
0
  0
CLASS
  1
SUN
  2
AcDbSun
  3
SCENEOE
 90
1153
 91
0
280
0
281
0
  0
CLASS
  1
VISUALSTYLE
  2
AcDbVisualStyle
  3
ObjectDBX Classes
 90
4095
 91
0
280
0
281
0
  0
CLASS
  1
MATERIAL
  2
AcDbMaterial
  3
ObjectDBX Classes
 90
1153
 91
0
280
0
281
0
  0
CLASS
  1
SCALE
  2
AcDbScale
  3
ObjectDBX Classes
 90
1153
 91
0
280
0
281
0
  0
CLASS
  1
TABLESTYLE
  2
AcDbTableStyle
  3
ObjectDBX Classes
 90
4095
 91
0
280
0
281
0
  0
CLASS
  1
MLEADERSTYLE
  2
AcDbMLeaderStyle
  3
ACDB_MLEADERSTYLE_CLASS
 90
4095
 91
0
280
0
281
0
  0
CLASS
  1
DICTIONARYVAR
  2
AcDbDictionaryVar
  3
ObjectDBX Classes
 90
0
 91
0
280
0
281
0
  0
CLASS
  1
CELLSTYLEMAP
  2
AcDbCellStyleMap
  3
ObjectDBX Classes
 90
1152
 91
0
280
0
281
0
  0
CLASS
  1
MENTALRAYRENDERSETTINGS
  2
AcDbMentalRayRenderSettings
  3
SCENEOE
 90
1024
 91
0
280
0
281
0
  0
CLASS
  1
ACDBDETAILVIEWSTYLE
  2
AcDbDetailViewStyle
  3
ObjectDBX Classes
 90
1025
 91
0
280
0
281
0
  0
CLASS
  1
ACDBSECTIONVIEWSTYLE
  2
AcDbSectionViewStyle
  3
ObjectDBX Classes
 90
1025
 91
0
280
0
281
0
  0
CLASS
  1
RASTERVARIABLES
  2
AcDbRasterVariables
  3
ISM
 90
0
 91
0
280
0
281
0
  0
CLASS
  1
ACDBPLACEHOLDER
  2
AcDbPlaceHolder
  3
ObjectDBX Classes
 90
0
 91
0
280
0
281
0
  0
CLASS
  1
LAYOUT
  2
AcDbLayout
  3
ObjectDBX Classes
 90
0
 91
0
280
0
281
0
  0
ENDSEC
  0
SECTION
  2
TABLES
  0
TABLE
  2
VPORT
  5
8
330
0
100
AcDbSymbolTable
 70
1
  0
VPORT
  5
23
330
8
100
AcDbSymbolTableRecord
100
AcDbViewportTableRecord
  2
*Active
 70
0
 10
0.0
 20
0.0
 11
1.0
 21
1.0
 12
344.2
 22
148.5
 13
0.0
 23
0.0
 14
0.5
 24
0.5
 15
0.5
 25
0.5
 16
0.0
 26
0.0
 36
1.0
 17
0.0
 27
0.0
 37
0.0
 40
297.0
 41
1.34
 42
50.0
 43
0.0
 44
0.0
 50
0.0
 51
0.0
 71
0
 72
1000
 73
1
 74
3
 75
0
 76
0
 77
0
 78
0
281
0
 65
0
146
0.0
  0
ENDTAB
  0
TABLE
  2
LTYPE
  5
2
330
0
100
AcDbSymbolTable
 70
3
  0
LTYPE
  5
24
330
2
100
AcDbSymbolTableRecord
100
AcDbLinetypeTableRecord
  2
ByBlock
 70
0
  3

 72
65
 73
0
 40
0.0
  0
LTYPE
  5
25
330
2
100
AcDbSymbolTableRecord
100
AcDbLinetypeTableRecord
  2
ByLayer
 70
0
  3

 72
65
 73
0
 40
0.0
  0
LTYPE
  5
26
330
2
100
AcDbSymbolTableRecord
100
AcDbLinetypeTableRecord
  2
Continuous
 70
0
  3

 72
65
 73
0
 40
0.0
  0
ENDTAB
  0
TABLE
  2
LAYER
  5
1
330
0
100
AcDbSymbolTable
 70
2
  0
LAYER
  5
27
330
1
100
AcDbSymbolTableRecord
100
AcDbLayerTableRecord
  2
0
 70
0
 62
7
  6
Continuous
370
-3
390
13
347
21
  0
LAYER
  5
28
330
1
100
AcDbSymbolTableRecord
100
AcDbLayerTableRecord
  2
Defpoints
 70
0
 62
7
  6
Continuous
290
0
370
-3
390
13
347
21
  0
ENDTAB
  0
TABLE
  2
STYLE
  5
5
330
0
100
AcDbSymbolTable
 70
1
  0
STYLE
  5
29
330
5
100
AcDbSymbolTableRecord
100
AcDbTextStyleTableRecord
  2
Standard
 70
0
 40
0.0
 41
1.0
 50
0.0
 71
0
 42
2.5
  3
txt
  4

  0
ENDTAB
  0
TABLE
  2
VIEW
  5
7
330
0
100
AcDbSymbolTable
 70
0
  0
ENDTAB
  0
TABLE
  2
UCS
  5
6
330
0
100
AcDbSymbolTable
 70
0
  0
ENDTAB
  0
TABLE
  2
APPID
  5
3
330
0
100
AcDbSymbolTable
 70
3
  0
APPID
  5
2A
330
3
100
AcDbSymbolTableRecord
100
AcDbRegAppTableRecord
  2
ACAD
 70
0
  0
APPID
  5
84
330
3
100
AcDbSymbolTableRecord
100
AcDbRegAppTableRecord
  2
HATCHBACKGROUNDCOLOR
 70
0
  0
APPID
  5
85
330
3
100
AcDbSymbolTableRecord
100
AcDbRegAppTableRecord
  2
EZDXF
 70
0
  0
ENDTAB
  0
TABLE
  2
DIMSTYLE
  5
4
330
0
100
AcDbSymbolTable
 70
1
100
AcDbDimStyleTable
  0
DIMSTYLE
105
2B
330
4
100
AcDbSymbolTableRecord
100
AcDbDimStyleTableRecord
  2
Standard
 70
0
 40
1.0
 41
2.5
 42
0.625
 43
3.75
 44
1.25
 45
0.0
 46
0.0
 47
0.0
 48
0.0
 49
2.5
140
2.5
141
2.5
142
0.0
143
0.03937007874
144
1.0
145
0.0
146
1.0
147
0.625
148
0.0
 69
0
 70
0
 71
0
 72
0
 73
0
 74
0
 75
0
 76
0
 77
1
 78
8
 79
0
170
0
171
3
172
1
173
0
174
0
175
0
176
0
177
0
178
0
179
0
271
0
272
2
273
2
274
3
275
0
276
0
277
2
278
44
279
0
280
0
281
0
282
0
283
0
284
8
285
0
286
0
288
0
289
3
290
0
371
-2
372
-2
  0
ENDTAB
  0
TABLE
  2
BLOCK_RECORD
  5
9
330
0
100
AcDbSymbolTable
 70
2
  0
BLOCK_RECORD
  5
17
330
9
100
AcDbSymbolTableRecord
100
AcDbBlockTableRecord
  2
*Model_Space
340
1A
 70
0
280
1
281
0
  0
BLOCK_RECORD
  5
1B
330
9
100
AcDbSymbolTableRecord
100
AcDbBlockTableRecord
  2
*Paper_Space
340
1E
 70
0
280
1
281
0
  0
ENDTAB
  0
ENDSEC
  0
SECTION
  2
BLOCKS
  0
BLOCK
  5
18
330
17
100
AcDbEntity
  8
0
100
AcDbBlockBegin
  2
*Model_Space
 70
0
 10
0.0
 20
0.0
 30
0.0
  3
*Model_Space
  1

  0
ENDBLK
  5
19
330
17
100
AcDbEntity
  8
0
100
AcDbBlockEnd
  0
BLOCK
  5
1C
330
1B
100
AcDbEntity
  8
0
100
AcDbBlockBegin
  2
*Paper_Space
 70
0
 10
0.0
 20
0.0
 30
0.0
  3
*Paper_Space
  1

  0
ENDBLK
  5
1D
330
1B
100
AcDbEntity
  8
0
100
AcDbBlockEnd
  0
ENDSEC
  0
SECTION
  2
ENTITIES
  0
SPLINE
  5
2F
330
17
100
AcDbEntity
  8
0
100
AcDbSpline
 70
0
 71
8
 72
53
 73
44
 74
0
 40
0.0
 40
0.0
 40
0.0
 40
0.0
 40
0.0
 40
0.0
 40
0.0
 40
0.0
 40
0.0
 40
0.08429072413440512
 40
0.08429072413440512
 40
0.08429072413440512
 40
0.08429072413440512
 40
0.08429072413440512
 40
0.08429072413440512
 40
0.08429072413440512
 40
0.12508081541227029
 40
0.12508081541227029
 40
0.12508081541227029
 40
0.12508081541227029
 40
0.12508081541227029
 40
0.12508081541227029
 40
0.12508081541227029
 40
0.16098815459791765
 40
0.16098815459791765
 40
0.16098815459791765
 40
0.16098815459791765
 40
0.16098815459791765
 40
0.16098815459791765
 40
0.16098815459791765
 40
0.43276959525358805
 40
0.43276959525358805
 40
0.43276959525358805
 40
0.43276959525358805
 40
0.43276959525358805
 40
0.43276959525358805
 40
0.43276959525358805
 40
0.5755976654109946
 40
0.5755976654109946
 40
0.5755976654109946
 40
0.5755976654109946
 40
0.5755976654109946
 40
0.5755976654109946
 40
0.5755976654109946
 40
1.0
 40
1.0
 40
1.0
 40
1.0
 40
1.0
 40
1.0
 40
1.0
 40
1.0
 40
1.0
 10
26.57762162717962
 20
260.5027796407534
 30
1159.0
 10
26.156741282574572
 20
260.5570634730533
 30
1159.0
 10
25.733832653243923
 20
260.59549997122184
 30
1159.0
 10
25.30962426149301
 20
260.61819211159116
 30
1159.0
 10
24.884799323783266
 20
260.62541191726956
 30
1159.0
 10
24.45999488019674
 20
260.61757211744174
 30
1159.0
 10
24.035800838655597
 20
260.5951987099178
 30
1159.0
 10
23.612758933896764
 20
260.558904426931
 30
1159.0
 10
22.987438383772776
 20
260.4853889943689
 30
1159.0
 10
22.78369505723978
 20
260.4582885981099
 30
1159.0
 10
22.580139033035156
 20
260.42812155853886
 30
1159.0
 10
22.376777722591665
 20
260.39494751878624
 30
1159.0
 10
22.173618537342186
 20
260.3588261219825
 30
1159.0
 10
21.97066888871974
 20
260.3198170112575
 30
1159.0
 10
21.767936188157464
 20
260.27797982974084
 30
1159.0
 10
21.387160638977978
 20
260.19410809763326
 30
1159.0
 10
21.209358234041638
 20
260.1527464309172
 30
1159.0
 10
21.032028680024002
 20
260.10936926792107
 30
1159.0
 10
20.85518368758116
 20
260.0640389031012
 30
1159.0
 10
20.678838630280815
 20
260.01679987786196
 30
1159.0
 10
20.50301254460231
 20
259.96767898055606
 30
1159.0
 10
20.327728129936634
 20
259.9166852464848
 30
1159.0
 10
18.830589343962867
 20
259.46359867983773
 30
1159.0
 10
17.53978821524088
 20
258.9555662539711
 30
1159.0
 10
16.292425014264488
 20
258.3430958463726
 30
1159.0
 10
15.097771795555161
 20
257.6318873656377
 30
1159.0
 10
13.962918834366542
 20
256.8293222817022
 30
1159.0
 10
12.892967959059018
 20
255.9441487545887
 30
1159.0
 10
11.891174689192848
 20
254.9862647551867
 30
1159.0
 10
10.469358681151839
 20
253.43039979172065
 30
1159.0
 10
9.998587727407868
 20
252.87703329104295
 30
1159.0
 10
9.546945395213301
 20
252.30761955154074
 30
1159.0
 10
9.114383106100089
 20
251.72346865403802
 30
1159.0
 10
8.700730243293744
 20
251.12583861514406
 30
1159.0
 10
8.305718057497549
 20
250.51591799115172
 30
1159.0
 10
7.929000152592734
 20
249.8948110374705
 30
1159.0
 10
6.503932748068657
 20
247.38771006022188
 30
1159.0
 10
5.597182580241039
 20
245.42475738393262
 30
1159.0
 10
4.836228386522734
 20
243.3976559464802
 30
1159.0
 10
4.207419907039807
 20
241.32537779637767
 30
1159.0
 10
3.6972483942428056
 20
239.22291285731524
 30
1159.0
 10
3.2931911803978977
 20
237.10099788001747
 30
1159.0
 10
2.9840922951423607
 20
234.96603687366257
 30
1159.0
 10
2.7606016568069407
 20
232.81995382298715
 30
1159.0
  0
SPLINE
  5
30
330
17
100
AcDbEntity
  8
0
100
AcDbSpline
 70
0
 71
1
 72
4
 73
2
 74
0
 40
0.0
 40
0.0
 40
1.0
 40
1.0
 10
26.57762162566626
 20
260.50277962882353
 30
1159.0
 10
26.577621625666257
 20
258.09999939999005
 30
1159.0
  0
LINE
  5
31
330
17
100
AcDbEntity
  8
0
100
AcDbLine
 10
26.577621625389316
 20
258.1
 30
1159.0
 11
32.6350323107834
 21
258.1
 31
1159.0
  0
SPLINE
  5
32
330
17
100
AcDbEntity
  8
0
100
AcDbSpline
 70
0
 71
8
 72
39
 73
30
 74
0
 40
0.0
 40
0.0
 40
0.0
 40
0.0
 40
0.0
 40
0.0
 40
0.0
 40
0.0
 40
0.0
 40
0.18185130154149934
 40
0.18185130154149934
 40
0.18185130154149934
 40
0.18185130154149934
 40
0.18185130154149934
 40
0.18185130154149934
 40
0.18185130154149934
 40
0.4977088868106343
 40
0.4977088868106343
 40
0.4977088868106343
 40
0.4977088868106343
 40
0.4977088868106343
 40
0.4977088868106343
 40
0.4977088868106343
 40
0.7616683468198001
 40
0.7616683468198001
 40
0.7616683468198001
 40
0.7616683468198001
 40
0.7616683468198001
 40
0.7616683468198001
 40
0.7616683468198001
 40
1.0
 40
1.0
 40
1.0
 40
1.0
 40
1.0
 40
1.0
 40
1.0
 40
1.0
 40
1.0
 10
46.22612582387095
 20
235.8999999510673
 30
1159.0
 10
46.02677773605106
 20
236.46649303087761
 30
1159.0
 10
45.8241864775105
 20
237.0318412286113
 30
1159.0
 10
45.61820703077702
 20
237.59597136042697
 30
1159.0
 10
45.40870390788299
 20
238.15880798733087
 30
1159.0
 10
45.19554245196973
 20
238.7202704924309
 30
1159.0
 10
44.97858013889129
 20
239.28027015819126
 30
1159.0
 10
44.757657878818705
 20
239.83870724368612
 30
1159.0
 10
44.14167313429645
 20
241.36250610946962
 30
1159.0
 10
43.73829157673745
 20
242.32442142080325
 30
1159.0
 10
43.32150191199501
 20
243.2807089501382
 30
1159.0
 10
42.89026154136397
 20
244.2306888643974
 30
1159.0
 10
42.44340012832323
 20
245.17349200740244
 30
1159.0
 10
41.97958771689478
 20
246.1080447442914
 30
1159.0
 10
41.49727495736917
 20
247.03304051682673
 30
1159.0
 10
40.57448134461703
 20
248.71057776176957
 30
1159.0
 10
40.14023567507195
 20
249.46632371898806
 30
1159.0
 10
39.690703451633176
 20
250.213289708756
 30
1159.0
 10
39.224671742478115
 20
250.9503240762644
 30
1159.0
 10
38.74083017243361
 20
251.67594088531894
 30
1159.0
 10
38.23774534283631
 20
252.38830280641866
 30
1159.0
 10
37.71381367190293
 20
253.08518952929984
 30
1159.0
 10
36.67360572844086
 20
254.3767870284694
 30
1159.0
 10
36.16177316171452
 20
254.97454076760914
 30
1159.0
 10
35.63017782568285
 20
255.5554618868751
 30
1159.0
 10
35.07744905455797
 20
256.1170956384224
 30
1159.0
 10
34.50237661234243
 20
256.6563112523788
 30
1159.0
 10
33.90397383068292
 20
257.16938018336106
 30
1159.0
 10
33.2815688350338
 20
257.65208689620573
 30
1159.0
 10
32.6350323258128
 20
258.10000002169414
 30
1159.0
  0
LINE
  5
33
330
17
100
AcDbEntity
  8
0
100
AcDbLine
 10
26.577621625389316
 20
235.9
 30
1159.0
 11
46.2261259629246
 21
235.9
 31
1159.0
  0
SPLINE
  5
34
330
17
100
AcDbEntity
  8
0
100
AcDbSpline
 70
0
 71
1
 72
4
 73
2
 74
0
 40
0.0
 40
0.0
 40
1.0
 40
1.0
 10
26.577621625666257
 20
235.9000006000011
 30
1159.0
 10
26.577621625666257
 20
232.09999939999986
 30
1159.0
  0
LINE
  5
35
330
17
100
AcDbEntity
  8
0
100
AcDbLine
 10
26.577621625389316
 20
232.1
 30
1159.0
 11
47.4982393760854
 21
232.1
 31
1159.0
  0
SPLINE
  5
36
330
17
100
AcDbEntity
  8
0
100
AcDbSpline
 70
0
 71
8
 72
32
 73
23
 74
0
 40
0.0
 40
0.0
 40
0.0
 40
0.0
 40
0.0
 40
0.0
 40
0.0
 40
0.0
 40
0.0
 40
0.42735794105609015
 40
0.42735794105609015
 40
0.42735794105609015
 40
0.42735794105609015
 40
0.42735794105609015
 40
0.42735794105609015
 40
0.42735794105609015
 40
0.9326352426689107
 40
0.9326352426689107
 40
0.9326352426689107
 40
0.9326352426689107
 40
0.9326352426689107
 40
0.9326352426689107
 40
0.9326352426689107
 40
1.0
 40
1.0
 40
1.0
 40
1.0
 40
1.0
 40
1.0
 40
1.0
 40
1.0
 40
1.0
 10
53.29370688059366
 20
209.89999999836704
 30
1159.0
 10
53.03119865685221
 20
211.09870281071
 30
1159.0
 10
52.76421994720799
 20
212.29642214223048
 30
1159.0
 10
52.49257827294856
 20
213.49309387703204
 30
1159.0
 10
52.21606104135206
 20
214.68864698868308
 30
1159.0
 10
51.934431863301896
 20
215.88300274619002
 30
1159.0
 10
51.64742568653948
 20
217.07607366542916
 30
1159.0
 10
51.35474210784788
 20
218.26776206740954
 30
1159.0
 10
50.702866844305476
 20
220.8651600923514
 30
1159.0
 10
50.34129055647839
 20
222.27022821805585
 30
1159.0
 10
49.970735690720815
 20
223.67298192114976
 30
1159.0
 10
49.59055144754423
 20
225.07318669495112
 30
1159.0
 10
49.19998051699538
 20
226.47054629263297
 30
1159.0
 10
48.79813220471239
 20
227.86469519815668
 30
1159.0
 10
48.38392846569604
 20
229.25518348899914
 30
1159.0
 10
47.89894271401301
 20
230.8262661414063
 30
1159.0
 10
47.84184163177375
 20
231.01037608201437
 30
1159.0
 10
47.78469271683168
 20
231.1937738536153
 30
1159.0
 10
47.72749621857965
 20
231.37645716549025
 30
1159.0
 10
47.67025238641051
 20
231.5584237269204
 30
1159.0
 10
47.612961469717106
 20
231.739671247187
 30
1159.0
 10
47.555623717892274
 20
231.92019743557125
 30
1159.0
 10
47.49823938032888
 20
232.1000000013543
 30
1159.0
  0
LINE
  5
37
330
17
100
AcDbEntity
  8
0
100
AcDbLine
 10
26.577621625389316
 20
209.9
 30
1159.0
 11
53.29370688805017
 21
209.9
 31
1159.0
  0
SPLINE
  5
38
330
17
100
AcDbEntity
  8
0
100
AcDbSpline
 70
0
 71
1
 72
4
 73
2
 74
0
 40
0.0
 40
0.0
 40
1.0
 40
1.0
 10
26.577621625666257
 20
209.90000060000008
 30
1159.0
 10
26.577621625666257
 20
206.09999939999994
 30
1159.0
  0
LINE
  5
39
330
17
100
AcDbEntity
  8
0
100
AcDbLine
 10
26.577621625389316
 20
206.1
 30
1159.0
 11
54.106006956032275
 21
206.1
 31
1159.0
  0
SPLINE
  5
3A
330
17
100
AcDbEntity
  8
0
100
AcDbSpline
 70
0
 71
8
 72
25
 73
16
 74
0
 40
0.0
 40
0.0
 40
0.0
 40
0.0
 40
0.0
 40
0.0
 40
0.0
 40
0.0
 40
0.0
 40
0.2619083765785714
 40
0.2619083765785714
 40
0.2619083765785714
 40
0.2619083765785714
 40
0.2619083765785714
 40
0.2619083765785714
 40
0.2619083765785714
 40
1.0
 40
1.0
 40
1.0
 40
1.0
 40
1.0
 40
1.0
 40
1.0
 40
1.0
 40
1.0
 10
58.20237000911641
 20
183.90000000143462
 30
1159.0
 10
58.08299022366497
 20
184.62943752072084
 30
1159.0
 10
57.96263556421058
 20
185.35871521725676
 30
1159.0
 10
57.84129290900816
 20
186.08782945436874
 30
1159.0
 10
57.71894853134658
 20
186.81677645578884
 30
1159.0
 10
57.5955880594225
 20
187.5455522995496
 30
1159.0
 10
57.47119643193883
 20
188.2741529112247
 30
1159.0
 10
57.34575784895567
 20
189.0025740564417
 30
1159.0
 10
56.862756376889834
 20
191.78307800849225
 30
1159.0
 10
56.49782445651391
 20
193.83380183739604
 30
1159.0
 10
56.124083976828814
 20
195.88292258543527
 30
1159.0
 10
55.74110831400511
 20
197.93034775305676
 30
1159.0
 10
55.348416042422215
 20
199.97595182108714
 30
1159.0
 10
54.94545284972909
 20
202.01957227098092
 30
1159.0
 10
54.53157369707964
 20
204.06100568635162
 30
1159.0
 10
54.10600694257344
 20
206.09999999719102
 30
1159.0
  0
LINE
  5
3B
330
17
100
AcDbEntity
  8
0
100
AcDbLine
 10
26.577621625389316
 20
183.9
 30
1159.0
 11
58.20237000035077
 21
183.9
 31
1159.0
  0
SPLINE
  5
3C
330
17
100
AcDbEntity
  8
0
100
AcDbSpline
 70
0
 71
1
 72
4
 73
2
 74
0
 40
0.0
 40
0.0
 40
1.0
 40
1.0
 10
26.577621625666257
 20
183.90000060000014
 30
1159.0
 10
26.577621625666257
 20
180.0999993999999
 30
1159.0
  0
LINE
  5
3D
330
17
100
AcDbEntity
  8
0
100
AcDbLine
 10
26.577621625389316
 20
180.1
 30
1159.0
 11
58.812608471482086
 21
180.1
 31
1159.0
  0
SPLINE
  5
3E
330
17
100
AcDbEntity
  8
0
100
AcDbSpline
 70
0
 71
8
 72
18
 73
9
 74
0
 40
0.0
 40
0.0
 40
0.0
 40
0.0
 40
0.0
 40
0.0
 40
0.0
 40
0.0
 40
0.0
 40
1.0
 40
1.0
 40
1.0
 40
1.0
 40
1.0
 40
1.0
 40
1.0
 40
1.0
 40
1.0
 10
61.957691112958166
 20
157.9000000042762
 30
1159.0
 10
61.60480750817048
 20
160.68051994950304
 30
1159.0
 10
61.24108335072482
 20
163.4596514131673
 30
1159.0
 10
60.866258378806876
 20
166.23732295103554
 30
1159.0
 10
60.480024223018475
 20
169.01344600294172
 30
1159.0
 10
60.082015713803926
 20
171.7879135285038
 30
1159.0
 10
59.67180194542171
 20
174.56059864063752
 30
1159.0
 10
59.248871775978635
 20
177.33135240775312
 30
1159.0
 10
58.81260844304374
 20
180.099999995519
 30
1159.0
  0
LINE
  5
3F
330
17
100
AcDbEntity
  8
0
100
AcDbLine
 10
26.577621625389316
 20
157.9
 30
1159.0
 11
61.95769107926425
 21
157.9
 31
1159.0
  0
SPLINE
  5
40
330
17
100
AcDbEntity
  8
0
100
AcDbSpline
 70
0
 71
1
 72
4
 73
2
 74
0
 40
0.0
 40
0.0
 40
1.0
 40
1.0
 10
26.577621625666257
 20
157.90000060000042
 30
1159.0
 10
26.577621625666257
 20
154.09999939999918
 30
1159.0
  0
LINE
  5
41
330
17
100
AcDbEntity
  8
0
100
AcDbLine
 10
26.577621625389316
 20
154.1
 30
1159.0
 11
62.4310350740978
 21
154.1
 31
1159.0
  0
SPLINE
  5
42
330
17
100
AcDbEntity
  8
0
100
AcDbSpline
 70
0
 71
8
 72
25
 73
16
 74
0
 40
0.0
 40
0.0
 40
0.0
 40
0.0
 40
0.0
 40
0.0
 40
0.0
 40
0.0
 40
0.0
 40
0.07976668562392877
 40
0.07976668562392877
 40
0.07976668562392877
 40
0.07976668562392877
 40
0.07976668562392877
 40
0.07976668562392877
 40
0.07976668562392877
 40
1.0
 40
1.0
 40
1.0
 40
1.0
 40
1.0
 40
1.0
 40
1.0
 40
1.0
 40
1.0
 10
64.85561343027315
 20
131.89999998334662
 30
1159.0
 10
64.83421445662302
 20
132.12164430790483
 30
1159.0
 10
64.81275315586791
 20
132.34328261344768
 30
1159.0
 10
64.79122949635084
 20
132.56491487626016
 30
1159.0
 10
64.76964345493946
 20
132.78654107335913
 30
1159.0
 10
64.74799501702604
 20
133.0081611824932
 30
1159.0
 10
64.72628417652754
 20
133.22977518214287
 30
1159.0
 10
64.70451093588554
 20
133.45138305152042
 30
1159.0
 10
64.43076720880815
 20
136.22950674208417
 30
1159.0000000000002
 10
64.17055050520722
 20
138.78520842320958
 30
1158.9999999999998
 10
63.90198839413563
 20
141.34005594376367
 30
1158.9999999999998
 10
63.625021109477004
 20
143.89401131713475
 30
1158.9999999999998
 10
63.33956524733819
 20
146.44703236322837
 30
1158.9999999999998
 10
63.045512079234506
 20
148.99907251651615
 30
1158.9999999999998
 10
62.74272485124861
 20
151.5500805191863
 30
1158.9999999999998
 10
62.43103506916303
 20
154.0999999993967
 30
1158.9999999999998
  0
LINE
  5
43
330
17
100
AcDbEntity
  8
0
100
AcDbLine
 10
26.577621625389316
 20
131.9
 30
1159.0
 11
64.8556136027647
 21
131.9
 31
1159.0
  0
SPLINE
  5
44
330
17
100
AcDbEntity
  8
0
100
AcDbSpline
 70
0
 71
1
 72
4
 73
2
 74
0
 40
0.0
 40
0.0
 40
1.0
 40
1.0
 10
26.577621625666257
 20
131.90000060000256
 30
1159.0
 10
26.577621625666257
 20
128.09999939999764
 30
1159.0
  0
LINE
  5
45
330
17
100
AcDbEntity
  8
0
100
AcDbLine
 10
26.577621625389316
 20
128.1
 30
1159.0
 11
65.21443391257444
 21
128.1
 31
1159.0
  0
SPLINE
  5
46
330
17
100
AcDbEntity
  8
0
100
AcDbSpline
 70
0
 71
8
 72
32
 73
23
 74
0
 40
0.0
 40
0.0
 40
0.0
 40
0.0
 40
0.0
 40
0.0
 40
0.0
 40
0.0
 40
0.0
 40
0.5130706750601158
 40
0.5130706750601158
 40
0.5130706750601158
 40
0.5130706750601158
 40
0.5130706750601158
 40
0.5130706750601158
 40
0.5130706750601158
 40
0.9290811520569445
 40
0.9290811520569445
 40
0.9290811520569445
 40
0.9290811520569445
 40
0.9290811520569445
 40
0.9290811520569445
 40
0.9290811520569445
 40
1.0
 40
1.0
 40
1.0
 40
1.0
 40
1.0
 40
1.0
 40
1.0
 40
1.0
 40
1.0
 10
67.00566937353555
 20
105.89999999941068
 30
1159.0
 10
66.90636318193552
 20
107.32658880511575
 30
1159.0
 10
66.80486029543154
 20
108.75302459169293
 30
1159.0
 10
66.70113366948706
 20
110.17930151306348
 30
1159.0
 10
66.59515601126732
 20
111.60541354364995
 30
1159.0
 10
66.48689977411752
 20
113.03135447802626
 30
1159.0
 10
66.37633715204107
 20
114.4571179305677
 30
1159.0
 10
66.26344007417778
 20
115.88269733510099
 30
1159.0
 10
66.05472462315058
 20
118.46382651626998
 30
1159.0
 10
65.95976838615294
 20
119.61878953066284
 30
1159.0
 10
65.86330001759241
 20
120.7729645731622
 30
1159.0
 10
65.76530804677216
 20
121.92634122919743
 30
1159.0
 10
65.66578100299539
 20
123.07890908419809
 30
1159.0
 10
65.56470741556524
 20
124.23065772359371
 30
1159.0
 10
65.46207581378488
 20
125.38157673281404
 30
1159.0
 10
65.34011118146807
 20
126.72771392109334
 30
1159.0
 10
65.32230028675636
 20
126.92376785571471
 30
1159.0
 10
65.30444193180539
 20
127.11981747711351
 30
1159.0
 10
65.28653601080569
 20
127.31586276169745
 30
1159.0
 10
65.26858242315535
 20
127.51190368632125
 30
1159.0
 10
65.25058107345998
 20
127.70794022828672
 30
1159.0
 10
65.23253187153274
 20
127.90397236534272
 30
1159.0
 10
65.21443473239428
 20
128.1000000756852
 30
1159.0
  0
LINE
  5
47
330
17
100
AcDbEntity
  8
0
100
AcDbLine
 10
26.577621625389316
 20
105.9
 30
1159.0
 11
67.00566938200186
 21
105.9
 31
1159.0
  0
SPLINE
  5
48
330
17
100
AcDbEntity
  8
0
100
AcDbSpline
 70
0
 71
1
 72
4
 73
2
 74
0
 40
0.0
 40
0.0
 40
1.0
 40
1.0
 10
26.577621625666257
 20
105.90000060000206
 30
1159.0
 10
26.577621625666257
 20
102.09999939999993
 30
1159.0
  0
LINE
  5
49
330
17
100
AcDbEntity
  8
0
100
AcDbLine
 10
26.577621625389316
 20
102.1
 30
1159.0
 11
67.26339713217891
 21
102.1
 31
1159.0
  0
SPLINE
  5
4A
330
17
100
AcDbEntity
  8
0
100
AcDbSpline
 70
0
 71
8
 72
18
 73
9
 74
0
 40
0.0
 40
0.0
 40
0.0
 40
0.0
 40
0.0
 40
0.0
 40
0.0
 40
0.0
 40
0.0
 40
1.0
 40
1.0
 40
1.0
 40
1.0
 40
1.0
 40
1.0
 40
1.0
 40
1.0
 40
1.0
 10
68.51290760774975
 20
79.90000000082942
 30
1159.0
 10
68.38240163600283
 20
82.67636924706174
 30
1159.0
 10
68.2449249107436
 20
85.45240969885762
 30
1159.0
 10
68.10029751692645
 20
88.22809330151489
 30
1159.0
 10
67.94833671376936
 20
91.00338948432088
 30
1159.0
 10
67.78885678160366
 20
93.77826515084618
 30
1159.0
 10
67.62166886872356
 20
96.55268466923826
 30
1159.0
 10
67.44658083823596
 20
99.32660986251523
 30
1159.0
 10
67.26339711491002
 20
102.09999999885937
 30
1159.0
  0
LINE
  5
4B
330
17
100
AcDbEntity
  8
0
100
AcDbLine
 10
26.577621625389316
 20
79.9
 30
1159.0
 11
68.51290759010413
 21
79.9
 31
1159.0
  0
SPLINE
  5
4C
330
17
100
AcDbEntity
  8
0
100
AcDbSpline
 70
0
 71
1
 72
4
 73
2
 74
0
 40
0.0
 40
0.0
 40
1.0
 40
1.0
 10
26.577621625666257
 20
79.90000060000001
 30
1159.0
 10
26.577621625666257
 20
76.09999939999999
 30
1159.0
  0
LINE
  5
4D
330
17
100
AcDbEntity
  8
0
100
AcDbLine
 10
26.577621625389316
 20
76.1
 30
1159.0
 11
68.68585601950723
 21
76.1
 31
1159.0
  0
SPLINE
  5
4E
330
17
100
AcDbEntity
  8
0
100
AcDbSpline
 70
0
 71
8
 72
18
 73
9
 74
0
 40
0.0
 40
0.0
 40
0.0
 40
0.0
 40
0.0
 40
0.0
 40
0.0
 40
0.0
 40
0.0
 40
1.0
 40
1.0
 40
1.0
 40
1.0
 40
1.0
 40
1.0
 40
1.0
 40
1.0
 40
1.0
 10
69.48311621605785
 20
53.899999999531346
 30
1159.0
 10
69.40476074688081
 20
56.675713504986334
 30
1159.0
 10
69.32065397020844
 20
59.45126365971603
 30
1159.0
 10
69.23063128387801
 20
62.22663183113401
 30
1159.0
 10
69.13452588569169
 20
65.00179809184425
 30
1159.0
 10
69.03216863043134
 20
67.77674121681723
 30
1159.0
 10
68.92338788347475
 20
70.55143868046285
 30
1159.0
 10
68.80800937101357
 20
73.32586665360029
 30
1159.0
 10
68.68585602687276
 20
76.10000000032434
 30
1159.0
  0
LINE
  5
4F
330
17
100
AcDbEntity
  8
0
100
AcDbLine
 10
26.577621625389316
 20
53.9
 30
1159.0
 11
69.48311623265873
 21
53.9
 31
1159.0
  0
SPLINE
  5
50
330
17
100
AcDbEntity
  8
0
100
AcDbSpline
 70
0
 71
1
 72
4
 73
2
 74
0
 40
0.0
 40
0.0
 40
1.0
 40
1.0
 10
26.577621625666257
 20
53.90000060000026
 30
1159.0
 10
26.577621625666257
 20
50.09999939999937
 30
1159.0
  0
LINE
  5
51
330
17
100
AcDbEntity
  8
0
100
AcDbLine
 10
26.577621625389316
 20
50.1
 30
1159.0
 11
69.58571310503609
 21
50.1
 31
1159.0
  0
SPLINE
  5
52
330
17
100
AcDbEntity
  8
0
100
AcDbSpline
 70
0
 71
8
 72
18
 73
9
 74
0
 40
0.0
 40
0.0
 40
0.0
 40
0.0
 40
0.0
 40
0.0
 40
0.0
 40
0.0
 40
0.0
 40
1.0
 40
1.0
 40
1.0
 40
1.0
 40
1.0
 40
1.0
 40
1.0
 40
1.0
 40
1.0
 10
70.01076041068902
 20
27.90000000029167
 30
1159.0
 10
69.97492842655674
 20
30.67529507274078
 30
1159.0
 10
69.9344648743468
 20
33.45053119439051
 30
1159.0
 10
69.88921633889531
 20
36.22569728998256
 30
1159.0
 10
69.83902784950669
 20
39.00078100421119
 30
1159.0
 10
69.78374274920863
 20
41.775768699267445
 30
1159.0
 10
69.72320256061796
 20
44.55064545228064
 30
1159.0
 10
69.65724684841771
 20
47.325395052656845
 30
1159.0
 10
69.58571307844514
 20
50.09999999931445
 30
1159.0
  0
LINE
  5
53
330
17
100
AcDbEntity
  8
0
100
AcDbLine
 10
26.577621625389316
 20
27.9
 30
1159.0
 11
70.01076038809741
 21
27.9
 31
1159.0
  0
SPLINE
  5
54
330
17
100
AcDbEntity
  8
0
100
AcDbSpline
 70
0
 71
1
 72
4
 73
2
 74
0
 40
0.0
 40
0.0
 40
1.0
 40
1.0
 10
26.577621625666257
 20
27.900000600000002
 30
1159.0
 10
26.577621625666257
 20
24.099999399999998
 30
1159.0
  0
LINE
  5
55
330
17
100
AcDbEntity
  8
0
100
AcDbLine
 10
26.577621625389316
 20
24.1
 30
1159.0
 11
70.05606600934257
 21
24.1
 31
1159.0
  0
SPLINE
  5
56
330
17
100
AcDbEntity
  8
0
100
AcDbSpline
 70
0
 71
8
 72
18
 73
9
 74
0
 40
0.0
 40
0.0
 40
0.0
 40
0.0
 40
0.0
 40
0.0
 40
0.0
 40
0.0
 40
0.0
 40
1.0
 40
1.0
 40
1.0
 40
1.0
 40
1.0
 40
1.0
 40
1.0
 40
1.0
 40
1.0
 10
70.18221253491879
 20
1.8999999999872488
 30
1159.0
 10
70.18000665672062
 20
4.67506224458996
 30
1159.0
 10
70.17422040775585
 20
7.450117102419629
 30
1159.0
 10
70.16470781600555
 20
10.22516096259191
 30
1159.0
 10
70.15132193909415
 20
13.000188945688011
 30
1159.0
 10
70.13391474554993
 20
15.77519490166233
 30
1159.0
 10
70.11233699268
 20
18.550171407647294
 30
1159.0
 10
70.08643810105964
 20
21.32510976565538
 30
1159.0
 10
70.05606602563627
 20
24.10000000017831
 30
1159.0
  0
LINE
  5
57
330
17
100
AcDbEntity
  8
0
100
AcDbLine
 10
26.577621625389316
 20
1.9
 30
1159.0
 11
70.18221255098
 21
1.9
 31
1159.0
  0
SPLINE
  5
58
330
17
100
AcDbEntity
  8
0
100
AcDbSpline
 70
0
 71
1
 72
4
 73
2
 74
0
 40
0.0
 40
0.0
 40
0.9999993684216398
 40
0.9999993684216398
 10
26.577621625666257
 20
1.9000006000000558
 30
1159.0
 10
26.577621625666257
 20
-6.553790374438061e-17
 30
1159.0
  0
SPLINE
  5
59
330
17
100
AcDbEntity
  8
0
100
AcDbSpline
 70
0
 71
1
 72
4
 73
2
 74
0
 40
0.0
 40
0.0
 40
1.0
 40
1.0
 10
26.577621625666257
 20
-1.9000006000000011
 30
1159.0
 10
26.577621625666257
 20
1.2000000211287443e-06
 30
1159.0
  0
LINE
  5
5A
330
17
100
AcDbEntity
  8
0
100
AcDbLine
 10
26.57762162538933
 20
-1.9
 30
1159.0
 11
70.18232666575346
 21
-1.9
 31
1159.0
  0
SPLINE
  5
5B
330
17
100
AcDbEntity
  8
0
100
AcDbSpline
 70
0
 71
8
 72
18
 73
9
 74
0
 40
0.0
 40
0.0
 40
0.0
 40
0.0
 40
0.0
 40
0.0
 40
0.0
 40
0.0
 40
0.0
 40
1.0
 40
1.0
 40
1.0
 40
1.0
 40
1.0
 40
1.0
 40
1.0
 40
1.0
 40
1.0
 10
70.05743925803803
 20
-24.099999999809093
 30
1159.0
 10
70.08767017595231
 20
-21.325133886992298
 30
1159.0
 10
70.11342120415651
 20
-18.55021830432415
 30
1159.0
 10
70.13484544693505
 20
-15.77526101695305
 30
1159.0
 10
70.15209452288187
 20
-13.000268061061687
 30
1159.0
 10
70.16531869184213
 20
-10.225243748113083
 30
1159.0
 10
70.17466698198163
 20
-7.450190669082741
 30
1159.0
 10
70.18028731838325
 20
-4.675109698733774
 30
1159.0
 10
70.18232665456883
 20
-1.8999999999918091
 30
1159.0
  0
LINE
  5
5C
330
17
100
AcDbEntity
  8
0
100
AcDbLine
 10
26.57762162538933
 20
-24.1
 30
1159.0
 11
70.05743927556146
 21
-24.1
 31
1159.0
  0
SPLINE
  5
5D
330
17
100
AcDbEntity
  8
0
100
AcDbSpline
 70
0
 71
1
 72
4
 73
2
 74
0
 40
0.0
 40
0.0
 40
1.0
 40
1.0
 10
26.577621625666257
 20
-27.900000600000034
 30
1159.0
 10
26.577621625666257
 20
-24.099999399999938
 30
1159.0
  0
LINE
  5
5E
330
17
100
AcDbEntity
  8
0
100
AcDbLine
 10
26.57762162538933
 20
-27.9
 30
1159.0
 11
70.0123207225227
 21
-27.9
 31
1159.0
  0
SPLINE
  5
5F
330
17
100
AcDbEntity
  8
0
100
AcDbSpline
 70
0
 71
8
 72
18
 73
9
 74
0
 40
0.0
 40
0.0
 40
0.0
 40
0.0
 40
0.0
 40
0.0
 40
0.0
 40
0.0
 40
0.0
 40
1.0
 40
1.0
 40
1.0
 40
1.0
 40
1.0
 40
1.0
 40
1.0
 40
1.0
 40
1.0
 10
69.58805036010774
 20
-50.1000000007574
 30
1159.0
 10
69.65952991272334
 20
-47.32537891974415
 30
1159.0
 10
69.72541692399027
 20
-44.55061802422122
 30
1159.0
 10
69.78587503763552
 20
-41.775735273871504
 30
1159.0
 10
69.84106580753044
 20
-39.000746877823076
 30
1159.0
 10
69.89114883005534
 20
-36.22566729918157
 30
1159.0
 10
69.9362818733118
 20
-33.45050925941544
 30
1159.0
 10
69.97662100458308
 20
-30.675283742651082
 30
1159.0
 10
70.01232071744334
 20
-27.89999999993466
 30
1159.0
  0
LINE
  5
60
330
17
100
AcDbEntity
  8
0
100
AcDbLine
 10
26.57762162538933
 20
-50.1
 30
1159.0
 11
69.58805033070917
 21
-50.1
 31
1159.0
  0
SPLINE
  5
61
330
17
100
AcDbEntity
  8
0
100
AcDbSpline
 70
0
 71
1
 72
4
 73
2
 74
0
 40
0.0
 40
0.0
 40
1.0
 40
1.0
 10
26.577621625666257
 20
-53.9000006
 30
1159.0
 10
26.577621625666257
 20
-50.0999994
 30
1159.0
  0
LINE
  5
62
330
17
100
AcDbEntity
  8
0
100
AcDbLine
 10
26.57762162538933
 20
-53.9
 30
1159.0
 11
69.48551628343999
 21
-53.9
 31
1159.0
  0
SPLINE
  5
63
330
17
100
AcDbEntity
  8
0
100
AcDbSpline
 70
0
 71
8
 72
18
 73
9
 74
0
 40
0.0
 40
0.0
 40
0.0
 40
0.0
 40
0.0
 40
0.0
 40
0.0
 40
0.0
 40
0.0
 40
1.0
 40
1.0
 40
1.0
 40
1.0
 40
1.0
 40
1.0
 40
1.0
 40
1.0
 40
1.0
 10
68.68805741870142
 20
-76.09999999960019
 30
1159.0
 10
68.81030465571844
 20
-73.32587618007966
 30
1159.0
 10
68.9257553445077
 20
-70.55144981690273
 30
1159.0
 10
69.03458749634235
 20
-67.77674922887192
 30
1159.0
 10
69.13697637230453
 20
-65.00180095817544
 30
1159.0
 10
69.23309463283894
 20
-62.226629775682575
 30
1159.0
 10
69.32311248085463
 20
-59.45125868595824
 30
1159.0
 10
69.40719779978005
 20
-56.67570893205328
 30
1159.0
 10
69.48551628797614
 20
-53.90000000012801
 30
1159.0
  0
LINE
  5
64
330
17
100
AcDbEntity
  8
0
100
AcDbLine
 10
26.57762162538933
 20
-76.1
 30
1159.0
 11
68.68805742777373
 21
-76.1
 31
1159.0
  0
SPLINE
  5
65
330
17
100
AcDbEntity
  8
0
100
AcDbSpline
 70
0
 71
1
 72
4
 73
2
 74
0
 40
0.0
 40
0.0
 40
1.0
 40
1.0
 10
26.577621625666257
 20
-79.90000060000018
 30
1159.0
 10
26.577621625666257
 20
-76.09999939999999
 30
1159.0
  0
LINE
  5
66
330
17
100
AcDbEntity
  8
0
100
AcDbLine
 10
26.57762162538933
 20
-79.9
 30
1159.0
 11
68.51496132650432
 21
-79.9
 31
1159.0
  0
SPLINE
  5
67
330
17
100
AcDbEntity
  8
0
100
AcDbSpline
 70
0
 71
8
 72
18
 73
9
 74
0
 40
0.0
 40
0.0
 40
0.0
 40
0.0
 40
0.0
 40
0.0
 40
0.0
 40
0.0
 40
0.0
 40
1.0
 40
1.0
 40
1.0
 40
1.0
 40
1.0
 40
1.0
 40
1.0
 40
1.0
 40
1.0
 10
67.2637590662665
 20
-102.10000000116031
 30
1159.0
 10
67.44725095297663
 20
-99.3266317445491
 30
1159.0
 10
67.62261712104106
 20
-96.55272394931383
 30
1159.0
 10
67.7900544352003
 20
-93.77831553597643
 30
1159.0
 10
67.94975623310704
 20
-91.0034436140324
 30
1159.0
 10
68.10191250421056
 20
-88.2281434885011
 30
1159.0
 10
68.24671005883977
 20
-85.45244866605881
 30
1159.0
 10
68.38433268889894
 20
-82.67639086081212
 30
1159.0
 10
68.51496132159082
 20
-79.89999999976881
 30
1159.0
  0
LINE
  5
68
330
17
100
AcDbEntity
  8
0
100
AcDbLine
 10
26.57762162538933
 20
-102.1
 30
1159.0
 11
67.26375904872909
 21
-102.1
 31
1159.0
  0
SPLINE
  5
69
330
17
100
AcDbEntity
  8
0
100
AcDbSpline
 70
0
 71
1
 72
4
 73
2
 74
0
 40
0.0
 40
0.0
 40
1.0
 40
1.0
 10
26.577621625666257
 20
-105.90000060000003
 30
1159.0
 10
26.577621625666257
 20
-102.09999939999999
 30
1159.0
  0
LINE
  5
6A
330
17
100
AcDbEntity
  8
0
100
AcDbLine
 10
26.57762162538933
 20
-105.9
 30
1159.0
 11
67.00558168554514
 21
-105.9
 31
1159.0
  0
SPLINE
  5
6B
330
17
100
AcDbEntity
  8
0
100
AcDbSpline
 70
0
 71
8
 72
25
 73
16
 74
0
 40
0.0
 40
0.0
 40
0.0
 40
0.0
 40
0.0
 40
0.0
 40
0.0
 40
0.0
 40
0.0
 40
0.1167939818056243
 40
0.1167939818056243
 40
0.1167939818056243
 40
0.1167939818056243
 40
0.1167939818056243
 40
0.1167939818056243
 40
0.1167939818056243
 40
1.0
 40
1.0
 40
1.0
 40
1.0
 40
1.0
 40
1.0
 40
1.0
 40
1.0
 40
1.0
 10
65.21060658476142
 20
-128.10000015086771
 30
1159.0
 10
65.24056859755775
 20
-127.77620999361464
 30
1159.0
 10
65.2703992369375
 20
-127.45240767538846
 30
1159.0
 10
65.30009884901152
 20
-127.12859329140761
 30
1159.0
 10
65.3296678113349
 20
-126.80476693954174
 30
1159.0
 10
65.35910653290694
 20
-126.48092872031171
 30
1159.0
 10
65.38841545417115
 20
-126.15707873688963
 30
1159.0
 10
65.41759504701524
 20
-125.83321709509876
 30
1159.0
 10
65.66633018992894
 20
-123.06018729786047
 30
1159.0
 10
65.87862897726242
 20
-120.61039157520877
 30
1159.0
 10
66.08369285050351
 20
-118.15999035968952
 30
1159.0
 10
66.28166981569686
 20
-115.70901614733148
 30
1159.0
 10
66.47270532753427
 20
-113.25750031033141
 30
1159.0
 10
66.65694239955778
 20
-110.80547310116611
 30
1159.0
 10
66.8345217088312
 20
-108.35296365647056
 30
1159.0
 10
67.00558169568015
 20
-105.90000000070675
 30
1159.0
  0
LINE
  5
6C
330
17
100
AcDbEntity
  8
0
100
AcDbLine
 10
26.57762162538933
 20
-128.1
 30
1159.0
 11
65.21060495438095
 21
-128.1
 31
1159.0
  0
SPLINE
  5
6D
330
17
100
AcDbEntity
  8
0
100
AcDbSpline
 70
0
 71
1
 72
4
 73
2
 74
0
 40
0.0
 40
0.0
 40
1.0
 40
1.0
 10
26.577621625666257
 20
-131.9000006
 30
1159.0
 10
26.577621625666257
 20
-128.09999939999992
 30
1159.0
  0
LINE
  5
6E
330
17
100
AcDbEntity
  8
0
100
AcDbLine
 10
26.57762162538933
 20
-131.9
 30
1159.0
 11
64.85093354941164
 21
-131.9
 31
1159.0
  0
SPLINE
  5
6F
330
17
100
AcDbEntity
  8
0
100
AcDbSpline
 70
0
 71
8
 72
25
 73
16
 74
0
 40
0.0
 40
0.0
 40
0.0
 40
0.0
 40
0.0
 40
0.0
 40
0.0
 40
0.0
 40
0.0
 40
0.9202166543425262
 40
0.9202166543425262
 40
0.9202166543425262
 40
0.9202166543425262
 40
0.9202166543425262
 40
0.9202166543425262
 40
0.9202166543425262
 40
1.0
 40
1.0
 40
1.0
 40
1.0
 40
1.0
 40
1.0
 40
1.0
 40
1.0
 40
1.0
 10
62.42020699093891
 20
-154.10000000013113
 30
1159.0
 10
62.73269263172013
 20
-151.5501463253532
 30
1159.0
 10
63.036255538533446
 20
-148.99919797572272
 30
1159.0
 10
63.33106204706438
 20
-146.4472131676742
 30
1159.0
 10
63.61724685843495
 20
-143.8942439474199
 30
1159.0
 10
63.89491695257441
 20
-141.34033667460997
 30
1159.0
 10
64.16415398907318
 20
-138.78553232134655
 30
1159.0
 10
64.42501579834894
 20
-136.22986666250054
 30
1159.0
 10
64.69943135735112
 20
-133.45172064964896
 30
1159.0
 10
64.721262441667
 20
-133.23006467011805
 30
1159.0
 10
64.74303082138618
 20
-133.00840251611694
 30
1159.0
 10
64.76473650591502
 20
-132.7867342096596
 30
1159.0
 10
64.78637951158106
 20
-132.56505977334356
 30
1159.0
 10
64.80795986163311
 20
-132.34337923034994
 30
1159.0
 10
64.82947758624118
 20
-132.1216926044434
 30
1159.0
 10
64.85093272249654
 20
-131.8999999199722
 30
1159.0
  0
LINE
  5
70
330
17
100
AcDbEntity
  8
0
100
AcDbLine
 10
26.57762162538933
 20
-154.1
 30
1159.0
 11
62.42020698986888
 21
-154.1
 31
1159.0
  0
SPLINE
  5
71
330
17
100
AcDbEntity
  8
0
100
AcDbSpline
 70
0
 71
1
 72
4
 73
2
 74
0
 40
0.0
 40
0.0
 40
1.0
 40
1.0
 10
26.577621625666257
 20
-157.90000060000003
 30
1159.0
 10
26.577621625666257
 20
-154.0999994
 30
1159.0
  0
LINE
  5
72
330
17
100
AcDbEntity
  8
0
100
AcDbLine
 10
26.57762162538933
 20
-157.9
 30
1159.0
 11
61.94564454182843
 21
-157.9
 31
1159.0
  0
SPLINE
  5
73
330
17
100
AcDbEntity
  8
0
100
AcDbSpline
 70
0
 71
8
 72
25
 73
16
 74
0
 40
0.0
 40
0.0
 40
0.0
 40
0.0
 40
0.0
 40
0.0
 40
0.0
 40
0.0
 40
0.0
 40
0.5247852524277133
 40
0.5247852524277133
 40
0.5247852524277133
 40
0.5247852524277133
 40
0.5247852524277133
 40
0.5247852524277133
 40
0.5247852524277133
 40
1.0
 40
1.0
 40
1.0
 40
1.0
 40
1.0
 40
1.0
 40
1.0
 40
1.0
 40
1.0
 10
58.79281124682997
 20
-180.09999999950895
 30
1159.0
 10
59.02228486999768
 20
-178.6470696727316
 30
1159.0
 10
59.248084692115924
 20
-177.1935597354138
 30
1159.0
 10
59.470299416622694
 20
-175.73949540313123
 30
1159.0
 10
59.68900987215422
 20
-174.28489923505163
 30
1159.0
 10
59.90428997783362
 20
-172.82979129809848
 30
1159.0
 10
60.1162074736976
 20
-171.374189291966
 30
1159.0
 10
60.32482456236049
 20
-169.91810866039992
 30
1159.0
 10
60.71617329920816
 20
-167.142600127143
 30
1159.0
 10
60.899487562277486
 20
-165.82326356666917
 30
1159.0
 10
61.08018367839581
 20
-164.50356461766467
 30
1159.0
 10
61.258300457758715
 20
-163.18351427303188
 30
1159.0
 10
61.43387353978798
 20
-161.8631229706511
 30
1159.0
 10
61.60693564742949
 20
-160.54240062471365
 30
1159.0
 10
61.777516801618866
 20
-159.22135665215194
 30
1159.0
 10
61.945644501989136
 20
-157.8999999949309
 30
1159.0
  0
LINE
  5
74
330
17
100
AcDbEntity
  8
0
100
AcDbLine
 10
26.57762162538933
 20
-180.1
 30
1159.0
 11
58.792811249939454
 21
-180.1
 31
1159.0
  0
SPLINE
  5
75
330
17
100
AcDbEntity
  8
0
100
AcDbSpline
 70
0
 71
1
 72
4
 73
2
 74
0
 40
0.0
 40
0.0
 40
1.0
 40
1.0
 10
26.577621625666257
 20
-183.9000006000001
 30
1159.0
 10
26.577621625666257
 20
-180.09999939999994
 30
1159.0
  0
LINE
  5
76
330
17
100
AcDbEntity
  8
0
100
AcDbLine
 10
26.57762162538933
 20
-183.9
 30
1159.0
 11
58.181177529838834
 21
-183.9
 31
1159.0
  0
SPLINE
  5
77
330
17
100
AcDbEntity
  8
0
100
AcDbSpline
 70
0
 71
8
 72
25
 73
16
 74
0
 40
0.0
 40
0.0
 40
0.0
 40
0.0
 40
0.0
 40
0.0
 40
0.0
 40
0.0
 40
0.0
 40
0.31017543647734924
 40
0.31017543647734924
 40
0.31017543647734924
 40
0.31017543647734924
 40
0.31017543647734924
 40
0.31017543647734924
 40
0.31017543647734924
 40
1.0
 40
1.0
 40
1.0
 40
1.0
 40
1.0
 40
1.0
 40
1.0
 40
1.0
 40
1.0
 10
54.07674302693435
 20
-206.09999999990413
 30
1159.0
 10
54.25587903874779
 20
-205.24313876491522
 30
1159.0
 10
54.43295362941477
 20
-204.3858466208896
 30
1159.0
 10
54.60802397612845
 20
-203.52814163749483
 30
1159.0
 10
54.78114333771389
 20
-202.67004023435942
 30
1159.0
 10
54.95236151870764
 20
-201.81155728311376
 30
1159.0
 10
55.12172523535115
 20
-200.9527061880928
 30
1159.0
 10
55.28927843573797
 20
-200.09349895738677
 30
1159.0
 10
55.82376366931817
 20
-197.32231665094017
 30
1159.0
 10
56.183709503861564
 20
-195.40900723350538
 30
1159.0
 10
56.535354529692626
 20
-193.49414396056656
 30
1159.0
 10
56.879089574358375
 20
-191.57783792387391
 30
1159.0
 10
57.21525538815083
 20
-189.66018766793383
 30
1159.0
 10
57.54415228357935
 20
-187.74128082645603
 30
1159.0
 10
57.86604695894097
 20
-185.8211952781311
 30
1159.0
 10
58.18117754552083
 20
-183.90000000257228
 30
1159.0
  0
LINE
  5
78
330
17
100
AcDbEntity
  8
0
100
AcDbLine
 10
26.57762162538933
 20
-206.1
 30
1159.0
 11
54.07674302739235
 21
-206.1
 31
1159.0
  0
SPLINE
  5
79
330
17
100
AcDbEntity
  8
0
100
AcDbSpline
 70
0
 71
1
 72
4
 73
2
 74
0
 40
0.0
 40
0.0
 40
1.0
 40
1.0
 10
26.577621625666257
 20
-209.90000060000008
 30
1159.0
 10
26.577621625666257
 20
-206.09999939999992
 30
1159.0
  0
LINE
  5
7A
330
17
100
AcDbEntity
  8
0
100
AcDbLine
 10
26.57762162538933
 20
-209.9
 30
1159.0
 11
53.263148687897015
 21
-209.9
 31
1159.0
  0
SPLINE
  5
7B
330
17
100
AcDbEntity
  8
0
100
AcDbSpline
 70
0
 71
8
 72
25
 73
16
 74
0
 40
0.0
 40
0.0
 40
0.0
 40
0.0
 40
0.0
 40
0.0
 40
0.0
 40
0.0
 40
0.0
 40
0.6688305046938227
 40
0.6688305046938227
 40
0.6688305046938227
 40
0.6688305046938227
 40
0.6688305046938227
 40
0.6688305046938227
 40
0.6688305046938227
 40
1.0
 40
1.0
 40
1.0
 40
1.0
 40
1.0
 40
1.0
 40
1.0
 40
1.0
 40
1.0
 10
47.461958532919105
 20
-232.10000000157248
 30
1159.0
 10
48.0456030584854
 20
-230.27200812438832
 30
1159.0
 10
48.60328809173283
 20
-228.4357028754132
 30
1159.0
 10
49.138654422947106
 20
-226.59266104481225
 30
1159.0
 10
49.65423892080743
 20
-224.74401088330342
 30
1159.0
 10
50.152073039676424
 20
-222.8906085768773
 30
1159.0
 10
50.63377229037514
 20
-221.03306402340854
 30
1159.0
 10
51.1007130690916
 20
-219.17179476475482
 30
1159.0
 10
51.77853450968606
 20
-216.383701437951
 30
1159.0
 10
51.99966459858788
 20
-215.45955986230786
 30
1159.0
 10
52.21758916288661
 20
-214.53465385170443
 30
1159.0
 10
52.43243322570254
 20
-213.6090251015035
 30
1159.0
 10
52.64431072491791
 20
-212.68271177589355
 30
1159.0
 10
52.85332613484279
 20
-211.75574886449525
 30
1159.0
 10
53.05957573979157
 20
-210.82816846208686
 30
1159.0
 10
53.26314865234097
 20
-209.89999999220157
 30
1159.0
  0
LINE
  5
7C
330
17
100
AcDbEntity
  8
0
100
AcDbLine
 10
26.57762162538933
 20
-232.1
 30
1159.0
 11
47.46195852799417
 21
-232.1
 31
1159.0
  0
SPLINE
  5
7D
330
17
100
AcDbEntity
  8
0
100
AcDbSpline
 70
0
 71
1
 72
4
 73
2
 74
0
 40
0.0
 40
0.0
 40
1.0
 40
1.0
 10
26.577621625666257
 20
-235.90000060000008
 30
1159.0
 10
26.577621625666257
 20
-232.09999939999992
 30
1159.0
  0
LINE
  5
7E
330
17
100
AcDbEntity
  8
0
100
AcDbLine
 10
26.57762162538933
 20
-235.9
 30
1159.0
 11
46.189504421942985
 21
-235.9
 31
1159.0
  0
SPLINE
  5
7F
330
17
100
AcDbEntity
  8
0
100
AcDbSpline
 70
0
 71
8
 72
46
 73
37
 74
0
 40
0.0
 40
0.0
 40
0.0
 40
0.0
 40
0.0
 40
0.0
 40
0.0
 40
0.0
 40
0.0
 40
0.0010141864899646164
 40
0.0010141864899646164
 40
0.0010141864899646164
 40
0.0010141864899646164
 40
0.0010141864899646164
 40
0.0010141864899646164
 40
0.0010141864899646164
 40
0.16809960689174774
 40
0.16809960689174774
 40
0.16809960689174774
 40
0.16809960689174774
 40
0.16809960689174774
 40
0.16809960689174774
 40
0.16809960689174774
 40
0.47384882899666086
 40
0.47384882899666086
 40
0.47384882899666086
 40
0.47384882899666086
 40
0.47384882899666086
 40
0.47384882899666086
 40
0.47384882899666086
 40
0.8624764175708887
 40
0.8624764175708887
 40
0.8624764175708887
 40
0.8624764175708887
 40
0.8624764175708887
 40
0.8624764175708887
 40
0.8624764175708887
 40
1.0
 40
1.0
 40
1.0
 40
1.0
 40
1.0
 40
1.0
 40
1.0
 40
1.0
 40
1.0
 10
32.61113515151475
 20
-258.09999999836583
 30
1159.0
 10
32.61386931806342
 20
-258.09810261794945
 30
1159.0
 10
32.616603044135005
 20
-258.09620461944303
 30
1159.0
 10
32.61933632969055
 20
-258.0943060032275
 30
1159.0
 10
32.62206917469132
 20
-258.09240676968363
 30
1159.0
 10
32.6248015790988
 20
-258.0905069191925
 30
1159.0
 10
32.62753354287467
 20
-258.0886064521348
 30
1159.0
 10
32.630265065980836
 20
-258.08670536889156
 30
1159.0
 10
33.08293711607295
 20
-257.77150213403587
 30
1159.0
 10
33.52110257068569
 20
-257.44135632100523
 30
1159.0
 10
33.947535710665605
 20
-257.09588576519104
 30
1159.0
 10
34.362417200931525
 20
-256.736548170597
 30
1159.0
 10
34.76602885088403
 20
-256.36469692550645
 30
1159.0
 10
35.15872674721347
 20
-255.98154983792872
 30
1159.0
 10
35.540923841505574
 20
-255.5881690917755
 30
1159.0
 10
36.594093327666855
 20
-254.4485221298133
 30
1159.0
 10
37.24115270011812
 20
-253.68069326875118
 30
1159.0
 10
37.85734547482025
 20
-252.88729538206906
 30
1159.0
 10
38.4453182297868
 20
-252.07269450180775
 30
1159.0
 10
39.00744750976241
 20
-251.24041761908046
 30
1159.0
 10
39.54592369870518
 20
-250.39321371531702
 30
1159.0
 10
40.06279243868829
 20
-249.5330837937915
 30
1159.0
 10
41.19197483380902
 20
-247.5532328842346
 30
1159.0
 10
41.79180654848393
 20
-246.42700470958212
 30
1159.0
 10
42.36324229568896
 20
-245.28582681805332
 30
1159.0
 10
42.90918354662647
 20
-244.1322005005824
 30
1159.0
 10
43.432038599014064
 20
-242.96810176328916
 30
1159.0
 10
43.93388199783427
 20
-241.79505744154562
 30
1159.0
 10
44.41652150660278
 20
-240.61417702079416
 30
1159.0
 10
45.046146442114356
 20
-239.0058001669308
 30
1158.9999999999998
 10
45.21039775885696
 20
-238.57969956753053
 30
1159.0
 10
45.37435019032196
 20
-238.14781305270085
 30
1159.0
 10
45.538006792978074
 20
-237.7100774893328
 30
1159.0
 10
45.701360528018085
 20
-237.26644610624248
 30
1159.0
 10
45.86440010650507
 20
-236.81689066603144
 30
1159.0
 10
46.02711583451874
 20
-236.36140363694716
 30
1159.0
 10
46.18950545830168
 20
-235.9000003647436
 30
1159.0
  0
LINE
  5
80
330
17
100
AcDbEntity
  8
0
100
AcDbLine
 10
26.57762162538933
 20
-258.1
 30
1159.0
 11
32.611135152648785
 21
-258.1
 31
1159.0
  0
SPLINE
  5
81
330
17
100
AcDbEntity
  8
0
100
AcDbSpline
 70
0
 71
1
 72
4
 73
2
 74
0
 40
0.0
 40
0.0
 40
1.0
 40
1.0
 10
26.577621625666257
 20
-260.5016709101484
 30
1159.0
 10
26.577621625666257
 20
-258.09999939999994
 30
1159.0
  0
SPLINE
  5
82
330
17
100
AcDbEntity
  8
0
100
AcDbSpline
 70
0
 71
8
 72
46
 73
37
 74
0
 40
0.0
 40
0.0
 40
0.0
 40
0.0
 40
0.0
 40
0.0
 40
0.0
 40
0.0
 40
0.0
 40
0.030009729705367437
 40
0.030009729705367437
 40
0.030009729705367437
 40
0.030009729705367437
 40
0.030009729705367437
 40
0.030009729705367437
 40
0.030009729705367437
 40
0.04010812220325462
 40
0.04010812220325462
 40
0.04010812220325462
 40
0.04010812220325462
 40
0.04010812220325462
 40
0.04010812220325462
 40
0.04010812220325462
 40
0.05967968187785165
 40
0.05967968187785165
 40
0.05967968187785165
 40
0.05967968187785165
 40
0.05967968187785165
 40
0.05967968187785165
 40
0.05967968187785165
 40
0.06257076608662443
 40
0.06257076608662443
 40
0.06257076608662443
 40
0.06257076608662443
 40
0.06257076608662443
 40
0.06257076608662443
 40
0.06257076608662443
 40
0.07063913118554833
 40
0.07063913118554833
 40
0.07063913118554833
 40
0.07063913118554833
 40
0.07063913118554833
 40
0.07063913118554833
 40
0.07063913118554833
 40
0.07063913118554833
 40
0.07063913118554833
 10
2.7606016568069407
 20
-232.81995382298712
 30
1159.0
 10
2.984089412057884
 20
-234.96600918866068
 30
1159.0
 10
3.293183483760899
 20
-237.10094541792859
 30
1159.0
 10
3.6972266545639343
 20
-239.22283490085158
 30
1159.0
 10
4.207364824207943
 20
-241.32527566712693
 30
1159.0
 10
4.8361073012743105
 20
-243.39753885319416
 30
1159.0
 10
5.596948196242408
 20
-245.42464740254354
 30
1159.0
 10
6.503520958371006
 20
-247.38764739750206
 30
1159.0
 10
7.928219328346027
 20
-249.89482438799578
 30
1159.0
 10
8.304804659966479
 20
-250.5159101182114
 30
1159.0
 10
8.699672743023934
 20
-251.12582015539482
 30
1159.0
 10
9.113170107157893
 20
-251.72345154822926
 30
1159.0
 10
9.545565909825
 20
-252.30761694203184
 30
1159.0
 10
9.997031536817913
 20
-252.87705935026364
 30
1159.0
 10
10.467616813491732
 20
-253.43046945740113
 30
1159.0
 10
11.906121704069967
 20
-255.00538965985203
 30
1159.0
 10
12.927427197017106
 20
-255.98006516078095
 30
1159.0
 10
14.019413154254796
 20
-256.8791634782846
 30
1159.0
 10
15.17859720801475
 20
-257.6922080951514
 30
1159.0
 10
16.399518526617808
 20
-258.40998208340704
 30
1159.0
 10
17.674592448717632
 20
-259.0247510828418
 30
1159.0
 10
18.993909754094144
 20
-259.53059458830523
 30
1159.0
 10
20.544407136560007
 20
-259.9822263687816
 30
1159.0
 10
20.744672875669686
 20
-260.03793244982745
 30
1159.0
 10
20.945617331459022
 20
-260.0911844095738
 30
1159.0
 10
21.147214035728634
 20
-260.14193463520905
 30
1159.0
 10
21.349438263825487
 20
-260.1901202394558
 30
1159.0
 10
21.5522670346429
 20
-260.23566306057114
 30
1159.0
 10
21.75567911062053
 20
-260.27846966234694
 30
1159.0
 10
22.528905773525313
 20
-260.42995536262436
 30
1159.0
 10
23.102756496626426
 20
-260.5195049915914
 30
1159.0
 10
23.680296064866063
 20
-260.58519606369026
 30
1159.0
 10
24.26041621115857
 20
-260.62522361494166
 30
1159.0
 10
24.841811225210765
 20
-260.6379608240383
 30
1159.0
 10
25.42297787079746
 20
-260.6220883596907
 30
1159.0
 10
26.002214907524944
 20
-260.57674256437093
 30
1159.0
 10
26.57762162599141
 20
-260.5016709128371
 30
1159.0
  0
SPLINE
  5
83
330
17
100
AcDbEntity
  8
0
100
AcDbSpline
 70
0
 71
8
 72
417
 73
408
 74
0
 40
0.0
 40
0.0
 40
0.0
 40
0.0
 40
0.0
 40
0.0
 40
0.0
 40
0.0
 40
0.0
 40
0.002859223453523354
 40
0.002859223453523354
 40
0.002859223453523354
 40
0.002859223453523354
 40
0.002859223453523354
 40
0.002859223453523354
 40
0.002859223453523354
 40
0.00584620330566778
 40
0.00584620330566778
 40
0.00584620330566778
 40
0.00584620330566778
 40
0.00584620330566778
 40
0.00584620330566778
 40
0.00584620330566778
 40
0.009131881143002158
 40
0.009131881143002158
 40
0.009131881143002158
 40
0.009131881143002158
 40
0.009131881143002158
 40
0.009131881143002158
 40
0.009131881143002158
 40
0.011222767039476863
 40
0.011222767039476863
 40
0.011222767039476863
 40
0.011222767039476863
 40
0.011222767039476863
 40
0.011222767039476863
 40
0.011222767039476863
 40
0.014209746891554544
 40
0.014209746891554544
 40
0.014209746891554544
 40
0.014209746891554544
 40
0.014209746891554544
 40
0.014209746891554544
 40
0.014209746891554544
 40
0.017495424728822758
 40
0.017495424728822758
 40
0.017495424728822758
 40
0.017495424728822758
 40
0.017495424728822758
 40
0.017495424728822758
 40
0.017495424728822758
 40
0.02330227071502186
 40
0.02330227071502186
 40
0.02330227071502186
 40
0.02330227071502186
 40
0.02330227071502186
 40
0.02330227071502186
 40
0.02330227071502186
 40
0.032928750265650286
 40
0.032928750265650286
 40
0.032928750265650286
 40
0.032928750265650286
 40
0.032928750265650286
 40
0.032928750265650286
 40
0.032928750265650286
 40
0.05341252374299277
 40
0.05341252374299277
 40
0.05341252374299277
 40
0.05341252374299277
 40
0.05341252374299277
 40
0.05341252374299277
 40
0.05341252374299277
 40
0.06720460173077217
 40
0.06720460173077217
 40
0.06720460173077217
 40
0.06720460173077217
 40
0.06720460173077217
 40
0.06720460173077217
 40
0.06720460173077217
 40
0.07445130075290991
 40
0.07445130075290991
 40
0.07445130075290991
 40
0.07445130075290991
 40
0.07445130075290991
 40
0.07445130075290991
 40
0.07445130075290991
 40
0.08332077323616421
 40
0.08332077323616421
 40
0.08332077323616421
 40
0.08332077323616421
 40
0.08332077323616421
 40
0.08332077323616421
 40
0.08332077323616421
 40
0.12490369186747115
 40
0.12490369186747115
 40
0.12490369186747115
 40
0.12490369186747115
 40
0.12490369186747115
 40
0.12490369186747115
 40
0.12490369186747115
 40
0.18058549809305136
 40
0.18058549809305136
 40
0.18058549809305136
 40
0.18058549809305136
 40
0.18058549809305136
 40
0.18058549809305136
 40
0.18058549809305136
 40
0.24397987889244588
 40
0.24397987889244588
 40
0.24397987889244588
 40
0.24397987889244588
 40
0.24397987889244588
 40
0.24397987889244588
 40
0.24397987889244588
 40
0.308939171351361
 40
0.308939171351361
 40
0.308939171351361
 40
0.308939171351361
 40
0.308939171351361
 40
0.308939171351361
 40
0.308939171351361
 40
0.3761573464610672
 40
0.3761573464610672
 40
0.3761573464610672
 40
0.3761573464610672
 40
0.3761573464610672
 40
0.3761573464610672
 40
0.3761573464610672
 40
0.4395171839782391
 40
0.4395171839782391
 40
0.4395171839782391
 40
0.4395171839782391
 40
0.4395171839782391
 40
0.4395171839782391
 40
0.4395171839782391
 40
0.49509083365716844
 40
0.49509083365716844
 40
0.49509083365716844
 40
0.49509083365716844
 40
0.49509083365716844
 40
0.49509083365716844
 40
0.49509083365716844
 40
0.5364698133332881
 40
0.5364698133332881
 40
0.5364698133332881
 40
0.5364698133332881
 40
0.5364698133332881
 40
0.5364698133332881
 40
0.5364698133332881
 40
0.5515580034925537
 40
0.5515580034925537
 40
0.5515580034925537
 40
0.5515580034925537
 40
0.5515580034925537
 40
0.5515580034925537
 40
0.5515580034925537
 40
0.5661990609808771
 40
0.5661990609808771
 40
0.5661990609808771
 40
0.5661990609808771
 40
0.5661990609808771
 40
0.5661990609808771
 40
0.5661990609808771
 40
0.5839916836423363
 40
0.5839916836423363
 40
0.5839916836423363
 40
0.5839916836423363
 40
0.5839916836423363
 40
0.5839916836423363
 40
0.5839916836423363
 40
0.5927297683678793
 40
0.5927297683678793
 40
0.5927297683678793
 40
0.5927297683678793
 40
0.5927297683678793
 40
0.5927297683678793
 40
0.5927297683678793
 40
0.5975877980397231
 40
0.5975877980397231
 40
0.5975877980397231
 40
0.5975877980397231
 40
0.5975877980397231
 40
0.5975877980397231
 40
0.5975877980397231
 40
0.6017351195785261
 40
0.6017351195785261
 40
0.6017351195785261
 40
0.6017351195785261
 40
0.6017351195785261
 40
0.6017351195785261
 40
0.6017351195785261
 40
0.6031783688215133
 40
0.6031783688215133
 40
0.6031783688215133
 40
0.6031783688215133
 40
0.6031783688215133
 40
0.6031783688215133
 40
0.6031783688215133
 40
0.6055837842264612
 40
0.6055837842264612
 40
0.6055837842264612
 40
0.6055837842264612
 40
0.6055837842264612
 40
0.6055837842264612
 40
0.6055837842264612
 40
0.6082297411718652
 40
0.6082297411718652
 40
0.6082297411718652
 40
0.6082297411718652
 40
0.6082297411718652
 40
0.6082297411718652
 40
0.6082297411718652
 40
0.6106924139815298
 40
0.6106924139815298
 40
0.6106924139815298
 40
0.6106924139815298
 40
0.6106924139815298
 40
0.6106924139815298
 40
0.6106924139815298
 40
0.6131513090911055
 40
0.6131513090911055
 40
0.6131513090911055
 40
0.6131513090911055
 40
0.6131513090911055
 40
0.6131513090911055
 40
0.6131513090911055
 40
0.6154130723805189
 40
0.6154130723805189
 40
0.6154130723805189
 40
0.6154130723805189
 40
0.6154130723805189
 40
0.6154130723805189
 40
0.6154130723805189
 40
0.6176748356698764
 40
0.6176748356698764
 40
0.6176748356698764
 40
0.6176748356698764
 40
0.6176748356698764
 40
0.6176748356698764
 40
0.6176748356698764
 40
0.619559638411004
 40
0.619559638411004
 40
0.619559638411004
 40
0.619559638411004
 40
0.619559638411004
 40
0.619559638411004
 40
0.619559638411004
 40
0.6214444411521436
 40
0.6214444411521436
 40
0.6214444411521436
 40
0.6214444411521436
 40
0.6214444411521436
 40
0.6214444411521436
 40
0.6214444411521436
 40
0.625108636820133
 40
0.625108636820133
 40
0.625108636820133
 40
0.625108636820133
 40
0.625108636820133
 40
0.625108636820133
 40
0.625108636820133
 40
0.6311831320882365
 40
0.6311831320882365
 40
0.6311831320882365
 40
0.6311831320882365
 40
0.6311831320882365
 40
0.6311831320882365
 40
0.6311831320882365
 40
0.6441088428441972
 40
0.6441088428441972
 40
0.6441088428441972
 40
0.6441088428441972
 40
0.6441088428441972
 40
0.6441088428441972
 40
0.6441088428441972
 40
0.6528119559701061
 40
0.6528119559701061
 40
0.6528119559701061
 40
0.6528119559701061
 40
0.6528119559701061
 40
0.6528119559701061
 40
0.6528119559701061
 40
0.6573847873801782
 40
0.6573847873801782
 40
0.6573847873801782
 40
0.6573847873801782
 40
0.6573847873801782
 40
0.6573847873801782
 40
0.6573847873801782
 40
0.6629816242637021
 40
0.6629816242637021
 40
0.6629816242637021
 40
0.6629816242637021
 40
0.6629816242637021
 40
0.6629816242637021
 40
0.6629816242637021
 40
0.6892171259603463
 40
0.6892171259603463
 40
0.6892171259603463
 40
0.6892171259603463
 40
0.6892171259603463
 40
0.6892171259603463
 40
0.6892171259603463
 40
0.7628859048387268
 40
0.7628859048387268
 40
0.7628859048387268
 40
0.7628859048387268
 40
0.7628859048387268
 40
0.7628859048387268
 40
0.7628859048387268
 40
0.8051461195674059
 40
0.8051461195674059
 40
0.8051461195674059
 40
0.8051461195674059
 40
0.8051461195674059
 40
0.8051461195674059
 40
0.8051461195674059
 40
0.8716929366395847
 40
0.8716929366395847
 40
0.8716929366395847
 40
0.8716929366395847
 40
0.8716929366395847
 40
0.8716929366395847
 40
0.8716929366395847
 40
0.9281562400298302
 40
0.9281562400298302
 40
0.9281562400298302
 40
0.9281562400298302
 40
0.9281562400298302
 40
0.9281562400298302
 40
0.9281562400298302
 40
0.95098952823111
 40
0.95098952823111
 40
0.95098952823111
 40
0.95098952823111
 40
0.95098952823111
 40
0.95098952823111
 40
0.95098952823111
 40
0.9599249423207565
 40
0.9599249423207565
 40
0.9599249423207565
 40
0.9599249423207565
 40
0.9599249423207565
 40
0.9599249423207565
 40
0.9599249423207565
 40
0.9685605045196134
 40
0.9685605045196134
 40
0.9685605045196134
 40
0.9685605045196134
 40
0.9685605045196134
 40
0.9685605045196134
 40
0.9685605045196134
 40
0.9785515362459664
 40
0.9785515362459664
 40
0.9785515362459664
 40
0.9785515362459664
 40
0.9785515362459664
 40
0.9785515362459664
 40
0.9785515362459664
 40
0.98366538356883
 40
0.98366538356883
 40
0.98366538356883
 40
0.98366538356883
 40
0.98366538356883
 40
0.98366538356883
 40
0.98366538356883
 40
0.986479084927461
 40
0.986479084927461
 40
0.986479084927461
 40
0.986479084927461
 40
0.986479084927461
 40
0.986479084927461
 40
0.986479084927461
 40
0.9892927862860923
 40
0.9892927862860923
 40
0.9892927862860923
 40
0.9892927862860923
 40
0.9892927862860923
 40
0.9892927862860923
 40
0.9892927862860923
 40
0.9906996369654082
 40
0.9906996369654082
 40
0.9906996369654082
 40
0.9906996369654082
 40
0.9906996369654082
 40
0.9906996369654082
 40
0.9906996369654082
 40
0.9930443880976032
 40
0.9930443880976032
 40
0.9930443880976032
 40
0.9930443880976032
 40
0.9930443880976032
 40
0.9930443880976032
 40
0.9930443880976032
 40
0.9953891392298011
 40
0.9953891392298011
 40
0.9953891392298011
 40
0.9953891392298011
 40
0.9953891392298011
 40
0.9953891392298011
 40
0.9953891392298011
 40
0.997030465022334
 40
0.997030465022334
 40
0.997030465022334
 40
0.997030465022334
 40
0.997030465022334
 40
0.997030465022334
 40
0.997030465022334
 40
1.0
 40
1.0
 40
1.0
 40
1.0
 40
1.0
 40
1.0
 40
1.0
 40
1.0
 40
1.0
 10
2.7606016568069367
 20
232.81995382298715
 30
1159.0
 10
2.760457621664408
 20
232.82009785550161
 30
1159.0
 10
2.760486681542135
 20
232.81989557036275
 30
1159.0
 10
2.7605778341662908
 20
232.81966296849353
 30
1159.0
 10
2.7606557640995115
 20
232.8195560887291
 30
1159.0
 10
2.760680842740892
 20
232.81957100781682
 30
1159.0
 10
2.76064912832599
 20
232.81954384041643
 30
1159.0
 10
2.760592365926824
 20
232.81915073909974
 30
1159.0
 10
2.7605629665150024
 20
232.81660951656235
 30
1159.0
 10
2.7605406827075596
 20
232.8146833517113
 30
1159.0
 10
2.7605090875275855
 20
232.81195233165192
 30
1159.0
 10
2.760466132473125
 20
232.8082393882382
 30
1159.0
 10
2.7604097690422202
 20
232.80336745332457
 30
1159.0
 10
2.760337948732914
 20
232.79715945876498
 30
1159.0
 10
2.7602486230432506
 20
232.78943833641358
 30
1159.0
 10
2.7600199759420967
 20
232.76967456800645
 30
1159.0
 10
2.7598765482153214
 20
232.757276980804
 30
1159.0
 10
2.759706733734841
 20
232.7425985788148
 30
1159.0
 10
2.7595078059445513
 20
232.72540368433678
 30
1159.0
 10
2.759277038288347
 20
232.70545661966793
 30
1159.0
 10
2.7590117042101245
 20
232.68252170710608
 30
1159.0
 10
2.7587090771537794
 20
232.6563632689491
 30
1159.0
 10
2.758148382732845
 20
232.60789803747852
 30
1159.0
 10
2.7579141286448183
 20
232.5876496130689
 30
1159.0
 10
2.7576629656629583
 20
232.56593961989225
 30
1159.0
 10
2.7573941911510946
 20
232.5427073235745
 30
1159.0
 10
2.7571071024730553
 20
232.51789198974166
 30
1159.0
 10
2.7568009969926703
 20
232.49143288401956
 30
1159.0
 10
2.7564751720737677
 20
232.46326927203424
 30
1159.0
 10
2.7556342865178993
 20
232.39058491566504
 30
1159.0
 10
2.7550979702521756
 20
232.34422688000546
 30
1159.0
 10
2.7545179277810465
 20
232.29408924428728
 30
1159.0
 10
2.7538921106025565
 20
232.23999494036462
 30
1159.0
 10
2.753218470214752
 20
232.18176690009184
 30
1159.0
 10
2.752494958115674
 20
232.11922805532302
 30
1159.0
 10
2.751719525803364
 20
232.05220133791218
 30
1159.0
 10
2.7499777836456185
 20
231.90164885569467
 30
1159.0
 10
2.7490001403699913
 20
231.8171434533223
 30
1159.0
 10
2.7479544683928814
 20
231.72675779489464
 30
1159.0
 10
2.746838041158188
 20
231.63025620270943
 30
1159.0
 10
2.745648132109806
 20
231.52740299906483
 30
1159.0
 10
2.74438201469163
 20
231.41796250625865
 30
1159.0
 10
2.743036962347554
 20
231.30169904658837
 30
1159.0
 10
2.739088787847362
 20
230.96042725237433
 30
1159.0
 10
2.7365653744648553
 20
230.7423087744424
 30
1159.0
 10
2.7340406817476812
 20
230.52407971354776
 30
1159.0
 10
2.731515077199474
 20
230.3057718359181
 30
1159.0
 10
2.7289888080971094
 20
230.08740651564398
 30
1159.0
 10
2.726462033742832
 20
229.86899752247376
 30
1159.0
 10
2.72393481035799
 20
229.65054971605392
 30
1159.0
 10
2.717216801627135
 20
229.06985935066797
 30
1159.0
 10
2.7130254608728386
 20
228.7075687833937
 30
1159.0
 10
2.7088334028481733
 20
228.34521621678832
 30
1159.0
 10
2.7046408066717182
 20
227.9828171334991
 30
1159.0
 10
2.7004477969643497
 20
227.62038230547802
 30
1159.0
 10
2.6962544579607384
 20
227.25791901377997
 30
1159.0
 10
2.692060832726658
 20
226.89543098093984
 30
1159.0
 10
2.678942920677541
 20
225.76154660447054
 30
1159.0
 10
2.670017829966554
 20
224.99008077378608
 30
1159.0
 10
2.661092012303785
 20
224.2185521069552
 30
1159.0
 10
2.6521656671869853
 20
223.44697784809887
 30
1159.0
 10
2.643238930007708
 20
222.67536970019918
 30
1159.0
 10
2.634311889328885
 20
221.90373531846848
 30
1159.0
 10
2.625384582010203
 20
221.1320778889338
 30
1159.0
 10
2.6104459255710752
 20
219.84081224556414
 30
1159.0
 10
2.6042438499637792
 20
219.30471804044498
 30
1159.0
 10
2.5978472456310318
 20
218.7518091866426
 30
1159.0
 10
2.59125257276145
 20
218.18177971040078
 30
1159.0
 10
2.584456291543652
 20
217.59432363796338
 30
1159.0
 10
2.5774548621662574
 20
216.98913499557452
 30
1159.0
 10
2.5702447448178876
 20
216.3659078094784
 30
1159.0
 10
2.5589225159097935
 20
215.38723845892713
 30
1159.0
 10
2.555022638597211
 20
215.0501390439482
 30
1159.0
 10
2.551122729543887
 20
214.71303796424715
 30
1159.0
 10
2.547222771888509
 20
214.3759353161882
 30
1159.0
 10
2.5433227701139796
 20
214.0388311892351
 30
1159.0
 10
2.539422750047417
 20
213.70172566595144
 30
1159.0
 10
2.5355227588601554
 20
213.36461882200044
 30
1159.0
 10
2.526849657214939
 20
212.6149130770718
 30
1159.0
 10
2.522002010983032
 20
212.1958553288795
 30
1159.0
 10
2.5170810095923932
 20
211.77039799746132
 30
1159.0
 10
2.512087736263391
 20
211.33860159871037
 30
1159.0
 10
2.5070232742163925
 20
210.90052664851967
 30
1159.0
 10
2.5018887066717603
 20
210.45623366278198
 30
1159.0
 10
2.496685116849855
 20
210.00578315738994
 30
1159.0
 10
2.466698977621391
 20
207.40879516991893
 30
1159.0
 10
2.4420381168303527
 20
205.26832314709276
 30
1159.0
 10
2.417458602266177
 20
203.12782854774366
 30
1159.0
 10
2.3929744240018445
 20
200.98731642971524
 30
1159.0
 10
2.3685958636931974
 20
198.84679029273255
 30
1159.0
 10
2.3443315123432535
 20
196.7062525689929
 30
1159.0
 10
2.3201876498007143
 20
194.56570449787114
 30
1159.0
 10
2.264009584709936
 20
189.5588223721403
 30
1159.0
 10
2.2320756476394585
 20
186.6924819149368
 30
1159.0
 10
2.2003822140599323
 20
183.82612803830145
 30
1159.0
 10
2.1689405911773534
 20
180.9597626887854
 30
1159.0
 10
2.1377609629058556
 20
178.09338727072156
 30
1159.0
 10
2.1068532752266664
 20
175.2270028316348
 30
1159.0
 10
2.0762276402731934
 20
172.36061014220627
 30
1159.0
 10
2.011359353673156
 20
166.23077956092425
 30
1159.0
 10
1.9772032986080181
 20
162.9673395686642
 30
1159.0
 10
1.9434412461436767
 20
159.7038905898891
 30
1159.0
 10
1.9100888687129187
 20
156.44043331520098
 30
1159.0
 10
1.8771627347471416
 20
153.17696828545263
 30
1159.0
 10
1.8446806648002416
 20
149.91349592960606
 30
1159.0
 10
1.812662068033718
 20
146.65001658492315
 30
1159.0
 10
1.7488160273881543
 20
140.0424841599547
 30
1159.0
 10
1.71701277762376
 20
136.6984307859368
 30
1159.0
 10
1.6857415779364606
 20
133.35437065958916
 30
1159.0
 10
1.6550274346716025
 20
130.010304022992
 30
1159.0
 10
1.6248979301360769
 20
126.66623108258142
 30
1159.0
 10
1.595383860381168
 20
123.32215201357936
 30
1159.0
 10
1.5665198729854048
 20
119.97806696442304
 30
1159.0
 10
1.5091905924134137
 20
113.17359834759571
 30
1159.0
 10
1.4807756346651593
 20
109.71321438127634
 30
1159.0
 10
1.4530561513682643
 20
106.25282504133772
 30
1159.0
 10
1.425993316753345
 20
102.79243114345336
 30
1159.0
 10
1.3995527988463923
 20
99.3320334579856
 30
1159.0
 10
1.3737039988091475
 20
95.87163272810199
 30
1159.0
 10
1.3484192902794814
 20
92.41122968789165
 30
1159.0
 10
1.3003476546356987
 20
85.68904843582703
 30
1159.0
 10
1.2775006968269886
 20
82.42727044164633
 30
1159.0
 10
1.2551112276179641
 20
79.16549170476313
 30
1159.0
 10
1.233159982973787
 20
75.90371289127593
 30
1159.0
 10
1.2116292762613432
 20
72.64193473429614
 30
1159.0
 10
1.1905026598856052
 20
69.38015806040963
 30
1159.0
 10
1.1697645647934647
 20
66.1183838348613
 30
1159.0
 10
1.1315378493850292
 20
59.995676324693186
 30
1159.0
 10
1.1139630635275908
 20
57.134742370653896
 30
1159.0
 10
1.0966654568578524
 20
54.273812004920984
 30
1159.0
 10
1.0796349909652858
 20
51.41288618018525
 30
1159.0
 10
1.0628617816657122
 20
48.5519661308061
 30
1159.0
 10
1.046335685597095
 20
45.69105346254113
 30
1159.0
 10
1.0300453841891049
 20
42.83015036145198
 30
1159.0
 10
1.0020127554462237
 20
37.839100610259266
 30
1159.0
 10
0.9901715778227463
 20
35.708949126387566
 30
1159.0
 10
0.9784474563875762
 20
33.57880610761569
 30
1159.0
 10
0.9668341158693889
 20
31.4486729062846
 30
1159.0
 10
0.9553228643052387
 20
29.31855217307244
 30
1159.0
 10
0.9439033033804034
 20
27.188447696037898
 30
1159.0
 10
0.932561241566537
 20
25.058364948009103
 30
1159.0
 10
0.917150351098659
 20
22.151624347725573
 30
1159.0
 10
0.9131333190306212
 20
21.392677084655276
 30
1159.0
 10
0.9092174293926676
 20
20.652210705529853
 30
1159.0
 10
0.9054080556784965
 20
19.93071092942523
 30
1159.0
 10
0.9016975584923168
 20
19.228412641755654
 30
1159.0
 10
0.8980875536055708
 20
18.545297222275252
 30
1159.0
 10
0.8945783522569402
 20
17.881094082848648
 30
1159.0
 10
0.8878550010078878
 20
16.60860553097238
 30
1159.0
 10
0.8845439175815711
 20
15.981936538349375
 30
1159.0
 10
0.8812328693581678
 20
15.355274208371478
 30
1159.0
 10
0.8779218604083731
 20
14.728619311474967
 30
1159.0
 10
0.874610895994262
 20
14.10197284358143
 30
1159.0
 10
0.8712999828372894
 20
13.475336076820474
 30
1159.0
 10
0.8679891293862881
 20
12.848710610252388
 30
1159.0
 10
0.8606548991430436
 20
11.460604638149803
 30
1159.0
 10
0.8566315745750939
 20
10.699134016800187
 30
1159.0
 10
0.8526083739042108
 20
9.937686844691537
 30
1159.0
 10
0.8485853140514474
 20
9.17626632440934
 30
1159.0
 10
0.8445624365925183
 20
8.414880324717561
 30
1159.0
 10
0.8405398052546912
 20
7.6535409068752855
 30
1159.0
 10
0.8365175141175888
 20
6.892265876814182
 30
1159.0
 10
0.8305206014274497
 20
5.757266014077683
 30
1159.0
 10
0.8285456186538265
 20
5.383472815343211
 30
1159.0
 10
0.8265707844014447
 20
5.0097077263434215
 30
1159.0
 10
0.8245961198096041
 20
4.635974747973393
 30
1159.0
 10
0.8226216728202471
 20
4.262282953927144
 30
1159.0
 10
0.8206475161555942
 20
3.888646107912635
 30
1159.0
 10
0.8186737563287251
 20
3.5150843690085516
 30
1159.0
 10
0.815603565970033
 20
2.9340077691406496
 30
1159.0
 10
0.8145617933835356
 20
2.7368376911735157
 30
1159.0
 10
0.8135736359215431
 20
2.5498150277340783
 30
1159.0
 10
0.8126374711181176
 20
2.3726327043805684
 30
1159.0
 10
0.8117516765073187
 20
2.2049836466708097
 30
1159.0
 10
0.8109146296232044
 20
2.046560780162218
 30
1159.0
 10
0.8101247079998307
 20
1.8970570304118013
 30
1159.0
 10
0.8087447755062047
 20
1.6358854456684497
 30
1159.0
 10
0.8081095677258004
 20
1.5156634613114406
 30
1159.0
 10
0.8074746507132778
 20
1.3954965088882503
 30
1159.0
 10
0.806840051647931
 20
1.2753897323925116
 30
1159.0
 10
0.8062058847759243
 20
1.1553647545483052
 30
1159.0
 10
0.805572331101777
 20
1.0354558330378936
 30
1159.0
 10
0.8049396617375397
 20
0.9157142795561484
 30
1159.0
 10
0.8040887421501013
 20
0.7546658093107226
 30
1159.0
 10
0.8038778098450591
 20
0.714743911220826
 30
1159.0
 10
0.8036754139233201
 20
0.6764376434357455
 30
1159.0
 10
0.8034813515766422
 20
0.6397086216502792
 30
1159.0
 10
0.8032954199967832
 20
0.6045184615591525
 30
1159.0
 10
0.8031174163754998
 20
0.5708287788570163
 30
1159.0
 10
0.8029471379045492
 20
0.5386011892384488
 30
1159.0
 10
0.8025131215609203
 20
0.45645750699777915
 30
1159.0
 10
0.802262756740846
 20
0.40907245220354377
 30
1159.0
 10
0.8020323483884166
 20
0.3654644388985681
 30
1159.0
 10
0.8018209575765849
 20
0.325455761965996
 30
1159.0
 10
0.8016276453783023
 20
0.2888687162887951
 30
1159.0
 10
0.8014514728665186
 20
0.25552559674975683
 30
1159.0
 10
0.8012915011141833
 20
0.22524869823149632
 30
1159.0
 10
0.8009876102823154
 20
0.16773309474034195
 30
1159.0
 10
0.8008468961875889
 20
0.14110097810773375
 30
1159.0
 10
0.8007233991981635
 20
0.11772744020776062
 30
1159.0
 10
0.8006158696021369
 20
0.09737595552954871
 30
1159.0
 10
0.8005230576876071
 20
0.07980999856221767
 30
1159.0
 10
0.8004437137426714
 20
0.06479304379488074
 30
1159.0
 10
0.8003765880554268
 20
0.05208856571664456
 30
1159.0
 10
0.8002681637500726
 20
0.031567744745462534
 30
1159.0
 10
0.800219775067315
 20
0.022409507633319947
 30
1159.0
 10
0.8001784318832748
 20
0.014584730043143423
 30
1159.0
 10
0.800146359472244
 20
0.008514576263593199
 30
1159.0
 10
0.8001245006367548
 20
0.004377484951046284
 30
1159.0
 10
0.8001118628022372
 20
0.0019855974916680452
 30
1159.0
 10
0.8001056059394495
 20
0.0008013984140724517
 30
1159.0
 10
0.8001002468127668
 20
-0.00021289149860592715
 30
1159.0
 10
0.8001021061081942
 20
-5.1665175291759624e-05
 30
1159.0
 10
0.8001006135358598
 20
0.0002529638595873962
 30
1159.0
 10
0.8000998840409546
 20
0.00023099921813241053
 30
1159.0
 10
0.800104719044848
 20
-0.0006755112440615108
 30
1159.0
 10
0.8001174771986875
 20
-0.0030167850434921206
 30
1159.0
 10
0.800139021929789
 20
-0.007125843409074406
 30
1159.0
 10
0.8001977931810598
 20
-0.018249127267210955
 30
1159.0
 10
0.8002348014950872
 20
-0.025253469920057472
 30
1159.0
 10
0.8002822820892793
 20
-0.034239838519202495
 30
1159.0
 10
0.8003418574295765
 20
-0.04551530750695626
 30
1159.0
 10
0.80041514998192
 20
-0.05938695132569599
 30
1159.0
 10
0.800503782212251
 20
-0.07616184441786596
 30
1159.0
 10
0.8006093765865115
 20
-0.09614706122597738
 30
1159.0
 10
0.8008577345547732
 20
-0.14315229115865688
 30
1159.0
 10
0.801000498148775
 20
-0.1701723042835052
 30
1159.0
 10
0.8011634688185887
 20
-0.20101679000907574
 30
1159.0
 10
0.8013482690301538
 20
-0.23599282277747716
 30
1159.0
 10
0.80155652124941
 20
-0.2754074770310037
 30
1159.0
 10
0.8017898479422992
 20
-0.3195678272121358
 30
1159.0
 10
0.8020498715747643
 20
-0.3687809477635398
 30
1159.0
 10
0.8025785004777347
 20
-0.46883138426510124
 30
1159.0
 10
0.8028384525965495
 20
-0.5180309698548625
 30
1159.0
 10
0.8031190098962436
 20
-0.5711303750148601
 30
1159.0
 10
0.8034211113038683
 20
-0.6283073048624398
 30
1159.0
 10
0.8037456957464724
 20
-0.6897394645147849
 30
1159.0
 10
0.8040937021511044
 20
-0.7556045590889165
 30
1159.0
 10
0.8044660694448128
 20
-0.8260802937016933
 30
1159.0
 10
0.8052614036644774
 20
-0.9766084532384125
 30
1159.0
 10
0.8056843705904356
 20
-1.0566608781626843
 30
1159.0
 10
0.8061335762595692
 20
-1.1416793533599412
 30
1159.0
 10
0.8066099595989271
 20
-1.231841583947418
 30
1159.0
 10
0.8071144595355589
 20
-1.3273252750422662
 30
1159.0
 10
0.807648014996514
 20
-1.428308131761556
 30
1159.0
 10
0.8082115649088407
 20
-1.534967859222277
 30
1159.0
 10
0.8099617676025248
 20
-1.866218274183069
 30
1159.0
 10
0.811118375781021
 20
-2.0851225990732303
 30
1159.0
 10
0.812275566231694
 20
-2.3041371271257347
 30
1159.0
 10
0.8134331716820857
 20
-2.523230199716238
 30
1159.0
 10
0.8145910795860712
 20
-2.7423805158932097
 30
1159.0
 10
0.8157492174398424
 20
-2.961574353274699
 30
1159.0
 10
0.8169075596570139
 20
-3.1808068693119793
 30
1159.0
 10
0.8199867461281035
 20
-3.7635861096656775
 30
1159.0
 10
0.8219078431622162
 20
-4.1271806761827605
 30
1159.0
 10
0.8238292666434974
 20
-4.490837027412784
 30
1159.0
 10
0.8257509350499492
 20
-4.854539734159829
 30
1159.0
 10
0.8276727916625445
 20
-5.218278061559989
 30
1159.0
 10
0.8295947981436068
 20
-5.582044753677891
 30
1159.0
 10
0.8315169348942307
 20
-5.945836101131963
 30
1159.0
 10
0.8375295081594166
 20
-7.083799947412462
 30
1159.0
 10
0.8416203105441468
 20
-7.858041692295096
 30
1159.0
 10
0.845711443781276
 20
-8.6323460556536
 30
1159.0
 10
0.8498028170703289
 20
-9.406695852185493
 30
1159.0
 10
0.853894368794108
 20
-10.18107941999304
 30
1159.0
 10
0.8579860586478986
 20
-10.955489130864557
 30
1159.0
 10
0.8620778698514662
 20
-11.72992180886552
 30
1159.0
 10
0.8689249708607688
 20
-13.025831739066733
 30
1159.0
 10
0.871767680641805
 20
-13.563854448081912
 30
1159.0
 10
0.874699552301147
 20
-14.118752293499275
 30
1159.0
 10
0.8777222083047336
 20
-14.690832349760795
 30
1159.0
 10
0.8808372711185048
 20
-15.28040169130873
 30
1159.0
 10
0.8840463632084026
 20
-15.887767392585586
 30
1159.0
 10
0.8873511070403697
 20
-16.513236528034128
 30
1159.0
 10
0.8925406297037871
 20
-17.49542650060644
 30
1159.0
 10
0.8943281704558663
 20
-17.83373859049899
 30
1159.0
 10
0.8961157075374377
 20
-18.17205233954081
 30
1159.0
 10
0.8979032225310104
 20
-18.510367652008437
 30
1159.0
 10
0.8996907184007545
 20
-18.848684438689183
 30
1159.0
 10
0.9014782194925008
 20
-19.18700261688114
 30
1159.0
 10
0.9032657715337408
 20
-19.525322110393162
 30
1159.0
 10
0.9072414291305132
 20
-20.277724590493026
 30
1159.0
 10
0.9094639678059779
 20
-20.698289328519206
 30
1159.0
 10
0.9117211161922354
 20
-21.125275892286943
 30
1159.0
 10
0.9140129328214996
 20
-21.55862311045982
 30
1159.0
 10
0.9163394762259864
 20
-21.998269811701505
 30
1159.0
 10
0.9187008049379113
 20
-22.444154824675714
 30
1159.0
 10
0.9210969774894903
 20
-22.89621697804624
 30
1159.0
 10
0.934923858938335
 20
-25.502131966595517
 30
1159.0
 10
0.9463737310074927
 20
-27.649899335782315
 30
1159.0
 10
0.9579050060723646
 20
-29.797687811520696
 30
1159.0
 10
0.9695315500601736
 20
-31.945492123112444
 30
1159.0
 10
0.9812635684287478
 20
-34.09330861300288
 30
1159.0
 10
0.9931096053638614
 20
-36.24113471478747
 30
1159.0
 10
1.0050759279343442
 20
-38.38896908949433
 30
1159.0
 10
1.0511241769569504
 20
-46.56790967559019
 30
1159.0
 10
1.0860750821926903
 20
-52.59906121943922
 30
1159.0
 10
1.1221485665253579
 20
-58.63024025411565
 30
1159.0
 10
1.1594224531231223
 20
-64.66143656289302
 30
1159.0
 10
1.1979912336484455
 20
-70.69264069772606
 30
1159.0
 10
1.2379481042999416
 20
-76.72384796844412
 30
1159.0
 10
1.2794056615278535
 20
-82.75505448821772
 30
1159.0
 10
1.3472163259673744
 20
-92.24606825422187
 30
1159.0
 10
1.3724732942969853
 20
-95.7058766147831
 30
1159.0
 10
1.3982931933558587
 20
-99.16568269226075
 30
1159.0
 10
1.4247035470116172
 20
-102.62548575271786
 30
1159.0
 10
1.451734826293539
 20
-106.08528505396485
 30
1159.0
 10
1.479421218485891
 20
-109.54507982730156
 30
1159.0
 10
1.5078013962212626
 20
-113.00486925925904
 30
1159.0
 10
1.582770992138234
 20
-121.91274501463847
 30
1159.0
 10
1.6304559391327025
 20
-127.36082189819118
 30
1159.0
 10
1.6798041473756231
 20
-132.80888275632455
 30
1159.0
 10
1.7306780975998584
 20
-138.25692691145025
 30
1159.0
 10
1.7829636801912894
 20
-143.70495344431714
 30
1159.0
 10
1.8365632843444324
 20
-149.1529611439725
 30
1159.0
 10
1.8913910276352053
 20
-154.60094833943302
 30
1159.0
 10
1.9948669854273766
 20
-164.671373508645
 30
1159.0
 10
2.043192622759231
 20
-169.29381639648815
 30
1159.0
 10
2.0923001612798124
 20
-173.91624111040954
 30
1159.0
 10
2.142145969741018
 20
-178.5386458506363
 30
1159.0
 10
2.192691206524617
 20
-183.16102769201464
 30
1159.0
 10
2.2438919139657933
 20
-187.78338061033233
 30
1159.0
 10
2.2957077126421495
 20
-192.40569711839893
 30
1159.0
 10
2.3692362553333353
 20
-198.89716516275038
 30
1159.0
 10
2.3904970230250826
 20
-200.76636020884862
 30
1159.0
 10
2.4118410326767536
 20
-202.635545090685
 30
1159.0
 10
2.433262765925853
 20
-204.50471856209225
 30
1159.0
 10
2.4547542405042715
 20
-206.37387809490627
 30
1159.0
 10
2.476305706445736
 20
-208.24302003445428
 30
1159.0
 10
2.4979035943290504
 20
-210.11213908438037
 30
1159.0
 10
2.527979473338444
 20
-212.71266060660287
 30
1159.0
 10
2.5362216621560543
 20
-213.4250776601314
 30
1159.0
 10
2.544245369699385
 20
-214.1184390353821
 30
1159.0
 10
2.5520441605703184
 20
-214.79281928528493
 30
1159.0
 10
2.5596309493296783
 20
-215.4484068020314
 30
1159.0
 10
2.5670005395465294
 20
-216.08550149009085
 30
1159.0
 10
2.5741621123795904
 20
-216.70451671754788
 30
1159.0
 10
2.587845228670751
 20
-217.88725614481856
 30
1159.0
 10
2.5945699567684883
 20
-218.4685273179655
 30
1159.0
 10
2.6012945998566606
 20
-219.04979114306667
 30
1159.0
 10
2.608019147597813
 20
-219.63104672657465
 30
1159.0
 10
2.614743586602409
 20
-220.2122929111263
 30
1159.0
 10
2.6214678999226133
 20
-220.7935282317867
 30
1159.0
 10
2.6281920661443343
 20
-221.3747508375675
 30
1159.0
 10
2.6426954724555465
 20
-222.6283943869597
 30
1159.0
 10
2.6504746126895866
 20
-223.30080669927858
 30
1159.0
 10
2.658253474249449
 20
-223.9731949235952
 30
1159.0
 10
2.6660320185472117
 20
-224.64555572445153
 30
1159.0
 10
2.6738101531451974
 20
-225.31788111173182
 30
1159.0
 10
2.6815877367816543
 20
-225.99015887507122
 30
1159.0
 10
2.6893645613669515
 20
-226.66237102764495
 30
1159.0
 10
2.7011202075769014
 20
-227.67850404659293
 30
1159.0
 10
2.7050997955928135
 20
-228.0224911581952
 30
1159.0
 10
2.709079023721856
 20
-228.36644716194286
 30
1159.0
 10
2.7130578434087154
 20
-228.71036786081845
 30
1159.0
 10
2.717036132764974
 20
-229.05424271904616
 30
1159.0
 10
2.7210137046108045
 20
-229.3980555572007
 30
1159.0
 10
2.7249902824434113
 20
-229.74178247496985
 30
1159.0
 10
2.731152521121376
 20
-230.27443326077005
 30
1159.0
 10
2.733224461461898
 20
-230.45352737058707
 30
1159.0
 10
2.7351847368433937
 20
-230.62296939919136
 30
1159.0
 10
2.7370368870772435
 20
-230.78306532033898
 30
1159.0
 10
2.7387844519748294
 20
-230.9341211077859
 30
1159.0
 10
2.740430971347532
 20
-231.0764427352881
 30
1159.0
 10
2.7419799850067323
 20
-231.21033617660166
 30
1159.0
 10
2.7448900805208925
 20
-231.46187863436353
 30
1159.0
 10
2.746251162375852
 20
-231.5795276508119
 30
1159.0
 10
2.747521818140071
 20
-231.68936042858357
 30
1159.0
 10
2.7487055876249333
 20
-231.79168294143471
 30
1159.0
 10
2.7498060106418176
 20
-231.88680116312128
 30
1159.0
 10
2.7508266270021076
 20
-231.97502106739935
 30
1159.0
 10
2.7517709765171827
 20
-232.0566486280249
 30
1159.0
 10
2.7530784102390466
 20
-232.16966041411857
 30
1159.0
 10
2.753496039721209
 20
-232.20575941700895
 30
1159.0
 10
2.7538959299213346
 20
-232.24032507414475
 30
1159.0
 10
2.754278523315849
 20
-232.27339563224544
 30
1159.0
 10
2.7546442623811727
 20
-232.30500933803054
 30
1159.0
 10
2.7549935895937296
 20
-232.3352044382195
 30
1159.0
 10
2.755326947429941
 20
-232.36401917953188
 30
1159.0
 10
2.756174496593377
 20
-232.43727952394585
 30
1159.0
 10
2.756661084542964
 20
-232.47933914987937
 30
1159.0
 10
2.7571065907169445
 20
-232.51784775463335
 30
1159.0
 10
2.7575130636172767
 20
-232.55298240635372
 30
1159.0
 10
2.7578825517459173
 20
-232.58492017318645
 30
1159.0
 10
2.758217103604823
 20
-232.61383812327728
 30
1159.0
 10
2.7585187676959504
 20
-232.639913324772
 30
1159.0
 10
2.7590604173465616
 20
-232.686732366861
 30
1159.0
 10
2.7593004029060455
 20
-232.7074762074554
 30
1159.0
 10
2.759511597701665
 20
-232.72573143574527
 30
1159.0
 10
2.7596960502353753
 20
-232.74167511987676
 30
1159.0
 10
2.759855809009136
 20
-232.75548432799556
 30
1159.0
 10
2.7599929225249014
 20
-232.7673361282475
 30
1159.0
 10
2.7601094392846286
 20
-232.77740758877854
 30
1159.0
 10
2.760275985744227
 20
-232.7918035100035
 30
1159.0
 10
2.7603354750536786
 20
-232.79694563920077
 30
1159.0
 10
2.760386578354803
 20
-232.8013628997003
 30
1159.0
 10
2.760429998283771
 20
-232.80511602587603
 30
1159.0
 10
2.760466437476752
 20
-232.80826575210207
 30
1159.0
 10
2.7604965985699166
 20
-232.81087281275236
 30
1159.0
 10
2.7605211841994386
 20
-232.812997942201
 30
1159.0
 10
2.7605765619836973
 20
-232.81778467991816
 30
1159.0
 10
2.760715187409745
 20
-232.81881910696742
 30
1159.0
 10
2.760792871748629
 20
-232.81895746615598
 30
1159.0
 10
2.760732442515869
 20
-232.8189722779883
 30
1159.0
 10
2.7605434562735027
 20
-232.81925627328712
 30
1159.0
 10
2.7603221986300865
 20
-232.81982239319382
 30
1159.0
 10
2.7602516842406986
 20
-232.82030378916784
 30
1159.0
 10
2.7606016568069367
 20
-232.81995382298715
 30
1159.0
  0
ENDSEC
  0
SECTION
  2
OBJECTS
  0
DICTIONARY
  5
A
330
0
100
AcDbDictionary
281
1
  3
ACAD_COLOR
350
B
  3
ACAD_GROUP
350
C
  3
ACAD_LAYOUT
350
D
  3
ACAD_MATERIAL
350
E
  3
ACAD_MLEADERSTYLE
350
F
  3
ACAD_MLINESTYLE
350
10
  3
ACAD_PLOTSETTINGS
350
11
  3
ACAD_PLOTSTYLENAME
350
12
  3
ACAD_SCALELIST
350
14
  3
ACAD_TABLESTYLE
350
15
  3
ACAD_VISUALSTYLE
350
16
  3
EZDXF_META
350
2D
  0
DICTIONARY
  5
B
330
A
100
AcDbDictionary
281
1
  0
DICTIONARY
  5
C
330
A
100
AcDbDictionary
281
1
  0
DICTIONARY
  5
D
330
A
100
AcDbDictionary
281
1
  3
Model
350
1A
  3
Layout1
350
1E
  0
DICTIONARY
  5
E
330
A
100
AcDbDictionary
281
1
  3
ByBlock
350
1F
  3
ByLayer
350
20
  3
Global
350
21
  0
DICTIONARY
  5
F
330
A
100
AcDbDictionary
281
1
  3
Standard
350
2C
  0
DICTIONARY
  5
10
330
A
100
AcDbDictionary
281
1
  3
Standard
350
22
  0
DICTIONARY
  5
11
330
A
100
AcDbDictionary
281
1
  0
ACDBDICTIONARYWDFLT
  5
12
330
A
100
AcDbDictionary
281
1
  3
Normal
350
13
100
AcDbDictionaryWithDefault
340
13
  0
ACDBPLACEHOLDER
  5
13
330
12
  0
DICTIONARY
  5
14
330
A
100
AcDbDictionary
281
1
  0
DICTIONARY
  5
15
330
A
100
AcDbDictionary
281
1
  0
DICTIONARY
  5
16
330
A
100
AcDbDictionary
281
1
  0
LAYOUT
  5
1A
330
D
100
AcDbPlotSettings
  1

  2
Adobe PDF
  4
A3
  6

 40
7.5
 41
20.0
 42
7.5
 43
20.0
 44
420.0
 45
297.0
 46
0.0
 47
0.0
 48
0.0
 49
0.0
140
0.0
141
0.0
142
1.0
143
1.0
 70
1024
 72
1
 73
1
 74
5
  7

 75
16
 76
0
 77
2
 78
300
147
1.0
148
0.0
149
0.0
100
AcDbLayout
  1
Model
 70
1
 71
0
 10
0.0
 20
0.0
 11
420.0
 21
297.0
 12
0.0
 22
0.0
 32
0.0
 14
1e+20
 24
1e+20
 34
1e+20
 15
-1e+20
 25
-1e+20
 35
-1e+20
146
0.0
 13
0.0
 23
0.0
 33
0.0
 16
1.0
 26
0.0
 36
0.0
 17
0.0
 27
1.0
 37
0.0
 76
1
330
17
  0
LAYOUT
  5
1E
330
D
100
AcDbPlotSettings
  1

  2
Adobe PDF
  4
A3
  6

 40
7.5
 41
20.0
 42
7.5
 43
20.0
 44
420.0
 45
297.0
 46
0.0
 47
0.0
 48
0.0
 49
0.0
140
0.0
141
0.0
142
1.0
143
1.0
 70
0
 72
1
 73
1
 74
5
  7

 75
16
 76
0
 77
2
 78
300
147
1.0
148
0.0
149
0.0
100
AcDbLayout
  1
Layout1
 70
1
 71
1
 10
0.0
 20
0.0
 11
420.0
 21
297.0
 12
0.0
 22
0.0
 32
0.0
 14
1e+20
 24
1e+20
 34
1e+20
 15
-1e+20
 25
-1e+20
 35
-1e+20
146
0.0
 13
0.0
 23
0.0
 33
0.0
 16
1.0
 26
0.0
 36
0.0
 17
0.0
 27
1.0
 37
0.0
 76
1
330
1B
  0
MATERIAL
  5
1F
102
{ACAD_REACTORS
330
E
102
}
330
E
100
AcDbMaterial
  1
ByBlock
  2

 70
0
 40
1.0
 71
1
 41
1.0
 91
-1023410177
 42
1.0
 72
1
  3

 73
1
 74
1
 75
1
 44
0.5
 73
0
 45
1.0
 46
1.0
 77
1
  4

 78
1
 79
1
170
1
 48
1.0
171
1
  6

172
1
173
1
174
1
140
1.0
141
1.0
175
1
  7

176
1
177
1
178
1
143
1.0
179
1
  8

270
1
271
1
272
1
145
1.0
146
1.0
273
1
  9

274
1
275
1
276
1
 42
1.0
 72
1
  3

 73
1
 74
1
 75
1
 94
63
  0
MATERIAL
  5
20
102
{ACAD_REACTORS
330
E
102
}
330
E
100
AcDbMaterial
  1
ByLayer
  2

 70
0
 40
1.0
 71
1
 41
1.0
 91
-1023410177
 42
1.0
 72
1
  3

 73
1
 74
1
 75
1
 44
0.5
 73
0
 45
1.0
 46
1.0
 77
1
  4

 78
1
 79
1
170
1
 48
1.0
171
1
  6

172
1
173
1
174
1
140
1.0
141
1.0
175
1
  7

176
1
177
1
178
1
143
1.0
179
1
  8

270
1
271
1
272
1
145
1.0
146
1.0
273
1
  9

274
1
275
1
276
1
 42
1.0
 72
1
  3

 73
1
 74
1
 75
1
 94
63
  0
MATERIAL
  5
21
102
{ACAD_REACTORS
330
E
102
}
330
E
100
AcDbMaterial
  1
Global
  2

 70
0
 40
1.0
 71
1
 41
1.0
 91
-1023410177
 42
1.0
 72
1
  3

 73
1
 74
1
 75
1
 44
0.5
 73
0
 45
1.0
 46
1.0
 77
1
  4

 78
1
 79
1
170
1
 48
1.0
171
1
  6

172
1
173
1
174
1
140
1.0
141
1.0
175
1
  7

176
1
177
1
178
1
143
1.0
179
1
  8

270
1
271
1
272
1
145
1.0
146
1.0
273
1
  9

274
1
275
1
276
1
 42
1.0
 72
1
  3

 73
1
 74
1
 75
1
 94
63
  0
MLINESTYLE
  5
22
102
{ACAD_REACTORS
330
10
102
}
330
10
100
AcDbMlineStyle
  2
Standard
 70
0
  3

 62
256
 51
90.0
 52
90.0
 71
2
 49
0.5
 62
256
  6
BYLAYER
 49
-0.5
 62
256
  6
BYLAYER
  0
MLEADERSTYLE
  5
2C
102
{ACAD_REACTORS
330
F
102
}
330
F
100
AcDbMLeaderStyle
179
2
170
2
171
1
172
0
 90
2
 40
0.0
 41
0.0
173
1
 91
-1056964608
 92
-2
290
1
 42
2.0
291
1
 43
8.0
  3
Standard
 44
4.0
300

342
29
174
1
175
1
176
0
178
1
 93
-1056964608
 45
4.0
292
0
297
0
 46
4.0
 94
-1056964608
 47
1.0
 49
1.0
140
1.0
294
1
141
0.0
177
0
142
1.0
295
0
296
0
143
3.75
271
0
272
9
273
9
  0
DICTIONARY
  5
2D
330
A
100
AcDbDictionary
280
1
281
1
  3
CREATED_BY_EZDXF
350
2E
  3
WRITTEN_BY_EZDXF
350
86
  0
DICTIONARYVAR
  5
2E
330
2D
100
DictionaryVariables
280
0
  1
0.17 @ 2022-02-15T16:36:56.659129+00:00
  0
DICTIONARYVAR
  5
86
330
2D
100
DictionaryVariables
280
0
  1
0.17 @ 2022-02-15T16:36:56.774839+00:00
  0
ENDSEC
  0
EOF
