  0
SECTION
  2
HEADER
  9
$ACADVER
  1
AC1027
  9
$ACADMAINTVER
 70
105
  9
$DWGCODEPAGE
  3
ANSI_1252
  9
$LASTSAVEDBY
  1
ezdxf
  9
$REQUIREDVERSIONS
160
0
  9
$INSBASE
 10
0.0
 20
0.0
 30
0.0
  9
$EXTMIN
 10
1e+20
 20
1e+20
 30
1e+20
  9
$EXTMAX
 10
-1e+20
 20
-1e+20
 30
-1e+20
  9
$LIMMIN
 10
0.0
 20
0.0
  9
$LIMMAX
 10
420.0
 20
297.0
  9
$ORTHOMODE
 70
0
  9
$REGENMODE
 70
1
  9
$FILLMODE
 70
1
  9
$QTEXTMODE
 70
0
  9
$MIRRTEXT
 70
1
  9
$LTSCALE
 40
1.0
  9
$ATTMODE
 70
1
  9
$TEXTSIZE
 40
2.5
  9
$TRACEWID
 40
1.0
  9
$TEXTSTYLE
  7
Standard
  9
$CLAYER
  8
0
  9
$CELTYPE
  6
ByLayer
  9
$CECOLOR
 62
256
  9
$CELTSCALE
 40
1.0
  9
$DISPSILH
 70
0
  9
$DIMSCALE
 40
1.0
  9
$DIMASZ
 40
2.5
  9
$DIMEXO
 40
0.625
  9
$DIMDLI
 40
3.75
  9
$DIMRND
 40
0.0
  9
$DIMDLE
 40
0.0
  9
$DIMEXE
 40
1.25
  9
$DIMTP
 40
0.0
  9
$DIMTM
 40
0.0
  9
$DIMTXT
 40
2.5
  9
$DIMCEN
 40
2.5
  9
$DIMTSZ
 40
0.0
  9
$DIMTOL
 70
0
  9
$DIMLIM
 70
0
  9
$DIMTIH
 70
0
  9
$DIMTOH
 70
0
  9
$DIMSE1
 70
0
  9
$DIMSE2
 70
0
  9
$DIMTAD
 70
1
  9
$DIMZIN
 70
8
  9
$DIMBLK
  1

  9
$DIMASO
 70
1
  9
$DIMSHO
 70
1
  9
$DIMPOST
  1

  9
$DIMAPOST
  1

  9
$DIMALT
 70
0
  9
$DIMALTD
 70
3
  9
$DIMALTF
 40
0.03937007874
  9
$DIMLFAC
 40
1.0
  9
$DIMTOFL
 70
1
  9
$DIMTVP
 40
0.0
  9
$DIMTIX
 70
0
  9
$DIMSOXD
 70
0
  9
$DIMSAH
 70
0
  9
$DIMBLK1
  1

  9
$DIMBLK2
  1

  9
$DIMSTYLE
  2
ISO-25
  9
$DIMCLRD
 70
0
  9
$DIMCLRE
 70
0
  9
$DIMCLRT
 70
0
  9
$DIMTFAC
 40
1.0
  9
$DIMGAP
 40
0.625
  9
$DIMJUST
 70
0
  9
$DIMSD1
 70
0
  9
$DIMSD2
 70
0
  9
$DIMTOLJ
 70
0
  9
$DIMTZIN
 70
8
  9
$DIMALTZ
 70
0
  9
$DIMALTTZ
 70
0
  9
$DIMUPT
 70
0
  9
$DIMDEC
 70
2
  9
$DIMTDEC
 70
2
  9
$DIMALTU
 70
2
  9
$DIMALTTD
 70
3
  9
$DIMTXSTY
  7
Standard
  9
$DIMAUNIT
 70
0
  9
$DIMADEC
 70
0
  9
$DIMALTRND
 40
0.0
  9
$DIMAZIN
 70
0
  9
$DIMDSEP
 70
44
  9
$DIMATFIT
 70
3
  9
$DIMFRAC
 70
0
  9
$DIMLDRBLK
  1

  9
$DIMLUNIT
 70
2
  9
$DIMLWD
 70
-2
  9
$DIMLWE
 70
-2
  9
$DIMTMOVE
 70
0
  9
$DIMFXL
 40
1.0
  9
$DIMFXLON
 70
0
  9
$DIMJOGANG
 40
0.785398163397
  9
$DIMTFILL
 70
0
  9
$DIMTFILLCLR
 70
0
  9
$DIMARCSYM
 70
0
  9
$DIMLTYPE
  6

  9
$DIMLTEX1
  6

  9
$DIMLTEX2
  6

  9
$DIMTXTDIRECTION
 70
0
  9
$LUNITS
 70
2
  9
$LUPREC
 70
4
  9
$SKETCHINC
 40
1.0
  9
$FILLETRAD
 40
10.0
  9
$AUNITS
 70
0
  9
$AUPREC
 70
2
  9
$MENU
  1
.
  9
$ELEVATION
 40
0.0
  9
$PELEVATION
 40
0.0
  9
$THICKNESS
 40
0.0
  9
$LIMCHECK
 70
0
  9
$CHAMFERA
 40
0.0
  9
$CHAMFERB
 40
0.0
  9
$CHAMFERC
 40
0.0
  9
$CHAMFERD
 40
0.0
  9
$SKPOLY
 70
0
  9
$TDCREATE
 40
2459626.7339930558
  9
$TDUCREATE
 40
2458532.153996898
  9
$TDUPDATE
 40
2459626.73400463
  9
$TDUUPDATE
 40
2458532.1544311
  9
$TDINDWG
 40
0.0
  9
$TDUSRTIMER
 40
0.0
  9
$USRTIMER
 70
1
  9
$ANGBASE
 50
0.0
  9
$ANGDIR
 70
0
  9
$PDMODE
 70
0
  9
$PDSIZE
 40
0.0
  9
$PLINEWID
 40
0.0
  9
$SPLFRAME
 70
0
  9
$SPLINETYPE
 70
6
  9
$SPLINESEGS
 70
8
  9
$HANDSEED
  5
87
  9
$SURFTAB1
 70
6
  9
$SURFTAB2
 70
6
  9
$SURFTYPE
 70
6
  9
$SURFU
 70
6
  9
$SURFV
 70
6
  9
$UCSBASE
  2

  9
$UCSNAME
  2

  9
$UCSORG
 10
0.0
 20
0.0
 30
0.0
  9
$UCSXDIR
 10
1.0
 20
0.0
 30
0.0
  9
$UCSYDIR
 10
0.0
 20
1.0
 30
0.0
  9
$UCSORTHOREF
  2

  9
$UCSORTHOVIEW
 70
0
  9
$UCSORGTOP
 10
0.0
 20
0.0
 30
0.0
  9
$UCSORGBOTTOM
 10
0.0
 20
0.0
 30
0.0
  9
$UCSORGLEFT
 10
0.0
 20
0.0
 30
0.0
  9
$UCSORGRIGHT
 10
0.0
 20
0.0
 30
0.0
  9
$UCSORGFRONT
 10
0.0
 20
0.0
 30
0.0
  9
$UCSORGBACK
 10
0.0
 20
0.0
 30
0.0
  9
$PUCSBASE
  2

  9
$PUCSNAME
  2

  9
$PUCSORG
 10
0.0
 20
0.0
 30
0.0
  9
$PUCSXDIR
 10
1.0
 20
0.0
 30
0.0
  9
$PUCSYDIR
 10
0.0
 20
1.0
 30
0.0
  9
$PUCSORTHOREF
  2

  9
$PUCSORTHOVIEW
 70
0
  9
$PUCSORGTOP
 10
0.0
 20
0.0
 30
0.0
  9
$PUCSORGBOTTOM
 10
0.0
 20
0.0
 30
0.0
  9
$PUCSORGLEFT
 10
0.0
 20
0.0
 30
0.0
  9
$PUCSORGRIGHT
 10
0.0
 20
0.0
 30
0.0
  9
$PUCSORGFRONT
 10
0.0
 20
0.0
 30
0.0
  9
$PUCSORGBACK
 10
0.0
 20
0.0
 30
0.0
  9
$USERI1
 70
0
  9
$USERI2
 70
0
  9
$USERI3
 70
0
  9
$USERI4
 70
0
  9
$USERI5
 70
0
  9
$USERR1
 40
0.0
  9
$USERR2
 40
0.0
  9
$USERR3
 40
0.0
  9
$USERR4
 40
0.0
  9
$USERR5
 40
0.0
  9
$WORLDVIEW
 70
1
  9
$SHADEDGE
 70
3
  9
$SHADEDIF
 70
70
  9
$TILEMODE
 70
1
  9
$MAXACTVP
 70
64
  9
$PINSBASE
 10
0.0
 20
0.0
 30
0.0
  9
$PLIMCHECK
 70
0
  9
$PEXTMIN
 10
1e+20
 20
1e+20
 30
1e+20
  9
$PEXTMAX
 10
-1e+20
 20
-1e+20
 30
-1e+20
  9
$PLIMMIN
 10
0.0
 20
0.0
  9
$PLIMMAX
 10
420.0
 20
297.0
  9
$UNITMODE
 70
0
  9
$VISRETAIN
 70
1
  9
$PLINEGEN
 70
0
  9
$PSLTSCALE
 70
1
  9
$TREEDEPTH
 70
3020
  9
$CMLSTYLE
  2
Standard
  9
$CMLJUST
 70
0
  9
$CMLSCALE
 40
20.0
  9
$PROXYGRAPHICS
 70
1
  9
$MEASUREMENT
 70
1
  9
$CELWEIGHT
370
-1
  9
$ENDCAPS
280
0
  9
$JOINSTYLE
280
0
  9
$LWDISPLAY
290
0
  9
$INSUNITS
 70
6
  9
$HYPERLINKBASE
  1

  9
$STYLESHEET
  1

  9
$XEDIT
290
1
  9
$CEPSNTYPE
380
0
  9
$PSTYLEMODE
290
1
  9
$FINGERPRINTGUID
  2
{E2D6D139-0296-4935-BBED-AFAC404345F0}
  9
$VERSIONGUID
  2
{C6868D93-4749-47E5-B7A6-6824B6ED3310}
  9
$EXTNAMES
290
1
  9
$PSVPSCALE
 40
0.0
  9
$OLESTARTUP
290
0
  9
$SORTENTS
280
127
  9
$INDEXCTL
280
0
  9
$HIDETEXT
280
1
  9
$XCLIPFRAME
280
0
  9
$HALOGAP
280
0
  9
$OBSCOLOR
 70
257
  9
$OBSLTYPE
280
0
  9
$INTERSECTIONDISPLAY
280
0
  9
$INTERSECTIONCOLOR
 70
257
  9
$DIMASSOC
280
2
  9
$PROJECTNAME
  1

  9
$CAMERADISPLAY
290
0
  9
$LENSLENGTH
 40
50.0
  9
$CAMERAHEIGHT
 40
0.0
  9
$STEPSPERSEC
 40
24.0
  9
$STEPSIZE
 40
100.0
  9
$3DDWFPREC
 40
2.0
  9
$PSOLWIDTH
 40
0.005
  9
$PSOLHEIGHT
 40
0.08
  9
$LOFTANG1
 40
1.570796326795
  9
$LOFTANG2
 40
1.570796326795
  9
$LOFTMAG1
 40
0.0
  9
$LOFTMAG2
 40
0.0
  9
$LOFTPARAM
 70
7
  9
$LOFTNORMALS
280
1
  9
$LATITUDE
 40
37.795
  9
$LONGITUDE
 40
-122.394
  9
$NORTHDIRECTION
 40
0.0
  9
$TIMEZONE
 70
-8000
  9
$LIGHTGLYPHDISPLAY
280
1
  9
$TILEMODELIGHTSYNCH
280
1
  9
$CMATERIAL
347
20
  9
$SOLIDHIST
280
0
  9
$SHOWHIST
280
1
  9
$DWFFRAME
280
2
  9
$DGNFRAME
280
2
  9
$REALWORLDSCALE
290
1
  9
$INTERFERECOLOR
 62
256
  9
$CSHADOW
280
0
  9
$SHADOWPLANELOCATION
 40
0.0
  0
ENDSEC
  0
SECTION
  2
CLASSES
  0
CLASS
  1
ACDBDICTIONARYWDFLT
  2
AcDbDictionaryWithDefault
  3
ObjectDBX Classes
 90
0
 91
0
280
0
281
0
  0
CLASS
  1
SUN
  2
AcDbSun
  3
SCENEOE
 90
1153
 91
0
280
0
281
0
  0
CLASS
  1
VISUALSTYLE
  2
AcDbVisualStyle
  3
ObjectDBX Classes
 90
4095
 91
0
280
0
281
0
  0
CLASS
  1
MATERIAL
  2
AcDbMaterial
  3
ObjectDBX Classes
 90
1153
 91
0
280
0
281
0
  0
CLASS
  1
SCALE
  2
AcDbScale
  3
ObjectDBX Classes
 90
1153
 91
0
280
0
281
0
  0
CLASS
  1
TABLESTYLE
  2
AcDbTableStyle
  3
ObjectDBX Classes
 90
4095
 91
0
280
0
281
0
  0
CLASS
  1
MLEADERSTYLE
  2
AcDbMLeaderStyle
  3
ACDB_MLEADERSTYLE_CLASS
 90
4095
 91
0
280
0
281
0
  0
CLASS
  1
DICTIONARYVAR
  2
AcDbDictionaryVar
  3
ObjectDBX Classes
 90
0
 91
0
280
0
281
0
  0
CLASS
  1
CELLSTYLEMAP
  2
AcDbCellStyleMap
  3
ObjectDBX Classes
 90
1152
 91
0
280
0
281
0
  0
CLASS
  1
MENTALRAYRENDERSETTINGS
  2
AcDbMentalRayRenderSettings
  3
SCENEOE
 90
1024
 91
0
280
0
281
0
  0
CLASS
  1
ACDBDETAILVIEWSTYLE
  2
AcDbDetailViewStyle
  3
ObjectDBX Classes
 90
1025
 91
0
280
0
281
0
  0
CLASS
  1
ACDBSECTIONVIEWSTYLE
  2
AcDbSectionViewStyle
  3
ObjectDBX Classes
 90
1025
 91
0
280
0
281
0
  0
CLASS
  1
RASTERVARIABLES
  2
AcDbRasterVariables
  3
ISM
 90
0
 91
0
280
0
281
0
  0
CLASS
  1
ACDBPLACEHOLDER
  2
AcDbPlaceHolder
  3
ObjectDBX Classes
 90
0
 91
0
280
0
281
0
  0
CLASS
  1
LAYOUT
  2
AcDbLayout
  3
ObjectDBX Classes
 90
0
 91
0
280
0
281
0
  0
ENDSEC
  0
SECTION
  2
TABLES
  0
TABLE
  2
VPORT
  5
8
330
0
100
AcDbSymbolTable
 70
1
  0
VPORT
  5
23
330
8
100
AcDbSymbolTableRecord
100
AcDbViewportTableRecord
  2
*Active
 70
0
 10
0.0
 20
0.0
 11
1.0
 21
1.0
 12
344.2
 22
148.5
 13
0.0
 23
0.0
 14
0.5
 24
0.5
 15
0.5
 25
0.5
 16
0.0
 26
0.0
 36
1.0
 17
0.0
 27
0.0
 37
0.0
 40
297.0
 41
1.34
 42
50.0
 43
0.0
 44
0.0
 50
0.0
 51
0.0
 71
0
 72
1000
 73
1
 74
3
 75
0
 76
0
 77
0
 78
0
281
0
 65
0
146
0.0
  0
ENDTAB
  0
TABLE
  2
LTYPE
  5
2
330
0
100
AcDbSymbolTable
 70
3
  0
LTYPE
  5
24
330
2
100
AcDbSymbolTableRecord
100
AcDbLinetypeTableRecord
  2
ByBlock
 70
0
  3

 72
65
 73
0
 40
0.0
  0
LTYPE
  5
25
330
2
100
AcDbSymbolTableRecord
100
AcDbLinetypeTableRecord
  2
ByLayer
 70
0
  3

 72
65
 73
0
 40
0.0
  0
LTYPE
  5
26
330
2
100
AcDbSymbolTableRecord
100
AcDbLinetypeTableRecord
  2
Continuous
 70
0
  3

 72
65
 73
0
 40
0.0
  0
ENDTAB
  0
TABLE
  2
LAYER
  5
1
330
0
100
AcDbSymbolTable
 70
2
  0
LAYER
  5
27
330
1
100
AcDbSymbolTableRecord
100
AcDbLayerTableRecord
  2
0
 70
0
 62
7
  6
Continuous
370
-3
390
13
347
21
  0
LAYER
  5
28
330
1
100
AcDbSymbolTableRecord
100
AcDbLayerTableRecord
  2
Defpoints
 70
0
 62
7
  6
Continuous
290
0
370
-3
390
13
347
21
  0
ENDTAB
  0
TABLE
  2
STYLE
  5
5
330
0
100
AcDbSymbolTable
 70
1
  0
STYLE
  5
29
330
5
100
AcDbSymbolTableRecord
100
AcDbTextStyleTableRecord
  2
Standard
 70
0
 40
0.0
 41
1.0
 50
0.0
 71
0
 42
2.5
  3
txt
  4

  0
ENDTAB
  0
TABLE
  2
VIEW
  5
7
330
0
100
AcDbSymbolTable
 70
0
  0
ENDTAB
  0
TABLE
  2
UCS
  5
6
330
0
100
AcDbSymbolTable
 70
0
  0
ENDTAB
  0
TABLE
  2
APPID
  5
3
330
0
100
AcDbSymbolTable
 70
3
  0
APPID
  5
2A
330
3
100
AcDbSymbolTableRecord
100
AcDbRegAppTableRecord
  2
ACAD
 70
0
  0
APPID
  5
84
330
3
100
AcDbSymbolTableRecord
100
AcDbRegAppTableRecord
  2
HATCHBACKGROUNDCOLOR
 70
0
  0
APPID
  5
85
330
3
100
AcDbSymbolTableRecord
100
AcDbRegAppTableRecord
  2
EZDXF
 70
0
  0
ENDTAB
  0
TABLE
  2
DIMSTYLE
  5
4
330
0
100
AcDbSymbolTable
 70
1
100
AcDbDimStyleTable
  0
DIMSTYLE
105
2B
330
4
100
AcDbSymbolTableRecord
100
AcDbDimStyleTableRecord
  2
Standard
 70
0
 40
1.0
 41
2.5
 42
0.625
 43
3.75
 44
1.25
 45
0.0
 46
0.0
 47
0.0
 48
0.0
 49
2.5
140
2.5
141
2.5
142
0.0
143
0.03937007874
144
1.0
145
0.0
146
1.0
147
0.625
148
0.0
 69
0
 70
0
 71
0
 72
0
 73
0
 74
0
 75
0
 76
0
 77
1
 78
8
 79
0
170
0
171
3
172
1
173
0
174
0
175
0
176
0
177
0
178
0
179
0
271
0
272
2
273
2
274
3
275
0
276
0
277
2
278
44
279
0
280
0
281
0
282
0
283
0
284
8
285
0
286
0
288
0
289
3
290
0
371
-2
372
-2
  0
ENDTAB
  0
TABLE
  2
BLOCK_RECORD
  5
9
330
0
100
AcDbSymbolTable
 70
2
  0
BLOCK_RECORD
  5
17
330
9
100
AcDbSymbolTableRecord
100
AcDbBlockTableRecord
  2
*Model_Space
340
1A
 70
0
280
1
281
0
  0
BLOCK_RECORD
  5
1B
330
9
100
AcDbSymbolTableRecord
100
AcDbBlockTableRecord
  2
*Paper_Space
340
1E
 70
0
280
1
281
0
  0
ENDTAB
  0
ENDSEC
  0
SECTION
  2
BLOCKS
  0
BLOCK
  5
18
330
17
100
AcDbEntity
  8
0
100
AcDbBlockBegin
  2
*Model_Space
 70
0
 10
0.0
 20
0.0
 30
0.0
  3
*Model_Space
  1

  0
ENDBLK
  5
19
330
17
100
AcDbEntity
  8
0
100
AcDbBlockEnd
  0
BLOCK
  5
1C
330
1B
100
AcDbEntity
  8
0
100
AcDbBlockBegin
  2
*Paper_Space
 70
0
 10
0.0
 20
0.0
 30
0.0
  3
*Paper_Space
  1

  0
ENDBLK
  5
1D
330
1B
100
AcDbEntity
  8
0
100
AcDbBlockEnd
  0
ENDSEC
  0
SECTION
  2
ENTITIES
  0
SPLINE
  5
2F
330
17
100
AcDbEntity
  8
0
100
AcDbSpline
 70
0
 71
8
 72
53
 73
44
 74
0
 40
0.0
 40
0.0
 40
0.0
 40
0.0
 40
0.0
 40
0.0
 40
0.0
 40
0.0
 40
0.0
 40
0.07765840289810617
 40
0.07765840289810617
 40
0.07765840289810617
 40
0.07765840289810617
 40
0.07765840289810617
 40
0.07765840289810617
 40
0.07765840289810617
 40
0.11905606599175353
 40
0.11905606599175353
 40
0.11905606599175353
 40
0.11905606599175353
 40
0.11905606599175353
 40
0.11905606599175353
 40
0.11905606599175353
 40
0.1555023615048384
 40
0.1555023615048384
 40
0.1555023615048384
 40
0.1555023615048384
 40
0.1555023615048384
 40
0.1555023615048384
 40
0.1555023615048384
 40
0.4431798046798614
 40
0.4431798046798614
 40
0.4431798046798614
 40
0.4431798046798614
 40
0.4431798046798614
 40
0.4431798046798614
 40
0.4431798046798614
 40
0.5886542725392973
 40
0.5886542725392973
 40
0.5886542725392973
 40
0.5886542725392973
 40
0.5886542725392973
 40
0.5886542725392973
 40
0.5886542725392973
 40
1.0
 40
1.0
 40
1.0
 40
1.0
 40
1.0
 40
1.0
 40
1.0
 40
1.0
 40
1.0
 10
26.511258644285707
 20
259.8746782844239
 30
1185.0
 10
26.1288224898189
 20
259.91565895451595
 30
1185.0
 10
25.745014344932834
 20
259.943713127722
 30
1185.0
 10
25.360356356234565
 20
259.95898016931676
 30
1185.0
 10
24.975341903322118
 20
259.9617058541709
 30
1185.0
 10
24.590434902586424
 20
259.952225677726
 30
1185.0
 10
24.206069052309644
 20
259.93094848765196
 30
1185.0
 10
23.822647019059982
 20
259.89834043618333
 30
1185.0
 10
23.236848077500298
 20
259.83175722558786
 30
1185.0
 10
23.03331212300086
 20
259.8055048755168
 30
1185.0
 10
22.829938701749093
 20
259.77621191685387
 30
1185.0
 10
22.62673481360961
 20
259.74393806352674
 30
1185.0
 10
22.423707458447094
 20
259.70874302946294
 30
1185.0
 10
22.220863636126275
 20
259.6706865285895
 30
1185.0
 10
22.018210346511914
 20
259.62982827483313
 30
1185.0
 10
21.637513553668736
 20
259.54784250250793
 30
1185.0
 10
21.459722728749774
 20
259.50738131750853
 30
1185.0
 10
21.282389910618555
 20
259.4649247007591
 30
1185.0
 10
21.105526491347913
 20
259.420535074224
 30
1185.0
 10
20.929147459176818
 20
259.3742570081951
 30
1185.0
 10
20.753271398510417
 20
259.32611722129167
 30
1185.0
 10
20.57792048992002
 20
259.27612458046036
 30
1185.0
 10
19.023391499516762
 20
258.8149729730949
 30
1185.0
 10
17.67690294138329
 20
258.28962773354743
 30
1185.0
 10
16.37681474823083
 20
257.6519030614096
 30
1185.0
 10
15.133554394483703
 20
256.90792642697784
 30
1185.0
 10
13.955175171143923
 20
256.065649265344
 30
1185.0
 10
12.847525231133439
 20
255.13457140915307
 30
1185.0
 10
11.814365207684691
 20
254.12556650241154
 30
1185.0
 10
10.373735312230355
 20
252.50692933537593
 30
1185.0
 10
9.909176476666703
 20
251.9461470927843
 30
1185.0
 10
9.464006197660355
 20
251.369526645322
 30
1185.0
 10
9.038185669076848
 20
250.77836105999808
 30
1185.0
 10
8.631553438173677
 20
250.17389428885332
 30
1185.0
 10
8.243848897158596
 20
249.5573045569445
 30
1185.0
 10
7.874732590555499
 20
248.92969006440867
 30
1185.0
 10
6.531510665661543
 20
246.4890764554466
 30
1185.0
 10
5.685836649261347
 20
244.60818443947596
 30
1185.0
 10
4.975393416505483
 20
242.66936578420166
 30
1185.0
 10
4.388341932030215
 20
240.68932361847692
 30
1185.0
 10
3.912803112111419
 20
238.6813986498173
 30
1185.0
 10
3.537589226105169
 20
236.6553434379187
 30
1185.0
 10
3.252628670038405
 20
234.6172215140055
 30
1185.0
 10
3.049361633818279
 20
232.56928038096487
 30
1185.0
  0
SPLINE
  5
30
330
17
100
AcDbEntity
  8
0
100
AcDbSpline
 70
0
 71
1
 72
4
 73
2
 74
0
 40
0.0
 40
0.0
 40
1.0
 40
1.0
 10
26.511258646757586
 20
259.8746783075094
 30
1185.0
 10
26.511258646757586
 20
258.09999939999005
 30
1185.0
  0
LINE
  5
31
330
17
100
AcDbEntity
  8
0
100
AcDbLine
 10
26.511258657112172
 20
258.1
 30
1185.0
 11
31.80905077221692
 21
258.1
 31
1185.0
  0
SPLINE
  5
32
330
17
100
AcDbEntity
  8
0
100
AcDbSpline
 70
0
 71
8
 72
39
 73
30
 74
0
 40
0.0
 40
0.0
 40
0.0
 40
0.0
 40
0.0
 40
0.0
 40
0.0
 40
0.0
 40
0.0
 40
0.16544435081181705
 40
0.16544435081181705
 40
0.16544435081181705
 40
0.16544435081181705
 40
0.16544435081181705
 40
0.16544435081181705
 40
0.16544435081181705
 40
0.473273358632623
 40
0.473273358632623
 40
0.473273358632623
 40
0.473273358632623
 40
0.473273358632623
 40
0.473273358632623
 40
0.473273358632623
 40
0.7183307033987251
 40
0.7183307033987251
 40
0.7183307033987251
 40
0.7183307033987251
 40
0.7183307033987251
 40
0.7183307033987251
 40
0.7183307033987251
 40
1.0
 40
1.0
 40
1.0
 40
1.0
 40
1.0
 40
1.0
 40
1.0
 40
1.0
 40
1.0
 10
46.160351505310516
 20
235.90000001554037
 30
1185.0
 10
45.9544436705367
 20
236.47616040307764
 30
1185.0
 10
45.74802303932699
 20
237.04273940493457
 30
1185.0
 10
45.54109854004146
 20
237.59981318625353
 30
1185.0
 10
45.333679101039884
 20
238.1474579121778
 30
1185.0
 10
45.12577365068157
 20
238.6857497478515
 30
1185.0
 10
44.91739111732551
 20
239.21476485841993
 30
1185.0
 10
44.70854042933028
 20
239.73457940902895
 30
1185.0
 10
44.109784378498006
 20
241.19546969672086
 30
1185.0
 10
43.70792305506179
 20
242.14049484884202
 30
1185.0
 10
43.2927001269289
 20
243.0798332803081
 30
1185.0
 10
42.86307196802691
 20
244.01279507874602
 30
1185.0
 10
42.41786799104247
 20
244.93849747044305
 30
1185.0
 10
41.955758870049905
 20
245.8558494915473
 30
1185.0
 10
41.475197010564656
 20
246.76352324204197
 30
1185.0
 10
40.57555091619225
 20
248.37348812492343
 30
1185.0
 10
40.16398436722469
 20
249.07978889281324
 30
1185.0
 10
39.73862963903963
 20
249.77805301507158
 30
1185.0
 10
39.298447934817325
 20
250.46727023128878
 30
1185.0
 10
38.84232642152162
 20
251.1461623006018
 30
1185.0
 10
38.36905400756331
 20
251.81316677630787
 30
1185.0
 10
37.8772823904139
 20
252.46641050795552
 30
1185.0
 10
36.77719713840154
 20
253.8361432308387
 30
1185.0
 10
36.1627852631602
 20
254.54708033623447
 30
1185.0
 10
35.51966609558744
 20
255.23350483690953
 30
1185.0
 10
34.8455263219206
 20
255.89096749448674
 30
1185.0
 10
34.13839296199771
 20
256.513651231557
 30
1185.0
 10
33.396804086193995
 20
257.09458228871574
 30
1185.0
 10
32.620064583784824
 20
257.62593841119445
 30
1185.0
 10
31.809050883752363
 20
258.10000019081235
 30
1185.0
  0
LINE
  5
33
330
17
100
AcDbEntity
  8
0
100
AcDbLine
 10
26.511258657112172
 20
235.9
 30
1185.0
 11
46.16035146182644
 21
235.9
 31
1185.0
  0
SPLINE
  5
34
330
17
100
AcDbEntity
  8
0
100
AcDbSpline
 70
0
 71
1
 72
4
 73
2
 74
0
 40
0.0
 40
0.0
 40
1.0
 40
1.0
 10
26.511258646757586
 20
235.9000006000011
 30
1185.0
 10
26.511258646757586
 20
232.09999939999986
 30
1185.0
  0
LINE
  5
35
330
17
100
AcDbEntity
  8
0
100
AcDbLine
 10
26.511258657112172
 20
232.1
 30
1185.0
 11
47.45028838070216
 21
232.1
 31
1185.0
  0
SPLINE
  5
36
330
17
100
AcDbEntity
  8
0
100
AcDbSpline
 70
0
 71
8
 72
32
 73
23
 74
0
 40
0.0
 40
0.0
 40
0.0
 40
0.0
 40
0.0
 40
0.0
 40
0.0
 40
0.0
 40
0.0
 40
0.4333606249106959
 40
0.4333606249106959
 40
0.4333606249106959
 40
0.4333606249106959
 40
0.4333606249106959
 40
0.4333606249106959
 40
0.4333606249106959
 40
0.9326184193428274
 40
0.9326184193428274
 40
0.9326184193428274
 40
0.9326184193428274
 40
0.9326184193428274
 40
0.9326184193428274
 40
0.9326184193428274
 40
1.0
 40
1.0
 40
1.0
 40
1.0
 40
1.0
 40
1.0
 40
1.0
 40
1.0
 40
1.0
 10
53.296794831569954
 20
209.9000000047415
 30
1185.0
 10
53.028813318569874
 20
211.11592295999836
 30
1185.0
 10
52.75616664143038
 20
212.33081359573694
 30
1185.0
 10
52.47864746787501
 20
213.54460242737463
 30
1185.0
 10
52.19602621602512
 20
214.7572121317394
 30
1185.0
 10
51.90804686420036
 20
215.9685566317658
 30
1185.0
 10
51.61442136871424
 20
217.17853987836628
 30
1185.0
 10
51.31482189609318
 20
218.38705415471185
 30
1185.0
 10
50.65639359632681
 20
220.98442677191417
 30
1185.0
 10
50.29549791375277
 20
222.37271638342972
 30
1185.0
 10
49.92560217533439
 20
223.75866254648923
 30
1185.0
 10
49.54604479238214
 20
225.14202529857863
 30
1185.0
 10
49.15605469532065
 20
226.52250045964763
 30
1185.0
 10
48.75472364031398
 20
227.89971179114332
 30
1185.0
 10
48.34094980477168
 20
229.2731950035053
 30
1185.0
 10
47.85560961118965
 20
230.8271531769085
 30
1185.0
 10
47.79784787772982
 20
231.01120775415893
 30
1185.0
 10
47.74003860927714
 20
231.19452652631662
 30
1185.0
 10
47.68218206693785
 20
231.3771071130767
 30
1185.0
 10
47.624278511818204
 20
231.55894713413437
 30
1185.0
 10
47.56632820502446
 20
231.74004420918476
 30
1185.0
 10
47.50833140766289
 20
231.92039595792306
 30
1185.0
 10
47.45028838083974
 20
232.10000000004447
 30
1185.0
  0
LINE
  5
37
330
17
100
AcDbEntity
  8
0
100
AcDbLine
 10
26.511258657112172
 20
209.9
 30
1185.0
 11
53.29679481005614
 21
209.9
 31
1185.0
  0
SPLINE
  5
38
330
17
100
AcDbEntity
  8
0
100
AcDbSpline
 70
0
 71
1
 72
4
 73
2
 74
0
 40
0.0
 40
0.0
 40
1.0
 40
1.0
 10
26.511258646757586
 20
209.90000060000008
 30
1185.0
 10
26.511258646757586
 20
206.09999939999994
 30
1185.0
  0
LINE
  5
39
330
17
100
AcDbEntity
  8
0
100
AcDbLine
 10
26.511258657112172
 20
206.1
 30
1185.0
 11
54.11413369497492
 21
206.1
 31
1185.0
  0
SPLINE
  5
3A
330
17
100
AcDbEntity
  8
0
100
AcDbSpline
 70
0
 71
8
 72
25
 73
16
 74
0
 40
0.0
 40
0.0
 40
0.0
 40
0.0
 40
0.0
 40
0.0
 40
0.0
 40
0.0
 40
0.0
 40
0.3189399485994975
 40
0.3189399485994975
 40
0.3189399485994975
 40
0.3189399485994975
 40
0.3189399485994975
 40
0.3189399485994975
 40
0.3189399485994975
 40
1.0
 40
1.0
 40
1.0
 40
1.0
 40
1.0
 40
1.0
 40
1.0
 40
1.0
 40
1.0
 10
58.232847804112694
 20
183.90000000006407
 30
1185.0
 10
58.08672235869125
 20
184.78831615504257
 30
1185.0
 10
57.939142582181105
 20
185.67639252850853
 30
1185.0
 10
57.790084327316464
 20
186.564222349812
 30
1185.0
 10
57.63952208331065
 20
187.4517985189304
 30
1185.0
 10
57.487428863275035
 20
188.33911358896586
 30
1185.0
 10
57.33377607622732
 20
189.22615974623523
 30
1185.0
 10
57.17853338140689
 20
190.11292878758877
 30
1185.0
 10
56.68670142532564
 20
192.8923965554198
 30
1185.0
 10
56.34434959559482
 20
194.7840077629093
 30
1185.0
 10
55.9942950482939
 20
196.6741929949316
 30
1185.0
 10
55.63617966845291
 20
198.56287385201233
 30
1185.0
 10
55.269601792921215
 20
200.44994561156307
 30
1185.0
 10
54.8941030971902
 20
202.33527431294726
 30
1185.0
 10
54.509155070713206
 20
204.21869376522568
 30
1185.0
 10
54.114133708140805
 20
206.10000000276455
 30
1185.0
  0
LINE
  5
3B
330
17
100
AcDbEntity
  8
0
100
AcDbLine
 10
26.511258657112172
 20
183.9
 30
1185.0
 11
58.232847803722734
 21
183.9
 31
1185.0
  0
SPLINE
  5
3C
330
17
100
AcDbEntity
  8
0
100
AcDbSpline
 70
0
 71
1
 72
4
 73
2
 74
0
 40
0.0
 40
0.0
 40
1.0
 40
1.0
 10
26.511258646757586
 20
183.90000060000014
 30
1185.0
 10
26.511258646757586
 20
180.0999993999999
 30
1185.0
  0
LINE
  5
3D
330
17
100
AcDbEntity
  8
0
100
AcDbLine
 10
26.511258657112172
 20
180.1
 30
1185.0
 11
58.846197704697595
 21
180.1
 31
1185.0
  0
SPLINE
  5
3E
330
17
100
AcDbEntity
  8
0
100
AcDbSpline
 70
0
 71
8
 72
25
 73
16
 74
0
 40
0.0
 40
0.0
 40
0.0
 40
0.0
 40
0.0
 40
0.0
 40
0.0
 40
0.0
 40
0.0
 40
0.019639286682133307
 40
0.019639286682133307
 40
0.019639286682133307
 40
0.019639286682133307
 40
0.019639286682133307
 40
0.019639286682133307
 40
0.019639286682133307
 40
1.0
 40
1.0
 40
1.0
 40
1.0
 40
1.0
 40
1.0
 40
1.0
 40
1.0
 40
1.0
 10
62.007524744424266
 20
157.89999999867766
 30
1185.0
 10
62.000557026266165
 20
157.95460851649267
 30
1185.0
 10
61.99358511605157
 20
158.00921649953867
 30
1185.0
 10
61.986609011786406
 20
158.06382394719674
 30
1185.0
 10
61.97962871146915
 20
158.11843085884675
 30
1185.0
 10
61.972644213090774
 20
158.17303723386732
 30
1185.0
 10
61.96565551463478
 20
158.22764307163584
 30
1185.0
 10
61.95866261407715
 20
158.2822483715284
 30
1185.0
 10
61.60238161446135
 20
161.06263252067038
 30
1185.0
 10
61.242624372825844
 20
163.78704999550183
 30
1185.0
 10
60.872139085770286
 20
166.51004000495828
 30
1185.0
 10
60.49062620625436
 20
169.23151988572138
 30
1185.0
 10
60.09773210382431
 20
171.95138837641144
 30
1185.0
 10
59.69304060853721
 20
174.66952429041734
 30
1185.0
 10
59.27605969768683
 20
177.38578445182736
 30
1185.0
 10
58.84619768912564
 20
180.09999999753373
 30
1185.0
  0
LINE
  5
3F
330
17
100
AcDbEntity
  8
0
100
AcDbLine
 10
26.511258657112172
 20
157.9
 30
1185.0
 11
62.00752475478842
 21
157.9
 31
1185.0
  0
SPLINE
  5
40
330
17
100
AcDbEntity
  8
0
100
AcDbSpline
 70
0
 71
1
 72
4
 73
2
 74
0
 40
0.0
 40
0.0
 40
1.0
 40
1.0
 10
26.511258646757586
 20
157.90000060000042
 30
1185.0
 10
26.511258646757586
 20
154.09999939999918
 30
1185.0
  0
LINE
  5
41
330
17
100
AcDbEntity
  8
0
100
AcDbLine
 10
26.511258657112172
 20
154.1
 30
1185.0
 11
62.48343514072227
 21
154.1
 31
1185.0
  0
SPLINE
  5
42
330
17
100
AcDbEntity
  8
0
100
AcDbSpline
 70
0
 71
8
 72
25
 73
16
 74
0
 40
0.0
 40
0.0
 40
0.0
 40
0.0
 40
0.0
 40
0.0
 40
0.0
 40
0.0
 40
0.0
 40
0.15537211728962022
 40
0.15537211728962022
 40
0.15537211728962022
 40
0.15537211728962022
 40
0.15537211728962022
 40
0.15537211728962022
 40
0.15537211728962022
 40
1.0
 40
1.0
 40
1.0
 40
1.0
 40
1.0
 40
1.0
 40
1.0
 40
1.0
 40
1.0
 10
64.92239289945972
 20
131.90000002966866
 30
1185.0
 10
64.88035302204695
 20
132.33260820015948
 30
1185.0
 10
64.83808690432944
 20
132.76507586855126
 30
1185.0
 10
64.7955950230658
 20
133.19739753352354
 30
1185.0
 10
64.7528780065564
 20
133.62956707149317
 30
1185.0
 10
64.7099366346434
 20
134.06157773661437
 30
1185.0
 10
64.66677183871076
 20
134.49342216077883
 30
1185.0
 10
64.62338470168423
 20
134.92509235361564
 30
1185.0
 10
64.34271501388169
 20
137.70221450656436
 30
1185.0
 10
64.09863322618055
 20
140.0471381771828
 30
1185.0
 10
63.84749424575725
 20
142.39132363252054
 30
1185.0
 10
63.58924453738287
 20
144.73474058874328
 30
1185.0
 10
63.3238133488954
 20
147.07735549794103
 30
1185.0
 10
63.051111507617485
 20
149.4191314075088
 30
1185.0
 10
62.77102954406705
 20
151.7600277409746
 30
1185.0
 10
62.48343514296061
 20
154.10000000027512
 30
1185.0
  0
LINE
  5
43
330
17
100
AcDbEntity
  8
0
100
AcDbLine
 10
26.511258657112172
 20
131.9
 30
1185.0
 11
64.92239259415629
 21
131.9
 31
1185.0
  0
SPLINE
  5
44
330
17
100
AcDbEntity
  8
0
100
AcDbSpline
 70
0
 71
1
 72
4
 73
2
 74
0
 40
0.0
 40
0.0
 40
1.0
 40
1.0
 10
26.511258646757586
 20
131.90000060000256
 30
1185.0
 10
26.511258646757586
 20
128.09999939999764
 30
1185.0
  0
LINE
  5
45
330
17
100
AcDbEntity
  8
0
100
AcDbLine
 10
26.511258657112172
 20
128.1
 30
1185.0
 11
65.2836025066413
 21
128.1
 31
1185.0
  0
SPLINE
  5
46
330
17
100
AcDbEntity
  8
0
100
AcDbSpline
 70
0
 71
8
 72
25
 73
16
 74
0
 40
0.0
 40
0.0
 40
0.0
 40
0.0
 40
0.0
 40
0.0
 40
0.0
 40
0.0
 40
0.0
 40
0.5917787677524089
 40
0.5917787677524089
 40
0.5917787677524089
 40
0.5917787677524089
 40
0.5917787677524089
 40
0.5917787677524089
 40
0.5917787677524089
 40
1.0
 40
1.0
 40
1.0
 40
1.0
 40
1.0
 40
1.0
 40
1.0
 40
1.0
 40
1.0
 10
67.08791255187523
 20
105.89999999949869
 30
1185.0
 10
66.97249818455822
 20
107.5449470993053
 30
1185.0
 10
66.8541525913625
 20
109.18968839085476
 30
1185.0
 10
66.7328345225401
 20
110.83421484503256
 30
1185.0
 10
66.6085022880281
 20
112.4785171107261
 30
1185.0
 10
66.48111374614302
 20
114.12258551408776
 30
1185.0
 10
66.35062629227511
 20
115.76641005779817
 30
1185.0
 10
66.21699684758268
 20
117.40998042032948
 30
1185.0
 10
65.98580403136195
 20
120.18687209746797
 30
1185.0
 10
65.88996355704455
 20
121.31969323451172
 30
1185.0000000000005
 10
65.79264966791433
 20
122.4517394565752
 30
1185.0000000000007
 10
65.69385160715146
 20
123.58300085389406
 30
1185.000000000001
 10
65.59355861793604
 20
124.71346751670411
 30
1185.0000000000011
 10
65.49175994344819
 20
125.84312953524118
 30
1185.0000000000014
 10
65.38844482686805
 20
126.97197699974116
 30
1185.0000000000016
 10
65.28360251137576
 20
128.10000000044005
 30
1185.0000000000016
  0
LINE
  5
47
330
17
100
AcDbEntity
  8
0
100
AcDbLine
 10
26.511258657112172
 20
105.9
 30
1185.0
 11
67.08791255902011
 21
105.9
 31
1185.0
  0
SPLINE
  5
48
330
17
100
AcDbEntity
  8
0
100
AcDbSpline
 70
0
 71
1
 72
4
 73
2
 74
0
 40
0.0
 40
0.0
 40
1.0
 40
1.0
 10
26.511258646757586
 20
105.90000060000206
 30
1185.0
 10
26.511258646757586
 20
102.09999939999993
 30
1185.0
  0
LINE
  5
49
330
17
100
AcDbEntity
  8
0
100
AcDbLine
 10
26.511258657112172
 20
102.1
 30
1185.0
 11
67.34771235814038
 21
102.1
 31
1185.0
  0
SPLINE
  5
4A
330
17
100
AcDbEntity
  8
0
100
AcDbSpline
 70
0
 71
8
 72
18
 73
9
 74
0
 40
0.0
 40
0.0
 40
0.0
 40
0.0
 40
0.0
 40
0.0
 40
0.0
 40
0.0
 40
0.0
 40
1.0
 40
1.0
 40
1.0
 40
1.0
 40
1.0
 40
1.0
 40
1.0
 40
1.0
 40
1.0
 10
68.60823270203218
 20
79.89999999908531
 30
1185.0
 10
68.4764736084787
 20
82.67638856849388
 30
1185.0
 10
68.3377064613723
 20
85.45244311640629
 30
1185.0
 10
68.19175241882084
 20
88.22813548692284
 30
1185.0
 10
68.03842980528361
 20
91.0034349718296
 30
1185.0
 10
67.87755395773915
 20
93.77830830057323
 30
1185.0
 10
67.70893707185294
 20
96.55271963023559
 30
1185.0
 10
67.53238804814501
 20
99.32663053550868
 30
1185.0
 10
67.34771233815773
 20
102.09999999866935
 30
1185.0
  0
LINE
  5
4B
330
17
100
AcDbEntity
  8
0
100
AcDbLine
 10
26.511258657112172
 20
79.9
 30
1185.0
 11
68.60823272130679
 21
79.9
 31
1185.0
  0
SPLINE
  5
4C
330
17
100
AcDbEntity
  8
0
100
AcDbSpline
 70
0
 71
1
 72
4
 73
2
 74
0
 40
0.0
 40
0.0
 40
1.0
 40
1.0
 10
26.511258646757586
 20
79.90000060000001
 30
1185.0
 10
26.511258646757586
 20
76.09999939999999
 30
1185.0
  0
LINE
  5
4D
330
17
100
AcDbEntity
  8
0
100
AcDbLine
 10
26.511258657112172
 20
76.1
 30
1185.0
 11
68.78286388743524
 21
76.1
 31
1185.0
  0
SPLINE
  5
4E
330
17
100
AcDbEntity
  8
0
100
AcDbSpline
 70
0
 71
8
 72
18
 73
9
 74
0
 40
0.0
 40
0.0
 40
0.0
 40
0.0
 40
0.0
 40
0.0
 40
0.0
 40
0.0
 40
0.0
 40
1.0
 40
1.0
 40
1.0
 40
1.0
 40
1.0
 40
1.0
 40
1.0
 40
1.0
 40
1.0
 10
69.58863219511935
 20
53.89999999960767
 30
1185.0
 10
69.50936251896259
 20
56.67572665152231
 30
1185.0
 10
69.42429658390674
 20
59.451286758939105
 30
1185.0
 10
69.33327094930951
 20
62.22666142101713
 30
1185.0
 10
69.23611996202202
 20
65.00183043182793
 30
1185.0
 10
69.13267561383968
 20
67.77677227746284
 30
1185.0
 10
69.02276739543242
 20
70.55146413303163
 30
1185.0
 10
68.90622214675437
 20
73.32588185955254
 30
1185.0
 10
68.78286390393303
 20
76.10000000073362
 30
1185.0
  0
LINE
  5
4F
330
17
100
AcDbEntity
  8
0
100
AcDbLine
 10
26.511258657112172
 20
53.9
 30
1185.0
 11
69.5886322088564
 21
53.9
 31
1185.0
  0
SPLINE
  5
50
330
17
100
AcDbEntity
  8
0
100
AcDbSpline
 70
0
 71
1
 72
4
 73
2
 74
0
 40
0.0
 40
0.0
 40
1.0
 40
1.0
 10
26.511258646757586
 20
53.90000060000026
 30
1185.0
 10
26.511258646757586
 20
50.09999939999937
 30
1185.0
  0
LINE
  5
51
330
17
100
AcDbEntity
  8
0
100
AcDbLine
 10
26.511258657112172
 20
50.1
 30
1185.0
 11
69.69244288617656
 21
50.1
 31
1185.0
  0
SPLINE
  5
52
330
17
100
AcDbEntity
  8
0
100
AcDbSpline
 70
0
 71
8
 72
18
 73
9
 74
0
 40
0.0
 40
0.0
 40
0.0
 40
0.0
 40
0.0
 40
0.0
 40
0.0
 40
0.0
 40
0.0
 40
1.0
 40
1.0
 40
1.0
 40
1.0
 40
1.0
 40
1.0
 40
1.0
 40
1.0
 40
1.0
 10
70.12300430550044
 20
27.900000000245274
 30
1185.0
 10
70.08666087513393
 20
30.675301928256204
 30
1185.0
 10
70.04563261899892
 20
33.45054338851095
 30
1185.0
 10
69.99976736673199
 20
36.22571309733607
 30
1185.0
 10
69.9489113770017
 20
39.00079848107569
 30
1185.0
 10
69.8929092076323
 20
41.775785673586455
 30
1185.0
 10
69.83160358221664
 20
44.550659513624
 30
1185.0
 10
69.76483525321878
 20
47.32540354212117
 30
1185.0
 10
69.69244286156587
 20
50.09999999935786
 30
1185.0
  0
LINE
  5
53
330
17
100
AcDbEntity
  8
0
100
AcDbLine
 10
26.511258657112172
 20
27.9
 30
1185.0
 11
70.12300428676753
 21
27.9
 31
1185.0
  0
SPLINE
  5
54
330
17
100
AcDbEntity
  8
0
100
AcDbSpline
 70
0
 71
1
 72
4
 73
2
 74
0
 40
0.0
 40
0.0
 40
1.0
 40
1.0
 10
26.511258646757586
 20
27.900000600000002
 30
1185.0
 10
26.511258646757586
 20
24.099999399999998
 30
1185.0
  0
LINE
  5
55
330
17
100
AcDbEntity
  8
0
100
AcDbLine
 10
26.511258657112172
 20
24.1
 30
1185.0
 11
70.16896603299011
 21
24.1
 31
1185.0
  0
SPLINE
  5
56
330
17
100
AcDbEntity
  8
0
100
AcDbSpline
 70
0
 71
8
 72
18
 73
9
 74
0
 40
0.0
 40
0.0
 40
0.0
 40
0.0
 40
0.0
 40
0.0
 40
0.0
 40
0.0
 40
0.0
 40
1.0
 40
1.0
 40
1.0
 40
1.0
 40
1.0
 40
1.0
 40
1.0
 40
1.0
 40
1.0
 10
70.29708867131454
 20
1.8999999999849004
 30
1185.0
 10
70.2948445633316
 20
4.67506427937532
 30
1185.0
 10
70.28895778019805
 20
7.450120916476966
 30
1185.0
 10
70.27928370007507
 20
10.225166149661622
 30
1185.0
 10
70.26567671029059
 20
13.000194939046953
 30
1185.0
 10
70.24799008989676
 20
15.775200964373866
 30
1185.0
 10
70.22607588872069
 20
18.550176622775595
 30
1185.0
 10
70.1997848029082
 20
21.325113026438594
 30
1185.0
 10
70.16896604696075
 20
24.10000000015514
 30
1185.0
  0
LINE
  5
57
330
17
100
AcDbEntity
  8
0
100
AcDbLine
 10
26.511258657112172
 20
1.9
 30
1185.0
 11
70.29708868999136
 21
1.9
 31
1185.0
  0
SPLINE
  5
58
330
17
100
AcDbEntity
  8
0
100
AcDbSpline
 70
0
 71
1
 72
4
 73
2
 74
0
 40
0.0
 40
0.0
 40
0.9999993684216398
 40
0.9999993684216398
 10
26.511258646757586
 20
1.9000006000000558
 30
1185.0
 10
26.511258646757586
 20
-6.553790374438061e-17
 30
1185.0
  0
SPLINE
  5
59
330
17
100
AcDbEntity
  8
0
100
AcDbSpline
 70
0
 71
1
 72
4
 73
2
 74
0
 40
0.0
 40
0.0
 40
1.0
 40
1.0
 10
26.511258646757586
 20
-1.9000006000000011
 30
1185.0
 10
26.511258646757586
 20
1.2000000211287443e-06
 30
1185.0
  0
LINE
  5
5A
330
17
100
AcDbEntity
  8
0
100
AcDbLine
 10
26.51125865711218
 20
-1.9
 30
1185.0
 11
70.29720376096206
 21
-1.9
 31
1185.0
  0
SPLINE
  5
5B
330
17
100
AcDbEntity
  8
0
100
AcDbSpline
 70
0
 71
8
 72
18
 73
9
 74
0
 40
0.0
 40
0.0
 40
0.0
 40
0.0
 40
0.0
 40
0.0
 40
0.0
 40
0.0
 40
0.0
 40
1.0
 40
1.0
 40
1.0
 40
1.0
 40
1.0
 40
1.0
 40
1.0
 40
1.0
 40
1.0
 10
70.17035345672154
 20
-24.099999999907798
 30
1185.0
 10
70.20102892460956
 20
-21.32513908244443
 30
1185.0
 10
70.22717021489626
 20
-18.55022710039128
 30
1185.0
 10
70.24892914245068
 20
-15.775271899149356
 30
1185.0
 10
70.2664560195275
 20
-13.000279575005752
 30
1185.0
 10
70.27989978177503
 20
-10.225254479485836
 30
1185.0
 10
70.28940811435803
 20
-7.45019922369201
 30
1185.0
 10
70.29512757960717
 20
-4.675114682688277
 30
1185.0
 10
70.29720374760694
 20
-1.8999999999900155
 30
1185.0
  0
LINE
  5
5C
330
17
100
AcDbEntity
  8
0
100
AcDbLine
 10
26.51125865711218
 20
-24.1
 30
1185.0
 11
70.1703534650623
 21
-24.1
 31
1185.0
  0
SPLINE
  5
5D
330
17
100
AcDbEntity
  8
0
100
AcDbSpline
 70
0
 71
1
 72
4
 73
2
 74
0
 40
0.0
 40
0.0
 40
1.0
 40
1.0
 10
26.511258646757586
 20
-27.900000600000034
 30
1185.0
 10
26.511258646757586
 20
-24.099999399999938
 30
1185.0
  0
LINE
  5
5E
330
17
100
AcDbEntity
  8
0
100
AcDbLine
 10
26.51125865711218
 20
-27.9
 30
1185.0
 11
70.12458180546516
 21
-27.9
 31
1185.0
  0
SPLINE
  5
5F
330
17
100
AcDbEntity
  8
0
100
AcDbSpline
 70
0
 71
8
 72
18
 73
9
 74
0
 40
0.0
 40
0.0
 40
0.0
 40
0.0
 40
0.0
 40
0.0
 40
0.0
 40
0.0
 40
0.0
 40
1.0
 40
1.0
 40
1.0
 40
1.0
 40
1.0
 40
1.0
 40
1.0
 40
1.0
 40
1.0
 10
69.69482392765406
 20
-50.0999999998539
 30
1185.0
 10
69.76715762608245
 20
-47.32538672758214
 30
1185.0
 10
69.83385316092189
 20
-44.55063106101217
 30
1185.0
 10
69.8950729750057
 20
-41.77575115998452
 30
1185.0
 10
69.95097740851503
 20
-39.000763413075425
 30
1185.0
 10
70.0017248305127
 20
-36.22568244224484
 30
1185.0
 10
70.04747176728085
 20
-33.45052110733184
 30
1185.0
 10
70.0883730288758
 20
-30.675290510456755
 30
1185.0
 10
70.12458183531405
 20
-27.90000000038943
 30
1185.0
  0
LINE
  5
60
330
17
100
AcDbEntity
  8
0
100
AcDbLine
 10
26.51125865711218
 20
-50.1
 30
1185.0
 11
69.69482393325838
 21
-50.1
 31
1185.0
  0
SPLINE
  5
61
330
17
100
AcDbEntity
  8
0
100
AcDbSpline
 70
0
 71
1
 72
4
 73
2
 74
0
 40
0.0
 40
0.0
 40
1.0
 40
1.0
 10
26.511258646757586
 20
-53.9000006
 30
1185.0
 10
26.511258646757586
 20
-50.0999994
 30
1185.0
  0
LINE
  5
62
330
17
100
AcDbEntity
  8
0
100
AcDbLine
 10
26.51125865711218
 20
-53.9
 30
1185.0
 11
69.59108253807534
 21
-53.9
 31
1185.0
  0
SPLINE
  5
63
330
17
100
AcDbEntity
  8
0
100
AcDbSpline
 70
0
 71
8
 72
18
 73
9
 74
0
 40
0.0
 40
0.0
 40
0.0
 40
0.0
 40
0.0
 40
0.0
 40
0.0
 40
0.0
 40
0.0
 40
1.0
 40
1.0
 40
1.0
 40
1.0
 40
1.0
 40
1.0
 40
1.0
 40
1.0
 40
1.0
 10
68.78516922674876
 20
-76.09999999969966
 30
1185.0
 10
68.90861279716562
 20
-73.32588959289674
 30
1185.0
 10
69.02522224669035
 20
-70.55147221467755
 30
1185.0
 10
69.1351744529685
 20
-67.77677650824627
 30
1185.0
 10
69.23864353399257
 20
-65.00182931878072
 30
1185.0
 10
69.3358009970384
 20
-62.22665569887432
 30
1185.0
 10
69.42681588107438
 20
-59.45127891368545
 30
1185.0
 10
69.51185489406186
 20
-56.675720445853656
 30
1185.0
 10
69.59108254656499
 20
-53.90000000024234
 30
1185.0
  0
LINE
  5
64
330
17
100
AcDbEntity
  8
0
100
AcDbLine
 10
26.51125865711218
 20
-76.1
 30
1185.0
 11
68.78516923349886
 21
-76.1
 31
1185.0
  0
SPLINE
  5
65
330
17
100
AcDbEntity
  8
0
100
AcDbSpline
 70
0
 71
1
 72
4
 73
2
 74
0
 40
0.0
 40
0.0
 40
1.0
 40
1.0
 10
26.511258646757586
 20
-79.90000060000018
 30
1185.0
 10
26.511258646757586
 20
-76.09999939999999
 30
1185.0
  0
LINE
  5
66
330
17
100
AcDbEntity
  8
0
100
AcDbLine
 10
26.51125865711218
 20
-79.9
 30
1185.0
 11
68.61040273618153
 21
-79.9
 31
1185.0
  0
SPLINE
  5
67
330
17
100
AcDbEntity
  8
0
100
AcDbSpline
 70
0
 71
8
 72
18
 73
9
 74
0
 40
0.0
 40
0.0
 40
0.0
 40
0.0
 40
0.0
 40
0.0
 40
0.0
 40
0.0
 40
0.0
 40
1.0
 40
1.0
 40
1.0
 40
1.0
 40
1.0
 40
1.0
 40
1.0
 40
1.0
 40
1.0
 10
67.34828586895544
 20
-102.09999999709326
 30
1185.0
 10
67.53325497373342
 20
-99.3266539070635
 30
1185.0
 10
67.71006828339934
 20
-96.55276109044048
 30
1185.0
 10
67.87892158263502
 20
-93.77836092292878
 30
1185.0
 10
68.04000712152686
 20
-91.00349094680865
 30
1185.0
 10
68.19351379416385
 20
-88.22818687768572
 30
1185.0
 10
68.33962730732623
 20
-85.45248261080567
 30
1185.0
 10
68.47853034069256
 20
-82.6764102269941
 30
1185.0
 10
68.61040269999324
 20
-79.89999999828119
 30
1185.0
  0
LINE
  5
68
330
17
100
AcDbEntity
  8
0
100
AcDbLine
 10
26.51125865711218
 20
-102.1
 30
1185.0
 11
67.34828591253776
 21
-102.1
 31
1185.0
  0
SPLINE
  5
69
330
17
100
AcDbEntity
  8
0
100
AcDbSpline
 70
0
 71
1
 72
4
 73
2
 74
0
 40
0.0
 40
0.0
 40
1.0
 40
1.0
 10
26.511258646757586
 20
-105.90000060000003
 30
1185.0
 10
26.511258646757586
 20
-102.09999939999999
 30
1185.0
  0
LINE
  5
6A
330
17
100
AcDbEntity
  8
0
100
AcDbLine
 10
26.51125865711218
 20
-105.9
 30
1185.0
 11
67.08805726323563
 21
-105.9
 31
1185.0
  0
SPLINE
  5
6B
330
17
100
AcDbEntity
  8
0
100
AcDbSpline
 70
0
 71
8
 72
25
 73
16
 74
0
 40
0.0
 40
0.0
 40
0.0
 40
0.0
 40
0.0
 40
0.0
 40
0.0
 40
0.0
 40
0.0
 40
0.03948423892803609
 40
0.03948423892803609
 40
0.03948423892803609
 40
0.03948423892803609
 40
0.03948423892803609
 40
0.03948423892803609
 40
0.03948423892803609
 40
1.0
 40
1.0
 40
1.0
 40
1.0
 40
1.0
 40
1.0
 40
1.0
 40
1.0
 40
1.0
 10
65.28015843323193
 20
-128.09999997974194
 30
1185.0
 10
65.2903509709923
 20
-127.990580529797
 30
1185.0
 10
65.30052905901786
 20
-127.8811534485881
 30
1185.0
 10
65.3106927068338
 20
-127.77171874579646
 30
1185.0
 10
65.32084192475318
 20
-127.66227642752176
 30
1185.0
 10
65.330976723877
 20
-127.55282649628208
 30
1185.0
 10
65.34109711609419
 20
-127.443368951014
 30
1185.0
 10
65.35120311408161
 20
-127.33390378707243
 30
1185.0
 10
65.60678907689704
 20
-124.56133443247222
 30
1185.0
 10
65.84343258998548
 20
-121.89745094774307
 30
1185.0
 10
66.07141968090531
 20
-119.2328249521355
 30
1185.0
 10
66.29094096436208
 20
-116.5674992551157
 30
1185.0
 10
66.5021834390165
 20
-113.90151507249962
 30
1185.0
 10
66.7053306566404
 20
-111.2349120329758
 30
1185.0
 10
66.90056288193298
 20
-108.56772818422097
 30
1185.0
 10
67.08805724408742
 20
-105.89999999865422
 30
1185.0
  0
LINE
  5
6C
330
17
100
AcDbEntity
  8
0
100
AcDbLine
 10
26.51125865711218
 20
-128.1
 30
1185.0
 11
65.28015865070759
 21
-128.1
 31
1185.0
  0
SPLINE
  5
6D
330
17
100
AcDbEntity
  8
0
100
AcDbSpline
 70
0
 71
1
 72
4
 73
2
 74
0
 40
0.0
 40
0.0
 40
1.0
 40
1.0
 10
26.511258646757586
 20
-131.9000006
 30
1185.0
 10
26.511258646757586
 20
-128.09999939999992
 30
1185.0
  0
LINE
  5
6E
330
17
100
AcDbEntity
  8
0
100
AcDbLine
 10
26.51125865711218
 20
-131.9
 30
1185.0
 11
64.9181297497409
 21
-131.9
 31
1185.0
  0
SPLINE
  5
6F
330
17
100
AcDbEntity
  8
0
100
AcDbSpline
 70
0
 71
8
 72
32
 73
23
 74
0
 40
0.0
 40
0.0
 40
0.0
 40
0.0
 40
0.0
 40
0.0
 40
0.0
 40
0.0
 40
0.0
 40
0.4821383671349776
 40
0.4821383671349776
 40
0.4821383671349776
 40
0.4821383671349776
 40
0.4821383671349776
 40
0.4821383671349776
 40
0.4821383671349776
 40
0.8453663092114
 40
0.8453663092114
 40
0.8453663092114
 40
0.8453663092114
 40
0.8453663092114
 40
0.8453663092114
 40
0.8453663092114
 40
1.0
 40
1.0
 40
1.0
 40
1.0
 40
1.0
 40
1.0
 40
1.0
 40
1.0
 40
1.0
 10
62.47325469532326
 20
-154.09999999496682
 30
1185.0
 10
62.637393789876974
 20
-152.76779401426245
 30
1185.0
 10
62.79909239067009
 20
-151.4352873971834
 30
1185.0
 10
62.95837464326662
 20
-150.10248841470937
 30
1185.0
 10
63.11526231377046
 20
-148.76940475991626
 30
1185.0
 10
63.26977494155568
 20
-147.43604356844295
 30
1185.0
 10
63.42192996191729
 20
-146.10241143502236
 30
1185.0
 10
63.57174281010415
 20
-144.76851442763024
 30
1185.0
 10
63.83033700040318
 20
-142.42924651866676
 30
1185.0
 10
63.94027059251046
 20
-141.42267365673396
 30
1185.0
 10
64.04901889688611
 20
-140.41471928192252
 30
1185.0
 10
64.15657301589859
 20
-139.4054631611479
 30
1185.0
 10
64.2629240519164
 20
-138.39498506132537
 30
1185.0
 10
64.36806310730805
 20
-137.38336474937006
 30
1185.0
 10
64.47198128444205
 20
-136.37068199219684
 30
1185.0
 10
64.61838627421508
 20
-134.92547809462846
 30
1185.0
 10
64.66188127242441
 20
-134.49375394212802
 30
1185.0
 10
64.70515323567687
 20
-134.06185396343525
 30
1185.0
 10
64.74820091370022
 20
-133.62978713927083
 30
1185.0
 10
64.791023250588
 20
-133.1975615668603
 30
1185.0
 10
64.83361938479956
 20
-132.76518445993386
 30
1185.0
 10
64.87598864916006
 20
-132.3326621487266
 30
1185.0
 10
64.91813057086048
 20
-131.90000007997827
 30
1185.0
  0
LINE
  5
70
330
17
100
AcDbEntity
  8
0
100
AcDbLine
 10
26.51125865711218
 20
-154.1
 30
1185.0
 11
62.4732547361736
 21
-154.1
 31
1185.0
  0
SPLINE
  5
71
330
17
100
AcDbEntity
  8
0
100
AcDbSpline
 70
0
 71
1
 72
4
 73
2
 74
0
 40
0.0
 40
0.0
 40
1.0
 40
1.0
 10
26.511258646757586
 20
-157.90000060000003
 30
1185.0
 10
26.511258646757586
 20
-154.0999994
 30
1185.0
  0
LINE
  5
72
330
17
100
AcDbEntity
  8
0
100
AcDbLine
 10
26.51125865711218
 20
-157.9
 30
1185.0
 11
61.99617154062607
 21
-157.9
 31
1185.0
  0
SPLINE
  5
73
330
17
100
AcDbEntity
  8
0
100
AcDbSpline
 70
0
 71
8
 72
25
 73
16
 74
0
 40
0.0
 40
0.0
 40
0.0
 40
0.0
 40
0.0
 40
0.0
 40
0.0
 40
0.0
 40
0.0
 40
0.24557681849869845
 40
0.24557681849869845
 40
0.24557681849869845
 40
0.24557681849869845
 40
0.24557681849869845
 40
0.24557681849869845
 40
0.24557681849869845
 40
1.0
 40
1.0
 40
1.0
 40
1.0
 40
1.0
 40
1.0
 40
1.0
 40
1.0
 40
1.0
 10
58.82738726523577
 20
-180.10000000564355
 30
1185.0
 10
58.93530390755618
 20
-179.42010771157354
 30
1185.0
 10
59.04241196349003
 20
-178.7400868615301
 30
1185.0
 10
59.14872071211537
 20
-178.05993993794738
 30
1185.0
 10
59.25423904758537
 20
-177.37966927213506
 30
1185.0
 10
59.35897550238839
 20
-176.69927704845904
 30
1185.0
 10
59.462938268979364
 20
-176.0187653082504
 30
1185.0
 10
59.56613522092331
 20
-175.33813595365
 30
1185.0
 10
59.983270333246516
 20
-172.56611045785752
 30
1185.0
 10
60.29080798029827
 20
-170.47375551562416
 30
1185.0
 10
60.59140513127086
 20
-168.3803846319614
 30
1185.0
 10
60.88525191517045
 20
-166.28605115855908
 30
1185.0
 10
61.17251475656077
 20
-164.19080368087515
 30
1185.0
 10
61.45333965989523
 20
-162.09468645523737
 30
1185.0
 10
61.7278546324395
 20
-159.9977397313458
 30
1185.0
 10
61.99617152201874
 20
-157.8999999976199
 30
1185.0
  0
LINE
  5
74
330
17
100
AcDbEntity
  8
0
100
AcDbLine
 10
26.51125865711218
 20
-180.1
 30
1185.0
 11
58.82738722968024
 21
-180.1
 31
1185.0
  0
SPLINE
  5
75
330
17
100
AcDbEntity
  8
0
100
AcDbSpline
 70
0
 71
1
 72
4
 73
2
 74
0
 40
0.0
 40
0.0
 40
1.0
 40
1.0
 10
26.511258646757586
 20
-183.9000006000001
 30
1185.0
 10
26.511258646757586
 20
-180.09999939999994
 30
1185.0
  0
LINE
  5
76
330
17
100
AcDbEntity
  8
0
100
AcDbLine
 10
26.51125865711218
 20
-183.9
 30
1185.0
 11
58.21269570998527
 21
-183.9
 31
1185.0
  0
SPLINE
  5
77
330
17
100
AcDbEntity
  8
0
100
AcDbSpline
 70
0
 71
8
 72
25
 73
16
 74
0
 40
0.0
 40
0.0
 40
0.0
 40
0.0
 40
0.0
 40
0.0
 40
0.0
 40
0.0
 40
0.0
 40
0.1836531827402146
 40
0.1836531827402146
 40
0.1836531827402146
 40
0.1836531827402146
 40
0.1836531827402146
 40
0.1836531827402146
 40
0.1836531827402146
 40
1.0
 40
1.0
 40
1.0
 40
1.0
 40
1.0
 40
1.0
 40
1.0
 40
1.0
 40
1.0
 10
54.086232242182724
 20
-206.0999999989301
 30
1185.0
 10
54.19292088300965
 20
-205.59269288684186
 30
1185.0
 10
54.29887799666066
 20
-205.08523182597264
 30
1185.0
 10
54.40411581859405
 20
-204.5776206171899
 30
1185.0
 10
54.50864608629116
 20
-204.0698628367636
 30
1185.0
 10
54.61248007286741
 20
-203.56196184382657
 30
1185.0
 10
54.71562861352977
 20
-203.05392078620002
 30
1185.0
 10
54.818102124880454
 20
-202.54574260458483
 30
1185.0
 10
55.37245403246787
 20
-199.77795735914415
 30
1185.0
 10
55.81185177308575
 20
-197.5158635831309
 30
1185.0
 10
56.238984636031546
 20
-195.2513993461894
 30
1185.0
 10
56.65457978107112
 20
-192.98477756847007
 30
1185.0
 10
57.05925236352839
 20
-190.71618087421314
 30
1185.0
 10
57.45353188883168
 20
-188.44576627218368
 30
1185.0
 10
57.83787866059279
 20
-186.17366806981457
 30
1185.0
 10
58.21269569410779
 20
-183.89999999738248
 30
1185.0
  0
LINE
  5
78
330
17
100
AcDbEntity
  8
0
100
AcDbLine
 10
26.51125865711218
 20
-206.1
 30
1185.0
 11
54.086232247269734
 21
-206.1
 31
1185.0
  0
SPLINE
  5
79
330
17
100
AcDbEntity
  8
0
100
AcDbSpline
 70
0
 71
1
 72
4
 73
2
 74
0
 40
0.0
 40
0.0
 40
1.0
 40
1.0
 10
26.511258646757586
 20
-209.90000060000008
 30
1185.0
 10
26.511258646757586
 20
-206.09999939999992
 30
1185.0
  0
LINE
  5
7A
330
17
100
AcDbEntity
  8
0
100
AcDbLine
 10
26.51125865711218
 20
-209.9
 30
1185.0
 11
53.26765448902664
 21
-209.9
 31
1185.0
  0
SPLINE
  5
7B
330
17
100
AcDbEntity
  8
0
100
AcDbSpline
 70
0
 71
8
 72
25
 73
16
 74
0
 40
0.0
 40
0.0
 40
0.0
 40
0.0
 40
0.0
 40
0.0
 40
0.0
 40
0.0
 40
0.0
 40
0.6617885356148966
 40
0.6617885356148966
 40
0.6617885356148966
 40
0.6617885356148966
 40
0.6617885356148966
 40
0.6617885356148966
 40
0.6617885356148966
 40
1.0
 40
1.0
 40
1.0
 40
1.0
 40
1.0
 40
1.0
 40
1.0
 40
1.0
 40
1.0
 10
47.41574923051626
 20
-232.09999999965655
 30
1185.0
 10
48.00014620066925
 20
-230.29232555595595
 30
1185.0
 10
48.55821401190152
 20
-228.47611323338427
 30
1185.0
 10
49.09371919663332
 20
-226.65301059266582
 30
1185.0
 10
49.60926526251436
 20
-224.82418893865065
 30
1185.0
 10
50.10693463457052
 20
-222.99053482644516
 30
1185.0
 10
50.58837668859058
 20
-221.152675619863
 30
1185.0
 10
51.05499686099798
 20
-219.31103793177283
 30
1185.0
 10
51.73948472286904
 20
-216.5228603133528
 30
1185.0
 10
51.96741327687629
 20
-215.57899138433103
 30
1185.0
 10
52.191923007597026
 20
-214.6342991333558
 30
1185.0
 10
52.41315322730636
 20
-213.68883078217297
 30
1185.0
 10
52.631230461107904
 20
-212.74262929218565
 30
1185.0
 10
52.846270303397276
 20
-211.7957337835618
 30
1185.0
 10
53.058378965412345
 20
-210.8481798837613
 30
1185.0
 10
53.267654513870234
 20
-209.90000000548332
 30
1185.0
  0
LINE
  5
7C
330
17
100
AcDbEntity
  8
0
100
AcDbLine
 10
26.51125865711218
 20
-232.1
 30
1185.0
 11
47.415749231578616
 21
-232.1
 31
1185.0
  0
SPLINE
  5
7D
330
17
100
AcDbEntity
  8
0
100
AcDbSpline
 70
0
 71
1
 72
4
 73
2
 74
0
 40
0.0
 40
0.0
 40
1.0
 40
1.0
 10
26.511258646757586
 20
-235.90000060000008
 30
1185.0
 10
26.511258646757586
 20
-232.09999939999992
 30
1185.0
  0
LINE
  5
7E
330
17
100
AcDbEntity
  8
0
100
AcDbLine
 10
26.51125865711218
 20
-235.9
 30
1185.0
 11
46.12553286307876
 21
-235.9
 31
1185.0
  0
SPLINE
  5
7F
330
17
100
AcDbEntity
  8
0
100
AcDbSpline
 70
0
 71
8
 72
46
 73
37
 74
0
 40
0.0
 40
0.0
 40
0.0
 40
0.0
 40
0.0
 40
0.0
 40
0.0
 40
0.0
 40
0.0
 40
0.056418990567611425
 40
0.056418990567611425
 40
0.056418990567611425
 40
0.056418990567611425
 40
0.056418990567611425
 40
0.056418990567611425
 40
0.056418990567611425
 40
0.20954297219017262
 40
0.20954297219017262
 40
0.20954297219017262
 40
0.20954297219017262
 40
0.20954297219017262
 40
0.20954297219017262
 40
0.20954297219017262
 40
0.4920044126468257
 40
0.4920044126468257
 40
0.4920044126468257
 40
0.4920044126468257
 40
0.4920044126468257
 40
0.4920044126468257
 40
0.4920044126468257
 40
0.8653257584540084
 40
0.8653257584540084
 40
0.8653257584540084
 40
0.8653257584540084
 40
0.8653257584540084
 40
0.8653257584540084
 40
0.8653257584540084
 40
1.0
 40
1.0
 40
1.0
 40
1.0
 40
1.0
 40
1.0
 40
1.0
 40
1.0
 40
1.0
 10
31.7882010245905
 20
-258.1000041175504
 30
1185.0
 10
31.95200498118882
 20
-258.00408968786263
 30
1185.0
 10
32.11443246376268
 20
-257.9058178894681
 30
1185.0
 10
32.27546683695161
 20
-257.80525657496145
 30
1185.0
 10
32.43509430219226
 20
-257.70247466034914
 30
1185.0
 10
32.59330371542841
 20
-257.59754171774415
 30
1185.0
 10
32.750086419540224
 20
-257.4905276009774
 30
1185.0
 10
32.90543609260265
 20
-257.3815021076648
 30
1185.0
 10
33.47707494459558
 20
-256.9693634977988
 30
1185.0
 10
33.88437372939684
 20
-256.6537731701423
 30
1185.0
 10
34.281319259701654
 20
-256.32501014737653
 30
1185.0
 10
34.66808564538669
 20
-255.98426529713848
 30
1185.0
 10
35.044921407695895
 20
-255.63264476337122
 30
1185.0
 10
35.412130510968154
 20
-255.27114830825028
 30
1185.0
 10
35.770059832387204
 20
-254.90065513829077
 30
1185.0
 10
36.76294016639464
 20
-253.82327511862545
 30
1185.0
 10
37.376248701262035
 20
-253.09686747683912
 30
1185.0
 10
37.9616349508297
 20
-252.34726953619233
 30
1185.0
 10
38.52137968475892
 20
-251.57826857290462
 30
1185.0
 10
39.057548007668125
 20
-250.79295259094698
 30
1185.0
 10
39.57205263514155
 20
-249.99375664908104
 30
1185.0
 10
40.06668774833735
 20
-249.18248759463654
 30
1185.0
 10
41.17290130826147
 20
-247.27374916688018
 30
1185.0
 10
41.770571894839534
 20
-246.16875556618535
 30
1185.0
 10
42.33991535216518
 20
-245.0486182086442
 30
1185.0
 10
42.88382948714535
 20
-243.9158797425801
 30
1185.0
 10
43.404721514697414
 20
-242.77254848660505
 30
1185.0
 10
43.90466680089826
 20
-241.62017533471513
 30
1185.0
 10
44.38547565558535
 20
-240.45988595792494
 30
1185.0
 10
45.01590451643135
 20
-238.87126215294552
 30
1185.0
 10
45.18074452884883
 20
-238.44919284905316
 30
1185.0
 10
45.34337206604607
 20
-238.02626048585938
 30
1185.0
 10
45.50385536774055
 20
-237.60250699224153
 30
1185.0
 10
45.662255076011874
 20
-237.1779699902821
 30
1185.0
 10
45.818628324047765
 20
-236.75268421272784
 30
1185.0
 10
45.97303282489011
 20
-236.32668292044897
 30
1185.0
 10
46.12553096018097
 20
-235.89999931989814
 30
1185.0
  0
LINE
  5
80
330
17
100
AcDbEntity
  8
0
100
AcDbLine
 10
26.51125865711218
 20
-258.1
 30
1185.0
 11
31.788198613583365
 21
-258.1
 31
1185.0
  0
SPLINE
  5
81
330
17
100
AcDbEntity
  8
0
100
AcDbSpline
 70
0
 71
1
 72
4
 73
2
 74
0
 40
0.0
 40
0.0
 40
1.0
 40
1.0
 10
26.511258646757586
 20
-259.87409481000066
 30
1185.0
 10
26.511258646757586
 20
-258.09999939999994
 30
1185.0
  0
SPLINE
  5
82
330
17
100
AcDbEntity
  8
0
100
AcDbSpline
 70
0
 71
8
 72
53
 73
44
 74
0
 40
0.0
 40
0.0
 40
0.0
 40
0.0
 40
0.0
 40
0.0
 40
0.0
 40
0.0
 40
0.0
 40
0.02368103662126829
 40
0.02368103662126829
 40
0.02368103662126829
 40
0.02368103662126829
 40
0.02368103662126829
 40
0.02368103662126829
 40
0.02368103662126829
 40
0.04145008040015424
 40
0.04145008040015424
 40
0.04145008040015424
 40
0.04145008040015424
 40
0.04145008040015424
 40
0.04145008040015424
 40
0.04145008040015424
 40
0.049297670732449575
 40
0.049297670732449575
 40
0.049297670732449575
 40
0.049297670732449575
 40
0.049297670732449575
 40
0.049297670732449575
 40
0.049297670732449575
 40
0.05293107212400117
 40
0.05293107212400117
 40
0.05293107212400117
 40
0.05293107212400117
 40
0.05293107212400117
 40
0.05293107212400117
 40
0.05293107212400117
 40
0.05685508571114553
 40
0.05685508571114553
 40
0.05685508571114553
 40
0.05685508571114553
 40
0.05685508571114553
 40
0.05685508571114553
 40
0.05685508571114553
 40
0.06206709856589891
 40
0.06206709856589891
 40
0.06206709856589891
 40
0.06206709856589891
 40
0.06206709856589891
 40
0.06206709856589891
 40
0.06206709856589891
 40
0.06206709856589891
 40
0.06206709856589891
 10
3.0493616338182647
 20
-232.56928038096493
 30
1185.0
 10
3.2384936271149574
 20
-234.47480916639367
 30
1185.0
 10
3.4983790396872365
 20
-236.37211457385087
 30
1185.0
 10
3.835920872193718
 20
-238.25908885459882
 30
1185.0
 10
4.2590973524981734
 20
-240.1309313685121
 30
1185.0
 10
4.776770518435335
 20
-241.9801933703741
 30
1185.0
 10
5.398348899621727
 20
-243.79687078689588
 30
1185.0
 10
6.133440074079125
 20
-245.5684956804989
 30
1185.0
 10
7.635570043461414
 20
-248.5645356521643
 30
1185.0
 10
8.348635550415388
 20
-249.81477768013656
 30
1185.0
 10
9.13421606117672
 20
-251.02347331024978
 30
1185.0
 10
9.994946551506239
 20
-252.18179403553708
 30
1185.0
 10
10.932222756423512
 20
-253.2799222750752
 30
1185.0
 10
11.945704808480414
 20
-254.30745621534925
 30
1185.0
 10
13.032671670284063
 20
-255.2539440940239
 30
1185.0
 10
14.696931798788915
 20
-256.4876135827324
 30
1185.0
 10
15.219920271467787
 20
-256.8478371380818
 30
1185.0
 10
15.755522754727957
 20
-257.1895104907257
 30
1185.0
 10
16.303129905574462
 20
-257.5118598200047
 30
1185.0
 10
16.862054240992183
 20
-257.81418251038133
 30
1185.0
 10
17.431528711992666
 20
-258.095849911291
 30
1185.0
 10
18.010705277660907
 20
-258.35631009699284
 30
1185.0
 10
18.870871029199563
 20
-258.70564500950667
 30
1185.0
 10
19.14395391542128
 20
-258.8111398733503
 30
1185.0
 10
19.417831881183094
 20
-258.9116080033348
 30
1185.0
 10
19.69243466980294
 20
-259.00708218484243
 30
1185.0
 10
19.967692024600936
 20
-259.09759520325576
 30
1185.0
 10
20.243533688899394
 20
-259.1831798439566
 30
1185.0
 10
20.519889406022813
 20
-259.26386889232657
 30
1185.0
 10
21.09562782913921
 20
-259.42158622408664
 30
1185.0
 10
21.39605654430023
 20
-259.4980705213678
 30
1185.0
 10
21.69781934846037
 20
-259.5692200052752
 30
1185.0
 10
22.001007520608425
 20
-259.63426336699024
 30
1185.0
 10
22.305377251732864
 20
-259.69344330688807
 30
1185.0
 10
22.610949286446683
 20
-259.746100082768
 30
1185.0
 10
22.917534160435757
 20
-259.7921472817092
 30
1185.0
 10
23.63340879758389
 20
-259.88322159923905
 30
1185.0
 10
24.04346891313284
 20
-259.9229785465954
 30
1185.0
 10
24.45475340671085
 20
-259.94989461454446
 30
1185.0
 10
24.86678208086958
 20
-259.9633774897578
 30
1185.0
 10
25.279031975539308
 20
-259.9629056153399
 30
1185.0
 10
25.690938384266726
 20
-259.94805116245357
 30
1185.0
 10
26.10189577909976
 20
-259.9185037319016
 30
1185.0
 10
26.511258644119344
 20
-259.8740947856642
 30
1185.0
  0
SPLINE
  5
83
330
17
100
AcDbEntity
  8
0
100
AcDbSpline
 70
0
 71
8
 72
410
 73
401
 74
0
 40
0.0
 40
0.0
 40
0.0
 40
0.0
 40
0.0
 40
0.0
 40
0.0
 40
0.0
 40
0.0
 40
0.00328714662517
 40
0.00328714662517
 40
0.00328714662517
 40
0.00328714662517
 40
0.00328714662517
 40
0.00328714662517
 40
0.00328714662517
 40
0.006721122153351617
 40
0.006721122153351617
 40
0.006721122153351617
 40
0.006721122153351617
 40
0.006721122153351617
 40
0.006721122153351617
 40
0.006721122153351617
 40
0.010498495234258479
 40
0.010498495234258479
 40
0.010498495234258479
 40
0.010498495234258479
 40
0.010498495234258479
 40
0.010498495234258479
 40
0.010498495234258479
 40
0.012902278103862044
 40
0.012902278103862044
 40
0.012902278103862044
 40
0.012902278103862044
 40
0.012902278103862044
 40
0.012902278103862044
 40
0.012902278103862044
 40
0.01633625363186111
 40
0.01633625363186111
 40
0.01633625363186111
 40
0.01633625363186111
 40
0.01633625363186111
 40
0.01633625363186111
 40
0.01633625363186111
 40
0.0201136267126691
 40
0.0201136267126691
 40
0.0201136267126691
 40
0.0201136267126691
 40
0.0201136267126691
 40
0.0201136267126691
 40
0.0201136267126691
 40
0.0267894384957923
 40
0.0267894384957923
 40
0.0267894384957923
 40
0.0267894384957923
 40
0.0267894384957923
 40
0.0267894384957923
 40
0.0267894384957923
 40
0.03785644672952053
 40
0.03785644672952053
 40
0.03785644672952053
 40
0.03785644672952053
 40
0.03785644672952053
 40
0.03785644672952053
 40
0.03785644672952053
 40
0.06140543675230629
 40
0.06140543675230629
 40
0.06140543675230629
 40
0.06140543675230629
 40
0.06140543675230629
 40
0.06140543675230629
 40
0.06140543675230629
 40
0.07726137395294114
 40
0.07726137395294114
 40
0.07726137395294114
 40
0.07726137395294114
 40
0.07726137395294114
 40
0.07726137395294114
 40
0.07726137395294114
 40
0.08559247543005025
 40
0.08559247543005025
 40
0.08559247543005025
 40
0.08559247543005025
 40
0.08559247543005025
 40
0.08559247543005025
 40
0.08559247543005025
 40
0.09578918313148568
 40
0.09578918313148568
 40
0.09578918313148568
 40
0.09578918313148568
 40
0.09578918313148568
 40
0.09578918313148568
 40
0.09578918313148568
 40
0.14359406926913687
 40
0.14359406926913687
 40
0.14359406926913687
 40
0.14359406926913687
 40
0.14359406926913687
 40
0.14359406926913687
 40
0.14359406926913687
 40
0.2654089458324344
 40
0.2654089458324344
 40
0.2654089458324344
 40
0.2654089458324344
 40
0.2654089458324344
 40
0.2654089458324344
 40
0.2654089458324344
 40
0.3551435327151339
 40
0.3551435327151339
 40
0.3551435327151339
 40
0.3551435327151339
 40
0.3551435327151339
 40
0.3551435327151339
 40
0.3551435327151339
 40
0.4298690562541044
 40
0.4298690562541044
 40
0.4298690562541044
 40
0.4298690562541044
 40
0.4298690562541044
 40
0.4298690562541044
 40
0.4298690562541044
 40
0.5671365110376063
 40
0.5671365110376063
 40
0.5671365110376063
 40
0.5671365110376063
 40
0.5671365110376063
 40
0.5671365110376063
 40
0.5671365110376063
 40
0.6151670470282766
 40
0.6151670470282766
 40
0.6151670470282766
 40
0.6151670470282766
 40
0.6151670470282766
 40
0.6151670470282766
 40
0.6151670470282766
 40
0.6312961285259365
 40
0.6312961285259365
 40
0.6312961285259365
 40
0.6312961285259365
 40
0.6312961285259365
 40
0.6312961285259365
 40
0.6312961285259365
 40
0.6459545165346589
 40
0.6459545165346589
 40
0.6459545165346589
 40
0.6459545165346589
 40
0.6459545165346589
 40
0.6459545165346589
 40
0.6459545165346589
 40
0.6677760598009019
 40
0.6677760598009019
 40
0.6677760598009019
 40
0.6677760598009019
 40
0.6677760598009019
 40
0.6677760598009019
 40
0.6677760598009019
 40
0.6791010085393204
 40
0.6791010085393204
 40
0.6791010085393204
 40
0.6791010085393204
 40
0.6791010085393204
 40
0.6791010085393204
 40
0.6791010085393204
 40
0.6843584099688783
 40
0.6843584099688783
 40
0.6843584099688783
 40
0.6843584099688783
 40
0.6843584099688783
 40
0.6843584099688783
 40
0.6843584099688783
 40
0.687677906222963
 40
0.687677906222963
 40
0.687677906222963
 40
0.687677906222963
 40
0.687677906222963
 40
0.687677906222963
 40
0.687677906222963
 40
0.6888330890174186
 40
0.6888330890174186
 40
0.6888330890174186
 40
0.6888330890174186
 40
0.6888330890174186
 40
0.6888330890174186
 40
0.6888330890174186
 40
0.6907583936748439
 40
0.6907583936748439
 40
0.6907583936748439
 40
0.6907583936748439
 40
0.6907583936748439
 40
0.6907583936748439
 40
0.6907583936748439
 40
0.6928762287980075
 40
0.6928762287980075
 40
0.6928762287980075
 40
0.6928762287980075
 40
0.6928762287980075
 40
0.6928762287980075
 40
0.6928762287980075
 40
0.694848256108012
 40
0.694848256108012
 40
0.694848256108012
 40
0.694848256108012
 40
0.694848256108012
 40
0.694848256108012
 40
0.694848256108012
 40
0.696817616804041
 40
0.696817616804041
 40
0.696817616804041
 40
0.696817616804041
 40
0.696817616804041
 40
0.696817616804041
 40
0.696817616804041
 40
0.6986287848582086
 40
0.6986287848582086
 40
0.6986287848582086
 40
0.6986287848582086
 40
0.6986287848582086
 40
0.6986287848582086
 40
0.6986287848582086
 40
0.700439952912362
 40
0.700439952912362
 40
0.700439952912362
 40
0.700439952912362
 40
0.700439952912362
 40
0.700439952912362
 40
0.700439952912362
 40
0.7019492596241493
 40
0.7019492596241493
 40
0.7019492596241493
 40
0.7019492596241493
 40
0.7019492596241493
 40
0.7019492596241493
 40
0.7019492596241493
 40
0.7034585663359404
 40
0.7034585663359404
 40
0.7034585663359404
 40
0.7034585663359404
 40
0.7034585663359404
 40
0.7034585663359404
 40
0.7034585663359404
 40
0.7063927580600889
 40
0.7063927580600889
 40
0.7063927580600889
 40
0.7063927580600889
 40
0.7063927580600889
 40
0.7063927580600889
 40
0.7063927580600889
 40
0.7112570362420207
 40
0.7112570362420207
 40
0.7112570362420207
 40
0.7112570362420207
 40
0.7112570362420207
 40
0.7112570362420207
 40
0.7112570362420207
 40
0.7216075517648228
 40
0.7216075517648228
 40
0.7216075517648228
 40
0.7216075517648228
 40
0.7216075517648228
 40
0.7216075517648228
 40
0.7216075517648228
 40
0.7285767369761833
 40
0.7285767369761833
 40
0.7285767369761833
 40
0.7285767369761833
 40
0.7285767369761833
 40
0.7285767369761833
 40
0.7285767369761833
 40
0.7322385195182627
 40
0.7322385195182627
 40
0.7322385195182627
 40
0.7322385195182627
 40
0.7322385195182627
 40
0.7322385195182627
 40
0.7322385195182627
 40
0.7367202940376756
 40
0.7367202940376756
 40
0.7367202940376756
 40
0.7367202940376756
 40
0.7367202940376756
 40
0.7367202940376756
 40
0.7367202940376756
 40
0.7577291078602079
 40
0.7577291078602079
 40
0.7577291078602079
 40
0.7577291078602079
 40
0.7577291078602079
 40
0.7577291078602079
 40
0.7577291078602079
 40
0.8112212322740194
 40
0.8112212322740194
 40
0.8112212322740194
 40
0.8112212322740194
 40
0.8112212322740194
 40
0.8112212322740194
 40
0.8112212322740194
 40
0.8505725213929276
 40
0.8505725213929276
 40
0.8505725213929276
 40
0.8505725213929276
 40
0.8505725213929276
 40
0.8505725213929276
 40
0.8505725213929276
 40
0.8821879911360004
 40
0.8821879911360004
 40
0.8821879911360004
 40
0.8821879911360004
 40
0.8821879911360004
 40
0.8821879911360004
 40
0.8821879911360004
 40
0.9142338853982492
 40
0.9142338853982492
 40
0.9142338853982492
 40
0.9142338853982492
 40
0.9142338853982492
 40
0.9142338853982492
 40
0.9142338853982492
 40
0.9433265469224034
 40
0.9433265469224034
 40
0.9433265469224034
 40
0.9433265469224034
 40
0.9433265469224034
 40
0.9433265469224034
 40
0.9433265469224034
 40
0.9643129112677297
 40
0.9643129112677297
 40
0.9643129112677297
 40
0.9643129112677297
 40
0.9643129112677297
 40
0.9643129112677297
 40
0.9643129112677297
 40
0.9713592049894895
 40
0.9713592049894895
 40
0.9713592049894895
 40
0.9713592049894895
 40
0.9713592049894895
 40
0.9713592049894895
 40
0.9713592049894895
 40
0.9777629639842842
 40
0.9777629639842842
 40
0.9777629639842842
 40
0.9777629639842842
 40
0.9777629639842842
 40
0.9777629639842842
 40
0.9777629639842842
 40
0.9872960738625534
 40
0.9872960738625534
 40
0.9872960738625534
 40
0.9872960738625534
 40
0.9872960738625534
 40
0.9872960738625534
 40
0.9872960738625534
 40
0.9922435868727433
 40
0.9922435868727433
 40
0.9922435868727433
 40
0.9922435868727433
 40
0.9922435868727433
 40
0.9922435868727433
 40
0.9922435868727433
 40
0.9945403992311062
 40
0.9945403992311062
 40
0.9945403992311062
 40
0.9945403992311062
 40
0.9945403992311062
 40
0.9945403992311062
 40
0.9945403992311062
 40
0.9959906271132833
 40
0.9959906271132833
 40
0.9959906271132833
 40
0.9959906271132833
 40
0.9959906271132833
 40
0.9959906271132833
 40
0.9959906271132833
 40
0.9964953187742878
 40
0.9964953187742878
 40
0.9964953187742878
 40
0.9964953187742878
 40
0.9964953187742878
 40
0.9964953187742878
 40
0.9964953187742878
 40
0.9973364715426298
 40
0.9973364715426298
 40
0.9973364715426298
 40
0.9973364715426298
 40
0.9973364715426298
 40
0.9973364715426298
 40
0.9973364715426298
 40
0.9982617395878051
 40
0.9982617395878051
 40
0.9982617395878051
 40
0.9982617395878051
 40
0.9982617395878051
 40
0.9982617395878051
 40
0.9982617395878051
 40
0.9989346618024771
 40
0.9989346618024771
 40
0.9989346618024771
 40
0.9989346618024771
 40
0.9989346618024771
 40
0.9989346618024771
 40
0.9989346618024771
 40
1.0
 40
1.0
 40
1.0
 40
1.0
 40
1.0
 40
1.0
 40
1.0
 40
1.0
 40
1.0
 10
3.0493616338182687
 20
232.56928038096495
 30
1185.0
 10
3.049217641210191
 20
232.56942437233118
 30
1185.0
 10
3.0492467798586036
 20
232.56922223379058
 30
1185.0
 10
3.0493379769059974
 20
232.56898977251768
 30
1185.0
 10
3.0494158984659854
 20
232.56888294250493
 30
1185.0
 10
3.049440949623312
 20
232.5688978445629
 30
1185.0
 10
3.049409274433847
 20
232.56887072631977
 30
1185.0
 10
3.0493527559245877
 20
232.5684779822217
 30
1185.0
 10
3.049324662537652
 20
232.56593885535483
 30
1185.0
 10
3.0493033688007216
 20
232.5640142921237
 30
1185.0
 10
3.0492731773959387
 20
232.56128554292704
 30
1185.0
 10
3.0492321308363746
 20
232.55757568685243
 30
1185.0
 10
3.049178271635102
 20
232.55270780298744
 30
1185.0
 10
3.049109642305194
 20
232.5465049704197
 30
1185.0
 10
3.0490242853597227
 20
232.5387902682368
 30
1185.0
 10
3.048805797059003
 20
232.51904293354497
 30
1185.0
 10
3.048668741832226
 20
232.5066556550247
 30
1185.0
 10
3.0485064722163338
 20
232.4919894582316
 30
1185.0
 10
3.0483163827962274
 20
232.4748088614314
 30
1185.0
 10
3.0480958681568073
 20
232.45487838288977
 30
1185.0
 10
3.047842322882971
 20
232.43196254087212
 30
1185.0
 10
3.0475531415596153
 20
232.40582585364382
 30
1185.0
 10
3.0470173588156526
 20
232.35740092136004
 30
1185.0
 10
3.046793512646721
 20
232.3371693336603
 30
1185.0
 10
3.0465535088468276
 20
232.31547739249814
 30
1185.0
 10
3.0462966759979584
 20
232.29226441400087
 30
1185.0
 10
3.0460223426820976
 20
232.2674697142958
 30
1185.0
 10
3.045729837481229
 20
232.24103260950977
 30
1185.0
 10
3.045418488977334
 20
232.21289241576955
 30
1185.0
 10
3.044614964002476
 20
232.14026849696222
 30
1185.0
 10
3.044102476291256
 20
232.09394900834158
 30
1185.0
 10
3.043548205131799
 20
232.0438530624268
 30
1185.0
 10
3.0429501930371745
 20
231.9898037383054
 30
1185.0
 10
3.0423064825204547
 20
231.93162411506484
 30
1185.0
 10
3.0416151160947122
 20
231.86913727179262
 30
1185.0
 10
3.0408741362730205
 20
231.80216628757668
 30
1185.0
 10
3.0392097797934388
 20
231.65173899082603
 30
1185.0
 10
3.038275573250137
 20
231.56730385530108
 30
1185.0
 10
3.0372763605234554
 20
231.47699335319544
 30
1185.0
 10
3.03620953619829
 20
231.38057200277504
 30
1185.0
 10
3.0350724948595436
 20
231.27780432230534
 30
1185.0
 10
3.033862631092114
 20
231.1684548300519
 30
1185.0
 10
3.032577339480902
 20
231.0522880442804
 30
1185.0
 10
3.0288045887909805
 20
230.7113005848262
 30
1185.0
 10
3.0263932939287788
 20
230.49336375925574
 30
1185.0
 10
3.0239807745314553
 20
230.27531625814515
 30
1185.0
 10
3.0215673823644935
 20
230.05718987469976
 30
1185.0
 10
3.019153354107023
 20
229.83900600034022
 30
1185.0
 10
3.016738842232988
 20
229.62077841588268
 30
1185.0
 10
3.0143239005651727
 20
229.40251198597747
 30
1185.0
 10
3.0079043731015522
 20
228.82230445555015
 30
1185.0
 10
3.003899255689698
 20
228.46031530669242
 30
1185.0
 10
2.999893451728691
 20
228.09826410639772
 30
1185.0
 10
2.995887132665956
 20
227.73616635033895
 30
1185.0
 10
2.9918804177841714
 20
227.37403281949884
 30
1185.0
 10
2.9878733877090884
 20
227.01187080098248
 30
1185.0
 10
2.9838660836625714
 20
226.64968402045983
 30
1185.0
 10
2.9713310023701673
 20
225.51674260045874
 30
1185.0
 10
2.962802455660657
 20
224.74591841557458
 30
1185.0
 10
2.9542732131320126
 20
223.97503134141965
 30
1185.0
 10
2.945743465742451
 20
223.20409863708008
 30
1185.0
 10
2.937213343081623
 20
222.43313201510168
 30
1185.0
 10
2.928682929916862
 20
221.66213913691524
 30
1185.0
 10
2.920152261535348
 20
220.8911231917992
 30
1185.0
 10
2.9058773281087324
 20
219.60093105267276
 30
1185.0
 10
2.899950810984497
 20
219.06528261372245
 30
1185.0
 10
2.893838408054356
 20
218.51283350758936
 30
1185.0
 10
2.887536736780902
 20
217.94327801493733
 30
1185.0
 10
2.8810424146267217
 20
217.35631041642964
 30
1185.0
 10
2.8743520590544054
 20
216.7516249927296
 30
1185.0
 10
2.86746228752654
 20
216.12891602450028
 30
1185.0
 10
2.8566431058378297
 20
215.15106045422291
 30
1185.0
 10
2.852916500182063
 20
214.81424134659323
 30
1185.0
 10
2.8491898642264815
 20
214.4774205728245
 30
1185.0
 10
2.845463181949315
 20
214.14059822934254
 30
1185.0
 10
2.841736457618948
 20
213.80377440569023
 30
1185.0
 10
2.83800971579393
 20
213.4669491845277
 30
1185.0
 10
2.834283001322963
 20
213.1301226416321
 30
1185.0
 10
2.825995244766447
 20
212.38104028529048
 30
1185.0
 10
2.8213629778913103
 20
211.96233102043092
 30
1185.0
 10
2.816660612249332
 20
211.5372275467276
 30
1185.0
 10
2.8118891813703435
 20
211.10579035958884
 30
1185.0
 10
2.807049718784177
 20
210.66807995442312
 30
1185.0
 10
2.8021432580206627
 20
210.22415682663865
 30
1185.0
 10
2.7971708326096305
 20
209.77408147164368
 30
1185.0
 10
2.768517004731406
 20
207.17928137872337
 30
1185.0
 10
2.7449516264477403
 20
205.04061686022692
 30
1185.0
 10
2.721463575937591
 20
202.90192983413897
 30
1185.0
 10
2.6980661538975608
 20
200.76322537594814
 30
1185.0
 10
2.674769136078823
 20
198.62450699888956
 30
1185.0
 10
2.6515806912877027
 20
196.48577714572778
 30
1185.0
 10
2.6285067915105134
 20
194.34703706150307
 30
1185.0
 10
2.5470632305934413
 20
186.758393812957
 30
1185.0
 10
2.489353817604977
 20
181.308443249229
 30
1185.0
 10
2.4325156068831664
 20
175.8584534931658
 30
1185.0
 10
2.376606313678913
 20
170.40843228567823
 30
1185.0
 10
2.321691661074652
 20
164.95838595008794
 30
1185.0
 10
2.2678361938833773
 20
159.50831747270374
 30
1185.0
 10
2.215115159310872
 20
154.05822871505947
 30
1185.0
 10
2.125677373759432
 20
144.5933123891694
 30
1185.0
 10
2.088402229893283
 20
140.57849484397775
 30
1185.0
 10
2.0518243734837958
 20
136.5636677971666
 30
1185.0
 10
2.0159818225386004
 20
132.54883175976497
 30
1185.0
 10
1.9809171120542868
 20
128.53398715010232
 30
1185.0
 10
1.9466787008334572
 20
124.51913430966572
 30
1185.0
 10
1.9133223783017845
 20
120.50427351895783
 30
1185.0
 10
1.8539238322863902
 20
113.14606593481724
 30
1185.0
 10
1.8275928669456039
 20
109.80272152711265
 30
1185.0
 10
1.8018818744004224
 20
106.45937254227361
 30
1185.0
 10
1.7767573317553456
 20
103.11601968186014
 30
1185.0
 10
1.7521894758926482
 20
99.772663611761
 30
1185.0
 10
1.7281516852433705
 20
96.42930497699601
 30
1185.0
 10
1.7046198615583044
 20
93.08594441651782
 30
1185.0
 10
1.639233571746716
 20
83.60097595879304
 30
1185.0
 10
1.5985278450395763
 20
77.45936715209305
 30
1185.0
 10
1.5593181599073218
 20
71.31775801040871
 30
1185.0
 10
1.5214897348346943
 20
65.17615247531987
 30
1185.0
 10
1.4849481670345486
 20
59.03455526787124
 30
1185.0
 10
1.4495979802047936
 20
52.89297616609073
 30
1185.0
 10
1.415361434632692
 20
46.75142560029715
 30
1185.0
 10
1.3704764155653888
 20
38.460991675771325
 30
1185.0
 10
1.358962646807817
 20
36.31206083562772
 30
1185.0
 10
1.3475639615063224
 20
34.16313829659392
 30
1185.0
 10
1.3362744026729179
 20
32.01422539261597
 30
1185.0
 10
1.3250858755864736
 20
29.86532467057836
 30
1185.0
 10
1.3139887148760792
 20
27.716439759446786
 30
1185.0
 10
1.3029698010327502
 20
25.56757588677064
 30
1185.0
 10
1.2883207436454984
 20
22.69714491970609
 30
1185.0
 10
1.2846438972716676
 20
21.97555100507728
 30
1185.0
 10
1.2809729151168687
 20
21.253960866441417
 30
1185.0
 10
1.277302684673046
 20
20.53237539748463
 30
1185.0
 10
1.2736406581456596
 20
19.810794289968356
 30
1185.0
 10
1.269972394782614
 20
19.089219667100025
 30
1185.0
 10
1.2663062302426586
 20
18.36765138987488
 30
1185.0
 10
1.25930771505979
 20
16.990323755711362
 30
1185.0
 10
1.2560699594794424
 20
16.353124275970796
 30
1185.0
 10
1.2529249908408306
 20
15.734185529486235
 30
1185.0
 10
1.24987125088997
 20
15.133200847454683
 30
1185.0
 10
1.2469071813728771
 20
14.549863561073273
 30
1185.0
 10
1.244031224035569
 20
13.983867001539291
 30
1185.0
 10
1.2412418206240632
 20
13.434904500050164
 30
1185.0
 10
1.234511434689096
 20
12.110345462226249
 30
1185.0
 10
1.2304855675990303
 20
11.318043402473968
 30
1185.0
 10
1.226459813943405
 20
10.52576366692951
 30
1185.0
 10
1.2224341896586755
 20
9.733509391958393
 30
1185.0
 10
1.2184087318732901
 20
8.941287884529618
 30
1185.0
 10
1.2143834971341527
 20
8.149110273220451
 30
1185.0
 10
1.2103585685465932
 20
7.35699291342365
 30
1185.0
 10
1.204245465498086
 20
6.153916898127079
 30
1185.0
 10
1.2021569875886904
 20
5.742898523115969
 30
1185.0
 10
1.2000686578725501
 20
5.3319093129586825
 30
1185.0
 10
1.1979804964012812
 20
4.92095321386887
 30
1185.0
 10
1.1958925532586702
 20
4.510040082477161
 30
1185.0
 10
1.1938049053267168
 20
4.09918504937994
 30
1185.0
 10
1.1917176661698248
 20
3.688410464375533
 30
1185.0
 10
1.1886623571785984
 20
3.0871169907505482
 30
1185.0
 10
1.1876938285960992
 20
2.896507819192003
 30
1185.0
 10
1.1867254586096214
 20
2.7059298597786956
 30
1185.0
 10
1.185757270979762
 20
2.515387788662963
 30
1185.0
 10
1.1847893128672375
 20
2.324890887212913
 30
1185.0
 10
1.1838216541997715
 20
2.1344529174026547
 30
1185.0
 10
1.182854395587071
 20
1.9440936794983088
 30
1185.0
 10
1.1812773351520593
 20
1.6337237137083456
 30
1185.0
 10
1.180667263758275
 20
1.5136599333927805
 30
1185.0
 10
1.1800574723597863
 20
1.3936512569353816
 30
1185.0
 10
1.1794479871364938
 20
1.2737028366350671
 30
1185.0
 10
1.1788389180976133
 20
1.1538363226086226
 30
1185.0
 10
1.178230439534008
 20
1.0340860157809786
 30
1185.0
 10
1.1776228125005368
 20
0.91450329250533
 30
1185.0
 10
1.176805576397031
 20
0.753668909842318
 30
1185.0
 10
1.1766029921108312
 20
0.7137997478358623
 30
1185.0
 10
1.1764086063654757
 20
0.6755440819167792
 30
1185.0
 10
1.1762222243792164
 20
0.6388635784846234
 30
1185.0
 10
1.176043651370305
 20
0.6037199039390028
 30
1185.0
 10
1.175872692556994
 20
0.5700747246795775
 30
1185.0
 10
1.1757091531575352
 20
0.5378897071060607
 30
1185.0
 10
1.1752923137779254
 20
0.45585453513851354
 30
1185.0
 10
1.175051857588182
 20
0.4085320751185983
 30
1185.0
 10
1.1748305680535989
 20
0.36498166718661396
 30
1185.0
 10
1.1746275434068265
 20
0.32502584097065573
 30
1185.0
 10
1.1744418818805122
 20
0.2884871260987722
 30
1185.0
 10
1.174272681707305
 20
0.2551880521989663
 30
1185.0
 10
1.1741190411198534
 20
0.2249511488991942
 30
1185.0
 10
1.1738271773048516
 20
0.16751152244840745
 30
1185.0
 10
1.1736920322191677
 20
0.14091458634552267
 30
1185.0
 10
1.1735734228414076
 20
0.11757192445352667
 30
1185.0
 10
1.1734701489192267
 20
0.09724732370727258
 30
1185.0
 10
1.1733810102002802
 20
0.07970457104165163
 30
1185.0
 10
1.1733048064322225
 20
0.06470745339159327
 30
1185.0
 10
1.1732403373627092
 20
0.05201975769206513
 30
1185.0
 10
1.173136181384126
 20
0.031521565744494495
 30
1185.0
 10
1.1730896987030728
 20
0.022373642285053563
 30
1185.0
 10
1.173049994174987
 20
0.01455967860056262
 30
1185.0
 10
1.173019201420142
 20
0.008499577105141043
 30
1185.0
 10
1.1729982184056453
 20
0.004370060327090641
 30
1185.0
 10
1.1729860864190758
 20
0.0019824510005861384
 30
1185.0
 10
1.1729800792917258
 20
0.0008002312906647546
 30
1185.0
 10
1.1729749328956136
 20
-0.0002125940582295982
 30
1185.0
 10
1.1729767183757895
 20
-5.1606570949047637e-05
 30
1185.0
 10
1.1729752852077004
 20
0.0002526050478834918
 30
1185.0
 10
1.1729745846200055
 20
0.00023066520455472528
 30
1185.0
 10
1.1729792270469013
 20
-0.0006744369627291746
 30
1185.0
 10
1.172991477835912
 20
-0.0030121184560982783
 30
1185.0
 10
1.173012168349038
 20
-0.0071154487668891875
 30
1185.0
 10
1.1730686186115558
 20
-0.018225020510271864
 30
1185.0
 10
1.1731041622561342
 20
-0.02522011055692173
 30
1185.0
 10
1.1731497637218782
 20
-0.03419460833055357
 30
1185.0
 10
1.1732069812627703
 20
-0.045455182633948876
 30
1185.0
 10
1.173277373132795
 20
-0.059308502269879736
 30
1185.0
 10
1.1733624975859347
 20
-0.07606123604110898
 30
1185.0
 10
1.1734639128761728
 20
-0.09602005275039006
 30
1185.0
 10
1.1737024416388124
 20
-0.14296318965037358
 30
1185.0
 10
1.173839555111215
 20
-0.16994750984140491
 30
1185.0
 10
1.1739960759286836
 20
-0.20075125057608592
 30
1185.0
 10
1.1741735623452
 20
-0.235681080657041
 30
1185.0
 10
1.1743735726147477
 20
-0.27504366888699394
 30
1185.0
 10
1.1745976649913097
 20
-0.31914568406876803
 30
1185.0
 10
1.1748473977288707
 20
-0.36829379500528603
 30
1185.0
 10
1.1753551052085356
 20
-0.4682120667445843
 30
1185.0
 10
1.1756047692627263
 20
-0.5173466605989887
 30
1185.0
 10
1.1758742230113393
 20
-0.5703759224347351
 30
1185.0
 10
1.1761643682217262
 20
-0.6274773226237805
 30
1185.0
 10
1.1764761066612384
 20
-0.6888283315380862
 30
1185.0
 10
1.1768103400972274
 20
-0.7546064195496192
 30
1185.0
 10
1.1771679702970446
 20
-0.8249890570303506
 30
1185.0
 10
1.1779318277590378
 20
-0.9753183716743621
 30
1185.0
 10
1.178338055021214
 20
-1.0552650488373678
 30
1185.0
 10
1.1787694825819202
 20
-1.140171216213478
 30
1185.0
 10
1.1792270122085098
 20
-1.2302143441748064
 30
1185.0
 10
1.179711545668334
 20
-1.3255719030933761
 30
1185.0
 10
1.1802239847287446
 20
-1.4264213633411202
 30
1185.0
 10
1.180765231157092
 20
-1.532940195289882
 30
1185.0
 10
1.182446161967364
 20
-1.863752145483538
 30
1185.0
 10
1.183556993052044
 20
-2.0823668530060218
 30
1185.0
 10
1.1846683848375352
 20
-2.3010919080511805
 30
1185.0
 10
1.185780176249747
 20
-2.5198956107517176
 30
1185.0
 10
1.1868922589135715
 20
-2.7387566325963526
 30
1185.0
 10
1.1880045630119633
 20
-2.9576612334084302
 30
1185.0
 10
1.18911706390391
 20
-3.1766045637352107
 30
1185.0
 10
1.1920743862329575
 20
-3.758613984375902
 30
1185.0
 10
1.193919451086506
 20
-4.121727979732668
 30
1185.0
 10
1.1957648302971349
 20
-4.484903841454056
 30
1185.0
 10
1.197610445360476
 20
-4.848126119658332
 30
1185.0
 10
1.1994562416598094
 20
-5.211384065620017
 30
1185.0
 10
1.2013021822785812
 20
-5.574670414056008
 30
1185.0
 10
1.2031482483409792
 20
-5.937981450153615
 30
1185.0
 10
1.2089228624029937
 20
-7.074441873031773
 30
1185.0
 10
1.2128517627217856
 20
-7.847660597231908
 30
1185.0
 10
1.2167809816389883
 20
-8.620942022477873
 30
1185.0
 10
1.2207104317187594
 20
-9.394268941203052
 30
1185.0
 10
1.2246400536252389
 20
-10.167629675910693
 30
1185.0
 10
1.2285698085456556
 20
-10.941016588107878
 30
1185.0
 10
1.2324996803227057
 20
-11.714426498049264
 30
1185.0
 10
1.2390757967440709
 20
-13.008624858123412
 30
1185.0
 10
1.2418060012604022
 20
-13.545936849167798
 30
1185.0
 10
1.2446218389160915
 20
-14.100101684873584
 30
1185.0
 10
1.247524867965121
 20
-14.671426034043408
 30
1185.0
 10
1.2505166466614737
 20
-15.260216565480011
 30
1185.0
 10
1.2535987332591332
 20
-15.86677994798621
 30
1185.0
 10
1.2567726860120836
 20
-16.49142285036491
 30
1185.0
 10
1.2617568240707668
 20
-17.472315354179837
 30
1185.0
 10
1.2634736194395293
 20
-17.810180530668134
 30
1185.0
 10
1.2651904114213368
 20
-18.14804736849615
 30
1185.0
 10
1.2669071824933686
 20
-18.485915771805463
 30
1185.0
 10
1.2686239354692446
 20
-18.823785651267123
 30
1185.0
 10
1.270340693499023
 20
-19.1616569240816
 30
1185.0
 10
1.272057500069201
 20
-19.499529513978832
 30
1185.0
 10
1.2758758118188385
 20
-20.250938108433935
 30
1185.0
 10
1.2780103857323593
 20
-20.670947321973827
 30
1185.0
 10
1.2801781935488898
 20
-21.097369931035654
 30
1185.0
 10
1.282379288074044
 20
-21.530144874817193
 30
1185.0
 10
1.2846137221134348
 20
-21.969211092516232
 30
1185.0
 10
1.2868815484726754
 20
-22.414507523330585
 30
1185.0
 10
1.2891828199573792
 20
-22.86597310645804
 30
1185.0
 10
1.3024620792760362
 20
-25.468473996629562
 30
1185.0
 10
1.3134579937156659
 20
-27.61343178200825
 30
1185.0
 10
1.3245313331416404
 20
-29.758410740963054
 30
1185.0
 10
1.335695284277501
 20
-31.903405602349494
 30
1185.0
 10
1.346959551952638
 20
-34.04841270888793
 30
1185.0
 10
1.35833226069105
 20
-36.193429495404175
 30
1185.0
 10
1.3698193689769795
 20
-38.33845462495846
 30
1185.0
 10
1.4109804299031001
 20
-45.945117212215706
 30
1185.0
 10
1.4413125302532768
 20
-51.40679116408705
 30
1185.0
 10
1.4725132777108398
 20
-56.86849006947804
 30
1185.0
 10
1.504640588159098
 20
-62.33020530044158
 30
1185.0
 10
1.5377604575533446
 20
-67.791929502655
 30
1185.0
 10
1.5719379488840897
 20
-73.25365866137804
 30
1185.0
 10
1.607249002272827
 20
-78.71538969578444
 30
1185.0
 10
1.6706556016305167
 20
-88.19502411457977
 30
1185.0
 10
1.6981908675511057
 20
-92.21292654663316
 30
1185.0
 10
1.726421958833551
 20
-96.23082717698213
 30
1185.0
 10
1.7553872094525749
 20
-100.24872488148702
 30
1185.0
 10
1.7851295568766148
 20
-104.26661855293635
 30
1185.0
 10
1.8156979906529966
 20
-108.28450706212699
 30
1185.0
 10
1.8471490009931133
 20
-112.30238921894444
 30
1185.0
 10
1.905577935415674
 20
-119.54828987918833
 30
1185.0
 10
1.932221116428987
 20
-122.77631105182226
 30
1185.0
 10
1.9594438531358682
 20
-126.00432712316731
 30
1185.0
 10
1.9872161614448753
 20
-129.23233794740585
 30
1185.0
 10
2.0155112800739055
 20
-132.4603433570837
 30
1185.0
 10
2.0443051601893
 20
-135.68834315911354
 30
1185.0
 10
2.0735759550449493
 20
-138.91633713077863
 30
1185.0
 10
2.1334357859523796
 20
-145.41625990336624
 30
1185.0
 10
2.164037366254978
 20
-148.6881884999568
 30
1185.0
 10
2.1950873583397064
 20
-151.96011055319406
 30
1185.0
 10
2.226566773861193
 20
-155.23202572607957
 30
1185.0
 10
2.258458209557192
 20
-158.50393359412274
 30
1185.0
 10
2.2907455184294525
 20
-161.77583362590727
 30
1185.0
 10
2.32341347086643
 20
-165.0477251470301
 30
1185.0
 10
2.386437053594971
 20
-171.28996470287842
 30
1185.0
 10
2.4167283125091776
 20
-174.26031420972265
 30
1185.0
 10
2.447310289302657
 20
-177.23065531808803
 30
1185.0
 10
2.4781722302672473
 20
-180.2009872018163
 30
1185.0
 10
2.5093036187447297
 20
-183.17130873226648
 30
1185.0
 10
2.5406937401236718
 20
-186.14161838837998
 30
1185.0
 10
2.5723307142228333
 20
-189.11191404299316
 30
1185.0
 10
2.6271893093437257
 20
-194.2248411584523
 30
1185.0
 10
2.650299511361882
 20
-196.3674800508711
 30
1185.0
 10
2.6735249442037414
 20
-198.51010874338428
 30
1185.0
 10
2.696859637671385
 20
-200.65272599356345
 30
1185.0
 10
2.7202954533692387
 20
-202.7953293766368
 30
1185.0
 10
2.7438226557992516
 20
-204.9379154072934
 30
1185.0
 10
2.767428012603985
 20
-207.08047905234133
 30
1185.0
 10
2.7990286749977242
 20
-209.94237908542382
 30
1185.0
 10
2.806977561632535
 20
-210.66174314802558
 30
1185.0
 10
2.814932268430487
 20
-211.38110332627738
 30
1185.0
 10
2.822887653472459
 20
-212.10045881060134
 30
1185.0
 10
2.8308511960525715
 20
-212.81980978346033
 30
1185.0
 10
2.8388083784429536
 20
-213.5391543571127
 30
1185.0
 10
2.8467675630430618
 20
-214.25849253095254
 30
1185.0
 10
2.861959442237182
 20
-215.63155974808345
 30
1185.0
 10
2.8689877120155955
 20
-216.26678641771286
 30
1185.0
 10
2.875814567066355
 20
-216.88380889047775
 30
1185.0
 10
2.8824433899268693
 20
-217.4829328857149
 30
1185.0
 10
2.8888775631345496
 20
-218.06446412276088
 30
1185.0
 10
2.8951204692268084
 20
-218.62870832095234
 30
1185.0
 10
2.9011754907410565
 20
-219.1759711996259
 30
1185.0
 10
2.915785300252052
 20
-220.49642999420624
 30
1185.0
 10
2.92452434763542
 20
-221.28627957882514
 30
1185.0
 10
2.9332631472758774
 20
-222.07610677202905
 30
1185.0
 10
2.9420016643692097
 20
-222.86590842815593
 30
1185.0
 10
2.9507398178262134
 20
-223.65567721822885
 30
1185.0
 10
2.9594774841479845
 20
-224.4454019802117
 30
1185.0
 10
2.968214481834746
 20
-225.23506630985477
 30
1185.0
 10
2.98148433126756
 20
-226.43441729202374
 30
1185.0
 10
2.9860178457443243
 20
-226.84416384324993
 30
1185.0
 10
2.9905510365660275
 20
-227.25388114199475
 30
1185.0
 10
2.995083859939285
 20
-227.66356523014102
 30
1185.0
 10
2.999616206481828
 20
-228.07320622153702
 30
1185.0
 10
3.0041479082856903
 20
-228.48278894038177
 30
1185.0
 10
3.0086787173325926
 20
-228.89229097037372
 30
1185.0
 10
3.0153109396418167
 20
-229.49172221341865
 30
1185.0
 10
3.0174133547929123
 20
-229.68174197883948
 30
1185.0
 10
3.019515423569657
 20
-229.87173043837254
 30
1185.0
 10
3.021617094082779
 20
-230.06168290217937
 30
1185.0
 10
3.0237182633349113
 20
-230.2515900611872
 30
1185.0
 10
3.025818778609047
 20
-230.44143811258
 30
1185.0
 10
3.027918420192472
 20
-230.6312071983586
 30
1185.0
 10
3.0313417844204906
 20
-230.94061653039242
 30
1185.0
 10
3.0326660958040095
 20
-231.06030998784706
 30
1185.0
 10
3.0339897956980857
 20
-231.17994817787365
 30
1185.0
 10
3.0353128268883944
 20
-231.2995259293444
 30
1185.0
 10
3.0366349491443425
 20
-231.41902152982144
 30
1185.0
 10
3.0379557818664575
 20
-231.53840058009467
 30
1185.0
 10
3.039274754994077
 20
-231.65761155713483
 30
1185.0
 10
3.0410487136254725
 20
-231.8179448779961
 30
1185.0
 10
3.0414884679494008
 20
-231.85769060254157
 30
1185.0
 10
3.0419104255139975
 20
-231.89582782648625
 30
1185.0
 10
3.0423150091364355
 20
-231.93239476474722
 30
1185.0
 10
3.0427026416338956
 20
-231.9674296322416
 30
1185.0
 10
3.043073745823551
 20
-232.00097064388632
 30
1185.0
 10
3.043428744522579
 20
-232.03305601459854
 30
1185.0
 10
3.044333587257451
 20
-232.11483720045686
 30
1185.0
 10
3.0448555509849364
 20
-232.16201314713106
 30
1185.0
 10
3.045335909217542
 20
-232.20542872023046
 30
1185.0
 10
3.0457766194421936
 20
-232.24526084066747
 30
1185.0
 10
3.0461796391458202
 20
-232.28168642935447
 30
1185.0
 10
3.0465469258153495
 20
-232.31488240720395
 30
1185.0
 10
3.046880436937709
 20
-232.34502569512833
 30
1185.0
 10
3.047513992368154
 20
-232.40228748484265
 30
1185.0
 10
3.047807354883589
 20
-232.42880207514003
 30
1185.0
 10
3.0480648229612326
 20
-232.4520724666664
 30
1185.0
 10
3.048289002016183
 20
-232.4723341411563
 30
1185.0
 10
3.0484824974635423
 20
-232.48982258034394
 30
1185.0
 10
3.048647914718411
 20
-232.50477326596393
 30
1185.0
 10
3.0487878591958903
 20
-232.51742167975064
 30
1185.0
 10
3.048990083303947
 20
-232.53569902975713
 30
1185.0
 10
3.0490631351630393
 20
-232.54230157784147
 30
1185.0
 10
3.049125094121666
 20
-232.54790153119885
 30
1185.0
 10
3.0491769624131355
 20
-232.5525894733364
 30
1185.0
 10
3.049219742270752
 20
-232.55645598776147
 30
1185.0
 10
3.0492544359278235
 20
-232.55959165798103
 30
1185.0
 10
3.0492820456176575
 20
-232.56208706750226
 30
1185.0
 10
3.0493376556015255
 20
-232.56711318999945
 30
1185.0
 10
3.049475655624446
 20
-232.56814666259422
 30
1185.0
 10
3.049553211657052
 20
-232.56828477933433
 30
1185.0
 10
3.0494928184474626
 20
-232.56829954044667
 30
1185.0
 10
3.04930382747719
 20
-232.5685833846668
 30
1185.0
 10
3.0490824469611377
 20
-232.56914918923945
 30
1185.0
 10
3.0490117418476013
 20
-232.5696302699181
 30
1185.0
 10
3.0493616338182687
 20
-232.56928038096495
 30
1185.0
  0
ENDSEC
  0
SECTION
  2
OBJECTS
  0
DICTIONARY
  5
A
330
0
100
AcDbDictionary
281
1
  3
ACAD_COLOR
350
B
  3
ACAD_GROUP
350
C
  3
ACAD_LAYOUT
350
D
  3
ACAD_MATERIAL
350
E
  3
ACAD_MLEADERSTYLE
350
F
  3
ACAD_MLINESTYLE
350
10
  3
ACAD_PLOTSETTINGS
350
11
  3
ACAD_PLOTSTYLENAME
350
12
  3
ACAD_SCALELIST
350
14
  3
ACAD_TABLESTYLE
350
15
  3
ACAD_VISUALSTYLE
350
16
  3
EZDXF_META
350
2D
  0
DICTIONARY
  5
B
330
A
100
AcDbDictionary
281
1
  0
DICTIONARY
  5
C
330
A
100
AcDbDictionary
281
1
  0
DICTIONARY
  5
D
330
A
100
AcDbDictionary
281
1
  3
Model
350
1A
  3
Layout1
350
1E
  0
DICTIONARY
  5
E
330
A
100
AcDbDictionary
281
1
  3
ByBlock
350
1F
  3
ByLayer
350
20
  3
Global
350
21
  0
DICTIONARY
  5
F
330
A
100
AcDbDictionary
281
1
  3
Standard
350
2C
  0
DICTIONARY
  5
10
330
A
100
AcDbDictionary
281
1
  3
Standard
350
22
  0
DICTIONARY
  5
11
330
A
100
AcDbDictionary
281
1
  0
ACDBDICTIONARYWDFLT
  5
12
330
A
100
AcDbDictionary
281
1
  3
Normal
350
13
100
AcDbDictionaryWithDefault
340
13
  0
ACDBPLACEHOLDER
  5
13
330
12
  0
DICTIONARY
  5
14
330
A
100
AcDbDictionary
281
1
  0
DICTIONARY
  5
15
330
A
100
AcDbDictionary
281
1
  0
DICTIONARY
  5
16
330
A
100
AcDbDictionary
281
1
  0
LAYOUT
  5
1A
330
D
100
AcDbPlotSettings
  1

  2
Adobe PDF
  4
A3
  6

 40
7.5
 41
20.0
 42
7.5
 43
20.0
 44
420.0
 45
297.0
 46
0.0
 47
0.0
 48
0.0
 49
0.0
140
0.0
141
0.0
142
1.0
143
1.0
 70
1024
 72
1
 73
1
 74
5
  7

 75
16
 76
0
 77
2
 78
300
147
1.0
148
0.0
149
0.0
100
AcDbLayout
  1
Model
 70
1
 71
0
 10
0.0
 20
0.0
 11
420.0
 21
297.0
 12
0.0
 22
0.0
 32
0.0
 14
1e+20
 24
1e+20
 34
1e+20
 15
-1e+20
 25
-1e+20
 35
-1e+20
146
0.0
 13
0.0
 23
0.0
 33
0.0
 16
1.0
 26
0.0
 36
0.0
 17
0.0
 27
1.0
 37
0.0
 76
1
330
17
  0
LAYOUT
  5
1E
330
D
100
AcDbPlotSettings
  1

  2
Adobe PDF
  4
A3
  6

 40
7.5
 41
20.0
 42
7.5
 43
20.0
 44
420.0
 45
297.0
 46
0.0
 47
0.0
 48
0.0
 49
0.0
140
0.0
141
0.0
142
1.0
143
1.0
 70
0
 72
1
 73
1
 74
5
  7

 75
16
 76
0
 77
2
 78
300
147
1.0
148
0.0
149
0.0
100
AcDbLayout
  1
Layout1
 70
1
 71
1
 10
0.0
 20
0.0
 11
420.0
 21
297.0
 12
0.0
 22
0.0
 32
0.0
 14
1e+20
 24
1e+20
 34
1e+20
 15
-1e+20
 25
-1e+20
 35
-1e+20
146
0.0
 13
0.0
 23
0.0
 33
0.0
 16
1.0
 26
0.0
 36
0.0
 17
0.0
 27
1.0
 37
0.0
 76
1
330
1B
  0
MATERIAL
  5
1F
102
{ACAD_REACTORS
330
E
102
}
330
E
100
AcDbMaterial
  1
ByBlock
  2

 70
0
 40
1.0
 71
1
 41
1.0
 91
-1023410177
 42
1.0
 72
1
  3

 73
1
 74
1
 75
1
 44
0.5
 73
0
 45
1.0
 46
1.0
 77
1
  4

 78
1
 79
1
170
1
 48
1.0
171
1
  6

172
1
173
1
174
1
140
1.0
141
1.0
175
1
  7

176
1
177
1
178
1
143
1.0
179
1
  8

270
1
271
1
272
1
145
1.0
146
1.0
273
1
  9

274
1
275
1
276
1
 42
1.0
 72
1
  3

 73
1
 74
1
 75
1
 94
63
  0
MATERIAL
  5
20
102
{ACAD_REACTORS
330
E
102
}
330
E
100
AcDbMaterial
  1
ByLayer
  2

 70
0
 40
1.0
 71
1
 41
1.0
 91
-1023410177
 42
1.0
 72
1
  3

 73
1
 74
1
 75
1
 44
0.5
 73
0
 45
1.0
 46
1.0
 77
1
  4

 78
1
 79
1
170
1
 48
1.0
171
1
  6

172
1
173
1
174
1
140
1.0
141
1.0
175
1
  7

176
1
177
1
178
1
143
1.0
179
1
  8

270
1
271
1
272
1
145
1.0
146
1.0
273
1
  9

274
1
275
1
276
1
 42
1.0
 72
1
  3

 73
1
 74
1
 75
1
 94
63
  0
MATERIAL
  5
21
102
{ACAD_REACTORS
330
E
102
}
330
E
100
AcDbMaterial
  1
Global
  2

 70
0
 40
1.0
 71
1
 41
1.0
 91
-1023410177
 42
1.0
 72
1
  3

 73
1
 74
1
 75
1
 44
0.5
 73
0
 45
1.0
 46
1.0
 77
1
  4

 78
1
 79
1
170
1
 48
1.0
171
1
  6

172
1
173
1
174
1
140
1.0
141
1.0
175
1
  7

176
1
177
1
178
1
143
1.0
179
1
  8

270
1
271
1
272
1
145
1.0
146
1.0
273
1
  9

274
1
275
1
276
1
 42
1.0
 72
1
  3

 73
1
 74
1
 75
1
 94
63
  0
MLINESTYLE
  5
22
102
{ACAD_REACTORS
330
10
102
}
330
10
100
AcDbMlineStyle
  2
Standard
 70
0
  3

 62
256
 51
90.0
 52
90.0
 71
2
 49
0.5
 62
256
  6
BYLAYER
 49
-0.5
 62
256
  6
BYLAYER
  0
MLEADERSTYLE
  5
2C
102
{ACAD_REACTORS
330
F
102
}
330
F
100
AcDbMLeaderStyle
179
2
170
2
171
1
172
0
 90
2
 40
0.0
 41
0.0
173
1
 91
-1056964608
 92
-2
290
1
 42
2.0
291
1
 43
8.0
  3
Standard
 44
4.0
300

342
29
174
1
175
1
176
0
178
1
 93
-1056964608
 45
4.0
292
0
297
0
 46
4.0
 94
-1056964608
 47
1.0
 49
1.0
140
1.0
294
1
141
0.0
177
0
142
1.0
295
0
296
0
143
3.75
271
0
272
9
273
9
  0
DICTIONARY
  5
2D
330
A
100
AcDbDictionary
280
1
281
1
  3
CREATED_BY_EZDXF
350
2E
  3
WRITTEN_BY_EZDXF
350
86
  0
DICTIONARYVAR
  5
2E
330
2D
100
DictionaryVariables
280
0
  1
0.17 @ 2022-02-15T16:36:57.961251+00:00
  0
DICTIONARYVAR
  5
86
330
2D
100
DictionaryVariables
280
0
  1
0.17 @ 2022-02-15T16:36:58.067944+00:00
  0
ENDSEC
  0
EOF
