  0
SECTION
  2
HEADER
  9
$ACADVER
  1
AC1027
  9
$ACADMAINTVER
 70
105
  9
$DWGCODEPAGE
  3
ANSI_1252
  9
$LASTSAVEDBY
  1
ezdxf
  9
$REQUIREDVERSIONS
160
0
  9
$INSBASE
 10
0.0
 20
0.0
 30
0.0
  9
$EXTMIN
 10
1e+20
 20
1e+20
 30
1e+20
  9
$EXTMAX
 10
-1e+20
 20
-1e+20
 30
-1e+20
  9
$LIMMIN
 10
0.0
 20
0.0
  9
$LIMMAX
 10
420.0
 20
297.0
  9
$ORTHOMODE
 70
0
  9
$REGENMODE
 70
1
  9
$FILLMODE
 70
1
  9
$QTEXTMODE
 70
0
  9
$MIRRTEXT
 70
1
  9
$LTSCALE
 40
1.0
  9
$ATTMODE
 70
1
  9
$TEXTSIZE
 40
2.5
  9
$TRACEWID
 40
1.0
  9
$TEXTSTYLE
  7
Standard
  9
$CLAYER
  8
0
  9
$CELTYPE
  6
ByLayer
  9
$CECOLOR
 62
256
  9
$CELTSCALE
 40
1.0
  9
$DISPSILH
 70
0
  9
$DIMSCALE
 40
1.0
  9
$DIMASZ
 40
2.5
  9
$DIMEXO
 40
0.625
  9
$DIMDLI
 40
3.75
  9
$DIMRND
 40
0.0
  9
$DIMDLE
 40
0.0
  9
$DIMEXE
 40
1.25
  9
$DIMTP
 40
0.0
  9
$DIMTM
 40
0.0
  9
$DIMTXT
 40
2.5
  9
$DIMCEN
 40
2.5
  9
$DIMTSZ
 40
0.0
  9
$DIMTOL
 70
0
  9
$DIMLIM
 70
0
  9
$DIMTIH
 70
0
  9
$DIMTOH
 70
0
  9
$DIMSE1
 70
0
  9
$DIMSE2
 70
0
  9
$DIMTAD
 70
1
  9
$DIMZIN
 70
8
  9
$DIMBLK
  1

  9
$DIMASO
 70
1
  9
$DIMSHO
 70
1
  9
$DIMPOST
  1

  9
$DIMAPOST
  1

  9
$DIMALT
 70
0
  9
$DIMALTD
 70
3
  9
$DIMALTF
 40
0.03937007874
  9
$DIMLFAC
 40
1.0
  9
$DIMTOFL
 70
1
  9
$DIMTVP
 40
0.0
  9
$DIMTIX
 70
0
  9
$DIMSOXD
 70
0
  9
$DIMSAH
 70
0
  9
$DIMBLK1
  1

  9
$DIMBLK2
  1

  9
$DIMSTYLE
  2
ISO-25
  9
$DIMCLRD
 70
0
  9
$DIMCLRE
 70
0
  9
$DIMCLRT
 70
0
  9
$DIMTFAC
 40
1.0
  9
$DIMGAP
 40
0.625
  9
$DIMJUST
 70
0
  9
$DIMSD1
 70
0
  9
$DIMSD2
 70
0
  9
$DIMTOLJ
 70
0
  9
$DIMTZIN
 70
8
  9
$DIMALTZ
 70
0
  9
$DIMALTTZ
 70
0
  9
$DIMUPT
 70
0
  9
$DIMDEC
 70
2
  9
$DIMTDEC
 70
2
  9
$DIMALTU
 70
2
  9
$DIMALTTD
 70
3
  9
$DIMTXSTY
  7
Standard
  9
$DIMAUNIT
 70
0
  9
$DIMADEC
 70
0
  9
$DIMALTRND
 40
0.0
  9
$DIMAZIN
 70
0
  9
$DIMDSEP
 70
44
  9
$DIMATFIT
 70
3
  9
$DIMFRAC
 70
0
  9
$DIMLDRBLK
  1

  9
$DIMLUNIT
 70
2
  9
$DIMLWD
 70
-2
  9
$DIMLWE
 70
-2
  9
$DIMTMOVE
 70
0
  9
$DIMFXL
 40
1.0
  9
$DIMFXLON
 70
0
  9
$DIMJOGANG
 40
0.785398163397
  9
$DIMTFILL
 70
0
  9
$DIMTFILLCLR
 70
0
  9
$DIMARCSYM
 70
0
  9
$DIMLTYPE
  6

  9
$DIMLTEX1
  6

  9
$DIMLTEX2
  6

  9
$DIMTXTDIRECTION
 70
0
  9
$LUNITS
 70
2
  9
$LUPREC
 70
4
  9
$SKETCHINC
 40
1.0
  9
$FILLETRAD
 40
10.0
  9
$AUNITS
 70
0
  9
$AUPREC
 70
2
  9
$MENU
  1
.
  9
$ELEVATION
 40
0.0
  9
$PELEVATION
 40
0.0
  9
$THICKNESS
 40
0.0
  9
$LIMCHECK
 70
0
  9
$CHAMFERA
 40
0.0
  9
$CHAMFERB
 40
0.0
  9
$CHAMFERC
 40
0.0
  9
$CHAMFERD
 40
0.0
  9
$SKPOLY
 70
0
  9
$TDCREATE
 40
2459626.734016204
  9
$TDUCREATE
 40
2458532.153996898
  9
$TDUPDATE
 40
2459626.734016204
  9
$TDUUPDATE
 40
2458532.1544311
  9
$TDINDWG
 40
0.0
  9
$TDUSRTIMER
 40
0.0
  9
$USRTIMER
 70
1
  9
$ANGBASE
 50
0.0
  9
$ANGDIR
 70
0
  9
$PDMODE
 70
0
  9
$PDSIZE
 40
0.0
  9
$PLINEWID
 40
0.0
  9
$SPLFRAME
 70
0
  9
$SPLINETYPE
 70
6
  9
$SPLINESEGS
 70
8
  9
$HANDSEED
  5
87
  9
$SURFTAB1
 70
6
  9
$SURFTAB2
 70
6
  9
$SURFTYPE
 70
6
  9
$SURFU
 70
6
  9
$SURFV
 70
6
  9
$UCSBASE
  2

  9
$UCSNAME
  2

  9
$UCSORG
 10
0.0
 20
0.0
 30
0.0
  9
$UCSXDIR
 10
1.0
 20
0.0
 30
0.0
  9
$UCSYDIR
 10
0.0
 20
1.0
 30
0.0
  9
$UCSORTHOREF
  2

  9
$UCSORTHOVIEW
 70
0
  9
$UCSORGTOP
 10
0.0
 20
0.0
 30
0.0
  9
$UCSORGBOTTOM
 10
0.0
 20
0.0
 30
0.0
  9
$UCSORGLEFT
 10
0.0
 20
0.0
 30
0.0
  9
$UCSORGRIGHT
 10
0.0
 20
0.0
 30
0.0
  9
$UCSORGFRONT
 10
0.0
 20
0.0
 30
0.0
  9
$UCSORGBACK
 10
0.0
 20
0.0
 30
0.0
  9
$PUCSBASE
  2

  9
$PUCSNAME
  2

  9
$PUCSORG
 10
0.0
 20
0.0
 30
0.0
  9
$PUCSXDIR
 10
1.0
 20
0.0
 30
0.0
  9
$PUCSYDIR
 10
0.0
 20
1.0
 30
0.0
  9
$PUCSORTHOREF
  2

  9
$PUCSORTHOVIEW
 70
0
  9
$PUCSORGTOP
 10
0.0
 20
0.0
 30
0.0
  9
$PUCSORGBOTTOM
 10
0.0
 20
0.0
 30
0.0
  9
$PUCSORGLEFT
 10
0.0
 20
0.0
 30
0.0
  9
$PUCSORGRIGHT
 10
0.0
 20
0.0
 30
0.0
  9
$PUCSORGFRONT
 10
0.0
 20
0.0
 30
0.0
  9
$PUCSORGBACK
 10
0.0
 20
0.0
 30
0.0
  9
$USERI1
 70
0
  9
$USERI2
 70
0
  9
$USERI3
 70
0
  9
$USERI4
 70
0
  9
$USERI5
 70
0
  9
$USERR1
 40
0.0
  9
$USERR2
 40
0.0
  9
$USERR3
 40
0.0
  9
$USERR4
 40
0.0
  9
$USERR5
 40
0.0
  9
$WORLDVIEW
 70
1
  9
$SHADEDGE
 70
3
  9
$SHADEDIF
 70
70
  9
$TILEMODE
 70
1
  9
$MAXACTVP
 70
64
  9
$PINSBASE
 10
0.0
 20
0.0
 30
0.0
  9
$PLIMCHECK
 70
0
  9
$PEXTMIN
 10
1e+20
 20
1e+20
 30
1e+20
  9
$PEXTMAX
 10
-1e+20
 20
-1e+20
 30
-1e+20
  9
$PLIMMIN
 10
0.0
 20
0.0
  9
$PLIMMAX
 10
420.0
 20
297.0
  9
$UNITMODE
 70
0
  9
$VISRETAIN
 70
1
  9
$PLINEGEN
 70
0
  9
$PSLTSCALE
 70
1
  9
$TREEDEPTH
 70
3020
  9
$CMLSTYLE
  2
Standard
  9
$CMLJUST
 70
0
  9
$CMLSCALE
 40
20.0
  9
$PROXYGRAPHICS
 70
1
  9
$MEASUREMENT
 70
1
  9
$CELWEIGHT
370
-1
  9
$ENDCAPS
280
0
  9
$JOINSTYLE
280
0
  9
$LWDISPLAY
290
0
  9
$INSUNITS
 70
6
  9
$HYPERLINKBASE
  1

  9
$STYLESHEET
  1

  9
$XEDIT
290
1
  9
$CEPSNTYPE
380
0
  9
$PSTYLEMODE
290
1
  9
$FINGERPRINTGUID
  2
{172D23D6-BCB9-4387-A9A9-75AD536788F8}
  9
$VERSIONGUID
  2
{12741AAB-5391-4D40-B3BE-E8494FB11DA3}
  9
$EXTNAMES
290
1
  9
$PSVPSCALE
 40
0.0
  9
$OLESTARTUP
290
0
  9
$SORTENTS
280
127
  9
$INDEXCTL
280
0
  9
$HIDETEXT
280
1
  9
$XCLIPFRAME
280
0
  9
$HALOGAP
280
0
  9
$OBSCOLOR
 70
257
  9
$OBSLTYPE
280
0
  9
$INTERSECTIONDISPLAY
280
0
  9
$INTERSECTIONCOLOR
 70
257
  9
$DIMASSOC
280
2
  9
$PROJECTNAME
  1

  9
$CAMERADISPLAY
290
0
  9
$LENSLENGTH
 40
50.0
  9
$CAMERAHEIGHT
 40
0.0
  9
$STEPSPERSEC
 40
24.0
  9
$STEPSIZE
 40
100.0
  9
$3DDWFPREC
 40
2.0
  9
$PSOLWIDTH
 40
0.005
  9
$PSOLHEIGHT
 40
0.08
  9
$LOFTANG1
 40
1.570796326795
  9
$LOFTANG2
 40
1.570796326795
  9
$LOFTMAG1
 40
0.0
  9
$LOFTMAG2
 40
0.0
  9
$LOFTPARAM
 70
7
  9
$LOFTNORMALS
280
1
  9
$LATITUDE
 40
37.795
  9
$LONGITUDE
 40
-122.394
  9
$NORTHDIRECTION
 40
0.0
  9
$TIMEZONE
 70
-8000
  9
$LIGHTGLYPHDISPLAY
280
1
  9
$TILEMODELIGHTSYNCH
280
1
  9
$CMATERIAL
347
20
  9
$SOLIDHIST
280
0
  9
$SHOWHIST
280
1
  9
$DWFFRAME
280
2
  9
$DGNFRAME
280
2
  9
$REALWORLDSCALE
290
1
  9
$INTERFERECOLOR
 62
256
  9
$CSHADOW
280
0
  9
$SHADOWPLANELOCATION
 40
0.0
  0
ENDSEC
  0
SECTION
  2
CLASSES
  0
CLASS
  1
ACDBDICTIONARYWDFLT
  2
AcDbDictionaryWithDefault
  3
ObjectDBX Classes
 90
0
 91
0
280
0
281
0
  0
CLASS
  1
SUN
  2
AcDbSun
  3
SCENEOE
 90
1153
 91
0
280
0
281
0
  0
CLASS
  1
VISUALSTYLE
  2
AcDbVisualStyle
  3
ObjectDBX Classes
 90
4095
 91
0
280
0
281
0
  0
CLASS
  1
MATERIAL
  2
AcDbMaterial
  3
ObjectDBX Classes
 90
1153
 91
0
280
0
281
0
  0
CLASS
  1
SCALE
  2
AcDbScale
  3
ObjectDBX Classes
 90
1153
 91
0
280
0
281
0
  0
CLASS
  1
TABLESTYLE
  2
AcDbTableStyle
  3
ObjectDBX Classes
 90
4095
 91
0
280
0
281
0
  0
CLASS
  1
MLEADERSTYLE
  2
AcDbMLeaderStyle
  3
ACDB_MLEADERSTYLE_CLASS
 90
4095
 91
0
280
0
281
0
  0
CLASS
  1
DICTIONARYVAR
  2
AcDbDictionaryVar
  3
ObjectDBX Classes
 90
0
 91
0
280
0
281
0
  0
CLASS
  1
CELLSTYLEMAP
  2
AcDbCellStyleMap
  3
ObjectDBX Classes
 90
1152
 91
0
280
0
281
0
  0
CLASS
  1
MENTALRAYRENDERSETTINGS
  2
AcDbMentalRayRenderSettings
  3
SCENEOE
 90
1024
 91
0
280
0
281
0
  0
CLASS
  1
ACDBDETAILVIEWSTYLE
  2
AcDbDetailViewStyle
  3
ObjectDBX Classes
 90
1025
 91
0
280
0
281
0
  0
CLASS
  1
ACDBSECTIONVIEWSTYLE
  2
AcDbSectionViewStyle
  3
ObjectDBX Classes
 90
1025
 91
0
280
0
281
0
  0
CLASS
  1
RASTERVARIABLES
  2
AcDbRasterVariables
  3
ISM
 90
0
 91
0
280
0
281
0
  0
CLASS
  1
ACDBPLACEHOLDER
  2
AcDbPlaceHolder
  3
ObjectDBX Classes
 90
0
 91
0
280
0
281
0
  0
CLASS
  1
LAYOUT
  2
AcDbLayout
  3
ObjectDBX Classes
 90
0
 91
0
280
0
281
0
  0
ENDSEC
  0
SECTION
  2
TABLES
  0
TABLE
  2
VPORT
  5
8
330
0
100
AcDbSymbolTable
 70
1
  0
VPORT
  5
23
330
8
100
AcDbSymbolTableRecord
100
AcDbViewportTableRecord
  2
*Active
 70
0
 10
0.0
 20
0.0
 11
1.0
 21
1.0
 12
344.2
 22
148.5
 13
0.0
 23
0.0
 14
0.5
 24
0.5
 15
0.5
 25
0.5
 16
0.0
 26
0.0
 36
1.0
 17
0.0
 27
0.0
 37
0.0
 40
297.0
 41
1.34
 42
50.0
 43
0.0
 44
0.0
 50
0.0
 51
0.0
 71
0
 72
1000
 73
1
 74
3
 75
0
 76
0
 77
0
 78
0
281
0
 65
0
146
0.0
  0
ENDTAB
  0
TABLE
  2
LTYPE
  5
2
330
0
100
AcDbSymbolTable
 70
3
  0
LTYPE
  5
24
330
2
100
AcDbSymbolTableRecord
100
AcDbLinetypeTableRecord
  2
ByBlock
 70
0
  3

 72
65
 73
0
 40
0.0
  0
LTYPE
  5
25
330
2
100
AcDbSymbolTableRecord
100
AcDbLinetypeTableRecord
  2
ByLayer
 70
0
  3

 72
65
 73
0
 40
0.0
  0
LTYPE
  5
26
330
2
100
AcDbSymbolTableRecord
100
AcDbLinetypeTableRecord
  2
Continuous
 70
0
  3

 72
65
 73
0
 40
0.0
  0
ENDTAB
  0
TABLE
  2
LAYER
  5
1
330
0
100
AcDbSymbolTable
 70
2
  0
LAYER
  5
27
330
1
100
AcDbSymbolTableRecord
100
AcDbLayerTableRecord
  2
0
 70
0
 62
7
  6
Continuous
370
-3
390
13
347
21
  0
LAYER
  5
28
330
1
100
AcDbSymbolTableRecord
100
AcDbLayerTableRecord
  2
Defpoints
 70
0
 62
7
  6
Continuous
290
0
370
-3
390
13
347
21
  0
ENDTAB
  0
TABLE
  2
STYLE
  5
5
330
0
100
AcDbSymbolTable
 70
1
  0
STYLE
  5
29
330
5
100
AcDbSymbolTableRecord
100
AcDbTextStyleTableRecord
  2
Standard
 70
0
 40
0.0
 41
1.0
 50
0.0
 71
0
 42
2.5
  3
txt
  4

  0
ENDTAB
  0
TABLE
  2
VIEW
  5
7
330
0
100
AcDbSymbolTable
 70
0
  0
ENDTAB
  0
TABLE
  2
UCS
  5
6
330
0
100
AcDbSymbolTable
 70
0
  0
ENDTAB
  0
TABLE
  2
APPID
  5
3
330
0
100
AcDbSymbolTable
 70
3
  0
APPID
  5
2A
330
3
100
AcDbSymbolTableRecord
100
AcDbRegAppTableRecord
  2
ACAD
 70
0
  0
APPID
  5
84
330
3
100
AcDbSymbolTableRecord
100
AcDbRegAppTableRecord
  2
HATCHBACKGROUNDCOLOR
 70
0
  0
APPID
  5
85
330
3
100
AcDbSymbolTableRecord
100
AcDbRegAppTableRecord
  2
EZDXF
 70
0
  0
ENDTAB
  0
TABLE
  2
DIMSTYLE
  5
4
330
0
100
AcDbSymbolTable
 70
1
100
AcDbDimStyleTable
  0
DIMSTYLE
105
2B
330
4
100
AcDbSymbolTableRecord
100
AcDbDimStyleTableRecord
  2
Standard
 70
0
 40
1.0
 41
2.5
 42
0.625
 43
3.75
 44
1.25
 45
0.0
 46
0.0
 47
0.0
 48
0.0
 49
2.5
140
2.5
141
2.5
142
0.0
143
0.03937007874
144
1.0
145
0.0
146
1.0
147
0.625
148
0.0
 69
0
 70
0
 71
0
 72
0
 73
0
 74
0
 75
0
 76
0
 77
1
 78
8
 79
0
170
0
171
3
172
1
173
0
174
0
175
0
176
0
177
0
178
0
179
0
271
0
272
2
273
2
274
3
275
0
276
0
277
2
278
44
279
0
280
0
281
0
282
0
283
0
284
8
285
0
286
0
288
0
289
3
290
0
371
-2
372
-2
  0
ENDTAB
  0
TABLE
  2
BLOCK_RECORD
  5
9
330
0
100
AcDbSymbolTable
 70
2
  0
BLOCK_RECORD
  5
17
330
9
100
AcDbSymbolTableRecord
100
AcDbBlockTableRecord
  2
*Model_Space
340
1A
 70
0
280
1
281
0
  0
BLOCK_RECORD
  5
1B
330
9
100
AcDbSymbolTableRecord
100
AcDbBlockTableRecord
  2
*Paper_Space
340
1E
 70
0
280
1
281
0
  0
ENDTAB
  0
ENDSEC
  0
SECTION
  2
BLOCKS
  0
BLOCK
  5
18
330
17
100
AcDbEntity
  8
0
100
AcDbBlockBegin
  2
*Model_Space
 70
0
 10
0.0
 20
0.0
 30
0.0
  3
*Model_Space
  1

  0
ENDBLK
  5
19
330
17
100
AcDbEntity
  8
0
100
AcDbBlockEnd
  0
BLOCK
  5
1C
330
1B
100
AcDbEntity
  8
0
100
AcDbBlockBegin
  2
*Paper_Space
 70
0
 10
0.0
 20
0.0
 30
0.0
  3
*Paper_Space
  1

  0
ENDBLK
  5
1D
330
1B
100
AcDbEntity
  8
0
100
AcDbBlockEnd
  0
ENDSEC
  0
SECTION
  2
ENTITIES
  0
SPLINE
  5
2F
330
17
100
AcDbEntity
  8
0
100
AcDbSpline
 70
0
 71
8
 72
46
 73
37
 74
0
 40
0.0
 40
0.0
 40
0.0
 40
0.0
 40
0.0
 40
0.0
 40
0.0
 40
0.0
 40
0.0
 40
0.07556578775065655
 40
0.07556578775065655
 40
0.07556578775065655
 40
0.07556578775065655
 40
0.07556578775065655
 40
0.07556578775065655
 40
0.07556578775065655
 40
0.13376626422851137
 40
0.13376626422851137
 40
0.13376626422851137
 40
0.13376626422851137
 40
0.13376626422851137
 40
0.13376626422851137
 40
0.13376626422851137
 40
0.31520706185632164
 40
0.31520706185632164
 40
0.31520706185632164
 40
0.31520706185632164
 40
0.31520706185632164
 40
0.31520706185632164
 40
0.31520706185632164
 40
0.6238262762332978
 40
0.6238262762332978
 40
0.6238262762332978
 40
0.6238262762332978
 40
0.6238262762332978
 40
0.6238262762332978
 40
0.6238262762332978
 40
1.0
 40
1.0
 40
1.0
 40
1.0
 40
1.0
 40
1.0
 40
1.0
 40
1.0
 40
1.0
 10
26.477660678086863
 20
259.0749780601817
 30
1211.0
 10
26.11364318139502
 20
259.1050823321107
 30
1211.0
 10
25.748676795659875
 20
259.1236334592058
 30
1211.0
 10
25.383195203844892
 20
259.1308065814495
 30
1211.0
 10
25.017606782325714
 20
259.1268579018827
 30
1211.0
 10
24.65229408039556
 20
259.112111169286
 30
1211.0
 10
24.287613255903278
 20
259.086944542694
 30
1211.0
 10
23.92389346702396
 20
259.05177783774116
 30
1211.0
 10
23.28227305521503
 20
258.9726187690038
 30
1211.0
 10
23.003370758203644
 20
258.9324516101323
 30
1211.0
 10
22.72474650412205
 20
258.8867139725952
 30
1211.0
 10
22.446417467964224
 20
258.83556115076095
 30
1211.0
 10
22.16840082472417
 20
258.77914843899686
 30
1211.0
 10
21.890713749395935
 20
258.71763113166816
 30
1211.0
 10
21.613373416973594
 20
258.6511645231384
 30
1211.0
 10
20.47291916487477
 20
258.35774794488964
 30
1211.0
 10
19.62077888165928
 20
258.0910063455386
 30
1211.0
 10
18.782813796383508
 20
257.7803985869946
 30
1211.0
 10
17.96165331964616
 20
257.42691765871456
 30
1211.0
 10
17.159715251368183
 20
257.03183488330205
 30
1211.0
 10
16.379199096670085
 20
256.59671273406656
 30
1211.0
 10
15.622076075324559
 20
256.1234256491705
 30
1211.0
 10
13.644990126313665
 20
254.74800954144524
 30
1211.0
 10
12.472384633279674
 20
253.7776780307792
 30
1211.0
 10
11.380616474884249
 20
252.71389732425672
 30
1211.0
 10
10.373866810479086
 20
251.56856737760762
 30
1211.0
 10
9.453330385883987
 20
250.35373791137926
 30
1211.0
 10
8.617895470567277
 20
249.08103856254098
 30
1211.0
 10
7.86483914639399
 20
247.76108097161364
 30
1211.0
 10
6.36830451714873
 20
244.74762867391883
 30
1211.0
 10
5.663073776071599
 20
243.0357536321256
 30
1211.0
 10
5.066434535799321
 20
241.28109361346358
 30
1211.0
 10
4.5697724508501665
 20
239.49526144205012
 30
1211.0
 10
4.164482174262753
 20
237.6876699705981
 30
1211.0
 10
3.8423508117945495
 20
235.86543087284053
 30
1211.0
 10
3.5958938135350955
 20
234.0332637069751
 30
1211.0
 10
3.418574329883427
 20
232.19344000548884
 30
1211.0
  0
SPLINE
  5
30
330
17
100
AcDbEntity
  8
0
100
AcDbSpline
 70
0
 71
1
 72
4
 73
2
 74
0
 40
0.0
 40
0.0
 40
1.0
 40
1.0
 10
26.477660681346208
 20
259.0749780998974
 30
1211.0
 10
26.477660681346208
 20
258.09999939999005
 30
1211.0
  0
LINE
  5
31
330
17
100
AcDbEntity
  8
0
100
AcDbLine
 10
26.477660687319613
 20
258.1
 30
1211.0
 11
30.435760003961214
 21
258.1
 31
1211.0
  0
SPLINE
  5
32
330
17
100
AcDbEntity
  8
0
100
AcDbSpline
 70
0
 71
8
 72
46
 73
37
 74
0
 40
0.0
 40
0.0
 40
0.0
 40
0.0
 40
0.0
 40
0.0
 40
0.0
 40
0.0
 40
0.0
 40
0.14884204528275824
 40
0.14884204528275824
 40
0.14884204528275824
 40
0.14884204528275824
 40
0.14884204528275824
 40
0.14884204528275824
 40
0.14884204528275824
 40
0.44110271677878976
 40
0.44110271677878976
 40
0.44110271677878976
 40
0.44110271677878976
 40
0.44110271677878976
 40
0.44110271677878976
 40
0.44110271677878976
 40
0.6736169125436896
 40
0.6736169125436896
 40
0.6736169125436896
 40
0.6736169125436896
 40
0.6736169125436896
 40
0.6736169125436896
 40
0.6736169125436896
 40
0.939364041948545
 40
0.939364041948545
 40
0.939364041948545
 40
0.939364041948545
 40
0.939364041948545
 40
0.939364041948545
 40
0.939364041948545
 40
1.0
 40
1.0
 40
1.0
 40
1.0
 40
1.0
 40
1.0
 40
1.0
 40
1.0
 40
1.0
 10
46.08364087990056
 20
235.89999998482148
 30
1211.0
 10
45.889229296842686
 20
236.43323742990538
 30
1211.0
 10
45.694376659951985
 20
236.9579756756909
 30
1211.0
 10
45.499090128400724
 20
237.47427945435163
 30
1211.0
 10
45.30337686136089
 20
237.9822134980622
 30
1211.0
 10
45.10724401800414
 20
238.48184253899788
 30
1211.0
 10
44.91069875750177
 20
238.9732313093347
 30
1211.0
 10
44.71374823902478
 20
239.4564445412496
 30
1211.0
 10
44.12889326024646
 20
240.86444031497987
 30
1211.0
 10
43.729031022953734
 20
241.7921127319517
 30
1211.0
 10
43.31586567548783
 20
242.71404636090367
 30
1211.0
 10
42.88835353011175
 20
243.62954191683096
 30
1211.0
 10
42.445324837210066
 20
244.5377038554434
 30
1211.0
 10
41.98545214050561
 20
245.43742489006655
 30
1211.0
 10
41.50719103811414
 20
246.3273569761572
 30
1211.0
 10
40.61205701543155
 20
247.90476438043183
 30
1211.0
 10
40.202694507548685
 20
248.59630722895383
 30
1211.0
 10
39.77961004390675
 20
249.27972527001262
 30
1211.0
 10
39.34177248922645
 20
249.95399451338673
 30
1211.0
 10
38.88808047273331
 20
250.61782014870087
 30
1211.0
 10
38.41733981057166
 20
251.26962116473186
 30
1211.0
 10
37.92822767483212
 20
251.90750557644995
 30
1211.0
 10
36.83751093804155
 20
253.2398300530782
 30
1211.0
 10
36.23011546242637
 20
253.92895921556064
 30
1211.0
 10
35.594635293726114
 20
254.59360289968143
 30
1211.0
 10
34.92890004464424
 20
255.22934056172411
 30
1211.0
 10
34.231113377247105
 20
255.83051178944143
 30
1211.0
 10
33.4999705273902
 20
256.39036001625624
 30
1211.0
 10
32.73498595764174
 20
256.90142455460625
 30
1211.0
 10
31.7552248464297
 20
257.4602682286968
 30
1211.0
 10
31.571515879125165
 20
257.56116313291375
 30
1211.0
 10
31.386148710394448
 20
257.65903602017113
 30
1211.0
 10
31.199156595131047
 20
257.75379542881683
 30
1211.0
 10
31.010577090357927
 20
257.8453532161386
 30
1211.0
 10
30.820452333244326
 20
257.9336252838184
 30
1211.0
 10
30.62882932840988
 20
258.0185323217306
 30
1211.0
 10
30.43576024451611
 20
258.1000005700837
 30
1211.0
  0
LINE
  5
33
330
17
100
AcDbEntity
  8
0
100
AcDbLine
 10
26.477660687319613
 20
235.9
 30
1211.0
 11
46.08364092153262
 21
235.9
 31
1211.0
  0
SPLINE
  5
34
330
17
100
AcDbEntity
  8
0
100
AcDbSpline
 70
0
 71
1
 72
4
 73
2
 74
0
 40
0.0
 40
0.0
 40
1.0
 40
1.0
 10
26.477660681346208
 20
235.9000006000011
 30
1211.0
 10
26.477660681346208
 20
232.09999939999986
 30
1211.0
  0
LINE
  5
35
330
17
100
AcDbEntity
  8
0
100
AcDbLine
 10
26.477660687319613
 20
232.1
 30
1211.0
 11
47.397082525603246
 21
232.1
 31
1211.0
  0
SPLINE
  5
36
330
17
100
AcDbEntity
  8
0
100
AcDbSpline
 70
0
 71
8
 72
32
 73
23
 74
0
 40
0.0
 40
0.0
 40
0.0
 40
0.0
 40
0.0
 40
0.0
 40
0.0
 40
0.0
 40
0.0
 40
0.4324959574392922
 40
0.4324959574392922
 40
0.4324959574392922
 40
0.4324959574392922
 40
0.4324959574392922
 40
0.4324959574392922
 40
0.4324959574392922
 40
0.9252049687013773
 40
0.9252049687013773
 40
0.9252049687013773
 40
0.9252049687013773
 40
0.9252049687013773
 40
0.9252049687013773
 40
0.9252049687013773
 40
1.0
 40
1.0
 40
1.0
 40
1.0
 40
1.0
 40
1.0
 40
1.0
 40
1.0
 40
1.0
 10
53.30847441176846
 20
209.90000000140668
 30
1211.0
 10
53.03878303971287
 20
211.11424529816827
 30
1211.0
 10
52.76435240022599
 20
212.32743418846715
 30
1211.0
 10
52.484967376315495
 20
213.53949417559386
 30
1211.0
 10
52.20038941757084
 20
214.75034433157037
 30
1211.0
 10
51.91035205150344
 20
215.9598943043086
 30
1211.0
 10
51.61455487595384
 20
217.16804299036124
 30
1211.0
 10
51.31265513216212
 20
218.37467667277718
 30
1211.0
 10
50.6529191071907
 20
220.952417162762
 30
1211.0
 10
50.2931592715472
 20
222.32298569754155
 30
1211.0
 10
49.92438675259517
 20
223.69118476589128
 30
1211.0
 10
49.545929490813904
 20
225.0567691201775
 30
1211.0
 10
49.15700293959122
 20
226.41942677041396
 30
1211.0
 10
48.75668155563787
 20
227.7787708270825
 30
1211.0
 10
48.34383986068942
 20
229.13432261294406
 30
1211.0
 10
47.85224077727339
 20
230.69058705458013
 30
1211.0
 10
47.787390580562345
 20
230.89476283408305
 30
1211.0
 10
47.7224819851623
 20
231.098000744489
 30
1211.0
 10
47.65751562452592
 20
231.3002972858979
 30
1211.0
 10
47.592492017550825
 20
231.50164895183772
 30
1211.0
 10
47.52741159320373
 20
231.7020522386639
 30
1211.0
 10
47.46227471514469
 20
231.90150365495845
 30
1211.0
 10
47.39708170635133
 20
232.0999997309292
 30
1211.0
  0
LINE
  5
37
330
17
100
AcDbEntity
  8
0
100
AcDbLine
 10
26.477660687319613
 20
209.9
 30
1211.0
 11
53.30847440543436
 21
209.9
 31
1211.0
  0
SPLINE
  5
38
330
17
100
AcDbEntity
  8
0
100
AcDbSpline
 70
0
 71
1
 72
4
 73
2
 74
0
 40
0.0
 40
0.0
 40
1.0
 40
1.0
 10
26.477660681346208
 20
209.90000060000008
 30
1211.0
 10
26.477660681346208
 20
206.09999939999994
 30
1211.0
  0
LINE
  5
39
330
17
100
AcDbEntity
  8
0
100
AcDbLine
 10
26.477660687319613
 20
206.1
 30
1211.0
 11
54.13194712623076
 21
206.1
 31
1211.0
  0
SPLINE
  5
3A
330
17
100
AcDbEntity
  8
0
100
AcDbSpline
 70
0
 71
8
 72
25
 73
16
 74
0
 40
0.0
 40
0.0
 40
0.0
 40
0.0
 40
0.0
 40
0.0
 40
0.0
 40
0.0
 40
0.0
 40
0.36933788799032347
 40
0.36933788799032347
 40
0.36933788799032347
 40
0.36933788799032347
 40
0.36933788799032347
 40
0.36933788799032347
 40
0.36933788799032347
 40
1.0
 40
1.0
 40
1.0
 40
1.0
 40
1.0
 40
1.0
 40
1.0
 40
1.0
 40
1.0
 10
58.27707938554903
 20
183.89999999722153
 30
1211.0
 10
58.10686048362395
 20
184.92874629118367
 30
1211.0
 10
57.93467591454567
 20
185.95716653268042
 30
1211.0
 10
57.760487226286905
 20
186.98524984561615
 30
1211.0
 10
57.58425343608318
 20
188.01298471456303
 30
1211.0
 10
57.40593078325135
 20
189.0403589455151
 30
1211.0
 10
57.225472440747865
 20
190.0673596200642
 30
1211.0
 10
57.04282817764424
 20
191.09397304172725
 30
1211.0
 10
56.542245326658616
 20
193.87249012539533
 30
1211.0
 10
56.22002622586115
 20
195.62356377898806
 30
1211.0
 10
55.89101432907924
 20
197.37335895092986
 30
1211.0
 10
55.55490492032689
 20
199.1218081674857
 30
1211.0
 10
55.21135804749207
 20
200.86882260438603
 30
1211.0
 10
54.859988738925516
 20
202.61428989042548
 30
1211.0
 10
54.500356556733976
 20
204.3580717690196
 30
1211.0
 10
54.13194712107325
 20
206.09999999890925
 30
1211.0
  0
LINE
  5
3B
330
17
100
AcDbEntity
  8
0
100
AcDbLine
 10
26.477660687319613
 20
183.9
 30
1211.0
 11
58.27707940234044
 21
183.9
 31
1211.0
  0
SPLINE
  5
3C
330
17
100
AcDbEntity
  8
0
100
AcDbSpline
 70
0
 71
1
 72
4
 73
2
 74
0
 40
0.0
 40
0.0
 40
1.0
 40
1.0
 10
26.477660681346208
 20
183.90000060000014
 30
1211.0
 10
26.477660681346208
 20
180.0999993999999
 30
1211.0
  0
LINE
  5
3D
330
17
100
AcDbEntity
  8
0
100
AcDbLine
 10
26.477660687319613
 20
180.1
 30
1211.0
 11
58.894006362253755
 21
180.1
 31
1211.0
  0
SPLINE
  5
3E
330
17
100
AcDbEntity
  8
0
100
AcDbSpline
 70
0
 71
8
 72
25
 73
16
 74
0
 40
0.0
 40
0.0
 40
0.0
 40
0.0
 40
0.0
 40
0.0
 40
0.0
 40
0.0
 40
0.0
 40
0.12799690740031594
 40
0.12799690740031594
 40
0.12799690740031594
 40
0.12799690740031594
 40
0.12799690740031594
 40
0.12799690740031594
 40
0.12799690740031594
 40
1.0
 40
1.0
 40
1.0
 40
1.0
 40
1.0
 40
1.0
 40
1.0
 40
1.0
 40
1.0
 10
62.07371499540587
 20
157.9000000015634
 30
1211.0
 10
62.02803108003935
 20
158.25591182801247
 30
1211.0
 10
61.98216856103408
 20
158.61180072768855
 30
1211.0
 10
61.936126873894196
 20
158.96766652680665
 30
1211.0
 10
61.88990544039187
 20
159.32350904931246
 30
1211.0
 10
61.84350366831863
 20
159.6793281168529
 30
1211.0
 10
61.796920951228245
 20
160.0351235487459
 30
1211.0
 10
61.75015666817123
 20
160.390895161949
 30
1211.0
 10
61.383378394354324
 20
163.17024050945548
 30
1211.0
 10
61.055092477879846
 20
165.59270656257033
 30
1211.0
 10
60.71814990925388
 20
168.0139902008526
 30
1211.0
 10
60.37231752332198
 20
170.4340286919561
 30
1211.0
 10
60.017325521010974
 20
172.85274631774533
 30
1211.0
 10
59.652861913931176
 20
175.2700534828697
 30
1211.0
 10
59.2785643621702
 20
177.6858454203558
 30
1211.0
 10
58.894006360360635
 20
180.09999999969855
 30
1211.0
  0
LINE
  5
3F
330
17
100
AcDbEntity
  8
0
100
AcDbLine
 10
26.477660687319613
 20
157.9
 30
1211.0
 11
62.073714983225926
 21
157.9
 31
1211.0
  0
SPLINE
  5
40
330
17
100
AcDbEntity
  8
0
100
AcDbSpline
 70
0
 71
1
 72
4
 73
2
 74
0
 40
0.0
 40
0.0
 40
1.0
 40
1.0
 10
26.477660681346208
 20
157.90000060000042
 30
1211.0
 10
26.477660681346208
 20
154.09999939999918
 30
1211.0
  0
LINE
  5
41
330
17
100
AcDbEntity
  8
0
100
AcDbLine
 10
26.477660687319613
 20
154.1
 30
1211.0
 11
62.55249925871406
 21
154.1
 31
1211.0
  0
SPLINE
  5
42
330
17
100
AcDbEntity
  8
0
100
AcDbSpline
 70
0
 71
8
 72
18
 73
9
 74
0
 40
0.0
 40
0.0
 40
0.0
 40
0.0
 40
0.0
 40
0.0
 40
0.0
 40
0.0
 40
0.0
 40
1.0
 40
1.0
 40
1.0
 40
1.0
 40
1.0
 40
1.0
 40
1.0
 40
1.0
 40
1.0
 10
65.00753511958682
 20
131.89999999937652
 30
1211.0
 10
64.73553420269556
 20
134.67871413964582
 30
1211.0
 10
64.45372910849608
 20
137.45646514308928
 30
1211.0
 10
64.16208125210775
 20
140.23321191687637
 30
1211.0
 10
63.86051966052729
 20
143.0089071650188
 30
1211.0
 10
63.54894040812436
 20
145.7834973215147
 30
1211.0
 10
63.22720419448615
 20
148.55692226473002
 30
1211.0
 10
62.89513206461058
 20
151.32911481301784
 30
1211.0
 10
62.552499271448426
 20
154.10000000157459
 30
1211.0
  0
LINE
  5
43
330
17
100
AcDbEntity
  8
0
100
AcDbLine
 10
26.477660687319613
 20
131.9
 30
1211.0
 11
65.00753512595615
 21
131.9
 31
1211.0
  0
SPLINE
  5
44
330
17
100
AcDbEntity
  8
0
100
AcDbSpline
 70
0
 71
1
 72
4
 73
2
 74
0
 40
0.0
 40
0.0
 40
1.0
 40
1.0
 10
26.477660681346208
 20
131.90000060000256
 30
1211.0
 10
26.477660681346208
 20
128.09999939999764
 30
1211.0
  0
LINE
  5
45
330
17
100
AcDbEntity
  8
0
100
AcDbLine
 10
26.477660687319613
 20
128.1
 30
1211.0
 11
65.37142699883063
 21
128.1
 31
1211.0
  0
SPLINE
  5
46
330
17
100
AcDbEntity
  8
0
100
AcDbSpline
 70
0
 71
8
 72
25
 73
16
 74
0
 40
0.0
 40
0.0
 40
0.0
 40
0.0
 40
0.0
 40
0.0
 40
0.0
 40
0.0
 40
0.0
 40
0.7124484600972912
 40
0.7124484600972912
 40
0.7124484600972912
 40
0.7124484600972912
 40
0.7124484600972912
 40
0.7124484600972912
 40
0.7124484600972912
 40
1.0
 40
1.0
 40
1.0
 40
1.0
 40
1.0
 40
1.0
 40
1.0
 40
1.0
 40
1.0
 10
67.19045816979946
 20
105.90000000061241
 30
1211.0
 10
67.05033144454359
 20
107.8795859574158
 30
1211.0
 10
66.90594276896158
 20
109.85887003807468
 30
1211.0
 10
66.75722068685144
 20
111.83783637560859
 30
1211.0
 10
66.60409281483791
 20
113.81646841068326
 30
1211.0
 10
66.4464858136005
 20
115.7947488896553
 30
1211.0
 10
66.28432535910136
 20
117.77265986261676
 30
1211.0
 10
66.11753611381314
 20
119.75018268143975
 30
1211.0
 10
65.87682478454352
 20
122.52528211264804
 30
1211.0
 10
65.80686930338115
 20
123.32287262561695
 30
1211.0
 10
65.73617224595665
 20
124.12006751171859
 30
1211.0
 10
65.66472990437474
 20
124.91686419636196
 30
1211.0
 10
65.59253819118274
 20
125.71325958759176
 30
1211.0
 10
65.51959295920517
 20
126.50925010830618
 30
1211.0
 10
65.44589032137851
 20
127.30483172847454
 30
1211.0
 10
65.37142697058576
 20
128.09999999735504
 30
1211.0
  0
LINE
  5
47
330
17
100
AcDbEntity
  8
0
100
AcDbLine
 10
26.477660687319613
 20
105.9
 30
1211.0
 11
67.1904581611472
 21
105.9
 31
1211.0
  0
SPLINE
  5
48
330
17
100
AcDbEntity
  8
0
100
AcDbSpline
 70
0
 71
1
 72
4
 73
2
 74
0
 40
0.0
 40
0.0
 40
1.0
 40
1.0
 10
26.477660681346208
 20
105.90000060000206
 30
1211.0
 10
26.477660681346208
 20
102.09999939999993
 30
1211.0
  0
LINE
  5
49
330
17
100
AcDbEntity
  8
0
100
AcDbLine
 10
26.477660687319613
 20
102.1
 30
1211.0
 11
67.45259691167166
 21
102.1
 31
1211.0
  0
SPLINE
  5
4A
330
17
100
AcDbEntity
  8
0
100
AcDbSpline
 70
0
 71
8
 72
25
 73
16
 74
0
 40
0.0
 40
0.0
 40
0.0
 40
0.0
 40
0.0
 40
0.0
 40
0.0
 40
0.0
 40
0.0
 40
0.07759001053658843
 40
0.07759001053658843
 40
0.07759001053658843
 40
0.07759001053658843
 40
0.07759001053658843
 40
0.07759001053658843
 40
0.07759001053658843
 40
1.0
 40
1.0
 40
1.0
 40
1.0
 40
1.0
 40
1.0
 40
1.0
 40
1.0
 40
1.0
 10
68.72557449567009
 20
79.8999999994371
 30
1211.0
 10
68.71524107983313
 20
80.11542146374563
 30
1211.0
 10
68.70486522231982
 20
80.33084092141085
 30
1211.0
 10
68.694446840164
 20
80.54625835977406
 30
1211.0
 10
68.68398585029313
 20
80.76167376612786
 30
1211.0
 10
68.67348216952784
 20
80.97708712771617
 30
1211.0
 10
68.66293571458155
 20
81.19249843173424
 30
1211.0
 10
68.65234640205998
 20
81.40790766532852
 30
1211.0
 10
68.51531518469378
 20
84.18413038753988
 30
1211.0
 10
68.3828476424645
 20
86.7446450650019
 30
1211.0
 10
68.24417128803606
 20
89.30483596827854
 30
1211.0
 10
68.09914379571418
 20
91.86467832212514
 30
1211.0
 10
67.94762064428426
 20
94.42414544871848
 30
1211.0
 10
67.78945501344825
 20
96.98320876061834
 30
1211.0
 10
67.62449768026178
 20
99.54183775372923
 30
1211.0
 10
67.45259691557122
 20
102.10000000026199
 30
1211.0
  0
LINE
  5
4B
330
17
100
AcDbEntity
  8
0
100
AcDbLine
 10
26.477660687319613
 20
79.9
 30
1211.0
 11
68.72557450740477
 21
79.9
 31
1211.0
  0
SPLINE
  5
4C
330
17
100
AcDbEntity
  8
0
100
AcDbSpline
 70
0
 71
1
 72
4
 73
2
 74
0
 40
0.0
 40
0.0
 40
1.0
 40
1.0
 10
26.477660681346208
 20
79.90000060000001
 30
1211.0
 10
26.477660681346208
 20
76.09999939999999
 30
1211.0
  0
LINE
  5
4D
330
17
100
AcDbEntity
  8
0
100
AcDbLine
 10
26.477660687319613
 20
76.1
 30
1211.0
 11
68.90211420313705
 21
76.1
 31
1211.0
  0
SPLINE
  5
4E
330
17
100
AcDbEntity
  8
0
100
AcDbSpline
 70
0
 71
8
 72
18
 73
9
 74
0
 40
0.0
 40
0.0
 40
0.0
 40
0.0
 40
0.0
 40
0.0
 40
0.0
 40
0.0
 40
0.0
 40
1.0
 40
1.0
 40
1.0
 40
1.0
 40
1.0
 40
1.0
 40
1.0
 40
1.0
 40
1.0
 10
69.71755206652688
 20
53.89999999929937
 30
1211.0
 10
69.63724142384835
 20
56.67574194091747
 30
1211.0
 10
69.55108385145635
 20
59.451313673332024
 30
1211.0
 10
69.45891730116236
 20
62.226695966410674
 30
1211.0
 10
69.36057749736551
 20
65.00186826695413
 30
1211.0
 10
69.25589779496616
 20
67.77680869568556
 30
1211.0
 10
69.14470903357581
 20
70.55149404412161
 30
1211.0
 10
69.0268393880238
 20
73.32589977132528
 30
1211.0
 10
68.90211421516055
 20
76.10000000054053
 30
1211.0
  0
LINE
  5
4F
330
17
100
AcDbEntity
  8
0
100
AcDbLine
 10
26.477660687319613
 20
53.9
 30
1211.0
 11
69.71755209074229
 21
53.9
 31
1211.0
  0
SPLINE
  5
50
330
17
100
AcDbEntity
  8
0
100
AcDbSpline
 70
0
 71
1
 72
4
 73
2
 74
0
 40
0.0
 40
0.0
 40
1.0
 40
1.0
 10
26.477660681346208
 20
53.90000060000026
 30
1211.0
 10
26.477660681346208
 20
50.09999939999937
 30
1211.0
  0
LINE
  5
51
330
17
100
AcDbEntity
  8
0
100
AcDbLine
 10
26.477660687319613
 20
50.1
 30
1211.0
 11
69.82274529569371
 21
50.1
 31
1211.0
  0
SPLINE
  5
52
330
17
100
AcDbEntity
  8
0
100
AcDbSpline
 70
0
 71
8
 72
18
 73
9
 74
0
 40
0.0
 40
0.0
 40
0.0
 40
0.0
 40
0.0
 40
0.0
 40
0.0
 40
0.0
 40
0.0
 40
1.0
 40
1.0
 40
1.0
 40
1.0
 40
1.0
 40
1.0
 40
1.0
 40
1.0
 40
1.0
 10
70.25959814379202
 20
27.90000000030072
 30
1211.0
 10
70.22267019947932
 20
30.67530966058265
 30
1211.0
 10
70.18099679851518
 20
33.450557137371284
 30
1211.0
 10
70.1344272620365
 20
36.22573092208286
 30
1211.0
 10
70.08280932173255
 20
39.000818198733626
 30
1211.0
 10
70.02598899107731
 20
41.77580484135069
 30
1211.0
 10
69.96381043286925
 20
44.55067541126499
 30
1211.0
 10
69.89611582307843
 20
47.325413154286295
 30
1211.0
 10
69.82274521100105
 20
50.099999997760435
 30
1211.0
  0
LINE
  5
53
330
17
100
AcDbEntity
  8
0
100
AcDbLine
 10
26.477660687319613
 20
27.9
 30
1211.0
 11
70.25959812118911
 21
27.9
 31
1211.0
  0
SPLINE
  5
54
330
17
100
AcDbEntity
  8
0
100
AcDbSpline
 70
0
 71
1
 72
4
 73
2
 74
0
 40
0.0
 40
0.0
 40
1.0
 40
1.0
 10
26.477660681346208
 20
27.900000600000002
 30
1211.0
 10
26.477660681346208
 20
24.099999399999998
 30
1211.0
  0
LINE
  5
55
330
17
100
AcDbEntity
  8
0
100
AcDbLine
 10
26.477660687319613
 20
24.1
 30
1211.0
 11
70.30630991068188
 21
24.1
 31
1211.0
  0
SPLINE
  5
56
330
17
100
AcDbEntity
  8
0
100
AcDbSpline
 70
0
 71
8
 72
18
 73
9
 74
0
 40
0.0
 40
0.0
 40
0.0
 40
0.0
 40
0.0
 40
0.0
 40
0.0
 40
0.0
 40
0.0
 40
1.0
 40
1.0
 40
1.0
 40
1.0
 40
1.0
 40
1.0
 40
1.0
 40
1.0
 40
1.0
 10
70.43669352299791
 20
1.8999999999971713
 30
1211.0
 10
70.43440582806471
 20
4.6750670153336555
 30
1211.0
 10
70.42840398359444
 20
7.4501258971448525
 30
1211.0
 10
70.41854498680091
 20
10.225172759957212
 30
1211.0
 10
70.40468481892782
 20
13.000202422977733
 30
1211.0
 10
70.38667832955613
 20
15.775208407920886
 30
1211.0
 10
70.36437911722271
 20
18.550182936717764
 30
1211.0
 10
70.3376394063503
 20
21.325116929107473
 30
1211.0
 10
70.30630992048886
 20
24.10000000011075
 30
1211.0
  0
LINE
  5
57
330
17
100
AcDbEntity
  8
0
100
AcDbLine
 10
26.477660687319613
 20
1.9
 30
1211.0
 11
70.43669352641847
 21
1.9
 31
1211.0
  0
SPLINE
  5
58
330
17
100
AcDbEntity
  8
0
100
AcDbSpline
 70
0
 71
1
 72
4
 73
2
 74
0
 40
0.0
 40
0.0
 40
0.9999993684216398
 40
0.9999993684216398
 10
26.477660681346208
 20
1.9000006000000558
 30
1211.0
 10
26.477660681346208
 20
-6.553790374438061e-17
 30
1211.0
  0
SPLINE
  5
59
330
17
100
AcDbEntity
  8
0
100
AcDbSpline
 70
0
 71
1
 72
4
 73
2
 74
0
 40
0.0
 40
0.0
 40
1.0
 40
1.0
 10
26.477660681346208
 20
-1.9000006000000011
 30
1211.0
 10
26.477660681346208
 20
1.2000000211287443e-06
 30
1211.0
  0
LINE
  5
5A
330
17
100
AcDbEntity
  8
0
100
AcDbLine
 10
26.47766068731962
 20
-1.9
 30
1211.0
 11
70.43680931088025
 21
-1.9
 31
1211.0
  0
SPLINE
  5
5B
330
17
100
AcDbEntity
  8
0
100
AcDbSpline
 70
0
 71
8
 72
18
 73
9
 74
0
 40
0.0
 40
0.0
 40
0.0
 40
0.0
 40
0.0
 40
0.0
 40
0.0
 40
0.0
 40
0.0
 40
1.0
 40
1.0
 40
1.0
 40
1.0
 40
1.0
 40
1.0
 40
1.0
 40
1.0
 40
1.0
 10
70.30770859860971
 20
-24.10000000019913
 30
1211.0
 10
70.33889302936063
 20
-21.32513855147753
 30
1211.0000000000002
 10
70.36548136326769
 20
-18.55022501767378
 30
1211.0000000000002
 10
70.38762387439436
 20
-15.775267783456625
 30
1211.0000000000002
 10
70.4054693170232
 20
-13.000273521967015
 30
1211.0000000000002
 10
70.41916505083893
 20
-10.225247199060174
 30
1211.0000000000002
 10
70.42885716595359
 20
-7.450192077524533
 30
1211.0000000000002
 10
70.43469060918918
 20
-4.6751097213354615
 30
1211.0000000000002
 10
70.43680931303167
 20
-1.9000000000016393
 30
1211.0000000000002
  0
LINE
  5
5C
330
17
100
AcDbEntity
  8
0
100
AcDbLine
 10
26.47766068731962
 20
-24.1
 30
1211.0
 11
70.30770858089078
 21
-24.1
 31
1211.0
  0
SPLINE
  5
5D
330
17
100
AcDbEntity
  8
0
100
AcDbSpline
 70
0
 71
1
 72
4
 73
2
 74
0
 40
0.0
 40
0.0
 40
1.0
 40
1.0
 10
26.477660681346208
 20
-27.900000600000034
 30
1211.0
 10
26.477660681346208
 20
-24.099999399999938
 30
1211.0
  0
LINE
  5
5E
330
17
100
AcDbEntity
  8
0
100
AcDbLine
 10
26.47766068731962
 20
-27.9
 30
1211.0
 11
70.26118960907678
 21
-27.9
 31
1211.0
  0
SPLINE
  5
5F
330
17
100
AcDbEntity
  8
0
100
AcDbSpline
 70
0
 71
8
 72
18
 73
9
 74
0
 40
0.0
 40
0.0
 40
0.0
 40
0.0
 40
0.0
 40
0.0
 40
0.0
 40
0.0
 40
0.0
 40
1.0
 40
1.0
 40
1.0
 40
1.0
 40
1.0
 40
1.0
 40
1.0
 40
1.0
 40
1.0
 10
69.82516524255303
 20
-50.09999999899401
 30
1211.0
 10
69.89847270923214
 20
-47.325398295367606
 30
1211.0
 10
69.96609052606622
 20
-44.55065016090026
 30
1211.0
 10
70.02817968966127
 20
-41.775774073587
 30
1211.0
 10
70.08489907836453
 20
-39.00078677819505
 30
1211.0
 10
70.13640558394582
 20
-36.225703290829045
 30
1211.0
 10
70.18285423980277
 20
-33.45053690333758
 30
1211.0
 10
70.22439834710632
 20
-30.6752991876189
 30
1211.0
 10
70.26118960030362
 20
-27.89999999988372
 30
1211.0
  0
LINE
  5
60
330
17
100
AcDbEntity
  8
0
100
AcDbLine
 10
26.47766068731962
 20
-50.1
 30
1211.0
 11
69.82516528062911
 21
-50.1
 31
1211.0
  0
SPLINE
  5
61
330
17
100
AcDbEntity
  8
0
100
AcDbSpline
 70
0
 71
1
 72
4
 73
2
 74
0
 40
0.0
 40
0.0
 40
1.0
 40
1.0
 10
26.477660681346208
 20
-53.9000006
 30
1211.0
 10
26.477660681346208
 20
-50.0999994
 30
1211.0
  0
LINE
  5
62
330
17
100
AcDbEntity
  8
0
100
AcDbLine
 10
26.47766068731962
 20
-53.9
 30
1211.0
 11
69.72004777163325
 21
-53.9
 31
1211.0
  0
SPLINE
  5
63
330
17
100
AcDbEntity
  8
0
100
AcDbSpline
 70
0
 71
8
 72
18
 73
9
 74
0
 40
0.0
 40
0.0
 40
0.0
 40
0.0
 40
0.0
 40
0.0
 40
0.0
 40
0.0
 40
0.0
 40
1.0
 40
1.0
 40
1.0
 40
1.0
 40
1.0
 40
1.0
 40
1.0
 40
1.0
 40
1.0
 10
68.9045192979531
 20
-76.10000000039709
 30
1211.0
 10
69.02932087737503
 20
-73.32590784734406
 30
1211.0
 10
69.14724646413362
 20
-70.55150322059168
 30
1211.0
 10
69.25847159228769
 20
-67.7768148589002
 30
1211.0
 10
69.3631690174442
 20
-65.0018697413744
 30
1211.0
 10
69.46150886685022
 20
-62.22669309283801
 30
1211.0
 10
69.55365878266946
 20
-59.451308388912715
 30
1211.0
 10
69.63978405986492
 20
-56.675737360860225
 30
1211.0
 10
69.72004778010896
 20
-53.90000000024512
 30
1211.0
  0
LINE
  5
64
330
17
100
AcDbEntity
  8
0
100
AcDbLine
 10
26.47766068731962
 20
-76.1
 30
1211.0
 11
68.90451928912609
 21
-76.1
 31
1211.0
  0
SPLINE
  5
65
330
17
100
AcDbEntity
  8
0
100
AcDbSpline
 70
0
 71
1
 72
4
 73
2
 74
0
 40
0.0
 40
0.0
 40
1.0
 40
1.0
 10
26.477660681346208
 20
-79.90000060000018
 30
1211.0
 10
26.477660681346208
 20
-76.09999939999999
 30
1211.0
  0
LINE
  5
66
330
17
100
AcDbEntity
  8
0
100
AcDbLine
 10
26.47766068731962
 20
-79.9
 30
1211.0
 11
68.72785702775116
 21
-79.9
 31
1211.0
  0
SPLINE
  5
67
330
17
100
AcDbEntity
  8
0
100
AcDbSpline
 70
0
 71
8
 72
18
 73
9
 74
0
 40
0.0
 40
0.0
 40
0.0
 40
0.0
 40
0.0
 40
0.0
 40
0.0
 40
0.0
 40
0.0
 40
1.0
 40
1.0
 40
1.0
 40
1.0
 40
1.0
 40
1.0
 40
1.0
 40
1.0
 40
1.0
 10
67.45338257594899
 20
-102.09999999918588
 30
1211.0
 10
67.64002125780439
 20
-99.3266734184997
 30
1211.0
 10
67.81847094220035
 20
-96.55279469757114
 30
1211.0
 10
67.98892620713706
 20
-93.77840308353537
 30
1211.0
 10
68.15157806906035
 20
-91.00353602881448
 30
1211.0
 10
68.30661416366763
 20
-88.22822919780256
 30
1211.0
 10
68.45421891650605
 20
-85.45251647311649
 30
1211.0
 10
68.59457370479406
 20
-82.67642996147137
 30
1211.0
 10
68.7278570118976
 20
-79.89999999923894
 30
1211.0
  0
LINE
  5
68
330
17
100
AcDbEntity
  8
0
100
AcDbLine
 10
26.47766068731962
 20
-102.1
 30
1211.0
 11
67.4533825880458
 21
-102.1
 31
1211.0
  0
SPLINE
  5
69
330
17
100
AcDbEntity
  8
0
100
AcDbSpline
 70
0
 71
1
 72
4
 73
2
 74
0
 40
0.0
 40
0.0
 40
1.0
 40
1.0
 10
26.477660681346208
 20
-105.90000060000003
 30
1211.0
 10
26.477660681346208
 20
-102.09999939999999
 30
1211.0
  0
LINE
  5
6A
330
17
100
AcDbEntity
  8
0
100
AcDbLine
 10
26.47766068731962
 20
-105.9
 30
1211.0
 11
67.19083687511224
 21
-105.9
 31
1211.0
  0
SPLINE
  5
6B
330
17
100
AcDbEntity
  8
0
100
AcDbSpline
 70
0
 71
8
 72
25
 73
16
 74
0
 40
0.0
 40
0.0
 40
0.0
 40
0.0
 40
0.0
 40
0.0
 40
0.0
 40
0.0
 40
0.0
 40
0.1954788906297809
 40
0.1954788906297809
 40
0.1954788906297809
 40
0.1954788906297809
 40
0.1954788906297809
 40
0.1954788906297809
 40
0.1954788906297809
 40
1.0
 40
1.0
 40
1.0
 40
1.0
 40
1.0
 40
1.0
 40
1.0
 40
1.0
 40
1.0
 10
65.36837871178662
 20
-128.09999997042627
 30
1211.0
 10
65.41923402580564
 20
-127.55808299038071
 30
1211.0
 10
65.4697199503575
 20
-127.01613133496645
 30
1211.0
 10
65.51983796291911
 20
-126.47414543837516
 30
1211.0
 10
65.56958961136503
 20
-125.93212573766188
 30
1211.0
 10
65.61897651396747
 20
-125.39007267274496
 30
1211.0
 10
65.66800035939626
 20
-124.84798668640613
 30
1211.0
 10
65.71666290671892
 20
-124.30586822429039
 30
1211.0
 10
65.96376415906425
 20
-121.53242047431803
 30
1211.0
 10
66.1564674225358
 20
-119.30059837973144
 30
1211.0
 10
66.34318768524288
 20
-117.06827661894589
 30
1211.0
 10
66.52403502925621
 20
-114.83547959055817
 30
1211.0
 10
66.69911778231959
 20
-112.60223092672429
 30
1211.0
 10
66.86854258731718
 20
-110.36855349577117
 30
1211.0
 10
67.03241446849383
 20
-108.13446940467114
 30
1211.0
 10
67.19083689474465
 20
-105.90000000139193
 30
1211.0
  0
LINE
  5
6C
330
17
100
AcDbEntity
  8
0
100
AcDbLine
 10
26.47766068731962
 20
-128.1
 30
1211.0
 11
65.36837902692581
 21
-128.1
 31
1211.0
  0
SPLINE
  5
6D
330
17
100
AcDbEntity
  8
0
100
AcDbSpline
 70
0
 71
1
 72
4
 73
2
 74
0
 40
0.0
 40
0.0
 40
1.0
 40
1.0
 10
26.477660681346208
 20
-131.9000006
 30
1211.0
 10
26.477660681346208
 20
-128.09999939999992
 30
1211.0
  0
LINE
  5
6E
330
17
100
AcDbEntity
  8
0
100
AcDbLine
 10
26.47766068731962
 20
-131.9
 30
1211.0
 11
65.00370237067588
 21
-131.9
 31
1211.0
  0
SPLINE
  5
6F
330
17
100
AcDbEntity
  8
0
100
AcDbSpline
 70
0
 71
8
 72
18
 73
9
 74
0
 40
0.0
 40
0.0
 40
0.0
 40
0.0
 40
0.0
 40
0.0
 40
0.0
 40
0.0
 40
0.0
 40
1.0
 40
1.0
 40
1.0
 40
1.0
 40
1.0
 40
1.0
 40
1.0
 40
1.0
 40
1.0
 10
62.54299637403581
 20
-154.1000000034099
 30
1211.0
 10
62.886432287286105
 20
-151.32913413131186
 30
1211.0
 10
63.219285284017
 20
-148.5569545628036
 30
1211.0
 10
63.541777580442215
 20
-145.78353750632147
 30
1211.0
 10
63.854085756331465
 20
-143.00895070086148
 30
1211.0
 10
64.15634710368431
 20
-140.2332541921156
 30
1211.0
 10
64.44866337716896
 20
-137.456500794168
 30
1211.0
 10
64.73110294921631
 20
-134.67873636201773
 30
1211.0
 10
65.00370237265996
 20
-131.9000000001946
 30
1211.0
  0
LINE
  5
70
330
17
100
AcDbEntity
  8
0
100
AcDbLine
 10
26.47766068731962
 20
-154.1
 30
1211.0
 11
62.542996346524646
 21
-154.1
 31
1211.0
  0
SPLINE
  5
71
330
17
100
AcDbEntity
  8
0
100
AcDbSpline
 70
0
 71
1
 72
4
 73
2
 74
0
 40
0.0
 40
0.0
 40
1.0
 40
1.0
 10
26.477660681346208
 20
-157.90000060000003
 30
1211.0
 10
26.477660681346208
 20
-154.0999994
 30
1211.0
  0
LINE
  5
72
330
17
100
AcDbEntity
  8
0
100
AcDbLine
 10
26.47766068731962
 20
-157.9
 30
1211.0
 11
62.06308864724518
 21
-157.9
 31
1211.0
  0
SPLINE
  5
73
330
17
100
AcDbEntity
  8
0
100
AcDbSpline
 70
0
 71
8
 72
25
 73
16
 74
0
 40
0.0
 40
0.0
 40
0.0
 40
0.0
 40
0.0
 40
0.0
 40
0.0
 40
0.0
 40
0.0
 40
0.6118289566704571
 40
0.6118289566704571
 40
0.6118289566704571
 40
0.6118289566704571
 40
0.6118289566704571
 40
0.6118289566704571
 40
0.6118289566704571
 40
1.0
 40
1.0
 40
1.0
 40
1.0
 40
1.0
 40
1.0
 40
1.0
 40
1.0
 40
1.0
 10
58.87624067102125
 20
-180.09999999746913
 30
1211.0
 10
59.14662813687744
 20
-178.40615663110287
 30
1211.0
 10
59.41196236558305
 20
-176.71150730398904
 30
1211.0
 10
59.672390041279016
 20
-175.01609404402421
 30
1211.0
 10
59.92804246842827
 20
-173.31995388632873
 30
1211.0
 10
60.17903783760889
 20
-171.62311925677488
 30
1211.0
 10
60.4254828096786
 20
-169.92561824161652
 30
1211.0
 10
60.66747384265619
 20
-168.22747481688677
 30
1211.0
 10
61.05585827660238
 20
-165.45093786626444
 30
1211.0
 10
61.20485961092093
 20
-164.37292148203989
 30
1211.0
 10
61.35212491597295
 20
-163.2946660599021
 30
1211.0
 10
61.497674907168225
 20
-162.2161774497468
 30
1211.0
 10
61.6415288929657
 20
-161.13746126282956
 30
1211.0
 10
61.78370486680824
 20
-160.05852288298024
 30
1211.0
 10
61.92421958737051
 20
-158.97936747639244
 30
1211.0
 10
62.06308864849062
 20
-157.90000000016025
 30
1211.0
  0
LINE
  5
74
330
17
100
AcDbEntity
  8
0
100
AcDbLine
 10
26.47766068731962
 20
-180.1
 30
1211.0
 11
58.87624068687613
 21
-180.1
 31
1211.0
  0
SPLINE
  5
75
330
17
100
AcDbEntity
  8
0
100
AcDbSpline
 70
0
 71
1
 72
4
 73
2
 74
0
 40
0.0
 40
0.0
 40
1.0
 40
1.0
 10
26.477660681346208
 20
-183.9000006000001
 30
1211.0
 10
26.477660681346208
 20
-180.09999939999994
 30
1211.0
  0
LINE
  5
76
330
17
100
AcDbEntity
  8
0
100
AcDbLine
 10
26.47766068731962
 20
-183.9
 30
1211.0
 11
58.258030328381665
 21
-183.9
 31
1211.0
  0
SPLINE
  5
77
330
17
100
AcDbEntity
  8
0
100
AcDbSpline
 70
0
 71
8
 72
25
 73
16
 74
0
 40
0.0
 40
0.0
 40
0.0
 40
0.0
 40
0.0
 40
0.0
 40
0.0
 40
0.0
 40
0.0
 40
0.3624056060203989
 40
0.3624056060203989
 40
0.3624056060203989
 40
0.3624056060203989
 40
0.3624056060203989
 40
0.3624056060203989
 40
0.3624056060203989
 40
1.0
 40
1.0
 40
1.0
 40
1.0
 40
1.0
 40
1.0
 40
1.0
 40
1.0
 40
1.0
 10
54.10550117049801
 20
-206.10000000173443
 30
1211.0
 10
54.31752119821448
 20
-205.09901364229972
 30
1211.0
 10
54.52664658727012
 20
-204.0974139827913
 30
1211.0
 10
54.73297473323516
 20
-203.09523223424378
 30
1211.0
 10
54.936594983666545
 20
-202.09249636841128
 30
1211.0
 10
55.13758979465098
 20
-201.0892313713337
 30
1211.0
 10
55.33603558289773
 20
-200.0854594305058
 30
1211.0
 10
55.53200343413228
 20
-199.08120009153373
 30
1211.0
 10
56.06609118331206
 20
-196.30881011003902
 30
1211.0
 10
56.3991536631826
 20
-194.53971897476788
 30
1211.0
 10
56.72510759553502
 20
-192.7692962483506
 30
1211.0
 10
57.04426640505088
 20
-190.99763032495684
 30
1211.0
 10
57.356905828315774
 20
-189.22480032357677
 30
1211.0
 10
57.663270709411364
 20
-187.45087723864987
 30
1211.0
 10
57.963579971544135
 20
-185.675924779975
 30
1211.0
 10
58.258030359759566
 20
-183.9000000052024
 30
1211.0
  0
LINE
  5
78
330
17
100
AcDbEntity
  8
0
100
AcDbLine
 10
26.47766068731962
 20
-206.1
 30
1211.0
 11
54.10550116230981
 21
-206.1
 31
1211.0
  0
SPLINE
  5
79
330
17
100
AcDbEntity
  8
0
100
AcDbSpline
 70
0
 71
1
 72
4
 73
2
 74
0
 40
0.0
 40
0.0
 40
1.0
 40
1.0
 10
26.477660681346208
 20
-209.90000060000008
 30
1211.0
 10
26.477660681346208
 20
-206.09999939999992
 30
1211.0
  0
LINE
  5
7A
330
17
100
AcDbEntity
  8
0
100
AcDbLine
 10
26.47766068731962
 20
-209.9
 30
1211.0
 11
53.280850926473654
 21
-209.9
 31
1211.0
  0
SPLINE
  5
7B
330
17
100
AcDbEntity
  8
0
100
AcDbSpline
 70
0
 71
8
 72
25
 73
16
 74
0
 40
0.0
 40
0.0
 40
0.0
 40
0.0
 40
0.0
 40
0.0
 40
0.0
 40
0.0
 40
0.0
 40
0.7256216035629425
 40
0.7256216035629425
 40
0.7256216035629425
 40
0.7256216035629425
 40
0.7256216035629425
 40
0.7256216035629425
 40
0.7256216035629425
 40
1.0
 40
1.0
 40
1.0
 40
1.0
 40
1.0
 40
1.0
 40
1.0
 40
1.0
 40
1.0
 10
47.364428751466676
 20
-232.10000001169274
 30
1211.0
 10
48.01507595218142
 20
-230.11953736347868
 30
1211.0
 10
48.63254376053639
 20
-228.12821062906914
 30
1211.0
 10
49.222270725733345
 20
-226.12833358934935
 30
1211.0
 10
49.78777736375061
 20
-224.12148456423523
 30
1211.0
 10
50.331839138077
 20
-222.10885140438288
 30
1211.0
 10
50.856595213236744
 20
-220.09126174317527
 30
1211.0
 10
51.363843916765504
 20
-218.0692730152489
 30
1211.0
 10
52.04083825594863
 20
-215.2770600280407
 30
1211.0
 10
52.22429464218254
 20
-214.51038223497284
 30
1211.0
 10
52.405534038126376
 20
-213.74317565383
 30
1211.0
 10
52.58462938611346
 20
-212.9754644656545
 30
1211.0
 10
52.761648152051784
 20
-212.20727113100742
 30
1211.0
 10
52.9366530038887
 20
-211.4386165389119
 30
1211.0
 10
53.10970236854632
 20
-210.66952012899446
 30
1211.0
 10
53.28085089323249
 20
-209.8999999926069
 30
1211.0
  0
LINE
  5
7C
330
17
100
AcDbEntity
  8
0
100
AcDbLine
 10
26.47766068731962
 20
-232.1
 30
1211.0
 11
47.364428715875924
 21
-232.1
 31
1211.0
  0
SPLINE
  5
7D
330
17
100
AcDbEntity
  8
0
100
AcDbSpline
 70
0
 71
1
 72
4
 73
2
 74
0
 40
0.0
 40
0.0
 40
1.0
 40
1.0
 10
26.477660681346208
 20
-235.90000060000008
 30
1211.0
 10
26.477660681346208
 20
-232.09999939999992
 30
1211.0
  0
LINE
  5
7E
330
17
100
AcDbEntity
  8
0
100
AcDbLine
 10
26.47766068731962
 20
-235.9
 30
1211.0
 11
46.05078189065824
 21
-235.9
 31
1211.0
  0
SPLINE
  5
7F
330
17
100
AcDbEntity
  8
0
100
AcDbSpline
 70
0
 71
8
 72
46
 73
37
 74
0
 40
0.0
 40
0.0
 40
0.0
 40
0.0
 40
0.0
 40
0.0
 40
0.0
 40
0.0
 40
0.0
 40
0.12127457227391801
 40
0.12127457227391801
 40
0.12127457227391801
 40
0.12127457227391801
 40
0.12127457227391801
 40
0.12127457227391801
 40
0.12127457227391801
 40
0.279695676043418
 40
0.279695676043418
 40
0.279695676043418
 40
0.279695676043418
 40
0.279695676043418
 40
0.279695676043418
 40
0.279695676043418
 40
0.555546873245982
 40
0.555546873245982
 40
0.555546873245982
 40
0.555546873245982
 40
0.555546873245982
 40
0.555546873245982
 40
0.555546873245982
 40
0.9201482703470404
 40
0.9201482703470404
 40
0.9201482703470404
 40
0.9201482703470404
 40
0.9201482703470404
 40
0.9201482703470404
 40
0.9201482703470404
 40
1.0
 40
1.0
 40
1.0
 40
1.0
 40
1.0
 40
1.0
 40
1.0
 40
1.0
 40
1.0
 10
30.41924090028995
 20
-258.10000099185015
 30
1211.0
 10
30.807209423882277
 20
-257.93597244736713
 30
1211.0
 10
31.189309087343183
 20
-257.7580284282533
 30
1211.0
 10
31.56513154763252
 20
-257.5667669768085
 30
1211.0
 10
31.934363311368042
 20
-257.3628690988568
 30
1211.0
 10
32.29677301218202
 20
-257.14707075198294
 30
1211.0
 10
32.65220011535595
 20
-256.92013768315326
 30
1211.0
 10
33.00054538917126
 20
-256.68284416658923
 30
1211.0
 10
33.78749704340811
 20
-256.11344732103174
 30
1211.0
 10
34.22124423196456
 20
-255.77443902408837
 30
1211.0
 10
34.64310693996433
 20
-255.42045943191334
 30
1211.0
 10
35.053314682146905
 20
-255.05296392069852
 30
1211.0
 10
35.452189539776285
 20
-254.6732959113497
 30
1211.0
 10
35.84012044457395
 20
-254.2826578986122
 30
1211.0
 10
36.21754680291858
 20
-253.88209321081715
 30
1211.0
 10
37.22469586423668
 20
-252.7592357212652
 30
1211.0
 10
37.83378015266891
 20
-252.0188589869534
 30
1211.0
 10
38.41492645729395
 20
-251.25586564297396
 30
1211.0
 10
38.97047873684411
 20
-250.4739760887327
 30
1211.0
 10
39.502540827644644
 20
-249.6762136154235
 30
1211.0
 10
40.013047858482864
 20
-248.86495547676853
 30
1211.0
 10
40.503803469629005
 20
-248.04195944187498
 30
1211.0
 10
41.60131366974555
 20
-246.10663465083718
 30
1211.0
 10
42.1942558077658
 20
-244.98699766091468
 30
1211.0
 10
42.759087794349036
 20
-243.85264440527612
 30
1211.0
 10
43.298704223114186
 20
-242.7060474183449
 30
1211.0
 10
43.81550492908471
 20
-241.54915804737882
 30
1211.0
 10
44.311554880994095
 20
-240.383482366992
 30
1211.0
 10
44.78865161343397
 20
-239.2101130419846
 30
1211.0
 10
45.349095576139476
 20
-237.77126031918797
 30
1211.0
 10
45.449669643145725
 20
-237.51057937158492
 30
1211.0
 10
45.5501313617789
 20
-237.2477075450489
 30
1211.0
 10
45.650482993782454
 20
-236.98262857793685
 30
1211.0
 10
45.75072501802013
 20
-236.71532849660227
 30
1211.0
 10
45.850856647995506
 20
-236.44579580679795
 30
1211.0
 10
45.95087634937158
 20
-236.1740216850785
 30
1211.0
 10
46.05078235749026
 20
-235.9000001702031
 30
1211.0
  0
LINE
  5
80
330
17
100
AcDbEntity
  8
0
100
AcDbLine
 10
26.47766068731962
 20
-258.1
 30
1211.0
 11
30.419240480947337
 21
-258.1
 31
1211.0
  0
SPLINE
  5
81
330
17
100
AcDbEntity
  8
0
100
AcDbSpline
 70
0
 71
1
 72
4
 73
2
 74
0
 40
0.0
 40
0.0
 40
1.0
 40
1.0
 10
26.477660681346208
 20
-259.0749076264493
 30
1211.0
 10
26.477660681346208
 20
-258.09999939999994
 30
1211.0
  0
SPLINE
  5
82
330
17
100
AcDbEntity
  8
0
100
AcDbSpline
 70
0
 71
8
 72
53
 73
44
 74
0
 40
0.0
 40
0.0
 40
0.0
 40
0.0
 40
0.0
 40
0.0
 40
0.0
 40
0.0
 40
0.0
 40
0.02462812496075445
 40
0.02462812496075445
 40
0.02462812496075445
 40
0.02462812496075445
 40
0.02462812496075445
 40
0.02462812496075445
 40
0.02462812496075445
 40
0.04520607922939984
 40
0.04520607922939984
 40
0.04520607922939984
 40
0.04520607922939984
 40
0.04520607922939984
 40
0.04520607922939984
 40
0.04520607922939984
 40
0.05285184402540486
 40
0.05285184402540486
 40
0.05285184402540486
 40
0.05285184402540486
 40
0.05285184402540486
 40
0.05285184402540486
 40
0.05285184402540486
 40
0.05674678659859443
 40
0.05674678659859443
 40
0.05674678659859443
 40
0.05674678659859443
 40
0.05674678659859443
 40
0.05674678659859443
 40
0.05674678659859443
 40
0.06064172917178553
 40
0.06064172917178553
 40
0.06064172917178553
 40
0.06064172917178553
 40
0.06064172917178553
 40
0.06064172917178553
 40
0.06064172917178553
 40
0.06572437130090558
 40
0.06572437130090558
 40
0.06572437130090558
 40
0.06572437130090558
 40
0.06572437130090558
 40
0.06572437130090558
 40
0.06572437130090558
 40
0.06572437130090558
 40
0.06572437130090558
 10
3.4185743298834126
 20
-232.19344000548884
 30
1211.0
 10
3.5958924910362686
 20
-234.0332499850501
 30
1211.0
 10
3.8423472591021692
 20
-235.86540489019634
 30
1211.0
 10
4.16447106756633
 20
-237.6876314858971
 30
1211.0
 10
4.569742320647684
 20
-239.49521141700478
 30
1211.0
 10
5.066366465425467
 20
-241.2810369214907
 30
1211.0
 10
5.662939999686056
 20
-243.03570178718974
 30
1211.0
 10
6.368067915983031
 20
-244.74760227787513
 30
1211.0
 10
7.876772160662611
 20
-247.78620425601602
 30
1211.0
 10
8.645073643278806
 20
-249.12992489786612
 30
1211.0
 10
9.498884347624085
 20
-250.42449834951393
 30
1211.0
 10
10.441045074584324
 20
-251.65866043407962
 30
1211.0
 10
11.472654898688546
 20
-252.82007820099415
 30
1211.0
 10
12.59231518551708
 20
-253.89600706825686
 30
1211.0
 10
13.795402789435038
 20
-254.8739046118343
 30
1211.0
 10
15.547384959866916
 20
-256.06534331822866
 30
1211.0
 10
16.032253660365065
 20
-256.37302752806175
 30
1211.0
 10
16.526925369186184
 20
-256.66507160057694
 30
1211.0
 10
17.030898042056435
 20
-256.9409597619076
 30
1211.0
 10
17.54362405256943
 20
-257.2002254929829
 30
1211.0
 10
18.064510405763702
 20
-257.4424512385467
 30
1211.0
 10
18.592918951700174
 20
-257.6672681161765
 30
1211.0
 10
19.400835050717795
 20
-257.9798511482734
 30
1211.0
 10
19.6742949243433
 20
-258.0803652079632
 30
1211.0
 10
19.948473754946914
 20
-258.1759291425107
 30
1211.0
 10
20.22329907756147
 20
-258.266574290055
 30
1211.0
 10
20.49869842722189
 20
-258.3523319887349
 30
1211.0
 10
20.774599338965178
 20
-258.4332335766891
 30
1211.0
 10
21.050929347830404
 20
-258.50931039205625
 30
1211.0
 10
21.6043026298872
 20
-258.6518771538936
 30
1211.0
 10
21.881345903078874
 20
-258.7183671003638
 30
1211.0
 10
22.15872897026324
 20
-258.77990829177503
 30
1211.0
 10
22.43643499326987
 20
-258.8363454075151
 30
1211.0
 10
22.714447133928417
 20
-258.8875231269701
 30
1211.0
 10
22.992748554068637
 20
-258.9332861295243
 30
1211.0
 10
23.27132241552037
 20
-258.97347909456016
 30
1211.0
 10
23.914005866905438
 20
-259.05292464596494
 30
1211.0
 10
24.279137710964793
 20
-259.08825713395333
 30
1211.0
 10
24.64524102867338
 20
-259.113486813445
 30
1211.0
 10
25.011981121834708
 20
-259.12818626946614
 30
1211.0
 10
25.378995650894403
 20
-259.1319707975865
 30
1211.0
 10
25.745895261833
 20
-259.12451156723
 30
1211.0
 10
26.11226416673108
 20
-259.1055491747578
 30
1211.0
 10
26.477660678006878
 20
-259.0749075863241
 30
1211.0
  0
SPLINE
  5
83
330
17
100
AcDbEntity
  8
0
100
AcDbSpline
 70
0
 71
8
 72
417
 73
408
 74
0
 40
0.0
 40
0.0
 40
0.0
 40
0.0
 40
0.0
 40
0.0
 40
0.0
 40
0.0
 40
0.0
 40
0.0032873863824337264
 40
0.0032873863824337264
 40
0.0032873863824337264
 40
0.0032873863824337264
 40
0.0032873863824337264
 40
0.0032873863824337264
 40
0.0032873863824337264
 40
0.006721536758728643
 40
0.006721536758728643
 40
0.006721536758728643
 40
0.006721536758728643
 40
0.006721536758728643
 40
0.006721536758728643
 40
0.006721536758728643
 40
0.010499102172636691
 40
0.010499102172636691
 40
0.010499102172636691
 40
0.010499102172636691
 40
0.010499102172636691
 40
0.010499102172636691
 40
0.010499102172636691
 40
0.012903007436086546
 40
0.012903007436086546
 40
0.012903007436086546
 40
0.012903007436086546
 40
0.012903007436086546
 40
0.012903007436086546
 40
0.012903007436086546
 40
0.01633715781242648
 40
0.01633715781242648
 40
0.01633715781242648
 40
0.01633715781242648
 40
0.01633715781242648
 40
0.01633715781242648
 40
0.01633715781242648
 40
0.020114723226395417
 40
0.020114723226395417
 40
0.020114723226395417
 40
0.020114723226395417
 40
0.020114723226395417
 40
0.020114723226395417
 40
0.020114723226395417
 40
0.026790846647041882
 40
0.026790846647041882
 40
0.026790846647041882
 40
0.026790846647041882
 40
0.026790846647041882
 40
0.026790846647041882
 40
0.026790846647041882
 40
0.03785832840745778
 40
0.03785832840745778
 40
0.03785832840745778
 40
0.03785832840745778
 40
0.03785832840745778
 40
0.03785832840745778
 40
0.03785832840745778
 40
0.0614082889027483
 40
0.0614082889027483
 40
0.0614082889027483
 40
0.0614082889027483
 40
0.0614082889027483
 40
0.0614082889027483
 40
0.0614082889027483
 40
0.07726487307910196
 40
0.07726487307910196
 40
0.07726487307910196
 40
0.07726487307910196
 40
0.07726487307910196
 40
0.07726487307910196
 40
0.07726487307910196
 40
0.08559631410776099
 40
0.08559631410776099
 40
0.08559631410776099
 40
0.08559631410776099
 40
0.08559631410776099
 40
0.08559631410776099
 40
0.08559631410776099
 40
0.09579343673276057
 40
0.09579343673276057
 40
0.09579343673276057
 40
0.09579343673276057
 40
0.09579343673276057
 40
0.09579343673276057
 40
0.09579343673276057
 40
0.1435997031668077
 40
0.1435997031668077
 40
0.1435997031668077
 40
0.1435997031668077
 40
0.1435997031668077
 40
0.1435997031668077
 40
0.1435997031668077
 40
0.2530137260296595
 40
0.2530137260296595
 40
0.2530137260296595
 40
0.2530137260296595
 40
0.2530137260296595
 40
0.2530137260296595
 40
0.2530137260296595
 40
0.35513117846219006
 40
0.35513117846219006
 40
0.35513117846219006
 40
0.35513117846219006
 40
0.35513117846219006
 40
0.35513117846219006
 40
0.35513117846219006
 40
0.4247670153314076
 40
0.4247670153314076
 40
0.4247670153314076
 40
0.4247670153314076
 40
0.4247670153314076
 40
0.4247670153314076
 40
0.4247670153314076
 40
0.4982022291887073
 40
0.4982022291887073
 40
0.4982022291887073
 40
0.4982022291887073
 40
0.4982022291887073
 40
0.4982022291887073
 40
0.4982022291887073
 40
0.5651010362278148
 40
0.5651010362278148
 40
0.5651010362278148
 40
0.5651010362278148
 40
0.5651010362278148
 40
0.5651010362278148
 40
0.5651010362278148
 40
0.615060512806377
 40
0.615060512806377
 40
0.615060512806377
 40
0.615060512806377
 40
0.615060512806377
 40
0.615060512806377
 40
0.615060512806377
 40
0.6311820432712396
 40
0.6311820432712396
 40
0.6311820432712396
 40
0.6311820432712396
 40
0.6311820432712396
 40
0.6311820432712396
 40
0.6311820432712396
 40
0.6458335635173553
 40
0.6458335635173553
 40
0.6458335635173553
 40
0.6458335635173553
 40
0.6458335635173553
 40
0.6458335635173553
 40
0.6458335635173553
 40
0.6676448943869843
 40
0.6676448943869843
 40
0.6676448943869843
 40
0.6676448943869843
 40
0.6676448943869843
 40
0.6676448943869843
 40
0.6676448943869843
 40
0.6789645680997005
 40
0.6789645680997005
 40
0.6789645680997005
 40
0.6789645680997005
 40
0.6789645680997005
 40
0.6789645680997005
 40
0.6789645680997005
 40
0.684219548008047
 40
0.684219548008047
 40
0.684219548008047
 40
0.684219548008047
 40
0.684219548008047
 40
0.684219548008047
 40
0.684219548008047
 40
0.6875375607722258
 40
0.6875375607722258
 40
0.6875375607722258
 40
0.6875375607722258
 40
0.6875375607722258
 40
0.6875375607722258
 40
0.6875375607722258
 40
0.6886922458366012
 40
0.6886922458366012
 40
0.6886922458366012
 40
0.6886922458366012
 40
0.6886922458366012
 40
0.6886922458366012
 40
0.6886922458366012
 40
0.690616720943895
 40
0.690616720943895
 40
0.690616720943895
 40
0.690616720943895
 40
0.690616720943895
 40
0.690616720943895
 40
0.690616720943895
 40
0.6927336435619073
 40
0.6927336435619073
 40
0.6927336435619073
 40
0.6927336435619073
 40
0.6927336435619073
 40
0.6927336435619073
 40
0.6927336435619073
 40
0.6947060866368188
 40
0.6947060866368188
 40
0.6947060866368188
 40
0.6947060866368188
 40
0.6947060866368188
 40
0.6947060866368188
 40
0.6947060866368188
 40
0.6966763695067916
 40
0.6966763695067916
 40
0.6966763695067916
 40
0.6966763695067916
 40
0.6966763695067916
 40
0.6966763695067916
 40
0.6966763695067916
 40
0.6984879510071076
 40
0.6984879510071076
 40
0.6984879510071076
 40
0.6984879510071076
 40
0.6984879510071076
 40
0.6984879510071076
 40
0.6984879510071076
 40
0.7002995325074386
 40
0.7002995325074386
 40
0.7002995325074386
 40
0.7002995325074386
 40
0.7002995325074386
 40
0.7002995325074386
 40
0.7002995325074386
 40
0.7018091837577325
 40
0.7018091837577325
 40
0.7018091837577325
 40
0.7018091837577325
 40
0.7018091837577325
 40
0.7018091837577325
 40
0.7018091837577325
 40
0.7033188350080375
 40
0.7033188350080375
 40
0.7033188350080375
 40
0.7033188350080375
 40
0.7033188350080375
 40
0.7033188350080375
 40
0.7033188350080375
 40
0.7062536795436598
 40
0.7062536795436598
 40
0.7062536795436598
 40
0.7062536795436598
 40
0.7062536795436598
 40
0.7062536795436598
 40
0.7062536795436598
 40
0.7111190140494009
 40
0.7111190140494009
 40
0.7111190140494009
 40
0.7111190140494009
 40
0.7111190140494009
 40
0.7111190140494009
 40
0.7111190140494009
 40
0.7214717549738848
 40
0.7214717549738848
 40
0.7214717549738848
 40
0.7214717549738848
 40
0.7214717549738848
 40
0.7214717549738848
 40
0.7214717549738848
 40
0.7284424347058016
 40
0.7284424347058016
 40
0.7284424347058016
 40
0.7284424347058016
 40
0.7284424347058016
 40
0.7284424347058016
 40
0.7284424347058016
 40
0.7321050022865812
 40
0.7321050022865812
 40
0.7321050022865812
 40
0.7321050022865812
 40
0.7321050022865812
 40
0.7321050022865812
 40
0.7321050022865812
 40
0.7365877375086958
 40
0.7365877375086958
 40
0.7365877375086958
 40
0.7365877375086958
 40
0.7365877375086958
 40
0.7365877375086958
 40
0.7365877375086958
 40
0.757601299139145
 40
0.757601299139145
 40
0.757601299139145
 40
0.757601299139145
 40
0.757601299139145
 40
0.757601299139145
 40
0.757601299139145
 40
0.8056664568059206
 40
0.8056664568059206
 40
0.8056664568059206
 40
0.8056664568059206
 40
0.8056664568059206
 40
0.8056664568059206
 40
0.8056664568059206
 40
0.8504762543813748
 40
0.8504762543813748
 40
0.8504762543813748
 40
0.8504762543813748
 40
0.8504762543813748
 40
0.8504762543813748
 40
0.8504762543813748
 40
0.8809966271031751
 40
0.8809966271031751
 40
0.8809966271031751
 40
0.8809966271031751
 40
0.8809966271031751
 40
0.8809966271031751
 40
0.8809966271031751
 40
0.9131550223698741
 40
0.9131550223698741
 40
0.9131550223698741
 40
0.9131550223698741
 40
0.9131550223698741
 40
0.9131550223698741
 40
0.9131550223698741
 40
0.9424320558772205
 40
0.9424320558772205
 40
0.9424320558772205
 40
0.9424320558772205
 40
0.9424320558772205
 40
0.9424320558772205
 40
0.9424320558772205
 40
0.9642868286876546
 40
0.9642868286876546
 40
0.9642868286876546
 40
0.9642868286876546
 40
0.9642868286876546
 40
0.9642868286876546
 40
0.9642868286876546
 40
0.9713382215666165
 40
0.9713382215666165
 40
0.9713382215666165
 40
0.9713382215666165
 40
0.9713382215666165
 40
0.9713382215666165
 40
0.9713382215666165
 40
0.9777466182299293
 40
0.9777466182299293
 40
0.9777466182299293
 40
0.9777466182299293
 40
0.9777466182299293
 40
0.9777466182299293
 40
0.9777466182299293
 40
0.9872866357499093
 40
0.9872866357499093
 40
0.9872866357499093
 40
0.9872866357499093
 40
0.9872866357499093
 40
0.9872866357499093
 40
0.9872866357499093
 40
0.9922377417025591
 40
0.9922377417025591
 40
0.9922377417025591
 40
0.9922377417025591
 40
0.9922377417025591
 40
0.9922377417025591
 40
0.9922377417025591
 40
0.9945362307720431
 40
0.9945362307720431
 40
0.9945362307720431
 40
0.9945362307720431
 40
0.9945362307720431
 40
0.9945362307720431
 40
0.9945362307720431
 40
0.9959875318837839
 40
0.9959875318837839
 40
0.9959875318837839
 40
0.9959875318837839
 40
0.9959875318837839
 40
0.9959875318837839
 40
0.9959875318837839
 40
0.9964926029635967
 40
0.9964926029635967
 40
0.9964926029635967
 40
0.9964926029635967
 40
0.9964926029635967
 40
0.9964926029635967
 40
0.9964926029635967
 40
0.997334388096619
 40
0.997334388096619
 40
0.997334388096619
 40
0.997334388096619
 40
0.997334388096619
 40
0.997334388096619
 40
0.997334388096619
 40
0.9982603517429431
 40
0.9982603517429431
 40
0.9982603517429431
 40
0.9982603517429431
 40
0.9982603517429431
 40
0.9982603517429431
 40
0.9982603517429431
 40
0.9989337798493593
 40
0.9989337798493593
 40
0.9989337798493593
 40
0.9989337798493593
 40
0.9989337798493593
 40
0.9989337798493593
 40
0.9989337798493593
 40
1.0
 40
1.0
 40
1.0
 40
1.0
 40
1.0
 40
1.0
 40
1.0
 40
1.0
 40
1.0
 10
3.4185743298834166
 20
232.19344000548884
 30
1211.0
 10
3.4184304511635064
 20
232.19358388731922
 30
1211.0
 10
3.4184596568500574
 20
232.19338199751544
 30
1211.0
 10
3.4185508553438835
 20
232.19314979319753
 30
1211.0
 10
3.4186287303871743
 20
232.19304306721628
 30
1211.0
 10
3.418653741063498
 20
232.19305794815384
 30
1211.0
 10
3.4186221217978034
 20
232.1930309003231
 30
1211.0
 10
3.418565882356417
 20
232.19263872376823
 30
1211.0
 10
3.4185391496316497
 20
232.19010301791067
 30
1211.0
 10
3.418518887443981
 20
232.1881810683746
 30
1211.0
 10
3.418490158625187
 20
232.18545602501527
 30
1211.0
 10
3.4184511005164206
 20
232.18175120719164
 30
1211.0
 10
3.418399850458833
 20
232.17688993426242
 30
1211.0
 10
3.418334545793579
 20
232.17069552558667
 30
1211.0
 10
3.418253323861811
 20
232.16299130052323
 30
1211.0
 10
3.4180454199618375
 20
232.1432707841299
 30
1211.0
 10
3.4179150042093047
 20
232.13090032842348
 30
1211.0
 10
3.4177605955481574
 20
232.11625404937908
 30
1211.0
 10
3.4175797147794693
 20
232.0990967850631
 30
1211.0
 10
3.417369882704316
 20
232.07919337354244
 30
1211.0
 10
3.4171286201237714
 20
232.05630865288367
 30
1211.0
 10
3.4168534478389074
 20
232.03020746115342
 30
1211.0
 10
3.4163436204401805
 20
231.9818482934045
 30
1211.0
 10
3.4161306182274265
 20
231.9616441816539
 30
1211.0
 10
3.4159022411205497
 20
231.9399816997062
 30
1211.0
 10
3.415657850227562
 20
231.91680024610116
 30
1211.0
 10
3.41539680665648
 20
231.89203921937874
 30
1211.0
 10
3.4151184715153167
 20
231.86563801807904
 30
1211.0
 10
3.414822205912089
 20
231.83753604074226
 30
1211.0
 10
3.414057606730137
 20
231.76501075043262
 30
1211.0
 10
3.413569945864544
 20
231.71875416700342
 30
1211.0
 10
3.4130425256991863
 20
231.66872625498019
 30
1211.0
 10
3.4124734835752215
 20
231.61475033372201
 30
1211.0
 10
3.4118609568337988
 20
231.55664972258782
 30
1211.0
 10
3.4112030828160713
 20
231.4942477409364
 30
1211.0
 10
3.4104979988631916
 20
231.42736770812655
 30
1211.0
 10
3.408914270114742
 20
231.2771447024466
 30
1211.0
 10
3.4080253200744357
 20
231.19282423589897
 30
1211.0
 10
3.407074512996463
 20
231.1026363819407
 30
1211.0
 10
3.406059369681896
 20
231.00634597863822
 30
1211.0
 10
3.404977410931809
 20
230.90371786405825
 30
1211.0
 10
3.4038261575472797
 20
230.79451687626752
 30
1211.0
 10
3.4026031303293824
 20
230.678507853333
 30
1211.0
 10
3.3990131556815237
 20
230.33798440041
 30
1211.0
 10
3.396718677975884
 20
230.12034401361234
 30
1211.0
 10
3.3944230318913795
 20
229.90259280137855
 30
1211.0
 10
3.3921265530567686
 20
229.6847625995017
 30
1211.0
 10
3.3898294672951206
 20
229.46687482816674
 30
1211.0
 10
3.3875319200876577
 20
229.24894328681543
 30
1211.0
 10
3.385233962792287
 20
229.0309728470173
 30
1211.0
 10
3.379125421324445
 20
228.4515532585825
 30
1211.0
 10
3.375314329910954
 20
228.09005599611658
 30
1211.0
 10
3.3715025834263797
 20
227.72849659753422
 30
1211.0
 10
3.367690345457083
 20
227.36689057966515
 30
1211.0
 10
3.363877729815097
 20
227.00524873803073
 30
1211.0
 10
3.360064813429136
 20
226.64357836962242
 30
1211.0
 10
3.3562516356335403
 20
226.28188320547
 30
1211.0
 10
3.3443238032743947
 20
225.15048060259977
 30
1211.0
 10
3.3362084145282367
 20
224.38070352372944
 30
1211.0
 10
3.328092361860018
 20
223.61086346918594
 30
1211.0
 10
3.3199758274793756
 20
222.8409777223082
 30
1211.0
 10
3.311858935031424
 20
222.07105801131107
 30
1211.0
 10
3.3037417653941525
 20
221.30111200778197
 30
1211.0
 10
3.2956243522439483
 20
220.53114290609463
 30
1211.0
 10
3.282040947347516
 20
219.24270262684487
 30
1211.0
 10
3.2764015331577423
 20
218.70778163694
 30
1211.0
 10
3.2705852381744913
 20
218.1560827963653
 30
1211.0
 10
3.264588843723273
 20
217.58730080097254
 30
1211.0
 10
3.258409131129596
 20
217.0011303466138
 30
1211.0
 10
3.252042881718974
 20
216.3972661291413
 30
1211.0
 10
3.2454868768169205
 20
215.77540284440732
 30
1211.0
 10
3.2351918174277974
 20
214.79887528777843
 30
1211.0
 10
3.2316457426423137
 20
214.46251361544742
 30
1211.0
 10
3.228099639039192
 20
214.1261502746808
 30
1211.0
 10
3.224553491465276
 20
213.7897853620178
 30
1211.0
 10
3.221007303967551
 20
213.4534189671278
 30
1211.0
 10
3.2174610997931503
 20
213.1170511728105
 30
1211.0
 10
3.2139149213893536
 20
212.78068205499596
 30
1211.0
 10
3.2060286538966767
 20
212.0326170045403
 30
1211.0
 10
3.2016207897758786
 20
211.6144764124709
 30
1211.0
 10
3.1971462199179244
 20
211.18995035114398
 30
1211.0
 10
3.1926059261995445
 20
210.7590992651676
 30
1211.0
 10
3.18800089049747
 20
210.3219835991502
 30
1211.0
 10
3.1833320946884363
 20
209.87866379770017
 30
1211.0
 10
3.1786005206491774
 20
209.42920030542618
 30
1211.0
 10
3.1513348165854556
 20
206.83795415895003
 30
1211.0
 10
3.1289108289170096
 20
204.70222325384884
 30
1211.0
 10
3.1065600136668428
 20
202.5664698967051
 30
1211.0
 10
3.084294958633354
 20
200.43069918453293
 30
1211.0
 10
3.0621249163150255
 20
198.29491464502826
 30
1211.0
 10
3.040057618791068
 20
196.15911873209808
 30
1211.0
 10
3.0180987195356046
 20
194.02331269865468
 30
1211.0
 10
2.9462566828919554
 20
186.99926396552937
 30
1211.0
 10
2.8968556019596545
 20
182.11098525141435
 30
1211.0
 10
2.8481126824780376
 20
177.2226742103351
 30
1211.0
 10
2.8000695657311683
 20
172.3343372611793
 30
1211.0
 10
2.7527709982035136
 20
167.44597937636482
 30
1211.0
 10
2.7062608701492037
 20
162.55760324490527
 30
1211.0
 10
2.6605886386680644
 20
157.6692105510962
 30
1211.0
 10
2.574016916344654
 20
148.21838969490227
 30
1211.0
 10
2.5330023034186206
 20
143.65596452980728
 30
1211.0
 10
2.4928108473761768
 20
139.09352737178784
 30
1211.0
 10
2.453492745301267
 20
134.53107908931457
 30
1211.0
 10
2.4151044793824865
 20
129.9686203720344
 30
1211.0
 10
2.377710782780057
 20
125.40615178533223
 30
1211.0
 10
2.3413874714346883
 20
120.84367379223342
 30
1211.0
 10
2.282247279163356
 20
113.16993987607592
 30
1211.0
 10
2.258810422571029
 20
110.05868882509782
 30
1211.0
 10
2.2358855354346305
 20
106.947434164911
 30
1211.0
 10
2.2134467203563513
 20
103.83617643611342
 30
1211.0
 10
2.1914707988589757
 20
100.72491615467945
 30
1211.0
 10
2.1699368910975503
 20
97.61365382193722
 30
1211.0
 10
2.148825995571052
 20
94.50238993454587
 30
1211.0
 10
2.106285440417439
 20
88.11010739616226
 30
1211.0
 10
2.0849012527888173
 20
84.8290886611306
 30
1211.0
 10
2.0639475191330816
 20
81.54806936186804
 30
1211.0
 10
2.043405668539726
 20
78.26705012165282
 30
1211.0
 10
2.0232587213028372
 20
74.98603162267233
 30
1211.0
 10
2.003490964204854
 20
71.70501462981474
 30
1211.0
 10
1.984087625784135
 20
68.42400003013014
 30
1211.0
 10
1.94767737554895
 20
62.15401779679565
 30
1211.0
 10
1.9306108663733583
 20
59.16504974148834
 30
1211.0
 10
1.9138243871020029
 20
56.176085375288515
 30
1211.0
 10
1.8973075111066582
 20
53.187125668080924
 30
1211.0
 10
1.8810500893921218
 20
50.19817187551559
 30
1211.0
 10
1.8650418524267287
 20
47.20922563122423
 30
1211.0
 10
1.8492715464996607
 20
44.22028916212413
 30
1211.0
 10
1.8221160235923337
 20
38.99926221620052
 30
1211.0
 10
1.8106315917722053
 20
36.767166880467315
 30
1211.0
 10
1.7992664266259797
 20
34.53508025082108
 30
1211.0
 10
1.78801443467473
 20
32.303003700126766
 30
1211.0
 10
1.7768672057943034
 20
30.070939981460093
 30
1211.0
 10
1.7658147729210891
 20
27.838893037274033
 30
1211.0
 10
1.7548436142259776
 20
25.606868576713662
 30
1211.0
 10
1.740403335210477
 20
22.65463088384223
 30
1211.0
 10
1.7368858673607515
 20
21.934388272467203
 30
1211.0
 10
1.7333739519360924
 20
21.214149447297785
 30
1211.0
 10
1.729862748534789
 20
20.49391530060589
 30
1211.0
 10
1.7263593128211316
 20
19.773685528051743
 30
1211.0
 10
1.7228499725823063
 20
19.053462248852952
 30
1211.0
 10
1.719342619920702
 20
18.33324532844682
 30
1211.0
 10
1.7126472751021948
 20
16.95849744879816
 30
1211.0
 10
1.7095497772172947
 20
16.32249157234013
 30
1211.0
 10
1.7065410467975852
 20
15.704712223097596
 30
1211.0
 10
1.7036195930917397
 20
15.104853306720257
 30
1211.0
 10
1.700783925348436
 20
14.522608728857914
 30
1211.0
 10
1.6980325528163513
 20
13.95767239516045
 30
1211.0
 10
1.695363984744162
 20
13.409738211277826
 30
1211.0
 10
1.6889251532048783
 20
12.087659924648278
 30
1211.0
 10
1.6850736827205857
 20
11.296841673249581
 30
1211.0
 10
1.681222321164619
 20
10.506045788023496
 30
1211.0
 10
1.6773710838405649
 20
9.715275411158586
 30
1211.0
 10
1.6735200064016906
 20
8.92453786334266
 30
1211.0
 10
1.6696691431482946
 20
8.133844294040493
 30
1211.0
 10
1.66581857388416
 20
7.343211089199496
 30
1211.0
 10
1.6599702876153208
 20
6.142388821548327
 30
1211.0
 10
1.6579722792179876
 20
5.732139927398272
 30
1211.0
 10
1.6559744131263305
 20
5.321920252714786
 30
1211.0
 10
1.6539767085964767
 20
4.911733751343007
 30
1211.0
 10
1.6519792137219202
 20
4.501590298266866
 30
1211.0
 10
1.6499820023292346
 20
4.091505052213854
 30
1211.0
 10
1.647985183470304
 20
3.6815004046907056
 30
1211.0
 10
1.6450622304533007
 20
3.0813336363816894
 30
1211.0
 10
1.6441356557765645
 20
2.8910810643807068
 30
1211.0
 10
1.6432092333958057
 20
2.7008597631336677
 30
1211.0
 10
1.6422829861258865
 20
2.5106744172210824
 30
1211.0
 10
1.6413569592538073
 20
2.3205343253578796
 30
1211.0
 10
1.640431219928224
 20
2.1304532750883425
 30
1211.0
 10
1.63950586475613
 20
1.940451102651096
 30
1211.0
 10
1.6379971207930195
 20
1.630662343379715
 30
1211.0
 10
1.63741347314105
 20
1.5108226049143667
 30
1211.0
 10
1.6368300943557081
 20
1.3910380725304634
 30
1211.0
 10
1.636247009586335
 20
1.2713139101379056
 30
1211.0
 10
1.6356643244640525
 20
1.1516718068494143
 30
1211.0
 10
1.6350822063419115
 20
1.0321461250727637
 30
1211.0
 10
1.6345009058807256
 20
0.9127883327406359
 30
1211.0
 10
1.6337190812759732
 20
0.7522571358007611
 30
1211.0
 10
1.633525272823653
 20
0.7124626567847272
 30
1211.0
 10
1.6333393077561398
 20
0.674278651452109
 30
1211.0
 10
1.633160999729516
 20
0.6376668580090387
 30
1211.0
 10
1.6329901623998664
 20
0.6025890146617009
 30
1211.0
 10
1.6328266094232766
 20
0.569006859616333
 30
1211.0
 10
1.632670154455831
 20
0.5368821310792242
 30
1211.0
 10
1.6322713723165854
 20
0.45500062755249354
 30
1211.0
 10
1.632041332549636
 20
0.4077668120550969
 30
1211.0
 10
1.6318296291494532
 20
0.3642979828304646
 30
1211.0
 10
1.6316353994127253
 20
0.3244170019445066
 30
1211.0
 10
1.6314577806361392
 20
0.28794673146310445
 30
1211.0
 10
1.6312959101163826
 20
0.25471003345211124
 30
1211.0
 10
1.6311489251501436
 20
0.22452976997735163
 30
1211.0
 10
1.6308697047064729
 20
0.16719773954477543
 30
1211.0
 10
1.630740414027583
 20
0.14065062487328203
 30
1211.0
 10
1.6306269427393325
 20
0.1173516884999596
 30
1211.0
 10
1.6305281425836127
 20
0.09706515983456947
 30
1211.0
 10
1.6304428653023144
 20
0.07955526828681668
 30
1211.0
 10
1.6303699626373294
 20
0.0645862432663498
 30
1211.0
 10
1.630308286330548
 20
0.05192231418276094
 30
1211.0
 10
1.630208611484409
 20
0.03145618628357738
 30
1211.0
 10
1.6301641301422434
 20
0.02232288061462384
 30
1211.0
 10
1.6301261489072483
 20
0.014524234870080477
 30
1211.0
 10
1.6300967040815537
 20
0.008478360799813345
 30
1211.0
 10
1.6300766445440786
 20
0.004359557766392186
 30
1211.0
 10
1.6300650457922345
 20
0.001977998633350353
 30
1211.0
 10
1.6300593017428378
 20
0.0007985792148623716
 30
1211.0
 10
1.6300543791427284
 20
-0.0002121729191344457
 30
1211.0
 10
1.6300560869651135
 20
-5.152358167492821e-05
 30
1211.0
 10
1.6300547163315797
 20
0.00025209716636354074
 30
1211.0
 10
1.6300540461418493
 20
0.00023019242456712163
 30
1211.0
 10
1.630058485808265
 20
-0.0006729171583153004
 30
1211.0
 10
1.6300702026023581
 20
-0.003005514709187196
 30
1211.0
 10
1.6300899947165397
 20
-0.007100734168840717
 30
1211.0
 10
1.6301440063361816
 20
-0.018190881367019074
 30
1211.0
 10
1.6301780102506749
 20
-0.025172868197645117
 30
1211.0
 10
1.6302216362873492
 20
-0.03413055492492439
 30
1211.0
 10
1.6302763751975287
 20
-0.04537003589904518
 30
1211.0
 10
1.6303437177325357
 20
-0.059197405470186475
 30
1211.0
 10
1.6304251546436954
 20
-0.07591875798851788
 30
1211.0
 10
1.6305221766823312
 20
-0.09584018780419969
 30
1211.0
 10
1.6307503725172032
 20
-0.14269539073076484
 30
1211.0
 10
1.630881546313438
 20
-0.1696291638414047
 30
1211.0
 10
1.6310312867397958
 20
-0.20037520294975558
 30
1211.0
 10
1.6312010845476022
 20
-0.23523960240615863
 30
1211.0
 10
1.6313924304881808
 20
-0.27452845656084235
 30
1211.0
 10
1.631606815312855
 20
-0.3185478597639227
 30
1211.0
 10
1.6318457297729474
 20
-0.36760390636540313
 30
1211.0
 10
1.6323314436588112
 20
-0.46733501100719366
 30
1211.0
 10
1.6325702924108543
 20
-0.5163775658463022
 30
1211.0
 10
1.6328280735792253
 20
-0.5693074931671304
 30
1211.0
 10
1.633105649867238
 20
-0.6263019309041084
 30
1211.0
 10
1.633403883978205
 20
-0.6875380169914658
 30
1211.0
 10
1.6337236386154383
 20
-0.7531928893632319
 30
1211.0
 10
1.6340657764822486
 20
-0.8234436859532365
 30
1211.0
 10
1.634796544081646
 20
-0.9734914034375493
 30
1211.0
 10
1.6351851738142344
 20
-1.0532883243321742
 30
1211.0
 10
1.6355979121830255
 20
-1.1380354453133592
 30
1211.0
 10
1.6360356218913314
 20
-1.227909904315387
 30
1211.0
 10
1.6364991656424652
 20
-1.3230888392724438
 30
1211.0
 10
1.6369894061397388
 20
-1.4237493881186225
 30
1211.0
 10
1.6375072060864644
 20
-1.5300686887879207
 30
1211.0
 10
1.639115313799334
 20
-1.8602596988764581
 30
1211.0
 10
1.640178021221717
 20
-2.078464259696382
 30
1211.0
 10
1.6412412670593237
 20
-2.296779372701245
 30
1211.0
 10
1.6423048966442506
 20
-2.5151732801593596
 30
1211.0
 10
1.6433688059091234
 20
-2.7336246139972005
 30
1211.0
 10
1.6444329278116088
 20
-2.952119608452385
 30
1211.0
 10
1.6454972386898667
 20
-3.1706534051253463
 30
1211.0
 10
1.6483264516727647
 20
-3.751572634044308
 30
1211.0
 10
1.6500915875229492
 20
-4.114006061013598
 30
1211.0
 10
1.65185702523958
 20
-4.476501469905202
 30
1211.0
 10
1.653622689439017
 20
-4.839043382248491
 30
1211.0
 10
1.6553885276743934
 20
-5.20162102920353
 30
1211.0
 10
1.6571545044955793
 20
-5.564227131849563
 30
1211.0
 10
1.6589206017774678
 20
-5.926857968544795
 30
1211.0
 10
1.6644450615603918
 20
-7.061189295556755
 30
1211.0
 10
1.668203762383395
 20
-7.832959253155735
 30
1211.0
 10
1.6719627691476395
 20
-8.604792029318848
 30
1211.0
 10
1.6757219978915985
 20
-9.376670384359812
 30
1211.0
 10
1.6794813916364697
 20
-10.148582618857084
 30
1211.0
 10
1.6832409131112234
 20
-10.920521079967202
 30
1211.0
 10
1.6870005468008638
 20
-11.692482582061768
 30
1211.0
 10
1.6932917917634307
 20
-12.984257077190575
 30
1211.0
 10
1.6959037254022797
 20
-13.520562574386998
 30
1211.0
 10
1.6985975826025141
 20
-14.073689347464017
 30
1211.0
 10
1.701374854115457
 20
-14.643943490771669
 30
1211.0
 10
1.704237030692432
 20
-15.231631098660099
 30
1211.0
 10
1.7071856030847625
 20
-15.837058265479538
 30
1211.0
 10
1.7102220620437738
 20
-16.460531085580328
 30
1211.0
 10
1.71499029003169
 20
-17.439586159480296
 30
1211.0
 10
1.7166327145014102
 20
-17.776818432699425
 30
1211.0
 10
1.7182751358782677
 20
-18.114052370371446
 30
1211.0
 10
1.7199175375653066
 20
-18.451287876449488
 30
1211.0
 10
1.7215599222203049
 20
-18.788524861438614
 30
1211.0
 10
1.7232023117557704
 20
-19.125763242395855
 30
1211.0
 10
1.7248447473389428
 20
-19.46300294293019
 30
1211.0
 10
1.7284976498702598
 20
-20.213004027393367
 30
1211.0
 10
1.7305397513792316
 20
-20.63222651430267
 30
1211.0
 10
1.732613640996222
 20
-21.05785043876771
 30
1211.0
 10
1.734719365798743
 20
-21.489814885625677
 30
1211.0
 10
1.7368569728643073
 20
-21.928058939713715
 30
1211.0
 10
1.7390265092704278
 20
-22.372521685868886
 30
1211.0
 10
1.7412280220946166
 20
-22.82314220892819
 30
1211.0
 10
1.753931628758437
 20
-25.420797757075146
 30
1211.0
 10
1.7644503903427007
 20
-27.561766574055497
 30
1211.0
 10
1.7750424598908146
 20
-29.702756643425953
 30
1211.0
 10
1.78572032128016
 20
-31.843762690534675
 30
1211.0
 10
1.7964931613541113
 20
-33.984781056412196
 30
1211.0
 10
1.8073686704745509
 20
-36.12580917570275
 30
1211.0
 10
1.8183524879495836
 20
-38.26684571254715
 30
1211.0
 10
1.8548336914536347
 20
-45.30518607398565
 30
1211.0
 10
1.8808119773745906
 20
-50.202518326801
 30
1211.0
 10
1.9074469706207187
 20
-55.09987263852125
 30
1211.0
 10
1.9347803871489333
 20
-59.9972419814608
 30
1211.0
 10
1.9628571074360632
 20
-64.89462070988068
 30
1211.0
 10
1.9917212838648402
 20
-69.79200547137211
 30
1211.0
 10
2.0214227298693066
 20
-74.68939381793706
 30
1211.0
 10
2.0805398113718176
 20
-84.15248429895352
 30
1211.0
 10
2.1098385927740484
 20
-88.71818522224459
 30
1211.0
 10
2.1399589305446565
 20
-93.2838854004652
 30
1211.0
 10
2.170951359447589
 20
-97.84958319353984
 30
1211.0
 10
2.202872794038039
 20
-102.41527703970749
 30
1211.0
 10
2.235788534262397
 20
-106.98096537062676
 30
1211.0
 10
2.2697751723364985
 20
-111.54664654506438
 30
1211.0
 10
2.328864869611099
 20
-119.22204092716287
 30
1211.0
 10
2.353345809251563
 20
-122.33175887140614
 30
1211.0
 10
2.378338512006622
 20
-125.44147250575959
 30
1211.0
 10
2.403817346713113
 20
-128.55118168809705
 30
1211.0
 10
2.4297593493247853
 20
-131.66088625873124
 30
1211.0
 10
2.456143813375423
 20
-134.7705860368424
 30
1211.0
 10
2.482951880441972
 20
-137.88028081690675
 30
1211.0
 10
2.538840964355365
 20
-144.26655635442094
 30
1211.0
 10
2.5679667688167207
 20
-147.54313650088676
 30
1211.0
 10
2.597523250285039
 20
-150.81971054626092
 30
1211.0
 10
2.6274919937920043
 20
-154.09627815139464
 30
1211.0
 10
2.6578561466640074
 20
-157.3728388931801
 30
1211.0
 10
2.6886000994083847
 20
-160.64939224566092
 30
1211.0
 10
2.719709163929567
 20
-163.925937545325
 30
1211.0
 10
2.779810540386847
 20
-170.18543577795802
 30
1211.0
 10
2.808742746498404
 20
-173.1683900679806
 30
1211.0
 10
2.8379553018009327
 20
-176.15133631949737
 30
1211.0
 10
2.8674378322377296
 20
-179.13427371989607
 30
1211.0
 10
2.8971802263608635
 20
-182.117201165198
 30
1211.0
 10
2.9271722359162724
 20
-185.10011717369284
 30
1211.0
 10
2.9574026059573875
 20
-188.08301968311315
 30
1211.0
 10
3.0105919337962885
 20
-193.29257589201237
 30
1211.0
 10
3.033451384984078
 20
-195.519236015058
 30
1211.0
 10
3.056430207801193
 20
-197.74588555841405
 30
1211.0
 10
3.079522296224292
 20
-199.97252323903933
 30
1211.0
 10
3.102719196422469
 20
-202.19914642578348
 30
1211.0
 10
3.1260108716474786
 20
-204.42575131857367
 30
1211.0
 10
3.149383688479208
 20
-206.6523324005741
 30
1211.0
 10
3.180368391862798
 20
-209.5972700700011
 30
1211.0
 10
3.187932255195395
 20
-210.31565687283947
 30
1211.0
 10
3.1955016258620725
 20
-211.03403979248446
 30
1211.0
 10
3.2030716379571214
 20
-211.7524180127475
 30
1211.0
 10
3.210649369180459
 20
-212.47079172442403
 30
1211.0
 10
3.2182210811595113
 20
-213.18915902118573
 30
1211.0
 10
3.2257946872886
 20
-213.9075199116403
 30
1211.0
 10
3.2402506101938098
 20
-215.27872201352963
 30
1211.0
 10
3.24693840396663
 20
-215.91308599972584
 30
1211.0
 10
3.2534345403040015
 20
-216.5292705116642
 30
1211.0
 10
3.2597422378804137
 20
-217.12758085349253
 30
1211.0
 10
3.265864715370356
 20
-217.70832232935868
 30
1211.0
 10
3.271805191448314
 20
-218.27180024341044
 30
1211.0
 10
3.2775668847887784
 20
-218.81831989979565
 30
1211.0
 10
3.291468942991318
 20
-220.13698571953665
 30
1211.0
 10
3.2997846403869158
 20
-220.92576287491366
 30
1211.0
 10
3.308100101397201
 20
-221.71451760819807
 30
1211.0
 10
3.316415292813291
 20
-222.50324676939536
 30
1211.0
 10
3.324730137263682
 20
-223.29194301950824
 30
1211.0
 10
3.333044516911583
 20
-224.08059518124583
 30
1211.0
 10
3.3413582585785546
 20
-224.86918682794106
 30
1211.0
 10
3.3539852651464144
 20
-226.0669089007519
 30
1211.0
 10
3.358299162393672
 20
-226.4760993074495
 30
1211.0
 10
3.3626127508240105
 20
-226.88526042162744
 30
1211.0
 10
3.36692598865116
 20
-227.2943882796908
 30
1211.0
 10
3.3712387715081706
 20
-227.70347298201685
 30
1211.0
 10
3.3755509391861844
 20
-228.11249933215464
 30
1211.0
 10
3.379862255039894
 20
-228.52144488335045
 30
1211.0
 10
3.386173184604541
 20
-229.12006179218875
 30
1211.0
 10
3.388173754263144
 20
-229.30982382529027
 30
1211.0
 10
3.3901739934283683
 20
-229.49955450977322
 30
1211.0
 10
3.3921738525891776
 20
-229.6892491493175
 30
1211.0
 10
3.394173233471997
 20
-229.8788984222816
 30
1211.0
 10
3.396171990364683
 20
-230.06848850728616
 30
1211.0
 10
3.398169913633435
 20
-230.2579995197265
 30
1211.0
 10
3.401427438510524
 20
-230.56698878230836
 30
1211.0
 10
3.4026876018635197
 20
-230.68652031617725
 30
1211.0
 10
3.4039471817703575
 20
-230.80599650784507
 30
1211.0
 10
3.4052061236236413
 20
-230.9254121775811
 30
1211.0
 10
3.4064641982191683
 20
-231.04474558445045
 30
1211.0
 10
3.4077210424287783
 20
-231.16396228429488
 30
1211.0
 10
3.4089761123624864
 20
-231.28301068697408
 30
1211.0
 10
3.410664119027527
 20
-231.44312487008676
 30
1211.0
 10
3.411082569986563
 20
-231.48281661708418
 30
1211.0
 10
3.4114840863286875
 20
-231.52090204794007
 30
1211.0
 10
3.4118690703882133
 20
-231.557419325673
 30
1211.0
 10
3.41223792449945
 20
-231.59240661330145
 30
1211.0
 10
3.4125910509967095
 20
-231.62590207384383
 30
1211.0
 10
3.412928852214302
 20
-231.65794387031858
 30
1211.0
 10
3.413789860940267
 20
-231.73961399145367
 30
1211.0
 10
3.414286538768009
 20
-231.7867258698046
 30
1211.0
 10
3.41474362662861
 20
-231.83008248143804
 30
1211.0
 10
3.415162987180918
 20
-231.86986050699508
 30
1211.0
 10
3.4155464830837823
 20
-231.906236627117
 30
1211.0
 10
3.4158959769960475
 20
-231.93938752244478
 30
1211.0
 10
3.4162133315765626
 20
-231.9694898736195
 30
1211.0
 10
3.416816195182551
 20
-232.0266738977113
 30
1211.0
 10
3.417095346106712
 20
-232.05315247929104
 30
1211.0
 10
3.4173403414555894
 20
-232.07639126795476
 30
1211.0
 10
3.4175536604281045
 20
-232.09662542563566
 30
1211.0
 10
3.4177377822231865
 20
-232.11409011426707
 30
1211.0
 10
3.4178951860397606
 20
-232.12902049578238
 30
1211.0
 10
3.4180283510767517
 20
-232.1416517321149
 30
1211.0
 10
3.4182207786831476
 20
-232.15990426016742
 30
1211.0
 10
3.4182902916335234
 20
-232.16649784151736
 30
1211.0
 10
3.4183492490655434
 20
-232.172090189736
 30
1211.0
 10
3.4183986046605366
 20
-232.17677176531163
 30
1211.0
 10
3.4184393120998346
 20
-232.1806330287323
 30
1211.0
 10
3.418472325064766
 20
-232.18376444048644
 30
1211.0
 10
3.418498597236661
 20
-232.18625646106236
 30
1211.0
 10
3.4185515157277546
 20
-232.1912759915825
 30
1211.0
 10
3.4186888076042528
 20
-232.1923079457585
 30
1211.0
 10
3.4187661956006674
 20
-232.19244569473267
 30
1211.0
 10
3.4187058664470427
 20
-232.19246035976064
 30
1211.0
 10
3.4185169559291495
 20
-232.19274390209702
 30
1211.0
 10
3.4182955488884823
 20
-232.19330912299546
 30
1211.0
 10
3.418224679222258
 20
-232.19378966370877
 30
1211.0
 10
3.4185743298834166
 20
-232.19344000548884
 30
1211.0
  0
ENDSEC
  0
SECTION
  2
OBJECTS
  0
DICTIONARY
  5
A
330
0
100
AcDbDictionary
281
1
  3
ACAD_COLOR
350
B
  3
ACAD_GROUP
350
C
  3
ACAD_LAYOUT
350
D
  3
ACAD_MATERIAL
350
E
  3
ACAD_MLEADERSTYLE
350
F
  3
ACAD_MLINESTYLE
350
10
  3
ACAD_PLOTSETTINGS
350
11
  3
ACAD_PLOTSTYLENAME
350
12
  3
ACAD_SCALELIST
350
14
  3
ACAD_TABLESTYLE
350
15
  3
ACAD_VISUALSTYLE
350
16
  3
EZDXF_META
350
2D
  0
DICTIONARY
  5
B
330
A
100
AcDbDictionary
281
1
  0
DICTIONARY
  5
C
330
A
100
AcDbDictionary
281
1
  0
DICTIONARY
  5
D
330
A
100
AcDbDictionary
281
1
  3
Model
350
1A
  3
Layout1
350
1E
  0
DICTIONARY
  5
E
330
A
100
AcDbDictionary
281
1
  3
ByBlock
350
1F
  3
ByLayer
350
20
  3
Global
350
21
  0
DICTIONARY
  5
F
330
A
100
AcDbDictionary
281
1
  3
Standard
350
2C
  0
DICTIONARY
  5
10
330
A
100
AcDbDictionary
281
1
  3
Standard
350
22
  0
DICTIONARY
  5
11
330
A
100
AcDbDictionary
281
1
  0
ACDBDICTIONARYWDFLT
  5
12
330
A
100
AcDbDictionary
281
1
  3
Normal
350
13
100
AcDbDictionaryWithDefault
340
13
  0
ACDBPLACEHOLDER
  5
13
330
12
  0
DICTIONARY
  5
14
330
A
100
AcDbDictionary
281
1
  0
DICTIONARY
  5
15
330
A
100
AcDbDictionary
281
1
  0
DICTIONARY
  5
16
330
A
100
AcDbDictionary
281
1
  0
LAYOUT
  5
1A
330
D
100
AcDbPlotSettings
  1

  2
Adobe PDF
  4
A3
  6

 40
7.5
 41
20.0
 42
7.5
 43
20.0
 44
420.0
 45
297.0
 46
0.0
 47
0.0
 48
0.0
 49
0.0
140
0.0
141
0.0
142
1.0
143
1.0
 70
1024
 72
1
 73
1
 74
5
  7

 75
16
 76
0
 77
2
 78
300
147
1.0
148
0.0
149
0.0
100
AcDbLayout
  1
Model
 70
1
 71
0
 10
0.0
 20
0.0
 11
420.0
 21
297.0
 12
0.0
 22
0.0
 32
0.0
 14
1e+20
 24
1e+20
 34
1e+20
 15
-1e+20
 25
-1e+20
 35
-1e+20
146
0.0
 13
0.0
 23
0.0
 33
0.0
 16
1.0
 26
0.0
 36
0.0
 17
0.0
 27
1.0
 37
0.0
 76
1
330
17
  0
LAYOUT
  5
1E
330
D
100
AcDbPlotSettings
  1

  2
Adobe PDF
  4
A3
  6

 40
7.5
 41
20.0
 42
7.5
 43
20.0
 44
420.0
 45
297.0
 46
0.0
 47
0.0
 48
0.0
 49
0.0
140
0.0
141
0.0
142
1.0
143
1.0
 70
0
 72
1
 73
1
 74
5
  7

 75
16
 76
0
 77
2
 78
300
147
1.0
148
0.0
149
0.0
100
AcDbLayout
  1
Layout1
 70
1
 71
1
 10
0.0
 20
0.0
 11
420.0
 21
297.0
 12
0.0
 22
0.0
 32
0.0
 14
1e+20
 24
1e+20
 34
1e+20
 15
-1e+20
 25
-1e+20
 35
-1e+20
146
0.0
 13
0.0
 23
0.0
 33
0.0
 16
1.0
 26
0.0
 36
0.0
 17
0.0
 27
1.0
 37
0.0
 76
1
330
1B
  0
MATERIAL
  5
1F
102
{ACAD_REACTORS
330
E
102
}
330
E
100
AcDbMaterial
  1
ByBlock
  2

 70
0
 40
1.0
 71
1
 41
1.0
 91
-1023410177
 42
1.0
 72
1
  3

 73
1
 74
1
 75
1
 44
0.5
 73
0
 45
1.0
 46
1.0
 77
1
  4

 78
1
 79
1
170
1
 48
1.0
171
1
  6

172
1
173
1
174
1
140
1.0
141
1.0
175
1
  7

176
1
177
1
178
1
143
1.0
179
1
  8

270
1
271
1
272
1
145
1.0
146
1.0
273
1
  9

274
1
275
1
276
1
 42
1.0
 72
1
  3

 73
1
 74
1
 75
1
 94
63
  0
MATERIAL
  5
20
102
{ACAD_REACTORS
330
E
102
}
330
E
100
AcDbMaterial
  1
ByLayer
  2

 70
0
 40
1.0
 71
1
 41
1.0
 91
-1023410177
 42
1.0
 72
1
  3

 73
1
 74
1
 75
1
 44
0.5
 73
0
 45
1.0
 46
1.0
 77
1
  4

 78
1
 79
1
170
1
 48
1.0
171
1
  6

172
1
173
1
174
1
140
1.0
141
1.0
175
1
  7

176
1
177
1
178
1
143
1.0
179
1
  8

270
1
271
1
272
1
145
1.0
146
1.0
273
1
  9

274
1
275
1
276
1
 42
1.0
 72
1
  3

 73
1
 74
1
 75
1
 94
63
  0
MATERIAL
  5
21
102
{ACAD_REACTORS
330
E
102
}
330
E
100
AcDbMaterial
  1
Global
  2

 70
0
 40
1.0
 71
1
 41
1.0
 91
-1023410177
 42
1.0
 72
1
  3

 73
1
 74
1
 75
1
 44
0.5
 73
0
 45
1.0
 46
1.0
 77
1
  4

 78
1
 79
1
170
1
 48
1.0
171
1
  6

172
1
173
1
174
1
140
1.0
141
1.0
175
1
  7

176
1
177
1
178
1
143
1.0
179
1
  8

270
1
271
1
272
1
145
1.0
146
1.0
273
1
  9

274
1
275
1
276
1
 42
1.0
 72
1
  3

 73
1
 74
1
 75
1
 94
63
  0
MLINESTYLE
  5
22
102
{ACAD_REACTORS
330
10
102
}
330
10
100
AcDbMlineStyle
  2
Standard
 70
0
  3

 62
256
 51
90.0
 52
90.0
 71
2
 49
0.5
 62
256
  6
BYLAYER
 49
-0.5
 62
256
  6
BYLAYER
  0
MLEADERSTYLE
  5
2C
102
{ACAD_REACTORS
330
F
102
}
330
F
100
AcDbMLeaderStyle
179
2
170
2
171
1
172
0
 90
2
 40
0.0
 41
0.0
173
1
 91
-1056964608
 92
-2
290
1
 42
2.0
291
1
 43
8.0
  3
Standard
 44
4.0
300

342
29
174
1
175
1
176
0
178
1
 93
-1056964608
 45
4.0
292
0
297
0
 46
4.0
 94
-1056964608
 47
1.0
 49
1.0
140
1.0
294
1
141
0.0
177
0
142
1.0
295
0
296
0
143
3.75
271
0
272
9
273
9
  0
DICTIONARY
  5
2D
330
A
100
AcDbDictionary
280
1
281
1
  3
CREATED_BY_EZDXF
350
2E
  3
WRITTEN_BY_EZDXF
350
86
  0
DICTIONARYVAR
  5
2E
330
2D
100
DictionaryVariables
280
0
  1
0.17 @ 2022-02-15T16:36:59.246292+00:00
  0
DICTIONARYVAR
  5
86
330
2D
100
DictionaryVariables
280
0
  1
0.17 @ 2022-02-15T16:36:59.353093+00:00
  0
ENDSEC
  0
EOF
