  0
SECTION
  2
HEADER
  9
$ACADVER
  1
AC1027
  9
$ACADMAINTVER
 70
105
  9
$DWGCODEPAGE
  3
ANSI_1252
  9
$LASTSAVEDBY
  1
ezdxf
  9
$REQUIREDVERSIONS
160
0
  9
$INSBASE
 10
0.0
 20
0.0
 30
0.0
  9
$EXTMIN
 10
1e+20
 20
1e+20
 30
1e+20
  9
$EXTMAX
 10
-1e+20
 20
-1e+20
 30
-1e+20
  9
$LIMMIN
 10
0.0
 20
0.0
  9
$LIMMAX
 10
420.0
 20
297.0
  9
$ORTHOMODE
 70
0
  9
$REGENMODE
 70
1
  9
$FILLMODE
 70
1
  9
$QTEXTMODE
 70
0
  9
$MIRRTEXT
 70
1
  9
$LTSCALE
 40
1.0
  9
$ATTMODE
 70
1
  9
$TEXTSIZE
 40
2.5
  9
$TRACEWID
 40
1.0
  9
$TEXTSTYLE
  7
Standard
  9
$CLAYER
  8
0
  9
$CELTYPE
  6
ByLayer
  9
$CECOLOR
 62
256
  9
$CELTSCALE
 40
1.0
  9
$DISPSILH
 70
0
  9
$DIMSCALE
 40
1.0
  9
$DIMASZ
 40
2.5
  9
$DIMEXO
 40
0.625
  9
$DIMDLI
 40
3.75
  9
$DIMRND
 40
0.0
  9
$DIMDLE
 40
0.0
  9
$DIMEXE
 40
1.25
  9
$DIMTP
 40
0.0
  9
$DIMTM
 40
0.0
  9
$DIMTXT
 40
2.5
  9
$DIMCEN
 40
2.5
  9
$DIMTSZ
 40
0.0
  9
$DIMTOL
 70
0
  9
$DIMLIM
 70
0
  9
$DIMTIH
 70
0
  9
$DIMTOH
 70
0
  9
$DIMSE1
 70
0
  9
$DIMSE2
 70
0
  9
$DIMTAD
 70
1
  9
$DIMZIN
 70
8
  9
$DIMBLK
  1

  9
$DIMASO
 70
1
  9
$DIMSHO
 70
1
  9
$DIMPOST
  1

  9
$DIMAPOST
  1

  9
$DIMALT
 70
0
  9
$DIMALTD
 70
3
  9
$DIMALTF
 40
0.03937007874
  9
$DIMLFAC
 40
1.0
  9
$DIMTOFL
 70
1
  9
$DIMTVP
 40
0.0
  9
$DIMTIX
 70
0
  9
$DIMSOXD
 70
0
  9
$DIMSAH
 70
0
  9
$DIMBLK1
  1

  9
$DIMBLK2
  1

  9
$DIMSTYLE
  2
ISO-25
  9
$DIMCLRD
 70
0
  9
$DIMCLRE
 70
0
  9
$DIMCLRT
 70
0
  9
$DIMTFAC
 40
1.0
  9
$DIMGAP
 40
0.625
  9
$DIMJUST
 70
0
  9
$DIMSD1
 70
0
  9
$DIMSD2
 70
0
  9
$DIMTOLJ
 70
0
  9
$DIMTZIN
 70
8
  9
$DIMALTZ
 70
0
  9
$DIMALTTZ
 70
0
  9
$DIMUPT
 70
0
  9
$DIMDEC
 70
2
  9
$DIMTDEC
 70
2
  9
$DIMALTU
 70
2
  9
$DIMALTTD
 70
3
  9
$DIMTXSTY
  7
Standard
  9
$DIMAUNIT
 70
0
  9
$DIMADEC
 70
0
  9
$DIMALTRND
 40
0.0
  9
$DIMAZIN
 70
0
  9
$DIMDSEP
 70
44
  9
$DIMATFIT
 70
3
  9
$DIMFRAC
 70
0
  9
$DIMLDRBLK
  1

  9
$DIMLUNIT
 70
2
  9
$DIMLWD
 70
-2
  9
$DIMLWE
 70
-2
  9
$DIMTMOVE
 70
0
  9
$DIMFXL
 40
1.0
  9
$DIMFXLON
 70
0
  9
$DIMJOGANG
 40
0.785398163397
  9
$DIMTFILL
 70
0
  9
$DIMTFILLCLR
 70
0
  9
$DIMARCSYM
 70
0
  9
$DIMLTYPE
  6

  9
$DIMLTEX1
  6

  9
$DIMLTEX2
  6

  9
$DIMTXTDIRECTION
 70
0
  9
$LUNITS
 70
2
  9
$LUPREC
 70
4
  9
$SKETCHINC
 40
1.0
  9
$FILLETRAD
 40
10.0
  9
$AUNITS
 70
0
  9
$AUPREC
 70
2
  9
$MENU
  1
.
  9
$ELEVATION
 40
0.0
  9
$PELEVATION
 40
0.0
  9
$THICKNESS
 40
0.0
  9
$LIMCHECK
 70
0
  9
$CHAMFERA
 40
0.0
  9
$CHAMFERB
 40
0.0
  9
$CHAMFERC
 40
0.0
  9
$CHAMFERD
 40
0.0
  9
$SKPOLY
 70
0
  9
$TDCREATE
 40
2459626.734027778
  9
$TDUCREATE
 40
2458532.153996898
  9
$TDUPDATE
 40
2459626.734027778
  9
$TDUUPDATE
 40
2458532.1544311
  9
$TDINDWG
 40
0.0
  9
$TDUSRTIMER
 40
0.0
  9
$USRTIMER
 70
1
  9
$ANGBASE
 50
0.0
  9
$ANGDIR
 70
0
  9
$PDMODE
 70
0
  9
$PDSIZE
 40
0.0
  9
$PLINEWID
 40
0.0
  9
$SPLFRAME
 70
0
  9
$SPLINETYPE
 70
6
  9
$SPLINESEGS
 70
8
  9
$HANDSEED
  5
81
  9
$SURFTAB1
 70
6
  9
$SURFTAB2
 70
6
  9
$SURFTYPE
 70
6
  9
$SURFU
 70
6
  9
$SURFV
 70
6
  9
$UCSBASE
  2

  9
$UCSNAME
  2

  9
$UCSORG
 10
0.0
 20
0.0
 30
0.0
  9
$UCSXDIR
 10
1.0
 20
0.0
 30
0.0
  9
$UCSYDIR
 10
0.0
 20
1.0
 30
0.0
  9
$UCSORTHOREF
  2

  9
$UCSORTHOVIEW
 70
0
  9
$UCSORGTOP
 10
0.0
 20
0.0
 30
0.0
  9
$UCSORGBOTTOM
 10
0.0
 20
0.0
 30
0.0
  9
$UCSORGLEFT
 10
0.0
 20
0.0
 30
0.0
  9
$UCSORGRIGHT
 10
0.0
 20
0.0
 30
0.0
  9
$UCSORGFRONT
 10
0.0
 20
0.0
 30
0.0
  9
$UCSORGBACK
 10
0.0
 20
0.0
 30
0.0
  9
$PUCSBASE
  2

  9
$PUCSNAME
  2

  9
$PUCSORG
 10
0.0
 20
0.0
 30
0.0
  9
$PUCSXDIR
 10
1.0
 20
0.0
 30
0.0
  9
$PUCSYDIR
 10
0.0
 20
1.0
 30
0.0
  9
$PUCSORTHOREF
  2

  9
$PUCSORTHOVIEW
 70
0
  9
$PUCSORGTOP
 10
0.0
 20
0.0
 30
0.0
  9
$PUCSORGBOTTOM
 10
0.0
 20
0.0
 30
0.0
  9
$PUCSORGLEFT
 10
0.0
 20
0.0
 30
0.0
  9
$PUCSORGRIGHT
 10
0.0
 20
0.0
 30
0.0
  9
$PUCSORGFRONT
 10
0.0
 20
0.0
 30
0.0
  9
$PUCSORGBACK
 10
0.0
 20
0.0
 30
0.0
  9
$USERI1
 70
0
  9
$USERI2
 70
0
  9
$USERI3
 70
0
  9
$USERI4
 70
0
  9
$USERI5
 70
0
  9
$USERR1
 40
0.0
  9
$USERR2
 40
0.0
  9
$USERR3
 40
0.0
  9
$USERR4
 40
0.0
  9
$USERR5
 40
0.0
  9
$WORLDVIEW
 70
1
  9
$SHADEDGE
 70
3
  9
$SHADEDIF
 70
70
  9
$TILEMODE
 70
1
  9
$MAXACTVP
 70
64
  9
$PINSBASE
 10
0.0
 20
0.0
 30
0.0
  9
$PLIMCHECK
 70
0
  9
$PEXTMIN
 10
1e+20
 20
1e+20
 30
1e+20
  9
$PEXTMAX
 10
-1e+20
 20
-1e+20
 30
-1e+20
  9
$PLIMMIN
 10
0.0
 20
0.0
  9
$PLIMMAX
 10
420.0
 20
297.0
  9
$UNITMODE
 70
0
  9
$VISRETAIN
 70
1
  9
$PLINEGEN
 70
0
  9
$PSLTSCALE
 70
1
  9
$TREEDEPTH
 70
3020
  9
$CMLSTYLE
  2
Standard
  9
$CMLJUST
 70
0
  9
$CMLSCALE
 40
20.0
  9
$PROXYGRAPHICS
 70
1
  9
$MEASUREMENT
 70
1
  9
$CELWEIGHT
370
-1
  9
$ENDCAPS
280
0
  9
$JOINSTYLE
280
0
  9
$LWDISPLAY
290
0
  9
$INSUNITS
 70
6
  9
$HYPERLINKBASE
  1

  9
$STYLESHEET
  1

  9
$XEDIT
290
1
  9
$CEPSNTYPE
380
0
  9
$PSTYLEMODE
290
1
  9
$FINGERPRINTGUID
  2
{E9246032-C554-431D-8255-B1449AF79DC9}
  9
$VERSIONGUID
  2
{36013FC1-13E4-4875-868F-46217CDC692D}
  9
$EXTNAMES
290
1
  9
$PSVPSCALE
 40
0.0
  9
$OLESTARTUP
290
0
  9
$SORTENTS
280
127
  9
$INDEXCTL
280
0
  9
$HIDETEXT
280
1
  9
$XCLIPFRAME
280
0
  9
$HALOGAP
280
0
  9
$OBSCOLOR
 70
257
  9
$OBSLTYPE
280
0
  9
$INTERSECTIONDISPLAY
280
0
  9
$INTERSECTIONCOLOR
 70
257
  9
$DIMASSOC
280
2
  9
$PROJECTNAME
  1

  9
$CAMERADISPLAY
290
0
  9
$LENSLENGTH
 40
50.0
  9
$CAMERAHEIGHT
 40
0.0
  9
$STEPSPERSEC
 40
24.0
  9
$STEPSIZE
 40
100.0
  9
$3DDWFPREC
 40
2.0
  9
$PSOLWIDTH
 40
0.005
  9
$PSOLHEIGHT
 40
0.08
  9
$LOFTANG1
 40
1.570796326795
  9
$LOFTANG2
 40
1.570796326795
  9
$LOFTMAG1
 40
0.0
  9
$LOFTMAG2
 40
0.0
  9
$LOFTPARAM
 70
7
  9
$LOFTNORMALS
280
1
  9
$LATITUDE
 40
37.795
  9
$LONGITUDE
 40
-122.394
  9
$NORTHDIRECTION
 40
0.0
  9
$TIMEZONE
 70
-8000
  9
$LIGHTGLYPHDISPLAY
280
1
  9
$TILEMODELIGHTSYNCH
280
1
  9
$CMATERIAL
347
20
  9
$SOLIDHIST
280
0
  9
$SHOWHIST
280
1
  9
$DWFFRAME
280
2
  9
$DGNFRAME
280
2
  9
$REALWORLDSCALE
290
1
  9
$INTERFERECOLOR
 62
256
  9
$CSHADOW
280
0
  9
$SHADOWPLANELOCATION
 40
0.0
  0
ENDSEC
  0
SECTION
  2
CLASSES
  0
CLASS
  1
ACDBDICTIONARYWDFLT
  2
AcDbDictionaryWithDefault
  3
ObjectDBX Classes
 90
0
 91
0
280
0
281
0
  0
CLASS
  1
SUN
  2
AcDbSun
  3
SCENEOE
 90
1153
 91
0
280
0
281
0
  0
CLASS
  1
VISUALSTYLE
  2
AcDbVisualStyle
  3
ObjectDBX Classes
 90
4095
 91
0
280
0
281
0
  0
CLASS
  1
MATERIAL
  2
AcDbMaterial
  3
ObjectDBX Classes
 90
1153
 91
0
280
0
281
0
  0
CLASS
  1
SCALE
  2
AcDbScale
  3
ObjectDBX Classes
 90
1153
 91
0
280
0
281
0
  0
CLASS
  1
TABLESTYLE
  2
AcDbTableStyle
  3
ObjectDBX Classes
 90
4095
 91
0
280
0
281
0
  0
CLASS
  1
MLEADERSTYLE
  2
AcDbMLeaderStyle
  3
ACDB_MLEADERSTYLE_CLASS
 90
4095
 91
0
280
0
281
0
  0
CLASS
  1
DICTIONARYVAR
  2
AcDbDictionaryVar
  3
ObjectDBX Classes
 90
0
 91
0
280
0
281
0
  0
CLASS
  1
CELLSTYLEMAP
  2
AcDbCellStyleMap
  3
ObjectDBX Classes
 90
1152
 91
0
280
0
281
0
  0
CLASS
  1
MENTALRAYRENDERSETTINGS
  2
AcDbMentalRayRenderSettings
  3
SCENEOE
 90
1024
 91
0
280
0
281
0
  0
CLASS
  1
ACDBDETAILVIEWSTYLE
  2
AcDbDetailViewStyle
  3
ObjectDBX Classes
 90
1025
 91
0
280
0
281
0
  0
CLASS
  1
ACDBSECTIONVIEWSTYLE
  2
AcDbSectionViewStyle
  3
ObjectDBX Classes
 90
1025
 91
0
280
0
281
0
  0
CLASS
  1
RASTERVARIABLES
  2
AcDbRasterVariables
  3
ISM
 90
0
 91
0
280
0
281
0
  0
CLASS
  1
ACDBPLACEHOLDER
  2
AcDbPlaceHolder
  3
ObjectDBX Classes
 90
0
 91
0
280
0
281
0
  0
CLASS
  1
LAYOUT
  2
AcDbLayout
  3
ObjectDBX Classes
 90
0
 91
0
280
0
281
0
  0
ENDSEC
  0
SECTION
  2
TABLES
  0
TABLE
  2
VPORT
  5
8
330
0
100
AcDbSymbolTable
 70
1
  0
VPORT
  5
23
330
8
100
AcDbSymbolTableRecord
100
AcDbViewportTableRecord
  2
*Active
 70
0
 10
0.0
 20
0.0
 11
1.0
 21
1.0
 12
344.2
 22
148.5
 13
0.0
 23
0.0
 14
0.5
 24
0.5
 15
0.5
 25
0.5
 16
0.0
 26
0.0
 36
1.0
 17
0.0
 27
0.0
 37
0.0
 40
297.0
 41
1.34
 42
50.0
 43
0.0
 44
0.0
 50
0.0
 51
0.0
 71
0
 72
1000
 73
1
 74
3
 75
0
 76
0
 77
0
 78
0
281
0
 65
0
146
0.0
  0
ENDTAB
  0
TABLE
  2
LTYPE
  5
2
330
0
100
AcDbSymbolTable
 70
3
  0
LTYPE
  5
24
330
2
100
AcDbSymbolTableRecord
100
AcDbLinetypeTableRecord
  2
ByBlock
 70
0
  3

 72
65
 73
0
 40
0.0
  0
LTYPE
  5
25
330
2
100
AcDbSymbolTableRecord
100
AcDbLinetypeTableRecord
  2
ByLayer
 70
0
  3

 72
65
 73
0
 40
0.0
  0
LTYPE
  5
26
330
2
100
AcDbSymbolTableRecord
100
AcDbLinetypeTableRecord
  2
Continuous
 70
0
  3

 72
65
 73
0
 40
0.0
  0
ENDTAB
  0
TABLE
  2
LAYER
  5
1
330
0
100
AcDbSymbolTable
 70
2
  0
LAYER
  5
27
330
1
100
AcDbSymbolTableRecord
100
AcDbLayerTableRecord
  2
0
 70
0
 62
7
  6
Continuous
370
-3
390
13
347
21
  0
LAYER
  5
28
330
1
100
AcDbSymbolTableRecord
100
AcDbLayerTableRecord
  2
Defpoints
 70
0
 62
7
  6
Continuous
290
0
370
-3
390
13
347
21
  0
ENDTAB
  0
TABLE
  2
STYLE
  5
5
330
0
100
AcDbSymbolTable
 70
1
  0
STYLE
  5
29
330
5
100
AcDbSymbolTableRecord
100
AcDbTextStyleTableRecord
  2
Standard
 70
0
 40
0.0
 41
1.0
 50
0.0
 71
0
 42
2.5
  3
txt
  4

  0
ENDTAB
  0
TABLE
  2
VIEW
  5
7
330
0
100
AcDbSymbolTable
 70
0
  0
ENDTAB
  0
TABLE
  2
UCS
  5
6
330
0
100
AcDbSymbolTable
 70
0
  0
ENDTAB
  0
TABLE
  2
APPID
  5
3
330
0
100
AcDbSymbolTable
 70
3
  0
APPID
  5
2A
330
3
100
AcDbSymbolTableRecord
100
AcDbRegAppTableRecord
  2
ACAD
 70
0
  0
APPID
  5
7E
330
3
100
AcDbSymbolTableRecord
100
AcDbRegAppTableRecord
  2
HATCHBACKGROUNDCOLOR
 70
0
  0
APPID
  5
7F
330
3
100
AcDbSymbolTableRecord
100
AcDbRegAppTableRecord
  2
EZDXF
 70
0
  0
ENDTAB
  0
TABLE
  2
DIMSTYLE
  5
4
330
0
100
AcDbSymbolTable
 70
1
100
AcDbDimStyleTable
  0
DIMSTYLE
105
2B
330
4
100
AcDbSymbolTableRecord
100
AcDbDimStyleTableRecord
  2
Standard
 70
0
 40
1.0
 41
2.5
 42
0.625
 43
3.75
 44
1.25
 45
0.0
 46
0.0
 47
0.0
 48
0.0
 49
2.5
140
2.5
141
2.5
142
0.0
143
0.03937007874
144
1.0
145
0.0
146
1.0
147
0.625
148
0.0
 69
0
 70
0
 71
0
 72
0
 73
0
 74
0
 75
0
 76
0
 77
1
 78
8
 79
0
170
0
171
3
172
1
173
0
174
0
175
0
176
0
177
0
178
0
179
0
271
0
272
2
273
2
274
3
275
0
276
0
277
2
278
44
279
0
280
0
281
0
282
0
283
0
284
8
285
0
286
0
288
0
289
3
290
0
371
-2
372
-2
  0
ENDTAB
  0
TABLE
  2
BLOCK_RECORD
  5
9
330
0
100
AcDbSymbolTable
 70
2
  0
BLOCK_RECORD
  5
17
330
9
100
AcDbSymbolTableRecord
100
AcDbBlockTableRecord
  2
*Model_Space
340
1A
 70
0
280
1
281
0
  0
BLOCK_RECORD
  5
1B
330
9
100
AcDbSymbolTableRecord
100
AcDbBlockTableRecord
  2
*Paper_Space
340
1E
 70
0
280
1
281
0
  0
ENDTAB
  0
ENDSEC
  0
SECTION
  2
BLOCKS
  0
BLOCK
  5
18
330
17
100
AcDbEntity
  8
0
100
AcDbBlockBegin
  2
*Model_Space
 70
0
 10
0.0
 20
0.0
 30
0.0
  3
*Model_Space
  1

  0
ENDBLK
  5
19
330
17
100
AcDbEntity
  8
0
100
AcDbBlockEnd
  0
BLOCK
  5
1C
330
1B
100
AcDbEntity
  8
0
100
AcDbBlockBegin
  2
*Paper_Space
 70
0
 10
0.0
 20
0.0
 30
0.0
  3
*Paper_Space
  1

  0
ENDBLK
  5
1D
330
1B
100
AcDbEntity
  8
0
100
AcDbBlockEnd
  0
ENDSEC
  0
SECTION
  2
ENTITIES
  0
SPLINE
  5
2F
330
17
100
AcDbEntity
  8
0
100
AcDbSpline
 70
0
 71
8
 72
88
 73
79
 74
0
 40
0.0
 40
0.0
 40
0.0
 40
0.0
 40
0.0
 40
0.0
 40
0.0
 40
0.0
 40
0.0
 40
0.053102841500459796
 40
0.053102841500459796
 40
0.053102841500459796
 40
0.053102841500459796
 40
0.053102841500459796
 40
0.053102841500459796
 40
0.053102841500459796
 40
0.1689377358123929
 40
0.1689377358123929
 40
0.1689377358123929
 40
0.1689377358123929
 40
0.1689377358123929
 40
0.1689377358123929
 40
0.1689377358123929
 40
0.2610295337876456
 40
0.2610295337876456
 40
0.2610295337876456
 40
0.2610295337876456
 40
0.2610295337876456
 40
0.2610295337876456
 40
0.2610295337876456
 40
0.36640988744272274
 40
0.36640988744272274
 40
0.36640988744272274
 40
0.36640988744272274
 40
0.36640988744272274
 40
0.36640988744272274
 40
0.36640988744272274
 40
0.42061438413609437
 40
0.42061438413609437
 40
0.42061438413609437
 40
0.42061438413609437
 40
0.42061438413609437
 40
0.42061438413609437
 40
0.42061438413609437
 40
0.486163010195892
 40
0.486163010195892
 40
0.486163010195892
 40
0.486163010195892
 40
0.486163010195892
 40
0.486163010195892
 40
0.486163010195892
 40
0.5128740424589217
 40
0.5128740424589217
 40
0.5128740424589217
 40
0.5128740424589217
 40
0.5128740424589217
 40
0.5128740424589217
 40
0.5128740424589217
 40
0.5336492002705144
 40
0.5336492002705144
 40
0.5336492002705144
 40
0.5336492002705144
 40
0.5336492002705144
 40
0.5336492002705144
 40
0.5336492002705144
 40
0.6037512930926011
 40
0.6037512930926011
 40
0.6037512930926011
 40
0.6037512930926011
 40
0.6037512930926011
 40
0.6037512930926011
 40
0.6037512930926011
 40
0.7935060184288011
 40
0.7935060184288011
 40
0.7935060184288011
 40
0.7935060184288011
 40
0.7935060184288011
 40
0.7935060184288011
 40
0.7935060184288011
 40
1.0
 40
1.0
 40
1.0
 40
1.0
 40
1.0
 40
1.0
 40
1.0
 40
1.0
 40
1.0
 10
45.99153656679243
 20
235.90000001106114
 30
1237.0
 10
45.81727651297747
 20
236.3660119724375
 30
1237.0
 10
45.6426757993413
 20
236.8252398879269
 30
1237.0
 10
45.46773934718218
 20
237.27773087524233
 30
1237.0
 10
45.29247207779815
 20
237.72353205209737
 30
1237.0
 10
45.116878912487024
 20
238.16269053620636
 30
1237.0
 10
44.94096477254639
 20
238.595253445284
 30
1237.0
 10
44.7647345792736
 20
239.0212678970456
 30
1237.0
 10
44.203098121936996
 20
240.35587812334705
 30
1237.0
 10
43.80571820531806
 20
241.26571498578042
 30
1237.0
 10
43.39510638622612
 20
242.16976825558766
 30
1237.0
 10
42.970219949738315
 20
243.0673300462642
 30
1237.0
 10
42.52989113920412
 20
243.95749297144138
 30
1237.0
 10
42.072795672522915
 20
244.83913452305333
 30
1237.0
 10
41.59739383419195
 20
245.71088781142498
 30
1237.0
 10
40.70782349358391
 20
247.25496571707097
 30
1237.0
 10
40.301151867022824
 20
247.93141196924884
 30
1237.0
 10
39.88083871299783
 20
248.59965521356204
 30
1237.0
 10
39.44586165305658
 20
249.25865883510016
 30
1237.0
 10
38.995131965320645
 20
249.90711283984697
 30
1237.0
 10
38.52747366553025
 20
250.54341936545455
 30
1237.0
 10
38.0415907993553
 20
251.1656697067162
 30
1237.0
 10
36.95750324761223
 20
252.4649916879792
 30
1237.0
 10
36.3534747093295
 20
253.1366957527261
 30
1237.0
 10
35.72159709317344
 20
253.78362239729364
 30
1237.0
 10
35.059802672221096
 20
254.401303408376
 30
1237.0
 10
34.3664244976755
 20
254.98407510502253
 30
1237.0
 10
33.64032808097615
 20
255.52524346735686
 30
1237.0
 10
32.88125950821257
 20
256.0175108539703
 30
1237.0
 10
31.68394327413832
 20
256.6784122372149
 30
1237.0
 10
31.269006658670616
 20
256.8880652313681
 30
1237.0
 10
30.846174802615923
 20
257.081867611408
 30
1237.0
 10
30.415909979697307
 20
257.25887538479714
 30
1237.0
 10
29.978789776341117
 20
257.4182620137662
 30
1237.0
 10
29.53552257931486
 20
257.5593590706317
 30
1237.0
 10
29.08696386713567
 20
257.6816983330932
 30
1237.0
 10
28.086532589805945
 20
257.9100432608543
 30
1237.0
 10
27.532491479318132
 20
258.0073164772196
 30
1237.0
 10
26.973868443386166
 20
258.07642623350756
 30
1237.0
 10
26.41239149462862
 20
258.11757523785315
 30
1237.0
 10
25.84965324003708
 20
258.1314956139229
 30
1237.0
 10
25.287105328123886
 20
258.11933053931443
 30
1237.0
 10
24.726052291862537
 20
258.0825195500559
 30
1237.0
 10
23.940094009263866
 20
257.9983059853653
 30
1237.0
 10
23.71268589709163
 20
257.9700699540502
 30
1237.0
 10
23.485429329916254
 20
257.9380644274825
 30
1237.0
 10
23.25833318674931
 20
257.90237441588357
 30
1237.0
 10
23.031406346602253
 20
257.86308492947364
 30
1237.0
 10
22.80465768848639
 20
257.82028097847234
 30
1237.0
 10
22.57809609141289
 20
257.77404757309847
 30
1237.0
 10
22.175669015223026
 20
257.6859093400637
 30
1237.0
 10
21.99972620232145
 20
257.6453219929399
 30
1237.0
 10
21.823902352727202
 20
257.6027624966199
 30
1237.0
 10
21.64820298137633
 20
257.5582682063826
 30
1237.0
 10
21.472638761101777
 20
257.51185901836345
 30
1237.0
 10
21.2972255226334
 20
257.46353736955507
 30
1237.0
 10
21.121984254597944
 20
257.4132882378068
 30
1237.0
 10
20.35628897292719
 20
257.1849087884701
 30
1237.0
 10
19.771866386344556
 20
256.9877752792479
 30
1237.0
 10
19.194551357547134
 20
256.76997530566894
 30
1237.0
 10
18.625182251899325
 20
256.5318595715485
 30
1237.0
 10
18.06455585498962
 20
256.273836962721
 30
1237.0
 10
17.51342544126628
 20
255.99637871675452
 30
1237.0
 10
16.97249884267296
 20
255.70002259266582
 30
1237.0
 10
15.00764581538013
 20
254.53368377584934
 30
1237.0
 10
13.652101896968752
 20
253.54777506200946
 30
1237.0
 10
12.38989660711151
 20
252.4401690393563
 30
1237.0
 10
11.229012179770407
 20
251.22577318039475
 30
1237.0
 10
10.172988923354254
 20
249.9202673898219
 30
1237.0
 10
9.22175826298377
 20
248.53936463689365
 30
1237.0
 10
8.37263960967934
 20
247.09788130912705
 30
1237.0
 10
6.80338712098618
 20
243.98880899589489
 30
1237.0
 10
6.100909821422327
 20
242.3118382085763
 30
1237.0
 10
5.506417024438859
 20
240.5916346743606
 30
1237.0
 10
5.011884107942002
 20
238.83975992398956
 30
1237.0
 10
4.609079771014173
 20
237.06567281408815
 30
1237.0
 10
4.290018438325625
 20
235.2766075010513
 30
1237.0
 10
4.0473314412878665
 20
233.47747189098916
 30
1237.0
 10
3.874530849059724
 20
231.67077642768163
 30
1237.0
  0
LINE
  5
30
330
17
100
AcDbEntity
  8
0
100
AcDbLine
 10
26.488659603005225
 20
235.9
 30
1237.0
 11
45.991536537212326
 21
235.9
 31
1237.0
  0
SPLINE
  5
31
330
17
100
AcDbEntity
  8
0
100
AcDbSpline
 70
0
 71
1
 72
4
 73
2
 74
0
 40
0.0
 40
0.0
 40
1.0
 40
1.0
 10
26.488659612035654
 20
235.9000006000011
 30
1237.0
 10
26.488659612035654
 20
232.09999939999986
 30
1237.0
  0
LINE
  5
32
330
17
100
AcDbEntity
  8
0
100
AcDbLine
 10
26.488659603005225
 20
232.1
 30
1237.0
 11
47.33566212506581
 21
232.1
 31
1237.0
  0
SPLINE
  5
33
330
17
100
AcDbEntity
  8
0
100
AcDbSpline
 70
0
 71
8
 72
32
 73
23
 74
0
 40
0.0
 40
0.0
 40
0.0
 40
0.0
 40
0.0
 40
0.0
 40
0.0
 40
0.0
 40
0.0
 40
0.42413167523649403
 40
0.42413167523649403
 40
0.42413167523649403
 40
0.42413167523649403
 40
0.42413167523649403
 40
0.42413167523649403
 40
0.42413167523649403
 40
0.9096797174937653
 40
0.9096797174937653
 40
0.9096797174937653
 40
0.9096797174937653
 40
0.9096797174937653
 40
0.9096797174937653
 40
0.9096797174937653
 40
1.0
 40
1.0
 40
1.0
 40
1.0
 40
1.0
 40
1.0
 40
1.0
 40
1.0
 40
1.0
 10
53.32912848524387
 20
209.9000000030925
 30
1237.0
 10
53.06187678256137
 20
211.09202298135943
 30
1237.0
 10
52.789948186369486
 20
212.28299392363112
 30
1237.0
 10
52.51312836989846
 20
213.47284019696184
 30
1237.0
 10
52.23117959970108
 20
214.66148060867735
 30
1237.0
 10
51.943836230031565
 20
215.84882439769552
 30
1237.0
 10
51.650798665661924
 20
217.03476988464934
 30
1237.0
 10
51.3517248690515
 20
218.21920257274195
 30
1237.0
 10
50.696471505045395
 20
220.75605584013508
 30
1237.0
 10
50.338306501601046
 20
222.10791707140663
 30
1237.0
 10
49.971125366607076
 20
223.45738591173284
 30
1237.0
 10
49.59424594484612
 20
224.80421202354984
 30
1237.0
 10
49.20687056061418
 20
226.14807575109893
 30
1237.0
 10
48.808056698722545
 20
227.48857965002452
 30
1237.0
 10
48.3966554359272
 20
228.82523066860955
 30
1237.0
 10
47.89203904499053
 20
230.40520999975791
 30
1237.0
 10
47.812805802459124
 20
230.65160941543445
 30
1237.0
 10
47.73348711632257
 20
230.89659291649093
 30
1237.0
 10
47.654084979375256
 20
231.14015239043903
 30
1237.0
 10
47.574600736283564
 20
231.38228004204245
 30
1237.0
 10
47.49503524780075
 20
231.6229684538435
 30
1237.0
 10
47.41538905498185
 20
231.8622106466895
 30
1237.0
 10
47.335662543398584
 20
232.1000001402594
 30
1237.0
  0
LINE
  5
34
330
17
100
AcDbEntity
  8
0
100
AcDbLine
 10
26.488659603005225
 20
209.9
 30
1237.0
 11
53.32912847145018
 21
209.9
 31
1237.0
  0
SPLINE
  5
35
330
17
100
AcDbEntity
  8
0
100
AcDbSpline
 70
0
 71
1
 72
4
 73
2
 74
0
 40
0.0
 40
0.0
 40
1.0
 40
1.0
 10
26.488659612035654
 20
209.90000060000008
 30
1237.0
 10
26.488659612035654
 20
206.09999939999994
 30
1237.0
  0
LINE
  5
36
330
17
100
AcDbEntity
  8
0
100
AcDbLine
 10
26.488659603005225
 20
206.1
 30
1237.0
 11
54.1600696196348
 21
206.1
 31
1237.0
  0
SPLINE
  5
37
330
17
100
AcDbEntity
  8
0
100
AcDbSpline
 70
0
 71
8
 72
25
 73
16
 74
0
 40
0.0
 40
0.0
 40
0.0
 40
0.0
 40
0.0
 40
0.0
 40
0.0
 40
0.0
 40
0.0
 40
0.41246816373151873
 40
0.41246816373151873
 40
0.41246816373151873
 40
0.41246816373151873
 40
0.41246816373151873
 40
0.41246816373151873
 40
0.41246816373151873
 40
1.0
 40
1.0
 40
1.0
 40
1.0
 40
1.0
 40
1.0
 40
1.0
 40
1.0
 40
1.0
 10
58.336585827978006
 20
183.89999999662894
 30
1237.0
 10
58.14518517199224
 20
185.0489675458223
 30
1237.0
 10
57.95130800740958
 20
186.19752155091712
 30
1237.0
 10
57.75489903227495
 20
187.34564627467915
 30
1237.0
 10
57.5558988480183
 20
188.4933248991
 30
1237.0
 10
57.354243503023106
 20
189.64053945141558
 30
1237.0
 10
57.14986394681701
 20
190.78727071558885
 30
1237.0
 10
56.94268537390781
 20
191.9334981257802
 30
1237.0
 10
56.43341228063606
 20
194.71117071554545
 30
1237.0
 10
56.12836323320933
 20
196.34202247874276
 30
1237.0
 10
55.817241283757866
 20
197.97171278411662
 30
1237.0
 10
55.499781535779476
 20
199.60018218059435
 30
1237.0
 10
55.17568975410637
 20
201.22735341380388
 30
1237.0
 10
54.84463474689879
 20
202.85312969842948
 30
1237.0
 10
54.506240019873275
 20
204.4773928289181
 30
1237.0
 10
54.160069617457935
 20
206.09999999953556
 30
1237.0
  0
LINE
  5
38
330
17
100
AcDbEntity
  8
0
100
AcDbLine
 10
26.488659603005225
 20
183.9
 30
1237.0
 11
58.33658584821491
 21
183.9
 31
1237.0
  0
SPLINE
  5
39
330
17
100
AcDbEntity
  8
0
100
AcDbSpline
 70
0
 71
1
 72
4
 73
2
 74
0
 40
0.0
 40
0.0
 40
1.0
 40
1.0
 10
26.488659612035654
 20
183.90000060000014
 30
1237.0
 10
26.488659612035654
 20
180.0999993999999
 30
1237.0
  0
LINE
  5
3A
330
17
100
AcDbEntity
  8
0
100
AcDbLine
 10
26.488659603005225
 20
180.1
 30
1237.0
 11
58.95766011076098
 21
180.1
 31
1237.0
  0
SPLINE
  5
3B
330
17
100
AcDbEntity
  8
0
100
AcDbSpline
 70
0
 71
8
 72
25
 73
16
 74
0
 40
0.0
 40
0.0
 40
0.0
 40
0.0
 40
0.0
 40
0.0
 40
0.0
 40
0.0
 40
0.0
 40
0.22953931772649547
 40
0.22953931772649547
 40
0.22953931772649547
 40
0.22953931772649547
 40
0.22953931772649547
 40
0.22953931772649547
 40
0.22953931772649547
 40
1.0
 40
1.0
 40
1.0
 40
1.0
 40
1.0
 40
1.0
 40
1.0
 40
1.0
 40
1.0
 10
62.15835644501121
 20
157.9000000046635
 30
1237.0
 10
62.07587800798039
 20
158.53827871813223
 30
1237.0
 10
61.99282297693911
 20
159.17648285381412
 30
1237.0
 10
61.90918800309044
 20
159.8146113757226
 30
1237.0
 10
61.8249695916609
 20
160.45266322205225
 30
1237.0
 10
61.740164096904884
 20
161.09063730457206
 30
1237.0
 10
61.654767716789756
 20
161.72853250798002
 30
1237.0
 10
61.56877648736159
 20
162.36634768921866
 30
1237.0
 10
61.19154172240838
 20
165.14466904108835
 30
1237.0
 10
60.8941506968916
 20
167.2843276013695
 30
1237.0
 10
60.58985580962495
 20
169.42301875507945
 30
1237.0
 10
60.27847913804953
 20
171.5606956663422
 30
1237.0
 10
59.959818454091575
 20
173.69730263541845
 30
1237.0
 10
59.63364368507773
 20
175.83277451846072
 30
1237.0
 10
59.29969202626425
 20
177.96703593514758
 30
1237.0
 10
58.95766012210622
 20
180.10000000181924
 30
1237.0
  0
LINE
  5
3C
330
17
100
AcDbEntity
  8
0
100
AcDbLine
 10
26.488659603005225
 20
157.9
 30
1237.0
 11
62.15835640892115
 21
157.9
 31
1237.0
  0
SPLINE
  5
3D
330
17
100
AcDbEntity
  8
0
100
AcDbSpline
 70
0
 71
1
 72
4
 73
2
 74
0
 40
0.0
 40
0.0
 40
1.0
 40
1.0
 10
26.488659612035654
 20
157.90000060000042
 30
1237.0
 10
26.488659612035654
 20
154.09999939999918
 30
1237.0
  0
LINE
  5
3E
330
17
100
AcDbEntity
  8
0
100
AcDbLine
 10
26.488659603005225
 20
154.1
 30
1237.0
 11
62.64038479980125
 21
154.1
 31
1237.0
  0
SPLINE
  5
3F
330
17
100
AcDbEntity
  8
0
100
AcDbSpline
 70
0
 71
8
 72
25
 73
16
 74
0
 40
0.0
 40
0.0
 40
0.0
 40
0.0
 40
0.0
 40
0.0
 40
0.0
 40
0.0
 40
0.0
 40
0.06664788728996458
 40
0.06664788728996458
 40
0.06664788728996458
 40
0.06664788728996458
 40
0.06664788728996458
 40
0.06664788728996458
 40
0.06664788728996458
 40
1.0
 40
1.0
 40
1.0
 40
1.0
 40
1.0
 40
1.0
 40
1.0
 40
1.0
 40
1.0
 10
65.1134974725426
 20
131.90000003455108
 30
1237.0
 10
65.09520486748556
 20
132.0853666705378
 30
1237.0
 10
65.07687090143972
 20
132.27070560895535
 30
1237.0
 10
65.05849563569764
 20
132.456016350987
 30
1237.0
 10
65.04007913596779
 20
132.64129837126052
 30
1237.0
 10
65.02162147143298
 20
132.82655111774244
 30
1237.0
 10
65.00312271362962
 20
133.0117740116135
 30
1237.0
 10
64.98458293514726
 20
133.1969664471252
 30
1237.0
 10
64.7057934977942
 20
135.97516920554958
 30
1237.0
 10
64.43702380720842
 20
138.56734728693277
 30
1237.0
 10
64.15965022414022
 20
141.15862792462968
 30
1237.0
 10
63.87360450476277
 20
143.7489717522629
 30
1237.0
 10
63.578792634777265
 20
146.33833409629145
 30
1237.0
 10
63.27509298268102
 20
148.92666475286987
 30
1237.0
 10
62.962353045199976
 20
151.51390759330965
 30
1237.0
 10
62.640384784885924
 20
154.09999999814292
 30
1237.0
  0
LINE
  5
40
330
17
100
AcDbEntity
  8
0
100
AcDbLine
 10
26.488659603005225
 20
131.9
 30
1237.0
 11
65.11349712242142
 21
131.9
 31
1237.0
  0
SPLINE
  5
41
330
17
100
AcDbEntity
  8
0
100
AcDbSpline
 70
0
 71
1
 72
4
 73
2
 74
0
 40
0.0
 40
0.0
 40
1.0
 40
1.0
 10
26.488659612035654
 20
131.90000060000256
 30
1237.0
 10
26.488659612035654
 20
128.09999939999764
 30
1237.0
  0
LINE
  5
42
330
17
100
AcDbEntity
  8
0
100
AcDbLine
 10
26.488659603005225
 20
128.1
 30
1237.0
 11
65.48040554370228
 21
128.1
 31
1237.0
  0
SPLINE
  5
43
330
17
100
AcDbEntity
  8
0
100
AcDbSpline
 70
0
 71
8
 72
25
 73
16
 74
0
 40
0.0
 40
0.0
 40
0.0
 40
0.0
 40
0.0
 40
0.0
 40
0.0
 40
0.0
 40
0.0
 40
0.7823734064901043
 40
0.7823734064901043
 40
0.7823734064901043
 40
0.7823734064901043
 40
0.7823734064901043
 40
0.7823734064901043
 40
0.7823734064901043
 40
1.0
 40
1.0
 40
1.0
 40
1.0
 40
1.0
 40
1.0
 40
1.0
 40
1.0
 40
1.0
 10
67.31601556200974
 20
105.89999999979945
 30
1237.0
 10
67.16063466525227
 20
108.07353657483236
 30
1237.0
 10
67.00009309565543
 20
110.24670401756501
 30
1237.0
 10
66.83429691721463
 20
112.41948116131198
 30
1237.0
 10
66.66315083838973
 20
114.59184582058383
 30
1237.0
 10
66.48655816576634
 20
116.76377478785145
 30
1237.0
 10
66.3044207577171
 20
118.93524383031037
 30
1237.0
 10
66.11663897806304
 20
121.1062276866451
 30
1237.0
 10
65.86927969063998
 20
123.8804431177211
 30
1237.0
 10
65.81502103105544
 20
124.48393787551944
 30
1237.0
 10
65.76033453491732
 20
125.08719361309215
 30
1237.0
 10
65.70521796841098
 20
125.69021652781349
 30
1237.0
 10
65.64966877898273
 20
126.29300981838097
 30
1237.0
 10
65.59368466663042
 20
126.89557374276717
 30
1237.0
 10
65.53726394747271
 20
127.49790565427065
 30
1237.0
 10
65.48040570959716
 20
128.10000001566613
 30
1237.0
  0
LINE
  5
44
330
17
100
AcDbEntity
  8
0
100
AcDbLine
 10
26.488659603005225
 20
105.9
 30
1237.0
 11
67.31601556481533
 21
105.9
 31
1237.0
  0
SPLINE
  5
45
330
17
100
AcDbEntity
  8
0
100
AcDbSpline
 70
0
 71
1
 72
4
 73
2
 74
0
 40
0.0
 40
0.0
 40
1.0
 40
1.0
 10
26.488659612035654
 20
105.90000060000206
 30
1237.0
 10
26.488659612035654
 20
102.09999939999993
 30
1237.0
  0
LINE
  5
46
330
17
100
AcDbEntity
  8
0
100
AcDbLine
 10
26.488659603005225
 20
102.1
 30
1237.0
 11
67.58078933143868
 21
102.1
 31
1237.0
  0
SPLINE
  5
47
330
17
100
AcDbEntity
  8
0
100
AcDbSpline
 70
0
 71
8
 72
25
 73
16
 74
0
 40
0.0
 40
0.0
 40
0.0
 40
0.0
 40
0.0
 40
0.0
 40
0.0
 40
0.0
 40
0.0
 40
0.10962596156565588
 40
0.10962596156565588
 40
0.10962596156565588
 40
0.10962596156565588
 40
0.10962596156565588
 40
0.10962596156565588
 40
0.10962596156565588
 40
1.0
 40
1.0
 40
1.0
 40
1.0
 40
1.0
 40
1.0
 40
1.0
 40
1.0
 40
1.0
 10
68.86780719895638
 20
79.9000000011787
 30
1237.0
 10
68.85303162457616
 20
80.20436886956423
 30
1237.0
 10
68.83817076597693
 20
80.50873365221429
 30
1237.0
 10
68.82322439109761
 20
80.81309431292212
 30
1237.0
 10
68.80819226745047
 20
81.11745081528561
 30
1237.0
 10
68.79307416211859
 20
81.42180312270725
 30
1237.0
 10
68.77786984175349
 20
81.726151198394
 30
1237.0
 10
68.76257907257259
 20
82.03049500535735
 30
1237.0
 10
68.62230707863738
 20
84.80665766527164
 30
1237.0
 10
68.49169473915119
 20
87.27819056524046
 30
1237.0
 10
68.3552391724653
 20
89.74941221439028
 30
1237.0
 10
68.21281311109745
 20
92.22029995453804
 30
1237.0
 10
68.0642873619313
 20
94.69082945513121
 30
1237.0
 10
67.90953071863188
 20
97.16097470713203
 30
1237.0
 10
67.74840987406087
 20
99.63070801690178
 30
1237.0
 10
67.58078933269198
 20
102.10000000008506
 30
1237.0
  0
LINE
  5
48
330
17
100
AcDbEntity
  8
0
100
AcDbLine
 10
26.488659603005225
 20
79.9
 30
1237.0
 11
68.86780717467639
 21
79.9
 31
1237.0
  0
SPLINE
  5
49
330
17
100
AcDbEntity
  8
0
100
AcDbSpline
 70
0
 71
1
 72
4
 73
2
 74
0
 40
0.0
 40
0.0
 40
1.0
 40
1.0
 10
26.488659612035654
 20
79.90000060000001
 30
1237.0
 10
26.488659612035654
 20
76.09999939999999
 30
1237.0
  0
LINE
  5
4A
330
17
100
AcDbEntity
  8
0
100
AcDbLine
 10
26.488659603005225
 20
76.1
 30
1237.0
 11
69.04649904847223
 21
76.1
 31
1237.0
  0
SPLINE
  5
4B
330
17
100
AcDbEntity
  8
0
100
AcDbSpline
 70
0
 71
8
 72
18
 73
9
 74
0
 40
0.0
 40
0.0
 40
0.0
 40
0.0
 40
0.0
 40
0.0
 40
0.0
 40
0.0
 40
0.0
 40
1.0
 40
1.0
 40
1.0
 40
1.0
 40
1.0
 40
1.0
 40
1.0
 40
1.0
 40
1.0
 10
69.87284670841007
 20
53.89999999907923
 30
1237.0
 10
69.79136099474827
 20
56.67575882936035
 30
1237.0
 10
69.70397131780906
 20
59.451343300591326
 30
1237.0
 10
69.61051721952029
 20
62.22673385596758
 30
1237.0
 10
69.5108359953094
 20
65.0019096068411
 30
1237.0
 10
69.40476255236285
 20
67.77684832962869
 30
1237.0
 10
69.29212926400723
 20
70.5515264625947
 30
1237.0
 10
69.17276582021248
 20
73.32591910250771
 30
1237.0
 10
69.04649907421711
 20
76.10000000117185
 30
1237.0
  0
LINE
  5
4C
330
17
100
AcDbEntity
  8
0
100
AcDbLine
 10
26.488659603005225
 20
53.9
 30
1237.0
 11
69.8728467397767
 21
53.9
 31
1237.0
  0
SPLINE
  5
4D
330
17
100
AcDbEntity
  8
0
100
AcDbSpline
 70
0
 71
1
 72
4
 73
2
 74
0
 40
0.0
 40
0.0
 40
1.0
 40
1.0
 10
26.488659612035654
 20
53.90000060000026
 30
1237.0
 10
26.488659612035654
 20
50.09999939999937
 30
1237.0
  0
LINE
  5
4E
330
17
100
AcDbEntity
  8
0
100
AcDbLine
 10
26.488659603005225
 20
50.1
 30
1237.0
 11
69.97960059266217
 21
50.1
 31
1237.0
  0
SPLINE
  5
4F
330
17
100
AcDbEntity
  8
0
100
AcDbSpline
 70
0
 71
8
 72
18
 73
9
 74
0
 40
0.0
 40
0.0
 40
0.0
 40
0.0
 40
0.0
 40
0.0
 40
0.0
 40
0.0
 40
0.0
 40
1.0
 40
1.0
 40
1.0
 40
1.0
 40
1.0
 40
1.0
 40
1.0
 40
1.0
 40
1.0
 10
70.42355965809955
 20
27.90000000038551
 30
1237.0
 10
70.38597119049783
 20
30.675318771286868
 30
1237.0
 10
70.343568824516
 20
33.45057332788054
 30
1237.0
 10
70.29620359337015
 20
36.2257518860264
 30
1237.0
 10
70.2437249187978
 20
39.000841345804
 30
1237.0
 10
70.18598048325453
 20
41.77582728886901
 30
1237.0
 10
70.1228160982442
 20
44.55069397568429
 30
1237.0
 10
70.05407556878262
 20
47.32542434262563
 30
1237.0
 10
69.97960055399469
 20
50.099999998962126
 30
1237.0
  0
LINE
  5
50
330
17
100
AcDbEntity
  8
0
100
AcDbLine
 10
26.488659603005225
 20
27.9
 30
1237.0
 11
70.42355962963599
 21
27.9
 31
1237.0
  0
SPLINE
  5
51
330
17
100
AcDbEntity
  8
0
100
AcDbSpline
 70
0
 71
1
 72
4
 73
2
 74
0
 40
0.0
 40
0.0
 40
1.0
 40
1.0
 10
26.488659612035654
 20
27.900000600000002
 30
1237.0
 10
26.488659612035654
 20
24.099999399999998
 30
1237.0
  0
LINE
  5
52
330
17
100
AcDbEntity
  8
0
100
AcDbLine
 10
26.488659603005225
 20
24.1
 30
1237.0
 11
70.47111903266975
 21
24.1
 31
1237.0
  0
SPLINE
  5
53
330
17
100
AcDbEntity
  8
0
100
AcDbSpline
 70
0
 71
8
 72
18
 73
9
 74
0
 40
0.0
 40
0.0
 40
0.0
 40
0.0
 40
0.0
 40
0.0
 40
0.0
 40
0.0
 40
0.0
 40
1.0
 40
1.0
 40
1.0
 40
1.0
 40
1.0
 40
1.0
 40
1.0
 40
1.0
 40
1.0
 10
70.60405790576368
 20
1.9000000000078705
 30
1237.0
 10
70.60172115404745
 20
4.675069605243506
 30
1237.0
 10
70.59558935973169
 20
7.450130811359484
 30
1237.0
 10
70.58552137848095
 20
10.225179505915392
 30
1237.0
 10
70.57137502205251
 20
13.000210272999787
 30
1237.0
 10
70.55300694418051
 20
15.775216391028998
 30
1237.0
 10
70.5302725225979
 20
18.5501898304207
 30
1237.0
 10
70.50302573719605
 20
21.32512125114228
 30
1237.0
 10
70.47111904432226
 20
24.10000000013401
 30
1237.0
  0
LINE
  5
54
330
17
100
AcDbEntity
  8
0
100
AcDbLine
 10
26.488659603005225
 20
1.9
 30
1237.0
 11
70.60405789642775
 21
1.9
 31
1237.0
  0
SPLINE
  5
55
330
17
100
AcDbEntity
  8
0
100
AcDbSpline
 70
0
 71
1
 72
4
 73
2
 74
0
 40
0.0
 40
0.0
 40
0.9999993684216398
 40
0.9999993684216398
 10
26.488659612035654
 20
1.9000006000000558
 30
1237.0
 10
26.488659612035654
 20
-6.553790374438061e-17
 30
1237.0
  0
SPLINE
  5
56
330
17
100
AcDbEntity
  8
0
100
AcDbSpline
 70
0
 71
1
 72
4
 73
2
 74
0
 40
0.0
 40
0.0
 40
1.0
 40
1.0
 10
26.488659612035654
 20
-1.9000006000000011
 30
1237.0
 10
26.488659612035654
 20
1.2000000211287443e-06
 30
1237.0
  0
LINE
  5
57
330
17
100
AcDbEntity
  8
0
100
AcDbLine
 10
26.488659603005225
 20
-1.9
 30
1237.0
 11
70.60417410733262
 21
-1.9
 31
1237.0
  0
SPLINE
  5
58
330
17
100
AcDbEntity
  8
0
100
AcDbSpline
 70
0
 71
8
 72
18
 73
9
 74
0
 40
0.0
 40
0.0
 40
0.0
 40
0.0
 40
0.0
 40
0.0
 40
0.0
 40
0.0
 40
0.0
 40
1.0
 40
1.0
 40
1.0
 40
1.0
 40
1.0
 40
1.0
 40
1.0
 40
1.0
 40
1.0
 10
70.47252547481654
 20
-24.1000000002172
 30
1237.0
 10
70.50428568098927
 20
-21.32514215741687
 30
1237.0
 10
70.53137987135908
 20
-18.550230528155975
 30
1237.0
 10
70.55395655365531
 20
-15.77527382642568
 30
1237.0
 10
70.5721626934741
 20
-13.000279059659917
 30
1237.0
 10
70.58614383846935
 20
-10.225251533001687
 30
1237.0
 10
70.59604424222748
 20
-7.4501948535410865
 30
1237.0
 10
70.6020069892553
 20
-4.675110934584202
 30
1237.0
 10
70.60417412251117
 20
-1.9000000000118713
 30
1237.0
  0
LINE
  5
59
330
17
100
AcDbEntity
  8
0
100
AcDbLine
 10
26.488659603005225
 20
-24.1
 30
1237.0
 11
70.4725254558416
 21
-24.1
 31
1237.0
  0
SPLINE
  5
5A
330
17
100
AcDbEntity
  8
0
100
AcDbSpline
 70
0
 71
1
 72
4
 73
2
 74
0
 40
0.0
 40
0.0
 40
1.0
 40
1.0
 10
26.488659612035654
 20
-27.900000600000034
 30
1237.0
 10
26.488659612035654
 20
-24.099999399999938
 30
1237.0
  0
LINE
  5
5B
330
17
100
AcDbEntity
  8
0
100
AcDbLine
 10
26.488659603005225
 20
-27.9
 30
1237.0
 11
70.42516105861438
 21
-27.9
 31
1237.0
  0
SPLINE
  5
5C
330
17
100
AcDbEntity
  8
0
100
AcDbSpline
 70
0
 71
8
 72
18
 73
9
 74
0
 40
0.0
 40
0.0
 40
0.0
 40
0.0
 40
0.0
 40
0.0
 40
0.0
 40
0.0
 40
0.0
 40
1.0
 40
1.0
 40
1.0
 40
1.0
 40
1.0
 40
1.0
 40
1.0
 40
1.0
 40
1.0
 10
69.98205309446016
 20
-50.09999999984438
 30
1237.0
 10
70.05646078557726
 20
-47.32540985986542
 30
1237.0
 10
70.12512079950658
 20
-44.55066937075952
 30
1237.0
 10
70.18819248829529
 20
-41.775797311684
 30
1237.0
 10
70.2458330665618
 20
-39.00081073333996
 30
1237.0
 10
70.29819774280719
 20
-36.22572496258531
 30
1237.0
 10
70.34543984705672
 20
-33.45055360688093
 30
1237.0
 10
70.38771095626277
 20
-30.675308558629226
 30
1237.0
 10
70.42516101890091
 20
-27.89999999946412
 30
1237.0
  0
LINE
  5
5D
330
17
100
AcDbEntity
  8
0
100
AcDbLine
 10
26.488659603005225
 20
-50.1
 30
1237.0
 11
69.98205310026411
 21
-50.1
 31
1237.0
  0
SPLINE
  5
5E
330
17
100
AcDbEntity
  8
0
100
AcDbSpline
 70
0
 71
1
 72
4
 73
2
 74
0
 40
0.0
 40
0.0
 40
1.0
 40
1.0
 10
26.488659612035654
 20
-53.9000006
 30
1237.0
 10
26.488659612035654
 20
-50.0999994
 30
1237.0
  0
LINE
  5
5F
330
17
100
AcDbEntity
  8
0
100
AcDbLine
 10
26.488659603005225
 20
-53.9
 30
1237.0
 11
69.87538102628409
 21
-53.9
 31
1237.0
  0
SPLINE
  5
60
330
17
100
AcDbEntity
  8
0
100
AcDbSpline
 70
0
 71
8
 72
18
 73
9
 74
0
 40
0.0
 40
0.0
 40
0.0
 40
0.0
 40
0.0
 40
0.0
 40
0.0
 40
0.0
 40
0.0
 40
1.0
 40
1.0
 40
1.0
 40
1.0
 40
1.0
 40
1.0
 40
1.0
 40
1.0
 40
1.0
 10
69.0489963879423
 20
-76.10000000041887
 30
1237.0
 10
69.1753306391179
 20
-73.32592672036807
 30
1237.0
 10
69.29474181878572
 20
-70.55153501206884
 30
1237.0
 10
69.40740393118574
 20
-67.77685388983717
 30
1237.0
 10
69.51348818279683
 20
-65.00191061273073
 30
1237.0
 10
69.61316313281249
 20
-62.226730690004985
 30
1237.0
 10
69.70659483657086
 20
-59.45133788626319
 30
1237.0
 10
69.79394698337582
 20
-56.675754226359295
 30
1237.0
 10
69.87538103014556
 20
-53.90000000011331
 30
1237.0
  0
LINE
  5
61
330
17
100
AcDbEntity
  8
0
100
AcDbLine
 10
26.488659603005225
 20
-76.1
 30
1237.0
 11
69.04899637874442
 21
-76.1
 31
1237.0
  0
SPLINE
  5
62
330
17
100
AcDbEntity
  8
0
100
AcDbSpline
 70
0
 71
1
 72
4
 73
2
 74
0
 40
0.0
 40
0.0
 40
1.0
 40
1.0
 10
26.488659612035654
 20
-79.90000060000018
 30
1237.0
 10
26.488659612035654
 20
-76.09999939999999
 30
1237.0
  0
LINE
  5
63
330
17
100
AcDbEntity
  8
0
100
AcDbLine
 10
26.488659603005225
 20
-79.9
 30
1237.0
 11
68.8701947327123
 21
-79.9
 31
1237.0
  0
SPLINE
  5
64
330
17
100
AcDbEntity
  8
0
100
AcDbSpline
 70
0
 71
8
 72
18
 73
9
 74
0
 40
0.0
 40
0.0
 40
0.0
 40
0.0
 40
0.0
 40
0.0
 40
0.0
 40
0.0
 40
0.0
 40
1.0
 40
1.0
 40
1.0
 40
1.0
 40
1.0
 40
1.0
 40
1.0
 40
1.0
 40
1.0
 10
67.58178135677139
 20
-102.10000000324744
 30
1237.0
 10
67.7703023579633
 20
-99.32669906700478
 30
1237.0
 10
67.95059723435335
 20
-96.55283814541563
 30
1237.0
 10
68.12285916304606
 20
-93.77845673976373
 30
1237.0
 10
68.28727773612356
 20
-91.00359256041986
 30
1237.0
 10
68.44403914273067
 20
-88.22828153365393
 30
1237.0
 10
68.59332634068363
 20
-85.45255780799883
 30
1237.0
 10
68.73531921904909
 20
-82.67645376022598
 30
1237.0
 10
68.8701947531402
 20
-79.90000000099238
 30
1237.0
  0
LINE
  5
65
330
17
100
AcDbEntity
  8
0
100
AcDbLine
 10
26.488659603005217
 20
-102.1
 30
1237.0
 11
67.58178130899886
 21
-102.1
 31
1237.0
  0
SPLINE
  5
66
330
17
100
AcDbEntity
  8
0
100
AcDbSpline
 70
0
 71
1
 72
4
 73
2
 74
0
 40
0.0
 40
0.0
 40
1.0
 40
1.0
 10
26.488659612035654
 20
-105.90000060000003
 30
1237.0
 10
26.488659612035654
 20
-102.09999939999999
 30
1237.0
  0
LINE
  5
67
330
17
100
AcDbEntity
  8
0
100
AcDbLine
 10
26.488659603005217
 20
-105.9
 30
1237.0
 11
67.31662307048171
 21
-105.9
 31
1237.0
  0
SPLINE
  5
68
330
17
100
AcDbEntity
  8
0
100
AcDbSpline
 70
0
 71
8
 72
25
 73
16
 74
0
 40
0.0
 40
0.0
 40
0.0
 40
0.0
 40
0.0
 40
0.0
 40
0.0
 40
0.0
 40
0.0
 40
0.21741725826335603
 40
0.21741725826335603
 40
0.21741725826335603
 40
0.21741725826335603
 40
0.21741725826335603
 40
0.21741725826335603
 40
0.21741725826335603
 40
1.0
 40
1.0
 40
1.0
 40
1.0
 40
1.0
 40
1.0
 40
1.0
 40
1.0
 40
1.0
 10
65.47775282512312
 20
-128.09999994040322
 30
1237.0
 10
65.53478497163405
 20
-127.49727210559774
 30
1237.0
 10
65.59135897434366
 20
-126.89450090722613
 30
1237.0
 10
65.64747679373906
 20
-126.2916869392131
 30
1237.0
 10
65.703140497637
 20
-125.68883079989573
 30
1237.0
 10
65.75835226118383
 20
-125.08593309202361
 30
1237.0
 10
65.81311436685556
 20
-124.4829944227586
 30
1237.0
 10
65.86742920445776
 20
-123.88001540367499
 30
1237.0
 10
66.11520193003716
 20
-121.10646026949581
 30
1237.0
 10
66.30333646687183
 20
-118.93542546206217
 30
1237.0
 10
66.4858050481466
 20
-116.76391541256083
 30
1237.0
 10
66.6627082000052
 20
-114.59195261784646
 30
1237.0
 10
66.83414487219304
 20
-112.41955888997161
 30
1237.0
 10
67.00021249895896
 20
-110.24675535850191
 30
1237.0
 10
67.16100705714689
 20
-108.07356247271156
 30
1237.0
 10
67.31662312174082
 20
-105.9000000036699
 30
1237.0
  0
LINE
  5
69
330
17
100
AcDbEntity
  8
0
100
AcDbLine
 10
26.488659603005225
 20
-128.1
 30
1237.0
 11
65.47775345495491
 21
-128.1
 31
1237.0
  0
SPLINE
  5
6A
330
17
100
AcDbEntity
  8
0
100
AcDbSpline
 70
0
 71
1
 72
4
 73
2
 74
0
 40
0.0
 40
0.0
 40
1.0
 40
1.0
 10
26.488659612035654
 20
-131.9000006
 30
1237.0
 10
26.488659612035654
 20
-128.09999939999992
 30
1237.0
  0
LINE
  5
6B
330
17
100
AcDbEntity
  8
0
100
AcDbLine
 10
26.488659603005217
 20
-131.9
 30
1237.0
 11
65.11009576373804
 21
-131.9
 31
1237.0
  0
SPLINE
  5
6C
330
17
100
AcDbEntity
  8
0
100
AcDbSpline
 70
0
 71
8
 72
18
 73
9
 74
0
 40
0.0
 40
0.0
 40
0.0
 40
0.0
 40
0.0
 40
0.0
 40
0.0
 40
0.0
 40
0.0
 40
1.0
 40
1.0
 40
1.0
 40
1.0
 40
1.0
 40
1.0
 40
1.0
 40
1.0
 40
1.0
 10
62.63157225120072
 20
-154.0999999980404
 30
1237.0
 10
62.97730844197987
 20
-151.32917205926097
 30
1237.0
 10
63.312429498478615
 20
-148.5570174743357
 30
1237.0
 10
63.6371643935663
 20
-145.78361364947312
 30
1237.0
 10
63.95169539614315
 20
-143.009029383726
 30
1237.0
 10
64.25616471136038
 20
-140.23332568121623
 30
1237.0
 10
64.5506784249236
 20
-137.45655623660474
 30
1237.0
 10
64.83530877453605
 20
-134.67876772165917
 30
1237.0
 10
65.11009577153786
 20
-131.90000000077129
 30
1237.0
  0
LINE
  5
6D
330
17
100
AcDbEntity
  8
0
100
AcDbLine
 10
26.488659603005217
 20
-154.1
 30
1237.0
 11
62.63157226690541
 21
-154.1
 31
1237.0
  0
SPLINE
  5
6E
330
17
100
AcDbEntity
  8
0
100
AcDbSpline
 70
0
 71
1
 72
4
 73
2
 74
0
 40
0.0
 40
0.0
 40
1.0
 40
1.0
 10
26.488659612035654
 20
-157.90000060000003
 30
1237.0
 10
26.488659612035654
 20
-154.0999994
 30
1237.0
  0
LINE
  5
6F
330
17
100
AcDbEntity
  8
0
100
AcDbLine
 10
26.488659603005225
 20
-157.9
 30
1237.0
 11
62.14847230887825
 21
-157.9
 31
1237.0
  0
SPLINE
  5
70
330
17
100
AcDbEntity
  8
0
100
AcDbSpline
 70
0
 71
8
 72
25
 73
16
 74
0
 40
0.0
 40
0.0
 40
0.0
 40
0.0
 40
0.0
 40
0.0
 40
0.0
 40
0.0
 40
0.0
 40
0.6413216981225569
 40
0.6413216981225569
 40
0.6413216981225569
 40
0.6413216981225569
 40
0.6413216981225569
 40
0.6413216981225569
 40
0.6413216981225569
 40
1.0
 40
1.0
 40
1.0
 40
1.0
 40
1.0
 40
1.0
 40
1.0
 40
1.0
 40
1.0
 10
58.94097211999667
 20
-180.09999999804666
 30
1237.0
 10
59.226241761524065
 20
-178.32456169317803
 30
1237.0
 10
59.50591090313367
 20
-176.54822402993955
 30
1237.0
 10
59.78015376745548
 20
-174.7710369828256
 30
1237.0
 10
60.049125265849604
 20
-172.9930443678685
 30
1237.0
 10
60.31296404382931
 20
-171.21428435750119
 30
1237.0
 10
60.57179454676222
 20
-169.43478983142586
 30
1237.0
 10
60.82572870865525
 20
-167.6545886680533
 30
1237.0
 10
61.214206377356035
 20
-164.8776912198793
 30
1237.0
 10
61.35204437443533
 20
-163.88146912448786
 30
1237.0
 10
61.48839944230858
 20
-162.88504261314898
 30
1237.0
 10
61.62328805435104
 20
-161.88841631957894
 30
1237.0
 10
61.75672564463808
 20
-160.89159470170398
 30
1237.0
 10
61.888726671251575
 20
-159.89458204938904
 30
1237.0
 10
62.019304672130815
 20
-158.89738249125696
 30
1237.0
 10
62.14847231427214
 20
-157.90000000069853
 30
1237.0
  0
LINE
  5
71
330
17
100
AcDbEntity
  8
0
100
AcDbLine
 10
26.488659603005225
 20
-180.1
 30
1237.0
 11
58.94097213215443
 21
-180.1
 31
1237.0
  0
SPLINE
  5
72
330
17
100
AcDbEntity
  8
0
100
AcDbSpline
 70
0
 71
1
 72
4
 73
2
 74
0
 40
0.0
 40
0.0
 40
1.0
 40
1.0
 10
26.488659612035654
 20
-183.9000006000001
 30
1237.0
 10
26.488659612035654
 20
-180.09999939999994
 30
1237.0
  0
LINE
  5
73
330
17
100
AcDbEntity
  8
0
100
AcDbLine
 10
26.488659603005217
 20
-183.9
 30
1237.0
 11
58.318676265763095
 21
-183.9
 31
1237.0
  0
SPLINE
  5
74
330
17
100
AcDbEntity
  8
0
100
AcDbSpline
 70
0
 71
8
 72
25
 73
16
 74
0
 40
0.0
 40
0.0
 40
0.0
 40
0.0
 40
0.0
 40
0.0
 40
0.0
 40
0.0
 40
0.0
 40
0.3975763117615504
 40
0.3975763117615504
 40
0.3975763117615504
 40
0.3975763117615504
 40
0.3975763117615504
 40
0.3975763117615504
 40
0.3975763117615504
 40
1.0
 40
1.0
 40
1.0
 40
1.0
 40
1.0
 40
1.0
 40
1.0
 40
1.0
 40
1.0
 10
54.13513909741492
 20
-206.10000000042868
 30
1237.0
 10
54.3697170287583
 20
-205.00199782040184
 30
1237.0
 10
54.60073904027149
 20
-203.903235391952
 30
1237.0
 10
54.82833989387064
 20
-202.80375620417428
 30
1237.0
 10
55.052641864727235
 20
-201.703598869012
 30
1237.0
 10
55.27375676370998
 20
-200.60279756379077
 30
1237.0
 10
55.49178736059542
 20
-199.50138234298294
 30
1237.0
 10
55.706828522995764
 20
-198.39937938939093
 30
1237.0
 10
56.240411275994724
 20
-195.62615552811943
 30
1237.0
 10
56.55518869815406
 20
-193.954224399886
 30
1237.0
 10
56.86360582776525
 20
-192.28110173396556
 30
1237.0
 10
57.16593012594997
 20
-190.6068626759215
 30
1237.0
 10
57.462398372381855
 20
-188.93157486648755
 30
1237.0
 10
57.753221945838675
 20
-187.25529933522702
 30
1237.0
 10
58.03859076158602
 20
-185.5780911654697
 30
1237.0
 10
58.31867627463636
 20
-183.90000000148103
 30
1237.0
  0
LINE
  5
75
330
17
100
AcDbEntity
  8
0
100
AcDbLine
 10
26.488659603005225
 20
-206.1
 30
1237.0
 11
54.13513909540896
 21
-206.1
 31
1237.0
  0
SPLINE
  5
76
330
17
100
AcDbEntity
  8
0
100
AcDbSpline
 70
0
 71
1
 72
4
 73
2
 74
0
 40
0.0
 40
0.0
 40
1.0
 40
1.0
 10
26.488659612035654
 20
-209.90000060000008
 30
1237.0
 10
26.488659612035654
 20
-206.09999939999992
 30
1237.0
  0
LINE
  5
77
330
17
100
AcDbEntity
  8
0
100
AcDbLine
 10
26.488659603005217
 20
-209.9
 30
1237.0
 11
53.30308644566964
 21
-209.9
 31
1237.0
  0
SPLINE
  5
78
330
17
100
AcDbEntity
  8
0
100
AcDbSpline
 70
0
 71
8
 72
25
 73
16
 74
0
 40
0.0
 40
0.0
 40
0.0
 40
0.0
 40
0.0
 40
0.0
 40
0.0
 40
0.0
 40
0.0
 40
0.7638200206283249
 40
0.7638200206283249
 40
0.7638200206283249
 40
0.7638200206283249
 40
0.7638200206283249
 40
0.7638200206283249
 40
0.7638200206283249
 40
1.0
 40
1.0
 40
1.0
 40
1.0
 40
1.0
 40
1.0
 40
1.0
 40
1.0
 40
1.0
 10
47.30500061977737
 20
-232.10000000679818
 30
1237.0
 10
48.00338631440062
 20
-230.01751312810774
 30
1237.0
 10
48.662711769429016
 20
-227.92206118620433
 30
1237.0
 10
49.29008105146747
 20
-225.81662150756537
 30
1237.0
 10
49.88983900005317
 20
-223.70314982908002
 30
1237.0
 10
50.46538220876576
 20
-221.58311209825206
 30
1237.0
 10
51.01927071650408
 20
-219.45751417160162
 30
1237.0
 10
51.55363748949725
 20
-217.327026453859
 30
1237.0
 10
52.22998413022327
 20
-214.53182756718837
 30
1237.0
 10
52.388020097707326
 20
-213.87124671378075
 30
1237.0
 10
52.5444033929173
 20
-213.21027172416177
 30
1237.0
 10
52.69918140717192
 20
-212.5489182455641
 30
1237.0
 10
52.85239842474671
 20
-211.88720095788108
 30
1237.0
 10
53.004095958990895
 20
-211.22513364734613
 30
1237.0
 10
53.15431303636471
 20
-210.56272926874163
 30
1237.0
 10
53.30308643773567
 20
-209.89999999821887
 30
1237.0
  0
LINE
  5
79
330
17
100
AcDbEntity
  8
0
100
AcDbLine
 10
26.488659603005225
 20
-232.1
 30
1237.0
 11
47.3050005995061
 21
-232.1
 31
1237.0
  0
SPLINE
  5
7A
330
17
100
AcDbEntity
  8
0
100
AcDbSpline
 70
0
 71
1
 72
4
 73
2
 74
0
 40
0.0
 40
0.0
 40
1.0
 40
1.0
 10
26.488659612035654
 20
-235.90000060000008
 30
1237.0
 10
26.488659612035654
 20
-232.09999939999992
 30
1237.0
  0
LINE
  5
7B
330
17
100
AcDbEntity
  8
0
100
AcDbLine
 10
26.488659603005217
 20
-235.9
 30
1237.0
 11
45.960757925119644
 21
-235.9
 31
1237.0
  0
SPLINE
  5
7C
330
17
100
AcDbEntity
  8
0
100
AcDbSpline
 70
0
 71
8
 72
88
 73
79
 74
0
 40
0.0
 40
0.0
 40
0.0
 40
0.0
 40
0.0
 40
0.0
 40
0.0
 40
0.0
 40
0.0
 40
0.02444027603296228
 40
0.02444027603296228
 40
0.02444027603296228
 40
0.02444027603296228
 40
0.02444027603296228
 40
0.02444027603296228
 40
0.02444027603296228
 40
0.0468955519000013
 40
0.0468955519000013
 40
0.0468955519000013
 40
0.0468955519000013
 40
0.0468955519000013
 40
0.0468955519000013
 40
0.0468955519000013
 40
0.05377781771805806
 40
0.05377781771805806
 40
0.05377781771805806
 40
0.05377781771805806
 40
0.05377781771805806
 40
0.05377781771805806
 40
0.05377781771805806
 40
0.0573173766341603
 40
0.0573173766341603
 40
0.0573173766341603
 40
0.0573173766341603
 40
0.0573173766341603
 40
0.0573173766341603
 40
0.0573173766341603
 40
0.060857039823872694
 40
0.060857039823872694
 40
0.060857039823872694
 40
0.060857039823872694
 40
0.060857039823872694
 40
0.060857039823872694
 40
0.060857039823872694
 40
0.0686739360191313
 40
0.0686739360191313
 40
0.0686739360191313
 40
0.0686739360191313
 40
0.0686739360191313
 40
0.0686739360191313
 40
0.0686739360191313
 40
0.0784868112233569
 40
0.0784868112233569
 40
0.0784868112233569
 40
0.0784868112233569
 40
0.0784868112233569
 40
0.0784868112233569
 40
0.0784868112233569
 40
0.08611087883932966
 40
0.08611087883932966
 40
0.08611087883932966
 40
0.08611087883932966
 40
0.08611087883932966
 40
0.08611087883932966
 40
0.08611087883932966
 40
0.09939128600871222
 40
0.09939128600871222
 40
0.09939128600871222
 40
0.09939128600871222
 40
0.09939128600871222
 40
0.09939128600871222
 40
0.09939128600871222
 40
0.11695275704794449
 40
0.11695275704794449
 40
0.11695275704794449
 40
0.11695275704794449
 40
0.11695275704794449
 40
0.11695275704794449
 40
0.11695275704794449
 40
0.11913798835804926
 40
0.11913798835804926
 40
0.11913798835804926
 40
0.11913798835804926
 40
0.11913798835804926
 40
0.11913798835804926
 40
0.11913798835804926
 40
0.11913798835804926
 40
0.11913798835804926
 10
3.8745308490597097
 20
-231.67077642768166
 30
1237.0
 10
4.047330220785881
 20
-233.47745913018005
 30
1237.0
 10
4.290015117098136
 20
-235.27658326332346
 30
1237.0
 10
4.609069279224753
 20
-237.06563686261032
 30
1237.0
 10
5.011855555793801
 20
-238.8397132418164
 30
1237.0
 10
5.506352498720055
 20
-240.5915820086121
 30
1237.0
 10
6.100783155378851
 20
-242.311790613638
 30
1237.0
 10
6.803163595034362
 20
-243.98878608281018
 30
1237.0
 10
8.372026802622713
 20
-247.09771211368093
 30
1237.0
 10
9.220821335930538
 20
-248.53902561123564
 30
1237.0
 10
10.171654974900974
 20
-249.91981966275208
 30
1237.0
 10
11.22721283859579
 20
-251.22530061902143
 30
1237.0
 10
12.387574367200685
 20
-252.43976914213343
 30
1237.0
 10
13.649218284853376
 20
-253.54754743221295
 30
1237.0
 10
15.004191639208024
 20
-254.53371610980145
 30
1237.0
 10
16.878034674532397
 20
-255.6468497346837
 30
1237.0
 10
17.325094645398583
 20
-255.8953933314258
 30
1237.0
 10
17.77925828976255
 20
-256.1310049547155
 30
1237.0
 10
18.24012860948356
 20
-256.3533700405766
 30
1237.0
 10
18.707285508240492
 20
-256.5622047456863
 30
1237.0
 10
19.180286437885332
 20
-256.75725461323026
 30
1237.0
 10
19.658667044796665
 20
-256.9382932387575
 30
1237.0
 10
20.390490705710473
 20
-257.190920653594
 30
1237.0
 10
20.63956276970444
 20
-257.27268487590516
 30
1237.0
 10
20.88909410544444
 20
-257.35047713681377
 30
1237.0
 10
21.139045818856978
 20
-257.424265889168
 30
1237.0
 10
21.389365612873373
 20
-257.49406936292104
 30
1237.0
 10
21.639981863687762
 20
-257.55997399325764
 30
1237.0
 10
21.89083018496538
 20
-257.622026418747
 30
1237.0
 10
22.39300217179393
 20
-257.73797338813813
 30
1237.0
 10
22.644335689172056
 20
-257.79188921528487
 30
1237.0
 10
22.89590109144348
 20
-257.8416298984799
 30
1237.0
 10
23.14768643791604
 20
-257.8870788052414
 30
1237.0
 10
23.39967978789739
 20
-257.9281193030864
 30
1237.0
 10
23.651869200695003
 20
-257.9646347595307
 30
1237.0
 10
23.904242735616187
 20
-257.99650854208875
 30
1237.0
 10
24.71450356311692
 20
-258.08350510053094
 30
1237.0
 10
25.274869197045717
 20
-258.12037441409166
 30
1237.0
 10
25.83673395572447
 20
-258.1326028794092
 30
1237.0
 10
26.398792124664524
 20
-258.11874705697767
 30
1237.0
 10
26.959590472358524
 20
-258.07766082251715
 30
1237.0
 10
27.51753443145685
 20
-258.00861064409577
 30
1237.0
 10
28.070893661680966
 20
-257.9113944611891
 30
1237.0
 10
29.304370068635034
 20
-257.6296339649857
 30
1237.0
 10
29.98115341597485
 20
-257.42904283442783
 30
1237.0
 10
30.64439907846456
 20
-257.18550765608387
 30
1237.0
 10
31.291409267578715
 20
-256.9011683243639
 30
1237.0
 10
31.920343830879613
 20
-256.57905835962003
 30
1237.0
 10
32.530037886576366
 20
-256.22270333376645
 30
1237.0
 10
33.11985368864478
 20
-255.83578970943316
 30
1237.0
 10
34.13222759508621
 20
-255.10041329392578
 30
1237.0
 10
34.562924531712554
 20
-254.76249535058082
 30
1237.0
 10
34.98177649920966
 20
-254.409712679326
 30
1237.0
 10
35.38901582040428
 20
-254.04351349168982
 30
1237.0
 10
35.784966931201005
 20
-253.66523455257635
 30
1237.0
 10
36.17002051724372
 20
-253.27607214544076
 30
1237.0
 10
36.544617092752176
 20
-252.87706384561386
 30
1237.0
 10
37.54437879540352
 20
-251.75841361701788
 30
1237.0
 10
38.1489818328438
 20
-251.02082048312164
 30
1237.0
 10
38.72577643832216
 20
-250.26079631926518
 30
1237.0
 10
39.2771092839188
 20
-249.482041241464
 30
1237.0
 10
39.805084432007845
 20
-248.68756027833706
 30
1237.0
 10
40.31163519529694
 20
-247.87971456591194
 30
1237.0
 10
40.79856189270099
 20
-247.06024818510252
 30
1237.0
 10
41.88776160404147
 20
-245.13284391645104
 30
1237.0
 10
42.47628578332429
 20
-244.01765883208782
 30
1237.0
 10
43.03688150475426
 20
-242.8879030328091
 30
1237.0
 10
43.572437197946904
 20
-241.74603048552905
 30
1237.0
 10
44.085345771314884
 20
-240.59397666884283
 30
1237.0
 10
44.57766485145382
 20
-239.43323439262772
 30
1237.0
 10
45.051184388904616
 20
-238.2648856333829
 30
1237.0
 10
45.56428783180246
 20
-236.9434013593564
 30
1237.0
 10
45.621032550409296
 20
-236.79646352681448
 30
1237.0
 10
45.67774120936492
 20
-236.6488240440668
 30
1237.0
 10
45.73441441094506
 20
-236.50047976513005
 30
1237.0
 10
45.79105255022731
 20
-236.35142777410593
 30
1237.0
 10
45.84765584531792
 20
-236.20166539632712
 30
1237.0
 10
45.904224367578436
 20
-236.05119020950326
 30
1237.0
 10
45.96075807185254
 20
-235.900000054867
 30
1237.0
  0
SPLINE
  5
7D
330
17
100
AcDbEntity
  8
0
100
AcDbSpline
 70
0
 71
8
 72
410
 73
401
 74
0
 40
0.0
 40
0.0
 40
0.0
 40
0.0
 40
0.0
 40
0.0
 40
0.0
 40
0.0
 40
0.0
 40
0.002997028261160694
 40
0.002997028261160694
 40
0.002997028261160694
 40
0.002997028261160694
 40
0.002997028261160694
 40
0.002997028261160694
 40
0.002997028261160694
 40
0.006127758841261407
 40
0.006127758841261407
 40
0.006127758841261407
 40
0.006127758841261407
 40
0.006127758841261407
 40
0.006127758841261407
 40
0.006127758841261407
 40
0.009571562479360616
 40
0.009571562479360616
 40
0.009571562479360616
 40
0.009571562479360616
 40
0.009571562479360616
 40
0.009571562479360616
 40
0.009571562479360616
 40
0.011763073885448365
 40
0.011763073885448365
 40
0.011763073885448365
 40
0.011763073885448365
 40
0.011763073885448365
 40
0.011763073885448365
 40
0.011763073885448365
 40
0.014893804465589754
 40
0.014893804465589754
 40
0.014893804465589754
 40
0.014893804465589754
 40
0.014893804465589754
 40
0.014893804465589754
 40
0.014893804465589754
 40
0.01833760810375595
 40
0.01833760810375595
 40
0.01833760810375595
 40
0.01833760810375595
 40
0.01833760810375595
 40
0.01833760810375595
 40
0.01833760810375595
 40
0.024423833686824444
 40
0.024423833686824444
 40
0.024423833686824444
 40
0.024423833686824444
 40
0.024423833686824444
 40
0.024423833686824444
 40
0.024423833686824444
 40
0.03451334245214627
 40
0.03451334245214627
 40
0.03451334245214627
 40
0.03451334245214627
 40
0.03451334245214627
 40
0.03451334245214627
 40
0.03451334245214627
 40
0.055982271739935155
 40
0.055982271739935155
 40
0.055982271739935155
 40
0.055982271739935155
 40
0.055982271739935155
 40
0.055982271739935155
 40
0.055982271739935155
 40
0.07043765399175944
 40
0.07043765399175944
 40
0.07043765399175944
 40
0.07043765399175944
 40
0.07043765399175944
 40
0.07043765399175944
 40
0.07043765399175944
 40
0.0780328684048252
 40
0.0780328684048252
 40
0.0780328684048252
 40
0.0780328684048252
 40
0.0780328684048252
 40
0.0780328684048252
 40
0.0780328684048252
 40
0.08732889845925589
 40
0.08732889845925589
 40
0.08732889845925589
 40
0.08732889845925589
 40
0.08732889845925589
 40
0.08732889845925589
 40
0.08732889845925589
 40
0.13091012522102075
 40
0.13091012522102075
 40
0.13091012522102075
 40
0.13091012522102075
 40
0.13091012522102075
 40
0.13091012522102075
 40
0.13091012522102075
 40
0.2239405011361721
 40
0.2239405011361721
 40
0.2239405011361721
 40
0.2239405011361721
 40
0.2239405011361721
 40
0.2239405011361721
 40
0.2239405011361721
 40
0.3237243710255997
 40
0.3237243710255997
 40
0.3237243710255997
 40
0.3237243710255997
 40
0.3237243710255997
 40
0.3237243710255997
 40
0.3237243710255997
 40
0.3848707876720231
 40
0.3848707876720231
 40
0.3848707876720231
 40
0.3848707876720231
 40
0.3848707876720231
 40
0.3848707876720231
 40
0.3848707876720231
 40
0.5114704503700094
 40
0.5114704503700094
 40
0.5114704503700094
 40
0.5114704503700094
 40
0.5114704503700094
 40
0.5114704503700094
 40
0.5114704503700094
 40
0.5578839769467936
 40
0.5578839769467936
 40
0.5578839769467936
 40
0.5578839769467936
 40
0.5578839769467936
 40
0.5578839769467936
 40
0.5578839769467936
 40
0.5743119759521441
 40
0.5743119759521441
 40
0.5743119759521441
 40
0.5743119759521441
 40
0.5743119759521441
 40
0.5743119759521441
 40
0.5743119759521441
 40
0.5907435066566333
 40
0.5907435066566333
 40
0.5907435066566333
 40
0.5907435066566333
 40
0.5907435066566333
 40
0.5907435066566333
 40
0.5907435066566333
 40
0.6152992001416742
 40
0.6152992001416742
 40
0.6152992001416742
 40
0.6152992001416742
 40
0.6152992001416742
 40
0.6152992001416742
 40
0.6152992001416742
 40
0.6281724433983208
 40
0.6281724433983208
 40
0.6281724433983208
 40
0.6281724433983208
 40
0.6281724433983208
 40
0.6281724433983208
 40
0.6281724433983208
 40
0.6342216840628455
 40
0.6342216840628455
 40
0.6342216840628455
 40
0.6342216840628455
 40
0.6342216840628455
 40
0.6342216840628455
 40
0.6342216840628455
 40
0.6383229853291125
 40
0.6383229853291125
 40
0.6383229853291125
 40
0.6383229853291125
 40
0.6383229853291125
 40
0.6383229853291125
 40
0.6383229853291125
 40
0.6398470056830724
 40
0.6398470056830724
 40
0.6398470056830724
 40
0.6398470056830724
 40
0.6398470056830724
 40
0.6398470056830724
 40
0.6398470056830724
 40
0.6420241776172817
 40
0.6420241776172817
 40
0.6420241776172817
 40
0.6420241776172817
 40
0.6420241776172817
 40
0.6420241776172817
 40
0.6420241776172817
 40
0.6444190667449134
 40
0.6444190667449134
 40
0.6444190667449134
 40
0.6444190667449134
 40
0.6444190667449134
 40
0.6444190667449134
 40
0.6444190667449134
 40
0.6466524237479029
 40
0.6466524237479029
 40
0.6466524237479029
 40
0.6466524237479029
 40
0.6466524237479029
 40
0.6466524237479029
 40
0.6466524237479029
 40
0.6488841021158139
 40
0.6488841021158139
 40
0.6488841021158139
 40
0.6488841021158139
 40
0.6488841021158139
 40
0.6488841021158139
 40
0.6488841021158139
 40
0.6509353663092081
 40
0.6509353663092081
 40
0.6509353663092081
 40
0.6509353663092081
 40
0.6509353663092081
 40
0.6509353663092081
 40
0.6509353663092081
 40
0.6529866305025981
 40
0.6529866305025981
 40
0.6529866305025981
 40
0.6529866305025981
 40
0.6529866305025981
 40
0.6529866305025981
 40
0.6529866305025981
 40
0.6546960173304279
 40
0.6546960173304279
 40
0.6546960173304279
 40
0.6546960173304279
 40
0.6546960173304279
 40
0.6546960173304279
 40
0.6546960173304279
 40
0.6564054041582617
 40
0.6564054041582617
 40
0.6564054041582617
 40
0.6564054041582617
 40
0.6564054041582617
 40
0.6564054041582617
 40
0.6564054041582617
 40
0.659728519638841
 40
0.659728519638841
 40
0.659728519638841
 40
0.659728519638841
 40
0.659728519638841
 40
0.659728519638841
 40
0.659728519638841
 40
0.6652374834713032
 40
0.6652374834713032
 40
0.6652374834713032
 40
0.6652374834713032
 40
0.6652374834713032
 40
0.6652374834713032
 40
0.6652374834713032
 40
0.6769597421559225
 40
0.6769597421559225
 40
0.6769597421559225
 40
0.6769597421559225
 40
0.6769597421559225
 40
0.6769597421559225
 40
0.6769597421559225
 40
0.6848525359859865
 40
0.6848525359859865
 40
0.6848525359859865
 40
0.6848525359859865
 40
0.6848525359859865
 40
0.6848525359859865
 40
0.6848525359859865
 40
0.6889996047896005
 40
0.6889996047896005
 40
0.6889996047896005
 40
0.6889996047896005
 40
0.6889996047896005
 40
0.6889996047896005
 40
0.6889996047896005
 40
0.6940753365256476
 40
0.6940753365256476
 40
0.6940753365256476
 40
0.6940753365256476
 40
0.6940753365256476
 40
0.6940753365256476
 40
0.6940753365256476
 40
0.7178689488879688
 40
0.7178689488879688
 40
0.7178689488879688
 40
0.7178689488879688
 40
0.7178689488879688
 40
0.7178689488879688
 40
0.7178689488879688
 40
0.7686372727304644
 40
0.7686372727304644
 40
0.7686372727304644
 40
0.7686372727304644
 40
0.7686372727304644
 40
0.7686372727304644
 40
0.7686372727304644
 40
0.789728518216184
 40
0.789728518216184
 40
0.789728518216184
 40
0.789728518216184
 40
0.789728518216184
 40
0.789728518216184
 40
0.789728518216184
 40
0.823043271661294
 40
0.823043271661294
 40
0.823043271661294
 40
0.823043271661294
 40
0.823043271661294
 40
0.823043271661294
 40
0.823043271661294
 40
0.8563504745782469
 40
0.8563504745782469
 40
0.8563504745782469
 40
0.8563504745782469
 40
0.8563504745782469
 40
0.8563504745782469
 40
0.8563504745782469
 40
0.9252483979964953
 40
0.9252483979964953
 40
0.9252483979964953
 40
0.9252483979964953
 40
0.9252483979964953
 40
0.9252483979964953
 40
0.9252483979964953
 40
0.9504921859497647
 40
0.9504921859497647
 40
0.9504921859497647
 40
0.9504921859497647
 40
0.9504921859497647
 40
0.9504921859497647
 40
0.9504921859497647
 40
0.9594262388317774
 40
0.9594262388317774
 40
0.9594262388317774
 40
0.9594262388317774
 40
0.9594262388317774
 40
0.9594262388317774
 40
0.9594262388317774
 40
0.9683622084826491
 40
0.9683622084826491
 40
0.9683622084826491
 40
0.9683622084826491
 40
0.9683622084826491
 40
0.9683622084826491
 40
0.9683622084826491
 40
0.9817163535831218
 40
0.9817163535831218
 40
0.9817163535831218
 40
0.9817163535831218
 40
0.9817163535831218
 40
0.9817163535831218
 40
0.9817163535831218
 40
0.9887172361136749
 40
0.9887172361136749
 40
0.9887172361136749
 40
0.9887172361136749
 40
0.9887172361136749
 40
0.9887172361136749
 40
0.9887172361136749
 40
0.9920070232687928
 40
0.9920070232687928
 40
0.9920070232687928
 40
0.9920070232687928
 40
0.9920070232687928
 40
0.9920070232687928
 40
0.9920070232687928
 40
0.9942374831178814
 40
0.9942374831178814
 40
0.9942374831178814
 40
0.9942374831178814
 40
0.9942374831178814
 40
0.9942374831178814
 40
0.9942374831178814
 40
0.9950663230601744
 40
0.9950663230601744
 40
0.9950663230601744
 40
0.9950663230601744
 40
0.9950663230601744
 40
0.9950663230601744
 40
0.9950663230601744
 40
0.9962503801205954
 40
0.9962503801205954
 40
0.9962503801205954
 40
0.9962503801205954
 40
0.9962503801205954
 40
0.9962503801205954
 40
0.9962503801205954
 40
0.9975528428870571
 40
0.9975528428870571
 40
0.9975528428870571
 40
0.9975528428870571
 40
0.9975528428870571
 40
0.9975528428870571
 40
0.9975528428870571
 40
0.9985000885353932
 40
0.9985000885353932
 40
0.9985000885353932
 40
0.9985000885353932
 40
0.9985000885353932
 40
0.9985000885353932
 40
0.9985000885353932
 40
1.0
 40
1.0
 40
1.0
 40
1.0
 40
1.0
 40
1.0
 40
1.0
 40
1.0
 40
1.0
 10
3.8745308490597057
 20
231.67077642768166
 30
1237.0
 10
3.874387170752754
 20
231.67092011794304
 30
1237.0
 10
3.8744164275506865
 20
231.67071859884766
 30
1237.0
 10
3.874507573987101
 20
231.67048679059343
 30
1237.0
 10
3.8745853559719774
 20
231.67038023360786
 30
1237.0
 10
3.874610310791678
 20
231.67039508854785
 30
1237.0
 10
3.8745787671089453
 20
231.67036813629963
 30
1237.0
 10
3.874522844962906
 20
231.66997677797886
 30
1237.0
 10
3.8744975138730866
 20
231.66744607414626
 30
1237.0
 10
3.874478314357071
 20
231.66552794551032
 30
1237.0
 10
3.8744510922512676
 20
231.66280831962848
 30
1237.0
 10
3.8744140825859215
 20
231.65911086710662
 30
1237.0
 10
3.8743655203912803
 20
231.65425925855072
 30
1237.0
 10
3.8743036406975904
 20
231.64807716456673
 30
1237.0
 10
3.874226678535098
 20
231.64038825576054
 30
1237.0
 10
3.8740296783728994
 20
231.62070694441366
 30
1237.0
 10
3.873906102411095
 20
231.6083610815873
 30
1237.0
 10
3.873759791873896
 20
231.59374391983565
 30
1237.0
 10
3.8735883975865617
 20
231.5766207647354
 30
1237.0
 10
3.873389570374351
 20
231.55675692186298
 30
1237.0
 10
3.8731609610625224
 20
231.53391769679482
 30
1237.0
 10
3.8729002204763314
 20
231.5078683951073
 30
1237.0
 10
3.87241713150948
 20
231.4596053670023
 30
1237.0
 10
3.8722153004208555
 20
231.43944142170213
 30
1237.0
 10
3.871998900790533
 20
231.41782200549335
 30
1237.0
 10
3.8717673272338824
 20
231.3946866373938
 30
1237.0
 10
3.8715199743662794
 20
231.36997483642102
 30
1237.0
 10
3.8712562368030983
 20
231.343626121593
 30
1237.0
 10
3.8709755091597158
 20
231.31558001192766
 30
1237.0
 10
3.870251010182641
 20
231.24319890432236
 30
1237.0
 10
3.8697889252018802
 20
231.1970342805291
 30
1237.0
 10
3.869289166139473
 20
231.14710582566937
 30
1237.0
 10
3.8687499680256656
 20
231.0932372103491
 30
1237.0
 10
3.8681695658907067
 20
231.03525210517418
 30
1237.0
 10
3.8675461947648415
 20
230.9729741807505
 30
1237.0
 10
3.8668780896783166
 20
230.90622710768406
 30
1237.0
 10
3.865377421242744
 20
230.7563027503668
 30
1237.0
 10
3.8645350931183153
 20
230.67214991572868
 30
1237.0
 10
3.8636341521133457
 20
230.58214135824244
 30
1237.0
 10
3.8626722490530905
 20
230.48604238348435
 30
1237.0
 10
3.861647034762806
 20
230.3836182970307
 30
1237.0
 10
3.8605561600677545
 20
230.27463440445823
 30
1237.0
 10
3.859397275793196
 20
230.15885601134357
 30
1237.0
 10
3.8559955946245412
 20
229.81901087905473
 30
1237.0
 10
3.853821460020919
 20
229.60180384955248
 30
1237.0
 10
3.8516462139118173
 20
229.3844857750093
 30
1237.0
 10
3.849470175586646
 20
229.16708855411585
 30
1237.0
 10
3.8472935598704194
 20
228.94963364893692
 30
1237.0
 10
3.8451165051586997
 20
228.73213488585296
 30
1237.0
 10
3.842939060318525
 20
228.51459714700025
 30
1237.0
 10
3.8371508873904667
 20
227.93632943262034
 30
1237.0
 10
3.8335396767480368
 20
227.5755512474621
 30
1237.0
 10
3.829927842916685
 20
227.21471080260048
 30
1237.0
 10
3.8263155415159424
 20
226.85382364516985
 30
1237.0
 10
3.8227028808207937
 20
226.4929005924159
 30
1237.0
 10
3.8190899340178253
 20
226.1319489560712
 30
1237.0
 10
3.8154767385227495
 20
225.77097247410404
 30
1237.0
 10
3.8041744767762324
 20
224.64181943242477
 30
1237.0
 10
3.796484712067167
 20
223.87357309326808
 30
1237.0
 10
3.788794315746042
 20
223.10526365284713
 30
1237.0
 10
3.7811034611498653
 20
222.336908428469
 30
1237.0
 10
3.7734122659091147
 20
221.56851917197574
 30
1237.0
 10
3.7657208069688544
 20
220.80010357053388
 30
1237.0
 10
3.7580291163622332
 20
220.03166482448407
 30
1237.0
 10
3.745158102764693
 20
218.74578554836165
 30
1237.0
 10
3.739814453558358
 20
218.21192799928647
 30
1237.0
 10
3.734303200257008
 20
217.66132595446985
 30
1237.0
 10
3.7286212929929095
 20
217.0936747167188
 30
1237.0
 10
3.7227656818983275
 20
216.5086695888403
 30
1237.0
 10
3.7167333171055303
 20
215.90600587364148
 30
1237.0
 10
3.710521148746784
 20
215.28537887392932
 30
1237.0
 10
3.700766024755495
 20
214.31079270933995
 30
1237.0
 10
3.6974059275973166
 20
213.97509975080672
 30
1237.0
 10
3.6940458031283407
 20
213.63940512048538
 30
1237.0
 10
3.690685637083408
 20
213.3037089150893
 30
1237.0
 10
3.6873254332836836
 20
212.9680112244706
 30
1237.0
 10
3.6839652136366556
 20
212.63231213162092
 30
1237.0
 10
3.6806050181361307
 20
212.2966117126707
 30
1237.0
 10
3.673132352894427
 20
211.5500338327872
 30
1237.0
 10
3.668955662021145
 20
211.13272455437706
 30
1237.0
 10
3.6647157610330416
 20
210.70904255801346
 30
1237.0
 10
3.660413578720764
 20
210.27904820005077
 30
1237.0
 10
3.656050043874956
 20
209.84280183684294
 30
1237.0
 10
3.6516260852862645
 20
209.40036382474392
 30
1237.0
 10
3.647142631745332
 20
208.95179452010757
 30
1237.0
 10
3.621306921138914
 20
206.36573050869043
 30
1237.0
 10
3.600058769200897
 20
204.23427523486504
 30
1237.0
 10
3.578879543719337
 20
202.10279754829187
 30
1237.0
 10
3.557781103967561
 20
199.9713025702014
 30
1237.0
 10
3.5367721676353363
 20
197.83979384485457
 30
1237.0
 10
3.515860020360777
 20
195.70827383872438
 30
1237.0
 10
3.49504998992106
 20
193.57674381300095
 30
1237.0
 10
3.4301538978349577
 20
186.89512776452358
 30
1237.0
 10
3.3864489424391717
 20
182.3450119683036
 30
1237.0
 10
3.34327997275175
 20
177.79486787379557
 30
1237.0
 10
3.3006798029967923
 20
173.24470110626413
 30
1237.0
 10
3.258682615001989
 20
168.69451595758272
 30
1237.0
 10
3.217321879327172
 20
164.14431488730656
 30
1237.0
 10
3.1766345733567087
 20
159.59409948079235
 30
1237.0
 10
3.0937866224994472
 20
150.16331947236776
 30
1237.0
 10
3.051733496092212
 20
145.2827537698592
 30
1237.0
 10
3.0105524315935455
 20
140.40217477553486
 30
1237.0
 10
2.9702996785458633
 20
135.52158367627823
 30
1237.0
 10
2.931038802165803
 20
130.64098139658657
 30
1237.0
 10
2.892843206409537
 20
125.76036868799558
 30
1237.0
 10
2.8557998134238165
 20
120.87974616571292
 30
1237.0
 10
2.798084699678883
 20
113.00831878262134
 30
1237.0
 10
2.7766286937804003
 20
110.01751979148194
 30
1237.0
 10
2.7556214327580237
 20
107.02671780354598
 30
1237.0
 10
2.7350410179209863
 20
104.03591327669109
 30
1237.0
 10
2.7148677692648304
 20
101.04510665016369
 30
1237.0
 10
2.6950838939192185
 20
98.0542983525736
 30
1237.0
 10
2.675673154595744
 20
95.06348880988874
 30
1237.0
 10
2.6171733396175947
 20
85.88040091555183
 30
1237.0
 10
2.5792613372057778
 20
79.68812167179522
 30
1237.0
 10
2.542752014094895
 20
73.49584270349902
 30
1237.0
 10
2.507535496698038
 20
67.30356775179081
 30
1237.0
 10
2.47352088266214
 20
61.11130138344237
 30
1237.0
 10
2.440619975796894
 20
54.91905238618466
 30
1237.0
 10
2.4087591331288203
 20
48.72683051317955
 30
1237.0
 10
2.3664901868190182
 20
40.26450690840601
 30
1237.0
 10
2.3552760532921266
 20
37.99436232920979
 30
1237.0
 10
2.3441815673879973
 20
35.72422608301796
 30
1237.0
 10
2.333200972968453
 20
33.45409951177098
 30
1237.0
 10
2.322326628290069
 20
31.183985165625458
 30
1237.0
 10
2.3115495179964105
 20
28.913886674529124
 30
1237.0
 10
2.300857552939399
 20
26.643809265177197
 30
1237.0
 10
2.2864646990495654
 20
23.57028243249282
 30
1237.0
 10
2.282791592774146
 20
22.784274279161764
 30
1237.0
 10
2.279208404489253
 20
22.016112900513544
 30
1237.0
 10
2.2757142709916516
 20
21.26613946822218
 30
1237.0
 10
2.2723098951489136
 20
20.534660825464552
 30
1237.0
 10
2.26899500504322
 20
19.821949802859315
 30
1237.0
 10
2.265767200505148
 20
19.12824536402806
 30
1237.0
 10
2.259490117700383
 20
17.779113098499277
 30
1237.0
 10
2.2564386692295884
 20
17.12326583368016
 30
1237.0
 10
2.253473230436433
 20
16.485904613232123
 30
1237.0
 10
2.250592380740654
 20
15.86672411209801
 30
1237.0
 10
2.2477946995619913
 20
15.265419005220679
 30
1237.0
 10
2.245078766320183
 20
14.681683967542947
 30
1237.0
 10
2.2424431604349686
 20
14.115213674007608
 30
1237.0
 10
2.2360656657605196
 20
12.744499903590562
 30
1237.0
 10
2.2322449666999717
 20
11.92331774943839
 30
1237.0
 10
2.2284243669198074
 20
11.10215693357139
 30
1237.0
 10
2.2246038806827944
 20
10.281020521546225
 30
1237.0
 10
2.2207835397061717
 20
9.459915330311738
 30
1237.0
 10
2.2169633919883607
 20
8.638851676125938
 30
1237.0
 10
2.2131435077452073
 20
7.817844650526574
 30
1237.0
 10
2.2073216455818856
 20
6.566552874665685
 30
1237.0
 10
2.2053194099626716
 20
6.136212737216546
 30
1237.0
 10
2.2033173024512562
 20
5.7059001339035476
 30
1237.0
 10
2.2013153410138986
 20
5.275618926315701
 30
1237.0
 10
2.1993135676442797
 20
4.845378140095452
 30
1237.0
 10
2.197312046305223
 20
4.415191522704262
 30
1237.0
 10
2.195310870970728
 20
3.98507927205382
 30
1237.0
 10
2.192370075349853
 20
3.3530146041418725
 30
1237.0
 10
2.191430073637961
 20
3.150980207173589
 30
1237.0
 10
2.190490206850259
 20
2.948974809444916
 30
1237.0
 10
2.189550495431442
 20
2.7470028051140503
 30
1237.0
 10
2.188610978062606
 20
2.5450725079096195
 30
1237.0
 10
2.1876717115315425
 20
2.3431961232299017
 30
1237.0
 10
2.1867327769226557
 20
2.141391078517163
 30
1237.0
 10
2.1851580319761688
 20
1.8029314335891797
 30
1237.0
 10
2.184522052028332
 20
1.6662403790708424
 30
1237.0
 10
2.183886331608903
 20
1.529605104965981
 30
1237.0
 10
2.1832509088283634
 20
1.3930338022940418
 30
1237.0
 10
2.18261586693181
 20
1.2565443629881088
 30
1237.0
 10
2.181981408441923
 20
1.1201803151498382
 30
1237.0
 10
2.1813477876876046
 20
0.9839963216694514
 30
1237.0
 10
2.1804806380041613
 20
0.7976199979272137
 30
1237.0
 10
2.180256365138742
 20
0.749417071754205
 30
1237.0
 10
2.1800424668887537
 20
0.7034439597889681
 30
1237.0
 10
2.1798386612755936
 20
0.6596400564214004
 30
1237.0
 10
2.179644666320656
 20
0.6179447560412602
 30
1237.0
 10
2.179460200045336
 20
0.5782974530381669
 30
1237.0
 10
2.179284980471027
 20
0.5406375418016012
 30
1237.0
 10
2.178881218687834
 20
0.45385709517751144
 30
1237.0
 10
2.178662007108394
 20
0.4067419902794954
 30
1237.0
 10
2.178460268785745
 20
0.363382409285535
 30
1237.0
 10
2.1782751816248305
 20
0.3236016594542683
 30
1237.0
 10
2.178105923530589
 20
0.2872230480442945
 30
1237.0
 10
2.1779516724079633
 20
0.2540698823141736
 30
1237.0
 10
2.1778116061618946
 20
0.223965469522426
 30
1237.0
 10
2.177545528886296
 20
0.16677752907312998
 30
1237.0
 10
2.1774223240408817
 20
0.14029713405717004
 30
1237.0
 10
2.1773141939525567
 20
0.11705675384073236
 30
1237.0
 10
2.1772200444127994
 20
0.09682121038492704
 30
1237.0
 10
2.1771387812130856
 20
0.07935532565089433
 30
1237.0
 10
2.1770693101448924
 20
0.06442392159980516
 30
1237.0
 10
2.1770105369996973
 20
0.05179182019286089
 30
1237.0
 10
2.176915514551748
 20
0.03136866273809957
 30
1237.0
 10
2.176873111366993
 20
0.02225495395526167
 30
1237.0
 10
2.176836922227627
 20
0.014476828803314135
 30
1237.0
 10
2.176808881280139
 20
0.008449993065340777
 30
1237.0
 10
2.176789784446718
 20
0.0043455141379773465
 30
1237.0
 10
2.176778741439568
 20
0.001972042610852043
 30
1237.0
 10
2.1767732714007084
 20
0.0007963681568980974
 30
1237.0
 10
2.176768581603544
 20
-0.00021160909477657697
 30
1237.0
 10
2.1767702086397227
 20
-5.141244913176024e-05
 30
1237.0
 10
2.176768903096659
 20
0.00025141749315693573
 30
1237.0
 10
2.17676826451603
 20
0.00022955969697591172
 30
1237.0
 10
2.1767724931000716
 20
-0.0006708846605754104
 30
1237.0
 10
2.176783654173791
 20
-0.002996679861347218
 30
1237.0
 10
2.176802511974466
 20
-0.007081039356254593
 30
1237.0
 10
2.1768539898186914
 20
-0.018145163052608382
 30
1237.0
 10
2.1768863931370483
 20
-0.025109602373386705
 30
1237.0
 10
2.176927965655274
 20
-0.0340447761541388
 30
1237.0
 10
2.1769801279536285
 20
-0.04525600945208258
 30
1237.0
 10
2.177044300612374
 20
-0.05904862732440919
 30
1237.0
 10
2.1771219042117727
 20
-0.07572795482828301
 30
1237.0
 10
2.1772143593320847
 20
-0.09559931702084158
 30
1237.0
 10
2.1774318137750566
 20
-0.14233676089750705
 30
1237.0
 10
2.1775568130977194
 20
-0.16920284258186968
 30
1237.0
 10
2.177699505101817
 20
-0.19987160906933765
 30
1237.0
 10
2.177861310367612
 20
-0.23464838541701133
 30
1237.0
 10
2.178043649475366
 20
-0.2738384966820381
 30
1237.0
 10
2.17824794300534
 20
-0.31774726792161195
 30
1237.0
 10
2.178475611537795
 20
-0.3666800241929736
 30
1237.0
 10
2.1789384624156587
 20
-0.466160479187252
 30
1237.0
 10
2.179166068333006
 20
-0.5150797776048371
 30
1237.0
 10
2.1794117155000947
 20
-0.5678766785478027
 30
1237.0
 10
2.1796762260119826
 20
-0.6247278747576998
 30
1237.0
 10
2.1799604219637283
 20
-0.6858100589759947
 30
1237.0
 10
2.180265125450392
 20
-0.7512999239440685
 30
1237.0
 10
2.1805911585670312
 20
-0.8213741624032168
 30
1237.0
 10
2.1812875282503765
 20
-0.9710447717862537
 30
1237.0
 10
2.181657864817083
 20
-1.0506411427103735
 30
1237.0
 10
2.1820511752038825
 20
-1.1351752726084718
 30
1237.0
 10
2.182468281505834
 20
-1.2248238542219936
 30
1237.0
 10
2.182910005817995
 20
-1.3197635802923657
 30
1237.0
 10
2.1833771702354254
 20
-1.4201711435609983
 30
1237.0
 10
2.1838705968531826
 20
-1.5262232367692832
 30
1237.0
 10
2.185403001531452
 20
-1.8555826955503179
 30
1237.0
 10
2.1864156823327043
 20
-2.0732379959720078
 30
1237.0
 10
2.1874288787801848
 20
-2.2910041241492145
 30
1237.0
 10
2.18844244274947
 20
-2.508849243713712
 30
1237.0
 10
2.1894562745766546
 20
-2.7267519339284085
 30
1237.0
 10
2.1904703100556997
 20
-2.944698395008146
 30
1237.0
 10
2.1914845265211707
 20
-3.1626837554602503
 30
1237.0
 10
2.1941805659808247
 20
-3.742143026158047
 30
1237.0
 10
2.1958626128384866
 20
-4.1036650513431
 30
1237.0
 10
2.197544948801638
 20
-4.4652492138995505
 30
1237.0
 10
2.199227501674145
 20
-4.82687999676898
 30
1237.0
 10
2.200910221226777
 20
-5.188546604165765
 30
1237.0
 10
2.20259307350812
 20
-5.550241738894854
 30
1237.0
 10
2.2042760411586633
 20
-5.911961669928392
 30
1237.0
 10
2.2095404577134667
 20
-7.043441762540596
 30
1237.0
 10
2.2131222306388714
 20
-7.813271565923074
 30
1237.0
 10
2.2167042965744854
 20
-8.58316434596863
 30
1237.0
 10
2.2202865751080685
 20
-9.353102819617959
 30
1237.0
 10
2.2238690116692235
 20
-10.12307525810575
 30
1237.0
 10
2.2274515705621116
 20
-10.893073989370272
 30
1237.0
 10
2.2310342369272966
 20
-11.663095819600901
 30
1237.0
 10
2.237029349780158
 20
-12.951624334653017
 30
1237.0
 10
2.239518337253745
 20
-13.486581959644736
 30
1237.0
 10
2.2420853920698725
 20
-14.038318584369646
 30
1237.0
 10
2.2447319348088026
 20
-14.60713953388496
 30
1237.0
 10
2.2474593860507968
 20
-15.193350133247884
 30
1237.0
 10
2.2502691663761167
 20
-15.797255707515617
 30
1237.0
 10
2.253162696365023
 20
-16.41916158174534
 30
1237.0
 10
2.2577064792638835
 20
-17.395756013757094
 30
1237.0
 10
2.2592715929365634
 20
-17.73214071803664
 30
1237.0
 10
2.2608367038176196
 20
-18.068527090957357
 30
1237.0
 10
2.2624017962571243
 20
-18.404915036222214
 30
1237.0
 10
2.2639668727534272
 20
-18.741304464112574
 30
1237.0
 10
2.265531953953146
 20
-19.07769529148824
 30
1237.0
 10
2.267097078651173
 20
-19.414087441787427
 30
1237.0
 10
2.2705780335002235
 20
-20.162203619225963
 30
1237.0
 10
2.2725240074842814
 20
-20.5803725294089
 30
1237.0
 10
2.2745002671702608
 20
-21.004926845337028
 30
1237.0
 10
2.2765068539855777
 20
-21.435805836771834
 30
1237.0
 10
2.278543809357647
 20
-21.872948773474842
 30
1237.0
 10
2.2806111747138837
 20
-22.316294925207625
 30
1237.0
 10
2.2827089914817034
 20
-22.765783561731794
 30
1237.0
 10
2.294814221935627
 20
-25.356940672663285
 30
1237.0
 10
2.3048370380650627
 20
-27.492558149342294
 30
1237.0
 10
2.314928950753929
 20
-29.628196970370812
 30
1237.0
 10
2.325101725046542
 20
-31.763851854136732
 30
1237.0
 10
2.335364018103169
 20
-33.89951913738126
 30
1237.0
 10
2.345723076385152
 20
-36.03519625279546
 30
1237.0
 10
2.3561842129630115
 20
-38.170881864902036
 30
1237.0
 10
2.3893019321145434
 20
-44.863494892795615
 30
1237.0
 10
2.4123389869168204
 20
-49.42044638847645
 30
1237.0
 10
2.4359111936169233
 20
-53.97741823804148
 30
1237.0
 10
2.4600513846309373
 20
-58.53440434838592
 30
1237.0
 10
2.484793804753826
 20
-63.091399951011056
 30
1237.0
 10
2.510172065410446
 20
-67.6484020919192
 30
1237.0
 10
2.536223341952107
 20
-72.20540865271613
 30
1237.0
 10
2.574108172938419
 20
-78.65558739479386
 30
1237.0
 10
2.5853508645714895
 20
-80.5487567448368
 30
1237.0
 10
2.596719758808089
 20
-82.44192638270559
 30
1237.0
 10
2.608217933235426
 20
-84.33509617546068
 30
1237.0
 10
2.619848611100378
 20
-86.22826599776104
 30
1237.0
 10
2.6316151817571805
 20
-88.12143573045243
 30
1237.0
 10
2.643521221115115
 20
-90.01460525915536
 30
1237.0
 10
2.674603013422444
 20
-94.89813678345915
 30
1237.0
 10
2.6939929073088162
 20
-97.88849829885014
 30
1237.0
 10
2.7137551680794325
 20
-100.87885858726267
 30
1237.0
 10
2.73390597137407
 20
-103.86921722277982
 30
1237.0
 10
2.754463033347573
 20
-106.85957377725488
 30
1237.0
 10
2.77544594987925
 20
-109.84992781223505
 30
1237.0
 10
2.7968765357822787
 20
-112.84027887088534
 30
1237.0
 10
2.8406768281846624
 20
-118.8202963300576
 30
1237.0
 10
2.8630473264764
 20
-121.80996271215267
 30
1237.0
 10
2.8858664285738698
 20
-124.79962549007091
 30
1237.0
 10
2.909112413923166
 20
-127.78928452672056
 30
1237.0
 10
2.932765746971542
 20
-130.77893967088252
 30
1237.0
 10
2.956808752408026
 20
-133.76859075404744
 30
1237.0
 10
2.981225290404033
 20
-136.75823758725335
 30
1237.0
 10
3.057249280415366
 20
-145.93213240373544
 30
1237.0
 10
3.1100325728663796
 20
-152.11636396157877
 30
1237.0
 10
3.164218910966814
 20
-158.30057459624646
 30
1237.0
 10
3.219699120076254
 20
-164.48476217279114
 30
1237.0
 10
3.2763828019930523
 20
-170.66892344484543
 30
1237.0
 10
3.3341820050462143
 20
-176.85305088740455
 30
1237.0
 10
3.3930232693102598
 20
-183.0371357920355
 30
1237.0
 10
3.474698329867032
 20
-191.48694446218792
 30
1237.0
 10
3.496724469027038
 20
-193.75272312161974
 30
1237.0
 10
3.5188703191261363
 20
-196.01849166637015
 30
1237.0
 10
3.5411301126695665
 20
-198.28424883580308
 30
1237.0
 10
3.563496171892095
 20
-200.54999218596362
 30
1237.0
 10
3.585959424007455
 20
-202.81571821065495
 30
1237.0
 10
3.608507688656072
 20
-205.08142184854023
 30
1237.0
 10
3.6391191164982417
 20
-208.14894036429317
 30
1237.0
 10
3.646954518168453
 20
-208.93334441657785
 30
1237.0
 10
3.654618495832921
 20
-209.69993331866027
 30
1237.0
 10
3.6621051993232365
 20
-210.44836793721842
 30
1237.0
 10
3.6694108497862747
 20
-211.1783433035279
 30
1237.0
 10
3.6765311893259134
 20
-211.88958833453952
 30
1237.0
 10
3.6834603231953498
 20
-212.58186570399468
 30
1237.0
 10
3.6969367011126955
 20
-213.92822393365432
 30
1237.0
 10
3.703487907324931
 20
-214.5827225275746
 30
1237.0
 10
3.709854457908911
 20
-215.21877309144728
 30
1237.0
 10
3.7160394027323744
 20
-215.83668032246518
 30
1237.0
 10
3.72204579166305
 20
-216.43674891782155
 30
1237.0
 10
3.727876674568674
 20
-217.01928357470914
 30
1237.0
 10
3.733535101316981
 20
-217.584588990321
 30
1237.0
 10
3.7472270564911407
 20
-218.9524844769218
 30
1237.0
 10
3.755429783180249
 20
-219.77197830911211
 30
1237.0
 10
3.763632295860923
 20
-220.59145076077866
 30
1237.0
 10
3.77183456378713
 20
-221.41089876023756
 30
1237.0
 10
3.7800365185897897
 20
-222.23031547707245
 30
1237.0
 10
3.7882380568044223
 20
-223.0496905746592
 30
1237.0
 10
3.796439027073654
 20
-223.8690089316312
 30
1237.0
 10
3.8089380797129166
 20
-225.11772742906672
 30
1237.0
 10
3.813236717577074
 20
-225.54718306619966
 30
1237.0
 10
3.817535079292222
 20
-225.97661111465084
 30
1237.0
 10
3.821833126129868
 20
-226.4060077052499
 30
1237.0
 10
3.826130767569305
 20
-226.83536379451985
 30
1237.0
 10
3.8304278657338813
 20
-227.2646656078863
 30
1237.0
 10
3.83472421805636
 20
-227.69389290785998
 30
1237.0
 10
3.8410378581763105
 20
-228.3246574490995
 30
1237.0
 10
3.8430559681642436
 20
-228.5262768313459
 30
1237.0
 10
3.8450737873096097
 20
-228.72786715695025
 30
1237.0
 10
3.847091271544837
 20
-228.92942402334043
 30
1237.0
 10
3.849108337489283
 20
-229.13093910036838
 30
1237.0
 10
3.8511248627334758
 20
-229.3324001587094
 30
1237.0
 10
3.8531406725023953
 20
-229.5337897374568
 30
1237.0
 10
3.856521522539372
 20
-229.87155373446305
 30
1237.0
 10
3.857886928429063
 20
-230.0079646801701
 30
1237.0
 10
3.859251774885494
 20
-230.1443197356687
 30
1237.0
 10
3.8606159797529815
 20
-230.28061069319008
 30
1237.0
 10
3.8619793635752178
 20
-230.41681962414512
 30
1237.0
 10
3.8633414898555194
 20
-230.5529029203064
 30
1237.0
 10
3.8647018103933006
 20
-230.6888058136694
 30
1237.0
 10
3.8665634862822387
 20
-230.8747966392017
 30
1237.0
 10
3.8670449814813983
 20
-230.92290044186322
 30
1237.0
 10
3.867504203243623
 20
-230.9687790156612
 30
1237.0
 10
3.8679417569535417
 20
-231.0124928415779
 30
1237.0
 10
3.8683582479957774
 20
-231.05410240059538
 30
1237.0
 10
3.8687542817549567
 20
-231.09366817369596
 30
1237.0
 10
3.8691304636157047
 20
-231.13125064186167
 30
1237.0
 10
3.869997306601139
 20
-231.21785263495028
 30
1237.0
 10
3.870467935640023
 20
-231.26487085331038
 30
1237.0
 10
3.8709010510490587
 20
-231.3081412705489
 30
1237.0
 10
3.871298417797998
 20
-231.34784021605995
 30
1237.0
 10
3.871661800856593
 20
-231.38414401923762
 30
1237.0
 10
3.871992965194599
 20
-231.41722900947605
 30
1237.0
 10
3.872293675781769
 20
-231.44727151616922
 30
1237.0
 10
3.8728649215745503
 20
-231.50434185650752
 30
1237.0
 10
3.8731294321361367
 20
-231.53076779778087
 30
1237.0
 10
3.8733615784473527
 20
-231.55396038695494
 30
1237.0
 10
3.873563709682942
 20
-231.57415431845325
 30
1237.0
 10
3.873738175017646
 20
-231.59158428669912
 30
1237.0
 10
3.873887323626207
 20
-231.60648498611636
 30
1237.0
 10
3.8740135046833672
 20
-231.61909111112834
 30
1237.0
 10
3.8741958402224146
 20
-231.6373073525443
 30
1237.0
 10
3.8742617074933046
 20
-231.6438878256339
 30
1237.0
 10
3.874317572841055
 20
-231.64946905607704
 30
1237.0
 10
3.874364339930179
 20
-231.65414132452375
 30
1237.0
 10
3.8744029124251895
 20
-231.65799491162355
 30
1237.0
 10
3.8744341939906
 20
-231.66112009802637
 30
1237.0
 10
3.874459088290924
 20
-231.66360716438197
 30
1237.0
 10
3.8745092347677645
 20
-231.66861705073245
 30
1237.0
 10
3.874645729578041
 20
-231.66964681440396
 30
1237.0
 10
3.8747229034822843
 20
-231.66978404708905
 30
1237.0
 10
3.874662672077266
 20
-231.66979856232572
 30
1237.0
 10
3.8744739464957485
 20
-231.67008162245588
 30
1237.0
 10
3.874252633406486
 20
-231.67064593862503
 30
1237.0
 10
3.8741816350142257
 20
-231.67112567078257
 30
1237.0
 10
3.8745308490597057
 20
-231.67077642768166
 30
1237.0
  0
ENDSEC
  0
SECTION
  2
OBJECTS
  0
DICTIONARY
  5
A
330
0
100
AcDbDictionary
281
1
  3
ACAD_COLOR
350
B
  3
ACAD_GROUP
350
C
  3
ACAD_LAYOUT
350
D
  3
ACAD_MATERIAL
350
E
  3
ACAD_MLEADERSTYLE
350
F
  3
ACAD_MLINESTYLE
350
10
  3
ACAD_PLOTSETTINGS
350
11
  3
ACAD_PLOTSTYLENAME
350
12
  3
ACAD_SCALELIST
350
14
  3
ACAD_TABLESTYLE
350
15
  3
ACAD_VISUALSTYLE
350
16
  3
EZDXF_META
350
2D
  0
DICTIONARY
  5
B
330
A
100
AcDbDictionary
281
1
  0
DICTIONARY
  5
C
330
A
100
AcDbDictionary
281
1
  0
DICTIONARY
  5
D
330
A
100
AcDbDictionary
281
1
  3
Model
350
1A
  3
Layout1
350
1E
  0
DICTIONARY
  5
E
330
A
100
AcDbDictionary
281
1
  3
ByBlock
350
1F
  3
ByLayer
350
20
  3
Global
350
21
  0
DICTIONARY
  5
F
330
A
100
AcDbDictionary
281
1
  3
Standard
350
2C
  0
DICTIONARY
  5
10
330
A
100
AcDbDictionary
281
1
  3
Standard
350
22
  0
DICTIONARY
  5
11
330
A
100
AcDbDictionary
281
1
  0
ACDBDICTIONARYWDFLT
  5
12
330
A
100
AcDbDictionary
281
1
  3
Normal
350
13
100
AcDbDictionaryWithDefault
340
13
  0
ACDBPLACEHOLDER
  5
13
330
12
  0
DICTIONARY
  5
14
330
A
100
AcDbDictionary
281
1
  0
DICTIONARY
  5
15
330
A
100
AcDbDictionary
281
1
  0
DICTIONARY
  5
16
330
A
100
AcDbDictionary
281
1
  0
LAYOUT
  5
1A
330
D
100
AcDbPlotSettings
  1

  2
Adobe PDF
  4
A3
  6

 40
7.5
 41
20.0
 42
7.5
 43
20.0
 44
420.0
 45
297.0
 46
0.0
 47
0.0
 48
0.0
 49
0.0
140
0.0
141
0.0
142
1.0
143
1.0
 70
1024
 72
1
 73
1
 74
5
  7

 75
16
 76
0
 77
2
 78
300
147
1.0
148
0.0
149
0.0
100
AcDbLayout
  1
Model
 70
1
 71
0
 10
0.0
 20
0.0
 11
420.0
 21
297.0
 12
0.0
 22
0.0
 32
0.0
 14
1e+20
 24
1e+20
 34
1e+20
 15
-1e+20
 25
-1e+20
 35
-1e+20
146
0.0
 13
0.0
 23
0.0
 33
0.0
 16
1.0
 26
0.0
 36
0.0
 17
0.0
 27
1.0
 37
0.0
 76
1
330
17
  0
LAYOUT
  5
1E
330
D
100
AcDbPlotSettings
  1

  2
Adobe PDF
  4
A3
  6

 40
7.5
 41
20.0
 42
7.5
 43
20.0
 44
420.0
 45
297.0
 46
0.0
 47
0.0
 48
0.0
 49
0.0
140
0.0
141
0.0
142
1.0
143
1.0
 70
0
 72
1
 73
1
 74
5
  7

 75
16
 76
0
 77
2
 78
300
147
1.0
148
0.0
149
0.0
100
AcDbLayout
  1
Layout1
 70
1
 71
1
 10
0.0
 20
0.0
 11
420.0
 21
297.0
 12
0.0
 22
0.0
 32
0.0
 14
1e+20
 24
1e+20
 34
1e+20
 15
-1e+20
 25
-1e+20
 35
-1e+20
146
0.0
 13
0.0
 23
0.0
 33
0.0
 16
1.0
 26
0.0
 36
0.0
 17
0.0
 27
1.0
 37
0.0
 76
1
330
1B
  0
MATERIAL
  5
1F
102
{ACAD_REACTORS
330
E
102
}
330
E
100
AcDbMaterial
  1
ByBlock
  2

 70
0
 40
1.0
 71
1
 41
1.0
 91
-1023410177
 42
1.0
 72
1
  3

 73
1
 74
1
 75
1
 44
0.5
 73
0
 45
1.0
 46
1.0
 77
1
  4

 78
1
 79
1
170
1
 48
1.0
171
1
  6

172
1
173
1
174
1
140
1.0
141
1.0
175
1
  7

176
1
177
1
178
1
143
1.0
179
1
  8

270
1
271
1
272
1
145
1.0
146
1.0
273
1
  9

274
1
275
1
276
1
 42
1.0
 72
1
  3

 73
1
 74
1
 75
1
 94
63
  0
MATERIAL
  5
20
102
{ACAD_REACTORS
330
E
102
}
330
E
100
AcDbMaterial
  1
ByLayer
  2

 70
0
 40
1.0
 71
1
 41
1.0
 91
-1023410177
 42
1.0
 72
1
  3

 73
1
 74
1
 75
1
 44
0.5
 73
0
 45
1.0
 46
1.0
 77
1
  4

 78
1
 79
1
170
1
 48
1.0
171
1
  6

172
1
173
1
174
1
140
1.0
141
1.0
175
1
  7

176
1
177
1
178
1
143
1.0
179
1
  8

270
1
271
1
272
1
145
1.0
146
1.0
273
1
  9

274
1
275
1
276
1
 42
1.0
 72
1
  3

 73
1
 74
1
 75
1
 94
63
  0
MATERIAL
  5
21
102
{ACAD_REACTORS
330
E
102
}
330
E
100
AcDbMaterial
  1
Global
  2

 70
0
 40
1.0
 71
1
 41
1.0
 91
-1023410177
 42
1.0
 72
1
  3

 73
1
 74
1
 75
1
 44
0.5
 73
0
 45
1.0
 46
1.0
 77
1
  4

 78
1
 79
1
170
1
 48
1.0
171
1
  6

172
1
173
1
174
1
140
1.0
141
1.0
175
1
  7

176
1
177
1
178
1
143
1.0
179
1
  8

270
1
271
1
272
1
145
1.0
146
1.0
273
1
  9

274
1
275
1
276
1
 42
1.0
 72
1
  3

 73
1
 74
1
 75
1
 94
63
  0
MLINESTYLE
  5
22
102
{ACAD_REACTORS
330
10
102
}
330
10
100
AcDbMlineStyle
  2
Standard
 70
0
  3

 62
256
 51
90.0
 52
90.0
 71
2
 49
0.5
 62
256
  6
BYLAYER
 49
-0.5
 62
256
  6
BYLAYER
  0
MLEADERSTYLE
  5
2C
102
{ACAD_REACTORS
330
F
102
}
330
F
100
AcDbMLeaderStyle
179
2
170
2
171
1
172
0
 90
2
 40
0.0
 41
0.0
173
1
 91
-1056964608
 92
-2
290
1
 42
2.0
291
1
 43
8.0
  3
Standard
 44
4.0
300

342
29
174
1
175
1
176
0
178
1
 93
-1056964608
 45
4.0
292
0
297
0
 46
4.0
 94
-1056964608
 47
1.0
 49
1.0
140
1.0
294
1
141
0.0
177
0
142
1.0
295
0
296
0
143
3.75
271
0
272
9
273
9
  0
DICTIONARY
  5
2D
330
A
100
AcDbDictionary
280
1
281
1
  3
CREATED_BY_EZDXF
350
2E
  3
WRITTEN_BY_EZDXF
350
80
  0
DICTIONARYVAR
  5
2E
330
2D
100
DictionaryVariables
280
0
  1
0.17 @ 2022-02-15T16:37:00.530555+00:00
  0
DICTIONARYVAR
  5
80
330
2D
100
DictionaryVariables
280
0
  1
0.17 @ 2022-02-15T16:37:00.634362+00:00
  0
ENDSEC
  0
EOF
