  0
SECTION
  2
HEADER
  9
$ACADVER
  1
AC1027
  9
$ACADMAINTVER
 70
105
  9
$DWGCODEPAGE
  3
ANSI_1252
  9
$LASTSAVEDBY
  1
ezdxf
  9
$REQUIREDVERSIONS
160
0
  9
$INSBASE
 10
0.0
 20
0.0
 30
0.0
  9
$EXTMIN
 10
1e+20
 20
1e+20
 30
1e+20
  9
$EXTMAX
 10
-1e+20
 20
-1e+20
 30
-1e+20
  9
$LIMMIN
 10
0.0
 20
0.0
  9
$LIMMAX
 10
420.0
 20
297.0
  9
$ORTHOMODE
 70
0
  9
$REGENMODE
 70
1
  9
$FILLMODE
 70
1
  9
$QTEXTMODE
 70
0
  9
$MIRRTEXT
 70
1
  9
$LTSCALE
 40
1.0
  9
$ATTMODE
 70
1
  9
$TEXTSIZE
 40
2.5
  9
$TRACEWID
 40
1.0
  9
$TEXTSTYLE
  7
Standard
  9
$CLAYER
  8
0
  9
$CELTYPE
  6
ByLayer
  9
$CECOLOR
 62
256
  9
$CELTSCALE
 40
1.0
  9
$DISPSILH
 70
0
  9
$DIMSCALE
 40
1.0
  9
$DIMASZ
 40
2.5
  9
$DIMEXO
 40
0.625
  9
$DIMDLI
 40
3.75
  9
$DIMRND
 40
0.0
  9
$DIMDLE
 40
0.0
  9
$DIMEXE
 40
1.25
  9
$DIMTP
 40
0.0
  9
$DIMTM
 40
0.0
  9
$DIMTXT
 40
2.5
  9
$DIMCEN
 40
2.5
  9
$DIMTSZ
 40
0.0
  9
$DIMTOL
 70
0
  9
$DIMLIM
 70
0
  9
$DIMTIH
 70
0
  9
$DIMTOH
 70
0
  9
$DIMSE1
 70
0
  9
$DIMSE2
 70
0
  9
$DIMTAD
 70
1
  9
$DIMZIN
 70
8
  9
$DIMBLK
  1

  9
$DIMASO
 70
1
  9
$DIMSHO
 70
1
  9
$DIMPOST
  1

  9
$DIMAPOST
  1

  9
$DIMALT
 70
0
  9
$DIMALTD
 70
3
  9
$DIMALTF
 40
0.03937007874
  9
$DIMLFAC
 40
1.0
  9
$DIMTOFL
 70
1
  9
$DIMTVP
 40
0.0
  9
$DIMTIX
 70
0
  9
$DIMSOXD
 70
0
  9
$DIMSAH
 70
0
  9
$DIMBLK1
  1

  9
$DIMBLK2
  1

  9
$DIMSTYLE
  2
ISO-25
  9
$DIMCLRD
 70
0
  9
$DIMCLRE
 70
0
  9
$DIMCLRT
 70
0
  9
$DIMTFAC
 40
1.0
  9
$DIMGAP
 40
0.625
  9
$DIMJUST
 70
0
  9
$DIMSD1
 70
0
  9
$DIMSD2
 70
0
  9
$DIMTOLJ
 70
0
  9
$DIMTZIN
 70
8
  9
$DIMALTZ
 70
0
  9
$DIMALTTZ
 70
0
  9
$DIMUPT
 70
0
  9
$DIMDEC
 70
2
  9
$DIMTDEC
 70
2
  9
$DIMALTU
 70
2
  9
$DIMALTTD
 70
3
  9
$DIMTXSTY
  7
Standard
  9
$DIMAUNIT
 70
0
  9
$DIMADEC
 70
0
  9
$DIMALTRND
 40
0.0
  9
$DIMAZIN
 70
0
  9
$DIMDSEP
 70
44
  9
$DIMATFIT
 70
3
  9
$DIMFRAC
 70
0
  9
$DIMLDRBLK
  1

  9
$DIMLUNIT
 70
2
  9
$DIMLWD
 70
-2
  9
$DIMLWE
 70
-2
  9
$DIMTMOVE
 70
0
  9
$DIMFXL
 40
1.0
  9
$DIMFXLON
 70
0
  9
$DIMJOGANG
 40
0.785398163397
  9
$DIMTFILL
 70
0
  9
$DIMTFILLCLR
 70
0
  9
$DIMARCSYM
 70
0
  9
$DIMLTYPE
  6

  9
$DIMLTEX1
  6

  9
$DIMLTEX2
  6

  9
$DIMTXTDIRECTION
 70
0
  9
$LUNITS
 70
2
  9
$LUPREC
 70
4
  9
$SKETCHINC
 40
1.0
  9
$FILLETRAD
 40
10.0
  9
$AUNITS
 70
0
  9
$AUPREC
 70
2
  9
$MENU
  1
.
  9
$ELEVATION
 40
0.0
  9
$PELEVATION
 40
0.0
  9
$THICKNESS
 40
0.0
  9
$LIMCHECK
 70
0
  9
$CHAMFERA
 40
0.0
  9
$CHAMFERB
 40
0.0
  9
$CHAMFERC
 40
0.0
  9
$CHAMFERD
 40
0.0
  9
$SKPOLY
 70
0
  9
$TDCREATE
 40
2459626.734039352
  9
$TDUCREATE
 40
2458532.153996898
  9
$TDUPDATE
 40
2459626.734039352
  9
$TDUUPDATE
 40
2458532.1544311
  9
$TDINDWG
 40
0.0
  9
$TDUSRTIMER
 40
0.0
  9
$USRTIMER
 70
1
  9
$ANGBASE
 50
0.0
  9
$ANGDIR
 70
0
  9
$PDMODE
 70
0
  9
$PDSIZE
 40
0.0
  9
$PLINEWID
 40
0.0
  9
$SPLFRAME
 70
0
  9
$SPLINETYPE
 70
6
  9
$SPLINESEGS
 70
8
  9
$HANDSEED
  5
81
  9
$SURFTAB1
 70
6
  9
$SURFTAB2
 70
6
  9
$SURFTYPE
 70
6
  9
$SURFU
 70
6
  9
$SURFV
 70
6
  9
$UCSBASE
  2

  9
$UCSNAME
  2

  9
$UCSORG
 10
0.0
 20
0.0
 30
0.0
  9
$UCSXDIR
 10
1.0
 20
0.0
 30
0.0
  9
$UCSYDIR
 10
0.0
 20
1.0
 30
0.0
  9
$UCSORTHOREF
  2

  9
$UCSORTHOVIEW
 70
0
  9
$UCSORGTOP
 10
0.0
 20
0.0
 30
0.0
  9
$UCSORGBOTTOM
 10
0.0
 20
0.0
 30
0.0
  9
$UCSORGLEFT
 10
0.0
 20
0.0
 30
0.0
  9
$UCSORGRIGHT
 10
0.0
 20
0.0
 30
0.0
  9
$UCSORGFRONT
 10
0.0
 20
0.0
 30
0.0
  9
$UCSORGBACK
 10
0.0
 20
0.0
 30
0.0
  9
$PUCSBASE
  2

  9
$PUCSNAME
  2

  9
$PUCSORG
 10
0.0
 20
0.0
 30
0.0
  9
$PUCSXDIR
 10
1.0
 20
0.0
 30
0.0
  9
$PUCSYDIR
 10
0.0
 20
1.0
 30
0.0
  9
$PUCSORTHOREF
  2

  9
$PUCSORTHOVIEW
 70
0
  9
$PUCSORGTOP
 10
0.0
 20
0.0
 30
0.0
  9
$PUCSORGBOTTOM
 10
0.0
 20
0.0
 30
0.0
  9
$PUCSORGLEFT
 10
0.0
 20
0.0
 30
0.0
  9
$PUCSORGRIGHT
 10
0.0
 20
0.0
 30
0.0
  9
$PUCSORGFRONT
 10
0.0
 20
0.0
 30
0.0
  9
$PUCSORGBACK
 10
0.0
 20
0.0
 30
0.0
  9
$USERI1
 70
0
  9
$USERI2
 70
0
  9
$USERI3
 70
0
  9
$USERI4
 70
0
  9
$USERI5
 70
0
  9
$USERR1
 40
0.0
  9
$USERR2
 40
0.0
  9
$USERR3
 40
0.0
  9
$USERR4
 40
0.0
  9
$USERR5
 40
0.0
  9
$WORLDVIEW
 70
1
  9
$SHADEDGE
 70
3
  9
$SHADEDIF
 70
70
  9
$TILEMODE
 70
1
  9
$MAXACTVP
 70
64
  9
$PINSBASE
 10
0.0
 20
0.0
 30
0.0
  9
$PLIMCHECK
 70
0
  9
$PEXTMIN
 10
1e+20
 20
1e+20
 30
1e+20
  9
$PEXTMAX
 10
-1e+20
 20
-1e+20
 30
-1e+20
  9
$PLIMMIN
 10
0.0
 20
0.0
  9
$PLIMMAX
 10
420.0
 20
297.0
  9
$UNITMODE
 70
0
  9
$VISRETAIN
 70
1
  9
$PLINEGEN
 70
0
  9
$PSLTSCALE
 70
1
  9
$TREEDEPTH
 70
3020
  9
$CMLSTYLE
  2
Standard
  9
$CMLJUST
 70
0
  9
$CMLSCALE
 40
20.0
  9
$PROXYGRAPHICS
 70
1
  9
$MEASUREMENT
 70
1
  9
$CELWEIGHT
370
-1
  9
$ENDCAPS
280
0
  9
$JOINSTYLE
280
0
  9
$LWDISPLAY
290
0
  9
$INSUNITS
 70
6
  9
$HYPERLINKBASE
  1

  9
$STYLESHEET
  1

  9
$XEDIT
290
1
  9
$CEPSNTYPE
380
0
  9
$PSTYLEMODE
290
1
  9
$FINGERPRINTGUID
  2
{82EFA3D0-6F89-49CE-94C4-6310608F4291}
  9
$VERSIONGUID
  2
{647BD354-C932-4855-BD75-238428A846D3}
  9
$EXTNAMES
290
1
  9
$PSVPSCALE
 40
0.0
  9
$OLESTARTUP
290
0
  9
$SORTENTS
280
127
  9
$INDEXCTL
280
0
  9
$HIDETEXT
280
1
  9
$XCLIPFRAME
280
0
  9
$HALOGAP
280
0
  9
$OBSCOLOR
 70
257
  9
$OBSLTYPE
280
0
  9
$INTERSECTIONDISPLAY
280
0
  9
$INTERSECTIONCOLOR
 70
257
  9
$DIMASSOC
280
2
  9
$PROJECTNAME
  1

  9
$CAMERADISPLAY
290
0
  9
$LENSLENGTH
 40
50.0
  9
$CAMERAHEIGHT
 40
0.0
  9
$STEPSPERSEC
 40
24.0
  9
$STEPSIZE
 40
100.0
  9
$3DDWFPREC
 40
2.0
  9
$PSOLWIDTH
 40
0.005
  9
$PSOLHEIGHT
 40
0.08
  9
$LOFTANG1
 40
1.570796326795
  9
$LOFTANG2
 40
1.570796326795
  9
$LOFTMAG1
 40
0.0
  9
$LOFTMAG2
 40
0.0
  9
$LOFTPARAM
 70
7
  9
$LOFTNORMALS
280
1
  9
$LATITUDE
 40
37.795
  9
$LONGITUDE
 40
-122.394
  9
$NORTHDIRECTION
 40
0.0
  9
$TIMEZONE
 70
-8000
  9
$LIGHTGLYPHDISPLAY
280
1
  9
$TILEMODELIGHTSYNCH
280
1
  9
$CMATERIAL
347
20
  9
$SOLIDHIST
280
0
  9
$SHOWHIST
280
1
  9
$DWFFRAME
280
2
  9
$DGNFRAME
280
2
  9
$REALWORLDSCALE
290
1
  9
$INTERFERECOLOR
 62
256
  9
$CSHADOW
280
0
  9
$SHADOWPLANELOCATION
 40
0.0
  0
ENDSEC
  0
SECTION
  2
CLASSES
  0
CLASS
  1
ACDBDICTIONARYWDFLT
  2
AcDbDictionaryWithDefault
  3
ObjectDBX Classes
 90
0
 91
0
280
0
281
0
  0
CLASS
  1
SUN
  2
AcDbSun
  3
SCENEOE
 90
1153
 91
0
280
0
281
0
  0
CLASS
  1
VISUALSTYLE
  2
AcDbVisualStyle
  3
ObjectDBX Classes
 90
4095
 91
0
280
0
281
0
  0
CLASS
  1
MATERIAL
  2
AcDbMaterial
  3
ObjectDBX Classes
 90
1153
 91
0
280
0
281
0
  0
CLASS
  1
SCALE
  2
AcDbScale
  3
ObjectDBX Classes
 90
1153
 91
0
280
0
281
0
  0
CLASS
  1
TABLESTYLE
  2
AcDbTableStyle
  3
ObjectDBX Classes
 90
4095
 91
0
280
0
281
0
  0
CLASS
  1
MLEADERSTYLE
  2
AcDbMLeaderStyle
  3
ACDB_MLEADERSTYLE_CLASS
 90
4095
 91
0
280
0
281
0
  0
CLASS
  1
DICTIONARYVAR
  2
AcDbDictionaryVar
  3
ObjectDBX Classes
 90
0
 91
0
280
0
281
0
  0
CLASS
  1
CELLSTYLEMAP
  2
AcDbCellStyleMap
  3
ObjectDBX Classes
 90
1152
 91
0
280
0
281
0
  0
CLASS
  1
MENTALRAYRENDERSETTINGS
  2
AcDbMentalRayRenderSettings
  3
SCENEOE
 90
1024
 91
0
280
0
281
0
  0
CLASS
  1
ACDBDETAILVIEWSTYLE
  2
AcDbDetailViewStyle
  3
ObjectDBX Classes
 90
1025
 91
0
280
0
281
0
  0
CLASS
  1
ACDBSECTIONVIEWSTYLE
  2
AcDbSectionViewStyle
  3
ObjectDBX Classes
 90
1025
 91
0
280
0
281
0
  0
CLASS
  1
RASTERVARIABLES
  2
AcDbRasterVariables
  3
ISM
 90
0
 91
0
280
0
281
0
  0
CLASS
  1
ACDBPLACEHOLDER
  2
AcDbPlaceHolder
  3
ObjectDBX Classes
 90
0
 91
0
280
0
281
0
  0
CLASS
  1
LAYOUT
  2
AcDbLayout
  3
ObjectDBX Classes
 90
0
 91
0
280
0
281
0
  0
ENDSEC
  0
SECTION
  2
TABLES
  0
TABLE
  2
VPORT
  5
8
330
0
100
AcDbSymbolTable
 70
1
  0
VPORT
  5
23
330
8
100
AcDbSymbolTableRecord
100
AcDbViewportTableRecord
  2
*Active
 70
0
 10
0.0
 20
0.0
 11
1.0
 21
1.0
 12
344.2
 22
148.5
 13
0.0
 23
0.0
 14
0.5
 24
0.5
 15
0.5
 25
0.5
 16
0.0
 26
0.0
 36
1.0
 17
0.0
 27
0.0
 37
0.0
 40
297.0
 41
1.34
 42
50.0
 43
0.0
 44
0.0
 50
0.0
 51
0.0
 71
0
 72
1000
 73
1
 74
3
 75
0
 76
0
 77
0
 78
0
281
0
 65
0
146
0.0
  0
ENDTAB
  0
TABLE
  2
LTYPE
  5
2
330
0
100
AcDbSymbolTable
 70
3
  0
LTYPE
  5
24
330
2
100
AcDbSymbolTableRecord
100
AcDbLinetypeTableRecord
  2
ByBlock
 70
0
  3

 72
65
 73
0
 40
0.0
  0
LTYPE
  5
25
330
2
100
AcDbSymbolTableRecord
100
AcDbLinetypeTableRecord
  2
ByLayer
 70
0
  3

 72
65
 73
0
 40
0.0
  0
LTYPE
  5
26
330
2
100
AcDbSymbolTableRecord
100
AcDbLinetypeTableRecord
  2
Continuous
 70
0
  3

 72
65
 73
0
 40
0.0
  0
ENDTAB
  0
TABLE
  2
LAYER
  5
1
330
0
100
AcDbSymbolTable
 70
2
  0
LAYER
  5
27
330
1
100
AcDbSymbolTableRecord
100
AcDbLayerTableRecord
  2
0
 70
0
 62
7
  6
Continuous
370
-3
390
13
347
21
  0
LAYER
  5
28
330
1
100
AcDbSymbolTableRecord
100
AcDbLayerTableRecord
  2
Defpoints
 70
0
 62
7
  6
Continuous
290
0
370
-3
390
13
347
21
  0
ENDTAB
  0
TABLE
  2
STYLE
  5
5
330
0
100
AcDbSymbolTable
 70
1
  0
STYLE
  5
29
330
5
100
AcDbSymbolTableRecord
100
AcDbTextStyleTableRecord
  2
Standard
 70
0
 40
0.0
 41
1.0
 50
0.0
 71
0
 42
2.5
  3
txt
  4

  0
ENDTAB
  0
TABLE
  2
VIEW
  5
7
330
0
100
AcDbSymbolTable
 70
0
  0
ENDTAB
  0
TABLE
  2
UCS
  5
6
330
0
100
AcDbSymbolTable
 70
0
  0
ENDTAB
  0
TABLE
  2
APPID
  5
3
330
0
100
AcDbSymbolTable
 70
3
  0
APPID
  5
2A
330
3
100
AcDbSymbolTableRecord
100
AcDbRegAppTableRecord
  2
ACAD
 70
0
  0
APPID
  5
7E
330
3
100
AcDbSymbolTableRecord
100
AcDbRegAppTableRecord
  2
HATCHBACKGROUNDCOLOR
 70
0
  0
APPID
  5
7F
330
3
100
AcDbSymbolTableRecord
100
AcDbRegAppTableRecord
  2
EZDXF
 70
0
  0
ENDTAB
  0
TABLE
  2
DIMSTYLE
  5
4
330
0
100
AcDbSymbolTable
 70
1
100
AcDbDimStyleTable
  0
DIMSTYLE
105
2B
330
4
100
AcDbSymbolTableRecord
100
AcDbDimStyleTableRecord
  2
Standard
 70
0
 40
1.0
 41
2.5
 42
0.625
 43
3.75
 44
1.25
 45
0.0
 46
0.0
 47
0.0
 48
0.0
 49
2.5
140
2.5
141
2.5
142
0.0
143
0.03937007874
144
1.0
145
0.0
146
1.0
147
0.625
148
0.0
 69
0
 70
0
 71
0
 72
0
 73
0
 74
0
 75
0
 76
0
 77
1
 78
8
 79
0
170
0
171
3
172
1
173
0
174
0
175
0
176
0
177
0
178
0
179
0
271
0
272
2
273
2
274
3
275
0
276
0
277
2
278
44
279
0
280
0
281
0
282
0
283
0
284
8
285
0
286
0
288
0
289
3
290
0
371
-2
372
-2
  0
ENDTAB
  0
TABLE
  2
BLOCK_RECORD
  5
9
330
0
100
AcDbSymbolTable
 70
2
  0
BLOCK_RECORD
  5
17
330
9
100
AcDbSymbolTableRecord
100
AcDbBlockTableRecord
  2
*Model_Space
340
1A
 70
0
280
1
281
0
  0
BLOCK_RECORD
  5
1B
330
9
100
AcDbSymbolTableRecord
100
AcDbBlockTableRecord
  2
*Paper_Space
340
1E
 70
0
280
1
281
0
  0
ENDTAB
  0
ENDSEC
  0
SECTION
  2
BLOCKS
  0
BLOCK
  5
18
330
17
100
AcDbEntity
  8
0
100
AcDbBlockBegin
  2
*Model_Space
 70
0
 10
0.0
 20
0.0
 30
0.0
  3
*Model_Space
  1

  0
ENDBLK
  5
19
330
17
100
AcDbEntity
  8
0
100
AcDbBlockEnd
  0
BLOCK
  5
1C
330
1B
100
AcDbEntity
  8
0
100
AcDbBlockBegin
  2
*Paper_Space
 70
0
 10
0.0
 20
0.0
 30
0.0
  3
*Paper_Space
  1

  0
ENDBLK
  5
1D
330
1B
100
AcDbEntity
  8
0
100
AcDbBlockEnd
  0
ENDSEC
  0
SECTION
  2
ENTITIES
  0
SPLINE
  5
2F
330
17
100
AcDbEntity
  8
0
100
AcDbSpline
 70
0
 71
8
 72
95
 73
86
 74
0
 40
0.0
 40
0.0
 40
0.0
 40
0.0
 40
0.0
 40
0.0
 40
0.0
 40
0.0
 40
0.0
 40
0.04466512686743288
 40
0.04466512686743288
 40
0.04466512686743288
 40
0.04466512686743288
 40
0.04466512686743288
 40
0.04466512686743288
 40
0.04466512686743288
 40
0.16188944202116642
 40
0.16188944202116642
 40
0.16188944202116642
 40
0.16188944202116642
 40
0.16188944202116642
 40
0.16188944202116642
 40
0.16188944202116642
 40
0.2550172250310533
 40
0.2550172250310533
 40
0.2550172250310533
 40
0.2550172250310533
 40
0.2550172250310533
 40
0.2550172250310533
 40
0.2550172250310533
 40
0.35825685698595916
 40
0.35825685698595916
 40
0.35825685698595916
 40
0.35825685698595916
 40
0.35825685698595916
 40
0.35825685698595916
 40
0.35825685698595916
 40
0.4137285040688629
 40
0.4137285040688629
 40
0.4137285040688629
 40
0.4137285040688629
 40
0.4137285040688629
 40
0.4137285040688629
 40
0.4137285040688629
 40
0.4808356723943576
 40
0.4808356723943576
 40
0.4808356723943576
 40
0.4808356723943576
 40
0.4808356723943576
 40
0.4808356723943576
 40
0.4808356723943576
 40
0.5021129610421702
 40
0.5021129610421702
 40
0.5021129610421702
 40
0.5021129610421702
 40
0.5021129610421702
 40
0.5021129610421702
 40
0.5021129610421702
 40
0.5358933589626265
 40
0.5358933589626265
 40
0.5358933589626265
 40
0.5358933589626265
 40
0.5358933589626265
 40
0.5358933589626265
 40
0.5358933589626265
 40
0.57004459781796
 40
0.57004459781796
 40
0.57004459781796
 40
0.57004459781796
 40
0.57004459781796
 40
0.57004459781796
 40
0.57004459781796
 40
0.7094437244677517
 40
0.7094437244677517
 40
0.7094437244677517
 40
0.7094437244677517
 40
0.7094437244677517
 40
0.7094437244677517
 40
0.7094437244677517
 40
0.7933018348988149
 40
0.7933018348988149
 40
0.7933018348988149
 40
0.7933018348988149
 40
0.7933018348988149
 40
0.7933018348988149
 40
0.7933018348988149
 40
1.0
 40
1.0
 40
1.0
 40
1.0
 40
1.0
 40
1.0
 40
1.0
 40
1.0
 40
1.0
 10
45.877807850281044
 20
235.89999999955745
 30
1263.0
 10
45.733682989873955
 20
236.27333683367817
 30
1263.0
 10
45.58933512579894
 20
236.64207300017696
 30
1263.0
 10
45.444766923190635
 20
237.00623546396082
 30
1263.0
 10
45.299981047183564
 20
237.36585118993688
 30
1263.0
 10
45.15498016291214
 20
237.7209471430126
 30
1263.0
 10
45.00976693551065
 20
238.07155028809575
 30
1263.0
 10
44.864344030113266
 20
238.41768759009437
 30
1263.0
 10
44.336506142659225
 20
239.65617880352605
 30
1263.0
 10
43.94209695698495
 20
240.5476790284851
 30
1263.0
 10
43.53454055091753
 20
241.43335855029852
 30
1263.0
 10
43.11279628102569
 20
242.3125017259945
 30
1263.0
 10
42.6756996010277
 20
243.18419033897422
 30
1263.0
 10
42.22193076455425
 20
244.047287857
 30
1263.0
 10
41.749956276540935
 20
244.90040995142837
 30
1263.0
 10
40.867022477011204
 20
246.41035701618839
 30
1263.0
 10
40.46354004686095
 20
247.07135371383816
 30
1263.0
 10
40.04651151670142
 20
247.72407991999535
 30
1263.0
 10
39.614924347732924
 20
248.3674875811459
 30
1263.0
 10
39.16770362040697
 20
249.0002529772898
 30
1263.0
 10
38.703692769756294
 20
249.62076315862276
 30
1263.0
 10
38.22162396663731
 20
250.22709481662022
 30
1263.0
 10
37.164074293266104
 20
251.47092691959443
 30
1263.0
 10
36.58435932041331
 20
252.10439698246688
 30
1263.0
 10
35.978896937575136
 20
252.71450561910152
 30
1263.0
 10
35.34590224570719
 20
253.29720931851122
 30
1263.0
 10
34.683952431086986
 20
253.8474574369341
 30
1263.0
 10
33.9921093844183
 20
254.35934675047562
 30
1263.0
 10
33.27021941850653
 20
254.8264916090142
 30
1263.0
 10
32.11621618802126
 20
255.4665125735078
 30
1263.0
 10
31.704644974912576
 20
255.67549495167478
 30
1263.0
 10
31.285199469423446
 20
255.86874652649513
 30
1263.0
 10
30.85833765104924
 20
256.0453283170149
 30
1263.0
 10
30.424632409391315
 20
256.2044191829545
 30
1263.0
 10
29.98478708714435
 20
256.34535638352077
 30
1263.0
 10
29.539651786297256
 20
256.4676774405681
 30
1263.0
 10
28.546562277372104
 20
256.6963559723353
 30
1263.0
 10
27.996433849682163
 20
256.7940276173997
 30
1263.0
 10
27.441703032009983
 20
256.8637392257711
 30
1263.0
 10
26.884087070814683
 20
256.9057036522638
 30
1263.0
 10
26.325167348966488
 20
256.92066228234404
 30
1263.0
 10
25.766383541665324
 20
256.9097654864261
 30
1263.0
 10
25.209027160793934
 20
256.87445686815823
 30
1263.0
 10
24.478329526439012
 20
256.79794127704713
 30
1263.0
 10
24.30249729160944
 20
256.7772111447007
 30
1263.0
 10
24.12674173007725
 20
256.754210842824
 30
1263.0
 10
23.95106678870279
 20
256.72898030458225
 30
1263.0
 10
23.77547641434629
 20
256.7015594631399
 30
1263.0
 10
23.599974553867852
 20
256.6719882516613
 30
1263.0
 10
23.42456515412742
 20
256.6403066033104
 30
1263.0
 10
22.970920522402977
 20
256.5529686233715
 30
1263.0
 10
22.693566390588195
 20
256.4943427283004
 30
1263.0
 10
22.41730199233003
 20
256.4307083052093
 30
1263.0
 10
22.142062192514594
 20
256.3626254418398
 30
1263.0
 10
21.86794479641599
 20
256.2901917639252
 30
1263.0
 10
21.5950970693136
 20
256.2132543809409
 30
1263.0
 10
21.32354727158797
 20
256.1318760115324
 30
1263.0
 10
20.780246847259477
 20
255.9593954355287
 30
1263.0
 10
20.50763776445948
 20
255.86790619593984
 30
1263.0
 10
20.235627386533988
 20
255.77161193397447
 30
1263.0
 10
19.964290341969864
 20
255.6704857904071
 30
1263.0
 10
19.693701259255207
 20
255.56450090601254
 30
1263.0
 10
19.423934766879352
 20
255.4536304215655
 30
1263.0
 10
19.15506549333289
 20
255.33784747784074
 30
1263.0
 10
17.79365964693837
 20
254.7243589650829
 30
1263.0
 10
16.733380223609373
 20
254.1569746269035
 30
1263.0
 10
15.712463713064437
 20
253.5185094195181
 30
1263.0
 10
14.735826061444016
 20
252.8132688947409
 30
1263.0
 10
13.807285436441138
 20
252.0461579372278
 30
1263.0
 10
12.929635739537812
 20
251.22258258619377
 30
1263.0
 10
12.104707995526244
 20
250.3483711304395
 30
1263.0
 10
10.869492244635637
 20
248.87699709858626
 30
1263.0
 10
10.4248489837589
 20
248.30810343500343
 30
1263.0
 10
9.999665119040413
 20
247.72420871118885
 30
1263.0
 10
9.593942302279167
 20
247.12651527082727
 30
1263.0
 10
9.207565438627007
 20
246.51618614160432
 30
1263.0
 10
8.840322789275309
 20
245.89433167662395
 30
1263.0
 10
8.49192384932277
 20
245.26199772274177
 30
1263.0
 10
7.3488372022223425
 20
243.03810621985627
 30
1263.0
 10
6.648539160687651
 20
241.39934434996502
 30
1263.0
 10
6.054805289579615
 20
239.71706660400685
 30
1263.0
 10
5.56030568544219
 20
238.00266043683496
 30
1263.0
 10
5.157300388259428
 20
236.26553760741749
 30
1263.0
 10
4.838141263882462
 20
234.5129955047444
 30
1263.0
 10
4.5956715086280076
 20
232.75010605251282
 30
1263.0
 10
4.423522776048415
 20
230.97963219259054
 30
1263.0
  0
LINE
  5
30
330
17
100
AcDbEntity
  8
0
100
AcDbLine
 10
26.556094542807894
 20
235.9
 30
1263.0
 11
45.87780785142734
 21
235.9
 31
1263.0
  0
SPLINE
  5
31
330
17
100
AcDbEntity
  8
0
100
AcDbSpline
 70
0
 71
1
 72
4
 73
2
 74
0
 40
0.0
 40
0.0
 40
1.0
 40
1.0
 10
26.556094545884715
 20
235.9000006000011
 30
1263.0
 10
26.556094545884715
 20
232.09999939999986
 30
1263.0
  0
LINE
  5
32
330
17
100
AcDbEntity
  8
0
100
AcDbLine
 10
26.556094542807894
 20
232.1
 30
1263.0
 11
47.26176658744063
 21
232.1
 31
1263.0
  0
SPLINE
  5
33
330
17
100
AcDbEntity
  8
0
100
AcDbSpline
 70
0
 71
8
 72
32
 73
23
 74
0
 40
0.0
 40
0.0
 40
0.0
 40
0.0
 40
0.0
 40
0.0
 40
0.0
 40
0.0
 40
0.0
 40
0.40760031535889774
 40
0.40760031535889774
 40
0.40760031535889774
 40
0.40760031535889774
 40
0.40760031535889774
 40
0.40760031535889774
 40
0.40760031535889774
 40
0.8852329411261765
 40
0.8852329411261765
 40
0.8852329411261765
 40
0.8852329411261765
 40
0.8852329411261765
 40
0.8852329411261765
 40
0.8852329411261765
 40
1.0
 40
1.0
 40
1.0
 40
1.0
 40
1.0
 40
1.0
 40
1.0
 40
1.0
 40
1.0
 10
53.35887611620227
 20
209.90000000369338
 30
1263.0
 10
53.09865028612501
 20
211.04759698101236
 30
1263.0
 10
52.83395870357985
 20
212.19417804791692
 30
1263.0
 10
52.56459748660825
 20
213.33967369657512
 30
1263.0
 10
52.29034074411347
 20
214.48400628408947
 30
1263.0
 10
52.010936376576396
 20
215.62708908139194
 30
1263.0
 10
51.726100464355895
 20
216.76882500377056
 30
1263.0
 10
51.43550939675073
 20
217.90910483022995
 30
1263.0
 10
50.79108538237003
 20
220.3821512373578
 30
1263.0
 10
50.43497783241691
 20
221.71427865265952
 30
1263.0
 10
50.06986023888996
 20
223.04399394425974
 30
1263.0
 10
49.695040789457835
 20
224.37104189786922
 30
1263.0
 10
49.30970909744847
 20
225.69509536350074
 30
1263.0
 10
48.91290608742901
 20
227.0157464706201
 30
1263.0
 10
48.50345970278431
 20
228.3324878372499
 30
1263.0
 10
47.978064183296695
 20
229.95996893145724
 30
1263.0
 10
47.87613300446196
 20
230.27291362443952
 30
1263.0
 10
47.77406422423688
 20
230.58348189944257
 30
1263.0
 10
47.67186263052385
 20
230.89165133461267
 30
1263.0
 10
47.56953101863169
 20
231.19740246495752
 30
1263.0
 10
47.46707081230207
 20
231.50071899538398
 30
1263.0
 10
47.36448268473582
 20
231.80158801373585
 30
1263.0
 10
47.261767179619326
 20
232.1000002038319
 30
1263.0
  0
LINE
  5
34
330
17
100
AcDbEntity
  8
0
100
AcDbLine
 10
26.556094542807894
 20
209.9
 30
1263.0
 11
53.35887609991468
 21
209.9
 31
1263.0
  0
SPLINE
  5
35
330
17
100
AcDbEntity
  8
0
100
AcDbSpline
 70
0
 71
1
 72
4
 73
2
 74
0
 40
0.0
 40
0.0
 40
1.0
 40
1.0
 10
26.556094545884715
 20
209.90000060000008
 30
1263.0
 10
26.556094545884715
 20
206.09999939999994
 30
1263.0
  0
LINE
  5
36
330
17
100
AcDbEntity
  8
0
100
AcDbLine
 10
26.556094542807894
 20
206.1
 30
1263.0
 11
54.19890381652306
 21
206.1
 31
1263.0
  0
SPLINE
  5
37
330
17
100
AcDbEntity
  8
0
100
AcDbSpline
 70
0
 71
8
 72
25
 73
16
 74
0
 40
0.0
 40
0.0
 40
0.0
 40
0.0
 40
0.0
 40
0.0
 40
0.0
 40
0.0
 40
0.0
 40
0.44768326286817056
 40
0.44768326286817056
 40
0.44768326286817056
 40
0.44768326286817056
 40
0.44768326286817056
 40
0.44768326286817056
 40
0.44768326286817056
 40
1.0
 40
1.0
 40
1.0
 40
1.0
 40
1.0
 40
1.0
 40
1.0
 40
1.0
 40
1.0
 10
58.412788732870325
 20
183.89999999965278
 30
1263.0
 10
58.203391940698076
 20
185.14718201858042
 30
1263.0
 10
57.991040140025916
 20
186.39386682454716
 30
1263.0
 10
57.77565975318325
 20
187.6400334010891
 30
1263.0
 10
57.557171228946956
 20
188.88565908914427
 30
1263.0
 10
57.335488304116325
 20
190.13071946491453
 30
1263.0
 10
57.11051710072201
 20
191.37518819047565
 30
1263.0
 10
56.882155012379215
 20
192.61903682927414
 30
1263.0
 10
56.364231519777405
 20
195.3959952114339
 30
1263.0
 10
56.07284941071684
 20
196.92871906066787
 30
1263.0
 10
55.7759287758613
 20
198.46036701282094
 30
1263.0
 10
55.47323213416142
 20
199.9908849204238
 30
1263.0
 10
55.164496548385046
 20
201.52020318284775
 30
1263.0
 10
54.8494273299426
 20
203.04823530398784
 30
1263.0
 10
54.52769102178141
 20
204.5748762864734
 30
1263.0
 10
54.19890381083106
 20
206.0999999987729
 30
1263.0
  0
LINE
  5
38
330
17
100
AcDbEntity
  8
0
100
AcDbLine
 10
26.556094542807894
 20
183.9
 30
1263.0
 11
58.41278873493822
 21
183.9
 31
1263.0
  0
SPLINE
  5
39
330
17
100
AcDbEntity
  8
0
100
AcDbSpline
 70
0
 71
1
 72
4
 73
2
 74
0
 40
0.0
 40
0.0
 40
1.0
 40
1.0
 10
26.556094545884715
 20
183.90000060000014
 30
1263.0
 10
26.556094545884715
 20
180.0999993999999
 30
1263.0
  0
LINE
  5
3A
330
17
100
AcDbEntity
  8
0
100
AcDbLine
 10
26.556094542807894
 20
180.1
 30
1263.0
 11
59.038694495898966
 21
180.1
 31
1263.0
  0
SPLINE
  5
3B
330
17
100
AcDbEntity
  8
0
100
AcDbSpline
 70
0
 71
8
 72
25
 73
16
 74
0
 40
0.0
 40
0.0
 40
0.0
 40
0.0
 40
0.0
 40
0.0
 40
0.0
 40
0.0
 40
0.0
 40
0.32353698183357404
 40
0.32353698183357404
 40
0.32353698183357404
 40
0.32353698183357404
 40
0.32353698183357404
 40
0.32353698183357404
 40
0.32353698183357404
 40
1.0
 40
1.0
 40
1.0
 40
1.0
 40
1.0
 40
1.0
 40
1.0
 40
1.0
 40
1.0
 10
62.26348399187383
 20
157.89999999977303
 30
1263.0
 10
62.14634523311767
 20
158.79968372010697
 30
1263.0
 10
62.028055325015515
 20
159.6992173537469
 30
1263.0
 10
61.90860455652219
 20
160.59859790194398
 30
1263.0
 10
61.7879826217812
 20
161.49782225486422
 30
1263.0
 10
61.66617859003271
 20
162.3968871878373
 30
1263.0
 10
61.54318087267194
 20
163.29578935724825
 30
1263.0
 10
61.41897718745787
 20
164.19452529607202
 30
1263.0
 10
61.03131619465643
 20
166.9718464786042
 30
1263.0
 10
60.76375052242054
 20
168.8498478816249
 30
1263.0
 10
60.490737696446494
 20
170.7270666961346
 30
1263.0
 10
60.21214439449004
 20
172.60346846719617
 30
1263.0
 10
59.927821467545186
 20
174.47901281354905
 30
1263.0
 10
59.63760174817975
 20
176.35365306065398
 30
1263.0
 10
59.34129718413229
 20
178.2273357658247
 30
1263.0
 10
59.038694502860864
 20
180.10000000112512
 30
1263.0
  0
LINE
  5
3C
330
17
100
AcDbEntity
  8
0
100
AcDbLine
 10
26.556094542807894
 20
157.9
 30
1263.0
 11
62.26348399361736
 21
157.9
 31
1263.0
  0
SPLINE
  5
3D
330
17
100
AcDbEntity
  8
0
100
AcDbSpline
 70
0
 71
1
 72
4
 73
2
 74
0
 40
0.0
 40
0.0
 40
1.0
 40
1.0
 10
26.556094545884715
 20
157.90000060000042
 30
1263.0
 10
26.556094545884715
 20
154.09999939999918
 30
1263.0
  0
LINE
  5
3E
330
17
100
AcDbEntity
  8
0
100
AcDbLine
 10
26.556094542807894
 20
154.1
 30
1263.0
 11
62.74919212158986
 21
154.1
 31
1263.0
  0
SPLINE
  5
3F
330
17
100
AcDbEntity
  8
0
100
AcDbSpline
 70
0
 71
8
 72
25
 73
16
 74
0
 40
0.0
 40
0.0
 40
0.0
 40
0.0
 40
0.0
 40
0.0
 40
0.0
 40
0.0
 40
0.0
 40
0.12861879747769403
 40
0.12861879747769403
 40
0.12861879747769403
 40
0.12861879747769403
 40
0.12861879747769403
 40
0.12861879747769403
 40
0.12861879747769403
 40
1.0
 40
1.0
 40
1.0
 40
1.0
 40
1.0
 40
1.0
 40
1.0
 40
1.0
 40
1.0
 10
65.2426871517392
 20
131.90000000620205
 30
1263.0
 10
65.20709732692528
 20
132.25740424067067
 30
1263.0
 10
65.17134511069519
 20
132.61479229935162
 30
1263.0
 10
65.13543046742097
 20
132.97216408985
 30
1263.0
 10
65.09935335852198
 20
133.32951951884735
 30
1263.0
 10
65.06311371319494
 20
133.6868584894571
 30
1263.0
 10
65.02671139066493
 20
134.0441808978681
 30
1263.0
 10
64.99014613395731
 20
134.40148662927632
 30
1263.0
 10
64.70458430717157
 20
137.1793770374838
 30
1263.0
 10
64.44826513996536
 20
139.5992046010772
 30
1263.0
 10
64.18441520082803
 20
142.01822960764895
 30
1263.0
 10
63.91296977580575
 20
144.43641902279458
 30
1263.0
 10
63.6338438818181
 20
146.8537353706057
 30
1263.0
 10
63.34693083807325
 20
149.2701365574101
 30
1263.0
 10
63.0520997768152
 20
151.68557556258793
 30
1263.0
 10
62.74919209340295
 20
154.09999999646382
 30
1263.0
  0
LINE
  5
40
330
17
100
AcDbEntity
  8
0
100
AcDbLine
 10
26.556094542807894
 20
131.9
 30
1263.0
 11
65.24268708945732
 21
131.9
 31
1263.0
  0
SPLINE
  5
41
330
17
100
AcDbEntity
  8
0
100
AcDbSpline
 70
0
 71
1
 72
4
 73
2
 74
0
 40
0.0
 40
0.0
 40
1.0
 40
1.0
 10
26.556094545884715
 20
131.90000060000256
 30
1263.0
 10
26.556094545884715
 20
128.09999939999764
 30
1263.0
  0
LINE
  5
42
330
17
100
AcDbEntity
  8
0
100
AcDbLine
 10
26.556094542807894
 20
128.1
 30
1263.0
 11
65.6129893793183
 21
128.1
 31
1263.0
  0
SPLINE
  5
43
330
17
100
AcDbEntity
  8
0
100
AcDbSpline
 70
0
 71
8
 72
25
 73
16
 74
0
 40
0.0
 40
0.0
 40
0.0
 40
0.0
 40
0.0
 40
0.0
 40
0.0
 40
0.0
 40
0.0
 40
0.8473409861442073
 40
0.8473409861442073
 40
0.8473409861442073
 40
0.8473409861442073
 40
0.8473409861442073
 40
0.8473409861442073
 40
0.8473409861442073
 40
1.0
 40
1.0
 40
1.0
 40
1.0
 40
1.0
 40
1.0
 40
1.0
 40
1.0
 40
1.0
 10
67.46725713406282
 20
105.89999999767372
 30
1263.0
 10
67.29715636020268
 20
108.25347228351252
 30
1263.0
 10
67.12097483079046
 20
110.60650487944915
 30
1263.0
 10
66.93859418613214
 20
112.95907068739379
 30
1263.0
 10
66.74989418935871
 20
115.3111411847267
 30
1263.0
 10
66.55475265654415
 20
117.66268641925569
 30
1263.0
 10
66.3530453868232
 20
120.0136750041735
 30
1263.0
 10
66.14464609250925
 20
122.36407411301516
 30
1263.0
 10
65.89065181297327
 20
125.13719072135117
 30
1263.0
 10
65.85165607082345
 20
125.56051171527287
 30
1263.0
 10
65.81243827132525
 20
125.9838122328008
 30
1263.0
 10
65.77299752432222
 20
126.407092047796
 30
1263.0
 10
65.73333296139386
 20
126.83035093787899
 30
1263.0
 10
65.6934437929993
 20
127.25358868879177
 30
1263.0
 10
65.6533293423101
 20
127.67680509680274
 30
1263.0
 10
65.61298905573187
 20
128.09999996915474
 30
1263.0
  0
LINE
  5
44
330
17
100
AcDbEntity
  8
0
100
AcDbLine
 10
26.556094542807894
 20
105.9
 30
1263.0
 11
67.46725716624877
 21
105.9
 31
1263.0
  0
SPLINE
  5
45
330
17
100
AcDbEntity
  8
0
100
AcDbSpline
 70
0
 71
1
 72
4
 73
2
 74
0
 40
0.0
 40
0.0
 40
1.0
 40
1.0
 10
26.556094545884715
 20
105.90000060000206
 30
1263.0
 10
26.556094545884715
 20
102.09999939999993
 30
1263.0
  0
LINE
  5
46
330
17
100
AcDbEntity
  8
0
100
AcDbLine
 10
26.556094542807894
 20
102.1
 30
1263.0
 11
67.73499300409208
 21
102.1
 31
1263.0
  0
SPLINE
  5
47
330
17
100
AcDbEntity
  8
0
100
AcDbSpline
 70
0
 71
8
 72
25
 73
16
 74
0
 40
0.0
 40
0.0
 40
0.0
 40
0.0
 40
0.0
 40
0.0
 40
0.0
 40
0.0
 40
0.0
 40
0.18470223527112514
 40
0.18470223527112514
 40
0.18470223527112514
 40
0.18470223527112514
 40
0.18470223527112514
 40
0.18470223527112514
 40
0.18470223527112514
 40
1.0
 40
1.0
 40
1.0
 40
1.0
 40
1.0
 40
1.0
 40
1.0
 40
1.0
 40
1.0
 10
69.03778072374804
 20
79.90000000172289
 30
1263.0
 10
69.01255411187138
 20
80.41281760791362
 30
1263.0
 10
68.98708361214531
 20
80.92562334745075
 30
1263.0
 10
68.96136812492072
 20
81.4384170440219
 30
1263.0
 10
68.93540654708282
 20
81.9511985197198
 30
1263.0
 10
68.90919777201746
 20
82.46396759504135
 30
1263.0
 10
68.88274068957729
 20
82.97672408888693
 30
1263.0
 10
68.85603418604774
 20
83.48946781855949
 30
1263.0
 10
68.71008553580364
 20
86.26545361240582
 30
1263.0
 10
68.58621260626246
 20
88.52845084710071
 30
1263.0
 10
68.4573623084612
 20
90.79117356778501
 30
1263.0
 10
68.32343727426266
 20
93.05360384596482
 30
1263.0
 10
68.18433875729555
 20
95.31572255659376
 30
1263.0
 10
68.03996657582947
 20
97.5775093739509
 30
1263.0
 10
67.89021905564984
 20
99.83894276751869
 30
1263.0
 10
67.7349929729329
 20
102.09999999786089
 30
1263.0
  0
LINE
  5
48
330
17
100
AcDbEntity
  8
0
100
AcDbLine
 10
26.556094542807894
 20
79.9
 30
1263.0
 11
69.03778068872425
 21
79.9
 31
1263.0
  0
SPLINE
  5
49
330
17
100
AcDbEntity
  8
0
100
AcDbSpline
 70
0
 71
1
 72
4
 73
2
 74
0
 40
0.0
 40
0.0
 40
1.0
 40
1.0
 10
26.556094545884715
 20
79.90000060000001
 30
1263.0
 10
26.556094545884715
 20
76.09999939999999
 30
1263.0
  0
LINE
  5
4A
330
17
100
AcDbEntity
  8
0
100
AcDbLine
 10
26.556094542807894
 20
76.1
 30
1263.0
 11
69.21888809013291
 21
76.1
 31
1263.0
  0
SPLINE
  5
4B
330
17
100
AcDbEntity
  8
0
100
AcDbSpline
 70
0
 71
8
 72
18
 73
9
 74
0
 40
0.0
 40
0.0
 40
0.0
 40
0.0
 40
0.0
 40
0.0
 40
0.0
 40
0.0
 40
0.0
 40
1.0
 40
1.0
 40
1.0
 40
1.0
 40
1.0
 40
1.0
 40
1.0
 40
1.0
 40
1.0
 10
70.05747444471612
 20
53.89999999905894
 30
1263.0
 10
69.97467102358776
 20
56.67577823806464
 30
1263.0
 10
69.88589956028713
 20
59.45137740557195
 30
1263.0
 10
69.79100136053725
 20
62.22677754954077
 30
1263.0
 10
69.68981546078285
 20
65.00195736923618
 30
1263.0
 10
69.58217848674742
 20
67.77689421200377
 30
1263.0
 10
69.46792450787085
 20
70.55156406990712
 30
1263.0
 10
69.3468848876275
 20
73.32594157622765
 30
1263.0
 10
69.21888812972502
 20
76.10000000182677
 30
1263.0
  0
LINE
  5
4C
330
17
100
AcDbEntity
  8
0
100
AcDbLine
 10
26.556094542807894
 20
53.9
 30
1263.0
 11
70.05747447626318
 21
53.9
 31
1263.0
  0
SPLINE
  5
4D
330
17
100
AcDbEntity
  8
0
100
AcDbSpline
 70
0
 71
1
 72
4
 73
2
 74
0
 40
0.0
 40
0.0
 40
1.0
 40
1.0
 10
26.556094545884715
 20
53.90000060000026
 30
1263.0
 10
26.556094545884715
 20
50.09999939999937
 30
1263.0
  0
LINE
  5
4E
330
17
100
AcDbEntity
  8
0
100
AcDbLine
 10
26.556094542807894
 20
50.1
 30
1263.0
 11
70.16597828199369
 21
50.1
 31
1263.0
  0
SPLINE
  5
4F
330
17
100
AcDbEntity
  8
0
100
AcDbSpline
 70
0
 71
8
 72
18
 73
9
 74
0
 40
0.0
 40
0.0
 40
0.0
 40
0.0
 40
0.0
 40
0.0
 40
0.0
 40
0.0
 40
0.0
 40
1.0
 40
1.0
 40
1.0
 40
1.0
 40
1.0
 40
1.0
 40
1.0
 40
1.0
 40
1.0
 10
70.61790293877993
 20
27.900000000418906
 30
1263.0
 10
70.57957429203722
 20
30.675328961560098
 30
1263.0
 10
70.53635499015996
 20
33.45059143249938
 30
1263.0
 10
70.48809797441277
 20
36.225775331696596
 30
1263.0
 10
70.43465454855718
 20
39.0008672456084
 30
1263.0
 10
70.3758742521994
 20
41.77585242595413
 30
1263.0
 10
70.31160473003114
 20
44.55071478684442
 30
1263.0
 10
70.24169159696368
 20
47.325436901772534
 30
1263.0
 10
70.16597829915506
 20
50.10000000046831
 30
1263.0
  0
LINE
  5
50
330
17
100
AcDbEntity
  8
0
100
AcDbLine
 10
26.556094542807894
 20
27.9
 30
1263.0
 11
70.61790290844598
 21
27.9
 31
1263.0
  0
SPLINE
  5
51
330
17
100
AcDbEntity
  8
0
100
AcDbSpline
 70
0
 71
1
 72
4
 73
2
 74
0
 40
0.0
 40
0.0
 40
1.0
 40
1.0
 10
26.556094545884715
 20
27.900000600000002
 30
1263.0
 10
26.556094545884715
 20
24.099999399999998
 30
1263.0
  0
LINE
  5
52
330
17
100
AcDbEntity
  8
0
100
AcDbLine
 10
26.556094542807894
 20
24.1
 30
1263.0
 11
70.66641208273094
 21
24.1
 31
1263.0
  0
SPLINE
  5
53
330
17
100
AcDbEntity
  8
0
100
AcDbSpline
 70
0
 71
8
 72
18
 73
9
 74
0
 40
0.0
 40
0.0
 40
0.0
 40
0.0
 40
0.0
 40
0.0
 40
0.0
 40
0.0
 40
0.0
 40
1.0
 40
1.0
 40
1.0
 40
1.0
 40
1.0
 40
1.0
 40
1.0
 40
1.0
 40
1.0
 10
70.80221281968721
 20
1.9000000000034196
 30
1263.0
 10
70.79982136731249
 20
4.67507297844636
 30
1263.0
 10
70.79354420830377
 20
7.450137040374052
 30
1263.0
 10
70.78324227987811
 20
10.225187870026982
 30
1263.0
 10
70.76877544200089
 20
13.000219832322948
 30
1263.0
 10
70.7500023652671
 20
15.77522597060742
 30
1263.0
 10
70.72678041468039
 20
18.550198004266722
 30
1263.0
 10
70.69896552933002
 20
21.325126326204124
 30
1263.0
 10
70.66641209796553
 20
24.10000000017874
 30
1263.0
  0
LINE
  5
54
330
17
100
AcDbEntity
  8
0
100
AcDbLine
 10
26.556094542807894
 20
1.9
 30
1263.0
 11
70.80221281571632
 21
1.9
 31
1263.0
  0
SPLINE
  5
55
330
17
100
AcDbEntity
  8
0
100
AcDbSpline
 70
0
 71
1
 72
4
 73
2
 74
0
 40
0.0
 40
0.0
 40
0.9999993684216398
 40
0.9999993684216398
 10
26.556094545884715
 20
1.9000006000000558
 30
1263.0
 10
26.556094545884715
 20
-6.553790374438061e-17
 30
1263.0
  0
SPLINE
  5
56
330
17
100
AcDbEntity
  8
0
100
AcDbSpline
 70
0
 71
1
 72
4
 73
2
 74
0
 40
0.0
 40
0.0
 40
1.0
 40
1.0
 10
26.556094545884715
 20
-1.9000006000000011
 30
1263.0
 10
26.556094545884715
 20
1.2000000211287443e-06
 30
1263.0
  0
LINE
  5
57
330
17
100
AcDbEntity
  8
0
100
AcDbLine
 10
26.55609454280791
 20
-1.9
 30
1263.0
 11
70.80232911988256
 21
-1.9
 31
1263.0
  0
SPLINE
  5
58
330
17
100
AcDbEntity
  8
0
100
AcDbSpline
 70
0
 71
8
 72
18
 73
9
 74
0
 40
0.0
 40
0.0
 40
0.0
 40
0.0
 40
0.0
 40
0.0
 40
0.0
 40
0.0
 40
0.0
 40
1.0
 40
1.0
 40
1.0
 40
1.0
 40
1.0
 40
1.0
 40
1.0
 40
1.0
 40
1.0
 10
70.66782212807193
 20
-24.099999999875084
 30
1263.0
 10
70.70022810599616
 20
-21.32514628558275
 30
1263.0
 10
70.72788964935997
 20
-18.550236843653327
 30
1263.0
 10
70.75095329820914
 20
-15.775280761735536
 30
1263.0
 10
70.76956402413829
 20
-13.00028542662013
 30
1263.0
 10
70.78386535346746
 20
-10.225256528534866
 30
1263.0
 10
70.79399948991603
 20
-7.4501980654050755
 30
1263.0
 10
70.80010743822409
 20
-4.6751123471403995
 30
1263.0
 10
70.80232913016965
 20
-1.9000000000082418
 30
1263.0
  0
LINE
  5
59
330
17
100
AcDbEntity
  8
0
100
AcDbLine
 10
26.55609454280791
 20
-24.1
 30
1263.0
 11
70.66782213876947
 21
-24.1
 31
1263.0
  0
SPLINE
  5
5A
330
17
100
AcDbEntity
  8
0
100
AcDbSpline
 70
0
 71
1
 72
4
 73
2
 74
0
 40
0.0
 40
0.0
 40
1.0
 40
1.0
 10
26.556094545884715
 20
-27.900000600000034
 30
1263.0
 10
26.556094545884715
 20
-24.099999399999938
 30
1263.0
  0
LINE
  5
5B
330
17
100
AcDbEntity
  8
0
100
AcDbLine
 10
26.55609454280791
 20
-27.9
 30
1263.0
 11
70.61950942857301
 21
-27.9
 31
1263.0
  0
SPLINE
  5
5C
330
17
100
AcDbEntity
  8
0
100
AcDbSpline
 70
0
 71
8
 72
18
 73
9
 74
0
 40
0.0
 40
0.0
 40
0.0
 40
0.0
 40
0.0
 40
0.0
 40
0.0
 40
0.0
 40
0.0
 40
1.0
 40
1.0
 40
1.0
 40
1.0
 40
1.0
 40
1.0
 40
1.0
 40
1.0
 40
1.0
 10
70.16845523903075
 20
-50.099999999904085
 30
1263.0
 10
70.2440974011151
 20
-47.32542301630369
 30
1263.0
 10
70.31392667865086
 20
-44.55069122807407
 30
1263.0
 10
70.3781006013856
 20
-41.77582375576463
 30
1263.0
 10
70.43677453834572
 20
-39.00083799693388
 30
1263.0
 10
70.4901018288698
 20
-36.225749630819244
 30
1263.0
 10
70.53823390974017
 20
-33.4505726228302
 30
1263.0
 10
70.58132043986392
 20
-30.675319228925726
 30
1263.0
 10
70.61950942395444
 20
-27.899999999936426
 30
1263.0
  0
LINE
  5
5D
330
17
100
AcDbEntity
  8
0
100
AcDbLine
 10
26.55609454280791
 20
-50.1
 30
1263.0
 11
70.16845524254943
 21
-50.1
 31
1263.0
  0
SPLINE
  5
5E
330
17
100
AcDbEntity
  8
0
100
AcDbSpline
 70
0
 71
1
 72
4
 73
2
 74
0
 40
0.0
 40
0.0
 40
1.0
 40
1.0
 10
26.556094545884715
 20
-53.9000006
 30
1263.0
 10
26.556094545884715
 20
-50.0999994
 30
1263.0
  0
LINE
  5
5F
330
17
100
AcDbEntity
  8
0
100
AcDbLine
 10
26.55609454280791
 20
-53.9
 30
1263.0
 11
70.06003875960572
 21
-53.9
 31
1263.0
  0
SPLINE
  5
60
330
17
100
AcDbEntity
  8
0
100
AcDbSpline
 70
0
 71
8
 72
18
 73
9
 74
0
 40
0.0
 40
0.0
 40
0.0
 40
0.0
 40
0.0
 40
0.0
 40
0.0
 40
0.0
 40
0.0
 40
1.0
 40
1.0
 40
1.0
 40
1.0
 40
1.0
 40
1.0
 40
1.0
 40
1.0
 40
1.0
 10
69.22146671873408
 20
-76.09999999922888
 30
1263.0
 10
69.34952232989215
 20
-73.32594816104647
 30
1263.0
 10
69.47060173846239
 20
-70.55157113145856
 30
1263.0
 10
69.58487726772015
 20
-67.77689823688814
 30
1263.0
 10
69.69251841894828
 20
-65.00195705352377
 30
1263.0
 10
69.7936920225412
 20
-62.22677341287338
 30
1263.0
 10
69.88856238178438
 20
-59.45137140699861
 30
1263.0
 10
69.97729141076603
 20
-56.67577339349037
 30
1263.0
 10
70.06003876787675
 20
-53.900000000246564
 30
1263.0
  0
LINE
  5
61
330
17
100
AcDbEntity
  8
0
100
AcDbLine
 10
26.55609454280791
 20
-76.1
 30
1263.0
 11
69.22146673543885
 21
-76.1
 31
1263.0
  0
SPLINE
  5
62
330
17
100
AcDbEntity
  8
0
100
AcDbSpline
 70
0
 71
1
 72
4
 73
2
 74
0
 40
0.0
 40
0.0
 40
1.0
 40
1.0
 10
26.556094545884715
 20
-79.90000060000018
 30
1263.0
 10
26.556094545884715
 20
-76.09999939999999
 30
1263.0
  0
LINE
  5
63
330
17
100
AcDbEntity
  8
0
100
AcDbLine
 10
26.55609454280791
 20
-79.9
 30
1263.0
 11
69.04026207158418
 21
-79.9
 31
1263.0
  0
SPLINE
  5
64
330
17
100
AcDbEntity
  8
0
100
AcDbSpline
 70
0
 71
8
 72
18
 73
9
 74
0
 40
0.0
 40
0.0
 40
0.0
 40
0.0
 40
0.0
 40
0.0
 40
0.0
 40
0.0
 40
0.0
 40
1.0
 40
1.0
 40
1.0
 40
1.0
 40
1.0
 40
1.0
 40
1.0
 40
1.0
 40
1.0
 10
67.73617931643287
 20
-102.10000000274944
 30
1263.0
 10
67.92681785846514
 20
-99.32672817984624
 30
1263.0
 10
68.10918799223106
 20
-96.55288746695541
 30
1263.0
 10
68.28348137677136
 20
-93.778517653087
 30
1263.0
 10
68.44988605607152
 20
-91.00365674065547
 30
1263.0
 10
68.60858664286437
 20
-88.22834095244397
 30
1263.0
 10
68.75976449162813
 20
-85.45260473810345
 30
1263.0
 10
68.9035978622467
 20
-82.67648078024797
 30
1263.0
 10
69.0402620757986
 20
-79.90000000020743
 30
1263.0
  0
LINE
  5
65
330
17
100
AcDbEntity
  8
0
100
AcDbLine
 10
26.55609454280791
 20
-102.1
 30
1263.0
 11
67.73617927643573
 21
-102.1
 31
1263.0
  0
SPLINE
  5
66
330
17
100
AcDbEntity
  8
0
100
AcDbSpline
 70
0
 71
1
 72
4
 73
2
 74
0
 40
0.0
 40
0.0
 40
1.0
 40
1.0
 10
26.556094545884715
 20
-105.90000060000003
 30
1263.0
 10
26.556094545884715
 20
-102.09999939999999
 30
1263.0
  0
LINE
  5
67
330
17
100
AcDbEntity
  8
0
100
AcDbLine
 10
26.55609454280791
 20
-105.9
 30
1263.0
 11
67.46808149482987
 21
-105.9
 31
1263.0
  0
SPLINE
  5
68
330
17
100
AcDbEntity
  8
0
100
AcDbSpline
 70
0
 71
8
 72
25
 73
16
 74
0
 40
0.0
 40
0.0
 40
0.0
 40
0.0
 40
0.0
 40
0.0
 40
0.0
 40
0.0
 40
0.0
 40
0.24352228342646276
 40
0.24352228342646276
 40
0.24352228342646276
 40
0.24352228342646276
 40
0.24352228342646276
 40
0.24352228342646276
 40
0.24352228342646276
 40
1.0
 40
1.0
 40
1.0
 40
1.0
 40
1.0
 40
1.0
 40
1.0
 40
1.0
 40
1.0
 10
65.6107216057292
 20
-128.09999991879155
 30
1263.0
 10
65.67519435511574
 20
-127.42491328942128
 30
1263.0
 10
65.73909067044288
 20
-126.74977159462635
 30
1263.0
 10
65.80241318888565
 20
-126.07457566317242
 30
1263.0
 10
65.86516471567435
 20
-125.3993263307979
 30
1263.0
 10
65.92734822409454
 20
-124.72402444021384
 30
1263.0
 10
65.98896685548695
 20
-124.04867084110394
 30
1263.0
 10
66.05002391924766
 20
-123.37326639012463
 30
1263.0
 10
66.29845692804267
 20
-120.5995800164762
 30
1263.0
 10
66.48100035118841
 20
-118.50088064563226
 30
1263.0
 10
66.65824461093226
 20
-116.40173479432457
 30
1263.0
 10
66.83027971841447
 20
-114.30216281989436
 30
1263.0
 10
66.99719430166125
 20
-112.20218448317694
 30
1263.0
 10
67.15907565743504
 20
-110.10181895049615
 30
1263.0
 10
67.31600980073284
 20
-108.00108479555819
 30
1263.0
 10
67.468081512143
 20
-105.9000000012531
 30
1263.0
  0
LINE
  5
69
330
17
100
AcDbEntity
  8
0
100
AcDbLine
 10
26.55609454280791
 20
-128.1
 30
1263.0
 11
65.61072245605313
 21
-128.1
 31
1263.0
  0
SPLINE
  5
6A
330
17
100
AcDbEntity
  8
0
100
AcDbSpline
 70
0
 71
1
 72
4
 73
2
 74
0
 40
0.0
 40
0.0
 40
1.0
 40
1.0
 10
26.556094545884715
 20
-131.9000006
 30
1263.0
 10
26.556094545884715
 20
-128.09999939999992
 30
1263.0
  0
LINE
  5
6B
330
17
100
AcDbEntity
  8
0
100
AcDbLine
 10
26.55609454280791
 20
-131.9
 30
1263.0
 11
65.23970695071229
 21
-131.9
 31
1263.0
  0
SPLINE
  5
6C
330
17
100
AcDbEntity
  8
0
100
AcDbSpline
 70
0
 71
8
 72
18
 73
9
 74
0
 40
0.0
 40
0.0
 40
0.0
 40
0.0
 40
0.0
 40
0.0
 40
0.0
 40
0.0
 40
0.0
 40
1.0
 40
1.0
 40
1.0
 40
1.0
 40
1.0
 40
1.0
 40
1.0
 40
1.0
 40
1.0
 10
62.74106584183625
 20
-154.09999999661397
 30
1263.0
 10
63.089411626247724
 20
-151.32921660270097
 30
1263.0
 10
63.427100640601594
 20
-148.55709118905992
 30
1263.0
 10
63.75437049356074
 20
-145.7837026679018
 30
1263.0
 10
64.07141074055096
 20
-143.00912116745764
 30
1263.0
 10
64.3783698934298
 20
-140.23340888962696
 30
1263.0
 10
64.67535961246882
 20
-137.4566206256543
 30
1263.0
 10
64.96245712910728
 20
-134.67880406089387
 30
1263.0
 10
65.23970694793712
 20
-131.89999999972304
 30
1263.0
  0
LINE
  5
6D
330
17
100
AcDbEntity
  8
0
100
AcDbLine
 10
26.55609454280791
 20
-154.1
 30
1263.0
 11
62.741065868769006
 21
-154.1
 31
1263.0
  0
SPLINE
  5
6E
330
17
100
AcDbEntity
  8
0
100
AcDbSpline
 70
0
 71
1
 72
4
 73
2
 74
0
 40
0.0
 40
0.0
 40
1.0
 40
1.0
 10
26.556094545884715
 20
-157.90000060000003
 30
1263.0
 10
26.556094545884715
 20
-154.0999994
 30
1263.0
  0
LINE
  5
6F
330
17
100
AcDbEntity
  8
0
100
AcDbLine
 10
26.55609454280791
 20
-157.9
 30
1263.0
 11
62.25433951617564
 21
-157.9
 31
1263.0
  0
SPLINE
  5
70
330
17
100
AcDbEntity
  8
0
100
AcDbSpline
 70
0
 71
8
 72
25
 73
16
 74
0
 40
0.0
 40
0.0
 40
0.0
 40
0.0
 40
0.0
 40
0.0
 40
0.0
 40
0.0
 40
0.0
 40
0.6764103905615988
 40
0.6764103905615988
 40
0.6764103905615988
 40
0.6764103905615988
 40
0.6764103905615988
 40
0.6764103905615988
 40
0.6764103905615988
 40
1.0
 40
1.0
 40
1.0
 40
1.0
 40
1.0
 40
1.0
 40
1.0
 40
1.0
 40
1.0
 10
59.02309257291
 20
-180.10000000023987
 30
1263.0
 10
59.32623835251863
 20
-178.22749405444182
 30
1263.0
 10
59.62308525178586
 20
-176.353968529547
 30
1263.0
 10
59.91384560161946
 20
-174.47948435643738
 30
1263.0
 10
60.19870664933774
 20
-172.60409463389476
 30
1263.0
 10
60.47783483802323
 20
-170.72784535096838
 30
1263.0
 10
60.751378607262254
 20
-168.85077586147395
 30
1263.0
 10
61.0194706137334
 20
-166.97291926629737
 30
1263.0
 10
61.40793250024719
 20
-164.1955869938563
 30
1263.0
 10
61.532413833588144
 20
-163.29670091195112
 30
1263.0
 10
61.655687238124045
 20
-162.3976481576192
 30
1263.0
 10
61.777764938653945
 20
-161.49843215173158
 30
1263.0
 10
61.8986584601954
 20
-160.59905619717586
 30
1263.0
 10
62.018378666853316
 20
-159.69952348360425
 30
1263.0
 10
62.136935796546695
 20
-158.79983709167618
 30
1263.0
 10
62.25433949199437
 20
-157.89999999684505
 30
1263.0
  0
LINE
  5
71
330
17
100
AcDbEntity
  8
0
100
AcDbLine
 10
26.55609454280791
 20
-180.1
 30
1263.0
 11
59.02309257142794
 21
-180.1
 31
1263.0
  0
SPLINE
  5
72
330
17
100
AcDbEntity
  8
0
100
AcDbSpline
 70
0
 71
1
 72
4
 73
2
 74
0
 40
0.0
 40
0.0
 40
1.0
 40
1.0
 10
26.556094545884715
 20
-183.9000006000001
 30
1263.0
 10
26.556094545884715
 20
-180.09999939999994
 30
1263.0
  0
LINE
  5
73
330
17
100
AcDbEntity
  8
0
100
AcDbLine
 10
26.55609454280791
 20
-183.9
 30
1263.0
 11
58.39602932375703
 21
-183.9
 31
1263.0
  0
SPLINE
  5
74
330
17
100
AcDbEntity
  8
0
100
AcDbSpline
 70
0
 71
8
 72
25
 73
16
 74
0
 40
0.0
 40
0.0
 40
0.0
 40
0.0
 40
0.0
 40
0.0
 40
0.0
 40
0.0
 40
0.0
 40
0.4394108908315206
 40
0.4394108908315206
 40
0.4394108908315206
 40
0.4394108908315206
 40
0.4394108908315206
 40
0.4394108908315206
 40
0.4394108908315206
 40
1.0
 40
1.0
 40
1.0
 40
1.0
 40
1.0
 40
1.0
 40
1.0
 40
1.0
 40
1.0
 10
54.175516170181396
 20
-206.09999999743883
 30
1263.0
 10
54.43743294611997
 20
-204.88664156325584
 30
1263.0
 10
54.69489274055425
 20
-203.6723197646786
 30
1263.0
 10
54.94808834629739
 20
-202.45709720693068
 30
1263.0
 10
55.197192274025625
 20
-201.24102884806965
 30
1263.0
 10
55.442360501777806
 20
-200.02416281762595
 30
1263.0
 10
55.683734975822055
 20
-198.80654096270936
 30
1263.0
 10
55.92144551618832
 20
-197.58819926686618
 30
1263.0
 10
56.4543550750163
 20
-194.81395992657926
 30
1263.0
 10
56.747326073765315
 20
-193.25764883025388
 30
1263.0
 10
57.034772072402276
 20
-191.7003027414421
 30
1263.0
 10
57.31691176682849
 20
-190.14198282380056
 30
1263.0
 10
57.59394024285785
 20
-188.5827445070189
 30
1263.0
 10
57.86603280312336
 20
-187.02263813393756
 30
1263.0
 10
58.13334788488302
 20
-185.46170945296817
 30
1263.0
 10
58.39602932271889
 20
-183.89999999982535
 30
1263.0
  0
LINE
  5
75
330
17
100
AcDbEntity
  8
0
100
AcDbLine
 10
26.55609454280791
 20
-206.1
 30
1263.0
 11
54.17551618204622
 21
-206.1
 31
1263.0
  0
SPLINE
  5
76
330
17
100
AcDbEntity
  8
0
100
AcDbSpline
 70
0
 71
1
 72
4
 73
2
 74
0
 40
0.0
 40
0.0
 40
1.0
 40
1.0
 10
26.556094545884715
 20
-209.90000060000008
 30
1263.0
 10
26.556094545884715
 20
-206.09999939999992
 30
1263.0
  0
LINE
  5
77
330
17
100
AcDbEntity
  8
0
100
AcDbLine
 10
26.55609454280791
 20
-209.9
 30
1263.0
 11
53.33444673695587
 21
-209.9
 31
1263.0
  0
SPLINE
  5
78
330
17
100
AcDbEntity
  8
0
100
AcDbSpline
 70
0
 71
8
 72
32
 73
23
 74
0
 40
0.0
 40
0.0
 40
0.0
 40
0.0
 40
0.0
 40
0.0
 40
0.0
 40
0.0
 40
0.0
 40
0.03594692786895639
 40
0.03594692786895639
 40
0.03594692786895639
 40
0.03594692786895639
 40
0.03594692786895639
 40
0.03594692786895639
 40
0.03594692786895639
 40
0.8092589743578719
 40
0.8092589743578719
 40
0.8092589743578719
 40
0.8092589743578719
 40
0.8092589743578719
 40
0.8092589743578719
 40
0.8092589743578719
 40
1.0
 40
1.0
 40
1.0
 40
1.0
 40
1.0
 40
1.0
 40
1.0
 40
1.0
 40
1.0
 10
47.23317223897092
 20
-232.1000008284807
 30
1263.0000000000002
 10
47.26632976990851
 20
-232.00368344763172
 30
1263.0
 10
47.299474295051326
 20
-231.9071096774731
 30
1263.0
 10
47.332605836101564
 20
-231.81027977163367
 30
1263.0
 10
47.36572443274078
 20
-231.71319402922893
 30
1263.0
 10
47.39883014489503
 20
-231.61585279569357
 30
1263.0
 10
47.43192305500004
 20
-231.51825646361394
 30
1263.0
 10
47.46500327026631
 20
-231.42040547356044
 30
1263.0
 10
48.20944230568679
 20
-229.2118028260693
 30
1263.0
 10
48.8797719702828
 20
-227.0876535294899
 30
1263.0
 10
49.51680477487138
 20
-224.95307053919
 30
1263.0
 10
50.125175833993595
 20
-222.81013670672309
 30
1263.0
 10
50.70849954225554
 20
-220.6604115054518
 30
1263.0
 10
51.26947741966061
 20
-218.50495890931674
 30
1263.0
 10
51.81035319535873
 20
-216.34448558267184
 30
1263.0
 10
52.46188045671768
 20
-213.64531622849307
 30
1263.0
 10
52.58967299234348
 20
-213.11100874770523
 30
1263.0
 10
52.71637836329806
 20
-212.57644204888908
 30
1263.0
 10
52.84202213322851
 20
-212.04162453285096
 30
1263.0
 10
52.966628488841195
 20
-211.50656417612822
 30
1263.0
 10
53.09022036225508
 20
-210.9712685577605
 30
1263.0
 10
53.21281953794903
 20
-210.43574488267404
 30
1263.0
 10
53.334446746476154
 20
-209.90000000216136
 30
1263.0
  0
LINE
  5
79
330
17
100
AcDbEntity
  8
0
100
AcDbLine
 10
26.55609454280791
 20
-232.1
 30
1263.0
 11
47.23316983236592
 21
-232.1
 31
1263.0
  0
SPLINE
  5
7A
330
17
100
AcDbEntity
  8
0
100
AcDbSpline
 70
0
 71
1
 72
4
 73
2
 74
0
 40
0.0
 40
0.0
 40
1.0
 40
1.0
 10
26.556094545884715
 20
-235.90000060000008
 30
1263.0
 10
26.556094545884715
 20
-232.09999939999992
 30
1263.0
  0
LINE
  5
7B
330
17
100
AcDbEntity
  8
0
100
AcDbLine
 10
26.55609454280791
 20
-235.9
 30
1263.0
 11
45.84919640962675
 21
-235.9
 31
1263.0
  0
SPLINE
  5
7C
330
17
100
AcDbEntity
  8
0
100
AcDbSpline
 70
0
 71
8
 72
95
 73
86
 74
0
 40
0.0
 40
0.0
 40
0.0
 40
0.0
 40
0.0
 40
0.0
 40
0.0
 40
0.0
 40
0.0
 40
0.024715359842907052
 40
0.024715359842907052
 40
0.024715359842907052
 40
0.024715359842907052
 40
0.024715359842907052
 40
0.024715359842907052
 40
0.024715359842907052
 40
0.03474185726998265
 40
0.03474185726998265
 40
0.03474185726998265
 40
0.03474185726998265
 40
0.03474185726998265
 40
0.03474185726998265
 40
0.03474185726998265
 40
0.05177546714514663
 40
0.05177546714514663
 40
0.05177546714514663
 40
0.05177546714514663
 40
0.05177546714514663
 40
0.05177546714514663
 40
0.05177546714514663
 40
0.056874875901050184
 40
0.056874875901050184
 40
0.056874875901050184
 40
0.056874875901050184
 40
0.056874875901050184
 40
0.056874875901050184
 40
0.056874875901050184
 40
0.059369644493140944
 40
0.059369644493140944
 40
0.059369644493140944
 40
0.059369644493140944
 40
0.059369644493140944
 40
0.059369644493140944
 40
0.059369644493140944
 40
0.06184851451287361
 40
0.06184851451287361
 40
0.06184851451287361
 40
0.06184851451287361
 40
0.06184851451287361
 40
0.06184851451287361
 40
0.06184851451287361
 40
0.06966596723406451
 40
0.06966596723406451
 40
0.06966596723406451
 40
0.06966596723406451
 40
0.06966596723406451
 40
0.06966596723406451
 40
0.06966596723406451
 40
0.07947580891504948
 40
0.07947580891504948
 40
0.07947580891504948
 40
0.07947580891504948
 40
0.07947580891504948
 40
0.07947580891504948
 40
0.07947580891504948
 40
0.0870998375212376
 40
0.0870998375212376
 40
0.0870998375212376
 40
0.0870998375212376
 40
0.0870998375212376
 40
0.0870998375212376
 40
0.0870998375212376
 40
0.10038756693981808
 40
0.10038756693981808
 40
0.10038756693981808
 40
0.10038756693981808
 40
0.10038756693981808
 40
0.10038756693981808
 40
0.10038756693981808
 40
0.11796896711892038
 40
0.11796896711892038
 40
0.11796896711892038
 40
0.11796896711892038
 40
0.11796896711892038
 40
0.11796896711892038
 40
0.11796896711892038
 40
0.11810314520609451
 40
0.11810314520609451
 40
0.11810314520609451
 40
0.11810314520609451
 40
0.11810314520609451
 40
0.11810314520609451
 40
0.11810314520609451
 40
0.11810314520609451
 40
0.11810314520609451
 10
4.423522776048415
 20
-230.97963219259054
 30
1263.0
 10
4.595670362155514
 20
-232.75009426154838
 30
1263.0
 10
4.8381381594284
 20
-234.51297299548796
 30
1263.0
 10
5.1572903953746225
 20
-236.2655042381483
 30
1263.0
 10
5.560278664945345
 20
-238.00261718295317
 30
1263.0
 10
6.054744382108506
 20
-239.71701807564702
 30
1263.0
 10
6.648419739936081
 20
-241.39930116720558
 30
1263.0
 10
7.348627179205467
 20
-243.0380869170183
 30
1263.0
 10
8.491514586293105
 20
-245.2620120844442
 30
1263.0
 10
8.839833721943034
 20
-245.8943341736574
 30
1263.0
 10
9.206988164569506
 20
-246.5161836621333
 30
1263.0
 10
9.593268336374358
 20
-247.12651568719508
 30
1263.0
 10
9.99888607511376
 20
-247.72422085189422
 30
1263.0
 10
10.423956814487914
 20
-248.30813701443554
 30
1263.0
 10
10.868479559463305
 20
-248.8770625904755
 30
1263.0
 10
12.120305293064572
 20
-250.36874589697584
 30
1263.0
 10
12.96435620467534
 20
-251.26130083465404
 30
1263.0
 10
13.863444249347614
 20
-252.1008615317292
 30
1263.0
 10
14.815590355702298
 20
-252.88120274473295
 30
1263.0
 10
15.817769463163078
 20
-253.59656942728975
 30
1263.0
 10
16.86584660093163
 20
-254.2417594313186
 30
1263.0
 10
17.954499899902856
 20
-254.81222748867128
 30
1263.0
 10
19.413165282997547
 20
-255.45157420873903
 30
1263.0
 10
19.752312048096506
 20
-255.59186337597677
 30
1263.0
 10
20.09436869627826
 20
-255.72504198258707
 30
1263.0
 10
20.439168088822385
 20
-255.85102221814054
 30
1263.0
 10
20.786539054771357
 20
-255.96972333368615
 30
1263.0
 10
21.13630656674052
 20
-256.0810711511286
 30
1263.0
 10
21.488291916728038
 20
-256.1849975726045
 30
1263.0
 10
22.01550952160076
 20
-256.32862237598493
 30
1263.0
 10
22.189191421508646
 20
-256.37402543525826
 30
1263.0
 10
22.363339785529377
 20
-256.41763409513493
 30
1263.0
 10
22.537937605323698
 20
-256.4594210770426
 30
1263.0
 10
22.71296967033214
 20
-256.49934699638
 30
1263.0
 10
22.888422567775073
 20
-256.53736036251775
 30
1263.0
 10
23.064284682652712
 20
-256.57339757879805
 30
1263.0
 10
23.415684439736896
 20
-256.6411517255572
 30
1263.0
 10
23.59091681821921
 20
-256.67285022145757
 30
1263.0
 10
23.766239463333836
 20
-256.7024384898519
 30
1263.0
 10
23.941648505222506
 20
-256.7298765903557
 30
1263.0
 10
24.117140074026867
 20
-256.7551245825844
 30
1263.0
 10
24.292710299888483
 20
-256.778142526153
 30
1263.0
 10
24.46835531294883
 20
-256.79889048067616
 30
1263.0
 10
25.198215255472114
 20
-256.8754753179387
 30
1263.0
 10
25.754927782118166
 20
-256.9108440593575
 30
1263.0
 10
26.313071889557385
 20
-256.9218058951035
 30
1263.0
 10
26.871354989012158
 20
-256.9069135257943
 30
1263.0
 10
27.428335940808644
 20
-256.8650137580934
 30
1263.0
 10
27.982431533493575
 20
-256.7953638119045
 30
1263.0
 10
28.531922337916388
 20
-256.6977513642514
 30
1263.0
 10
29.756393876735487
 20
-256.4155933627154
 30
1263.0
 10
30.42804232477907
 20
-256.21514484612595
 30
1263.0
 10
31.086163947437306
 20
-255.97207064664713
 30
1263.0
 10
31.728078397437724
 20
-255.68848969351512
 30
1263.0
 10
32.35196202276733
 20
-255.36741588116482
 30
1263.0
 10
32.956664655569845
 20
-255.01235678176943
 30
1263.0
 10
33.54156049067609
 20
-254.62698195613368
 30
1263.0
 10
34.545468300971
 20
-253.89464752294353
 30
1263.0
 10
34.97258052041547
 20
-253.5581315977874
 30
1263.0
 10
35.38789423060152
 20
-253.20687098422547
 30
1263.0
 10
35.79164574450983
 20
-252.84230724056707
 30
1263.0
 10
36.184162726345164
 20
-252.4657705179568
 30
1263.0
 10
36.565838262893756
 20
-252.0784505635539
 30
1263.0
 10
36.93711445979189
 20
-251.68137858395684
 30
1263.0
 10
37.92828282156346
 20
-250.56788481770528
 30
1263.0
 10
38.527699503062415
 20
-249.8336605342351
 30
1263.0
 10
39.099460768518796
 20
-249.0772177133275
 30
1263.0
 10
39.64591651496606
 20
-248.30223376233556
 30
1263.0
 10
40.169170679475485
 20
-247.51169281438897
 30
1263.0
 10
40.671154003375136
 20
-246.70793735518782
 30
1263.0
 10
41.15366241614624
 20
-245.89269539721832
 30
1263.0
 10
42.23329267539639
 20
-243.974745886409
 30
1263.0
 10
42.816738365251396
 20
-242.8648600215578
 30
1263.0
 10
43.37246516884231
 20
-241.74056844015894
 30
1263.0
 10
43.903353212021216
 20
-240.60430361472834
 30
1263.0
 10
44.411786407216056
 20
-239.45798269606337
 30
1263.0
 10
44.89981310857026
 20
-238.30308324085547
 30
1263.0
 10
45.369213840826035
 20
-237.14067498265013
 30
1263.0
 10
45.825033467282665
 20
-235.962535922036
 30
1263.0
 10
45.82848571730849
 20
-235.95361006365883
 30
1263.0
 10
45.831937832051665
 20
-235.94468159115155
 30
1263.0
 10
45.83538981170288
 20
-235.93575050374224
 30
1263.0
 10
45.8388416564495
 20
-235.9268168006621
 30
1263.0
 10
45.84229336647565
 20
-235.91788048114546
 30
1263.0
 10
45.845744941962174
 20
-235.90894154442975
 30
1263.0
 10
45.84919638308672
 20
-235.89999998975557
 30
1263.0
  0
SPLINE
  5
7D
330
17
100
AcDbEntity
  8
0
100
AcDbSpline
 70
0
 71
8
 72
417
 73
408
 74
0
 40
0.0
 40
0.0
 40
0.0
 40
0.0
 40
0.0
 40
0.0
 40
0.0
 40
0.0
 40
0.0
 40
0.0030019761691311452
 40
0.0030019761691311452
 40
0.0030019761691311452
 40
0.0030019761691311452
 40
0.0030019761691311452
 40
0.0030019761691311452
 40
0.0030019761691311452
 40
0.006137741995013394
 40
0.006137741995013394
 40
0.006137741995013394
 40
0.006137741995013394
 40
0.006137741995013394
 40
0.006137741995013394
 40
0.006137741995013394
 40
0.009587084403497231
 40
0.009587084403497231
 40
0.009587084403497231
 40
0.009587084403497231
 40
0.009587084403497231
 40
0.009587084403497231
 40
0.009587084403497231
 40
0.011782120481623684
 40
0.011782120481623684
 40
0.011782120481623684
 40
0.011782120481623684
 40
0.011782120481623684
 40
0.011782120481623684
 40
0.011782120481623684
 40
0.014917886307525809
 40
0.014917886307525809
 40
0.014917886307525809
 40
0.014917886307525809
 40
0.014917886307525809
 40
0.014917886307525809
 40
0.014917886307525809
 40
0.01836722871603482
 40
0.01836722871603482
 40
0.01836722871603482
 40
0.01836722871603482
 40
0.01836722871603482
 40
0.01836722871603482
 40
0.01836722871603482
 40
0.0244631908485626
 40
0.0244631908485626
 40
0.0244631908485626
 40
0.0244631908485626
 40
0.0244631908485626
 40
0.0244631908485626
 40
0.0244631908485626
 40
0.03456876106918137
 40
0.03456876106918137
 40
0.03456876106918137
 40
0.03456876106918137
 40
0.03456876106918137
 40
0.03456876106918137
 40
0.03456876106918137
 40
0.05607179825867169
 40
0.05607179825867169
 40
0.05607179825867169
 40
0.05607179825867169
 40
0.05607179825867169
 40
0.05607179825867169
 40
0.05607179825867169
 40
0.07055013401751885
 40
0.07055013401751885
 40
0.07055013401751885
 40
0.07055013401751885
 40
0.07055013401751885
 40
0.07055013401751885
 40
0.07055013401751885
 40
0.07815740806980159
 40
0.07815740806980159
 40
0.07815740806980159
 40
0.07815740806980159
 40
0.07815740806980159
 40
0.07815740806980159
 40
0.07815740806980159
 40
0.08746819732079161
 40
0.08746819732079161
 40
0.08746819732079161
 40
0.08746819732079161
 40
0.08746819732079161
 40
0.08746819732079161
 40
0.08746819732079161
 40
0.13111809232308147
 40
0.13111809232308147
 40
0.13111809232308147
 40
0.13111809232308147
 40
0.13111809232308147
 40
0.13111809232308147
 40
0.13111809232308147
 40
0.21984386843636688
 40
0.21984386843636688
 40
0.21984386843636688
 40
0.21984386843636688
 40
0.21984386843636688
 40
0.21984386843636688
 40
0.21984386843636688
 40
0.26766163759285533
 40
0.26766163759285533
 40
0.26766163759285533
 40
0.26766163759285533
 40
0.26766163759285533
 40
0.26766163759285533
 40
0.26766163759285533
 40
0.3242138853716954
 40
0.3242138853716954
 40
0.3242138853716954
 40
0.3242138853716954
 40
0.3242138853716954
 40
0.3242138853716954
 40
0.3242138853716954
 40
0.3807889160259065
 40
0.3807889160259065
 40
0.3807889160259065
 40
0.3807889160259065
 40
0.3807889160259065
 40
0.3807889160259065
 40
0.3807889160259065
 40
0.5103668819818115
 40
0.5103668819818115
 40
0.5103668819818115
 40
0.5103668819818115
 40
0.5103668819818115
 40
0.5103668819818115
 40
0.5103668819818115
 40
0.557270752251274
 40
0.557270752251274
 40
0.557270752251274
 40
0.557270752251274
 40
0.557270752251274
 40
0.557270752251274
 40
0.557270752251274
 40
0.5739254594890276
 40
0.5739254594890276
 40
0.5739254594890276
 40
0.5739254594890276
 40
0.5739254594890276
 40
0.5739254594890276
 40
0.5739254594890276
 40
0.5905814611467985
 40
0.5905814611467985
 40
0.5905814611467985
 40
0.5905814611467985
 40
0.5905814611467985
 40
0.5905814611467985
 40
0.5905814611467985
 40
0.6164063626392283
 40
0.6164063626392283
 40
0.6164063626392283
 40
0.6164063626392283
 40
0.6164063626392283
 40
0.6164063626392283
 40
0.6164063626392283
 40
0.6292238410072533
 40
0.6292238410072533
 40
0.6292238410072533
 40
0.6292238410072533
 40
0.6292238410072533
 40
0.6292238410072533
 40
0.6292238410072533
 40
0.6352469247376358
 40
0.6352469247376358
 40
0.6352469247376358
 40
0.6352469247376358
 40
0.6352469247376358
 40
0.6352469247376358
 40
0.6352469247376358
 40
0.6393305798323947
 40
0.6393305798323947
 40
0.6393305798323947
 40
0.6393305798323947
 40
0.6393305798323947
 40
0.6393305798323947
 40
0.6393305798323947
 40
0.6408480833138933
 40
0.6408480833138933
 40
0.6408480833138933
 40
0.6408480833138933
 40
0.6408480833138933
 40
0.6408480833138933
 40
0.6408480833138933
 40
0.6430159454303102
 40
0.6430159454303102
 40
0.6430159454303102
 40
0.6430159454303102
 40
0.6430159454303102
 40
0.6430159454303102
 40
0.6430159454303102
 40
0.6454005937583918
 40
0.6454005937583918
 40
0.6454005937583918
 40
0.6454005937583918
 40
0.6454005937583918
 40
0.6454005937583918
 40
0.6454005937583918
 40
0.6476268621093586
 40
0.6476268621093586
 40
0.6476268621093586
 40
0.6476268621093586
 40
0.6476268621093586
 40
0.6476268621093586
 40
0.6476268621093586
 40
0.6498524393742001
 40
0.6498524393742001
 40
0.6498524393742001
 40
0.6498524393742001
 40
0.6498524393742001
 40
0.6498524393742001
 40
0.6498524393742001
 40
0.6518972530610688
 40
0.6518972530610688
 40
0.6518972530610688
 40
0.6518972530610688
 40
0.6518972530610688
 40
0.6518972530610688
 40
0.6518972530610688
 40
0.6539420667479109
 40
0.6539420667479109
 40
0.6539420667479109
 40
0.6539420667479109
 40
0.6539420667479109
 40
0.6539420667479109
 40
0.6539420667479109
 40
0.655646078153608
 40
0.655646078153608
 40
0.655646078153608
 40
0.655646078153608
 40
0.655646078153608
 40
0.655646078153608
 40
0.655646078153608
 40
0.6573500895593081
 40
0.6573500895593081
 40
0.6573500895593081
 40
0.6573500895593081
 40
0.6573500895593081
 40
0.6573500895593081
 40
0.6573500895593081
 40
0.6606627214497459
 40
0.6606627214497459
 40
0.6606627214497459
 40
0.6606627214497459
 40
0.6606627214497459
 40
0.6606627214497459
 40
0.6606627214497459
 40
0.666154254742469
 40
0.666154254742469
 40
0.666154254742469
 40
0.666154254742469
 40
0.666154254742469
 40
0.666154254742469
 40
0.666154254742469
 40
0.677839379761726
 40
0.677839379761726
 40
0.677839379761726
 40
0.677839379761726
 40
0.677839379761726
 40
0.677839379761726
 40
0.677839379761726
 40
0.6857071632048113
 40
0.6857071632048113
 40
0.6857071632048113
 40
0.6857071632048113
 40
0.6857071632048113
 40
0.6857071632048113
 40
0.6857071632048113
 40
0.6898410904958026
 40
0.6898410904958026
 40
0.6898410904958026
 40
0.6898410904958026
 40
0.6898410904958026
 40
0.6898410904958026
 40
0.6898410904958026
 40
0.6949007375549445
 40
0.6949007375549445
 40
0.6949007375549445
 40
0.6949007375549445
 40
0.6949007375549445
 40
0.6949007375549445
 40
0.6949007375549445
 40
0.7186192265882745
 40
0.7186192265882745
 40
0.7186192265882745
 40
0.7186192265882745
 40
0.7186192265882745
 40
0.7186192265882745
 40
0.7186192265882745
 40
0.7668157620562672
 40
0.7668157620562672
 40
0.7668157620562672
 40
0.7668157620562672
 40
0.7668157620562672
 40
0.7668157620562672
 40
0.7668157620562672
 40
0.7927797237035752
 40
0.7927797237035752
 40
0.7927797237035752
 40
0.7927797237035752
 40
0.7927797237035752
 40
0.7927797237035752
 40
0.7927797237035752
 40
0.8234735351764081
 40
0.8234735351764081
 40
0.8234735351764081
 40
0.8234735351764081
 40
0.8234735351764081
 40
0.8234735351764081
 40
0.8234735351764081
 40
0.8541636080623464
 40
0.8541636080623464
 40
0.8541636080623464
 40
0.8541636080623464
 40
0.8541636080623464
 40
0.8541636080623464
 40
0.8541636080623464
 40
0.9244080385540165
 40
0.9244080385540165
 40
0.9244080385540165
 40
0.9244080385540165
 40
0.9244080385540165
 40
0.9244080385540165
 40
0.9244080385540165
 40
0.9498228608139287
 40
0.9498228608139287
 40
0.9498228608139287
 40
0.9498228608139287
 40
0.9498228608139287
 40
0.9498228608139287
 40
0.9498228608139287
 40
0.9588464604213709
 40
0.9588464604213709
 40
0.9588464604213709
 40
0.9588464604213709
 40
0.9588464604213709
 40
0.9588464604213709
 40
0.9588464604213709
 40
0.9678707602980174
 40
0.9678707602980174
 40
0.9678707602980174
 40
0.9678707602980174
 40
0.9678707602980174
 40
0.9678707602980174
 40
0.9678707602980174
 40
0.9818628186304522
 40
0.9818628186304522
 40
0.9818628186304522
 40
0.9818628186304522
 40
0.9818628186304522
 40
0.9818628186304522
 40
0.9818628186304522
 40
0.9888074025412368
 40
0.9888074025412368
 40
0.9888074025412368
 40
0.9888074025412368
 40
0.9888074025412368
 40
0.9888074025412368
 40
0.9888074025412368
 40
0.9920707560782752
 40
0.9920707560782752
 40
0.9920707560782752
 40
0.9920707560782752
 40
0.9920707560782752
 40
0.9920707560782752
 40
0.9920707560782752
 40
0.9942833342287797
 40
0.9942833342287797
 40
0.9942833342287797
 40
0.9942833342287797
 40
0.9942833342287797
 40
0.9942833342287797
 40
0.9942833342287797
 40
0.9951055477664549
 40
0.9951055477664549
 40
0.9951055477664549
 40
0.9951055477664549
 40
0.9951055477664549
 40
0.9951055477664549
 40
0.9951055477664549
 40
0.9962801385345633
 40
0.9962801385345633
 40
0.9962801385345633
 40
0.9962801385345633
 40
0.9962801385345633
 40
0.9962801385345633
 40
0.9962801385345633
 40
0.9975721883794826
 40
0.9975721883794826
 40
0.9975721883794826
 40
0.9975721883794826
 40
0.9975721883794826
 40
0.9975721883794826
 40
0.9975721883794826
 40
0.9985118609939675
 40
0.9985118609939675
 40
0.9985118609939675
 40
0.9985118609939675
 40
0.9985118609939675
 40
0.9985118609939675
 40
0.9985118609939675
 40
1.0
 40
1.0
 40
1.0
 40
1.0
 40
1.0
 40
1.0
 40
1.0
 40
1.0
 40
1.0
 10
4.4235227760484035
 20
230.97963219259057
 30
1263.0
 10
4.42337939987344
 20
230.97977559582634
 30
1263.0
 10
4.42340868765822
 20
230.9795745892228
 30
1263.0
 10
4.423499717992173
 20
230.97934333876077
 30
1263.0
 10
4.423577351965166
 20
230.9792370262777
 30
1263.0
 10
4.4236022331675136
 20
230.97925184946715
 30
1263.0
 10
4.423570787689972
 20
230.9792250218791
 30
1263.0
 10
4.423515224123739
 20
230.97883477291978
 30
1263.0
 10
4.423491321981562
 20
230.97631090792174
 30
1263.0
 10
4.4234732059029795
 20
230.97439800253053
 30
1263.0
 10
4.423447519953007
 20
230.9716857824461
 30
1263.0
 10
4.4234125987599375
 20
230.96799839843578
 30
1263.0
 10
4.423366776952063
 20
230.96316000126706
 30
1263.0
 10
4.42330838915768
 20
230.95699474170746
 30
1263.0
 10
4.423235770005081
 20
230.94932677052438
 30
1263.0
 10
4.423049886651784
 20
230.9296990532421
 30
1263.0
 10
4.422933284137804
 20
230.9173868093634
 30
1263.0
 10
4.422795229970879
 20
230.9028094515204
 30
1263.0
 10
4.4226335075412635
 20
230.8857329243846
 30
1263.0
 10
4.42244590023922
 20
230.86592317262742
 30
1263.0
 10
4.4222301914550055
 20
230.84314614092045
 30
1263.0
 10
4.42198416457888
 20
230.8171677739352
 30
1263.0
 10
4.421528336542525
 20
230.76903617060324
 30
1263.0
 10
4.42133789487418
 20
230.74892713362533
 30
1263.0
 10
4.421133706773581
 20
230.72736658912328
 30
1263.0
 10
4.420915201018232
 20
230.70429422081028
 30
1263.0
 10
4.420681806385641
 20
230.67964971239962
 30
1263.0
 10
4.420432951653309
 20
230.6533727476045
 30
1263.0
 10
4.420168065598741
 20
230.62540301013811
 30
1263.0
 10
4.419484450429004
 20
230.5532190031067
 30
1263.0
 10
4.419048441114227
 20
230.50718008993312
 30
1263.0
 10
4.4185768836833965
 20
230.45738759495976
 30
1263.0
 10
4.4180681127648045
 20
230.4036656689539
 30
1263.0
 10
4.417520462986743
 20
230.34583846268285
 30
1263.0
 10
4.416932268977506
 20
230.2837301269141
 30
1263.0
 10
4.41630186536539
 20
230.21716481241532
 30
1263.0
 10
4.414885880333322
 20
230.06764871324674
 30
1263.0
 10
4.414091085168704
 20
229.98372503470492
 30
1263.0
 10
4.413240984675098
 20
229.89396157899984
 30
1263.0
 10
4.412333362242762
 20
229.79812429080295
 30
1263.0
 10
4.411366001261953
 20
229.69597911478573
 30
1263.0
 10
4.41033668512293
 20
229.58729199561967
 30
1263.0
 10
4.409243197215955
 20
229.47182887797644
 30
1263.0
 10
4.406033491986416
 20
229.1329110260694
 30
1263.0
 10
4.403982053632393
 20
228.91629640555254
 30
1263.0
 10
4.401929560787331
 20
228.69957043966207
 30
1263.0
 10
4.399876316349648
 20
228.48276511191375
 30
1263.0
 10
4.397822524124026
 20
228.26590194237122
 30
1263.0
 10
4.395768315408838
 20
228.04899479504098
 30
1263.0
 10
4.393713736565695
 20
227.83204856531
 30
1263.0
 10
4.3882521924639875
 20
227.25535548520682
 30
1263.0
 10
4.384844769395273
 20
226.89556029393972
 30
1263.0
 10
4.38143675508663
 20
226.53570267269833
 30
1263.0
 10
4.378028297184956
 20
226.1757982117836
 30
1263.0
 10
4.3746194984087
 20
225.81585775738344
 30
1263.0
 10
4.371210428187631
 20
225.45588864067997
 30
1263.0
 10
4.367801122028225
 20
225.09589461088743
 30
1263.0
 10
4.357136655891862
 20
223.96981676379795
 30
1263.0
 10
4.349880833269599
 20
223.2036629767291
 30
1263.0
 10
4.342624411415665
 20
222.43744591587512
 30
1263.0
 10
4.335367554779267
 20
221.6711829456101
 30
1263.0
 10
4.328110374961171
 20
220.9048858500808
 30
1263.0
 10
4.320852944961724
 20
220.13856233755044
 30
1263.0
 10
4.313595295170145
 20
219.37221561678112
 30
1263.0
 10
4.301450592767054
 20
218.0898372810307
 30
1263.0
 10
4.29640848811991
 20
217.55743347635325
 30
1263.0
 10
4.291208237353194
 20
217.00833077277372
 30
1263.0
 10
4.285846962704596
 20
216.4422253028183
 30
1263.0
 10
4.28032178641181
 20
215.85881319901333
 30
1263.0
 10
4.274629830712526
 20
215.2577905938851
 30
1263.0
 10
4.268768217844433
 20
214.63885361995935
 30
1263.0
 10
4.259563580235815
 20
213.666921376093
 30
1263.0
 10
4.256393094959261
 20
213.33214256222567
 30
1263.0
 10
4.253222583887581
 20
212.99736207197836
 30
1263.0
 10
4.2500520336534535
 20
212.66258000231142
 30
1263.0
 10
4.24688144785021
 20
212.3277964433266
 30
1263.0
 10
4.243710847031839
 20
211.9930114782674
 30
1263.0
 10
4.240540268712983
 20
211.65822518351894
 30
1263.0
 10
4.233489288023582
 20
210.9136802902757
 30
1263.0
 10
4.2295482879312605
 20
210.4975074200547
 30
1263.0
 10
4.225547641893132
 20
210.074979241451
 30
1263.0
 10
4.2214882247103525
 20
209.64615597797058
 30
1263.0
 10
4.21737091118408
 20
209.21109785311938
 30
1263.0
 10
4.21319657611547
 20
208.76986509040321
 30
1263.0
 10
4.2089660943056755
 20
208.32251791332774
 30
1263.0
 10
4.184588305805365
 20
205.7435263757052
 30
1263.0
 10
4.164538973227401
 20
203.6179046707637
 30
1263.0
 10
4.144554276248456
 20
201.49226057345265
 30
1263.0
 10
4.124645337792911
 20
199.36659923069217
 30
1263.0
 10
4.104820334913777
 20
197.24092420647892
 30
1263.0
 10
4.0850861018644435
 20
195.11523798225355
 30
1263.0
 10
4.065447636984501
 20
192.9895418263584
 30
1263.0
 10
4.006195482302972
 20
186.54298121648202
 30
1263.0
 10
3.9668965362593656
 20
182.22209091587567
 30
1263.0
 10
3.928051303045204
 20
177.90117492786854
 30
1263.0
 10
3.8896874740820264
 20
173.58023851643856
 30
1263.0
 10
3.8518318455438667
 20
169.2592853184817
 30
1263.0
 10
3.81451244577681
 20
164.93831789503557
 30
1263.0
 10
3.7777582451731075
 20
160.61733759157312
 30
1263.0
 10
3.722115654538988
 20
153.96759429077247
 30
1263.0
 10
3.7028031373946155
 20
151.638840136239
 30
1263.0
 10
3.6836692985226622
 20
149.31008282925112
 30
1263.0
 10
3.6647194577886015
 20
146.98132254634302
 30
1263.0
 10
3.6459592388359305
 20
144.65255944052814
 30
1263.0
 10
3.6273946236854524
 20
142.32379364459905
 30
1263.0
 10
3.609032007334555
 20
139.99502527442795
 30
1263.0
 10
3.5694085002591955
 20
134.9121061729644
 30
1263.0
 10
3.54823087029642
 20
132.15795446421114
 30
1263.0
 10
3.5273567579317215
 20
129.40379947315756
 30
1263.0
 10
3.5067984277967663
 20
126.64964135091036
 30
1263.0
 10
3.48656923067457
 20
123.8954802347147
 30
1263.0
 10
3.4666838204827215
 20
121.14131625013694
 30
1263.0
 10
3.4471583712566147
 20
118.38714951324748
 30
1263.0
 10
3.408855503135632
 20
112.8777011961491
 30
1263.0
 10
3.3900791925592166
 20
110.12241961620614
 30
1263.0
 10
3.37166378138226
 20
107.36713575321237
 30
1263.0
 10
3.3535929366526425
 20
104.6118499500802
 30
1263.0
 10
3.3358518603341563
 20
101.85656253755675
 30
1263.0
 10
3.3184270761533656
 20
99.1012738393841
 30
1263.0
 10
3.301306216446464
 20
96.34598417745933
 30
1263.0
 10
3.245934466100647
 20
87.28004925826886
 30
1263.0
 10
3.2089252825219847
 20
80.96940307696147
 30
1263.0
 10
3.1733130269134846
 20
74.65875736329363
 30
1263.0
 10
3.138985080483967
 20
68.34811590854517
 30
1263.0
 10
3.1058487104473995
 20
62.037483308666964
 30
1263.0
 10
3.0738150976346024
 20
55.7268684363689
 30
1263.0
 10
3.0428103749814444
 20
49.41628110238068
 30
1263.0
 10
3.0018390471147196
 20
40.82149417741853
 30
1263.0
 10
2.9910709038041565
 20
38.537250943040576
 30
1263.0
 10
2.9804184397175373
 20
36.253015915738665
 30
1263.0
 10
2.9698762450889
 20
33.968790419282016
 30
1263.0
 10
2.959437264904772
 20
31.68457691285309
 30
1263.0
 10
2.9490932008903745
 20
29.40037888670645
 30
1263.0
 10
2.938832996188954
 20
27.116201350959717
 30
1263.0
 10
2.9250147624288223
 20
24.02099378787048
 30
1263.0
 10
2.9214791612802014
 20
23.22725696343676
 30
1263.0
 10
2.9180283546042705
 20
22.45115576881804
 30
1263.0
 10
2.91466333748495
 20
21.692999065103976
 30
1263.0
 10
2.9113816099854644
 20
20.953092235599996
 30
1263.0
 10
2.9081860944883076
 20
20.231735816281628
 30
1263.0
 10
2.905073644219345
 20
19.52922719942029
 30
1263.0
 10
2.8990180506913323
 20
18.162437787006525
 30
1263.0
 10
2.8960737960721477
 20
17.497899121665693
 30
1263.0
 10
2.893211852891757
 20
16.85193871831416
 30
1263.0
 10
2.890430872787052
 20
16.224252242057073
 30
1263.0
 10
2.887729507394926
 20
15.614535357999587
 30
1263.0
 10
2.885106408352271
 20
15.022483731246824
 30
1263.0
 10
2.882560227295979
 20
14.447793026903893
 30
1263.0
 10
2.876258966815517
 20
13.025554881342263
 30
1263.0
 10
2.8724284164455445
 20
12.160973124784768
 30
1263.0
 10
2.8685979660291037
 20
11.296413928463764
 30
1263.0
 10
2.8647676292414075
 20
10.431880378898711
 30
1263.0
 10
2.860937439574695
 20
9.567380035559886
 30
1263.0
 10
2.8571074483482697
 20
8.702924481608378
 30
1263.0
 10
2.853277731308384
 20
7.838530813423173
 30
1263.0
 10
2.8475478495480804
 20
6.5452568035119505
 30
1263.0
 10
2.84564739717975
 20
6.116311537651043
 30
1263.0
 10
2.8437470671997276
 20
5.687393895673843
 30
1263.0
 10
2.841846876770637
 20
5.258507751313147
 30
1263.0
 10
2.839946866011425
 20
4.829662159689843
 30
1263.0
 10
2.8380470960285606
 20
4.400870912952186
 30
1263.0
 10
2.8361476565958257
 20
3.972154273671592
 30
1263.0
 10
2.833356362949539
 20
3.3421399596271932
 30
1263.0
 10
2.832464144348797
 20
3.1407600401570903
 30
1263.0
 10
2.8315720546473178
 20
2.939409214123053
 30
1263.0
 10
2.8306801133753834
 20
2.7380918896869275
 30
1263.0
 10
2.8297883574864575
 20
2.53681640748205
 30
1263.0
 10
2.8288968412307307
 20
2.3355950121295663
 30
1263.0
 10
2.828005642065075
 20
2.1344451862189615
 30
1263.0
 10
2.826510948925381
 20
1.7970825893585243
 30
1263.0
 10
2.8259072929092404
 20
1.6608332443576614
 30
1263.0
 10
2.825303884823695
 20
1.524639859172197
 30
1263.0
 10
2.8247007610951647
 20
1.3885106549526824
 30
1263.0
 10
2.82409800124121
 20
1.2524635802525097
 30
1263.0
 10
2.8234957987170315
 20
1.1165422983445694
 30
1263.0
 10
2.822894396460775
 20
0.9808016426280233
 30
1263.0
 10
2.822071345479582
 20
0.7950333340770471
 30
1263.0
 10
2.8218584738341024
 20
0.7469867289177613
 30
1263.0
 10
2.821655449396191
 20
0.7011627067285431
 30
1263.0
 10
2.821462004522019
 20
0.6575008584418878
 30
1263.0
 10
2.8212778715677485
 20
0.6159407749901851
 30
1263.0
 10
2.8211027828895454
 20
0.5764220473057182
 30
1263.0
 10
2.820936470843575
 20
0.5388842663206646
 30
1263.0
 10
2.8205532348466122
 20
0.45238524674793723
 30
1263.0
 10
2.820345167189669
 20
0.40542293508358024
 30
1263.0
 10
2.8201536845124475
 20
0.36220396824311396
 30
1263.0
 10
2.819978006512225
 20
0.32255222649567405
 30
1263.0
 10
2.819817352886274
 20
0.28629159011044125
 30
1263.0
 10
2.819670943331871
 20
0.2532459393566414
 30
1263.0
 10
2.8195379975462926
 20
0.22323915450354548
 30
1263.0
 10
2.8192854466753903
 20
0.16623667326879857
 30
1263.0
 10
2.8191685051179465
 20
0.13984215358284555
 30
1263.0
 10
2.8190658719715587
 20
0.11667714140076106
 30
1263.0
 10
2.818976508653299
 20
0.09650722136074827
 30
1263.0
 10
2.8188993765802426
 20
0.0790979781010626
 30
1263.0
 10
2.818833437169463
 20
0.06421499626001191
 30
1263.0
 10
2.8187776518380345
 20
0.051623860475956455
 30
1263.0
 10
2.8186874118147616
 20
0.03125606204065079
 30
1263.0
 10
2.8186471452162927
 20
0.022167611800483655
 30
1263.0
 10
2.8186128011173874
 20
0.014415910736996551
 30
1263.0
 10
2.818586207535135
 20
0.00841355498636176
 30
1263.0
 10
2.8185681040532797
 20
0.004327473713651386
 30
1263.0
 10
2.8185576343418735
 20
0.0019643873090586794
 30
1263.0
 10
2.8185524468061227
 20
0.0007935245535577451
 30
1263.0
 10
2.8185479967512865
 20
-0.00021088365308941093
 30
1263.0
 10
2.818549540590121
 20
-5.126939561961308e-05
 30
1263.0
 10
2.8185483021145243
 20
0.0002505434222932479
 30
1263.0
 10
2.8185476960737916
 20
0.00022874599122246764
 30
1263.0
 10
2.8185517071328996
 20
-0.0006682732061733532
 30
1263.0
 10
2.818562295700659
 20
-0.0029853230084952997
 30
1263.0
 10
2.818580191559987
 20
-0.007055707716130399
 30
1263.0
 10
2.818629062948542
 20
-0.018086318693789846
 30
1263.0
 10
2.81865981899959
 20
-0.025028172493348072
 30
1263.0
 10
2.818699278121606
 20
-0.033934369705014386
 30
1263.0
 10
2.8187487886776954
 20
-0.045109245223609866
 30
1263.0
 10
2.8188096990309677
 20
-0.058857133943971816
 30
1263.0
 10
2.81888335754453
 20
-0.0754823707609538
 30
1263.0
 10
2.8189711125814894
 20
-0.09528929056942559
 30
1263.0
 10
2.819177512428417
 20
-0.1418751659588082
 30
1263.0
 10
2.819296157238387
 20
-0.16865412153999312
 30
1263.0
 10
2.81943159529797
 20
-0.19922342990237094
 30
1263.0
 10
2.8195851749702707
 20
-0.23388742594060097
 30
1263.0
 10
2.8197582446183995
 20
-0.2729504445494594
 30
1263.0
 10
2.8199521526054636
 20
-0.31671682062383866
 30
1263.0
 10
2.820168247294569
 20
-0.3654908890587478
 30
1263.0
 10
2.8206075685107077
 20
-0.46464873115800737
 30
1263.0
 10
2.820823603767832
 20
-0.5134093853827945
 30
1263.0
 10
2.8210567631229244
 20
-0.5660350671545362
 30
1263.0
 10
2.8213078268787077
 20
-0.6227018962040782
 30
1263.0
 10
2.821577575337907
 20
-0.6835859922622479
 30
1263.0
 10
2.8218667888032467
 20
-0.7488634750598556
 30
1263.0
 10
2.8221762475774512
 20
-0.818710464327694
 30
1263.0
 10
2.8228372163490385
 20
-0.9678956952655114
 30
1263.0
 10
2.8231887263464217
 20
-1.0472339369352892
 30
1263.0
 10
2.8235620422581165
 20
-1.1314939245368612
 30
1263.0
 10
2.8239579443868497
 20
-1.2208517778011423
 30
1263.0
 10
2.824377213035345
 20
-1.3154836164589765
 30
1263.0
 10
2.8248206285063264
 20
-1.4155655602411341
 30
1263.0
 10
2.8252889711025175
 20
-1.5212737288783131
 30
1263.0
 10
2.8267434641494518
 20
-1.8495628862964502
 30
1263.0
 10
2.8277046590159602
 20
-2.066511226814825
 30
1263.0
 10
2.8286663464873567
 20
-2.283570751702811
 30
1263.0
 10
2.8296283850617385
 20
-2.500709522925348
 30
1263.0
 10
2.8305906795313067
 20
-2.7179060514660343
 30
1263.0
 10
2.831553168560402
 20
-2.9351464934828897
 30
1263.0
 10
2.8325158304920923
 20
-3.1524259607742025
 30
1263.0
 10
2.8350748133005848
 20
-3.7300061092792163
 30
1263.0
 10
2.8366713480408645
 20
-4.090355060953463
 30
1263.0
 10
2.838268158975057
 20
-4.450766351496682
 30
1263.0
 10
2.839865177130674
 20
-4.8112244133618844
 30
1263.0
 10
2.841462354523143
 20
-5.171718416088872
 30
1263.0
 10
2.8430596587185466
 20
-5.532241039106346
 30
1263.0
 10
2.8446570731306386
 20
-5.892788538801746
 30
1263.0
 10
2.8496538636934097
 20
-7.020598786575327
 30
1263.0
 10
2.8530535493943043
 20
-7.787931402275106
 30
1263.0
 10
2.8564535150208803
 20
-8.55532719917257
 30
1263.0
 10
2.859853683752709
 20
-9.32276883829374
 30
1263.0
 10
2.8632540034559772
 20
-10.090244552715763
 30
1263.0
 10
2.866654440028655
 20
-10.857746645412504
 30
1263.0
 10
2.8700549792754484
 20
-11.625271912333893
 30
1263.0
 10
2.8757453256244814
 20
-12.90962250602014
 30
1263.0
 10
2.8781077819924947
 20
-13.442845275374328
 30
1263.0
 10
2.8805443370421915
 20
-13.992792630540068
 30
1263.0
 10
2.8830563391366812
 20
-14.559768906412343
 30
1263.0
 10
2.8856451366390705
 20
-15.144078437886046
 30
1263.0
 10
2.8883120779124662
 20
-15.746025559855957
 30
1263.0
 10
2.8910585113199767
 20
-16.365914607216766
 30
1263.0
 10
2.895371304601088
 20
-17.339341929787846
 30
1263.0
 10
2.896856853211084
 20
-17.674635722004204
 30
1263.0
 10
2.8983423993342448
 20
-18.009931188284465
 30
1263.0
 10
2.8998279282788575
 20
-18.345228232010466
 30
1263.0
 10
2.901313442381958
 20
-18.680526763173525
 30
1263.0
 10
2.9027989610093226
 20
-19.015826698374404
 30
1263.0
 10
2.904284520555471
 20
-19.351127960823366
 30
1263.0
 10
2.907588514195966
 20
-20.09681805790919
 30
1263.0
 10
2.909435558074545
 20
-20.513630891288038
 30
1263.0
 10
2.911311342014233
 20
-20.93680847862792
 30
1263.0
 10
2.913215901949854
 20
-21.366290318080175
 30
1263.0
 10
2.915149273816234
 20
-21.802015907796182
 30
1263.0
 10
2.9171114935481994
 20
-22.243924745927405
 30
1263.0
 10
2.919102597080578
 20
-22.69195633062537
 30
1263.0
 10
2.9305920357362765
 20
-25.274740044379243
 30
1263.0
 10
2.940104517269708
 20
-27.403460810868403
 30
1263.0
 10
2.9496818339905673
 20
-29.532203028192775
 30
1263.0
 10
2.9593350237300493
 20
-31.660961403955866
 30
1263.0
 10
2.969072207891377
 20
-33.78973226766623
 30
1263.0
 10
2.978900184021129
 20
-35.918513047870434
 30
1263.0
 10
2.9888239353790884
 20
-38.04730240853628
 30
1263.0
 10
3.019217734861316
 20
-44.50186660370005
 30
1263.0
 10
3.0400022257401
 20
-48.827662839891964
 30
1263.0
 10
3.0612400017868846
 20
-53.153478394924036
 30
1263.0
 10
3.08295873735451
 20
-57.47930763396748
 30
1263.0
 10
3.105185256454729
 20
-61.805146556622596
 30
1263.0
 10
3.1279476513056776
 20
-66.13099221763012
 30
1263.0
 10
3.151275004666573
 20
-70.45684287008505
 30
1263.0
 10
3.188088650982118
 20
-77.11307900193356
 30
1263.0
 10
3.201150726352583
 20
-79.44346155788122
 30
1263.0
 10
3.214391322715227
 20
-81.7738447732718
 30
1263.0
 10
3.227815779800427
 20
-84.10422839795967
 30
1263.0
 10
3.2414297445605293
 20
-86.4346122009379
 30
1263.0
 10
3.255239226325959
 20
-88.76499596628913
 30
1263.0
 10
3.269250651961308
 20
-91.09537948913638
 30
1263.0
 10
3.300281693720684
 20
-96.18067108532789
 30
1263.0
 10
3.3173843201635993
 20
-98.93557897563618
 30
1263.0
 10
3.3347902438328183
 20
-101.69048591698888
 30
1263.0
 10
3.3525117848310346
 20
-104.44539158753486
 30
1263.0
 10
3.370562360142798
 20
-107.20029566387271
 30
1263.0
 10
3.388956703896297
 20
-109.95519781582202
 30
1263.0
 10
3.407711087625141
 20
-112.71009770119419
 30
1263.0
 10
3.4459736630521087
 20
-118.21955666620732
 30
1263.0
 10
3.465482566508296
 20
-120.97411573288039
 30
1263.0
 10
3.4853522886084467
 20
-123.7286720517503
 30
1263.0
 10
3.505566594430622
 20
-126.48322550688209
 30
1263.0
 10
3.5261107665709344
 20
-129.23777597303086
 30
1263.0
 10
3.546971395293268
 20
-131.99232331343427
 30
1263.0
 10
3.568136168679001
 20
-134.74686737760487
 30
1263.0
 10
3.6387062686110325
 20
-143.80608957950872
 30
1263.0
 10
3.6893523492601403
 20
-150.11075133000102
 30
1263.0
 10
3.741395547031726
 20
-156.4153931303533
 30
1263.0
 10
3.7947237738706603
 20
-162.7200127551613
 30
1263.0
 10
3.8492446713943025
 20
-169.02460688383175
 30
1263.0
 10
3.904869583634329
 20
-175.3291678610096
 30
1263.0
 10
3.9615247553454007
 20
-181.63368687297927
 30
1263.0
 10
4.039935694166254
 20
-190.21912820182112
 30
1263.0
 10
4.060888862710819
 20
-192.50010547649532
 30
1263.0
 10
4.081957726565802
 20
-194.78107291627668
 30
1263.0
 10
4.103136864094246
 20
-197.06202926999168
 30
1263.0
 10
4.1244191879424745
 20
-199.3429721724784
 30
1263.0
 10
4.145796349333238
 20
-201.62389824295445
 30
1263.0
 10
4.167257212770872
 20
-203.90480261614647
 30
1263.0
 10
4.196422572201231
 20
-206.99550716359664
 30
1263.0
 10
4.203909222885209
 20
-207.78803647589908
 30
1263.0
 10
4.211235742157458
 20
-208.5629530022781
 30
1263.0
 10
4.2183988443232305
 20
-209.31994928209315
 30
1263.0
 10
4.225391791963436
 20
-210.05872136546907
 30
1263.0
 10
4.232213344943945
 20
-210.7789700653266
 30
1263.0
 10
4.238856229008804
 20
-211.48039940767188
 30
1263.0
 10
4.251780462643203
 20
-212.8450896791034
 30
1263.0
 10
4.25806427812388
 20
-213.50860769468062
 30
1263.0
 10
4.264172419296379
 20
-214.15357598219705
 30
1263.0
 10
4.270107763923006
 20
-214.78029840912643
 30
1263.0
 10
4.27587318976607
 20
-215.38907884294255
 30
1263.0
 10
4.28147157458788
 20
-215.98022115111928
 30
1263.0
 10
4.286905796150744
 20
-216.55402920113053
 30
1263.0
 10
4.300354350273808
 20
-217.97408330226642
 30
1263.0
 10
4.308529757093185
 20
-218.83733743918623
 30
1263.0
 10
4.3167049499449455
 20
-219.7005689829236
 30
1263.0
 10
4.324879899552446
 20
-220.56377484211825
 30
1263.0
 10
4.333054534220622
 20
-221.42694744637183
 30
1263.0
 10
4.341228744092507
 20
-222.29007519570976
 30
1263.0
 10
4.349402367017939
 20
-223.15314096844597
 30
1263.0
 10
4.36163144363422
 20
-224.44442851082
 30
1263.0
 10
4.365687513084341
 20
-224.8727152994542
 30
1263.0
 10
4.369743320542307
 20
-225.30097442392176
 30
1263.0
 10
4.373798829263996
 20
-225.72920200435362
 30
1263.0
 10
4.3778539533702725
 20
-226.15738897263603
 30
1263.0
 10
4.381908562054747
 20
-226.58552151671466
 30
1263.0
 10
4.385962463138183
 20
-227.0135793440807
 30
1263.0
 10
4.391919817024414
 20
-227.64262576354307
 30
1263.0
 10
4.393824049854852
 20
-227.84369671999218
 30
1263.0
 10
4.3957280067545526
 20
-228.04473854047845
 30
1263.0
 10
4.397631645914432
 20
-228.2457468103139
 30
1263.0
 10
4.399534888230916
 20
-228.4467131768278
 30
1263.0
 10
4.401437617574751
 20
-228.6476253777487
 30
1263.0
 10
4.4033396681393775
 20
-228.8484659052989
 30
1263.0
 10
4.406529739807535
 20
-229.1853106184057
 30
1263.0
 10
4.407818107801483
 20
-229.32135143267004
 30
1263.0
 10
4.4091059450481715
 20
-229.4573362044911
 30
1263.0
 10
4.410393173597593
 20
-229.5932567030064
 30
1263.0
 10
4.411679623177355
 20
-229.72909494888188
 30
1263.0
 10
4.412964879743061
 20
-229.86480722251696
 30
1263.0
 10
4.41424842323952
 20
-230.00033861046037
 30
1263.0
 10
4.416005015182282
 20
-230.18581993205962
 30
1263.0
 10
4.416459339387992
 20
-230.2337927435349
 30
1263.0
 10
4.41689264705696
 20
-230.27954638565458
 30
1263.0
 10
4.417305509411685
 20
-230.3231411747052
 30
1263.0
 10
4.41769849767466
 20
-230.36463742697367
 30
1263.0
 10
4.418072183068384
 20
-230.40409545874675
 30
1263.0
 10
4.418427136815349
 20
-230.44157558631116
 30
1263.0
 10
4.419245063456192
 20
-230.52794175401434
 30
1263.0
 10
4.419689134684003
 20
-230.57483193733654
 30
1263.0
 10
4.4200978091931855
 20
-230.61798452515265
 30
1263.0
 10
4.4204727523554475
 20
-230.65757536669526
 30
1263.0
 10
4.420815629542494
 20
-230.6937803111969
 30
1263.0
 10
4.421128106126033
 20
-230.72677520789009
 30
1263.0
 10
4.421411847477769
 20
-230.75673590600744
 30
1263.0
 10
4.421950857610214
 20
-230.81365083843255
 30
1263.0
 10
4.422200441720301
 20
-230.84000481937846
 30
1263.0
 10
4.422419487909412
 20
-230.8631342529473
 30
1263.0
 10
4.422610212787291
 20
-230.88327319446776
 30
1263.0
 10
4.4227748329636745
 20
-230.9006556992682
 30
1263.0
 10
4.422915565048305
 20
-230.91551582267718
 30
1263.0
 10
4.423034625650923
 20
-230.92808762002318
 30
1263.0
 10
4.423206671912432
 20
-230.94625425689765
 30
1263.0
 10
4.423268822263219
 20
-230.95281681073908
 30
1263.0
 10
4.423321535103944
 20
-230.95838284296602
 30
1263.0
 10
4.4233656631049225
 20
-230.96304238838562
 30
1263.0
 10
4.423402058936467
 20
-230.96688548180475
 30
1263.0
 10
4.423431575268889
 20
-230.97000215803055
 30
1263.0
 10
4.423455064772504
 20
-230.97248245187018
 30
1263.0
 10
4.423502385729862
 20
-230.97747914660417
 30
1263.0
 10
4.423637988323307
 20
-230.97850593949437
 30
1263.0
 10
4.4237148957406625
 20
-230.97864248452092
 30
1263.0
 10
4.423654801487021
 20
-230.97865678841376
 30
1263.0
 10
4.423466384729882
 20
-230.9789391569126
 30
1263.0
 10
4.423245310299139
 20
-230.9795021947671
 30
1263.0
 10
4.423174228687083
 20
-230.97998080573666
 30
1263.0
 10
4.4235227760484035
 20
-230.97963219259057
 30
1263.0
  0
ENDSEC
  0
SECTION
  2
OBJECTS
  0
DICTIONARY
  5
A
330
0
100
AcDbDictionary
281
1
  3
ACAD_COLOR
350
B
  3
ACAD_GROUP
350
C
  3
ACAD_LAYOUT
350
D
  3
ACAD_MATERIAL
350
E
  3
ACAD_MLEADERSTYLE
350
F
  3
ACAD_MLINESTYLE
350
10
  3
ACAD_PLOTSETTINGS
350
11
  3
ACAD_PLOTSTYLENAME
350
12
  3
ACAD_SCALELIST
350
14
  3
ACAD_TABLESTYLE
350
15
  3
ACAD_VISUALSTYLE
350
16
  3
EZDXF_META
350
2D
  0
DICTIONARY
  5
B
330
A
100
AcDbDictionary
281
1
  0
DICTIONARY
  5
C
330
A
100
AcDbDictionary
281
1
  0
DICTIONARY
  5
D
330
A
100
AcDbDictionary
281
1
  3
Model
350
1A
  3
Layout1
350
1E
  0
DICTIONARY
  5
E
330
A
100
AcDbDictionary
281
1
  3
ByBlock
350
1F
  3
ByLayer
350
20
  3
Global
350
21
  0
DICTIONARY
  5
F
330
A
100
AcDbDictionary
281
1
  3
Standard
350
2C
  0
DICTIONARY
  5
10
330
A
100
AcDbDictionary
281
1
  3
Standard
350
22
  0
DICTIONARY
  5
11
330
A
100
AcDbDictionary
281
1
  0
ACDBDICTIONARYWDFLT
  5
12
330
A
100
AcDbDictionary
281
1
  3
Normal
350
13
100
AcDbDictionaryWithDefault
340
13
  0
ACDBPLACEHOLDER
  5
13
330
12
  0
DICTIONARY
  5
14
330
A
100
AcDbDictionary
281
1
  0
DICTIONARY
  5
15
330
A
100
AcDbDictionary
281
1
  0
DICTIONARY
  5
16
330
A
100
AcDbDictionary
281
1
  0
LAYOUT
  5
1A
330
D
100
AcDbPlotSettings
  1

  2
Adobe PDF
  4
A3
  6

 40
7.5
 41
20.0
 42
7.5
 43
20.0
 44
420.0
 45
297.0
 46
0.0
 47
0.0
 48
0.0
 49
0.0
140
0.0
141
0.0
142
1.0
143
1.0
 70
1024
 72
1
 73
1
 74
5
  7

 75
16
 76
0
 77
2
 78
300
147
1.0
148
0.0
149
0.0
100
AcDbLayout
  1
Model
 70
1
 71
0
 10
0.0
 20
0.0
 11
420.0
 21
297.0
 12
0.0
 22
0.0
 32
0.0
 14
1e+20
 24
1e+20
 34
1e+20
 15
-1e+20
 25
-1e+20
 35
-1e+20
146
0.0
 13
0.0
 23
0.0
 33
0.0
 16
1.0
 26
0.0
 36
0.0
 17
0.0
 27
1.0
 37
0.0
 76
1
330
17
  0
LAYOUT
  5
1E
330
D
100
AcDbPlotSettings
  1

  2
Adobe PDF
  4
A3
  6

 40
7.5
 41
20.0
 42
7.5
 43
20.0
 44
420.0
 45
297.0
 46
0.0
 47
0.0
 48
0.0
 49
0.0
140
0.0
141
0.0
142
1.0
143
1.0
 70
0
 72
1
 73
1
 74
5
  7

 75
16
 76
0
 77
2
 78
300
147
1.0
148
0.0
149
0.0
100
AcDbLayout
  1
Layout1
 70
1
 71
1
 10
0.0
 20
0.0
 11
420.0
 21
297.0
 12
0.0
 22
0.0
 32
0.0
 14
1e+20
 24
1e+20
 34
1e+20
 15
-1e+20
 25
-1e+20
 35
-1e+20
146
0.0
 13
0.0
 23
0.0
 33
0.0
 16
1.0
 26
0.0
 36
0.0
 17
0.0
 27
1.0
 37
0.0
 76
1
330
1B
  0
MATERIAL
  5
1F
102
{ACAD_REACTORS
330
E
102
}
330
E
100
AcDbMaterial
  1
ByBlock
  2

 70
0
 40
1.0
 71
1
 41
1.0
 91
-1023410177
 42
1.0
 72
1
  3

 73
1
 74
1
 75
1
 44
0.5
 73
0
 45
1.0
 46
1.0
 77
1
  4

 78
1
 79
1
170
1
 48
1.0
171
1
  6

172
1
173
1
174
1
140
1.0
141
1.0
175
1
  7

176
1
177
1
178
1
143
1.0
179
1
  8

270
1
271
1
272
1
145
1.0
146
1.0
273
1
  9

274
1
275
1
276
1
 42
1.0
 72
1
  3

 73
1
 74
1
 75
1
 94
63
  0
MATERIAL
  5
20
102
{ACAD_REACTORS
330
E
102
}
330
E
100
AcDbMaterial
  1
ByLayer
  2

 70
0
 40
1.0
 71
1
 41
1.0
 91
-1023410177
 42
1.0
 72
1
  3

 73
1
 74
1
 75
1
 44
0.5
 73
0
 45
1.0
 46
1.0
 77
1
  4

 78
1
 79
1
170
1
 48
1.0
171
1
  6

172
1
173
1
174
1
140
1.0
141
1.0
175
1
  7

176
1
177
1
178
1
143
1.0
179
1
  8

270
1
271
1
272
1
145
1.0
146
1.0
273
1
  9

274
1
275
1
276
1
 42
1.0
 72
1
  3

 73
1
 74
1
 75
1
 94
63
  0
MATERIAL
  5
21
102
{ACAD_REACTORS
330
E
102
}
330
E
100
AcDbMaterial
  1
Global
  2

 70
0
 40
1.0
 71
1
 41
1.0
 91
-1023410177
 42
1.0
 72
1
  3

 73
1
 74
1
 75
1
 44
0.5
 73
0
 45
1.0
 46
1.0
 77
1
  4

 78
1
 79
1
170
1
 48
1.0
171
1
  6

172
1
173
1
174
1
140
1.0
141
1.0
175
1
  7

176
1
177
1
178
1
143
1.0
179
1
  8

270
1
271
1
272
1
145
1.0
146
1.0
273
1
  9

274
1
275
1
276
1
 42
1.0
 72
1
  3

 73
1
 74
1
 75
1
 94
63
  0
MLINESTYLE
  5
22
102
{ACAD_REACTORS
330
10
102
}
330
10
100
AcDbMlineStyle
  2
Standard
 70
0
  3

 62
256
 51
90.0
 52
90.0
 71
2
 49
0.5
 62
256
  6
BYLAYER
 49
-0.5
 62
256
  6
BYLAYER
  0
MLEADERSTYLE
  5
2C
102
{ACAD_REACTORS
330
F
102
}
330
F
100
AcDbMLeaderStyle
179
2
170
2
171
1
172
0
 90
2
 40
0.0
 41
0.0
173
1
 91
-1056964608
 92
-2
290
1
 42
2.0
291
1
 43
8.0
  3
Standard
 44
4.0
300

342
29
174
1
175
1
176
0
178
1
 93
-1056964608
 45
4.0
292
0
297
0
 46
4.0
 94
-1056964608
 47
1.0
 49
1.0
140
1.0
294
1
141
0.0
177
0
142
1.0
295
0
296
0
143
3.75
271
0
272
9
273
9
  0
DICTIONARY
  5
2D
330
A
100
AcDbDictionary
280
1
281
1
  3
CREATED_BY_EZDXF
350
2E
  3
WRITTEN_BY_EZDXF
350
80
  0
DICTIONARYVAR
  5
2E
330
2D
100
DictionaryVariables
280
0
  1
0.17 @ 2022-02-15T16:37:01.793101+00:00
  0
DICTIONARYVAR
  5
80
330
2D
100
DictionaryVariables
280
0
  1
0.17 @ 2022-02-15T16:37:01.890984+00:00
  0
ENDSEC
  0
EOF
