  0
SECTION
  2
HEADER
  9
$ACADVER
  1
AC1027
  9
$ACADMAINTVER
 70
105
  9
$DWGCODEPAGE
  3
ANSI_1252
  9
$LASTSAVEDBY
  1
ezdxf
  9
$REQUIREDVERSIONS
160
0
  9
$INSBASE
 10
0.0
 20
0.0
 30
0.0
  9
$EXTMIN
 10
1e+20
 20
1e+20
 30
1e+20
  9
$EXTMAX
 10
-1e+20
 20
-1e+20
 30
-1e+20
  9
$LIMMIN
 10
0.0
 20
0.0
  9
$LIMMAX
 10
420.0
 20
297.0
  9
$ORTHOMODE
 70
0
  9
$REGENMODE
 70
1
  9
$FILLMODE
 70
1
  9
$QTEXTMODE
 70
0
  9
$MIRRTEXT
 70
1
  9
$LTSCALE
 40
1.0
  9
$ATTMODE
 70
1
  9
$TEXTSIZE
 40
2.5
  9
$TRACEWID
 40
1.0
  9
$TEXTSTYLE
  7
Standard
  9
$CLAYER
  8
0
  9
$CELTYPE
  6
ByLayer
  9
$CECOLOR
 62
256
  9
$CELTSCALE
 40
1.0
  9
$DISPSILH
 70
0
  9
$DIMSCALE
 40
1.0
  9
$DIMASZ
 40
2.5
  9
$DIMEXO
 40
0.625
  9
$DIMDLI
 40
3.75
  9
$DIMRND
 40
0.0
  9
$DIMDLE
 40
0.0
  9
$DIMEXE
 40
1.25
  9
$DIMTP
 40
0.0
  9
$DIMTM
 40
0.0
  9
$DIMTXT
 40
2.5
  9
$DIMCEN
 40
2.5
  9
$DIMTSZ
 40
0.0
  9
$DIMTOL
 70
0
  9
$DIMLIM
 70
0
  9
$DIMTIH
 70
0
  9
$DIMTOH
 70
0
  9
$DIMSE1
 70
0
  9
$DIMSE2
 70
0
  9
$DIMTAD
 70
1
  9
$DIMZIN
 70
8
  9
$DIMBLK
  1

  9
$DIMASO
 70
1
  9
$DIMSHO
 70
1
  9
$DIMPOST
  1

  9
$DIMAPOST
  1

  9
$DIMALT
 70
0
  9
$DIMALTD
 70
3
  9
$DIMALTF
 40
0.03937007874
  9
$DIMLFAC
 40
1.0
  9
$DIMTOFL
 70
1
  9
$DIMTVP
 40
0.0
  9
$DIMTIX
 70
0
  9
$DIMSOXD
 70
0
  9
$DIMSAH
 70
0
  9
$DIMBLK1
  1

  9
$DIMBLK2
  1

  9
$DIMSTYLE
  2
ISO-25
  9
$DIMCLRD
 70
0
  9
$DIMCLRE
 70
0
  9
$DIMCLRT
 70
0
  9
$DIMTFAC
 40
1.0
  9
$DIMGAP
 40
0.625
  9
$DIMJUST
 70
0
  9
$DIMSD1
 70
0
  9
$DIMSD2
 70
0
  9
$DIMTOLJ
 70
0
  9
$DIMTZIN
 70
8
  9
$DIMALTZ
 70
0
  9
$DIMALTTZ
 70
0
  9
$DIMUPT
 70
0
  9
$DIMDEC
 70
2
  9
$DIMTDEC
 70
2
  9
$DIMALTU
 70
2
  9
$DIMALTTD
 70
3
  9
$DIMTXSTY
  7
Standard
  9
$DIMAUNIT
 70
0
  9
$DIMADEC
 70
0
  9
$DIMALTRND
 40
0.0
  9
$DIMAZIN
 70
0
  9
$DIMDSEP
 70
44
  9
$DIMATFIT
 70
3
  9
$DIMFRAC
 70
0
  9
$DIMLDRBLK
  1

  9
$DIMLUNIT
 70
2
  9
$DIMLWD
 70
-2
  9
$DIMLWE
 70
-2
  9
$DIMTMOVE
 70
0
  9
$DIMFXL
 40
1.0
  9
$DIMFXLON
 70
0
  9
$DIMJOGANG
 40
0.785398163397
  9
$DIMTFILL
 70
0
  9
$DIMTFILLCLR
 70
0
  9
$DIMARCSYM
 70
0
  9
$DIMLTYPE
  6

  9
$DIMLTEX1
  6

  9
$DIMLTEX2
  6

  9
$DIMTXTDIRECTION
 70
0
  9
$LUNITS
 70
2
  9
$LUPREC
 70
4
  9
$SKETCHINC
 40
1.0
  9
$FILLETRAD
 40
10.0
  9
$AUNITS
 70
0
  9
$AUPREC
 70
2
  9
$MENU
  1
.
  9
$ELEVATION
 40
0.0
  9
$PELEVATION
 40
0.0
  9
$THICKNESS
 40
0.0
  9
$LIMCHECK
 70
0
  9
$CHAMFERA
 40
0.0
  9
$CHAMFERB
 40
0.0
  9
$CHAMFERC
 40
0.0
  9
$CHAMFERD
 40
0.0
  9
$SKPOLY
 70
0
  9
$TDCREATE
 40
2459626.7340625
  9
$TDUCREATE
 40
2458532.153996898
  9
$TDUPDATE
 40
2459626.7340625
  9
$TDUUPDATE
 40
2458532.1544311
  9
$TDINDWG
 40
0.0
  9
$TDUSRTIMER
 40
0.0
  9
$USRTIMER
 70
1
  9
$ANGBASE
 50
0.0
  9
$ANGDIR
 70
0
  9
$PDMODE
 70
0
  9
$PDSIZE
 40
0.0
  9
$PLINEWID
 40
0.0
  9
$SPLFRAME
 70
0
  9
$SPLINETYPE
 70
6
  9
$SPLINESEGS
 70
8
  9
$HANDSEED
  5
81
  9
$SURFTAB1
 70
6
  9
$SURFTAB2
 70
6
  9
$SURFTYPE
 70
6
  9
$SURFU
 70
6
  9
$SURFV
 70
6
  9
$UCSBASE
  2

  9
$UCSNAME
  2

  9
$UCSORG
 10
0.0
 20
0.0
 30
0.0
  9
$UCSXDIR
 10
1.0
 20
0.0
 30
0.0
  9
$UCSYDIR
 10
0.0
 20
1.0
 30
0.0
  9
$UCSORTHOREF
  2

  9
$UCSORTHOVIEW
 70
0
  9
$UCSORGTOP
 10
0.0
 20
0.0
 30
0.0
  9
$UCSORGBOTTOM
 10
0.0
 20
0.0
 30
0.0
  9
$UCSORGLEFT
 10
0.0
 20
0.0
 30
0.0
  9
$UCSORGRIGHT
 10
0.0
 20
0.0
 30
0.0
  9
$UCSORGFRONT
 10
0.0
 20
0.0
 30
0.0
  9
$UCSORGBACK
 10
0.0
 20
0.0
 30
0.0
  9
$PUCSBASE
  2

  9
$PUCSNAME
  2

  9
$PUCSORG
 10
0.0
 20
0.0
 30
0.0
  9
$PUCSXDIR
 10
1.0
 20
0.0
 30
0.0
  9
$PUCSYDIR
 10
0.0
 20
1.0
 30
0.0
  9
$PUCSORTHOREF
  2

  9
$PUCSORTHOVIEW
 70
0
  9
$PUCSORGTOP
 10
0.0
 20
0.0
 30
0.0
  9
$PUCSORGBOTTOM
 10
0.0
 20
0.0
 30
0.0
  9
$PUCSORGLEFT
 10
0.0
 20
0.0
 30
0.0
  9
$PUCSORGRIGHT
 10
0.0
 20
0.0
 30
0.0
  9
$PUCSORGFRONT
 10
0.0
 20
0.0
 30
0.0
  9
$PUCSORGBACK
 10
0.0
 20
0.0
 30
0.0
  9
$USERI1
 70
0
  9
$USERI2
 70
0
  9
$USERI3
 70
0
  9
$USERI4
 70
0
  9
$USERI5
 70
0
  9
$USERR1
 40
0.0
  9
$USERR2
 40
0.0
  9
$USERR3
 40
0.0
  9
$USERR4
 40
0.0
  9
$USERR5
 40
0.0
  9
$WORLDVIEW
 70
1
  9
$SHADEDGE
 70
3
  9
$SHADEDIF
 70
70
  9
$TILEMODE
 70
1
  9
$MAXACTVP
 70
64
  9
$PINSBASE
 10
0.0
 20
0.0
 30
0.0
  9
$PLIMCHECK
 70
0
  9
$PEXTMIN
 10
1e+20
 20
1e+20
 30
1e+20
  9
$PEXTMAX
 10
-1e+20
 20
-1e+20
 30
-1e+20
  9
$PLIMMIN
 10
0.0
 20
0.0
  9
$PLIMMAX
 10
420.0
 20
297.0
  9
$UNITMODE
 70
0
  9
$VISRETAIN
 70
1
  9
$PLINEGEN
 70
0
  9
$PSLTSCALE
 70
1
  9
$TREEDEPTH
 70
3020
  9
$CMLSTYLE
  2
Standard
  9
$CMLJUST
 70
0
  9
$CMLSCALE
 40
20.0
  9
$PROXYGRAPHICS
 70
1
  9
$MEASUREMENT
 70
1
  9
$CELWEIGHT
370
-1
  9
$ENDCAPS
280
0
  9
$JOINSTYLE
280
0
  9
$LWDISPLAY
290
0
  9
$INSUNITS
 70
6
  9
$HYPERLINKBASE
  1

  9
$STYLESHEET
  1

  9
$XEDIT
290
1
  9
$CEPSNTYPE
380
0
  9
$PSTYLEMODE
290
1
  9
$FINGERPRINTGUID
  2
{F0112595-6CDB-4BE6-807A-B2AC4502D5DA}
  9
$VERSIONGUID
  2
{BBE67C50-06E3-4A9C-AEF6-BEC19D1D4326}
  9
$EXTNAMES
290
1
  9
$PSVPSCALE
 40
0.0
  9
$OLESTARTUP
290
0
  9
$SORTENTS
280
127
  9
$INDEXCTL
280
0
  9
$HIDETEXT
280
1
  9
$XCLIPFRAME
280
0
  9
$HALOGAP
280
0
  9
$OBSCOLOR
 70
257
  9
$OBSLTYPE
280
0
  9
$INTERSECTIONDISPLAY
280
0
  9
$INTERSECTIONCOLOR
 70
257
  9
$DIMASSOC
280
2
  9
$PROJECTNAME
  1

  9
$CAMERADISPLAY
290
0
  9
$LENSLENGTH
 40
50.0
  9
$CAMERAHEIGHT
 40
0.0
  9
$STEPSPERSEC
 40
24.0
  9
$STEPSIZE
 40
100.0
  9
$3DDWFPREC
 40
2.0
  9
$PSOLWIDTH
 40
0.005
  9
$PSOLHEIGHT
 40
0.08
  9
$LOFTANG1
 40
1.570796326795
  9
$LOFTANG2
 40
1.570796326795
  9
$LOFTMAG1
 40
0.0
  9
$LOFTMAG2
 40
0.0
  9
$LOFTPARAM
 70
7
  9
$LOFTNORMALS
280
1
  9
$LATITUDE
 40
37.795
  9
$LONGITUDE
 40
-122.394
  9
$NORTHDIRECTION
 40
0.0
  9
$TIMEZONE
 70
-8000
  9
$LIGHTGLYPHDISPLAY
280
1
  9
$TILEMODELIGHTSYNCH
280
1
  9
$CMATERIAL
347
20
  9
$SOLIDHIST
280
0
  9
$SHOWHIST
280
1
  9
$DWFFRAME
280
2
  9
$DGNFRAME
280
2
  9
$REALWORLDSCALE
290
1
  9
$INTERFERECOLOR
 62
256
  9
$CSHADOW
280
0
  9
$SHADOWPLANELOCATION
 40
0.0
  0
ENDSEC
  0
SECTION
  2
CLASSES
  0
CLASS
  1
ACDBDICTIONARYWDFLT
  2
AcDbDictionaryWithDefault
  3
ObjectDBX Classes
 90
0
 91
0
280
0
281
0
  0
CLASS
  1
SUN
  2
AcDbSun
  3
SCENEOE
 90
1153
 91
0
280
0
281
0
  0
CLASS
  1
VISUALSTYLE
  2
AcDbVisualStyle
  3
ObjectDBX Classes
 90
4095
 91
0
280
0
281
0
  0
CLASS
  1
MATERIAL
  2
AcDbMaterial
  3
ObjectDBX Classes
 90
1153
 91
0
280
0
281
0
  0
CLASS
  1
SCALE
  2
AcDbScale
  3
ObjectDBX Classes
 90
1153
 91
0
280
0
281
0
  0
CLASS
  1
TABLESTYLE
  2
AcDbTableStyle
  3
ObjectDBX Classes
 90
4095
 91
0
280
0
281
0
  0
CLASS
  1
MLEADERSTYLE
  2
AcDbMLeaderStyle
  3
ACDB_MLEADERSTYLE_CLASS
 90
4095
 91
0
280
0
281
0
  0
CLASS
  1
DICTIONARYVAR
  2
AcDbDictionaryVar
  3
ObjectDBX Classes
 90
0
 91
0
280
0
281
0
  0
CLASS
  1
CELLSTYLEMAP
  2
AcDbCellStyleMap
  3
ObjectDBX Classes
 90
1152
 91
0
280
0
281
0
  0
CLASS
  1
MENTALRAYRENDERSETTINGS
  2
AcDbMentalRayRenderSettings
  3
SCENEOE
 90
1024
 91
0
280
0
281
0
  0
CLASS
  1
ACDBDETAILVIEWSTYLE
  2
AcDbDetailViewStyle
  3
ObjectDBX Classes
 90
1025
 91
0
280
0
281
0
  0
CLASS
  1
ACDBSECTIONVIEWSTYLE
  2
AcDbSectionViewStyle
  3
ObjectDBX Classes
 90
1025
 91
0
280
0
281
0
  0
CLASS
  1
RASTERVARIABLES
  2
AcDbRasterVariables
  3
ISM
 90
0
 91
0
280
0
281
0
  0
CLASS
  1
ACDBPLACEHOLDER
  2
AcDbPlaceHolder
  3
ObjectDBX Classes
 90
0
 91
0
280
0
281
0
  0
CLASS
  1
LAYOUT
  2
AcDbLayout
  3
ObjectDBX Classes
 90
0
 91
0
280
0
281
0
  0
ENDSEC
  0
SECTION
  2
TABLES
  0
TABLE
  2
VPORT
  5
8
330
0
100
AcDbSymbolTable
 70
1
  0
VPORT
  5
23
330
8
100
AcDbSymbolTableRecord
100
AcDbViewportTableRecord
  2
*Active
 70
0
 10
0.0
 20
0.0
 11
1.0
 21
1.0
 12
344.2
 22
148.5
 13
0.0
 23
0.0
 14
0.5
 24
0.5
 15
0.5
 25
0.5
 16
0.0
 26
0.0
 36
1.0
 17
0.0
 27
0.0
 37
0.0
 40
297.0
 41
1.34
 42
50.0
 43
0.0
 44
0.0
 50
0.0
 51
0.0
 71
0
 72
1000
 73
1
 74
3
 75
0
 76
0
 77
0
 78
0
281
0
 65
0
146
0.0
  0
ENDTAB
  0
TABLE
  2
LTYPE
  5
2
330
0
100
AcDbSymbolTable
 70
3
  0
LTYPE
  5
24
330
2
100
AcDbSymbolTableRecord
100
AcDbLinetypeTableRecord
  2
ByBlock
 70
0
  3

 72
65
 73
0
 40
0.0
  0
LTYPE
  5
25
330
2
100
AcDbSymbolTableRecord
100
AcDbLinetypeTableRecord
  2
ByLayer
 70
0
  3

 72
65
 73
0
 40
0.0
  0
LTYPE
  5
26
330
2
100
AcDbSymbolTableRecord
100
AcDbLinetypeTableRecord
  2
Continuous
 70
0
  3

 72
65
 73
0
 40
0.0
  0
ENDTAB
  0
TABLE
  2
LAYER
  5
1
330
0
100
AcDbSymbolTable
 70
2
  0
LAYER
  5
27
330
1
100
AcDbSymbolTableRecord
100
AcDbLayerTableRecord
  2
0
 70
0
 62
7
  6
Continuous
370
-3
390
13
347
21
  0
LAYER
  5
28
330
1
100
AcDbSymbolTableRecord
100
AcDbLayerTableRecord
  2
Defpoints
 70
0
 62
7
  6
Continuous
290
0
370
-3
390
13
347
21
  0
ENDTAB
  0
TABLE
  2
STYLE
  5
5
330
0
100
AcDbSymbolTable
 70
1
  0
STYLE
  5
29
330
5
100
AcDbSymbolTableRecord
100
AcDbTextStyleTableRecord
  2
Standard
 70
0
 40
0.0
 41
1.0
 50
0.0
 71
0
 42
2.5
  3
txt
  4

  0
ENDTAB
  0
TABLE
  2
VIEW
  5
7
330
0
100
AcDbSymbolTable
 70
0
  0
ENDTAB
  0
TABLE
  2
UCS
  5
6
330
0
100
AcDbSymbolTable
 70
0
  0
ENDTAB
  0
TABLE
  2
APPID
  5
3
330
0
100
AcDbSymbolTable
 70
3
  0
APPID
  5
2A
330
3
100
AcDbSymbolTableRecord
100
AcDbRegAppTableRecord
  2
ACAD
 70
0
  0
APPID
  5
7E
330
3
100
AcDbSymbolTableRecord
100
AcDbRegAppTableRecord
  2
HATCHBACKGROUNDCOLOR
 70
0
  0
APPID
  5
7F
330
3
100
AcDbSymbolTableRecord
100
AcDbRegAppTableRecord
  2
EZDXF
 70
0
  0
ENDTAB
  0
TABLE
  2
DIMSTYLE
  5
4
330
0
100
AcDbSymbolTable
 70
1
100
AcDbDimStyleTable
  0
DIMSTYLE
105
2B
330
4
100
AcDbSymbolTableRecord
100
AcDbDimStyleTableRecord
  2
Standard
 70
0
 40
1.0
 41
2.5
 42
0.625
 43
3.75
 44
1.25
 45
0.0
 46
0.0
 47
0.0
 48
0.0
 49
2.5
140
2.5
141
2.5
142
0.0
143
0.03937007874
144
1.0
145
0.0
146
1.0
147
0.625
148
0.0
 69
0
 70
0
 71
0
 72
0
 73
0
 74
0
 75
0
 76
0
 77
1
 78
8
 79
0
170
0
171
3
172
1
173
0
174
0
175
0
176
0
177
0
178
0
179
0
271
0
272
2
273
2
274
3
275
0
276
0
277
2
278
44
279
0
280
0
281
0
282
0
283
0
284
8
285
0
286
0
288
0
289
3
290
0
371
-2
372
-2
  0
ENDTAB
  0
TABLE
  2
BLOCK_RECORD
  5
9
330
0
100
AcDbSymbolTable
 70
2
  0
BLOCK_RECORD
  5
17
330
9
100
AcDbSymbolTableRecord
100
AcDbBlockTableRecord
  2
*Model_Space
340
1A
 70
0
280
1
281
0
  0
BLOCK_RECORD
  5
1B
330
9
100
AcDbSymbolTableRecord
100
AcDbBlockTableRecord
  2
*Paper_Space
340
1E
 70
0
280
1
281
0
  0
ENDTAB
  0
ENDSEC
  0
SECTION
  2
BLOCKS
  0
BLOCK
  5
18
330
17
100
AcDbEntity
  8
0
100
AcDbBlockBegin
  2
*Model_Space
 70
0
 10
0.0
 20
0.0
 30
0.0
  3
*Model_Space
  1

  0
ENDBLK
  5
19
330
17
100
AcDbEntity
  8
0
100
AcDbBlockEnd
  0
BLOCK
  5
1C
330
1B
100
AcDbEntity
  8
0
100
AcDbBlockBegin
  2
*Paper_Space
 70
0
 10
0.0
 20
0.0
 30
0.0
  3
*Paper_Space
  1

  0
ENDBLK
  5
1D
330
1B
100
AcDbEntity
  8
0
100
AcDbBlockEnd
  0
ENDSEC
  0
SECTION
  2
ENTITIES
  0
SPLINE
  5
2F
330
17
100
AcDbEntity
  8
0
100
AcDbSpline
 70
0
 71
8
 72
88
 73
79
 74
0
 40
0.0
 40
0.0
 40
0.0
 40
0.0
 40
0.0
 40
0.0
 40
0.0
 40
0.0
 40
0.0
 40
0.03196244375808221
 40
0.03196244375808221
 40
0.03196244375808221
 40
0.03196244375808221
 40
0.03196244375808221
 40
0.03196244375808221
 40
0.03196244375808221
 40
0.1494615482078252
 40
0.1494615482078252
 40
0.1494615482078252
 40
0.1494615482078252
 40
0.1494615482078252
 40
0.1494615482078252
 40
0.1494615482078252
 40
0.24273299668898432
 40
0.24273299668898432
 40
0.24273299668898432
 40
0.24273299668898432
 40
0.24273299668898432
 40
0.24273299668898432
 40
0.24273299668898432
 40
0.3427397513538516
 40
0.3427397513538516
 40
0.3427397513538516
 40
0.3427397513538516
 40
0.3427397513538516
 40
0.3427397513538516
 40
0.3427397513538516
 40
0.3989346669493367
 40
0.3989346669493367
 40
0.3989346669493367
 40
0.3989346669493367
 40
0.3989346669493367
 40
0.3989346669493367
 40
0.3989346669493367
 40
0.46692976592650876
 40
0.46692976592650876
 40
0.46692976592650876
 40
0.46692976592650876
 40
0.46692976592650876
 40
0.46692976592650876
 40
0.46692976592650876
 40
0.49157662976644123
 40
0.49157662976644123
 40
0.49157662976644123
 40
0.49157662976644123
 40
0.49157662976644123
 40
0.49157662976644123
 40
0.49157662976644123
 40
0.5132864523825522
 40
0.5132864523825522
 40
0.5132864523825522
 40
0.5132864523825522
 40
0.5132864523825522
 40
0.5132864523825522
 40
0.5132864523825522
 40
0.6983577465271978
 40
0.6983577465271978
 40
0.6983577465271978
 40
0.6983577465271978
 40
0.6983577465271978
 40
0.6983577465271978
 40
0.6983577465271978
 40
0.7884984484006667
 40
0.7884984484006667
 40
0.7884984484006667
 40
0.7884984484006667
 40
0.7884984484006667
 40
0.7884984484006667
 40
0.7884984484006667
 40
1.0
 40
1.0
 40
1.0
 40
1.0
 40
1.0
 40
1.0
 40
1.0
 40
1.0
 40
1.0
 10
45.73360630526841
 20
235.90000000793384
 30
1289.0
 10
45.63128259598376
 20
236.154670404122
 30
1289.0
 10
45.52885194866623
 20
236.40704803534032
 30
1289.0
 10
45.426315279832
 20
236.65714266929592
 30
1289.0
 10
45.32367350599723
 20
236.90496407369596
 30
1289.0
 10
45.22092754367805
 20
237.15052201624775
 30
1289.0
 10
45.118078309390555
 20
237.39382626465857
 30
1289.0
 10
45.0151267196508
 20
237.63488658663596
 30
1289.0
 10
44.53323411688243
 20
238.75167629089862
 30
1289.0
 10
44.14229010828704
 20
239.62432237763997
 30
1289.0
 10
43.73829783410884
 20
240.4911188222356
 30
1289.0
 10
43.320219882495884
 20
241.351343145967
 30
1289.0
 10
42.88689619016311
 20
242.20406740260728
 30
1289.0
 10
42.43701295471446
 20
243.048142332461
 30
1289.0
 10
41.969044460555935
 20
243.8821676764378
 30
1289.0
 10
41.09384363242394
 20
245.35715627586913
 30
1289.0
 10
40.69406158852289
 20
246.0023371239351
 30
1289.0
 10
40.2808446776669
 20
246.63919152881726
 30
1289.0
 10
39.85319125482779
 20
247.26666126517767
 30
1289.0
 10
39.41004130344112
 20
247.8834104079832
 30
1289.0
 10
38.95025880026941
 20
248.48781271467433
 30
1289.0
 10
38.47260511127339
 20
249.07793235873046
 30
1289.0
 10
37.44291952275613
 20
250.26648192201063
 30
1289.0
 10
36.888198632453395
 20
250.8622129529408
 30
1289.0
 10
36.30977921493719
 20
251.43602329098405
 30
1289.0
 10
35.706129518780266
 20
251.98427656224072
 30
1289.0
 10
35.076042557481166
 20
252.50249296431213
 30
1289.0
 10
34.41874773573994
 20
252.9854906564533
 30
1289.0
 10
33.734165718265174
 20
253.4277028019561
 30
1289.0
 10
32.62406454522275
 20
254.04641776876457
 30
1289.0
 10
32.21649596310084
 20
254.25442300146764
 30
1289.0
 10
31.80108033111646
 20
254.4468314379309
 30
1289.0
 10
31.378270412093862
 20
254.62270748919565
 30
1289.0
 10
30.948633706586264
 20
254.78123328432366
 30
1289.0
 10
30.512868112991413
 20
254.92174930231403
 30
1289.0
 10
30.071818336470105
 20
255.04379624293574
 30
1289.0
 10
29.08765538072808
 20
255.27222465018602
 30
1289.0
 10
28.54236663223846
 20
255.36997963425839
 30
1289.0
 10
27.992464871643385
 20
255.43998954528547
 30
1289.0
 10
27.439657515713208
 20
255.48247355196003
 30
1289.0
 10
26.885515871214523
 20
255.49817907770827
 30
1289.0
 10
26.331469054709665
 20
255.4882612083895
 30
1289.0
 10
25.77879728848574
 20
255.45416596506067
 30
1289.0
 10
25.02919796362872
 20
255.37698348479591
 30
1289.0
 10
24.82985153602379
 20
255.35346070852347
 30
1289.0
 10
24.63059086698327
 20
255.32700855176148
 30
1289.0
 10
24.431421533692163
 20
255.29768645328107
 30
1289.0
 10
24.232349113335182
 20
255.26555385185273
 30
1289.0
 10
24.0333791830968
 20
255.23067018624653
 30
1289.0
 10
23.83451732016123
 20
255.19309489523218
 30
1289.0
 10
23.46070469612267
 20
255.1174712602388
 30
1289.0
 10
23.28604617203571
 20
255.08006332751592
 30
1289.0
 10
23.11180073842278
 20
255.04074332329097
 30
1289.0
 10
22.937978791046337
 20
254.99957356469818
 30
1289.0
 10
22.76459391246008
 20
254.95659898212506
 30
1289.0
 10
22.591662872008957
 20
254.91184711921278
 30
1289.0
 10
22.419205625829175
 20
254.86532813285604
 30
1289.0
 10
20.781322840770272
 20
254.40534506979083
 30
1289.0
 10
19.350454891196513
 20
253.86471057177548
 30
1289.0
 10
17.969051759946435
 20
253.2002455246547
 30
1289.0
 10
16.64907536226856
 20
252.41893195230864
 30
1289.0
 10
15.400206370896658
 20
251.52929607816617
 30
1289.0
 10
14.229865375087112
 20
250.5413636348511
 30
1289.0
 10
13.14319970549899
 20
249.4666859943501
 30
1289.0
 10
11.65606283337203
 20
247.75886234316087
 30
1289.0
 10
11.189325280122928
 20
247.18176382400128
 30
1289.0
 10
10.743170724035341
 20
246.58825436377143
 30
1289.0
 10
10.317676113200307
 20
245.97963588988247
 30
1289.0
 10
9.912783482507928
 20
245.35717493277585
 30
1289.0
 10
9.528321716017931
 20
244.72208775332555
 30
1289.0
 10
9.164026114988184
 20
244.0755270315119
 30
1289.0
 10
8.011308103188146
 20
241.87711987248036
 30
1289.0
 10
7.312686097064689
 20
240.27935005263575
 30
1289.0
 10
6.718369593221379
 20
238.63798135047358
 30
1289.0
 10
6.221809194582936
 20
236.96409617503068
 30
1289.0
 10
5.8158653800322115
 20
235.26695596352246
 30
1289.0
 10
5.49333813466404
 20
233.553849923273
 30
1289.0
 10
5.247387097228941
 20
231.82997520279366
 30
1289.0
 10
5.071842224766698
 20
230.0983484920098
 30
1289.0
  0
LINE
  5
30
330
17
100
AcDbEntity
  8
0
100
AcDbLine
 10
26.691813156250685
 20
235.9
 30
1289.0
 11
45.7336062855223
 21
235.9
 31
1289.0
  0
SPLINE
  5
31
330
17
100
AcDbEntity
  8
0
100
AcDbSpline
 70
0
 71
1
 72
4
 73
2
 74
0
 40
0.0
 40
0.0
 40
1.0
 40
1.0
 10
26.691813156254184
 20
235.9000006000011
 30
1289.0
 10
26.691813156254184
 20
232.09999939999986
 30
1289.0
  0
LINE
  5
32
330
17
100
AcDbEntity
  8
0
100
AcDbLine
 10
26.691813156250685
 20
232.1
 30
1289.0
 11
47.169183247200394
 21
232.1
 31
1289.0
  0
SPLINE
  5
33
330
17
100
AcDbEntity
  8
0
100
AcDbSpline
 70
0
 71
8
 72
32
 73
23
 74
0
 40
0.0
 40
0.0
 40
0.0
 40
0.0
 40
0.0
 40
0.0
 40
0.0
 40
0.0
 40
0.0
 40
0.3840317550945265
 40
0.3840317550945265
 40
0.3840317550945265
 40
0.3840317550945265
 40
0.3840317550945265
 40
0.3840317550945265
 40
0.3840317550945265
 40
0.8550079157770192
 40
0.8550079157770192
 40
0.8550079157770192
 40
0.8550079157770192
 40
0.8550079157770192
 40
0.8550079157770192
 40
0.8550079157770192
 40
1.0
 40
1.0
 40
1.0
 40
1.0
 40
1.0
 40
1.0
 40
1.0
 40
1.0
 40
1.0
 10
53.397475386716714
 20
209.90000000278
 30
1289.0
 10
53.149368724394435
 20
210.97929811112013
 30
1289.0
 10
52.897163389125055
 20
212.05765086502439
 30
1289.0
 10
52.64067600200627
 20
213.13499532442262
 30
1289.0
 10
52.37970394878788
 20
214.2112614092697
 30
1289.0
 10
52.11402180292371
 20
215.28637108025032
 30
1289.0
 10
51.84337657944281
 20
216.36023725284812
 30
1289.0
 10
51.567481142578714
 20
217.43276228883806
 30
1289.0
 10
50.940801845387526
 20
219.81739922157035
 30
1289.0
 10
50.58721790564616
 20
221.12872946134883
 30
1289.0
 10
50.22463993430666
 20
222.43763114006114
 30
1289.0
 10
49.852366966941496
 20
223.74384440759206
 30
1289.0
 10
49.46957640121293
 20
225.0470348185393
 30
1289.0
 10
49.075293106247145
 20
226.3467842379393
 30
1289.0
 10
48.66832231379101
 20
227.64257104121862
 30
1289.0
 10
48.11743471158567
 20
229.33121622290074
 30
1289.0000000000002
 10
47.98641379204261
 20
229.7282645921097
 30
1289.0
 10
47.853999400592464
 20
230.1248520373879
 30
1289.0
 10
47.720140968398724
 20
230.52095509583776
 30
1289.0
 10
47.58478468783413
 20
230.91654840129837
 30
1289.0
 10
47.44787546647896
 20
231.31160527338022
 30
1289.0
 10
47.309358881119216
 20
231.7060983064997
 30
1289.0
 10
47.169183131744816
 20
232.09999995891332
 30
1289.0
  0
LINE
  5
34
330
17
100
AcDbEntity
  8
0
100
AcDbLine
 10
26.691813156250685
 20
209.9
 30
1289.0
 11
53.39747537462363
 21
209.9
 31
1289.0
  0
SPLINE
  5
35
330
17
100
AcDbEntity
  8
0
100
AcDbSpline
 70
0
 71
1
 72
4
 73
2
 74
0
 40
0.0
 40
0.0
 40
1.0
 40
1.0
 10
26.691813156254184
 20
209.90000060000008
 30
1289.0
 10
26.691813156254184
 20
206.09999939999994
 30
1289.0
  0
LINE
  5
36
330
17
100
AcDbEntity
  8
0
100
AcDbLine
 10
26.691813156250685
 20
206.1
 30
1289.0
 11
54.24855317733501
 21
206.1
 31
1289.0
  0
SPLINE
  5
37
330
17
100
AcDbEntity
  8
0
100
AcDbSpline
 70
0
 71
8
 72
25
 73
16
 74
0
 40
0.0
 40
0.0
 40
0.0
 40
0.0
 40
0.0
 40
0.0
 40
0.0
 40
0.0
 40
0.0
 40
0.4743229610999979
 40
0.4743229610999979
 40
0.4743229610999979
 40
0.4743229610999979
 40
0.4743229610999979
 40
0.4743229610999979
 40
0.4743229610999979
 40
1.0
 40
1.0
 40
1.0
 40
1.0
 40
1.0
 40
1.0
 40
1.0
 40
1.0
 40
1.0
 10
58.50697745287893
 20
183.90000000042585
 30
1289.0
 10
58.28306516332471
 20
185.22155615634355
 30
1289.0
 10
58.055782364465735
 20
186.54254017943276
 30
1289.0
 10
57.825037217855225
 20
187.86292578777284
 30
1289.0
 10
57.59072988788123
 20
189.182684413134
 30
1289.0
 10
57.35275146917016
 20
190.50178501999414
 30
1289.0
 10
57.110982649927756
 20
191.82019387994518
 30
1289.0
 10
56.865292023340515
 20
193.13787428634583
 30
1289.0
 10
56.33873504705426
 20
195.91427774081322
 30
1289.0
 10
56.056948012593395
 20
197.3727837146748
 30
1289.0
 10
55.76997221906578
 20
198.83026629305698
 30
1289.0
 10
55.47758579899855
 20
200.28667394624756
 30
1289.0
 10
55.17954354145901
 20
201.74194098758167
 30
1289.0
 10
54.87557126911974
 20
203.1959862714313
 30
1289.0
 10
54.56535950943133
 20
204.64871172946278
 30
1289.0
 10
54.24855316825866
 20
206.0999999980187
 30
1289.0
  0
LINE
  5
38
330
17
100
AcDbEntity
  8
0
100
AcDbLine
 10
26.691813156250685
 20
183.9
 30
1289.0
 11
58.50697745036502
 21
183.9
 31
1289.0
  0
SPLINE
  5
39
330
17
100
AcDbEntity
  8
0
100
AcDbSpline
 70
0
 71
1
 72
4
 73
2
 74
0
 40
0.0
 40
0.0
 40
1.0
 40
1.0
 10
26.691813156254184
 20
183.90000060000014
 30
1289.0
 10
26.691813156254184
 20
180.0999993999999
 30
1289.0
  0
LINE
  5
3A
330
17
100
AcDbEntity
  8
0
100
AcDbLine
 10
26.691813156250685
 20
180.1
 30
1289.0
 11
59.13852568626608
 21
180.1
 31
1289.0
  0
SPLINE
  5
3B
330
17
100
AcDbEntity
  8
0
100
AcDbSpline
 70
0
 71
8
 72
25
 73
16
 74
0
 40
0.0
 40
0.0
 40
0.0
 40
0.0
 40
0.0
 40
0.0
 40
0.0
 40
0.0
 40
0.0
 40
0.4092372295243917
 40
0.4092372295243917
 40
0.4092372295243917
 40
0.4092372295243917
 40
0.4092372295243917
 40
0.4092372295243917
 40
0.4092372295243917
 40
1.0
 40
1.0
 40
1.0
 40
1.0
 40
1.0
 40
1.0
 40
1.0
 40
1.0
 40
1.0
 10
62.39105602769227
 20
157.8999999958315
 30
1289.0
 10
62.24161363838982
 20
159.03803743414574
 30
1289.0
 10
62.09031795720186
 20
160.17583112215925
 30
1289.0
 10
61.937148486161874
 20
161.3133747662742
 30
1289.0
 10
61.78208314655026
 20
162.4506617619195
 30
1289.0
 10
61.62509817267754
 20
163.58768517997237
 30
1289.0
 10
61.46616799225146
 20
164.7244377514507
 30
1289.0
 10
61.30526509332776
 20
165.86091185047576
 30
1289.0
 10
60.90719472306303
 20
168.63726635358626
 30
1289.0
 10
60.6678581971687
 20
170.27682728975321
 30
1289.0
 10
60.42426063325401
 20
171.91576088297074
 30
1289.0
 10
60.17630359033894
 20
173.55404207406286
 30
1289.0
 10
59.923878468583816
 20
175.19164190584155
 30
1289.0
 10
59.666865182779034
 20
176.82852729646925
 30
1289.0
 10
59.40513050651688
 20
178.46466075926327
 30
1289.0
 10
59.13852569945023
 20
180.10000000214933
 30
1289.0
  0
LINE
  5
3C
330
17
100
AcDbEntity
  8
0
100
AcDbLine
 10
26.691813156250685
 20
157.9
 30
1289.0
 11
62.39105605943604
 21
157.9
 31
1289.0
  0
SPLINE
  5
3D
330
17
100
AcDbEntity
  8
0
100
AcDbSpline
 70
0
 71
1
 72
4
 73
2
 74
0
 40
0.0
 40
0.0
 40
1.0
 40
1.0
 10
26.691813156254184
 20
157.90000060000042
 30
1289.0
 10
26.691813156254184
 20
154.09999939999918
 30
1289.0
  0
LINE
  5
3E
330
17
100
AcDbEntity
  8
0
100
AcDbLine
 10
26.691813156250685
 20
154.1
 30
1289.0
 11
62.880949126426955
 21
154.1
 31
1289.0
  0
SPLINE
  5
3F
330
17
100
AcDbEntity
  8
0
100
AcDbSpline
 70
0
 71
8
 72
25
 73
16
 74
0
 40
0.0
 40
0.0
 40
0.0
 40
0.0
 40
0.0
 40
0.0
 40
0.0
 40
0.0
 40
0.0
 40
0.18458608921189068
 40
0.18458608921189068
 40
0.18458608921189068
 40
0.18458608921189068
 40
0.18458608921189068
 40
0.18458608921189068
 40
0.18458608921189068
 40
1.0
 40
1.0
 40
1.0
 40
1.0
 40
1.0
 40
1.0
 40
1.0
 40
1.0
 40
1.0
 10
65.39745552551089
 20
131.89999998924426
 30
1289.0
 10
65.34586261928433
 20
132.41293370881277
 30
1289.0
 10
65.29393504011641
 20
132.92583375505325
 30
1289.0
 10
65.24167248528221
 20
133.43869983771958
 30
1289.0
 10
65.1890745565454
 20
133.95153165548894
 30
1289.0
 10
65.1361407435508
 20
134.46432889453928
 30
1289.0
 10
65.08287048559848
 20
134.9770912346494
 30
1289.0
 10
65.02926331179961
 20
135.4898183628216
 30
1289.0
 10
64.73701890478077
 20
138.26733878049856
 30
1289.0
 10
64.49213705877047
 20
140.53147051981986
 30
1289.0
 10
64.24062833451518
 20
142.79488097400625
 30
1289.0
 10
63.98243166632421
 20
145.05754217975613
 30
1289.0
 10
63.717469815748856
 20
147.31942241439145
 30
1289.0
 10
63.445648259052334
 20
149.58048605591142
 30
1289.0
 10
63.166853256284725
 20
151.84069333755957
 30
1289.0
 10
62.880949101962855
 20
154.0999999969042
 30
1289.0
  0
LINE
  5
40
330
17
100
AcDbEntity
  8
0
100
AcDbLine
 10
26.691813156250685
 20
131.9
 30
1289.0
 11
65.39745563244335
 21
131.9
 31
1289.0
  0
SPLINE
  5
41
330
17
100
AcDbEntity
  8
0
100
AcDbSpline
 70
0
 71
1
 72
4
 73
2
 74
0
 40
0.0
 40
0.0
 40
1.0
 40
1.0
 10
26.691813156254184
 20
131.90000060000256
 30
1289.0
 10
26.691813156254184
 20
128.09999939999764
 30
1289.0
  0
LINE
  5
42
330
17
100
AcDbEntity
  8
0
100
AcDbLine
 10
26.691813156250685
 20
128.1
 30
1289.0
 11
65.77157259569029
 21
128.1
 31
1289.0
  0
SPLINE
  5
43
330
17
100
AcDbEntity
  8
0
100
AcDbSpline
 70
0
 71
8
 72
25
 73
16
 74
0
 40
0.0
 40
0.0
 40
0.0
 40
0.0
 40
0.0
 40
0.0
 40
0.0
 40
0.0
 40
0.0
 40
0.9065511511735941
 40
0.9065511511735941
 40
0.9065511511735941
 40
0.9065511511735941
 40
0.9065511511735941
 40
0.9065511511735941
 40
0.9065511511735941
 40
1.0
 40
1.0
 40
1.0
 40
1.0
 40
1.0
 40
1.0
 40
1.0
 40
1.0
 40
1.0
 10
67.64681132391223
 20
105.89999999867646
 30
1289.0
 10
67.4625928567639
 20
108.41796512653008
 30
1289.0
 10
67.27137414215429
 20
110.93541791831026
 30
1289.0
 10
67.07301137585941
 20
113.45232487168965
 30
1289.0
 10
66.86735826985796
 20
115.96865059692297
 30
1289.0
 10
66.65426595284438
 20
118.48435780947642
 30
1289.0
 10
66.43358287074201
 20
120.99940732265682
 30
1289.0
 10
66.20515468721608
 20
123.51375804024099
 30
1289.0
 10
65.94446283025553
 20
126.28647407022987
 30
1289.0
 10
65.92001760270831
 20
126.54557329966973
 30
1289.0
 10
65.8954882114605
 20
126.80466457818964
 30
1289.0
 10
65.87087442891733
 20
127.06374785236441
 30
1289.0
 10
65.84617607839904
 20
127.32282307347312
 30
1289.0
 10
65.82139302386328
 20
127.58189019651839
 30
1289.0
 10
65.79652516092484
 20
127.84094917937014
 30
1289.0
 10
65.77157240917296
 20
128.09999998203395
 30
1289.0
  0
LINE
  5
44
330
17
100
AcDbEntity
  8
0
100
AcDbLine
 10
26.691813156250685
 20
105.9
 30
1289.0
 11
67.64681134200349
 21
105.9
 31
1289.0
  0
SPLINE
  5
45
330
17
100
AcDbEntity
  8
0
100
AcDbSpline
 70
0
 71
1
 72
4
 73
2
 74
0
 40
0.0
 40
0.0
 40
1.0
 40
1.0
 10
26.691813156254184
 20
105.90000060000206
 30
1289.0
 10
26.691813156254184
 20
102.09999939999993
 30
1289.0
  0
LINE
  5
46
330
17
100
AcDbEntity
  8
0
100
AcDbLine
 10
26.691813156250685
 20
102.1
 30
1289.0
 11
67.91786957117871
 21
102.1
 31
1289.0
  0
SPLINE
  5
47
330
17
100
AcDbEntity
  8
0
100
AcDbSpline
 70
0
 71
8
 72
25
 73
16
 74
0
 40
0.0
 40
0.0
 40
0.0
 40
0.0
 40
0.0
 40
0.0
 40
0.0
 40
0.0
 40
0.0
 40
0.2097588375176541
 40
0.2097588375176541
 40
0.2097588375176541
 40
0.2097588375176541
 40
0.2097588375176541
 40
0.2097588375176541
 40
0.2097588375176541
 40
1.0
 40
1.0
 40
1.0
 40
1.0
 40
1.0
 40
1.0
 40
1.0
 40
1.0
 40
1.0
 10
69.23831655703633
 20
79.89999999995457
 30
1289.0
 10
69.20924586700689
 20
80.4823926134085
 30
1289.0
 10
69.17985801335809
 20
81.06476955310514
 30
1289.0
 10
69.15015140148351
 20
81.64713055657694
 30
1289.0
 10
69.12012443095342
 20
82.22947535868639
 30
1289.0
 10
69.08977549545088
 20
82.81180369162435
 30
1289.0
 10
69.0591029827074
 20
83.39411528490852
 30
1289.0
 10
69.02810527443826
 20
83.97640986538187
 30
1289.0
 10
68.87876935833806
 20
86.75234673993693
 30
1289.0
 10
68.75611964676212
 20
88.9457556553198
 30
1289.0
 10
68.62874479919793
 20
91.13889835972762
 30
1289.0
 10
68.49655682096812
 20
93.3317582454458
 30
1289.0
 10
68.35946648544419
 20
95.52431763700058
 30
1289.0
 10
68.21738328442125
 20
97.71655778748226
 30
1289.0
 10
68.07021537849268
 20
99.90845887486873
 30
1289.0
 10
67.9178695474248
 20
102.09999999834872
 30
1289.0
  0
LINE
  5
48
330
17
100
AcDbEntity
  8
0
100
AcDbLine
 10
26.691813156250685
 20
79.9
 30
1289.0
 11
69.23831655794672
 21
79.9
 31
1289.0
  0
SPLINE
  5
49
330
17
100
AcDbEntity
  8
0
100
AcDbSpline
 70
0
 71
1
 72
4
 73
2
 74
0
 40
0.0
 40
0.0
 40
1.0
 40
1.0
 10
26.691813156254184
 20
79.90000060000001
 30
1289.0
 10
26.691813156254184
 20
76.09999939999999
 30
1289.0
  0
LINE
  5
4A
330
17
100
AcDbEntity
  8
0
100
AcDbLine
 10
26.691813156250685
 20
76.1
 30
1289.0
 11
69.4221247472194
 21
76.1
 31
1289.0
  0
SPLINE
  5
4B
330
17
100
AcDbEntity
  8
0
100
AcDbSpline
 70
0
 71
8
 72
18
 73
9
 74
0
 40
0.0
 40
0.0
 40
0.0
 40
0.0
 40
0.0
 40
0.0
 40
0.0
 40
0.0
 40
0.0
 40
1.0
 40
1.0
 40
1.0
 40
1.0
 40
1.0
 40
1.0
 40
1.0
 40
1.0
 40
1.0
 10
70.27437916379328
 20
53.89999999899834
 30
1289.0
 10
70.19010557434856
 20
56.675799817596655
 30
1289.0
 10
70.0997920914423
 20
59.45141523087802
 30
1289.0
 10
70.00328193337228
 20
62.22682588109993
 30
1289.0
 10
69.90041602083332
 20
65.00201005375843
 30
1289.0
 10
69.79103283556971
 20
67.77694467426561
 30
1289.0
 10
69.67496827466991
 20
70.55160530447927
 30
1289.0
 10
69.55205550050371
 20
73.32596613908501
 30
1289.0
 10
69.42212478630174
 20
76.10000000183058
 30
1289.0
  0
LINE
  5
4C
330
17
100
AcDbEntity
  8
0
100
AcDbLine
 10
26.691813156250685
 20
53.9
 30
1289.0
 11
70.27437919678773
 21
53.9
 31
1289.0
  0
SPLINE
  5
4D
330
17
100
AcDbEntity
  8
0
100
AcDbSpline
 70
0
 71
1
 72
4
 73
2
 74
0
 40
0.0
 40
0.0
 40
1.0
 40
1.0
 10
26.691813156254184
 20
53.90000060000026
 30
1289.0
 10
26.691813156254184
 20
50.09999939999937
 30
1289.0
  0
LINE
  5
4E
330
17
100
AcDbEntity
  8
0
100
AcDbLine
 10
26.691813156250685
 20
50.1
 30
1289.0
 11
70.38483522874796
 21
50.1
 31
1289.0
  0
SPLINE
  5
4F
330
17
100
AcDbEntity
  8
0
100
AcDbSpline
 70
0
 71
8
 72
18
 73
9
 74
0
 40
0.0
 40
0.0
 40
0.0
 40
0.0
 40
0.0
 40
0.0
 40
0.0
 40
0.0
 40
0.0
 40
1.0
 40
1.0
 40
1.0
 40
1.0
 40
1.0
 40
1.0
 40
1.0
 40
1.0
 40
1.0
 10
70.84563790875586
 20
27.900000000360667
 30
1289.0
 10
70.8064849394922
 20
30.675340791862375
 30
1289.0
 10
70.76235566304459
 20
33.450612449456585
 30
1289.0
 10
70.71310510744624
 20
36.22580253294046
 30
1289.0
 10
70.6585866326539
 20
39.00089726251435
 30
1289.0
 10
70.59865180483419
 20
41.775881515985304
 30
1289.0
 10
70.53315026630622
 20
44.550738825823274
 30
1289.0
 10
70.4619296011401
 20
47.32545137607015
 30
1289.0
 10
70.38483519641179
 20
50.09999999910151
 30
1289.0
  0
LINE
  5
50
330
17
100
AcDbEntity
  8
0
100
AcDbLine
 10
26.691813156250685
 20
27.9
 30
1289.0
 11
70.84563788318881
 21
27.9
 31
1289.0
  0
SPLINE
  5
51
330
17
100
AcDbEntity
  8
0
100
AcDbSpline
 70
0
 71
1
 72
4
 73
2
 74
0
 40
0.0
 40
0.0
 40
1.0
 40
1.0
 10
26.691813156254184
 20
27.900000600000002
 30
1289.0
 10
26.691813156254184
 20
24.099999399999998
 30
1289.0
  0
LINE
  5
52
330
17
100
AcDbEntity
  8
0
100
AcDbLine
 10
26.691813156250685
 20
24.1
 30
1289.0
 11
70.89520465151757
 21
24.1
 31
1289.0
  0
SPLINE
  5
53
330
17
100
AcDbEntity
  8
0
100
AcDbSpline
 70
0
 71
8
 72
18
 73
9
 74
0
 40
0.0
 40
0.0
 40
0.0
 40
0.0
 40
0.0
 40
0.0
 40
0.0
 40
0.0
 40
0.0
 40
1.0
 40
1.0
 40
1.0
 40
1.0
 40
1.0
 40
1.0
 40
1.0
 40
1.0
 40
1.0
 10
71.03418947389278
 20
1.8999999999881096
 30
1289.0
 10
71.0317374430062
 20
4.675076219527029
 30
1289.0
 10
71.02529881685922
 20
7.450143244280044
 30
1289.0
 10
71.01473681677668
 20
10.225196443814623
 30
1289.0
 10
70.9999135499688
 20
13.000229861037122
 30
1289.0
 10
70.98068989918605
 20
15.775236209915697
 30
1289.0
 10
70.95692540803529
 20
18.550206873056162
 30
1289.0
 10
70.92847816195714
 20
21.32513189913079
 30
1289.0
 10
70.89520466486462
 20
24.10000000016005
 30
1289.0
  0
LINE
  5
54
330
17
100
AcDbEntity
  8
0
100
AcDbLine
 10
26.691813156250685
 20
1.9
 30
1289.0
 11
71.0341894873419
 21
1.9
 31
1289.0
  0
SPLINE
  5
55
330
17
100
AcDbEntity
  8
0
100
AcDbSpline
 70
0
 71
1
 72
4
 73
2
 74
0
 40
0.0
 40
0.0
 40
0.9999993684216398
 40
0.9999993684216398
 10
26.691813156254184
 20
1.9000006000000558
 30
1289.0
 10
26.691813156254184
 20
-6.553790374438061e-17
 30
1289.0
  0
SPLINE
  5
56
330
17
100
AcDbEntity
  8
0
100
AcDbSpline
 70
0
 71
1
 72
4
 73
2
 74
0
 40
0.0
 40
0.0
 40
1.0
 40
1.0
 10
26.691813156254184
 20
-1.9000006000000011
 30
1289.0
 10
26.691813156254184
 20
1.2000000211287443e-06
 30
1289.0
  0
LINE
  5
57
330
17
100
AcDbEntity
  8
0
100
AcDbLine
 10
26.691813156250664
 20
-1.9
 30
1289.0
 11
71.03430550307922
 21
-1.9
 31
1289.0
  0
SPLINE
  5
58
330
17
100
AcDbEntity
  8
0
100
AcDbSpline
 70
0
 71
8
 72
18
 73
9
 74
0
 40
0.0
 40
0.0
 40
0.0
 40
0.0
 40
0.0
 40
0.0
 40
0.0
 40
0.0
 40
0.0
 40
1.0
 40
1.0
 40
1.0
 40
1.0
 40
1.0
 40
1.0
 40
1.0
 40
1.0
 40
1.0
 10
70.89661347817665
 20
-24.09999999973963
 30
1289.0
 10
70.9297391010436
 20
-21.32515100449323
 30
1288.9999999999998
 10
70.95803280649707
 20
-18.550244075093286
 30
1288.9999999999998
 10
70.98163898450083
 20
-15.775288720665912
 30
1288.9999999999998
 10
71.00070042575705
 20
-13.000292755561546
 30
1288.9999999999998
 10
71.01535844387048
 20
-10.225262303683985
 30
1288.9999999999998
 10
71.02575299679573
 20
-7.450201802777805
 30
1288.9999999999998
 10
71.03202280904141
 20
-4.675114008736582
 30
1288.9999999999998
 10
71.03430549610488
 20
-1.89999999999427
 30
1288.9999999999998
  0
LINE
  5
59
330
17
100
AcDbEntity
  8
0
100
AcDbLine
 10
26.691813156250664
 20
-24.1
 30
1289.0
 11
70.8966134999872
 21
-24.1
 31
1289.0
  0
SPLINE
  5
5A
330
17
100
AcDbEntity
  8
0
100
AcDbSpline
 70
0
 71
1
 72
4
 73
2
 74
0
 40
0.0
 40
0.0
 40
1.0
 40
1.0
 10
26.691813156254184
 20
-27.900000600000034
 30
1289.0
 10
26.691813156254184
 20
-24.099999399999938
 30
1289.0
  0
LINE
  5
5B
330
17
100
AcDbEntity
  8
0
100
AcDbLine
 10
26.691813156250664
 20
-27.9
 30
1289.0
 11
70.847243952706
 21
-27.9
 31
1289.0
  0
SPLINE
  5
5C
330
17
100
AcDbEntity
  8
0
100
AcDbSpline
 70
0
 71
8
 72
18
 73
9
 74
0
 40
0.0
 40
0.0
 40
0.0
 40
0.0
 40
0.0
 40
0.0
 40
0.0
 40
0.0
 40
0.0
 40
1.0
 40
1.0
 40
1.0
 40
1.0
 40
1.0
 40
1.0
 40
1.0
 40
1.0
 40
1.0
 10
70.38732670690592
 20
-50.10000000014527
 30
1289.0
 10
70.46434668729373
 20
-47.32543793020304
 30
1289.0
 10
70.53548068467981
 20
-44.55071600562104
 30
1289.0
 10
70.60088425121617
 20
-41.77585373410788
 30
1289.0
 10
70.66071075025516
 20
-39.00086890618865
 30
1289.0
 10
70.7151114872298
 20
-36.225777599941765
 30
1289.0
 10
70.76423583635992
 20
-33.450594185547786
 30
1289.0
 10
70.80823136465979
 20
-30.675331329712737
 30
1289.0
 10
70.84724395472317
 20
-27.900000000028342
 30
1289.0
  0
LINE
  5
5D
330
17
100
AcDbEntity
  8
0
100
AcDbLine
 10
26.691813156250664
 20
-50.1
 30
1289.0
 11
70.38732670167177
 21
-50.1
 31
1289.0
  0
SPLINE
  5
5E
330
17
100
AcDbEntity
  8
0
100
AcDbSpline
 70
0
 71
1
 72
4
 73
2
 74
0
 40
0.0
 40
0.0
 40
1.0
 40
1.0
 10
26.691813156254184
 20
-53.9000006
 30
1289.0
 10
26.691813156254184
 20
-50.0999994
 30
1289.0
  0
LINE
  5
5F
330
17
100
AcDbEntity
  8
0
100
AcDbLine
 10
26.691813156250664
 20
-53.9
 30
1289.0
 11
70.27696294473112
 21
-53.9
 31
1289.0
  0
SPLINE
  5
60
330
17
100
AcDbEntity
  8
0
100
AcDbSpline
 70
0
 71
8
 72
18
 73
9
 74
0
 40
0.0
 40
0.0
 40
0.0
 40
0.0
 40
0.0
 40
0.0
 40
0.0
 40
0.0
 40
0.0
 40
1.0
 40
1.0
 40
1.0
 40
1.0
 40
1.0
 40
1.0
 40
1.0
 40
1.0
 40
1.0
 10
69.42477022262781
 20
-76.09999999923734
 30
1289.0
 10
69.55475156315488
 20
-73.32597248473361
 30
1289.0
 10
69.67769662946921
 20
-70.5516121031308
 30
1289.0
 10
69.7937759396837
 20
-67.77694853716861
 30
1289.0
 10
69.90315715990856
 20
-65.00200972464118
 30
1289.0
 10
70.00600525627564
 20
-62.22682186406675
 30
1289.0
 10
70.10248263930659
 20
-59.45140942002185
 30
1289.0
 10
70.19274930210597
 20
-56.67579512820276
 30
1289.0
 10
70.27696295386038
 20
-53.900000000276975
 30
1289.0
  0
LINE
  5
61
330
17
100
AcDbEntity
  8
0
100
AcDbLine
 10
26.691813156250664
 20
-76.1
 30
1289.0
 11
69.42477023890363
 21
-76.1
 31
1289.0
  0
SPLINE
  5
62
330
17
100
AcDbEntity
  8
0
100
AcDbSpline
 70
0
 71
1
 72
4
 73
2
 74
0
 40
0.0
 40
0.0
 40
1.0
 40
1.0
 10
26.691813156254184
 20
-79.90000060000018
 30
1289.0
 10
26.691813156254184
 20
-76.09999939999999
 30
1289.0
  0
LINE
  5
63
330
17
100
AcDbEntity
  8
0
100
AcDbLine
 10
26.691813156250664
 20
-79.9
 30
1289.0
 11
69.24087669875905
 21
-79.9
 31
1289.0
  0
SPLINE
  5
64
330
17
100
AcDbEntity
  8
0
100
AcDbSpline
 70
0
 71
8
 72
18
 73
9
 74
0
 40
0.0
 40
0.0
 40
0.0
 40
0.0
 40
0.0
 40
0.0
 40
0.0
 40
0.0
 40
0.0
 40
1.0
 40
1.0
 40
1.0
 40
1.0
 40
1.0
 40
1.0
 40
1.0
 40
1.0
 40
1.0
 10
67.91923179981055
 20
-102.09999999763302
 30
1289.0
 10
68.11224704622092
 20
-99.3267612735458
 30
1289.0
 10
68.29694533839726
 20
-96.55294352886779
 30
1289.0
 10
68.47351673309515
 20
-93.77858688381299
 30
1289.0
 10
68.64214763428213
 20
-91.00372967645569
 30
1289.0
 10
68.80302097916393
 20
-88.22840846987572
 30
1289.0
 10
68.95631641301193
 20
-85.45265805881812
 30
1289.0
 10
69.10221045428385
 20
-82.6765114759305
 30
1289.0
 10
69.24087665152976
 20
-79.89999999764126
 30
1289.0
  0
LINE
  5
65
330
17
100
AcDbEntity
  8
0
100
AcDbLine
 10
26.691813156250664
 20
-102.1
 30
1289.0
 11
67.91923183381937
 21
-102.1
 31
1289.0
  0
SPLINE
  5
66
330
17
100
AcDbEntity
  8
0
100
AcDbSpline
 70
0
 71
1
 72
4
 73
2
 74
0
 40
0.0
 40
0.0
 40
1.0
 40
1.0
 10
26.691813156254184
 20
-105.90000060000003
 30
1289.0
 10
26.691813156254184
 20
-102.09999939999999
 30
1289.0
  0
LINE
  5
67
330
17
100
AcDbEntity
  8
0
100
AcDbLine
 10
26.691813156250664
 20
-105.9
 30
1289.0
 11
67.64783361809259
 21
-105.9
 31
1289.0
  0
SPLINE
  5
68
330
17
100
AcDbEntity
  8
0
100
AcDbSpline
 70
0
 71
8
 72
25
 73
16
 74
0
 40
0.0
 40
0.0
 40
0.0
 40
0.0
 40
0.0
 40
0.0
 40
0.0
 40
0.0
 40
0.0
 40
0.27409096041437975
 40
0.27409096041437975
 40
0.27409096041437975
 40
0.27409096041437975
 40
0.27409096041437975
 40
0.27409096041437975
 40
0.27409096041437975
 40
1.0
 40
1.0
 40
1.0
 40
1.0
 40
1.0
 40
1.0
 40
1.0
 40
1.0
 40
1.0
 10
65.76966869159183
 20
-128.09999993946994
 30
1289.0
 10
65.84298647449828
 20
-127.34018437337377
 30
1289.0
 10
65.91557162793946
 20
-126.5802980969539
 30
1289.0
 10
65.98742772126812
 20
-125.8203422825056
 30
1289.0
 10
66.05855859181457
 20
-125.06031811353043
 30
1289.0
 10
66.12896834488659
 20
-124.30022678473586
 30
1289.0
 10
66.19866135376948
 20
-123.54006950203556
 30
1289.0
 10
66.26764225972612
 20
-122.7798474825493
 30
1289.0
 10
66.51673370063872
 20
-120.0060036213838
 30
1289.0
 10
66.69258637002548
 20
-117.99201322603042
 30
1289.0
 10
66.86355399355622
 20
-115.97760930059053
 30
1289.0
 10
67.02971535968926
 20
-113.96280987080995
 30
1289.0
 10
67.19114807665022
 20
-111.94763245788309
 30
1289.0
 10
67.34792861508737
 20
-109.93209408011478
 30
1289.0
 10
67.50013234883455
 20
-107.91621125450038
 30
1289.0
 10
67.64783359394234
 20
-105.89999999823084
 30
1289.0
  0
LINE
  5
69
330
17
100
AcDbEntity
  8
0
100
AcDbLine
 10
26.691813156250664
 20
-128.1
 30
1289.0
 11
65.76966931888407
 21
-128.1
 31
1289.0
  0
SPLINE
  5
6A
330
17
100
AcDbEntity
  8
0
100
AcDbSpline
 70
0
 71
1
 72
4
 73
2
 74
0
 40
0.0
 40
0.0
 40
1.0
 40
1.0
 10
26.691813156254184
 20
-131.9000006
 30
1289.0
 10
26.691813156254184
 20
-128.09999939999992
 30
1289.0
  0
LINE
  5
6B
330
17
100
AcDbEntity
  8
0
100
AcDbLine
 10
26.691813156250664
 20
-131.9
 30
1289.0
 11
65.39487500858971
 21
-131.9
 31
1289.0
  0
SPLINE
  5
6C
330
17
100
AcDbEntity
  8
0
100
AcDbSpline
 70
0
 71
8
 72
25
 73
16
 74
0
 40
0.0
 40
0.0
 40
0.0
 40
0.0
 40
0.0
 40
0.0
 40
0.0
 40
0.0
 40
0.0
 40
0.32652452542635396
 40
0.32652452542635396
 40
0.32652452542635396
 40
0.32652452542635396
 40
0.32652452542635396
 40
0.32652452542635396
 40
0.32652452542635396
 40
1.0
 40
1.0
 40
1.0
 40
1.0
 40
1.0
 40
1.0
 40
1.0
 40
1.0
 40
1.0
 10
62.873488185355605
 20
-154.10000000240112
 30
1289.0
 10
62.98820021719291
 20
-153.19529351599596
 30
1289.0
 10
63.1017703054365
 20
-152.29044202328157
 30
1289.0
 10
63.21420711888434
 20
-151.38544815083608
 30
1289.0
 10
63.32551876787079
 20
-150.48031435289752
 30
1289.0
 10
63.43571283203762
 20
-149.5750429155358
 30
1289.0
 10
63.5447963858347
 20
-148.6696359605206
 30
1289.0
 10
63.65277602339499
 20
-147.76409544913318
 30
1289.0
 10
63.98010782456386
 20
-144.99042244009834
 30
1289.0
 10
64.19588657702946
 20
-143.12187035631035
 30
1288.9999999999998
 10
64.4070472461948
 20
-141.25278664908214
 30
1288.9999999999998
 10
64.61363458407354
 20
-139.38318980136717
 30
1288.9999999999998
 10
64.81568537777083
 20
-137.51309710825186
 30
1288.9999999999998
 10
65.01322883693041
 20
-135.6425247204103
 30
1288.9999999999998
 10
65.20628698118205
 20
-133.77148768755953
 30
1288.9999999999998
 10
65.39487502758868
 20
-131.90000000191446
 30
1288.9999999999998
  0
LINE
  5
6D
330
17
100
AcDbEntity
  8
0
100
AcDbLine
 10
26.691813156250664
 20
-154.1
 30
1289.0
 11
62.87348816641867
 21
-154.1
 31
1289.0
  0
SPLINE
  5
6E
330
17
100
AcDbEntity
  8
0
100
AcDbSpline
 70
0
 71
1
 72
4
 73
2
 74
0
 40
0.0
 40
0.0
 40
1.0
 40
1.0
 10
26.691813156254184
 20
-157.90000060000003
 30
1289.0
 10
26.691813156254184
 20
-154.0999994
 30
1289.0
  0
LINE
  5
6F
330
17
100
AcDbEntity
  8
0
100
AcDbLine
 10
26.691813156250664
 20
-157.9
 30
1289.0
 11
62.382630669616105
 21
-157.9
 31
1289.0
  0
SPLINE
  5
70
330
17
100
AcDbEntity
  8
0
100
AcDbSpline
 70
0
 71
8
 72
18
 73
9
 74
0
 40
0.0
 40
0.0
 40
0.0
 40
0.0
 40
0.0
 40
0.0
 40
0.0
 40
0.0
 40
0.0
 40
1.0
 40
1.0
 40
1.0
 40
1.0
 40
1.0
 40
1.0
 40
1.0
 40
1.0
 40
1.0
 10
59.123993764237106
 20
-180.10000000889616
 30
1289.0
 10
59.57607371282794
 20
-177.33183480435224
 30
1289.0
 10
60.01419604901844
 20
-174.56139135038313
 30
1289.0
 10
60.43908135840168
 20
-171.78886228737952
 30
1289.0
 10
60.85132116796919
 20
-169.01441318964496
 30
1289.0
 10
61.251409946544
 20
-166.2381872758252
 30
1289.0
 10
61.639765157311246
 20
-163.46030834850916
 30
1289.0
 10
62.01673964433502
 20
-160.68088260927297
 30
1289.0
 10
62.38263063495022
 20
-157.89999999543886
 30
1289.0
  0
LINE
  5
71
330
17
100
AcDbEntity
  8
0
100
AcDbLine
 10
26.691813156250664
 20
-180.1
 30
1289.0
 11
59.12399370976432
 21
-180.1
 31
1289.0
  0
SPLINE
  5
72
330
17
100
AcDbEntity
  8
0
100
AcDbSpline
 70
0
 71
1
 72
4
 73
2
 74
0
 40
0.0
 40
0.0
 40
1.0
 40
1.0
 10
26.691813156254184
 20
-183.9000006000001
 30
1289.0
 10
26.691813156254184
 20
-180.09999939999994
 30
1289.0
  0
LINE
  5
73
330
17
100
AcDbEntity
  8
0
100
AcDbLine
 10
26.691813156250664
 20
-183.9
 30
1289.0
 11
58.4913532859886
 21
-183.9
 31
1289.0
  0
SPLINE
  5
74
330
17
100
AcDbEntity
  8
0
100
AcDbSpline
 70
0
 71
8
 72
18
 73
9
 74
0
 40
0.0
 40
0.0
 40
0.0
 40
0.0
 40
0.0
 40
0.0
 40
0.0
 40
0.0
 40
0.0
 40
1.0
 40
1.0
 40
1.0
 40
1.0
 40
1.0
 40
1.0
 40
1.0
 40
1.0
 40
1.0
 10
54.2267037233118
 20
-206.10000000117836
 30
1289.0
 10
54.83009202116443
 20
-203.33918710493595
 30
1289.0
 10
55.40965175727104
 20
-200.5731357892646
 30
1289.0
 10
55.96782153551786
 20
-197.80264002378607
 30
1289.0
 10
56.506430938016614
 20
-195.0282999715253
 30
1289.0
 10
57.026966216490216
 20
-192.2505780095578
 30
1289.0
 10
57.53063736932137
 20
-189.46981289287172
 30
1289.0
 10
58.01847588501648
 20
-186.6862410731133
 30
1289.0
 10
58.491353231449295
 20
-183.89999999074354
 30
1289.0
  0
LINE
  5
75
330
17
100
AcDbEntity
  8
0
100
AcDbLine
 10
26.691813156250664
 20
-206.1
 30
1289.0
 11
54.226703717920046
 21
-206.1
 31
1289.0
  0
SPLINE
  5
76
330
17
100
AcDbEntity
  8
0
100
AcDbSpline
 70
0
 71
1
 72
4
 73
2
 74
0
 40
0.0
 40
0.0
 40
1.0
 40
1.0
 10
26.691813156254184
 20
-209.90000060000008
 30
1289.0
 10
26.691813156254184
 20
-206.09999939999992
 30
1289.0
  0
LINE
  5
77
330
17
100
AcDbEntity
  8
0
100
AcDbLine
 10
26.691813156250664
 20
-209.9
 30
1289.0
 11
53.37465691429691
 21
-209.9
 31
1289.0
  0
SPLINE
  5
78
330
17
100
AcDbEntity
  8
0
100
AcDbSpline
 70
0
 71
8
 72
32
 73
23
 74
0
 40
0.0
 40
0.0
 40
0.0
 40
0.0
 40
0.0
 40
0.0
 40
0.0
 40
0.0
 40
0.0
 40
0.04567771240510805
 40
0.04567771240510805
 40
0.04567771240510805
 40
0.04567771240510805
 40
0.04567771240510805
 40
0.04567771240510805
 40
0.04567771240510805
 40
0.7993498591637838
 40
0.7993498591637838
 40
0.7993498591637838
 40
0.7993498591637838
 40
0.7993498591637838
 40
0.7993498591637838
 40
0.7993498591637838
 40
1.0
 40
1.0
 40
1.0
 40
1.0
 40
1.0
 40
1.0
 40
1.0
 40
1.0
 40
1.0
 10
47.142687703458165
 20
-232.09999839413982
 30
1289.0
 10
47.185915053472854
 20
-231.97853658551034
 30
1289.0
 10
47.229121523534886
 20
-231.85663573486403
 30
1289.0
 10
47.272307085039614
 20
-231.73429517318561
 30
1289.0
 10
47.3154717141427
 20
-231.6115142437735
 30
1289.0
 10
47.358615391760154
 20
-231.4882923022399
 30
1289.0
 10
47.4017381035683
 20
-231.36462871651065
 30
1289.0
 10
47.444839840003795
 20
-231.2405228668254
 30
1289.0
 10
48.198743541300225
 20
-229.0609478089137
 30
1289.0
 10
48.86739176700735
 20
-226.9915383656396
 30
1289.0
 10
49.50213004941471
 20
-224.9112475793316
 30
1289.0
 10
50.10779167743666
 20
-222.82230253460256
 30
1289.0
 10
50.688152427701965
 20
-220.72636748920164
 30
1289.0
 10
51.246004043502765
 20
-218.6245611909027
 30
1289.0
 10
51.7836692749251
 20
-216.51761747084234
 30
1289.0
 10
52.44132933289586
 20
-213.843693396098
 30
1289.0
 10
52.578303806981985
 20
-213.28117420669773
 30
1289.0
 10
52.7140122846897
 20
-212.71835013079203
 30
1289.0
 10
52.848487820281235
 20
-212.1552314891482
 30
1289.0
 10
52.98176151064903
 20
-211.59182807445356
 30
1289.0
 10
53.11386268313575
 20
-211.02814919099933
 30
1289.0
 10
53.244819057726424
 20
-210.46420368892254
 30
1289.0
 10
53.37465688797101
 20
-209.89999999394175
 30
1289.0
  0
LINE
  5
79
330
17
100
AcDbEntity
  8
0
100
AcDbLine
 10
26.691813156250664
 20
-232.1
 30
1289.0
 11
47.14269221566355
 21
-232.1
 31
1289.0
  0
SPLINE
  5
7A
330
17
100
AcDbEntity
  8
0
100
AcDbSpline
 70
0
 71
1
 72
4
 73
2
 74
0
 40
0.0
 40
0.0
 40
1.0
 40
1.0
 10
26.691813156254184
 20
-235.90000060000008
 30
1289.0
 10
26.691813156254184
 20
-232.09999939999992
 30
1289.0
  0
LINE
  5
7B
330
17
100
AcDbEntity
  8
0
100
AcDbLine
 10
26.691813156250664
 20
-235.9
 30
1289.0
 11
45.707217998903644
 21
-235.9
 31
1289.0
  0
SPLINE
  5
7C
330
17
100
AcDbEntity
  8
0
100
AcDbSpline
 70
0
 71
8
 72
81
 73
72
 74
0
 40
0.0
 40
0.0
 40
0.0
 40
0.0
 40
0.0
 40
0.0
 40
0.0
 40
0.0
 40
0.0
 40
0.024487735226741646
 40
0.024487735226741646
 40
0.024487735226741646
 40
0.024487735226741646
 40
0.024487735226741646
 40
0.024487735226741646
 40
0.024487735226741646
 40
0.03535124873046466
 40
0.03535124873046466
 40
0.03535124873046466
 40
0.03535124873046466
 40
0.03535124873046466
 40
0.03535124873046466
 40
0.03535124873046466
 40
0.057064458037274314
 40
0.057064458037274314
 40
0.057064458037274314
 40
0.057064458037274314
 40
0.057064458037274314
 40
0.057064458037274314
 40
0.057064458037274314
 40
0.06062952764071691
 40
0.06062952764071691
 40
0.06062952764071691
 40
0.06062952764071691
 40
0.06062952764071691
 40
0.06062952764071691
 40
0.06062952764071691
 40
0.06416536811869836
 40
0.06416536811869836
 40
0.06416536811869836
 40
0.06416536811869836
 40
0.06416536811869836
 40
0.06416536811869836
 40
0.06416536811869836
 40
0.06951769571788366
 40
0.06951769571788366
 40
0.06951769571788366
 40
0.06951769571788366
 40
0.06951769571788366
 40
0.06951769571788366
 40
0.06951769571788366
 40
0.07934162290037904
 40
0.07934162290037904
 40
0.07934162290037904
 40
0.07934162290037904
 40
0.07934162290037904
 40
0.07934162290037904
 40
0.07934162290037904
 40
0.08645989279727652
 40
0.08645989279727652
 40
0.08645989279727652
 40
0.08645989279727652
 40
0.08645989279727652
 40
0.08645989279727652
 40
0.08645989279727652
 40
0.0996147517746584
 40
0.0996147517746584
 40
0.0996147517746584
 40
0.0996147517746584
 40
0.0996147517746584
 40
0.0996147517746584
 40
0.0996147517746584
 40
0.11559417647486013
 40
0.11559417647486013
 40
0.11559417647486013
 40
0.11559417647486013
 40
0.11559417647486013
 40
0.11559417647486013
 40
0.11559417647486013
 40
0.11559417647486013
 40
0.11559417647486013
 10
5.071842224766698
 20
-230.0983484920098
 30
1289.0
 10
5.247385997901113
 20
-231.82996435869785
 30
1289.0
 10
5.493335163649117
 20
-233.55382914638534
 30
1289.0
 10
5.815855888524638
 20
-235.26692515069496
 30
1289.0
 10
6.22178364458213
 20
-236.9640563660515
 30
1289.0
 10
6.718312213715508
 20
-238.63793703968673
 30
1289.0
 10
7.312574014799552
 20
-240.2793113514501
 30
1289.0
 10
8.011111753673774
 20
-241.8771042194273
 30
1289.0
 10
9.177752593535223
 20
-244.10245966713222
 30
1289.0
 10
9.557739034118597
 20
-244.7750592226982
 30
1289.0
 10
9.959584520028105
 20
-245.43518620170533
 30
1289.0
 10
10.383583477681372
 20
-246.0815369919599
 30
1289.0
 10
10.829919950294236
 20
-246.71273440930656
 30
1289.0
 10
11.298643869069897
 20
-247.3273440066419
 30
1289.0
 10
11.789644602887353
 20
-247.9238923480651
 30
1289.0
 10
13.32792367922807
 20
-249.65414314743072
 30
1289.0
 10
14.44190227364426
 20
-250.73027710536778
 30
1289.0
 10
15.641202057958973
 20
-251.71577246075333
 30
1289.0
 10
16.920140623005828
 20
-252.59871390494123
 30
1289.0
 10
18.2706715576199
 20
-253.36885986477185
 30
1289.0
 10
19.682421686708615
 20
-254.01757793044425
 30
1289.0
 10
21.142692208462048
 20
-254.537856625375
 30
1289.0
 10
22.881549402719358
 20
-254.98810693271238
 30
1289.0
 10
23.12771364932739
 20
-255.04803335377562
 30
1289.0
 10
23.37475203861905
 20
-255.1043339249416
 30
1289.0
 10
23.622640403441366
 20
-255.15682448762573
 30
1289.0
 10
23.871348205189825
 20
-255.20531052719
 30
1289.0
 10
24.120823095175037
 20
-255.2496395781334
 30
1289.0
 10
24.37099623001974
 20
-255.2896843852561
 30
1289.0
 10
24.8705641055793
 20
-255.3605376067256
 30
1289.0
 10
25.1194609508241
 20
-255.39135773046766
 30
1289.0
 10
25.368488193651526
 20
-255.41760107897966
 30
1289.0
 10
25.617635150892006
 20
-255.4391515392149
 30
1289.0
 10
25.86689113937521
 20
-255.45589299812568
 30
1289.0
 10
26.116245475930103
 20
-255.46770934266297
 30
1289.0
 10
26.365687477384927
 20
-255.47448445977687
 30
1289.0
 10
26.99291222770342
 20
-255.478551122505
 30
1289.0
 10
27.370726492761843
 20
-255.46918224870873
 30
1289.0
 10
27.74818063332649
 20
-255.44759694916883
 30
1289.0
 10
28.12478512213831
 20
-255.413473500611
 30
1289.0
 10
28.500030967139686
 20
-255.36658142588234
 30
1289.0
 10
28.873391151519023
 20
-255.30679579748917
 30
1289.0
 10
29.24432207375533
 20
-255.23411154113379
 30
1289.0
 10
30.287605636484713
 20
-254.9918115986531
 30
1289.0
 10
30.953159385420282
 20
-254.79188106413397
 30
1289.0
 10
31.605204338216538
 20
-254.54965334989365
 30
1289.0
 10
32.241078834531265
 20
-254.26723608491307
 30
1289.0
 10
32.85897822081142
 20
-253.9476318602953
 30
1289.0
 10
33.45777023297047
 20
-253.59433594432312
 30
1289.0
 10
34.03684469394688
 20
-253.21100359088908
 30
1289.0
 10
35.001178340697074
 20
-252.50432002511076
 30
1289.0
 10
35.39605363509307
 20
-252.19340760838696
 30
1289.0
 10
35.78072595074409
 20
-251.86971915277695
 30
1289.0
 10
36.15538061939662
 20
-251.53442309306456
 30
1289.0
 10
36.520275502260844
 20
-251.18860391899065
 30
1289.0
 10
36.87572171592396
 20
-250.83324049108327
 30
1289.0
 10
37.222071048130054
 20
-250.4691920161449
 30
1289.0
 10
38.18368101364628
 20
-249.40971958582026
 30
1289.0
 10
38.777641130587526
 20
-248.69537877652962
 30
1289.0
 10
39.34423481906337
 20
-247.9586517210356
 30
1289.0
 10
39.88575659429402
 20
-247.20323994647094
 30
1289.0
 10
40.40427329309524
 20
-246.43215298228338
 30
1289.0
 10
40.901690058566025
 20
-245.64775591031602
 30
1289.0
 10
41.3797865859774
 20
-244.8517954414378
 30
1289.0
 10
42.39958278261408
 20
-243.0659122452427
 30
1289.0
 10
42.93261340517
 20
-242.0715366602113
 30
1289.0
 10
43.44221318100668
 20
-241.06473335570638
 30
1289.0
 10
43.93065037255271
 20
-240.04744564944525
 30
1289.0
 10
44.3998228655239
 20
-239.0212370071019
 30
1289.0
 10
44.85137286692081
 20
-237.98734593186128
 30
1289.0
 10
45.28674112035978
 20
-236.94671177540317
 30
1289.0
 10
45.70721801470717
 20
-235.90000000634853
 30
1289.0
  0
SPLINE
  5
7D
330
17
100
AcDbEntity
  8
0
100
AcDbSpline
 70
0
 71
8
 72
410
 73
401
 74
0
 40
0.0
 40
0.0
 40
0.0
 40
0.0
 40
0.0
 40
0.0
 40
0.0
 40
0.0
 40
0.0
 40
0.002958077234513804
 40
0.002958077234513804
 40
0.002958077234513804
 40
0.002958077234513804
 40
0.002958077234513804
 40
0.002958077234513804
 40
0.002958077234513804
 40
0.006047817829315193
 40
0.006047817829315193
 40
0.006047817829315193
 40
0.006047817829315193
 40
0.006047817829315193
 40
0.006047817829315193
 40
0.006047817829315193
 40
0.009446532483645688
 40
0.009446532483645688
 40
0.009446532483645688
 40
0.009446532483645688
 40
0.009446532483645688
 40
0.009446532483645688
 40
0.009446532483645688
 40
0.011609350900043953
 40
0.011609350900043953
 40
0.011609350900043953
 40
0.011609350900043953
 40
0.011609350900043953
 40
0.011609350900043953
 40
0.011609350900043953
 40
0.014699091494962159
 40
0.014699091494962159
 40
0.014699091494962159
 40
0.014699091494962159
 40
0.014699091494962159
 40
0.014699091494962159
 40
0.014699091494962159
 40
0.018097806149422174
 40
0.018097806149422174
 40
0.018097806149422174
 40
0.018097806149422174
 40
0.018097806149422174
 40
0.018097806149422174
 40
0.018097806149422174
 40
0.024104227106487235
 40
0.024104227106487235
 40
0.024104227106487235
 40
0.024104227106487235
 40
0.024104227106487235
 40
0.024104227106487235
 40
0.024104227106487235
 40
0.03406125750573706
 40
0.03406125750573706
 40
0.03406125750573706
 40
0.03406125750573706
 40
0.03406125750573706
 40
0.03406125750573706
 40
0.03406125750573706
 40
0.05524813690495421
 40
0.05524813690495421
 40
0.05524813690495421
 40
0.05524813690495421
 40
0.05524813690495421
 40
0.05524813690495421
 40
0.05524813690495421
 40
0.06951358316028794
 40
0.06951358316028794
 40
0.06951358316028794
 40
0.06951358316028794
 40
0.06951358316028794
 40
0.06951358316028794
 40
0.06951358316028794
 40
0.07700899892191591
 40
0.07700899892191591
 40
0.07700899892191591
 40
0.07700899892191591
 40
0.07700899892191591
 40
0.07700899892191591
 40
0.07700899892191591
 40
0.08618287998635164
 40
0.08618287998635164
 40
0.08618287998635164
 40
0.08618287998635164
 40
0.08618287998635164
 40
0.08618287998635164
 40
0.08618287998635164
 40
0.1291904362052714
 40
0.1291904362052714
 40
0.1291904362052714
 40
0.1291904362052714
 40
0.1291904362052714
 40
0.1291904362052714
 40
0.1291904362052714
 40
0.21442598532360302
 40
0.21442598532360302
 40
0.21442598532360302
 40
0.21442598532360302
 40
0.21442598532360302
 40
0.21442598532360302
 40
0.21442598532360302
 40
0.31942360636324085
 40
0.31942360636324085
 40
0.31942360636324085
 40
0.31942360636324085
 40
0.31942360636324085
 40
0.31942360636324085
 40
0.31942360636324085
 40
0.3728552130346921
 40
0.3728552130346921
 40
0.3728552130346921
 40
0.3728552130346921
 40
0.3728552130346921
 40
0.3728552130346921
 40
0.3728552130346921
 40
0.499151013399915
 40
0.499151013399915
 40
0.499151013399915
 40
0.499151013399915
 40
0.499151013399915
 40
0.499151013399915
 40
0.499151013399915
 40
0.5475886829827276
 40
0.5475886829827276
 40
0.5475886829827276
 40
0.5475886829827276
 40
0.5475886829827276
 40
0.5475886829827276
 40
0.5475886829827276
 40
0.5641940145298203
 40
0.5641940145298203
 40
0.5641940145298203
 40
0.5641940145298203
 40
0.5641940145298203
 40
0.5641940145298203
 40
0.5641940145298203
 40
0.5807993631378388
 40
0.5807993631378388
 40
0.5807993631378388
 40
0.5807993631378388
 40
0.5807993631378388
 40
0.5807993631378388
 40
0.5807993631378388
 40
0.6065954849197804
 40
0.6065954849197804
 40
0.6065954849197804
 40
0.6065954849197804
 40
0.6065954849197804
 40
0.6065954849197804
 40
0.6065954849197804
 40
0.6194627167255344
 40
0.6194627167255344
 40
0.6194627167255344
 40
0.6194627167255344
 40
0.6194627167255344
 40
0.6194627167255344
 40
0.6194627167255344
 40
0.6255445764809041
 40
0.6255445764809041
 40
0.6255445764809041
 40
0.6255445764809041
 40
0.6255445764809041
 40
0.6255445764809041
 40
0.6255445764809041
 40
0.6296997262197801
 40
0.6296997262197801
 40
0.6296997262197801
 40
0.6296997262197801
 40
0.6296997262197801
 40
0.6296997262197801
 40
0.6296997262197801
 40
0.6312530009704264
 40
0.6312530009704264
 40
0.6312530009704264
 40
0.6312530009704264
 40
0.6312530009704264
 40
0.6312530009704264
 40
0.6312530009704264
 40
0.633693861292858
 40
0.633693861292858
 40
0.633693861292858
 40
0.633693861292858
 40
0.633693861292858
 40
0.633693861292858
 40
0.633693861292858
 40
0.6361347216152624
 40
0.6361347216152624
 40
0.6361347216152624
 40
0.6361347216152624
 40
0.6361347216152624
 40
0.6361347216152624
 40
0.6361347216152624
 40
0.6384166205120503
 40
0.6384166205120503
 40
0.6384166205120503
 40
0.6384166205120503
 40
0.6384166205120503
 40
0.6384166205120503
 40
0.6384166205120503
 40
0.640699065257009
 40
0.640699065257009
 40
0.640699065257009
 40
0.640699065257009
 40
0.640699065257009
 40
0.640699065257009
 40
0.640699065257009
 40
0.6427950511967725
 40
0.6427950511967725
 40
0.6427950511967725
 40
0.6427950511967725
 40
0.6427950511967725
 40
0.6427950511967725
 40
0.6427950511967725
 40
0.644891037136541
 40
0.644891037136541
 40
0.644891037136541
 40
0.644891037136541
 40
0.644891037136541
 40
0.644891037136541
 40
0.644891037136541
 40
0.6466376920863521
 40
0.6466376920863521
 40
0.6466376920863521
 40
0.6466376920863521
 40
0.6466376920863521
 40
0.6466376920863521
 40
0.6466376920863521
 40
0.6483843470361692
 40
0.6483843470361692
 40
0.6483843470361692
 40
0.6483843470361692
 40
0.6483843470361692
 40
0.6483843470361692
 40
0.6483843470361692
 40
0.6517798353783043
 40
0.6517798353783043
 40
0.6517798353783043
 40
0.6517798353783043
 40
0.6517798353783043
 40
0.6517798353783043
 40
0.6517798353783043
 40
0.6574086581813519
 40
0.6574086581813519
 40
0.6574086581813519
 40
0.6574086581813519
 40
0.6574086581813519
 40
0.6574086581813519
 40
0.6574086581813519
 40
0.6693858567948345
 40
0.6693858567948345
 40
0.6693858567948345
 40
0.6693858567948345
 40
0.6693858567948345
 40
0.6693858567948345
 40
0.6693858567948345
 40
0.6774502881822979
 40
0.6774502881822979
 40
0.6774502881822979
 40
0.6774502881822979
 40
0.6774502881822979
 40
0.6774502881822979
 40
0.6774502881822979
 40
0.6816875385804688
 40
0.6816875385804688
 40
0.6816875385804688
 40
0.6816875385804688
 40
0.6816875385804688
 40
0.6816875385804688
 40
0.6816875385804688
 40
0.6868736456272665
 40
0.6868736456272665
 40
0.6868736456272665
 40
0.6868736456272665
 40
0.6868736456272665
 40
0.6868736456272665
 40
0.6868736456272665
 40
0.7111852223078595
 40
0.7111852223078595
 40
0.7111852223078595
 40
0.7111852223078595
 40
0.7111852223078595
 40
0.7111852223078595
 40
0.7111852223078595
 40
0.7593576794211968
 40
0.7593576794211968
 40
0.7593576794211968
 40
0.7593576794211968
 40
0.7593576794211968
 40
0.7593576794211968
 40
0.7593576794211968
 40
0.7885019095712708
 40
0.7885019095712708
 40
0.7885019095712708
 40
0.7885019095712708
 40
0.7885019095712708
 40
0.7885019095712708
 40
0.7885019095712708
 40
0.8186733115284568
 40
0.8186733115284568
 40
0.8186733115284568
 40
0.8186733115284568
 40
0.8186733115284568
 40
0.8186733115284568
 40
0.8186733115284568
 40
0.848843679390469
 40
0.848843679390469
 40
0.848843679390469
 40
0.848843679390469
 40
0.848843679390469
 40
0.848843679390469
 40
0.848843679390469
 40
0.9201253852935396
 40
0.9201253852935396
 40
0.9201253852935396
 40
0.9201253852935396
 40
0.9201253852935396
 40
0.9201253852935396
 40
0.9201253852935396
 40
0.9474550754812708
 40
0.9474550754812708
 40
0.9474550754812708
 40
0.9474550754812708
 40
0.9474550754812708
 40
0.9474550754812708
 40
0.9474550754812708
 40
0.9568236440171417
 40
0.9568236440171417
 40
0.9568236440171417
 40
0.9568236440171417
 40
0.9568236440171417
 40
0.9568236440171417
 40
0.9568236440171417
 40
0.9661922221689502
 40
0.9661922221689502
 40
0.9661922221689502
 40
0.9661922221689502
 40
0.9661922221689502
 40
0.9661922221689502
 40
0.9661922221689502
 40
0.9807461499164531
 40
0.9807461499164531
 40
0.9807461499164531
 40
0.9807461499164531
 40
0.9807461499164531
 40
0.9807461499164531
 40
0.9807461499164531
 40
0.9880057277984169
 40
0.9880057277984169
 40
0.9880057277984169
 40
0.9880057277984169
 40
0.9880057277984169
 40
0.9880057277984169
 40
0.9880057277984169
 40
0.9914370669324069
 40
0.9914370669324069
 40
0.9914370669324069
 40
0.9914370669324069
 40
0.9914370669324069
 40
0.9914370669324069
 40
0.9914370669324069
 40
0.9937813853434059
 40
0.9937813853434059
 40
0.9937813853434059
 40
0.9937813853434059
 40
0.9937813853434059
 40
0.9937813853434059
 40
0.9937813853434059
 40
0.9946577431586447
 40
0.9946577431586447
 40
0.9946577431586447
 40
0.9946577431586447
 40
0.9946577431586447
 40
0.9946577431586447
 40
0.9946577431586447
 40
0.9960348768683067
 40
0.9960348768683067
 40
0.9960348768683067
 40
0.9960348768683067
 40
0.9960348768683067
 40
0.9960348768683067
 40
0.9960348768683067
 40
0.997412010577967
 40
0.997412010577967
 40
0.997412010577967
 40
0.997412010577967
 40
0.997412010577967
 40
0.997412010577967
 40
0.997412010577967
 40
0.9984135623668087
 40
0.9984135623668087
 40
0.9984135623668087
 40
0.9984135623668087
 40
0.9984135623668087
 40
0.9984135623668087
 40
0.9984135623668087
 40
1.0
 40
1.0
 40
1.0
 40
1.0
 40
1.0
 40
1.0
 40
1.0
 40
1.0
 40
1.0
 10
5.071842224766702
 20
230.0983484920098
 30
1289.0
 10
5.071699267668913
 20
230.09849149953104
 30
1289.0
 10
5.071728562112718
 20
230.09829116701115
 30
1289.0
 10
5.0718194017381375
 20
230.0980606585837
 30
1289.0
 10
5.071896824315867
 20
230.09795467651932
 30
1289.0
 10
5.071921611747277
 20
230.09796946122586
 30
1289.0
 10
5.071890290064417
 20
230.09794279124839
 30
1289.0
 10
5.071835129430009
 20
230.0975539832694
 30
1289.0
 10
5.071812669891979
 20
230.09503904986332
 30
1289.0
 10
5.071795647659672
 20
230.09313296521412
 30
1289.0
 10
5.0717715126237435
 20
230.0904304159442
 30
1289.0
 10
5.071738699967394
 20
230.08675617983678
 30
1289.0
 10
5.071695644873828
 20
230.08193503467544
 30
1289.0
 10
5.071640782526249
 20
230.07579175824358
 30
1289.0
 10
5.0715725481078575
 20
230.06815112832473
 30
1289.0
 10
5.071397888365262
 20
230.04859339651756
 30
1289.0
 10
5.071288326294659
 20
230.0363250537315
 30
1289.0
 10
5.071158607818895
 20
230.02179967357384
 30
1289.0
 10
5.071006650166811
 20
230.00478403527416
 30
1289.0
 10
5.070830370567248
 20
229.98504491806224
 30
1289.0
 10
5.070627686249053
 20
229.96234910116794
 30
1289.0
 10
5.07039651444107
 20
229.936463363821
 30
1289.0
 10
5.069968209237368
 20
229.88850338070688
 30
1289.0
 10
5.069789266410145
 20
229.86846604541913
 30
1289.0
 10
5.0695974071583105
 20
229.846982378168
 30
1289.0
 10
5.069392094749705
 20
229.82399227773317
 30
1289.0
 10
5.069172792452166
 20
229.79943564289445
 30
1289.0
 10
5.068938963533533
 20
229.7732523724314
 30
1289.0
 10
5.068690071261641
 20
229.74538236512373
 30
1289.0
 10
5.0680477326796005
 20
229.67345574064657
 30
1289.0
 10
5.067638049545861
 20
229.62758098590078
 30
1289.0
 10
5.067194964686315
 20
229.57796603329612
 30
1289.0
 10
5.0667169132841545
 20
229.52443566061527
 30
1289.0
 10
5.066202330522582
 20
229.46681464564153
 30
1289.0
 10
5.065649651584803
 20
229.40492776615844
 30
1289.0
 10
5.065057311654023
 20
229.33859979995012
 30
1289.0
 10
5.063726823598828
 20
229.18961682213612
 30
1289.0
 10
5.062980018054345
 20
229.10599238565152
 30
1289.0
 10
5.06218124650885
 20
229.01654899457697
 30
1289.0
 10
5.061328426191186
 20
228.921053428142
 30
1289.0
 10
5.060419474330195
 20
228.8192724655763
 30
1289.0
 10
5.05945230815472
 20
228.71097288610963
 30
1289.0
 10
5.058424844893607
 20
228.59592146897182
 30
1289.0
 10
5.055408962902527
 20
228.25821450646887
 30
1289.0
 10
5.0534814010565725
 20
228.04237348286458
 30
1289.0
 10
5.051552841320012
 20
227.82642071926463
 30
1289.0
 10
5.049623570321351
 20
227.61038831126064
 30
1289.0
 10
5.04769378092237
 20
227.39429785476696
 30
1289.0
 10
5.045763597372894
 20
227.17816326279103
 30
1289.0
 10
5.04383306355142
 20
226.96198944870292
 30
1289.0
 10
5.038701286208486
 20
226.38735259492358
 30
1289.0
 10
5.035499609436854
 20
226.0288410415228
 30
1289.0
 10
5.032297373150927
 20
225.67026683588426
 30
1289.0
 10
5.029094717064909
 20
225.31164562258482
 30
1289.0
 10
5.0258917383893085
 20
224.95298828693592
 30
1289.0
 10
5.0226885028328665
 20
224.59430218679876
 30
1289.0
 10
5.019485043989437
 20
224.23559108379322
 30
1289.0
 10
5.00946450156044
 20
223.1135289618872
 30
1289.0
 10
5.002646790874852
 20
222.35010772270655
 30
1289.0
 10
4.995828513102908
 20
221.58662298335773
 30
1289.0
 10
4.9890098238679785
 20
220.82309216995327
 30
1289.0
 10
4.982190828785551
 20
220.05952710891341
 30
1289.0
 10
4.97537159694182
 20
219.2959355362454
 30
1289.0
 10
4.968552157093255
 20
218.5323206719889
 30
1289.0
 10
4.95714074272429
 20
217.25451401516221
 30
1289.0
 10
4.952403079645825
 20
216.72400857352912
 30
1289.0
 10
4.94751681928822
 20
216.17686377534187
 30
1289.0
 10
4.942479257648046
 20
215.61277683660998
 30
1289.0
 10
4.93728769072188
 20
215.03144497334338
 30
1289.0
 10
4.931939414506298
 20
214.43256540155195
 30
1289.0
 10
4.926431724997872
 20
213.81583533724532
 30
1289.0
 10
4.917782862471499
 20
212.84736869911885
 30
1289.0
 10
4.914803810768186
 20
212.51378361524817
 30
1289.0
 10
4.911824734779122
 20
212.18019684897445
 30
1289.0
 10
4.9088456220351695
 20
211.84660849758848
 30
1289.0
 10
4.90586647590217
 20
211.51301865151837
 30
1289.0
 10
4.9028873155809425
 20
211.17942739432945
 30
1289.0
 10
4.899908176107286
 20
210.84583480272445
 30
1289.0
 10
4.893282931256636
 20
210.10394466815703
 30
1289.0
 10
4.889579886446243
 20
209.68925575688922
 30
1289.0
 10
4.885820794358667
 20
209.2682342516636
 30
1289.0
 10
4.882006475431772
 20
208.84094019140437
 30
1289.0
 10
4.878137750103429
 20
208.40743361503516
 30
1289.0
 10
4.8742154388115075
 20
207.9677745614803
 30
1289.0
 10
4.8702403619938766
 20
207.52202306966396
 30
1289.0
 10
4.847334485023934
 20
204.9522565099837
 30
1289.0
 10
4.828495495418637
 20
202.83424224492398
 30
1289.0
 10
4.809716850750808
 20
200.71620558373743
 30
1289.0
 10
4.791008937522339
 20
198.59815170457227
 30
1289.0
 10
4.772379391965572
 20
196.48008419282868
 30
1289.0
 10
4.753834596708328
 20
194.3620055457839
 30
1289.0
 10
4.735379220372818
 20
192.24391704161684
 30
1289.0
 10
4.680627451190462
 20
185.92801675496426
 30
1289.0
 10
4.644605801448946
 20
181.73018109043448
 30
1289.0
 10
4.608986059913171
 20
177.53232118691798
 30
1289.0
 10
4.573792405965554
 20
173.33444206241467
 30
1289.0
 10
4.539048121573612
 20
169.13654720076448
 30
1289.0
 10
4.50477742766199
 20
164.93863906719253
 30
1289.0
 10
4.471005290602122
 20
160.74071899999822
 30
1289.0
 10
4.3968057602144075
 20
151.37155570403135
 30
1289.0
 10
4.3566507899995095
 20
146.2003076641331
 30
1289.0
 10
4.317346295955899
 20
141.02904582718136
 30
1289.0
 10
4.278950106361774
 20
135.85777182784483
 30
1289.0
 10
4.241527805563672
 20
130.68648692117281
 30
1289.0
 10
4.205155686727672
 20
125.51519212758582
 30
1289.0
 10
4.169925098772359
 20
120.34388829548882
 30
1289.0
 10
4.118657881837435
 20
112.540978170461
 30
1289.0
 10
4.101692925090392
 20
109.90937811583987
 30
1289.0
 10
4.085038447639621
 20
107.27777621658944
 30
1289.0
 10
4.068680959267501
 20
104.64617275885071
 30
1289.0
 10
4.052608186892428
 20
102.01456801998434
 30
1289.0
 10
4.036808912319638
 20
99.38296227259522
 30
1289.0
 10
4.021272809992019
 20
96.75135578855698
 30
1289.0
 10
3.969867119475557
 20
87.89944355678756
 30
1289.0
 10
3.9351607050791473
 20
81.67913719550677
 30
1289.0
 10
3.901744766771884
 20
75.45883180736638
 30
1289.0
 10
3.869515919121993
 20
69.23853093637194
 30
1289.0
 10
3.838388420441091
 20
63.01823896541123
 30
1289.0
 10
3.8082817539501335
 20
56.79796384508808
 30
1289.0
 10
3.7791276136892287
 20
50.57771468258619
 30
1289.0
 10
3.739982242465134
 20
41.97190545700339
 30
1289.0
 10
3.7292573462063165
 20
39.586306449808944
 30
1289.0
 10
3.7186536446818503
 20
37.20071584670665
 30
1289.0
 10
3.708165635511183
 20
34.815135001001664
 30
1289.0
 10
3.6977861946907713
 20
32.42956647234002
 30
1289.0
 10
3.687507028485165
 20
30.0440139005064
 30
1289.0
 10
3.677317168607193
 20
27.658482524015607
 30
1289.0
 10
3.663725777897973
 20
24.455187688331055
 30
1289.0
 10
3.6603365310087552
 20
23.654503091748307
 30
1289.0
 10
3.6570277340771544
 20
22.87123125988513
 30
1289.0
 10
3.653799232544127
 20
22.105675604416547
 30
1289.0
 10
3.6506508718506328
 20
21.358139537017482
 30
1289.0
 10
3.647582497437629
 20
20.628926469362707
 30
1289.0
 10
3.644593954746075
 20
19.91833981312689
 30
1289.0
 10
3.6387762206991034
 20
18.535025436208787
 30
1289.0
 10
3.6359470822573083
 20
17.86232526514327
 30
1289.0
 10
3.6331963978788093
 20
17.208279380847
 30
1289.0
 10
3.630522891972124
 20
16.572584693349725
 30
1289.0
 10
3.627925289367015
 20
15.954938108652032
 30
1289.0
 10
3.625402315314488
 20
15.355036528725316
 30
1289.0
 10
3.6229526954867954
 20
14.772576851511799
 30
1289.0
 10
3.6168816894822307
 20
13.329039763258645
 30
1289.0
 10
3.6131883144109262
 20
12.450845293967959
 30
1289.0
 10
3.609495032325536
 20
11.572672934448729
 30
1289.0
 10
3.6058018561298453
 20
10.69452575292658
 30
1289.0
 10
3.6021088166100563
 20
9.816411069599862
 30
1289.0
 10
3.598415960794562
 20
8.938340066661546
 30
1289.0
 10
3.594723357948397
 20
8.060329213664605
 30
1289.0
 10
3.589189427155547
 20
6.744495505495113
 30
1289.0
 10
3.58734783562214
 20
6.30660997584215
 30
1289.0
 10
3.5855063572405363
 20
5.868751350897831
 30
1289.0
 10
3.5836650081117183
 20
5.430923459144566
 30
1289.0
 10
3.5818238247775303
 20
4.993134989309947
 30
1289.0
 10
3.579982862680956
 20
4.555399124348973
 30
1289.0
 10
3.5781422030540218
 20
4.117735179314348
 30
1289.0
 10
3.575432183211496
 20
3.4733585884091234
 30
1289.0
 10
3.5745624924334494
 20
3.266567342865983
 30
1289.0
 10
3.573692919904705
 20
3.0598042140976744
 30
1289.0
 10
3.572823483606672
 20
2.8530734776974214
 30
1289.0
 10
3.571954216840833
 20
2.64638305191502
 30
1289.0
 10
3.5710851682591445
 20
2.4397445049710456
 30
1289.0
 10
3.5702164070648554
 20
2.233174291763593
 30
1289.0
 10
3.568754772923634
 20
1.8856333585600566
 30
1289.0
 10
3.5681617529944285
 20
1.7446276898187705
 30
1289.0
 10
3.5675689591786712
 20
1.6036757851057928
 30
1289.0
 10
3.56697642527306
 20
1.4627856811998754
 30
1289.0
 10
3.56638422405623
 20
1.3219746819240754
 30
1289.0
 10
3.5657925245490496
 20
1.1812829774382863
 30
1289.0
 10
3.565201542249634
 20
1.0407618072584626
 30
1289.0
 10
3.564391262278589
 20
0.8480970019209763
 30
1289.0
 10
3.5641805626398058
 20
0.7979977691352057
 30
1289.0
 10
3.563979389282698
 20
0.7501636536794711
 30
1289.0
 10
3.5637874891808106
 20
0.704534492037371
 30
1289.0
 10
3.563604609307694
 20
0.6610501206924128
 30
1289.0
 10
3.5634304966368915
 20
0.6196503761280131
 30
1289.0
 10
3.56326489814195
 20
0.5802750948274992
 30
1289.0
 10
3.5628603163962884
 20
0.48407542797622233
 30
1289.0
 10
3.562633471977354
 20
0.43013736042197237
 30
1289.0
 10
3.562426045678939
 20
0.380816448102619
 30
1289.0
 10
3.5622370556403733
 20
0.3358792285094214
 30
1289.0
 10
3.562065520000989
 20
0.2950922391336357
 30
1289.0
 10
3.561910456900115
 20
0.2582220174665143
 30
1289.0
 10
3.561770884477082
 20
0.22503510099930676
 30
1289.0
 10
3.561520757265359
 20
0.16556095344753885
 30
1289.0
 10
3.5614102024766683
 20
0.1392737223625825
 30
1289.0
 10
3.5613131746444773
 20
0.11620287145994317
 30
1289.0
 10
3.561228691908118
 20
0.09611493823106759
 30
1289.0
 10
3.561155772406921
 20
0.07877646016729654
 30
1289.0
 10
3.5610934342802163
 20
0.0639539747598649
 30
1289.0
 10
3.5610406956673333
 20
0.05141401949990154
 30
1289.0
 10
3.5609553271325476
 20
0.031115465020128852
 30
1289.0
 10
3.5609172372784346
 20
0.022058627154407873
 30
1289.0
 10
3.560884775286462
 20
0.014339957560718375
 30
1289.0
 10
3.560859659967185
 20
0.008368147486010002
 30
1289.0
 10
3.5608425717655376
 20
0.0043049901143028535
 30
1289.0
 10
3.5608326878659056
 20
0.0019548399504287772
 30
1289.0
 10
3.5608277888581026
 20
0.0007899754397833192
 30
1289.0
 10
3.560823583409029
 20
-0.0002099777319557461
 30
1289.0
 10
3.560825042359646
 20
-5.109064036901145e-05
 30
1289.0
 10
3.5608238723451677
 20
0.0002494525501006706
 30
1289.0
 10
3.5608232994943543
 20
0.00022773045799340252
 30
1289.0
 10
3.5608270884818554
 20
-0.0006650177481546393
 30
1289.0
 10
3.560837092730161
 20
-0.0029711571011290516
 30
1289.0
 10
3.5608540073260335
 20
-0.007024087352675679
 30
1289.0
 10
3.560900221967144
 20
-0.0180128013176386
 30
1289.0
 10
3.5609292982749934
 20
-0.024926437828388055
 30
1289.0
 10
3.5609666023351734
 20
-0.03379643307643018
 30
1289.0
 10
3.5610134088698757
 20
-0.04492588489432918
 30
1289.0
 10
3.5610709926012913
 20
-0.058617891114628104
 30
1289.0
 10
3.5611406282516125
 20
-0.07517554956984895
 30
1289.0
 10
3.561223590543031
 20
-0.09490195809249258
 30
1289.0
 10
3.5614187178524466
 20
-0.1412984709376417
 30
1289.0
 10
3.561530882870445
 20
-0.16796857526021414
 30
1289.0
 10
3.5616589239739254
 20
-0.19841362531529882
 30
1289.0
 10
3.5618041158850775
 20
-0.23293671893543832
 30
1289.0
 10
3.561967733326097
 20
-0.2718409539531754
 30
1289.0
 10
3.5621510510191734
 20
-0.31542942820105274
 30
1289.0
 10
3.562355343686499
 20
-0.3640052395116129
 30
1289.0
 10
3.562770671353406
 20
-0.4627600242223195
 30
1289.0
 10
3.562974907834629
 20
-0.5113224758486885
 30
1289.0
 10
3.563195333180391
 20
-0.5637342444349724
 30
1289.0
 10
3.5634326850771436
 20
-0.6201707338195598
 30
1289.0
 10
3.5636877012113426
 20
-0.680807347840759
 30
1289.0
 10
3.563961119269441
 20
-0.7458194903368015
 30
1289.0
 10
3.564253676937892
 20
-0.8153825651458391
 30
1289.0
 10
3.5648785468684054
 20
-0.9639613870663054
 30
1289.0
 10
3.565210859130469
 20
-1.0429771341778624
 30
1289.0
 10
3.5655637863757907
 20
-1.1268946212789808
 30
1289.0
 10
3.565938066290828
 20
-1.2158892522079905
 30
1289.0
 10
3.5663344365620326
 20
-1.3101364308031873
 30
1289.0
 10
3.5667536348758584
 20
-1.4098115609028323
 30
1289.0
 10
3.567196398918758
 20
-1.5150900463451507
 30
1289.0
 10
3.568571443141718
 20
-1.8420420098806893
 30
1289.0
 10
3.569480136440604
 20
-2.058107103178557
 30
1289.0
 10
3.5703892992266573
 20
-2.274283829068498
 30
1289.0
 10
3.571298796645571
 20
-2.490540122489449
 30
1289.0
 10
3.5722085379592223
 20
-2.7068544081262083
 30
1289.0
 10
3.573118464710427
 20
-2.92321278628539
 30
1289.0
 10
3.5740285562561738
 20
-3.139610348569139
 30
1289.0
 10
3.576447780366905
 20
-3.7148428102089284
 30
1289.0
 10
3.5779571167655795
 20
-4.073726176244364
 30
1289.0
 10
3.5794667164031844
 20
-4.43267213407357
 30
1289.0
 10
3.5809765135457456
 20
-4.791665053762841
 30
1289.0
 10
3.5824864624586414
 20
-5.150694060733436
 30
1289.0
 10
3.58399653222811
 20
-5.509751804447269
 30
1289.0
 10
3.5855067070476236
 20
-5.868834526499885
 30
1289.0
 10
3.5902305951145492
 20
-6.992059840432493
 30
1289.0
 10
3.5934446033958287
 20
-7.756272584166879
 30
1289.0
 10
3.596658878478842
 20
-8.52054876684512
 30
1289.0
 10
3.5998733471428537
 20
-9.284870978359606
 30
1289.0
 10
3.6030879597002796
 20
-10.049227404216182
 30
1289.0
 10
3.6063026836495524
 20
-10.81361031633746
 30
1289.0
 10
3.6095175054576263
 20
-11.578016496893227
 30
1289.0
 10
3.614897077225251
 20
-12.857147395404512
 30
1289.0
 10
3.617130507925733
 20
-13.388202717663274
 30
1289.0
 10
3.619433990404854
 20
-13.935914643537373
 30
1289.0
 10
3.6218087993848074
 20
-14.500586270859412
 30
1289.0
 10
3.6242562095877844
 20
-15.082520697461955
 30
1289.0
 10
3.6267774957359773
 20
-15.68202102117754
 30
1289.0
 10
3.6293739325515784
 20
-16.29939033983867
 30
1289.0
 10
3.6334511822329807
 20
-17.26886082442502
 30
1289.0
 10
3.6348555971668604
 20
-17.602791682126654
 30
1289.0
 10
3.636260009918453
 20
-17.93672422071745
 30
1289.0
 10
3.637664406755548
 20
-18.270658343177733
 30
1289.0
 10
3.6390687898536918
 20
-18.60459395913339
 30
1289.0
 10
3.640473177296185
 20
-18.93853098485589
 30
1289.0
 10
3.6418776030740836
 20
-19.272469343262298
 30
1289.0
 10
3.645001146959612
 20
-20.015128406273547
 30
1289.0
 10
3.6467473107161066
 20
-20.43024701048357
 30
1289.0
 10
3.648520639034942
 20
-20.85170455073264
 30
1289.0
 10
3.6503211625953695
 20
-21.27944080120805
 30
1289.0
 10
3.652148912076644
 20
-21.71339553609703
 30
1289.0
 10
3.654003918158021
 20
-22.15350852958678
 30
1289.0
 10
3.655886211518754
 20
-22.59971955586443
 30
1289.0
 10
3.666747751828641
 20
-25.17203303281164
 30
1289.0
 10
3.675739913977339
 20
-27.29212870870841
 30
1289.0
 10
3.684792644163973
 20
-29.41224595862681
 30
1289.0
 10
3.6939162521829023
 20
-31.53237947418313
 30
1289.0
 10
3.703118323188047
 20
-33.65252557462733
 30
1289.0
 10
3.712405205482481
 20
-35.772681682253975
 30
1289.0
 10
3.72178155239189
 20
-37.892846458658994
 30
1289.0
 10
3.7500166877188432
 20
-44.214060395998644
 30
1289.0
 10
3.769150141844447
 20
-48.41512978524811
 30
1289.0
 10
3.78868535123258
 20
-52.61621809407228
 30
1289.0
 10
3.8086464609271484
 20
-56.81731999512209
 30
1289.0
 10
3.829056751596958
 20
-61.01843170483694
 30
1289.0
 10
3.849940468242194
 20
-65.219550443743
 30
1289.0
 10
3.871322633721832
 20
-69.42067454594118
 30
1289.0
 10
3.9064858305021675
 20
-76.16347633737034
 30
1289.0
 10
3.9199331259880474
 20
-78.70515108923964
 30
1289.0
 10
3.933579247525997
 20
-81.24682683333828
 30
1289.0
 10
3.9474306825713774
 20
-83.78850324372883
 30
1289.0
 10
3.961494323764081
 20
-86.33018002346724
 30
1289.0
 10
3.975777550034098
 20
-88.87185689824061
 30
1289.0
 10
3.9902883077070985
 20
-91.41353361000508
 30
1289.0
 10
4.0203018210443435
 20
-96.58646614611725
 30
1289.0
 10
4.035821507585894
 20
-99.21772193343338
 30
1289.0
 10
4.051603822920315
 20
-101.84897699710689
 30
1289.0
 10
4.067659052625846
 20
-104.48023106527654
 30
1289.0
 10
4.083998364969921
 20
-107.11148386559552
 30
1289.0
 10
4.100633979705776
 20
-109.74273512114168
 30
1289.0
 10
4.11757933686906
 20
-112.37398454632768
 30
1289.0
 10
4.15211860236998
 20
-117.63638895587779
 30
1289.0
 10
4.169713177794516
 20
-120.26754392977797
 30
1289.0
 10
4.187618186551452
 20
-122.89869666099041
 30
1289.0
 10
4.205820191779556
 20
-125.52984704060488
 30
1289.0
 10
4.22430696449519
 20
-128.16099495242145
 30
1289.0
 10
4.243067323034543
 20
-130.79214027104956
 30
1289.0
 10
4.26209097249586
 20
-133.4232828600072
 30
1289.0
 10
4.326913825939671
 20
-142.2708574453426
 30
1289.0
 10
4.373875588247097
 20
-148.48727474142407
 30
1289.0
 10
4.422127890180054
 20
-154.70367407126702
 30
1289.0
 10
4.471567664576908
 20
-160.9200532481168
 30
1289.0
 10
4.522109384650387
 20
-167.1364090082006
 30
1289.0
 10
4.573672612206456
 20
-173.35273444837225
 30
1289.0
 10
4.626189075127856
 20
-179.5690213398495
 30
1289.0
 10
4.70003123914764
 20
-188.16857703652568
 30
1289.0
 10
4.720622778237516
 20
-190.55189452732054
 30
1289.0
 10
4.741335488343489
 20
-192.93520200833285
 30
1289.0
 10
4.762163854831038
 20
-195.31849819699173
 30
1289.0
 10
4.783100722336957
 20
-197.70178062431495
 30
1289.0
 10
4.80413774902529
 20
-200.0850457552487
 30
1289.0
 10
4.825263892859272
 20
-202.4682884893476
 30
1289.0
 10
4.853723336775121
 20
-205.6684603380454
 30
1289.0
 10
4.860844634819481
 20
-206.46832544892754
 30
1289.0
 10
4.86781778694963
 20
-207.25079265980287
 30
1289.0
 10
4.874638659880911
 20
-208.01555950052327
 30
1289.0
 10
4.881303120328664
 20
-208.76232350094102
 30
1289.0
 10
4.887807035008233
 20
-209.4907821909081
 30
1289.0
 10
4.894146270634958
 20
-210.20063310027655
 30
1289.0
 10
4.906487123546753
 20
-211.58251512670458
 30
1289.0
 10
4.912488432294234
 20
-212.25451875114473
 30
1289.0
 10
4.918323322722287
 20
-212.9078874043589
 30
1289.0
 10
4.923994497861073
 20
-213.54292386250262
 30
1289.0
 10
4.929504661215264
 20
-214.15993090574685
 30
1289.0
 10
4.934856516764033
 20
-214.75921131827772
 30
1289.0
 10
4.940052768961052
 20
-215.34106788829692
 30
1289.0
 10
4.952930887544545
 20
-216.78311048891857
 30
1289.0
 10
4.960765458031543
 20
-217.66039581026234
 30
1289.0
 10
4.968599830876049
 20
-218.5376590003541
 30
1289.0
 10
4.976433978649752
 20
-219.41489698787535
 30
1289.0
 10
4.984267835916719
 20
-220.2921024455604
 30
1289.0
 10
4.992101302718066
 20
-221.16926418039483
 30
1289.0
 10
4.999934231829201
 20
-222.04636570672983
 30
1289.0
 10
5.0116730771560425
 20
-223.36083683336724
 30
1289.0
 10
5.015579553628114
 20
-223.79826916904102
 30
1289.0
 10
5.0194857895941976
 20
-224.2356745737699
 30
1289.0
 10
5.023391750831697
 20
-224.67304921544138
 30
1289.0
 10
5.027297359670495
 20
-225.11038439685038
 30
1289.0
 10
5.031202498266189
 20
-225.54766692222864
 30
1289.0
 10
5.035106993960707
 20
-225.98487745798667
 30
1289.0
 10
5.0408556198131595
 20
-226.62858665514347
 30
1289.0
 10
5.042700452583169
 20
-226.83516399236285
 30
1289.0
 10
5.044545034011307
 20
-227.04171318527878
 30
1289.0
 10
5.046389325881206
 20
-227.24822995456694
 30
1289.0
 10
5.048233257409505
 20
-227.45470637417685
 30
1289.0
 10
5.050076725185609
 20
-227.66113086458566
 30
1289.0
 10
5.051919582122847
 20
-227.8674869555874
 30
1289.0
 10
5.055020073851099
 20
-228.21466819374947
 30
1289.0
 10
5.056278021067104
 20
-228.35552832506843
 30
1289.0
 10
5.057535487655334
 20
-228.4963346375232
 30
1289.0
 10
5.058792401838619
 20
-228.6370790937759
 30
1289.0
 10
5.060048608843046
 20
-228.7777443628423
 30
1289.0
 10
5.061303749505942
 20
-228.9182902270475
 30
1289.0
 10
5.062557365750284
 20
-229.05866539267862
 30
1289.0
 10
5.064276162090091
 20
-229.25112965115903
 30
1289.0
 10
5.06472310852953
 20
-229.30117700875138
 30
1289.0
 10
5.065149847351619
 20
-229.3489615944269
 30
1289.0
 10
5.0655569152885205
 20
-229.3945435094057
 30
1289.0
 10
5.065944849072398
 20
-229.4379828549082
 30
1289.0
 10
5.066314185435411
 20
-229.4793397321547
 30
1289.0
 10
5.06666546110972
 20
-229.51867424236542
 30
1289.0
 10
5.0675236798125525
 20
-229.6147742993815
 30
1289.0
 10
5.068004873353912
 20
-229.66865651682542
 30
1289.0
 10
5.068444876222721
 20
-229.71792635986253
 30
1289.0
 10
5.068845771190142
 20
-229.7628170492632
 30
1289.0
 10
5.069209641027329
 20
-229.80356180579753
 30
1289.0
 10
5.06953856850544
 20
-229.8403938502358
 30
1289.0
 10
5.06983463639563
 20
-229.87354640334834
 30
1289.0
 10
5.07036521854248
 20
-229.93295896846237
 30
1289.0
 10
5.070599732799142
 20
-229.95921898046382
 30
1289.0
 10
5.070805553010196
 20
-229.98226594268007
 30
1289.0
 10
5.070984761946801
 20
-230.00233307588132
 30
1289.0
 10
5.071139442380113
 20
-230.01965360083784
 30
1289.0
 10
5.071271677081288
 20
-230.03446073831984
 30
1289.0
 10
5.071383548821485
 20
-230.0469877090976
 30
1289.0
 10
5.071545206953948
 20
-230.06508957019145
 30
1289.0
 10
5.071603604675304
 20
-230.07162872429464
 30
1289.0
 10
5.071653134722128
 20
-230.0771749100257
 30
1289.0
 10
5.07169459828062
 20
-230.08181784115973
 30
1289.0
 10
5.07172879653698
 20
-230.08564723147146
 30
1289.0
 10
5.071756530677408
 20
-230.08875279473583
 30
1289.0
 10
5.071778601888102
 20
-230.0912242447277
 30
1289.0
 10
5.071823070800714
 20
-230.09620370395356
 30
1289.0
 10
5.071957679717388
 20
-230.09722663759908
 30
1289.0
 10
5.072034261885733
 20
-230.09736230130417
 30
1289.0
 10
5.071974349956889
 20
-230.09737632508862
 30
1289.0
 10
5.07178638545269
 20
-230.09765776384623
 30
1289.0
 10
5.071565718765663
 20
-230.09821909734512
 30
1289.0
 10
5.071494609159029
 20
-230.0986962302275
 30
1289.0
 10
5.071842224766702
 20
-230.0983484920098
 30
1289.0
  0
ENDSEC
  0
SECTION
  2
OBJECTS
  0
DICTIONARY
  5
A
330
0
100
AcDbDictionary
281
1
  3
ACAD_COLOR
350
B
  3
ACAD_GROUP
350
C
  3
ACAD_LAYOUT
350
D
  3
ACAD_MATERIAL
350
E
  3
ACAD_MLEADERSTYLE
350
F
  3
ACAD_MLINESTYLE
350
10
  3
ACAD_PLOTSETTINGS
350
11
  3
ACAD_PLOTSTYLENAME
350
12
  3
ACAD_SCALELIST
350
14
  3
ACAD_TABLESTYLE
350
15
  3
ACAD_VISUALSTYLE
350
16
  3
EZDXF_META
350
2D
  0
DICTIONARY
  5
B
330
A
100
AcDbDictionary
281
1
  0
DICTIONARY
  5
C
330
A
100
AcDbDictionary
281
1
  0
DICTIONARY
  5
D
330
A
100
AcDbDictionary
281
1
  3
Model
350
1A
  3
Layout1
350
1E
  0
DICTIONARY
  5
E
330
A
100
AcDbDictionary
281
1
  3
ByBlock
350
1F
  3
ByLayer
350
20
  3
Global
350
21
  0
DICTIONARY
  5
F
330
A
100
AcDbDictionary
281
1
  3
Standard
350
2C
  0
DICTIONARY
  5
10
330
A
100
AcDbDictionary
281
1
  3
Standard
350
22
  0
DICTIONARY
  5
11
330
A
100
AcDbDictionary
281
1
  0
ACDBDICTIONARYWDFLT
  5
12
330
A
100
AcDbDictionary
281
1
  3
Normal
350
13
100
AcDbDictionaryWithDefault
340
13
  0
ACDBPLACEHOLDER
  5
13
330
12
  0
DICTIONARY
  5
14
330
A
100
AcDbDictionary
281
1
  0
DICTIONARY
  5
15
330
A
100
AcDbDictionary
281
1
  0
DICTIONARY
  5
16
330
A
100
AcDbDictionary
281
1
  0
LAYOUT
  5
1A
330
D
100
AcDbPlotSettings
  1

  2
Adobe PDF
  4
A3
  6

 40
7.5
 41
20.0
 42
7.5
 43
20.0
 44
420.0
 45
297.0
 46
0.0
 47
0.0
 48
0.0
 49
0.0
140
0.0
141
0.0
142
1.0
143
1.0
 70
1024
 72
1
 73
1
 74
5
  7

 75
16
 76
0
 77
2
 78
300
147
1.0
148
0.0
149
0.0
100
AcDbLayout
  1
Model
 70
1
 71
0
 10
0.0
 20
0.0
 11
420.0
 21
297.0
 12
0.0
 22
0.0
 32
0.0
 14
1e+20
 24
1e+20
 34
1e+20
 15
-1e+20
 25
-1e+20
 35
-1e+20
146
0.0
 13
0.0
 23
0.0
 33
0.0
 16
1.0
 26
0.0
 36
0.0
 17
0.0
 27
1.0
 37
0.0
 76
1
330
17
  0
LAYOUT
  5
1E
330
D
100
AcDbPlotSettings
  1

  2
Adobe PDF
  4
A3
  6

 40
7.5
 41
20.0
 42
7.5
 43
20.0
 44
420.0
 45
297.0
 46
0.0
 47
0.0
 48
0.0
 49
0.0
140
0.0
141
0.0
142
1.0
143
1.0
 70
0
 72
1
 73
1
 74
5
  7

 75
16
 76
0
 77
2
 78
300
147
1.0
148
0.0
149
0.0
100
AcDbLayout
  1
Layout1
 70
1
 71
1
 10
0.0
 20
0.0
 11
420.0
 21
297.0
 12
0.0
 22
0.0
 32
0.0
 14
1e+20
 24
1e+20
 34
1e+20
 15
-1e+20
 25
-1e+20
 35
-1e+20
146
0.0
 13
0.0
 23
0.0
 33
0.0
 16
1.0
 26
0.0
 36
0.0
 17
0.0
 27
1.0
 37
0.0
 76
1
330
1B
  0
MATERIAL
  5
1F
102
{ACAD_REACTORS
330
E
102
}
330
E
100
AcDbMaterial
  1
ByBlock
  2

 70
0
 40
1.0
 71
1
 41
1.0
 91
-1023410177
 42
1.0
 72
1
  3

 73
1
 74
1
 75
1
 44
0.5
 73
0
 45
1.0
 46
1.0
 77
1
  4

 78
1
 79
1
170
1
 48
1.0
171
1
  6

172
1
173
1
174
1
140
1.0
141
1.0
175
1
  7

176
1
177
1
178
1
143
1.0
179
1
  8

270
1
271
1
272
1
145
1.0
146
1.0
273
1
  9

274
1
275
1
276
1
 42
1.0
 72
1
  3

 73
1
 74
1
 75
1
 94
63
  0
MATERIAL
  5
20
102
{ACAD_REACTORS
330
E
102
}
330
E
100
AcDbMaterial
  1
ByLayer
  2

 70
0
 40
1.0
 71
1
 41
1.0
 91
-1023410177
 42
1.0
 72
1
  3

 73
1
 74
1
 75
1
 44
0.5
 73
0
 45
1.0
 46
1.0
 77
1
  4

 78
1
 79
1
170
1
 48
1.0
171
1
  6

172
1
173
1
174
1
140
1.0
141
1.0
175
1
  7

176
1
177
1
178
1
143
1.0
179
1
  8

270
1
271
1
272
1
145
1.0
146
1.0
273
1
  9

274
1
275
1
276
1
 42
1.0
 72
1
  3

 73
1
 74
1
 75
1
 94
63
  0
MATERIAL
  5
21
102
{ACAD_REACTORS
330
E
102
}
330
E
100
AcDbMaterial
  1
Global
  2

 70
0
 40
1.0
 71
1
 41
1.0
 91
-1023410177
 42
1.0
 72
1
  3

 73
1
 74
1
 75
1
 44
0.5
 73
0
 45
1.0
 46
1.0
 77
1
  4

 78
1
 79
1
170
1
 48
1.0
171
1
  6

172
1
173
1
174
1
140
1.0
141
1.0
175
1
  7

176
1
177
1
178
1
143
1.0
179
1
  8

270
1
271
1
272
1
145
1.0
146
1.0
273
1
  9

274
1
275
1
276
1
 42
1.0
 72
1
  3

 73
1
 74
1
 75
1
 94
63
  0
MLINESTYLE
  5
22
102
{ACAD_REACTORS
330
10
102
}
330
10
100
AcDbMlineStyle
  2
Standard
 70
0
  3

 62
256
 51
90.0
 52
90.0
 71
2
 49
0.5
 62
256
  6
BYLAYER
 49
-0.5
 62
256
  6
BYLAYER
  0
MLEADERSTYLE
  5
2C
102
{ACAD_REACTORS
330
F
102
}
330
F
100
AcDbMLeaderStyle
179
2
170
2
171
1
172
0
 90
2
 40
0.0
 41
0.0
173
1
 91
-1056964608
 92
-2
290
1
 42
2.0
291
1
 43
8.0
  3
Standard
 44
4.0
300

342
29
174
1
175
1
176
0
178
1
 93
-1056964608
 45
4.0
292
0
297
0
 46
4.0
 94
-1056964608
 47
1.0
 49
1.0
140
1.0
294
1
141
0.0
177
0
142
1.0
295
0
296
0
143
3.75
271
0
272
9
273
9
  0
DICTIONARY
  5
2D
330
A
100
AcDbDictionary
280
1
281
1
  3
CREATED_BY_EZDXF
350
2E
  3
WRITTEN_BY_EZDXF
350
80
  0
DICTIONARYVAR
  5
2E
330
2D
100
DictionaryVariables
280
0
  1
0.17 @ 2022-02-15T16:37:03.081642+00:00
  0
DICTIONARYVAR
  5
80
330
2D
100
DictionaryVariables
280
0
  1
0.17 @ 2022-02-15T16:37:03.179359+00:00
  0
ENDSEC
  0
EOF
