  0
SECTION
  2
HEADER
  9
$ACADVER
  1
AC1027
  9
$ACADMAINTVER
 70
105
  9
$DWGCODEPAGE
  3
ANSI_1252
  9
$LASTSAVEDBY
  1
ezdxf
  9
$REQUIREDVERSIONS
160
0
  9
$INSBASE
 10
0.0
 20
0.0
 30
0.0
  9
$EXTMIN
 10
1e+20
 20
1e+20
 30
1e+20
  9
$EXTMAX
 10
-1e+20
 20
-1e+20
 30
-1e+20
  9
$LIMMIN
 10
0.0
 20
0.0
  9
$LIMMAX
 10
420.0
 20
297.0
  9
$ORTHOMODE
 70
0
  9
$REGENMODE
 70
1
  9
$FILLMODE
 70
1
  9
$QTEXTMODE
 70
0
  9
$MIRRTEXT
 70
1
  9
$LTSCALE
 40
1.0
  9
$ATTMODE
 70
1
  9
$TEXTSIZE
 40
2.5
  9
$TRACEWID
 40
1.0
  9
$TEXTSTYLE
  7
Standard
  9
$CLAYER
  8
0
  9
$CELTYPE
  6
ByLayer
  9
$CECOLOR
 62
256
  9
$CELTSCALE
 40
1.0
  9
$DISPSILH
 70
0
  9
$DIMSCALE
 40
1.0
  9
$DIMASZ
 40
2.5
  9
$DIMEXO
 40
0.625
  9
$DIMDLI
 40
3.75
  9
$DIMRND
 40
0.0
  9
$DIMDLE
 40
0.0
  9
$DIMEXE
 40
1.25
  9
$DIMTP
 40
0.0
  9
$DIMTM
 40
0.0
  9
$DIMTXT
 40
2.5
  9
$DIMCEN
 40
2.5
  9
$DIMTSZ
 40
0.0
  9
$DIMTOL
 70
0
  9
$DIMLIM
 70
0
  9
$DIMTIH
 70
0
  9
$DIMTOH
 70
0
  9
$DIMSE1
 70
0
  9
$DIMSE2
 70
0
  9
$DIMTAD
 70
1
  9
$DIMZIN
 70
8
  9
$DIMBLK
  1

  9
$DIMASO
 70
1
  9
$DIMSHO
 70
1
  9
$DIMPOST
  1

  9
$DIMAPOST
  1

  9
$DIMALT
 70
0
  9
$DIMALTD
 70
3
  9
$DIMALTF
 40
0.03937007874
  9
$DIMLFAC
 40
1.0
  9
$DIMTOFL
 70
1
  9
$DIMTVP
 40
0.0
  9
$DIMTIX
 70
0
  9
$DIMSOXD
 70
0
  9
$DIMSAH
 70
0
  9
$DIMBLK1
  1

  9
$DIMBLK2
  1

  9
$DIMSTYLE
  2
ISO-25
  9
$DIMCLRD
 70
0
  9
$DIMCLRE
 70
0
  9
$DIMCLRT
 70
0
  9
$DIMTFAC
 40
1.0
  9
$DIMGAP
 40
0.625
  9
$DIMJUST
 70
0
  9
$DIMSD1
 70
0
  9
$DIMSD2
 70
0
  9
$DIMTOLJ
 70
0
  9
$DIMTZIN
 70
8
  9
$DIMALTZ
 70
0
  9
$DIMALTTZ
 70
0
  9
$DIMUPT
 70
0
  9
$DIMDEC
 70
2
  9
$DIMTDEC
 70
2
  9
$DIMALTU
 70
2
  9
$DIMALTTD
 70
3
  9
$DIMTXSTY
  7
Standard
  9
$DIMAUNIT
 70
0
  9
$DIMADEC
 70
0
  9
$DIMALTRND
 40
0.0
  9
$DIMAZIN
 70
0
  9
$DIMDSEP
 70
44
  9
$DIMATFIT
 70
3
  9
$DIMFRAC
 70
0
  9
$DIMLDRBLK
  1

  9
$DIMLUNIT
 70
2
  9
$DIMLWD
 70
-2
  9
$DIMLWE
 70
-2
  9
$DIMTMOVE
 70
0
  9
$DIMFXL
 40
1.0
  9
$DIMFXLON
 70
0
  9
$DIMJOGANG
 40
0.785398163397
  9
$DIMTFILL
 70
0
  9
$DIMTFILLCLR
 70
0
  9
$DIMARCSYM
 70
0
  9
$DIMLTYPE
  6

  9
$DIMLTEX1
  6

  9
$DIMLTEX2
  6

  9
$DIMTXTDIRECTION
 70
0
  9
$LUNITS
 70
2
  9
$LUPREC
 70
4
  9
$SKETCHINC
 40
1.0
  9
$FILLETRAD
 40
10.0
  9
$AUNITS
 70
0
  9
$AUPREC
 70
2
  9
$MENU
  1
.
  9
$ELEVATION
 40
0.0
  9
$PELEVATION
 40
0.0
  9
$THICKNESS
 40
0.0
  9
$LIMCHECK
 70
0
  9
$CHAMFERA
 40
0.0
  9
$CHAMFERB
 40
0.0
  9
$CHAMFERC
 40
0.0
  9
$CHAMFERD
 40
0.0
  9
$SKPOLY
 70
0
  9
$TDCREATE
 40
2459626.7377546295
  9
$TDUCREATE
 40
2458532.153996898
  9
$TDUPDATE
 40
2459626.7377546295
  9
$TDUUPDATE
 40
2458532.1544311
  9
$TDINDWG
 40
0.0
  9
$TDUSRTIMER
 40
0.0
  9
$USRTIMER
 70
1
  9
$ANGBASE
 50
0.0
  9
$ANGDIR
 70
0
  9
$PDMODE
 70
0
  9
$PDSIZE
 40
0.0
  9
$PLINEWID
 40
0.0
  9
$SPLFRAME
 70
0
  9
$SPLINETYPE
 70
6
  9
$SPLINESEGS
 70
8
  9
$HANDSEED
  5
81
  9
$SURFTAB1
 70
6
  9
$SURFTAB2
 70
6
  9
$SURFTYPE
 70
6
  9
$SURFU
 70
6
  9
$SURFV
 70
6
  9
$UCSBASE
  2

  9
$UCSNAME
  2

  9
$UCSORG
 10
0.0
 20
0.0
 30
0.0
  9
$UCSXDIR
 10
1.0
 20
0.0
 30
0.0
  9
$UCSYDIR
 10
0.0
 20
1.0
 30
0.0
  9
$UCSORTHOREF
  2

  9
$UCSORTHOVIEW
 70
0
  9
$UCSORGTOP
 10
0.0
 20
0.0
 30
0.0
  9
$UCSORGBOTTOM
 10
0.0
 20
0.0
 30
0.0
  9
$UCSORGLEFT
 10
0.0
 20
0.0
 30
0.0
  9
$UCSORGRIGHT
 10
0.0
 20
0.0
 30
0.0
  9
$UCSORGFRONT
 10
0.0
 20
0.0
 30
0.0
  9
$UCSORGBACK
 10
0.0
 20
0.0
 30
0.0
  9
$PUCSBASE
  2

  9
$PUCSNAME
  2

  9
$PUCSORG
 10
0.0
 20
0.0
 30
0.0
  9
$PUCSXDIR
 10
1.0
 20
0.0
 30
0.0
  9
$PUCSYDIR
 10
0.0
 20
1.0
 30
0.0
  9
$PUCSORTHOREF
  2

  9
$PUCSORTHOVIEW
 70
0
  9
$PUCSORGTOP
 10
0.0
 20
0.0
 30
0.0
  9
$PUCSORGBOTTOM
 10
0.0
 20
0.0
 30
0.0
  9
$PUCSORGLEFT
 10
0.0
 20
0.0
 30
0.0
  9
$PUCSORGRIGHT
 10
0.0
 20
0.0
 30
0.0
  9
$PUCSORGFRONT
 10
0.0
 20
0.0
 30
0.0
  9
$PUCSORGBACK
 10
0.0
 20
0.0
 30
0.0
  9
$USERI1
 70
0
  9
$USERI2
 70
0
  9
$USERI3
 70
0
  9
$USERI4
 70
0
  9
$USERI5
 70
0
  9
$USERR1
 40
0.0
  9
$USERR2
 40
0.0
  9
$USERR3
 40
0.0
  9
$USERR4
 40
0.0
  9
$USERR5
 40
0.0
  9
$WORLDVIEW
 70
1
  9
$SHADEDGE
 70
3
  9
$SHADEDIF
 70
70
  9
$TILEMODE
 70
1
  9
$MAXACTVP
 70
64
  9
$PINSBASE
 10
0.0
 20
0.0
 30
0.0
  9
$PLIMCHECK
 70
0
  9
$PEXTMIN
 10
1e+20
 20
1e+20
 30
1e+20
  9
$PEXTMAX
 10
-1e+20
 20
-1e+20
 30
-1e+20
  9
$PLIMMIN
 10
0.0
 20
0.0
  9
$PLIMMAX
 10
420.0
 20
297.0
  9
$UNITMODE
 70
0
  9
$VISRETAIN
 70
1
  9
$PLINEGEN
 70
0
  9
$PSLTSCALE
 70
1
  9
$TREEDEPTH
 70
3020
  9
$CMLSTYLE
  2
Standard
  9
$CMLJUST
 70
0
  9
$CMLSCALE
 40
20.0
  9
$PROXYGRAPHICS
 70
1
  9
$MEASUREMENT
 70
1
  9
$CELWEIGHT
370
-1
  9
$ENDCAPS
280
0
  9
$JOINSTYLE
280
0
  9
$LWDISPLAY
290
0
  9
$INSUNITS
 70
6
  9
$HYPERLINKBASE
  1

  9
$STYLESHEET
  1

  9
$XEDIT
290
1
  9
$CEPSNTYPE
380
0
  9
$PSTYLEMODE
290
1
  9
$FINGERPRINTGUID
  2
{5DA6BE2A-17F7-4FED-965D-76C7D18B0A05}
  9
$VERSIONGUID
  2
{6B396763-6188-488C-974F-B904E3502571}
  9
$EXTNAMES
290
1
  9
$PSVPSCALE
 40
0.0
  9
$OLESTARTUP
290
0
  9
$SORTENTS
280
127
  9
$INDEXCTL
280
0
  9
$HIDETEXT
280
1
  9
$XCLIPFRAME
280
0
  9
$HALOGAP
280
0
  9
$OBSCOLOR
 70
257
  9
$OBSLTYPE
280
0
  9
$INTERSECTIONDISPLAY
280
0
  9
$INTERSECTIONCOLOR
 70
257
  9
$DIMASSOC
280
2
  9
$PROJECTNAME
  1

  9
$CAMERADISPLAY
290
0
  9
$LENSLENGTH
 40
50.0
  9
$CAMERAHEIGHT
 40
0.0
  9
$STEPSPERSEC
 40
24.0
  9
$STEPSIZE
 40
100.0
  9
$3DDWFPREC
 40
2.0
  9
$PSOLWIDTH
 40
0.005
  9
$PSOLHEIGHT
 40
0.08
  9
$LOFTANG1
 40
1.570796326795
  9
$LOFTANG2
 40
1.570796326795
  9
$LOFTMAG1
 40
0.0
  9
$LOFTMAG2
 40
0.0
  9
$LOFTPARAM
 70
7
  9
$LOFTNORMALS
280
1
  9
$LATITUDE
 40
37.795
  9
$LONGITUDE
 40
-122.394
  9
$NORTHDIRECTION
 40
0.0
  9
$TIMEZONE
 70
-8000
  9
$LIGHTGLYPHDISPLAY
280
1
  9
$TILEMODELIGHTSYNCH
280
1
  9
$CMATERIAL
347
20
  9
$SOLIDHIST
280
0
  9
$SHOWHIST
280
1
  9
$DWFFRAME
280
2
  9
$DGNFRAME
280
2
  9
$REALWORLDSCALE
290
1
  9
$INTERFERECOLOR
 62
256
  9
$CSHADOW
280
0
  9
$SHADOWPLANELOCATION
 40
0.0
  0
ENDSEC
  0
SECTION
  2
CLASSES
  0
CLASS
  1
ACDBDICTIONARYWDFLT
  2
AcDbDictionaryWithDefault
  3
ObjectDBX Classes
 90
0
 91
0
280
0
281
0
  0
CLASS
  1
SUN
  2
AcDbSun
  3
SCENEOE
 90
1153
 91
0
280
0
281
0
  0
CLASS
  1
VISUALSTYLE
  2
AcDbVisualStyle
  3
ObjectDBX Classes
 90
4095
 91
0
280
0
281
0
  0
CLASS
  1
MATERIAL
  2
AcDbMaterial
  3
ObjectDBX Classes
 90
1153
 91
0
280
0
281
0
  0
CLASS
  1
SCALE
  2
AcDbScale
  3
ObjectDBX Classes
 90
1153
 91
0
280
0
281
0
  0
CLASS
  1
TABLESTYLE
  2
AcDbTableStyle
  3
ObjectDBX Classes
 90
4095
 91
0
280
0
281
0
  0
CLASS
  1
MLEADERSTYLE
  2
AcDbMLeaderStyle
  3
ACDB_MLEADERSTYLE_CLASS
 90
4095
 91
0
280
0
281
0
  0
CLASS
  1
DICTIONARYVAR
  2
AcDbDictionaryVar
  3
ObjectDBX Classes
 90
0
 91
0
280
0
281
0
  0
CLASS
  1
CELLSTYLEMAP
  2
AcDbCellStyleMap
  3
ObjectDBX Classes
 90
1152
 91
0
280
0
281
0
  0
CLASS
  1
MENTALRAYRENDERSETTINGS
  2
AcDbMentalRayRenderSettings
  3
SCENEOE
 90
1024
 91
0
280
0
281
0
  0
CLASS
  1
ACDBDETAILVIEWSTYLE
  2
AcDbDetailViewStyle
  3
ObjectDBX Classes
 90
1025
 91
0
280
0
281
0
  0
CLASS
  1
ACDBSECTIONVIEWSTYLE
  2
AcDbSectionViewStyle
  3
ObjectDBX Classes
 90
1025
 91
0
280
0
281
0
  0
CLASS
  1
RASTERVARIABLES
  2
AcDbRasterVariables
  3
ISM
 90
0
 91
0
280
0
281
0
  0
CLASS
  1
ACDBPLACEHOLDER
  2
AcDbPlaceHolder
  3
ObjectDBX Classes
 90
0
 91
0
280
0
281
0
  0
CLASS
  1
LAYOUT
  2
AcDbLayout
  3
ObjectDBX Classes
 90
0
 91
0
280
0
281
0
  0
ENDSEC
  0
SECTION
  2
TABLES
  0
TABLE
  2
VPORT
  5
8
330
0
100
AcDbSymbolTable
 70
1
  0
VPORT
  5
23
330
8
100
AcDbSymbolTableRecord
100
AcDbViewportTableRecord
  2
*Active
 70
0
 10
0.0
 20
0.0
 11
1.0
 21
1.0
 12
344.2
 22
148.5
 13
0.0
 23
0.0
 14
0.5
 24
0.5
 15
0.5
 25
0.5
 16
0.0
 26
0.0
 36
1.0
 17
0.0
 27
0.0
 37
0.0
 40
297.0
 41
1.34
 42
50.0
 43
0.0
 44
0.0
 50
0.0
 51
0.0
 71
0
 72
1000
 73
1
 74
3
 75
0
 76
0
 77
0
 78
0
281
0
 65
0
146
0.0
  0
ENDTAB
  0
TABLE
  2
LTYPE
  5
2
330
0
100
AcDbSymbolTable
 70
3
  0
LTYPE
  5
24
330
2
100
AcDbSymbolTableRecord
100
AcDbLinetypeTableRecord
  2
ByBlock
 70
0
  3

 72
65
 73
0
 40
0.0
  0
LTYPE
  5
25
330
2
100
AcDbSymbolTableRecord
100
AcDbLinetypeTableRecord
  2
ByLayer
 70
0
  3

 72
65
 73
0
 40
0.0
  0
LTYPE
  5
26
330
2
100
AcDbSymbolTableRecord
100
AcDbLinetypeTableRecord
  2
Continuous
 70
0
  3

 72
65
 73
0
 40
0.0
  0
ENDTAB
  0
TABLE
  2
LAYER
  5
1
330
0
100
AcDbSymbolTable
 70
2
  0
LAYER
  5
27
330
1
100
AcDbSymbolTableRecord
100
AcDbLayerTableRecord
  2
0
 70
0
 62
7
  6
Continuous
370
-3
390
13
347
21
  0
LAYER
  5
28
330
1
100
AcDbSymbolTableRecord
100
AcDbLayerTableRecord
  2
Defpoints
 70
0
 62
7
  6
Continuous
290
0
370
-3
390
13
347
21
  0
ENDTAB
  0
TABLE
  2
STYLE
  5
5
330
0
100
AcDbSymbolTable
 70
1
  0
STYLE
  5
29
330
5
100
AcDbSymbolTableRecord
100
AcDbTextStyleTableRecord
  2
Standard
 70
0
 40
0.0
 41
1.0
 50
0.0
 71
0
 42
2.5
  3
txt
  4

  0
ENDTAB
  0
TABLE
  2
VIEW
  5
7
330
0
100
AcDbSymbolTable
 70
0
  0
ENDTAB
  0
TABLE
  2
UCS
  5
6
330
0
100
AcDbSymbolTable
 70
0
  0
ENDTAB
  0
TABLE
  2
APPID
  5
3
330
0
100
AcDbSymbolTable
 70
3
  0
APPID
  5
2A
330
3
100
AcDbSymbolTableRecord
100
AcDbRegAppTableRecord
  2
ACAD
 70
0
  0
APPID
  5
7E
330
3
100
AcDbSymbolTableRecord
100
AcDbRegAppTableRecord
  2
HATCHBACKGROUNDCOLOR
 70
0
  0
APPID
  5
7F
330
3
100
AcDbSymbolTableRecord
100
AcDbRegAppTableRecord
  2
EZDXF
 70
0
  0
ENDTAB
  0
TABLE
  2
DIMSTYLE
  5
4
330
0
100
AcDbSymbolTable
 70
1
100
AcDbDimStyleTable
  0
DIMSTYLE
105
2B
330
4
100
AcDbSymbolTableRecord
100
AcDbDimStyleTableRecord
  2
Standard
 70
0
 40
1.0
 41
2.5
 42
0.625
 43
3.75
 44
1.25
 45
0.0
 46
0.0
 47
0.0
 48
0.0
 49
2.5
140
2.5
141
2.5
142
0.0
143
0.03937007874
144
1.0
145
0.0
146
1.0
147
0.625
148
0.0
 69
0
 70
0
 71
0
 72
0
 73
0
 74
0
 75
0
 76
0
 77
1
 78
8
 79
0
170
0
171
3
172
1
173
0
174
0
175
0
176
0
177
0
178
0
179
0
271
0
272
2
273
2
274
3
275
0
276
0
277
2
278
44
279
0
280
0
281
0
282
0
283
0
284
8
285
0
286
0
288
0
289
3
290
0
371
-2
372
-2
  0
ENDTAB
  0
TABLE
  2
BLOCK_RECORD
  5
9
330
0
100
AcDbSymbolTable
 70
2
  0
BLOCK_RECORD
  5
17
330
9
100
AcDbSymbolTableRecord
100
AcDbBlockTableRecord
  2
*Model_Space
340
1A
 70
0
280
1
281
0
  0
BLOCK_RECORD
  5
1B
330
9
100
AcDbSymbolTableRecord
100
AcDbBlockTableRecord
  2
*Paper_Space
340
1E
 70
0
280
1
281
0
  0
ENDTAB
  0
ENDSEC
  0
SECTION
  2
BLOCKS
  0
BLOCK
  5
18
330
17
100
AcDbEntity
  8
0
100
AcDbBlockBegin
  2
*Model_Space
 70
0
 10
0.0
 20
0.0
 30
0.0
  3
*Model_Space
  1

  0
ENDBLK
  5
19
330
17
100
AcDbEntity
  8
0
100
AcDbBlockEnd
  0
BLOCK
  5
1C
330
1B
100
AcDbEntity
  8
0
100
AcDbBlockBegin
  2
*Paper_Space
 70
0
 10
0.0
 20
0.0
 30
0.0
  3
*Paper_Space
  1

  0
ENDBLK
  5
1D
330
1B
100
AcDbEntity
  8
0
100
AcDbBlockEnd
  0
ENDSEC
  0
SECTION
  2
ENTITIES
  0
SPLINE
  5
2F
330
17
100
AcDbEntity
  8
0
100
AcDbSpline
 70
0
 71
8
 72
88
 73
79
 74
0
 40
0.0
 40
0.0
 40
0.0
 40
0.0
 40
0.0
 40
0.0
 40
0.0
 40
0.0
 40
0.0
 40
0.014916667232135538
 40
0.014916667232135538
 40
0.014916667232135538
 40
0.014916667232135538
 40
0.014916667232135538
 40
0.014916667232135538
 40
0.014916667232135538
 40
0.13446987430317703
 40
0.13446987430317703
 40
0.13446987430317703
 40
0.13446987430317703
 40
0.13446987430317703
 40
0.13446987430317703
 40
0.13446987430317703
 40
0.2292886725775614
 40
0.2292886725775614
 40
0.2292886725775614
 40
0.2292886725775614
 40
0.2292886725775614
 40
0.2292886725775614
 40
0.2292886725775614
 40
0.3274437715230656
 40
0.3274437715230656
 40
0.3274437715230656
 40
0.3274437715230656
 40
0.3274437715230656
 40
0.3274437715230656
 40
0.3274437715230656
 40
0.3851955617829023
 40
0.3851955617829023
 40
0.3851955617829023
 40
0.3851955617829023
 40
0.3851955617829023
 40
0.3851955617829023
 40
0.3851955617829023
 40
0.45190755210731126
 40
0.45190755210731126
 40
0.45190755210731126
 40
0.45190755210731126
 40
0.45190755210731126
 40
0.45190755210731126
 40
0.45190755210731126
 40
0.4772189063421302
 40
0.4772189063421302
 40
0.4772189063421302
 40
0.4772189063421302
 40
0.4772189063421302
 40
0.4772189063421302
 40
0.4772189063421302
 40
0.499513099695937
 40
0.499513099695937
 40
0.499513099695937
 40
0.499513099695937
 40
0.499513099695937
 40
0.499513099695937
 40
0.499513099695937
 40
0.6817457466371497
 40
0.6817457466371497
 40
0.6817457466371497
 40
0.6817457466371497
 40
0.6817457466371497
 40
0.6817457466371497
 40
0.6817457466371497
 40
0.7810630789572
 40
0.7810630789572
 40
0.7810630789572
 40
0.7810630789572
 40
0.7810630789572
 40
0.7810630789572
 40
0.7810630789572
 40
1.0
 40
1.0
 40
1.0
 40
1.0
 40
1.0
 40
1.0
 40
1.0
 40
1.0
 40
1.0
 10
45.54610941493405
 20
235.90000000423834
 30
1315.0
 10
45.49946767578117
 20
236.0103924605976
 30
1315.0
 10
45.45280496690157
 20
236.1203155977248
 30
1315.0
 10
45.40612137214377
 20
236.2297703525296
 30
1315.0
 10
45.3594169753563
 20
236.33875766192165
 30
1315.0
 10
45.31269186038766
 20
236.44727846281052
 30
1315.0
 10
45.26594611108636
 20
236.55533369210588
 30
1315.0
 10
45.21917981130092
 20
236.66292428671738
 30
1315.0
 10
44.79740928429341
 20
237.6286453910378
 30
1315.0
 10
44.41043186112622
 20
238.4819051346411
 30
1315.0
 10
44.01052023404303
 20
239.32929499322466
 30
1315.0
 10
43.59664144029649
 20
240.1700866533083
 30
1315.0
 10
43.167641219943135
 20
241.0033436319126
 30
1315.0
 10
42.722213158031096
 20
241.82790533979937
 30
1315.0
 10
42.25884088442503
 20
242.64235719566003
 30
1315.0
 10
41.39249546599402
 20
244.08153621297524
 30
1315.0
 10
40.996939346717966
 20
244.7105224017878
 30
1315.0
 10
40.5880762138374
 20
245.3311386044902
 30
1315.0
 10
40.164916323921
 20
245.94231776987576
 30
1315.0
 10
39.72641559028751
 20
246.54271334124346
 30
1315.0
 10
39.27145952982887
 20
247.1306875863431
 30
1315.0
 10
38.79883955574387
 20
247.70429417529843
 30
1315.0
 10
37.79830557443448
 20
248.837813099323
 30
1315.0
 10
37.26919491370286
 20
249.39634713072718
 30
1315.0
 10
36.71837500229813
 20
249.93441651703222
 30
1315.0
 10
36.14453925880867
 20
250.44877203498967
 30
1315.0
 10
35.546670102050086
 20
250.93546230018887
 30
1315.0
 10
34.92413845760813
 20
251.3899604190783
 30
1315.0
 10
34.27691776958331
 20
251.8074320807146
 30
1315.0
 10
33.211263681701006
 20
252.40439701771325
 30
1315.0
 10
32.80835911885452
 20
252.6110906432101
 30
1315.0
 10
32.397641620419456
 20
252.80233583655007
 30
1315.0
 10
31.97955776366928
 20
252.97719859798983
 30
1315.0
 10
31.55466894137952
 20
253.13486196384417
 30
1315.0
 10
31.123667207741512
 20
253.27466690096603
 30
1315.0
 10
30.687391889148998
 20
253.39615445418798
 30
1315.0
 10
29.737951409985588
 20
253.618037277291
 30
1315.0
 10
29.223191746856795
 20
253.71227479424934
 30
1315.0
 10
28.704149314686244
 20
253.78144913986787
 30
1315.0
 10
28.18230334433058
 20
253.8257259864591
 30
1315.0
 10
27.65902596356719
 20
253.8457138394465
 30
1315.0
 10
27.135576693439088
 20
253.84237016247346
 30
1315.0
 10
26.61309643066524
 20
253.81690902455753
 30
1315.0
 10
25.895118480315627
 20
253.753181890145
 30
1315.0
 10
25.697700729893402
 20
253.73264867614358
 30
1315.0
 10
25.50035296174601
 20
253.70916981423565
 30
1315.0
 10
25.303080472769373
 20
253.6828044913724
 30
1315.0
 10
25.10588855985915
 20
253.65361189450428
 30
1315.0
 10
24.908782519910726
 20
253.62165121058163
 30
1315.0
 10
24.711767649819187
 20
253.58698162655415
 30
1315.0
 10
24.34140388601956
 20
253.5167915623821
 30
1315.0
 10
24.168343033018218
 20
253.48191079065268
 30
1315.0
 10
23.99567635048298
 20
253.44509482237416
 30
1315.0
 10
23.82341512449353
 20
253.40640675813964
 30
1315.0
 10
23.651572264201594
 20
253.36589799094327
 30
1315.0
 10
23.48016230183092
 20
253.32360820618052
 30
1315.0
 10
23.309201392677274
 20
253.27956538164833
 30
1315.0
 10
21.74508940976027
 20
252.85958356919372
 30
1315.0
 10
20.38211894997494
 20
252.36838974090446
 30
1315.0
 10
19.061768346804023
 20
251.76499401583183
 30
1315.0
 10
17.794235930648547
 20
251.05543622218815
 30
1315.0
 10
16.588015221783103
 20
250.2468582982909
 30
1315.0
 10
15.449885086406436
 20
249.34751217925367
 30
1315.0
 10
14.384878334474935
 20
248.3668122963974
 30
1315.0
 10
12.857500737261178
 20
246.74225576330798
 30
1315.0
 10
12.341245615855959
 20
246.14798572082788
 30
1315.0
 10
11.847956136996315
 20
245.5340691466052
 30
1315.0
 10
11.377861780045176
 20
244.9020550388435
 30
1315.0
 10
10.931014960706237
 20
244.25346264313626
 30
1315.0
 10
10.50731733733896
 20
243.58976236413454
 30
1315.0
 10
10.106543780974233
 20
242.91235847610503
 30
1315.0
 10
8.894697689810986
 20
240.70199946531756
 30
1315.0
 10
8.171283875303661
 20
239.1220969863052
 30
1315.0
 10
7.5536798200409345
 20
237.49588229157797
 30
1315.0
 10
7.035894875061928
 20
235.8348092735012
 30
1315.0
 10
6.611116348905785
 20
234.14855054512512
 30
1315.0
 10
6.272291551362692
 20
232.44482425589834
 30
1315.0
 10
6.012591514681178
 20
230.7292559973154
 30
1315.0
 10
5.8257818869300735
 20
229.00526499727354
 30
1315.0
  0
LINE
  5
30
330
17
100
AcDbEntity
  8
0
100
AcDbLine
 10
26.907673027538994
 20
235.9
 30
1315.0
 11
45.54610940490282
 21
235.9
 31
1315.0
  0
SPLINE
  5
31
330
17
100
AcDbEntity
  8
0
100
AcDbSpline
 70
0
 71
1
 72
4
 73
2
 74
0
 40
0.0
 40
0.0
 40
1.0
 40
1.0
 10
26.907673027540916
 20
235.9000006000011
 30
1315.0
 10
26.907673027540916
 20
232.09999939999986
 30
1315.0
  0
LINE
  5
32
330
17
100
AcDbEntity
  8
0
100
AcDbLine
 10
26.907673027538994
 20
232.1
 30
1315.0
 11
47.04893768177314
 21
232.1
 31
1315.0
  0
SPLINE
  5
33
330
17
100
AcDbEntity
  8
0
100
AcDbSpline
 70
0
 71
8
 72
32
 73
23
 74
0
 40
0.0
 40
0.0
 40
0.0
 40
0.0
 40
0.0
 40
0.0
 40
0.0
 40
0.0
 40
0.0
 40
0.3502066372154734
 40
0.3502066372154734
 40
0.3502066372154734
 40
0.3502066372154734
 40
0.3502066372154734
 40
0.3502066372154734
 40
0.3502066372154734
 40
0.8126240054009106
 40
0.8126240054009106
 40
0.8126240054009106
 40
0.8126240054009106
 40
0.8126240054009106
 40
0.8126240054009106
 40
0.8126240054009106
 40
1.0
 40
1.0
 40
1.0
 40
1.0
 40
1.0
 40
1.0
 40
1.0
 40
1.0
 40
1.0
 10
53.444191724582055
 20
209.8999999989922
 30
1315.0
 10
53.21390260799747
 20
210.88544995885914
 30
1315.0
 10
52.98003755662447
 20
211.87006118776188
 30
1315.0
 10
52.74244315261561
 20
212.8537806286958
 30
1315.0
 10
52.50095068501929
 20
213.83654956565374
 30
1315.0
 10
52.25537343890723
 20
214.818302995908
 30
1315.0
 10
52.00550314378799
 20
215.7989688083083
 30
1315.0
 10
51.751105127597945
 20
216.7784666618604
 30
1315.0
 10
51.149668572912645
 20
219.0483867273265
 30
1315.0
 10
50.79907784304239
 20
220.33782307744949
 30
1315.0
 10
50.43951943498065
 20
221.6248178409792
 30
1315.0
 10
50.0702838100487
 20
222.90910679888376
 30
1315.0
 10
49.690536728826764
 20
224.190348441373
 30
1315.0
 10
49.29928761109278
 20
225.46811457069683
 30
1315.0
 10
48.89531952179462
 20
226.74186945391114
 30
1315.0
 10
48.307547888612035
 20
228.52515833816224
 30
1315.0
 10
48.13571803197232
 20
229.038620435514
 30
1315.0
 10
47.96142370940985
 20
229.55125483328058
 30
1315.0
 10
47.784545256726375
 20
230.06300541004092
 30
1315.0
 10
47.604967886289856
 20
230.57381527522196
 30
1315.0
 10
47.4225803607216
 20
231.08362584462623
 30
1315.0
 10
47.23727366658352
 20
231.59237591595883
 30
1315.0
 10
47.04893968806529
 20
232.10000074435482
 30
1315.0
  0
LINE
  5
34
330
17
100
AcDbEntity
  8
0
100
AcDbLine
 10
26.907673027538994
 20
209.9
 30
1315.0
 11
53.44419172889505
 21
209.9
 31
1315.0
  0
SPLINE
  5
35
330
17
100
AcDbEntity
  8
0
100
AcDbSpline
 70
0
 71
1
 72
4
 73
2
 74
0
 40
0.0
 40
0.0
 40
1.0
 40
1.0
 10
26.907673027540916
 20
209.90000060000008
 30
1315.0
 10
26.907673027540916
 20
206.09999939999994
 30
1315.0
  0
LINE
  5
36
330
17
100
AcDbEntity
  8
0
100
AcDbLine
 10
26.907673027538994
 20
206.1
 30
1315.0
 11
54.30871632092551
 21
206.1
 31
1315.0
  0
SPLINE
  5
37
330
17
100
AcDbEntity
  8
0
100
AcDbSpline
 70
0
 71
8
 72
25
 73
16
 74
0
 40
0.0
 40
0.0
 40
0.0
 40
0.0
 40
0.0
 40
0.0
 40
0.0
 40
0.0
 40
0.0
 40
0.49171517286541294
 40
0.49171517286541294
 40
0.49171517286541294
 40
0.49171517286541294
 40
0.49171517286541294
 40
0.49171517286541294
 40
0.49171517286541294
 40
1.0
 40
1.0
 40
1.0
 40
1.0
 40
1.0
 40
1.0
 40
1.0
 40
1.0
 40
1.0
 10
58.62026812807655
 20
183.89999999868803
 30
1315.0
 10
58.38564518602146
 20
185.27022271321295
 30
1315.0
 10
58.14732799787505
 20
186.63981187837146
 30
1315.0
 10
57.905208164015605
 20
188.0087364534848
 30
1315.0
 10
57.65916734726923
 20
189.3769624534021
 30
1315.0
 10
57.40907585372548
 20
190.74445270428564
 30
1315.0
 10
57.15479083658276
 20
192.11116653451725
 30
1315.0
 10
56.89615397892201
 20
193.47705937541463
 30
1315.0
 10
56.360954981336306
 20
196.2531032039551
 30
1315.0
 10
56.08408983400179
 20
197.66315575347733
 30
1315.0
 10
55.80219549116165
 20
199.07220149944226
 30
1315.0
 10
55.515053616503735
 20
200.48018863853997
 30
1315.0
 10
55.22242292064175
 20
201.88705148251535
 30
1315.0
 10
54.92403363055462
 20
203.29270916357467
 30
1315.0
 10
54.61958124864298
 20
204.69706417599062
 30
1315.0
 10
54.308716322938494
 20
206.10000000044602
 30
1315.0
  0
LINE
  5
38
330
17
100
AcDbEntity
  8
0
100
AcDbLine
 10
26.907673027538994
 20
183.9
 30
1315.0
 11
58.620268135738385
 21
183.9
 31
1315.0
  0
SPLINE
  5
39
330
17
100
AcDbEntity
  8
0
100
AcDbSpline
 70
0
 71
1
 72
4
 73
2
 74
0
 40
0.0
 40
0.0
 40
1.0
 40
1.0
 10
26.907673027540916
 20
183.90000060000014
 30
1315.0
 10
26.907673027540916
 20
180.0999993999999
 30
1315.0
  0
LINE
  5
3A
330
17
100
AcDbEntity
  8
0
100
AcDbLine
 10
26.907673027538994
 20
180.1
 30
1315.0
 11
59.258414362194465
 21
180.1
 31
1315.0
  0
SPLINE
  5
3B
330
17
100
AcDbEntity
  8
0
100
AcDbSpline
 70
0
 71
8
 72
25
 73
16
 74
0
 40
0.0
 40
0.0
 40
0.0
 40
0.0
 40
0.0
 40
0.0
 40
0.0
 40
0.0
 40
0.0
 40
0.4858655196872333
 40
0.4858655196872333
 40
0.4858655196872333
 40
0.4858655196872333
 40
0.4858655196872333
 40
0.4858655196872333
 40
0.4858655196872333
 40
1.0
 40
1.0
 40
1.0
 40
1.0
 40
1.0
 40
1.0
 40
1.0
 40
1.0
 40
1.0
 10
62.542934350539866
 20
157.89999999793065
 30
1315.0
 10
62.36378210956131
 20
159.25118960213544
 30
1315.0
 10
62.181996856052436
 20
160.60202945010136
 30
1315.0
 10
61.99754253624292
 20
161.95250859394855
 30
1315.0
 10
61.8103798205341
 20
163.3026154288483
 30
1315.0
 10
61.62046582816174
 20
164.65233765748897
 30
1315.0
 10
61.42775379782073
 20
166.00166224759317
 30
1315.0
 10
61.2321926931418
 20
167.35057538102095
 30
1315.0
 10
60.82371348811512
 20
170.12600800040457
 30
1315.0
 10
60.61044865576046
 20
171.5524689589417
 30
1315.0
 10
60.39386582323459
 20
172.97842953590006
 30
1315.0
 10
60.17389291832326
 20
174.4038716003846
 30
1315.0
 10
59.95045138826999
 20
175.8287744787155
 30
1315.0
 10
59.72345540714767
 20
177.25311481629345
 30
1315.0
 10
59.49281092407172
 20
178.6768664131729
 30
1315.0
 10
59.25841436578531
 20
180.1000000005914
 30
1315.0
  0
LINE
  5
3C
330
17
100
AcDbEntity
  8
0
100
AcDbLine
 10
26.907673027538994
 20
157.9
 30
1315.0
 11
62.54293436614692
 21
157.9
 31
1315.0
  0
SPLINE
  5
3D
330
17
100
AcDbEntity
  8
0
100
AcDbSpline
 70
0
 71
1
 72
4
 73
2
 74
0
 40
0.0
 40
0.0
 40
1.0
 40
1.0
 10
26.907673027540916
 20
157.90000060000042
 30
1315.0
 10
26.907673027540916
 20
154.09999939999918
 30
1315.0
  0
LINE
  5
3E
330
17
100
AcDbEntity
  8
0
100
AcDbLine
 10
26.907673027538994
 20
154.1
 30
1315.0
 11
63.037592727582464
 21
154.1
 31
1315.0
  0
SPLINE
  5
3F
330
17
100
AcDbEntity
  8
0
100
AcDbSpline
 70
0
 71
8
 72
25
 73
16
 74
0
 40
0.0
 40
0.0
 40
0.0
 40
0.0
 40
0.0
 40
0.0
 40
0.0
 40
0.0
 40
0.0
 40
0.10083079192509069
 40
0.10083079192509069
 40
0.10083079192509069
 40
0.10083079192509069
 40
0.10083079192509069
 40
0.10083079192509069
 40
0.10083079192509069
 40
1.0
 40
1.0
 40
1.0
 40
1.0
 40
1.0
 40
1.0
 40
1.0
 40
1.0
 40
1.0
 10
65.58008346624632
 20
131.89999999309615
 30
1315.0
 10
65.55158376380473
 20
132.1801974012477
 30
1315.0
 10
65.52298405306855
 20
132.46038463089812
 30
1315.0
 10
65.49428425127839
 20
132.7405616306404
 30
1315.0
 10
65.46548426234429
 20
133.02072834758386
 30
1315.0
 10
65.43658398547748
 20
133.30088472806952
 30
1315.0
 10
65.40758333639344
 20
133.58103071941548
 30
1315.0
 10
65.37848228871636
 20
133.86116627327164
 30
1315.0
 10
65.08887490233113
 20
136.63933624270362
 30
1315.0
 10
64.82048235990113
 20
139.13654066254983
 30
1315.0
 10
64.54404731731256
 20
141.63287403392724
 30
1315.0
 10
64.25949128236634
 20
144.12830020084812
 30
1315.0
 10
63.9667115710829
 20
146.62277719578722
 30
1315.0
 10
63.66557939926544
 20
149.11625698670971
 30
1315.0
 10
63.355936965835355
 20
151.6086850980326
 30
1315.0
 10
63.03759272656983
 20
154.0999999998706
 30
1315.0
  0
LINE
  5
40
330
17
100
AcDbEntity
  8
0
100
AcDbLine
 10
26.907673027538994
 20
131.9
 30
1315.0
 11
65.58008353412214
 21
131.9
 31
1315.0
  0
SPLINE
  5
41
330
17
100
AcDbEntity
  8
0
100
AcDbSpline
 70
0
 71
1
 72
4
 73
2
 74
0
 40
0.0
 40
0.0
 40
1.0
 40
1.0
 10
26.907673027540916
 20
131.90000060000256
 30
1315.0
 10
26.907673027540916
 20
128.09999939999764
 30
1315.0
  0
LINE
  5
42
330
17
100
AcDbEntity
  8
0
100
AcDbLine
 10
26.907673027538994
 20
128.1
 30
1315.0
 11
65.95848098077172
 21
128.1
 31
1315.0
  0
SPLINE
  5
43
330
17
100
AcDbEntity
  8
0
100
AcDbSpline
 70
0
 71
8
 72
32
 73
23
 74
0
 40
0.0
 40
0.0
 40
0.0
 40
0.0
 40
0.0
 40
0.0
 40
0.0
 40
0.0
 40
0.0
 40
0.05980686099007123
 40
0.05980686099007123
 40
0.05980686099007123
 40
0.05980686099007123
 40
0.05980686099007123
 40
0.05980686099007123
 40
0.05980686099007123
 40
0.73546611954149
 40
0.73546611954149
 40
0.73546611954149
 40
0.73546611954149
 40
0.73546611954149
 40
0.73546611954149
 40
0.73546611954149
 40
1.0
 40
1.0
 40
1.0
 40
1.0
 40
1.0
 40
1.0
 40
1.0
 40
1.0
 40
1.0
 10
67.85725436559802
 20
105.9000000006546
 30
1315.0
 10
67.84493628422376
 20
106.06611765901505
 30
1315.0
 10
67.83258753535996
 20
106.23223304285806
 30
1315.0
 10
67.82020807809218
 20
106.39834614255324
 30
1315.0
 10
67.80779787146159
 20
106.564456948438
 30
1315.0
 10
67.79535687446499
 20
106.73056545081756
 30
1315.0
 10
67.7828850460548
 20
106.89667163996491
 30
1315.0
 10
67.77038234513913
 20
107.06277550612083
 30
1315.0
 10
67.61625205457055
 20
109.10538480173481
 30
1315.0
 10
67.47070978603266
 20
110.98159469424733
 30
1315.0
 10
67.32116256978944
 20
112.85749256043665
 30
1315.0
 10
67.16755022441004
 20
114.73306359474962
 30
1315.0
 10
67.0098117422113
 20
116.6082923426752
 30
1315.0
 10
66.84788528925775
 20
118.48316270074423
 30
1315.0
 10
66.6817082053616
 20
120.35765791652965
 30
1315.0
 10
66.44446634761283
 20
122.96550862207907
 30
1315.0
 10
66.37705376567155
 20
123.6991964091452
 30
1315.0
 10
66.30897699794258
 20
124.4328231095855
 30
1315.0
 10
66.24023207170725
 20
125.16638757284593
 30
1315.0
 10
66.17081333645427
 20
125.89988853101816
 30
1315.0
 10
66.10071660282081
 20
126.63332486982594
 30
1315.0
 10
66.02993954988584
 20
127.36669564394717
 30
1315.0
 10
65.95848098836699
 20
128.1000000007401
 30
1315.0
  0
LINE
  5
44
330
17
100
AcDbEntity
  8
0
100
AcDbLine
 10
26.907673027538994
 20
105.9
 30
1315.0
 11
67.85725435677125
 21
105.9
 31
1315.0
  0
SPLINE
  5
45
330
17
100
AcDbEntity
  8
0
100
AcDbSpline
 70
0
 71
1
 72
4
 73
2
 74
0
 40
0.0
 40
0.0
 40
1.0
 40
1.0
 10
26.907673027540916
 20
105.90000060000206
 30
1315.0
 10
26.907673027540916
 20
102.09999939999993
 30
1315.0
  0
LINE
  5
46
330
17
100
AcDbEntity
  8
0
100
AcDbLine
 10
26.907673027538994
 20
102.1
 30
1315.0
 11
68.1320314053277
 21
102.1
 31
1315.0
  0
SPLINE
  5
47
330
17
100
AcDbEntity
  8
0
100
AcDbSpline
 70
0
 71
8
 72
25
 73
16
 74
0
 40
0.0
 40
0.0
 40
0.0
 40
0.0
 40
0.0
 40
0.0
 40
0.0
 40
0.0
 40
0.0
 40
0.2765898504984168
 40
0.2765898504984168
 40
0.2765898504984168
 40
0.2765898504984168
 40
0.2765898504984168
 40
0.2765898504984168
 40
0.2765898504984168
 40
1.0
 40
1.0
 40
1.0
 40
1.0
 40
1.0
 40
1.0
 40
1.0
 40
1.0
 40
1.0
 10
69.47220298465288
 20
79.90000000060719
 30
1314.9999999999998
 10
69.4332498903827
 20
80.66795718463543
 30
1314.9999999999998
 10
69.39374018927514
 20
81.4358863658425
 30
1314.9999999999998
 10
69.35367026423422
 20
82.20378693005554
 30
1314.9999999999998
 10
69.31303648034483
 20
82.97165825492726
 30
1314.9999999999998
 10
69.2718351846159
 20
83.73949970992945
 30
1314.9999999999998
 10
69.2300627057215
 20
84.50731065634628
 30
1314.9999999999998
 10
69.18771535373992
 20
85.27509044726763
 30
1315.0
 10
69.0325182856914
 20
88.05085383457589
 30
1315.0
 10
68.91628940819852
 20
90.05864775635125
 30
1315.0
 10
68.79603660755589
 20
92.06620747522828
 30
1315.0
 10
68.6716927611761
 20
94.07351958920249
 30
1315.0
 10
68.54318980374053
 20
96.08057001194496
 30
1315.0
 10
68.41045872719918
 20
98.0873439728022
 30
1315.0
 10
68.27342958077081
 20
100.09382601679627
 30
1315.0
 10
68.13203147094283
 20
102.1000000046247
 30
1315.0
  0
LINE
  5
48
330
17
100
AcDbEntity
  8
0
100
AcDbLine
 10
26.907673027538994
 20
79.9
 30
1315.0
 11
69.47220297268221
 21
79.9
 31
1315.0
  0
SPLINE
  5
49
330
17
100
AcDbEntity
  8
0
100
AcDbSpline
 70
0
 71
1
 72
4
 73
2
 74
0
 40
0.0
 40
0.0
 40
1.0
 40
1.0
 10
26.907673027540916
 20
79.90000060000001
 30
1315.0
 10
26.907673027540916
 20
76.09999939999999
 30
1315.0
  0
LINE
  5
4A
330
17
100
AcDbEntity
  8
0
100
AcDbLine
 10
26.907673027538994
 20
76.1
 30
1315.0
 11
69.6590218052608
 21
76.1
 31
1315.0
  0
SPLINE
  5
4B
330
17
100
AcDbEntity
  8
0
100
AcDbSpline
 70
0
 71
8
 72
18
 73
9
 74
0
 40
0.0
 40
0.0
 40
0.0
 40
0.0
 40
0.0
 40
0.0
 40
0.0
 40
0.0
 40
0.0
 40
1.0
 40
1.0
 40
1.0
 40
1.0
 40
1.0
 40
1.0
 40
1.0
 40
1.0
 40
1.0
 10
70.52648802634448
 20
53.89999999854919
 30
1315.0
 10
70.44058038199518
 20
56.6758244367895
 30
1315.0
 10
70.3485524314489
 20
59.45145844486031
 30
1315.0
 10
70.25024943875438
 20
62.226881181077374
 30
1315.0
 10
70.14551433690556
 20
65.00207043056527
 30
1315.0
 10
70.03418758646953
 20
67.77700260178054
 30
1315.0
 10
69.91610702954247
 20
70.5516527228721
 30
1315.0
 10
69.7911077390337
 20
73.32599443787855
 30
1315.0
 10
69.65902186327764
 20
76.10000000276244
 30
1315.0
  0
LINE
  5
4C
330
17
100
AcDbEntity
  8
0
100
AcDbLine
 10
26.907673027538994
 20
53.9
 30
1315.0
 11
70.52648807322343
 21
53.9
 31
1315.0
  0
SPLINE
  5
4D
330
17
100
AcDbEntity
  8
0
100
AcDbSpline
 70
0
 71
1
 72
4
 73
2
 74
0
 40
0.0
 40
0.0
 40
1.0
 40
1.0
 10
26.907673027540916
 20
53.90000060000026
 30
1315.0
 10
26.907673027540916
 20
50.09999939999937
 30
1315.0
  0
LINE
  5
4E
330
17
100
AcDbEntity
  8
0
100
AcDbLine
 10
26.907673027538994
 20
50.1
 30
1315.0
 11
70.63911345707658
 21
50.1
 31
1315.0
  0
SPLINE
  5
4F
330
17
100
AcDbEntity
  8
0
100
AcDbSpline
 70
0
 71
8
 72
18
 73
9
 74
0
 40
0.0
 40
0.0
 40
0.0
 40
0.0
 40
0.0
 40
0.0
 40
0.0
 40
0.0
 40
0.0
 40
1.0
 40
1.0
 40
1.0
 40
1.0
 40
1.0
 40
1.0
 40
1.0
 40
1.0
 40
1.0
 10
71.10976972151528
 20
27.90000000042432
 30
1315.0
 10
71.06970286641273
 20
30.675353991592942
 30
1315.0
 10
71.02456448596715
 20
33.45063589393218
 30
1315.0
 10
70.97421185812306
 20
36.225832878740476
 30
1315.0
 10
70.91850055700989
 20
39.00093076201237
 30
1315.0
 10
70.85728432831557
 20
41.775914001541935
 30
1315.0
 10
70.79041496000315
 20
44.550765693863724
 30
1315.0
 10
70.7177421483708
 20
47.325467571031325
 30
1315.0
 10
70.63911335945505
 20
50.099999997233475
 30
1315.0
  0
LINE
  5
50
330
17
100
AcDbEntity
  8
0
100
AcDbLine
 10
26.907673027538994
 20
27.9
 30
1315.0
 11
71.10976969212564
 21
27.9
 31
1315.0
  0
SPLINE
  5
51
330
17
100
AcDbEntity
  8
0
100
AcDbSpline
 70
0
 71
1
 72
4
 73
2
 74
0
 40
0.0
 40
0.0
 40
1.0
 40
1.0
 10
26.907673027540916
 20
27.900000600000002
 30
1315.0
 10
26.907673027540916
 20
24.099999399999998
 30
1315.0
  0
LINE
  5
52
330
17
100
AcDbEntity
  8
0
100
AcDbLine
 10
26.907673027538994
 20
24.1
 30
1315.0
 11
71.16050876792025
 21
24.1
 31
1315.0
  0
SPLINE
  5
53
330
17
100
AcDbEntity
  8
0
100
AcDbSpline
 70
0
 71
8
 72
18
 73
9
 74
0
 40
0.0
 40
0.0
 40
0.0
 40
0.0
 40
0.0
 40
0.0
 40
0.0
 40
0.0
 40
0.0
 40
1.0
 40
1.0
 40
1.0
 40
1.0
 40
1.0
 40
1.0
 40
1.0
 40
1.0
 40
1.0
 10
71.30301930642999
 20
1.8999999999796915
 30
1315.0
 10
71.30050050724168
 20
4.675080345433088
 30
1315.0
 10
71.29388341328209
 20
7.450150950498383
 30
1315.0
 10
71.28303372677063
 20
10.225206887314464
 30
1315.0
 10
71.26781599247657
 20
13.000241886052159
 30
1315.0
 10
71.24809348956228
 20
15.775248332590607
 30
1315.0
 10
71.22372811877537
 20
18.550217266031414
 30
1315.0
 10
71.19458028498997
 20
21.325138376050575
 30
1315.0
 10
71.16050877509682
 20
24.100000000088144
 30
1315.0
  0
LINE
  5
54
330
17
100
AcDbEntity
  8
0
100
AcDbLine
 10
26.907673027538994
 20
1.9
 30
1315.0
 11
71.3030193288222
 21
1.9
 31
1315.0
  0
SPLINE
  5
55
330
17
100
AcDbEntity
  8
0
100
AcDbSpline
 70
0
 71
1
 72
4
 73
2
 74
0
 40
0.0
 40
0.0
 40
0.9999993684216398
 40
0.9999993684216398
 10
26.907673027540916
 20
1.9000006000000558
 30
1315.0
 10
26.907673027540916
 20
-6.553790374438061e-17
 30
1315.0
  0
SPLINE
  5
56
330
17
100
AcDbEntity
  8
0
100
AcDbSpline
 70
0
 71
1
 72
4
 73
2
 74
0
 40
0.0
 40
0.0
 40
1.0
 40
1.0
 10
26.907673027540916
 20
-1.9000006000000011
 30
1315.0
 10
26.907673027540916
 20
1.2000000211287443e-06
 30
1315.0
  0
LINE
  5
57
330
17
100
AcDbEntity
  8
0
100
AcDbLine
 10
26.90767302753899
 20
-1.9
 30
1315.0
 11
71.30313462296968
 21
-1.9
 31
1315.0
  0
SPLINE
  5
58
330
17
100
AcDbEntity
  8
0
100
AcDbSpline
 70
0
 71
8
 72
18
 73
9
 74
0
 40
0.0
 40
0.0
 40
0.0
 40
0.0
 40
0.0
 40
0.0
 40
0.0
 40
0.0
 40
0.0
 40
1.0
 40
1.0
 40
1.0
 40
1.0
 40
1.0
 40
1.0
 40
1.0
 40
1.0
 40
1.0
 10
71.16191085581376
 20
-24.100000000022806
 30
1315.0
 10
71.19583471559477
 20
-21.325156394914547
 30
1315.0
 10
71.22482945220439
 20
-18.55025235303113
 30
1315.0
 10
71.24903713730096
 20
-15.775297857047757
 30
1315.0
 10
71.26859820737997
 20
-13.000301201024321
 30
1315.0
 10
71.28365158494937
 20
-10.225268994774664
 30
1315.0
 10
71.29433479874174
 20
-7.450206168185821
 30
1315.0
 10
71.30078410446833
 20
-4.675115975551895
 30
1315.0
 10
71.30313460761792
 20
-1.8999999999869857
 30
1315.0
  0
LINE
  5
59
330
17
100
AcDbEntity
  8
0
100
AcDbLine
 10
26.90767302753899
 20
-24.1
 30
1315.0
 11
71.1619108539496
 21
-24.1
 31
1315.0
  0
SPLINE
  5
5A
330
17
100
AcDbEntity
  8
0
100
AcDbSpline
 70
0
 71
1
 72
4
 73
2
 74
0
 40
0.0
 40
0.0
 40
1.0
 40
1.0
 10
26.907673027540916
 20
-27.900000600000034
 30
1315.0
 10
26.907673027540916
 20
-24.099999399999938
 30
1315.0
  0
LINE
  5
5B
330
17
100
AcDbEntity
  8
0
100
AcDbLine
 10
26.90767302753899
 20
-27.9
 30
1315.0
 11
71.11136895203597
 21
-27.9
 31
1315.0
  0
SPLINE
  5
5C
330
17
100
AcDbEntity
  8
0
100
AcDbSpline
 70
0
 71
8
 72
18
 73
9
 74
0
 40
0.0
 40
0.0
 40
0.0
 40
0.0
 40
0.0
 40
0.0
 40
0.0
 40
0.0
 40
0.0
 40
1.0
 40
1.0
 40
1.0
 40
1.0
 40
1.0
 40
1.0
 40
1.0
 40
1.0
 40
1.0
 10
70.64160781671912
 20
-50.100000000031415
 30
1315.0
 10
70.72015955097532
 20
-47.325454796156265
 30
1315.0
 10
70.79274353889437
 20
-44.55074402602625
 30
1315.0
 10
70.85951321778897
 20
-41.77588763634554
 30
1315.0
 10
70.92061980258244
 20
-39.000903862472796
 30
1315.0
 10
70.97621241669412
 20
-36.22580923323704
 30
1315.0
 10
71.02643821843344
 20
-33.45061857555192
 30
1315.0
 10
71.07144252440818
 20
-30.67534501889319
 30
1315.0
 10
71.1113689314536
 20
-27.8999999997039
 30
1315.0
  0
LINE
  5
5D
330
17
100
AcDbEntity
  8
0
100
AcDbLine
 10
26.90767302753899
 20
-50.1
 30
1315.0
 11
70.64160781560926
 21
-50.1
 31
1315.0
  0
SPLINE
  5
5E
330
17
100
AcDbEntity
  8
0
100
AcDbSpline
 70
0
 71
1
 72
4
 73
2
 74
0
 40
0.0
 40
0.0
 40
1.0
 40
1.0
 10
26.907673027540916
 20
-53.9000006
 30
1315.0
 10
26.907673027540916
 20
-50.0999994
 30
1315.0
  0
LINE
  5
5F
330
17
100
AcDbEntity
  8
0
100
AcDbLine
 10
26.90767302753899
 20
-53.9
 30
1315.0
 11
70.52907873622115
 21
-53.9
 31
1315.0
  0
SPLINE
  5
60
330
17
100
AcDbEntity
  8
0
100
AcDbSpline
 70
0
 71
8
 72
18
 73
9
 74
0
 40
0.0
 40
0.0
 40
0.0
 40
0.0
 40
0.0
 40
0.0
 40
0.0
 40
0.0
 40
0.0
 40
1.0
 40
1.0
 40
1.0
 40
1.0
 40
1.0
 40
1.0
 40
1.0
 40
1.0
 40
1.0
 10
69.66171608159806
 20
-76.10000000044435
 30
1315.0
 10
69.7938450929062
 20
-73.32600004708458
 30
1315.0
 10
69.91886989559556
 20
-70.55165852165624
 30
1315.0
 10
70.0369591013501
 20
-67.77700551539013
 30
1315.0
 10
70.14827843313623
 20
-65.00206937980245
 30
1315.0
 10
70.25299087849069
 20
-62.22687673250092
 30
1315.0
 10
70.35125683476167
 20
-59.45145246263672
 30
1315.0
 10
70.44323424781447
 20
-56.67581973606709
 30
1315.0
 10
70.52907874571375
 20
-53.90000000029357
 30
1315.0
  0
LINE
  5
61
330
17
100
AcDbEntity
  8
0
100
AcDbLine
 10
26.90767302753899
 20
-76.1
 30
1315.0
 11
69.66171607226879
 21
-76.1
 31
1315.0
  0
SPLINE
  5
62
330
17
100
AcDbEntity
  8
0
100
AcDbSpline
 70
0
 71
1
 72
4
 73
2
 74
0
 40
0.0
 40
0.0
 40
1.0
 40
1.0
 10
26.907673027540916
 20
-79.90000060000018
 30
1315.0
 10
26.907673027540916
 20
-76.09999939999999
 30
1315.0
  0
LINE
  5
63
330
17
100
AcDbEntity
  8
0
100
AcDbLine
 10
26.90767302753899
 20
-79.9
 30
1315.0
 11
69.4748228108038
 21
-79.9
 31
1315.0
  0
SPLINE
  5
64
330
17
100
AcDbEntity
  8
0
100
AcDbSpline
 70
0
 71
8
 72
18
 73
9
 74
0
 40
0.0
 40
0.0
 40
0.0
 40
0.0
 40
0.0
 40
0.0
 40
0.0
 40
0.0
 40
0.0
 40
1.0
 40
1.0
 40
1.0
 40
1.0
 40
1.0
 40
1.0
 40
1.0
 40
1.0
 40
1.0
 10
68.13354456938977
 20
-102.09999999776528
 30
1315.0
 10
68.32922170675
 20
-99.32679892313327
 30
1315.0
 10
68.5165259665538
 20
-96.55300729055271
 30
1315.0
 10
68.69564574846495
 20
-93.7786656049135
 30
1315.0
 10
68.86676575269335
 20
-91.00381259321856
 30
1315.0
 10
69.03006716882653
 20
-88.22848521194271
 30
1315.0
 10
69.18572785299472
 20
-85.45271865388176
 30
1315.0
 10
69.33392249489266
 20
-82.67654635455736
 30
1315.0
 10
69.47482277618144
 20
-79.89999999824302
 30
1315.0
  0
LINE
  5
65
330
17
100
AcDbEntity
  8
0
100
AcDbLine
 10
26.90767302753899
 20
-102.1
 30
1315.0
 11
68.13354460106069
 21
-102.1
 31
1315.0
  0
SPLINE
  5
66
330
17
100
AcDbEntity
  8
0
100
AcDbSpline
 70
0
 71
1
 72
4
 73
2
 74
0
 40
0.0
 40
0.0
 40
1.0
 40
1.0
 10
26.907673027540916
 20
-105.90000060000003
 30
1315.0
 10
26.907673027540916
 20
-102.09999939999999
 30
1315.0
  0
LINE
  5
67
330
17
100
AcDbEntity
  8
0
100
AcDbLine
 10
26.90767302753899
 20
-105.9
 30
1315.0
 11
67.85844842195421
 21
-105.9
 31
1315.0
  0
SPLINE
  5
68
330
17
100
AcDbEntity
  8
0
100
AcDbSpline
 70
0
 71
8
 72
25
 73
16
 74
0
 40
0.0
 40
0.0
 40
0.0
 40
0.0
 40
0.0
 40
0.0
 40
0.0
 40
0.0
 40
0.0
 40
0.3094201200308558
 40
0.3094201200308558
 40
0.3094201200308558
 40
0.3094201200308558
 40
0.3094201200308558
 40
0.3094201200308558
 40
0.3094201200308558
 40
1.0
 40
1.0
 40
1.0
 40
1.0
 40
1.0
 40
1.0
 40
1.0
 40
1.0
 40
1.0
 10
65.95690872802513
 20
-128.09999999853318
 30
1315.0
 10
66.04063231339606
 20
-127.24226390079119
 30
1315.0
 10
66.12341875345977
 20
-126.38443631140187
 30
1315.0
 10
66.20527287538354
 20
-125.52651890214501
 30
1315.0
 10
66.286199938339
 20
-124.66851336298582
 30
1315.0
 10
66.36620563350189
 20
-123.81042140207445
 30
1315.0
 10
66.44529608405216
 20
-122.95224474574606
 30
1315.0
 10
66.52347784517401
 20
-122.09398513852105
 30
1315.0
 10
66.77323554959902
 20
-119.31995481583004
 30
1315.0
 10
66.94121750660106
 20
-117.40387265455522
 30
1315.0
 10
67.1047719430028
 20
-115.48741383269706
 30
1315.0
 10
67.26396601696939
 20
-113.57059390996838
 30
1315.0
 10
67.41886591214902
 20
-111.65342803377686
 30
1315.0
 10
67.56953687136391
 20
-109.73593094055542
 30
1315.0
 10
67.71604322884927
 20
-107.81811695702943
 30
1315.0
 10
67.85844844115559
 20
-105.90000000142557
 30
1315.0
  0
LINE
  5
69
330
17
100
AcDbEntity
  8
0
100
AcDbLine
 10
26.90767302753899
 20
-128.1
 30
1315.0
 11
65.95690874305251
 21
-128.1
 31
1315.0
  0
SPLINE
  5
6A
330
17
100
AcDbEntity
  8
0
100
AcDbSpline
 70
0
 71
1
 72
4
 73
2
 74
0
 40
0.0
 40
0.0
 40
1.0
 40
1.0
 10
26.907673027540916
 20
-131.9000006
 30
1315.0
 10
26.907673027540916
 20
-128.09999939999992
 30
1315.0
  0
LINE
  5
6B
330
17
100
AcDbEntity
  8
0
100
AcDbLine
 10
26.90767302753899
 20
-131.9
 30
1315.0
 11
65.57786884497443
 21
-131.9
 31
1315.0
  0
SPLINE
  5
6C
330
17
100
AcDbEntity
  8
0
100
AcDbSpline
 70
0
 71
8
 72
25
 73
16
 74
0
 40
0.0
 40
0.0
 40
0.0
 40
0.0
 40
0.0
 40
0.0
 40
0.0
 40
0.0
 40
0.0
 40
0.3690453738907245
 40
0.3690453738907245
 40
0.3690453738907245
 40
0.3690453738907245
 40
0.3690453738907245
 40
0.3690453738907245
 40
0.3690453738907245
 40
1.0
 40
1.0
 40
1.0
 40
1.0
 40
1.0
 40
1.0
 40
1.0
 40
1.0
 40
1.0
 10
63.03075895227067
 20
-154.09999999805984
 30
1315.0
 10
63.161656529651
 20
-153.0775031037115
 30
1315.0
 10
63.29108591182194
 20
-152.0548181497166
 30
1315.0
 10
63.41906027684002
 20
-151.03194911316808
 30
1315.0
 10
63.545591852674704
 20
-150.00889968316937
 30
1315.0
 10
63.67069197149159
 20
-148.98567326895287
 30
1315.0
 10
63.794371118100514
 20
-147.96227300720028
 30
1315.0
 10
63.91663897658305
 20
-146.93870176917042
 30
1315.0
 10
64.24414749201712
 20
-144.16468081305322
 30
1315.0
 10
64.44669039100131
 20
-142.4139153143003
 30
1315.0
 10
64.64517717963525
 20
-140.66268192505328
 30
1315.0
 10
64.83964533676605
 20
-138.91099593733728
 30
1315.0
 10
65.03012610217668
 20
-137.1588717141976
 30
1315.0
 10
65.2166447622437
 20
-135.4063227217669
 30
1315.0
 10
65.39922093559487
 20
-133.65336156133287
 30
1315.0
 10
65.57786885876695
 20
-131.90000000140535
 30
1315.0
  0
LINE
  5
6D
330
17
100
AcDbEntity
  8
0
100
AcDbLine
 10
26.90767302753899
 20
-154.1
 30
1315.0
 11
63.03075896742603
 21
-154.1
 31
1315.0
  0
SPLINE
  5
6E
330
17
100
AcDbEntity
  8
0
100
AcDbSpline
 70
0
 71
1
 72
4
 73
2
 74
0
 40
0.0
 40
0.0
 40
1.0
 40
1.0
 10
26.907673027540916
 20
-157.90000060000003
 30
1315.0
 10
26.907673027540916
 20
-154.0999994
 30
1315.0
  0
LINE
  5
6F
330
17
100
AcDbEntity
  8
0
100
AcDbLine
 10
26.90767302753899
 20
-157.9
 30
1315.0
 11
62.535189315037606
 21
-157.9
 31
1315.0
  0
SPLINE
  5
70
330
17
100
AcDbEntity
  8
0
100
AcDbSpline
 70
0
 71
8
 72
18
 73
9
 74
0
 40
0.0
 40
0.0
 40
0.0
 40
0.0
 40
0.0
 40
0.0
 40
0.0
 40
0.0
 40
0.0
 40
1.0
 40
1.0
 40
1.0
 40
1.0
 40
1.0
 40
1.0
 40
1.0
 40
1.0
 40
1.0
 10
59.24491155298232
 20
-180.0999999999522
 30
1315.0
 10
59.701561103228656
 20
-177.33199566511837
 30
1315.0
 10
60.144013475814205
 20
-174.56165366109454
 30
1315.0
 10
60.573030209056014
 20
-171.78917473458108
 30
1315.0
 10
60.98923478090584
 20
-169.01473119571966
 30
1315.0
 10
61.39314729292195
 20
-166.23847202099108
 30
1315.0
 10
61.78520638949652
 20
-163.46052606474387
 30
1315.0
 10
62.165782851351025
 20
-160.6810040486407
 30
1315.0
 10
62.53518930231231
 20
-157.89999999830962
 30
1315.0
  0
LINE
  5
71
330
17
100
AcDbEntity
  8
0
100
AcDbLine
 10
26.90767302753899
 20
-180.1
 30
1315.0
 11
59.24491155327247
 21
-180.1
 31
1315.0
  0
SPLINE
  5
72
330
17
100
AcDbEntity
  8
0
100
AcDbSpline
 70
0
 71
1
 72
4
 73
2
 74
0
 40
0.0
 40
0.0
 40
1.0
 40
1.0
 10
26.907673027540916
 20
-183.9000006000001
 30
1315.0
 10
26.907673027540916
 20
-180.09999939999994
 30
1315.0
  0
LINE
  5
73
330
17
100
AcDbEntity
  8
0
100
AcDbLine
 10
26.90767302753899
 20
-183.9
 30
1315.0
 11
58.60573820214373
 21
-183.9
 31
1315.0
  0
SPLINE
  5
74
330
17
100
AcDbEntity
  8
0
100
AcDbSpline
 70
0
 71
8
 72
18
 73
9
 74
0
 40
0.0
 40
0.0
 40
0.0
 40
0.0
 40
0.0
 40
0.0
 40
0.0
 40
0.0
 40
0.0
 40
1.0
 40
1.0
 40
1.0
 40
1.0
 40
1.0
 40
1.0
 40
1.0
 40
1.0
 40
1.0
 10
54.28836835913009
 20
-206.0999999795446
 30
1315.0
 10
54.900634060510555
 20
-203.33985423566588
 30
1315.0
 10
55.48811576057844
 20
-200.5741787945075
 30
1315.0
 10
56.053471808901925
 20
-197.80383294848778
 30
1315.0
 10
56.59867072291786
 20
-195.02946486724392
 30
1315.0
 10
57.12530328991182
 20
-192.25157723856276
 30
1315.0
 10
57.634659455766105
 20
-189.4705433704461
 30
1315.0
 10
58.127830134032955
 20
-186.68662932193178
 30
1315.0
 10
58.60573820275847
 20
-183.9000000001053
 30
1315.0
  0
LINE
  5
75
330
17
100
AcDbEntity
  8
0
100
AcDbLine
 10
26.90767302753899
 20
-206.1
 30
1315.0
 11
54.28836845134495
 21
-206.1
 31
1315.0
  0
SPLINE
  5
76
330
17
100
AcDbEntity
  8
0
100
AcDbSpline
 70
0
 71
1
 72
4
 73
2
 74
0
 40
0.0
 40
0.0
 40
1.0
 40
1.0
 10
26.907673027540916
 20
-209.90000060000008
 30
1315.0
 10
26.907673027540916
 20
-206.09999939999992
 30
1315.0
  0
LINE
  5
77
330
17
100
AcDbEntity
  8
0
100
AcDbLine
 10
26.90767302753899
 20
-209.9
 30
1315.0
 11
53.422949351434724
 21
-209.9
 31
1315.0
  0
SPLINE
  5
78
330
17
100
AcDbEntity
  8
0
100
AcDbSpline
 70
0
 71
8
 72
32
 73
23
 74
0
 40
0.0
 40
0.0
 40
0.0
 40
0.0
 40
0.0
 40
0.0
 40
0.0
 40
0.0
 40
0.0
 40
0.11646853380280923
 40
0.11646853380280923
 40
0.11646853380280923
 40
0.11646853380280923
 40
0.11646853380280923
 40
0.11646853380280923
 40
0.11646853380280923
 40
0.8613850587561849
 40
0.8613850587561849
 40
0.8613850587561849
 40
0.8613850587561849
 40
0.8613850587561849
 40
0.8613850587561849
 40
0.8613850587561849
 40
1.0
 40
1.0
 40
1.0
 40
1.0
 40
1.0
 40
1.0
 40
1.0
 40
1.0
 40
1.0
 10
47.02456641851491
 20
-232.10000089345476
 30
1315.0
 10
47.135482382991796
 20
-231.80102619332456
 30
1315.0
 10
47.24626635170726
 20
-231.49919161921486
 30
1315.0
 10
47.35691724664677
 20
-231.19448406128146
 30
1315.0
 10
47.467434196739866
 20
-230.88689095191387
 30
1315.0
 10
47.5778165378601
 20
-230.57640026573517
 30
1315.0
 10
47.688063812825106
 20
-230.26300051960192
 30
1315.0
 10
47.798175771396544
 20
-229.9466807726043
 30
1315.0
 10
48.611547383436644
 20
-227.58555114166683
 30
1315.0
 10
49.27325086844213
 20
-225.52951057175005
 30
1315.0
 10
49.90145000001238
 20
-223.4627604411739
 30
1315.0
 10
50.50092687762859
 20
-221.38749340526226
 30
1315.0
 10
51.075417132291555
 20
-219.3053479118128
 30
1315.0
 10
51.6276807580752
 20
-217.21742469365967
 30
1315.0
 10
52.16001381041679
 20
-215.12444573564335
 30
1315.0
 10
52.769997888671625
 20
-212.6364266916249
 30
1315.0
 10
52.86506913002232
 20
-212.24593606731924
 30
1315.0
 10
52.95952469375043
 20
-211.85529728121202
 30
1315.0
 10
53.05337595418008
 20
-211.4645138592554
 30
1315.0
 10
53.14663380815771
 20
-211.0735891999661
 30
1315.0
 10
53.23930870758836
 20
-210.68252658128478
 30
1315.0
 10
53.331410688827276
 20
-210.29132916676843
 30
1315.0
 10
53.42294939930388
 20
-209.90000001119745
 30
1315.0
  0
LINE
  5
79
330
17
100
AcDbEntity
  8
0
100
AcDbLine
 10
26.90767302753899
 20
-232.1
 30
1315.0
 11
47.02456401020177
 21
-232.1
 31
1315.0
  0
SPLINE
  5
7A
330
17
100
AcDbEntity
  8
0
100
AcDbSpline
 70
0
 71
1
 72
4
 73
2
 74
0
 40
0.0
 40
0.0
 40
1.0
 40
1.0
 10
26.907673027540916
 20
-235.90000060000008
 30
1315.0
 10
26.907673027540916
 20
-232.09999939999992
 30
1315.0
  0
LINE
  5
7B
330
17
100
AcDbEntity
  8
0
100
AcDbLine
 10
26.90767302753899
 20
-235.9
 30
1315.0
 11
45.52197329725604
 21
-235.9
 31
1315.0
  0
SPLINE
  5
7C
330
17
100
AcDbEntity
  8
0
100
AcDbSpline
 70
0
 71
8
 72
67
 73
58
 74
0
 40
0.0
 40
0.0
 40
0.0
 40
0.0
 40
0.0
 40
0.0
 40
0.0
 40
0.0
 40
0.0
 40
0.024774174131077405
 40
0.024774174131077405
 40
0.024774174131077405
 40
0.024774174131077405
 40
0.024774174131077405
 40
0.024774174131077405
 40
0.024774174131077405
 40
0.03601189162259703
 40
0.03601189162259703
 40
0.03601189162259703
 40
0.03601189162259703
 40
0.03601189162259703
 40
0.03601189162259703
 40
0.03601189162259703
 40
0.05734852685701862
 40
0.05734852685701862
 40
0.05734852685701862
 40
0.05734852685701862
 40
0.05734852685701862
 40
0.05734852685701862
 40
0.05734852685701862
 40
0.06944272972678879
 40
0.06944272972678879
 40
0.06944272972678879
 40
0.06944272972678879
 40
0.06944272972678879
 40
0.06944272972678879
 40
0.06944272972678879
 40
0.07924134964143867
 40
0.07924134964143867
 40
0.07924134964143867
 40
0.07924134964143867
 40
0.07924134964143867
 40
0.07924134964143867
 40
0.07924134964143867
 40
0.08634768167796103
 40
0.08634768167796103
 40
0.08634768167796103
 40
0.08634768167796103
 40
0.08634768167796103
 40
0.08634768167796103
 40
0.08634768167796103
 40
0.09949289568277143
 40
0.09949289568277143
 40
0.09949289568277143
 40
0.09949289568277143
 40
0.09949289568277143
 40
0.09949289568277143
 40
0.09949289568277143
 40
0.11254052181075314
 40
0.11254052181075314
 40
0.11254052181075314
 40
0.11254052181075314
 40
0.11254052181075314
 40
0.11254052181075314
 40
0.11254052181075314
 40
0.11254052181075314
 40
0.11254052181075314
 10
5.8257818869300735
 20
-229.00526499727354
 30
1315.0
 10
6.012590336941557
 20
-230.72924512842965
 30
1315.0
 10
6.272288352068809
 20
-232.44480335752445
 30
1315.0
 10
6.611106539415887
 20
-234.14851948039473
 30
1315.0
 10
7.035868765207049
 20
-235.8347692919703
 30
1315.0
 10
7.553621707992887
 20
-237.49583818624336
 30
1315.0
 10
8.171171302813331
 20
-239.12205918894384
 30
1315.0
 10
8.894501697647117
 20
-240.70198580196535
 30
1315.0
 10
10.106156034165622
 20
-242.9123745284713
 30
1315.0
 10
10.506844173982513
 20
-243.5897651351417
 30
1315.0
 10
10.9304468797958
 20
-244.25346049073627
 30
1315.0
 10
11.377189321301621
 20
-244.90205755160662
 30
1315.0
 10
11.847170133795581
 20
-245.53408705148
 30
1315.0
 10
12.340337523274103
 20
-246.1480307312716
 30
1315.0
 10
12.856463063866013
 20
-246.742340345543
 30
1315.0
 10
14.417828095460733
 20
-248.40361641510384
 30
1315.0
 10
15.522386640542596
 20
-249.41606610202544
 30
1315.0
 10
16.705120714778115
 20
-250.3410482957819
 30
1315.0
 10
17.96037298688725
 20
-251.1681532510051
 30
1315.0
 10
19.280502013539206
 20
-251.8883203456281
 30
1315.0
 10
20.655928359594423
 20
-252.49375961191083
 30
1315.0
 10
22.07515617523171
 20
-252.9779256100073
 30
1315.0
 10
24.346349396662852
 20
-253.5384559924475
 30
1315.0
 10
25.178992426770375
 20
-253.7009317316909
 30
1315.0
 10
26.020871151816053
 20
-253.81676252974842
 30
1315.0
 10
26.86918265958125
 20
-253.879381036871
 30
1315.0
 10
27.720074531340337
 20
-253.88255310951394
 30
1315.0
 10
28.568635589885965
 20
-253.82136686656423
 30
1315.0
 10
29.40887308326826
 20
-253.69350425023742
 30
1315.0
 10
30.90190035339264
 20
-253.34440166578779
 30
1315.0
 10
31.56036115185986
 20
-253.14540681983695
 30
1315.0
 10
32.20533926375342
 20
-252.90445149508884
 30
1315.0
 10
32.834192970846296
 20
-252.62364272774815
 30
1315.0
 10
33.445139240145714
 20
-252.30598105711812
 30
1315.0
 10
34.03706707639606
 20
-251.95495580279893
 30
1315.0
 10
34.6093858341022
 20
-251.57421084917422
 30
1315.0
 10
35.56264671597739
 20
-250.872241717391
 30
1315.0
 10
35.95312640971066
 20
-250.56328834471626
 30
1315.0
 10
36.33345704480134
 20
-250.2416879595966
 30
1315.0
 10
36.7038293292223
 20
-249.90860466500965
 30
1315.0
 10
37.06450539453721
 20
-249.5651178114267
 30
1315.0
 10
37.41579960688048
 20
-249.21220050461636
 30
1315.0
 10
37.758066096230756
 20
-248.85070577184078
 30
1315.0
 10
38.708832349220515
 20
-247.79814939829805
 30
1315.0
 10
39.296146809956674
 20
-247.08836579432833
 30
1315.0
 10
39.85629543458177
 20
-246.35646624099894
 30
1315.0
 10
40.39157769573348
 20
-245.6061248452921
 30
1315.0
 10
40.90405998710325
 20
-244.84032480084304
 30
1315.0
 10
41.395643582185805
 20
-244.06140713381484
 30
1315.0
 10
41.86810173539385
 20
-243.27109726937383
 30
1315.0
 10
42.774747544281844
 20
-241.6759062867587
 30
1315.0
 10
43.20900479993361
 20
-240.87150886059163
 30
1315.0
 10
43.627443748555855
 20
-240.0586500678259
 30
1315.0
 10
44.031354006477514
 20
-239.23842457557382
 30
1315.0
 10
44.421841292603126
 20
-238.41175038255318
 30
1315.0
 10
44.79987711682029
 20
-237.57939257196608
 30
1315.0
 10
45.16632729065568
 20
-236.7419768760806
 30
1315.0
 10
45.52197325590306
 20
-235.89999998253276
 30
1315.0
  0
SPLINE
  5
7D
330
17
100
AcDbEntity
  8
0
100
AcDbSpline
 70
0
 71
8
 72
417
 73
408
 74
0
 40
0.0
 40
0.0
 40
0.0
 40
0.0
 40
0.0
 40
0.0
 40
0.0
 40
0.0
 40
0.0
 40
0.0029625517775344217
 40
0.0029625517775344217
 40
0.0029625517775344217
 40
0.0029625517775344217
 40
0.0029625517775344217
 40
0.0029625517775344217
 40
0.0029625517775344217
 40
0.0060567532370384754
 40
0.0060567532370384754
 40
0.0060567532370384754
 40
0.0060567532370384754
 40
0.0060567532370384754
 40
0.0060567532370384754
 40
0.0060567532370384754
 40
0.009460374842442503
 40
0.009460374842442503
 40
0.009460374842442503
 40
0.009460374842442503
 40
0.009460374842442503
 40
0.009460374842442503
 40
0.009460374842442503
 40
0.0116263158640679
 40
0.0116263158640679
 40
0.0116263158640679
 40
0.0116263158640679
 40
0.0116263158640679
 40
0.0116263158640679
 40
0.0116263158640679
 40
0.014720517323557813
 40
0.014720517323557813
 40
0.014720517323557813
 40
0.014720517323557813
 40
0.014720517323557813
 40
0.014720517323557813
 40
0.014720517323557813
 40
0.01812413892899954
 40
0.01812413892899954
 40
0.01812413892899954
 40
0.01812413892899954
 40
0.01812413892899954
 40
0.01812413892899954
 40
0.01812413892899954
 40
0.024139145214996466
 40
0.024139145214996466
 40
0.024139145214996466
 40
0.024139145214996466
 40
0.024139145214996466
 40
0.024139145214996466
 40
0.024139145214996466
 40
0.034110275861471986
 40
0.034110275861471986
 40
0.034110275861471986
 40
0.034110275861471986
 40
0.034110275861471986
 40
0.034110275861471986
 40
0.034110275861471986
 40
0.055327044564800934
 40
0.055327044564800934
 40
0.055327044564800934
 40
0.055327044564800934
 40
0.055327044564800934
 40
0.055327044564800934
 40
0.055327044564800934
 40
0.06961259596696688
 40
0.06961259596696688
 40
0.06961259596696688
 40
0.06961259596696688
 40
0.06961259596696688
 40
0.06961259596696688
 40
0.06961259596696688
 40
0.07711857431285017
 40
0.07711857431285017
 40
0.07711857431285017
 40
0.07711857431285017
 40
0.07711857431285017
 40
0.07711857431285017
 40
0.07711857431285017
 40
0.08630538180861061
 40
0.08630538180861061
 40
0.08630538180861061
 40
0.08630538180861061
 40
0.08630538180861061
 40
0.08630538180861061
 40
0.08630538180861061
 40
0.12937306987643962
 40
0.12937306987643962
 40
0.12937306987643962
 40
0.12937306987643962
 40
0.12937306987643962
 40
0.12937306987643962
 40
0.12937306987643962
 40
0.21254778366701527
 40
0.21254778366701527
 40
0.21254778366701527
 40
0.21254778366701527
 40
0.21254778366701527
 40
0.21254778366701527
 40
0.21254778366701527
 40
0.2709760501291347
 40
0.2709760501291347
 40
0.2709760501291347
 40
0.2709760501291347
 40
0.2709760501291347
 40
0.2709760501291347
 40
0.2709760501291347
 40
0.3198526051822084
 40
0.3198526051822084
 40
0.3198526051822084
 40
0.3198526051822084
 40
0.3198526051822084
 40
0.3198526051822084
 40
0.3198526051822084
 40
0.36873926764506104
 40
0.36873926764506104
 40
0.36873926764506104
 40
0.36873926764506104
 40
0.36873926764506104
 40
0.36873926764506104
 40
0.36873926764506104
 40
0.4960980157891013
 40
0.4960980157891013
 40
0.4960980157891013
 40
0.4960980157891013
 40
0.4960980157891013
 40
0.4960980157891013
 40
0.4960980157891013
 40
0.5468630324441955
 40
0.5468630324441955
 40
0.5468630324441955
 40
0.5468630324441955
 40
0.5468630324441955
 40
0.5468630324441955
 40
0.5468630324441955
 40
0.563686091263455
 40
0.563686091263455
 40
0.563686091263455
 40
0.563686091263455
 40
0.563686091263455
 40
0.563686091263455
 40
0.563686091263455
 40
0.5805108342603708
 40
0.5805108342603708
 40
0.5805108342603708
 40
0.5805108342603708
 40
0.5805108342603708
 40
0.5805108342603708
 40
0.5805108342603708
 40
0.6066970760270508
 40
0.6066970760270508
 40
0.6066970760270508
 40
0.6066970760270508
 40
0.6066970760270508
 40
0.6066970760270508
 40
0.6066970760270508
 40
0.6203910730206388
 40
0.6203910730206388
 40
0.6203910730206388
 40
0.6203910730206388
 40
0.6203910730206388
 40
0.6203910730206388
 40
0.6203910730206388
 40
0.6264458251853856
 40
0.6264458251853856
 40
0.6264458251853856
 40
0.6264458251853856
 40
0.6264458251853856
 40
0.6264458251853856
 40
0.6264458251853856
 40
0.6305825821850959
 40
0.6305825821850959
 40
0.6305825821850959
 40
0.6305825821850959
 40
0.6305825821850959
 40
0.6305825821850959
 40
0.6305825821850959
 40
0.6321290393431804
 40
0.6321290393431804
 40
0.6321290393431804
 40
0.6321290393431804
 40
0.6321290393431804
 40
0.6321290393431804
 40
0.6321290393431804
 40
0.6345591863058719
 40
0.6345591863058719
 40
0.6345591863058719
 40
0.6345591863058719
 40
0.6345591863058719
 40
0.6345591863058719
 40
0.6345591863058719
 40
0.6369893332685429
 40
0.6369893332685429
 40
0.6369893332685429
 40
0.6369893332685429
 40
0.6369893332685429
 40
0.6369893332685429
 40
0.6369893332685429
 40
0.6392650534671975
 40
0.6392650534671975
 40
0.6392650534671975
 40
0.6392650534671975
 40
0.6392650534671975
 40
0.6392650534671975
 40
0.6392650534671975
 40
0.641542839454877
 40
0.641542839454877
 40
0.641542839454877
 40
0.641542839454877
 40
0.641542839454877
 40
0.641542839454877
 40
0.641542839454877
 40
0.6436332408784259
 40
0.6436332408784259
 40
0.6436332408784259
 40
0.6436332408784259
 40
0.6436332408784259
 40
0.6436332408784259
 40
0.6436332408784259
 40
0.645723642302002
 40
0.645723642302002
 40
0.645723642302002
 40
0.645723642302002
 40
0.645723642302002
 40
0.645723642302002
 40
0.645723642302002
 40
0.6474656434883256
 40
0.6474656434883256
 40
0.6474656434883256
 40
0.6474656434883256
 40
0.6474656434883256
 40
0.6474656434883256
 40
0.6474656434883256
 40
0.6492076446746577
 40
0.6492076446746577
 40
0.6492076446746577
 40
0.6492076446746577
 40
0.6492076446746577
 40
0.6492076446746577
 40
0.6492076446746577
 40
0.6525940325251189
 40
0.6525940325251189
 40
0.6525940325251189
 40
0.6525940325251189
 40
0.6525940325251189
 40
0.6525940325251189
 40
0.6525940325251189
 40
0.6582076874139542
 40
0.6582076874139542
 40
0.6582076874139542
 40
0.6582076874139542
 40
0.6582076874139542
 40
0.6582076874139542
 40
0.6582076874139542
 40
0.6701525408470449
 40
0.6701525408470449
 40
0.6701525408470449
 40
0.6701525408470449
 40
0.6701525408470449
 40
0.6701525408470449
 40
0.6701525408470449
 40
0.6781951814828522
 40
0.6781951814828522
 40
0.6781951814828522
 40
0.6781951814828522
 40
0.6781951814828522
 40
0.6781951814828522
 40
0.6781951814828522
 40
0.6824209817815371
 40
0.6824209817815371
 40
0.6824209817815371
 40
0.6824209817815371
 40
0.6824209817815371
 40
0.6824209817815371
 40
0.6824209817815371
 40
0.6875930740288247
 40
0.6875930740288247
 40
0.6875930740288247
 40
0.6875930740288247
 40
0.6875930740288247
 40
0.6875930740288247
 40
0.6875930740288247
 40
0.711839201404964
 40
0.711839201404964
 40
0.711839201404964
 40
0.711839201404964
 40
0.711839201404964
 40
0.711839201404964
 40
0.711839201404964
 40
0.7586595125432881
 40
0.7586595125432881
 40
0.7586595125432881
 40
0.7586595125432881
 40
0.7586595125432881
 40
0.7586595125432881
 40
0.7586595125432881
 40
0.791544341228938
 40
0.791544341228938
 40
0.791544341228938
 40
0.791544341228938
 40
0.791544341228938
 40
0.791544341228938
 40
0.791544341228938
 40
0.819048903379233
 40
0.819048903379233
 40
0.819048903379233
 40
0.819048903379233
 40
0.819048903379233
 40
0.819048903379233
 40
0.819048903379233
 40
0.8465545306024393
 40
0.8465545306024393
 40
0.8465545306024393
 40
0.8465545306024393
 40
0.8465545306024393
 40
0.8465545306024393
 40
0.8465545306024393
 40
0.9181946807293621
 40
0.9181946807293621
 40
0.9181946807293621
 40
0.9181946807293621
 40
0.9181946807293621
 40
0.9181946807293621
 40
0.9181946807293621
 40
0.9467452816589265
 40
0.9467452816589265
 40
0.9467452816589265
 40
0.9467452816589265
 40
0.9467452816589265
 40
0.9467452816589265
 40
0.9467452816589265
 40
0.9562063602639443
 40
0.9562063602639443
 40
0.9562063602639443
 40
0.9562063602639443
 40
0.9562063602639443
 40
0.9562063602639443
 40
0.9562063602639443
 40
0.9656683855149559
 40
0.9656683855149559
 40
0.9656683855149559
 40
0.9656683855149559
 40
0.9656683855149559
 40
0.9656683855149559
 40
0.9656683855149559
 40
0.9803952027405495
 40
0.9803952027405495
 40
0.9803952027405495
 40
0.9803952027405495
 40
0.9803952027405495
 40
0.9803952027405495
 40
0.9803952027405495
 40
0.9880965409041325
 40
0.9880965409041325
 40
0.9880965409041325
 40
0.9880965409041325
 40
0.9880965409041325
 40
0.9880965409041325
 40
0.9880965409041325
 40
0.9915016645851659
 40
0.9915016645851659
 40
0.9915016645851659
 40
0.9915016645851659
 40
0.9915016645851659
 40
0.9915016645851659
 40
0.9915016645851659
 40
0.99382813745339
 40
0.99382813745339
 40
0.99382813745339
 40
0.99382813745339
 40
0.99382813745339
 40
0.99382813745339
 40
0.99382813745339
 40
0.9946978538453972
 40
0.9946978538453972
 40
0.9946978538453972
 40
0.9946978538453972
 40
0.9946978538453972
 40
0.9946978538453972
 40
0.9946978538453972
 40
0.9960645510328382
 40
0.9960645510328382
 40
0.9960645510328382
 40
0.9960645510328382
 40
0.9960645510328382
 40
0.9960645510328382
 40
0.9960645510328382
 40
0.9974312482202775
 40
0.9974312482202775
 40
0.9974312482202775
 40
0.9974312482202775
 40
0.9974312482202775
 40
0.9974312482202775
 40
0.9974312482202775
 40
0.9984252098111424
 40
0.9984252098111424
 40
0.9984252098111424
 40
0.9984252098111424
 40
0.9984252098111424
 40
0.9984252098111424
 40
0.9984252098111424
 40
1.0
 40
1.0
 40
1.0
 40
1.0
 40
1.0
 40
1.0
 40
1.0
 40
1.0
 40
1.0
 10
5.825781886930073
 20
229.00526499727354
 30
1315.0
 10
5.825639481123878
 20
229.00540748731007
 30
1315.0
 10
5.82566875368763
 20
229.0052080102898
 30
1315.0
 10
5.82575931741048
 20
229.00497845057737
 30
1315.0
 10
5.82583645675562
 20
229.00487289513669
 30
1315.0
 10
5.82586112786028
 20
229.0048876335306
 30
1315.0
 10
5.825829958535729
 20
229.0048611579211
 30
1315.0
 10
5.825775248267264
 20
229.00447416306915
 30
1315.0
 10
5.825754231336858
 20
229.00197051016175
 30
1315.0
 10
5.825738303002303
 20
229.0000730389164
 30
1315.0
 10
5.825715718953408
 20
228.99738270219348
 30
1315.0
 10
5.825685014933014
 20
228.99372506958775
 30
1315.0
 10
5.825644726683965
 20
228.9889257106943
 30
1315.0
 10
5.825593389949106
 20
228.9828101951079
 30
1315.0
 10
5.825529540471283
 20
228.97520409242352
 30
1315.0
 10
5.825366104867606
 20
228.95573474003012
 30
1315.0
 10
5.8252635835717195
 20
228.94352183664523
 30
1315.0
 10
5.825142201179417
 20
228.92906209521246
 30
1315.0
 10
5.82500000876442
 20
228.91212334886274
 30
1315.0
 10
5.824835057400455
 20
228.89247343072694
 30
1315.0
 10
5.824645398161249
 20
228.86988017393577
 30
1315.0
 10
5.8244290821205285
 20
228.8441114116201
 30
1315.0
 10
5.824028301044782
 20
228.79636815482294
 30
1315.0
 10
5.823860857599849
 20
228.77642136622865
 30
1315.0
 10
5.823681327777012
 20
228.75503478149895
 30
1315.0
 10
5.823489209336065
 20
228.7321485710048
 30
1315.0
 10
5.823284000036805
 20
228.70770290511726
 30
1315.0
 10
5.8230651976390275
 20
228.68163795420742
 30
1315.0
 10
5.82283229990253
 20
228.6538938886464
 30
1315.0
 10
5.822231239850785
 20
228.58229229331747
 30
1315.0
 10
5.821847884137064
 20
228.53662484195226
 30
1315.0
 10
5.821433273188792
 20
228.48723409430409
 30
1315.0
 10
5.82098594274881
 20
228.43394561996777
 30
1315.0
 10
5.820504428559958
 20
228.37658498853816
 30
1315.0
 10
5.819987266365083
 20
228.31497776961012
 30
1315.0
 10
5.819432991907032
 20
228.24894953277882
 30
1315.0
 10
5.818188004852433
 20
228.100639793986
 30
1315.0
 10
5.81748919118661
 20
228.01739324787943
 30
1315.0
 10
5.816741751004913
 20
227.92835404245037
 30
1315.0
 10
5.8159437353810635
 20
227.83329001082987
 30
1315.0
 10
5.815093195388789
 20
227.7319689861487
 30
1315.0
 10
5.814188182101819
 20
227.62415880153765
 30
1315.0
 10
5.813226746593877
 20
227.50962729012764
 30
1315.0
 10
5.810404699809627
 20
227.17344948017652
 30
1315.0
 10
5.80860102173995
 20
226.9585853798631
 30
1315.0
 10
5.806796401453339
 20
226.74360903748607
 30
1315.0
 10
5.804991109575845
 20
226.528552691461
 30
1315.0
 10
5.803185328202101
 20
226.31343803393807
 30
1315.0
 10
5.801379174646975
 20
226.09827904014213
 30
1315.0
 10
5.799572690352374
 20
225.88308064680527
 30
1315.0
 10
5.794770695220665
 20
225.3110404468397
 30
1315.0
 10
5.791774775295848
 20
224.95414990741267
 30
1315.0
 10
5.788778327053437
 20
224.5971964318804
 30
1315.0
 10
5.785781482419735
 20
224.24019573601882
 30
1315.0
 10
5.782784333180695
 20
223.8831587538857
 30
1315.0
 10
5.779786941377981
 20
223.52609287623568
 30
1315.0
 10
5.77678933873899
 20
223.16900188259578
 30
1315.0
 10
5.767412750944297
 20
222.05201092155696
 30
1315.0
 10
5.76103317365474
 20
221.29204041590395
 30
1315.0
 10
5.754653060891946
 20
220.5320061216983
 30
1315.0
 10
5.748272559604937
 20
219.7719255443668
 30
1315.0
 10
5.741891769518962
 20
219.01181056370555
 30
1315.0
 10
5.7355107558673915
 20
218.2516689506492
 30
1315.0
 10
5.729129545807839
 20
217.49150394041092
 30
1315.0
 10
5.7184514530127935
 20
216.21947051051524
 30
1315.0
 10
5.7140182458308875
 20
215.69136236936356
 30
1315.0
 10
5.70944599065967
 20
215.1466900632284
 30
1315.0
 10
5.704732157262774
 20
214.5851521763699
 30
1315.0
 10
5.69987421540384
 20
214.00644729304813
 30
1315.0
 10
5.694869634846497
 20
213.41027399752295
 30
1315.0
 10
5.689715885354382
 20
212.7963308740544
 30
1315.0
 10
5.681622824112485
 20
211.8322406898351
 30
1315.0
 10
5.67883521503757
 20
211.50016307811643
 30
1315.0
 10
5.6760475831654285
 20
211.16808377633686
 30
1315.0
 10
5.673259916916073
 20
210.8360028822124
 30
1315.0
 10
5.670472219430491
 20
210.5039204865846
 30
1315.0
 10
5.667684508570642
 20
210.17183667342078
 30
1315.0
 10
5.664896816919462
 20
209.8397515198137
 30
1315.0
 10
5.658697328018566
 20
209.10121387708415
 30
1315.0
 10
5.655232249868469
 20
208.68839893467026
 30
1315.0
 10
5.651714723560977
 20
208.26928006420925
 30
1315.0
 10
5.6481455153265046
 20
207.84391706116995
 30
1315.0
 10
5.6445253913954705
 20
207.41236972102092
 30
1315.0
 10
5.640855117998282
 20
206.97469783923017
 30
1315.0
 10
5.6371354613653475
 20
206.53096121126558
 30
1315.0
 10
5.615701547766463
 20
203.97283431699063
 30
1315.0
 10
5.598072966070955
 20
201.86441730964486
 30
1315.0
 10
5.5805004833693665
 20
199.75597787573258
 30
1315.0
 10
5.562993757284023
 20
197.64752122913936
 30
1315.0
 10
5.545559888644118
 20
195.53905097943257
 30
1315.0
 10
5.528204812886283
 20
193.430569641617
 30
1315.0
 10
5.510932872029332
 20
191.3220785050145
 30
1315.0
 10
5.460560155216147
 20
185.14152505258588
 30
1315.0
 10
5.427697534810684
 20
181.06944069783046
 30
1315.0
 10
5.3951890137063545
 20
176.99733344310187
 30
1315.0
 10
5.363055578345975
 20
172.92520806603437
 30
1315.0
 10
5.3313173405870256
 20
168.8530678999292
 30
1315.0
 10
5.2999951114002455
 20
164.7809153147591
 30
1315.0
 10
5.269110282935649
 20
160.70875163651624
 30
1315.0
 10
5.21731465745422
 20
153.77597177097192
 30
1315.0
 10
5.196170275514309
 20
150.91536110688946
 30
1315.0
 10
5.175261637432467
 20
148.05474602430888
 30
1315.0
 10
5.154597409212342
 20
145.19412688338318
 30
1315.0
 10
5.134186864893186
 20
142.33350398771472
 30
1315.0
 10
5.114040027024877
 20
139.47287759417455
 30
1315.0
 10
5.094167807142931
 20
136.61224792272188
 30
1315.0
 10
5.058198301725035
 20
131.3586317204411
 30
1315.0
 10
5.042014980575295
 20
128.96564612270296
 30
1315.0
 10
5.02603919707127
 20
126.57265848723553
 30
1315.0
 10
5.010278457185769
 20
124.17966891989688
 30
1315.0
 10
4.994740860976264
 20
121.78667751941458
 30
1315.0
 10
4.979435204973721
 20
119.39368437862359
 30
1315.0
 10
4.964371084571426
 20
117.00068958570402
 30
1315.0
 10
4.934743845195678
 20
112.21420200630493
 30
1315.0
 10
4.920181364489624
 20
109.8207092195059
 30
1315.0
 10
4.905861008994735
 20
107.42721508042167
 30
1315.0
 10
4.891773128620368
 20
105.03371979661271
 30
1315.0
 10
4.8779088713715835
 20
102.64022357026393
 30
1315.0
 10
4.864260086234595
 20
100.24672660064792
 30
1315.0
 10
4.850819226062209
 20
97.85322908658843
 30
1315.0
 10
4.803086678594107
 20
89.22422903915523
 30
1315.0
 10
4.769957502369412
 20
82.98872586206758
 30
1315.0
 10
4.738067526790876
 20
76.75322381467768
 30
1315.0
 10
4.707315862598955
 20
70.51772634618831
 30
1315.0
 10
4.677618820351263
 20
64.28223774321205
 30
1315.0
 10
4.648899214332687
 20
58.04676547618274
 30
1315.0
 10
4.621091117662038
 20
51.811318260255945
 30
1315.0
 10
4.5833553502687465
 20
43.09049245317446
 30
1315.0
 10
4.572732119961168
 20
40.60507758049265
 30
1315.0
 10
4.562234797564545
 20
38.119671314615076
 30
1315.0
 10
4.551857801420157
 20
35.6342750370936
 30
1315.0
 10
4.541593966873818
 20
33.14889140966726
 30
1315.0
 10
4.531435042498762
 20
30.663524223314027
 30
1315.0
 10
4.52137020811185
 20
28.17817894581575
 30
1315.0
 10
4.5080675232230805
 20
24.869255373976326
 30
1315.0
 10
4.504832275101802
 20
24.062519442567712
 30
1315.0
 10
4.501672763588034
 20
23.272959355014834
 30
1315.0
 10
4.498588859005143
 20
22.50087687125318
 30
1315.0
 10
4.495580431676498
 20
21.746573751218335
 30
1315.0
 10
4.4926473519254655
 20
21.010351754845914
 30
1315.0
 10
4.489789490075417
 20
20.29251264207164
 30
1315.0
 10
4.484223664237035
 20
18.894133710354424
 30
1315.0
 10
4.481516913020324
 20
18.21389054462597
 30
1315.0
 10
4.4788832495634505
 20
17.55234762141899
 30
1315.0
 10
4.476324510019354
 20
16.909216399355188
 30
1315.0
 10
4.4738364664739425
 20
16.284202143157273
 30
1315.0
 10
4.471420126150186
 20
15.677002658214377
 30
1315.0
 10
4.4690731790735
 20
15.087309184564504
 30
1315.0
 10
4.463248425200281
 20
13.623754745544613
 30
1315.0
 10
4.459702243283596
 20
12.732724772664127
 30
1315.0
 10
4.456156147702189
 20
11.841716492756664
 30
1315.0
 10
4.45261015059019
 20
10.950732954751174
 30
1315.0
 10
4.449064280195664
 20
10.059781256363785
 30
1315.0
 10
4.445518579537651
 20
9.168872206728416
 30
1315.0
 10
4.441973111839021
 20
8.278021691556742
 30
1315.0
 10
4.436574076664553
 20
6.921435290138415
 30
1315.0
 10
4.4347202807480235
 20
6.45564200483188
 30
1315.0
 10
4.432866599492731
 20
5.989877529855399
 30
1315.0
 10
4.431013048141127
 20
5.524145695054415
 30
1315.0
 10
4.429159665941787
 20
5.0584563622283305
 30
1315.0
 10
4.42730651334177
 20
4.592824719605474
 30
1315.0
 10
4.425453679837393
 20
4.127273254402745
 30
1315.0
 10
4.4227823133751665
 20
3.456053434795134
 30
1315.0
 10
4.421963407328705
 20
3.2502913364199273
 30
1315.0
 10
4.421144613741707
 20
3.044557495149835
 30
1315.0
 10
4.420325949715736
 20
2.8388562079491066
 30
1315.0
 10
4.41950744692021
 20
2.6331954322526947
 30
1315.0
 10
4.418689151622029
 20
2.4275867933238118
 30
1315.0
 10
4.4178711296309086
 20
2.2220468267560705
 30
1315.0
 10
4.416494849977606
 20
1.8762364732602919
 30
1315.0
 10
4.4159364525179345
 20
1.7359309601452821
 30
1315.0
 10
4.415378270108384
 20
1.5956794816085846
 30
1315.0
 10
4.41482033486822
 20
1.4554901077771376
 30
1315.0
 10
4.4142627160566885
 20
1.3153802415210123
 30
1315.0
 10
4.41370557434074
 20
1.1753902522994224
 30
1315.0
 10
4.413149114658905
 20
1.0355716341874768
 30
1315.0
 10
4.412386174932961
 20
0.8438718908314228
 30
1315.0
 10
4.412187779913362
 20
0.7940222460333075
 30
1315.0
 10
4.411998354851423
 20
0.746426434039557
 30
1315.0
 10
4.411817661497155
 20
0.7010245910607418
 30
1315.0
 10
4.411645461600558
 20
0.6577568533073557
 30
1315.0
 10
4.411481516911635
 20
0.6165633569898148
 30
1315.0
 10
4.4113255891803895
 20
0.5773842383184586
 30
1315.0
 10
4.410944634548368
 20
0.4816638259375737
 30
1315.0
 10
4.410731037585406
 20
0.42799447095607546
 30
1315.0
 10
4.410535724746818
 20
0.37891926913093643
 30
1315.0
 10
4.410357771511484
 20
0.33420592103397057
 30
1315.0
 10
4.4101962533582775
 20
0.2936221272369234
 30
1315.0
 10
4.410050245766073
 20
0.25693558831147206
 30
1315.0
 10
4.409918824213749
 20
0.22391400482922563
 30
1315.0
 10
4.4096833041466095
 20
0.1647361498944661
 30
1315.0
 10
4.409579205631795
 20
0.13857987844189829
 30
1315.0
 10
4.409487844114611
 20
0.11562396357588918
 30
1315.0
 10
4.409408295073936
 20
0.09563610586824284
 30
1315.0
 10
4.409339633988646
 20
0.07838400589069953
 30
1315.0
 10
4.409280936337615
 20
0.06363536421493574
 30
1315.0
 10
4.409231277599721
 20
0.051157881412564166
 30
1315.0
 10
4.4091508288959895
 20
0.030943970228712203
 30
1315.0
 10
4.409114937777343
 20
0.021925802752470247
 30
1315.0
 10
4.40908437906289
 20
0.014247479621491976
 30
1315.0
 10
4.409060760202856
 20
0.008312896277942627
 30
1315.0
 10
4.409044700368593
 20
0.004277628504119946
 30
1315.0
 10
4.409035409695925
 20
0.001943211336630668
 30
1315.0
 10
4.40903080274864
 20
0.0007856485940926916
 30
1315.0
 10
4.409026844685467
 20
-0.00020887255695356544
 30
1315.0
 10
4.409028217780075
 20
-5.0872397821422055e-05
 30
1315.0
 10
4.409027117032649
 20
0.00024812272405227986
 30
1315.0
 10
4.40902657774091
 20
0.00022649246537298495
 30
1315.0
 10
4.4090301420207885
 20
-0.000661054744281131
 30
1315.0
 10
4.40903955513599
 20
-0.002953899865971721
 30
1315.0
 10
4.409055477469059
 20
-0.006985532295519903
 30
1315.0
 10
4.4090990074038015
 20
-0.01792306383902087
 30
1315.0
 10
4.409126385688353
 20
-0.024802257494450995
 30
1315.0
 10
4.409161511233861
 20
-0.03362806355748254
 30
1315.0
 10
4.40920558432019
 20
-0.04470206986598108
 30
1315.0
 10
4.409259805227205
 20
-0.058325864257753324
 30
1315.0
 10
4.4093253742347756
 20
-0.07480103457054708
 30
1315.0
 10
4.409403491622766
 20
-0.0944291686420513
 30
1315.0
 10
4.409587223719316
 20
-0.1405945399780393
 30
1315.0
 10
4.409692838427877
 20
-0.1671317772425413
 30
1315.0
 10
4.409813402076592
 20
-0.19742515394137736
 30
1315.0
 10
4.4099501149453255
 20
-0.23177625791245032
 30
1315.0
 10
4.4101041773139436
 20
-0.2704866769935909
 30
1315.0
 10
4.410276789462313
 20
-0.31385799902255745
 30
1315.0
 10
4.410469151670299
 20
-0.362191811837036
 30
1315.0
 10
4.410860224673995
 20
-0.46045461280623107
 30
1315.0
 10
4.411052533977084
 20
-0.5087751324926971
 30
1315.0
 10
4.41126008673344
 20
-0.5609257923329584
 30
1315.0
 10
4.411483577549467
 20
-0.6170811223258543
 30
1315.0
 10
4.411723701031571
 20
-0.6774156524701453
 30
1315.0
 10
4.411981151786156
 20
-0.742103912764512
 30
1315.0
 10
4.412256624419625
 20
-0.8113204332075554
 30
1315.0
 10
4.412845002657137
 20
-0.9591590543884224
 30
1315.0
 10
4.413157908261181
 20
-1.03778115512613
 30
1315.0
 10
4.413490224956917
 20
-1.1212805760099558
 30
1315.0
 10
4.413842647350749
 20
-1.2098318470388072
 30
1315.0
 10
4.414215870049083
 20
-1.303609498211468
 30
1315.0
 10
4.414610587658321
 20
-1.402788059526594
 30
1315.0
 10
4.415027494784868
 20
-1.5075420609827148
 30
1315.0
 10
4.416322224457843
 20
-1.8328617914737286
 30
1315.0
 10
4.417177844270116
 20
-2.0478487594333643
 30
1315.0
 10
4.418033910563439
 20
-2.2629479123062772
 30
1315.0
 10
4.418890295098073
 20
-2.478127027916287
 30
1315.0
 10
4.4197469115854
 20
-2.6933644250271485
 30
1315.0
 10
4.420603704433984
 20
-2.90864613551679
 30
1315.0
 10
4.42146065400748
 20
-3.1239672253943596
 30
1315.0
 10
4.423738598498185
 20
-3.696334031576715
 30
1315.0
 10
4.425159787266172
 20
-4.053428455704832
 30
1315.0
 10
4.426581226383316
 20
-4.410585783731424
 30
1315.0
 10
4.428002853334341
 20
-4.767790307739119
 30
1315.0
 10
4.429424624625579
 20
-5.125031099333636
 30
1315.0
 10
4.430846510858107
 20
-5.482300771630122
 30
1315.0
 10
4.432268496997292
 20
-5.839595546909617
 30
1315.0
 10
4.43671651241624
 20
-6.957224351992945
 30
1315.0
 10
4.439742822284222
 20
-7.717628883674372
 30
1315.0
 10
4.442769385892103
 20
-8.478097171217748
 30
1315.0
 10
4.445796133605425
 20
-9.238611717927256
 30
1315.0
 10
4.448823018168779
 20
-9.999160650208403
 30
1315.0
 10
4.451850008671261
 20
-10.759736201256182
 30
1315.0
 10
4.454877092243109
 20
-11.520335137324956
 30
1315.0
 10
4.4599425077493375
 20
-12.793094726997353
 30
1315.0
 10
4.4620455086379796
 20
-13.321504399376119
 30
1315.0
 10
4.464214470361089
 20
-13.866487694295508
 30
1315.0
 10
4.466450593198533
 20
-14.4283461995935
 30
1315.0
 10
4.468755077430179
 20
-15.007381503107958
 30
1315.0
 10
4.471129123335892
 20
-15.603895192676623
 30
1315.0
 10
4.473573931195538
 20
-16.218188856137132
 30
1315.0
 10
4.4774130739143665
 20
-17.182829507136365
 30
1315.0
 10
4.47873547223598
 20
-17.515096726442174
 30
1315.0
 10
4.480057868675684
 20
-17.847365635044863
 30
1315.0
 10
4.481380250452205
 20
-18.179636135432304
 30
1315.0
 10
4.482702619581135
 20
-18.511908136779837
 30
1315.0
 10
4.484024992874924
 20
-18.844181554950286
 30
1315.0
 10
4.485347401942885
 20
-19.17645631249394
 30
1315.0
 10
4.488288532561026
 20
-19.91541560273201
 30
1315.0
 10
4.489932718773513
 20
-20.328466170541486
 30
1315.0
 10
4.491602477568871
 20
-20.747824144126547
 30
1315.0
 10
4.493297834687308
 20
-21.17342962553688
 30
1315.0
 10
4.4950188158690345
 20
-21.605222716822247
 30
1315.0
 10
4.496765446854263
 20
-22.043143520032512
 30
1315.0
 10
4.4985377533832045
 20
-22.487132137217614
 30
1315.0
 10
4.508764598960307
 20
-25.04665664119265
 30
1315.0
 10
4.517230862223427
 20
-27.15621582217132
 30
1315.0
 10
4.525753464556144
 20
-29.265796718658027
 30
1315.0
 10
4.534341994408045
 20
-31.375394001237765
 30
1315.0
 10
4.54300350572799
 20
-33.48500397500361
 30
1315.0
 10
4.551743901888806
 20
-35.594624053224635
 30
1315.0
 10
4.56056750957879
 20
-37.70425289403539
 30
1315.0
 10
4.586685826574802
 20
-43.887689255341
 30
1315.0
 10
4.60421877380054
 20
-47.96151584464867
 30
1315.0
 10
4.622105869670417
 20
-52.035360930590585
 30
1315.0
 10
4.64036805539002
 20
-56.10921948032815
 30
1315.0
 10
4.659025421452553
 20
-60.18308791497218
 30
1315.0
 10
4.678098774856318
 20
-64.25696360907304
 30
1315.0
 10
4.69760952457091
 20
-68.33084497219875
 30
1315.0
 10
4.731608951701266
 20
-75.2660755688647
 30
1315.0
 10
4.745863952649764
 20
-78.12742217512192
 30
1315.0
 10
4.76035463975973
 20
-80.9887702771747
 30
1315.0
 10
4.77508968694099
 20
-83.85011940792555
 30
1315.0
 10
4.790078379048887
 20
-86.71146914916707
 30
1315.0
 10
4.805330752798108
 20
-89.5728191200361
 30
1315.0
 10
4.820857737676521
 20
-92.43416896546736
 30
1315.0
 10
4.849897609378678
 20
-97.68872411700137
 30
1315.0
 10
4.863324392710427
 20
-100.08192955634934
 30
1315.0
 10
4.876958671011129
 20
-102.4751344616541
 30
1315.0
 10
4.890807961762661
 20
-104.86833863410453
 30
1315.0
 10
4.904880378709696
 20
-107.26154187460504
 30
1315.0
 10
4.919184734797473
 20
-109.65474398126536
 30
1315.0
 10
4.933730645109584
 20
-112.04794474688987
 30
1315.0
 10
4.96332718753168
 20
-116.83443583909424
 30
1315.0
 10
4.978378373136527
 20
-119.22772615860333
 30
1315.0
 10
4.993671664970823
 20
-121.62101483016149
 30
1315.0
 10
5.009197432746393
 20
-124.01430176565903
 30
1315.0
 10
5.024946840974821
 20
-126.40758687244929
 30
1315.0
 10
5.040911752405926
 20
-128.80087005208762
 30
1315.0
 10
5.0570846314662266
 20
-131.1941511990711
 30
1315.0
 10
5.116105090271067
 20
-139.82087710484353
 30
1315.0
 10
5.160114818920279
 20
-146.05430810172453
 30
1315.0
 10
5.205363718849565
 20
-152.2877226130779
 30
1315.0
 10
5.25175105634014
 20
-158.52111843515362
 30
1315.0
 10
5.299193235994084
 20
-164.75449231766012
 30
1315.0
 10
5.347613079992405
 20
-170.9878377361102
 30
1315.0
 10
5.396944636147954
 20
-177.22114678467148
 30
1315.0
 10
5.467092725022198
 20
-185.9385273710671
 30
1315.0
 10
5.487213645863298
 20
-188.42264385041622
 30
1315.0
 10
5.50746041192726
 20
-190.90675015760678
 30
1315.0
 10
5.527827428180078
 20
-193.39084497914874
 30
1315.0
 10
5.548307498960288
 20
-195.87492574052098
 30
1315.0
 10
5.568892326508338
 20
-198.35898875062855
 30
1315.0
 10
5.589571021123973
 20
-200.84302867198704
 30
1315.0
 10
5.617199277876544
 20
-204.1501845757438
 30
1315.0
 10
5.623943057261613
 20
-204.9564664993933
 30
1315.0
 10
5.630550103397953
 20
-205.74558047221882
 30
1315.0
 10
5.637016556092693
 20
-206.51722525057824
 30
1315.0
 10
5.643338555152975
 20
-207.27109959082915
 30
1315.0
 10
5.6495122403859375
 20
-208.00690224932967
 30
1315.0
 10
5.655533751598713
 20
-208.72433198243752
 30
1315.0
 10
5.667265292479489
 20
-210.1219130258844
 30
1315.0
 10
5.672972866808599
 20
-210.8017680128819
 30
1315.0
 10
5.678522213992287
 20
-211.4629334388894
 30
1315.0
 10
5.68391874076591
 20
-212.10569764964237
 30
1315.0
 10
5.689161863584763
 20
-212.73035525552018
 30
1315.0
 10
5.69425632871078
 20
-213.33720824922227
 30
1315.0
 10
5.699203644872513
 20
-213.92656522521804
 30
1315.0
 10
5.711482452190397
 20
-215.38928461597314
 30
1315.0
 10
5.718957941565173
 20
-216.27980622615843
 30
1315.0
 10
5.726433248743968
 20
-217.17030613214945
 30
1315.0
 10
5.733908348119457
 20
-218.06078128346437
 30
1315.0
 10
5.741383180079306
 20
-218.95122457875044
 30
1315.0
 10
5.748857653839373
 20
-219.84162520329627
 30
1315.0
 10
5.756331635978112
 20
-220.73196726319455
 30
1315.0
 10
5.767713010558453
 20
-222.08777950628314
 30
1315.0
 10
5.771620885084404
 20
-222.55330711802566
 30
1315.0
 10
5.775528517638086
 20
-223.01880590469568
 30
1315.0
 10
5.779435876051412
 20
-223.48427203424976
 30
1315.0
 10
5.78334287749769
 20
-223.94969563991592
 30
1315.0
 10
5.787249394414672
 20
-224.41506152577614
 30
1315.0
 10
5.791155237935051
 20
-224.88034719290994
 30
1315.0
 10
5.796786580699044
 20
-225.55118386650824
 30
1315.0
 10
5.798512867280478
 20
-225.75682866500466
 30
1315.0
 10
5.800238916533903
 20
-225.96244519167752
 30
1315.0
 10
5.801964692372694
 20
-226.16802914768718
 30
1315.0
 10
5.803690127962843
 20
-226.37357257139814
 30
1315.0
 10
5.805415125665049
 20
-226.57906383147846
 30
1315.0
 10
5.807139546603687
 20
-226.78448638429356
 30
1315.0
 10
5.810040798081248
 20
-227.13009949506406
 30
1315.0
 10
5.811217923640928
 20
-227.2703251975227
 30
1315.0
 10
5.812394595375364
 20
-227.4104968378076
 30
1315.0
 10
5.813570745501148
 20
-227.55060634119135
 30
1315.0
 10
5.81474622785606
 20
-227.690636296014
 30
1315.0
 10
5.815920703392318
 20
-227.83054631303654
 30
1315.0
 10
5.817093739627726
 20
-227.9702848725861
 30
1315.0
 10
5.818702041267523
 20
-228.1618746527504
 30
1315.0
 10
5.81912026563942
 20
-228.21169585139128
 30
1315.0
 10
5.819519580993749
 20
-228.25926450335282
 30
1315.0
 10
5.819900489570725
 20
-228.3046404382641
 30
1315.0
 10
5.820263493610543
 20
-228.34788348575395
 30
1315.0
 10
5.820609095353412
 20
-228.3890534754514
 30
1315.0
 10
5.820937797039536
 20
-228.42821023698536
 30
1315.0
 10
5.821740864132748
 20
-228.5238760275549
 30
1315.0
 10
5.822191134788998
 20
-228.5775147567032
 30
1315.0
 10
5.822602861804148
 20
-228.62656195429852
 30
1315.0
 10
5.822977994104466
 20
-228.6712497872101
 30
1315.0
 10
5.82331848061623
 20
-228.71181042230708
 30
1315.0
 10
5.823626270265712
 20
-228.74847602645858
 30
1315.0
 10
5.823903311979184
 20
-228.78147876653378
 30
1315.0
 10
5.824399797386662
 20
-228.84062285226986
 30
1315.0
 10
5.824619241080667
 20
-228.86676419793076
 30
1315.0
 10
5.824811834691213
 20
-228.8897070132537
 30
1315.0
 10
5.824979527144574
 20
-228.90968346510786
 30
1315.0
 10
5.825124267367021
 20
-228.92692572036236
 30
1315.0
 10
5.82524800428483
 20
-228.9416659458864
 30
1315.0
 10
5.825352686824274
 20
-228.95413630854915
 30
1315.0
 10
5.825503956338796
 20
-228.97215636916198
 30
1315.0
 10
5.825558601254112
 20
-228.9786659734885
 30
1315.0
 10
5.825604948357245
 20
-228.98418709656676
 30
1315.0
 10
5.825643747347856
 20
-228.98880904676412
 30
1315.0
 10
5.825675747925606
 20
-228.99262113244805
 30
1315.0
 10
5.825701699790162
 20
-228.9957126619859
 30
1315.0
 10
5.825722352641186
 20
-228.99817294374506
 30
1315.0
 10
5.825763969933155
 20
-229.00313062557643
 30
1315.0
 10
5.825897477297276
 20
-229.00414870342345
 30
1315.0
 10
5.825973669039331
 20
-229.00428327062542
 30
1315.0
 10
5.8259139904509425
 20
-229.0042969391112
 30
1315.0
 10
5.825726641346723
 20
-229.0045771817469
 30
1315.0
 10
5.825506576064274
 20
-229.00513633233592
 30
1315.0
 10
5.8254355034641945
 20
-229.00561158561885
 30
1315.0
 10
5.825781886930073
 20
-229.00526499727354
 30
1315.0
  0
ENDSEC
  0
SECTION
  2
OBJECTS
  0
DICTIONARY
  5
A
330
0
100
AcDbDictionary
281
1
  3
ACAD_COLOR
350
B
  3
ACAD_GROUP
350
C
  3
ACAD_LAYOUT
350
D
  3
ACAD_MATERIAL
350
E
  3
ACAD_MLEADERSTYLE
350
F
  3
ACAD_MLINESTYLE
350
10
  3
ACAD_PLOTSETTINGS
350
11
  3
ACAD_PLOTSTYLENAME
350
12
  3
ACAD_SCALELIST
350
14
  3
ACAD_TABLESTYLE
350
15
  3
ACAD_VISUALSTYLE
350
16
  3
EZDXF_META
350
2D
  0
DICTIONARY
  5
B
330
A
100
AcDbDictionary
281
1
  0
DICTIONARY
  5
C
330
A
100
AcDbDictionary
281
1
  0
DICTIONARY
  5
D
330
A
100
AcDbDictionary
281
1
  3
Model
350
1A
  3
Layout1
350
1E
  0
DICTIONARY
  5
E
330
A
100
AcDbDictionary
281
1
  3
ByBlock
350
1F
  3
ByLayer
350
20
  3
Global
350
21
  0
DICTIONARY
  5
F
330
A
100
AcDbDictionary
281
1
  3
Standard
350
2C
  0
DICTIONARY
  5
10
330
A
100
AcDbDictionary
281
1
  3
Standard
350
22
  0
DICTIONARY
  5
11
330
A
100
AcDbDictionary
281
1
  0
ACDBDICTIONARYWDFLT
  5
12
330
A
100
AcDbDictionary
281
1
  3
Normal
350
13
100
AcDbDictionaryWithDefault
340
13
  0
ACDBPLACEHOLDER
  5
13
330
12
  0
DICTIONARY
  5
14
330
A
100
AcDbDictionary
281
1
  0
DICTIONARY
  5
15
330
A
100
AcDbDictionary
281
1
  0
DICTIONARY
  5
16
330
A
100
AcDbDictionary
281
1
  0
LAYOUT
  5
1A
330
D
100
AcDbPlotSettings
  1

  2
Adobe PDF
  4
A3
  6

 40
7.5
 41
20.0
 42
7.5
 43
20.0
 44
420.0
 45
297.0
 46
0.0
 47
0.0
 48
0.0
 49
0.0
140
0.0
141
0.0
142
1.0
143
1.0
 70
1024
 72
1
 73
1
 74
5
  7

 75
16
 76
0
 77
2
 78
300
147
1.0
148
0.0
149
0.0
100
AcDbLayout
  1
Model
 70
1
 71
0
 10
0.0
 20
0.0
 11
420.0
 21
297.0
 12
0.0
 22
0.0
 32
0.0
 14
1e+20
 24
1e+20
 34
1e+20
 15
-1e+20
 25
-1e+20
 35
-1e+20
146
0.0
 13
0.0
 23
0.0
 33
0.0
 16
1.0
 26
0.0
 36
0.0
 17
0.0
 27
1.0
 37
0.0
 76
1
330
17
  0
LAYOUT
  5
1E
330
D
100
AcDbPlotSettings
  1

  2
Adobe PDF
  4
A3
  6

 40
7.5
 41
20.0
 42
7.5
 43
20.0
 44
420.0
 45
297.0
 46
0.0
 47
0.0
 48
0.0
 49
0.0
140
0.0
141
0.0
142
1.0
143
1.0
 70
0
 72
1
 73
1
 74
5
  7

 75
16
 76
0
 77
2
 78
300
147
1.0
148
0.0
149
0.0
100
AcDbLayout
  1
Layout1
 70
1
 71
1
 10
0.0
 20
0.0
 11
420.0
 21
297.0
 12
0.0
 22
0.0
 32
0.0
 14
1e+20
 24
1e+20
 34
1e+20
 15
-1e+20
 25
-1e+20
 35
-1e+20
146
0.0
 13
0.0
 23
0.0
 33
0.0
 16
1.0
 26
0.0
 36
0.0
 17
0.0
 27
1.0
 37
0.0
 76
1
330
1B
  0
MATERIAL
  5
1F
102
{ACAD_REACTORS
330
E
102
}
330
E
100
AcDbMaterial
  1
ByBlock
  2

 70
0
 40
1.0
 71
1
 41
1.0
 91
-1023410177
 42
1.0
 72
1
  3

 73
1
 74
1
 75
1
 44
0.5
 73
0
 45
1.0
 46
1.0
 77
1
  4

 78
1
 79
1
170
1
 48
1.0
171
1
  6

172
1
173
1
174
1
140
1.0
141
1.0
175
1
  7

176
1
177
1
178
1
143
1.0
179
1
  8

270
1
271
1
272
1
145
1.0
146
1.0
273
1
  9

274
1
275
1
276
1
 42
1.0
 72
1
  3

 73
1
 74
1
 75
1
 94
63
  0
MATERIAL
  5
20
102
{ACAD_REACTORS
330
E
102
}
330
E
100
AcDbMaterial
  1
ByLayer
  2

 70
0
 40
1.0
 71
1
 41
1.0
 91
-1023410177
 42
1.0
 72
1
  3

 73
1
 74
1
 75
1
 44
0.5
 73
0
 45
1.0
 46
1.0
 77
1
  4

 78
1
 79
1
170
1
 48
1.0
171
1
  6

172
1
173
1
174
1
140
1.0
141
1.0
175
1
  7

176
1
177
1
178
1
143
1.0
179
1
  8

270
1
271
1
272
1
145
1.0
146
1.0
273
1
  9

274
1
275
1
276
1
 42
1.0
 72
1
  3

 73
1
 74
1
 75
1
 94
63
  0
MATERIAL
  5
21
102
{ACAD_REACTORS
330
E
102
}
330
E
100
AcDbMaterial
  1
Global
  2

 70
0
 40
1.0
 71
1
 41
1.0
 91
-1023410177
 42
1.0
 72
1
  3

 73
1
 74
1
 75
1
 44
0.5
 73
0
 45
1.0
 46
1.0
 77
1
  4

 78
1
 79
1
170
1
 48
1.0
171
1
  6

172
1
173
1
174
1
140
1.0
141
1.0
175
1
  7

176
1
177
1
178
1
143
1.0
179
1
  8

270
1
271
1
272
1
145
1.0
146
1.0
273
1
  9

274
1
275
1
276
1
 42
1.0
 72
1
  3

 73
1
 74
1
 75
1
 94
63
  0
MLINESTYLE
  5
22
102
{ACAD_REACTORS
330
10
102
}
330
10
100
AcDbMlineStyle
  2
Standard
 70
0
  3

 62
256
 51
90.0
 52
90.0
 71
2
 49
0.5
 62
256
  6
BYLAYER
 49
-0.5
 62
256
  6
BYLAYER
  0
MLEADERSTYLE
  5
2C
102
{ACAD_REACTORS
330
F
102
}
330
F
100
AcDbMLeaderStyle
179
2
170
2
171
1
172
0
 90
2
 40
0.0
 41
0.0
173
1
 91
-1056964608
 92
-2
290
1
 42
2.0
291
1
 43
8.0
  3
Standard
 44
4.0
300

342
29
174
1
175
1
176
0
178
1
 93
-1056964608
 45
4.0
292
0
297
0
 46
4.0
 94
-1056964608
 47
1.0
 49
1.0
140
1.0
294
1
141
0.0
177
0
142
1.0
295
0
296
0
143
3.75
271
0
272
9
273
9
  0
DICTIONARY
  5
2D
330
A
100
AcDbDictionary
280
1
281
1
  3
CREATED_BY_EZDXF
350
2E
  3
WRITTEN_BY_EZDXF
350
80
  0
DICTIONARYVAR
  5
2E
330
2D
100
DictionaryVariables
280
0
  1
0.17 @ 2022-02-15T16:42:22.252047+00:00
  0
DICTIONARYVAR
  5
80
330
2D
100
DictionaryVariables
280
0
  1
0.17 @ 2022-02-15T16:42:22.450621+00:00
  0
ENDSEC
  0
EOF
