  0
SECTION
  2
HEADER
  9
$ACADVER
  1
AC1027
  9
$ACADMAINTVER
 70
105
  9
$DWGCODEPAGE
  3
ANSI_1252
  9
$LASTSAVEDBY
  1
ezdxf
  9
$REQUIREDVERSIONS
160
0
  9
$INSBASE
 10
0.0
 20
0.0
 30
0.0
  9
$EXTMIN
 10
1e+20
 20
1e+20
 30
1e+20
  9
$EXTMAX
 10
-1e+20
 20
-1e+20
 30
-1e+20
  9
$LIMMIN
 10
0.0
 20
0.0
  9
$LIMMAX
 10
420.0
 20
297.0
  9
$ORTHOMODE
 70
0
  9
$REGENMODE
 70
1
  9
$FILLMODE
 70
1
  9
$QTEXTMODE
 70
0
  9
$MIRRTEXT
 70
1
  9
$LTSCALE
 40
1.0
  9
$ATTMODE
 70
1
  9
$TEXTSIZE
 40
2.5
  9
$TRACEWID
 40
1.0
  9
$TEXTSTYLE
  7
Standard
  9
$CLAYER
  8
0
  9
$CELTYPE
  6
ByLayer
  9
$CECOLOR
 62
256
  9
$CELTSCALE
 40
1.0
  9
$DISPSILH
 70
0
  9
$DIMSCALE
 40
1.0
  9
$DIMASZ
 40
2.5
  9
$DIMEXO
 40
0.625
  9
$DIMDLI
 40
3.75
  9
$DIMRND
 40
0.0
  9
$DIMDLE
 40
0.0
  9
$DIMEXE
 40
1.25
  9
$DIMTP
 40
0.0
  9
$DIMTM
 40
0.0
  9
$DIMTXT
 40
2.5
  9
$DIMCEN
 40
2.5
  9
$DIMTSZ
 40
0.0
  9
$DIMTOL
 70
0
  9
$DIMLIM
 70
0
  9
$DIMTIH
 70
0
  9
$DIMTOH
 70
0
  9
$DIMSE1
 70
0
  9
$DIMSE2
 70
0
  9
$DIMTAD
 70
1
  9
$DIMZIN
 70
8
  9
$DIMBLK
  1

  9
$DIMASO
 70
1
  9
$DIMSHO
 70
1
  9
$DIMPOST
  1

  9
$DIMAPOST
  1

  9
$DIMALT
 70
0
  9
$DIMALTD
 70
3
  9
$DIMALTF
 40
0.03937007874
  9
$DIMLFAC
 40
1.0
  9
$DIMTOFL
 70
1
  9
$DIMTVP
 40
0.0
  9
$DIMTIX
 70
0
  9
$DIMSOXD
 70
0
  9
$DIMSAH
 70
0
  9
$DIMBLK1
  1

  9
$DIMBLK2
  1

  9
$DIMSTYLE
  2
ISO-25
  9
$DIMCLRD
 70
0
  9
$DIMCLRE
 70
0
  9
$DIMCLRT
 70
0
  9
$DIMTFAC
 40
1.0
  9
$DIMGAP
 40
0.625
  9
$DIMJUST
 70
0
  9
$DIMSD1
 70
0
  9
$DIMSD2
 70
0
  9
$DIMTOLJ
 70
0
  9
$DIMTZIN
 70
8
  9
$DIMALTZ
 70
0
  9
$DIMALTTZ
 70
0
  9
$DIMUPT
 70
0
  9
$DIMDEC
 70
2
  9
$DIMTDEC
 70
2
  9
$DIMALTU
 70
2
  9
$DIMALTTD
 70
3
  9
$DIMTXSTY
  7
Standard
  9
$DIMAUNIT
 70
0
  9
$DIMADEC
 70
0
  9
$DIMALTRND
 40
0.0
  9
$DIMAZIN
 70
0
  9
$DIMDSEP
 70
44
  9
$DIMATFIT
 70
3
  9
$DIMFRAC
 70
0
  9
$DIMLDRBLK
  1

  9
$DIMLUNIT
 70
2
  9
$DIMLWD
 70
-2
  9
$DIMLWE
 70
-2
  9
$DIMTMOVE
 70
0
  9
$DIMFXL
 40
1.0
  9
$DIMFXLON
 70
0
  9
$DIMJOGANG
 40
0.785398163397
  9
$DIMTFILL
 70
0
  9
$DIMTFILLCLR
 70
0
  9
$DIMARCSYM
 70
0
  9
$DIMLTYPE
  6

  9
$DIMLTEX1
  6

  9
$DIMLTEX2
  6

  9
$DIMTXTDIRECTION
 70
0
  9
$LUNITS
 70
2
  9
$LUPREC
 70
4
  9
$SKETCHINC
 40
1.0
  9
$FILLETRAD
 40
10.0
  9
$AUNITS
 70
0
  9
$AUPREC
 70
2
  9
$MENU
  1
.
  9
$ELEVATION
 40
0.0
  9
$PELEVATION
 40
0.0
  9
$THICKNESS
 40
0.0
  9
$LIMCHECK
 70
0
  9
$CHAMFERA
 40
0.0
  9
$CHAMFERB
 40
0.0
  9
$CHAMFERC
 40
0.0
  9
$CHAMFERD
 40
0.0
  9
$SKPOLY
 70
0
  9
$TDCREATE
 40
2459626.737777778
  9
$TDUCREATE
 40
2458532.153996898
  9
$TDUPDATE
 40
2459626.737777778
  9
$TDUUPDATE
 40
2458532.1544311
  9
$TDINDWG
 40
0.0
  9
$TDUSRTIMER
 40
0.0
  9
$USRTIMER
 70
1
  9
$ANGBASE
 50
0.0
  9
$ANGDIR
 70
0
  9
$PDMODE
 70
0
  9
$PDSIZE
 40
0.0
  9
$PLINEWID
 40
0.0
  9
$SPLFRAME
 70
0
  9
$SPLINETYPE
 70
6
  9
$SPLINESEGS
 70
8
  9
$HANDSEED
  5
81
  9
$SURFTAB1
 70
6
  9
$SURFTAB2
 70
6
  9
$SURFTYPE
 70
6
  9
$SURFU
 70
6
  9
$SURFV
 70
6
  9
$UCSBASE
  2

  9
$UCSNAME
  2

  9
$UCSORG
 10
0.0
 20
0.0
 30
0.0
  9
$UCSXDIR
 10
1.0
 20
0.0
 30
0.0
  9
$UCSYDIR
 10
0.0
 20
1.0
 30
0.0
  9
$UCSORTHOREF
  2

  9
$UCSORTHOVIEW
 70
0
  9
$UCSORGTOP
 10
0.0
 20
0.0
 30
0.0
  9
$UCSORGBOTTOM
 10
0.0
 20
0.0
 30
0.0
  9
$UCSORGLEFT
 10
0.0
 20
0.0
 30
0.0
  9
$UCSORGRIGHT
 10
0.0
 20
0.0
 30
0.0
  9
$UCSORGFRONT
 10
0.0
 20
0.0
 30
0.0
  9
$UCSORGBACK
 10
0.0
 20
0.0
 30
0.0
  9
$PUCSBASE
  2

  9
$PUCSNAME
  2

  9
$PUCSORG
 10
0.0
 20
0.0
 30
0.0
  9
$PUCSXDIR
 10
1.0
 20
0.0
 30
0.0
  9
$PUCSYDIR
 10
0.0
 20
1.0
 30
0.0
  9
$PUCSORTHOREF
  2

  9
$PUCSORTHOVIEW
 70
0
  9
$PUCSORGTOP
 10
0.0
 20
0.0
 30
0.0
  9
$PUCSORGBOTTOM
 10
0.0
 20
0.0
 30
0.0
  9
$PUCSORGLEFT
 10
0.0
 20
0.0
 30
0.0
  9
$PUCSORGRIGHT
 10
0.0
 20
0.0
 30
0.0
  9
$PUCSORGFRONT
 10
0.0
 20
0.0
 30
0.0
  9
$PUCSORGBACK
 10
0.0
 20
0.0
 30
0.0
  9
$USERI1
 70
0
  9
$USERI2
 70
0
  9
$USERI3
 70
0
  9
$USERI4
 70
0
  9
$USERI5
 70
0
  9
$USERR1
 40
0.0
  9
$USERR2
 40
0.0
  9
$USERR3
 40
0.0
  9
$USERR4
 40
0.0
  9
$USERR5
 40
0.0
  9
$WORLDVIEW
 70
1
  9
$SHADEDGE
 70
3
  9
$SHADEDIF
 70
70
  9
$TILEMODE
 70
1
  9
$MAXACTVP
 70
64
  9
$PINSBASE
 10
0.0
 20
0.0
 30
0.0
  9
$PLIMCHECK
 70
0
  9
$PEXTMIN
 10
1e+20
 20
1e+20
 30
1e+20
  9
$PEXTMAX
 10
-1e+20
 20
-1e+20
 30
-1e+20
  9
$PLIMMIN
 10
0.0
 20
0.0
  9
$PLIMMAX
 10
420.0
 20
297.0
  9
$UNITMODE
 70
0
  9
$VISRETAIN
 70
1
  9
$PLINEGEN
 70
0
  9
$PSLTSCALE
 70
1
  9
$TREEDEPTH
 70
3020
  9
$CMLSTYLE
  2
Standard
  9
$CMLJUST
 70
0
  9
$CMLSCALE
 40
20.0
  9
$PROXYGRAPHICS
 70
1
  9
$MEASUREMENT
 70
1
  9
$CELWEIGHT
370
-1
  9
$ENDCAPS
280
0
  9
$JOINSTYLE
280
0
  9
$LWDISPLAY
290
0
  9
$INSUNITS
 70
6
  9
$HYPERLINKBASE
  1

  9
$STYLESHEET
  1

  9
$XEDIT
290
1
  9
$CEPSNTYPE
380
0
  9
$PSTYLEMODE
290
1
  9
$FINGERPRINTGUID
  2
{8546712A-F231-420C-B27B-F281990A1A9A}
  9
$VERSIONGUID
  2
{B2AE514A-C7FA-499E-876D-D8594FD9F005}
  9
$EXTNAMES
290
1
  9
$PSVPSCALE
 40
0.0
  9
$OLESTARTUP
290
0
  9
$SORTENTS
280
127
  9
$INDEXCTL
280
0
  9
$HIDETEXT
280
1
  9
$XCLIPFRAME
280
0
  9
$HALOGAP
280
0
  9
$OBSCOLOR
 70
257
  9
$OBSLTYPE
280
0
  9
$INTERSECTIONDISPLAY
280
0
  9
$INTERSECTIONCOLOR
 70
257
  9
$DIMASSOC
280
2
  9
$PROJECTNAME
  1

  9
$CAMERADISPLAY
290
0
  9
$LENSLENGTH
 40
50.0
  9
$CAMERAHEIGHT
 40
0.0
  9
$STEPSPERSEC
 40
24.0
  9
$STEPSIZE
 40
100.0
  9
$3DDWFPREC
 40
2.0
  9
$PSOLWIDTH
 40
0.005
  9
$PSOLHEIGHT
 40
0.08
  9
$LOFTANG1
 40
1.570796326795
  9
$LOFTANG2
 40
1.570796326795
  9
$LOFTMAG1
 40
0.0
  9
$LOFTMAG2
 40
0.0
  9
$LOFTPARAM
 70
7
  9
$LOFTNORMALS
280
1
  9
$LATITUDE
 40
37.795
  9
$LONGITUDE
 40
-122.394
  9
$NORTHDIRECTION
 40
0.0
  9
$TIMEZONE
 70
-8000
  9
$LIGHTGLYPHDISPLAY
280
1
  9
$TILEMODELIGHTSYNCH
280
1
  9
$CMATERIAL
347
20
  9
$SOLIDHIST
280
0
  9
$SHOWHIST
280
1
  9
$DWFFRAME
280
2
  9
$DGNFRAME
280
2
  9
$REALWORLDSCALE
290
1
  9
$INTERFERECOLOR
 62
256
  9
$CSHADOW
280
0
  9
$SHADOWPLANELOCATION
 40
0.0
  0
ENDSEC
  0
SECTION
  2
CLASSES
  0
CLASS
  1
ACDBDICTIONARYWDFLT
  2
AcDbDictionaryWithDefault
  3
ObjectDBX Classes
 90
0
 91
0
280
0
281
0
  0
CLASS
  1
SUN
  2
AcDbSun
  3
SCENEOE
 90
1153
 91
0
280
0
281
0
  0
CLASS
  1
VISUALSTYLE
  2
AcDbVisualStyle
  3
ObjectDBX Classes
 90
4095
 91
0
280
0
281
0
  0
CLASS
  1
MATERIAL
  2
AcDbMaterial
  3
ObjectDBX Classes
 90
1153
 91
0
280
0
281
0
  0
CLASS
  1
SCALE
  2
AcDbScale
  3
ObjectDBX Classes
 90
1153
 91
0
280
0
281
0
  0
CLASS
  1
TABLESTYLE
  2
AcDbTableStyle
  3
ObjectDBX Classes
 90
4095
 91
0
280
0
281
0
  0
CLASS
  1
MLEADERSTYLE
  2
AcDbMLeaderStyle
  3
ACDB_MLEADERSTYLE_CLASS
 90
4095
 91
0
280
0
281
0
  0
CLASS
  1
DICTIONARYVAR
  2
AcDbDictionaryVar
  3
ObjectDBX Classes
 90
0
 91
0
280
0
281
0
  0
CLASS
  1
CELLSTYLEMAP
  2
AcDbCellStyleMap
  3
ObjectDBX Classes
 90
1152
 91
0
280
0
281
0
  0
CLASS
  1
MENTALRAYRENDERSETTINGS
  2
AcDbMentalRayRenderSettings
  3
SCENEOE
 90
1024
 91
0
280
0
281
0
  0
CLASS
  1
ACDBDETAILVIEWSTYLE
  2
AcDbDetailViewStyle
  3
ObjectDBX Classes
 90
1025
 91
0
280
0
281
0
  0
CLASS
  1
ACDBSECTIONVIEWSTYLE
  2
AcDbSectionViewStyle
  3
ObjectDBX Classes
 90
1025
 91
0
280
0
281
0
  0
CLASS
  1
RASTERVARIABLES
  2
AcDbRasterVariables
  3
ISM
 90
0
 91
0
280
0
281
0
  0
CLASS
  1
ACDBPLACEHOLDER
  2
AcDbPlaceHolder
  3
ObjectDBX Classes
 90
0
 91
0
280
0
281
0
  0
CLASS
  1
LAYOUT
  2
AcDbLayout
  3
ObjectDBX Classes
 90
0
 91
0
280
0
281
0
  0
ENDSEC
  0
SECTION
  2
TABLES
  0
TABLE
  2
VPORT
  5
8
330
0
100
AcDbSymbolTable
 70
1
  0
VPORT
  5
23
330
8
100
AcDbSymbolTableRecord
100
AcDbViewportTableRecord
  2
*Active
 70
0
 10
0.0
 20
0.0
 11
1.0
 21
1.0
 12
344.2
 22
148.5
 13
0.0
 23
0.0
 14
0.5
 24
0.5
 15
0.5
 25
0.5
 16
0.0
 26
0.0
 36
1.0
 17
0.0
 27
0.0
 37
0.0
 40
297.0
 41
1.34
 42
50.0
 43
0.0
 44
0.0
 50
0.0
 51
0.0
 71
0
 72
1000
 73
1
 74
3
 75
0
 76
0
 77
0
 78
0
281
0
 65
0
146
0.0
  0
ENDTAB
  0
TABLE
  2
LTYPE
  5
2
330
0
100
AcDbSymbolTable
 70
3
  0
LTYPE
  5
24
330
2
100
AcDbSymbolTableRecord
100
AcDbLinetypeTableRecord
  2
ByBlock
 70
0
  3

 72
65
 73
0
 40
0.0
  0
LTYPE
  5
25
330
2
100
AcDbSymbolTableRecord
100
AcDbLinetypeTableRecord
  2
ByLayer
 70
0
  3

 72
65
 73
0
 40
0.0
  0
LTYPE
  5
26
330
2
100
AcDbSymbolTableRecord
100
AcDbLinetypeTableRecord
  2
Continuous
 70
0
  3

 72
65
 73
0
 40
0.0
  0
ENDTAB
  0
TABLE
  2
LAYER
  5
1
330
0
100
AcDbSymbolTable
 70
2
  0
LAYER
  5
27
330
1
100
AcDbSymbolTableRecord
100
AcDbLayerTableRecord
  2
0
 70
0
 62
7
  6
Continuous
370
-3
390
13
347
21
  0
LAYER
  5
28
330
1
100
AcDbSymbolTableRecord
100
AcDbLayerTableRecord
  2
Defpoints
 70
0
 62
7
  6
Continuous
290
0
370
-3
390
13
347
21
  0
ENDTAB
  0
TABLE
  2
STYLE
  5
5
330
0
100
AcDbSymbolTable
 70
1
  0
STYLE
  5
29
330
5
100
AcDbSymbolTableRecord
100
AcDbTextStyleTableRecord
  2
Standard
 70
0
 40
0.0
 41
1.0
 50
0.0
 71
0
 42
2.5
  3
txt
  4

  0
ENDTAB
  0
TABLE
  2
VIEW
  5
7
330
0
100
AcDbSymbolTable
 70
0
  0
ENDTAB
  0
TABLE
  2
UCS
  5
6
330
0
100
AcDbSymbolTable
 70
0
  0
ENDTAB
  0
TABLE
  2
APPID
  5
3
330
0
100
AcDbSymbolTable
 70
3
  0
APPID
  5
2A
330
3
100
AcDbSymbolTableRecord
100
AcDbRegAppTableRecord
  2
ACAD
 70
0
  0
APPID
  5
7E
330
3
100
AcDbSymbolTableRecord
100
AcDbRegAppTableRecord
  2
HATCHBACKGROUNDCOLOR
 70
0
  0
APPID
  5
7F
330
3
100
AcDbSymbolTableRecord
100
AcDbRegAppTableRecord
  2
EZDXF
 70
0
  0
ENDTAB
  0
TABLE
  2
DIMSTYLE
  5
4
330
0
100
AcDbSymbolTable
 70
1
100
AcDbDimStyleTable
  0
DIMSTYLE
105
2B
330
4
100
AcDbSymbolTableRecord
100
AcDbDimStyleTableRecord
  2
Standard
 70
0
 40
1.0
 41
2.5
 42
0.625
 43
3.75
 44
1.25
 45
0.0
 46
0.0
 47
0.0
 48
0.0
 49
2.5
140
2.5
141
2.5
142
0.0
143
0.03937007874
144
1.0
145
0.0
146
1.0
147
0.625
148
0.0
 69
0
 70
0
 71
0
 72
0
 73
0
 74
0
 75
0
 76
0
 77
1
 78
8
 79
0
170
0
171
3
172
1
173
0
174
0
175
0
176
0
177
0
178
0
179
0
271
0
272
2
273
2
274
3
275
0
276
0
277
2
278
44
279
0
280
0
281
0
282
0
283
0
284
8
285
0
286
0
288
0
289
3
290
0
371
-2
372
-2
  0
ENDTAB
  0
TABLE
  2
BLOCK_RECORD
  5
9
330
0
100
AcDbSymbolTable
 70
2
  0
BLOCK_RECORD
  5
17
330
9
100
AcDbSymbolTableRecord
100
AcDbBlockTableRecord
  2
*Model_Space
340
1A
 70
0
280
1
281
0
  0
BLOCK_RECORD
  5
1B
330
9
100
AcDbSymbolTableRecord
100
AcDbBlockTableRecord
  2
*Paper_Space
340
1E
 70
0
280
1
281
0
  0
ENDTAB
  0
ENDSEC
  0
SECTION
  2
BLOCKS
  0
BLOCK
  5
18
330
17
100
AcDbEntity
  8
0
100
AcDbBlockBegin
  2
*Model_Space
 70
0
 10
0.0
 20
0.0
 30
0.0
  3
*Model_Space
  1

  0
ENDBLK
  5
19
330
17
100
AcDbEntity
  8
0
100
AcDbBlockEnd
  0
BLOCK
  5
1C
330
1B
100
AcDbEntity
  8
0
100
AcDbBlockBegin
  2
*Paper_Space
 70
0
 10
0.0
 20
0.0
 30
0.0
  3
*Paper_Space
  1

  0
ENDBLK
  5
1D
330
1B
100
AcDbEntity
  8
0
100
AcDbBlockEnd
  0
ENDSEC
  0
SECTION
  2
ENTITIES
  0
SPLINE
  5
2F
330
17
100
AcDbEntity
  8
0
100
AcDbSpline
 70
0
 71
8
 72
81
 73
72
 74
0
 40
0.0
 40
0.0
 40
0.0
 40
0.0
 40
0.0
 40
0.0
 40
0.0
 40
0.0
 40
0.0
 40
0.10841904014367024
 40
0.10841904014367024
 40
0.10841904014367024
 40
0.10841904014367024
 40
0.10841904014367024
 40
0.10841904014367024
 40
0.10841904014367024
 40
0.20721073124502104
 40
0.20721073124502104
 40
0.20721073124502104
 40
0.20721073124502104
 40
0.20721073124502104
 40
0.20721073124502104
 40
0.20721073124502104
 40
0.30934033914101644
 40
0.30934033914101644
 40
0.30934033914101644
 40
0.30934033914101644
 40
0.30934033914101644
 40
0.30934033914101644
 40
0.30934033914101644
 40
0.3693535096097237
 40
0.3693535096097237
 40
0.3693535096097237
 40
0.3693535096097237
 40
0.3693535096097237
 40
0.3693535096097237
 40
0.3693535096097237
 40
0.4386580639728288
 40
0.4386580639728288
 40
0.4386580639728288
 40
0.4386580639728288
 40
0.4386580639728288
 40
0.4386580639728288
 40
0.4386580639728288
 40
0.4616709168806836
 40
0.4616709168806836
 40
0.4616709168806836
 40
0.4616709168806836
 40
0.4616709168806836
 40
0.4616709168806836
 40
0.4616709168806836
 40
0.4813962193731271
 40
0.4813962193731271
 40
0.4813962193731271
 40
0.4813962193731271
 40
0.4813962193731271
 40
0.4813962193731271
 40
0.4813962193731271
 40
0.6489917706069475
 40
0.6489917706069475
 40
0.6489917706069475
 40
0.6489917706069475
 40
0.6489917706069475
 40
0.6489917706069475
 40
0.6489917706069475
 40
0.7645765253317589
 40
0.7645765253317589
 40
0.7645765253317589
 40
0.7645765253317589
 40
0.7645765253317589
 40
0.7645765253317589
 40
0.7645765253317589
 40
1.0
 40
1.0
 40
1.0
 40
1.0
 40
1.0
 40
1.0
 40
1.0
 40
1.0
 40
1.0
 10
45.29619918317525
 20
235.8999999974892
 30
1341.0
 10
44.964563064582066
 20
236.63639473467924
 30
1341.0
 10
44.623402753409884
 20
237.3684767754952
 30
1341.0
 10
44.27206194630742
 20
238.09581639119574
 30
1341.0
 10
43.90982254758035
 20
238.81787004075503
 30
1341.0
 10
43.535889188935485
 20
239.53397229313492
 30
1341.0
 10
43.149370064895905
 20
240.24332597144436
 30
1341.0
 10
42.74924454643866
 20
240.94498546415934
 30
1341.0
 10
41.956216884901764
 20
242.269148075136
 30
1341.0
 10
41.56590688236252
 20
242.89301583923623
 30
1341.0
 10
41.162438677633794
 20
243.50865016588688
 30
1341.0
 10
40.744825752796345
 20
244.11499755498946
 30
1341.0
 10
40.312025850185535
 20
244.7107262856365
 30
1341.0
 10
39.86292424653293
 20
245.29421431880604
 30
1341.0
 10
39.3963088732309
 20
245.8635310984528
 30
1341.0
 10
38.408962857545895
 20
246.98797586747324
 30
1341.0
 10
37.8871031011624
 20
247.54178399714456
 30
1341.0
 10
37.34373613017861
 20
248.07542925490395
 30
1341.0
 10
36.7775435493001
 20
248.58569052379977
 30
1341.0
 10
36.18749061975281
 20
249.06863910201454
 30
1341.0
 10
35.572923896319125
 20
249.51976244660446
 30
1341.0
 10
34.93378428690699
 20
249.93422981262958
 30
1341.0
 10
33.88158935520043
 20
250.52671807834608
 30
1341.0
 10
33.48403435905013
 20
250.73173768411942
 30
1341.0
 10
33.07870799682002
 20
250.92147177340837
 30
1341.0
 10
32.666049639113446
 20
251.0949859412219
 30
1341.0
 10
32.24661382255313
 20
251.25146151791816
 30
1341.0
 10
31.82108635810158
 20
251.39023693764037
 30
1341.0
 10
31.390301255587346
 20
251.51085046506364
 30
1341.0
 10
30.452861298380725
 20
251.731146181883
 30
1341.0
 10
29.944619041295205
 20
251.8247359877658
 30
1341.0
 10
29.4321063422882
 20
251.89347736175708
 30
1341.0
 10
28.916795943585825
 20
251.93753372569543
 30
1341.0
 10
28.40005363716375
 20
251.95751237074336
 30
1341.0
 10
27.88313268638078
 20
251.95437001119657
 30
1341.0
 10
27.36716771261485
 20
251.92931978095933
 30
1341.0
 10
26.68249241367008
 20
251.86860461645986
 30
1341.0
 10
26.511860411743783
 20
251.85119062443505
 30
1341.0
 10
26.341275427278646
 20
251.831537117857
 30
1341.0
 10
26.170740846430405
 20
251.80968351796892
 30
1341.0
 10
26.000260055354623
 20
251.78566924601364
 30
1341.0
 10
25.829836440206705
 20
251.75953372323377
 30
1341.0
 10
25.65947338714185
 20
251.73131637087178
 30
1341.0
 10
25.343203621035027
 20
251.67511967242552
 30
1341.0
 10
25.1972799421339
 20
251.64768218977832
 30
1341.0
 10
25.051405378000936
 20
251.61876898726723
 30
1341.0
 10
24.905582061025214
 20
251.58840488993098
 30
1341.0
 10
24.759812123595747
 20
251.55661472280818
 30
1341.0
 10
24.614097698101407
 20
251.5234233109373
 30
1341.0
 10
24.468440916930966
 20
251.48885547935663
 30
1341.0
 10
23.085782517371115
 20
251.14774752456174
 30
1341.0
 10
21.87135898169325
 20
250.74950740798096
 30
1341.0
 10
20.687682416815033
 20
250.261914709773
 30
1341.0
 10
19.541890931407053
 20
249.68927025859728
 30
1341.0
 10
18.440160487913246
 20
249.0364503398741
 30
1341.0
 10
17.38769044493031
 20
248.30892970834628
 30
1341.0
 10
16.3886804558455
 20
247.5128230012172
 30
1341.0
 10
14.796395989410575
 20
246.0632436288252
 30
1341.0
 10
14.173299819952716
 20
245.44206836673763
 30
1341.0
 10
13.577993817582726
 20
244.79351053922275
 30
1341.0
 10
13.011121794514706
 20
244.1197147758168
 30
1341.0
 10
12.473042210722575
 20
243.4228147666116
 30
1341.0
 10
11.963865340863265
 20
242.70490285412058
 30
1341.0
 10
11.48348784071131
 20
241.9680020348952
 30
1341.0
 10
10.111268150261804
 20
239.6783683427927
 30
1341.0
 10
9.309719938121916
 20
238.07277555277443
 30
1341.0
 10
8.623473966423798
 20
236.41224032524454
 30
1341.0
 10
8.046820022954464
 20
234.71008849076634
 30
1341.0
 10
7.572761350992545
 20
232.97769281894648
 30
1341.0
 10
7.193762011253668
 20
231.2242321850995
 30
1341.0
 10
6.9023541257087615
 20
229.4564960324985
 30
1341.0
 10
6.691635080646165
 20
227.6787196920156
 30
1341.0
  0
LINE
  5
30
330
17
100
AcDbEntity
  8
0
100
AcDbLine
 10
27.21554300323201
 20
235.9
 30
1341.0
 11
45.296199188750364
 21
235.9
 31
1341.0
  0
SPLINE
  5
31
330
17
100
AcDbEntity
  8
0
100
AcDbSpline
 70
0
 71
1
 72
4
 73
2
 74
0
 40
0.0
 40
0.0
 40
1.0
 40
1.0
 10
27.215543003227893
 20
235.9000006000011
 30
1341.0
 10
27.215543003227893
 20
232.09999939999986
 30
1341.0
  0
LINE
  5
32
330
17
100
AcDbEntity
  8
0
100
AcDbLine
 10
27.21554300323201
 20
232.1
 30
1341.0
 11
46.88815423470324
 21
232.1
 31
1341.0
  0
SPLINE
  5
33
330
17
100
AcDbEntity
  8
0
100
AcDbSpline
 70
0
 71
8
 72
39
 73
30
 74
0
 40
0.0
 40
0.0
 40
0.0
 40
0.0
 40
0.0
 40
0.0
 40
0.0
 40
0.0
 40
0.0
 40
0.30641478407317974
 40
0.30641478407317974
 40
0.30641478407317974
 40
0.30641478407317974
 40
0.30641478407317974
 40
0.30641478407317974
 40
0.30641478407317974
 40
0.7592278467589093
 40
0.7592278467589093
 40
0.7592278467589093
 40
0.7592278467589093
 40
0.7592278467589093
 40
0.7592278467589093
 40
0.7592278467589093
 40
0.9456815407961461
 40
0.9456815407961461
 40
0.9456815407961461
 40
0.9456815407961461
 40
0.9456815407961461
 40
0.9456815407961461
 40
0.9456815407961461
 40
1.0
 40
1.0
 40
1.0
 40
1.0
 40
1.0
 40
1.0
 40
1.0
 40
1.0
 40
1.0
 10
53.497614667468795
 20
209.90000000593588
 30
1341.0
 10
53.29158434735835
 20
210.76437352323939
 30
1341.0
 10
53.08264489988778
 20
211.62805077328875
 30
1341.0
 10
52.87068030181705
 20
212.49099130343882
 30
1341.0
 10
52.65556387823672
 20
213.35315076403867
 30
1341.0
 10
52.43715655901944
 20
214.21448050038754
 30
1341.0
 10
52.21530464002059
 20
215.07492702906427
 30
1341.0
 10
51.9898368116881
 20
215.93443134266414
 30
1341.0
 10
51.42173988526007
 20
218.06159544555382
 30
1341.0
 10
51.07461532211713
 20
219.32801138710016
 30
1341.0
 10
50.718560223875336
 20
220.5919762568816
 30
1341.0
 10
50.35285713404505
 20
221.85322176145547
 30
1341.0
 10
49.976660844841454
 20
223.1113995945504
 30
1341.0
 10
49.5889660433982
 20
224.3660717429634
 30
1341.0
 10
49.188534309225986
 20
225.61668855180508
 30
1341.0
 10
48.60293516376712
 20
227.37554219520982
 30
1341.0
 10
48.42970192150013
 20
227.88773152257278
 30
1341.0
 10
48.25391190922561
 20
228.39905311935854
 30
1341.0
 10
48.07544511064623
 20
228.9094494657293
 30
1341.0
 10
47.894185586943266
 20
229.41886115193
 30
1341.0
 10
47.71002147677657
 20
229.9272268782893
 30
1341.0
 10
47.52284499628458
 20
230.43448345521898
 30
1341.0
 10
47.277115626429875
 20
231.08799980024645
 30
1341.0
 10
47.221646254313065
 20
231.23471480512424
 30
1341.0
 10
47.166144466989564
 20
231.38071249724723
 30
1341.0
 10
47.110610408715026
 20
231.5259945560152
 30
1341.0
 10
47.055044223745085
 20
231.67056266082793
 30
1341.0
 10
46.99944605633539
 20
231.81441849108518
 30
1341.0
 10
46.94381605074157
 20
231.95756372618675
 30
1341.0
 10
46.888154351219264
 20
232.10000004553248
 30
1341.0
  0
LINE
  5
34
330
17
100
AcDbEntity
  8
0
100
AcDbLine
 10
27.21554300323201
 20
209.9
 30
1341.0
 11
53.49761464256535
 21
209.9
 31
1341.0
  0
SPLINE
  5
35
330
17
100
AcDbEntity
  8
0
100
AcDbSpline
 70
0
 71
1
 72
4
 73
2
 74
0
 40
0.0
 40
0.0
 40
1.0
 40
1.0
 10
27.215543003227893
 20
209.90000060000008
 30
1341.0
 10
27.215543003227893
 20
206.09999939999994
 30
1341.0
  0
LINE
  5
36
330
17
100
AcDbEntity
  8
0
100
AcDbLine
 10
27.21554300323201
 20
206.1
 30
1341.0
 11
54.37854287885498
 21
206.1
 31
1341.0
  0
SPLINE
  5
37
330
17
100
AcDbEntity
  8
0
100
AcDbSpline
 70
0
 71
8
 72
25
 73
16
 74
0
 40
0.0
 40
0.0
 40
0.0
 40
0.0
 40
0.0
 40
0.0
 40
0.0
 40
0.0
 40
0.0
 40
0.49917692296537025
 40
0.49917692296537025
 40
0.49917692296537025
 40
0.49917692296537025
 40
0.49917692296537025
 40
0.49917692296537025
 40
0.49917692296537025
 40
1.0
 40
1.0
 40
1.0
 40
1.0
 40
1.0
 40
1.0
 40
1.0
 40
1.0
 40
1.0
 10
58.75355183486394
 20
183.8999999983437
 30
1341.0
 10
58.512386487198754
 20
185.29128282133604
 30
1341.0
 10
58.2673210128678
 20
186.6818887128116
 30
1341.0
 10
58.0182339794721
 20
188.07178289706997
 30
1341.0
 10
57.76499243321996
 20
189.46092707410867
 30
1341.0
 10
57.50745017601318
 20
190.8492791173402
 30
1341.0
 10
57.24544555999224
 20
192.23679268672
 30
1341.0
 10
56.9787985931798
 20
193.62341672035572
 30
1341.0
 10
56.43492039924206
 20
196.39934241635973
 30
1341.0
 10
56.157664390668224
 20
197.78860029617792
 30
1341.0
 10
55.87533259825347
 20
199.17682705441973
 30
1341.0
 10
55.58769648782992
 20
200.5639671275025
 30
1341.0
 10
55.294503003659386
 20
201.94995018311585
 30
1341.0
 10
54.995468478420335
 20
203.33468967881527
 30
1341.0
 10
54.69027179058056
 20
204.71808124698543
 30
1341.0
 10
54.37854287054981
 20
206.09999999812646
 30
1341.0
  0
LINE
  5
38
330
17
100
AcDbEntity
  8
0
100
AcDbLine
 10
27.21554300323201
 20
183.9
 30
1341.0
 11
58.75355184441936
 21
183.9
 31
1341.0
  0
SPLINE
  5
39
330
17
100
AcDbEntity
  8
0
100
AcDbSpline
 70
0
 71
1
 72
4
 73
2
 74
0
 40
0.0
 40
0.0
 40
1.0
 40
1.0
 10
27.215543003227893
 20
183.90000060000014
 30
1341.0
 10
27.215543003227893
 20
180.0999993999999
 30
1341.0
  0
LINE
  5
3A
330
17
100
AcDbEntity
  8
0
100
AcDbLine
 10
27.21554300323201
 20
180.1
 30
1341.0
 11
59.39942016802484
 21
180.1
 31
1341.0
  0
SPLINE
  5
3B
330
17
100
AcDbEntity
  8
0
100
AcDbSpline
 70
0
 71
8
 72
25
 73
16
 74
0
 40
0.0
 40
0.0
 40
0.0
 40
0.0
 40
0.0
 40
0.0
 40
0.0
 40
0.0
 40
0.0
 40
0.5526262646282183
 40
0.5526262646282183
 40
0.5526262646282183
 40
0.5526262646282183
 40
0.5526262646282183
 40
0.5526262646282183
 40
0.5526262646282183
 40
1.0
 40
1.0
 40
1.0
 40
1.0
 40
1.0
 40
1.0
 40
1.0
 40
1.0
 40
1.0
 10
62.72085966722172
 20
157.89999999979676
 30
1341.0
 10
62.51484831003997
 20
159.4369326383175
 30
1341.0
 10
62.30539675687615
 20
160.97340330629086
 30
1341.0
 10
62.09244878011103
 20
162.50939511303673
 30
1341.0
 10
61.87594237829311
 20
164.0448899537402
 30
1341.0
 10
61.6558092029035
 20
165.57986843366137
 30
1341.0
 10
61.431973853078276
 20
167.114309774952
 30
1341.0
 10
61.20435300444226
 20
168.64819170150344
 30
1341.0
 10
60.7854466276521
 20
171.42275869892467
 30
1341.0
 10
60.59549847908434
 20
172.6636388183029
 30
1341.0
 10
60.40296069519786
 20
173.90411904764372
 30
1341.0
 10
60.207780400630774
 20
175.14418619886413
 30
1341.0
 10
60.009900553835955
 20
176.38382541592244
 30
1341.0
 10
59.80925947139553
 20
177.62302009030125
 30
1341.0
 10
59.605790274203244
 20
178.8617517633797
 30
1341.0
 10
59.39942016493782
 20
180.09999999948553
 30
1341.0
  0
LINE
  5
3C
330
17
100
AcDbEntity
  8
0
100
AcDbLine
 10
27.21554300323201
 20
157.9
 30
1341.0
 11
62.720859668737305
 21
157.9
 31
1341.0
  0
SPLINE
  5
3D
330
17
100
AcDbEntity
  8
0
100
AcDbSpline
 70
0
 71
1
 72
4
 73
2
 74
0
 40
0.0
 40
0.0
 40
1.0
 40
1.0
 10
27.215543003227893
 20
157.90000060000042
 30
1341.0
 10
27.215543003227893
 20
154.09999939999918
 30
1341.0
  0
LINE
  5
3E
330
17
100
AcDbEntity
  8
0
100
AcDbLine
 10
27.21554300323201
 20
154.1
 30
1341.0
 11
63.220946495482394
 21
154.1
 31
1341.0
  0
SPLINE
  5
3F
330
17
100
AcDbEntity
  8
0
100
AcDbSpline
 70
0
 71
8
 72
25
 73
16
 74
0
 40
0.0
 40
0.0
 40
0.0
 40
0.0
 40
0.0
 40
0.0
 40
0.0
 40
0.0
 40
0.0
 40
0.14437527474276088
 40
0.14437527474276088
 40
0.14437527474276088
 40
0.14437527474276088
 40
0.14437527474276088
 40
0.14437527474276088
 40
0.14437527474276088
 40
1.0
 40
1.0
 40
1.0
 40
1.0
 40
1.0
 40
1.0
 40
1.0
 40
1.0
 40
1.0
 10
65.79276733998559
 20
131.90000001892588
 30
1341.0
 10
65.75145075722239
 20
132.30121168038932
 30
1341.0
 10
65.70992862469595
 20
132.70240216386182
 30
1341.0
 10
65.66820072263059
 20
133.10357132062555
 30
1341.0
 10
65.62626684340177
 20
133.5047190023141
 30
1341.0
 10
65.58412681694962
 20
133.9058450633587
 30
1341.0
 10
65.54178051123479
 20
134.30694936121012
 30
1341.0
 10
65.49922772583297
 20
134.7080317469576
 30
1341.0
 10
65.20305558884374
 20
137.48593318085477
 30
1341.0
 10
64.94237577297532
 20
139.86199103316977
 30
1341.0
 10
64.6743695466188
 20
142.2372384145522
 30
1341.0
 10
64.3989589960128
 20
144.61164310269476
 30
1341.0
 10
64.1160454562844
 20
146.98516759668112
 30
1341.0
 10
63.82550778514561
 20
149.3577688824621
 30
1341.0
 10
63.52719984571115
 20
151.7293980975627
 30
1341.0
 10
63.22094649855269
 20
154.10000000039668
 30
1341.0
  0
LINE
  5
40
330
17
100
AcDbEntity
  8
0
100
AcDbLine
 10
27.21554300323201
 20
131.9
 30
1341.0
 11
65.79276715620264
 21
131.9
 31
1341.0
  0
SPLINE
  5
41
330
17
100
AcDbEntity
  8
0
100
AcDbSpline
 70
0
 71
1
 72
4
 73
2
 74
0
 40
0.0
 40
0.0
 40
1.0
 40
1.0
 10
27.215543003227893
 20
131.90000060000256
 30
1341.0
 10
27.215543003227893
 20
128.09999939999764
 30
1341.0
  0
LINE
  5
42
330
17
100
AcDbEntity
  8
0
100
AcDbLine
 10
27.21554300323201
 20
128.1
 30
1341.0
 11
66.17596019119907
 21
128.1
 31
1341.0
  0
SPLINE
  5
43
330
17
100
AcDbEntity
  8
0
100
AcDbSpline
 70
0
 71
8
 72
32
 73
23
 74
0
 40
0.0
 40
0.0
 40
0.0
 40
0.0
 40
0.0
 40
0.0
 40
0.0
 40
0.0
 40
0.0
 40
0.06897398669736497
 40
0.06897398669736497
 40
0.06897398669736497
 40
0.06897398669736497
 40
0.06897398669736497
 40
0.06897398669736497
 40
0.06897398669736497
 40
0.7838169136156579
 40
0.7838169136156579
 40
0.7838169136156579
 40
0.7838169136156579
 40
0.7838169136156579
 40
0.7838169136156579
 40
0.7838169136156579
 40
1.0
 40
1.0
 40
1.0
 40
1.0
 40
1.0
 40
1.0
 40
1.0
 40
1.0
 40
1.0
 10
68.10110041507609
 20
105.90000000014058
 30
1341.0
 10
68.08668172892271
 20
106.09158372456183
 30
1341.0
 10
68.07222194582505
 20
106.28316435532307
 30
1341.0
 10
68.05772100354467
 20
106.4747418774611
 30
1341.0
 10
68.04317883976334
 20
106.66631627595545
 30
1341.0
 10
68.02859539208296
 20
106.85788753572831
 30
1341.0
 10
68.01397059802561
 20
107.04945564164457
 30
1341.0
 10
67.9993043950335
 20
107.24102057851184
 30
1341.0
 10
67.83216712146725
 20
109.41791869408526
 30
1341.0
 10
67.67528290850383
 20
111.40291286646513
 30
1341.0
 10
67.51387431109437
 20
113.38754783738995
 30
1341.0
 10
67.34787050248416
 20
115.37180577401493
 30
1341.0
 10
67.17719959964816
 20
117.3556680214811
 30
1341.0
 10
67.00178866329107
 20
119.3391151029149
 30
1341.0
 10
66.82156369784725
 20
121.32212671942838
 30
1341.0
 10
66.58046738688861
 20
123.90424684242441
 30
1341.0
 10
66.52403793678995
 20
124.50377017764666
 30
1341.0
 10
66.46715987873668
 20
125.10325118968768
 30
1341.0
 10
66.40982971199506
 20
125.70268915404452
 30
1341.0
 10
66.3520453510829
 20
126.30208348234608
 30
1341.0
 10
66.29380590070896
 20
126.90143369326393
 30
1341.0
 10
66.23511098636716
 20
127.50073934857261
 30
1341.0
 10
66.17596033313379
 20
128.10000001400985
 30
1341.0
  0
LINE
  5
44
330
17
100
AcDbEntity
  8
0
100
AcDbLine
 10
27.21554300323201
 20
105.9
 30
1341.0
 11
68.10110041320785
 21
105.9
 31
1341.0
  0
SPLINE
  5
45
330
17
100
AcDbEntity
  8
0
100
AcDbSpline
 70
0
 71
1
 72
4
 73
2
 74
0
 40
0.0
 40
0.0
 40
1.0
 40
1.0
 10
27.215543003227893
 20
105.90000060000206
 30
1341.0
 10
27.215543003227893
 20
102.09999939999993
 30
1341.0
  0
LINE
  5
46
330
17
100
AcDbEntity
  8
0
100
AcDbLine
 10
27.21554300323201
 20
102.1
 30
1341.0
 11
68.38003257290636
 21
102.1
 31
1341.0
  0
SPLINE
  5
47
330
17
100
AcDbEntity
  8
0
100
AcDbSpline
 70
0
 71
8
 72
25
 73
16
 74
0
 40
0.0
 40
0.0
 40
0.0
 40
0.0
 40
0.0
 40
0.0
 40
0.0
 40
0.0
 40
0.0
 40
0.2932288816223526
 40
0.2932288816223526
 40
0.2932288816223526
 40
0.2932288816223526
 40
0.2932288816223526
 40
0.2932288816223526
 40
0.2932288816223526
 40
1.0
 40
1.0
 40
1.0
 40
1.0
 40
1.0
 40
1.0
 40
1.0
 40
1.0
 40
1.0
 10
69.74218929463164
 20
79.89999999497873
 30
1341.0
 10
69.70016133844196
 20
80.71416752420518
 30
1341.0
 10
69.6575012500921
 20
81.52830266705632
 30
1341.0
 10
69.61420476771248
 20
82.34240467751847
 30
1341.0
 10
69.57026760658937
 20
83.15647279918599
 30
1341.0
 10
69.52568545881785
 20
83.9705062652521
 30
1341.0
 10
69.48045399295158
 20
84.78450429849956
 30
1341.0
 10
69.43456885364935
 20
85.59846611129123
 30
1341.0
 10
69.27584235961056
 20
88.37419812570317
 30
1341.0
 10
69.15983617918906
 20
90.3357865455345
 30
1341.0
 10
69.03994595877208
 20
92.29714405125904
 30
1341.0
 10
68.91610966341955
 20
94.25825790202671
 30
1341.0
 10
68.7882643845333
 20
96.21911472993303
 30
1341.0
 10
68.65634633985705
 20
98.17970054001896
 30
1341.0
 10
68.52029087347638
 20
100.140000710271
 30
1341.0
 10
68.3800324558188
 20
102.09999999162116
 30
1341.0
  0
LINE
  5
48
330
17
100
AcDbEntity
  8
0
100
AcDbLine
 10
27.21554300323201
 20
79.9
 30
1341.0
 11
69.74218939190402
 21
79.9
 31
1341.0
  0
SPLINE
  5
49
330
17
100
AcDbEntity
  8
0
100
AcDbSpline
 70
0
 71
1
 72
4
 73
2
 74
0
 40
0.0
 40
0.0
 40
1.0
 40
1.0
 10
27.215543003227893
 20
79.90000060000001
 30
1341.0
 10
27.215543003227893
 20
76.09999939999999
 30
1341.0
  0
LINE
  5
4A
330
17
100
AcDbEntity
  8
0
100
AcDbLine
 10
27.21554300323201
 20
76.1
 30
1341.0
 11
69.93235628129617
 21
76.1
 31
1341.0
  0
SPLINE
  5
4B
330
17
100
AcDbEntity
  8
0
100
AcDbSpline
 70
0
 71
8
 72
18
 73
9
 74
0
 40
0.0
 40
0.0
 40
0.0
 40
0.0
 40
0.0
 40
0.0
 40
0.0
 40
0.0
 40
0.0
 40
1.0
 40
1.0
 40
1.0
 40
1.0
 40
1.0
 40
1.0
 40
1.0
 40
1.0
 40
1.0
 10
70.81670878513991
 20
53.899999998593245
 30
1341.0
 10
70.72898998105035
 20
56.67585195175758
 30
1341.0
 10
70.63506103858586
 20
59.45150665309859
 30
1341.0
 10
70.53476938490292
 20
62.22694275119197
 30
1341.0
 10
70.42796007549462
 20
65.0021375133939
 30
1341.0
 10
70.31447565251047
 20
67.77706682224328
 30
1341.0
 10
70.19415599808521
 20
70.55170517168756
 30
1341.0
 10
70.06683818267743
 20
73.32602566313237
 30
1341.0
 10
69.93235630841728
 20
76.10000000131481
 30
1341.0
  0
LINE
  5
4C
330
17
100
AcDbEntity
  8
0
100
AcDbLine
 10
27.21554300323201
 20
53.9
 30
1341.0
 11
70.81670882965663
 21
53.9
 31
1341.0
  0
SPLINE
  5
4D
330
17
100
AcDbEntity
  8
0
100
AcDbSpline
 70
0
 71
1
 72
4
 73
2
 74
0
 40
0.0
 40
0.0
 40
1.0
 40
1.0
 10
27.215543003227893
 20
53.90000060000026
 30
1341.0
 10
27.215543003227893
 20
50.09999939999937
 30
1341.0
  0
LINE
  5
4E
330
17
100
AcDbEntity
  8
0
100
AcDbLine
 10
27.21554300323201
 20
50.1
 30
1341.0
 11
70.93173796655579
 21
50.1
 31
1341.0
  0
SPLINE
  5
4F
330
17
100
AcDbEntity
  8
0
100
AcDbSpline
 70
0
 71
8
 72
18
 73
9
 74
0
 40
0.0
 40
0.0
 40
0.0
 40
0.0
 40
0.0
 40
0.0
 40
0.0
 40
0.0
 40
0.0
 40
1.0
 40
1.0
 40
1.0
 40
1.0
 40
1.0
 40
1.0
 40
1.0
 40
1.0
 40
1.0
 10
71.41329800669011
 20
27.90000000201684
 30
1341.0
 10
71.37222116596622
 20
30.675369191992285
 30
1341.0
 10
71.32596723974859
 20
33.45066289502663
 30
1341.0
 10
71.27439591173544
 20
36.22586781960722
 30
1341.0
 10
71.21736512024114
 20
39.00096931146837
 30
1341.0
 10
71.15473093438993
 20
41.7759513506211
 30
1341.0
 10
71.08634742533582
 20
44.55079654820716
 30
1341.0
 10
71.0120665325085
 20
47.32548614317723
 30
1341.0
 10
70.93173792488582
 20
50.09999999879354
 30
1341.0
  0
LINE
  5
50
330
17
100
AcDbEntity
  8
0
100
AcDbLine
 10
27.21554300323201
 20
27.9
 30
1341.0
 11
71.41329787042064
 21
27.9
 31
1341.0
  0
SPLINE
  5
51
330
17
100
AcDbEntity
  8
0
100
AcDbSpline
 70
0
 71
1
 72
4
 73
2
 74
0
 40
0.0
 40
0.0
 40
1.0
 40
1.0
 10
27.215543003227893
 20
27.900000600000002
 30
1341.0
 10
27.215543003227893
 20
24.099999399999998
 30
1341.0
  0
LINE
  5
52
330
17
100
AcDbEntity
  8
0
100
AcDbLine
 10
27.21554300323201
 20
24.1
 30
1341.0
 11
71.46533234832033
 21
24.1
 31
1341.0
  0
SPLINE
  5
53
330
17
100
AcDbEntity
  8
0
100
AcDbSpline
 70
0
 71
8
 72
18
 73
9
 74
0
 40
0.0
 40
0.0
 40
0.0
 40
0.0
 40
0.0
 40
0.0
 40
0.0
 40
0.0
 40
0.0
 40
1.0
 40
1.0
 40
1.0
 40
1.0
 40
1.0
 40
1.0
 40
1.0
 40
1.0
 40
1.0
 10
71.61173400829158
 20
1.899999999990429
 30
1341.0
 10
71.60914186053644
 20
4.67508438819629
 30
1341.0
 10
71.60232818756066
 20
7.450158738214028
 30
1341.0
 10
71.5911613590497
 20
10.225217702526244
 30
1341.0
 10
71.57550853930114
 20
13.00025458449079
 30
1341.0
 10
71.55523558100444
 20
15.77526133599025
 30
1341.0
 10
71.53020691405351
 20
18.550228554905942
 30
1341.0
 10
71.50028542939185
 20
21.32514548241644
 30
1341.0
 10
71.46533235789025
 20
24.100000000120573
 30
1341.0
  0
LINE
  5
54
330
17
100
AcDbEntity
  8
0
100
AcDbLine
 10
27.21554300323201
 20
1.9
 30
1341.0
 11
71.61173401850702
 21
1.9
 31
1341.0
  0
SPLINE
  5
55
330
17
100
AcDbEntity
  8
0
100
AcDbSpline
 70
0
 71
1
 72
4
 73
2
 74
0
 40
0.0
 40
0.0
 40
0.9999993684216398
 40
0.9999993684216398
 10
27.215543003227893
 20
1.9000006000000558
 30
1341.0
 10
27.215543003227893
 20
-6.553790374438061e-17
 30
1341.0
  0
SPLINE
  5
56
330
17
100
AcDbEntity
  8
0
100
AcDbSpline
 70
0
 71
1
 72
4
 73
2
 74
0
 40
0.0
 40
0.0
 40
1.0
 40
1.0
 10
27.215543003227893
 20
-1.9000006000000011
 30
1341.0
 10
27.215543003227893
 20
1.2000000211287443e-06
 30
1341.0
  0
LINE
  5
57
330
17
100
AcDbEntity
  8
0
100
AcDbLine
 10
27.215543003232035
 20
-1.9
 30
1341.0
 11
71.6118481028792
 21
-1.9
 31
1341.0
  0
SPLINE
  5
58
330
17
100
AcDbEntity
  8
0
100
AcDbSpline
 70
0
 71
8
 72
18
 73
9
 74
0
 40
0.0
 40
0.0
 40
0.0
 40
0.0
 40
0.0
 40
0.0
 40
0.0
 40
0.0
 40
0.0
 40
1.0
 40
1.0
 40
1.0
 40
1.0
 40
1.0
 40
1.0
 40
1.0
 40
1.0
 40
1.0
 10
71.46672143994688
 20
-24.099999998420017
 30
1341.0
 10
71.50152782078243
 20
-21.32516255046182
 30
1341.0
 10
71.53129738048506
 20
-18.550261829987182
 30
1341.0
 10
71.55616971323175
 20
-15.77530835046524
 30
1341.0
 10
71.57628273635686
 20
-13.000310942725992
 30
1341.0
 10
71.5917728105789
 20
-10.225276759376618
 30
1341.0
 10
71.60277485898384
 20
-7.4502112791577915
 30
1341.0
 10
71.60942248630563
 20
-4.6751183113072345
 30
1341.0
 10
71.61184810004514
 20
-1.899999999997504
 30
1341.0
  0
LINE
  5
59
330
17
100
AcDbEntity
  8
0
100
AcDbLine
 10
27.215543003232035
 20
-24.1
 30
1341.0
 11
71.46672156590476
 21
-24.1
 31
1341.0
  0
SPLINE
  5
5A
330
17
100
AcDbEntity
  8
0
100
AcDbSpline
 70
0
 71
1
 72
4
 73
2
 74
0
 40
0.0
 40
0.0
 40
1.0
 40
1.0
 10
27.215543003227893
 20
-27.900000600000034
 30
1341.0
 10
27.215543003227893
 20
-24.099999399999938
 30
1341.0
  0
LINE
  5
5B
330
17
100
AcDbEntity
  8
0
100
AcDbLine
 10
27.215543003232035
 20
-27.9
 30
1341.0
 11
71.41488239471872
 21
-27.9
 31
1341.0
  0
SPLINE
  5
5C
330
17
100
AcDbEntity
  8
0
100
AcDbSpline
 70
0
 71
8
 72
18
 73
9
 74
0
 40
0.0
 40
0.0
 40
0.0
 40
0.0
 40
0.0
 40
0.0
 40
0.0
 40
0.0
 40
0.0
 40
1.0
 40
1.0
 40
1.0
 40
1.0
 40
1.0
 40
1.0
 40
1.0
 40
1.0
 40
1.0
 10
70.93422179012748
 20
-50.10000000005178
 30
1341.0
 10
71.01447154381825
 20
-47.32547384755598
 30
1341.0
 10
71.08866227249449
 20
-44.5507756766165
 30
1341.0
 10
71.15694517479797
 20
-41.775925931511665
 30
1341.0
 10
71.2194691870746
 20
-39.000943350774335
 30
1341.0
 10
71.27638111445664
 20
-36.225844972100475
 30
1341.0
 10
71.32782575708535
 20
-33.45064613704017
 30
1341.0
 10
71.3739460330171
 20
-30.675360495538524
 30
1341.0
 10
71.41488309935625
 20
-27.900000010393498
 30
1341.0
  0
LINE
  5
5D
330
17
100
AcDbEntity
  8
0
100
AcDbLine
 10
27.215543003232035
 20
-50.1
 30
1341.0
 11
70.93422178833696
 21
-50.1
 31
1341.0
  0
SPLINE
  5
5E
330
17
100
AcDbEntity
  8
0
100
AcDbSpline
 70
0
 71
1
 72
4
 73
2
 74
0
 40
0.0
 40
0.0
 40
1.0
 40
1.0
 10
27.215543003227893
 20
-53.9000006
 30
1341.0
 10
27.215543003227893
 20
-50.0999994
 30
1341.0
  0
LINE
  5
5F
330
17
100
AcDbEntity
  8
0
100
AcDbLine
 10
27.215543003232035
 20
-53.9
 30
1341.0
 11
70.8192917918947
 21
-53.9
 31
1341.0
  0
SPLINE
  5
60
330
17
100
AcDbEntity
  8
0
100
AcDbSpline
 70
0
 71
8
 72
18
 73
9
 74
0
 40
0.0
 40
0.0
 40
0.0
 40
0.0
 40
0.0
 40
0.0
 40
0.0
 40
0.0
 40
0.0
 40
1.0
 40
1.0
 40
1.0
 40
1.0
 40
1.0
 40
1.0
 40
1.0
 40
1.0
 40
1.0
 10
69.93507742326646
 20
-76.09999999899107
 30
1341.0
 10
70.06959587544962
 20
-73.32603125223052
 30
1341.0
 10
70.1969333528331
 20
-70.55171106656897
 30
1341.0
 10
70.31725647819687
 20
-67.77707000230308
 30
1341.0
 10
70.43072894116503
 20
-65.00213688490598
 30
1341.0
 10
70.537511653157
 20
-62.2269388109935
 30
1341.0
 10
70.63776289383433
 20
-59.45150115391424
 30
1341.0
 10
70.73163845059236
 20
-56.675847569030964
 30
1341.0
 10
70.81929175264571
 20
-53.899999998760606
 30
1341.0
  0
LINE
  5
61
330
17
100
AcDbEntity
  8
0
100
AcDbLine
 10
27.215543003232035
 20
-76.1
 30
1341.0
 11
69.93507744407192
 21
-76.1
 31
1341.0
  0
SPLINE
  5
62
330
17
100
AcDbEntity
  8
0
100
AcDbSpline
 70
0
 71
1
 72
4
 73
2
 74
0
 40
0.0
 40
0.0
 40
1.0
 40
1.0
 10
27.215543003227893
 20
-79.90000060000018
 30
1341.0
 10
27.215543003227893
 20
-76.09999939999999
 30
1341.0
  0
LINE
  5
63
330
17
100
AcDbEntity
  8
0
100
AcDbLine
 10
27.215543003232035
 20
-79.9
 30
1341.0
 11
69.74484554157614
 21
-79.9
 31
1341.0
  0
SPLINE
  5
64
330
17
100
AcDbEntity
  8
0
100
AcDbSpline
 70
0
 71
8
 72
18
 73
9
 74
0
 40
0.0
 40
0.0
 40
0.0
 40
0.0
 40
0.0
 40
0.0
 40
0.0
 40
0.0
 40
0.0
 40
1.0
 40
1.0
 40
1.0
 40
1.0
 40
1.0
 40
1.0
 40
1.0
 40
1.0
 40
1.0
 10
68.38166454635807
 20
-102.10000004007597
 30
1341.0
 10
68.58031734045153
 20
-99.32684178883444
 30
1341.0
 10
68.77053282012345
 20
-96.55307983640091
 30
1341.0
 10
68.95249769907198
 20
-93.77875513602649
 30
1341.0
 10
69.12639493457593
 20
-91.00390686682127
 30
1341.0
 10
69.29240391980042
 20
-88.2285724413638
 30
1341.0
 10
69.45070066388544
 20
-85.45278751277243
 30
1341.0
 10
69.60145796137813
 20
-82.67658598130687
 30
1341.0
 10
69.74484555257033
 20
-79.90000000056776
 30
1341.0
  0
LINE
  5
65
330
17
100
AcDbEntity
  8
0
100
AcDbLine
 10
27.215543003232035
 20
-102.1
 30
1341.0
 11
68.38166398690441
 21
-102.1
 31
1341.0
  0
SPLINE
  5
66
330
17
100
AcDbEntity
  8
0
100
AcDbSpline
 70
0
 71
1
 72
4
 73
2
 74
0
 40
0.0
 40
0.0
 40
1.0
 40
1.0
 10
27.215543003227893
 20
-105.90000060000003
 30
1341.0
 10
27.215543003227893
 20
-102.09999939999999
 30
1341.0
  0
LINE
  5
67
330
17
100
AcDbEntity
  8
0
100
AcDbLine
 10
27.215543003232035
 20
-105.9
 30
1341.0
 11
68.10243273049106
 21
-105.9
 31
1341.0
  0
SPLINE
  5
68
330
17
100
AcDbEntity
  8
0
100
AcDbSpline
 70
0
 71
8
 72
32
 73
23
 74
0
 40
0.0
 40
0.0
 40
0.0
 40
0.0
 40
0.0
 40
0.0
 40
0.0
 40
0.0
 40
0.0
 40
0.03827141499732841
 40
0.03827141499732841
 40
0.03827141499732841
 40
0.03827141499732841
 40
0.03827141499732841
 40
0.03827141499732841
 40
0.03827141499732841
 40
0.3498063794643392
 40
0.3498063794643392
 40
0.3498063794643392
 40
0.3498063794643392
 40
0.3498063794643392
 40
0.3498063794643392
 40
0.3498063794643392
 40
1.0
 40
1.0
 40
1.0
 40
1.0
 40
1.0
 40
1.0
 40
1.0
 40
1.0
 40
1.0
 10
66.17467478245572
 20
-128.10000000015842
 30
1341.0
 10
66.18516275046605
 20
-127.99391101149983
 30
1341.0
 10
66.19563639764449
 20
-127.88782060589355
 30
1341.0
 10
66.2060957259873
 20
-127.78172878576329
 30
1341.0
 10
66.2165407374207
 20
-127.67563555352181
 30
1341.0
 10
66.22697143380117
 20
-127.56954091157097
 30
1341.0
 10
66.2373878169156
 20
-127.46344486230167
 30
1341.0
 10
66.24778988848159
 20
-127.35734740809397
 30
1341.0
 10
66.34273556267212
 20
-126.38758820381514
 30
1341.0
 10
66.42634294315127
 20
-125.52383477539831
 30
1341.0
 10
66.50900464004506
 20
-124.65998996776554
 30
1341.0
 10
66.59072594207879
 20
-123.79605550124965
 30
1341.0
 10
66.67151257824301
 20
-122.93203311481761
 30
1341.0
 10
66.7513707177936
 20
-122.0679245660704
 30
1341.0
 10
66.83030697025175
 20
-121.20373163124303
 30
1341.0
 10
67.07116412515447
 20
-118.53565718209867
 30
1341.0
 10
67.2300113767433
 20
-116.73150862269826
 30
1341.0
 10
67.38492640194522
 20
-114.92702377961301
 30
1341.0
 10
67.53596466263704
 20
-113.12221568106914
 30
1341.0
 10
67.68318084726266
 20
-111.31709703197377
 30
1341.0
 10
67.82662889616829
 20
-109.51168021492973
 30
1341.0
 10
67.96636202588566
 20
-107.70597729120408
 30
1341.0
 10
68.10243275244088
 20
-105.90000000165381
 30
1341.0
  0
LINE
  5
69
330
17
100
AcDbEntity
  8
0
100
AcDbLine
 10
27.215543003232035
 20
-128.1
 30
1341.0
 11
66.17467478085328
 21
-128.1
 31
1341.0
  0
SPLINE
  5
6A
330
17
100
AcDbEntity
  8
0
100
AcDbSpline
 70
0
 71
1
 72
4
 73
2
 74
0
 40
0.0
 40
0.0
 40
1.0
 40
1.0
 10
27.215543003227893
 20
-131.9000006
 30
1341.0
 10
27.215543003227893
 20
-128.09999939999992
 30
1341.0
  0
LINE
  5
6B
330
17
100
AcDbEntity
  8
0
100
AcDbLine
 10
27.215543003232035
 20
-131.9
 30
1341.0
 11
65.79087266935207
 21
-131.9
 31
1341.0
  0
SPLINE
  5
6C
330
17
100
AcDbEntity
  8
0
100
AcDbSpline
 70
0
 71
8
 72
25
 73
16
 74
0
 40
0.0
 40
0.0
 40
0.0
 40
0.0
 40
0.0
 40
0.0
 40
0.0
 40
0.0
 40
0.0
 40
0.41764863262958307
 40
0.41764863262958307
 40
0.41764863262958307
 40
0.41764863262958307
 40
0.41764863262958307
 40
0.41764863262958307
 40
0.41764863262958307
 40
1.0
 40
1.0
 40
1.0
 40
1.0
 40
1.0
 40
1.0
 40
1.0
 40
1.0
 40
1.0
 10
63.21468385049225
 20
-154.09999999513073
 30
1341.0
 10
63.36442874522872
 20
-152.94287098115433
 30
1341.0
 10
63.512277748264985
 20
-151.785496672603
 30
1341.0
 10
63.65825113531119
 20
-150.62788315603262
 30
1341.0
 10
63.802367545137514
 20
-149.47003603180892
 30
1341.0
 10
63.94464408807127
 20
-148.31196043025557
 30
1341.0
 10
64.08509643938571
 20
-147.15366102570349
 30
1341.0
 10
64.22373892752745
 20
-145.99514204993898
 30
1341.0
 10
64.55139641018256
 20
-143.22071720364067
 30
1341.0
 10
64.73871401170624
 20
-141.60461436979313
 30
1341.0
 10
64.92257237332909
 20
-139.98811163233682
 30
1341.0
 10
65.10300162326142
 20
-138.37122111016853
 30
1341.0
 10
65.28002727253899
 20
-136.75395423580002
 30
1341.0
 10
65.45367041126684
 20
-135.136321777406
 30
1341.0
 10
65.62394790486323
 20
-133.51833386087276
 30
1341.0
 10
65.79087259030345
 20
-131.8999999918464
 30
1341.0
  0
LINE
  5
6D
330
17
100
AcDbEntity
  8
0
100
AcDbLine
 10
27.215543003232035
 20
-154.1
 30
1341.0
 11
63.21468388811933
 21
-154.1
 31
1341.0
  0
SPLINE
  5
6E
330
17
100
AcDbEntity
  8
0
100
AcDbSpline
 70
0
 71
1
 72
4
 73
2
 74
0
 40
0.0
 40
0.0
 40
1.0
 40
1.0
 10
27.215543003227893
 20
-157.90000060000003
 30
1341.0
 10
27.215543003227893
 20
-154.0999994
 30
1341.0
  0
LINE
  5
6F
330
17
100
AcDbEntity
  8
0
100
AcDbLine
 10
27.215543003232035
 20
-157.9
 30
1341.0
 11
62.713737281349296
 21
-157.9
 31
1341.0
  0
SPLINE
  5
70
330
17
100
AcDbEntity
  8
0
100
AcDbSpline
 70
0
 71
8
 72
18
 73
9
 74
0
 40
0.0
 40
0.0
 40
0.0
 40
0.0
 40
0.0
 40
0.0
 40
0.0
 40
0.0
 40
0.0
 40
1.0
 40
1.0
 40
1.0
 40
1.0
 40
1.0
 40
1.0
 40
1.0
 40
1.0
 40
1.0
 10
59.38688005288873
 20
-180.1000000011637
 30
1341.0
 10
59.84887164771338
 20
-177.3321919818118
 30
1341.0
 10
60.29636651128059
 20
-174.5619736660393
 30
1341.0
 10
60.73017731208076
 20
-171.78955580914612
 30
1341.0
 10
61.15096731862299
 20
-169.01511900210963
 30
1341.0
 10
61.55928843160362
 20
-166.23881926358806
 30
1341.0
 10
61.95560545359264
 20
-163.46079159361378
 30
1341.0
 10
62.3403112253373
 20
-160.68115218604393
 30
1341.0
 10
62.71373725778271
 20
-157.89999999683565
 30
1341.0
  0
LINE
  5
71
330
17
100
AcDbEntity
  8
0
100
AcDbLine
 10
27.215543003232035
 20
-180.1
 30
1341.0
 11
59.386880045917096
 21
-180.1
 31
1341.0
  0
SPLINE
  5
72
330
17
100
AcDbEntity
  8
0
100
AcDbSpline
 70
0
 71
1
 72
4
 73
2
 74
0
 40
0.0
 40
0.0
 40
1.0
 40
1.0
 10
27.215543003227893
 20
-183.9000006000001
 30
1341.0
 10
27.215543003227893
 20
-180.09999939999994
 30
1341.0
  0
LINE
  5
73
330
17
100
AcDbEntity
  8
0
100
AcDbLine
 10
27.215543003232035
 20
-183.9
 30
1341.0
 11
58.74004877191032
 21
-183.9
 31
1341.0
  0
SPLINE
  5
74
330
17
100
AcDbEntity
  8
0
100
AcDbSpline
 70
0
 71
8
 72
18
 73
9
 74
0
 40
0.0
 40
0.0
 40
0.0
 40
0.0
 40
0.0
 40
0.0
 40
0.0
 40
0.0
 40
0.0
 40
1.0
 40
1.0
 40
1.0
 40
1.0
 40
1.0
 40
1.0
 40
1.0
 40
1.0
 40
1.0
 10
54.3596271966995
 20
-206.0999999958415
 30
1341.0
 10
54.9826737438355
 20
-203.34070471153535
 30
1341.0
 10
55.579713620103114
 20
-200.57551020384685
 30
1341.0
 10
56.15369569922121
 20
-197.8053592924796
 30
1341.0
 10
56.70676843921311
 20
-195.030960059799
 30
1341.0
 10
57.24065601609817
 20
-192.2528647619306
 30
1341.0
 10
57.756750584977055
 20
-189.4714889972563
 30
1341.0
 10
58.25621931692528
 20
-186.68713485935024
 30
1341.0
 10
58.74004867702512
 20
-183.89999998352855
 30
1341.0
  0
LINE
  5
75
330
17
100
AcDbEntity
  8
0
100
AcDbLine
 10
27.215543003232035
 20
-206.1
 30
1341.0
 11
54.35962721511623
 21
-206.1
 31
1341.0
  0
SPLINE
  5
76
330
17
100
AcDbEntity
  8
0
100
AcDbSpline
 70
0
 71
1
 72
4
 73
2
 74
0
 40
0.0
 40
0.0
 40
1.0
 40
1.0
 10
27.215543003227893
 20
-209.90000060000008
 30
1341.0
 10
27.215543003227893
 20
-206.09999939999992
 30
1341.0
  0
LINE
  5
77
330
17
100
AcDbEntity
  8
0
100
AcDbLine
 10
27.215543003232035
 20
-209.9
 30
1341.0
 11
53.47788058929679
 21
-209.9
 31
1341.0
  0
SPLINE
  5
78
330
17
100
AcDbEntity
  8
0
100
AcDbSpline
 70
0
 71
8
 72
39
 73
30
 74
0
 40
0.0
 40
0.0
 40
0.0
 40
0.0
 40
0.0
 40
0.0
 40
0.0
 40
0.0
 40
0.0
 40
0.010332852597342113
 40
0.010332852597342113
 40
0.010332852597342113
 40
0.010332852597342113
 40
0.010332852597342113
 40
0.010332852597342113
 40
0.010332852597342113
 40
0.19950258062428272
 40
0.19950258062428272
 40
0.19950258062428272
 40
0.19950258062428272
 40
0.19950258062428272
 40
0.19950258062428272
 40
0.19950258062428272
 40
0.9318603269699953
 40
0.9318603269699953
 40
0.9318603269699953
 40
0.9318603269699953
 40
0.9318603269699953
 40
0.9318603269699953
 40
0.9318603269699953
 40
1.0
 40
1.0
 40
1.0
 40
1.0
 40
1.0
 40
1.0
 40
1.0
 40
1.0
 40
1.0
 10
46.86588323412198
 20
-232.09999999878605
 30
1341.0
 10
46.875884554587365
 20
-232.07440347928565
 30
1341.0
 10
46.88587727401771
 20
-232.0488035031526
 30
1341.0
 10
46.895861410948
 20
-232.02320007883895
 30
1341.0
 10
46.90583698386197
 20
-231.99759321469844
 30
1341.0
 10
46.915804011192606
 20
-231.97198291898692
 30
1341.0
 10
46.925762511322645
 20
-231.9463691998627
 30
1341.0
 10
46.93571250258502
 20
-231.92075206538644
 30
1341.0
 10
47.12765901705651
 20
-231.4260809016553
 30
1341.0
 10
47.3093296761778
 20
-230.94942605691367
 30
1341.0
 10
47.49065835970331
 20
-230.46510025743675
 30
1341.0
 10
47.67163896016903
 20
-229.97304078272518
 30
1341.0
 10
47.85226688357093
 20
-229.47318892364075
 30
1341.0
 10
48.032539049364956
 20
-228.96548998240607
 30
1341.0
 10
48.212453890467025
 20
-228.44989327260458
 30
1341.0
 10
49.08715586795475
 20
-225.89949812282654
 30
1341.0
 10
49.74113873253056
 20
-223.85872377738787
 30
1341.0
 10
50.36206108627848
 20
-221.8074260046224
 30
1341.0
 10
50.954648739774726
 20
-219.7477602067973
 30
1341.0
 10
51.52259320180142
 20
-217.68133690598583
 30
1341.0
 10
52.06861971607302
 20
-215.60923737522214
 30
1341.0
 10
52.59499514064002
 20
-213.532170790758
 30
1341.0
 10
53.150896741209024
 20
-211.25680190230807
 30
1341.0
 10
53.198061334901354
 20
-211.06308142237998
 30
1341.0
 10
53.24507271924416
 20
-210.86932410004096
 30
1341.0
 10
53.29193232921376
 20
-210.67553037661543
 30
1341.0
 10
53.33864156919737
 20
-210.4817006853588
 30
1341.0
 10
53.38520181405315
 20
-210.2878354516802
 30
1341.0
 10
53.43161441011817
 20
-210.09393509335465
 30
1341.0
 10
53.477880676167764
 20
-209.90000002072443
 30
1341.0
  0
LINE
  5
79
330
17
100
AcDbEntity
  8
0
100
AcDbLine
 10
27.215543003232035
 20
-232.1
 30
1341.0
 11
46.86588323722873
 21
-232.1
 31
1341.0
  0
SPLINE
  5
7A
330
17
100
AcDbEntity
  8
0
100
AcDbSpline
 70
0
 71
1
 72
4
 73
2
 74
0
 40
0.0
 40
0.0
 40
1.0
 40
1.0
 10
27.215543003227893
 20
-235.90000060000008
 30
1341.0
 10
27.215543003227893
 20
-232.09999939999992
 30
1341.0
  0
LINE
  5
7B
330
17
100
AcDbEntity
  8
0
100
AcDbLine
 10
27.215543003232035
 20
-235.9
 30
1341.0
 11
45.27432382225409
 21
-235.9
 31
1341.0
  0
SPLINE
  5
7C
330
17
100
AcDbEntity
  8
0
100
AcDbSpline
 70
0
 71
8
 72
81
 73
72
 74
0
 40
0.0
 40
0.0
 40
0.0
 40
0.0
 40
0.0
 40
0.0
 40
0.0
 40
0.0
 40
0.0
 40
0.02448778681278887
 40
0.02448778681278887
 40
0.02448778681278887
 40
0.02448778681278887
 40
0.02448778681278887
 40
0.02448778681278887
 40
0.02448778681278887
 40
0.03689891094959761
 40
0.03689891094959761
 40
0.03689891094959761
 40
0.03689891094959761
 40
0.03689891094959761
 40
0.03689891094959761
 40
0.03689891094959761
 40
0.04587039849727846
 40
0.04587039849727846
 40
0.04587039849727846
 40
0.04587039849727846
 40
0.04587039849727846
 40
0.04587039849727846
 40
0.04587039849727846
 40
0.050198518758098366
 40
0.050198518758098366
 40
0.050198518758098366
 40
0.050198518758098366
 40
0.050198518758098366
 40
0.050198518758098366
 40
0.050198518758098366
 40
0.05452666911473807
 40
0.05452666911473807
 40
0.05452666911473807
 40
0.05452666911473807
 40
0.05452666911473807
 40
0.05452666911473807
 40
0.05452666911473807
 40
0.06626313003422193
 40
0.06626313003422193
 40
0.06626313003422193
 40
0.06626313003422193
 40
0.06626313003422193
 40
0.06626313003422193
 40
0.06626313003422193
 40
0.076067960609703
 40
0.076067960609703
 40
0.076067960609703
 40
0.076067960609703
 40
0.076067960609703
 40
0.076067960609703
 40
0.076067960609703
 40
0.08318771996313276
 40
0.08318771996313276
 40
0.08318771996313276
 40
0.08318771996313276
 40
0.08318771996313276
 40
0.08318771996313276
 40
0.08318771996313276
 40
0.09637321434792405
 40
0.09637321434792405
 40
0.09637321434792405
 40
0.09637321434792405
 40
0.09637321434792405
 40
0.09637321434792405
 40
0.09637321434792405
 40
0.10602599119168175
 40
0.10602599119168175
 40
0.10602599119168175
 40
0.10602599119168175
 40
0.10602599119168175
 40
0.10602599119168175
 40
0.10602599119168175
 40
0.10602599119168175
 40
0.10602599119168175
 10
6.691635080646151
 20
-227.67871969201562
 30
1341.0
 10
6.902352605070563
 20
-229.45648320330884
 30
1341.0
 10
7.193757875036933
 20
-231.22420730812894
 30
1341.0
 10
7.572749301936858
 20
-232.97765574230135
 30
1341.0
 10
8.046789022829849
 20
-234.71004090728275
 30
1341.0
 10
8.623406335509912
 20
-236.4121882415064
 30
1341.0
 10
9.30959070109419
 20
-238.07273166250727
 30
1341.0
 10
10.111045716541213
 20
-239.67835390974585
 30
1341.0
 10
11.497674716476247
 20
-241.99243921195767
 30
1341.0
 10
11.994455239385713
 20
-242.75262450428838
 30
1341.0
 10
12.52192906462796
 20
-243.4925177915527
 30
1341.0
 10
13.080202225774505
 20
-244.20988920442835
 30
1341.0
 10
13.669137867406333
 20
-244.90243246937894
 30
1341.0
 10
14.288316387426761
 20
-245.5677974892263
 30
1341.0
 10
14.936992607856057
 20
-246.20362574267665
 30
1341.0
 10
16.103466699251676
 20
-247.24416816488122
 30
1341.0
 10
16.607729381877572
 20
-247.6641117373609
 30
1341.0
 10
17.126414945857395
 20
-248.06653556320214
 30
1341.0
 10
17.65902350426331
 20
-248.45058738912093
 30
1341.0
 10
18.204976896178287
 20
-248.8154485370153
 30
1341.0
 10
18.76361722350679
 20
-249.160336075395
 30
1341.0
 10
19.334205387785453
 20
-249.48450499081108
 30
1341.0
 10
20.196556385540557
 20
-249.9333039937799
 30
1341.0
 10
20.478500778803735
 20
-250.0737044331337
 30
1341.0
 10
20.761659361705764
 20
-250.2084732082582
 30
1341.0
 10
21.045938689169645
 20
-250.33763185006498
 30
1341.0
 10
21.331245316118903
 20
-250.46120188946605
 30
1341.0
 10
21.617485797477546
 20
-250.5792048573735
 30
1341.0
 10
21.904566688170096
 20
-250.69166228469967
 30
1341.0
 10
22.480224399499697
 20
-250.90552986358165
 30
1341.0
 10
22.768798888730736
 20
-251.00693086967183
 30
1341.0
 10
23.05801932816908
 20
-251.10287741887458
 30
1341.0
 10
23.347825298177582
 20
-251.193207726344
 30
1341.0
 10
23.63805164338963
 20
-251.278311740815
 30
1341.0
 10
23.92870839239228
 20
-251.35771162912704
 30
1341.0
 10
24.219602727008443
 20
-251.4319054472005
 30
1341.0
 10
25.30006328599978
 20
-251.68683663306098
 30
1341.0
 10
26.099452007511072
 20
-251.834584422058
 30
1341.0
 10
26.907114745212088
 20
-251.93801571470686
 30
1341.0
 10
27.72037332003076
 20
-251.99117067008106
 30
1341.0
 10
28.53561934706343
 20
-251.9884598352036
 30
1341.0
 10
29.348310475257534
 20
-251.9255408467004
 30
1341.0
 10
30.15295685209531
 20
-251.80042280543378
 30
1341.0
 10
31.60317350802292
 20
-251.4594753215742
 30
1341.0
 10
32.253504666335935
 20
-251.26187615914867
 30
1341.0
 10
32.89038820831053
 20
-251.02265935979247
 30
1341.0
 10
33.5112036311512
 20
-250.7439432320376
 30
1341.0
 10
34.11419228410805
 20
-250.4287365235604
 30
1341.0
 10
34.69826799854436
 20
-250.08052965225144
 30
1341.0
 10
35.26286380422826
 20
-249.70295840562937
 30
1341.0
 10
36.20355767879304
 20
-249.00668102565098
 30
1341.0
 10
36.58909537756358
 20
-248.70005092058486
 30
1341.0
 10
36.9645454490584
 20
-248.38091514479635
 30
1341.0
 10
37.3301051362655
 20
-248.0504341340938
 30
1341.0
 10
37.68604169264902
 20
-247.709682285318
 30
1341.0
 10
38.03267336239388
 20
-247.35962675442326
 30
1341.0
 10
38.37035708773863
 20
-247.00111388783176
 30
1341.0
 10
39.3090101628204
 20
-245.95658260365786
 30
1341.0
 10
39.888923126927935
 20
-245.25205534405694
 30
1341.0
 10
40.44189883687367
 20
-244.52571138070573
 30
1341.0
 10
40.97024216656269
 20
-243.78119480856395
 30
1341.0
 10
41.47601845498994
 20
-243.0214595690102
 30
1341.0
 10
41.961124048167086
 20
-242.24881980205183
 30
1341.0
 10
42.42732435274016
 20
-241.4649769575561
 30
1341.0
 10
43.20496493648129
 20
-240.0898281042735
 30
1341.0
 10
43.52430176744493
 20
-239.50338423425416
 30
1341.0
 10
43.83492078996363
 20
-238.91223308624467
 30
1341.0
 10
44.13736383014436
 20
-238.3168299313037
 30
1341.0
 10
44.432111772233576
 20
-237.71757521067087
 30
1341.0
 10
44.71959744031939
 20
-237.11482068171017
 30
1341.0
 10
45.00021446518146
 20
-236.50887363318134
 30
1341.0
 10
45.27432380543827
 20
-235.89999999242968
 30
1341.0
  0
SPLINE
  5
7D
330
17
100
AcDbEntity
  8
0
100
AcDbSpline
 70
0
 71
8
 72
417
 73
408
 74
0
 40
0.0
 40
0.0
 40
0.0
 40
0.0
 40
0.0
 40
0.0
 40
0.0
 40
0.0
 40
0.0
 40
0.0029557888107035056
 40
0.0029557888107035056
 40
0.0029557888107035056
 40
0.0029557888107035056
 40
0.0029557888107035056
 40
0.0029557888107035056
 40
0.0029557888107035056
 40
0.006042667699381884
 40
0.006042667699381884
 40
0.006042667699381884
 40
0.006042667699381884
 40
0.006042667699381884
 40
0.006042667699381884
 40
0.006042667699381884
 40
0.009438234476808156
 40
0.009438234476808156
 40
0.009438234476808156
 40
0.009438234476808156
 40
0.009438234476808156
 40
0.009438234476808156
 40
0.009438234476808156
 40
0.011599049698721168
 40
0.011599049698721168
 40
0.011599049698721168
 40
0.011599049698721168
 40
0.011599049698721168
 40
0.011599049698721168
 40
0.011599049698721168
 40
0.014685928587084443
 40
0.014685928587084443
 40
0.014685928587084443
 40
0.014685928587084443
 40
0.014685928587084443
 40
0.014685928587084443
 40
0.014685928587084443
 40
0.018081495364252364
 40
0.018081495364252364
 40
0.018081495364252364
 40
0.018081495364252364
 40
0.018081495364252364
 40
0.018081495364252364
 40
0.018081495364252364
 40
0.024082159012536325
 40
0.024082159012536325
 40
0.024082159012536325
 40
0.024082159012536325
 40
0.024082159012536325
 40
0.024082159012536325
 40
0.024082159012536325
 40
0.03402934933726461
 40
0.03402934933726461
 40
0.03402934933726461
 40
0.03402934933726461
 40
0.03402934933726461
 40
0.03402934933726461
 40
0.03402934933726461
 40
0.055195035728713746
 40
0.055195035728713746
 40
0.055195035728713746
 40
0.055195035728713746
 40
0.055195035728713746
 40
0.055195035728713746
 40
0.055195035728713746
 40
0.06944616804201063
 40
0.06944616804201063
 40
0.06944616804201063
 40
0.06944616804201063
 40
0.06944616804201063
 40
0.06944616804201063
 40
0.06944616804201063
 40
0.07693406032187151
 40
0.07693406032187151
 40
0.07693406032187151
 40
0.07693406032187151
 40
0.07693406032187151
 40
0.07693406032187151
 40
0.07693406032187151
 40
0.08609872996208501
 40
0.08609872996208501
 40
0.08609872996208501
 40
0.08609872996208501
 40
0.08609872996208501
 40
0.08609872996208501
 40
0.08609872996208501
 40
0.1290622168893355
 40
0.1290622168893355
 40
0.1290622168893355
 40
0.1290622168893355
 40
0.1290622168893355
 40
0.1290622168893355
 40
0.1290622168893355
 40
0.20986876512690872
 40
0.20986876512690872
 40
0.20986876512690872
 40
0.20986876512690872
 40
0.20986876512690872
 40
0.20986876512690872
 40
0.20986876512690872
 40
0.27491789049512744
 40
0.27491789049512744
 40
0.27491789049512744
 40
0.27491789049512744
 40
0.27491789049512744
 40
0.27491789049512744
 40
0.27491789049512744
 40
0.3190634876673018
 40
0.3190634876673018
 40
0.3190634876673018
 40
0.3190634876673018
 40
0.3190634876673018
 40
0.3190634876673018
 40
0.3190634876673018
 40
0.41299794365458115
 40
0.41299794365458115
 40
0.41299794365458115
 40
0.41299794365458115
 40
0.41299794365458115
 40
0.41299794365458115
 40
0.41299794365458115
 40
0.49849519113223695
 40
0.49849519113223695
 40
0.49849519113223695
 40
0.49849519113223695
 40
0.49849519113223695
 40
0.49849519113223695
 40
0.49849519113223695
 40
0.5468437673391565
 40
0.5468437673391565
 40
0.5468437673391565
 40
0.5468437673391565
 40
0.5468437673391565
 40
0.5468437673391565
 40
0.5468437673391565
 40
0.5634181383026271
 40
0.5634181383026271
 40
0.5634181383026271
 40
0.5634181383026271
 40
0.5634181383026271
 40
0.5634181383026271
 40
0.5634181383026271
 40
0.5799925262876915
 40
0.5799925262876915
 40
0.5799925262876915
 40
0.5799925262876915
 40
0.5799925262876915
 40
0.5799925262876915
 40
0.5799925262876915
 40
0.6057406231304415
 40
0.6057406231304415
 40
0.6057406231304415
 40
0.6057406231304415
 40
0.6057406231304415
 40
0.6057406231304415
 40
0.6057406231304415
 40
0.6185840464562845
 40
0.6185840464562845
 40
0.6185840464562845
 40
0.6185840464562845
 40
0.6185840464562845
 40
0.6185840464562845
 40
0.6185840464562845
 40
0.6246548072680286
 40
0.6246548072680286
 40
0.6246548072680286
 40
0.6246548072680286
 40
0.6246548072680286
 40
0.6246548072680286
 40
0.6246548072680286
 40
0.6288026571721487
 40
0.6288026571721487
 40
0.6288026571721487
 40
0.6288026571721487
 40
0.6288026571721487
 40
0.6288026571721487
 40
0.6288026571721487
 40
0.6303533319963093
 40
0.6303533319963093
 40
0.6303533319963093
 40
0.6303533319963093
 40
0.6303533319963093
 40
0.6303533319963093
 40
0.6303533319963093
 40
0.6327901067199931
 40
0.6327901067199931
 40
0.6327901067199931
 40
0.6327901067199931
 40
0.6327901067199931
 40
0.6327901067199931
 40
0.6327901067199931
 40
0.6352268814436773
 40
0.6352268814436773
 40
0.6352268814436773
 40
0.6352268814436773
 40
0.6352268814436773
 40
0.6352268814436773
 40
0.6352268814436773
 40
0.6375134267442162
 40
0.6375134267442162
 40
0.6375134267442162
 40
0.6375134267442162
 40
0.6375134267442162
 40
0.6375134267442162
 40
0.6375134267442162
 40
0.639803871228945
 40
0.639803871228945
 40
0.639803871228945
 40
0.639803871228945
 40
0.639803871228945
 40
0.639803871228945
 40
0.639803871228945
 40
0.6419043231403498
 40
0.6419043231403498
 40
0.6419043231403498
 40
0.6419043231403498
 40
0.6419043231403498
 40
0.6419043231403498
 40
0.6419043231403498
 40
0.6440047750517656
 40
0.6440047750517656
 40
0.6440047750517656
 40
0.6440047750517656
 40
0.6440047750517656
 40
0.6440047750517656
 40
0.6440047750517656
 40
0.645755151644618
 40
0.645755151644618
 40
0.645755151644618
 40
0.645755151644618
 40
0.645755151644618
 40
0.645755151644618
 40
0.645755151644618
 40
0.6475055282374768
 40
0.6475055282374768
 40
0.6475055282374768
 40
0.6475055282374768
 40
0.6475055282374768
 40
0.6475055282374768
 40
0.6475055282374768
 40
0.6509081319959634
 40
0.6509081319959634
 40
0.6509081319959634
 40
0.6509081319959634
 40
0.6509081319959634
 40
0.6509081319959634
 40
0.6509081319959634
 40
0.656548568213311
 40
0.656548568213311
 40
0.656548568213311
 40
0.656548568213311
 40
0.656548568213311
 40
0.656548568213311
 40
0.656548568213311
 40
0.6685503214008293
 40
0.6685503214008293
 40
0.6685503214008293
 40
0.6685503214008293
 40
0.6685503214008293
 40
0.6685503214008293
 40
0.6685503214008293
 40
0.6766312584700186
 40
0.6766312584700186
 40
0.6766312584700186
 40
0.6766312584700186
 40
0.6766312584700186
 40
0.6766312584700186
 40
0.6766312584700186
 40
0.6808771797901836
 40
0.6808771797901836
 40
0.6808771797901836
 40
0.6808771797901836
 40
0.6808771797901836
 40
0.6808771797901836
 40
0.6808771797901836
 40
0.6860738979598237
 40
0.6860738979598237
 40
0.6860738979598237
 40
0.6860738979598237
 40
0.6860738979598237
 40
0.6860738979598237
 40
0.6860738979598237
 40
0.7104356890603739
 40
0.7104356890603739
 40
0.7104356890603739
 40
0.7104356890603739
 40
0.7104356890603739
 40
0.7104356890603739
 40
0.7104356890603739
 40
0.756254598522236
 40
0.756254598522236
 40
0.756254598522236
 40
0.756254598522236
 40
0.756254598522236
 40
0.756254598522236
 40
0.756254598522236
 40
0.7931372168516279
 40
0.7931372168516279
 40
0.7931372168516279
 40
0.7931372168516279
 40
0.7931372168516279
 40
0.7931372168516279
 40
0.7931372168516279
 40
0.8181666188238175
 40
0.8181666188238175
 40
0.8181666188238175
 40
0.8181666188238175
 40
0.8181666188238175
 40
0.8181666188238175
 40
0.8181666188238175
 40
0.8714220182139536
 40
0.8714220182139536
 40
0.8714220182139536
 40
0.8714220182139536
 40
0.8714220182139536
 40
0.8714220182139536
 40
0.8714220182139536
 40
0.9198912978641621
 40
0.9198912978641621
 40
0.9198912978641621
 40
0.9198912978641621
 40
0.9198912978641621
 40
0.9198912978641621
 40
0.9198912978641621
 40
0.9472997763877952
 40
0.9472997763877952
 40
0.9472997763877952
 40
0.9472997763877952
 40
0.9472997763877952
 40
0.9472997763877952
 40
0.9472997763877952
 40
0.9566956003389733
 40
0.9566956003389733
 40
0.9566956003389733
 40
0.9566956003389733
 40
0.9566956003389733
 40
0.9566956003389733
 40
0.9566956003389733
 40
0.9660914339382165
 40
0.9660914339382165
 40
0.9660914339382165
 40
0.9660914339382165
 40
0.9660914339382165
 40
0.9660914339382165
 40
0.9660914339382165
 40
0.9806877401139328
 40
0.9806877401139328
 40
0.9806877401139328
 40
0.9806877401139328
 40
0.9806877401139328
 40
0.9806877401139328
 40
0.9806877401139328
 40
0.9879685331978845
 40
0.9879685331978845
 40
0.9879685331978845
 40
0.9879685331978845
 40
0.9879685331978845
 40
0.9879685331978845
 40
0.9879685331978845
 40
0.9914099806992652
 40
0.9914099806992652
 40
0.9914099806992652
 40
0.9914099806992652
 40
0.9914099806992652
 40
0.9914099806992652
 40
0.9914099806992652
 40
0.9937613531296138
 40
0.9937613531296138
 40
0.9937613531296138
 40
0.9937613531296138
 40
0.9937613531296138
 40
0.9937613531296138
 40
0.9937613531296138
 40
0.9946404152519878
 40
0.9946404152519878
 40
0.9946404152519878
 40
0.9946404152519878
 40
0.9946404152519878
 40
0.9946404152519878
 40
0.9946404152519878
 40
0.9960217985871463
 40
0.9960217985871463
 40
0.9960217985871463
 40
0.9960217985871463
 40
0.9960217985871463
 40
0.9960217985871463
 40
0.9960217985871463
 40
0.9974031819223025
 40
0.9974031819223025
 40
0.9974031819223025
 40
0.9974031819223025
 40
0.9974031819223025
 40
0.9974031819223025
 40
0.9974031819223025
 40
0.9984078243478669
 40
0.9984078243478669
 40
0.9984078243478669
 40
0.9984078243478669
 40
0.9984078243478669
 40
0.9984078243478669
 40
0.9984078243478669
 40
1.0
 40
1.0
 40
1.0
 40
1.0
 40
1.0
 40
1.0
 40
1.0
 40
1.0
 40
1.0
 10
6.69163508064615
 20
227.67871969201562
 30
1341.0
 10
6.6914933736703635
 20
227.678861529817
 30
1341.0
 10
6.691522591592991
 20
227.6786631095747
 30
1341.0
 10
6.6916127835964945
 20
227.6784347276588
 30
1341.0
 10
6.691689559387392
 20
227.6783297052329
 30
1341.0
 10
6.691714089196234
 20
227.67834438825437
 30
1341.0
 10
6.691683103777609
 20
227.6783181474742
 30
1341.0
 10
6.691628894410143
 20
227.67793337843668
 30
1341.0
 10
6.691609306439994
 20
227.67544361133218
 30
1341.0
 10
6.69159446169682
 20
227.67355674133293
 30
1341.0
 10
6.691573414022024
 20
227.6708814356265
 30
1341.0
 10
6.6915447987706544
 20
227.66724423835723
 30
1341.0
 10
6.691507251297753
 20
227.6624716936696
 30
1341.0
 10
6.691459406958361
 20
227.656390345708
 30
1341.0
 10
6.691399901107523
 20
227.6488267386169
 30
1341.0
 10
6.691247583892321
 20
227.629466162257
 30
1341.0
 10
6.691152037035107
 20
227.61732149284086
 30
1341.0
 10
6.691038912186211
 20
227.60294253854877
 30
1341.0
 10
6.690906393003197
 20
227.5860984296375
 30
1341.0
 10
6.690752663143625
 20
227.56655829636327
 30
1341.0
 10
6.690575906265059
 20
227.5440912689821
 30
1341.0
 10
6.690374306025062
 20
227.5184664777498
 30
1341.0
 10
6.690000789753273
 20
227.47098996439573
 30
1341.0
 10
6.689844737346931
 20
227.45115461928933
 30
1341.0
 10
6.6896774207889385
 20
227.42988752224474
 30
1341.0
 10
6.689498372006083
 20
227.4071291779038
 30
1341.0
 10
6.6893071229251415
 20
227.38282009090813
 30
1341.0
 10
6.689103205472897
 20
227.35690076589904
 30
1341.0
 10
6.688886151576124
 20
227.3293117075178
 30
1341.0
 10
6.6883259811408555
 20
227.25811015310313
 30
1341.0
 10
6.687968704798178
 20
227.21269784757467
 30
1341.0
 10
6.687582299488612
 20
227.1635830479651
 30
1341.0
 10
6.687165400567202
 20
227.11059229841908
 30
1341.0
 10
6.6867166433889915
 20
227.05355214308128
 30
1341.0
 10
6.686234663309026
 20
226.99228912609593
 30
1341.0
 10
6.685718095682346
 20
226.9266297916071
 30
1341.0
 10
6.6845578040638065
 20
226.77914866512594
 30
1341.0
 10
6.683906530111695
 20
226.69636722072872
 30
1341.0
 10
6.683209937665227
 20
226.6078254808232
 30
1341.0
 10
6.682466210381964
 20
226.51329257566604
 30
1341.0
 10
6.681673531919472
 20
226.41253763551327
 30
1341.0
 10
6.68083008593531
 20
226.30532979062127
 30
1341.0
 10
6.679934056087041
 20
226.191438171246
 30
1341.0
 10
6.677304020989998
 20
225.85714243679553
 30
1341.0
 10
6.6756230608839005
 20
225.6434807279156
 30
1341.0
 10
6.673941212818624
 20
225.42970615325237
 30
1341.0
 10
6.672258731820511
 20
225.21585112843132
 30
1341.0
 10
6.670575789492481
 20
225.0019374653718
 30
1341.0
 10
6.668892496391797
 20
224.78797921666717
 30
1341.0
 10
6.667208891582791
 20
224.5739813476728
 30
1341.0
 10
6.662733571491771
 20
224.00513706935521
 30
1341.0
 10
6.659941470663591
 20
223.6502416544271
 30
1341.0
 10
6.657148871923431
 20
223.29528295146145
 30
1341.0
 10
6.654355899597855
 20
222.9402767631528
 30
1341.0
 10
6.651562640191548
 20
222.5852340848889
 30
1341.0
 10
6.648769152177526
 20
222.2301623490372
 30
1341.0
 10
6.645975465454072
 20
221.87506535580042
 30
1341.0
 10
6.637236765747992
 20
220.76431590623272
 30
1341.0
 10
6.631291194702641
 20
220.00859251624414
 30
1341.0
 10
6.625345118987138
 20
219.2528049791647
 30
1341.0
 10
6.619398677100918
 20
218.49697089925374
 30
1341.0
 10
6.613451963028549
 20
217.74110222259074
 30
1341.0
 10
6.60750503824738
 20
216.9852067633641
 30
1341.0
 10
6.601557928359243
 20
216.22928777576684
 30
1341.0
 10
6.591606247070677
 20
214.96435993920835
 30
1341.0
 10
6.587474627294069
 20
214.4392023588994
 30
1341.0
 10
6.583213418847458
 20
213.8975731582445
 30
1341.0
 10
6.5788202636243645
 20
213.33917260552585
 30
1341.0
 10
6.574292803518301
 20
212.76370096902497
 30
1341.0
 10
6.569628680422786
 20
212.17085851702333
 30
1341.0
 10
6.564825536231332
 20
211.56034551780206
 30
1341.0
 10
6.557283039726626
 20
210.601641806409
 30
1341.0
 10
6.5546850696113905
 20
210.27141956845483
 30
1341.0
 10
6.552087078152456
 20
209.94119563092633
 30
1341.0
 10
6.549489054640699
 20
209.61097009207438
 30
1341.0
 10
6.546891001997154
 20
209.28074304325395
 30
1341.0
 10
6.544292936773014
 20
208.95051456892426
 30
1341.0
 10
6.541694889149634
 20
208.62028474664882
 30
1341.0
 10
6.53591714494192
 20
207.88587329577328
 30
1341.0
 10
6.5326877916003845
 20
207.47536479448365
 30
1341.0
 10
6.529409555622358
 20
207.05858762922475
 30
1341.0
 10
6.526083149716282
 20
206.6356012859948
 30
1341.0
 10
6.522709286590596
 20
206.20646525079178
 30
1341.0
 10
6.519288678953739
 20
205.7712390096135
 30
1341.0
 10
6.515822039514141
 20
205.32998204845762
 30
1341.0
 10
6.495846204977731
 20
202.78617171020483
 30
1341.0
 10
6.479416638636008
 20
200.68955774167034
 30
1341.0
 10
6.46303901401801
 20
198.5929212863329
 30
1341.0
 10
6.446722274940932
 20
196.4962675983592
 30
1341.0
 10
6.430472997790019
 20
194.39960031506382
 30
1341.0
 10
6.4142966798738845
 20
192.30292197161967
 30
1341.0
 10
6.398197343092385
 20
190.20623386916293
 30
1341.0
 10
6.352050819649981
 20
184.1660282672516
 30
1341.0
 10
6.322208628166424
 20
180.22249045624932
 30
1341.0
 10
6.292676788894672
 20
176.27893097869875
 30
1341.0
 10
6.263473410452805
 20
172.33535437803943
 30
1341.0
 10
6.2346157683170205
 20
168.39176383952088
 30
1341.0
 10
6.206121643828199
 20
164.4481616386923
 30
1341.0
 10
6.178009263852516
 20
160.50454908529244
 30
1341.0
 10
6.12799178882455
 20
153.38631819490712
 30
1341.0
 10
6.105945242383261
 20
150.2117035724821
 30
1341.0
 10
6.084169539879626
 20
147.0370836707478
 30
1341.0
 10
6.0626757762733865
 20
143.8624590056145
 30
1341.0
 10
6.041475914065351
 20
140.68783000481298
 30
1341.0
 10
6.020583011441463
 20
137.51319702487652
 30
1341.0
 10
6.000011450416874
 20
134.3385603681225
 30
1341.0
 10
5.966045164604826
 20
129.00945041496126
 30
1341.0
 10
5.952468562738065
 20
126.85497896619073
 30
1341.0
 10
5.939052237800637
 20
124.70050603658308
 30
1341.0
 10
5.925801514298484
 20
122.54603170584845
 30
1341.0
 10
5.912722162822573
 20
120.39155605014655
 30
1341.0
 10
5.899820400048901
 20
118.23707914208674
 30
1341.0
 10
5.88710288873849
 20
116.0826010507278
 30
1341.0
 10
5.847923180978083
 20
109.34375000358781
 30
1341.0
 10
5.822138152635174
 20
104.75937315594389
 30
1341.0
 10
5.797151807763424
 20
100.17499269184069
 30
1341.0
 10
5.7729059433510095
 20
95.5906099607758
 30
1341.0
 10
5.749351092201662
 20
91.00622630611139
 30
1341.0
 10
5.726444272702387
 20
86.42184312976148
 30
1341.0
 10
5.7041473944768075
 20
81.83746198400472
 30
1341.0
 10
5.662656235911793
 20
73.08047693024812
 30
1341.0
 10
5.643363165283085
 20
68.90787277927018
 30
1341.0
 10
5.6245212594678415
 20
64.7352732878396
 30
1341.0
 10
5.606107468763364
 20
60.56267996113793
 30
1341.0
 10
5.588100175706727
 20
56.39009506899137
 30
1341.0
 10
5.570478971832138
 20
52.2175216360241
 30
1341.0
 10
5.553223436376618
 20
48.044963828448715
 30
1341.0
 10
5.526743557965247
 20
41.51286542118565
 30
1341.0
 10
5.517287364511157
 20
39.15331035038737
 30
1341.0
 10
5.507935586931757
 20
36.79376391078691
 30
1341.0
 10
5.4986834884434135
 20
34.43422746285762
 30
1341.0
 10
5.489524934605261
 20
32.07470358552932
 30
1341.0
 10
5.480452782747062
 20
29.715195949196612
 30
1341.0
 10
5.471457585212439
 20
27.35570983862863
 30
1341.0
 10
5.45945780149603
 20
24.187410006964097
 30
1341.0
 10
5.456465340511789
 20
23.395488978974647
 30
1341.0
 10
5.453543771985785
 20
22.620791372113008
 30
1341.0
 10
5.450692989128552
 20
21.863617012412863
 30
1341.0
 10
5.447912885150625
 20
21.124265725907815
 30
1341.0
 10
5.445203353262538
 20
20.403037338631417
 30
1341.0
 10
5.442564286674824
 20
19.70023167661719
 30
1341.0
 10
5.437426867883193
 20
18.332064752638374
 30
1341.0
 10
5.434928563710553
 20
17.666730726659594
 30
1341.0
 10
5.432499539310705
 20
17.019846720843038
 30
1341.0
 10
5.430138668276839
 20
16.39111296408608
 30
1341.0
 10
5.4278448245647475
 20
15.78022968130273
 30
1341.0
 10
5.425616882492811
 20
15.186897093423605
 30
1341.0
 10
5.423453716742007
 20
14.610815417395942
 30
1341.0
 10
5.418092633977949
 20
13.18308280417505
 30
1341.0
 10
5.414831148129542
 20
12.314502720943068
 30
1341.0
 10
5.411569746221308
 20
11.44594499223323
 30
1341.0
 10
5.408308439902408
 20
10.577412720254102
 30
1341.0
 10
5.405047256963567
 20
9.708913306139362
 30
1341.0
 10
5.40178623985715
 20
8.840458055626591
 30
1341.0
 10
5.398525451108425
 20
7.972063619958767
 30
1341.0
 10
5.393638652303916
 20
6.670639572894636
 30
1341.0
 10
5.39201240430899
 20
6.237546594905908
 30
1341.0
 10
5.390386258457322
 20
5.804480819114239
 30
1341.0
 10
5.3887602292847605
 20
5.37144611663399
 30
1341.0
 10
5.387134349776549
 20
4.938451271900039
 30
1341.0
 10
5.385508669978673
 20
4.505509612864515
 30
1341.0
 10
5.38388326321481
 20
4.072640666675543
 30
1341.0
 10
5.381490155327096
 20
3.4353219889726674
 30
1341.0
 10
5.380722155819859
 20
3.230792793706108
 30
1341.0
 10
5.379954263056498
 20
3.0262920258966552
 30
1341.0
 10
5.3791864932666655
 20
2.8218240076401457
 30
1341.0
 10
5.378418876509514
 20
2.6173967441601924
 30
1341.0
 10
5.377651456698
 20
2.4130219301526665
 30
1341.0
 10
5.376884296287156
 20
2.2087161981970347
 30
1341.0
 10
5.37559357614172
 20
1.864979060144634
 30
1341.0
 10
5.3750698837097834
 20
1.7255123148360951
 30
1341.0
 10
5.374546395384049
 20
1.5860999259584503
 30
1341.0
 10
5.3740231416782915
 20
1.446750019645009
 30
1341.0
 10
5.373500188311819
 20
1.30748009801178
 30
1341.0
 10
5.372977687757114
 20
1.1683307665826987
 30
1341.0
 10
5.372455834483649
 20
1.0293538153482018
 30
1341.0
 10
5.371740350462331
 20
0.8388102411426956
 30
1341.0
 10
5.371554289654075
 20
0.7892596007810428
 30
1341.0
 10
5.3713766411415325
 20
0.741949274451305
 30
1341.0
 10
5.371207181486699
 20
0.6968197574344406
 30
1341.0
 10
5.3710456872515735
 20
0.6538115450114301
 30
1341.0
 10
5.370891934998155
 20
0.612865132463274
 30
1341.0
 10
5.370745701288439
 20
0.5739210150709937
 30
1341.0
 10
5.3703884305923975
 20
0.4787747457571355
 30
1341.0
 10
5.370188112945064
 20
0.425427306313929
 30
1341.0
 10
5.3700049426987375
 20
0.37664646371892124
 30
1341.0
 10
5.369838052809744
 20
0.33220131190501384
 30
1341.0
 10
5.3696865762344
 20
0.2918609448051005
 30
1341.0
 10
5.369549645929031
 20
0.25539445635206653
 30
1341.0
 10
5.369426394849961
 20
0.22257094047878923
 30
1341.0
 10
5.369205517057054
 20
0.1637480417574864
 30
1341.0
 10
5.369107890343224
 20
0.13774865890939378
 30
1341.0
 10
5.36902220876833
 20
0.11493043650675562
 30
1341.0
 10
5.368947605288695
 20
0.09506246848246137
 30
1341.0
 10
5.368883212860644
 20
0.07791384876939439
 30
1341.0
 10
5.368828164440499
 20
0.06325367130043195
 30
1341.0
 10
5.368781592984581
 20
0.050851030008445264
 30
1341.0
 10
5.368706071928656
 20
0.030738698362917205
 30
1341.0
 10
5.368672383453642
 20
0.0217669781715486
 30
1341.0
 10
5.368643733276317
 20
0.01413702834586772
 30
1341.0
 10
5.368621616278968
 20
0.008246957283830625
 30
1341.0
 10
5.368606588958406
 20
0.004244968016585915
 30
1341.0
 10
5.368597893773583
 20
0.0019293165999201278
 30
1341.0
 10
5.368593579907546
 20
0.0007804726956059937
 30
1341.0
 10
5.36858986992116
 20
-0.00020754946169532218
 30
1341.0
 10
5.368591156916909
 20
-5.06108674898087e-05
 30
1341.0
 10
5.368590125652306
 20
0.0002465320723565867
 30
1341.0
 10
5.368589620007205
 20
0.00022501165702237813
 30
1341.0
 10
5.3685929588653485
 20
-0.0006563224433406845
 30
1341.0
 10
5.368601779057152
 20
-0.002933274851926626
 30
1341.0
 10
5.368616706464346
 20
-0.0069394037975918366
 30
1341.0
 10
5.368657546022062
 20
-0.017815559048855786
 30
1341.0
 10
5.368683222199632
 20
-0.02465349043604549
 30
1341.0
 10
5.36871616399122
 20
-0.033426358204881775
 30
1341.0
 10
5.36875749705533
 20
-0.04443394123136752
 30
1341.0
 10
5.368808347050478
 20
-0.05797601839153036
 30
1341.0
 10
5.368869839635167
 20
-0.07435236856142272
 30
1341.0
 10
5.36894310046791
 20
-0.09386277061712177
 30
1341.0
 10
5.369115409946528
 20
-0.13975123625246508
 30
1341.0
 10
5.369214458592398
 20
-0.16612929983171348
 30
1341.0
 10
5.369327526803341
 20
-0.19624097304874105
 30
1341.0
 10
5.369455740237864
 20
-0.23038603477972153
 30
1341.0
 10
5.369600224554481
 20
-0.26886426390073626
 30
1341.0
 10
5.3697621054116995
 20
-0.311975439287774
 30
1341.0
 10
5.369942508468028
 20
-0.3600193398167307
 30
1341.0
 10
5.370309268476931
 20
-0.45769274815245353
 30
1341.0
 10
5.370489621917456
 20
-0.5057234352872958
 30
1341.0
 10
5.370684271126296
 20
-0.5575612889138171
 30
1341.0
 10
5.370893867526207
 20
-0.6133797921778853
 30
1341.0
 10
5.371119062539931
 20
-0.673352428225357
 30
1341.0
 10
5.371360507590219
 20
-0.7376526802020771
 30
1341.0
 10
5.37161885409982
 20
-0.8064540312538783
 30
1341.0
 10
5.372170652883142
 20
-0.9534058977995558
 30
1341.0
 10
5.372464105156863
 20
-1.0315564132930057
 30
1341.0
 10
5.37277576173539
 20
-1.1145549941531792
 30
1341.0
 10
5.373106274041477
 20
-1.2025751235261612
 30
1341.0
 10
5.3734562934978705
 20
-1.295790284557875
 30
1341.0
 10
5.3738264715273205
 20
-1.3943739603940808
 30
1341.0
 10
5.374217459552574
 20
-1.4984996341803762
 30
1341.0
 10
5.375431680474236
 20
-1.8218639405726726
 30
1341.0
 10
5.376234098630715
 20
-2.035559311802551
 30
1341.0
 10
5.377036940548058
 20
-2.249367536569995
 30
1341.0
 10
5.377840084520144
 20
-2.4632562028242546
 30
1341.0
 10
5.37864344865269
 20
-2.677203500941463
 30
1341.0
 10
5.379446980184199
 20
-2.891195379772242
 30
1341.0
 10
5.380250660472309
 20
-3.105226874611965
 30
1341.0
 10
5.382386985594557
 20
-3.6741606485735794
 30
1341.0
 10
5.383719814422664
 20
-4.029111927912176
 30
1341.0
 10
5.385052880869756
 20
-4.3841264885573175
 30
1341.0
 10
5.386386125602458
 20
-4.739188529208832
 30
1341.0
 10
5.387719507338664
 20
-5.094287055842315
 30
1341.0
 10
5.389052998173745
 20
-5.449414637047248
 30
1341.0
 10
5.390386583838267
 20
-5.804567472691531
 30
1341.0
 10
5.394558062915749
 20
-6.915491699457277
 30
1341.0
 10
5.397396222653443
 20
-7.671334016636322
 30
1341.0
 10
5.400234623232789
 20
-8.427240473413423
 30
1341.0
 10
5.403073198561586
 20
-9.183193468411247
 30
1341.0
 10
5.405911903785616
 20
-9.939181056356585
 30
1341.0
 10
5.408750709564198
 20
-10.695195423453598
 30
1341.0
 10
5.411589603683425
 20
-11.451233316884878
 30
1341.0
 10
5.416340107751485
 20
-12.716360136540798
 30
1341.0
 10
5.418312365149348
 20
-13.241600341275753
 30
1341.0
 10
5.420346482598934
 20
-13.783314757879847
 30
1341.0
 10
5.422443585758757
 20
-14.341803165229116
 30
1341.0
 10
5.424604800287322
 20
-14.917365342199602
 30
1341.0
 10
5.426831251843143
 20
-15.510301067667335
 30
1341.0
 10
5.429124066084725
 20
-16.120910120508356
 30
1341.0
 10
5.432724529184823
 20
-17.07976466854393
 30
1341.0
 10
5.433964713665567
 20
-17.410038861813113
 30
1341.0
 10
5.435204896556568
 20
-17.740314754563617
 30
1341.0
 10
5.436445066009146
 20
-18.070592248688687
 30
1341.0
 10
5.437685223882169
 20
-18.400871252817545
 30
1341.0
 10
5.438925385742056
 20
-18.73115168231535
 30
1341.0
 10
5.440165580862783
 20
-19.061433459283208
 30
1341.0
 10
5.44292385980111
 20
-19.795960448008948
 30
1341.0
 10
5.444465823679667
 20
-20.20653351446248
 30
1341.0
 10
5.446031765058754
 20
-20.62337619783902
 30
1341.0
 10
5.447621705135589
 20
-21.046428984058878
 30
1341.0
 10
5.449235665107386
 20
-21.475632359042436
 30
1341.0
 10
5.450873666171361
 20
-21.910926808710133
 30
1341.0
 10
5.452535729524727
 20
-22.35225281898248
 30
1341.0
 10
5.462126395282091
 20
-24.896447698672517
 30
1341.0
 10
5.4700655863959495
 20
-26.9933759412003
 30
1341.0
 10
5.478056969530103
 20
-29.09032606120082
 30
1341.0
 10
5.486109425946941
 20
-31.187292702579924
 30
1341.0
 10
5.494229488933093
 20
-33.28427215199592
 30
1341.0
 10
5.502422625849553
 20
-35.38126181056268
 30
1341.0
 10
5.510692843423663
 20
-37.478260331575854
 30
1341.0
 10
5.534750449510683
 20
-43.51925303810059
 30
1341.0
 10
5.550743019052667
 20
-47.463265146559756
 30
1341.0
 10
5.567046127379052
 20
-51.40729530857729
 30
1341.0
 10
5.583677832296347
 20
-55.35133877129387
 30
1341.0
 10
5.600655375550107
 20
-59.29539214973335
 30
1341.0
 10
5.617996516429578
 20
-63.23945296238554
 30
1341.0
 10
5.6357194725442366
 20
-67.18351968756086
 30
1341.0
 10
5.668434220569302
 20
-74.30243099285754
 30
1341.0
 10
5.683284511208023
 20
-77.47727350329865
 30
1341.0
 10
5.698405661181188
 20
-80.65211814329565
 30
1341.0
 10
5.713808762719105
 20
-83.82696426812237
 30
1341.0
 10
5.7295057773435225
 20
-87.0018113111015
 30
1341.0
 10
5.745509764029019
 20
-90.17665876396886
 30
1341.0
 10
5.761835107364399
 20
-93.3515061572377
 30
1341.0
 10
5.789805399347749
 20
-98.68087792090652
 30
1341.0
 10
5.801268448128409
 20
-100.83540255847379
 30
1341.0
 10
5.812891771130824
 20
-102.98992681330684
 30
1341.0
 10
5.824680693952664
 20
-105.14445054380249
 30
1341.0
 10
5.83664098871454
 20
-107.29897360671235
 30
1341.0
 10
5.84877887405998
 20
-109.45349585714267
 30
1341.0
 10
5.861101015155443
 20
-111.60801714855442
 30
1341.0
 10
5.900239686190647
 20
-118.34673926581894
 30
1341.0
 10
5.927733311744809
 20
-122.93093611050507
 30
1341.0
 10
5.95602558894001
 20
-127.5151272856069
 30
1341.0
 10
5.985058334783977
 20
-132.09931211821515
 30
1341.0
 10
6.014782093007009
 20
-136.68348983991726
 30
1341.0
 10
6.045153886402041
 20
-141.26765954824666
 30
1341.0
 10
6.076135623202692
 20
-145.85182013338974
 30
1341.0
 10
6.136414582414155
 20
-154.6081377369087
 30
1341.0
 10
6.165612957416583
 20
-158.78029614796932
 30
1341.0
 10
6.195262435848829
 20
-162.95244465352116
 30
1341.0
 10
6.225339961790932
 20
-167.12458201596888
 30
1341.0
 10
6.255823900454999
 20
-171.29670621658437
 30
1341.0
 10
6.286693815664377
 20
-175.4688144675609
 30
1341.0
 10
6.317929244184181
 20
-179.64090283905304
 30
1341.0
 10
6.367360999915447
 20
-186.172188462893
 30
1341.0
 10
6.385325617715701
 20
-188.53140288487947
 30
1341.0
 10
6.403394555132595
 20
-190.89060746072565
 30
1341.0
 10
6.421563060469765
 20
-193.2498008850634
 30
1341.0
 10
6.439824969916183
 20
-195.60898064993083
 30
1341.0
 10
6.458173098511064
 20
-197.96814316749692
 30
1341.0
 10
6.476597937145219
 20
-200.32728326245365
 30
1341.0
 10
6.501417523690608
 20
-203.49511116380174
 30
1341.0
 10
6.507628076945684
 20
-204.2869090568183
 30
1341.0
 10
6.513709364524785
 20
-205.0614857622616
 30
1341.0
 10
6.519657795873452
 20
-205.81854159557074
 30
1341.0
 10
6.5254697804372235
 20
-206.55777687218497
 30
1341.0
 10
6.531141727661645
 20
-207.27889190754328
 30
1341.0
 10
6.536670046992253
 20
-207.98158701708482
 30
1341.0
 10
6.547432254282478
 20
-209.34953871775022
 30
1341.0
 10
6.552665873785849
 20
-210.01476808143647
 30
1341.0
 10
6.557754363243596
 20
-210.66155032728588
 30
1341.0
 10
6.562700079923532
 20
-211.29018517925473
 30
1341.0
 10
6.567505381502376
 20
-211.9009723652771
 30
1341.0
 10
6.572172626065749
 20
-212.49421161726517
 30
1341.0
 10
6.576704172108179
 20
-213.07020267110872
 30
1341.0
 10
6.587934935423775
 20
-214.49771072042896
 30
1341.0
 10
6.594767319379572
 20
-215.36615419295725
 30
1341.0
 10
6.601599527445145
 20
-216.23457530861828
 30
1341.0
 10
6.608431535209984
 20
-217.10297096466226
 30
1341.0
 10
6.615263284440897
 20
-217.9713337592474
 30
1341.0
 10
6.622094686182263
 20
-218.83965238549894
 30
1341.0
 10
6.6289256094163775
 20
-219.70791019015257
 30
1341.0
 10
6.639162809891506
 20
-221.0091294991251
 30
1341.0
 10
6.642569585716475
 20
-221.4421543769281
 30
1341.0
 10
6.6459761475073424
 20
-221.8751520495103
 30
1341.0
 10
6.649382464805903
 20
-222.30811864542102
 30
1341.0
 10
6.652788468493766
 20
-222.74104537923287
 30
1341.0
 10
6.656194053702984
 20
-223.17391892150223
 30
1341.0
 10
6.659599066789852
 20
-223.606719743045
 30
1341.0
 10
6.664612312790919
 20
-224.24393814206607
 30
1341.0
 10
6.666221170944393
 20
-224.44843519180043
 30
1341.0
 10
6.667829805425781
 20
-224.6529038112567
 30
1341.0
 10
6.669438182223557
 20
-224.85733967733762
 30
1341.0
 10
6.671046238352623
 20
-225.06173478419754
 30
1341.0
 10
6.6726538817984
 20
-225.26607743614193
 30
1341.0
 10
6.674260981687918
 20
-225.47035099831112
 30
1341.0
 10
6.676964870758658
 20
-225.81403408595943
 30
1341.0
 10
6.678061938003174
 20
-225.95347895521658
 30
1341.0
 10
6.679158577540959
 20
-226.0928694599727
 30
1341.0
 10
6.680254725479224
 20
-226.23219747902172
 30
1341.0
 10
6.6813502440447525
 20
-226.3714455004148
 30
1341.0
 10
6.682444813803911
 20
-226.5105729219312
 30
1341.0
 10
6.683538027223313
 20
-226.64952794323872
 30
1341.0
 10
6.685036871008192
 20
-226.84004140233893
 30
1341.0
 10
6.685426643923168
 20
-226.8895842479941
 30
1341.0
 10
6.685798794185353
 20
-226.93688713203633
 30
1341.0
 10
6.686153789867965
 20
-226.9820095498243
 30
1341.0
 10
6.686492099044226
 20
-227.0250109967163
 30
1341.0
 10
6.686814189787355
 20
-227.06595096807075
 30
1341.0
 10
6.687120530170574
 20
-227.10488895924618
 30
1341.0
 10
6.6878689652759284
 20
-227.20002026130177
 30
1341.0
 10
6.688288604393133
 20
-227.25335930877202
 30
1341.0
 10
6.688672321961149
 20
-227.30213247775583
 30
1341.0
 10
6.689021934322415
 20
-227.3465706379968
 30
1341.0
 10
6.689339257819365
 20
-227.38690465923875
 30
1341.0
 10
6.68962610879444
 20
-227.42336541122552
 30
1341.0
 10
6.689884303590072
 20
-227.45618376370092
 30
1341.0
 10
6.690347013507333
 20
-227.51499740911643
 30
1341.0
 10
6.690551528628959
 20
-227.5409927020565
 30
1341.0
 10
6.690731020256021
 20
-227.5638073349728
 30
1341.0
 10
6.6908873047309525
 20
-227.5836721776091
 30
1341.0
 10
6.691022198396191
 20
-227.60081809970904
 30
1341.0
 10
6.691137517594175
 20
-227.6154759710165
 30
1341.0
 10
6.691235078667343
 20
-227.62787666127525
 30
1341.0
 10
6.6913760574423335
 20
-227.64579604310438
 30
1341.0
 10
6.691426984909415
 20
-227.65226927801695
 30
1341.0
 10
6.691470179057586
 20
-227.6577595543646
 30
1341.0
 10
6.691506338585068
 20
-227.6623556815454
 30
1341.0
 10
6.691536162190072
 20
-227.66614646895744
 30
1341.0
 10
6.69156034857082
 20
-227.66922072599883
 30
1341.0
 10
6.69157959642553
 20
-227.67166726206756
 30
1341.0
 10
6.69161838944735
 20
-227.67659812467681
 30
1341.0
 10
6.691750680829343
 20
-227.677610242281
 30
1341.0
 10
6.691826410482843
 20
-227.67774347730403
 30
1341.0
 10
6.691767022176111
 20
-227.67775670982925
 30
1341.0
 10
6.691580471561242
 20
-227.6780354620945
 30
1341.0
 10
6.691361226174157
 20
-227.67859189849116
 30
1341.0
 10
6.691290265434604
 20
-227.67906482556495
 30
1341.0
 10
6.69163508064615
 20
-227.67871969201562
 30
1341.0
  0
ENDSEC
  0
SECTION
  2
OBJECTS
  0
DICTIONARY
  5
A
330
0
100
AcDbDictionary
281
1
  3
ACAD_COLOR
350
B
  3
ACAD_GROUP
350
C
  3
ACAD_LAYOUT
350
D
  3
ACAD_MATERIAL
350
E
  3
ACAD_MLEADERSTYLE
350
F
  3
ACAD_MLINESTYLE
350
10
  3
ACAD_PLOTSETTINGS
350
11
  3
ACAD_PLOTSTYLENAME
350
12
  3
ACAD_SCALELIST
350
14
  3
ACAD_TABLESTYLE
350
15
  3
ACAD_VISUALSTYLE
350
16
  3
EZDXF_META
350
2D
  0
DICTIONARY
  5
B
330
A
100
AcDbDictionary
281
1
  0
DICTIONARY
  5
C
330
A
100
AcDbDictionary
281
1
  0
DICTIONARY
  5
D
330
A
100
AcDbDictionary
281
1
  3
Model
350
1A
  3
Layout1
350
1E
  0
DICTIONARY
  5
E
330
A
100
AcDbDictionary
281
1
  3
ByBlock
350
1F
  3
ByLayer
350
20
  3
Global
350
21
  0
DICTIONARY
  5
F
330
A
100
AcDbDictionary
281
1
  3
Standard
350
2C
  0
DICTIONARY
  5
10
330
A
100
AcDbDictionary
281
1
  3
Standard
350
22
  0
DICTIONARY
  5
11
330
A
100
AcDbDictionary
281
1
  0
ACDBDICTIONARYWDFLT
  5
12
330
A
100
AcDbDictionary
281
1
  3
Normal
350
13
100
AcDbDictionaryWithDefault
340
13
  0
ACDBPLACEHOLDER
  5
13
330
12
  0
DICTIONARY
  5
14
330
A
100
AcDbDictionary
281
1
  0
DICTIONARY
  5
15
330
A
100
AcDbDictionary
281
1
  0
DICTIONARY
  5
16
330
A
100
AcDbDictionary
281
1
  0
LAYOUT
  5
1A
330
D
100
AcDbPlotSettings
  1

  2
Adobe PDF
  4
A3
  6

 40
7.5
 41
20.0
 42
7.5
 43
20.0
 44
420.0
 45
297.0
 46
0.0
 47
0.0
 48
0.0
 49
0.0
140
0.0
141
0.0
142
1.0
143
1.0
 70
1024
 72
1
 73
1
 74
5
  7

 75
16
 76
0
 77
2
 78
300
147
1.0
148
0.0
149
0.0
100
AcDbLayout
  1
Model
 70
1
 71
0
 10
0.0
 20
0.0
 11
420.0
 21
297.0
 12
0.0
 22
0.0
 32
0.0
 14
1e+20
 24
1e+20
 34
1e+20
 15
-1e+20
 25
-1e+20
 35
-1e+20
146
0.0
 13
0.0
 23
0.0
 33
0.0
 16
1.0
 26
0.0
 36
0.0
 17
0.0
 27
1.0
 37
0.0
 76
1
330
17
  0
LAYOUT
  5
1E
330
D
100
AcDbPlotSettings
  1

  2
Adobe PDF
  4
A3
  6

 40
7.5
 41
20.0
 42
7.5
 43
20.0
 44
420.0
 45
297.0
 46
0.0
 47
0.0
 48
0.0
 49
0.0
140
0.0
141
0.0
142
1.0
143
1.0
 70
0
 72
1
 73
1
 74
5
  7

 75
16
 76
0
 77
2
 78
300
147
1.0
148
0.0
149
0.0
100
AcDbLayout
  1
Layout1
 70
1
 71
1
 10
0.0
 20
0.0
 11
420.0
 21
297.0
 12
0.0
 22
0.0
 32
0.0
 14
1e+20
 24
1e+20
 34
1e+20
 15
-1e+20
 25
-1e+20
 35
-1e+20
146
0.0
 13
0.0
 23
0.0
 33
0.0
 16
1.0
 26
0.0
 36
0.0
 17
0.0
 27
1.0
 37
0.0
 76
1
330
1B
  0
MATERIAL
  5
1F
102
{ACAD_REACTORS
330
E
102
}
330
E
100
AcDbMaterial
  1
ByBlock
  2

 70
0
 40
1.0
 71
1
 41
1.0
 91
-1023410177
 42
1.0
 72
1
  3

 73
1
 74
1
 75
1
 44
0.5
 73
0
 45
1.0
 46
1.0
 77
1
  4

 78
1
 79
1
170
1
 48
1.0
171
1
  6

172
1
173
1
174
1
140
1.0
141
1.0
175
1
  7

176
1
177
1
178
1
143
1.0
179
1
  8

270
1
271
1
272
1
145
1.0
146
1.0
273
1
  9

274
1
275
1
276
1
 42
1.0
 72
1
  3

 73
1
 74
1
 75
1
 94
63
  0
MATERIAL
  5
20
102
{ACAD_REACTORS
330
E
102
}
330
E
100
AcDbMaterial
  1
ByLayer
  2

 70
0
 40
1.0
 71
1
 41
1.0
 91
-1023410177
 42
1.0
 72
1
  3

 73
1
 74
1
 75
1
 44
0.5
 73
0
 45
1.0
 46
1.0
 77
1
  4

 78
1
 79
1
170
1
 48
1.0
171
1
  6

172
1
173
1
174
1
140
1.0
141
1.0
175
1
  7

176
1
177
1
178
1
143
1.0
179
1
  8

270
1
271
1
272
1
145
1.0
146
1.0
273
1
  9

274
1
275
1
276
1
 42
1.0
 72
1
  3

 73
1
 74
1
 75
1
 94
63
  0
MATERIAL
  5
21
102
{ACAD_REACTORS
330
E
102
}
330
E
100
AcDbMaterial
  1
Global
  2

 70
0
 40
1.0
 71
1
 41
1.0
 91
-1023410177
 42
1.0
 72
1
  3

 73
1
 74
1
 75
1
 44
0.5
 73
0
 45
1.0
 46
1.0
 77
1
  4

 78
1
 79
1
170
1
 48
1.0
171
1
  6

172
1
173
1
174
1
140
1.0
141
1.0
175
1
  7

176
1
177
1
178
1
143
1.0
179
1
  8

270
1
271
1
272
1
145
1.0
146
1.0
273
1
  9

274
1
275
1
276
1
 42
1.0
 72
1
  3

 73
1
 74
1
 75
1
 94
63
  0
MLINESTYLE
  5
22
102
{ACAD_REACTORS
330
10
102
}
330
10
100
AcDbMlineStyle
  2
Standard
 70
0
  3

 62
256
 51
90.0
 52
90.0
 71
2
 49
0.5
 62
256
  6
BYLAYER
 49
-0.5
 62
256
  6
BYLAYER
  0
MLEADERSTYLE
  5
2C
102
{ACAD_REACTORS
330
F
102
}
330
F
100
AcDbMLeaderStyle
179
2
170
2
171
1
172
0
 90
2
 40
0.0
 41
0.0
173
1
 91
-1056964608
 92
-2
290
1
 42
2.0
291
1
 43
8.0
  3
Standard
 44
4.0
300

342
29
174
1
175
1
176
0
178
1
 93
-1056964608
 45
4.0
292
0
297
0
 46
4.0
 94
-1056964608
 47
1.0
 49
1.0
140
1.0
294
1
141
0.0
177
0
142
1.0
295
0
296
0
143
3.75
271
0
272
9
273
9
  0
DICTIONARY
  5
2D
330
A
100
AcDbDictionary
280
1
281
1
  3
CREATED_BY_EZDXF
350
2E
  3
WRITTEN_BY_EZDXF
350
80
  0
DICTIONARYVAR
  5
2E
330
2D
100
DictionaryVariables
280
0
  1
0.17 @ 2022-02-15T16:42:24.062472+00:00
  0
DICTIONARYVAR
  5
80
330
2D
100
DictionaryVariables
280
0
  1
0.17 @ 2022-02-15T16:42:24.164073+00:00
  0
ENDSEC
  0
EOF
