  0
SECTION
  2
HEADER
  9
$ACADVER
  1
AC1027
  9
$ACADMAINTVER
 70
105
  9
$DWGCODEPAGE
  3
ANSI_1252
  9
$LASTSAVEDBY
  1
ezdxf
  9
$REQUIREDVERSIONS
160
0
  9
$INSBASE
 10
0.0
 20
0.0
 30
0.0
  9
$EXTMIN
 10
1e+20
 20
1e+20
 30
1e+20
  9
$EXTMAX
 10
-1e+20
 20
-1e+20
 30
-1e+20
  9
$LIMMIN
 10
0.0
 20
0.0
  9
$LIMMAX
 10
420.0
 20
297.0
  9
$ORTHOMODE
 70
0
  9
$REGENMODE
 70
1
  9
$FILLMODE
 70
1
  9
$QTEXTMODE
 70
0
  9
$MIRRTEXT
 70
1
  9
$LTSCALE
 40
1.0
  9
$ATTMODE
 70
1
  9
$TEXTSIZE
 40
2.5
  9
$TRACEWID
 40
1.0
  9
$TEXTSTYLE
  7
Standard
  9
$CLAYER
  8
0
  9
$CELTYPE
  6
ByLayer
  9
$CECOLOR
 62
256
  9
$CELTSCALE
 40
1.0
  9
$DISPSILH
 70
0
  9
$DIMSCALE
 40
1.0
  9
$DIMASZ
 40
2.5
  9
$DIMEXO
 40
0.625
  9
$DIMDLI
 40
3.75
  9
$DIMRND
 40
0.0
  9
$DIMDLE
 40
0.0
  9
$DIMEXE
 40
1.25
  9
$DIMTP
 40
0.0
  9
$DIMTM
 40
0.0
  9
$DIMTXT
 40
2.5
  9
$DIMCEN
 40
2.5
  9
$DIMTSZ
 40
0.0
  9
$DIMTOL
 70
0
  9
$DIMLIM
 70
0
  9
$DIMTIH
 70
0
  9
$DIMTOH
 70
0
  9
$DIMSE1
 70
0
  9
$DIMSE2
 70
0
  9
$DIMTAD
 70
1
  9
$DIMZIN
 70
8
  9
$DIMBLK
  1

  9
$DIMASO
 70
1
  9
$DIMSHO
 70
1
  9
$DIMPOST
  1

  9
$DIMAPOST
  1

  9
$DIMALT
 70
0
  9
$DIMALTD
 70
3
  9
$DIMALTF
 40
0.03937007874
  9
$DIMLFAC
 40
1.0
  9
$DIMTOFL
 70
1
  9
$DIMTVP
 40
0.0
  9
$DIMTIX
 70
0
  9
$DIMSOXD
 70
0
  9
$DIMSAH
 70
0
  9
$DIMBLK1
  1

  9
$DIMBLK2
  1

  9
$DIMSTYLE
  2
ISO-25
  9
$DIMCLRD
 70
0
  9
$DIMCLRE
 70
0
  9
$DIMCLRT
 70
0
  9
$DIMTFAC
 40
1.0
  9
$DIMGAP
 40
0.625
  9
$DIMJUST
 70
0
  9
$DIMSD1
 70
0
  9
$DIMSD2
 70
0
  9
$DIMTOLJ
 70
0
  9
$DIMTZIN
 70
8
  9
$DIMALTZ
 70
0
  9
$DIMALTTZ
 70
0
  9
$DIMUPT
 70
0
  9
$DIMDEC
 70
2
  9
$DIMTDEC
 70
2
  9
$DIMALTU
 70
2
  9
$DIMALTTD
 70
3
  9
$DIMTXSTY
  7
Standard
  9
$DIMAUNIT
 70
0
  9
$DIMADEC
 70
0
  9
$DIMALTRND
 40
0.0
  9
$DIMAZIN
 70
0
  9
$DIMDSEP
 70
44
  9
$DIMATFIT
 70
3
  9
$DIMFRAC
 70
0
  9
$DIMLDRBLK
  1

  9
$DIMLUNIT
 70
2
  9
$DIMLWD
 70
-2
  9
$DIMLWE
 70
-2
  9
$DIMTMOVE
 70
0
  9
$DIMFXL
 40
1.0
  9
$DIMFXLON
 70
0
  9
$DIMJOGANG
 40
0.785398163397
  9
$DIMTFILL
 70
0
  9
$DIMTFILLCLR
 70
0
  9
$DIMARCSYM
 70
0
  9
$DIMLTYPE
  6

  9
$DIMLTEX1
  6

  9
$DIMLTEX2
  6

  9
$DIMTXTDIRECTION
 70
0
  9
$LUNITS
 70
2
  9
$LUPREC
 70
4
  9
$SKETCHINC
 40
1.0
  9
$FILLETRAD
 40
10.0
  9
$AUNITS
 70
0
  9
$AUPREC
 70
2
  9
$MENU
  1
.
  9
$ELEVATION
 40
0.0
  9
$PELEVATION
 40
0.0
  9
$THICKNESS
 40
0.0
  9
$LIMCHECK
 70
0
  9
$CHAMFERA
 40
0.0
  9
$CHAMFERB
 40
0.0
  9
$CHAMFERC
 40
0.0
  9
$CHAMFERD
 40
0.0
  9
$SKPOLY
 70
0
  9
$TDCREATE
 40
2459626.737800926
  9
$TDUCREATE
 40
2458532.153996898
  9
$TDUPDATE
 40
2459626.7378125
  9
$TDUUPDATE
 40
2458532.1544311
  9
$TDINDWG
 40
0.0
  9
$TDUSRTIMER
 40
0.0
  9
$USRTIMER
 70
1
  9
$ANGBASE
 50
0.0
  9
$ANGDIR
 70
0
  9
$PDMODE
 70
0
  9
$PDSIZE
 40
0.0
  9
$PLINEWID
 40
0.0
  9
$SPLFRAME
 70
0
  9
$SPLINETYPE
 70
6
  9
$SPLINESEGS
 70
8
  9
$HANDSEED
  5
81
  9
$SURFTAB1
 70
6
  9
$SURFTAB2
 70
6
  9
$SURFTYPE
 70
6
  9
$SURFU
 70
6
  9
$SURFV
 70
6
  9
$UCSBASE
  2

  9
$UCSNAME
  2

  9
$UCSORG
 10
0.0
 20
0.0
 30
0.0
  9
$UCSXDIR
 10
1.0
 20
0.0
 30
0.0
  9
$UCSYDIR
 10
0.0
 20
1.0
 30
0.0
  9
$UCSORTHOREF
  2

  9
$UCSORTHOVIEW
 70
0
  9
$UCSORGTOP
 10
0.0
 20
0.0
 30
0.0
  9
$UCSORGBOTTOM
 10
0.0
 20
0.0
 30
0.0
  9
$UCSORGLEFT
 10
0.0
 20
0.0
 30
0.0
  9
$UCSORGRIGHT
 10
0.0
 20
0.0
 30
0.0
  9
$UCSORGFRONT
 10
0.0
 20
0.0
 30
0.0
  9
$UCSORGBACK
 10
0.0
 20
0.0
 30
0.0
  9
$PUCSBASE
  2

  9
$PUCSNAME
  2

  9
$PUCSORG
 10
0.0
 20
0.0
 30
0.0
  9
$PUCSXDIR
 10
1.0
 20
0.0
 30
0.0
  9
$PUCSYDIR
 10
0.0
 20
1.0
 30
0.0
  9
$PUCSORTHOREF
  2

  9
$PUCSORTHOVIEW
 70
0
  9
$PUCSORGTOP
 10
0.0
 20
0.0
 30
0.0
  9
$PUCSORGBOTTOM
 10
0.0
 20
0.0
 30
0.0
  9
$PUCSORGLEFT
 10
0.0
 20
0.0
 30
0.0
  9
$PUCSORGRIGHT
 10
0.0
 20
0.0
 30
0.0
  9
$PUCSORGFRONT
 10
0.0
 20
0.0
 30
0.0
  9
$PUCSORGBACK
 10
0.0
 20
0.0
 30
0.0
  9
$USERI1
 70
0
  9
$USERI2
 70
0
  9
$USERI3
 70
0
  9
$USERI4
 70
0
  9
$USERI5
 70
0
  9
$USERR1
 40
0.0
  9
$USERR2
 40
0.0
  9
$USERR3
 40
0.0
  9
$USERR4
 40
0.0
  9
$USERR5
 40
0.0
  9
$WORLDVIEW
 70
1
  9
$SHADEDGE
 70
3
  9
$SHADEDIF
 70
70
  9
$TILEMODE
 70
1
  9
$MAXACTVP
 70
64
  9
$PINSBASE
 10
0.0
 20
0.0
 30
0.0
  9
$PLIMCHECK
 70
0
  9
$PEXTMIN
 10
1e+20
 20
1e+20
 30
1e+20
  9
$PEXTMAX
 10
-1e+20
 20
-1e+20
 30
-1e+20
  9
$PLIMMIN
 10
0.0
 20
0.0
  9
$PLIMMAX
 10
420.0
 20
297.0
  9
$UNITMODE
 70
0
  9
$VISRETAIN
 70
1
  9
$PLINEGEN
 70
0
  9
$PSLTSCALE
 70
1
  9
$TREEDEPTH
 70
3020
  9
$CMLSTYLE
  2
Standard
  9
$CMLJUST
 70
0
  9
$CMLSCALE
 40
20.0
  9
$PROXYGRAPHICS
 70
1
  9
$MEASUREMENT
 70
1
  9
$CELWEIGHT
370
-1
  9
$ENDCAPS
280
0
  9
$JOINSTYLE
280
0
  9
$LWDISPLAY
290
0
  9
$INSUNITS
 70
6
  9
$HYPERLINKBASE
  1

  9
$STYLESHEET
  1

  9
$XEDIT
290
1
  9
$CEPSNTYPE
380
0
  9
$PSTYLEMODE
290
1
  9
$FINGERPRINTGUID
  2
{228924AA-8D33-4334-9825-1C19C7622C7C}
  9
$VERSIONGUID
  2
{AD0CE5E7-B4B0-4F69-95CF-38C1425272A3}
  9
$EXTNAMES
290
1
  9
$PSVPSCALE
 40
0.0
  9
$OLESTARTUP
290
0
  9
$SORTENTS
280
127
  9
$INDEXCTL
280
0
  9
$HIDETEXT
280
1
  9
$XCLIPFRAME
280
0
  9
$HALOGAP
280
0
  9
$OBSCOLOR
 70
257
  9
$OBSLTYPE
280
0
  9
$INTERSECTIONDISPLAY
280
0
  9
$INTERSECTIONCOLOR
 70
257
  9
$DIMASSOC
280
2
  9
$PROJECTNAME
  1

  9
$CAMERADISPLAY
290
0
  9
$LENSLENGTH
 40
50.0
  9
$CAMERAHEIGHT
 40
0.0
  9
$STEPSPERSEC
 40
24.0
  9
$STEPSIZE
 40
100.0
  9
$3DDWFPREC
 40
2.0
  9
$PSOLWIDTH
 40
0.005
  9
$PSOLHEIGHT
 40
0.08
  9
$LOFTANG1
 40
1.570796326795
  9
$LOFTANG2
 40
1.570796326795
  9
$LOFTMAG1
 40
0.0
  9
$LOFTMAG2
 40
0.0
  9
$LOFTPARAM
 70
7
  9
$LOFTNORMALS
280
1
  9
$LATITUDE
 40
37.795
  9
$LONGITUDE
 40
-122.394
  9
$NORTHDIRECTION
 40
0.0
  9
$TIMEZONE
 70
-8000
  9
$LIGHTGLYPHDISPLAY
280
1
  9
$TILEMODELIGHTSYNCH
280
1
  9
$CMATERIAL
347
20
  9
$SOLIDHIST
280
0
  9
$SHOWHIST
280
1
  9
$DWFFRAME
280
2
  9
$DGNFRAME
280
2
  9
$REALWORLDSCALE
290
1
  9
$INTERFERECOLOR
 62
256
  9
$CSHADOW
280
0
  9
$SHADOWPLANELOCATION
 40
0.0
  0
ENDSEC
  0
SECTION
  2
CLASSES
  0
CLASS
  1
ACDBDICTIONARYWDFLT
  2
AcDbDictionaryWithDefault
  3
ObjectDBX Classes
 90
0
 91
0
280
0
281
0
  0
CLASS
  1
SUN
  2
AcDbSun
  3
SCENEOE
 90
1153
 91
0
280
0
281
0
  0
CLASS
  1
VISUALSTYLE
  2
AcDbVisualStyle
  3
ObjectDBX Classes
 90
4095
 91
0
280
0
281
0
  0
CLASS
  1
MATERIAL
  2
AcDbMaterial
  3
ObjectDBX Classes
 90
1153
 91
0
280
0
281
0
  0
CLASS
  1
SCALE
  2
AcDbScale
  3
ObjectDBX Classes
 90
1153
 91
0
280
0
281
0
  0
CLASS
  1
TABLESTYLE
  2
AcDbTableStyle
  3
ObjectDBX Classes
 90
4095
 91
0
280
0
281
0
  0
CLASS
  1
MLEADERSTYLE
  2
AcDbMLeaderStyle
  3
ACDB_MLEADERSTYLE_CLASS
 90
4095
 91
0
280
0
281
0
  0
CLASS
  1
DICTIONARYVAR
  2
AcDbDictionaryVar
  3
ObjectDBX Classes
 90
0
 91
0
280
0
281
0
  0
CLASS
  1
CELLSTYLEMAP
  2
AcDbCellStyleMap
  3
ObjectDBX Classes
 90
1152
 91
0
280
0
281
0
  0
CLASS
  1
MENTALRAYRENDERSETTINGS
  2
AcDbMentalRayRenderSettings
  3
SCENEOE
 90
1024
 91
0
280
0
281
0
  0
CLASS
  1
ACDBDETAILVIEWSTYLE
  2
AcDbDetailViewStyle
  3
ObjectDBX Classes
 90
1025
 91
0
280
0
281
0
  0
CLASS
  1
ACDBSECTIONVIEWSTYLE
  2
AcDbSectionViewStyle
  3
ObjectDBX Classes
 90
1025
 91
0
280
0
281
0
  0
CLASS
  1
RASTERVARIABLES
  2
AcDbRasterVariables
  3
ISM
 90
0
 91
0
280
0
281
0
  0
CLASS
  1
ACDBPLACEHOLDER
  2
AcDbPlaceHolder
  3
ObjectDBX Classes
 90
0
 91
0
280
0
281
0
  0
CLASS
  1
LAYOUT
  2
AcDbLayout
  3
ObjectDBX Classes
 90
0
 91
0
280
0
281
0
  0
ENDSEC
  0
SECTION
  2
TABLES
  0
TABLE
  2
VPORT
  5
8
330
0
100
AcDbSymbolTable
 70
1
  0
VPORT
  5
23
330
8
100
AcDbSymbolTableRecord
100
AcDbViewportTableRecord
  2
*Active
 70
0
 10
0.0
 20
0.0
 11
1.0
 21
1.0
 12
344.2
 22
148.5
 13
0.0
 23
0.0
 14
0.5
 24
0.5
 15
0.5
 25
0.5
 16
0.0
 26
0.0
 36
1.0
 17
0.0
 27
0.0
 37
0.0
 40
297.0
 41
1.34
 42
50.0
 43
0.0
 44
0.0
 50
0.0
 51
0.0
 71
0
 72
1000
 73
1
 74
3
 75
0
 76
0
 77
0
 78
0
281
0
 65
0
146
0.0
  0
ENDTAB
  0
TABLE
  2
LTYPE
  5
2
330
0
100
AcDbSymbolTable
 70
3
  0
LTYPE
  5
24
330
2
100
AcDbSymbolTableRecord
100
AcDbLinetypeTableRecord
  2
ByBlock
 70
0
  3

 72
65
 73
0
 40
0.0
  0
LTYPE
  5
25
330
2
100
AcDbSymbolTableRecord
100
AcDbLinetypeTableRecord
  2
ByLayer
 70
0
  3

 72
65
 73
0
 40
0.0
  0
LTYPE
  5
26
330
2
100
AcDbSymbolTableRecord
100
AcDbLinetypeTableRecord
  2
Continuous
 70
0
  3

 72
65
 73
0
 40
0.0
  0
ENDTAB
  0
TABLE
  2
LAYER
  5
1
330
0
100
AcDbSymbolTable
 70
2
  0
LAYER
  5
27
330
1
100
AcDbSymbolTableRecord
100
AcDbLayerTableRecord
  2
0
 70
0
 62
7
  6
Continuous
370
-3
390
13
347
21
  0
LAYER
  5
28
330
1
100
AcDbSymbolTableRecord
100
AcDbLayerTableRecord
  2
Defpoints
 70
0
 62
7
  6
Continuous
290
0
370
-3
390
13
347
21
  0
ENDTAB
  0
TABLE
  2
STYLE
  5
5
330
0
100
AcDbSymbolTable
 70
1
  0
STYLE
  5
29
330
5
100
AcDbSymbolTableRecord
100
AcDbTextStyleTableRecord
  2
Standard
 70
0
 40
0.0
 41
1.0
 50
0.0
 71
0
 42
2.5
  3
txt
  4

  0
ENDTAB
  0
TABLE
  2
VIEW
  5
7
330
0
100
AcDbSymbolTable
 70
0
  0
ENDTAB
  0
TABLE
  2
UCS
  5
6
330
0
100
AcDbSymbolTable
 70
0
  0
ENDTAB
  0
TABLE
  2
APPID
  5
3
330
0
100
AcDbSymbolTable
 70
3
  0
APPID
  5
2A
330
3
100
AcDbSymbolTableRecord
100
AcDbRegAppTableRecord
  2
ACAD
 70
0
  0
APPID
  5
7E
330
3
100
AcDbSymbolTableRecord
100
AcDbRegAppTableRecord
  2
HATCHBACKGROUNDCOLOR
 70
0
  0
APPID
  5
7F
330
3
100
AcDbSymbolTableRecord
100
AcDbRegAppTableRecord
  2
EZDXF
 70
0
  0
ENDTAB
  0
TABLE
  2
DIMSTYLE
  5
4
330
0
100
AcDbSymbolTable
 70
1
100
AcDbDimStyleTable
  0
DIMSTYLE
105
2B
330
4
100
AcDbSymbolTableRecord
100
AcDbDimStyleTableRecord
  2
Standard
 70
0
 40
1.0
 41
2.5
 42
0.625
 43
3.75
 44
1.25
 45
0.0
 46
0.0
 47
0.0
 48
0.0
 49
2.5
140
2.5
141
2.5
142
0.0
143
0.03937007874
144
1.0
145
0.0
146
1.0
147
0.625
148
0.0
 69
0
 70
0
 71
0
 72
0
 73
0
 74
0
 75
0
 76
0
 77
1
 78
8
 79
0
170
0
171
3
172
1
173
0
174
0
175
0
176
0
177
0
178
0
179
0
271
0
272
2
273
2
274
3
275
0
276
0
277
2
278
44
279
0
280
0
281
0
282
0
283
0
284
8
285
0
286
0
288
0
289
3
290
0
371
-2
372
-2
  0
ENDTAB
  0
TABLE
  2
BLOCK_RECORD
  5
9
330
0
100
AcDbSymbolTable
 70
2
  0
BLOCK_RECORD
  5
17
330
9
100
AcDbSymbolTableRecord
100
AcDbBlockTableRecord
  2
*Model_Space
340
1A
 70
0
280
1
281
0
  0
BLOCK_RECORD
  5
1B
330
9
100
AcDbSymbolTableRecord
100
AcDbBlockTableRecord
  2
*Paper_Space
340
1E
 70
0
280
1
281
0
  0
ENDTAB
  0
ENDSEC
  0
SECTION
  2
BLOCKS
  0
BLOCK
  5
18
330
17
100
AcDbEntity
  8
0
100
AcDbBlockBegin
  2
*Model_Space
 70
0
 10
0.0
 20
0.0
 30
0.0
  3
*Model_Space
  1

  0
ENDBLK
  5
19
330
17
100
AcDbEntity
  8
0
100
AcDbBlockEnd
  0
BLOCK
  5
1C
330
1B
100
AcDbEntity
  8
0
100
AcDbBlockBegin
  2
*Paper_Space
 70
0
 10
0.0
 20
0.0
 30
0.0
  3
*Paper_Space
  1

  0
ENDBLK
  5
1D
330
1B
100
AcDbEntity
  8
0
100
AcDbBlockEnd
  0
ENDSEC
  0
SECTION
  2
ENTITIES
  0
SPLINE
  5
2F
330
17
100
AcDbEntity
  8
0
100
AcDbSpline
 70
0
 71
8
 72
81
 73
72
 74
0
 40
0.0
 40
0.0
 40
0.0
 40
0.0
 40
0.0
 40
0.0
 40
0.0
 40
0.0
 40
0.0
 40
0.03750517744791394
 40
0.03750517744791394
 40
0.03750517744791394
 40
0.03750517744791394
 40
0.03750517744791394
 40
0.03750517744791394
 40
0.03750517744791394
 40
0.14587299021485536
 40
0.14587299021485536
 40
0.14587299021485536
 40
0.14587299021485536
 40
0.14587299021485536
 40
0.14587299021485536
 40
0.14587299021485536
 40
0.2577083392148751
 40
0.2577083392148751
 40
0.2577083392148751
 40
0.2577083392148751
 40
0.2577083392148751
 40
0.2577083392148751
 40
0.2577083392148751
 40
0.3197905742256506
 40
0.3197905742256506
 40
0.3197905742256506
 40
0.3197905742256506
 40
0.3197905742256506
 40
0.3197905742256506
 40
0.3197905742256506
 40
0.39613949082685096
 40
0.39613949082685096
 40
0.39613949082685096
 40
0.39613949082685096
 40
0.39613949082685096
 40
0.39613949082685096
 40
0.39613949082685096
 40
0.4396103691285767
 40
0.4396103691285767
 40
0.4396103691285767
 40
0.4396103691285767
 40
0.4396103691285767
 40
0.4396103691285767
 40
0.4396103691285767
 40
0.4722131334401627
 40
0.4722131334401627
 40
0.4722131334401627
 40
0.4722131334401627
 40
0.4722131334401627
 40
0.4722131334401627
 40
0.4722131334401627
 40
0.5735221575297567
 40
0.5735221575297567
 40
0.5735221575297567
 40
0.5735221575297567
 40
0.5735221575297567
 40
0.5735221575297567
 40
0.5735221575297567
 40
0.7142682803848585
 40
0.7142682803848585
 40
0.7142682803848585
 40
0.7142682803848585
 40
0.7142682803848585
 40
0.7142682803848585
 40
0.7142682803848585
 40
1.0
 40
1.0
 40
1.0
 40
1.0
 40
1.0
 40
1.0
 40
1.0
 40
1.0
 40
1.0
 10
44.47226968321984
 20
235.89999998902147
 30
1393.0
 10
44.35463562320036
 20
236.1156361995304
 30
1393.0
 10
44.23576666718596
 20
236.33059661721506
 30
1393.0
 10
44.11563324665799
 20
236.54485431550285
 30
1393.0
 10
43.99420456652231
 20
236.75838089012063
 30
1393.0
 10
43.8714484951214
 20
236.9711464010838
 30
1393.0
 10
43.74733144223224
 20
237.18311930821494
 30
1393.0
 10
43.62181822505008
 20
237.39426640019337
 30
1393.0
 10
43.128072079593124
 20
238.21215598079976
 30
1393.0
 10
42.74938379275382
 20
238.81244595724414
 30
1393.0
 10
42.35788309944461
 20
239.4046524600899
 30
1393.0
 10
41.95260081585345
 20
239.98773277372536
 30
1393.0
 10
41.532514089967655
 20
240.56036568570624
 30
1393.0
 10
41.096530008502256
 20
241.1209395136294
 30
1393.0
 10
40.64346125734067
 20
241.66753412647836
 30
1393.0
 10
39.685440473204345
 20
242.74523026097032
 30
1393.0
 10
39.17945209705506
 20
243.2750957381802
 30
1393.0
 10
38.6525533162682
 20
243.78509901340183
 30
1393.0
 10
38.10347952513392
 20
244.27204241363654
 30
1393.0
 10
37.5312585187282
 20
244.73203395439674
 30
1393.0
 10
36.935311064358444
 20
245.16061726776496
 30
1393.0
 10
36.31566909145243
 20
245.55304871237996
 30
1393.0
 10
35.31687826000181
 20
246.10013928501627
 30
1393.0
 10
34.953422287323704
 20
246.2828842156804
 30
1393.0
 10
34.58334078802669
 20
246.45226256846746
 30
1393.0
 10
34.2070111097263
 20
246.60751762313822
 30
1393.0
 10
33.824901410283466
 20
246.7479872825996
 30
1393.0
 10
33.43758266388355
 20
246.873135290709
 30
1393.0
 10
33.04574066711524
 20
246.98258245007864
 30
1393.0
 10
32.16373625818564
 20
247.19119253551534
 30
1393.0
 10
31.67151219045953
 20
247.28225066926618
 30
1393.0
 10
31.175080682194768
 20
247.3489138897005
 30
1393.0
 10
30.675905368364546
 20
247.39132827651414
 30
1393.0
 10
30.175343767987247
 20
247.41008810112106
 30
1393.0
 10
29.67464177925324
 20
247.40614066769288
 30
1393.0
 10
29.174927580383024
 20
247.38069223464873
 30
1393.0
 10
28.393815970717878
 20
247.30916465884764
 30
1393.0
 10
28.1105470346927
 20
247.27664084727553
 30
1393.0
 10
27.827413971323143
 20
247.23773886224188
 30
1393.0
 10
27.544432623790414
 20
247.19265398411008
 30
1393.0
 10
27.261618835274994
 20
247.14158149324257
 30
1393.0
 10
26.978988448956628
 20
247.08471667000137
 30
1393.0
 10
26.696557308014327
 20
247.02225479474774
 30
1393.0
 10
26.202681776903894
 20
246.90349402839541
 30
1393.0
 10
25.991131135745967
 20
246.84957841433018
 30
1393.0
 10
25.779717434012703
 20
246.79268129005268
 30
1393.0
 10
25.568474626333355
 20
246.7328089716785
 30
1393.0
 10
25.357440008266252
 20
246.66994995355424
 30
1393.0
 10
25.146651704458737
 20
246.6040877547781
 30
1393.0
 10
24.936146156807073
 20
246.53521376572093
 30
1393.0
 10
24.072814710166757
 20
246.24000162500064
 30
1393.0
 10
23.42886812689061
 20
245.9897364501854
 30
1393.0
 10
22.795261831051267
 20
245.71343171609246
 30
1393.0
 10
22.17304130170923
 20
245.41200888512535
 30
1393.0
 10
21.563153295428965
 20
245.08642013220978
 30
1393.0
 10
20.966447612985537
 20
244.73764474090268
 30
1393.0
 10
20.383678866071392
 20
244.3666854995008
 30
1393.0
 10
19.02616284368035
 20
243.42980191520041
 30
1393.0
 10
18.264977290838274
 20
242.8441849442808
 30
1393.0
 10
17.533730658814417
 20
242.220458270092
 30
1393.0
 10
16.833797341534254
 20
241.56140148945187
 30
1393.0
 10
16.16617965823856
 20
240.86979662322855
 30
1393.0
 10
15.531540458210744
 20
240.1483950292736
 30
1393.0
 10
14.930235725504263
 20
239.39988431535454
 30
1393.0
 10
13.20946448739079
 20
237.05751238793758
 30
1393.0
 10
12.195088563507104
 20
235.3881881555691
 30
1393.0
 10
11.318397641856976
 20
233.63918509957216
 30
1393.0
 10
10.575015568591574
 20
231.82884251825826
 30
1393.0
 10
9.95807103091003
 20
229.9731353416144
 30
1393.0
 10
9.459254540517621
 20
228.08527066472342
 30
1393.0
 10
9.069797783348369
 20
226.1753119425507
 30
1393.0
 10
8.781299943093032
 20
224.24986085199617
 30
1393.0
  0
LINE
  5
30
330
17
100
AcDbEntity
  8
0
100
AcDbLine
 10
28.154853052125382
 20
235.9
 30
1393.0
 11
44.47226970334478
 21
235.9
 31
1393.0
  0
SPLINE
  5
31
330
17
100
AcDbEntity
  8
0
100
AcDbSpline
 70
0
 71
1
 72
4
 73
2
 74
0
 40
0.0
 40
0.0
 40
1.0
 40
1.0
 10
28.154853052127297
 20
235.9000006000011
 30
1393.0
 10
28.1548530521273
 20
232.09999939999986
 30
1393.0
  0
LINE
  5
32
330
17
100
AcDbEntity
  8
0
100
AcDbLine
 10
28.154853052125382
 20
232.1
 30
1393.0
 11
46.358102378423126
 21
232.1
 31
1393.0
  0
SPLINE
  5
33
330
17
100
AcDbEntity
  8
0
100
AcDbSpline
 70
0
 71
8
 72
46
 73
37
 74
0
 40
0.0
 40
0.0
 40
0.0
 40
0.0
 40
0.0
 40
0.0
 40
0.0
 40
0.0
 40
0.0
 40
0.18069268911374772
 40
0.18069268911374772
 40
0.18069268911374772
 40
0.18069268911374772
 40
0.18069268911374772
 40
0.18069268911374772
 40
0.18069268911374772
 40
0.5949874241448789
 40
0.5949874241448789
 40
0.5949874241448789
 40
0.5949874241448789
 40
0.5949874241448789
 40
0.5949874241448789
 40
0.5949874241448789
 40
0.7730179131902737
 40
0.7730179131902737
 40
0.7730179131902737
 40
0.7730179131902737
 40
0.7730179131902737
 40
0.7730179131902737
 40
0.7730179131902737
 40
0.9733010350197548
 40
0.9733010350197548
 40
0.9733010350197548
 40
0.9733010350197548
 40
0.9733010350197548
 40
0.9733010350197548
 40
0.9733010350197548
 40
1.0
 40
1.0
 40
1.0
 40
1.0
 40
1.0
 40
1.0
 40
1.0
 40
1.0
 40
1.0
 10
53.614033089509405
 20
209.90000000071052
 30
1393.0
 10
53.47978945511007
 20
210.4343294669253
 30
1393.0
 10
53.3442510864753
 20
210.9683323052241
 30
1393.0
 10
53.20738088714551
 20
211.50199539851286
 30
1393.0
 10
53.069139360413736
 20
212.03530479443714
 30
1393.0
 10
52.92948433272825
 20
212.56824563927756
 30
1393.0
 10
52.78837062395525
 20
213.10080209913673
 30
1393.0
 10
52.64574964893184
 20
213.63295726465566
 30
1393.0
 10
52.17098934903308
 20
215.38386427315692
 30
1393.0
 10
51.832224347393954
 20
216.6007789522995
 30
1393.0
 10
51.484636975745225
 20
217.81523466651367
 30
1393.0
 10
51.12749621288278
 20
219.02695597968798
 30
1393.0
 10
50.75993727531901
 20
220.23558193608866
 30
1393.0
 10
50.38092797650725
 20
221.4406558116578
 30
1393.0
 10
49.98918951790889
 20
222.64160089641032
 30
1393.0
 10
49.40848121069584
 20
224.35163853238805
 30
1393.0
 10
49.23360556017231
 20
224.85780528615726
 30
1393.0
 10
49.058393075741634
 20
225.35621227788303
 30
1393.0
 10
48.88284515729053
 20
225.84690935935132
 30
1393.0
 10
48.70696467256788
 20
226.32995031682313
 30
1393.0
 10
48.530755957184596
 20
226.80539287103431
 30
1393.0
 10
48.35422481461375
 20
227.27329867719544
 30
1393.0
 10
47.978427600973035
 20
228.25171925624275
 30
1393.0
 10
47.77907633289054
 20
228.76024074631735
 30
1393.0
 10
47.57933139579793
 20
229.25938017911707
 30
1393.0
 10
47.37919947354996
 20
229.7492199385434
 30
1393.0
 10
47.17868725000127
 20
230.2298424084982
 30
1393.0
 10
46.977801409006396
 20
230.70132997288383
 30
1393.0
 10
46.77654863441975
 20
231.1637650156029
 30
1393.0
 10
46.54805936097972
 20
231.67767956557407
 30
1393.0
 10
46.52111876201976
 20
231.73810013481787
 30
1393.0
 10
46.4941134335405
 20
231.79849140412324
 30
1393.0
 10
46.467042992799044
 20
231.85885314331136
 30
1393.0
 10
46.439907053953036
 20
231.91918511617595
 30
1393.0
 10
46.412705228024215
 20
231.97948708046533
 30
1393.0
 10
46.385437122857475
 20
232.0397587878622
 30
1393.0
 10
46.358102343075295
 20
232.0999999839607
 30
1393.0
  0
LINE
  5
34
330
17
100
AcDbEntity
  8
0
100
AcDbLine
 10
28.154853052125382
 20
209.9
 30
1393.0
 11
53.61403308668129
 21
209.9
 31
1393.0
  0
SPLINE
  5
35
330
17
100
AcDbEntity
  8
0
100
AcDbSpline
 70
0
 71
1
 72
4
 73
2
 74
0
 40
0.0
 40
0.0
 40
1.0
 40
1.0
 10
28.1548530521273
 20
209.90000060000008
 30
1393.0
 10
28.1548530521273
 20
206.09999939999994
 30
1393.0
  0
LINE
  5
36
330
17
100
AcDbEntity
  8
0
100
AcDbLine
 10
28.154853052125382
 20
206.1
 30
1393.0
 11
54.53985454471368
 21
206.1
 31
1393.0
  0
SPLINE
  5
37
330
17
100
AcDbEntity
  8
0
100
AcDbSpline
 70
0
 71
8
 72
25
 73
16
 74
0
 40
0.0
 40
0.0
 40
0.0
 40
0.0
 40
0.0
 40
0.0
 40
0.0
 40
0.0
 40
0.0
 40
0.4816839893840172
 40
0.4816839893840172
 40
0.4816839893840172
 40
0.4816839893840172
 40
0.4816839893840172
 40
0.4816839893840172
 40
0.4816839893840172
 40
1.0
 40
1.0
 40
1.0
 40
1.0
 40
1.0
 40
1.0
 40
1.0
 40
1.0
 40
1.0
 10
59.081971673265755
 20
183.90000000130237
 30
1393.0
 10
58.84189328800163
 20
185.24327247539878
 30
1393.0
 10
58.597939544735226
 20
186.58585155659878
 30
1393.0
 10
58.34998059936106
 20
187.92769998790897
 30
1393.0
 10
58.09787406879282
 20
189.26877648554077
 30
1393.0
 10
57.8414630720541
 20
190.60903538190496
 30
1393.0
 10
57.58057369956524
 20
191.9484261646117
 30
1393.0
 10
57.315011633612365
 20
193.2868928600567
 30
1393.0
 10
56.753535652288974
 20
196.06356881274507
 30
1393.0
 10
56.456857300858644
 20
197.5015825660583
 30
1393.0
 10
56.154246374129954
 20
198.93835583125218
 30
1393.0
 10
55.845394125209154
 20
200.37380901451604
 30
1393.0
 10
55.52995468081049
 20
201.80784051147165
 30
1393.0
 10
55.207534258557615
 20
203.24032409592425
 30
1393.0
 10
54.877679421883144
 20
204.67110609551753
 30
1393.0
 10
54.53985452489048
 20
206.09999999531323
 30
1393.0
  0
LINE
  5
38
330
17
100
AcDbEntity
  8
0
100
AcDbLine
 10
28.154853052125382
 20
183.9
 30
1393.0
 11
59.08197166597898
 21
183.9
 31
1393.0
  0
SPLINE
  5
39
330
17
100
AcDbEntity
  8
0
100
AcDbSpline
 70
0
 71
1
 72
4
 73
2
 74
0
 40
0.0
 40
0.0
 40
1.0
 40
1.0
 10
28.1548530521273
 20
183.90000060000014
 30
1393.0
 10
28.1548530521273
 20
180.0999993999999
 30
1393.0
  0
LINE
  5
3A
330
17
100
AcDbEntity
  8
0
100
AcDbLine
 10
28.154853052125382
 20
180.1
 30
1393.0
 11
59.74747078279089
 21
180.1
 31
1393.0
  0
SPLINE
  5
3B
330
17
100
AcDbEntity
  8
0
100
AcDbSpline
 70
0
 71
8
 72
25
 73
16
 74
0
 40
0.0
 40
0.0
 40
0.0
 40
0.0
 40
0.0
 40
0.0
 40
0.0
 40
0.0
 40
0.0
 40
0.6534054594760147
 40
0.6534054594760147
 40
0.6534054594760147
 40
0.6534054594760147
 40
0.6534054594760147
 40
0.6534054594760147
 40
0.6534054594760147
 40
1.0
 40
1.0
 40
1.0
 40
1.0
 40
1.0
 40
1.0
 40
1.0
 40
1.0
 40
1.0
 10
63.1606486135932
 20
157.8999999976101
 30
1393.0
 10
62.91059769481258
 20
159.71747534025042
 30
1393.0
 10
62.655603375815005
 20
161.53426800579484
 30
1393.0
 10
62.39555838027724
 20
163.35034680015505
 30
1393.0
 10
62.13034247616598
 20
165.16567790844172
 30
1393.0
 10
61.85982082273354
 20
166.98022467381784
 30
1393.0
 10
61.58384184904365
 20
168.79394731454371
 30
1393.0
 10
61.3022344695966
 20
170.60680255314853
 30
1393.0
 10
60.86233892658964
 20
173.37987482464717
 30
1393.0
 10
60.7082360378524
 20
174.34074378968455
 30
1393.0
 10
60.55246659595498
 20
175.30134314939278
 30
1393.0
 10
60.39499979941281
 20
176.2616652765059
 30
1393.0
 10
60.23580290504423
 20
177.22170174023483
 30
1393.0
 10
60.074841032240094
 20
178.1814432701716
 30
1393.0
 10
59.9120769437562
 20
179.14087971611775
 30
1393.0
 10
59.74747077703961
 20
180.09999999901294
 30
1393.0
  0
LINE
  5
3C
330
17
100
AcDbEntity
  8
0
100
AcDbLine
 10
28.154853052125382
 20
157.9
 30
1393.0
 11
63.16064863096419
 21
157.9
 31
1393.0
  0
SPLINE
  5
3D
330
17
100
AcDbEntity
  8
0
100
AcDbSpline
 70
0
 71
1
 72
4
 73
2
 74
0
 40
0.0
 40
0.0
 40
1.0
 40
1.0
 10
28.154853052127297
 20
157.90000060000042
 30
1393.0
 10
28.154853052127297
 20
154.09999939999918
 30
1393.0
  0
LINE
  5
3E
330
17
100
AcDbEntity
  8
0
100
AcDbLine
 10
28.154853052125382
 20
154.1
 30
1393.0
 11
63.673937785163254
 21
154.1
 31
1393.0
  0
SPLINE
  5
3F
330
17
100
AcDbEntity
  8
0
100
AcDbSpline
 70
0
 71
8
 72
18
 73
9
 74
0
 40
0.0
 40
0.0
 40
0.0
 40
0.0
 40
0.0
 40
0.0
 40
0.0
 40
0.0
 40
0.0
 40
1.0
 40
1.0
 40
1.0
 40
1.0
 40
1.0
 40
1.0
 40
1.0
 40
1.0
 40
1.0
 10
66.31598707155821
 20
131.89999999993051
 30
1393.0
 10
66.02146875387749
 20
134.67909629651993
 30
1393.0
 10
65.71701910752854
 20
137.45713481911653
 30
1393.0
 10
65.40254857196523
 20
140.2340718885241
 30
1393.0
 10
65.07793027485567
 20
143.0098541275592
 30
1393.0
 10
64.74299751584367
 20
145.78441810173106
 30
1393.0
 10
64.39753919602401
 20
148.55768968163625
 30
1393.0
 10
64.04129365086197
 20
151.32958320149626
 30
1393.0
 10
63.67393779464629
 20
154.1000000012575
 30
1393.0
  0
LINE
  5
40
330
17
100
AcDbEntity
  8
0
100
AcDbLine
 10
28.154853052125382
 20
131.9
 30
1393.0
 11
66.31598707221386
 21
131.9
 31
1393.0
  0
SPLINE
  5
41
330
17
100
AcDbEntity
  8
0
100
AcDbSpline
 70
0
 71
1
 72
4
 73
2
 74
0
 40
0.0
 40
0.0
 40
1.0
 40
1.0
 10
28.1548530521273
 20
131.90000060000256
 30
1393.0
 10
28.1548530521273
 20
128.09999939999764
 30
1393.0
  0
LINE
  5
42
330
17
100
AcDbEntity
  8
0
100
AcDbLine
 10
28.154853052125382
 20
128.1
 30
1393.0
 11
66.71050949484354
 21
128.1
 31
1393.0
  0
SPLINE
  5
43
330
17
100
AcDbEntity
  8
0
100
AcDbSpline
 70
0
 71
8
 72
39
 73
30
 74
0
 40
0.0
 40
0.0
 40
0.0
 40
0.0
 40
0.0
 40
0.0
 40
0.0
 40
0.0
 40
0.0
 40
0.15784137428172246
 40
0.15784137428172246
 40
0.15784137428172246
 40
0.15784137428172246
 40
0.15784137428172246
 40
0.15784137428172246
 40
0.15784137428172246
 40
0.5082063424992297
 40
0.5082063424992297
 40
0.5082063424992297
 40
0.5082063424992297
 40
0.5082063424992297
 40
0.5082063424992297
 40
0.5082063424992297
 40
0.8147756896895725
 40
0.8147756896895725
 40
0.8147756896895725
 40
0.8147756896895725
 40
0.8147756896895725
 40
0.8147756896895725
 40
0.8147756896895725
 40
1.0
 40
1.0
 40
1.0
 40
1.0
 40
1.0
 40
1.0
 40
1.0
 40
1.0
 40
1.0
 10
68.69791961881502
 20
105.90000000260163
 30
1392.9999999999995
 10
68.66365957538862
 20
106.33997546096013
 30
1392.9999999999995
 10
68.62917880566653
 20
106.77993372581591
 30
1392.9999999999995
 10
68.59447656775093
 20
107.21987460986803
 30
1392.9999999999995
 10
68.55955211726312
 20
107.65979792416495
 30
1392.9999999999995
 10
68.52440470732623
 20
108.09970347810318
 30
1392.9999999999995
 10
68.48903358854798
 20
108.53959107942613
 30
1392.9999999999998
 10
68.45343800900349
 20
108.97946053422285
 30
1393.0
 10
68.33810478166562
 20
110.39566161742246
 30
1393.0
 10
68.25752194378941
 20
111.37143895783291
 30
1393.0
 10
68.17586277078777
 20
112.34663672638395
 30
1393.0
 10
68.09312133285908
 20
113.32124798130128
 30
1393.0
 10
68.00929170020177
 20
114.29526578081054
 30
1393.0
 10
67.92436794301426
 20
115.26868318313724
 30
1393.0
 10
67.83834413149495
 20
116.24149324650686
 30
1393.0
 10
67.67497576464625
 20
118.06436033895304
 30
1393.0
 10
67.59789042434814
 20
118.9145613400761
 30
1393.0
 10
67.51995434244412
 20
119.76428738206754
 30
1393.0
 10
67.44116354643039
 20
120.61353381448082
 30
1393.0
 10
67.3615140638032
 20
121.46229598686944
 30
1393.0
 10
67.28100192205875
 20
122.3105692487868
 30
1393.0
 10
67.19962314869323
 20
123.1583489497863
 30
1393.0
 10
67.06768000906153
 20
124.51754440275351
 30
1393.0
 10
67.01765401727644
 20
125.02942507894161
 30
1393.0
 10
66.96729563663922
 20
125.5412723010104
 30
1393.0
 10
66.91660466729998
 20
126.05308589118015
 30
1393.0
 10
66.86558086876785
 20
126.56486566086376
 30
1393.0
 10
66.81422395980178
 20
127.07661141064868
 30
1393.0
 10
66.76253361820379
 20
127.58832293026546
 30
1393.0
 10
66.71050948052229
 20
128.0999999985439
 30
1393.0
  0
LINE
  5
44
330
17
100
AcDbEntity
  8
0
100
AcDbLine
 10
28.154853052125382
 20
105.9
 30
1393.0
 11
68.697919585404
 21
105.9
 31
1393.0
  0
SPLINE
  5
45
330
17
100
AcDbEntity
  8
0
100
AcDbSpline
 70
0
 71
1
 72
4
 73
2
 74
0
 40
0.0
 40
0.0
 40
1.0
 40
1.0
 10
28.154853052127297
 20
105.90000060000206
 30
1393.0
 10
28.1548530521273
 20
102.09999939999993
 30
1393.0
  0
LINE
  5
46
330
17
100
AcDbEntity
  8
0
100
AcDbLine
 10
28.154853052125382
 20
102.1
 30
1393.0
 11
68.9866262559433
 21
102.1
 31
1393.0
  0
SPLINE
  5
47
330
17
100
AcDbEntity
  8
0
100
AcDbSpline
 70
0
 71
8
 72
25
 73
16
 74
0
 40
0.0
 40
0.0
 40
0.0
 40
0.0
 40
0.0
 40
0.0
 40
0.0
 40
0.0
 40
0.0
 40
0.3569022172441432
 40
0.3569022172441432
 40
0.3569022172441432
 40
0.3569022172441432
 40
0.3569022172441432
 40
0.3569022172441432
 40
0.3569022172441432
 40
1.0
 40
1.0
 40
1.0
 40
1.0
 40
1.0
 40
1.0
 40
1.0
 40
1.0
 40
1.0
 10
70.40031039535282
 20
79.90000000009522
 30
1393.0
 10
70.34707583650581
 20
80.8909947787029
 30
1393.0
 10
70.29288157880283
 20
81.88193829829713
 30
1393.0
 10
70.23772011793007
 20
82.8728291498099
 30
1393.0
 10
70.18158389729285
 20
83.86366590092229
 30
1393.0
 10
70.12446530700598
 20
84.85444709603647
 30
1393.0
 10
70.06635668286172
 20
85.8451712562472
 30
1393.0
 10
70.00725030527471
 20
86.83583687931252
 30
1393.0
 10
69.83882348087317
 20
89.6114026013758
 30
1393.0
 10
69.72724400861391
 20
91.39616448823116
 30
1393.0
 10
69.61235455188209
 20
93.18071843441473
 30
1393.0
 10
69.49410910766048
 20
94.96505433590883
 30
1393.0
 10
69.37246108062187
 20
96.74916164911087
 30
1393.0
 10
69.24736326429358
 20
98.53302938949113
 30
1393.0
 10
69.11876782222214
 20
100.31664613025035
 30
1393.0
 10
68.98662626913784
 20
102.10000000097767
 30
1393.0
  0
LINE
  5
48
330
17
100
AcDbEntity
  8
0
100
AcDbLine
 10
28.154853052125382
 20
79.9
 30
1393.0
 11
70.40031039357942
 21
79.9
 31
1393.0
  0
SPLINE
  5
49
330
17
100
AcDbEntity
  8
0
100
AcDbSpline
 70
0
 71
1
 72
4
 73
2
 74
0
 40
0.0
 40
0.0
 40
1.0
 40
1.0
 10
28.154853052127297
 20
79.90000060000001
 30
1393.0
 10
28.154853052127297
 20
76.09999939999999
 30
1393.0
  0
LINE
  5
4A
330
17
100
AcDbEntity
  8
0
100
AcDbLine
 10
28.154853052125382
 20
76.1
 30
1393.0
 11
70.59829623288728
 21
76.1
 31
1393.0
  0
SPLINE
  5
4B
330
17
100
AcDbEntity
  8
0
100
AcDbSpline
 70
0
 71
8
 72
18
 73
9
 74
0
 40
0.0
 40
0.0
 40
0.0
 40
0.0
 40
0.0
 40
0.0
 40
0.0
 40
0.0
 40
0.0
 40
1.0
 40
1.0
 40
1.0
 40
1.0
 40
1.0
 40
1.0
 40
1.0
 40
1.0
 40
1.0
 10
71.52196871792052
 20
53.89999999983243
 30
1393.0000000000002
 10
71.43004290203143
 20
56.67591819278741
 30
1393.0
 10
71.33169564344097
 20
59.45162275783427
 30
1393.0
 10
71.22677900854308
 20
62.22709110027792
 30
1393.0
 10
71.11514259074634
 20
65.00229921918293
 30
1393.0
 10
70.99663336836201
 20
67.77722170351883
 30
1393.0
 10
70.8710955553355
 20
70.55183172808968
 30
1393.0
 10
70.73837044333713
 20
73.32610104920417
 30
1393.0
 10
70.5982962337281
 20
76.10000000004246
 30
1393.0
  0
LINE
  5
4C
330
17
100
AcDbEntity
  8
0
100
AcDbLine
 10
28.154853052125382
 20
53.9
 30
1393.0
 11
71.52196872298184
 21
53.9
 31
1393.0
  0
SPLINE
  5
4D
330
17
100
AcDbEntity
  8
0
100
AcDbSpline
 70
0
 71
1
 72
4
 73
2
 74
0
 40
0.0
 40
0.0
 40
1.0
 40
1.0
 10
28.154853052127297
 20
53.90000060000026
 30
1393.0
 10
28.154853052127297
 20
50.09999939999937
 30
1393.0
  0
LINE
  5
4E
330
17
100
AcDbEntity
  8
0
100
AcDbLine
 10
28.154853052125382
 20
50.1
 30
1393.0
 11
71.64257911906115
 21
50.1
 31
1393.0
  0
SPLINE
  5
4F
330
17
100
AcDbEntity
  8
0
100
AcDbSpline
 70
0
 71
8
 72
18
 73
9
 74
0
 40
0.0
 40
0.0
 40
0.0
 40
0.0
 40
0.0
 40
0.0
 40
0.0
 40
0.0
 40
0.0
 40
1.0
 40
1.0
 40
1.0
 40
1.0
 40
1.0
 40
1.0
 40
1.0
 40
1.0
 40
1.0
 10
72.14939942454946
 20
27.899999999636798
 30
1393.0
 10
72.10598757956292
 20
30.675405558104046
 30
1393.0
 10
72.05715339323271
 20
33.450727491405104
 30
1393.0
 10
72.00276180598964
 20
36.22595141141162
 30
1393.0
 10
71.94267590585652
 20
39.00106154369327
 30
1393.0
 10
71.87675680574091
 20
41.77604072425043
 30
1393.0
 10
71.80486351705895
 20
44.55087039613419
 30
1393.0
 10
71.72685281821263
 20
47.32553060590983
 30
1393.0
 10
71.64257911644265
 20
50.09999999992044
 30
1393.0
  0
LINE
  5
50
330
17
100
AcDbEntity
  8
0
100
AcDbLine
 10
28.154853052125382
 20
27.9
 30
1393.0
 11
72.14939944777069
 21
27.9
 31
1393.0
  0
SPLINE
  5
51
330
17
100
AcDbEntity
  8
0
100
AcDbSpline
 70
0
 71
1
 72
4
 73
2
 74
0
 40
0.0
 40
0.0
 40
1.0
 40
1.0
 10
28.154853052127297
 20
27.900000600000002
 30
1393.0
 10
28.154853052127297
 20
24.099999399999998
 30
1393.0
  0
LINE
  5
52
330
17
100
AcDbEntity
  8
0
100
AcDbLine
 10
28.154853052125382
 20
24.1
 30
1393.0
 11
72.20442740980577
 21
24.1
 31
1393.0
  0
SPLINE
  5
53
330
17
100
AcDbEntity
  8
0
100
AcDbSpline
 70
0
 71
8
 72
18
 73
9
 74
0
 40
0.0
 40
0.0
 40
0.0
 40
0.0
 40
0.0
 40
0.0
 40
0.0
 40
0.0
 40
0.0
 40
1.0
 40
1.0
 40
1.0
 40
1.0
 40
1.0
 40
1.0
 40
1.0
 40
1.0
 40
1.0
 10
72.35980578186239
 20
1.9000000000002357
 30
1393.0
 10
72.35704553346302
 20
4.6750944939394685
 30
1393.0
 10
72.34977969925279
 20
7.450178043335773
 30
1393.0
 10
72.33788251704067
 20
10.225244337313828
 30
1393.0
 10
72.32122692748634
 20
13.00028569465475
 30
1393.0
 10
72.29968445833961
 20
15.775293060749437
 30
1393.0
 10
72.27312510847221
 20
18.550256004541204
 30
1393.0
 10
72.24141723022638
 20
21.32516271541418
 30
1393.0
 10
72.20442740860506
 20
24.099999999983957
 30
1393.0
  0
LINE
  5
54
330
17
100
AcDbEntity
  8
0
100
AcDbLine
 10
28.154853052125382
 20
1.9
 30
1393.0
 11
72.35980578162733
 21
1.9
 31
1393.0
  0
SPLINE
  5
55
330
17
100
AcDbEntity
  8
0
100
AcDbSpline
 70
0
 71
1
 72
4
 73
2
 74
0
 40
0.0
 40
0.0
 40
0.9999993684216398
 40
0.9999993684216398
 10
28.1548530521273
 20
1.9000006000000558
 30
1393.0
 10
28.1548530521273
 20
-6.553790374438061e-17
 30
1393.0
  0
SPLINE
  5
56
330
17
100
AcDbEntity
  8
0
100
AcDbSpline
 70
0
 71
1
 72
4
 73
2
 74
0
 40
0.0
 40
0.0
 40
1.0
 40
1.0
 10
28.1548530521273
 20
-1.9000006000000011
 30
1393.0
 10
28.154853052127297
 20
1.2000000211287443e-06
 30
1393.0
  0
LINE
  5
57
330
17
100
AcDbEntity
  8
0
100
AcDbLine
 10
28.154853052125365
 20
-1.9
 30
1393.0
 11
72.35991580197323
 21
-1.9
 31
1393.0
  0
SPLINE
  5
58
330
17
100
AcDbEntity
  8
0
100
AcDbSpline
 70
0
 71
8
 72
18
 73
9
 74
0
 40
0.0
 40
0.0
 40
0.0
 40
0.0
 40
0.0
 40
0.0
 40
0.0
 40
0.0
 40
0.0
 40
1.0
 40
1.0
 40
1.0
 40
1.0
 40
1.0
 40
1.0
 40
1.0
 40
1.0
 40
1.0
 10
72.20576923920606
 20
-24.09999999971889
 30
1393.0
 10
72.24261680261398
 20
-21.32517851919641
 30
1393.0
 10
72.27417757632755
 20
-18.5502868255837
 30
1393.0
 10
72.30058574364165
 20
-15.775336620748682
 30
1393.0
 10
72.32197370658015
 20
-13.000337924439322
 30
1393.0
 10
72.33847220434211
 20
-10.225299078864378
 30
1393.0
 10
72.35021042986547
 20
-7.450226753190672
 30
1393.0
 10
72.35731614615166
 20
-4.675125948031619
 30
1393.0
 10
72.35991580399585
 20
-1.9000000000018964
 30
1393.0
  0
LINE
  5
59
330
17
100
AcDbEntity
  8
0
100
AcDbLine
 10
28.154853052125365
 20
-24.1
 30
1393.0
 11
72.20576926037485
 21
-24.1
 31
1393.0
  0
SPLINE
  5
5A
330
17
100
AcDbEntity
  8
0
100
AcDbSpline
 70
0
 71
1
 72
4
 73
2
 74
0
 40
0.0
 40
0.0
 40
1.0
 40
1.0
 10
28.1548530521273
 20
-27.900000600000034
 30
1393.0
 10
28.154853052127297
 20
-24.099999399999938
 30
1393.0
  0
LINE
  5
5B
330
17
100
AcDbEntity
  8
0
100
AcDbLine
 10
28.154853052125365
 20
-27.9
 30
1393.0
 11
72.15093154688068
 21
-27.9
 31
1393.0
  0
SPLINE
  5
5C
330
17
100
AcDbEntity
  8
0
100
AcDbSpline
 70
0
 71
8
 72
18
 73
9
 74
0
 40
0.0
 40
0.0
 40
0.0
 40
0.0
 40
0.0
 40
0.0
 40
0.0
 40
0.0
 40
0.0
 40
1.0
 40
1.0
 40
1.0
 40
1.0
 40
1.0
 40
1.0
 40
1.0
 40
1.0
 40
1.0
 10
71.6449947381694
 20
-50.099999999143584
 30
1393.0
 10
71.72918901432459
 20
-47.32551908892157
 30
1393.0
 10
71.80710982103612
 20
-44.55085085366133
 30
1393.0
 10
71.87890355144843
 20
-41.77601692813534
 30
1393.0
 10
71.94471423408409
 20
-39.0010372407222
 30
1393.0
 10
72.00468366483315
 20
-36.22593001859509
 30
1393.0
 10
72.05895153319996
 20
-33.45071179265116
 30
1393.0
 10
72.10765554445386
 20
-30.675397402256557
 30
1393.0
 10
72.150931539331
 20
-27.89999999988227
 30
1393.0
  0
LINE
  5
5D
330
17
100
AcDbEntity
  8
0
100
AcDbLine
 10
28.154853052125365
 20
-50.1
 30
1393.0
 11
71.64499476639222
 21
-50.1
 31
1393.0
  0
SPLINE
  5
5E
330
17
100
AcDbEntity
  8
0
100
AcDbSpline
 70
0
 71
1
 72
4
 73
2
 74
0
 40
0.0
 40
0.0
 40
1.0
 40
1.0
 10
28.1548530521273
 20
-53.9000006
 30
1393.0
 10
28.1548530521273
 20
-50.0999994
 30
1393.0
  0
LINE
  5
5F
330
17
100
AcDbEntity
  8
0
100
AcDbLine
 10
28.154853052125365
 20
-53.9
 30
1393.0
 11
71.52448490821011
 21
-53.9
 31
1393.0
  0
SPLINE
  5
60
330
17
100
AcDbEntity
  8
0
100
AcDbSpline
 70
0
 71
8
 72
18
 73
9
 74
0
 40
0.0
 40
0.0
 40
0.0
 40
0.0
 40
0.0
 40
0.0
 40
0.0
 40
0.0
 40
0.0
 40
1.0
 40
1.0
 40
1.0
 40
1.0
 40
1.0
 40
1.0
 40
1.0
 40
1.0
 40
1.0
 10
70.60099247729327
 20
-76.09999999950087
 30
1393.0
 10
70.74109399551679
 20
-73.32610603260068
 30
1393.0
 10
70.87383077096577
 20
-70.5518368554159
 30
1393.0
 10
70.99936526482824
 20
-67.77722423404927
 30
1393.0
 10
71.1178568897565
 20
-65.00229819709196
 30
1393.0
 10
71.22946216930747
 20
-62.22708704205118
 30
1393.0
 10
71.3343348877463
 20
-59.451617341341446
 30
1393.0
 10
71.4326262318669
 20
-56.67591394791472
 30
1393.0
 10
71.52448492648313
 20
-53.90000000060468
 30
1393.0
  0
LINE
  5
61
330
17
100
AcDbEntity
  8
0
100
AcDbLine
 10
28.154853052125365
 20
-76.1
 30
1393.0
 11
70.60099248717539
 21
-76.1
 31
1393.0
  0
SPLINE
  5
62
330
17
100
AcDbEntity
  8
0
100
AcDbSpline
 70
0
 71
1
 72
4
 73
2
 74
0
 40
0.0
 40
0.0
 40
1.0
 40
1.0
 10
28.1548530521273
 20
-79.90000060000018
 30
1393.0
 10
28.154853052127297
 20
-76.09999939999999
 30
1393.0
  0
LINE
  5
63
330
17
100
AcDbEntity
  8
0
100
AcDbLine
 10
28.154853052125365
 20
-79.9
 30
1393.0
 11
70.40295559323921
 21
-79.9
 31
1393.0
  0
SPLINE
  5
64
330
17
100
AcDbEntity
  8
0
100
AcDbSpline
 70
0
 71
8
 72
18
 73
9
 74
0
 40
0.0
 40
0.0
 40
0.0
 40
0.0
 40
0.0
 40
0.0
 40
0.0
 40
0.0
 40
0.0
 40
1.0
 40
1.0
 40
1.0
 40
1.0
 40
1.0
 40
1.0
 40
1.0
 40
1.0
 40
1.0
 10
68.98837675779558
 20
-102.10000000148113
 30
1393.0
 10
69.19403467977943
 20
-99.32694688084065
 30
1393.0
 10
69.39109656124165
 20
-96.55325755081792
 30
1393.0
 10
69.57974574154076
 20
-93.77897420751914
 30
1393.0
 10
69.76016165533458
 20
-91.00413726697067
 30
1393.0
 10
69.93252003391393
 20
-88.22878537344053
 30
1393.0
 10
70.09699309292617
 20
-85.45295540714278
 30
1393.0
 10
70.25374970815619
 20
-82.67668249140064
 30
1393.0
 10
70.40295558103207
 20
-79.89999999934405
 30
1393.0
  0
LINE
  5
65
330
17
100
AcDbEntity
  8
0
100
AcDbLine
 10
28.154853052125365
 20
-102.1
 30
1393.0
 11
68.98837673782391
 21
-102.1
 31
1393.0
  0
SPLINE
  5
66
330
17
100
AcDbEntity
  8
0
100
AcDbSpline
 70
0
 71
1
 72
4
 73
2
 74
0
 40
0.0
 40
0.0
 40
1.0
 40
1.0
 10
28.1548530521273
 20
-105.90000060000003
 30
1393.0
 10
28.154853052127297
 20
-102.09999939999999
 30
1393.0
  0
LINE
  5
67
330
17
100
AcDbEntity
  8
0
100
AcDbLine
 10
28.154853052125365
 20
-105.9
 30
1393.0
 11
68.69940181521677
 21
-105.9
 31
1393.0
  0
SPLINE
  5
68
330
17
100
AcDbEntity
  8
0
100
AcDbSpline
 70
0
 71
8
 72
32
 73
23
 74
0
 40
0.0
 40
0.0
 40
0.0
 40
0.0
 40
0.0
 40
0.0
 40
0.0
 40
0.0
 40
0.0
 40
0.09738658104460593
 40
0.09738658104460593
 40
0.09738658104460593
 40
0.09738658104460593
 40
0.09738658104460593
 40
0.09738658104460593
 40
0.09738658104460593
 40
0.4031188660276976
 40
0.4031188660276976
 40
0.4031188660276976
 40
0.4031188660276976
 40
0.4031188660276976
 40
0.4031188660276976
 40
0.4031188660276976
 40
1.0
 40
1.0
 40
1.0
 40
1.0
 40
1.0
 40
1.0
 40
1.0
 40
1.0
 40
1.0
 10
66.70962502408567
 20
-128.09999999986275
 30
1393.0
 10
66.7370714177321
 20
-127.8304243147154
 30
1393.0
 10
66.76443102480094
 20
-127.56077910352312
 30
1393.0
 10
66.79170365847088
 20
-127.29106602232005
 30
1393.0
 10
66.81888913192059
 20
-127.0212867271403
 30
1393.0
 10
66.84598725832878
 20
-126.75144287401803
 30
1393.0
 10
66.87299785087413
 20
-126.48153611898736
 30
1393.0
 10
66.89992072273532
 20
-126.21156811808247
 30
1393.0
 10
67.01100050687947
 20
-125.09382463628323
 30
1393.0
 10
67.09432842221139
 20
-124.24601760433426
 30
1393.0
 10
67.17674120010524
 20
-123.39812077623918
 30
1393.0
 10
67.25824182271144
 20
-122.55013559863407
 30
1393.0
 10
67.33883448731233
 20
-121.70206362004251
 30
1393.0
 10
67.41852460632224
 20
-120.8539064908756
 30
1393.0
 10
67.49731880728748
 20
-120.00566596343201
 30
1393.0
 10
67.72732106036402
 20
-117.50116472829063
 30
1393.0
 10
67.87602633877687
 20
-115.84468261230846
 30
1393.0
 10
68.02138347696881
 20
-114.18790804827778
 30
1393.0
 10
68.163434598252
 20
-112.53085130916148
 30
1393.0
 10
68.30222125844702
 20
-110.87352243731519
 30
1393.0
 10
68.43778446318265
 20
-109.21593124520996
 30
1393.0
 10
68.5701646845009
 20
-107.55808731612333
 30
1393.0
 10
68.69940187681273
 20
-105.90000000480102
 30
1393.0
  0
LINE
  5
69
330
17
100
AcDbEntity
  8
0
100
AcDbLine
 10
28.154853052125365
 20
-128.1
 30
1393.0
 11
66.7096250254332
 21
-128.1
 31
1393.0
  0
SPLINE
  5
6A
330
17
100
AcDbEntity
  8
0
100
AcDbSpline
 70
0
 71
1
 72
4
 73
2
 74
0
 40
0.0
 40
0.0
 40
1.0
 40
1.0
 10
28.154853052127297
 20
-131.9000006
 30
1393.0
 10
28.1548530521273
 20
-128.09999939999992
 30
1393.0
  0
LINE
  5
6B
330
17
100
AcDbEntity
  8
0
100
AcDbLine
 10
28.154853052125365
 20
-131.9
 30
1393.0
 11
66.31455179739254
 21
-131.9
 31
1393.0
  0
SPLINE
  5
6C
330
17
100
AcDbEntity
  8
0
100
AcDbSpline
 70
0
 71
8
 72
32
 73
23
 74
0
 40
0.0
 40
0.0
 40
0.0
 40
0.0
 40
0.0
 40
0.0
 40
0.0
 40
0.0
 40
0.0
 40
0.11072102096117636
 40
0.11072102096117636
 40
0.11072102096117636
 40
0.11072102096117636
 40
0.11072102096117636
 40
0.11072102096117636
 40
0.11072102096117636
 40
0.9212219883522467
 40
0.9212219883522467
 40
0.9212219883522467
 40
0.9212219883522467
 40
0.9212219883522467
 40
0.9212219883522467
 40
0.9212219883522467
 40
1.0
 40
1.0
 40
1.0
 40
1.0
 40
1.0
 40
1.0
 40
1.0
 40
1.0
 40
1.0
 10
63.66858769450096
 20
-154.1000000014027
 30
1393.0
 10
63.709319299308376
 20
-153.79328134859264
 30
1393.0
 10
63.74991457034027
 20
-153.4865444511992
 30
1393.0
 10
63.790373946248145
 20
-153.17978942330123
 30
1393.0
 10
63.83069785667022
 20
-152.87301637577383
 30
1393.0
 10
63.87088672243718
 20
-152.56622541632115
 30
1393.0
 10
63.91094095577668
 20
-152.25941664950932
 30
1393.0
 10
63.95086096051844
 20
-151.9525901767994
 30
1393.0
 10
64.28189020827027
 20
-149.39958342849454
 30
1393.0
 10
64.5659601486216
 20
-147.15249040868983
 30
1393.0
 10
64.84301036531608
 20
-144.9045131837338
 30
1393.0
 10
65.11317059110428
 20
-142.6556937180859
 30
1393.0
 10
65.37654887046186
 20
-140.40607003785377
 30
1393.0
 10
65.63323355052438
 20
-138.1556764745498
 30
1393.0
 10
65.88329527202217
 20
-135.9045439088474
 30
1393.0
 10
66.15045574085633
 20
-133.43382824035086
 30
1393.0
 10
66.17406660352282
 20
-133.21489302754438
 30
1393.0
 10
66.19762144655107
 20
-132.99589527709173
 30
1393.0
 10
66.22112016827742
 20
-132.77683589016675
 30
1393.0
 10
66.24456266703825
 20
-132.55771576794325
 30
1393.0
 10
66.26794884116987
 20
-132.33853581159514
 30
1393.0
 10
66.29127858900864
 20
-132.1192969222962
 30
1393.0
 10
66.31455180889091
 20
-131.9000000012203
 30
1393.0
  0
LINE
  5
6D
330
17
100
AcDbEntity
  8
0
100
AcDbLine
 10
28.154853052125365
 20
-154.1
 30
1393.0
 11
63.66858768393797
 21
-154.1
 31
1393.0
  0
SPLINE
  5
6E
330
17
100
AcDbEntity
  8
0
100
AcDbSpline
 70
0
 71
1
 72
4
 73
2
 74
0
 40
0.0
 40
0.0
 40
1.0
 40
1.0
 10
28.154853052127297
 20
-157.90000060000003
 30
1393.0
 10
28.154853052127297
 20
-154.0999994
 30
1393.0
  0
LINE
  5
6F
330
17
100
AcDbEntity
  8
0
100
AcDbLine
 10
28.154853052125365
 20
-157.9
 30
1393.0
 11
63.1545331011389
 21
-157.9
 31
1393.0
  0
SPLINE
  5
70
330
17
100
AcDbEntity
  8
0
100
AcDbSpline
 70
0
 71
8
 72
18
 73
9
 74
0
 40
0.0
 40
0.0
 40
0.0
 40
0.0
 40
0.0
 40
0.0
 40
0.0
 40
0.0
 40
0.0
 40
1.0
 40
1.0
 40
1.0
 40
1.0
 40
1.0
 40
1.0
 40
1.0
 40
1.0
 40
1.0
 10
59.73657003793284
 20
-180.09999999964975
 30
1393.0
 10
60.21210507866829
 20
-177.33274723831354
 30
1393.0
 10
60.672306558514194
 20
-174.56286047592093
 30
1393.0
 10
61.11813097792641
 20
-171.79059461902546
 30
1393.0
 10
61.550349789427486
 20
-169.01616347430766
 30
1393.0
 10
61.969602251227705
 20
-166.23974800425762
 30
1393.0
 10
62.37642608340383
 20
-163.46150109360676
 30
1393.0
 10
62.77127511230471
 20
-160.68155029198843
 30
1393.0
 10
63.15453308885277
 20
-157.8999999983072
 30
1393.0
  0
LINE
  5
71
330
17
100
AcDbEntity
  8
0
100
AcDbLine
 10
28.154853052125365
 20
-180.1
 30
1393.0
 11
59.73657003997103
 21
-180.1
 31
1393.0
  0
SPLINE
  5
72
330
17
100
AcDbEntity
  8
0
100
AcDbSpline
 70
0
 71
1
 72
4
 73
2
 74
0
 40
0.0
 40
0.0
 40
1.0
 40
1.0
 10
28.154853052127297
 20
-183.9000006000001
 30
1393.0
 10
28.1548530521273
 20
-180.09999939999994
 30
1393.0
  0
LINE
  5
73
330
17
100
AcDbEntity
  8
0
100
AcDbLine
 10
28.154853052125365
 20
-183.9
 30
1393.0
 11
59.0702290165555
 21
-183.9
 31
1393.0
  0
SPLINE
  5
74
330
17
100
AcDbEntity
  8
0
100
AcDbSpline
 70
0
 71
8
 72
18
 73
9
 74
0
 40
0.0
 40
0.0
 40
0.0
 40
0.0
 40
0.0
 40
0.0
 40
0.0
 40
0.0
 40
0.0
 40
1.0
 40
1.0
 40
1.0
 40
1.0
 40
1.0
 40
1.0
 40
1.0
 40
1.0
 40
1.0
 10
54.52349006472558
 20
-206.10000000405023
 30
1393.0
 10
55.1757665594571
 20
-203.34320043928884
 30
1393.0
 10
55.79840831175523
 20
-200.5793844746487
 30
1393.0
 10
56.395277515992746
 20
-197.80979137097842
 30
1393.0
 10
56.9690658016845
 20
-195.03532184651164
 30
1393.0
 10
57.52190361330911
 20
-192.25666924804446
 30
1393.0
 10
58.05547850264726
 20
-189.47434461186586
 30
1393.0
 10
58.571195306278824
 20
-186.6887121168772
 30
1393.0
 10
59.07022897518583
 20
-183.899999992597
 30
1393.0
  0
LINE
  5
75
330
17
100
AcDbEntity
  8
0
100
AcDbLine
 10
28.154853052125365
 20
-206.1
 30
1393.0
 11
54.52349004760749
 21
-206.1
 31
1393.0
  0
SPLINE
  5
76
330
17
100
AcDbEntity
  8
0
100
AcDbSpline
 70
0
 71
1
 72
4
 73
2
 74
0
 40
0.0
 40
0.0
 40
1.0
 40
1.0
 10
28.154853052127297
 20
-209.90000060000008
 30
1393.0
 10
28.1548530521273
 20
-206.09999939999992
 30
1393.0
  0
LINE
  5
77
330
17
100
AcDbEntity
  8
0
100
AcDbLine
 10
28.154853052125365
 20
-209.9
 30
1393.0
 11
53.5970063863045
 21
-209.9
 31
1393.0
  0
SPLINE
  5
78
330
17
100
AcDbEntity
  8
0
100
AcDbSpline
 70
0
 71
8
 72
39
 73
30
 74
0
 40
0.0
 40
0.0
 40
0.0
 40
0.0
 40
0.0
 40
0.0
 40
0.0
 40
0.0
 40
0.0
 40
0.17250419538564982
 40
0.17250419538564982
 40
0.17250419538564982
 40
0.17250419538564982
 40
0.17250419538564982
 40
0.17250419538564982
 40
0.17250419538564982
 40
0.34948289251780656
 40
0.34948289251780656
 40
0.34948289251780656
 40
0.34948289251780656
 40
0.34948289251780656
 40
0.34948289251780656
 40
0.34948289251780656
 40
0.4869409863357257
 40
0.4869409863357257
 40
0.4869409863357257
 40
0.4869409863357257
 40
0.4869409863357257
 40
0.4869409863357257
 40
0.4869409863357257
 40
1.0
 40
1.0
 40
1.0
 40
1.0
 40
1.0
 40
1.0
 40
1.0
 40
1.0
 40
1.0
 10
46.33995184138158
 20
-232.1000000007266
 30
1393.0
 10
46.533727282074054
 20
-231.67280680143466
 30
1393.0
 10
46.724149147644525
 20
-231.24409410038896
 30
1393.0
 10
46.911354242010454
 20
-230.8139626827287
 30
1393.0
 10
47.095470376214294
 20
-230.38250154994074
 30
1393.0
 10
47.27661768587333
 20
-229.94978855636376
 30
1393.0
 10
47.454909605726726
 20
-229.51589088184681
 30
1393.0
 10
47.63045369300232
 20
-229.0808654361452
 30
1393.0
 10
47.98073602680799
 20
-228.19734120164213
 30
1393.0
 10
48.15781486206101
 20
-227.74253113466375
 30
1393.0
 10
48.33458438188977
 20
-227.28027121672395
 30
1393.0
 10
48.5110399710991
 20
-226.8105035748447
 30
1393.0
 10
48.68717701449368
 20
-226.33317033604806
 30
1393.0
 10
48.86299089687813
 20
-225.84821362735653
 30
1393.0
 10
49.03847700305701
 20
-225.35557557579295
 30
1393.0
 10
49.3496713608535
 20
-224.4665588479092
 30
1393.0
 10
49.484070579880566
 20
-224.07734420114184
 30
1393.0
 10
49.61688765340476
 20
-223.68758377409253
 30
1393.0
 10
49.74817955963145
 20
-223.29730528748814
 30
1393.0
 10
49.87800097648264
 20
-222.9065347767686
 30
1393.0
 10
50.006404281596936
 20
-222.51529659208686
 30
1393.0
 10
50.13343955232958
 20
-222.12361339830844
 30
1393.0
 10
50.72838281559952
 20
-220.2679754388623
 30
1393.0
 10
51.179178884130344
 20
-218.798573374168
 30
1393.0000000000002
 10
51.61392407086557
 20
-217.324275776266
 30
1393.0000000000002
 10
52.03434957552079
 20
-215.84581507159106
 30
1393.0000000000002
 10
52.441825162535004
 20
-214.3637634044623
 30
1393.0000000000002
 10
52.83748461841106
 20
-212.8785683608696
 30
1393.0000000000002
 10
53.22227372098638
 20
-211.3905665186493
 30
1393.0000000000002
 10
53.5970064397523
 20
-209.90000001343694
 30
1393.0000000000002
  0
LINE
  5
79
330
17
100
AcDbEntity
  8
0
100
AcDbLine
 10
28.154853052125365
 20
-232.1
 30
1393.0
 11
46.339951839779836
 21
-232.1
 31
1393.0
  0
SPLINE
  5
7A
330
17
100
AcDbEntity
  8
0
100
AcDbSpline
 70
0
 71
1
 72
4
 73
2
 74
0
 40
0.0
 40
0.0
 40
1.0
 40
1.0
 10
28.1548530521273
 20
-235.90000060000008
 30
1393.0
 10
28.154853052127297
 20
-232.09999939999992
 30
1393.0
  0
LINE
  5
7B
330
17
100
AcDbEntity
  8
0
100
AcDbLine
 10
28.154853052125365
 20
-235.9
 30
1393.0
 11
44.45495438192607
 21
-235.9
 31
1393.0
  0
SPLINE
  5
7C
330
17
100
AcDbEntity
  8
0
100
AcDbSpline
 70
0
 71
8
 72
81
 73
72
 74
0
 40
0.0
 40
0.0
 40
0.0
 40
0.0
 40
0.0
 40
0.0
 40
0.0
 40
0.0
 40
0.0
 40
0.02737167768569956
 40
0.02737167768569956
 40
0.02737167768569956
 40
0.02737167768569956
 40
0.02737167768569956
 40
0.02737167768569956
 40
0.02737167768569956
 40
0.04085299002361987
 40
0.04085299002361987
 40
0.04085299002361987
 40
0.04085299002361987
 40
0.04085299002361987
 40
0.04085299002361987
 40
0.04085299002361987
 40
0.04739846133782213
 40
0.04739846133782213
 40
0.04739846133782213
 40
0.04739846133782213
 40
0.04739846133782213
 40
0.04739846133782213
 40
0.04739846133782213
 40
0.05059051743969488
 40
0.05059051743969488
 40
0.05059051743969488
 40
0.05059051743969488
 40
0.05059051743969488
 40
0.05059051743969488
 40
0.05059051743969488
 40
0.0537825795617659
 40
0.0537825795617659
 40
0.0537825795617659
 40
0.0537825795617659
 40
0.0537825795617659
 40
0.0537825795617659
 40
0.0537825795617659
 40
0.06531227910020648
 40
0.06531227910020648
 40
0.06531227910020648
 40
0.06531227910020648
 40
0.06531227910020648
 40
0.06531227910020648
 40
0.06531227910020648
 40
0.07453468825559946
 40
0.07453468825559946
 40
0.07453468825559946
 40
0.07453468825559946
 40
0.07453468825559946
 40
0.07453468825559946
 40
0.07453468825559946
 40
0.08148473768528691
 40
0.08148473768528691
 40
0.08148473768528691
 40
0.08148473768528691
 40
0.08148473768528691
 40
0.08148473768528691
 40
0.08148473768528691
 40
0.09437927772345073
 40
0.09437927772345073
 40
0.09437927772345073
 40
0.09437927772345073
 40
0.09437927772345073
 40
0.09437927772345073
 40
0.09437927772345073
 40
0.09600043749157894
 40
0.09600043749157894
 40
0.09600043749157894
 40
0.09600043749157894
 40
0.09600043749157894
 40
0.09600043749157894
 40
0.09600043749157894
 40
0.09600043749157894
 40
0.09600043749157894
 10
8.781299943093025
 20
-224.24986085199617
 30
1393.0
 10
9.06979485884115
 20
-226.17529242422225
 30
1393.0
 10
9.45924664789311
 20
-228.08523205247405
 30
1393.0
 10
9.958050418013439
 20
-229.97307756079113
 30
1393.0
 10
10.574966737117585
 20
-231.8287690708934
 30
1393.0
 10
11.318296682233104
 20
-233.6391063415148
 30
1393.0
 10
12.194902892121512
 20
-235.38812441854012
 30
1393.0
 10
13.209154912339958
 20
-237.05749609223636
 30
1393.0
 10
14.929624861330764
 20
-239.39991932752187
 30
1393.0
 10
15.530772701227736
 20
-240.14840654090156
 30
1393.0
 10
16.165239935785355
 20
-240.86980331787728
 30
1393.0
 10
16.832672017046757
 20
-241.56142427515996
 30
1393.0
 10
17.53240811892555
 20
-242.22051949830706
 30
1393.0
 10
18.263448701605782
 20
-242.84430741372125
 30
1393.0
 10
19.024423075941986
 20
-243.43000766064995
 30
1393.0
 10
20.196698691983453
 20
-244.23941844252863
 30
1393.0
 10
20.586480537005976
 20
-244.49433852043418
 30
1393.0
 10
20.982701071728307
 20
-244.7393208634001
 30
1393.0
 10
21.38513926340912
 20
-244.97405579103847
 30
1393.0
 10
21.793554169851454
 20
-245.1982378251469
 30
1393.0
 10
22.20768463149016
 20
-245.411566238782
 30
1393.0
 10
22.627248963479143
 20
-245.61374560533204
 30
1393.0
 10
23.259057686005086
 20
-245.89750564612086
 30
1393.0
 10
23.466700422367055
 20
-245.98749434908953
 30
1393.0
 10
23.674836931104693
 20
-246.0744566460161
 30
1393.0
 10
23.88343128645799
 20
-246.15839672642062
 30
1393.0
 10
24.092447562666933
 20
-246.23931877982315
 30
1393.0
 10
24.301849833971463
 20
-246.317226995744
 30
1393.0
 10
24.511602174611504
 20
-246.3921255637035
 30
1393.0
 10
24.931735539226537
 20
-246.5359119183302
 30
1393.0
 10
25.142114706301165
 20
-246.60480591638407
 30
1393.0
 10
25.352773880491686
 20
-246.67068855371727
 30
1393.0
 10
25.56367658152691
 20
-246.73356844759869
 30
1393.0
 10
25.77478464523176
 20
-246.79346209190706
 30
1393.0
 10
25.986060740335663
 20
-246.85038100280488
 30
1393.0
 10
26.19747088528077
 20
-246.90431886441294
 30
1393.0
 10
27.172981133626724
 20
-247.1391605683056
 30
1393.0
 10
27.946992139205936
 20
-247.28548861566202
 30
1393.0
 10
28.729295261399137
 20
-247.38844171669132
 30
1393.0
 10
29.517243898789
 20
-247.4420856631833
 30
1393.0
 10
30.30726309350525
 20
-247.44084934498176
 30
1393.0
 10
31.09484433550893
 20
-247.38041518082
 30
1393.0
 10
31.87452977599489
 20
-247.2588411888099
 30
1393.0
 10
33.25205969714276
 20
-246.93293805884167
 30
1393.0
 10
33.8554071614257
 20
-246.7499582052946
 30
1393.0
 10
34.44672642425883
 20
-246.52956664981102
 30
1393.0
 10
35.02372548300455
 20
-246.27360940975163
 30
1393.0
 10
35.58484108256922
 20
-245.9846891708539
 30
1393.0
 10
36.129084389610156
 20
-245.66582862961192
 30
1393.0
 10
36.65591476312639
 20
-245.3201909632855
 30
1393.0
 10
37.54892048528672
 20
-244.6725935724131
 30
1393.0
 10
37.92283778868736
 20
-244.3807526810268
 30
1393.0
 10
38.286983659927934
 20
-244.07657134935843
 30
1393.0
 10
38.641534669939695
 20
-243.76119538509283
 30
1393.0
 10
38.98674038510902
 20
-243.43568797832242
 30
1393.0
 10
39.32290365502829
 20
-243.10100736565138
 30
1393.0
 10
39.6503678596078
 20
-242.75799252262155
 30
1393.0
 10
40.56162280241775
 20
-241.7568168673189
 30
1393.0
 10
41.12482620495258
 20
-241.08033601916756
 30
1393.0
 10
41.661743289116764
 20
-240.38232503397933
 30
1393.0
 10
42.17463261600756
 20
-239.66640957290042
 30
1393.0
 10
42.66551959240048
 20
-238.93552512681447
 30
1393.0
 10
43.13626581409316
 20
-238.19196699355825
 30
1393.0
 10
43.58860649532304
 20
-237.43741720188743
 30
1393.0
 10
44.078947870132296
 20
-236.5768604889838
 30
1393.0
 10
44.13344284685865
 20
-236.48059952346887
 30
1393.0
 10
44.18767298867941
 20
-236.38418992779032
 30
1393.0
 10
44.24164130854999
 20
-236.28763425608938
 30
1393.0
 10
44.29535075418339
 20
-236.19093500795773
 30
1393.0
 10
44.34880421067031
 20
-236.09409462970882
 30
1393.0
 10
44.402004502957865
 20
-235.9971155155802
 30
1393.0
 10
44.45495439819483
 20
-235.9000000088701
 30
1393.0
  0
SPLINE
  5
7D
330
17
100
AcDbEntity
  8
0
100
AcDbSpline
 70
0
 71
8
 72
431
 73
422
 74
0
 40
0.0
 40
0.0
 40
0.0
 40
0.0
 40
0.0
 40
0.0
 40
0.0
 40
0.0
 40
0.0
 40
0.0026727126558520908
 40
0.0026727126558520908
 40
0.0026727126558520908
 40
0.0026727126558520908
 40
0.0026727126558520908
 40
0.0026727126558520908
 40
0.0026727126558520908
 40
0.005463354429389086
 40
0.005463354429389086
 40
0.005463354429389086
 40
0.005463354429389086
 40
0.005463354429389086
 40
0.005463354429389086
 40
0.005463354429389086
 40
0.008533060380283895
 40
0.008533060380283895
 40
0.008533060380283895
 40
0.008533060380283895
 40
0.008533060380283895
 40
0.008533060380283895
 40
0.008533060380283895
 40
0.01048650962177625
 40
0.01048650962177625
 40
0.01048650962177625
 40
0.01048650962177625
 40
0.01048650962177625
 40
0.01048650962177625
 40
0.01048650962177625
 40
0.013277151395357165
 40
0.013277151395357165
 40
0.013277151395357165
 40
0.013277151395357165
 40
0.013277151395357165
 40
0.013277151395357165
 40
0.013277151395357165
 40
0.016346857346293327
 40
0.016346857346293327
 40
0.016346857346293327
 40
0.016346857346293327
 40
0.016346857346293327
 40
0.016346857346293327
 40
0.016346857346293327
 40
0.021771394121510176
 40
0.021771394121510176
 40
0.021771394121510176
 40
0.021771394121510176
 40
0.021771394121510176
 40
0.021771394121510176
 40
0.021771394121510176
 40
0.03076314717539206
 40
0.03076314717539206
 40
0.03076314717539206
 40
0.03076314717539206
 40
0.03076314717539206
 40
0.03076314717539206
 40
0.03076314717539206
 40
0.04989550228482725
 40
0.04989550228482725
 40
0.04989550228482725
 40
0.04989550228482725
 40
0.04989550228482725
 40
0.04989550228482725
 40
0.04989550228482725
 40
0.06277750585654979
 40
0.06277750585654979
 40
0.06277750585654979
 40
0.06277750585654979
 40
0.06277750585654979
 40
0.06277750585654979
 40
0.06277750585654979
 40
0.06954602102302862
 40
0.06954602102302862
 40
0.06954602102302862
 40
0.06954602102302862
 40
0.06954602102302862
 40
0.06954602102302862
 40
0.06954602102302862
 40
0.07783021806776116
 40
0.07783021806776116
 40
0.07783021806776116
 40
0.07783021806776116
 40
0.07783021806776116
 40
0.07783021806776116
 40
0.07783021806776116
 40
0.11666551289957888
 40
0.11666551289957888
 40
0.11666551289957888
 40
0.11666551289957888
 40
0.11666551289957888
 40
0.11666551289957888
 40
0.11666551289957888
 40
0.1858120403033898
 40
0.1858120403033898
 40
0.1858120403033898
 40
0.1858120403033898
 40
0.1858120403033898
 40
0.1858120403033898
 40
0.1858120403033898
 40
0.25475391007128656
 40
0.25475391007128656
 40
0.25475391007128656
 40
0.25475391007128656
 40
0.25475391007128656
 40
0.25475391007128656
 40
0.25475391007128656
 40
0.28838670007854134
 40
0.28838670007854134
 40
0.28838670007854134
 40
0.28838670007854134
 40
0.28838670007854134
 40
0.28838670007854134
 40
0.28838670007854134
 40
0.3220206906829253
 40
0.3220206906829253
 40
0.3220206906829253
 40
0.3220206906829253
 40
0.3220206906829253
 40
0.3220206906829253
 40
0.3220206906829253
 40
0.43527490163531
 40
0.43527490163531
 40
0.43527490163531
 40
0.43527490163531
 40
0.43527490163531
 40
0.43527490163531
 40
0.43527490163531
 40
0.4850848292938148
 40
0.4850848292938148
 40
0.4850848292938148
 40
0.4850848292938148
 40
0.4850848292938148
 40
0.4850848292938148
 40
0.4850848292938148
 40
0.5012971823443915
 40
0.5012971823443915
 40
0.5012971823443915
 40
0.5012971823443915
 40
0.5012971823443915
 40
0.5012971823443915
 40
0.5012971823443915
 40
0.5175064022626489
 40
0.5175064022626489
 40
0.5175064022626489
 40
0.5175064022626489
 40
0.5175064022626489
 40
0.5175064022626489
 40
0.5175064022626489
 40
0.5438811568409377
 40
0.5438811568409377
 40
0.5438811568409377
 40
0.5438811568409377
 40
0.5438811568409377
 40
0.5438811568409377
 40
0.5438811568409377
 40
0.5572851569085423
 40
0.5572851569085423
 40
0.5572851569085423
 40
0.5572851569085423
 40
0.5572851569085423
 40
0.5572851569085423
 40
0.5572851569085423
 40
0.5637579562924229
 40
0.5637579562924229
 40
0.5637579562924229
 40
0.5637579562924229
 40
0.5637579562924229
 40
0.5637579562924229
 40
0.5637579562924229
 40
0.5681434841795404
 40
0.5681434841795404
 40
0.5681434841795404
 40
0.5681434841795404
 40
0.5681434841795404
 40
0.5681434841795404
 40
0.5681434841795404
 40
0.5702949446935823
 40
0.5702949446935823
 40
0.5702949446935823
 40
0.5702949446935823
 40
0.5702949446935823
 40
0.5702949446935823
 40
0.5702949446935823
 40
0.5710045165182165
 40
0.5710045165182165
 40
0.5710045165182165
 40
0.5710045165182165
 40
0.5710045165182165
 40
0.5710045165182165
 40
0.5710045165182165
 40
0.5718323503136257
 40
0.5718323503136257
 40
0.5718323503136257
 40
0.5718323503136257
 40
0.5718323503136257
 40
0.5718323503136257
 40
0.5718323503136257
 40
0.5726601841090261
 40
0.5726601841090261
 40
0.5726601841090261
 40
0.5726601841090261
 40
0.5726601841090261
 40
0.5726601841090261
 40
0.5726601841090261
 40
0.5738428038167509
 40
0.5738428038167509
 40
0.5738428038167509
 40
0.5738428038167509
 40
0.5738428038167509
 40
0.5738428038167509
 40
0.5738428038167509
 40
0.5751436855140475
 40
0.5751436855140475
 40
0.5751436855140475
 40
0.5751436855140475
 40
0.5751436855140475
 40
0.5751436855140475
 40
0.5751436855140475
 40
0.5771766663978436
 40
0.5771766663978436
 40
0.5771766663978436
 40
0.5771766663978436
 40
0.5771766663978436
 40
0.5771766663978436
 40
0.5771766663978436
 40
0.5786288404057096
 40
0.5786288404057096
 40
0.5786288404057096
 40
0.5786288404057096
 40
0.5786288404057096
 40
0.5786288404057096
 40
0.5786288404057096
 40
0.5802884678432777
 40
0.5802884678432777
 40
0.5802884678432777
 40
0.5802884678432777
 40
0.5802884678432777
 40
0.5802884678432777
 40
0.5802884678432777
 40
0.5823630021402606
 40
0.5823630021402606
 40
0.5823630021402606
 40
0.5823630021402606
 40
0.5823630021402606
 40
0.5823630021402606
 40
0.5823630021402606
 40
0.5844375364372384
 40
0.5844375364372384
 40
0.5844375364372384
 40
0.5844375364372384
 40
0.5844375364372384
 40
0.5844375364372384
 40
0.5844375364372384
 40
0.5884700746727778
 40
0.5884700746727778
 40
0.5884700746727778
 40
0.5884700746727778
 40
0.5884700746727778
 40
0.5884700746727778
 40
0.5884700746727778
 40
0.5951544306564498
 40
0.5951544306564498
 40
0.5951544306564498
 40
0.5951544306564498
 40
0.5951544306564498
 40
0.5951544306564498
 40
0.5951544306564498
 40
0.6093771740633972
 40
0.6093771740633972
 40
0.6093771740633972
 40
0.6093771740633972
 40
0.6093771740633972
 40
0.6093771740633972
 40
0.6093771740633972
 40
0.6189534861387379
 40
0.6189534861387379
 40
0.6189534861387379
 40
0.6189534861387379
 40
0.6189534861387379
 40
0.6189534861387379
 40
0.6189534861387379
 40
0.6239851112455703
 40
0.6239851112455703
 40
0.6239851112455703
 40
0.6239851112455703
 40
0.6239851112455703
 40
0.6239851112455703
 40
0.6239851112455703
 40
0.6301434745146558
 40
0.6301434745146558
 40
0.6301434745146558
 40
0.6301434745146558
 40
0.6301434745146558
 40
0.6301434745146558
 40
0.6301434745146558
 40
0.6590137577224651
 40
0.6590137577224651
 40
0.6590137577224651
 40
0.6590137577224651
 40
0.6590137577224651
 40
0.6590137577224651
 40
0.6590137577224651
 40
0.7104221990433622
 40
0.7104221990433622
 40
0.7104221990433622
 40
0.7104221990433622
 40
0.7104221990433622
 40
0.7104221990433622
 40
0.7104221990433622
 40
0.7616864801744309
 40
0.7616864801744309
 40
0.7616864801744309
 40
0.7616864801744309
 40
0.7616864801744309
 40
0.7616864801744309
 40
0.7616864801744309
 40
0.7866991080095327
 40
0.7866991080095327
 40
0.7866991080095327
 40
0.7866991080095327
 40
0.7866991080095327
 40
0.7866991080095327
 40
0.7866991080095327
 40
0.811715512492037
 40
0.811715512492037
 40
0.811715512492037
 40
0.811715512492037
 40
0.811715512492037
 40
0.811715512492037
 40
0.811715512492037
 40
0.8972592450297028
 40
0.8972592450297028
 40
0.8972592450297028
 40
0.8972592450297028
 40
0.8972592450297028
 40
0.8972592450297028
 40
0.8972592450297028
 40
0.9340304281700235
 40
0.9340304281700235
 40
0.9340304281700235
 40
0.9340304281700235
 40
0.9340304281700235
 40
0.9340304281700235
 40
0.9340304281700235
 40
0.9459656783553683
 40
0.9459656783553683
 40
0.9459656783553683
 40
0.9459656783553683
 40
0.9459656783553683
 40
0.9459656783553683
 40
0.9459656783553683
 40
0.9578993590480946
 40
0.9578993590480946
 40
0.9578993590480946
 40
0.9578993590480946
 40
0.9578993590480946
 40
0.9578993590480946
 40
0.9578993590480946
 40
0.9772793657542181
 40
0.9772793657542181
 40
0.9772793657542181
 40
0.9772793657542181
 40
0.9772793657542181
 40
0.9772793657542181
 40
0.9772793657542181
 40
0.987083309560027
 40
0.987083309560027
 40
0.987083309560027
 40
0.987083309560027
 40
0.987083309560027
 40
0.987083309560027
 40
0.987083309560027
 40
0.991791938750324
 40
0.991791938750324
 40
0.991791938750324
 40
0.991791938750324
 40
0.991791938750324
 40
0.991791938750324
 40
0.991791938750324
 40
0.9947992110145768
 40
0.9947992110145768
 40
0.9947992110145768
 40
0.9947992110145768
 40
0.9947992110145768
 40
0.9947992110145768
 40
0.9947992110145768
 40
0.9964095789351073
 40
0.9964095789351073
 40
0.9964095789351073
 40
0.9964095789351073
 40
0.9964095789351073
 40
0.9964095789351073
 40
0.9964095789351073
 40
0.9969406874986841
 40
0.9969406874986841
 40
0.9969406874986841
 40
0.9969406874986841
 40
0.9969406874986841
 40
0.9969406874986841
 40
0.9969406874986841
 40
0.9975603141561927
 40
0.9975603141561927
 40
0.9975603141561927
 40
0.9975603141561927
 40
0.9975603141561927
 40
0.9975603141561927
 40
0.9975603141561927
 40
0.9985340131894209
 40
0.9985340131894209
 40
0.9985340131894209
 40
0.9985340131894209
 40
0.9985340131894209
 40
0.9985340131894209
 40
0.9985340131894209
 40
1.0
 40
1.0
 40
1.0
 40
1.0
 40
1.0
 40
1.0
 40
1.0
 40
1.0
 40
1.0
 10
8.78129994309303
 20
224.24986085199615
 30
1393.0
 10
8.78116012989222
 20
224.25000092957592
 30
1393.0
 10
8.781189125531233
 20
224.24980529733185
 30
1393.0
 10
8.781278249577063
 20
224.24958004020505
 30
1393.0
 10
8.781354027673906
 20
224.24947644141213
 30
1393.0
 10
8.781378191543158
 20
224.24949098244588
 30
1393.0
 10
8.781347678983412
 20
224.24946534307486
 30
1393.0
 10
8.78129463387047
 20
224.24908640134373
 30
1393.0
 10
8.781277815409688
 20
224.24663311034269
 30
1393.0
 10
8.781265070893939
 20
224.24477408137486
 30
1393.0
 10
8.78124700103448
 20
224.2421382501793
 30
1393.0
 10
8.781222434255696
 20
224.2385547202658
 30
1393.0
 10
8.781190198981966
 20
224.2338525951444
 30
1393.0
 10
8.781149123637672
 20
224.22786097832486
 30
1393.0
 10
8.781098036647201
 20
224.2204089733171
 30
1393.0
 10
8.780967269201444
 20
224.20133406497644
 30
1393.0
 10
8.780885240269585
 20
224.18936859186093
 30
1393.0
 10
8.780788120272204
 20
224.17520180105643
 30
1393.0
 10
8.780674349842164
 20
224.1586062293345
 30
1393.0
 10
8.780542369612313
 20
224.13935441346686
 30
1393.0
 10
8.780390620215508
 20
224.11721889022505
 30
1393.0
 10
8.780217542284603
 20
224.09197219638077
 30
1393.0
 10
8.779896870922904
 20
224.04519620563963
 30
1393.0
 10
8.779762896739134
 20
224.02565353383238
 30
1393.0
 10
8.779619252050704
 20
224.00470023578777
 30
1393.0
 10
8.779465535007176
 20
223.9822776940094
 30
1393.0
 10
8.779301343758114
 20
223.9583272910012
 30
1393.0
 10
8.779126276453082
 20
223.93279040926714
 30
1393.0
 10
8.778939931241647
 20
223.90560843131118
 30
1393.0
 10
8.778459013461545
 20
223.83545746581743
 30
1393.0
 10
8.778152284411266
 20
223.79071522522614
 30
1393.0
 10
8.777820547546915
 20
223.74232512137328
 30
1393.0
 10
8.777462631292883
 20
223.6901162577687
 30
1393.0
 10
8.777077364073545
 20
223.63391773792225
 30
1393.0
 10
8.77666357431329
 20
223.57355866534385
 30
1393.0
 10
8.776220090436496
 20
223.50886814354342
 30
1393.0
 10
8.77522395634171
 20
223.36356312176719
 30
1393.0
 10
8.774664824328363
 20
223.2820031291916
 30
1393.0
 10
8.774066785460365
 20
223.19476783507588
 30
1393.0
 10
8.773428280370576
 20
223.10162977619186
 30
1393.0
 10
8.77274774969184
 20
223.0023614893114
 30
1393.0
 10
8.77202363405702
 20
222.89673551120592
 30
1393.0
 10
8.771254374098966
 20
222.78452437864698
 30
1393.0
 10
8.76899650530101
 20
222.45517145661387
 30
1393.0
 10
8.767553402079333
 20
222.24466752330784
 30
1393.0
 10
8.766109513657021
 20
222.03404905362623
 30
1393.0
 10
8.764665065514428
 20
221.82334893813234
 30
1393.0
 10
8.763220209378263
 20
221.61258930905194
 30
1393.0
 10
8.761775043004397
 20
221.40178442593748
 30
1393.0
 10
8.760329600964194
 20
221.19093933165652
 30
1393.0
 10
8.75648744546617
 20
220.6304881923676
 30
1393.0
 10
8.75409039104843
 20
220.2808324118976
 30
1393.0
 10
8.751692896290235
 20
219.93111239942135
 30
1393.0
 10
8.749295071138802
 20
219.5813441928478
 30
1393.0
 10
8.746896992090875
 20
219.23153895066346
 30
1393.0
 10
8.744498710855044
 20
218.88170421553136
 30
1393.0
 10
8.742100253879725
 20
218.5318438454779
 30
1393.0
 10
8.734597916730765
 20
217.43748589858268
 30
1393.0
 10
8.7294935430117
 20
216.69291632878563
 30
1393.0
 10
8.724388722958993
 20
215.94828165281854
 30
1393.0
 10
8.719283579054753
 20
215.2035997369217
 30
1393.0
 10
8.714178194421258
 20
214.45888270610425
 30
1393.0
 10
8.709072623431558
 20
213.71413849175593
 30
1393.0
 10
8.70396688872455
 20
212.96937039609452
 30
1393.0
 10
8.695423142817807
 20
211.72310326044675
 30
1393.0
 10
8.691876062704141
 20
211.20569445388566
 30
1393.0
 10
8.688217728065815
 20
210.67205706804705
 30
1393.0
 10
8.684446114420169
 20
210.121895793796
 30
1393.0
 10
8.680559197284532
 20
209.5549153219975
 30
1393.0
 10
8.67655495217624
 20
208.9708203435168
 30
1393.0
 10
8.672431354612625
 20
208.36931554921907
 30
1393.0
 10
8.665955968192925
 20
207.42475781382132
 30
1393.0
 10
8.663725558298422
 20
207.0994081659575
 30
1393.0
 10
8.661495129817064
 20
206.77405679304235
 30
1393.0
 10
8.659264673695272
 20
206.4487037947717
 30
1393.0
 10
8.657034192436333
 20
206.12334926387268
 30
1393.0
 10
8.654803700100405
 20
205.79799328610437
 30
1393.0
 10
8.65257322230452
 20
205.4726359402572
 30
1393.0
 10
8.64761290810057
 20
204.7490606974514
 30
1393.0
 10
8.644840439551505
 20
204.34460934779813
 30
1393.0
 10
8.642026000128997
 20
203.93398189375478
 30
1393.0
 10
8.639170199386665
 20
203.51723697988282
 30
1393.0
 10
8.636273646878132
 20
203.09443325074338
 30
1393.0
 10
8.633336952157016
 20
202.66562935089726
 30
1393.0
 10
8.630360724776935
 20
202.23088392490533
 30
1393.0
 10
8.61321092039185
 20
199.7246444128146
 30
1393.0
 10
8.599105352322857
 20
197.65900098288216
 30
1393.0
 10
8.585043824996994
 20
195.59333484417076
 30
1393.0
 10
8.57103392518955
 20
193.52765134727795
 30
1393.0
 10
8.557081231924961
 20
191.46195419773917
 30
1393.0
 10
8.543190409050597
 20
189.3962459798719
 30
1393.0
 10
8.529364869123599
 20
187.33052802077236
 30
1393.0
 10
8.491113370213977
 20
181.58675869239028
 30
1393.0
 10
8.466836093422685
 20
177.90869015087875
 30
1393.0
 10
8.442793717172488
 20
174.23060211801848
 30
1393.0
 10
8.418999498134198
 20
170.55249868663944
 30
1393.0
 10
8.39546597705894
 20
166.87438275601056
 30
1393.0
 10
8.37220592814003
 20
163.19625641748186
 30
1393.0
 10
8.349232371410714
 20
159.51812093589797
 30
1393.0
 10
8.303953713189044
 20
152.1727196369887
 30
1393.0
 10
8.281646831789633
 20
148.50545430029285
 30
1393.0
 10
8.259652834208586
 20
144.83818216556034
 30
1393.0
 10
8.237986724778134
 20
141.17090410903677
 30
1393.0
 10
8.216664851483824
 20
137.5036208397
 30
1393.0
 10
8.195705306657773
 20
133.83633294834004
 30
1393.0
 10
8.175128399708449
 20
130.169040934907
 30
1393.0
 10
8.145116829660196
 20
124.7126816554112
 30
1393.0
 10
8.135373035044452
 20
122.92361722219434
 30
1393.0
 10
8.125728455982204
 20
121.13455196584974
 30
1393.0
 10
8.11618592992075
 20
119.3454859362619
 30
1393.0
 10
8.106748493812198
 20
117.55641918182673
 30
1393.0
 10
8.097419384113465
 20
115.76735174945155
 30
1393.0
 10
8.088202036786285
 20
113.97828368455511
 30
1393.0
 10
8.069997812893813
 20
110.40008251280123
 30
1393.0
 10
8.061011190593815
 20
108.61094940637025
 30
1393.0
 10
8.052136581943559
 20
106.82181579267545
 30
1393.0
 10
8.043370547134389
 20
105.03268175206617
 30
1393.0
 10
8.034709845002611
 20
103.24354736434023
 30
1393.0
 10
8.026151433029534
 20
101.45441270874396
 30
1393.0
 10
8.01769246734143
 20
99.66527786397214
 30
1393.0
 10
7.981172765045452
 20
91.8516699251582
 30
1393.0
 10
7.954112564980902
 20
85.82719650592509
 30
1393.0
 10
7.928047235079423
 20
79.80272477867783
 30
1393.0
 10
7.902894495723801
 20
73.77825770445253
 30
1393.0
 10
7.8785857680373645
 20
67.75379896494013
 30
1393.0
 10
7.85506030341489
 20
61.72935421055007
 30
1393.0
 10
7.832265167030553
 20
55.704930387888396
 30
1393.0
 10
7.800411821540648
 20
47.030975770767846
 30
1393.0
 10
7.790811783493506
 20
44.38141798884223
 30
1393.0
 10
7.78133664177949
 20
41.73186825832433
 30
1393.0
 10
7.771981339752143
 20
39.082327915393336
 30
1393.0
 10
7.76273995317808
 20
36.432799312365105
 30
1393.0
 10
7.75360588180069
 20
33.78328575510046
 30
1393.0
 10
7.744570882153449
 20
31.133791954817
 30
1393.0
 10
7.732707585158368
 20
27.621966205386503
 30
1393.0
 10
7.729856230805237
 20
26.775238476108118
 30
1393.0
 10
7.727066590964126
 20
25.944437825420014
 30
1393.0
 10
7.72433859734161
 20
25.129859289756254
 30
1393.0
 10
7.721672181644254
 20
24.331797905550772
 30
1393.0
 10
7.71906727557863
 20
23.55054870923746
 30
1393.0
 10
7.7165238108513075
 20
22.786406737250108
 30
1393.0
 10
7.711560107165181
 20
21.293071626623856
 30
1393.0
 10
7.709138863181932
 20
20.563535684418497
 30
1393.0
 10
7.70677839575029
 20
19.851767246923373
 30
1393.0
 10
7.704481773500949
 20
19.158231637542315
 30
1393.0
 10
7.702244911495111
 20
18.483153628778098
 30
1393.0
 10
7.700068680748231
 20
17.826514736991385
 30
1393.0
 10
7.6979531659800635
 20
17.188054792219475
 30
1393.0
 10
7.692549003260312
 20
15.557167830577665
 30
1393.0
 10
7.689201955200986
 20
14.547084063056289
 30
1393.0
 10
7.685854975879333
 20
13.537021039346318
 30
1393.0
 10
7.68250807506501
 20
12.526981707792004
 30
1393.0
 10
7.679161274989953
 20
11.51697277759509
 30
1393.0
 10
7.675814609410027
 20
10.507004435684777
 30
1393.0
 10
7.6724681278287346
 20
9.497091621416654
 30
1393.0
 10
7.667421325775746
 20
7.974050199744063
 30
1393.0
 10
7.665720818083342
 20
7.46086509234042
 30
1393.0
 10
7.664020394699725
 20
6.947705427899766
 30
1393.0
 10
7.66232006776423
 20
6.434574869848035
 30
1393.0
 10
7.660619864136874
 20
5.921481524099686
 30
1393.0
 10
7.6589198244288506
 20
5.408437646444604
 30
1393.0
 10
7.657220007998027
 20
4.895461150071689
 30
1393.0
 10
7.654699830125918
 20
4.134913133322019
 30
1393.0
 10
7.65387922989881
 20
3.887269551404316
 30
1393.0
 10
7.653058720272417
 20
3.639653311250715
 30
1393.0
 10
7.652238315003162
 20
3.392068564340775
 30
1393.0
 10
7.651418039860477
 20
3.1445230874478973
 30
1393.0
 10
7.650597932602503
 20
2.897028275338144
 30
1393.0
 10
7.649778047072773
 20
2.6496003771185883
 30
1393.0
 10
7.648403178586252
 20
2.2346877976370365
 30
1393.0
 10
7.647848079845545
 20
2.0671681746981676
 30
1393.0
 10
7.647293153566315
 20
1.8997005979346113
 30
1393.0
 10
7.646738425172028
 20
1.732292739153877
 30
1393.0
 10
7.646183950238672
 20
1.5649613711439656
 30
1393.0
 10
7.6456298592080545
 20
1.3977458582389772
 30
1393.0
 10
7.645076318031943
 20
1.2306962824328025
 30
1393.0
 10
7.6442525765695875
 20
0.9821047270520182
 30
1393.0
 10
7.643981819952944
 20
0.9003948562208564
 30
1393.0
 10
7.643711337776042
 20
0.8187678068317723
 30
1393.0
 10
7.643441166583566
 20
0.7372346071913398
 30
1393.0
 10
7.6431713838187685
 20
0.6558186288232832
 30
1393.0
 10
7.642902278952939
 20
0.5746072289398398
 30
1393.0
 10
7.642634166143607
 20
0.4936952153517211
 30
1393.0
 10
7.64228006827218
 20
0.38683433138179174
 30
1393.0
 10
7.642196537847327
 20
0.36162623000525884
 30
1393.0
 10
7.6421171754393
 20
0.3376759671986695
 30
1393.0
 10
7.642041858786267
 20
0.31494664636396325
 30
1393.0
 10
7.641970465626404
 20
0.29340137090308155
 30
1393.0
 10
7.641902873697882
 20
0.27300324421796673
 30
1393.0
 10
7.641838960738874
 20
0.2537153697105623
 30
1393.0
 10
7.64170818886101
 20
0.21425057870037278
 30
1393.0
 10
7.641642614308822
 20
0.1944612628236756
 30
1393.0
 10
7.641581686683728
 20
0.1760743127215229
 30
1393.0
 10
7.641525211838477
 20
0.15903113796272034
 30
1393.0
 10
7.641472995625818
 20
0.14327314811607805
 30
1393.0
 10
7.641424843898492
 20
0.1287417527504106
 30
1393.0
 10
7.6413805625092515
 20
0.11537836143453717
 30
1393.0
 10
7.641299352112428
 20
0.09087040604015327
 30
1393.0
 10
7.6412624231048465
 20
0.0797258419616672
 30
1393.0
 10
7.64122897614084
 20
0.06963210107066686
 30
1393.0
 10
7.641198817073158
 20
0.06053059293599696
 30
1393.0
 10
7.641171751754541
 20
0.052362727126502966
 30
1393.0
 10
7.641147586037737
 20
0.045069913211031175
 30
1393.0
 10
7.641126125775495
 20
0.03859356075842869
 30
1393.0
 10
7.641080106884939
 20
0.024705820164783173
 30
1393.0
 10
7.641058162066271
 20
0.018083236566923233
 30
1393.0
 10
7.641040776337575
 20
0.012836510960375283
 30
1393.0
 10
7.641027383671875
 20
0.008794825761557132
 30
1393.0
 10
7.641017418042194
 20
0.005787363386892659
 30
1393.0
 10
7.641010313421552
 20
0.003643306252811839
 30
1393.0
 10
7.64100550378297
 20
0.002191836775750744
 30
1393.0
 10
7.640999034347563
 20
0.00023946801341878657
 30
1393.0
 10
7.640997629864154
 20
-0.00015185951659292738
 30
1393.0
 10
7.6409981003618865
 20
-0.00013920348405045094
 30
1393.0
 10
7.640998469687561
 20
5.007790986967718e-05
 30
1393.0
 10
7.64099794226149
 20
0.00018862648798696164
 30
1393.0
 10
7.640997809533823
 20
4.9084064879626316e-05
 30
1393.0
 10
7.64100021545777
 20
-0.0005959075765957778
 30
1393.0
 10
7.641011915847546
 20
-0.004126891947748845
 30
1393.0
 10
7.641024967149164
 20
-0.008065559143801693
 30
1393.0
 10
7.641046420171756
 20
-0.014539726893019633
 30
1393.0
 10
7.641077109526412
 20
-0.02380126691014084
 30
1393.0
 10
7.641114523368479
 20
-0.03509214610841127
 30
1393.0
 10
7.641156986181014
 20
-0.04790672109729144
 30
1393.0
 10
7.641202207418264
 20
-0.06155374304998418
 30
1393.0
 10
7.641281359208835
 20
-0.08544044514307812
 30
1393.0
 10
7.641317652825409
 20
-0.09639325871967636
 30
1393.0
 10
7.641357453699491
 20
-0.10840450463071655
 30
1393.0
 10
7.641400955978327
 20
-0.12153277330725944
 30
1393.0
 10
7.641448353809176
 20
-0.13583665518043883
 30
1393.0
 10
7.64149984133929
 20
-0.15137474068146162
 30
1393.0
 10
7.641555612715924
 20
-0.1682056202416078
 30
1393.0
 10
7.641684718509652
 20
-0.20716761463587832
 30
1393.0
 10
7.641759423741167
 20
-0.22971241859898683
 30
1393.0
 10
7.641840267586687
 20
-0.2541097547847236
 30
1393.0
 10
7.641927539852027
 20
-0.2804470817960996
 30
1393.0
 10
7.642021530343002
 20
-0.30881185823596985
 30
1393.0
 10
7.642122528865421
 20
-0.3392915427070327
 30
1393.0
 10
7.642230825225098
 20
-0.3719735938118305
 30
1393.0
 10
7.642491564231284
 20
-0.45066031557938396
 30
1393.0
 10
7.642648274927018
 20
-0.49795301293818284
 30
1393.0
 10
7.6428174073420285
 20
-0.5489943798127522
 30
1393.0
 10
7.642999527503296
 20
-0.6039552337866891
 30
1393.0
 10
7.6431952014378
 20
-0.6630063924435815
 30
1393.0
 10
7.643404995172519
 20
-0.7263186733670081
 30
1393.0
 10
7.64362947473443
 20
-0.7940628941405379
 30
1393.0
 10
7.644108937566595
 20
-0.9387568505547391
 30
1393.0
 10
7.644363920836851
 20
-1.0157065861955874
 30
1393.0
 10
7.644634721988256
 20
-1.0974298968537315
 30
1393.0
 10
7.644921907047788
 20
-1.1840976001126642
 30
1393.0
 10
7.645226042042427
 20
-1.2758805135559144
 30
1393.0
 10
7.645547692999155
 20
-1.3729494547670464
 30
1393.0
 10
7.645887425944944
 20
-1.4754752413296615
 30
1393.0
 10
7.646942437921068
 20
-1.7938604141787664
 30
1393.0
 10
7.647639648313515
 20
-2.0042669842121867
 30
1393.0
 10
7.648337238424041
 20
-2.2147881468563426
 30
1393.0
 10
7.649035099212901
 20
-2.425390995685433
 30
1393.0
 10
7.649733157306013
 20
-2.6360533876431056
 30
1393.0
 10
7.650431365428958
 20
-2.8467610561155396
 30
1393.0
 10
7.651129706863235
 20
-3.0575089556986903
 30
1393.0
 10
7.652985979439816
 20
-3.617701330564419
 30
1393.0
 10
7.654144075469247
 20
-3.967195566010517
 30
1393.0
 10
7.655302384445071
 20
-4.316754065101367
 30
1393.0
 10
7.656460853198342
 20
-4.666360782345549
 30
1393.0
 10
7.657619444735252
 20
-5.016004553620892
 30
1393.0
 10
7.658778134049253
 20
-5.3656778323644545
 30
1393.0
 10
7.65993690835068
 20
-5.715376758883952
 30
1393.0
 10
7.66356153562105
 20
-6.809229344163139
 30
1393.0
 10
7.666027627267004
 20
-7.553455031612231
 30
1393.0
 10
7.668493934758824
 20
-8.297745857636233
 30
1393.0
 10
7.670960398864193
 20
-9.04208394699819
 30
1393.0
 10
7.673426979385772
 20
-9.786457168775748
 30
1393.0
 10
7.675893650029102
 20
-10.530857587699856
 30
1393.0
 10
7.678360399845412
 20
-11.275281899699728
 30
1393.0
 10
7.682488166796882
 20
-12.520973721534434
 30
1393.0
 10
7.684201878661179
 20
-13.038143629461384
 30
1393.0
 10
7.685969341270601
 20
-13.571534623586121
 30
1393.0
 10
7.687791532719771
 20
-14.121441876692954
 30
1393.0
 10
7.689669431103311
 20
-14.688160561566272
 30
1393.0
 10
7.691604014515835
 20
-15.271985850990529
 30
1393.0
 10
7.693596261051962
 20
-15.873212917750235
 30
1393.0
 10
7.696724734648854
 20
-16.817334526150944
 30
1393.0
 10
7.697802341151183
 20
-17.142533950152366
 30
1393.0
 10
7.698879946608853
 20
-17.467735100131872
 30
1393.0
 10
7.699957540950128
 20
-17.792937876442075
 30
1393.0
 10
7.701035125735987
 20
-18.118142186290566
 30
1393.0
 10
7.7021127141601315
 20
-18.443347943739933
 30
1393.0
 10
7.703190331048974
 20
-18.76855506970773
 30
1393.0
 10
7.705587021323129
 20
-19.491796246775056
 30
1393.0
 10
7.70692684183911
 20
-19.89606091398787
 30
1393.0
 10
7.708287487965525
 20
-20.306498930238757
 30
1393.0
 10
7.709668973258304
 20
-20.723051732161537
 30
1393.0
 10
7.711071311273371
 20
-21.145660756390015
 30
1393.0
 10
7.712494515566661
 20
-21.57426743955798
 30
1393.0
 10
7.7139385996941
 20
-22.0088132182992
 30
1393.0
 10
7.72227136236424
 20
-24.513949221362655
 30
1393.0
 10
7.72916857485653
 20
-26.578690860053356
 30
1393.0
 10
7.736110079721386
 20
-28.64345477217581
 30
1393.0
 10
7.743103411648914
 20
-30.708235527160497
 30
1393.0
 10
7.750154112853972
 20
-32.77302936085874
 30
1393.0
 10
7.757266821002462
 20
-34.83783364023022
 30
1393.0
 10
7.764444934316725
 20
-36.90264700267244
 30
1393.0
 10
7.784595743886103
 20
-42.64423461994224
 30
1393.0
 10
7.797717384310027
 20
-46.32102454979563
 30
1393.0
 10
7.811074230530335
 20
-49.99783159724495
 30
1393.0
 10
7.824679488787479
 20
-53.674651531785315
 30
1393.0
 10
7.8385456584099495
 20
-57.35148132455379
 30
1393.0
 10
7.852685477518825
 20
-61.02831875296873
 30
1393.0
 10
7.867111934629023
 20
-64.70516241944941
 30
1393.0
 10
7.896525129973219
 20
-72.04854977426652
 30
1393.0
 10
7.911510176516882
 20
-75.71509300106267
 30
1393.0
 10
7.926808282976669
 20
-79.38163985260009
 30
1393.0
 10
7.94243442477192
 20
-83.04818929948338
 30
1393.0
 10
7.958404918407251
 20
-86.71474046622893
 30
1393.0
 10
7.9747378204550685
 20
-90.38129257809517
 30
1393.0
 10
7.99145339797438
 20
-94.04784492891847
 30
1393.0
 10
8.016928401364238
 20
-99.50336371228263
 30
1393.0
 10
8.025378735122862
 20
-101.29233044900408
 30
1393.0
 10
8.033928304926784
 20
-103.08129700194769
 30
1393.0
 10
8.042579942881597
 20
-104.87026329242103
 30
1393.0
 10
8.051336679913451
 20
-106.65922924121145
 30
1393.0
 10
8.060201745769062
 20
-108.4481947685859
 30
1393.0
 10
8.06917856901572
 20
-110.23715979429097
 30
1393.0
 10
8.087364357895966
 20
-113.81535879589283
 30
1393.0
 10
8.096573604178031
 20
-115.60459276864894
 30
1393.0
 10
8.105894869314655
 20
-117.39382611187636
 30
1393.0
 10
8.115324706066897
 20
-119.18305878017439
 30
1393.0
 10
8.124859866529698
 20
-120.97229072668668
 30
1393.0
 10
8.134497302131892
 20
-122.7615219031009
 30
1393.0
 10
8.144234163636199
 20
-124.55075225964897
 30
1393.0
 10
8.187693978594867
 20
-132.4582617984846
 30
1393.0
 10
8.22245150865042
 20
-138.5765307457288
 30
1393.0
 10
8.258232903773743
 20
-144.69478751530067
 30
1393.0
 10
8.294952162843959
 20
-150.81302989612846
 30
1393.0
 10
8.332537863717972
 20
-156.93125477064052
 30
1393.0
 10
8.370926589007206
 20
-163.0494567374134
 30
1393.0
 10
8.41006336914113
 20
-169.1676289845992
 30
1393.0
 10
8.467004197585398
 20
-177.91565007391895
 30
1393.0
 10
8.484248931877262
 20
-180.54553381065682
 30
1393.0
 10
8.501615439458043
 20
-183.17540806427746
 30
1393.0
 10
8.519098706343803
 20
-185.80527153075124
 30
1393.0
 10
8.536692765817934
 20
-188.4351218387127
 30
1393.0
 10
8.554390931124288
 20
-191.06495562723705
 30
1393.0
 10
8.57218477658856
 20
-193.69476808086281
 30
1393.0
 10
8.595861229178364
 20
-197.17813002600025
 30
1393.0
 10
8.601564264120523
 20
-198.01592480083337
 30
1393.0
 10
8.60716547544683
 20
-198.83763974795824
 30
1393.0
 10
8.61266179228658
 20
-199.6429794218893
 30
1393.0
 10
8.618050143769056
 20
-200.43164837714133
 30
1393.0
 10
8.623327459023542
 20
-201.20335116822895
 30
1393.0
 10
8.628490667179324
 20
-201.9577923496666
 30
1393.0
 10
8.63858206399604
 20
-203.43146370156308
 30
1393.0
 10
8.643512268584155
 20
-204.15096860200495
 30
1393.0
 10
8.64832049821828
 20
-204.85250307885502
 30
1393.0
 10
8.65300660782119
 20
-205.5356514487817
 30
1393.0
 10
8.657560941469855
 20
-206.20026764372585
 30
1393.0
 10
8.661991710832103
 20
-206.8464799644099
 30
1393.0
 10
8.666298251857809
 20
-207.47468636826065
 30
1393.0
 10
8.677286952146062
 20
-209.0775964011913
 30
1393.0
 10
8.684087704269638
 20
-210.06961488603397
 30
1393.0
 10
8.69088831097593
 20
-211.0616121590138
 30
1393.0
 10
8.697688751818145
 20
-212.05358523757656
 30
1393.0
 10
8.70448897923485
 20
-213.04552718398597
 30
1393.0
 10
8.711288920799038
 20
-214.03742743339276
 30
1393.0
 10
8.718088470068789
 20
-215.02927045922848
 30
1393.0
 10
8.728326902084794
 20
-216.5227396566256
 30
1393.0
 10
8.731766186520122
 20
-217.02442442214436
 30
1393.0
 10
8.735205291572393
 20
-217.52608302125083
 30
1393.0
 10
8.738644191720555
 20
-218.02771173121158
 30
1393.0
 10
8.742082829014551
 20
-218.52930209891312
 30
1393.0
 10
8.745521115514748
 20
-219.03084129669625
 30
1393.0
 10
8.748958922346876
 20
-219.53231052580912
 30
1393.0
 10
8.754046798258512
 20
-220.27447357795725
 30
1393.0
 10
8.75569738444523
 20
-220.515242830872
 30
1393.0
 10
8.75734777647478
 20
-220.7559837622875
 30
1393.0
 10
8.758997944981694
 20
-220.99669208869122
 30
1393.0
 10
8.760647833812387
 20
-221.23735961902347
 30
1393.0
 10
8.762297360312568
 20
-221.47797429659155
 30
1393.0
 10
8.76394640619611
 20
-221.71851886711804
 30
1393.0
 10
8.766647553717316
 20
-222.11253238542204
 30
1393.0
 10
8.767699975877804
 20
-222.26604808752208
 30
1393.0
 10
8.768752060018398
 20
-222.41951448302223
 30
1393.0
 10
8.769803770109803
 20
-222.5729263163615
 30
1393.0
 10
8.770854978054995
 20
-222.7262649021661
 30
1393.0
 10
8.771905482205197
 20
-222.8795008261462
 30
1393.0
 10
8.77295498087627
 20
-223.03259008195167
 30
1393.0
 10
8.774564041154534
 20
-223.26730199473167
 30
1393.0
 10
8.7751244569074
 20
-223.3490492450293
 30
1393.0
 10
8.775684305161946
 20
-223.4307137149398
 30
1393.0
 10
8.776243510349394
 20
-223.51228438135735
 30
1393.0
 10
8.77680191235599
 20
-223.59373788860927
 30
1393.0
 10
8.77735891254081
 20
-223.6749869136329
 30
1393.0
 10
8.777913861271674
 20
-223.75593669523556
 30
1393.0
 10
8.778646787247919
 20
-223.8628478284823
 30
1393.0
 10
8.778819680437808
 20
-223.88806757435106
 30
1393.0
 10
8.778983946570886
 20
-223.9120289006108
 30
1393.0
 10
8.779139838707483
 20
-223.93476872090355
 30
1393.0
 10
8.77928760990793
 20
-223.956323948871
 30
1393.0
 10
8.779427513232568
 20
-223.97673149815506
 30
1393.0
 10
8.779559801741726
 20
-223.9960282823976
 30
1393.0
 10
8.779830476375412
 20
-224.035511303557
 30
1393.0
 10
8.77996620408836
 20
-224.05530976080183
 30
1393.0
 10
8.780092313485017
 20
-224.0737052044711
 30
1393.0
 10
8.78020920641582
 20
-224.09075625206071
 30
1393.0
 10
8.780317284731204
 20
-224.10652152106695
 30
1393.0
 10
8.780416950281609
 20
-224.12105962898585
 30
1393.0
 10
8.780508604917468
 20
-224.1344291933135
 30
1393.0
 10
8.78072472210197
 20
-224.16595397733994
 30
1393.0
 10
8.780838003984977
 20
-224.18247828522541
 30
1393.0
 10
8.780934055505394
 20
-224.19648921843103
 30
1393.0
 10
8.781014436030365
 20
-224.2082142401849
 30
1393.0
 10
8.781080704927032
 20
-224.2178808137154
 30
1393.0
 10
8.781134421562545
 20
-224.2257164022508
 30
1393.0
 10
8.781177145304046
 20
-224.23194846901956
 30
1393.0
 10
8.78126055677167
 20
-224.24411561115775
 30
1393.0
 10
8.781228175346921
 20
-224.24384645773821
 30
1393.0
 10
8.781296074039696
 20
-224.2457291588465
 30
1393.0
 10
8.781331087997746
 20
-224.24881383985155
 30
1393.0
 10
8.78127398093859
 20
-224.25030487972373
 30
1393.0
 10
8.781245251479312
 20
-224.2499230894756
 30
1393.0
 10
8.781366869578887
 20
-224.24979379895603
 30
1393.0
 10
8.78129994309303
 20
-224.24986085199615
 30
1393.0
  0
ENDSEC
  0
SECTION
  2
OBJECTS
  0
DICTIONARY
  5
A
330
0
100
AcDbDictionary
281
1
  3
ACAD_COLOR
350
B
  3
ACAD_GROUP
350
C
  3
ACAD_LAYOUT
350
D
  3
ACAD_MATERIAL
350
E
  3
ACAD_MLEADERSTYLE
350
F
  3
ACAD_MLINESTYLE
350
10
  3
ACAD_PLOTSETTINGS
350
11
  3
ACAD_PLOTSTYLENAME
350
12
  3
ACAD_SCALELIST
350
14
  3
ACAD_TABLESTYLE
350
15
  3
ACAD_VISUALSTYLE
350
16
  3
EZDXF_META
350
2D
  0
DICTIONARY
  5
B
330
A
100
AcDbDictionary
281
1
  0
DICTIONARY
  5
C
330
A
100
AcDbDictionary
281
1
  0
DICTIONARY
  5
D
330
A
100
AcDbDictionary
281
1
  3
Model
350
1A
  3
Layout1
350
1E
  0
DICTIONARY
  5
E
330
A
100
AcDbDictionary
281
1
  3
ByBlock
350
1F
  3
ByLayer
350
20
  3
Global
350
21
  0
DICTIONARY
  5
F
330
A
100
AcDbDictionary
281
1
  3
Standard
350
2C
  0
DICTIONARY
  5
10
330
A
100
AcDbDictionary
281
1
  3
Standard
350
22
  0
DICTIONARY
  5
11
330
A
100
AcDbDictionary
281
1
  0
ACDBDICTIONARYWDFLT
  5
12
330
A
100
AcDbDictionary
281
1
  3
Normal
350
13
100
AcDbDictionaryWithDefault
340
13
  0
ACDBPLACEHOLDER
  5
13
330
12
  0
DICTIONARY
  5
14
330
A
100
AcDbDictionary
281
1
  0
DICTIONARY
  5
15
330
A
100
AcDbDictionary
281
1
  0
DICTIONARY
  5
16
330
A
100
AcDbDictionary
281
1
  0
LAYOUT
  5
1A
330
D
100
AcDbPlotSettings
  1

  2
Adobe PDF
  4
A3
  6

 40
7.5
 41
20.0
 42
7.5
 43
20.0
 44
420.0
 45
297.0
 46
0.0
 47
0.0
 48
0.0
 49
0.0
140
0.0
141
0.0
142
1.0
143
1.0
 70
1024
 72
1
 73
1
 74
5
  7

 75
16
 76
0
 77
2
 78
300
147
1.0
148
0.0
149
0.0
100
AcDbLayout
  1
Model
 70
1
 71
0
 10
0.0
 20
0.0
 11
420.0
 21
297.0
 12
0.0
 22
0.0
 32
0.0
 14
1e+20
 24
1e+20
 34
1e+20
 15
-1e+20
 25
-1e+20
 35
-1e+20
146
0.0
 13
0.0
 23
0.0
 33
0.0
 16
1.0
 26
0.0
 36
0.0
 17
0.0
 27
1.0
 37
0.0
 76
1
330
17
  0
LAYOUT
  5
1E
330
D
100
AcDbPlotSettings
  1

  2
Adobe PDF
  4
A3
  6

 40
7.5
 41
20.0
 42
7.5
 43
20.0
 44
420.0
 45
297.0
 46
0.0
 47
0.0
 48
0.0
 49
0.0
140
0.0
141
0.0
142
1.0
143
1.0
 70
0
 72
1
 73
1
 74
5
  7

 75
16
 76
0
 77
2
 78
300
147
1.0
148
0.0
149
0.0
100
AcDbLayout
  1
Layout1
 70
1
 71
1
 10
0.0
 20
0.0
 11
420.0
 21
297.0
 12
0.0
 22
0.0
 32
0.0
 14
1e+20
 24
1e+20
 34
1e+20
 15
-1e+20
 25
-1e+20
 35
-1e+20
146
0.0
 13
0.0
 23
0.0
 33
0.0
 16
1.0
 26
0.0
 36
0.0
 17
0.0
 27
1.0
 37
0.0
 76
1
330
1B
  0
MATERIAL
  5
1F
102
{ACAD_REACTORS
330
E
102
}
330
E
100
AcDbMaterial
  1
ByBlock
  2

 70
0
 40
1.0
 71
1
 41
1.0
 91
-1023410177
 42
1.0
 72
1
  3

 73
1
 74
1
 75
1
 44
0.5
 73
0
 45
1.0
 46
1.0
 77
1
  4

 78
1
 79
1
170
1
 48
1.0
171
1
  6

172
1
173
1
174
1
140
1.0
141
1.0
175
1
  7

176
1
177
1
178
1
143
1.0
179
1
  8

270
1
271
1
272
1
145
1.0
146
1.0
273
1
  9

274
1
275
1
276
1
 42
1.0
 72
1
  3

 73
1
 74
1
 75
1
 94
63
  0
MATERIAL
  5
20
102
{ACAD_REACTORS
330
E
102
}
330
E
100
AcDbMaterial
  1
ByLayer
  2

 70
0
 40
1.0
 71
1
 41
1.0
 91
-1023410177
 42
1.0
 72
1
  3

 73
1
 74
1
 75
1
 44
0.5
 73
0
 45
1.0
 46
1.0
 77
1
  4

 78
1
 79
1
170
1
 48
1.0
171
1
  6

172
1
173
1
174
1
140
1.0
141
1.0
175
1
  7

176
1
177
1
178
1
143
1.0
179
1
  8

270
1
271
1
272
1
145
1.0
146
1.0
273
1
  9

274
1
275
1
276
1
 42
1.0
 72
1
  3

 73
1
 74
1
 75
1
 94
63
  0
MATERIAL
  5
21
102
{ACAD_REACTORS
330
E
102
}
330
E
100
AcDbMaterial
  1
Global
  2

 70
0
 40
1.0
 71
1
 41
1.0
 91
-1023410177
 42
1.0
 72
1
  3

 73
1
 74
1
 75
1
 44
0.5
 73
0
 45
1.0
 46
1.0
 77
1
  4

 78
1
 79
1
170
1
 48
1.0
171
1
  6

172
1
173
1
174
1
140
1.0
141
1.0
175
1
  7

176
1
177
1
178
1
143
1.0
179
1
  8

270
1
271
1
272
1
145
1.0
146
1.0
273
1
  9

274
1
275
1
276
1
 42
1.0
 72
1
  3

 73
1
 74
1
 75
1
 94
63
  0
MLINESTYLE
  5
22
102
{ACAD_REACTORS
330
10
102
}
330
10
100
AcDbMlineStyle
  2
Standard
 70
0
  3

 62
256
 51
90.0
 52
90.0
 71
2
 49
0.5
 62
256
  6
BYLAYER
 49
-0.5
 62
256
  6
BYLAYER
  0
MLEADERSTYLE
  5
2C
102
{ACAD_REACTORS
330
F
102
}
330
F
100
AcDbMLeaderStyle
179
2
170
2
171
1
172
0
 90
2
 40
0.0
 41
0.0
173
1
 91
-1056964608
 92
-2
290
1
 42
2.0
291
1
 43
8.0
  3
Standard
 44
4.0
300

342
29
174
1
175
1
176
0
178
1
 93
-1056964608
 45
4.0
292
0
297
0
 46
4.0
 94
-1056964608
 47
1.0
 49
1.0
140
1.0
294
1
141
0.0
177
0
142
1.0
295
0
296
0
143
3.75
271
0
272
9
273
9
  0
DICTIONARY
  5
2D
330
A
100
AcDbDictionary
280
1
281
1
  3
CREATED_BY_EZDXF
350
2E
  3
WRITTEN_BY_EZDXF
350
80
  0
DICTIONARYVAR
  5
2E
330
2D
100
DictionaryVariables
280
0
  1
0.17 @ 2022-02-15T16:42:26.944706+00:00
  0
DICTIONARYVAR
  5
80
330
2D
100
DictionaryVariables
280
0
  1
0.17 @ 2022-02-15T16:42:27.153020+00:00
  0
ENDSEC
  0
EOF
