  0
SECTION
  2
HEADER
  9
$ACADVER
  1
AC1027
  9
$ACADMAINTVER
 70
105
  9
$DWGCODEPAGE
  3
ANSI_1252
  9
$LASTSAVEDBY
  1
ezdxf
  9
$REQUIREDVERSIONS
160
0
  9
$INSBASE
 10
0.0
 20
0.0
 30
0.0
  9
$EXTMIN
 10
1e+20
 20
1e+20
 30
1e+20
  9
$EXTMAX
 10
-1e+20
 20
-1e+20
 30
-1e+20
  9
$LIMMIN
 10
0.0
 20
0.0
  9
$LIMMAX
 10
420.0
 20
297.0
  9
$ORTHOMODE
 70
0
  9
$REGENMODE
 70
1
  9
$FILLMODE
 70
1
  9
$QTEXTMODE
 70
0
  9
$MIRRTEXT
 70
1
  9
$LTSCALE
 40
1.0
  9
$ATTMODE
 70
1
  9
$TEXTSIZE
 40
2.5
  9
$TRACEWID
 40
1.0
  9
$TEXTSTYLE
  7
Standard
  9
$CLAYER
  8
0
  9
$CELTYPE
  6
ByLayer
  9
$CECOLOR
 62
256
  9
$CELTSCALE
 40
1.0
  9
$DISPSILH
 70
0
  9
$DIMSCALE
 40
1.0
  9
$DIMASZ
 40
2.5
  9
$DIMEXO
 40
0.625
  9
$DIMDLI
 40
3.75
  9
$DIMRND
 40
0.0
  9
$DIMDLE
 40
0.0
  9
$DIMEXE
 40
1.25
  9
$DIMTP
 40
0.0
  9
$DIMTM
 40
0.0
  9
$DIMTXT
 40
2.5
  9
$DIMCEN
 40
2.5
  9
$DIMTSZ
 40
0.0
  9
$DIMTOL
 70
0
  9
$DIMLIM
 70
0
  9
$DIMTIH
 70
0
  9
$DIMTOH
 70
0
  9
$DIMSE1
 70
0
  9
$DIMSE2
 70
0
  9
$DIMTAD
 70
1
  9
$DIMZIN
 70
8
  9
$DIMBLK
  1

  9
$DIMASO
 70
1
  9
$DIMSHO
 70
1
  9
$DIMPOST
  1

  9
$DIMAPOST
  1

  9
$DIMALT
 70
0
  9
$DIMALTD
 70
3
  9
$DIMALTF
 40
0.03937007874
  9
$DIMLFAC
 40
1.0
  9
$DIMTOFL
 70
1
  9
$DIMTVP
 40
0.0
  9
$DIMTIX
 70
0
  9
$DIMSOXD
 70
0
  9
$DIMSAH
 70
0
  9
$DIMBLK1
  1

  9
$DIMBLK2
  1

  9
$DIMSTYLE
  2
ISO-25
  9
$DIMCLRD
 70
0
  9
$DIMCLRE
 70
0
  9
$DIMCLRT
 70
0
  9
$DIMTFAC
 40
1.0
  9
$DIMGAP
 40
0.625
  9
$DIMJUST
 70
0
  9
$DIMSD1
 70
0
  9
$DIMSD2
 70
0
  9
$DIMTOLJ
 70
0
  9
$DIMTZIN
 70
8
  9
$DIMALTZ
 70
0
  9
$DIMALTTZ
 70
0
  9
$DIMUPT
 70
0
  9
$DIMDEC
 70
2
  9
$DIMTDEC
 70
2
  9
$DIMALTU
 70
2
  9
$DIMALTTD
 70
3
  9
$DIMTXSTY
  7
Standard
  9
$DIMAUNIT
 70
0
  9
$DIMADEC
 70
0
  9
$DIMALTRND
 40
0.0
  9
$DIMAZIN
 70
0
  9
$DIMDSEP
 70
44
  9
$DIMATFIT
 70
3
  9
$DIMFRAC
 70
0
  9
$DIMLDRBLK
  1

  9
$DIMLUNIT
 70
2
  9
$DIMLWD
 70
-2
  9
$DIMLWE
 70
-2
  9
$DIMTMOVE
 70
0
  9
$DIMFXL
 40
1.0
  9
$DIMFXLON
 70
0
  9
$DIMJOGANG
 40
0.785398163397
  9
$DIMTFILL
 70
0
  9
$DIMTFILLCLR
 70
0
  9
$DIMARCSYM
 70
0
  9
$DIMLTYPE
  6

  9
$DIMLTEX1
  6

  9
$DIMLTEX2
  6

  9
$DIMTXTDIRECTION
 70
0
  9
$LUNITS
 70
2
  9
$LUPREC
 70
4
  9
$SKETCHINC
 40
1.0
  9
$FILLETRAD
 40
10.0
  9
$AUNITS
 70
0
  9
$AUPREC
 70
2
  9
$MENU
  1
.
  9
$ELEVATION
 40
0.0
  9
$PELEVATION
 40
0.0
  9
$THICKNESS
 40
0.0
  9
$LIMCHECK
 70
0
  9
$CHAMFERA
 40
0.0
  9
$CHAMFERB
 40
0.0
  9
$CHAMFERC
 40
0.0
  9
$CHAMFERD
 40
0.0
  9
$SKPOLY
 70
0
  9
$TDCREATE
 40
2459626.7378587965
  9
$TDUCREATE
 40
2458532.153996898
  9
$TDUPDATE
 40
2459626.7378587965
  9
$TDUUPDATE
 40
2458532.1544311
  9
$TDINDWG
 40
0.0
  9
$TDUSRTIMER
 40
0.0
  9
$USRTIMER
 70
1
  9
$ANGBASE
 50
0.0
  9
$ANGDIR
 70
0
  9
$PDMODE
 70
0
  9
$PDSIZE
 40
0.0
  9
$PLINEWID
 40
0.0
  9
$SPLFRAME
 70
0
  9
$SPLINETYPE
 70
6
  9
$SPLINESEGS
 70
8
  9
$HANDSEED
  5
81
  9
$SURFTAB1
 70
6
  9
$SURFTAB2
 70
6
  9
$SURFTYPE
 70
6
  9
$SURFU
 70
6
  9
$SURFV
 70
6
  9
$UCSBASE
  2

  9
$UCSNAME
  2

  9
$UCSORG
 10
0.0
 20
0.0
 30
0.0
  9
$UCSXDIR
 10
1.0
 20
0.0
 30
0.0
  9
$UCSYDIR
 10
0.0
 20
1.0
 30
0.0
  9
$UCSORTHOREF
  2

  9
$UCSORTHOVIEW
 70
0
  9
$UCSORGTOP
 10
0.0
 20
0.0
 30
0.0
  9
$UCSORGBOTTOM
 10
0.0
 20
0.0
 30
0.0
  9
$UCSORGLEFT
 10
0.0
 20
0.0
 30
0.0
  9
$UCSORGRIGHT
 10
0.0
 20
0.0
 30
0.0
  9
$UCSORGFRONT
 10
0.0
 20
0.0
 30
0.0
  9
$UCSORGBACK
 10
0.0
 20
0.0
 30
0.0
  9
$PUCSBASE
  2

  9
$PUCSNAME
  2

  9
$PUCSORG
 10
0.0
 20
0.0
 30
0.0
  9
$PUCSXDIR
 10
1.0
 20
0.0
 30
0.0
  9
$PUCSYDIR
 10
0.0
 20
1.0
 30
0.0
  9
$PUCSORTHOREF
  2

  9
$PUCSORTHOVIEW
 70
0
  9
$PUCSORGTOP
 10
0.0
 20
0.0
 30
0.0
  9
$PUCSORGBOTTOM
 10
0.0
 20
0.0
 30
0.0
  9
$PUCSORGLEFT
 10
0.0
 20
0.0
 30
0.0
  9
$PUCSORGRIGHT
 10
0.0
 20
0.0
 30
0.0
  9
$PUCSORGFRONT
 10
0.0
 20
0.0
 30
0.0
  9
$PUCSORGBACK
 10
0.0
 20
0.0
 30
0.0
  9
$USERI1
 70
0
  9
$USERI2
 70
0
  9
$USERI3
 70
0
  9
$USERI4
 70
0
  9
$USERI5
 70
0
  9
$USERR1
 40
0.0
  9
$USERR2
 40
0.0
  9
$USERR3
 40
0.0
  9
$USERR4
 40
0.0
  9
$USERR5
 40
0.0
  9
$WORLDVIEW
 70
1
  9
$SHADEDGE
 70
3
  9
$SHADEDIF
 70
70
  9
$TILEMODE
 70
1
  9
$MAXACTVP
 70
64
  9
$PINSBASE
 10
0.0
 20
0.0
 30
0.0
  9
$PLIMCHECK
 70
0
  9
$PEXTMIN
 10
1e+20
 20
1e+20
 30
1e+20
  9
$PEXTMAX
 10
-1e+20
 20
-1e+20
 30
-1e+20
  9
$PLIMMIN
 10
0.0
 20
0.0
  9
$PLIMMAX
 10
420.0
 20
297.0
  9
$UNITMODE
 70
0
  9
$VISRETAIN
 70
1
  9
$PLINEGEN
 70
0
  9
$PSLTSCALE
 70
1
  9
$TREEDEPTH
 70
3020
  9
$CMLSTYLE
  2
Standard
  9
$CMLJUST
 70
0
  9
$CMLSCALE
 40
20.0
  9
$PROXYGRAPHICS
 70
1
  9
$MEASUREMENT
 70
1
  9
$CELWEIGHT
370
-1
  9
$ENDCAPS
280
0
  9
$JOINSTYLE
280
0
  9
$LWDISPLAY
290
0
  9
$INSUNITS
 70
6
  9
$HYPERLINKBASE
  1

  9
$STYLESHEET
  1

  9
$XEDIT
290
1
  9
$CEPSNTYPE
380
0
  9
$PSTYLEMODE
290
1
  9
$FINGERPRINTGUID
  2
{B97E4A0F-9BA6-4CDC-8A33-EC0C7A39C77F}
  9
$VERSIONGUID
  2
{F4A9BF7A-2670-449E-81B1-1E64710316D2}
  9
$EXTNAMES
290
1
  9
$PSVPSCALE
 40
0.0
  9
$OLESTARTUP
290
0
  9
$SORTENTS
280
127
  9
$INDEXCTL
280
0
  9
$HIDETEXT
280
1
  9
$XCLIPFRAME
280
0
  9
$HALOGAP
280
0
  9
$OBSCOLOR
 70
257
  9
$OBSLTYPE
280
0
  9
$INTERSECTIONDISPLAY
280
0
  9
$INTERSECTIONCOLOR
 70
257
  9
$DIMASSOC
280
2
  9
$PROJECTNAME
  1

  9
$CAMERADISPLAY
290
0
  9
$LENSLENGTH
 40
50.0
  9
$CAMERAHEIGHT
 40
0.0
  9
$STEPSPERSEC
 40
24.0
  9
$STEPSIZE
 40
100.0
  9
$3DDWFPREC
 40
2.0
  9
$PSOLWIDTH
 40
0.005
  9
$PSOLHEIGHT
 40
0.08
  9
$LOFTANG1
 40
1.570796326795
  9
$LOFTANG2
 40
1.570796326795
  9
$LOFTMAG1
 40
0.0
  9
$LOFTMAG2
 40
0.0
  9
$LOFTPARAM
 70
7
  9
$LOFTNORMALS
280
1
  9
$LATITUDE
 40
37.795
  9
$LONGITUDE
 40
-122.394
  9
$NORTHDIRECTION
 40
0.0
  9
$TIMEZONE
 70
-8000
  9
$LIGHTGLYPHDISPLAY
280
1
  9
$TILEMODELIGHTSYNCH
280
1
  9
$CMATERIAL
347
20
  9
$SOLIDHIST
280
0
  9
$SHOWHIST
280
1
  9
$DWFFRAME
280
2
  9
$DGNFRAME
280
2
  9
$REALWORLDSCALE
290
1
  9
$INTERFERECOLOR
 62
256
  9
$CSHADOW
280
0
  9
$SHADOWPLANELOCATION
 40
0.0
  0
ENDSEC
  0
SECTION
  2
CLASSES
  0
CLASS
  1
ACDBDICTIONARYWDFLT
  2
AcDbDictionaryWithDefault
  3
ObjectDBX Classes
 90
0
 91
0
280
0
281
0
  0
CLASS
  1
SUN
  2
AcDbSun
  3
SCENEOE
 90
1153
 91
0
280
0
281
0
  0
CLASS
  1
VISUALSTYLE
  2
AcDbVisualStyle
  3
ObjectDBX Classes
 90
4095
 91
0
280
0
281
0
  0
CLASS
  1
MATERIAL
  2
AcDbMaterial
  3
ObjectDBX Classes
 90
1153
 91
0
280
0
281
0
  0
CLASS
  1
SCALE
  2
AcDbScale
  3
ObjectDBX Classes
 90
1153
 91
0
280
0
281
0
  0
CLASS
  1
TABLESTYLE
  2
AcDbTableStyle
  3
ObjectDBX Classes
 90
4095
 91
0
280
0
281
0
  0
CLASS
  1
MLEADERSTYLE
  2
AcDbMLeaderStyle
  3
ACDB_MLEADERSTYLE_CLASS
 90
4095
 91
0
280
0
281
0
  0
CLASS
  1
DICTIONARYVAR
  2
AcDbDictionaryVar
  3
ObjectDBX Classes
 90
0
 91
0
280
0
281
0
  0
CLASS
  1
CELLSTYLEMAP
  2
AcDbCellStyleMap
  3
ObjectDBX Classes
 90
1152
 91
0
280
0
281
0
  0
CLASS
  1
MENTALRAYRENDERSETTINGS
  2
AcDbMentalRayRenderSettings
  3
SCENEOE
 90
1024
 91
0
280
0
281
0
  0
CLASS
  1
ACDBDETAILVIEWSTYLE
  2
AcDbDetailViewStyle
  3
ObjectDBX Classes
 90
1025
 91
0
280
0
281
0
  0
CLASS
  1
ACDBSECTIONVIEWSTYLE
  2
AcDbSectionViewStyle
  3
ObjectDBX Classes
 90
1025
 91
0
280
0
281
0
  0
CLASS
  1
RASTERVARIABLES
  2
AcDbRasterVariables
  3
ISM
 90
0
 91
0
280
0
281
0
  0
CLASS
  1
ACDBPLACEHOLDER
  2
AcDbPlaceHolder
  3
ObjectDBX Classes
 90
0
 91
0
280
0
281
0
  0
CLASS
  1
LAYOUT
  2
AcDbLayout
  3
ObjectDBX Classes
 90
0
 91
0
280
0
281
0
  0
ENDSEC
  0
SECTION
  2
TABLES
  0
TABLE
  2
VPORT
  5
8
330
0
100
AcDbSymbolTable
 70
1
  0
VPORT
  5
23
330
8
100
AcDbSymbolTableRecord
100
AcDbViewportTableRecord
  2
*Active
 70
0
 10
0.0
 20
0.0
 11
1.0
 21
1.0
 12
344.2
 22
148.5
 13
0.0
 23
0.0
 14
0.5
 24
0.5
 15
0.5
 25
0.5
 16
0.0
 26
0.0
 36
1.0
 17
0.0
 27
0.0
 37
0.0
 40
297.0
 41
1.34
 42
50.0
 43
0.0
 44
0.0
 50
0.0
 51
0.0
 71
0
 72
1000
 73
1
 74
3
 75
0
 76
0
 77
0
 78
0
281
0
 65
0
146
0.0
  0
ENDTAB
  0
TABLE
  2
LTYPE
  5
2
330
0
100
AcDbSymbolTable
 70
3
  0
LTYPE
  5
24
330
2
100
AcDbSymbolTableRecord
100
AcDbLinetypeTableRecord
  2
ByBlock
 70
0
  3

 72
65
 73
0
 40
0.0
  0
LTYPE
  5
25
330
2
100
AcDbSymbolTableRecord
100
AcDbLinetypeTableRecord
  2
ByLayer
 70
0
  3

 72
65
 73
0
 40
0.0
  0
LTYPE
  5
26
330
2
100
AcDbSymbolTableRecord
100
AcDbLinetypeTableRecord
  2
Continuous
 70
0
  3

 72
65
 73
0
 40
0.0
  0
ENDTAB
  0
TABLE
  2
LAYER
  5
1
330
0
100
AcDbSymbolTable
 70
2
  0
LAYER
  5
27
330
1
100
AcDbSymbolTableRecord
100
AcDbLayerTableRecord
  2
0
 70
0
 62
7
  6
Continuous
370
-3
390
13
347
21
  0
LAYER
  5
28
330
1
100
AcDbSymbolTableRecord
100
AcDbLayerTableRecord
  2
Defpoints
 70
0
 62
7
  6
Continuous
290
0
370
-3
390
13
347
21
  0
ENDTAB
  0
TABLE
  2
STYLE
  5
5
330
0
100
AcDbSymbolTable
 70
1
  0
STYLE
  5
29
330
5
100
AcDbSymbolTableRecord
100
AcDbTextStyleTableRecord
  2
Standard
 70
0
 40
0.0
 41
1.0
 50
0.0
 71
0
 42
2.5
  3
txt
  4

  0
ENDTAB
  0
TABLE
  2
VIEW
  5
7
330
0
100
AcDbSymbolTable
 70
0
  0
ENDTAB
  0
TABLE
  2
UCS
  5
6
330
0
100
AcDbSymbolTable
 70
0
  0
ENDTAB
  0
TABLE
  2
APPID
  5
3
330
0
100
AcDbSymbolTable
 70
3
  0
APPID
  5
2A
330
3
100
AcDbSymbolTableRecord
100
AcDbRegAppTableRecord
  2
ACAD
 70
0
  0
APPID
  5
7E
330
3
100
AcDbSymbolTableRecord
100
AcDbRegAppTableRecord
  2
HATCHBACKGROUNDCOLOR
 70
0
  0
APPID
  5
7F
330
3
100
AcDbSymbolTableRecord
100
AcDbRegAppTableRecord
  2
EZDXF
 70
0
  0
ENDTAB
  0
TABLE
  2
DIMSTYLE
  5
4
330
0
100
AcDbSymbolTable
 70
1
100
AcDbDimStyleTable
  0
DIMSTYLE
105
2B
330
4
100
AcDbSymbolTableRecord
100
AcDbDimStyleTableRecord
  2
Standard
 70
0
 40
1.0
 41
2.5
 42
0.625
 43
3.75
 44
1.25
 45
0.0
 46
0.0
 47
0.0
 48
0.0
 49
2.5
140
2.5
141
2.5
142
0.0
143
0.03937007874
144
1.0
145
0.0
146
1.0
147
0.625
148
0.0
 69
0
 70
0
 71
0
 72
0
 73
0
 74
0
 75
0
 76
0
 77
1
 78
8
 79
0
170
0
171
3
172
1
173
0
174
0
175
0
176
0
177
0
178
0
179
0
271
0
272
2
273
2
274
3
275
0
276
0
277
2
278
44
279
0
280
0
281
0
282
0
283
0
284
8
285
0
286
0
288
0
289
3
290
0
371
-2
372
-2
  0
ENDTAB
  0
TABLE
  2
BLOCK_RECORD
  5
9
330
0
100
AcDbSymbolTable
 70
2
  0
BLOCK_RECORD
  5
17
330
9
100
AcDbSymbolTableRecord
100
AcDbBlockTableRecord
  2
*Model_Space
340
1A
 70
0
280
1
281
0
  0
BLOCK_RECORD
  5
1B
330
9
100
AcDbSymbolTableRecord
100
AcDbBlockTableRecord
  2
*Paper_Space
340
1E
 70
0
280
1
281
0
  0
ENDTAB
  0
ENDSEC
  0
SECTION
  2
BLOCKS
  0
BLOCK
  5
18
330
17
100
AcDbEntity
  8
0
100
AcDbBlockBegin
  2
*Model_Space
 70
0
 10
0.0
 20
0.0
 30
0.0
  3
*Model_Space
  1

  0
ENDBLK
  5
19
330
17
100
AcDbEntity
  8
0
100
AcDbBlockEnd
  0
BLOCK
  5
1C
330
1B
100
AcDbEntity
  8
0
100
AcDbBlockBegin
  2
*Paper_Space
 70
0
 10
0.0
 20
0.0
 30
0.0
  3
*Paper_Space
  1

  0
ENDBLK
  5
1D
330
1B
100
AcDbEntity
  8
0
100
AcDbBlockEnd
  0
ENDSEC
  0
SECTION
  2
ENTITIES
  0
SPLINE
  5
2F
330
17
100
AcDbEntity
  8
0
100
AcDbSpline
 70
0
 71
8
 72
74
 73
65
 74
0
 40
0.0
 40
0.0
 40
0.0
 40
0.0
 40
0.0
 40
0.0
 40
0.0
 40
0.0
 40
0.0
 40
0.035878212928652786
 40
0.035878212928652786
 40
0.035878212928652786
 40
0.035878212928652786
 40
0.035878212928652786
 40
0.035878212928652786
 40
0.035878212928652786
 40
0.1550862839647524
 40
0.1550862839647524
 40
0.1550862839647524
 40
0.1550862839647524
 40
0.1550862839647524
 40
0.1550862839647524
 40
0.1550862839647524
 40
0.22455189573372006
 40
0.22455189573372006
 40
0.22455189573372006
 40
0.22455189573372006
 40
0.22455189573372006
 40
0.22455189573372006
 40
0.22455189573372006
 40
0.3061741585529078
 40
0.3061741585529078
 40
0.3061741585529078
 40
0.3061741585529078
 40
0.3061741585529078
 40
0.3061741585529078
 40
0.3061741585529078
 40
0.33873842259791054
 40
0.33873842259791054
 40
0.33873842259791054
 40
0.33873842259791054
 40
0.33873842259791054
 40
0.33873842259791054
 40
0.33873842259791054
 40
0.3674447825827391
 40
0.3674447825827391
 40
0.3674447825827391
 40
0.3674447825827391
 40
0.3674447825827391
 40
0.3674447825827391
 40
0.3674447825827391
 40
0.6038832155207643
 40
0.6038832155207643
 40
0.6038832155207643
 40
0.6038832155207643
 40
0.6038832155207643
 40
0.6038832155207643
 40
0.6038832155207643
 40
0.7864219608010958
 40
0.7864219608010958
 40
0.7864219608010958
 40
0.7864219608010958
 40
0.7864219608010958
 40
0.7864219608010958
 40
0.7864219608010958
 40
1.0
 40
1.0
 40
1.0
 40
1.0
 40
1.0
 40
1.0
 40
1.0
 40
1.0
 40
1.0
 10
42.648036861008464
 20
235.89999997296093
 30
1445.0
 10
42.52242710238325
 20
236.05658698690644
 30
1445.0
 10
42.395418519255024
 20
236.2120476983328
 30
1445.0
 10
42.26698179828668
 20
236.36633448158318
 30
1445.0
 10
42.1370869894521
 20
236.5193972631177
 30
1445.0
 10
42.005703454861454
 20
236.6711834825725
 30
1445.0
 10
41.8727998129738
 20
236.82163805023384
 30
1445.0
 10
41.73834387819714
 20
236.9707033009278
 30
1445.0
 10
41.15029516509714
 20
237.60878306356946
 30
1445.0
 10
40.680920202037235
 20
238.08309840186945
 30
1445.0
 10
40.1929624297514
 20
238.53909366622284
 30
1445.0
 10
39.68540469889882
 20
238.97393780772666
 30
1445.0
 10
39.15749826910436
 20
239.38423599251837
 30
1445.0
 10
38.60885309200593
 20
239.76614960527155
 30
1445.0
 10
38.03962156924087
 20
240.11563687214817
 30
1445.0
 10
37.107756476448316
 20
240.61146340844888
 30
1445.0
 10
36.75805893242369
 20
240.78170267558335
 30
1445.0
 10
36.4020727427964
 20
240.9388270407471
 30
1445.0
 10
36.04019077973437
 20
241.08210508484544
 30
1445.0
 10
35.67289385252846
 20
241.21090567270278
 30
1445.0
 10
35.30076188879345
 20
241.32472820531257
 30
1445.0
 10
34.92448511566897
 20
241.42323287208697
 30
1445.0
 10
34.09883271482258
 20
241.60384079156302
 30
1445.0
 10
33.64805194380705
 20
241.68008704475324
 30
1445.0
 10
33.19387561179827
 20
241.73473712552402
 30
1445.0
 10
32.737554678209456
 20
241.76796364537432
 30
1445.0
 10
32.28024503616608
 20
241.78030421207205
 30
1445.0
 10
31.823003784849604
 20
241.77258308683872
 30
1445.0
 10
31.366785116061614
 20
241.74583465110055
 30
1445.0
 10
30.73116724811081
 20
241.68343255122107
 30
1445.0
 10
30.549961459118606
 20
241.6627709967363
 30
1445.0
 10
30.36882292579863
 20
241.63930051238685
 30
1445.0
 10
30.18775612591811
 20
241.61307759120683
 30
1445.0
 10
30.00676553724463
 20
241.58415872623092
 30
1445.0
 10
29.82585563754604
 20
241.5526004104937
 30
1445.0
 10
29.64503090459056
 20
241.51845913703013
 30
1445.0
 10
29.304972500760567
 20
241.44946770533696
 30
1445.0
 10
29.146039382783655
 20
241.41523499136082
 30
1445.0
 10
28.987506170652473
 20
241.37916397923573
 30
1445.0
 10
28.8293836645972
 20
241.34131563679003
 30
1445.0
 10
28.671683756641638
 20
241.30174117739213
 30
1445.0
 10
28.514419430603223
 20
241.26048205995042
 30
1445.0
 10
28.357604762093032
 20
241.21756998891325
 30
1445.0
 10
26.913487607542024
 20
240.8061502091528
 30
1445.0
 10
25.65785896253931
 20
240.3281294152419
 30
1445.0
 10
24.443380275393437
 20
239.74782063690859
 30
1445.0
 10
23.277114948321092
 20
239.07442827029695
 30
1445.0
 10
22.16441521043734
 20
238.31708010279544
 30
1445.0
 10
21.109070796916875
 20
237.48458864312397
 30
1445.0
 10
20.11345146819686
 20
236.5852358596773
 30
1445.0
 10
18.457083889389796
 20
234.88617794935354
 30
1445.0
 10
17.77179314901907
 20
234.1105523581064
 30
1445.0
 10
17.123387977053067
 20
233.3029638619439
 30
1445.0
 10
16.512095498699733
 20
232.4666530740939
 30
1445.0
 10
15.937860880683186
 20
231.60466201396022
 30
1445.0
 10
15.400380119618257
 20
230.71981188617147
 30
1445.0
 10
14.899139750955321
 20
229.81467571480772
 30
1445.0
 10
13.88860257775472
 20
227.81144489412145
 30
1445.0
 10
13.39248982617022
 20
226.70683259007833
 30
1445.0
 10
12.944000525111909
 20
225.58134425856807
 30
1445.0
 10
12.541813016055784
 20
224.43828569779177
 30
1445.0
 10
12.184445020145118
 20
223.28062275871662
 30
1445.0
 10
11.87029751801786
 20
222.11096764333595
 30
1445.0
 10
11.59770616989999
 20
220.93156190873282
 30
1445.0
 10
11.365000275964832
 20
219.74425617694848
 30
1445.0
  0
LINE
  5
30
330
17
100
AcDbEntity
  8
0
100
AcDbLine
 10
29.604970708992006
 20
235.9
 30
1445.0
 11
42.64803689471583
 21
235.9
 31
1445.0
  0
SPLINE
  5
31
330
17
100
AcDbEntity
  8
0
100
AcDbSpline
 70
0
 71
1
 72
4
 73
2
 74
0
 40
0.0
 40
0.0
 40
1.0
 40
1.0
 10
29.604970708819934
 20
235.9000006000011
 30
1445.0
 10
29.604970708819927
 20
232.09999939999986
 30
1445.0
  0
LINE
  5
32
330
17
100
AcDbEntity
  8
0
100
AcDbLine
 10
29.604970708992006
 20
232.1
 30
1445.0
 11
45.24379396904433
 21
232.1
 31
1445.0
  0
SPLINE
  5
33
330
17
100
AcDbEntity
  8
0
100
AcDbSpline
 70
0
 71
8
 72
53
 73
44
 74
0
 40
0.0
 40
0.0
 40
0.0
 40
0.0
 40
0.0
 40
0.0
 40
0.0
 40
0.0
 40
0.0
 40
0.0238027668941591
 40
0.0238027668941591
 40
0.0238027668941591
 40
0.0238027668941591
 40
0.0238027668941591
 40
0.0238027668941591
 40
0.0238027668941591
 40
0.2010888539834064
 40
0.2010888539834064
 40
0.2010888539834064
 40
0.2010888539834064
 40
0.2010888539834064
 40
0.2010888539834064
 40
0.2010888539834064
 40
0.33405341930025806
 40
0.33405341930025806
 40
0.33405341930025806
 40
0.33405341930025806
 40
0.33405341930025806
 40
0.33405341930025806
 40
0.33405341930025806
 40
0.5430053155935084
 40
0.5430053155935084
 40
0.5430053155935084
 40
0.5430053155935084
 40
0.5430053155935084
 40
0.5430053155935084
 40
0.5430053155935084
 40
0.7395578828945522
 40
0.7395578828945522
 40
0.7395578828945522
 40
0.7395578828945522
 40
0.7395578828945522
 40
0.7395578828945522
 40
0.7395578828945522
 40
1.0
 40
1.0
 40
1.0
 40
1.0
 40
1.0
 40
1.0
 40
1.0
 40
1.0
 40
1.0
 10
53.71101426215965
 20
209.89999999648313
 30
1445.0000000000002
 10
53.68926871795937
 20
209.98006991951846
 30
1445.0000000000002
 10
53.66748647468697
 20
210.0601299152095
 30
1445.0000000000002
 10
53.64566733731005
 20
210.14017991478568
 30
1445.0000000000002
 10
53.62381110851365
 20
210.2202198487464
 30
1445.0000000000002
 10
53.601917588654146
 20
210.30024964684975
 30
1445.0000000000002
 10
53.57998657571188
 20
210.38026923810094
 30
1445.0000000000002
 10
53.55801786524223
 20
210.4602785507402
 30
1445.0000000000002
 10
53.37210313552199
 20
211.13612012653442
 30
1445.0
 10
53.20778234268204
 20
211.72524472313685
 30
1445.0
 10
53.04305714882628
 20
212.30757690038595
 30
1445.0
 10
52.87793583097556
 20
212.88304225662958
 30
1445.0
 10
52.712426666150606
 20
213.4515663902151
 30
1445.0
 10
52.54653793137205
 20
214.0130748994892
 30
1445.0
 10
52.38027790366044
 20
214.56749338279835
 30
1445.0
 10
52.08868757731811
 20
215.52518798025625
 30
1445.0
 10
51.96351609814902
 20
215.93159853148862
 30
1445.0
 10
51.838143914397
 20
216.33394770398803
 30
1445.0
 10
51.71257451792996
 20
216.73220410955648
 30
1445.0
 10
51.5868114006158
 20
217.1263363599961
 30
1445.0
 10
51.46085805432237
 20
217.51631306710888
 30
1445.0
 10
51.334717970917445
 20
217.90210284269693
 30
1445.0
 10
51.00987935359523
 20
218.88330833703236
 30
1445.0
 10
50.80786018378578
 20
219.48177696361873
 30
1445.0
 10
50.60207562812908
 20
220.07896922983798
 30
1445.0
 10
50.392363059670394
 20
220.67480054633543
 30
1445.0
 10
50.17856477906142
 20
221.26918013666221
 30
1445.0
 10
49.96048206776702
 20
221.86199527994182
 30
1445.0
 10
49.73787724462948
 20
222.45311234242448
 30
1445.0
 10
49.29666149909776
 20
223.59670849619914
 30
1445.0
 10
49.08235163602721
 20
224.13966008303643
 30
1445.0
 10
48.86760288218813
 20
224.67135969640475
 30
1445.0
 10
48.65242398319065
 20
225.19191767426452
 30
1445.0
 10
48.43682368464515
 20
225.70144435457544
 30
1445.0
 10
48.22081073216235
 20
226.20005007529605
 30
1445.0
 10
48.004393871353265
 20
226.68784517438388
 30
1445.0
 10
47.500294924051445
 20
227.7971148094485
 30
1445.0
 10
47.20537857816174
 20
228.4257633854929
 30
1445.0
 10
46.90232881212124
 20
229.0505834546133
 30
1445.0
 10
46.59059699742763
 20
229.67118123539723
 30
1445.0
 10
46.26958481586186
 20
230.28706893482317
 30
1445.0
 10
45.93863072515614
 20
230.8976575739898
 30
1445.0
 10
45.59698794958308
 20
231.50224513308774
 30
1445.0
 10
45.24379399546593
 20
232.10000001561173
 30
1445.0
  0
LINE
  5
34
330
17
100
AcDbEntity
  8
0
100
AcDbLine
 10
29.604970708992006
 20
209.9
 30
1445.0
 11
53.71101427510931
 21
209.9
 31
1445.0
  0
SPLINE
  5
35
330
17
100
AcDbEntity
  8
0
100
AcDbSpline
 70
0
 71
1
 72
4
 73
2
 74
0
 40
0.0
 40
0.0
 40
1.0
 40
1.0
 10
29.604970708819927
 20
209.90000060000008
 30
1445.0
 10
29.604970708819927
 20
206.09999939999994
 30
1445.0
  0
LINE
  5
36
330
17
100
AcDbEntity
  8
0
100
AcDbLine
 10
29.604970708992006
 20
206.1
 30
1445.0
 11
54.70667577853966
 21
206.1
 31
1445.0
  0
SPLINE
  5
37
330
17
100
AcDbEntity
  8
0
100
AcDbSpline
 70
0
 71
8
 72
25
 73
16
 74
0
 40
0.0
 40
0.0
 40
0.0
 40
0.0
 40
0.0
 40
0.0
 40
0.0
 40
0.0
 40
0.0
 40
0.4175126695974128
 40
0.4175126695974128
 40
0.4175126695974128
 40
0.4175126695974128
 40
0.4175126695974128
 40
0.4175126695974128
 40
0.4175126695974128
 40
1.0
 40
1.0
 40
1.0
 40
1.0
 40
1.0
 40
1.0
 40
1.0
 40
1.0
 40
1.0
 10
59.491532833139274
 20
183.90000000162775
 30
1445.0
 10
59.27460281868629
 20
185.0654045018652
 30
1445.0
 10
59.05447055615899
 20
186.2302120191872
 30
1445.0
 10
58.83102901238995
 20
187.39439150864757
 30
1445.0
 10
58.604161445245055
 20
188.55790877739366
 30
1445.0
 10
58.37373993406116
 20
189.72072620769265
 30
1445.0
 10
58.139623502715864
 20
190.8828024032313
 30
1445.0
 10
57.90165565805862
 20
192.04409172466293
 30
1445.0
 10
57.32204572224601
 20
194.82353302121226
 30
1444.9999999999998
 10
56.97660309189056
 20
196.44084234704022
 30
1445.0
 10
56.622852448642966
 20
198.05636359552616
 30
1445.0
 10
56.26024424525572
 20
199.66994465088595
 30
1445.0
 10
55.88814724748763
 20
201.28138626557293
 30
1445.0
 10
55.50581731818913
 20
202.89043432732487
 30
1445.0
 10
55.112365730412286
 20
204.49677212399843
 30
1445.0
 10
54.70667578107903
 20
206.10000000064252
 30
1445.0
  0
LINE
  5
38
330
17
100
AcDbEntity
  8
0
100
AcDbLine
 10
29.604970708992006
 20
183.9
 30
1445.0
 11
59.49153282439429
 21
183.9
 31
1445.0
  0
SPLINE
  5
39
330
17
100
AcDbEntity
  8
0
100
AcDbSpline
 70
0
 71
1
 72
4
 73
2
 74
0
 40
0.0
 40
0.0
 40
1.0
 40
1.0
 10
29.604970708819927
 20
183.90000060000014
 30
1445.0
 10
29.604970708819927
 20
180.0999993999999
 30
1445.0
  0
LINE
  5
3A
330
17
100
AcDbEntity
  8
0
100
AcDbLine
 10
29.604970708992006
 20
180.1
 30
1445.0
 11
60.183887526146776
 21
180.1
 31
1445.0
  0
SPLINE
  5
3B
330
17
100
AcDbEntity
  8
0
100
AcDbSpline
 70
0
 71
8
 72
25
 73
16
 74
0
 40
0.0
 40
0.0
 40
0.0
 40
0.0
 40
0.0
 40
0.0
 40
0.0
 40
0.0
 40
0.0
 40
0.6684257559575364
 40
0.6684257559575364
 40
0.6684257559575364
 40
0.6684257559575364
 40
0.6684257559575364
 40
0.6684257559575364
 40
0.6684257559575364
 40
1.0
 40
1.0
 40
1.0
 40
1.0
 40
1.0
 40
1.0
 40
1.0
 40
1.0
 40
1.0
 10
63.71817077055785
 20
157.89999999716642
 30
1445.0
 10
63.45387535742013
 20
159.75965971080728
 30
1445.0
 10
63.18418793289143
 20
161.61854981643535
 30
1445.0
 10
62.908970485603376
 20
163.47663134067474
 30
1445.0
 10
62.6280679074282
 20
165.33386168217385
 30
1445.0
 10
62.34130551458887
 20
167.19019426746584
 30
1445.0
 10
62.04848581405383
 20
169.0455781032898
 30
1445.0
 10
61.749384168201445
 20
170.89995717696348
 30
1445.0
 10
61.29212861519143
 20
173.6726098310561
 30
1445.0
 10
61.138906198623204
 20
174.5916816811912
 30
1445.0
 10
60.98404401155359
 20
175.51047776917636
 30
1445.0
 10
60.82750863874422
 20
176.4289898316668
 30
1445.0
 10
60.66926453741647
 20
177.34720870218538
 30
1445.0
 10
60.50927381039716
 20
178.2651242678801
 30
1445.0
 10
60.347495950112005
 20
179.18272542103176
 30
1445.0
 10
60.18388752057007
 20
180.09999999900532
 30
1445.0
  0
LINE
  5
3C
330
17
100
AcDbEntity
  8
0
100
AcDbLine
 10
29.604970708992006
 20
157.9
 30
1445.0
 11
63.718170790496536
 21
157.9
 31
1445.0
  0
SPLINE
  5
3D
330
17
100
AcDbEntity
  8
0
100
AcDbSpline
 70
0
 71
1
 72
4
 73
2
 74
0
 40
0.0
 40
0.0
 40
1.0
 40
1.0
 10
29.604970708819927
 20
157.90000060000042
 30
1445.0
 10
29.604970708819927
 20
154.09999939999918
 30
1445.0
  0
LINE
  5
3E
330
17
100
AcDbEntity
  8
0
100
AcDbLine
 10
29.604970708992006
 20
154.1
 30
1445.0
 11
64.24831422435959
 21
154.1
 31
1445.0
  0
SPLINE
  5
3F
330
17
100
AcDbEntity
  8
0
100
AcDbSpline
 70
0
 71
8
 72
18
 73
9
 74
0
 40
0.0
 40
0.0
 40
0.0
 40
0.0
 40
0.0
 40
0.0
 40
0.0
 40
0.0
 40
0.0
 40
1.0
 40
1.0
 40
1.0
 40
1.0
 40
1.0
 40
1.0
 40
1.0
 40
1.0
 40
1.0
 10
66.97788293860006
 20
131.89999999999725
 30
1445.0
 10
66.67315209320302
 20
134.67931996501304
 30
1445.0
 10
66.35835617721384
 20
137.4575289075039
 30
1445.0
 10
66.03337442164693
 20
140.23458059078254
 30
1445.0
 10
65.69804504682324
 20
143.01041701488154
 30
1445.0
 10
65.35216182636408
 20
145.78496791609751
 30
1445.0
 10
64.99546795789772
 20
148.55814988132568
 30
1445.0
 10
64.627648150632
 20
151.3298652284434
 30
1445.0
 10
64.24831426680507
 20
154.10000000581232
 30
1445.0
  0
LINE
  5
40
330
17
100
AcDbEntity
  8
0
100
AcDbLine
 10
29.604970708992006
 20
131.9
 30
1445.0
 11
66.9778829386252
 21
131.9
 31
1445.0
  0
SPLINE
  5
41
330
17
100
AcDbEntity
  8
0
100
AcDbSpline
 70
0
 71
1
 72
4
 73
2
 74
0
 40
0.0
 40
0.0
 40
1.0
 40
1.0
 10
29.604970708819934
 20
131.90000060000256
 30
1445.0
 10
29.604970708819934
 20
128.09999939999764
 30
1445.0
  0
LINE
  5
42
330
17
100
AcDbEntity
  8
0
100
AcDbLine
 10
29.604970708992006
 20
128.1
 30
1445.0
 11
67.38622883746592
 21
128.1
 31
1445.0
  0
SPLINE
  5
43
330
17
100
AcDbEntity
  8
0
100
AcDbSpline
 70
0
 71
8
 72
39
 73
30
 74
0
 40
0.0
 40
0.0
 40
0.0
 40
0.0
 40
0.0
 40
0.0
 40
0.0
 40
0.0
 40
0.0
 40
0.17578025928277208
 40
0.17578025928277208
 40
0.17578025928277208
 40
0.17578025928277208
 40
0.17578025928277208
 40
0.17578025928277208
 40
0.17578025928277208
 40
0.5180969134422801
 40
0.5180969134422801
 40
0.5180969134422801
 40
0.5180969134422801
 40
0.5180969134422801
 40
0.5180969134422801
 40
0.5180969134422801
 40
0.8171131976409625
 40
0.8171131976409625
 40
0.8171131976409625
 40
0.8171131976409625
 40
0.8171131976409625
 40
0.8171131976409625
 40
0.8171131976409625
 40
1.0
 40
1.0
 40
1.0
 40
1.0
 40
1.0
 40
1.0
 40
1.0
 40
1.0
 40
1.0
 10
69.44945633078402
 20
105.9000000021691
 30
1445.0
 10
69.40979372324306
 20
106.38946822750118
 30
1445.0
 10
69.36985159390588
 20
106.8789137940048
 30
1445.0
 10
69.32962893700454
 20
107.36833643319424
 30
1445.0
 10
69.28912474276662
 20
107.85773587399082
 30
1445.0
 10
69.2483379973839
 20
108.34711184272051
 30
1445.0
 10
69.2072676829809
 20
108.83646406311163
 30
1445.0
 10
69.16591277758349
 20
109.32579225629243
 30
1445.0
 10
69.04318098581487
 20
110.76797258602487
 30
1445.0
 10
68.96104759590062
 20
111.72027438112544
 30
1445.0
 10
68.87786684043627
 20
112.67199474471876
 30
1445.0
 10
68.79363347451337
 20
113.62312689543306
 30
1445.0
 10
68.70834225322348
 20
114.57366405189677
 30
1445.0
 10
68.62198793165815
 20
115.52359943273818
 30
1445.0
 10
68.53456526490899
 20
116.4729262565856
 30
1445.0
 10
68.36876683312316
 20
118.25034467092482
 30
1445.0
 10
68.2906103539884
 20
119.07897190916349
 30
1445.0
 10
68.21159213440995
 20
119.90751769493862
 30
1445.0
 10
68.13170628995636
 20
120.73598040288202
 30
1445.0
 10
68.0509484880179
 20
121.56435854410228
 30
1445.0
 10
67.9693159478066
 20
122.39265076618452
 30
1445.0
 10
67.88680744035635
 20
123.22085585319053
 30
1445.0
 10
67.75242318684896
 20
124.55547238734493
 30
1445.0
 10
67.70109546448268
 20
125.06193774933506
 30
1445.0
 10
67.6494398112555
 20
125.56836865522061
 30
1445.0
 10
67.59745587478442
 20
126.07476493608485
 30
1445.0
 10
67.54514326047196
 20
126.58112641050268
 30
1445.0
 10
67.49250153135964
 20
127.08745288451894
 30
1445.0
 10
67.43953020785358
 20
127.59374415160791
 30
1445.0
 10
67.38622876733481
 20
128.09999999261626
 30
1445.0
  0
LINE
  5
44
330
17
100
AcDbEntity
  8
0
100
AcDbLine
 10
29.604970708992006
 20
105.9
 30
1445.0
 11
69.4494563040153
 21
105.9
 31
1445.0
  0
SPLINE
  5
45
330
17
100
AcDbEntity
  8
0
100
AcDbSpline
 70
0
 71
1
 72
4
 73
2
 74
0
 40
0.0
 40
0.0
 40
1.0
 40
1.0
 10
29.604970708819927
 20
105.90000060000206
 30
1445.0
 10
29.604970708819934
 20
102.09999939999993
 30
1445.0
  0
LINE
  5
46
330
17
100
AcDbEntity
  8
0
100
AcDbLine
 10
29.604970708992006
 20
102.1
 30
1445.0
 11
69.75001348438789
 21
102.1
 31
1445.0
  0
SPLINE
  5
47
330
17
100
AcDbEntity
  8
0
100
AcDbSpline
 70
0
 71
8
 72
25
 73
16
 74
0
 40
0.0
 40
0.0
 40
0.0
 40
0.0
 40
0.0
 40
0.0
 40
0.0
 40
0.0
 40
0.0
 40
0.3979464844879124
 40
0.3979464844879124
 40
0.3979464844879124
 40
0.3979464844879124
 40
0.3979464844879124
 40
0.3979464844879124
 40
0.3979464844879124
 40
1.0
 40
1.0
 40
1.0
 40
1.0
 40
1.0
 40
1.0
 40
1.0
 40
1.0
 40
1.0
 10
71.2258523957233
 20
79.90000000003455
 30
1445.0
 10
71.16370910719006
 20
81.005009303519
 30
1445.0
 10
71.1003368165151
 20
82.10994980409495
 30
1445.0
 10
71.0357253721082
 20
83.21481944030914
 30
1445.0
 10
70.96986453736761
 20
84.31961611402757
 30
1445.0
 10
70.90274398886642
 20
85.42433769038108
 30
1445.0
 10
70.83435331449071
 20
86.52898199770965
 30
1445.0
 10
70.764682011527
 20
87.63354682750486
 30
1445.0
 10
70.58636022807914
 20
90.40900320141183
 30
1445.0
 10
70.4760457211943
 20
92.07978643626666
 30
1445.0
 10
70.36273933107718
 20
93.75037122883366
 30
1445.0
 10
70.2464039578831
 20
95.42074882412285
 30
1445.0
 10
70.12700202040993
 20
97.09091012115024
 30
1445.0
 10
70.00449544162083
 20
98.7608456718524
 30
1445.0
 10
69.878845634167
 20
100.43054568000102
 30
1445.0
 10
69.75001348591032
 20
102.10000000011746
 30
1445.0
  0
LINE
  5
48
330
17
100
AcDbEntity
  8
0
100
AcDbLine
 10
29.604970708992006
 20
79.9
 30
1445.0
 11
71.22585239510924
 21
79.9
 31
1445.0
  0
SPLINE
  5
49
330
17
100
AcDbEntity
  8
0
100
AcDbSpline
 70
0
 71
1
 72
4
 73
2
 74
0
 40
0.0
 40
0.0
 40
1.0
 40
1.0
 10
29.604970708819934
 20
79.90000060000001
 30
1445.0
 10
29.604970708819934
 20
76.09999939999999
 30
1445.0
  0
LINE
  5
4A
330
17
100
AcDbEntity
  8
0
100
AcDbLine
 10
29.604970708992006
 20
76.1
 30
1445.0
 11
71.43322398253069
 21
76.1
 31
1445.0
  0
SPLINE
  5
4B
330
17
100
AcDbEntity
  8
0
100
AcDbSpline
 70
0
 71
8
 72
18
 73
9
 74
0
 40
0.0
 40
0.0
 40
0.0
 40
0.0
 40
0.0
 40
0.0
 40
0.0
 40
0.0
 40
0.0
 40
1.0
 40
1.0
 40
1.0
 40
1.0
 40
1.0
 40
1.0
 40
1.0
 40
1.0
 40
1.0
 10
72.40391170489293
 20
53.89999999981423
 30
1445.0
 10
72.30697197133242
 20
56.676001018100834
 30
1445.0
 10
72.20335478096192
 20
59.45176789074496
 30
1445.0
 10
72.09291710458126
 20
62.22727648341258
 30
1445.0
 10
71.97551329726792
 20
65.0025012289055
 30
1445.0
 10
71.85099495353504
 20
67.77741512290072
 30
1445.0
 10
71.71921075419144
 20
70.551989719424
 30
1445.0
 10
71.58000630330193
 20
73.32619512600633
 30
1445.0
 10
71.4332239536452
 20
76.09999999847149
 30
1445.0
  0
LINE
  5
4C
330
17
100
AcDbEntity
  8
0
100
AcDbLine
 10
29.604970708992006
 20
53.9
 30
1445.0
 11
72.40391171021245
 21
53.9
 31
1445.0
  0
SPLINE
  5
4D
330
17
100
AcDbEntity
  8
0
100
AcDbSpline
 70
0
 71
1
 72
4
 73
2
 74
0
 40
0.0
 40
0.0
 40
1.0
 40
1.0
 10
29.604970708819934
 20
53.90000060000026
 30
1445.0
 10
29.604970708819927
 20
50.09999939999937
 30
1445.0
  0
LINE
  5
4E
330
17
100
AcDbEntity
  8
0
100
AcDbLine
 10
29.604970708992006
 20
50.1
 30
1445.0
 11
72.53117000613457
 21
50.1
 31
1445.0
  0
SPLINE
  5
4F
330
17
100
AcDbEntity
  8
0
100
AcDbSpline
 70
0
 71
8
 72
18
 73
9
 74
0
 40
0.0
 40
0.0
 40
0.0
 40
0.0
 40
0.0
 40
0.0
 40
0.0
 40
0.0
 40
0.0
 40
1.0
 40
1.0
 40
1.0
 40
1.0
 40
1.0
 40
1.0
 40
1.0
 40
1.0
 40
1.0
 10
73.06798878743811
 20
27.900000000020512
 30
1445.0
 10
73.02181147421696
 20
30.675451243454336
 30
1445.0
 10
72.96991946110265
 20
33.45080863877529
 30
1445.0
 10
72.91218341968344
 20
36.22605641404948
 30
1445.0
 10
72.84847203133342
 20
39.001177386345795
 30
1445.0
 10
72.77865186532898
 20
41.7761529582086
 30
1445.0
 10
72.70258725243667
 20
44.5509631139858
 30
1445.0
 10
72.62014015237712
 20
47.325586415960984
 30
1445.0
 10
72.53117001357057
 20
50.10000000023844
 30
1445.0
  0
LINE
  5
50
330
17
100
AcDbEntity
  8
0
100
AcDbLine
 10
29.604970708992006
 20
27.9
 30
1445.0
 11
73.06798878620381
 21
27.9
 31
1445.0
  0
SPLINE
  5
51
330
17
100
AcDbEntity
  8
0
100
AcDbSpline
 70
0
 71
1
 72
4
 73
2
 74
0
 40
0.0
 40
0.0
 40
1.0
 40
1.0
 10
29.604970708819927
 20
27.900000600000002
 30
1445.0
 10
29.604970708819927
 20
24.099999399999998
 30
1445.0
  0
LINE
  5
52
330
17
100
AcDbEntity
  8
0
100
AcDbLine
 10
29.604970708992006
 20
24.1
 30
1445.0
 11
73.12656071158963
 21
24.1
 31
1445.0
  0
SPLINE
  5
53
330
17
100
AcDbEntity
  8
0
100
AcDbSpline
 70
0
 71
8
 72
18
 73
9
 74
0
 40
0.0
 40
0.0
 40
0.0
 40
0.0
 40
0.0
 40
0.0
 40
0.0
 40
0.0
 40
0.0
 40
1.0
 40
1.0
 40
1.0
 40
1.0
 40
1.0
 40
1.0
 40
1.0
 40
1.0
 40
1.0
 10
73.29254247732585
 20
1.9000000000028712
 30
1445.0
 10
73.28958493642037
 20
4.675106894233062
 30
1445.0
 10
73.28178671523214
 20
7.450201842220058
 30
1445.0
 10
73.26902861874254
 20
10.225277292043899
 30
1445.0
 10
73.25119000708403
 20
13.000324297930899
 30
1445.0
 10
73.22814868315584
 20
15.775332517028035
 30
1445.0
 10
73.1997807794463
 20
18.550290206152706
 30
1445.0
 10
73.16596064247048
 20
21.32518421846671
 30
1445.0
 10
73.12656071323102
 20
24.10000000002332
 30
1445.0
  0
LINE
  5
54
330
17
100
AcDbEntity
  8
0
100
AcDbLine
 10
29.604970708992006
 20
1.9
 30
1445.0
 11
73.29254247462606
 21
1.9
 31
1445.0
  0
SPLINE
  5
55
330
17
100
AcDbEntity
  8
0
100
AcDbSpline
 70
0
 71
1
 72
4
 73
2
 74
0
 40
0.0
 40
0.0
 40
0.9999993684216398
 40
0.9999993684216398
 10
29.604970708819934
 20
1.9000006000000558
 30
1445.0
 10
29.604970708819934
 20
-6.553790374438061e-17
 30
1445.0
  0
SPLINE
  5
56
330
17
100
AcDbEntity
  8
0
100
AcDbSpline
 70
0
 71
1
 72
4
 73
2
 74
0
 40
0.0
 40
0.0
 40
1.0
 40
1.0
 10
29.604970708819934
 20
-1.9000006000000011
 30
1445.0
 10
29.604970708819927
 20
1.2000000211287443e-06
 30
1445.0
  0
LINE
  5
57
330
17
100
AcDbEntity
  8
0
100
AcDbLine
 10
29.60497070899199
 20
-1.9
 30
1445.0
 11
73.29264639523325
 21
-1.9
 31
1445.0
  0
SPLINE
  5
58
330
17
100
AcDbEntity
  8
0
100
AcDbSpline
 70
0
 71
8
 72
18
 73
9
 74
0
 40
0.0
 40
0.0
 40
0.0
 40
0.0
 40
0.0
 40
0.0
 40
0.0
 40
0.0
 40
0.0
 40
1.0
 40
1.0
 40
1.0
 40
1.0
 40
1.0
 40
1.0
 40
1.0
 40
1.0
 40
1.0
 10
73.12782890735518
 20
-24.099999999850343
 30
1445.0
 10
73.16709421939633
 20
-21.32519687319234
 30
1445.0
 10
73.20077522420935
 20
-18.550315023512752
 30
1445.0
 10
73.22900019559643
 20
-15.77536776376183
 30
1445.0
 10
73.2518954897001
 20
-13.000366742213924
 30
1445.0
 10
73.26958566226133
 20
-10.22532194716035
 30
1445.0
 10
73.28219358305313
 20
-7.45024171148296
 30
1445.0
 10
73.28984054926694
 20
-4.675132717191094
 30
1445.0
 10
73.29264639962794
 20
-1.9000000000044521
 30
1445.0
  0
LINE
  5
59
330
17
100
AcDbEntity
  8
0
100
AcDbLine
 10
29.60497070899199
 20
-24.1
 30
1445.0
 11
73.12782891793097
 21
-24.1
 31
1445.0
  0
SPLINE
  5
5A
330
17
100
AcDbEntity
  8
0
100
AcDbSpline
 70
0
 71
1
 72
4
 73
2
 74
0
 40
0.0
 40
0.0
 40
1.0
 40
1.0
 10
29.604970708819927
 20
-27.900000600000034
 30
1445.0
 10
29.604970708819927
 20
-24.099999399999938
 30
1445.0
  0
LINE
  5
5B
330
17
100
AcDbEntity
  8
0
100
AcDbLine
 10
29.60497070899199
 20
-27.9
 30
1445.0
 11
73.06943715701364
 21
-27.9
 31
1445.0
  0
SPLINE
  5
5C
330
17
100
AcDbEntity
  8
0
100
AcDbSpline
 70
0
 71
8
 72
18
 73
9
 74
0
 40
0.0
 40
0.0
 40
0.0
 40
0.0
 40
0.0
 40
0.0
 40
0.0
 40
0.0
 40
0.0
 40
1.0
 40
1.0
 40
1.0
 40
1.0
 40
1.0
 40
1.0
 40
1.0
 40
1.0
 40
1.0
 10
72.53345879359297
 20
-50.10000000104338
 30
1445.0
 10
72.62235269444494
 20
-47.325576608625454
 30
1445.0
 10
72.70471383836708
 20
-44.550946387264716
 30
1445.0
 10
72.7806835162404
 20
-41.776132486070196
 30
1445.0
 10
72.85040051447291
 20
-39.001156364161645
 30
1445.0
 10
72.91400124967862
 20
-36.22603779612878
 30
1445.0
 10
72.97161989635796
 20
-33.45079487717729
 30
1445.0
 10
73.02338850935998
 20
-30.675444028044257
 30
1445.0
 10
73.06943714290637
 20
-27.89999999976592
 30
1445.0
  0
LINE
  5
5D
330
17
100
AcDbEntity
  8
0
100
AcDbLine
 10
29.60497070899199
 20
-50.1
 30
1445.0
 11
72.53345876102827
 21
-50.1
 31
1445.0
  0
SPLINE
  5
5E
330
17
100
AcDbEntity
  8
0
100
AcDbSpline
 70
0
 71
1
 72
4
 73
2
 74
0
 40
0.0
 40
0.0
 40
1.0
 40
1.0
 10
29.604970708819934
 20
-53.9000006
 30
1445.0
 10
29.604970708819934
 20
-50.0999994
 30
1445.0
  0
LINE
  5
5F
330
17
100
AcDbEntity
  8
0
100
AcDbLine
 10
29.60497070899199
 20
-53.9
 30
1445.0
 11
72.40629725586832
 21
-53.9
 31
1445.0
  0
SPLINE
  5
60
330
17
100
AcDbEntity
  8
0
100
AcDbSpline
 70
0
 71
8
 72
18
 73
9
 74
0
 40
0.0
 40
0.0
 40
0.0
 40
0.0
 40
0.0
 40
0.0
 40
0.0
 40
0.0
 40
0.0
 40
1.0
 40
1.0
 40
1.0
 40
1.0
 40
1.0
 40
1.0
 40
1.0
 40
1.0
 40
1.0
 10
71.43579632229047
 20
-76.09999999951732
 30
1445.0
 10
71.58260152986907
 20
-73.32620060324348
 30
1445.0
 10
71.72181433352537
 20
-70.5519960759936
 30
1445.0
 10
71.85359299178374
 20
-67.77741961583956
 30
1445.0
 10
71.97809254976384
 20
-65.00250269760234
 30
1445.0
 10
72.09546500634987
 20
-62.22727507977632
 30
1445.0
 10
72.20585947014459
 20
-59.45176481094447
 30
1445.0
 10
72.3094223059968
 20
-56.67599823576728
 30
1445.0
 10
72.40629727389046
 20
-53.90000000062893
 30
1445.0
  0
LINE
  5
61
330
17
100
AcDbEntity
  8
0
100
AcDbLine
 10
29.60497070899199
 20
-76.1
 30
1445.0
 11
71.43579633141009
 21
-76.1
 31
1445.0
  0
SPLINE
  5
62
330
17
100
AcDbEntity
  8
0
100
AcDbSpline
 70
0
 71
1
 72
4
 73
2
 74
0
 40
0.0
 40
0.0
 40
1.0
 40
1.0
 10
29.604970708819934
 20
-79.90000060000018
 30
1445.0
 10
29.604970708819927
 20
-76.09999939999999
 30
1445.0
  0
LINE
  5
63
330
17
100
AcDbEntity
  8
0
100
AcDbLine
 10
29.60497070899199
 20
-79.9
 30
1445.0
 11
71.22838072027048
 21
-79.9
 31
1445.0
  0
SPLINE
  5
64
330
17
100
AcDbEntity
  8
0
100
AcDbSpline
 70
0
 71
8
 72
18
 73
9
 74
0
 40
0.0
 40
0.0
 40
0.0
 40
0.0
 40
0.0
 40
0.0
 40
0.0
 40
0.0
 40
0.0
 40
1.0
 40
1.0
 40
1.0
 40
1.0
 40
1.0
 40
1.0
 40
1.0
 40
1.0
 40
1.0
 10
69.75173062495233
 20
-102.10000000145945
 30
1445.0
 10
69.9658845966469
 20
-99.3270770231324
 30
1445.0
 10
70.17123855956817
 20
-96.55347787577404
 30
1445.0
 10
70.36797278994645
 20
-93.77924612943978
 30
1445.0
 10
70.5562634417201
 20
-91.00442358479278
 30
1445.0
 10
70.7362827618883
 20
-88.22905028221973
 30
1445.0
 10
70.90819929033754
 20
-85.45316451023731
 30
1445.0
 10
71.072178045946
 20
-82.67680281327281
 30
1445.0
 10
71.22838070077034
 20
-79.89999999890304
 30
1445.0
  0
LINE
  5
65
330
17
100
AcDbEntity
  8
0
100
AcDbLine
 10
29.60497070899199
 20
-102.1
 30
1445.0
 11
69.75173060605535
 21
-102.1
 31
1445.0
  0
SPLINE
  5
66
330
17
100
AcDbEntity
  8
0
100
AcDbSpline
 70
0
 71
1
 72
4
 73
2
 74
0
 40
0.0
 40
0.0
 40
1.0
 40
1.0
 10
29.604970708819927
 20
-105.90000060000003
 30
1445.0
 10
29.604970708819934
 20
-102.09999939999999
 30
1445.0
  0
LINE
  5
67
330
17
100
AcDbEntity
  8
0
100
AcDbLine
 10
29.60497070899199
 20
-105.9
 30
1445.0
 11
69.45092775254872
 21
-105.9
 31
1445.0
  0
SPLINE
  5
68
330
17
100
AcDbEntity
  8
0
100
AcDbSpline
 70
0
 71
8
 72
32
 73
23
 74
0
 40
0.0
 40
0.0
 40
0.0
 40
0.0
 40
0.0
 40
0.0
 40
0.0
 40
0.0
 40
0.0
 40
0.26784714749104427
 40
0.26784714749104427
 40
0.26784714749104427
 40
0.26784714749104427
 40
0.26784714749104427
 40
0.26784714749104427
 40
0.26784714749104427
 40
0.5667826003900852
 40
0.5667826003900852
 40
0.5667826003900852
 40
0.5667826003900852
 40
0.5667826003900852
 40
0.5667826003900852
 40
0.5667826003900852
 40
1.0
 40
1.0
 40
1.0
 40
1.0
 40
1.0
 40
1.0
 40
1.0
 40
1.0
 40
1.0
 10
67.38552597825219
 20
-128.09999999927734
 30
1445.0
 10
67.46378391459804
 20
-127.35760702085663
 30
1445.0
 10
67.54133027024518
 20
-126.61513899929759
 30
1445.0
 10
67.61816663516818
 20
-125.87259691041288
 30
1445.0
 10
67.69429439925592
 20
-125.12998169946908
 30
1445.0
 10
67.76971475691886
 20
-124.3872942817058
 30
1445.0
 10
67.84442871169617
 20
-123.64453554285477
 30
1445.0
 10
67.91843708086299
 20
-122.901706339659
 30
1445.0
 10
68.0735520519442
 20
-121.32968237042607
 30
1445.0
 10
68.15448360073063
 20
-120.50047038728994
 30
1445.0
 10
68.23453926618168
 20
-119.67117305391082
 30
1445.0
 10
68.31372352649176
 20
-118.84179188849589
 30
1445.0
 10
68.39204121826468
 20
-118.01232842453201
 30
1445.0
 10
68.46949753651383
 20
-117.18278421078568
 30
1445.0
 10
68.54609803466205
 20
-116.35316081130307
 30
1445.0
 10
68.73162641519309
 20
-114.32105671557612
 30
1445.0
 10
68.8396178240651
 20
-113.11849451977976
 30
1445.0
 10
68.94583868951004
 20
-111.915777223948
 30
1445.0
 10
69.05030468366455
 20
-110.71290877031808
 30
1445.0
 10
69.15303131623588
 20
-109.50989303759931
 30
1445.0
 10
69.25403393816947
 20
-108.3067338411295
 30
1445.0
 10
69.35332774520322
 20
-107.10343493302618
 30
1445.0
 10
69.45092778131377
 20
-105.9000000023329
 30
1445.0
  0
LINE
  5
69
330
17
100
AcDbEntity
  8
0
100
AcDbLine
 10
29.60497070899199
 20
-128.1
 30
1445.0
 11
67.38552598510717
 21
-128.1
 31
1445.0
  0
SPLINE
  5
6A
330
17
100
AcDbEntity
  8
0
100
AcDbSpline
 70
0
 71
1
 72
4
 73
2
 74
0
 40
0.0
 40
0.0
 40
1.0
 40
1.0
 10
29.604970708819934
 20
-131.9000006
 30
1445.0
 10
29.604970708819927
 20
-128.09999939999992
 30
1445.0
  0
LINE
  5
6B
330
17
100
AcDbEntity
  8
0
100
AcDbLine
 10
29.60497070899199
 20
-131.9
 30
1445.0
 11
66.97667801373646
 21
-131.9
 31
1445.0
  0
SPLINE
  5
6C
330
17
100
AcDbEntity
  8
0
100
AcDbSpline
 70
0
 71
8
 72
25
 73
16
 74
0
 40
0.0
 40
0.0
 40
0.0
 40
0.0
 40
0.0
 40
0.0
 40
0.0
 40
0.0
 40
0.0
 40
0.6787007069191487
 40
0.6787007069191487
 40
0.6787007069191487
 40
0.6787007069191487
 40
0.6787007069191487
 40
0.6787007069191487
 40
0.6787007069191487
 40
1.0
 40
1.0
 40
1.0
 40
1.0
 40
1.0
 40
1.0
 40
1.0
 40
1.0
 40
1.0
 10
64.24358640701796
 20
-154.10000000139854
 30
1445.0
 10
64.50137126255748
 20
-152.21992346563775
 30
1445.0
 10
64.7538473523251
 20
-150.33911815596
 30
1445.0
 10
65.00113571501875
 20
-148.45761828997254
 30
1445.0
 10
65.24334188563009
 20
-146.57545493923888
 30
1445.0
 10
65.4805578992659
 20
-144.69265629247863
 30
1445.0
 10
65.71286385806135
 20
-142.80924786113485
 30
1445.0
 10
65.94032906118501
 20
-140.9252526273084
 30
1445.0
 10
66.26843191194189
 20
-138.14853311893697
 30
1445.0
 10
66.37277951516087
 20
-137.25624844399783
 30
1445.0
 10
66.47606176566005
 20
-136.3638393313636
 30
1445.0
 10
66.57828443059809
 20
-135.4713079310595
 30
1445.0
 10
66.67945279785394
 20
-134.57865632232563
 30
1445.0
 10
66.77957168765562
 20
-133.6858865149274
 30
1445.0
 10
66.87864546420909
 20
-132.7930004504658
 30
1445.0
 10
66.97667804732703
 20
-131.90000000368755
 30
1445.0
  0
LINE
  5
6D
330
17
100
AcDbEntity
  8
0
100
AcDbLine
 10
29.60497070899199
 20
-154.1
 30
1445.0
 11
64.24358639681797
 21
-154.1
 31
1445.0
  0
SPLINE
  5
6E
330
17
100
AcDbEntity
  8
0
100
AcDbSpline
 70
0
 71
1
 72
4
 73
2
 74
0
 40
0.0
 40
0.0
 40
1.0
 40
1.0
 10
29.604970708819927
 20
-157.90000060000003
 30
1445.0
 10
29.604970708819934
 20
-154.0999994
 30
1445.0
  0
LINE
  5
6F
330
17
100
AcDbEntity
  8
0
100
AcDbLine
 10
29.60497070899199
 20
-157.9
 30
1445.0
 11
63.712761125466585
 21
-157.9
 31
1445.0
  0
SPLINE
  5
70
330
17
100
AcDbEntity
  8
0
100
AcDbSpline
 70
0
 71
8
 72
18
 73
9
 74
0
 40
0.0
 40
0.0
 40
0.0
 40
0.0
 40
0.0
 40
0.0
 40
0.0
 40
0.0
 40
0.0
 40
1.0
 40
1.0
 40
1.0
 40
1.0
 40
1.0
 40
1.0
 40
1.0
 40
1.0
 40
1.0
 10
60.17426698789675
 20
-180.0999999958911
 30
1445.0
 10
60.66822572577817
 20
-177.33359454378015
 30
1445.0
 10
61.14553847527946
 20
-174.56421177163057
 30
1445.0
 10
61.60739528896726
 20
-171.7921772899189
 30
1445.0
 10
62.054739464967035
 20
-169.01775648863546
 30
1445.0
 10
62.48834765132869
 20
-166.24116788872504
 30
1445.0
 10
62.908870411144555
 20
-163.46258986597434
 30
1445.0
 10
63.316853625285866
 20
-160.68216421209414
 30
1445.0
 10
63.71276110962374
 20
-157.89999999774548
 30
1445.0
  0
LINE
  5
71
330
17
100
AcDbEntity
  8
0
100
AcDbLine
 10
29.60497070899199
 20
-180.1
 30
1445.0
 11
60.174267010908366
 21
-180.1
 31
1445.0
  0
SPLINE
  5
72
330
17
100
AcDbEntity
  8
0
100
AcDbSpline
 70
0
 71
1
 72
4
 73
2
 74
0
 40
0.0
 40
0.0
 40
1.0
 40
1.0
 10
29.604970708819934
 20
-183.9000006000001
 30
1445.0
 10
29.604970708819927
 20
-180.09999939999994
 30
1445.0
  0
LINE
  5
73
330
17
100
AcDbEntity
  8
0
100
AcDbLine
 10
29.60497070899199
 20
-183.9
 30
1445.0
 11
59.48118352601662
 21
-183.9
 31
1445.0
  0
SPLINE
  5
74
330
17
100
AcDbEntity
  8
0
100
AcDbSpline
 70
0
 71
8
 72
25
 73
16
 74
0
 40
0.0
 40
0.0
 40
0.0
 40
0.0
 40
0.0
 40
0.0
 40
0.0
 40
0.0
 40
0.0
 40
0.990908322056781
 40
0.990908322056781
 40
0.990908322056781
 40
0.990908322056781
 40
0.990908322056781
 40
0.990908322056781
 40
0.990908322056781
 40
1.0
 40
1.0
 40
1.0
 40
1.0
 40
1.0
 40
1.0
 40
1.0
 40
1.0
 40
1.0
 10
54.692489781386215
 20
-206.09999999141166
 30
1445.0
 10
55.383027789915666
 20
-203.37259813020805
 30
1445.0
 10
56.03816300505007
 20
-200.6363060601747
 30
1445.0
 10
56.66343005017979
 20
-197.8929101242107
 30
1445.0
 10
57.262423048258896
 20
-195.14364493481366
 30
1445.0
 10
57.83793733231812
 20
-192.38944815095175
 30
1445.0
 10
58.39212642917667
 20
-189.63099454283318
 30
1445.0
 10
58.926763601428675
 20
-186.8687558341942
 30
1445.0
 10
59.44805052297645
 20
-184.07763944206658
 30
1445.0
 10
59.452788370935245
 20
-184.05226322700096
 30
1445.0
 10
59.457524695164
 20
-184.02688672850735
 30
1445.0
 10
59.46225949677835
 20
-184.0015099468836
 30
1445.0
 10
59.466992776891736
 20
-183.97613288242707
 30
1445.0
 10
59.47172453661536
 20
-183.9507555354346
 30
1445.0
 10
59.47645477705823
 20
-183.92537790620258
 30
1445.0
 10
59.48118349932714
 20
-183.8999999950268
 30
1445.0
  0
LINE
  5
75
330
17
100
AcDbEntity
  8
0
100
AcDbLine
 10
29.60497070899199
 20
-206.1
 30
1445.0
 11
54.69248981530722
 21
-206.1
 31
1445.0
  0
SPLINE
  5
76
330
17
100
AcDbEntity
  8
0
100
AcDbSpline
 70
0
 71
1
 72
4
 73
2
 74
0
 40
0.0
 40
0.0
 40
1.0
 40
1.0
 10
29.604970708819934
 20
-209.90000060000008
 30
1445.0
 10
29.604970708819934
 20
-206.09999939999992
 30
1445.0
  0
LINE
  5
77
330
17
100
AcDbEntity
  8
0
100
AcDbLine
 10
29.60497070899199
 20
-209.9
 30
1445.0
 11
53.69633757014762
 21
-209.9
 31
1445.0
  0
SPLINE
  5
78
330
17
100
AcDbEntity
  8
0
100
AcDbSpline
 70
0
 71
8
 72
46
 73
37
 74
0
 40
0.0
 40
0.0
 40
0.0
 40
0.0
 40
0.0
 40
0.0
 40
0.0
 40
0.0
 40
0.0
 40
0.008385315736654724
 40
0.008385315736654724
 40
0.008385315736654724
 40
0.008385315736654724
 40
0.008385315736654724
 40
0.008385315736654724
 40
0.008385315736654724
 40
0.3923176585981988
 40
0.3923176585981988
 40
0.3923176585981988
 40
0.3923176585981988
 40
0.3923176585981988
 40
0.3923176585981988
 40
0.3923176585981988
 40
0.5590576888124795
 40
0.5590576888124795
 40
0.5590576888124795
 40
0.5590576888124795
 40
0.5590576888124795
 40
0.5590576888124795
 40
0.5590576888124795
 40
0.6841157456353549
 40
0.6841157456353549
 40
0.6841157456353549
 40
0.6841157456353549
 40
0.6841157456353549
 40
0.6841157456353549
 40
0.6841157456353549
 40
1.0
 40
1.0
 40
1.0
 40
1.0
 40
1.0
 40
1.0
 40
1.0
 40
1.0
 40
1.0
 10
45.22997948432588
 20
-232.10000000505605
 30
1445.0
 10
45.24168858207813
 20
-232.08017205772998
 30
1445.0
 10
45.25338506312417
 20
-232.0603364703556
 30
1445.0
 10
45.26506896136952
 20
-232.0404932684634
 30
1445.0
 10
45.27674031066759
 20
-232.0206424772438
 30
1445.0
 10
45.28839914482022
 20
-232.00078412154747
 30
1445.0
 10
45.30004549757819
 20
-231.9809182258857
 30
1445.0
 10
45.31167940264176
 20
-231.9610448144308
 30
1445.0
 10
45.85540563661398
 20
-231.0308914697951
 30
1445.0
 10
46.36120704301018
 20
-230.1053903604274
 30
1445.0
 10
46.843773393207385
 20
-229.16732870742393
 30
1445.0
 10
47.30548446660375
 20
-228.21879514356885
 30
1445.0
 10
47.748317405248926
 20
-227.26144093046054
 30
1445.0
 10
48.17397647821388
 20
-226.29654367819026
 30
1445.0
 10
48.5839489893282
 20
-225.32503467531
 30
1445.0
 10
49.15138574879436
 20
-223.92300690690783
 30
1445.0
 10
49.32292931712772
 20
-223.491336513951
 30
1445.0
 10
49.494195865219865
 20
-223.05246415593004
 30
1445.0
 10
49.665180982398276
 20
-222.6063333274105
 30
1445.0
 10
49.83588025799057
 20
-222.15288752295757
 30
1445.0
 10
50.00628928132456
 20
-221.69207023713565
 30
1445.0
 10
50.17640364172817
 20
-221.2238249645086
 30
1445.0
 10
50.47358348375297
 20
-220.39128921915108
 30
1445.0
 10
50.600774690311255
 20
-220.03029821587924
 30
1445.0
 10
50.727795307045675
 20
-219.66506199876625
 30
1445.0
 10
50.854645925488036
 20
-219.2955459699481
 30
1445.0
 10
50.98132496986056
 20
-218.9217411247548
 30
1445.0
 10
51.10782869707585
 20
-218.54366405171024
 30
1445.0
 10
51.23415119673699
 20
-218.16135693253247
 30
1445.0
 10
51.67888433644326
 20
-216.79870417320558
 30
1445.0
 10
51.9885365522853
 20
-215.819618144288
 30
1445.0
 10
52.29007887292384
 20
-214.83797874811182
 30
1445.0
 10
52.58418397752196
 20
-213.85407213783776
 30
1445.0
 10
52.87141256072702
 20
-212.86813694285337
 30
1445.0
 10
53.15224462582651
 20
-211.88037340749275
 30
1445.0
 10
53.42709729541342
 20
-210.89094856890694
 30
1445.0
 10
53.69633753449686
 20
-209.8999999903137
 30
1445.0
  0
LINE
  5
79
330
17
100
AcDbEntity
  8
0
100
AcDbLine
 10
29.60497070899199
 20
-232.1
 30
1445.0
 11
45.229979475764
 21
-232.1
 31
1445.0
  0
SPLINE
  5
7A
330
17
100
AcDbEntity
  8
0
100
AcDbSpline
 70
0
 71
1
 72
4
 73
2
 74
0
 40
0.0
 40
0.0
 40
1.0
 40
1.0
 10
29.604970708819934
 20
-235.90000060000008
 30
1445.0
 10
29.604970708819934
 20
-232.09999939999992
 30
1445.0
  0
LINE
  5
7B
330
17
100
AcDbEntity
  8
0
100
AcDbLine
 10
29.60497070899199
 20
-235.9
 30
1445.0
 11
42.63595901326428
 21
-235.9
 31
1445.0
  0
SPLINE
  5
7C
330
17
100
AcDbEntity
  8
0
100
AcDbSpline
 70
0
 71
8
 72
81
 73
72
 74
0
 40
0.0
 40
0.0
 40
0.0
 40
0.0
 40
0.0
 40
0.0
 40
0.0
 40
0.0
 40
0.0
 40
0.018472729352477575
 40
0.018472729352477575
 40
0.018472729352477575
 40
0.018472729352477575
 40
0.018472729352477575
 40
0.018472729352477575
 40
0.018472729352477575
 40
0.03426027111298305
 40
0.03426027111298305
 40
0.03426027111298305
 40
0.03426027111298305
 40
0.03426027111298305
 40
0.03426027111298305
 40
0.03426027111298305
 40
0.0454748837066524
 40
0.0454748837066524
 40
0.0454748837066524
 40
0.0454748837066524
 40
0.0454748837066524
 40
0.0454748837066524
 40
0.0454748837066524
 40
0.05072093981104442
 40
0.05072093981104442
 40
0.05072093981104442
 40
0.05072093981104442
 40
0.05072093981104442
 40
0.05072093981104442
 40
0.05072093981104442
 40
0.05329281565772388
 40
0.05329281565772388
 40
0.05329281565772388
 40
0.05329281565772388
 40
0.05329281565772388
 40
0.05329281565772388
 40
0.05329281565772388
 40
0.055864702734610236
 40
0.055864702734610236
 40
0.055864702734610236
 40
0.055864702734610236
 40
0.055864702734610236
 40
0.055864702734610236
 40
0.055864702734610236
 40
0.06743042987887005
 40
0.06743042987887005
 40
0.06743042987887005
 40
0.06743042987887005
 40
0.06743042987887005
 40
0.06743042987887005
 40
0.06743042987887005
 40
0.07693239363750119
 40
0.07693239363750119
 40
0.07693239363750119
 40
0.07693239363750119
 40
0.07693239363750119
 40
0.07693239363750119
 40
0.07693239363750119
 40
0.08409751539904523
 40
0.08409751539904523
 40
0.08409751539904523
 40
0.08409751539904523
 40
0.08409751539904523
 40
0.08409751539904523
 40
0.08409751539904523
 40
0.08727519349590306
 40
0.08727519349590306
 40
0.08727519349590306
 40
0.08727519349590306
 40
0.08727519349590306
 40
0.08727519349590306
 40
0.08727519349590306
 40
0.08727519349590306
 40
0.08727519349590306
 10
11.365000275964821
 20
-219.74425617694848
 30
1445.0
 10
11.597705677686896
 20
-220.93155939737645
 30
1445.0
 10
11.870296390201574
 20
-222.11096277676793
 30
1445.0
 10
12.184441736343015
 20
-223.28061575963204
 30
1445.0
 10
12.541804468862004
 20
-224.43827730635346
 30
1445.0
 10
12.943981839732082
 20
-225.58133617448578
 30
1445.0
 10
13.392454261050162
 20
-226.70682788620775
 30
1445.0
 10
13.888541557531607
 20
-227.81144838194356
 30
1445.0
 10
14.898996511055445
 20
-229.81467516779497
 30
1445.0
 10
15.400180374022762
 20
-230.7197984360933
 30
1445.0
 10
15.937593774068949
 20
-231.60464369507966
 30
1445.0
 10
16.5117495236604
 20
-232.46663992800893
 30
1445.0
 10
17.12295130675296
 20
-233.3029680392189
 30
1445.0
 10
17.771254149138706
 20
-234.11058808614442
 30
1445.0
 10
18.456431925549207
 20
-234.88626127547786
 30
1445.0
 10
19.69048052603483
 20
-236.15243952408196
 30
1445.0
 10
20.221319584800362
 20
-236.66043806253649
 30
1445.0
 10
20.770264077694716
 20
-237.1493272356091
 30
1445.0
 10
21.337005901271834
 20
-237.61780615418547
 30
1445.0
 10
21.92112568846557
 20
-238.06451826148523
 30
1445.0
 10
22.5220846462984
 20
-238.48806145127844
 30
1445.0
 10
23.13921639359023
 20
-238.88699818610337
 30
1445.0
 10
24.067595546569294
 20
-239.4342883552513
 30
1445.0
 10
24.366832400252903
 20
-239.60300443317755
 30
1445.0
 10
24.66934558087007
 20
-239.76586339781957
 30
1445.0
 10
24.97504364237462
 20
-239.9227130605458
 30
1445.0
 10
25.28382723404341
 20
-240.07339997470098
 30
1445.0
 10
25.595588862997605
 20
-240.21776991477287
 30
1445.0
 10
25.910212656723907
 20
-240.35566835555775
 30
1445.0
 10
26.38316039463614
 20
-240.55129726236706
 30
1445.0
 10
26.53898806035579
 20
-240.61388877360562
 30
1445.0
 10
26.69504263938504
 20
-240.674714852858
 30
1445.0
 10
26.851309648354196
 20
-240.7337748679396
 30
1445.0
 10
27.00777460389367
 20
-240.79106818666585
 30
1445.0
 10
27.164423022633965
 20
-240.84659417685228
 30
1445.0
 10
27.32124042120564
 20
-240.90035220631407
 30
1445.0
 10
27.63518489669758
 20
-241.00433130643304
 30
1445.0
 10
27.79231207042428
 20
-241.0545479387962
 30
1445.0
 10
27.949578525453465
 20
-241.10299712705458
 30
1445.0
 10
28.10696952252847
 20
-241.149681145438
 30
1445.0
 10
28.264470895101887
 20
-241.19459895530716
 30
1445.0
 10
28.42206904933562
 20
-241.237746205154
 30
1445.0
 10
28.57975096410079
 20
-241.27911523060143
 30
1445.0
 10
29.446917444220265
 20
-241.49668476733675
 30
1445.0
 10
30.165804858299232
 20
-241.64017155699392
 30
1445.0
 10
30.89269116843716
 20
-241.7439678869548
 30
1445.0
 10
31.62526727441066
 20
-241.8027205257677
 30
1445.0
 10
32.36037911152995
 20
-241.81136256864954
 30
1445.0
 10
33.094013573553674
 20
-241.76588779601985
 30
1445.0
 10
33.82127264617317
 20
-241.66434014570928
 30
1445.0
 10
35.12378843397383
 20
-241.3793948712458
 30
1445.0
 10
35.70333294729733
 20
-241.21376527832024
 30
1445.0
 10
36.27176251792624
 20
-241.01159707022094
 30
1445.0
 10
36.82675245630558
 20
-240.77459461369642
 30
1445.0
 10
37.36669199387756
 20
-240.50524673019584
 30
1445.0
 10
37.89053609945929
 20
-240.2064920816529
 30
1445.0
 10
38.397682792080595
 20
-239.8814377437277
 30
1445.0
 10
39.25753985084491
 20
-239.27055899025706
 30
1445.0
 10
39.61770753829651
 20
-238.99463985093752
 30
1445.0
 10
39.968450923915725
 20
-238.70659845376943
 30
1445.0
 10
40.30992975460335
 20
-238.4075677650028
 30
1445.0
 10
40.64237872494578
 20
-238.09859994703868
 30
1445.0
 10
40.966087357396816
 20
-237.78064319016718
 30
1445.0
 10
41.28138700946695
 20
-237.45452690385656
 30
1445.0
 10
41.72491164012261
 20
-236.9730187331478
 30
1445.0
 10
41.859582566888015
 20
-236.82363102259313
 30
1445.0
 10
41.992692310665845
 20
-236.6728518960891
 30
1445.0
 10
42.124274284096856
 20
-236.52073853621488
 30
1445.0
 10
42.25436088645223
 20
-236.3673456194431
 30
1445.0
 10
42.38298358914961
 20
-236.2127253794268
 30
1445.0
 10
42.510173011622186
 20
-236.05692766307646
 30
1445.0
 10
42.635958988817194
 20
-235.8999999804043
 30
1445.0
  0
SPLINE
  5
7D
330
17
100
AcDbEntity
  8
0
100
AcDbSpline
 70
0
 71
8
 72
417
 73
408
 74
0
 40
0.0
 40
0.0
 40
0.0
 40
0.0
 40
0.0
 40
0.0
 40
0.0
 40
0.0
 40
0.0
 40
0.0024352932452979524
 40
0.0024352932452979524
 40
0.0024352932452979524
 40
0.0024352932452979524
 40
0.0024352932452979524
 40
0.0024352932452979524
 40
0.0024352932452979524
 40
0.004686490695908391
 40
0.004686490695908391
 40
0.004686490695908391
 40
0.004686490695908391
 40
0.004686490695908391
 40
0.004686490695908391
 40
0.004686490695908391
 40
0.007162807891586799
 40
0.007162807891586799
 40
0.007162807891586799
 40
0.007162807891586799
 40
0.007162807891586799
 40
0.007162807891586799
 40
0.007162807891586799
 40
0.009188885597191835
 40
0.009188885597191835
 40
0.009188885597191835
 40
0.009188885597191835
 40
0.009188885597191835
 40
0.009188885597191835
 40
0.009188885597191835
 40
0.011214963302826375
 40
0.011214963302826375
 40
0.011214963302826375
 40
0.011214963302826375
 40
0.011214963302826375
 40
0.011214963302826375
 40
0.011214963302826375
 40
0.015034584258615025
 40
0.015034584258615025
 40
0.015034584258615025
 40
0.015034584258615025
 40
0.015034584258615025
 40
0.015034584258615025
 40
0.015034584258615025
 40
0.02151007855618166
 40
0.02151007855618166
 40
0.02151007855618166
 40
0.02151007855618166
 40
0.02151007855618166
 40
0.02151007855618166
 40
0.02151007855618166
 40
0.034355843333328584
 40
0.034355843333328584
 40
0.034355843333328584
 40
0.034355843333328584
 40
0.034355843333328584
 40
0.034355843333328584
 40
0.034355843333328584
 40
0.060004942687595444
 40
0.060004942687595444
 40
0.060004942687595444
 40
0.060004942687595444
 40
0.060004942687595444
 40
0.060004942687595444
 40
0.060004942687595444
 40
0.07648995189702133
 40
0.07648995189702133
 40
0.07648995189702133
 40
0.07648995189702133
 40
0.07648995189702133
 40
0.07648995189702133
 40
0.07648995189702133
 40
0.0929737168670807
 40
0.0929737168670807
 40
0.0929737168670807
 40
0.0929737168670807
 40
0.0929737168670807
 40
0.0929737168670807
 40
0.0929737168670807
 40
0.14093505131299244
 40
0.14093505131299244
 40
0.14093505131299244
 40
0.14093505131299244
 40
0.14093505131299244
 40
0.14093505131299244
 40
0.14093505131299244
 40
0.22108398708337773
 40
0.22108398708337773
 40
0.22108398708337773
 40
0.22108398708337773
 40
0.22108398708337773
 40
0.22108398708337773
 40
0.22108398708337773
 40
0.28591218098850535
 40
0.28591218098850535
 40
0.28591218098850535
 40
0.28591218098850535
 40
0.28591218098850535
 40
0.28591218098850535
 40
0.28591218098850535
 40
0.3157089545976555
 40
0.3157089545976555
 40
0.3157089545976555
 40
0.3157089545976555
 40
0.3157089545976555
 40
0.3157089545976555
 40
0.3157089545976555
 40
0.3455055469081407
 40
0.3455055469081407
 40
0.3455055469081407
 40
0.3455055469081407
 40
0.3455055469081407
 40
0.3455055469081407
 40
0.3455055469081407
 40
0.4661063660857049
 40
0.4661063660857049
 40
0.4661063660857049
 40
0.4661063660857049
 40
0.4661063660857049
 40
0.4661063660857049
 40
0.4661063660857049
 40
0.525478756321909
 40
0.525478756321909
 40
0.525478756321909
 40
0.525478756321909
 40
0.525478756321909
 40
0.525478756321909
 40
0.525478756321909
 40
0.5436890011814408
 40
0.5436890011814408
 40
0.5436890011814408
 40
0.5436890011814408
 40
0.5436890011814408
 40
0.5436890011814408
 40
0.5436890011814408
 40
0.5618984999552399
 40
0.5618984999552399
 40
0.5618984999552399
 40
0.5618984999552399
 40
0.5618984999552399
 40
0.5618984999552399
 40
0.5618984999552399
 40
0.5926612355856312
 40
0.5926612355856312
 40
0.5926612355856312
 40
0.5926612355856312
 40
0.5926612355856312
 40
0.5926612355856312
 40
0.5926612355856312
 40
0.6082830471119745
 40
0.6082830471119745
 40
0.6082830471119745
 40
0.6082830471119745
 40
0.6082830471119745
 40
0.6082830471119745
 40
0.6082830471119745
 40
0.6154039324776323
 40
0.6154039324776323
 40
0.6154039324776323
 40
0.6154039324776323
 40
0.6154039324776323
 40
0.6154039324776323
 40
0.6154039324776323
 40
0.6202629511753422
 40
0.6202629511753422
 40
0.6202629511753422
 40
0.6202629511753422
 40
0.6202629511753422
 40
0.6202629511753422
 40
0.6202629511753422
 40
0.6226733088312468
 40
0.6226733088312468
 40
0.6226733088312468
 40
0.6226733088312468
 40
0.6226733088312468
 40
0.6226733088312468
 40
0.6226733088312468
 40
0.6236082640837222
 40
0.6236082640837222
 40
0.6236082640837222
 40
0.6236082640837222
 40
0.6236082640837222
 40
0.6236082640837222
 40
0.6236082640837222
 40
0.6245432193361913
 40
0.6245432193361913
 40
0.6245432193361913
 40
0.6245432193361913
 40
0.6245432193361913
 40
0.6245432193361913
 40
0.6245432193361913
 40
0.6254781745886716
 40
0.6254781745886716
 40
0.6254781745886716
 40
0.6254781745886716
 40
0.6254781745886716
 40
0.6254781745886716
 40
0.6254781745886716
 40
0.6268138249493854
 40
0.6268138249493854
 40
0.6268138249493854
 40
0.6268138249493854
 40
0.6268138249493854
 40
0.6268138249493854
 40
0.6268138249493854
 40
0.6282830403616297
 40
0.6282830403616297
 40
0.6282830403616297
 40
0.6282830403616297
 40
0.6282830403616297
 40
0.6282830403616297
 40
0.6282830403616297
 40
0.629752255755871
 40
0.629752255755871
 40
0.629752255755871
 40
0.629752255755871
 40
0.629752255755871
 40
0.629752255755871
 40
0.629752255755871
 40
0.6312214711501125
 40
0.6312214711501125
 40
0.6312214711501125
 40
0.6312214711501125
 40
0.6312214711501125
 40
0.6312214711501125
 40
0.6312214711501125
 40
0.6324235564726742
 40
0.6324235564726742
 40
0.6324235564726742
 40
0.6324235564726742
 40
0.6324235564726742
 40
0.6324235564726742
 40
0.6324235564726742
 40
0.6336256417952394
 40
0.6336256417952394
 40
0.6336256417952394
 40
0.6336256417952394
 40
0.6336256417952394
 40
0.6336256417952394
 40
0.6336256417952394
 40
0.6358918347764472
 40
0.6358918347764472
 40
0.6358918347764472
 40
0.6358918347764472
 40
0.6358918347764472
 40
0.6358918347764472
 40
0.6358918347764472
 40
0.6397337450286849
 40
0.6397337450286849
 40
0.6397337450286849
 40
0.6397337450286849
 40
0.6397337450286849
 40
0.6397337450286849
 40
0.6397337450286849
 40
0.6473551204256105
 40
0.6473551204256105
 40
0.6473551204256105
 40
0.6473551204256105
 40
0.6473551204256105
 40
0.6473551204256105
 40
0.6473551204256105
 40
0.662572683888998
 40
0.662572683888998
 40
0.662572683888998
 40
0.662572683888998
 40
0.662572683888998
 40
0.662572683888998
 40
0.662572683888998
 40
0.6723532073244435
 40
0.6723532073244435
 40
0.6723532073244435
 40
0.6723532073244435
 40
0.6723532073244435
 40
0.6723532073244435
 40
0.6723532073244435
 40
0.6821329931658862
 40
0.6821329931658862
 40
0.6821329931658862
 40
0.6821329931658862
 40
0.6821329931658862
 40
0.6821329931658862
 40
0.6821329931658862
 40
0.7105897897135627
 40
0.7105897897135627
 40
0.7105897897135627
 40
0.7105897897135627
 40
0.7105897897135627
 40
0.7105897897135627
 40
0.7105897897135627
 40
0.7581531183540373
 40
0.7581531183540373
 40
0.7581531183540373
 40
0.7581531183540373
 40
0.7581531183540373
 40
0.7581531183540373
 40
0.7581531183540373
 40
0.7966350238939516
 40
0.7966350238939516
 40
0.7966350238939516
 40
0.7966350238939516
 40
0.7966350238939516
 40
0.7966350238939516
 40
0.7966350238939516
 40
0.8143263166572402
 40
0.8143263166572402
 40
0.8143263166572402
 40
0.8143263166572402
 40
0.8143263166572402
 40
0.8143263166572402
 40
0.8143263166572402
 40
0.8320203980849578
 40
0.8320203980849578
 40
0.8320203980849578
 40
0.8320203980849578
 40
0.8320203980849578
 40
0.8320203980849578
 40
0.8320203980849578
 40
0.9036605457752998
 40
0.9036605457752998
 40
0.9036605457752998
 40
0.9036605457752998
 40
0.9036605457752998
 40
0.9036605457752998
 40
0.9036605457752998
 40
0.9389399783678507
 40
0.9389399783678507
 40
0.9389399783678507
 40
0.9389399783678507
 40
0.9389399783678507
 40
0.9389399783678507
 40
0.9389399783678507
 40
0.9497614171752439
 40
0.9497614171752439
 40
0.9497614171752439
 40
0.9497614171752439
 40
0.9497614171752439
 40
0.9497614171752439
 40
0.9497614171752439
 40
0.9605824122494363
 40
0.9605824122494363
 40
0.9605824122494363
 40
0.9605824122494363
 40
0.9605824122494363
 40
0.9605824122494363
 40
0.9605824122494363
 40
0.9788631689122325
 40
0.9788631689122325
 40
0.9788631689122325
 40
0.9788631689122325
 40
0.9788631689122325
 40
0.9788631689122325
 40
0.9788631689122325
 40
0.9881464246626811
 40
0.9881464246626811
 40
0.9881464246626811
 40
0.9881464246626811
 40
0.9881464246626811
 40
0.9881464246626811
 40
0.9881464246626811
 40
0.9923780017499341
 40
0.9923780017499341
 40
0.9923780017499341
 40
0.9923780017499341
 40
0.9923780017499341
 40
0.9923780017499341
 40
0.9923780017499341
 40
0.995265455932095
 40
0.995265455932095
 40
0.995265455932095
 40
0.995265455932095
 40
0.995265455932095
 40
0.995265455932095
 40
0.995265455932095
 40
0.9966977823126454
 40
0.9966977823126454
 40
0.9966977823126454
 40
0.9966977823126454
 40
0.9966977823126454
 40
0.9966977823126454
 40
0.9966977823126454
 40
0.9972533586368738
 40
0.9972533586368738
 40
0.9972533586368738
 40
0.9972533586368738
 40
0.9972533586368738
 40
0.9972533586368738
 40
0.9972533586368738
 40
0.9978089349611023
 40
0.9978089349611023
 40
0.9978089349611023
 40
0.9978089349611023
 40
0.9978089349611023
 40
0.9978089349611023
 40
0.9978089349611023
 40
0.9986819834706039
 40
0.9986819834706039
 40
0.9986819834706039
 40
0.9986819834706039
 40
0.9986819834706039
 40
0.9986819834706039
 40
0.9986819834706039
 40
1.0
 40
1.0
 40
1.0
 40
1.0
 40
1.0
 40
1.0
 40
1.0
 40
1.0
 40
1.0
 10
11.365000275964844
 20
219.74425617694848
 30
1445.0
 10
11.36480405450978
 20
219.74445303076746
 30
1445.0
 10
11.364844872240639
 20
219.74418572936997
 30
1445.0
 10
11.364970012128254
 20
219.74387257514698
 30
1445.0
 10
11.365076279643029
 20
219.74371620064383
 30
1445.0
 10
11.36511000275494
 20
219.7437035685604
 30
1445.0
 10
11.365067031933517
 20
219.7436059717512
 30
1445.0
 10
11.364992740147867
 20
219.7429790332251
 30
1445.0
 10
11.364972115757467
 20
219.73948368416373
 30
1445.0
 10
11.364958111723409
 20
219.73711032978343
 30
1445.0
 10
11.364939022471217
 20
219.73387515054017
 30
1445.0
 10
11.364913859707617
 20
219.72961065396927
 30
1445.0
 10
11.36488163513933
 20
219.7241493476062
 30
1445.0
 10
11.364841360473077
 20
219.7173237389865
 30
1445.0
 10
11.36479204741558
 20
219.70896633564556
 30
1445.0
 10
11.364667433957349
 20
219.68784728553945
 30
1445.0
 10
11.364590027952868
 20
219.67472878846533
 30
1445.0
 10
11.364499174241766
 20
219.65933122142607
 30
1445.0
 10
11.36439355740569
 20
219.64143165195142
 30
1445.0
 10
11.364271862026296
 20
219.620807147571
 30
1445.0
 10
11.364132772685231
 20
219.59723477581443
 30
1445.0
 10
11.363974973964137
 20
219.5704916042115
 30
1445.0
 10
11.363651658474183
 20
219.51569723344838
 30
1445.0
 10
11.363492761473394
 20
219.48876792926956
 30
1445.0
 10
11.363319738976484
 20
219.45944468574828
 30
1445.0
 10
11.363131870517655
 20
219.4276054008775
 30
1445.0
 10
11.362928435631112
 20
219.39312797265043
 30
1445.0
 10
11.362708713851053
 20
219.35589029906038
 30
1445.0
 10
11.362471984711682
 20
219.3157702781013
 30
1445.0
 10
11.361963070782716
 20
219.22952133743263
 30
1445.0
 10
11.36169088599313
 20
219.1833924177222
 30
1445.0
 10
11.361400252912627
 20
219.1341369466293
 30
1445.0
 10
11.361090451075414
 20
219.08163282214704
 30
1445.0
 10
11.360760760015696
 20
219.02575794226894
 30
1445.0
 10
11.360410459267666
 20
218.96639020498824
 30
1445.0
 10
11.36003882836553
 20
218.90340750829841
 30
1445.0
 10
11.358902966922507
 20
218.71090571058238
 30
1445.0
 10
11.358159430305424
 20
218.58489374289513
 30
1445.0
 10
11.357415017784605
 20
218.4587333301235
 30
1445.0
 10
11.356669986118439
 20
218.33246798678442
 30
1445.0
 10
11.355924507752947
 20
218.20612693841628
 30
1445.0
 10
11.355178693061974
 20
218.07972889078405
 30
1445.0
 10
11.354432577326762
 20
217.95327982323863
 30
1445.0
 10
11.352420726593543
 20
217.6123184451946
 30
1445.0
 10
11.35115459634936
 20
217.39773914977692
 30
1445.0
 10
11.349887973626245
 20
217.18307639072788
 30
1445.0
 10
11.348620984989221
 20
216.96835161791915
 30
1445.0
 10
11.347353717882303
 20
216.75357965101492
 30
1445.0
 10
11.346086230836432
 20
216.53877040958963
 30
1445.0
 10
11.344818552213349
 20
216.32392870036736
 30
1445.0
 10
11.341035567188882
 20
215.6828017192425
 30
1445.0
 10
11.338519819856415
 20
215.2564417199148
 30
1445.0
 10
11.336003642627281
 20
214.830008863167
 30
1445.0
 10
11.333487149887636
 20
214.40352253486463
 30
1445.0
 10
11.330970419891461
 20
213.97699599715946
 30
1445.0
 10
11.32845350438141
 20
213.55043801916037
 30
1445.0
 10
11.32593642668503
 20
213.123852554442
 30
1445.0
 10
11.318393035492505
 20
211.8454251772713
 30
1445.0
 10
11.31336634692651
 20
210.99351969930575
 30
1445.0
 10
11.308339296391813
 20
210.14155287619397
 30
1445.0
 10
11.303311982276476
 20
209.28954138231973
 30
1445.0
 10
11.298284471500356
 20
208.43749655907135
 30
1445.0
 10
11.293256807981729
 20
207.585425849604
 30
1445.0
 10
11.28822901050983
 20
206.73333243816822
 30
1445.0
 10
11.279969566664413
 20
205.3335509787828
 30
1445.0
 10
11.276640860023713
 20
204.76940875477698
 30
1445.0
 10
11.273213007573501
 20
204.18849280196582
 30
1445.0
 10
11.269684937799223
 20
203.59050973425292
 30
1445.0
 10
11.26605361860715
 20
202.97516972105075
 30
1445.0
 10
11.262319143377606
 20
202.342187237978
 30
1445.0
 10
11.258478176225111
 20
201.69128001969216
 30
1445.0
 10
11.250582486389124
 20
200.3531106808003
 30
1445.0
 10
11.246529228089821
 20
199.66609374135746
 30
1445.0
 10
11.242372988680406
 20
198.96140894362378
 30
1445.0
 10
11.238116349423487
 20
198.23934595051682
 30
1445.0
 10
11.23376189158167
 20
197.50019442495412
 30
1445.0
 10
11.229312196417565
 20
196.74424402985346
 30
1445.0
 10
11.22476984519378
 20
195.97178442813257
 30
1445.0
 10
11.206658864116731
 20
192.88835621701506
 30
1445.0
 10
11.193224105478192
 20
190.59357566474802
 30
1445.0
 10
11.179845549235779
 20
188.2987727644619
 30
1445.0
 10
11.166529800372128
 20
186.00395272223653
 30
1445.0
 10
11.153281878792049
 20
183.70911915737446
 30
1445.0
 10
11.140106104007133
 20
181.41427460949694
 30
1445.0
 10
11.127005855296165
 20
179.11942042980223
 30
1445.0
 10
11.092224080021436
 20
172.98957559283673
 30
1445.0
 10
11.070683812699402
 20
169.15457097819913
 30
1445.0
 10
11.049378576542896
 20
165.31954911329404
 30
1445.0
 10
11.028320961279174
 20
161.48451354759055
 30
1445.0
 10
11.007523507546091
 20
157.6494668382163
 30
1445.0
 10
10.98699941064835
 20
153.81441086647223
 30
1445.0
 10
10.966762690915656
 20
149.97934685247952
 30
1445.0
 10
10.930705555703975
 20
143.04229124456697
 30
1445.0
 10
10.91478038076653
 20
139.94030236691907
 30
1445.0
 10
10.899061642930636
 20
136.8383095204389
 30
1445.0
 10
10.883558173681092
 20
133.73631318813173
 30
1445.0
 10
10.868279578892567
 20
130.63431378288405
 30
1445.0
 10
10.853236430327273
 20
127.53231166199123
 30
1445.0
 10
10.838440457132679
 20
124.43030714168506
 30
1445.0
 10
10.817223731347164
 20
119.90253521231965
 30
1445.0
 10
10.810597714625878
 20
118.47676946941827
 30
1445.0
 10
10.804027946849466
 20
117.05100331152089
 30
1445.0
 10
10.79751576366742
 20
115.62523676666662
 30
1445.0
 10
10.791062576704592
 20
114.19946986236927
 30
1445.0
 10
10.78466987356119
 20
112.77370262561764
 30
1445.0
 10
10.778339217812785
 20
111.34793508287548
 30
1445.0
 10
10.76580531833926
 20
108.49640811238096
 30
1445.0
 10
10.75960220886536
 20
107.07064868462712
 30
1445.0
 10
10.753461283047804
 20
105.64488901710102
 30
1445.0
 10
10.747380978417723
 20
104.21912914994486
 30
1445.0
 10
10.741359807578194
 20
102.79336912316182
 30
1445.0
 10
10.735396358204241
 20
101.36760897661614
 30
1445.0
 10
10.729489293042851
 20
99.941848750033
 30
1445.0
 10
10.699951784533749
 20
92.74536630230594
 30
1445.0
 10
10.677169149324722
 20
86.97464400544102
 30
1445.0
 10
10.655204915454986
 20
81.20392367897695
 30
1445.0
 10
10.63399166798248
 20
75.43320777599979
 30
1445.0
 10
10.613472499535314
 20
69.66249974620676
 30
1445.0
 10
10.593598471578463
 20
63.89180395377379
 30
1445.0
 10
10.574326137343887
 20
58.121126292324206
 30
1445.0
 10
10.546397623522862
 20
49.50955717130727
 30
1445.0
 10
10.537319208582392
 20
46.668644994918594
 30
1445.0
 10
10.52837050157337
 20
43.8277411362936
 30
1445.0
 10
10.519546256127251
 20
40.9868469923444
 30
1445.0
 10
10.510840549431597
 20
38.14596504212263
 30
1445.0
 10
10.502246969194323
 20
35.30509876966983
 30
1445.0
 10
10.493757752923855
 20
32.46425314843923
 30
1445.0
 10
10.482784097366311
 20
28.752123325853535
 30
1445.0
 10
10.480260929597614
 20
27.895692680896747
 30
1445.0
 10
10.477790298175236
 20
27.054433790596665
 30
1445.0
 10
10.475372163886314
 20
26.228635610053953
 30
1445.0
 10
10.473006487517987
 20
25.418587094369418
 30
1445.0
 10
10.47069322985739
 20
24.624577198644047
 30
1445.0
 10
10.468432351691671
 20
23.846894877978958
 30
1445.0
 10
10.464015366409512
 20
22.324794478338855
 30
1445.0
 10
10.461859043511305
 20
21.580312551173094
 30
1445.0
 10
10.459755175764213
 20
20.852737692396335
 30
1445.0
 10
10.457703382464981
 20
20.14239217519301
 30
1445.0
 10
10.455704112047068
 20
19.449565787619974
 30
1445.0
 10
10.453757283527663
 20
18.77451615730736
 30
1445.0
 10
10.451861669772027
 20
18.117468901149554
 30
1445.0
 10
10.446905128166923
 20
16.399353606321938
 30
1445.0
 10
10.443791653120666
 20
15.320111358739979
 30
1445.0
 10
10.440678239358872
 20
14.240890353472519
 30
1445.0
 10
10.437564895401849
 20
13.161693543728148
 30
1445.0
 10
10.43445164150566
 20
12.082527950865636
 30
1445.0
 10
10.431338508601186
 20
11.003404296466883
 30
1445.0
 10
10.428225542234209
 20
9.924338367926016
 30
1445.0
 10
10.423532132409036
 20
8.29743397972209
 30
1445.0
 10
10.421951519126047
 20
7.749536654527979
 30
1445.0
 10
10.420370983238422
 20
7.201666156668487
 30
1445.0
 10
10.418790535454246
 20
6.653826197779523
 30
1445.0
 10
10.417210201467787
 20
6.106025684339823
 30
1445.0
 10
10.415630020550314
 20
5.558278229084856
 30
1445.0
 10
10.414050050551703
 20
5.010603884589699
 30
1445.0
 10
10.41175033769656
 20
4.213440814868807
 30
1445.0
 10
10.411030355851498
 20
3.9638692489030447
 30
1445.0
 10
10.410310451721697
 20
3.7143246214778003
 30
1445.0
 10
10.40959063714012
 20
3.4648110342662903
 30
1445.0
 10
10.408870933848254
 20
3.2153360236078683
 30
1445.0
 10
10.408151373557494
 20
2.965910581756212
 30
1445.0
 10
10.407432001325118
 20
2.7165503270820857
 30
1445.0
 10
10.406222192983362
 20
2.297187299823321
 30
1445.0
 10
10.405731658675274
 20
2.127150488411502
 30
1445.0
 10
10.405241271483293
 20
1.957164672444378
 30
1445.0
 10
10.404751053439979
 20
1.7872374887973592
 30
1445.0
 10
10.404261052045571
 20
1.617385403281446
 30
1445.0
 10
10.403771374222062
 20
1.4476454781753034
 30
1445.0
 10
10.403282157836834
 20
1.278065503566296
 30
1445.0
 10
10.402551388754148
 20
1.0247546845281477
 30
1445.0
 10
10.402309372269903
 20
0.9408630757344554
 30
1445.0
 10
10.402067587511715
 20
0.8570517911110755
 30
1445.0
 10
10.401826066033186
 20
0.7733317686531223
 30
1445.0
 10
10.401584876457584
 20
0.689726794938224
 30
1445.0
 10
10.401344248156944
 20
0.6063163791196757
 30
1445.0
 10
10.401104439499685
 20
0.5231900804795941
 30
1445.0
 10
10.400773669278747
 20
0.40853323389316637
 30
1445.0
 10
10.400686347767754
 20
0.3782644596943885
 30
1445.0
 10
10.400603983518597
 20
0.34971405049928905
 30
1445.0
 10
10.400526410930754
 20
0.3228246032254922
 30
1445.0
 10
10.400453464403718
 20
0.2975387147905114
 30
1445.0
 10
10.400384978336968
 20
0.27379898211175047
 30
1445.0
 10
10.400320787129987
 20
0.25154800210650313
 30
1445.0
 10
10.40020066323453
 20
0.20990874127754466
 30
1445.0
 10
10.40014473054606
 20
0.19052046045412602
 30
1445.0
 10
10.40009276151633
 20
0.17250612613914842
 30
1445.0
 10
10.400044590544821
 20
0.15580833525005988
 30
1445.0
 10
10.400000052031023
 20
0.14036968470430466
 30
1445.0
 10
10.399958980374421
 20
0.12613277141932344
 30
1445.0
 10
10.399921209974492
 20
0.11304019231255323
 30
1445.0
 10
10.399851940486965
 20
0.08902889629015932
 30
1445.0
 10
10.399820441399365
 20
0.07811017937475484
 30
1445.0
 10
10.399791912367416
 20
0.06822099047250112
 30
1445.0
 10
10.399766187790599
 20
0.059303926500744994
 30
1445.0
 10
10.399743102068397
 20
0.051301584376893014
 30
1445.0
 10
10.399722489600293
 20
0.04415656101841136
 30
1445.0
 10
10.399704184785776
 20
0.037811453342825985
 30
1445.0
 10
10.399664932365127
 20
0.024205151017412163
 30
1445.0
 10
10.3996462142428
 20
0.01771677560455893
 30
1445.0
 10
10.399631384857017
 20
0.012576376103307245
 30
1445.0
 10
10.399619961407438
 20
0.008616596587814586
 30
1445.0
 10
10.39961146109373
 20
0.005670081132251425
 30
1445.0
 10
10.399605401115553
 20
0.0035694738108012253
 30
1445.0
 10
10.399601298672572
 20
0.0021474186976604415
 30
1445.0
 10
10.399595780485493
 20
0.0002346151428156418
 30
1445.0
 10
10.399594582514224
 20
-0.00014878205072627843
 30
1445.0
 10
10.399594983832625
 20
-0.00013638249700319093
 30
1445.0
 10
10.399595298854143
 20
4.9063070040996794e-05
 30
1445.0
 10
10.399594848978339
 20
0.00018480393287591469
 30
1445.0
 10
10.399594735765051
 20
4.808936621714111e-05
 30
1445.0
 10
10.399596787928102
 20
-0.0005838313782504656
 30
1445.0
 10
10.39960457636891
 20
-0.003283586761725133
 30
1445.0
 10
10.399610541801875
 20
-0.005351421366967202
 30
1445.0
 10
10.399619221054666
 20
-0.008359963631223521
 30
1445.0
 10
10.39963125673453
 20
-0.012531964291743844
 30
1445.0
 10
10.399647291448721
 20
-0.018090174085788894
 30
1445.0
 10
10.399667967804486
 20
-0.02525734375063036
 30
1445.0
 10
10.39969392840907
 20
-0.034256224023550885
 30
1445.0
 10
10.39975770333037
 20
-0.05636290726015147
 30
1445.0
 10
10.399795517647092
 20
-0.06947071022373409
 30
1445.0
 10
10.399839901427127
 20
-0.08485572526990788
 30
1445.0
 10
10.399891497277721
 20
-0.10274070313596564
 30
1445.0
 10
10.399950947806131
 20
-0.12334839455917698
 30
1445.0
 10
10.400018895619596
 20
-0.14690155027678845
 30
1445.0
 10
10.400095983325365
 20
-0.17362292102602342
 30
1445.0
 10
10.400253929153232
 20
-0.228372623786143
 30
1445.0
 10
10.400331553391178
 20
-0.2552799753776571
 30
1445.0
 10
10.400416078205973
 20
-0.28457931478854037
 30
1445.0
 10
10.400507855559065
 20
-0.31639264448870913
 30
1445.0
 10
10.400607237411894
 20
-0.35084196694807945
 30
1445.0
 10
10.400714575725905
 20
-0.3880492846365675
 30
1445.0
 10
10.400830222462547
 20
-0.4281366000240894
 30
1445.0
 10
10.401078836703983
 20
-0.5143152311371608
 30
1445.0
 10
10.401211804208774
 20
-0.560406546862552
 30
1445.0
 10
10.40135378405909
 20
-0.609621865226779
 30
1445.0
 10
10.40150512821637
 20
-0.6620831886998396
 30
1445.0
 10
10.40166618864206
 20
-0.7179125197516865
 30
1445.0
 10
10.401837317297607
 20
-0.7772318608522255
 30
1445.0
 10
10.40201886614446
 20
-0.8401632144713175
 30
1445.0
 10
10.402573754169241
 20
-1.0325073411435106
 30
1445.0
 10
10.402936985041729
 20
-1.1584162118210273
 30
1445.0
 10
10.403300644511381
 20
-1.2844736491443172
 30
1445.0
 10
10.403664606944837
 20
-1.4106361041456807
 30
1445.0
 10
10.404028787961092
 20
-1.5368743274107715
 30
1445.0
 10
10.404393133551778
 20
-1.6631695977622982
 30
1445.0
 10
10.404757626452811
 20
-1.7895159308680597
 30
1445.0
 10
10.405740454306436
 20
-2.1301993701597226
 30
1445.0
 10
10.406358982665061
 20
-2.3446035173249626
 30
1445.0
 10
10.406977752007169
 20
-2.5590911974112878
 30
1445.0
 10
10.407596700402685
 20
-2.773640943312415
 30
1445.0
 10
10.408215785062565
 20
-2.9882379228838936
 30
1445.0
 10
10.408834977345515
 20
-3.2028722080838747
 30
1445.0
 10
10.40945426337418
 20
-3.4175389885442478
 30
1445.0
 10
10.411302324119987
 20
-4.058143218962513
 30
1445.0
 10
10.4125313145996
 20
-4.484155458983487
 30
1445.0
 10
10.413760515442377
 20
-4.910240617409148
 30
1445.0
 10
10.414989870675942
 20
-5.336379292370765
 30
1445.0
 10
10.416219342008205
 20
-5.762558210560449
 30
1445.0
 10
10.417448904119706
 20
-6.188768595429366
 30
1445.0
 10
10.418678545595398
 20
-6.615006490194613
 30
1445.0
 10
10.422363637303633
 20
-7.892391614897843
 30
1445.0
 10
10.424819271073394
 20
-8.74360246384176
 30
1445.0
 10
10.427275081969114
 20
-9.594874709331616
 30
1445.0
 10
10.429731021847154
 20
-10.44619166332157
 30
1445.0
 10
10.432187057960649
 20
-11.297541974756161
 30
1445.0
 10
10.434643168818093
 20
-12.148918194055625
 30
1445.0
 10
10.437099345226075
 20
-13.0003171345734
 30
1445.0
 10
10.441134243278077
 20
-14.398957684954212
 30
1445.0
 10
10.442760422332872
 20
-14.9626400275057
 30
1445.0
 10
10.444434779826171
 20
-15.543082424815793
 30
1445.0
 10
10.446158821593793
 20
-16.14057801916374
 30
1445.0
 10
10.447932060069276
 20
-16.755416410185262
 30
1445.0
 10
10.44975709784109
 20
-17.387882882688018
 30
1445.0
 10
10.451633076856442
 20
-18.038259488913155
 30
1445.0
 10
10.455490586852756
 20
-19.37533803311086
 30
1445.0
 10
10.457471429379389
 20
-20.06179519221777
 30
1445.0
 10
10.459504471378214
 20
-20.765906492984367
 30
1445.0
 10
10.461589752062093
 20
-21.48738298030973
 30
1445.0
 10
10.463727310643888
 20
-22.22593569909298
 30
1445.0
 10
10.46591718633646
 20
-22.981275694233258
 30
1445.0
 10
10.46815941835267
 20
-23.753114010629734
 30
1445.0
 10
10.47713085360637
 20
-26.83418865060387
 30
1445.0
 10
10.483851772999637
 20
-29.127246742466482
 30
1445.0
 10
10.490629139549657
 20
-31.420326712727395
 30
1445.0
 10
10.49746951488382
 20
-33.7134232917123
 30
1445.0
 10
10.504377887163557
 20
-36.00653281243969
 30
1445.0
 10
10.511358552352789
 20
-38.29965269496582
 30
1445.0
 10
10.518414874993745
 20
-40.59278155688422
 30
1445.0
 10
10.537476147666307
 20
-46.71871962647718
 30
1445.0
 10
10.549622637880644
 20
-50.551541574712616
 30
1445.0
 10
10.562004503376901
 20
-54.38437873536628
 30
1445.0
 10
10.574634284661983
 20
-58.21722744318488
 30
1445.0
 10
10.58752447636765
 20
-62.0500850277861
 30
1445.0
 10
10.600688228088282
 20
-65.88294949015119
 30
1445.0
 10
10.614139512675298
 20
-69.71581948607448
 30
1445.0
 10
10.6390220224928
 20
-76.64974531255152
 30
1445.0
 10
10.650348558978546
 20
-79.75079934251914
 30
1445.0
 10
10.661881682774169
 20
-82.85185553878196
 30
1445.0
 10
10.673630200170704
 20
-85.95291334032008
 30
1445.0
 10
10.685603688307044
 20
-89.05397224970504
 30
1445.0
 10
10.69781268518499
 20
-92.15503181688551
 30
1445.0
 10
10.71026887968429
 20
-95.25609162297339
 30
1445.0
 10
10.72883142430633
 20
-99.78280192286832
 30
1445.0
 10
10.73473255544003
 20
-101.20845254461298
 30
1445.0
 10
10.740689950888948
 20
-102.63410308966554
 30
1445.0
 10
10.74670494208468
 20
-104.05975351830011
 30
1445.0
 10
10.75277893598026
 20
-105.48540379066338
 30
1445.0
 10
10.758913415050172
 20
-106.91105386677432
 30
1445.0
 10
10.765109937290333
 20
-108.3367037065245
 30
1445.0
 10
10.777631321936072
 20
-111.18822755683958
 30
1445.0
 10
10.783956339334203
 20
-112.61410156614158
 30
1445.0
 10
10.790343544807472
 20
-114.03997527163551
 30
1445.0
 10
10.796791370279667
 20
-115.46584864686305
 30
1445.0
 10
10.803298323203416
 20
-116.89172166485591
 30
1445.0
 10
10.809862986560175
 20
-118.31759429813596
 30
1445.0
 10
10.816484018860226
 20
-119.74346651871517
 30
1445.0
 10
10.850190623036458
 20
-126.9424362280215
 30
1445.0
 10
10.878124306209298
 20
-132.7155263811343
 30
1445.0
 10
10.906876337257902
 20
-138.48860741020468
 30
1445.0
 10
10.936379073621874
 20
-144.26167745320174
 30
1445.0
 10
10.966575433472421
 20
-150.03473356312873
 30
1445.0
 10
10.997416332787093
 20
-155.80777181127812
 30
1445.0
 10
11.028858195794239
 20
-161.58078669449603
 30
1445.0
 10
11.076614190800484
 20
-170.1966928458747
 30
1445.0
 10
11.092506817316796
 20
-173.0396084828671
 30
1445.0
 10
11.108529000743154
 20
-175.88251467640302
 30
1445.0
 10
11.124675474069168
 20
-178.72541007727895
 30
1445.0
 10
11.140940286880747
 20
-181.56829226119814
 30
1445.0
 10
11.15731699237854
 20
-184.4111578045238
 30
1445.0
 10
11.17379778347821
 20
-187.2540018082545
 30
1445.0
 10
11.19545266940438
 20
-190.96880652180192
 30
1445.0
 10
11.200457581467418
 20
-191.8259075108462
 30
1445.0
 10
11.205381687812762
 20
-192.6678291093924
 30
1445.0
 10
11.210222407177785
 20
-193.4942816545225
 30
1445.0
 10
11.214977158299888
 20
-194.3049754833191
 30
1445.0
 10
11.21964335991646
 20
-195.09962093286444
 30
1445.0
 10
11.224218430764896
 20
-195.87792834024089
 30
1445.0
 10
11.233180964642111
 20
-197.40125651213734
 30
1445.0
 10
11.23756877346678
 20
-198.14634123018942
 30
1445.0
 10
11.24186042902776
 20
-198.87450699319905
 30
1445.0
 10
11.246052715914466
 20
-199.58543076920594
 30
1445.0
 10
11.250143532762962
 20
-200.27882205658187
 30
1445.0
 10
11.254130532027736
 20
-200.95442257106777
 30
1445.0
 10
11.258010502463568
 20
-201.61200610129748
 30
1445.0
 10
11.268156551975249
 20
-203.33152284579808
 30
1445.0
 10
11.27452984119866
 20
-204.41164546145964
 30
1445.0
 10
11.280903005188467
 20
-205.49174685297413
 30
1445.0
 10
11.287276026530563
 20
-206.57182406905378
 30
1445.0
 10
11.293648863831619
 20
-207.65187009450588
 30
1445.0
 10
11.300021453883447
 20
-208.7318742170323
 30
1445.0
 10
11.306393703607121
 20
-209.8118206619397
 30
1445.0
 10
11.316001124029253
 20
-211.4400524449889
 30
1445.0
 10
11.319236641772655
 20
-211.9883965990875
 30
1445.0
 10
11.322472001353901
 20
-212.53671394841606
 30
1445.0
 10
11.325707180890738
 20
-213.08500078445624
 30
1445.0
 10
11.328942127874393
 20
-213.63324820820316
 30
1445.0
 10
11.33217676204994
 20
-214.18144261833015
 30
1445.0
 10
11.335410965195496
 20
-214.72956397901328
 30
1445.0
 10
11.34011848335851
 20
-215.52737758094972
 30
1445.0
 10
11.341592286770732
 20
-215.77715259362583
 30
1445.0
 10
11.343065931364851
 20
-216.026900690377
 30
1445.0
 10
11.34453939295921
 20
-216.2766177729652
 30
1445.0
 10
11.346012627122523
 20
-216.52629631134056
 30
1445.0
 10
11.347485569048663
 20
-216.77592532239518
 30
1445.0
 10
11.348958126657376
 20
-217.0254892006805
 30
1445.0
 10
11.351434606260687
 20
-217.4451942435549
 30
1445.0
 10
11.352438728930522
 20
-217.6153694178795
 30
1445.0
 10
11.353442550958478
 20
-217.78549364045801
 30
1445.0
 10
11.354446027304654
 20
-217.9555592781432
 30
1445.0
 10
11.355449060919545
 20
-218.12554988324882
 30
1445.0
 10
11.356451433267146
 20
-218.29542841912732
 30
1445.0
 10
11.357452862609394
 20
-218.4651471377711
 30
1445.0
 10
11.35894874887705
 20
-218.71866467502971
 30
1445.0
 10
11.359444153602304
 20
-218.80262412342483
 30
1445.0
 10
11.359939084766118
 20
-218.88650331428852
 30
1445.0
 10
11.360433477889883
 20
-218.97029132003257
 30
1445.0
 10
11.360927192760942
 20
-219.05396437787974
 30
1445.0
 10
11.361419760558245
 20
-219.13744303371928
 30
1445.0
 10
11.36191065326504
 20
-219.22063780111168
 30
1445.0
 10
11.362587749210949
 20
-219.33538963780305
 30
1445.0
 10
11.362766496547776
 20
-219.3656831070341
 30
1445.0
 10
11.362935096358767
 20
-219.3942568093189
 30
1445.0
 10
11.363093887628514
 20
-219.4211681945728
 30
1445.0
 10
11.36324320934162
 20
-219.4464747127112
 30
1445.0
 10
11.363383400482672
 20
-219.47023381364934
 30
1445.0
 10
11.363514800036265
 20
-219.49250294730268
 30
1445.0
 10
11.363760693937733
 20
-219.5341761798704
 30
1445.0
 10
11.363875188285602
 20
-219.55358027878458
 30
1445.0
 10
11.363981569015207
 20
-219.57160931024475
 30
1445.0
 10
11.364080175111132
 20
-219.58832072416615
 30
1445.0
 10
11.364171345557978
 20
-219.60377197046395
 30
1445.0
 10
11.364255419340335
 20
-219.61802049905359
 30
1445.0
 10
11.364332735442801
 20
-219.63112375985042
 30
1445.0
 10
11.364515043061232
 20
-219.66202061307163
 30
1445.0
 10
11.36461060302492
 20
-219.67821577922717
 30
1445.0
 10
11.36469162815938
 20
-219.69194763370643
 30
1445.0
 10
11.364759433882973
 20
-219.70343910898
 30
1445.0
 10
11.364815335614047
 20
-219.71291313751811
 30
1445.0
 10
11.364860648770946
 20
-219.72059265179107
 30
1445.0
 10
11.364896688772028
 20
-219.72670058426914
 30
1445.0
 10
11.364967166031146
 20
-219.73864482197695
 30
1445.0
 10
11.364936259872321
 20
-219.73836953079018
 30
1445.0
 10
11.364999871676412
 20
-219.74021080117728
 30
1445.0
 10
11.365031001879496
 20
-219.74323432951803
 30
1445.0
 10
11.36497501388484
 20
-219.74469225899355
 30
1445.0
 10
11.364947745786063
 20
-219.74431419719514
 30
1445.0
 10
11.36506455216509
 20
-219.74419169360485
 30
1445.0
 10
11.365000275964844
 20
-219.74425617694848
 30
1445.0
  0
ENDSEC
  0
SECTION
  2
OBJECTS
  0
DICTIONARY
  5
A
330
0
100
AcDbDictionary
281
1
  3
ACAD_COLOR
350
B
  3
ACAD_GROUP
350
C
  3
ACAD_LAYOUT
350
D
  3
ACAD_MATERIAL
350
E
  3
ACAD_MLEADERSTYLE
350
F
  3
ACAD_MLINESTYLE
350
10
  3
ACAD_PLOTSETTINGS
350
11
  3
ACAD_PLOTSTYLENAME
350
12
  3
ACAD_SCALELIST
350
14
  3
ACAD_TABLESTYLE
350
15
  3
ACAD_VISUALSTYLE
350
16
  3
EZDXF_META
350
2D
  0
DICTIONARY
  5
B
330
A
100
AcDbDictionary
281
1
  0
DICTIONARY
  5
C
330
A
100
AcDbDictionary
281
1
  0
DICTIONARY
  5
D
330
A
100
AcDbDictionary
281
1
  3
Model
350
1A
  3
Layout1
350
1E
  0
DICTIONARY
  5
E
330
A
100
AcDbDictionary
281
1
  3
ByBlock
350
1F
  3
ByLayer
350
20
  3
Global
350
21
  0
DICTIONARY
  5
F
330
A
100
AcDbDictionary
281
1
  3
Standard
350
2C
  0
DICTIONARY
  5
10
330
A
100
AcDbDictionary
281
1
  3
Standard
350
22
  0
DICTIONARY
  5
11
330
A
100
AcDbDictionary
281
1
  0
ACDBDICTIONARYWDFLT
  5
12
330
A
100
AcDbDictionary
281
1
  3
Normal
350
13
100
AcDbDictionaryWithDefault
340
13
  0
ACDBPLACEHOLDER
  5
13
330
12
  0
DICTIONARY
  5
14
330
A
100
AcDbDictionary
281
1
  0
DICTIONARY
  5
15
330
A
100
AcDbDictionary
281
1
  0
DICTIONARY
  5
16
330
A
100
AcDbDictionary
281
1
  0
LAYOUT
  5
1A
330
D
100
AcDbPlotSettings
  1

  2
Adobe PDF
  4
A3
  6

 40
7.5
 41
20.0
 42
7.5
 43
20.0
 44
420.0
 45
297.0
 46
0.0
 47
0.0
 48
0.0
 49
0.0
140
0.0
141
0.0
142
1.0
143
1.0
 70
1024
 72
1
 73
1
 74
5
  7

 75
16
 76
0
 77
2
 78
300
147
1.0
148
0.0
149
0.0
100
AcDbLayout
  1
Model
 70
1
 71
0
 10
0.0
 20
0.0
 11
420.0
 21
297.0
 12
0.0
 22
0.0
 32
0.0
 14
1e+20
 24
1e+20
 34
1e+20
 15
-1e+20
 25
-1e+20
 35
-1e+20
146
0.0
 13
0.0
 23
0.0
 33
0.0
 16
1.0
 26
0.0
 36
0.0
 17
0.0
 27
1.0
 37
0.0
 76
1
330
17
  0
LAYOUT
  5
1E
330
D
100
AcDbPlotSettings
  1

  2
Adobe PDF
  4
A3
  6

 40
7.5
 41
20.0
 42
7.5
 43
20.0
 44
420.0
 45
297.0
 46
0.0
 47
0.0
 48
0.0
 49
0.0
140
0.0
141
0.0
142
1.0
143
1.0
 70
0
 72
1
 73
1
 74
5
  7

 75
16
 76
0
 77
2
 78
300
147
1.0
148
0.0
149
0.0
100
AcDbLayout
  1
Layout1
 70
1
 71
1
 10
0.0
 20
0.0
 11
420.0
 21
297.0
 12
0.0
 22
0.0
 32
0.0
 14
1e+20
 24
1e+20
 34
1e+20
 15
-1e+20
 25
-1e+20
 35
-1e+20
146
0.0
 13
0.0
 23
0.0
 33
0.0
 16
1.0
 26
0.0
 36
0.0
 17
0.0
 27
1.0
 37
0.0
 76
1
330
1B
  0
MATERIAL
  5
1F
102
{ACAD_REACTORS
330
E
102
}
330
E
100
AcDbMaterial
  1
ByBlock
  2

 70
0
 40
1.0
 71
1
 41
1.0
 91
-1023410177
 42
1.0
 72
1
  3

 73
1
 74
1
 75
1
 44
0.5
 73
0
 45
1.0
 46
1.0
 77
1
  4

 78
1
 79
1
170
1
 48
1.0
171
1
  6

172
1
173
1
174
1
140
1.0
141
1.0
175
1
  7

176
1
177
1
178
1
143
1.0
179
1
  8

270
1
271
1
272
1
145
1.0
146
1.0
273
1
  9

274
1
275
1
276
1
 42
1.0
 72
1
  3

 73
1
 74
1
 75
1
 94
63
  0
MATERIAL
  5
20
102
{ACAD_REACTORS
330
E
102
}
330
E
100
AcDbMaterial
  1
ByLayer
  2

 70
0
 40
1.0
 71
1
 41
1.0
 91
-1023410177
 42
1.0
 72
1
  3

 73
1
 74
1
 75
1
 44
0.5
 73
0
 45
1.0
 46
1.0
 77
1
  4

 78
1
 79
1
170
1
 48
1.0
171
1
  6

172
1
173
1
174
1
140
1.0
141
1.0
175
1
  7

176
1
177
1
178
1
143
1.0
179
1
  8

270
1
271
1
272
1
145
1.0
146
1.0
273
1
  9

274
1
275
1
276
1
 42
1.0
 72
1
  3

 73
1
 74
1
 75
1
 94
63
  0
MATERIAL
  5
21
102
{ACAD_REACTORS
330
E
102
}
330
E
100
AcDbMaterial
  1
Global
  2

 70
0
 40
1.0
 71
1
 41
1.0
 91
-1023410177
 42
1.0
 72
1
  3

 73
1
 74
1
 75
1
 44
0.5
 73
0
 45
1.0
 46
1.0
 77
1
  4

 78
1
 79
1
170
1
 48
1.0
171
1
  6

172
1
173
1
174
1
140
1.0
141
1.0
175
1
  7

176
1
177
1
178
1
143
1.0
179
1
  8

270
1
271
1
272
1
145
1.0
146
1.0
273
1
  9

274
1
275
1
276
1
 42
1.0
 72
1
  3

 73
1
 74
1
 75
1
 94
63
  0
MLINESTYLE
  5
22
102
{ACAD_REACTORS
330
10
102
}
330
10
100
AcDbMlineStyle
  2
Standard
 70
0
  3

 62
256
 51
90.0
 52
90.0
 71
2
 49
0.5
 62
256
  6
BYLAYER
 49
-0.5
 62
256
  6
BYLAYER
  0
MLEADERSTYLE
  5
2C
102
{ACAD_REACTORS
330
F
102
}
330
F
100
AcDbMLeaderStyle
179
2
170
2
171
1
172
0
 90
2
 40
0.0
 41
0.0
173
1
 91
-1056964608
 92
-2
290
1
 42
2.0
291
1
 43
8.0
  3
Standard
 44
4.0
300

342
29
174
1
175
1
176
0
178
1
 93
-1056964608
 45
4.0
292
0
297
0
 46
4.0
 94
-1056964608
 47
1.0
 49
1.0
140
1.0
294
1
141
0.0
177
0
142
1.0
295
0
296
0
143
3.75
271
0
272
9
273
9
  0
DICTIONARY
  5
2D
330
A
100
AcDbDictionary
280
1
281
1
  3
CREATED_BY_EZDXF
350
2E
  3
WRITTEN_BY_EZDXF
350
80
  0
DICTIONARYVAR
  5
2E
330
2D
100
DictionaryVariables
280
0
  1
0.17 @ 2022-02-15T16:42:31.179637+00:00
  0
DICTIONARYVAR
  5
80
330
2D
100
DictionaryVariables
280
0
  1
0.17 @ 2022-02-15T16:42:31.377380+00:00
  0
ENDSEC
  0
EOF
