  0
SECTION
  2
HEADER
  9
$ACADVER
  1
AC1027
  9
$ACADMAINTVER
 70
105
  9
$DWGCODEPAGE
  3
ANSI_1252
  9
$LASTSAVEDBY
  1
ezdxf
  9
$REQUIREDVERSIONS
160
0
  9
$INSBASE
 10
0.0
 20
0.0
 30
0.0
  9
$EXTMIN
 10
1e+20
 20
1e+20
 30
1e+20
  9
$EXTMAX
 10
-1e+20
 20
-1e+20
 30
-1e+20
  9
$LIMMIN
 10
0.0
 20
0.0
  9
$LIMMAX
 10
420.0
 20
297.0
  9
$ORTHOMODE
 70
0
  9
$REGENMODE
 70
1
  9
$FILLMODE
 70
1
  9
$QTEXTMODE
 70
0
  9
$MIRRTEXT
 70
1
  9
$LTSCALE
 40
1.0
  9
$ATTMODE
 70
1
  9
$TEXTSIZE
 40
2.5
  9
$TRACEWID
 40
1.0
  9
$TEXTSTYLE
  7
Standard
  9
$CLAYER
  8
0
  9
$CELTYPE
  6
ByLayer
  9
$CECOLOR
 62
256
  9
$CELTSCALE
 40
1.0
  9
$DISPSILH
 70
0
  9
$DIMSCALE
 40
1.0
  9
$DIMASZ
 40
2.5
  9
$DIMEXO
 40
0.625
  9
$DIMDLI
 40
3.75
  9
$DIMRND
 40
0.0
  9
$DIMDLE
 40
0.0
  9
$DIMEXE
 40
1.25
  9
$DIMTP
 40
0.0
  9
$DIMTM
 40
0.0
  9
$DIMTXT
 40
2.5
  9
$DIMCEN
 40
2.5
  9
$DIMTSZ
 40
0.0
  9
$DIMTOL
 70
0
  9
$DIMLIM
 70
0
  9
$DIMTIH
 70
0
  9
$DIMTOH
 70
0
  9
$DIMSE1
 70
0
  9
$DIMSE2
 70
0
  9
$DIMTAD
 70
1
  9
$DIMZIN
 70
8
  9
$DIMBLK
  1

  9
$DIMASO
 70
1
  9
$DIMSHO
 70
1
  9
$DIMPOST
  1

  9
$DIMAPOST
  1

  9
$DIMALT
 70
0
  9
$DIMALTD
 70
3
  9
$DIMALTF
 40
0.03937007874
  9
$DIMLFAC
 40
1.0
  9
$DIMTOFL
 70
1
  9
$DIMTVP
 40
0.0
  9
$DIMTIX
 70
0
  9
$DIMSOXD
 70
0
  9
$DIMSAH
 70
0
  9
$DIMBLK1
  1

  9
$DIMBLK2
  1

  9
$DIMSTYLE
  2
ISO-25
  9
$DIMCLRD
 70
0
  9
$DIMCLRE
 70
0
  9
$DIMCLRT
 70
0
  9
$DIMTFAC
 40
1.0
  9
$DIMGAP
 40
0.625
  9
$DIMJUST
 70
0
  9
$DIMSD1
 70
0
  9
$DIMSD2
 70
0
  9
$DIMTOLJ
 70
0
  9
$DIMTZIN
 70
8
  9
$DIMALTZ
 70
0
  9
$DIMALTTZ
 70
0
  9
$DIMUPT
 70
0
  9
$DIMDEC
 70
2
  9
$DIMTDEC
 70
2
  9
$DIMALTU
 70
2
  9
$DIMALTTD
 70
3
  9
$DIMTXSTY
  7
Standard
  9
$DIMAUNIT
 70
0
  9
$DIMADEC
 70
0
  9
$DIMALTRND
 40
0.0
  9
$DIMAZIN
 70
0
  9
$DIMDSEP
 70
44
  9
$DIMATFIT
 70
3
  9
$DIMFRAC
 70
0
  9
$DIMLDRBLK
  1

  9
$DIMLUNIT
 70
2
  9
$DIMLWD
 70
-2
  9
$DIMLWE
 70
-2
  9
$DIMTMOVE
 70
0
  9
$DIMFXL
 40
1.0
  9
$DIMFXLON
 70
0
  9
$DIMJOGANG
 40
0.785398163397
  9
$DIMTFILL
 70
0
  9
$DIMTFILLCLR
 70
0
  9
$DIMARCSYM
 70
0
  9
$DIMLTYPE
  6

  9
$DIMLTEX1
  6

  9
$DIMLTEX2
  6

  9
$DIMTXTDIRECTION
 70
0
  9
$LUNITS
 70
2
  9
$LUPREC
 70
4
  9
$SKETCHINC
 40
1.0
  9
$FILLETRAD
 40
10.0
  9
$AUNITS
 70
0
  9
$AUPREC
 70
2
  9
$MENU
  1
.
  9
$ELEVATION
 40
0.0
  9
$PELEVATION
 40
0.0
  9
$THICKNESS
 40
0.0
  9
$LIMCHECK
 70
0
  9
$CHAMFERA
 40
0.0
  9
$CHAMFERB
 40
0.0
  9
$CHAMFERC
 40
0.0
  9
$CHAMFERD
 40
0.0
  9
$SKPOLY
 70
0
  9
$TDCREATE
 40
2459626.7379050925
  9
$TDUCREATE
 40
2458532.153996898
  9
$TDUPDATE
 40
2459626.7379050925
  9
$TDUUPDATE
 40
2458532.1544311
  9
$TDINDWG
 40
0.0
  9
$TDUSRTIMER
 40
0.0
  9
$USRTIMER
 70
1
  9
$ANGBASE
 50
0.0
  9
$ANGDIR
 70
0
  9
$PDMODE
 70
0
  9
$PDSIZE
 40
0.0
  9
$PLINEWID
 40
0.0
  9
$SPLFRAME
 70
0
  9
$SPLINETYPE
 70
6
  9
$SPLINESEGS
 70
8
  9
$HANDSEED
  5
7F
  9
$SURFTAB1
 70
6
  9
$SURFTAB2
 70
6
  9
$SURFTYPE
 70
6
  9
$SURFU
 70
6
  9
$SURFV
 70
6
  9
$UCSBASE
  2

  9
$UCSNAME
  2

  9
$UCSORG
 10
0.0
 20
0.0
 30
0.0
  9
$UCSXDIR
 10
1.0
 20
0.0
 30
0.0
  9
$UCSYDIR
 10
0.0
 20
1.0
 30
0.0
  9
$UCSORTHOREF
  2

  9
$UCSORTHOVIEW
 70
0
  9
$UCSORGTOP
 10
0.0
 20
0.0
 30
0.0
  9
$UCSORGBOTTOM
 10
0.0
 20
0.0
 30
0.0
  9
$UCSORGLEFT
 10
0.0
 20
0.0
 30
0.0
  9
$UCSORGRIGHT
 10
0.0
 20
0.0
 30
0.0
  9
$UCSORGFRONT
 10
0.0
 20
0.0
 30
0.0
  9
$UCSORGBACK
 10
0.0
 20
0.0
 30
0.0
  9
$PUCSBASE
  2

  9
$PUCSNAME
  2

  9
$PUCSORG
 10
0.0
 20
0.0
 30
0.0
  9
$PUCSXDIR
 10
1.0
 20
0.0
 30
0.0
  9
$PUCSYDIR
 10
0.0
 20
1.0
 30
0.0
  9
$PUCSORTHOREF
  2

  9
$PUCSORTHOVIEW
 70
0
  9
$PUCSORGTOP
 10
0.0
 20
0.0
 30
0.0
  9
$PUCSORGBOTTOM
 10
0.0
 20
0.0
 30
0.0
  9
$PUCSORGLEFT
 10
0.0
 20
0.0
 30
0.0
  9
$PUCSORGRIGHT
 10
0.0
 20
0.0
 30
0.0
  9
$PUCSORGFRONT
 10
0.0
 20
0.0
 30
0.0
  9
$PUCSORGBACK
 10
0.0
 20
0.0
 30
0.0
  9
$USERI1
 70
0
  9
$USERI2
 70
0
  9
$USERI3
 70
0
  9
$USERI4
 70
0
  9
$USERI5
 70
0
  9
$USERR1
 40
0.0
  9
$USERR2
 40
0.0
  9
$USERR3
 40
0.0
  9
$USERR4
 40
0.0
  9
$USERR5
 40
0.0
  9
$WORLDVIEW
 70
1
  9
$SHADEDGE
 70
3
  9
$SHADEDIF
 70
70
  9
$TILEMODE
 70
1
  9
$MAXACTVP
 70
64
  9
$PINSBASE
 10
0.0
 20
0.0
 30
0.0
  9
$PLIMCHECK
 70
0
  9
$PEXTMIN
 10
1e+20
 20
1e+20
 30
1e+20
  9
$PEXTMAX
 10
-1e+20
 20
-1e+20
 30
-1e+20
  9
$PLIMMIN
 10
0.0
 20
0.0
  9
$PLIMMAX
 10
420.0
 20
297.0
  9
$UNITMODE
 70
0
  9
$VISRETAIN
 70
1
  9
$PLINEGEN
 70
0
  9
$PSLTSCALE
 70
1
  9
$TREEDEPTH
 70
3020
  9
$CMLSTYLE
  2
Standard
  9
$CMLJUST
 70
0
  9
$CMLSCALE
 40
20.0
  9
$PROXYGRAPHICS
 70
1
  9
$MEASUREMENT
 70
1
  9
$CELWEIGHT
370
-1
  9
$ENDCAPS
280
0
  9
$JOINSTYLE
280
0
  9
$LWDISPLAY
290
0
  9
$INSUNITS
 70
6
  9
$HYPERLINKBASE
  1

  9
$STYLESHEET
  1

  9
$XEDIT
290
1
  9
$CEPSNTYPE
380
0
  9
$PSTYLEMODE
290
1
  9
$FINGERPRINTGUID
  2
{7E623CFF-47C3-43E0-A801-1BF1F868495B}
  9
$VERSIONGUID
  2
{82F4CD4B-9E79-443A-BAE3-18F7DB313448}
  9
$EXTNAMES
290
1
  9
$PSVPSCALE
 40
0.0
  9
$OLESTARTUP
290
0
  9
$SORTENTS
280
127
  9
$INDEXCTL
280
0
  9
$HIDETEXT
280
1
  9
$XCLIPFRAME
280
0
  9
$HALOGAP
280
0
  9
$OBSCOLOR
 70
257
  9
$OBSLTYPE
280
0
  9
$INTERSECTIONDISPLAY
280
0
  9
$INTERSECTIONCOLOR
 70
257
  9
$DIMASSOC
280
2
  9
$PROJECTNAME
  1

  9
$CAMERADISPLAY
290
0
  9
$LENSLENGTH
 40
50.0
  9
$CAMERAHEIGHT
 40
0.0
  9
$STEPSPERSEC
 40
24.0
  9
$STEPSIZE
 40
100.0
  9
$3DDWFPREC
 40
2.0
  9
$PSOLWIDTH
 40
0.005
  9
$PSOLHEIGHT
 40
0.08
  9
$LOFTANG1
 40
1.570796326795
  9
$LOFTANG2
 40
1.570796326795
  9
$LOFTMAG1
 40
0.0
  9
$LOFTMAG2
 40
0.0
  9
$LOFTPARAM
 70
7
  9
$LOFTNORMALS
280
1
  9
$LATITUDE
 40
37.795
  9
$LONGITUDE
 40
-122.394
  9
$NORTHDIRECTION
 40
0.0
  9
$TIMEZONE
 70
-8000
  9
$LIGHTGLYPHDISPLAY
280
1
  9
$TILEMODELIGHTSYNCH
280
1
  9
$CMATERIAL
347
20
  9
$SOLIDHIST
280
0
  9
$SHOWHIST
280
1
  9
$DWFFRAME
280
2
  9
$DGNFRAME
280
2
  9
$REALWORLDSCALE
290
1
  9
$INTERFERECOLOR
 62
256
  9
$CSHADOW
280
0
  9
$SHADOWPLANELOCATION
 40
0.0
  0
ENDSEC
  0
SECTION
  2
CLASSES
  0
CLASS
  1
ACDBDICTIONARYWDFLT
  2
AcDbDictionaryWithDefault
  3
ObjectDBX Classes
 90
0
 91
0
280
0
281
0
  0
CLASS
  1
SUN
  2
AcDbSun
  3
SCENEOE
 90
1153
 91
0
280
0
281
0
  0
CLASS
  1
VISUALSTYLE
  2
AcDbVisualStyle
  3
ObjectDBX Classes
 90
4095
 91
0
280
0
281
0
  0
CLASS
  1
MATERIAL
  2
AcDbMaterial
  3
ObjectDBX Classes
 90
1153
 91
0
280
0
281
0
  0
CLASS
  1
SCALE
  2
AcDbScale
  3
ObjectDBX Classes
 90
1153
 91
0
280
0
281
0
  0
CLASS
  1
TABLESTYLE
  2
AcDbTableStyle
  3
ObjectDBX Classes
 90
4095
 91
0
280
0
281
0
  0
CLASS
  1
MLEADERSTYLE
  2
AcDbMLeaderStyle
  3
ACDB_MLEADERSTYLE_CLASS
 90
4095
 91
0
280
0
281
0
  0
CLASS
  1
DICTIONARYVAR
  2
AcDbDictionaryVar
  3
ObjectDBX Classes
 90
0
 91
0
280
0
281
0
  0
CLASS
  1
CELLSTYLEMAP
  2
AcDbCellStyleMap
  3
ObjectDBX Classes
 90
1152
 91
0
280
0
281
0
  0
CLASS
  1
MENTALRAYRENDERSETTINGS
  2
AcDbMentalRayRenderSettings
  3
SCENEOE
 90
1024
 91
0
280
0
281
0
  0
CLASS
  1
ACDBDETAILVIEWSTYLE
  2
AcDbDetailViewStyle
  3
ObjectDBX Classes
 90
1025
 91
0
280
0
281
0
  0
CLASS
  1
ACDBSECTIONVIEWSTYLE
  2
AcDbSectionViewStyle
  3
ObjectDBX Classes
 90
1025
 91
0
280
0
281
0
  0
CLASS
  1
RASTERVARIABLES
  2
AcDbRasterVariables
  3
ISM
 90
0
 91
0
280
0
281
0
  0
CLASS
  1
ACDBPLACEHOLDER
  2
AcDbPlaceHolder
  3
ObjectDBX Classes
 90
0
 91
0
280
0
281
0
  0
CLASS
  1
LAYOUT
  2
AcDbLayout
  3
ObjectDBX Classes
 90
0
 91
0
280
0
281
0
  0
ENDSEC
  0
SECTION
  2
TABLES
  0
TABLE
  2
VPORT
  5
8
330
0
100
AcDbSymbolTable
 70
1
  0
VPORT
  5
23
330
8
100
AcDbSymbolTableRecord
100
AcDbViewportTableRecord
  2
*Active
 70
0
 10
0.0
 20
0.0
 11
1.0
 21
1.0
 12
344.2
 22
148.5
 13
0.0
 23
0.0
 14
0.5
 24
0.5
 15
0.5
 25
0.5
 16
0.0
 26
0.0
 36
1.0
 17
0.0
 27
0.0
 37
0.0
 40
297.0
 41
1.34
 42
50.0
 43
0.0
 44
0.0
 50
0.0
 51
0.0
 71
0
 72
1000
 73
1
 74
3
 75
0
 76
0
 77
0
 78
0
281
0
 65
0
146
0.0
  0
ENDTAB
  0
TABLE
  2
LTYPE
  5
2
330
0
100
AcDbSymbolTable
 70
3
  0
LTYPE
  5
24
330
2
100
AcDbSymbolTableRecord
100
AcDbLinetypeTableRecord
  2
ByBlock
 70
0
  3

 72
65
 73
0
 40
0.0
  0
LTYPE
  5
25
330
2
100
AcDbSymbolTableRecord
100
AcDbLinetypeTableRecord
  2
ByLayer
 70
0
  3

 72
65
 73
0
 40
0.0
  0
LTYPE
  5
26
330
2
100
AcDbSymbolTableRecord
100
AcDbLinetypeTableRecord
  2
Continuous
 70
0
  3

 72
65
 73
0
 40
0.0
  0
ENDTAB
  0
TABLE
  2
LAYER
  5
1
330
0
100
AcDbSymbolTable
 70
2
  0
LAYER
  5
27
330
1
100
AcDbSymbolTableRecord
100
AcDbLayerTableRecord
  2
0
 70
0
 62
7
  6
Continuous
370
-3
390
13
347
21
  0
LAYER
  5
28
330
1
100
AcDbSymbolTableRecord
100
AcDbLayerTableRecord
  2
Defpoints
 70
0
 62
7
  6
Continuous
290
0
370
-3
390
13
347
21
  0
ENDTAB
  0
TABLE
  2
STYLE
  5
5
330
0
100
AcDbSymbolTable
 70
1
  0
STYLE
  5
29
330
5
100
AcDbSymbolTableRecord
100
AcDbTextStyleTableRecord
  2
Standard
 70
0
 40
0.0
 41
1.0
 50
0.0
 71
0
 42
2.5
  3
txt
  4

  0
ENDTAB
  0
TABLE
  2
VIEW
  5
7
330
0
100
AcDbSymbolTable
 70
0
  0
ENDTAB
  0
TABLE
  2
UCS
  5
6
330
0
100
AcDbSymbolTable
 70
0
  0
ENDTAB
  0
TABLE
  2
APPID
  5
3
330
0
100
AcDbSymbolTable
 70
3
  0
APPID
  5
2A
330
3
100
AcDbSymbolTableRecord
100
AcDbRegAppTableRecord
  2
ACAD
 70
0
  0
APPID
  5
7C
330
3
100
AcDbSymbolTableRecord
100
AcDbRegAppTableRecord
  2
HATCHBACKGROUNDCOLOR
 70
0
  0
APPID
  5
7D
330
3
100
AcDbSymbolTableRecord
100
AcDbRegAppTableRecord
  2
EZDXF
 70
0
  0
ENDTAB
  0
TABLE
  2
DIMSTYLE
  5
4
330
0
100
AcDbSymbolTable
 70
1
100
AcDbDimStyleTable
  0
DIMSTYLE
105
2B
330
4
100
AcDbSymbolTableRecord
100
AcDbDimStyleTableRecord
  2
Standard
 70
0
 40
1.0
 41
2.5
 42
0.625
 43
3.75
 44
1.25
 45
0.0
 46
0.0
 47
0.0
 48
0.0
 49
2.5
140
2.5
141
2.5
142
0.0
143
0.03937007874
144
1.0
145
0.0
146
1.0
147
0.625
148
0.0
 69
0
 70
0
 71
0
 72
0
 73
0
 74
0
 75
0
 76
0
 77
1
 78
8
 79
0
170
0
171
3
172
1
173
0
174
0
175
0
176
0
177
0
178
0
179
0
271
0
272
2
273
2
274
3
275
0
276
0
277
2
278
44
279
0
280
0
281
0
282
0
283
0
284
8
285
0
286
0
288
0
289
3
290
0
371
-2
372
-2
  0
ENDTAB
  0
TABLE
  2
BLOCK_RECORD
  5
9
330
0
100
AcDbSymbolTable
 70
2
  0
BLOCK_RECORD
  5
17
330
9
100
AcDbSymbolTableRecord
100
AcDbBlockTableRecord
  2
*Model_Space
340
1A
 70
0
280
1
281
0
  0
BLOCK_RECORD
  5
1B
330
9
100
AcDbSymbolTableRecord
100
AcDbBlockTableRecord
  2
*Paper_Space
340
1E
 70
0
280
1
281
0
  0
ENDTAB
  0
ENDSEC
  0
SECTION
  2
BLOCKS
  0
BLOCK
  5
18
330
17
100
AcDbEntity
  8
0
100
AcDbBlockBegin
  2
*Model_Space
 70
0
 10
0.0
 20
0.0
 30
0.0
  3
*Model_Space
  1

  0
ENDBLK
  5
19
330
17
100
AcDbEntity
  8
0
100
AcDbBlockEnd
  0
BLOCK
  5
1C
330
1B
100
AcDbEntity
  8
0
100
AcDbBlockBegin
  2
*Paper_Space
 70
0
 10
0.0
 20
0.0
 30
0.0
  3
*Paper_Space
  1

  0
ENDBLK
  5
1D
330
1B
100
AcDbEntity
  8
0
100
AcDbBlockEnd
  0
ENDSEC
  0
SECTION
  2
ENTITIES
  0
SPLINE
  5
2F
330
17
100
AcDbEntity
  8
0
100
AcDbSpline
 70
0
 71
8
 72
39
 73
30
 74
0
 40
0.0
 40
0.0
 40
0.0
 40
0.0
 40
0.0
 40
0.0
 40
0.0
 40
0.0
 40
0.0
 40
0.05747772093291646
 40
0.05747772093291646
 40
0.05747772093291646
 40
0.05747772093291646
 40
0.05747772093291646
 40
0.05747772093291646
 40
0.05747772093291646
 40
0.31798891094755843
 40
0.31798891094755843
 40
0.31798891094755843
 40
0.31798891094755843
 40
0.31798891094755843
 40
0.31798891094755843
 40
0.31798891094755843
 40
0.6327099903847286
 40
0.6327099903847286
 40
0.6327099903847286
 40
0.6327099903847286
 40
0.6327099903847286
 40
0.6327099903847286
 40
0.6327099903847286
 40
1.0
 40
1.0
 40
1.0
 40
1.0
 40
1.0
 40
1.0
 40
1.0
 40
1.0
 40
1.0
 10
31.661390828901304
 20
234.55504468340092
 30
1497.0
 10
31.470806045132903
 20
234.50660446099567
 30
1497.0
 10
31.280363549252428
 20
234.45526809485924
 30
1497.0
 10
31.09006800658696
 20
234.4011152528836
 30
1497.0
 10
30.899932665566077
 20
234.34420585165188
 30
1497.0
 10
30.709994208901144
 20
234.28452623002306
 30
1497.0
 10
30.520283317141804
 20
234.2219885285874
 30
1497.0
 10
30.33080437843298
 20
234.15672552148845
 30
1497.0
 10
29.283959570268976
 20
233.78024308283258
 30
1497.0
 10
28.445245702622525
 20
233.41972888821573
 30
1497.0
 10
27.627925611198073
 20
233.01111720890083
 30
1497.0
 10
26.83391237782434
 20
232.55835242278053
 30
1497.0
 10
26.06462556789844
 20
232.0652022242249
 30
1497.0
 10
25.321043507959
 20
231.5351692756472
 30
1497.0
 10
24.60374771942556
 20
230.9714179617163
 30
1497.0
 10
23.078463179249173
 20
229.65819060894646
 30
1497.0
 10
22.282911538013884
 20
228.8946934675963
 30
1497.0
 10
21.52669426559862
 20
228.09105547754686
 30
1497.0
 10
20.809972378008183
 20
227.2516682045276
 30
1497.0
 10
20.132650567650526
 20
226.38049477088396
 30
1497.0
 10
19.49438813933553
 20
225.4810634979586
 30
1497.0
 10
18.894640174153785
 20
224.5564357036243
 30
1497.0
 10
17.67690399751869
 20
222.50368254460105
 30
1497.0
 10
17.07277612453162
 20
221.36765674702968
 30
1497.0
 10
16.51922477811233
 20
220.20530828610774
 30
1497.0
 10
16.015124746389787
 20
219.02041958463755
 30
1497.0
 10
15.55924812150936
 20
217.81637427453825
 30
1497.0
 10
15.15026672922357
 20
216.5961586619893
 30
1497.0
 10
14.786789455054706
 20
215.36234809233997
 30
1497.0
 10
14.467394641486095
 20
214.11709461291755
 30
1497.0
  0
SPLINE
  5
30
330
17
100
AcDbEntity
  8
0
100
AcDbSpline
 70
0
 71
1
 72
4
 73
2
 74
0
 40
0.0
 40
0.0
 40
1.0
 40
1.0
 10
31.661390512784635
 20
234.5550459263285
 30
1497.0
 10
31.661390512784635
 20
232.09999939999986
 30
1497.0
  0
LINE
  5
31
330
17
100
AcDbEntity
  8
0
100
AcDbLine
 10
31.66139051273852
 20
232.1
 30
1497.0
 11
42.12263410138985
 21
232.1
 31
1497.0
  0
SPLINE
  5
32
330
17
100
AcDbEntity
  8
0
100
AcDbSpline
 70
0
 71
8
 72
53
 73
44
 74
0
 40
0.0
 40
0.0
 40
0.0
 40
0.0
 40
0.0
 40
0.0
 40
0.0
 40
0.0
 40
0.0
 40
0.010821892032758186
 40
0.010821892032758186
 40
0.010821892032758186
 40
0.010821892032758186
 40
0.010821892032758186
 40
0.010821892032758186
 40
0.010821892032758186
 40
0.1317684431369647
 40
0.1317684431369647
 40
0.1317684431369647
 40
0.1317684431369647
 40
0.1317684431369647
 40
0.1317684431369647
 40
0.1317684431369647
 40
0.4892419576296254
 40
0.4892419576296254
 40
0.4892419576296254
 40
0.4892419576296254
 40
0.4892419576296254
 40
0.4892419576296254
 40
0.4892419576296254
 40
0.7284701277902459
 40
0.7284701277902459
 40
0.7284701277902459
 40
0.7284701277902459
 40
0.7284701277902459
 40
0.7284701277902459
 40
0.7284701277902459
 40
0.9189546762627727
 40
0.9189546762627727
 40
0.9189546762627727
 40
0.9189546762627727
 40
0.9189546762627727
 40
0.9189546762627727
 40
0.9189546762627727
 40
1.0
 40
1.0
 40
1.0
 40
1.0
 40
1.0
 40
1.0
 40
1.0
 40
1.0
 40
1.0
 10
53.70590230830317
 20
209.89999999858608
 30
1497.0
 10
53.69512618355523
 20
209.9350900090829
 30
1497.0
 10
53.68434859448677
 20
209.9701482757976
 30
1497.0
 10
53.67356954351387
 20
210.00517477685406
 30
1497.0
 10
53.66278903305262
 20
210.04016949037612
 30
1497.0
 10
53.6520070655191
 20
210.07513239448767
 30
1497.0
 10
53.64122364332941
 20
210.11006346731253
 30
1497.0
 10
53.63043876889964
 20
210.14496268697457
 30
1497.0
 10
53.49910340260801
 20
210.56951097329986
 30
1497.0
 10
53.378373269986426
 20
210.95521055629627
 30
1497.0
 10
53.257465419526945
 20
211.33689824251968
 30
1497.0
 10
53.13638322397514
 20
211.7145434939027
 30
1497.0
 10
53.0151300560765
 20
212.08811577237776
 30
1497.0
 10
52.89370928857633
 20
212.4575845398771
 30
1497.0
 10
52.77212429421975
 20
212.82291925833263
 30
1497.0
 10
52.29054250227551
 20
214.25157544035196
 30
1497.0
 10
51.91846337282588
 20
215.3148331745507
 30
1497.0
 10
51.533091003715974
 20
216.3734370615941
 30
1497.0
 10
51.13324217963603
 20
217.42677731141848
 30
1497.0
 10
50.717550683888774
 20
218.4740393001743
 30
1497.0
 10
50.28442055385619
 20
219.5141849337526
 30
1497.0
 10
49.83192552516299
 20
220.54591245230486
 30
1497.0
 10
49.0401684682955
 20
222.25128490240283
 30
1497.0
 10
48.71300328078288
 20
222.93039732276563
 30
1497.0
 10
48.37535233021454
 20
223.6044522069064
 30
1497.0
 10
48.02638993063521
 20
224.27283059666914
 30
1497.0
 10
47.665204876568474
 20
224.93474595722543
 30
1497.0
 10
47.290770737661596
 20
225.58922799365155
 30
1497.0
 10
46.90189614679128
 20
226.23509513560694
 30
1497.0
 10
46.17488150074787
 20
227.37718546241368
 30
1497.0
 10
45.84261361073797
 20
227.87698233264024
 30
1497.0
 10
45.49960781893854
 20
228.36963446260873
 30
1497.0
 10
45.145091949139534
 20
228.85424935484016
 30
1497.0
 10
44.77825927852401
 20
229.32970937631077
 30
1497.0
 10
44.39825812347386
 20
229.79466376216538
 30
1497.0
 10
44.00417697423957
 20
230.24751709939272
 30
1497.0
 10
43.42094365841708
 20
230.87315156245228
 30
1497.0
 10
43.24415396259218
 20
231.0573409326854
 30
1497.0
 10
43.06457876759592
 20
231.23884287802207
 30
1497.0
 10
42.882146102946024
 20
231.41750043560438
 30
1497.0
 10
42.69679010178943
 20
231.5931402498911
 30
1497.0
 10
42.508451835107365
 20
231.76557372101195
 30
1497.0
 10
42.31708035985948
 20
231.93459842942968
 30
1497.0
 10
42.12263411150929
 20
232.10000001189647
 30
1497.0
  0
LINE
  5
33
330
17
100
AcDbEntity
  8
0
100
AcDbLine
 10
31.66139051273852
 20
209.9
 30
1497.0
 11
53.70590231290725
 21
209.9
 31
1497.0
  0
SPLINE
  5
34
330
17
100
AcDbEntity
  8
0
100
AcDbSpline
 70
0
 71
1
 72
4
 73
2
 74
0
 40
0.0
 40
0.0
 40
1.0
 40
1.0
 10
31.661390512784635
 20
209.90000060000008
 30
1497.0
 10
31.661390512784635
 20
206.09999939999994
 30
1497.0
  0
LINE
  5
35
330
17
100
AcDbEntity
  8
0
100
AcDbLine
 10
31.66139051273852
 20
206.1
 30
1497.0
 11
54.82026790463149
 21
206.1
 31
1497.0
  0
SPLINE
  5
36
330
17
100
AcDbEntity
  8
0
100
AcDbSpline
 70
0
 71
8
 72
32
 73
23
 74
0
 40
0.0
 40
0.0
 40
0.0
 40
0.0
 40
0.0
 40
0.0
 40
0.0
 40
0.0
 40
0.0
 40
0.27070096526550175
 40
0.27070096526550175
 40
0.27070096526550175
 40
0.27070096526550175
 40
0.27070096526550175
 40
0.27070096526550175
 40
0.27070096526550175
 40
0.9876329597625506
 40
0.9876329597625506
 40
0.9876329597625506
 40
0.9876329597625506
 40
0.9876329597625506
 40
0.9876329597625506
 40
0.9876329597625506
 40
1.0
 40
1.0
 40
1.0
 40
1.0
 40
1.0
 40
1.0
 40
1.0
 40
1.0
 40
1.0
 10
59.97517695027014
 20
183.89999999817982
 30
1497.0
 10
59.826386960397215
 20
184.6569324512319
 30
1497.0
 10
59.67604720333543
 20
185.4135594699664
 30
1497.0
 10
59.524117411943834
 20
186.16986918214667
 30
1497.0
 10
59.370554646097986
 20
186.9258488861999
 30
1497.0
 10
59.21531298880118
 20
187.68148499236656
 30
1497.0
 10
59.058343183275255
 20
188.43676295239482
 30
1497.0
 10
58.899592195992
 20
189.1916671748214
 30
1497.0
 10
58.31369296081538
 20
191.94445619958668
 30
1497.0
 10
57.87550535653297
 20
193.93991244511966
 30
1497.0
 10
57.42335786865922
 20
195.93230143123336
 30
1497.0
 10
56.955985110807895
 20
197.92124914712414
 30
1497.0
 10
56.471825069216926
 20
199.90622649531207
 30
1497.0
 10
55.9689593836738
 20
201.8865347992564
 30
1497.0
 10
55.44490398384992
 20
203.8612542946951
 30
1497.0
 10
54.88657914890587
 20
205.8630490796172
 30
1497.0
 10
54.877110069354494
 20
205.89697062064144
 30
1497.0
 10
54.86763966849303
 20
205.93086838428792
 30
1497.0
 10
54.85816794803153
 20
205.9647423550731
 30
1497.0
 10
54.848694909680056
 20
205.99859251751352
 30
1497.0
 10
54.83922055514867
 20
206.03241885612567
 30
1497.0
 10
54.82974488614743
 20
206.06622135542605
 30
1497.0
 10
54.8202679043864
 20
206.09999999993119
 30
1497.0
  0
LINE
  5
37
330
17
100
AcDbEntity
  8
0
100
AcDbLine
 10
31.66139051273852
 20
183.9
 30
1497.0
 11
59.97517695952967
 21
183.9
 31
1497.0
  0
SPLINE
  5
38
330
17
100
AcDbEntity
  8
0
100
AcDbSpline
 70
0
 71
1
 72
4
 73
2
 74
0
 40
0.0
 40
0.0
 40
1.0
 40
1.0
 10
31.66139051278464
 20
183.90000060000014
 30
1497.0
 10
31.66139051278464
 20
180.0999993999999
 30
1497.0
  0
LINE
  5
39
330
17
100
AcDbEntity
  8
0
100
AcDbLine
 10
31.66139051273852
 20
180.1
 30
1497.0
 11
60.70498051246824
 21
180.1
 31
1497.0
  0
SPLINE
  5
3A
330
17
100
AcDbEntity
  8
0
100
AcDbSpline
 70
0
 71
8
 72
25
 73
16
 74
0
 40
0.0
 40
0.0
 40
0.0
 40
0.0
 40
0.0
 40
0.0
 40
0.0
 40
0.0
 40
0.0
 40
0.6329931574537229
 40
0.6329931574537229
 40
0.6329931574537229
 40
0.6329931574537229
 40
0.6329931574537229
 40
0.6329931574537229
 40
0.6329931574537229
 40
1.0
 40
1.0
 40
1.0
 40
1.0
 40
1.0
 40
1.0
 40
1.0
 40
1.0
 40
1.0
 10
64.40041938766554
 20
157.89999999907192
 30
1497.0000000000002
 10
64.13981158755261
 20
159.6616743446088
 30
1497.0
 10
63.874060341202366
 20
161.4225837895481
 30
1497.0
 10
63.60301764683045
 20
163.18268777120537
 30
1497.0
 10
63.32651775561784
 20
164.94194185817602
 30
1497.0
 10
63.04437440625967
 20
166.70029735287957
 30
1497.0
 10
62.75637720931676
 20
168.4577007729438
 30
1497.0
 10
62.46228678715032
 20
170.2140931542354
 30
1497.0
 10
61.987623266476795
 20
172.98713407314122
 30
1497.0
 10
61.81127908973454
 20
174.00448896000864
 30
1497.0
 10
61.63274183456543
 20
175.02146092165052
 30
1497.0
 10
61.45195400367692
 20
176.0380353973896
 30
1497.0
 10
61.2688537049987
 20
177.05419597609932
 30
1497.0
 10
61.08337409307134
 20
178.0699242872514
 30
1497.0
 10
60.89544269525307
 20
179.08519987020625
 30
1497.0
 10
60.70498050700995
 20
180.09999999897553
 30
1497.0
  0
LINE
  5
3B
330
17
100
AcDbEntity
  8
0
100
AcDbLine
 10
31.66139051273852
 20
157.9
 30
1497.0
 11
64.40041939393961
 21
157.9
 31
1497.0
  0
SPLINE
  5
3C
330
17
100
AcDbEntity
  8
0
100
AcDbSpline
 70
0
 71
1
 72
4
 73
2
 74
0
 40
0.0
 40
0.0
 40
1.0
 40
1.0
 10
31.661390512784635
 20
157.90000060000042
 30
1497.0
 10
31.661390512784635
 20
154.09999939999918
 30
1497.0
  0
LINE
  5
3D
330
17
100
AcDbEntity
  8
0
100
AcDbLine
 10
31.66139051273852
 20
154.1
 30
1497.0
 11
64.95203095688899
 21
154.1
 31
1497.0
  0
SPLINE
  5
3E
330
17
100
AcDbEntity
  8
0
100
AcDbSpline
 70
0
 71
8
 72
18
 73
9
 74
0
 40
0.0
 40
0.0
 40
0.0
 40
0.0
 40
0.0
 40
0.0
 40
0.0
 40
0.0
 40
0.0
 40
1.0
 40
1.0
 40
1.0
 40
1.0
 40
1.0
 40
1.0
 40
1.0
 40
1.0
 40
1.0
 10
67.78971488796778
 20
131.90000000048366
 30
1497.0
 10
67.47265894097015
 20
134.67963586461877
 30
1497.0
 10
67.14530653975459
 20
137.45808949330257
 30
1497.0
 10
66.8074920504001
 20
140.235309055611
 30
1497.0
 10
66.45900299479938
 20
143.01122807457415
 30
1497.0
 10
66.09957501354953
 20
145.78576467718574
 30
1497.0
 10
65.72888319561002
 20
148.55882029862323
 30
1497.0
 10
65.34653127672402
 20
151.330278102597
 30
1497.0
 10
64.95203098036885
 20
154.10000000334435
 30
1497.0
  0
LINE
  5
3F
330
17
100
AcDbEntity
  8
0
100
AcDbLine
 10
31.66139051273852
 20
131.9
 30
1497.0
 11
67.78971488372765
 21
131.9
 31
1497.0
  0
SPLINE
  5
40
330
17
100
AcDbEntity
  8
0
100
AcDbSpline
 70
0
 71
1
 72
4
 73
2
 74
0
 40
0.0
 40
0.0
 40
1.0
 40
1.0
 10
31.66139051278464
 20
131.90000060000256
 30
1497.0
 10
31.66139051278464
 20
128.09999939999764
 30
1497.0
  0
LINE
  5
41
330
17
100
AcDbEntity
  8
0
100
AcDbLine
 10
31.66139051273852
 20
128.1
 30
1497.0
 11
68.21467767519586
 21
128.1
 31
1497.0
  0
SPLINE
  5
42
330
17
100
AcDbEntity
  8
0
100
AcDbSpline
 70
0
 71
8
 72
39
 73
30
 74
0
 40
0.0
 40
0.0
 40
0.0
 40
0.0
 40
0.0
 40
0.0
 40
0.0
 40
0.0
 40
0.0
 40
0.1630573027669587
 40
0.1630573027669587
 40
0.1630573027669587
 40
0.1630573027669587
 40
0.1630573027669587
 40
0.1630573027669587
 40
0.1630573027669587
 40
0.49476394918428235
 40
0.49476394918428235
 40
0.49476394918428235
 40
0.49476394918428235
 40
0.49476394918428235
 40
0.49476394918428235
 40
0.49476394918428235
 40
0.7850036919087966
 40
0.7850036919087966
 40
0.7850036919087966
 40
0.7850036919087966
 40
0.7850036919087966
 40
0.7850036919087966
 40
0.7850036919087966
 40
1.0
 40
1.0
 40
1.0
 40
1.0
 40
1.0
 40
1.0
 40
1.0
 40
1.0
 40
1.0
 10
70.36845303896051
 20
105.90000000009202
 30
1497.0
 10
70.32988508279253
 20
106.35480915274627
 30
1497.0
 10
70.29106884784908
 20
106.80959724318772
 30
1497.0
 10
70.25200353629097
 20
107.26436404497089
 30
1497.0
 10
70.21268834707759
 20
107.71910932966838
 30
1497.0
 10
70.17312247594323
 20
108.17383286686916
 30
1497.0
 10
70.13330511537339
 20
108.6285344241766
 30
1497.0
 10
70.09323545458113
 20
109.0832137672067
 30
1497.0
 10
69.97088426201945
 20
110.46277687649605
 30
1497.0
 10
69.88785094648487
 20
111.3871100835711
 30
1497.0
 10
69.80380820473555
 20
112.31086369361684
 30
1497.0
 10
69.7187515086273
 20
113.23403111943904
 30
1497.0
 10
69.63267633001604
 20
114.15660577384361
 30
1497.0
 10
69.54557814075756
 20
115.07858106963653
 30
1497.0
 10
69.45745241270767
 20
115.99995041962406
 30
1497.0
 10
69.29028250744962
 20
117.72635953378831
 30
1497.0
 10
69.21147562930484
 20
118.53157265126288
 30
1497.0
 10
69.13187774810409
 20
119.33630297953674
 30
1497.0
 10
69.0514931433577
 20
120.14050527620097
 30
1497.0
 10
68.97032660927012
 20
120.94413266593745
 30
1497.0
 10
68.88838345473988
 20
121.74713664051868
 30
1497.0
 10
68.80566950335968
 20
122.54946705880786
 30
1497.0
 10
68.66035411073882
 20
123.94486448146408
 30
1497.0
 10
68.59806114826188
 20
124.53860697745642
 30
1497.0
 10
68.53531142114574
 20
125.13229939715505
 30
1497.0
 10
68.47210405567897
 20
125.72594147381406
 30
1497.0
 10
68.40843808942873
 20
126.31953291155497
 30
1497.0
 10
68.34431247081032
 20
126.91307338530939
 30
1497.0
 10
68.27972605817797
 20
127.50656254068791
 30
1497.0
 10
68.2146776184986
 20
128.09999999378525
 30
1497.0
  0
LINE
  5
43
330
17
100
AcDbEntity
  8
0
100
AcDbLine
 10
31.66139051273852
 20
105.9
 30
1497.0
 11
70.36845303787607
 21
105.9
 31
1497.0
  0
SPLINE
  5
44
330
17
100
AcDbEntity
  8
0
100
AcDbSpline
 70
0
 71
1
 72
4
 73
2
 74
0
 40
0.0
 40
0.0
 40
1.0
 40
1.0
 10
31.66139051278464
 20
105.90000060000206
 30
1497.0
 10
31.661390512784635
 20
102.09999939999993
 30
1497.0
  0
LINE
  5
45
330
17
100
AcDbEntity
  8
0
100
AcDbLine
 10
31.66139051273852
 20
102.1
 30
1497.0
 11
70.68311126357165
 21
102.1
 31
1497.0
  0
SPLINE
  5
46
330
17
100
AcDbEntity
  8
0
100
AcDbSpline
 70
0
 71
8
 72
25
 73
16
 74
0
 40
0.0
 40
0.0
 40
0.0
 40
0.0
 40
0.0
 40
0.0
 40
0.0
 40
0.0
 40
0.0
 40
0.3710526910632995
 40
0.3710526910632995
 40
0.3710526910632995
 40
0.3710526910632995
 40
0.3710526910632995
 40
0.3710526910632995
 40
0.3710526910632995
 40
1.0
 40
1.0
 40
1.0
 40
1.0
 40
1.0
 40
1.0
 40
1.0
 40
1.0
 40
1.0
 10
72.23249263777731
 20
79.89999999997643
 30
1497.0000000000002
 10
72.17148867319017
 20
80.93038812780881
 30
1497.0000000000002
 10
72.10937812155079
 20
81.9607110429271
 30
1497.0000000000002
 10
72.04615293802897
 20
82.99096697084505
 30
1497.0000000000002
 10
71.98180500903308
 20
84.02115410886793
 30
1497.0000000000002
 10
71.91632615084843
 20
85.05127062604893
 30
1497.0000000000002
 10
71.84970810823867
 20
86.08131466314445
 30
1497.0000000000002
 10
71.78194255300845
 20
87.111284332568
 30
1497.0
 10
71.59619677581107
 20
89.88688308331008
 30
1497.0
 10
71.47605157629765
 20
91.63236601991028
 30
1497.0
 10
71.35254462910655
 20
93.3776164718103
 30
1497.0
 10
71.22563448792546
 20
95.12262396262528
 30
1497.0
 10
71.09527909541825
 20
96.86737759438594
 30
1497.0
 10
70.96143576363453
 20
98.6118660460059
 30
1497.0
 10
70.82406115441921
 20
100.35607757174905
 30
1497.0
 10
70.68311125982211
 20
102.09999999969699
 30
1497.0
  0
LINE
  5
47
330
17
100
AcDbEntity
  8
0
100
AcDbLine
 10
31.66139051273852
 20
79.9
 30
1497.0
 11
72.23249263817581
 21
79.9
 31
1497.0
  0
SPLINE
  5
48
330
17
100
AcDbEntity
  8
0
100
AcDbSpline
 70
0
 71
1
 72
4
 73
2
 74
0
 40
0.0
 40
0.0
 40
1.0
 40
1.0
 10
31.661390512784635
 20
79.90000060000001
 30
1497.0
 10
31.661390512784635
 20
76.09999939999999
 30
1497.0
  0
LINE
  5
49
330
17
100
AcDbEntity
  8
0
100
AcDbLine
 10
31.66139051273852
 20
76.1
 30
1497.0
 11
72.45090927894552
 21
76.1
 31
1497.0
  0
SPLINE
  5
4A
330
17
100
AcDbEntity
  8
0
100
AcDbSpline
 70
0
 71
8
 72
18
 73
9
 74
0
 40
0.0
 40
0.0
 40
0.0
 40
0.0
 40
0.0
 40
0.0
 40
0.0
 40
0.0
 40
0.0
 40
1.0
 40
1.0
 40
1.0
 40
1.0
 40
1.0
 40
1.0
 40
1.0
 40
1.0
 40
1.0
 10
73.47668351377533
 20
53.90000000008219
 30
1497.0
 10
73.37389047128002
 20
56.676103129292805
 30
1497.0
 10
73.2641156764198
 20
59.45194673074733
 30
1497.0
 10
73.14722099755636
 20
62.227504801734455
 30
1497.0
 10
73.02306549191272
 20
65.00274988480655
 30
1497.0
 10
72.89150525537954
 20
67.77765306305027
 30
1497.0
 10
72.75239326241584
 20
70.55218395502544
 30
1497.0
 10
72.60557919427613
 20
73.326310709311
 30
1497.0
 10
72.45090925379642
 20
76.0999999985976
 30
1497.0
  0
LINE
  5
4B
330
17
100
AcDbEntity
  8
0
100
AcDbLine
 10
31.66139051273852
 20
53.9
 30
1497.0
 11
73.4766835115549
 21
53.9
 31
1497.0
  0
SPLINE
  5
4C
330
17
100
AcDbEntity
  8
0
100
AcDbSpline
 70
0
 71
1
 72
4
 73
2
 74
0
 40
0.0
 40
0.0
 40
1.0
 40
1.0
 10
31.661390512784635
 20
53.90000060000026
 30
1497.0
 10
31.66139051278464
 20
50.09999939999937
 30
1497.0
  0
LINE
  5
4D
330
17
100
AcDbEntity
  8
0
100
AcDbLine
 10
31.66139051273852
 20
50.1
 30
1497.0
 11
73.61169760522858
 21
50.1
 31
1497.0
  0
SPLINE
  5
4E
330
17
100
AcDbEntity
  8
0
100
AcDbSpline
 70
0
 71
8
 72
18
 73
9
 74
0
 40
0.0
 40
0.0
 40
0.0
 40
0.0
 40
0.0
 40
0.0
 40
0.0
 40
0.0
 40
0.0
 40
1.0
 40
1.0
 40
1.0
 40
1.0
 40
1.0
 40
1.0
 40
1.0
 40
1.0
 40
1.0
 10
74.18339954331026
 20
27.90000000001553
 30
1497.0
 10
74.13401594676827
 20
30.675507948511786
 30
1497.0
 10
74.07857634788965
 20
33.45090937548673
 30
1497.0
 10
74.01695742422594
 20
36.22618676990392
 30
1497.0
 10
73.94903368167743
 20
39.001321190033686
 30
1497.0
 10
73.87467733226643
 20
41.77629225965357
 30
1497.0
 10
73.79375816616877
 20
44.551078164059895
 30
1497.0
 10
73.70614341624488
 20
47.32565564583007
 30
1497.0
 10
73.61169761331149
 20
50.1000000002752
 30
1497.0
  0
LINE
  5
4F
330
17
100
AcDbEntity
  8
0
100
AcDbLine
 10
31.66139051273852
 20
27.9
 30
1497.0
 11
74.1833995424359
 21
27.9
 31
1497.0
  0
SPLINE
  5
50
330
17
100
AcDbEntity
  8
0
100
AcDbSpline
 70
0
 71
1
 72
4
 73
2
 74
0
 40
0.0
 40
0.0
 40
1.0
 40
1.0
 10
31.661390512784635
 20
27.900000600000002
 30
1497.0
 10
31.661390512784635
 20
24.099999399999998
 30
1497.0
  0
LINE
  5
51
330
17
100
AcDbEntity
  8
0
100
AcDbLine
 10
31.66139051273852
 20
24.1
 30
1497.0
 11
74.2460783292604
 21
24.1
 31
1497.0
  0
SPLINE
  5
52
330
17
100
AcDbEntity
  8
0
100
AcDbSpline
 70
0
 71
8
 72
18
 73
9
 74
0
 40
0.0
 40
0.0
 40
0.0
 40
0.0
 40
0.0
 40
0.0
 40
0.0
 40
0.0
 40
0.0
 40
1.0
 40
1.0
 40
1.0
 40
1.0
 40
1.0
 40
1.0
 40
1.0
 40
1.0
 40
1.0
 10
74.42432027412632
 20
1.900000000005569
 30
1497.0
 10
74.42113568749134
 20
4.675121420767673
 30
1497.0
 10
74.41272371810679
 20
7.450230041291945
 30
1497.0
 10
74.398972258127
 20
10.22531668473836
 30
1497.0
 10
74.3797675665186
 20
13.000370761905561
 30
1497.0
 10
74.35499415993243
 20
15.77538026785086
 30
1497.0
 10
74.32453470195546
 20
18.55033177846311
 30
1497.0
 10
74.2882698889873
 20
21.325210446928118
 30
1497.0
 10
74.24607833098635
 20
24.10000000002624
 30
1497.0
  0
LINE
  5
53
330
17
100
AcDbEntity
  8
0
100
AcDbLine
 10
31.66139051273852
 20
1.9
 30
1497.0
 11
74.42432026926122
 21
1.9
 31
1497.0
  0
SPLINE
  5
54
330
17
100
AcDbEntity
  8
0
100
AcDbSpline
 70
0
 71
1
 72
4
 73
2
 74
0
 40
0.0
 40
0.0
 40
0.9999993684216398
 40
0.9999993684216398
 10
31.661390512784635
 20
1.9000006000000558
 30
1497.0
 10
31.66139051278464
 20
-6.553790374438061e-17
 30
1497.0
  0
SPLINE
  5
55
330
17
100
AcDbEntity
  8
0
100
AcDbSpline
 70
0
 71
1
 72
4
 73
2
 74
0
 40
0.0
 40
0.0
 40
1.0
 40
1.0
 10
31.66139051278464
 20
-1.9000006000000011
 30
1497.0
 10
31.66139051278464
 20
1.2000000211287443e-06
 30
1497.0
  0
LINE
  5
56
330
17
100
AcDbEntity
  8
0
100
AcDbLine
 10
31.66139051273848
 20
-1.9
 30
1497.0
 11
74.42441639139066
 21
-1.9
 31
1497.0
  0
SPLINE
  5
57
330
17
100
AcDbEntity
  8
0
100
AcDbSpline
 70
0
 71
8
 72
18
 73
9
 74
0
 40
0.0
 40
0.0
 40
0.0
 40
0.0
 40
0.0
 40
0.0
 40
0.0
 40
0.0
 40
0.0
 40
1.0
 40
1.0
 40
1.0
 40
1.0
 40
1.0
 40
1.0
 40
1.0
 40
1.0
 40
1.0
 10
74.24725087506881
 20
-24.100000000000676
 30
1497.0
 10
74.28931808576317
 20
-21.32522113505868
 30
1496.9999999999998
 10
74.32545433042748
 20
-18.550352874957866
 30
1496.9999999999995
 10
74.35578166734555
 20
-15.775410400347795
 30
1496.9999999999993
 10
74.38042005728937
 20
-13.00040722897501
 30
1496.9999999999993
 10
74.39948748038387
 20
-10.225355220588794
 30
1496.9999999999993
 10
74.41310004896688
 20
-7.4502645816805995
 30
1496.9999999999993
 10
74.42137211841926
 20
-4.675143870152138
 30
1496.9999999999993
 10
74.4244163979389
 20
-1.900000000007162
 30
1496.9999999999993
  0
LINE
  5
58
330
17
100
AcDbEntity
  8
0
100
AcDbLine
 10
31.66139051273848
 20
-24.1
 30
1497.0
 11
74.24725087502404
 21
-24.1
 31
1497.0
  0
SPLINE
  5
59
330
17
100
AcDbEntity
  8
0
100
AcDbSpline
 70
0
 71
1
 72
4
 73
2
 74
0
 40
0.0
 40
0.0
 40
1.0
 40
1.0
 10
31.66139051278464
 20
-27.900000600000034
 30
1497.0
 10
31.66139051278464
 20
-24.099999399999938
 30
1497.0
  0
LINE
  5
5A
330
17
100
AcDbEntity
  8
0
100
AcDbLine
 10
31.66139051273848
 20
-27.9
 30
1497.0
 11
74.1847384839605
 21
-27.9
 31
1497.0
  0
SPLINE
  5
5B
330
17
100
AcDbEntity
  8
0
100
AcDbSpline
 70
0
 71
8
 72
18
 73
9
 74
0
 40
0.0
 40
0.0
 40
0.0
 40
0.0
 40
0.0
 40
0.0
 40
0.0
 40
0.0
 40
0.0
 40
1.0
 40
1.0
 40
1.0
 40
1.0
 40
1.0
 40
1.0
 40
1.0
 40
1.0
 40
1.0
 10
73.61381058476442
 20
-50.10000000232983
 30
1497.0
 10
73.70818652865714
 20
-47.325646867397964
 30
1497.0
 10
73.7957223542087
 20
-44.55106309794546
 30
1497.0
 10
73.87655421605288
 20
-41.7762737085754
 30
1497.0
 10
73.95081557475814
 20
-39.001302023976294
 30
1497.0
 10
74.01863733610614
 20
-36.22616968481244
 30
1497.0
 10
74.0801479817237
 20
-33.45089665322473
 30
1497.0
 10
74.13547369304716
 20
-30.67550121803693
 30
1497.0
 10
74.18473847059752
 20
-27.899999999762827
 30
1497.0
  0
LINE
  5
5C
330
17
100
AcDbEntity
  8
0
100
AcDbLine
 10
31.66139051273848
 20
-50.1
 30
1497.0
 11
73.61381051627531
 21
-50.1
 31
1497.0
  0
SPLINE
  5
5D
330
17
100
AcDbEntity
  8
0
100
AcDbSpline
 70
0
 71
1
 72
4
 73
2
 74
0
 40
0.0
 40
0.0
 40
1.0
 40
1.0
 10
31.66139051278464
 20
-53.9000006
 30
1497.0
 10
31.66139051278464
 20
-50.0999994
 30
1497.0
  0
LINE
  5
5E
330
17
100
AcDbEntity
  8
0
100
AcDbLine
 10
31.66139051273848
 20
-53.9
 30
1497.0
 11
73.47888504096821
 21
-53.9
 31
1497.0
  0
SPLINE
  5
5F
330
17
100
AcDbEntity
  8
0
100
AcDbSpline
 70
0
 71
8
 72
18
 73
9
 74
0
 40
0.0
 40
0.0
 40
0.0
 40
0.0
 40
0.0
 40
0.0
 40
0.0
 40
0.0
 40
0.0
 40
1.0
 40
1.0
 40
1.0
 40
1.0
 40
1.0
 40
1.0
 40
1.0
 40
1.0
 40
1.0
 10
72.45327513200796
 20
-76.09999999934745
 30
1497.0
 10
72.60796751856742
 20
-73.3263171703807
 30
1497.0
 10
72.75479056048655
 20
-70.55219214314673
 30
1497.0
 10
72.8938986099549
 20
-67.77766000015352
 30
1497.0
 10
73.025442578084
 20
-65.00275409748679
 30
1497.0
 10
73.14957011339324
 20
-62.22750607249078
 30
1497.0
 10
73.26642576695286
 20
-59.45194585083357
 30
1497.0
 10
73.37615114617292
 20
-56.67610165305251
 30
1497.0
 10
73.47888505922705
 20
-53.90000000067567
 30
1497.0
  0
LINE
  5
60
330
17
100
AcDbEntity
  8
0
100
AcDbLine
 10
31.66139051273848
 20
-76.1
 30
1497.0
 11
72.45327514370871
 21
-76.1
 31
1497.0
  0
SPLINE
  5
61
330
17
100
AcDbEntity
  8
0
100
AcDbSpline
 70
0
 71
1
 72
4
 73
2
 74
0
 40
0.0
 40
0.0
 40
1.0
 40
1.0
 10
31.661390512784635
 20
-79.90000060000018
 30
1497.0
 10
31.66139051278464
 20
-76.09999939999999
 30
1497.0
  0
LINE
  5
62
330
17
100
AcDbEntity
  8
0
100
AcDbLine
 10
31.66139051273848
 20
-79.9
 30
1497.0
 11
72.23481577834949
 21
-79.9
 31
1497.0
  0
SPLINE
  5
63
330
17
100
AcDbEntity
  8
0
100
AcDbSpline
 70
0
 71
8
 72
18
 73
9
 74
0
 40
0.0
 40
0.0
 40
0.0
 40
0.0
 40
0.0
 40
0.0
 40
0.0
 40
0.0
 40
0.0
 40
1.0
 40
1.0
 40
1.0
 40
1.0
 40
1.0
 40
1.0
 40
1.0
 40
1.0
 40
1.0
 10
70.68466853927437
 20
-102.10000000177162
 30
1497.0
 10
70.90892935263915
 20
-99.32724111490774
 30
1497.0
 10
71.12413275895682
 20
-96.55375531675384
 30
1497.0
 10
71.33045670847606
 20
-93.77958811637396
 30
1497.0
 10
71.52807472593074
 20
-91.00478324491735
 30
1497.0
 10
71.71715614578434
 20
-88.2293826659301
 30
1497.0
 10
71.89786632931782
 20
-85.45342658481992
 30
1497.0
 10
72.07036686556879
 20
-82.67695345757056
 30
1497.0
 10
72.23481575813015
 20
-79.89999999880264
 30
1497.0
  0
LINE
  5
64
330
17
100
AcDbEntity
  8
0
100
AcDbLine
 10
31.66139051273848
 20
-102.1
 30
1497.0
 11
70.68466851737028
 21
-102.1
 31
1497.0
  0
SPLINE
  5
65
330
17
100
AcDbEntity
  8
0
100
AcDbSpline
 70
0
 71
1
 72
4
 73
2
 74
0
 40
0.0
 40
0.0
 40
1.0
 40
1.0
 10
31.661390512784635
 20
-105.90000060000003
 30
1497.0
 10
31.66139051278464
 20
-102.09999939999999
 30
1497.0
  0
LINE
  5
66
330
17
100
AcDbEntity
  8
0
100
AcDbLine
 10
31.66139051273848
 20
-105.9
 30
1497.0
 11
70.36977969361172
 21
-105.9
 31
1497.0
  0
SPLINE
  5
67
330
17
100
AcDbEntity
  8
0
100
AcDbSpline
 70
0
 71
8
 72
32
 73
23
 74
0
 40
0.0
 40
0.0
 40
0.0
 40
0.0
 40
0.0
 40
0.0
 40
0.0
 40
0.0
 40
0.0
 40
0.4209458994161225
 40
0.4209458994161225
 40
0.4209458994161225
 40
0.4209458994161225
 40
0.4209458994161225
 40
0.4209458994161225
 40
0.4209458994161225
 40
0.711473498901577
 40
0.711473498901577
 40
0.711473498901577
 40
0.711473498901577
 40
0.711473498901577
 40
0.711473498901577
 40
0.711473498901577
 40
1.0
 40
1.0
 40
1.0
 40
1.0
 40
1.0
 40
1.0
 40
1.0
 40
1.0
 40
1.0
 10
68.21397731227674
 20
-128.09999999891156
 30
1497.0
 10
68.34199344576658
 20
-126.93335565659089
 30
1497.0
 10
68.46822030628607
 20
-125.76651501958924
 30
1497.0
 10
68.5926670411699
 20
-124.59948218467329
 30
1497.0
 10
68.71534143018705
 20
-123.43226095008733
 30
1497.0
 10
68.83624993760817
 20
-122.26485482240666
 30
1497.0
 10
68.95539775373855
 20
-121.09726702213432
 30
1497.0
 10
69.07278883081334
 20
-119.92950048867854
 30
1497.0
 10
69.26823609195901
 20
-117.95546959383134
 30
1497.0
 10
69.34720898469958
 20
-117.14929838017872
 30
1497.0
 10
69.42534831513956
 20
-116.34304563402749
 30
1497.0
 10
69.50265811393943
 20
-115.53671275813763
 30
1497.0
 10
69.5791427236541
 20
-114.73030116839361
 30
1497.0
 10
69.65480679873285
 20
-113.92381229380413
 30
1497.0
 10
69.7296553055193
 20
-113.11724757650227
 30
1497.0
 10
69.87722177794599
 20
-111.50952534244242
 30
1497.0
 10
69.94995028328566
 20
-110.70837043589056
 30
1497.0
 10
70.02188360042537
 20
-109.90714495214608
 30
1497.0
 10
70.09302625737523
 20
-109.10585007869179
 30
1497.0
 10
70.16338274852951
 20
-108.30448699046026
 30
1497.0
 10
70.23295753518406
 20
-107.5030568498567
 30
1497.0
 10
70.30175504604215
 20
-106.7015608067812
 30
1497.0
 10
70.36977967770953
 20
-105.89999999865044
 30
1497.0
  0
LINE
  5
68
330
17
100
AcDbEntity
  8
0
100
AcDbLine
 10
31.66139051273848
 20
-128.1
 30
1497.0
 11
68.21397732219589
 21
-128.1
 31
1497.0
  0
SPLINE
  5
69
330
17
100
AcDbEntity
  8
0
100
AcDbSpline
 70
0
 71
1
 72
4
 73
2
 74
0
 40
0.0
 40
0.0
 40
1.0
 40
1.0
 10
31.661390512784635
 20
-131.9000006
 30
1497.0
 10
31.66139051278464
 20
-128.09999939999992
 30
1497.0
  0
LINE
  5
6A
330
17
100
AcDbEntity
  8
0
100
AcDbLine
 10
31.66139051273848
 20
-131.9
 30
1497.0
 11
67.78855429886089
 21
-131.9
 31
1497.0
  0
SPLINE
  5
6B
330
17
100
AcDbEntity
  8
0
100
AcDbSpline
 70
0
 71
8
 72
18
 73
9
 74
0
 40
0.0
 40
0.0
 40
0.0
 40
0.0
 40
0.0
 40
0.0
 40
0.0
 40
0.0
 40
0.0
 40
1.0
 40
1.0
 40
1.0
 40
1.0
 40
1.0
 40
1.0
 40
1.0
 40
1.0
 40
1.0
 10
64.9476962088562
 20
-154.0999999958577
 30
1497.0
 10
65.34262952356599
 20
-151.33030242469783
 30
1497.0
 10
65.72540551138101
 20
-148.55887424495114
 30
1497.0
 10
66.09651268453746
 20
-145.78584093610436
 30
1497.0
 10
66.45634697724307
 20
-143.01131217921784
 30
1497.0
 10
66.80523135115455
 20
-140.23538434214657
 30
1497.0
 10
67.14342845257804
 20
-137.45814208069763
 30
1497.0
 10
67.47114846316492
 20
-134.6796593347692
 30
1497.0
 10
67.78855428587545
 20
-131.89999999851716
 30
1497.0
  0
LINE
  5
6C
330
17
100
AcDbEntity
  8
0
100
AcDbLine
 10
31.66139051273848
 20
-154.1
 30
1497.0
 11
64.94769623790633
 21
-154.1
 31
1497.0
  0
SPLINE
  5
6D
330
17
100
AcDbEntity
  8
0
100
AcDbSpline
 70
0
 71
1
 72
4
 73
2
 74
0
 40
0.0
 40
0.0
 40
1.0
 40
1.0
 10
31.66139051278464
 20
-157.90000060000003
 30
1497.0
 10
31.66139051278464
 20
-154.0999994
 30
1497.0
  0
LINE
  5
6E
330
17
100
AcDbEntity
  8
0
100
AcDbLine
 10
31.66139051273848
 20
-157.9
 30
1497.0
 11
64.39547907617165
 21
-157.9
 31
1497.0
  0
SPLINE
  5
6F
330
17
100
AcDbEntity
  8
0
100
AcDbSpline
 70
0
 71
8
 72
18
 73
9
 74
0
 40
0.0
 40
0.0
 40
0.0
 40
0.0
 40
0.0
 40
0.0
 40
0.0
 40
0.0
 40
0.0
 40
1.0
 40
1.0
 40
1.0
 40
1.0
 40
1.0
 40
1.0
 40
1.0
 40
1.0
 40
1.0
 10
60.6963693169955
 20
-180.0999999998819
 30
1497.0
 10
61.21578174591381
 20
-177.33494258016913
 30
1497.0
 10
61.71641014168173
 20
-174.566364570124
 30
1497.0
 10
62.19985456769257
 20
-171.79469521305924
 30
1497.0
 10
62.66735018246459
 20
-169.0202784798525
 30
1497.0
 10
63.11989658601198
 20
-166.2433950315584
 30
1497.0
 10
63.55832335097167
 20
-163.46427328409575
 30
1497.0
 10
63.983322548741455
 20
-160.68309489605775
 30
1497.0
 10
64.39547908088498
 20
-157.90000000069807
 30
1497.0
  0
LINE
  5
70
330
17
100
AcDbEntity
  8
0
100
AcDbLine
 10
31.66139051273848
 20
-180.1
 30
1497.0
 11
60.696369317623876
 21
-180.1
 31
1497.0
  0
SPLINE
  5
71
330
17
100
AcDbEntity
  8
0
100
AcDbSpline
 70
0
 71
1
 72
4
 73
2
 74
0
 40
0.0
 40
0.0
 40
1.0
 40
1.0
 10
31.661390512784635
 20
-183.9000006000001
 30
1497.0
 10
31.661390512784635
 20
-180.09999939999994
 30
1497.0
  0
LINE
  5
72
330
17
100
AcDbEntity
  8
0
100
AcDbLine
 10
31.66139051273848
 20
-183.9
 30
1497.0
 11
59.96594752345706
 21
-183.9
 31
1497.0
  0
SPLINE
  5
73
330
17
100
AcDbEntity
  8
0
100
AcDbSpline
 70
0
 71
8
 72
25
 73
16
 74
0
 40
0.0
 40
0.0
 40
0.0
 40
0.0
 40
0.0
 40
0.0
 40
0.0
 40
0.0
 40
0.0
 40
0.22657942039764184
 40
0.22657942039764184
 40
0.22657942039764184
 40
0.22657942039764184
 40
0.22657942039764184
 40
0.22657942039764184
 40
0.22657942039764184
 40
1.0
 40
1.0
 40
1.0
 40
1.0
 40
1.0
 40
1.0
 40
1.0
 40
1.0
 40
1.0
 10
54.80804711329918
 20
-206.10000000145837
 30
1497.0
 10
54.98250800578923
 20
-205.4783656749338
 30
1497.0
 10
55.15445849803115
 20
-204.85602694519963
 30
1497.0
 10
55.32401444879068
 20
-204.23302987855976
 30
1497.0
 10
55.491280507519136
 20
-203.6094145522876
 30
1497.0
 10
55.65635212642708
 20
-202.98521564375494
 30
1497.0
 10
55.81931690150617
 20
-202.3604628244824
 30
1497.0
 10
55.98025569385928
 20
-201.735181094809
 30
1497.0
 10
56.68194470233623
 20
-198.9732802176961
 30
1497.0
 10
57.20187128521905
 20
-196.8314310062689
 30
1497.0
 10
57.70198746061082
 20
-194.68479893969982
 30
1497.0
 10
58.184397278459656
 20
-192.53409456227115
 30
1497.0
 10
58.6507638849536
 20
-190.37987747129102
 30
1497.0
 10
59.102429269122496
 20
-188.22258287838278
 30
1497.0
 10
59.540509131336094
 20
-186.06254313959087
 30
1497.0
 10
59.965947507894384
 20
-183.8999999969384
 30
1497.0
  0
LINE
  5
74
330
17
100
AcDbEntity
  8
0
100
AcDbLine
 10
31.66139051273848
 20
-206.1
 30
1497.0
 11
54.80804710810308
 21
-206.1
 31
1497.0
  0
SPLINE
  5
75
330
17
100
AcDbEntity
  8
0
100
AcDbSpline
 70
0
 71
1
 72
4
 73
2
 74
0
 40
0.0
 40
0.0
 40
1.0
 40
1.0
 10
31.661390512784635
 20
-209.90000060000008
 30
1497.0
 10
31.66139051278464
 20
-206.09999939999992
 30
1497.0
  0
LINE
  5
76
330
17
100
AcDbEntity
  8
0
100
AcDbLine
 10
31.66139051273848
 20
-209.9
 30
1497.0
 11
53.69340817446245
 21
-209.9
 31
1497.0
  0
SPLINE
  5
77
330
17
100
AcDbEntity
  8
0
100
AcDbSpline
 70
0
 71
8
 72
53
 73
44
 74
0
 40
0.0
 40
0.0
 40
0.0
 40
0.0
 40
0.0
 40
0.0
 40
0.0
 40
0.0
 40
0.0
 40
0.0827319370583245
 40
0.0827319370583245
 40
0.0827319370583245
 40
0.0827319370583245
 40
0.0827319370583245
 40
0.0827319370583245
 40
0.0827319370583245
 40
0.33026257928358554
 40
0.33026257928358554
 40
0.33026257928358554
 40
0.33026257928358554
 40
0.33026257928358554
 40
0.33026257928358554
 40
0.33026257928358554
 40
0.6577074867111921
 40
0.6577074867111921
 40
0.6577074867111921
 40
0.6577074867111921
 40
0.6577074867111921
 40
0.6577074867111921
 40
0.6577074867111921
 40
0.8001203194274842
 40
0.8001203194274842
 40
0.8001203194274842
 40
0.8001203194274842
 40
0.8001203194274842
 40
0.8001203194274842
 40
0.8001203194274842
 40
0.9108766731094923
 40
0.9108766731094923
 40
0.9108766731094923
 40
0.9108766731094923
 40
0.9108766731094923
 40
0.9108766731094923
 40
0.9108766731094923
 40
1.0
 40
1.0
 40
1.0
 40
1.0
 40
1.0
 40
1.0
 40
1.0
 40
1.0
 40
1.0
 10
42.11503736066388
 20
-232.10000001491034
 30
1497.0
 10
42.30897028415027
 20
-231.93488300783903
 30
1497.0
 10
42.4998412587243
 20
-231.766159468809
 30
1497.0
 10
42.68769413950007
 20
-231.59404063836286
 30
1497.0
 10
42.872580841262895
 20
-231.41872652697487
 30
1497.0
 10
43.05455998804415
 20
-231.2404043371002
 30
1497.0
 10
43.233695872434055
 20
-231.05924725479616
 30
1497.0
 10
43.410057724632644
 20
-230.87541361091678
 30
1497.0
 10
44.103307743296504
 20
-230.13144321645254
 30
1497.0
 10
44.59849717971525
 20
-229.55140246912015
 30
1497.0
 10
45.0714214453121
 20
-228.95265047244118
 30
1497.0
 10
45.52393096516346
 20
-228.3382627658823
 30
1497.0
 10
45.95769515261178
 20
-227.71074082376464
 30
1497.0
 10
46.37425697467072
 20
-227.07205249035385
 30
1497.0
 10
46.77506247014932
 20
-226.42365380753486
 30
1497.0
 10
47.6726694836566
 20
-224.89720972168385
 30
1497.0
 10
48.158402833153744
 20
-224.01309010085168
 30
1497.0
 10
48.62170496631508
 20
-223.1167788457911
 30
1497.0
 10
49.06490134943707
 20
-222.21032408432137
 30
1497.0
 10
49.48991838329525
 20
-221.2953404363144
 30
1497.0
 10
49.89841404963254
 20
-220.37307348819903
 30
1497.0
 10
50.29183273066699
 20
-219.44442670745943
 30
1497.0
 10
50.83658255453898
 20
-218.10359047381615
 30
1497.0
 10
51.00145149099975
 20
-217.69027457410158
 30
1497.0
 10
51.166072599803066
 20
-217.2699924585612
 30
1497.0
 10
51.33044157303024
 20
-216.8426893402661
 30
1497.0
 10
51.49455410276304
 20
-216.40831043228573
 30
1497.0
 10
51.65840588108367
 20
-215.96680094768763
 30
1497.0
 10
51.821992600074736
 20
-215.51810609953742
 30
1497.0
 10
52.112324027919286
 20
-214.70758438984154
 30
1497.0
 10
52.23780791005899
 20
-214.3524481112672
 30
1497.0
 10
52.36180012373633
 20
-213.99678505306278
 30
1497.0
 10
52.4843410789138
 20
-213.6406177180123
 30
1497.0
 10
52.60547307001869
 20
-213.28396832379656
 30
1497.0
 10
52.72524027594297
 20
-212.9268588029932
 30
1497.0
 10
52.84368876004336
 20
-212.56931080307658
 30
1497.0
 10
53.055156928558795
 20
-211.92329862594002
 30
1497.0
 10
53.14862452869914
 20
-211.63498386243887
 30
1497.0
 10
53.2412934604547
 20
-211.3464114672254
 30
1497.0
 10
53.33318642180726
 20
-211.05759094265017
 30
1497.0
 10
53.4243247686011
 20
-210.76853126620784
 30
1497.0
 10
53.51472864519231
 20
-210.47924092896358
 30
1497.0
 10
53.60441709824188
 20
-210.18972796898305
 30
1497.0
 10
53.693408175920254
 20
-209.90000000044776
 30
1497.0
  0
LINE
  5
78
330
17
100
AcDbEntity
  8
0
100
AcDbLine
 10
31.66139051273848
 20
-232.1
 30
1497.0
 11
42.11503734796904
 21
-232.1
 31
1497.0
  0
SPLINE
  5
79
330
17
100
AcDbEntity
  8
0
100
AcDbSpline
 70
0
 71
1
 72
4
 73
2
 74
0
 40
0.0
 40
0.0
 40
1.0
 40
1.0
 10
31.66139051278464
 20
-234.55691451716837
 30
1497.0
 10
31.66139051278464
 20
-232.09999939999992
 30
1497.0
  0
SPLINE
  5
7A
330
17
100
AcDbEntity
  8
0
100
AcDbSpline
 70
0
 71
8
 72
39
 73
30
 74
0
 40
0.0
 40
0.0
 40
0.0
 40
0.0
 40
0.0
 40
0.0
 40
0.0
 40
0.0
 40
0.0
 40
0.020000290803823362
 40
0.020000290803823362
 40
0.020000290803823362
 40
0.020000290803823362
 40
0.020000290803823362
 40
0.020000290803823362
 40
0.020000290803823362
 40
0.0371372571764077
 40
0.0371372571764077
 40
0.0371372571764077
 40
0.0371372571764077
 40
0.0371372571764077
 40
0.0371372571764077
 40
0.0371372571764077
 40
0.05376016977000905
 40
0.05376016977000905
 40
0.05376016977000905
 40
0.05376016977000905
 40
0.05376016977000905
 40
0.05376016977000905
 40
0.05376016977000905
 40
0.05442060929255236
 40
0.05442060929255236
 40
0.05442060929255236
 40
0.05442060929255236
 40
0.05442060929255236
 40
0.05442060929255236
 40
0.05442060929255236
 40
0.05442060929255236
 40
0.05442060929255236
 10
14.467394641486091
 20
-214.11709461291758
 30
1497.0
 10
14.786788553643445
 20
-215.36234457792634
 30
1497.0
 10
15.1502647115551
 20
-216.5961518313144
 30
1497.0
 10
15.559243031942884
 20
-217.81636454051446
 30
1497.0
 10
16.015112667095543
 20
-219.02040815823793
 30
1497.0
 10
16.519199703236573
 20
-220.205297717752
 30
1497.0
 10
17.07272991860167
 20
-221.36765143257136
 30
1497.0
 10
17.676826499143633
 20
-222.50368916973153
 30
1497.0
 10
18.894457960839368
 20
-224.55644014549011
 30
1497.0
 10
19.494132227041867
 20
-225.48105316294578
 30
1497.0
 10
20.13230801487152
 20
-226.38048075843847
 30
1497.0
 10
20.80952970554314
 20
-227.25166427736175
 30
1497.0
 10
21.52613799190894
 20
-228.09107806669243
 30
1497.0
 10
22.28222886544972
 20
-228.89476154298154
 30
1497.0
 10
23.077643076613747
 20
-229.65832520599292
 30
1497.0
 10
24.721352724645115
 20
-231.07393261534614
 30
1497.0
 10
25.56708693154582
 20
-231.72841050883787
 30
1497.0
 10
26.44888445566488
 20
-232.33599255824555
 30
1497.0
 10
27.36573947378504
 20
-232.89146015523943
 30
1497.0
 10
28.31584199014881
 20
-233.38896245150875
 30
1497.0
 10
29.296482855702024
 20
-233.82218263797705
 30
1497.0
 10
30.303930642985286
 20
-234.18456463897195
 30
1497.0
 10
31.37411291158609
 20
-234.48106306753772
 30
1497.0
 10
31.415044179696487
 20
-234.49227181335877
 30
1497.0
 10
31.45601211265715
 20
-234.5033582159797
 30
1497.0
 10
31.497016400548535
 20
-234.51432111965502
 30
1497.0
 10
31.53805672214519
 20
-234.52515936585678
 30
1497.0
 10
31.579132744901457
 20
-234.5358717936526
 30
1497.0
 10
31.620244124936864
 20
-234.54645724010044
 30
1497.0
 10
31.661390507021117
 20
-234.5569145406593
 30
1497.0
  0
SPLINE
  5
7B
330
17
100
AcDbEntity
  8
0
100
AcDbSpline
 70
0
 71
8
 72
375
 73
366
 74
0
 40
0.0
 40
0.0
 40
0.0
 40
0.0
 40
0.0
 40
0.0
 40
0.0
 40
0.0
 40
0.0
 40
0.001284597290483622
 40
0.001284597290483622
 40
0.001284597290483622
 40
0.001284597290483622
 40
0.001284597290483622
 40
0.001284597290483622
 40
0.001284597290483622
 40
0.00262552103519548
 40
0.00262552103519548
 40
0.00262552103519548
 40
0.00262552103519548
 40
0.00262552103519548
 40
0.00262552103519548
 40
0.00262552103519548
 40
0.00444075491550488
 40
0.00444075491550488
 40
0.00444075491550488
 40
0.00444075491550488
 40
0.00444075491550488
 40
0.00444075491550488
 40
0.00444075491550488
 40
0.006255988795820923
 40
0.006255988795820923
 40
0.006255988795820923
 40
0.006255988795820923
 40
0.006255988795820923
 40
0.006255988795820923
 40
0.006255988795820923
 40
0.009029493058221488
 40
0.009029493058221488
 40
0.009029493058221488
 40
0.009029493058221488
 40
0.009029493058221488
 40
0.009029493058221488
 40
0.009029493058221488
 40
0.013723033112144737
 40
0.013723033112144737
 40
0.013723033112144737
 40
0.013723033112144737
 40
0.013723033112144737
 40
0.013723033112144737
 40
0.013723033112144737
 40
0.02347365034835223
 40
0.02347365034835223
 40
0.02347365034835223
 40
0.02347365034835223
 40
0.02347365034835223
 40
0.02347365034835223
 40
0.02347365034835223
 40
0.04269034093373256
 40
0.04269034093373256
 40
0.04269034093373256
 40
0.04269034093373256
 40
0.04269034093373256
 40
0.04269034093373256
 40
0.04269034093373256
 40
0.055177564556032475
 40
0.055177564556032475
 40
0.055177564556032475
 40
0.055177564556032475
 40
0.055177564556032475
 40
0.055177564556032475
 40
0.055177564556032475
 40
0.0687406416390588
 40
0.0687406416390588
 40
0.0687406416390588
 40
0.0687406416390588
 40
0.0687406416390588
 40
0.0687406416390588
 40
0.0687406416390588
 40
0.11153281094565227
 40
0.11153281094565227
 40
0.11153281094565227
 40
0.11153281094565227
 40
0.11153281094565227
 40
0.11153281094565227
 40
0.11153281094565227
 40
0.17756713620356476
 40
0.17756713620356476
 40
0.17756713620356476
 40
0.17756713620356476
 40
0.17756713620356476
 40
0.17756713620356476
 40
0.17756713620356476
 40
0.2250989549371004
 40
0.2250989549371004
 40
0.2250989549371004
 40
0.2250989549371004
 40
0.2250989549371004
 40
0.2250989549371004
 40
0.2250989549371004
 40
0.3283806726656838
 40
0.3283806726656838
 40
0.3283806726656838
 40
0.3283806726656838
 40
0.3283806726656838
 40
0.3283806726656838
 40
0.3283806726656838
 40
0.3756858767321053
 40
0.3756858767321053
 40
0.3756858767321053
 40
0.3756858767321053
 40
0.3756858767321053
 40
0.3756858767321053
 40
0.3756858767321053
 40
0.40170650466360985
 40
0.40170650466360985
 40
0.40170650466360985
 40
0.40170650466360985
 40
0.40170650466360985
 40
0.40170650466360985
 40
0.40170650466360985
 40
0.4113496891244664
 40
0.4113496891244664
 40
0.4113496891244664
 40
0.4113496891244664
 40
0.4113496891244664
 40
0.4113496891244664
 40
0.4113496891244664
 40
0.41975534869078407
 40
0.41975534869078407
 40
0.41975534869078407
 40
0.41975534869078407
 40
0.41975534869078407
 40
0.41975534869078407
 40
0.41975534869078407
 40
0.4294488092492654
 40
0.4294488092492654
 40
0.4294488092492654
 40
0.4294488092492654
 40
0.4294488092492654
 40
0.4294488092492654
 40
0.4294488092492654
 40
0.43438350588763047
 40
0.43438350588763047
 40
0.43438350588763047
 40
0.43438350588763047
 40
0.43438350588763047
 40
0.43438350588763047
 40
0.43438350588763047
 40
0.43708909880033037
 40
0.43708909880033037
 40
0.43708909880033037
 40
0.43708909880033037
 40
0.43708909880033037
 40
0.43708909880033037
 40
0.43708909880033037
 40
0.43979469171302166
 40
0.43979469171302166
 40
0.43979469171302166
 40
0.43979469171302166
 40
0.43979469171302166
 40
0.43979469171302166
 40
0.43979469171302166
 40
0.4413729542454192
 40
0.4413729542454192
 40
0.4413729542454192
 40
0.4413729542454192
 40
0.4413729542454192
 40
0.4413729542454192
 40
0.4413729542454192
 40
0.4438530810820319
 40
0.4438530810820319
 40
0.4438530810820319
 40
0.4438530810820319
 40
0.4438530810820319
 40
0.4438530810820319
 40
0.4438530810820319
 40
0.4463332079185929
 40
0.4463332079185929
 40
0.4463332079185929
 40
0.4463332079185929
 40
0.4463332079185929
 40
0.4463332079185929
 40
0.4463332079185929
 40
0.4492936702782754
 40
0.4492936702782754
 40
0.4492936702782754
 40
0.4492936702782754
 40
0.4492936702782754
 40
0.4492936702782754
 40
0.4492936702782754
 40
0.45248814161754053
 40
0.45248814161754053
 40
0.45248814161754053
 40
0.45248814161754053
 40
0.45248814161754053
 40
0.45248814161754053
 40
0.45248814161754053
 40
0.4556979519048121
 40
0.4556979519048121
 40
0.4556979519048121
 40
0.4556979519048121
 40
0.4556979519048121
 40
0.4556979519048121
 40
0.4556979519048121
 40
0.45890776219208523
 40
0.45890776219208523
 40
0.45890776219208523
 40
0.45890776219208523
 40
0.45890776219208523
 40
0.45890776219208523
 40
0.45890776219208523
 40
0.46211757247938556
 40
0.46211757247938556
 40
0.46211757247938556
 40
0.46211757247938556
 40
0.46211757247938556
 40
0.46211757247938556
 40
0.46211757247938556
 40
0.46561918370191124
 40
0.46561918370191124
 40
0.46561918370191124
 40
0.46561918370191124
 40
0.46561918370191124
 40
0.46561918370191124
 40
0.46561918370191124
 40
0.471592034368824
 40
0.471592034368824
 40
0.471592034368824
 40
0.471592034368824
 40
0.471592034368824
 40
0.471592034368824
 40
0.471592034368824
 40
0.48338431234364926
 40
0.48338431234364926
 40
0.48338431234364926
 40
0.48338431234364926
 40
0.48338431234364926
 40
0.48338431234364926
 40
0.48338431234364926
 40
0.506624725040931
 40
0.506624725040931
 40
0.506624725040931
 40
0.506624725040931
 40
0.506624725040931
 40
0.506624725040931
 40
0.506624725040931
 40
0.5217266523500695
 40
0.5217266523500695
 40
0.5217266523500695
 40
0.5217266523500695
 40
0.5217266523500695
 40
0.5217266523500695
 40
0.5217266523500695
 40
0.5381298261636239
 40
0.5381298261636239
 40
0.5381298261636239
 40
0.5381298261636239
 40
0.5381298261636239
 40
0.5381298261636239
 40
0.5381298261636239
 40
0.5898869045405359
 40
0.5898869045405359
 40
0.5898869045405359
 40
0.5898869045405359
 40
0.5898869045405359
 40
0.5898869045405359
 40
0.5898869045405359
 40
0.669776795273497
 40
0.669776795273497
 40
0.669776795273497
 40
0.669776795273497
 40
0.669776795273497
 40
0.669776795273497
 40
0.669776795273497
 40
0.7273032645484656
 40
0.7273032645484656
 40
0.7273032645484656
 40
0.7273032645484656
 40
0.7273032645484656
 40
0.7273032645484656
 40
0.7273032645484656
 40
0.8523737473912494
 40
0.8523737473912494
 40
0.8523737473912494
 40
0.8523737473912494
 40
0.8523737473912494
 40
0.8523737473912494
 40
0.8523737473912494
 40
0.9096827774692166
 40
0.9096827774692166
 40
0.9096827774692166
 40
0.9096827774692166
 40
0.9096827774692166
 40
0.9096827774692166
 40
0.9096827774692166
 40
0.9412103782854193
 40
0.9412103782854193
 40
0.9412103782854193
 40
0.9412103782854193
 40
0.9412103782854193
 40
0.9412103782854193
 40
0.9412103782854193
 40
0.9528947449705144
 40
0.9528947449705144
 40
0.9528947449705144
 40
0.9528947449705144
 40
0.9528947449705144
 40
0.9528947449705144
 40
0.9528947449705144
 40
0.9630796368770318
 40
0.9630796368770318
 40
0.9630796368770318
 40
0.9630796368770318
 40
0.9630796368770318
 40
0.9630796368770318
 40
0.9630796368770318
 40
0.9748249126748674
 40
0.9748249126748674
 40
0.9748249126748674
 40
0.9748249126748674
 40
0.9748249126748674
 40
0.9748249126748674
 40
0.9748249126748674
 40
0.9808041259552784
 40
0.9808041259552784
 40
0.9808041259552784
 40
0.9808041259552784
 40
0.9808041259552784
 40
0.9808041259552784
 40
0.9808041259552784
 40
0.9840823998231518
 40
0.9840823998231518
 40
0.9840823998231518
 40
0.9840823998231518
 40
0.9840823998231518
 40
0.9840823998231518
 40
0.9840823998231518
 40
0.9873606736910252
 40
0.9873606736910252
 40
0.9873606736910252
 40
0.9873606736910252
 40
0.9873606736910252
 40
0.9873606736910252
 40
0.9873606736910252
 40
0.9900925685809179
 40
0.9900925685809179
 40
0.9900925685809179
 40
0.9900925685809179
 40
0.9900925685809179
 40
0.9900925685809179
 40
0.9900925685809179
 40
0.992004895003841
 40
0.992004895003841
 40
0.992004895003841
 40
0.992004895003841
 40
0.992004895003841
 40
0.992004895003841
 40
0.992004895003841
 40
0.995009979382725
 40
0.995009979382725
 40
0.995009979382725
 40
0.995009979382725
 40
0.995009979382725
 40
0.995009979382725
 40
0.995009979382725
 40
1.0
 40
1.0
 40
1.0
 40
1.0
 40
1.0
 40
1.0
 40
1.0
 40
1.0
 40
1.0
 10
14.467394641486088
 20
214.1170946129176
 30
1497.0
 10
14.467249930808949
 20
214.11724004699195
 30
1497.0
 10
14.467776025924373
 20
214.11644083444915
 30
1497.0
 10
14.466858583471927
 20
214.11872160536055
 30
1497.0
 10
14.467853266611344
 20
214.11501247335653
 30
1497.0
 10
14.467138405439439
 20
214.1132373761367
 30
1497.0
 10
14.467415824033015
 20
214.1101637483005
 30
1497.0
 10
14.467361412492677
 20
214.11044312258562
 30
1497.0
 10
14.467271701002778
 20
214.09248545831528
 30
1497.0
 10
14.467209940348187
 20
214.08012274870313
 30
1497.0
 10
14.467134874863929
 20
214.06509679413162
 30
1497.0
 10
14.467052260621328
 20
214.04855979511618
 30
1497.0
 10
14.46696478682927
 20
214.0310500535692
 30
1497.0
 10
14.466874901681145
 20
214.01305762797503
 30
1497.0
 10
14.46678312106945
 20
213.9946857849204
 30
1497.0
 10
14.466561454995466
 20
213.9503146019053
 30
1497.0
 10
14.466416417838866
 20
213.92128232780263
 30
1497.0
 10
14.466252423682452
 20
213.88845540667518
 30
1497.0
 10
14.466068063560021
 20
213.85155180394642
 30
1497.0
 10
14.465861928505372
 20
213.81028948504016
 30
1497.0
 10
14.465632609552296
 20
213.76438641538036
 30
1497.0
 10
14.4653786977346
 20
213.71356056039102
 30
1497.0
 10
14.46481887043755
 20
213.6014992106015
 30
1497.0
 10
14.464512954958206
 20
213.54026371580065
 30
1497.0
 10
14.464179628681826
 20
213.4735413665179
 30
1497.0
 10
14.463817482642211
 20
213.40105012817693
 30
1497.0
 10
14.463425107873165
 20
213.32250796620173
 30
1497.0
 10
14.463001095408481
 20
213.23763284601606
 30
1497.0
 10
14.462544036281958
 20
213.14614273304366
 30
1497.0
 10
14.461301533854895
 20
212.8974294248003
 30
1497.0
 10
14.460549405015875
 20
212.74687482811458
 30
1497.0
 10
14.459796545320646
 20
212.59617393502666
 30
1497.0
 10
14.459043171294024
 20
212.4453700875349
 30
1497.0
 10
14.458289427947822
 20
212.29449231286677
 30
1497.0
 10
14.457535407766967
 20
212.14355912387762
 30
1497.0
 10
14.4567811388434
 20
211.99257614371874
 30
1497.0
 10
14.454749749853054
 20
211.58595039787343
 30
1497.0
 10
14.453472308357597
 20
211.3302432913929
 30
1497.0
 10
14.452194463139326
 20
211.0744553711853
 30
1497.0
 10
14.450916318352027
 20
210.81860748587582
 30
1497.0
 10
14.449637945862046
 20
210.56271402102684
 30
1497.0
 10
14.448359393706259
 20
210.30678459222696
 30
1497.0
 10
14.447080685008242
 20
210.05082382818094
 30
1497.0
 10
14.443145054067767
 20
209.2630235229964
 30
1497.0
 10
14.440487723696855
 20
208.73110228626734
 30
1497.0
 10
14.437830016307897
 20
208.1991055813402
 30
1497.0
 10
14.435172035491277
 20
207.66705414405916
 30
1497.0
 10
14.432513851541588
 20
207.13496204536895
 30
1497.0
 10
14.429855510422755
 20
206.60283848591774
 30
1497.0
 10
14.427197031190257
 20
206.0706872800878
 30
1497.0
 10
14.419298769558093
 20
204.48968209480626
 30
1497.0
 10
14.414058683670461
 20
203.44076736578558
 30
1497.0
 10
14.408818300492099
 20
202.3917931276798
 30
1497.0
 10
14.403577701450711
 20
201.34277568001764
 30
1497.0
 10
14.398336941821624
 20
200.29372608730677
 30
1497.0
 10
14.393096057784788
 20
199.24465159171373
 30
1497.0
 10
14.387855064500117
 20
198.19555522786354
 30
1497.0
 10
14.379208237063608
 20
196.4647086631354
 30
1497.0
 10
14.375802583739638
 20
195.78297227035722
 30
1497.0
 10
14.372396198205283
 20
195.10122886736644
 30
1497.0
 10
14.368990957957838
 20
194.41947972286326
 30
1497.0
 10
14.36558741976344
 20
193.73772556819952
 30
1497.0
 10
14.362185559339522
 20
193.0559668458851
 30
1497.0
 10
14.358786285811085
 20
192.37420416709134
 30
1497.0
 10
14.351700606541563
 20
190.95193297799324
 30
1497.0
 10
14.34793390726366
 20
190.19519965861147
 30
1497.0
 10
14.344091787010619
 20
189.42252016325332
 30
1497.0
 10
14.34017636843188
 20
188.63417679474935
 30
1497.0
 10
14.336189774176868
 20
187.83045185593014
 30
1497.0
 10
14.332134126895017
 20
187.0116276496257
 30
1497.0
 10
14.328011549235757
 20
186.17798647866582
 30
1497.0
 10
14.310612758844604
 20
182.6537745505194
 30
1497.0
 10
14.297470393587107
 20
179.97770960965292
 30
1497.0
 10
14.284406842728558
 20
177.3016238160951
 30
1497.0
 10
14.27142800640808
 20
174.62552187730068
 30
1497.0
 10
14.25853873492603
 20
171.94940709935273
 30
1497.0
 10
14.245743471892926
 20
169.27328183418962
 30
1497.0
 10
14.233046145745458
 20
166.59714742901588
 30
1497.0
 10
14.2010142593263
 20
159.7913405273801
 30
1497.0
 10
14.181820471678208
 20
155.66165785820286
 30
1497.0
 10
14.162883844713825
 20
151.5319609599193
 30
1497.0
 10
14.144218409832932
 20
147.40225270725264
 30
1497.0
 10
14.125839090115873
 20
143.2725352362542
 30
1497.0
 10
14.10776228088062
 20
139.14281017771367
 30
1497.0
 10
14.090006264261836
 20
135.01307869604267
 30
1497.0
 10
14.0600571987244
 20
127.9107374365356
 30
1497.0
 10
14.047699433534637
 20
124.9381304485661
 30
1497.0
 10
14.035526610290654
 20
121.96552106505274
 30
1497.0
 10
14.023547248952912
 20
118.99290963240365
 30
1497.0
 10
14.011770729270562
 20
116.02029646574272
 30
1497.0
 10
14.000207496776529
 20
113.04768185726948
 30
1497.0
 10
13.988869268782567
 20
110.0750660846186
 30
1497.0
 10
13.953650028625537
 20
100.64326137358333
 30
1497.0
 10
13.930657927037247
 20
94.1840697801928
 30
1497.0
 10
13.908657352773897
 20
87.72487772042805
 30
1497.0
 10
13.887546816427145
 20
81.26568865625214
 30
1497.0
 10
13.867245487843068
 20
74.80650655202865
 30
1497.0
 10
13.847685320145281
 20
68.3473369083579
 30
1497.0
 10
13.828809279471006
 20
61.88818640633204
 30
1497.0
 10
13.80220476315455
 20
52.47065433926882
 30
1497.0
 10
13.793979220588245
 20
49.512248710816394
 30
1497.0
 10
13.785880314032266
 20
46.553851047751024
 30
1497.0
 10
13.777902926587618
 20
43.59546272617453
 30
1497.0
 10
13.770041609685432
 20
40.63708605780845
 30
1497.0
 10
13.762290655390363
 20
37.678724256537066
 30
1497.0
 10
13.754643475092255
 20
34.720381866895735
 30
1497.0
 10
13.742935100628573
 20
30.134820102970778
 30
1497.0
 10
13.738808582986538
 20
28.507582769133762
 30
1497.0
 10
13.73470866800539
 20
26.880355143482234
 30
1497.0
 10
13.730633455263488
 20
25.253138622377662
 30
1497.0
 10
13.726580211800929
 20
23.625935933369018
 30
1497.0
 10
13.722545579357435
 20
21.998750990306704
 30
1497.0
 10
13.718524873500684
 20
20.37158944437921
 30
1497.0
 10
13.713020285362004
 20
18.14145143716121
 30
1497.0
 10
13.711532589811233
 20
17.538446219606357
 30
1497.0
 10
13.710044664240293
 20
16.93544641822237
 30
1497.0
 10
13.708556462267794
 20
16.33245246593944
 30
1497.0
 10
13.70706880403661
 20
15.729464997380802
 30
1497.0
 10
13.70558076727646
 20
15.126484942155457
 30
1497.0
 10
13.704092909909987
 20
14.523513278894
 30
1497.0
 10
13.70130812687561
 20
13.394968280349824
 30
1497.0
 10
13.700011223566142
 20
12.869392775998602
 30
1497.0
 10
13.69871434044287
 20
12.343825450538024
 30
1497.0
 10
13.697417479978292
 20
11.818267305838667
 30
1497.0
 10
13.696120645383317
 20
11.292719642999478
 30
1497.0
 10
13.694823840730681
 20
10.767184112355073
 30
1497.0
 10
13.69352707117755
 20
10.241662803675483
 30
1497.0
 10
13.690734948362026
 20
9.110143298576826
 30
1497.0
 10
13.689239618944312
 20
8.504154764499383
 30
1497.0
 10
13.687744355824012
 20
7.898193094016936
 30
1497.0
 10
13.686249168041723
 20
7.292261950469737
 30
1497.0
 10
13.684754077873421
 20
6.686370360674758
 30
1497.0
 10
13.683259119472535
 20
6.0805321646833335
 30
1497.0
 10
13.68176434326297
 20
5.474767796005732
 30
1497.0
 10
13.679509023276667
 20
4.560789838820565
 30
1497.0
 10
13.678748294235836
 20
4.252501177433821
 30
1497.0
 10
13.677987651382761
 20
3.9442474415958095
 30
1497.0
 10
13.677227106090495
 20
3.6360332399892457
 30
1497.0
 10
13.676466688021096
 20
3.3278705928992203
 30
1497.0
 10
13.675706442905211
 20
3.0197780323714554
 30
1497.0
 10
13.674946438468496
 20
2.7117830038184003
 30
1497.0
 10
13.67377029980214
 20
2.2351478012959802
 30
1497.0
 10
13.673376084145598
 20
2.0753902262596813
 30
1497.0
 10
13.673003453863988
 20
1.9243802147683904
 30
1497.0
 10
13.672651713674231
 20
1.781836000500186
 30
1497.0
 10
13.672320168293258
 20
1.64747581713303
 30
1497.0
 10
13.672008122438
 20
1.5210178983447682
 30
1497.0
 10
13.671714880825377
 20
1.4021804778131326
 30
1497.0
 10
13.67116461551927
 20
1.179183100618715
 30
1497.0
 10
13.67090759182578
 20
1.0750231439560611
 30
1497.0
 10
13.670667981808782
 20
0.9779201529058567
 30
1497.0
 10
13.67044509018521
 20
0.8875923611461121
 30
1497.0
 10
13.670238221671983
 20
0.803758002354771
 30
1497.0
 10
13.670046680986038
 20
0.7261353102097091
 30
1497.0
 10
13.669869772844295
 20
0.6544425183887341
 30
1497.0
 10
13.669611735616659
 20
0.5498718101752332
 30
1497.0
 10
13.669521411809878
 20
0.5132676942675787
 30
1497.0
 10
13.669435692532877
 20
0.47852958353622294
 30
1497.0
 10
13.669354439775184
 20
0.44560154867074575
 30
1497.0
 10
13.669277515526321
 20
0.41442766036070716
 30
1497.0
 10
13.669204781775816
 20
0.38495198929564767
 30
1497.0
 10
13.669136100513205
 20
0.35711860616508767
 30
1497.0
 10
13.668969557351296
 20
0.28962625743415055
 30
1497.0
 10
13.668877447337174
 20
0.2522982677707526
 30
1497.0
 10
13.668794468140664
 20
0.2186705808545862
 30
1497.0
 10
13.668720084216751
 20
0.18852616487177523
 30
1497.0
 10
13.668653760020428
 20
0.16164798800831393
 30
1497.0
 10
13.668594960006695
 20
0.13781901845006775
 30
1497.0
 10
13.668543148630544
 20
0.1168222243827728
 30
1497.0
 10
13.668452432063399
 20
0.0800589236016833
 30
1497.0
 10
13.668413526872408
 20
0.06429241688808371
 30
1497.0
 10
13.668380539228984
 20
0.05092402203731745
 30
1497.0
 10
13.668352933588128
 20
0.039736707235410666
 30
1497.0
 10
13.668330174404833
 20
0.03051344066833549
 30
1497.0
 10
13.66831172613409
 20
0.023037190522010018
 30
1497.0
 10
13.6682970532309
 20
0.01709092498229836
 30
1497.0
 10
13.668271972781733
 20
0.00692694832427776
 30
1497.0
 10
13.668262344602695
 20
0.003012163831058956
 30
1497.0
 10
13.668256735025157
 20
0.0007541132258097605
 30
1497.0
 10
13.668254326846277
 20
-0.00016337624205675638
 30
1497.0
 10
13.668254436544357
 20
-0.0002387057173010021
 30
1497.0
 10
13.668255255817332
 20
2.265786136490533e-05
 30
1497.0
 10
13.668254419465162
 20
0.00018663387227846329
 30
1497.0
 10
13.668256530220145
 20
-0.0006687651819277107
 30
1497.0
 10
13.668259296469328
 20
-0.0017898053993974372
 30
1497.0
 10
13.668265235240709
 20
-0.004196526087486774
 30
1497.0
 10
13.668275930311584
 20
-0.00853075927201985
 30
1497.0
 10
13.668291962933415
 20
-0.015028058804052336
 30
1497.0
 10
13.668312842915727
 20
-0.02348977218365178
 30
1497.0
 10
13.668337366798745
 20
-0.03342819178058676
 30
1497.0
 10
13.668390389380233
 20
-0.05491584072466082
 30
1497.0
 10
13.668421903571785
 20
-0.06768711273300353
 30
1497.0
 10
13.668458892711724
 20
-0.08267713146864049
 30
1497.0
 10
13.668501892345063
 20
-0.10010292874562522
 30
1497.0
 10
13.668551438016808
 20
-0.12018153637802496
 30
1497.0
 10
13.66860806527196
 20
-0.1431299861799208
 30
1497.0
 10
13.668672309655527
 20
-0.16916530996540757
 30
1497.0
 10
13.66881710376951
 20
-0.22784376913179472
 30
1497.0
 10
13.668897653499918
 20
-0.26048690451248185
 30
1497.0
 10
13.668986891448759
 20
-0.2966509775048596
 30
1497.0
 10
13.66908535316103
 20
-0.33655301992307285
 30
1497.0
 10
13.669193574181733
 20
-0.38041006358120705
 30
1497.0
 10
13.669312090055884
 20
-0.42843914029328845
 30
1497.0
 10
13.669441436328482
 20
-0.48085728187328414
 30
1497.0
 10
13.669722860760576
 20
-0.5949057583973884
 30
1497.0
 10
13.669874938920078
 20
-0.6565360933412714
 30
1497.0
 10
13.670038918568041
 20
-0.7229895567811622
 30
1497.0
 10
13.670215335249473
 20
-0.7944831805313416
 30
1497.0
 10
13.670404724509371
 20
-0.8712339964059604
 30
1497.0
 10
13.670607621892742
 20
-0.9534590362190383
 30
1497.0
 10
13.670824562944595
 20
-1.0413753317844652
 30
1497.0
 10
13.671308650772115
 20
-1.2375540056054175
 30
1497.0
 10
13.671578568803243
 20
-1.3469394467866957
 30
1497.0
 10
13.67186653258639
 20
-1.4636380047823052
 30
1497.0
 10
13.67217323740462
 20
-1.5879314459145628
 30
1497.0
 10
13.672499378541005
 20
-1.7201015365056362
 30
1497.0
 10
13.672845651278625
 20
-1.8604300428775409
 30
1497.0
 10
13.673212750900554
 20
-2.009198731352143
 30
1497.0
 10
13.674264261790297
 20
-2.435328002255865
 30
1497.0
 10
13.674927502488947
 20
-2.7041091181165626
 30
1497.0
 10
13.675590980129325
 20
-2.9729862518203802
 30
1497.0
 10
13.67625462943855
 20
-3.241932951904232
 30
1497.0
 10
13.676918406115174
 20
-3.510931265418595
 30
1497.0
 10
13.677582281213246
 20
-3.779969462211703
 30
1497.0
 10
13.678246242858284
 20
-4.049042730410047
 30
1497.0
 10
13.68022132654075
 20
-4.849453750457066
 30
1497.0
 10
13.681532639397664
 20
-5.380868827134158
 30
1497.0
 10
13.682844138673794
 20
-5.912359445068233
 30
1497.0
 10
13.684155773149616
 20
-6.4439048483070565
 30
1497.0
 10
13.6854675080689
 20
-6.975490952388842
 30
1497.0
 10
13.686779320705158
 20
-7.507108547825283
 30
1497.0
 10
13.688091201635467
 20
-8.038753816373884
 30
1497.0
 10
13.691988758573567
 20
-9.61825516087146
 30
1497.0
 10
13.694574584652962
 20
-10.666172045256396
 30
1497.0
 10
13.697160557740885
 20
-11.714148496288065
 30
1497.0
 10
13.699746637575139
 20
-12.762168198929459
 30
1497.0
 10
13.702332796823605
 20
-13.810220077801311
 30
1497.0
 10
13.704919017595817
 20
-14.858296883587442
 30
1497.0
 10
13.707505292395657
 20
-15.906395579016625
 30
1497.0
 10
13.711772250388853
 20
-17.635598170427365
 30
1497.0
 10
13.713453011421311
 20
-18.316688244190033
 30
1497.0
 10
13.715133091927289
 20
-18.997785340190916
 30
1497.0
 10
13.7168143617041
 20
-19.67888817470086
 30
1497.0
 10
13.718497372572983
 20
-20.359996011752116
 30
1497.0
 10
13.720182096901887
 20
-21.041108408654786
 30
1497.0
 10
13.721869440076304
 20
-21.722224746747944
 30
1497.0
 10
13.725395314289749
 20
-23.143152934359545
 30
1497.0
 10
13.727274611854346
 20
-23.899176830885306
 30
1497.0
 10
13.729197474171826
 20
-24.67113492950071
 30
1497.0
 10
13.731163919642421
 20
-25.458745732137714
 30
1497.0
 10
13.733173966666344
 20
-26.261727740728276
 30
1497.0
 10
13.735227633643817
 20
-27.079799457204395
 30
1497.0
 10
13.73732493897506
 20
-27.91267938349809
 30
1497.0
 10
13.746221297528525
 20
-31.433915627985137
 30
1497.0
 10
13.753046022073683
 20
-34.107773604818824
 30
1497.0
 10
13.759949795915535
 20
-36.781651875775
 30
1497.0
 10
13.766938483060567
 20
-39.4555456830587
 30
1497.0
 10
13.774016905625974
 20
-42.12945168006941
 30
1497.0
 10
13.781189484537357
 20
-44.803367478771094
 30
1497.0
 10
13.788460130975997
 20
-47.47729170112491
 30
1497.0
 10
13.807212954713048
 20
-54.278584181800866
 30
1497.0
 10
13.818836185468118
 20
-58.40596158794722
 30
1497.0
 10
13.830716921682157
 20
-62.5333513363626
 30
1497.0
 10
13.842869143673694
 20
-66.6607504421576
 30
1497.0
 10
13.85530772071735
 20
-70.7881566552747
 30
1497.0
 10
13.868048988408116
 20
-74.91556822138958
 30
1497.0
 10
13.881111159137182
 20
-79.0429838389365
 30
1497.0
 10
13.904166980126513
 20
-86.1424408989384
 30
1497.0
 10
13.913996033647532
 20
-89.11448076995568
 30
1497.0
 10
13.924010147480336
 20
-92.08652166912398
 30
1497.0
 10
13.934217813815502
 20
-95.05856318642468
 30
1497.0
 10
13.944628379606588
 20
-98.03060493699576
 30
1497.0
 10
13.95525225053062
 20
-101.0026465512524
 30
1497.0
 10
13.96610109494856
 20
-103.97468766500765
 30
1497.0
 10
14.0012926135045
 20
-113.40835354216442
 30
1497.0
 10
14.02652514023026
 20
-119.86997438300396
 30
1497.0
 10
14.052749347726133
 20
-126.33158835058119
 30
1497.0
 10
14.07986334960921
 20
-132.79319273598702
 30
1497.0
 10
14.107786028867741
 20
-139.25478417783341
 30
1497.0
 10
14.136449129306698
 20
-145.71635769042445
 30
1497.0
 10
14.165795442337188
 20
-152.17790702953633
 30
1497.0
 10
14.209504344273062
 20
-161.60017566546608
 30
1497.0
 10
14.223370822818126
 20
-164.5609226500187
 30
1497.0
 10
14.237363798530858
 20
-167.52166074055097
 30
1497.0
 10
14.251478132974725
 20
-170.48238860101745
 30
1497.0
 10
14.265708351819057
 20
-173.44310396334944
 30
1497.0
 10
14.280048716769626
 20
-176.40380366068084
 30
1497.0
 10
14.294492601888077
 20
-179.36448320452132
 30
1497.0
 10
14.31702728227846
 20
-183.95388797918628
 30
1497.0
 10
14.325052968685979
 20
-185.5826316254048
 30
1497.0
 10
14.333105161470991
 20
-187.21136537750078
 30
1497.0
 10
14.34118195031347
 20
-188.84008785493847
 30
1497.0
 10
14.349280583517306
 20
-190.46879635340338
 30
1497.0
 10
14.35739767623192
 20
-192.09748698821053
 30
1497.0
 10
14.365528506366868
 20
-193.72615414894526
 30
1497.0
 10
14.376678517306773
 20
-195.95837180784946
 30
1497.0
 10
14.379694103252366
 20
-196.5619510593973
 30
1497.0
 10
14.382709419019383
 20
-197.165524902315
 30
1497.0
 10
14.385724415040023
 20
-197.7690929030213
 30
1497.0
 10
14.388739905921735
 20
-198.37265442339918
 30
1497.0
 10
14.391754963367493
 20
-198.9762085399043
 30
1497.0
 10
14.394770137455371
 20
-199.5797542716567
 30
1497.0
 10
14.400413401354118
 20
-200.70937366151054
 30
1497.0
 10
14.403041529675399
 20
-201.23544948642586
 30
1497.0
 10
14.405669617176875
 20
-201.761517140388
 30
1497.0
 10
14.408297658858276
 20
-202.28757562248592
 30
1497.0
 10
14.410925648225929
 20
-202.81362363287278
 30
1497.0
 10
14.413553577043222
 20
-203.33965952281767
 30
1497.0
 10
14.416181434880395
 20
-203.86568120458182
 30
1497.0
 10
14.421839572040579
 20
-204.9982777942999
 30
1497.0
 10
14.424869803139847
 20
-205.6048430492435
 30
1497.0
 10
14.427899900166194
 20
-206.211381466645
 30
1497.0
 10
14.430929844836308
 20
-206.81788938669607
 30
1497.0
 10
14.43395959209833
 20
-207.42435779131665
 30
1497.0
 10
14.436989072878028
 20
-208.03077285383458
 30
1497.0
 10
14.44001818519361
 20
-208.6371141604102
 30
1497.0
 10
14.444588512042253
 20
-209.5519623615275
 30
1497.0
 10
14.44613010125652
 20
-209.86054425648467
 30
1497.0
 10
14.44767151616105
 20
-210.1690912596405
 30
1497.0
 10
14.449212733755058
 20
-210.47759876689378
 30
1497.0
 10
14.450753694046313
 20
-210.78605476952322
 30
1497.0
 10
14.452294304542479
 20
-211.09444075322136
 30
1497.0
 10
14.453834428264887
 20
-211.4027292987908
 30
1497.0
 10
14.456217834811428
 20
-211.8798188514288
 30
1497.0
 10
14.457016698998371
 20
-212.0397285227872
 30
1497.0
 10
14.45777182118913
 20
-212.19088230253067
 30
1497.0
 10
14.45848461034989
 20
-212.3335622252354
 30
1497.0
 10
14.459156475446866
 20
-212.4680503254776
 30
1497.0
 10
14.45978882544625
 20
-212.59462863783338
 30
1497.0
 10
14.46038306931425
 20
-212.71357919687892
 30
1497.0
 10
14.461498162719892
 20
-212.93678887750193
 30
1497.0
 10
14.46201901225753
 20
-213.04104799907944
 30
1497.0
 10
14.462504573596188
 20
-213.13824343649907
 30
1497.0
 10
14.46295625570207
 20
-213.22865722433696
 30
1497.0
 10
14.46337546754138
 20
-213.3125713971693
 30
1497.0
 10
14.463763618080316
 20
-213.39026798957238
 30
1497.0
 10
14.464122116285083
 20
-213.4620290361223
 30
1497.0
 10
14.464727583485878
 20
-213.58322618412262
 30
1497.0
 10
14.464983182399898
 20
-213.63438974735215
 30
1497.0
 10
14.465219983237905
 20
-213.6817904755376
 30
1497.0
 10
14.465438801373852
 20
-213.72559158313277
 30
1497.0
 10
14.4656404521817
 20
-213.76595628459143
 30
1497.0
 10
14.465825751035409
 20
-213.80304779436736
 30
1497.0
 10
14.465995513308942
 20
-213.83702932691438
 30
1497.0
 10
14.466259083123372
 20
-213.88978843552678
 30
1497.0
 10
14.466360398479441
 20
-213.91006886060745
 30
1497.0
 10
14.466454780117736
 20
-213.92896135448595
 30
1497.0
 10
14.466542507711523
 20
-213.94652189971995
 30
1497.0
 10
14.466623860934064
 20
-213.96280647886712
 30
1497.0
 10
14.466699119458625
 20
-213.9778710744852
 30
1497.0
 10
14.46676856295848
 20
-213.99177166913174
 30
1497.0
 10
14.466932898197276
 20
-214.02466686515862
 30
1497.0
 10
14.467019656358598
 20
-214.04203335784922
 30
1497.0
 10
14.467093830853587
 20
-214.05688096187419
 30
1497.0
 10
14.467156506944997
 20
-214.0694269156717
 30
1497.0
 10
14.46720876989557
 20
-214.07988845767954
 30
1497.0
 10
14.467251704968044
 20
-214.08848282633588
 30
1497.0
 10
14.46728639742516
 20
-214.09542726007874
 30
1497.0
 10
14.46735965528543
 20
-214.1100913801525
 30
1497.0
 10
14.467417051788985
 20
-214.10992439883415
 30
1497.0
 10
14.467123495122268
 20
-214.1129122711658
 30
1497.0
 10
14.467882749223781
 20
-214.11430157773188
 30
1497.0
 10
14.466811845016009
 20
-214.1190711579326
 30
1497.0
 10
14.467820241524999
 20
-214.11632913166164
 30
1497.0
 10
14.46722682549304
 20
-214.11726326780948
 30
1497.0
 10
14.467394641486084
 20
-214.1170946129176
 30
1497.0
  0
ENDSEC
  0
SECTION
  2
OBJECTS
  0
DICTIONARY
  5
A
330
0
100
AcDbDictionary
281
1
  3
ACAD_COLOR
350
B
  3
ACAD_GROUP
350
C
  3
ACAD_LAYOUT
350
D
  3
ACAD_MATERIAL
350
E
  3
ACAD_MLEADERSTYLE
350
F
  3
ACAD_MLINESTYLE
350
10
  3
ACAD_PLOTSETTINGS
350
11
  3
ACAD_PLOTSTYLENAME
350
12
  3
ACAD_SCALELIST
350
14
  3
ACAD_TABLESTYLE
350
15
  3
ACAD_VISUALSTYLE
350
16
  3
EZDXF_META
350
2D
  0
DICTIONARY
  5
B
330
A
100
AcDbDictionary
281
1
  0
DICTIONARY
  5
C
330
A
100
AcDbDictionary
281
1
  0
DICTIONARY
  5
D
330
A
100
AcDbDictionary
281
1
  3
Model
350
1A
  3
Layout1
350
1E
  0
DICTIONARY
  5
E
330
A
100
AcDbDictionary
281
1
  3
ByBlock
350
1F
  3
ByLayer
350
20
  3
Global
350
21
  0
DICTIONARY
  5
F
330
A
100
AcDbDictionary
281
1
  3
Standard
350
2C
  0
DICTIONARY
  5
10
330
A
100
AcDbDictionary
281
1
  3
Standard
350
22
  0
DICTIONARY
  5
11
330
A
100
AcDbDictionary
281
1
  0
ACDBDICTIONARYWDFLT
  5
12
330
A
100
AcDbDictionary
281
1
  3
Normal
350
13
100
AcDbDictionaryWithDefault
340
13
  0
ACDBPLACEHOLDER
  5
13
330
12
  0
DICTIONARY
  5
14
330
A
100
AcDbDictionary
281
1
  0
DICTIONARY
  5
15
330
A
100
AcDbDictionary
281
1
  0
DICTIONARY
  5
16
330
A
100
AcDbDictionary
281
1
  0
LAYOUT
  5
1A
330
D
100
AcDbPlotSettings
  1

  2
Adobe PDF
  4
A3
  6

 40
7.5
 41
20.0
 42
7.5
 43
20.0
 44
420.0
 45
297.0
 46
0.0
 47
0.0
 48
0.0
 49
0.0
140
0.0
141
0.0
142
1.0
143
1.0
 70
1024
 72
1
 73
1
 74
5
  7

 75
16
 76
0
 77
2
 78
300
147
1.0
148
0.0
149
0.0
100
AcDbLayout
  1
Model
 70
1
 71
0
 10
0.0
 20
0.0
 11
420.0
 21
297.0
 12
0.0
 22
0.0
 32
0.0
 14
1e+20
 24
1e+20
 34
1e+20
 15
-1e+20
 25
-1e+20
 35
-1e+20
146
0.0
 13
0.0
 23
0.0
 33
0.0
 16
1.0
 26
0.0
 36
0.0
 17
0.0
 27
1.0
 37
0.0
 76
1
330
17
  0
LAYOUT
  5
1E
330
D
100
AcDbPlotSettings
  1

  2
Adobe PDF
  4
A3
  6

 40
7.5
 41
20.0
 42
7.5
 43
20.0
 44
420.0
 45
297.0
 46
0.0
 47
0.0
 48
0.0
 49
0.0
140
0.0
141
0.0
142
1.0
143
1.0
 70
0
 72
1
 73
1
 74
5
  7

 75
16
 76
0
 77
2
 78
300
147
1.0
148
0.0
149
0.0
100
AcDbLayout
  1
Layout1
 70
1
 71
1
 10
0.0
 20
0.0
 11
420.0
 21
297.0
 12
0.0
 22
0.0
 32
0.0
 14
1e+20
 24
1e+20
 34
1e+20
 15
-1e+20
 25
-1e+20
 35
-1e+20
146
0.0
 13
0.0
 23
0.0
 33
0.0
 16
1.0
 26
0.0
 36
0.0
 17
0.0
 27
1.0
 37
0.0
 76
1
330
1B
  0
MATERIAL
  5
1F
102
{ACAD_REACTORS
330
E
102
}
330
E
100
AcDbMaterial
  1
ByBlock
  2

 70
0
 40
1.0
 71
1
 41
1.0
 91
-1023410177
 42
1.0
 72
1
  3

 73
1
 74
1
 75
1
 44
0.5
 73
0
 45
1.0
 46
1.0
 77
1
  4

 78
1
 79
1
170
1
 48
1.0
171
1
  6

172
1
173
1
174
1
140
1.0
141
1.0
175
1
  7

176
1
177
1
178
1
143
1.0
179
1
  8

270
1
271
1
272
1
145
1.0
146
1.0
273
1
  9

274
1
275
1
276
1
 42
1.0
 72
1
  3

 73
1
 74
1
 75
1
 94
63
  0
MATERIAL
  5
20
102
{ACAD_REACTORS
330
E
102
}
330
E
100
AcDbMaterial
  1
ByLayer
  2

 70
0
 40
1.0
 71
1
 41
1.0
 91
-1023410177
 42
1.0
 72
1
  3

 73
1
 74
1
 75
1
 44
0.5
 73
0
 45
1.0
 46
1.0
 77
1
  4

 78
1
 79
1
170
1
 48
1.0
171
1
  6

172
1
173
1
174
1
140
1.0
141
1.0
175
1
  7

176
1
177
1
178
1
143
1.0
179
1
  8

270
1
271
1
272
1
145
1.0
146
1.0
273
1
  9

274
1
275
1
276
1
 42
1.0
 72
1
  3

 73
1
 74
1
 75
1
 94
63
  0
MATERIAL
  5
21
102
{ACAD_REACTORS
330
E
102
}
330
E
100
AcDbMaterial
  1
Global
  2

 70
0
 40
1.0
 71
1
 41
1.0
 91
-1023410177
 42
1.0
 72
1
  3

 73
1
 74
1
 75
1
 44
0.5
 73
0
 45
1.0
 46
1.0
 77
1
  4

 78
1
 79
1
170
1
 48
1.0
171
1
  6

172
1
173
1
174
1
140
1.0
141
1.0
175
1
  7

176
1
177
1
178
1
143
1.0
179
1
  8

270
1
271
1
272
1
145
1.0
146
1.0
273
1
  9

274
1
275
1
276
1
 42
1.0
 72
1
  3

 73
1
 74
1
 75
1
 94
63
  0
MLINESTYLE
  5
22
102
{ACAD_REACTORS
330
10
102
}
330
10
100
AcDbMlineStyle
  2
Standard
 70
0
  3

 62
256
 51
90.0
 52
90.0
 71
2
 49
0.5
 62
256
  6
BYLAYER
 49
-0.5
 62
256
  6
BYLAYER
  0
MLEADERSTYLE
  5
2C
102
{ACAD_REACTORS
330
F
102
}
330
F
100
AcDbMLeaderStyle
179
2
170
2
171
1
172
0
 90
2
 40
0.0
 41
0.0
173
1
 91
-1056964608
 92
-2
290
1
 42
2.0
291
1
 43
8.0
  3
Standard
 44
4.0
300

342
29
174
1
175
1
176
0
178
1
 93
-1056964608
 45
4.0
292
0
297
0
 46
4.0
 94
-1056964608
 47
1.0
 49
1.0
140
1.0
294
1
141
0.0
177
0
142
1.0
295
0
296
0
143
3.75
271
0
272
9
273
9
  0
DICTIONARY
  5
2D
330
A
100
AcDbDictionary
280
1
281
1
  3
CREATED_BY_EZDXF
350
2E
  3
WRITTEN_BY_EZDXF
350
7E
  0
DICTIONARYVAR
  5
2E
330
2D
100
DictionaryVariables
280
0
  1
0.17 @ 2022-02-15T16:42:35.339394+00:00
  0
DICTIONARYVAR
  5
7E
330
2D
100
DictionaryVariables
280
0
  1
0.17 @ 2022-02-15T16:42:35.521165+00:00
  0
ENDSEC
  0
EOF
