  0
SECTION
  2
HEADER
  9
$ACADVER
  1
AC1027
  9
$ACADMAINTVER
 70
105
  9
$DWGCODEPAGE
  3
ANSI_1252
  9
$LASTSAVEDBY
  1
ezdxf
  9
$REQUIREDVERSIONS
160
0
  9
$INSBASE
 10
0.0
 20
0.0
 30
0.0
  9
$EXTMIN
 10
1e+20
 20
1e+20
 30
1e+20
  9
$EXTMAX
 10
-1e+20
 20
-1e+20
 30
-1e+20
  9
$LIMMIN
 10
0.0
 20
0.0
  9
$LIMMAX
 10
420.0
 20
297.0
  9
$ORTHOMODE
 70
0
  9
$REGENMODE
 70
1
  9
$FILLMODE
 70
1
  9
$QTEXTMODE
 70
0
  9
$MIRRTEXT
 70
1
  9
$LTSCALE
 40
1.0
  9
$ATTMODE
 70
1
  9
$TEXTSIZE
 40
2.5
  9
$TRACEWID
 40
1.0
  9
$TEXTSTYLE
  7
Standard
  9
$CLAYER
  8
0
  9
$CELTYPE
  6
ByLayer
  9
$CECOLOR
 62
256
  9
$CELTSCALE
 40
1.0
  9
$DISPSILH
 70
0
  9
$DIMSCALE
 40
1.0
  9
$DIMASZ
 40
2.5
  9
$DIMEXO
 40
0.625
  9
$DIMDLI
 40
3.75
  9
$DIMRND
 40
0.0
  9
$DIMDLE
 40
0.0
  9
$DIMEXE
 40
1.25
  9
$DIMTP
 40
0.0
  9
$DIMTM
 40
0.0
  9
$DIMTXT
 40
2.5
  9
$DIMCEN
 40
2.5
  9
$DIMTSZ
 40
0.0
  9
$DIMTOL
 70
0
  9
$DIMLIM
 70
0
  9
$DIMTIH
 70
0
  9
$DIMTOH
 70
0
  9
$DIMSE1
 70
0
  9
$DIMSE2
 70
0
  9
$DIMTAD
 70
1
  9
$DIMZIN
 70
8
  9
$DIMBLK
  1

  9
$DIMASO
 70
1
  9
$DIMSHO
 70
1
  9
$DIMPOST
  1

  9
$DIMAPOST
  1

  9
$DIMALT
 70
0
  9
$DIMALTD
 70
3
  9
$DIMALTF
 40
0.03937007874
  9
$DIMLFAC
 40
1.0
  9
$DIMTOFL
 70
1
  9
$DIMTVP
 40
0.0
  9
$DIMTIX
 70
0
  9
$DIMSOXD
 70
0
  9
$DIMSAH
 70
0
  9
$DIMBLK1
  1

  9
$DIMBLK2
  1

  9
$DIMSTYLE
  2
ISO-25
  9
$DIMCLRD
 70
0
  9
$DIMCLRE
 70
0
  9
$DIMCLRT
 70
0
  9
$DIMTFAC
 40
1.0
  9
$DIMGAP
 40
0.625
  9
$DIMJUST
 70
0
  9
$DIMSD1
 70
0
  9
$DIMSD2
 70
0
  9
$DIMTOLJ
 70
0
  9
$DIMTZIN
 70
8
  9
$DIMALTZ
 70
0
  9
$DIMALTTZ
 70
0
  9
$DIMUPT
 70
0
  9
$DIMDEC
 70
2
  9
$DIMTDEC
 70
2
  9
$DIMALTU
 70
2
  9
$DIMALTTD
 70
3
  9
$DIMTXSTY
  7
Standard
  9
$DIMAUNIT
 70
0
  9
$DIMADEC
 70
0
  9
$DIMALTRND
 40
0.0
  9
$DIMAZIN
 70
0
  9
$DIMDSEP
 70
44
  9
$DIMATFIT
 70
3
  9
$DIMFRAC
 70
0
  9
$DIMLDRBLK
  1

  9
$DIMLUNIT
 70
2
  9
$DIMLWD
 70
-2
  9
$DIMLWE
 70
-2
  9
$DIMTMOVE
 70
0
  9
$DIMFXL
 40
1.0
  9
$DIMFXLON
 70
0
  9
$DIMJOGANG
 40
0.785398163397
  9
$DIMTFILL
 70
0
  9
$DIMTFILLCLR
 70
0
  9
$DIMARCSYM
 70
0
  9
$DIMLTYPE
  6

  9
$DIMLTEX1
  6

  9
$DIMLTEX2
  6

  9
$DIMTXTDIRECTION
 70
0
  9
$LUNITS
 70
2
  9
$LUPREC
 70
4
  9
$SKETCHINC
 40
1.0
  9
$FILLETRAD
 40
10.0
  9
$AUNITS
 70
0
  9
$AUPREC
 70
2
  9
$MENU
  1
.
  9
$ELEVATION
 40
0.0
  9
$PELEVATION
 40
0.0
  9
$THICKNESS
 40
0.0
  9
$LIMCHECK
 70
0
  9
$CHAMFERA
 40
0.0
  9
$CHAMFERB
 40
0.0
  9
$CHAMFERC
 40
0.0
  9
$CHAMFERD
 40
0.0
  9
$SKPOLY
 70
0
  9
$TDCREATE
 40
2459626.7379282406
  9
$TDUCREATE
 40
2458532.153996898
  9
$TDUPDATE
 40
2459626.7379282406
  9
$TDUUPDATE
 40
2458532.1544311
  9
$TDINDWG
 40
0.0
  9
$TDUSRTIMER
 40
0.0
  9
$USRTIMER
 70
1
  9
$ANGBASE
 50
0.0
  9
$ANGDIR
 70
0
  9
$PDMODE
 70
0
  9
$PDSIZE
 40
0.0
  9
$PLINEWID
 40
0.0
  9
$SPLFRAME
 70
0
  9
$SPLINETYPE
 70
6
  9
$SPLINESEGS
 70
8
  9
$HANDSEED
  5
79
  9
$SURFTAB1
 70
6
  9
$SURFTAB2
 70
6
  9
$SURFTYPE
 70
6
  9
$SURFU
 70
6
  9
$SURFV
 70
6
  9
$UCSBASE
  2

  9
$UCSNAME
  2

  9
$UCSORG
 10
0.0
 20
0.0
 30
0.0
  9
$UCSXDIR
 10
1.0
 20
0.0
 30
0.0
  9
$UCSYDIR
 10
0.0
 20
1.0
 30
0.0
  9
$UCSORTHOREF
  2

  9
$UCSORTHOVIEW
 70
0
  9
$UCSORGTOP
 10
0.0
 20
0.0
 30
0.0
  9
$UCSORGBOTTOM
 10
0.0
 20
0.0
 30
0.0
  9
$UCSORGLEFT
 10
0.0
 20
0.0
 30
0.0
  9
$UCSORGRIGHT
 10
0.0
 20
0.0
 30
0.0
  9
$UCSORGFRONT
 10
0.0
 20
0.0
 30
0.0
  9
$UCSORGBACK
 10
0.0
 20
0.0
 30
0.0
  9
$PUCSBASE
  2

  9
$PUCSNAME
  2

  9
$PUCSORG
 10
0.0
 20
0.0
 30
0.0
  9
$PUCSXDIR
 10
1.0
 20
0.0
 30
0.0
  9
$PUCSYDIR
 10
0.0
 20
1.0
 30
0.0
  9
$PUCSORTHOREF
  2

  9
$PUCSORTHOVIEW
 70
0
  9
$PUCSORGTOP
 10
0.0
 20
0.0
 30
0.0
  9
$PUCSORGBOTTOM
 10
0.0
 20
0.0
 30
0.0
  9
$PUCSORGLEFT
 10
0.0
 20
0.0
 30
0.0
  9
$PUCSORGRIGHT
 10
0.0
 20
0.0
 30
0.0
  9
$PUCSORGFRONT
 10
0.0
 20
0.0
 30
0.0
  9
$PUCSORGBACK
 10
0.0
 20
0.0
 30
0.0
  9
$USERI1
 70
0
  9
$USERI2
 70
0
  9
$USERI3
 70
0
  9
$USERI4
 70
0
  9
$USERI5
 70
0
  9
$USERR1
 40
0.0
  9
$USERR2
 40
0.0
  9
$USERR3
 40
0.0
  9
$USERR4
 40
0.0
  9
$USERR5
 40
0.0
  9
$WORLDVIEW
 70
1
  9
$SHADEDGE
 70
3
  9
$SHADEDIF
 70
70
  9
$TILEMODE
 70
1
  9
$MAXACTVP
 70
64
  9
$PINSBASE
 10
0.0
 20
0.0
 30
0.0
  9
$PLIMCHECK
 70
0
  9
$PEXTMIN
 10
1e+20
 20
1e+20
 30
1e+20
  9
$PEXTMAX
 10
-1e+20
 20
-1e+20
 30
-1e+20
  9
$PLIMMIN
 10
0.0
 20
0.0
  9
$PLIMMAX
 10
420.0
 20
297.0
  9
$UNITMODE
 70
0
  9
$VISRETAIN
 70
1
  9
$PLINEGEN
 70
0
  9
$PSLTSCALE
 70
1
  9
$TREEDEPTH
 70
3020
  9
$CMLSTYLE
  2
Standard
  9
$CMLJUST
 70
0
  9
$CMLSCALE
 40
20.0
  9
$PROXYGRAPHICS
 70
1
  9
$MEASUREMENT
 70
1
  9
$CELWEIGHT
370
-1
  9
$ENDCAPS
280
0
  9
$JOINSTYLE
280
0
  9
$LWDISPLAY
290
0
  9
$INSUNITS
 70
6
  9
$HYPERLINKBASE
  1

  9
$STYLESHEET
  1

  9
$XEDIT
290
1
  9
$CEPSNTYPE
380
0
  9
$PSTYLEMODE
290
1
  9
$FINGERPRINTGUID
  2
{0A71C37C-2FA0-4D84-A4F0-F44E80FC07E2}
  9
$VERSIONGUID
  2
{EED5E828-41BD-4FBD-893C-4D882B6EED5A}
  9
$EXTNAMES
290
1
  9
$PSVPSCALE
 40
0.0
  9
$OLESTARTUP
290
0
  9
$SORTENTS
280
127
  9
$INDEXCTL
280
0
  9
$HIDETEXT
280
1
  9
$XCLIPFRAME
280
0
  9
$HALOGAP
280
0
  9
$OBSCOLOR
 70
257
  9
$OBSLTYPE
280
0
  9
$INTERSECTIONDISPLAY
280
0
  9
$INTERSECTIONCOLOR
 70
257
  9
$DIMASSOC
280
2
  9
$PROJECTNAME
  1

  9
$CAMERADISPLAY
290
0
  9
$LENSLENGTH
 40
50.0
  9
$CAMERAHEIGHT
 40
0.0
  9
$STEPSPERSEC
 40
24.0
  9
$STEPSIZE
 40
100.0
  9
$3DDWFPREC
 40
2.0
  9
$PSOLWIDTH
 40
0.005
  9
$PSOLHEIGHT
 40
0.08
  9
$LOFTANG1
 40
1.570796326795
  9
$LOFTANG2
 40
1.570796326795
  9
$LOFTMAG1
 40
0.0
  9
$LOFTMAG2
 40
0.0
  9
$LOFTPARAM
 70
7
  9
$LOFTNORMALS
280
1
  9
$LATITUDE
 40
37.795
  9
$LONGITUDE
 40
-122.394
  9
$NORTHDIRECTION
 40
0.0
  9
$TIMEZONE
 70
-8000
  9
$LIGHTGLYPHDISPLAY
280
1
  9
$TILEMODELIGHTSYNCH
280
1
  9
$CMATERIAL
347
20
  9
$SOLIDHIST
280
0
  9
$SHOWHIST
280
1
  9
$DWFFRAME
280
2
  9
$DGNFRAME
280
2
  9
$REALWORLDSCALE
290
1
  9
$INTERFERECOLOR
 62
256
  9
$CSHADOW
280
0
  9
$SHADOWPLANELOCATION
 40
0.0
  0
ENDSEC
  0
SECTION
  2
CLASSES
  0
CLASS
  1
ACDBDICTIONARYWDFLT
  2
AcDbDictionaryWithDefault
  3
ObjectDBX Classes
 90
0
 91
0
280
0
281
0
  0
CLASS
  1
SUN
  2
AcDbSun
  3
SCENEOE
 90
1153
 91
0
280
0
281
0
  0
CLASS
  1
VISUALSTYLE
  2
AcDbVisualStyle
  3
ObjectDBX Classes
 90
4095
 91
0
280
0
281
0
  0
CLASS
  1
MATERIAL
  2
AcDbMaterial
  3
ObjectDBX Classes
 90
1153
 91
0
280
0
281
0
  0
CLASS
  1
SCALE
  2
AcDbScale
  3
ObjectDBX Classes
 90
1153
 91
0
280
0
281
0
  0
CLASS
  1
TABLESTYLE
  2
AcDbTableStyle
  3
ObjectDBX Classes
 90
4095
 91
0
280
0
281
0
  0
CLASS
  1
MLEADERSTYLE
  2
AcDbMLeaderStyle
  3
ACDB_MLEADERSTYLE_CLASS
 90
4095
 91
0
280
0
281
0
  0
CLASS
  1
DICTIONARYVAR
  2
AcDbDictionaryVar
  3
ObjectDBX Classes
 90
0
 91
0
280
0
281
0
  0
CLASS
  1
CELLSTYLEMAP
  2
AcDbCellStyleMap
  3
ObjectDBX Classes
 90
1152
 91
0
280
0
281
0
  0
CLASS
  1
MENTALRAYRENDERSETTINGS
  2
AcDbMentalRayRenderSettings
  3
SCENEOE
 90
1024
 91
0
280
0
281
0
  0
CLASS
  1
ACDBDETAILVIEWSTYLE
  2
AcDbDetailViewStyle
  3
ObjectDBX Classes
 90
1025
 91
0
280
0
281
0
  0
CLASS
  1
ACDBSECTIONVIEWSTYLE
  2
AcDbSectionViewStyle
  3
ObjectDBX Classes
 90
1025
 91
0
280
0
281
0
  0
CLASS
  1
RASTERVARIABLES
  2
AcDbRasterVariables
  3
ISM
 90
0
 91
0
280
0
281
0
  0
CLASS
  1
ACDBPLACEHOLDER
  2
AcDbPlaceHolder
  3
ObjectDBX Classes
 90
0
 91
0
280
0
281
0
  0
CLASS
  1
LAYOUT
  2
AcDbLayout
  3
ObjectDBX Classes
 90
0
 91
0
280
0
281
0
  0
ENDSEC
  0
SECTION
  2
TABLES
  0
TABLE
  2
VPORT
  5
8
330
0
100
AcDbSymbolTable
 70
1
  0
VPORT
  5
23
330
8
100
AcDbSymbolTableRecord
100
AcDbViewportTableRecord
  2
*Active
 70
0
 10
0.0
 20
0.0
 11
1.0
 21
1.0
 12
344.2
 22
148.5
 13
0.0
 23
0.0
 14
0.5
 24
0.5
 15
0.5
 25
0.5
 16
0.0
 26
0.0
 36
1.0
 17
0.0
 27
0.0
 37
0.0
 40
297.0
 41
1.34
 42
50.0
 43
0.0
 44
0.0
 50
0.0
 51
0.0
 71
0
 72
1000
 73
1
 74
3
 75
0
 76
0
 77
0
 78
0
281
0
 65
0
146
0.0
  0
ENDTAB
  0
TABLE
  2
LTYPE
  5
2
330
0
100
AcDbSymbolTable
 70
3
  0
LTYPE
  5
24
330
2
100
AcDbSymbolTableRecord
100
AcDbLinetypeTableRecord
  2
ByBlock
 70
0
  3

 72
65
 73
0
 40
0.0
  0
LTYPE
  5
25
330
2
100
AcDbSymbolTableRecord
100
AcDbLinetypeTableRecord
  2
ByLayer
 70
0
  3

 72
65
 73
0
 40
0.0
  0
LTYPE
  5
26
330
2
100
AcDbSymbolTableRecord
100
AcDbLinetypeTableRecord
  2
Continuous
 70
0
  3

 72
65
 73
0
 40
0.0
  0
ENDTAB
  0
TABLE
  2
LAYER
  5
1
330
0
100
AcDbSymbolTable
 70
2
  0
LAYER
  5
27
330
1
100
AcDbSymbolTableRecord
100
AcDbLayerTableRecord
  2
0
 70
0
 62
7
  6
Continuous
370
-3
390
13
347
21
  0
LAYER
  5
28
330
1
100
AcDbSymbolTableRecord
100
AcDbLayerTableRecord
  2
Defpoints
 70
0
 62
7
  6
Continuous
290
0
370
-3
390
13
347
21
  0
ENDTAB
  0
TABLE
  2
STYLE
  5
5
330
0
100
AcDbSymbolTable
 70
1
  0
STYLE
  5
29
330
5
100
AcDbSymbolTableRecord
100
AcDbTextStyleTableRecord
  2
Standard
 70
0
 40
0.0
 41
1.0
 50
0.0
 71
0
 42
2.5
  3
txt
  4

  0
ENDTAB
  0
TABLE
  2
VIEW
  5
7
330
0
100
AcDbSymbolTable
 70
0
  0
ENDTAB
  0
TABLE
  2
UCS
  5
6
330
0
100
AcDbSymbolTable
 70
0
  0
ENDTAB
  0
TABLE
  2
APPID
  5
3
330
0
100
AcDbSymbolTable
 70
3
  0
APPID
  5
2A
330
3
100
AcDbSymbolTableRecord
100
AcDbRegAppTableRecord
  2
ACAD
 70
0
  0
APPID
  5
76
330
3
100
AcDbSymbolTableRecord
100
AcDbRegAppTableRecord
  2
HATCHBACKGROUNDCOLOR
 70
0
  0
APPID
  5
77
330
3
100
AcDbSymbolTableRecord
100
AcDbRegAppTableRecord
  2
EZDXF
 70
0
  0
ENDTAB
  0
TABLE
  2
DIMSTYLE
  5
4
330
0
100
AcDbSymbolTable
 70
1
100
AcDbDimStyleTable
  0
DIMSTYLE
105
2B
330
4
100
AcDbSymbolTableRecord
100
AcDbDimStyleTableRecord
  2
Standard
 70
0
 40
1.0
 41
2.5
 42
0.625
 43
3.75
 44
1.25
 45
0.0
 46
0.0
 47
0.0
 48
0.0
 49
2.5
140
2.5
141
2.5
142
0.0
143
0.03937007874
144
1.0
145
0.0
146
1.0
147
0.625
148
0.0
 69
0
 70
0
 71
0
 72
0
 73
0
 74
0
 75
0
 76
0
 77
1
 78
8
 79
0
170
0
171
3
172
1
173
0
174
0
175
0
176
0
177
0
178
0
179
0
271
0
272
2
273
2
274
3
275
0
276
0
277
2
278
44
279
0
280
0
281
0
282
0
283
0
284
8
285
0
286
0
288
0
289
3
290
0
371
-2
372
-2
  0
ENDTAB
  0
TABLE
  2
BLOCK_RECORD
  5
9
330
0
100
AcDbSymbolTable
 70
2
  0
BLOCK_RECORD
  5
17
330
9
100
AcDbSymbolTableRecord
100
AcDbBlockTableRecord
  2
*Model_Space
340
1A
 70
0
280
1
281
0
  0
BLOCK_RECORD
  5
1B
330
9
100
AcDbSymbolTableRecord
100
AcDbBlockTableRecord
  2
*Paper_Space
340
1E
 70
0
280
1
281
0
  0
ENDTAB
  0
ENDSEC
  0
SECTION
  2
BLOCKS
  0
BLOCK
  5
18
330
17
100
AcDbEntity
  8
0
100
AcDbBlockBegin
  2
*Model_Space
 70
0
 10
0.0
 20
0.0
 30
0.0
  3
*Model_Space
  1

  0
ENDBLK
  5
19
330
17
100
AcDbEntity
  8
0
100
AcDbBlockEnd
  0
BLOCK
  5
1C
330
1B
100
AcDbEntity
  8
0
100
AcDbBlockBegin
  2
*Paper_Space
 70
0
 10
0.0
 20
0.0
 30
0.0
  3
*Paper_Space
  1

  0
ENDBLK
  5
1D
330
1B
100
AcDbEntity
  8
0
100
AcDbBlockEnd
  0
ENDSEC
  0
SECTION
  2
ENTITIES
  0
SPLINE
  5
2F
330
17
100
AcDbEntity
  8
0
100
AcDbSpline
 70
0
 71
8
 72
95
 73
86
 74
0
 40
0.0
 40
0.0
 40
0.0
 40
0.0
 40
0.0
 40
0.0
 40
0.0
 40
0.0
 40
0.0
 40
0.009440531560123004
 40
0.009440531560123004
 40
0.009440531560123004
 40
0.009440531560123004
 40
0.009440531560123004
 40
0.009440531560123004
 40
0.009440531560123004
 40
0.15625587958515336
 40
0.15625587958515336
 40
0.15625587958515336
 40
0.15625587958515336
 40
0.15625587958515336
 40
0.15625587958515336
 40
0.15625587958515336
 40
0.2542820425126911
 40
0.2542820425126911
 40
0.2542820425126911
 40
0.2542820425126911
 40
0.2542820425126911
 40
0.2542820425126911
 40
0.2542820425126911
 40
0.3322042760088897
 40
0.3322042760088897
 40
0.3322042760088897
 40
0.3322042760088897
 40
0.3322042760088897
 40
0.3322042760088897
 40
0.3322042760088897
 40
0.4080824796182355
 40
0.4080824796182355
 40
0.4080824796182355
 40
0.4080824796182355
 40
0.4080824796182355
 40
0.4080824796182355
 40
0.4080824796182355
 40
0.45680865335105325
 40
0.45680865335105325
 40
0.45680865335105325
 40
0.45680865335105325
 40
0.45680865335105325
 40
0.45680865335105325
 40
0.45680865335105325
 40
0.5168570836518276
 40
0.5168570836518276
 40
0.5168570836518276
 40
0.5168570836518276
 40
0.5168570836518276
 40
0.5168570836518276
 40
0.5168570836518276
 40
0.5340136624637467
 40
0.5340136624637467
 40
0.5340136624637467
 40
0.5340136624637467
 40
0.5340136624637467
 40
0.5340136624637467
 40
0.5340136624637467
 40
0.5658775023702945
 40
0.5658775023702945
 40
0.5658775023702945
 40
0.5658775023702945
 40
0.5658775023702945
 40
0.5658775023702945
 40
0.5658775023702945
 40
0.6778559319876744
 40
0.6778559319876744
 40
0.6778559319876744
 40
0.6778559319876744
 40
0.6778559319876744
 40
0.6778559319876744
 40
0.6778559319876744
 40
0.8278921983017953
 40
0.8278921983017953
 40
0.8278921983017953
 40
0.8278921983017953
 40
0.8278921983017953
 40
0.8278921983017953
 40
0.8278921983017953
 40
1.0
 40
1.0
 40
1.0
 40
1.0
 40
1.0
 40
1.0
 40
1.0
 40
1.0
 40
1.0
 10
53.6051469192269
 20
209.899999323319
 30
1523.0
 10
53.582538859430905
 20
209.96705743314584
 30
1523.0
 10
53.55992537525694
 20
210.03396820272084
 30
1523.0
 10
53.53730649756101
 20
210.10073157078605
 30
1523.0
 10
53.51468225754994
 20
210.16734748900964
 30
1523.0
 10
53.49205268678134
 20
210.23381592198587
 30
1523.0
 10
53.469417817163645
 20
210.30013684723502
 30
1523.0
 10
53.44677768095608
 20
210.36631025520353
 30
1523.0
 10
53.07196062593877
 20
211.45914428537327
 30
1523.0
 10
52.70778041256819
 20
212.48172941905213
 30
1523.0
 10
52.33055311793626
 20
213.4996660830039
 30
1523.0
 10
51.93910895147437
 20
214.51234161643737
 30
1523.0
 10
51.532096766097226
 20
215.51893505394378
 30
1523.0
 10
51.10793769853295
 20
216.51839829544537
 30
1523.0
 10
50.66472405758503
 20
217.5094149193231
 30
1523.0
 10
49.88971973969911
 20
219.145240647048
 30
1523.0
 10
49.56989113233571
 20
219.7955641209158
 30
1523.0
 10
49.23977879783299
 20
220.440824077692
 30
1523.0
 10
48.898568814677624
 20
221.08039659652582
 30
1523.0
 10
48.545364327945286
 20
221.71348742793316
 30
1523.0
 10
48.179156288674484
 20
222.3391156930292
 30
1523.0
 10
47.798774273846604
 20
222.95608603451487
 30
1523.0
 10
47.08806626265989
 20
224.04535242058043
 30
1523.0
 10
46.76354075379531
 20
224.5212652775187
 30
1523.0
 10
46.42851313880978
 20
224.99001049522343
 30
1523.0
 10
46.082232278170665
 20
225.45068824334444
 30
1523.0
 10
45.72391820714837
 20
225.90217195045983
 30
1523.0
 10
45.352753473356344
 20
226.34310146654505
 30
1523.0
 10
44.967871219063824
 20
226.77187359363654
 30
1523.0
 10
44.17928916618142
 20
227.59050662524479
 30
1523.0
 10
43.77644611530192
 20
227.98099092067145
 30
1523.0
 10
43.35895788489496
 20
228.35638467994343
 30
1523.0
 10
42.926125945500154
 20
228.71453856379765
 30
1523.0
 10
42.477454388080545
 20
229.05291897945784
 30
1523.0
 10
42.01271317744315
 20
229.3686939841009
 30
1523.0
 10
41.53205780156816
 20
229.6588939819421
 30
1523.0
 10
40.71785506193691
 20
230.08882706024357
 30
1523.0
 10
40.3932249938919
 20
230.2452371247621
 30
1523.0
 10
40.06266026790001
 20
230.3891364833385
 30
1523.0
 10
39.72654206619545
 20
230.5197925830413
 30
1523.0
 10
39.385340608858094
 20
230.63656955057797
 30
1523.0
 10
39.03962684298912
 20
230.73896071483992
 30
1523.0
 10
38.690084131886636
 20
230.8266211294486
 30
1523.0
 10
37.90303218481588
 20
230.98909034437096
 30
1523.0
 10
37.46379651033451
 20
231.0562131641648
 30
1523.0
 10
37.0213696330434
 20
231.10044551302218
 30
1523.0
 10
36.57718088999739
 20
231.1220175730748
 30
1523.0
 10
36.132530403087976
 20
231.12160087181542
 30
1523.0
 10
35.68858664813662
 20
231.10020160177962
 30
1523.0
 10
35.24638343303367
 20
231.05905913834084
 30
1523.0
 10
34.6812265170982
 20
230.9825471893624
 30
1523.0
 10
34.5556909176074
 20
230.96402352973433
 30
1523.0
 10
34.43021131468089
 20
230.94400146998333
 30
1523.0
 10
34.30478953654979
 20
230.9225037033592
 30
1523.0
 10
34.1794274114456
 20
230.8995529231121
 30
1523.0
 10
34.0541267676002
 20
230.87517182249272
 30
1523.0
 10
33.928889433245864
 20
230.84938309475191
 30
1523.0
 10
33.57124275100172
 20
230.7717414923742
 30
1523.0
 10
33.33976890052433
 20
230.71668397767797
 30
1523.0
 10
33.10938733910864
 20
230.65716491074278
 30
1523.0
 10
32.880078679562935
 20
230.59352310761784
 30
1523.0
 10
32.65189461225028
 20
230.52597589288726
 30
1523.0
 10
32.424926185104596
 20
230.45456523301294
 30
1523.0
 10
32.199221905105176
 20
230.3792836556689
 30
1523.0
 10
31.186205990115692
 20
230.02264506403546
 30
1523.0
 10
30.41397722487545
 20
229.69897069072812
 30
1523.0
 10
29.66012740732734
 20
229.3329045833918
 30
1523.0
 10
28.92614098953102
 20
228.92805013595296
 30
1523.0
 10
28.21307197347662
 20
228.4878227667569
 30
1523.0
 10
27.521594699249132
 20
228.0153602302716
 30
1523.0
 10
26.852043403190933
 20
227.51345433694
 30
1523.0
 10
25.336779337388112
 20
226.27570148574108
 30
1523.0
 10
24.508901211500106
 20
225.5186205747832
 30
1523.0
 10
23.720811291510383
 20
224.71894672441965
 30
1523.0
 10
22.972396889079334
 20
223.8816895016795
 30
1523.0
 10
22.26334007684289
 20
223.01125080519094
 30
1523.0
 10
21.59310906894966
 20
222.11143642144293
 30
1523.0
 10
20.96099866004887
 20
221.18542336768274
 30
1523.0
 10
19.683842676930674
 20
219.14632760134097
 30
1523.0
 10
19.05082692671654
 20
218.0261692791233
 30
1523.0
 10
18.465949831184744
 20
216.87932935520556
 30
1523.0
 10
17.92816258064142
 20
215.70941343816241
 30
1523.0
 10
17.436411702533043
 20
214.51962089309086
 30
1523.0
 10
16.989608103657723
 20
213.31276140693336
 30
1523.0
 10
16.586643797380646
 20
212.09124931627926
 30
1523.0
 10
16.226403675665736
 20
210.85710008046203
 30
1523.0
  0
LINE
  5
30
330
17
100
AcDbEntity
  8
0
100
AcDbLine
 10
32.94688962312737
 20
209.9
 30
1523.0
 11
53.605148926340696
 21
209.9
 31
1523.0
  0
SPLINE
  5
31
330
17
100
AcDbEntity
  8
0
100
AcDbSpline
 70
0
 71
1
 72
4
 73
2
 74
0
 40
0.0
 40
0.0
 40
1.0
 40
1.0
 10
32.94688962272078
 20
209.90000060000008
 30
1523.0
 10
32.94688962272078
 20
206.09999939999994
 30
1523.0
  0
LINE
  5
32
330
17
100
AcDbEntity
  8
0
100
AcDbLine
 10
32.94688962312737
 20
206.1
 30
1523.0
 11
54.816647705414624
 21
206.1
 31
1523.0
  0
SPLINE
  5
33
330
17
100
AcDbEntity
  8
0
100
AcDbSpline
 70
0
 71
8
 72
32
 73
23
 74
0
 40
0.0
 40
0.0
 40
0.0
 40
0.0
 40
0.0
 40
0.0
 40
0.0
 40
0.0
 40
0.0
 40
0.20879020677348775
 40
0.20879020677348775
 40
0.20879020677348775
 40
0.20879020677348775
 40
0.20879020677348775
 40
0.20879020677348775
 40
0.20879020677348775
 40
0.8709483171254412
 40
0.8709483171254412
 40
0.8709483171254412
 40
0.8709483171254412
 40
0.8709483171254412
 40
0.8709483171254412
 40
0.8709483171254412
 40
1.0
 40
1.0
 40
1.0
 40
1.0
 40
1.0
 40
1.0
 40
1.0
 40
1.0
 40
1.0
 10
60.23943055103466
 20
183.89999999887235
 30
1523.0
 10
60.12006619193936
 20
184.486578388422
 30
1523.0
 10
59.99968043981035
 20
185.07294831789022
 30
1523.0
 10
59.87825034604953
 20
185.65910294084597
 30
1523.0
 10
59.755751684797936
 20
186.2450350224277
 30
1523.0
 10
59.63215883040902
 20
186.83073691513889
 30
1523.0
 10
59.50744461576757
 20
187.41620053084682
 30
1523.0
 10
59.38158016784887
 20
188.00141730826033
 30
1523.0
 10
58.85162225746188
 20
190.44152544592592
 30
1523.0
 10
58.43684783867815
 20
192.29402637532377
 30
1523.0
 10
58.00921511603337
 20
194.14364618980065
 30
1523.0
 10
57.56756070893875
 20
195.9900353967896
 30
1523.0
 10
57.110454891630425
 20
197.83270373241527
 30
1523.0
 10
56.6361460406098
 20
199.67100642557344
 30
1523.0
 10
56.14237510800303
 20
201.50409778317828
 30
1523.0
 10
55.52522502673851
 20
203.68682465661723
 30
1523.0
 10
55.4244184103099
 20
204.04006144001352
 30
1523.0
 10
55.323468671062386
 20
204.39049805982805
 30
1523.0
 10
55.22237793914023
 20
204.73811512433065
 30
1523.0
 10
55.12114834468757
 20
205.08289324179088
 30
1523.0
 10
55.01978201784845
 20
205.4248130204781
 30
1523.0
 10
54.91828108876682
 20
205.76385506866143
 30
1523.0
 10
54.81664768758657
 20
206.09999999460968
 30
1523.0
  0
LINE
  5
34
330
17
100
AcDbEntity
  8
0
100
AcDbLine
 10
32.94688962312737
 20
183.9
 30
1523.0
 11
60.239430556576494
 21
183.9
 31
1523.0
  0
SPLINE
  5
35
330
17
100
AcDbEntity
  8
0
100
AcDbSpline
 70
0
 71
1
 72
4
 73
2
 74
0
 40
0.0
 40
0.0
 40
1.0
 40
1.0
 10
32.946889622720775
 20
183.90000060000014
 30
1523.0
 10
32.946889622720775
 20
180.0999993999999
 30
1523.0
  0
LINE
  5
36
330
17
100
AcDbEntity
  8
0
100
AcDbLine
 10
32.94688962312737
 20
180.1
 30
1523.0
 11
60.99389059125854
 21
180.1
 31
1523.0
  0
SPLINE
  5
37
330
17
100
AcDbEntity
  8
0
100
AcDbSpline
 70
0
 71
8
 72
25
 73
16
 74
0
 40
0.0
 40
0.0
 40
0.0
 40
0.0
 40
0.0
 40
0.0
 40
0.0
 40
0.0
 40
0.0
 40
0.596055687813746
 40
0.596055687813746
 40
0.596055687813746
 40
0.596055687813746
 40
0.596055687813746
 40
0.596055687813746
 40
0.596055687813746
 40
1.0
 40
1.0
 40
1.0
 40
1.0
 40
1.0
 40
1.0
 40
1.0
 40
1.0
 40
1.0
 10
64.79089785299044
 20
157.89999999966744
 30
1523.0
 10
64.5395757269207
 20
159.55927584897017
 30
1523.0
 10
64.283498354486
 20
161.21783075417449
 30
1523.0
 10
64.02252353593691
 20
162.87562626662202
 30
1523.0
 10
63.75649281669772
 20
164.53261946606614
 30
1523.0
 10
63.48522895241251
 20
166.18876256529214
 30
1523.0
 10
63.20853257039256
 20
167.84400238998884
 30
1523.0
 10
62.92617760002399
 20
169.49827966587696
 30
1523.0
 10
62.44254400466868
 20
172.27192718409265
 30
1523.0
 10
62.244466348844725
 20
173.39184714703686
 30
1523.0
 10
62.04359113198265
 20
174.5112687204302
 30
1523.0
 10
61.8398308118655
 20
175.6301696186518
 30
1523.0
 10
61.63309010488567
 20
176.74852425414167
 30
1523.0
 10
61.42326485939156
 20
177.86630351345747
 30
1523.0
 10
61.21024062464271
 20
178.98347447452272
 30
1523.0
 10
60.993890593221906
 20
180.10000000038042
 30
1523.0
  0
LINE
  5
38
330
17
100
AcDbEntity
  8
0
100
AcDbLine
 10
32.94688962312737
 20
157.9
 30
1523.0
 11
64.7908978551861
 21
157.9
 31
1523.0
  0
SPLINE
  5
39
330
17
100
AcDbEntity
  8
0
100
AcDbSpline
 70
0
 71
1
 72
4
 73
2
 74
0
 40
0.0
 40
0.0
 40
1.0
 40
1.0
 10
32.94688962272078
 20
157.90000060000042
 30
1523.0
 10
32.94688962272078
 20
154.09999939999918
 30
1523.0
  0
LINE
  5
3A
330
17
100
AcDbEntity
  8
0
100
AcDbLine
 10
32.94688962312737
 20
154.1
 30
1523.0
 11
65.35549861753898
 21
154.1
 31
1523.0
  0
SPLINE
  5
3B
330
17
100
AcDbEntity
  8
0
100
AcDbSpline
 70
0
 71
8
 72
25
 73
16
 74
0
 40
0.0
 40
0.0
 40
0.0
 40
0.0
 40
0.0
 40
0.0
 40
0.0
 40
0.0
 40
0.0
 40
0.5822839965915505
 40
0.5822839965915505
 40
0.5822839965915505
 40
0.5822839965915505
 40
0.5822839965915505
 40
0.5822839965915505
 40
0.5822839965915505
 40
1.0
 40
1.0
 40
1.0
 40
1.0
 40
1.0
 40
1.0
 40
1.0
 40
1.0
 40
1.0
 10
68.25679843319082
 20
131.90000000016607
 30
1523.0
 10
68.06804770019187
 20
133.51867156501095
 30
1523.0
 10
67.87574781836564
 20
135.13692889791326
 30
1523.0
 10
67.67986049153149
 20
136.75475814223296
 30
1523.0
 10
67.48034146959517
 20
138.37214437186685
 30
1523.0
 10
67.27714009336071
 20
139.98907153678732
 30
1523.0
 10
67.07019871313518
 20
141.60552239347453
 30
1523.0
 10
66.85945198112637
 20
143.22147842024242
 30
1523.0
 10
66.49085870920192
 20
145.99579697729018
 30
1523.0
 10
66.33489549055349
 20
147.15440594462748
 30
1523.0
 10
66.17690892080122
 20
148.31274005202818
 30
1523.0
 10
66.01686936346555
 20
149.4707919356229
 30
1523.0
 10
65.85474475612678
 20
150.62855339827217
 30
1523.0
 10
65.69050038425377
 20
151.78601537373962
 30
1523.0
 10
65.52409862518272
 20
152.94316788646975
 30
1523.0
 10
65.35549862822062
 20
154.10000000155677
 30
1523.0
  0
LINE
  5
3C
330
17
100
AcDbEntity
  8
0
100
AcDbLine
 10
32.94688962312737
 20
131.9
 30
1523.0
 11
68.25679843176633
 21
131.9
 31
1523.0
  0
SPLINE
  5
3D
330
17
100
AcDbEntity
  8
0
100
AcDbSpline
 70
0
 71
1
 72
4
 73
2
 74
0
 40
0.0
 40
0.0
 40
1.0
 40
1.0
 10
32.946889622720775
 20
131.90000060000256
 30
1523.0
 10
32.946889622720775
 20
128.09999939999764
 30
1523.0
  0
LINE
  5
3E
330
17
100
AcDbEntity
  8
0
100
AcDbLine
 10
32.94688962312737
 20
128.1
 30
1523.0
 11
68.69129417924586
 21
128.1
 31
1523.0
  0
SPLINE
  5
3F
330
17
100
AcDbEntity
  8
0
100
AcDbSpline
 70
0
 71
8
 72
32
 73
23
 74
0
 40
0.0
 40
0.0
 40
0.0
 40
0.0
 40
0.0
 40
0.0
 40
0.0
 40
0.0
 40
0.0
 40
0.15766429196806814
 40
0.15766429196806814
 40
0.15766429196806814
 40
0.15766429196806814
 40
0.15766429196806814
 40
0.15766429196806814
 40
0.15766429196806814
 40
0.5247921003228945
 40
0.5247921003228945
 40
0.5247921003228945
 40
0.5247921003228945
 40
0.5247921003228945
 40
0.5247921003228945
 40
0.5247921003228945
 40
1.0
 40
1.0
 40
1.0
 40
1.0
 40
1.0
 40
1.0
 40
1.0
 40
1.0
 40
1.0
 10
70.89652844765966
 20
105.90000000059605
 30
1523.0
 10
70.85833840585214
 20
106.33928235978588
 30
1523.0
 10
70.81991287935108
 20
106.77854431067395
 30
1523.0
 10
70.781251150493
 20
107.21778565049576
 30
1523.0
 10
70.74235249865526
 20
107.65700617509691
 30
1523.0
 10
70.70321620023257
 20
108.09620567893168
 30
1523.0
 10
70.66384152861328
 20
108.53538395506158
 30
1523.0
 10
70.62422775415538
 20
108.97454079515393
 30
1523.0
 10
70.49157336911641
 20
110.43622040617784
 30
1523.0
 10
70.3975278896287
 20
111.45802183320852
 30
1523.0
 10
70.30223293955778
 20
112.47909073389897
 30
1523.0
 10
70.2056807116286
 20
113.49942746948007
 30
1523.0
 10
70.10786294719365
 20
114.51902255788521
 30
1523.0
 10
70.00877352599382
 20
115.53785693254889
 30
1523.0
 10
69.90841105591937
 20
116.55590220120544
 30
1523.0
 10
69.6752327639089
 20
118.88980232351037
 30
1523.0
 10
69.54144582738363
 20
120.20625904889692
 30
1523.0
 10
69.40541570267165
 20
121.52248657999124
 30
1523.0
 10
69.26713532380738
 20
122.83848000758483
 30
1523.0
 10
69.12659549643747
 20
124.15423401257505
 30
1523.0
 10
68.9837848487045
 20
125.46974286009387
 30
1523.0
 10
68.83868974596035
 20
126.78500038930747
 30
1523.0
 10
68.6912941693089
 20
128.09999999888623
 30
1523.0
  0
LINE
  5
40
330
17
100
AcDbEntity
  8
0
100
AcDbLine
 10
32.94688962312737
 20
105.9
 30
1523.0
 11
70.89652844080341
 21
105.9
 31
1523.0
  0
SPLINE
  5
41
330
17
100
AcDbEntity
  8
0
100
AcDbSpline
 70
0
 71
1
 72
4
 73
2
 74
0
 40
0.0
 40
0.0
 40
1.0
 40
1.0
 10
32.94688962272078
 20
105.90000060000206
 30
1523.0
 10
32.94688962272078
 20
102.09999939999993
 30
1523.0
  0
LINE
  5
42
330
17
100
AcDbEntity
  8
0
100
AcDbLine
 10
32.94688962312737
 20
102.1
 30
1523.0
 11
71.21917726522122
 21
102.1
 31
1523.0
  0
SPLINE
  5
43
330
17
100
AcDbEntity
  8
0
100
AcDbSpline
 70
0
 71
8
 72
18
 73
9
 74
0
 40
0.0
 40
0.0
 40
0.0
 40
0.0
 40
0.0
 40
0.0
 40
0.0
 40
0.0
 40
0.0
 40
1.0
 40
1.0
 40
1.0
 40
1.0
 40
1.0
 40
1.0
 40
1.0
 40
1.0
 40
1.0
 10
72.81003001258169
 20
79.89999999982565
 30
1523.0
 10
72.64098878629778
 20
82.67703431918682
 30
1523.0
 10
72.46375014098531
 20
85.45356921318425
 30
1523.0
 10
72.27815827208666
 20
88.22956646831675
 30
1523.0
 10
72.08405367015159
 20
91.00498572767482
 30
1523.0
 10
71.88127293525999
 20
93.77978447981552
 30
1523.0
 10
71.66964857738256
 20
96.55391804673826
 30
1523.0
 10
71.44900880268005
 20
99.32733957096158
 30
1523.0
 10
71.21917728574037
 20
102.10000000170083
 30
1523.0
  0
LINE
  5
44
330
17
100
AcDbEntity
  8
0
100
AcDbLine
 10
32.94688962312737
 20
79.9
 30
1523.0
 11
72.81003001544623
 21
79.9
 31
1523.0
  0
SPLINE
  5
45
330
17
100
AcDbEntity
  8
0
100
AcDbSpline
 70
0
 71
1
 72
4
 73
2
 74
0
 40
0.0
 40
0.0
 40
1.0
 40
1.0
 10
32.94688962272078
 20
79.90000060000001
 30
1523.0
 10
32.94688962272078
 20
76.09999939999999
 30
1523.0
  0
LINE
  5
46
330
17
100
AcDbEntity
  8
0
100
AcDbLine
 10
32.94688962312737
 20
76.1
 30
1523.0
 11
73.03464564950386
 21
76.1
 31
1523.0
  0
SPLINE
  5
47
330
17
100
AcDbEntity
  8
0
100
AcDbSpline
 70
0
 71
8
 72
18
 73
9
 74
0
 40
0.0
 40
0.0
 40
0.0
 40
0.0
 40
0.0
 40
0.0
 40
0.0
 40
0.0
 40
0.0
 40
1.0
 40
1.0
 40
1.0
 40
1.0
 40
1.0
 40
1.0
 40
1.0
 40
1.0
 40
1.0
 10
74.09122016317843
 20
53.899999999206635
 30
1523.0
 10
73.98516497146969
 20
56.676157685087205
 30
1523.0
 10
73.87195581455525
 20
59.45204124881897
 30
1523.0
 10
73.75145682657983
 20
62.227624984598016
 30
1523.0
 10
73.62352920647878
 20
65.00288109989398
 30
1523.0
 10
73.48803108271488
 20
67.77777970753654
 30
1523.0
 10
73.34481736407373
 20
70.55228881691053
 30
1523.0
 10
73.193739576518
 20
73.3263743242597
 30
1523.0
 10
73.03464568610023
 20
76.10000000209912
 30
1523.0
  0
LINE
  5
48
330
17
100
AcDbEntity
  8
0
100
AcDbLine
 10
32.94688962312737
 20
53.9
 30
1523.0
 11
74.09122018394521
 21
53.9
 31
1523.0
  0
SPLINE
  5
49
330
17
100
AcDbEntity
  8
0
100
AcDbSpline
 70
0
 71
1
 72
4
 73
2
 74
0
 40
0.0
 40
0.0
 40
1.0
 40
1.0
 10
32.94688962272078
 20
53.90000060000026
 30
1523.0
 10
32.946889622720775
 20
50.09999939999937
 30
1523.0
  0
LINE
  5
4A
330
17
100
AcDbEntity
  8
0
100
AcDbLine
 10
32.94688962312737
 20
50.1
 30
1523.0
 11
74.23055450078513
 21
50.1
 31
1523.0
  0
SPLINE
  5
4B
330
17
100
AcDbEntity
  8
0
100
AcDbSpline
 70
0
 71
8
 72
25
 73
16
 74
0
 40
0.0
 40
0.0
 40
0.0
 40
0.0
 40
0.0
 40
0.0
 40
0.0
 40
0.0
 40
0.0
 40
0.7194031278294316
 40
0.7194031278294316
 40
0.7194031278294316
 40
0.7194031278294316
 40
0.7194031278294316
 40
0.7194031278294316
 40
0.7194031278294316
 40
1.0
 40
1.0
 40
1.0
 40
1.0
 40
1.0
 40
1.0
 40
1.0
 40
1.0
 40
1.0
 10
74.82163205599055
 20
27.899999999888706
 30
1523.0
 10
74.78482738536715
 20
29.89673616624519
 30
1523.0
 10
74.74479005032974
 20
31.89341264869174
 30
1523.0
 10
74.70147525537863
 20
33.890022492534456
 30
1523.0
 10
74.65483758969613
 20
35.88655844393041
 30
1523.0
 10
74.60483101291791
 20
37.883012949269656
 30
1523.0
 10
74.55140884926429
 20
39.8793781546022
 30
1523.0
 10
74.49452375856983
 20
41.87564590618187
 30
1523.0
 10
74.41057051198968
 20
44.650393155349335
 30
1523.0
 10
74.38647935542201
 20
45.42896197884288
 30
1523.0
 10
74.36185120633006
 20
46.20751376355664
 30
1523.0
 10
74.33668319362353
 20
46.98604803358372
 30
1523.0
 10
74.31097242927575
 20
47.7645643001917
 30
1523.0
 10
74.2847160081153
 20
48.54306206181062
 30
1523.0
 10
74.25791100761073
 20
49.32154080402049
 30
1523.0
 10
74.23055448764869
 20
50.09999999953837
 30
1523.0
  0
LINE
  5
4C
330
17
100
AcDbEntity
  8
0
100
AcDbLine
 10
32.94688962312737
 20
27.9
 30
1523.0
 11
74.82163206202846
 21
27.9
 31
1523.0
  0
SPLINE
  5
4D
330
17
100
AcDbEntity
  8
0
100
AcDbSpline
 70
0
 71
1
 72
4
 73
2
 74
0
 40
0.0
 40
0.0
 40
1.0
 40
1.0
 10
32.946889622720775
 20
27.900000600000002
 30
1523.0
 10
32.946889622720775
 20
24.099999399999998
 30
1523.0
  0
LINE
  5
4E
330
17
100
AcDbEntity
  8
0
100
AcDbLine
 10
32.94688962312737
 20
24.1
 30
1523.0
 11
74.88658521339833
 21
24.1
 31
1523.0
  0
SPLINE
  5
4F
330
17
100
AcDbEntity
  8
0
100
AcDbSpline
 70
0
 71
8
 72
18
 73
9
 74
0
 40
0.0
 40
0.0
 40
0.0
 40
0.0
 40
0.0
 40
0.0
 40
0.0
 40
0.0
 40
0.0
 40
1.0
 40
1.0
 40
1.0
 40
1.0
 40
1.0
 40
1.0
 40
1.0
 40
1.0
 40
1.0
 10
75.07160409209055
 20
1.9000000000362247
 30
1523.0000000000002
 10
75.06829438198301
 20
4.675119266329877
 30
1523.0
 10
75.05954378267177
 20
7.45023154678727
 30
1523.0
 10
75.04524434086235
 20
10.225324672727957
 30
1523.0
 10
75.0252854716588
 20
13.000385386526684
 30
1523.0
 10
74.9995551109773
 20
15.775399315049011
 30
1523.0
 10
74.9679393320114
 20
18.550350974943488
 30
1523.0
 10
74.93032210335306
 20
21.325223772144817
 30
1523.0
 10
74.88658516521957
 20
24.099999999240588
 30
1523.0
  0
LINE
  5
50
330
17
100
AcDbEntity
  8
0
100
AcDbLine
 10
32.94688962312737
 20
1.9
 30
1523.0
 11
75.07160406170571
 21
1.9
 31
1523.0
  0
SPLINE
  5
51
330
17
100
AcDbEntity
  8
0
100
AcDbSpline
 70
0
 71
1
 72
4
 73
2
 74
0
 40
0.0
 40
0.0
 40
0.9999993684216398
 40
0.9999993684216398
 10
32.94688962272078
 20
1.9000006000000558
 30
1523.0
 10
32.946889622720775
 20
-6.553790374438061e-17
 30
1523.0
  0
SPLINE
  5
52
330
17
100
AcDbEntity
  8
0
100
AcDbSpline
 70
0
 71
1
 72
4
 73
2
 74
0
 40
0.0
 40
0.0
 40
1.0
 40
1.0
 10
32.946889622720775
 20
-1.9000006000000011
 30
1523.0
 10
32.94688962272078
 20
1.2000000211287443e-06
 30
1523.0
  0
LINE
  5
53
330
17
100
AcDbEntity
  8
0
100
AcDbLine
 10
32.94688962312734
 20
-1.9
 30
1523.0
 11
75.07169574570226
 21
-1.9
 31
1523.0
  0
SPLINE
  5
54
330
17
100
AcDbEntity
  8
0
100
AcDbSpline
 70
0
 71
8
 72
18
 73
9
 74
0
 40
0.0
 40
0.0
 40
0.0
 40
0.0
 40
0.0
 40
0.0
 40
0.0
 40
0.0
 40
0.0
 40
1.0
 40
1.0
 40
1.0
 40
1.0
 40
1.0
 40
1.0
 40
1.0
 40
1.0
 40
1.0
 10
74.88770290356061
 20
-24.099999999726588
 30
1523.0
 10
74.93132143343671
 20
-21.325235830725255
 30
1523.0
 10
74.96881614424213
 20
-18.550375976396275
 30
1523.0
 10
75.00030595826965
 20
-15.775436669690231
 30
1523.0
 10
75.02590758939294
 20
-13.000432475238098
 30
1523.0
 10
75.04573566023839
 20
-10.22537629440876
 30
1523.0
 10
75.0599028146346
 20
-7.450279370170534
 30
1523.0
 10
75.06851982744635
 20
-4.67515129186028
 30
1523.0
 10
75.0716957139027
 20
-1.89999999996359
 30
1523.0
  0
LINE
  5
55
330
17
100
AcDbEntity
  8
0
100
AcDbLine
 10
32.94688962312734
 20
-24.1
 30
1523.0
 11
74.88770292095221
 21
-24.1
 31
1523.0
  0
SPLINE
  5
56
330
17
100
AcDbEntity
  8
0
100
AcDbSpline
 70
0
 71
1
 72
4
 73
2
 74
0
 40
0.0
 40
0.0
 40
1.0
 40
1.0
 10
32.946889622720775
 20
-27.900000600000034
 30
1523.0
 10
32.946889622720775
 20
-24.099999399999938
 30
1523.0
  0
LINE
  5
57
330
17
100
AcDbEntity
  8
0
100
AcDbLine
 10
32.94688962312734
 20
-27.9
 30
1523.0
 11
74.82290812697391
 21
-27.9
 31
1523.0
  0
SPLINE
  5
58
330
17
100
AcDbEntity
  8
0
100
AcDbSpline
 70
0
 71
8
 72
18
 73
9
 74
0
 40
0.0
 40
0.0
 40
0.0
 40
0.0
 40
0.0
 40
0.0
 40
0.0
 40
0.0
 40
0.0
 40
1.0
 40
1.0
 40
1.0
 40
1.0
 40
1.0
 40
1.0
 40
1.0
 40
1.0
 40
1.0
 10
74.23256396459354
 20
-50.1000000008024
 30
1523.0
 10
74.32999256850053
 20
-47.32568768558717
 30
1523.0
 10
74.42040752277316
 20
-44.55113091018222
 30
1523.0
 10
74.50394251889772
 20
-41.77635577861166
 30
1523.0
 10
74.58072843478719
 20
-39.00138669841263
 30
1523.0
 10
74.65089347746292
 20
-36.22624638681797
 30
1523.0
 10
74.71456331605481
 20
-33.45095587649928
 30
1523.0
 10
74.77186120723327
 20
-30.67553452097444
 30
1523.0
 10
74.82290811518561
 20
-27.899999999783187
 30
1523.0
  0
LINE
  5
59
330
17
100
AcDbEntity
  8
0
100
AcDbLine
 10
32.94688962312734
 20
-50.1
 30
1523.0
 11
74.23256394174476
 21
-50.1
 31
1523.0
  0
SPLINE
  5
5A
330
17
100
AcDbEntity
  8
0
100
AcDbSpline
 70
0
 71
1
 72
4
 73
2
 74
0
 40
0.0
 40
0.0
 40
1.0
 40
1.0
 10
32.946889622720775
 20
-53.9000006
 30
1523.0
 10
32.94688962272078
 20
-50.0999994
 30
1523.0
  0
LINE
  5
5B
330
17
100
AcDbEntity
  8
0
100
AcDbLine
 10
32.94688962312734
 20
-53.9
 30
1523.0
 11
74.09331267621094
 21
-53.9
 31
1523.0
  0
SPLINE
  5
5C
330
17
100
AcDbEntity
  8
0
100
AcDbSpline
 70
0
 71
8
 72
18
 73
9
 74
0
 40
0.0
 40
0.0
 40
0.0
 40
0.0
 40
0.0
 40
0.0
 40
0.0
 40
0.0
 40
0.0
 40
1.0
 40
1.0
 40
1.0
 40
1.0
 40
1.0
 40
1.0
 40
1.0
 40
1.0
 40
1.0
 10
73.03688189465457
 20
-76.099999998952
 30
1523.0
 10
73.19599909791143
 20
-73.32638525902188
 30
1523.0
 10
73.3470871824802
 20
-70.5523066069836
 30
1523.0
 10
73.49029881895753
 20
-67.77780026570474
 30
1523.0
 10
73.62578309093372
 20
-65.0029007229009
 30
1523.0
 10
73.75368568114405
 20
-62.227640739322766
 30
1523.0
 10
73.87414904291722
 20
-59.45205135625731
 30
1523.0
 10
73.98731255904583
 20
-56.6761619024474
 30
1523.0
 10
74.09331269020296
 20
-53.900000000534234
 30
1523.0
  0
LINE
  5
5D
330
17
100
AcDbEntity
  8
0
100
AcDbLine
 10
32.94688962312734
 20
-76.1
 30
1523.0
 11
73.0368819129225
 21
-76.1
 31
1523.0
  0
SPLINE
  5
5E
330
17
100
AcDbEntity
  8
0
100
AcDbSpline
 70
0
 71
1
 72
4
 73
2
 74
0
 40
0.0
 40
0.0
 40
1.0
 40
1.0
 10
32.94688962272078
 20
-79.90000060000018
 30
1523.0
 10
32.94688962272078
 20
-76.09999939999999
 30
1523.0
  0
LINE
  5
5F
330
17
100
AcDbEntity
  8
0
100
AcDbLine
 10
32.94688962312734
 20
-79.9
 30
1523.0
 11
72.81222230583724
 21
-79.9
 31
1523.0
  0
SPLINE
  5
60
330
17
100
AcDbEntity
  8
0
100
AcDbSpline
 70
0
 71
8
 72
18
 73
9
 74
0
 40
0.0
 40
0.0
 40
0.0
 40
0.0
 40
0.0
 40
0.0
 40
0.0
 40
0.0
 40
0.0
 40
1.0
 40
1.0
 40
1.0
 40
1.0
 40
1.0
 40
1.0
 40
1.0
 40
1.0
 40
1.0
 10
71.22061403727334
 20
-102.10000000158048
 30
1523.0
 10
71.45059908726978
 20
-99.32733819954292
 30
1523.0
 10
71.67137377827149
 20
-96.55391934770557
 30
1523.0
 10
71.88311539711316
 20
-93.77979016973454
 30
1523.0
 10
72.08599660877012
 20
-91.00499559909841
 30
1523.0
 10
72.28018570478841
 20
-88.22957879017878
 30
1523.0
 10
72.46584683185779
 20
-85.45358112844212
 30
1523.0
 10
72.64314020267402
 20
-82.67704223977827
 30
1523.0
 10
72.81222229123631
 20
-79.899999999111
 30
1523.0
  0
LINE
  5
61
330
17
100
AcDbEntity
  8
0
100
AcDbLine
 10
32.94688962312734
 20
-102.1
 30
1523.0
 11
71.22061401821932
 21
-102.1
 31
1523.0
  0
SPLINE
  5
62
330
17
100
AcDbEntity
  8
0
100
AcDbSpline
 70
0
 71
1
 72
4
 73
2
 74
0
 40
0.0
 40
0.0
 40
1.0
 40
1.0
 10
32.94688962272078
 20
-105.90000060000003
 30
1523.0
 10
32.946889622720775
 20
-102.09999939999999
 30
1523.0
  0
LINE
  5
63
330
17
100
AcDbEntity
  8
0
100
AcDbLine
 10
32.94688962312734
 20
-105.9
 30
1523.0
 11
70.89773964080834
 21
-105.9
 31
1523.0
  0
SPLINE
  5
64
330
17
100
AcDbEntity
  8
0
100
AcDbSpline
 70
0
 71
8
 72
32
 73
23
 74
0
 40
0.0
 40
0.0
 40
0.0
 40
0.0
 40
0.0
 40
0.0
 40
0.0
 40
0.0
 40
0.0
 40
0.5012289440273159
 40
0.5012289440273159
 40
0.5012289440273159
 40
0.5012289440273159
 40
0.5012289440273159
 40
0.5012289440273159
 40
0.5012289440273159
 40
0.7869377526676846
 40
0.7869377526676846
 40
0.7869377526676846
 40
0.7869377526676846
 40
0.7869377526676846
 40
0.7869377526676846
 40
0.7869377526676846
 40
1.0
 40
1.0
 40
1.0
 40
1.0
 40
1.0
 40
1.0
 40
1.0
 40
1.0
 40
1.0
 10
68.690539222838
 20
-128.0999999979132
 30
1523.0000000000002
 10
68.84639523386478
 20
-126.71091503720925
 30
1523.0000000000002
 10
68.99968016178826
 20
-125.3215418343018
 30
1523.0000000000002
 10
69.15041273772928
 20
-123.93188800591876
 30
1523.0000000000002
 10
69.29860872160576
 20
-122.54196052836548
 30
1523.0000000000002
 10
69.44428105521459
 20
-121.15176575745147
 30
1523.0000000000002
 10
69.58743997635871
 20
-119.76130944369558
 30
1523.0000000000002
 10
69.72809311250705
 20
-118.37059674521814
 30
1523.0
 10
69.94499476527166
 20
-116.18675941051004
 30
1523.0
 10
70.02292979931794
 20
-115.39380569280776
 30
1523.0
 10
70.1000538793711
 20
-114.60077238807838
 30
1523.0
 10
70.17637059470397
 20
-113.80766081896891
 30
1523.0
 10
70.25188391910525
 20
-113.01447233031702
 30
1523.0
 10
70.32659821087955
 20
-112.22120828915108
 30
1523.0
 10
70.4005182128474
 20
-111.42787008469027
 30
1523.0
 10
70.52818507133195
 20
-110.04278706117385
 30
1523.0
 10
70.58228185572263
 20
-109.45107536186278
 30
1523.0
 10
70.63594122271913
 20
-108.85932451924793
 30
1523.0
 10
70.68916497907547
 20
-108.26753501840464
 30
1523.0
 10
70.74195492121879
 20
-107.67570734065227
 30
1523.0
 10
70.79431283536829
 20
-107.0838419635596
 30
1523.0
 10
70.84624049765213
 20
-106.49193936095011
 30
1523.0
 10
70.89773967422246
 20
-105.90000000290705
 30
1523.0
  0
LINE
  5
65
330
17
100
AcDbEntity
  8
0
100
AcDbLine
 10
32.94688962312734
 20
-128.1
 30
1523.0
 11
68.6905392414373
 21
-128.1
 31
1523.0
  0
SPLINE
  5
66
330
17
100
AcDbEntity
  8
0
100
AcDbSpline
 70
0
 71
1
 72
4
 73
2
 74
0
 40
0.0
 40
0.0
 40
1.0
 40
1.0
 10
32.946889622720775
 20
-131.9000006
 30
1523.0
 10
32.946889622720775
 20
-128.09999939999992
 30
1523.0
  0
LINE
  5
67
330
17
100
AcDbEntity
  8
0
100
AcDbLine
 10
32.94688962312734
 20
-131.9
 30
1523.0
 11
68.25560241530022
 21
-131.9
 31
1523.0
  0
SPLINE
  5
68
330
17
100
AcDbEntity
  8
0
100
AcDbSpline
 70
0
 71
8
 72
25
 73
16
 74
0
 40
0.0
 40
0.0
 40
0.0
 40
0.0
 40
0.0
 40
0.0
 40
0.0
 40
0.0
 40
0.0
 40
0.010000686077044255
 40
0.010000686077044255
 40
0.010000686077044255
 40
0.010000686077044255
 40
0.010000686077044255
 40
0.010000686077044255
 40
0.010000686077044255
 40
1.0
 40
1.0
 40
1.0
 40
1.0
 40
1.0
 40
1.0
 40
1.0
 40
1.0
 40
1.0
 10
65.35129209621994
 20
-154.10000000424125
 30
1522.9999999999989
 10
65.35533271343816
 20
-154.07230389638494
 30
1522.9999999999989
 10
65.35937207032192
 20
-154.04460760246002
 30
1522.9999999999989
 10
65.3634101674337
 20
-154.0169111225951
 30
1522.999999999999
 10
65.36744700533495
 20
-153.98921445691832
 30
1522.9999999999993
 10
65.37148258458609
 20
-153.9615176055574
 30
1522.9999999999995
 10
65.37551690574652
 20
-153.93382056863967
 30
1522.9999999999998
 10
65.37954996937465
 20
-153.90612334629208
 30
1523.0
 10
65.78270297529156
 20
-151.1365725937153
 30
1523.0
 10
66.16950182194057
 20
-148.39293377939907
 30
1523.0
 10
66.54451665681052
 20
-145.6476425255994
 30
1523.0
 10
66.90818414719423
 20
-142.90081488418167
 30
1523.0
 10
67.2608614536098
 20
-140.15255274099792
 30
1523.0
 10
67.60284082009349
 20
-137.40294566225248
 30
1523.0
 10
67.93435881111037
 20
-134.65207206484564
 30
1523.0
 10
68.25560241817504
 20
-131.90000000033555
 30
1523.0
  0
LINE
  5
69
330
17
100
AcDbEntity
  8
0
100
AcDbLine
 10
32.94688962312734
 20
-154.1
 30
1523.0
 11
65.35129206714879
 21
-154.1
 31
1523.0
  0
SPLINE
  5
6A
330
17
100
AcDbEntity
  8
0
100
AcDbSpline
 70
0
 71
1
 72
4
 73
2
 74
0
 40
0.0
 40
0.0
 40
1.0
 40
1.0
 10
32.946889622720775
 20
-157.90000060000003
 30
1523.0
 10
32.946889622720775
 20
-154.0999994
 30
1523.0
  0
LINE
  5
6B
330
17
100
AcDbEntity
  8
0
100
AcDbLine
 10
32.94688962312734
 20
-157.9
 30
1523.0
 11
64.7861221996385
 21
-157.9
 31
1523.0
  0
SPLINE
  5
6C
330
17
100
AcDbEntity
  8
0
100
AcDbSpline
 70
0
 71
8
 72
25
 73
16
 74
0
 40
0.0
 40
0.0
 40
0.0
 40
0.0
 40
0.0
 40
0.0
 40
0.0
 40
0.0
 40
0.0
 40
0.1092285510228854
 40
0.1092285510228854
 40
0.1092285510228854
 40
0.1092285510228854
 40
0.1092285510228854
 40
0.1092285510228854
 40
0.1092285510228854
 40
1.0
 40
1.0
 40
1.0
 40
1.0
 40
1.0
 40
1.0
 40
1.0
 40
1.0
 40
1.0
 10
60.985709867512305
 20
-180.09999999782164
 30
1523.0
 10
61.044256106685424
 20
-179.79809181091503
 30
1523.0
 10
61.102559381003466
 20
-179.4961359342148
 30
1523.0
 10
61.16062221649765
 20
-179.19413297489334
 30
1523.0
 10
61.21844707500824
 20
-178.89208350505504
 30
1523.0
 10
61.27603635690953
 20
-178.58998806234234
 30
1523.0
 10
61.33339240348687
 20
-178.28784715046078
 30
1523.0
 10
61.390517498929206
 20
-177.98566123961425
 30
1523.0
 10
61.91141036431083
 20
-175.21870635507454
 30
1523.0
 10
62.36017611733916
 20
-172.75112316178863
 30
1523.0
 10
62.79490781834825
 20
-170.28099954052155
 30
1523.0
 10
63.21655296952506
 20
-167.8085962546964
 30
1523.0
 10
63.62589027861067
 20
-165.33413010419926
 30
1523.0
 10
64.02357435913191
 20
-162.8577814671985
 30
1523.0
 10
64.41016011699404
 20
-160.3796984077949
 30
1523.0
 10
64.78612220034097
 20
-157.90000000010656
 30
1523.0
  0
LINE
  5
6D
330
17
100
AcDbEntity
  8
0
100
AcDbLine
 10
32.94688962312734
 20
-180.1
 30
1523.0
 11
60.98570987874526
 21
-180.1
 31
1523.0
  0
SPLINE
  5
6E
330
17
100
AcDbEntity
  8
0
100
AcDbSpline
 70
0
 71
1
 72
4
 73
2
 74
0
 40
0.0
 40
0.0
 40
1.0
 40
1.0
 10
32.946889622720775
 20
-183.9000006000001
 30
1523.0
 10
32.94688962272078
 20
-180.09999939999994
 30
1523.0
  0
LINE
  5
6F
330
17
100
AcDbEntity
  8
0
100
AcDbLine
 10
32.94688962312734
 20
-183.9
 30
1523.0
 11
60.230688154013876
 21
-183.9
 31
1523.0
  0
SPLINE
  5
70
330
17
100
AcDbEntity
  8
0
100
AcDbSpline
 70
0
 71
8
 72
25
 73
16
 74
0
 40
0.0
 40
0.0
 40
0.0
 40
0.0
 40
0.0
 40
0.0
 40
0.0
 40
0.0
 40
0.0
 40
0.3706781115238414
 40
0.3706781115238414
 40
0.3706781115238414
 40
0.3706781115238414
 40
0.3706781115238414
 40
0.3706781115238414
 40
0.3706781115238414
 40
1.0
 40
1.0
 40
1.0
 40
1.0
 40
1.0
 40
1.0
 40
1.0
 40
1.0
 40
1.0
 10
54.8053998666025
 20
-206.099999996282
 30
1523.0
 10
55.11200091873949
 20
-205.0861173152351
 30
1523.0
 10
55.41020985226987
 20
-204.06968605721528
 30
1523.0
 10
55.7007854523956
 20
-203.05102446591326
 30
1523.0
 10
55.984340036032414
 20
-202.0303873326028
 30
1523.0
 10
56.2613909378826
 20
-201.00798104650107
 30
1523.0
 10
56.53238424376825
 20
-199.98397047319077
 30
1523.0
 10
56.79770720219057
 20
-198.95848258493123
 30
1523.0
 10
57.49912046293416
 20
-196.18823317898446
 30
1523.0
 10
57.92515609406284
 20
-194.4409925755595
 30
1523.0
 10
58.337483694661856
 20
-192.6904258620101
 30
1523.0
 10
58.73737025926164
 20
-190.93695441007407
 30
1523.0
 10
59.12584274150225
 20
-189.1809217215143
 30
1523.0
 10
59.50375454991564
 20
-187.4226081989988
 30
1523.0
 10
59.87182891302517
 20
-185.66224087848246
 30
1523.0
 10
60.23068818066798
 20
-183.9000000054278
 30
1523.0
  0
LINE
  5
71
330
17
100
AcDbEntity
  8
0
100
AcDbLine
 10
32.94688962312734
 20
-206.1
 30
1523.0
 11
54.80539987889725
 21
-206.1
 31
1523.0
  0
SPLINE
  5
72
330
17
100
AcDbEntity
  8
0
100
AcDbSpline
 70
0
 71
1
 72
4
 73
2
 74
0
 40
0.0
 40
0.0
 40
1.0
 40
1.0
 10
32.94688962272078
 20
-209.90000060000008
 30
1523.0
 10
32.946889622720775
 20
-206.09999939999992
 30
1523.0
  0
LINE
  5
73
330
17
100
AcDbEntity
  8
0
100
AcDbLine
 10
32.94688962312734
 20
-209.9
 30
1523.0
 11
53.59377879429449
 21
-209.9
 31
1523.0
  0
SPLINE
  5
74
330
17
100
AcDbEntity
  8
0
100
AcDbSpline
 70
0
 71
8
 72
88
 73
79
 74
0
 40
0.0
 40
0.0
 40
0.0
 40
0.0
 40
0.0
 40
0.0
 40
0.0
 40
0.0
 40
0.0
 40
0.02006646159896767
 40
0.02006646159896767
 40
0.02006646159896767
 40
0.02006646159896767
 40
0.02006646159896767
 40
0.02006646159896767
 40
0.02006646159896767
 40
0.03784441517956967
 40
0.03784441517956967
 40
0.03784441517956967
 40
0.03784441517956967
 40
0.03784441517956967
 40
0.03784441517956967
 40
0.03784441517956967
 40
0.05249163394797375
 40
0.05249163394797375
 40
0.05249163394797375
 40
0.05249163394797375
 40
0.05249163394797375
 40
0.05249163394797375
 40
0.05249163394797375
 40
0.055217305579798384
 40
0.055217305579798384
 40
0.055217305579798384
 40
0.055217305579798384
 40
0.055217305579798384
 40
0.055217305579798384
 40
0.055217305579798384
 40
0.06425170817181668
 40
0.06425170817181668
 40
0.06425170817181668
 40
0.06425170817181668
 40
0.06425170817181668
 40
0.06425170817181668
 40
0.06425170817181668
 40
0.07270001817560483
 40
0.07270001817560483
 40
0.07270001817560483
 40
0.07270001817560483
 40
0.07270001817560483
 40
0.07270001817560483
 40
0.07270001817560483
 40
0.07935222330287914
 40
0.07935222330287914
 40
0.07935222330287914
 40
0.07935222330287914
 40
0.07935222330287914
 40
0.07935222330287914
 40
0.07935222330287914
 40
0.0911480624190534
 40
0.0911480624190534
 40
0.0911480624190534
 40
0.0911480624190534
 40
0.0911480624190534
 40
0.0911480624190534
 40
0.0911480624190534
 40
0.1067800189195843
 40
0.1067800189195843
 40
0.1067800189195843
 40
0.1067800189195843
 40
0.1067800189195843
 40
0.1067800189195843
 40
0.1067800189195843
 40
0.11358276500269208
 40
0.11358276500269208
 40
0.11358276500269208
 40
0.11358276500269208
 40
0.11358276500269208
 40
0.11358276500269208
 40
0.11358276500269208
 40
0.11685760978763798
 40
0.11685760978763798
 40
0.11685760978763798
 40
0.11685760978763798
 40
0.11685760978763798
 40
0.11685760978763798
 40
0.11685760978763798
 40
0.11685760978763798
 40
0.11685760978763798
 10
16.226403675665736
 20
-210.85710008046206
 30
1523.0
 10
16.581652757222955
 20
-212.07415047574142
 30
1523.0
 10
16.978452395250493
 20
-213.2789184190944
 30
1523.0
 10
17.41786924395725
 20
-214.4694649143757
 30
1523.0
 10
17.900962842397554
 20
-215.6434772631386
 30
1523.0
 10
18.428775198711847
 20
-216.7982722635108
 30
1523.0
 10
19.00231613031389
 20
-217.93080105863228
 30
1523.0
 10
19.622592175544504
 20
-219.03763383318955
 30
1523.0
 10
20.882663239520316
 20
-221.06931264346338
 30
1523.0
 10
21.511976545955083
 20
-222.0002146725289
 30
1523.0
 10
22.179507362949916
 20
-222.9051033270386
 30
1523.0
 10
22.88596899084387
 20
-223.78081853612503
 30
1523.0
 10
23.63190619668774
 20
-224.62357484856042
 30
1523.0
 10
24.41765546029593
 20
-225.42899317996628
 30
1523.0
 10
25.243355137903258
 20
-226.1920879990999
 30
1523.0
 10
26.822301358900617
 20
-227.49631183189445
 30
1523.0
 10
27.562433261955444
 20
-228.05264310869842
 30
1523.0
 10
28.32944876134961
 20
-228.57302046887162
 30
1523.0
 10
29.12290149808596
 20
-229.05364158935856
 30
1523.0
 10
29.94182096958317
 20
-229.49018278316692
 30
1523.0
 10
30.784648571351518
 20
-229.87791205716536
 30
1523.0
 10
31.64915099201858
 20
-230.21184748789855
 30
1523.0
 10
32.69661212884243
 20
-230.5382473603961
 30
1523.0
 10
32.861581752059976
 20
-230.58743204782814
 30
1523.0
 10
33.02716371504545
 20
-230.63454988180592
 30
1523.0
 10
33.19333962735182
 20
-230.67954744709922
 30
1523.0
 10
33.360091470983
 20
-230.72235984809848
 30
1523.0
 10
33.527401600393844
 20
-230.76291070881481
 30
1523.0
 10
33.69525274249015
 20
-230.80111217287978
 30
1523.0
 10
34.421717905427414
 20
-230.955369480116
 30
1523.0
 10
34.98592618487296
 20
-231.0471882508905
 30
1523.0
 10
35.55490693662899
 20
-231.10920346952068
 30
1523.0
 10
36.12690370589967
 20
-231.13840315346621
 30
1523.0
 10
36.69974748878977
 20
-231.13213643787813
 30
1523.0
 10
37.27085507316242
 20
-231.0884819564509
 30
1523.0
 10
37.83722497001547
 20
-231.0066735834736
 30
1523.0
 10
38.91741886303155
 20
-230.77611154888746
 30
1523.0
 10
39.43258756545419
 20
-230.63197698835876
 30
1523.0
 10
39.93818850043186
 20
-230.455703957214
 30
1523.0
 10
40.4322190532417
 20
-230.24882852562857
 30
1523.0
 10
40.91328325171789
 20
-230.01353943034457
 30
1523.0
 10
41.38046815557727
 20
-229.7523928660156
 30
1523.0
 10
41.83324270336319
 20
-229.46807565047064
 30
1523.0
 10
42.61638488011998
 20
-228.9232241925512
 30
1523.0
 10
42.952440727287666
 20
-228.67039406258084
 30
1523.0
 10
43.27960485357335
 20
-228.4059218517531
 30
1523.0
 10
43.598027426089615
 20
-228.13092266422484
 30
1523.0
 10
43.90793290169842
 20
-227.84642930604647
 30
1523.0
 10
44.20960011173527
 20
-227.55336899495214
 30
1523.0
 10
44.50334954009701
 20
-227.25254865089963
 30
1523.0
 10
45.297013217290086
 20
-226.3986737980607
 30
1523.0
 10
45.78048498527197
 20
-225.83068409146978
 30
1523.0
 10
46.24209591659876
 20
-225.24437490785212
 30
1523.0
 10
46.68368950513847
 20
-224.64278388096085
 30
1523.0
 10
47.10692198681483
 20
-224.0283748464626
 30
1523.0
 10
47.51332033414891
 20
-223.4030807194735
 30
1523.0
 10
47.90431250131065
 20
-222.76832579493333
 30
1523.0
 10
48.7807856179088
 20
-221.27256987844206
 30
1523.0
 10
49.25535890438808
 20
-220.40560996415442
 30
1523.0
 10
49.70796318659472
 20
-219.52675144089986
 30
1523.0
 10
50.14089219902217
 20
-218.6380025619099
 30
1523.0
 10
50.55604224671012
 20
-217.74094399319682
 30
1523.0
 10
50.9550433247491
 20
-216.83679329977386
 30
1523.0
 10
51.33931334224021
 20
-215.926431466815
 30
1523.0
 10
51.87149320069399
 20
-214.61181198362954
 30
1523.0
 10
52.032632722261745
 20
-214.20639250315506
 30
1523.0
 10
52.19353763974845
 20
-213.79412425786708
 30
1523.0
 10
52.35420367112687
 20
-213.37495344381318
 30
1523.0
 10
52.51462653437037
 20
-212.94882625703838
 30
1523.0
 10
52.674801947453
 20
-212.5156888935849
 30
1523.0
 10
52.83472562834934
 20
-212.07548754949238
 30
1523.0
 10
53.07125737597791
 20
-211.41282880677792
 30
1522.9999999999998
 10
53.14754821343409
 20
-211.19728401279792
 30
1523.0
 10
53.22327485762777
 20
-210.98153934418076
 30
1523.0
 10
53.298446578966086
 20
-210.76560004832533
 30
1523.0
 10
53.37307286803867
 20
-210.54947131470647
 30
1523.0
 10
53.447163435617654
 20
-210.33315827487485
 30
1523.0
 10
53.520728212657716
 20
-210.11666600245712
 30
1523.0
 10
53.593777350295994
 20
-209.8999995131557
 30
1523.0
  0
SPLINE
  5
75
330
17
100
AcDbEntity
  8
0
100
AcDbSpline
 70
0
 71
8
 72
375
 73
366
 74
0
 40
0.0
 40
0.0
 40
0.0
 40
0.0
 40
0.0
 40
0.0
 40
0.0
 40
0.0
 40
0.0
 40
0.0014907619878943355
 40
0.0014907619878943355
 40
0.0014907619878943355
 40
0.0014907619878943355
 40
0.0014907619878943355
 40
0.0014907619878943355
 40
0.0014907619878943355
 40
0.0030351272856767144
 40
0.0030351272856767144
 40
0.0030351272856767144
 40
0.0030351272856767144
 40
0.0030351272856767144
 40
0.0030351272856767144
 40
0.0030351272856767144
 40
0.005119191859748844
 40
0.005119191859748844
 40
0.005119191859748844
 40
0.005119191859748844
 40
0.005119191859748844
 40
0.005119191859748844
 40
0.005119191859748844
 40
0.007203256433810811
 40
0.007203256433810811
 40
0.007203256433810811
 40
0.007203256433810811
 40
0.007203256433810811
 40
0.007203256433810811
 40
0.007203256433810811
 40
0.010387214918560875
 40
0.010387214918560875
 40
0.010387214918560875
 40
0.010387214918560875
 40
0.010387214918560875
 40
0.010387214918560875
 40
0.010387214918560875
 40
0.015774912218723413
 40
0.015774912218723413
 40
0.015774912218723413
 40
0.015774912218723413
 40
0.015774912218723413
 40
0.015774912218723413
 40
0.015774912218723413
 40
0.026967251715188593
 40
0.026967251715188593
 40
0.026967251715188593
 40
0.026967251715188593
 40
0.026967251715188593
 40
0.026967251715188593
 40
0.026967251715188593
 40
0.04902501704710844
 40
0.04902501704710844
 40
0.04902501704710844
 40
0.04902501704710844
 40
0.04902501704710844
 40
0.04902501704710844
 40
0.04902501704710844
 40
0.06335834306675092
 40
0.06335834306675092
 40
0.06335834306675092
 40
0.06335834306675092
 40
0.06335834306675092
 40
0.06335834306675092
 40
0.06335834306675092
 40
0.0789265644469388
 40
0.0789265644469388
 40
0.0789265644469388
 40
0.0789265644469388
 40
0.0789265644469388
 40
0.0789265644469388
 40
0.0789265644469388
 40
0.12804502991563874
 40
0.12804502991563874
 40
0.12804502991563874
 40
0.12804502991563874
 40
0.12804502991563874
 40
0.12804502991563874
 40
0.12804502991563874
 40
0.2019277919345533
 40
0.2019277919345533
 40
0.2019277919345533
 40
0.2019277919345533
 40
0.2019277919345533
 40
0.2019277919345533
 40
0.2019277919345533
 40
0.2584004736210109
 40
0.2584004736210109
 40
0.2584004736210109
 40
0.2584004736210109
 40
0.2584004736210109
 40
0.2584004736210109
 40
0.2584004736210109
 40
0.3717695258778087
 40
0.3717695258778087
 40
0.3717695258778087
 40
0.3717695258778087
 40
0.3717695258778087
 40
0.3717695258778087
 40
0.3717695258778087
 40
0.42850219070261836
 40
0.42850219070261836
 40
0.42850219070261836
 40
0.42850219070261836
 40
0.42850219070261836
 40
0.42850219070261836
 40
0.42850219070261836
 40
0.46009504049911054
 40
0.46009504049911054
 40
0.46009504049911054
 40
0.46009504049911054
 40
0.46009504049911054
 40
0.46009504049911054
 40
0.46009504049911054
 40
0.4724589599398278
 40
0.4724589599398278
 40
0.4724589599398278
 40
0.4724589599398278
 40
0.4724589599398278
 40
0.4724589599398278
 40
0.4724589599398278
 40
0.48440810729031497
 40
0.48440810729031497
 40
0.48440810729031497
 40
0.48440810729031497
 40
0.48440810729031497
 40
0.48440810729031497
 40
0.48440810729031497
 40
0.49823357478917
 40
0.49823357478917
 40
0.49823357478917
 40
0.49823357478917
 40
0.49823357478917
 40
0.49823357478917
 40
0.49823357478917
 40
0.5053112024256193
 40
0.5053112024256193
 40
0.5053112024256193
 40
0.5053112024256193
 40
0.5053112024256193
 40
0.5053112024256193
 40
0.5053112024256193
 40
0.5092060418292755
 40
0.5092060418292755
 40
0.5092060418292755
 40
0.5092060418292755
 40
0.5092060418292755
 40
0.5092060418292755
 40
0.5092060418292755
 40
0.5131008812329375
 40
0.5131008812329375
 40
0.5131008812329375
 40
0.5131008812329375
 40
0.5131008812329375
 40
0.5131008812329375
 40
0.5131008812329375
 40
0.5169957206366125
 40
0.5169957206366125
 40
0.5169957206366125
 40
0.5169957206366125
 40
0.5169957206366125
 40
0.5169957206366125
 40
0.5169957206366125
 40
0.5198784928130755
 40
0.5198784928130755
 40
0.5198784928130755
 40
0.5198784928130755
 40
0.5198784928130755
 40
0.5198784928130755
 40
0.5198784928130755
 40
0.5214980563986578
 40
0.5214980563986578
 40
0.5214980563986578
 40
0.5214980563986578
 40
0.5214980563986578
 40
0.5214980563986578
 40
0.5214980563986578
 40
0.5230373748143581
 40
0.5230373748143581
 40
0.5230373748143581
 40
0.5230373748143581
 40
0.5230373748143581
 40
0.5230373748143581
 40
0.5230373748143581
 40
0.5252714452238687
 40
0.5252714452238687
 40
0.5252714452238687
 40
0.5252714452238687
 40
0.5252714452238687
 40
0.5252714452238687
 40
0.5252714452238687
 40
0.5270297274645461
 40
0.5270297274645461
 40
0.5270297274645461
 40
0.5270297274645461
 40
0.5270297274645461
 40
0.5270297274645461
 40
0.5270297274645461
 40
0.5287880097052182
 40
0.5287880097052182
 40
0.5287880097052182
 40
0.5287880097052182
 40
0.5287880097052182
 40
0.5287880097052182
 40
0.5287880097052182
 40
0.5315510246548358
 40
0.5315510246548358
 40
0.5315510246548358
 40
0.5315510246548358
 40
0.5315510246548358
 40
0.5315510246548358
 40
0.5315510246548358
 40
0.534565222781691
 40
0.534565222781691
 40
0.534565222781691
 40
0.534565222781691
 40
0.534565222781691
 40
0.534565222781691
 40
0.534565222781691
 40
0.5397064972928004
 40
0.5397064972928004
 40
0.5397064972928004
 40
0.5397064972928004
 40
0.5397064972928004
 40
0.5397064972928004
 40
0.5397064972928004
 40
0.5498566408078108
 40
0.5498566408078108
 40
0.5498566408078108
 40
0.5498566408078108
 40
0.5498566408078108
 40
0.5498566408078108
 40
0.5498566408078108
 40
0.5698604382362743
 40
0.5698604382362743
 40
0.5698604382362743
 40
0.5698604382362743
 40
0.5698604382362743
 40
0.5698604382362743
 40
0.5698604382362743
 40
0.5828591153952503
 40
0.5828591153952503
 40
0.5828591153952503
 40
0.5828591153952503
 40
0.5828591153952503
 40
0.5828591153952503
 40
0.5828591153952503
 40
0.5969778034117976
 40
0.5969778034117976
 40
0.5969778034117976
 40
0.5969778034117976
 40
0.5969778034117976
 40
0.5969778034117976
 40
0.5969778034117976
 40
0.6415265887702905
 40
0.6415265887702905
 40
0.6415265887702905
 40
0.6415265887702905
 40
0.6415265887702905
 40
0.6415265887702905
 40
0.6415265887702905
 40
0.7085533900709975
 40
0.7085533900709975
 40
0.7085533900709975
 40
0.7085533900709975
 40
0.7085533900709975
 40
0.7085533900709975
 40
0.7085533900709975
 40
0.7598046123652652
 40
0.7598046123652652
 40
0.7598046123652652
 40
0.7598046123652652
 40
0.7598046123652652
 40
0.7598046123652652
 40
0.7598046123652652
 40
0.8627494797097733
 40
0.8627494797097733
 40
0.8627494797097733
 40
0.8627494797097733
 40
0.8627494797097733
 40
0.8627494797097733
 40
0.8627494797097733
 40
0.9142871849005203
 40
0.9142871849005203
 40
0.9142871849005203
 40
0.9142871849005203
 40
0.9142871849005203
 40
0.9142871849005203
 40
0.9142871849005203
 40
0.9429913128819216
 40
0.9429913128819216
 40
0.9429913128819216
 40
0.9429913128819216
 40
0.9429913128819216
 40
0.9429913128819216
 40
0.9429913128819216
 40
0.9542250662395084
 40
0.9542250662395084
 40
0.9542250662395084
 40
0.9542250662395084
 40
0.9542250662395084
 40
0.9542250662395084
 40
0.9542250662395084
 40
0.9650819581439306
 40
0.9650819581439306
 40
0.9650819581439306
 40
0.9650819581439306
 40
0.9650819581439306
 40
0.9650819581439306
 40
0.9650819581439306
 40
0.9776436510679881
 40
0.9776436510679881
 40
0.9776436510679881
 40
0.9776436510679881
 40
0.9776436510679881
 40
0.9776436510679881
 40
0.9776436510679881
 40
0.9840743073516627
 40
0.9840743073516627
 40
0.9840743073516627
 40
0.9840743073516627
 40
0.9840743073516627
 40
0.9840743073516627
 40
0.9840743073516627
 40
0.9876131102180556
 40
0.9876131102180556
 40
0.9876131102180556
 40
0.9876131102180556
 40
0.9876131102180556
 40
0.9876131102180556
 40
0.9876131102180556
 40
0.9911519130844486
 40
0.9911519130844486
 40
0.9911519130844486
 40
0.9911519130844486
 40
0.9911519130844486
 40
0.9911519130844486
 40
0.9911519130844486
 40
0.9946907159508381
 40
0.9946907159508381
 40
0.9946907159508381
 40
0.9946907159508381
 40
0.9946907159508381
 40
0.9946907159508381
 40
0.9946907159508381
 40
0.9973096410517387
 40
0.9973096410517387
 40
0.9973096410517387
 40
0.9973096410517387
 40
0.9973096410517387
 40
0.9973096410517387
 40
0.9973096410517387
 40
0.9983481538531948
 40
0.9983481538531948
 40
0.9983481538531948
 40
0.9983481538531948
 40
0.9983481538531948
 40
0.9983481538531948
 40
0.9983481538531948
 40
1.0
 40
1.0
 40
1.0
 40
1.0
 40
1.0
 40
1.0
 40
1.0
 40
1.0
 40
1.0
 10
16.226403675665757
 20
210.85710008046203
 30
1523.0
 10
16.22626039263396
 20
210.85724423750457
 30
1523.0
 10
16.22678143819099
 20
210.85645269249386
 30
1523.0
 10
16.225872373582902
 20
210.8587100936228
 30
1523.0
 10
16.226858541059528
 20
210.85503879910755
 30
1523.0
 10
16.226151814425208
 20
210.85330712675432
 30
1523.0
 10
16.226427758982222
 20
210.85026959345385
 30
1523.0
 10
16.226373852735954
 20
210.85056140192188
 30
1523.0
 10
16.226293399029583
 20
210.83292192360068
 30
1523.0
 10
16.22623819329742
 20
210.8208180646509
 30
1523.0
 10
16.226170935157104
 20
210.80607171461338
 30
1523.0
 10
16.226096698086515
 20
210.78979523412693
 30
1523.0
 10
16.226017965012844
 20
210.7725330043927
 30
1523.0
 10
16.225936929426997
 20
210.75476594908952
 30
1523.0
 10
16.22585413607161
 20
210.73661350260056
 30
1523.0
 10
16.225654573226105
 20
210.69285934078877
 30
1523.0
 10
16.225524173022706
 20
210.66426909100932
 30
1523.0
 10
16.225376728934215
 20
210.6319419687449
 30
1523.0
 10
16.22521097418538
 20
210.59560023347322
 30
1523.0
 10
16.225025642000965
 20
210.55496614467185
 30
1523.0
 10
16.22481946560573
 20
210.5097619618181
 30
1523.0
 10
16.224591178224426
 20
210.45970994438943
 30
1523.0
 10
16.224087847939177
 20
210.34935475933693
 30
1523.0
 10
16.223812805035244
 20
210.28905159171313
 30
1523.0
 10
16.223513117594745
 20
210.22334510846932
 30
1523.0
 10
16.223187518842455
 20
210.15195756908318
 30
1523.0
 10
16.22283474200312
 20
210.0746112330322
 30
1523.0
 10
16.222453520301492
 20
209.9910283597937
 30
1523.0
 10
16.222042586962335
 20
209.9009312088451
 30
1523.0
 10
16.220925538417816
 20
209.6560182710457
 30
1523.0
 10
16.22024934430616
 20
209.50776268517762
 30
1523.0
 10
16.21957247284063
 20
209.35935858945055
 30
1523.0
 10
16.218895124645076
 20
209.21084997064435
 30
1523.0
 10
16.218217434086213
 20
209.06226628866673
 30
1523.0
 10
16.21753948686527
 20
208.91362633351892
 30
1523.0
 10
16.216861309069106
 20
208.76493582474797
 30
1523.0
 10
16.21503492375213
 20
208.36450077138295
 30
1523.0
 10
16.213886418278303
 20
208.11269090058528
 30
1523.0
 10
16.21273753856536
 20
207.86079897783233
 30
1523.0
 10
16.211588381148903
 20
207.60884616859198
 30
1523.0
 10
16.21043901264166
 20
207.35684707768746
 30
1523.0
 10
16.20928947757104
 20
207.10481146773418
 30
1523.0
 10
16.20813979737763
 20
206.85274403962376
 30
1523.0
 10
16.204601356008595
 20
206.07694062877545
 30
1523.0
 10
16.202212216494
 20
205.5531216952117
 30
1523.0
 10
16.199822727464205
 20
205.02922613041306
 30
1523.0
 10
16.19743298495066
 20
204.5052749893099
 30
1523.0
 10
16.195043054116105
 20
203.9812825588158
 30
1523.0
 10
16.192652977569374
 20
203.45725818090168
 30
1523.0
 10
16.190262772981917
 20
202.93320573007486
 30
1523.0
 10
16.18316159940401
 20
201.37627314077616
 30
1523.0
 10
16.178450349060093
 20
200.34333131555326
 30
1523.0
 10
16.173738823105328
 20
199.3103290626406
 30
1523.0
 10
16.16902709702567
 20
198.2772829323364
 30
1523.0
 10
16.16431522206628
 20
197.24420416014596
 30
1523.0
 10
16.15960323176987
 20
196.21110010031154
 30
1523.0
 10
16.15489114018928
 20
195.17797383391485
 30
1523.0
 10
16.147116926574483
 20
193.47347718976872
 30
1523.0
 10
16.14405496859849
 20
192.80212083330372
 30
1523.0
 10
16.14099235414059
 20
192.13075735769073
 30
1523.0
 10
16.13793076384196
 20
191.45938805292428
 30
1523.0
 10
16.134870696152454
 20
190.7880136622624
 30
1523.0
 10
16.131812129412992
 20
190.11663463510075
 30
1523.0
 10
16.12875587742714
 20
189.44525159281739
 30
1523.0
 10
16.122385193857273
 20
188.04463437535966
 30
1523.0
 10
16.118998569270932
 20
187.2994225281486
 30
1523.0
 10
16.115544117947945
 20
186.53850728990622
 30
1523.0
 10
16.112023745443693
 20
185.76216666533347
 30
1523.0
 10
16.10843935731354
 20
184.970678659131
 30
1523.0
 10
16.104792859112862
 20
184.16432127599938
 30
1523.0
 10
16.10108615639703
 20
183.3433725206389
 30
1523.0
 10
16.085442398614504
 20
179.8728193944583
 30
1523.0
 10
16.073625431460375
 20
177.23749916755295
 30
1523.0
 10
16.06187900331691
 20
174.60215784218843
 30
1523.0
 10
16.050208395858107
 20
171.96680020409985
 30
1523.0
 10
16.03861795086554
 20
169.331429614276
 30
1523.0
 10
16.02711164595336
 20
166.69604846431574
 30
1523.0
 10
16.015692997473693
 20
164.0606581254919
 30
1523.0
 10
15.987327139487322
 20
157.46115869320028
 30
1523.0
 10
15.97049509452084
 20
153.4970403222748
 30
1523.0
 10
15.953881430872443
 20
149.53290834330656
 30
1523.0
 10
15.937497786760566
 20
145.56876550601714
 30
1523.0
 10
15.921356498082153
 20
141.60461386386234
 30
1523.0
 10
15.905471065419846
 20
137.64045499118214
 30
1523.0
 10
15.88985648339577
 20
133.67629002481988
 30
1523.0
 10
15.862814913488364
 20
126.68208523255332
 30
1523.0
 10
15.85126818042866
 20
123.65204770163149
 30
1523.0
 10
15.839897370695416
 20
120.62200765927945
 30
1523.0
 10
15.828710820862526
 20
117.59196550604672
 30
1523.0
 10
15.817717732579464
 20
114.56192160451435
 30
1523.0
 10
15.806928388553485
 20
111.53187628974213
 30
1523.0
 10
15.796354368531864
 20
108.50182987971594
 30
1523.0
 10
15.765239940425788
 20
99.38895522993926
 30
1523.0
 10
15.74539367982978
 20
93.3061250966177
 30
1523.0
 10
15.726363781398506
 20
87.22329506351139
 30
1523.0
 10
15.708069849047648
 20
81.14046802326848
 30
1523.0
 10
15.690446850738187
 20
75.05764762436355
 30
1523.0
 10
15.673440500754735
 20
68.97483827689884
 30
1523.0
 10
15.657004433218152
 20
62.892045748539616
 30
1523.0
 10
15.633133728725308
 20
53.76531362900902
 30
1523.0
 10
15.62530424437972
 20
50.72135488120864
 30
1523.0
 10
15.61760118342092
 20
47.67740415791349
 30
1523.0
 10
15.61001933183746
 20
44.633462864584004
 30
1523.0
 10
15.602553253088159
 20
41.589533350981824
 30
1523.0
 10
15.595197344600383
 20
38.54561887768368
 30
1523.0
 10
15.587945274315478
 20
35.50172405045555
 30
1523.0
 10
15.5768017126827
 20
30.762811100184106
 30
1523.0
 10
15.572845097324539
 20
29.06777506797745
 30
1523.0
 10
15.568916071846845
 20
27.37274913015906
 30
1523.0
 10
15.565012817426911
 20
25.677734729082005
 30
1523.0
 10
15.561132709181003
 20
23.98273475555318
 30
1523.0
 10
15.557272545358018
 20
22.287753367664102
 30
1523.0
 10
15.553427872529346
 20
20.59279658635036
 30
1523.0
 10
15.54808747016741
 20
18.23456471910299
 30
1523.0
 10
15.546625349055782
 20
17.58849999959
 30
1523.0
 10
15.54520299071551
 20
16.959715867442412
 30
1523.0
 10
15.543817830075495
 20
16.348145153557937
 30
1523.0
 10
15.542473029683546
 20
15.753616864309038
 30
1523.0
 10
15.541165109085535
 20
15.175859252286045
 30
1523.0
 10
15.539894673862182
 20
14.614497227556114
 30
1523.0
 10
15.537467149687037
 20
13.541908293283976
 30
1523.0
 10
15.536274110691519
 20
13.014770213783612
 30
1523.0
 10
15.535081090042214
 20
12.487640237442877
 30
1523.0
 10
15.533888089969578
 20
11.960519349560517
 30
1523.0
 10
15.532695113362402
 20
11.433408826284948
 30
1523.0
 10
15.531502163876953
 20
10.906310282830328
 30
1523.0
 10
15.530309246132788
 20
10.37922575997841
 30
1523.0
 10
15.527736173326447
 20
9.242326865865273
 30
1523.0
 10
15.526356039805297
 20
8.63252201086469
 30
1523.0
 10
15.524975966417017
 20
8.02274371844588
 30
1523.0
 10
15.523595961492507
 20
7.412995668867808
 30
1523.0
 10
15.522216044970715
 20
6.803286670920752
 30
1523.0
 10
15.520836247318835
 20
6.193630184978311
 30
1523.0
 10
15.519456613413334
 20
5.584046037696176
 30
1523.0
 10
15.51737107406083
 20
4.662561175414023
 30
1523.0
 10
15.516665003309711
 20
4.350587432821797
 30
1523.0
 10
15.515959010194031
 20
4.038647988628586
 30
1523.0
 10
15.515253105204959
 20
3.726747477788564
 30
1523.0
 10
15.514547314618543
 20
3.414897509518383
 30
1523.0
 10
15.513841678777911
 20
3.10311590832238
 30
1523.0
 10
15.513136257266096
 20
2.7914289994251895
 30
1523.0
 10
15.512043136122712
 20
2.308438963730681
 30
1523.0
 10
15.511675554996051
 20
2.146025103315389
 30
1523.0
 10
15.511327784259077
 20
1.9923643603108812
 30
1523.0
 10
15.51099919591652
 20
1.847179258372636
 30
1523.0
 10
15.510689161973083
 20
1.7101923211561956
 30
1523.0
 10
15.510397054433495
 20
1.5811260723171612
 30
1523.0
 10
15.510122245302474
 20
1.4597030355111968
 30
1523.0
 10
15.50960596786702
 20
1.2315884332766986
 30
1523.0
 10
15.509364499562576
 20
1.1248968678479943
 30
1523.0
 10
15.509139073676149
 20
1.0252935617634538
 30
1523.0
 10
15.508929062212445
 20
0.9325010386786304
 30
1523.0
 10
15.508733837176193
 20
0.8462418222490881
 30
1523.0
 10
15.508552770572116
 20
0.7662384361304019
 30
1523.0
 10
15.50838523440493
 20
0.6922134039781583
 30
1523.0
 10
15.508075966953777
 20
0.5555650949175259
 30
1523.0
 10
15.507934235669808
 20
0.4929418180093685
 30
1523.0
 10
15.507804778832172
 20
0.4357419423788216
 30
1523.0
 10
15.50768696844559
 20
0.38368799168131523
 30
1523.0
 10
15.507580176514784
 20
0.33650248957236994
 30
1523.0
 10
15.507483775044468
 20
0.293907959707598
 30
1523.0
 10
15.507397136039367
 20
0.2556269257427033
 30
1523.0
 10
15.507262266387343
 20
0.19603540420191834
 30
1523.0
 10
15.507206214284302
 20
0.171269044374462
 30
1523.0
 10
15.507150804151687
 20
0.14678633436113842
 30
1523.0
 10
15.507095949565088
 20
0.12254908737253345
 30
1523.0
 10
15.507042165009514
 20
0.0987846257865641
 30
1523.0
 10
15.506990600050681
 20
0.07600087907631092
 30
1523.0
 10
15.506943234999468
 20
0.055072837106635575
 30
1523.0
 10
15.506880991781262
 20
0.02757093045910608
 30
1523.0
 10
15.506860787776128
 20
0.018643872249761273
 30
1523.0
 10
15.506844219939259
 20
0.011323436831752076
 30
1523.0
 10
15.506832164649904
 20
0.005996848928475629
 30
1523.0
 10
15.50682464459336
 20
0.0026741331482504904
 30
1523.0
 10
15.506820815558461
 20
0.0009822802112253726
 30
1523.0
 10
15.506819278870276
 20
0.00030329334889600545
 30
1523.0
 10
15.506818302912627
 20
-0.00012793731220384075
 30
1523.0
 10
15.5068189739667
 20
7.189389238249078e-05
 30
1523.0
 10
15.506817938504028
 20
0.00021123662409650024
 30
1523.0
 10
15.506818740909988
 20
-0.00015275248185275814
 30
1523.0
 10
15.506822313959482
 20
-0.0015358575527955054
 30
1523.0
 10
15.506828485488018
 20
-0.004411218933334737
 30
1523.0
 10
15.50683898905623
 20
-0.009012186981067316
 30
1523.0
 10
15.506873253175295
 20
-0.024151659677897896
 30
1523.0
 10
15.506900610997086
 20
-0.036239603399252474
 30
1523.0
 10
15.506933946424084
 20
-0.05096872089114868
 30
1523.0
 10
15.506970747563624
 20
-0.06722914420458892
 30
1523.0
 10
15.507009781527024
 20
-0.0844761276364352
 30
1523.0
 10
15.50704996115438
 20
-0.1022293151040401
 30
1523.0
 10
15.507091013894902
 20
-0.12036828169661362
 30
1523.0
 10
15.507166277544874
 20
-0.15362317990619093
 30
1523.0
 10
15.50720208604627
 20
-0.16944500082134487
 30
1523.0
 10
15.507240680646653
 20
-0.18649784565530836
 30
1523.0
 10
15.50728218600018
 20
-0.20483679217794387
 30
1523.0
 10
15.507326726761004
 20
-0.22451691815904798
 30
1523.0
 10
15.507374427583281
 20
-0.24559330136835097
 30
1523.0
 10
15.507425413121174
 20
-0.26812101957551704
 30
1523.0
 10
15.507534202936482
 20
-0.31618928152468584
 30
1523.0
 10
15.507592007213907
 20
-0.3417298252671818
 30
1523.0
 10
15.507653345515253
 20
-0.36883185954715514
 30
1523.0
 10
15.507718342494675
 20
-0.39755046213421674
 30
1523.0
 10
15.507787122806327
 20
-0.42794071079806684
 30
1523.0
 10
15.50785981110437
 20
-0.46005768330849356
 30
1523.0
 10
15.507936532042955
 20
-0.4939564574353739
 30
1523.0
 10
15.508144504642832
 20
-0.5858481378979264
 30
1523.0
 10
15.50828186498205
 20
-0.6465401323110639
 30
1523.0
 10
15.50842997501017
 20
-0.7119818216270002
 30
1523.0
 10
15.508589318443452
 20
-0.7823869332846427
 30
1523.0
 10
15.508760378998172
 20
-0.8579691947228919
 30
1523.0
 10
15.508943640390608
 20
-0.9389423333806417
 30
1523.0
 10
15.509139586337026
 20
-1.025520076696779
 30
1523.0
 10
15.509576825153697
 20
-1.2187118707429787
 30
1523.0
 10
15.509820621083595
 20
-1.3264318854256834
 30
1523.0
 10
15.510080716338665
 20
-1.4413536725025582
 30
1523.0
 10
15.510357738914179
 20
-1.5637547083179377
 30
1523.0
 10
15.510652316805421
 20
-1.6939124692162293
 30
1523.0
 10
15.510965078007674
 20
-1.8321044315419133
 30
1523.0
 10
15.511296650516215
 20
-1.9786080716395416
 30
1523.0
 10
15.512246378136117
 20
-2.3982404203859566
 30
1523.0
 10
15.512845421343464
 20
-2.662924625061237
 30
1523.0
 10
15.513444685206142
 20
-2.9277063182558365
 30
1523.0
 10
15.514044108946184
 20
-3.1925586466604443
 30
1523.0
 10
15.514643651310857
 20
-3.45746338373581
 30
1523.0
 10
15.515243285345003
 20
-3.7224086200903486
 30
1523.0
 10
15.515842999986036
 20
-3.987389468280707
 30
1523.0
 10
15.517626935544978
 20
-4.775612264386851
 30
1523.0
 10
15.518811334180524
 20
-5.2989327257137475
 30
1523.0
 10
15.51999590644181
 20
-5.8223298919122435
 30
1523.0
 10
15.521180604628066
 20
-6.3457826883293365
 30
1523.0
 10
15.522365396370013
 20
-6.869276814001147
 30
1523.0
 10
15.523550260501429
 20
-7.392802917728886
 30
1523.0
 10
15.524735188244634
 20
-7.916357121853228
 30
1523.0
 10
15.528255545365164
 20
-9.471808719313053
 30
1523.0
 10
15.530591114525249
 20
-10.503767859011482
 30
1523.0
 10
15.53292682061846
 20
-11.535787485085912
 30
1523.0
 10
15.535262626144172
 20
-12.56785103071158
 30
1523.0
 10
15.537598505645434
 20
-13.599947249781955
 30
1523.0
 10
15.539934442458906
 20
-14.6320687812225
 30
1523.0
 10
15.542270429600874
 20
-15.664212540444755
 30
1523.0
 10
15.546124447309486
 20
-17.36709018951488
 30
1523.0
 10
15.547642546301642
 20
-18.037810043739142
 30
1523.0
 10
15.549160036828154
 20
-18.708537028272943
 30
1523.0
 10
15.550678592314705
 20
-19.379269840643957
 30
1523.0
 10
15.552198706599357
 20
-20.050007733677038
 30
1523.0
 10
15.553720354913864
 20
-20.720750257749337
 30
1523.0
 10
15.555244347559576
 20
-21.391496785296997
 30
1523.0
 10
15.558428836508206
 20
-22.790791416172137
 30
1523.0
 10
15.560126147550836
 20
-23.535304619866682
 30
1523.0
 10
15.561862772511104
 20
-24.295509422643157
 30
1523.0
 10
15.563638722173968
 20
-25.071128612335425
 30
1523.0
 10
15.565454007324401
 20
-25.86188497677723
 30
1523.0
 10
15.567308638747352
 20
-26.66750130380217
 30
1523.0
 10
15.56920262722778
 20
-27.487700381243695
 30
1523.0
 10
15.577236314951667
 20
-30.955322674833837
 30
1523.0
 10
15.583398700311939
 20
-33.588469195552506
 30
1523.0
 10
15.589631839832858
 20
-36.2216363635066
 30
1523.0
 10
15.595940981657595
 20
-38.85481935064702
 30
1523.0
 10
15.602330441512805
 20
-41.48801476181819
 30
1523.0
 10
15.60880417612208
 20
-44.12122017523247
 30
1523.0
 10
15.615365686060763
 20
-46.754434194346246
 30
1523.0
 10
15.632028188955957
 20
-53.34952473826537
 30
1523.0
 10
15.642244579824565
 20
-57.31140977885997
 30
1523.0
 10
15.652679646654413
 20
-61.27330696866321
 30
1523.0
 10
15.663344984444517
 20
-65.23521347346377
 30
1523.0
 10
15.674252883962662
 20
-69.19712715309365
 30
1523.0
 10
15.68541679614825
 20
-73.15904633981997
 30
1523.0
 10
15.696851658251433
 20
-77.12096979365992
 30
1523.0
 10
15.717538280479413
 20
-84.11233531549414
 30
1523.0
 10
15.726670407277519
 20
-87.14177589692173
 30
1523.0
 10
15.735978573841292
 20
-90.17121780334232
 30
1523.0
 10
15.7454710897056
 20
-93.20066057724013
 30
1523.0
 10
15.755157124487512
 20
-96.23010379348847
 30
1523.0
 10
15.765046921742083
 20
-99.25954704745298
 30
1523.0
 10
15.775152012818154
 20
-102.28898994309479
 30
1523.0
 10
15.806241469046507
 20
-111.40346781410426
 30
1523.0
 10
15.827920742236508
 20
-117.4884999965985
 30
1523.0
 10
15.850416507480878
 20
-123.57352656459005
 30
1523.0
 10
15.873648047277726
 20
-129.65854517002265
 30
1523.0
 10
15.897550103702814
 20
-135.74355260827247
 30
1523.0
 10
15.922068215660339
 20
-141.82854484380886
 30
1523.0
 10
15.947155879047104
 20
-147.91351643581152
 30
1523.0
 10
15.985592475246312
 20
-157.0447871478637
 30
1523.0
 10
15.998547312118099
 20
-160.09110804790427
 30
1523.0
 10
16.011628442642785
 20
-163.13742007838025
 30
1523.0
 10
16.02483063094316
 20
-166.1837218705235
 30
1523.0
 10
16.038148415028573
 20
-169.2300111150367
 30
1523.0
 10
16.051576162845258
 20
-172.2762845944661
 30
1523.0
 10
16.065107506545615
 20
-175.32253775264547
 30
1523.0
 10
16.08632172426372
 20
-180.06537007187129
 30
1523.0
 10
16.093939677657566
 20
-181.7619675537538
 30
1523.0
 10
16.10158512783254
 20
-183.45855476625388
 30
1523.0
 10
16.109256246369807
 20
-185.1551302810552
 30
1523.0
 10
16.116950390004295
 20
-186.85169122837326
 30
1523.0
 10
16.12466433090585
 20
-188.54823347643213
 30
1523.0
 10
16.132393578684063
 20
-190.24475104088728
 30
1523.0
 10
16.14315631794671
 20
-192.60517462258883
 30
1523.0
 10
16.146105903060217
 20
-193.25185435674283
 30
1523.0
 10
16.148977249301183
 20
-193.88123725154307
 30
1523.0
 10
16.151768251721254
 20
-194.49339035455847
 30
1523.0
 10
16.15448323655335
 20
-195.0884846951381
 30
1523.0
 10
16.15712058178568
 20
-195.66679229347258
 30
1523.0
 10
16.15968345333169
 20
-196.2286886809306
 30
1523.0
 10
16.164580191962795
 20
-197.302298820494
 30
1523.0
 10
16.166986758933785
 20
-197.82993872456933
 30
1523.0
 10
16.169393288981908
 20
-198.3575705333032
 30
1523.0
 10
16.171799777617586
 20
-198.885193262357
 30
1523.0
 10
16.17420621902595
 20
-199.41280563682102
 30
1523.0
 10
16.176612605847083
 20
-199.9404060430331
 30
1523.0
 10
16.17901892878191
 20
-200.4679924421688
 30
1523.0
 10
16.184209263699678
 20
-201.6059735792579
 30
1523.0
 10
16.186993232320823
 20
-202.21635881013214
 30
1523.0
 10
16.189777079906797
 20
-202.8267175040482
 30
1523.0
 10
16.192560789688542
 20
-203.43704598437142
 30
1523.0
 10
16.195344321527738
 20
-204.0473354507849
 30
1523.0
 10
16.198127614090502
 20
-204.6575724558409
 30
1523.0
 10
16.200910577034545
 20
-205.26773719196893
 30
1523.0
 10
16.205117473782774
 20
-206.1900994712843
 30
1523.0
 10
16.206541740345273
 20
-206.50236997174193
 30
1523.0
 10
16.20796585062388
 20
-206.8146062069475
 30
1523.0
 10
16.209389783498654
 20
-207.12680354635782
 30
1523.0
 10
16.210813486070826
 20
-207.4389503919139
 30
1523.0
 10
16.212236877120798
 20
-207.75102893621363
 30
1523.0
 10
16.213659836693175
 20
-208.0630128790343
 30
1523.0
 10
16.215864855369045
 20
-208.5464633113897
 30
1523.0
 10
16.21660633067573
 20
-208.70903180186266
 30
1523.0
 10
16.21730784498156
 20
-208.86283884130697
 30
1523.0
 10
16.217970665061763
 20
-209.00816217024519
 30
1523.0
 10
16.218596057691588
 20
-209.1452795291998
 30
1523.0
 10
16.219185289646276
 20
-209.27446865869342
 30
1523.0
 10
16.219739627701074
 20
-209.3960072992485
 30
1523.0
 10
16.220781049561385
 20
-209.6243390835265
 30
1523.0
 10
16.221268133366884
 20
-209.7311322272496
 30
1523.0
 10
16.22172285682298
 20
-209.8308303630791
 30
1523.0
 10
16.222146486704915
 20
-209.9237112315376
 30
1523.0
 10
16.222540289787936
 20
-210.01005257314756
 30
1523.0
 10
16.222905532847285
 20
-210.0901321284317
 30
1523.0
 10
16.223243482658205
 20
-210.16422763791243
 30
1523.0
 10
16.22386732933367
 20
-210.30100604631215
 30
1523.0
 10
16.22415322619821
 20
-210.363688945231
 30
1523.0
 10
16.22441436336482
 20
-210.42094327939154
 30
1523.0
 10
16.22465200760872
 20
-210.47304678931624
 30
1523.0
 10
16.22486742570517
 20
-210.52027721552767
 30
1523.0
 10
16.225061884429408
 20
-210.56291229854818
 30
1523.0
 10
16.225236650556674
 20
-210.6012297789004
 30
1523.0
 10
16.225508692009168
 20
-210.66087487817595
 30
1523.0
 10
16.22562174498594
 20
-210.68566174782748
 30
1523.0
 10
16.225733504486097
 20
-210.71016502268185
 30
1523.0
 10
16.225844148492314
 20
-210.73442372544204
 30
1523.0
 10
16.225952640103024
 20
-210.75821051540308
 30
1523.0
 10
16.22605666251712
 20
-210.781017433834
 30
1523.0
 10
16.226152225346524
 20
-210.80196958797853
 30
1523.0
 10
16.226264528352317
 20
-210.82659202646224
 30
1523.0
 10
16.22629188659713
 20
-210.83259032272642
 30
1523.0
 10
16.22631509050159
 20
-210.83767777970115
 30
1523.0
 10
16.2263345154065
 20
-210.84193669087475
 30
1523.0
 10
16.226350536652674
 20
-210.84544934973528
 30
1523.0
 10
16.226363529580922
 20
-210.84829804977093
 30
1523.0
 10
16.226373869532065
 20
-210.85056508446985
 30
1523.0
 10
16.22639475566929
 20
-210.85514437088813
 30
1523.0
 10
16.226514976172943
 20
-210.85607933345347
 30
1523.0
 10
16.226585152492426
 20
-210.85619622088907
 30
1523.0
 10
16.22652968282844
 20
-210.85620419112203
 30
1523.0
 10
16.226354804447787
 20
-210.85646297413356
 30
1523.0
 10
16.2261485936834
 20
-210.85698287195893
 30
1523.0
 10
16.226080965934337
 20
-210.8574247586873
 30
1523.0
 10
16.226403675665754
 20
-210.85710008046203
 30
1523.0
  0
ENDSEC
  0
SECTION
  2
OBJECTS
  0
DICTIONARY
  5
A
330
0
100
AcDbDictionary
281
1
  3
ACAD_COLOR
350
B
  3
ACAD_GROUP
350
C
  3
ACAD_LAYOUT
350
D
  3
ACAD_MATERIAL
350
E
  3
ACAD_MLEADERSTYLE
350
F
  3
ACAD_MLINESTYLE
350
10
  3
ACAD_PLOTSETTINGS
350
11
  3
ACAD_PLOTSTYLENAME
350
12
  3
ACAD_SCALELIST
350
14
  3
ACAD_TABLESTYLE
350
15
  3
ACAD_VISUALSTYLE
350
16
  3
EZDXF_META
350
2D
  0
DICTIONARY
  5
B
330
A
100
AcDbDictionary
281
1
  0
DICTIONARY
  5
C
330
A
100
AcDbDictionary
281
1
  0
DICTIONARY
  5
D
330
A
100
AcDbDictionary
281
1
  3
Model
350
1A
  3
Layout1
350
1E
  0
DICTIONARY
  5
E
330
A
100
AcDbDictionary
281
1
  3
ByBlock
350
1F
  3
ByLayer
350
20
  3
Global
350
21
  0
DICTIONARY
  5
F
330
A
100
AcDbDictionary
281
1
  3
Standard
350
2C
  0
DICTIONARY
  5
10
330
A
100
AcDbDictionary
281
1
  3
Standard
350
22
  0
DICTIONARY
  5
11
330
A
100
AcDbDictionary
281
1
  0
ACDBDICTIONARYWDFLT
  5
12
330
A
100
AcDbDictionary
281
1
  3
Normal
350
13
100
AcDbDictionaryWithDefault
340
13
  0
ACDBPLACEHOLDER
  5
13
330
12
  0
DICTIONARY
  5
14
330
A
100
AcDbDictionary
281
1
  0
DICTIONARY
  5
15
330
A
100
AcDbDictionary
281
1
  0
DICTIONARY
  5
16
330
A
100
AcDbDictionary
281
1
  0
LAYOUT
  5
1A
330
D
100
AcDbPlotSettings
  1

  2
Adobe PDF
  4
A3
  6

 40
7.5
 41
20.0
 42
7.5
 43
20.0
 44
420.0
 45
297.0
 46
0.0
 47
0.0
 48
0.0
 49
0.0
140
0.0
141
0.0
142
1.0
143
1.0
 70
1024
 72
1
 73
1
 74
5
  7

 75
16
 76
0
 77
2
 78
300
147
1.0
148
0.0
149
0.0
100
AcDbLayout
  1
Model
 70
1
 71
0
 10
0.0
 20
0.0
 11
420.0
 21
297.0
 12
0.0
 22
0.0
 32
0.0
 14
1e+20
 24
1e+20
 34
1e+20
 15
-1e+20
 25
-1e+20
 35
-1e+20
146
0.0
 13
0.0
 23
0.0
 33
0.0
 16
1.0
 26
0.0
 36
0.0
 17
0.0
 27
1.0
 37
0.0
 76
1
330
17
  0
LAYOUT
  5
1E
330
D
100
AcDbPlotSettings
  1

  2
Adobe PDF
  4
A3
  6

 40
7.5
 41
20.0
 42
7.5
 43
20.0
 44
420.0
 45
297.0
 46
0.0
 47
0.0
 48
0.0
 49
0.0
140
0.0
141
0.0
142
1.0
143
1.0
 70
0
 72
1
 73
1
 74
5
  7

 75
16
 76
0
 77
2
 78
300
147
1.0
148
0.0
149
0.0
100
AcDbLayout
  1
Layout1
 70
1
 71
1
 10
0.0
 20
0.0
 11
420.0
 21
297.0
 12
0.0
 22
0.0
 32
0.0
 14
1e+20
 24
1e+20
 34
1e+20
 15
-1e+20
 25
-1e+20
 35
-1e+20
146
0.0
 13
0.0
 23
0.0
 33
0.0
 16
1.0
 26
0.0
 36
0.0
 17
0.0
 27
1.0
 37
0.0
 76
1
330
1B
  0
MATERIAL
  5
1F
102
{ACAD_REACTORS
330
E
102
}
330
E
100
AcDbMaterial
  1
ByBlock
  2

 70
0
 40
1.0
 71
1
 41
1.0
 91
-1023410177
 42
1.0
 72
1
  3

 73
1
 74
1
 75
1
 44
0.5
 73
0
 45
1.0
 46
1.0
 77
1
  4

 78
1
 79
1
170
1
 48
1.0
171
1
  6

172
1
173
1
174
1
140
1.0
141
1.0
175
1
  7

176
1
177
1
178
1
143
1.0
179
1
  8

270
1
271
1
272
1
145
1.0
146
1.0
273
1
  9

274
1
275
1
276
1
 42
1.0
 72
1
  3

 73
1
 74
1
 75
1
 94
63
  0
MATERIAL
  5
20
102
{ACAD_REACTORS
330
E
102
}
330
E
100
AcDbMaterial
  1
ByLayer
  2

 70
0
 40
1.0
 71
1
 41
1.0
 91
-1023410177
 42
1.0
 72
1
  3

 73
1
 74
1
 75
1
 44
0.5
 73
0
 45
1.0
 46
1.0
 77
1
  4

 78
1
 79
1
170
1
 48
1.0
171
1
  6

172
1
173
1
174
1
140
1.0
141
1.0
175
1
  7

176
1
177
1
178
1
143
1.0
179
1
  8

270
1
271
1
272
1
145
1.0
146
1.0
273
1
  9

274
1
275
1
276
1
 42
1.0
 72
1
  3

 73
1
 74
1
 75
1
 94
63
  0
MATERIAL
  5
21
102
{ACAD_REACTORS
330
E
102
}
330
E
100
AcDbMaterial
  1
Global
  2

 70
0
 40
1.0
 71
1
 41
1.0
 91
-1023410177
 42
1.0
 72
1
  3

 73
1
 74
1
 75
1
 44
0.5
 73
0
 45
1.0
 46
1.0
 77
1
  4

 78
1
 79
1
170
1
 48
1.0
171
1
  6

172
1
173
1
174
1
140
1.0
141
1.0
175
1
  7

176
1
177
1
178
1
143
1.0
179
1
  8

270
1
271
1
272
1
145
1.0
146
1.0
273
1
  9

274
1
275
1
276
1
 42
1.0
 72
1
  3

 73
1
 74
1
 75
1
 94
63
  0
MLINESTYLE
  5
22
102
{ACAD_REACTORS
330
10
102
}
330
10
100
AcDbMlineStyle
  2
Standard
 70
0
  3

 62
256
 51
90.0
 52
90.0
 71
2
 49
0.5
 62
256
  6
BYLAYER
 49
-0.5
 62
256
  6
BYLAYER
  0
MLEADERSTYLE
  5
2C
102
{ACAD_REACTORS
330
F
102
}
330
F
100
AcDbMLeaderStyle
179
2
170
2
171
1
172
0
 90
2
 40
0.0
 41
0.0
173
1
 91
-1056964608
 92
-2
290
1
 42
2.0
291
1
 43
8.0
  3
Standard
 44
4.0
300

342
29
174
1
175
1
176
0
178
1
 93
-1056964608
 45
4.0
292
0
297
0
 46
4.0
 94
-1056964608
 47
1.0
 49
1.0
140
1.0
294
1
141
0.0
177
0
142
1.0
295
0
296
0
143
3.75
271
0
272
9
273
9
  0
DICTIONARY
  5
2D
330
A
100
AcDbDictionary
280
1
281
1
  3
CREATED_BY_EZDXF
350
2E
  3
WRITTEN_BY_EZDXF
350
78
  0
DICTIONARYVAR
  5
2E
330
2D
100
DictionaryVariables
280
0
  1
0.17 @ 2022-02-15T16:42:37.211212+00:00
  0
DICTIONARYVAR
  5
78
330
2D
100
DictionaryVariables
280
0
  1
0.17 @ 2022-02-15T16:42:37.399259+00:00
  0
ENDSEC
  0
EOF
