  0
SECTION
  2
HEADER
  9
$ACADVER
  1
AC1027
  9
$ACADMAINTVER
 70
105
  9
$DWGCODEPAGE
  3
ANSI_1252
  9
$LASTSAVEDBY
  1
ezdxf
  9
$REQUIREDVERSIONS
160
0
  9
$INSBASE
 10
0.0
 20
0.0
 30
0.0
  9
$EXTMIN
 10
1e+20
 20
1e+20
 30
1e+20
  9
$EXTMAX
 10
-1e+20
 20
-1e+20
 30
-1e+20
  9
$LIMMIN
 10
0.0
 20
0.0
  9
$LIMMAX
 10
420.0
 20
297.0
  9
$ORTHOMODE
 70
0
  9
$REGENMODE
 70
1
  9
$FILLMODE
 70
1
  9
$QTEXTMODE
 70
0
  9
$MIRRTEXT
 70
1
  9
$LTSCALE
 40
1.0
  9
$ATTMODE
 70
1
  9
$TEXTSIZE
 40
2.5
  9
$TRACEWID
 40
1.0
  9
$TEXTSTYLE
  7
Standard
  9
$CLAYER
  8
0
  9
$CELTYPE
  6
ByLayer
  9
$CECOLOR
 62
256
  9
$CELTSCALE
 40
1.0
  9
$DISPSILH
 70
0
  9
$DIMSCALE
 40
1.0
  9
$DIMASZ
 40
2.5
  9
$DIMEXO
 40
0.625
  9
$DIMDLI
 40
3.75
  9
$DIMRND
 40
0.0
  9
$DIMDLE
 40
0.0
  9
$DIMEXE
 40
1.25
  9
$DIMTP
 40
0.0
  9
$DIMTM
 40
0.0
  9
$DIMTXT
 40
2.5
  9
$DIMCEN
 40
2.5
  9
$DIMTSZ
 40
0.0
  9
$DIMTOL
 70
0
  9
$DIMLIM
 70
0
  9
$DIMTIH
 70
0
  9
$DIMTOH
 70
0
  9
$DIMSE1
 70
0
  9
$DIMSE2
 70
0
  9
$DIMTAD
 70
1
  9
$DIMZIN
 70
8
  9
$DIMBLK
  1

  9
$DIMASO
 70
1
  9
$DIMSHO
 70
1
  9
$DIMPOST
  1

  9
$DIMAPOST
  1

  9
$DIMALT
 70
0
  9
$DIMALTD
 70
3
  9
$DIMALTF
 40
0.03937007874
  9
$DIMLFAC
 40
1.0
  9
$DIMTOFL
 70
1
  9
$DIMTVP
 40
0.0
  9
$DIMTIX
 70
0
  9
$DIMSOXD
 70
0
  9
$DIMSAH
 70
0
  9
$DIMBLK1
  1

  9
$DIMBLK2
  1

  9
$DIMSTYLE
  2
ISO-25
  9
$DIMCLRD
 70
0
  9
$DIMCLRE
 70
0
  9
$DIMCLRT
 70
0
  9
$DIMTFAC
 40
1.0
  9
$DIMGAP
 40
0.625
  9
$DIMJUST
 70
0
  9
$DIMSD1
 70
0
  9
$DIMSD2
 70
0
  9
$DIMTOLJ
 70
0
  9
$DIMTZIN
 70
8
  9
$DIMALTZ
 70
0
  9
$DIMALTTZ
 70
0
  9
$DIMUPT
 70
0
  9
$DIMDEC
 70
2
  9
$DIMTDEC
 70
2
  9
$DIMALTU
 70
2
  9
$DIMALTTD
 70
3
  9
$DIMTXSTY
  7
Standard
  9
$DIMAUNIT
 70
0
  9
$DIMADEC
 70
0
  9
$DIMALTRND
 40
0.0
  9
$DIMAZIN
 70
0
  9
$DIMDSEP
 70
44
  9
$DIMATFIT
 70
3
  9
$DIMFRAC
 70
0
  9
$DIMLDRBLK
  1

  9
$DIMLUNIT
 70
2
  9
$DIMLWD
 70
-2
  9
$DIMLWE
 70
-2
  9
$DIMTMOVE
 70
0
  9
$DIMFXL
 40
1.0
  9
$DIMFXLON
 70
0
  9
$DIMJOGANG
 40
0.785398163397
  9
$DIMTFILL
 70
0
  9
$DIMTFILLCLR
 70
0
  9
$DIMARCSYM
 70
0
  9
$DIMLTYPE
  6

  9
$DIMLTEX1
  6

  9
$DIMLTEX2
  6

  9
$DIMTXTDIRECTION
 70
0
  9
$LUNITS
 70
2
  9
$LUPREC
 70
4
  9
$SKETCHINC
 40
1.0
  9
$FILLETRAD
 40
10.0
  9
$AUNITS
 70
0
  9
$AUPREC
 70
2
  9
$MENU
  1
.
  9
$ELEVATION
 40
0.0
  9
$PELEVATION
 40
0.0
  9
$THICKNESS
 40
0.0
  9
$LIMCHECK
 70
0
  9
$CHAMFERA
 40
0.0
  9
$CHAMFERB
 40
0.0
  9
$CHAMFERC
 40
0.0
  9
$CHAMFERD
 40
0.0
  9
$SKPOLY
 70
0
  9
$TDCREATE
 40
2459626.7399884257
  9
$TDUCREATE
 40
2458532.153996898
  9
$TDUPDATE
 40
2459626.7399884257
  9
$TDUUPDATE
 40
2458532.1544311
  9
$TDINDWG
 40
0.0
  9
$TDUSRTIMER
 40
0.0
  9
$USRTIMER
 70
1
  9
$ANGBASE
 50
0.0
  9
$ANGDIR
 70
0
  9
$PDMODE
 70
0
  9
$PDSIZE
 40
0.0
  9
$PLINEWID
 40
0.0
  9
$SPLFRAME
 70
0
  9
$SPLINETYPE
 70
6
  9
$SPLINESEGS
 70
8
  9
$HANDSEED
  5
79
  9
$SURFTAB1
 70
6
  9
$SURFTAB2
 70
6
  9
$SURFTYPE
 70
6
  9
$SURFU
 70
6
  9
$SURFV
 70
6
  9
$UCSBASE
  2

  9
$UCSNAME
  2

  9
$UCSORG
 10
0.0
 20
0.0
 30
0.0
  9
$UCSXDIR
 10
1.0
 20
0.0
 30
0.0
  9
$UCSYDIR
 10
0.0
 20
1.0
 30
0.0
  9
$UCSORTHOREF
  2

  9
$UCSORTHOVIEW
 70
0
  9
$UCSORGTOP
 10
0.0
 20
0.0
 30
0.0
  9
$UCSORGBOTTOM
 10
0.0
 20
0.0
 30
0.0
  9
$UCSORGLEFT
 10
0.0
 20
0.0
 30
0.0
  9
$UCSORGRIGHT
 10
0.0
 20
0.0
 30
0.0
  9
$UCSORGFRONT
 10
0.0
 20
0.0
 30
0.0
  9
$UCSORGBACK
 10
0.0
 20
0.0
 30
0.0
  9
$PUCSBASE
  2

  9
$PUCSNAME
  2

  9
$PUCSORG
 10
0.0
 20
0.0
 30
0.0
  9
$PUCSXDIR
 10
1.0
 20
0.0
 30
0.0
  9
$PUCSYDIR
 10
0.0
 20
1.0
 30
0.0
  9
$PUCSORTHOREF
  2

  9
$PUCSORTHOVIEW
 70
0
  9
$PUCSORGTOP
 10
0.0
 20
0.0
 30
0.0
  9
$PUCSORGBOTTOM
 10
0.0
 20
0.0
 30
0.0
  9
$PUCSORGLEFT
 10
0.0
 20
0.0
 30
0.0
  9
$PUCSORGRIGHT
 10
0.0
 20
0.0
 30
0.0
  9
$PUCSORGFRONT
 10
0.0
 20
0.0
 30
0.0
  9
$PUCSORGBACK
 10
0.0
 20
0.0
 30
0.0
  9
$USERI1
 70
0
  9
$USERI2
 70
0
  9
$USERI3
 70
0
  9
$USERI4
 70
0
  9
$USERI5
 70
0
  9
$USERR1
 40
0.0
  9
$USERR2
 40
0.0
  9
$USERR3
 40
0.0
  9
$USERR4
 40
0.0
  9
$USERR5
 40
0.0
  9
$WORLDVIEW
 70
1
  9
$SHADEDGE
 70
3
  9
$SHADEDIF
 70
70
  9
$TILEMODE
 70
1
  9
$MAXACTVP
 70
64
  9
$PINSBASE
 10
0.0
 20
0.0
 30
0.0
  9
$PLIMCHECK
 70
0
  9
$PEXTMIN
 10
1e+20
 20
1e+20
 30
1e+20
  9
$PEXTMAX
 10
-1e+20
 20
-1e+20
 30
-1e+20
  9
$PLIMMIN
 10
0.0
 20
0.0
  9
$PLIMMAX
 10
420.0
 20
297.0
  9
$UNITMODE
 70
0
  9
$VISRETAIN
 70
1
  9
$PLINEGEN
 70
0
  9
$PSLTSCALE
 70
1
  9
$TREEDEPTH
 70
3020
  9
$CMLSTYLE
  2
Standard
  9
$CMLJUST
 70
0
  9
$CMLSCALE
 40
20.0
  9
$PROXYGRAPHICS
 70
1
  9
$MEASUREMENT
 70
1
  9
$CELWEIGHT
370
-1
  9
$ENDCAPS
280
0
  9
$JOINSTYLE
280
0
  9
$LWDISPLAY
290
0
  9
$INSUNITS
 70
6
  9
$HYPERLINKBASE
  1

  9
$STYLESHEET
  1

  9
$XEDIT
290
1
  9
$CEPSNTYPE
380
0
  9
$PSTYLEMODE
290
1
  9
$FINGERPRINTGUID
  2
{09A4497F-DA2F-4283-9B9C-260841443EA4}
  9
$VERSIONGUID
  2
{E5ED0B24-18EF-4498-ABAF-F029E801D70D}
  9
$EXTNAMES
290
1
  9
$PSVPSCALE
 40
0.0
  9
$OLESTARTUP
290
0
  9
$SORTENTS
280
127
  9
$INDEXCTL
280
0
  9
$HIDETEXT
280
1
  9
$XCLIPFRAME
280
0
  9
$HALOGAP
280
0
  9
$OBSCOLOR
 70
257
  9
$OBSLTYPE
280
0
  9
$INTERSECTIONDISPLAY
280
0
  9
$INTERSECTIONCOLOR
 70
257
  9
$DIMASSOC
280
2
  9
$PROJECTNAME
  1

  9
$CAMERADISPLAY
290
0
  9
$LENSLENGTH
 40
50.0
  9
$CAMERAHEIGHT
 40
0.0
  9
$STEPSPERSEC
 40
24.0
  9
$STEPSIZE
 40
100.0
  9
$3DDWFPREC
 40
2.0
  9
$PSOLWIDTH
 40
0.005
  9
$PSOLHEIGHT
 40
0.08
  9
$LOFTANG1
 40
1.570796326795
  9
$LOFTANG2
 40
1.570796326795
  9
$LOFTMAG1
 40
0.0
  9
$LOFTMAG2
 40
0.0
  9
$LOFTPARAM
 70
7
  9
$LOFTNORMALS
280
1
  9
$LATITUDE
 40
37.795
  9
$LONGITUDE
 40
-122.394
  9
$NORTHDIRECTION
 40
0.0
  9
$TIMEZONE
 70
-8000
  9
$LIGHTGLYPHDISPLAY
280
1
  9
$TILEMODELIGHTSYNCH
280
1
  9
$CMATERIAL
347
20
  9
$SOLIDHIST
280
0
  9
$SHOWHIST
280
1
  9
$DWFFRAME
280
2
  9
$DGNFRAME
280
2
  9
$REALWORLDSCALE
290
1
  9
$INTERFERECOLOR
 62
256
  9
$CSHADOW
280
0
  9
$SHADOWPLANELOCATION
 40
0.0
  0
ENDSEC
  0
SECTION
  2
CLASSES
  0
CLASS
  1
ACDBDICTIONARYWDFLT
  2
AcDbDictionaryWithDefault
  3
ObjectDBX Classes
 90
0
 91
0
280
0
281
0
  0
CLASS
  1
SUN
  2
AcDbSun
  3
SCENEOE
 90
1153
 91
0
280
0
281
0
  0
CLASS
  1
VISUALSTYLE
  2
AcDbVisualStyle
  3
ObjectDBX Classes
 90
4095
 91
0
280
0
281
0
  0
CLASS
  1
MATERIAL
  2
AcDbMaterial
  3
ObjectDBX Classes
 90
1153
 91
0
280
0
281
0
  0
CLASS
  1
SCALE
  2
AcDbScale
  3
ObjectDBX Classes
 90
1153
 91
0
280
0
281
0
  0
CLASS
  1
TABLESTYLE
  2
AcDbTableStyle
  3
ObjectDBX Classes
 90
4095
 91
0
280
0
281
0
  0
CLASS
  1
MLEADERSTYLE
  2
AcDbMLeaderStyle
  3
ACDB_MLEADERSTYLE_CLASS
 90
4095
 91
0
280
0
281
0
  0
CLASS
  1
DICTIONARYVAR
  2
AcDbDictionaryVar
  3
ObjectDBX Classes
 90
0
 91
0
280
0
281
0
  0
CLASS
  1
CELLSTYLEMAP
  2
AcDbCellStyleMap
  3
ObjectDBX Classes
 90
1152
 91
0
280
0
281
0
  0
CLASS
  1
MENTALRAYRENDERSETTINGS
  2
AcDbMentalRayRenderSettings
  3
SCENEOE
 90
1024
 91
0
280
0
281
0
  0
CLASS
  1
ACDBDETAILVIEWSTYLE
  2
AcDbDetailViewStyle
  3
ObjectDBX Classes
 90
1025
 91
0
280
0
281
0
  0
CLASS
  1
ACDBSECTIONVIEWSTYLE
  2
AcDbSectionViewStyle
  3
ObjectDBX Classes
 90
1025
 91
0
280
0
281
0
  0
CLASS
  1
RASTERVARIABLES
  2
AcDbRasterVariables
  3
ISM
 90
0
 91
0
280
0
281
0
  0
CLASS
  1
ACDBPLACEHOLDER
  2
AcDbPlaceHolder
  3
ObjectDBX Classes
 90
0
 91
0
280
0
281
0
  0
CLASS
  1
LAYOUT
  2
AcDbLayout
  3
ObjectDBX Classes
 90
0
 91
0
280
0
281
0
  0
ENDSEC
  0
SECTION
  2
TABLES
  0
TABLE
  2
VPORT
  5
8
330
0
100
AcDbSymbolTable
 70
1
  0
VPORT
  5
23
330
8
100
AcDbSymbolTableRecord
100
AcDbViewportTableRecord
  2
*Active
 70
0
 10
0.0
 20
0.0
 11
1.0
 21
1.0
 12
344.2
 22
148.5
 13
0.0
 23
0.0
 14
0.5
 24
0.5
 15
0.5
 25
0.5
 16
0.0
 26
0.0
 36
1.0
 17
0.0
 27
0.0
 37
0.0
 40
297.0
 41
1.34
 42
50.0
 43
0.0
 44
0.0
 50
0.0
 51
0.0
 71
0
 72
1000
 73
1
 74
3
 75
0
 76
0
 77
0
 78
0
281
0
 65
0
146
0.0
  0
ENDTAB
  0
TABLE
  2
LTYPE
  5
2
330
0
100
AcDbSymbolTable
 70
3
  0
LTYPE
  5
24
330
2
100
AcDbSymbolTableRecord
100
AcDbLinetypeTableRecord
  2
ByBlock
 70
0
  3

 72
65
 73
0
 40
0.0
  0
LTYPE
  5
25
330
2
100
AcDbSymbolTableRecord
100
AcDbLinetypeTableRecord
  2
ByLayer
 70
0
  3

 72
65
 73
0
 40
0.0
  0
LTYPE
  5
26
330
2
100
AcDbSymbolTableRecord
100
AcDbLinetypeTableRecord
  2
Continuous
 70
0
  3

 72
65
 73
0
 40
0.0
  0
ENDTAB
  0
TABLE
  2
LAYER
  5
1
330
0
100
AcDbSymbolTable
 70
2
  0
LAYER
  5
27
330
1
100
AcDbSymbolTableRecord
100
AcDbLayerTableRecord
  2
0
 70
0
 62
7
  6
Continuous
370
-3
390
13
347
21
  0
LAYER
  5
28
330
1
100
AcDbSymbolTableRecord
100
AcDbLayerTableRecord
  2
Defpoints
 70
0
 62
7
  6
Continuous
290
0
370
-3
390
13
347
21
  0
ENDTAB
  0
TABLE
  2
STYLE
  5
5
330
0
100
AcDbSymbolTable
 70
1
  0
STYLE
  5
29
330
5
100
AcDbSymbolTableRecord
100
AcDbTextStyleTableRecord
  2
Standard
 70
0
 40
0.0
 41
1.0
 50
0.0
 71
0
 42
2.5
  3
txt
  4

  0
ENDTAB
  0
TABLE
  2
VIEW
  5
7
330
0
100
AcDbSymbolTable
 70
0
  0
ENDTAB
  0
TABLE
  2
UCS
  5
6
330
0
100
AcDbSymbolTable
 70
0
  0
ENDTAB
  0
TABLE
  2
APPID
  5
3
330
0
100
AcDbSymbolTable
 70
3
  0
APPID
  5
2A
330
3
100
AcDbSymbolTableRecord
100
AcDbRegAppTableRecord
  2
ACAD
 70
0
  0
APPID
  5
76
330
3
100
AcDbSymbolTableRecord
100
AcDbRegAppTableRecord
  2
HATCHBACKGROUNDCOLOR
 70
0
  0
APPID
  5
77
330
3
100
AcDbSymbolTableRecord
100
AcDbRegAppTableRecord
  2
EZDXF
 70
0
  0
ENDTAB
  0
TABLE
  2
DIMSTYLE
  5
4
330
0
100
AcDbSymbolTable
 70
1
100
AcDbDimStyleTable
  0
DIMSTYLE
105
2B
330
4
100
AcDbSymbolTableRecord
100
AcDbDimStyleTableRecord
  2
Standard
 70
0
 40
1.0
 41
2.5
 42
0.625
 43
3.75
 44
1.25
 45
0.0
 46
0.0
 47
0.0
 48
0.0
 49
2.5
140
2.5
141
2.5
142
0.0
143
0.03937007874
144
1.0
145
0.0
146
1.0
147
0.625
148
0.0
 69
0
 70
0
 71
0
 72
0
 73
0
 74
0
 75
0
 76
0
 77
1
 78
8
 79
0
170
0
171
3
172
1
173
0
174
0
175
0
176
0
177
0
178
0
179
0
271
0
272
2
273
2
274
3
275
0
276
0
277
2
278
44
279
0
280
0
281
0
282
0
283
0
284
8
285
0
286
0
288
0
289
3
290
0
371
-2
372
-2
  0
ENDTAB
  0
TABLE
  2
BLOCK_RECORD
  5
9
330
0
100
AcDbSymbolTable
 70
2
  0
BLOCK_RECORD
  5
17
330
9
100
AcDbSymbolTableRecord
100
AcDbBlockTableRecord
  2
*Model_Space
340
1A
 70
0
280
1
281
0
  0
BLOCK_RECORD
  5
1B
330
9
100
AcDbSymbolTableRecord
100
AcDbBlockTableRecord
  2
*Paper_Space
340
1E
 70
0
280
1
281
0
  0
ENDTAB
  0
ENDSEC
  0
SECTION
  2
BLOCKS
  0
BLOCK
  5
18
330
17
100
AcDbEntity
  8
0
100
AcDbBlockBegin
  2
*Model_Space
 70
0
 10
0.0
 20
0.0
 30
0.0
  3
*Model_Space
  1

  0
ENDBLK
  5
19
330
17
100
AcDbEntity
  8
0
100
AcDbBlockEnd
  0
BLOCK
  5
1C
330
1B
100
AcDbEntity
  8
0
100
AcDbBlockBegin
  2
*Paper_Space
 70
0
 10
0.0
 20
0.0
 30
0.0
  3
*Paper_Space
  1

  0
ENDBLK
  5
1D
330
1B
100
AcDbEntity
  8
0
100
AcDbBlockEnd
  0
ENDSEC
  0
SECTION
  2
ENTITIES
  0
SPLINE
  5
2F
330
17
100
AcDbEntity
  8
0
100
AcDbSpline
 70
0
 71
8
 72
60
 73
51
 74
0
 40
0.0
 40
0.0
 40
0.0
 40
0.0
 40
0.0
 40
0.0
 40
0.0
 40
0.0
 40
0.0
 40
0.06593251053721483
 40
0.06593251053721483
 40
0.06593251053721483
 40
0.06593251053721483
 40
0.06593251053721483
 40
0.06593251053721483
 40
0.06593251053721483
 40
0.206594811868755
 40
0.206594811868755
 40
0.206594811868755
 40
0.206594811868755
 40
0.206594811868755
 40
0.206594811868755
 40
0.206594811868755
 40
0.26276046823801885
 40
0.26276046823801885
 40
0.26276046823801885
 40
0.26276046823801885
 40
0.26276046823801885
 40
0.26276046823801885
 40
0.26276046823801885
 40
0.3189255133487184
 40
0.3189255133487184
 40
0.3189255133487184
 40
0.3189255133487184
 40
0.3189255133487184
 40
0.3189255133487184
 40
0.3189255133487184
 40
0.47242144796257524
 40
0.47242144796257524
 40
0.47242144796257524
 40
0.47242144796257524
 40
0.47242144796257524
 40
0.47242144796257524
 40
0.47242144796257524
 40
0.722373514291228
 40
0.722373514291228
 40
0.722373514291228
 40
0.722373514291228
 40
0.722373514291228
 40
0.722373514291228
 40
0.722373514291228
 40
1.0
 40
1.0
 40
1.0
 40
1.0
 40
1.0
 40
1.0
 40
1.0
 40
1.0
 40
1.0
 10
49.02514311400925
 20
209.90000000091692
 30
1627.0
 10
48.81929154763653
 20
210.0586400437985
 30
1627.0
 10
48.60953386371873
 20
210.21218559461175
 30
1627.0
 10
48.39582916175356
 20
210.36027193379144
 30
1627.0
 10
48.178158397949886
 20
210.50251416321748
 30
1627.0
 10
47.95652833657314
 20
210.6385127055056
 30
1627.0
 10
47.730976699682465
 20
210.76786044008605
 30
1627.0
 10
47.50157900309746
 20
210.89015215893303
 30
1627.0
 10
46.771109634375975
 20
211.2500103421861
 30
1627.0
 10
46.256035263982454
 20
211.46151253628926
 30
1627.0
 10
45.72594780940271
 20
211.63472720537112
 30
1627.0
 10
45.18384014356866
 20
211.76624805941262
 30
1627.0
 10
44.633036902215835
 20
211.8542676451857
 30
1627.0
 10
44.0772360096889
 20
211.89873836409754
 30
1627.0
 10
43.52052576361232
 20
211.90139851017875
 30
1627.0
 10
42.74648931388681
 20
211.85130033921996
 30
1627.0
 10
42.525872880608745
 20
211.83085239489054
 30
1627.0
 10
42.30552879926078
 20
211.80441786700703
 30
1627.0
 10
42.08547141343884
 20
211.77216239999834
 30
1627.0
 10
41.86571506674766
 20
211.73425163830603
 30
1627.0
 10
41.64627410280083
 20
211.6908512263842
 30
1627.0
 10
41.427162865220765
 20
211.6421268086995
 30
1627.0
 10
40.989630910929804
 20
211.53436183717605
 30
1627.0
 10
40.77119865238477
 20
211.47531724432002
 30
1627.0
 10
40.55314157140095
 20
211.41131180698966
 30
1627.0
 10
40.33547457372778
 20
211.34232637684858
 30
1627.0
 10
40.118107945441594
 20
211.26906924867586
 30
1627.0
 10
39.9012415010447
 20
211.190880784171
 30
1627.0
 10
39.68478534229872
 20
211.10820785369526
 30
1627.0
 10
38.87841176852431
 20
210.78252942351577
 30
1627.0
 10
38.30045965592635
 20
210.51377608818962
 30
1627.0
 10
37.73557851532747
 20
210.21768036285147
 30
1627.0
 10
37.184124510038664
 20
209.89707661975794
 30
1627.0
 10
36.64620699504141
 20
209.55454874620074
 30
1627.0
 10
36.121723353173586
 20
209.19237039011026
 30
1627.0
 10
35.6103803039437
 20
208.81246878478754
 30
1627.0
 10
34.29969151941549
 20
207.77141066008778
 30
1627.0
 10
33.52190283105529
 20
207.08402228229048
 30
1627.0
 10
32.776212976676874
 20
206.36095678920313
 30
1627.0
 10
32.06099080559023
 20
205.6075652945821
 30
1627.0
 10
31.37475537901552
 20
204.82816994566193
 30
1627.0
 10
30.716060113999582
 20
204.0261775695184
 30
1627.0
 10
30.08348459966826
 20
203.20408892719362
 30
1627.0
 10
28.800416825728732
 20
201.429926093698
 30
1627.0
 10
28.156109572904366
 20
200.4741094208936
 30
1627.0
 10
27.54099685314892
 20
199.4988307216989
 30
1627.0
 10
26.953875714389874
 20
198.50631643365747
 30
1627.0
 10
26.393817741094587
 20
197.49840374498132
 30
1627.0
 10
25.860085980986813
 20
196.47659107566798
 30
1627.0
 10
25.35211319851176
 20
195.44205199483173
 30
1627.0
 10
24.869479234274845
 20
194.39565073480432
 30
1627.0
  0
LINE
  5
30
330
17
100
AcDbEntity
  8
0
100
AcDbLine
 10
40.085396656389705
 20
209.9
 30
1627.0
 11
49.02514311330262
 21
209.9
 31
1627.0
  0
SPLINE
  5
31
330
17
100
AcDbEntity
  8
0
100
AcDbSpline
 70
0
 71
1
 72
4
 73
2
 74
0
 40
0.0
 40
0.0
 40
1.0
 40
1.0
 10
40.085396656140574
 20
209.90000060000008
 30
1627.0
 10
40.085396656140574
 20
206.09999939999994
 30
1627.0
  0
LINE
  5
32
330
17
100
AcDbEntity
  8
0
100
AcDbLine
 10
40.085396656389705
 20
206.1
 30
1627.0
 11
52.523115101428594
 21
206.1
 31
1627.0
  0
SPLINE
  5
33
330
17
100
AcDbEntity
  8
0
100
AcDbSpline
 70
0
 71
8
 72
53
 73
44
 74
0
 40
0.0
 40
0.0
 40
0.0
 40
0.0
 40
0.0
 40
0.0
 40
0.0
 40
0.0
 40
0.0
 40
0.153195394020983
 40
0.153195394020983
 40
0.153195394020983
 40
0.153195394020983
 40
0.153195394020983
 40
0.153195394020983
 40
0.153195394020983
 40
0.29881369680884406
 40
0.29881369680884406
 40
0.29881369680884406
 40
0.29881369680884406
 40
0.29881369680884406
 40
0.29881369680884406
 40
0.29881369680884406
 40
0.5172615934044983
 40
0.5172615934044983
 40
0.5172615934044983
 40
0.5172615934044983
 40
0.5172615934044983
 40
0.5172615934044983
 40
0.5172615934044983
 40
0.735077003746861
 40
0.735077003746861
 40
0.735077003746861
 40
0.735077003746861
 40
0.735077003746861
 40
0.735077003746861
 40
0.735077003746861
 40
0.9558483413797533
 40
0.9558483413797533
 40
0.9558483413797533
 40
0.9558483413797533
 40
0.9558483413797533
 40
0.9558483413797533
 40
0.9558483413797533
 40
1.0
 40
1.0
 40
1.0
 40
1.0
 40
1.0
 40
1.0
 40
1.0
 40
1.0
 40
1.0
 10
61.26028502610776
 20
183.8999999947589
 30
1627.0
 10
61.126149908805374
 20
184.4164093318119
 30
1627.0
 10
60.99038528736254
 20
184.93239364717846
 30
1627.0
 10
60.852927655881956
 20
185.44792963657284
 30
1627.0
 10
60.71370814023035
 20
185.96299183674114
 30
1627.0
 10
60.57265166617265
 20
186.4775524113639
 30
1627.0
 10
60.429675912104216
 20
186.99158088123653
 30
1627.0
 10
60.28468997755478
 20
187.50504378056763
 30
1627.0
 10
59.99777089630852
 20
188.5053984270122
 30
1627.0
 10
59.85767199482094
 20
188.98666307617194
 30
1627.0
 10
59.7173029036383
 20
189.46163269557815
 30
1627.0
 10
59.576670532223005
 20
189.93024181209185
 30
1627.0
 10
59.435781790036735
 20
190.3924249525706
 30
1627.0
 10
59.29464358654052
 20
190.8481166438685
 30
1627.0
 10
59.15326283119464
 20
191.2972514128365
 30
1627.0
 10
58.79920195624231
 20
192.40359446800727
 30
1627.0
 10
58.58630590357764
 20
193.05231394489806
 30
1627.0
 10
58.372776667329205
 20
193.68599684346674
 30
1627.0
 10
58.15887399233971
 20
194.30487070255384
 30
1627.0
 10
57.94440343328459
 20
194.9090212859947
 30
1627.0
 10
57.729516367775
 20
195.4986608747045
 30
1627.0
 10
57.51416327124642
 20
196.0739433684247
 30
1627.0
 10
57.08319768329133
 20
197.1945470011436
 30
1627.0
 10
56.86292855491588
 20
197.75205828561846
 30
1627.0
 10
56.63725721104077
 20
198.30742699896544
 30
1627.0
 10
56.40585060931054
 20
198.8604513601524
 30
1627.0
 10
56.16834177775547
 20
199.4108903215793
 30
1627.0
 10
55.924321098310386
 20
199.95845981202507
 30
1627.0
 10
55.67332323935153
 20
200.50282706225013
 30
1627.0
 10
55.152788002586874
 20
201.59171772136747
 30
1627.0
 10
54.88307008085043
 20
202.13608992178473
 30
1627.0
 10
54.60508050586988
 20
202.67635490671415
 30
1627.0
 10
54.318187580889536
 20
203.2120247191713
 30
1627.0
 10
54.02169600718703
 20
203.74248435030347
 30
1627.0
 10
53.71482485407938
 20
204.2669794355329
 30
1627.0
 10
53.39667087031981
 20
204.7845954495158
 30
1627.0
 10
53.00005829595519
 20
205.39614896754813
 30
1627.0
 10
52.933468655018345
 20
205.49774475705516
 30
1627.0
 10
52.866379227889404
 20
205.5990076978742
 30
1627.0
 10
52.798780950895924
 20
205.69992904792167
 30
1627.0
 10
52.73066467896356
 20
205.8004993906385
 30
1627.0
 10
52.66202118072488
 20
205.90070863123202
 30
1627.0
 10
52.59284113265117
 20
206.00054599211708
 30
1627.0
 10
52.52311511220711
 20
206.10000000755673
 30
1627.0
  0
LINE
  5
34
330
17
100
AcDbEntity
  8
0
100
AcDbLine
 10
40.085396656389705
 20
183.9
 30
1627.0
 11
61.26028504628552
 21
183.9
 31
1627.0
  0
SPLINE
  5
35
330
17
100
AcDbEntity
  8
0
100
AcDbSpline
 70
0
 71
1
 72
4
 73
2
 74
0
 40
0.0
 40
0.0
 40
1.0
 40
1.0
 10
40.085396656140574
 20
183.90000060000014
 30
1627.0
 10
40.085396656140574
 20
180.0999993999999
 30
1627.0
  0
LINE
  5
36
330
17
100
AcDbEntity
  8
0
100
AcDbLine
 10
40.085396656389705
 20
180.1
 30
1627.0
 11
62.209042926955846
 21
180.1
 31
1627.0
  0
SPLINE
  5
37
330
17
100
AcDbEntity
  8
0
100
AcDbSpline
 70
0
 71
8
 72
32
 73
23
 74
0
 40
0.0
 40
0.0
 40
0.0
 40
0.0
 40
0.0
 40
0.0
 40
0.0
 40
0.0
 40
0.0
 40
0.17940655330062563
 40
0.17940655330062563
 40
0.17940655330062563
 40
0.17940655330062563
 40
0.17940655330062563
 40
0.17940655330062563
 40
0.17940655330062563
 40
0.8164905747517599
 40
0.8164905747517599
 40
0.8164905747517599
 40
0.8164905747517599
 40
0.8164905747517599
 40
0.8164905747517599
 40
0.8164905747517599
 40
1.0
 40
1.0
 40
1.0
 40
1.0
 40
1.0
 40
1.0
 40
1.0
 40
1.0
 40
1.0
 10
66.7008318020356
 20
157.90000000357037
 30
1626.9999999999995
 10
66.61416325497986
 20
158.40058759304225
 30
1626.9999999999995
 10
66.52691284452573
 20
158.9010741642938
 30
1626.9999999999995
 10
66.43907181881394
 20
159.40145743165593
 30
1626.9999999999995
 10
66.35063105220772
 20
159.90173502123235
 30
1626.9999999999995
 10
66.26158102009596
 20
160.40190446679912
 30
1626.9999999999995
 10
66.17191177111087
 20
160.9019632052809
 30
1626.9999999999998
 10
66.08161289648196
 20
161.40190857175793
 30
1627.0
 10
65.66774193247504
 20
163.67666298514635
 30
1627.0
 10
65.33673709492494
 20
165.45010251305524
 30
1627.0
 10
64.9971691083899
 20
167.2219387598603
 30
1627.0
 10
64.64847367471523
 20
168.99201903822185
 30
1627.0
 10
64.28998741684137
 20
170.7601504777821
 30
1627.0
 10
63.92092339393854
 20
172.52609503784427
 30
1627.0
 10
63.540321651035036
 20
174.2895594284599
 30
1627.0
 10
63.033640488544115
 20
176.5573126972854
 30
1627.0
 10
62.91927312929535
 20
177.06420834169333
 30
1627.0
 10
62.80381772761203
 20
177.57085432353279
 30
1627.0
 10
62.68724277128831
 20
178.07724219207432
 30
1627.0
 10
62.569514791915694
 20
178.58336229637536
 30
1627.0
 10
62.450598098080306
 20
179.08920371502768
 30
1627.0
 10
62.330454489735516
 20
179.5947541818872
 30
1627.0
 10
62.209042896551495
 20
180.09999999269377
 30
1627.0
  0
LINE
  5
38
330
17
100
AcDbEntity
  8
0
100
AcDbLine
 10
40.085396656389705
 20
157.9
 30
1627.0
 11
66.70083178141333
 21
157.9
 31
1627.0
  0
SPLINE
  5
39
330
17
100
AcDbEntity
  8
0
100
AcDbSpline
 70
0
 71
1
 72
4
 73
2
 74
0
 40
0.0
 40
0.0
 40
1.0
 40
1.0
 10
40.08539665614059
 20
157.90000060000042
 30
1627.0
 10
40.08539665614059
 20
154.09999939999918
 30
1627.0
  0
LINE
  5
3A
330
17
100
AcDbEntity
  8
0
100
AcDbLine
 10
40.085396656389705
 20
154.1
 30
1627.0
 11
67.34406473109746
 21
154.1
 31
1627.0
  0
SPLINE
  5
3B
330
17
100
AcDbEntity
  8
0
100
AcDbSpline
 70
0
 71
8
 72
25
 73
16
 74
0
 40
0.0
 40
0.0
 40
0.0
 40
0.0
 40
0.0
 40
0.0
 40
0.0
 40
0.0
 40
0.0
 40
0.2558910497707252
 40
0.2558910497707252
 40
0.2558910497707252
 40
0.2558910497707252
 40
0.2558910497707252
 40
0.2558910497707252
 40
0.2558910497707252
 40
1.0
 40
1.0
 40
1.0
 40
1.0
 40
1.0
 40
1.0
 40
1.0
 40
1.0
 40
1.0
 10
70.60301981448666
 20
131.90000000244765
 30
1627.0
 10
70.51043070411984
 20
132.61175163287606
 30
1627.0
 10
70.41706295665486
 20
133.32340176809245
 30
1627.0
 10
70.32290951035212
 20
134.03494848876542
 30
1627.0
 10
70.22796290886419
 20
134.7463898038872
 30
1627.0
 10
70.13221528104931
 20
135.45772364825424
 30
1627.0
 10
70.03565831903718
 20
136.16894787972834
 30
1627.0
 10
69.93828325454695
 20
136.8800602762784
 30
1627.0
 10
69.55451672118326
 20
139.65857971711628
 30
1627.0000000000002
 10
69.26195873364124
 20
141.72511957971608
 30
1627.0
 10
68.96217747537091
 20
143.7906291026003
 30
1627.0
 10
68.65491014419375
 20
145.85504605672074
 30
1627.0
 10
68.33985203046429
 20
147.91829357823784
 30
1627.0
 10
68.01664908138595
 20
149.98027895183418
 30
1627.0
 10
67.68488604774555
 20
152.04089169033546
 30
1627.0
 10
67.34406473041979
 20
154.09999999988787
 30
1627.0
  0
LINE
  5
3C
330
17
100
AcDbEntity
  8
0
100
AcDbLine
 10
40.085396656389705
 20
131.9
 30
1627.0
 11
70.60301979567159
 21
131.9
 31
1627.0
  0
SPLINE
  5
3D
330
17
100
AcDbEntity
  8
0
100
AcDbSpline
 70
0
 71
1
 72
4
 73
2
 74
0
 40
0.0
 40
0.0
 40
1.0
 40
1.0
 10
40.085396656140574
 20
131.90000060000256
 30
1627.0
 10
40.08539665614059
 20
128.09999939999764
 30
1627.0
  0
LINE
  5
3E
330
17
100
AcDbEntity
  8
0
100
AcDbLine
 10
40.085396656389705
 20
128.1
 30
1627.0
 11
71.08759543844877
 21
128.1
 31
1627.0
  0
SPLINE
  5
3F
330
17
100
AcDbEntity
  8
0
100
AcDbSpline
 70
0
 71
8
 72
25
 73
16
 74
0
 40
0.0
 40
0.0
 40
0.0
 40
0.0
 40
0.0
 40
0.0
 40
0.0
 40
0.0
 40
0.0
 40
0.26431331521953627
 40
0.26431331521953627
 40
0.26431331521953627
 40
0.26431331521953627
 40
0.26431331521953627
 40
0.26431331521953627
 40
0.26431331521953627
 40
1.0
 40
1.0
 40
1.0
 40
1.0
 40
1.0
 40
1.0
 40
1.0
 40
1.0
 40
1.0
 10
73.55315820981701
 20
105.89999998451157
 30
1627.0
 10
73.48143426205326
 20
106.63450926194187
 30
1627.0
 10
73.40899125883422
 20
107.36894828463298
 30
1627.0
 10
73.33582663431704
 20
108.1033159783552
 30
1627.0
 10
73.26193911585085
 20
108.83761138208567
 30
1627.0
 10
73.18732802116416
 20
109.57183358128682
 30
1627.0
 10
73.11199255555218
 20
110.3059816411853
 30
1627.0
 10
73.035931109064
 20
111.04005454005043
 30
1627.0
 10
72.74540259251859
 20
113.8170488122197
 30
1627.0
 10
72.52602010394577
 20
115.85945237265526
 30
1627.0
 10
72.30094984688826
 20
117.90124134565988
 30
1627.0
 10
72.07013246314425
 20
119.94239177050073
 30
1627.0
 10
71.83349215420603
 20
121.98287612616227
 30
1627.0
 10
71.59093539776754
 20
124.02266317310395
 30
1627.0
 10
71.34234870392697
 20
126.06171767444556
 30
1627.0
 10
71.0875954110843
 20
128.09999999657987
 30
1627.0
  0
LINE
  5
40
330
17
100
AcDbEntity
  8
0
100
AcDbLine
 10
40.085396656389705
 20
105.9
 30
1627.0
 11
73.55315836843096
 21
105.9
 31
1627.0
  0
SPLINE
  5
41
330
17
100
AcDbEntity
  8
0
100
AcDbSpline
 70
0
 71
1
 72
4
 73
2
 74
0
 40
0.0
 40
0.0
 40
1.0
 40
1.0
 10
40.08539665614056
 20
105.90000060000206
 30
1627.0
 10
40.085396656140574
 20
102.09999939999993
 30
1627.0
  0
LINE
  5
42
330
17
100
AcDbEntity
  8
0
100
AcDbLine
 10
40.085396656389705
 20
102.1
 30
1627.0
 11
73.91577850756732
 21
102.1
 31
1627.0
  0
SPLINE
  5
43
330
17
100
AcDbEntity
  8
0
100
AcDbSpline
 70
0
 71
8
 72
18
 73
9
 74
0
 40
0.0
 40
0.0
 40
0.0
 40
0.0
 40
0.0
 40
0.0
 40
0.0
 40
0.0
 40
0.0
 40
1.0
 40
1.0
 40
1.0
 40
1.0
 40
1.0
 40
1.0
 40
1.0
 40
1.0
 40
1.0
 10
75.71153632385851
 20
79.89999999757319
 30
1627.0
 10
75.51983746556702
 20
82.67752642378382
 30
1627.0
 10
75.31909795444706
 20
85.45442798873827
 30
1627.0
 10
75.10916269208681
 20
88.23065914287498
 30
1627.0
 10
74.88987188298206
 20
91.0061719998144
 30
1627.0
 10
74.66106078940827
 20
93.78091632036018
 30
1627.0
 10
74.42255946362123
 20
96.55483949495306
 30
1627.0
 10
74.17419245738628
 20
99.32788652457702
 30
1627.0
 10
73.91577850883625
 20
102.1000000001183
 30
1627.0
  0
LINE
  5
44
330
17
100
AcDbEntity
  8
0
100
AcDbLine
 10
40.085396656389705
 20
79.9
 30
1627.0
 11
75.71153635902091
 21
79.9
 31
1627.0
  0
SPLINE
  5
45
330
17
100
AcDbEntity
  8
0
100
AcDbSpline
 70
0
 71
1
 72
4
 73
2
 74
0
 40
0.0
 40
0.0
 40
1.0
 40
1.0
 10
40.085396656140574
 20
79.90000060000001
 30
1627.0
 10
40.08539665614059
 20
76.09999939999999
 30
1627.0
  0
LINE
  5
46
330
17
100
AcDbEntity
  8
0
100
AcDbLine
 10
40.085396656389705
 20
76.1
 30
1627.0
 11
75.96641139828536
 21
76.1
 31
1627.0
  0
SPLINE
  5
47
330
17
100
AcDbEntity
  8
0
100
AcDbSpline
 70
0
 71
8
 72
18
 73
9
 74
0
 40
0.0
 40
0.0
 40
0.0
 40
0.0
 40
0.0
 40
0.0
 40
0.0
 40
0.0
 40
0.0
 40
1.0
 40
1.0
 40
1.0
 40
1.0
 40
1.0
 40
1.0
 40
1.0
 40
1.0
 40
1.0
 10
77.17185903712951
 20
53.89999999878646
 30
1627.0
 10
77.05016640007744
 20
56.67647348472315
 30
1627.0
 10
76.92046086394492
 20
59.45259546355959
 30
1627.0
 10
76.78261250257705
 20
62.22833402512232
 30
1627.0
 10
76.63648767992314
 20
65.00365500082714
 30
1627.0
 10
76.48194888591092
 20
67.77852195320267
 30
1627.0
 10
76.31885454989242
 20
70.5528961638831
 30
1627.0
 10
76.14705883166117
 20
73.32673662006994
 30
1627.0
 10
75.96641139004099
 20
76.09999999946294
 30
1627.0
  0
LINE
  5
48
330
17
100
AcDbEntity
  8
0
100
AcDbLine
 10
40.085396656389705
 20
53.9
 30
1627.0
 11
77.1718590648162
 21
53.9
 31
1627.0
  0
SPLINE
  5
49
330
17
100
AcDbEntity
  8
0
100
AcDbSpline
 70
0
 71
1
 72
4
 73
2
 74
0
 40
0.0
 40
0.0
 40
1.0
 40
1.0
 10
40.08539665614059
 20
53.90000060000026
 30
1627.0
 10
40.08539665614059
 20
50.09999939999937
 30
1627.0
  0
LINE
  5
4A
330
17
100
AcDbEntity
  8
0
100
AcDbLine
 10
40.085396656389705
 20
50.1
 30
1627.0
 11
77.33187101457233
 21
50.1
 31
1627.0
  0
SPLINE
  5
4B
330
17
100
AcDbEntity
  8
0
100
AcDbSpline
 70
0
 71
8
 72
25
 73
16
 74
0
 40
0.0
 40
0.0
 40
0.0
 40
0.0
 40
0.0
 40
0.0
 40
0.0
 40
0.0
 40
0.0
 40
0.6332480724773785
 40
0.6332480724773785
 40
0.6332480724773785
 40
0.6332480724773785
 40
0.6332480724773785
 40
0.6332480724773785
 40
0.6332480724773785
 40
1.0
 40
1.0
 40
1.0
 40
1.0
 40
1.0
 40
1.0
 40
1.0
 40
1.0
 40
1.0
 10
78.014988167838
 20
27.899999999738533
 30
1627.0
 10
77.97728422523781
 20
29.65771835490375
 30
1627.0
 10
77.93671004974877
 20
31.415375046782295
 30
1627.0
 10
77.89323769406145
 20
33.172963994657415
 30
1627.0
 10
77.84683873033588
 20
34.9304789298066
 30
1627.0
 10
77.79748423406268
 20
36.68791339521494
 30
1627.0
 10
77.745144771071
 20
38.44526074510314
 30
1627.0
 10
77.68979039342523
 20
40.202514144083324
 30
1627.0
 10
77.59756785693423
 20
42.97733888977637
 30
1627.0
 10
77.5627235857137
 20
43.99497653224562
 30
1627.0
 10
77.52685191495287
 20
45.01257822086308
 30
1627.0
 10
77.48994686211981
 20
46.030142642990576
 30
1627.0
 10
77.45200238264462
 20
47.04766844559957
 30
1627.0
 10
77.41301236902044
 20
48.065154235214564
 30
1627.0
 10
77.37297064985005
 20
49.082598577852835
 30
1627.0
 10
77.33187098883835
 20
50.099999998960435
 30
1627.0
  0
LINE
  5
4C
330
17
100
AcDbEntity
  8
0
100
AcDbLine
 10
40.085396656389705
 20
27.9
 30
1627.0
 11
78.01498818002646
 21
27.9
 31
1627.0
  0
SPLINE
  5
4D
330
17
100
AcDbEntity
  8
0
100
AcDbSpline
 70
0
 71
1
 72
4
 73
2
 74
0
 40
0.0
 40
0.0
 40
1.0
 40
1.0
 10
40.08539665614059
 20
27.900000600000002
 30
1627.0
 10
40.08539665614059
 20
24.099999399999998
 30
1627.0
  0
LINE
  5
4E
330
17
100
AcDbEntity
  8
0
100
AcDbLine
 10
40.085396656389705
 20
24.1
 30
1627.0
 11
78.09065961919694
 21
24.1
 31
1627.0
  0
SPLINE
  5
4F
330
17
100
AcDbEntity
  8
0
100
AcDbSpline
 70
0
 71
8
 72
18
 73
9
 74
0
 40
0.0
 40
0.0
 40
0.0
 40
0.0
 40
0.0
 40
0.0
 40
0.0
 40
0.0
 40
0.0
 40
1.0
 40
1.0
 40
1.0
 40
1.0
 40
1.0
 40
1.0
 40
1.0
 40
1.0
 40
1.0
 10
78.30746178157244
 20
1.9000000000549366
 30
1626.9999999999998
 10
78.30356871584964
 20
4.675163269298702
 30
1626.9999999999998
 10
78.29323977678459
 20
7.450317008778903
 30
1626.9999999999998
 10
78.27638088609326
 20
10.225444102810899
 30
1626.9999999999998
 10
78.25289522278331
 20
13.000526287405915
 30
1626.9999999999998
 10
78.22268347096619
 20
15.775544138776201
 30
1626.9999999999998
 10
78.18564378791667
 20
18.550477069652434
 30
1626.9999999999998
 10
78.14167163258875
 20
21.32530332885381
 30
1626.9999999999998
 10
78.09065959479676
 20
24.09999999955142
 30
1626.9999999999998
  0
LINE
  5
50
330
17
100
AcDbEntity
  8
0
100
AcDbLine
 10
40.085396656389705
 20
1.9
 30
1627.0
 11
78.3074617424035
 21
1.9
 31
1627.0
  0
SPLINE
  5
51
330
17
100
AcDbEntity
  8
0
100
AcDbSpline
 70
0
 71
1
 72
4
 73
2
 74
0
 40
0.0
 40
0.0
 40
0.9999993684216398
 40
0.9999993684216398
 10
40.08539665614056
 20
1.9000006000000558
 30
1627.0
 10
40.08539665614056
 20
-6.553790374438061e-17
 30
1627.0
  0
SPLINE
  5
52
330
17
100
AcDbEntity
  8
0
100
AcDbSpline
 70
0
 71
1
 72
4
 73
2
 74
0
 40
0.0
 40
0.0
 40
1.0
 40
1.0
 10
40.08539665614056
 20
-1.9000006000000011
 30
1627.0
 10
40.085396656140574
 20
1.2000000211287443e-06
 30
1627.0
  0
LINE
  5
53
330
17
100
AcDbEntity
  8
0
100
AcDbLine
 10
40.08539665638894
 20
-1.9
 30
1627.0
 11
78.30753311043892
 21
-1.9
 31
1627.0
  0
SPLINE
  5
54
330
17
100
AcDbEntity
  8
0
100
AcDbSpline
 70
0
 71
8
 72
18
 73
9
 74
0
 40
0.0
 40
0.0
 40
0.0
 40
0.0
 40
0.0
 40
0.0
 40
0.0
 40
0.0
 40
0.0
 40
1.0
 40
1.0
 40
1.0
 40
1.0
 40
1.0
 40
1.0
 40
1.0
 40
1.0
 40
1.0
 10
78.09152451915617
 20
-24.09999999938023
 30
1626.9999999999998
 10
78.14244612193656
 20
-21.325312460766156
 30
1626.9999999999998
 10
78.18632418576863
 20
-18.550496716770343
 30
1626.9999999999998
 10
78.2232667317297
 20
-15.775574416345028
 30
1626.9999999999998
 10
78.25337890729459
 20
-13.000565456820071
 30
1626.9999999999998
 10
78.27676311222665
 20
-10.225487990012553
 30
1626.9999999999998
 10
78.29351911520264
 20
-7.45035842794306
 30
1626.9999999999998
 10
78.30374416424702
 20
-4.675191448323056
 30
1627.0
 10
78.30753309404813
 20
-1.8999999999776196
 30
1627.0
  0
LINE
  5
55
330
17
100
AcDbEntity
  8
0
100
AcDbLine
 10
40.08539665638894
 20
-24.1
 30
1627.0
 11
78.09152455292664
 21
-24.1
 31
1627.0
  0
SPLINE
  5
56
330
17
100
AcDbEntity
  8
0
100
AcDbSpline
 70
0
 71
1
 72
4
 73
2
 74
0
 40
0.0
 40
0.0
 40
1.0
 40
1.0
 10
40.08539665614059
 20
-27.900000600000034
 30
1627.0
 10
40.08539665614059
 20
-24.099999399999938
 30
1627.0
  0
LINE
  5
57
330
17
100
AcDbEntity
  8
0
100
AcDbLine
 10
40.08539665638894
 20
-27.9
 30
1627.0
 11
78.01597353274225
 21
-27.9
 31
1627.0
  0
SPLINE
  5
58
330
17
100
AcDbEntity
  8
0
100
AcDbSpline
 70
0
 71
8
 72
18
 73
9
 74
0
 40
0.0
 40
0.0
 40
0.0
 40
0.0
 40
0.0
 40
0.0
 40
0.0
 40
0.0
 40
0.0
 40
1.0
 40
1.0
 40
1.0
 40
1.0
 40
1.0
 40
1.0
 40
1.0
 40
1.0
 40
1.0
 10
77.33338995556231
 20
-50.10000000174524
 30
1627.0
 10
77.44541052696543
 20
-47.32590057584722
 30
1627.0
 10
77.54955794538239
 20
-44.551484210393426
 30
1627.0
 10
77.6459591346546
 20
-41.77678294838015
 30
1627.0
 10
77.73473745284835
 20
-39.001827045195824
 30
1627.0
 10
77.8160128637391
 20
-36.22664497680739
 30
1627.0
 10
77.88990209178459
 20
-33.45126344716625
 30
1627.0
 10
77.9565187636695
 20
-30.67570739499856
 30
1627.0
 10
78.01597353950552
 20
-27.900000000144857
 30
1627.0
  0
LINE
  5
59
330
17
100
AcDbEntity
  8
0
100
AcDbLine
 10
40.08539665638894
 20
-50.1
 30
1627.0
 11
77.33338991234305
 21
-50.1
 31
1627.0
  0
SPLINE
  5
5A
330
17
100
AcDbEntity
  8
0
100
AcDbSpline
 70
0
 71
1
 72
4
 73
2
 74
0
 40
0.0
 40
0.0
 40
1.0
 40
1.0
 10
40.085396656140574
 20
-53.9000006
 30
1627.0
 10
40.08539665614059
 20
-50.0999994
 30
1627.0
  0
LINE
  5
5B
330
17
100
AcDbEntity
  8
0
100
AcDbLine
 10
40.08539665638894
 20
-53.9
 30
1627.0
 11
77.17343167504286
 21
-53.9
 31
1627.0
  0
SPLINE
  5
5C
330
17
100
AcDbEntity
  8
0
100
AcDbSpline
 70
0
 71
8
 72
18
 73
9
 74
0
 40
0.0
 40
0.0
 40
0.0
 40
0.0
 40
0.0
 40
0.0
 40
0.0
 40
0.0
 40
0.0
 40
1.0
 40
1.0
 40
1.0
 40
1.0
 40
1.0
 40
1.0
 40
1.0
 40
1.0
 40
1.0
 10
75.96799592803394
 20
-76.09999999896155
 30
1627.0
 10
76.1486780576513
 20
-73.32674873445849
 30
1627.0
 10
76.32049703821659
 20
-70.55291686001607
 30
1627.0
 10
76.48360379806783
 20
-67.77854715123993
 30
1627.0
 10
76.63814472149508
 20
-65.00368054287878
 30
1627.0
 10
76.78426189222013
 20
-62.22835614049329
 30
1627.0
 10
76.92209331299237
 20
-59.45261123095111
 30
1627.0
 10
77.05177310440601
 20
-56.67648129191383
 30
1627.0
 10
77.17343168604364
 20
-53.90000000048201
 30
1627.0
  0
LINE
  5
5D
330
17
100
AcDbEntity
  8
0
100
AcDbLine
 10
40.08539665638894
 20
-76.1
 30
1627.0
 11
75.96799594397267
 21
-76.1
 31
1627.0
  0
SPLINE
  5
5E
330
17
100
AcDbEntity
  8
0
100
AcDbSpline
 70
0
 71
1
 72
4
 73
2
 74
0
 40
0.0
 40
0.0
 40
1.0
 40
1.0
 10
40.085396656140574
 20
-79.90000060000018
 30
1627.0
 10
40.08539665614056
 20
-76.09999939999999
 30
1627.0
  0
LINE
  5
5F
330
17
100
AcDbEntity
  8
0
100
AcDbLine
 10
40.08539665638894
 20
-79.9
 30
1627.0
 11
75.71306239588785
 21
-79.9
 31
1627.0
  0
SPLINE
  5
60
330
17
100
AcDbEntity
  8
0
100
AcDbSpline
 70
0
 71
8
 72
18
 73
9
 74
0
 40
0.0
 40
0.0
 40
0.0
 40
0.0
 40
0.0
 40
0.0
 40
0.0
 40
0.0
 40
0.0
 40
1.0
 40
1.0
 40
1.0
 40
1.0
 40
1.0
 40
1.0
 40
1.0
 40
1.0
 40
1.0
 10
73.91652391605375
 20
-102.10000000164243
 30
1627.0
 10
74.17508879112637
 20
-99.32787035493618
 30
1627.0
 10
74.42358962854486
 20
-96.55481728506152
 30
1627.0
 10
74.6622087578179
 20
-93.7808948374813
 30
1627.0
 10
74.89112256196017
 20
-91.0061551374994
 30
1627.0
 10
75.11050182092461
 20
-88.23064840689585
 30
1627.0
 10
75.32051202352682
 20
-85.4544229789814
 30
1627.0
 10
75.52131365100632
 20
-82.67752531223974
 30
1627.0
 10
75.71306243536914
 20
-79.9000000027256
 30
1627.0
  0
LINE
  5
61
330
17
100
AcDbEntity
  8
0
100
AcDbLine
 10
40.08539665638894
 20
-102.1
 30
1627.0
 11
73.91652389844462
 21
-102.1
 31
1627.0
  0
SPLINE
  5
62
330
17
100
AcDbEntity
  8
0
100
AcDbSpline
 70
0
 71
1
 72
4
 73
2
 74
0
 40
0.0
 40
0.0
 40
1.0
 40
1.0
 10
40.085396656140574
 20
-105.90000060000003
 30
1627.0
 10
40.085396656140574
 20
-102.09999939999999
 30
1627.0
  0
LINE
  5
63
330
17
100
AcDbEntity
  8
0
100
AcDbLine
 10
40.08539665638894
 20
-105.9
 30
1627.0
 11
73.55368552782485
 21
-105.9
 31
1627.0
  0
SPLINE
  5
64
330
17
100
AcDbEntity
  8
0
100
AcDbSpline
 70
0
 71
8
 72
32
 73
23
 74
0
 40
0.0
 40
0.0
 40
0.0
 40
0.0
 40
0.0
 40
0.0
 40
0.0
 40
0.0
 40
0.0
 40
0.5286926609456484
 40
0.5286926609456484
 40
0.5286926609456484
 40
0.5286926609456484
 40
0.5286926609456484
 40
0.5286926609456484
 40
0.5286926609456484
 40
0.8254644202822338
 40
0.8254644202822338
 40
0.8254644202822338
 40
0.8254644202822338
 40
0.8254644202822338
 40
0.8254644202822338
 40
0.8254644202822338
 40
1.0
 40
1.0
 40
1.0
 40
1.0
 40
1.0
 40
1.0
 40
1.0
 40
1.0
 40
1.0
 10
71.08635927547992
 20
-128.0999999989569
 30
1627.0
 10
71.26907910804479
 20
-126.63916698468819
 30
1627.0
 10
71.44862860764353
 20
-125.17793800027273
 30
1627.0
 10
71.62505795632275
 20
-123.7163273158555
 30
1627.0
 10
71.79841129041063
 20
-122.25434759925966
 30
1627.0
 10
71.96872729024435
 20
-120.79200999945645
 30
1627.0
 10
72.13603962105799
 20
-119.32932420935416
 30
1627.0
 10
72.30037727246298
 20
-117.86629851420575
 30
1627.0
 10
72.55235657242386
 20
-115.58151071848357
 30
1627.0
 10
72.64213437061105
 20
-114.75892906959933
 30
1627.0
 10
72.73109117732326
 20
-113.93526035658822
 30
1627.0
 10
72.81922004226541
 20
-113.11057006661845
 30
1627.0
 10
72.90651401514198
 20
-112.28492368686123
 30
1627.0
 10
72.99296614565702
 20
-111.4583867044911
 30
1627.0
 10
73.07856948351414
 20
-110.63102460668578
 30
1627.0
 10
73.2131583120941
 20
-109.31587303028664
 30
1627.0
 10
73.26270492149584
 20
-108.82856991632408
 30
1627.0
 10
73.31195427769565
 20
-108.34101527455962
 30
1627.0
 10
73.36090425270103
 20
-107.85322755619467
 30
1627.0
 10
73.40955321945323
 20
-107.36522192781094
 30
1627.0
 10
73.45790005182718
 20
-106.87701027137047
 30
1627.0
 10
73.50594412463153
 20
-106.38860118421556
 30
1627.0
 10
73.55368531360863
 20
-105.8999999790689
 30
1627.0
  0
LINE
  5
65
330
17
100
AcDbEntity
  8
0
100
AcDbLine
 10
40.08539665638894
 20
-128.1
 30
1627.0
 11
71.08635928381966
 21
-128.1
 31
1627.0
  0
SPLINE
  5
66
330
17
100
AcDbEntity
  8
0
100
AcDbSpline
 70
0
 71
1
 72
4
 73
2
 74
0
 40
0.0
 40
0.0
 40
1.0
 40
1.0
 10
40.085396656140574
 20
-131.9000006
 30
1627.0
 10
40.085396656140574
 20
-128.09999939999992
 30
1627.0
  0
LINE
  5
67
330
17
100
AcDbEntity
  8
0
100
AcDbLine
 10
40.08539665638894
 20
-131.9
 30
1627.0
 11
70.60141518455748
 21
-131.9
 31
1627.0
  0
SPLINE
  5
68
330
17
100
AcDbEntity
  8
0
100
AcDbSpline
 70
0
 71
8
 72
25
 73
16
 74
0
 40
0.0
 40
0.0
 40
0.0
 40
0.0
 40
0.0
 40
0.0
 40
0.0
 40
0.0
 40
0.0
 40
0.10866817452944262
 40
0.10866817452944262
 40
0.10866817452944262
 40
0.10866817452944262
 40
0.10866817452944262
 40
0.10866817452944262
 40
0.10866817452944262
 40
1.0
 40
1.0
 40
1.0
 40
1.0
 40
1.0
 40
1.0
 40
1.0
 40
1.0
 40
1.0
 10
67.34009034630321
 20
-154.10000000143538
 30
1627.0
 10
67.38989640902496
 20
-153.7992929333693
 30
1627.0
 10
67.43950929734868
 20
-153.49855372249246
 30
1627.0
 10
67.48893056528688
 20
-153.19778274880227
 30
1627.0
 10
67.53816172996034
 20
-152.89698037777458
 30
1627.0
 10
67.58720427308793
 20
-152.5961469606399
 30
1627.0
 10
67.63605964242906
 20
-152.29528283465157
 30
1627.0
 10
67.68472925320717
 20
-151.9943883233509
 30
1627.0
 10
68.13090621850988
 20
-149.22518208777552
 30
1627.0
 10
68.51618764273559
 20
-146.75491333749193
 30
1627.0
 10
68.88982062831431
 20
-144.28283711653722
 30
1627.0
 10
69.25241811599709
 20
-141.80910593768678
 30
1627.0
 10
69.60448641683716
 20
-139.3338510963544
 30
1627.0
 10
69.9464484432006
 20
-136.8571859062331
 30
1627.0
 10
70.27865894717064
 20
-134.37920783371922
 30
1627.0
 10
70.60141516753994
 20
-131.8999999977846
 30
1627.0
  0
LINE
  5
69
330
17
100
AcDbEntity
  8
0
100
AcDbLine
 10
40.08539665638894
 20
-154.1
 30
1627.0
 11
67.34009033763704
 21
-154.1
 31
1627.0
  0
SPLINE
  5
6A
330
17
100
AcDbEntity
  8
0
100
AcDbSpline
 70
0
 71
1
 72
4
 73
2
 74
0
 40
0.0
 40
0.0
 40
1.0
 40
1.0
 10
40.085396656140574
 20
-157.90000060000003
 30
1627.0
 10
40.08539665614056
 20
-154.0999994
 30
1627.0
  0
LINE
  5
6B
330
17
100
AcDbEntity
  8
0
100
AcDbLine
 10
40.08539665638894
 20
-157.9
 30
1627.0
 11
66.69643627900334
 21
-157.9
 31
1627.0
  0
SPLINE
  5
6C
330
17
100
AcDbEntity
  8
0
100
AcDbSpline
 70
0
 71
8
 72
25
 73
16
 74
0
 40
0.0
 40
0.0
 40
0.0
 40
0.0
 40
0.0
 40
0.0
 40
0.0
 40
0.0
 40
0.0
 40
0.4737364576539127
 40
0.4737364576539127
 40
0.4737364576539127
 40
0.4737364576539127
 40
0.4737364576539127
 40
0.4737364576539127
 40
0.4737364576539127
 40
1.0
 40
1.0
 40
1.0
 40
1.0
 40
1.0
 40
1.0
 40
1.0
 40
1.0
 40
1.0
 10
62.202421716153474
 20
-180.0999999913279
 30
1627.0
 10
62.51595585823763
 20
-178.7956786297768
 30
1627.0
 10
62.82104834113842
 20
-177.4893184867231
 30
1627.0
 10
63.1184036784132
 20
-176.1811584749929
 30
1627.0
 10
63.40859502258627
 20
-174.8713912254283
 30
1627.0
 10
63.69210814259077
 20
-173.56017340206174
 30
1627.0
 10
63.96936202250548
 20
-172.24763049785813
 30
1627.0
 10
64.24072017397071
 20
-170.9338594993991
 30
1627.0
 10
64.80176329489285
 20
-168.1582093055615
 30
1627.0
 10
65.09013633316611
 20
-166.69609718149428
 30
1627.0
 10
65.3720644913717
 20
-165.23271735942996
 30
1627.0
 10
65.64791858300326
 20
-163.76817387725686
 30
1627.0
 10
65.91801848169388
 20
-162.30255699092987
 30
1627.0
 10
66.18264423796532
 20
-160.83594521382025
 30
1627.0
 10
66.44204337214727
 20
-159.36840665246427
 30
1627.0
 10
66.69643627141714
 20
-157.89999999868564
 30
1627.0
  0
LINE
  5
6D
330
17
100
AcDbEntity
  8
0
100
AcDbLine
 10
40.08539665638894
 20
-180.1
 30
1627.0
 11
62.20242175222993
 21
-180.1
 31
1627.0
  0
SPLINE
  5
6E
330
17
100
AcDbEntity
  8
0
100
AcDbSpline
 70
0
 71
1
 72
4
 73
2
 74
0
 40
0.0
 40
0.0
 40
1.0
 40
1.0
 10
40.085396656140574
 20
-183.9000006000001
 30
1627.0
 10
40.085396656140574
 20
-180.09999939999994
 30
1627.0
  0
LINE
  5
6F
330
17
100
AcDbEntity
  8
0
100
AcDbLine
 10
40.08539665638894
 20
-183.9
 30
1627.0
 11
61.25339097220176
 21
-183.9
 31
1627.0
  0
SPLINE
  5
70
330
17
100
AcDbEntity
  8
0
100
AcDbSpline
 70
0
 71
8
 72
53
 73
44
 74
0
 40
0.0
 40
0.0
 40
0.0
 40
0.0
 40
0.0
 40
0.0
 40
0.0
 40
0.0
 40
0.0
 40
0.08255251279943121
 40
0.08255251279943121
 40
0.08255251279943121
 40
0.08255251279943121
 40
0.08255251279943121
 40
0.08255251279943121
 40
0.08255251279943121
 40
0.36531231503276157
 40
0.36531231503276157
 40
0.36531231503276157
 40
0.36531231503276157
 40
0.36531231503276157
 40
0.36531231503276157
 40
0.36531231503276157
 40
0.6511594679387436
 40
0.6511594679387436
 40
0.6511594679387436
 40
0.6511594679387436
 40
0.6511594679387436
 40
0.6511594679387436
 40
0.6511594679387436
 40
0.8087044247837948
 40
0.8087044247837948
 40
0.8087044247837948
 40
0.8087044247837948
 40
0.8087044247837948
 40
0.8087044247837948
 40
0.8087044247837948
 40
0.9859425094971375
 40
0.9859425094971375
 40
0.9859425094971375
 40
0.9859425094971375
 40
0.9859425094971375
 40
0.9859425094971375
 40
0.9859425094971375
 40
1.0
 40
1.0
 40
1.0
 40
1.0
 40
1.0
 40
1.0
 40
1.0
 40
1.0
 40
1.0
 10
52.517668328294704
 20
-206.09999999569197
 30
1627.0
 10
52.65448881687223
 20
-205.90474378624094
 30
1627.0
 10
52.78919811061011
 20
-205.70802342973968
 30
1627.0
 10
52.921871836101175
 20
-205.50992039928587
 30
1627.0
 10
53.05258557459715
 20
-205.31050308472487
 30
1627.0
 10
53.18141489599189
 20
-205.10982681620385
 30
1627.0
 10
53.3084353976772
 20
-204.90793389593372
 30
1627.0
 10
53.43372274944153
 20
-204.70485364174894
 30
1627.0
 10
53.980811712211676
 20
-203.80099904425228
 30
1627.0
 10
54.38390802816433
 20
-203.08917590496142
 30
1627.0
 10
54.76900559977574
 20
-202.36726019290822
 30
1627.0
 10
55.13793253333728
 20
-201.63691431834397
 30
1627.0
 10
55.49220780288211
 20
-200.89945308949322
 30
1627.0
 10
55.83314269347697
 20
-200.15589546279563
 30
1627.0
 10
56.16188347525057
 20
-199.40698620039524
 30
1627.0
 10
56.8005075256809
 20
-197.89122917217665
 30
1627.0
 10
57.11008694372153
 20
-197.1244145937409
 30
1627.0
 10
57.40922231853033
 20
-196.35340795553782
 30
1627.0
 10
57.69876191737783
 20
-195.57872978059098
 30
1627.0
 10
57.97942831957735
 20
-194.80081050957756
 30
1627.0
 10
58.251853358469916
 20
-194.02000370215825
 30
1627.0
 10
58.51659963632438
 20
-193.23659407407305
 30
1627.0
 10
58.91612802217029
 20
-192.0177093493719
 30
1627.0
 10
59.057862760175
 20
-191.5779159400987
 30
1627.0
 10
59.19936566153747
 20
-191.131485503482
 30
1627.0
 10
59.340629631208145
 20
-190.67848344310886
 30
1627.0
 10
59.48164764371773
 20
-190.21897520485555
 30
1627.0
 10
59.62241274317719
 20
-189.7530262768874
 30
1627.0
 10
59.7629180432778
 20
-189.28070218965888
 30
1627.0
 10
60.06092525416104
 20
-188.2636056078477
 30
1627.0
 10
60.218356229667535
 20
-187.71715703549296
 30
1627.0
 10
60.37543975785367
 20
-187.16281604123714
 30
1627.0
 10
60.53216594276137
 20
-186.60067586746385
 30
1627.0
 10
60.68852488843137
 20
-186.03082975655258
 30
1627.0
 10
60.84450669890317
 20
-185.45337095087862
 30
1627.0
 10
61.0001014782151
 20
-184.86839269281325
 30
1627.0
 10
61.16760871829206
 20
-184.22900215963773
 30
1627.0
 10
61.17990431253068
 20
-184.1820125007059
 30
1627.0
 10
61.19218616323379
 20
-184.13501926465395
 30
1627.0
 10
61.20445432012287
 20
-184.08802246808918
 30
1627.0
 10
61.21670883253216
 20
-184.04102212750135
 30
1627.0
 10
61.228949749413545
 20
-183.99401825926387
 30
1627.0
 10
61.24117711934126
 20
-183.94701087963486
 30
1627.0
 10
61.25339099051658
 20
-183.90000000475834
 30
1627.0
  0
LINE
  5
71
330
17
100
AcDbEntity
  8
0
100
AcDbLine
 10
40.08539665638894
 20
-206.1
 30
1627.0
 11
52.51766833444258
 21
-206.1
 31
1627.0
  0
SPLINE
  5
72
330
17
100
AcDbEntity
  8
0
100
AcDbSpline
 70
0
 71
1
 72
4
 73
2
 74
0
 40
0.0
 40
0.0
 40
1.0
 40
1.0
 10
40.08539665614059
 20
-209.90000060000008
 30
1627.0
 10
40.08539665614059
 20
-206.09999939999992
 30
1627.0
  0
LINE
  5
73
330
17
100
AcDbEntity
  8
0
100
AcDbLine
 10
40.08539665638894
 20
-209.9
 30
1627.0
 11
49.02203570406125
 21
-209.9
 31
1627.0
  0
SPLINE
  5
74
330
17
100
AcDbEntity
  8
0
100
AcDbSpline
 70
0
 71
8
 72
67
 73
58
 74
0
 40
0.0
 40
0.0
 40
0.0
 40
0.0
 40
0.0
 40
0.0
 40
0.0
 40
0.0
 40
0.0
 40
0.023986293886865934
 40
0.023986293886865934
 40
0.023986293886865934
 40
0.023986293886865934
 40
0.023986293886865934
 40
0.023986293886865934
 40
0.023986293886865934
 40
0.04513134984787409
 40
0.04513134984787409
 40
0.04513134984787409
 40
0.04513134984787409
 40
0.04513134984787409
 40
0.04513134984787409
 40
0.04513134984787409
 40
0.05015784548030068
 40
0.05015784548030068
 40
0.05015784548030068
 40
0.05015784548030068
 40
0.05015784548030068
 40
0.05015784548030068
 40
0.05015784548030068
 40
0.052609921728867755
 40
0.052609921728867755
 40
0.052609921728867755
 40
0.052609921728867755
 40
0.052609921728867755
 40
0.052609921728867755
 40
0.052609921728867755
 40
0.055061963105784914
 40
0.055061963105784914
 40
0.055061963105784914
 40
0.055061963105784914
 40
0.055061963105784914
 40
0.055061963105784914
 40
0.055061963105784914
 40
0.0640718673642172
 40
0.0640718673642172
 40
0.0640718673642172
 40
0.0640718673642172
 40
0.0640718673642172
 40
0.0640718673642172
 40
0.0640718673642172
 40
0.07282519953737854
 40
0.07282519953737854
 40
0.07282519953737854
 40
0.07282519953737854
 40
0.07282519953737854
 40
0.07282519953737854
 40
0.07282519953737854
 40
0.07429941529376334
 40
0.07429941529376334
 40
0.07429941529376334
 40
0.07429941529376334
 40
0.07429941529376334
 40
0.07429941529376334
 40
0.07429941529376334
 40
0.07429941529376334
 40
0.07429941529376334
 10
24.86947923427484
 20
-194.39565073480432
 30
1627.0
 10
25.429441784662494
 20
-195.60970851298043
 30
1627.0
 10
26.02344751922417
 20
-196.8076547813775
 30
1627.0
 10
26.652196548993928
 20
-197.98828549937195
 30
1627.0
 10
27.316658076205684
 20
-199.14975600098649
 30
1627.0
 10
28.018066743867436
 20
-200.28958314988242
 30
1627.0
 10
28.758024373589983
 20
-201.40457213784836
 30
1627.0
 10
29.538604614518874
 20
-202.49075258185817
 30
1627.0
 10
31.089681340298092
 20
-204.47058079342483
 30
1627.0
 10
31.84945635069991
 20
-205.3705634924313
 30
1627.0
 10
32.645076986309064
 20
-206.24053378946576
 30
1627.0
 10
33.47912433224411
 20
-207.07590732042695
 30
1627.0
 10
34.35388868884064
 20
-207.8700084225062
 30
1627.0
 10
35.2714609659036
 20
-208.61393486441077
 30
1627.0
 10
36.23371604244031
 20
-209.29657656667513
 30
1627.0
 10
37.48302460096035
 20
-210.0480255875192
 30
1627.0
 10
37.72555231688757
 20
-210.1880353440721
 30
1627.0
 10
37.97066885512891
 20
-210.32352954129965
 30
1627.0
 10
38.21836596199395
 20
-210.45429176454513
 30
1627.0
 10
38.46862348984364
 20
-210.58009342941298
 30
1627.0
 10
38.721408465096744
 20
-210.70069564893373
 30
1627.0
 10
38.97667415623628
 20
-210.8158511007294
 30
1627.0
 10
39.36006565366002
 20
-210.97870124532048
 30
1627.0
 10
39.48593310196381
 20
-211.0305637968661
 30
1627.0
 10
39.61195701538053
 20
-211.0808837364754
 30
1627.0
 10
39.73813292256373
 20
-211.12965125180904
 30
1627.0
 10
39.86445635216713
 20
-211.1768565305274
 30
1627.0
 10
39.99092283284468
 20
-211.22248976029098
 30
1627.0
 10
40.11752789325055
 20
-211.26654112876042
 30
1627.0
 10
40.37100442843517
 20
-211.35145991460107
 30
1627.0
 10
40.4978775287248
 20
-211.39233769680698
 30
1627.0
 10
40.624881367798196
 20
-211.43160894776253
 30
1627.0
 10
40.75201168621691
 20
-211.46924603765086
 30
1627.0
 10
40.87926496021377
 20
-211.50521892928973
 30
1627.0
 10
41.006638401692875
 20
-211.5394951781314
 30
1627.0
 10
41.134129958229636
 20
-211.57203993226298
 30
1627.0
 10
41.730628875243816
 20
-211.71590081643717
 30
1627.0
 10
42.20540300503733
 20
-211.80618696712202
 30
1627.0
 10
42.68494178682283
 20
-211.87102411563583
 30
1627.0
 10
43.167776878355404
 20
-211.90784493497597
 30
1627.0
 10
43.65208361187008
 20
-211.91437915955615
 30
1627.0
 10
44.13567230889859
 20
-211.88896152420676
 30
1627.0
 10
44.615976359682776
 20
-211.83089229248304
 30
1627.0
 10
45.55059524659195
 20
-211.65329126412743
 30
1627.0
 10
46.00555539294167
 20
-211.5355008494097
 30
1627.0
 10
46.452244623002976
 20
-211.38794196212797
 30
1627.0
 10
46.88872252230089
 20
-211.21208478409937
 30
1627.0
 10
47.313640207016405
 20
-211.01004289696414
 30
1627.0
 10
47.726117918406715
 20
-210.78427909672484
 30
1627.0
 10
48.125646961290435
 20
-210.53736599080298
 30
1627.0
 10
48.57709583875408
 20
-210.22710627454592
 30
1627.0
 10
48.64178569622638
 20
-210.18186325558005
 30
1627.0
 10
48.70609544432873
 20
-210.13610855811055
 30
1627.0
 10
48.77002772793544
 20
-210.0898520371175
 30
1627.0
 10
48.83358520962257
 20
-210.04310341069333
 30
1627.0
 10
48.8967705674234
 20
-209.9958722577748
 30
1627.0
 10
48.95958649283421
 20
-209.94816801612376
 30
1627.0
 10
49.02203568904347
 20
-209.89999998052963
 30
1627.0
  0
SPLINE
  5
75
330
17
100
AcDbEntity
  8
0
100
AcDbSpline
 70
0
 71
8
 72
396
 73
387
 74
0
 40
0.0
 40
0.0
 40
0.0
 40
0.0
 40
0.0
 40
0.0
 40
0.0
 40
0.0
 40
0.0
 40
0.0008446498216244419
 40
0.0008446498216244419
 40
0.0008446498216244419
 40
0.0008446498216244419
 40
0.0008446498216244419
 40
0.0008446498216244419
 40
0.0008446498216244419
 40
0.0017250011810022185
 40
0.0017250011810022185
 40
0.0017250011810022185
 40
0.0017250011810022185
 40
0.0017250011810022185
 40
0.0017250011810022185
 40
0.0017250011810022185
 40
0.0026053525403897616
 40
0.0026053525403897616
 40
0.0026053525403897616
 40
0.0026053525403897616
 40
0.0026053525403897616
 40
0.0026053525403897616
 40
0.0026053525403897616
 40
0.003661774171633347
 40
0.003661774171633347
 40
0.003661774171633347
 40
0.003661774171633347
 40
0.003661774171633347
 40
0.003661774171633347
 40
0.003661774171633347
 40
0.005226119393390238
 40
0.005226119393390238
 40
0.005226119393390238
 40
0.005226119393390238
 40
0.005226119393390238
 40
0.005226119393390238
 40
0.005226119393390238
 40
0.008059108486318809
 40
0.008059108486318809
 40
0.008059108486318809
 40
0.008059108486318809
 40
0.008059108486318809
 40
0.008059108486318809
 40
0.008059108486318809
 40
0.012785659855642565
 40
0.012785659855642565
 40
0.012785659855642565
 40
0.012785659855642565
 40
0.012785659855642565
 40
0.012785659855642565
 40
0.012785659855642565
 40
0.02249666530910359
 40
0.02249666530910359
 40
0.02249666530910359
 40
0.02249666530910359
 40
0.02249666530910359
 40
0.02249666530910359
 40
0.02249666530910359
 40
0.04146212884995998
 40
0.04146212884995998
 40
0.04146212884995998
 40
0.04146212884995998
 40
0.04146212884995998
 40
0.04146212884995998
 40
0.04146212884995998
 40
0.06787882047528901
 40
0.06787882047528901
 40
0.06787882047528901
 40
0.06787882047528901
 40
0.06787882047528901
 40
0.06787882047528901
 40
0.06787882047528901
 40
0.1168216141519619
 40
0.1168216141519619
 40
0.1168216141519619
 40
0.1168216141519619
 40
0.1168216141519619
 40
0.1168216141519619
 40
0.1168216141519619
 40
0.18045372961816336
 40
0.18045372961816336
 40
0.18045372961816336
 40
0.18045372961816336
 40
0.18045372961816336
 40
0.18045372961816336
 40
0.18045372961816336
 40
0.23033396781922658
 40
0.23033396781922658
 40
0.23033396781922658
 40
0.23033396781922658
 40
0.23033396781922658
 40
0.23033396781922658
 40
0.23033396781922658
 40
0.2731236678788859
 40
0.2731236678788859
 40
0.2731236678788859
 40
0.2731236678788859
 40
0.2731236678788859
 40
0.2731236678788859
 40
0.2731236678788859
 40
0.3146510103252839
 40
0.3146510103252839
 40
0.3146510103252839
 40
0.3146510103252839
 40
0.3146510103252839
 40
0.3146510103252839
 40
0.3146510103252839
 40
0.3751408402777489
 40
0.3751408402777489
 40
0.3751408402777489
 40
0.3751408402777489
 40
0.3751408402777489
 40
0.3751408402777489
 40
0.3751408402777489
 40
0.41600848571018373
 40
0.41600848571018373
 40
0.41600848571018373
 40
0.41600848571018373
 40
0.41600848571018373
 40
0.41600848571018373
 40
0.41600848571018373
 40
0.4295932711054742
 40
0.4295932711054742
 40
0.4295932711054742
 40
0.4295932711054742
 40
0.4295932711054742
 40
0.4295932711054742
 40
0.4295932711054742
 40
0.4419425244243624
 40
0.4419425244243624
 40
0.4419425244243624
 40
0.4419425244243624
 40
0.4419425244243624
 40
0.4419425244243624
 40
0.4419425244243624
 40
0.45932615808298044
 40
0.45932615808298044
 40
0.45932615808298044
 40
0.45932615808298044
 40
0.45932615808298044
 40
0.45932615808298044
 40
0.45932615808298044
 40
0.46846330285231613
 40
0.46846330285231613
 40
0.46846330285231613
 40
0.46846330285231613
 40
0.46846330285231613
 40
0.46846330285231613
 40
0.46846330285231613
 40
0.4725286149246835
 40
0.4725286149246835
 40
0.4725286149246835
 40
0.4725286149246835
 40
0.4725286149246835
 40
0.4725286149246835
 40
0.4725286149246835
 40
0.4753297974133009
 40
0.4753297974133009
 40
0.4753297974133009
 40
0.4753297974133009
 40
0.4753297974133009
 40
0.4753297974133009
 40
0.4753297974133009
 40
0.4763843443761262
 40
0.4763843443761262
 40
0.4763843443761262
 40
0.4763843443761262
 40
0.4763843443761262
 40
0.4763843443761262
 40
0.4763843443761262
 40
0.47804148960343046
 40
0.47804148960343046
 40
0.47804148960343046
 40
0.47804148960343046
 40
0.47804148960343046
 40
0.47804148960343046
 40
0.47804148960343046
 40
0.479698634830751
 40
0.479698634830751
 40
0.479698634830751
 40
0.479698634830751
 40
0.479698634830751
 40
0.479698634830751
 40
0.479698634830751
 40
0.4813921235032307
 40
0.4813921235032307
 40
0.4813921235032307
 40
0.4813921235032307
 40
0.4813921235032307
 40
0.4813921235032307
 40
0.4813921235032307
 40
0.4830927606142516
 40
0.4830927606142516
 40
0.4830927606142516
 40
0.4830927606142516
 40
0.4830927606142516
 40
0.4830927606142516
 40
0.4830927606142516
 40
0.48555525396590776
 40
0.48555525396590776
 40
0.48555525396590776
 40
0.48555525396590776
 40
0.48555525396590776
 40
0.48555525396590776
 40
0.48555525396590776
 40
0.48737398840959223
 40
0.48737398840959223
 40
0.48737398840959223
 40
0.48737398840959223
 40
0.48737398840959223
 40
0.48737398840959223
 40
0.48737398840959223
 40
0.4891927228532518
 40
0.4891927228532518
 40
0.4891927228532518
 40
0.4891927228532518
 40
0.4891927228532518
 40
0.4891927228532518
 40
0.4891927228532518
 40
0.49231055332807416
 40
0.49231055332807416
 40
0.49231055332807416
 40
0.49231055332807416
 40
0.49231055332807416
 40
0.49231055332807416
 40
0.49231055332807416
 40
0.4954283838028919
 40
0.4954283838028919
 40
0.4954283838028919
 40
0.4954283838028919
 40
0.4954283838028919
 40
0.4954283838028919
 40
0.4954283838028919
 40
0.5007070713582473
 40
0.5007070713582473
 40
0.5007070713582473
 40
0.5007070713582473
 40
0.5007070713582473
 40
0.5007070713582473
 40
0.5007070713582473
 40
0.5110102728918064
 40
0.5110102728918064
 40
0.5110102728918064
 40
0.5110102728918064
 40
0.5110102728918064
 40
0.5110102728918064
 40
0.5110102728918064
 40
0.5311322753354677
 40
0.5311322753354677
 40
0.5311322753354677
 40
0.5311322753354677
 40
0.5311322753354677
 40
0.5311322753354677
 40
0.5311322753354677
 40
0.5591602524489224
 40
0.5591602524489224
 40
0.5591602524489224
 40
0.5591602524489224
 40
0.5591602524489224
 40
0.5591602524489224
 40
0.5591602524489224
 40
0.6110924754306297
 40
0.6110924754306297
 40
0.6110924754306297
 40
0.6110924754306297
 40
0.6110924754306297
 40
0.6110924754306297
 40
0.6110924754306297
 40
0.6786226860154667
 40
0.6786226860154667
 40
0.6786226860154667
 40
0.6786226860154667
 40
0.6786226860154667
 40
0.6786226860154667
 40
0.6786226860154667
 40
0.7315703714777653
 40
0.7315703714777653
 40
0.7315703714777653
 40
0.7315703714777653
 40
0.7315703714777653
 40
0.7315703714777653
 40
0.7315703714777653
 40
0.7770018613004728
 40
0.7770018613004728
 40
0.7770018613004728
 40
0.7770018613004728
 40
0.7770018613004728
 40
0.7770018613004728
 40
0.7770018613004728
 40
0.8211012739171487
 40
0.8211012739171487
 40
0.8211012739171487
 40
0.8211012739171487
 40
0.8211012739171487
 40
0.8211012739171487
 40
0.8211012739171487
 40
0.8853490256981899
 40
0.8853490256981899
 40
0.8853490256981899
 40
0.8853490256981899
 40
0.8853490256981899
 40
0.8853490256981899
 40
0.8853490256981899
 40
0.9287615576212607
 40
0.9287615576212607
 40
0.9287615576212607
 40
0.9287615576212607
 40
0.9287615576212607
 40
0.9287615576212607
 40
0.9287615576212607
 40
0.9431928882496248
 40
0.9431928882496248
 40
0.9431928882496248
 40
0.9431928882496248
 40
0.9431928882496248
 40
0.9431928882496248
 40
0.9431928882496248
 40
0.9563116972864335
 40
0.9563116972864335
 40
0.9563116972864335
 40
0.9563116972864335
 40
0.9563116972864335
 40
0.9563116972864335
 40
0.9563116972864335
 40
0.9747786043569016
 40
0.9747786043569016
 40
0.9747786043569016
 40
0.9747786043569016
 40
0.9747786043569016
 40
0.9747786043569016
 40
0.9747786043569016
 40
0.98448512847574
 40
0.98448512847574
 40
0.98448512847574
 40
0.98448512847574
 40
0.98448512847574
 40
0.98448512847574
 40
0.98448512847574
 40
0.9888037613264576
 40
0.9888037613264576
 40
0.9888037613264576
 40
0.9888037613264576
 40
0.9888037613264576
 40
0.9888037613264576
 40
0.9888037613264576
 40
0.9917794783939199
 40
0.9917794783939199
 40
0.9917794783939199
 40
0.9917794783939199
 40
0.9917794783939199
 40
0.9917794783939199
 40
0.9917794783939199
 40
0.9928997248294327
 40
0.9928997248294327
 40
0.9928997248294327
 40
0.9928997248294327
 40
0.9928997248294327
 40
0.9928997248294327
 40
0.9928997248294327
 40
0.994660112085238
 40
0.994660112085238
 40
0.994660112085238
 40
0.994660112085238
 40
0.994660112085238
 40
0.994660112085238
 40
0.994660112085238
 40
0.9964204993410413
 40
0.9964204993410413
 40
0.9964204993410413
 40
0.9964204993410413
 40
0.9964204993410413
 40
0.9964204993410413
 40
0.9964204993410413
 40
0.997700780981622
 40
0.997700780981622
 40
0.997700780981622
 40
0.997700780981622
 40
0.997700780981622
 40
0.997700780981622
 40
0.997700780981622
 40
1.0
 40
1.0
 40
1.0
 40
1.0
 40
1.0
 40
1.0
 40
1.0
 40
1.0
 40
1.0
 10
24.869479234274845
 20
194.39565073480432
 30
1627.0
 10
24.86935716853107
 20
194.3957743624017
 30
1627.0
 10
24.869383046032258
 20
194.39560380613784
 30
1627.0
 10
24.869461315860374
 20
194.39540689360564
 30
1627.0
 10
24.869527568864495
 20
194.39531627950356
 30
1627.0
 10
24.86954853766082
 20
194.3953294456355
 30
1627.0
 10
24.86952209663261
 20
194.3953087009107
 30
1627.0
 10
24.869477261930236
 20
194.3949811813438
 30
1627.0
 10
24.869470991230365
 20
194.3928524616562
 30
1627.0
 10
24.869466243620394
 20
194.3912407865594
 30
1627.0
 10
24.869459512203786
 20
194.3889556669776
 30
1627.0
 10
24.86945036054308
 20
194.38584894512414
 30
1627.0
 10
24.869438352200817
 20
194.38177246321234
 30
1627.0
 10
24.869423050739538
 20
194.3765780634555
 30
1627.0
 10
24.869404019721784
 20
194.370117588067
 30
1627.0
 10
24.86935762569841
 20
194.3543681704534
 30
1627.0
 10
24.869330262692777
 20
194.34507922822814
 30
1627.0
 10
24.86929829725576
 20
194.33422789479783
 30
1627.0
 10
24.86926129294988
 20
194.32166601237586
 30
1627.0
 10
24.869218813337685
 20
194.30724542317554
 30
1627.0
 10
24.869170421981718
 20
194.29081796941014
 30
1627.0
 10
24.86911568244451
 20
194.2722354932929
 30
1627.0
 10
24.86898032930152
 20
194.22628704953027
 30
1627.0
 10
24.868896730463526
 20
194.19790768262357
 30
1627.0
 10
24.868802607610665
 20
194.16595571966198
 30
1627.0
 10
24.868697206579014
 20
194.1301751439904
 30
1627.0
 10
24.86857977320466
 20
194.09030993895365
 30
1627.0
 10
24.86844955332366
 20
194.04610408789603
 30
1627.0
 10
24.868305792772087
 20
193.99730157416187
 30
1627.0
 10
24.86791368955823
 20
193.86419397079433
 30
1627.0
 10
24.86767820933471
 20
193.78425530390788
 30
1627.0
 10
24.867441902106066
 20
193.70403589296612
 30
1627.0
 10
24.867205025159517
 20
193.6236230792803
 30
1627.0
 10
24.86696779258553
 20
193.5430895406129
 30
1627.0
 10
24.866730281574835
 20
193.46246148069818
 30
1627.0
 10
24.866492526878147
 20
193.38175069653104
 30
1627.0
 10
24.86582339479109
 20
193.15459987170289
 30
1627.0
 10
24.865391660349225
 20
193.00803862248782
 30
1627.0
 10
24.864959503053512
 20
192.86133382669757
 30
1627.0
 10
24.86452704439856
 20
192.71452672826302
 30
1627.0
 10
24.864094366204384
 20
192.56764510266584
 30
1627.0
 10
24.863661521178173
 20
192.42070684243717
 30
1627.0
 10
24.863228527918096
 20
192.27371826115453
 30
1627.0
 10
24.862072731396843
 20
191.88135905702657
 30
1627.0
 10
24.861349740667382
 20
191.63592479417485
 30
1627.0
 10
24.860626510902787
 20
191.3904093858534
 30
1627.0
 10
24.859903102156135
 20
191.1448332183594
 30
1627.0
 10
24.85917955615455
 20
190.89921045682462
 30
1627.0
 10
24.85845590104623
 20
190.65355065671713
 30
1627.0
 10
24.857732151074224
 20
190.40785865316937
 30
1627.0
 10
24.855521133967756
 20
189.65728284137313
 30
1627.0
 10
24.854033624577426
 20
189.15231679430923
 30
1627.0
 10
24.8525458878096
 20
188.64727355929102
 30
1627.0
 10
24.85105798486201
 20
188.1421739110008
 30
1627.0
 10
24.84956995747678
 20
187.63703201976747
 30
1627.0
 10
24.848081833143677
 20
187.1318572176429
 30
1627.0
 10
24.84659362391682
 20
186.62665359649148
 30
1627.0
 10
24.842198717358023
 20
185.13471102016078
 30
1627.0
 10
24.83929183646434
 20
184.14790975110182
 30
1627.0
 10
24.83638477355555
 20
183.16104669323343
 30
1627.0
 10
24.83347757767235
 20
182.17413849441755
 30
1627.0
 10
24.830570282242213
 20
181.18719650231998
 30
1627.0
 10
24.82766290926958
 20
180.20022818682574
 30
1627.0
 10
24.824755468391047
 20
179.21323681923872
 30
1627.0
 10
24.817798140841912
 20
176.8514270630669
 30
1627.0
 10
24.81374812785897
 20
175.47659405839073
 30
1627.0
 10
24.809702842370328
 20
174.10173507755454
 30
1627.0
 10
24.805664733076526
 20
172.72685638681827
 30
1627.0
 10
24.801635533053727
 20
171.35196231501547
 30
1627.0
 10
24.797616638037134
 20
169.97705586993428
 30
1627.0
 10
24.793609011509538
 20
168.6021385816424
 30
1627.0
 10
24.782210986344
 20
164.67985236996807
 30
1627.0
 10
24.77485010988204
 20
162.1324621820535
 30
1627.0
 10
24.767536217959204
 20
159.58504938979377
 30
1627.0
 10
24.760272607786902
 20
157.03761919229302
 30
1627.0
 10
24.75306204550329
 20
154.49017524530078
 30
1627.0
 10
24.74590710843588
 20
151.94272015629593
 30
1627.0
 10
24.738810129964115
 20
149.39525542903706
 30
1627.0
 10
24.722624961477646
 20
143.53572882743833
 30
1627.0
 10
24.713578436791053
 20
140.22366194929464
 30
1627.0
 10
24.704639130565013
 20
136.9115841992927
 30
1627.0
 10
24.695812253783103
 20
133.5994977045714
 30
1627.0
 10
24.68710327679146
 20
130.2874040655325
 30
1627.0
 10
24.6785181392675
 20
126.9753045409874
 30
1627.0
 10
24.67006342263477
 20
123.66320013478516
 30
1627.0
 10
24.65522696516449
 20
117.75478055050039
 30
1627.0
 10
24.648792104547184
 20
115.15846704359868
 30
1627.0
 10
24.64244546808634
 20
112.56215147618792
 30
1627.0
 10
24.636190903126135
 20
109.96583421878329
 30
1627.0
 10
24.630032621895367
 20
107.36951560813806
 30
1627.0
 10
24.623975284062315
 20
104.77319595593744
 30
1627.0
 10
24.618024079289498
 20
102.17687555749306
 30
1627.0
 10
24.60717559973801
 20
97.35330409501192
 30
1627.0
 10
24.602248194941033
 20
95.12605315913682
 30
1627.0
 10
24.597412012279577
 20
92.89880206160436
 30
1627.0
 10
24.592653814605217
 20
90.6715510226144
 30
1627.0
 10
24.58797133445261
 20
88.44430023950393
 30
1627.0
 10
24.58336612061394
 20
86.21704990709362
 30
1627.0
 10
24.578830570347172
 20
83.98980025108689
 30
1627.0
 10
24.570029416630515
 20
79.60100977232739
 30
1627.0
 10
24.565759448023666
 20
77.43946890325253
 30
1627.0
 10
24.56155178239344
 20
75.27792909180305
 30
1627.0
 10
24.557404186402
 20
73.1163905597353
 30
1627.0
 10
24.553314592238987
 20
70.95485355076252
 30
1627.0
 10
24.549281074710105
 20
68.79331833682618
 30
1627.0
 10
24.545301828325616
 20
66.63178522436714
 30
1627.0
 10
24.535655432275796
 20
61.321711586597175
 30
1627.0
 10
24.530047247853783
 20
58.17317403595486
 30
1627.0
 10
24.52454530877525
 20
55.024642764768814
 30
1627.0
 10
24.5191448037425
 20
51.87611899324868
 30
1627.0
 10
24.51384119816938
 20
48.727604463027035
 30
1627.0
 10
24.508630161201243
 20
45.57910147884455
 30
1627.0
 10
24.50350735768628
 20
42.43061315610748
 30
1627.0
 10
24.495063096736473
 20
37.1550012822824
 30
1627.0
 10
24.491696370845826
 20
35.02786808376091
 30
1627.0
 10
24.488366111855235
 20
32.90074537164255
 30
1627.0
 10
24.4850707371858
 20
30.773634721200494
 30
1627.0
 10
24.4818082512994
 20
28.646539119181384
 30
1627.0
 10
24.47857636426541
 20
26.519462820111855
 30
1627.0
 10
24.475372094170798
 20
24.39241195275655
 30
1627.0
 10
24.471132014604414
 20
21.55835795314358
 30
1627.0
 10
24.470097853777652
 20
20.865507983192657
 30
1627.0
 10
24.469087350180445
 20
20.187103161383554
 30
1627.0
 10
24.468100507367645
 20
19.52339918078843
 30
1627.0
 10
24.467137328894133
 20
18.874651734479503
 30
1627.0
 10
24.46619781831477
 20
18.241116515528965
 30
1627.0
 10
24.465281979184418
 20
17.62304921700904
 30
1627.0
 10
24.463578792985917
 20
16.473144820882936
 30
1627.0
 10
24.46276813923335
 20
15.925589275217646
 30
1627.0
 10
24.46195736629797
 20
15.378039691744533
 30
1627.0
 10
24.461146449958388
 20
14.830496551724792
 30
1627.0
 10
24.460335821810858
 20
14.282960549186242
 30
1627.0
 10
24.459524997052704
 20
13.735432711849171
 30
1627.0
 10
24.458714269480726
 20
13.187914114482197
 30
1627.0
 10
24.456762310462537
 20
11.869697322342002
 30
1627.0
 10
24.455621113987192
 20
11.099012874574257
 30
1627.0
 10
24.45447995456595
 20
10.328353393141104
 30
1627.0
 10
24.45333883746661
 20
9.557722428798854
 30
1627.0
 10
24.452197774654465
 20
8.787128053152966
 30
1627.0
 10
24.451056784290703
 20
8.016582519797609
 30
1627.0
 10
24.44991589300293
 20
7.246103795744684
 30
1627.0
 10
24.448175550061073
 20
6.070796872805442
 30
1627.0
 10
24.447576001888013
 20
5.66590358301562
 30
1627.0
 10
24.44697650256891
 20
5.26104324699077
 30
1627.0
 10
24.446377058743472
 20
4.856220344173437
 30
1627.0
 10
24.445777686866926
 20
4.451445980984708
 30
1627.0
 10
24.445178412180315
 20
4.0467371955985385
 30
1627.0
 10
24.444579271952435
 20
3.642119145983191
 30
1627.0
 10
24.443713850767693
 20
3.057673149138843
 30
1627.0
 10
24.443447414083327
 20
2.877740104571373
 30
1627.0
 10
24.443181024889377
 20
2.6978391126602936
 30
1627.0
 10
24.44291469042921
 20
2.517975063143865
 30
1627.0
 10
24.442648423819413
 20
2.338156811420035
 30
1627.0
 10
24.442382244118306
 20
2.1583972249093293
 30
1627.0
 10
24.44211617831347
 20
1.978714525026632
 30
1627.0
 10
24.441667044930142
 20
1.6754004032881369
 30
1627.0
 10
24.441483918968313
 20
1.5517295731935974
 30
1627.0
 10
24.441300883234497
 20
1.428119656763073
 30
1627.0
 10
24.441117951470467
 20
1.3045799317598323
 30
1627.0
 10
24.440935152867667
 20
1.1811301082628063
 30
1627.0
 10
24.44075255149465
 20
1.0578134492624542
 30
1627.0
 10
24.44057023054708
 20
0.9346861328585021
 30
1627.0
 10
24.44031989620927
 20
0.7656270728902114
 30
1627.0
 10
24.440254400401084
 20
0.7213955796201729
 30
1627.0
 10
24.440191800346028
 20
0.6791196773585266
 30
1627.0
 10
24.440132020842142
 20
0.6387485800992896
 30
1627.0
 10
24.44007498668746
 20
0.6002315018364937
 30
1627.0
 10
24.44002062268002
 20
0.563517656564185
 30
1627.0
 10
24.439968853617863
 20
0.5285562582764243
 30
1627.0
 10
24.4398422125123
 20
0.44303121948125584
 30
1627.0
 10
24.43977104294886
 20
0.3949679787794927
 30
1627.0
 10
24.439705803790034
 20
0.35090972546835525
 30
1627.0
 10
24.43964620321713
 20
0.31065938615431526
 30
1627.0
 10
24.43959194941145
 20
0.2740198874439577
 30
1627.0
 10
24.439542750554303
 20
0.24079415594398162
 30
1627.0
 10
24.439498314826995
 20
0.21078511826119953
 30
1627.0
 10
24.439418385994692
 20
0.15680628374360592
 30
1627.0
 10
24.439382892889682
 20
0.1328364869085569
 30
1627.0
 10
24.43935157927714
 20
0.11168923710395769
 30
1627.0
 10
24.439324153338358
 20
0.09316746093640639
 30
1627.0
 10
24.43930032325465
 20
0.07707408501253253
 30
1627.0
 10
24.439279797207323
 20
0.06321203593899682
 30
1627.0
 10
24.439262283377694
 20
0.05138424032249134
 30
1627.0
 10
24.43923237207639
 20
0.03118390145114347
 30
1627.0
 10
24.439218555570534
 20
0.021853024900600815
 30
1627.0
 10
24.439206932551123
 20
0.014003479303283939
 30
1627.0
 10
24.43919809207118
 20
0.00803307760173766
 30
1627.0
 10
24.43919218863925
 20
0.004046172500725476
 30
1627.0
 10
24.439188840336005
 20
0.0017848501057571298
 30
1627.0
 10
24.439187227149517
 20
0.0006953365615771645
 30
1627.0
 10
24.43918589034568
 20
-0.00020754201906569847
 30
1627.0
 10
24.43918645590967
 20
-2.1251727766014028e-05
 30
1627.0
 10
24.439185888008378
 20
0.0002681386622498394
 30
1627.0
 10
24.439185833802277
 20
0.00017532636900341458
 30
1627.0
 10
24.43918749268333
 20
-0.0008711941406325252
 30
1627.0
 10
24.439191293304035
 20
-0.003429784170414507
 30
1627.0
 10
24.439197799649943
 20
-0.007835570990028629
 30
1627.0
 10
24.439220161367857
 20
-0.0229374919577765
 30
1627.0
 10
24.43923852018722
 20
-0.035336006418333454
 30
1627.0
 10
24.439261378707954
 20
-0.050773306505874416
 30
1627.0
 10
24.439286829335803
 20
-0.06796112424203216
 30
1627.0
 10
24.43931394185532
 20
-0.08627125645600131
 30
1627.0
 10
24.439341887349354
 20
-0.1051439076856866
 30
1627.0
 10
24.439370441182632
 20
-0.12442737775117507
 30
1627.0
 10
24.439421368429635
 20
-0.15882042594971327
 30
1627.0
 10
24.4394446732023
 20
-0.1745589912059882
 30
1627.0
 10
24.439469723235742
 20
-0.19147618753548554
 30
1627.0
 10
24.439496593731914
 20
-0.20962280094399954
 30
1627.0
 10
24.439525359892794
 20
-0.22904961743742955
 30
1627.0
 10
24.439556096920334
 20
-0.24980742302178022
 30
1627.0
 10
24.4395888800165
 20
-0.2719470037031613
 30
1627.0
 10
24.43965868875001
 20
-0.319091287272073
 30
1627.0
 10
24.439695714387355
 20
-0.3440959901595002
 30
1627.0
 10
24.439734936497246
 20
-0.3705840401558314
 30
1627.0
 10
24.439776430281636
 20
-0.39860622326690626
 30
1627.0
 10
24.43982027094252
 20
-0.42821332549864216
 30
1627.0
 10
24.43986653368183
 20
-0.4594561328570339
 30
1627.0
 10
24.43991529370153
 20
-0.4923854313481541
 30
1627.0
 10
24.44005462477856
 20
-0.5864804223434421
 30
1627.0
 10
24.440150183301697
 20
-0.6510143052183536
 30
1627.0
 10
24.440253680633006
 20
-0.7209095104665347
 30
1627.0
 10
24.44036549563254
 20
-0.79642189295169
 30
1627.0
 10
24.440486007160324
 20
-0.8778073075375822
 30
1627.0
 10
24.44061559407638
 20
-0.9653216090880323
 30
1627.0
 10
24.440754635240744
 20
-1.0592206524669194
 30
1627.0
 10
24.441052383786147
 20
-1.2602999326092859
 30
1627.0
 10
24.44121109116718
 20
-1.3674801693726795
 30
1627.0
 10
24.441380010516582
 20
-1.4815568576921143
 30
1627.0
 10
24.44155952069438
 20
-1.602785852431358
 30
1627.0
 10
24.441750000560603
 20
-1.7314230084541944
 30
1627.0
 10
24.441951828975277
 20
-1.867724180624421
 30
1627.0
 10
24.44216538479845
 20
-2.011945223805853
 30
1627.0
 10
24.442773107327582
 20
-2.4223595261413777
 30
1627.0
 10
24.443155376186272
 20
-2.6805177518643077
 30
1627.0
 10
24.44353778775598
 20
-2.938772306596796
 30
1627.0
 10
24.443920303734775
 20
-3.1970973312231763
 30
1627.0
 10
24.44430289796289
 20
-3.4554751646792283
 30
1627.0
 10
24.444685553193498
 20
-3.713894163992208
 30
1627.0
 10
24.44506826182336
 20
-3.9723491976579908
 30
1627.0
 10
24.446198113599568
 20
-4.735373147905364
 30
1627.0
 10
24.446945372136994
 20
-5.240019921251104
 30
1627.0
 10
24.44769274515666
 20
-5.744743932569492
 30
1627.0
 10
24.44844020185697
 20
-6.2495243922189445
 30
1627.0
 10
24.449187721230537
 20
-6.754347121779158
 30
1627.0
 10
24.44993528944129
 20
-7.2592027841229765
 30
1627.0
 10
24.45068290041612
 20
-7.764087282899961
 30
1627.0
 10
24.45289070796071
 20
-9.255086956145586
 30
1627.0
 10
24.454350997023212
 20
-10.241264483657957
 30
1627.0
 10
24.455811377812925
 20
-11.22750383952452
 30
1627.0
 10
24.45727182563543
 20
-12.213788364988773
 30
1627.0
 10
24.458732323657387
 20
-13.200106705326231
 30
1627.0
 10
24.460192860795125
 20
-14.18645138602924
 30
1627.0
 10
24.461653432189458
 20
-15.172819133358288
 30
1627.0
 10
24.465148516393835
 20
-17.533154364626224
 30
1627.0
 10
24.467182967634546
 20
-18.907136475148768
 30
1627.0
 10
24.469222264716617
 20
-20.281144559525174
 30
1627.0
 10
24.47126883011853
 20
-21.65517233616839
 30
1627.0
 10
24.473324378659665
 20
-23.029215466093476
 30
1627.0
 10
24.475390293344677
 20
-24.40327093367894
 30
1627.0
 10
24.477467531138963
 20
-25.7773372028365
 30
1627.0
 10
24.483428392206562
 20
-29.697399740868473
 30
1627.0
 10
24.487341654889182
 20
-32.24341716571774
 30
1627.0
 10
24.491302033930307
 20
-34.78945700963761
 30
1627.0
 10
24.49531280280263
 20
-37.33551405377622
 30
1627.0
 10
24.499376709803705
 20
-39.881584627074076
 30
1627.0
 10
24.503496318429015
 20
-42.42766610866258
 30
1627.0
 10
24.50767395229288
 20
-44.97375698298793
 30
1627.0
 10
24.51742295576879
 20
-50.83068387354251
 30
1627.0
 10
24.5230360614635
 20
-54.14152471978333
 30
1627.0
 10
24.52875649708755
 20
-57.45237598139307
 30
1627.0
 10
24.534589456731993
 20
-60.76323550590555
 30
1627.0
 10
24.540540394347843
 20
-64.0741016672856
 30
1627.0
 10
24.54661523260363
 20
-67.3849731796014
 30
1627.0
 10
24.55282053423979
 20
-70.69584900957523
 30
1627.0
 10
24.564137003390524
 20
-76.60265395102964
 30
1627.0
 10
24.569195080425267
 20
-79.19858162196074
 30
1627.0
 10
24.574341423716028
 20
-81.79451097181473
 30
1627.0
 10
24.579579871507697
 20
-84.39044161296108
 30
1627.0
 10
24.58491462560318
 20
-86.9863731900797
 30
1627.0
 10
24.590350333368626
 20
-89.58230537111056
 30
1627.0
 10
24.595892169738583
 20
-92.17823783820339
 30
1627.0
 10
24.60639708995382
 20
-97.00159678880938
 30
1627.0
 10
24.611330087509945
 20
-99.22902327497499
 30
1627.0
 10
24.616354319632837
 20
-101.45644952678836
 30
1627.0
 10
24.621456534589083
 20
-103.68387538236374
 30
1627.0
 10
24.62663445653972
 20
-105.91130065380577
 30
1627.0
 10
24.63188962820847
 20
-108.13872513927879
 30
1627.0
 10
24.6372144376935
 20
-110.36614864720195
 30
1627.0
 10
24.647844023539495
 20
-114.75568397586547
 30
1627.0
 10
24.653144460433
 20
-116.91779586164432
 30
1627.0
 10
24.65850718825207
 20
-119.07990642002537
 30
1627.0
 10
24.663929967522986
 20
-121.24201543912639
 30
1627.0
 10
24.669410724940526
 20
-123.40412268445465
 30
1627.0
 10
24.674947530312956
 20
-125.56622789274148
 30
1627.0
 10
24.68053857350706
 20
-127.7283307657772
 30
1627.0
 10
24.694404168109457
 20
-133.04036128382606
 30
1627.0
 10
24.70273768089412
 20
-136.1902856992819
 30
1627.0
 10
24.711177381944182
 20
-139.34020337774672
 30
1627.0
 10
24.71971844513826
 20
-142.49011312124568
 30
1627.0
 10
24.728356320581703
 20
-145.64001320962717
 30
1627.0
 10
24.737086661040518
 20
-148.78990135948592
 30
1627.0
 10
24.745905112785945
 20
-151.93977447813234
 30
1627.0
 10
24.760821570061925
 20
-157.21799982806613
 30
1627.0
 10
24.76687439291244
 20
-159.34636189151468
 30
1627.0
 10
24.77296361791184
 20
-161.4747133177453
 30
1627.0
 10
24.779087654345656
 20
-163.60305253988196
 30
1627.0
 10
24.785244492908134
 20
-165.73137658232568
 30
1627.0
 10
24.79143182476012
 20
-167.85968120409828
 30
1627.0
 10
24.79764664163177
 20
-169.98796029485325
 30
1627.0
 10
24.805956492392053
 20
-172.8236801805113
 30
1627.0
 10
24.80799052008984
 20
-173.5169611868954
 30
1627.0
 10
24.809984240692955
 20
-174.1957898674743
 30
1627.0
 10
24.81193652473283
 20
-174.85991004380085
 30
1627.0
 10
24.813846242740844
 20
-175.50906553742809
 30
1627.0
 10
24.81571226524843
 20
-176.14300016990902
 30
1627.0
 10
24.817533462786997
 20
-176.76145776279662
 30
1627.0
 10
24.820922491604275
 20
-177.91208906175765
 30
1627.0
 10
24.822536622529583
 20
-178.4599908227056
 30
1627.0
 10
24.82415060794142
 20
-179.00788662443605
 30
1627.0
 10
24.825764421515647
 20
-179.55577598986005
 30
1627.0
 10
24.827378491483437
 20
-180.1036582183756
 30
1627.0
 10
24.828992328819943
 20
-180.65153229004335
 30
1627.0
 10
24.83060622236627
 20
-181.1993971260627
 30
1627.0
 10
24.83449182940134
 20
-182.51844737046534
 30
1627.0
 10
24.83676351698677
 20
-183.28961904010202
 30
1627.0
 10
24.839035131074528
 20
-184.06076575941438
 30
1627.0
 10
24.841306661211135
 20
-184.8318839797616
 30
1627.0
 10
24.843578083634895
 20
-185.6029656347464
 30
1627.0
 10
24.845849362272865
 20
-186.37399847864796
 30
1627.0
 10
24.848120444231753
 20
-187.1449645557298
 30
1627.0
 10
24.851584807244052
 20
-188.32101474218152
 30
1627.0
 10
24.852778279917494
 20
-188.72616390096
 30
1627.0
 10
24.853971655579176
 20
-189.13128012707608
 30
1627.0
 10
24.855164921041645
 20
-189.53635894376652
 30
1627.0
 10
24.856358043609056
 20
-189.9413892517552
 30
1627.0
 10
24.857550973123058
 20
-190.34635402375235
 30
1627.0
 10
24.858743635520522
 20
-190.7512281174672
 30
1627.0
 10
24.86046636302867
 20
-191.33604385414637
 30
1627.0
 10
24.860996737535334
 20
-191.5160905280125
 30
1627.0
 10
24.861527017682185
 20
-191.69610516949453
 30
1627.0
 10
24.862057189075045
 20
-191.87608289215027
 30
1627.0
 10
24.8625872256441
 20
-192.05601484605512
 30
1627.0
 10
24.86311708950839
 20
-192.23588817174812
 30
1627.0
 10
24.863646727025976
 20
-192.41568465932085
 30
1627.0
 10
24.86454078266427
 20
-192.71919046872463
 30
1627.0
 10
24.864905316797017
 20
-192.8429391732673
 30
1627.0
 10
24.865269671608782
 20
-192.96662700350876
 30
1627.0
 10
24.865633819780577
 20
-193.09024468560705
 30
1627.0
 10
24.86599770329827
 20
-193.21377252525943
 30
1627.0
 10
24.866361194785767
 20
-193.3371672821636
 30
1627.0
 10
24.86672412886271
 20
-193.46037281441104
 30
1627.0
 10
24.867222453558316
 20
-193.6295395123304
 30
1627.0
 10
24.867352831368358
 20
-193.67379897569168
 30
1627.0
 10
24.867477444831465
 20
-193.716101611413
 30
1627.0
 10
24.867596443645677
 20
-193.75649823761538
 30
1627.0
 10
24.867709977509033
 20
-193.79503967241942
 30
1627.0
 10
24.867818196119597
 20
-193.8317767339461
 30
1627.0
 10
24.867921249175414
 20
-193.86676024031627
 30
1627.0
 10
24.868173344830293
 20
-193.95233936146195
 30
1627.0
 10
24.86831501719094
 20
-194.0004329952871
 30
1627.0
 10
24.868444884354734
 20
-194.0445191091401
 30
1627.0
 10
24.868563527219926
 20
-194.08479490103517
 30
1627.0
 10
24.868671526684786
 20
-194.12145756898627
 30
1627.0
 10
24.868769463647563
 20
-194.15470431100755
 30
1627.0
 10
24.868857919006526
 20
-194.1847323251131
 30
1627.0
 10
24.86901702831333
 20
-194.2387452935208
 30
1627.0
 10
24.869087682261167
 20
-194.26273024782296
 30
1627.0
 10
24.869150016401722
 20
-194.2838908702375
 30
1627.0
 10
24.86920461163322
 20
-194.3024243587786
 30
1627.0
 10
24.869252048853948
 20
-194.3185279114602
 30
1627.0
 10
24.869292908962148
 20
-194.33239872629642
 30
1627.0
 10
24.869327772856085
 20
-194.34423400130134
 30
1627.0
 10
24.869378638581612
 20
-194.36150143135302
 30
1627.0
 10
24.86939719142983
 20
-194.36779958213174
 30
1627.0
 10
24.86941310343465
 20
-194.37320124361204
 30
1627.0
 10
24.86942659805206
 20
-194.37778227258084
 30
1627.0
 10
24.869437898738028
 20
-194.38161852582485
 30
1627.0
 10
24.86944722894854
 20
-194.38478586013085
 30
1627.0
 10
24.869454812139583
 20
-194.38736013228564
 30
1627.0
 10
24.869471754068684
 20
-194.39311142301585
 30
1627.0
 10
24.869576701085958
 20
-194.39330907489528
 30
1627.0
 10
24.86952985789298
 20
-194.3935591521587
 30
1627.0
 10
24.869389046219737
 20
-194.39465741413954
 30
1627.0
 10
24.869333764487727
 20
-194.3958707851461
 30
1627.0
 10
24.869483187845596
 20
-194.396161757546
 30
1627.0
 10
24.86971416820473
 20
-194.39541279485147
 30
1627.0
 10
24.86947923427484
 20
-194.39565073480432
 30
1627.0
  0
ENDSEC
  0
SECTION
  2
OBJECTS
  0
DICTIONARY
  5
A
330
0
100
AcDbDictionary
281
1
  3
ACAD_COLOR
350
B
  3
ACAD_GROUP
350
C
  3
ACAD_LAYOUT
350
D
  3
ACAD_MATERIAL
350
E
  3
ACAD_MLEADERSTYLE
350
F
  3
ACAD_MLINESTYLE
350
10
  3
ACAD_PLOTSETTINGS
350
11
  3
ACAD_PLOTSTYLENAME
350
12
  3
ACAD_SCALELIST
350
14
  3
ACAD_TABLESTYLE
350
15
  3
ACAD_VISUALSTYLE
350
16
  3
EZDXF_META
350
2D
  0
DICTIONARY
  5
B
330
A
100
AcDbDictionary
281
1
  0
DICTIONARY
  5
C
330
A
100
AcDbDictionary
281
1
  0
DICTIONARY
  5
D
330
A
100
AcDbDictionary
281
1
  3
Model
350
1A
  3
Layout1
350
1E
  0
DICTIONARY
  5
E
330
A
100
AcDbDictionary
281
1
  3
ByBlock
350
1F
  3
ByLayer
350
20
  3
Global
350
21
  0
DICTIONARY
  5
F
330
A
100
AcDbDictionary
281
1
  3
Standard
350
2C
  0
DICTIONARY
  5
10
330
A
100
AcDbDictionary
281
1
  3
Standard
350
22
  0
DICTIONARY
  5
11
330
A
100
AcDbDictionary
281
1
  0
ACDBDICTIONARYWDFLT
  5
12
330
A
100
AcDbDictionary
281
1
  3
Normal
350
13
100
AcDbDictionaryWithDefault
340
13
  0
ACDBPLACEHOLDER
  5
13
330
12
  0
DICTIONARY
  5
14
330
A
100
AcDbDictionary
281
1
  0
DICTIONARY
  5
15
330
A
100
AcDbDictionary
281
1
  0
DICTIONARY
  5
16
330
A
100
AcDbDictionary
281
1
  0
LAYOUT
  5
1A
330
D
100
AcDbPlotSettings
  1

  2
Adobe PDF
  4
A3
  6

 40
7.5
 41
20.0
 42
7.5
 43
20.0
 44
420.0
 45
297.0
 46
0.0
 47
0.0
 48
0.0
 49
0.0
140
0.0
141
0.0
142
1.0
143
1.0
 70
1024
 72
1
 73
1
 74
5
  7

 75
16
 76
0
 77
2
 78
300
147
1.0
148
0.0
149
0.0
100
AcDbLayout
  1
Model
 70
1
 71
0
 10
0.0
 20
0.0
 11
420.0
 21
297.0
 12
0.0
 22
0.0
 32
0.0
 14
1e+20
 24
1e+20
 34
1e+20
 15
-1e+20
 25
-1e+20
 35
-1e+20
146
0.0
 13
0.0
 23
0.0
 33
0.0
 16
1.0
 26
0.0
 36
0.0
 17
0.0
 27
1.0
 37
0.0
 76
1
330
17
  0
LAYOUT
  5
1E
330
D
100
AcDbPlotSettings
  1

  2
Adobe PDF
  4
A3
  6

 40
7.5
 41
20.0
 42
7.5
 43
20.0
 44
420.0
 45
297.0
 46
0.0
 47
0.0
 48
0.0
 49
0.0
140
0.0
141
0.0
142
1.0
143
1.0
 70
0
 72
1
 73
1
 74
5
  7

 75
16
 76
0
 77
2
 78
300
147
1.0
148
0.0
149
0.0
100
AcDbLayout
  1
Layout1
 70
1
 71
1
 10
0.0
 20
0.0
 11
420.0
 21
297.0
 12
0.0
 22
0.0
 32
0.0
 14
1e+20
 24
1e+20
 34
1e+20
 15
-1e+20
 25
-1e+20
 35
-1e+20
146
0.0
 13
0.0
 23
0.0
 33
0.0
 16
1.0
 26
0.0
 36
0.0
 17
0.0
 27
1.0
 37
0.0
 76
1
330
1B
  0
MATERIAL
  5
1F
102
{ACAD_REACTORS
330
E
102
}
330
E
100
AcDbMaterial
  1
ByBlock
  2

 70
0
 40
1.0
 71
1
 41
1.0
 91
-1023410177
 42
1.0
 72
1
  3

 73
1
 74
1
 75
1
 44
0.5
 73
0
 45
1.0
 46
1.0
 77
1
  4

 78
1
 79
1
170
1
 48
1.0
171
1
  6

172
1
173
1
174
1
140
1.0
141
1.0
175
1
  7

176
1
177
1
178
1
143
1.0
179
1
  8

270
1
271
1
272
1
145
1.0
146
1.0
273
1
  9

274
1
275
1
276
1
 42
1.0
 72
1
  3

 73
1
 74
1
 75
1
 94
63
  0
MATERIAL
  5
20
102
{ACAD_REACTORS
330
E
102
}
330
E
100
AcDbMaterial
  1
ByLayer
  2

 70
0
 40
1.0
 71
1
 41
1.0
 91
-1023410177
 42
1.0
 72
1
  3

 73
1
 74
1
 75
1
 44
0.5
 73
0
 45
1.0
 46
1.0
 77
1
  4

 78
1
 79
1
170
1
 48
1.0
171
1
  6

172
1
173
1
174
1
140
1.0
141
1.0
175
1
  7

176
1
177
1
178
1
143
1.0
179
1
  8

270
1
271
1
272
1
145
1.0
146
1.0
273
1
  9

274
1
275
1
276
1
 42
1.0
 72
1
  3

 73
1
 74
1
 75
1
 94
63
  0
MATERIAL
  5
21
102
{ACAD_REACTORS
330
E
102
}
330
E
100
AcDbMaterial
  1
Global
  2

 70
0
 40
1.0
 71
1
 41
1.0
 91
-1023410177
 42
1.0
 72
1
  3

 73
1
 74
1
 75
1
 44
0.5
 73
0
 45
1.0
 46
1.0
 77
1
  4

 78
1
 79
1
170
1
 48
1.0
171
1
  6

172
1
173
1
174
1
140
1.0
141
1.0
175
1
  7

176
1
177
1
178
1
143
1.0
179
1
  8

270
1
271
1
272
1
145
1.0
146
1.0
273
1
  9

274
1
275
1
276
1
 42
1.0
 72
1
  3

 73
1
 74
1
 75
1
 94
63
  0
MLINESTYLE
  5
22
102
{ACAD_REACTORS
330
10
102
}
330
10
100
AcDbMlineStyle
  2
Standard
 70
0
  3

 62
256
 51
90.0
 52
90.0
 71
2
 49
0.5
 62
256
  6
BYLAYER
 49
-0.5
 62
256
  6
BYLAYER
  0
MLEADERSTYLE
  5
2C
102
{ACAD_REACTORS
330
F
102
}
330
F
100
AcDbMLeaderStyle
179
2
170
2
171
1
172
0
 90
2
 40
0.0
 41
0.0
173
1
 91
-1056964608
 92
-2
290
1
 42
2.0
291
1
 43
8.0
  3
Standard
 44
4.0
300

342
29
174
1
175
1
176
0
178
1
 93
-1056964608
 45
4.0
292
0
297
0
 46
4.0
 94
-1056964608
 47
1.0
 49
1.0
140
1.0
294
1
141
0.0
177
0
142
1.0
295
0
296
0
143
3.75
271
0
272
9
273
9
  0
DICTIONARY
  5
2D
330
A
100
AcDbDictionary
280
1
281
1
  3
CREATED_BY_EZDXF
350
2E
  3
WRITTEN_BY_EZDXF
350
78
  0
DICTIONARYVAR
  5
2E
330
2D
100
DictionaryVariables
280
0
  1
0.17 @ 2022-02-15T16:45:35.573046+00:00
  0
DICTIONARYVAR
  5
78
330
2D
100
DictionaryVariables
280
0
  1
0.17 @ 2022-02-15T16:45:35.662219+00:00
  0
ENDSEC
  0
EOF
