  0
SECTION
  2
HEADER
  9
$ACADVER
  1
AC1027
  9
$ACADMAINTVER
 70
105
  9
$DWGCODEPAGE
  3
ANSI_1252
  9
$LASTSAVEDBY
  1
ezdxf
  9
$REQUIREDVERSIONS
160
0
  9
$INSBASE
 10
0.0
 20
0.0
 30
0.0
  9
$EXTMIN
 10
1e+20
 20
1e+20
 30
1e+20
  9
$EXTMAX
 10
-1e+20
 20
-1e+20
 30
-1e+20
  9
$LIMMIN
 10
0.0
 20
0.0
  9
$LIMMAX
 10
420.0
 20
297.0
  9
$ORTHOMODE
 70
0
  9
$REGENMODE
 70
1
  9
$FILLMODE
 70
1
  9
$QTEXTMODE
 70
0
  9
$MIRRTEXT
 70
1
  9
$LTSCALE
 40
1.0
  9
$ATTMODE
 70
1
  9
$TEXTSIZE
 40
2.5
  9
$TRACEWID
 40
1.0
  9
$TEXTSTYLE
  7
Standard
  9
$CLAYER
  8
0
  9
$CELTYPE
  6
ByLayer
  9
$CECOLOR
 62
256
  9
$CELTSCALE
 40
1.0
  9
$DISPSILH
 70
0
  9
$DIMSCALE
 40
1.0
  9
$DIMASZ
 40
2.5
  9
$DIMEXO
 40
0.625
  9
$DIMDLI
 40
3.75
  9
$DIMRND
 40
0.0
  9
$DIMDLE
 40
0.0
  9
$DIMEXE
 40
1.25
  9
$DIMTP
 40
0.0
  9
$DIMTM
 40
0.0
  9
$DIMTXT
 40
2.5
  9
$DIMCEN
 40
2.5
  9
$DIMTSZ
 40
0.0
  9
$DIMTOL
 70
0
  9
$DIMLIM
 70
0
  9
$DIMTIH
 70
0
  9
$DIMTOH
 70
0
  9
$DIMSE1
 70
0
  9
$DIMSE2
 70
0
  9
$DIMTAD
 70
1
  9
$DIMZIN
 70
8
  9
$DIMBLK
  1

  9
$DIMASO
 70
1
  9
$DIMSHO
 70
1
  9
$DIMPOST
  1

  9
$DIMAPOST
  1

  9
$DIMALT
 70
0
  9
$DIMALTD
 70
3
  9
$DIMALTF
 40
0.03937007874
  9
$DIMLFAC
 40
1.0
  9
$DIMTOFL
 70
1
  9
$DIMTVP
 40
0.0
  9
$DIMTIX
 70
0
  9
$DIMSOXD
 70
0
  9
$DIMSAH
 70
0
  9
$DIMBLK1
  1

  9
$DIMBLK2
  1

  9
$DIMSTYLE
  2
ISO-25
  9
$DIMCLRD
 70
0
  9
$DIMCLRE
 70
0
  9
$DIMCLRT
 70
0
  9
$DIMTFAC
 40
1.0
  9
$DIMGAP
 40
0.625
  9
$DIMJUST
 70
0
  9
$DIMSD1
 70
0
  9
$DIMSD2
 70
0
  9
$DIMTOLJ
 70
0
  9
$DIMTZIN
 70
8
  9
$DIMALTZ
 70
0
  9
$DIMALTTZ
 70
0
  9
$DIMUPT
 70
0
  9
$DIMDEC
 70
2
  9
$DIMTDEC
 70
2
  9
$DIMALTU
 70
2
  9
$DIMALTTD
 70
3
  9
$DIMTXSTY
  7
Standard
  9
$DIMAUNIT
 70
0
  9
$DIMADEC
 70
0
  9
$DIMALTRND
 40
0.0
  9
$DIMAZIN
 70
0
  9
$DIMDSEP
 70
44
  9
$DIMATFIT
 70
3
  9
$DIMFRAC
 70
0
  9
$DIMLDRBLK
  1

  9
$DIMLUNIT
 70
2
  9
$DIMLWD
 70
-2
  9
$DIMLWE
 70
-2
  9
$DIMTMOVE
 70
0
  9
$DIMFXL
 40
1.0
  9
$DIMFXLON
 70
0
  9
$DIMJOGANG
 40
0.785398163397
  9
$DIMTFILL
 70
0
  9
$DIMTFILLCLR
 70
0
  9
$DIMARCSYM
 70
0
  9
$DIMLTYPE
  6

  9
$DIMLTEX1
  6

  9
$DIMLTEX2
  6

  9
$DIMTXTDIRECTION
 70
0
  9
$LUNITS
 70
2
  9
$LUPREC
 70
4
  9
$SKETCHINC
 40
1.0
  9
$FILLETRAD
 40
10.0
  9
$AUNITS
 70
0
  9
$AUPREC
 70
2
  9
$MENU
  1
.
  9
$ELEVATION
 40
0.0
  9
$PELEVATION
 40
0.0
  9
$THICKNESS
 40
0.0
  9
$LIMCHECK
 70
0
  9
$CHAMFERA
 40
0.0
  9
$CHAMFERB
 40
0.0
  9
$CHAMFERC
 40
0.0
  9
$CHAMFERD
 40
0.0
  9
$SKPOLY
 70
0
  9
$TDCREATE
 40
2459626.7400115742
  9
$TDUCREATE
 40
2458532.153996898
  9
$TDUPDATE
 40
2459626.7400115742
  9
$TDUUPDATE
 40
2458532.1544311
  9
$TDINDWG
 40
0.0
  9
$TDUSRTIMER
 40
0.0
  9
$USRTIMER
 70
1
  9
$ANGBASE
 50
0.0
  9
$ANGDIR
 70
0
  9
$PDMODE
 70
0
  9
$PDSIZE
 40
0.0
  9
$PLINEWID
 40
0.0
  9
$SPLFRAME
 70
0
  9
$SPLINETYPE
 70
6
  9
$SPLINESEGS
 70
8
  9
$HANDSEED
  5
71
  9
$SURFTAB1
 70
6
  9
$SURFTAB2
 70
6
  9
$SURFTYPE
 70
6
  9
$SURFU
 70
6
  9
$SURFV
 70
6
  9
$UCSBASE
  2

  9
$UCSNAME
  2

  9
$UCSORG
 10
0.0
 20
0.0
 30
0.0
  9
$UCSXDIR
 10
1.0
 20
0.0
 30
0.0
  9
$UCSYDIR
 10
0.0
 20
1.0
 30
0.0
  9
$UCSORTHOREF
  2

  9
$UCSORTHOVIEW
 70
0
  9
$UCSORGTOP
 10
0.0
 20
0.0
 30
0.0
  9
$UCSORGBOTTOM
 10
0.0
 20
0.0
 30
0.0
  9
$UCSORGLEFT
 10
0.0
 20
0.0
 30
0.0
  9
$UCSORGRIGHT
 10
0.0
 20
0.0
 30
0.0
  9
$UCSORGFRONT
 10
0.0
 20
0.0
 30
0.0
  9
$UCSORGBACK
 10
0.0
 20
0.0
 30
0.0
  9
$PUCSBASE
  2

  9
$PUCSNAME
  2

  9
$PUCSORG
 10
0.0
 20
0.0
 30
0.0
  9
$PUCSXDIR
 10
1.0
 20
0.0
 30
0.0
  9
$PUCSYDIR
 10
0.0
 20
1.0
 30
0.0
  9
$PUCSORTHOREF
  2

  9
$PUCSORTHOVIEW
 70
0
  9
$PUCSORGTOP
 10
0.0
 20
0.0
 30
0.0
  9
$PUCSORGBOTTOM
 10
0.0
 20
0.0
 30
0.0
  9
$PUCSORGLEFT
 10
0.0
 20
0.0
 30
0.0
  9
$PUCSORGRIGHT
 10
0.0
 20
0.0
 30
0.0
  9
$PUCSORGFRONT
 10
0.0
 20
0.0
 30
0.0
  9
$PUCSORGBACK
 10
0.0
 20
0.0
 30
0.0
  9
$USERI1
 70
0
  9
$USERI2
 70
0
  9
$USERI3
 70
0
  9
$USERI4
 70
0
  9
$USERI5
 70
0
  9
$USERR1
 40
0.0
  9
$USERR2
 40
0.0
  9
$USERR3
 40
0.0
  9
$USERR4
 40
0.0
  9
$USERR5
 40
0.0
  9
$WORLDVIEW
 70
1
  9
$SHADEDGE
 70
3
  9
$SHADEDIF
 70
70
  9
$TILEMODE
 70
1
  9
$MAXACTVP
 70
64
  9
$PINSBASE
 10
0.0
 20
0.0
 30
0.0
  9
$PLIMCHECK
 70
0
  9
$PEXTMIN
 10
1e+20
 20
1e+20
 30
1e+20
  9
$PEXTMAX
 10
-1e+20
 20
-1e+20
 30
-1e+20
  9
$PLIMMIN
 10
0.0
 20
0.0
  9
$PLIMMAX
 10
420.0
 20
297.0
  9
$UNITMODE
 70
0
  9
$VISRETAIN
 70
1
  9
$PLINEGEN
 70
0
  9
$PSLTSCALE
 70
1
  9
$TREEDEPTH
 70
3020
  9
$CMLSTYLE
  2
Standard
  9
$CMLJUST
 70
0
  9
$CMLSCALE
 40
20.0
  9
$PROXYGRAPHICS
 70
1
  9
$MEASUREMENT
 70
1
  9
$CELWEIGHT
370
-1
  9
$ENDCAPS
280
0
  9
$JOINSTYLE
280
0
  9
$LWDISPLAY
290
0
  9
$INSUNITS
 70
6
  9
$HYPERLINKBASE
  1

  9
$STYLESHEET
  1

  9
$XEDIT
290
1
  9
$CEPSNTYPE
380
0
  9
$PSTYLEMODE
290
1
  9
$FINGERPRINTGUID
  2
{357A86A6-7E36-4CAC-A8E7-64095956C05F}
  9
$VERSIONGUID
  2
{8B205C17-388E-49BE-8572-122AB8CD4AD4}
  9
$EXTNAMES
290
1
  9
$PSVPSCALE
 40
0.0
  9
$OLESTARTUP
290
0
  9
$SORTENTS
280
127
  9
$INDEXCTL
280
0
  9
$HIDETEXT
280
1
  9
$XCLIPFRAME
280
0
  9
$HALOGAP
280
0
  9
$OBSCOLOR
 70
257
  9
$OBSLTYPE
280
0
  9
$INTERSECTIONDISPLAY
280
0
  9
$INTERSECTIONCOLOR
 70
257
  9
$DIMASSOC
280
2
  9
$PROJECTNAME
  1

  9
$CAMERADISPLAY
290
0
  9
$LENSLENGTH
 40
50.0
  9
$CAMERAHEIGHT
 40
0.0
  9
$STEPSPERSEC
 40
24.0
  9
$STEPSIZE
 40
100.0
  9
$3DDWFPREC
 40
2.0
  9
$PSOLWIDTH
 40
0.005
  9
$PSOLHEIGHT
 40
0.08
  9
$LOFTANG1
 40
1.570796326795
  9
$LOFTANG2
 40
1.570796326795
  9
$LOFTMAG1
 40
0.0
  9
$LOFTMAG2
 40
0.0
  9
$LOFTPARAM
 70
7
  9
$LOFTNORMALS
280
1
  9
$LATITUDE
 40
37.795
  9
$LONGITUDE
 40
-122.394
  9
$NORTHDIRECTION
 40
0.0
  9
$TIMEZONE
 70
-8000
  9
$LIGHTGLYPHDISPLAY
280
1
  9
$TILEMODELIGHTSYNCH
280
1
  9
$CMATERIAL
347
20
  9
$SOLIDHIST
280
0
  9
$SHOWHIST
280
1
  9
$DWFFRAME
280
2
  9
$DGNFRAME
280
2
  9
$REALWORLDSCALE
290
1
  9
$INTERFERECOLOR
 62
256
  9
$CSHADOW
280
0
  9
$SHADOWPLANELOCATION
 40
0.0
  0
ENDSEC
  0
SECTION
  2
CLASSES
  0
CLASS
  1
ACDBDICTIONARYWDFLT
  2
AcDbDictionaryWithDefault
  3
ObjectDBX Classes
 90
0
 91
0
280
0
281
0
  0
CLASS
  1
SUN
  2
AcDbSun
  3
SCENEOE
 90
1153
 91
0
280
0
281
0
  0
CLASS
  1
VISUALSTYLE
  2
AcDbVisualStyle
  3
ObjectDBX Classes
 90
4095
 91
0
280
0
281
0
  0
CLASS
  1
MATERIAL
  2
AcDbMaterial
  3
ObjectDBX Classes
 90
1153
 91
0
280
0
281
0
  0
CLASS
  1
SCALE
  2
AcDbScale
  3
ObjectDBX Classes
 90
1153
 91
0
280
0
281
0
  0
CLASS
  1
TABLESTYLE
  2
AcDbTableStyle
  3
ObjectDBX Classes
 90
4095
 91
0
280
0
281
0
  0
CLASS
  1
MLEADERSTYLE
  2
AcDbMLeaderStyle
  3
ACDB_MLEADERSTYLE_CLASS
 90
4095
 91
0
280
0
281
0
  0
CLASS
  1
DICTIONARYVAR
  2
AcDbDictionaryVar
  3
ObjectDBX Classes
 90
0
 91
0
280
0
281
0
  0
CLASS
  1
CELLSTYLEMAP
  2
AcDbCellStyleMap
  3
ObjectDBX Classes
 90
1152
 91
0
280
0
281
0
  0
CLASS
  1
MENTALRAYRENDERSETTINGS
  2
AcDbMentalRayRenderSettings
  3
SCENEOE
 90
1024
 91
0
280
0
281
0
  0
CLASS
  1
ACDBDETAILVIEWSTYLE
  2
AcDbDetailViewStyle
  3
ObjectDBX Classes
 90
1025
 91
0
280
0
281
0
  0
CLASS
  1
ACDBSECTIONVIEWSTYLE
  2
AcDbSectionViewStyle
  3
ObjectDBX Classes
 90
1025
 91
0
280
0
281
0
  0
CLASS
  1
RASTERVARIABLES
  2
AcDbRasterVariables
  3
ISM
 90
0
 91
0
280
0
281
0
  0
CLASS
  1
ACDBPLACEHOLDER
  2
AcDbPlaceHolder
  3
ObjectDBX Classes
 90
0
 91
0
280
0
281
0
  0
CLASS
  1
LAYOUT
  2
AcDbLayout
  3
ObjectDBX Classes
 90
0
 91
0
280
0
281
0
  0
ENDSEC
  0
SECTION
  2
TABLES
  0
TABLE
  2
VPORT
  5
8
330
0
100
AcDbSymbolTable
 70
1
  0
VPORT
  5
23
330
8
100
AcDbSymbolTableRecord
100
AcDbViewportTableRecord
  2
*Active
 70
0
 10
0.0
 20
0.0
 11
1.0
 21
1.0
 12
344.2
 22
148.5
 13
0.0
 23
0.0
 14
0.5
 24
0.5
 15
0.5
 25
0.5
 16
0.0
 26
0.0
 36
1.0
 17
0.0
 27
0.0
 37
0.0
 40
297.0
 41
1.34
 42
50.0
 43
0.0
 44
0.0
 50
0.0
 51
0.0
 71
0
 72
1000
 73
1
 74
3
 75
0
 76
0
 77
0
 78
0
281
0
 65
0
146
0.0
  0
ENDTAB
  0
TABLE
  2
LTYPE
  5
2
330
0
100
AcDbSymbolTable
 70
3
  0
LTYPE
  5
24
330
2
100
AcDbSymbolTableRecord
100
AcDbLinetypeTableRecord
  2
ByBlock
 70
0
  3

 72
65
 73
0
 40
0.0
  0
LTYPE
  5
25
330
2
100
AcDbSymbolTableRecord
100
AcDbLinetypeTableRecord
  2
ByLayer
 70
0
  3

 72
65
 73
0
 40
0.0
  0
LTYPE
  5
26
330
2
100
AcDbSymbolTableRecord
100
AcDbLinetypeTableRecord
  2
Continuous
 70
0
  3

 72
65
 73
0
 40
0.0
  0
ENDTAB
  0
TABLE
  2
LAYER
  5
1
330
0
100
AcDbSymbolTable
 70
2
  0
LAYER
  5
27
330
1
100
AcDbSymbolTableRecord
100
AcDbLayerTableRecord
  2
0
 70
0
 62
7
  6
Continuous
370
-3
390
13
347
21
  0
LAYER
  5
28
330
1
100
AcDbSymbolTableRecord
100
AcDbLayerTableRecord
  2
Defpoints
 70
0
 62
7
  6
Continuous
290
0
370
-3
390
13
347
21
  0
ENDTAB
  0
TABLE
  2
STYLE
  5
5
330
0
100
AcDbSymbolTable
 70
1
  0
STYLE
  5
29
330
5
100
AcDbSymbolTableRecord
100
AcDbTextStyleTableRecord
  2
Standard
 70
0
 40
0.0
 41
1.0
 50
0.0
 71
0
 42
2.5
  3
txt
  4

  0
ENDTAB
  0
TABLE
  2
VIEW
  5
7
330
0
100
AcDbSymbolTable
 70
0
  0
ENDTAB
  0
TABLE
  2
UCS
  5
6
330
0
100
AcDbSymbolTable
 70
0
  0
ENDTAB
  0
TABLE
  2
APPID
  5
3
330
0
100
AcDbSymbolTable
 70
3
  0
APPID
  5
2A
330
3
100
AcDbSymbolTableRecord
100
AcDbRegAppTableRecord
  2
ACAD
 70
0
  0
APPID
  5
6E
330
3
100
AcDbSymbolTableRecord
100
AcDbRegAppTableRecord
  2
HATCHBACKGROUNDCOLOR
 70
0
  0
APPID
  5
6F
330
3
100
AcDbSymbolTableRecord
100
AcDbRegAppTableRecord
  2
EZDXF
 70
0
  0
ENDTAB
  0
TABLE
  2
DIMSTYLE
  5
4
330
0
100
AcDbSymbolTable
 70
1
100
AcDbDimStyleTable
  0
DIMSTYLE
105
2B
330
4
100
AcDbSymbolTableRecord
100
AcDbDimStyleTableRecord
  2
Standard
 70
0
 40
1.0
 41
2.5
 42
0.625
 43
3.75
 44
1.25
 45
0.0
 46
0.0
 47
0.0
 48
0.0
 49
2.5
140
2.5
141
2.5
142
0.0
143
0.03937007874
144
1.0
145
0.0
146
1.0
147
0.625
148
0.0
 69
0
 70
0
 71
0
 72
0
 73
0
 74
0
 75
0
 76
0
 77
1
 78
8
 79
0
170
0
171
3
172
1
173
0
174
0
175
0
176
0
177
0
178
0
179
0
271
0
272
2
273
2
274
3
275
0
276
0
277
2
278
44
279
0
280
0
281
0
282
0
283
0
284
8
285
0
286
0
288
0
289
3
290
0
371
-2
372
-2
  0
ENDTAB
  0
TABLE
  2
BLOCK_RECORD
  5
9
330
0
100
AcDbSymbolTable
 70
2
  0
BLOCK_RECORD
  5
17
330
9
100
AcDbSymbolTableRecord
100
AcDbBlockTableRecord
  2
*Model_Space
340
1A
 70
0
280
1
281
0
  0
BLOCK_RECORD
  5
1B
330
9
100
AcDbSymbolTableRecord
100
AcDbBlockTableRecord
  2
*Paper_Space
340
1E
 70
0
280
1
281
0
  0
ENDTAB
  0
ENDSEC
  0
SECTION
  2
BLOCKS
  0
BLOCK
  5
18
330
17
100
AcDbEntity
  8
0
100
AcDbBlockBegin
  2
*Model_Space
 70
0
 10
0.0
 20
0.0
 30
0.0
  3
*Model_Space
  1

  0
ENDBLK
  5
19
330
17
100
AcDbEntity
  8
0
100
AcDbBlockEnd
  0
BLOCK
  5
1C
330
1B
100
AcDbEntity
  8
0
100
AcDbBlockBegin
  2
*Paper_Space
 70
0
 10
0.0
 20
0.0
 30
0.0
  3
*Paper_Space
  1

  0
ENDBLK
  5
1D
330
1B
100
AcDbEntity
  8
0
100
AcDbBlockEnd
  0
ENDSEC
  0
SECTION
  2
ENTITIES
  0
SPLINE
  5
2F
330
17
100
AcDbEntity
  8
0
100
AcDbSpline
 70
0
 71
8
 72
95
 73
86
 74
0
 40
0.0
 40
0.0
 40
0.0
 40
0.0
 40
0.0
 40
0.0
 40
0.0
 40
0.0
 40
0.0
 40
0.03679102811584666
 40
0.03679102811584666
 40
0.03679102811584666
 40
0.03679102811584666
 40
0.03679102811584666
 40
0.03679102811584666
 40
0.03679102811584666
 40
0.1348880754692867
 40
0.1348880754692867
 40
0.1348880754692867
 40
0.1348880754692867
 40
0.1348880754692867
 40
0.1348880754692867
 40
0.1348880754692867
 40
0.2341244046939567
 40
0.2341244046939567
 40
0.2341244046939567
 40
0.2341244046939567
 40
0.2341244046939567
 40
0.2341244046939567
 40
0.2341244046939567
 40
0.317806742923183
 40
0.317806742923183
 40
0.317806742923183
 40
0.317806742923183
 40
0.317806742923183
 40
0.317806742923183
 40
0.317806742923183
 40
0.3984615213206552
 40
0.3984615213206552
 40
0.3984615213206552
 40
0.3984615213206552
 40
0.3984615213206552
 40
0.3984615213206552
 40
0.3984615213206552
 40
0.44690048486137657
 40
0.44690048486137657
 40
0.44690048486137657
 40
0.44690048486137657
 40
0.44690048486137657
 40
0.44690048486137657
 40
0.44690048486137657
 40
0.5138082581094132
 40
0.5138082581094132
 40
0.5138082581094132
 40
0.5138082581094132
 40
0.5138082581094132
 40
0.5138082581094132
 40
0.5138082581094132
 40
0.5382483205584025
 40
0.5382483205584025
 40
0.5382483205584025
 40
0.5382483205584025
 40
0.5382483205584025
 40
0.5382483205584025
 40
0.5382483205584025
 40
0.5657437172170272
 40
0.5657437172170272
 40
0.5657437172170272
 40
0.5657437172170272
 40
0.5657437172170272
 40
0.5657437172170272
 40
0.5657437172170272
 40
0.6592387036758239
 40
0.6592387036758239
 40
0.6592387036758239
 40
0.6592387036758239
 40
0.6592387036758239
 40
0.6592387036758239
 40
0.6592387036758239
 40
0.8206433969294712
 40
0.8206433969294712
 40
0.8206433969294712
 40
0.8206433969294712
 40
0.8206433969294712
 40
0.8206433969294712
 40
0.8206433969294712
 40
1.0
 40
1.0
 40
1.0
 40
1.0
 40
1.0
 40
1.0
 40
1.0
 40
1.0
 40
1.0
 10
61.23153324763654
 20
183.9000000079988
 30
1679.0
 10
61.160840021144594
 20
184.0959962111525
 30
1679.0
 10
61.089555308278754
 20
184.29177829894135
 30
1679.0
 10
61.017666908673704
 20
184.4873394667069
 30
1679.0
 10
60.9451621511336
 20
184.68267257712782
 30
1679.0
 10
60.872027821414505
 20
184.8777701364919
 30
1679.0
 10
60.79825006446894
 20
185.0726242621113
 30
1679.0
 10
60.72381436502243
 20
185.26722667043782
 30
1679.0
 10
60.44844246821998
 20
185.9797492449414
 30
1679.0
 10
60.243401189400224
 20
186.49606574055196
 30
1679.0
 10
60.03329564464882
 20
187.01036256949024
 30
1679.0
 10
59.81781116637953
 20
187.52244804935538
 30
1679.0
 10
59.596600852427834
 20
188.0320927943882
 30
1679.0
 10
59.36927717685531
 20
188.53902607618693
 30
1679.0
 10
59.13539935387446
 20
189.04293029998541
 30
1679.0
 10
58.650715287420404
 20
190.0497496503495
 30
1679.0
 10
58.39976827164409
 20
190.55253375739488
 30
1679.0
 10
58.14107196556565
 20
191.0514403730976
 30
1679.0
 10
57.874029845601605
 20
191.54600516678988
 30
1679.0
 10
57.597985468723174
 20
192.03564148523427
 30
1679.0
 10
57.31220136722932
 20
192.51962845713052
 30
1679.0
 10
57.015823676153026
 20
192.99709073856542
 30
1679.0
 10
56.44811488245893
 20
193.86320167431845
 30
1679.0
 10
56.18020062556842
 20
194.25394632045362
 30
1679.0
 10
55.90345062476332
 20
194.6386247784353
 30
1679.0
 10
55.61720437186916
 20
195.01645167908578
 30
1679.0
 10
55.32077516152293
 20
195.3864316748114
 30
1679.0
 10
55.01344031997596
 20
195.74735162770875
 30
1679.0
 10
54.69442644957946
 20
196.0977686543912
 30
1679.0
 10
54.04334766222765
 20
196.76198267814812
 30
1679.0
 10
53.7122695525245
 20
197.07654649987848
 30
1679.0
 10
53.36890146850303
 20
197.37819671986557
 30
1679.0
 10
53.01263721019763
 20
197.66501480668984
 30
1679.0
 10
52.64306292605411
 20
197.93471721721323
 30
1679.0
 10
52.260014052456164
 20
198.18473563802272
 30
1679.0
 10
51.86368709535256
 20
198.41237269655565
 30
1679.0
 10
51.20931218182357
 20
198.73684122973737
 30
1679.0
 10
50.95928240357124
 20
198.84959235644106
 30
1679.0
 10
50.705006065202184
 20
198.95276166537417
 30
1679.0
 10
50.44678592806676
 20
199.0458133108923
 30
1679.0
 10
50.18498864067109
 20
199.1282837473159
 30
1679.0
 10
49.920052450845425
 20
199.19980504281537
 30
1679.0
 10
49.65249491791285
 20
199.26012819329648
 30
1679.0
 10
49.01056303594945
 20
199.37685435667106
 30
1679.0
 10
48.634195478775396
 20
199.42302340586411
 30
1679.0
 10
48.25548892402016
 20
199.4473225723595
 30
1679.0
 10
47.875939828345906
 20
199.4500624596885
 30
1679.0
 10
47.49687385618179
 20
199.43204312001623
 30
1679.0
 10
47.11944839954954
 20
199.39441469843752
 30
1679.0
 10
46.74465389592496
 20
199.33855088797137
 30
1679.0
 10
46.237670936290954
 20
199.23941014474798
 30
1679.0
 10
46.10217087158051
 20
199.2105877672489
 30
1679.0
 10
45.96681787811882
 20
199.17951432734117
 30
1679.0
 10
45.83161608402172
 20
199.1462360896101
 30
1679.0
 10
45.69656961740633
 20
199.11079931864387
 30
1679.0
 10
45.56168260639102
 20
199.07325027903318
 30
1679.0
 10
45.42695917909535
 20
199.03363523537135
 30
1679.0
 10
45.14102648672572
 20
198.94516076520446
 30
1679.0
 10
44.989865996178445
 20
198.8957732792557
 30
1679.0
 10
44.83892205961799
 20
198.84389461773358
 30
1679.0
 10
44.6882000176277
 20
198.7895585694515
 30
1679.0
 10
44.53770793042398
 20
198.7327853543236
 30
1679.0
 10
44.38745402452575
 20
198.67359088897695
 30
1679.0
 10
44.2374441394239
 20
198.61199605236376
 30
1679.0
 10
43.57842034941085
 20
198.33054686219364
 30
1679.0
 10
43.07960269613089
 20
198.08890171684462
 30
1679.0
 10
42.59153648545683
 20
197.82559211180882
 30
1679.0
 10
42.11432540758764
 20
197.5429446409069
 30
1679.0
 10
41.64790113484007
 20
197.24306057947433
 30
1679.0
 10
41.19204844318499
 20
196.92777264525367
 30
1679.0
 10
40.746420892355275
 20
196.59861883600308
 30
1679.0
 10
39.55807803765145
 20
195.66679333618512
 30
1679.0
 10
38.83527366799228
 20
195.03957441171667
 30
1679.0
 10
38.13959811594476
 20
194.38158530809076
 30
1679.0
 10
37.469138963166024
 20
193.6977998369503
 30
1679.0
 10
36.822211077135194
 20
192.99216261299483
 30
1679.0
 10
36.19721586722064
 20
192.26772998127325
 30
1679.0
 10
35.5926126733369
 20
191.52669850193377
 30
1679.0
 10
34.355956121448834
 20
189.9301385920669
 30
1679.0
 10
33.72873601731554
 20
189.07156680636666
 30
1679.0
 10
33.12338042088314
 20
188.19716415844033
 30
1679.0
 10
32.538543360302235
 20
187.30883282238602
 30
1679.0
 10
31.973154704128362
 20
186.4081029502236
 30
1679.0
 10
31.42633684538838
 20
185.49618854030868
 30
1679.0
 10
30.897378931804365
 20
184.57400521145087
 30
1679.0
 10
30.38571302152783
 20
183.64218788770506
 30
1679.0
  0
LINE
  5
30
330
17
100
AcDbEntity
  8
0
100
AcDbLine
 10
45.02598650755727
 20
183.9
 30
1679.0
 11
61.23153322545984
 21
183.9
 31
1679.0
  0
SPLINE
  5
31
330
17
100
AcDbEntity
  8
0
100
AcDbSpline
 70
0
 71
1
 72
4
 73
2
 74
0
 40
0.0
 40
0.0
 40
1.0
 40
1.0
 10
45.02598652697117
 20
183.90000060000014
 30
1679.0
 10
45.02598652697117
 20
180.0999993999999
 30
1679.0
  0
LINE
  5
32
330
17
100
AcDbEntity
  8
0
100
AcDbLine
 10
45.02598650755727
 20
180.1
 30
1679.0
 11
62.50414558702464
 21
180.1
 31
1679.0
  0
SPLINE
  5
33
330
17
100
AcDbEntity
  8
0
100
AcDbSpline
 70
0
 71
8
 72
32
 73
23
 74
0
 40
0.0
 40
0.0
 40
0.0
 40
0.0
 40
0.0
 40
0.0
 40
0.0
 40
0.0
 40
0.0
 40
0.37406717279285523
 40
0.37406717279285523
 40
0.37406717279285523
 40
0.37406717279285523
 40
0.37406717279285523
 40
0.37406717279285523
 40
0.37406717279285523
 40
0.8759046247624527
 40
0.8759046247624527
 40
0.8759046247624527
 40
0.8759046247624527
 40
0.8759046247624527
 40
0.8759046247624527
 40
0.8759046247624527
 40
1.0
 40
1.0
 40
1.0
 40
1.0
 40
1.0
 40
1.0
 40
1.0
 40
1.0
 40
1.0
 10
67.84427635931021
 20
157.90000000450755
 30
1679.0
 10
67.63971726332315
 20
158.952737931369
 30
1679.0
 10
67.4316329554737
 20
160.00478964714614
 30
1679.0
 10
67.21986090283036
 20
161.05610930795135
 30
1679.0
 10
67.00422056589173
 20
162.1066441628054
 30
1679.0
 10
66.78450991068874
 20
163.15633384439025
 30
1679.0
 10
66.5605002114279
 20
164.2051093032599
 30
1679.0
 10
66.33192914367537
 20
165.2528913855086
 30
1679.0
 10
65.78532002802848
 20
167.70380767849508
 30
1679.0
 10
65.46340153739129
 20
169.10602355410907
 30
1679.0
 10
65.13198889627112
 20
170.50605601709674
 30
1679.0
 10
64.79021106317838
 20
171.90364004522712
 30
1679.0
 10
64.43700362818004
 20
173.2984075310289
 30
1679.0
 10
64.07106684390361
 20
174.6898766638439
 30
1679.0
 10
63.690733111570914
 20
176.07741806618452
 30
1679.0
 10
63.19542758030707
 20
177.80209510390716
 30
1679.0
 10
63.097085342185274
 20
178.14066257294127
 30
1679.0
 10
62.99860118776617
 20
178.47584230871828
 30
1679.0
 10
62.89997779994582
 20
178.80760788286054
 30
1679.0
 10
62.801217861620174
 20
179.13593286698932
 30
1679.0
 10
62.70232405568498
 20
179.46079083272468
 30
1679.0
 10
62.60329906503589
 20
179.78215535168567
 30
1679.0
 10
62.50414557256835
 20
180.0999999954903
 30
1679.0
  0
LINE
  5
34
330
17
100
AcDbEntity
  8
0
100
AcDbLine
 10
45.02598650755727
 20
157.9
 30
1679.0
 11
67.84427633611261
 21
157.9
 31
1679.0
  0
SPLINE
  5
35
330
17
100
AcDbEntity
  8
0
100
AcDbSpline
 70
0
 71
1
 72
4
 73
2
 74
0
 40
0.0
 40
0.0
 40
1.0
 40
1.0
 10
45.02598652697115
 20
157.90000060000042
 30
1679.0
 10
45.02598652697117
 20
154.09999939999918
 30
1679.0
  0
LINE
  5
36
330
17
100
AcDbEntity
  8
0
100
AcDbLine
 10
45.02598650755727
 20
154.1
 30
1679.0
 11
68.56267217916805
 21
154.1
 31
1679.0
  0
SPLINE
  5
37
330
17
100
AcDbEntity
  8
0
100
AcDbSpline
 70
0
 71
8
 72
25
 73
16
 74
0
 40
0.0
 40
0.0
 40
0.0
 40
0.0
 40
0.0
 40
0.0
 40
0.0
 40
0.0
 40
0.0
 40
0.9821522883374356
 40
0.9821522883374356
 40
0.9821522883374356
 40
0.9821522883374356
 40
0.9821522883374356
 40
0.9821522883374356
 40
0.9821522883374356
 40
1.0
 40
1.0
 40
1.0
 40
1.0
 40
1.0
 40
1.0
 40
1.0
 40
1.0
 40
1.0
 10
72.12460755921438
 20
131.8999999828946
 30
1679.0
 10
71.7407788940279
 20
134.63374805073892
 30
1679.0
 10
71.34378882898535
 20
137.36562402352635
 30
1679.0
 10
70.93296552695323
 20
140.09548453621863
 30
1679.0
 10
70.50749963485967
 20
142.82313271433284
 30
1679.0
 10
70.06639583570748
 20
145.5483100323737
 30
1679.0
 10
69.60842922713671
 20
148.27068923398815
 30
1679.0
 10
69.13204069150838
 20
150.98985730568964
 30
1679.0
 10
68.62607509439155
 20
153.75462222306078
 30
1678.9999999999998
 10
68.61703798387798
 20
153.80396569512914
 30
1678.9999999999998
 10
68.60799407822131
 20
153.85330790913775
 30
1678.9999999999998
 10
68.59894336463839
 20
153.90264886198975
 30
1678.9999999999998
 10
68.58988583028069
 20
153.9519885505593
 30
1678.9999999999998
 10
68.58082146223416
 20
154.00132697169173
 30
1678.9999999999998
 10
68.57175024751889
 20
154.05066412220333
 30
1678.9999999999998
 10
68.56267217308896
 20
154.09999999888143
 30
1678.9999999999998
  0
LINE
  5
38
330
17
100
AcDbEntity
  8
0
100
AcDbLine
 10
45.02598650755727
 20
131.9
 30
1679.0
 11
72.12460768104468
 21
131.9
 31
1679.0
  0
SPLINE
  5
39
330
17
100
AcDbEntity
  8
0
100
AcDbSpline
 70
0
 71
1
 72
4
 73
2
 74
0
 40
0.0
 40
0.0
 40
1.0
 40
1.0
 10
45.02598652697115
 20
131.90000060000256
 30
1679.0
 10
45.02598652697117
 20
128.09999939999764
 30
1679.0
  0
LINE
  5
3A
330
17
100
AcDbEntity
  8
0
100
AcDbLine
 10
45.02598650755727
 20
128.1
 30
1679.0
 11
72.64699447668669
 21
128.1
 31
1679.0
  0
SPLINE
  5
3B
330
17
100
AcDbEntity
  8
0
100
AcDbSpline
 70
0
 71
8
 72
25
 73
16
 74
0
 40
0.0
 40
0.0
 40
0.0
 40
0.0
 40
0.0
 40
0.0
 40
0.0
 40
0.0
 40
0.0
 40
0.00471539253688088
 40
0.00471539253688088
 40
0.00471539253688088
 40
0.00471539253688088
 40
0.00471539253688088
 40
0.00471539253688088
 40
0.00471539253688088
 40
1.0
 40
1.0
 40
1.0
 40
1.0
 40
1.0
 40
1.0
 40
1.0
 40
1.0
 40
1.0
 10
75.29441377782146
 20
105.90000000082378
 30
1679.0
 10
75.29303988407248
 20
105.9131066335488
 30
1679.0
 10
75.29166574904302
 20
105.92621324095934
 30
1679.0
 10
75.29029137271533
 20
105.93931982304835
 30
1679.0
 10
75.28891675507158
 20
105.95242637980873
 30
1679.0
 10
75.28754189609383
 20
105.96553291123338
 30
1679.0
 10
75.28616679576403
 20
105.9786394173152
 30
1679.0
 10
75.28479145406406
 20
105.99174589804704
 30
1679.0
 10
74.9930695926026
 20
108.7712505251281
 30
1678.9999999999998
 10
74.69197349074005
 20
111.53651247189134
 30
1679.0000000000005
 10
74.37998888168623
 20
114.30058186078766
 30
1679.0000000000005
 10
74.05691216841726
 20
117.0633876973401
 30
1679.0000000000005
 10
73.72247298205195
 20
119.82484411363751
 30
1679.0000000000005
 10
73.3763237782675
 20
122.5848490754671
 30
1679.0000000000005
 10
73.01802088866522
 20
125.34328200846082
 30
1679.0000000000005
 10
72.6469970270872
 20
128.1000003432558
 30
1679.0000000000005
  0
LINE
  5
3C
330
17
100
AcDbEntity
  8
0
100
AcDbLine
 10
45.02598650755727
 20
105.9
 30
1679.0
 11
75.29441376996257
 21
105.9
 31
1679.0
  0
SPLINE
  5
3D
330
17
100
AcDbEntity
  8
0
100
AcDbSpline
 70
0
 71
1
 72
4
 73
2
 74
0
 40
0.0
 40
0.0
 40
1.0
 40
1.0
 10
45.02598652697117
 20
105.90000060000206
 30
1679.0
 10
45.02598652697117
 20
102.09999939999993
 30
1679.0
  0
LINE
  5
3E
330
17
100
AcDbEntity
  8
0
100
AcDbLine
 10
45.02598650755727
 20
102.1
 30
1679.0
 11
75.68381750765914
 21
102.1
 31
1679.0
  0
SPLINE
  5
3F
330
17
100
AcDbEntity
  8
0
100
AcDbSpline
 70
0
 71
8
 72
25
 73
16
 74
0
 40
0.0
 40
0.0
 40
0.0
 40
0.0
 40
0.0
 40
0.0
 40
0.0
 40
0.0
 40
0.0
 40
0.8691230614589314
 40
0.8691230614589314
 40
0.8691230614589314
 40
0.8691230614589314
 40
0.8691230614589314
 40
0.8691230614589314
 40
0.8691230614589314
 40
1.0
 40
1.0
 40
1.0
 40
1.0
 40
1.0
 40
1.0
 40
1.0
 40
1.0
 40
1.0
 10
77.6143993034129
 20
79.90000002029481
 30
1679.0
 10
77.43507691198245
 20
82.31433650243159
 30
1679.0
 10
77.24845856131766
 20
84.72813012532735
 30
1679.0
 10
77.05443732182859
 20
87.1413469873652
 30
1679.0
 10
76.85290303228273
 20
89.55395173963585
 30
1679.0
 10
76.64374214511952
 20
91.96590757567068
 30
1679.0
 10
76.42683755858442
 20
94.37717622026736
 30
1679.0
 10
76.20206843568256
 20
96.78771791740823
 30
1679.0
 10
75.93426007107678
 20
99.56036727711816
 30
1678.9999999999998
 10
75.89902881191547
 20
99.92322560910334
 30
1679.0
 10
75.86361593660598
 20
100.28606627935358
 30
1679.0
 10
75.82802119209813
 20
100.64888915715593
 30
1679.0
 10
75.79224435739044
 20
101.01169411397433
 30
1679.0
 10
75.75628523276676
 20
101.37448102246582
 30
1679.0
 10
75.72014362903298
 20
101.737249755497
 30
1679.0
 10
75.68381935675373
 20
102.10000018516041
 30
1679.0
  0
LINE
  5
40
330
17
100
AcDbEntity
  8
0
100
AcDbLine
 10
45.02598650755727
 20
79.9
 30
1679.0
 11
77.61439903017012
 21
79.9
 31
1679.0
  0
SPLINE
  5
41
330
17
100
AcDbEntity
  8
0
100
AcDbSpline
 70
0
 71
1
 72
4
 73
2
 74
0
 40
0.0
 40
0.0
 40
1.0
 40
1.0
 10
45.02598652697115
 20
79.90000060000001
 30
1679.0
 10
45.02598652697115
 20
76.09999939999999
 30
1679.0
  0
LINE
  5
42
330
17
100
AcDbEntity
  8
0
100
AcDbLine
 10
45.02598650755727
 20
76.1
 30
1679.0
 11
77.88873809639463
 21
76.1
 31
1679.0
  0
SPLINE
  5
43
330
17
100
AcDbEntity
  8
0
100
AcDbSpline
 70
0
 71
8
 72
18
 73
9
 74
0
 40
0.0
 40
0.0
 40
0.0
 40
0.0
 40
0.0
 40
0.0
 40
0.0
 40
0.0
 40
0.0
 40
1.0
 40
1.0
 40
1.0
 40
1.0
 40
1.0
 40
1.0
 40
1.0
 40
1.0
 40
1.0
 10
79.1881441598189
 20
53.89999999990063
 30
1679.0
 10
79.0567451508211
 20
56.67670096132113
 30
1679.0
 10
78.91675828452216
 20
59.452995723599244
 30
1679.0
 10
78.76805083850333
 20
62.22884745194476
 30
1679.0
 10
78.61048567103516
 20
65.00421687483612
 30
1679.0
 10
78.44392101849523
 20
67.77906227083545
 30
1679.0
 10
78.26821026258196
 20
70.5533394533248
 30
1679.0
 10
78.08320166732467
 20
73.32700175316293
 30
1679.0
 10
77.88873808588986
 20
76.0999999992633
 30
1679.0
  0
LINE
  5
44
330
17
100
AcDbEntity
  8
0
100
AcDbLine
 10
45.02598650755727
 20
53.9
 30
1679.0
 11
79.18814416191854
 21
53.9
 31
1679.0
  0
SPLINE
  5
45
330
17
100
AcDbEntity
  8
0
100
AcDbSpline
 70
0
 71
1
 72
4
 73
2
 74
0
 40
0.0
 40
0.0
 40
1.0
 40
1.0
 10
45.02598652697117
 20
53.90000060000026
 30
1679.0
 10
45.02598652697117
 20
50.09999939999937
 30
1679.0
  0
LINE
  5
46
330
17
100
AcDbEntity
  8
0
100
AcDbLine
 10
45.02598650755727
 20
50.1
 30
1679.0
 11
79.36095328910281
 21
50.1
 31
1679.0
  0
SPLINE
  5
47
330
17
100
AcDbEntity
  8
0
100
AcDbSpline
 70
0
 71
8
 72
25
 73
16
 74
0
 40
0.0
 40
0.0
 40
0.0
 40
0.0
 40
0.0
 40
0.0
 40
0.0
 40
0.0
 40
0.0
 40
0.5224611496524291
 40
0.5224611496524291
 40
0.5224611496524291
 40
0.5224611496524291
 40
0.5224611496524291
 40
0.5224611496524291
 40
0.5224611496524291
 40
1.0
 40
1.0
 40
1.0
 40
1.0
 40
1.0
 40
1.0
 40
1.0
 40
1.0
 40
1.0
 10
80.10016253350719
 20
27.900000007806405
 30
1679.0
 10
80.06642479738464
 20
29.350267412444833
 30
1679.0
 10
80.03057889962224
 20
30.80048570121961
 30
1679.0
 10
79.99260929274176
 20
32.250650934517736
 30
1679.0
 10
79.95250016495464
 20
33.700759080771434
 30
1679.0
 10
79.91023543278833
 20
35.15080601639967
 30
1679.0
 10
79.86579873272989
 20
36.60078752577156
 30
1679.0
 10
79.81917341188668
 20
38.0506993011916
 30
1679.0
 10
79.72571020557018
 20
40.82571452037041
 30
1679.0
 10
79.67923534446783
 20
42.15082878960387
 30
1679.0
 10
79.63090500178645
 20
43.47587660469845
 30
1679.0
 10
79.58070603944249
 20
44.80085469511184
 30
1679.0
 10
79.52862511028782
 20
46.12575966544236
 30
1679.0
 10
79.47464865420193
 20
47.45058799517872
 30
1679.0
 10
79.41876289382866
 20
48.77533603842536
 30
1679.0
 10
79.36095382995705
 20
50.10000002360319
 30
1679.0
  0
LINE
  5
48
330
17
100
AcDbEntity
  8
0
100
AcDbLine
 10
45.02598650755727
 20
27.9
 30
1679.0
 11
80.100162197938
 21
27.9
 31
1679.0
  0
SPLINE
  5
49
330
17
100
AcDbEntity
  8
0
100
AcDbSpline
 70
0
 71
1
 72
4
 73
2
 74
0
 40
0.0
 40
0.0
 40
1.0
 40
1.0
 10
45.02598652697115
 20
27.900000600000002
 30
1679.0
 10
45.02598652697115
 20
24.099999399999998
 30
1679.0
  0
LINE
  5
4A
330
17
100
AcDbEntity
  8
0
100
AcDbLine
 10
45.02598650755727
 20
24.1
 30
1679.0
 11
80.1822578703743
 21
24.1
 31
1679.0
  0
SPLINE
  5
4B
330
17
100
AcDbEntity
  8
0
100
AcDbSpline
 70
0
 71
8
 72
18
 73
9
 74
0
 40
0.0
 40
0.0
 40
0.0
 40
0.0
 40
0.0
 40
0.0
 40
0.0
 40
0.0
 40
0.0
 40
1.0
 40
1.0
 40
1.0
 40
1.0
 40
1.0
 40
1.0
 40
1.0
 40
1.0
 40
1.0
 10
80.41791106969548
 20
1.8999999997885846
 30
1679.0
 10
80.41367615773636
 20
4.675192684434914
 30
1679.0
 10
80.40242262857616
 20
7.450374181201565
 30
1679.0
 10
80.38406054196997
 20
10.225524082117174
 30
1679.0
 10
80.35849690611914
 20
13.000620763393986
 30
1679.0
 10
80.32563565800695
 20
15.775641380167585
 30
1679.0
 10
80.28537759555768
 20
18.550561862307426
 30
1679.0
 10
80.23762026161836
 20
21.325356911298208
 30
1679.0
 10
80.18225777976366
 20
24.099999998192047
 30
1679.0
  0
LINE
  5
4C
330
17
100
AcDbEntity
  8
0
100
AcDbLine
 10
45.02598650755727
 20
1.9
 30
1679.0
 11
80.41791120822143
 21
1.9
 31
1679.0
  0
SPLINE
  5
4D
330
17
100
AcDbEntity
  8
0
100
AcDbSpline
 70
0
 71
1
 72
4
 73
2
 74
0
 40
0.0
 40
0.0
 40
0.9999993684216398
 40
0.9999993684216398
 10
45.02598652697117
 20
1.9000006000000558
 30
1679.0
 10
45.02598652697117
 20
-6.553790374438061e-17
 30
1679.0
  0
SPLINE
  5
4E
330
17
100
AcDbEntity
  8
0
100
AcDbSpline
 70
0
 71
1
 72
4
 73
2
 74
0
 40
0.0
 40
0.0
 40
1.0
 40
1.0
 10
45.02598652697115
 20
-1.9000006000000011
 30
1679.0
 10
45.02598652697115
 20
1.2000000211287443e-06
 30
1679.0
  0
LINE
  5
4F
330
17
100
AcDbEntity
  8
0
100
AcDbLine
 10
45.02598650755803
 20
-1.9
 30
1679.0
 11
80.41797180352904
 21
-1.9
 31
1679.0
  0
SPLINE
  5
50
330
17
100
AcDbEntity
  8
0
100
AcDbSpline
 70
0
 71
8
 72
18
 73
9
 74
0
 40
0.0
 40
0.0
 40
0.0
 40
0.0
 40
0.0
 40
0.0
 40
0.0
 40
0.0
 40
0.0
 40
1.0
 40
1.0
 40
1.0
 40
1.0
 40
1.0
 40
1.0
 40
1.0
 40
1.0
 40
1.0
 10
80.1829876744091
 20
-24.10000001478029
 30
1679.0
 10
80.23827488416066
 20
-21.32536438360798
 30
1678.9999999999998
 10
80.28595345566609
 20
-18.550578552384533
 30
1678.9999999999995
 10
80.32612984261323
 20
-15.775667908186376
 30
1678.9999999999995
 10
80.35890705767711
 20
-13.000655960522659
 30
1678.9999999999995
 10
80.38438481416414
 20
-10.225564348544491
 30
1678.9999999999995
 10
80.40265965407798
 20
-7.450412847669127
 30
1678.9999999999995
 10
80.41382506673781
 20
-4.6752193758469245
 30
1678.9999999999995
 10
80.41797160207942
 20
-1.899999999699
 30
1678.9999999999995
  0
LINE
  5
51
330
17
100
AcDbEntity
  8
0
100
AcDbLine
 10
45.02598650755803
 20
-24.1
 30
1679.0
 11
80.18298693264724
 21
-24.1
 31
1679.0
  0
SPLINE
  5
52
330
17
100
AcDbEntity
  8
0
100
AcDbSpline
 70
0
 71
1
 72
4
 73
2
 74
0
 40
0.0
 40
0.0
 40
1.0
 40
1.0
 10
45.02598652697117
 20
-27.900000600000034
 30
1679.0
 10
45.02598652697117
 20
-24.099999399999938
 30
1679.0
  0
LINE
  5
53
330
17
100
AcDbEntity
  8
0
100
AcDbLine
 10
45.02598650755803
 20
-27.9
 30
1679.0
 11
80.10099182772828
 21
-27.9
 31
1679.0
  0
SPLINE
  5
54
330
17
100
AcDbEntity
  8
0
100
AcDbSpline
 70
0
 71
8
 72
18
 73
9
 74
0
 40
0.0
 40
0.0
 40
0.0
 40
0.0
 40
0.0
 40
0.0
 40
0.0
 40
0.0
 40
0.0
 40
1.0
 40
1.0
 40
1.0
 40
1.0
 40
1.0
 40
1.0
 40
1.0
 40
1.0
 40
1.0
 10
79.36220489441641
 20
-50.09999999651032
 30
1679.0
 10
79.4832307048762
 20
-47.32604873978545
 30
1679.0
 10
79.59581519841743
 20
-44.55172952276786
 30
1679.0
 10
79.70008738307457
 20
-41.7770788975383
 30
1679.0
 10
79.796172015097
 20
-39.0021314946999
 30
1679.0
 10
79.88418980585064
 20
-36.22692003360804
 30
1679.0
 10
79.964257605392
 20
-33.451475331477766
 30
1679.0
 10
80.0364885668596
 20
-30.675826311597476
 30
1679.0
 10
80.10099229582761
 20
-27.90000001087755
 30
1679.0
  0
LINE
  5
55
330
17
100
AcDbEntity
  8
0
100
AcDbLine
 10
45.02598650755803
 20
-50.1
 30
1679.0
 11
79.36220497440164
 21
-50.1
 31
1679.0
  0
SPLINE
  5
56
330
17
100
AcDbEntity
  8
0
100
AcDbSpline
 70
0
 71
1
 72
4
 73
2
 74
0
 40
0.0
 40
0.0
 40
1.0
 40
1.0
 10
45.02598652697117
 20
-53.9000006
 30
1679.0
 10
45.02598652697115
 20
-50.0999994
 30
1679.0
  0
LINE
  5
57
330
17
100
AcDbEntity
  8
0
100
AcDbLine
 10
45.02598650755803
 20
-53.9
 30
1679.0
 11
79.18943123329419
 21
-53.9
 31
1679.0
  0
SPLINE
  5
58
330
17
100
AcDbEntity
  8
0
100
AcDbSpline
 70
0
 71
8
 72
18
 73
9
 74
0
 40
0.0
 40
0.0
 40
0.0
 40
0.0
 40
0.0
 40
0.0
 40
0.0
 40
0.0
 40
0.0
 40
1.0
 40
1.0
 40
1.0
 40
1.0
 40
1.0
 40
1.0
 40
1.0
 40
1.0
 40
1.0
 10
77.88995097260216
 20
-76.10000007760773
 30
1679.0
 10
78.08445807216381
 20
-73.32701351497383
 30
1679.0
 10
78.26949933582436
 20
-70.5533603383857
 30
1679.0
 10
78.44523250365998
 20
-67.77908869209293
 30
1679.0
 10
78.61180984921229
 20
-65.00424473093959
 30
1679.0
 10
78.76937848731501
 20
-62.228872635572955
 30
1679.0
 10
78.9180806486423
 20
-59.453014625982064
 30
1679.0
 10
79.05805392515757
 20
-56.676710973596514
 30
1679.0
 10
79.18943149064171
 20
-53.900000012176164
 30
1679.0
  0
LINE
  5
59
330
17
100
AcDbEntity
  8
0
100
AcDbLine
 10
45.02598650755803
 20
-76.1
 30
1679.0
 11
77.8899498661889
 21
-76.1
 31
1679.0
  0
SPLINE
  5
5A
330
17
100
AcDbEntity
  8
0
100
AcDbSpline
 70
0
 71
1
 72
4
 73
2
 74
0
 40
0.0
 40
0.0
 40
1.0
 40
1.0
 10
45.02598652697115
 20
-79.90000060000018
 30
1679.0
 10
45.02598652697117
 20
-76.09999939999999
 30
1679.0
  0
LINE
  5
5B
330
17
100
AcDbEntity
  8
0
100
AcDbLine
 10
45.02598650755803
 20
-79.9
 30
1679.0
 11
77.61554162163588
 21
-79.9
 31
1679.0
  0
SPLINE
  5
5C
330
17
100
AcDbEntity
  8
0
100
AcDbSpline
 70
0
 71
8
 72
25
 73
16
 74
0
 40
0.0
 40
0.0
 40
0.0
 40
0.0
 40
0.0
 40
0.0
 40
0.0
 40
0.0
 40
0.0
 40
0.1895276116217642
 40
0.1895276116217642
 40
0.1895276116217642
 40
0.1895276116217642
 40
0.1895276116217642
 40
0.1895276116217642
 40
0.1895276116217642
 40
1.0
 40
1.0
 40
1.0
 40
1.0
 40
1.0
 40
1.0
 40
1.0
 40
1.0
 40
1.0
 10
75.68413804257582
 20
-102.10000008498602
 30
1679.0
 10
75.73663690061886
 20
-101.57600884289603
 30
1679.0
 10
75.78877865323565
 20
-101.05173289686556
 30
1679.0
 10
75.84056130091847
 20
-100.52719195765499
 30
1679.0
 10
75.89198342197734
 20
-100.0024018626172
 30
1679.0
 10
75.94304417254013
 20
-99.47737457569731
 30
1679.0
 10
75.99374328655242
 20
-98.95211818743293
 30
1679.0
 10
76.04408107577764
 20
-98.42663691495397
 30
1679.0
 10
76.30777539235612
 20
-95.65286791911862
 30
1679.0
 10
76.51457477862492
 20
-93.40415805067995
 30
1679.0
 10
76.71455734090874
 20
-91.15483263938279
 30
1679.0
 10
76.90782083236735
 20
-88.90492193091416
 30
1679.0
 10
77.09446015494838
 20
-86.65445528129298
 30
1679.0
 10
77.2745674953943
 20
-84.40346116362056
 30
1679.0
 10
77.44823245029848
 20
-82.15196717427449
 30
1679.0
 10
77.61554214118617
 20
-79.90000003859997
 30
1679.0
  0
LINE
  5
5D
330
17
100
AcDbEntity
  8
0
100
AcDbLine
 10
45.02598650755803
 20
-102.1
 30
1679.0
 11
75.68413719432998
 21
-102.1
 31
1679.0
  0
SPLINE
  5
5E
330
17
100
AcDbEntity
  8
0
100
AcDbSpline
 70
0
 71
1
 72
4
 73
2
 74
0
 40
0.0
 40
0.0
 40
1.0
 40
1.0
 10
45.02598652697115
 20
-105.90000060000003
 30
1679.0
 10
45.02598652697117
 20
-102.09999939999999
 30
1679.0
  0
LINE
  5
5F
330
17
100
AcDbEntity
  8
0
100
AcDbLine
 10
45.02598650755803
 20
-105.9
 30
1679.0
 11
75.2945119751653
 21
-105.9
 31
1679.0
  0
SPLINE
  5
60
330
17
100
AcDbEntity
  8
0
100
AcDbSpline
 70
0
 71
8
 72
25
 73
16
 74
0
 40
0.0
 40
0.0
 40
0.0
 40
0.0
 40
0.0
 40
0.0
 40
0.0
 40
0.0
 40
0.0
 40
0.7999372994717701
 40
0.7999372994717701
 40
0.7999372994717701
 40
0.7999372994717701
 40
0.7999372994717701
 40
0.7999372994717701
 40
0.7999372994717701
 40
1.0
 40
1.0
 40
1.0
 40
1.0
 40
1.0
 40
1.0
 40
1.0
 40
1.0
 40
1.0
 10
72.64544691685794
 20
-128.09999999966695
 30
1679.0
 10
72.94365236653474
 20
-125.88572509745308
 30
1679.0
 10
73.2336467754917
 20
-123.67034337481863
 30
1679.0
 10
73.51572296640362
 20
-121.45393281450717
 30
1679.0
 10
73.79012243244384
 20
-119.2365590784749
 30
1679.0
 10
74.05704549004574
 20
-117.018276939146
 30
1679.0
 10
74.31665710862245
 20
-114.79913111077695
 30
1679.0
 10
74.56909174899488
 20
-112.57915694503131
 30
1679.0
 10
74.87582006521363
 20
-109.80296903059289
 30
1679.0
 10
74.93680172754375
 20
-109.24697264422838
 30
1679.0
 10
74.99739781567239
 20
-108.69041447257564
 30
1679.0
 10
75.05760598833895
 20
-108.13331746537521
 30
1679.0
 10
75.11742390428282
 20
-107.57570457236852
 30
1679.0
 10
75.17684922224319
 20
-107.0175987432978
 30
1679.0
 10
75.23587960095921
 20
-106.45902292790606
 30
1679.0
 10
75.29451269916987
 20
-105.9000000759372
 30
1679.0
  0
LINE
  5
61
330
17
100
AcDbEntity
  8
0
100
AcDbLine
 10
45.02598650755803
 20
-128.1
 30
1679.0
 11
72.64544691933047
 21
-128.1
 31
1679.0
  0
SPLINE
  5
62
330
17
100
AcDbEntity
  8
0
100
AcDbSpline
 70
0
 71
1
 72
4
 73
2
 74
0
 40
0.0
 40
0.0
 40
1.0
 40
1.0
 10
45.02598652697115
 20
-131.9000006
 30
1679.0
 10
45.02598652697115
 20
-128.09999939999992
 30
1679.0
  0
LINE
  5
63
330
17
100
AcDbEntity
  8
0
100
AcDbLine
 10
45.02598650755803
 20
-131.9
 30
1679.0
 11
72.12272906465739
 21
-131.9
 31
1679.0
  0
SPLINE
  5
64
330
17
100
AcDbEntity
  8
0
100
AcDbSpline
 70
0
 71
8
 72
25
 73
16
 74
0
 40
0.0
 40
0.0
 40
0.0
 40
0.0
 40
0.0
 40
0.0
 40
0.0
 40
0.0
 40
0.0
 40
0.44749204571546397
 40
0.44749204571546397
 40
0.44749204571546397
 40
0.44749204571546397
 40
0.44749204571546397
 40
0.44749204571546397
 40
0.44749204571546397
 40
1.0
 40
1.0
 40
1.0
 40
1.0
 40
1.0
 40
1.0
 40
1.0
 40
1.0
 40
1.0
 10
68.55879035038362
 20
-154.0999999783503
 30
1679.0
 10
68.78651190800763
 20
-152.86301396000832
 30
1679.0
 10
69.00992169281449
 20
-151.6252315512352
 30
1679.0
 10
69.22922467628834
 20
-150.38670943499648
 30
1679.0
 10
69.4446007551521
 20
-149.14749681209992
 30
1679.0
 10
69.6562099696055
 20
-147.90763635929127
 30
1679.0
 10
69.86419581230187
 20
-146.66716483630103
 30
1679.0
 10
70.06868760268584
 20
-145.42611352379953
 30
1679.0
 10
70.51811525297383
 20
-142.65152822899495
 30
1679.0
 10
70.76127791925646
 20
-141.11771909872917
 30
1679.0
 10
70.99951172450801
 20
-139.5831324774961
 30
1679.0
 10
71.23300867958196
 20
-138.0478143231361
 30
1679.0
 10
71.46193754091212
 20
-136.51180613635876
 30
1679.0
 10
71.68644769725383
 20
-134.9751455048637
 30
1679.0
 10
71.90667202828047
 20
-133.4378665039619
 30
1679.0
 10
72.12272908654046
 20
-131.90000000307435
 30
1679.0
  0
LINE
  5
65
330
17
100
AcDbEntity
  8
0
100
AcDbLine
 10
45.02598650755803
 20
-154.1
 30
1679.0
 11
68.55879046798489
 21
-154.1
 31
1679.0
  0
SPLINE
  5
66
330
17
100
AcDbEntity
  8
0
100
AcDbSpline
 70
0
 71
1
 72
4
 73
2
 74
0
 40
0.0
 40
0.0
 40
1.0
 40
1.0
 10
45.02598652697117
 20
-157.90000060000003
 30
1679.0
 10
45.02598652697117
 20
-154.0999994
 30
1679.0
  0
LINE
  5
67
330
17
100
AcDbEntity
  8
0
100
AcDbLine
 10
45.02598650755803
 20
-157.9
 30
1679.0
 11
67.84006435238155
 21
-157.9
 31
1679.0
  0
SPLINE
  5
68
330
17
100
AcDbEntity
  8
0
100
AcDbSpline
 70
0
 71
8
 72
39
 73
30
 74
0
 40
0.0
 40
0.0
 40
0.0
 40
0.0
 40
0.0
 40
0.0
 40
0.0
 40
0.0
 40
0.0
 40
0.09394735413155257
 40
0.09394735413155257
 40
0.09394735413155257
 40
0.09394735413155257
 40
0.09394735413155257
 40
0.09394735413155257
 40
0.09394735413155257
 40
0.29055120408309876
 40
0.29055120408309876
 40
0.29055120408309876
 40
0.29055120408309876
 40
0.29055120408309876
 40
0.29055120408309876
 40
0.29055120408309876
 40
0.8951779678535376
 40
0.8951779678535376
 40
0.8951779678535376
 40
0.8951779678535376
 40
0.8951779678535376
 40
0.8951779678535376
 40
0.8951779678535376
 40
1.0
 40
1.0
 40
1.0
 40
1.0
 40
1.0
 40
1.0
 40
1.0
 40
1.0
 40
1.0
 10
62.498646081948046
 20
-180.09999997600556
 30
1679.0
 10
62.57292722320463
 20
-179.8618922692439
 30
1679.0
 10
62.646581518823105
 20
-179.62358833575468
 30
1679.0
 10
62.71962654694079
 20
-179.38509581623364
 30
1679.0
 10
62.79207915385136
 20
-179.14642192135778
 30
1679.0
 10
62.863955454004895
 20
-178.90757343178524
 30
1679.0
 10
62.93527083000784
 20
-178.66855669815527
 30
1679.0
 10
63.00603993262304
 20
-178.42937764108834
 30
1679.0
 10
63.22326128955786
 20
-177.68918296893165
 30
1679.0
 10
63.3699354600871
 20
-177.18074110823787
 30
1679.0
 10
63.51629022681661
 20
-176.66480405253637
 30
1679.0
 10
63.662316624204784
 20
-176.141459685255
 30
1679.0
 10
63.808005686708995
 20
-175.61079588981715
 30
1679.0
 10
63.95334844878579
 20
-175.07290054964253
 30
1679.0
 10
64.0983359448908
 20
-174.52786154814663
 30
1679.0
 10
64.68772718556527
 20
-172.27787896110678
 30
1679.0
 10
65.11290729815904
 20
-170.57488752455205
 30
1679.0
 10
65.52131606226004
 20
-168.86772922575477
 30
1679.0
 10
65.91490351245429
 20
-167.15707959952556
 30
1679.0
 10
66.29517891605465
 20
-165.44345320156282
 30
1679.0
 10
66.66337184995182
 20
-163.72724102637812
 30
1679.0
 10
67.02048017242505
 20
-162.0087215209963
 30
1679.0
 10
67.42749314595635
 20
-159.98978029057005
 30
1679.0
 10
67.48732196950839
 20
-159.69141696570819
 30
1679.0
 10
67.54684727350443
 20
-159.39299285241788
 30
1679.0
 10
67.60607329024864
 20
-159.09450911536265
 30
1679.0
 10
67.66500411091351
 20
-158.79596688342124
 30
1679.0
 10
67.72364369316213
 20
-158.49736725108968
 30
1679.0
 10
67.78199586819017
 20
-158.19871127977652
 30
1679.0
 10
67.84006434723457
 20
-157.89999999899942
 30
1679.0
  0
LINE
  5
69
330
17
100
AcDbEntity
  8
0
100
AcDbLine
 10
45.02598650755803
 20
-180.1
 30
1679.0
 11
62.4986461588621
 21
-180.1
 31
1679.0
  0
SPLINE
  5
6A
330
17
100
AcDbEntity
  8
0
100
AcDbSpline
 70
0
 71
1
 72
4
 73
2
 74
0
 40
0.0
 40
0.0
 40
1.0
 40
1.0
 10
45.02598652697115
 20
-183.9000006000001
 30
1679.0
 10
45.02598652697117
 20
-180.09999939999994
 30
1679.0
  0
LINE
  5
6B
330
17
100
AcDbEntity
  8
0
100
AcDbLine
 10
45.02598650755803
 20
-183.9
 30
1679.0
 11
61.2261022720067
 21
-183.9
 31
1679.0
  0
SPLINE
  5
6C
330
17
100
AcDbEntity
  8
0
100
AcDbSpline
 70
0
 71
8
 72
81
 73
72
 74
0
 40
0.0
 40
0.0
 40
0.0
 40
0.0
 40
0.0
 40
0.0
 40
0.0
 40
0.0
 40
0.0
 40
0.019444403637567022
 40
0.019444403637567022
 40
0.019444403637567022
 40
0.019444403637567022
 40
0.019444403637567022
 40
0.019444403637567022
 40
0.019444403637567022
 40
0.037142697784204246
 40
0.037142697784204246
 40
0.037142697784204246
 40
0.037142697784204246
 40
0.037142697784204246
 40
0.037142697784204246
 40
0.037142697784204246
 40
0.04381543867445446
 40
0.04381543867445446
 40
0.04381543867445446
 40
0.04381543867445446
 40
0.04381543867445446
 40
0.04381543867445446
 40
0.04381543867445446
 40
0.046863136525876856
 40
0.046863136525876856
 40
0.046863136525876856
 40
0.046863136525876856
 40
0.046863136525876856
 40
0.046863136525876856
 40
0.046863136525876856
 40
0.05019761890021763
 40
0.05019761890021763
 40
0.05019761890021763
 40
0.05019761890021763
 40
0.05019761890021763
 40
0.05019761890021763
 40
0.05019761890021763
 40
0.05956682251018322
 40
0.05956682251018322
 40
0.05956682251018322
 40
0.05956682251018322
 40
0.05956682251018322
 40
0.05956682251018322
 40
0.05956682251018322
 40
0.06734000012218082
 40
0.06734000012218082
 40
0.06734000012218082
 40
0.06734000012218082
 40
0.06734000012218082
 40
0.06734000012218082
 40
0.06734000012218082
 40
0.08403104459848337
 40
0.08403104459848337
 40
0.08403104459848337
 40
0.08403104459848337
 40
0.08403104459848337
 40
0.08403104459848337
 40
0.08403104459848337
 40
0.09820091476712763
 40
0.09820091476712763
 40
0.09820091476712763
 40
0.09820091476712763
 40
0.09820091476712763
 40
0.09820091476712763
 40
0.09820091476712763
 40
0.10681928104982055
 40
0.10681928104982055
 40
0.10681928104982055
 40
0.10681928104982055
 40
0.10681928104982055
 40
0.10681928104982055
 40
0.10681928104982055
 40
0.10681928104982055
 40
0.10681928104982055
 10
30.385713021527803
 20
-183.64218788770518
 30
1679.0
 10
30.901635320326886
 20
-184.58175670804712
 30
1679.0
 10
31.435136780853114
 20
-185.51152745593333
 30
1679.0
 10
31.986799726580763
 20
-186.43085287135682
 30
1679.0
 10
32.55735371250885
 20
-187.33879440189747
 30
1679.0
 10
33.147700503525975
 20
-188.2341035993007
 30
1679.0
 10
33.75894052547327
 20
-189.1152038644047
 30
1679.0
 10
34.39246021724661
 20
-189.98013184100685
 30
1679.0
 10
35.64875951951354
 20
-191.59666890908503
 30
1679.0
 10
36.267020666176364
 20
-192.3509970821432
 30
1679.0
 10
36.906590262582824
 20
-193.08791542207584
 30
1679.0
 10
37.56913931342133
 20
-193.80505328843878
 30
1679.0
 10
38.25636018841139
 20
-194.49911834920871
 30
1679.0
 10
38.970068874298164
 20
-195.16578610516584
 30
1679.0
 10
39.71228199357287
 20
-195.7996225297634
 30
1679.0
 10
40.77732957181202
 20
-196.61749883352633
 30
1679.0
 10
41.07330598782488
 20
-196.83570668021753
 30
1679.0
 10
41.37376801865144
 20
-197.0477971774762
 30
1679.0
 10
41.678813628713606
 20
-197.2533233870444
 30
1679.0
 10
41.98852010491693
 20
-197.45178617097662
 30
1679.0
 10
42.30294252079412
 20
-197.64263663833236
 30
1679.0
 10
42.62211220064855
 20
-197.82527859186877
 30
1679.0
 10
43.093983290136045
 20
-198.0784486518466
 30
1679.0
 10
43.24221337081366
 20
-198.1555995458743
 30
1679.0
 10
43.39071939410539
 20
-198.2304990288706
 30
1679.0
 10
43.539495328385215
 20
-198.30312247289135
 30
1679.0
 10
43.68853514202638
 20
-198.37344524999313
 30
1679.0
 10
43.837832803401476
 20
-198.44144273223378
 30
1679.0
 10
43.98738228088232
 20
-198.50709029167217
 30
1679.0
 10
44.30106834996998
 20
-198.63959021935875
 30
1679.0
 10
44.466016909363404
 20
-198.70629832569
 30
1679.0
 10
44.63200702164812
 20
-198.770402174242
 30
1679.0
 10
44.799022988788934
 20
-198.8318109352216
 30
1679.0
 10
44.96703754377047
 20
-198.89044545583656
 30
1679.0
 10
45.13601232247969
 20
-198.94623024130055
 30
1679.0
 10
45.30591087778787
 20
-198.99906035517014
 30
1679.0
 10
45.95667433037783
 20
-199.18834183405673
 30
1679.0
 10
46.44436258575732
 20
-199.30334844010466
 30
1679.0
 10
46.93866124781341
 20
-199.390283660297
 30
1679.0
 10
47.43792348356893
 20
-199.44562563905188
 30
1679.0
 10
47.93996579893473
 20
-199.46611594273702
 30
1679.0
 10
48.44204366952431
 20
-199.44924854969832
 30
1679.0
 10
48.94081683451083
 20
-199.39388239430173
 30
1679.0
 10
49.84006123101926
 20
-199.22378974796504
 30
1679.0
 10
50.24304740612298
 20
-199.1207362383783
 30
1679.0
 10
50.63906542155234
 20
-198.99219542249924
 30
1679.0
 10
51.02649946281413
 20
-198.83937699211114
 30
1679.0
 10
51.404202379735636
 20
-198.66400210093195
 30
1679.0
 10
51.77140452881657
 20
-198.46808294750787
 30
1679.0
 10
52.12764078633995
 20
-198.253742129236
 30
1679.0
 10
53.213618908875844
 20
-197.52776219670085
 30
1679.0
 10
53.90143161771427
 20
-196.95820317947206
 30
1679.0
 10
54.54030693426492
 20
-196.33172620246745
 30
1679.0
 10
55.13504955428398
 20
-195.66293815305048
 30
1679.0
 10
55.690296224317066
 20
-194.96290737466586
 30
1679.0
 10
56.210750081715446
 20
-194.23939439393428
 30
1679.0
 10
56.70110491751344
 20
-193.4967412795507
 30
1679.0
 10
57.560894805238846
 20
-192.09009121357087
 30
1679.0
 10
57.93651568344757
 20
-191.4326152975263
 30
1679.0
 10
58.29522718864689
 20
-190.76557064885475
 30
1679.0
 10
58.638759074902865
 20
-190.0905475780492
 30
1679.0
 10
58.96854676134551
 20
-189.4088015340474
 30
1679.0
 10
59.28582893935565
 20
-188.72130330863254
 30
1679.0
 10
59.591687868599905
 20
-188.02875964476286
 30
1679.0
 10
60.0667715074523
 20
-186.90763847493974
 30
1679.0
 10
60.24255899646414
 20
-186.48199368058005
 30
1679.0
 10
60.41467031940698
 20
-186.0548348999863
 30
1679.0
 10
60.58329374910246
 20
-185.62627847540392
 30
1679.0
 10
60.748599523351956
 20
-185.19642858289006
 30
1679.0
 10
60.91074288440173
 20
-184.76537838972865
 30
1679.0
 10
61.069866506153154
 20
-184.33321097501124
 30
1679.0
 10
61.22610230911816
 20
-183.90000001338402
 30
1679.0
  0
SPLINE
  5
6D
330
17
100
AcDbEntity
  8
0
100
AcDbSpline
 70
0
 71
8
 72
396
 73
387
 74
0
 40
0.0
 40
0.0
 40
0.0
 40
0.0
 40
0.0
 40
0.0
 40
0.0
 40
0.0
 40
0.0
 40
0.0005787229161406331
 40
0.0005787229161406331
 40
0.0005787229161406331
 40
0.0005787229161406331
 40
0.0005787229161406331
 40
0.0005787229161406331
 40
0.0005787229161406331
 40
0.0011815574637379597
 40
0.0011815574637379597
 40
0.0011815574637379597
 40
0.0011815574637379597
 40
0.0011815574637379597
 40
0.0011815574637379597
 40
0.0011815574637379597
 40
0.0017843920113350628
 40
0.0017843920113350628
 40
0.0017843920113350628
 40
0.0017843920113350628
 40
0.0017843920113350628
 40
0.0017843920113350628
 40
0.0017843920113350628
 40
0.0025077934684682875
 40
0.0025077934684682875
 40
0.0025077934684682875
 40
0.0025077934684682875
 40
0.0025077934684682875
 40
0.0025077934684682875
 40
0.0025077934684682875
 40
0.003577628254521968
 40
0.003577628254521968
 40
0.003577628254521968
 40
0.003577628254521968
 40
0.003577628254521968
 40
0.003577628254521968
 40
0.003577628254521968
 40
0.00551305226368091
 40
0.00551305226368091
 40
0.00551305226368091
 40
0.00551305226368091
 40
0.00551305226368091
 40
0.00551305226368091
 40
0.00551305226368091
 40
0.008741042453057487
 40
0.008741042453057487
 40
0.008741042453057487
 40
0.008741042453057487
 40
0.008741042453057487
 40
0.008741042453057487
 40
0.008741042453057487
 40
0.015372280298954013
 40
0.015372280298954013
 40
0.015372280298954013
 40
0.015372280298954013
 40
0.015372280298954013
 40
0.015372280298954013
 40
0.015372280298954013
 40
0.028322258959987925
 40
0.028322258959987925
 40
0.028322258959987925
 40
0.028322258959987925
 40
0.028322258959987925
 40
0.028322258959987925
 40
0.028322258959987925
 40
0.046359743735047795
 40
0.046359743735047795
 40
0.046359743735047795
 40
0.046359743735047795
 40
0.046359743735047795
 40
0.046359743735047795
 40
0.046359743735047795
 40
0.07868951136670443
 40
0.07868951136670443
 40
0.07868951136670443
 40
0.07868951136670443
 40
0.07868951136670443
 40
0.07868951136670443
 40
0.07868951136670443
 40
0.12075680916165757
 40
0.12075680916165757
 40
0.12075680916165757
 40
0.12075680916165757
 40
0.12075680916165757
 40
0.12075680916165757
 40
0.12075680916165757
 40
0.1585645844173301
 40
0.1585645844173301
 40
0.1585645844173301
 40
0.1585645844173301
 40
0.1585645844173301
 40
0.1585645844173301
 40
0.1585645844173301
 40
0.18146242752467176
 40
0.18146242752467176
 40
0.18146242752467176
 40
0.18146242752467176
 40
0.18146242752467176
 40
0.18146242752467176
 40
0.18146242752467176
 40
0.2039386033009243
 40
0.2039386033009243
 40
0.2039386033009243
 40
0.2039386033009243
 40
0.2039386033009243
 40
0.2039386033009243
 40
0.2039386033009243
 40
0.24679624104515513
 40
0.24679624104515513
 40
0.24679624104515513
 40
0.24679624104515513
 40
0.24679624104515513
 40
0.24679624104515513
 40
0.24679624104515513
 40
0.27846254452538216
 40
0.27846254452538216
 40
0.27846254452538216
 40
0.27846254452538216
 40
0.27846254452538216
 40
0.27846254452538216
 40
0.27846254452538216
 40
0.28847659535519626
 40
0.28847659535519626
 40
0.28847659535519626
 40
0.28847659535519626
 40
0.28847659535519626
 40
0.28847659535519626
 40
0.28847659535519626
 40
0.2984895483311857
 40
0.2984895483311857
 40
0.2984895483311857
 40
0.2984895483311857
 40
0.2984895483311857
 40
0.2984895483311857
 40
0.2984895483311857
 40
0.3153769242196465
 40
0.3153769242196465
 40
0.3153769242196465
 40
0.3153769242196465
 40
0.3153769242196465
 40
0.3153769242196465
 40
0.3153769242196465
 40
0.32391462488726136
 40
0.32391462488726136
 40
0.32391462488726136
 40
0.32391462488726136
 40
0.32391462488726136
 40
0.32391462488726136
 40
0.32391462488726136
 40
0.3277868650630567
 40
0.3277868650630567
 40
0.3277868650630567
 40
0.3277868650630567
 40
0.3277868650630567
 40
0.3277868650630567
 40
0.3277868650630567
 40
0.330413654187332
 40
0.330413654187332
 40
0.330413654187332
 40
0.330413654187332
 40
0.330413654187332
 40
0.330413654187332
 40
0.330413654187332
 40
0.3317079281606124
 40
0.3317079281606124
 40
0.3317079281606124
 40
0.3317079281606124
 40
0.3317079281606124
 40
0.3317079281606124
 40
0.3317079281606124
 40
0.3322087048892248
 40
0.3322087048892248
 40
0.3322087048892248
 40
0.3322087048892248
 40
0.3322087048892248
 40
0.3322087048892248
 40
0.3322087048892248
 40
0.3327094816178381
 40
0.3327094816178381
 40
0.3327094816178381
 40
0.3327094816178381
 40
0.3327094816178381
 40
0.3327094816178381
 40
0.3327094816178381
 40
0.3335679560097432
 40
0.3335679560097432
 40
0.3335679560097432
 40
0.3335679560097432
 40
0.3335679560097432
 40
0.3335679560097432
 40
0.3335679560097432
 40
0.3344264304032247
 40
0.3344264304032247
 40
0.3344264304032247
 40
0.3344264304032247
 40
0.3344264304032247
 40
0.3344264304032247
 40
0.3344264304032247
 40
0.33549913130025066
 40
0.33549913130025066
 40
0.33549913130025066
 40
0.33549913130025066
 40
0.33549913130025066
 40
0.33549913130025066
 40
0.33549913130025066
 40
0.33752263222363055
 40
0.33752263222363055
 40
0.33752263222363055
 40
0.33752263222363055
 40
0.33752263222363055
 40
0.33752263222363055
 40
0.33752263222363055
 40
0.33964293460346234
 40
0.33964293460346234
 40
0.33964293460346234
 40
0.33964293460346234
 40
0.33964293460346234
 40
0.33964293460346234
 40
0.33964293460346234
 40
0.34176323698328853
 40
0.34176323698328853
 40
0.34176323698328853
 40
0.34176323698328853
 40
0.34176323698328853
 40
0.34176323698328853
 40
0.34176323698328853
 40
0.34560983051586497
 40
0.34560983051586497
 40
0.34560983051586497
 40
0.34560983051586497
 40
0.34560983051586497
 40
0.34560983051586497
 40
0.34560983051586497
 40
0.35202534272530855
 40
0.35202534272530855
 40
0.35202534272530855
 40
0.35202534272530855
 40
0.35202534272530855
 40
0.35202534272530855
 40
0.35202534272530855
 40
0.3652046722561089
 40
0.3652046722561089
 40
0.3652046722561089
 40
0.3652046722561089
 40
0.3652046722561089
 40
0.3652046722561089
 40
0.3652046722561089
 40
0.3909422448075759
 40
0.3909422448075759
 40
0.3909422448075759
 40
0.3909422448075759
 40
0.3909422448075759
 40
0.3909422448075759
 40
0.3909422448075759
 40
0.42679131978081764
 40
0.42679131978081764
 40
0.42679131978081764
 40
0.42679131978081764
 40
0.42679131978081764
 40
0.42679131978081764
 40
0.42679131978081764
 40
0.49104906555114747
 40
0.49104906555114747
 40
0.49104906555114747
 40
0.49104906555114747
 40
0.49104906555114747
 40
0.49104906555114747
 40
0.49104906555114747
 40
0.574669245411865
 40
0.574669245411865
 40
0.574669245411865
 40
0.574669245411865
 40
0.574669245411865
 40
0.574669245411865
 40
0.574669245411865
 40
0.6498330638091813
 40
0.6498330638091813
 40
0.6498330638091813
 40
0.6498330638091813
 40
0.6498330638091813
 40
0.6498330638091813
 40
0.6498330638091813
 40
0.6953613188010489
 40
0.6953613188010489
 40
0.6953613188010489
 40
0.6953613188010489
 40
0.6953613188010489
 40
0.6953613188010489
 40
0.6953613188010489
 40
0.7400553685188636
 40
0.7400553685188636
 40
0.7400553685188636
 40
0.7400553685188636
 40
0.7400553685188636
 40
0.7400553685188636
 40
0.7400553685188636
 40
0.8252873804194908
 40
0.8252873804194908
 40
0.8252873804194908
 40
0.8252873804194908
 40
0.8252873804194908
 40
0.8252873804194908
 40
0.8252873804194908
 40
0.8882691257241425
 40
0.8882691257241425
 40
0.8882691257241425
 40
0.8882691257241425
 40
0.8882691257241425
 40
0.8882691257241425
 40
0.8882691257241425
 40
0.9081869307097163
 40
0.9081869307097163
 40
0.9081869307097163
 40
0.9081869307097163
 40
0.9081869307097163
 40
0.9081869307097163
 40
0.9081869307097163
 40
0.9281025512143971
 40
0.9281025512143971
 40
0.9281025512143971
 40
0.9281025512143971
 40
0.9281025512143971
 40
0.9281025512143971
 40
0.9281025512143971
 40
0.9616913004039979
 40
0.9616913004039979
 40
0.9616913004039979
 40
0.9616913004039979
 40
0.9616913004039979
 40
0.9616913004039979
 40
0.9616913004039979
 40
0.9786726567849142
 40
0.9786726567849142
 40
0.9786726567849142
 40
0.9786726567849142
 40
0.9786726567849142
 40
0.9786726567849142
 40
0.9786726567849142
 40
0.9863744749888415
 40
0.9863744749888415
 40
0.9863744749888415
 40
0.9863744749888415
 40
0.9863744749888415
 40
0.9863744749888415
 40
0.9863744749888415
 40
0.9915990975383998
 40
0.9915990975383998
 40
0.9915990975383998
 40
0.9915990975383998
 40
0.9915990975383998
 40
0.9915990975383998
 40
0.9915990975383998
 40
0.9941733520101608
 40
0.9941733520101608
 40
0.9941733520101608
 40
0.9941733520101608
 40
0.9941733520101608
 40
0.9941733520101608
 40
0.9941733520101608
 40
0.9951693621577664
 40
0.9951693621577664
 40
0.9951693621577664
 40
0.9951693621577664
 40
0.9951693621577664
 40
0.9951693621577664
 40
0.9951693621577664
 40
0.9961653723053716
 40
0.9961653723053716
 40
0.9961653723053716
 40
0.9961653723053716
 40
0.9961653723053716
 40
0.9961653723053716
 40
0.9961653723053716
 40
0.9975882439448088
 40
0.9975882439448088
 40
0.9975882439448088
 40
0.9975882439448088
 40
0.9975882439448088
 40
0.9975882439448088
 40
0.9975882439448088
 40
1.0
 40
1.0
 40
1.0
 40
1.0
 40
1.0
 40
1.0
 40
1.0
 40
1.0
 40
1.0
 10
30.38571302152781
 20
183.64218788770515
 30
1679.0
 10
30.38559753076559
 20
183.64230553042208
 30
1679.0
 10
30.385622110517723
 20
183.64214409254785
 30
1679.0
 10
30.385696242641536
 20
183.64195746897994
 30
1679.0
 10
30.38575894267749
 20
183.6418715261621
 30
1679.0
 10
30.385778759849174
 20
183.6418841020841
 30
1679.0
 10
30.38575377706329
 20
183.64186500628196
 30
1679.0
 10
30.38571161090965
 20
183.641556019838
 30
1679.0
 10
30.38570712078434
 20
183.63954472717467
 30
1679.0
 10
30.385703722230723
 20
183.63802238972613
 30
1679.0
 10
30.38569890357875
 20
183.63586393786431
 30
1679.0
 10
30.385692352406767
 20
183.63292942641817
 30
1679.0
 10
30.385683756293126
 20
183.62907891021672
 30
1679.0
 10
30.385672802816185
 20
183.62417244408903
 30
1679.0
 10
30.385659179554313
 20
183.61807008286416
 30
1679.0
 10
30.385625968617394
 20
183.60319367987788
 30
1679.0
 10
30.385606380942374
 20
183.59441963811673
 30
1679.0
 10
30.385583498639114
 20
183.58416981091648
 30
1679.0
 10
30.385557009286003
 20
183.57230425310618
 30
1679.0
 10
30.385526600461382
 20
183.55868301951486
 30
1679.0
 10
30.385491959743614
 20
183.54316616497155
 30
1679.0
 10
30.385452774711055
 20
183.52561374430533
 30
1679.0
 10
30.385355882819287
 20
183.48221229399314
 30
1679.0
 10
30.38529603899605
 20
183.45540603937837
 30
1679.0
 10
30.385228661607748
 20
183.42522522324518
 30
1679.0
 10
30.385153210789802
 20
183.39142802033788
 30
1679.0
 10
30.38506914667761
 20
183.353772605401
 30
1679.0
 10
30.384975929406565
 20
183.3120171531792
 30
1679.0
 10
30.384873019112078
 20
183.2659198384174
 30
1679.0
 10
30.38459254904449
 20
183.14028695541765
 30
1679.0
 10
30.384424082122948
 20
183.06482441061053
 30
1679.0
 10
30.384254953804685
 20
182.98906560181473
 30
1679.0
 10
30.38408536977941
 20
182.91310266507168
 30
1679.0
 10
30.38391549993445
 20
182.83701169912302
 30
1679.0
 10
30.383745406737585
 20
182.76082068565762
 30
1679.0
 10
30.38357511817368
 20
182.6845421600654
 30
1679.0
 10
30.383096117119525
 20
182.46997992919592
 30
1679.0
 10
30.382787118169382
 20
182.33156790795982
 30
1679.0
 10
30.3824777804206
 20
182.19300412632765
 30
1679.0
 10
30.382168201105745
 20
182.05433213832927
 30
1679.0
 10
30.381858445727985
 20
181.91558128527967
 30
1679.0
 10
30.381548556498196
 20
181.77677047498608
 30
1679.0
 10
30.381238548400322
 20
181.63790641926764
 30
1679.0
 10
30.380411175121914
 20
181.26729542616144
 30
1679.0
 10
30.379893659631765
 20
181.03548115953728
 30
1679.0
 10
30.37937595247036
 20
180.80358103631923
 30
1679.0
 10
30.378858101765623
 20
180.57161661472966
 30
1679.0
 10
30.37834014096621
 20
180.33960287766058
 30
1679.0
 10
30.377822092640173
 20
180.1075499342131
 30
1679.0
 10
30.377303968218047
 20
179.87546290451968
 30
1679.0
 10
30.375721243041983
 20
179.16650194986758
 30
1679.0
 10
30.374656447999357
 20
178.68954099583436
 30
1679.0
 10
30.373591470568915
 20
178.21249834360856
 30
1679.0
 10
30.372526359830434
 20
177.7353959777665
 30
1679.0
 10
30.37146114926141
 20
177.2582488941385
 30
1679.0
 10
30.370395860910243
 20
176.7810669690512
 30
1679.0
 10
30.369330504453142
 20
176.30385453678315
 30
1679.0
 10
30.366184443746704
 20
174.89461796459835
 30
1679.0
 10
30.364103592244632
 20
173.9625278647417
 30
1679.0
 10
30.362022594719498
 20
173.03037235576338
 30
1679.0
 10
30.35994149051342
 20
172.09816906047863
 30
1679.0
 10
30.357860306440895
 20
171.165929990069
 30
1679.0
 10
30.355779060153324
 20
170.23366305121752
 30
1679.0
 10
30.353697759386
 20
169.30137170890077
 30
1679.0
 10
30.34871737436723
 20
167.07047365354492
 30
1679.0
 10
30.345818195933308
 20
165.77185146729252
 30
1679.0
 10
30.342922397297514
 20
164.47320178853255
 30
1679.0
 10
30.3400317341658
 20
163.17453125435534
 30
1679.0
 10
30.337147449096847
 20
161.87584445002892
 30
1679.0
 10
30.334270542636403
 20
160.57714456180014
 30
1679.0
 10
30.331401705330897
 20
159.27843321080218
 30
1679.0
 10
30.32341513015993
 20
155.65192627670456
 30
1679.0
 10
30.31831662170283
 20
153.32411032833696
 30
1679.0
 10
30.313249492258414
 20
150.99627177416838
 30
1679.0
 10
30.308215919361146
 20
148.6684157194212
 30
1679.0
 10
30.303217724487457
 20
146.3405457730024
 30
1679.0
 10
30.29825659424659
 20
144.01266452134686
 30
1679.0
 10
30.293334055505284
 20
141.68477349831528
 30
1679.0
 10
30.282098722395162
 20
136.32782429947915
 30
1679.0
 10
30.27581375400193
 20
133.2987609706198
 30
1679.0
 10
30.26960014238739
 20
130.26968655233532
 30
1679.0
 10
30.263461255578164
 20
127.2406032003019
 30
1679.0
 10
30.25740060640585
 20
124.21151254163206
 30
1679.0
 10
30.251421986034806
 20
121.18241585717014
 30
1679.0
 10
30.24552956921452
 20
118.15331416760083
 30
1679.0
 10
30.23451385184033
 20
112.40181427918728
 30
1679.0
 10
30.22937308258726
 20
109.67941699716563
 30
1679.0
 10
30.224309073211906
 20
106.95701700525692
 30
1679.0
 10
30.219325497449265
 20
104.23461485771844
 30
1679.0
 10
30.214426411502483
 20
101.51221105109097
 30
1679.0
 10
30.209616352490766
 20
98.78980604017674
 30
1679.0
 10
30.204900436897148
 20
96.06740025401767
 30
1679.0
 10
30.19748884524145
 20
91.69620022501425
 30
1679.0
 10
30.19473015362303
 20
90.04740621062074
 30
1679.0
 10
30.192009556469944
 20
88.39861216305017
 30
1679.0
 10
30.189325135352366
 20
86.74981818203217
 30
1679.0
 10
30.1866748442588
 20
85.10102436841147
 30
1679.0
 10
30.184057768551305
 20
83.45223082296815
 30
1679.0
 10
30.181473679718515
 20
81.8034376483155
 30
1679.0
 10
30.176415102228525
 20
78.53621503254452
 30
1679.0
 10
30.173939645554505
 20
76.91778557478952
 30
1679.0
 10
30.171493586942056
 20
75.2993566825476
 30
1679.0
 10
30.169076057134077
 20
73.68092846284081
 30
1679.0
 10
30.16668624074281
 20
72.06250102932746
 30
1679.0
 10
30.16432337041346
 20
70.44407450385414
 30
1679.0
 10
30.16198672098795
 20
68.82564901800772
 30
1679.0
 10
30.15526875840065
 20
64.12120851691607
 30
1679.0
 10
30.150954743522654
 20
61.0351967669692
 30
1679.0
 10
30.146728798488613
 20
57.94919028379366
 30
1679.0
 10
30.142586627271537
 20
54.8631902216357
 30
1679.0
 10
30.138524326132874
 20
51.77719804629651
 30
1679.0
 10
30.134538267577796
 20
48.69121564194079
 30
1679.0
 10
30.130624940496556
 20
45.60524554843832
 30
1679.0
 10
30.123940379630593
 20
40.239166525943176
 30
1679.0
 10
30.121137756716063
 20
37.95905111478619
 30
1679.0
 10
30.118371401499104
 20
35.678945966335284
 30
1679.0
 10
30.115639857488336
 20
33.39885269221722
 30
1679.0
 10
30.112941461382576
 20
31.118774135986126
 30
1679.0
 10
30.110274391507264
 20
28.838714298711885
 30
1679.0
 10
30.10763641724062
 20
26.558678886974047
 30
1679.0
 10
30.104197561897003
 20
23.557657357237236
 30
1679.0
 10
30.103388269870685
 20
22.849197055919802
 30
1679.0
 10
30.102595901786238
 20
22.153538403459002
 30
1679.0
 10
30.101820460092885
 20
21.47092303631929
 30
1679.0
 10
30.10106194723984
 20
20.801592590965114
 30
1679.0
 10
30.100320365676314
 20
20.145788703860863
 30
1679.0
 10
30.09959571785151
 20
19.503753011470906
 30
1679.0
 10
30.09818037216518
 20
18.247770140365873
 30
1679.0
 10
30.097489485624166
 20
17.633678097755904
 30
1679.0
 10
30.0968157012686
 20
17.033845481209028
 30
1679.0
 10
30.096158525956728
 20
16.448589661090864
 30
1679.0
 10
30.095519065184938
 20
15.878148594207971
 30
1679.0
 10
30.09489592195336
 20
15.32268468512791
 30
1679.0
 10
30.094289732508535
 20
14.782280527312082
 30
1679.0
 10
30.092706581037458
 20
13.370929455489708
 30
1679.0
 10
30.091712745737034
 20
12.484943010354641
 30
1679.0
 10
30.090718939760368
 20
11.598982546937254
 30
1679.0
 10
30.089725167132656
 20
10.713051634849847
 30
1679.0
 10
30.088731437619614
 20
9.827158954328109
 30
1679.0
 10
30.087737766166462
 20
8.941317796524459
 30
1679.0
 10
30.086744174819128
 20
8.05554777086575
 30
1679.0
 10
30.085248435345466
 20
6.722120569974301
 30
1679.0
 10
30.08474620506788
 20
6.274390425578559
 30
1679.0
 10
30.08424401191601
 20
5.826693276002796
 30
1679.0
 10
30.083741860948088
 20
5.379033618571924
 30
1679.0
 10
30.08323976463226
 20
4.931422551872949
 30
1679.0
 10
30.082737742082628
 20
4.483877095088914
 30
1679.0
 10
30.082235821515546
 20
4.036422374339651
 30
1679.0
 10
30.08150647745833
 20
3.386222659554928
 30
1679.0
 10
30.0812789375655
 20
3.183374077293493
 30
1679.0
 10
30.08105143515334
 20
2.98055885626594
 30
1679.0
 10
30.08082397591776
 20
2.7777820687643384
 30
1679.0
 10
30.080596570491892
 20
2.5750531867772786
 30
1679.0
 10
30.080369234443417
 20
2.372386079598357
 30
1679.0
 10
30.080141989955465
 20
2.169800511272424
 30
1679.0
 10
30.079760803719438
 20
1.829977657510824
 30
1679.0
 10
30.079606813977854
 20
1.6926976433022674
 30
1679.0
 10
30.079452895497823
 20
1.555481103460636
 30
1679.0
 10
30.07929905885187
 20
1.4183374558642186
 30
1679.0
 10
30.07914532712716
 20
1.2812872729049332
 30
1679.0
 10
30.078991753602082
 20
1.1443780376418147
 30
1679.0
 10
30.078838406465522
 20
1.0076705223002023
 30
1679.0
 10
30.07861005853325
 20
0.8041002994829967
 30
1679.0
 10
30.078534827585962
 20
0.7370325209529085
 30
1679.0
 10
30.078459709880292
 20
0.670065657576913
 30
1679.0
 10
30.0783847206757
 20
0.6032133070295345
 30
1679.0
 10
30.078309894301334
 20
0.5365060661098369
 30
1679.0
 10
30.078235344576086
 20
0.47004539181318705
 30
1679.0
 10
30.078161200537323
 20
0.4039463060892672
 30
1679.0
 10
30.078059386526636
 20
0.31317940385564214
 30
1679.0
 10
30.07803260170675
 20
0.28930079555259985
 30
1679.0
 10
30.07800738194644
 20
0.2668174173827518
 30
1679.0
 10
30.077983673422118
 20
0.2456812868895221
 30
1679.0
 10
30.077961422310153
 20
0.22584442161633586
 30
1679.0
 10
30.07794057478694
 20
0.20725883910661885
 30
1679.0
 10
30.077921077028854
 20
0.1898765569037977
 30
1679.0
 10
30.07788467339572
 20
0.1574226281987876
 30
1679.0
 10
30.077867767520676
 20
0.1423509816966292
 30
1679.0
 10
30.07785210376352
 20
0.1283866705882539
 30
1679.0
 10
30.077837628300657
 20
0.11548171241709042
 30
1679.0
 10
30.07782428730846
 20
0.10358812472656659
 30
1679.0
 10
30.07781202696332
 20
0.0926579250601094
 30
1679.0
 10
30.07780079344162
 20
0.08264313096114506
 30
1679.0
 10
30.077772943453677
 20
0.05781455256507683
 30
1679.0
 10
30.077758213415656
 20
0.04468250695242457
 30
1679.0
 10
30.077746071647667
 20
0.033857892275248345
 30
1679.0
 10
30.077736246991645
 20
0.025098977673650328
 30
1679.0
 10
30.07772846828955
 20
0.018164032287728563
 30
1679.0
 10
30.077722464383363
 20
0.012811325257577064
 30
1679.0
 10
30.07771796411503
 20
0.008799125723285783
 30
1679.0
 10
30.077711428537995
 20
0.0029722799212486
 30
1679.0
 10
30.077709315907978
 20
0.00115763366139378
 30
1679.0
 10
30.07770830222193
 20
0.0002000331786875214
 30
1679.0
 10
30.077708034555176
 20
-0.00014225238993503808
 30
1679.0
 10
30.077708065604178
 20
-0.0001109539048458024
 30
1679.0
 10
30.07770805601786
 20
5.219777534547023e-05
 30
1679.0
 10
30.07770797672888
 20
0.00010547179286035657
 30
1679.0
 10
30.077708729327277
 20
-0.0005656445793285059
 30
1679.0
 10
30.07770976927026
 20
-0.001492916220762197
 30
1679.0
 10
30.077711974344727
 20
-0.003458956614597497
 30
1679.0
 10
30.07771591389098
 20
-0.006971313473798091
 30
1679.0
 10
30.077721921240013
 20
-0.012327129526720881
 30
1679.0
 10
30.07772998017613
 20
-0.019511930041403502
 30
1679.0
 10
30.077739732110423
 20
-0.028206021350687394
 30
1679.0
 10
30.07777103176035
 20
-0.056110286119206876
 30
1679.0
 10
30.077795567407204
 20
-0.07798414099366369
 30
1679.0
 10
30.077822439837302
 20
-0.10194114665483767
 30
1679.0
 10
30.07785051696642
 20
-0.12697207656566434
 30
1679.0
 10
30.07787921354461
 20
-0.15255518798943513
 30
1679.0
 10
30.07790819378352
 20
-0.17839114045460747
 30
1679.0
 10
30.0779375329374
 20
-0.20454702939244385
 30
1679.0
 10
30.077999059135518
 20
-0.2593976377520591
 30
1679.0
 10
30.07803345099331
 20
-0.29005794539657515
 30
1679.0
 10
30.078070909887607
 20
-0.32345247730883586
 30
1679.0
 10
30.07811159273855
 20
-0.35972112403271284
 30
1679.0
 10
30.078155656466322
 20
-0.3990037761121021
 30
1679.0
 10
30.078203257991078
 20
-0.4414403240909236
 30
1679.0
 10
30.078254554232974
 20
-0.4871706585131221
 30
1679.0
 10
30.07836484999135
 20
-0.5854986813320693
 30
1679.0
 10
30.078423849507843
 20
-0.63809636972911
 30
1679.0
 10
30.0784868575818
 20
-0.6942676256574579
 30
1679.0
 10
30.07855403113338
 20
-0.7541523396608883
 30
1679.0
 10
30.078625527082753
 20
-0.8178904022832846
 30
1679.0
 10
30.078701502350075
 20
-0.8856217040686363
 30
1679.0
 10
30.07878211385551
 20
-0.9574861355610409
 30
1679.0
 10
30.079022457281813
 20
-1.171750032028136
 30
1679.0
 10
30.079177655700484
 20
-1.310107842143033
 30
1679.0
 10
30.07933302451637
 20
-1.4486174708045318
 30
1679.0
 10
30.079488514839866
 20
-1.5872353478714274
 30
1679.0
 10
30.079644093733886
 20
-1.7259321208322902
 30
1679.0
 10
30.079799739971573
 20
-1.864688874553572
 30
1679.0
 10
30.079955446014562
 20
-2.003498894583185
 30
1679.0
 10
30.080371005821387
 20
-2.373965227462431
 30
1679.0
 10
30.080630935227603
 20
-2.605688895756039
 30
1679.0
 10
30.08089096109033
 20
-2.837498454206255
 30
1679.0
 10
30.08115105920169
 20
-3.0693723361160323
 30
1679.0
 10
30.081411212736533
 20
-3.3012955528362653
 30
1679.0
 10
30.081671410341265
 20
-3.533257991411574
 30
1679.0
 10
30.081931646262884
 20
-3.7652545295702957
 30
1679.0
 10
30.082726593964807
 20
-4.473938676763176
 30
1679.0
 10
30.08326140359969
 20
-4.9507133487263175
 30
1679.0
 10
30.0837963051147
 20
-5.427569751309278
 30
1679.0
 10
30.084331273807738
 20
-5.904485890626461
 30
1679.0
 10
30.084866292828806
 20
-6.38144676533398
 30
1679.0
 10
30.085401351077376
 20
-6.858442495575993
 30
1679.0
 10
30.085936443675347
 20
-7.335468744618499
 30
1679.0
 10
30.08751660375518
 20
-8.744155188414428
 30
1679.0
 10
30.088561745548546
 20
-9.675881369159967
 30
1679.0
 10
30.089606961055015
 20
-10.607672984143576
 30
1679.0
 10
30.090652230451905
 20
-11.539512404782954
 30
1679.0
 10
30.091697540224565
 20
-12.47138761467221
 30
1679.0
 10
30.09274288147136
 20
-13.403290703453948
 30
1679.0
 10
30.093788250284415
 20
-14.335218205847237
 30
1679.0
 10
30.09628974560544
 20
-16.565255963479036
 30
1679.0
 10
30.0977458299676
 20
-17.86338169894966
 30
1679.0
 10
30.099205388009267
 20
-19.161534927994072
 30
1679.0
 10
30.100670153812054
 20
-20.459709004255018
 30
1679.0
 10
30.102141354932535
 20
-21.75789933690456
 30
1679.0
 10
30.1036199814695
 20
-23.05610273547024
 30
1679.0
 10
30.105106718631806
 20
-24.35431757488667
 30
1679.0
 10
30.10928273822779
 20
-27.979550125000458
 30
1679.0
 10
30.11199132785901
 20
-30.306588149533567
 30
1679.0
 10
30.114731385565936
 20
-32.633648688546664
 30
1679.0
 10
30.117505071458677
 20
-34.96072662653566
 30
1679.0
 10
30.12031419424174
 20
-37.28781834659897
 30
1679.0
 10
30.123160430933307
 20
-39.614921255360066
 30
1679.0
 10
30.12604530202826
 20
-41.942033812971566
 30
1679.0
 10
30.13277680372537
 20
-47.29749517696986
 30
1679.0
 10
30.13665129725244
 20
-50.325849049738466
 30
1679.0
 10
30.140597210884383
 20
-53.3542137838925
 30
1679.0
 10
30.14461790246021
 20
-56.382587211057654
 30
1679.0
 10
30.14871687569114
 20
-59.41096769144563
 30
1679.0
 10
30.152897912977828
 20
-62.43935393094207
 30
1679.0
 10
30.15716518013525
 20
-65.46774489461495
 30
1679.0
 10
30.165440696625822
 20
-71.21827849577365
 30
1679.0
 10
30.169431494417463
 20
-73.94042027416033
 30
1679.0
 10
30.17349908028838
 20
-76.66256451220407
 30
1679.0
 10
30.177647121826354
 20
-79.38471064320883
 30
1679.0
 10
30.18187966833768
 20
-82.10685815707772
 30
1679.0
 10
30.186201248865988
 20
-84.82900658400881
 30
1679.0
 10
30.19061697021116
 20
-87.55115547819094
 30
1679.0
 10
30.19786783289513
 20
-91.92216542198597
 30
1679.0
 10
30.200639977741464
 20
-93.57102644924001
 30
1679.0
 10
30.203450219276853
 20
-95.21988738506883
 30
1679.0
 10
30.20629663652758
 20
-96.86874813601109
 30
1679.0
 10
30.20917718121054
 20
-98.51760860792602
 30
1679.0
 10
30.212090936781856
 20
-100.16646870306415
 30
1679.0
 10
30.215037673080143
 20
-101.81532831961935
 30
1679.0
 10
30.22093915430941
 20
-105.08283466767406
 30
1679.0
 10
30.22389293723653
 20
-106.7014814188764
 30
1679.0
 10
30.22687611460716
 20
-108.320127508497
 30
1679.0
 10
30.229887815540593
 20
-109.93877283240641
 30
1679.0
 10
30.23292722315221
 20
-111.55741727968238
 30
1679.0
 10
30.23599356869163
 20
-113.17606073107389
 30
1679.0
 10
30.23908612568085
 20
-114.79470305746494
 30
1679.0
 10
30.24815041153522
 20
-119.50010924779697
 30
1679.0
 10
30.254189430107097
 20
-122.58686962684186
 30
1679.0
 10
30.260316489457633
 20
-125.67362445237252
 30
1679.0
 10
30.266527284136764
 20
-128.76037258485977
 30
1679.0
 10
30.2728179010039
 20
-131.8471125722671
 30
1679.0
 10
30.279184702585503
 20
-134.93384254370054
 30
1679.0
 10
30.285624166340902
 20
-138.02055997278694
 30
1679.0
 10
30.296942111529532
 20
-143.38816297162353
 30
1679.0
 10
30.30178924667105
 20
-145.66905512078432
 30
1679.0
 10
30.306672604834958
 20
-147.9499368928804
 30
1679.0
 10
30.31159072306625
 20
-150.23080668187401
 30
1679.0
 10
30.316541927785583
 20
-152.51166165131843
 30
1679.0
 10
30.321524383403105
 20
-154.79249780845353
 30
1679.0
 10
30.326535840047065
 20
-157.07330945725715
 30
1679.0
 10
30.33316533366097
 20
-160.07537646711322
 30
1679.0
 10
30.334732949735987
 20
-160.7841031628882
 30
1679.0
 10
30.336274542465894
 20
-161.48002501323188
 30
1679.0
 10
30.33778930327819
 20
-162.16290009849354
 30
1679.0
 10
30.339276423600342
 20
-162.83248649902225
 30
1679.0
 10
30.34073509485985
 20
-163.4885422951671
 30
1679.0
 10
30.342164508484185
 20
-164.1308255672772
 30
1679.0
 10
30.344963049844377
 20
-165.38729431888038
 30
1679.0
 10
30.346332475064333
 20
-166.00162477586855
 30
1679.0
 10
30.34767116228429
 20
-166.60169090409948
 30
1679.0
 10
30.348977553409327
 20
-167.18717499350757
 30
1679.0
 10
30.350251954830274
 20
-167.75783880174504
 30
1679.0
 10
30.3514924249345
 20
-168.3135197092532
 30
1679.0
 10
30.352699322367183
 20
-168.85413496007928
 30
1679.0
 10
30.35585133362864
 20
-170.26603700523125
 30
1679.0
 10
30.357830032877395
 20
-171.15236934491628
 30
1679.0
 10
30.35980867414585
 20
-172.0386757130613
 30
1679.0
 10
30.361787249468218
 20
-172.9249525415559
 30
1679.0
 10
30.363765739473884
 20
-173.81119115354934
 30
1679.0
 10
30.365744114502522
 20
-174.69737826306368
 30
1679.0
 10
30.36772233079411
 20
-175.5834942684307
 30
1679.0
 10
30.37070031283884
 20
-176.91744221169836
 30
1679.0
 10
30.37170024142865
 20
-177.3653470901573
 30
1679.0
 10
30.37270009638772
 20
-177.81321898668875
 30
1679.0
 10
30.373699867680255
 20
-178.2610534058991
 30
1679.0
 10
30.37469953053874
 20
-178.7088392535045
 30
1679.0
 10
30.375699046983296
 20
-179.15655951690388
 30
1679.0
 10
30.376698360943017
 20
-179.604189079884
 30
1679.0
 10
30.378150471184995
 20
-180.25464279034395
 30
1679.0
 10
30.378603498633293
 20
-180.45757048562814
 30
1679.0
 10
30.379056451633282
 20
-180.6604648327424
 30
1679.0
 10
30.379509318865715
 20
-180.86332076143574
 30
1679.0
 10
30.37996207919304
 20
-181.06612880338378
 30
1679.0
 10
30.380414701664623
 20
-181.26887509463614
 30
1679.0
 10
30.380867142174978
 20
-181.4715398787801
 30
1679.0
 10
30.381626078323418
 20
-181.8114953583882
 30
1679.0
 10
30.381932669313947
 20
-181.94882876572075
 30
1679.0
 10
30.382239118655438
 20
-182.0860987232981
 30
1679.0
 10
30.382545405333246
 20
-182.22329581771913
 30
1679.0
 10
30.38285148343634
 20
-182.3603994838983
 30
1679.0
 10
30.383157247002085
 20
-182.49736225719343
 30
1679.0
 10
30.383462560408713
 20
-182.63412338761333
 30
1679.0
 10
30.3839171998137
 20
-182.83777313771208
 30
1679.0
 10
30.3840669834442
 20
-182.90486674769008
 30
1679.0
 10
30.384216541873105
 20
-182.9718594816021
 30
1679.0
 10
30.384365844757934
 20
-183.03873774783335
 30
1679.0
 10
30.38451482382841
 20
-183.10547096574436
 30
1679.0
 10
30.384663252649823
 20
-183.17195770678282
 30
1679.0
 10
30.384810874536498
 20
-183.23808299201158
 30
1679.0
 10
30.385013588808892
 20
-183.3288861878249
 30
1679.0
 10
30.385066917602945
 20
-183.35277412068385
 30
1679.0
 10
30.38511713038875
 20
-183.37526627857463
 30
1679.0
 10
30.385164334326927
 20
-183.3964106626909
 30
1679.0
 10
30.3852086365781
 20
-183.41625527422624
 30
1679.0
 10
30.38525014430289
 20
-183.43484811437432
 30
1679.0
 10
30.38528896466193
 20
-183.4522371843288
 30
1679.0
 10
30.385361444969753
 20
-183.4847037862378
 30
1679.0
 10
30.385395104918516
 20
-183.49978131819228
 30
1679.0
 10
30.385426291822796
 20
-183.51375108234038
 30
1679.0
 10
30.38545511284317
 20
-183.5266610798758
 30
1679.0
 10
30.385481675140294
 20
-183.5385593119921
 30
1679.0
 10
30.38550608587477
 20
-183.5494937798829
 30
1679.0
 10
30.385528452207225
 20
-183.55951248474193
 30
1679.0
 10
30.385578065714085
 20
-183.5817362035069
 30
1679.0
 10
30.38560329657604
 20
-183.593038036724
 30
1679.0
 10
30.385624886305752
 20
-183.60270887258528
 30
1679.0
 10
30.38564314732489
 20
-183.6108886562614
 30
1679.0
 10
30.38565839205508
 20
-183.61771733292358
 30
1679.0
 10
30.38567093291798
 20
-183.62333484774257
 30
1679.0
 10
30.38568108233522
 20
-183.6278811458894
 30
1679.0
 10
30.38570283198044
 20
-183.63762361380284
 30
1679.0
 10
30.385681853456752
 20
-183.63731834967223
 30
1679.0
 10
30.38572187121127
 20
-183.63883195057264
 30
1679.0
 10
30.38573669067244
 20
-183.64136116728304
 30
1679.0
 10
30.385694446637295
 20
-183.64255794059065
 30
1679.0
 10
30.385676340608352
 20
-183.6422171547632
 30
1679.0
 10
30.385757937473354
 20
-183.64214213483478
 30
1679.0
 10
30.38571302152781
 20
-183.64218788770515
 30
1679.0
  0
ENDSEC
  0
SECTION
  2
OBJECTS
  0
DICTIONARY
  5
A
330
0
100
AcDbDictionary
281
1
  3
ACAD_COLOR
350
B
  3
ACAD_GROUP
350
C
  3
ACAD_LAYOUT
350
D
  3
ACAD_MATERIAL
350
E
  3
ACAD_MLEADERSTYLE
350
F
  3
ACAD_MLINESTYLE
350
10
  3
ACAD_PLOTSETTINGS
350
11
  3
ACAD_PLOTSTYLENAME
350
12
  3
ACAD_SCALELIST
350
14
  3
ACAD_TABLESTYLE
350
15
  3
ACAD_VISUALSTYLE
350
16
  3
EZDXF_META
350
2D
  0
DICTIONARY
  5
B
330
A
100
AcDbDictionary
281
1
  0
DICTIONARY
  5
C
330
A
100
AcDbDictionary
281
1
  0
DICTIONARY
  5
D
330
A
100
AcDbDictionary
281
1
  3
Model
350
1A
  3
Layout1
350
1E
  0
DICTIONARY
  5
E
330
A
100
AcDbDictionary
281
1
  3
ByBlock
350
1F
  3
ByLayer
350
20
  3
Global
350
21
  0
DICTIONARY
  5
F
330
A
100
AcDbDictionary
281
1
  3
Standard
350
2C
  0
DICTIONARY
  5
10
330
A
100
AcDbDictionary
281
1
  3
Standard
350
22
  0
DICTIONARY
  5
11
330
A
100
AcDbDictionary
281
1
  0
ACDBDICTIONARYWDFLT
  5
12
330
A
100
AcDbDictionary
281
1
  3
Normal
350
13
100
AcDbDictionaryWithDefault
340
13
  0
ACDBPLACEHOLDER
  5
13
330
12
  0
DICTIONARY
  5
14
330
A
100
AcDbDictionary
281
1
  0
DICTIONARY
  5
15
330
A
100
AcDbDictionary
281
1
  0
DICTIONARY
  5
16
330
A
100
AcDbDictionary
281
1
  0
LAYOUT
  5
1A
330
D
100
AcDbPlotSettings
  1

  2
Adobe PDF
  4
A3
  6

 40
7.5
 41
20.0
 42
7.5
 43
20.0
 44
420.0
 45
297.0
 46
0.0
 47
0.0
 48
0.0
 49
0.0
140
0.0
141
0.0
142
1.0
143
1.0
 70
1024
 72
1
 73
1
 74
5
  7

 75
16
 76
0
 77
2
 78
300
147
1.0
148
0.0
149
0.0
100
AcDbLayout
  1
Model
 70
1
 71
0
 10
0.0
 20
0.0
 11
420.0
 21
297.0
 12
0.0
 22
0.0
 32
0.0
 14
1e+20
 24
1e+20
 34
1e+20
 15
-1e+20
 25
-1e+20
 35
-1e+20
146
0.0
 13
0.0
 23
0.0
 33
0.0
 16
1.0
 26
0.0
 36
0.0
 17
0.0
 27
1.0
 37
0.0
 76
1
330
17
  0
LAYOUT
  5
1E
330
D
100
AcDbPlotSettings
  1

  2
Adobe PDF
  4
A3
  6

 40
7.5
 41
20.0
 42
7.5
 43
20.0
 44
420.0
 45
297.0
 46
0.0
 47
0.0
 48
0.0
 49
0.0
140
0.0
141
0.0
142
1.0
143
1.0
 70
0
 72
1
 73
1
 74
5
  7

 75
16
 76
0
 77
2
 78
300
147
1.0
148
0.0
149
0.0
100
AcDbLayout
  1
Layout1
 70
1
 71
1
 10
0.0
 20
0.0
 11
420.0
 21
297.0
 12
0.0
 22
0.0
 32
0.0
 14
1e+20
 24
1e+20
 34
1e+20
 15
-1e+20
 25
-1e+20
 35
-1e+20
146
0.0
 13
0.0
 23
0.0
 33
0.0
 16
1.0
 26
0.0
 36
0.0
 17
0.0
 27
1.0
 37
0.0
 76
1
330
1B
  0
MATERIAL
  5
1F
102
{ACAD_REACTORS
330
E
102
}
330
E
100
AcDbMaterial
  1
ByBlock
  2

 70
0
 40
1.0
 71
1
 41
1.0
 91
-1023410177
 42
1.0
 72
1
  3

 73
1
 74
1
 75
1
 44
0.5
 73
0
 45
1.0
 46
1.0
 77
1
  4

 78
1
 79
1
170
1
 48
1.0
171
1
  6

172
1
173
1
174
1
140
1.0
141
1.0
175
1
  7

176
1
177
1
178
1
143
1.0
179
1
  8

270
1
271
1
272
1
145
1.0
146
1.0
273
1
  9

274
1
275
1
276
1
 42
1.0
 72
1
  3

 73
1
 74
1
 75
1
 94
63
  0
MATERIAL
  5
20
102
{ACAD_REACTORS
330
E
102
}
330
E
100
AcDbMaterial
  1
ByLayer
  2

 70
0
 40
1.0
 71
1
 41
1.0
 91
-1023410177
 42
1.0
 72
1
  3

 73
1
 74
1
 75
1
 44
0.5
 73
0
 45
1.0
 46
1.0
 77
1
  4

 78
1
 79
1
170
1
 48
1.0
171
1
  6

172
1
173
1
174
1
140
1.0
141
1.0
175
1
  7

176
1
177
1
178
1
143
1.0
179
1
  8

270
1
271
1
272
1
145
1.0
146
1.0
273
1
  9

274
1
275
1
276
1
 42
1.0
 72
1
  3

 73
1
 74
1
 75
1
 94
63
  0
MATERIAL
  5
21
102
{ACAD_REACTORS
330
E
102
}
330
E
100
AcDbMaterial
  1
Global
  2

 70
0
 40
1.0
 71
1
 41
1.0
 91
-1023410177
 42
1.0
 72
1
  3

 73
1
 74
1
 75
1
 44
0.5
 73
0
 45
1.0
 46
1.0
 77
1
  4

 78
1
 79
1
170
1
 48
1.0
171
1
  6

172
1
173
1
174
1
140
1.0
141
1.0
175
1
  7

176
1
177
1
178
1
143
1.0
179
1
  8

270
1
271
1
272
1
145
1.0
146
1.0
273
1
  9

274
1
275
1
276
1
 42
1.0
 72
1
  3

 73
1
 74
1
 75
1
 94
63
  0
MLINESTYLE
  5
22
102
{ACAD_REACTORS
330
10
102
}
330
10
100
AcDbMlineStyle
  2
Standard
 70
0
  3

 62
256
 51
90.0
 52
90.0
 71
2
 49
0.5
 62
256
  6
BYLAYER
 49
-0.5
 62
256
  6
BYLAYER
  0
MLEADERSTYLE
  5
2C
102
{ACAD_REACTORS
330
F
102
}
330
F
100
AcDbMLeaderStyle
179
2
170
2
171
1
172
0
 90
2
 40
0.0
 41
0.0
173
1
 91
-1056964608
 92
-2
290
1
 42
2.0
291
1
 43
8.0
  3
Standard
 44
4.0
300

342
29
174
1
175
1
176
0
178
1
 93
-1056964608
 45
4.0
292
0
297
0
 46
4.0
 94
-1056964608
 47
1.0
 49
1.0
140
1.0
294
1
141
0.0
177
0
142
1.0
295
0
296
0
143
3.75
271
0
272
9
273
9
  0
DICTIONARY
  5
2D
330
A
100
AcDbDictionary
280
1
281
1
  3
CREATED_BY_EZDXF
350
2E
  3
WRITTEN_BY_EZDXF
350
70
  0
DICTIONARYVAR
  5
2E
330
2D
100
DictionaryVariables
280
0
  1
0.17 @ 2022-02-15T16:45:37.838235+00:00
  0
DICTIONARYVAR
  5
70
330
2D
100
DictionaryVariables
280
0
  1
0.17 @ 2022-02-15T16:45:37.917901+00:00
  0
ENDSEC
  0
EOF
