  0
SECTION
  2
HEADER
  9
$ACADVER
  1
AC1027
  9
$ACADMAINTVER
 70
105
  9
$DWGCODEPAGE
  3
ANSI_1252
  9
$LASTSAVEDBY
  1
ezdxf
  9
$REQUIREDVERSIONS
160
0
  9
$INSBASE
 10
0.0
 20
0.0
 30
0.0
  9
$EXTMIN
 10
1e+20
 20
1e+20
 30
1e+20
  9
$EXTMAX
 10
-1e+20
 20
-1e+20
 30
-1e+20
  9
$LIMMIN
 10
0.0
 20
0.0
  9
$LIMMAX
 10
420.0
 20
297.0
  9
$ORTHOMODE
 70
0
  9
$REGENMODE
 70
1
  9
$FILLMODE
 70
1
  9
$QTEXTMODE
 70
0
  9
$MIRRTEXT
 70
1
  9
$LTSCALE
 40
1.0
  9
$ATTMODE
 70
1
  9
$TEXTSIZE
 40
2.5
  9
$TRACEWID
 40
1.0
  9
$TEXTSTYLE
  7
Standard
  9
$CLAYER
  8
0
  9
$CELTYPE
  6
ByLayer
  9
$CECOLOR
 62
256
  9
$CELTSCALE
 40
1.0
  9
$DISPSILH
 70
0
  9
$DIMSCALE
 40
1.0
  9
$DIMASZ
 40
2.5
  9
$DIMEXO
 40
0.625
  9
$DIMDLI
 40
3.75
  9
$DIMRND
 40
0.0
  9
$DIMDLE
 40
0.0
  9
$DIMEXE
 40
1.25
  9
$DIMTP
 40
0.0
  9
$DIMTM
 40
0.0
  9
$DIMTXT
 40
2.5
  9
$DIMCEN
 40
2.5
  9
$DIMTSZ
 40
0.0
  9
$DIMTOL
 70
0
  9
$DIMLIM
 70
0
  9
$DIMTIH
 70
0
  9
$DIMTOH
 70
0
  9
$DIMSE1
 70
0
  9
$DIMSE2
 70
0
  9
$DIMTAD
 70
1
  9
$DIMZIN
 70
8
  9
$DIMBLK
  1

  9
$DIMASO
 70
1
  9
$DIMSHO
 70
1
  9
$DIMPOST
  1

  9
$DIMAPOST
  1

  9
$DIMALT
 70
0
  9
$DIMALTD
 70
3
  9
$DIMALTF
 40
0.03937007874
  9
$DIMLFAC
 40
1.0
  9
$DIMTOFL
 70
1
  9
$DIMTVP
 40
0.0
  9
$DIMTIX
 70
0
  9
$DIMSOXD
 70
0
  9
$DIMSAH
 70
0
  9
$DIMBLK1
  1

  9
$DIMBLK2
  1

  9
$DIMSTYLE
  2
ISO-25
  9
$DIMCLRD
 70
0
  9
$DIMCLRE
 70
0
  9
$DIMCLRT
 70
0
  9
$DIMTFAC
 40
1.0
  9
$DIMGAP
 40
0.625
  9
$DIMJUST
 70
0
  9
$DIMSD1
 70
0
  9
$DIMSD2
 70
0
  9
$DIMTOLJ
 70
0
  9
$DIMTZIN
 70
8
  9
$DIMALTZ
 70
0
  9
$DIMALTTZ
 70
0
  9
$DIMUPT
 70
0
  9
$DIMDEC
 70
2
  9
$DIMTDEC
 70
2
  9
$DIMALTU
 70
2
  9
$DIMALTTD
 70
3
  9
$DIMTXSTY
  7
Standard
  9
$DIMAUNIT
 70
0
  9
$DIMADEC
 70
0
  9
$DIMALTRND
 40
0.0
  9
$DIMAZIN
 70
0
  9
$DIMDSEP
 70
44
  9
$DIMATFIT
 70
3
  9
$DIMFRAC
 70
0
  9
$DIMLDRBLK
  1

  9
$DIMLUNIT
 70
2
  9
$DIMLWD
 70
-2
  9
$DIMLWE
 70
-2
  9
$DIMTMOVE
 70
0
  9
$DIMFXL
 40
1.0
  9
$DIMFXLON
 70
0
  9
$DIMJOGANG
 40
0.785398163397
  9
$DIMTFILL
 70
0
  9
$DIMTFILLCLR
 70
0
  9
$DIMARCSYM
 70
0
  9
$DIMLTYPE
  6

  9
$DIMLTEX1
  6

  9
$DIMLTEX2
  6

  9
$DIMTXTDIRECTION
 70
0
  9
$LUNITS
 70
2
  9
$LUPREC
 70
4
  9
$SKETCHINC
 40
1.0
  9
$FILLETRAD
 40
10.0
  9
$AUNITS
 70
0
  9
$AUPREC
 70
2
  9
$MENU
  1
.
  9
$ELEVATION
 40
0.0
  9
$PELEVATION
 40
0.0
  9
$THICKNESS
 40
0.0
  9
$LIMCHECK
 70
0
  9
$CHAMFERA
 40
0.0
  9
$CHAMFERB
 40
0.0
  9
$CHAMFERC
 40
0.0
  9
$CHAMFERD
 40
0.0
  9
$SKPOLY
 70
0
  9
$TDCREATE
 40
2459626.7400347223
  9
$TDUCREATE
 40
2458532.153996898
  9
$TDUPDATE
 40
2459626.7400347223
  9
$TDUUPDATE
 40
2458532.1544311
  9
$TDINDWG
 40
0.0
  9
$TDUSRTIMER
 40
0.0
  9
$USRTIMER
 70
1
  9
$ANGBASE
 50
0.0
  9
$ANGDIR
 70
0
  9
$PDMODE
 70
0
  9
$PDSIZE
 40
0.0
  9
$PLINEWID
 40
0.0
  9
$SPLFRAME
 70
0
  9
$SPLINETYPE
 70
6
  9
$SPLINESEGS
 70
8
  9
$HANDSEED
  5
71
  9
$SURFTAB1
 70
6
  9
$SURFTAB2
 70
6
  9
$SURFTYPE
 70
6
  9
$SURFU
 70
6
  9
$SURFV
 70
6
  9
$UCSBASE
  2

  9
$UCSNAME
  2

  9
$UCSORG
 10
0.0
 20
0.0
 30
0.0
  9
$UCSXDIR
 10
1.0
 20
0.0
 30
0.0
  9
$UCSYDIR
 10
0.0
 20
1.0
 30
0.0
  9
$UCSORTHOREF
  2

  9
$UCSORTHOVIEW
 70
0
  9
$UCSORGTOP
 10
0.0
 20
0.0
 30
0.0
  9
$UCSORGBOTTOM
 10
0.0
 20
0.0
 30
0.0
  9
$UCSORGLEFT
 10
0.0
 20
0.0
 30
0.0
  9
$UCSORGRIGHT
 10
0.0
 20
0.0
 30
0.0
  9
$UCSORGFRONT
 10
0.0
 20
0.0
 30
0.0
  9
$UCSORGBACK
 10
0.0
 20
0.0
 30
0.0
  9
$PUCSBASE
  2

  9
$PUCSNAME
  2

  9
$PUCSORG
 10
0.0
 20
0.0
 30
0.0
  9
$PUCSXDIR
 10
1.0
 20
0.0
 30
0.0
  9
$PUCSYDIR
 10
0.0
 20
1.0
 30
0.0
  9
$PUCSORTHOREF
  2

  9
$PUCSORTHOVIEW
 70
0
  9
$PUCSORGTOP
 10
0.0
 20
0.0
 30
0.0
  9
$PUCSORGBOTTOM
 10
0.0
 20
0.0
 30
0.0
  9
$PUCSORGLEFT
 10
0.0
 20
0.0
 30
0.0
  9
$PUCSORGRIGHT
 10
0.0
 20
0.0
 30
0.0
  9
$PUCSORGFRONT
 10
0.0
 20
0.0
 30
0.0
  9
$PUCSORGBACK
 10
0.0
 20
0.0
 30
0.0
  9
$USERI1
 70
0
  9
$USERI2
 70
0
  9
$USERI3
 70
0
  9
$USERI4
 70
0
  9
$USERI5
 70
0
  9
$USERR1
 40
0.0
  9
$USERR2
 40
0.0
  9
$USERR3
 40
0.0
  9
$USERR4
 40
0.0
  9
$USERR5
 40
0.0
  9
$WORLDVIEW
 70
1
  9
$SHADEDGE
 70
3
  9
$SHADEDIF
 70
70
  9
$TILEMODE
 70
1
  9
$MAXACTVP
 70
64
  9
$PINSBASE
 10
0.0
 20
0.0
 30
0.0
  9
$PLIMCHECK
 70
0
  9
$PEXTMIN
 10
1e+20
 20
1e+20
 30
1e+20
  9
$PEXTMAX
 10
-1e+20
 20
-1e+20
 30
-1e+20
  9
$PLIMMIN
 10
0.0
 20
0.0
  9
$PLIMMAX
 10
420.0
 20
297.0
  9
$UNITMODE
 70
0
  9
$VISRETAIN
 70
1
  9
$PLINEGEN
 70
0
  9
$PSLTSCALE
 70
1
  9
$TREEDEPTH
 70
3020
  9
$CMLSTYLE
  2
Standard
  9
$CMLJUST
 70
0
  9
$CMLSCALE
 40
20.0
  9
$PROXYGRAPHICS
 70
1
  9
$MEASUREMENT
 70
1
  9
$CELWEIGHT
370
-1
  9
$ENDCAPS
280
0
  9
$JOINSTYLE
280
0
  9
$LWDISPLAY
290
0
  9
$INSUNITS
 70
6
  9
$HYPERLINKBASE
  1

  9
$STYLESHEET
  1

  9
$XEDIT
290
1
  9
$CEPSNTYPE
380
0
  9
$PSTYLEMODE
290
1
  9
$FINGERPRINTGUID
  2
{2BD5B673-BE50-46BE-AF55-A825CBD5C581}
  9
$VERSIONGUID
  2
{796C0C7A-9F3B-43D9-8F10-91AAA607FC9D}
  9
$EXTNAMES
290
1
  9
$PSVPSCALE
 40
0.0
  9
$OLESTARTUP
290
0
  9
$SORTENTS
280
127
  9
$INDEXCTL
280
0
  9
$HIDETEXT
280
1
  9
$XCLIPFRAME
280
0
  9
$HALOGAP
280
0
  9
$OBSCOLOR
 70
257
  9
$OBSLTYPE
280
0
  9
$INTERSECTIONDISPLAY
280
0
  9
$INTERSECTIONCOLOR
 70
257
  9
$DIMASSOC
280
2
  9
$PROJECTNAME
  1

  9
$CAMERADISPLAY
290
0
  9
$LENSLENGTH
 40
50.0
  9
$CAMERAHEIGHT
 40
0.0
  9
$STEPSPERSEC
 40
24.0
  9
$STEPSIZE
 40
100.0
  9
$3DDWFPREC
 40
2.0
  9
$PSOLWIDTH
 40
0.005
  9
$PSOLHEIGHT
 40
0.08
  9
$LOFTANG1
 40
1.570796326795
  9
$LOFTANG2
 40
1.570796326795
  9
$LOFTMAG1
 40
0.0
  9
$LOFTMAG2
 40
0.0
  9
$LOFTPARAM
 70
7
  9
$LOFTNORMALS
280
1
  9
$LATITUDE
 40
37.795
  9
$LONGITUDE
 40
-122.394
  9
$NORTHDIRECTION
 40
0.0
  9
$TIMEZONE
 70
-8000
  9
$LIGHTGLYPHDISPLAY
280
1
  9
$TILEMODELIGHTSYNCH
280
1
  9
$CMATERIAL
347
20
  9
$SOLIDHIST
280
0
  9
$SHOWHIST
280
1
  9
$DWFFRAME
280
2
  9
$DGNFRAME
280
2
  9
$REALWORLDSCALE
290
1
  9
$INTERFERECOLOR
 62
256
  9
$CSHADOW
280
0
  9
$SHADOWPLANELOCATION
 40
0.0
  0
ENDSEC
  0
SECTION
  2
CLASSES
  0
CLASS
  1
ACDBDICTIONARYWDFLT
  2
AcDbDictionaryWithDefault
  3
ObjectDBX Classes
 90
0
 91
0
280
0
281
0
  0
CLASS
  1
SUN
  2
AcDbSun
  3
SCENEOE
 90
1153
 91
0
280
0
281
0
  0
CLASS
  1
VISUALSTYLE
  2
AcDbVisualStyle
  3
ObjectDBX Classes
 90
4095
 91
0
280
0
281
0
  0
CLASS
  1
MATERIAL
  2
AcDbMaterial
  3
ObjectDBX Classes
 90
1153
 91
0
280
0
281
0
  0
CLASS
  1
SCALE
  2
AcDbScale
  3
ObjectDBX Classes
 90
1153
 91
0
280
0
281
0
  0
CLASS
  1
TABLESTYLE
  2
AcDbTableStyle
  3
ObjectDBX Classes
 90
4095
 91
0
280
0
281
0
  0
CLASS
  1
MLEADERSTYLE
  2
AcDbMLeaderStyle
  3
ACDB_MLEADERSTYLE_CLASS
 90
4095
 91
0
280
0
281
0
  0
CLASS
  1
DICTIONARYVAR
  2
AcDbDictionaryVar
  3
ObjectDBX Classes
 90
0
 91
0
280
0
281
0
  0
CLASS
  1
CELLSTYLEMAP
  2
AcDbCellStyleMap
  3
ObjectDBX Classes
 90
1152
 91
0
280
0
281
0
  0
CLASS
  1
MENTALRAYRENDERSETTINGS
  2
AcDbMentalRayRenderSettings
  3
SCENEOE
 90
1024
 91
0
280
0
281
0
  0
CLASS
  1
ACDBDETAILVIEWSTYLE
  2
AcDbDetailViewStyle
  3
ObjectDBX Classes
 90
1025
 91
0
280
0
281
0
  0
CLASS
  1
ACDBSECTIONVIEWSTYLE
  2
AcDbSectionViewStyle
  3
ObjectDBX Classes
 90
1025
 91
0
280
0
281
0
  0
CLASS
  1
RASTERVARIABLES
  2
AcDbRasterVariables
  3
ISM
 90
0
 91
0
280
0
281
0
  0
CLASS
  1
ACDBPLACEHOLDER
  2
AcDbPlaceHolder
  3
ObjectDBX Classes
 90
0
 91
0
280
0
281
0
  0
CLASS
  1
LAYOUT
  2
AcDbLayout
  3
ObjectDBX Classes
 90
0
 91
0
280
0
281
0
  0
ENDSEC
  0
SECTION
  2
TABLES
  0
TABLE
  2
VPORT
  5
8
330
0
100
AcDbSymbolTable
 70
1
  0
VPORT
  5
23
330
8
100
AcDbSymbolTableRecord
100
AcDbViewportTableRecord
  2
*Active
 70
0
 10
0.0
 20
0.0
 11
1.0
 21
1.0
 12
344.2
 22
148.5
 13
0.0
 23
0.0
 14
0.5
 24
0.5
 15
0.5
 25
0.5
 16
0.0
 26
0.0
 36
1.0
 17
0.0
 27
0.0
 37
0.0
 40
297.0
 41
1.34
 42
50.0
 43
0.0
 44
0.0
 50
0.0
 51
0.0
 71
0
 72
1000
 73
1
 74
3
 75
0
 76
0
 77
0
 78
0
281
0
 65
0
146
0.0
  0
ENDTAB
  0
TABLE
  2
LTYPE
  5
2
330
0
100
AcDbSymbolTable
 70
3
  0
LTYPE
  5
24
330
2
100
AcDbSymbolTableRecord
100
AcDbLinetypeTableRecord
  2
ByBlock
 70
0
  3

 72
65
 73
0
 40
0.0
  0
LTYPE
  5
25
330
2
100
AcDbSymbolTableRecord
100
AcDbLinetypeTableRecord
  2
ByLayer
 70
0
  3

 72
65
 73
0
 40
0.0
  0
LTYPE
  5
26
330
2
100
AcDbSymbolTableRecord
100
AcDbLinetypeTableRecord
  2
Continuous
 70
0
  3

 72
65
 73
0
 40
0.0
  0
ENDTAB
  0
TABLE
  2
LAYER
  5
1
330
0
100
AcDbSymbolTable
 70
2
  0
LAYER
  5
27
330
1
100
AcDbSymbolTableRecord
100
AcDbLayerTableRecord
  2
0
 70
0
 62
7
  6
Continuous
370
-3
390
13
347
21
  0
LAYER
  5
28
330
1
100
AcDbSymbolTableRecord
100
AcDbLayerTableRecord
  2
Defpoints
 70
0
 62
7
  6
Continuous
290
0
370
-3
390
13
347
21
  0
ENDTAB
  0
TABLE
  2
STYLE
  5
5
330
0
100
AcDbSymbolTable
 70
1
  0
STYLE
  5
29
330
5
100
AcDbSymbolTableRecord
100
AcDbTextStyleTableRecord
  2
Standard
 70
0
 40
0.0
 41
1.0
 50
0.0
 71
0
 42
2.5
  3
txt
  4

  0
ENDTAB
  0
TABLE
  2
VIEW
  5
7
330
0
100
AcDbSymbolTable
 70
0
  0
ENDTAB
  0
TABLE
  2
UCS
  5
6
330
0
100
AcDbSymbolTable
 70
0
  0
ENDTAB
  0
TABLE
  2
APPID
  5
3
330
0
100
AcDbSymbolTable
 70
3
  0
APPID
  5
2A
330
3
100
AcDbSymbolTableRecord
100
AcDbRegAppTableRecord
  2
ACAD
 70
0
  0
APPID
  5
6E
330
3
100
AcDbSymbolTableRecord
100
AcDbRegAppTableRecord
  2
HATCHBACKGROUNDCOLOR
 70
0
  0
APPID
  5
6F
330
3
100
AcDbSymbolTableRecord
100
AcDbRegAppTableRecord
  2
EZDXF
 70
0
  0
ENDTAB
  0
TABLE
  2
DIMSTYLE
  5
4
330
0
100
AcDbSymbolTable
 70
1
100
AcDbDimStyleTable
  0
DIMSTYLE
105
2B
330
4
100
AcDbSymbolTableRecord
100
AcDbDimStyleTableRecord
  2
Standard
 70
0
 40
1.0
 41
2.5
 42
0.625
 43
3.75
 44
1.25
 45
0.0
 46
0.0
 47
0.0
 48
0.0
 49
2.5
140
2.5
141
2.5
142
0.0
143
0.03937007874
144
1.0
145
0.0
146
1.0
147
0.625
148
0.0
 69
0
 70
0
 71
0
 72
0
 73
0
 74
0
 75
0
 76
0
 77
1
 78
8
 79
0
170
0
171
3
172
1
173
0
174
0
175
0
176
0
177
0
178
0
179
0
271
0
272
2
273
2
274
3
275
0
276
0
277
2
278
44
279
0
280
0
281
0
282
0
283
0
284
8
285
0
286
0
288
0
289
3
290
0
371
-2
372
-2
  0
ENDTAB
  0
TABLE
  2
BLOCK_RECORD
  5
9
330
0
100
AcDbSymbolTable
 70
2
  0
BLOCK_RECORD
  5
17
330
9
100
AcDbSymbolTableRecord
100
AcDbBlockTableRecord
  2
*Model_Space
340
1A
 70
0
280
1
281
0
  0
BLOCK_RECORD
  5
1B
330
9
100
AcDbSymbolTableRecord
100
AcDbBlockTableRecord
  2
*Paper_Space
340
1E
 70
0
280
1
281
0
  0
ENDTAB
  0
ENDSEC
  0
SECTION
  2
BLOCKS
  0
BLOCK
  5
18
330
17
100
AcDbEntity
  8
0
100
AcDbBlockBegin
  2
*Model_Space
 70
0
 10
0.0
 20
0.0
 30
0.0
  3
*Model_Space
  1

  0
ENDBLK
  5
19
330
17
100
AcDbEntity
  8
0
100
AcDbBlockEnd
  0
BLOCK
  5
1C
330
1B
100
AcDbEntity
  8
0
100
AcDbBlockBegin
  2
*Paper_Space
 70
0
 10
0.0
 20
0.0
 30
0.0
  3
*Paper_Space
  1

  0
ENDBLK
  5
1D
330
1B
100
AcDbEntity
  8
0
100
AcDbBlockEnd
  0
ENDSEC
  0
SECTION
  2
ENTITIES
  0
SPLINE
  5
2F
330
17
100
AcDbEntity
  8
0
100
AcDbSpline
 70
0
 71
8
 72
81
 73
72
 74
0
 40
0.0
 40
0.0
 40
0.0
 40
0.0
 40
0.0
 40
0.0
 40
0.0
 40
0.0
 40
0.0
 40
0.08575130268285838
 40
0.08575130268285838
 40
0.08575130268285838
 40
0.08575130268285838
 40
0.08575130268285838
 40
0.08575130268285838
 40
0.08575130268285838
 40
0.18627226205478253
 40
0.18627226205478253
 40
0.18627226205478253
 40
0.18627226205478253
 40
0.18627226205478253
 40
0.18627226205478253
 40
0.18627226205478253
 40
0.2831656577364993
 40
0.2831656577364993
 40
0.2831656577364993
 40
0.2831656577364993
 40
0.2831656577364993
 40
0.2831656577364993
 40
0.2831656577364993
 40
0.34142249716228623
 40
0.34142249716228623
 40
0.34142249716228623
 40
0.34142249716228623
 40
0.34142249716228623
 40
0.34142249716228623
 40
0.34142249716228623
 40
0.4220199986750717
 40
0.4220199986750717
 40
0.4220199986750717
 40
0.4220199986750717
 40
0.4220199986750717
 40
0.4220199986750717
 40
0.4220199986750717
 40
0.45147981789839464
 40
0.45147981789839464
 40
0.45147981789839464
 40
0.45147981789839464
 40
0.45147981789839464
 40
0.45147981789839464
 40
0.45147981789839464
 40
0.4846224389056814
 40
0.4846224389056814
 40
0.4846224389056814
 40
0.4846224389056814
 40
0.4846224389056814
 40
0.4846224389056814
 40
0.4846224389056814
 40
0.5972183945391168
 40
0.5972183945391168
 40
0.5972183945391168
 40
0.5972183945391168
 40
0.5972183945391168
 40
0.5972183945391168
 40
0.5972183945391168
 40
0.7902914174252466
 40
0.7902914174252466
 40
0.7902914174252466
 40
0.7902914174252466
 40
0.7902914174252466
 40
0.7902914174252466
 40
0.7902914174252466
 40
1.0
 40
1.0
 40
1.0
 40
1.0
 40
1.0
 40
1.0
 40
1.0
 40
1.0
 40
1.0
 10
60.40840766470072
 20
183.90000000026797
 30
1705.0
 10
60.22971597576205
 20
184.24380050520074
 30
1705.0
 10
60.046943252126184
 20
184.58547595289377
 30
1705.0
 10
59.859864605724724
 20
184.92484026986074
 30
1705.0
 10
59.66823775312996
 20
185.26167450764805
 30
1705.0
 10
59.47179951901617
 20
185.59572487748085
 30
1705.0
 10
59.2702604353905
 20
185.92669966674873
 30
1705.0
 10
59.06329743659353
 20
186.2542650373306
 30
1705.0
 10
58.60114769000779
 20
186.9575807654573
 30
1705.0
 10
58.34385455161353
 20
187.331821066664
 30
1705.0
 10
58.07804926989834
 20
187.70020009831003
 30
1705.0
 10
57.8030959930376
 20
188.0619575509927
 30
1705.0
 10
57.51833442565545
 20
188.4161297993085
 30
1705.0
 10
57.22307079855988
 20
188.76154265567166
 30
1705.0
 10
56.916564364927986
 20
189.096800395619
 30
1705.0
 10
56.29095037542456
 20
189.73206842251327
 30
1705.0
 10
55.97278750374667
 20
190.03282159539802
 30
1705.0
 10
55.64280448815819
 20
190.32108701305748
 30
1705.0
 10
55.300429612931055
 20
190.5950104836637
 30
1705.0
 10
54.94527944079188
 20
190.85239086892082
 30
1705.0
 10
54.577214958575496
 20
191.0907597678125
 30
1705.0
 10
54.19645084688488
 20
191.30753479082475
 30
1705.0
 10
53.5676535444746
 20
191.61620588733567
 30
1705.0
 10
53.32725403224468
 20
191.72342097953953
 30
1705.0
 10
53.082804816891944
 20
191.82139087560398
 30
1705.0
 10
52.83460401228262
 20
191.90960751207788
 30
1705.0
 10
52.58301013875549
 20
191.98763494523683
 30
1705.0
 10
52.328449242767114
 20
192.05513111672377
 30
1705.0
 10
52.07142201653717
 20
192.11186961918833
 30
1705.0
 10
51.4543111271389
 20
192.22125216792847
 30
1705.0
 10
51.09235268829292
 20
192.2640096367721
 30
1705.0
 10
50.72824350378066
 20
192.28575266403038
 30
1705.0
 10
50.36341773815517
 20
192.28681623110546
 30
1705.0
 10
49.999139980189916
 20
192.26800067177786
 30
1705.0
 10
49.6365081900212
 20
192.23043473890286
 30
1705.0
 10
49.2764554311409
 20
192.1754525712558
 30
1705.0
 10
48.78936835414723
 20
192.07854449132344
 30
1705.0
 10
48.65912342513322
 20
192.0504070008076
 30
1705.0
 10
48.52901961521433
 20
192.02011682497937
 30
1705.0
 10
48.3990609394084
 20
191.9877186998421
 30
1705.0
 10
48.26925141273402
 20
191.9532573614014
 30
1705.0
 10
48.1395950502106
 20
191.9167775456647
 30
1705.0
 10
48.01009586685832
 20
191.8783239886416
 30
1705.0
 10
47.73525121575686
 20
191.7925105991078
 30
1705.0
 10
47.589951833591186
 20
191.74464793163057
 30
1705.0
 10
47.44486109715299
 20
191.6944003834627
 30
1705.0
 10
47.29998393257846
 20
191.6417995072854
 30
1705.0
 10
47.15532713250188
 20
191.5868677910556
 30
1705.0
 10
47.010897662369096
 20
191.52962500015002
 30
1705.0
 10
46.86670096675116
 20
191.47009451951035
 30
1705.0
 10
46.23365592344847
 20
191.19840712745423
 30
1705.0
 10
45.754542028541806
 20
190.9655593370775
 30
1705.0
 10
45.28563388917673
 20
190.71219972295054
 30
1705.0
 10
44.82698228623273
 20
190.44058267481788
 30
1705.0
 10
44.378482191791214
 20
190.1527316113931
 30
1705.0
 10
43.93989408820028
 20
189.85040219217018
 30
1705.0
 10
43.510856897642626
 20
189.53506070352802
 30
1705.0
 10
42.3707619365768
 20
188.6468430172456
 30
1705.0
 10
41.67787313111141
 20
188.05142972706068
 30
1705.0
 10
41.00975272009456
 20
187.42762287634568
 30
1705.0
 10
40.36453874417094
 20
186.78004670714745
 30
1705.0
 10
39.74060035823261
 20
186.11235935189382
 30
1705.0
 10
39.13639923454721
 20
185.4273935255028
 30
1705.0
 10
38.550456891370054
 20
184.7271893335642
 30
1705.0
 10
37.363087045800924
 20
183.23741110611613
 30
1705.0
 10
36.765032800231886
 20
182.44578250540678
 30
1705.0
 10
36.18549930800549
 20
181.64027718935154
 30
1705.0
 10
35.623253178069746
 20
180.82255772861305
 30
1705.0
 10
35.077296706625496
 20
179.99396438693367
 30
1705.0
 10
34.5467968227371
 20
179.1555647892004
 30
1705.0
 10
34.03106087071108
 20
178.30817127896847
 30
1705.0
 10
33.52951608613571
 20
177.45235670406743
 30
1705.0
  0
LINE
  5
30
330
17
100
AcDbEntity
  8
0
100
AcDbLine
 10
47.88388425384017
 20
183.9
 30
1705.0
 11
60.408407664185106
 21
183.9
 31
1705.0
  0
SPLINE
  5
31
330
17
100
AcDbEntity
  8
0
100
AcDbSpline
 70
0
 71
1
 72
4
 73
2
 74
0
 40
0.0
 40
0.0
 40
1.0
 40
1.0
 10
47.88388426128246
 20
183.90000060000014
 30
1705.0
 10
47.88388426128246
 20
180.0999993999999
 30
1705.0
  0
LINE
  5
32
330
17
100
AcDbEntity
  8
0
100
AcDbLine
 10
47.88388425384017
 20
180.1
 30
1705.0
 11
62.156420455224556
 21
180.1
 31
1705.0
  0
SPLINE
  5
33
330
17
100
AcDbEntity
  8
0
100
AcDbSpline
 70
0
 71
8
 72
46
 73
37
 74
0
 40
0.0
 40
0.0
 40
0.0
 40
0.0
 40
0.0
 40
0.0
 40
0.0
 40
0.0
 40
0.0
 40
0.10829882611487272
 40
0.10829882611487272
 40
0.10829882611487272
 40
0.10829882611487272
 40
0.10829882611487272
 40
0.10829882611487272
 40
0.10829882611487272
 40
0.5613985320911771
 40
0.5613985320911771
 40
0.5613985320911771
 40
0.5613985320911771
 40
0.5613985320911771
 40
0.5613985320911771
 40
0.5613985320911771
 40
0.709949719011143
 40
0.709949719011143
 40
0.709949719011143
 40
0.709949719011143
 40
0.709949719011143
 40
0.709949719011143
 40
0.709949719011143
 40
0.9327770009653049
 40
0.9327770009653049
 40
0.9327770009653049
 40
0.9327770009653049
 40
0.9327770009653049
 40
0.9327770009653049
 40
0.9327770009653049
 40
1.0
 40
1.0
 40
1.0
 40
1.0
 40
1.0
 40
1.0
 40
1.0
 40
1.0
 40
1.0
 10
68.42276096702157
 20
157.90000000785557
 30
1705.0
 10
68.3542089855041
 20
158.22342121567328
 30
1705.0
 10
68.28522763953596
 20
158.54675105960888
 30
1705.0
 10
68.21580909408843
 20
158.86998719457966
 30
1705.0
 10
68.14594518312313
 20
159.19312717494896
 30
1705.0
 10
68.07562738655804
 20
159.51616844979793
 30
1705.0
 10
68.00484680542002
 20
159.8391083578205
 30
1705.0
 10
67.93359413518388
 20
160.16194412184112
 30
1705.0
 10
67.56173745623252
 20
161.83490251665538
 30
1705.0
 10
67.25319241572548
 20
163.18320850739815
 30
1705.0
 10
66.93549908363975
 20
164.5294169585908
 30
1705.0
 10
66.60781232641244
 20
165.87327190087186
 30
1705.0
 10
66.26909844858329
 20
167.21441689386748
 30
1705.0
 10
65.91809457504239
 20
168.5523847782766
 30
1705.0
 10
65.55317887802794
 20
169.88656458919195
 30
1705.0
 10
65.04707392539395
 20
171.65201486354337
 30
1705.0
 10
64.9218658829975
 20
172.0821961566929
 30
1705.0
 10
64.79641600348097
 20
172.50659902520925
 30
1705.0
 10
64.67073016661018
 20
172.92516393328918
 30
1705.0
 10
64.54481425215063
 20
173.337831345127
 30
1705.0
 10
64.41867413986749
 20
173.7445417249145
 30
1705.0
 10
64.29231570952561
 20
174.14523553684117
 30
1705.0
 10
63.97588811057638
 20
175.13178113987635
 30
1705.0
 10
63.785555518073416
 20
175.71000821978603
 30
1705.0
 10
63.59475657677259
 20
176.27468441443892
 30
1705.0
 10
63.40350878530503
 20
176.82596168322635
 30
1705.0
 10
63.21182471320556
 20
177.36399079356613
 30
1705.0
 10
63.01971590561156
 20
177.8889222047747
 30
1705.0
 10
62.82719837609545
 20
178.400907438628
 30
1705.0
 10
62.5760857832926
 20
179.0506939612456
 30
1705.0
 10
62.51746471151079
 20
179.20112576665463
 30
1705.0
 10
62.45841354887854
 20
179.35138855255653
 30
1705.0
 10
62.3989243742152
 20
179.50147784395318
 30
1705.0
 10
62.33898902746003
 20
179.65138886787201
 30
1705.0
 10
62.27859909628104
 20
179.80111654762555
 30
1705.0
 10
62.2177458994976
 20
179.95065549565618
 30
1705.0
 10
62.15642046731693
 20
180.1000000049655
 30
1705.0
  0
LINE
  5
34
330
17
100
AcDbEntity
  8
0
100
AcDbLine
 10
47.88388425384017
 20
157.9
 30
1705.0
 11
68.42276092996022
 21
157.9
 31
1705.0
  0
SPLINE
  5
35
330
17
100
AcDbEntity
  8
0
100
AcDbSpline
 70
0
 71
1
 72
4
 73
2
 74
0
 40
0.0
 40
0.0
 40
1.0
 40
1.0
 10
47.88388426128246
 20
157.90000060000042
 30
1705.0
 10
47.883884261282475
 20
154.09999939999918
 30
1705.0
  0
LINE
  5
36
330
17
100
AcDbEntity
  8
0
100
AcDbLine
 10
47.88388425384017
 20
154.1
 30
1705.0
 11
69.20254265834964
 21
154.1
 31
1705.0
  0
SPLINE
  5
37
330
17
100
AcDbEntity
  8
0
100
AcDbSpline
 70
0
 71
8
 72
25
 73
16
 74
0
 40
0.0
 40
0.0
 40
0.0
 40
0.0
 40
0.0
 40
0.0
 40
0.0
 40
0.0
 40
0.0
 40
0.7407476692478085
 40
0.7407476692478085
 40
0.7407476692478085
 40
0.7407476692478085
 40
0.7407476692478085
 40
0.7407476692478085
 40
0.7407476692478085
 40
1.0
 40
1.0
 40
1.0
 40
1.0
 40
1.0
 40
1.0
 40
1.0
 40
1.0
 40
1.0
 10
72.98858432904261
 20
131.89999999817496
 30
1705.0
 10
72.68440318804025
 20
133.96318076171843
 30
1705.0
 10
72.37188650414024
 20
136.02513053196807
 30
1705.0
 10
72.05063851568502
 20
138.08575417740875
 30
1705.0
 10
71.72019718131091
 20
140.14493434375555
 30
1705.0
 10
71.38001839693845
 20
142.2025288610323
 30
1705.0
 10
71.0294548712909
 20
144.25836731939702
 30
1705.0
 10
70.66771784526176
 20
146.31224484538586
 30
1705.0
 10
70.16294676013767
 20
149.0819683963852
 30
1705.0
 10
70.03059341240042
 20
149.7997509603267
 30
1705.0
 10
69.89670714580532
 20
150.5172485906162
 30
1705.0
 10
69.76124199838559
 20
151.2344496125088
 30
1705.0
 10
69.62414853800175
 20
151.9513408579559
 30
1705.0
 10
69.4853734927544
 20
152.6679075919422
 30
1705.0
 10
69.34485917145074
 20
153.38413339517655
 30
1705.0
 10
69.20254267412474
 20
154.10000000313613
 30
1705.0
  0
LINE
  5
38
330
17
100
AcDbEntity
  8
0
100
AcDbLine
 10
47.88388425384017
 20
131.9
 30
1705.0
 11
72.98858434142159
 21
131.9
 31
1705.0
  0
SPLINE
  5
39
330
17
100
AcDbEntity
  8
0
100
AcDbSpline
 70
0
 71
1
 72
4
 73
2
 74
0
 40
0.0
 40
0.0
 40
1.0
 40
1.0
 10
47.88388426128246
 20
131.90000060000256
 30
1705.0
 10
47.88388426128246
 20
128.09999939999764
 30
1705.0
  0
LINE
  5
3A
330
17
100
AcDbEntity
  8
0
100
AcDbLine
 10
47.88388425384017
 20
128.1
 30
1705.0
 11
73.53646807273319
 21
128.1
 31
1705.0
  0
SPLINE
  5
3B
330
17
100
AcDbEntity
  8
0
100
AcDbSpline
 70
0
 71
8
 72
25
 73
16
 74
0
 40
0.0
 40
0.0
 40
0.0
 40
0.0
 40
0.0
 40
0.0
 40
0.0
 40
0.0
 40
0.0
 40
0.9275422106673157
 40
0.9275422106673157
 40
0.9275422106673157
 40
0.9275422106673157
 40
0.9275422106673157
 40
0.9275422106673157
 40
0.9275422106673157
 40
1.0
 40
1.0
 40
1.0
 40
1.0
 40
1.0
 40
1.0
 40
1.0
 40
1.0
 40
1.0
 10
76.29914715115
 20
105.89999999577707
 30
1705.0
 10
76.01771657241733
 20
108.4785841604209
 30
1705.0
 10
75.72654556632672
 20
111.05610272788095
 30
1705.0
 10
75.4254594344283
 20
113.63249622595832
 30
1705.0
 10
75.11422664022851
 20
116.20769251496132
 30
1705.0
 10
74.79255372710581
 20
118.78160616682041
 30
1705.0
 10
74.46007340724589
 20
121.35413698322255
 30
1705.0
 10
74.11632582159623
 20
123.92516765276518
 30
1705.0
 10
73.7329547505372
 20
126.69527651122453
 30
1705.0
 10
73.70510427041863
 20
126.89598229715853
 30
1705.0
 10
73.67718125255632
 20
127.09667784864664
 30
1705.0
 10
73.64918541479847
 20
127.29736310770289
 30
1705.0
 10
73.62111647064546
 20
127.49803801461951
 30
1705.0
 10
73.59297412912785
 20
127.69870250794644
 30
1705.0
 10
73.56475809468529
 20
127.89935652447105
 30
1705.0
 10
73.53646806704545
 20
128.09999999919802
 30
1705.0
  0
LINE
  5
3C
330
17
100
AcDbEntity
  8
0
100
AcDbLine
 10
47.88388425384017
 20
105.9
 30
1705.0
 11
76.29914718984242
 21
105.9
 31
1705.0
  0
SPLINE
  5
3D
330
17
100
AcDbEntity
  8
0
100
AcDbSpline
 70
0
 71
1
 72
4
 73
2
 74
0
 40
0.0
 40
0.0
 40
1.0
 40
1.0
 10
47.883884261282475
 20
105.90000060000206
 30
1705.0
 10
47.883884261282475
 20
102.09999939999993
 30
1705.0
  0
LINE
  5
3E
330
17
100
AcDbEntity
  8
0
100
AcDbLine
 10
47.88388425384017
 20
102.1
 30
1705.0
 11
76.70458334517525
 21
102.1
 31
1705.0
  0
SPLINE
  5
3F
330
17
100
AcDbEntity
  8
0
100
AcDbSpline
 70
0
 71
8
 72
25
 73
16
 74
0
 40
0.0
 40
0.0
 40
0.0
 40
0.0
 40
0.0
 40
0.0
 40
0.0
 40
0.0
 40
0.0
 40
0.7087888051205501
 40
0.7087888051205501
 40
0.7087888051205501
 40
0.7087888051205501
 40
0.7087888051205501
 40
0.7087888051205501
 40
0.7087888051205501
 40
1.0
 40
1.0
 40
1.0
 40
1.0
 40
1.0
 40
1.0
 40
1.0
 40
1.0
 40
1.0
 10
78.71500333565727
 20
79.89999999997767
 30
1705.0
 10
78.56271314629385
 20
81.86911764069708
 30
1705.0
 10
78.40537097262951
 20
83.83784429863519
 30
1705.0
 10
78.24291573568934
 20
85.80616008128865
 30
1705.0
 10
78.07528476163364
 20
87.77404422450218
 30
1705.0
 10
77.90241371303915
 20
89.74147508657727
 30
1705.0
 10
77.72423652018087
 20
91.70843014238137
 30
1705.0
 10
77.54068531231317
 20
93.67488597745667
 30
1705.0
 10
77.27404035122433
 20
96.44853630950178
 30
1705.0
 10
77.19547062994262
 20
97.25616585113067
 30
1705.0
 10
77.11597783609095
 20
98.06370536249415
 30
1705.0
 10
77.03555953452353
 20
98.87115336218699
 30
1705.0
 10
76.95421364719317
 20
99.67850838148723
 30
1705.0
 10
76.87193789638066
 20
100.48576891392312
 30
1705.0
 10
76.78872924792378
 20
101.29293336483991
 30
1705.0
 10
76.70458335444647
 20
102.10000000096659
 30
1705.0
  0
LINE
  5
40
330
17
100
AcDbEntity
  8
0
100
AcDbLine
 10
47.88388425384017
 20
79.9
 30
1705.0
 11
78.71500333594658
 21
79.9
 31
1705.0
  0
SPLINE
  5
41
330
17
100
AcDbEntity
  8
0
100
AcDbSpline
 70
0
 71
1
 72
4
 73
2
 74
0
 40
0.0
 40
0.0
 40
1.0
 40
1.0
 10
47.88388426128246
 20
79.90000060000001
 30
1705.0
 10
47.88388426128246
 20
76.09999939999999
 30
1705.0
  0
LINE
  5
42
330
17
100
AcDbEntity
  8
0
100
AcDbLine
 10
47.88388425384017
 20
76.1
 30
1705.0
 11
79.00066372682282
 21
76.1
 31
1705.0
  0
SPLINE
  5
43
330
17
100
AcDbEntity
  8
0
100
AcDbSpline
 70
0
 71
8
 72
18
 73
9
 74
0
 40
0.0
 40
0.0
 40
0.0
 40
0.0
 40
0.0
 40
0.0
 40
0.0
 40
0.0
 40
0.0
 40
1.0
 40
1.0
 40
1.0
 40
1.0
 40
1.0
 40
1.0
 40
1.0
 40
1.0
 40
1.0
 10
80.35382858720975
 20
53.90000000026339
 30
1705.0
 10
80.21695865714038
 20
56.67684567456815
 30
1705.0000000000002
 10
80.07115529249869
 20
59.45324936338513
 30
1705.0000000000005
 10
79.91628089078259
 20
62.229170626690625
 30
1705.0000000000007
 10
79.7521928780989
 20
65.00456724479349
 30
1705.000000000001
 10
79.57874345111667
 20
67.77939520822927
 30
1705.0000000000011
 10
79.3957792865572
 20
70.5536087068405
 30
1705.0000000000011
 10
79.2031412014787
 20
73.3271601186123
 30
1705.0000000000011
 10
79.0006637255173
 20
76.0999999999047
 30
1705.0000000000011
  0
LINE
  5
44
330
17
100
AcDbEntity
  8
0
100
AcDbLine
 10
47.88388425384017
 20
53.9
 30
1705.0
 11
80.35382858186536
 21
53.9
 31
1705.0
  0
SPLINE
  5
45
330
17
100
AcDbEntity
  8
0
100
AcDbSpline
 70
0
 71
1
 72
4
 73
2
 74
0
 40
0.0
 40
0.0
 40
1.0
 40
1.0
 10
47.88388426128249
 20
53.90000060000026
 30
1705.0
 10
47.883884261282475
 20
50.09999939999937
 30
1705.0
  0
LINE
  5
46
330
17
100
AcDbEntity
  8
0
100
AcDbLine
 10
47.88388425384017
 20
50.1
 30
1705.0
 11
80.53383267852394
 21
50.1
 31
1705.0
  0
SPLINE
  5
47
330
17
100
AcDbEntity
  8
0
100
AcDbSpline
 70
0
 71
8
 72
18
 73
9
 74
0
 40
0.0
 40
0.0
 40
0.0
 40
0.0
 40
0.0
 40
0.0
 40
0.0
 40
0.0
 40
0.0
 40
1.0
 40
1.0
 40
1.0
 40
1.0
 40
1.0
 40
1.0
 40
1.0
 40
1.0
 40
1.0
 10
81.3041219820158
 20
27.90000000020587
 30
1705.0
 10
81.23679684503202
 20
30.675904107474658
 30
1705.0
 10
81.16142981360558
 20
33.451614321242516
 30
1705.0
 10
81.07790966365903
 20
36.22710060201658
 30
1705.0
 10
80.98612122636644
 20
39.00233117835642
 30
1705.0
 10
80.88594521178595
 20
41.77727254028261
 30
1705.0
 10
80.77725800913939
 20
44.551889432014065
 30
1705.0
 10
80.65993147276436
 20
47.32614484335421
 30
1705.0
 10
80.53383268089
 20
50.100000000107585
 30
1705.0
  0
LINE
  5
48
330
17
100
AcDbEntity
  8
0
100
AcDbLine
 10
47.88388425384017
 20
27.9
 30
1705.0
 11
81.30412197352715
 21
27.9
 31
1705.0
  0
SPLINE
  5
49
330
17
100
AcDbEntity
  8
0
100
AcDbSpline
 70
0
 71
1
 72
4
 73
2
 74
0
 40
0.0
 40
0.0
 40
1.0
 40
1.0
 10
47.88388426128246
 20
27.900000600000002
 30
1705.0
 10
47.883884261282475
 20
24.099999399999998
 30
1705.0
  0
LINE
  5
4A
330
17
100
AcDbEntity
  8
0
100
AcDbLine
 10
47.88388425384017
 20
24.1
 30
1705.0
 11
81.38971956948676
 21
24.1
 31
1705.0
  0
SPLINE
  5
4B
330
17
100
AcDbEntity
  8
0
100
AcDbSpline
 70
0
 71
8
 72
18
 73
9
 74
0
 40
0.0
 40
0.0
 40
0.0
 40
0.0
 40
0.0
 40
0.0
 40
0.0
 40
0.0
 40
0.0
 40
1.0
 40
1.0
 40
1.0
 40
1.0
 40
1.0
 40
1.0
 40
1.0
 40
1.0
 40
1.0
 10
81.63554392775445
 20
1.9000000001196753
 30
1705.0
 10
81.63112689228088
 20
4.675218614862899
 30
1705.0
 10
81.61938083999098
 20
7.450418942119754
 30
1705.0
 10
81.60021587199397
 20
10.225581023438513
 30
1705.0
 10
81.57353868687342
 20
13.000683203813207
 30
1705.0
 10
81.53925255857645
 20
15.775702122971753
 30
1705.0
 10
81.49725724008826
 20
18.55061270903358
 30
1705.0
 10
81.44744882739207
 20
21.32538817262031
 30
1705.0
 10
81.38971959643496
 20
24.100000000560684
 30
1705.0
  0
LINE
  5
4C
330
17
100
AcDbEntity
  8
0
100
AcDbLine
 10
47.88388425384017
 20
1.9
 30
1705.0
 11
81.63554385256734
 21
1.9
 31
1705.0
  0
SPLINE
  5
4D
330
17
100
AcDbEntity
  8
0
100
AcDbSpline
 70
0
 71
1
 72
4
 73
2
 74
0
 40
0.0
 40
0.0
 40
0.9999993684216398
 40
0.9999993684216398
 10
47.88388426128246
 20
1.9000006000000558
 30
1705.0
 10
47.88388426128246
 20
-6.553790374438061e-17
 30
1705.0
  0
SPLINE
  5
4E
330
17
100
AcDbEntity
  8
0
100
AcDbSpline
 70
0
 71
1
 72
4
 73
2
 74
0
 40
0.0
 40
0.0
 40
1.0
 40
1.0
 10
47.88388426128246
 20
-1.9000006000000011
 30
1705.0
 10
47.88388426128246
 20
1.2000000211287443e-06
 30
1705.0
  0
LINE
  5
4F
330
17
100
AcDbEntity
  8
0
100
AcDbLine
 10
47.88388425384012
 20
-1.9
 30
1705.0
 11
81.63559923262913
 21
-1.9
 31
1705.0
  0
SPLINE
  5
50
330
17
100
AcDbEntity
  8
0
100
AcDbSpline
 70
0
 71
8
 72
18
 73
9
 74
0
 40
0.0
 40
0.0
 40
0.0
 40
0.0
 40
0.0
 40
0.0
 40
0.0
 40
0.0
 40
0.0
 40
1.0
 40
1.0
 40
1.0
 40
1.0
 40
1.0
 40
1.0
 40
1.0
 40
1.0
 40
1.0
 10
81.3903840238172
 20
-24.09999999986844
 30
1705.0
 10
81.4480454008762
 20
-21.325394791706486
 30
1705.0
 10
81.49778254260053
 20
-18.550626528854515
 30
1705.0
 10
81.53970371566176
 20
-15.775722829285833
 30
1705.0
 10
81.57391335148948
 20
-13.000709313152575
 30
1705.0
 10
81.60051220279551
 20
-10.225609610927288
 30
1705.0
 10
81.61959748331913
 20
-7.450445370815141
 30
1705.0
 10
81.63126299581431
 20
-4.675236265718041
 30
1705.0
 10
81.6355992532994
 20
-1.9000000000322939
 30
1705.0
  0
LINE
  5
51
330
17
100
AcDbEntity
  8
0
100
AcDbLine
 10
47.88388425384012
 20
-24.1
 30
1705.0
 11
81.3903840301481
 21
-24.1
 31
1705.0
  0
SPLINE
  5
52
330
17
100
AcDbEntity
  8
0
100
AcDbSpline
 70
0
 71
1
 72
4
 73
2
 74
0
 40
0.0
 40
0.0
 40
1.0
 40
1.0
 10
47.88388426128246
 20
-27.900000600000034
 30
1705.0
 10
47.88388426128249
 20
-24.099999399999938
 30
1705.0
  0
LINE
  5
53
330
17
100
AcDbEntity
  8
0
100
AcDbLine
 10
47.88388425384012
 20
-27.9
 30
1705.0
 11
81.30487621630674
 21
-27.9
 31
1705.0
  0
SPLINE
  5
54
330
17
100
AcDbEntity
  8
0
100
AcDbSpline
 70
0
 71
8
 72
18
 73
9
 74
0
 40
0.0
 40
0.0
 40
0.0
 40
0.0
 40
0.0
 40
0.0
 40
0.0
 40
0.0
 40
0.0
 40
1.0
 40
1.0
 40
1.0
 40
1.0
 40
1.0
 40
1.0
 40
1.0
 40
1.0
 40
1.0
 10
80.5349523093351
 20
-50.10000000018366
 30
1705.0
 10
80.66102702952195
 20
-47.32613805106954
 30
1705.0
 10
80.77832227118063
 20
-44.551877016559786
 30
1705.0
 10
80.88697145374486
 20
-41.77725640969369
 30
1705.0
 10
80.98710324695867
 20
-39.00231369527198
 30
1705.0
 10
81.07884180770394
 20
-36.22708430175425
 30
1705.0
 10
81.1623069881898
 20
-33.4516016317628
 30
1705.0
 10
81.23761452054399
 20
-30.675897071475333
 30
1705.0
 10
81.30487618284579
 20
-27.899999999189227
 30
1705.0
  0
LINE
  5
55
330
17
100
AcDbEntity
  8
0
100
AcDbLine
 10
47.88388425384012
 20
-50.1
 30
1705.0
 11
80.53495230529425
 21
-50.1
 31
1705.0
  0
SPLINE
  5
56
330
17
100
AcDbEntity
  8
0
100
AcDbSpline
 70
0
 71
1
 72
4
 73
2
 74
0
 40
0.0
 40
0.0
 40
1.0
 40
1.0
 10
47.883884261282475
 20
-53.9000006
 30
1705.0
 10
47.88388426128246
 20
-50.0999994
 30
1705.0
  0
LINE
  5
57
330
17
100
AcDbEntity
  8
0
100
AcDbLine
 10
47.88388425384012
 20
-53.9
 30
1705.0
 11
80.35497562795621
 21
-53.9
 31
1705.0
  0
SPLINE
  5
58
330
17
100
AcDbEntity
  8
0
100
AcDbSpline
 70
0
 71
8
 72
18
 73
9
 74
0
 40
0.0
 40
0.0
 40
0.0
 40
0.0
 40
0.0
 40
0.0
 40
0.0
 40
0.0
 40
0.0
 40
1.0
 40
1.0
 40
1.0
 40
1.0
 40
1.0
 40
1.0
 40
1.0
 40
1.0
 40
1.0
 10
79.00169068117279
 20
-76.0999999994427
 30
1705.0
 10
79.204215916827
 20
-73.32718056760206
 30
1705.0
 10
79.3968918131449
 20
-70.55363959131361
 30
1705.0
 10
79.5798840249321
 20
-67.77942897604673
 30
1705.0
 10
79.75335204688567
 20
-65.00459849922068
 30
1705.0
 10
79.9174495742075
 20
-62.22919582828297
 30
1705.0
 10
80.072324822454
 20
-59.45326653671599
 30
1705.0
 10
80.21812081170687
 20
-56.676854118256784
 30
1705.0
 10
80.35497562014923
 20
-53.89999999961523
 30
1705.0
  0
LINE
  5
59
330
17
100
AcDbEntity
  8
0
100
AcDbLine
 10
47.88388425384012
 20
-76.1
 30
1705.0
 11
79.00169068880265
 21
-76.1
 31
1705.0
  0
SPLINE
  5
5A
330
17
100
AcDbEntity
  8
0
100
AcDbSpline
 70
0
 71
1
 72
4
 73
2
 74
0
 40
0.0
 40
0.0
 40
1.0
 40
1.0
 10
47.883884261282475
 20
-79.90000060000018
 30
1705.0
 10
47.88388426128246
 20
-76.09999939999999
 30
1705.0
  0
LINE
  5
5B
330
17
100
AcDbEntity
  8
0
100
AcDbLine
 10
47.88388425384012
 20
-79.9
 30
1705.0
 11
78.7159536862241
 21
-79.9
 31
1705.0
  0
SPLINE
  5
5C
330
17
100
AcDbEntity
  8
0
100
AcDbSpline
 70
0
 71
8
 72
32
 73
23
 74
0
 40
0.0
 40
0.0
 40
0.0
 40
0.0
 40
0.0
 40
0.0
 40
0.0
 40
0.0
 40
0.0
 40
0.042312815695511576
 40
0.042312815695511576
 40
0.042312815695511576
 40
0.042312815695511576
 40
0.042312815695511576
 40
0.042312815695511576
 40
0.042312815695511576
 40
0.3141603681477792
 40
0.3141603681477792
 40
0.3141603681477792
 40
0.3141603681477792
 40
0.3141603681477792
 40
0.3141603681477792
 40
0.3141603681477792
 40
1.0
 40
1.0
 40
1.0
 40
1.0
 40
1.0
 40
1.0
 40
1.0
 40
1.0
 40
1.0
 10
76.70468277847282
 20
-102.09999999981491
 30
1705.0
 10
76.71685319550065
 20
-101.9833315795447
 30
1705.0
 10
76.72900589956227
 20
-101.86664298039335
 30
1705.0
 10
76.74114086837947
 20
-101.74993442690754
 30
1705.0
 10
76.7532580796741
 20
-101.63320614363394
 30
1705.0
 10
76.76535751116793
 20
-101.51645835511921
 30
1705.0
 10
76.7774391405828
 20
-101.39969128591001
 30
1705.0
 10
76.78950294564052
 20
-101.28290516055301
 30
1705.0
 10
76.87894068856704
 20
-100.41566227736807
 30
1705.0
 10
76.95559781218331
 20
-99.66443282003306
 30
1705.0
 10
77.03151202062458
 20
-98.91248627317755
 30
1705.0
 10
77.1066762900446
 20
-98.15988954914093
 30
1705.0
 10
77.18108482703833
 20
-97.40670203101426
 30
1705.0
 10
77.25473306864174
 20
-96.65297557264009
 30
1705.0
 10
77.32761768233188
 20
-95.89875449861263
 30
1705.0
 10
77.58168408844057
 20
-93.24010887591008
 30
1705.0
 10
77.75853145789358
 20
-91.33566274663852
 30
1705.0
 10
77.93034218039051
 20
-89.43075714047772
 30
1705.0
 10
78.09717806124969
 20
-87.5254114886688
 30
1705.0
 10
78.25909927859475
 20
-85.61964473338503
 30
1705.0
 10
78.4161644515991
 20
-83.71347533116618
 30
1705.0
 10
78.56843070385396
 20
-81.80692125610194
 30
1705.0
 10
78.71595372223072
 20
-79.90000000278556
 30
1705.0
  0
LINE
  5
5D
330
17
100
AcDbEntity
  8
0
100
AcDbLine
 10
47.88388425384012
 20
-102.1
 30
1705.0
 11
76.70468278024691
 21
-102.1
 31
1705.0
  0
SPLINE
  5
5E
330
17
100
AcDbEntity
  8
0
100
AcDbSpline
 70
0
 71
1
 72
4
 73
2
 74
0
 40
0.0
 40
0.0
 40
1.0
 40
1.0
 10
47.883884261282475
 20
-105.90000060000003
 30
1705.0
 10
47.88388426128246
 20
-102.09999939999999
 30
1705.0
  0
LINE
  5
5F
330
17
100
AcDbEntity
  8
0
100
AcDbLine
 10
47.88388425384012
 20
-105.9
 30
1705.0
 11
76.29902862379903
 21
-105.9
 31
1705.0
  0
SPLINE
  5
60
330
17
100
AcDbEntity
  8
0
100
AcDbSpline
 70
0
 71
8
 72
25
 73
16
 74
0
 40
0.0
 40
0.0
 40
0.0
 40
0.0
 40
0.0
 40
0.0
 40
0.0
 40
0.0
 40
0.0
 40
0.944088565188355
 40
0.944088565188355
 40
0.944088565188355
 40
0.944088565188355
 40
0.944088565188355
 40
0.944088565188355
 40
0.944088565188355
 40
1.0
 40
1.0
 40
1.0
 40
1.0
 40
1.0
 40
1.0
 40
1.0
 40
1.0
 40
1.0
 10
73.534772664018
 20
-128.1000000007708
 30
1705.0
 10
73.90356506830332
 20
-125.48585837031155
 30
1705.0
 10
74.25979219872589
 20
-122.86993722055031
 30
1705.0
 10
74.60411342116942
 20
-120.25240565666677
 30
1705.0
 10
74.93704827662066
 20
-117.63340148813654
 30
1705.0
 10
75.25901504362892
 20
-115.013036654203
 30
1705.0
 10
75.57034800648313
 20
-112.39139968023343
 30
1705.0
 10
75.87131312640982
 20
-109.76855793944532
 30
1705.0
 10
76.17933512807927
 20
-106.98915813159881
 30
1705.0
 10
76.19652646762806
 20
-106.8337083671511
 30
1705.0
 10
76.21368714076715
 20
-106.67820961261262
 30
1705.0
 10
76.23081709360498
 20
-106.52266241116837
 30
1705.0
 10
76.24791627224995
 20
-106.36706730600336
 30
1705.0
 10
76.26498462281049
 20
-106.21142484030264
 30
1705.0
 10
76.28202209139499
 20
-106.05573555725124
 30
1705.0
 10
76.2990286241119
 20
-105.90000000003418
 30
1705.0
  0
LINE
  5
61
330
17
100
AcDbEntity
  8
0
100
AcDbLine
 10
47.88388425384012
 20
-128.1
 30
1705.0
 11
73.53477265855429
 21
-128.1
 31
1705.0
  0
SPLINE
  5
62
330
17
100
AcDbEntity
  8
0
100
AcDbSpline
 70
0
 71
1
 72
4
 73
2
 74
0
 40
0.0
 40
0.0
 40
1.0
 40
1.0
 10
47.88388426128249
 20
-131.9000006
 30
1705.0
 10
47.88388426128246
 20
-128.09999939999992
 30
1705.0
  0
LINE
  5
63
330
17
100
AcDbEntity
  8
0
100
AcDbLine
 10
47.88388425384012
 20
-131.9
 30
1705.0
 11
72.98658409273314
 21
-131.9
 31
1705.0
  0
SPLINE
  5
64
330
17
100
AcDbEntity
  8
0
100
AcDbSpline
 70
0
 71
8
 72
25
 73
16
 74
0
 40
0.0
 40
0.0
 40
0.0
 40
0.0
 40
0.0
 40
0.0
 40
0.0
 40
0.0
 40
0.0
 40
0.6507901762461472
 40
0.6507901762461472
 40
0.6507901762461472
 40
0.6507901762461472
 40
0.6507901762461472
 40
0.6507901762461472
 40
0.6507901762461472
 40
1.0
 40
1.0
 40
1.0
 40
1.0
 40
1.0
 40
1.0
 40
1.0
 40
1.0
 40
1.0
 10
69.1987620156984
 20
-154.10000000621037
 30
1705.0
 10
69.55614540692771
 20
-152.30299151275082
 30
1705.0
 10
69.90217686543876
 20
-150.50372251283974
 30
1705.0
 10
70.23785337343168
 20
-148.70246789708955
 30
1705.0
 10
70.56396134252307
 20
-146.8994485041981
 30
1705.0
 10
70.88115010458084
 20
-145.0948446769316
 30
1705.0
 10
71.18996877973746
 20
-143.2888030294589
 30
1705.0
 10
71.4908851888355
 20
-141.4814399213816
 30
1705.0
 10
71.9417529176842
 20
-138.7023648007193
 30
1705.0
 10
72.09704090404054
 20
-137.73153640243962
 30
1705.0
 10
72.25023205095175
 20
-136.7603743526717
 30
1705.0
 10
72.40138357421971
 20
-135.78889208273685
 30
1705.0
 10
72.5505479858864
 20
-134.8171021391465
 30
1705.0
 10
72.69777365048652
 20
-133.84501626166795
 30
1705.0
 10
72.84310523812424
 20
-132.8726454469114
 30
1705.0
 10
72.9865840991145
 20
-131.90000000094136
 30
1705.0
  0
LINE
  5
65
330
17
100
AcDbEntity
  8
0
100
AcDbLine
 10
47.88388425384012
 20
-154.1
 30
1705.0
 11
69.19876198447125
 21
-154.1
 31
1705.0
  0
SPLINE
  5
66
330
17
100
AcDbEntity
  8
0
100
AcDbSpline
 70
0
 71
1
 72
4
 73
2
 74
0
 40
0.0
 40
0.0
 40
1.0
 40
1.0
 10
47.88388426128246
 20
-157.90000060000003
 30
1705.0
 10
47.88388426128246
 20
-154.0999994
 30
1705.0
  0
LINE
  5
67
330
17
100
AcDbEntity
  8
0
100
AcDbLine
 10
47.88388425384012
 20
-157.9
 30
1705.0
 11
68.4187102214763
 21
-157.9
 31
1705.0
  0
SPLINE
  5
68
330
17
100
AcDbEntity
  8
0
100
AcDbSpline
 70
0
 71
8
 72
39
 73
30
 74
0
 40
0.0
 40
0.0
 40
0.0
 40
0.0
 40
0.0
 40
0.0
 40
0.0
 40
0.0
 40
0.0
 40
0.24313471755617086
 40
0.24313471755617086
 40
0.24313471755617086
 40
0.24313471755617086
 40
0.24313471755617086
 40
0.24313471755617086
 40
0.24313471755617086
 40
0.39830753823554804
 40
0.39830753823554804
 40
0.39830753823554804
 40
0.39830753823554804
 40
0.39830753823554804
 40
0.39830753823554804
 40
0.39830753823554804
 40
0.5808455245109407
 40
0.5808455245109407
 40
0.5808455245109407
 40
0.5808455245109407
 40
0.5808455245109407
 40
0.5808455245109407
 40
0.5808455245109407
 40
1.0
 40
1.0
 40
1.0
 40
1.0
 40
1.0
 40
1.0
 40
1.0
 40
1.0
 40
1.0
 10
62.15195153250894
 20
-180.10000001775933
 30
1705.0
 10
62.40634402787573
 20
-179.48035723188335
 30
1705.0
 10
62.652612274098985
 20
-178.85737222416424
 30
1705.0
 10
62.89140100574231
 20
-178.23144130751666
 30
1705.0
 10
63.123256881010356
 20
-177.60289705763276
 30
1705.0
 10
63.34865406534783
 20
-176.97201802886735
 30
1705.0
 10
63.56801278164892
 20
-176.33903576078967
 30
1705.0
 10
63.781710827077504
 20
-175.70413907540333
 30
1705.0
 10
64.12307804155411
 20
-174.66114596352608
 30
1705.0
 10
64.25388585115273
 20
-174.2541005013529
 30
1705.0
 10
64.3826225724897
 20
-173.84638970649428
 30
1705.0
 10
64.50939220277772
 20
-173.43805985882966
 30
1705.0
 10
64.63429164924605
 20
-173.02915309013758
 30
1705.0
 10
64.75741072914046
 20
-172.61970738409516
 30
1705.0
 10
64.87883216972332
 20
-172.20975657627844
 30
1705.0
 10
65.13955801648169
 20
-171.31652430751257
 30
1705.0
 10
65.28018018998785
 20
-170.82640359662759
 30
1705.0
 10
65.42048971663233
 20
-170.32905300986076
 30
1705.0
 10
65.56047818425493
 20
-169.82455733556253
 30
1705.0
 10
65.70013718069482
 20
-169.3130013620802
 30
1705.0
 10
65.83945829379063
 20
-168.79446987775796
 30
1705.0
 10
65.97843311138041
 20
-168.26904767093708
 30
1705.0
 10
66.43536088236363
 20
-166.51468592464093
 30
1705.0
 10
66.74316149235969
 20
-165.2898278771428
 30
1705.0
 10
67.04158614412623
 20
-164.06262124682118
 30
1705.0
 10
67.33150544562996
 20
-162.833363044222
 30
1705.0
 10
67.61362603505835
 20
-161.60229409838064
 30
1705.0
 10
67.88854138073596
 20
-160.3696109040423
 30
1705.0
 10
68.15675699716411
 20
-159.13547147093695
 30
1705.0
 10
68.41871020848075
 20
-157.89999999724463
 30
1705.0
  0
LINE
  5
69
330
17
100
AcDbEntity
  8
0
100
AcDbLine
 10
47.88388425384012
 20
-180.1
 30
1705.0
 11
62.15195148925133
 21
-180.1
 31
1705.0
  0
SPLINE
  5
6A
330
17
100
AcDbEntity
  8
0
100
AcDbSpline
 70
0
 71
1
 72
4
 73
2
 74
0
 40
0.0
 40
0.0
 40
1.0
 40
1.0
 10
47.88388426128246
 20
-183.9000006000001
 30
1705.0
 10
47.88388426128246
 20
-180.09999939999994
 30
1705.0
  0
LINE
  5
6B
330
17
100
AcDbEntity
  8
0
100
AcDbLine
 10
47.88388425384012
 20
-183.9
 30
1705.0
 11
60.404408353465435
 21
-183.9
 31
1705.0
  0
SPLINE
  5
6C
330
17
100
AcDbEntity
  8
0
100
AcDbSpline
 70
0
 71
8
 72
74
 73
65
 74
0
 40
0.0
 40
0.0
 40
0.0
 40
0.0
 40
0.0
 40
0.0
 40
0.0
 40
0.0
 40
0.0
 40
0.01728586094887503
 40
0.01728586094887503
 40
0.01728586094887503
 40
0.01728586094887503
 40
0.01728586094887503
 40
0.01728586094887503
 40
0.01728586094887503
 40
0.033747959467674817
 40
0.033747959467674817
 40
0.033747959467674817
 40
0.033747959467674817
 40
0.033747959467674817
 40
0.033747959467674817
 40
0.033747959467674817
 40
0.040485360675374504
 40
0.040485360675374504
 40
0.040485360675374504
 40
0.040485360675374504
 40
0.040485360675374504
 40
0.040485360675374504
 40
0.040485360675374504
 40
0.04373000191090483
 40
0.04373000191090483
 40
0.04373000191090483
 40
0.04373000191090483
 40
0.04373000191090483
 40
0.04373000191090483
 40
0.04373000191090483
 40
0.046974692579797445
 40
0.046974692579797445
 40
0.046974692579797445
 40
0.046974692579797445
 40
0.046974692579797445
 40
0.046974692579797445
 40
0.046974692579797445
 40
0.05652203044448773
 40
0.05652203044448773
 40
0.05652203044448773
 40
0.05652203044448773
 40
0.05652203044448773
 40
0.05652203044448773
 40
0.05652203044448773
 40
0.06417498461566734
 40
0.06417498461566734
 40
0.06417498461566734
 40
0.06417498461566734
 40
0.06417498461566734
 40
0.06417498461566734
 40
0.06417498461566734
 40
0.08061855121571407
 40
0.08061855121571407
 40
0.08061855121571407
 40
0.08061855121571407
 40
0.08061855121571407
 40
0.08061855121571407
 40
0.08061855121571407
 40
0.08588980131775555
 40
0.08588980131775555
 40
0.08588980131775555
 40
0.08588980131775555
 40
0.08588980131775555
 40
0.08588980131775555
 40
0.08588980131775555
 40
0.08588980131775555
 40
0.08588980131775555
 10
33.529516086135736
 20
-177.4523567040674
 30
1705.0
 10
34.01617220204805
 20
-178.28276589138477
 30
1705.0
 10
34.51619475583327
 20
-179.10525556750514
 30
1705.0
 10
35.030101722540984
 20
-179.91929494571406
 30
1705.0
 10
35.55851903306172
 20
-180.72414437064901
 30
1705.0
 10
36.10219788492361
 20
-181.51884222342628
 30
1705.0
 10
36.662036318375186
 20
-182.3021895706297
 30
1705.0
 10
37.23913910301215
 20
-183.07270856824596
 30
1705.0
 10
38.40236732713184
 20
-184.5483728348113
 30
1705.0
 10
38.986466031100775
 20
-185.25452161277826
 30
1705.0
 10
39.58869548820971
 20
-185.94570975361708
 30
1705.0
 10
40.21051114187061
 20
-186.61995378168416
 30
1705.0
 10
40.8534373828279
 20
-187.27450369820468
 30
1705.0
 10
41.519101051685986
 20
-187.90580979494888
 30
1705.0
 10
42.209370795868665
 20
-188.50938324551555
 30
1705.0
 10
43.22033239358334
 20
-189.31269942468236
 30
1705.0
 10
43.51840071793619
 20
-189.54031991231403
 30
1705.0
 10
43.82109000218247
 20
-189.76185844742477
 30
1705.0
 10
44.12852919300001
 20
-189.97684182048832
 30
1705.0
 10
44.44082782018654
 20
-190.1847351358684
 30
1705.0
 10
44.758075129293694
 20
-190.38494314101442
 30
1705.0
 10
45.0803392142608
 20
-190.57681155565666
 30
1705.0
 10
45.565302372179104
 20
-190.8476705194199
 30
1705.0
 10
45.72327684488562
 20
-190.93314648942615
 30
1705.0
 10
45.881582052825145
 20
-191.0160209063487
 30
1705.0
 10
46.04021048065322
 20
-191.09625836551723
 30
1705.0
 10
46.199154613024234
 20
-191.1738234622626
 30
1705.0
 10
46.35840693459133
 20
-191.24868079191734
 30
1705.0
 10
46.517959930006484
 20
-191.32079494981562
 30
1705.0
 10
46.837654673152365
 20
-191.45946716912468
 30
1705.0
 10
46.99779330413281
 20
-191.52601965902105
 30
1705.0
 10
47.15821339162469
 20
-191.5897694855164
 30
1705.0
 10
47.318915895295476
 20
-191.6506629489801
 30
1705.0
 10
47.47989483463922
 20
-191.70866205246185
 30
1705.0
 10
47.641134469085515
 20
-191.7637524299853
 30
1705.0
 10
47.8026201432952
 20
-191.81590831629094
 30
1705.0
 10
48.44028236156171
 20
-192.009507185822
 30
1705.0
 10
48.92430390825425
 20
-192.1294177378518
 30
1705.0
 10
49.41535138275899
 20
-192.22106601574055
 30
1705.0
 10
49.911776167486295
 20
-192.28066758019875
 30
1705.0
 10
50.411336189383164
 20
-192.3046629775376
 30
1705.0
 10
50.91116612410298
 20
-192.29026382212044
 30
1705.0
 10
51.40773378379646
 20
-192.23615421057647
 30
1705.0
 10
52.28878561088364
 20
-192.0688446070543
 30
1705.0
 10
52.67618329285431
 20
-191.9694574473818
 30
1705.0
 10
53.05685609582905
 20
-191.8455429697946
 30
1705.0
 10
53.42924723244636
 20
-191.6982644079917
 30
1705.0
 10
53.79225219703308
 20
-191.52927895799348
 30
1705.0
 10
54.14513064077014
 20
-191.34052523969848
 30
1705.0
 10
54.48743577819821
 20
-191.1340489861639
 30
1705.0
 10
55.53129571091604
 20
-190.43447419791622
 30
1705.0
 10
56.19236162965649
 20
-189.88558010605038
 30
1705.0
 10
56.806215486574494
 20
-189.2819084787412
 30
1705.0
 10
57.37751566191237
 20
-188.63754817690588
 30
1705.0
 10
57.910749461567285
 20
-187.96316765797934
 30
1705.0
 10
58.41046305634194
 20
-187.2662408828393
 30
1705.0
 10
58.88118833323064
 20
-186.55094038895342
 30
1705.0
 10
59.47059380269994
 20
-185.58333727347514
 30
1705.0
 10
59.61104167447519
 20
-185.34686386376282
 30
1705.0
 10
59.74897641601211
 20
-185.1089073216778
 30
1705.0
 10
59.88450450225686
 20
-184.86956443367887
 30
1705.0
 10
60.01772393095452
 20
-184.6289240367438
 30
1705.0
 10
60.14872551418095
 20
-184.38706768749802
 30
1705.0
 10
60.27759389491701
 20
-184.14407018758928
 30
1705.0
 10
60.40440835801763
 20
-183.90000000236523
 30
1705.0
  0
SPLINE
  5
6D
330
17
100
AcDbEntity
  8
0
100
AcDbSpline
 70
0
 71
8
 72
410
 73
401
 74
0
 40
0.0
 40
0.0
 40
0.0
 40
0.0
 40
0.0
 40
0.0
 40
0.0
 40
0.0
 40
0.0
 40
0.0008558016203731552
 40
0.0008558016203731552
 40
0.0008558016203731552
 40
0.0008558016203731552
 40
0.0008558016203731552
 40
0.0008558016203731552
 40
0.0008558016203731552
 40
0.0017469748412339086
 40
0.0017469748412339086
 40
0.0017469748412339086
 40
0.0017469748412339086
 40
0.0017469748412339086
 40
0.0017469748412339086
 40
0.0017469748412339086
 40
0.0027272653841749865
 40
0.0027272653841749865
 40
0.0027272653841749865
 40
0.0027272653841749865
 40
0.0027272653841749865
 40
0.0027272653841749865
 40
0.0027272653841749865
 40
0.0037966732491957885
 40
0.0037966732491957885
 40
0.0037966732491957885
 40
0.0037966732491957885
 40
0.0037966732491957885
 40
0.0037966732491957885
 40
0.0037966732491957885
 40
0.005366827014122482
 40
0.005366827014122482
 40
0.005366827014122482
 40
0.005366827014122482
 40
0.005366827014122482
 40
0.005366827014122482
 40
0.005366827014122482
 40
0.008433238773053998
 40
0.008433238773053998
 40
0.008433238773053998
 40
0.008433238773053998
 40
0.008433238773053998
 40
0.008433238773053998
 40
0.008433238773053998
 40
0.013219942027264744
 40
0.013219942027264744
 40
0.013219942027264744
 40
0.013219942027264744
 40
0.013219942027264744
 40
0.013219942027264744
 40
0.013219942027264744
 40
0.02355293466939667
 40
0.02355293466939667
 40
0.02355293466939667
 40
0.02355293466939667
 40
0.02355293466939667
 40
0.02355293466939667
 40
0.02355293466939667
 40
0.03084191886117295
 40
0.03084191886117295
 40
0.03084191886117295
 40
0.03084191886117295
 40
0.03084191886117295
 40
0.03084191886117295
 40
0.03084191886117295
 40
0.03448641095706176
 40
0.03448641095706176
 40
0.03448641095706176
 40
0.03448641095706176
 40
0.03448641095706176
 40
0.03448641095706176
 40
0.03448641095706176
 40
0.038988410060951384
 40
0.038988410060951384
 40
0.038988410060951384
 40
0.038988410060951384
 40
0.038988410060951384
 40
0.038988410060951384
 40
0.038988410060951384
 40
0.05982767038019188
 40
0.05982767038019188
 40
0.05982767038019188
 40
0.05982767038019188
 40
0.05982767038019188
 40
0.05982767038019188
 40
0.05982767038019188
 40
0.09613417733080387
 40
0.09613417733080387
 40
0.09613417733080387
 40
0.09613417733080387
 40
0.09613417733080387
 40
0.09613417733080387
 40
0.09613417733080387
 40
0.13865531055225205
 40
0.13865531055225205
 40
0.13865531055225205
 40
0.13865531055225205
 40
0.13865531055225205
 40
0.13865531055225205
 40
0.13865531055225205
 40
0.17345488308179685
 40
0.17345488308179685
 40
0.17345488308179685
 40
0.17345488308179685
 40
0.17345488308179685
 40
0.17345488308179685
 40
0.17345488308179685
 40
0.2094618154049907
 40
0.2094618154049907
 40
0.2094618154049907
 40
0.2094618154049907
 40
0.2094618154049907
 40
0.2094618154049907
 40
0.2094618154049907
 40
0.25160752097854294
 40
0.25160752097854294
 40
0.25160752097854294
 40
0.25160752097854294
 40
0.25160752097854294
 40
0.25160752097854294
 40
0.25160752097854294
 40
0.2863543950824273
 40
0.2863543950824273
 40
0.2863543950824273
 40
0.2863543950824273
 40
0.2863543950824273
 40
0.2863543950824273
 40
0.2863543950824273
 40
0.306756024723715
 40
0.306756024723715
 40
0.306756024723715
 40
0.306756024723715
 40
0.306756024723715
 40
0.306756024723715
 40
0.306756024723715
 40
0.3146801311374893
 40
0.3146801311374893
 40
0.3146801311374893
 40
0.3146801311374893
 40
0.3146801311374893
 40
0.3146801311374893
 40
0.3146801311374893
 40
0.3223242404077397
 40
0.3223242404077397
 40
0.3223242404077397
 40
0.3223242404077397
 40
0.3223242404077397
 40
0.3223242404077397
 40
0.3223242404077397
 40
0.3307813118090013
 40
0.3307813118090013
 40
0.3307813118090013
 40
0.3307813118090013
 40
0.3307813118090013
 40
0.3307813118090013
 40
0.3307813118090013
 40
0.3353551481661451
 40
0.3353551481661451
 40
0.3353551481661451
 40
0.3353551481661451
 40
0.3353551481661451
 40
0.3353551481661451
 40
0.3353551481661451
 40
0.337863990343585
 40
0.337863990343585
 40
0.337863990343585
 40
0.337863990343585
 40
0.337863990343585
 40
0.337863990343585
 40
0.337863990343585
 40
0.3403728325210269
 40
0.3403728325210269
 40
0.3403728325210269
 40
0.3403728325210269
 40
0.3403728325210269
 40
0.3403728325210269
 40
0.3403728325210269
 40
0.3418363237911993
 40
0.3418363237911993
 40
0.3418363237911993
 40
0.3418363237911993
 40
0.3418363237911993
 40
0.3418363237911993
 40
0.3418363237911993
 40
0.34392702560572713
 40
0.34392702560572713
 40
0.34392702560572713
 40
0.34392702560572713
 40
0.34392702560572713
 40
0.34392702560572713
 40
0.34392702560572713
 40
0.34622679760171043
 40
0.34622679760171043
 40
0.34622679760171043
 40
0.34622679760171043
 40
0.34622679760171043
 40
0.34622679760171043
 40
0.34622679760171043
 40
0.35125817990463526
 40
0.35125817990463526
 40
0.35125817990463526
 40
0.35125817990463526
 40
0.35125817990463526
 40
0.35125817990463526
 40
0.35125817990463526
 40
0.3555345530905434
 40
0.3555345530905434
 40
0.3555345530905434
 40
0.3555345530905434
 40
0.3555345530905434
 40
0.3555345530905434
 40
0.3555345530905434
 40
0.35864525083178966
 40
0.35864525083178966
 40
0.35864525083178966
 40
0.35864525083178966
 40
0.35864525083178966
 40
0.35864525083178966
 40
0.35864525083178966
 40
0.3617559485729866
 40
0.3617559485729866
 40
0.3617559485729866
 40
0.3617559485729866
 40
0.3617559485729866
 40
0.3617559485729866
 40
0.3617559485729866
 40
0.36708857327216643
 40
0.36708857327216643
 40
0.36708857327216643
 40
0.36708857327216643
 40
0.36708857327216643
 40
0.36708857327216643
 40
0.36708857327216643
 40
0.37242119797133205
 40
0.37242119797133205
 40
0.37242119797133205
 40
0.37242119797133205
 40
0.37242119797133205
 40
0.37242119797133205
 40
0.37242119797133205
 40
0.38211416935982506
 40
0.38211416935982506
 40
0.38211416935982506
 40
0.38211416935982506
 40
0.38211416935982506
 40
0.38211416935982506
 40
0.38211416935982506
 40
0.4010602340420118
 40
0.4010602340420118
 40
0.4010602340420118
 40
0.4010602340420118
 40
0.4010602340420118
 40
0.4010602340420118
 40
0.4010602340420118
 40
0.41442495287292097
 40
0.41442495287292097
 40
0.41442495287292097
 40
0.41442495287292097
 40
0.41442495287292097
 40
0.41442495287292097
 40
0.41442495287292097
 40
0.4211073122883795
 40
0.4211073122883795
 40
0.4211073122883795
 40
0.4211073122883795
 40
0.4211073122883795
 40
0.4211073122883795
 40
0.4211073122883795
 40
0.4293619541108545
 40
0.4293619541108545
 40
0.4293619541108545
 40
0.4293619541108545
 40
0.4293619541108545
 40
0.4293619541108545
 40
0.4293619541108545
 40
0.467572136583273
 40
0.467572136583273
 40
0.467572136583273
 40
0.467572136583273
 40
0.467572136583273
 40
0.467572136583273
 40
0.467572136583273
 40
0.5341454094494009
 40
0.5341454094494009
 40
0.5341454094494009
 40
0.5341454094494009
 40
0.5341454094494009
 40
0.5341454094494009
 40
0.5341454094494009
 40
0.612120401067872
 40
0.612120401067872
 40
0.612120401067872
 40
0.612120401067872
 40
0.612120401067872
 40
0.612120401067872
 40
0.612120401067872
 40
0.675942246189141
 40
0.675942246189141
 40
0.675942246189141
 40
0.675942246189141
 40
0.675942246189141
 40
0.675942246189141
 40
0.675942246189141
 40
0.7419858983222195
 40
0.7419858983222195
 40
0.7419858983222195
 40
0.7419858983222195
 40
0.7419858983222195
 40
0.7419858983222195
 40
0.7419858983222195
 40
0.8192971506986497
 40
0.8192971506986497
 40
0.8192971506986497
 40
0.8192971506986497
 40
0.8192971506986497
 40
0.8192971506986497
 40
0.8192971506986497
 40
0.8830410535686363
 40
0.8830410535686363
 40
0.8830410535686363
 40
0.8830410535686363
 40
0.8830410535686363
 40
0.8830410535686363
 40
0.8830410535686363
 40
0.920469790652206
 40
0.920469790652206
 40
0.920469790652206
 40
0.920469790652206
 40
0.920469790652206
 40
0.920469790652206
 40
0.920469790652206
 40
0.93500743280579
 40
0.93500743280579
 40
0.93500743280579
 40
0.93500743280579
 40
0.93500743280579
 40
0.93500743280579
 40
0.93500743280579
 40
0.9490313886506545
 40
0.9490313886506545
 40
0.9490313886506545
 40
0.9490313886506545
 40
0.9490313886506545
 40
0.9490313886506545
 40
0.9490313886506545
 40
0.9645468085757178
 40
0.9645468085757178
 40
0.9645468085757178
 40
0.9645468085757178
 40
0.9645468085757178
 40
0.9645468085757178
 40
0.9645468085757178
 40
0.9729380037129695
 40
0.9729380037129695
 40
0.9729380037129695
 40
0.9729380037129695
 40
0.9729380037129695
 40
0.9729380037129695
 40
0.9729380037129695
 40
0.9775407410179494
 40
0.9775407410179494
 40
0.9775407410179494
 40
0.9775407410179494
 40
0.9775407410179494
 40
0.9775407410179494
 40
0.9775407410179494
 40
0.9821434783229274
 40
0.9821434783229274
 40
0.9821434783229274
 40
0.9821434783229274
 40
0.9821434783229274
 40
0.9821434783229274
 40
0.9821434783229274
 40
0.9859790927437443
 40
0.9859790927437443
 40
0.9859790927437443
 40
0.9859790927437443
 40
0.9859790927437443
 40
0.9859790927437443
 40
0.9859790927437443
 40
0.9886640228383091
 40
0.9886640228383091
 40
0.9886640228383091
 40
0.9886640228383091
 40
0.9886640228383091
 40
0.9886640228383091
 40
0.9886640228383091
 40
0.9928831987011997
 40
0.9928831987011997
 40
0.9928831987011997
 40
0.9928831987011997
 40
0.9928831987011997
 40
0.9928831987011997
 40
0.9928831987011997
 40
1.0
 40
1.0
 40
1.0
 40
1.0
 40
1.0
 40
1.0
 40
1.0
 40
1.0
 40
1.0
 10
33.52951608613569
 20
177.45235670406754
 30
1705.0
 10
33.529404403203635
 20
177.45247090409526
 30
1705.0
 10
33.52942821443381
 20
177.45231472274673
 30
1705.0
 10
33.5294999364227
 20
177.45213402275144
 30
1705.0
 10
33.52956057596177
 20
177.45205075763423
 30
1705.0
 10
33.52957973003731
 20
177.45206297171552
 30
1705.0
 10
33.529555585830586
 20
177.45204480011122
 30
1705.0
 10
33.5295149207177
 20
177.45174646873267
 30
1705.0
 10
33.5295112086624
 20
177.4498027650024
 30
1705.0
 10
33.52950839946478
 20
177.44833181496563
 30
1705.0
 10
33.52950441643339
 20
177.4462462229381
 30
1705.0
 10
33.5294990013248
 20
177.443410767682
 30
1705.0
 10
33.52949189589561
 20
177.43969022795932
 30
1705.0
 10
33.52948284190237
 20
177.4349493825321
 30
1705.0
 10
33.52947158110165
 20
177.4290530101623
 30
1705.0
 10
33.52944275681326
 20
177.41396005700685
 30
1705.0
 10
33.5294246756649
 20
177.40449241910335
 30
1705.0
 10
33.529403268082945
 20
177.39328299643378
 30
1705.0
 10
33.52937819034538
 20
177.3801518095304
 30
1705.0
 10
33.52934909873022
 20
177.36491887892547
 30
1705.0
 10
33.52931564951545
 20
177.3474042251514
 30
1705.0
 10
33.52927749897908
 20
177.32742786874044
 30
1705.0
 10
33.529187180948206
 20
177.28013560638988
 30
1705.0
 10
33.52913405447849
 20
177.2523175625292
 30
1705.0
 10
33.52907447774529
 20
177.22112203634413
 30
1705.0
 10
33.52900800450396
 20
177.1863153655354
 30
1705.0
 10
33.52893418850985
 20
177.14766388780396
 30
1705.0
 10
33.52885258351834
 20
177.1049339408505
 30
1705.0
 10
33.52876274328477
 20
177.05789186237575
 30
1705.0
 10
33.52851956744791
 20
176.9305603055995
 30
1705.0
 10
33.52837399010066
 20
176.85433319981945
 30
1705.0
 10
33.52822786706988
 20
176.77782036329984
 30
1705.0
 10
33.528081366372746
 20
176.7011097740824
 30
1705.0
 10
33.52793462364659
 20
176.62427245297658
 30
1705.0
 10
33.527787692243415
 20
176.5473363375208
 30
1705.0
 10
33.52764059625287
 20
176.4703140407325
 30
1705.0
 10
33.52720567259104
 20
176.24257962577883
 30
1705.0
 10
33.526917527741716
 20
176.09170142704556
 30
1705.0
 10
33.52662905993638
 20
175.94065412232177
 30
1705.0
 10
33.526340365453976
 20
175.78948812512402
 30
1705.0
 10
33.52605150866904
 20
175.63823714318045
 30
1705.0
 10
33.52576253054562
 20
175.48692262605738
 30
1705.0
 10
33.525473443204305
 20
175.33555092035252
 30
1705.0
 10
33.524732798973396
 20
174.94773532093836
 30
1705.0
 10
33.52428113882165
 20
174.71123735716216
 30
1705.0
 10
33.52382932351683
 20
174.47465815229896
 30
1705.0
 10
33.523377391034565
 20
174.23801759100104
 30
1705.0
 10
33.52292536794796
 20
174.00132958753102
 30
1705.0
 10
33.52247327234389
 20
173.76460361256215
 30
1705.0
 10
33.52202111377331
 20
173.52784466708374
 30
1705.0
 10
33.52059269842508
 20
172.77989884995685
 30
1705.0
 10
33.5196162569726
 20
172.26861527899166
 30
1705.0
 10
33.518639650506344
 20
171.75724530365855
 30
1705.0
 10
33.51766292430859
 20
171.24581263456602
 30
1705.0
 10
33.51668610911479
 20
170.73433336543866
 30
1705.0
 10
33.51570922503055
 20
170.2228180239798
 30
1705.0
 10
33.51473228042855
 20
169.71127099422267
 30
1705.0
 10
33.51306608890913
 20
168.83882098937644
 30
1705.0
 10
33.51235394023648
 20
168.4659262136814
 30
1705.0
 10
33.511618384003896
 20
168.08077478829296
 30
1705.0
 10
33.51085897396675
 20
167.68313305091215
 30
1705.0
 10
33.51007526388039
 20
167.27276733923986
 30
1705.0
 10
33.50926680750016
 20
166.84944399097685
 30
1705.0
 10
33.50843315858142
 20
166.41292934382366
 30
1705.0
 10
33.5071442270286
 20
165.73801993130925
 30
1705.0
 10
33.50670817348187
 20
165.50969388684075
 30
1705.0
 10
33.50626565445878
 20
165.2779823942876
 30
1705.0
 10
33.505816614178734
 20
165.04285624586223
 30
1705.0
 10
33.505360996861164
 20
164.80428623377725
 30
1705.0
 10
33.50489874672547
 20
164.56224315024534
 30
1705.0
 10
33.50442980799111
 20
164.31669778747906
 30
1705.0
 10
33.50336651900674
 20
163.75993917435085
 30
1705.0
 10
33.50277891744958
 20
163.45225429735112
 30
1705.0
 10
33.50219130131697
 20
163.14456650623003
 30
1705.0
 10
33.50160366555981
 20
162.83687599382185
 30
1705.0
 10
33.5010160189689
 20
162.52918294625704
 30
1705.0
 10
33.500428384174924
 20
162.22148754296242
 30
1705.0
 10
33.49984079764849
 20
161.91378995666122
 30
1705.0
 10
33.49653389239022
 20
160.18178262138952
 30
1705.0
 10
33.49381647348767
 20
158.75743242755001
 30
1705.0
 10
33.491104298727656
 20
157.33305278093124
 30
1705.0
 10
33.48839894924153
 20
155.9086508861766
 30
1705.0
 10
33.48570156387454
 20
154.48423171555467
 30
1705.0
 10
33.48301307474555
 20
153.05979870755704
 30
1705.0
 10
33.48033412004146
 20
151.6353535389978
 30
1705.0
 10
33.47301563182753
 20
147.72918483019328
 30
1705.0
 10
33.468396719252226
 20
145.24744170943288
 30
1705.0
 10
33.46381159819991
 20
142.76567597071
 30
1705.0
 10
33.45926232713641
 20
140.28389271111328
 30
1705.0
 10
33.45475071663333
 20
137.80209554942581
 30
1705.0
 10
33.45027851013163
 20
135.32028709627866
 30
1705.0
 10
33.445847372418314
 20
132.83846893638693
 30
1705.0
 10
33.43631956102831
 20
127.44999792216333
 30
1705.0
 10
33.43123879733385
 20
124.54334257437114
 30
1705.0
 10
33.42621952855069
 20
121.63667820308879
 30
1705.0
 10
33.421264623364955
 20
118.7300065027956
 30
1705.0
 10
33.416377138653054
 20
115.82332879830204
 30
1705.0
 10
33.41156041004699
 20
112.91664616429408
 30
1705.0
 10
33.40681813821951
 20
110.00995948692271
 30
1705.0
 10
33.39833769515348
 20
104.72441541321655
 30
1705.0
 10
33.39457363376318
 20
102.3455591716261
 30
1705.0
 10
33.390864400937986
 20
99.96670116694828
 30
1705.0
 10
33.38721251229571
 20
97.5878417852999
 30
1705.0
 10
33.38362081281021
 20
95.20898138364213
 30
1705.0
 10
33.3800924047697
 20
92.83012029878941
 30
1705.0
 10
33.37663057573498
 20
90.45125885641826
 30
1705.0
 10
33.369729198159874
 20
85.61100208241318
 30
1705.0
 10
33.36629332805915
 20
83.14960675989136
 30
1705.0
 10
33.36292708095969
 20
80.68821178120226
 30
1705.0
 10
33.35962686957604
 20
78.22681751960619
 30
1705.0
 10
33.356389492391436
 20
75.76542436426205
 30
1705.0
 10
33.35321207147641
 20
73.30403273155673
 30
1705.0
 10
33.350091990307206
 20
70.84264307643495
 30
1705.0
 10
33.34343909809146
 20
65.50023015701287
 30
1705.0
 10
33.339926614828286
 20
62.619207900698186
 30
1705.0
 10
33.33648552859724
 20
59.73818986053426
 30
1705.0
 10
33.333112383540914
 20
56.85717697213776
 30
1705.0
 10
33.32980405095932
 20
53.97617038159273
 30
1705.0
 10
33.32655764855139
 20
51.09517151404037
 30
1705.0
 10
33.323370449081594
 20
48.214182210258535
 30
1705.0
 10
33.31765870844049
 20
42.95799366241407
 30
1705.0
 10
33.31511606314465
 20
40.58279112940783
 30
1705.0
 10
33.31261032976871
 20
38.20759825515313
 30
1705.0
 10
33.310140046630565
 20
35.832416611865256
 30
1705.0
 10
33.30770365620804
 20
33.457248792861456
 30
1705.0
 10
33.30529951784361
 20
31.082098395781216
 30
1705.0
 10
33.30292573244405
 20
28.706970487177628
 30
1705.0
 10
33.29920180071947
 20
24.937335002909485
 30
1705.0
 10
33.29783365081441
 20
23.542808746208138
 30
1705.0
 10
33.296474368479736
 20
22.148295239989793
 30
1705.0
 10
33.29512331184454
 20
20.75379611357073
 30
1705.0
 10
33.29377950698269
 20
19.359315070127145
 30
1705.0
 10
33.29244176665551
 20
17.964857537512806
 30
1705.0
 10
33.29110843364434
 20
16.570431440562874
 30
1705.0
 10
33.289258407383926
 20
14.63446671766107
 30
1705.0
 10
33.28875503908272
 20
14.10758378833117
 30
1705.0
 10
33.2882652872278
 20
13.595185226525302
 30
1705.0
 10
33.2877894381987
 20
13.097047374712304
 30
1705.0
 10
33.287326762108485
 20
12.612942095693143
 30
1705.0
 10
33.28687740550442
 20
12.14263522645794
 30
1705.0
 10
33.28644095874639
 20
11.685887659101041
 30
1705.0
 10
33.28560849777308
 20
10.814690630145812
 30
1705.0
 10
33.28519976215386
 20
10.386935662047122
 30
1705.0
 10
33.284791036270185
 20
9.959190805624619
 30
1705.0
 10
33.28438232131952
 20
9.531457308452355
 30
1705.0
 10
33.283973618860195
 20
9.103736794964673
 30
1705.0
 10
33.28356493087229
 20
8.676031329875153
 30
1705.0
 10
33.283156259868036
 20
8.248343533239336
 30
1705.0
 10
33.28229549762723
 20
7.347526976803188
 30
1705.0
 10
33.281843414720036
 20
6.874406907795496
 30
1705.0
 10
33.281391361187886
 20
6.4013174222983125
 30
1705.0
 10
33.280939341258396
 20
5.928262926241871
 30
1705.0
 10
33.280487364267586
 20
5.4552531657524455
 30
1705.0
 10
33.280035444326124
 20
4.982302877650731
 30
1705.0
 10
33.2795836020568
 20
4.50943360254016
 30
1705.0
 10
33.27888756375896
 20
3.781003821549355
 30
1705.0
 10
33.278643295111095
 20
3.525367560768508
 30
1705.0
 10
33.278399066798094
 20
3.269773399482215
 30
1705.0
 10
33.27815488416645
 20
3.01422691978982
 30
1705.0
 10
33.27791076105643
 20
2.7587425874486478
 30
1705.0
 10
33.2776667187907
 20
2.50334269413986
 30
1705.0
 10
33.277422788929876
 20
2.2480602375972403
 30
1705.0
 10
33.27704532004763
 20
1.8530234006915547
 30
1705.0
 10
33.276918765014145
 20
1.7205782331692798
 30
1705.0
 10
33.27679913960465
 20
1.5953851319034738
 30
1705.0
 10
33.2766862206078
 20
1.477210501787764
 30
1705.0
 10
33.276579784812235
 20
1.3658207477157973
 30
1705.0
 10
33.2764796090066
 20
1.260982274581244
 30
1705.0
 10
33.27638546997954
 20
1.1624614872777952
 30
1705.0
 10
33.27620881905984
 20
0.9775880941204633
 30
1705.0
 10
33.27612630716722
 20
0.89123548826644
 30
1705.0
 10
33.27604938563046
 20
0.8107333780307489
 30
1705.0
 10
33.27597783123821
 20
0.7358481683070425
 30
1705.0
 10
33.2759114207791
 20
0.6663462639889682
 30
1705.0
 10
33.275849931041805
 20
0.6019940699701709
 30
1705.0
 10
33.27579313881495
 20
0.5425579911442924
 30
1705.0
 10
33.27571030209601
 20
0.45586485647375236
 30
1705.0
 10
33.27568130580934
 20
0.42551863807188844
 30
1705.0
 10
33.27565378772084
 20
0.39671940965230396
 30
1705.0
 10
33.275627703524044
 20
0.3694208036678931
 30
1705.0
 10
33.27560300891254
 20
0.3435764525715197
 30
1705.0
 10
33.2755796595799
 20
0.31913998881601713
 30
1705.0
 10
33.2755576112197
 20
0.2960650448541884
 30
1705.0
 10
33.275507117105306
 20
0.2432198364026022
 30
1705.0
 10
33.27547997930962
 20
0.21481840384298934
 30
1705.0
 10
33.27545527696524
 20
0.18896577310675663
 30
1705.0
 10
33.27543288089893
 20
0.16552676184069082
 30
1705.0
 10
33.27541266193745
 20
0.1443661876915761
 30
1705.0
 10
33.27539449090757
 20
0.12534886830619438
 30
1705.0
 10
33.275378238636065
 20
0.10833962133132502
 30
1705.0
 10
33.27534786699465
 20
0.07655327180438574
 30
1705.0
 10
33.27533412343762
 20
0.06216947616437095
 30
1705.0
 10
33.27532237334899
 20
0.0498719497815553
 30
1705.0
 10
33.27531244479921
 20
0.039480764943798714
 30
1705.0
 10
33.2753041658587
 20
0.030815993938966404
 30
1705.0
 10
33.27529736459786
 20
0.023697709054928847
 30
1705.0
 10
33.27529186908711
 20
0.017945982579561814
 30
1705.0
 10
33.27527796500267
 20
0.0033934871138114886
 30
1705.0
 10
33.27527388122275
 20
-0.0012802793760329223
 30
1705.0
 10
33.27527095856333
 20
-0.0016639841383607745
 30
1705.0
 10
33.27528049910254
 20
0.00023553948369681166
 30
1705.0
 10
33.275269941175814
 20
0.001918287024750498
 30
1705.0
 10
33.27527462569302
 20
0.0007782592923035736
 30
1705.0
 10
33.275279630234266
 20
-0.00513644301835825
 30
1705.0
 10
33.2752993360687
 20
-0.025761107278043482
 30
1705.0
 10
33.275311522434116
 20
-0.0385154743883902
 30
1705.0
 10
33.27532638368693
 20
-0.05406919689227152
 30
1705.0
 10
33.27534283412338
 20
-0.07128601341139529
 30
1705.0
 10
33.27536031046646
 20
-0.08957643087990164
 30
1705.0
 10
33.275378332674094
 20
-0.1084380644095404
 30
1705.0
 10
33.27539675961214
 20
-0.12772322016326143
 30
1705.0
 10
33.275429409447156
 20
-0.16189360294676192
 30
1705.0
 10
33.27544418020183
 20
-0.17735222565689562
 30
1705.0
 10
33.27546001716249
 20
-0.19392668037843916
 30
1705.0
 10
33.2754769646355
 20
-0.2116633346583703
 30
1705.0
 10
33.27549506692731
 20
-0.23060855604379077
 30
1705.0
 10
33.275514368344346
 20
-0.25080871208192596
 30
1705.0
 10
33.27553491319303
 20
-0.27231017032012517
 30
1705.0
 10
33.27557857836651
 20
-0.31800842629122883
 30
1705.0
 10
33.275601698691325
 20
-0.3422052240238775
 30
1705.0
 10
33.275626151060635
 20
-0.3677960590508482
 30
1705.0
 10
33.27565197978084
 20
-0.39482729891922475
 30
1705.0
 10
33.275679229158364
 20
-0.423345311176133
 30
1705.0
 10
33.27570794349963
 20
-0.4533964633687415
 30
1705.0
 10
33.275738167111065
 20
-0.48502712304426154
 30
1705.0
 10
33.27582441947856
 20
-0.5752948601023747
 30
1705.0
 10
33.275883460270855
 20
-0.637084144175887
 30
1705.0
 10
33.27594728988733
 20
-0.7038851050767463
 30
1705.0
 10
33.276016131539336
 20
-0.7759313379112541
 30
1705.0
 10
33.27609020843825
 20
-0.85345643778575
 30
1705.0
 10
33.2761697437954
 20
-0.9366939998066133
 30
1705.0
 10
33.276254960822136
 20
-1.0258776190802619
 30
1705.0
 10
33.27643720463753
 20
-1.2166041623457884
 30
1705.0
 10
33.276534231426204
 20
-1.318147086337837
 30
1705.0
 10
33.27663738630718
 20
-1.4261032577954182
 30
1705.0
 10
33.276746892491815
 20
-1.5407062718247482
 30
1705.0
 10
33.276862973191484
 20
-1.6621897235321388
 30
1705.0
 10
33.27698585161752
 20
-1.7907872080239977
 30
1705.0
 10
33.277115750981274
 20
-1.9267323204068278
 30
1705.0
 10
33.27750217664335
 20
-2.331142693352234
 30
1705.0
 10
33.277751620542396
 20
-2.5921957530668394
 30
1705.0
 10
33.27800117281277
 20
-2.8533620283358765
 30
1705.0
 10
33.2782508033234
 20
-3.1146100175907208
 30
1705.0
 10
33.27850049167277
 20
-3.375918392789522
 30
1705.0
 10
33.278750224574075
 20
-3.637273267082037
 30
1705.0
 10
33.278999996725545
 20
-3.8986691054057445
 30
1705.0
 10
33.27973809308217
 20
-4.67111407182939
 30
1705.0
 10
33.2802265010139
 20
-5.182250537209754
 30
1705.0
 10
33.280714991821654
 20
-5.6934734320759794
 30
1705.0
 10
33.28120354279697
 20
-6.204759038749671
 30
1705.0
 10
33.281692138524264
 20
-6.71609125894642
 30
1705.0
 10
33.282180768914714
 20
-7.227459562045617
 30
1705.0
 10
33.28266942975843
 20
-7.738859562551955
 30
1705.0
 10
33.28350284730149
 20
-8.611058773531752
 30
1705.0
 10
33.283859059208304
 20
-8.983846318183588
 30
1705.0
 10
33.284226979491294
 20
-9.368886987959831
 30
1705.0
 10
33.28460683136183
 20
-9.766414377966907
 30
1705.0
 10
33.28499883803125
 20
-10.176662083311202
 30
1705.0
 10
33.285403222710904
 20
-10.599863699099062
 30
1705.0
 10
33.285820208612165
 20
-11.036252820436786
 30
1705.0
 10
33.286464924113496
 20
-11.710968153427585
 30
1705.0
 10
33.286683035388855
 20
-11.939228539588614
 30
1705.0
 10
33.28690438067386
 20
-12.170873400301994
 30
1705.0
 10
33.287128987869934
 20
-12.40593193495601
 30
1705.0
 10
33.28735688487852
 20
-12.644433342938964
 30
1705.0
 10
33.28758809960102
 20
-12.886406823639149
 30
1705.0
 10
33.28782265993884
 20
-13.131881576444885
 30
1705.0
 10
33.28835451075073
 20
-13.688480093880314
 30
1705.0
 10
33.28864844097505
 20
-13.996076501550846
 30
1705.0
 10
33.288942364999286
 20
-14.30367582421129
 30
1705.0
 10
33.28923627721925
 20
-14.611277868986198
 30
1705.0
 10
33.289530185893625
 20
-14.918882449669487
 30
1705.0
 10
33.28982411314406
 20
-15.226489386724428
 30
1705.0
 10
33.29011809495507
 20
-15.534098507283659
 30
1705.0
 10
33.29177348652628
 20
-17.265620937870082
 30
1705.0
 10
33.293136913045984
 20
-18.689574700039756
 30
1705.0
 10
33.294505670067636
 20
-20.113557910138237
 30
1705.0
 10
33.29588131843369
 20
-21.537563356433452
 30
1705.0
 10
33.29726498292859
 20
-22.96158606197987
 30
1705.0
 10
33.29865758591681
 20
-24.385622584737874
 30
1705.0
 10
33.3000597607761
 20
-25.809671245196423
 30
1705.0
 10
33.30393281669655
 20
-29.714859000053465
 30
1705.0
 10
33.30642438265811
 20
-32.196017626194006
 30
1705.0
 10
33.30894981551904
 20
-34.67719878441653
 30
1705.0
 10
33.31151115865514
 20
-37.15839736966082
 30
1705.0
 10
33.314110211528615
 20
-39.63960975637455
 30
1705.0
 10
33.31674870916316
 20
-42.120833327848885
 30
1705.0
 10
33.3194283106154
 20
-44.60206649423127
 30
1705.0
 10
33.32533945552388
 20
-49.98950177496898
 30
1705.0
 10
33.32858692775075
 20
-52.89570634060431
 30
1705.0
 10
33.3318959365839
 20
-55.80191976138122
 30
1705.0
 10
33.335269343810204
 20
-58.708140333778104
 30
1705.0
 10
33.33871020001736
 20
-61.61436672370768
 30
1705.0
 10
33.34222183472052
 20
-64.52059784667216
 30
1705.0
 10
33.345807942291266
 20
-67.42683280588041
 30
1705.0
 10
33.35247220593379
 20
-72.71180120856941
 30
1705.0
 10
33.35552447953277
 20
-75.09053356977513
 30
1705.0
 10
33.35863159555963
 20
-77.46926754151607
 30
1705.0
 10
33.36179606629002
 20
-79.84800273046687
 30
1705.0
 10
33.365020732979175
 20
-82.22673877160084
 30
1705.0
 10
33.36830869363971
 20
-84.60547531938582
 30
1705.0
 10
33.371663230819564
 20
-86.98421203897995
 30
1705.0
 10
33.37863146412895
 20
-91.82449525882306
 30
1705.0
 10
33.38224885501066
 20
-94.28604173966048
 30
1705.0
 10
33.38593587045173
 20
-96.74758768245935
 30
1705.0
 10
33.389688917829524
 20
-99.20913272399207
 30
1705.0
 10
33.39350479107984
 20
-101.67067648412858
 30
1705.0
 10
33.39738060830443
 20
-104.13221855468133
 30
1705.0
 10
33.40131374937871
 20
-106.59375848825016
 30
1705.0
 10
33.40997023148149
 20
-111.93679196719006
 30
1705.0
 10
33.41471390829238
 20
-114.81828444754156
 30
1705.0
 10
33.419528964407924
 20
-117.69977251329811
 30
1705.0
 10
33.42441193786395
 20
-120.58125523887925
 30
1705.0
 10
33.42935969389984
 20
-123.4627314875051
 30
1705.0
 10
33.434369343849525
 20
-126.34419984286228
 30
1705.0
 10
33.43943815333981
 20
-129.22565847287737
 30
1705.0
 10
33.44878928987613
 20
-134.48288642132292
 30
1705.0
 10
33.45305353373431
 20
-136.8586590765643
 30
1705.0
 10
33.45735465475903
 20
-139.23442197302933
 30
1705.0
 10
33.46169118579074
 20
-141.61017354302038
 30
1705.0
 10
33.46606156112321
 20
-143.98591119879987
 30
1705.0
 10
33.470464129210356
 20
-146.36163134903876
 30
1705.0
 10
33.47489697609778
 20
-148.73732893462707
 30
1705.0
 10
33.481976140970545
 20
-152.50792437976602
 30
1705.0
 10
33.48460451586443
 20
-153.9028409619974
 30
1705.0
 10
33.48724171927633
 20
-155.29774477316676
 30
1705.0
 10
33.48988710469145
 20
-156.69263418640452
 30
1705.0
 10
33.49253968771047
 20
-158.08750550245432
 30
1705.0
 10
33.4951982657754
 20
-159.4823532985405
 30
1705.0
 10
33.49786115937951
 20
-160.87716965700403
 30
1705.0
 10
33.50155933938853
 20
-162.8136804307847
 30
1705.0
 10
33.50256594997075
 20
-163.34071491577822
 30
1705.0
 10
33.503544666650214
 20
-163.85326086883927
 30
1705.0
 10
33.50449641664611
 20
-164.35154201126628
 30
1705.0
 10
33.50542112401376
 20
-164.83578654036438
 30
1705.0
 10
33.506319606292756
 20
-165.30622869109624
 30
1705.0
 10
33.50719213914327
 20
-165.76310763832538
 30
1705.0
 10
33.50885641629147
 20
-166.63455524149305
 30
1705.0
 10
33.50967357105876
 20
-167.06243323293154
 30
1705.0
 10
33.51049070652054
 20
-167.4903011156347
 30
1705.0
 10
33.511307820294896
 20
-167.9181576423791
 30
1705.0
 10
33.51212490928036
 20
-168.34600118919468
 30
1705.0
 10
33.51294196953497
 20
-168.77382969197316
 30
1705.0
 10
33.51375899605647
 20
-169.2016405314261
 30
1705.0
 10
33.51547985632975
 20
-170.10271614984725
 30
1705.0
 10
33.51638367348875
 20
-170.57597224049698
 30
1705.0
 10
33.51728743225691
 20
-171.04919775657982
 30
1705.0
 10
33.51819112422209
 20
-171.52238829331748
 30
1705.0
 10
33.519094730776686
 20
-171.99553410743457
 30
1705.0
 10
33.51999822378476
 20
-172.46862046642588
 30
1705.0
 10
33.520901562120166
 20
-172.9416258357969
 30
1705.0
 10
33.522293106241705
 20
-173.67026516772074
 30
1705.0
 10
33.52278145666167
 20
-173.925974863356
 30
1705.0
 10
33.52326972670387
 20
-174.18164247159024
 30
1705.0
 10
33.52375790571095
 20
-174.43726241212485
 30
1705.0
 10
33.524245966064285
 20
-174.69282022328284
 30
1705.0
 10
33.52473386520369
 20
-174.94829361967157
 30
1705.0
 10
33.525221540128605
 20
-175.20364961306092
 30
1705.0
 10
33.525976192772546
 20
-175.59880028762828
 30
1705.0
 10
33.52622920726189
 20
-175.73128355254318
 30
1705.0
 10
33.52646836788347
 20
-175.8565126651699
 30
1705.0
 10
33.52669412088187
 20
-175.97472128780768
 30
1705.0
 10
33.52690691250178
 20
-176.08614308275563
 30
1705.0
 10
33.527107188987834
 20
-176.19101171231293
 30
1705.0
 10
33.52729539658466
 20
-176.28956083877878
 30
1705.0
 10
33.527648566489184
 20
-176.47448741012582
 30
1705.0
 10
33.52781352879684
 20
-176.56086485500714
 30
1705.0
 10
33.52796731470457
 20
-176.64139012139537
 30
1705.0
 10
33.52811037045703
 20
-176.71629687158963
 30
1705.0
 10
33.528243142298834
 20
-176.78581876788917
 30
1705.0
 10
33.52836607647465
 20
-176.85018947259314
 30
1705.0
 10
33.5284796192291
 20
-176.90964264800073
 30
1705.0
 10
33.528671381454956
 20
-177.0100530467532
 30
1705.0
 10
33.528752334174776
 20
-177.0524414516805
 30
1705.0
 10
33.52882733320977
 20
-177.09171239243094
 30
1705.0
 10
33.52889663680333
 20
-177.12800109024263
 30
1705.0
 10
33.52896050319891
 20
-177.16144276635347
 30
1705.0
 10
33.52901919063993
 20
-177.19217264200145
 30
1705.0
 10
33.5290729573698
 20
-177.2203259384244
 30
1705.0
 10
33.52915643461549
 20
-177.26403623376544
 30
1705.0
 10
33.52918852298985
 20
-177.28083832525695
 30
1705.0
 10
33.52921841533251
 20
-177.29649053221954
 30
1705.0
 10
33.52924620022098
 20
-177.31103923553758
 30
1705.0
 10
33.529271966232756
 20
-177.32453081609594
 30
1705.0
 10
33.52929580194535
 20
-177.33701165477908
 30
1705.0
 10
33.52931779593625
 20
-177.3485281324717
 30
1705.0
 10
33.52936984382775
 20
-177.37578141198026
 30
1705.0
 10
33.52939732167974
 20
-177.39016934506915
 30
1705.0
 10
33.529420814060906
 20
-177.4024704087928
 30
1705.0
 10
33.52944066469325
 20
-177.4128645826188
 30
1705.0
 10
33.52945721729876
 20
-177.4215318460149
 30
1705.0
 10
33.52947081559947
 20
-177.42865217844883
 30
1705.0
 10
33.52948180331736
 20
-177.4344055593883
 30
1705.0
 10
33.52950523430008
 20
-177.4466744737044
 30
1705.0
 10
33.529555710712145
 20
-177.44636819533972
 30
1705.0
 10
33.52928998004967
 20
-177.44895325288266
 30
1705.0
 10
33.52995198253067
 20
-177.44992018407893
 30
1705.0
 10
33.52899956960021
 20
-177.45408080538155
 30
1705.0
 10
33.529891166223294
 20
-177.45168242522044
 30
1705.0
 10
33.52936868129523
 20
-177.45250743109955
 30
1705.0
 10
33.5295160861357
 20
-177.45235670406748
 30
1705.0
  0
ENDSEC
  0
SECTION
  2
OBJECTS
  0
DICTIONARY
  5
A
330
0
100
AcDbDictionary
281
1
  3
ACAD_COLOR
350
B
  3
ACAD_GROUP
350
C
  3
ACAD_LAYOUT
350
D
  3
ACAD_MATERIAL
350
E
  3
ACAD_MLEADERSTYLE
350
F
  3
ACAD_MLINESTYLE
350
10
  3
ACAD_PLOTSETTINGS
350
11
  3
ACAD_PLOTSTYLENAME
350
12
  3
ACAD_SCALELIST
350
14
  3
ACAD_TABLESTYLE
350
15
  3
ACAD_VISUALSTYLE
350
16
  3
EZDXF_META
350
2D
  0
DICTIONARY
  5
B
330
A
100
AcDbDictionary
281
1
  0
DICTIONARY
  5
C
330
A
100
AcDbDictionary
281
1
  0
DICTIONARY
  5
D
330
A
100
AcDbDictionary
281
1
  3
Model
350
1A
  3
Layout1
350
1E
  0
DICTIONARY
  5
E
330
A
100
AcDbDictionary
281
1
  3
ByBlock
350
1F
  3
ByLayer
350
20
  3
Global
350
21
  0
DICTIONARY
  5
F
330
A
100
AcDbDictionary
281
1
  3
Standard
350
2C
  0
DICTIONARY
  5
10
330
A
100
AcDbDictionary
281
1
  3
Standard
350
22
  0
DICTIONARY
  5
11
330
A
100
AcDbDictionary
281
1
  0
ACDBDICTIONARYWDFLT
  5
12
330
A
100
AcDbDictionary
281
1
  3
Normal
350
13
100
AcDbDictionaryWithDefault
340
13
  0
ACDBPLACEHOLDER
  5
13
330
12
  0
DICTIONARY
  5
14
330
A
100
AcDbDictionary
281
1
  0
DICTIONARY
  5
15
330
A
100
AcDbDictionary
281
1
  0
DICTIONARY
  5
16
330
A
100
AcDbDictionary
281
1
  0
LAYOUT
  5
1A
330
D
100
AcDbPlotSettings
  1

  2
Adobe PDF
  4
A3
  6

 40
7.5
 41
20.0
 42
7.5
 43
20.0
 44
420.0
 45
297.0
 46
0.0
 47
0.0
 48
0.0
 49
0.0
140
0.0
141
0.0
142
1.0
143
1.0
 70
1024
 72
1
 73
1
 74
5
  7

 75
16
 76
0
 77
2
 78
300
147
1.0
148
0.0
149
0.0
100
AcDbLayout
  1
Model
 70
1
 71
0
 10
0.0
 20
0.0
 11
420.0
 21
297.0
 12
0.0
 22
0.0
 32
0.0
 14
1e+20
 24
1e+20
 34
1e+20
 15
-1e+20
 25
-1e+20
 35
-1e+20
146
0.0
 13
0.0
 23
0.0
 33
0.0
 16
1.0
 26
0.0
 36
0.0
 17
0.0
 27
1.0
 37
0.0
 76
1
330
17
  0
LAYOUT
  5
1E
330
D
100
AcDbPlotSettings
  1

  2
Adobe PDF
  4
A3
  6

 40
7.5
 41
20.0
 42
7.5
 43
20.0
 44
420.0
 45
297.0
 46
0.0
 47
0.0
 48
0.0
 49
0.0
140
0.0
141
0.0
142
1.0
143
1.0
 70
0
 72
1
 73
1
 74
5
  7

 75
16
 76
0
 77
2
 78
300
147
1.0
148
0.0
149
0.0
100
AcDbLayout
  1
Layout1
 70
1
 71
1
 10
0.0
 20
0.0
 11
420.0
 21
297.0
 12
0.0
 22
0.0
 32
0.0
 14
1e+20
 24
1e+20
 34
1e+20
 15
-1e+20
 25
-1e+20
 35
-1e+20
146
0.0
 13
0.0
 23
0.0
 33
0.0
 16
1.0
 26
0.0
 36
0.0
 17
0.0
 27
1.0
 37
0.0
 76
1
330
1B
  0
MATERIAL
  5
1F
102
{ACAD_REACTORS
330
E
102
}
330
E
100
AcDbMaterial
  1
ByBlock
  2

 70
0
 40
1.0
 71
1
 41
1.0
 91
-1023410177
 42
1.0
 72
1
  3

 73
1
 74
1
 75
1
 44
0.5
 73
0
 45
1.0
 46
1.0
 77
1
  4

 78
1
 79
1
170
1
 48
1.0
171
1
  6

172
1
173
1
174
1
140
1.0
141
1.0
175
1
  7

176
1
177
1
178
1
143
1.0
179
1
  8

270
1
271
1
272
1
145
1.0
146
1.0
273
1
  9

274
1
275
1
276
1
 42
1.0
 72
1
  3

 73
1
 74
1
 75
1
 94
63
  0
MATERIAL
  5
20
102
{ACAD_REACTORS
330
E
102
}
330
E
100
AcDbMaterial
  1
ByLayer
  2

 70
0
 40
1.0
 71
1
 41
1.0
 91
-1023410177
 42
1.0
 72
1
  3

 73
1
 74
1
 75
1
 44
0.5
 73
0
 45
1.0
 46
1.0
 77
1
  4

 78
1
 79
1
170
1
 48
1.0
171
1
  6

172
1
173
1
174
1
140
1.0
141
1.0
175
1
  7

176
1
177
1
178
1
143
1.0
179
1
  8

270
1
271
1
272
1
145
1.0
146
1.0
273
1
  9

274
1
275
1
276
1
 42
1.0
 72
1
  3

 73
1
 74
1
 75
1
 94
63
  0
MATERIAL
  5
21
102
{ACAD_REACTORS
330
E
102
}
330
E
100
AcDbMaterial
  1
Global
  2

 70
0
 40
1.0
 71
1
 41
1.0
 91
-1023410177
 42
1.0
 72
1
  3

 73
1
 74
1
 75
1
 44
0.5
 73
0
 45
1.0
 46
1.0
 77
1
  4

 78
1
 79
1
170
1
 48
1.0
171
1
  6

172
1
173
1
174
1
140
1.0
141
1.0
175
1
  7

176
1
177
1
178
1
143
1.0
179
1
  8

270
1
271
1
272
1
145
1.0
146
1.0
273
1
  9

274
1
275
1
276
1
 42
1.0
 72
1
  3

 73
1
 74
1
 75
1
 94
63
  0
MLINESTYLE
  5
22
102
{ACAD_REACTORS
330
10
102
}
330
10
100
AcDbMlineStyle
  2
Standard
 70
0
  3

 62
256
 51
90.0
 52
90.0
 71
2
 49
0.5
 62
256
  6
BYLAYER
 49
-0.5
 62
256
  6
BYLAYER
  0
MLEADERSTYLE
  5
2C
102
{ACAD_REACTORS
330
F
102
}
330
F
100
AcDbMLeaderStyle
179
2
170
2
171
1
172
0
 90
2
 40
0.0
 41
0.0
173
1
 91
-1056964608
 92
-2
290
1
 42
2.0
291
1
 43
8.0
  3
Standard
 44
4.0
300

342
29
174
1
175
1
176
0
178
1
 93
-1056964608
 45
4.0
292
0
297
0
 46
4.0
 94
-1056964608
 47
1.0
 49
1.0
140
1.0
294
1
141
0.0
177
0
142
1.0
295
0
296
0
143
3.75
271
0
272
9
273
9
  0
DICTIONARY
  5
2D
330
A
100
AcDbDictionary
280
1
281
1
  3
CREATED_BY_EZDXF
350
2E
  3
WRITTEN_BY_EZDXF
350
70
  0
DICTIONARYVAR
  5
2E
330
2D
100
DictionaryVariables
280
0
  1
0.17 @ 2022-02-15T16:45:39.014315+00:00
  0
DICTIONARYVAR
  5
70
330
2D
100
DictionaryVariables
280
0
  1
0.17 @ 2022-02-15T16:45:39.093949+00:00
  0
ENDSEC
  0
EOF
