  0
SECTION
  2
HEADER
  9
$ACADVER
  1
AC1027
  9
$ACADMAINTVER
 70
105
  9
$DWGCODEPAGE
  3
ANSI_1252
  9
$LASTSAVEDBY
  1
ezdxf
  9
$REQUIREDVERSIONS
160
0
  9
$INSBASE
 10
0.0
 20
0.0
 30
0.0
  9
$EXTMIN
 10
1e+20
 20
1e+20
 30
1e+20
  9
$EXTMAX
 10
-1e+20
 20
-1e+20
 30
-1e+20
  9
$LIMMIN
 10
0.0
 20
0.0
  9
$LIMMAX
 10
420.0
 20
297.0
  9
$ORTHOMODE
 70
0
  9
$REGENMODE
 70
1
  9
$FILLMODE
 70
1
  9
$QTEXTMODE
 70
0
  9
$MIRRTEXT
 70
1
  9
$LTSCALE
 40
1.0
  9
$ATTMODE
 70
1
  9
$TEXTSIZE
 40
2.5
  9
$TRACEWID
 40
1.0
  9
$TEXTSTYLE
  7
Standard
  9
$CLAYER
  8
0
  9
$CELTYPE
  6
ByLayer
  9
$CECOLOR
 62
256
  9
$CELTSCALE
 40
1.0
  9
$DISPSILH
 70
0
  9
$DIMSCALE
 40
1.0
  9
$DIMASZ
 40
2.5
  9
$DIMEXO
 40
0.625
  9
$DIMDLI
 40
3.75
  9
$DIMRND
 40
0.0
  9
$DIMDLE
 40
0.0
  9
$DIMEXE
 40
1.25
  9
$DIMTP
 40
0.0
  9
$DIMTM
 40
0.0
  9
$DIMTXT
 40
2.5
  9
$DIMCEN
 40
2.5
  9
$DIMTSZ
 40
0.0
  9
$DIMTOL
 70
0
  9
$DIMLIM
 70
0
  9
$DIMTIH
 70
0
  9
$DIMTOH
 70
0
  9
$DIMSE1
 70
0
  9
$DIMSE2
 70
0
  9
$DIMTAD
 70
1
  9
$DIMZIN
 70
8
  9
$DIMBLK
  1

  9
$DIMASO
 70
1
  9
$DIMSHO
 70
1
  9
$DIMPOST
  1

  9
$DIMAPOST
  1

  9
$DIMALT
 70
0
  9
$DIMALTD
 70
3
  9
$DIMALTF
 40
0.03937007874
  9
$DIMLFAC
 40
1.0
  9
$DIMTOFL
 70
1
  9
$DIMTVP
 40
0.0
  9
$DIMTIX
 70
0
  9
$DIMSOXD
 70
0
  9
$DIMSAH
 70
0
  9
$DIMBLK1
  1

  9
$DIMBLK2
  1

  9
$DIMSTYLE
  2
ISO-25
  9
$DIMCLRD
 70
0
  9
$DIMCLRE
 70
0
  9
$DIMCLRT
 70
0
  9
$DIMTFAC
 40
1.0
  9
$DIMGAP
 40
0.625
  9
$DIMJUST
 70
0
  9
$DIMSD1
 70
0
  9
$DIMSD2
 70
0
  9
$DIMTOLJ
 70
0
  9
$DIMTZIN
 70
8
  9
$DIMALTZ
 70
0
  9
$DIMALTTZ
 70
0
  9
$DIMUPT
 70
0
  9
$DIMDEC
 70
2
  9
$DIMTDEC
 70
2
  9
$DIMALTU
 70
2
  9
$DIMALTTD
 70
3
  9
$DIMTXSTY
  7
Standard
  9
$DIMAUNIT
 70
0
  9
$DIMADEC
 70
0
  9
$DIMALTRND
 40
0.0
  9
$DIMAZIN
 70
0
  9
$DIMDSEP
 70
44
  9
$DIMATFIT
 70
3
  9
$DIMFRAC
 70
0
  9
$DIMLDRBLK
  1

  9
$DIMLUNIT
 70
2
  9
$DIMLWD
 70
-2
  9
$DIMLWE
 70
-2
  9
$DIMTMOVE
 70
0
  9
$DIMFXL
 40
1.0
  9
$DIMFXLON
 70
0
  9
$DIMJOGANG
 40
0.785398163397
  9
$DIMTFILL
 70
0
  9
$DIMTFILLCLR
 70
0
  9
$DIMARCSYM
 70
0
  9
$DIMLTYPE
  6

  9
$DIMLTEX1
  6

  9
$DIMLTEX2
  6

  9
$DIMTXTDIRECTION
 70
0
  9
$LUNITS
 70
2
  9
$LUPREC
 70
4
  9
$SKETCHINC
 40
1.0
  9
$FILLETRAD
 40
10.0
  9
$AUNITS
 70
0
  9
$AUPREC
 70
2
  9
$MENU
  1
.
  9
$ELEVATION
 40
0.0
  9
$PELEVATION
 40
0.0
  9
$THICKNESS
 40
0.0
  9
$LIMCHECK
 70
0
  9
$CHAMFERA
 40
0.0
  9
$CHAMFERB
 40
0.0
  9
$CHAMFERC
 40
0.0
  9
$CHAMFERD
 40
0.0
  9
$SKPOLY
 70
0
  9
$TDCREATE
 40
2459626.7400462963
  9
$TDUCREATE
 40
2458532.153996898
  9
$TDUPDATE
 40
2459626.7400462963
  9
$TDUUPDATE
 40
2458532.1544311
  9
$TDINDWG
 40
0.0
  9
$TDUSRTIMER
 40
0.0
  9
$USRTIMER
 70
1
  9
$ANGBASE
 50
0.0
  9
$ANGDIR
 70
0
  9
$PDMODE
 70
0
  9
$PDSIZE
 40
0.0
  9
$PLINEWID
 40
0.0
  9
$SPLFRAME
 70
0
  9
$SPLINETYPE
 70
6
  9
$SPLINESEGS
 70
8
  9
$HANDSEED
  5
71
  9
$SURFTAB1
 70
6
  9
$SURFTAB2
 70
6
  9
$SURFTYPE
 70
6
  9
$SURFU
 70
6
  9
$SURFV
 70
6
  9
$UCSBASE
  2

  9
$UCSNAME
  2

  9
$UCSORG
 10
0.0
 20
0.0
 30
0.0
  9
$UCSXDIR
 10
1.0
 20
0.0
 30
0.0
  9
$UCSYDIR
 10
0.0
 20
1.0
 30
0.0
  9
$UCSORTHOREF
  2

  9
$UCSORTHOVIEW
 70
0
  9
$UCSORGTOP
 10
0.0
 20
0.0
 30
0.0
  9
$UCSORGBOTTOM
 10
0.0
 20
0.0
 30
0.0
  9
$UCSORGLEFT
 10
0.0
 20
0.0
 30
0.0
  9
$UCSORGRIGHT
 10
0.0
 20
0.0
 30
0.0
  9
$UCSORGFRONT
 10
0.0
 20
0.0
 30
0.0
  9
$UCSORGBACK
 10
0.0
 20
0.0
 30
0.0
  9
$PUCSBASE
  2

  9
$PUCSNAME
  2

  9
$PUCSORG
 10
0.0
 20
0.0
 30
0.0
  9
$PUCSXDIR
 10
1.0
 20
0.0
 30
0.0
  9
$PUCSYDIR
 10
0.0
 20
1.0
 30
0.0
  9
$PUCSORTHOREF
  2

  9
$PUCSORTHOVIEW
 70
0
  9
$PUCSORGTOP
 10
0.0
 20
0.0
 30
0.0
  9
$PUCSORGBOTTOM
 10
0.0
 20
0.0
 30
0.0
  9
$PUCSORGLEFT
 10
0.0
 20
0.0
 30
0.0
  9
$PUCSORGRIGHT
 10
0.0
 20
0.0
 30
0.0
  9
$PUCSORGFRONT
 10
0.0
 20
0.0
 30
0.0
  9
$PUCSORGBACK
 10
0.0
 20
0.0
 30
0.0
  9
$USERI1
 70
0
  9
$USERI2
 70
0
  9
$USERI3
 70
0
  9
$USERI4
 70
0
  9
$USERI5
 70
0
  9
$USERR1
 40
0.0
  9
$USERR2
 40
0.0
  9
$USERR3
 40
0.0
  9
$USERR4
 40
0.0
  9
$USERR5
 40
0.0
  9
$WORLDVIEW
 70
1
  9
$SHADEDGE
 70
3
  9
$SHADEDIF
 70
70
  9
$TILEMODE
 70
1
  9
$MAXACTVP
 70
64
  9
$PINSBASE
 10
0.0
 20
0.0
 30
0.0
  9
$PLIMCHECK
 70
0
  9
$PEXTMIN
 10
1e+20
 20
1e+20
 30
1e+20
  9
$PEXTMAX
 10
-1e+20
 20
-1e+20
 30
-1e+20
  9
$PLIMMIN
 10
0.0
 20
0.0
  9
$PLIMMAX
 10
420.0
 20
297.0
  9
$UNITMODE
 70
0
  9
$VISRETAIN
 70
1
  9
$PLINEGEN
 70
0
  9
$PSLTSCALE
 70
1
  9
$TREEDEPTH
 70
3020
  9
$CMLSTYLE
  2
Standard
  9
$CMLJUST
 70
0
  9
$CMLSCALE
 40
20.0
  9
$PROXYGRAPHICS
 70
1
  9
$MEASUREMENT
 70
1
  9
$CELWEIGHT
370
-1
  9
$ENDCAPS
280
0
  9
$JOINSTYLE
280
0
  9
$LWDISPLAY
290
0
  9
$INSUNITS
 70
6
  9
$HYPERLINKBASE
  1

  9
$STYLESHEET
  1

  9
$XEDIT
290
1
  9
$CEPSNTYPE
380
0
  9
$PSTYLEMODE
290
1
  9
$FINGERPRINTGUID
  2
{F4FB18E0-341E-4EE9-963B-46FFC04A1AE9}
  9
$VERSIONGUID
  2
{D01D47EE-91E4-4A41-BCFB-33710B480BCA}
  9
$EXTNAMES
290
1
  9
$PSVPSCALE
 40
0.0
  9
$OLESTARTUP
290
0
  9
$SORTENTS
280
127
  9
$INDEXCTL
280
0
  9
$HIDETEXT
280
1
  9
$XCLIPFRAME
280
0
  9
$HALOGAP
280
0
  9
$OBSCOLOR
 70
257
  9
$OBSLTYPE
280
0
  9
$INTERSECTIONDISPLAY
280
0
  9
$INTERSECTIONCOLOR
 70
257
  9
$DIMASSOC
280
2
  9
$PROJECTNAME
  1

  9
$CAMERADISPLAY
290
0
  9
$LENSLENGTH
 40
50.0
  9
$CAMERAHEIGHT
 40
0.0
  9
$STEPSPERSEC
 40
24.0
  9
$STEPSIZE
 40
100.0
  9
$3DDWFPREC
 40
2.0
  9
$PSOLWIDTH
 40
0.005
  9
$PSOLHEIGHT
 40
0.08
  9
$LOFTANG1
 40
1.570796326795
  9
$LOFTANG2
 40
1.570796326795
  9
$LOFTMAG1
 40
0.0
  9
$LOFTMAG2
 40
0.0
  9
$LOFTPARAM
 70
7
  9
$LOFTNORMALS
280
1
  9
$LATITUDE
 40
37.795
  9
$LONGITUDE
 40
-122.394
  9
$NORTHDIRECTION
 40
0.0
  9
$TIMEZONE
 70
-8000
  9
$LIGHTGLYPHDISPLAY
280
1
  9
$TILEMODELIGHTSYNCH
280
1
  9
$CMATERIAL
347
20
  9
$SOLIDHIST
280
0
  9
$SHOWHIST
280
1
  9
$DWFFRAME
280
2
  9
$DGNFRAME
280
2
  9
$REALWORLDSCALE
290
1
  9
$INTERFERECOLOR
 62
256
  9
$CSHADOW
280
0
  9
$SHADOWPLANELOCATION
 40
0.0
  0
ENDSEC
  0
SECTION
  2
CLASSES
  0
CLASS
  1
ACDBDICTIONARYWDFLT
  2
AcDbDictionaryWithDefault
  3
ObjectDBX Classes
 90
0
 91
0
280
0
281
0
  0
CLASS
  1
SUN
  2
AcDbSun
  3
SCENEOE
 90
1153
 91
0
280
0
281
0
  0
CLASS
  1
VISUALSTYLE
  2
AcDbVisualStyle
  3
ObjectDBX Classes
 90
4095
 91
0
280
0
281
0
  0
CLASS
  1
MATERIAL
  2
AcDbMaterial
  3
ObjectDBX Classes
 90
1153
 91
0
280
0
281
0
  0
CLASS
  1
SCALE
  2
AcDbScale
  3
ObjectDBX Classes
 90
1153
 91
0
280
0
281
0
  0
CLASS
  1
TABLESTYLE
  2
AcDbTableStyle
  3
ObjectDBX Classes
 90
4095
 91
0
280
0
281
0
  0
CLASS
  1
MLEADERSTYLE
  2
AcDbMLeaderStyle
  3
ACDB_MLEADERSTYLE_CLASS
 90
4095
 91
0
280
0
281
0
  0
CLASS
  1
DICTIONARYVAR
  2
AcDbDictionaryVar
  3
ObjectDBX Classes
 90
0
 91
0
280
0
281
0
  0
CLASS
  1
CELLSTYLEMAP
  2
AcDbCellStyleMap
  3
ObjectDBX Classes
 90
1152
 91
0
280
0
281
0
  0
CLASS
  1
MENTALRAYRENDERSETTINGS
  2
AcDbMentalRayRenderSettings
  3
SCENEOE
 90
1024
 91
0
280
0
281
0
  0
CLASS
  1
ACDBDETAILVIEWSTYLE
  2
AcDbDetailViewStyle
  3
ObjectDBX Classes
 90
1025
 91
0
280
0
281
0
  0
CLASS
  1
ACDBSECTIONVIEWSTYLE
  2
AcDbSectionViewStyle
  3
ObjectDBX Classes
 90
1025
 91
0
280
0
281
0
  0
CLASS
  1
RASTERVARIABLES
  2
AcDbRasterVariables
  3
ISM
 90
0
 91
0
280
0
281
0
  0
CLASS
  1
ACDBPLACEHOLDER
  2
AcDbPlaceHolder
  3
ObjectDBX Classes
 90
0
 91
0
280
0
281
0
  0
CLASS
  1
LAYOUT
  2
AcDbLayout
  3
ObjectDBX Classes
 90
0
 91
0
280
0
281
0
  0
ENDSEC
  0
SECTION
  2
TABLES
  0
TABLE
  2
VPORT
  5
8
330
0
100
AcDbSymbolTable
 70
1
  0
VPORT
  5
23
330
8
100
AcDbSymbolTableRecord
100
AcDbViewportTableRecord
  2
*Active
 70
0
 10
0.0
 20
0.0
 11
1.0
 21
1.0
 12
344.2
 22
148.5
 13
0.0
 23
0.0
 14
0.5
 24
0.5
 15
0.5
 25
0.5
 16
0.0
 26
0.0
 36
1.0
 17
0.0
 27
0.0
 37
0.0
 40
297.0
 41
1.34
 42
50.0
 43
0.0
 44
0.0
 50
0.0
 51
0.0
 71
0
 72
1000
 73
1
 74
3
 75
0
 76
0
 77
0
 78
0
281
0
 65
0
146
0.0
  0
ENDTAB
  0
TABLE
  2
LTYPE
  5
2
330
0
100
AcDbSymbolTable
 70
3
  0
LTYPE
  5
24
330
2
100
AcDbSymbolTableRecord
100
AcDbLinetypeTableRecord
  2
ByBlock
 70
0
  3

 72
65
 73
0
 40
0.0
  0
LTYPE
  5
25
330
2
100
AcDbSymbolTableRecord
100
AcDbLinetypeTableRecord
  2
ByLayer
 70
0
  3

 72
65
 73
0
 40
0.0
  0
LTYPE
  5
26
330
2
100
AcDbSymbolTableRecord
100
AcDbLinetypeTableRecord
  2
Continuous
 70
0
  3

 72
65
 73
0
 40
0.0
  0
ENDTAB
  0
TABLE
  2
LAYER
  5
1
330
0
100
AcDbSymbolTable
 70
2
  0
LAYER
  5
27
330
1
100
AcDbSymbolTableRecord
100
AcDbLayerTableRecord
  2
0
 70
0
 62
7
  6
Continuous
370
-3
390
13
347
21
  0
LAYER
  5
28
330
1
100
AcDbSymbolTableRecord
100
AcDbLayerTableRecord
  2
Defpoints
 70
0
 62
7
  6
Continuous
290
0
370
-3
390
13
347
21
  0
ENDTAB
  0
TABLE
  2
STYLE
  5
5
330
0
100
AcDbSymbolTable
 70
1
  0
STYLE
  5
29
330
5
100
AcDbSymbolTableRecord
100
AcDbTextStyleTableRecord
  2
Standard
 70
0
 40
0.0
 41
1.0
 50
0.0
 71
0
 42
2.5
  3
txt
  4

  0
ENDTAB
  0
TABLE
  2
VIEW
  5
7
330
0
100
AcDbSymbolTable
 70
0
  0
ENDTAB
  0
TABLE
  2
UCS
  5
6
330
0
100
AcDbSymbolTable
 70
0
  0
ENDTAB
  0
TABLE
  2
APPID
  5
3
330
0
100
AcDbSymbolTable
 70
3
  0
APPID
  5
2A
330
3
100
AcDbSymbolTableRecord
100
AcDbRegAppTableRecord
  2
ACAD
 70
0
  0
APPID
  5
6E
330
3
100
AcDbSymbolTableRecord
100
AcDbRegAppTableRecord
  2
HATCHBACKGROUNDCOLOR
 70
0
  0
APPID
  5
6F
330
3
100
AcDbSymbolTableRecord
100
AcDbRegAppTableRecord
  2
EZDXF
 70
0
  0
ENDTAB
  0
TABLE
  2
DIMSTYLE
  5
4
330
0
100
AcDbSymbolTable
 70
1
100
AcDbDimStyleTable
  0
DIMSTYLE
105
2B
330
4
100
AcDbSymbolTableRecord
100
AcDbDimStyleTableRecord
  2
Standard
 70
0
 40
1.0
 41
2.5
 42
0.625
 43
3.75
 44
1.25
 45
0.0
 46
0.0
 47
0.0
 48
0.0
 49
2.5
140
2.5
141
2.5
142
0.0
143
0.03937007874
144
1.0
145
0.0
146
1.0
147
0.625
148
0.0
 69
0
 70
0
 71
0
 72
0
 73
0
 74
0
 75
0
 76
0
 77
1
 78
8
 79
0
170
0
171
3
172
1
173
0
174
0
175
0
176
0
177
0
178
0
179
0
271
0
272
2
273
2
274
3
275
0
276
0
277
2
278
44
279
0
280
0
281
0
282
0
283
0
284
8
285
0
286
0
288
0
289
3
290
0
371
-2
372
-2
  0
ENDTAB
  0
TABLE
  2
BLOCK_RECORD
  5
9
330
0
100
AcDbSymbolTable
 70
2
  0
BLOCK_RECORD
  5
17
330
9
100
AcDbSymbolTableRecord
100
AcDbBlockTableRecord
  2
*Model_Space
340
1A
 70
0
280
1
281
0
  0
BLOCK_RECORD
  5
1B
330
9
100
AcDbSymbolTableRecord
100
AcDbBlockTableRecord
  2
*Paper_Space
340
1E
 70
0
280
1
281
0
  0
ENDTAB
  0
ENDSEC
  0
SECTION
  2
BLOCKS
  0
BLOCK
  5
18
330
17
100
AcDbEntity
  8
0
100
AcDbBlockBegin
  2
*Model_Space
 70
0
 10
0.0
 20
0.0
 30
0.0
  3
*Model_Space
  1

  0
ENDBLK
  5
19
330
17
100
AcDbEntity
  8
0
100
AcDbBlockEnd
  0
BLOCK
  5
1C
330
1B
100
AcDbEntity
  8
0
100
AcDbBlockBegin
  2
*Paper_Space
 70
0
 10
0.0
 20
0.0
 30
0.0
  3
*Paper_Space
  1

  0
ENDBLK
  5
1D
330
1B
100
AcDbEntity
  8
0
100
AcDbBlockEnd
  0
ENDSEC
  0
SECTION
  2
ENTITIES
  0
SPLINE
  5
2F
330
17
100
AcDbEntity
  8
0
100
AcDbSpline
 70
0
 71
8
 72
60
 73
51
 74
0
 40
0.0
 40
0.0
 40
0.0
 40
0.0
 40
0.0
 40
0.0
 40
0.0
 40
0.0
 40
0.0
 40
0.0561239075443067
 40
0.0561239075443067
 40
0.0561239075443067
 40
0.0561239075443067
 40
0.0561239075443067
 40
0.0561239075443067
 40
0.0561239075443067
 40
0.17810046361543713
 40
0.17810046361543713
 40
0.17810046361543713
 40
0.17810046361543713
 40
0.17810046361543713
 40
0.17810046361543713
 40
0.17810046361543713
 40
0.22072850903713984
 40
0.22072850903713984
 40
0.22072850903713984
 40
0.22072850903713984
 40
0.22072850903713984
 40
0.22072850903713984
 40
0.22072850903713984
 40
0.26868540455372925
 40
0.26868540455372925
 40
0.26868540455372925
 40
0.26868540455372925
 40
0.26868540455372925
 40
0.26868540455372925
 40
0.26868540455372925
 40
0.4312650443084606
 40
0.4312650443084606
 40
0.4312650443084606
 40
0.4312650443084606
 40
0.4312650443084606
 40
0.4312650443084606
 40
0.4312650443084606
 40
0.707287986136767
 40
0.707287986136767
 40
0.707287986136767
 40
0.707287986136767
 40
0.707287986136767
 40
0.707287986136767
 40
0.707287986136767
 40
1.0
 40
1.0
 40
1.0
 40
1.0
 40
1.0
 40
1.0
 40
1.0
 40
1.0
 40
1.0
 10
55.8887507992407
 20
183.89999999759993
 30
1731.0
 10
55.732779470906365
 20
183.9627544371037
 30
1731.0
 10
55.57518439062522
 20
184.02144970768458
 30
1731.0
 10
55.416056285555285
 20
184.075954784204
 30
1731.0
 10
55.25549804088135
 20
184.12615236584668
 30
1731.0
 10
55.093625673924095
 20
184.171941715435
 30
1731.0
 10
54.93056930824927
 20
184.21324149874292
 30
1731.0
 10
54.766474147776826
 20
184.24999262381021
 30
1731.0
 10
54.242959034788285
 20
184.35207420112002
 30
1731.0
 10
53.88010008774125
 20
184.40037579901846
 30
1731.0
 10
53.5146835161264
 20
184.42665740613245
 30
1731.0
 10
53.1482810923035
 20
184.43122452581582
 30
1731.0
 10
52.78228112080054
 20
184.4149225032892
 30
1731.0
 10
52.417890651273446
 20
184.378977580575
 30
1731.0
 10
52.05613623824019
 20
184.32485313567523
 30
1731.0
 10
51.57265494682372
 20
184.22940186262935
 30
1731.0
 10
51.44757190249809
 20
184.20259510172613
 30
1731.0
 10
51.32261797836736
 20
184.17374393589745
 30
1731.0
 10
51.197797038187105
 20
184.142891477759
 30
1731.0
 10
51.07311294571317
 20
184.11008083992752
 30
1731.0
 10
50.94856956470161
 20
184.0753551350202
 30
1731.0
 10
50.82417075890873
 20
184.03875747565536
 30
1731.0
 10
50.56013772552905
 20
183.95710085012794
 30
1731.0
 10
50.42054509199017
 20
183.91156534905542
 30
1731.0
 10
50.281145221334285
 20
183.86376607133258
 30
1731.0
 10
50.14194340020319
 20
183.81373346226937
 30
1731.0
 10
50.00294627575524
 20
183.76149144432642
 30
1731.0
 10
49.86416065940011
 20
183.70706204905392
 30
1731.0
 10
49.725592330533516
 20
183.65047004903047
 30
1731.0
 10
49.11823022025914
 20
183.3926713951478
 30
1731.0
 10
48.65851559708864
 20
183.17194996626415
 30
1731.0
 10
48.20829888116176
 20
182.93189467863817
 30
1731.0
 10
47.76761427611982
 20
182.6746340144143
 30
1731.0
 10
47.336356160081436
 20
182.4020711590998
 30
1731.0
 10
46.914296175501256
 20
182.11585407325182
 30
1731.0
 10
46.50109352764995
 20
181.81735803914782
 30
1731.0
 10
45.409049357539175
 20
180.98191955302826
 30
1731.0
 10
44.746550710187734
 20
180.4243238723271
 30
1731.0
 10
44.1065702150321
 20
179.84035789585246
 30
1731.0
 10
43.4874254584743
 20
179.2342468148912
 30
1731.0
 10
42.887643918072605
 20
178.6093379686723
 30
1731.0
 10
42.305836740373636
 20
177.96823214546868
 30
1731.0
 10
41.740666939894766
 20
177.3128164028289
 30
1731.0
 10
40.60767148065344
 20
175.9354248179145
 30
1731.0
 10
40.04205768123221
 20
175.21219208642663
 30
1731.0
 10
39.49257895908138
 20
174.4764427681876
 30
1731.0
 10
38.958187132906566
 20
173.72962099787503
 30
1731.0
 10
38.43803192062217
 20
172.97289583339006
 30
1731.0
 10
37.93140382087558
 20
172.20720287062662
 30
1731.0
 10
37.43771529340601
 20
171.43325851807992
 30
1731.0
 10
36.95648946069566
 20
170.6515698904194
 30
1731.0
  0
LINE
  5
30
330
17
100
AcDbEntity
  8
0
100
AcDbLine
 10
51.01771662285937
 20
183.9
 30
1731.0
 11
55.88875080020636
 21
183.9
 31
1731.0
  0
SPLINE
  5
31
330
17
100
AcDbEntity
  8
0
100
AcDbSpline
 70
0
 71
1
 72
4
 73
2
 74
0
 40
0.0
 40
0.0
 40
1.0
 40
1.0
 10
51.01771661347872
 20
183.90000060000014
 30
1731.0
 10
51.01771661347875
 20
180.0999993999999
 30
1731.0
  0
LINE
  5
32
330
17
100
AcDbEntity
  8
0
100
AcDbLine
 10
51.01771662285937
 20
180.1
 30
1731.0
 11
60.431072203809066
 21
180.1
 31
1731.0
  0
SPLINE
  5
33
330
17
100
AcDbEntity
  8
0
100
AcDbSpline
 70
0
 71
8
 72
53
 73
44
 74
0
 40
0.0
 40
0.0
 40
0.0
 40
0.0
 40
0.0
 40
0.0
 40
0.0
 40
0.0
 40
0.0
 40
0.24291573307649125
 40
0.24291573307649125
 40
0.24291573307649125
 40
0.24291573307649125
 40
0.24291573307649125
 40
0.24291573307649125
 40
0.24291573307649125
 40
0.38099834374019376
 40
0.38099834374019376
 40
0.38099834374019376
 40
0.38099834374019376
 40
0.38099834374019376
 40
0.38099834374019376
 40
0.38099834374019376
 40
0.5735656348814665
 40
0.5735656348814665
 40
0.5735656348814665
 40
0.5735656348814665
 40
0.5735656348814665
 40
0.5735656348814665
 40
0.5735656348814665
 40
0.7513321375935869
 40
0.7513321375935869
 40
0.7513321375935869
 40
0.7513321375935869
 40
0.7513321375935869
 40
0.7513321375935869
 40
0.7513321375935869
 40
0.9311507716128729
 40
0.9311507716128729
 40
0.9311507716128729
 40
0.9311507716128729
 40
0.9311507716128729
 40
0.9311507716128729
 40
0.9311507716128729
 40
1.0
 40
1.0
 40
1.0
 40
1.0
 40
1.0
 40
1.0
 40
1.0
 40
1.0
 40
1.0
 10
68.93109596063411
 20
157.89999999785695
 30
1731.0
 10
68.75067612989295
 20
158.64994673189864
 30
1731.0
 10
68.56687145963465
 20
159.39907818960205
 30
1731.0
 10
68.37948249981744
 20
160.14732692196117
 30
1731.0
 10
68.18828472571366
 20
160.89461360355978
 30
1731.0
 10
67.9930228410687
 20
161.6408455837071
 30
1731.0
 10
67.79340274343677
 20
162.38591485097513
 30
1731.0
 10
67.5890787154934
 20
163.12969477721737
 30
1731.0
 10
67.26057666680697
 20
164.2940096386448
 30
1731.0
 10
67.14127223209178
 20
164.71053168459252
 30
1731.0
 10
67.02172555473906
 20
165.12154400000077
 30
1731.0
 10
66.90194208750897
 20
165.52698943987787
 30
1731.0
 10
66.7819272831616
 20
165.92681085923127
 30
1731.0
 10
66.66168659445682
 20
166.32095111306754
 30
1731.0
 10
66.54122547415446
 20
166.70935305639244
 30
1731.0
 10
66.25225686225487
 20
167.6255350218048
 30
1731.0
 10
66.0803557601673
 20
168.15796184966644
 30
1731.0
 10
65.90453631263149
 20
168.68911840170267
 30
1731.0
 10
65.72474895871557
 20
169.21894972140205
 30
1731.0
 10
65.54059134095772
 20
169.74728192514465
 30
1731.0
 10
65.35192464292454
 20
170.27400902487113
 30
1731.0
 10
65.15839682133665
 20
170.79894946364857
 30
1731.0
 10
64.7762592428379
 20
171.80469217404473
 30
1731.0
 10
64.58841707133419
 20
172.2857733617788
 30
1731.0
 10
64.39590045819773
 20
172.76502053786874
 30
1731.0
 10
64.1984184946538
 20
173.24225928224223
 30
1731.0
 10
63.99565031036568
 20
173.71728079155852
 30
1731.0
 10
63.78723730517381
 20
174.18983856306198
 30
1731.0
 10
63.572771455049846
 20
174.6596433642992
 30
1731.0
 10
63.12823680703677
 20
175.59845733575787
 30
1731.0
 10
62.89803836690895
 20
176.06734741917404
 30
1731.0
 10
62.66068168510984
 20
176.53271233058334
 30
1731.0
 10
62.415614174085796
 20
176.99412913850242
 30
1731.0
 10
62.16222694929513
 20
177.45106313108482
 30
1731.0
 10
61.899835127098804
 20
177.9028568866655
 30
1731.0
 10
61.62764481674806
 20
178.3487116720964
 30
1731.0
 10
61.236375076582945
 20
178.95572681078366
 30
1731.0
 10
61.12647930149403
 20
179.1227620708229
 30
1731.0
 10
61.01496384699239
 20
179.2887175470926
 30
1731.0
 10
60.90177214005893
 20
179.45353577606346
 30
1731.0
 10
60.786846579339176
 20
179.6171511652966
 30
1731.0
 10
60.67012840117336
 20
179.77948988981007
 30
1731.0
 10
60.55155750118311
 20
179.94046975208963
 30
1731.0
 10
60.43107221141463
 20
180.10000000574416
 30
1731.0
  0
LINE
  5
34
330
17
100
AcDbEntity
  8
0
100
AcDbLine
 10
51.01771662285937
 20
157.9
 30
1731.0
 11
68.93109596954221
 21
157.9
 31
1731.0
  0
SPLINE
  5
35
330
17
100
AcDbEntity
  8
0
100
AcDbSpline
 70
0
 71
1
 72
4
 73
2
 74
0
 40
0.0
 40
0.0
 40
1.0
 40
1.0
 10
51.01771661347873
 20
157.90000060000042
 30
1731.0
 10
51.01771661347875
 20
154.09999939999918
 30
1731.0
  0
LINE
  5
36
330
17
100
AcDbEntity
  8
0
100
AcDbLine
 10
51.01771662285937
 20
154.1
 30
1731.0
 11
69.80800674538767
 21
154.1
 31
1731.0
  0
SPLINE
  5
37
330
17
100
AcDbEntity
  8
0
100
AcDbSpline
 70
0
 71
8
 72
32
 73
23
 74
0
 40
0.0
 40
0.0
 40
0.0
 40
0.0
 40
0.0
 40
0.0
 40
0.0
 40
0.0
 40
0.0
 40
0.4717497963505822
 40
0.4717497963505822
 40
0.4717497963505822
 40
0.4717497963505822
 40
0.4717497963505822
 40
0.4717497963505822
 40
0.4717497963505822
 40
0.9962097450153693
 40
0.9962097450153693
 40
0.9962097450153693
 40
0.9962097450153693
 40
0.9962097450153693
 40
0.9962097450153693
 40
0.9962097450153693
 40
1.0
 40
1.0
 40
1.0
 40
1.0
 40
1.0
 40
1.0
 40
1.0
 40
1.0
 40
1.0
 10
73.9129271888386
 20
131.90000000185626
 30
1731.0
 10
73.7068627142597
 20
133.21548952960973
 30
1731.0
 10
73.49687481048113
 20
134.53036320435245
 30
1731.0
 10
73.2828128573322
 20
135.84458261956968
 30
1731.0
 10
73.06450861267827
 20
137.1581043421025
 30
1731.0
 10
72.84177302385433
 20
138.47087939594348
 30
1731.0
 10
72.61439191672213
 20
139.78285256503145
 30
1731.0
 10
72.38211989289445
 20
141.09396140413543
 30
1731.0
 10
71.88069278024804
 20
143.860698266466
 30
1731.0
 10
71.61031883756041
 20
145.31608882198339
 30
1731.0
 10
71.33315910428055
 20
146.77021368394264
 30
1731.0
 10
71.04875843272409
 20
148.22295165469657
 30
1731.0
 10
70.75659083708835
 20
149.6741519497783
 30
1731.0
 10
70.45603457338628
 20
151.12362917167022
 30
1731.0
 10
70.14632882307544
 20
152.5711544760418
 30
1731.0
 10
69.82420067446611
 20
154.02688798309043
 30
1731.0
 10
69.82188884104814
 20
154.0373329161862
 30
1731.0
 10
69.81957647976016
 20
154.0477777296521
 30
1731.0
 10
69.81726359023342
 20
154.05822242339678
 30
1731.0
 10
69.81495017209863
 20
154.06866699732862
 30
1731.0
 10
69.81263622498601
 20
154.07911145135566
 30
1731.0
 10
69.81032174852528
 20
154.08955578538553
 30
1731.0
 10
69.80800674234563
 20
154.09999999932563
 30
1731.0
  0
LINE
  5
38
330
17
100
AcDbEntity
  8
0
100
AcDbLine
 10
51.01771662285937
 20
131.9
 30
1731.0
 11
73.91292717698869
 21
131.9
 31
1731.0
  0
SPLINE
  5
39
330
17
100
AcDbEntity
  8
0
100
AcDbSpline
 70
0
 71
1
 72
4
 73
2
 74
0
 40
0.0
 40
0.0
 40
1.0
 40
1.0
 10
51.017716613478754
 20
131.90000060000256
 30
1731.0
 10
51.01771661347872
 20
128.09999939999764
 30
1731.0
  0
LINE
  5
3A
330
17
100
AcDbEntity
  8
0
100
AcDbLine
 10
51.01771662285937
 20
128.1
 30
1731.0
 11
74.49390991437934
 21
128.1
 31
1731.0
  0
SPLINE
  5
3B
330
17
100
AcDbEntity
  8
0
100
AcDbSpline
 70
0
 71
8
 72
25
 73
16
 74
0
 40
0.0
 40
0.0
 40
0.0
 40
0.0
 40
0.0
 40
0.0
 40
0.0
 40
0.0
 40
0.0
 40
0.6996120033519365
 40
0.6996120033519365
 40
0.6996120033519365
 40
0.6996120033519365
 40
0.6996120033519365
 40
0.6996120033519365
 40
0.6996120033519365
 40
1.0
 40
1.0
 40
1.0
 40
1.0
 40
1.0
 40
1.0
 40
1.0
 40
1.0
 40
1.0
 10
77.39849216061097
 20
105.90000000334652
 30
1731.0
 10
77.17628644493902
 20
107.84542715050105
 30
1731.0
 10
76.94819155148815
 20
109.79018108258578
 30
1731.0
 10
76.71409310204722
 20
111.7342276301232
 30
1731.0
 10
76.47385353335508
 20
113.67752767263934
 30
1731.0
 10
76.22730931412639
 20
115.62003679570216
 30
1731.0
 10
75.97426659025525
 20
117.5617047508876
 30
1731.0
 10
75.71449525819727
 20
119.5024747186726
 30
1731.0
 10
75.33317848491467
 20
122.27516536189928
 30
1731.0
 10
75.21734502775845
 20
123.10786762541181
 30
1731.0
 10
75.10019923067416
 20
123.9403848054348
 30
1731.0
 10
74.98171780204645
 20
124.77271196832095
 30
1731.0
 10
74.86187583991747
 20
125.60484357552951
 30
1731.0
 10
74.74064666193577
 20
126.43677345549898
 30
1731.0
 10
74.61800162158838
 20
127.26849477356073
 30
1731.0
 10
74.49390988393722
 20
128.0999999954569
 30
1731.0
  0
LINE
  5
3C
330
17
100
AcDbEntity
  8
0
100
AcDbLine
 10
51.01771662285937
 20
105.9
 30
1731.0
 11
77.39849213131218
 21
105.9
 31
1731.0
  0
SPLINE
  5
3D
330
17
100
AcDbEntity
  8
0
100
AcDbSpline
 70
0
 71
1
 72
4
 73
2
 74
0
 40
0.0
 40
0.0
 40
1.0
 40
1.0
 10
51.01771661347872
 20
105.90000060000206
 30
1731.0
 10
51.01771661347872
 20
102.09999939999993
 30
1731.0
  0
LINE
  5
3E
330
17
100
AcDbEntity
  8
0
100
AcDbLine
 10
51.01771662285937
 20
102.1
 30
1731.0
 11
77.82266387418734
 21
102.1
 31
1731.0
  0
SPLINE
  5
3F
330
17
100
AcDbEntity
  8
0
100
AcDbSpline
 70
0
 71
8
 72
32
 73
23
 74
0
 40
0.0
 40
0.0
 40
0.0
 40
0.0
 40
0.0
 40
0.0
 40
0.0
 40
0.0
 40
0.0
 40
0.5382384821774097
 40
0.5382384821774097
 40
0.5382384821774097
 40
0.5382384821774097
 40
0.5382384821774097
 40
0.5382384821774097
 40
0.5382384821774097
 40
0.8307836756896563
 40
0.8307836756896563
 40
0.8307836756896563
 40
0.8307836756896563
 40
0.8307836756896563
 40
0.8307836756896563
 40
0.8307836756896563
 40
1.0
 40
1.0
 40
1.0
 40
1.0
 40
1.0
 40
1.0
 40
1.0
 40
1.0
 40
1.0
 10
79.92470215268865
 20
79.89999999969595
 30
1731.0
 10
79.80383909632255
 20
81.3954668755699
 30
1731.0
 10
79.6799227091724
 20
82.89068681577353
 30
1731.0
 10
79.55292414485552
 20
84.38565016119962
 30
1731.0
 10
79.42281394283008
 20
85.88034693555787
 30
1731.0
 10
79.28956200818106
 20
87.37476684364826
 30
1731.0
 10
79.15313759140614
 20
88.8688992696345
 30
1731.0
 10
79.01350926820162
 20
90.36273327531738
 30
1731.0
 10
78.79299480690123
 20
92.66802297115949
 30
1731.0
 10
78.71438791111527
 20
93.47969674801854
 30
1731.0
 10
78.63482095967407
 20
94.29127729710189
 30
1731.0
 10
78.55429125601275
 20
95.10276301428222
 30
1731.0
 10
78.47279620398417
 20
95.91415228077068
 30
1731.0
 10
78.39033283262552
 20
96.72544342069911
 30
1731.0
 10
78.3068973209247
 20
97.53663465870235
 30
1731.0
 10
78.1736577984558
 20
98.81688088875507
 30
1731.0
 10
78.12450418506647
 20
99.28600342549825
 30
1731.0
 10
78.07502280300847
 20
99.75509136976788
 30
1731.0
 10
78.02521270550652
 20
100.22414438823323
 30
1731.0
 10
77.97507287801807
 20
100.69316213214942
 30
1731.0
 10
77.92460223752374
 20
101.16214423727337
 30
1731.0
 10
77.87379963151062
 20
101.63109032374103
 30
1731.0
 10
77.82266383664836
 20
102.09999999590639
 30
1731.0
  0
LINE
  5
40
330
17
100
AcDbEntity
  8
0
100
AcDbLine
 10
51.01771662285937
 20
79.9
 30
1731.0
 11
79.92470215645096
 21
79.9
 31
1731.0
  0
SPLINE
  5
41
330
17
100
AcDbEntity
  8
0
100
AcDbSpline
 70
0
 71
1
 72
4
 73
2
 74
0
 40
0.0
 40
0.0
 40
1.0
 40
1.0
 10
51.01771661347873
 20
79.90000060000001
 30
1731.0
 10
51.01771661347875
 20
76.09999939999999
 30
1731.0
  0
LINE
  5
42
330
17
100
AcDbEntity
  8
0
100
AcDbLine
 10
51.01771662285937
 20
76.1
 30
1731.0
 11
80.22319103351643
 21
76.1
 31
1731.0
  0
SPLINE
  5
43
330
17
100
AcDbEntity
  8
0
100
AcDbSpline
 70
0
 71
8
 72
25
 73
16
 74
0
 40
0.0
 40
0.0
 40
0.0
 40
0.0
 40
0.0
 40
0.0
 40
0.0
 40
0.0
 40
0.0
 40
0.8894005839325887
 40
0.8894005839325887
 40
0.8894005839325887
 40
0.8894005839325887
 40
0.8894005839325887
 40
0.8894005839325887
 40
0.8894005839325887
 40
1.0
 40
1.0
 40
1.0
 40
1.0
 40
1.0
 40
1.0
 40
1.0
 40
1.0
 40
1.0
 10
81.63648277663759
 20
53.89999999952433
 30
1731.0
 10
81.50937394186737
 20
56.36987718951136
 30
1731.0
 10
81.37488100068012
 20
58.839373031342646
 30
1731.0
 10
81.23290117044583
 20
61.30845651397807
 30
1731.0
 10
81.08332811386441
 20
63.77709541799988
 30
1731.0
 10
80.92605176524177
 20
66.24525630891546
 30
1731.0
 10
80.76095813788187
 20
68.71290452973854
 30
1731.0
 10
80.58792911024082
 20
71.1800041927496
 30
1731.0
 10
80.38432353023123
 20
73.95323598744923
 30
1731.0
 10
80.3616802752574
 20
74.25994464701283
 30
1731.0
 10
80.33891218846256
 20
74.5666440729313
 30
1731.0
 10
80.31601903373272
 20
74.87333418855566
 30
1731.0
 10
80.29300057393688
 20
75.18001491668271
 30
1731.0
 10
80.26985657091971
 20
75.48668617955437
 30
1731.0
 10
80.24658678549427
 20
75.79334789885712
 30
1731.0
 10
80.22319097743465
 20
76.09999999572129
 30
1731.0
  0
LINE
  5
44
330
17
100
AcDbEntity
  8
0
100
AcDbLine
 10
51.01771662285937
 20
53.9
 30
1731.0
 11
81.63648278588008
 21
53.9
 31
1731.0
  0
SPLINE
  5
45
330
17
100
AcDbEntity
  8
0
100
AcDbSpline
 70
0
 71
1
 72
4
 73
2
 74
0
 40
0.0
 40
0.0
 40
1.0
 40
1.0
 10
51.01771661347875
 20
53.90000060000026
 30
1731.0
 10
51.01771661347873
 20
50.09999939999937
 30
1731.0
  0
LINE
  5
46
330
17
100
AcDbEntity
  8
0
100
AcDbLine
 10
51.01771662285937
 20
50.1
 30
1731.0
 11
81.82441995958169
 21
50.1
 31
1731.0
  0
SPLINE
  5
47
330
17
100
AcDbEntity
  8
0
100
AcDbSpline
 70
0
 71
8
 72
18
 73
9
 74
0
 40
0.0
 40
0.0
 40
0.0
 40
0.0
 40
0.0
 40
0.0
 40
0.0
 40
0.0
 40
0.0
 40
1.0
 40
1.0
 40
1.0
 40
1.0
 40
1.0
 40
1.0
 40
1.0
 40
1.0
 40
1.0
 10
82.62857560276028
 20
27.900000000017812
 30
1731.0
 10
82.55828845735147
 20
30.67598608992165
 30
1731.0
 10
82.47960732105312
 20
33.45176072882232
 30
1731.0
 10
82.39241609367684
 20
36.22729112430996
 30
1731.0
 10
82.29659420040988
 20
39.00254260894906
 30
1731.0
 10
82.1920163929521
 20
41.77747863248682
 30
1731.0
 10
82.07855252522187
 20
44.5520607531394
 30
1731.0
 10
81.95606729833463
 20
47.32624862773262
 30
1731.0
 10
81.82441996955757
 20
50.10000000047346
 30
1731.0
  0
LINE
  5
48
330
17
100
AcDbEntity
  8
0
100
AcDbLine
 10
51.01771662285937
 20
27.9
 30
1731.0
 11
82.62857560205714
 21
27.9
 31
1731.0
  0
SPLINE
  5
49
330
17
100
AcDbEntity
  8
0
100
AcDbSpline
 70
0
 71
1
 72
4
 73
2
 74
0
 40
0.0
 40
0.0
 40
1.0
 40
1.0
 10
51.01771661347875
 20
27.900000600000002
 30
1731.0
 10
51.01771661347872
 20
24.099999399999998
 30
1731.0
  0
LINE
  5
4A
330
17
100
AcDbEntity
  8
0
100
AcDbLine
 10
51.01771662285937
 20
24.1
 30
1731.0
 11
82.71793775627307
 21
24.1
 31
1731.0
  0
SPLINE
  5
4B
330
17
100
AcDbEntity
  8
0
100
AcDbSpline
 70
0
 71
8
 72
18
 73
9
 74
0
 40
0.0
 40
0.0
 40
0.0
 40
0.0
 40
0.0
 40
0.0
 40
0.0
 40
0.0
 40
0.0
 40
1.0
 40
1.0
 40
1.0
 40
1.0
 40
1.0
 40
1.0
 40
1.0
 40
1.0
 40
1.0
 10
82.97459608701415
 20
1.9000000000450816
 30
1731.0
 10
82.96998724010346
 20
4.675237273096499
 30
1731.0
 10
82.95772261937216
 20
7.4504551138935105
 30
1731.0
 10
82.93771010979928
 20
10.22563164851868
 30
1731.0
 10
82.90985388653544
 20
13.00074316272565
 30
1731.0
 10
82.87405428395934
 20
15.775764096482362
 30
1731.0
 10
82.83020765174862
 20
18.550667038117073
 30
1731.0
 10
82.77820619269067
 20
21.325422717844468
 30
1731.0
 10
82.71793777695851
 20
24.100000000449306
 30
1731.0
  0
LINE
  5
4C
330
17
100
AcDbEntity
  8
0
100
AcDbLine
 10
51.01771662285937
 20
1.9
 30
1731.0
 11
82.97459605986448
 21
1.9
 31
1731.0
  0
SPLINE
  5
4D
330
17
100
AcDbEntity
  8
0
100
AcDbSpline
 70
0
 71
1
 72
4
 73
2
 74
0
 40
0.0
 40
0.0
 40
0.9999993684216398
 40
0.9999993684216398
 10
51.01771661347873
 20
1.9000006000000558
 30
1731.0
 10
51.01771661347873
 20
-6.553790374438061e-17
 30
1731.0
  0
SPLINE
  5
4E
330
17
100
AcDbEntity
  8
0
100
AcDbSpline
 70
0
 71
1
 72
4
 73
2
 74
0
 40
0.0
 40
0.0
 40
1.0
 40
1.0
 10
51.01771661347872
 20
-1.9000006000000011
 30
1731.0
 10
51.017716613478754
 20
1.2000000211287443e-06
 30
1731.0
  0
LINE
  5
4F
330
17
100
AcDbEntity
  8
0
100
AcDbLine
 10
51.01771662285827
 20
-1.9
 30
1731.0
 11
82.97464638177237
 21
-1.9
 31
1731.0
  0
SPLINE
  5
50
330
17
100
AcDbEntity
  8
0
100
AcDbSpline
 70
0
 71
8
 72
18
 73
9
 74
0
 40
0.0
 40
0.0
 40
0.0
 40
0.0
 40
0.0
 40
0.0
 40
0.0
 40
0.0
 40
0.0
 40
1.0
 40
1.0
 40
1.0
 40
1.0
 40
1.0
 40
1.0
 40
1.0
 40
1.0
 40
1.0
 10
82.71853845111733
 20
-24.09999999976366
 30
1731.0
 10
82.77874626488264
 20
-21.325428181476795
 30
1731.0
 10
82.83068372988433
 20
-18.550678809755695
 30
1731.0
 10
82.87446351571207
 20
-15.775782179288697
 30
1731.0
 10
82.9101939520418
 20
-13.000766428186164
 30
1731.0
 10
82.93797920828816
 20
-10.225657547335297
 30
1731.0
 10
82.95791945189026
 20
-7.450479388825463
 30
1731.0
 10
82.97011099150228
 20
-4.675253673794716
 30
1731.0
 10
82.97464641135963
 20
-1.90000000004836
 30
1731.0
  0
LINE
  5
51
330
17
100
AcDbEntity
  8
0
100
AcDbLine
 10
51.01771662285827
 20
-24.1
 30
1731.0
 11
82.71853846200827
 21
-24.1
 31
1731.0
  0
SPLINE
  5
52
330
17
100
AcDbEntity
  8
0
100
AcDbSpline
 70
0
 71
1
 72
4
 73
2
 74
0
 40
0.0
 40
0.0
 40
1.0
 40
1.0
 10
51.01771661347872
 20
-27.900000600000034
 30
1731.0
 10
51.01771661347872
 20
-24.099999399999938
 30
1731.0
  0
LINE
  5
53
330
17
100
AcDbEntity
  8
0
100
AcDbLine
 10
51.01771662285827
 20
-27.9
 30
1731.0
 11
82.6292561849572
 21
-27.9
 31
1731.0
  0
SPLINE
  5
54
330
17
100
AcDbEntity
  8
0
100
AcDbSpline
 70
0
 71
8
 72
18
 73
9
 74
0
 40
0.0
 40
0.0
 40
0.0
 40
0.0
 40
0.0
 40
0.0
 40
0.0
 40
0.0
 40
0.0
 40
1.0
 40
1.0
 40
1.0
 40
1.0
 40
1.0
 40
1.0
 40
1.0
 40
1.0
 40
1.0
 10
81.82541048584312
 20
-50.10000000079563
 30
1731.0
 10
81.95704031825733
 20
-47.32624256757716
 30
1731.0
 10
82.0795009676969
 20
-44.552049321340405
 30
1731.0
 10
82.19293365091431
 20
-41.77746341521734
 30
1731.0
 10
82.29747417352152
 20
-39.002525786771045
 30
1731.0
 10
82.39325321141827
 20
-36.22727517210461
 30
1731.0
 10
82.48039655602817
 20
-33.451748118212265
 30
1731.0
 10
82.55902532963987
 20
-30.67597899392493
 30
1731.0
 10
82.62925617715064
 20
-27.899999999802496
 30
1731.0
  0
LINE
  5
55
330
17
100
AcDbEntity
  8
0
100
AcDbLine
 10
51.01771662285827
 20
-50.1
 30
1731.0
 11
81.8254104690777
 21
-50.1
 31
1731.0
  0
SPLINE
  5
56
330
17
100
AcDbEntity
  8
0
100
AcDbSpline
 70
0
 71
1
 72
4
 73
2
 74
0
 40
0.0
 40
0.0
 40
1.0
 40
1.0
 10
51.01771661347872
 20
-53.9000006
 30
1731.0
 10
51.01771661347872
 20
-50.0999994
 30
1731.0
  0
LINE
  5
57
330
17
100
AcDbEntity
  8
0
100
AcDbLine
 10
51.01771662285827
 20
-53.9
 30
1731.0
 11
81.63749175154052
 21
-53.9
 31
1731.0
  0
SPLINE
  5
58
330
17
100
AcDbEntity
  8
0
100
AcDbSpline
 70
0
 71
8
 72
18
 73
9
 74
0
 40
0.0
 40
0.0
 40
0.0
 40
0.0
 40
0.0
 40
0.0
 40
0.0
 40
0.0
 40
0.0
 40
1.0
 40
1.0
 40
1.0
 40
1.0
 40
1.0
 40
1.0
 40
1.0
 40
1.0
 40
1.0
 10
80.2240327651513
 20
-76.1000000017673
 30
1731.0
 10
80.43562224318427
 20
-73.32738118028493
 30
1731.0
 10
80.63689883043455
 20
-70.55397455430375
 30
1731.0
 10
80.82804071704697
 20
-67.77983672604952
 30
1731.0
 10
81.00921898373879
 20
-65.00502198654559
 30
1731.0
 10
81.18059803952785
 20
-62.22958233750839
 30
1731.0
 10
81.34233600807717
 20
-59.45356751063791
 30
1731.0
 10
81.4945850690141
 20
-56.677024984658416
 30
1731.0
 10
81.6374917605824
 20
-53.9000000004653
 30
1731.0
  0
LINE
  5
59
330
17
100
AcDbEntity
  8
0
100
AcDbLine
 10
51.01771662285827
 20
-76.1
 30
1731.0
 11
80.22403274199308
 21
-76.1
 31
1731.0
  0
SPLINE
  5
5A
330
17
100
AcDbEntity
  8
0
100
AcDbSpline
 70
0
 71
1
 72
4
 73
2
 74
0
 40
0.0
 40
0.0
 40
1.0
 40
1.0
 10
51.01771661347875
 20
-79.90000060000018
 30
1731.0
 10
51.017716613478754
 20
-76.09999939999999
 30
1731.0
  0
LINE
  5
5B
330
17
100
AcDbEntity
  8
0
100
AcDbLine
 10
51.01771662285827
 20
-79.9
 30
1731.0
 11
79.92546043593066
 21
-79.9
 31
1731.0
  0
SPLINE
  5
5C
330
17
100
AcDbEntity
  8
0
100
AcDbSpline
 70
0
 71
8
 72
32
 73
23
 74
0
 40
0.0
 40
0.0
 40
0.0
 40
0.0
 40
0.0
 40
0.0
 40
0.0
 40
0.0
 40
0.0
 40
0.23538678818109499
 40
0.23538678818109499
 40
0.23538678818109499
 40
0.23538678818109499
 40
0.23538678818109499
 40
0.23538678818109499
 40
0.23538678818109499
 40
0.4956088274446918
 40
0.4956088274446918
 40
0.4956088274446918
 40
0.4956088274446918
 40
0.4956088274446918
 40
0.4956088274446918
 40
0.4956088274446918
 40
1.0
 40
1.0
 40
1.0
 40
1.0
 40
1.0
 40
1.0
 40
1.0
 40
1.0
 40
1.0
 10
77.82254574098481
 20
-102.0999999997299
 30
1731.0
 10
77.89303898394193
 20
-101.45390630071252
 30
1731.0
 10
77.96298511899934
 20
-100.80695520448542
 30
1731.0
 10
78.03238009224756
 20
-100.15918901509377
 30
1731.0
 10
78.10121984977698
 20
-99.5106500365833
 30
1731.0
 10
78.16950033767787
 20
-98.86138057300047
 30
1731.0
 10
78.23721750204047
 20
-98.21142292839214
 30
1731.0
 10
78.3043672889549
 20
-97.56081940680592
 30
1731.0
 10
78.4445485666953
 20
-96.18969748857617
 30
1731.0
 10
78.5174552917822
 20
-95.46902850517793
 30
1731.0
 10
78.58965779218151
 20
-94.74767996504815
 30
1731.0
 10
78.66114938624399
 20
-94.02571756310485
 30
1731.0
 10
78.73192473826144
 20
-93.30319808623088
 30
1731.0
 10
78.80197985846685
 20
-92.58016941327395
 30
1731.0
 10
78.87131210303421
 20
-91.85667051504657
 30
1731.0
 10
79.07290393478841
 20
-89.72951260042473
 30
1731.0
 10
79.20303829777257
 20
-88.32602801586333
 30
1731.0
 10
79.33034989386316
 20
-86.9222861073168
 30
1731.0
 10
79.45486479627947
 20
-85.51829512445967
 30
1731.0
 10
79.57660853906748
 20
-84.11406316089274
 30
1731.0
 10
79.69560613452158
 20
-82.70959815501716
 30
1731.0
 10
79.8118820896431
 20
-81.3049078908592
 30
1731.0
 10
79.9254604216903
 20
-79.89999999884878
 30
1731.0
  0
LINE
  5
5D
330
17
100
AcDbEntity
  8
0
100
AcDbLine
 10
51.01771662285827
 20
-102.1
 30
1731.0
 11
77.8225457434602
 21
-102.1
 31
1731.0
  0
SPLINE
  5
5E
330
17
100
AcDbEntity
  8
0
100
AcDbSpline
 70
0
 71
1
 72
4
 73
2
 74
0
 40
0.0
 40
0.0
 40
1.0
 40
1.0
 10
51.01771661347875
 20
-105.90000060000003
 30
1731.0
 10
51.01771661347873
 20
-102.09999939999999
 30
1731.0
  0
LINE
  5
5F
330
17
100
AcDbEntity
  8
0
100
AcDbLine
 10
51.01771662285827
 20
-105.9
 30
1731.0
 11
77.39815970745425
 21
-105.9
 31
1731.0
  0
SPLINE
  5
60
330
17
100
AcDbEntity
  8
0
100
AcDbSpline
 70
0
 71
8
 72
18
 73
9
 74
0
 40
0.0
 40
0.0
 40
0.0
 40
0.0
 40
0.0
 40
0.0
 40
0.0
 40
0.0
 40
0.0
 40
1.0
 40
1.0
 40
1.0
 40
1.0
 40
1.0
 40
1.0
 40
1.0
 40
1.0
 40
1.0
 10
74.49208989432734
 20
-128.1000000031542
 30
1731.0
 10
74.90539612685161
 20
-125.33189366545463
 30
1731.0
 10
75.30266913532958
 20
-122.56138277472994
 30
1731.0
 10
75.6850451385395
 20
-119.78874298537255
 30
1731.0
 10
76.05338737192628
 20
-117.01419537902984
 30
1731.0
 10
76.4083810355915
 20
-114.2379196773229
 30
1731.0
 10
76.75056949464502
 20
-111.46005929235261
 30
1731.0
 10
77.08038414438553
 20
-108.68072558095612
 30
1731.0
 10
77.39815970529433
 20
-105.89999999975315
 30
1731.0
  0
LINE
  5
61
330
17
100
AcDbEntity
  8
0
100
AcDbLine
 10
51.01771662285827
 20
-128.1
 30
1731.0
 11
74.492089873202
 21
-128.1
 31
1731.0
  0
SPLINE
  5
62
330
17
100
AcDbEntity
  8
0
100
AcDbSpline
 70
0
 71
1
 72
4
 73
2
 74
0
 40
0.0
 40
0.0
 40
1.0
 40
1.0
 10
51.01771661347872
 20
-131.9000006
 30
1731.0
 10
51.01771661347875
 20
-128.09999939999992
 30
1731.0
  0
LINE
  5
63
330
17
100
AcDbEntity
  8
0
100
AcDbLine
 10
51.01771662285827
 20
-131.9
 30
1731.0
 11
73.91083008438123
 21
-131.9
 31
1731.0
  0
SPLINE
  5
64
330
17
100
AcDbEntity
  8
0
100
AcDbSpline
 70
0
 71
8
 72
32
 73
23
 74
0
 40
0.0
 40
0.0
 40
0.0
 40
0.0
 40
0.0
 40
0.0
 40
0.0
 40
0.0
 40
0.0
 40
0.24499532987057218
 40
0.24499532987057218
 40
0.24499532987057218
 40
0.24499532987057218
 40
0.24499532987057218
 40
0.24499532987057218
 40
0.24499532987057218
 40
0.9121160874303252
 40
0.9121160874303252
 40
0.9121160874303252
 40
0.9121160874303252
 40
0.9121160874303252
 40
0.9121160874303252
 40
0.9121160874303252
 40
1.0
 40
1.0
 40
1.0
 40
1.0
 40
1.0
 40
1.0
 40
1.0
 40
1.0
 40
1.0
 10
69.80440830503473
 20
-154.09999999514517
 30
1731.0
 10
69.95408178103719
 20
-153.42490843664146
 30
1731.0
 10
70.10154097876574
 20
-152.74932525592797
 30
1731.0
 10
70.24688442505048
 20
-152.0732817601754
 30
1731.0
 10
70.39020095489221
 20
-151.39680520335241
 30
1731.0
 10
70.53157141501529
 20
-150.71991918128654
 30
1731.0
 10
70.67106980603766
 20
-150.04264389751103
 30
1731.0
 10
70.80876423984465
 20
-149.36499638943044
 30
1731.0
 10
71.3149195726983
 20
-146.84078581832281
 30
1731.0
 10
71.67220126999995
 20
-144.99199247860972
 30
1731.0
 10
72.01782751080219
 20
-143.14095459445178
 30
1731.0
 10
72.35277037877569
 20
-141.28794345712944
 30
1731.0
 10
72.67781935503987
 20
-139.4331779090915
 30
1731.0
 10
72.99363447818585
 20
-137.576834021749
 30
1731.0
 10
73.30077176043064
 20
-135.71904971915944
 30
1731.0
 10
73.63909051658496
 20
-133.61501639035714
 30
1731.0
 10
73.6783290665813
 20
-133.37008034766276
 30
1731.0
 10
73.71742634128076
 20
-133.12512180549422
 30
1731.0
 10
73.75638340737697
 20
-132.8801410081319
 30
1731.0
 10
73.7952013077324
 20
-132.6351381955165
 30
1731.0
 10
73.83388106216894
 20
-132.39011360335908
 30
1731.0
 10
73.87242366821788
 20
-132.14506746324537
 30
1731.0
 10
73.9108301018316
 20
-131.9000000027348
 30
1731.0
  0
LINE
  5
65
330
17
100
AcDbEntity
  8
0
100
AcDbLine
 10
51.01771662285827
 20
-154.1
 30
1731.0
 11
69.80440832693206
 21
-154.1
 31
1731.0
  0
SPLINE
  5
66
330
17
100
AcDbEntity
  8
0
100
AcDbSpline
 70
0
 71
1
 72
4
 73
2
 74
0
 40
0.0
 40
0.0
 40
1.0
 40
1.0
 10
51.017716613478754
 20
-157.90000060000003
 30
1731.0
 10
51.017716613478754
 20
-154.0999994
 30
1731.0
  0
LINE
  5
67
330
17
100
AcDbEntity
  8
0
100
AcDbLine
 10
51.01771662285827
 20
-157.9
 30
1731.0
 11
68.927311305181
 21
-157.9
 31
1731.0
  0
SPLINE
  5
68
330
17
100
AcDbEntity
  8
0
100
AcDbSpline
 70
0
 71
8
 72
53
 73
44
 74
0
 40
0.0
 40
0.0
 40
0.0
 40
0.0
 40
0.0
 40
0.0
 40
0.0
 40
0.0
 40
0.0
 40
0.09851714721505936
 40
0.09851714721505936
 40
0.09851714721505936
 40
0.09851714721505936
 40
0.09851714721505936
 40
0.09851714721505936
 40
0.09851714721505936
 40
0.33708242556104295
 40
0.33708242556104295
 40
0.33708242556104295
 40
0.33708242556104295
 40
0.33708242556104295
 40
0.33708242556104295
 40
0.33708242556104295
 40
0.5788966333711911
 40
0.5788966333711911
 40
0.5788966333711911
 40
0.5788966333711911
 40
0.5788966333711911
 40
0.5788966333711911
 40
0.5788966333711911
 40
0.7187869583122266
 40
0.7187869583122266
 40
0.7187869583122266
 40
0.7187869583122266
 40
0.7187869583122266
 40
0.7187869583122266
 40
0.7187869583122266
 40
0.883334257118964
 40
0.883334257118964
 40
0.883334257118964
 40
0.883334257118964
 40
0.883334257118964
 40
0.883334257118964
 40
0.883334257118964
 40
1.0
 40
1.0
 40
1.0
 40
1.0
 40
1.0
 40
1.0
 40
1.0
 40
1.0
 40
1.0
 10
60.428705077096055
 20
-180.1000000034267
 30
1730.9999999999998
 10
60.60265133087856
 20
-179.86957224516388
 30
1730.9999999999998
 10
60.7725807052391
 20
-179.63615656275832
 30
1730.9999999999998
 10
60.93868148348193
 20
-179.40002726798068
 30
1730.9999999999998
 10
61.10114200033085
 20
-179.16141160135288
 30
1730.9999999999998
 10
61.26015068683222
 20
-178.9204897075833
 30
1730.9999999999998
 10
61.415896202665266
 20
-178.67739470962965
 30
1730.9999999999998
 10
61.568567549088584
 20
-178.4322127975688
 30
1731.0
 10
62.081072570700236
 20
-177.58630325746887
 30
1731.0
 10
62.426059994734274
 20
-176.97696534986957
 30
1731.0
 10
62.75539990200473
 20
-176.35884768818323
 30
1731.0
 10
63.07069746271723
 20
-175.7334138061697
 30
1731.0
 10
63.37328418555866
 20
-175.10181863183234
 30
1731.0
 10
63.664308463307535
 20
-174.46495465056657
 30
1731.0
 10
63.94477300497029
 20
-173.82347088068565
 30
1731.0
 10
64.49007469237621
 20
-172.52332976022836
 30
1731.0
 10
64.75459414769036
 20
-171.86468377950865
 30
1731.0
 10
65.01003833130159
 20
-171.20241093237732
 30
1731.0
 10
65.25715229025464
 20
-170.5369670821466
 30
1731.0
 10
65.49656947654115
 20
-169.8687284265894
 30
1731.0
 10
65.72884308360864
 20
-169.19800327911167
 30
1731.0
 10
65.95446523732241
 20
-168.52503919951795
 30
1731.0
 10
66.3008027655977
 20
-167.4595277852312
 30
1731.0
 10
66.42563842653524
 20
-167.06834802035894
 30
1731.0
 10
66.54848936858582
 20
-166.67653488301178
 30
1731.0
 10
66.6694565292756
 20
-166.28413289988433
 30
1731.0
 10
66.78863343926508
 20
-165.8911824211065
 30
1731.0
 10
66.90610622234901
 20
-165.4977196202438
 30
1731.0
 10
67.0219535954565
 20
-165.1037764942972
 30
1731.0
 10
67.27068539671815
 20
-164.24546932655534
 30
1731.0
 10
67.40482234119818
 20
-163.77454749435955
 30
1731.0
 10
67.53864990323355
 20
-163.2966967512123
 30
1731.0
 10
67.67216028396668
 20
-162.81199848120932
 30
1731.0
 10
67.80534568453979
 20
-162.3205340684451
 30
1731.0
 10
67.93819830609489
 20
-161.82238489701308
 30
1731.0
 10
68.0707103497738
 20
-161.31763235100533
 30
1731.0
 10
68.29657942846147
 20
-160.44385886102884
 30
1731.0
 10
68.38932604113774
 20
-160.08111308562547
 30
1731.0
 10
68.48114573644894
 20
-159.71813101248034
 30
1731.0
 10
68.57206813208718
 20
-159.35492248483115
 30
1731.0
 10
68.66212084045702
 20
-158.99149672528233
 30
1731.0
 10
68.75132968958528
 20
-158.62786238722924
 30
1731.0
 10
68.83971891135825
 20
-158.2640275986217
 30
1731.0
 10
68.92731130222558
 20
-157.89999999928887
 30
1731.0
  0
LINE
  5
69
330
17
100
AcDbEntity
  8
0
100
AcDbLine
 10
51.01771662285827
 20
-180.1
 30
1731.0
 11
60.42870507255662
 21
-180.1
 31
1731.0
  0
SPLINE
  5
6A
330
17
100
AcDbEntity
  8
0
100
AcDbSpline
 70
0
 71
1
 72
4
 73
2
 74
0
 40
0.0
 40
0.0
 40
1.0
 40
1.0
 10
51.01771661347872
 20
-183.9000006000001
 30
1731.0
 10
51.01771661347875
 20
-180.09999939999994
 30
1731.0
  0
LINE
  5
6B
330
17
100
AcDbEntity
  8
0
100
AcDbLine
 10
51.01771662285827
 20
-183.9
 30
1731.0
 11
55.89018089119212
 21
-183.9
 31
1731.0
  0
SPLINE
  5
6C
330
17
100
AcDbEntity
  8
0
100
AcDbSpline
 70
0
 71
8
 72
60
 73
51
 74
0
 40
0.0
 40
0.0
 40
0.0
 40
0.0
 40
0.0
 40
0.0
 40
0.0
 40
0.0
 40
0.0
 40
0.017150562806749994
 40
0.017150562806749994
 40
0.017150562806749994
 40
0.017150562806749994
 40
0.017150562806749994
 40
0.017150562806749994
 40
0.017150562806749994
 40
0.033734808191972165
 40
0.033734808191972165
 40
0.033734808191972165
 40
0.033734808191972165
 40
0.033734808191972165
 40
0.033734808191972165
 40
0.033734808191972165
 40
0.04058406270568633
 40
0.04058406270568633
 40
0.04058406270568633
 40
0.04058406270568633
 40
0.04058406270568633
 40
0.04058406270568633
 40
0.04058406270568633
 40
0.04388875606205761
 40
0.04388875606205761
 40
0.04388875606205761
 40
0.04388875606205761
 40
0.04388875606205761
 40
0.04388875606205761
 40
0.04388875606205761
 40
0.047193503455592915
 40
0.047193503455592915
 40
0.047193503455592915
 40
0.047193503455592915
 40
0.047193503455592915
 40
0.047193503455592915
 40
0.047193503455592915
 40
0.05692524669088492
 40
0.05692524669088492
 40
0.05692524669088492
 40
0.05692524669088492
 40
0.05692524669088492
 40
0.05692524669088492
 40
0.05692524669088492
 40
0.060359869766212326
 40
0.060359869766212326
 40
0.060359869766212326
 40
0.060359869766212326
 40
0.060359869766212326
 40
0.060359869766212326
 40
0.060359869766212326
 40
0.060359869766212326
 40
0.060359869766212326
 10
36.956489460695686
 20
-170.65156989041938
 30
1731.0
 10
37.42690309363364
 20
-171.41569550913982
 30
1731.0
 10
37.90922902553439
 20
-172.17242632749156
 30
1731.0
 10
38.40390899925542
 20
-172.92128434710955
 30
1731.0
 10
38.91148697820887
 20
-173.6616025757807
 30
1731.0
 10
39.43261898522767
 20
-174.39251650604658
 30
1731.0
 10
39.96809024943586
 20
-175.11295116566794
 30
1731.0
 10
40.51886532750317
 20
-175.82158473161215
 30
1731.0
 10
41.634794923329046
 20
-177.18899942258
 30
1731.0
 10
42.19861353235812
 20
-177.8483356044422
 30
1731.0
 10
42.77897174178089
 20
-178.49356197775109
 30
1731.0
 10
43.37718983274095
 20
-179.12283183314784
 30
1731.0
 10
43.99464612839004
 20
-179.7336030444176
 30
1731.0
 10
44.632809276320415
 20
-180.32260508180633
 30
1731.0
 10
45.29336466803768
 20
-180.88570889999465
 30
1731.0
 10
46.26153510934379
 20
-181.63722821915275
 30
1731.0
 10
46.54865791916971
 20
-181.85150986840046
 30
1731.0
 10
46.84005904351202
 20
-182.06002903836745
 30
1731.0
 10
47.135857907517995
 20
-182.26234035079216
 30
1731.0
 10
47.436155820396664
 20
-182.4579404624655
 30
1731.0
 10
47.741035388391886
 20
-182.64626898165923
 30
1731.0
 10
48.05055992775518
 20
-182.8267093845539
 30
1731.0
 10
48.516377325494794
 20
-183.08152049016786
 30
1731.0
 10
48.66830248116749
 20
-183.16203676361076
 30
1731.0
 10
48.8205404593287
 20
-183.24010243610826
 30
1731.0
 10
48.973083374569775
 20
-183.31568119177322
 30
1731.0
 10
49.12592334148153
 20
-183.38873671471944
 30
1731.0
 10
49.27905247465419
 20
-183.45923268906117
 30
1731.0
 10
49.43246288867742
 20
-183.52713279891339
 30
1731.0
 10
49.73983302058593
 20
-183.65766972510826
 30
1731.0
 10
49.89378931042413
 20
-183.72030156271967
 30
1731.0
 10
50.04800730014873
 20
-183.78027462599275
 30
1731.0
 10
50.202487213784906
 20
-183.83753634545752
 30
1731.0
 10
50.35722241176066
 20
-183.8920490350954
 30
1731.0
 10
50.512196997520405
 20
-183.94379594616092
 30
1731.0
 10
50.66739638588072
 20
-183.99274753713965
 30
1731.0
 10
51.28055057700105
 20
-184.174366725424
 30
1731.0
 10
51.74585079131522
 20
-184.28639505497517
 30
1731.0
 10
52.21768748907668
 20
-184.37135941336084
 30
1731.0
 10
52.69447137005795
 20
-184.42565406043514
 30
1731.0
 10
53.174049680001986
 20
-184.44589527114957
 30
1731.0
 10
53.653680636063825
 20
-184.42944220981244
 30
1731.0
 10
54.129995688795354
 20
-184.3750628295334
 30
1731.0
 10
54.76445108160033
 20
-184.2514325539009
 30
1731.0
 10
54.92908145713105
 20
-184.21456514690362
 30
1731.0
 10
55.09266456822172
 20
-184.1731157550825
 30
1731.0
 10
55.25504897559077
 20
-184.12714568807348
 30
1731.0
 10
55.416101577495574
 20
-184.07673883235145
 30
1731.0
 10
55.57570605895323
 20
-184.0219979888942
 30
1731.0
 10
55.73376146271077
 20
-183.9630414731211
 30
1731.0
 10
55.89018088196504
 20
-183.89999997710572
 30
1731.0
  0
SPLINE
  5
6D
330
17
100
AcDbEntity
  8
0
100
AcDbSpline
 70
0
 71
8
 72
410
 73
401
 74
0
 40
0.0
 40
0.0
 40
0.0
 40
0.0
 40
0.0
 40
0.0
 40
0.0
 40
0.0
 40
0.0
 40
0.0021211037346966386
 40
0.0021211037346966386
 40
0.0021211037346966386
 40
0.0021211037346966386
 40
0.0021211037346966386
 40
0.0021211037346966386
 40
0.0021211037346966386
 40
0.004329130757211088
 40
0.004329130757211088
 40
0.004329130757211088
 40
0.004329130757211088
 40
0.004329130757211088
 40
0.004329130757211088
 40
0.004329130757211088
 40
0.00675796048196396
 40
0.00675796048196396
 40
0.00675796048196396
 40
0.00675796048196396
 40
0.00675796048196396
 40
0.00675796048196396
 40
0.00675796048196396
 40
0.009407592908967713
 40
0.009407592908967713
 40
0.009407592908967713
 40
0.009407592908967713
 40
0.009407592908967713
 40
0.009407592908967713
 40
0.009407592908967713
 40
0.01329434453210704
 40
0.01329434453210704
 40
0.01329434453210704
 40
0.01329434453210704
 40
0.01329434453210704
 40
0.01329434453210704
 40
0.01329434453210704
 40
0.020879070564798458
 40
0.020879070564798458
 40
0.020879070564798458
 40
0.020879070564798458
 40
0.020879070564798458
 40
0.020879070564798458
 40
0.020879070564798458
 40
0.03271603804208169
 40
0.03271603804208169
 40
0.03271603804208169
 40
0.03271603804208169
 40
0.03271603804208169
 40
0.03271603804208169
 40
0.03271603804208169
 40
0.05826589612764636
 40
0.05826589612764636
 40
0.05826589612764636
 40
0.05826589612764636
 40
0.05826589612764636
 40
0.05826589612764636
 40
0.05826589612764636
 40
0.07628853919853634
 40
0.07628853919853634
 40
0.07628853919853634
 40
0.07628853919853634
 40
0.07628853919853634
 40
0.07628853919853634
 40
0.07628853919853634
 40
0.08529986073398993
 40
0.08529986073398993
 40
0.08529986073398993
 40
0.08529986073398993
 40
0.08529986073398993
 40
0.08529986073398993
 40
0.08529986073398993
 40
0.0964314143636356
 40
0.0964314143636356
 40
0.0964314143636356
 40
0.0964314143636356
 40
0.0964314143636356
 40
0.0964314143636356
 40
0.0964314143636356
 40
0.14795784313411253
 40
0.14795784313411253
 40
0.14795784313411253
 40
0.14795784313411253
 40
0.14795784313411253
 40
0.14795784313411253
 40
0.14795784313411253
 40
0.2377281152487805
 40
0.2377281152487805
 40
0.2377281152487805
 40
0.2377281152487805
 40
0.2377281152487805
 40
0.2377281152487805
 40
0.2377281152487805
 40
0.33972862575237084
 40
0.33972862575237084
 40
0.33972862575237084
 40
0.33972862575237084
 40
0.33972862575237084
 40
0.33972862575237084
 40
0.33972862575237084
 40
0.4289118582990011
 40
0.4289118582990011
 40
0.4289118582990011
 40
0.4289118582990011
 40
0.4289118582990011
 40
0.4289118582990011
 40
0.4289118582990011
 40
0.5022580113634043
 40
0.5022580113634043
 40
0.5022580113634043
 40
0.5022580113634043
 40
0.5022580113634043
 40
0.5022580113634043
 40
0.5022580113634043
 40
0.602320980712396
 40
0.602320980712396
 40
0.602320980712396
 40
0.602320980712396
 40
0.602320980712396
 40
0.602320980712396
 40
0.602320980712396
 40
0.694375752211898
 40
0.694375752211898
 40
0.694375752211898
 40
0.694375752211898
 40
0.694375752211898
 40
0.694375752211898
 40
0.694375752211898
 40
0.7500503818656051
 40
0.7500503818656051
 40
0.7500503818656051
 40
0.7500503818656051
 40
0.7500503818656051
 40
0.7500503818656051
 40
0.7500503818656051
 40
0.7711359067243616
 40
0.7711359067243616
 40
0.7711359067243616
 40
0.7711359067243616
 40
0.7711359067243616
 40
0.7711359067243616
 40
0.7711359067243616
 40
0.7915747655207199
 40
0.7915747655207199
 40
0.7915747655207199
 40
0.7915747655207199
 40
0.7915747655207199
 40
0.7915747655207199
 40
0.7915747655207199
 40
0.8154524087124702
 40
0.8154524087124702
 40
0.8154524087124702
 40
0.8154524087124702
 40
0.8154524087124702
 40
0.8154524087124702
 40
0.8154524087124702
 40
0.8278770092737452
 40
0.8278770092737452
 40
0.8278770092737452
 40
0.8278770092737452
 40
0.8278770092737452
 40
0.8278770092737452
 40
0.8278770092737452
 40
0.8347882681206366
 40
0.8347882681206366
 40
0.8347882681206366
 40
0.8347882681206366
 40
0.8347882681206366
 40
0.8347882681206366
 40
0.8347882681206366
 40
0.8407005331398275
 40
0.8407005331398275
 40
0.8407005331398275
 40
0.8407005331398275
 40
0.8407005331398275
 40
0.8407005331398275
 40
0.8407005331398275
 40
0.8440216736819727
 40
0.8440216736819727
 40
0.8440216736819727
 40
0.8440216736819727
 40
0.8440216736819727
 40
0.8440216736819727
 40
0.8440216736819727
 40
0.845649278448019
 40
0.845649278448019
 40
0.845649278448019
 40
0.845649278448019
 40
0.845649278448019
 40
0.845649278448019
 40
0.845649278448019
 40
0.8465804569294894
 40
0.8465804569294894
 40
0.8465804569294894
 40
0.8465804569294894
 40
0.8465804569294894
 40
0.8465804569294894
 40
0.8465804569294894
 40
0.8475218598932115
 40
0.8475218598932115
 40
0.8475218598932115
 40
0.8475218598932115
 40
0.8475218598932115
 40
0.8475218598932115
 40
0.8475218598932115
 40
0.8482818554079836
 40
0.8482818554079836
 40
0.8482818554079836
 40
0.8482818554079836
 40
0.8482818554079836
 40
0.8482818554079836
 40
0.8482818554079836
 40
0.8490418509227575
 40
0.8490418509227575
 40
0.8490418509227575
 40
0.8490418509227575
 40
0.8490418509227575
 40
0.8490418509227575
 40
0.8490418509227575
 40
0.8497327559361879
 40
0.8497327559361879
 40
0.8497327559361879
 40
0.8497327559361879
 40
0.8497327559361879
 40
0.8497327559361879
 40
0.8497327559361879
 40
0.8504236609496216
 40
0.8504236609496216
 40
0.8504236609496216
 40
0.8504236609496216
 40
0.8504236609496216
 40
0.8504236609496216
 40
0.8504236609496216
 40
0.8517832544028786
 40
0.8517832544028786
 40
0.8517832544028786
 40
0.8517832544028786
 40
0.8517832544028786
 40
0.8517832544028786
 40
0.8517832544028786
 40
0.8539050769022895
 40
0.8539050769022895
 40
0.8539050769022895
 40
0.8539050769022895
 40
0.8539050769022895
 40
0.8539050769022895
 40
0.8539050769022895
 40
0.8584849860521077
 40
0.8584849860521077
 40
0.8584849860521077
 40
0.8584849860521077
 40
0.8584849860521077
 40
0.8584849860521077
 40
0.8584849860521077
 40
0.8617156128689119
 40
0.8617156128689119
 40
0.8617156128689119
 40
0.8617156128689119
 40
0.8617156128689119
 40
0.8617156128689119
 40
0.8617156128689119
 40
0.8633309262773151
 40
0.8633309262773151
 40
0.8633309262773151
 40
0.8633309262773151
 40
0.8633309262773151
 40
0.8633309262773151
 40
0.8633309262773151
 40
0.8653262993279806
 40
0.8653262993279806
 40
0.8653262993279806
 40
0.8653262993279806
 40
0.8653262993279806
 40
0.8653262993279806
 40
0.8653262993279806
 40
0.8745626660359064
 40
0.8745626660359064
 40
0.8745626660359064
 40
0.8745626660359064
 40
0.8745626660359064
 40
0.8745626660359064
 40
0.8745626660359064
 40
0.8906549167569829
 40
0.8906549167569829
 40
0.8906549167569829
 40
0.8906549167569829
 40
0.8906549167569829
 40
0.8906549167569829
 40
0.8906549167569829
 40
0.9089405846401144
 40
0.9089405846401144
 40
0.9089405846401144
 40
0.9089405846401144
 40
0.9089405846401144
 40
0.9089405846401144
 40
0.9089405846401144
 40
0.9249296565755162
 40
0.9249296565755162
 40
0.9249296565755162
 40
0.9249296565755162
 40
0.9249296565755162
 40
0.9249296565755162
 40
0.9249296565755162
 40
0.9380803906855203
 40
0.9380803906855203
 40
0.9380803906855203
 40
0.9380803906855203
 40
0.9380803906855203
 40
0.9380803906855203
 40
0.9380803906855203
 40
0.9560225655336011
 40
0.9560225655336011
 40
0.9560225655336011
 40
0.9560225655336011
 40
0.9560225655336011
 40
0.9560225655336011
 40
0.9560225655336011
 40
0.9725297505756747
 40
0.9725297505756747
 40
0.9725297505756747
 40
0.9725297505756747
 40
0.9725297505756747
 40
0.9725297505756747
 40
0.9725297505756747
 40
0.9825136110012869
 40
0.9825136110012869
 40
0.9825136110012869
 40
0.9825136110012869
 40
0.9825136110012869
 40
0.9825136110012869
 40
0.9825136110012869
 40
0.9862948061208303
 40
0.9862948061208303
 40
0.9862948061208303
 40
0.9862948061208303
 40
0.9862948061208303
 40
0.9862948061208303
 40
0.9862948061208303
 40
0.9899600365979124
 40
0.9899600365979124
 40
0.9899600365979124
 40
0.9899600365979124
 40
0.9899600365979124
 40
0.9899600365979124
 40
0.9899600365979124
 40
0.99424193180434
 40
0.99424193180434
 40
0.99424193180434
 40
0.99424193180434
 40
0.99424193180434
 40
0.99424193180434
 40
0.99424193180434
 40
0.996469991420699
 40
0.996469991420699
 40
0.996469991420699
 40
0.996469991420699
 40
0.996469991420699
 40
0.996469991420699
 40
0.996469991420699
 40
0.9977093624175263
 40
0.9977093624175263
 40
0.9977093624175263
 40
0.9977093624175263
 40
0.9977093624175263
 40
0.9977093624175263
 40
0.9977093624175263
 40
0.9987695855900003
 40
0.9987695855900003
 40
0.9987695855900003
 40
0.9987695855900003
 40
0.9987695855900003
 40
0.9987695855900003
 40
0.9987695855900003
 40
0.9993651466074633
 40
0.9993651466074633
 40
0.9993651466074633
 40
0.9993651466074633
 40
0.9993651466074633
 40
0.9993651466074633
 40
0.9993651466074633
 40
0.999657002760511
 40
0.999657002760511
 40
0.999657002760511
 40
0.999657002760511
 40
0.999657002760511
 40
0.999657002760511
 40
0.999657002760511
 40
0.9997793792219009
 40
0.9997793792219009
 40
0.9997793792219009
 40
0.9997793792219009
 40
0.9997793792219009
 40
0.9997793792219009
 40
0.9997793792219009
 40
1.0
 40
1.0
 40
1.0
 40
1.0
 40
1.0
 40
1.0
 40
1.0
 40
1.0
 40
1.0
 10
36.95648946069567
 20
170.65156989041938
 30
1731.0
 10
36.95638197813471
 20
170.65168029591433
 30
1731.0
 10
36.95640493093847
 20
170.65152989959398
 30
1731.0
 10
36.956473985628286
 20
170.651355717956
 30
1731.0
 10
36.956532350485126
 20
170.6512753934371
 30
1731.0
 10
36.95655077554969
 20
170.65128719441347
 30
1731.0
 10
36.95652755262233
 20
170.65127001520062
 30
1731.0
 10
36.95648851526311
 20
170.65098337605343
 30
1731.0
 10
36.95648550181432
 20
170.6491139343323
 30
1731.0
 10
36.95648322168294
 20
170.64769941793034
 30
1731.0
 10
36.95647998879011
 20
170.6456938405438
 30
1731.0
 10
36.9564755935283
 20
170.64296716875594
 30
1731.0
 10
36.95646982629
 20
170.63938936915025
 30
1731.0
 10
36.956462477467674
 20
170.63483040831002
 30
1731.0
 10
36.95645333745383
 20
170.62916025281865
 30
1731.0
 10
36.956429941746755
 20
170.61464634734432
 30
1731.0
 10
36.95641526588573
 20
170.6055419394673
 30
1731.0
 10
36.95639789007025
 20
170.59476257115068
 30
1731.0
 10
36.95637753531269
 20
170.58213516791704
 30
1731.0
 10
36.95635392262544
 20
170.56748665528883
 30
1731.0
 10
36.95632677302091
 20
170.5506439587885
 30
1731.0
 10
36.9562958075115
 20
170.5314340039386
 30
1731.0
 10
36.95622249939838
 20
170.48595612970485
 30
1731.0
 10
36.9561793784267
 20
170.45920533713885
 30
1731.0
 10
36.956131021992746
 20
170.42920664081973
 30
1731.0
 10
36.95607706789468
 20
170.39573534300365
 30
1731.0
 10
36.95601715393075
 20
170.3585667459467
 30
1731.0
 10
36.95595091789914
 20
170.31747615190486
 30
1731.0
 10
36.955877997598066
 20
170.2722388631342
 30
1731.0
 10
36.955680727391844
 20
170.14985909848306
 30
1731.0
 10
36.955562618313756
 20
170.07658822072548
 30
1731.0
 10
36.955444031469845
 20
170.00302095287347
 30
1731.0
 10
36.95532511386805
 20
169.92924849470356
 30
1731.0
 10
36.95520598365132
 20
169.85534413660324
 30
1731.0
 10
36.95508668785561
 20
169.78133705946962
 30
1731.0
 10
36.95496724768832
 20
169.70724041888164
 30
1731.0
 10
36.95461424026689
 20
169.488246552634
 30
1731.0
 10
36.95438039481864
 20
169.34317674472015
 30
1731.0
 10
36.95414626618467
 20
169.19793125795636
 30
1731.0
 10
36.95391193872077
 20
169.0525624238517
 30
1731.0
 10
36.9536774688401
 20
168.9071052391888
 30
1731.0
 10
36.953442892447974
 20
168.7615819784057
 30
1731.0
 10
36.95320822023269
 20
168.61599927219896
 30
1731.0
 10
36.95260705824503
 20
168.2430587051475
 30
1731.0
 10
36.95224047786466
 20
168.01564463416852
 30
1731.0
 10
36.9518737613615
 20
167.7881461172683
 30
1731.0
 10
36.95150694204045
 20
167.5605838155685
 30
1731.0
 10
36.9511400432098
 20
167.33297218878056
 30
1731.0
 10
36.95077308073635
 20
167.10532108023006
 30
1731.0
 10
36.95040606300449
 20
166.87763569118474
 30
1731.0
 10
36.94924667978928
 20
166.15839355249332
 30
1731.0
 10
36.94845415226292
 20
165.66673627682573
 30
1731.0
 10
36.94766147992508
 20
165.17498916504297
 30
1731.0
 10
36.94686870250929
 20
164.68317686642115
 30
1731.0
 10
36.946075846984876
 20
164.19131611185355
 30
1731.0
 10
36.94528293099438
 20
163.69941784620235
 30
1731.0
 10
36.944489961889964
 20
163.2074866304467
 30
1731.0
 10
36.943137550277655
 20
162.36849620203034
 30
1731.0
 10
36.94255952311142
 20
162.00990769582322
 30
1731.0
 10
36.94196249681474
 20
161.63953277159413
 30
1731.0
 10
36.94134610918581
 20
161.2571467315986
 30
1731.0
 10
36.940709998022825
 20
160.86252487809256
 30
1731.0
 10
36.940053801124
 20
160.45544251333226
 30
1731.0
 10
36.93937715628755
 20
160.03567493957416
 30
1731.0
 10
36.938330973823724
 20
159.38665871882517
 30
1731.0
 10
36.93797704380094
 20
159.16709250188978
 30
1731.0
 10
36.937617865968065
 20
158.944270721051
 30
1731.0
 10
36.93725339504988
 20
158.71816528909073
 30
1731.0
 10
36.93688358577118
 20
158.4887481187912
 30
1731.0
 10
36.936508392856716
 20
158.25599112293426
 30
1731.0
 10
36.93612777103127
 20
158.01986621430189
 30
1731.0
 10
36.935264736266205
 20
157.48446863217126
 30
1731.0
 10
36.93478780069872
 20
157.18858872095586
 30
1731.0
 10
36.93431085286561
 20
156.8927057794941
 30
1731.0
 10
36.93383388865211
 20
156.59682000829005
 30
1731.0
 10
36.93335691528037
 20
156.30093160088808
 30
1731.0
 10
36.93287995130941
 20
156.00504074387234
 30
1731.0
 10
36.93240302663511
 20
155.7091476168671
 30
1731.0
 10
36.929718936612126
 20
154.04359414830108
 30
1731.0
 10
36.92751332291742
 20
152.6738916818714
 30
1731.0
 10
36.92531200203308
 20
151.3041586132162
 30
1731.0
 10
36.92311626974758
 20
149.93440243608623
 30
1731.0
 10
36.92092705977047
 20
148.56462831850124
 30
1731.0
 10
36.91874513620871
 20
147.19483982623166
 30
1731.0
 10
36.9165710216037
 20
145.82503866715226
 30
1731.0
 10
36.91063188407638
 20
142.06871248101012
 30
1731.0
 10
36.906883751684326
 20
139.68216716958088
 30
1731.0
 10
36.90316329841235
 20
137.29559835982357
 30
1731.0
 10
36.8994722114889
 20
134.909011351657
 30
1731.0
 10
36.8958119742161
 20
132.52240990783412
 30
1731.0
 10
36.892184014715035
 20
130.13579674388114
 30
1731.0
 10
36.888589697161045
 20
127.74917351255714
 30
1731.0
 10
36.88098628778601
 20
122.6507557678103
 30
1731.0
 10
36.87698740217661
 20
119.93895934894648
 30
1731.0
 10
36.873035866941485
 20
117.22715406834192
 30
1731.0
 10
36.86913382535841
 20
114.51534155278857
 30
1731.0
 10
36.86528355536174
 20
111.80352308208046
 30
1731.0
 10
36.86148753367328
 20
109.09169969812308
 30
1731.0
 10
36.857748496229824
 20
106.37987226210686
 30
1731.0
 10
36.850852793061414
 20
101.29697649271402
 30
1731.0
 10
36.84768204282582
 20
98.92590900697414
 30
1731.0
 10
36.844559149625155
 20
96.55483950403806
 30
1731.0
 10
36.84148637247837
 20
94.18376843753242
 30
1731.0
 10
36.83846626902876
 20
91.81269622450444
 30
1731.0
 10
36.8355016405736
 20
89.44162325672939
 30
1731.0
 10
36.83259547709383
 20
87.07054991201852
 30
1731.0
 10
36.82741146455018
 20
82.74945632480726
 30
1731.0
 10
36.82511297734
 20
80.79943608915936
 30
1731.0
 10
36.82285358968101
 20
78.84941607254139
 30
1731.0
 10
36.82063162241848
 20
76.89939649110256
 30
1731.0
 10
36.818445547432546
 20
74.94937756735811
 30
1731.0
 10
36.81629396685552
 20
72.9993595343642
 30
1731.0
 10
36.81417559228921
 20
71.04934263989294
 30
1731.0
 10
36.809242882459586
 20
66.43900575702153
 30
1731.0
 10
36.806456112439975
 20
63.7786870276165
 30
1731.0
 10
36.80372587851894
 20
61.11837159155864
 30
1731.0
 10
36.80104946616382
 20
58.45806020858016
 30
1731.0
 10
36.798424423401315
 20
55.79775377760844
 30
1731.0
 10
36.795848504032335
 20
53.13745338060286
 30
1731.0
 10
36.79331961241431
 20
50.477160361598564
 30
1731.0
 10
36.788550674664
 20
45.3694992540555
 30
1731.0
 10
36.7863037103856
 20
42.92213021169516
 30
1731.0
 10
36.784093292319525
 20
40.47477027881736
 30
1731.0
 10
36.781917940495966
 20
38.027420993714685
 30
1731.0
 10
36.77977615904453
 20
35.580084760126795
 30
1731.0
 10
36.77766643016042
 20
33.132764864633565
 30
1731.0
 10
36.775587090716165
 20
30.68546587610899
 30
1731.0
 10
36.772295309278405
 20
26.75808826505176
 30
1731.0
 10
36.77106503115599
 20
25.27799289191008
 30
1731.0
 10
36.76984452553093
 20
23.797909762568544
 30
1731.0
 10
36.76863324412219
 20
22.317840590503977
 30
1731.0
 10
36.767430420241595
 20
20.83778877726681
 30
1731.0
 10
36.76623512846896
 20
19.357759214880524
 30
1731.0
 10
36.76504610368135
 20
17.8777589577491
 30
1731.0
 10
36.76341193301805
 20
15.837299369066216
 30
1731.0
 10
36.76297412292665
 20
15.289945969940561
 30
1731.0
 10
36.76254745104142
 20
14.756263666362116
 30
1731.0
 10
36.76213264207627
 20
14.236568092447925
 30
1731.0
 10
36.761728273480976
 20
13.730971079674845
 30
1731.0
 10
36.76133554745711
 20
13.239374165855736
 30
1731.0
 10
36.76095362979786
 20
12.76147502569043
 30
1731.0
 10
36.760222299222555
 20
11.84630471837473
 30
1731.0
 10
36.7598623353725
 20
11.39585410237592
 30
1731.0
 10
36.75950237906901
 20
10.945412812055347
 30
1731.0
 10
36.75914243118576
 20
10.494981932584327
 30
1731.0
 10
36.75878249285399
 20
10.044562870352282
 30
1731.0
 10
36.758422565521435
 20
9.594157425958254
 30
1731.0
 10
36.75806265101091
 20
9.143767867202413
 30
1731.0
 10
36.757282300011575
 20
8.167252419909051
 30
1731.0
 10
36.75686187218219
 20
7.641137303540042
 30
1731.0
 10
36.75644146880352
 20
7.115052518641448
 30
1731.0
 10
36.75602109338953
 20
6.589002431875429
 30
1731.0
 10
36.755600753703916
 20
6.0629967176563895
 30
1731.0
 10
36.75518046148079
 20
5.537050008580735
 30
1731.0
 10
36.75476023387263
 20
5.011183698930793
 30
1731.0
 10
36.7541214857673
 20
4.211863350476651
 30
1731.0
 10
36.753902901460336
 20
3.9383298825877446
 30
1731.0
 10
36.753684347970896
 20
3.6648348055170317
 30
1731.0
 10
36.75346582969887
 20
3.391383605413722
 30
1731.0
 10
36.75324735654831
 20
3.117988648946337
 30
1731.0
 10
36.75302894352624
 20
2.844668681774884
 30
1731.0
 10
36.752810612594196
 20
2.571451140443724
 30
1731.0
 10
36.75247102001977
 20
2.146487180754008
 30
1731.0
 10
36.752355750687144
 20
2.002239762858437
 30
1731.0
 10
36.75224641381709
 20
1.8654160796342438
 30
1731.0
 10
36.752142829882466
 20
1.73579147886317
 30
1731.0
 10
36.752044819356115
 20
1.6131413083268658
 30
1731.0
 10
36.75195220271087
 20
1.4972409158068885
 30
1731.0
 10
36.75186480041956
 20
1.3878656490847023
 30
1731.0
 10
36.751711971366205
 20
1.1966150970299871
 30
1731.0
 10
36.751641572260674
 20
1.1085174436899905
 30
1731.0
 10
36.75157123300825
 20
1.0204945941895396
 30
1731.0
 10
36.751500959727885
 20
0.9325541933299348
 30
1731.0
 10
36.75143077562679
 20
0.8447252652085915
 30
1731.0
 10
36.751360717394014
 20
0.7570537008875462
 30
1731.0
 10
36.75129083989716
 20
0.6696081311399205
 30
1731.0
 10
36.75118215786082
 20
0.5336017024217767
 30
1731.0
 10
36.75114322904384
 20
0.4848854855987952
 30
1731.0
 10
36.751104413387814
 20
0.4363107940456814
 30
1731.0
 10
36.75106572415665
 20
0.3878942114923518
 30
1731.0
 10
36.75102719163818
 20
0.33967362421364555
 30
1731.0
 10
36.75098896079667
 20
0.29183041245431696
 30
1731.0
 10
36.75095117999628
 20
0.24455020983407394
 30
1731.0
 10
36.75089618569722
 20
0.17572802328990633
 30
1731.0
 10
36.75087848136749
 20
0.15357200950410288
 30
1731.0
 10
36.75086103863474
 20
0.13174329139727092
 30
1731.0
 10
36.750843869469186
 20
0.1102568357754592
 30
1731.0
 10
36.75082719853086
 20
0.0893937669235072
 30
1731.0
 10
36.7508113550076
 20
0.06956602689072611
 30
1731.0
 10
36.75079696709128
 20
0.05155972492616456
 30
1731.0
 10
36.75077785531978
 20
0.027641180397683485
 30
1731.0
 10
36.750771609957596
 20
0.019824959057402225
 30
1731.0
 10
36.75076637266825
 20
0.013270245679983361
 30
1731.0
 10
36.750762321534275
 20
0.008199921476460759
 30
1731.0
 10
36.75075947493375
 20
0.0046370179269139555
 30
1731.0
 10
36.75075768429191
 20
0.0023956413392411946
 30
1731.0
 10
36.75075667716405
 20
0.0011348797685215573
 30
1731.0
 10
36.7507556549055
 20
-0.0001449842843328497
 30
1731.0
 10
36.75075578092473
 20
-0.00015395641022004317
 30
1731.0
 10
36.75075574672523
 20
0.00010028766506309239
 30
1731.0
 10
36.75075560829336
 20
0.000269976060372252
 30
1731.0
 10
36.75075577184641
 20
-1.4021524077431199e-05
 30
1731.0
 10
36.750756654487674
 20
-0.0011349652415353667
 30
1731.0
 10
36.75075851143022
 20
-0.0034309636385430058
 30
1731.0
 10
36.750763785783086
 20
-0.01003244786147661
 30
1731.0
 10
36.75076688910449
 20
-0.013916527290764489
 30
1731.0
 10
36.75077087803497
 20
-0.018908916998871712
 30
1731.0
 10
36.75077589085614
 20
-0.025182656397053697
 30
1731.0
 10
36.750782065849634
 20
-0.032910784896578046
 30
1731.0
 10
36.750789541297074
 20
-0.04226634190872452
 30
1731.0
 10
36.750798455480094
 20
-0.053422366844785074
 30
1731.0
 10
36.75081943788059
 20
-0.07968143138737105
 30
1731.0
 10
36.75083150609804
 20
-0.09478447099379292
 30
1731.0
 10
36.75084528961432
 20
-0.11203405734666406
 30
1731.0
 10
36.750860926711056
 20
-0.13160322985729392
 30
1731.0
 10
36.75087855566988
 20
-0.1536650279369667
 30
1731.0
 10
36.75089831477242
 20
-0.17839249099694146
 30
1731.0
 10
36.75092034230031
 20
-0.20595865844845207
 30
1731.0
 10
36.75096698947596
 20
-0.26433467084292767
 30
1731.0
 10
36.75099119143077
 20
-0.2946218164483594
 30
1731.0
 10
36.751017486292625
 20
-0.3275280135897844
 30
1731.0
 10
36.7510459779546
 20
-0.36318326933800177
 30
1731.0
 10
36.75107677030967
 20
-0.4017175907638273
 30
1731.0
 10
36.75110996725092
 20
-0.4432609849380944
 30
1731.0
 10
36.75114567267134
 20
-0.48794345893165314
 30
1731.0
 10
36.75122230825666
 20
-0.5838465806993155
 30
1731.0
 10
36.75126323842153
 20
-0.635067228472993
 30
1731.0
 10
36.751306884851665
 20
-0.6896869702075443
 30
1731.0
 10
36.75135335144009
 20
-0.7478358129739869
 30
1731.0
 10
36.75140274207983
 20
-0.8096437638432141
 30
1731.0
 10
36.75145516066394
 20
-0.8752408298859962
 30
1731.0
 10
36.75151071108544
 20
-0.9447570181729789
 30
1731.0
 10
36.751685179227984
 20
-1.1630874225135592
 30
1731.0
 10
36.751801081401176
 20
-1.3081277305743697
 30
1731.0
 10
36.75191712417897
 20
-1.4533437525967727
 30
1731.0
 10
36.752033265702394
 20
-1.59868314665421
 30
1731.0
 10
36.752149477976914
 20
-1.7441109092206055
 30
1731.0
 10
36.7522657431811
 20
-1.8896047615670142
 30
1731.0
 10
36.7523820560019
 20
-2.0351580712352373
 30
1731.0
 10
36.75268001568167
 20
-2.4080230974895933
 30
1731.0
 10
36.752861707600744
 20
-2.635391035511148
 30
1731.0
 10
36.753043467199646
 20
-2.8628434366193574
 30
1731.0
 10
36.75322527793816
 20
-3.090359635385113
 30
1731.0
 10
36.75340712823985
 20
-3.3179251692810467
 30
1731.0
 10
36.75358901022181
 20
-3.545530193079145
 30
1731.0
 10
36.75377091971429
 20
-3.773169504262512
 30
1731.0
 10
36.75434555916228
 20
-4.492265873282566
 30
1731.0
 10
36.754738369835046
 20
-4.983823477683458
 30
1731.0
 10
36.75513125267979
 20
-5.475470936151819
 30
1731.0
 10
36.755524187937866
 20
-5.967183595010283
 30
1731.0
 10
36.75591716219431
 20
-6.458944719766283
 30
1731.0
 10
36.75631016666712
 20
-6.950743363024664
 30
1731.0
 10
36.75670319768667
 20
-7.442574963307816
 30
1731.0
 10
36.757373513783136
 20
-8.281395472441714
 30
1731.0
 10
36.757660010147525
 20
-8.639911325794225
 30
1731.0
 10
36.75795592343349
 20
-9.010211209147801
 30
1731.0
 10
36.7582614331682
 20
-9.392519774721016
 30
1731.0
 10
36.758576718878814
 20
-9.78706167473233
 30
1731.0
 10
36.758901960092494
 20
-10.194061561400082
 30
1731.0
 10
36.7592373363364
 20
-10.61374408694249
 30
1731.0
 10
36.75975587253834
 20
-11.262628811895324
 30
1731.0
 10
36.75993129657834
 20
-11.482150542986268
 30
1731.0
 10
36.760109321698586
 20
-11.704927178377785
 30
1731.0
 10
36.76028997033996
 20
-11.930986799597182
 30
1731.0
 10
36.76047326494336
 20
-12.16035748817176
 30
1731.0
 10
36.760659227949695
 20
-12.393067325628815
 30
1731.0
 10
36.76084788179986
 20
-12.629144393495638
 30
1731.0
 10
36.76127564196022
 20
-13.164433504934124
 30
1731.0
 10
36.761512046015866
 20
-13.460253474921704
 30
1731.0
 10
36.761748445145635
 20
-13.756076475790879
 30
1731.0
 10
36.7619848347492
 20
-14.05190230700672
 30
1731.0
 10
36.76222122158199
 20
-14.347730774970755
 30
1731.0
 10
36.76245762375519
 20
-14.643561693020947
 30
1731.0
 10
36.76269407073576
 20
-14.939394881431726
 30
1731.0
 10
36.764025487297985
 20
-16.604619808896885
 30
1731.0
 10
36.765122111000835
 20
-17.974053678377757
 30
1731.0
 10
36.76622310266368
 20
-19.343518147290816
 30
1731.0
 10
36.7673297401686
 20
-20.713005716619648
 30
1731.0
 10
36.768442944842015
 20
-22.082511215276252
 30
1731.0
 10
36.76956347222595
 20
-23.45203107511481
 30
1731.0
 10
36.77069184072442
 20
-24.821563585942243
 30
1731.0
 10
36.773808975054294
 20
-28.577225143235665
 30
1731.0
 10
36.77581468506603
 20
-30.9633744408371
 30
1731.0
 10
36.77784813718646
 20
-33.34954717780616
 30
1731.0
 10
36.77991100554337
 20
-35.735738049108576
 30
1731.0
 10
36.78200476390786
 20
-38.12194328703202
 30
1731.0
 10
36.78413083328774
 20
-40.508160171584606
 30
1731.0
 10
36.786290573168785
 20
-42.89438704691214
 30
1731.0
 10
36.79097940073295
 20
-47.99210920388198
 30
1731.0
 10
36.79351870528087
 20
-50.703606368544015
 30
1731.0
 10
36.79610539020033
 20
-53.41511228622819
 30
1731.0
 10
36.798741593751934
 20
-56.12662532440116
 30
1731.0
 10
36.80142958946293
 20
-58.838144197408944
 30
1731.0
 10
36.804171849946655
 20
-61.54966785720699
 30
1731.0
 10
36.806971107104864
 20
-64.26119543599003
 30
1731.0
 10
36.81233059516385
 20
-69.34370122337013
 30
1731.0
 10
36.8148767461393
 20
-71.71467861759804
 30
1731.0
 10
36.81747076463941
 20
-74.08565791721465
 30
1731.0
 10
36.8201149071824
 20
-76.45663866313711
 30
1731.0
 10
36.822811728701204
 20
-78.82762043221469
 30
1731.0
 10
36.825564027440315
 20
-81.1986028260527
 30
1731.0
 10
36.82837478985268
 20
-83.5695854598366
 30
1731.0
 10
36.83360958992719
 20
-87.89065989200047
 30
1731.0
 10
36.83601299739916
 20
-89.84075173184206
 30
1731.0
 10
36.83845550474601
 20
-91.79084326104996
 30
1731.0
 10
36.84093543088681
 20
-93.74093426741953
 30
1731.0
 10
36.84345124599063
 20
-95.69102453204852
 30
1731.0
 10
36.84600155064088
 20
-97.64111382521303
 30
1731.0
 10
36.848585054999745
 20
-99.59120190224348
 30
1731.0
 10
36.85476901363928
 20
-104.20188481306816
 30
1731.0
 10
36.85839703439873
 20
-106.86247832321025
 30
1731.0
 10
36.86208158082699
 20
-109.52306840786224
 30
1731.0
 10
36.8658199345905
 20
-112.18365431387008
 30
1731.0
 10
36.86960963994573
 20
-114.84423514836828
 30
1731.0
 10
36.8734484467586
 20
-117.5048098350831
 30
1731.0
 10
36.87733425504367
 20
-120.16537703546143
 30
1731.0
 10
36.88488148669157
 20
-125.27370536231612
 30
1731.0
 10
36.88853600003699
 20
-127.72146745762383
 30
1731.0
 10
36.89222703311296
 20
-130.16922035979053
 30
1731.0
 10
36.89595310142935
 20
-132.61696253407183
 30
1731.0
 10
36.89971270266199
 20
-135.0646915811523
 30
1731.0
 10
36.90350431054376
 20
-137.5124042193058
 30
1731.0
 10
36.90732625053249
 20
-139.96009588483335
 30
1731.0
 10
36.91350479325894
 20
-143.8881528223277
 30
1731.0
 10
36.91584360539344
 20
-145.36853488110341
 30
1731.0
 10
36.91819215854806
 20
-146.84890467588374
 30
1731.0
 10
36.92054990026219
 20
-148.32926049513443
 30
1731.0
 10
36.922916055653836
 20
-149.8095989398798
 30
1731.0
 10
36.92528968756293
 20
-151.28991512138472
 30
1731.0
 10
36.927669514002744
 20
-152.77020199008942
 30
1731.0
 10
36.93095568350944
 20
-154.8110612686957
 30
1731.0
 10
36.93183776041263
 20
-155.35852540061472
 30
1731.0
 10
36.93269800920053
 20
-155.89231583478028
 30
1731.0
 10
36.933536393207056
 20
-156.41211676216895
 30
1731.0
 10
36.934351220380066
 20
-156.91781626357744
 30
1731.0
 10
36.935143930080415
 20
-157.40951279261296
 30
1731.0
 10
36.93591441726465
 20
-157.88750875268136
 30
1731.0
 10
36.93738992606794
 20
-158.80286451548153
 30
1731.0
 10
36.938116177595326
 20
-159.25340640270588
 30
1731.0
 10
36.93884241409326
 20
-159.7039389661579
 30
1731.0
 10
36.93956863381286
 20
-160.1544611208876
 30
1731.0
 10
36.940294834487524
 20
-160.60497146079197
 30
1731.0
 10
36.94102101321538
 20
-161.0554681856386
 30
1731.0
 10
36.94174716634158
 20
-161.50594902808947
 30
1731.0
 10
36.94332158049423
 20
-162.4826623248501
 30
1731.0
 10
36.94416982415996
 20
-163.00888400915736
 30
1731.0
 10
36.945018018942896
 20
-163.53507536825182
 30
1731.0
 10
36.9458661578055
 20
-164.0612320362443
 30
1731.0
 10
36.946714225156335
 20
-164.58734434075456
 30
1731.0
 10
36.947562197413234
 20
-165.1133976522199
 30
1731.0
 10
36.948410040096505
 20
-165.63937058056712
 30
1731.0
 10
36.94969876661977
 20
-166.43885293344624
 30
1731.0
 10
36.95013977846947
 20
-166.7124417708586
 30
1731.0
 10
36.950580728447704
 20
-166.9859922253213
 30
1731.0
 10
36.951021607712846
 20
-167.25949881174807
 30
1731.0
 10
36.95146239633444
 20
-167.53294916599012
 30
1731.0
 10
36.951903064101536
 20
-167.8063245462003
 30
1731.0
 10
36.952343566796586
 20
-168.07959752129221
 30
1731.0
 10
36.95302872697679
 20
-168.50464772633111
 30
1731.0
 10
36.953261293892375
 20
-168.64892437581173
 30
1731.0
 10
36.953481891685044
 20
-168.7857757862091
 30
1731.0
 10
36.9536908825566
 20
-168.91542665526703
 30
1731.0
 10
36.95388862870882
 20
-169.03810168072945
 30
1731.0
 10
36.95407549234351
 20
-169.15402556034033
 30
1731.0
 10
36.95425183566247
 20
-169.26342299184356
 30
1731.0
 10
36.954560184437334
 20
-169.45471214403094
 30
1731.0
 10
36.95470222212903
 20
-169.54282752450757
 30
1731.0
 10
36.9548441392649
 20
-169.63086811628781
 30
1731.0
 10
36.95498592352481
 20
-169.71882627625808
 30
1731.0
 10
36.95512752813239
 20
-169.8066729859889
 30
1731.0
 10
36.95526887912752
 20
-169.89436236318227
 30
1731.0
 10
36.95540986590075
 20
-169.98182578940393
 30
1731.0
 10
36.9556291459459
 20
-170.11785971380223
 30
1731.0
 10
36.95570768958415
 20
-170.16658553075635
 30
1731.0
 10
36.95578600513668
 20
-170.21516985116173
 30
1731.0
 10
36.955864065877584
 20
-170.26359609481796
 30
1731.0
 10
36.955941810766596
 20
-170.31182639490902
 30
1731.0
 10
36.95601894744915
 20
-170.35967938408618
 30
1731.0
 10
36.95609517675616
 20
-170.4069694682583
 30
1731.0
 10
36.956206137208916
 20
-170.47580558068486
 30
1731.0
 10
36.95624185781274
 20
-170.49796543529462
 30
1731.0
 10
36.956277050927795
 20
-170.51979805377815
 30
1731.0
 10
36.956311692570004
 20
-170.54128855688967
 30
1731.0
 10
36.95634532964855
 20
-170.56215586316188
 30
1731.0
 10
36.95637729807223
 20
-170.58198799190671
 30
1731.0
 10
36.95640633054921
 20
-170.59999875886461
 30
1731.0
 10
36.956441147671065
 20
-170.6215981238158
 30
1731.0
 10
36.95645005803476
 20
-170.6271258121168
 30
1731.0
 10
36.9564577000824
 20
-170.631866680035
 30
1731.0
 10
36.95646418113304
 20
-170.6358873046797
 30
1731.0
 10
36.956469608505735
 20
-170.63925426316027
 30
1731.0
 10
36.95647408951954
 20
-170.64203413258602
 30
1731.0
 10
36.95647773149349
 20
-170.64429349006627
 30
1731.0
 10
36.956485888362806
 20
-170.64935373593366
 30
1731.0
 10
36.956578541529616
 20
-170.6495156819281
 30
1731.0
 10
36.95653678080848
 20
-170.64972835003684
 30
1731.0
 10
36.95641082934098
 20
-170.6506954641127
 30
1731.0
 10
36.9563604245016
 20
-170.6517662774369
 30
1731.0
 10
36.95649228855032
 20
-170.65202097763702
 30
1731.0
 10
36.95669759928535
 20
-170.6513560916058
 30
1731.0
 10
36.95648946069567
 20
-170.65156989041938
 30
1731.0
  0
ENDSEC
  0
SECTION
  2
OBJECTS
  0
DICTIONARY
  5
A
330
0
100
AcDbDictionary
281
1
  3
ACAD_COLOR
350
B
  3
ACAD_GROUP
350
C
  3
ACAD_LAYOUT
350
D
  3
ACAD_MATERIAL
350
E
  3
ACAD_MLEADERSTYLE
350
F
  3
ACAD_MLINESTYLE
350
10
  3
ACAD_PLOTSETTINGS
350
11
  3
ACAD_PLOTSTYLENAME
350
12
  3
ACAD_SCALELIST
350
14
  3
ACAD_TABLESTYLE
350
15
  3
ACAD_VISUALSTYLE
350
16
  3
EZDXF_META
350
2D
  0
DICTIONARY
  5
B
330
A
100
AcDbDictionary
281
1
  0
DICTIONARY
  5
C
330
A
100
AcDbDictionary
281
1
  0
DICTIONARY
  5
D
330
A
100
AcDbDictionary
281
1
  3
Model
350
1A
  3
Layout1
350
1E
  0
DICTIONARY
  5
E
330
A
100
AcDbDictionary
281
1
  3
ByBlock
350
1F
  3
ByLayer
350
20
  3
Global
350
21
  0
DICTIONARY
  5
F
330
A
100
AcDbDictionary
281
1
  3
Standard
350
2C
  0
DICTIONARY
  5
10
330
A
100
AcDbDictionary
281
1
  3
Standard
350
22
  0
DICTIONARY
  5
11
330
A
100
AcDbDictionary
281
1
  0
ACDBDICTIONARYWDFLT
  5
12
330
A
100
AcDbDictionary
281
1
  3
Normal
350
13
100
AcDbDictionaryWithDefault
340
13
  0
ACDBPLACEHOLDER
  5
13
330
12
  0
DICTIONARY
  5
14
330
A
100
AcDbDictionary
281
1
  0
DICTIONARY
  5
15
330
A
100
AcDbDictionary
281
1
  0
DICTIONARY
  5
16
330
A
100
AcDbDictionary
281
1
  0
LAYOUT
  5
1A
330
D
100
AcDbPlotSettings
  1

  2
Adobe PDF
  4
A3
  6

 40
7.5
 41
20.0
 42
7.5
 43
20.0
 44
420.0
 45
297.0
 46
0.0
 47
0.0
 48
0.0
 49
0.0
140
0.0
141
0.0
142
1.0
143
1.0
 70
1024
 72
1
 73
1
 74
5
  7

 75
16
 76
0
 77
2
 78
300
147
1.0
148
0.0
149
0.0
100
AcDbLayout
  1
Model
 70
1
 71
0
 10
0.0
 20
0.0
 11
420.0
 21
297.0
 12
0.0
 22
0.0
 32
0.0
 14
1e+20
 24
1e+20
 34
1e+20
 15
-1e+20
 25
-1e+20
 35
-1e+20
146
0.0
 13
0.0
 23
0.0
 33
0.0
 16
1.0
 26
0.0
 36
0.0
 17
0.0
 27
1.0
 37
0.0
 76
1
330
17
  0
LAYOUT
  5
1E
330
D
100
AcDbPlotSettings
  1

  2
Adobe PDF
  4
A3
  6

 40
7.5
 41
20.0
 42
7.5
 43
20.0
 44
420.0
 45
297.0
 46
0.0
 47
0.0
 48
0.0
 49
0.0
140
0.0
141
0.0
142
1.0
143
1.0
 70
0
 72
1
 73
1
 74
5
  7

 75
16
 76
0
 77
2
 78
300
147
1.0
148
0.0
149
0.0
100
AcDbLayout
  1
Layout1
 70
1
 71
1
 10
0.0
 20
0.0
 11
420.0
 21
297.0
 12
0.0
 22
0.0
 32
0.0
 14
1e+20
 24
1e+20
 34
1e+20
 15
-1e+20
 25
-1e+20
 35
-1e+20
146
0.0
 13
0.0
 23
0.0
 33
0.0
 16
1.0
 26
0.0
 36
0.0
 17
0.0
 27
1.0
 37
0.0
 76
1
330
1B
  0
MATERIAL
  5
1F
102
{ACAD_REACTORS
330
E
102
}
330
E
100
AcDbMaterial
  1
ByBlock
  2

 70
0
 40
1.0
 71
1
 41
1.0
 91
-1023410177
 42
1.0
 72
1
  3

 73
1
 74
1
 75
1
 44
0.5
 73
0
 45
1.0
 46
1.0
 77
1
  4

 78
1
 79
1
170
1
 48
1.0
171
1
  6

172
1
173
1
174
1
140
1.0
141
1.0
175
1
  7

176
1
177
1
178
1
143
1.0
179
1
  8

270
1
271
1
272
1
145
1.0
146
1.0
273
1
  9

274
1
275
1
276
1
 42
1.0
 72
1
  3

 73
1
 74
1
 75
1
 94
63
  0
MATERIAL
  5
20
102
{ACAD_REACTORS
330
E
102
}
330
E
100
AcDbMaterial
  1
ByLayer
  2

 70
0
 40
1.0
 71
1
 41
1.0
 91
-1023410177
 42
1.0
 72
1
  3

 73
1
 74
1
 75
1
 44
0.5
 73
0
 45
1.0
 46
1.0
 77
1
  4

 78
1
 79
1
170
1
 48
1.0
171
1
  6

172
1
173
1
174
1
140
1.0
141
1.0
175
1
  7

176
1
177
1
178
1
143
1.0
179
1
  8

270
1
271
1
272
1
145
1.0
146
1.0
273
1
  9

274
1
275
1
276
1
 42
1.0
 72
1
  3

 73
1
 74
1
 75
1
 94
63
  0
MATERIAL
  5
21
102
{ACAD_REACTORS
330
E
102
}
330
E
100
AcDbMaterial
  1
Global
  2

 70
0
 40
1.0
 71
1
 41
1.0
 91
-1023410177
 42
1.0
 72
1
  3

 73
1
 74
1
 75
1
 44
0.5
 73
0
 45
1.0
 46
1.0
 77
1
  4

 78
1
 79
1
170
1
 48
1.0
171
1
  6

172
1
173
1
174
1
140
1.0
141
1.0
175
1
  7

176
1
177
1
178
1
143
1.0
179
1
  8

270
1
271
1
272
1
145
1.0
146
1.0
273
1
  9

274
1
275
1
276
1
 42
1.0
 72
1
  3

 73
1
 74
1
 75
1
 94
63
  0
MLINESTYLE
  5
22
102
{ACAD_REACTORS
330
10
102
}
330
10
100
AcDbMlineStyle
  2
Standard
 70
0
  3

 62
256
 51
90.0
 52
90.0
 71
2
 49
0.5
 62
256
  6
BYLAYER
 49
-0.5
 62
256
  6
BYLAYER
  0
MLEADERSTYLE
  5
2C
102
{ACAD_REACTORS
330
F
102
}
330
F
100
AcDbMLeaderStyle
179
2
170
2
171
1
172
0
 90
2
 40
0.0
 41
0.0
173
1
 91
-1056964608
 92
-2
290
1
 42
2.0
291
1
 43
8.0
  3
Standard
 44
4.0
300

342
29
174
1
175
1
176
0
178
1
 93
-1056964608
 45
4.0
292
0
297
0
 46
4.0
 94
-1056964608
 47
1.0
 49
1.0
140
1.0
294
1
141
0.0
177
0
142
1.0
295
0
296
0
143
3.75
271
0
272
9
273
9
  0
DICTIONARY
  5
2D
330
A
100
AcDbDictionary
280
1
281
1
  3
CREATED_BY_EZDXF
350
2E
  3
WRITTEN_BY_EZDXF
350
70
  0
DICTIONARYVAR
  5
2E
330
2D
100
DictionaryVariables
280
0
  1
0.17 @ 2022-02-15T16:45:40.136409+00:00
  0
DICTIONARYVAR
  5
70
330
2D
100
DictionaryVariables
280
0
  1
0.17 @ 2022-02-15T16:45:40.217906+00:00
  0
ENDSEC
  0
EOF
