  0
SECTION
  2
HEADER
  9
$ACADVER
  1
AC1027
  9
$ACADMAINTVER
 70
105
  9
$DWGCODEPAGE
  3
ANSI_1252
  9
$LASTSAVEDBY
  1
ezdxf
  9
$REQUIREDVERSIONS
160
0
  9
$INSBASE
 10
0.0
 20
0.0
 30
0.0
  9
$EXTMIN
 10
1e+20
 20
1e+20
 30
1e+20
  9
$EXTMAX
 10
-1e+20
 20
-1e+20
 30
-1e+20
  9
$LIMMIN
 10
0.0
 20
0.0
  9
$LIMMAX
 10
420.0
 20
297.0
  9
$ORTHOMODE
 70
0
  9
$REGENMODE
 70
1
  9
$FILLMODE
 70
1
  9
$QTEXTMODE
 70
0
  9
$MIRRTEXT
 70
1
  9
$LTSCALE
 40
1.0
  9
$ATTMODE
 70
1
  9
$TEXTSIZE
 40
2.5
  9
$TRACEWID
 40
1.0
  9
$TEXTSTYLE
  7
Standard
  9
$CLAYER
  8
0
  9
$CELTYPE
  6
ByLayer
  9
$CECOLOR
 62
256
  9
$CELTSCALE
 40
1.0
  9
$DISPSILH
 70
0
  9
$DIMSCALE
 40
1.0
  9
$DIMASZ
 40
2.5
  9
$DIMEXO
 40
0.625
  9
$DIMDLI
 40
3.75
  9
$DIMRND
 40
0.0
  9
$DIMDLE
 40
0.0
  9
$DIMEXE
 40
1.25
  9
$DIMTP
 40
0.0
  9
$DIMTM
 40
0.0
  9
$DIMTXT
 40
2.5
  9
$DIMCEN
 40
2.5
  9
$DIMTSZ
 40
0.0
  9
$DIMTOL
 70
0
  9
$DIMLIM
 70
0
  9
$DIMTIH
 70
0
  9
$DIMTOH
 70
0
  9
$DIMSE1
 70
0
  9
$DIMSE2
 70
0
  9
$DIMTAD
 70
1
  9
$DIMZIN
 70
8
  9
$DIMBLK
  1

  9
$DIMASO
 70
1
  9
$DIMSHO
 70
1
  9
$DIMPOST
  1

  9
$DIMAPOST
  1

  9
$DIMALT
 70
0
  9
$DIMALTD
 70
3
  9
$DIMALTF
 40
0.03937007874
  9
$DIMLFAC
 40
1.0
  9
$DIMTOFL
 70
1
  9
$DIMTVP
 40
0.0
  9
$DIMTIX
 70
0
  9
$DIMSOXD
 70
0
  9
$DIMSAH
 70
0
  9
$DIMBLK1
  1

  9
$DIMBLK2
  1

  9
$DIMSTYLE
  2
ISO-25
  9
$DIMCLRD
 70
0
  9
$DIMCLRE
 70
0
  9
$DIMCLRT
 70
0
  9
$DIMTFAC
 40
1.0
  9
$DIMGAP
 40
0.625
  9
$DIMJUST
 70
0
  9
$DIMSD1
 70
0
  9
$DIMSD2
 70
0
  9
$DIMTOLJ
 70
0
  9
$DIMTZIN
 70
8
  9
$DIMALTZ
 70
0
  9
$DIMALTTZ
 70
0
  9
$DIMUPT
 70
0
  9
$DIMDEC
 70
2
  9
$DIMTDEC
 70
2
  9
$DIMALTU
 70
2
  9
$DIMALTTD
 70
3
  9
$DIMTXSTY
  7
Standard
  9
$DIMAUNIT
 70
0
  9
$DIMADEC
 70
0
  9
$DIMALTRND
 40
0.0
  9
$DIMAZIN
 70
0
  9
$DIMDSEP
 70
44
  9
$DIMATFIT
 70
3
  9
$DIMFRAC
 70
0
  9
$DIMLDRBLK
  1

  9
$DIMLUNIT
 70
2
  9
$DIMLWD
 70
-2
  9
$DIMLWE
 70
-2
  9
$DIMTMOVE
 70
0
  9
$DIMFXL
 40
1.0
  9
$DIMFXLON
 70
0
  9
$DIMJOGANG
 40
0.785398163397
  9
$DIMTFILL
 70
0
  9
$DIMTFILLCLR
 70
0
  9
$DIMARCSYM
 70
0
  9
$DIMLTYPE
  6

  9
$DIMLTEX1
  6

  9
$DIMLTEX2
  6

  9
$DIMTXTDIRECTION
 70
0
  9
$LUNITS
 70
2
  9
$LUPREC
 70
4
  9
$SKETCHINC
 40
1.0
  9
$FILLETRAD
 40
10.0
  9
$AUNITS
 70
0
  9
$AUPREC
 70
2
  9
$MENU
  1
.
  9
$ELEVATION
 40
0.0
  9
$PELEVATION
 40
0.0
  9
$THICKNESS
 40
0.0
  9
$LIMCHECK
 70
0
  9
$CHAMFERA
 40
0.0
  9
$CHAMFERB
 40
0.0
  9
$CHAMFERC
 40
0.0
  9
$CHAMFERD
 40
0.0
  9
$SKPOLY
 70
0
  9
$TDCREATE
 40
2459626.740104167
  9
$TDUCREATE
 40
2458532.153996898
  9
$TDUPDATE
 40
2459626.740104167
  9
$TDUUPDATE
 40
2458532.1544311
  9
$TDINDWG
 40
0.0
  9
$TDUSRTIMER
 40
0.0
  9
$USRTIMER
 70
1
  9
$ANGBASE
 50
0.0
  9
$ANGDIR
 70
0
  9
$PDMODE
 70
0
  9
$PDSIZE
 40
0.0
  9
$PLINEWID
 40
0.0
  9
$SPLFRAME
 70
0
  9
$SPLINETYPE
 70
6
  9
$SPLINESEGS
 70
8
  9
$HANDSEED
  5
61
  9
$SURFTAB1
 70
6
  9
$SURFTAB2
 70
6
  9
$SURFTYPE
 70
6
  9
$SURFU
 70
6
  9
$SURFV
 70
6
  9
$UCSBASE
  2

  9
$UCSNAME
  2

  9
$UCSORG
 10
0.0
 20
0.0
 30
0.0
  9
$UCSXDIR
 10
1.0
 20
0.0
 30
0.0
  9
$UCSYDIR
 10
0.0
 20
1.0
 30
0.0
  9
$UCSORTHOREF
  2

  9
$UCSORTHOVIEW
 70
0
  9
$UCSORGTOP
 10
0.0
 20
0.0
 30
0.0
  9
$UCSORGBOTTOM
 10
0.0
 20
0.0
 30
0.0
  9
$UCSORGLEFT
 10
0.0
 20
0.0
 30
0.0
  9
$UCSORGRIGHT
 10
0.0
 20
0.0
 30
0.0
  9
$UCSORGFRONT
 10
0.0
 20
0.0
 30
0.0
  9
$UCSORGBACK
 10
0.0
 20
0.0
 30
0.0
  9
$PUCSBASE
  2

  9
$PUCSNAME
  2

  9
$PUCSORG
 10
0.0
 20
0.0
 30
0.0
  9
$PUCSXDIR
 10
1.0
 20
0.0
 30
0.0
  9
$PUCSYDIR
 10
0.0
 20
1.0
 30
0.0
  9
$PUCSORTHOREF
  2

  9
$PUCSORTHOVIEW
 70
0
  9
$PUCSORGTOP
 10
0.0
 20
0.0
 30
0.0
  9
$PUCSORGBOTTOM
 10
0.0
 20
0.0
 30
0.0
  9
$PUCSORGLEFT
 10
0.0
 20
0.0
 30
0.0
  9
$PUCSORGRIGHT
 10
0.0
 20
0.0
 30
0.0
  9
$PUCSORGFRONT
 10
0.0
 20
0.0
 30
0.0
  9
$PUCSORGBACK
 10
0.0
 20
0.0
 30
0.0
  9
$USERI1
 70
0
  9
$USERI2
 70
0
  9
$USERI3
 70
0
  9
$USERI4
 70
0
  9
$USERI5
 70
0
  9
$USERR1
 40
0.0
  9
$USERR2
 40
0.0
  9
$USERR3
 40
0.0
  9
$USERR4
 40
0.0
  9
$USERR5
 40
0.0
  9
$WORLDVIEW
 70
1
  9
$SHADEDGE
 70
3
  9
$SHADEDIF
 70
70
  9
$TILEMODE
 70
1
  9
$MAXACTVP
 70
64
  9
$PINSBASE
 10
0.0
 20
0.0
 30
0.0
  9
$PLIMCHECK
 70
0
  9
$PEXTMIN
 10
1e+20
 20
1e+20
 30
1e+20
  9
$PEXTMAX
 10
-1e+20
 20
-1e+20
 30
-1e+20
  9
$PLIMMIN
 10
0.0
 20
0.0
  9
$PLIMMAX
 10
420.0
 20
297.0
  9
$UNITMODE
 70
0
  9
$VISRETAIN
 70
1
  9
$PLINEGEN
 70
0
  9
$PSLTSCALE
 70
1
  9
$TREEDEPTH
 70
3020
  9
$CMLSTYLE
  2
Standard
  9
$CMLJUST
 70
0
  9
$CMLSCALE
 40
20.0
  9
$PROXYGRAPHICS
 70
1
  9
$MEASUREMENT
 70
1
  9
$CELWEIGHT
370
-1
  9
$ENDCAPS
280
0
  9
$JOINSTYLE
280
0
  9
$LWDISPLAY
290
0
  9
$INSUNITS
 70
6
  9
$HYPERLINKBASE
  1

  9
$STYLESHEET
  1

  9
$XEDIT
290
1
  9
$CEPSNTYPE
380
0
  9
$PSTYLEMODE
290
1
  9
$FINGERPRINTGUID
  2
{449CA9B9-A303-4B01-B0D5-B0D88B9B6D7A}
  9
$VERSIONGUID
  2
{73E67F52-0807-421E-8538-FA0D6A053892}
  9
$EXTNAMES
290
1
  9
$PSVPSCALE
 40
0.0
  9
$OLESTARTUP
290
0
  9
$SORTENTS
280
127
  9
$INDEXCTL
280
0
  9
$HIDETEXT
280
1
  9
$XCLIPFRAME
280
0
  9
$HALOGAP
280
0
  9
$OBSCOLOR
 70
257
  9
$OBSLTYPE
280
0
  9
$INTERSECTIONDISPLAY
280
0
  9
$INTERSECTIONCOLOR
 70
257
  9
$DIMASSOC
280
2
  9
$PROJECTNAME
  1

  9
$CAMERADISPLAY
290
0
  9
$LENSLENGTH
 40
50.0
  9
$CAMERAHEIGHT
 40
0.0
  9
$STEPSPERSEC
 40
24.0
  9
$STEPSIZE
 40
100.0
  9
$3DDWFPREC
 40
2.0
  9
$PSOLWIDTH
 40
0.005
  9
$PSOLHEIGHT
 40
0.08
  9
$LOFTANG1
 40
1.570796326795
  9
$LOFTANG2
 40
1.570796326795
  9
$LOFTMAG1
 40
0.0
  9
$LOFTMAG2
 40
0.0
  9
$LOFTPARAM
 70
7
  9
$LOFTNORMALS
280
1
  9
$LATITUDE
 40
37.795
  9
$LONGITUDE
 40
-122.394
  9
$NORTHDIRECTION
 40
0.0
  9
$TIMEZONE
 70
-8000
  9
$LIGHTGLYPHDISPLAY
280
1
  9
$TILEMODELIGHTSYNCH
280
1
  9
$CMATERIAL
347
20
  9
$SOLIDHIST
280
0
  9
$SHOWHIST
280
1
  9
$DWFFRAME
280
2
  9
$DGNFRAME
280
2
  9
$REALWORLDSCALE
290
1
  9
$INTERFERECOLOR
 62
256
  9
$CSHADOW
280
0
  9
$SHADOWPLANELOCATION
 40
0.0
  0
ENDSEC
  0
SECTION
  2
CLASSES
  0
CLASS
  1
ACDBDICTIONARYWDFLT
  2
AcDbDictionaryWithDefault
  3
ObjectDBX Classes
 90
0
 91
0
280
0
281
0
  0
CLASS
  1
SUN
  2
AcDbSun
  3
SCENEOE
 90
1153
 91
0
280
0
281
0
  0
CLASS
  1
VISUALSTYLE
  2
AcDbVisualStyle
  3
ObjectDBX Classes
 90
4095
 91
0
280
0
281
0
  0
CLASS
  1
MATERIAL
  2
AcDbMaterial
  3
ObjectDBX Classes
 90
1153
 91
0
280
0
281
0
  0
CLASS
  1
SCALE
  2
AcDbScale
  3
ObjectDBX Classes
 90
1153
 91
0
280
0
281
0
  0
CLASS
  1
TABLESTYLE
  2
AcDbTableStyle
  3
ObjectDBX Classes
 90
4095
 91
0
280
0
281
0
  0
CLASS
  1
MLEADERSTYLE
  2
AcDbMLeaderStyle
  3
ACDB_MLEADERSTYLE_CLASS
 90
4095
 91
0
280
0
281
0
  0
CLASS
  1
DICTIONARYVAR
  2
AcDbDictionaryVar
  3
ObjectDBX Classes
 90
0
 91
0
280
0
281
0
  0
CLASS
  1
CELLSTYLEMAP
  2
AcDbCellStyleMap
  3
ObjectDBX Classes
 90
1152
 91
0
280
0
281
0
  0
CLASS
  1
MENTALRAYRENDERSETTINGS
  2
AcDbMentalRayRenderSettings
  3
SCENEOE
 90
1024
 91
0
280
0
281
0
  0
CLASS
  1
ACDBDETAILVIEWSTYLE
  2
AcDbDetailViewStyle
  3
ObjectDBX Classes
 90
1025
 91
0
280
0
281
0
  0
CLASS
  1
ACDBSECTIONVIEWSTYLE
  2
AcDbSectionViewStyle
  3
ObjectDBX Classes
 90
1025
 91
0
280
0
281
0
  0
CLASS
  1
RASTERVARIABLES
  2
AcDbRasterVariables
  3
ISM
 90
0
 91
0
280
0
281
0
  0
CLASS
  1
ACDBPLACEHOLDER
  2
AcDbPlaceHolder
  3
ObjectDBX Classes
 90
0
 91
0
280
0
281
0
  0
CLASS
  1
LAYOUT
  2
AcDbLayout
  3
ObjectDBX Classes
 90
0
 91
0
280
0
281
0
  0
ENDSEC
  0
SECTION
  2
TABLES
  0
TABLE
  2
VPORT
  5
8
330
0
100
AcDbSymbolTable
 70
1
  0
VPORT
  5
23
330
8
100
AcDbSymbolTableRecord
100
AcDbViewportTableRecord
  2
*Active
 70
0
 10
0.0
 20
0.0
 11
1.0
 21
1.0
 12
344.2
 22
148.5
 13
0.0
 23
0.0
 14
0.5
 24
0.5
 15
0.5
 25
0.5
 16
0.0
 26
0.0
 36
1.0
 17
0.0
 27
0.0
 37
0.0
 40
297.0
 41
1.34
 42
50.0
 43
0.0
 44
0.0
 50
0.0
 51
0.0
 71
0
 72
1000
 73
1
 74
3
 75
0
 76
0
 77
0
 78
0
281
0
 65
0
146
0.0
  0
ENDTAB
  0
TABLE
  2
LTYPE
  5
2
330
0
100
AcDbSymbolTable
 70
3
  0
LTYPE
  5
24
330
2
100
AcDbSymbolTableRecord
100
AcDbLinetypeTableRecord
  2
ByBlock
 70
0
  3

 72
65
 73
0
 40
0.0
  0
LTYPE
  5
25
330
2
100
AcDbSymbolTableRecord
100
AcDbLinetypeTableRecord
  2
ByLayer
 70
0
  3

 72
65
 73
0
 40
0.0
  0
LTYPE
  5
26
330
2
100
AcDbSymbolTableRecord
100
AcDbLinetypeTableRecord
  2
Continuous
 70
0
  3

 72
65
 73
0
 40
0.0
  0
ENDTAB
  0
TABLE
  2
LAYER
  5
1
330
0
100
AcDbSymbolTable
 70
2
  0
LAYER
  5
27
330
1
100
AcDbSymbolTableRecord
100
AcDbLayerTableRecord
  2
0
 70
0
 62
7
  6
Continuous
370
-3
390
13
347
21
  0
LAYER
  5
28
330
1
100
AcDbSymbolTableRecord
100
AcDbLayerTableRecord
  2
Defpoints
 70
0
 62
7
  6
Continuous
290
0
370
-3
390
13
347
21
  0
ENDTAB
  0
TABLE
  2
STYLE
  5
5
330
0
100
AcDbSymbolTable
 70
1
  0
STYLE
  5
29
330
5
100
AcDbSymbolTableRecord
100
AcDbTextStyleTableRecord
  2
Standard
 70
0
 40
0.0
 41
1.0
 50
0.0
 71
0
 42
2.5
  3
txt
  4

  0
ENDTAB
  0
TABLE
  2
VIEW
  5
7
330
0
100
AcDbSymbolTable
 70
0
  0
ENDTAB
  0
TABLE
  2
UCS
  5
6
330
0
100
AcDbSymbolTable
 70
0
  0
ENDTAB
  0
TABLE
  2
APPID
  5
3
330
0
100
AcDbSymbolTable
 70
3
  0
APPID
  5
2A
330
3
100
AcDbSymbolTableRecord
100
AcDbRegAppTableRecord
  2
ACAD
 70
0
  0
APPID
  5
5E
330
3
100
AcDbSymbolTableRecord
100
AcDbRegAppTableRecord
  2
HATCHBACKGROUNDCOLOR
 70
0
  0
APPID
  5
5F
330
3
100
AcDbSymbolTableRecord
100
AcDbRegAppTableRecord
  2
EZDXF
 70
0
  0
ENDTAB
  0
TABLE
  2
DIMSTYLE
  5
4
330
0
100
AcDbSymbolTable
 70
1
100
AcDbDimStyleTable
  0
DIMSTYLE
105
2B
330
4
100
AcDbSymbolTableRecord
100
AcDbDimStyleTableRecord
  2
Standard
 70
0
 40
1.0
 41
2.5
 42
0.625
 43
3.75
 44
1.25
 45
0.0
 46
0.0
 47
0.0
 48
0.0
 49
2.5
140
2.5
141
2.5
142
0.0
143
0.03937007874
144
1.0
145
0.0
146
1.0
147
0.625
148
0.0
 69
0
 70
0
 71
0
 72
0
 73
0
 74
0
 75
0
 76
0
 77
1
 78
8
 79
0
170
0
171
3
172
1
173
0
174
0
175
0
176
0
177
0
178
0
179
0
271
0
272
2
273
2
274
3
275
0
276
0
277
2
278
44
279
0
280
0
281
0
282
0
283
0
284
8
285
0
286
0
288
0
289
3
290
0
371
-2
372
-2
  0
ENDTAB
  0
TABLE
  2
BLOCK_RECORD
  5
9
330
0
100
AcDbSymbolTable
 70
2
  0
BLOCK_RECORD
  5
17
330
9
100
AcDbSymbolTableRecord
100
AcDbBlockTableRecord
  2
*Model_Space
340
1A
 70
0
280
1
281
0
  0
BLOCK_RECORD
  5
1B
330
9
100
AcDbSymbolTableRecord
100
AcDbBlockTableRecord
  2
*Paper_Space
340
1E
 70
0
280
1
281
0
  0
ENDTAB
  0
ENDSEC
  0
SECTION
  2
BLOCKS
  0
BLOCK
  5
18
330
17
100
AcDbEntity
  8
0
100
AcDbBlockBegin
  2
*Model_Space
 70
0
 10
0.0
 20
0.0
 30
0.0
  3
*Model_Space
  1

  0
ENDBLK
  5
19
330
17
100
AcDbEntity
  8
0
100
AcDbBlockEnd
  0
BLOCK
  5
1C
330
1B
100
AcDbEntity
  8
0
100
AcDbBlockBegin
  2
*Paper_Space
 70
0
 10
0.0
 20
0.0
 30
0.0
  3
*Paper_Space
  1

  0
ENDBLK
  5
1D
330
1B
100
AcDbEntity
  8
0
100
AcDbBlockEnd
  0
ENDSEC
  0
SECTION
  2
ENTITIES
  0
SPLINE
  5
2F
330
17
100
AcDbEntity
  8
0
100
AcDbSpline
 70
0
 71
8
 72
67
 73
58
 74
0
 40
0.0
 40
0.0
 40
0.0
 40
0.0
 40
0.0
 40
0.0
 40
0.0
 40
0.0
 40
0.0
 40
0.047336436362293705
 40
0.047336436362293705
 40
0.047336436362293705
 40
0.047336436362293705
 40
0.047336436362293705
 40
0.047336436362293705
 40
0.047336436362293705
 40
0.16255823150338405
 40
0.16255823150338405
 40
0.16255823150338405
 40
0.16255823150338405
 40
0.16255823150338405
 40
0.16255823150338405
 40
0.16255823150338405
 40
0.24755522540818445
 40
0.24755522540818445
 40
0.24755522540818445
 40
0.24755522540818445
 40
0.24755522540818445
 40
0.24755522540818445
 40
0.24755522540818445
 40
0.2905320805587444
 40
0.2905320805587444
 40
0.2905320805587444
 40
0.2905320805587444
 40
0.2905320805587444
 40
0.2905320805587444
 40
0.2905320805587444
 40
0.33350902108816566
 40
0.33350902108816566
 40
0.33350902108816566
 40
0.33350902108816566
 40
0.33350902108816566
 40
0.33350902108816566
 40
0.33350902108816566
 40
0.672372919880276
 40
0.672372919880276
 40
0.672372919880276
 40
0.672372919880276
 40
0.672372919880276
 40
0.672372919880276
 40
0.672372919880276
 40
0.8452814352963426
 40
0.8452814352963426
 40
0.8452814352963426
 40
0.8452814352963426
 40
0.8452814352963426
 40
0.8452814352963426
 40
0.8452814352963426
 40
1.0
 40
1.0
 40
1.0
 40
1.0
 40
1.0
 40
1.0
 40
1.0
 40
1.0
 40
1.0
 10
72.88989417046464
 20
131.90000000953637
 30
1861.0
 10
72.8009955633333
 20
131.93660680402638
 30
1861.0
 10
72.7114463325031
 20
131.97162304624152
 30
1861.0
 10
72.62127291310287
 20
132.00502054887164
 30
1861.0
 10
72.53050417222312
 20
132.0367741996392
 30
1861.0
 10
72.43917154209595
 20
132.06686228447518
 30
1861.0
 10
72.34730915327506
 20
132.09526681069502
 30
1861.0
 10
72.25495396781585
 20
132.1219738301749
 30
1861.0
 10
71.93624148102833
 20
132.20782619049788
 30
1861.0
 10
71.70759520879889
 20
132.25858037822167
 30
1861.0
 10
71.47679690851325
 20
132.29908315093766
 30
1861.0
 10
71.24440892995759
 20
132.32937577919432
 30
1861.0
 10
71.0109629509354
 20
132.34966338667468
 30
1861.0
 10
70.77695676824514
 20
132.36028435802183
 30
1861.0
 10
70.54285108865776
 20
132.36167974666412
 30
1861.0
 10
70.13660760632068
 20
132.34896501941637
 30
1861.0
 10
69.96429880995197
 20
132.33882545383207
 30
1861.0
 10
69.79228258404919
 20
132.32414678181212
 30
1861.0
 10
69.62067875490318
 20
132.30514902243178
 30
1861.0
 10
69.44958527092827
 20
132.2820611916368
 30
1861.0
 10
69.2790789799511
 20
132.25511455890108
 30
1861.0
 10
69.10921623469335
 20
132.22453738682037
 30
1861.0
 10
68.85448972063969
 20
132.17336676448673
 30
1861.0
 10
68.76895300036125
 20
132.15528056917984
 30
1861.0
 10
68.68342688752426
 20
132.13631249808307
 30
1861.0
 10
68.59791629332096
 20
132.11647955328098
 30
1861.0
 10
68.51242731822491
 20
132.09579580858212
 30
1861.0
 10
68.42696725199129
 20
132.07427240951912
 30
1861.0
 10
68.34154457365669
 20
132.05191757334848
 30
1861.0
 10
68.17079315981232
 20
132.00555555870088
 30
1861.0
 10
68.08546305524942
 20
131.98155156252324
 30
1861.0
 10
68.00018629448789
 20
131.95673488043371
 30
1861.0
 10
67.9149705341679
 20
131.9311157923447
 30
1861.0
 10
67.82982343093224
 20
131.90470457816465
 30
1861.0
 10
67.74475264142627
 20
131.87751151779824
 30
1861.0
 10
67.65976582229807
 20
131.84954689114645
 30
1861.0
 10
66.90549036652146
 20
131.59432335474884
 30
1861.0
 10
66.2516805105554
 20
131.3238379016767
 30
1861.0
 10
65.6138447660328
 20
131.01581196091917
 30
1861.0
 10
64.99264688835868
 20
130.6750105785211
 30
1861.0
 10
64.38866227135755
 20
130.30520093466941
 30
1861.0
 10
63.80241932219884
 20
129.90910578118167
 30
1861.0
 10
63.2343605643672
 20
129.48850489230995
 30
1861.0
 10
62.404898127257695
 20
128.81685540251885
 30
1861.0
 10
62.129705713889614
 20
128.58376802243697
 30
1861.0
 10
61.85969751123463
 20
128.3446237403524
 30
1861.0
 10
61.59507587836748
 20
128.09949170559108
 30
1861.0
 10
61.336119657835475
 20
127.84839906015196
 30
1861.0
 10
61.0831892375162
 20
127.59132624018068
 30
1861.0
 10
60.83674885088138
 20
127.3281849943701
 30
1861.0
 10
60.383278171113226
 20
126.81768024233077
 30
1861.0
 10
60.17494583110757
 20
126.57169981256982
 30
1861.0
 10
59.972770741894216
 20
126.32056981651101
 30
1861.0
 10
59.77732187072054
 20
126.06405671836535
 30
1861.0
 10
59.58938971267199
 20
125.80194571809409
 30
1861.0
 10
59.410092092384296
 20
125.53397455443638
 30
1861.0
 10
59.24087132338931
 20
125.25983449782132
 30
1861.0
 10
59.08402125332039
 20
124.97881945697316
 30
1861.0
  0
LINE
  5
30
330
17
100
AcDbEntity
  8
0
100
AcDbLine
 10
71.3019366288935
 20
131.9
 30
1861.0
 11
72.88989416653777
 21
131.9
 31
1861.0
  0
SPLINE
  5
31
330
17
100
AcDbEntity
  8
0
100
AcDbSpline
 70
0
 71
1
 72
4
 73
2
 74
0
 40
0.0
 40
0.0
 40
1.0
 40
1.0
 10
71.30193663693724
 20
131.90000060000256
 30
1861.0
 10
71.30193663693726
 20
128.09999939999764
 30
1861.0
  0
LINE
  5
32
330
17
100
AcDbEntity
  8
0
100
AcDbLine
 10
71.3019366288935
 20
128.1
 30
1861.0
 11
77.00250847989676
 21
128.1
 31
1861.0
  0
SPLINE
  5
33
330
17
100
AcDbEntity
  8
0
100
AcDbSpline
 70
0
 71
8
 72
53
 73
44
 74
0
 40
0.0
 40
0.0
 40
0.0
 40
0.0
 40
0.0
 40
0.0
 40
0.0
 40
0.0
 40
0.0
 40
0.12194219596944708
 40
0.12194219596944708
 40
0.12194219596944708
 40
0.12194219596944708
 40
0.12194219596944708
 40
0.12194219596944708
 40
0.12194219596944708
 40
0.42651272613126023
 40
0.42651272613126023
 40
0.42651272613126023
 40
0.42651272613126023
 40
0.42651272613126023
 40
0.42651272613126023
 40
0.42651272613126023
 40
0.5269860018537877
 40
0.5269860018537877
 40
0.5269860018537877
 40
0.5269860018537877
 40
0.5269860018537877
 40
0.5269860018537877
 40
0.5269860018537877
 40
0.6777118919161074
 40
0.6777118919161074
 40
0.6777118919161074
 40
0.6777118919161074
 40
0.6777118919161074
 40
0.6777118919161074
 40
0.6777118919161074
 40
0.828127138759068
 40
0.828127138759068
 40
0.828127138759068
 40
0.828127138759068
 40
0.828127138759068
 40
0.828127138759068
 40
0.828127138759068
 40
1.0
 40
1.0
 40
1.0
 40
1.0
 40
1.0
 40
1.0
 40
1.0
 40
1.0
 40
1.0
 10
83.93239682732317
 20
105.89999999481563
 30
1861.0
 10
83.85901629523244
 20
106.28563910689101
 30
1861.0
 10
83.78485832730492
 20
106.6711291578664
 30
1861.0
 10
83.70990096374913
 20
107.05646398099188
 30
1861.0
 10
83.63412081103891
 20
107.44163696987255
 30
1861.0
 10
83.55749287829936
 20
107.82664104743644
 30
1861.0
 10
83.47999038939463
 20
108.2114686302188
 30
1861.0
 10
83.40158457071732
 20
108.5961115879631
 30
1861.0
 10
83.12407943007003
 20
109.9407868266121
 30
1861.0
 10
82.9200920965594
 20
110.8997750946642
 30
1861.0
 10
82.70979237367246
 20
111.85741291369064
 30
1861.0
 10
82.49261023402637
 20
112.81353554082614
 30
1861.0
 10
82.26785449094753
 20
113.76791634399265
 30
1861.0
 10
82.03468506837741
 20
114.7202602323112
 30
1861.0
 10
81.79203360173534
 20
115.6701847055955
 30
1861.0
 10
81.45473971016958
 20
116.92956961898838
 30
1861.0
 10
81.37081908689998
 20
117.23813258950914
 30
1861.0
 10
81.28664818801677
 20
117.54282016269434
 30
1861.0
 10
81.20222981294063
 20
117.84359111344334
 30
1861.0
 10
81.11756676109371
 20
118.14040421666775
 30
1861.0
 10
81.03266183189963
 20
118.4332182472916
 30
1861.0
 10
80.94751782478342
 20
118.72199198025129
 30
1861.0
 10
80.73405353424525
 20
119.433767775402
 30
1861.0
 10
80.60544508810904
 20
119.85159355761337
 30
1861.0
 10
80.47641548826493
 20
120.2600637312674
 30
1861.0
 10
80.3466638179501
 20
120.65902034041255
 30
1861.0
 10
80.21655048197803
 20
121.04861449910857
 30
1861.0
 10
80.08592279090126
 20
121.42887780371203
 30
1861.0
 10
79.954824470158
 20
121.80000614325817
 30
1861.0
 10
79.69186072016818
 20
122.5237006803358
 30
1861.0
 10
79.55721588104014
 20
122.8839603689388
 30
1861.0
 10
79.41907720755601
 20
123.24290353651745
 30
1861.0
 10
79.27723078231833
 20
123.60040480516433
 30
1861.0
 10
79.13144127654779
 20
123.95631452398769
 30
1861.0
 10
78.9814467840336
 20
124.31045664714004
 30
1861.0
 10
78.82695122264143
 20
124.66262559088813
 30
1861.0
 10
78.4855470409864
 20
125.41246188636286
 30
1861.0
 10
78.29737955800837
 20
125.80896710897267
 30
1861.0
 10
78.10248811492687
 20
126.20206776950081
 30
1861.0
 10
77.9002155306244
 20
126.59151772545043
 30
1861.0
 10
77.68986643152137
 20
126.97685194710118
 30
1861.0
 10
77.47069268165339
 20
127.35737627267162
 30
1861.0
 10
77.241878230934
 20
127.73215698519493
 30
1861.0
 10
77.00250846894882
 20
128.09999999287572
 30
1861.0
  0
LINE
  5
34
330
17
100
AcDbEntity
  8
0
100
AcDbLine
 10
71.3019366288935
 20
105.9
 30
1861.0
 11
83.93239685456902
 21
105.9
 31
1861.0
  0
SPLINE
  5
35
330
17
100
AcDbEntity
  8
0
100
AcDbSpline
 70
0
 71
1
 72
4
 73
2
 74
0
 40
0.0
 40
0.0
 40
1.0
 40
1.0
 10
71.30193663693724
 20
105.90000060000206
 30
1861.0
 10
71.30193663693726
 20
102.09999939999993
 30
1861.0
  0
LINE
  5
36
330
17
100
AcDbEntity
  8
0
100
AcDbLine
 10
71.3019366288935
 20
102.1
 30
1861.0
 11
84.62353603717571
 21
102.1
 31
1861.0
  0
SPLINE
  5
37
330
17
100
AcDbEntity
  8
0
100
AcDbSpline
 70
0
 71
8
 72
25
 73
16
 74
0
 40
0.0
 40
0.0
 40
0.0
 40
0.0
 40
0.0
 40
0.0
 40
0.0
 40
0.0
 40
0.0
 40
0.9053718140179534
 40
0.9053718140179534
 40
0.9053718140179534
 40
0.9053718140179534
 40
0.9053718140179534
 40
0.9053718140179534
 40
0.9053718140179534
 40
1.0
 40
1.0
 40
1.0
 40
1.0
 40
1.0
 40
1.0
 40
1.0
 40
1.0
 40
1.0
 10
87.75617146891707
 20
79.90000000038758
 30
1861.0
 10
87.46664969568266
 20
82.42109688822262
 30
1861.0
 10
87.16296889587646
 20
84.94056558785088
 30
1861.0
 10
86.84435267044266
 20
87.45824387740319
 30
1861.0
 10
86.50980520934672
 20
89.97389680181632
 30
1861.0
 10
86.15804627940645
 20
92.4872073967915
 30
1861.0
 10
85.78739873576544
 20
94.99776052519269
 30
1861.0
 10
85.39563424058714
 20
97.50502178002179
 30
1861.0
 10
84.93583255404408
 20
100.26988295151884
 30
1861.0
 10
84.89205458569793
 20
100.53147149820363
 30
1861.0
 10
84.84800497527067
 20
100.79301393685212
 30
1861.0
 10
84.80367970033186
 20
101.05450934631531
 30
1861.0
 10
84.75907458578571
 20
101.31595674126561
 30
1861.0
 10
84.71418529808125
 20
101.57735507115179
 30
1861.0
 10
84.66900733711155
 20
101.83870321870856
 30
1861.0
 10
84.62353602580211
 20
102.0999999980207
 30
1861.0
  0
LINE
  5
38
330
17
100
AcDbEntity
  8
0
100
AcDbLine
 10
71.3019366288935
 20
79.9
 30
1861.0
 11
87.75617146554218
 21
79.9
 31
1861.0
  0
SPLINE
  5
39
330
17
100
AcDbEntity
  8
0
100
AcDbSpline
 70
0
 71
1
 72
4
 73
2
 74
0
 40
0.0
 40
0.0
 40
1.0
 40
1.0
 10
71.30193663693726
 20
79.90000060000001
 30
1861.0
 10
71.30193663693726
 20
76.09999939999999
 30
1861.0
  0
LINE
  5
3A
330
17
100
AcDbEntity
  8
0
100
AcDbLine
 10
71.3019366288935
 20
76.1
 30
1861.0
 11
88.1785925771416
 21
76.1
 31
1861.0
  0
SPLINE
  5
3B
330
17
100
AcDbEntity
  8
0
100
AcDbSpline
 70
0
 71
8
 72
32
 73
23
 74
0
 40
0.0
 40
0.0
 40
0.0
 40
0.0
 40
0.0
 40
0.0
 40
0.0
 40
0.0
 40
0.0
 40
0.4736607073642332
 40
0.4736607073642332
 40
0.4736607073642332
 40
0.4736607073642332
 40
0.4736607073642332
 40
0.4736607073642332
 40
0.4736607073642332
 40
0.8651964917747655
 40
0.8651964917747655
 40
0.8651964917747655
 40
0.8651964917747655
 40
0.8651964917747655
 40
0.8651964917747655
 40
0.8651964917747655
 40
1.0
 40
1.0
 40
1.0
 40
1.0
 40
1.0
 40
1.0
 40
1.0
 40
1.0
 40
1.0
 10
90.13970212417621
 20
53.89999999868159
 30
1861.0
 10
90.04724885480225
 20
55.21636563498777
 30
1861.0
 10
89.95175705708253
 20
56.53251750824195
 30
1861.0
 10
89.85319057816938
 20
57.848444873383194
 30
1861.0
 10
89.75151228617815
 20
59.164136518848316
 30
1861.0
 10
89.64668407018726
 20
60.47958076657196
 30
1861.0
 10
89.53866684023815
 20
61.79476547198648
 30
1861.0
 10
89.42742052733527
 20
63.109678024022074
 30
1861.0
 10
89.21824289456356
 20
65.51099805861602
 30
1861.0
 10
89.1213478242129
 20
66.59749576582917
 30
1861.0
 10
89.02219309555167
 20
67.68379076336475
 30
1861.0
 10
88.92075318488533
 20
68.76987577873939
 30
1861.0
 10
88.81702969044977
 20
69.85574433382544
 30
1861.0
 10
88.71097498602916
 20
70.94138675707191
 30
1861.0
 10
88.60257040709027
 20
72.02679456222509
 30
1861.0
 10
88.4536296570895
 20
73.48557304982339
 30
1861.0
 10
88.41520060041128
 20
73.85915736664333
 30
1861.0
 10
88.37648698830476
 20
74.23271046096494
 30
1861.0
 10
88.3374872459371
 20
74.60623214753824
 30
1861.0
 10
88.29819971672961
 20
74.97972220949026
 30
1861.0
 10
88.25862266140675
 20
75.35318039821804
 30
1861.0
 10
88.21875425622235
 20
75.72660643315557
 30
1861.0
 10
88.17859259050068
 20
76.10000000143691
 30
1861.0
  0
LINE
  5
3C
330
17
100
AcDbEntity
  8
0
100
AcDbLine
 10
71.3019366288935
 20
53.9
 30
1861.0
 11
90.1397021429482
 21
53.9
 31
1861.0
  0
SPLINE
  5
3D
330
17
100
AcDbEntity
  8
0
100
AcDbSpline
 70
0
 71
1
 72
4
 73
2
 74
0
 40
0.0
 40
0.0
 40
1.0
 40
1.0
 10
71.30193663693726
 20
53.90000060000026
 30
1861.0
 10
71.30193663693726
 20
50.09999939999937
 30
1861.0
  0
LINE
  5
3E
330
17
100
AcDbEntity
  8
0
100
AcDbLine
 10
71.3019366288935
 20
50.1
 30
1861.0
 11
90.39555808418609
 21
50.1
 31
1861.0
  0
SPLINE
  5
3F
330
17
100
AcDbEntity
  8
0
100
AcDbSpline
 70
0
 71
8
 72
18
 73
9
 74
0
 40
0.0
 40
0.0
 40
0.0
 40
0.0
 40
0.0
 40
0.0
 40
0.0
 40
0.0
 40
0.0
 40
1.0
 40
1.0
 40
1.0
 40
1.0
 40
1.0
 40
1.0
 40
1.0
 40
1.0
 40
1.0
 10
91.47449175186232
 20
27.899999999529957
 30
1861.0
 10
91.3814787350415
 20
30.67683443484557
 30
1861.0
 10
91.27703878900101
 20
33.45328523843923
 30
1861.0
 10
91.1609231430594
 20
36.22928811617153
 30
1861.0
 10
91.03287034442995
 20
39.00477404098308
 30
1861.0
 10
90.89260532073389
 20
41.77966921966837
 30
1861.0
 10
90.7398382949497
 20
44.553895053993834
 30
1861.0
 10
90.57426355279921
 20
47.32736809615981
 30
1861.0
 10
90.39555806256939
 20
50.09999999860672
 30
1861.0
  0
LINE
  5
40
330
17
100
AcDbEntity
  8
0
100
AcDbLine
 10
71.3019366288935
 20
27.9
 30
1861.0
 11
91.47449176589475
 21
27.9
 31
1861.0
  0
SPLINE
  5
41
330
17
100
AcDbEntity
  8
0
100
AcDbSpline
 70
0
 71
1
 72
4
 73
2
 74
0
 40
0.0
 40
0.0
 40
1.0
 40
1.0
 10
71.30193663693726
 20
27.900000600000002
 30
1861.0
 10
71.30193663693726
 20
24.099999399999998
 30
1861.0
  0
LINE
  5
42
330
17
100
AcDbEntity
  8
0
100
AcDbLine
 10
71.3019366288935
 20
24.1
 30
1861.0
 11
91.59247512623212
 21
24.1
 31
1861.0
  0
SPLINE
  5
43
330
17
100
AcDbEntity
  8
0
100
AcDbSpline
 70
0
 71
8
 72
18
 73
9
 74
0
 40
0.0
 40
0.0
 40
0.0
 40
0.0
 40
0.0
 40
0.0
 40
0.0
 40
0.0
 40
0.0
 40
1.0
 40
1.0
 40
1.0
 40
1.0
 40
1.0
 40
1.0
 40
1.0
 40
1.0
 40
1.0
 10
91.92786027672283
 20
1.9000000000059565
 30
1861.0
 10
91.9219427638763
 20
4.6753981503255755
 30
1861.0
 10
91.90613148282833
 20
7.450767789988598
 30
1861.0
 10
91.88024197926707
 20
10.226072066806395
 30
1861.0
 10
91.84408033306269
 20
13.001269524606109
 30
1861.0
 10
91.79744274096971
 20
15.776314089928361
 30
1861.0
 10
91.74011495271705
 20
18.55115505310546
 30
1861.0
 10
91.67187156048576
 20
21.325737043720153
 30
1861.0
 10
91.5924751417742
 20
24.1000000004448
 30
1861.0
  0
LINE
  5
44
330
17
100
AcDbEntity
  8
0
100
AcDbLine
 10
71.3019366288935
 20
1.9
 30
1861.0
 11
91.92786027392486
 21
1.9
 31
1861.0
  0
SPLINE
  5
45
330
17
100
AcDbEntity
  8
0
100
AcDbSpline
 70
0
 71
1
 72
4
 73
2
 74
0
 40
0.0
 40
0.0
 40
0.9999993684216398
 40
0.9999993684216398
 10
71.30193663693726
 20
1.9000006000000558
 30
1861.0
 10
71.30193663693724
 20
-6.553790374438061e-17
 30
1861.0
  0
SPLINE
  5
46
330
17
100
AcDbEntity
  8
0
100
AcDbSpline
 70
0
 71
1
 72
4
 73
2
 74
0
 40
0.0
 40
0.0
 40
1.0
 40
1.0
 10
71.30193663693723
 20
-1.9000006000000011
 30
1861.0
 10
71.30193663693726
 20
1.2000000211287443e-06
 30
1861.0
  0
LINE
  5
47
330
17
100
AcDbEntity
  8
0
100
AcDbLine
 10
71.30193662889494
 20
-1.9
 30
1861.0
 11
91.92788652818234
 21
-1.9
 31
1861.0
  0
SPLINE
  5
48
330
17
100
AcDbEntity
  8
0
100
AcDbSpline
 70
0
 71
8
 72
18
 73
9
 74
0
 40
0.0
 40
0.0
 40
0.0
 40
0.0
 40
0.0
 40
0.0
 40
0.0
 40
0.0
 40
0.0
 40
1.0
 40
1.0
 40
1.0
 40
1.0
 40
1.0
 40
1.0
 40
1.0
 40
1.0
 40
1.0
 10
91.59276886887167
 20
-24.099999999455502
 30
1861.0
 10
91.67214030370567
 20
-21.325739787801467
 30
1861.0000000000002
 10
91.74035533125199
 20
-18.551159658946467
 30
1861.0000000000005
 10
91.79765187702861
 20
-15.776318493417604
 30
1861.0000000000005
 10
91.8442557532023
 20
-13.001271478484501
 30
1861.0000000000005
 10
91.88038168696657
 20
-10.226070116284998
 30
1861.0000000000005
 10
91.90623406933999
 20
-7.450762236915861
 30
1861.0000000000005
 10
91.92200742438476
 20
-4.675392016488508
 30
1861.0000000000005
 10
91.9278865988456
 20
-1.900000000149698
 30
1861.0000000000005
  0
LINE
  5
49
330
17
100
AcDbEntity
  8
0
100
AcDbLine
 10
71.30193662889494
 20
-24.1
 30
1861.0
 11
91.59276888790326
 21
-24.1
 31
1861.0
  0
SPLINE
  5
4A
330
17
100
AcDbEntity
  8
0
100
AcDbSpline
 70
0
 71
1
 72
4
 73
2
 74
0
 40
0.0
 40
0.0
 40
1.0
 40
1.0
 10
71.30193663693723
 20
-27.900000600000034
 30
1861.0
 10
71.30193663693726
 20
-24.099999399999938
 30
1861.0
  0
LINE
  5
4B
330
17
100
AcDbEntity
  8
0
100
AcDbLine
 10
71.30193662889494
 20
-27.9
 30
1861.0
 11
91.47481661393239
 21
-27.9
 31
1861.0
  0
SPLINE
  5
4C
330
17
100
AcDbEntity
  8
0
100
AcDbSpline
 70
0
 71
8
 72
25
 73
16
 74
0
 40
0.0
 40
0.0
 40
0.0
 40
0.0
 40
0.0
 40
0.0
 40
0.0
 40
0.0
 40
0.0
 40
0.9093101452597314
 40
0.9093101452597314
 40
0.9093101452597314
 40
0.9093101452597314
 40
0.9093101452597314
 40
0.9093101452597314
 40
0.9093101452597314
 40
1.0
 40
1.0
 40
1.0
 40
1.0
 40
1.0
 40
1.0
 40
1.0
 40
1.0
 40
1.0
 10
90.39591007769786
 20
-50.09999999940561
 30
1861.0
 10
90.55842366924536
 20
-47.57882211143519
 30
1861.0
 10
90.71007514286237
 20
-45.056942523480885
 30
1861.0
 10
90.85110741946112
 20
-42.534431865266306
 30
1861.0
 10
90.9817516903587
 20
-40.01135600437404
 30
1861.0
 10
91.1022282020225
 20
-37.48777609396966
 30
1861.0
 10
91.21274704081551
 20
-34.963748620525664
 30
1861.0
 10
91.31350891774184
 20
-32.439325451545464
 30
1861.0
 10
91.41380147020666
 20
-29.66274632568856
 30
1861.0
 10
91.42280184249738
 20
-29.410935336862885
 30
1861.0
 10
91.43170726054741
 20
-29.159120964495408
 30
1861.0
 10
91.44051791393598
 20
-28.907303256019823
 30
1861.0
 10
91.44923399134598
 20
-28.655482258618513
 30
1861.0
 10
91.45785568057156
 20
-28.403658019222547
 30
1861.0
 10
91.4663831685255
 20
-28.15183058451175
 30
1861.0
 10
91.47481664124642
 20
-27.900000000914705
 30
1861.0
  0
LINE
  5
4D
330
17
100
AcDbEntity
  8
0
100
AcDbLine
 10
71.30193662889494
 20
-50.1
 30
1861.0
 11
90.39591008691914
 21
-50.1
 31
1861.0
  0
SPLINE
  5
4E
330
17
100
AcDbEntity
  8
0
100
AcDbSpline
 70
0
 71
1
 72
4
 73
2
 74
0
 40
0.0
 40
0.0
 40
1.0
 40
1.0
 10
71.30193663693726
 20
-53.9000006
 30
1861.0
 10
71.30193663693726
 20
-50.0999994
 30
1861.0
  0
LINE
  5
4F
330
17
100
AcDbEntity
  8
0
100
AcDbLine
 10
71.30193662889494
 20
-53.9
 30
1861.0
 11
90.14002572443971
 21
-53.9
 31
1861.0
  0
SPLINE
  5
50
330
17
100
AcDbEntity
  8
0
100
AcDbSpline
 70
0
 71
8
 72
32
 73
23
 74
0
 40
0.0
 40
0.0
 40
0.0
 40
0.0
 40
0.0
 40
0.0
 40
0.0
 40
0.0
 40
0.0
 40
0.3721729517817768
 40
0.3721729517817768
 40
0.3721729517817768
 40
0.3721729517817768
 40
0.3721729517817768
 40
0.3721729517817768
 40
0.3721729517817768
 40
0.7470486333367287
 40
0.7470486333367287
 40
0.7470486333367287
 40
0.7470486333367287
 40
0.7470486333367287
 40
0.7470486333367287
 40
0.7470486333367287
 40
1.0
 40
1.0
 40
1.0
 40
1.0
 40
1.0
 40
1.0
 40
1.0
 40
1.0
 40
1.0
 10
88.17850852148499
 20
-76.1000000048436
 30
1861.0
 10
88.2894192141193
 20
-75.06909306729429
 30
1861.0
 10
88.39809308788142
 20
-74.0379450927807
 30
1861.0
 10
88.5045699345755
 20
-73.006566256271
 30
1861.0
 10
88.60888447413441
 20
-71.97496563960192
 30
1861.0
 10
88.71106684622009
 20
-70.94315128996277
 30
1861.0
 10
88.8111429562411
 20
-69.91113026165723
 30
1861.0
 10
88.90913475313978
 20
-68.8789086505091
 30
1861.0
 10
89.10168289487997
 20
-66.80657717046851
 30
1861.0
 10
89.19620943616061
 20
-65.76646764726345
 30
1861.0
 10
89.28865432523342
 20
-64.72616944810365
 30
1861.0
 10
89.3790393849827
 20
-63.685689387641965
 30
1861.0
 10
89.46738701403238
 20
-62.64503415885571
 30
1861.0
 10
89.55371700576778
 20
-61.60421008618191
 30
1861.0
 10
89.63804724843364
 20
-60.563223180676026
 30
1861.0
 10
89.7759655614297
 20
-58.81955668606515
 30
1861.0
 10
89.83063154050308
 20
-58.116962644518296
 30
1861.0
 10
89.88440214794022
 20
-57.41429914927668
 30
1861.0
 10
89.93728320825919
 20
-56.711567947693524
 30
1861.0
 10
89.9892804674099
 20
-56.008770757832295
 30
1861.0
 10
90.04039959409931
 20
-55.30590926854728
 30
1861.0
 10
90.09064618111671
 20
-54.60298513956418
 30
1861.0
 10
90.14002574665885
 20
-53.90000000156072
 30
1861.0
  0
LINE
  5
51
330
17
100
AcDbEntity
  8
0
100
AcDbLine
 10
71.30193662889494
 20
-76.1
 30
1861.0
 11
88.17850847646417
 21
-76.1
 31
1861.0
  0
SPLINE
  5
52
330
17
100
AcDbEntity
  8
0
100
AcDbSpline
 70
0
 71
1
 72
4
 73
2
 74
0
 40
0.0
 40
0.0
 40
1.0
 40
1.0
 10
71.30193663693726
 20
-79.90000060000018
 30
1861.0
 10
71.30193663693726
 20
-76.09999939999999
 30
1861.0
  0
LINE
  5
53
330
17
100
AcDbEntity
  8
0
100
AcDbLine
 10
71.30193662889494
 20
-79.9
 30
1861.0
 11
87.75598098180471
 21
-79.9
 31
1861.0
  0
SPLINE
  5
54
330
17
100
AcDbEntity
  8
0
100
AcDbSpline
 70
0
 71
8
 72
32
 73
23
 74
0
 40
0.0
 40
0.0
 40
0.0
 40
0.0
 40
0.0
 40
0.0
 40
0.0
 40
0.0
 40
0.0
 40
0.020993985383590603
 40
0.020993985383590603
 40
0.020993985383590603
 40
0.020993985383590603
 40
0.020993985383590603
 40
0.020993985383590603
 40
0.020993985383590603
 40
0.5940292904118798
 40
0.5940292904118798
 40
0.5940292904118798
 40
0.5940292904118798
 40
0.5940292904118798
 40
0.5940292904118798
 40
0.5940292904118798
 40
1.0
 40
1.0
 40
1.0
 40
1.0
 40
1.0
 40
1.0
 40
1.0
 40
1.0
 40
1.0
 10
84.62267948338979
 20
-102.10000000643211
 30
1861.0
 10
84.63276908113706
 20
-102.04202986128037
 30
1861.0
 10
84.64284425230268
 20
-101.98405713794425
 30
1861.0
 10
84.65290504836943
 20
-101.9260818468741
 30
1861.0
 10
84.6629515204172
 20
-101.8681039983008
 30
1861.0
 10
84.67298371913176
 20
-101.81012360223757
 30
1861.0
 10
84.68300169481377
 20
-101.75214066848191
 30
1861.0
 10
84.69300549738779
 20
-101.69415520661755
 30
1861.0
 10
84.97566559424587
 20
-100.0533729378133
 30
1861.0
 10
85.2378029201304
 20
-98.46876060843721
 30
1861.0
 10
85.49040249698903
 20
-96.8825723628367
 30
1861.0
 10
85.73423013863827
 20
-95.29500024859358
 30
1861.0
 10
85.96990649850831
 20
-93.70619942610936
 30
1861.0
 10
86.19794836222242
 20
-92.11629458795079
 30
1861.0
 10
86.41878861101682
 20
-90.52538306143092
 30
1861.0
 10
86.78441200188352
 20
-87.80578476038241
 30
1861.0
 10
86.93259716345258
 20
-86.67757087043978
 30
1861.0
 10
87.0774830041249
 20
-85.548924166251
 30
1861.0
 10
87.21918386112203
 20
-84.41986976159053
 30
1861.0
 10
87.35780025594383
 20
-83.2904304226484
 30
1861.0
 10
87.49342098225455
 20
-82.16062681402587
 30
1861.0
 10
87.6261246664875
 20
-81.03047768246734
 30
1861.0
 10
87.75598094949186
 20
-79.89999999628827
 30
1861.0
  0
LINE
  5
55
330
17
100
AcDbEntity
  8
0
100
AcDbLine
 10
71.30193662889494
 20
-102.1
 30
1861.0
 11
84.62267944643393
 21
-102.1
 31
1861.0
  0
SPLINE
  5
56
330
17
100
AcDbEntity
  8
0
100
AcDbSpline
 70
0
 71
1
 72
4
 73
2
 74
0
 40
0.0
 40
0.0
 40
1.0
 40
1.0
 10
71.30193663693723
 20
-105.90000060000003
 30
1861.0
 10
71.30193663693726
 20
-102.09999939999999
 30
1861.0
  0
LINE
  5
57
330
17
100
AcDbEntity
  8
0
100
AcDbLine
 10
71.30193662889494
 20
-105.9
 30
1861.0
 11
83.93144738494138
 21
-105.9
 31
1861.0
  0
SPLINE
  5
58
330
17
100
AcDbEntity
  8
0
100
AcDbSpline
 70
0
 71
8
 72
53
 73
44
 74
0
 40
0.0
 40
0.0
 40
0.0
 40
0.0
 40
0.0
 40
0.0
 40
0.0
 40
0.0
 40
0.0
 40
0.08383179816970243
 40
0.08383179816970243
 40
0.08383179816970243
 40
0.08383179816970243
 40
0.08383179816970243
 40
0.08383179816970243
 40
0.08383179816970243
 40
0.313336176040399
 40
0.313336176040399
 40
0.313336176040399
 40
0.313336176040399
 40
0.313336176040399
 40
0.313336176040399
 40
0.313336176040399
 40
0.41318162713817463
 40
0.41318162713817463
 40
0.41318162713817463
 40
0.41318162713817463
 40
0.41318162713817463
 40
0.41318162713817463
 40
0.41318162713817463
 40
0.5629440054337966
 40
0.5629440054337966
 40
0.5629440054337966
 40
0.5629440054337966
 40
0.5629440054337966
 40
0.5629440054337966
 40
0.5629440054337966
 40
0.7353708676560344
 40
0.7353708676560344
 40
0.7353708676560344
 40
0.7353708676560344
 40
0.7353708676560344
 40
0.7353708676560344
 40
0.7353708676560344
 40
1.0
 40
1.0
 40
1.0
 40
1.0
 40
1.0
 40
1.0
 40
1.0
 40
1.0
 40
1.0
 10
77.0023786870915
 20
-128.10000002430087
 30
1861.0
 10
77.118749140657
 20
-127.92110821083398
 30
1861.0
 10
77.23262078305032
 20
-127.74058225131854
 30
1861.0
 10
77.34410194485463
 20
-127.5585551099671
 30
1861.0
 10
77.45329583945343
 20
-127.37514374121416
 30
1861.0
 10
77.56030135731413
 20
-127.19044963139865
 30
1861.0
 10
77.66521367182841
 20
-127.00455920684722
 30
1861.0
 10
77.76812465670909
 20
-126.8175441083583
 30
1861.0
 10
78.14562426163383
 20
-126.11455145899811
 30
1861.0
 10
78.40764852668165
 20
-125.59190716266156
 30
1861.0
 10
78.65693709619929
 20
-125.06291720245144
 30
1861.0
 10
78.89483306178552
 20
-124.52866441660052
 30
1861.0
 10
79.12244591464041
 20
-123.99000096240465
 30
1861.0
 10
79.34072619241574
 20
-123.44758202826668
 30
1861.0
 10
79.55049763167398
 20
-122.90188028683772
 30
1861.0
 10
79.8403723995318
 20
-122.11450248524986
 30
1861.0
 10
79.9280403770711
 20
-121.87181242086893
 30
1861.0
 10
80.01549550968868
 20
-121.6251003848253
 30
1861.0
 10
80.10273519562192
 20
-121.37433359659885
 30
1861.0
 10
80.18975683310332
 20
-121.11947927569423
 30
1861.0
 10
80.27655782036062
 20
-120.86050464164121
 30
1861.0
 10
80.36313555561672
 20
-120.59737691399448
 30
1861.0
 10
80.5790102445638
 20
-119.92910843361528
 30
1861.0
 10
80.70804888215612
 20
-119.51864974346748
 30
1861.0
 10
80.83651855566387
 20
-119.09879661838633
 30
1861.0
 10
80.9645295859456
 20
-118.6697269601319
 30
1861.0
 10
81.09194362111342
 20
-118.23153475950866
 30
1861.0
 10
81.21884812211682
 20
-117.78439296339894
 30
1861.0
 10
81.34518458265633
 20
-117.32842451448315
 30
1861.0
 10
81.61576486726118
 20
-116.32881049216326
 30
1861.0
 10
81.75697295326272
 20
-115.79286562098211
 30
1861.0
 10
81.89486295170586
 20
-115.25604499580079
 30
1861.0
 10
82.02967042879038
 20
-114.7184351769558
 30
1861.0
 10
82.16159712585548
 20
-114.18010918081025
 30
1861.0
 10
82.29081950502515
 20
-113.64112864734668
 30
1861.0
 10
82.41749424340622
 20
-113.10154522473985
 30
1861.0
 10
82.73247642494289
 20
-111.73242446470827
 30
1861.0
 10
82.91751597304204
 20
-110.9021449025204
 30
1861.0
 10
83.09738409867593
 20
-110.07071274007968
 30
1861.0
 10
83.27248963492892
 20
-109.23825255247269
 30
1861.0
 10
83.4431744225211
 20
-108.40486918889033
 30
1861.0
 10
83.60973120924638
 20
-107.57065143351639
 30
1861.0
 10
83.77241437505913
 20
-106.73567418858713
 30
1861.0
 10
83.9314473621107
 20
-105.89999999565524
 30
1861.0
  0
LINE
  5
59
330
17
100
AcDbEntity
  8
0
100
AcDbLine
 10
71.30193662889494
 20
-128.1
 30
1861.0
 11
77.0023786497347
 21
-128.1
 31
1861.0
  0
SPLINE
  5
5A
330
17
100
AcDbEntity
  8
0
100
AcDbSpline
 70
0
 71
1
 72
4
 73
2
 74
0
 40
0.0
 40
0.0
 40
1.0
 40
1.0
 10
71.30193663693726
 20
-131.9000006
 30
1861.0
 10
71.30193663693723
 20
-128.09999939999992
 30
1861.0
  0
LINE
  5
5B
330
17
100
AcDbEntity
  8
0
100
AcDbLine
 10
71.30193662889494
 20
-131.9
 30
1861.0
 11
72.89253198593167
 21
-131.9
 31
1861.0
  0
SPLINE
  5
5C
330
17
100
AcDbEntity
  8
0
100
AcDbSpline
 70
0
 71
8
 72
74
 73
65
 74
0
 40
0.0
 40
0.0
 40
0.0
 40
0.0
 40
0.0
 40
0.0
 40
0.0
 40
0.0
 40
0.0
 40
0.004128920973586129
 40
0.004128920973586129
 40
0.004128920973586129
 40
0.004128920973586129
 40
0.004128920973586129
 40
0.004128920973586129
 40
0.004128920973586129
 40
0.012236280692607931
 40
0.012236280692607931
 40
0.012236280692607931
 40
0.012236280692607931
 40
0.012236280692607931
 40
0.012236280692607931
 40
0.012236280692607931
 40
0.021153172098339983
 40
0.021153172098339983
 40
0.021153172098339983
 40
0.021153172098339983
 40
0.021153172098339983
 40
0.021153172098339983
 40
0.021153172098339983
 40
0.04294412965165065
 40
0.04294412965165065
 40
0.04294412965165065
 40
0.04294412965165065
 40
0.04294412965165065
 40
0.04294412965165065
 40
0.04294412965165065
 40
0.04570678075622333
 40
0.04570678075622333
 40
0.04570678075622333
 40
0.04570678075622333
 40
0.04570678075622333
 40
0.04570678075622333
 40
0.04570678075622333
 40
0.04961516073522902
 40
0.04961516073522902
 40
0.04961516073522902
 40
0.04961516073522902
 40
0.04961516073522902
 40
0.04961516073522902
 40
0.04961516073522902
 40
0.053873654788463926
 40
0.053873654788463926
 40
0.053873654788463926
 40
0.053873654788463926
 40
0.053873654788463926
 40
0.053873654788463926
 40
0.053873654788463926
 40
0.06128353576260449
 40
0.06128353576260449
 40
0.06128353576260449
 40
0.06128353576260449
 40
0.06128353576260449
 40
0.06128353576260449
 40
0.06128353576260449
 40
0.0642567375592508
 40
0.0642567375592508
 40
0.0642567375592508
 40
0.0642567375592508
 40
0.0642567375592508
 40
0.0642567375592508
 40
0.0642567375592508
 40
0.0642567375592508
 40
0.0642567375592508
 10
59.084021253320365
 20
-124.97881945697326
 30
1861.0
 10
59.14911794783349
 20
-125.09544771387898
 30
1861.0
 10
59.2163543841741
 20
-125.21090779377903
 30
1861.0
 10
59.28556131427718
 20
-125.3252383021167
 30
1861.0
 10
59.356595507676516
 20
-125.43847089163494
 30
1861.0
 10
59.42933449558579
 20
-125.55063342094297
 30
1861.0
 10
59.50367278714452
 20
-125.66175222615927
 30
1861.0
 10
59.579519557828625
 20
-125.77185350563023
 30
1861.0
 10
59.8085378392077
 20
-126.09520781872895
 30
1861.0
 10
59.96577654131
 20
-126.30560351163183
 30
1861.0
 10
60.12792944127863
 20
-126.51235149084383
 30
1861.0
 10
60.294547647912424
 20
-126.71558353949068
 30
1861.0
 10
60.46527792029569
 20
-126.91539341288113
 30
1861.0
 10
60.63983673270724
 20
-127.11185695209328
 30
1861.0
 10
60.817998338005836
 20
-127.30504152768054
 30
1861.0
 10
61.19932819508507
 20
-127.7039362103283
 30
1861.0
 10
61.403191656561035
 20
-127.90894535682398
 30
1861.0
 10
61.61094534161691
 20
-128.11009370966127
 30
1861.0
 10
61.82239464912405
 20
-128.30740411758975
 30
1861.0
 10
62.0373817265164
 20
-128.50087159412521
 30
1861.0
 10
62.25577857194709
 20
-128.69047036782732
 30
1861.0
 10
62.47748376121347
 20
-128.87615721015982
 30
1861.0
 10
63.25212524745509
 20
-129.5019404136648
 30
1861.0
 10
63.82062993231227
 20
-129.92187095842982
 30
1861.0
 10
64.40729684020147
 20
-130.31726832010946
 30
1861.0
 10
65.01169156788126
 20
-130.6863395461728
 30
1861.0
 10
65.63328884129699
 20
-131.02634468701117
 30
1861.0
 10
66.27151117895795
 20
-131.33349520802543
 30
1861.0
 10
66.92568789308646
 20
-131.60300036421037
 30
1861.0
 10
67.68030993334516
 20
-131.85695378704312
 30
1861.0
 10
67.76530635339012
 20
-131.88476440024675
 30
1861.0
 10
67.85038518030458
 20
-131.91180176064793
 30
1861.0
 10
67.9355387559083
 20
-131.93805559049713
 30
1861.0
 10
68.02075942202372
 20
-131.96351561204116
 30
1861.0
 10
68.10603952047599
 20
-131.988171547523
 30
1861.0
 10
68.1913713930929
 20
-132.01201311918183
 30
1861.0
 10
68.3975305685601
 20
-132.0675925789622
 30
1861.0
 10
68.51872820889331
 20
-132.09859674384396
 30
1861.0
 10
68.64033589216179
 20
-132.1279810978141
 30
1861.0
 10
68.76233165064136
 20
-132.15573296380234
 30
1861.0
 10
68.88469550312915
 20
-132.18181069197465
 30
1861.0
 10
69.00741626814069
 20
-132.2061193575564
 30
1861.0
 10
69.13048564660147
 20
-132.22853989825668
 30
1861.0
 10
69.38832717354876
 20
-132.27131735486276
 30
1861.0
 10
69.52278675935477
 20
-132.29124046695117
 30
1861.0
 10
69.65725156866021
 20
-132.30869581085852
 30
1861.0
 10
69.79171483866443
 20
-132.32359816984078
 30
1861.0
 10
69.9261698065568
 20
-132.33586232711124
 30
1861.0
 10
70.06060970951684
 20
-132.34540306584
 30
1861.0
 10
70.1950277847142
 20
-132.35213516915422
 30
1861.0
 10
70.56325817000544
 20
-132.36265206817305
 30
1861.0
 10
70.79739809224773
 20
-132.3605801682173
 30
1861.0
 10
71.03141084110818
 20
-132.34924686811914
 30
1861.0
 10
71.26483113709506
 20
-132.32821565621413
 30
1861.0
 10
71.49715785422441
 20
-132.2971545617707
 30
1861.0
 10
71.72785725809221
 20
-132.2558663554354
 30
1861.0
 10
71.9563662439466
 20
-132.20431874967835
 30
1861.0
 10
72.27266907442508
 20
-132.1179399915602
 30
1861.0
 10
72.36280792270774
 20
-132.09157628485846
 30
1861.0
 10
72.45247263887518
 20
-132.06359341311048
 30
1861.0
 10
72.54162717641321
 20
-132.034005333766
 30
1861.0
 10
72.63023872734125
 20
-132.00282965163865
 30
1861.0
 10
72.71827753098938
 20
-131.97008724708905
 30
1861.0
 10
72.80571668872314
 20
-131.9358019124208
 30
1861.0
 10
72.89253198610092
 20
-131.9000000004104
 30
1861.0
  0
SPLINE
  5
5D
330
17
100
AcDbEntity
  8
0
100
AcDbSpline
 70
0
 71
8
 72
375
 73
366
 74
0
 40
0.0
 40
0.0
 40
0.0
 40
0.0
 40
0.0
 40
0.0
 40
0.0
 40
0.0
 40
0.0
 40
0.0006280843894205979
 40
0.0006280843894205979
 40
0.0006280843894205979
 40
0.0006280843894205979
 40
0.0006280843894205979
 40
0.0006280843894205979
 40
0.0006280843894205979
 40
0.0021779906434388754
 40
0.0021779906434388754
 40
0.0021779906434388754
 40
0.0021779906434388754
 40
0.0021779906434388754
 40
0.0021779906434388754
 40
0.0021779906434388754
 40
0.003395424386675291
 40
0.003395424386675291
 40
0.003395424386675291
 40
0.003395424386675291
 40
0.003395424386675291
 40
0.003395424386675291
 40
0.003395424386675291
 40
0.004723533924775517
 40
0.004723533924775517
 40
0.004723533924775517
 40
0.004723533924775517
 40
0.004723533924775517
 40
0.004723533924775517
 40
0.004723533924775517
 40
0.006741410212885676
 40
0.006741410212885676
 40
0.006741410212885676
 40
0.006741410212885676
 40
0.006741410212885676
 40
0.006741410212885676
 40
0.006741410212885676
 40
0.010138937399850773
 40
0.010138937399850773
 40
0.010138937399850773
 40
0.010138937399850773
 40
0.010138937399850773
 40
0.010138937399850773
 40
0.010138937399850773
 40
0.01718319145501759
 40
0.01718319145501759
 40
0.01718319145501759
 40
0.01718319145501759
 40
0.01718319145501759
 40
0.01718319145501759
 40
0.01718319145501759
 40
0.031054530217309684
 40
0.031054530217309684
 40
0.031054530217309684
 40
0.031054530217309684
 40
0.031054530217309684
 40
0.031054530217309684
 40
0.031054530217309684
 40
0.04006594282277674
 40
0.04006594282277674
 40
0.04006594282277674
 40
0.04006594282277674
 40
0.04006594282277674
 40
0.04006594282277674
 40
0.04006594282277674
 40
0.05151626870876384
 40
0.05151626870876384
 40
0.05151626870876384
 40
0.05151626870876384
 40
0.05151626870876384
 40
0.05151626870876384
 40
0.05151626870876384
 40
0.088342495841099
 40
0.088342495841099
 40
0.088342495841099
 40
0.088342495841099
 40
0.088342495841099
 40
0.088342495841099
 40
0.088342495841099
 40
0.13502732528397177
 40
0.13502732528397177
 40
0.13502732528397177
 40
0.13502732528397177
 40
0.13502732528397177
 40
0.13502732528397177
 40
0.13502732528397177
 40
0.1769870991911002
 40
0.1769870991911002
 40
0.1769870991911002
 40
0.1769870991911002
 40
0.1769870991911002
 40
0.1769870991911002
 40
0.1769870991911002
 40
0.2177355002983612
 40
0.2177355002983612
 40
0.2177355002983612
 40
0.2177355002983612
 40
0.2177355002983612
 40
0.2177355002983612
 40
0.2177355002983612
 40
0.2627376635187684
 40
0.2627376635187684
 40
0.2627376635187684
 40
0.2627376635187684
 40
0.2627376635187684
 40
0.2627376635187684
 40
0.2627376635187684
 40
0.3033614525943889
 40
0.3033614525943889
 40
0.3033614525943889
 40
0.3033614525943889
 40
0.3033614525943889
 40
0.3033614525943889
 40
0.3033614525943889
 40
0.3258721172442771
 40
0.3258721172442771
 40
0.3258721172442771
 40
0.3258721172442771
 40
0.3258721172442771
 40
0.3258721172442771
 40
0.3258721172442771
 40
0.33385056582803024
 40
0.33385056582803024
 40
0.33385056582803024
 40
0.33385056582803024
 40
0.33385056582803024
 40
0.33385056582803024
 40
0.33385056582803024
 40
0.3408065875338424
 40
0.3408065875338424
 40
0.3408065875338424
 40
0.3408065875338424
 40
0.3408065875338424
 40
0.3408065875338424
 40
0.3408065875338424
 40
0.3488330611615337
 40
0.3488330611615337
 40
0.3488330611615337
 40
0.3488330611615337
 40
0.3488330611615337
 40
0.3488330611615337
 40
0.3488330611615337
 40
0.35292655147794494
 40
0.35292655147794494
 40
0.35292655147794494
 40
0.35292655147794494
 40
0.35292655147794494
 40
0.35292655147794494
 40
0.35292655147794494
 40
0.3551750944385042
 40
0.3551750944385042
 40
0.3551750944385042
 40
0.3551750944385042
 40
0.3551750944385042
 40
0.3551750944385042
 40
0.3551750944385042
 40
0.35742363739906147
 40
0.35742363739906147
 40
0.35742363739906147
 40
0.35742363739906147
 40
0.35742363739906147
 40
0.35742363739906147
 40
0.35742363739906147
 40
0.359672180359619
 40
0.359672180359619
 40
0.359672180359619
 40
0.359672180359619
 40
0.359672180359619
 40
0.359672180359619
 40
0.359672180359619
 40
0.36150368784902215
 40
0.36150368784902215
 40
0.36150368784902215
 40
0.36150368784902215
 40
0.36150368784902215
 40
0.36150368784902215
 40
0.36150368784902215
 40
0.36406594452783997
 40
0.36406594452783997
 40
0.36406594452783997
 40
0.36406594452783997
 40
0.36406594452783997
 40
0.36406594452783997
 40
0.36406594452783997
 40
0.36573582330497334
 40
0.36573582330497334
 40
0.36573582330497334
 40
0.36573582330497334
 40
0.36573582330497334
 40
0.36573582330497334
 40
0.36573582330497334
 40
0.36883681835030313
 40
0.36883681835030313
 40
0.36883681835030313
 40
0.36883681835030313
 40
0.36883681835030313
 40
0.36883681835030313
 40
0.36883681835030313
 40
0.372505678651704
 40
0.372505678651704
 40
0.372505678651704
 40
0.372505678651704
 40
0.372505678651704
 40
0.372505678651704
 40
0.372505678651704
 40
0.37617453895309344
 40
0.37617453895309344
 40
0.37617453895309344
 40
0.37617453895309344
 40
0.37617453895309344
 40
0.37617453895309344
 40
0.37617453895309344
 40
0.3824196338107038
 40
0.3824196338107038
 40
0.3824196338107038
 40
0.3824196338107038
 40
0.3824196338107038
 40
0.3824196338107038
 40
0.3824196338107038
 40
0.39472375386649444
 40
0.39472375386649444
 40
0.39472375386649444
 40
0.39472375386649444
 40
0.39472375386649444
 40
0.39472375386649444
 40
0.39472375386649444
 40
0.4189526629816693
 40
0.4189526629816693
 40
0.4189526629816693
 40
0.4189526629816693
 40
0.4189526629816693
 40
0.4189526629816693
 40
0.4189526629816693
 40
0.4346927968949279
 40
0.4346927968949279
 40
0.4346927968949279
 40
0.4346927968949279
 40
0.4346927968949279
 40
0.4346927968949279
 40
0.4346927968949279
 40
0.4546929845073592
 40
0.4546929845073592
 40
0.4546929845073592
 40
0.4546929845073592
 40
0.4546929845073592
 40
0.4546929845073592
 40
0.4546929845073592
 40
0.5190174810106029
 40
0.5190174810106029
 40
0.5190174810106029
 40
0.5190174810106029
 40
0.5190174810106029
 40
0.5190174810106029
 40
0.5190174810106029
 40
0.600563307677346
 40
0.600563307677346
 40
0.600563307677346
 40
0.600563307677346
 40
0.600563307677346
 40
0.600563307677346
 40
0.600563307677346
 40
0.6738573315902152
 40
0.6738573315902152
 40
0.6738573315902152
 40
0.6738573315902152
 40
0.6738573315902152
 40
0.6738573315902152
 40
0.6738573315902152
 40
0.7450371768845835
 40
0.7450371768845835
 40
0.7450371768845835
 40
0.7450371768845835
 40
0.7450371768845835
 40
0.7450371768845835
 40
0.7450371768845835
 40
0.823649289711285
 40
0.823649289711285
 40
0.823649289711285
 40
0.823649289711285
 40
0.823649289711285
 40
0.823649289711285
 40
0.823649289711285
 40
0.894614224380222
 40
0.894614224380222
 40
0.894614224380222
 40
0.894614224380222
 40
0.894614224380222
 40
0.894614224380222
 40
0.894614224380222
 40
0.9339380375602938
 40
0.9339380375602938
 40
0.9339380375602938
 40
0.9339380375602938
 40
0.9339380375602938
 40
0.9339380375602938
 40
0.9339380375602938
 40
0.9478755903562543
 40
0.9478755903562543
 40
0.9478755903562543
 40
0.9478755903562543
 40
0.9478755903562543
 40
0.9478755903562543
 40
0.9478755903562543
 40
0.9600270650730304
 40
0.9600270650730304
 40
0.9600270650730304
 40
0.9600270650730304
 40
0.9600270650730304
 40
0.9600270650730304
 40
0.9600270650730304
 40
0.9740485107912046
 40
0.9740485107912046
 40
0.9740485107912046
 40
0.9740485107912046
 40
0.9740485107912046
 40
0.9740485107912046
 40
0.9740485107912046
 40
0.9811994261089403
 40
0.9811994261089403
 40
0.9811994261089403
 40
0.9811994261089403
 40
0.9811994261089403
 40
0.9811994261089403
 40
0.9811994261089403
 40
0.9851274028744921
 40
0.9851274028744921
 40
0.9851274028744921
 40
0.9851274028744921
 40
0.9851274028744921
 40
0.9851274028744921
 40
0.9851274028744921
 40
0.9890553796400441
 40
0.9890553796400441
 40
0.9890553796400441
 40
0.9890553796400441
 40
0.9890553796400441
 40
0.9890553796400441
 40
0.9890553796400441
 40
0.9929833564055952
 40
0.9929833564055952
 40
0.9929833564055952
 40
0.9929833564055952
 40
0.9929833564055952
 40
0.9929833564055952
 40
0.9929833564055952
 40
0.996182770929051
 40
0.996182770929051
 40
0.996182770929051
 40
0.996182770929051
 40
0.996182770929051
 40
0.996182770929051
 40
0.996182770929051
 40
0.9975248101526639
 40
0.9975248101526639
 40
0.9975248101526639
 40
0.9975248101526639
 40
0.9975248101526639
 40
0.9975248101526639
 40
0.9975248101526639
 40
1.0
 40
1.0
 40
1.0
 40
1.0
 40
1.0
 40
1.0
 40
1.0
 40
1.0
 40
1.0
 10
59.08402125332038
 20
124.97881945697317
 30
1861.0
 10
59.08394235606673
 20
124.97890409322522
 30
1861.0
 10
59.08395930167786
 20
124.97879280473944
 30
1861.0
 10
59.08401006975289
 20
124.97866266019429
 30
1861.0
 10
59.08405292745183
 20
124.97860205232637
 30
1861.0
 10
59.08406642949558
 20
124.9786106979308
 30
1861.0
 10
59.0840494181659
 20
124.9785996378609
 30
1861.0
 10
59.08402102330543
 20
124.97839123702818
 30
1861.0
 10
59.08401977151844
 20
124.97606077896359
 30
1861.0
 10
59.08401784338769
 20
124.97247116840407
 30
1861.0
 10
59.08401418705832
 20
124.96566416157398
 30
1861.0
 10
59.08400827486473
 20
124.95465740149965
 30
1861.0
 10
59.08400054735034
 20
124.94027104925712
 30
1861.0
 10
59.083991433156484
 20
124.9233031091268
 30
1861.0
 10
59.083981533135685
 20
124.90487219099253
 30
1861.0
 10
59.08396350408344
 20
124.87130741447952
 30
1861.0
 10
59.08395461045879
 20
124.85475010911291
 30
1861.0
 10
59.08394468663685
 20
124.83627488027366
 30
1861.0
 10
59.083933664537916
 20
124.81575498370141
 30
1861.0
 10
59.08392147608233
 20
124.7930636751361
 30
1861.0
 10
59.08390805319044
 20
124.76807421031769
 30
1861.0
 10
59.08389332778256
 20
124.74065984498631
 30
1861.0
 10
59.083859672502456
 20
124.67800364204066
 30
1861.0
 10
59.08384048210375
 20
124.64227678103988
 30
1861.0
 10
59.08381957219702
 20
124.60334870335844
 30
1861.0
 10
59.08379685439634
 20
124.56105486047524
 30
1861.0
 10
59.08377224031578
 20
124.51523070386915
 30
1861.0
 10
59.0837456415694
 20
124.46571168501926
 30
1861.0
 10
59.08371696977128
 20
124.41233325540475
 30
1861.0
 10
59.083639289755496
 20
124.2677159824016
 30
1861.0
 10
59.08359224050376
 20
124.18012415566996
 30
1861.0
 10
59.08354505931999
 20
124.09228671046452
 30
1861.0
 10
59.08349778464073
 20
124.004275204177
 30
1861.0
 10
59.08345044232086
 20
123.91613777101225
 30
1861.0
 10
59.08340304892868
 20
123.82790525635
 30
1861.0
 10
59.083355610080055
 20
123.73958811516111
 30
1861.0
 10
59.08322817389732
 20
123.50233953787364
 30
1861.0
 10
59.083148117872476
 20
123.35329883697788
 30
1861.0
 10
59.08306798809005
 20
123.20412082123477
 30
1861.0
 10
59.082987803433895
 20
123.05484064672301
 30
1861.0
 10
59.08290757697071
 20
122.90548263988451
 30
1861.0
 10
59.082827317458616
 20
122.75606310582428
 30
1861.0
 10
59.082747029188276
 20
122.60659003227696
 30
1861.0
 10
59.08250019077027
 20
122.14704971781649
 30
1861.0
 10
59.082333565856686
 20
121.83684328478229
 30
1861.0
 10
59.08216687170704
 20
121.52650795465556
 30
1861.0
 10
59.082000127287756
 20
121.21607903724289
 30
1861.0
 10
59.08183334548225
 20
120.905580517762
 30
1861.0
 10
59.08166653472339
 20
120.59502809563826
 30
1861.0
 10
59.08149969854465
 20
120.28442834920881
 30
1861.0
 10
59.081004259228926
 20
119.36206650303491
 30
1861.0
 10
59.080675600286
 20
118.75020050909086
 30
1861.0
 10
59.08034688663282
 20
118.13823266078731
 30
1861.0
 10
59.08001813323588
 20
117.52619082127525
 30
1861.0
 10
59.07968935025965
 20
116.9140939139126
 30
1861.0
 10
59.0793605443601
 20
116.30195433009627
 30
1861.0
 10
59.0790317183373
 20
115.68977728267635
 30
1861.0
 10
59.07848924029675
 20
114.67984320777754
 30
1861.0
 10
59.078275610337236
 20
114.28210981929615
 30
1861.0
 10
59.07806191558178
 20
113.88436441792199
 30
1861.0
 10
59.07784831377621
 20
113.48660919127268
 30
1861.0
 10
59.0776348518961
 20
113.08884539606497
 30
1861.0
 10
59.07742152815122
 20
112.69107378981336
 30
1861.0
 10
59.077208418931654
 20
112.29329542688141
 30
1861.0
 10
59.07672504153966
 20
111.39006689073544
 30
1861.0
 10
59.07645491867087
 20
110.88461302337117
 30
1861.0
 10
59.07618523108342
 20
110.3791505250633
 30
1861.0
 10
59.07591602896736
 20
109.87368047366654
 30
1861.0
 10
59.07564735335681
 20
109.36820373469551
 30
1861.0
 10
59.07537923843345
 20
108.86272099853389
 30
1861.0
 10
59.07511171383001
 20
108.35723281764368
 30
1861.0
 10
59.073986388222735
 20
106.22598622678757
 30
1861.0
 10
59.07313435789165
 20
104.60018241613363
 30
1861.0
 10
59.07228959398065
 20
102.97434263936209
 30
1861.0
 10
59.071452628131816
 20
101.34847530931536
 30
1861.0
 10
59.07062390205337
 20
99.7225863269522
 30
1861.0
 10
59.06980382470936
 20
98.09667989051925
 30
1861.0
 10
59.06899276145813
 20
96.47075838152955
 30
1861.0
 10
59.06717479802478
 20
92.78361516803317
 30
1861.0
 10
59.06617359748561
 20
90.72238678824316
 30
1861.0
 10
59.06518823700658
 20
88.66114231987157
 30
1861.0
 10
59.06421946473509
 20
86.5998849374222
 30
1861.0
 10
59.06326806071762
 20
84.5386170385778
 30
1861.0
 10
59.062334866595265
 20
82.47734051251608
 30
1861.0
 10
59.06142080898097
 20
80.41605686663428
 30
1861.0
 10
59.05972349651922
 20
76.50210438928309
 30
1861.0
 10
59.05893636541651
 20
74.64943685774547
 30
1861.0
 10
59.058166275552324
 20
72.79676554594951
 30
1861.0
 10
59.05741404223432
 20
70.94409127443312
 30
1861.0
 10
59.05668056555815
 20
69.09141477910131
 30
1861.0
 10
59.05596685223003
 20
67.23873673493536
 30
1861.0
 10
59.055274037389125
 20
65.38605777970182
 30
1861.0
 10
59.0539521364929
 20
61.734185886032044
 30
1861.0
 10
59.053322384813285
 20
59.93499298205267
 30
1861.0
 10
59.05271340483498
 20
58.135800399180916
 30
1861.0
 10
59.05212419243146
 20
56.33660871222201
 30
1861.0
 10
59.051553637360236
 20
54.53741851537996
 30
1861.0
 10
59.051000674717244
 20
52.73823044030805
 30
1861.0
 10
59.05046443639112
 20
50.93904517415969
 30
1861.0
 10
59.04937008184184
 20
47.15286359126653
 30
1861.0
 10
59.04881541763081
 20
45.165868154659144
 30
1861.0
 10
59.048279410054214
 20
43.17887810820583
 30
1861.0
 10
59.04776116321928
 20
41.191894628976456
 30
1861.0
 10
59.04725986650602
 20
39.204919138450116
 30
1861.0
 10
59.046774774818935
 20
37.217953380089384
 30
1861.0
 10
59.04630518775488
 20
35.23099956676046
 30
1861.0
 10
59.045439912375144
 20
31.450435940940945
 30
1861.0
 10
59.04504147989762
 20
29.656824305568797
 30
1861.0
 10
59.044654627112784
 20
27.86322704656015
 30
1861.0
 10
59.04427887602144
 20
26.069646535633282
 30
1861.0
 10
59.04391372366492
 20
24.276086821771038
 30
1861.0
 10
59.04355864919949
 20
22.482553553722312
 30
1861.0
 10
59.04321305904184
 20
20.689054744691823
 30
1861.0
 10
59.04268930632631
 20
17.901807710218012
 30
1861.0
 10
59.042505198157116
 20
16.908028220455257
 30
1861.0
 10
59.04232356497963
 20
15.914266386347546
 30
1861.0
 10
59.04214423641786
 20
14.920524515328239
 30
1861.0
 10
59.04196695989172
 20
13.926807635159378
 30
1861.0
 10
59.04179142728254
 20
12.933123087800382
 30
1861.0
 10
59.04161720984881
 20
11.939481563596676
 30
1861.0
 10
59.04138180969945
 20
10.59374886377745
 30
1861.0
 10
59.04132026864117
 20
10.241603024316106
 30
1861.0
 10
59.0412587090174
 20
9.889466453546106
 30
1861.0
 10
59.041197127036426
 20
9.537339892246592
 30
1861.0
 10
59.04113559130152
 20
9.185224428358055
 30
1861.0
 10
59.04107402483057
 20
8.83312164759613
 30
1861.0
 10
59.0410124743643
 20
8.481033225211775
 30
1861.0
 10
59.0408972625623
 20
7.8220068649007155
 30
1861.0
 10
59.04084360283518
 20
7.51506522101775
 30
1861.0
 10
59.04078994575743
 20
7.208137572374353
 30
1861.0
 10
59.040736291643064
 20
6.901225631745382
 30
1861.0
 10
59.040682640897536
 20
6.594331622479937
 30
1861.0
 10
59.04062899403322
 20
6.287458363568945
 30
1861.0
 10
59.04057535169744
 20
5.98060942294449
 30
1861.0
 10
59.04045982361193
 20
5.319753164845302
 30
1861.0
 10
59.04039794084685
 20
4.965762339812926
 30
1861.0
 10
59.040336066568955
 20
4.611817466517341
 30
1861.0
 10
59.04027420193457
 20
4.257924853727488
 30
1861.0
 10
59.04021234970892
 20
3.904099900684656
 30
1861.0
 10
59.04015051410754
 20
3.550366197616789
 30
1861.0
 10
59.040088701339286
 20
3.196758543081831
 30
1861.0
 10
59.03999541509818
 20
2.663094136599602
 30
1861.0
 10
59.03996391849911
 20
2.482909411679003
 30
1861.0
 10
59.03993243262104
 20
2.3027843255287817
 30
1861.0
 10
59.03990095890229
 20
2.122726904517691
 30
1861.0
 10
59.03986950095461
 20
1.9427575338761773
 30
1861.0
 10
59.03983806432107
 20
1.7629075774139515
 30
1861.0
 10
59.03980665718745
 20
1.5832233882112892
 30
1861.0
 10
59.039758066415274
 20
1.30522345093739
 30
1861.0
 10
59.03974176055343
 20
1.2119323794112808
 30
1861.0
 10
59.03972634772508
 20
1.1237494824188548
 30
1861.0
 10
59.03971179915829
 20
1.04051022139534
 30
1861.0
 10
59.03969808608113
 20
0.9620500577759624
 30
1861.0
 10
59.0396851797217
 20
0.8882044529959449
 30
1861.0
 10
59.03967305130808
 20
0.8188088684905067
 30
1861.0
 10
59.03965029282861
 20
0.688588662899292
 30
1861.0
 10
59.039639662762774
 20
0.627764041813473
 30
1861.0
 10
59.039629753098914
 20
0.571060363872661
 30
1861.0
 10
59.03962053506509
 20
0.5183130905121038
 30
1861.0
 10
59.03961197988945
 20
0.46935768316704185
 30
1861.0
 10
59.03960405880003
 20
0.4240296032727083
 30
1861.0
 10
59.03959674302491
 20
0.3821643122643294
 30
1861.0
 10
59.03958326455944
 20
0.3050302308899262
 30
1861.0
 10
59.03957710186911
 20
0.2697614405238653
 30
1861.0
 10
59.039571486949264
 20
0.23762636191417896
 30
1861.0
 10
59.03956639102799
 20
0.20846045649610156
 30
1861.0
 10
59.039561785333376
 20
0.18209918570486497
 30
1861.0
 10
59.039557641093474
 20
0.1583780109756978
 30
1861.0
 10
59.03955392953639
 20
0.13713239374382624
 30
1861.0
 10
59.0395479277105
 20
0.10277498200375845
 30
1861.0
 10
59.03954530909789
 20
0.08778397877677335
 30
1861.0
 10
59.03954278174966
 20
0.07331453634738061
 30
1861.0
 10
59.039540380850994
 20
0.0595679570735399
 30
1861.0
 10
59.03953815620385
 20
0.04682919914072059
 30
1861.0
 10
59.039536174354836
 20
0.03547913590464091
 30
1861.0
 10
59.03953450638836
 20
0.02592481978558503
 30
1861.0
 10
59.03953132451988
 20
0.007694383985253239
 30
1861.0
 10
59.039530246079714
 20
0.0011731240317800484
 30
1861.0
 10
59.039529563337275
 20
-0.0012628951477040573
 30
1861.0
 10
59.03953006311665
 20
-0.0008920769144253882
 30
1861.0
 10
59.03953013487345
 20
0.0004354764107858955
 30
1861.0
 10
59.039529715454265
 20
0.0011081341137213485
 30
1861.0
 10
59.03953002835058
 20
-0.00025846735145762523
 30
1861.0
 10
59.03953144810994
 20
-0.008400950032454446
 30
1861.0
 10
59.03953226569909
 20
-0.013087747481435485
 30
1861.0
 10
59.03953338878758
 20
-0.019523333193921744
 30
1861.0
 10
59.03953482204332
 20
-0.02773385516488247
 30
1861.0
 10
59.03953652700324
 20
-0.0374988528542719
 30
1861.0
 10
59.03953844617951
 20
-0.04848917869378511
 30
1861.0
 10
59.03954052502661
 20
-0.06039259142431419
 30
1861.0
 10
59.039546755623796
 20
-0.0960659006916984
 30
1861.0
 10
59.039551207937684
 20
-0.12155430814655688
 30
1861.0
 10
59.03955589568509
 20
-0.14838808931398262
 30
1861.0
 10
59.039560728073134
 20
-0.17604805307325933
 30
1861.0
 10
59.03956564288147
 20
-0.20417836104329012
 30
1861.0
 10
59.03957061232276
 20
-0.2326202339592669
 30
1861.0
 10
59.03957563243501
 20
-0.26135115536843045
 30
1861.0
 10
59.03958675067201
 20
-0.32498079456175333
 30
1861.0
 10
59.03959332125223
 20
-0.36258304093744953
 30
1861.0
 10
59.03960046575924
 20
-0.4034685795829906
 30
1861.0
 10
59.03960821296493
 20
-0.44780194906303816
 30
1861.0
 10
59.039616591641206
 20
-0.4957476879423349
 30
1861.0
 10
59.03962563056
 20
-0.5474703347857042
 30
1861.0
 10
59.03963535849323
 20
-0.6031344281580501
 30
1861.0
 10
59.039656249932406
 20
-0.7226745850904805
 30
1861.0
 10
59.03966741343833
 20
-0.7865506486503215
 30
1861.0
 10
59.03967932350252
 20
-0.8546972358686236
 30
1861.0
 10
59.03969200889687
 20
-0.9272788853101458
 30
1861.0
 10
59.03970549839335
 20
-1.0044601355396625
 30
1861.0
 10
59.03971982076383
 20
-1.086405525121963
 30
1861.0
 10
59.039735004780226
 20
-1.1732795926218529
 30
1861.0
 10
59.039778440944936
 20
-1.4217926060909623
 30
1861.0
 10
59.03980584528595
 20
-1.5785787481573657
 30
1861.0
 10
59.03983327857827
 20
-1.7355278744510194
 30
1861.0
 10
59.039860732960264
 20
-1.892595419654043
 30
1861.0
 10
59.039888203078455
 20
-2.0497510594373
 30
1861.0
 10
59.039915685418535
 20
-2.2069749300092667
 30
1861.0
 10
59.039943178486915
 20
-2.3642586628576563
 30
1861.0
 10
59.04002486979003
 20
-2.8315983521084114
 30
1861.0
 10
59.04007909172809
 20
-3.1417859910676036
 30
1861.0
 10
59.04013333692315
 20
-3.4521025348996357
 30
1861.0
 10
59.04018759908929
 20
-3.762512671638845
 30
1861.0
 10
59.04024187395079
 20
-4.072992414654536
 30
1861.0
 10
59.04029615869716
 20
-4.3835260636090005
 30
1861.0
 10
59.04035045212991
 20
-4.694107039713957
 30
1861.0
 10
59.04051168384319
 20
-5.616413068112868
 30
1861.0
 10
59.04061864135595
 20
-6.228242020804558
 30
1861.0
 10
59.040725617805904
 20
-6.840172834156965
 30
1861.0
 10
59.040832608145294
 20
-7.45217764307435
 30
1861.0
 10
59.04093960893669
 20
-8.064237523177336
 30
1861.0
 10
59.04104661791073
 20
-8.676340082452164
 30
1861.0
 10
59.04115363408053
 20
-9.288480107480972
 30
1861.0
 10
59.04133018410102
 20
-10.298353171915283
 30
1861.0
 10
59.041399722842925
 20
-10.696062570851481
 30
1861.0
 10
59.04146920557542
 20
-11.093783983413745
 30
1861.0
 10
59.04153878845569
 20
-11.491515221842917
 30
1861.0
 10
59.041608517548276
 20
-11.889255029285374
 30
1861.0
 10
59.04167839051442
 20
-12.28700264814994
 30
1861.0
 10
59.041748482977184
 20
-12.684757024045414
 30
1861.0
 10
59.04190816729371
 20
-13.587931879746327
 30
1861.0
 10
59.04199790717534
 20
-14.093356053910346
 30
1861.0
 10
59.04208808870898
 20
-14.598788859337793
 30
1861.0
 10
59.04217876130014
 20
-15.104229218069507
 30
1861.0
 10
59.0422699653524
 20
-15.60967626450695
 30
1861.0
 10
59.04236173454382
 20
-16.115129308197762
 30
1861.0
 10
59.04245409810314
 20
-16.620587796621347
 30
1861.0
 10
59.04284614089135
 20
-18.751720225130157
 30
1861.0
 10
59.04315162471521
 20
-20.377439566102897
 30
1861.0
 10
59.0434644020256
 20
-22.00319487134774
 30
1861.0
 10
59.04378499828339
 20
-23.62897772708068
 30
1861.0
 10
59.04411385084011
 20
-25.254782231469395
 30
1861.0
 10
59.04445136553291
 20
-26.880604185555498
 30
1861.0
 10
59.04479790590395
 20
-28.50644120752935
 30
1861.0
 10
59.04560507812799
 20
-32.19342506698177
 30
1861.0
 10
59.04607141529547
 20
-34.254578577129045
 30
1861.0
 10
59.046553605427036
 20
-36.31574816718461
 30
1861.0
 10
59.047052394214965
 20
-38.37693066177507
 30
1861.0
 10
59.04756855980079
 20
-40.438123662443424
 30
1861.0
 10
59.04810294226705
 20
-42.49932527929441
 30
1861.0
 10
59.048656466911694
 20
-44.56053400423108
 30
1861.0
 10
59.04974580229185
 20
-48.47438456585273
 30
1861.0
 10
59.05027773649655
 20
-50.327025105184475
 30
1861.0
 10
59.05082671543908
 20
-52.17966941429674
 30
1861.0
 10
59.0513935536665
 20
-54.03231667204293
 30
1861.0
 10
59.05197915054455
 20
-55.88496614188683
 30
1861.0
 10
59.0525845120494
 20
-57.737617148178224
 30
1861.0
 10
59.05321077255953
 20
-59.59026905242868
 30
1861.0
 10
59.054488956255135
 20
-63.24213333876551
 30
1861.0
 10
59.05514021490609
 20
-65.041345686825
 30
1861.0
 10
59.05581224526124
 20
-66.84055770074774
 30
1861.0
 10
59.056504042475375
 20
-68.63976880635552
 30
1861.0
 10
59.05721449562834
 20
-70.43897841016404
 30
1861.0
 10
59.05794253915595
 20
-72.23818588123734
 30
1861.0
 10
59.058687304281
 20
-74.03739053304191
 30
1861.0
 10
59.06028869314588
 20
-77.82365686380814
 30
1861.0
 10
59.06114876894818
 20
-79.81071766035603
 30
1861.0
 10
59.062027497077075
 20
-81.79777305520811
 30
1861.0
 10
59.062923980570616
 20
-83.78482187196737
 30
1861.0
 10
59.06383740759609
 20
-85.77186268981927
 30
1861.0
 10
59.064767031635135
 20
-87.75889376596515
 30
1861.0
 10
59.06571215053691
 20
-89.74591288824568
 30
1861.0
 10
59.06753863851363
 20
-93.52663091422608
 30
1861.0
 10
59.06841726539467
 20
-95.32033164201545
 30
1861.0
 10
59.069307460823694
 20
-97.11401798698938
 30
1861.0
 10
59.07020874496437
 20
-98.90768757798764
 30
1861.0
 10
59.07112061181425
 20
-100.70133636668955
 30
1861.0
 10
59.0720425363324
 20
-102.49495870518928
 30
1861.0
 10
59.07297391902148
 20
-104.28854658150173
 30
1861.0
 10
59.0744346905675
 20
-107.07594102305663
 30
1861.0
 10
59.07495815744578
 20
-108.06977885342067
 30
1861.0
 10
59.0754840861467
 20
-109.06359902774432
 30
1861.0
 10
59.07601230458762
 20
-110.05739923894495
 30
1861.0
 10
59.07654255651853
 20
-111.05117445974233
 30
1861.0
 10
59.07707452848404
 20
-112.04491734884758
 30
1861.0
 10
59.0776077839832
 20
-113.03861721695671
 30
1861.0
 10
59.078330544321425
 20
-114.3844295682179
 30
1861.0
 10
59.078519730873325
 20
-114.73659671168896
 30
1861.0
 10
59.078708892081345
 20
-115.08875458745007
 30
1861.0
 10
59.078898023614975
 20
-115.44090245356688
 30
1861.0
 10
59.079087193297866
 20
-115.79303922393446
 30
1861.0
 10
59.07927632299701
 20
-116.14516331109832
 30
1861.0
 10
59.07946545824938
 20
-116.49727304123078
 30
1861.0
 10
59.07981947042599
 20
-117.15633927686667
 30
1861.0
 10
59.07998435165751
 20
-117.46329948826529
 30
1861.0
 10
59.08014922537204
 20
-117.77024570527368
 30
1861.0
 10
59.08031409064964
 20
-118.07717621521918
 30
1861.0
 10
59.08047894629613
 20
-118.38408879488634
 30
1861.0
 10
59.08064379079742
 20
-118.69098062545532
 30
1861.0
 10
59.08080862223712
 20
-118.99784813921
 30
1861.0
 10
59.08116361737949
 20
-119.65874436707446
 30
1861.0
 10
59.08135377222387
 20
-120.01275658970258
 30
1861.0
 10
59.08154390238719
 20
-120.36672286342538
 30
1861.0
 10
59.08173400448087
 20
-120.72063687978901
 30
1861.0
 10
59.08192407023384
 20
-121.07448324048912
 30
1861.0
 10
59.08211408697563
 20
-121.42823835674993
 30
1861.0
 10
59.08230403601548
 20
-121.78186743205755
 30
1861.0
 10
59.082590706949816
 20
-122.31556414093549
 30
1861.0
 10
59.08268749757981
 20
-122.49575973976806
 30
1861.0
 10
59.082784256177305
 20
-122.67589570351521
 30
1861.0
 10
59.082880978431184
 20
-122.85596400614017
 30
1861.0
 10
59.082977653392334
 20
-123.03594426370363
 30
1861.0
 10
59.08307426421498
 20
-123.21580511431999
 30
1861.0
 10
59.08317078600234
 20
-123.39550020742398
 30
1861.0
 10
59.083320120521655
 20
-123.67351702720573
 30
1861.0
 10
59.083370234109516
 20
-123.76681374375737
 30
1861.0
 10
59.0834176037161
 20
-123.85500197668063
 30
1861.0
 10
59.08346231772734
 20
-123.93824627449645
 30
1861.0
 10
59.08350446452913
 20
-124.01671118572584
 30
1861.0
 10
59.083544132507434
 20
-124.09056125888979
 30
1861.0
 10
59.08358141004819
 20
-124.15996104250924
 30
1861.0
 10
59.08365136102643
 20
-124.29018912770108
 30
1861.0
 10
59.08368403446389
 20
-124.35101742927355
 30
1861.0
 10
59.083714494235664
 20
-124.40772453834342
 30
1861.0
 10
59.083742828727615
 20
-124.4604750034317
 30
1861.0
 10
59.08376912632574
 20
-124.5094333730594
 30
1861.0
 10
59.08379347541593
 20
-124.55476419574747
 30
1861.0
 10
59.083815964384115
 20
-124.5966320200169
 30
1861.0
 10
59.083857398848316
 20
-124.67377076876035
 30
1861.0
 10
59.08387634434433
 20
-124.70904169323447
 30
1861.0
 10
59.083893606490186
 20
-124.74117871633182
 30
1861.0
 10
59.08390927367183
 20
-124.77034638657341
 30
1861.0
 10
59.08392343427517
 20
-124.79670925248027
 30
1861.0
 10
59.083936176686144
 20
-124.82043186257333
 30
1861.0
 10
59.08394758929067
 20
-124.84167876537357
 30
1861.0
 10
59.083966045104624
 20
-124.8760380462692
 30
1861.0
 10
59.08397409779511
 20
-124.89102978023453
 30
1861.0
 10
59.083981870351984
 20
-124.90549998836904
 30
1861.0
 10
59.083989254648955
 20
-124.91924737077785
 30
1861.0
 10
59.08399609761945
 20
-124.93198696299079
 30
1861.0
 10
59.084002194660926
 20
-124.94333785568699
 30
1861.0
 10
59.08400732708839
 20
-124.95289292143342
 30
1861.0
 10
59.08401312160497
 20
-124.96368060184206
 30
1861.0
 10
59.08401460699986
 20
-124.96644596892803
 30
1861.0
 10
59.08401588300361
 20
-124.96882151149549
 30
1861.0
 10
59.08401696716044
 20
-124.97083989166399
 30
1861.0
 10
59.08401787701451
 20
-124.9725337715532
 30
1861.0
 10
59.08401863011006
 20
-124.97393581328278
 30
1861.0
 10
59.08401924399127
 20
-124.9750786789723
 30
1861.0
 10
59.08402064401169
 20
-124.97768510399362
 30
1861.0
 10
59.084091246251674
 20
-124.97822960143958
 30
1861.0
 10
59.08413348065553
 20
-124.97828165671167
 30
1861.0
 10
59.084099774921086
 20
-124.97827732457645
 30
1861.0
 10
59.08399304671087
 20
-124.97843558093408
 30
1861.0
 10
59.083866703652056
 20
-124.97875832281858
 30
1861.0
 10
59.08382464333642
 20
-124.97903036839773
 30
1861.0
 10
59.08402125332038
 20
-124.97881945697317
 30
1861.0
  0
ENDSEC
  0
SECTION
  2
OBJECTS
  0
DICTIONARY
  5
A
330
0
100
AcDbDictionary
281
1
  3
ACAD_COLOR
350
B
  3
ACAD_GROUP
350
C
  3
ACAD_LAYOUT
350
D
  3
ACAD_MATERIAL
350
E
  3
ACAD_MLEADERSTYLE
350
F
  3
ACAD_MLINESTYLE
350
10
  3
ACAD_PLOTSETTINGS
350
11
  3
ACAD_PLOTSTYLENAME
350
12
  3
ACAD_SCALELIST
350
14
  3
ACAD_TABLESTYLE
350
15
  3
ACAD_VISUALSTYLE
350
16
  3
EZDXF_META
350
2D
  0
DICTIONARY
  5
B
330
A
100
AcDbDictionary
281
1
  0
DICTIONARY
  5
C
330
A
100
AcDbDictionary
281
1
  0
DICTIONARY
  5
D
330
A
100
AcDbDictionary
281
1
  3
Model
350
1A
  3
Layout1
350
1E
  0
DICTIONARY
  5
E
330
A
100
AcDbDictionary
281
1
  3
ByBlock
350
1F
  3
ByLayer
350
20
  3
Global
350
21
  0
DICTIONARY
  5
F
330
A
100
AcDbDictionary
281
1
  3
Standard
350
2C
  0
DICTIONARY
  5
10
330
A
100
AcDbDictionary
281
1
  3
Standard
350
22
  0
DICTIONARY
  5
11
330
A
100
AcDbDictionary
281
1
  0
ACDBDICTIONARYWDFLT
  5
12
330
A
100
AcDbDictionary
281
1
  3
Normal
350
13
100
AcDbDictionaryWithDefault
340
13
  0
ACDBPLACEHOLDER
  5
13
330
12
  0
DICTIONARY
  5
14
330
A
100
AcDbDictionary
281
1
  0
DICTIONARY
  5
15
330
A
100
AcDbDictionary
281
1
  0
DICTIONARY
  5
16
330
A
100
AcDbDictionary
281
1
  0
LAYOUT
  5
1A
330
D
100
AcDbPlotSettings
  1

  2
Adobe PDF
  4
A3
  6

 40
7.5
 41
20.0
 42
7.5
 43
20.0
 44
420.0
 45
297.0
 46
0.0
 47
0.0
 48
0.0
 49
0.0
140
0.0
141
0.0
142
1.0
143
1.0
 70
1024
 72
1
 73
1
 74
5
  7

 75
16
 76
0
 77
2
 78
300
147
1.0
148
0.0
149
0.0
100
AcDbLayout
  1
Model
 70
1
 71
0
 10
0.0
 20
0.0
 11
420.0
 21
297.0
 12
0.0
 22
0.0
 32
0.0
 14
1e+20
 24
1e+20
 34
1e+20
 15
-1e+20
 25
-1e+20
 35
-1e+20
146
0.0
 13
0.0
 23
0.0
 33
0.0
 16
1.0
 26
0.0
 36
0.0
 17
0.0
 27
1.0
 37
0.0
 76
1
330
17
  0
LAYOUT
  5
1E
330
D
100
AcDbPlotSettings
  1

  2
Adobe PDF
  4
A3
  6

 40
7.5
 41
20.0
 42
7.5
 43
20.0
 44
420.0
 45
297.0
 46
0.0
 47
0.0
 48
0.0
 49
0.0
140
0.0
141
0.0
142
1.0
143
1.0
 70
0
 72
1
 73
1
 74
5
  7

 75
16
 76
0
 77
2
 78
300
147
1.0
148
0.0
149
0.0
100
AcDbLayout
  1
Layout1
 70
1
 71
1
 10
0.0
 20
0.0
 11
420.0
 21
297.0
 12
0.0
 22
0.0
 32
0.0
 14
1e+20
 24
1e+20
 34
1e+20
 15
-1e+20
 25
-1e+20
 35
-1e+20
146
0.0
 13
0.0
 23
0.0
 33
0.0
 16
1.0
 26
0.0
 36
0.0
 17
0.0
 27
1.0
 37
0.0
 76
1
330
1B
  0
MATERIAL
  5
1F
102
{ACAD_REACTORS
330
E
102
}
330
E
100
AcDbMaterial
  1
ByBlock
  2

 70
0
 40
1.0
 71
1
 41
1.0
 91
-1023410177
 42
1.0
 72
1
  3

 73
1
 74
1
 75
1
 44
0.5
 73
0
 45
1.0
 46
1.0
 77
1
  4

 78
1
 79
1
170
1
 48
1.0
171
1
  6

172
1
173
1
174
1
140
1.0
141
1.0
175
1
  7

176
1
177
1
178
1
143
1.0
179
1
  8

270
1
271
1
272
1
145
1.0
146
1.0
273
1
  9

274
1
275
1
276
1
 42
1.0
 72
1
  3

 73
1
 74
1
 75
1
 94
63
  0
MATERIAL
  5
20
102
{ACAD_REACTORS
330
E
102
}
330
E
100
AcDbMaterial
  1
ByLayer
  2

 70
0
 40
1.0
 71
1
 41
1.0
 91
-1023410177
 42
1.0
 72
1
  3

 73
1
 74
1
 75
1
 44
0.5
 73
0
 45
1.0
 46
1.0
 77
1
  4

 78
1
 79
1
170
1
 48
1.0
171
1
  6

172
1
173
1
174
1
140
1.0
141
1.0
175
1
  7

176
1
177
1
178
1
143
1.0
179
1
  8

270
1
271
1
272
1
145
1.0
146
1.0
273
1
  9

274
1
275
1
276
1
 42
1.0
 72
1
  3

 73
1
 74
1
 75
1
 94
63
  0
MATERIAL
  5
21
102
{ACAD_REACTORS
330
E
102
}
330
E
100
AcDbMaterial
  1
Global
  2

 70
0
 40
1.0
 71
1
 41
1.0
 91
-1023410177
 42
1.0
 72
1
  3

 73
1
 74
1
 75
1
 44
0.5
 73
0
 45
1.0
 46
1.0
 77
1
  4

 78
1
 79
1
170
1
 48
1.0
171
1
  6

172
1
173
1
174
1
140
1.0
141
1.0
175
1
  7

176
1
177
1
178
1
143
1.0
179
1
  8

270
1
271
1
272
1
145
1.0
146
1.0
273
1
  9

274
1
275
1
276
1
 42
1.0
 72
1
  3

 73
1
 74
1
 75
1
 94
63
  0
MLINESTYLE
  5
22
102
{ACAD_REACTORS
330
10
102
}
330
10
100
AcDbMlineStyle
  2
Standard
 70
0
  3

 62
256
 51
90.0
 52
90.0
 71
2
 49
0.5
 62
256
  6
BYLAYER
 49
-0.5
 62
256
  6
BYLAYER
  0
MLEADERSTYLE
  5
2C
102
{ACAD_REACTORS
330
F
102
}
330
F
100
AcDbMLeaderStyle
179
2
170
2
171
1
172
0
 90
2
 40
0.0
 41
0.0
173
1
 91
-1056964608
 92
-2
290
1
 42
2.0
291
1
 43
8.0
  3
Standard
 44
4.0
300

342
29
174
1
175
1
176
0
178
1
 93
-1056964608
 45
4.0
292
0
297
0
 46
4.0
 94
-1056964608
 47
1.0
 49
1.0
140
1.0
294
1
141
0.0
177
0
142
1.0
295
0
296
0
143
3.75
271
0
272
9
273
9
  0
DICTIONARY
  5
2D
330
A
100
AcDbDictionary
280
1
281
1
  3
CREATED_BY_EZDXF
350
2E
  3
WRITTEN_BY_EZDXF
350
60
  0
DICTIONARYVAR
  5
2E
330
2D
100
DictionaryVariables
280
0
  1
0.17 @ 2022-02-15T16:45:45.354320+00:00
  0
DICTIONARYVAR
  5
60
330
2D
100
DictionaryVariables
280
0
  1
0.17 @ 2022-02-15T16:45:45.415233+00:00
  0
ENDSEC
  0
EOF
