  0
SECTION
  2
HEADER
  9
$ACADVER
  1
AC1027
  9
$ACADMAINTVER
 70
105
  9
$DWGCODEPAGE
  3
ANSI_1252
  9
$LASTSAVEDBY
  1
ezdxf
  9
$REQUIREDVERSIONS
160
0
  9
$INSBASE
 10
0.0
 20
0.0
 30
0.0
  9
$EXTMIN
 10
1e+20
 20
1e+20
 30
1e+20
  9
$EXTMAX
 10
-1e+20
 20
-1e+20
 30
-1e+20
  9
$LIMMIN
 10
0.0
 20
0.0
  9
$LIMMAX
 10
420.0
 20
297.0
  9
$ORTHOMODE
 70
0
  9
$REGENMODE
 70
1
  9
$FILLMODE
 70
1
  9
$QTEXTMODE
 70
0
  9
$MIRRTEXT
 70
1
  9
$LTSCALE
 40
1.0
  9
$ATTMODE
 70
1
  9
$TEXTSIZE
 40
2.5
  9
$TRACEWID
 40
1.0
  9
$TEXTSTYLE
  7
Standard
  9
$CLAYER
  8
0
  9
$CELTYPE
  6
ByLayer
  9
$CECOLOR
 62
256
  9
$CELTSCALE
 40
1.0
  9
$DISPSILH
 70
0
  9
$DIMSCALE
 40
1.0
  9
$DIMASZ
 40
2.5
  9
$DIMEXO
 40
0.625
  9
$DIMDLI
 40
3.75
  9
$DIMRND
 40
0.0
  9
$DIMDLE
 40
0.0
  9
$DIMEXE
 40
1.25
  9
$DIMTP
 40
0.0
  9
$DIMTM
 40
0.0
  9
$DIMTXT
 40
2.5
  9
$DIMCEN
 40
2.5
  9
$DIMTSZ
 40
0.0
  9
$DIMTOL
 70
0
  9
$DIMLIM
 70
0
  9
$DIMTIH
 70
0
  9
$DIMTOH
 70
0
  9
$DIMSE1
 70
0
  9
$DIMSE2
 70
0
  9
$DIMTAD
 70
1
  9
$DIMZIN
 70
8
  9
$DIMBLK
  1

  9
$DIMASO
 70
1
  9
$DIMSHO
 70
1
  9
$DIMPOST
  1

  9
$DIMAPOST
  1

  9
$DIMALT
 70
0
  9
$DIMALTD
 70
3
  9
$DIMALTF
 40
0.03937007874
  9
$DIMLFAC
 40
1.0
  9
$DIMTOFL
 70
1
  9
$DIMTVP
 40
0.0
  9
$DIMTIX
 70
0
  9
$DIMSOXD
 70
0
  9
$DIMSAH
 70
0
  9
$DIMBLK1
  1

  9
$DIMBLK2
  1

  9
$DIMSTYLE
  2
ISO-25
  9
$DIMCLRD
 70
0
  9
$DIMCLRE
 70
0
  9
$DIMCLRT
 70
0
  9
$DIMTFAC
 40
1.0
  9
$DIMGAP
 40
0.625
  9
$DIMJUST
 70
0
  9
$DIMSD1
 70
0
  9
$DIMSD2
 70
0
  9
$DIMTOLJ
 70
0
  9
$DIMTZIN
 70
8
  9
$DIMALTZ
 70
0
  9
$DIMALTTZ
 70
0
  9
$DIMUPT
 70
0
  9
$DIMDEC
 70
2
  9
$DIMTDEC
 70
2
  9
$DIMALTU
 70
2
  9
$DIMALTTD
 70
3
  9
$DIMTXSTY
  7
Standard
  9
$DIMAUNIT
 70
0
  9
$DIMADEC
 70
0
  9
$DIMALTRND
 40
0.0
  9
$DIMAZIN
 70
0
  9
$DIMDSEP
 70
44
  9
$DIMATFIT
 70
3
  9
$DIMFRAC
 70
0
  9
$DIMLDRBLK
  1

  9
$DIMLUNIT
 70
2
  9
$DIMLWD
 70
-2
  9
$DIMLWE
 70
-2
  9
$DIMTMOVE
 70
0
  9
$DIMFXL
 40
1.0
  9
$DIMFXLON
 70
0
  9
$DIMJOGANG
 40
0.785398163397
  9
$DIMTFILL
 70
0
  9
$DIMTFILLCLR
 70
0
  9
$DIMARCSYM
 70
0
  9
$DIMLTYPE
  6

  9
$DIMLTEX1
  6

  9
$DIMLTEX2
  6

  9
$DIMTXTDIRECTION
 70
0
  9
$LUNITS
 70
2
  9
$LUPREC
 70
4
  9
$SKETCHINC
 40
1.0
  9
$FILLETRAD
 40
10.0
  9
$AUNITS
 70
0
  9
$AUPREC
 70
2
  9
$MENU
  1
.
  9
$ELEVATION
 40
0.0
  9
$PELEVATION
 40
0.0
  9
$THICKNESS
 40
0.0
  9
$LIMCHECK
 70
0
  9
$CHAMFERA
 40
0.0
  9
$CHAMFERB
 40
0.0
  9
$CHAMFERC
 40
0.0
  9
$CHAMFERD
 40
0.0
  9
$SKPOLY
 70
0
  9
$TDCREATE
 40
2459626.740115741
  9
$TDUCREATE
 40
2458532.153996898
  9
$TDUPDATE
 40
2459626.740115741
  9
$TDUUPDATE
 40
2458532.1544311
  9
$TDINDWG
 40
0.0
  9
$TDUSRTIMER
 40
0.0
  9
$USRTIMER
 70
1
  9
$ANGBASE
 50
0.0
  9
$ANGDIR
 70
0
  9
$PDMODE
 70
0
  9
$PDSIZE
 40
0.0
  9
$PLINEWID
 40
0.0
  9
$SPLFRAME
 70
0
  9
$SPLINETYPE
 70
6
  9
$SPLINESEGS
 70
8
  9
$HANDSEED
  5
59
  9
$SURFTAB1
 70
6
  9
$SURFTAB2
 70
6
  9
$SURFTYPE
 70
6
  9
$SURFU
 70
6
  9
$SURFV
 70
6
  9
$UCSBASE
  2

  9
$UCSNAME
  2

  9
$UCSORG
 10
0.0
 20
0.0
 30
0.0
  9
$UCSXDIR
 10
1.0
 20
0.0
 30
0.0
  9
$UCSYDIR
 10
0.0
 20
1.0
 30
0.0
  9
$UCSORTHOREF
  2

  9
$UCSORTHOVIEW
 70
0
  9
$UCSORGTOP
 10
0.0
 20
0.0
 30
0.0
  9
$UCSORGBOTTOM
 10
0.0
 20
0.0
 30
0.0
  9
$UCSORGLEFT
 10
0.0
 20
0.0
 30
0.0
  9
$UCSORGRIGHT
 10
0.0
 20
0.0
 30
0.0
  9
$UCSORGFRONT
 10
0.0
 20
0.0
 30
0.0
  9
$UCSORGBACK
 10
0.0
 20
0.0
 30
0.0
  9
$PUCSBASE
  2

  9
$PUCSNAME
  2

  9
$PUCSORG
 10
0.0
 20
0.0
 30
0.0
  9
$PUCSXDIR
 10
1.0
 20
0.0
 30
0.0
  9
$PUCSYDIR
 10
0.0
 20
1.0
 30
0.0
  9
$PUCSORTHOREF
  2

  9
$PUCSORTHOVIEW
 70
0
  9
$PUCSORGTOP
 10
0.0
 20
0.0
 30
0.0
  9
$PUCSORGBOTTOM
 10
0.0
 20
0.0
 30
0.0
  9
$PUCSORGLEFT
 10
0.0
 20
0.0
 30
0.0
  9
$PUCSORGRIGHT
 10
0.0
 20
0.0
 30
0.0
  9
$PUCSORGFRONT
 10
0.0
 20
0.0
 30
0.0
  9
$PUCSORGBACK
 10
0.0
 20
0.0
 30
0.0
  9
$USERI1
 70
0
  9
$USERI2
 70
0
  9
$USERI3
 70
0
  9
$USERI4
 70
0
  9
$USERI5
 70
0
  9
$USERR1
 40
0.0
  9
$USERR2
 40
0.0
  9
$USERR3
 40
0.0
  9
$USERR4
 40
0.0
  9
$USERR5
 40
0.0
  9
$WORLDVIEW
 70
1
  9
$SHADEDGE
 70
3
  9
$SHADEDIF
 70
70
  9
$TILEMODE
 70
1
  9
$MAXACTVP
 70
64
  9
$PINSBASE
 10
0.0
 20
0.0
 30
0.0
  9
$PLIMCHECK
 70
0
  9
$PEXTMIN
 10
1e+20
 20
1e+20
 30
1e+20
  9
$PEXTMAX
 10
-1e+20
 20
-1e+20
 30
-1e+20
  9
$PLIMMIN
 10
0.0
 20
0.0
  9
$PLIMMAX
 10
420.0
 20
297.0
  9
$UNITMODE
 70
0
  9
$VISRETAIN
 70
1
  9
$PLINEGEN
 70
0
  9
$PSLTSCALE
 70
1
  9
$TREEDEPTH
 70
3020
  9
$CMLSTYLE
  2
Standard
  9
$CMLJUST
 70
0
  9
$CMLSCALE
 40
20.0
  9
$PROXYGRAPHICS
 70
1
  9
$MEASUREMENT
 70
1
  9
$CELWEIGHT
370
-1
  9
$ENDCAPS
280
0
  9
$JOINSTYLE
280
0
  9
$LWDISPLAY
290
0
  9
$INSUNITS
 70
6
  9
$HYPERLINKBASE
  1

  9
$STYLESHEET
  1

  9
$XEDIT
290
1
  9
$CEPSNTYPE
380
0
  9
$PSTYLEMODE
290
1
  9
$FINGERPRINTGUID
  2
{2D10D407-DA67-4AF7-BF26-D2067D093AF4}
  9
$VERSIONGUID
  2
{6B28F8C4-668B-4D82-8FB4-A1AB029D2AB3}
  9
$EXTNAMES
290
1
  9
$PSVPSCALE
 40
0.0
  9
$OLESTARTUP
290
0
  9
$SORTENTS
280
127
  9
$INDEXCTL
280
0
  9
$HIDETEXT
280
1
  9
$XCLIPFRAME
280
0
  9
$HALOGAP
280
0
  9
$OBSCOLOR
 70
257
  9
$OBSLTYPE
280
0
  9
$INTERSECTIONDISPLAY
280
0
  9
$INTERSECTIONCOLOR
 70
257
  9
$DIMASSOC
280
2
  9
$PROJECTNAME
  1

  9
$CAMERADISPLAY
290
0
  9
$LENSLENGTH
 40
50.0
  9
$CAMERAHEIGHT
 40
0.0
  9
$STEPSPERSEC
 40
24.0
  9
$STEPSIZE
 40
100.0
  9
$3DDWFPREC
 40
2.0
  9
$PSOLWIDTH
 40
0.005
  9
$PSOLHEIGHT
 40
0.08
  9
$LOFTANG1
 40
1.570796326795
  9
$LOFTANG2
 40
1.570796326795
  9
$LOFTMAG1
 40
0.0
  9
$LOFTMAG2
 40
0.0
  9
$LOFTPARAM
 70
7
  9
$LOFTNORMALS
280
1
  9
$LATITUDE
 40
37.795
  9
$LONGITUDE
 40
-122.394
  9
$NORTHDIRECTION
 40
0.0
  9
$TIMEZONE
 70
-8000
  9
$LIGHTGLYPHDISPLAY
280
1
  9
$TILEMODELIGHTSYNCH
280
1
  9
$CMATERIAL
347
20
  9
$SOLIDHIST
280
0
  9
$SHOWHIST
280
1
  9
$DWFFRAME
280
2
  9
$DGNFRAME
280
2
  9
$REALWORLDSCALE
290
1
  9
$INTERFERECOLOR
 62
256
  9
$CSHADOW
280
0
  9
$SHADOWPLANELOCATION
 40
0.0
  0
ENDSEC
  0
SECTION
  2
CLASSES
  0
CLASS
  1
ACDBDICTIONARYWDFLT
  2
AcDbDictionaryWithDefault
  3
ObjectDBX Classes
 90
0
 91
0
280
0
281
0
  0
CLASS
  1
SUN
  2
AcDbSun
  3
SCENEOE
 90
1153
 91
0
280
0
281
0
  0
CLASS
  1
VISUALSTYLE
  2
AcDbVisualStyle
  3
ObjectDBX Classes
 90
4095
 91
0
280
0
281
0
  0
CLASS
  1
MATERIAL
  2
AcDbMaterial
  3
ObjectDBX Classes
 90
1153
 91
0
280
0
281
0
  0
CLASS
  1
SCALE
  2
AcDbScale
  3
ObjectDBX Classes
 90
1153
 91
0
280
0
281
0
  0
CLASS
  1
TABLESTYLE
  2
AcDbTableStyle
  3
ObjectDBX Classes
 90
4095
 91
0
280
0
281
0
  0
CLASS
  1
MLEADERSTYLE
  2
AcDbMLeaderStyle
  3
ACDB_MLEADERSTYLE_CLASS
 90
4095
 91
0
280
0
281
0
  0
CLASS
  1
DICTIONARYVAR
  2
AcDbDictionaryVar
  3
ObjectDBX Classes
 90
0
 91
0
280
0
281
0
  0
CLASS
  1
CELLSTYLEMAP
  2
AcDbCellStyleMap
  3
ObjectDBX Classes
 90
1152
 91
0
280
0
281
0
  0
CLASS
  1
MENTALRAYRENDERSETTINGS
  2
AcDbMentalRayRenderSettings
  3
SCENEOE
 90
1024
 91
0
280
0
281
0
  0
CLASS
  1
ACDBDETAILVIEWSTYLE
  2
AcDbDetailViewStyle
  3
ObjectDBX Classes
 90
1025
 91
0
280
0
281
0
  0
CLASS
  1
ACDBSECTIONVIEWSTYLE
  2
AcDbSectionViewStyle
  3
ObjectDBX Classes
 90
1025
 91
0
280
0
281
0
  0
CLASS
  1
RASTERVARIABLES
  2
AcDbRasterVariables
  3
ISM
 90
0
 91
0
280
0
281
0
  0
CLASS
  1
ACDBPLACEHOLDER
  2
AcDbPlaceHolder
  3
ObjectDBX Classes
 90
0
 91
0
280
0
281
0
  0
CLASS
  1
LAYOUT
  2
AcDbLayout
  3
ObjectDBX Classes
 90
0
 91
0
280
0
281
0
  0
ENDSEC
  0
SECTION
  2
TABLES
  0
TABLE
  2
VPORT
  5
8
330
0
100
AcDbSymbolTable
 70
1
  0
VPORT
  5
23
330
8
100
AcDbSymbolTableRecord
100
AcDbViewportTableRecord
  2
*Active
 70
0
 10
0.0
 20
0.0
 11
1.0
 21
1.0
 12
344.2
 22
148.5
 13
0.0
 23
0.0
 14
0.5
 24
0.5
 15
0.5
 25
0.5
 16
0.0
 26
0.0
 36
1.0
 17
0.0
 27
0.0
 37
0.0
 40
297.0
 41
1.34
 42
50.0
 43
0.0
 44
0.0
 50
0.0
 51
0.0
 71
0
 72
1000
 73
1
 74
3
 75
0
 76
0
 77
0
 78
0
281
0
 65
0
146
0.0
  0
ENDTAB
  0
TABLE
  2
LTYPE
  5
2
330
0
100
AcDbSymbolTable
 70
3
  0
LTYPE
  5
24
330
2
100
AcDbSymbolTableRecord
100
AcDbLinetypeTableRecord
  2
ByBlock
 70
0
  3

 72
65
 73
0
 40
0.0
  0
LTYPE
  5
25
330
2
100
AcDbSymbolTableRecord
100
AcDbLinetypeTableRecord
  2
ByLayer
 70
0
  3

 72
65
 73
0
 40
0.0
  0
LTYPE
  5
26
330
2
100
AcDbSymbolTableRecord
100
AcDbLinetypeTableRecord
  2
Continuous
 70
0
  3

 72
65
 73
0
 40
0.0
  0
ENDTAB
  0
TABLE
  2
LAYER
  5
1
330
0
100
AcDbSymbolTable
 70
2
  0
LAYER
  5
27
330
1
100
AcDbSymbolTableRecord
100
AcDbLayerTableRecord
  2
0
 70
0
 62
7
  6
Continuous
370
-3
390
13
347
21
  0
LAYER
  5
28
330
1
100
AcDbSymbolTableRecord
100
AcDbLayerTableRecord
  2
Defpoints
 70
0
 62
7
  6
Continuous
290
0
370
-3
390
13
347
21
  0
ENDTAB
  0
TABLE
  2
STYLE
  5
5
330
0
100
AcDbSymbolTable
 70
1
  0
STYLE
  5
29
330
5
100
AcDbSymbolTableRecord
100
AcDbTextStyleTableRecord
  2
Standard
 70
0
 40
0.0
 41
1.0
 50
0.0
 71
0
 42
2.5
  3
txt
  4

  0
ENDTAB
  0
TABLE
  2
VIEW
  5
7
330
0
100
AcDbSymbolTable
 70
0
  0
ENDTAB
  0
TABLE
  2
UCS
  5
6
330
0
100
AcDbSymbolTable
 70
0
  0
ENDTAB
  0
TABLE
  2
APPID
  5
3
330
0
100
AcDbSymbolTable
 70
3
  0
APPID
  5
2A
330
3
100
AcDbSymbolTableRecord
100
AcDbRegAppTableRecord
  2
ACAD
 70
0
  0
APPID
  5
56
330
3
100
AcDbSymbolTableRecord
100
AcDbRegAppTableRecord
  2
HATCHBACKGROUNDCOLOR
 70
0
  0
APPID
  5
57
330
3
100
AcDbSymbolTableRecord
100
AcDbRegAppTableRecord
  2
EZDXF
 70
0
  0
ENDTAB
  0
TABLE
  2
DIMSTYLE
  5
4
330
0
100
AcDbSymbolTable
 70
1
100
AcDbDimStyleTable
  0
DIMSTYLE
105
2B
330
4
100
AcDbSymbolTableRecord
100
AcDbDimStyleTableRecord
  2
Standard
 70
0
 40
1.0
 41
2.5
 42
0.625
 43
3.75
 44
1.25
 45
0.0
 46
0.0
 47
0.0
 48
0.0
 49
2.5
140
2.5
141
2.5
142
0.0
143
0.03937007874
144
1.0
145
0.0
146
1.0
147
0.625
148
0.0
 69
0
 70
0
 71
0
 72
0
 73
0
 74
0
 75
0
 76
0
 77
1
 78
8
 79
0
170
0
171
3
172
1
173
0
174
0
175
0
176
0
177
0
178
0
179
0
271
0
272
2
273
2
274
3
275
0
276
0
277
2
278
44
279
0
280
0
281
0
282
0
283
0
284
8
285
0
286
0
288
0
289
3
290
0
371
-2
372
-2
  0
ENDTAB
  0
TABLE
  2
BLOCK_RECORD
  5
9
330
0
100
AcDbSymbolTable
 70
2
  0
BLOCK_RECORD
  5
17
330
9
100
AcDbSymbolTableRecord
100
AcDbBlockTableRecord
  2
*Model_Space
340
1A
 70
0
280
1
281
0
  0
BLOCK_RECORD
  5
1B
330
9
100
AcDbSymbolTableRecord
100
AcDbBlockTableRecord
  2
*Paper_Space
340
1E
 70
0
280
1
281
0
  0
ENDTAB
  0
ENDSEC
  0
SECTION
  2
BLOCKS
  0
BLOCK
  5
18
330
17
100
AcDbEntity
  8
0
100
AcDbBlockBegin
  2
*Model_Space
 70
0
 10
0.0
 20
0.0
 30
0.0
  3
*Model_Space
  1

  0
ENDBLK
  5
19
330
17
100
AcDbEntity
  8
0
100
AcDbBlockEnd
  0
BLOCK
  5
1C
330
1B
100
AcDbEntity
  8
0
100
AcDbBlockBegin
  2
*Paper_Space
 70
0
 10
0.0
 20
0.0
 30
0.0
  3
*Paper_Space
  1

  0
ENDBLK
  5
1D
330
1B
100
AcDbEntity
  8
0
100
AcDbBlockEnd
  0
ENDSEC
  0
SECTION
  2
ENTITIES
  0
SPLINE
  5
2F
330
17
100
AcDbEntity
  8
0
100
AcDbSpline
 70
0
 71
8
 72
88
 73
79
 74
0
 40
0.0
 40
0.0
 40
0.0
 40
0.0
 40
0.0
 40
0.0
 40
0.0
 40
0.0
 40
0.0
 40
0.006238683955393522
 40
0.006238683955393522
 40
0.006238683955393522
 40
0.006238683955393522
 40
0.006238683955393522
 40
0.006238683955393522
 40
0.006238683955393522
 40
0.10341680473473888
 40
0.10341680473473888
 40
0.10341680473473888
 40
0.10341680473473888
 40
0.10341680473473888
 40
0.10341680473473888
 40
0.10341680473473888
 40
0.20049791128767502
 40
0.20049791128767502
 40
0.20049791128767502
 40
0.20049791128767502
 40
0.20049791128767502
 40
0.20049791128767502
 40
0.20049791128767502
 40
0.39743327162660785
 40
0.39743327162660785
 40
0.39743327162660785
 40
0.39743327162660785
 40
0.39743327162660785
 40
0.39743327162660785
 40
0.39743327162660785
 40
0.4709583647010892
 40
0.4709583647010892
 40
0.4709583647010892
 40
0.4709583647010892
 40
0.4709583647010892
 40
0.4709583647010892
 40
0.4709583647010892
 40
0.5776634339871519
 40
0.5776634339871519
 40
0.5776634339871519
 40
0.5776634339871519
 40
0.5776634339871519
 40
0.5776634339871519
 40
0.5776634339871519
 40
0.6119701825692913
 40
0.6119701825692913
 40
0.6119701825692913
 40
0.6119701825692913
 40
0.6119701825692913
 40
0.6119701825692913
 40
0.6119701825692913
 40
0.6465931966471752
 40
0.6465931966471752
 40
0.6465931966471752
 40
0.6465931966471752
 40
0.6465931966471752
 40
0.6465931966471752
 40
0.6465931966471752
 40
0.8017259468235792
 40
0.8017259468235792
 40
0.8017259468235792
 40
0.8017259468235792
 40
0.8017259468235792
 40
0.8017259468235792
 40
0.8017259468235792
 40
0.9269615197330014
 40
0.9269615197330014
 40
0.9269615197330014
 40
0.9269615197330014
 40
0.9269615197330014
 40
0.9269615197330014
 40
0.9269615197330014
 40
1.0
 40
1.0
 40
1.0
 40
1.0
 40
1.0
 40
1.0
 40
1.0
 40
1.0
 40
1.0
 10
84.72117078710706
 20
105.90000000008834
 30
1887.0
 10
84.71381805451956
 20
105.92538637974789
 30
1887.0
 10
84.70646309300001
 20
105.95073951722225
 30
1887.0
 10
84.69910590453317
 20
105.97605937946945
 30
1887.0
 10
84.69174649110386
 20
106.00134593344752
 30
1887.0
 10
84.68438485469684
 20
106.02659914611449
 30
1887.0
 10
84.67702099729692
 20
106.0518189844284
 30
1887.0
 10
84.66965492088889
 20
106.07700541534726
 30
1887.0
 10
84.54751291650682
 20
106.4939590427081
 30
1887.0
 10
84.43218311483315
 20
106.87773758360359
 30
1887.0
 10
84.31627767678461
 20
107.25321642399572
 30
1887.0
 10
84.20005053589844
 20
107.62030301459592
 30
1887.0
 10
84.08301484260511
 20
107.97877788021438
 30
1887.0
 10
83.96566695779785
 20
108.32884412653104
 30
1887.0
 10
83.8477834514255
 20
108.67056632132682
 30
1887.0
 10
83.61109985905301
 20
109.33749708271631
 30
1887.0
 10
83.48981099789036
 20
109.66971368718521
 30
1887.0
 10
83.36533967168198
 20
110.00075708350457
 30
1887.0
 10
83.23749289704985
 20
110.33051596112773
 30
1887.0
 10
83.10605857594246
 20
110.65885770606664
 30
1887.0
 10
82.97080102317089
 20
110.98562660350292
 30
1887.0
 10
82.83145445224034
 20
111.31064120244565
 30
1887.0
 10
82.39612838227202
 20
112.28901811998418
 30
1887.0
 10
82.08708737879063
 20
112.9348548739722
 30
1887.0
 10
81.75748114601652
 20
113.57108727484214
 30
1887.0
 10
81.40390249974925
 20
114.19572881112478
 30
1887.0
 10
81.02255795948636
 20
114.80486406292201
 30
1887.0
 10
80.6089944908287
 20
115.3924586319853
 30
1887.0
 10
80.15786978810401
 20
115.9502120500845
 30
1887.0
 10
79.47653869660785
 20
116.65961634516319
 30
1887.0
 10
79.28520947261362
 20
116.84655758688152
 30
1887.0
 10
79.08750088152435
 20
117.02691152210278
 30
1887.0
 10
78.88319858649707
 20
117.1998898363409
 30
1887.0
 10
78.67215781648854
 20
117.36460799029072
 30
1887.0
 10
78.45433032433549
 20
117.5201199271589
 30
1887.0
 10
78.22980545565274
 20
117.66547128972799
 30
1887.0
 10
77.66370788456464
 20
117.9946770628441
 30
1887.0
 10
77.31438142607833
 20
118.16668905976209
 30
1887.0
 10
76.95272873123655
 20
118.31230574959869
 30
1887.0
 10
76.58080202890011
 20
118.42921708989668
 30
1887.0
 10
76.20090843326885
 20
118.51644754724262
 30
1887.0
 10
75.81563142889541
 20
118.57438927904252
 30
1887.0
 10
75.42781418826922
 20
118.60468771668207
 30
1887.0
 10
74.91596206009969
 20
118.61163121600632
 30
1887.0
 10
74.79134919665853
 20
118.61073357017948
 30
1887.0
 10
74.66665788874244
 20
118.60732685364482
 30
1887.0
 10
74.54189411125171
 20
118.6014889246113
 30
1887.0
 10
74.41706383907454
 20
118.59329764124399
 30
1887.0
 10
74.29217304708713
 20
118.58283086166406
 30
1887.0
 10
74.16722771015354
 20
118.57016644394879
 30
1887.0
 10
73.91608760794463
 20
118.54046175642299
 30
1887.0
 10
73.79019568983982
 20
118.52341301221527
 30
1887.0
 10
73.66457892342645
 20
118.50436625802728
 30
1887.0
 10
73.53927118760825
 20
118.48335094459237
 30
1887.0
 10
73.4142760386131
 20
118.46053383455752
 30
1887.0
 10
73.28960158059685
 20
118.43604701303414
 30
1887.0
 10
73.16528706401503
 20
118.40984098292142
 30
1887.0
 10
72.48595084130747
 20
118.25724416503024
 30
1887.0
 10
71.93832349787088
 20
118.09961915263287
 30
1887.0
 10
71.39926613191774
 20
117.9132090726707
 30
1887.0
 10
70.86961988273983
 20
117.7010907557644
 30
1887.0
 10
70.35011598477425
 20
117.46570571198359
 30
1887.0
 10
69.8413892027306
 20
117.20884926364201
 30
1887.0
 10
69.34397013683258
 20
116.93171190644006
 30
1887.0
 10
68.46644914358652
 20
116.39475398871315
 30
1887.0
 10
68.08267569335179
 20
116.14217178068648
 30
1887.0
 10
67.70727576417258
 20
115.87702530859016
 30
1887.0
 10
67.34083288415681
 20
115.59929574341552
 30
1887.0
 10
66.9842540932339
 20
115.30887107220443
 30
1887.0
 10
66.63899197000597
 20
115.00532508345671
 30
1887.0
 10
66.3069080333544
 20
114.6880614631261
 30
1887.0
 10
65.80725132923439
 20
114.16100399347155
 30
1887.0
 10
65.62919158022984
 20
113.96194196092347
 30
1887.0
 10
65.45743298247419
 20
113.7573102509115
 30
1887.0
 10
65.29283157428388
 20
113.54654014649108
 30
1887.0
 10
65.13666555322433
 20
113.32921870944838
 30
1887.0
 10
64.99105632773639
 20
113.10486106472987
 30
1887.0
 10
64.85860241592576
 20
112.87311929730168
 30
1887.0
 10
64.74417667839995
 20
112.63266370406686
 30
1887.0
  0
LINE
  5
30
330
17
100
AcDbEntity
  8
0
100
AcDbLine
 10
76.38019152392512
 20
105.9
 30
1887.0
 11
84.72117078680208
 21
105.9
 31
1887.0
  0
SPLINE
  5
31
330
17
100
AcDbEntity
  8
0
100
AcDbSpline
 70
0
 71
1
 72
4
 73
2
 74
0
 40
0.0
 40
0.0
 40
1.0
 40
1.0
 10
76.3801915179647
 20
105.90000060000206
 30
1887.0
 10
76.38019151796468
 20
102.09999939999993
 30
1887.0
  0
LINE
  5
32
330
17
100
AcDbEntity
  8
0
100
AcDbLine
 10
76.38019152392512
 20
102.1
 30
1887.0
 11
85.7237777925844
 21
102.1
 31
1887.0
  0
SPLINE
  5
33
330
17
100
AcDbEntity
  8
0
100
AcDbSpline
 70
0
 71
8
 72
32
 73
23
 74
0
 40
0.0
 40
0.0
 40
0.0
 40
0.0
 40
0.0
 40
0.0
 40
0.0
 40
0.0
 40
0.0
 40
0.38216708363318846
 40
0.38216708363318846
 40
0.38216708363318846
 40
0.38216708363318846
 40
0.38216708363318846
 40
0.38216708363318846
 40
0.38216708363318846
 40
0.7506857991136955
 40
0.7506857991136955
 40
0.7506857991136955
 40
0.7506857991136955
 40
0.7506857991136955
 40
0.7506857991136955
 40
0.7506857991136955
 40
1.0
 40
1.0
 40
1.0
 40
1.0
 40
1.0
 40
1.0
 40
1.0
 40
1.0
 40
1.0
 10
89.63636040052253
 20
79.90000000308908
 30
1887.0
 10
89.49374006676598
 20
80.96789529549113
 30
1887.0
 10
89.34762857392012
 20
82.0353200488933
 30
1887.0
 10
89.1978804587869
 20
83.1022397021913
 30
1887.0
 10
89.04433090271257
 20
84.1686152663706
 30
1887.0
 10
88.88679195647751
 20
85.23440281198978
 30
1887.0
 10
88.72504734647491
 20
86.29955276616909
 30
1887.0
 10
88.55884494639388
 20
87.36400889409671
 30
1887.0
 10
88.22303081845124
 20
89.45341660285865
 30
1887.0
 10
88.05375525421861
 20
90.47840383871235
 30
1887.0
 10
87.87979107834742
 20
91.5026099298556
 30
1887.0
 10
87.70082785830377
 20
92.52595843909052
 30
1887.0
 10
87.51650742963263
 20
93.54835419697828
 30
1887.0
 10
87.32640776223609
 20
94.56968037045807
 30
1887.0
 10
87.13001535189512
 20
95.58979339033569
 30
1887.0
 10
86.78912769402928
 20
97.29771261496299
 30
1887.0
 10
86.64839780450014
 20
97.98625547126812
 30
1887.0
 10
86.50429414616521
 20
98.67409940088268
 30
1887.0
 10
86.35658935595933
 20
99.36118335733516
 30
1887.0
 10
86.20502105384857
 20
100.04742772914358
 30
1887.0
 10
86.04928451454933
 20
100.7327326189378
 30
1887.0
 10
85.88901887286201
 20
101.41697463312344
 30
1887.0
 10
85.72377774832894
 20
102.09999998929352
 30
1887.0
  0
LINE
  5
34
330
17
100
AcDbEntity
  8
0
100
AcDbLine
 10
76.38019152392512
 20
79.9
 30
1887.0
 11
89.63636037739246
 21
79.9
 31
1887.0
  0
SPLINE
  5
35
330
17
100
AcDbEntity
  8
0
100
AcDbSpline
 70
0
 71
1
 72
4
 73
2
 74
0
 40
0.0
 40
0.0
 40
1.0
 40
1.0
 10
76.3801915179647
 20
79.90000060000001
 30
1887.0
 10
76.3801915179647
 20
76.09999939999999
 30
1887.0
  0
LINE
  5
36
330
17
100
AcDbEntity
  8
0
100
AcDbLine
 10
76.38019152392512
 20
76.1
 30
1887.0
 11
90.12488506897576
 21
76.1
 31
1887.0
  0
SPLINE
  5
37
330
17
100
AcDbEntity
  8
0
100
AcDbSpline
 70
0
 71
8
 72
32
 73
23
 74
0
 40
0.0
 40
0.0
 40
0.0
 40
0.0
 40
0.0
 40
0.0
 40
0.0
 40
0.0
 40
0.0
 40
0.15060629958470487
 40
0.15060629958470487
 40
0.15060629958470487
 40
0.15060629958470487
 40
0.15060629958470487
 40
0.15060629958470487
 40
0.15060629958470487
 40
0.5014564937420851
 40
0.5014564937420851
 40
0.5014564937420851
 40
0.5014564937420851
 40
0.5014564937420851
 40
0.5014564937420851
 40
0.5014564937420851
 40
1.0
 40
1.0
 40
1.0
 40
1.0
 40
1.0
 40
1.0
 40
1.0
 40
1.0
 40
1.0
 10
92.34520288681951
 20
53.90000000488857
 30
1887.0
 10
92.31229553282253
 20
54.31876796071409
 30
1887.0
 10
92.27903175241777
 20
54.73750785108666
 30
1887.0
 10
92.24540990769442
 20
55.156219190561245
 30
1887.0
 10
92.21142834676522
 20
55.57490148692918
 30
1887.0
 10
92.1770854037664
 20
55.993554241218234
 30
1887.0
 10
92.14237939885771
 20
56.412176947692586
 30
1887.0
 10
92.10730863822243
 20
56.83076909385282
 30
1887.0
 10
91.98931738406007
 20
58.22440379203263
 30
1887.0
 10
91.90477419074375
 20
59.19930860240902
 30
1887.0
 10
91.818223834938
 20
60.17403820472694
 30
1887.0
 10
91.72962803027342
 20
61.148584950433104
 30
1887.0
 10
91.63899942831142
 20
62.122944035513314
 30
1887.0
 10
91.54628850746138
 20
63.09710623653717
 30
1887.0
 10
91.45147928819945
 20
64.0710641803247
 30
1887.0
 10
91.21678021315138
 20
66.42845928287637
 30
1887.0
 10
91.0747175809235
 20
67.81165241223734
 30
1887.0
 10
90.92825009074232
 20
69.19437664189705
 30
1887.0
 10
90.7772602957445
 20
70.57661264620566
 30
1887.0
 10
90.62160944885014
 20
71.95833326663782
 30
1887.0
 10
90.46113310128914
 20
73.33950289653968
 30
1887.0
 10
90.29563627544955
 20
74.72007680763929
 30
1887.0
 10
90.12488505179387
 20
76.09999999787391
 30
1887.0
  0
LINE
  5
38
330
17
100
AcDbEntity
  8
0
100
AcDbLine
 10
76.38019152392512
 20
53.9
 30
1887.0
 11
92.34520282460929
 21
53.9
 31
1887.0
  0
SPLINE
  5
39
330
17
100
AcDbEntity
  8
0
100
AcDbSpline
 70
0
 71
1
 72
4
 73
2
 74
0
 40
0.0
 40
0.0
 40
1.0
 40
1.0
 10
76.38019151796468
 20
53.90000060000026
 30
1887.0
 10
76.38019151796468
 20
50.09999939999937
 30
1887.0
  0
LINE
  5
3A
330
17
100
AcDbEntity
  8
0
100
AcDbLine
 10
76.38019152392512
 20
50.1
 30
1887.0
 11
92.63103433474768
 21
50.1
 31
1887.0
  0
SPLINE
  5
3B
330
17
100
AcDbEntity
  8
0
100
AcDbSpline
 70
0
 71
8
 72
25
 73
16
 74
0
 40
0.0
 40
0.0
 40
0.0
 40
0.0
 40
0.0
 40
0.0
 40
0.0
 40
0.0
 40
0.0
 40
0.8149652443240912
 40
0.8149652443240912
 40
0.8149652443240912
 40
0.8149652443240912
 40
0.8149652443240912
 40
0.8149652443240912
 40
0.8149652443240912
 40
1.0
 40
1.0
 40
1.0
 40
1.0
 40
1.0
 40
1.0
 40
1.0
 40
1.0
 40
1.0
 10
93.82537162764845
 20
27.89999999915047
 30
1887.0
 10
93.74220900065708
 20
30.163392279617277
 30
1887.0
 10
93.65056673530351
 20
32.426471512740704
 30
1887.0
 10
93.55026008448723
 20
34.68919319108723
 30
1887.0
 10
93.44109619318499
 20
36.951509806007664
 30
1887.0
 10
93.3228735140433
 20
39.21337082772874
 30
1887.0
 10
93.19538114967273
 20
41.4747226827189
 30
1887.0
 10
93.0583981216442
 20
43.73550872832851
 30
1887.0
 10
92.87838362841407
 20
46.50883005965756
 30
1887.0
 10
92.84457350419072
 20
47.021958281705196
 30
1887.0
 10
92.8102594907877
 20
47.535053146515686
 30
1887.0
 10
92.77543885408366
 20
48.04811389456606
 30
1887.0
 10
92.74010882856521
 20
48.561139751141894
 30
1887.0
 10
92.70426661732698
 20
49.07412992633735
 30
1887.0
 10
92.66790939207152
 20
49.587083615055136
 30
1887.0
 10
92.63103429310935
 20
50.09999999700649
 30
1887.0
  0
LINE
  5
3C
330
17
100
AcDbEntity
  8
0
100
AcDbLine
 10
76.38019152392512
 20
27.9
 30
1887.0
 11
93.82537165076943
 21
27.9
 31
1887.0
  0
SPLINE
  5
3D
330
17
100
AcDbEntity
  8
0
100
AcDbSpline
 70
0
 71
1
 72
4
 73
2
 74
0
 40
0.0
 40
0.0
 40
1.0
 40
1.0
 10
76.38019151796468
 20
27.900000600000002
 30
1887.0
 10
76.38019151796468
 20
24.099999399999998
 30
1887.0
  0
LINE
  5
3E
330
17
100
AcDbEntity
  8
0
100
AcDbLine
 10
76.38019152392512
 20
24.1
 30
1887.0
 11
93.95461928700013
 21
24.1
 31
1887.0
  0
SPLINE
  5
3F
330
17
100
AcDbEntity
  8
0
100
AcDbSpline
 70
0
 71
8
 72
18
 73
9
 74
0
 40
0.0
 40
0.0
 40
0.0
 40
0.0
 40
0.0
 40
0.0
 40
0.0
 40
0.0
 40
0.0
 40
1.0
 40
1.0
 40
1.0
 40
1.0
 40
1.0
 40
1.0
 40
1.0
 40
1.0
 40
1.0
 10
94.31951421010254
 20
1.9000000000351414
 30
1887.0
 10
94.31314235124654
 20
4.675470942501577
 30
1887.0
 10
94.29609481099071
 20
7.45090959711446
 30
1887.0
 10
94.2681205317952
 20
10.226273089752363
 30
1887.0
 10
94.22895569592644
 20
13.001511960489736
 30
1887.0
 10
94.17832298269134
 20
15.776570141015236
 30
1887.0
 10
94.11593057747494
 20
18.55138492282049
 30
1887.0
 10
94.04147093258146
 20
21.325886916159256
 30
1887.0
 10
93.9546192798788
 20
24.099999999777047
 30
1887.0
  0
LINE
  5
40
330
17
100
AcDbEntity
  8
0
100
AcDbLine
 10
76.38019152392512
 20
1.9
 30
1887.0
 11
94.31951419479867
 21
1.9
 31
1887.0
  0
SPLINE
  5
41
330
17
100
AcDbEntity
  8
0
100
AcDbSpline
 70
0
 71
1
 72
4
 73
2
 74
0
 40
0.0
 40
0.0
 40
0.9999993684216398
 40
0.9999993684216398
 10
76.38019151796468
 20
1.9000006000000558
 30
1887.0
 10
76.38019151796468
 20
-6.553790374438061e-17
 30
1887.0
  0
SPLINE
  5
42
330
17
100
AcDbEntity
  8
0
100
AcDbSpline
 70
0
 71
1
 72
4
 73
2
 74
0
 40
0.0
 40
0.0
 40
1.0
 40
1.0
 10
76.38019151796469
 20
-1.9000006000000011
 30
1887.0
 10
76.38019151796468
 20
1.2000000211287443e-06
 30
1887.0
  0
LINE
  5
43
330
17
100
AcDbEntity
  8
0
100
AcDbLine
 10
76.38019152392562
 20
-1.9
 30
1887.0
 11
94.31953539396598
 21
-1.9
 31
1887.0
  0
SPLINE
  5
44
330
17
100
AcDbEntity
  8
0
100
AcDbSpline
 70
0
 71
8
 72
18
 73
9
 74
0
 40
0.0
 40
0.0
 40
0.0
 40
0.0
 40
0.0
 40
0.0
 40
0.0
 40
0.0
 40
0.0
 40
1.0
 40
1.0
 40
1.0
 40
1.0
 40
1.0
 40
1.0
 40
1.0
 40
1.0
 40
1.0
 10
93.95484810141215
 20
-24.099999999240822
 30
1887.0
 10
94.04168235622087
 20
-21.325889215977192
 30
1887.0
 10
94.11612119650705
 20
-18.551388684998003
 30
1887.0
 10
94.1784898749096
 20
-15.776573788468657
 30
1887.0
 10
94.2290963781393
 20
-13.00151384915109
 30
1887.0
 10
94.26823295722289
 20
-10.226272169939268
 30
1887.0
 10
94.2961775152086
 20
-7.45090605885988
 30
1887.0
 10
94.31319456646206
 20
-4.67546685867212
 30
1887.0
 10
94.31953548168286
 20
-1.9000000002003938
 30
1887.0
  0
LINE
  5
45
330
17
100
AcDbEntity
  8
0
100
AcDbLine
 10
76.38019152392562
 20
-24.1
 30
1887.0
 11
93.9548481256656
 21
-24.1
 31
1887.0
  0
SPLINE
  5
46
330
17
100
AcDbEntity
  8
0
100
AcDbSpline
 70
0
 71
1
 72
4
 73
2
 74
0
 40
0.0
 40
0.0
 40
1.0
 40
1.0
 10
76.38019151796468
 20
-27.900000600000034
 30
1887.0
 10
76.38019151796469
 20
-24.099999399999938
 30
1887.0
  0
LINE
  5
47
330
17
100
AcDbEntity
  8
0
100
AcDbLine
 10
76.38019152392562
 20
-27.9
 30
1887.0
 11
93.82562119624765
 21
-27.9
 31
1887.0
  0
SPLINE
  5
48
330
17
100
AcDbEntity
  8
0
100
AcDbSpline
 70
0
 71
8
 72
32
 73
23
 74
0
 40
0.0
 40
0.0
 40
0.0
 40
0.0
 40
0.0
 40
0.0
 40
0.0
 40
0.0
 40
0.0
 40
0.06646032963121738
 40
0.06646032963121738
 40
0.06646032963121738
 40
0.06646032963121738
 40
0.06646032963121738
 40
0.06646032963121738
 40
0.06646032963121738
 40
0.5777214145652461
 40
0.5777214145652461
 40
0.5777214145652461
 40
0.5777214145652461
 40
0.5777214145652461
 40
0.5777214145652461
 40
0.5777214145652461
 40
1.0
 40
1.0
 40
1.0
 40
1.0
 40
1.0
 40
1.0
 40
1.0
 40
1.0
 40
1.0
 10
92.63125329256856
 20
-50.09999999586125
 30
1887.0
 10
92.64449951114496
 20
-49.91577236422502
 30
1887.0
 10
92.65767889308498
 20
-49.7315399167954
 30
1887.0
 10
92.67079157105633
 20
-49.54730269146783
 30
1887.0
 10
92.68383767710475
 20
-49.36306072585789
 30
1887.0
 10
92.69681734257306
 20
-49.178814057293586
 30
1887.0
 10
92.70973069799003
 20
-48.99456272280494
 30
1887.0
 10
92.72257787292239
 20
-48.810306759110375
 30
1887.0
 10
92.83368066793123
 20
-47.208580286387935
 30
1887.0
 10
92.92809371158646
 20
-45.79084274667487
 30
1887.0
 10
93.01865716808146
 20
-44.37285024353128
 30
1887.0
 10
93.10542849210704
 20
-42.954618720374945
 30
1887.0
 10
93.18846355171223
 20
-41.53616340397021
 30
1887.0
 10
93.26781662830477
 20
-40.117498804428045
 30
1887.0
 10
93.34354041665091
 20
-38.698638715206
 30
1887.0
 10
93.47527504168917
 20
-36.10753114084683
 30
1887.0
 10
93.53242303351087
 20
-34.93534257093917
 30
1887.0
 10
93.58715888462069
 20
-33.76303757686132
 30
1887.0
 10
93.63951080912582
 20
-32.5906230338868
 30
1887.0
 10
93.68950637098736
 20
-31.418105620244955
 30
1887.0
 10
93.73717250517382
 20
-30.245491818066355
 30
1887.0
 10
93.78253553925046
 20
-29.0727879141614
 30
1887.0
 10
93.82562121471354
 20
-27.900000000678396
 30
1887.0
  0
LINE
  5
49
330
17
100
AcDbEntity
  8
0
100
AcDbLine
 10
76.38019152392562
 20
-50.1
 30
1887.0
 11
92.6312533501303
 21
-50.1
 31
1887.0
  0
SPLINE
  5
4A
330
17
100
AcDbEntity
  8
0
100
AcDbSpline
 70
0
 71
1
 72
4
 73
2
 74
0
 40
0.0
 40
0.0
 40
1.0
 40
1.0
 10
76.38019151796469
 20
-53.9000006
 30
1887.0
 10
76.3801915179647
 20
-50.0999994
 30
1887.0
  0
LINE
  5
4B
330
17
100
AcDbEntity
  8
0
100
AcDbLine
 10
76.38019152392562
 20
-53.9
 30
1887.0
 11
92.34538485842805
 21
-53.9
 31
1887.0
  0
SPLINE
  5
4C
330
17
100
AcDbEntity
  8
0
100
AcDbSpline
 70
0
 71
8
 72
25
 73
16
 74
0
 40
0.0
 40
0.0
 40
0.0
 40
0.0
 40
0.0
 40
0.0
 40
0.0
 40
0.0
 40
0.0
 40
0.7324679143368299
 40
0.7324679143368299
 40
0.7324679143368299
 40
0.7324679143368299
 40
0.7324679143368299
 40
0.7324679143368299
 40
0.7324679143368299
 40
1.0
 40
1.0
 40
1.0
 40
1.0
 40
1.0
 40
1.0
 40
1.0
 40
1.0
 40
1.0
 10
90.12466202418562
 20
-76.09999999557613
 30
1887.0
 10
90.37557952116542
 20
-74.0725873049168
 30
1887.0
 10
90.61515568990853
 20
-72.04375918396704
 30
1887.0
 10
90.84413251430384
 20
-70.01368290498797
 30
1887.0
 10
91.06306830711483
 20
-67.9824926715297
 30
1887.0
 10
91.2723965377241
 20
-65.95029656355717
 30
1887.0
 10
91.47245132364957
 20
-63.91717953107506
 30
1887.0
 10
91.66347818340277
 20
-61.88320470825151
 30
1887.0
 10
91.91218595789019
 20
-59.105213552074645
 30
1886.9999999999998
 10
91.97754109158726
 20
-58.36190577070312
 30
1887.0
 10
92.04172360281909
 20
-57.61849503077897
 30
1887.0
 10
92.10474328692575
 20
-56.87498434761684
 30
1887.0
 10
92.16660984413156
 20
-56.13137666879855
 30
1887.0
 10
92.227332776288
 20
-55.387674865778465
 30
1887.0
 10
92.28692140573156
 20
-54.643881735674626
 30
1887.0
 10
92.34538490463959
 20
-53.90000000363189
 30
1887.0
  0
LINE
  5
4D
330
17
100
AcDbEntity
  8
0
100
AcDbLine
 10
76.38019152392562
 20
-76.1
 30
1887.0
 11
90.12466205993043
 21
-76.1
 31
1887.0
  0
SPLINE
  5
4E
330
17
100
AcDbEntity
  8
0
100
AcDbSpline
 70
0
 71
1
 72
4
 73
2
 74
0
 40
0.0
 40
0.0
 40
1.0
 40
1.0
 10
76.38019151796469
 20
-79.90000060000018
 30
1887.0
 10
76.38019151796468
 20
-76.09999939999999
 30
1887.0
  0
LINE
  5
4F
330
17
100
AcDbEntity
  8
0
100
AcDbLine
 10
76.38019152392562
 20
-79.9
 30
1887.0
 11
89.6360504819566
 21
-79.9
 31
1887.0
  0
SPLINE
  5
50
330
17
100
AcDbEntity
  8
0
100
AcDbSpline
 70
0
 71
8
 72
39
 73
30
 74
0
 40
0.0
 40
0.0
 40
0.0
 40
0.0
 40
0.0
 40
0.0
 40
0.0
 40
0.0
 40
0.0
 40
0.08626639396928235
 40
0.08626639396928235
 40
0.08626639396928235
 40
0.08626639396928235
 40
0.08626639396928235
 40
0.08626639396928235
 40
0.08626639396928235
 40
0.3985443571733611
 40
0.3985443571733611
 40
0.3985443571733611
 40
0.3985443571733611
 40
0.3985443571733611
 40
0.3985443571733611
 40
0.3985443571733611
 40
0.9529835120750465
 40
0.9529835120750465
 40
0.9529835120750465
 40
0.9529835120750465
 40
0.9529835120750465
 40
0.9529835120750465
 40
0.9529835120750465
 40
1.0
 40
1.0
 40
1.0
 40
1.0
 40
1.0
 40
1.0
 40
1.0
 40
1.0
 40
1.0
 10
85.7231346883168
 20
-102.0999999913873
 30
1887.0
 10
85.78030929414658
 20
-101.86366292129195
 30
1887.0
 10
85.83688830251879
 20
-101.62718085582887
 30
1887.0
 10
85.89289020719687
 20
-101.3905601364182
 30
1887.0
 10
85.9483323200588
 20
-101.1538064922019
 30
1887.0
 10
86.00323090926011
 20
-100.91692507603622
 30
1887.0
 10
86.0576013103074
 20
-100.67992049357346
 30
1887.0
 10
86.11145802741373
 20
-100.44279683005492
 30
1887.0
 10
86.35796256520696
 20
-99.34676950784001
 30
1887.0
 10
86.54455260370051
 20
-98.48650018779928
 30
1887.0
 10
86.725230449375
 20
-97.62494656639382
 30
1887.0
 10
86.90050781982018
 20
-96.76226669690182
 30
1887.0
 10
87.0708038233164
 20
-95.89858840590813
 30
1887.0
 10
87.23647385601163
 20
-95.03401527874964
 30
1887.0
 10
87.39782623178732
 20
-94.1686300632984
 30
1887.0
 10
87.8344080276464
 20
-91.76470231971462
 30
1887.0
 10
88.10091053777418
 20
-90.22458523210933
 30
1887.0
 10
88.3561241237512
 20
-88.68251581527772
 30
1887.0
 10
88.60113614741984
 20
-87.13877629330348
 30
1887.0
 10
88.8368038965762
 20
-85.59358765438581
 30
1887.0
 10
89.06382898832108
 20
-84.04712165582885
 30
1887.0
 10
89.28278670714157
 20
-82.49950554211367
 30
1887.0
 10
89.51208818531337
 20
-80.81950034799486
 30
1887.0
 10
89.52995840594507
 20
-80.68816495777835
 30
1887.0
 10
89.54777437844447
 20
-80.55682220075923
 30
1887.0
 10
89.56553639273523
 20
-80.42547213738098
 30
1887.0
 10
89.5832447339928
 20
-80.2941148273245
 30
1887.0
 10
89.6008996827489
 20
-80.16275032952052
 30
1887.0
 10
89.61850151499286
 20
-80.0313787021615
 30
1887.0
 10
89.63605050226963
 20
-79.90000000271334
 30
1887.0
  0
LINE
  5
51
330
17
100
AcDbEntity
  8
0
100
AcDbLine
 10
76.38019152392562
 20
-102.1
 30
1887.0
 11
85.72313472391833
 21
-102.1
 31
1887.0
  0
SPLINE
  5
52
330
17
100
AcDbEntity
  8
0
100
AcDbSpline
 70
0
 71
1
 72
4
 73
2
 74
0
 40
0.0
 40
0.0
 40
1.0
 40
1.0
 10
76.38019151796468
 20
-105.90000060000003
 30
1887.0
 10
76.38019151796469
 20
-102.09999939999999
 30
1887.0
  0
LINE
  5
53
330
17
100
AcDbEntity
  8
0
100
AcDbLine
 10
76.38019152392562
 20
-105.9
 30
1887.0
 11
84.7205864507617
 21
-105.9
 31
1887.0
  0
SPLINE
  5
54
330
17
100
AcDbEntity
  8
0
100
AcDbSpline
 70
0
 71
8
 72
109
 73
100
 74
0
 40
0.0
 40
0.0
 40
0.0
 40
0.0
 40
0.0
 40
0.0
 40
0.0
 40
0.0
 40
0.0
 40
0.00534686070382284
 40
0.00534686070382284
 40
0.00534686070382284
 40
0.00534686070382284
 40
0.00534686070382284
 40
0.00534686070382284
 40
0.00534686070382284
 40
0.012656360092672436
 40
0.012656360092672436
 40
0.012656360092672436
 40
0.012656360092672436
 40
0.012656360092672436
 40
0.012656360092672436
 40
0.012656360092672436
 40
0.02485087427977275
 40
0.02485087427977275
 40
0.02485087427977275
 40
0.02485087427977275
 40
0.02485087427977275
 40
0.02485087427977275
 40
0.02485087427977275
 40
0.03699486254746753
 40
0.03699486254746753
 40
0.03699486254746753
 40
0.03699486254746753
 40
0.03699486254746753
 40
0.03699486254746753
 40
0.03699486254746753
 40
0.04303190334463294
 40
0.04303190334463294
 40
0.04303190334463294
 40
0.04303190334463294
 40
0.04303190334463294
 40
0.04303190334463294
 40
0.04303190334463294
 40
0.04580669192235551
 40
0.04580669192235551
 40
0.04580669192235551
 40
0.04580669192235551
 40
0.04580669192235551
 40
0.04580669192235551
 40
0.04580669192235551
 40
0.04895880098738531
 40
0.04895880098738531
 40
0.04895880098738531
 40
0.04895880098738531
 40
0.04895880098738531
 40
0.04895880098738531
 40
0.04895880098738531
 40
0.06036923958729489
 40
0.06036923958729489
 40
0.06036923958729489
 40
0.06036923958729489
 40
0.06036923958729489
 40
0.06036923958729489
 40
0.06036923958729489
 40
0.07088132341764286
 40
0.07088132341764286
 40
0.07088132341764286
 40
0.07088132341764286
 40
0.07088132341764286
 40
0.07088132341764286
 40
0.07088132341764286
 40
0.07884169252738123
 40
0.07884169252738123
 40
0.07884169252738123
 40
0.07884169252738123
 40
0.07884169252738123
 40
0.07884169252738123
 40
0.07884169252738123
 40
0.09365661869882835
 40
0.09365661869882835
 40
0.09365661869882835
 40
0.09365661869882835
 40
0.09365661869882835
 40
0.09365661869882835
 40
0.09365661869882835
 40
0.10843367522026742
 40
0.10843367522026742
 40
0.10843367522026742
 40
0.10843367522026742
 40
0.10843367522026742
 40
0.10843367522026742
 40
0.10843367522026742
 40
0.11617455337818575
 40
0.11617455337818575
 40
0.11617455337818575
 40
0.11617455337818575
 40
0.11617455337818575
 40
0.11617455337818575
 40
0.11617455337818575
 40
0.12444017088725613
 40
0.12444017088725613
 40
0.12444017088725613
 40
0.12444017088725613
 40
0.12444017088725613
 40
0.12444017088725613
 40
0.12444017088725613
 40
0.12444017088725613
 40
0.12444017088725613
 10
64.74417667839998
 20
-112.6326637040668
 30
1887.0
 10
64.8112723935852
 20
-112.77365943061598
 30
1887.0
 10
64.88460662134425
 20
-112.91174191032405
 30
1887.0
 10
64.96317067584101
 20
-113.0470955604787
 30
1887.0
 10
65.04622271064082
 20
-113.17983485040475
 30
1887.0
 10
65.13317974309668
 20
-113.31006582370799
 30
1887.0
 10
65.22358223568905
 20
-113.43790657031867
 30
1887.0
 10
65.31708842195245
 20
-113.56349040670298
 30
1887.0
 10
65.54519559105792
 20
-113.85578754695176
 30
1887.0
 10
65.68219204601503
 20
-114.02056131800197
 30
1887.0
 10
65.82373226039965
 20
-114.18160182363714
 30
1887.0
 10
65.96928739375201
 20
-114.33910877725222
 30
1887.0
 10
66.11844105807997
 20
-114.49323859654888
 30
1887.0
 10
66.27086335287312
 20
-114.64412725442273
 30
1887.0
 10
66.4263044132985
 20
-114.7918959261155
 30
1887.0
 10
66.84863701346839
 20
-115.17817503704823
 30
1887.0
 10
67.1204792485882
 20
-115.41123226967952
 30
1887.0
 10
67.39917994928483
 20
-115.63631569375988
 30
1887.0
 10
67.68407777962274
 20
-115.85364728308988
 30
1887.0
 10
67.97466584460955
 20
-116.06332597319754
 30
1887.0
 10
68.27055583653568
 20
-116.26537203611903
 30
1887.0
 10
68.57147529868155
 20
-116.45972979679284
 30
1887.0
 10
69.18176660621434
 20
-116.83205783241704
 30
1887.0
 10
69.49102199175555
 20
-117.01004589873357
 30
1887.0
 10
69.80482183117235
 20
-117.18011497378723
 30
1887.0
 10
70.12298974817719
 20
-117.34202562905317
 30
1887.0
 10
70.44536247889033
 20
-117.49544545911596
 30
1887.0
 10
70.771786112072
 20
-117.63995512318014
 30
1887.0
 10
71.10211783099079
 20
-117.77504348651811
 30
1887.0
 10
71.6023291551446
 20
-117.96225613004094
 30
1887.0
 10
71.76935144571344
 20
-118.02193587828363
 30
1887.0
 10
71.93728129436562
 20
-118.07905442327143
 30
1887.0
 10
72.10609644787708
 20
-118.13352709169423
 30
1887.0
 10
72.27577113406919
 20
-118.1852612202432
 30
1887.0
 10
72.44627606180877
 20
-118.23415615561082
 30
1887.0
 10
72.61757842100815
 20
-118.28010325449061
 30
1887.0
 10
72.86872694167636
 20
-118.34269590929536
 30
1887.0
 10
72.94797239919534
 20
-118.36175834788088
 30
1887.0
 10
73.02737455545079
 20
-118.3801619118226
 30
1887.0
 10
73.10692939223034
 20
-118.3978948639564
 30
1887.0
 10
73.18663257284057
 20
-118.41494501746537
 30
1887.0
 10
73.266479442107
 20
-118.43129973587976
 30
1887.0
 10
73.34646502637412
 20
-118.44694593307699
 30
1887.0
 10
73.51759775998784
 20
-118.47882362354669
 30
1887.0
 10
73.6085973021362
 20
-118.49480817688082
 30
1887.0
 10
73.6995803670668
 20
-118.50979377380507
 30
1887.0
 10
73.79054466189291
 20
-118.52375045482741
 30
1887.0
 10
73.88148789372472
 20
-118.53664826044292
 30
1887.0
 10
73.97240776966942
 20
-118.54845723113377
 30
1887.0
 10
74.06330199683106
 20
-118.55914740736925
 30
1887.0
 10
74.48309857941572
 20
-118.60322818415823
 30
1887.0
 10
74.81383682116186
 20
-118.62294271913538
 30
1887.0
 10
75.14553580609956
 20
-118.62598576380884
 30
1887.0
 10
75.4771081181796
 20
-118.61059292322075
 30
1887.0
 10
75.8072401145283
 20
-118.57524086375606
 30
1887.0
 10
76.1344124501694
 20
-118.51887946115242
 30
1887.0
 10
76.45692115905413
 20
-118.4411874567256
 30
1887.0
 10
77.06398867205827
 20
-118.25216207807247
 30
1887.0
 10
77.34971050563327
 20
-118.14390469025399
 30
1887.0
 10
77.62864284049465
 20
-118.0184705956697
 30
1887.0
 10
77.89981694274012
 20
-117.87679346081723
 30
1887.0
 10
78.1626208127549
 20
-117.72013665847382
 30
1887.0
 10
78.41671565822878
 20
-117.54993669757195
 30
1887.0
 10
78.66196800383662
 20
-117.36767399309582
 30
1887.0
 10
79.0774509514648
 20
-117.0287302477311
 30
1887.0
 10
79.25150201256477
 20
-116.87652929432018
 30
1887.0
 10
79.4206372410258
 20
-116.71875023523208
 30
1887.0
 10
79.58497772223018
 20
-116.55592648174131
 30
1887.0
 10
79.74467466304185
 20
-116.38855029165248
 30
1887.0
 10
79.8998998936298
 20
-116.21706303639465
 30
1887.0
 10
80.05083987571562
 20
-116.04184912195612
 30
1887.0
 10
80.47099981682796
 20
-115.53081476840701
 30
1887.0
 10
80.73003519762142
 20
-115.18675593655831
 30
1887.0
 10
80.97616828412411
 20
-114.83308040450262
 30
1887.0
 10
81.2105731020034
 20
-114.47144897323295
 30
1887.0
 10
81.43428509378144
 20
-114.10319755012219
 30
1887.0
 10
81.64824193540667
 20
-113.72936420802326
 30
1887.0
 10
81.85330885371165
 20
-113.35070566169303
 30
1887.0
 10
82.24676452008615
 20
-112.58567968554688
 30
1887.0
 10
82.43512277768068
 20
-112.19947548381585
 30
1887.0
 10
82.61611230781232
 20
-111.8096866762737
 30
1887.0
 10
82.79035670082861
 20
-111.41680508896532
 30
1887.0
 10
82.95838952704975
 20
-111.02123438435525
 30
1887.0
 10
83.12067986484601
 20
-110.6233015961275
 30
1887.0
 10
83.27764787689716
 20
-110.22326406848352
 30
1887.0
 10
83.5093065986409
 20
-109.61075135905635
 30
1887.0
 10
83.58873080442629
 20
-109.39663789646906
 30
1887.0
 10
83.66794075878877
 20
-109.1789414526748
 30
1887.0
 10
83.74693416852274
 20
-108.95763206819709
 30
1887.0
 10
83.8257087404179
 20
-108.73267978358506
 30
1887.0
 10
83.90426218125918
 20
-108.50405463941361
 30
1887.0
 10
83.98259219782678
 20
-108.2717266762834
 30
1887.0
 10
84.1440953372796
 20
-107.7836030863902
 30
1887.0
 10
84.22725250209393
 20
-107.52722865725934
 30
1887.0
 10
84.31014600395305
 20
-107.26655649170343
 30
1887.0
 10
84.39276919870383
 20
-107.00161349730828
 30
1887.0
 10
84.4751240566051
 20
-106.73243734738172
 30
1887.0
 10
84.55721443350726
 20
-106.45907418336515
 30
1887.0
 10
84.63903934203141
 20
-106.18157631724524
 30
1887.0
 10
84.72058622274884
 20
-105.89999993396552
 30
1887.0
  0
SPLINE
  5
55
330
17
100
AcDbEntity
  8
0
100
AcDbSpline
 70
0
 71
8
 72
375
 73
366
 74
0
 40
0.0
 40
0.0
 40
0.0
 40
0.0
 40
0.0
 40
0.0
 40
0.0
 40
0.0
 40
0.0
 40
0.0014962283406780034
 40
0.0014962283406780034
 40
0.0014962283406780034
 40
0.0014962283406780034
 40
0.0014962283406780034
 40
0.0014962283406780034
 40
0.0014962283406780034
 40
0.005332129084355787
 40
0.005332129084355787
 40
0.005332129084355787
 40
0.005332129084355787
 40
0.005332129084355787
 40
0.005332129084355787
 40
0.005332129084355787
 40
0.00817581061995422
 40
0.00817581061995422
 40
0.00817581061995422
 40
0.00817581061995422
 40
0.00817581061995422
 40
0.00817581061995422
 40
0.00817581061995422
 40
0.011278008658812236
 40
0.011278008658812236
 40
0.011278008658812236
 40
0.011278008658812236
 40
0.011278008658812236
 40
0.011278008658812236
 40
0.011278008658812236
 40
0.01596228486313488
 40
0.01596228486313488
 40
0.01596228486313488
 40
0.01596228486313488
 40
0.01596228486313488
 40
0.01596228486313488
 40
0.01596228486313488
 40
0.023784934172743327
 40
0.023784934172743327
 40
0.023784934172743327
 40
0.023784934172743327
 40
0.023784934172743327
 40
0.023784934172743327
 40
0.023784934172743327
 40
0.039906447179284474
 40
0.039906447179284474
 40
0.039906447179284474
 40
0.039906447179284474
 40
0.039906447179284474
 40
0.039906447179284474
 40
0.039906447179284474
 40
0.07150098807311883
 40
0.07150098807311883
 40
0.07150098807311883
 40
0.07150098807311883
 40
0.07150098807311883
 40
0.07150098807311883
 40
0.07150098807311883
 40
0.08861737725686737
 40
0.08861737725686737
 40
0.08861737725686737
 40
0.08861737725686737
 40
0.08861737725686737
 40
0.08861737725686737
 40
0.08861737725686737
 40
0.11046230086419384
 40
0.11046230086419384
 40
0.11046230086419384
 40
0.11046230086419384
 40
0.11046230086419384
 40
0.11046230086419384
 40
0.11046230086419384
 40
0.18071746659780513
 40
0.18071746659780513
 40
0.18071746659780513
 40
0.18071746659780513
 40
0.18071746659780513
 40
0.18071746659780513
 40
0.18071746659780513
 40
0.26977875826784214
 40
0.26977875826784214
 40
0.26977875826784214
 40
0.26977875826784214
 40
0.26977875826784214
 40
0.26977875826784214
 40
0.26977875826784214
 40
0.35522486070545956
 40
0.35522486070545956
 40
0.35522486070545956
 40
0.35522486070545956
 40
0.35522486070545956
 40
0.35522486070545956
 40
0.35522486070545956
 40
0.4143194973096216
 40
0.4143194973096216
 40
0.4143194973096216
 40
0.4143194973096216
 40
0.4143194973096216
 40
0.4143194973096216
 40
0.4143194973096216
 40
0.49650699279074195
 40
0.49650699279074195
 40
0.49650699279074195
 40
0.49650699279074195
 40
0.49650699279074195
 40
0.49650699279074195
 40
0.49650699279074195
 40
0.5772877177559798
 40
0.5772877177559798
 40
0.5772877177559798
 40
0.5772877177559798
 40
0.5772877177559798
 40
0.5772877177559798
 40
0.5772877177559798
 40
0.6266162755413762
 40
0.6266162755413762
 40
0.6266162755413762
 40
0.6266162755413762
 40
0.6266162755413762
 40
0.6266162755413762
 40
0.6266162755413762
 40
0.644603625259271
 40
0.644603625259271
 40
0.644603625259271
 40
0.644603625259271
 40
0.644603625259271
 40
0.644603625259271
 40
0.644603625259271
 40
0.6620604202694413
 40
0.6620604202694413
 40
0.6620604202694413
 40
0.6620604202694413
 40
0.6620604202694413
 40
0.6620604202694413
 40
0.6620604202694413
 40
0.6832895525938757
 40
0.6832895525938757
 40
0.6832895525938757
 40
0.6832895525938757
 40
0.6832895525938757
 40
0.6832895525938757
 40
0.6832895525938757
 40
0.6937368224991929
 40
0.6937368224991929
 40
0.6937368224991929
 40
0.6937368224991929
 40
0.6937368224991929
 40
0.6937368224991929
 40
0.6937368224991929
 40
0.6989331827647758
 40
0.6989331827647758
 40
0.6989331827647758
 40
0.6989331827647758
 40
0.6989331827647758
 40
0.6989331827647758
 40
0.6989331827647758
 40
0.7022293285463711
 40
0.7022293285463711
 40
0.7022293285463711
 40
0.7022293285463711
 40
0.7022293285463711
 40
0.7022293285463711
 40
0.7022293285463711
 40
0.7041225907726604
 40
0.7041225907726604
 40
0.7041225907726604
 40
0.7041225907726604
 40
0.7041225907726604
 40
0.7041225907726604
 40
0.7041225907726604
 40
0.705167026706599
 40
0.705167026706599
 40
0.705167026706599
 40
0.705167026706599
 40
0.705167026706599
 40
0.705167026706599
 40
0.705167026706599
 40
0.7067009893189969
 40
0.7067009893189969
 40
0.7067009893189969
 40
0.7067009893189969
 40
0.7067009893189969
 40
0.7067009893189969
 40
0.7067009893189969
 40
0.7076357038650789
 40
0.7076357038650789
 40
0.7076357038650789
 40
0.7076357038650789
 40
0.7076357038650789
 40
0.7076357038650789
 40
0.7076357038650789
 40
0.7094470804855475
 40
0.7094470804855475
 40
0.7094470804855475
 40
0.7094470804855475
 40
0.7094470804855475
 40
0.7094470804855475
 40
0.7094470804855475
 40
0.7114613005718867
 40
0.7114613005718867
 40
0.7114613005718867
 40
0.7114613005718867
 40
0.7114613005718867
 40
0.7114613005718867
 40
0.7114613005718867
 40
0.713475520658223
 40
0.713475520658223
 40
0.713475520658223
 40
0.713475520658223
 40
0.713475520658223
 40
0.713475520658223
 40
0.713475520658223
 40
0.7168897156067566
 40
0.7168897156067566
 40
0.7168897156067566
 40
0.7168897156067566
 40
0.7168897156067566
 40
0.7168897156067566
 40
0.7168897156067566
 40
0.723574542429127
 40
0.723574542429127
 40
0.723574542429127
 40
0.723574542429127
 40
0.723574542429127
 40
0.723574542429127
 40
0.723574542429127
 40
0.7366752969661693
 40
0.7366752969661693
 40
0.7366752969661693
 40
0.7366752969661693
 40
0.7366752969661693
 40
0.7366752969661693
 40
0.7366752969661693
 40
0.7437726497328039
 40
0.7437726497328039
 40
0.7437726497328039
 40
0.7437726497328039
 40
0.7437726497328039
 40
0.7437726497328039
 40
0.7437726497328039
 40
0.7528307139581242
 40
0.7528307139581242
 40
0.7528307139581242
 40
0.7528307139581242
 40
0.7528307139581242
 40
0.7528307139581242
 40
0.7528307139581242
 40
0.7819624924863011
 40
0.7819624924863011
 40
0.7819624924863011
 40
0.7819624924863011
 40
0.7819624924863011
 40
0.7819624924863011
 40
0.7819624924863011
 40
0.8188931177612524
 40
0.8188931177612524
 40
0.8188931177612524
 40
0.8188931177612524
 40
0.8188931177612524
 40
0.8188931177612524
 40
0.8188931177612524
 40
0.8543257046959949
 40
0.8543257046959949
 40
0.8543257046959949
 40
0.8543257046959949
 40
0.8543257046959949
 40
0.8543257046959949
 40
0.8543257046959949
 40
0.8788316842555188
 40
0.8788316842555188
 40
0.8788316842555188
 40
0.8788316842555188
 40
0.8788316842555188
 40
0.8788316842555188
 40
0.8788316842555188
 40
0.9129149310910787
 40
0.9129149310910787
 40
0.9129149310910787
 40
0.9129149310910787
 40
0.9129149310910787
 40
0.9129149310910787
 40
0.9129149310910787
 40
0.9464155645324195
 40
0.9464155645324195
 40
0.9464155645324195
 40
0.9464155645324195
 40
0.9464155645324195
 40
0.9464155645324195
 40
0.9464155645324195
 40
0.9668729321852378
 40
0.9668729321852378
 40
0.9668729321852378
 40
0.9668729321852378
 40
0.9668729321852378
 40
0.9668729321852378
 40
0.9668729321852378
 40
0.9743326092254763
 40
0.9743326092254763
 40
0.9743326092254763
 40
0.9743326092254763
 40
0.9743326092254763
 40
0.9743326092254763
 40
0.9743326092254763
 40
0.9815722555005699
 40
0.9815722555005699
 40
0.9815722555005699
 40
0.9815722555005699
 40
0.9815722555005699
 40
0.9815722555005699
 40
0.9815722555005699
 40
0.9903763565183136
 40
0.9903763565183136
 40
0.9903763565183136
 40
0.9903763565183136
 40
0.9903763565183136
 40
0.9903763565183136
 40
0.9903763565183136
 40
0.9947090244302548
 40
0.9947090244302548
 40
0.9947090244302548
 40
0.9947090244302548
 40
0.9947090244302548
 40
0.9947090244302548
 40
0.9947090244302548
 40
0.9968640449935364
 40
0.9968640449935364
 40
0.9968640449935364
 40
0.9968640449935364
 40
0.9968640449935364
 40
0.9968640449935364
 40
0.9968640449935364
 40
0.9982310102253038
 40
0.9982310102253038
 40
0.9982310102253038
 40
0.9982310102253038
 40
0.9982310102253038
 40
0.9982310102253038
 40
0.9982310102253038
 40
0.9990161700251485
 40
0.9990161700251485
 40
0.9990161700251485
 40
0.9990161700251485
 40
0.9990161700251485
 40
0.9990161700251485
 40
0.9990161700251485
 40
0.999449298482405
 40
0.999449298482405
 40
0.999449298482405
 40
0.999449298482405
 40
0.999449298482405
 40
0.999449298482405
 40
0.999449298482405
 40
0.999659794428139
 40
0.999659794428139
 40
0.999659794428139
 40
0.999659794428139
 40
0.999659794428139
 40
0.999659794428139
 40
0.999659794428139
 40
1.0
 40
1.0
 40
1.0
 40
1.0
 40
1.0
 40
1.0
 40
1.0
 40
1.0
 40
1.0
 10
64.74417667839991
 20
112.632663704067
 30
1887.0
 10
64.74410561256215
 20
112.6327412970878
 30
1887.0
 10
64.74412088574113
 20
112.63264065190788
 30
1887.0
 10
64.7441666222494
 20
112.63252248492562
 30
1887.0
 10
64.74420522726263
 20
112.63246720134786
 30
1887.0
 10
64.74421738681949
 20
112.63247489518986
 30
1887.0
 10
64.74420206782177
 20
112.63246534927518
 30
1887.0
 10
64.74417651803432
 20
112.63227803523577
 30
1887.0
 10
64.74417562015921
 20
112.63011870383
 30
1887.0
 10
64.74417419144083
 20
112.62668272868177
 30
1887.0
 10
64.7441714323952
 20
112.62004740308981
 30
1887.0
 10
64.74416688976879
 20
112.60912268119392
 30
1887.0
 10
64.74416085088998
 20
112.59459956899957
 30
1887.0
 10
64.74415366002579
 20
112.5773060073009
 30
1887.0
 10
64.74414579273167
 20
112.55838567509605
 30
1887.0
 10
64.74413177243035
 20
112.5246677596333
 30
1887.0
 10
64.74412510647183
 20
112.50863656174036
 30
1887.0
 10
64.74411769588595
 20
112.49081458335013
 30
1887.0
 10
64.74410949317672
 20
112.47108759966527
 30
1887.0
 10
64.74410045084812
 20
112.44934138588856
 30
1887.0
 10
64.74409052140419
 20
112.42546171722294
 30
1887.0
 10
64.7440796573489
 20
112.39933436887162
 30
1887.0
 10
64.74405488809977
 20
112.33976593112818
 30
1887.0
 10
64.74404079622437
 20
112.30587588468468
 30
1887.0
 10
64.7440254738973
 20
112.26902668185456
 30
1887.0
 10
64.74400885945587
 20
112.22907002778486
 30
1887.0
 10
64.74399089123736
 20
112.18585762762255
 30
1887.0
 10
64.74397150757903
 20
112.13924118651452
 30
1887.0
 10
64.74395064681816
 20
112.08907240960757
 30
1887.0
 10
64.74389442431693
 20
111.9538609404489
 30
1887.0
 10
64.74386044037887
 20
111.8721317735777
 30
1887.0
 10
64.74382635002398
 20
111.79014668093086
 30
1887.0
 10
64.743792183662
 20
111.70797879629842
 30
1887.0
 10
64.74375796183554
 20
111.62567752322195
 30
1887.0
 10
64.74372369779498
 20
111.54327472776677
 30
1887.0
 10
64.74368939642626
 20
111.46078216077326
 30
1887.0
 10
64.74359771237985
 20
111.24028797546879
 30
1887.0
 10
64.74354028208089
 20
111.10217183104794
 30
1887.0
 10
64.74348279143561
 20
110.96391055792901
 30
1887.0
 10
64.74342525566308
 20
110.82554075649614
 30
1887.0
 10
64.74336768533765
 20
110.68708785755705
 30
1887.0
 10
64.74331008758429
 20
110.5485689964488
 30
1887.0
 10
64.74325246599449
 20
110.40999281001952
 30
1887.0
 10
64.74307602386558
 20
109.98566093342544
 30
1887.0
 10
64.74295714204231
 20
109.69975785866677
 30
1887.0
 10
64.74283820297637
 20
109.41371711905566
 30
1887.0
 10
64.74271922217598
 20
109.12757601071965
 30
1887.0
 10
64.74260021020484
 20
108.84135993878122
 30
1887.0
 10
64.74248117400397
 20
108.55508559601473
 30
1887.0
 10
64.74236211657333
 20
108.26876019683306
 30
1887.0
 10
64.74200967185635
 20
107.4211535107945
 30
1887.0
 10
64.74177623834977
 20
106.85976106721871
 30
1887.0
 10
64.74154275924215
 20
106.298258955819
 30
1887.0
 10
64.74130924690203
 20
105.73667692259252
 30
1887.0
 10
64.74107570974736
 20
105.17503521206487
 30
1887.0
 10
64.74084215330673
 20
104.61334711990986
 30
1887.0
 10
64.74060857996173
 20
104.05161837386332
 30
1887.0
 10
64.74024844239412
 20
103.18551088093484
 30
1887.0
 10
64.74011863353925
 20
102.87333177991468
 30
1887.0
 10
64.73998559809264
 20
102.55341654218701
 30
1887.0
 10
64.73984945663119
 20
102.22587325263996
 30
1887.0
 10
64.73971028615898
 20
101.89081291778933
 30
1887.0
 10
64.7395681529568
 20
101.54834977248109
 30
1887.0
 10
64.73942316490303
 20
101.1986017432611
 30
1887.0
 10
64.73908681465421
 20
100.38617813039409
 30
1887.0
 10
64.73889853608189
 20
99.93065543589242
 30
1887.0
 10
64.73871061534625
 20
99.47512316630633
 30
1887.0
 10
64.73852309375177
 20
99.01958251725615
 30
1887.0
 10
64.73833600506896
 20
98.56403444885653
 30
1887.0
 10
64.73814937742917
 20
98.10847972697964
 30
1887.0
 10
64.73796323521952
 20
97.65291896451787
 30
1887.0
 10
64.73718058518384
 20
95.73221199125196
 30
1887.0
 10
64.73658882257912
 20
94.26701541371614
 30
1887.0
 10
64.73600303568485
 20
92.80177893493783
 30
1887.0
 10
64.73542366200974
 20
91.33651188798572
 30
1887.0
 10
64.73485106502426
 20
89.87122081961174
 30
1887.0
 10
64.73428558122158
 20
88.40591038768773
 30
1887.0
 10
64.73372751120009
 20
86.9405832346399
 30
1887.0
 10
64.73247949516794
 20
83.6176508498085
 30
1887.0
 10
64.73179423654285
 20
81.7600382134765
 30
1887.0
 10
64.73112200569335
 20
79.90240773060513
 30
1887.0
 10
64.73046341807114
 20
78.04476292333806
 30
1887.0
 10
64.72981911534366
 20
76.18710645201284
 30
1887.0
 10
64.72918978982702
 20
74.32944041280953
 30
1887.0
 10
64.72857620371983
 20
72.47176647835249
 30
1887.0
 10
64.72740643609377
 20
68.83181253199407
 30
1887.0
 10
64.72684893396891
 20
67.0495332380698
 30
1887.0
 10
64.72630745085397
 20
65.26724924765021
 30
1887.0
 10
64.7257828064241
 20
63.484961656562476
 30
1887.0
 10
64.7252759117819
 20
61.70267144367463
 30
1887.0
 10
64.72478779530007
 20
59.92037950626715
 30
1887.0
 10
64.72431962846392
 20
58.13808669540473
 30
1887.0
 10
64.7235636911669
 20
55.123157780856516
 30
1887.0
 10
64.7232648361721
 20
53.89052170365002
 30
1887.0
 10
64.72297574136078
 20
52.65788590073035
 30
1887.0
 10
64.72269600087625
 20
51.425250655231025
 30
1887.0
 10
64.72242524390705
 20
50.19261625725887
 30
1887.0
 10
64.72216313021995
 20
48.95998300877536
 30
1887.0
 10
64.72190934569318
 20
47.72735122847833
 30
1887.0
 10
64.72132181725921
 20
44.780407131775966
 30
1887.0
 10
64.72099558183027
 20
43.066096560959664
 30
1887.0
 10
64.7206841063478
 20
41.35179040613582
 30
1887.0
 10
64.72038668850516
 20
39.63748968527676
 30
1887.0
 10
64.72010269387467
 20
37.92319558664797
 30
1887.0
 10
64.71983154190684
 20
36.20890952151328
 30
1887.0
 10
64.71957269295845
 20
34.49463321532325
 30
1887.0
 10
64.71908280850896
 20
31.095446837742585
 30
1887.0
 10
64.71885137302704
 20
29.410537020796802
 30
1887.0
 10
64.71863084277447
 20
27.72564087556758
 30
1887.0
 10
64.71842076186931
 20
26.040760753923294
 30
1887.0
 10
64.71822067699453
 20
24.355900315980545
 30
1887.0
 10
64.71803013487812
 20
22.67106455667505
 30
1887.0
 10
64.71784864826337
 20
20.986260414436853
 30
1887.0
 10
64.71756988451558
 20
18.27270338508956
 30
1887.0
 10
64.7174673336549
 20
17.243925597344308
 30
1887.0
 10
64.71736776764996
 20
16.215166742321077
 30
1887.0
 10
64.71727102763057
 20
15.186429446158215
 30
1887.0
 10
64.71717689197358
 20
14.157719066254739
 30
1887.0
 10
64.71708509546916
 20
13.129043330323608
 30
1887.0
 10
64.7169952773148
 20
12.100413416283653
 30
1887.0
 10
64.71687441618928
 20
10.696790139219729
 30
1887.0
 10
64.71684303099791
 20
10.330300580850235
 30
1887.0
 10
64.71681249515659
 20
9.972736794902488
 30
1887.0
 10
64.71678290005123
 20
9.62433172804407
 30
1887.0
 10
64.71675402902224
 20
9.285199569349402
 30
1887.0
 10
64.71672592492045
 20
8.955330467846238
 30
1887.0
 10
64.71669862097853
 20
8.634593599730707
 30
1887.0
 10
64.71664629880058
 20
8.020078869062328
 30
1887.0
 10
64.71662053058003
 20
7.717433316564619
 30
1887.0
 10
64.71659476374705
 20
7.4148015484637355
 30
1887.0
 10
64.71656899845178
 20
7.112185157207295
 30
1887.0
 10
64.71654323488607
 20
6.809586200127455
 30
1887.0
 10
64.71651747329332
 20
6.507007303567399
 30
1887.0
 10
64.71649171397809
 20
6.204451767007817
 30
1887.0
 10
64.71643463475131
 20
5.534020563612259
 30
1887.0
 10
64.716403316728
 20
5.166165292147152
 30
1887.0
 10
64.71637200335563
 20
4.798358518213277
 30
1887.0
 10
64.71634069526355
 20
4.4306069174903655
 30
1887.0
 10
64.716309393917
 20
4.062926712401744
 30
1887.0
 10
64.71627810153613
 20
3.695342743334681
 30
1887.0
 10
64.71624682138344
 20
3.327891643556171
 30
1887.0
 10
64.71620017444785
 20
2.7799048545731324
 30
1887.0
 10
64.71618479479433
 20
2.599228407429944
 30
1887.0
 10
64.71616942039503
 20
2.418609984643684
 30
1887.0
 10
64.7161540519997
 20
2.2380579671630585
 30
1887.0
 10
64.71613869123883
 20
2.05759093882056
 30
1887.0
 10
64.71612334056643
 20
1.8772370139595687
 30
1887.0
 10
64.71610800356083
 20
1.6970372596478462
 30
1887.0
 10
64.71608506765934
 20
1.4275433940387554
 30
1887.0
 10
64.71607745458502
 20
1.3380887623525233
 30
1887.0
 10
64.71606984737089
 20
1.2487007831096175
 30
1887.0
 10
64.71606224689843
 20
1.1593895715794247
 30
1887.0
 10
64.71605465488203
 20
1.0701749542020522
 30
1887.0
 10
64.716047073853
 20
0.9810862784899399
 30
1887.0
 10
64.71603950743838
 20
0.8921656390355395
 30
1887.0
 10
64.71602717495814
 20
0.7472266546259618
 30
1887.0
 10
64.7160223988761
 20
0.6910933254249692
 30
1887.0
 10
64.71601763293475
 20
0.6350771154911516
 30
1887.0
 10
64.71601287833057
 20
0.579191827745575
 30
1887.0
 10
64.71600813891254
 20
0.5234823330995049
 30
1887.0
 10
64.71600342074079
 20
0.4680193990401236
 30
1887.0
 10
64.71599873283503
 20
0.4129084105563816
 30
1887.0
 10
64.7159914261925
 20
0.3270036475360172
 30
1887.0
 10
64.7159887836935
 20
0.2959339031110346
 30
1887.0
 10
64.71598616040997
 20
0.26508819276196505
 30
1887.0
 10
64.71598355906778
 20
0.23449826619619785
 30
1887.0
 10
64.7159809877809
 20
0.20425914241502596
 30
1887.0
 10
64.7159784644114
 20
0.17458033503804415
 30
1887.0
 10
64.71597601322387
 20
0.1457464692536945
 30
1887.0
 10
64.71597239435478
 20
0.10316857914624578
 30
1887.0
 10
64.7159711448981
 20
0.08846635243033418
 30
1887.0
 10
64.71596994064164
 20
0.0742939891032961
 30
1887.0
 10
64.7159687975218
 20
0.060838751563139226
 30
1887.0
 10
64.7159677377127
 20
0.04836127206083951
 30
1887.0
 10
64.71596678985058
 20
0.03719834402531674
 30
1887.0
 10
64.71596598374538
 20
0.027700963937851597
 30
1887.0
 10
64.7159643752464
 20
0.008740501365068098
 30
1887.0
 10
64.71596379553118
 20
0.0016467986142032487
 30
1887.0
 10
64.71596347142804
 20
-0.0011834786252507001
 30
1887.0
 10
64.71596360106257
 20
-0.0010009026480020111
 30
1887.0
 10
64.71596376252981
 20
0.0003036235227682482
 30
1887.0
 10
64.71596350027625
 20
0.0010902986823424499
 30
1887.0
 10
64.71596363946854
 20
-4.131968715626044e-05
 30
1887.0
 10
64.7159642705139
 20
-0.007499479462770964
 30
1887.0
 10
64.71596461763261
 20
-0.011597530602472261
 30
1887.0
 10
64.71596509454079
 20
-0.01722280524248987
 30
1887.0
 10
64.71596570858209
 20
-0.02446056573408839
 30
1887.0
 10
64.71596644927254
 20
-0.033186779724216464
 30
1887.0
 10
64.71596729559454
 20
-0.04315389433977401
 30
1887.0
 10
64.71596822424405
 20
-0.05408765838558871
 30
1887.0
 10
64.71597111712467
 20
-0.08814108054715142
 30
1887.0
 10
64.71597325361368
 20
-0.11328237755091664
 30
1887.0
 10
64.71597552740792
 20
-0.14003329064091652
 30
1887.0
 10
64.71597788374078
 20
-0.16775079241189417
 30
1887.0
 10
64.71598028822255
 20
-0.19603122233487902
 30
1887.0
 10
64.71598272274655
 20
-0.22466216848532738
 30
1887.0
 10
64.7159851857626
 20
-0.25362587590150376
 30
1887.0
 10
64.71599047369966
 20
-0.3158047302987015
 30
1887.0
 10
64.71599350340483
 20
-0.3514273820216697
 30
1887.0
 10
64.71599679128879
 20
-0.3900830959434063
 30
1887.0
 10
64.71600034998404
 20
-0.4319201551046983
 30
1887.0
 10
64.71600419212304
 20
-0.4770868425463623
 30
1887.0
 10
64.71600833033831
 20
-0.5257314413092433
 30
1887.0
 10
64.71601277726236
 20
-0.5780022344342157
 30
1887.0
 10
64.71602231379303
 20
-0.6900927754900793
 30
1887.0
 10
64.71602740339964
 20
-0.7499125234209003
 30
1887.0
 10
64.71603282697997
 20
-0.8136550317954507
 30
1887.0
 10
64.71603859716664
 20
-0.881468583654546
 30
1887.0
 10
64.71604472659203
 20
-0.9535014620390102
 30
1887.0
 10
64.71605122788866
 20
-1.0299019499896784
 30
1887.0
 10
64.71605811368906
 20
-1.1108183305473958
 30
1887.0
 10
64.71607774153561
 20
-1.3414618342789915
 30
1887.0
 10
64.71609010847726
 20
-1.4867764745944037
 30
1887.0
 10
64.71610249055846
 20
-1.6322633237903759
 30
1887.0
 10
64.71611488375675
 20
-1.7778759847570313
 30
1887.0
 10
64.71612728532007
 20
-1.9235827670030492
 30
1887.0
 10
64.71613969342864
 20
-2.0693628047539647
 30
1887.0
 10
64.71615210727134
 20
-2.215206941922103
 30
1887.0
 10
64.71618884330589
 20
-2.646791859969772
 30
1887.0
 10
64.71621317807993
 20
-2.9326721266577955
 30
1887.0
 10
64.71623752532948
 20
-3.218690069015153
 30
1887.0
 10
64.71626188176243
 20
-3.504808388063026
 30
1887.0
 10
64.71628624513033
 20
-3.7910016766714314
 30
1887.0
 10
64.71631061394363
 20
-4.077253240728272
 30
1887.0
 10
64.71633498753762
 20
-4.363555865279805
 30
1887.0
 10
64.71640714163091
 20
-5.211095023021182
 30
1887.0
 10
64.71645493270361
 20
-5.772442721774553
 30
1887.0
 10
64.71650273429483
 20
-6.333900096990119
 30
1887.0
 10
64.71655054368908
 20
-6.895437400461958
 30
1887.0
 10
64.7165983590285
 20
-7.457034385984379
 30
1887.0
 10
64.71664617907383
 20
-8.018677756761228
 30
1887.0
 10
64.71669400325877
 20
-8.580361784752904
 30
1887.0
 10
64.71676774243151
 20
-9.44640032339439
 30
1887.0
 10
64.71679431994409
 20
-9.758554550965659
 30
1887.0
 10
64.7168215464706
 20
-10.078444306900256
 30
1887.0
 10
64.71684948843985
 20
-10.405961532541582
 30
1887.0
 10
64.71687816724987
 20
-10.740995248185364
 30
1887.0
 10
64.71690759195977
 20
-11.083431246320494
 30
1887.0
 10
64.71693781137188
 20
-11.433151628213203
 30
1887.0
 10
64.7170084479415
 20
-12.245511891530908
 30
1887.0
 10
64.7170483655463
 20
-12.700999356435378
 30
1887.0
 10
64.71708864602161
 20
-13.156496397166828
 30
1887.0
 10
64.71712933005526
 20
-13.612001817984046
 30
1887.0
 10
64.71717045092184
 20
-14.067514658673613
 30
1887.0
 10
64.71721203635637
 20
-14.523034153282918
 30
1887.0
 10
64.71725411042786
 20
-14.978559688853196
 30
1887.0
 10
64.71743365363271
 20
-16.89913120416479
 30
1887.0
 10
64.71757589490649
 20
-18.364227554409563
 30
1887.0
 10
64.71772413342484
 20
-19.829363808041276
 30
1887.0
 10
64.71787880182043
 20
-21.294530630447966
 30
1887.0
 10
64.71804026012074
 20
-22.759721474076095
 30
1887.0
 10
64.71820884234018
 20
-24.224931680523802
 30
1887.0
 10
64.71838484762583
 20
-25.69015860674222
 30
1887.0
 10
64.71880150574165
 20
-29.01290191785441
 30
1887.0
 10
64.71904685065243
 20
-30.8704257070043
 30
1887.0
 10
64.71930523383017
 20
-32.72796733994739
 30
1887.0
 10
64.71957726875472
 20
-34.58552329376145
 30
1887.0
 10
64.71986359554957
 20
-36.44309090748487
 30
1887.0
 10
64.72016490525203
 20
-38.30066808440395
 30
1887.0
 10
64.72048195896333
 20
-40.15825315143099
 30
1887.0
 10
64.72113571104269
 20
-43.798086030845006
 30
1887.0
 10
64.72147108932943
 20
-45.58033312599574
 30
1887.0
 10
64.72182248999482
 20
-47.36258491237296
 30
1887.0
 10
64.7221907319362
 20
-49.14484029368993
 30
1887.0
 10
64.72257672549512
 20
-50.92709829064353
 30
1887.0
 10
64.72298149826076
 20
-52.709358005531854
 30
1887.0
 10
64.72340622087313
 20
-54.49161858687192
 30
1887.0
 10
64.72416070479383
 20
-57.50653099245618
 30
1887.0
 10
64.72447938257996
 20
-58.739182794090134
 30
1887.0
 10
64.724807820506
 20
-59.97183431802079
 30
1887.0
 10
64.7251456124294
 20
-61.204485281258286
 30
1887.0
 10
64.72549238727042
 20
-62.43713539384065
 30
1887.0
 10
64.72584780453884
 20
-63.669784353953105
 30
1887.0
 10
64.72621154986051
 20
-64.90243184304737
 30
1887.0
 10
64.72710040803656
 20
-67.84945775208287
 30
1887.0
 10
64.72763302887249
 20
-69.56383442377992
 30
1887.0
 10
64.7281804070819
 20
-71.27820667445306
 30
1887.0
 10
64.72874183961181
 20
-72.9925734864902
 30
1887.0
 10
64.72931669123669
 20
-74.70693367201395
 30
1887.0
 10
64.72990438052055
 20
-76.421285820175
 30
1887.0
 10
64.73050436679061
 20
-78.13562820599229
 30
1887.0
 10
64.73171745193666
 20
-81.53498463373084
 30
1887.0
 10
64.73233015127593
 20
-83.21999842086811
 30
1887.0
 10
64.7329537480821
 20
-84.90499853350212
 30
1887.0
 10
64.7335877851221
 20
-86.58998262008551
 30
1887.0
 10
64.7342318070699
 20
-88.2749470211765
 30
1887.0
 10
64.73488535796807
 20
-89.95988674271797
 30
1887.0
 10
64.73554794687747
 20
-91.64479484730174
 30
1887.0
 10
64.73662865953466
 20
-94.35853368182029
 30
1887.0
 10
64.73704152332502
 20
-95.38738931085109
 30
1887.0
 10
64.73745736178482
 20
-96.41622600791032
 30
1887.0
 10
64.73787601465212
 20
-97.44504114696949
 30
1887.0
 10
64.73829725751767
 20
-98.47382937132843
 30
1887.0
 10
64.7387208211778
 20
-99.50258295423491
 30
1887.0
 10
64.7391463390674
 20
-100.53129071877467
 30
1887.0
 10
64.73972868145577
 20
-101.93502155032408
 30
1887.0
 10
64.73988090469985
 20
-102.30154022190196
 30
1887.0
 10
64.74002950537098
 20
-102.65913246705516
 30
1887.0
 10
64.74017445815433
 20
-103.00756529092482
 30
1887.0
 10
64.74031548915278
 20
-103.34672447332346
 30
1887.0
 10
64.74045264615897
 20
-103.67661985632718
 30
1887.0
 10
64.74058602795971
 20
-103.9973822716284
 30
1887.0
 10
64.7408415706819
 20
-104.61194594491836
 30
1887.0
 10
64.74096742424395
 20
-104.9146155992348
 30
1887.0
 10
64.74109327207472
 20
-105.21727147025184
 30
1887.0
 10
64.74121911351216
 20
-105.51991196564812
 30
1887.0
 10
64.74134494770082
 20
-105.82253502825485
 30
1887.0
 10
64.74147077354876
 20
-106.12513803193691
 30
1887.0
 10
64.74159658968408
 20
-106.4277176774745
 30
1887.0
 10
64.74187538497095
 20
-107.09820226073258
 30
1887.0
 10
64.74202835564249
 20
-107.46608680468259
 30
1887.0
 10
64.7421813061498
 20
-107.83392285498472
 30
1887.0
 10
64.7423342337173
 20
-108.20170373645108
 30
1887.0
 10
64.7424871316
 20
-108.56941322796288
 30
1887.0
 10
64.74263998946981
 20
-108.93702649111086
 30
1887.0
 10
64.74279279209541
 20
-109.30450689545046
 30
1887.0
 10
64.74302066953422
 20
-109.85253735647122
 30
1887.0
 10
64.74309580287161
 20
-110.03322816005175
 30
1887.0
 10
64.74317091208368
 20
-110.2138609437934
 30
1887.0
 10
64.74324599368589
 20
-110.3944273275721
 30
1887.0
 10
64.74332103995141
 20
-110.57490872893969
 30
1887.0
 10
64.74339603919086
 20
-110.75527703564875
 30
1887.0
 10
64.74347097432943
 20
-110.93549118388903
 30
1887.0
 10
64.74358304194932
 20
-111.20500654143491
 30
1887.0
 10
64.74362024117177
 20
-111.29446825882272
 30
1887.0
 10
64.74365741268154
 20
-111.38386332900748
 30
1887.0
 10
64.7436945522729
 20
-111.47318163749412
 30
1887.0
 10
64.74373165170242
 20
-111.56240335935205
 30
1887.0
 10
64.74376869876797
 20
-111.65149914923832
 30
1887.0
 10
64.74380567596734
 20
-111.74042691550547
 30
1887.0
 10
64.74386594807774
 20
-111.88537743205423
 30
1887.0
 10
64.74388929079693
 20
-111.9415151577326
 30
1887.0
 10
64.74391258482022
 20
-111.99753577302553
 30
1887.0
 10
64.74393582440895
 20
-112.05342547670347
 30
1887.0
 10
64.74395899090652
 20
-112.10913940081818
 30
1887.0
 10
64.74398205488882
 20
-112.16460678237208
 30
1887.0
 10
64.74400497253816
 20
-112.21972224275677
 30
1887.0
 10
64.7440406955736
 20
-112.30563382612635
 30
1887.0
 10
64.74405361570093
 20
-112.33670589445504
 30
1887.0
 10
64.74406644267916
 20
-112.3675539450109
 30
1887.0
 10
64.74407916330884
 20
-112.398146234447
 30
1887.0
 10
64.74409173808382
 20
-112.42838775287926
 30
1887.0
 10
64.7441040798865
 20
-112.45806898773245
 30
1887.0
 10
64.74411607037014
 20
-112.4869053232619
 30
1887.0
 10
64.74413377617743
 20
-112.52948664145676
 30
1887.0
 10
64.7441398899309
 20
-112.54418982200355
 30
1887.0
 10
64.74414578337844
 20
-112.55836318127604
 30
1887.0
 10
64.74415137865512
 20
-112.57181945866043
 30
1887.0
 10
64.74415656738242
 20
-112.58429801120232
 30
1887.0
 10
64.74416120949934
 20
-112.59546200152921
 30
1887.0
 10
64.7441651590223
 20
-112.60496034800089
 30
1887.0
 10
64.7441699051365
 20
-112.61637444478013
 30
1887.0
 10
64.74417123685174
 20
-112.619577133589
 30
1887.0
 10
64.74417236634646
 20
-112.62229349516923
 30
1887.0
 10
64.7441733118911
 20
-112.62456746873654
 30
1887.0
 10
64.74417409175611
 20
-112.6264429935067
 30
1887.0
 10
64.74417472421193
 20
-112.6279640086954
 30
1887.0
 10
64.74417522752897
 20
-112.62917445351839
 30
1887.0
 10
64.74417625425703
 20
-112.6316436679264
 30
1887.0
 10
64.74423990044718
 20
-112.63213280893956
 30
1887.0
 10
64.74427800139617
 20
-112.63217770093912
 30
1887.0
 10
64.74424758354046
 20
-112.63217328182682
 30
1887.0
 10
64.74415125690514
 20
-112.63231741669792
 30
1887.0
 10
64.7440372151038
 20
-112.63261089784118
 30
1887.0
 10
64.7439992353385
 20
-112.63285744473895
 30
1887.0
 10
64.74417667839991
 20
-112.632663704067
 30
1887.0
  0
ENDSEC
  0
SECTION
  2
OBJECTS
  0
DICTIONARY
  5
A
330
0
100
AcDbDictionary
281
1
  3
ACAD_COLOR
350
B
  3
ACAD_GROUP
350
C
  3
ACAD_LAYOUT
350
D
  3
ACAD_MATERIAL
350
E
  3
ACAD_MLEADERSTYLE
350
F
  3
ACAD_MLINESTYLE
350
10
  3
ACAD_PLOTSETTINGS
350
11
  3
ACAD_PLOTSTYLENAME
350
12
  3
ACAD_SCALELIST
350
14
  3
ACAD_TABLESTYLE
350
15
  3
ACAD_VISUALSTYLE
350
16
  3
EZDXF_META
350
2D
  0
DICTIONARY
  5
B
330
A
100
AcDbDictionary
281
1
  0
DICTIONARY
  5
C
330
A
100
AcDbDictionary
281
1
  0
DICTIONARY
  5
D
330
A
100
AcDbDictionary
281
1
  3
Model
350
1A
  3
Layout1
350
1E
  0
DICTIONARY
  5
E
330
A
100
AcDbDictionary
281
1
  3
ByBlock
350
1F
  3
ByLayer
350
20
  3
Global
350
21
  0
DICTIONARY
  5
F
330
A
100
AcDbDictionary
281
1
  3
Standard
350
2C
  0
DICTIONARY
  5
10
330
A
100
AcDbDictionary
281
1
  3
Standard
350
22
  0
DICTIONARY
  5
11
330
A
100
AcDbDictionary
281
1
  0
ACDBDICTIONARYWDFLT
  5
12
330
A
100
AcDbDictionary
281
1
  3
Normal
350
13
100
AcDbDictionaryWithDefault
340
13
  0
ACDBPLACEHOLDER
  5
13
330
12
  0
DICTIONARY
  5
14
330
A
100
AcDbDictionary
281
1
  0
DICTIONARY
  5
15
330
A
100
AcDbDictionary
281
1
  0
DICTIONARY
  5
16
330
A
100
AcDbDictionary
281
1
  0
LAYOUT
  5
1A
330
D
100
AcDbPlotSettings
  1

  2
Adobe PDF
  4
A3
  6

 40
7.5
 41
20.0
 42
7.5
 43
20.0
 44
420.0
 45
297.0
 46
0.0
 47
0.0
 48
0.0
 49
0.0
140
0.0
141
0.0
142
1.0
143
1.0
 70
1024
 72
1
 73
1
 74
5
  7

 75
16
 76
0
 77
2
 78
300
147
1.0
148
0.0
149
0.0
100
AcDbLayout
  1
Model
 70
1
 71
0
 10
0.0
 20
0.0
 11
420.0
 21
297.0
 12
0.0
 22
0.0
 32
0.0
 14
1e+20
 24
1e+20
 34
1e+20
 15
-1e+20
 25
-1e+20
 35
-1e+20
146
0.0
 13
0.0
 23
0.0
 33
0.0
 16
1.0
 26
0.0
 36
0.0
 17
0.0
 27
1.0
 37
0.0
 76
1
330
17
  0
LAYOUT
  5
1E
330
D
100
AcDbPlotSettings
  1

  2
Adobe PDF
  4
A3
  6

 40
7.5
 41
20.0
 42
7.5
 43
20.0
 44
420.0
 45
297.0
 46
0.0
 47
0.0
 48
0.0
 49
0.0
140
0.0
141
0.0
142
1.0
143
1.0
 70
0
 72
1
 73
1
 74
5
  7

 75
16
 76
0
 77
2
 78
300
147
1.0
148
0.0
149
0.0
100
AcDbLayout
  1
Layout1
 70
1
 71
1
 10
0.0
 20
0.0
 11
420.0
 21
297.0
 12
0.0
 22
0.0
 32
0.0
 14
1e+20
 24
1e+20
 34
1e+20
 15
-1e+20
 25
-1e+20
 35
-1e+20
146
0.0
 13
0.0
 23
0.0
 33
0.0
 16
1.0
 26
0.0
 36
0.0
 17
0.0
 27
1.0
 37
0.0
 76
1
330
1B
  0
MATERIAL
  5
1F
102
{ACAD_REACTORS
330
E
102
}
330
E
100
AcDbMaterial
  1
ByBlock
  2

 70
0
 40
1.0
 71
1
 41
1.0
 91
-1023410177
 42
1.0
 72
1
  3

 73
1
 74
1
 75
1
 44
0.5
 73
0
 45
1.0
 46
1.0
 77
1
  4

 78
1
 79
1
170
1
 48
1.0
171
1
  6

172
1
173
1
174
1
140
1.0
141
1.0
175
1
  7

176
1
177
1
178
1
143
1.0
179
1
  8

270
1
271
1
272
1
145
1.0
146
1.0
273
1
  9

274
1
275
1
276
1
 42
1.0
 72
1
  3

 73
1
 74
1
 75
1
 94
63
  0
MATERIAL
  5
20
102
{ACAD_REACTORS
330
E
102
}
330
E
100
AcDbMaterial
  1
ByLayer
  2

 70
0
 40
1.0
 71
1
 41
1.0
 91
-1023410177
 42
1.0
 72
1
  3

 73
1
 74
1
 75
1
 44
0.5
 73
0
 45
1.0
 46
1.0
 77
1
  4

 78
1
 79
1
170
1
 48
1.0
171
1
  6

172
1
173
1
174
1
140
1.0
141
1.0
175
1
  7

176
1
177
1
178
1
143
1.0
179
1
  8

270
1
271
1
272
1
145
1.0
146
1.0
273
1
  9

274
1
275
1
276
1
 42
1.0
 72
1
  3

 73
1
 74
1
 75
1
 94
63
  0
MATERIAL
  5
21
102
{ACAD_REACTORS
330
E
102
}
330
E
100
AcDbMaterial
  1
Global
  2

 70
0
 40
1.0
 71
1
 41
1.0
 91
-1023410177
 42
1.0
 72
1
  3

 73
1
 74
1
 75
1
 44
0.5
 73
0
 45
1.0
 46
1.0
 77
1
  4

 78
1
 79
1
170
1
 48
1.0
171
1
  6

172
1
173
1
174
1
140
1.0
141
1.0
175
1
  7

176
1
177
1
178
1
143
1.0
179
1
  8

270
1
271
1
272
1
145
1.0
146
1.0
273
1
  9

274
1
275
1
276
1
 42
1.0
 72
1
  3

 73
1
 74
1
 75
1
 94
63
  0
MLINESTYLE
  5
22
102
{ACAD_REACTORS
330
10
102
}
330
10
100
AcDbMlineStyle
  2
Standard
 70
0
  3

 62
256
 51
90.0
 52
90.0
 71
2
 49
0.5
 62
256
  6
BYLAYER
 49
-0.5
 62
256
  6
BYLAYER
  0
MLEADERSTYLE
  5
2C
102
{ACAD_REACTORS
330
F
102
}
330
F
100
AcDbMLeaderStyle
179
2
170
2
171
1
172
0
 90
2
 40
0.0
 41
0.0
173
1
 91
-1056964608
 92
-2
290
1
 42
2.0
291
1
 43
8.0
  3
Standard
 44
4.0
300

342
29
174
1
175
1
176
0
178
1
 93
-1056964608
 45
4.0
292
0
297
0
 46
4.0
 94
-1056964608
 47
1.0
 49
1.0
140
1.0
294
1
141
0.0
177
0
142
1.0
295
0
296
0
143
3.75
271
0
272
9
273
9
  0
DICTIONARY
  5
2D
330
A
100
AcDbDictionary
280
1
281
1
  3
CREATED_BY_EZDXF
350
2E
  3
WRITTEN_BY_EZDXF
350
58
  0
DICTIONARYVAR
  5
2E
330
2D
100
DictionaryVariables
280
0
  1
0.17 @ 2022-02-15T16:45:46.328657+00:00
  0
DICTIONARYVAR
  5
58
330
2D
100
DictionaryVariables
280
0
  1
0.17 @ 2022-02-15T16:45:46.380528+00:00
  0
ENDSEC
  0
EOF
