  0
SECTION
  2
HEADER
  9
$ACADVER
  1
AC1027
  9
$ACADMAINTVER
 70
105
  9
$DWGCODEPAGE
  3
ANSI_1252
  9
$LASTSAVEDBY
  1
ezdxf
  9
$REQUIREDVERSIONS
160
0
  9
$INSBASE
 10
0.0
 20
0.0
 30
0.0
  9
$EXTMIN
 10
1e+20
 20
1e+20
 30
1e+20
  9
$EXTMAX
 10
-1e+20
 20
-1e+20
 30
-1e+20
  9
$LIMMIN
 10
0.0
 20
0.0
  9
$LIMMAX
 10
420.0
 20
297.0
  9
$ORTHOMODE
 70
0
  9
$REGENMODE
 70
1
  9
$FILLMODE
 70
1
  9
$QTEXTMODE
 70
0
  9
$MIRRTEXT
 70
1
  9
$LTSCALE
 40
1.0
  9
$ATTMODE
 70
1
  9
$TEXTSIZE
 40
2.5
  9
$TRACEWID
 40
1.0
  9
$TEXTSTYLE
  7
Standard
  9
$CLAYER
  8
0
  9
$CELTYPE
  6
ByLayer
  9
$CECOLOR
 62
256
  9
$CELTSCALE
 40
1.0
  9
$DISPSILH
 70
0
  9
$DIMSCALE
 40
1.0
  9
$DIMASZ
 40
2.5
  9
$DIMEXO
 40
0.625
  9
$DIMDLI
 40
3.75
  9
$DIMRND
 40
0.0
  9
$DIMDLE
 40
0.0
  9
$DIMEXE
 40
1.25
  9
$DIMTP
 40
0.0
  9
$DIMTM
 40
0.0
  9
$DIMTXT
 40
2.5
  9
$DIMCEN
 40
2.5
  9
$DIMTSZ
 40
0.0
  9
$DIMTOL
 70
0
  9
$DIMLIM
 70
0
  9
$DIMTIH
 70
0
  9
$DIMTOH
 70
0
  9
$DIMSE1
 70
0
  9
$DIMSE2
 70
0
  9
$DIMTAD
 70
1
  9
$DIMZIN
 70
8
  9
$DIMBLK
  1

  9
$DIMASO
 70
1
  9
$DIMSHO
 70
1
  9
$DIMPOST
  1

  9
$DIMAPOST
  1

  9
$DIMALT
 70
0
  9
$DIMALTD
 70
3
  9
$DIMALTF
 40
0.03937007874
  9
$DIMLFAC
 40
1.0
  9
$DIMTOFL
 70
1
  9
$DIMTVP
 40
0.0
  9
$DIMTIX
 70
0
  9
$DIMSOXD
 70
0
  9
$DIMSAH
 70
0
  9
$DIMBLK1
  1

  9
$DIMBLK2
  1

  9
$DIMSTYLE
  2
ISO-25
  9
$DIMCLRD
 70
0
  9
$DIMCLRE
 70
0
  9
$DIMCLRT
 70
0
  9
$DIMTFAC
 40
1.0
  9
$DIMGAP
 40
0.625
  9
$DIMJUST
 70
0
  9
$DIMSD1
 70
0
  9
$DIMSD2
 70
0
  9
$DIMTOLJ
 70
0
  9
$DIMTZIN
 70
8
  9
$DIMALTZ
 70
0
  9
$DIMALTTZ
 70
0
  9
$DIMUPT
 70
0
  9
$DIMDEC
 70
2
  9
$DIMTDEC
 70
2
  9
$DIMALTU
 70
2
  9
$DIMALTTD
 70
3
  9
$DIMTXSTY
  7
Standard
  9
$DIMAUNIT
 70
0
  9
$DIMADEC
 70
0
  9
$DIMALTRND
 40
0.0
  9
$DIMAZIN
 70
0
  9
$DIMDSEP
 70
44
  9
$DIMATFIT
 70
3
  9
$DIMFRAC
 70
0
  9
$DIMLDRBLK
  1

  9
$DIMLUNIT
 70
2
  9
$DIMLWD
 70
-2
  9
$DIMLWE
 70
-2
  9
$DIMTMOVE
 70
0
  9
$DIMFXL
 40
1.0
  9
$DIMFXLON
 70
0
  9
$DIMJOGANG
 40
0.785398163397
  9
$DIMTFILL
 70
0
  9
$DIMTFILLCLR
 70
0
  9
$DIMARCSYM
 70
0
  9
$DIMLTYPE
  6

  9
$DIMLTEX1
  6

  9
$DIMLTEX2
  6

  9
$DIMTXTDIRECTION
 70
0
  9
$LUNITS
 70
2
  9
$LUPREC
 70
4
  9
$SKETCHINC
 40
1.0
  9
$FILLETRAD
 40
10.0
  9
$AUNITS
 70
0
  9
$AUPREC
 70
2
  9
$MENU
  1
.
  9
$ELEVATION
 40
0.0
  9
$PELEVATION
 40
0.0
  9
$THICKNESS
 40
0.0
  9
$LIMCHECK
 70
0
  9
$CHAMFERA
 40
0.0
  9
$CHAMFERB
 40
0.0
  9
$CHAMFERC
 40
0.0
  9
$CHAMFERD
 40
0.0
  9
$SKPOLY
 70
0
  9
$TDCREATE
 40
2459626.740127315
  9
$TDUCREATE
 40
2458532.153996898
  9
$TDUPDATE
 40
2459626.740127315
  9
$TDUUPDATE
 40
2458532.1544311
  9
$TDINDWG
 40
0.0
  9
$TDUSRTIMER
 40
0.0
  9
$USRTIMER
 70
1
  9
$ANGBASE
 50
0.0
  9
$ANGDIR
 70
0
  9
$PDMODE
 70
0
  9
$PDSIZE
 40
0.0
  9
$PLINEWID
 40
0.0
  9
$SPLFRAME
 70
0
  9
$SPLINETYPE
 70
6
  9
$SPLINESEGS
 70
8
  9
$HANDSEED
  5
57
  9
$SURFTAB1
 70
6
  9
$SURFTAB2
 70
6
  9
$SURFTYPE
 70
6
  9
$SURFU
 70
6
  9
$SURFV
 70
6
  9
$UCSBASE
  2

  9
$UCSNAME
  2

  9
$UCSORG
 10
0.0
 20
0.0
 30
0.0
  9
$UCSXDIR
 10
1.0
 20
0.0
 30
0.0
  9
$UCSYDIR
 10
0.0
 20
1.0
 30
0.0
  9
$UCSORTHOREF
  2

  9
$UCSORTHOVIEW
 70
0
  9
$UCSORGTOP
 10
0.0
 20
0.0
 30
0.0
  9
$UCSORGBOTTOM
 10
0.0
 20
0.0
 30
0.0
  9
$UCSORGLEFT
 10
0.0
 20
0.0
 30
0.0
  9
$UCSORGRIGHT
 10
0.0
 20
0.0
 30
0.0
  9
$UCSORGFRONT
 10
0.0
 20
0.0
 30
0.0
  9
$UCSORGBACK
 10
0.0
 20
0.0
 30
0.0
  9
$PUCSBASE
  2

  9
$PUCSNAME
  2

  9
$PUCSORG
 10
0.0
 20
0.0
 30
0.0
  9
$PUCSXDIR
 10
1.0
 20
0.0
 30
0.0
  9
$PUCSYDIR
 10
0.0
 20
1.0
 30
0.0
  9
$PUCSORTHOREF
  2

  9
$PUCSORTHOVIEW
 70
0
  9
$PUCSORGTOP
 10
0.0
 20
0.0
 30
0.0
  9
$PUCSORGBOTTOM
 10
0.0
 20
0.0
 30
0.0
  9
$PUCSORGLEFT
 10
0.0
 20
0.0
 30
0.0
  9
$PUCSORGRIGHT
 10
0.0
 20
0.0
 30
0.0
  9
$PUCSORGFRONT
 10
0.0
 20
0.0
 30
0.0
  9
$PUCSORGBACK
 10
0.0
 20
0.0
 30
0.0
  9
$USERI1
 70
0
  9
$USERI2
 70
0
  9
$USERI3
 70
0
  9
$USERI4
 70
0
  9
$USERI5
 70
0
  9
$USERR1
 40
0.0
  9
$USERR2
 40
0.0
  9
$USERR3
 40
0.0
  9
$USERR4
 40
0.0
  9
$USERR5
 40
0.0
  9
$WORLDVIEW
 70
1
  9
$SHADEDGE
 70
3
  9
$SHADEDIF
 70
70
  9
$TILEMODE
 70
1
  9
$MAXACTVP
 70
64
  9
$PINSBASE
 10
0.0
 20
0.0
 30
0.0
  9
$PLIMCHECK
 70
0
  9
$PEXTMIN
 10
1e+20
 20
1e+20
 30
1e+20
  9
$PEXTMAX
 10
-1e+20
 20
-1e+20
 30
-1e+20
  9
$PLIMMIN
 10
0.0
 20
0.0
  9
$PLIMMAX
 10
420.0
 20
297.0
  9
$UNITMODE
 70
0
  9
$VISRETAIN
 70
1
  9
$PLINEGEN
 70
0
  9
$PSLTSCALE
 70
1
  9
$TREEDEPTH
 70
3020
  9
$CMLSTYLE
  2
Standard
  9
$CMLJUST
 70
0
  9
$CMLSCALE
 40
20.0
  9
$PROXYGRAPHICS
 70
1
  9
$MEASUREMENT
 70
1
  9
$CELWEIGHT
370
-1
  9
$ENDCAPS
280
0
  9
$JOINSTYLE
280
0
  9
$LWDISPLAY
290
0
  9
$INSUNITS
 70
6
  9
$HYPERLINKBASE
  1

  9
$STYLESHEET
  1

  9
$XEDIT
290
1
  9
$CEPSNTYPE
380
0
  9
$PSTYLEMODE
290
1
  9
$FINGERPRINTGUID
  2
{D50228EF-2476-407F-9074-9AA042AF2351}
  9
$VERSIONGUID
  2
{42EB0A12-4A92-4F5F-A801-104F4B70AF8C}
  9
$EXTNAMES
290
1
  9
$PSVPSCALE
 40
0.0
  9
$OLESTARTUP
290
0
  9
$SORTENTS
280
127
  9
$INDEXCTL
280
0
  9
$HIDETEXT
280
1
  9
$XCLIPFRAME
280
0
  9
$HALOGAP
280
0
  9
$OBSCOLOR
 70
257
  9
$OBSLTYPE
280
0
  9
$INTERSECTIONDISPLAY
280
0
  9
$INTERSECTIONCOLOR
 70
257
  9
$DIMASSOC
280
2
  9
$PROJECTNAME
  1

  9
$CAMERADISPLAY
290
0
  9
$LENSLENGTH
 40
50.0
  9
$CAMERAHEIGHT
 40
0.0
  9
$STEPSPERSEC
 40
24.0
  9
$STEPSIZE
 40
100.0
  9
$3DDWFPREC
 40
2.0
  9
$PSOLWIDTH
 40
0.005
  9
$PSOLHEIGHT
 40
0.08
  9
$LOFTANG1
 40
1.570796326795
  9
$LOFTANG2
 40
1.570796326795
  9
$LOFTMAG1
 40
0.0
  9
$LOFTMAG2
 40
0.0
  9
$LOFTPARAM
 70
7
  9
$LOFTNORMALS
280
1
  9
$LATITUDE
 40
37.795
  9
$LONGITUDE
 40
-122.394
  9
$NORTHDIRECTION
 40
0.0
  9
$TIMEZONE
 70
-8000
  9
$LIGHTGLYPHDISPLAY
280
1
  9
$TILEMODELIGHTSYNCH
280
1
  9
$CMATERIAL
347
20
  9
$SOLIDHIST
280
0
  9
$SHOWHIST
280
1
  9
$DWFFRAME
280
2
  9
$DGNFRAME
280
2
  9
$REALWORLDSCALE
290
1
  9
$INTERFERECOLOR
 62
256
  9
$CSHADOW
280
0
  9
$SHADOWPLANELOCATION
 40
0.0
  0
ENDSEC
  0
SECTION
  2
CLASSES
  0
CLASS
  1
ACDBDICTIONARYWDFLT
  2
AcDbDictionaryWithDefault
  3
ObjectDBX Classes
 90
0
 91
0
280
0
281
0
  0
CLASS
  1
SUN
  2
AcDbSun
  3
SCENEOE
 90
1153
 91
0
280
0
281
0
  0
CLASS
  1
VISUALSTYLE
  2
AcDbVisualStyle
  3
ObjectDBX Classes
 90
4095
 91
0
280
0
281
0
  0
CLASS
  1
MATERIAL
  2
AcDbMaterial
  3
ObjectDBX Classes
 90
1153
 91
0
280
0
281
0
  0
CLASS
  1
SCALE
  2
AcDbScale
  3
ObjectDBX Classes
 90
1153
 91
0
280
0
281
0
  0
CLASS
  1
TABLESTYLE
  2
AcDbTableStyle
  3
ObjectDBX Classes
 90
4095
 91
0
280
0
281
0
  0
CLASS
  1
MLEADERSTYLE
  2
AcDbMLeaderStyle
  3
ACDB_MLEADERSTYLE_CLASS
 90
4095
 91
0
280
0
281
0
  0
CLASS
  1
DICTIONARYVAR
  2
AcDbDictionaryVar
  3
ObjectDBX Classes
 90
0
 91
0
280
0
281
0
  0
CLASS
  1
CELLSTYLEMAP
  2
AcDbCellStyleMap
  3
ObjectDBX Classes
 90
1152
 91
0
280
0
281
0
  0
CLASS
  1
MENTALRAYRENDERSETTINGS
  2
AcDbMentalRayRenderSettings
  3
SCENEOE
 90
1024
 91
0
280
0
281
0
  0
CLASS
  1
ACDBDETAILVIEWSTYLE
  2
AcDbDetailViewStyle
  3
ObjectDBX Classes
 90
1025
 91
0
280
0
281
0
  0
CLASS
  1
ACDBSECTIONVIEWSTYLE
  2
AcDbSectionViewStyle
  3
ObjectDBX Classes
 90
1025
 91
0
280
0
281
0
  0
CLASS
  1
RASTERVARIABLES
  2
AcDbRasterVariables
  3
ISM
 90
0
 91
0
280
0
281
0
  0
CLASS
  1
ACDBPLACEHOLDER
  2
AcDbPlaceHolder
  3
ObjectDBX Classes
 90
0
 91
0
280
0
281
0
  0
CLASS
  1
LAYOUT
  2
AcDbLayout
  3
ObjectDBX Classes
 90
0
 91
0
280
0
281
0
  0
ENDSEC
  0
SECTION
  2
TABLES
  0
TABLE
  2
VPORT
  5
8
330
0
100
AcDbSymbolTable
 70
1
  0
VPORT
  5
23
330
8
100
AcDbSymbolTableRecord
100
AcDbViewportTableRecord
  2
*Active
 70
0
 10
0.0
 20
0.0
 11
1.0
 21
1.0
 12
344.2
 22
148.5
 13
0.0
 23
0.0
 14
0.5
 24
0.5
 15
0.5
 25
0.5
 16
0.0
 26
0.0
 36
1.0
 17
0.0
 27
0.0
 37
0.0
 40
297.0
 41
1.34
 42
50.0
 43
0.0
 44
0.0
 50
0.0
 51
0.0
 71
0
 72
1000
 73
1
 74
3
 75
0
 76
0
 77
0
 78
0
281
0
 65
0
146
0.0
  0
ENDTAB
  0
TABLE
  2
LTYPE
  5
2
330
0
100
AcDbSymbolTable
 70
3
  0
LTYPE
  5
24
330
2
100
AcDbSymbolTableRecord
100
AcDbLinetypeTableRecord
  2
ByBlock
 70
0
  3

 72
65
 73
0
 40
0.0
  0
LTYPE
  5
25
330
2
100
AcDbSymbolTableRecord
100
AcDbLinetypeTableRecord
  2
ByLayer
 70
0
  3

 72
65
 73
0
 40
0.0
  0
LTYPE
  5
26
330
2
100
AcDbSymbolTableRecord
100
AcDbLinetypeTableRecord
  2
Continuous
 70
0
  3

 72
65
 73
0
 40
0.0
  0
ENDTAB
  0
TABLE
  2
LAYER
  5
1
330
0
100
AcDbSymbolTable
 70
2
  0
LAYER
  5
27
330
1
100
AcDbSymbolTableRecord
100
AcDbLayerTableRecord
  2
0
 70
0
 62
7
  6
Continuous
370
-3
390
13
347
21
  0
LAYER
  5
28
330
1
100
AcDbSymbolTableRecord
100
AcDbLayerTableRecord
  2
Defpoints
 70
0
 62
7
  6
Continuous
290
0
370
-3
390
13
347
21
  0
ENDTAB
  0
TABLE
  2
STYLE
  5
5
330
0
100
AcDbSymbolTable
 70
1
  0
STYLE
  5
29
330
5
100
AcDbSymbolTableRecord
100
AcDbTextStyleTableRecord
  2
Standard
 70
0
 40
0.0
 41
1.0
 50
0.0
 71
0
 42
2.5
  3
txt
  4

  0
ENDTAB
  0
TABLE
  2
VIEW
  5
7
330
0
100
AcDbSymbolTable
 70
0
  0
ENDTAB
  0
TABLE
  2
UCS
  5
6
330
0
100
AcDbSymbolTable
 70
0
  0
ENDTAB
  0
TABLE
  2
APPID
  5
3
330
0
100
AcDbSymbolTable
 70
3
  0
APPID
  5
2A
330
3
100
AcDbSymbolTableRecord
100
AcDbRegAppTableRecord
  2
ACAD
 70
0
  0
APPID
  5
54
330
3
100
AcDbSymbolTableRecord
100
AcDbRegAppTableRecord
  2
HATCHBACKGROUNDCOLOR
 70
0
  0
APPID
  5
55
330
3
100
AcDbSymbolTableRecord
100
AcDbRegAppTableRecord
  2
EZDXF
 70
0
  0
ENDTAB
  0
TABLE
  2
DIMSTYLE
  5
4
330
0
100
AcDbSymbolTable
 70
1
100
AcDbDimStyleTable
  0
DIMSTYLE
105
2B
330
4
100
AcDbSymbolTableRecord
100
AcDbDimStyleTableRecord
  2
Standard
 70
0
 40
1.0
 41
2.5
 42
0.625
 43
3.75
 44
1.25
 45
0.0
 46
0.0
 47
0.0
 48
0.0
 49
2.5
140
2.5
141
2.5
142
0.0
143
0.03937007874
144
1.0
145
0.0
146
1.0
147
0.625
148
0.0
 69
0
 70
0
 71
0
 72
0
 73
0
 74
0
 75
0
 76
0
 77
1
 78
8
 79
0
170
0
171
3
172
1
173
0
174
0
175
0
176
0
177
0
178
0
179
0
271
0
272
2
273
2
274
3
275
0
276
0
277
2
278
44
279
0
280
0
281
0
282
0
283
0
284
8
285
0
286
0
288
0
289
3
290
0
371
-2
372
-2
  0
ENDTAB
  0
TABLE
  2
BLOCK_RECORD
  5
9
330
0
100
AcDbSymbolTable
 70
2
  0
BLOCK_RECORD
  5
17
330
9
100
AcDbSymbolTableRecord
100
AcDbBlockTableRecord
  2
*Model_Space
340
1A
 70
0
280
1
281
0
  0
BLOCK_RECORD
  5
1B
330
9
100
AcDbSymbolTableRecord
100
AcDbBlockTableRecord
  2
*Paper_Space
340
1E
 70
0
280
1
281
0
  0
ENDTAB
  0
ENDSEC
  0
SECTION
  2
BLOCKS
  0
BLOCK
  5
18
330
17
100
AcDbEntity
  8
0
100
AcDbBlockBegin
  2
*Model_Space
 70
0
 10
0.0
 20
0.0
 30
0.0
  3
*Model_Space
  1

  0
ENDBLK
  5
19
330
17
100
AcDbEntity
  8
0
100
AcDbBlockEnd
  0
BLOCK
  5
1C
330
1B
100
AcDbEntity
  8
0
100
AcDbBlockBegin
  2
*Paper_Space
 70
0
 10
0.0
 20
0.0
 30
0.0
  3
*Paper_Space
  1

  0
ENDBLK
  5
1D
330
1B
100
AcDbEntity
  8
0
100
AcDbBlockEnd
  0
ENDSEC
  0
SECTION
  2
ENTITIES
  0
SPLINE
  5
2F
330
17
100
AcDbEntity
  8
0
100
AcDbSpline
 70
0
 71
8
 72
74
 73
65
 74
0
 40
0.0
 40
0.0
 40
0.0
 40
0.0
 40
0.0
 40
0.0
 40
0.0
 40
0.0
 40
0.0
 40
0.006154428154252863
 40
0.006154428154252863
 40
0.006154428154252863
 40
0.006154428154252863
 40
0.006154428154252863
 40
0.006154428154252863
 40
0.006154428154252863
 40
0.20259649060190774
 40
0.20259649060190774
 40
0.20259649060190774
 40
0.20259649060190774
 40
0.20259649060190774
 40
0.20259649060190774
 40
0.20259649060190774
 40
0.24317646351696334
 40
0.24317646351696334
 40
0.24317646351696334
 40
0.24317646351696334
 40
0.24317646351696334
 40
0.24317646351696334
 40
0.24317646351696334
 40
0.3175705898318505
 40
0.3175705898318505
 40
0.3175705898318505
 40
0.3175705898318505
 40
0.3175705898318505
 40
0.3175705898318505
 40
0.3175705898318505
 40
0.5551935687030144
 40
0.5551935687030144
 40
0.5551935687030144
 40
0.5551935687030144
 40
0.5551935687030144
 40
0.5551935687030144
 40
0.5551935687030144
 40
0.7164352530173634
 40
0.7164352530173634
 40
0.7164352530173634
 40
0.7164352530173634
 40
0.7164352530173634
 40
0.7164352530173634
 40
0.7164352530173634
 40
0.8634376576625991
 40
0.8634376576625991
 40
0.8634376576625991
 40
0.8634376576625991
 40
0.8634376576625991
 40
0.8634376576625991
 40
0.8634376576625991
 40
0.9385310171462818
 40
0.9385310171462818
 40
0.9385310171462818
 40
0.9385310171462818
 40
0.9385310171462818
 40
0.9385310171462818
 40
0.9385310171462818
 40
1.0
 40
1.0
 40
1.0
 40
1.0
 40
1.0
 40
1.0
 40
1.0
 40
1.0
 40
1.0
 10
81.8329032680065
 20
102.92589773297539
 30
1913.0
 10
81.82403871798168
 20
102.92906400273417
 30
1913.0
 10
81.81516801353453
 20
102.93221285036229
 30
1913.0
 10
81.80629119586094
 20
102.93534425900783
 30
1913.0
 10
81.79740830654934
 20
102.93845821232905
 30
1913.0
 10
81.78851938758297
 20
102.94155469449905
 30
1913.0
 10
81.77962448134193
 20
102.94463369021027
 30
1913.0
 10
81.77072363060546
 20
102.947695184679
 30
1913.0
 10
81.4775238948966
 20
103.0478993696237
 30
1913.0
 10
81.18707946502275
 20
103.12726210096368
 30
1913.0
 10
80.89202229974725
 20
103.18828234912753
 30
1913.0
 10
80.59377736793333
 20
103.23119871268091
 30
1913.0
 10
80.2936379774823
 20
103.2568607121464
 30
1913.0
 10
79.99274208494676
 20
103.26652706434585
 30
1913.0
 10
79.6920490768736
 20
103.26167734348766
 30
1913.0
 10
79.33040747699026
 20
103.24020286187643
 30
1913.0
 10
79.2684622635537
 20
103.23596952759792
 30
1913.0
 10
79.20648846967316
 20
103.23119070302168
 30
1913.0
 10
79.14448693934719
 20
103.22587763774979
 30
1913.0
 10
79.08245851657352
 20
103.22004158138157
 30
1913.0
 10
79.02040404534907
 20
103.21369378351346
 30
1913.0
 10
78.95832436966981
 20
103.2068454937392
 30
1913.0
 10
78.78236674573162
 20
103.18605626984471
 30
1913.0
 10
78.66842706784371
 20
103.17096491349443
 30
1913.0
 10
78.55440623078033
 20
103.15426772733488
 30
1913.0
 10
78.4403031719478
 20
103.1361263063105
 30
1913.0
 10
78.32615087200055
 20
103.1165361166205
 30
1913.0
 10
78.21199344781878
 20
103.09546318342427
 30
1913.0
 10
78.09786224520249
 20
103.07300454984733
 30
1913.0
 10
77.61952670755254
 20
102.97302181348331
 30
1913.0
 10
77.25813582982175
 20
102.88327790229036
 30
1913.0
 10
76.8999275344966
 20
102.78102349591724
 30
1913.0
 10
76.54519424117234
 20
102.66711801963488
 30
1913.0
 10
76.194218316428
 20
102.54224089900868
 30
1913.0
 10
75.84726735733676
 20
102.40691121387647
 30
1913.0
 10
75.50459993818453
 20
102.26147690371442
 30
1913.0
 10
74.9370480549081
 20
102.00062285312501
 30
1913.0
 10
74.70974985119346
 20
101.89060040093791
 30
1913.0
 10
74.48467651378041
 20
101.7760558694932
 30
1913.0
 10
74.26195000453755
 20
101.65700541911247
 30
1913.0
 10
74.0417232582614
 20
101.53343450568333
 30
1913.0
 10
73.82418436835422
 20
101.40529108135514
 30
1913.0
 10
73.60956664259342
 20
101.27246915902188
 30
1913.0
 10
73.20543137082282
 20
101.00925543242734
 30
1913.0
 10
73.01543603989523
 20
100.87972745614167
 30
1913.0
 10
72.82835008651159
 20
100.74602628733149
 30
1913.0
 10
72.64444409804443
 20
100.60796074641169
 30
1913.0
 10
72.46411611485685
 20
100.46529158202159
 30
1913.0
 10
72.28789274820696
 20
100.31772986734907
 30
1913.0
 10
72.11647367862189
 20
100.16488430672744
 30
1913.0
 10
71.86630507517103
 20
99.92495567423424
 30
1913.0
 10
71.7832701094386
 20
99.84230293540843
 30
1913.0
 10
71.70191048365463
 20
99.7580234875155
 30
1913.0
 10
71.62240129420003
 20
99.67201787682181
 30
1913.0
 10
71.5449654282385
 20
99.584185290101
 30
1913.0
 10
71.46988238684965
 20
99.49441621471553
 30
1913.0
 10
71.39750806926769
 20
99.40257651040565
 30
1913.0
 10
71.27165855965761
 20
99.23146091630295
 30
1913.0
 10
71.21718425044982
 20
99.15299270315265
 30
1913.0
 10
71.16509628279279
 20
99.0729321323544
 30
1913.0
 10
71.11571072602365
 20
98.99117019269335
 30
1913.0
 10
71.06945684871243
 20
98.90763063050088
 30
1913.0
 10
71.0268795080516
 20
98.82226889835773
 30
1913.0
 10
70.9886604600036
 20
98.73506167829342
 30
1913.0
 10
70.95568594366115
 20
98.64597425305459
 30
1913.0
  0
SPLINE
  5
30
330
17
100
AcDbEntity
  8
0
100
AcDbSpline
 70
0
 71
1
 72
4
 73
2
 74
0
 40
0.0
 40
0.0
 40
1.0
 40
1.0
 10
81.8329032732439
 20
102.92589774904431
 30
1913.0
 10
81.83290327324391
 20
102.09999939999993
 30
1913.0
  0
LINE
  5
31
330
17
100
AcDbEntity
  8
0
100
AcDbLine
 10
81.83290328853063
 20
102.1
 30
1913.0
 11
83.35850504474492
 21
102.1
 31
1913.0
  0
SPLINE
  5
32
330
17
100
AcDbEntity
  8
0
100
AcDbSpline
 70
0
 71
8
 72
53
 73
44
 74
0
 40
0.0
 40
0.0
 40
0.0
 40
0.0
 40
0.0
 40
0.0
 40
0.0
 40
0.0
 40
0.0
 40
0.13753740564182163
 40
0.13753740564182163
 40
0.13753740564182163
 40
0.13753740564182163
 40
0.13753740564182163
 40
0.13753740564182163
 40
0.13753740564182163
 40
0.4261170334567387
 40
0.4261170334567387
 40
0.4261170334567387
 40
0.4261170334567387
 40
0.4261170334567387
 40
0.4261170334567387
 40
0.4261170334567387
 40
0.5872086527569434
 40
0.5872086527569434
 40
0.5872086527569434
 40
0.5872086527569434
 40
0.5872086527569434
 40
0.5872086527569434
 40
0.5872086527569434
 40
0.7284204490408617
 40
0.7284204490408617
 40
0.7284204490408617
 40
0.7284204490408617
 40
0.7284204490408617
 40
0.7284204490408617
 40
0.7284204490408617
 40
0.938378223484672
 40
0.938378223484672
 40
0.938378223484672
 40
0.938378223484672
 40
0.938378223484672
 40
0.938378223484672
 40
0.938378223484672
 40
1.0
 40
1.0
 40
1.0
 40
1.0
 40
1.0
 40
1.0
 40
1.0
 40
1.0
 40
1.0
 10
91.42417161679684
 20
79.89999999754582
 30
1913.0
 10
91.35302436797758
 20
80.30722070441183
 30
1913.0
 10
91.2809060262129
 20
80.71426992597648
 30
1913.0
 10
91.20778454372453
 20
81.1211390739345
 30
1913.0
 10
91.13362538713002
 20
81.5278187909449
 30
1913.0
 10
91.05839119406579
 20
81.93429888952184
 30
1913.0
 10
90.98204135960296
 20
82.34056827819776
 30
1913.0
 10
90.90453155245619
 20
82.74661487495892
 30
1913.0
 10
90.66064700849884
 20
84.00389337508568
 30
1913.0
 10
90.49016615009045
 20
84.85429160854758
 30
1913.0
 10
90.3139148612248
 20
85.70352226839904
 30
1913.0
 10
90.13136161980535
 20
86.5514382712768
 30
1913.0
 10
89.94185778025965
 20
87.39783351180867
 30
1913.0
 10
89.74461184260228
 20
88.24243704998919
 30
1913.0
 10
89.53861081068612
 20
89.0848951719598
 30
1913.0
 10
89.20173765022619
 20
90.39353704731238
 30
1913.0
 10
89.07788429567466
 20
90.86151080281707
 30
1913.0
 10
88.95061075703396
 20
91.32857012895681
 30
1913.0
 10
88.81962489172784
 20
91.79460843893906
 30
1913.0
 10
88.68458922999372
 20
92.25948828262878
 30
1913.0
 10
88.54510201213938
 20
92.72303579134204
 30
1913.0
 10
88.4006617608303
 20
93.18503011317608
 30
1913.0
 10
88.11908577893706
 20
94.04855890996103
 30
1913.0
 10
87.98325567287807
 20
94.45049304171268
 30
1913.0
 10
87.8428063584441
 20
94.85084954682193
 30
1913.0
 10
87.69738063194323
 20
95.24943998924437
 30
1913.0
 10
87.54657768740269
 20
95.64602633346813
 30
1913.0
 10
87.38993984002808
 20
96.04031586249046
 30
1913.0
 10
87.22693108349864
 20
96.431952864502
 30
1913.0
 10
86.80411148173864
 20
97.39822072284741
 30
1913.0
 10
86.53625133058678
 20
97.96810691491297
 30
1913.0
 10
86.2508201532122
 20
98.52988316502103
 30
1913.0
 10
85.94507528728978
 20
99.0818808128171
 30
1913.0
 10
85.61591160816235
 20
99.62095753292283
 30
1913.0
 10
85.25975200931092
 20
100.14242827070444
 30
1913.0
 10
84.8722627672706
 20
100.63988517872517
 30
1913.0
 10
84.32309447355102
 20
101.241221059446
 30
1913.0
 10
84.19536367127573
 20
101.37478373349067
 30
1912.9999999999998
 10
84.06440077511236
 20
101.50522002683115
 30
1912.9999999999998
 10
83.93011155550127
 20
101.63225379929271
 30
1912.9999999999998
 10
83.79241845154348
 20
101.75558091590295
 30
1912.9999999999998
 10
83.65126531047696
 20
101.87487496781256
 30
1912.9999999999998
 10
83.50662430700052
 20
101.98979567873556
 30
1912.9999999999998
 10
83.35850504244536
 20
102.09999999690928
 30
1912.9999999999998
  0
LINE
  5
33
330
17
100
AcDbEntity
  8
0
100
AcDbLine
 10
81.83290328853063
 20
79.9
 30
1913.0
 11
91.4241716308436
 21
79.9
 31
1913.0
  0
SPLINE
  5
34
330
17
100
AcDbEntity
  8
0
100
AcDbSpline
 70
0
 71
1
 72
4
 73
2
 74
0
 40
0.0
 40
0.0
 40
1.0
 40
1.0
 10
81.83290327324391
 20
79.90000060000001
 30
1913.0
 10
81.83290327324391
 20
76.09999939999999
 30
1913.0
  0
LINE
  5
35
330
17
100
AcDbEntity
  8
0
100
AcDbLine
 10
81.83290328853066
 20
76.1
 30
1913.0
 11
92.05273410861284
 21
76.1
 31
1913.0
  0
SPLINE
  5
36
330
17
100
AcDbEntity
  8
0
100
AcDbSpline
 70
0
 71
8
 72
32
 73
23
 74
0
 40
0.0
 40
0.0
 40
0.0
 40
0.0
 40
0.0
 40
0.0
 40
0.0
 40
0.0
 40
0.0
 40
0.04877416507020449
 40
0.04877416507020449
 40
0.04877416507020449
 40
0.04877416507020449
 40
0.04877416507020449
 40
0.04877416507020449
 40
0.04877416507020449
 40
0.9756149011154174
 40
0.9756149011154174
 40
0.9756149011154174
 40
0.9756149011154174
 40
0.9756149011154174
 40
0.9756149011154174
 40
0.9756149011154174
 40
1.0
 40
1.0
 40
1.0
 40
1.0
 40
1.0
 40
1.0
 40
1.0
 40
1.0
 40
1.0
 10
94.73858398727481
 20
53.9000000016311
 30
1913.0
 10
94.7260630328129
 20
54.03578665670117
 30
1913.0
 10
94.71349577764737
 20
54.171569026371486
 30
1913.0
 10
94.70088212454594
 20
54.30734708265986
 30
1913.0
 10
94.68822197285844
 20
54.443120797185955
 30
1913.0
 10
94.67551521926674
 20
54.578890141216
 30
1913.0
 10
94.66276175969375
 20
54.714655085770175
 30
1913.0
 10
94.64996149308669
 20
54.850415601827734
 30
1913.0
 10
94.3929835303999
 20
57.56590306823401
 30
1913.0
 10
94.13192126124342
 20
60.14393092437038
 30
1913.0
 10
93.85318115896216
 20
62.72015733378532
 30
1913.0
 10
93.5556608194364
 20
65.29435803033857
 30
1913.0
 10
93.23788034474633
 20
67.86618019319786
 30
1913.0
 10
92.89770214428641
 20
70.43510384114231
 30
1913.0
 10
92.53225391560382
 20
73.0004327784111
 30
1913.0
 10
92.12619143555305
 20
75.62849284091709
 30
1913.0
 10
92.11576094525984
 20
75.69586104099851
 30
1913.0
 10
92.10530946817622
 20
75.7632259292622
 30
1913.0
 10
92.09483691383338
 20
75.83058748619104
 30
1913.0
 10
92.08434319071654
 20
75.89794569183843
 30
1913.0
 10
92.07382820625581
 20
75.96530052582686
 30
1913.0
 10
92.0632918668157
 20
76.03265196734614
 30
1913.0
 10
92.05273407768311
 20
76.0999999951513
 30
1913.0
  0
LINE
  5
37
330
17
100
AcDbEntity
  8
0
100
AcDbLine
 10
81.83290328853063
 20
53.9
 30
1913.0
 11
94.73858396958573
 21
53.9
 31
1913.0
  0
SPLINE
  5
38
330
17
100
AcDbEntity
  8
0
100
AcDbSpline
 70
0
 71
1
 72
4
 73
2
 74
0
 40
0.0
 40
0.0
 40
1.0
 40
1.0
 10
81.83290327324389
 20
53.90000060000026
 30
1913.0
 10
81.83290327324389
 20
50.09999939999937
 30
1913.0
  0
LINE
  5
39
330
17
100
AcDbEntity
  8
0
100
AcDbLine
 10
81.83290328853063
 20
50.1
 30
1913.0
 11
95.07320731764122
 21
50.1
 31
1913.0
  0
SPLINE
  5
3A
330
17
100
AcDbEntity
  8
0
100
AcDbSpline
 70
0
 71
8
 72
32
 73
23
 74
0
 40
0.0
 40
0.0
 40
0.0
 40
0.0
 40
0.0
 40
0.0
 40
0.0
 40
0.0
 40
0.0
 40
0.5086951536000198
 40
0.5086951536000198
 40
0.5086951536000198
 40
0.5086951536000198
 40
0.5086951536000198
 40
0.5086951536000198
 40
0.5086951536000198
 40
0.9322534107729799
 40
0.9322534107729799
 40
0.9322534107729799
 40
0.9322534107729799
 40
0.9322534107729799
 40
0.9322534107729799
 40
0.9322534107729799
 40
1.0
 40
1.0
 40
1.0
 40
1.0
 40
1.0
 40
1.0
 40
1.0
 40
1.0
 40
1.0
 10
96.45170005931124
 20
27.900000000140707
 30
1913.0
 10
96.39261350031107
 20
29.313219787746377
 30
1913.0
 10
96.32966057596566
 20
30.72627688714454
 30
1913.0
 10
96.26277399163429
 20
32.13915609370996
 30
1913.0
 10
96.19188444483389
 20
33.55184147553466
 30
1913.0
 10
96.11692051509701
 20
34.96431636985815
 30
1913.0
 10
96.03780854543035
 20
36.376563379197776
 30
1913.0
 10
95.95447251537406
 20
37.78856436717934
 30
1913.0
 10
95.79386278233129
 20
40.375763739532786
 30
1913.0
 10
95.71790880532933
 20
41.55104125252663
 30
1913.0
 10
95.63892681256273
 20
42.726121385540004
 30
1913.0
 10
95.55687034155241
 20
43.90099188537488
 30
1913.0
 10
95.47169162943317
 20
45.0756398531446
 30
1913.0
 10
95.38334161295363
 20
46.250051744273904
 30
1913.0
 10
95.29176992847631
 20
47.42421336849894
 30
1913.0
 10
95.18175479956884
 20
48.78587033150988
 30
1913.0
 10
95.16650095334619
 20
48.973623987659536
 30
1913.0
 10
95.15116314204482
 20
49.16137079757688
 30
1913.0
 10
95.13574115765701
 20
49.34911070039777
 30
1913.0
 10
95.1202347937022
 20
49.53684363452588
 30
1913.0
 10
95.10464383885807
 20
49.72456953757171
 30
1913.0
 10
95.08896807701728
 20
49.91228834647192
 30
1913.0
 10
95.07320728930897
 20
50.099999997621126
 30
1913.0
  0
LINE
  5
3B
330
17
100
AcDbEntity
  8
0
100
AcDbLine
 10
81.83290328853066
 20
27.9
 30
1913.0
 11
96.45170005594579
 21
27.9
 31
1913.0
  0
SPLINE
  5
3C
330
17
100
AcDbEntity
  8
0
100
AcDbSpline
 70
0
 71
1
 72
4
 73
2
 74
0
 40
0.0
 40
0.0
 40
1.0
 40
1.0
 10
81.83290327324391
 20
27.900000600000002
 30
1913.0
 10
81.83290327324391
 20
24.099999399999998
 30
1913.0
  0
LINE
  5
3D
330
17
100
AcDbEntity
  8
0
100
AcDbLine
 10
81.83290328853066
 20
24.1
 30
1913.0
 11
96.59847177933318
 21
24.1
 31
1913.0
  0
SPLINE
  5
3E
330
17
100
AcDbEntity
  8
0
100
AcDbSpline
 70
0
 71
8
 72
18
 73
9
 74
0
 40
0.0
 40
0.0
 40
0.0
 40
0.0
 40
0.0
 40
0.0
 40
0.0
 40
0.0
 40
0.0
 40
1.0
 40
1.0
 40
1.0
 40
1.0
 40
1.0
 40
1.0
 40
1.0
 40
1.0
 40
1.0
 10
97.00844062365073
 20
1.89999999997934
 30
1913.0
 10
97.00139533218092
 20
4.675595314298216
 30
1913.0
 10
96.9825123081113
 20
7.4511525086025205
 30
1913.0
 10
96.95142115518776
 20
10.226618697766988
 30
1913.0
 10
96.90773277280644
 20
13.00193055866709
 30
1913.0
 10
96.85103783639522
 20
15.777014286452776
 30
1913.0
 10
96.78090479823501
 20
18.55178553370639
 30
1913.0
 10
96.69687740872075
 20
21.326149332484746
 30
1913.0
 10
96.59847175806192
 20
24.099999999245384
 30
1913.0
  0
LINE
  5
3F
330
17
100
AcDbEntity
  8
0
100
AcDbLine
 10
81.83290328853063
 20
1.9
 30
1913.0
 11
97.00844063179402
 21
1.9
 31
1913.0
  0
SPLINE
  5
40
330
17
100
AcDbEntity
  8
0
100
AcDbSpline
 70
0
 71
1
 72
4
 73
2
 74
0
 40
0.0
 40
0.0
 40
0.9999993684216398
 40
0.9999993684216398
 10
81.8329032732439
 20
1.9000006000000558
 30
1913.0
 10
81.83290327324391
 20
-6.553790374438061e-17
 30
1913.0
  0
SPLINE
  5
41
330
17
100
AcDbEntity
  8
0
100
AcDbSpline
 70
0
 71
1
 72
4
 73
2
 74
0
 40
0.0
 40
0.0
 40
1.0
 40
1.0
 10
81.83290327324391
 20
-1.9000006000000011
 30
1913.0
 10
81.83290327324389
 20
1.2000000211287443e-06
 30
1913.0
  0
LINE
  5
42
330
17
100
AcDbEntity
  8
0
100
AcDbLine
 10
81.8329032885299
 20
-1.9
 30
1913.0
 11
97.0084562246133
 21
-1.9
 31
1913.0
  0
SPLINE
  5
43
330
17
100
AcDbEntity
  8
0
100
AcDbSpline
 70
0
 71
8
 72
18
 73
9
 74
0
 40
0.0
 40
0.0
 40
0.0
 40
0.0
 40
0.0
 40
0.0
 40
0.0
 40
0.0
 40
0.0
 40
1.0
 40
1.0
 40
1.0
 40
1.0
 40
1.0
 40
1.0
 40
1.0
 40
1.0
 40
1.0
 10
96.59862972332479
 20
-24.10000000051436
 30
1913.0
 10
96.69702594895891
 20
-21.32615056902175
 30
1913.0
 10
96.78104048232413
 20
-18.551790720740254
 30
1913.0
 10
96.85115797270016
 20
-15.777022345131627
 30
1913.0
 10
96.90783495029694
 20
-13.001938466166768
 30
1913.0
 10
96.95150330952399
 20
-10.226623270264774
 30
1913.0
 10
96.9825729726718
 20
-7.451152146074144
 30
1913.0
 10
97.00143373400554
 20
-4.675591736096243
 30
1913.0
 10
97.00845628427084
 20
-1.900000000150946
 30
1913.0
  0
LINE
  5
44
330
17
100
AcDbEntity
  8
0
100
AcDbLine
 10
81.8329032885299
 20
-24.1
 30
1913.0
 11
96.59862970882475
 21
-24.1
 31
1913.0
  0
SPLINE
  5
45
330
17
100
AcDbEntity
  8
0
100
AcDbSpline
 70
0
 71
1
 72
4
 73
2
 74
0
 40
0.0
 40
0.0
 40
1.0
 40
1.0
 10
81.83290327324389
 20
-27.900000600000034
 30
1913.0
 10
81.8329032732439
 20
-24.099999399999938
 30
1913.0
  0
LINE
  5
46
330
17
100
AcDbEntity
  8
0
100
AcDbLine
 10
81.8329032885299
 20
-27.9
 30
1913.0
 11
96.45186803001512
 21
-27.9
 31
1913.0
  0
SPLINE
  5
47
330
17
100
AcDbEntity
  8
0
100
AcDbSpline
 70
0
 71
8
 72
25
 73
16
 74
0
 40
0.0
 40
0.0
 40
0.0
 40
0.0
 40
0.0
 40
0.0
 40
0.0
 40
0.0
 40
0.0
 40
0.020050995951882263
 40
0.020050995951882263
 40
0.020050995951882263
 40
0.020050995951882263
 40
0.020050995951882263
 40
0.020050995951882263
 40
0.020050995951882263
 40
1.0
 40
1.0
 40
1.0
 40
1.0
 40
1.0
 40
1.0
 40
1.0
 40
1.0
 40
1.0
 10
95.07329614938112
 20
-50.10000000009462
 30
1913.0
 10
95.07796140088172
 20
-50.04444294929196
 30
1913.0
 10
95.08261920248289
 20
-49.98888527086523
 30
1913.0
 10
95.08726955987593
 20
-49.933326966449066
 30
1913.0
 10
95.09191247870037
 20
-49.877768037674684
 30
1913.0
 10
95.09654796452118
 20
-49.822208486169274
 30
1913.0
 10
95.10117602280133
 20
-49.76664831355523
 30
1913.0
 10
95.10579665886874
 20
-49.711087521449166
 30
1913.0
 10
95.33587096635425
 20
-46.940082523898006
 30
1912.9999999999998
 10
95.54361655089117
 20
-44.223168640306184
 30
1913.0
 10
95.7342984745561
 20
-41.50496856199648
 30
1913.0
 10
95.90852654198318
 20
-38.78565019473655
 30
1913.0
 10
96.0668732100613
 20
-36.065365536686365
 30
1913.0
 10
96.20987757617249
 20
-33.344250922301754
 30
1913.0
 10
96.33804866398003
 20
-30.62242722220581
 30
1913.0
 10
96.45186800676632
 20
-27.89999999902801
 30
1913.0
  0
LINE
  5
48
330
17
100
AcDbEntity
  8
0
100
AcDbLine
 10
81.8329032885299
 20
-50.1
 30
1913.0
 11
95.0732961482544
 21
-50.1
 31
1913.0
  0
SPLINE
  5
49
330
17
100
AcDbEntity
  8
0
100
AcDbSpline
 70
0
 71
1
 72
4
 73
2
 74
0
 40
0.0
 40
0.0
 40
1.0
 40
1.0
 10
81.83290327324391
 20
-53.9000006
 30
1913.0
 10
81.83290327324389
 20
-50.0999994
 30
1913.0
  0
LINE
  5
4A
330
17
100
AcDbEntity
  8
0
100
AcDbLine
 10
81.8329032885299
 20
-53.9
 30
1913.0
 11
94.73863269303715
 21
-53.9
 31
1913.0
  0
SPLINE
  5
4B
330
17
100
AcDbEntity
  8
0
100
AcDbSpline
 70
0
 71
8
 72
32
 73
23
 74
0
 40
0.0
 40
0.0
 40
0.0
 40
0.0
 40
0.0
 40
0.0
 40
0.0
 40
0.0
 40
0.0
 40
0.39008317981573803
 40
0.39008317981573803
 40
0.39008317981573803
 40
0.39008317981573803
 40
0.39008317981573803
 40
0.39008317981573803
 40
0.39008317981573803
 40
0.8466281094958831
 40
0.8466281094958831
 40
0.8466281094958831
 40
0.8466281094958831
 40
0.8466281094958831
 40
0.8466281094958831
 40
0.8466281094958831
 40
1.0
 40
1.0
 40
1.0
 40
1.0
 40
1.0
 40
1.0
 40
1.0
 40
1.0
 40
1.0
 10
92.05248837897516
 20
-76.1000000035522
 30
1912.9999999999998
 10
92.22138946552646
 20
-75.02265528746621
 30
1913.0
 10
92.38480223547751
 20
-73.94443976976831
 30
1913.0
 10
92.5431134177364
 20
-72.86544914351234
 30
1913.0
 10
92.69664044823583
 20
-71.78576189279651
 30
1913.0
 10
92.84565223497084
 20
-70.70544248360272
 30
1913.0
 10
92.99037967365726
 20
-69.62454297046057
 30
1913.0
 10
93.13102177284195
 20
-68.54310394323767
 30
1913.0
 10
93.42778081223358
 20
-66.1948669243992
 30
1913.0
 10
93.58244954928351
 20
-64.92789654929977
 30
1913.0
 10
93.73203726304018
 20
-63.660304955884335
 30
1913.0
 10
93.87677353032483
 20
-62.39214391447217
 30
1913.0
 10
94.01685007088793
 20
-61.12345783557042
 30
1913.0
 10
94.1524283840969
 20
-59.8542846612827
 30
1913.0
 10
94.28364465160816
 20
-58.58465643543336
 30
1913.0
 10
94.45326533742967
 20
-56.88793612339076
 30
1913.0
 10
94.49543911882728
 20
-56.461224516449874
 30
1913.0
 10
94.53713788881007
 20
-56.03446581024007
 30
1913.0
 10
94.57836532112967
 20
-55.60766101050768
 30
1913.0
 10
94.61912512388375
 20
-55.18081109986855
 30
1913.0
 10
94.65942084332156
 20
-54.753917028337256
 30
1913.0
 10
94.6992557181187
 20
-54.32697970525783
 30
1913.0
 10
94.73863269347825
 20
-53.90000000004068
 30
1913.0
  0
LINE
  5
4C
330
17
100
AcDbEntity
  8
0
100
AcDbLine
 10
81.8329032885299
 20
-76.1
 30
1913.0
 11
92.05248835631724
 21
-76.1
 31
1913.0
  0
SPLINE
  5
4D
330
17
100
AcDbEntity
  8
0
100
AcDbSpline
 70
0
 71
1
 72
4
 73
2
 74
0
 40
0.0
 40
0.0
 40
1.0
 40
1.0
 10
81.8329032732439
 20
-79.90000060000018
 30
1913.0
 10
81.83290327324389
 20
-76.09999939999999
 30
1913.0
  0
LINE
  5
4E
330
17
100
AcDbEntity
  8
0
100
AcDbLine
 10
81.8329032885299
 20
-79.9
 30
1913.0
 11
91.4238914397
 21
-79.9
 31
1913.0
  0
SPLINE
  5
4F
330
17
100
AcDbEntity
  8
0
100
AcDbSpline
 70
0
 71
8
 72
67
 73
58
 74
0
 40
0.0
 40
0.0
 40
0.0
 40
0.0
 40
0.0
 40
0.0
 40
0.0
 40
0.0
 40
0.0
 40
0.022738691068358324
 40
0.022738691068358324
 40
0.022738691068358324
 40
0.022738691068358324
 40
0.022738691068358324
 40
0.022738691068358324
 40
0.022738691068358324
 40
0.0969938126195303
 40
0.0969938126195303
 40
0.0969938126195303
 40
0.0969938126195303
 40
0.0969938126195303
 40
0.0969938126195303
 40
0.0969938126195303
 40
0.2345250429784607
 40
0.2345250429784607
 40
0.2345250429784607
 40
0.2345250429784607
 40
0.2345250429784607
 40
0.2345250429784607
 40
0.2345250429784607
 40
0.37101443874641143
 40
0.37101443874641143
 40
0.37101443874641143
 40
0.37101443874641143
 40
0.37101443874641143
 40
0.37101443874641143
 40
0.37101443874641143
 40
0.44599830749729324
 40
0.44599830749729324
 40
0.44599830749729324
 40
0.44599830749729324
 40
0.44599830749729324
 40
0.44599830749729324
 40
0.44599830749729324
 40
0.5345098835090213
 40
0.5345098835090213
 40
0.5345098835090213
 40
0.5345098835090213
 40
0.5345098835090213
 40
0.5345098835090213
 40
0.5345098835090213
 40
0.750151990139944
 40
0.750151990139944
 40
0.750151990139944
 40
0.750151990139944
 40
0.750151990139944
 40
0.750151990139944
 40
0.750151990139944
 40
1.0
 40
1.0
 40
1.0
 40
1.0
 40
1.0
 40
1.0
 40
1.0
 40
1.0
 40
1.0
 10
83.35998893540105
 20
-102.09999999913254
 30
1913.0
 10
83.41191319276838
 20
-102.06134318542703
 30
1913.0
 10
83.46340935280507
 20
-102.02210693331271
 30
1913.0
 10
83.51447620726917
 20
-101.98230666321695
 30
1913.0
 10
83.56511304090708
 20
-101.94195788328258
 30
1913.0
 10
83.61531959775184
 20
-101.90107613016322
 30
1913.0
 10
83.66509605023207
 20
-101.8596769148286
 30
1913.0
 10
83.71444297136422
 20
-101.81777567399533
 30
1913.0
 10
83.92310828926433
 20
-101.63696629941929
 30
1913.0
 10
84.07833925542813
 20
-101.49330728254701
 30
1913.0
 10
84.22914070906917
 20
-101.34488695798844
 30
1913.0
 10
84.37563282117382
 20
-101.19215654247078
 30
1913.0
 10
84.51795885355494
 20
-101.0355318269289
 30
1913.0
 10
84.6562774415764
 20
-100.87538565019993
 30
1913.0
 10
84.79075773948499
 20
-100.7120432081258
 30
1913.0
 10
85.16387442266964
 20
-100.23783704398318
 30
1913.0
 10
85.39352187051975
 20
-99.91999214047809
 30
1913.0
 10
85.61171840008453
 20
-99.59393782588778
 30
1913.0
 10
85.81949728777322
 20
-99.26106953196712
 30
1913.0
 10
86.01777109173707
 20
-98.92251438883666
 30
1913.0
 10
86.20736457380461
 20
-98.57915218266768
 30
1913.0
 10
86.38903590983429
 20
-98.2316286661016
 30
1913.0
 10
86.73661496121909
 20
-97.53175471832293
 30
1913.0
 10
86.90257542994848
 20
-97.17957510050525
 30
1913.0
 10
87.06201639910087
 20
-96.8243245724456
 30
1913.0
 10
87.21548108820032
 20
-96.46641928936681
 30
1913.0
 10
87.36343605348266
 20
-96.10620207602267
 30
1913.0
 10
87.50629215253709
 20
-95.74395159258631
 30
1913.0
 10
87.64441755197464
 20
-95.37988794762249
 30
1913.0
 10
87.85160808104912
 20
-94.81326105605069
 30
1913.0
 10
87.92374541440229
 20
-94.61185652281105
 30
1913.0
 10
87.99460478215777
 20
-94.40999121928445
 30
1913.0
 10
88.06423466132135
 20
-94.20769321803778
 30
1913.0
 10
88.1326820019298
 20
-94.0049886033461
 30
1913.0
 10
88.19999222705098
 20
-93.8019014711925
 30
1913.0
 10
88.2662092327837
 20
-93.59845392926808
 30
1913.0
 10
88.40829805468896
 20
-93.15411326195579
 30
1913.0
 10
88.48493450719896
 20
-92.90943311897104
 30
1913.0
 10
88.56128235011967
 20
-92.66067167552346
 30
1913.0
 10
88.63733918778513
 20
-92.40787493913517
 30
1913.0
 10
88.7131026245316
 20
-92.15108891734477
 30
1913.0
 10
88.78857026469744
 20
-91.89035961770733
 30
1913.0
 10
88.86373971262326
 20
-91.62573304779453
 30
1913.0
 10
89.12101272163561
 20
-90.70315856462858
 30
1913.0
 10
89.29584881355728
 20
-90.0469436360914
 30
1913.0
 10
89.4640740275205
 20
-89.38896259223978
 30
1913.0
 10
89.6263940657125
 20
-88.72948197678411
 30
1913.0
 10
89.78337224196972
 20
-88.06871029266158
 30
1913.0
 10
89.93547652566295
 20
-87.40680977664886
 30
1913.0
 10
90.08309816747199
 20
-86.74390103936972
 30
1913.0
 10
90.3928117801122
 20
-85.31093812406498
 30
1912.9999999999998
 10
90.55347889400618
 20
-84.54059557786067
 30
1913.0
 10
90.70909656319799
 20
-83.7691957422333
 30
1913.0
 10
90.8600818622524
 20
-82.9968639019787
 30
1913.0
 10
91.00677925500628
 20
-82.22370248439822
 30
1913.0
 10
91.14948209293114
 20
-81.44979533817825
 30
1913.0
 10
91.28844560925567
 20
-80.67521029224707
 30
1913.0
 10
91.4238914088478
 20
-79.89999999460943
 30
1913.0
  0
LINE
  5
50
330
17
100
AcDbEntity
  8
0
100
AcDbLine
 10
81.8329032885299
 20
-102.1
 30
1913.0
 11
83.35998893604686
 21
-102.1
 31
1913.0
  0
SPLINE
  5
51
330
17
100
AcDbEntity
  8
0
100
AcDbSpline
 70
0
 71
1
 72
4
 73
2
 74
0
 40
0.0
 40
0.0
 40
1.0
 40
1.0
 10
81.8329032732439
 20
-102.92695192630896
 30
1913.0
 10
81.8329032732439
 20
-102.09999939999999
 30
1913.0
  0
SPLINE
  5
52
330
17
100
AcDbEntity
  8
0
100
AcDbSpline
 70
0
 71
8
 72
74
 73
65
 74
0
 40
0.0
 40
0.0
 40
0.0
 40
0.0
 40
0.0
 40
0.0
 40
0.0
 40
0.0
 40
0.0
 40
0.005116720656884675
 40
0.005116720656884675
 40
0.005116720656884675
 40
0.005116720656884675
 40
0.005116720656884675
 40
0.005116720656884675
 40
0.005116720656884675
 40
0.012274852046837034
 40
0.012274852046837034
 40
0.012274852046837034
 40
0.012274852046837034
 40
0.012274852046837034
 40
0.012274852046837034
 40
0.012274852046837034
 40
0.02526191469359665
 40
0.02526191469359665
 40
0.02526191469359665
 40
0.02526191469359665
 40
0.02526191469359665
 40
0.02526191469359665
 40
0.02526191469359665
 40
0.0353992015634151
 40
0.0353992015634151
 40
0.0353992015634151
 40
0.0353992015634151
 40
0.0353992015634151
 40
0.0353992015634151
 40
0.0353992015634151
 40
0.040467337746163026
 40
0.040467337746163026
 40
0.040467337746163026
 40
0.040467337746163026
 40
0.040467337746163026
 40
0.040467337746163026
 40
0.040467337746163026
 40
0.043163118622137724
 40
0.043163118622137724
 40
0.043163118622137724
 40
0.043163118622137724
 40
0.043163118622137724
 40
0.043163118622137724
 40
0.043163118622137724
 40
0.04584413161662338
 40
0.04584413161662338
 40
0.04584413161662338
 40
0.04584413161662338
 40
0.04584413161662338
 40
0.04584413161662338
 40
0.04584413161662338
 40
0.056972700583622346
 40
0.056972700583622346
 40
0.056972700583622346
 40
0.056972700583622346
 40
0.056972700583622346
 40
0.056972700583622346
 40
0.056972700583622346
 40
0.05724818476117682
 40
0.05724818476117682
 40
0.05724818476117682
 40
0.05724818476117682
 40
0.05724818476117682
 40
0.05724818476117682
 40
0.05724818476117682
 40
0.05724818476117682
 40
0.05724818476117682
 10
70.95568594366115
 20
-98.6459742530546
 30
1913.0
 10
71.00341929543742
 20
-98.77493570205986
 30
1913.0
 10
71.0620953221518
 20
-98.89982987498477
 30
1913.0
 10
71.12905543985508
 20
-99.02095696139685
 30
1913.0
 10
71.20259487717195
 20
-99.13839968320765
 30
1913.0
 10
71.28136969609888
 20
-99.25233297817678
 30
1913.0
 10
71.36447378174441
 20
-99.36298722989103
 30
1913.0
 10
71.45131192995012
 20
-99.47070562467721
 30
1913.0
 10
71.6679831290647
 20
-99.72314072771402
 30
1913.0
 10
71.80072619714342
 20
-99.86498430370388
 30
1913.0
 10
71.93858664842254
 20
-100.00215502608353
 30
1913.0
 10
72.08072305275454
 20
-100.13504435519697
 30
1913.0
 10
72.2265068572566
 20
-100.26395374002334
 30
1913.0
 10
72.37546626284629
 20
-100.38915080561308
 30
1913.0
 10
72.5272894736606
 20
-100.51086689666681
 30
1913.0
 10
72.962085257136
 20
-100.84426383889986
 30
1913.0
 10
73.25087157194282
 20
-101.048255130299
 30
1913.0
 10
73.54665462432261
 20
-101.24245289768203
 30
1913.0
 10
73.84849193255852
 20
-101.42734393982009
 30
1913.0
 10
74.1556567070342
 20
-101.60324456704252
 30
1913.0
 10
74.4676493890531
 20
-101.77028511301917
 30
1913.0
 10
74.78413069465928
 20
-101.92850026682135
 30
1913.0
 10
75.35535016121109
 20
-102.19434455790955
 30
1913.0
 10
75.60831477983739
 20
-102.30541721198935
 30
1913.0
 10
75.86370385616416
 20
-102.4109648369759
 30
1913.0
 10
76.12139866896787
 20
-102.51087091340474
 30
1913.0
 10
76.38128614988476
 20
-102.6049675672937
 30
1913.0
 10
76.64325723754737
 20
-102.69303889400001
 30
1913.0
 10
76.90720733002102
 20
-102.77481890688165
 30
1913.0
 10
77.30594128655524
 20
-102.88756295156772
 30
1913.0
 10
77.43930989830237
 20
-102.92348716264316
 30
1913.0
 10
77.57313082642389
 20
-102.9577162377373
 30
1913.0
 10
77.70738857713002
 20
-102.99020547676956
 30
1913.0
 10
77.84206600719936
 20
-103.02090598583108
 30
1913.0
 10
77.97714432397888
 20
-103.0497646771844
 30
1913.0
 10
78.11260308538387
 20
-103.07672426926358
 30
1913.0
 10
78.32066237468075
 20
-103.11502045759151
 30
1913.0
 10
78.39300575349566
 20
-103.12775995252137
 30
1913.0
 10
78.46544644506619
 20
-103.13993803309071
 30
1913.0
 10
78.53798074545556
 20
-103.15154644217274
 30
1913.0
 10
78.61060513806662
 20
-103.16257240388677
 30
1913.0
 10
78.68331629364182
 20
-103.17299862359828
 30
1913.0
 10
78.75611107026329
 20
-103.182803287919
 30
1913.0
 10
78.90146273411796
 20
-103.20106667933365
 30
1913.0
 10
78.97390665797194
 20
-103.20951994157748
 30
1913.0
 10
79.04631694701584
 20
-103.217301981734
 30
1913.0
 10
79.11869226334913
 20
-103.2243949300937
 30
1913.0
 10
79.19103126906973
 20
-103.230780916942
 30
1913.0
 10
79.26333262627395
 20
-103.23644207255902
 30
1913.0
 10
79.3355949970565
 20
-103.24136052721981
 30
1913.0
 10
79.7076022465491
 20
-103.26277729754123
 30
1913.0
 10
80.00833820701128
 20
-103.26702648915857
 30
1913.0
 10
80.30924732516003
 20
-103.25669728794367
 30
1913.0
 10
80.60935910552371
 20
-103.23031404185653
 30
1913.0
 10
80.90752708118418
 20
-103.18662773380537
 30
1913.0
 10
81.20245243009475
 20
-103.12480442873496
 30
1913.0
 10
81.49270792704141
 20
-103.04462578633924
 30
1913.0
 10
81.78378739126973
 20
-102.94423370645785
 30
1913.0
 10
81.7908152118206
 20
-102.94179762832304
 30
1913.0
 10
81.79783931387797
 20
-102.93935062009604
 30
1913.0
 10
81.80485967500198
 20
-102.93689268966395
 30
1913.0
 10
81.81187627294804
 20
-102.93442384511758
 30
1913.0
 10
81.81888908566573
 20
-102.93194409474955
 30
1913.0
 10
81.82589809129776
 20
-102.92945344705262
 30
1913.0
 10
81.8329032681789
 20
-102.92695191071778
 30
1913.0
  0
SPLINE
  5
53
330
17
100
AcDbEntity
  8
0
100
AcDbSpline
 70
0
 71
8
 72
354
 73
345
 74
0
 40
0.0
 40
0.0
 40
0.0
 40
0.0
 40
0.0
 40
0.0
 40
0.0
 40
0.0
 40
0.0
 40
0.0008107572065387599
 40
0.0008107572065387599
 40
0.0008107572065387599
 40
0.0008107572065387599
 40
0.0008107572065387599
 40
0.0008107572065387599
 40
0.0008107572065387599
 40
0.002750850502940983
 40
0.002750850502940983
 40
0.002750850502940983
 40
0.002750850502940983
 40
0.002750850502940983
 40
0.002750850502940983
 40
0.002750850502940983
 40
0.004950775600655006
 40
0.004950775600655006
 40
0.004950775600655006
 40
0.004950775600655006
 40
0.004950775600655006
 40
0.004950775600655006
 40
0.004950775600655006
 40
0.008724413773287754
 40
0.008724413773287754
 40
0.008724413773287754
 40
0.008724413773287754
 40
0.008724413773287754
 40
0.008724413773287754
 40
0.008724413773287754
 40
0.015790479117957376
 40
0.015790479117957376
 40
0.015790479117957376
 40
0.015790479117957376
 40
0.015790479117957376
 40
0.015790479117957376
 40
0.015790479117957376
 40
0.02923092949883098
 40
0.02923092949883098
 40
0.02923092949883098
 40
0.02923092949883098
 40
0.02923092949883098
 40
0.02923092949883098
 40
0.02923092949883098
 40
0.05495505261946435
 40
0.05495505261946435
 40
0.05495505261946435
 40
0.05495505261946435
 40
0.05495505261946435
 40
0.05495505261946435
 40
0.05495505261946435
 40
0.07219686802006448
 40
0.07219686802006448
 40
0.07219686802006448
 40
0.07219686802006448
 40
0.07219686802006448
 40
0.07219686802006448
 40
0.07219686802006448
 40
0.08943416406058148
 40
0.08943416406058148
 40
0.08943416406058148
 40
0.08943416406058148
 40
0.08943416406058148
 40
0.08943416406058148
 40
0.08943416406058148
 40
0.13641702330344402
 40
0.13641702330344402
 40
0.13641702330344402
 40
0.13641702330344402
 40
0.13641702330344402
 40
0.13641702330344402
 40
0.13641702330344402
 40
0.21271589115072334
 40
0.21271589115072334
 40
0.21271589115072334
 40
0.21271589115072334
 40
0.21271589115072334
 40
0.21271589115072334
 40
0.21271589115072334
 40
0.3553454565851695
 40
0.3553454565851695
 40
0.3553454565851695
 40
0.3553454565851695
 40
0.3553454565851695
 40
0.3553454565851695
 40
0.3553454565851695
 40
0.4630935355227832
 40
0.4630935355227832
 40
0.4630935355227832
 40
0.4630935355227832
 40
0.4630935355227832
 40
0.4630935355227832
 40
0.4630935355227832
 40
0.540262339550662
 40
0.540262339550662
 40
0.540262339550662
 40
0.540262339550662
 40
0.540262339550662
 40
0.540262339550662
 40
0.540262339550662
 40
0.5897051873868205
 40
0.5897051873868205
 40
0.5897051873868205
 40
0.5897051873868205
 40
0.5897051873868205
 40
0.5897051873868205
 40
0.5897051873868205
 40
0.6072067561992379
 40
0.6072067561992379
 40
0.6072067561992379
 40
0.6072067561992379
 40
0.6072067561992379
 40
0.6072067561992379
 40
0.6072067561992379
 40
0.6247120772297923
 40
0.6247120772297923
 40
0.6247120772297923
 40
0.6247120772297923
 40
0.6247120772297923
 40
0.6247120772297923
 40
0.6247120772297923
 40
0.6518171511836263
 40
0.6518171511836263
 40
0.6518171511836263
 40
0.6518171511836263
 40
0.6518171511836263
 40
0.6518171511836263
 40
0.6518171511836263
 40
0.6652357288494457
 40
0.6652357288494457
 40
0.6652357288494457
 40
0.6652357288494457
 40
0.6652357288494457
 40
0.6652357288494457
 40
0.6652357288494457
 40
0.6715399557164121
 40
0.6715399557164121
 40
0.6715399557164121
 40
0.6715399557164121
 40
0.6715399557164121
 40
0.6715399557164121
 40
0.6715399557164121
 40
0.6758476577320023
 40
0.6758476577320023
 40
0.6758476577320023
 40
0.6758476577320023
 40
0.6758476577320023
 40
0.6758476577320023
 40
0.6758476577320023
 40
0.6781508546553224
 40
0.6781508546553224
 40
0.6781508546553224
 40
0.6781508546553224
 40
0.6781508546553224
 40
0.6781508546553224
 40
0.6781508546553224
 40
0.6794748417334288
 40
0.6794748417334288
 40
0.6794748417334288
 40
0.6794748417334288
 40
0.6794748417334288
 40
0.6794748417334288
 40
0.6794748417334288
 40
0.6815401882436586
 40
0.6815401882436586
 40
0.6815401882436586
 40
0.6815401882436586
 40
0.6815401882436586
 40
0.6815401882436586
 40
0.6815401882436586
 40
0.6826191086261549
 40
0.6826191086261549
 40
0.6826191086261549
 40
0.6826191086261549
 40
0.6826191086261549
 40
0.6826191086261549
 40
0.6826191086261549
 40
0.6843000795445698
 40
0.6843000795445698
 40
0.6843000795445698
 40
0.6843000795445698
 40
0.6843000795445698
 40
0.6843000795445698
 40
0.6843000795445698
 40
0.6858300949665969
 40
0.6858300949665969
 40
0.6858300949665969
 40
0.6858300949665969
 40
0.6858300949665969
 40
0.6858300949665969
 40
0.6858300949665969
 40
0.6875301121021776
 40
0.6875301121021776
 40
0.6875301121021776
 40
0.6875301121021776
 40
0.6875301121021776
 40
0.6875301121021776
 40
0.6875301121021776
 40
0.6908124771099095
 40
0.6908124771099095
 40
0.6908124771099095
 40
0.6908124771099095
 40
0.6908124771099095
 40
0.6908124771099095
 40
0.6908124771099095
 40
0.6970558950923255
 40
0.6970558950923255
 40
0.6970558950923255
 40
0.6970558950923255
 40
0.6970558950923255
 40
0.6970558950923255
 40
0.6970558950923255
 40
0.7090053727112335
 40
0.7090053727112335
 40
0.7090053727112335
 40
0.7090053727112335
 40
0.7090053727112335
 40
0.7090053727112335
 40
0.7090053727112335
 40
0.717014612048228
 40
0.717014612048228
 40
0.717014612048228
 40
0.717014612048228
 40
0.717014612048228
 40
0.717014612048228
 40
0.717014612048228
 40
0.7250217522293976
 40
0.7250217522293976
 40
0.7250217522293976
 40
0.7250217522293976
 40
0.7250217522293976
 40
0.7250217522293976
 40
0.7250217522293976
 40
0.7468465206929291
 40
0.7468465206929291
 40
0.7468465206929291
 40
0.7468465206929291
 40
0.7468465206929291
 40
0.7468465206929291
 40
0.7468465206929291
 40
0.7822899374508111
 40
0.7822899374508111
 40
0.7822899374508111
 40
0.7822899374508111
 40
0.7822899374508111
 40
0.7822899374508111
 40
0.7822899374508111
 40
0.8485490578987461
 40
0.8485490578987461
 40
0.8485490578987461
 40
0.8485490578987461
 40
0.8485490578987461
 40
0.8485490578987461
 40
0.8485490578987461
 40
0.8986069423873977
 40
0.8986069423873977
 40
0.8986069423873977
 40
0.8986069423873977
 40
0.8986069423873977
 40
0.8986069423873977
 40
0.8986069423873977
 40
0.934459486305635
 40
0.934459486305635
 40
0.934459486305635
 40
0.934459486305635
 40
0.934459486305635
 40
0.934459486305635
 40
0.934459486305635
 40
0.9574309843218937
 40
0.9574309843218937
 40
0.9574309843218937
 40
0.9574309843218937
 40
0.9574309843218937
 40
0.9574309843218937
 40
0.9574309843218937
 40
0.9655623768389382
 40
0.9655623768389382
 40
0.9655623768389382
 40
0.9655623768389382
 40
0.9655623768389382
 40
0.9655623768389382
 40
0.9655623768389382
 40
0.9736955128338627
 40
0.9736955128338627
 40
0.9736955128338627
 40
0.9736955128338627
 40
0.9736955128338627
 40
0.9736955128338627
 40
0.9736955128338627
 40
0.986288782142946
 40
0.986288782142946
 40
0.986288782142946
 40
0.986288782142946
 40
0.986288782142946
 40
0.986288782142946
 40
0.986288782142946
 40
0.9925231744817221
 40
0.9925231744817221
 40
0.9925231744817221
 40
0.9925231744817221
 40
0.9925231744817221
 40
0.9925231744817221
 40
0.9925231744817221
 40
0.9954521714234554
 40
0.9954521714234554
 40
0.9954521714234554
 40
0.9954521714234554
 40
0.9954521714234554
 40
0.9954521714234554
 40
0.9954521714234554
 40
0.9974535592694339
 40
0.9974535592694339
 40
0.9974535592694339
 40
0.9974535592694339
 40
0.9974535592694339
 40
0.9974535592694339
 40
0.9974535592694339
 40
0.9985236281572054
 40
0.9985236281572054
 40
0.9985236281572054
 40
0.9985236281572054
 40
0.9985236281572054
 40
0.9985236281572054
 40
0.9985236281572054
 40
0.9991387340339131
 40
0.9991387340339131
 40
0.9991387340339131
 40
0.9991387340339131
 40
0.9991387340339131
 40
0.9991387340339131
 40
0.9991387340339131
 40
0.9994442780658482
 40
0.9994442780658482
 40
0.9994442780658482
 40
0.9994442780658482
 40
0.9994442780658482
 40
0.9994442780658482
 40
0.9994442780658482
 40
1.0
 40
1.0
 40
1.0
 40
1.0
 40
1.0
 40
1.0
 40
1.0
 40
1.0
 40
1.0
 10
70.95568594366118
 20
98.64597425305456
 30
1913.0
 10
70.95559633454666
 20
98.64607448387216
 30
1913.0
 10
70.95561554776285
 20
98.64595009294698
 30
1913.0
 10
70.9556731707585
 20
98.64580078165397
 30
1913.0
 10
70.95572182667472
 20
98.64572505263646
 30
1913.0
 10
70.95573717434509
 20
98.64572020980644
 30
1913.0
 10
70.95571790829555
 20
98.64568235834435
 30
1913.0
 10
70.95568575874445
 20
98.6454064046991
 30
1913.0
 10
70.95568485234813
 20
98.64262301283361
 30
1913.0
 10
70.95568351543268
 20
98.63851756852014
 30
1913.0
 10
70.95568104911302
 20
98.63094391253196
 30
1913.0
 10
70.95567713593717
 20
98.61892720228724
 30
1913.0
 10
70.95567204169974
 20
98.60328364935219
 30
1913.0
 10
70.95566604104347
 20
98.58485663504217
 30
1913.0
 10
70.95565951192333
 20
98.56480679664614
 30
1913.0
 10
70.95564524861157
 20
98.5210065462037
 30
1913.0
 10
70.95563720615934
 20
98.49630951733008
 30
1913.0
 10
70.95562886328648
 20
98.47068994703861
 30
1913.0
 10
70.95562031900903
 20
98.4444518965957
 30
1913.0
 10
70.95561163934633
 20
98.41779810068535
 30
1913.0
 10
70.95560286390366
 20
98.39085018078856
 30
1913.0
 10
70.95559400444861
 20
98.36364427249636
 30
1913.0
 10
70.95556969452076
 20
98.28899254049705
 30
1913.0
 10
70.9555541388286
 20
98.24122360561805
 30
1913.0
 10
70.95553845342698
 20
98.19305635454953
 30
1913.0
 10
70.95552267661503
 20
98.14460839751547
 30
1913.0
 10
70.95550683421595
 20
98.09595903336704
 30
1913.0
 10
70.9554909426717
 20
98.0471587527512
 30
1913.0
 10
70.95547500755087
 20
97.99822465570665
 30
1913.0
 10
70.95542910616972
 20
97.85726917336565
 30
1913.0
 10
70.95539906098465
 20
97.76500542343655
 30
1913.0
 10
70.95536893322665
 20
97.67248810585176
 30
1913.0
 10
70.9553387460863
 20
97.57978843486555
 30
1913.0
 10
70.95530851527722
 20
97.48695466468033
 30
1913.0
 10
70.95527825099616
 20
97.39401810749962
 30
1913.0
 10
70.95524795724366
 20
97.3009910484186
 30
1913.0
 10
70.95515995627909
 20
97.03075477028553
 30
1913.0
 10
70.95510219132655
 20
96.85336823983025
 30
1913.0
 10
70.95504436724198
 20
96.67580012468648
 30
1913.0
 10
70.95498650015155
 20
96.49809994578851
 30
1913.0
 10
70.95492860103134
 20
96.32030140888722
 30
1913.0
 10
70.95487067707715
 20
96.14242661098301
 30
1913.0
 10
70.95481273135022
 20
95.96448495253392
 30
1913.0
 10
70.95464381911826
 20
95.44578367323457
 30
1913.0
 10
70.95453280847569
 20
95.10488851350004
 30
1913.0
 10
70.95442175295345
 20
94.76385553549167
 30
1913.0
 10
70.95431066459619
 20
94.42272172703255
 30
1913.0
 10
70.95419955162649
 20
94.08151233780467
 30
1913.0
 10
70.95408841946465
 20
93.74024401227724
 30
1913.0
 10
70.95397727051083
 20
93.39892412186569
 30
1913.0
 10
70.9537915956737
 20
92.82874767919328
 30
1913.0
 10
70.95371476186271
 20
92.59280386624809
 30
1913.0
 10
70.95363556146138
 20
92.34959264942191
 30
1913.0
 10
70.95355395217493
 20
92.09898414822305
 30
1913.0
 10
70.95346989170844
 20
91.84084848215969
 30
1913.0
 10
70.95338333776704
 20
91.57505577074005
 30
1913.0
 10
70.95329424805588
 20
91.30147613347229
 30
1913.0
 10
70.95311093653187
 20
90.7385570310503
 30
1913.0
 10
70.95301666283392
 20
90.44906230892963
 30
1913.0
 10
70.95291977500199
 20
90.15147927877359
 30
1913.0
 10
70.95282016791153
 20
89.84583797009873
 30
1913.0
 10
70.95271813916374
 20
89.53222058612243
 30
1913.0
 10
70.95261358559114
 20
89.21075260065206
 30
1913.0
 10
70.95250670017201
 20
88.88161050536786
 30
1913.0
 10
70.9521001120385
 20
87.62758154513423
 30
1913.0
 10
70.9518039200074
 20
86.71007586085236
 30
1913.0
 10
70.95150955848534
 20
85.79252095102899
 30
1913.0
 10
70.95121732077415
 20
84.87492856241909
 30
1913.0
 10
70.95092742447693
 20
83.95730685789934
 30
1913.0
 10
70.95064005172433
 20
83.03966152355923
 30
1913.0
 10
70.95035533719158
 20
82.12199547669093
 30
1913.0
 10
70.94961556531273
 20
79.71401422176919
 30
1913.0
 10
70.94916507018006
 20
78.22367229828625
 30
1913.0
 10
70.94872245730485
 20
76.73329598917768
 30
1913.0
 10
70.9482881426388
 20
75.2428927324257
 30
1913.0
 10
70.94786251790273
 20
73.75246791655266
 30
1913.0
 10
70.9474459776203
 20
72.2620255173685
 30
1913.0
 10
70.94703892250435
 20
70.77156814271382
 30
1913.0
 10
70.94589938614413
 20
66.49488073580258
 30
1913.0
 10
70.94519123766398
 20
63.70862031497052
 30
1913.0
 10
70.94452306785546
 20
60.92233041336871
 30
1913.0
 10
70.94388795102994
 20
58.136020120442936
 30
1913.0
 10
70.9433106538448
 20
55.34969678858084
 30
1913.0
 10
70.94276532412475
 20
52.56336626830151
 30
1913.0
 10
70.94228854735888
 20
49.777033732294115
 30
1913.0
 10
70.94154383464716
 20
44.885799278580706
 30
1913.0
 10
70.94125380221413
 20
42.78089661912355
 30
1913.0
 10
70.94099176125047
 20
40.67599833842673
 30
1913.0
 10
70.94075566800036
 20
38.571106956430945
 30
1913.0
 10
70.94054378686486
 20
36.46622534156737
 30
1913.0
 10
70.94035460681044
 20
34.36135690767272
 30
1913.0
 10
70.94018677971528
 20
32.25650598326735
 30
1913.0
 10
70.93993329909236
 20
28.64420803447735
 30
1913.0
 10
70.93983784169384
 20
27.136750303563083
 30
1913.0
 10
70.93975225592511
 20
25.629306822157403
 30
1913.0
 10
70.93967612200062
 20
24.12188009868302
 30
1913.0
 10
70.93960903214551
 20
22.61447387634727
 30
1913.0
 10
70.93955058588155
 20
21.107093196040886
 30
1913.0
 10
70.9395003651857
 20
19.599744972011422
 30
1913.0
 10
70.93943061561774
 20
17.126694040051483
 30
1913.0
 10
70.93940654306076
 20
16.160967850678684
 30
1913.0
 10
70.93938549550155
 20
15.195262702308566
 30
1913.0
 10
70.93936732807653
 20
14.229581550512819
 30
1913.0
 10
70.93935184705948
 20
13.263930259596163
 30
1913.0
 10
70.93933882381653
 20
12.298317266282293
 30
1913.0
 10
70.93932795283072
 20
11.332754734419991
 30
1913.0
 10
70.93931534309257
 20
10.02550415104616
 30
1913.0
 10
70.93931231175968
 20
9.691176909778338
 30
1913.0
 10
70.93930951425317
 20
9.364441760867027
 30
1913.0
 10
70.93930688975229
 20
9.045443704468823
 30
1913.0
 10
70.93930442094779
 20
8.73431277166061
 30
1913.0
 10
70.93930206977579
 20
8.431164738241133
 30
1913.0
 10
70.93929974824306
 20
8.136101453962166
 30
1913.0
 10
70.93929524442323
 20
7.562254779950556
 30
1913.0
 10
70.93929305521122
 20
7.283293501858731
 30
1913.0
 10
70.9392909279125
 20
7.012195168146252
 30
1913.0
 10
70.93928886150097
 20
6.748829910362464
 30
1913.0
 10
70.93928685495067
 20
6.493067860056661
 30
1913.0
 10
70.93928490723552
 20
6.244779148778112
 30
1913.0
 10
70.93928301732953
 20
6.0038339080760466
 30
1913.0
 10
70.93927834581656
 20
5.408194405147649
 30
1913.0
 10
70.93927550834451
 20
5.046340075153278
 30
1913.0
 10
70.93927267185154
 20
4.684539836201939
 30
1913.0
 10
70.9392698364606
 20
4.322801048092245
 30
1913.0
 10
70.93926700240513
 20
3.961141986201847
 30
1913.0
 10
70.93926417001808
 20
3.5995907059852783
 30
1913.0
 10
70.93926133977877
 20
3.238188654514577
 30
1913.0
 10
70.9392571128874
 20
2.698204239012096
 30
1913.0
 10
70.93925571405686
 20
2.5194646483614775
 30
1913.0
 10
70.9392543160886
 20
2.34079155123643
 30
1913.0
 10
70.939252919096
 20
2.1621943216348427
 30
1913.0
 10
70.9392515233047
 20
1.9836948762744022
 30
1913.0
 10
70.93925012904384
 20
1.8053266227648557
 30
1913.0
 10
70.93924873678971
 20
1.6271386208395224
 30
1913.0
 10
70.93924669459575
 20
1.3656251216691988
 30
1913.0
 10
70.93924604251043
 20
1.2821007314087431
 30
1913.0
 10
70.93924539115775
 20
1.198646535143304
 30
1913.0
 10
70.93924474064232
 20
1.115273320821089
 30
1913.0
 10
70.93924409114582
 20
1.032001122797837
 30
1913.0
 10
70.93924344292861
 20
0.9488592493068175
 30
1913.0
 10
70.9392427963583
 20
0.8658893463669433
 30
1913.0
 10
70.93924171172661
 20
0.7266256453146802
 30
1913.0
 10
70.9392412727454
 20
0.6702393108313096
 30
1913.0
 10
70.93924083503008
 20
0.6139903642484672
 30
1913.0
 10
70.9392403987189
 20
0.5578933804447388
 30
1913.0
 10
70.93923996427715
 20
0.5020034754593805
 30
1913.0
 10
70.93923953243441
 20
0.4464085461391818
 30
1913.0
 10
70.9392391042762
 20
0.391240167403776
 30
1913.0
 10
70.93923845600445
 20
0.3076125721649916
 30
1913.0
 10
70.93923823237928
 20
0.2787463230828031
 30
1913.0
 10
70.93923801079288
 20
0.2501224553018382
 30
1913.0
 10
70.93923779150853
 20
0.22177183568449266
 30
1913.0
 10
70.93923757542923
 20
0.19380706762557942
 30
1913.0
 10
70.93923736404288
 20
0.16641513846080613
 30
1913.0
 10
70.93923715957541
 20
0.13987681866451673
 30
1913.0
 10
70.93923685441115
 20
0.10018161135016967
 30
1913.0
 10
70.93923674659052
 20
0.08613720336487063
 30
1913.0
 10
70.93923664316883
 20
0.07264338913645929
 30
1913.0
 10
70.93923654550439
 20
0.05987450030968944
 30
1913.0
 10
70.93923645540445
 20
0.04806331270342312
 30
1913.0
 10
70.93923637504278
 20
0.03749185314593717
 30
1913.0
 10
70.93923630651054
 20
0.02843529047870952
 30
1913.0
 10
70.93923616347358
 20
0.009429111589014383
 30
1913.0
 10
70.9392361100623
 20
0.0020499804860492077
 30
1913.0
 10
70.93923608427669
 20
-0.0010402892564798094
 30
1913.0
 10
70.93923608764844
 20
-0.0010509133375364854
 30
1913.0
 10
70.93923611232185
 20
0.00017255388763715018
 30
1913.0
 10
70.93923608434147
 20
0.0010238780411668813
 30
1913.0
 10
70.9392360941951
 20
0.00012817237298179407
 30
1913.0
 10
70.9392361408346
 20
-0.006301086360481989
 30
1913.0
 10
70.93923616360718
 20
-0.009399954795917154
 30
1913.0
 10
70.93923619452471
 20
-0.013562794829072189
 30
1913.0
 10
70.93923623444141
 20
-0.018892487788093604
 30
1913.0
 10
70.93923628338003
 20
-0.0253855707392443
 30
1913.0
 10
70.93923634063876
 20
-0.03294666950280245
 30
1913.0
 10
70.93923640503621
 20
-0.041419983351868694
 30
1913.0
 10
70.93923658404405
 20
-0.0649088346786062
 30
1913.0
 10
70.93923670697684
 20
-0.08098315334429174
 30
1913.0
 10
70.93923684032399
 20
-0.09837156456007357
 30
1913.0
 10
70.93923698097908
 20
-0.11667532674815106
 30
1913.0
 10
70.93923712672225
 20
-0.13561096192149158
 30
1913.0
 10
70.9392372761612
 20
-0.15500159269908664
 30
1913.0
 10
70.93923742855253
 20
-0.17475416432007407
 30
1913.0
 10
70.93923772538561
 20
-0.21319326304031708
 30
1913.0
 10
70.93923787707011
 20
-0.2328208568787044
 30
1913.0
 10
70.93923803943281
 20
-0.2538148365330254
 30
1913.0
 10
70.93923821290652
 20
-0.2762299902558988
 30
1913.0
 10
70.9392383979241
 20
-0.30012110629995853
 30
1913.0
 10
70.93923859491842
 20
-0.32554297291785467
 30
1913.0
 10
70.93923880432234
 20
-0.35255037836225256
 30
1913.0
 10
70.93923927350914
 20
-0.4130289248008338
 30
1913.0
 10
70.93923953630441
 20
-0.4468848338753508
 30
1913.0
 10
70.93923981554835
 20
-0.4828409934627425
 30
1913.0
 10
70.9392401118347
 20
-0.5209725589163897
 30
1913.0
 10
70.9392404257572
 20
-0.5613546855896955
 30
1913.0
 10
70.93924075790964
 20
-0.6040625288360847
 30
1913.0
 10
70.93924110888577
 20
-0.6491712440090041
 30
1913.0
 10
70.93924219442923
 20
-0.7886318212758034
 30
1913.0
 10
70.9392429130696
 20
-0.8808869454181512
 30
1913.0
 10
70.93924363410417
 20
-0.9733956592288813
 30
1913.0
 10
70.9392443569118
 20
-1.0660867425969656
 30
1913.0
 10
70.93924508106736
 20
-1.158911937318459
 30
1913.0
 10
70.93924580628772
 20
-1.251839928555107
 30
1913.0
 10
70.93924653244935
 20
-1.3448584298716817
 30
1913.0
 10
70.93924864250064
 20
-1.6150696361216568
 30
1913.0
 10
70.93925002832582
 20
-1.7924396682421566
 30
1913.0
 10
70.93925141616853
 20
-1.9699913015188173
 30
1913.0
 10
70.93925280554855
 20
-2.147675010531003
 30
1913.0
 10
70.93925419613424
 20
-2.325457086585338
 30
1913.0
 10
70.93925558769857
 20
-2.503315430754455
 30
1913.0
 10
70.93925698012782
 20
-2.681240641553691
 30
1913.0
 10
70.93926103996446
 20
-3.199893816135768
 30
1913.0
 10
70.9392637092517
 20
-3.5407573310866916
 30
1913.0
 10
70.93926638050877
 20
-3.8817586770928134
 30
1913.0
 10
70.93926905330993
 20
-4.2228608627121105
 30
1913.0
 10
70.93927172735665
 20
-4.5640386360966865
 30
1913.0
 10
70.93927440243812
 20
-4.905275351370285
 30
1913.0
 10
70.93927707843784
 20
-5.2465636361375285
 30
1913.0
 10
70.93928154948024
 20
-5.8166872655147595
 30
1913.0
 10
70.93928339984296
 20
-6.052609204381952
 30
1913.0
 10
70.93928530740854
 20
-6.295797873377544
 30
1913.0
 10
70.93928727320305
 20
-6.546383140952187
 30
1913.0
 10
70.93928929825243
 20
-6.80449487555657
 30
1913.0
 10
70.93929138358278
 20
-7.070262945641414
 30
1913.0
 10
70.93929353022011
 20
-7.343817219657474
 30
1913.0
 10
70.93929794758179
 20
-7.906684141388425
 30
1913.0
 10
70.93930021819784
 20
-8.196152017133429
 30
1913.0
 10
70.93930257227647
 20
-8.493707447368138
 30
1913.0
 10
70.93930489470152
 20
-8.799320419895878
 30
1913.0
 10
70.93930745562614
 20
-9.112908759050868
 30
1913.0
 10
70.93931011006781
 20
-9.434347025971263
 30
1913.0
 10
70.93931299213178
 20
-9.763458774085663
 30
1913.0
 10
70.93932461805193
 20
-11.017376563106984
 30
1913.0
 10
70.93933441219787
 20
-11.934802006290187
 30
1913.0
 10
70.93934605438903
 20
-12.852276680342342
 30
1913.0
 10
70.93935983385757
 20
-13.769788837017138
 30
1913.0
 10
70.93937596536864
 20
-14.687330312528509
 30
1913.0
 10
70.93939462906003
 20
-15.604895420160656
 30
1913.0
 10
70.93941595856018
 20
-16.522481242125508
 30
1913.0
 10
70.93947925700914
 20
-18.930276993033218
 30
1913.0
 10
70.93952579833196
 20
-20.420513641068123
 30
1913.0
 10
70.93958023498384
 20
-21.910784678229703
 30
1913.0
 10
70.93964298023603
 20
-23.401082665220763
 30
1913.0
 10
70.9397144238327
 20
-24.89140221265371
 30
1913.0
 10
70.93979495879772
 20
-26.381739344119786
 30
1913.0
 10
70.93988498480059
 20
-27.87209145134495
 30
1913.0
 10
70.94017177266133
 20
-32.14859625969676
 30
1913.0
 10
70.94039288218389
 20
-34.93477935338005
 30
1913.0
 10
70.94065398431641
 20
-37.7209919257604
 30
1913.0
 10
70.9409481510015
 20
-40.50722489027642
 30
1913.0
 10
70.94130014214261
 20
-43.29347088480887
 30
1913.0
 10
70.94168410610418
 20
-46.07972406692272
 30
1913.0
 10
70.94213662080101
 20
-48.86597925615955
 30
1913.0
 10
70.9430232374194
 20
-53.75720805302781
 30
1913.0
 10
70.94343524886743
 20
-55.86218240334857
 30
1913.0
 10
70.9438752504234
 20
-57.967152372138884
 30
1913.0
 10
70.94434119666549
 20
-60.072115439795596
 30
1913.0
 10
70.94483135041087
 20
-62.17706873841489
 30
1913.0
 10
70.94534419897646
 20
-64.28200885488799
 30
1913.0
 10
70.94587839235258
 20
-66.38693146171106
 30
1913.0
 10
70.94682971281905
 20
-69.99940537364282
 30
1913.0
 10
70.94723704165061
 20
-71.50696738395425
 30
1913.0
 10
70.94765423650226
 20
-73.01451514494883
 30
1913.0
 10
70.9480808765721
 20
-74.52204614855609
 30
1913.0
 10
70.94851655266044
 20
-76.0295566521941
 30
1913.0
 10
70.94896086242763
 20
-77.53704161582812
 30
1913.0
 10
70.94941338534714
 20
-79.04449412635805
 30
1913.0
 10
70.95016847094891
 20
-81.51773314513595
 30
1913.0
 10
70.95046649897392
 20
-82.48354313146612
 30
1913.0
 10
70.95076754426039
 20
-83.44933207867291
 30
1913.0
 10
70.95107146087936
 20
-84.41509703153761
 30
1913.0
 10
70.95137805304537
 20
-85.38083212646686
 30
1913.0
 10
70.95168708918759
 20
-86.3465289277753
 30
1913.0
 10
70.95199825957066
 20
-87.31217527307248
 30
1913.0
 10
70.95242165200297
 20
-88.61954100597347
 30
1913.0
 10
70.95253012776823
 20
-88.95389901042446
 30
1913.0
 10
70.9526363050379
 20
-89.28066431602366
 30
1913.0
 10
70.95274007461893
 20
-89.59969188359035
 30
1913.0
 10
70.95284137583
 20
-89.91085164590075
 30
1913.0
 10
70.95294013198685
 20
-90.2140277937101
 30
1913.0
 10
70.95303622111282
 20
-90.50911844632608
 30
1913.0
 10
70.95322310846493
 20
-91.08301832020803
 30
1913.0
 10
70.95331395910064
 20
-91.3620054628751
 30
1913.0
 10
70.95340224897411
 20
-91.63312893213072
 30
1913.0
 10
70.95348802038026
 20
-91.8965186084667
 30
1913.0
 10
70.953571315614
 20
-92.15230437237484
 30
1913.0
 10
70.95365217697015
 20
-92.4006161043469
 30
1913.0
 10
70.95373064674357
 20
-92.64158368487465
 30
1913.0
 10
70.95392463145465
 20
-93.23727836383162
 30
1913.0
 10
70.9540424782486
 20
-93.59916620377626
 30
1913.0
 10
70.95416030742967
 20
-93.9609999576974
 30
1913.0
 10
70.95427811660156
 20
-94.32277226645333
 30
1913.0
 10
70.95439589981339
 20
-94.6844648563644
 30
1913.0
 10
70.95451364792986
 20
-95.04604967455684
 30
1913.0
 10
70.9546313474554
 20
-95.40748527768362
 30
1913.0
 10
70.95480720673554
 20
-95.94751978265633
 30
1913.0
 10
70.95486541768544
 20
-96.12627589673261
 30
1913.0
 10
70.95492360698421
 20
-96.30496552344464
 30
1913.0
 10
70.95498177157933
 20
-96.4835792896165
 30
1913.0
 10
70.95503990433446
 20
-96.66209528052327
 30
1913.0
 10
70.95509799437167
 20
-96.84048009157208
 30
1913.0
 10
70.95515602571612
 20
-97.01868466730278
 30
1913.0
 10
70.95524119406443
 20
-97.28022245355638
 30
1913.0
 10
70.955268395831
 20
-97.36375453945402
 30
1913.0
 10
70.95529557474111
 20
-97.44721643774037
 30
1913.0
 10
70.95532272728249
 20
-97.53059736144982
 30
1913.0
 10
70.95534984693148
 20
-97.61387727795642
 30
1913.0
 10
70.95537692414459
 20
-97.69702688149701
 30
1913.0
 10
70.9554039453614
 20
-97.78000452942439
 30
1913.0
 10
70.95544930001694
 20
-97.91928110857481
 30
1913.0
 10
70.95546766358684
 20
-97.97567256754648
 30
1913.0
 10
70.955485982421
 20
-98.03192665053461
 30
1913.0
 10
70.95550425177406
 20
-98.08802878530523
 30
1913.0
 10
70.9555224536991
 20
-98.14392385984317
 30
1913.0
 10
70.95554055957497
 20
-98.19952398347787
 30
1913.0
 10
70.95555852655798
 20
-98.25469759032573
 30
1913.0
 10
70.95558576195381
 20
-98.33833294636872
 30
1913.0
 10
70.95559516290346
 20
-98.36720169410204
 30
1913.0
 10
70.95560448492917
 20
-98.39582807934083
 30
1913.0
 10
70.95561371798271
 20
-98.42418124634366
 30
1913.0
 10
70.955622825397
 20
-98.45214859605014
 30
1913.0
 10
70.95563174628221
 20
-98.4795431456436
 30
1913.0
 10
70.95564038920786
 20
-98.5060841282938
 30
1913.0
 10
70.95565331694824
 20
-98.54578306189116
 30
1913.0
 10
70.9556578907821
 20
-98.55982854238843
 30
1913.0
 10
70.95566228533231
 20
-98.57332347294626
 30
1913.0
 10
70.9556664438284
 20
-98.5860935204866
 30
1913.0
 10
70.95567029046265
 20
-98.59790589228255
 30
1913.0
 10
70.95567373337875
 20
-98.60847851321621
 30
1913.0
 10
70.95567668294271
 20
-98.61753613192435
 30
1913.0
 10
70.95568030207356
 20
-98.62864987890643
 30
1913.0
 10
70.95568134255069
 20
-98.6318450105637
 30
1913.0
 10
70.95568223492457
 20
-98.63458534184572
 30
1913.0
 10
70.955682991727
 20
-98.63690935586118
 30
1913.0
 10
70.95568362548984
 20
-98.63885553571873
 30
1913.0
 10
70.95568414874485
 20
-98.64046236452704
 30
1913.0
 10
70.95568457402386
 20
-98.6417683253948
 30
1913.0
 10
70.95568553194853
 20
-98.64470995222693
 30
1913.0
 10
70.95573972165634
 20
-98.64478545635656
 30
1913.0
 10
70.95571509938685
 20
-98.6449005764914
 30
1913.0
 10
70.95564054554453
 20
-98.64546767476104
 30
1913.0
 10
70.95561015241097
 20
-98.64609599454333
 30
1913.0
 10
70.95568717202231
 20
-98.64623834225408
 30
1913.0
 10
70.95580796404657
 20
-98.64583776913715
 30
1913.0
 10
70.95568594366118
 20
-98.64597425305456
 30
1913.0
  0
ENDSEC
  0
SECTION
  2
OBJECTS
  0
DICTIONARY
  5
A
330
0
100
AcDbDictionary
281
1
  3
ACAD_COLOR
350
B
  3
ACAD_GROUP
350
C
  3
ACAD_LAYOUT
350
D
  3
ACAD_MATERIAL
350
E
  3
ACAD_MLEADERSTYLE
350
F
  3
ACAD_MLINESTYLE
350
10
  3
ACAD_PLOTSETTINGS
350
11
  3
ACAD_PLOTSTYLENAME
350
12
  3
ACAD_SCALELIST
350
14
  3
ACAD_TABLESTYLE
350
15
  3
ACAD_VISUALSTYLE
350
16
  3
EZDXF_META
350
2D
  0
DICTIONARY
  5
B
330
A
100
AcDbDictionary
281
1
  0
DICTIONARY
  5
C
330
A
100
AcDbDictionary
281
1
  0
DICTIONARY
  5
D
330
A
100
AcDbDictionary
281
1
  3
Model
350
1A
  3
Layout1
350
1E
  0
DICTIONARY
  5
E
330
A
100
AcDbDictionary
281
1
  3
ByBlock
350
1F
  3
ByLayer
350
20
  3
Global
350
21
  0
DICTIONARY
  5
F
330
A
100
AcDbDictionary
281
1
  3
Standard
350
2C
  0
DICTIONARY
  5
10
330
A
100
AcDbDictionary
281
1
  3
Standard
350
22
  0
DICTIONARY
  5
11
330
A
100
AcDbDictionary
281
1
  0
ACDBDICTIONARYWDFLT
  5
12
330
A
100
AcDbDictionary
281
1
  3
Normal
350
13
100
AcDbDictionaryWithDefault
340
13
  0
ACDBPLACEHOLDER
  5
13
330
12
  0
DICTIONARY
  5
14
330
A
100
AcDbDictionary
281
1
  0
DICTIONARY
  5
15
330
A
100
AcDbDictionary
281
1
  0
DICTIONARY
  5
16
330
A
100
AcDbDictionary
281
1
  0
LAYOUT
  5
1A
330
D
100
AcDbPlotSettings
  1

  2
Adobe PDF
  4
A3
  6

 40
7.5
 41
20.0
 42
7.5
 43
20.0
 44
420.0
 45
297.0
 46
0.0
 47
0.0
 48
0.0
 49
0.0
140
0.0
141
0.0
142
1.0
143
1.0
 70
1024
 72
1
 73
1
 74
5
  7

 75
16
 76
0
 77
2
 78
300
147
1.0
148
0.0
149
0.0
100
AcDbLayout
  1
Model
 70
1
 71
0
 10
0.0
 20
0.0
 11
420.0
 21
297.0
 12
0.0
 22
0.0
 32
0.0
 14
1e+20
 24
1e+20
 34
1e+20
 15
-1e+20
 25
-1e+20
 35
-1e+20
146
0.0
 13
0.0
 23
0.0
 33
0.0
 16
1.0
 26
0.0
 36
0.0
 17
0.0
 27
1.0
 37
0.0
 76
1
330
17
  0
LAYOUT
  5
1E
330
D
100
AcDbPlotSettings
  1

  2
Adobe PDF
  4
A3
  6

 40
7.5
 41
20.0
 42
7.5
 43
20.0
 44
420.0
 45
297.0
 46
0.0
 47
0.0
 48
0.0
 49
0.0
140
0.0
141
0.0
142
1.0
143
1.0
 70
0
 72
1
 73
1
 74
5
  7

 75
16
 76
0
 77
2
 78
300
147
1.0
148
0.0
149
0.0
100
AcDbLayout
  1
Layout1
 70
1
 71
1
 10
0.0
 20
0.0
 11
420.0
 21
297.0
 12
0.0
 22
0.0
 32
0.0
 14
1e+20
 24
1e+20
 34
1e+20
 15
-1e+20
 25
-1e+20
 35
-1e+20
146
0.0
 13
0.0
 23
0.0
 33
0.0
 16
1.0
 26
0.0
 36
0.0
 17
0.0
 27
1.0
 37
0.0
 76
1
330
1B
  0
MATERIAL
  5
1F
102
{ACAD_REACTORS
330
E
102
}
330
E
100
AcDbMaterial
  1
ByBlock
  2

 70
0
 40
1.0
 71
1
 41
1.0
 91
-1023410177
 42
1.0
 72
1
  3

 73
1
 74
1
 75
1
 44
0.5
 73
0
 45
1.0
 46
1.0
 77
1
  4

 78
1
 79
1
170
1
 48
1.0
171
1
  6

172
1
173
1
174
1
140
1.0
141
1.0
175
1
  7

176
1
177
1
178
1
143
1.0
179
1
  8

270
1
271
1
272
1
145
1.0
146
1.0
273
1
  9

274
1
275
1
276
1
 42
1.0
 72
1
  3

 73
1
 74
1
 75
1
 94
63
  0
MATERIAL
  5
20
102
{ACAD_REACTORS
330
E
102
}
330
E
100
AcDbMaterial
  1
ByLayer
  2

 70
0
 40
1.0
 71
1
 41
1.0
 91
-1023410177
 42
1.0
 72
1
  3

 73
1
 74
1
 75
1
 44
0.5
 73
0
 45
1.0
 46
1.0
 77
1
  4

 78
1
 79
1
170
1
 48
1.0
171
1
  6

172
1
173
1
174
1
140
1.0
141
1.0
175
1
  7

176
1
177
1
178
1
143
1.0
179
1
  8

270
1
271
1
272
1
145
1.0
146
1.0
273
1
  9

274
1
275
1
276
1
 42
1.0
 72
1
  3

 73
1
 74
1
 75
1
 94
63
  0
MATERIAL
  5
21
102
{ACAD_REACTORS
330
E
102
}
330
E
100
AcDbMaterial
  1
Global
  2

 70
0
 40
1.0
 71
1
 41
1.0
 91
-1023410177
 42
1.0
 72
1
  3

 73
1
 74
1
 75
1
 44
0.5
 73
0
 45
1.0
 46
1.0
 77
1
  4

 78
1
 79
1
170
1
 48
1.0
171
1
  6

172
1
173
1
174
1
140
1.0
141
1.0
175
1
  7

176
1
177
1
178
1
143
1.0
179
1
  8

270
1
271
1
272
1
145
1.0
146
1.0
273
1
  9

274
1
275
1
276
1
 42
1.0
 72
1
  3

 73
1
 74
1
 75
1
 94
63
  0
MLINESTYLE
  5
22
102
{ACAD_REACTORS
330
10
102
}
330
10
100
AcDbMlineStyle
  2
Standard
 70
0
  3

 62
256
 51
90.0
 52
90.0
 71
2
 49
0.5
 62
256
  6
BYLAYER
 49
-0.5
 62
256
  6
BYLAYER
  0
MLEADERSTYLE
  5
2C
102
{ACAD_REACTORS
330
F
102
}
330
F
100
AcDbMLeaderStyle
179
2
170
2
171
1
172
0
 90
2
 40
0.0
 41
0.0
173
1
 91
-1056964608
 92
-2
290
1
 42
2.0
291
1
 43
8.0
  3
Standard
 44
4.0
300

342
29
174
1
175
1
176
0
178
1
 93
-1056964608
 45
4.0
292
0
297
0
 46
4.0
 94
-1056964608
 47
1.0
 49
1.0
140
1.0
294
1
141
0.0
177
0
142
1.0
295
0
296
0
143
3.75
271
0
272
9
273
9
  0
DICTIONARY
  5
2D
330
A
100
AcDbDictionary
280
1
281
1
  3
CREATED_BY_EZDXF
350
2E
  3
WRITTEN_BY_EZDXF
350
56
  0
DICTIONARYVAR
  5
2E
330
2D
100
DictionaryVariables
280
0
  1
0.17 @ 2022-02-15T16:45:47.208958+00:00
  0
DICTIONARYVAR
  5
56
330
2D
100
DictionaryVariables
280
0
  1
0.17 @ 2022-02-15T16:45:47.260455+00:00
  0
ENDSEC
  0
EOF
