  0
SECTION
  2
HEADER
  9
$ACADVER
  1
AC1027
  9
$ACADMAINTVER
 70
105
  9
$DWGCODEPAGE
  3
ANSI_1252
  9
$LASTSAVEDBY
  1
ezdxf
  9
$REQUIREDVERSIONS
160
0
  9
$INSBASE
 10
0.0
 20
0.0
 30
0.0
  9
$EXTMIN
 10
1e+20
 20
1e+20
 30
1e+20
  9
$EXTMAX
 10
-1e+20
 20
-1e+20
 30
-1e+20
  9
$LIMMIN
 10
0.0
 20
0.0
  9
$LIMMAX
 10
420.0
 20
297.0
  9
$ORTHOMODE
 70
0
  9
$REGENMODE
 70
1
  9
$FILLMODE
 70
1
  9
$QTEXTMODE
 70
0
  9
$MIRRTEXT
 70
1
  9
$LTSCALE
 40
1.0
  9
$ATTMODE
 70
1
  9
$TEXTSIZE
 40
2.5
  9
$TRACEWID
 40
1.0
  9
$TEXTSTYLE
  7
Standard
  9
$CLAYER
  8
0
  9
$CELTYPE
  6
ByLayer
  9
$CECOLOR
 62
256
  9
$CELTSCALE
 40
1.0
  9
$DISPSILH
 70
0
  9
$DIMSCALE
 40
1.0
  9
$DIMASZ
 40
2.5
  9
$DIMEXO
 40
0.625
  9
$DIMDLI
 40
3.75
  9
$DIMRND
 40
0.0
  9
$DIMDLE
 40
0.0
  9
$DIMEXE
 40
1.25
  9
$DIMTP
 40
0.0
  9
$DIMTM
 40
0.0
  9
$DIMTXT
 40
2.5
  9
$DIMCEN
 40
2.5
  9
$DIMTSZ
 40
0.0
  9
$DIMTOL
 70
0
  9
$DIMLIM
 70
0
  9
$DIMTIH
 70
0
  9
$DIMTOH
 70
0
  9
$DIMSE1
 70
0
  9
$DIMSE2
 70
0
  9
$DIMTAD
 70
1
  9
$DIMZIN
 70
8
  9
$DIMBLK
  1

  9
$DIMASO
 70
1
  9
$DIMSHO
 70
1
  9
$DIMPOST
  1

  9
$DIMAPOST
  1

  9
$DIMALT
 70
0
  9
$DIMALTD
 70
3
  9
$DIMALTF
 40
0.03937007874
  9
$DIMLFAC
 40
1.0
  9
$DIMTOFL
 70
1
  9
$DIMTVP
 40
0.0
  9
$DIMTIX
 70
0
  9
$DIMSOXD
 70
0
  9
$DIMSAH
 70
0
  9
$DIMBLK1
  1

  9
$DIMBLK2
  1

  9
$DIMSTYLE
  2
ISO-25
  9
$DIMCLRD
 70
0
  9
$DIMCLRE
 70
0
  9
$DIMCLRT
 70
0
  9
$DIMTFAC
 40
1.0
  9
$DIMGAP
 40
0.625
  9
$DIMJUST
 70
0
  9
$DIMSD1
 70
0
  9
$DIMSD2
 70
0
  9
$DIMTOLJ
 70
0
  9
$DIMTZIN
 70
8
  9
$DIMALTZ
 70
0
  9
$DIMALTTZ
 70
0
  9
$DIMUPT
 70
0
  9
$DIMDEC
 70
2
  9
$DIMTDEC
 70
2
  9
$DIMALTU
 70
2
  9
$DIMALTTD
 70
3
  9
$DIMTXSTY
  7
Standard
  9
$DIMAUNIT
 70
0
  9
$DIMADEC
 70
0
  9
$DIMALTRND
 40
0.0
  9
$DIMAZIN
 70
0
  9
$DIMDSEP
 70
44
  9
$DIMATFIT
 70
3
  9
$DIMFRAC
 70
0
  9
$DIMLDRBLK
  1

  9
$DIMLUNIT
 70
2
  9
$DIMLWD
 70
-2
  9
$DIMLWE
 70
-2
  9
$DIMTMOVE
 70
0
  9
$DIMFXL
 40
1.0
  9
$DIMFXLON
 70
0
  9
$DIMJOGANG
 40
0.785398163397
  9
$DIMTFILL
 70
0
  9
$DIMTFILLCLR
 70
0
  9
$DIMARCSYM
 70
0
  9
$DIMLTYPE
  6

  9
$DIMLTEX1
  6

  9
$DIMLTEX2
  6

  9
$DIMTXTDIRECTION
 70
0
  9
$LUNITS
 70
2
  9
$LUPREC
 70
4
  9
$SKETCHINC
 40
1.0
  9
$FILLETRAD
 40
10.0
  9
$AUNITS
 70
0
  9
$AUPREC
 70
2
  9
$MENU
  1
.
  9
$ELEVATION
 40
0.0
  9
$PELEVATION
 40
0.0
  9
$THICKNESS
 40
0.0
  9
$LIMCHECK
 70
0
  9
$CHAMFERA
 40
0.0
  9
$CHAMFERB
 40
0.0
  9
$CHAMFERC
 40
0.0
  9
$CHAMFERD
 40
0.0
  9
$SKPOLY
 70
0
  9
$TDCREATE
 40
2459626.740138889
  9
$TDUCREATE
 40
2458532.153996898
  9
$TDUPDATE
 40
2459626.740138889
  9
$TDUUPDATE
 40
2458532.1544311
  9
$TDINDWG
 40
0.0
  9
$TDUSRTIMER
 40
0.0
  9
$USRTIMER
 70
1
  9
$ANGBASE
 50
0.0
  9
$ANGDIR
 70
0
  9
$PDMODE
 70
0
  9
$PDSIZE
 40
0.0
  9
$PLINEWID
 40
0.0
  9
$SPLFRAME
 70
0
  9
$SPLINETYPE
 70
6
  9
$SPLINESEGS
 70
8
  9
$HANDSEED
  5
49
  9
$SURFTAB1
 70
6
  9
$SURFTAB2
 70
6
  9
$SURFTYPE
 70
6
  9
$SURFU
 70
6
  9
$SURFV
 70
6
  9
$UCSBASE
  2

  9
$UCSNAME
  2

  9
$UCSORG
 10
0.0
 20
0.0
 30
0.0
  9
$UCSXDIR
 10
1.0
 20
0.0
 30
0.0
  9
$UCSYDIR
 10
0.0
 20
1.0
 30
0.0
  9
$UCSORTHOREF
  2

  9
$UCSORTHOVIEW
 70
0
  9
$UCSORGTOP
 10
0.0
 20
0.0
 30
0.0
  9
$UCSORGBOTTOM
 10
0.0
 20
0.0
 30
0.0
  9
$UCSORGLEFT
 10
0.0
 20
0.0
 30
0.0
  9
$UCSORGRIGHT
 10
0.0
 20
0.0
 30
0.0
  9
$UCSORGFRONT
 10
0.0
 20
0.0
 30
0.0
  9
$UCSORGBACK
 10
0.0
 20
0.0
 30
0.0
  9
$PUCSBASE
  2

  9
$PUCSNAME
  2

  9
$PUCSORG
 10
0.0
 20
0.0
 30
0.0
  9
$PUCSXDIR
 10
1.0
 20
0.0
 30
0.0
  9
$PUCSYDIR
 10
0.0
 20
1.0
 30
0.0
  9
$PUCSORTHOREF
  2

  9
$PUCSORTHOVIEW
 70
0
  9
$PUCSORGTOP
 10
0.0
 20
0.0
 30
0.0
  9
$PUCSORGBOTTOM
 10
0.0
 20
0.0
 30
0.0
  9
$PUCSORGLEFT
 10
0.0
 20
0.0
 30
0.0
  9
$PUCSORGRIGHT
 10
0.0
 20
0.0
 30
0.0
  9
$PUCSORGFRONT
 10
0.0
 20
0.0
 30
0.0
  9
$PUCSORGBACK
 10
0.0
 20
0.0
 30
0.0
  9
$USERI1
 70
0
  9
$USERI2
 70
0
  9
$USERI3
 70
0
  9
$USERI4
 70
0
  9
$USERI5
 70
0
  9
$USERR1
 40
0.0
  9
$USERR2
 40
0.0
  9
$USERR3
 40
0.0
  9
$USERR4
 40
0.0
  9
$USERR5
 40
0.0
  9
$WORLDVIEW
 70
1
  9
$SHADEDGE
 70
3
  9
$SHADEDIF
 70
70
  9
$TILEMODE
 70
1
  9
$MAXACTVP
 70
64
  9
$PINSBASE
 10
0.0
 20
0.0
 30
0.0
  9
$PLIMCHECK
 70
0
  9
$PEXTMIN
 10
1e+20
 20
1e+20
 30
1e+20
  9
$PEXTMAX
 10
-1e+20
 20
-1e+20
 30
-1e+20
  9
$PLIMMIN
 10
0.0
 20
0.0
  9
$PLIMMAX
 10
420.0
 20
297.0
  9
$UNITMODE
 70
0
  9
$VISRETAIN
 70
1
  9
$PLINEGEN
 70
0
  9
$PSLTSCALE
 70
1
  9
$TREEDEPTH
 70
3020
  9
$CMLSTYLE
  2
Standard
  9
$CMLJUST
 70
0
  9
$CMLSCALE
 40
20.0
  9
$PROXYGRAPHICS
 70
1
  9
$MEASUREMENT
 70
1
  9
$CELWEIGHT
370
-1
  9
$ENDCAPS
280
0
  9
$JOINSTYLE
280
0
  9
$LWDISPLAY
290
0
  9
$INSUNITS
 70
6
  9
$HYPERLINKBASE
  1

  9
$STYLESHEET
  1

  9
$XEDIT
290
1
  9
$CEPSNTYPE
380
0
  9
$PSTYLEMODE
290
1
  9
$FINGERPRINTGUID
  2
{7280E9F1-E20E-47ED-9CBF-AC7399223FB0}
  9
$VERSIONGUID
  2
{04AE09DA-3794-41AC-BBAC-D92323BF4774}
  9
$EXTNAMES
290
1
  9
$PSVPSCALE
 40
0.0
  9
$OLESTARTUP
290
0
  9
$SORTENTS
280
127
  9
$INDEXCTL
280
0
  9
$HIDETEXT
280
1
  9
$XCLIPFRAME
280
0
  9
$HALOGAP
280
0
  9
$OBSCOLOR
 70
257
  9
$OBSLTYPE
280
0
  9
$INTERSECTIONDISPLAY
280
0
  9
$INTERSECTIONCOLOR
 70
257
  9
$DIMASSOC
280
2
  9
$PROJECTNAME
  1

  9
$CAMERADISPLAY
290
0
  9
$LENSLENGTH
 40
50.0
  9
$CAMERAHEIGHT
 40
0.0
  9
$STEPSPERSEC
 40
24.0
  9
$STEPSIZE
 40
100.0
  9
$3DDWFPREC
 40
2.0
  9
$PSOLWIDTH
 40
0.005
  9
$PSOLHEIGHT
 40
0.08
  9
$LOFTANG1
 40
1.570796326795
  9
$LOFTANG2
 40
1.570796326795
  9
$LOFTMAG1
 40
0.0
  9
$LOFTMAG2
 40
0.0
  9
$LOFTPARAM
 70
7
  9
$LOFTNORMALS
280
1
  9
$LATITUDE
 40
37.795
  9
$LONGITUDE
 40
-122.394
  9
$NORTHDIRECTION
 40
0.0
  9
$TIMEZONE
 70
-8000
  9
$LIGHTGLYPHDISPLAY
280
1
  9
$TILEMODELIGHTSYNCH
280
1
  9
$CMATERIAL
347
20
  9
$SOLIDHIST
280
0
  9
$SHOWHIST
280
1
  9
$DWFFRAME
280
2
  9
$DGNFRAME
280
2
  9
$REALWORLDSCALE
290
1
  9
$INTERFERECOLOR
 62
256
  9
$CSHADOW
280
0
  9
$SHADOWPLANELOCATION
 40
0.0
  0
ENDSEC
  0
SECTION
  2
CLASSES
  0
CLASS
  1
ACDBDICTIONARYWDFLT
  2
AcDbDictionaryWithDefault
  3
ObjectDBX Classes
 90
0
 91
0
280
0
281
0
  0
CLASS
  1
SUN
  2
AcDbSun
  3
SCENEOE
 90
1153
 91
0
280
0
281
0
  0
CLASS
  1
VISUALSTYLE
  2
AcDbVisualStyle
  3
ObjectDBX Classes
 90
4095
 91
0
280
0
281
0
  0
CLASS
  1
MATERIAL
  2
AcDbMaterial
  3
ObjectDBX Classes
 90
1153
 91
0
280
0
281
0
  0
CLASS
  1
SCALE
  2
AcDbScale
  3
ObjectDBX Classes
 90
1153
 91
0
280
0
281
0
  0
CLASS
  1
TABLESTYLE
  2
AcDbTableStyle
  3
ObjectDBX Classes
 90
4095
 91
0
280
0
281
0
  0
CLASS
  1
MLEADERSTYLE
  2
AcDbMLeaderStyle
  3
ACDB_MLEADERSTYLE_CLASS
 90
4095
 91
0
280
0
281
0
  0
CLASS
  1
DICTIONARYVAR
  2
AcDbDictionaryVar
  3
ObjectDBX Classes
 90
0
 91
0
280
0
281
0
  0
CLASS
  1
CELLSTYLEMAP
  2
AcDbCellStyleMap
  3
ObjectDBX Classes
 90
1152
 91
0
280
0
281
0
  0
CLASS
  1
MENTALRAYRENDERSETTINGS
  2
AcDbMentalRayRenderSettings
  3
SCENEOE
 90
1024
 91
0
280
0
281
0
  0
CLASS
  1
ACDBDETAILVIEWSTYLE
  2
AcDbDetailViewStyle
  3
ObjectDBX Classes
 90
1025
 91
0
280
0
281
0
  0
CLASS
  1
ACDBSECTIONVIEWSTYLE
  2
AcDbSectionViewStyle
  3
ObjectDBX Classes
 90
1025
 91
0
280
0
281
0
  0
CLASS
  1
RASTERVARIABLES
  2
AcDbRasterVariables
  3
ISM
 90
0
 91
0
280
0
281
0
  0
CLASS
  1
ACDBPLACEHOLDER
  2
AcDbPlaceHolder
  3
ObjectDBX Classes
 90
0
 91
0
280
0
281
0
  0
CLASS
  1
LAYOUT
  2
AcDbLayout
  3
ObjectDBX Classes
 90
0
 91
0
280
0
281
0
  0
ENDSEC
  0
SECTION
  2
TABLES
  0
TABLE
  2
VPORT
  5
8
330
0
100
AcDbSymbolTable
 70
1
  0
VPORT
  5
23
330
8
100
AcDbSymbolTableRecord
100
AcDbViewportTableRecord
  2
*Active
 70
0
 10
0.0
 20
0.0
 11
1.0
 21
1.0
 12
344.2
 22
148.5
 13
0.0
 23
0.0
 14
0.5
 24
0.5
 15
0.5
 25
0.5
 16
0.0
 26
0.0
 36
1.0
 17
0.0
 27
0.0
 37
0.0
 40
297.0
 41
1.34
 42
50.0
 43
0.0
 44
0.0
 50
0.0
 51
0.0
 71
0
 72
1000
 73
1
 74
3
 75
0
 76
0
 77
0
 78
0
281
0
 65
0
146
0.0
  0
ENDTAB
  0
TABLE
  2
LTYPE
  5
2
330
0
100
AcDbSymbolTable
 70
3
  0
LTYPE
  5
24
330
2
100
AcDbSymbolTableRecord
100
AcDbLinetypeTableRecord
  2
ByBlock
 70
0
  3

 72
65
 73
0
 40
0.0
  0
LTYPE
  5
25
330
2
100
AcDbSymbolTableRecord
100
AcDbLinetypeTableRecord
  2
ByLayer
 70
0
  3

 72
65
 73
0
 40
0.0
  0
LTYPE
  5
26
330
2
100
AcDbSymbolTableRecord
100
AcDbLinetypeTableRecord
  2
Continuous
 70
0
  3

 72
65
 73
0
 40
0.0
  0
ENDTAB
  0
TABLE
  2
LAYER
  5
1
330
0
100
AcDbSymbolTable
 70
2
  0
LAYER
  5
27
330
1
100
AcDbSymbolTableRecord
100
AcDbLayerTableRecord
  2
0
 70
0
 62
7
  6
Continuous
370
-3
390
13
347
21
  0
LAYER
  5
28
330
1
100
AcDbSymbolTableRecord
100
AcDbLayerTableRecord
  2
Defpoints
 70
0
 62
7
  6
Continuous
290
0
370
-3
390
13
347
21
  0
ENDTAB
  0
TABLE
  2
STYLE
  5
5
330
0
100
AcDbSymbolTable
 70
1
  0
STYLE
  5
29
330
5
100
AcDbSymbolTableRecord
100
AcDbTextStyleTableRecord
  2
Standard
 70
0
 40
0.0
 41
1.0
 50
0.0
 71
0
 42
2.5
  3
txt
  4

  0
ENDTAB
  0
TABLE
  2
VIEW
  5
7
330
0
100
AcDbSymbolTable
 70
0
  0
ENDTAB
  0
TABLE
  2
UCS
  5
6
330
0
100
AcDbSymbolTable
 70
0
  0
ENDTAB
  0
TABLE
  2
APPID
  5
3
330
0
100
AcDbSymbolTable
 70
3
  0
APPID
  5
2A
330
3
100
AcDbSymbolTableRecord
100
AcDbRegAppTableRecord
  2
ACAD
 70
0
  0
APPID
  5
46
330
3
100
AcDbSymbolTableRecord
100
AcDbRegAppTableRecord
  2
HATCHBACKGROUNDCOLOR
 70
0
  0
APPID
  5
47
330
3
100
AcDbSymbolTableRecord
100
AcDbRegAppTableRecord
  2
EZDXF
 70
0
  0
ENDTAB
  0
TABLE
  2
DIMSTYLE
  5
4
330
0
100
AcDbSymbolTable
 70
1
100
AcDbDimStyleTable
  0
DIMSTYLE
105
2B
330
4
100
AcDbSymbolTableRecord
100
AcDbDimStyleTableRecord
  2
Standard
 70
0
 40
1.0
 41
2.5
 42
0.625
 43
3.75
 44
1.25
 45
0.0
 46
0.0
 47
0.0
 48
0.0
 49
2.5
140
2.5
141
2.5
142
0.0
143
0.03937007874
144
1.0
145
0.0
146
1.0
147
0.625
148
0.0
 69
0
 70
0
 71
0
 72
0
 73
0
 74
0
 75
0
 76
0
 77
1
 78
8
 79
0
170
0
171
3
172
1
173
0
174
0
175
0
176
0
177
0
178
0
179
0
271
0
272
2
273
2
274
3
275
0
276
0
277
2
278
44
279
0
280
0
281
0
282
0
283
0
284
8
285
0
286
0
288
0
289
3
290
0
371
-2
372
-2
  0
ENDTAB
  0
TABLE
  2
BLOCK_RECORD
  5
9
330
0
100
AcDbSymbolTable
 70
2
  0
BLOCK_RECORD
  5
17
330
9
100
AcDbSymbolTableRecord
100
AcDbBlockTableRecord
  2
*Model_Space
340
1A
 70
0
280
1
281
0
  0
BLOCK_RECORD
  5
1B
330
9
100
AcDbSymbolTableRecord
100
AcDbBlockTableRecord
  2
*Paper_Space
340
1E
 70
0
280
1
281
0
  0
ENDTAB
  0
ENDSEC
  0
SECTION
  2
BLOCKS
  0
BLOCK
  5
18
330
17
100
AcDbEntity
  8
0
100
AcDbBlockBegin
  2
*Model_Space
 70
0
 10
0.0
 20
0.0
 30
0.0
  3
*Model_Space
  1

  0
ENDBLK
  5
19
330
17
100
AcDbEntity
  8
0
100
AcDbBlockEnd
  0
BLOCK
  5
1C
330
1B
100
AcDbEntity
  8
0
100
AcDbBlockBegin
  2
*Paper_Space
 70
0
 10
0.0
 20
0.0
 30
0.0
  3
*Paper_Space
  1

  0
ENDBLK
  5
1D
330
1B
100
AcDbEntity
  8
0
100
AcDbBlockEnd
  0
ENDSEC
  0
SECTION
  2
ENTITIES
  0
SPLINE
  5
2F
330
17
100
AcDbEntity
  8
0
100
AcDbSpline
 70
0
 71
8
 72
116
 73
107
 74
0
 40
0.0
 40
0.0
 40
0.0
 40
0.0
 40
0.0
 40
0.0
 40
0.0
 40
0.0
 40
0.0
 40
0.10849835309203049
 40
0.10849835309203049
 40
0.10849835309203049
 40
0.10849835309203049
 40
0.10849835309203049
 40
0.10849835309203049
 40
0.10849835309203049
 40
0.21649850959213734
 40
0.21649850959213734
 40
0.21649850959213734
 40
0.21649850959213734
 40
0.21649850959213734
 40
0.21649850959213734
 40
0.21649850959213734
 40
0.2631630332398608
 40
0.2631630332398608
 40
0.2631630332398608
 40
0.2631630332398608
 40
0.2631630332398608
 40
0.2631630332398608
 40
0.2631630332398608
 40
0.31566200655859494
 40
0.31566200655859494
 40
0.31566200655859494
 40
0.31566200655859494
 40
0.31566200655859494
 40
0.31566200655859494
 40
0.31566200655859494
 40
0.47054346314880396
 40
0.47054346314880396
 40
0.47054346314880396
 40
0.47054346314880396
 40
0.47054346314880396
 40
0.47054346314880396
 40
0.47054346314880396
 40
0.589698801964984
 40
0.589698801964984
 40
0.589698801964984
 40
0.589698801964984
 40
0.589698801964984
 40
0.589698801964984
 40
0.589698801964984
 40
0.6481758630675195
 40
0.6481758630675195
 40
0.6481758630675195
 40
0.6481758630675195
 40
0.6481758630675195
 40
0.6481758630675195
 40
0.6481758630675195
 40
0.6885124992548095
 40
0.6885124992548095
 40
0.6885124992548095
 40
0.6885124992548095
 40
0.6885124992548095
 40
0.6885124992548095
 40
0.6885124992548095
 40
0.720327556525554
 40
0.720327556525554
 40
0.720327556525554
 40
0.720327556525554
 40
0.720327556525554
 40
0.720327556525554
 40
0.720327556525554
 40
0.7434650341311043
 40
0.7434650341311043
 40
0.7434650341311043
 40
0.7434650341311043
 40
0.7434650341311043
 40
0.7434650341311043
 40
0.7434650341311043
 40
0.815315222710499
 40
0.815315222710499
 40
0.815315222710499
 40
0.815315222710499
 40
0.815315222710499
 40
0.815315222710499
 40
0.815315222710499
 40
0.8875741559363713
 40
0.8875741559363713
 40
0.8875741559363713
 40
0.8875741559363713
 40
0.8875741559363713
 40
0.8875741559363713
 40
0.8875741559363713
 40
0.9491730990343975
 40
0.9491730990343975
 40
0.9491730990343975
 40
0.9491730990343975
 40
0.9491730990343975
 40
0.9491730990343975
 40
0.9491730990343975
 40
0.9795834289364796
 40
0.9795834289364796
 40
0.9795834289364796
 40
0.9795834289364796
 40
0.9795834289364796
 40
0.9795834289364796
 40
0.9795834289364796
 40
1.0
 40
1.0
 40
1.0
 40
1.0
 40
1.0
 40
1.0
 40
1.0
 40
1.0
 40
1.0
 10
99.49021254449175
 20
53.90000000712545
 30
1965.0
 10
99.41662021602176
 20
54.24379853119743
 30
1965.0
 10
99.34139155693383
 20
54.58724007872344
 30
1965.0
 10
99.26443376613375
 20
54.93029411042957
 30
1965.0
 10
99.18564279309015
 20
55.272925000713485
 30
1965.0
 10
99.10490089050785
 20
55.61509147359367
 30
1965.0
 10
99.02207316439697
 20
55.95674580960243
 30
1965.0
 10
98.93700228951755
 20
56.297832626206024
 30
1965.0
 10
98.76240061233507
 20
56.97717816319858
 30
1965.0
 10
98.6728954770245
 20
57.31542790616427
 30
1965.0
 10
98.58080013103489
 20
57.6529777145897
 30
1965.0
 10
98.48589881891421
 20
57.989746221988554
 30
1965.0
 10
98.38794292595685
 20
58.325628737854224
 30
1965.0
 10
98.28663768088231
 20
58.660493290191965
 30
1965.0
 10
98.18161768620817
 20
58.99417321675992
 30
1965.0
 10
98.02522555675756
 20
59.47002861576615
 30
1965.0
 10
97.97784148298739
 20
59.611577786902004
 30
1965.0
 10
97.9302611148316
 20
59.75105739350427
 30
1965.0
 10
97.88248632154438
 20
59.88843546536751
 30
1965.0
 10
97.83451878180793
 20
60.02369448700274
 30
1965.0
 10
97.78635998373261
 20
60.1568313976376
 30
1965.0
 10
97.73801122485692
 20
60.28785759121626
 30
1965.0
 10
97.63486735807271
 20
60.56186173203173
 30
1965.0
 10
97.58002149024206
 20
60.70428926541842
 30
1965.0
 10
97.52493809573296
 20
60.844107328379124
 30
1965.0
 10
97.46961926163141
 20
60.98134173267383
 30
1965.0
 10
97.41406707503204
 20
61.11601829000295
 30
1965.0
 10
97.35828362303805
 20
61.24816281200725
 30
1965.0
 10
97.30227099276134
 20
61.377801110267974
 30
1965.0
 10
97.08011393191444
 20
61.88009773448844
 30
1965.0
 10
96.90473369875545
 20
62.25057420998721
 30
1965.0
 10
96.71860893859815
 20
62.615958305269075
 30
1965.0
 10
96.52033287821845
 20
62.97522842889087
 30
1965.0
 10
96.30835085411155
 20
63.32675948394114
 30
1965.0
 10
96.08090464192398
 20
63.6682877160965
 30
1965.0
 10
95.83596739112558
 20
63.996870727688034
 30
1965.0
 10
95.36749290695134
 20
64.54888515863256
 30
1965.0
 10
95.15197969365315
 20
64.77917516936584
 30
1965.0
 10
94.92392211259394
 20
64.99763690763004
 30
1965.0
 10
94.6827917566057
 20
65.20181042951934
 30
1965.0
 10
94.42835269759873
 20
65.38898720481528
 30
1965.0
 10
94.16087052719787
 20
65.55651680063431
 30
1965.0
 10
93.8814457330162
 20
65.70227548005177
 30
1965.0
 10
93.45066125000426
 20
65.88563005098601
 30
1965.0
 10
93.30652648821226
 20
65.94051649515205
 30
1965.0
 10
93.16034401782784
 20
65.98981171736796
 30
1965.0
 10
93.01238760782972
 20
66.03349157273658
 30
1965.0
 10
92.86293101795187
 20
66.07161608420778
 30
1965.0
 10
92.71224529624155
 20
66.1043190378262
 30
1965.0
 10
92.56059550307087
 20
66.13179571149536
 30
1965.0
 10
92.30314206075025
 20
66.16980410310926
 30
1965.0
 10
92.19769954376045
 20
66.1829496960418
 30
1965.0
 10
92.09198349868844
 20
66.19380607743133
 30
1965.0
 10
91.98606067645252
 20
66.2024637457328
 30
1965.0
 10
91.87999019759647
 20
66.20902077898438
 30
1965.0
 10
91.77382335905274
 20
66.21358047731113
 30
1965.0
 10
91.66760344090576
 20
66.21624900542896
 30
1965.0
 10
91.47757157109159
 20
66.21783030340949
 30
1965.0
 10
91.39364835496735
 20
66.21741846130237
 30
1965.0
 10
91.30959967652625
 20
66.21594463516135
 30
1965.0
 10
91.22542934753751
 20
66.21345595138163
 30
1965.0
 10
91.14114117979574
 20
66.20999953641953
 30
1965.0
 10
91.05673898512093
 20
66.20562251679253
 30
1965.0
 10
90.97222657535842
 20
66.20037201907923
 30
1965.0
 10
90.82606879126662
 20
66.18987578572185
 30
1965.0
 10
90.76446659473841
 20
66.18502378284418
 30
1965.0
 10
90.70281309903442
 20
66.17974834289902
 30
1965.0
 10
90.64112051970018
 20
66.17405784325297
 30
1965.0
 10
90.5794013615866
 20
66.16795985702674
 30
1965.0
 10
90.51766841885
 20
66.16146115309505
 30
1965.0
 10
90.45593477495213
 20
66.15456769608659
 30
1965.0
 10
90.20254798782562
 20
66.12466815795467
 30
1965.0
 10
90.01132117956027
 20
66.09834257170509
 30
1965.0
 10
89.82059202010032
 20
66.06849098992724
 30
1965.0
 10
89.6304194203808
 20
66.0352587230958
 30
1965.0
 10
89.44086168330105
 20
65.99875935836445
 30
1965.0
 10
89.25197638160267
 20
65.95907720211147
 30
1965.0
 10
89.06382099035987
 20
65.9162660965348
 30
1965.0
 10
88.688021657439
 20
65.82416188380299
 30
1965.0
 10
88.50040672488794
 20
65.77483826674917
 30
1965.0
 10
88.31366126984727
 20
65.72239126618679
 30
1965.0
 10
88.12785825312082
 20
65.66680801483284
 30
1965.0
 10
87.94309553714668
 20
65.60803783741217
 30
1965.0
 10
87.75949719913736
 20
65.54598955774664
 30
1965.0
 10
87.57722118157572
 20
65.48051258432442
 30
1965.0
 10
87.24240641506337
 20
65.35237359692988
 30
1965.0
 10
87.08955263852067
 20
65.29076081801728
 30
1965.0
 10
86.93795715922477
 20
65.22631195734752
 30
1965.0
 10
86.78777716754138
 20
65.15877894030578
 30
1965.0
 10
86.63926117374498
 20
65.0878953871709
 30
1965.0
 10
86.49285883332993
 20
65.0132130189076
 30
1965.0
 10
86.34913318388155
 20
64.9342349381024
 30
1965.0
 10
86.14011886763981
 20
64.80796780193407
 30
1965.0
 10
86.0720815945183
 20
64.7649525643316
 30
1965.0
 10
86.0051221086294
 20
64.72045659471715
 30
1965.0
 10
85.93940990776522
 20
64.67426701837374
 30
1965.0
 10
85.87521785344579
 20
64.62618081378574
 30
1965.0
 10
85.81304028531122
 20
64.5759003178596
 30
1965.0
 10
85.75349295342264
 20
64.52312315009286
 30
1965.0
 10
85.66037598931464
 20
64.42944910821488
 30
1965.0
 10
85.62505559534874
 20
64.39070403224899
 30
1965.0
 10
85.59175324960819
 20
64.3502839704287
 30
1965.0
 10
85.56097074638309
 20
64.30782967756616
 30
1965.0
 10
85.53372150321948
 20
64.26319534199344
 30
1965.0
 10
85.51155878570681
 20
64.2164461318831
 30
1965.0
 10
85.49655840673901
 20
64.16787200050895
 30
1965.0
 10
85.491126426775
 20
64.11805146594939
 30
1965.0
  0
LINE
  5
30
330
17
100
AcDbEntity
  8
0
100
AcDbLine
 10
93.92253367212692
 20
53.9
 30
1965.0
 11
99.49021251120402
 21
53.9
 31
1965.0
  0
SPLINE
  5
31
330
17
100
AcDbEntity
  8
0
100
AcDbSpline
 70
0
 71
1
 72
4
 73
2
 74
0
 40
0.0
 40
0.0
 40
1.0
 40
1.0
 10
93.92253368132091
 20
53.90000060000026
 30
1965.0
 10
93.92253368132091
 20
50.09999939999937
 30
1965.0
  0
LINE
  5
32
330
17
100
AcDbEntity
  8
0
100
AcDbLine
 10
93.92253367212692
 20
50.1
 30
1965.0
 11
100.22479643353324
 21
50.1
 31
1965.0
  0
SPLINE
  5
33
330
17
100
AcDbEntity
  8
0
100
AcDbSpline
 70
0
 71
8
 72
39
 73
30
 74
0
 40
0.0
 40
0.0
 40
0.0
 40
0.0
 40
0.0
 40
0.0
 40
0.0
 40
0.0
 40
0.0
 40
0.08680033879697625
 40
0.08680033879697625
 40
0.08680033879697625
 40
0.08680033879697625
 40
0.08680033879697625
 40
0.08680033879697625
 40
0.08680033879697625
 40
0.26462723114677517
 40
0.26462723114677517
 40
0.26462723114677517
 40
0.26462723114677517
 40
0.26462723114677517
 40
0.26462723114677517
 40
0.26462723114677517
 40
0.820839368880271
 40
0.820839368880271
 40
0.820839368880271
 40
0.820839368880271
 40
0.820839368880271
 40
0.820839368880271
 40
0.820839368880271
 40
1.0
 40
1.0
 40
1.0
 40
1.0
 40
1.0
 40
1.0
 40
1.0
 40
1.0
 40
1.0
 10
102.78184057563774
 20
27.900000000286205
 30
1965.0
 10
102.76467092425676
 20
28.14196941105066
 30
1965.0
 10
102.7472840186336
 20
28.38392331196514
 30
1965.0
 10
102.72967859261817
 20
28.6258613832024
 30
1965.0
 10
102.7118533710341
 20
28.867783299619816
 30
1965.0
 10
102.69380706967854
 20
29.1096887307594
 30
1965.0
 10
102.67553839532226
 20
29.35157734084781
 30
1965.0
 10
102.65704604570963
 20
29.59344878879633
 30
1965.0
 10
102.59998271037308
 20
30.330786214129002
 30
1965.0
 10
102.56069243881548
 20
30.826196182273335
 30
1965.0
 10
102.52044644053507
 20
31.32152967424051
 30
1965.0
 10
102.47923345363894
 20
31.816783557760427
 30
1965.0
 10
102.4370418578724
 20
32.31195460872045
 30
1965.0
 10
102.39385958874989
 20
32.807039526747786
 30
1965.0
 10
102.34967451663502
 20
33.30203488434028
 30
1965.0
 10
102.16309983450688
 20
35.344906303682045
 30
1965.0
 10
102.01180492302599
 20
36.89192761487544
 30
1965.0
 10
101.85020715273342
 20
38.43792894788844
 30
1965.0
 10
101.67776748400999
 20
39.98278471421489
 30
1965.0
 10
101.49373215431625
 20
41.526307323235514
 30
1965.0
 10
101.29710513820388
 20
43.06824368395446
 30
1965.0
 10
101.0865224068481
 20
44.60825941246652
 30
1965.0
 10
100.7869006798709
 20
46.64117849021097
 30
1965.0
 10
100.712239400657
 20
47.1362107667992
 30
1965.0
 10
100.63584488652734
 20
47.63097532923346
 30
1965.0
 10
100.55763935570639
 20
48.12545363769168
 30
1965.0
 10
100.47753614546284
 20
48.61962355518026
 30
1965.0
 10
100.39543797934081
 20
49.11345905001162
 30
1965.0
 10
100.31123411634887
 20
49.60692969894409
 30
1965.0
 10
100.22479638210682
 20
50.0999999909847
 30
1965.0
  0
LINE
  5
34
330
17
100
AcDbEntity
  8
0
100
AcDbLine
 10
93.92253367212692
 20
27.9
 30
1965.0
 11
102.7818405716043
 21
27.9
 31
1965.0
  0
SPLINE
  5
35
330
17
100
AcDbEntity
  8
0
100
AcDbSpline
 70
0
 71
1
 72
4
 73
2
 74
0
 40
0.0
 40
0.0
 40
1.0
 40
1.0
 10
93.92253368132091
 20
27.900000600000002
 30
1965.0
 10
93.92253368132091
 20
24.099999399999998
 30
1965.0
  0
LINE
  5
36
330
17
100
AcDbEntity
  8
0
100
AcDbLine
 10
93.92253367212692
 20
24.1
 30
1965.0
 11
103.02847481030032
 21
24.1
 31
1965.0
  0
SPLINE
  5
37
330
17
100
AcDbEntity
  8
0
100
AcDbSpline
 70
0
 71
8
 72
25
 73
16
 74
0
 40
0.0
 40
0.0
 40
0.0
 40
0.0
 40
0.0
 40
0.0
 40
0.0
 40
0.0
 40
0.0
 40
0.9982466330013864
 40
0.9982466330013864
 40
0.9982466330013864
 40
0.9982466330013864
 40
0.9982466330013864
 40
0.9982466330013864
 40
0.9982466330013864
 40
1.0
 40
1.0
 40
1.0
 40
1.0
 40
1.0
 40
1.0
 40
1.0
 40
1.0
 40
1.0
 10
103.68272484454033
 20
1.8999999999561468
 30
1965.0
 10
103.67235043804305
 20
4.671685754612101
 30
1965.0
 10
103.64436122184092
 20
7.443292492607682
 30
1965.0
 10
103.59750391307439
 20
10.21470223108748
 30
1965.0
 10
103.53045771887257
 20
12.985746682568841
 30
1965.0
 10
103.44182130502202
 20
15.756206893698675
 30
1965.0
 10
103.33009585197979
 20
18.525812746767226
 30
1965.0
 10
103.19366419823076
 20
21.29424232397887
 30
1965.0
 10
103.03047994911188
 20
24.06598100961999
 30
1965.0
 10
103.03019374558453
 20
24.070840879919338
 30
1965.0
 10
103.0299074603974
 20
24.0757007453757
 30
1965.0
 10
103.029621093541
 20
24.080560605986907
 30
1965.0
 10
103.0293346450058
 20
24.085420461750804
 30
1965.0
 10
103.02904811478228
 20
24.090280312665225
 30
1965.0
 10
103.02876150286095
 20
24.09514015872801
 30
1965.0
 10
103.02847480923225
 20
24.099999999936998
 30
1965.0
  0
LINE
  5
38
330
17
100
AcDbEntity
  8
0
100
AcDbLine
 10
93.92253367212692
 20
1.9
 30
1965.0
 11
103.68272485625519
 21
1.9
 31
1965.0
  0
SPLINE
  5
39
330
17
100
AcDbEntity
  8
0
100
AcDbSpline
 70
0
 71
1
 72
4
 73
2
 74
0
 40
0.0
 40
0.0
 40
0.9999993684216398
 40
0.9999993684216398
 10
93.92253368132093
 20
1.9000006000000558
 30
1965.0
 10
93.92253368132094
 20
-6.553790374438061e-17
 30
1965.0
  0
SPLINE
  5
3A
330
17
100
AcDbEntity
  8
0
100
AcDbSpline
 70
0
 71
1
 72
4
 73
2
 74
0
 40
0.0
 40
0.0
 40
1.0
 40
1.0
 10
93.92253368132091
 20
-1.9000006000000011
 30
1965.0
 10
93.92253368132093
 20
1.2000000211287443e-06
 30
1965.0
  0
LINE
  5
3B
330
17
100
AcDbEntity
  8
0
100
AcDbLine
 10
93.92253367212565
 20
-1.9
 30
1965.0
 11
103.68272574529645
 21
-1.9
 31
1965.0
  0
SPLINE
  5
3C
330
17
100
AcDbEntity
  8
0
100
AcDbSpline
 70
0
 71
8
 72
25
 73
16
 74
0
 40
0.0
 40
0.0
 40
0.0
 40
0.0
 40
0.0
 40
0.0
 40
0.0
 40
0.0
 40
0.0
 40
0.9913399260967561
 40
0.9913399260967561
 40
0.9913399260967561
 40
0.9913399260967561
 40
0.9913399260967561
 40
0.9913399260967561
 40
0.9913399260967561
 40
1.0
 40
1.0
 40
1.0
 40
1.0
 40
1.0
 40
1.0
 40
1.0
 40
1.0
 40
1.0
 10
103.02847382811274
 20
-24.099999999916975
 30
1965.0
 10
103.19056840810563
 20
-21.35229500463305
 30
1965.0
 10
103.32654541483585
 20
-18.603031404353164
 30
1965.0
 10
103.43812744940408
 20
-15.852600792343058
 30
1965.0
 10
103.52689897661497
 20
-13.101332772858164
 30
1965.0
 10
103.59433123414728
 20
-10.349496050818061
 30
1965.0
 10
103.64180051027539
 20
-7.5972992188142285
 30
1965.0
 10
103.67060289949694
 20
-4.844891390409608
 30
1965.0
 10
103.68206793346211
 20
-2.0683174935439164
 30
1965.0
 10
103.68216588793383
 20
-2.044272152962926
 30
1965.0
 10
103.68226251065808
 20
-2.0202268070253395
 30
1965.0
 10
103.68235780325998
 20
-1.9961814558116775
 30
1965.0
 10
103.68245176719489
 20
-1.9721360994031463
 30
1965.0
 10
103.68254440377285
 20
-1.9480907378815358
 30
1965.0
 10
103.68263571418056
 20
-1.924045371329128
 30
1965.0
 10
103.68272569950098
 20
-1.8999999998286163
 30
1965.0
  0
LINE
  5
3D
330
17
100
AcDbEntity
  8
0
100
AcDbLine
 10
93.92253367212565
 20
-24.1
 30
1965.0
 11
103.02847382952012
 21
-24.1
 31
1965.0
  0
SPLINE
  5
3E
330
17
100
AcDbEntity
  8
0
100
AcDbSpline
 70
0
 71
1
 72
4
 73
2
 74
0
 40
0.0
 40
0.0
 40
1.0
 40
1.0
 10
93.92253368132093
 20
-27.900000600000034
 30
1965.0
 10
93.92253368132091
 20
-24.099999399999938
 30
1965.0
  0
LINE
  5
3F
330
17
100
AcDbEntity
  8
0
100
AcDbLine
 10
93.92253367212562
 20
-27.9
 30
1965.0
 11
102.7818390977409
 21
-27.9
 31
1965.0
  0
SPLINE
  5
40
330
17
100
AcDbEntity
  8
0
100
AcDbSpline
 70
0
 71
8
 72
39
 73
30
 74
0
 40
0.0
 40
0.0
 40
0.0
 40
0.0
 40
0.0
 40
0.0
 40
0.0
 40
0.0
 40
0.0
 40
0.16025584135054108
 40
0.16025584135054108
 40
0.16025584135054108
 40
0.16025584135054108
 40
0.16025584135054108
 40
0.16025584135054108
 40
0.16025584135054108
 40
0.6267271473315222
 40
0.6267271473315222
 40
0.6267271473315222
 40
0.6267271473315222
 40
0.6267271473315222
 40
0.6267271473315222
 40
0.6267271473315222
 40
0.8126410712334806
 40
0.8126410712334806
 40
0.8126410712334806
 40
0.8126410712334806
 40
0.8126410712334806
 40
0.8126410712334806
 40
0.8126410712334806
 40
1.0
 40
1.0
 40
1.0
 40
1.0
 40
1.0
 40
1.0
 40
1.0
 40
1.0
 40
1.0
 10
100.22492063745767
 20
-50.09999999794631
 30
1965.0
 10
100.30223088778408
 20
-49.65895667297825
 30
1965.0
 10
100.37775415443161
 20
-49.21759317953094
 30
1965.0
 10
100.45158208702672
 20
-48.77593511120364
 30
1965.0
 10
100.52379520388035
 20
-48.33400463829351
 30
1965.0
 10
100.59446522798204
 20
-47.89182092446707
 30
1965.0
 10
100.66365676727693
 20
-47.44940042432019
 30
1965.0
 10
100.73142833922546
 20
-47.00675706182694
 30
1965.0
 10
100.99112208951345
 20
-45.27484447946737
 30
1965.0
 10
101.1728236572758
 20
-43.9840301673826
 30
1965.0
 10
101.3442433431107
 20
-42.69175706658683
 30
1965.0
 10
101.50629965858819
 20
-41.39825038370497
 30
1965.0
 10
101.65969244176473
 20
-40.10368521499416
 30
1965.0
 10
101.80497190930559
 20
-38.808195600872416
 30
1965.0
 10
101.94256224883378
 20
-37.51187763540452
 30
1965.0
 10
102.12469829939606
 20
-35.69783639219965
 30
1965.0
 10
102.17543352307331
 20
-35.18076013710656
 30
1965.0
 10
102.22501991396824
 20
-34.663570622602684
 30
1965.0
 10
102.27347641455542
 20
-34.14627267237844
 30
1965.0
 10
102.32081895982398
 20
-33.628870937834925
 30
1965.0
 10
102.36706038828794
 20
-33.1113696586016
 30
1965.0
 10
102.41221236915513
 20
-32.59377252201791
 30
1965.0
 10
102.500709798114
 20
-31.554370418793063
 30
1965.0
 10
102.54403804107115
 20
-31.032565755489998
 30
1965.0
 10
102.58628835257706
 20
-30.51067281616115
 30
1965.0
 10
102.62747433133374
 20
-29.988694998696133
 30
1965.0
 10
102.66760934842914
 20
-29.4666356177543
 30
1965.0
 10
102.70670655522709
 20
-28.94449790511354
 30
1965.0
 10
102.74477889086404
 20
-28.422285010000962
 30
1965.0
 10
102.78183908938064
 20
-27.899999999406766
 30
1965.0
  0
LINE
  5
41
330
17
100
AcDbEntity
  8
0
100
AcDbLine
 10
93.92253367212562
 20
-50.1
 30
1965.0
 11
100.22492064917358
 21
-50.1
 31
1965.0
  0
SPLINE
  5
42
330
17
100
AcDbEntity
  8
0
100
AcDbSpline
 70
0
 71
1
 72
4
 73
2
 74
0
 40
0.0
 40
0.0
 40
1.0
 40
1.0
 10
93.92253368132091
 20
-53.9000006
 30
1965.0
 10
93.92253368132089
 20
-50.0999994
 30
1965.0
  0
LINE
  5
43
330
17
100
AcDbEntity
  8
0
100
AcDbLine
 10
93.92253367212565
 20
-53.9
 30
1965.0
 11
99.490410307966
 21
-53.9
 31
1965.0
  0
SPLINE
  5
44
330
17
100
AcDbEntity
  8
0
100
AcDbSpline
 70
0
 71
8
 72
123
 73
114
 74
0
 40
0.0
 40
0.0
 40
0.0
 40
0.0
 40
0.0
 40
0.0
 40
0.0
 40
0.0
 40
0.0
 40
0.0017735751424834832
 40
0.0017735751424834832
 40
0.0017735751424834832
 40
0.0017735751424834832
 40
0.0017735751424834832
 40
0.0017735751424834832
 40
0.0017735751424834832
 40
0.004752438453459325
 40
0.004752438453459325
 40
0.004752438453459325
 40
0.004752438453459325
 40
0.004752438453459325
 40
0.004752438453459325
 40
0.004752438453459325
 40
0.01177866504117038
 40
0.01177866504117038
 40
0.01177866504117038
 40
0.01177866504117038
 40
0.01177866504117038
 40
0.01177866504117038
 40
0.01177866504117038
 40
0.018899377479148844
 40
0.018899377479148844
 40
0.018899377479148844
 40
0.018899377479148844
 40
0.018899377479148844
 40
0.018899377479148844
 40
0.018899377479148844
 40
0.027319391675923226
 40
0.027319391675923226
 40
0.027319391675923226
 40
0.027319391675923226
 40
0.027319391675923226
 40
0.027319391675923226
 40
0.027319391675923226
 40
0.037066638217096784
 40
0.037066638217096784
 40
0.037066638217096784
 40
0.037066638217096784
 40
0.037066638217096784
 40
0.037066638217096784
 40
0.037066638217096784
 40
0.04176246745317784
 40
0.04176246745317784
 40
0.04176246745317784
 40
0.04176246745317784
 40
0.04176246745317784
 40
0.04176246745317784
 40
0.04176246745317784
 40
0.046885685075956154
 40
0.046885685075956154
 40
0.046885685075956154
 40
0.046885685075956154
 40
0.046885685075956154
 40
0.046885685075956154
 40
0.046885685075956154
 40
0.06064264329452126
 40
0.06064264329452126
 40
0.06064264329452126
 40
0.06064264329452126
 40
0.06064264329452126
 40
0.06064264329452126
 40
0.06064264329452126
 40
0.07321818628007815
 40
0.07321818628007815
 40
0.07321818628007815
 40
0.07321818628007815
 40
0.07321818628007815
 40
0.07321818628007815
 40
0.07321818628007815
 40
0.08322514943994734
 40
0.08322514943994734
 40
0.08322514943994734
 40
0.08322514943994734
 40
0.08322514943994734
 40
0.08322514943994734
 40
0.08322514943994734
 40
0.1003545810285833
 40
0.1003545810285833
 40
0.1003545810285833
 40
0.1003545810285833
 40
0.1003545810285833
 40
0.1003545810285833
 40
0.1003545810285833
 40
0.10718254191561213
 40
0.10718254191561213
 40
0.10718254191561213
 40
0.10718254191561213
 40
0.10718254191561213
 40
0.10718254191561213
 40
0.10718254191561213
 40
0.11249081665536825
 40
0.11249081665536825
 40
0.11249081665536825
 40
0.11249081665536825
 40
0.11249081665536825
 40
0.11249081665536825
 40
0.11249081665536825
 40
0.1328591792182804
 40
0.1328591792182804
 40
0.1328591792182804
 40
0.1328591792182804
 40
0.1328591792182804
 40
0.1328591792182804
 40
0.1328591792182804
 40
0.15154045702176197
 40
0.15154045702176197
 40
0.15154045702176197
 40
0.15154045702176197
 40
0.15154045702176197
 40
0.15154045702176197
 40
0.15154045702176197
 40
0.15154045702176197
 40
0.15154045702176197
 10
85.49112642677504
 20
-64.11805146594929
 30
1965.0
 10
85.49432183726009
 20
-64.14735883813367
 30
1965.0
 10
85.50084612426095
 20
-64.1763995832701
 30
1965.0
 10
85.51026163143321
 20
-64.20492487148044
 30
1965.0
 10
85.52207734427142
 20
-64.23278349682798
 30
1965.0
 10
85.53585442194156
 20
-64.25989526486693
 30
1965.0
 10
85.55123897678342
 20
-64.28624068266228
 30
1965.0
 10
85.56796671318848
 20
-64.31185845528908
 30
1965.0
 10
85.61597763715993
 20
-64.37880467446007
 30
1965.0
 10
85.6493078092789
 20
-64.41881488408212
 30
1965.0
 10
85.68500040845456
 20
-64.4571978202873
 30
1965.0
 10
85.72251517565456
 20
-64.49411822229501
 30
1965.0
 10
85.76145915610763
 20
-64.52971587270956
 30
1965.0
 10
85.80155260677523
 20
-64.5641336025073
 30
1965.0
 10
85.84264383305464
 20
-64.59750795566724
 30
1965.0
 10
85.98379482739814
 20
-64.70661316139201
 30
1965.0
 10
86.08763411177682
 20
-64.77790622157532
 30
1965.0
 10
86.19455808274931
 20
-64.84534360638901
 30
1965.0
 10
86.30384681377144
 20
-64.90939821534799
 30
1965.0
 10
86.41488195986956
 20
-64.97058240810043
 30
1965.0
 10
86.52737261104166
 20
-65.02917709492637
 30
1965.0
 10
86.64113457851487
 20
-65.08548725898451
 30
1965.0
 10
86.87274517011598
 20
-65.19476972538169
 30
1965.0
 10
86.99046498476125
 20
-65.2476115998958
 30
1965.0
 10
87.10915890592965
 20
-65.29849185938103
 30
1965.0
 10
87.22870224513892
 20
-65.34755024973194
 30
1965.0
 10
87.34899963793781
 20
-65.39488872083419
 30
1965.0
 10
87.46997673762141
 20
-65.44058765199284
 30
1965.0
 10
87.59157655163311
 20
-65.48471315824872
 30
1965.0
 10
87.85823892905128
 20
-65.57769135453773
 30
1965.0
 10
88.00352001967497
 20
-65.62593312113123
 30
1965.0
 10
88.14952765853732
 20
-65.67212234235284
 30
1965.0
 10
88.29619946551044
 20
-65.71631116883266
 30
1965.0
 10
88.44348347289207
 20
-65.75853075349231
 30
1965.0
 10
88.59133598588605
 20
-65.7987967476144
 30
1965.0
 10
88.73972054499595
 20
-65.8371118763306
 30
1965.0
 10
89.06096430739555
 20
-65.9155496845912
 30
1965.0
 10
89.23398611442045
 20
-65.95500333388203
 30
1965.0
 10
89.40762691777259
 20
-65.9918107789045
 30
1965.0
 10
89.58184150347586
 20
-66.0259312988472
 30
1965.0
 10
89.75658503220738
 20
-66.05730228168825
 30
1965.0
 10
89.9318126073352
 20
-66.08584008520276
 30
1965.0
 10
90.10747931599883
 20
-66.11143869187362
 30
1965.0
 10
90.36836001951315
 20
-66.14481897980427
 30
1965.0
 10
90.4532396047351
 20
-66.15495289396544
 30
1965.0
 10
90.53814044437891
 20
-66.16435875131226
 30
1965.0
 10
90.623028135181
 20
-66.17300699889738
 30
1965.0
 10
90.70786968815405
 20
-66.18087959425375
 30
1965.0
 10
90.79263299827007
 20
-66.18797386414677
 30
1965.0
 10
90.87728902080755
 20
-66.19427830752699
 30
1965.0
 10
91.05403752528048
 20
-66.20565768175945
 30
1965.0
 10
91.14612877236776
 20
-66.21057501291602
 30
1965.0
 10
91.23808544732996
 20
-66.21441113465464
 30
1965.0
 10
91.32990260190932
 20
-66.21710484556313
 30
1965.0
 10
91.42157528788414
 20
-66.21859494431594
 30
1965.0
 10
91.51309855706849
 20
-66.2188202296741
 30
1965.0
 10
91.60446746131245
 20
-66.21771950048507
 30
1965.0
 10
91.9405947248546
 20
-66.2085508805268
 30
1965.0
 10
92.1853986117777
 20
-66.19183964091913
 30
1965.0
 10
92.42941010893726
 20
-66.16378012861978
 30
1965.0
 10
92.67179615315278
 20
-66.12314666655735
 30
1965.0
 10
92.91159278914378
 20
-66.06892049595348
 30
1965.0
 10
93.14773738238955
 20
-66.00045061114355
 30
1965.0
 10
93.37910022272766
 20
-65.91761723754065
 30
1965.0
 10
93.81055496300635
 20
-65.73259321478517
 30
1965.0
 10
94.01174351472385
 20
-65.63262603615694
 30
1965.0
 10
94.20721276448468
 20
-65.5214142283109
 30
1965.0
 10
94.39641749329698
 20
-65.39961777877186
 30
1965.0
 10
94.57905394937411
 20
-65.26808775862521
 30
1965.0
 10
94.75499942387934
 20
-65.12777468583732
 30
1965.0
 10
94.92426387020198
 20
-64.97965303985525
 30
1965.0
 10
95.21641356716873
 20
-64.7013280600439
 30
1965.0
 10
95.34174735021878
 20
-64.57360929087395
 30
1965.0
 10
95.46305338197706
 20
-64.4419293280986
 30
1965.0
 10
95.58046151812577
 20
-64.3066889014966
 30
1965.0
 10
95.6941215759139
 20
-64.16825551839264
 30
1965.0
 10
95.80419515400983
 20
-64.02695616136502
 30
1965.0
 10
95.91085070026075
 20
-63.883072927770804
 30
1965.0
 10
96.19127595230484
 20
-63.486529973561694
 30
1965.0
 10
96.35872437183045
 20
-63.22942185114012
 30
1965.0
 10
96.5175154927154
 20
-62.96666647993436
 30
1965.0
 10
96.66843526467619
 20
-62.6992157801618
 30
1965.0
 10
96.81217655637391
 20
-62.42784134940413
 30
1965.0
 10
96.94936147204876
 20
-62.15314732034518
 30
1965.0
 10
97.08055660877947
 20
-61.87557908298976
 30
1965.0
 10
97.25639634185227
 20
-61.48375682696582
 30
1965.0
 10
97.30633288030758
 20
-61.37013643629668
 30
1965.0
 10
97.3560894040378
 20
-61.25454856567862
 30
1965.0
 10
97.405664447352
 20
-61.13697508139839
 30
1965.0
 10
97.45505654456458
 20
-61.017397849706825
 30
1965.0
 10
97.50426422999548
 20
-60.89579873681879
 30
1965.0
 10
97.55328603797007
 20
-60.77215960891324
 30
1965.0
 10
97.640085974572
 20
-60.54874125695017
 30
1965.0
 10
97.67753556106305
 20
-60.45081546483474
 30
1965.0
 10
97.71448230656516
 20
-60.35269392066817
 30
1965.0
 10
97.75093942931146
 20
-60.254385276717514
 30
1965.0
 10
97.78692032149543
 20
-60.155897872635514
 30
1965.0
 10
97.82243854927079
 20
-60.05723973546065
 30
1965.0
 10
97.85750785275145
 20
-59.95841857961712
 30
1965.0
 10
98.02503727236046
 20
-59.479658376225316
 30
1965.0
 10
98.15154683336392
 20
-59.09761558419115
 30
1965.0
 10
98.27258585860417
 20
-58.71373968867658
 30
1965.0
 10
98.38880068650863
 20
-58.32834272419637
 30
1965.0
 10
98.50069845574217
 20
-57.94166335485597
 30
1965.0
 10
98.60869740272526
 20
-57.55388249909644
 30
1965.0
 10
98.7131428320781
 20
-57.1651282293016
 30
1965.0
 10
98.90714292068239
 20
-56.41811435265344
 30
1965.0
 10
98.99720749380342
 20
-56.060022325016206
 30
1965.0
 10
99.08475375592712
 20
-55.70128769631427
 30
1965.0
 10
99.16996897901609
 20
-55.341977325850486
 30
1965.0
 10
99.25301230031748
 20
-54.98214818708454
 30
1965.0
 10
99.33402173220354
 20
-54.621849006174486
 30
1965.0
 10
99.41311853633658
 20
-54.261121280394576
 30
1965.0
 10
99.49041031973718
 20
-53.900000002519405
 30
1965.0
  0
SPLINE
  5
45
330
17
100
AcDbEntity
  8
0
100
AcDbSpline
 70
0
 71
8
 72
347
 73
338
 74
0
 40
0.0
 40
0.0
 40
0.0
 40
0.0
 40
0.0
 40
0.0
 40
0.0
 40
0.0
 40
0.0
 40
0.0031936017565110763
 40
0.0031936017565110763
 40
0.0031936017565110763
 40
0.0031936017565110763
 40
0.0031936017565110763
 40
0.0031936017565110763
 40
0.0031936017565110763
 40
0.0054278799453138585
 40
0.0054278799453138585
 40
0.0054278799453138585
 40
0.0054278799453138585
 40
0.0054278799453138585
 40
0.0054278799453138585
 40
0.0054278799453138585
 40
0.012014018040657444
 40
0.012014018040657444
 40
0.012014018040657444
 40
0.012014018040657444
 40
0.012014018040657444
 40
0.012014018040657444
 40
0.012014018040657444
 40
0.016568309626109192
 40
0.016568309626109192
 40
0.016568309626109192
 40
0.016568309626109192
 40
0.016568309626109192
 40
0.016568309626109192
 40
0.016568309626109192
 40
0.02153662771932774
 40
0.02153662771932774
 40
0.02153662771932774
 40
0.02153662771932774
 40
0.02153662771932774
 40
0.02153662771932774
 40
0.02153662771932774
 40
0.03108835130749986
 40
0.03108835130749986
 40
0.03108835130749986
 40
0.03108835130749986
 40
0.03108835130749986
 40
0.03108835130749986
 40
0.03108835130749986
 40
0.04955843278170277
 40
0.04955843278170277
 40
0.04955843278170277
 40
0.04955843278170277
 40
0.04955843278170277
 40
0.04955843278170277
 40
0.04955843278170277
 40
0.061996481171418885
 40
0.061996481171418885
 40
0.061996481171418885
 40
0.061996481171418885
 40
0.061996481171418885
 40
0.061996481171418885
 40
0.061996481171418885
 40
0.06821550536628414
 40
0.06821550536628414
 40
0.06821550536628414
 40
0.06821550536628414
 40
0.06821550536628414
 40
0.06821550536628414
 40
0.06821550536628414
 40
0.07547102627464698
 40
0.07547102627464698
 40
0.07547102627464698
 40
0.07547102627464698
 40
0.07547102627464698
 40
0.07547102627464698
 40
0.07547102627464698
 40
0.10958565923541236
 40
0.10958565923541236
 40
0.10958565923541236
 40
0.10958565923541236
 40
0.10958565923541236
 40
0.10958565923541236
 40
0.10958565923541236
 40
0.16548176359502106
 40
0.16548176359502106
 40
0.16548176359502106
 40
0.16548176359502106
 40
0.16548176359502106
 40
0.16548176359502106
 40
0.16548176359502106
 40
0.2632934845498401
 40
0.2632934845498401
 40
0.2632934845498401
 40
0.2632934845498401
 40
0.2632934845498401
 40
0.2632934845498401
 40
0.2632934845498401
 40
0.3473714741924692
 40
0.3473714741924692
 40
0.3473714741924692
 40
0.3473714741924692
 40
0.3473714741924692
 40
0.3473714741924692
 40
0.3473714741924692
 40
0.40712328784899854
 40
0.40712328784899854
 40
0.40712328784899854
 40
0.40712328784899854
 40
0.40712328784899854
 40
0.40712328784899854
 40
0.40712328784899854
 40
0.444778854048458
 40
0.444778854048458
 40
0.444778854048458
 40
0.444778854048458
 40
0.444778854048458
 40
0.444778854048458
 40
0.444778854048458
 40
0.4582351215914908
 40
0.4582351215914908
 40
0.4582351215914908
 40
0.4582351215914908
 40
0.4582351215914908
 40
0.4582351215914908
 40
0.4582351215914908
 40
0.4716927327217658
 40
0.4716927327217658
 40
0.4716927327217658
 40
0.4716927327217658
 40
0.4716927327217658
 40
0.4716927327217658
 40
0.4716927327217658
 40
0.4926678773839783
 40
0.4926678773839783
 40
0.4926678773839783
 40
0.4926678773839783
 40
0.4926678773839783
 40
0.4926678773839783
 40
0.4926678773839783
 40
0.5037019945943552
 40
0.5037019945943552
 40
0.5037019945943552
 40
0.5037019945943552
 40
0.5037019945943552
 40
0.5037019945943552
 40
0.5037019945943552
 40
0.5095381569733592
 40
0.5095381569733592
 40
0.5095381569733592
 40
0.5095381569733592
 40
0.5095381569733592
 40
0.5095381569733592
 40
0.5095381569733592
 40
0.5126903080042862
 40
0.5126903080042862
 40
0.5126903080042862
 40
0.5126903080042862
 40
0.5126903080042862
 40
0.5126903080042862
 40
0.5126903080042862
 40
0.514608510965967
 40
0.514608510965967
 40
0.514608510965967
 40
0.514608510965967
 40
0.514608510965967
 40
0.514608510965967
 40
0.514608510965967
 40
0.517175917741429
 40
0.517175917741429
 40
0.517175917741429
 40
0.517175917741429
 40
0.517175917741429
 40
0.517175917741429
 40
0.517175917741429
 40
0.5197865363153329
 40
0.5197865363153329
 40
0.5197865363153329
 40
0.5197865363153329
 40
0.5197865363153329
 40
0.5197865363153329
 40
0.5197865363153329
 40
0.5235673006501711
 40
0.5235673006501711
 40
0.5235673006501711
 40
0.5235673006501711
 40
0.5235673006501711
 40
0.5235673006501711
 40
0.5235673006501711
 40
0.5283149978179222
 40
0.5283149978179222
 40
0.5283149978179222
 40
0.5283149978179222
 40
0.5283149978179222
 40
0.5283149978179222
 40
0.5283149978179222
 40
0.5373988933777039
 40
0.5373988933777039
 40
0.5373988933777039
 40
0.5373988933777039
 40
0.5373988933777039
 40
0.5373988933777039
 40
0.5373988933777039
 40
0.5549643263394768
 40
0.5549643263394768
 40
0.5549643263394768
 40
0.5549643263394768
 40
0.5549643263394768
 40
0.5549643263394768
 40
0.5549643263394768
 40
0.5667931677554309
 40
0.5667931677554309
 40
0.5667931677554309
 40
0.5667931677554309
 40
0.5667931677554309
 40
0.5667931677554309
 40
0.5667931677554309
 40
0.5727075884634083
 40
0.5727075884634083
 40
0.5727075884634083
 40
0.5727075884634083
 40
0.5727075884634083
 40
0.5727075884634083
 40
0.5727075884634083
 40
0.5796077389958633
 40
0.5796077389958633
 40
0.5796077389958633
 40
0.5796077389958633
 40
0.5796077389958633
 40
0.5796077389958633
 40
0.5796077389958633
 40
0.6120515248929386
 40
0.6120515248929386
 40
0.6120515248929386
 40
0.6120515248929386
 40
0.6120515248929386
 40
0.6120515248929386
 40
0.6120515248929386
 40
0.6652104056675158
 40
0.6652104056675158
 40
0.6652104056675158
 40
0.6652104056675158
 40
0.6652104056675158
 40
0.6652104056675158
 40
0.6652104056675158
 40
0.7582341157188273
 40
0.7582341157188273
 40
0.7582341157188273
 40
0.7582341157188273
 40
0.7582341157188273
 40
0.7582341157188273
 40
0.7582341157188273
 40
0.8381987882027166
 40
0.8381987882027166
 40
0.8381987882027166
 40
0.8381987882027166
 40
0.8381987882027166
 40
0.8381987882027166
 40
0.8381987882027166
 40
0.8950284628650453
 40
0.8950284628650453
 40
0.8950284628650453
 40
0.8950284628650453
 40
0.8950284628650453
 40
0.8950284628650453
 40
0.8950284628650453
 40
0.9308428322398724
 40
0.9308428322398724
 40
0.9308428322398724
 40
0.9308428322398724
 40
0.9308428322398724
 40
0.9308428322398724
 40
0.9308428322398724
 40
0.9436411794532479
 40
0.9436411794532479
 40
0.9436411794532479
 40
0.9436411794532479
 40
0.9436411794532479
 40
0.9436411794532479
 40
0.9436411794532479
 40
0.9564408046205799
 40
0.9564408046205799
 40
0.9564408046205799
 40
0.9564408046205799
 40
0.9564408046205799
 40
0.9564408046205799
 40
0.9564408046205799
 40
0.9763904040939136
 40
0.9763904040939136
 40
0.9763904040939136
 40
0.9763904040939136
 40
0.9763904040939136
 40
0.9763904040939136
 40
0.9763904040939136
 40
0.986885020187383
 40
0.986885020187383
 40
0.986885020187383
 40
0.986885020187383
 40
0.986885020187383
 40
0.986885020187383
 40
0.986885020187383
 40
0.9924358214253638
 40
0.9924358214253638
 40
0.9924358214253638
 40
0.9924358214253638
 40
0.9924358214253638
 40
0.9924358214253638
 40
0.9924358214253638
 40
0.9954338348973772
 40
0.9954338348973772
 40
0.9954338348973772
 40
0.9954338348973772
 40
0.9954338348973772
 40
0.9954338348973772
 40
0.9954338348973772
 40
0.9972582194791224
 40
0.9972582194791224
 40
0.9972582194791224
 40
0.9972582194791224
 40
0.9972582194791224
 40
0.9972582194791224
 40
0.9972582194791224
 40
0.998502768133679
 40
0.998502768133679
 40
0.998502768133679
 40
0.998502768133679
 40
0.998502768133679
 40
0.998502768133679
 40
0.998502768133679
 40
0.9990714759268152
 40
0.9990714759268152
 40
0.9990714759268152
 40
0.9990714759268152
 40
0.9990714759268152
 40
0.9990714759268152
 40
0.9990714759268152
 40
1.0
 40
1.0
 40
1.0
 40
1.0
 40
1.0
 40
1.0
 40
1.0
 40
1.0
 40
1.0
 10
85.49112642677504
 20
64.11805146594939
 30
1965.0
 10
85.49112902910822
 20
64.1180483336314
 30
1965.0
 10
85.49112424851168
 20
64.1180388125191
 30
1965.0
 10
85.49112532577811
 20
64.11814868087204
 30
1965.0
 10
85.49112788998107
 20
64.11788491596937
 30
1965.0
 10
85.49112715496904
 20
64.11726144489677
 30
1965.0
 10
85.49112488179885
 20
64.11688105805048
 30
1965.0
 10
85.49112610710885
 20
64.11697348535834
 30
1965.0
 10
85.49112530883986
 20
64.11428155659915
 30
1965.0
 10
85.49112487602933
 20
64.112822029716
 30
1965.0
 10
85.49112431971764
 20
64.11094603126571
 30
1965.0
 10
85.49112362062266
 20
64.10858853794556
 30
1965.0
 10
85.49112275946229
 20
64.10568452645278
 30
1965.0
 10
85.49112171695438
 20
64.10216897348465
 30
1965.0
 10
85.49112047381684
 20
64.09797685573844
 30
1965.0
 10
85.4911146980348
 20
64.07849972015326
 30
1965.0
 10
85.49110885671003
 20
64.0588015606195
 30
1965.0
 10
85.49110166668716
 20
64.03455531208466
 30
1965.0
 10
85.49109363617484
 20
64.00747475717499
 30
1965.0
 10
85.49108506013091
 20
63.97855455811175
 30
1965.0
 10
85.49107617669054
 20
63.9485977534613
 30
1965.0
 10
85.49106707768661
 20
63.91791402398492
 30
1965.0
 10
85.4910512950827
 20
63.86469180842346
 30
1965.0
 10
85.49104438122062
 20
63.84137683075632
 30
1965.0
 10
85.49103698626172
 20
63.816439494816656
 30
1965.0
 10
85.49102909092392
 20
63.78981477730175
 30
1965.0
 10
85.49102067592506
 20
63.76143765490884
 30
1965.0
 10
85.49101172198304
 20
63.7312431043352
 30
1965.0
 10
85.49100220981573
 20
63.699166102278106
 30
1965.0
 10
85.49098111322316
 20
63.6280240143331
 30
1965.0
 10
85.49096941902376
 20
63.58858874728738
 30
1965.0
 10
85.49095701250944
 20
63.54675140636603
 30
1965.0
 10
85.4909438686467
 20
63.50242757363732
 30
1965.0
 10
85.4909299624021
 20
63.45553283116953
 30
1965.0
 10
85.4909152687423
 20
63.40598276103089
 30
1965.0
 10
85.49089976263379
 20
63.353692945289666
 30
1965.0
 10
85.49085199805566
 20
63.19262087597081
 30
1965.0
 10
85.49082044083939
 20
63.08620339417547
 30
1965.0
 10
85.49078879164315
 20
62.97947573674424
 30
1965.0
 10
85.49075707594132
 20
62.87252380865858
 30
1965.0
 10
85.49072531104419
 20
62.765405983823456
 30
1965.0
 10
85.49069350823771
 20
62.658160320764054
 30
1965.0
 10
85.49066167217748
 20
62.55080251922651
 30
1965.0
 10
85.49056817862854
 20
62.23552287075066
 30
1965.0
 10
85.49050645222944
 20
62.02736864390147
 30
1965.0
 10
85.49044465686308
 20
61.81898184464299
 30
1965.0
 10
85.49038281141956
 20
61.610426175414524
 30
1965.0
 10
85.49032092873989
 20
61.40174493820591
 30
1965.0
 10
85.490259017229
 20
61.192966475498565
 30
1965.0
 10
85.49019708043002
 20
60.98410273661415
 30
1965.0
 10
85.49009339279293
 20
60.63444650747652
 30
1965.0
 10
85.49005032866731
 20
60.48922533949409
 30
1965.0
 10
85.49000590135749
 20
60.339407231411
 30
1965.0
 10
85.48996008583002
 20
60.18490776529551
 30
1965.0
 10
85.48991285705144
 20
60.02564252321586
 30
1965.0
 10
85.48986418998832
 20
59.86152708724034
 30
1965.0
 10
85.48981405960727
 20
59.69247703943723
 30
1965.0
 10
85.48973663150858
 20
59.43137342309345
 30
1965.0
 10
85.48971045005453
 20
59.34308412687241
 30
1965.0
 10
85.48968389338343
 20
59.253529520970105
 30
1965.0
 10
85.4896569583661
 20
59.16269905314502
 30
1965.0
 10
85.48962964187342
 20
59.07058217115569
 30
1965.0
 10
85.48960194077614
 20
58.97716832276061
 30
1965.0
 10
85.48957385194512
 20
58.88244695571836
 30
1965.0
 10
85.48951214597511
 20
58.67436161989399
 30
1965.0
 10
85.48947838644739
 20
58.56051907485511
 30
1965.0
 10
85.4894441050107
 20
58.44489663675176
 30
1965.0
 10
85.48940931301387
 20
58.32751106075653
 30
1965.0
 10
85.4893740218117
 20
58.208379103133716
 30
1965.0
 10
85.48933824276499
 20
58.08751752123925
 30
1965.0
 10
85.48930198724062
 20
57.9649430735207
 30
1965.0
 10
85.4890926103956
 20
57.25636652809368
 30
1965.0
 10
85.48892071784798
 20
56.6719439951653
 30
1965.0
 10
85.48875008231364
 20
56.08744062958836
 30
1965.0
 10
85.48858094906646
 20
55.502876173162214
 30
1965.0
 10
85.48841349792994
 20
54.91826427123108
 30
1965.0
 10
85.48824787842285
 20
54.333614380599876
 30
1965.0
 10
85.48808419678039
 20
53.74893112458926
 30
1965.0
 10
85.48765770625903
 20
52.206173971469894
 30
1965.0
 10
85.48739833355863
 20
51.248056130265255
 30
1965.0
 10
85.48714486777996
 20
50.28988253561381
 30
1965.0
 10
85.4868976334075
 20
49.3316654281331
 30
1965.0
 10
85.48665693094307
 20
48.373413620687174
 30
1965.0
 10
85.48642305983019
 20
47.41513357653546
 30
1965.0
 10
85.48619632006661
 20
46.4568294543744
 30
1965.0
 10
85.4855933018008
 20
43.821544949482444
 30
1965.0
 10
85.48523238868279
 20
42.144524310525995
 30
1965.0
 10
85.48489600101323
 20
40.46746067331257
 30
1965.0
 10
85.48458600126106
 20
38.79036638560293
 30
1965.0
 10
85.48430455126926
 20
37.11325101107859
 30
1965.0
 10
85.48405420744531
 20
35.436122432484005
 30
1965.0
 10
85.48383807849386
 20
33.75898708890993
 30
1965.0
 10
85.4835072208566
 20
30.640201267913763
 30
1965.0
 10
85.48338257492881
 20
29.198551819609495
 30
1965.0
 10
85.48328368284294
 20
27.756906538974444
 30
1965.0
 10
85.48320847591668
 20
26.31526972598866
 30
1965.0
 10
85.48315522710436
 20
24.8736461177285
 30
1965.0
 10
85.48312245328658
 20
23.432041224001193
 30
1965.0
 10
85.48310884774217
 20
21.990461919350956
 30
1965.0
 10
85.48311636624493
 20
19.524452906039254
 30
1965.0
 10
85.48312858063397
 20
18.500006928297296
 30
1965.0
 10
85.48314946470772
 20
17.47558198606241
 30
1965.0
 10
85.48317863214359
 20
16.451181942730187
 30
1965.0
 10
85.48321571416864
 20
15.426812457022038
 30
1965.0
 10
85.48326035436831
 20
14.402481095000798
 30
1965.0
 10
85.48331218895284
 20
13.37819818667274
 30
1965.0
 10
85.48340771340996
 20
11.708517537331126
 30
1965.0
 10
85.48344732686586
 20
11.063083363036686
 30
1965.0
 10
85.48348951557853
 20
10.417679379930052
 30
1965.0
 10
85.48353416476063
 20
9.772310000941452
 30
1965.0
 10
85.4835811288609
 20
9.126983267584391
 30
1965.0
 10
85.4836302376587
 20
8.481710608617558
 30
1965.0
 10
85.48368126781152
 20
7.836508363805699
 30
1965.0
 10
85.48375258969743
 20
6.960875867292173
 30
1965.0
 10
85.48377117635955
 20
6.735070532006043
 30
1965.0
 10
85.48378953332247
 20
6.514072982479181
 30
1965.0
 10
85.48380762121457
 20
6.297967628894805
 30
1965.0
 10
85.48382540066423
 20
6.086838881436164
 30
1965.0
 10
85.48384283229993
 20
5.880771150286532
 30
1965.0
 10
85.48385987675005
 20
5.67984884562921
 30
1965.0
 10
85.48389311419515
 20
5.288444370079361
 30
1965.0
 10
85.48390930093669
 20
5.09804496799066
 30
1965.0
 10
85.48392501079778
 20
4.912880256686776
 30
1965.0
 10
85.48394032294529
 20
4.732868348828006
 30
1965.0
 10
85.48395517037272
 20
4.557927817962494
 30
1965.0
 10
85.48396961379433
 20
4.387973370679603
 30
1965.0
 10
85.48398363436013
 20
4.222918892367119
 30
1965.0
 10
85.48401846478009
 20
3.8129200501781018
 30
1965.0
 10
85.48403967610616
 20
3.5632394536432876
 30
1965.0
 10
85.48406088124905
 20
3.313636072352507
 30
1965.0
 10
85.4840820793136
 20
3.0641209593215706
 30
1965.0
 10
85.48410326823152
 20
2.814719151396039
 30
1965.0
 10
85.484124444847
 20
2.565468661564875
 30
1965.0
 10
85.48414560452893
 20
2.316425182670873
 30
1965.0
 10
85.48417785746761
 20
1.9368320612186327
 30
1965.0
 10
85.48418896728593
 20
1.8060804521889544
 30
1965.0
 10
85.48420006869425
 20
1.6754308200688381
 30
1965.0
 10
85.48421116050203
 20
1.5448975313909088
 30
1965.0
 10
85.48422223985025
 20
1.4145147121426263
 30
1965.0
 10
85.4842333023559
 20
1.2843345443968275
 30
1965.0
 10
85.48424434157076
 20
1.1544337329602943
 30
1965.0
 10
85.48426116697154
 20
0.9564558895241166
 30
1965.0
 10
85.48426697581488
 20
0.8881074075076612
 30
1965.0
 10
85.48427277283425
 20
0.8199001502680456
 30
1965.0
 10
85.48427855636903
 20
0.7518539105944129
 30
1965.0
 10
85.4842843222398
 20
0.6840182091947149
 30
1965.0
 10
85.48429006398695
 20
0.6164694826939865
 30
1965.0
 10
85.48429577209404
 20
0.5493202812990674
 30
1965.0
 10
85.48430448595738
 20
0.4468192801753901
 30
1965.0
 10
85.48430752389147
 20
0.41108553692921035
 30
1965.0
 10
85.48431054387243
 20
0.37556454981794296
 30
1965.0
 10
85.48431354308691
 20
0.34028961211043907
 30
1965.0
 10
85.48431651485764
 20
0.305339523112254
 30
1965.0
 10
85.48431944881209
 20
0.2708366106486402
 30
1965.0
 10
85.48432232982553
 20
0.23695919433643198
 30
1965.0
 10
85.48432683933419
 20
0.18393841205232597
 30
1965.0
 10
85.48432851295956
 20
0.1642620645098809
 30
1965.0
 10
85.48433015168584
 20
0.14499758127400675
 30
1965.0
 10
85.48433174697024
 20
0.1262456036964963
 30
1965.0
 10
85.48433328501665
 20
0.10816854802184217
 30
1965.0
 10
85.4843347458462
 20
0.09100153373948672
 30
1965.0
 10
85.484336103503
 20
0.07504989801835649
 30
1965.0
 10
85.4843389721854
 20
0.04135226566681638
 30
1965.0
 10
85.48434039592533
 20
0.02460798252263885
 30
1965.0
 10
85.48434147814731
 20
0.012040428899254607
 30
1965.0
 10
85.48434211731478
 20
0.004250976987847821
 30
1965.0
 10
85.48434245617173
 20
0.000698475926853348
 30
1965.0
 10
85.48434250419048
 20
-0.00019673881392634485
 30
1965.0
 10
85.48434250183023
 20
2.3720894077428056e-05
 30
1965.0
 10
85.48434249703838
 20
-2.8265386177395158e-05
 30
1965.0
 10
85.4843424719701
 20
-0.0003103322042363743
 30
1965.0
 10
85.48434230035606
 20
-0.0023068337093405944
 30
1965.0
 10
85.48434183578235
 20
-0.007742614195976216
 30
1965.0
 10
85.4843409581925
 20
-0.018033994038276546
 30
1965.0
 10
85.48433966918226
 20
-0.03316517295553467
 30
1965.0
 10
85.48433805077042
 20
-0.05217344055330386
 30
1965.0
 10
85.48433367069
 20
-0.10363371285714074
 30
1965.0
 10
85.48433066443764
 20
-0.13896584299222425
 30
1965.0
 10
85.48432741684155
 20
-0.1771436467442573
 30
1965.0
 10
85.48432403418994
 20
-0.21691543815244785
 30
1965.0
 10
85.48432058037707
 20
-0.25752861778256264
 30
1965.0
 10
85.48431708610003
 20
-0.2986214566268526
 30
1965.0
 10
85.48431355035025
 20
-0.3402050612872731
 30
1965.0
 10
85.48430541199694
 20
-0.43592564590037153
 30
1965.0
 10
85.48430082775594
 20
-0.48984819078797415
 30
1965.0
 10
85.48429620709241
 20
-0.5442024976058262
 30
1965.0
 10
85.4842915601921
 20
-0.5988682278347142
 30
1965.0
 10
85.4842868940054
 20
-0.653763238567052
 30
1965.0
 10
85.48428221304765
 20
-0.7088341088678316
 30
1965.0
 10
85.48427751919907
 20
-0.7640584908099095
 30
1965.0
 10
85.48426380725388
 20
-0.925388035196784
 30
1965.0
 10
85.48425476340623
 20
-1.0318005892205768
 30
1965.0
 10
85.48424569360036
 20
-1.1385233321192914
 30
1965.0
 10
85.48423660507419
 20
-1.2454703554833628
 30
1965.0
 10
85.48422750274221
 20
-1.3525832830279052
 30
1965.0
 10
85.4842183898017
 20
-1.4598240546357175
 30
1965.0
 10
85.4842092675598
 20
-1.5671769697344526
 30
1965.0
 10
85.48418247871525
 20
-1.882442135116288
 30
1965.0
 10
85.48416479292676
 20
-2.0905867754900154
 30
1965.0
 10
85.48414708797706
 20
-2.298963998715588
 30
1965.0
 10
85.48412936918548
 20
-2.5075100994732367
 30
1965.0
 10
85.48411164016264
 20
-2.7161817739223544
 30
1965.0
 10
85.48409390326184
 20
-2.924950678376433
 30
1965.0
 10
85.48407615945831
 20
-3.13380486283043
 30
1965.0
 10
85.48404645529054
 20
-3.4834450837271658
 30
1965.0
 10
85.48403411853161
 20
-3.6286595870051737
 30
1965.0
 10
85.48402139139606
 20
-3.778470819414298
 30
1965.0
 10
85.48400826671768
 20
-3.9329631950120376
 30
1965.0
 10
85.48399473733015
 20
-4.092221127855891
 30
1965.0
 10
85.4839807960672
 20
-4.25632903200335
 30
1965.0
 10
85.48396643576255
 20
-4.425371321511907
 30
1965.0
 10
85.48394425599352
 20
-4.6864629549026295
 30
1965.0
 10
85.48393675618519
 20
-4.774748199220873
 30
1965.0
 10
85.48392914892905
 20
-4.864298695150955
 30
1965.0
 10
85.48392143332939
 20
-4.955124994450058
 30
1965.0
 10
85.48391360849031
 20
-5.047237648875367
 30
1965.0
 10
85.48390567351612
 20
-5.140647210184074
 30
1965.0
 10
85.483897627511
 20
-5.235364230133375
 30
1965.0
 10
85.4838799520016
 20
-5.443440016203144
 30
1965.0
 10
85.48387028138713
 20
-5.557277336497384
 30
1965.0
 10
85.48386046553301
 20
-5.67289446958888
 30
1965.0
 10
85.48385051224246
 20
-5.79027466261182
 30
1965.0
 10
85.48384042932433
 20
-5.909401161608863
 30
1965.0
 10
85.48383022459338
 20
-6.030257211531156
 30
1965.0
 10
85.48381990587012
 20
-6.152826056238322
 30
1965.0
 10
85.48376046424245
 20
-6.861371414063533
 30
1965.0
 10
85.48371223676723
 20
-7.445768437308367
 30
1965.0
 10
85.48366528412815
 20
-8.03024629763462
 30
1965.0
 10
85.48361984730849
 20
-8.614785252073638
 30
1965.0
 10
85.48357610316073
 20
-9.199371654567278
 30
1965.0
 10
85.48353419913407
 20
-9.783996047821518
 30
1965.0
 10
85.48349424043685
 20
-10.368653808139022
 30
1965.0
 10
85.48339420825386
 20
-11.911351336574889
 30
1965.0
 10
85.48333758093987
 20
-12.869435052177021
 30
1965.0
 10
85.48328687322024
 20
-13.827574524720186
 30
1965.0
 10
85.4832424068662
 20
-14.785757512646384
 30
1965.0
 10
85.48320448041179
 20
-15.74397520240366
 30
1965.0
 10
85.48317339183968
 20
-16.702221130256596
 30
1965.0
 10
85.48314944018213
 20
-17.660491137273546
 30
1965.0
 10
85.48310407873015
 20
-20.295714532070853
 30
1965.0
 10
85.48309804451917
 20
-21.97270818015744
 30
1965.0
 10
85.48311654655453
 20
-23.6497448294158
 30
1965.0
 10
85.48316144434327
 20
-25.326812130742944
 30
1965.0
 10
85.4832348973015
 20
-27.0039005197299
 30
1965.0
 10
85.48333945967569
 20
-28.68100211326035
 30
1965.0
 10
85.48347823814906
 20
-30.358110472171326
 30
1965.0
 10
85.48380736548623
 20
-33.4768895594903
 30
1965.0
 10
85.48398779891134
 20
-34.918559258449655
 30
1965.0
 10
85.48419398546665
 20
-36.3602247901295
 30
1965.0
 10
85.48442385511348
 20
-37.80188185455795
 30
1965.0
 10
85.48467567946932
 20
-39.243525714875666
 30
1965.0
 10
85.4849479739754
 20
-40.685150861686076
 30
1965.0
 10
85.48523943021246
 20
-42.12675042111462
 30
1965.0
 10
85.48576879845254
 20
-44.59281351185625
 30
1965.0
 10
85.48599780525306
 20
-45.61729331031243
 30
1965.0
 10
85.4862354768434
 20
-46.64175207422464
 30
1965.0
 10
85.48648142598327
 20
-47.66618594042091
 30
1965.0
 10
85.48673528260105
 20
-48.69058925061197
 30
1965.0
 10
85.48699668857434
 20
-49.71495443935364
 30
1965.0
 10
85.4872652778045
 20
-50.73927117748322
 30
1965.0
 10
85.48771413331542
 20
-52.409013000633784
 30
1965.0
 10
85.48789033156588
 20
-53.054474515951675
 30
1965.0
 10
85.48806909827636
 20
-53.699905841632194
 30
1965.0
 10
85.48825031767602
 20
-54.345302565054894
 30
1965.0
 10
85.48843384244681
 20
-54.99065664516439
 30
1965.0
 10
85.48861949987052
 20
-55.63595665387233
 30
1965.0
 10
85.48880706304199
 20
-56.28118625244322
 30
1965.0
 10
85.48906367889474
 20
-57.15685649489487
 30
1965.0
 10
85.48913004860782
 20
-57.38267205071507
 30
1965.0
 10
85.48919517113376
 20
-57.603679643089635
 30
1965.0
 10
85.48925898923605
 20
-57.819794850212624
 30
1965.0
 10
85.48932144567819
 20
-58.03093325027807
 30
1965.0
 10
85.48938248322368
 20
-58.23701042147997
 30
1965.0
 10
85.489442044636
 20
-58.437941942012394
 30
1965.0
 10
85.48955810651562
 20
-58.82936437951213
 30
1965.0
 10
85.48961458321372
 20
-59.01977252004834
 30
1965.0
 10
85.48966947518747
 20
-59.204945729743756
 30
1965.0
 10
85.48972287894634
 20
-59.38496589943868
 30
1965.0
 10
85.4897747447087
 20
-59.55991445932804
 30
1965.0
 10
85.489825151249
 20
-59.72987670666791
 30
1965.0
 10
85.48987409794115
 20
-59.89493876016643
 30
1965.0
 10
85.48999568524641
 20
-60.30495638474601
 30
1965.0
 10
85.49006972933367
 20
-60.55464841255445
 30
1965.0
 10
85.49014375052461
 20
-60.80426322862543
 30
1965.0
 10
85.49021774554139
 20
-61.05378978049866
 30
1965.0
 10
85.49029170696
 20
-61.303203032428485
 30
1965.0
 10
85.49036562350871
 20
-61.55246497309832
 30
1965.0
 10
85.49043947867263
 20
-61.801519912158966
 30
1965.0
 10
85.49055204901501
 20
-62.181130466722465
 30
1965.0
 10
85.49059082408219
 20
-62.31188803972032
 30
1965.0
 10
85.49062956891031
 20
-62.442543640431715
 30
1965.0
 10
85.49066827923936
 20
-62.573082902986236
 30
1965.0
 10
85.49070694494999
 20
-62.70347170289414
 30
1965.0
 10
85.49074555056866
 20
-62.83365786030555
 30
1965.0
 10
85.49078407335011
 20
-62.963564673513574
 30
1965.0
 10
85.49084278472601
 20
-63.161551616501434
 30
1965.0
 10
85.49086305381314
 20
-63.229903184788114
 30
1965.0
 10
85.49088328102334
 20
-63.29811353447323
 30
1965.0
 10
85.49090346048705
 20
-63.36616287392979
 30
1965.0
 10
85.4909235775201
 20
-63.434001684338114
 30
1965.0
 10
85.49094360945696
 20
-63.50155353183761
 30
1965.0
 10
85.49096352292247
 20
-63.56870587006806
 30
1965.0
 10
85.4909939201383
 20
-63.67121158982982
 30
1965.0
 10
85.49100451714659
 20
-63.70694690079129
 30
1965.0
 10
85.49101505106637
 20
-63.74246946423478
 30
1965.0
 10
85.49102551202557
 20
-63.77774598947026
 30
1965.0
 10
85.49103587665752
 20
-63.8126976792139
 30
1965.0
 10
85.49104610868761
 20
-63.84720220802484
 30
1965.0
 10
85.49105615523742
 20
-63.881081258780675
 30
1965.0
 10
85.49107187883043
 20
-63.934104477288436
 30
1965.0
 10
85.49107771392208
 20
-63.95378161715546
 30
1965.0
 10
85.49108342688336
 20
-63.973046908297114
 30
1965.0
 10
85.49108898787132
 20
-63.99179971360624
 30
1965.0
 10
85.4910943487225
 20
-64.00987761610689
 30
1965.0
 10
85.49109943971177
 20
-64.02704548866902
 30
1965.0
 10
85.49110417028874
 20
-64.04299797567955
 30
1965.0
 10
85.49111135904235
 20
-64.0672399447102
 30
1965.0
 10
85.49111406488495
 20
-64.07636460744419
 30
1965.0
 10
85.49111651613529
 20
-64.08463073229582
 30
1965.0
 10
85.49111867413536
 20
-64.09190795623955
 30
1965.0
 10
85.4911205138523
 20
-64.09811186349502
 30
1965.0
 10
85.4911220285016
 20
-64.10321957530809
 30
1965.0
 10
85.49112323167965
 20
-64.10727694130225
 30
1965.0
 10
85.49112457984162
 20
-64.11182322340862
 30
1965.0
 10
85.49112494266225
 20
-64.11304672988632
 30
1965.0
 10
85.49112525043648
 20
-64.1140846084025
 30
1965.0
 10
85.49112550813334
 20
-64.11495361552578
 30
1965.0
 10
85.49112572072177
 20
-64.11567050782479
 30
1965.0
 10
85.49112589317082
 20
-64.11625204186817
 30
1965.0
 10
85.49112603044954
 20
-64.11671497422452
 30
1965.0
 10
85.49112631235124
 20
-64.11766560533195
 30
1965.0
 10
85.49115123561528
 20
-64.11784883077308
 30
1965.0
 10
85.49116616542513
 20
-64.11786102968611
 30
1965.0
 10
85.49115423817828
 20
-64.11785834572989
 30
1965.0
 10
85.49111646856372
 20
-64.11791777432221
 30
1965.0
 10
85.49107174956184
 20
-64.11803716263957
 30
1965.0
 10
85.49105685244452
 20
-64.11813520961728
 30
1965.0
 10
85.49112642677504
 20
-64.11805146594939
 30
1965.0
  0
ENDSEC
  0
SECTION
  2
OBJECTS
  0
DICTIONARY
  5
A
330
0
100
AcDbDictionary
281
1
  3
ACAD_COLOR
350
B
  3
ACAD_GROUP
350
C
  3
ACAD_LAYOUT
350
D
  3
ACAD_MATERIAL
350
E
  3
ACAD_MLEADERSTYLE
350
F
  3
ACAD_MLINESTYLE
350
10
  3
ACAD_PLOTSETTINGS
350
11
  3
ACAD_PLOTSTYLENAME
350
12
  3
ACAD_SCALELIST
350
14
  3
ACAD_TABLESTYLE
350
15
  3
ACAD_VISUALSTYLE
350
16
  3
EZDXF_META
350
2D
  0
DICTIONARY
  5
B
330
A
100
AcDbDictionary
281
1
  0
DICTIONARY
  5
C
330
A
100
AcDbDictionary
281
1
  0
DICTIONARY
  5
D
330
A
100
AcDbDictionary
281
1
  3
Model
350
1A
  3
Layout1
350
1E
  0
DICTIONARY
  5
E
330
A
100
AcDbDictionary
281
1
  3
ByBlock
350
1F
  3
ByLayer
350
20
  3
Global
350
21
  0
DICTIONARY
  5
F
330
A
100
AcDbDictionary
281
1
  3
Standard
350
2C
  0
DICTIONARY
  5
10
330
A
100
AcDbDictionary
281
1
  3
Standard
350
22
  0
DICTIONARY
  5
11
330
A
100
AcDbDictionary
281
1
  0
ACDBDICTIONARYWDFLT
  5
12
330
A
100
AcDbDictionary
281
1
  3
Normal
350
13
100
AcDbDictionaryWithDefault
340
13
  0
ACDBPLACEHOLDER
  5
13
330
12
  0
DICTIONARY
  5
14
330
A
100
AcDbDictionary
281
1
  0
DICTIONARY
  5
15
330
A
100
AcDbDictionary
281
1
  0
DICTIONARY
  5
16
330
A
100
AcDbDictionary
281
1
  0
LAYOUT
  5
1A
330
D
100
AcDbPlotSettings
  1

  2
Adobe PDF
  4
A3
  6

 40
7.5
 41
20.0
 42
7.5
 43
20.0
 44
420.0
 45
297.0
 46
0.0
 47
0.0
 48
0.0
 49
0.0
140
0.0
141
0.0
142
1.0
143
1.0
 70
1024
 72
1
 73
1
 74
5
  7

 75
16
 76
0
 77
2
 78
300
147
1.0
148
0.0
149
0.0
100
AcDbLayout
  1
Model
 70
1
 71
0
 10
0.0
 20
0.0
 11
420.0
 21
297.0
 12
0.0
 22
0.0
 32
0.0
 14
1e+20
 24
1e+20
 34
1e+20
 15
-1e+20
 25
-1e+20
 35
-1e+20
146
0.0
 13
0.0
 23
0.0
 33
0.0
 16
1.0
 26
0.0
 36
0.0
 17
0.0
 27
1.0
 37
0.0
 76
1
330
17
  0
LAYOUT
  5
1E
330
D
100
AcDbPlotSettings
  1

  2
Adobe PDF
  4
A3
  6

 40
7.5
 41
20.0
 42
7.5
 43
20.0
 44
420.0
 45
297.0
 46
0.0
 47
0.0
 48
0.0
 49
0.0
140
0.0
141
0.0
142
1.0
143
1.0
 70
0
 72
1
 73
1
 74
5
  7

 75
16
 76
0
 77
2
 78
300
147
1.0
148
0.0
149
0.0
100
AcDbLayout
  1
Layout1
 70
1
 71
1
 10
0.0
 20
0.0
 11
420.0
 21
297.0
 12
0.0
 22
0.0
 32
0.0
 14
1e+20
 24
1e+20
 34
1e+20
 15
-1e+20
 25
-1e+20
 35
-1e+20
146
0.0
 13
0.0
 23
0.0
 33
0.0
 16
1.0
 26
0.0
 36
0.0
 17
0.0
 27
1.0
 37
0.0
 76
1
330
1B
  0
MATERIAL
  5
1F
102
{ACAD_REACTORS
330
E
102
}
330
E
100
AcDbMaterial
  1
ByBlock
  2

 70
0
 40
1.0
 71
1
 41
1.0
 91
-1023410177
 42
1.0
 72
1
  3

 73
1
 74
1
 75
1
 44
0.5
 73
0
 45
1.0
 46
1.0
 77
1
  4

 78
1
 79
1
170
1
 48
1.0
171
1
  6

172
1
173
1
174
1
140
1.0
141
1.0
175
1
  7

176
1
177
1
178
1
143
1.0
179
1
  8

270
1
271
1
272
1
145
1.0
146
1.0
273
1
  9

274
1
275
1
276
1
 42
1.0
 72
1
  3

 73
1
 74
1
 75
1
 94
63
  0
MATERIAL
  5
20
102
{ACAD_REACTORS
330
E
102
}
330
E
100
AcDbMaterial
  1
ByLayer
  2

 70
0
 40
1.0
 71
1
 41
1.0
 91
-1023410177
 42
1.0
 72
1
  3

 73
1
 74
1
 75
1
 44
0.5
 73
0
 45
1.0
 46
1.0
 77
1
  4

 78
1
 79
1
170
1
 48
1.0
171
1
  6

172
1
173
1
174
1
140
1.0
141
1.0
175
1
  7

176
1
177
1
178
1
143
1.0
179
1
  8

270
1
271
1
272
1
145
1.0
146
1.0
273
1
  9

274
1
275
1
276
1
 42
1.0
 72
1
  3

 73
1
 74
1
 75
1
 94
63
  0
MATERIAL
  5
21
102
{ACAD_REACTORS
330
E
102
}
330
E
100
AcDbMaterial
  1
Global
  2

 70
0
 40
1.0
 71
1
 41
1.0
 91
-1023410177
 42
1.0
 72
1
  3

 73
1
 74
1
 75
1
 44
0.5
 73
0
 45
1.0
 46
1.0
 77
1
  4

 78
1
 79
1
170
1
 48
1.0
171
1
  6

172
1
173
1
174
1
140
1.0
141
1.0
175
1
  7

176
1
177
1
178
1
143
1.0
179
1
  8

270
1
271
1
272
1
145
1.0
146
1.0
273
1
  9

274
1
275
1
276
1
 42
1.0
 72
1
  3

 73
1
 74
1
 75
1
 94
63
  0
MLINESTYLE
  5
22
102
{ACAD_REACTORS
330
10
102
}
330
10
100
AcDbMlineStyle
  2
Standard
 70
0
  3

 62
256
 51
90.0
 52
90.0
 71
2
 49
0.5
 62
256
  6
BYLAYER
 49
-0.5
 62
256
  6
BYLAYER
  0
MLEADERSTYLE
  5
2C
102
{ACAD_REACTORS
330
F
102
}
330
F
100
AcDbMLeaderStyle
179
2
170
2
171
1
172
0
 90
2
 40
0.0
 41
0.0
173
1
 91
-1056964608
 92
-2
290
1
 42
2.0
291
1
 43
8.0
  3
Standard
 44
4.0
300

342
29
174
1
175
1
176
0
178
1
 93
-1056964608
 45
4.0
292
0
297
0
 46
4.0
 94
-1056964608
 47
1.0
 49
1.0
140
1.0
294
1
141
0.0
177
0
142
1.0
295
0
296
0
143
3.75
271
0
272
9
273
9
  0
DICTIONARY
  5
2D
330
A
100
AcDbDictionary
280
1
281
1
  3
CREATED_BY_EZDXF
350
2E
  3
WRITTEN_BY_EZDXF
350
48
  0
DICTIONARYVAR
  5
2E
330
2D
100
DictionaryVariables
280
0
  1
0.17 @ 2022-02-15T16:45:48.876282+00:00
  0
DICTIONARYVAR
  5
48
330
2D
100
DictionaryVariables
280
0
  1
0.17 @ 2022-02-15T16:45:48.909914+00:00
  0
ENDSEC
  0
EOF
