  0
SECTION
  2
HEADER
  9
$ACADVER
  1
AC1027
  9
$ACADMAINTVER
 70
105
  9
$DWGCODEPAGE
  3
ANSI_1252
  9
$LASTSAVEDBY
  1
ezdxf
  9
$REQUIREDVERSIONS
160
0
  9
$INSBASE
 10
0.0
 20
0.0
 30
0.0
  9
$EXTMIN
 10
1e+20
 20
1e+20
 30
1e+20
  9
$EXTMAX
 10
-1e+20
 20
-1e+20
 30
-1e+20
  9
$LIMMIN
 10
0.0
 20
0.0
  9
$LIMMAX
 10
420.0
 20
297.0
  9
$ORTHOMODE
 70
0
  9
$REGENMODE
 70
1
  9
$FILLMODE
 70
1
  9
$QTEXTMODE
 70
0
  9
$MIRRTEXT
 70
1
  9
$LTSCALE
 40
1.0
  9
$ATTMODE
 70
1
  9
$TEXTSIZE
 40
2.5
  9
$TRACEWID
 40
1.0
  9
$TEXTSTYLE
  7
Standard
  9
$CLAYER
  8
0
  9
$CELTYPE
  6
ByLayer
  9
$CECOLOR
 62
256
  9
$CELTSCALE
 40
1.0
  9
$DISPSILH
 70
0
  9
$DIMSCALE
 40
1.0
  9
$DIMASZ
 40
2.5
  9
$DIMEXO
 40
0.625
  9
$DIMDLI
 40
3.75
  9
$DIMRND
 40
0.0
  9
$DIMDLE
 40
0.0
  9
$DIMEXE
 40
1.25
  9
$DIMTP
 40
0.0
  9
$DIMTM
 40
0.0
  9
$DIMTXT
 40
2.5
  9
$DIMCEN
 40
2.5
  9
$DIMTSZ
 40
0.0
  9
$DIMTOL
 70
0
  9
$DIMLIM
 70
0
  9
$DIMTIH
 70
0
  9
$DIMTOH
 70
0
  9
$DIMSE1
 70
0
  9
$DIMSE2
 70
0
  9
$DIMTAD
 70
1
  9
$DIMZIN
 70
8
  9
$DIMBLK
  1

  9
$DIMASO
 70
1
  9
$DIMSHO
 70
1
  9
$DIMPOST
  1

  9
$DIMAPOST
  1

  9
$DIMALT
 70
0
  9
$DIMALTD
 70
3
  9
$DIMALTF
 40
0.03937007874
  9
$DIMLFAC
 40
1.0
  9
$DIMTOFL
 70
1
  9
$DIMTVP
 40
0.0
  9
$DIMTIX
 70
0
  9
$DIMSOXD
 70
0
  9
$DIMSAH
 70
0
  9
$DIMBLK1
  1

  9
$DIMBLK2
  1

  9
$DIMSTYLE
  2
ISO-25
  9
$DIMCLRD
 70
0
  9
$DIMCLRE
 70
0
  9
$DIMCLRT
 70
0
  9
$DIMTFAC
 40
1.0
  9
$DIMGAP
 40
0.625
  9
$DIMJUST
 70
0
  9
$DIMSD1
 70
0
  9
$DIMSD2
 70
0
  9
$DIMTOLJ
 70
0
  9
$DIMTZIN
 70
8
  9
$DIMALTZ
 70
0
  9
$DIMALTTZ
 70
0
  9
$DIMUPT
 70
0
  9
$DIMDEC
 70
2
  9
$DIMTDEC
 70
2
  9
$DIMALTU
 70
2
  9
$DIMALTTD
 70
3
  9
$DIMTXSTY
  7
Standard
  9
$DIMAUNIT
 70
0
  9
$DIMADEC
 70
0
  9
$DIMALTRND
 40
0.0
  9
$DIMAZIN
 70
0
  9
$DIMDSEP
 70
44
  9
$DIMATFIT
 70
3
  9
$DIMFRAC
 70
0
  9
$DIMLDRBLK
  1

  9
$DIMLUNIT
 70
2
  9
$DIMLWD
 70
-2
  9
$DIMLWE
 70
-2
  9
$DIMTMOVE
 70
0
  9
$DIMFXL
 40
1.0
  9
$DIMFXLON
 70
0
  9
$DIMJOGANG
 40
0.785398163397
  9
$DIMTFILL
 70
0
  9
$DIMTFILLCLR
 70
0
  9
$DIMARCSYM
 70
0
  9
$DIMLTYPE
  6

  9
$DIMLTEX1
  6

  9
$DIMLTEX2
  6

  9
$DIMTXTDIRECTION
 70
0
  9
$LUNITS
 70
2
  9
$LUPREC
 70
4
  9
$SKETCHINC
 40
1.0
  9
$FILLETRAD
 40
10.0
  9
$AUNITS
 70
0
  9
$AUPREC
 70
2
  9
$MENU
  1
.
  9
$ELEVATION
 40
0.0
  9
$PELEVATION
 40
0.0
  9
$THICKNESS
 40
0.0
  9
$LIMCHECK
 70
0
  9
$CHAMFERA
 40
0.0
  9
$CHAMFERB
 40
0.0
  9
$CHAMFERC
 40
0.0
  9
$CHAMFERD
 40
0.0
  9
$SKPOLY
 70
0
  9
$TDCREATE
 40
2459626.720798611
  9
$TDUCREATE
 40
2458532.153996898
  9
$TDUPDATE
 40
2459626.720798611
  9
$TDUUPDATE
 40
2458532.1544311
  9
$TDINDWG
 40
0.0
  9
$TDUSRTIMER
 40
0.0
  9
$USRTIMER
 70
1
  9
$ANGBASE
 50
0.0
  9
$ANGDIR
 70
0
  9
$PDMODE
 70
0
  9
$PDSIZE
 40
0.0
  9
$PLINEWID
 40
0.0
  9
$SPLFRAME
 70
0
  9
$SPLINETYPE
 70
6
  9
$SPLINESEGS
 70
8
  9
$HANDSEED
  5
69
  9
$SURFTAB1
 70
6
  9
$SURFTAB2
 70
6
  9
$SURFTYPE
 70
6
  9
$SURFU
 70
6
  9
$SURFV
 70
6
  9
$UCSBASE
  2

  9
$UCSNAME
  2

  9
$UCSORG
 10
0.0
 20
0.0
 30
0.0
  9
$UCSXDIR
 10
1.0
 20
0.0
 30
0.0
  9
$UCSYDIR
 10
0.0
 20
1.0
 30
0.0
  9
$UCSORTHOREF
  2

  9
$UCSORTHOVIEW
 70
0
  9
$UCSORGTOP
 10
0.0
 20
0.0
 30
0.0
  9
$UCSORGBOTTOM
 10
0.0
 20
0.0
 30
0.0
  9
$UCSORGLEFT
 10
0.0
 20
0.0
 30
0.0
  9
$UCSORGRIGHT
 10
0.0
 20
0.0
 30
0.0
  9
$UCSORGFRONT
 10
0.0
 20
0.0
 30
0.0
  9
$UCSORGBACK
 10
0.0
 20
0.0
 30
0.0
  9
$PUCSBASE
  2

  9
$PUCSNAME
  2

  9
$PUCSORG
 10
0.0
 20
0.0
 30
0.0
  9
$PUCSXDIR
 10
1.0
 20
0.0
 30
0.0
  9
$PUCSYDIR
 10
0.0
 20
1.0
 30
0.0
  9
$PUCSORTHOREF
  2

  9
$PUCSORTHOVIEW
 70
0
  9
$PUCSORGTOP
 10
0.0
 20
0.0
 30
0.0
  9
$PUCSORGBOTTOM
 10
0.0
 20
0.0
 30
0.0
  9
$PUCSORGLEFT
 10
0.0
 20
0.0
 30
0.0
  9
$PUCSORGRIGHT
 10
0.0
 20
0.0
 30
0.0
  9
$PUCSORGFRONT
 10
0.0
 20
0.0
 30
0.0
  9
$PUCSORGBACK
 10
0.0
 20
0.0
 30
0.0
  9
$USERI1
 70
0
  9
$USERI2
 70
0
  9
$USERI3
 70
0
  9
$USERI4
 70
0
  9
$USERI5
 70
0
  9
$USERR1
 40
0.0
  9
$USERR2
 40
0.0
  9
$USERR3
 40
0.0
  9
$USERR4
 40
0.0
  9
$USERR5
 40
0.0
  9
$WORLDVIEW
 70
1
  9
$SHADEDGE
 70
3
  9
$SHADEDIF
 70
70
  9
$TILEMODE
 70
1
  9
$MAXACTVP
 70
64
  9
$PINSBASE
 10
0.0
 20
0.0
 30
0.0
  9
$PLIMCHECK
 70
0
  9
$PEXTMIN
 10
1e+20
 20
1e+20
 30
1e+20
  9
$PEXTMAX
 10
-1e+20
 20
-1e+20
 30
-1e+20
  9
$PLIMMIN
 10
0.0
 20
0.0
  9
$PLIMMAX
 10
420.0
 20
297.0
  9
$UNITMODE
 70
0
  9
$VISRETAIN
 70
1
  9
$PLINEGEN
 70
0
  9
$PSLTSCALE
 70
1
  9
$TREEDEPTH
 70
3020
  9
$CMLSTYLE
  2
Standard
  9
$CMLJUST
 70
0
  9
$CMLSCALE
 40
20.0
  9
$PROXYGRAPHICS
 70
1
  9
$MEASUREMENT
 70
1
  9
$CELWEIGHT
370
-1
  9
$ENDCAPS
280
0
  9
$JOINSTYLE
280
0
  9
$LWDISPLAY
290
0
  9
$INSUNITS
 70
6
  9
$HYPERLINKBASE
  1

  9
$STYLESHEET
  1

  9
$XEDIT
290
1
  9
$CEPSNTYPE
380
0
  9
$PSTYLEMODE
290
1
  9
$FINGERPRINTGUID
  2
{46A2331D-D5FD-4194-B24C-5B2C89B35167}
  9
$VERSIONGUID
  2
{076206DF-6CC6-431B-BC2B-978E6CBB4629}
  9
$EXTNAMES
290
1
  9
$PSVPSCALE
 40
0.0
  9
$OLESTARTUP
290
0
  9
$SORTENTS
280
127
  9
$INDEXCTL
280
0
  9
$HIDETEXT
280
1
  9
$XCLIPFRAME
280
0
  9
$HALOGAP
280
0
  9
$OBSCOLOR
 70
257
  9
$OBSLTYPE
280
0
  9
$INTERSECTIONDISPLAY
280
0
  9
$INTERSECTIONCOLOR
 70
257
  9
$DIMASSOC
280
2
  9
$PROJECTNAME
  1

  9
$CAMERADISPLAY
290
0
  9
$LENSLENGTH
 40
50.0
  9
$CAMERAHEIGHT
 40
0.0
  9
$STEPSPERSEC
 40
24.0
  9
$STEPSIZE
 40
100.0
  9
$3DDWFPREC
 40
2.0
  9
$PSOLWIDTH
 40
0.005
  9
$PSOLHEIGHT
 40
0.08
  9
$LOFTANG1
 40
1.570796326795
  9
$LOFTANG2
 40
1.570796326795
  9
$LOFTMAG1
 40
0.0
  9
$LOFTMAG2
 40
0.0
  9
$LOFTPARAM
 70
7
  9
$LOFTNORMALS
280
1
  9
$LATITUDE
 40
37.795
  9
$LONGITUDE
 40
-122.394
  9
$NORTHDIRECTION
 40
0.0
  9
$TIMEZONE
 70
-8000
  9
$LIGHTGLYPHDISPLAY
280
1
  9
$TILEMODELIGHTSYNCH
280
1
  9
$CMATERIAL
347
20
  9
$SOLIDHIST
280
0
  9
$SHOWHIST
280
1
  9
$DWFFRAME
280
2
  9
$DGNFRAME
280
2
  9
$REALWORLDSCALE
290
1
  9
$INTERFERECOLOR
 62
256
  9
$CSHADOW
280
0
  9
$SHADOWPLANELOCATION
 40
0.0
  0
ENDSEC
  0
SECTION
  2
CLASSES
  0
CLASS
  1
ACDBDICTIONARYWDFLT
  2
AcDbDictionaryWithDefault
  3
ObjectDBX Classes
 90
0
 91
0
280
0
281
0
  0
CLASS
  1
SUN
  2
AcDbSun
  3
SCENEOE
 90
1153
 91
0
280
0
281
0
  0
CLASS
  1
VISUALSTYLE
  2
AcDbVisualStyle
  3
ObjectDBX Classes
 90
4095
 91
0
280
0
281
0
  0
CLASS
  1
MATERIAL
  2
AcDbMaterial
  3
ObjectDBX Classes
 90
1153
 91
0
280
0
281
0
  0
CLASS
  1
SCALE
  2
AcDbScale
  3
ObjectDBX Classes
 90
1153
 91
0
280
0
281
0
  0
CLASS
  1
TABLESTYLE
  2
AcDbTableStyle
  3
ObjectDBX Classes
 90
4095
 91
0
280
0
281
0
  0
CLASS
  1
MLEADERSTYLE
  2
AcDbMLeaderStyle
  3
ACDB_MLEADERSTYLE_CLASS
 90
4095
 91
0
280
0
281
0
  0
CLASS
  1
DICTIONARYVAR
  2
AcDbDictionaryVar
  3
ObjectDBX Classes
 90
0
 91
0
280
0
281
0
  0
CLASS
  1
CELLSTYLEMAP
  2
AcDbCellStyleMap
  3
ObjectDBX Classes
 90
1152
 91
0
280
0
281
0
  0
CLASS
  1
MENTALRAYRENDERSETTINGS
  2
AcDbMentalRayRenderSettings
  3
SCENEOE
 90
1024
 91
0
280
0
281
0
  0
CLASS
  1
ACDBDETAILVIEWSTYLE
  2
AcDbDetailViewStyle
  3
ObjectDBX Classes
 90
1025
 91
0
280
0
281
0
  0
CLASS
  1
ACDBSECTIONVIEWSTYLE
  2
AcDbSectionViewStyle
  3
ObjectDBX Classes
 90
1025
 91
0
280
0
281
0
  0
CLASS
  1
RASTERVARIABLES
  2
AcDbRasterVariables
  3
ISM
 90
0
 91
0
280
0
281
0
  0
CLASS
  1
ACDBPLACEHOLDER
  2
AcDbPlaceHolder
  3
ObjectDBX Classes
 90
0
 91
0
280
0
281
0
  0
CLASS
  1
LAYOUT
  2
AcDbLayout
  3
ObjectDBX Classes
 90
0
 91
0
280
0
281
0
  0
ENDSEC
  0
SECTION
  2
TABLES
  0
TABLE
  2
VPORT
  5
8
330
0
100
AcDbSymbolTable
 70
1
  0
VPORT
  5
23
330
8
100
AcDbSymbolTableRecord
100
AcDbViewportTableRecord
  2
*Active
 70
0
 10
0.0
 20
0.0
 11
1.0
 21
1.0
 12
344.2
 22
148.5
 13
0.0
 23
0.0
 14
0.5
 24
0.5
 15
0.5
 25
0.5
 16
0.0
 26
0.0
 36
1.0
 17
0.0
 27
0.0
 37
0.0
 40
297.0
 41
1.34
 42
50.0
 43
0.0
 44
0.0
 50
0.0
 51
0.0
 71
0
 72
1000
 73
1
 74
3
 75
0
 76
0
 77
0
 78
0
281
0
 65
0
146
0.0
  0
ENDTAB
  0
TABLE
  2
LTYPE
  5
2
330
0
100
AcDbSymbolTable
 70
3
  0
LTYPE
  5
24
330
2
100
AcDbSymbolTableRecord
100
AcDbLinetypeTableRecord
  2
ByBlock
 70
0
  3

 72
65
 73
0
 40
0.0
  0
LTYPE
  5
25
330
2
100
AcDbSymbolTableRecord
100
AcDbLinetypeTableRecord
  2
ByLayer
 70
0
  3

 72
65
 73
0
 40
0.0
  0
LTYPE
  5
26
330
2
100
AcDbSymbolTableRecord
100
AcDbLinetypeTableRecord
  2
Continuous
 70
0
  3

 72
65
 73
0
 40
0.0
  0
ENDTAB
  0
TABLE
  2
LAYER
  5
1
330
0
100
AcDbSymbolTable
 70
2
  0
LAYER
  5
27
330
1
100
AcDbSymbolTableRecord
100
AcDbLayerTableRecord
  2
0
 70
0
 62
7
  6
Continuous
370
-3
390
13
347
21
  0
LAYER
  5
28
330
1
100
AcDbSymbolTableRecord
100
AcDbLayerTableRecord
  2
Defpoints
 70
0
 62
7
  6
Continuous
290
0
370
-3
390
13
347
21
  0
ENDTAB
  0
TABLE
  2
STYLE
  5
5
330
0
100
AcDbSymbolTable
 70
1
  0
STYLE
  5
29
330
5
100
AcDbSymbolTableRecord
100
AcDbTextStyleTableRecord
  2
Standard
 70
0
 40
0.0
 41
1.0
 50
0.0
 71
0
 42
2.5
  3
txt
  4

  0
ENDTAB
  0
TABLE
  2
VIEW
  5
7
330
0
100
AcDbSymbolTable
 70
0
  0
ENDTAB
  0
TABLE
  2
UCS
  5
6
330
0
100
AcDbSymbolTable
 70
0
  0
ENDTAB
  0
TABLE
  2
APPID
  5
3
330
0
100
AcDbSymbolTable
 70
3
  0
APPID
  5
2A
330
3
100
AcDbSymbolTableRecord
100
AcDbRegAppTableRecord
  2
ACAD
 70
0
  0
APPID
  5
66
330
3
100
AcDbSymbolTableRecord
100
AcDbRegAppTableRecord
  2
HATCHBACKGROUNDCOLOR
 70
0
  0
APPID
  5
67
330
3
100
AcDbSymbolTableRecord
100
AcDbRegAppTableRecord
  2
EZDXF
 70
0
  0
ENDTAB
  0
TABLE
  2
DIMSTYLE
  5
4
330
0
100
AcDbSymbolTable
 70
1
100
AcDbDimStyleTable
  0
DIMSTYLE
105
2B
330
4
100
AcDbSymbolTableRecord
100
AcDbDimStyleTableRecord
  2
Standard
 70
0
 40
1.0
 41
2.5
 42
0.625
 43
3.75
 44
1.25
 45
0.0
 46
0.0
 47
0.0
 48
0.0
 49
2.5
140
2.5
141
2.5
142
0.0
143
0.03937007874
144
1.0
145
0.0
146
1.0
147
0.625
148
0.0
 69
0
 70
0
 71
0
 72
0
 73
0
 74
0
 75
0
 76
0
 77
1
 78
8
 79
0
170
0
171
3
172
1
173
0
174
0
175
0
176
0
177
0
178
0
179
0
271
0
272
2
273
2
274
3
275
0
276
0
277
2
278
44
279
0
280
0
281
0
282
0
283
0
284
8
285
0
286
0
288
0
289
3
290
0
371
-2
372
-2
  0
ENDTAB
  0
TABLE
  2
BLOCK_RECORD
  5
9
330
0
100
AcDbSymbolTable
 70
2
  0
BLOCK_RECORD
  5
17
330
9
100
AcDbSymbolTableRecord
100
AcDbBlockTableRecord
  2
*Model_Space
340
1A
 70
0
280
1
281
0
  0
BLOCK_RECORD
  5
1B
330
9
100
AcDbSymbolTableRecord
100
AcDbBlockTableRecord
  2
*Paper_Space
340
1E
 70
0
280
1
281
0
  0
ENDTAB
  0
ENDSEC
  0
SECTION
  2
BLOCKS
  0
BLOCK
  5
18
330
17
100
AcDbEntity
  8
0
100
AcDbBlockBegin
  2
*Model_Space
 70
0
 10
0.0
 20
0.0
 30
0.0
  3
*Model_Space
  1

  0
ENDBLK
  5
19
330
17
100
AcDbEntity
  8
0
100
AcDbBlockEnd
  0
BLOCK
  5
1C
330
1B
100
AcDbEntity
  8
0
100
AcDbBlockBegin
  2
*Paper_Space
 70
0
 10
0.0
 20
0.0
 30
0.0
  3
*Paper_Space
  1

  0
ENDBLK
  5
1D
330
1B
100
AcDbEntity
  8
0
100
AcDbBlockEnd
  0
ENDSEC
  0
SECTION
  2
ENTITIES
  0
SPLINE
  5
2F
330
17
100
AcDbEntity
  8
0
100
AcDbSpline
 70
0
 71
8
 72
81
 73
72
 74
0
 40
0.0
 40
0.0
 40
0.0
 40
0.0
 40
0.0
 40
0.0
 40
0.0
 40
0.0
 40
0.0
 40
0.18080774326966734
 40
0.18080774326966734
 40
0.18080774326966734
 40
0.18080774326966734
 40
0.18080774326966734
 40
0.18080774326966734
 40
0.18080774326966734
 40
0.2996409046402028
 40
0.2996409046402028
 40
0.2996409046402028
 40
0.2996409046402028
 40
0.2996409046402028
 40
0.2996409046402028
 40
0.2996409046402028
 40
0.36847634740558244
 40
0.36847634740558244
 40
0.36847634740558244
 40
0.36847634740558244
 40
0.36847634740558244
 40
0.36847634740558244
 40
0.36847634740558244
 40
0.48113214231318746
 40
0.48113214231318746
 40
0.48113214231318746
 40
0.48113214231318746
 40
0.48113214231318746
 40
0.48113214231318746
 40
0.48113214231318746
 40
0.5054076499132805
 40
0.5054076499132805
 40
0.5054076499132805
 40
0.5054076499132805
 40
0.5054076499132805
 40
0.5054076499132805
 40
0.5054076499132805
 40
0.5545327717177164
 40
0.5545327717177164
 40
0.5545327717177164
 40
0.5545327717177164
 40
0.5545327717177164
 40
0.5545327717177164
 40
0.5545327717177164
 40
0.7058898766062033
 40
0.7058898766062033
 40
0.7058898766062033
 40
0.7058898766062033
 40
0.7058898766062033
 40
0.7058898766062033
 40
0.7058898766062033
 40
0.8482100917601049
 40
0.8482100917601049
 40
0.8482100917601049
 40
0.8482100917601049
 40
0.8482100917601049
 40
0.8482100917601049
 40
0.8482100917601049
 40
0.9425121959388643
 40
0.9425121959388643
 40
0.9425121959388643
 40
0.9425121959388643
 40
0.9425121959388643
 40
0.9425121959388643
 40
0.9425121959388643
 40
1.0
 40
1.0
 40
1.0
 40
1.0
 40
1.0
 40
1.0
 40
1.0
 40
1.0
 40
1.0
 10
57.02699487464053
 20
157.8999999987294
 30
223.0
 10
56.740483699422754
 20
158.5385837976561
 30
223.0
 10
56.438959429523834
 20
159.17052471480008
 30
223.0
 10
56.12078238444553
 20
159.79471728161394
 30
223.0
 10
55.78411805191726
 20
160.40950352791447
 30
223.0
 10
55.42687370142551
 20
161.01263607569206
 30
223.0
 10
55.04659965989913
 20
161.60122030542166
 30
223.0
 10
54.64033951778266
 20
162.17163066919485
 30
223.0
 10
53.9174677373124
 20
163.07913494020832
 30
223.0
 10
53.618137262192704
 20
163.42883439673116
 30
223.0
 10
53.30519336719819
 20
163.76690616233074
 30
223.0
 10
52.977774152810376
 20
164.09144793818817
 30
223.0
 10
52.63517136512911
 20
164.40014148130211
 30
223.0
 10
52.276896057023805
 20
164.6903281770313
 30
223.0
 10
51.90281682476365
 20
164.95916570157237
 30
223.0
 10
51.28787307856173
 20
165.3457176823308
 30
223.0
 10
51.05720242260689
 20
165.47941122951593
 30
223.0
 10
50.821589229867996
 20
165.60444300362954
 30
223.0
 10
50.58126136251771
 20
165.72028414239864
 30
223.0
 10
50.3365128258178
 20
165.82646916791256
 30
223.0
 10
50.087713393590384
 20
165.92261729334368
 30
223.0
 10
49.83531823368905
 20
166.00845372966884
 30
223.0
 10
49.16182436232948
 20
166.20719310221128
 30
223.0
 10
48.73539565169443
 20
166.3026055243919
 30
223.0
 10
48.303161478685944
 20
166.369318224386
 30
223.0
 10
47.86744405826937
 20
166.40784026061135
 30
223.0
 10
47.43029864598516
 20
166.41959768512845
 30
223.0
 10
46.99349025023949
 20
166.4065918731322
 30
223.0
 10
46.55847201801348
 20
166.37110562522588
 30
223.0
 10
46.0332603886829
 20
166.30352321587287
 30
223.0
 10
45.940135241454065
 20
166.2905887519886
 30
223.0
 10
45.846998151740394
 20
166.2767181567506
 30
223.0
 10
45.753851555116896
 20
166.2619285921123
 30
223.0
 10
45.66069788715621
 20
166.24623722002073
 30
223.0
 10
45.56753958342859
 20
166.2296612024168
 30
223.0
 10
45.47437907950186
 20
166.2122177012351
 30
223.0
 10
45.19269506858536
 20
166.15690359072806
 30
223.0
 10
45.0048285871857
 20
166.11651720048522
 30
223.0
 10
44.817633307171484
 20
166.07303563193088
 30
223.0
 10
44.631176868930794
 20
166.02646211189975
 30
223.0
 10
44.44549648443693
 20
165.9768910222433
 30
223.0
 10
44.26061486075751
 20
165.92445399809594
 30
223.0
 10
44.07657192721853
 20
165.8691926390751
 30
223.0
 10
43.328989089393474
 20
165.63251017943418
 30
223.0
 10
42.77294950742062
 20
165.42790727966346
 30
223.0
 10
42.225849784586416
 20
165.19955858599405
 30
223.0
 10
41.68830957122947
 20
164.9492034426711
 30
223.0
 10
41.16094723393477
 20
164.67824263281565
 30
223.0
 10
40.64436627691392
 20
164.38777425650366
 30
223.0
 10
40.13916870634876
 20
164.07857330751025
 30
223.0
 10
39.18226725578098
 20
163.443013707993
 30
223.0
 10
38.72943170009371
 20
163.11895596011726
 30
223.0
 10
38.28796035272942
 20
162.77915480246332
 30
223.0
 10
37.85862708998545
 20
162.42379169569668
 30
223.0
 10
37.44251397987247
 20
162.0529209443885
 30
223.0
 10
37.041006723023386
 20
161.66647706733778
 30
223.0
 10
36.65586395449666
 20
161.26420056894162
 30
223.0
 10
36.04665362959928
 20
160.56789664390848
 30
223.0
 10
35.812215751771255
 20
160.28329139060023
 30
223.0
 10
35.586749932678224
 20
159.9913306486391
 30
223.0
 10
35.37112452010628
 20
159.6918171614068
 30
223.0
 10
35.16647011537286
 20
159.38460214125098
 30
223.0
 10
34.974183829126716
 20
159.0695830481539
 30
223.0
 10
34.79597175685518
 20
158.74667653170175
 30
223.0
 10
34.53522171443761
 20
158.21399421038183
 30
223.0
 10
34.442531088543575
 20
158.00934165916874
 30
223.0
 10
34.35638296122677
 20
157.80175248266897
 30
223.0
 10
34.27735081648999
 20
157.59126493554285
 30
223.0
 10
34.206097884371424
 20
157.37798597043903
 30
223.0
 10
34.14336869617644
 20
157.1620942292913
 30
223.0
 10
34.08997737994545
 20
156.943843878458
 30
223.0
 10
34.046792696157645
 20
156.72356928770407
 30
223.0
  0
LINE
  5
30
330
17
100
AcDbEntity
  8
0
100
AcDbLine
 10
44.24389034087534
 20
157.9
 30
223.0
 11
57.02699487747256
 21
157.9
 31
223.0
  0
SPLINE
  5
31
330
17
100
AcDbEntity
  8
0
100
AcDbSpline
 70
0
 71
1
 72
4
 73
2
 74
0
 40
0.0
 40
0.0
 40
1.0
 40
1.0
 10
44.24389034159771
 20
157.90000060000042
 30
223.0
 10
44.24389034159771
 20
154.09999939999918
 30
223.0
  0
LINE
  5
32
330
17
100
AcDbEntity
  8
0
100
AcDbLine
 10
44.243890340875375
 20
154.1
 30
223.0
 11
58.50356740382077
 21
154.1
 31
223.0
  0
SPLINE
  5
33
330
17
100
AcDbEntity
  8
0
100
AcDbSpline
 70
0
 71
8
 72
39
 73
30
 74
0
 40
0.0
 40
0.0
 40
0.0
 40
0.0
 40
0.0
 40
0.0
 40
0.0
 40
0.0
 40
0.0
 40
0.1580978241462963
 40
0.1580978241462963
 40
0.1580978241462963
 40
0.1580978241462963
 40
0.1580978241462963
 40
0.1580978241462963
 40
0.1580978241462963
 40
0.5807977177560355
 40
0.5807977177560355
 40
0.5807977177560355
 40
0.5807977177560355
 40
0.5807977177560355
 40
0.5807977177560355
 40
0.5807977177560355
 40
0.853057492687747
 40
0.853057492687747
 40
0.853057492687747
 40
0.853057492687747
 40
0.853057492687747
 40
0.853057492687747
 40
0.853057492687747
 40
1.0
 40
1.0
 40
1.0
 40
1.0
 40
1.0
 40
1.0
 40
1.0
 40
1.0
 40
1.0
 10
63.26478526887767
 20
131.8999999935826
 30
223.0
 10
63.198662916202
 20
132.34437975732325
 30
223.0
 10
63.13178889484612
 20
132.78864693654316
 30
223.0
 10
63.06414225848411
 20
133.23279684551397
 30
223.0
 10
62.995700865133784
 20
133.67682449449563
 30
223.0
 10
62.92644125695369
 20
134.12072457208376
 30
223.0
 10
62.85633852443361
 20
134.56449142522635
 30
223.0
 10
62.78536615497858
 20
135.00811903690936
 30
223.0
 10
62.52133911915662
 20
136.63732117361008
 30
223.0
 10
62.32276798258296
 20
137.82197263717663
 30
223.0
 10
62.117237034458704
 20
139.00545259925457
 30
223.0
 10
61.904114827132
 20
140.18761199174315
 30
223.0
 10
61.682647201009374
 20
141.36824826531145
 30
223.0
 10
61.451927374010836
 20
142.54709974517473
 30
223.0
 10
61.21082329680709
 20
143.72383186087652
 30
223.0
 10
60.79484941425695
 20
145.65428743617528
 30
223.0
 10
60.62695246610406
 20
146.40948047029357
 30
223.0
 10
60.45371199076444
 20
147.1634805493245
 30
223.0
 10
60.274656955833365
 20
147.9161413300231
 30
223.0
 10
60.08923091530637
 20
148.66726799762006
 30
223.0
 10
59.89677063088716
 20
149.4166119567911
 30
223.0
 10
59.69645729590795
 20
150.16385867671465
 30
223.0
 10
59.374276282660254
 20
151.31054897965507
 30
223.0
 10
59.258744298714376
 20
151.71175399244242
 30
223.0
 10
59.140494622902246
 20
152.11216868585157
 30
223.0
 10
59.01939829742817
 20
152.51173563378467
 30
223.0
 10
58.895316065884
 20
152.91038699693632
 30
223.0
 10
58.7680967640552
 20
153.30804399692323
 30
223.0
 10
58.637574900634164
 20
153.7046161139686
 30
223.0
 10
58.50356742784099
 20
154.10000000814114
 30
223.0
  0
LINE
  5
34
330
17
100
AcDbEntity
  8
0
100
AcDbLine
 10
44.243890340875375
 20
131.9
 30
223.0
 11
63.264785312006204
 21
131.9
 31
223.0
  0
SPLINE
  5
35
330
17
100
AcDbEntity
  8
0
100
AcDbSpline
 70
0
 71
1
 72
4
 73
2
 74
0
 40
0.0
 40
0.0
 40
1.0
 40
1.0
 10
44.24389034159771
 20
131.90000060000256
 30
223.0
 10
44.24389034159771
 20
128.09999939999764
 30
223.0
  0
LINE
  5
36
330
17
100
AcDbEntity
  8
0
100
AcDbLine
 10
44.24389034087534
 20
128.1
 30
223.0
 11
63.807045585683255
 21
128.1
 31
223.0
  0
SPLINE
  5
37
330
17
100
AcDbEntity
  8
0
100
AcDbSpline
 70
0
 71
8
 72
25
 73
16
 74
0
 40
0.0
 40
0.0
 40
0.0
 40
0.0
 40
0.0
 40
0.0
 40
0.0
 40
0.0
 40
0.0
 40
0.8386355293881221
 40
0.8386355293881221
 40
0.8386355293881221
 40
0.8386355293881221
 40
0.8386355293881221
 40
0.8386355293881221
 40
0.8386355293881221
 40
1.0
 40
1.0
 40
1.0
 40
1.0
 40
1.0
 40
1.0
 40
1.0
 40
1.0
 40
1.0
 10
66.30430697094924
 20
105.89999999896375
 30
223.0
 10
66.0867719075894
 20
108.23197510761936
 30
223.0
 10
65.86070857731488
 20
110.56313736797496
 30
223.0
 10
65.62546759446812
 20
112.89340660378288
 30
223.0
 10
65.38029464763417
 20
115.22266926834021
 30
223.0
 10
65.12429341106386
 20
117.55077420786219
 30
223.0
 10
64.85638987729698
 20
119.87752872388533
 30
223.0
 10
64.57525398365142
 20
122.2026898919967
 30
223.0
 10
64.22215711614362
 20
124.97297104605514
 30
223.0
 10
64.1646252175044
 20
125.4199241389884
 30
223.0
 10
64.10652626231507
 20
125.86680326619413
 30
223.0
 10
64.04784719472636
 20
126.31360610046926
 30
223.0
 10
63.988574326457226
 20
126.76033009097895
 30
223.0
 10
63.92869329730901
 20
127.20697245766412
 30
223.0
 10
63.86818901978728
 20
127.65353018327534
 30
223.0
 10
63.80704560783127
 20
128.10000000303313
 30
223.0
  0
LINE
  5
38
330
17
100
AcDbEntity
  8
0
100
AcDbLine
 10
44.243890340875375
 20
105.9
 30
223.0
 11
66.30430698205812
 21
105.9
 31
223.0
  0
SPLINE
  5
39
330
17
100
AcDbEntity
  8
0
100
AcDbSpline
 70
0
 71
1
 72
4
 73
2
 74
0
 40
0.0
 40
0.0
 40
1.0
 40
1.0
 10
44.24389034159771
 20
105.90000060000206
 30
223.0
 10
44.24389034159771
 20
102.09999939999993
 30
223.0
  0
LINE
  5
3A
330
17
100
AcDbEntity
  8
0
100
AcDbLine
 10
44.243890340875375
 20
102.1
 30
223.0
 11
66.64909180415259
 21
102.1
 31
223.0
  0
SPLINE
  5
3B
330
17
100
AcDbEntity
  8
0
100
AcDbSpline
 70
0
 71
8
 72
25
 73
16
 74
0
 40
0.0
 40
0.0
 40
0.0
 40
0.0
 40
0.0
 40
0.0
 40
0.0
 40
0.0
 40
0.0
 40
0.22879615847062823
 40
0.22879615847062823
 40
0.22879615847062823
 40
0.22879615847062823
 40
0.22879615847062823
 40
0.22879615847062823
 40
0.22879615847062823
 40
1.0
 40
1.0
 40
1.0
 40
1.0
 40
1.0
 40
1.0
 40
1.0
 40
1.0
 40
1.0
 10
68.33988886990485
 20
79.9000000008328
 30
223.0
 10
68.29822468680965
 20
80.53539875955082
 30
223.0
 10
68.2561600287655
 20
81.17077119171876
 30
223.0
 10
68.21369301991264
 20
81.80611688653731
 30
223.0
 10
68.1708237379252
 20
82.44143556138307
 30
223.0
 10
68.1275525694109
 20
83.07672694668017
 30
223.0
 10
68.08387856531094
 20
83.7119906707718
 30
223.0
 10
68.03979779629984
 20
84.34722614479224
 30
223.0
 10
67.84531862142178
 20
87.12352408175063
 30
223.0
 10
67.6906252037944
 20
89.2642820528249
 30
223.0
 10
67.53100268188192
 20
91.40468171622403
 30
223.0
 10
67.3662045603345
 20
93.54469240636678
 30
223.0
 10
67.19595371418211
 20
95.6842772062306
 30
223.0
 10
67.01993586513066
 20
97.8233924140194
 30
223.0
 10
66.83778944184553
 20
99.96198670689462
 30
223.0
 10
66.6490918242226
 20
102.10000000177133
 30
223.0
  0
LINE
  5
3C
330
17
100
AcDbEntity
  8
0
100
AcDbLine
 10
44.243890340875375
 20
79.9
 30
223.0
 11
68.33988885720431
 21
79.9
 31
223.0
  0
SPLINE
  5
3D
330
17
100
AcDbEntity
  8
0
100
AcDbSpline
 70
0
 71
1
 72
4
 73
2
 74
0
 40
0.0
 40
0.0
 40
1.0
 40
1.0
 10
44.24389034159771
 20
79.90000060000001
 30
223.0
 10
44.24389034159771
 20
76.09999939999999
 30
223.0
  0
LINE
  5
3E
330
17
100
AcDbEntity
  8
0
100
AcDbLine
 10
44.24389034087534
 20
76.1
 30
223.0
 11
68.58278768025309
 21
76.1
 31
223.0
  0
SPLINE
  5
3F
330
17
100
AcDbEntity
  8
0
100
AcDbSpline
 70
0
 71
8
 72
25
 73
16
 74
0
 40
0.0
 40
0.0
 40
0.0
 40
0.0
 40
0.0
 40
0.0
 40
0.0
 40
0.0
 40
0.0
 40
0.8628406243654265
 40
0.8628406243654265
 40
0.8628406243654265
 40
0.8628406243654265
 40
0.8628406243654265
 40
0.8628406243654265
 40
0.8628406243654265
 40
1.0
 40
1.0
 40
1.0
 40
1.0
 40
1.0
 40
1.0
 40
1.0
 40
1.0
 40
1.0
 10
69.75606060327792
 20
53.89999999988352
 30
223.0
 10
69.65168578937373
 20
56.29584689142108
 30
223.0
 10
69.54190549355427
 20
58.69145757631772
 30
223.0
 10
69.42669571633877
 20
61.08681667424534
 30
223.0
 10
69.30602971818612
 20
63.48190852329084
 30
223.0
 10
69.17987792660348
 20
65.87671717609044
 30
223.0
 10
69.04820782739576
 20
68.27122639533604
 30
223.0
 10
68.91098384005589
 20
70.66541964865343
 30
223.0
 10
68.74546467147846
 20
73.43981434751157
 30
223.0
 10
68.72262780873908
 20
73.82022343194359
 30
223.0
 10
68.69965663426595
 20
74.20050647088837
 30
223.0
 10
68.67655119324706
 20
74.58066257908595
 30
223.0
 10
68.65331153087041
 20
74.96069087127631
 30
223.0
 10
68.62993769232398
 20
75.34059046219949
 30
223.0
 10
68.60642972279574
 20
75.72036046659544
 30
223.0
 10
68.5827876674737
 20
76.09999999920416
 30
223.0
  0
LINE
  5
40
330
17
100
AcDbEntity
  8
0
100
AcDbLine
 10
44.243890340875375
 20
53.9
 30
223.0
 11
69.75606060595129
 21
53.9
 31
223.0
  0
SPLINE
  5
41
330
17
100
AcDbEntity
  8
0
100
AcDbSpline
 70
0
 71
1
 72
4
 73
2
 74
0
 40
0.0
 40
0.0
 40
1.0
 40
1.0
 10
44.24389034159771
 20
53.90000060000026
 30
223.0
 10
44.24389034159771
 20
50.09999939999937
 30
223.0
  0
LINE
  5
42
330
17
100
AcDbEntity
  8
0
100
AcDbLine
 10
44.243890340875375
 20
50.1
 30
223.0
 11
69.91565789620891
 21
50.1
 31
223.0
  0
SPLINE
  5
43
330
17
100
AcDbEntity
  8
0
100
AcDbSpline
 70
0
 71
8
 72
18
 73
9
 74
0
 40
0.0
 40
0.0
 40
0.0
 40
0.0
 40
0.0
 40
0.0
 40
0.0
 40
0.0
 40
0.0
 40
1.0
 40
1.0
 40
1.0
 40
1.0
 40
1.0
 40
1.0
 40
1.0
 40
1.0
 40
1.0
 10
70.61273795648827
 20
27.89999999966257
 30
223.0
 10
70.55049374858473
 20
30.67570791914312
 30
223.0
 10
70.48116977102312
 20
33.45125676569016
 30
223.0
 10
70.40475557303702
 20
36.22662554874108
 30
223.0
 10
70.32123637197498
 20
39.00179279706195
 30
223.0
 10
70.23059299427715
 20
41.776736556021916
 30
223.0
 10
70.13280177826196
 20
44.55143438335499
 30
223.0
 10
70.02783443872278
 20
47.325863343409296
 30
223.0
 10
69.91565789333447
 20
50.09999999988379
 30
223.0
  0
LINE
  5
44
330
17
100
AcDbEntity
  8
0
100
AcDbLine
 10
44.243890340875375
 20
27.9
 30
223.0
 11
70.612737971536
 21
27.9
 31
223.0
  0
SPLINE
  5
45
330
17
100
AcDbEntity
  8
0
100
AcDbSpline
 70
0
 71
1
 72
4
 73
2
 74
0
 40
0.0
 40
0.0
 40
1.0
 40
1.0
 10
44.24389034159771
 20
27.900000600000002
 30
223.0
 10
44.24389034159771
 20
24.099999399999998
 30
223.0
  0
LINE
  5
46
330
17
100
AcDbEntity
  8
0
100
AcDbLine
 10
44.24389034087534
 20
24.1
 30
223.0
 11
70.69214660458283
 21
24.1
 31
223.0
  0
SPLINE
  5
47
330
17
100
AcDbEntity
  8
0
100
AcDbSpline
 70
0
 71
8
 72
25
 73
16
 74
0
 40
0.0
 40
0.0
 40
0.0
 40
0.0
 40
0.0
 40
0.0
 40
0.0
 40
0.0
 40
0.0
 40
0.6803039078646815
 40
0.6803039078646815
 40
0.6803039078646815
 40
0.6803039078646815
 40
0.6803039078646815
 40
0.6803039078646815
 40
0.6803039078646815
 40
1.0
 40
1.0
 40
1.0
 40
1.0
 40
1.0
 40
1.0
 40
1.0
 40
1.0
 40
1.0
 10
70.92438000431011
 20
1.9000000000064423
 30
223.0
 10
70.92146445377942
 20
3.7879699798734934
 30
223.0
 10
70.91526856864914
 20
5.675934877319417
 30
223.0
 10
70.90579687665269
 20
7.5638880538454085
 30
223.0
 10
70.89305300363976
 20
9.451822882812005
 30
223.0
 10
70.87703967357642
 20
11.33973274943908
 30
223.0
 10
70.85775870854508
 20
13.227611050805834
 30
223.0
 10
70.83521102874452
 20
15.115451195850808
 30
223.0
 10
70.79726566938932
 20
17.89038073498354
 30
223.0
 10
70.78441328557228
 20
18.77750475450783
 30
223.0
 10
70.77083950365042
 20
19.66461801731394
 30
223.0
 10
70.75654428169682
 20
20.551719871791747
 30
223.0
 10
70.74152753323668
 20
21.43880966135019
 30
223.0
 10
70.72578912719727
 20
22.325886724414026
 30
223.0
 10
70.70932888781729
 20
23.212950394418918
 30
223.0
 10
70.69214659451546
 20
24.09999999980496
 30
223.0
  0
LINE
  5
48
330
17
100
AcDbEntity
  8
0
100
AcDbLine
 10
44.243890340875375
 20
1.9
 30
223.0
 11
70.92438000013159
 21
1.9
 31
223.0
  0
SPLINE
  5
49
330
17
100
AcDbEntity
  8
0
100
AcDbSpline
 70
0
 71
1
 72
4
 73
2
 74
0
 40
0.0
 40
0.0
 40
0.9999993684216398
 40
0.9999993684216398
 10
44.24389034159771
 20
1.9000006000000558
 30
223.0
 10
44.24389034159771
 20
-6.553790374438061e-17
 30
223.0
  0
SPLINE
  5
4A
330
17
100
AcDbEntity
  8
0
100
AcDbSpline
 70
0
 71
1
 72
4
 73
2
 74
0
 40
0.0
 40
0.0
 40
1.0
 40
1.0
 10
44.24389034159771
 20
-1.9000006000000011
 30
223.0
 10
44.24389034159771
 20
1.2000000211287443e-06
 30
223.0
  0
LINE
  5
4B
330
17
100
AcDbEntity
  8
0
100
AcDbLine
 10
44.24389034087571
 20
-1.9
 30
223.0
 11
70.92443111639199
 21
-1.9
 31
223.0
  0
SPLINE
  5
4C
330
17
100
AcDbEntity
  8
0
100
AcDbSpline
 70
0
 71
8
 72
18
 73
9
 74
0
 40
0.0
 40
0.0
 40
0.0
 40
0.0
 40
0.0
 40
0.0
 40
0.0
 40
0.0
 40
0.0
 40
1.0
 40
1.0
 40
1.0
 40
1.0
 40
1.0
 40
1.0
 40
1.0
 40
1.0
 40
1.0
 10
70.69276902289657
 20
-24.09999999989919
 30
223.0
 10
70.74644904136446
 20
-21.325332862876227
 30
223.00000000000003
 10
70.7930619820109
 20
-18.550529772551517
 30
223.00000000000006
 10
70.83261493804771
 20
-15.775611702308293
 30
223.00000000000006
 10
70.86511072864992
 20
-13.000599184478027
 30
223.00000000000006
 10
70.89054794964224
 20
-10.225512313541756
 30
223.00000000000006
 10
70.90892099564856
 20
-7.450370748327064
 30
223.00000000000006
 10
70.92022005901902
 20
-4.675193713417545
 30
223.00000000000006
 10
70.92443111085049
 20
-1.899999999991604
 30
223.00000000000006
  0
LINE
  5
4D
330
17
100
AcDbEntity
  8
0
100
AcDbLine
 10
44.24389034087571
 20
-24.1
 30
223.0
 11
70.69276902810743
 21
-24.1
 31
223.0
  0
SPLINE
  5
4E
330
17
100
AcDbEntity
  8
0
100
AcDbSpline
 70
0
 71
1
 72
4
 73
2
 74
0
 40
0.0
 40
0.0
 40
1.0
 40
1.0
 10
44.24389034159771
 20
-27.900000600000034
 30
223.0
 10
44.24389034159771
 20
-24.099999399999938
 30
223.0
  0
LINE
  5
4F
330
17
100
AcDbEntity
  8
0
100
AcDbLine
 10
44.24389034087572
 20
-27.9
 30
223.0
 11
70.61344841610546
 21
-27.9
 31
223.0
  0
SPLINE
  5
50
330
17
100
AcDbEntity
  8
0
100
AcDbSpline
 70
0
 71
8
 72
18
 73
9
 74
0
 40
0.0
 40
0.0
 40
0.0
 40
0.0
 40
0.0
 40
0.0
 40
0.0
 40
0.0
 40
0.0
 40
1.0
 40
1.0
 40
1.0
 40
1.0
 40
1.0
 40
1.0
 40
1.0
 40
1.0
 40
1.0
 10
69.91677793936654
 20
-50.100000000371395
 30
223.0
 10
70.02891710905637
 20
-47.325863507144426
 30
223.0
 10
70.13384251053624
 20
-44.5514341495572
 30
223.0
 10
70.23158752372088
 20
-41.77673557793036
 30
223.0
 10
70.32218073932668
 20
-39.00179097604612
 30
223.0
 10
70.40564613213208
 20
-36.22662306878955
 30
223.0
 10
70.48200319313771
 20
-33.45125412827341
 30
223.0
 10
70.55126702595823
 20
-30.67570597866397
 30
223.0
 10
70.6134484127769
 20
-27.89999999992544
 30
223.0
  0
LINE
  5
51
330
17
100
AcDbEntity
  8
0
100
AcDbLine
 10
44.24389034087571
 20
-50.1
 30
223.0
 11
69.91677793017911
 21
-50.1
 31
223.0
  0
SPLINE
  5
52
330
17
100
AcDbEntity
  8
0
100
AcDbSpline
 70
0
 71
1
 72
4
 73
2
 74
0
 40
0.0
 40
0.0
 40
1.0
 40
1.0
 10
44.24389034159771
 20
-53.9000006
 30
223.0
 10
44.24389034159771
 20
-50.0999994
 30
223.0
  0
LINE
  5
53
330
17
100
AcDbEntity
  8
0
100
AcDbLine
 10
44.24389034087571
 20
-53.9
 30
223.0
 11
69.75722799128633
 21
-53.9
 31
223.0
  0
SPLINE
  5
54
330
17
100
AcDbEntity
  8
0
100
AcDbSpline
 70
0
 71
8
 72
18
 73
9
 74
0
 40
0.0
 40
0.0
 40
0.0
 40
0.0
 40
0.0
 40
0.0
 40
0.0
 40
0.0
 40
0.0
 40
1.0
 40
1.0
 40
1.0
 40
1.0
 40
1.0
 40
1.0
 40
1.0
 40
1.0
 40
1.0
 10
68.58405423838516
 20
-76.0999999999092
 30
223.0
 10
68.75678530787411
 20
-73.32646315538575
 30
223.0
 10
68.92194863364705
 20
-70.55245635946235
 30
223.0
 10
69.07960893211026
 20
-67.77800620035931
 30
223.0
 10
69.22982492327672
 20
-65.00313874815475
 30
223.0
 10
69.3726496720702
 20
-62.227879568717974
 30
223.0
 10
69.50813087573847
 20
-59.4522537356053
 30
223.0
 10
69.63631110274106
 20
-56.67628584013752
 30
223.0
 10
69.75722798847684
 20
-53.89999999987764
 30
223.0
  0
LINE
  5
55
330
17
100
AcDbEntity
  8
0
100
AcDbLine
 10
44.24389034087571
 20
-76.1
 30
223.0
 11
68.58405423984297
 21
-76.1
 31
223.0
  0
SPLINE
  5
56
330
17
100
AcDbEntity
  8
0
100
AcDbSpline
 70
0
 71
1
 72
4
 73
2
 74
0
 40
0.0
 40
0.0
 40
1.0
 40
1.0
 10
44.24389034159771
 20
-79.90000060000018
 30
223.0
 10
44.24389034159771
 20
-76.09999939999999
 30
223.0
  0
LINE
  5
57
330
17
100
AcDbEntity
  8
0
100
AcDbLine
 10
44.24389034087571
 20
-79.9
 30
223.0
 11
68.34113742466982
 21
-79.9
 31
223.0
  0
SPLINE
  5
58
330
17
100
AcDbEntity
  8
0
100
AcDbSpline
 70
0
 71
8
 72
39
 73
30
 74
0
 40
0.0
 40
0.0
 40
0.0
 40
0.0
 40
0.0
 40
0.0
 40
0.0
 40
0.0
 40
0.0
 40
0.06702027629898066
 40
0.06702027629898066
 40
0.06702027629898066
 40
0.06702027629898066
 40
0.06702027629898066
 40
0.06702027629898066
 40
0.06702027629898066
 40
0.6154458512341596
 40
0.6154458512341596
 40
0.6154458512341596
 40
0.6154458512341596
 40
0.6154458512341596
 40
0.6154458512341596
 40
0.6154458512341596
 40
0.8491699261054618
 40
0.8491699261054618
 40
0.8491699261054618
 40
0.8491699261054618
 40
0.8491699261054618
 40
0.8491699261054618
 40
0.8491699261054618
 40
1.0
 40
1.0
 40
1.0
 40
1.0
 40
1.0
 40
1.0
 40
1.0
 40
1.0
 40
1.0
 10
66.65002005124246
 20
-102.09999999868852
 30
223.0
 10
66.6663956979121
 20
-101.91450244550504
 30
223.0
 10
66.68272201513312
 20
-101.72900049360236
 30
223.0
 10
66.69899927869253
 20
-101.54349417952096
 30
223.0
 10
66.71522776083715
 20
-101.35798353889014
 30
223.0
 10
66.73140773032426
 20
-101.17246860643289
 30
223.0
 10
66.74753945246626
 20
-100.98694941597027
 30
223.0
 10
66.76362318916983
 20
-100.8014260004251
 30
223.0
 10
66.91088154509725
 20
-99.09772969674412
 30
223.0
 10
67.038908018203
 20
-97.57928371735595
 30
223.0
 10
67.16388028488969
 20
-96.06058031166562
 30
223.0
 10
67.28592631557193
 20
-94.54163733570351
 30
223.0
 10
67.4051619727674
 20
-93.02247077348441
 30
223.0
 10
67.52169259938782
 20
-91.50309486696639
 30
223.0
 10
67.63561460703028
 20
-89.98352224600987
 30
223.0
 10
67.79449376383594
 20
-87.81608442289277
 30
223.0
 10
67.8415637464876
 20
-87.1676762720798
 30
223.0
 10
67.88822846579936
 20
-86.51859124429612
 30
223.0
 10
67.93448935981553
 20
-85.86888096662423
 30
223.0
 10
67.98034785104865
 20
-85.21859705483084
 30
223.0
 10
68.02580534647936
 20
-84.5677911133667
 30
223.0
 10
68.07086323755662
 20
-83.91651473536658
 30
223.0
 10
68.14434329544326
 20
-82.8442584621936
 30
223.0
 10
68.17298643969897
 20
-82.42368540302738
 30
223.0
 10
68.20145259397901
 20
-82.00310042093614
 30
223.0
 10
68.22974201587076
 20
-81.58250361142065
 30
223.0
 10
68.2578549595664
 20
-81.1618950696984
 30
223.0
 10
68.285791675894
 20
-80.74127489070483
 30
223.0
 10
68.31355241234782
 20
-80.32064316909452
 30
223.0
 10
68.34113741311799
 20
-79.89999999924248
 30
223.0
  0
LINE
  5
59
330
17
100
AcDbEntity
  8
0
100
AcDbLine
 10
44.24389034087571
 20
-102.1
 30
223.0
 11
66.65002006609865
 21
-102.1
 31
223.0
  0
SPLINE
  5
5A
330
17
100
AcDbEntity
  8
0
100
AcDbSpline
 70
0
 71
1
 72
4
 73
2
 74
0
 40
0.0
 40
0.0
 40
1.0
 40
1.0
 10
44.24389034159771
 20
-105.90000060000003
 30
223.0
 10
44.24389034159771
 20
-102.09999939999999
 30
223.0
  0
LINE
  5
5B
330
17
100
AcDbEntity
  8
0
100
AcDbLine
 10
44.24389034087571
 20
-105.9
 30
223.0
 11
66.30515166147292
 21
-105.9
 31
223.0
  0
SPLINE
  5
5C
330
17
100
AcDbEntity
  8
0
100
AcDbSpline
 70
0
 71
8
 72
25
 73
16
 74
0
 40
0.0
 40
0.0
 40
0.0
 40
0.0
 40
0.0
 40
0.0
 40
0.0
 40
0.0
 40
0.0
 40
0.4468366224752855
 40
0.4468366224752855
 40
0.4468366224752855
 40
0.4468366224752855
 40
0.4468366224752855
 40
0.4468366224752855
 40
0.4468366224752855
 40
1.0
 40
1.0
 40
1.0
 40
1.0
 40
1.0
 40
1.0
 40
1.0
 40
1.0
 40
1.0
 10
63.807335592136226
 20
-128.0999999988324
 30
223.0
 10
63.97667886385789
 20
-126.86367644682738
 30
223.0
 10
64.14112218897432
 20
-125.6266769877709
 30
223.0
 10
64.30100238497205
 20
-124.38907247023567
 30
223.0
 10
64.45660871073915
 20
-123.15092216923045
 30
223.0
 10
64.60819486935655
 20
-121.91227542215096
 30
223.0
 10
64.75598579493004
 20
-120.67317255058771
 30
223.0
 10
64.90018220282228
 20
-119.43364548565398
 30
223.0
 10
65.21524966314261
 20
-116.65874542422097
 30
223.0
 10
65.38430130205097
 20
-115.1231778445134
 30
223.0
 10
65.54846324108561
 20
-113.58707246599576
 30
223.0
 10
65.70803183933174
 20
-112.05047869061937
 30
223.0
 10
65.86326659045491
 20
-110.51343957438812
 30
223.0
 10
66.01439749725361
 20
-108.97599257913399
 30
223.0
 10
66.16163060355298
 20
-107.43817013334564
 30
223.0
 10
66.30515168343905
 20
-105.90000000204964
 30
223.0
  0
LINE
  5
5D
330
17
100
AcDbEntity
  8
0
100
AcDbLine
 10
44.24389034087571
 20
-128.1
 30
223.0
 11
63.807335600660565
 21
-128.1
 31
223.0
  0
SPLINE
  5
5E
330
17
100
AcDbEntity
  8
0
100
AcDbSpline
 70
0
 71
1
 72
4
 73
2
 74
0
 40
0.0
 40
0.0
 40
1.0
 40
1.0
 10
44.24389034159771
 20
-131.9000006
 30
223.0
 10
44.24389034159771
 20
-128.09999939999992
 30
223.0
  0
LINE
  5
5F
330
17
100
AcDbEntity
  8
0
100
AcDbLine
 10
44.24389034087571
 20
-131.9
 30
223.0
 11
63.264984622074195
 21
-131.9
 31
223.0
  0
SPLINE
  5
60
330
17
100
AcDbEntity
  8
0
100
AcDbSpline
 70
0
 71
8
 72
46
 73
37
 74
0
 40
0.0
 40
0.0
 40
0.0
 40
0.0
 40
0.0
 40
0.0
 40
0.0
 40
0.0
 40
0.0
 40
0.09254686576170205
 40
0.09254686576170205
 40
0.09254686576170205
 40
0.09254686576170205
 40
0.09254686576170205
 40
0.09254686576170205
 40
0.09254686576170205
 40
0.23319847878064684
 40
0.23319847878064684
 40
0.23319847878064684
 40
0.23319847878064684
 40
0.23319847878064684
 40
0.23319847878064684
 40
0.23319847878064684
 40
0.5385679454418446
 40
0.5385679454418446
 40
0.5385679454418446
 40
0.5385679454418446
 40
0.5385679454418446
 40
0.5385679454418446
 40
0.5385679454418446
 40
0.9127399643940038
 40
0.9127399643940038
 40
0.9127399643940038
 40
0.9127399643940038
 40
0.9127399643940038
 40
0.9127399643940038
 40
0.9127399643940038
 40
1.0
 40
1.0
 40
1.0
 40
1.0
 40
1.0
 40
1.0
 40
1.0
 40
1.0
 40
1.0
 10
58.503702822784
 20
-154.10000000948446
 30
223.0
 10
58.58198960171222
 20
-153.86898757324514
 30
223.0
 10
58.65997761924109
 20
-153.63494131366127
 30
223.0
 10
58.73766411523168
 20
-153.39784175793778
 30
223.0
 10
58.81504632954202
 20
-153.15766943329362
 30
223.0
 10
58.89212150202708
 20
-152.91440486696163
 30
223.0
 10
58.96888687253878
 20
-152.6680285861886
 30
223.0
 10
59.045339680925956
 20
-152.41852111823522
 30
223.0
 10
59.23719000230139
 20
-151.7818762077524
 30
223.0
 10
59.35023766250706
 20
-151.39708258499425
 30
223.0
 10
59.46071054955206
 20
-151.01153375680835
 30
223.0
 10
59.568728607340745
 20
-150.62528554437165
 30
223.0
 10
59.674427785321576
 20
-150.2383946051323
 30
223.0
 10
59.777946502027625
 20
-149.85091508261044
 30
223.0
 10
59.879412108617096
 20
-149.46289525619906
 30
223.0
 10
60.19498542861036
 20
-148.23085403552082
 30
223.0
 10
60.40184501351707
 20
-147.3849822362568
 30
223.0
 10
60.60060248122269
 20
-146.53713612723658
 30
223.0
 10
60.79209217024926
 20
-145.68760825859624
 30
223.0
 10
60.9769912449322
 20
-144.8366304651545
 30
223.0
 10
61.15586824657823
 20
-143.98438490862142
 30
223.0
 10
61.32920478769556
 20
-143.13100899463979
 30
223.0
 10
61.703535298061894
 20
-141.2296871645049
 30
223.0
 10
61.90195509260112
 20
-140.18125724220255
 30
223.0
 10
62.09344279614089
 20
-139.13151851183846
 30
223.0
 10
62.27861264497066
 20
-138.08063885696242
 30
223.0
 10
62.4579736333725
 20
-137.02875475469745
 30
223.0
 10
62.63196081075316
 20
-135.9759768714154
 30
223.0
 10
62.80095378427142
 20
-134.92239333121321
 30
223.0
 10
63.003605237021276
 20
-133.62219381601656
 30
223.0
 10
63.04167427296596
 20
-133.3762775546019
 30
223.0
 10
63.07949372777556
 20
-133.13032276022813
 30
223.0
 10
63.11706765425064
 20
-132.88433029299398
 30
223.0
 10
63.15439997264021
 20
-132.6383009868602
 30
223.0
 10
63.191494477723154
 20
-132.39223565061917
 30
223.0
 10
63.22835484538012
 20
-132.14613506879408
 30
223.0
 10
63.26498463869335
 20
-131.9000000024733
 30
223.0
  0
LINE
  5
61
330
17
100
AcDbEntity
  8
0
100
AcDbLine
 10
44.24389034087571
 20
-154.1
 30
223.0
 11
58.503702794796745
 21
-154.1
 31
223.0
  0
SPLINE
  5
62
330
17
100
AcDbEntity
  8
0
100
AcDbSpline
 70
0
 71
1
 72
4
 73
2
 74
0
 40
0.0
 40
0.0
 40
1.0
 40
1.0
 10
44.24389034159771
 20
-157.90000060000003
 30
223.0
 10
44.24389034159771
 20
-154.0999994
 30
223.0
  0
LINE
  5
63
330
17
100
AcDbEntity
  8
0
100
AcDbLine
 10
44.24389034087571
 20
-157.9
 30
223.0
 11
57.027374596031734
 21
-157.9
 31
223.0
  0
SPLINE
  5
64
330
17
100
AcDbEntity
  8
0
100
AcDbSpline
 70
0
 71
8
 72
88
 73
79
 74
0
 40
0.0
 40
0.0
 40
0.0
 40
0.0
 40
0.0
 40
0.0
 40
0.0
 40
0.0
 40
0.0
 40
0.00510893529101643
 40
0.00510893529101643
 40
0.00510893529101643
 40
0.00510893529101643
 40
0.00510893529101643
 40
0.00510893529101643
 40
0.00510893529101643
 40
0.013393002459131824
 40
0.013393002459131824
 40
0.013393002459131824
 40
0.013393002459131824
 40
0.013393002459131824
 40
0.013393002459131824
 40
0.013393002459131824
 40
0.02588809722210908
 40
0.02588809722210908
 40
0.02588809722210908
 40
0.02588809722210908
 40
0.02588809722210908
 40
0.02588809722210908
 40
0.02588809722210908
 40
0.04169585784640431
 40
0.04169585784640431
 40
0.04169585784640431
 40
0.04169585784640431
 40
0.04169585784640431
 40
0.04169585784640431
 40
0.04169585784640431
 40
0.04528035338424155
 40
0.04528035338424155
 40
0.04528035338424155
 40
0.04528035338424155
 40
0.04528035338424155
 40
0.04528035338424155
 40
0.04528035338424155
 40
0.04922317340512356
 40
0.04922317340512356
 40
0.04922317340512356
 40
0.04922317340512356
 40
0.04922317340512356
 40
0.04922317340512356
 40
0.04922317340512356
 40
0.05572399881189842
 40
0.05572399881189842
 40
0.05572399881189842
 40
0.05572399881189842
 40
0.05572399881189842
 40
0.05572399881189842
 40
0.05572399881189842
 40
0.06530912006232019
 40
0.06530912006232019
 40
0.06530912006232019
 40
0.06530912006232019
 40
0.06530912006232019
 40
0.06530912006232019
 40
0.06530912006232019
 40
0.07258452568592944
 40
0.07258452568592944
 40
0.07258452568592944
 40
0.07258452568592944
 40
0.07258452568592944
 40
0.07258452568592944
 40
0.07258452568592944
 40
0.08547915154916332
 40
0.08547915154916332
 40
0.08547915154916332
 40
0.08547915154916332
 40
0.08547915154916332
 40
0.08547915154916332
 40
0.08547915154916332
 40
0.08868439548691365
 40
0.08868439548691365
 40
0.08868439548691365
 40
0.08868439548691365
 40
0.08868439548691365
 40
0.08868439548691365
 40
0.08868439548691365
 40
0.08868439548691365
 40
0.08868439548691365
 10
34.046792696157645
 20
-156.72356928770407
 30
223.0
 10
34.090528605327364
 20
-156.94665554534458
 30
223.0
 10
34.14473380982083
 20
-157.16766782167755
 30
223.0
 10
34.20850600487367
 20
-157.38625765941
 30
223.0
 10
34.28100003459687
 20
-157.60216121443392
 30
223.0
 10
34.36144401321141
 20
-157.81519429384278
 30
223.0
 10
34.44915189914066
 20
-158.02524829211237
 30
223.0
 10
34.543532521960614
 20
-158.2322870254463
 30
223.0
 10
34.80715581568234
 20
-158.76722074930615
 30
223.0
 10
34.98636561154771
 20
-159.09004622461723
 30
223.0
 10
35.179593833771676
 20
-159.40497068114993
 30
223.0
 10
35.38514429955472
 20
-159.7120813139065
 30
223.0
 10
35.60162826391129
 20
-160.0114829366128
 30
223.0
 10
35.827921948647266
 20
-160.3033251743413
 30
223.0
 10
36.06316217062664
 20
-160.58780477708348
 30
223.0
 10
36.67411944425672
 20
-161.2835308789961
 30
223.0
 10
37.06015881387312
 20
-161.68536590340543
 30
223.0
 10
37.462510603749635
 20
-162.07136506449842
 30
223.0
 10
37.879428575166344
 20
-162.44178415805308
 30
223.0
 10
38.309536351828
 20
-162.79668440621526
 30
223.0
 10
38.75175876282623
 20
-163.13600622149278
 30
223.0
 10
39.205326356345395
 20
-163.45956185656948
 30
223.0
 10
40.2573453825369
 20
-164.1560143709886
 30
223.0
 10
40.86176495873168
 20
-164.51887794505095
 30
223.0
 10
41.482096208194775
 20
-164.8550934654068
 30
223.0
 10
42.11742227492092
 20
-165.16325891889772
 30
223.0
 10
42.76673949670455
 20
-165.44127431054807
 30
223.0
 10
43.42891905206817
 20
-165.68641441422272
 30
223.0
 10
44.10273910549379
 20
-165.8952433939303
 30
223.0
 10
44.94215247275327
 20
-166.1014282394163
 30
223.0
 10
45.09738669510517
 20
-166.13731917672808
 30
223.0
 10
45.25265286167782
 20
-166.1710002706748
 30
223.0
 10
45.407925469419354
 20
-166.20240322828158
 30
223.0
 10
45.56319011919681
 20
-166.23143533756553
 30
223.0
 10
45.718438364594626
 20
-166.25801016371707
 30
223.0
 10
45.87366457594719
 20
-166.28205431270118
 30
223.0
 10
46.199579672361324
 20
-166.32706905886562
 30
223.0
 10
46.370252421122856
 20
-166.34748940499406
 30
223.0
 10
46.54086807314449
 20
-166.36464551629592
 30
223.0
 10
46.71141163565269
 20
-166.3784316083385
 30
223.0
 10
46.8818681158468
 20
-166.38874189662343
 30
223.0
 10
47.052222520898844
 20
-166.39547059658662
 30
223.0
 10
47.22245985795362
 20
-166.39851192359836
 30
223.0
 10
47.67303056124135
 20
-166.39652049296436
 30
223.0
 10
47.95350143410834
 20
-166.384967824678
 30
223.0
 10
48.23347186348468
 20
-166.36258279694846
 30
223.0
 10
48.51239998395627
 20
-166.32893100411508
 30
223.0
 10
48.78971196781319
 20
-166.28369202115823
 30
223.0
 10
49.06480603892294
 20
-166.22668849884528
 30
223.0
 10
49.33705648660373
 20
-166.15791525887636
 30
223.0
 10
50.00209176164916
 20
-165.95910120349947
 30
223.0
 10
50.39097267999203
 20
-165.8154150907362
 30
223.0
 10
50.77029393308364
 20
-165.64711635848155
 30
223.0
 10
51.13856684409697
 20
-165.4555585399315
 30
223.0
 10
51.494843262194195
 20
-165.24259483014234
 30
223.0
 10
51.8385903455785
 20
-165.010343629378
 30
223.0
 10
52.169588753468695
 20
-164.76099511257095
 30
223.0
 10
52.729447596130086
 20
-164.29606845866994
 30
223.0
 10
52.96379699657651
 20
-164.08675080833686
 30
223.0
 10
53.19102970037226
 20
-163.86956172541446
 30
223.0
 10
53.41132677688076
 20
-163.64528569924275
 30
223.0
 10
53.62491447454565
 20
-163.4146438309325
 30
223.0
 10
53.83204960422061
 20
-163.17827930562095
 30
223.0
 10
54.03301027132115
 20
-162.9367482822055
 30
223.0
 10
54.573846609821935
 20
-162.25410471607506
 30
223.0
 10
54.90098859848006
 20
-161.80310977184456
 30
223.0
 10
55.2112600733369
 20
-161.34004602771734
 30
223.0
 10
55.506160503249525
 20
-160.86698346176317
 30
223.0
 10
55.78701640575925
 20
-160.3855922889287
 30
223.0
 10
56.05503115480133
 20
-159.89717473744489
 30
223.0
 10
56.31131486573264
 20
-159.40268368298334
 30
223.0
 10
56.61793856215049
 20
-158.77845315278788
 30
223.0
 10
56.678315973225395
 20
-158.65385165458673
 30
223.0
 10
56.73804154264778
 20
-158.52893520733517
 30
223.0
 10
56.79712961202768
 20
-158.4037148818844
 30
223.0
 10
56.85559395468554
 20
-158.27820127647675
 30
223.0
 10
56.91344781463705
 20
-158.1524045334166
 30
223.0
 10
56.97070394271755
 20
-158.02633435449502
 30
223.0
 10
57.027374629845674
 20
-157.90000001516816
 30
223.0
  0
SPLINE
  5
65
330
17
100
AcDbEntity
  8
0
100
AcDbSpline
 70
0
 71
8
 72
396
 73
387
 74
0
 40
0.0
 40
0.0
 40
0.0
 40
0.0
 40
0.0
 40
0.0
 40
0.0
 40
0.0
 40
0.0
 40
0.0014195656894172536
 40
0.0014195656894172536
 40
0.0014195656894172536
 40
0.0014195656894172536
 40
0.0014195656894172536
 40
0.0014195656894172536
 40
0.0014195656894172536
 40
0.002726669189332933
 40
0.002726669189332933
 40
0.002726669189332933
 40
0.002726669189332933
 40
0.002726669189332933
 40
0.002726669189332933
 40
0.002726669189332933
 40
0.004164483039237018
 40
0.004164483039237018
 40
0.004164483039237018
 40
0.004164483039237018
 40
0.004164483039237018
 40
0.004164483039237018
 40
0.004164483039237018
 40
0.006622427327728168
 40
0.006622427327728168
 40
0.006622427327728168
 40
0.006622427327728168
 40
0.006622427327728168
 40
0.006622427327728168
 40
0.006622427327728168
 40
0.011078576127253898
 40
0.011078576127253898
 40
0.011078576127253898
 40
0.011078576127253898
 40
0.011078576127253898
 40
0.011078576127253898
 40
0.011078576127253898
 40
0.019606737735468886
 40
0.019606737735468886
 40
0.019606737735468886
 40
0.019606737735468886
 40
0.019606737735468886
 40
0.019606737735468886
 40
0.019606737735468886
 40
0.03380783455817424
 40
0.03380783455817424
 40
0.03380783455817424
 40
0.03380783455817424
 40
0.03380783455817424
 40
0.03380783455817424
 40
0.03380783455817424
 40
0.062466547800413344
 40
0.062466547800413344
 40
0.062466547800413344
 40
0.062466547800413344
 40
0.062466547800413344
 40
0.062466547800413344
 40
0.062466547800413344
 40
0.0825578684613341
 40
0.0825578684613341
 40
0.0825578684613341
 40
0.0825578684613341
 40
0.0825578684613341
 40
0.0825578684613341
 40
0.0825578684613341
 40
0.09260352879178817
 40
0.09260352879178817
 40
0.09260352879178817
 40
0.09260352879178817
 40
0.09260352879178817
 40
0.09260352879178817
 40
0.09260352879178817
 40
0.10498259849362185
 40
0.10498259849362185
 40
0.10498259849362185
 40
0.10498259849362185
 40
0.10498259849362185
 40
0.10498259849362185
 40
0.10498259849362185
 40
0.16397789081672298
 40
0.16397789081672298
 40
0.16397789081672298
 40
0.16397789081672298
 40
0.16397789081672298
 40
0.16397789081672298
 40
0.16397789081672298
 40
0.27390630279657746
 40
0.27390630279657746
 40
0.27390630279657746
 40
0.27390630279657746
 40
0.27390630279657746
 40
0.27390630279657746
 40
0.27390630279657746
 40
0.38118839807144467
 40
0.38118839807144467
 40
0.38118839807144467
 40
0.38118839807144467
 40
0.38118839807144467
 40
0.38118839807144467
 40
0.38118839807144467
 40
0.44902869507777765
 40
0.44902869507777765
 40
0.44902869507777765
 40
0.44902869507777765
 40
0.44902869507777765
 40
0.44902869507777765
 40
0.44902869507777765
 40
0.5168759495616536
 40
0.5168759495616536
 40
0.5168759495616536
 40
0.5168759495616536
 40
0.5168759495616536
 40
0.5168759495616536
 40
0.5168759495616536
 40
0.7030224431843752
 40
0.7030224431843752
 40
0.7030224431843752
 40
0.7030224431843752
 40
0.7030224431843752
 40
0.7030224431843752
 40
0.7030224431843752
 40
0.7776004508785602
 40
0.7776004508785602
 40
0.7776004508785602
 40
0.7776004508785602
 40
0.7776004508785602
 40
0.7776004508785602
 40
0.7776004508785602
 40
0.8023918203794872
 40
0.8023918203794872
 40
0.8023918203794872
 40
0.8023918203794872
 40
0.8023918203794872
 40
0.8023918203794872
 40
0.8023918203794872
 40
0.8249289404797666
 40
0.8249289404797666
 40
0.8249289404797666
 40
0.8249289404797666
 40
0.8249289404797666
 40
0.8249289404797666
 40
0.8249289404797666
 40
0.8566573395634521
 40
0.8566573395634521
 40
0.8566573395634521
 40
0.8566573395634521
 40
0.8566573395634521
 40
0.8566573395634521
 40
0.8566573395634521
 40
0.8733403650751846
 40
0.8733403650751846
 40
0.8733403650751846
 40
0.8733403650751846
 40
0.8733403650751846
 40
0.8733403650751846
 40
0.8733403650751846
 40
0.8807690520375605
 40
0.8807690520375605
 40
0.8807690520375605
 40
0.8807690520375605
 40
0.8807690520375605
 40
0.8807690520375605
 40
0.8807690520375605
 40
0.8858984840302577
 40
0.8858984840302577
 40
0.8858984840302577
 40
0.8858984840302577
 40
0.8858984840302577
 40
0.8858984840302577
 40
0.8858984840302577
 40
0.8887619591228964
 40
0.8887619591228964
 40
0.8887619591228964
 40
0.8887619591228964
 40
0.8887619591228964
 40
0.8887619591228964
 40
0.8887619591228964
 40
0.890143489836385
 40
0.890143489836385
 40
0.890143489836385
 40
0.890143489836385
 40
0.890143489836385
 40
0.890143489836385
 40
0.890143489836385
 40
0.8909138488717422
 40
0.8909138488717422
 40
0.8909138488717422
 40
0.8909138488717422
 40
0.8909138488717422
 40
0.8909138488717422
 40
0.8909138488717422
 40
0.8916347604190433
 40
0.8916347604190433
 40
0.8916347604190433
 40
0.8916347604190433
 40
0.8916347604190433
 40
0.8916347604190433
 40
0.8916347604190433
 40
0.892214374162098
 40
0.892214374162098
 40
0.892214374162098
 40
0.892214374162098
 40
0.892214374162098
 40
0.892214374162098
 40
0.892214374162098
 40
0.8928466800636083
 40
0.8928466800636083
 40
0.8928466800636083
 40
0.8928466800636083
 40
0.8928466800636083
 40
0.8928466800636083
 40
0.8928466800636083
 40
0.8933736016481997
 40
0.8933736016481997
 40
0.8933736016481997
 40
0.8933736016481997
 40
0.8933736016481997
 40
0.8933736016481997
 40
0.8933736016481997
 40
0.8939532153912537
 40
0.8939532153912537
 40
0.8939532153912537
 40
0.8939532153912537
 40
0.8939532153912537
 40
0.8939532153912537
 40
0.8939532153912537
 40
0.8949801074365846
 40
0.8949801074365846
 40
0.8949801074365846
 40
0.8949801074365846
 40
0.8949801074365846
 40
0.8949801074365846
 40
0.8949801074365846
 40
0.8966900872220233
 40
0.8966900872220233
 40
0.8966900872220233
 40
0.8966900872220233
 40
0.8966900872220233
 40
0.8966900872220233
 40
0.8966900872220233
 40
0.9001409339017554
 40
0.9001409339017554
 40
0.9001409339017554
 40
0.9001409339017554
 40
0.9001409339017554
 40
0.9001409339017554
 40
0.9001409339017554
 40
0.9025601654307427
 40
0.9025601654307427
 40
0.9025601654307427
 40
0.9025601654307427
 40
0.9025601654307427
 40
0.9025601654307427
 40
0.9025601654307427
 40
0.9037697811952367
 40
0.9037697811952367
 40
0.9037697811952367
 40
0.9037697811952367
 40
0.9037697811952367
 40
0.9037697811952367
 40
0.9037697811952367
 40
0.9052603670821837
 40
0.9052603670821837
 40
0.9052603670821837
 40
0.9052603670821837
 40
0.9052603670821837
 40
0.9052603670821837
 40
0.9052603670821837
 40
0.9123641245693026
 40
0.9123641245693026
 40
0.9123641245693026
 40
0.9123641245693026
 40
0.9123641245693026
 40
0.9123641245693026
 40
0.9123641245693026
 40
0.9256010832869157
 40
0.9256010832869157
 40
0.9256010832869157
 40
0.9256010832869157
 40
0.9256010832869157
 40
0.9256010832869157
 40
0.9256010832869157
 40
0.9385197720124393
 40
0.9385197720124393
 40
0.9385197720124393
 40
0.9385197720124393
 40
0.9385197720124393
 40
0.9385197720124393
 40
0.9385197720124393
 40
0.9466892138224866
 40
0.9466892138224866
 40
0.9466892138224866
 40
0.9466892138224866
 40
0.9466892138224866
 40
0.9466892138224866
 40
0.9466892138224866
 40
0.9548597269438104
 40
0.9548597269438104
 40
0.9548597269438104
 40
0.9548597269438104
 40
0.9548597269438104
 40
0.9548597269438104
 40
0.9548597269438104
 40
0.977277383893421
 40
0.977277383893421
 40
0.977277383893421
 40
0.977277383893421
 40
0.977277383893421
 40
0.977277383893421
 40
0.977277383893421
 40
0.9862591142570176
 40
0.9862591142570176
 40
0.9862591142570176
 40
0.9862591142570176
 40
0.9862591142570176
 40
0.9862591142570176
 40
0.9862591142570176
 40
0.9892448578239916
 40
0.9892448578239916
 40
0.9892448578239916
 40
0.9892448578239916
 40
0.9892448578239916
 40
0.9892448578239916
 40
0.9892448578239916
 40
0.9919591114189654
 40
0.9919591114189654
 40
0.9919591114189654
 40
0.9919591114189654
 40
0.9919591114189654
 40
0.9919591114189654
 40
0.9919591114189654
 40
0.995780314647408
 40
0.995780314647408
 40
0.995780314647408
 40
0.995780314647408
 40
0.995780314647408
 40
0.995780314647408
 40
0.995780314647408
 40
0.997789530998715
 40
0.997789530998715
 40
0.997789530998715
 40
0.997789530998715
 40
0.997789530998715
 40
0.997789530998715
 40
0.997789530998715
 40
0.9986842028072145
 40
0.9986842028072145
 40
0.9986842028072145
 40
0.9986842028072145
 40
0.9986842028072145
 40
0.9986842028072145
 40
0.9986842028072145
 40
0.9993019637836574
 40
0.9993019637836574
 40
0.9993019637836574
 40
0.9993019637836574
 40
0.9993019637836574
 40
0.9993019637836574
 40
0.9993019637836574
 40
0.9996468236675291
 40
0.9996468236675291
 40
0.9996468236675291
 40
0.9996468236675291
 40
0.9996468236675291
 40
0.9996468236675291
 40
0.9996468236675291
 40
0.9998132036760303
 40
0.9998132036760303
 40
0.9998132036760303
 40
0.9998132036760303
 40
0.9998132036760303
 40
0.9998132036760303
 40
0.9998132036760303
 40
0.9998848937915363
 40
0.9998848937915363
 40
0.9998848937915363
 40
0.9998848937915363
 40
0.9998848937915363
 40
0.9998848937915363
 40
0.9998848937915363
 40
1.0
 40
1.0
 40
1.0
 40
1.0
 40
1.0
 40
1.0
 40
1.0
 40
1.0
 40
1.0
 10
34.04679269615764
 20
156.72356928770407
 30
223.0
 10
34.046651955421076
 20
156.72371412364635
 30
223.0
 10
34.04668043126134
 20
156.72352076534634
 30
223.0
 10
34.0467695291268
 20
156.72329352075965
 30
223.0
 10
34.04684558768982
 20
156.72318047012075
 30
223.0
 10
34.04686987884684
 20
156.72317346594278
 30
223.0
 10
34.04683860771832
 20
156.72310813301755
 30
223.0
 10
34.04678291264877
 20
156.72266386841562
 30
223.0
 10
34.04675593064455
 20
156.72016680653238
 30
223.0
 10
34.0467376472033
 20
156.71847475712394
 30
223.0
 10
34.04671272458317
 20
156.7161682818793
 30
223.0
 10
34.04667987248438
 20
156.71312796941697
 30
223.0
 10
34.04663780060716
 20
156.70923440835537
 30
223.0
 10
34.046585218651714
 20
156.70436818731284
 30
223.0
 10
34.046520836318265
 20
156.69840989490774
 30
223.0
 10
34.04635814299471
 20
156.6833533670943
 30
223.0
 10
34.046257082962256
 20
156.67400072030983
 30
223.0
 10
34.04613846582069
 20
156.663023242856
 30
223.0
 10
34.046000574180994
 20
156.6502619981841
 30
223.0
 10
34.04584169065416
 20
156.63555804974504
 30
223.0
 10
34.04566009785117
 20
156.61875246099007
 30
223.0
 10
34.04545407838303
 20
156.59968629537033
 30
223.0
 10
34.0448250310752
 20
156.54147082543398
 30
223.0
 10
34.04441312679184
 20
156.50335095569255
 30
223.0
 10
34.043993412059876
 20
156.46450826451326
 30
223.0
 10
34.04356855720421
 20
156.4251898780397
 30
223.0
 10
34.043141047764905
 20
156.3856258221769
 30
223.0
 10
34.04271145774236
 20
156.34586921757898
 30
223.0
 10
34.04227998507591
 20
156.3059383829388
 30
223.0
 10
34.04105846968297
 20
156.19289268391287
 30
223.0
 10
34.04026625616525
 20
156.1195769226651
 30
223.0
 10
34.0394710076283
 20
156.0459802842674
 30
223.0
 10
34.03867363607791
 20
155.97218717041216
 30
223.0
 10
34.03787484861297
 20
155.89826302038585
 30
223.0
 10
34.03707495968748
 20
155.82423693495588
 30
223.0
 10
34.036274115128
 20
155.7501224100527
 30
223.0
 10
34.0339375574327
 20
155.53388461271715
 30
223.0
 10
34.032400054546926
 20
155.39159570708685
 30
223.0
 10
34.03086069822717
 20
155.24913527454203
 30
223.0
 10
34.02932002490243
 20
155.106552959201
 30
223.0
 10
34.02777839518026
 20
154.96388213362064
 30
223.0
 10
34.026236040744415
 20
154.82114423905253
 30
223.0
 10
34.024693041402536
 20
154.6783466613888
 30
223.0
 10
34.02057890042367
 20
154.29760160853266
 30
223.0
 10
34.01800695344667
 20
154.0595796027921
 30
223.0
 10
34.015433973317016
 20
153.82146198345805
 30
223.0
 10
34.012860220424145
 20
153.58327284841158
 30
223.0
 10
34.01028587553876
 20
153.34502892714735
 30
223.0
 10
34.00771106046814
 20
153.10674149236485
 30
223.0
 10
34.005135836567995
 20
152.86841622227703
 30
223.0
 10
33.99736247125739
 20
152.14902658510707
 30
223.0
 10
33.992163336340006
 20
151.66787027347968
 30
223.0
 10
33.98696325012206
 20
151.1866259232905
 30
223.0
 10
33.98176246610213
 20
150.70531699472096
 30
223.0
 10
33.97656115760167
 20
150.2239595278604
 30
223.0
 10
33.971359439156906
 20
149.7425641224947
 30
223.0
 10
33.966157362304735
 20
149.26113554817087
 30
223.0
 10
33.95730775332705
 20
148.44214445008566
 30
223.0
 10
33.953542500104376
 20
148.0936873737112
 30
223.0
 10
33.9496569477757
 20
147.73409716171943
 30
223.0
 10
33.94564886670302
 20
147.36316747124266
 30
223.0
 10
33.94151602724831
 20
146.98069195941338
 30
223.0
 10
33.93725619977354
 20
146.58646428336425
 30
223.0
 10
33.932867154640704
 20
146.18027810022812
 30
223.0
 10
33.926086415997325
 20
145.55275155059334
 30
223.0
 10
33.92379330795883
 20
145.34053482155957
 30
223.0
 10
33.92146705939156
 20
145.12525108717864
 30
223.0
 10
33.91910739159077
 20
144.90687455459238
 30
223.0
 10
33.9167140258517
 20
144.68537943094236
 30
223.0
 10
33.914286683469584
 20
144.46073992337014
 30
223.0
 10
33.91182508573968
 20
144.23293023901724
 30
223.0
 10
33.9062530198421
 20
143.71726085977252
 30
223.0
 10
33.90317693245101
 20
143.43259384657512
 30
223.0
 10
33.90010090595697
 20
143.14792380764464
 30
223.0
 10
33.8970251524837
 20
142.86325098149047
 30
223.0
 10
33.89394988210583
 20
142.57857558291963
 30
223.0
 10
33.890875302848826
 20
142.29389780303669
 30
223.0
 10
33.887801620689
 20
142.00921780924375
 30
223.0
 10
33.870085950319776
 20
140.36781815744536
 30
223.0
 10
33.85546725933798
 20
139.01105437993405
 30
223.0
 10
33.84089067536203
 20
137.65425801970363
 30
223.0
 10
33.82636510283689
 20
136.2974367285878
 30
223.0
 10
33.81189702021606
 20
134.94059580356912
 30
223.0
 10
33.79749178168238
 20
133.58373893324955
 30
223.0
 10
33.78315321885877
 20
132.22686800206145
 30
223.0
 10
33.74229819543057
 20
128.34164452203945
 30
223.0
 10
33.71595543097692
 20
125.81326355466294
 30
223.0
 10
33.68987907619875
 20
123.2848519987582
 30
223.0
 10
33.664084941783216
 20
120.75641631941161
 30
223.0
 10
33.63858763066381
 20
118.22796105530486
 30
223.0
 10
33.613401812431334
 20
115.69948944799995
 30
223.0
 10
33.58854210735798
 20
113.17100337105899
 30
223.0
 10
33.54009680543941
 20
108.17487317859529
 30
223.0
 10
33.51649494057569
 20
105.70723040591349
 30
223.0
 10
33.49323338053617
 20
103.23957713241813
 30
223.0
 10
33.47032764608832
 20
100.771914589637
 30
223.0
 10
33.44779450349045
 20
98.3042437658575
 30
223.0
 10
33.4256523594299
 20
95.83656547532324
 30
223.0
 10
33.403921698307876
 20
93.36888039606981
 30
223.0
 10
33.36915885787665
 20
89.3407337961658
 30
223.0
 10
33.35586590600576
 20
87.7802760401046
 30
223.0
 10
33.34275254806294
 20
86.21981595816825
 30
223.0
 10
33.329825021986395
 20
84.6593536910578
 30
223.0
 10
33.31709003929028
 20
83.09888937175091
 30
223.0
 10
33.30455486250697
 20
81.53842312702929
 30
223.0
 10
33.292227382629406
 20
79.97795507900568
 30
223.0
 10
33.268003768393996
 20
76.85685557765736
 30
223.0
 10
33.256108135960275
 20
75.2962241244052
 30
223.0
 10
33.24442069017793
 20
73.73559123954556
 30
223.0
 10
33.23293351777357
 20
72.1749571679083
 30
223.0
 10
33.22163932928492
 20
70.61432214917696
 30
223.0
 10
33.21053138707077
 20
69.05368642056364
 30
223.0
 10
33.199603433321165
 20
67.49305021948369
 30
223.0
 10
33.15934532909096
 20
61.65063404319079
 30
223.0
 10
33.13115184747376
 20
57.368854406837386
 30
223.0
 10
33.104148566351746
 20
53.08707785035165
 30
223.0
 10
33.07823786654739
 20
48.805309215201305
 30
223.0
 10
33.05333878445188
 20
44.52355456956133
 30
223.0
 10
33.029377244760205
 20
40.24182439460037
 30
223.0
 10
33.00628981914374
 20
35.960131037906336
 30
223.0
 10
32.9750657298049
 20
29.963102801963345
 30
223.0
 10
32.966261929816724
 20
28.247715757025347
 30
223.0
 10
32.95758047866893
 20
26.532341157907595
 30
223.0
 10
32.94901606471025
 20
24.8169809913351
 30
223.0
 10
32.94056199291119
 20
23.101638998025052
 30
223.0
 10
32.932210581792425
 20
21.38632049236756
 30
223.0
 10
32.92395183023333
 20
19.67103311920455
 30
223.0
 10
32.91304607751345
 20
17.385606040825245
 30
223.0
 10
32.91038796761363
 20
16.826863813130206
 30
223.0
 10
32.90779230470753
 20
16.279770064665747
 30
223.0
 10
32.90525880197407
 20
15.74453111792394
 30
223.0
 10
32.90278717259221
 20
15.221353295396726
 30
223.0
 10
32.90037712974089
 20
14.710442919575922
 30
223.0
 10
32.898028386599044
 20
14.21200631295322
 30
223.0
 10
32.89366094665159
 20
13.28466253854549
 30
223.0
 10
32.891582476961005
 20
12.843081677819612
 30
223.0
 10
32.88950361244658
 20
12.401508210946758
 30
223.0
 10
32.887424272505854
 20
11.95994273359264
 30
223.0
 10
32.88534590532584
 20
11.518386101651913
 30
223.0
 10
32.88326688563351
 20
11.076839593711071
 30
223.0
 10
32.88118819985212
 20
10.635304538929148
 30
223.0
 10
32.87618311242009
 20
9.572195535460509
 30
223.0
 10
32.873256839878614
 20
8.950638624081542
 30
223.0
 10
32.8703307130515
 20
8.32911266324934
 30
223.0
 10
32.86740475268735
 20
7.707622060108648
 30
223.0
 10
32.864479005868894
 20
7.086176815289491
 30
223.0
 10
32.86155354406002
 20
6.464792108110785
 30
223.0
 10
32.85862847202941
 20
5.843490192060134
 30
223.0
 10
32.8541662447984
 20
4.895687779169318
 30
223.0
 10
32.852628709964634
 20
4.569106646040765
 30
223.0
 10
32.851091367398126
 20
4.242566351591478
 30
223.0
 10
32.84955424332843
 20
3.9160724670819604
 30
223.0
 10
32.848017402465494
 20
3.5896387373007883
 30
223.0
 10
32.84648094403754
 20
3.2632862389009887
 30
223.0
 10
32.84494501450055
 20
2.9370460799293774
 30
223.0
 10
32.842726297442155
 20
2.4657779726354576
 30
223.0
 10
32.842042898045065
 20
2.320620058437818
 30
223.0
 10
32.84135968550781
 20
2.1755018343364405
 30
223.0
 10
32.84067668838701
 20
2.0304293658995363
 30
223.0
 10
32.839993958144085
 20
1.885413583843853
 30
223.0
 10
32.839311569464925
 20
1.7404703518865787
 30
223.0
 10
32.838629627976744
 20
1.5956221058193378
 30
223.0
 10
32.83747784738683
 20
1.3509773654845105
 30
223.0
 10
32.837007777952245
 20
1.2511319472545779
 30
223.0
 10
32.83653806332682
 20
1.1513618922651006
 30
223.0
 10
32.83606875808103
 20
1.0516787923755828
 30
223.0
 10
32.835599977779964
 20
0.952107193050324
 30
223.0
 10
32.835131969915395
 20
0.8526996641265612
 30
223.0
 10
32.834665058516215
 20
0.7535250304718772
 30
223.0
 10
32.83394023595267
 20
0.5995686004015113
 30
223.0
 10
32.83368158197338
 20
0.5446290258480246
 30
223.0
 10
32.8334236145292
 20
0.48983527522062786
 30
223.0
 10
32.833166408196824
 20
0.43520318910753986
 30
223.0
 10
32.83291013249439
 20
0.38076877404876086
 30
223.0
 10
32.83265570865057
 20
0.32672770429263664
 30
223.0
 10
32.83240404558052
 20
0.27327303856449703
 30
223.0
 10
32.83203909016345
 20
0.19575443473985388
 30
223.0
 10
32.83192286766202
 20
0.17106811519937537
 30
223.0
 10
32.83180824296227
 20
0.14672117781876182
 30
223.0
 10
32.83169518814122
 20
0.12270769157277073
 30
223.0
 10
32.8315851067308
 20
0.09932577466361181
 30
223.0
 10
32.83148017849682
 20
0.07703842167666153
 30
223.0
 10
32.83138457506991
 20
0.056731710703928684
 30
223.0
 10
32.83125887686469
 20
0.03003269784794682
 30
223.0
 10
32.831218336193395
 20
0.021421628956076688
 30
223.0
 10
32.83118433422925
 20
0.014199418625779003
 30
223.0
 10
32.831158143316294
 20
0.008636319922175062
 30
223.0
 10
32.83113994183192
 20
0.004770221235357752
 30
223.0
 10
32.83112872823773
 20
0.0023883901362822257
 30
223.0
 10
32.83112260959032
 20
0.001088754663587821
 30
223.0
 10
32.831116859188455
 20
-0.0001326633584284309
 30
223.0
 10
32.83111704222771
 20
-0.0001412265101876642
 30
223.0
 10
32.831118143779655
 20
9.138152337584415e-05
 30
223.0
 10
32.83111660821523
 20
0.00024724558832645016
 30
223.0
 10
32.83111669848424
 20
-1.2026321087432734e-05
 30
223.0
 10
32.83112273453231
 20
-0.0010364773944715466
 30
223.0
 10
32.83113225461531
 20
-0.003137412765681802
 30
223.0
 10
32.83116086461714
 20
-0.009214339681776096
 30
223.0
 10
32.83117765958905
 20
-0.012781687123427737
 30
223.0
 10
32.83119924695523
 20
-0.017366966332362822
 30
223.0
 10
32.831226374947555
 20
-0.02312910601031441
 30
223.0
 10
32.831259791797905
 20
-0.03022703485901396
 30
223.0
 10
32.83130024573816
 20
-0.03881968158019129
 30
223.0
 10
32.831348485000206
 20
-0.04906597487557462
 30
223.0
 10
32.83146719179667
 20
-0.07427997279734197
 30
223.0
 10
32.831539281411565
 20
-0.08959221652593134
 30
223.0
 10
32.831622498069045
 20
-0.10726790731213906
 30
223.0
 10
32.8317178131776
 20
-0.127513377835511
 30
223.0
 10
32.83182619814571
 20
-0.15053496077565853
 30
223.0
 10
32.83194862438185
 20
-0.17653898881225824
 30
223.0
 10
32.83208606329451
 20
-0.20573179462505212
 30
223.0
 10
32.83236733879023
 20
-0.2654763077844819
 30
223.0
 10
32.8325062913473
 20
-0.29499062026919726
 30
223.0
 10
32.832656906121095
 20
-0.32698205383407436
 30
223.0
 10
32.83281974526929
 20
-0.36157001396511734
 30
223.0
 10
32.832995370949554
 20
-0.39887390614825335
 30
223.0
 10
32.83318434531957
 20
-0.439013135869333
 30
223.0
 10
32.833387230537056
 20
-0.48210710861413014
 30
223.0
 10
32.83384368280456
 20
-0.5790601632482861
 30
223.0
 10
32.83410028918568
 20
-0.633564816324705
 30
223.0
 10
32.83437515613488
 20
-0.6919481177995346
 30
223.0
 10
32.83466903188407
 20
-0.7543689963746246
 30
223.0
 10
32.834982664665105
 20
-0.8209863807517396
 30
223.0
 10
32.835316802709876
 20
-0.8919591996325583
 30
223.0
 10
32.83567219425025
 20
-0.9674463817186735
 30
223.0
 10
32.836718208905026
 20
-1.1896258365927892
 30
223.0
 10
32.837388067777624
 20
-1.3319076664654972
 30
223.0
 10
32.83805873430718
 20
-1.4743610472759414
 30
223.0
 10
32.83872997474017
 20
-1.616936328418717
 30
223.0
 10
32.83940163193646
 20
-1.7596001324575994
 30
223.0
 10
32.84007360493608
 20
-1.902331014934326
 30
223.0
 10
32.84074585896341
 20
-2.0451215892744123
 30
223.0
 10
32.84253830752315
 20
-2.4258478459069366
 30
223.0
 10
32.84365885299427
 20
-2.6638580695680574
 30
223.0
 10
32.84477984867534
 20
-2.901963920376012
 30
223.0
 10
32.84590118109884
 20
-3.1401412971996905
 30
223.0
 10
32.84702277149145
 20
-3.3783734681256163
 30
223.0
 10
32.848144566773676
 20
-3.616649158759543
 30
223.0
 10
32.84926654020915
 20
-3.8549626901643563
 30
223.0
 10
32.8526532391865
 20
-4.574316792118072
 30
223.0
 10
32.854918397662956
 20
-5.0554493204287
 30
223.0
 10
32.857183970681476
 20
-5.536669899835445
 30
223.0
 10
32.85944984777733
 20
-6.01795506698906
 30
223.0
 10
32.86171595342295
 20
-6.499288779414627
 30
223.0
 10
32.863982237707255
 20
-6.980660435713666
 30
223.0
 10
32.866248678173
 20
-7.462065265832479
 30
223.0
 10
32.87010427511619
 20
-8.281015959443566
 30
223.0
 10
32.8717447202809
 20
-8.629455831472873
 30
223.0
 10
32.87343757734863
 20
-8.989028289444171
 30
223.0
 10
32.87518381772786
 20
-9.359939666037077
 30
223.0
 10
32.87698441282707
 20
-9.742396293931213
 30
223.0
 10
32.878840334054736
 20
-10.136604505806222
 30
223.0
 10
32.880752552819345
 20
-10.542770634341752
 30
223.0
 10
32.883706784384366
 20
-11.17026620115537
 30
223.0
 10
32.88470584547573
 20
-11.382472452428235
 30
223.0
 10
32.8857193452295
 20
-11.597745557621048
 30
223.0
 10
32.886747405071766
 20
-11.816111308318817
 30
223.0
 10
32.88779014642854
 20
-12.037595496106514
 30
223.0
 10
32.888847690725925
 20
-12.262223912569093
 30
223.0
 10
32.889920159389966
 20
-12.490022349291493
 30
223.0
 10
32.89234779667635
 20
-13.00566629984405
 30
223.0
 10
32.893687817242395
 20
-13.290319292072883
 30
223.0
 10
32.89502794564507
 20
-13.574975309020896
 30
223.0
 10
32.89636839030303
 20
-13.859634108897168
 30
223.0
 10
32.897709357953396
 20
-14.14429547364411
 30
223.0
 10
32.899051053651725
 20
-14.428959208937433
 30
223.0
 10
32.90039368077202
 20
-14.71362514418617
 30
223.0
 10
32.908141464358934
 20
-16.35494917715767
 30
223.0
 10
32.91457060215164
 20
-17.711651032653442
 30
223.0
 10
32.9210423517666
 20
-19.06838481758263
 30
223.0
 10
32.92756549859169
 20
-20.425142742072566
 30
223.0
 10
32.934146438482856
 20
-21.781919408679343
 30
223.0
 10
32.94079046792116
 20
-23.138711045770975
 30
223.0
 10
32.94750138877489
 20
-24.495515709496615
 30
223.0
 10
32.966919034200764
 20
-28.38058993006171
 30
223.0
 10
32.97979989681477
 20
-30.908885212511848
 30
223.0
 10
32.99294763910187
 20
-33.43720695183282
 30
223.0
 10
33.006377967892206
 20
-35.96554843765381
 30
223.0
 10
33.02010541154138
 20
-38.49390490449678
 30
223.0
 10
33.03414458454029
 20
-41.02227288310069
 30
223.0
 10
33.04851007241701
 20
-43.55065027344224
 30
223.0
 10
33.07757166513394
 20
-48.546628677452524
 30
223.0
 10
33.09225150191771
 20
-51.0142286009939
 30
223.0
 10
33.107271792851876
 20
-53.481833747513264
 30
223.0
 10
33.122648033805774
 20
-55.94944264464335
 30
223.0
 10
33.13839696893358
 20
-58.41705404400718
 30
223.0
 10
33.15453698428336
 20
-60.88466684593052
 30
223.0
 10
33.17108854409047
 20
-63.35228005478319
 30
223.0
 10
33.198816252600004
 20
-67.38034668358911
 30
223.0
 10
33.209731614502154
 20
-68.94080038330873
 30
223.0
 10
33.22082659246674
 20
-70.50125362356007
 30
223.0
 10
33.23210741950172
 20
-72.06170616691158
 30
223.0
 10
33.2435808019499
 20
-73.62215777632083
 30
223.0
 10
33.25525399682133
 20
-75.18260821240726
 30
223.0
 10
33.2671348891256
 20
-76.74305723072499
 30
223.0
 10
33.29133083566351
 20
-79.86415655881028
 30
223.0
 10
33.3036464041247
 20
-81.42480686062375
 30
223.0
 10
33.31617015893492
 20
-82.98545536538644
 30
223.0
 10
33.328894180818345
 20
-84.54610195104004
 30
223.0
 10
33.34181117477582
 20
-86.1067464910015
 30
223.0
 10
33.35491439798471
 20
-87.66738885260725
 30
223.0
 10
33.3681975876986
 20
-89.2280288955573
 30
223.0
 10
33.41857804964643
 20
-95.07062982505695
 30
223.0
 10
33.45681189783372
 20
-99.35257274586061
 30
223.0
 10
33.49623574352983
 20
-103.63449413060809
 30
223.0
 10
33.53675187115146
 20
-107.91639065212374
 30
223.0
 10
33.57827920843757
 20
-112.19825750065742
 30
223.0
 10
33.620743510012915
 20
-116.48008534589218
 30
223.0
 10
33.66408115036235
 20
-120.761862828771
 30
223.0
 10
33.72589366851505
 20
-126.75904647468404
 30
223.0
 10
33.74370239418348
 20
-128.47451513197137
 30
223.0
 10
33.76163325177479
 20
-130.18996944920082
 30
223.0
 10
33.77968089886102
 20
-131.90540752231644
 30
223.0
 10
33.79783858291256
 20
-133.6208257154363
 30
223.0
 10
33.816098540899304
 20
-135.33621883472256
 30
223.0
 10
33.83445065470942
 20
-137.0515793921643
 30
223.0
 10
33.85900089713766
 20
-139.3371060837388
 30
223.0
 10
33.86501111424357
 20
-139.89587545309007
 30
223.0
 10
33.87090306471795
 20
-140.44299589124503
 30
223.0
 10
33.876673260693224
 20
-140.97826104514849
 30
223.0
 10
33.88231821430182
 20
-141.50146456174534
 30
223.0
 10
33.88783443767619
 20
-142.01240008798044
 30
223.0
 10
33.893218442948765
 20
-142.51086127079864
 30
223.0
 10
33.90323782018677
 20
-143.43825082431937
 30
223.0
 10
33.908010038611
 20
-143.8798534753718
 30
223.0
 10
33.91278174759708
 20
-144.3214487390468
 30
223.0
 10
33.917552857360306
 20
-144.76303602440285
 30
223.0
 10
33.92232480244477
 20
-145.20461444882497
 30
223.0
 10
33.92709593814764
 20
-145.64618276336694
 30
223.0
 10
33.931867230029425
 20
-146.08773962113065
 30
223.0
 10
33.94335522216983
 20
-147.1509010920609
 30
223.0
 10
33.95007178724326
 20
-147.77248866940516
 30
223.0
 10
33.95678801792684
 20
-148.39404530048012
 30
223.0
 10
33.96350386660943
 20
-149.01556657910643
 30
223.0
 10
33.9702192252432
 20
-149.63704250594247
 30
223.0
 10
33.97693392982987
 20
-150.25845790368402
 30
223.0
 10
33.98364773994698
 20
-150.87979052233905
 30
223.0
 10
33.99388972547049
 20
-151.8276397427546
 30
223.0
 10
33.99741877206824
 20
-152.1542369693147
 30
223.0
 10
34.000947377446636
 20
-152.48079336303982
 30
223.0
 10
34.004475481414914
 20
-152.80730335352706
 30
223.0
 10
34.008002935474565
 20
-153.13375319792223
 30
223.0
 10
34.01152951191395
 20
-153.4601218225576
 30
223.0
 10
34.01505487464366
 20
-153.78637812387456
 30
223.0
 10
34.02014741432304
 20
-154.25766953059988
 30
223.0
 10
34.02171599541822
 20
-154.4028345832927
 30
223.0
 10
34.02328414770541
 20
-154.54795995176178
 30
223.0
 10
34.02485180564882
 20
-154.69303957095337
 30
223.0
 10
34.02641885115503
 20
-154.83806251186493
 30
223.0
 10
34.027985112834564
 20
-154.9830129131854
 30
223.0
 10
34.02955034828772
 20
-155.12786834191257
 30
223.0
 10
34.03219398752392
 20
-155.37252514047415
 30
223.0
 10
34.03327291987814
 20
-155.47237542716863
 30
223.0
 10
34.034351038009135
 20
-155.572150361195
 30
223.0
 10
34.03542821668531
 20
-155.67183835296723
 30
223.0
 10
34.036504190710396
 20
-155.77141485972996
 30
223.0
 10
34.03757839212623
 20
-155.87082731957744
 30
223.0
 10
34.03865007734033
 20
-155.9700069163829
 30
223.0
 10
34.04031373544412
 20
-156.12397091419382
 30
223.0
 10
34.04090741291718
 20
-156.1789130666415
 30
223.0
 10
34.04149951492233
 20
-156.23370941670493
 30
223.0
 10
34.04208987030059
 20
-156.28834412435592
 30
223.0
 10
34.042678090128064
 20
-156.34278119652694
 30
223.0
 10
34.043262060200355
 20
-156.3968249731341
 30
223.0
 10
34.04383969475214
 20
-156.45028242612128
 30
223.0
 10
34.04467736329192
 20
-156.5278048430958
 30
223.0
 10
34.04494412089013
 20
-156.552492046662
 30
223.0
 10
34.04520721178267
 20
-156.57683991326536
 30
223.0
 10
34.04546670051707
 20
-156.60085441652615
 30
223.0
 10
34.04571936629477
 20
-156.62423748612494
 30
223.0
 10
34.04596020614678
 20
-156.64652612005167
 30
223.0
 10
34.0461796458004
 20
-156.66683426285414
 30
223.0
 10
34.0464446903198
 20
-156.69136292875726
 30
223.0
 10
34.04651315869141
 20
-156.69769936542798
 30
223.0
 10
34.04657122314128
 20
-156.70307296641775
 30
223.0
 10
34.04661982429796
 20
-156.70757078262386
 30
223.0
 10
34.04665990278999
 20
-156.7112798649434
 30
223.0
 10
34.0466923992459
 20
-156.71428726427357
 30
223.0
 10
34.04671825429424
 20
-156.71668003151157
 30
223.0
 10
34.0467707684155
 20
-156.72153997480908
 30
223.0
 10
34.046857579087245
 20
-156.72168467123012
 30
223.0
 10
34.04682080968794
 20
-156.72187621967453
 30
223.0
 10
34.04671275829716
 20
-156.72276400731428
 30
223.0
 10
34.04667529281814
 20
-156.72374931337578
 30
223.0
 10
34.046799091831055
 20
-156.72398472687948
 30
223.0
 10
34.046982885446276
 20
-156.7233735643797
 30
223.0
 10
34.046792696157645
 20
-156.72356928770407
 30
223.0
  0
ENDSEC
  0
SECTION
  2
OBJECTS
  0
DICTIONARY
  5
A
330
0
100
AcDbDictionary
281
1
  3
ACAD_COLOR
350
B
  3
ACAD_GROUP
350
C
  3
ACAD_LAYOUT
350
D
  3
ACAD_MATERIAL
350
E
  3
ACAD_MLEADERSTYLE
350
F
  3
ACAD_MLINESTYLE
350
10
  3
ACAD_PLOTSETTINGS
350
11
  3
ACAD_PLOTSTYLENAME
350
12
  3
ACAD_SCALELIST
350
14
  3
ACAD_TABLESTYLE
350
15
  3
ACAD_VISUALSTYLE
350
16
  3
EZDXF_META
350
2D
  0
DICTIONARY
  5
B
330
A
100
AcDbDictionary
281
1
  0
DICTIONARY
  5
C
330
A
100
AcDbDictionary
281
1
  0
DICTIONARY
  5
D
330
A
100
AcDbDictionary
281
1
  3
Model
350
1A
  3
Layout1
350
1E
  0
DICTIONARY
  5
E
330
A
100
AcDbDictionary
281
1
  3
ByBlock
350
1F
  3
ByLayer
350
20
  3
Global
350
21
  0
DICTIONARY
  5
F
330
A
100
AcDbDictionary
281
1
  3
Standard
350
2C
  0
DICTIONARY
  5
10
330
A
100
AcDbDictionary
281
1
  3
Standard
350
22
  0
DICTIONARY
  5
11
330
A
100
AcDbDictionary
281
1
  0
ACDBDICTIONARYWDFLT
  5
12
330
A
100
AcDbDictionary
281
1
  3
Normal
350
13
100
AcDbDictionaryWithDefault
340
13
  0
ACDBPLACEHOLDER
  5
13
330
12
  0
DICTIONARY
  5
14
330
A
100
AcDbDictionary
281
1
  0
DICTIONARY
  5
15
330
A
100
AcDbDictionary
281
1
  0
DICTIONARY
  5
16
330
A
100
AcDbDictionary
281
1
  0
LAYOUT
  5
1A
330
D
100
AcDbPlotSettings
  1

  2
Adobe PDF
  4
A3
  6

 40
7.5
 41
20.0
 42
7.5
 43
20.0
 44
420.0
 45
297.0
 46
0.0
 47
0.0
 48
0.0
 49
0.0
140
0.0
141
0.0
142
1.0
143
1.0
 70
1024
 72
1
 73
1
 74
5
  7

 75
16
 76
0
 77
2
 78
300
147
1.0
148
0.0
149
0.0
100
AcDbLayout
  1
Model
 70
1
 71
0
 10
0.0
 20
0.0
 11
420.0
 21
297.0
 12
0.0
 22
0.0
 32
0.0
 14
1e+20
 24
1e+20
 34
1e+20
 15
-1e+20
 25
-1e+20
 35
-1e+20
146
0.0
 13
0.0
 23
0.0
 33
0.0
 16
1.0
 26
0.0
 36
0.0
 17
0.0
 27
1.0
 37
0.0
 76
1
330
17
  0
LAYOUT
  5
1E
330
D
100
AcDbPlotSettings
  1

  2
Adobe PDF
  4
A3
  6

 40
7.5
 41
20.0
 42
7.5
 43
20.0
 44
420.0
 45
297.0
 46
0.0
 47
0.0
 48
0.0
 49
0.0
140
0.0
141
0.0
142
1.0
143
1.0
 70
0
 72
1
 73
1
 74
5
  7

 75
16
 76
0
 77
2
 78
300
147
1.0
148
0.0
149
0.0
100
AcDbLayout
  1
Layout1
 70
1
 71
1
 10
0.0
 20
0.0
 11
420.0
 21
297.0
 12
0.0
 22
0.0
 32
0.0
 14
1e+20
 24
1e+20
 34
1e+20
 15
-1e+20
 25
-1e+20
 35
-1e+20
146
0.0
 13
0.0
 23
0.0
 33
0.0
 16
1.0
 26
0.0
 36
0.0
 17
0.0
 27
1.0
 37
0.0
 76
1
330
1B
  0
MATERIAL
  5
1F
102
{ACAD_REACTORS
330
E
102
}
330
E
100
AcDbMaterial
  1
ByBlock
  2

 70
0
 40
1.0
 71
1
 41
1.0
 91
-1023410177
 42
1.0
 72
1
  3

 73
1
 74
1
 75
1
 44
0.5
 73
0
 45
1.0
 46
1.0
 77
1
  4

 78
1
 79
1
170
1
 48
1.0
171
1
  6

172
1
173
1
174
1
140
1.0
141
1.0
175
1
  7

176
1
177
1
178
1
143
1.0
179
1
  8

270
1
271
1
272
1
145
1.0
146
1.0
273
1
  9

274
1
275
1
276
1
 42
1.0
 72
1
  3

 73
1
 74
1
 75
1
 94
63
  0
MATERIAL
  5
20
102
{ACAD_REACTORS
330
E
102
}
330
E
100
AcDbMaterial
  1
ByLayer
  2

 70
0
 40
1.0
 71
1
 41
1.0
 91
-1023410177
 42
1.0
 72
1
  3

 73
1
 74
1
 75
1
 44
0.5
 73
0
 45
1.0
 46
1.0
 77
1
  4

 78
1
 79
1
170
1
 48
1.0
171
1
  6

172
1
173
1
174
1
140
1.0
141
1.0
175
1
  7

176
1
177
1
178
1
143
1.0
179
1
  8

270
1
271
1
272
1
145
1.0
146
1.0
273
1
  9

274
1
275
1
276
1
 42
1.0
 72
1
  3

 73
1
 74
1
 75
1
 94
63
  0
MATERIAL
  5
21
102
{ACAD_REACTORS
330
E
102
}
330
E
100
AcDbMaterial
  1
Global
  2

 70
0
 40
1.0
 71
1
 41
1.0
 91
-1023410177
 42
1.0
 72
1
  3

 73
1
 74
1
 75
1
 44
0.5
 73
0
 45
1.0
 46
1.0
 77
1
  4

 78
1
 79
1
170
1
 48
1.0
171
1
  6

172
1
173
1
174
1
140
1.0
141
1.0
175
1
  7

176
1
177
1
178
1
143
1.0
179
1
  8

270
1
271
1
272
1
145
1.0
146
1.0
273
1
  9

274
1
275
1
276
1
 42
1.0
 72
1
  3

 73
1
 74
1
 75
1
 94
63
  0
MLINESTYLE
  5
22
102
{ACAD_REACTORS
330
10
102
}
330
10
100
AcDbMlineStyle
  2
Standard
 70
0
  3

 62
256
 51
90.0
 52
90.0
 71
2
 49
0.5
 62
256
  6
BYLAYER
 49
-0.5
 62
256
  6
BYLAYER
  0
MLEADERSTYLE
  5
2C
102
{ACAD_REACTORS
330
F
102
}
330
F
100
AcDbMLeaderStyle
179
2
170
2
171
1
172
0
 90
2
 40
0.0
 41
0.0
173
1
 91
-1056964608
 92
-2
290
1
 42
2.0
291
1
 43
8.0
  3
Standard
 44
4.0
300

342
29
174
1
175
1
176
0
178
1
 93
-1056964608
 45
4.0
292
0
297
0
 46
4.0
 94
-1056964608
 47
1.0
 49
1.0
140
1.0
294
1
141
0.0
177
0
142
1.0
295
0
296
0
143
3.75
271
0
272
9
273
9
  0
DICTIONARY
  5
2D
330
A
100
AcDbDictionary
280
1
281
1
  3
CREATED_BY_EZDXF
350
2E
  3
WRITTEN_BY_EZDXF
350
68
  0
DICTIONARYVAR
  5
2E
330
2D
100
DictionaryVariables
280
0
  1
0.17 @ 2022-02-15T16:17:57.856427+00:00
  0
DICTIONARYVAR
  5
68
330
2D
100
DictionaryVariables
280
0
  1
0.17 @ 2022-02-15T16:17:57.936363+00:00
  0
ENDSEC
  0
EOF
