  0
SECTION
  2
HEADER
  9
$ACADVER
  1
AC1027
  9
$ACADMAINTVER
 70
105
  9
$DWGCODEPAGE
  3
ANSI_1252
  9
$LASTSAVEDBY
  1
ezdxf
  9
$REQUIREDVERSIONS
160
0
  9
$INSBASE
 10
0.0
 20
0.0
 30
0.0
  9
$EXTMIN
 10
1e+20
 20
1e+20
 30
1e+20
  9
$EXTMAX
 10
-1e+20
 20
-1e+20
 30
-1e+20
  9
$LIMMIN
 10
0.0
 20
0.0
  9
$LIMMAX
 10
420.0
 20
297.0
  9
$ORTHOMODE
 70
0
  9
$REGENMODE
 70
1
  9
$FILLMODE
 70
1
  9
$QTEXTMODE
 70
0
  9
$MIRRTEXT
 70
1
  9
$LTSCALE
 40
1.0
  9
$ATTMODE
 70
1
  9
$TEXTSIZE
 40
2.5
  9
$TRACEWID
 40
1.0
  9
$TEXTSTYLE
  7
Standard
  9
$CLAYER
  8
0
  9
$CELTYPE
  6
ByLayer
  9
$CECOLOR
 62
256
  9
$CELTSCALE
 40
1.0
  9
$DISPSILH
 70
0
  9
$DIMSCALE
 40
1.0
  9
$DIMASZ
 40
2.5
  9
$DIMEXO
 40
0.625
  9
$DIMDLI
 40
3.75
  9
$DIMRND
 40
0.0
  9
$DIMDLE
 40
0.0
  9
$DIMEXE
 40
1.25
  9
$DIMTP
 40
0.0
  9
$DIMTM
 40
0.0
  9
$DIMTXT
 40
2.5
  9
$DIMCEN
 40
2.5
  9
$DIMTSZ
 40
0.0
  9
$DIMTOL
 70
0
  9
$DIMLIM
 70
0
  9
$DIMTIH
 70
0
  9
$DIMTOH
 70
0
  9
$DIMSE1
 70
0
  9
$DIMSE2
 70
0
  9
$DIMTAD
 70
1
  9
$DIMZIN
 70
8
  9
$DIMBLK
  1

  9
$DIMASO
 70
1
  9
$DIMSHO
 70
1
  9
$DIMPOST
  1

  9
$DIMAPOST
  1

  9
$DIMALT
 70
0
  9
$DIMALTD
 70
3
  9
$DIMALTF
 40
0.03937007874
  9
$DIMLFAC
 40
1.0
  9
$DIMTOFL
 70
1
  9
$DIMTVP
 40
0.0
  9
$DIMTIX
 70
0
  9
$DIMSOXD
 70
0
  9
$DIMSAH
 70
0
  9
$DIMBLK1
  1

  9
$DIMBLK2
  1

  9
$DIMSTYLE
  2
ISO-25
  9
$DIMCLRD
 70
0
  9
$DIMCLRE
 70
0
  9
$DIMCLRT
 70
0
  9
$DIMTFAC
 40
1.0
  9
$DIMGAP
 40
0.625
  9
$DIMJUST
 70
0
  9
$DIMSD1
 70
0
  9
$DIMSD2
 70
0
  9
$DIMTOLJ
 70
0
  9
$DIMTZIN
 70
8
  9
$DIMALTZ
 70
0
  9
$DIMALTTZ
 70
0
  9
$DIMUPT
 70
0
  9
$DIMDEC
 70
2
  9
$DIMTDEC
 70
2
  9
$DIMALTU
 70
2
  9
$DIMALTTD
 70
3
  9
$DIMTXSTY
  7
Standard
  9
$DIMAUNIT
 70
0
  9
$DIMADEC
 70
0
  9
$DIMALTRND
 40
0.0
  9
$DIMAZIN
 70
0
  9
$DIMDSEP
 70
44
  9
$DIMATFIT
 70
3
  9
$DIMFRAC
 70
0
  9
$DIMLDRBLK
  1

  9
$DIMLUNIT
 70
2
  9
$DIMLWD
 70
-2
  9
$DIMLWE
 70
-2
  9
$DIMTMOVE
 70
0
  9
$DIMFXL
 40
1.0
  9
$DIMFXLON
 70
0
  9
$DIMJOGANG
 40
0.785398163397
  9
$DIMTFILL
 70
0
  9
$DIMTFILLCLR
 70
0
  9
$DIMARCSYM
 70
0
  9
$DIMLTYPE
  6

  9
$DIMLTEX1
  6

  9
$DIMLTEX2
  6

  9
$DIMTXTDIRECTION
 70
0
  9
$LUNITS
 70
2
  9
$LUPREC
 70
4
  9
$SKETCHINC
 40
1.0
  9
$FILLETRAD
 40
10.0
  9
$AUNITS
 70
0
  9
$AUPREC
 70
2
  9
$MENU
  1
.
  9
$ELEVATION
 40
0.0
  9
$PELEVATION
 40
0.0
  9
$THICKNESS
 40
0.0
  9
$LIMCHECK
 70
0
  9
$CHAMFERA
 40
0.0
  9
$CHAMFERB
 40
0.0
  9
$CHAMFERC
 40
0.0
  9
$CHAMFERD
 40
0.0
  9
$SKPOLY
 70
0
  9
$TDCREATE
 40
2459626.745949074
  9
$TDUCREATE
 40
2458532.153996898
  9
$TDUPDATE
 40
2459626.745949074
  9
$TDUUPDATE
 40
2458532.1544311
  9
$TDINDWG
 40
0.0
  9
$TDUSRTIMER
 40
0.0
  9
$USRTIMER
 70
1
  9
$ANGBASE
 50
0.0
  9
$ANGDIR
 70
0
  9
$PDMODE
 70
0
  9
$PDSIZE
 40
0.0
  9
$PLINEWID
 40
0.0
  9
$SPLFRAME
 70
0
  9
$SPLINETYPE
 70
6
  9
$SPLINESEGS
 70
8
  9
$HANDSEED
  5
168
  9
$SURFTAB1
 70
6
  9
$SURFTAB2
 70
6
  9
$SURFTYPE
 70
6
  9
$SURFU
 70
6
  9
$SURFV
 70
6
  9
$UCSBASE
  2

  9
$UCSNAME
  2

  9
$UCSORG
 10
0.0
 20
0.0
 30
0.0
  9
$UCSXDIR
 10
1.0
 20
0.0
 30
0.0
  9
$UCSYDIR
 10
0.0
 20
1.0
 30
0.0
  9
$UCSORTHOREF
  2

  9
$UCSORTHOVIEW
 70
0
  9
$UCSORGTOP
 10
0.0
 20
0.0
 30
0.0
  9
$UCSORGBOTTOM
 10
0.0
 20
0.0
 30
0.0
  9
$UCSORGLEFT
 10
0.0
 20
0.0
 30
0.0
  9
$UCSORGRIGHT
 10
0.0
 20
0.0
 30
0.0
  9
$UCSORGFRONT
 10
0.0
 20
0.0
 30
0.0
  9
$UCSORGBACK
 10
0.0
 20
0.0
 30
0.0
  9
$PUCSBASE
  2

  9
$PUCSNAME
  2

  9
$PUCSORG
 10
0.0
 20
0.0
 30
0.0
  9
$PUCSXDIR
 10
1.0
 20
0.0
 30
0.0
  9
$PUCSYDIR
 10
0.0
 20
1.0
 30
0.0
  9
$PUCSORTHOREF
  2

  9
$PUCSORTHOVIEW
 70
0
  9
$PUCSORGTOP
 10
0.0
 20
0.0
 30
0.0
  9
$PUCSORGBOTTOM
 10
0.0
 20
0.0
 30
0.0
  9
$PUCSORGLEFT
 10
0.0
 20
0.0
 30
0.0
  9
$PUCSORGRIGHT
 10
0.0
 20
0.0
 30
0.0
  9
$PUCSORGFRONT
 10
0.0
 20
0.0
 30
0.0
  9
$PUCSORGBACK
 10
0.0
 20
0.0
 30
0.0
  9
$USERI1
 70
0
  9
$USERI2
 70
0
  9
$USERI3
 70
0
  9
$USERI4
 70
0
  9
$USERI5
 70
0
  9
$USERR1
 40
0.0
  9
$USERR2
 40
0.0
  9
$USERR3
 40
0.0
  9
$USERR4
 40
0.0
  9
$USERR5
 40
0.0
  9
$WORLDVIEW
 70
1
  9
$SHADEDGE
 70
3
  9
$SHADEDIF
 70
70
  9
$TILEMODE
 70
1
  9
$MAXACTVP
 70
64
  9
$PINSBASE
 10
0.0
 20
0.0
 30
0.0
  9
$PLIMCHECK
 70
0
  9
$PEXTMIN
 10
1e+20
 20
1e+20
 30
1e+20
  9
$PEXTMAX
 10
-1e+20
 20
-1e+20
 30
-1e+20
  9
$PLIMMIN
 10
0.0
 20
0.0
  9
$PLIMMAX
 10
420.0
 20
297.0
  9
$UNITMODE
 70
0
  9
$VISRETAIN
 70
1
  9
$PLINEGEN
 70
0
  9
$PSLTSCALE
 70
1
  9
$TREEDEPTH
 70
3020
  9
$CMLSTYLE
  2
Standard
  9
$CMLJUST
 70
0
  9
$CMLSCALE
 40
20.0
  9
$PROXYGRAPHICS
 70
1
  9
$MEASUREMENT
 70
1
  9
$CELWEIGHT
370
-1
  9
$ENDCAPS
280
0
  9
$JOINSTYLE
280
0
  9
$LWDISPLAY
290
0
  9
$INSUNITS
 70
6
  9
$HYPERLINKBASE
  1

  9
$STYLESHEET
  1

  9
$XEDIT
290
1
  9
$CEPSNTYPE
380
0
  9
$PSTYLEMODE
290
1
  9
$FINGERPRINTGUID
  2
{2079EA91-338C-4ABC-9418-2658A5E0FB41}
  9
$VERSIONGUID
  2
{D6EE478A-67CB-41C6-BDA6-8F966513CFD2}
  9
$EXTNAMES
290
1
  9
$PSVPSCALE
 40
0.0
  9
$OLESTARTUP
290
0
  9
$SORTENTS
280
127
  9
$INDEXCTL
280
0
  9
$HIDETEXT
280
1
  9
$XCLIPFRAME
280
0
  9
$HALOGAP
280
0
  9
$OBSCOLOR
 70
257
  9
$OBSLTYPE
280
0
  9
$INTERSECTIONDISPLAY
280
0
  9
$INTERSECTIONCOLOR
 70
257
  9
$DIMASSOC
280
2
  9
$PROJECTNAME
  1

  9
$CAMERADISPLAY
290
0
  9
$LENSLENGTH
 40
50.0
  9
$CAMERAHEIGHT
 40
0.0
  9
$STEPSPERSEC
 40
24.0
  9
$STEPSIZE
 40
100.0
  9
$3DDWFPREC
 40
2.0
  9
$PSOLWIDTH
 40
0.005
  9
$PSOLHEIGHT
 40
0.08
  9
$LOFTANG1
 40
1.570796326795
  9
$LOFTANG2
 40
1.570796326795
  9
$LOFTMAG1
 40
0.0
  9
$LOFTMAG2
 40
0.0
  9
$LOFTPARAM
 70
7
  9
$LOFTNORMALS
280
1
  9
$LATITUDE
 40
37.795
  9
$LONGITUDE
 40
-122.394
  9
$NORTHDIRECTION
 40
0.0
  9
$TIMEZONE
 70
-8000
  9
$LIGHTGLYPHDISPLAY
280
1
  9
$TILEMODELIGHTSYNCH
280
1
  9
$CMATERIAL
347
20
  9
$SOLIDHIST
280
0
  9
$SHOWHIST
280
1
  9
$DWFFRAME
280
2
  9
$DGNFRAME
280
2
  9
$REALWORLDSCALE
290
1
  9
$INTERFERECOLOR
 62
256
  9
$CSHADOW
280
0
  9
$SHADOWPLANELOCATION
 40
0.0
  0
ENDSEC
  0
SECTION
  2
CLASSES
  0
CLASS
  1
ACDBDICTIONARYWDFLT
  2
AcDbDictionaryWithDefault
  3
ObjectDBX Classes
 90
0
 91
0
280
0
281
0
  0
CLASS
  1
SUN
  2
AcDbSun
  3
SCENEOE
 90
1153
 91
0
280
0
281
0
  0
CLASS
  1
VISUALSTYLE
  2
AcDbVisualStyle
  3
ObjectDBX Classes
 90
4095
 91
0
280
0
281
0
  0
CLASS
  1
MATERIAL
  2
AcDbMaterial
  3
ObjectDBX Classes
 90
1153
 91
0
280
0
281
0
  0
CLASS
  1
SCALE
  2
AcDbScale
  3
ObjectDBX Classes
 90
1153
 91
0
280
0
281
0
  0
CLASS
  1
TABLESTYLE
  2
AcDbTableStyle
  3
ObjectDBX Classes
 90
4095
 91
0
280
0
281
0
  0
CLASS
  1
MLEADERSTYLE
  2
AcDbMLeaderStyle
  3
ACDB_MLEADERSTYLE_CLASS
 90
4095
 91
0
280
0
281
0
  0
CLASS
  1
DICTIONARYVAR
  2
AcDbDictionaryVar
  3
ObjectDBX Classes
 90
0
 91
0
280
0
281
0
  0
CLASS
  1
CELLSTYLEMAP
  2
AcDbCellStyleMap
  3
ObjectDBX Classes
 90
1152
 91
0
280
0
281
0
  0
CLASS
  1
MENTALRAYRENDERSETTINGS
  2
AcDbMentalRayRenderSettings
  3
SCENEOE
 90
1024
 91
0
280
0
281
0
  0
CLASS
  1
ACDBDETAILVIEWSTYLE
  2
AcDbDetailViewStyle
  3
ObjectDBX Classes
 90
1025
 91
0
280
0
281
0
  0
CLASS
  1
ACDBSECTIONVIEWSTYLE
  2
AcDbSectionViewStyle
  3
ObjectDBX Classes
 90
1025
 91
0
280
0
281
0
  0
CLASS
  1
RASTERVARIABLES
  2
AcDbRasterVariables
  3
ISM
 90
0
 91
0
280
0
281
0
  0
CLASS
  1
ACDBPLACEHOLDER
  2
AcDbPlaceHolder
  3
ObjectDBX Classes
 90
0
 91
0
280
0
281
0
  0
CLASS
  1
LAYOUT
  2
AcDbLayout
  3
ObjectDBX Classes
 90
0
 91
0
280
0
281
0
  0
ENDSEC
  0
SECTION
  2
TABLES
  0
TABLE
  2
VPORT
  5
8
330
0
100
AcDbSymbolTable
 70
1
  0
VPORT
  5
23
330
8
100
AcDbSymbolTableRecord
100
AcDbViewportTableRecord
  2
*Active
 70
0
 10
0.0
 20
0.0
 11
1.0
 21
1.0
 12
344.2
 22
148.5
 13
0.0
 23
0.0
 14
0.5
 24
0.5
 15
0.5
 25
0.5
 16
0.0
 26
0.0
 36
1.0
 17
0.0
 27
0.0
 37
0.0
 40
297.0
 41
1.34
 42
50.0
 43
0.0
 44
0.0
 50
0.0
 51
0.0
 71
0
 72
1000
 73
1
 74
3
 75
0
 76
0
 77
0
 78
0
281
0
 65
0
146
0.0
  0
ENDTAB
  0
TABLE
  2
LTYPE
  5
2
330
0
100
AcDbSymbolTable
 70
3
  0
LTYPE
  5
24
330
2
100
AcDbSymbolTableRecord
100
AcDbLinetypeTableRecord
  2
ByBlock
 70
0
  3

 72
65
 73
0
 40
0.0
  0
LTYPE
  5
25
330
2
100
AcDbSymbolTableRecord
100
AcDbLinetypeTableRecord
  2
ByLayer
 70
0
  3

 72
65
 73
0
 40
0.0
  0
LTYPE
  5
26
330
2
100
AcDbSymbolTableRecord
100
AcDbLinetypeTableRecord
  2
Continuous
 70
0
  3

 72
65
 73
0
 40
0.0
  0
ENDTAB
  0
TABLE
  2
LAYER
  5
1
330
0
100
AcDbSymbolTable
 70
2
  0
LAYER
  5
27
330
1
100
AcDbSymbolTableRecord
100
AcDbLayerTableRecord
  2
0
 70
0
 62
7
  6
Continuous
370
-3
390
13
347
21
  0
LAYER
  5
28
330
1
100
AcDbSymbolTableRecord
100
AcDbLayerTableRecord
  2
Defpoints
 70
0
 62
7
  6
Continuous
290
0
370
-3
390
13
347
21
  0
ENDTAB
  0
TABLE
  2
STYLE
  5
5
330
0
100
AcDbSymbolTable
 70
1
  0
STYLE
  5
29
330
5
100
AcDbSymbolTableRecord
100
AcDbTextStyleTableRecord
  2
Standard
 70
0
 40
0.0
 41
1.0
 50
0.0
 71
0
 42
2.5
  3
txt
  4

  0
ENDTAB
  0
TABLE
  2
VIEW
  5
7
330
0
100
AcDbSymbolTable
 70
0
  0
ENDTAB
  0
TABLE
  2
UCS
  5
6
330
0
100
AcDbSymbolTable
 70
0
  0
ENDTAB
  0
TABLE
  2
APPID
  5
3
330
0
100
AcDbSymbolTable
 70
3
  0
APPID
  5
2A
330
3
100
AcDbSymbolTableRecord
100
AcDbRegAppTableRecord
  2
ACAD
 70
0
  0
APPID
  5
165
330
3
100
AcDbSymbolTableRecord
100
AcDbRegAppTableRecord
  2
HATCHBACKGROUNDCOLOR
 70
0
  0
APPID
  5
166
330
3
100
AcDbSymbolTableRecord
100
AcDbRegAppTableRecord
  2
EZDXF
 70
0
  0
ENDTAB
  0
TABLE
  2
DIMSTYLE
  5
4
330
0
100
AcDbSymbolTable
 70
1
100
AcDbDimStyleTable
  0
DIMSTYLE
105
2B
330
4
100
AcDbSymbolTableRecord
100
AcDbDimStyleTableRecord
  2
Standard
 70
0
 40
1.0
 41
2.5
 42
0.625
 43
3.75
 44
1.25
 45
0.0
 46
0.0
 47
0.0
 48
0.0
 49
2.5
140
2.5
141
2.5
142
0.0
143
0.03937007874
144
1.0
145
0.0
146
1.0
147
0.625
148
0.0
 69
0
 70
0
 71
0
 72
0
 73
0
 74
0
 75
0
 76
0
 77
1
 78
8
 79
0
170
0
171
3
172
1
173
0
174
0
175
0
176
0
177
0
178
0
179
0
271
0
272
2
273
2
274
3
275
0
276
0
277
2
278
44
279
0
280
0
281
0
282
0
283
0
284
8
285
0
286
0
288
0
289
3
290
0
371
-2
372
-2
  0
ENDTAB
  0
TABLE
  2
BLOCK_RECORD
  5
9
330
0
100
AcDbSymbolTable
 70
2
  0
BLOCK_RECORD
  5
17
330
9
100
AcDbSymbolTableRecord
100
AcDbBlockTableRecord
  2
*Model_Space
340
1A
 70
0
280
1
281
0
  0
BLOCK_RECORD
  5
1B
330
9
100
AcDbSymbolTableRecord
100
AcDbBlockTableRecord
  2
*Paper_Space
340
1E
 70
0
280
1
281
0
  0
ENDTAB
  0
ENDSEC
  0
SECTION
  2
BLOCKS
  0
BLOCK
  5
18
330
17
100
AcDbEntity
  8
0
100
AcDbBlockBegin
  2
*Model_Space
 70
0
 10
0.0
 20
0.0
 30
0.0
  3
*Model_Space
  1

  0
ENDBLK
  5
19
330
17
100
AcDbEntity
  8
0
100
AcDbBlockEnd
  0
BLOCK
  5
1C
330
1B
100
AcDbEntity
  8
0
100
AcDbBlockBegin
  2
*Paper_Space
 70
0
 10
0.0
 20
0.0
 30
0.0
  3
*Paper_Space
  1

  0
ENDBLK
  5
1D
330
1B
100
AcDbEntity
  8
0
100
AcDbBlockEnd
  0
ENDSEC
  0
SECTION
  2
ENTITIES
  0
SPLINE
  5
2F
330
17
100
AcDbEntity
  8
0
100
AcDbSpline
 70
0
 71
8
 72
88
 73
79
 74
0
 40
0.0
 40
0.0
 40
0.0
 40
0.0
 40
0.0
 40
0.0
 40
0.0
 40
0.0
 40
0.0
 40
0.43063010131061036
 40
0.43063010131061036
 40
0.43063010131061036
 40
0.43063010131061036
 40
0.43063010131061036
 40
0.43063010131061036
 40
0.43063010131061036
 40
0.6758253146283901
 40
0.6758253146283901
 40
0.6758253146283901
 40
0.6758253146283901
 40
0.6758253146283901
 40
0.6758253146283901
 40
0.6758253146283901
 40
0.8036812512461876
 40
0.8036812512461876
 40
0.8036812512461876
 40
0.8036812512461876
 40
0.8036812512461876
 40
0.8036812512461876
 40
0.8036812512461876
 40
0.8381693800165678
 40
0.8381693800165678
 40
0.8381693800165678
 40
0.8381693800165678
 40
0.8381693800165678
 40
0.8381693800165678
 40
0.8381693800165678
 40
0.8745922529519726
 40
0.8745922529519726
 40
0.8745922529519726
 40
0.8745922529519726
 40
0.8745922529519726
 40
0.8745922529519726
 40
0.8745922529519726
 40
0.9132954901156417
 40
0.9132954901156417
 40
0.9132954901156417
 40
0.9132954901156417
 40
0.9132954901156417
 40
0.9132954901156417
 40
0.9132954901156417
 40
0.9452552619072229
 40
0.9452552619072229
 40
0.9452552619072229
 40
0.9452552619072229
 40
0.9452552619072229
 40
0.9452552619072229
 40
0.9452552619072229
 40
0.9694703498263052
 40
0.9694703498263052
 40
0.9694703498263052
 40
0.9694703498263052
 40
0.9694703498263052
 40
0.9694703498263052
 40
0.9694703498263052
 40
0.9823867514436075
 40
0.9823867514436075
 40
0.9823867514436075
 40
0.9823867514436075
 40
0.9823867514436075
 40
0.9823867514436075
 40
0.9823867514436075
 40
0.9883970997302463
 40
0.9883970997302463
 40
0.9883970997302463
 40
0.9883970997302463
 40
0.9883970997302463
 40
0.9883970997302463
 40
0.9883970997302463
 40
1.0
 40
1.0
 40
1.0
 40
1.0
 40
1.0
 40
1.0
 40
1.0
 40
1.0
 40
1.0
 10
13.100000000042465
 20
61.08295946705875
 30
26.0
 10
12.60647810328255
 20
61.16917005788032
 30
26.0
 10
12.113076752545538
 20
61.25551855981386
 30
26.0
 10
11.619796649947839
 20
61.34201187306233
 30
26.0
 10
11.126654331753784
 20
61.42865498104181
 30
26.0
 10
10.633686712361662
 20
61.5154503039931
 30
26.0
 10
10.140951031479794
 20
61.602397919857395
 30
26.0
 10
9.648530219468677
 20
61.68949494200435
 30
26.0
 10
8.876428622601166
 20
61.826404192115675
 30
26.0
 10
8.596480099090867
 20
61.87611578673906
 30
26.0
 10
8.31670670352428
 20
61.925869922437926
 30
26.0
 10
8.037136934828109
 20
61.975664330131345
 30
26.0
 10
7.757827784873128
 20
62.0254919517967
 30
26.0
 10
7.478878176724763
 20
62.07533843383228
 30
26.0
 10
7.200424035656706
 20
62.125183091995225
 30
26.0
 10
6.777872279508839
 20
62.20095937755785
 30
26.0
 10
6.63329171226315
 20
62.22691166501356
 30
26.0
 10
6.4889503646553965
 20
62.252846160387804
 30
26.0
 10
6.344887136240402
 20
62.278756368751516
 30
26.0
 10
6.201175949256692
 20
62.304629513635085
 30
26.0
 10
6.057951584149353
 20
62.33044167911447
 30
26.0
 10
5.9153926375013866
 20
62.35616094504792
 30
26.0
 10
5.735637452593443
 20
62.38862462943414
 30
26.0
 10
5.697525533546216
 20
62.39550957055399
 30
26.0
 10
5.659495585817456
 20
62.40238164696253
 30
26.0
 10
5.621556439876967
 20
62.409239249929215
 30
26.0
 10
5.583719284482165
 20
62.41608033843563
 30
26.0
 10
5.545998164080556
 20
62.42290234600954
 30
26.0
 10
5.50841047621221
 20
62.42970208755921
 30
26.0
 10
5.431444513165208
 20
62.4436292347893
 30
26.0
 10
5.3920885207079285
 20
62.45075282011612
 30
26.0
 10
5.352934281311752
 20
62.457841839234
 30
26.0
 10
5.313999964015661
 20
62.464893107075426
 30
26.0
 10
5.275329398082196
 20
62.4718985426633
 30
26.0
 10
5.236961188334776
 20
62.47885120918048
 30
26.0
 10
5.198952278242662
 20
62.4857407016655
 30
26.0
 10
5.121432455128544
 20
62.49979586804867
 30
26.0
 10
5.081999800180692
 20
62.506947599895994
 30
26.0
 10
5.043129800596323
 20
62.51399941532146
 30
26.0
 10
5.004925502581485
 20
62.520932541250836
 30
26.0
 10
4.967536637854754
 20
62.52771969918425
 30
26.0
 10
4.931160624335736
 20
62.534324903422636
 30
26.0
 10
4.896042040739355
 20
62.54070354097292
 30
26.0
 10
4.834748439669667
 20
62.55183923146577
 30
26.0
 10
4.808073164432921
 20
62.55668665121294
 30
26.0
 10
4.782642280524411
 20
62.561308967050905
 30
26.0
 10
4.758681011192723
 20
62.56566508357084
 30
26.0
 10
4.736431203207461
 20
62.56971084124569
 30
26.0
 10
4.716127394300652
 20
62.5734033770667
 30
26.0
 10
4.697960016618411
 20
62.57670783984901
 30
26.0
 10
4.669952746294505
 20
62.58180266946658
 30
26.0
 10
4.659156214612706
 20
62.58376689652398
 30
26.0
 10
4.6496835514278505
 20
62.58549043610615
 30
26.0
 10
4.641531665277051
 20
62.586973777268874
 30
26.0
 10
4.634653195405014
 20
62.588225478408276
 30
26.0
 10
4.628964217619367
 20
62.58926076895017
 30
26.0
 10
4.624353423540385
 20
62.590099877715446
 30
26.0
 10
4.618740171233058
 20
62.59112144653585
 30
26.0
 10
4.617057435183102
 20
62.59142769739318
 30
26.0
 10
4.615624920016504
 20
62.591688412984375
 30
26.0
 10
4.614421849759517
 20
62.59190737243071
 30
26.0
 10
4.6134265908050605
 20
62.592088511633115
 30
26.0
 10
4.612616925174359
 20
62.592235873380915
 30
26.0
 10
4.611970323778571
 20
62.5923535574607
 30
26.0
 10
4.611228715862154
 20
62.592488533557514
 30
26.0
 10
4.611023666293152
 20
62.59252585361732
 30
26.0
 10
4.6108467682443175
 20
62.592558050017956
 30
26.0
 10
4.610695720757527
 20
62.59258554151749
 30
26.0
 10
4.610568224645632
 20
62.59260874655868
 30
26.0
 10
4.610461982492451
 20
62.59262808326897
 30
26.0
 10
4.610374698652783
 20
62.592643969460504
 30
26.0
 10
4.61016774940581
 20
62.59268163550926
 30
26.0
 10
4.610125236761141
 20
62.59268349982985
 30
26.0
 10
4.610121775830564
 20
62.592680624832816
 30
26.0
 10
4.610121209526197
 20
62.59268358894758
 30
26.0
 10
4.610105989160114
 20
62.59269533979217
 30
26.0
 10
4.610077174444333
 20
62.59271119417321
 30
26.0
 10
4.610054433490824
 20
62.59271883808591
 30
26.0
 10
4.6100760428115075
 20
62.59269832671401
 30
26.0
  0
SPLINE
  5
30
330
17
100
AcDbEntity
  8
0
100
AcDbSpline
 70
0
 71
8
 72
522
 73
513
 74
0
 40
0.0
 40
0.0
 40
0.0
 40
0.0
 40
0.0
 40
0.0
 40
0.0
 40
0.0
 40
0.0
 40
0.00016659081035569706
 40
0.00016659081035569706
 40
0.00016659081035569706
 40
0.00016659081035569706
 40
0.00016659081035569706
 40
0.00016659081035569706
 40
0.00016659081035569706
 40
0.00034984081905786344
 40
0.00034984081905786344
 40
0.00034984081905786344
 40
0.00034984081905786344
 40
0.00034984081905786344
 40
0.00034984081905786344
 40
0.00034984081905786344
 40
0.0007228560727114237
 40
0.0007228560727114237
 40
0.0007228560727114237
 40
0.0007228560727114237
 40
0.0007228560727114237
 40
0.0007228560727114237
 40
0.0007228560727114237
 40
0.0012258228196505318
 40
0.0012258228196505318
 40
0.0012258228196505318
 40
0.0012258228196505318
 40
0.0012258228196505318
 40
0.0012258228196505318
 40
0.0012258228196505318
 40
0.00269339448089278
 40
0.00269339448089278
 40
0.00269339448089278
 40
0.00269339448089278
 40
0.00269339448089278
 40
0.00269339448089278
 40
0.00269339448089278
 40
0.003678327080045047
 40
0.003678327080045047
 40
0.003678327080045047
 40
0.003678327080045047
 40
0.003678327080045047
 40
0.003678327080045047
 40
0.003678327080045047
 40
0.004074731504731085
 40
0.004074731504731085
 40
0.004074731504731085
 40
0.004074731504731085
 40
0.004074731504731085
 40
0.004074731504731085
 40
0.004074731504731085
 40
0.0045676337059614245
 40
0.0045676337059614245
 40
0.0045676337059614245
 40
0.0045676337059614245
 40
0.0045676337059614245
 40
0.0045676337059614245
 40
0.0045676337059614245
 40
0.005437362747428828
 40
0.005437362747428828
 40
0.005437362747428828
 40
0.005437362747428828
 40
0.005437362747428828
 40
0.005437362747428828
 40
0.005437362747428828
 40
0.006525266261085115
 40
0.006525266261085115
 40
0.006525266261085115
 40
0.006525266261085115
 40
0.006525266261085115
 40
0.006525266261085115
 40
0.006525266261085115
 40
0.007512527807927154
 40
0.007512527807927154
 40
0.007512527807927154
 40
0.007512527807927154
 40
0.007512527807927154
 40
0.007512527807927154
 40
0.007512527807927154
 40
0.008250702453079373
 40
0.008250702453079373
 40
0.008250702453079373
 40
0.008250702453079373
 40
0.008250702453079373
 40
0.008250702453079373
 40
0.008250702453079373
 40
0.008742869441560702
 40
0.008742869441560702
 40
0.008742869441560702
 40
0.008742869441560702
 40
0.008742869441560702
 40
0.008742869441560702
 40
0.008742869441560702
 40
0.009235035244130876
 40
0.009235035244130876
 40
0.009235035244130876
 40
0.009235035244130876
 40
0.009235035244130876
 40
0.009235035244130876
 40
0.009235035244130876
 40
0.011152004574272746
 40
0.011152004574272746
 40
0.011152004574272746
 40
0.011152004574272746
 40
0.011152004574272746
 40
0.011152004574272746
 40
0.011152004574272746
 40
0.012456326231566183
 40
0.012456326231566183
 40
0.012456326231566183
 40
0.012456326231566183
 40
0.012456326231566183
 40
0.012456326231566183
 40
0.012456326231566183
 40
0.014184079235075246
 40
0.014184079235075246
 40
0.014184079235075246
 40
0.014184079235075246
 40
0.014184079235075246
 40
0.014184079235075246
 40
0.014184079235075246
 40
0.018455513197566747
 40
0.018455513197566747
 40
0.018455513197566747
 40
0.018455513197566747
 40
0.018455513197566747
 40
0.018455513197566747
 40
0.018455513197566747
 40
0.023573117221715675
 40
0.023573117221715675
 40
0.023573117221715675
 40
0.023573117221715675
 40
0.023573117221715675
 40
0.023573117221715675
 40
0.023573117221715675
 40
0.026358900300560727
 40
0.026358900300560727
 40
0.026358900300560727
 40
0.026358900300560727
 40
0.026358900300560727
 40
0.026358900300560727
 40
0.026358900300560727
 40
0.02914467391053384
 40
0.02914467391053384
 40
0.02914467391053384
 40
0.02914467391053384
 40
0.02914467391053384
 40
0.02914467391053384
 40
0.02914467391053384
 40
0.037519528373959776
 40
0.037519528373959776
 40
0.037519528373959776
 40
0.037519528373959776
 40
0.037519528373959776
 40
0.037519528373959776
 40
0.037519528373959776
 40
0.0526735311998497
 40
0.0526735311998497
 40
0.0526735311998497
 40
0.0526735311998497
 40
0.0526735311998497
 40
0.0526735311998497
 40
0.0526735311998497
 40
0.06682622122494329
 40
0.06682622122494329
 40
0.06682622122494329
 40
0.06682622122494329
 40
0.06682622122494329
 40
0.06682622122494329
 40
0.06682622122494329
 40
0.0789321002273538
 40
0.0789321002273538
 40
0.0789321002273538
 40
0.0789321002273538
 40
0.0789321002273538
 40
0.0789321002273538
 40
0.0789321002273538
 40
0.12432664458464567
 40
0.12432664458464567
 40
0.12432664458464567
 40
0.12432664458464567
 40
0.12432664458464567
 40
0.12432664458464567
 40
0.12432664458464567
 40
0.15680264096085406
 40
0.15680264096085406
 40
0.15680264096085406
 40
0.15680264096085406
 40
0.15680264096085406
 40
0.15680264096085406
 40
0.15680264096085406
 40
0.1696319294972319
 40
0.1696319294972319
 40
0.1696319294972319
 40
0.1696319294972319
 40
0.1696319294972319
 40
0.1696319294972319
 40
0.1696319294972319
 40
0.1814085891905322
 40
0.1814085891905322
 40
0.1814085891905322
 40
0.1814085891905322
 40
0.1814085891905322
 40
0.1814085891905322
 40
0.1814085891905322
 40
0.22519137046837612
 40
0.22519137046837612
 40
0.22519137046837612
 40
0.22519137046837612
 40
0.22519137046837612
 40
0.22519137046837612
 40
0.22519137046837612
 40
0.27427193905878433
 40
0.27427193905878433
 40
0.27427193905878433
 40
0.27427193905878433
 40
0.27427193905878433
 40
0.27427193905878433
 40
0.27427193905878433
 40
0.3157826960366583
 40
0.3157826960366583
 40
0.3157826960366583
 40
0.3157826960366583
 40
0.3157826960366583
 40
0.3157826960366583
 40
0.3157826960366583
 40
0.3302762783385538
 40
0.3302762783385538
 40
0.3302762783385538
 40
0.3302762783385538
 40
0.3302762783385538
 40
0.3302762783385538
 40
0.3302762783385538
 40
0.34315961888798646
 40
0.34315961888798646
 40
0.34315961888798646
 40
0.34315961888798646
 40
0.34315961888798646
 40
0.34315961888798646
 40
0.34315961888798646
 40
0.44139313515288303
 40
0.44139313515288303
 40
0.44139313515288303
 40
0.44139313515288303
 40
0.44139313515288303
 40
0.44139313515288303
 40
0.44139313515288303
 40
0.48970475587788137
 40
0.48970475587788137
 40
0.48970475587788137
 40
0.48970475587788137
 40
0.48970475587788137
 40
0.48970475587788137
 40
0.48970475587788137
 40
0.5006546221492141
 40
0.5006546221492141
 40
0.5006546221492141
 40
0.5006546221492141
 40
0.5006546221492141
 40
0.5006546221492141
 40
0.5006546221492141
 40
0.5860044461669127
 40
0.5860044461669127
 40
0.5860044461669127
 40
0.5860044461669127
 40
0.5860044461669127
 40
0.5860044461669127
 40
0.5860044461669127
 40
0.6246523379697536
 40
0.6246523379697536
 40
0.6246523379697536
 40
0.6246523379697536
 40
0.6246523379697536
 40
0.6246523379697536
 40
0.6246523379697536
 40
0.647196423085185
 40
0.647196423085185
 40
0.647196423085185
 40
0.647196423085185
 40
0.647196423085185
 40
0.647196423085185
 40
0.647196423085185
 40
0.6584680930343834
 40
0.6584680930343834
 40
0.6584680930343834
 40
0.6584680930343834
 40
0.6584680930343834
 40
0.6584680930343834
 40
0.6584680930343834
 40
0.6713484274371226
 40
0.6713484274371226
 40
0.6713484274371226
 40
0.6713484274371226
 40
0.6713484274371226
 40
0.6713484274371226
 40
0.6713484274371226
 40
0.6953975504861193
 40
0.6953975504861193
 40
0.6953975504861193
 40
0.6953975504861193
 40
0.6953975504861193
 40
0.6953975504861193
 40
0.6953975504861193
 40
0.7498898818654124
 40
0.7498898818654124
 40
0.7498898818654124
 40
0.7498898818654124
 40
0.7498898818654124
 40
0.7498898818654124
 40
0.7498898818654124
 40
0.7946805274760692
 40
0.7946805274760692
 40
0.7946805274760692
 40
0.7946805274760692
 40
0.7946805274760692
 40
0.7946805274760692
 40
0.7946805274760692
 40
0.8056625409500054
 40
0.8056625409500054
 40
0.8056625409500054
 40
0.8056625409500054
 40
0.8056625409500054
 40
0.8056625409500054
 40
0.8056625409500054
 40
0.8369104058296626
 40
0.8369104058296626
 40
0.8369104058296626
 40
0.8369104058296626
 40
0.8369104058296626
 40
0.8369104058296626
 40
0.8369104058296626
 40
0.8834390211177591
 40
0.8834390211177591
 40
0.8834390211177591
 40
0.8834390211177591
 40
0.8834390211177591
 40
0.8834390211177591
 40
0.8834390211177591
 40
0.9028220900394973
 40
0.9028220900394973
 40
0.9028220900394973
 40
0.9028220900394973
 40
0.9028220900394973
 40
0.9028220900394973
 40
0.9028220900394973
 40
0.9114373133553578
 40
0.9114373133553578
 40
0.9114373133553578
 40
0.9114373133553578
 40
0.9114373133553578
 40
0.9114373133553578
 40
0.9114373133553578
 40
0.9205367025814605
 40
0.9205367025814605
 40
0.9205367025814605
 40
0.9205367025814605
 40
0.9205367025814605
 40
0.9205367025814605
 40
0.9205367025814605
 40
0.9404637135789288
 40
0.9404637135789288
 40
0.9404637135789288
 40
0.9404637135789288
 40
0.9404637135789288
 40
0.9404637135789288
 40
0.9404637135789288
 40
0.959073989445969
 40
0.959073989445969
 40
0.959073989445969
 40
0.959073989445969
 40
0.959073989445969
 40
0.959073989445969
 40
0.959073989445969
 40
0.9711644055460258
 40
0.9711644055460258
 40
0.9711644055460258
 40
0.9711644055460258
 40
0.9711644055460258
 40
0.9711644055460258
 40
0.9711644055460258
 40
0.9731423686311725
 40
0.9731423686311725
 40
0.9731423686311725
 40
0.9731423686311725
 40
0.9731423686311725
 40
0.9731423686311725
 40
0.9731423686311725
 40
0.9779054344183973
 40
0.9779054344183973
 40
0.9779054344183973
 40
0.9779054344183973
 40
0.9779054344183973
 40
0.9779054344183973
 40
0.9779054344183973
 40
0.9797367808326357
 40
0.9797367808326357
 40
0.9797367808326357
 40
0.9797367808326357
 40
0.9797367808326357
 40
0.9797367808326357
 40
0.9797367808326357
 40
0.9815682039620339
 40
0.9815682039620339
 40
0.9815682039620339
 40
0.9815682039620339
 40
0.9815682039620339
 40
0.9815682039620339
 40
0.9815682039620339
 40
0.9857545351240434
 40
0.9857545351240434
 40
0.9857545351240434
 40
0.9857545351240434
 40
0.9857545351240434
 40
0.9857545351240434
 40
0.9857545351240434
 40
0.9874874447333442
 40
0.9874874447333442
 40
0.9874874447333442
 40
0.9874874447333442
 40
0.9874874447333442
 40
0.9874874447333442
 40
0.9874874447333442
 40
0.9897635032945
 40
0.9897635032945
 40
0.9897635032945
 40
0.9897635032945
 40
0.9897635032945
 40
0.9897635032945
 40
0.9897635032945
 40
0.9901147430726636
 40
0.9901147430726636
 40
0.9901147430726636
 40
0.9901147430726636
 40
0.9901147430726636
 40
0.9901147430726636
 40
0.9901147430726636
 40
0.9905098862933914
 40
0.9905098862933914
 40
0.9905098862933914
 40
0.9905098862933914
 40
0.9905098862933914
 40
0.9905098862933914
 40
0.9905098862933914
 40
0.9927150071460662
 40
0.9927150071460662
 40
0.9927150071460662
 40
0.9927150071460662
 40
0.9927150071460662
 40
0.9927150071460662
 40
0.9927150071460662
 40
0.9946992579839902
 40
0.9946992579839902
 40
0.9946992579839902
 40
0.9946992579839902
 40
0.9946992579839902
 40
0.9946992579839902
 40
0.9946992579839902
 40
0.9953140636972474
 40
0.9953140636972474
 40
0.9953140636972474
 40
0.9953140636972474
 40
0.9953140636972474
 40
0.9953140636972474
 40
0.9953140636972474
 40
0.9959316131056503
 40
0.9959316131056503
 40
0.9959316131056503
 40
0.9959316131056503
 40
0.9959316131056503
 40
0.9959316131056503
 40
0.9959316131056503
 40
0.9975766889161125
 40
0.9975766889161125
 40
0.9975766889161125
 40
0.9975766889161125
 40
0.9975766889161125
 40
0.9975766889161125
 40
0.9975766889161125
 40
0.9985794567308477
 40
0.9985794567308477
 40
0.9985794567308477
 40
0.9985794567308477
 40
0.9985794567308477
 40
0.9985794567308477
 40
0.9985794567308477
 40
0.9991464795608137
 40
0.9991464795608137
 40
0.9991464795608137
 40
0.9991464795608137
 40
0.9991464795608137
 40
0.9991464795608137
 40
0.9991464795608137
 40
0.9994252178294698
 40
0.9994252178294698
 40
0.9994252178294698
 40
0.9994252178294698
 40
0.9994252178294698
 40
0.9994252178294698
 40
0.9994252178294698
 40
0.9997292959198452
 40
0.9997292959198452
 40
0.9997292959198452
 40
0.9997292959198452
 40
0.9997292959198452
 40
0.9997292959198452
 40
0.9997292959198452
 40
1.0
 40
1.0
 40
1.0
 40
1.0
 40
1.0
 40
1.0
 40
1.0
 40
1.0
 40
1.0
 10
2008.3241606286012
 20
100.3970780687248
 30
26.0
 10
2008.3287524631012
 20
100.39879659068448
 30
26.0
 10
2008.3334358039813
 20
100.40175067910494
 30
26.0
 10
2008.3382066293368
 20
100.4059216426597
 30
26.0
 10
2008.3430609261902
 20
100.41129078408851
 30
26.0
 10
2008.3479946904945
 20
100.41783940019747
 30
26.0
 10
2008.353003927127
 20
100.42554878185884
 30
26.0
 10
2008.3580846498958
 20
100.4344002140112
 30
26.0
 10
2008.3688959399656
 20
100.45534722049636
 30
26.0
 10
2008.37464069267
 20
100.46767871475241
 30
26.0
 10
2008.380461851899
 20
100.48134455619235
 30
26.0
 10
2008.3863541499763
 20
100.49631985350224
 30
26.0
 10
2008.3923123392972
 20
100.51257972628943
 30
26.0
 10
2008.3983311923298
 20
100.53009930508246
 30
26.0
 10
2008.4044055016138
 20
100.54885373133108
 30
26.0
 10
2008.4229969881537
 20
100.60945682099634
 30
26.0
 10
2008.434546233033
 20
100.65143757953125
 30
26.0
 10
2008.4454557149643
 20
100.69423969610901
 30
26.0
 10
2008.4558138852412
 20
100.73764530728164
 30
26.0
 10
2008.4657172567154
 20
100.78146517739465
 30
26.0
 10
2008.4752168188338
 20
100.82562025314469
 30
26.0
 10
2008.484367812881
 20
100.8700632378915
 30
26.0
 10
2008.505143281792
 20
100.97513688107452
 30
26.0
 10
2008.5164987214248
 20
101.03590905065522
 30
26.0
 10
2008.5273702436352
 20
101.09701814594092
 30
26.0
 10
2008.5378118071717
 20
101.15839706726717
 30
26.0
 10
2008.5478633969053
 20
101.21999719149704
 30
26.0
 10
2008.5575571613374
 20
101.28178307907797
 30
26.0
 10
2008.5669177469595
 20
101.3437322349205
 30
26.0
 10
2008.6023686344179
 20
101.58702558514442
 30
26.0
 10
2008.6261026249715
 20
101.76941218592049
 30
26.0
 10
2008.6476740617277
 20
101.95255948573649
 30
26.0
 10
2008.667232625949
 20
102.13627710026768
 30
26.0
 10
2008.6849064523935
 20
102.32040202486938
 30
26.0
 10
2008.7007217018297
 20
102.50485141013758
 30
26.0
 10
2008.7146812848066
 20
102.68956601018276
 30
26.0
 10
2008.7348202361065
 20
102.99865980264656
 30
26.0
 10
2008.7420473791656
 20
103.12288520466842
 30
26.0
 10
2008.7483982161614
 20
103.24718628394801
 30
26.0
 10
2008.7538474473
 20
103.37154655667503
 30
26.0
 10
2008.7583605173418
 20
103.49594928530469
 30
26.0
 10
2008.761892643326
 20
103.62037700915037
 30
26.0
 10
2008.76438641539
 20
103.74481116507201
 30
26.0
 10
2008.7663240032718
 20
103.91930719383791
 30
26.0
 10
2008.7666983716617
 20
103.96938014049059
 30
26.0
 10
2008.7668942877708
 20
104.01944955441915
 30
26.0
 10
2008.7668982985938
 20
104.06951299526673
 30
26.0
 10
2008.7666727141373
 20
104.11957161855725
 30
26.0
 10
2008.7662215505377
 20
104.16962150588037
 30
26.0
 10
2008.7655133520593
 20
104.21966227019038
 30
26.0
 10
2008.7633146942337
 20
104.33189857644078
 30
26.0
 10
2008.7616746480237
 20
104.39408704003525
 30
26.0
 10
2008.7595766190327
 20
104.4562524865902
 30
26.0
 10
2008.7569821822706
 20
104.51838931983012
 30
26.0
 10
2008.7538510403278
 20
104.58049034979103
 30
26.0
 10
2008.7501410233758
 20
104.64254679282013
 30
26.0
 10
2008.7458080891652
 20
104.704548271576
 30
26.0
 10
2008.731980675145
 20
104.87576670740404
 30
26.0
 10
2008.721073363417
 20
104.98482876709429
 30
26.0
 10
2008.7078301303181
 20
105.09361762065168
 30
26.0
 10
2008.6919772889632
 20
105.20204373579031
 30
26.0
 10
2008.6732212104719
 20
105.30997938822449
 30
26.0
 10
2008.651252202846
 20
105.41725947170136
 30
26.0
 10
2008.6257527813589
 20
105.52368315122692
 30
26.0
 10
2008.5597072264977
 20
105.76077275936008
 30
26.0
 10
2008.5169701824664
 20
105.89089906837009
 30
26.0
 10
2008.467612216341
 20
106.0188016674708
 30
26.0
 10
2008.4110983328605
 20
106.14379438915228
 30
26.0
 10
2008.3470034152772
 20
106.26512780703392
 30
26.0
 10
2008.2751064094527
 20
106.38203702415501
 30
26.0
 10
2008.1954998785914
 20
106.49379598287891
 30
26.0
 10
2008.029918547409
 20
106.69593333871065
 30
26.0
 10
2007.945170593091
 20
106.78738691727155
 30
26.0
 10
2007.8548137591383
 20
106.87364454950335
 30
26.0
 10
2007.7593405449832
 20
106.9544747551693
 30
26.0
 10
2007.6593222802696
 20
107.02983590020975
 30
26.0
 10
2007.5553646183182
 20
107.09982314065418
 30
26.0
 10
2007.4480685770857
 20
107.16462348953947
 30
26.0
 10
2007.2556967955472
 20
107.26923292780047
 30
26.0
 10
2007.17181499727
 20
107.31123880522159
 30
26.0
 10
2007.0865512277926
 20
107.35061350382023
 30
26.0
 10
2007.0000885814318
 20
107.38748637137657
 30
26.0
 10
2006.9125903592544
 20
107.42199195894737
 30
26.0
 10
2006.8241976129536
 20
107.4542647395133
 30
26.0
 10
2006.7350276251655
 20
107.48443582505466
 30
26.0
 10
2006.585264306042
 20
107.53143085122174
 30
26.0
 10
2006.5238784702879
 20
107.54971989909079
 30
26.0
 10
2006.460978971973
 20
107.5674898194708
 30
26.0
 10
2006.396527295885
 20
107.58473131444892
 30
26.0
 10
2006.3304832585814
 20
107.60143479439198
 30
26.0
 10
2006.262805008393
 20
107.61759037794636
 30
26.0
 10
2006.1934490254212
 20
107.63318789203822
 30
26.0
 10
2006.0512913889283
 20
107.66324581549513
 30
26.0
 10
2005.978492828695
 20
107.67770719566222
 30
26.0
 10
2005.903956477979
 20
107.69159897177128
 30
26.0
 10
2005.827663331675
 20
107.70491890090729
 30
26.0
 10
2005.7495933424368
 20
107.71766453784359
 30
26.0
 10
2005.6697254206767
 20
107.72983323504177
 30
26.0
 10
2005.5880374345663
 20
107.74142214265186
 30
26.0
 10
2005.1791548859478
 20
107.79529646670831
 30
26.0
 10
2004.8520243993537
 20
107.82587323776244
 30
26.0
 10
2004.5238471498014
 20
107.84722303850724
 30
26.0
 10
2004.1951121086154
 20
107.86100018957458
 30
26.0
 10
2003.8661511264959
 20
107.86852759450585
 30
26.0
 10
2003.537128231714
 20
107.87072296874139
 30
26.0
 10
2003.2080645312597
 20
107.86833928069453
 30
26.0
 10
2002.654821163353
 20
107.85760704050811
 30
26.0
 10
2002.430811556052
 20
107.85141012317146
 30
26.0
 10
2002.2068192787171
 20
107.84354769016674
 30
26.0
 10
2001.9828565983642
 20
107.8341748813949
 30
26.0
 10
2001.7589327481346
 20
107.82342388732344
 30
26.0
 10
2001.5350537762376
 20
107.81140962728966
 30
26.0
 10
2001.311222442894
 20
107.7982333475778
 30
26.0
 10
2000.7910051836816
 20
107.76510910770503
 30
26.0
 10
2000.4946600980838
 20
107.74435320721867
 30
26.0
 10
2000.1984055537378
 20
107.72191446265387
 30
26.0
 10
1999.9022398890943
 20
107.69799615548372
 30
26.0
 10
1999.6061674397884
 20
107.67270140343027
 30
26.0
 10
1999.3101841367813
 20
107.64617218711365
 30
26.0
 10
1999.0142880197552
 20
107.61850697265461
 30
26.0
 10
1997.9871454934976
 20
107.518829564611
 30
26.0
 10
1997.256344597929
 20
107.44149490269689
 30
26.0
 10
1996.5259900290034
 20
107.35919834761611
 30
26.0
 10
1995.796032159657
 20
107.27288615011369
 30
26.0
 10
1995.0664284703869
 20
107.18327202110933
 30
26.0
 10
1994.3371344330778
 20
107.09092116941491
 30
26.0
 10
1993.6081007502198
 20
106.99627519821615
 30
26.0
 10
1992.0060551931483
 20
106.7839891709078
 30
26.0
 10
1991.13316143831
 20
106.66551232361519
 30
26.0
 10
1990.260518235249
 20
106.54489229895323
 30
26.0
 10
1989.3880743539594
 20
106.42259318029387
 30
26.0
 10
1988.5157894209353
 20
106.2989720613129
 30
26.0
 10
1987.6436290018883
 20
106.17431602841455
 30
26.0
 10
1986.771561881272
 20
106.04886248944881
 30
26.0
 10
1985.4248824515814
 20
105.85418190571589
 30
26.0
 10
1984.9383250210587
 20
105.78366124522813
 30
26.0
 10
1984.4394329324753
 20
105.71119109948802
 30
26.0
 10
1983.92771706748
 20
105.63671813478715
 30
26.0
 10
1983.4026534670554
 20
105.56018569325647
 30
26.0
 10
1982.8636832946022
 20
105.48153403464426
 30
26.0
 10
1982.3102127990323
 20
105.40070057809368
 30
26.0
 10
1981.173015689352
 20
105.23453999213837
 30
26.0
 10
1980.5892748478861
 20
105.149210786302
 30
26.0
 10
1979.9897047889913
 20
105.06155937983921
 30
26.0
 10
1979.3735540924465
 20
104.97150571485277
 30
26.0
 10
1978.740005800678
 20
104.87896336262376
 30
26.0
 10
1978.0881773371675
 20
104.78384006411441
 30
26.0
 10
1977.4171204248503
 20
104.68603827047086
 30
26.0
 10
1974.647571711336
 20
104.28307485681285
 30
26.0
 10
1972.5690668162108
 20
103.982143506321
 30
26.0
 10
1970.4902076980038
 20
103.68342016981279
 30
26.0
 10
1968.4109410908607
 20
103.38734257651834
 30
26.0
 10
1966.3312371324741
 20
103.0941843649661
 30
26.0
 10
1964.251080192255
 20
102.80412090176468
 30
26.0
 10
1962.1704655745023
 20
102.51725311580124
 30
26.0
 10
1956.3237719679794
 20
101.7204472200367
 30
26.0
 10
1952.5566521074472
 20
101.21790649141079
 30
26.0
 10
1948.7880430603093
 20
100.72634344608142
 30
26.0
 10
1945.018009632804
 20
100.24560029939431
 30
26.0
 10
1941.2466301243883
 20
99.77537989347437
 30
26.0
 10
1937.4739842857284
 20
99.31534223935492
 30
26.0
 10
1933.7001535120526
 20
98.86510401598194
 30
26.0
 10
1926.3997060151162
 20
98.01260935198076
 30
26.0
 10
1922.8732288721978
 20
97.60914756736352
 30
26.0
 10
1919.3458415441187
 20
97.21360072743055
 30
26.0
 10
1915.8176004602371
 20
96.82566250905424
 30
26.0
 10
1912.2885582123758
 20
96.4450365330149
 30
26.0
 10
1908.7587630033547
 20
96.07144156681836
 30
26.0
 10
1905.2282585245514
 20
95.70461280392185
 30
26.0
 10
1898.676600645821
 20
95.03609543268067
 30
26.0
 10
1895.6556275373832
 20
94.73265886744353
 30
26.0
 10
1892.6341899572342
 20
94.43383180797355
 30
26.0
 10
1889.6123107313658
 20
94.1394687871319
 30
26.0
 10
1886.5900118487382
 20
93.84942539486394
 30
26.0
 10
1883.567313554603
 20
93.5635666021272
 30
26.0
 10
1880.5442335163586
 20
93.28177400581687
 30
26.0
 10
1866.1834940553213
 20
91.96207905086222
 30
26.0
 10
1854.84110424128
 20
90.97577487192159
 30
26.0
 10
1843.4944323709228
 20
90.03898412464099
 30
26.0
 10
1832.144104127424
 20
89.14727999011089
 30
26.0
 10
1820.7906122917318
 20
88.29716712397408
 30
26.0
 10
1809.4343420429113
 20
87.48576684298489
 30
26.0
 10
1798.0755818556756
 20
86.71068112909774
 30
26.0
 10
1778.5866572498762
 20
85.43985186730336
 30
26.0
 10
1770.4576336393443
 20
84.92738640022402
 30
26.0
 10
1762.3275554734919
 20
84.43170521788258
 30
26.0
 10
1754.196503803203
 20
83.95214874128627
 30
26.0
 10
1746.064550672326
 20
83.48812996856039
 30
26.0
 10
1737.9317599817186
 20
83.03911995720043
 30
26.0
 10
1729.7981880915993
 20
82.60463765002869
 30
26.0
 10
1718.4505160196752
 20
82.01817213139852
 30
26.0
 10
1715.2157768773627
 20
81.85320025056195
 30
26.0
 10
1711.959663016141
 20
81.68935200757416
 30
26.0
 10
1708.6821707264487
 20
81.5266509993542
 30
26.0
 10
1705.3832963082987
 20
81.36512081451184
 30
26.0
 10
1702.0630360712805
 20
81.20478503334756
 30
26.0
 10
1698.7213863345587
 20
81.04566722785255
 30
26.0
 10
1692.2712344460838
 20
80.74286826745686
 30
26.0
 10
1689.1840364813133
 20
80.59983568759883
 30
26.0
 10
1686.0967520289323
 20
80.45866840330157
 30
26.0
 10
1683.0093832577675
 20
80.3193483093
 30
26.0
 10
1679.9219321641035
 20
80.18186022804493
 30
26.0
 10
1676.8344007266908
 20
80.04618812385124
 30
26.0
 10
1673.7467910617481
 20
79.91231131704598
 30
26.0
 10
1659.179835418883
 20
79.2890452700321
 30
26.0
 10
1647.6995275270608
 20
78.82220960827472
 30
26.0
 10
1636.2183284523862
 20
78.37744347376784
 30
26.0
 10
1624.7363566013164
 20
77.95297564885628
 30
26.0
 10
1613.2537083928814
 20
77.54734917734537
 30
26.0
 10
1601.7704614224615
 20
77.15933642708383
 30
26.0
 10
1590.2866761097075
 20
76.78789489678654
 30
26.0
 10
1565.928502204009
 20
76.03330571050073
 30
26.0
 10
1553.0539976406058
 20
75.65418015063153
 30
26.0
 10
1540.1789542966449
 20
75.29348303614135
 30
26.0
 10
1527.3034321599266
 20
74.95017418469139
 30
26.0
 10
1514.4274819904615
 20
74.62338415281755
 30
26.0
 10
1501.551146387662
 20
74.31237465146118
 30
26.0
 10
1488.6744604604623
 20
74.01651342885934
 30
26.0
 10
1464.9064950477195
 20
73.49739163259285
 30
26.0
 10
1454.0153095924138
 20
73.26997135180855
 30
26.0
 10
1443.1239140358675
 20
73.0526773393559
 30
26.0
 10
1432.2323249435133
 20
72.84523108530927
 30
26.0
 10
1421.34055727164
 20
72.64739440969953
 30
26.0
 10
1410.4486244635555
 20
72.4589644553325
 30
26.0
 10
1399.556538515066
 20
72.27977027262877
 30
26.0
 10
1384.861261792555
 20
72.05028041828882
 30
26.0
 10
1381.0564658958647
 20
71.99197155307145
 30
26.0
 10
1377.2501823914765
 20
71.9347442224449
 30
26.0
 10
1373.442671352236
 20
71.87859824618818
 30
26.0
 10
1369.6341928515635
 20
71.82353344224713
 30
26.0
 10
1365.8250069634566
 20
71.76954962673454
 30
26.0
 10
1362.0153737624903
 20
71.71664661393022
 30
26.0
 10
1354.819005186766
 20
71.61875930402532
 30
26.0
 10
1351.4324453713252
 20
71.57355310267128
 30
26.0
 10
1348.045874243876
 20
71.52919726444094
 30
26.0
 10
1344.6592921690012
 20
71.48568289138996
 30
26.0
 10
1341.2726995094858
 20
71.44300053540755
 30
26.0
 10
1337.886096626315
 20
71.40114019821648
 30
26.0
 10
1334.4994838786763
 20
71.36009133137304
 30
26.0
 10
1305.290380950905
 20
71.01295416997223
 30
26.0
 10
1279.467354062355
 20
70.75263897206207
 30
26.0
 10
1253.6439216321617
 20
70.53442622970775
 30
26.0
 10
1227.820200222016
 20
70.3538299362517
 30
26.0
 10
1201.996282259367
 20
70.206351861308
 30
26.0
 10
1176.172236015345
 20
70.08748432086271
 30
26.0
 10
1150.3481055826824
 20
69.99271294737434
 30
26.0
 10
1111.823472665979
 20
69.88053901381835
 30
26.0
 10
1099.1230209056946
 20
69.84829386945079
 30
26.0
 10
1086.4225588876966
 20
69.8202463989348
 30
26.0
 10
1073.7220893718431
 20
69.7958587429814
 30
26.0
 10
1061.0216145629352
 20
69.774592810849
 30
26.0
 10
1048.321136110716
 20
69.75591028034356
 30
26.0
 10
1035.6206551098717
 20
69.73927259781848
 30
26.0
 10
1020.0415977849456
 20
69.72071138485781
 30
26.0
 10
1017.163023378886
 20
69.71735794840248
 30
26.0
 10
1014.2844488908297
 20
69.71407506655503
 30
26.0
 10
1011.4058743277513
 20
69.7108585867671
 30
26.0
 10
1008.5272996946233
 20
69.70770580619555
 30
26.0
 10
1005.6487249944151
 20
69.70461547170255
 30
26.0
 10
1002.7701502280935
 20
69.7015877798556
 30
26.0
 10
977.4542369495133
 20
69.67552583744352
 30
26.0
 10
955.0168946370148
 20
69.65623925724353
 30
26.0
 10
932.579549516428
 20
69.64039002816294
 30
26.0
 10
910.1422024573525
 20
69.62760243044889
 30
26.0
 10
887.7048541400138
 20
69.61749890749807
 30
26.0
 10
865.2675050555889
 20
69.60969934059473
 30
26.0
 10
842.8301555065328
 20
69.60382032364856
 30
26.0
 10
810.232781479808
 20
69.59750654493621
 30
26.0
 10
800.0727572940687
 20
69.59585298040355
 30
26.0
 10
789.9127330664385
 20
69.59447781151187
 30
26.0
 10
779.7527088106144
 20
69.59334488276012
 30
26.0
 10
769.5926845372362
 20
69.59241781596933
 30
26.0
 10
759.4326602538886
 20
69.59166001028224
 30
26.0
 10
749.2726359651001
 20
69.59103464216358
 30
26.0
 10
733.1860671249924
 20
69.59019551939714
 30
26.0
 10
727.2595225767963
 20
69.5899188198247
 30
26.0
 10
721.3329780282705
 20
69.58966720815074
 30
26.0
 10
715.406433479883
 20
69.58943328839611
 30
26.0
 10
709.4798889320547
 20
69.58920962713415
 30
26.0
 10
703.5533443851592
 20
69.58898875349101
 30
26.0
 10
697.6267998395231
 20
69.5887631591454
 30
26.0
 10
688.737080977274
 20
69.5884063718517
 30
26.0
 10
685.77390665978
 20
69.58828528121701
 30
26.0
 10
682.8107323425355
 20
69.58815951829492
 30
26.0
 10
679.8475580254485
 20
69.58802760854618
 30
26.0
 10
676.8843837087416
 20
69.58788911102202
 30
26.0
 10
673.9212093929533
 20
69.58774461836416
 30
26.0
 10
670.9580350789375
 20
69.58759575680472
 30
26.0
 10
664.6087896539783
 20
69.58727312646432
 30
26.0
 10
661.2231020246049
 20
69.58709886811032
 30
26.0
 10
657.8379805429747
 20
69.58692546424118
 30
26.0
 10
654.4536078723722
 20
69.58675596863085
 30
26.0
 10
651.0701666761354
 20
69.58659343569029
 30
26.0
 10
647.6878396176552
 20
69.5864409204675
 30
26.0
 10
644.3068093603761
 20
69.58630147864753
 30
26.0
 10
634.6172335079026
 20
69.58594792813975
 30
26.0
 10
628.3072084935255
 20
69.58577382745231
 30
26.0
 10
621.997183534015
 20
69.58567569060614
 30
26.0
 10
615.687158640653
 20
69.58567373692526
 30
26.0
 10
609.3771338266524
 20
69.58578857894187
 30
26.0
 10
603.0671091071571
 20
69.58604122239628
 30
26.0
 10
596.7570844992423
 20
69.58645306623683
 30
26.0
 10
576.1493268310035
 20
69.58838919636857
 30
26.0
 10
561.8515944316734
 20
69.59066234739514
 30
26.0
 10
547.5538629092679
 20
69.59412074342916
 30
26.0
 10
533.2561325477669
 20
69.59903670692894
 30
26.0
 10
518.9584038336827
 20
69.60570405996047
 30
26.0
 10
504.66067746466547
 20
69.61444720858302
 30
26.0
 10
490.362954362823
 20
69.62563474674103
 30
26.0
 10
464.31304903121384
 20
69.65125669907893
 30
26.0
 10
452.5608656934311
 20
69.66475870262114
 30
26.0
 10
440.808686126871
 20
69.68044236267647
 30
26.0
 10
429.0565112286473
 20
69.69857779989594
 30
26.0
 10
417.3043423537111
 20
69.71947072069719
 30
26.0
 10
405.55218134344176
 20
69.74347491821679
 30
26.0
 10
393.80003057463915
 20
69.77101303671118
 30
26.0
 10
379.16644019171844
 20
69.81035163531386
 30
26.0
 10
376.2975634579547
 20
69.81830761718537
 30
26.0
 10
373.4414454796213
 20
69.82647701769861
 30
26.0
 10
370.59826890791686
 20
69.83486333108132
 30
26.0
 10
367.7682163932432
 20
69.84347007311158
 30
26.0
 10
364.95147058520394
 20
69.85230078111795
 30
26.0
 10
362.14821413260466
 20
69.86135901397938
 30
26.0
 10
351.42123658660853
 20
69.89707993353721
 30
26.0
 10
343.4838524566764
 20
69.9257595326708
 30
26.0
 10
335.54647828460384
 20
69.9567454442804
 30
26.0
 10
327.6091151679423
 20
69.99009307049175
 30
26.0
 10
319.67176433647813
 20
70.0258669774268
 30
26.0
 10
311.73442715251826
 20
70.06413822407161
 30
26.0
 10
303.7971051081871
 20
70.10498048856121
 30
26.0
 10
284.04101399632253
 20
70.21324783941819
 30
26.0
 10
272.2222661498723
 20
70.28390524430775
 30
26.0
 10
260.40356093470626
 20
70.36072614042237
 30
26.0
 10
248.5849046010083
 20
70.44402735203886
 30
26.0
 10
236.76630505126138
 20
70.5341724652388
 30
26.0
 10
224.9477720099058
 20
70.63158752394386
 30
26.0
 10
213.12931732857948
 20
70.73678707575912
 30
26.0
 10
196.38761692087783
 20
70.89774427743555
 30
26.0
 10
191.46429465558444
 20
70.9465399055037
 30
26.0
 10
186.5409897135605
 20
70.9968438720449
 30
26.0
 10
181.61770332790286
 20
71.04870628039112
 30
26.0
 10
176.69443689655674
 20
71.10218166858137
 30
26.0
 10
171.77119199656892
 20
71.15732976095289
 30
26.0
 10
166.847970398341
 20
71.21421621973217
 30
26.0
 10
159.7365532216382
 20
71.29900262372384
 30
26.0
 10
157.56956889402773
 20
71.32519643119095
 30
26.0
 10
155.42381765338658
 20
71.35148908984854
 30
26.0
 10
153.2992960532037
 20
71.37787477329684
 30
26.0
 10
151.1960006441215
 20
71.4043475579151
 30
26.0
 10
149.11392797393614
 20
71.43090142286164
 30
26.0
 10
147.0530745875974
 20
71.4575302500738
 30
26.0
 10
142.85917411820327
 20
71.5124257722584
 30
26.0
 10
140.70491726835849
 20
71.54101120782097
 30
26.0
 10
138.5506666444303
 20
71.56999379537147
 30
26.0
 10
136.39642210729198
 20
71.59934775755225
 30
26.0
 10
134.24218474026637
 20
71.62914254525016
 30
26.0
 10
132.08795575833753
 20
71.65945633144598
 30
26.0
 10
129.93373550450093
 20
71.69029395700254
 30
26.0
 10
123.06195897493089
 20
71.79057573487941
 30
26.0
 10
118.34444519226838
 20
71.86227575292014
 30
26.0
 10
113.62698943770505
 20
71.93739998338452
 30
26.0
 10
108.90960428879004
 20
72.01662588143708
 30
26.0
 10
104.1923100595708
 20
72.10077609293413
 30
26.0
 10
99.47513555122646
 20
72.190858802198
 30
26.0
 10
94.75811946652543
 20
72.28814338815766
 30
26.0
 10
85.63618342672692
 20
72.49344791881038
 30
26.0
 10
81.23128051662304
 20
72.60033261467433
 30
26.0
 10
76.82660652218091
 20
72.71632247511695
 30
26.0
 10
72.42221208226796
 20
72.84308643486492
 30
26.0
 10
68.01820058525877
 20
72.98271729015693
 30
26.0
 10
63.61473291555319
 20
73.13787441548446
 30
26.0
 10
59.21203727441534
 20
73.31207426915682
 30
26.0
 10
51.95086440371226
 20
73.63900415541943
 30
26.0
 10
49.091813742039626
 20
73.77787227557455
 30
26.0
 10
46.23333350582974
 20
73.92821756324985
 30
26.0
 10
43.375549559786506
 20
74.09162886878627
 30
26.0
 10
40.51866706615982
 20
74.27006594151942
 30
26.0
 10
37.662963364875544
 20
74.46576961610846
 30
26.0
 10
34.80881435523252
 20
74.68165149409718
 30
26.0
 10
31.490044498398156
 20
74.95970755743241
 30
26.0
 10
31.023493534470788
 20
74.99943858819012
 30
26.0
 10
30.556995189262686
 20
75.0397525623131
 30
26.0
 10
30.090545105930083
 20
75.0805872916315
 30
26.0
 10
29.624137992293196
 20
75.1218728132478
 30
26.0
 10
29.15776762083631
 20
75.1635313895365
 30
26.0
 10
28.6914268287077
 20
75.20547750814434
 30
26.0
 10
27.102179808518006
 20
75.34909468630144
 30
26.0
 10
25.979453732620293
 20
75.4516973438896
 30
26.0
 10
24.856728681853888
 20
75.55413729260056
 30
26.0
 10
23.733833372689155
 20
75.65485679435761
 30
26.0
 10
22.61061485295496
 20
75.75188814853934
 30
26.0
 10
21.486929863936616
 20
75.84275390089344
 30
26.0
 10
20.362622637460497
 20
75.92419867421103
 30
26.0
 10
18.80486562540279
 20
76.01743649460596
 30
26.0
 10
18.3898650108817
 20
76.0401850095746
 30
26.0
 10
17.99132828625622
 20
76.0598848688969
 30
26.0
 10
17.60821790956836
 20
76.07665091881093
 30
26.0
 10
17.239602956080578
 20
76.09059291282549
 30
26.0
 10
16.884657714350002
 20
76.10180725778385
 30
26.0
 10
16.54266083817912
 20
76.11038364110769
 30
26.0
 10
15.883321543584781
 20
76.12246823675599
 30
26.0
 10
15.565924583364215
 20
76.12597591767938
 30
26.0
 10
15.260139100214474
 20
76.12704757478741
 30
26.0
 10
14.965341423311886
 20
76.12578082427058
 30
26.0
 10
14.68095229882627
 20
76.12227163127002
 30
26.0
 10
14.40643686294097
 20
76.11661376227664
 30
26.0
 10
14.141304614872835
 20
76.10889823753
 30
26.0
 10
13.299489367583863
 20
76.07707343302968
 30
26.0
 10
12.71507318559455
 20
76.04292195650585
 30
26.0
 10
12.131462500263078
 20
75.99472418871672
 30
26.0
 10
11.549009467744362
 20
75.92992481103514
 30
26.0
 10
10.968822352904331
 20
75.84538409112895
 30
26.0
 10
10.39281302844555
 20
75.73714098379108
 30
26.0
 10
9.823700122985038
 20
75.60036633427977
 30
26.0
 10
9.033965549890311
 20
75.35736576886613
 30
26.0
 10
8.804709489119912
 20
75.28025421550848
 30
26.0
 10
8.577703532241964
 20
75.19673257518983
 30
26.0
 10
8.353355463780241
 20
75.10634481879856
 30
26.0
 10
8.132173241672126
 20
75.0086251740735
 30
26.0
 10
7.914758614955184
 20
74.90311201933376
 30
26.0
 10
7.7017975227311215
 20
74.78936846365029
 30
26.0
 10
7.221181494944511
 20
74.50629961045746
 30
26.0
 10
6.957077593481175
 20
74.33059352110762
 30
26.0
 10
6.703833636962354
 20
74.13918750507014
 30
26.0
 10
6.463694825287448
 20
73.93163059011252
 30
26.0
 10
6.238925817144076
 20
73.70785169762749
 30
26.0
 10
6.03166605582037
 20
73.46830084088413
 30
26.0
 10
5.843750630642233
 20
73.21412555194803
 30
26.0
 10
5.650666000042674
 20
72.90624324556917
 30
26.0
 10
5.625442812090986
 20
72.86494488739287
 30
26.0
 10
5.600803994293038
 20
72.82350675263486
 30
26.0
 10
5.576741511326953
 20
72.78192802356328
 30
26.0
 10
5.5532449440831515
 20
72.74020883075711
 30
26.0
 10
5.53030148966434
 20
72.69835025310604
 30
26.0
 10
5.507895961385515
 20
72.65635431781052
 30
26.0
 10
5.461390064899424
 20
72.56682757675871
 30
26.0
 10
5.437429331673302
 20
72.51926091052573
 30
26.0
 10
5.414108118703021
 20
72.47152689403636
 30
26.0
 10
5.39140681852778
 20
72.42362824557496
 30
26.0
 10
5.369306686618567
 20
72.3755675093565
 30
26.0
 10
5.347789841378154
 20
72.32734705552683
 30
26.0
 10
5.326839264141095
 20
72.27896908016254
 30
26.0
 10
5.192592759702407
 20
71.95959158740075
 30
26.0
 10
5.095147978825884
 20
71.6821712617126
 30
26.0
 10
5.012264480148009
 20
71.39986837413828
 30
26.0
 10
4.9420426055884175
 20
71.11410940338695
 30
26.0
 10
4.882730895887303
 20
70.82599962488003
 30
26.0
 10
4.8327839327866595
 20
70.5363066967779
 30
26.0
 10
4.790848722966103
 20
70.24546159188631
 30
26.0
 10
4.724182432373916
 20
69.69088967708176
 30
26.0
 10
4.698167570907187
 20
69.42752302462789
 30
26.0
 10
4.676867271390864
 20
69.1636565774876
 30
26.0
 10
4.65956198722412
 20
68.89944784774463
 30
26.0
 10
4.6456274948750504
 20
68.63501408836969
 30
26.0
 10
4.63450987014541
 20
68.37043389766819
 30
26.0
 10
4.625706919050654
 20
68.10574836375264
 30
26.0
 10
4.6166023911401215
 20
67.7589195392509
 30
26.0
 10
4.6146265273279745
 20
67.67686990939325
 30
26.0
 10
4.612814781978038
 20
67.59481384225607
 30
26.0
 10
4.611153725549223
 20
67.51275222951394
 30
26.0
 10
4.609630188860139
 20
67.43068587172709
 30
26.0
 10
4.6082312630891
 20
67.3486154783415
 30
26.0
 10
4.606944299774116
 20
67.26654166768871
 30
26.0
 10
4.604564222887702
 20
67.1020219823655
 30
26.0
 10
4.603472969370001
 20
67.01957621256688
 30
26.0
 10
4.602462110748746
 20
66.93712767465308
 30
26.0
 10
4.6015511339285835
 20
66.85467882525275
 30
26.0
 10
4.600658253005978
 20
66.7722257289034
 30
26.0
 10
4.599853723580166
 20
66.68977423234998
 30
26.0
 10
4.59909960521374
 20
66.60732302331034
 30
26.0
 10
4.59655162182897
 20
66.30523936023268
 30
26.0
 10
4.5951062730852685
 20
66.08562160509618
 30
26.0
 10
4.5940326287591855
 20
65.86603870505233
 30
26.0
 10
4.593302835572769
 20
65.64651134647197
 30
26.0
 10
4.592894363877189
 20
65.42706560128953
 30
26.0
 10
4.592788767273031
 20
65.20773360932974
 30
26.0
 10
4.592971160627739
 20
64.98855720329486
 30
26.0
 10
4.593709778279545
 20
64.63613235104897
 30
26.0
 10
4.594092224677806
 20
64.50275290470437
 30
26.0
 10
4.59457479118735
 20
64.36947092556711
 30
26.0
 10
4.595155354078734
 20
64.23630293868425
 30
26.0
 10
4.595832257204073
 20
64.10327645987849
 30
26.0
 10
4.5966042905744
 20
63.97042965313418
 30
26.0
 10
4.597470762658922
 20
63.837816356713496
 30
26.0
 10
4.598975177935198
 20
63.630721955584505
 30
26.0
 10
4.599548728332109
 20
63.556032604612774
 30
26.0
 10
4.6001524863427585
 20
63.4814660411183
 30
26.0
 10
4.600786567773892
 20
63.40703992777107
 30
26.0
 10
4.601451107390662
 20
63.33278946998815
 30
26.0
 10
4.602146263911824
 20
63.25876528205742
 30
26.0
 10
4.602872225163267
 20
63.185040403901105
 30
26.0
 10
4.604001281812297
 20
63.07571484041808
 30
26.0
 10
4.604369132650501
 20
63.0409252320712
 30
26.0
 10
4.604731689340345
 20
63.007403470324256
 30
26.0
 10
4.605087910390663
 20
62.975176491976725
 30
26.0
 10
4.605436753560081
 20
62.94427124290024
 30
26.0
 10
4.6057771758570185
 20
62.91471467803862
 30
26.0
 10
4.606108133539686
 20
62.886533761407826
 30
26.0
 10
4.606778162357231
 20
62.83054278230782
 30
26.0
 10
4.607115236271953
 20
62.802999321210244
 30
26.0
 10
4.607438447603372
 20
62.77716010567736
 30
26.0
 10
4.607746439716376
 20
62.753060153964036
 30
26.0
 10
4.608037855597633
 20
62.73073447970609
 30
26.0
 10
4.6083113378555876
 20
62.71021809192022
 30
26.0
 10
4.608565528720459
 20
62.69154599500395
 30
26.0
 10
4.609006979101915
 20
62.659803472468994
 30
26.0
 10
4.609208079755535
 20
62.645656175108876
 30
26.0
 10
4.609406582658881
 20
62.63201295191549
 30
26.0
 10
4.60960178225214
 20
62.618989454876235
 30
26.0
 10
4.609783815051307
 20
62.60734708694671
 30
26.0
 10
4.609940178965638
 20
62.59802200995128
 30
26.0
 10
4.61004404076453
 20
62.59278520731782
 30
26.0
 10
4.610076042811508
 20
62.592698326714
 30
26.0
  0
SPLINE
  5
31
330
17
100
AcDbEntity
  8
0
100
AcDbSpline
 70
0
 71
8
 72
95
 73
86
 74
0
 40
0.0
 40
0.0
 40
0.0
 40
0.0
 40
0.0
 40
0.0
 40
0.0
 40
0.0
 40
0.0
 40
0.28574328352289474
 40
0.28574328352289474
 40
0.28574328352289474
 40
0.28574328352289474
 40
0.28574328352289474
 40
0.28574328352289474
 40
0.28574328352289474
 40
0.4224670160428383
 40
0.4224670160428383
 40
0.4224670160428383
 40
0.4224670160428383
 40
0.4224670160428383
 40
0.4224670160428383
 40
0.4224670160428383
 40
0.5546453648818301
 40
0.5546453648818301
 40
0.5546453648818301
 40
0.5546453648818301
 40
0.5546453648818301
 40
0.5546453648818301
 40
0.5546453648818301
 40
0.7594008862452277
 40
0.7594008862452277
 40
0.7594008862452277
 40
0.7594008862452277
 40
0.7594008862452277
 40
0.7594008862452277
 40
0.7594008862452277
 40
0.8098552752571244
 40
0.8098552752571244
 40
0.8098552752571244
 40
0.8098552752571244
 40
0.8098552752571244
 40
0.8098552752571244
 40
0.8098552752571244
 40
0.8596379576606347
 40
0.8596379576606347
 40
0.8596379576606347
 40
0.8596379576606347
 40
0.8596379576606347
 40
0.8596379576606347
 40
0.8596379576606347
 40
0.9198969825580781
 40
0.9198969825580781
 40
0.9198969825580781
 40
0.9198969825580781
 40
0.9198969825580781
 40
0.9198969825580781
 40
0.9198969825580781
 40
0.9511692649862727
 40
0.9511692649862727
 40
0.9511692649862727
 40
0.9511692649862727
 40
0.9511692649862727
 40
0.9511692649862727
 40
0.9511692649862727
 40
0.975042409867147
 40
0.975042409867147
 40
0.975042409867147
 40
0.975042409867147
 40
0.975042409867147
 40
0.975042409867147
 40
0.975042409867147
 40
0.9897596700422656
 40
0.9897596700422656
 40
0.9897596700422656
 40
0.9897596700422656
 40
0.9897596700422656
 40
0.9897596700422656
 40
0.9897596700422656
 40
0.9935771035260561
 40
0.9935771035260561
 40
0.9935771035260561
 40
0.9935771035260561
 40
0.9935771035260561
 40
0.9935771035260561
 40
0.9935771035260561
 40
1.0
 40
1.0
 40
1.0
 40
1.0
 40
1.0
 40
1.0
 40
1.0
 40
1.0
 40
1.0
 10
1992.9000000000012
 20
94.77360090726565
 30
26.0
 10
1993.4678876736566
 20
94.97471187282879
 30
26.0
 10
1994.0355863746106
 20
95.17629832020008
 30
26.0
 10
1994.603095639942
 20
95.37835431907126
 30
26.0
 10
1995.1704145824156
 20
95.5808729676172
 30
26.0
 10
1995.7375418959532
 20
95.78384630444279
 30
26.0
 10
1996.3044757996709
 20
95.98726516918737
 30
26.0
 10
1996.8712139204795
 20
96.19111901178792
 30
26.0
 10
1997.7088333378426
 20
96.49313885595693
 30
26.0
 10
1997.97986792726
 20
96.59097882717555
 30
26.0
 10
1998.2508565224643
 20
96.6889142235081
 30
26.0
 10
1998.5217986661094
 20
96.78694359904827
 30
26.0
 10
1998.792693789348
 20
96.88506539196418
 30
26.0
 10
1999.0635411976525
 20
96.9832779139308
 30
26.0
 10
1999.3343400566332
 20
97.08157933956248
 30
26.0
 10
1999.8668376315727
 20
97.27508512892587
 30
26.0
 10
2000.1285393120017
 20
97.37028414317435
 30
26.0
 10
2000.3901940776025
 20
97.46556174637168
 30
26.0
 10
2000.651800691229
 20
97.56091635212911
 30
26.0
 10
2000.9133570811068
 20
97.656347606095
 30
26.0
 10
2001.17486049909
 20
97.75185584661615
 30
26.0
 10
2001.4363077762102
 20
97.84744119985297
 30
26.0
 10
2002.1026077966558
 20
98.09128951641426
 30
26.0
 10
2002.5073648820182
 20
98.23965450079596
 30
26.0
 10
2002.9119664668517
 20
98.3881995391305
 30
26.0
 10
2003.3163992510927
 20
98.53692226945077
 30
26.0
 10
2003.7206394951731
 20
98.68581656603902
 30
26.0
 10
2004.1246428517175
 20
98.83486860720224
 30
26.0
 10
2004.5283518896024
 20
98.98405971579221
 30
26.0
 10
2005.0310354414848
 20
99.17013822974131
 30
26.0
 10
2005.1303894580296
 20
99.20693131323146
 30
26.0
 10
2005.2297163272683
 20
99.24372955483543
 30
26.0
 10
2005.32901377724
 20
99.28053214031598
 30
26.0
 10
2005.428278960614
 20
99.31733803888203
 30
26.0
 10
2005.527508323597
 20
99.35414595274476
 30
26.0
 10
2005.6266974748462
 20
99.39095426667342
 30
26.0
 10
2005.8236647210333
 20
99.4640777150753
 30
26.0
 10
2005.9214431105202
 20
99.50039255045475
 30
26.0
 10
2006.0191723828946
 20
99.536704108475
 30
26.0
 10
2006.1168416696653
 20
99.57300825131605
 30
26.0
 10
2006.2144503917125
 20
99.60930493435629
 30
26.0
 10
2006.3119838916243
 20
99.6455886054753
 30
26.0
 10
2006.4094326740762
 20
99.68185579061792
 30
26.0
 10
2006.6246156359982
 20
99.76197290980345
 30
26.0
 10
2006.7422767347527
 20
99.80580263189341
 30
26.0
 10
2006.8597635052174
 20
99.84958945226929
 30
26.0
 10
2006.9770514336997
 20
99.89332422364696
 30
26.0
 10
2007.0940812802419
 20
99.93698481291072
 30
26.0
 10
2007.2107617227034
 20
99.98053705526114
 30
26.0
 10
2007.3269587747168
 20
100.02393074126373
 30
26.0
 10
2007.5023782599208
 20
100.08947371920462
 30
26.0
 10
2007.5620839845224
 20
100.11178774648727
 30
26.0
 10
2007.62155662356
 20
100.13402045673442
 30
26.0
 10
2007.6807591183283
 20
100.15615793817508
 30
26.0
 10
2007.7396119979405
 20
100.17817039480616
 30
26.0
 10
2007.797994624721
 20
100.20001258794501
 30
26.0
 10
2007.8557327929327
 20
100.22161915771602
 30
26.0
 10
2007.9559185156704
 20
100.25911951620766
 30
26.0
 10
2007.998522242328
 20
100.27506954526253
 30
26.0
 10
2008.0404699172511
 20
100.29077691568985
 30
26.0
 10
2008.08163995066
 20
100.30619598405313
 30
26.0
 10
2008.1216262179478
 20
100.32117447739977
 30
26.0
 10
2008.1597943798702
 20
100.33547448022605
 30
26.0
 10
2008.1951321489607
 20
100.34871612154065
 30
26.0
 10
2008.2456192748102
 20
100.36763678790497
 30
26.0
 10
2008.2633913285435
 20
100.37429769688376
 30
26.0
 10
2008.279096597019
 20
100.38018450384044
 30
26.0
 10
2008.2922963702376
 20
100.3851325418486
 30
26.0
 10
2008.3027327491213
 20
100.38904489744183
 30
26.0
 10
2008.310435509001
 20
100.39193256142403
 30
26.0
 10
2008.3157620359093
 20
100.39392944194279
 30
26.0
 10
2008.3201314904807
 20
100.39556753833753
 30
26.0
 10
2008.3209061933387
 20
100.39585797359574
 30
26.0
 10
2008.3215658464633
 20
100.39610527776269
 30
26.0
 10
2008.322120629676
 20
100.39631326677751
 30
26.0
 10
2008.3225807157528
 20
100.39648575406186
 30
26.0
 10
2008.3229562704262
 20
100.39662655051974
 30
26.0
 10
2008.323257452382
 20
100.39673946453762
 30
26.0
 10
2008.3238931039532
 20
100.39697777249297
 30
26.0
 10
2008.324010201486
 20
100.39701051379048
 30
26.0
 10
2008.3240158470198
 20
100.39700596462592
 30
26.0
 10
2008.3240206587616
 20
100.39701319018593
 30
26.0
 10
2008.3240757319652
 20
100.39705088209486
 30
26.0
 10
2008.3241726389326
 20
100.3971073584148
 30
26.0
 10
2008.3242434290125
 20
100.39714056364559
 30
26.0
 10
2008.3241606286012
 20
100.39707806872478
 30
26.0
  0
LINE
  5
32
330
17
100
AcDbEntity
  8
0
100
AcDbLine
 10
1992.9
 20
101.09489187932778
 30
26.0
 11
1992.9
 21
94.77360090726839
 31
26.0
  0
SPLINE
  5
33
330
17
100
AcDbEntity
  8
0
100
AcDbSpline
 70
0
 71
4
 72
10
 73
5
 74
0
 40
0.0
 40
0.0
 40
0.0
 40
0.0
 40
0.0
 40
1.0
 40
1.0
 40
1.0
 40
1.0
 40
1.0
 10
1989.0999994158817
 20
100.08878325933544
 30
26.0
 10
1990.0502237623725
 20
100.33920398163873
 30
26.0
 10
1991.0002992413094
 20
100.59036143637381
 30
26.0
 10
1991.9502251004706
 20
100.84225699781541
 30
26.0
 10
1992.9000005839227
 20
101.09489203205727
 30
26.0
  0
LINE
  5
34
330
17
100
AcDbEntity
  8
0
100
AcDbLine
 10
1989.1
 20
100.08878341327309
 30
26.0
 11
1989.1
 21
93.43864200502303
 31
26.0
  0
SPLINE
  5
35
330
17
100
AcDbEntity
  8
0
100
AcDbSpline
 70
0
 71
5
 72
24
 73
18
 74
0
 40
0.0
 40
0.0
 40
0.0
 40
0.0
 40
0.0
 40
0.0
 40
0.22914298772547653
 40
0.22914298772547653
 40
0.22914298772547653
 40
0.22914298772547653
 40
0.47165407882215654
 40
0.47165407882215654
 40
0.47165407882215654
 40
0.47165407882215654
 40
0.7288920979049707
 40
0.7288920979049707
 40
0.7288920979049707
 40
0.7288920979049707
 40
1.0
 40
1.0
 40
1.0
 40
1.0
 40
1.0
 40
1.0
 10
1989.0999999910168
 20
93.43864203080423
 30
26.0
 10
1988.0879613191955
 20
93.08600718711786
 30
26.0
 10
1987.075281492413
 20
92.73509651047112
 30
26.0
 10
1986.0619650491183
 20
92.38593451375718
 30
26.0
 10
1985.0480175960238
 20
92.03853473329795
 30
26.0
 10
1982.959682966125
 20
91.32710978921293
 30
26.0
 10
1981.8852208589049
 20
90.96329714332008
 30
26.0
 10
1980.810066153442
 20
90.60147447452955
 30
26.0
 10
1979.7342273585634
 20
90.24164239378617
 30
26.0
 10
1977.515826953378
 20
89.50421897859047
 30
26.0
 10
1976.3731809418841
 20
89.12687618711679
 30
26.0
 10
1975.2297868452406
 20
88.751762210131
 30
26.0
 10
1974.0856567213204
 20
88.37886584377878
 30
26.0
 10
1971.7342204035194
 20
87.61749231440551
 30
26.0
 10
1970.526834089076
 20
87.22925915479735
 30
26.0
 10
1969.3186585418846
 20
86.84345626325502
 30
26.0
 10
1968.109708809898
 20
86.46006283837079
 30
26.0
 10
1966.8999999999994
 20
86.07905591148771
 30
26.0
  0
LINE
  5
36
330
17
100
AcDbEntity
  8
0
100
AcDbLine
 10
1966.9
 20
94.39537539446587
 30
26.0
 11
1966.9
 21
86.0790559114858
 31
26.0
  0
SPLINE
  5
37
330
17
100
AcDbEntity
  8
0
100
AcDbSpline
 70
0
 71
4
 72
10
 73
5
 74
0
 40
0.0
 40
0.0
 40
0.0
 40
0.0
 40
0.0
 40
1.0
 40
1.0
 40
1.0
 40
1.0
 40
1.0
 10
1963.0999994145643
 20
93.45193889817801
 30
26.0
 10
1964.0502073030004
 20
93.68672685846022
 30
26.0
 10
1965.000277273692
 20
93.92222801140622
 30
26.0
 10
1965.9502086084444
 20
94.15844376423546
 30
26.0
 10
1966.90000058524
 20
94.39537551679001
 30
26.0
  0
LINE
  5
38
330
17
100
AcDbEntity
  8
0
100
AcDbLine
 10
1963.1
 20
93.45193906516663
 30
26.0
 11
1963.1
 21
84.89249431470185
 31
26.0
  0
SPLINE
  5
39
330
17
100
AcDbEntity
  8
0
100
AcDbSpline
 70
0
 71
4
 72
19
 73
14
 74
0
 40
0.0
 40
0.0
 40
0.0
 40
0.0
 40
0.0
 40
0.23451453510899456
 40
0.23451453510899456
 40
0.23451453510899456
 40
0.47920735281528093
 40
0.47920735281528093
 40
0.47920735281528093
 40
0.7343145263914422
 40
0.7343145263914422
 40
0.7343145263914422
 40
1.0
 40
1.0
 40
1.0
 40
1.0
 40
1.0
 10
1963.0999999999863
 20
84.89249431474633
 30
26.0
 10
1961.8037321792567
 20
84.49120677054421
 30
26.0
 10
1960.5065722934303
 20
84.0927777830043
 30
26.0
 10
1959.2085440291557
 20
83.69716786742954
 30
26.0
 10
1956.5544240691795
 20
82.894452423284
 30
26.0
 10
1955.1982574018366
 20
82.48759324382985
 30
26.0
 10
1953.8411968913595
 20
82.08370962584644
 30
26.0
 10
1951.0675440054847
 20
81.26473069761875
 30
26.0
 10
1949.650876115699
 20
80.84988986368596
 30
26.0
 10
1948.2332927784091
 20
80.43817488687166
 30
26.0
 10
1945.3375309712796
 20
79.60394148011845
 30
26.0
 10
1943.8592773035662
 20
79.18168301650793
 30
26.0
 10
1942.3800907360276
 20
78.76269302598716
 30
26.0
 10
1940.900000000019
 20
78.34691051389791
 30
26.0
  0
LINE
  5
3A
330
17
100
AcDbEntity
  8
0
100
AcDbLine
 10
1940.9
 20
88.1178315875131
 30
26.0
 11
1940.9
 21
78.34688056452826
 31
26.0
  0
SPLINE
  5
3B
330
17
100
AcDbEntity
  8
0
100
AcDbSpline
 70
0
 71
4
 72
10
 73
5
 74
0
 40
0.0
 40
0.0
 40
0.0
 40
0.0
 40
0.0
 40
1.0
 40
1.0
 40
1.0
 40
1.0
 40
1.0
 10
1937.099999413285
 20
87.23473656362306
 30
26.0
 10
1938.0501917307201
 20
87.45447436472463
 30
26.0
 10
1939.0002564890149
 20
87.67490186845632
 30
26.0
 10
1939.9501930037236
 20
87.89602051056569
 30
26.0
 10
1940.9000005865037
 20
88.11783172018028
 30
26.0
  0
LINE
  5
3C
330
17
100
AcDbEntity
  8
0
100
AcDbLine
 10
1937.1
 20
87.23473672718586
 30
26.0
 11
1937.1
 21
77.28786133133228
 31
26.0
  0
SPLINE
  5
3D
330
17
100
AcDbEntity
  8
0
100
AcDbSpline
 70
0
 71
4
 72
19
 73
14
 74
0
 40
0.0
 40
0.0
 40
0.0
 40
0.0
 40
0.0
 40
0.2379822993258395
 40
0.2379822993258395
 40
0.2379822993258395
 40
0.48388958894884765
 40
0.48388958894884765
 40
0.48388958894884765
 40
0.7378606205124549
 40
0.7378606205124549
 40
0.7378606205124549
 40
1.0
 40
1.0
 40
1.0
 40
1.0
 40
1.0
 10
1937.1000000000013
 20
77.2879004107166
 30
26.0
 10
1935.783201195434
 20
76.92383411437709
 30
26.0
 10
1934.465716822405
 20
76.56223973770143
 30
26.0
 10
1933.1475661257819
 20
76.20307549468185
 30
26.0
 10
1930.4660512394817
 20
75.47764543063526
 30
26.0
 10
1929.1026431560974
 20
75.11154142987498
 30
26.0
 10
1927.7385628607199
 20
74.74794427434351
 30
26.0
 10
1924.9643429835617
 20
74.01383574340556
 30
26.0
 10
1923.5541598371028
 20
73.643488618175
 30
26.0
 10
1922.1433000182633
 20
73.27572253396711
 30
26.0
 10
1919.2748672232906
 20
72.53351551027524
 30
26.0
 10
1917.8172512742092
 20
72.15924030627856
 30
26.0
 10
1916.3589557086177
 20
71.78761722696913
 30
26.0
 10
1914.8999999999976
 20
71.41859898486275
 30
26.0
  0
LINE
  5
3E
330
17
100
AcDbEntity
  8
0
100
AcDbLine
 10
1914.9
 20
82.2464606281374
 30
26.0
 11
1914.9
 21
71.41859898485335
 31
26.0
  0
SPLINE
  5
3F
330
17
100
AcDbEntity
  8
0
100
AcDbSpline
 70
0
 71
4
 72
10
 73
5
 74
0
 40
0.0
 40
0.0
 40
0.0
 40
0.0
 40
0.0
 40
1.0
 40
1.0
 40
1.0
 40
1.0
 40
1.0
 10
1911.0999994121132
 20
81.42142614368835
 30
26.0
 10
1912.0501770144072
 20
81.62668391605374
 30
26.0
 10
1913.0002368458547
 20
81.83260796976532
 30
26.0
 10
1913.9501782553218
 20
82.03919976502495
 30
26.0
 10
1914.900000587735
 20
82.24646075612432
 30
26.0
  0
LINE
  5
40
330
17
100
AcDbEntity
  8
0
100
AcDbLine
 10
1911.1
 20
81.42142627068388
 30
26.0
 11
1911.1
 21
70.46444151136097
 31
26.0
  0
SPLINE
  5
41
330
17
100
AcDbEntity
  8
0
100
AcDbSpline
 70
0
 71
4
 72
19
 73
14
 74
0
 40
0.0
 40
0.0
 40
0.0
 40
0.0
 40
0.0
 40
0.2401727745359285
 40
0.2401727745359285
 40
0.2401727745359285
 40
0.4868394379421533
 40
0.4868394379421533
 40
0.4868394379421533
 40
0.7400894208555764
 40
0.7400894208555764
 40
0.7400894208555764
 40
1.0
 40
1.0
 40
1.0
 40
1.0
 40
1.0
 10
1911.0999999999976
 20
70.46444151136967
 30
26.0
 10
1909.770094662266
 20
70.13293407121755
 30
26.0
 10
1908.439662267971
 20
69.80353714124828
 30
26.0
 10
1907.1087167933035
 20
69.47621630187433
 30
26.0
 10
1904.4098256906989
 20
68.8168659049211
 30
26.0
 10
1903.041852658889
 20
68.48494833765993
 30
26.0
 10
1901.6733663889643
 20
68.15515025011692
 30
26.0
 10
1898.8988567283875
 20
67.49097879088721
 30
26.0
 10
1897.4928062942863
 20
67.15671822482105
 30
26.0
 10
1896.086243078238
 20
66.82461927484925
 30
26.0
 10
1893.2351112835206
 20
66.15599634890594
 30
26.0
 10
1891.790516102563
 20
65.81958566810327
 30
26.0
 10
1890.3454089834117
 20
65.48537833893384
 30
26.0
 10
1888.899804845505
 20
65.15333192683099
 30
26.0
  0
LINE
  5
42
330
17
100
AcDbEntity
  8
0
100
AcDbLine
 10
1888.9
 20
76.76579514599894
 30
26.0
 11
1888.9
 21
65.15337675264277
 31
26.0
  0
SPLINE
  5
43
330
17
100
AcDbEntity
  8
0
100
AcDbSpline
 70
0
 71
4
 72
10
 73
5
 74
0
 40
0.0
 40
0.0
 40
0.0
 40
0.0
 40
0.0
 40
1.0
 40
1.0
 40
1.0
 40
1.0
 40
1.0
 10
1885.099999410963
 20
75.99658732886134
 30
26.0
 10
1886.0501631222946
 20
76.18792341518169
 30
26.0
 10
1887.0002183019835
 20
76.37990244704537
 30
26.0
 10
1887.9501643316294
 20
76.57252590536895
 30
26.0
 10
1888.9000005888797
 20
76.76579526582212
 30
26.0
  0
LINE
  5
44
330
17
100
AcDbEntity
  8
0
100
AcDbLine
 10
1885.1
 20
75.99658744747668
 30
26.0
 11
1885.1
 21
64.28638454941068
 31
26.0
  0
SPLINE
  5
45
330
17
100
AcDbEntity
  8
0
100
AcDbSpline
 70
0
 71
4
 72
19
 73
14
 74
0
 40
0.0
 40
0.0
 40
0.0
 40
0.0
 40
0.0
 40
0.24197428163427276
 40
0.24197428163427276
 40
0.24197428163427276
 40
0.4893077874920473
 40
0.4893077874920473
 40
0.4893077874920473
 40
0.7419866796464708
 40
0.7419866796464708
 40
0.7419866796464708
 40
1.0
 40
1.0
 40
1.0
 40
1.0
 40
1.0
 10
1885.0999999999997
 20
64.28638454941151
 30
26.0
 10
1883.7594153238665
 20
63.98256647411704
 30
26.0
 10
1882.41841919248
 20
63.68056157010589
 30
26.0
 10
1881.0770221497976
 20
63.380340485726244
 30
26.0
 10
1878.3637277344837
 20
62.776801592798336
 30
26.0
 10
1876.99181284065
 20
62.47356246710581
 30
26.0
 10
1875.619499455444
 20
62.172130056146806
 30
26.0
 10
1872.8444276057448
 20
61.56634971350968
 30
26.0
 10
1871.441652146892
 20
61.262079554506535
 30
26.0
 10
1870.0384806575166
 20
60.95963927849326
 30
26.0
 10
1867.201732824078
 20
60.35201975310717
 30
26.0
 10
1865.768139981639
 20
60.04691745358452
 30
26.0
 10
1864.3341536120706
 20
59.74366850289732
 30
26.0
 10
1862.8997827458477
 20
59.442247354618765
 30
26.0
  0
LINE
  5
46
330
17
100
AcDbEntity
  8
0
100
AcDbLine
 10
1862.9
 20
71.66068203619125
 30
26.0
 11
1862.9
 21
59.442293008787686
 31
26.0
  0
SPLINE
  5
47
330
17
100
AcDbEntity
  8
0
100
AcDbSpline
 70
0
 71
4
 72
10
 73
5
 74
0
 40
0.0
 40
0.0
 40
0.0
 40
0.0
 40
0.0
 40
1.0
 40
1.0
 40
1.0
 40
1.0
 40
1.0
 10
1859.099999409865
 20
70.94511146830015
 30
26.0
 10
1860.0501500223975
 20
71.12307307652905
 30
26.0
 10
1861.0002008148347
 20
71.30165439449797
 30
26.0
 10
1861.9501512008103
 20
71.4808569204241
 30
26.0
 10
1862.9000005900211
 20
71.66068214789387
 30
26.0
  0
LINE
  5
48
330
17
100
AcDbEntity
  8
0
100
AcDbLine
 10
1859.1
 20
70.94511157883144
 30
26.0
 11
1859.1
 21
58.648743370899936
 31
26.0
  0
SPLINE
  5
49
330
17
100
AcDbEntity
  8
0
100
AcDbSpline
 70
0
 71
4
 72
19
 73
14
 74
0
 40
0.0
 40
0.0
 40
0.0
 40
0.0
 40
0.0
 40
0.24334582481808284
 40
0.24334582481808284
 40
0.24334582481808284
 40
0.49113975042825603
 40
0.49113975042825603
 40
0.49113975042825603
 40
0.7433674326608671
 40
0.7433674326608671
 40
0.7433674326608671
 40
1.0
 40
1.0
 40
1.0
 40
1.0
 40
1.0
 10
1859.1000000000056
 20
58.648743370872744
 30
26.0
 10
1857.751348934652
 20
58.36886499228553
 30
26.0
 10
1856.4023685902773
 20
58.09057173008824
 30
26.0
 10
1855.0530660429831
 20
57.81384358870348
 30
26.0
 10
1852.329160177907
 20
57.25845000322391
 30
26.0
 10
1850.9545452164762
 20
56.97984161498303
 30
26.0
 10
1849.5796099741979
 20
56.702816891674175
 30
26.0
 10
1846.8045046721686
 20
56.14696912398129
 30
26.0
 10
1845.4043232845897
 20
55.8682025889627
 30
26.0
 10
1844.0038236069506
 20
55.59103834309816
 30
26.0
 10
1841.1777367571099
 20
55.03506535724167
 30
26.0
 10
1839.7521385995187
 20
54.75631241268968
 30
26.0
 10
1838.3262242502915
 20
54.47918027412712
 30
26.0
 10
1836.9000000000008
 20
54.20365092559854
 30
26.0
  0
LINE
  5
4A
330
17
100
AcDbEntity
  8
0
100
AcDbLine
 10
1836.9
 20
66.91626502051422
 30
26.0
 11
1836.9
 21
54.20365092560351
 31
26.0
  0
SPLINE
  5
4B
330
17
100
AcDbEntity
  8
0
100
AcDbSpline
 70
0
 71
4
 72
10
 73
5
 74
0
 40
0.0
 40
0.0
 40
0.0
 40
0.0
 40
0.0
 40
1.0
 40
1.0
 40
1.0
 40
1.0
 40
1.0
 10
1833.099999408819
 20
66.25218425230457
 30
26.0
 10
1834.0501376824882
 20
66.41730807931528
 30
26.0
 10
1835.0001843415012
 20
66.58302849264916
 30
26.0
 10
1835.9501388307208
 20
66.74934700472413
 30
26.0
 10
1836.9000005911132
 20
66.91626512389689
 30
26.0
  0
LINE
  5
4C
330
17
100
AcDbEntity
  8
0
100
AcDbLine
 10
1833.1
 20
66.25218435640662
 30
26.0
 11
1833.1
 21
53.473938699076285
 31
26.0
  0
SPLINE
  5
4D
330
17
100
AcDbEntity
  8
0
100
AcDbSpline
 70
0
 71
4
 72
19
 73
14
 74
0
 40
0.0
 40
0.0
 40
0.0
 40
0.0
 40
0.0
 40
0.24430534770664147
 40
0.24430534770664147
 40
0.24430534770664147
 40
0.49242316790797247
 40
0.49242316790797247
 40
0.49242316790797247
 40
0.7443307227938367
 40
0.7443307227938367
 40
0.7443307227938367
 40
1.0
 40
1.0
 40
1.0
 40
1.0
 40
1.0
 10
1833.1000000000063
 20
53.47393869904132
 30
26.0
 10
1831.7456932229402
 20
53.21543209790257
 30
26.0
 10
1830.3911146242222
 20
52.958348397333666
 30
26.0
 10
1829.0362693250638
 20
52.70267297661893
 30
26.0
 10
1826.3049080845856
 20
52.19014271842521
 30
26.0
 10
1824.92838390536
 20
51.93333174948967
 30
26.0
 10
1823.551594699098
 20
51.677944490324954
 30
26.0
 10
1820.7764628210518
 20
51.16611073229266
 30
26.0
 10
1819.3781121395184
 20
50.90970763228381
 30
26.0
 10
1817.9794981917598
 20
50.65474357455863
 30
26.0
 10
1815.1608639033266
 20
50.143880330239355
 30
26.0
 10
1813.7408357861696
 20
49.88802401963499
 30
26.0
 10
1812.3205462614426
 20
49.63362192785302
 30
26.0
 10
1810.9000000000062
 20
49.380660547595774
 30
26.0
  0
LINE
  5
4E
330
17
100
AcDbEntity
  8
0
100
AcDbLine
 10
1810.9
 20
62.51796798429814
 30
26.0
 11
1810.9
 21
49.380660547631315
 31
26.0
  0
SPLINE
  5
4F
330
17
100
AcDbEntity
  8
0
100
AcDbSpline
 70
0
 71
4
 72
10
 73
5
 74
0
 40
0.0
 40
0.0
 40
0.0
 40
0.0
 40
0.0
 40
1.0
 40
1.0
 40
1.0
 40
1.0
 40
1.0
 10
1807.0999994077938
 20
61.90326916125839
 30
26.0
 10
1808.0501260702576
 20
62.05608198926453
 30
26.0
 10
1809.0001688389648
 20
62.20946840290653
 30
26.0
 10
1809.9501271891152
 20
62.363429926005544
 30
26.0
 10
1810.900000592071
 20
62.51796807884481
 30
26.0
  0
LINE
  5
50
330
17
100
AcDbEntity
  8
0
100
AcDbLine
 10
1807.1
 20
61.90326925700781
 30
26.0
 11
1807.1
 21
48.707952485011766
 31
26.0
  0
SPLINE
  5
51
330
17
100
AcDbEntity
  8
0
100
AcDbSpline
 70
0
 71
4
 72
19
 73
14
 74
0
 40
0.0
 40
0.0
 40
0.0
 40
0.0
 40
0.0
 40
0.2450318667219174
 40
0.2450318667219174
 40
0.2450318667219174
 40
0.49338320558545334
 40
0.49338320558545334
 40
0.49338320558545334
 40
0.7450449823651634
 40
0.7450449823651634
 40
0.7450449823651634
 40
1.0
 40
1.0
 40
1.0
 40
1.0
 40
1.0
 10
1807.100000000008
 20
48.707952484967315
 30
26.0
 10
1805.7414133715968
 20
48.46885707905303
 30
26.0
 10
1804.3825976744022
 20
48.231062375427086
 30
26.0
 10
1803.0235568159283
 20
47.994557134674565
 30
26.0
 10
1800.2866181791005
 20
47.52091730191501
 30
26.0
 10
1798.908714358983
 20
47.28381759930167
 30
26.0
 10
1797.5305869499164
 20
47.0480202177696
 30
26.0
 10
1794.7555194345405
 20
46.57588286322901
 30
26.0
 10
1793.358573427403
 20
46.33957755268055
 30
26.0
 10
1791.9614054562276
 20
46.104587439948084
 30
26.0
 10
1789.1483467214057
 20
45.634158431442316
 30
26.0
 10
1787.7324502091442
 20
45.398753889415715
 30
25.999999999999996
 10
1786.3163334254496
 20
45.16467735520116
 30
25.999999999999996
 10
1784.89999999999
 20
44.93191824574897
 30
25.999999999999996
  0
LINE
  5
52
330
17
100
AcDbEntity
  8
0
100
AcDbLine
 10
1784.9
 20
58.45147903317143
 30
26.0
 11
1784.9
 21
44.93191824569142
 31
26.0
  0
SPLINE
  5
53
330
17
100
AcDbEntity
  8
0
100
AcDbSpline
 70
0
 71
4
 72
10
 73
5
 74
0
 40
0.0
 40
0.0
 40
0.0
 40
0.0
 40
0.0
 40
1.0
 40
1.0
 40
1.0
 40
1.0
 40
1.0
 10
1781.0999994068807
 20
57.88409162530388
 30
26.0
 10
1782.0501151536225
 20
58.02511089300953
 30
26.0
 10
1783.0001542644795
 20
58.1666808767859
 30
26.0
 10
1783.9501162440206
 20
58.30880310934892
 30
26.0
 10
1784.900000593056
 20
58.451479120355266
 30
26.0
  0
LINE
  5
54
330
17
100
AcDbEntity
  8
0
100
AcDbLine
 10
1781.1
 20
57.88409171490052
 30
26.0
 11
1781.1
 21
44.31106738421518
 31
26.0
  0
SPLINE
  5
55
330
17
100
AcDbEntity
  8
0
100
AcDbSpline
 70
0
 71
4
 72
19
 73
14
 74
0
 40
0.0
 40
0.0
 40
0.0
 40
0.0
 40
0.0
 40
0.2455869480707044
 40
0.2455869480707044
 40
0.2455869480707044
 40
0.49412348997692523
 40
0.49412348997692523
 40
0.49412348997692523
 40
0.7456001954192362
 40
0.7456001954192362
 40
0.7456001954192362
 40
1.0
 40
1.0
 40
1.0
 40
1.0
 40
1.0
 10
1781.0999999999872
 20
44.311067384295
 30
26.0
 10
1779.7381387880898
 20
44.08986276597861
 30
26.0
 10
1778.3760818142378
 20
43.869862622354084
 30
26.0
 10
1777.0138321768277
 20
43.65105798950501
 30
26.0
 10
1774.272590123551
 20
43.2132086500118
 30
26.0
 10
1772.8935931222732
 20
42.99419263380525
 30
26.0
 10
1771.5144049414725
 20
42.77638313192322
 30
26.0
 10
1768.7393342340624
 20
42.340597458311954
 30
26.0
 10
1767.3434472280867
 20
42.122649795744536
 30
26.0
 10
1765.947370573612
 20
41.90591964353173
 30
26.0
 10
1763.1386140268671
 20
41.472372107497804
 30
26.0
 10
1761.7259297706444
 20
41.25558297914488
 30
26.0
 10
1760.313057455742
 20
41.04002227652505
 30
26.0
 10
1758.8999999999837
 20
40.825681428346996
 30
26.0
  0
LINE
  5
56
330
17
100
AcDbEntity
  8
0
100
AcDbLine
 10
1758.9
 20
54.70273522206125
 30
26.0
 11
1758.9
 21
40.82568142823732
 31
26.0
  0
SPLINE
  5
57
330
17
100
AcDbEntity
  8
0
100
AcDbSpline
 70
0
 71
4
 72
10
 73
5
 74
0
 40
0.0
 40
0.0
 40
0.0
 40
0.0
 40
0.0
 40
1.0
 40
1.0
 40
1.0
 40
1.0
 40
1.0
 10
1755.099999405988
 20
54.1806238427478
 30
26.0
 10
1756.050104900456
 20
54.31035819304538
 30
26.0
 10
1757.0001405752657
 20
54.44062052750899
 30
26.0
 10
1757.9501059633296
 20
54.571412385516744
 30
26.0
 10
1758.9000005938883
 20
54.70273530382251
 30
26.0
  0
LINE
  5
58
330
17
100
AcDbEntity
  8
0
100
AcDbLine
 10
1755.1
 20
54.18062392635757
 30
26.0
 11
1755.1
 21
40.2526479375303
 31
26.0
  0
SPLINE
  5
59
330
17
100
AcDbEntity
  8
0
100
AcDbSpline
 70
0
 71
4
 72
13
 73
8
 74
0
 40
0.0
 40
0.0
 40
0.0
 40
0.0
 40
0.0
 40
0.4947166022476821
 40
0.4947166022476821
 40
0.4947166022476821
 40
1.0
 40
1.0
 40
1.0
 40
1.0
 40
1.0
 10
1755.0999999999806
 20
40.25264793766198
 30
26.0
 10
1752.3563129014933
 20
39.84133150663293
 30
26.0
 10
1749.6119426894159
 20
39.43456923685116
 30
26.0
 10
1746.8669099926603
 20
39.032300892297194
 30
26.0
 10
1741.316912175099
 20
38.22814249140042
 30
26.0
 10
1738.5119192834359
 20
37.82644402003481
 30
26.0
 10
1735.706275596847
 20
37.42931540845677
 30
26.0
 10
1732.9000000000294
 20
37.03670106530327
 30
26.0
  0
LINE
  5
5A
330
17
100
AcDbEntity
  8
0
100
AcDbLine
 10
1732.9
 20
51.25790789961838
 30
26.0
 11
1732.9
 21
37.036701065508076
 31
26.0
  0
SPLINE
  5
5B
330
17
100
AcDbEntity
  8
0
100
AcDbSpline
 70
0
 71
4
 72
10
 73
5
 74
0
 40
0.0
 40
0.0
 40
0.0
 40
0.0
 40
0.0
 40
1.0
 40
1.0
 40
1.0
 40
1.0
 40
1.0
 10
1729.099999405146
 20
50.77907020894261
 30
26.0
 10
1730.050095279298
 20
50.89802001492713
 30
26.0
 10
1731.0001277295694
 20
51.01747521561645
 30
26.0
 10
1731.9500963161356
 20
51.13743735507953
 30
26.0
 10
1732.9000005956054
 20
51.2579079751554
 30
26.0
  0
LINE
  5
5C
330
17
100
AcDbEntity
  8
0
100
AcDbLine
 10
1729.1
 20
50.77907028341698
 30
26.0
 11
1729.1
 21
36.50821410219563
 31
26.0
  0
SPLINE
  5
5D
330
17
100
AcDbEntity
  8
0
100
AcDbSpline
 70
0
 71
4
 72
13
 73
8
 74
0
 40
0.0
 40
0.0
 40
0.0
 40
0.0
 40
0.0
 40
0.49518820611127096
 40
0.49518820611127096
 40
0.49518820611127096
 40
1.0
 40
1.0
 40
1.0
 40
1.0
 40
1.0
 10
1729.1000000000229
 20
36.508214102029335
 30
26.0
 10
1726.353433639168
 20
36.128507550859624
 30
26.0
 10
1723.6062743428502
 20
35.75308770802969
 30
26.0
 10
1720.858539329595
 20
35.38190402916712
 30
26.0
 10
1715.3085391427899
 20
34.64078176137861
 30
26.000000000000004
 10
1712.5062520100112
 20
34.271007549692534
 30
26.0
 10
1709.7034003187712
 20
33.90553627978103
 30
26.0
 10
1706.9000000000065
 20
33.544320778189245
 30
26.0
  0
LINE
  5
5E
330
17
100
AcDbEntity
  8
0
100
AcDbLine
 10
1706.9
 20
48.10338864413637
 30
26.0
 11
1706.9
 21
33.54432077824118
 31
26.0
  0
SPLINE
  5
5F
330
17
100
AcDbEntity
  8
0
100
AcDbSpline
 70
0
 71
4
 72
10
 73
5
 74
0
 40
0.0
 40
0.0
 40
0.0
 40
0.0
 40
0.0
 40
1.0
 40
1.0
 40
1.0
 40
1.0
 40
1.0
 10
1703.0999994043543
 20
47.66585331020275
 30
26.0
 10
1704.0500862580877
 20
47.77451118091602
 30
26.0
 10
1705.0001156842234
 20
47.883652002441075
 30
26.0
 10
1705.9500872690805
 20
47.99327732181424
 30
26.0
 10
1706.9000005955331
 20
48.10338868419734
 30
26.0
  0
LINE
  5
60
330
17
100
AcDbEntity
  8
0
100
AcDbLine
 10
1703.1
 20
47.665853404986024
 30
26.0
 11
1703.1
 21
33.05766724032008
 31
26.0
  0
SPLINE
  5
61
330
17
100
AcDbEntity
  8
0
100
AcDbSpline
 70
0
 71
4
 72
13
 73
8
 74
0
 40
0.0
 40
0.0
 40
0.0
 40
0.0
 40
0.0
 40
0.49557930855837967
 40
0.49557930855837967
 40
0.49557930855837967
 40
1.0
 40
1.0
 40
1.0
 40
1.0
 40
1.0
 10
1703.1000000000101
 20
33.057667240238004
 30
26.0
 10
1700.3510419921467
 20
32.70776193818252
 30
26.0
 10
1697.6015669297158
 20
32.361916777051405
 30
26.0
 10
1694.8515894544985
 20
32.02008855784185
 30
26.0
 10
1689.3015875462777
 20
31.33835675890841
 30
26.0
 10
1686.5015455250707
 20
30.99859630579005
 30
26.0
 10
1683.7010117886427
 20
30.66291210671722
 30
26.0
 10
1680.9000000000112
 20
30.3312634638979
 30
26.0
  0
LINE
  5
62
330
17
100
AcDbEntity
  8
0
100
AcDbLine
 10
1680.9
 20
45.22577556575234
 30
26.0
 11
1680.9
 21
30.331263463993878
 31
26.0
  0
SPLINE
  5
63
330
17
100
AcDbEntity
  8
0
100
AcDbSpline
 70
0
 71
4
 72
10
 73
5
 74
0
 40
0.0
 40
0.0
 40
0.0
 40
0.0
 40
0.0
 40
1.0
 40
1.0
 40
1.0
 40
1.0
 40
1.0
 10
1677.0999994035997
 20
44.82760044046215
 30
26.0
 10
1678.0500778064832
 20
44.92645170830696
 30
26.0
 10
1679.0001043992356
 20
45.02576363020712
 30
26.0
 10
1679.9500787931709
 20
45.12553775467741
 30
26.0
 10
1680.9000005962826
 20
45.22577562867342
 30
26.0
  0
LINE
  5
64
330
17
100
AcDbEntity
  8
0
100
AcDbLine
 10
1677.1
 20
44.827600502514855
 30
26.0
 11
1677.1
 21
29.884148887988907
 31
26.0
  0
SPLINE
  5
65
330
17
100
AcDbEntity
  8
0
100
AcDbSpline
 70
0
 71
8
 72
25
 73
16
 74
0
 40
0.0
 40
0.0
 40
0.0
 40
0.0
 40
0.0
 40
0.0
 40
0.0
 40
0.0
 40
0.0
 40
0.4960300483173904
 40
0.4960300483173904
 40
0.4960300483173904
 40
0.4960300483173904
 40
0.4960300483173904
 40
0.4960300483173904
 40
0.4960300483173904
 40
1.0
 40
1.0
 40
1.0
 40
1.0
 40
1.0
 40
1.0
 40
1.0
 40
1.0
 40
1.0
 10
1677.1000000000274
 20
29.884148887758133
 30
26.0
 10
1675.7241657283082
 20
29.723283394657614
 30
26.0
 10
1674.3482344035501
 20
29.56324758400557
 30
26.0
 10
1672.9722077937533
 20
29.404031244790296
 30
26.0
 10
1671.5960842370996
 20
29.245654356725836
 30
26.0
 10
1670.2198680456409
 20
29.08808356878252
 30
26.0
 10
1668.84355948868
 20
28.9313223528496
 30
26.0
 10
1667.4671603053896
 20
28.775359751951708
 30
26.0
 10
1664.6921502421537
 20
28.46253284054529
 30
26.0
 10
1663.2935364578987
 20
28.30569407447814
 30
26.0
 10
1661.8948320597692
 20
28.149663737209828
 30
26.0
 10
1660.4960384911974
 20
27.99443384679885
 30
26.0
 10
1659.0971571561558
 20
27.839996607922764
 30
26.0
 10
1657.698189419155
 20
27.686344411878142
 30
26.0
 10
1656.2991366052472
 20
27.53346983658061
 30
26.0
 10
1654.9000000000235
 20
27.381365646564817
 30
26.0
  0
LINE
  5
66
330
17
100
AcDbEntity
  8
0
100
AcDbLine
 10
1654.9
 20
42.611860658340966
 30
26.0
 11
1654.9
 21
27.381365646780093
 31
26.0
  0
SPLINE
  5
67
330
17
100
AcDbEntity
  8
0
100
AcDbSpline
 70
0
 71
4
 72
10
 73
5
 74
0
 40
0.0
 40
0.0
 40
0.0
 40
0.0
 40
0.0
 40
1.0
 40
1.0
 40
1.0
 40
1.0
 40
1.0
 10
1651.0999994027811
 20
42.251130600852306
 30
26.0
 10
1652.0500698937608
 20
42.34065379154886
 30
26.0
 10
1653.0000938336123
 20
42.43061548678661
 30
26.0
 10
1653.950070857474
 20
42.52101723528808
 30
26.0
 10
1654.9000005972996
 20
42.611860584497734
 30
26.0
  0
LINE
  5
68
330
17
100
AcDbEntity
  8
0
100
AcDbLine
 10
1651.1
 20
42.25113148022125
 30
26.0
 11
1651.1
 21
26.970755936558817
 31
26.0
  0
SPLINE
  5
69
330
17
100
AcDbEntity
  8
0
100
AcDbSpline
 70
0
 71
4
 72
13
 73
8
 74
0
 40
0.0
 40
0.0
 40
0.0
 40
0.0
 40
0.0
 40
0.49664276952434094
 40
0.49664276952434094
 40
0.49664276952434094
 40
1.0
 40
1.0
 40
1.0
 40
1.0
 40
1.0
 10
1651.1000000000156
 20
26.970755936412996
 30
26.0
 10
1648.3446799871037
 20
26.674829775124614
 30
26.0
 10
1645.5889925802207
 20
26.38232283331497
 30
26.0
 10
1642.8329541432975
 20
26.09314256403665
 30
26.0
 10
1637.28293854231
 20
25.51740432584419
 30
26.000000000000004
 10
1634.488952226155
 20
25.23093462069477
 30
26.0
 10
1631.694635000763
 20
24.94771134737187
 30
26.0
 10
1628.8999999999837
 20
24.667657660034816
 30
26.0
  0
LINE
  5
6A
330
17
100
AcDbEntity
  8
0
100
AcDbLine
 10
1628.9
 20
40.248616411951815
 30
26.0
 11
1628.9
 21
24.667657659867576
 31
26.0
  0
SPLINE
  5
6B
330
17
100
AcDbEntity
  8
0
100
AcDbSpline
 70
0
 71
4
 72
10
 73
5
 74
0
 40
0.0
 40
0.0
 40
0.0
 40
0.0
 40
0.0
 40
1.0
 40
1.0
 40
1.0
 40
1.0
 40
1.0
 10
1625.0999994022777
 20
39.92344194453569
 30
26.0
 10
1626.0500624560673
 20
40.004109229437745
 30
26.0
 10
1627.0000839577249
 20
40.08519301985147
 30
26.0
 10
1627.9500634286183
 20
40.1666948558138
 30
26.0
 10
1628.9000005978312
 20
40.248616288429005
 30
26.0
  0
LINE
  5
6C
330
17
100
AcDbEntity
  8
0
100
AcDbLine
 10
1625.1
 20
39.923442150485776
 30
26.0
 11
1625.1
 21
24.289062494071707
 31
26.0
  0
SPLINE
  5
6D
330
17
100
AcDbEntity
  8
0
100
AcDbSpline
 70
0
 71
4
 72
13
 73
8
 74
0
 40
0.0
 40
0.0
 40
0.0
 40
0.0
 40
0.0
 40
0.4971542342071417
 40
0.4971542342071417
 40
0.4971542342071417
 40
1.0
 40
1.0
 40
1.0
 40
1.0
 40
1.0
 10
1625.0999999999854
 20
24.28906249421814
 30
26.0
 10
1622.3416559215493
 20
24.015841164225844
 30
26.0
 10
1619.5830108763892
 20
23.745656965535034
 30
26.0
 10
1616.8240769430245
 20
23.4784390169487
 30
26.0
 10
1611.274064686978
 20
22.946782034811026
 30
26.000000000000004
 10
1608.4829799667716
 20
22.68240980761037
 30
26.0
 10
1605.6916217779635
 20
22.420940934778997
 30
26.0
 10
1602.899999999974
 20
22.162316006131917
 30
26.0
  0
LINE
  5
6E
330
17
100
AcDbEntity
  8
0
100
AcDbLine
 10
1602.9
 20
38.12318340416883
 30
26.0
 11
1602.9
 21
22.16231600585417
 31
26.0
  0
SPLINE
  5
6F
330
17
100
AcDbEntity
  8
0
100
AcDbSpline
 70
0
 71
4
 72
10
 73
5
 74
0
 40
0.0
 40
0.0
 40
0.0
 40
0.0
 40
0.0
 40
1.0
 40
1.0
 40
1.0
 40
1.0
 40
1.0
 10
1599.0999994012411
 20
37.831696521933424
 30
26.0
 10
1600.0500511557775
 20
37.90397396481631
 30
26.0
 10
1601.0000689661672
 20
37.9766463029638
 30
26.0
 10
1601.950052294088
 20
38.04971506264098
 30
26.0
 10
1602.9000005982014
 20
38.123181770301834
 30
26.0
  0
LINE
  5
70
330
17
100
AcDbEntity
  8
0
100
AcDbLine
 10
1599.1
 20
37.83169821905051
 30
26.0
 11
1599.1
 21
21.812255152002756
 31
26.0
  0
SPLINE
  5
71
330
17
100
AcDbEntity
  8
0
100
AcDbSpline
 70
0
 71
4
 72
13
 73
8
 74
0
 40
0.0
 40
0.0
 40
0.0
 40
0.0
 40
0.0
 40
0.48357717607255
 40
0.48357717607255
 40
0.48357717607255
 40
1.0
 40
1.0
 40
1.0
 40
1.0
 40
1.0
 10
1599.0999999999735
 20
21.812255152289346
 30
26.0
 10
1596.4168487413722
 20
21.566473653771173
 30
26.0
 10
1593.7334601299888
 20
21.323282203319486
 30
26.0
 10
1591.0498425851822
 20
21.082630131762734
 30
26.0
 10
1585.4998724329948
 20
20.590136390422742
 30
26.0
 10
1582.6334887402666
 20
20.33864491074862
 30
26.000000000000007
 10
1579.7668618367406
 20
20.089941057060358
 30
26.00000000000001
 10
1576.899999999995
 20
19.84397430588779
 30
26.000000000000014
  0
LINE
  5
72
330
17
100
AcDbEntity
  8
0
100
AcDbLine
 10
1576.9
 20
36.22287234724196
 30
26.0
 11
1576.9
 21
19.843974305822336
 31
26.0
  0
SPLINE
  5
73
330
17
100
AcDbEntity
  8
0
100
AcDbSpline
 70
0
 71
4
 72
10
 73
5
 74
0
 40
0.0
 40
0.0
 40
0.0
 40
0.0
 40
0.0
 40
1.0
 40
1.0
 40
1.0
 40
1.0
 40
1.0
 10
1573.0999993983185
 20
35.96323971302668
 30
26.0
 10
1574.0500402419302
 20
36.02758565090209
 30
26.0
 10
1575.0000544018328
 20
36.092305148106504
 30
26.0
 10
1575.9500413607602
 20
36.157399722653565
 30
26.0
 10
1576.9000005986456
 20
36.22287089278565
 30
26.0
  0
LINE
  5
74
330
17
100
AcDbEntity
  8
0
100
AcDbLine
 10
1573.1
 20
35.963241157843754
 30
26.0
 11
1573.1
 21
19.519756698867816
 31
26.0
  0
SPLINE
  5
75
330
17
100
AcDbEntity
  8
0
100
AcDbSpline
 70
0
 71
4
 72
10
 73
5
 74
0
 40
0.0
 40
0.0
 40
0.0
 40
0.0
 40
0.0
 40
1.0
 40
1.0
 40
1.0
 40
1.0
 40
1.0
 10
1573.099999999992
 20
19.51975669896367
 30
26.0
 10
1567.551234477657
 20
19.048964493083467
 30
26.0
 10
1562.0016092795724
 20
18.588300763284792
 30
26.0
 10
1556.4511820301109
 20
18.137413837745324
 30
26.0
 10
1550.9000000000196
 20
17.696015032286947
 30
26.0
  0
LINE
  5
76
330
17
100
AcDbEntity
  8
0
100
AcDbLine
 10
1550.9
 20
34.535231873782465
 30
26.0
 11
1550.9
 21
17.69601503253034
 31
26.0
  0
SPLINE
  5
77
330
17
100
AcDbEntity
  8
0
100
AcDbSpline
 70
0
 71
4
 72
10
 73
5
 74
0
 40
0.0
 40
0.0
 40
0.0
 40
0.0
 40
0.0
 40
1.0
 40
1.0
 40
1.0
 40
1.0
 40
1.0
 10
1547.0999994009849
 20
34.305654053093875
 30
26.0
 10
1548.0500297729614
 20
34.362518213480826
 30
26.0
 10
1549.0000404290213
 20
34.41973484486955
 30
26.0
 10
1549.9500308712065
 20
34.47730545777644
 30
26.0
 10
1550.9000005989644
 20
34.535231562959936
 30
26.0
  0
LINE
  5
78
330
17
100
AcDbEntity
  8
0
100
AcDbLine
 10
1547.1
 20
34.30565426453622
 30
26.0
 11
1547.1
 21
17.39553227275751
 31
26.0
  0
SPLINE
  5
79
330
17
100
AcDbEntity
  8
0
100
AcDbSpline
 70
0
 71
4
 72
10
 73
5
 74
0
 40
0.0
 40
0.0
 40
0.0
 40
0.0
 40
0.0
 40
1.0
 40
1.0
 40
1.0
 40
1.0
 40
1.0
 10
1547.1000000000176
 20
17.395532272534023
 30
26.0
 10
1541.5510631371767
 20
16.95918612046061
 30
26.000000000000004
 10
1536.0013883033432
 20
16.53222136221298
 30
26.000000000000007
 10
1530.4510212147218
 20
16.114359775736386
 30
26.00000000000001
 10
1524.900000000033
 20
15.705372747185953
 30
26.000000000000014
  0
LINE
  5
7A
330
17
100
AcDbEntity
  8
0
100
AcDbLine
 10
1524.9
 20
33.04803708750138
 30
26.0
 11
1524.9
 21
15.70537274762972
 31
26.0
  0
SPLINE
  5
7B
330
17
100
AcDbEntity
  8
0
100
AcDbSpline
 70
0
 71
4
 72
10
 73
5
 74
0
 40
0.0
 40
0.0
 40
0.0
 40
0.0
 40
0.0
 40
1.0
 40
1.0
 40
1.0
 40
1.0
 40
1.0
 10
1521.0999994008246
 20
32.84674356673289
 30
26.0
 10
1522.05002013515
 20
32.896568087832826
 30
26.0
 10
1523.0000273220994
 20
32.94672416212145
 30
26.0
 10
1523.9500209290168
 20
32.99721333433459
 30
26.0
 10
1524.9000005991572
 20
33.04803711955621
 30
26.0
  0
LINE
  5
7C
330
17
100
AcDbEntity
  8
0
100
AcDbLine
 10
1521.1
 20
32.84674359815708
 30
26.0
 11
1521.1
 21
15.426960447188673
 31
26.0
  0
SPLINE
  5
7D
330
17
100
AcDbEntity
  8
0
100
AcDbSpline
 70
0
 71
4
 72
10
 73
5
 74
0
 40
0.0
 40
0.0
 40
0.0
 40
0.0
 40
0.0
 40
1.0
 40
1.0
 40
1.0
 40
1.0
 40
1.0
 10
1521.100000000032
 20
15.426960446749861
 30
26.0
 10
1515.550925368204
 20
15.022675856023037
 30
26.0
 10
1510.0012101255484
 20
14.62718122589275
 30
26.0
 10
1504.4508912350907
 20
14.24025642031883
 30
26.0
 10
1498.9000000000156
 20
13.861721456690033
 30
26.0
  0
LINE
  5
7E
330
17
100
AcDbEntity
  8
0
100
AcDbLine
 10
1498.9
 20
31.749241199452236
 30
26.0
 11
1498.9
 21
13.861721456913816
 31
26.0
  0
SPLINE
  5
7F
330
17
100
AcDbEntity
  8
0
100
AcDbSpline
 70
0
 71
4
 72
10
 73
5
 74
0
 40
0.0
 40
0.0
 40
0.0
 40
0.0
 40
0.0
 40
1.0
 40
1.0
 40
1.0
 40
1.0
 40
1.0
 10
1495.0999994007025
 20
31.574477437883534
 30
26.0
 10
1496.050017270514
 20
31.617701225869297
 30
26.0
 10
1497.0000235140249
 20
31.661235374689692
 30
26.0
 10
1497.9500180010816
 20
31.70508142194397
 30
26.0
 10
1498.9000005992832
 20
31.749240904241745
 30
26.0
  0
LINE
  5
80
330
17
100
AcDbEntity
  8
0
100
AcDbLine
 10
1495.1
 20
31.574477761757308
 30
26.0
 11
1495.1
 21
13.60406360215291
 31
26.0
  0
SPLINE
  5
81
330
17
100
AcDbEntity
  8
0
100
AcDbSpline
 70
0
 71
4
 72
10
 73
5
 74
0
 40
0.0
 40
0.0
 40
0.0
 40
0.0
 40
0.0
 40
1.0
 40
1.0
 40
1.0
 40
1.0
 40
1.0
 10
1495.1000000000172
 20
13.604063601898343
 30
26.0
 10
1489.5508125723225
 20
13.229955054435056
 30
26.0
 10
1484.001063865643
 20
12.864169556280658
 30
26.0
 10
1478.4507842954317
 20
12.506534183479294
 30
26.0
 10
1472.8999999999855
 20
12.156909422058572
 30
26.0
  0
LINE
  5
82
330
17
100
AcDbEntity
  8
0
100
AcDbLine
 10
1472.9
 20
30.6268432549559
 30
26.0
 11
1472.9
 21
12.15690942182798
 31
26.0
  0
SPLINE
  5
83
330
17
100
AcDbEntity
  8
0
100
AcDbSpline
 70
0
 71
4
 72
10
 73
5
 74
0
 40
0.0
 40
0.0
 40
0.0
 40
0.0
 40
0.0
 40
1.0
 40
1.0
 40
1.0
 40
1.0
 40
1.0
 10
1469.0999994005824
 20
30.476856085931573
 30
26.0
 10
1470.0500147316868
 20
30.513917480101895
 30
26.0
 10
1471.000020119002
 20
30.551268041192753
 30
26.0
 10
1471.950015447337
 20
30.588909308899865
 30
26.0
 10
1472.9000005993958
 20
30.62684282209466
 30
26.0
  0
LINE
  5
84
330
17
100
AcDbEntity
  8
0
100
AcDbLine
 10
1469.1
 20
30.476856965414328
 30
26.0
 11
1469.1
 21
11.918971121904928
 31
26.0
  0
SPLINE
  5
85
330
17
100
AcDbEntity
  8
0
100
AcDbSpline
 70
0
 71
4
 72
10
 73
5
 74
0
 40
0.0
 40
0.0
 40
0.0
 40
0.0
 40
0.0
 40
1.0
 40
1.0
 40
1.0
 40
1.0
 40
1.0
 10
1469.0999999999779
 20
11.918971122261762
 30
26.0
 10
1463.5507186204486
 20
11.573556763769787
 30
26.0
 10
1458.0009417336626
 20
11.236100956875497
 30
26.0
 10
1452.4506947942784
 20
10.906470227030988
 30
26.0
 10
1446.9000000000003
 20
10.58455970879838
 30
26.0
  0
LINE
  5
86
330
17
100
AcDbEntity
  8
0
100
AcDbLine
 10
1446.9
 20
29.668855506711296
 30
26.0
 11
1446.9
 21
10.5845597087959
 31
26.0
  0
SPLINE
  5
87
330
17
100
AcDbEntity
  8
0
100
AcDbSpline
 70
0
 71
4
 72
10
 73
5
 74
0
 40
0.0
 40
0.0
 40
0.0
 40
0.0
 40
0.0
 40
1.0
 40
1.0
 40
1.0
 40
1.0
 40
1.0
 10
1443.0999994004799
 20
29.541895307513343
 30
26.0
 10
1444.0500124924188
 20
29.573231853883797
 30
26.0
 10
1445.0000171240754
 20
29.604836378351287
 30
26.0
 10
1445.9500131941795
 20
29.636710422020975
 30
26.0
 10
1446.9000005995108
 20
29.668855525318943
 30
26.0
  0
LINE
  5
88
330
17
100
AcDbEntity
  8
0
100
AcDbLine
 10
1443.1
 20
29.541895329137958
 30
26.0
 11
1443.1
 21
10.365539389778409
 31
26.0
  0
SPLINE
  5
89
330
17
100
AcDbEntity
  8
0
100
AcDbSpline
 70
0
 71
4
 72
10
 73
5
 74
0
 40
0.0
 40
0.0
 40
0.0
 40
0.0
 40
0.0
 40
1.0
 40
1.0
 40
1.0
 40
1.0
 40
1.0
 10
1443.1
 20
10.365539389780881
 30
26.0
 10
1437.5506390169844
 20
10.04767321579806
 30
26.0
 10
1432.000837990868
 20
9.737487742023816
 30
26.0
 10
1426.450618589718
 20
9.434883416584896
 30
26.0
 10
1420.8999999999999
 20
9.139785944326993
 30
26.0
  0
LINE
  5
8A
330
17
100
AcDbEntity
  8
0
100
AcDbLine
 10
1420.9
 20
28.863312574760553
 30
26.0
 11
1420.9
 21
9.139785944324549
 31
26.0
  0
SPLINE
  5
8B
330
17
100
AcDbEntity
  8
0
100
AcDbSpline
 70
0
 71
4
 72
10
 73
5
 74
0
 40
0.0
 40
0.0
 40
0.0
 40
0.0
 40
0.0
 40
1.0
 40
1.0
 40
1.0
 40
1.0
 40
1.0
 10
1417.099999400371
 20
28.75763162275248
 30
26.0
 10
1418.0500105307938
 20
28.783680126323116
 30
26.0
 10
1419.000014500035
 20
28.80997542779687
 30
26.0
 10
1419.950011219705
 20
28.836519069116576
 30
26.0
 10
1420.9000005996072
 20
28.863312591671882
 30
26.0
  0
LINE
  5
8C
330
17
100
AcDbEntity
  8
0
100
AcDbLine
 10
1417.1
 20
28.757631639193804
 30
26.0
 11
1417.1
 21
8.939081366077117
 31
26.0
  0
SPLINE
  5
8D
330
17
100
AcDbEntity
  8
0
100
AcDbSpline
 70
0
 71
4
 72
10
 73
5
 74
0
 40
0.0
 40
0.0
 40
0.0
 40
0.0
 40
0.0
 40
1.0
 40
1.0
 40
1.0
 40
1.0
 40
1.0
 10
1417.0999999999997
 20
8.939081366079048
 30
26.0
 10
1411.5505703655965
 20
8.647905029763866
 30
26.000000000000004
 10
1406.000748281823
 20
8.364207053333871
 30
26.000000000000007
 10
1400.450552525215
 20
8.087917953687109
 30
26.00000000000001
 10
1394.9000000000003
 20
7.818991283327865
 30
26.000000000000014
  0
LINE
  5
8E
330
17
100
AcDbEntity
  8
0
100
AcDbLine
 10
1394.9
 20
28.198267133380664
 30
26.0
 11
1394.9
 21
7.818991283325796
 31
26.0
  0
SPLINE
  5
8F
330
17
100
AcDbEntity
  8
0
100
AcDbSpline
 70
0
 71
4
 72
10
 73
5
 74
0
 40
0.0
 40
0.0
 40
0.0
 40
0.0
 40
0.0
 40
1.0
 40
1.0
 40
1.0
 40
1.0
 40
1.0
 10
1391.099999400284
 20
28.11212089226537
 30
26.0
 10
1392.0500088249084
 20
28.133317468713997
 30
26.0
 10
1393.0000122176737
 20
28.154739674204595
 30
26.0
 10
1393.9500095020137
 20
28.17638905105193
 30
26.0
 10
1394.9000005997123
 20
28.198267141126294
 30
26.0
  0
LINE
  5
90
330
17
100
AcDbEntity
  8
0
100
AcDbLine
 10
1391.1
 20
28.11212091148174
 30
26.0
 11
1391.1
 21
7.636175789555843
 31
26.0
  0
SPLINE
  5
91
330
17
100
AcDbEntity
  8
0
100
AcDbSpline
 70
0
 71
4
 72
10
 73
5
 74
0
 40
0.0
 40
0.0
 40
0.0
 40
0.0
 40
0.0
 40
1.0
 40
1.0
 40
1.0
 40
1.0
 40
1.0
 10
1391.0999999999997
 20
7.636175789557553
 30
26.0
 10
1385.550510014927
 20
7.371084989513351
 30
26.0
 10
1380.000669188476
 20
7.113338118597379
 30
26.0
 10
1374.4504941112548
 20
6.862893220112241
 30
26.0
 10
1368.8999999999999
 20
6.619730086858653
 30
26.0
  0
LINE
  5
92
330
17
100
AcDbEntity
  8
0
100
AcDbLine
 10
1368.9
 20
27.661790449457968
 30
26.0
 11
1368.9
 21
6.619730086856603
 31
26.0
  0
SPLINE
  5
93
330
17
100
AcDbEntity
  8
0
100
AcDbSpline
 70
0
 71
4
 72
10
 73
5
 74
0
 40
0.0
 40
0.0
 40
0.0
 40
0.0
 40
0.0
 40
1.0
 40
1.0
 40
1.0
 40
1.0
 40
1.0
 10
1365.0999994001957
 20
27.593436940519297
 30
26.0
 10
1366.0500073527971
 20
27.61021706756906
 30
26.0
 10
1367.0000102477095
 20
27.62720166806658
 30
26.0
 10
1367.9500080191403
 20
27.644392284330408
 30
26.0
 10
1368.9000005997916
 20
27.661790458327353
 30
26.0
  0
LINE
  5
94
330
17
100
AcDbEntity
  8
0
100
AcDbLine
 10
1365.1
 20
27.593436952045465
 30
26.0
 11
1365.1
 21
6.454536788697175
 31
26.0
  0
SPLINE
  5
95
330
17
100
AcDbEntity
  8
0
100
AcDbSpline
 70
0
 71
4
 72
13
 73
8
 74
0
 40
0.0
 40
0.0
 40
0.0
 40
0.0
 40
0.0
 40
0.5010074056689181
 40
0.5010074056689181
 40
0.5010074056689181
 40
1.0
 40
1.0
 40
1.0
 40
1.0
 40
1.0
 10
1365.1
 20
6.454536788698868
 30
26.0
 10
1362.3196368612516
 20
6.334606733660058
 30
26.0
 10
1359.5391949823938
 20
6.216502014842943
 30
26.0
 10
1356.7586762280177
 20
6.100221297971806
 30
26.0
 10
1351.2086709058626
 20
5.871764764734545
 30
25.999999999999996
 10
1348.4391850060572
 20
5.7595727525361635
 30
26.0
 10
1345.669627242084
 20
5.649169569517808
 30
26.0
 10
1342.8999999999999
 20
5.540537762262525
 30
26.0
  0
LINE
  5
96
330
17
100
AcDbEntity
  8
0
100
AcDbLine
 10
1342.9
 20
27.241970613721044
 30
26.0
 11
1342.9
 21
5.540537762260516
 31
26.0
  0
SPLINE
  5
97
330
17
100
AcDbEntity
  8
0
100
AcDbSpline
 70
0
 71
4
 72
10
 73
5
 74
0
 40
0.0
 40
0.0
 40
0.0
 40
0.0
 40
0.0
 40
1.0
 40
1.0
 40
1.0
 40
1.0
 40
1.0
 10
1339.0999994001154
 20
27.189670185106195
 30
26.0
 10
1340.0500060925417
 20
27.202468753583215
 30
26.0
 10
1341.000008560924
 20
27.21545065441338
 30
26.0
 10
1341.950006749179
 20
27.22861742963964
 30
26.0
 10
1342.900000599874
 20
27.241970621031232
 30
26.0
  0
LINE
  5
98
330
17
100
AcDbEntity
  8
0
100
AcDbLine
 10
1339.1
 20
27.18967019445622
 30
26.0
 11
1339.1
 21
5.392741699962417
 31
26.0
  0
SPLINE
  5
99
330
17
100
AcDbEntity
  8
0
100
AcDbSpline
 70
0
 71
4
 72
10
 73
5
 74
0
 40
0.0
 40
0.0
 40
0.0
 40
0.0
 40
0.0
 40
1.0
 40
1.0
 40
1.0
 40
1.0
 40
1.0
 10
1339.1
 20
5.392741699964073
 30
26.0
 10
1333.550390137739
 20
5.178717586807716
 30
26.0
 10
1328.0005078533427
 20
4.971757362170307
 30
26.0
 10
1322.4503720278076
 20
4.771721543446687
 30
26.0
 10
1316.9000000000058
 20
4.5784696343942946
 30
26.0
  0
LINE
  5
9A
330
17
100
AcDbEntity
  8
0
100
AcDbLine
 10
1316.9
 20
26.92691112896161
 30
26.0
 11
1316.9
 21
4.578469634572402
 31
26.0
  0
SPLINE
  5
9B
330
17
100
AcDbEntity
  8
0
100
AcDbSpline
 70
0
 71
4
 72
10
 73
5
 74
0
 40
0.0
 40
0.0
 40
0.0
 40
0.0
 40
0.0
 40
1.0
 40
1.0
 40
1.0
 40
1.0
 40
1.0
 10
1313.0999994000413
 20
26.888926271477494
 30
26.0
 10
1314.0500050222365
 20
26.898177636074493
 30
26.0
 10
1315.0000071281065
 20
26.90759120702821
 30
26.0
 10
1315.950005670219
 20
26.917168525906277
 30
26.0
 10
1316.9000005999485
 20
26.926911134067705
 30
26.0
  0
LINE
  5
9C
330
17
100
AcDbEntity
  8
0
100
AcDbLine
 10
1313.1
 20
26.888926278072482
 30
26.0
 11
1313.1
 21
4.447352951710973
 31
26.0
  0
SPLINE
  5
9D
330
17
100
AcDbEntity
  8
0
100
AcDbSpline
 70
0
 71
4
 72
10
 73
5
 74
0
 40
0.0
 40
0.0
 40
0.0
 40
0.0
 40
0.0
 40
1.0
 40
1.0
 40
1.0
 40
1.0
 40
1.0
 10
1313.1000000000051
 20
4.447352951551718
 30
26.0
 10
1307.5502281582703
 20
4.257596813818932
 30
26.0
 10
1302.0002260655745
 20
4.074574834819442
 30
26.0
 10
1296.4500107729561
 20
3.898147057269027
 30
26.0
 10
1290.899597854685
 20
3.7281725907337684
 30
26.0
  0
LINE
  5
9E
330
17
100
AcDbEntity
  8
0
100
AcDbLine
 10
1290.9
 20
26.704729564246403
 30
26.0
 11
1290.9
 21
3.72818490666922
 31
26.0
  0
SPLINE
  5
9F
330
17
100
AcDbEntity
  8
0
100
AcDbSpline
 70
0
 71
4
 72
10
 73
5
 74
0
 40
0.0
 40
0.0
 40
0.0
 40
0.0
 40
0.0
 40
1.0
 40
1.0
 40
1.0
 40
1.0
 40
1.0
 10
1287.099999399974
 20
26.679324712703277
 30
26.0
 10
1288.050004120015
 20
26.68546274246563
 30
26.0
 10
1289.0000059201016
 20
26.69174186771826
 30
26.0
 10
1289.9500047603956
 20
26.698163629424673
 30
26.0
 10
1290.9000006000167
 20
26.704729568393443
 30
26.0
  0
LINE
  5
A0
330
17
100
AcDbEntity
  8
0
100
AcDbLine
 10
1287.1
 20
26.679324716596085
 30
26.0
 11
1287.1
 21
3.6129469705236974
 31
26.0
  0
SPLINE
  5
A1
330
17
100
AcDbEntity
  8
0
100
AcDbSpline
 70
0
 71
4
 72
10
 73
5
 74
0
 40
0.0
 40
0.0
 40
0.0
 40
0.0
 40
0.0
 40
1.0
 40
1.0
 40
1.0
 40
1.0
 40
1.0
 10
1287.1000000000213
 20
3.6129469698172225
 30
26.0
 10
1281.5501728043168
 20
3.446294091071398
 30
26.0
 10
1276.0001533200534
 20
3.2860448046119926
 30
26.0
 10
1270.4499568495532
 20
3.1320587392952715
 30
26.0
 10
1264.899597285374
 20
2.9841946683581044
 30
26.0
  0
LINE
  5
A2
330
17
100
AcDbEntity
  8
0
100
AcDbLine
 10
1264.9
 20
26.563556202997
 30
26.0
 11
1264.9
 21
2.9842053981335734
 31
26.0
  0
SPLINE
  5
A3
330
17
100
AcDbEntity
  8
0
100
AcDbSpline
 70
0
 71
4
 72
10
 73
5
 74
0
 40
0.0
 40
0.0
 40
0.0
 40
0.0
 40
0.0
 40
1.0
 40
1.0
 40
1.0
 40
1.0
 40
1.0
 10
1261.0999993999135
 20
26.54899753381526
 30
26.0
 10
1262.050003364055
 20
26.552455662365766
 30
26.0
 10
1263.00000490781
 20
26.556033790202186
 30
26.0
 10
1263.950003997884
 20
26.55973345761702
 30
26.0
 10
1264.9000006000788
 20
26.56355620479205
 30
26.0
  0
LINE
  5
A4
330
17
100
AcDbEntity
  8
0
100
AcDbLine
 10
1261.1
 20
26.548997536699787
 30
26.0
 11
1261.1
 21
2.88404550485509
 31
26.0
  0
SPLINE
  5
A5
330
17
100
AcDbEntity
  8
0
100
AcDbSpline
 70
0
 71
4
 72
10
 73
5
 74
0
 40
0.0
 40
0.0
 40
0.0
 40
0.0
 40
0.0
 40
1.0
 40
1.0
 40
1.0
 40
1.0
 40
1.0
 10
1261.0999999999988
 20
2.8840455048940052
 30
26.0
 10
1255.5501234337426
 20
2.739327068558877
 30
26.0
 10
1250.0000885228148
 20
2.600681133885412
 30
26.0
 10
1244.4499089042786
 20
2.4679669654062746
 30
26.0
 10
1238.899596873999
 20
2.341043045064234
 30
26.0
  0
LINE
  5
A6
330
17
100
AcDbEntity
  8
0
100
AcDbLine
 10
1238.9
 20
26.491532680830716
 30
26.0
 11
1238.9
 21
2.3410522655592976
 31
26.0
  0
SPLINE
  5
A7
330
17
100
AcDbEntity
  8
0
100
AcDbSpline
 70
0
 71
4
 72
10
 73
5
 74
0
 40
0.0
 40
0.0
 40
0.0
 40
0.0
 40
0.0
 40
1.0
 40
1.0
 40
1.0
 40
1.0
 40
1.0
 10
1235.0999993998598
 20
26.486087920298267
 30
26.0
 10
1236.0500027325804
 20
26.487299195816934
 30
26.0
 10
1237.000004062205
 20
26.48860938817773
 30
26.0
 10
1237.950003360909
 20
26.490020036990245
 30
26.0
 10
1238.9000006001347
 20
26.49153268178629
 30
26.0
  0
LINE
  5
A8
330
17
100
AcDbEntity
  8
0
100
AcDbLine
 10
1235.1
 20
26.486087921063458
 30
26.0
 11
1235.1
 21
2.255169583888909
 31
26.0
  0
SPLINE
  5
A9
330
17
100
AcDbEntity
  8
0
100
AcDbSpline
 70
0
 71
4
 72
10
 73
5
 74
0
 40
0.0
 40
0.0
 40
0.0
 40
0.0
 40
0.0
 40
1.0
 40
1.0
 40
1.0
 40
1.0
 40
1.0
 10
1235.1000000000415
 20
2.2551695820341817
 30
26.0
 10
1229.5500797378481
 20
2.1312164647532987
 30
26.0
 10
1224.0000312580594
 20
2.013004287731729
 30
26.0
 10
1218.449866617053
 20
1.9003919963420777
 30
26.0
 10
1212.899596599968
 20
1.7932378221147922
 30
26.0
  0
LINE
  5
AA
330
17
100
AcDbEntity
  8
0
100
AcDbLine
 10
1212.9
 20
26.476810647559233
 30
26.0
 11
1212.9
 21
1.793245611792264
 31
26.0
  0
SPLINE
  5
AB
330
17
100
AcDbEntity
  8
0
100
AcDbSpline
 70
0
 71
4
 72
10
 73
5
 74
0
 40
0.0
 40
0.0
 40
0.0
 40
0.0
 40
0.0
 40
1.0
 40
1.0
 40
1.0
 40
1.0
 40
1.0
 10
1209.099999399813
 20
26.478748870297007
 30
26.0
 10
1210.0500022038623
 20
26.4781460052723
 30
26.0
 10
1211.0000033543045
 20
26.477620987140106
 30
26.0
 10
1211.9500028277391
 20
26.477175354856122
 30
26.0
 10
1212.9000006001813
 20
26.47681064732882
 30
26.0
  0
LINE
  5
AC
330
17
100
AcDbEntity
  8
0
100
AcDbLine
 10
1209.1
 20
26.47874886991613
 30
26.0
 11
1209.1
 21
1.7208391243589674
 31
26.0
  0
SPLINE
  5
AD
330
17
100
AcDbEntity
  8
0
100
AcDbSpline
 70
0
 71
4
 72
10
 73
5
 74
0
 40
0.0
 40
0.0
 40
0.0
 40
0.0
 40
0.0
 40
1.0
 40
1.0
 40
1.0
 40
1.0
 40
1.0
 10
1209.1000000000304
 20
1.720839122754818
 30
26.0
 10
1203.5500414057476
 20
1.6164818330276118
 30
26.0
 10
1197.9999811072935
 20
1.5175335010098905
 30
26.0
 10
1192.449829665924
 20
1.4238527939461187
 30
26.0
 10
1186.899596442837
 20
1.3352977300009403
 30
26.0
  0
LINE
  5
AE
330
17
100
AcDbEntity
  8
0
100
AcDbLine
 10
1186.9
 20
26.507550414983736
 30
26.0
 11
1186.9
 21
1.3353041700918489
 31
26.0
  0
SPLINE
  5
AF
330
17
100
AcDbEntity
  8
0
100
AcDbSpline
 70
0
 71
4
 72
10
 73
5
 74
0
 40
0.0
 40
0.0
 40
0.0
 40
0.0
 40
0.0
 40
1.0
 40
1.0
 40
1.0
 40
1.0
 40
1.0
 10
1183.099999399768
 20
26.51514185010758
 30
26.0
 10
1184.050001756214
 20
26.51315727087533
 30
26.0
 10
1185.000002755197
 20
26.511229479510412
 30
26.0
 10
1185.9500023766889
 20
26.509360014383795
 30
26.0
 10
1186.9000006002218
 20
26.507550413840406
 30
26.0
  0
LINE
  5
B0
330
17
100
AcDbEntity
  8
0
100
AcDbLine
 10
1183.1
 20
26.51514184885368
 30
26.0
 11
1183.1
 21
1.2755726378931105
 31
26.0
  0
SPLINE
  5
B1
330
17
100
AcDbEntity
  8
0
100
AcDbSpline
 70
0
 71
4
 72
10
 73
5
 74
0
 40
0.0
 40
0.0
 40
0.0
 40
0.0
 40
0.0
 40
1.0
 40
1.0
 40
1.0
 40
1.0
 40
1.0
 10
1183.1000000000195
 20
1.2755726366281828
 30
26.0
 10
1177.5500081248656
 20
1.189641267713175
 30
26.0
 10
1171.9999376497847
 20
1.1087864990227565
 30
26.0
 10
1166.449797727338
 20
1.032866756897208
 30
26.0
 10
1160.899596382277
 20
0.96173987973294
 30
26.0
  0
LINE
  5
B2
330
17
100
AcDbEntity
  8
0
100
AcDbLine
 10
1160.9
 20
26.571919619249798
 30
26.0
 11
1160.9
 21
0.9617450525991716
 31
26.0
  0
SPLINE
  5
B3
330
17
100
AcDbEntity
  8
0
100
AcDbSpline
 70
0
 71
4
 72
10
 73
5
 74
0
 40
0.0
 40
0.0
 40
0.0
 40
0.0
 40
0.0
 40
1.0
 40
1.0
 40
1.0
 40
1.0
 40
1.0
 10
1157.0999993997368
 20
26.583435452524885
 30
26.0
 10
1158.0500013680014
 20
26.580501348611108
 30
26.0
 10
1159.0000022360348
 20
26.577602982661507
 30
26.0
 10
1159.9500019861168
 20
26.574741892555657
 30
26.0
 10
1160.9000006002561
 20
26.571919616166603
 30
26.0
  0
LINE
  5
B4
330
17
100
AcDbEntity
  8
0
100
AcDbLine
 10
1157.1
 20
26.583435452398643
 30
26.0
 11
1157.1
 21
0.9138869833045966
 31
26.0
  0
SPLINE
  5
B5
330
17
100
AcDbEntity
  8
0
100
AcDbSpline
 70
0
 71
4
 72
10
 73
5
 74
0
 40
0.0
 40
0.0
 40
0.0
 40
0.0
 40
0.0
 40
1.0
 40
1.0
 40
1.0
 40
1.0
 40
1.0
 10
1157.1000000000051
 20
0.9138869828741687
 30
26.0
 10
1151.5499795809437
 20
0.8452111800869611
 30
26.0
 10
1145.9999004626832
 20
0.7812792881940654
 30
26.0
 10
1140.44977047623
 20
0.7219495271119469
 30
26.0
 10
1134.8995963980458
 20
0.667079585384252
 30
26.0
  0
LINE
  5
B6
330
17
100
AcDbEntity
  8
0
100
AcDbLine
 10
1134.9
 20
26.658091881500578
 30
26.0
 11
1134.9
 21
0.6670835747285334
 31
26.0
  0
SPLINE
  5
B7
330
17
100
AcDbEntity
  8
0
100
AcDbSpline
 70
0
 71
5
 72
12
 73
6
 74
0
 40
0.0
 40
0.0
 40
0.0
 40
0.0
 40
0.0
 40
0.0
 40
1.0
 40
1.0
 40
1.0
 40
1.0
 40
1.0
 40
1.0
 10
1131.0999993997127
 20
26.671804057619397
 30
26.0
 10
1131.932792815952
 20
26.66877828171489
 30
26.0
 10
1132.6632709675516
 20
26.6661348396731
 30
26.0
 10
1133.461106763763
 20
26.663252810710517
 30
26.0
 10
1134.2888775277052
 20
26.66028093563606
 30
26.0
 10
1134.9000006002864
 20
26.658091872026
 30
26.0
  0
LINE
  5
B8
330
17
100
AcDbEntity
  8
0
100
AcDbLine
 10
1131.1
 20
26.671804062962153
 30
26.0
 11
1131.1
 21
0.6302972028116277
 31
26.0
  0
SPLINE
  5
B9
330
17
100
AcDbEntity
  8
0
100
AcDbSpline
 70
0
 71
4
 72
10
 73
5
 74
0
 40
0.0
 40
0.0
 40
0.0
 40
0.0
 40
0.0
 40
1.0
 40
1.0
 40
1.0
 40
1.0
 40
1.0
 10
1131.0999999999917
 20
0.6302972036261205
 30
26.0
 10
1125.5499554582022
 20
0.5777061466582967
 30
26.0
 10
1119.9998691211472
 20
0.5295260211526368
 30
26.0
 10
1114.4497475861583
 20
0.48561487008721627
 30
26.0
 10
1108.8995964699593
 20
0.445830261561998
 30
26.0
  0
LINE
  5
BA
330
17
100
AcDbEntity
  8
0
100
AcDbLine
 10
1108.9
 20
26.75424545527991
 30
26.0
 11
1108.9
 21
0.44583315332958623
 31
26.0
  0
SPLINE
  5
BB
330
17
100
AcDbEntity
  8
0
100
AcDbSpline
 70
0
 71
4
 72
10
 73
5
 74
0
 40
0.0
 40
0.0
 40
0.0
 40
0.0
 40
0.0
 40
1.0
 40
1.0
 40
1.0
 40
1.0
 40
1.0
 10
1105.0999993996932
 20
26.768426495517843
 30
26.0
 10
1106.0500006834488
 20
26.764889209229572
 30
26.0
 10
1107.0000013222934
 20
26.761345580465584
 30
26.0
 10
1107.9500012999833
 20
26.757797146473358
 30
26.0
 10
1108.9000006003093
 20
26.754245444524535
 30
26.0
  0
LINE
  5
BC
330
17
100
AcDbEntity
  8
0
100
AcDbLine
 10
1105.1
 20
26.768426501376194
 30
26.0
 11
1105.1
 21
0.4193164319798327
 31
26.0
  0
SPLINE
  5
BD
330
17
100
AcDbEntity
  8
0
100
AcDbSpline
 70
0
 71
4
 72
10
 73
5
 74
0
 40
0.0
 40
0.0
 40
0.0
 40
0.0
 40
0.0
 40
1.0
 40
1.0
 40
1.0
 40
1.0
 40
1.0
 10
1105.1004035160338
 20
0.41931917215660075
 30
26.0
 10
1099.5502367421195
 20
0.3816406571820766
 30
26.0
 10
1094.00004228653
 20
0.34803999814377495
 30
26.0
 10
1088.4498256015938
 20
0.31837508303780937
 30
26.0
 10
1082.8995912337036
 20
0.29250337623377165
 30
26.0
  0
LINE
  5
BE
330
17
100
AcDbEntity
  8
0
100
AcDbLine
 10
1082.9
 20
26.848561913623413
 30
26.0
 11
1082.9
 21
0.2925052799071627
 31
26.0
  0
SPLINE
  5
BF
330
17
100
AcDbEntity
  8
0
100
AcDbSpline
 70
0
 71
4
 72
10
 73
5
 74
0
 40
0.0
 40
0.0
 40
0.0
 40
0.0
 40
0.0
 40
1.0
 40
1.0
 40
1.0
 40
1.0
 40
1.0
 10
1079.0999993996784
 20
26.861484710763943
 30
26.0
 10
1080.0500003439515
 20
26.858293538336333
 30
26.0
 10
1081.0000008701718
 20
26.855074988699958
 30
26.0
 10
1081.9500009612589
 20
26.851830598972708
 30
26.0
 10
1082.9000006003187
 20
26.848561906311737
 30
26.0
  0
LINE
  5
C0
330
17
100
AcDbEntity
  8
0
100
AcDbLine
 10
1079.1
 20
26.86148470900231
 30
26.0
 11
1079.1
 21
0.2754558844181765
 31
26.0
  0
SPLINE
  5
C1
330
17
100
AcDbEntity
  8
0
100
AcDbSpline
 70
0
 71
4
 72
10
 73
5
 74
0
 40
0.0
 40
0.0
 40
0.0
 40
0.0
 40
0.0
 40
1.0
 40
1.0
 40
1.0
 40
1.0
 40
1.0
 10
1079.0999999999924
 20
0.27545588617318784
 30
26.0
 10
1073.5499178316431
 20
0.2515200006737891
 30
26.0
 10
1067.9998195170965
 20
0.23132837517809107
 30
26.0
 10
1062.4497094519152
 20
0.2147387830886793
 30
26.0
 10
1056.8995912011064
 20
0.2016086267851993
 30
26.0
  0
LINE
  5
C2
330
17
100
AcDbEntity
  8
0
100
AcDbLine
 10
1056.9
 20
26.92922480684573
 30
26.0
 11
1056.9
 21
0.2016095916587218
 31
26.0
  0
SPLINE
  5
C3
330
17
100
AcDbEntity
  8
0
100
AcDbSpline
 70
0
 71
4
 72
10
 73
5
 74
0
 40
0.0
 40
0.0
 40
0.0
 40
0.0
 40
0.0
 40
1.0
 40
1.0
 40
1.0
 40
1.0
 40
1.0
 10
1053.099999399673
 20
26.93916242783633
 30
26.0
 10
1054.049999977562
 20
26.936749101621647
 30
26.0
 10
1055.0000003828898
 20
26.93428736432377
 30
26.0
 10
1055.9500005966859
 20
26.931778753047197
 30
26.0
 10
1056.9000006003257
 20
26.929224804955776
 30
26.0
  0
LINE
  5
C4
330
17
100
AcDbEntity
  8
0
100
AcDbLine
 10
1053.1
 20
26.939162426741756
 30
26.0
 11
1053.1
 21
0.19322493687045997
 31
26.0
  0
SPLINE
  5
C5
330
17
100
AcDbEntity
  8
0
100
AcDbSpline
 70
0
 71
4
 72
10
 73
5
 74
0
 40
0.0
 40
0.0
 40
0.0
 40
0.0
 40
0.0
 40
1.0
 40
1.0
 40
1.0
 40
1.0
 40
1.0
 10
1053.099999999995
 20
0.19322493912729835
 30
26.0
 10
1047.5499064403762
 20
0.18185862263014638
 30
26.0
 10
1041.9998058975868
 20
0.17390294867154335
 30
26.0
 10
1036.4497018000257
 20
0.16921559408664794
 30
26.0
 10
1030.8995968214044
 20
0.16765391441411115
 30
26.0
  0
LINE
  5
C6
330
17
100
AcDbEntity
  8
0
100
AcDbLine
 10
1030.9
 20
26.98441833014381
 30
26.0
 11
1030.9
 21
0.16765402613985314
 31
26.0
  0
SPLINE
  5
C7
330
17
100
AcDbEntity
  8
0
100
AcDbSpline
 70
0
 71
4
 72
10
 73
5
 74
0
 40
0.0
 40
0.0
 40
0.0
 40
0.0
 40
0.0
 40
1.0
 40
1.0
 40
1.0
 40
1.0
 40
1.0
 10
1027.0999993996743
 20
26.989643817401536
 30
26.0
 10
1028.0499995627165
 20
26.988440077272195
 30
26.0
 10
1028.9999998316919
 20
26.987166891037383
 30
26.0
 10
1029.9500001846998
 20
26.98582579589449
 30
26.0
 10
1030.9000006003262
 20
26.98441832911547
 30
26.0
  0
LINE
  5
C8
330
17
100
AcDbEntity
  8
0
100
AcDbLine
 10
1027.1
 20
26.98964381665867
 30
26.0
 11
1027.1
 21
0.16713129782326058
 31
26.0
  0
SPLINE
  5
C9
330
17
100
AcDbEntity
  8
0
100
AcDbSpline
 70
0
 71
4
 72
13
 73
8
 74
0
 40
0.0
 40
0.0
 40
0.0
 40
0.0
 40
0.0
 40
0.5010037600136071
 40
0.5010037600136071
 40
0.5010037600136071
 40
1.0
 40
1.0
 40
1.0
 40
1.0
 40
1.0
 10
1027.1000000000001
 20
0.16713129955562958
 30
26.0
 10
1024.3194279078548
 20
0.1671466943658827
 30
26.0
 10
1021.5388558200692
 20
0.16793436907821008
 30
26.0
 10
1018.7582840579905
 20
0.1694764404999218
 30
26.0
 10
1013.2082834780631
 20
0.17402435361517152
 30
26.0
 10
1010.4388546554567
 20
0.17702440206704673
 30
26.0
 10
1007.6694267261189
 20
0.18076164438910178
 30
26.0
 10
1004.9000000000034
 20
0.18524255622108812
 30
26.0
  0
LINE
  5
CA
330
17
100
AcDbEntity
  8
0
100
AcDbLine
 10
1004.9
 20
27.0025846510589
 30
26.0
 11
1004.9
 21
0.18524255445776658
 31
26.0
  0
SPLINE
  5
CB
330
17
100
AcDbEntity
  8
0
100
AcDbSpline
 70
0
 71
4
 72
10
 73
5
 74
0
 40
0.0
 40
0.0
 40
0.0
 40
0.0
 40
0.0
 40
1.0
 40
1.0
 40
1.0
 40
1.0
 40
1.0
 10
1001.099999399677
 20
27.001737831819543
 30
26.0
 10
1002.0499991694155
 20
27.0020557980771
 30
26.0
 10
1002.9999993030123
 20
27.002303627900776
 30
26.0
 10
1003.9499997851916
 20
27.002480263949344
 30
26.0
 10
1004.9000006003203
 20
27.002584648982964
 30
26.0
  0
LINE
  5
CC
330
17
100
AcDbEntity
  8
0
100
AcDbLine
 10
1001.1
 20
27.001737835068454
 30
26.0
 11
1001.1
 21
0.1919170501304562
 31
26.0
  0
SPLINE
  5
CD
330
17
100
AcDbEntity
  8
0
100
AcDbSpline
 70
0
 71
4
 72
10
 73
5
 74
0
 40
0.0
 40
0.0
 40
0.0
 40
0.0
 40
0.0
 40
1.0
 40
1.0
 40
1.0
 40
1.0
 40
1.0
 10
1001.1000000000035
 20
0.1919170518980093
 30
26.0
 10
995.5499888547048
 20
0.20243530400627233
 30
25.999999999999996
 10
989.9999834038837
 20
0.21595820671490565
 30
25.999999999999993
 10
984.4499861863277
 20
0.23253830864119882
 30
25.99999999999999
 10
978.900000000006
 20
0.25222790118102245
 30
25.999999999999986
  0
LINE
  5
CE
330
17
100
AcDbEntity
  8
0
100
AcDbLine
 10
978.9
 20
26.980787961716906
 30
26.0
 11
978.9
 21
0.2522278993899235
 31
26.0
  0
SPLINE
  5
CF
330
17
100
AcDbEntity
  8
0
100
AcDbSpline
 70
0
 71
4
 72
10
 73
5
 74
0
 40
0.0
 40
0.0
 40
0.0
 40
0.0
 40
0.0
 40
1.0
 40
1.0
 40
1.0
 40
1.0
 40
1.0
 10
975.0999993996879
 20
26.974689642568602
 30
26.0
 10
976.0499988765961
 20
26.97629878373448
 30
26.0
 10
976.9999989111274
 20
26.97785225565055
 30
26.0
 10
977.9499994901684
 20
26.979349000951895
 30
26.0
 10
978.9000006003095
 20
26.980787962354867
 30
26.0
  0
LINE
  5
D0
330
17
100
AcDbEntity
  8
0
100
AcDbLine
 10
975.1
 20
26.97468964358543
 30
26.0
 11
975.1
 21
0.26625681653704186
 31
26.0
  0
SPLINE
  5
D1
330
17
100
AcDbEntity
  8
0
100
AcDbSpline
 70
0
 71
4
 72
10
 73
5
 74
0
 40
0.0
 40
0.0
 40
0.0
 40
0.0
 40
0.0
 40
1.0
 40
1.0
 40
1.0
 40
1.0
 40
1.0
 10
975.100000000007
 20
0.26625681833151776
 30
26.0
 10
969.5499790916102
 20
0.2875479993644878
 30
26.0
 10
963.9999701810489
 20
0.3119666594753426
 30
26.0
 10
958.4499761127215
 20
0.33956534589250087
 30
26.0
 10
952.9000000000073
 20
0.37039632558696356
 30
26.0
  0
LINE
  5
D2
330
17
100
AcDbEntity
  8
0
100
AcDbLine
 10
952.9
 20
26.926529476481846
 30
26.0
 11
952.9
 21
0.3703963242444639
 31
26.0
  0
SPLINE
  5
D3
330
17
100
AcDbEntity
  8
0
100
AcDbSpline
 70
0
 71
4
 72
10
 73
5
 74
0
 40
0.0
 40
0.0
 40
0.0
 40
0.0
 40
0.0
 40
1.0
 40
1.0
 40
1.0
 40
1.0
 40
1.0
 10
949.0999993997075
 20
26.916367424249653
 30
26.0
 10
950.0499986234003
 20
26.91897079693658
 30
26.0
 10
950.9999985724071
 20
26.92153296814846
 30
26.0
 10
951.9499992352653
 20
26.92405288046331
 30
26.0
 10
952.9000006002993
 20
26.926529476523037
 30
26.0
  0
LINE
  5
D4
330
17
100
AcDbEntity
  8
0
100
AcDbLine
 10
949.1
 20
26.916367428349822
 30
26.0
 11
949.1
 21
0.3920752379649717
 31
26.0
  0
SPLINE
  5
D5
330
17
100
AcDbEntity
  8
0
100
AcDbSpline
 70
0
 71
4
 72
10
 73
5
 74
0
 40
0.0
 40
0.0
 40
0.0
 40
0.0
 40
0.0
 40
1.0
 40
1.0
 40
1.0
 40
1.0
 40
1.0
 10
949.1000000000079
 20
0.3920752393067481
 30
26.0
 10
943.549867502036
 20
0.42457168788722377
 30
26.0
 10
937.9997540355967
 20
0.46031855985885195
 30
26.0
 10
932.4496627630534
 20
0.4993683896320932
 30
26.0
 10
926.8995971253959
 20
0.5417734099988507
 30
26.0
  0
LINE
  5
D6
330
17
100
AcDbEntity
  8
0
100
AcDbLine
 10
926.9
 20
26.847936191992233
 30
26.0
 11
926.9
 21
0.5417703305303093
 31
26.0
  0
SPLINE
  5
D7
330
17
100
AcDbEntity
  8
0
100
AcDbSpline
 70
0
 71
4
 72
10
 73
5
 74
0
 40
0.0
 40
0.0
 40
0.0
 40
0.0
 40
0.0
 40
1.0
 40
1.0
 40
1.0
 40
1.0
 40
1.0
 10
923.0999993997272
 20
26.83489823936029
 30
26.0
 10
924.0499983996295
 20
26.83819888230766
 30
26.0
 10
924.9999982732465
 20
26.841472792924776
 30
26.0
 10
925.9499990102772
 20
26.844718913689306
 30
26.0
 10
926.9000006002794
 20
26.847936187128862
 30
26.0
  0
LINE
  5
D8
330
17
100
AcDbEntity
  8
0
100
AcDbLine
 10
923.1
 20
26.834898248352633
 30
26.0
 11
923.1
 21
0.5713948568452022
 31
26.0
  0
SPLINE
  5
D9
330
17
100
AcDbEntity
  8
0
100
AcDbSpline
 70
0
 71
4
 72
10
 73
5
 74
0
 40
0.0
 40
0.0
 40
0.0
 40
0.0
 40
0.0
 40
0.9999751506183672
 40
0.9999751506183672
 40
0.9999751506183672
 40
0.9999751506183672
 40
0.9999751506183672
 10
923.1004028613877
 20
0.5713916547413171
 30
26.0
 10
917.5502583475409
 20
0.6155246217823025
 30
26.0
 10
912.0001406565235
 20
0.6630308132252912
 30
26.0
 10
906.4500532805715
 20
0.7139627355780861
 30
26.0
 10
900.9000000000129
 20
0.768372574060098
 30
26.0
  0
LINE
  5
DA
330
17
100
AcDbEntity
  8
0
100
AcDbLine
 10
900.9
 20
26.75313578617915
 30
26.0
 11
900.9
 21
0.768372572759785
 31
26.0
  0
SPLINE
  5
DB
330
17
100
AcDbEntity
  8
0
100
AcDbSpline
 70
0
 71
5
 72
12
 73
6
 74
0
 40
0.0
 40
0.0
 40
0.0
 40
0.0
 40
0.0
 40
0.0
 40
1.0
 40
1.0
 40
1.0
 40
1.0
 40
1.0
 40
1.0
 10
897.0999993997474
 20
26.73840992675459
 30
26.0
 10
897.9088202467193
 20
26.741560852971457
 30
26.0
 10
898.659472618627
 20
26.74447682789365
 30
26.0
 10
899.4395002622095
 20
26.747500845565796
 30
26.0
 10
900.2289152679145
 20
26.750549668621833
 30
26.0
 10
900.9000006002533
 20
26.75313578482977
 30
26.0
  0
LINE
  5
DC
330
17
100
AcDbEntity
  8
0
100
AcDbLine
 10
897.1
 20
26.738409931529674
 30
26.0
 11
897.1
 21
0.8062383273489326
 31
26.0
  0
SPLINE
  5
DD
330
17
100
AcDbEntity
  8
0
100
AcDbSpline
 70
0
 71
4
 72
10
 73
5
 74
0
 40
0.0
 40
0.0
 40
0.0
 40
0.0
 40
0.0
 40
1.0
 40
1.0
 40
1.0
 40
1.0
 40
1.0
 10
897.1000000000132
 20
0.806238328642999
 30
26.0
 10
891.5498423383993
 20
0.8624400081288873
 30
26.0
 10
885.9997200775914
 20
0.9221376685039488
 30
26.0
 10
880.4496370517348
 20
0.9853837778566961
 30
26.0
 10
874.8995973922641
 20
1.052230465506415
 30
26.0
  0
LINE
  5
DE
330
17
100
AcDbEntity
  8
0
100
AcDbLine
 10
874.9
 20
26.650257209986755
 30
26.0
 11
874.9
 21
1.0522256151133598
 31
26.0
  0
SPLINE
  5
DF
330
17
100
AcDbEntity
  8
0
100
AcDbSpline
 70
0
 71
1
 72
4
 73
2
 74
0
 40
0.0
 40
0.0
 40
1.0
 40
1.0
 10
871.099999399778
 20
26.63503165835063
 30
26.0
 10
874.9000006002261
 20
26.650257211961755
 30
26.0
  0
LINE
  5
E0
330
17
100
AcDbEntity
  8
0
100
AcDbLine
 10
871.1
 20
26.635031660955207
 30
26.0
 11
871.1
 21
1.0986281859913969
 31
26.0
  0
SPLINE
  5
E1
330
17
100
AcDbEntity
  8
0
100
AcDbSpline
 70
0
 71
4
 72
10
 73
5
 74
0
 40
0.0
 40
0.0
 40
0.0
 40
0.0
 40
0.0
 40
1.0
 40
1.0
 40
1.0
 40
1.0
 40
1.0
 10
871.1000000000151
 20
1.0986281872284542
 30
26.0
 10
865.5499285483279
 20
1.1673289462089977
 30
26.000000000000004
 10
859.99990188827
 20
1.2396482455915727
 30
26.000000000000007
 10
854.4499242074473
 20
1.315638504515173
 30
26.00000000000001
 10
848.900000000017
 20
1.3953517863312213
 30
26.000000000000014
  0
LINE
  5
E2
330
17
100
AcDbEntity
  8
0
100
AcDbLine
 10
848.9
 20
26.547431217331905
 30
26.0
 11
848.9
 21
1.3953517851651425
 31
26.0
  0
SPLINE
  5
E3
330
17
100
AcDbEntity
  8
0
100
AcDbSpline
 70
0
 71
5
 72
12
 73
6
 74
0
 40
0.0
 40
0.0
 40
0.0
 40
0.0
 40
0.0
 40
0.0
 40
1.0
 40
1.0
 40
1.0
 40
1.0
 40
1.0
 40
1.0
 10
845.09999939981
 20
26.532894496206733
 30
26.0
 10
845.9087537775049
 20
26.535967939243854
 30
26.0
 10
846.5484088661681
 20
26.538409827892806
 30
26.0
 10
847.3888988166075
 20
26.541617934665375
 30
26.0
 10
848.3533963673971
 20
26.545327026865884
 30
26.0
 10
848.9000006001978
 20
26.547431219555083
 30
26.0
  0
LINE
  5
E4
330
17
100
AcDbEntity
  8
0
100
AcDbLine
 10
845.1
 20
26.53289449874356
 30
26.0
 11
845.1
 21
1.4505867190821204
 31
26.0
  0
SPLINE
  5
E5
330
17
100
AcDbEntity
  8
0
100
AcDbSpline
 70
0
 71
4
 72
10
 73
5
 74
0
 40
0.0
 40
0.0
 40
0.0
 40
0.0
 40
0.0
 40
1.0
 40
1.0
 40
1.0
 40
1.0
 40
1.0
 10
845.1000000000171
 20
1.45058672023374
 30
26.0
 10
839.5498123119376
 20
1.5322207960416818
 30
26.0
 10
833.9996796521307
 20
1.6175961601092517
 30
26.0
 10
828.4496065739809
 20
1.706765181860615
 30
26.0
 10
822.8995979465564
 20
1.7997798596306263
 30
26.0
  0
LINE
  5
E6
330
17
100
AcDbEntity
  8
0
100
AcDbLine
 10
822.9
 20
26.452790923910676
 30
26.0
 11
822.9
 21
1.7997731204217038
 31
26.0
  0
SPLINE
  5
E7
330
17
100
AcDbEntity
  8
0
100
AcDbSpline
 70
0
 71
4
 72
10
 73
5
 74
0
 40
0.0
 40
0.0
 40
0.0
 40
0.0
 40
0.0
 40
1.0
 40
1.0
 40
1.0
 40
1.0
 40
1.0
 10
819.0999993998457
 20
26.44013195007374
 30
26.0
 10
820.0499975948718
 20
26.44325098943658
 30
26.0
 10
820.9999972003228
 20
26.446401203969803
 30
26.0
 10
821.9499982055771
 20
26.449581535240977
 30
26.0
 10
822.9000006001602
 20
26.452790924810266
 30
26.0
  0
LINE
  5
E8
330
17
100
AcDbEntity
  8
0
100
AcDbLine
 10
819.1
 20
26.44013195321662
 30
26.0
 11
819.1
 21
1.8641359227864078
 31
26.0
  0
SPLINE
  5
E9
330
17
100
AcDbEntity
  8
0
100
AcDbSpline
 70
0
 71
4
 72
10
 73
5
 74
0
 40
0.0
 40
0.0
 40
0.0
 40
0.0
 40
0.0
 40
1.0
 40
1.0
 40
1.0
 40
1.0
 40
1.0
 10
819.1000000000176
 20
1.864135923818735
 30
26.0
 10
813.5497953826476
 20
1.9591337715179518
 30
26.0
 10
807.999656899107
 20
2.057995444860616
 30
26.0
 10
802.4495894801712
 20
2.160773255886098
 30
26.0
 10
796.8995983811843
 20
2.2675191325067217
 30
26.0
  0
LINE
  5
EA
330
17
100
AcDbEntity
  8
0
100
AcDbLine
 10
796.9
 20
26.37447236920623
 30
26.0
 11
796.9
 21
2.2675114070710394
 31
26.0
  0
SPLINE
  5
EB
330
17
100
AcDbEntity
  8
0
100
AcDbSpline
 70
0
 71
4
 72
10
 73
5
 74
0
 40
0.0
 40
0.0
 40
0.0
 40
0.0
 40
0.0
 40
1.0
 40
1.0
 40
1.0
 40
1.0
 40
1.0
 10
793.0999993998789
 20
26.36488053553023
 30
26.0
 10
794.0499973652207
 20
26.367211056427372
 30
26.0
 10
794.9999968949696
 20
26.369587241522837
 30
26.0
 10
795.9499979771764
 20
26.372008032030273
 30
26.0
 10
796.9000006001204
 20
26.37447236914146
 30
26.0
  0
LINE
  5
EC
330
17
100
AcDbEntity
  8
0
100
AcDbLine
 10
793.1
 20
26.36488053758456
 30
26.0
 11
793.1
 21
2.341297555323739
 31
26.0
  0
SPLINE
  5
ED
330
17
100
AcDbEntity
  8
0
100
AcDbSpline
 70
0
 71
4
 72
10
 73
5
 74
0
 40
0.0
 40
0.0
 40
0.0
 40
0.0
 40
0.0
 40
1.0
 40
1.0
 40
1.0
 40
1.0
 40
1.0
 10
793.1004015447456
 20
2.341289685281871
 30
26.0
 10
787.5500782809999
 20
2.4500847319118257
 30
26.0
 10
781.9998331578192
 20
2.5628662039867223
 30
26.0
 10
776.4496714954171
 20
2.6796863565822067
 30
26.0
 10
770.8995989474633
 20
2.8005970488519214
 30
26.0
  0
LINE
  5
EE
330
17
100
AcDbEntity
  8
0
100
AcDbLine
 10
770.9
 20
26.320615075996425
 30
26.0
 11
770.9
 21
2.8005883110583705
 31
26.0
  0
SPLINE
  5
EF
330
17
100
AcDbEntity
  8
0
100
AcDbSpline
 70
0
 71
4
 72
10
 73
5
 74
0
 40
0.0
 40
0.0
 40
0.0
 40
0.0
 40
0.0
 40
1.0
 40
1.0
 40
1.0
 40
1.0
 40
1.0
 10
767.09999939993
 20
26.315280332808324
 30
26.0
 10
768.0499971037498
 20
26.316524838343177
 30
26.0
 10
768.9999965475109
 20
26.317829503661287
 30
26.0
 10
769.9499977174497
 20
26.319193269585167
 30
26.0
 10
770.9000006000841
 20
26.320615076894534
 30
26.0
  0
LINE
  5
F0
330
17
100
AcDbEntity
  8
0
100
AcDbLine
 10
767.1
 20
26.315280333594423
 30
26.0
 11
767.1
 21
2.884093281651831
 31
26.0
  0
SPLINE
  5
F1
330
17
100
AcDbEntity
  8
0
100
AcDbSpline
 70
0
 71
4
 72
10
 73
5
 74
0
 40
0.0
 40
0.0
 40
0.0
 40
0.0
 40
0.0
 40
1.0
 40
1.0
 40
1.0
 40
1.0
 40
1.0
 10
767.1000000000149
 20
2.8840932823203884
 30
26.0
 10
761.549757506951
 20
3.007113717818834
 30
26.0
 10
755.9996060825471
 20
3.1342428187547746
 30
26.0
 10
750.4495514476986
 20
3.2655327769090365
 30
26.0
 10
744.8995996655465
 20
3.401035378163483
 30
26.0
  0
LINE
  5
F2
330
17
100
AcDbEntity
  8
0
100
AcDbLine
 10
744.9
 20
26.29936261959105
 30
26.0
 11
744.9
 21
3.4010256035145905
 31
26.0
  0
SPLINE
  5
F3
330
17
100
AcDbEntity
  8
0
100
AcDbSpline
 70
0
 71
4
 72
10
 73
5
 74
0
 40
0.0
 40
0.0
 40
0.0
 40
0.0
 40
0.0
 40
1.0
 40
1.0
 40
1.0
 40
1.0
 40
1.0
 10
741.099999399971
 20
26.299475546417526
 30
26.0
 10
742.0499968001851
 20
26.299336379120952
 30
26.0
 10
742.9999961442642
 20
26.299271874504537
 30
26.0
 10
743.949997416121
 20
26.299280972966933
 30
26.0
 10
744.9000006000294
 20
26.29936261484759
 30
26.0
  0
LINE
  5
F4
330
17
100
AcDbEntity
  8
0
100
AcDbLine
 10
741.1
 20
26.299475550204555
 30
26.0
 11
741.1
 21
3.494544913006628
 31
26.0
  0
SPLINE
  5
F5
330
17
100
AcDbEntity
  8
0
100
AcDbSpline
 70
0
 71
4
 72
10
 73
5
 74
0
 40
0.0
 40
0.0
 40
0.0
 40
0.0
 40
0.0
 40
1.0
 40
1.0
 40
1.0
 40
1.0
 40
1.0
 10
741.1000000000101
 20
3.4945449134194897
 30
26.0
 10
735.5497364860051
 20
3.6322242617914835
 30
26.0
 10
729.9995779262983
 20
3.7741345926929006
 30
26.0
 10
724.449530454625
 20
3.9203280389331643
 30
26.0
 10
718.8996005557616
 20
4.070856319383457
 30
26.0
  0
LINE
  5
F6
330
17
100
AcDbEntity
  8
0
100
AcDbLine
 10
718.9
 20
26.318863154245964
 30
26.0
 11
718.9
 21
4.070845485442021
 31
26.0
  0
SPLINE
  5
F7
330
17
100
AcDbEntity
  8
0
100
AcDbSpline
 70
0
 71
4
 72
10
 73
5
 74
0
 40
0.0
 40
0.0
 40
0.0
 40
0.0
 40
0.0
 40
1.0
 40
1.0
 40
1.0
 40
1.0
 40
1.0
 10
715.0999994000301
 20
26.325615065675088
 30
26.0
 10
716.0499964442865
 20
26.323794387139316
 30
26.0
 10
716.9999956715639
 20
26.322062882155397
 30
26.0
 10
717.9499970629531
 20
26.3204194906835
 30
26.0
 10
718.90000059998
 20
26.31886315260211
 30
26.0
  0
LINE
  5
F8
330
17
100
AcDbEntity
  8
0
100
AcDbLine
 10
715.1
 20
26.32561506533374
 30
26.0
 11
715.1
 21
4.174674746528952
 31
26.0
  0
SPLINE
  5
F9
330
17
100
AcDbEntity
  8
0
100
AcDbSpline
 70
0
 71
4
 72
10
 73
5
 74
0
 40
0.0
 40
0.0
 40
0.0
 40
0.0
 40
0.0
 40
0.9999754948624823
 40
0.9999754948624823
 40
0.9999754948624823
 40
0.9999754948624823
 40
0.9999754948624823
 10
715.100399298485
 20
4.1746637560518565
 30
26.0
 10
709.5501130905175
 20
4.327433725833936
 30
26.0
 10
703.9999467057634
 20
4.484556944363346
 30
26.0
 10
698.4499067027796
 20
4.646085489352967
 30
26.0
 10
692.8999999999938
 20
4.812071018861932
 30
26.0
  0
LINE
  5
FA
330
17
100
AcDbEntity
  8
0
100
AcDbLine
 10
692.9
 20
26.38727003400075
 30
26.0
 11
692.9
 21
4.8120710190641525
 31
26.0
  0
SPLINE
  5
FB
330
17
100
AcDbEntity
  8
0
100
AcDbSpline
 70
0
 71
4
 72
10
 73
5
 74
0
 40
0.0
 40
0.0
 40
0.0
 40
0.0
 40
0.0
 40
1.0
 40
1.0
 40
1.0
 40
1.0
 40
1.0
 10
689.099999400087
 20
26.401853026250826
 30
26.0
 10
690.0499960257531
 20
26.39805279675671
 30
26.0
 10
690.999995115684
 20
26.39435626021722
 30
26.0
 10
691.9499966476496
 20
26.390762356150063
 30
26.0
 10
692.900000599925
 20
26.387270023972672
 30
26.0
  0
LINE
  5
FC
330
17
100
AcDbEntity
  8
0
100
AcDbLine
 10
689.1
 20
26.4018530306867
 30
26.0
 11
689.1
 21
4.926506013508677
 31
26.0
  0
SPLINE
  5
FD
330
17
100
AcDbEntity
  8
0
100
AcDbSpline
 70
0
 71
4
 72
13
 73
8
 74
0
 40
0.0
 40
0.0
 40
0.0
 40
0.0
 40
0.0
 40
0.5310052906745087
 40
0.5310052906745087
 40
0.5310052906745087
 40
1.0
 40
1.0
 40
1.0
 40
1.0
 40
1.0
 10
689.1003981856932
 20
4.926493940266104
 30
26.0
 10
686.1531015443926
 20
5.015860021878805
 30
26.0
 10
683.2058431684617
 20
5.106488077608864
 30
26.0
 10
680.2586241062273
 20
5.198385930275464
 30
26.0
 10
674.7084370846042
 20
5.373855688265229
 30
26.0
 10
672.1054602417139
 20
5.457146611103608
 30
26.0
 10
669.5025153765197
 20
5.541430832334481
 30
26.0
 10
666.8996029687764
 20
5.6267056896073795
 30
26.0
  0
LINE
  5
FE
330
17
100
AcDbEntity
  8
0
100
AcDbLine
 10
666.9
 20
26.512742519193857
 30
26.0
 11
666.9
 21
5.6266926824879
 31
26.0
  0
SPLINE
  5
FF
330
17
100
AcDbEntity
  8
0
100
AcDbSpline
 70
0
 71
4
 72
10
 73
5
 74
0
 40
0.0
 40
0.0
 40
0.0
 40
0.0
 40
0.0
 40
1.0
 40
1.0
 40
1.0
 40
1.0
 40
1.0
 10
663.0999994001472
 20
26.536349372835534
 30
26.0
 10
664.0499955342835
 20
26.530271330969384
 30
26.0
 10
664.9999944628869
 20
26.524311510411422
 30
26.0
 10
665.949996159907
 20
26.518468850261538
 30
26.0
 10
666.9000005998618
 20
26.512742289484372
 30
26.0
  0
LINE
  5
100
330
17
100
AcDbEntity
  8
0
100
AcDbLine
 10
663.1
 20
26.53634969753878
 30
26.0
 11
663.1
 21
5.751977712637013
 31
26.0
  0
SPLINE
  5
101
330
17
100
AcDbEntity
  8
0
100
AcDbSpline
 70
0
 71
4
 72
10
 73
5
 74
0
 40
0.0
 40
0.0
 40
0.0
 40
0.0
 40
0.0
 40
1.0
 40
1.0
 40
1.0
 40
1.0
 40
1.0
 10
663.100396793771
 20
5.751964547566996
 30
26.0
 10
657.5499702115334
 20
5.936116831715092
 30
26.0
 10
651.9996928328674
 20
6.124765533008477
 30
26.0
 10
646.4495693700082
 20
6.3178878575262996
 30
26.0
 10
640.8996048683296
 20
6.515474087459802
 30
26.0
  0
LINE
  5
102
330
17
100
AcDbEntity
  8
0
100
AcDbLine
 10
640.9
 20
26.703445305301415
 30
26.0
 11
640.9
 21
6.515460020214569
 31
26.0
  0
SPLINE
  5
103
330
17
100
AcDbEntity
  8
0
100
AcDbSpline
 70
0
 71
4
 72
10
 73
5
 74
0
 40
0.0
 40
0.0
 40
0.0
 40
0.0
 40
0.0
 40
1.0
 40
1.0
 40
1.0
 40
1.0
 40
1.0
 10
637.0999994002118
 20
26.737270423042023
 30
26.0
 10
638.0499949595578
 20
26.728616065298127
 30
26.0
 10
638.9999936994194
 20
26.720094466439477
 30
26.0
 10
639.9499955894065
 20
26.711704565185766
 30
26.0
 10
640.9000005997977
 20
26.70344530008682
 30
26.0
  0
LINE
  5
104
330
17
100
AcDbEntity
  8
0
100
AcDbLine
 10
637.1
 20
26.737270535311225
 30
26.0
 11
637.1
 21
6.651530598096253
 31
26.0
  0
SPLINE
  5
105
330
17
100
AcDbEntity
  8
0
100
AcDbSpline
 70
0
 71
4
 72
10
 73
5
 74
0
 40
0.0
 40
0.0
 40
0.0
 40
0.0
 40
0.0
 40
1.0
 40
1.0
 40
1.0
 40
1.0
 40
1.0
 10
637.0999999999988
 20
6.651530598062659
 30
26.0
 10
631.5496543335861
 20
6.851424888018148
 30
26.0
 10
625.9994694081191
 20
7.055780961324356
 30
26.0
 10
620.4494503543691
 20
7.264591732892474
 30
26.0
 10
614.8996027943753
 20
7.477863346552178
 30
26.0
  0
LINE
  5
106
330
17
100
AcDbEntity
  8
0
100
AcDbLine
 10
614.9
 20
26.967551302795997
 30
26.0
 11
614.9
 21
7.477848083032363
 31
26.0
  0
SPLINE
  5
107
330
17
100
AcDbEntity
  8
0
100
AcDbSpline
 70
0
 71
4
 72
10
 73
5
 74
0
 40
0.0
 40
0.0
 40
0.0
 40
0.0
 40
0.0
 40
1.0
 40
1.0
 40
1.0
 40
1.0
 40
1.0
 10
611.0999994002809
 20
27.012789432648713
 30
26.0
 10
612.049994291239
 20
27.00125999301362
 30
26.0
 10
612.9999928114876
 20
26.989877859159964
 30
26.0
 10
613.9499949258179
 20
26.978641969487295
 30
26.0
 10
614.900000599747
 20
26.96755126219454
 30
26.0
  0
LINE
  5
108
330
17
100
AcDbEntity
  8
0
100
AcDbLine
 10
611.1
 20
27.01278945497661
 30
26.0
 11
611.1
 21
7.624661328006386
 31
26.0
  0
SPLINE
  5
109
330
17
100
AcDbEntity
  8
0
100
AcDbSpline
 70
0
 71
4
 72
10
 73
5
 74
0
 40
0.0
 40
0.0
 40
0.0
 40
0.0
 40
0.0
 40
1.0
 40
1.0
 40
1.0
 40
1.0
 40
1.0
 10
611.0999999999804
 20
7.6246613274992905
 30
26.0
 10
605.5496353886622
 20
7.8402477191200015
 30
26.0
 10
599.9994442657638
 20
8.06029853004083
 30
26.0
 10
594.4494323680325
 20
8.284822605291497
 30
26.0
 10
588.8996061068377
 20
8.513842689089973
 30
26.0
  0
LINE
  5
10A
330
17
100
AcDbEntity
  8
0
100
AcDbLine
 10
588.9
 20
27.31323985775647
 30
26.0
 11
588.9
 21
8.513826435541617
 31
26.0
  0
SPLINE
  5
10B
330
17
100
AcDbEntity
  8
0
100
AcDbSpline
 70
0
 71
4
 72
10
 73
5
 74
0
 40
0.0
 40
0.0
 40
0.0
 40
0.0
 40
0.0
 40
1.0
 40
1.0
 40
1.0
 40
1.0
 40
1.0
 10
585.0999994003398
 20
27.371087162296128
 30
26.0
 10
586.0499935189388
 20
27.356383591811205
 30
26.0
 10
586.9999917852504
 20
27.341841883218898
 30
26.0
 10
587.9499941587362
 20
27.327460974692805
 30
26.0
 10
588.9000005996575
 20
27.313239804164958
 30
26.0
  0
LINE
  5
10C
330
17
100
AcDbEntity
  8
0
100
AcDbLine
 10
585.1
 20
27.371087447122953
 30
26.0
 11
585.1
 21
8.671430029826173
 31
26.0
  0
SPLINE
  5
10D
330
17
100
AcDbEntity
  8
0
100
AcDbSpline
 70
0
 71
4
 72
10
 73
5
 74
0
 40
0.0
 40
0.0
 40
0.0
 40
0.0
 40
0.0
 40
1.0
 40
1.0
 40
1.0
 40
1.0
 40
1.0
 10
585.0999999999596
 20
8.671430028857758
 30
26.0
 10
579.5497113502917
 20
8.902784180045126
 30
26.0
 10
573.9996106104052
 20
9.138643592068977
 30
26.0
 10
568.4497043405272
 20
9.379033871831464
 30
26.0
 10
562.8999999999442
 20
9.623995786139902
 30
26.0
  0
LINE
  5
10E
330
17
100
AcDbEntity
  8
0
100
AcDbLine
 10
562.9
 20
27.748698577560017
 30
26.0
 11
562.9
 21
9.623995787401768
 31
26.0
  0
SPLINE
  5
10F
330
17
100
AcDbEntity
  8
0
100
AcDbSpline
 70
0
 71
4
 72
10
 73
5
 74
0
 40
0.0
 40
0.0
 40
0.0
 40
0.0
 40
0.0
 40
1.0
 40
1.0
 40
1.0
 40
1.0
 40
1.0
 10
559.0999994004308
 20
27.820352445745662
 30
26.0
 10
560.0499926323288
 20
27.802175392043285
 30
26.0
 10
560.9999906069227
 20
27.784174765240028
 30
26.0
 10
561.9499932778433
 20
27.766349503405287
 30
26.0
 10
562.9000005995929
 20
27.748698544320593
 30
26.0
  0
LINE
  5
110
330
17
100
AcDbEntity
  8
0
100
AcDbLine
 10
559.1
 20
27.820352457906683
 30
26.0
 11
559.1
 21
9.792532619720607
 31
26.0
  0
SPLINE
  5
111
330
17
100
AcDbEntity
  8
0
100
AcDbSpline
 70
0
 71
4
 72
10
 73
5
 74
0
 40
0.0
 40
0.0
 40
0.0
 40
0.0
 40
0.0
 40
1.0
 40
1.0
 40
1.0
 40
1.0
 40
1.0
 10
559.0999999999401
 20
9.792532618377033
 30
26.0
 10
553.54968517025
 20
10.039877918489898
 30
26.0
 10
547.9995749283349
 20
10.291810638829705
 30
26.0
 10
542.4496769256148
 20
10.548374684048696
 30
26.0
 10
536.8999999999176
 20
10.809631107825295
 30
26.0
  0
LINE
  5
112
330
17
100
AcDbEntity
  8
0
100
AcDbLine
 10
536.9
 20
28.282123674127302
 30
26.0
 11
536.9
 21
10.80963110957455
 31
26.0
  0
SPLINE
  5
113
330
17
100
AcDbEntity
  8
0
100
AcDbSpline
 70
0
 71
4
 72
10
 73
5
 74
0
 40
0.0
 40
0.0
 40
0.0
 40
0.0
 40
0.0
 40
1.0
 40
1.0
 40
1.0
 40
1.0
 40
1.0
 10
533.099999400494
 20
28.368782759817048
 30
26.0
 10
534.049991620961
 20
28.346832546627052
 30
26.0
 10
534.9999892625945
 20
28.32507333367671
 30
26.0
 10
535.9499922726936
 20
28.303504059086094
 30
26.0
 10
536.9000005994999
 20
28.282123660635264
 30
26.0
  0
LINE
  5
114
330
17
100
AcDbEntity
  8
0
100
AcDbLine
 10
533.1
 20
28.368782745965053
 30
26.0
 11
533.1
 21
10.98934793738977
 31
26.0
  0
SPLINE
  5
115
330
17
100
AcDbEntity
  8
0
100
AcDbSpline
 70
0
 71
4
 72
10
 73
5
 74
0
 40
0.0
 40
0.0
 40
0.0
 40
0.0
 40
0.0
 40
1.0
 40
1.0
 40
1.0
 40
1.0
 40
1.0
 10
533.0999999999145
 20
10.98934793558682
 30
26.0
 10
527.5496541720753
 20
11.253056931908873
 30
26.0
 10
521.9995325777976
 20
11.521481310121498
 30
26.0
 10
516.4496443025309
 20
11.79468567501558
 30
26.0
 10
510.89999999989965
 20
12.072754719785662
 30
26.0
  0
LINE
  5
116
330
17
100
AcDbEntity
  8
0
100
AcDbLine
 10
510.9
 20
28.921720478217157
 30
26.0
 11
510.9
 21
12.072754721779805
 31
26.0
  0
SPLINE
  5
117
330
17
100
AcDbEntity
  8
0
100
AcDbSpline
 70
0
 71
4
 72
10
 73
5
 74
0
 40
0.0
 40
0.0
 40
0.0
 40
0.0
 40
0.0
 40
1.0
 40
1.0
 40
1.0
 40
1.0
 40
1.0
 10
507.0999994005975
 20
29.02458475658293
 30
26.0
 10
508.04999047576047
 20
28.99856148832648
 30
26.0
 10
508.9999877380235
 20
28.972743534813066
 30
26.0
 10
509.94999113306767
 20
28.947130297601785
 30
26.0
 10
510.90000059941536
 20
28.921720462184638
 30
26.0
  0
LINE
  5
118
330
17
100
AcDbEntity
  8
0
100
AcDbLine
 10
507.1
 20
29.024584746081764
 30
26.0
 11
507.1
 21
12.264015793337329
 31
26.0
  0
SPLINE
  5
119
330
17
100
AcDbEntity
  8
0
100
AcDbSpline
 70
0
 71
4
 72
10
 73
5
 74
0
 40
0.0
 40
0.0
 40
0.0
 40
0.0
 40
0.0
 40
1.0
 40
1.0
 40
1.0
 40
1.0
 40
1.0
 10
507.0999999999268
 20
12.264015791889296
 30
26.0
 10
501.54961682148604
 20
12.544634552747231
 30
26.0
 10
495.9994814296776
 20
12.830149460148018
 30
26.0
 10
490.44960479986423
 20
13.12064935691136
 30
26.0
 10
484.89999999990897
 20
13.416247419246918
 30
26.0
  0
LINE
  5
11A
330
17
100
AcDbEntity
  8
0
100
AcDbLine
 10
484.9
 20
29.675035601760904
 30
26.0
 11
484.9
 21
13.416247420954221
 31
26.0
  0
SPLINE
  5
11B
330
17
100
AcDbEntity
  8
0
100
AcDbSpline
 70
0
 71
4
 72
10
 73
5
 74
0
 40
0.0
 40
0.0
 40
0.0
 40
0.0
 40
0.0
 40
1.0
 40
1.0
 40
1.0
 40
1.0
 40
1.0
 10
481.0999994006853
 20
29.794919516794796
 30
26.0
 10
482.0499893944344
 20
29.764634387209828
 30
26.0
 10
482.99998629444497
 20
29.734558898027405
 30
26.0
 10
483.9499900471611
 20
29.70469273145829
 30
26.0
 10
484.90000059932606
 20
29.675035569339503
 30
26.0
  0
LINE
  5
11C
330
17
100
AcDbEntity
  8
0
100
AcDbLine
 10
481.1
 20
29.794919511845364
 30
26.0
 11
481.1
 21
13.619554600250918
 31
26.0
  0
SPLINE
  5
11D
330
17
100
AcDbEntity
  8
0
100
AcDbSpline
 70
0
 71
4
 72
10
 73
5
 74
0
 40
0.0
 40
0.0
 40
0.0
 40
0.0
 40
0.0
 40
1.0
 40
1.0
 40
1.0
 40
1.0
 40
1.0
 10
481.1000000000916
 20
13.619554601956008
 30
26.0
 10
475.5495710180526
 20
13.917832982493586
 30
26.0
 10
469.99941855691975
 20
14.221251257986722
 30
26.0
 10
464.44955610833244
 20
14.529927610006984
 30
26.0
 10
458.8999999999056
 20
14.84401067298536
 30
26.0
  0
LINE
  5
11E
330
17
100
AcDbEntity
  8
0
100
AcDbLine
 10
458.9
 20
30.545879583054447
 30
26.0
 11
458.9
 21
14.844010674653308
 31
26.0
  0
SPLINE
  5
11F
330
17
100
AcDbEntity
  8
0
100
AcDbSpline
 70
0
 71
4
 72
10
 73
5
 74
0
 40
0.0
 40
0.0
 40
0.0
 40
0.0
 40
0.0
 40
1.0
 40
1.0
 40
1.0
 40
1.0
 40
1.0
 10
455.0999994007805
 20
30.68315127891382
 30
26.0
 10
456.0499882713066
 20
30.64851258435408
 30
26.0
 10
456.99998479834306
 20
30.614087944312264
 30
26.0
 10
457.94998892613563
 20
30.579877041422492
 30
26.0
 10
458.9000005992334
 20
30.545879557927705
 30
26.0
  0
LINE
  5
120
330
17
100
AcDbEntity
  8
0
100
AcDbLine
 10
455.1
 20
30.68315126112414
 30
26.0
 11
455.1
 21
15.06003254905815
 31
26.0
  0
SPLINE
  5
121
330
17
100
AcDbEntity
  8
0
100
AcDbSpline
 70
0
 71
4
 72
10
 73
5
 74
0
 40
0.0
 40
0.0
 40
0.0
 40
0.0
 40
0.0
 40
1.0
 40
1.0
 40
1.0
 40
1.0
 40
1.0
 10
455.09999999990725
 20
15.06003254743214
 30
26.0
 10
449.5495137912232
 20
15.376967925396855
 30
26.0
 10
443.9993398033168
 20
15.699364604907986
 30
26.0
 10
438.44949493228097
 20
16.027377453277566
 30
26.0
 10
432.89999999991244
 20
16.361200714559917
 30
26.0
  0
LINE
  5
122
330
17
100
AcDbEntity
  8
0
100
AcDbLine
 10
432.9
 20
31.536766095480175
 30
26.0
 11
432.9
 21
16.361200716014334
 31
26.0
  0
SPLINE
  5
123
330
17
100
AcDbEntity
  8
0
100
AcDbSpline
 70
0
 71
4
 72
10
 73
5
 74
0
 40
0.0
 40
0.0
 40
0.0
 40
0.0
 40
0.0
 40
1.0
 40
1.0
 40
1.0
 40
1.0
 40
1.0
 10
429.0999994008814
 20
31.691793277014185
 30
26.0
 10
430.0499871018803
 20
31.652709086103272
 30
26.0
 10
430.9999832405349
 20
31.613843366158402
 30
26.0
 10
431.94998775884903
 20
31.575195800301223
 30
26.0
 10
432.9000005991345
 20
31.536766071244102
 30
26.0
  0
LINE
  5
124
330
17
100
AcDbEntity
  8
0
100
AcDbLine
 10
429.1
 20
31.691793252365382
 30
26.0
 11
429.1
 21
16.59081461349617
 31
26.0
  0
SPLINE
  5
125
330
17
100
AcDbEntity
  8
0
100
AcDbSpline
 70
0
 71
4
 72
10
 73
5
 74
0
 40
0.0
 40
0.0
 40
0.0
 40
0.0
 40
0.0
 40
1.0
 40
1.0
 40
1.0
 40
1.0
 40
1.0
 10
429.09999999991425
 20
16.590814612080685
 30
26.0
 10
423.5494407990082
 20
16.92771511859136
 30
26.0
 10
417.99923906707187
 20
17.270497290872154
 30
26.0
 10
412.44941640602104
 20
17.619363391713478
 30
26.0
 10
406.8999999998967
 20
17.97456835891028
 30
26.0
  0
LINE
  5
126
330
17
100
AcDbEntity
  8
0
100
AcDbLine
 10
406.9
 20
32.65021379511336
 30
26.0
 11
406.9
 21
17.974568360523726
 31
26.0
  0
SPLINE
  5
127
330
17
100
AcDbEntity
  8
0
100
AcDbSpline
 70
0
 71
4
 72
10
 73
5
 74
0
 40
0.0
 40
0.0
 40
0.0
 40
0.0
 40
0.0
 40
1.0
 40
1.0
 40
1.0
 40
1.0
 40
1.0
 10
403.09999940098106
 20
32.82336511395952
 30
26.0
 10
404.04998588515525
 20
32.77974325975855
 30
26.0
 10
404.99998161969046
 20
32.73634429498958
 30
26.0
 10
405.94998654430344
 20
32.69316790332996
 30
26.0
 10
406.9000005990292
 20
32.65021376802873
 30
26.0
  0
LINE
  5
128
330
17
100
AcDbEntity
  8
0
100
AcDbLine
 10
403.1
 20
32.82336508929138
 30
26.0
 11
403.1
 21
18.218921856174852
 31
26.0
  0
SPLINE
  5
129
330
17
100
AcDbEntity
  8
0
100
AcDbSpline
 70
0
 71
4
 72
10
 73
5
 74
0
 40
0.0
 40
0.0
 40
0.0
 40
0.0
 40
0.0
 40
1.0
 40
1.0
 40
1.0
 40
1.0
 40
1.0
 10
403.0999999999016
 20
18.21892185465207
 30
26.0
 10
397.5492608004527
 20
18.577504498870066
 30
26.0
 10
391.9989377520451
 20
18.94251981107555
 30
26.0
 10
386.44905914020524
 20
19.31423341743414
 30
26.0
 10
380.8996614585136
 20
19.692984062376315
 30
26.0
  0
LINE
  5
12A
330
17
100
AcDbEntity
  8
0
100
AcDbLine
 10
380.9
 20
33.888747893708285
 30
26.0
 11
380.9
 21
19.692960957992376
 31
26.0
  0
SPLINE
  5
12B
330
17
100
AcDbEntity
  8
0
100
AcDbSpline
 70
0
 71
4
 72
10
 73
5
 74
0
 40
0.0
 40
0.0
 40
0.0
 40
0.0
 40
0.0
 40
1.0
 40
1.0
 40
1.0
 40
1.0
 40
1.0
 10
377.09999940108986
 20
34.080392975052106
 30
26.0
 10
378.0499846201486
 20
34.03214104727706
 30
26.0
 10
378.99997993449267
 20
33.98411642907363
 30
26.0
 10
379.9499852815126
 20
33.93631880474682
 30
26.0
 10
380.90000059892066
 20
33.88874785815383
 30
26.0
  0
LINE
  5
12C
330
17
100
AcDbEntity
  8
0
100
AcDbLine
 10
377.1
 20
34.080392950373664
 30
26.0
 11
377.1
 21
19.953563911664727
 31
26.0
  0
SPLINE
  5
12D
330
17
100
AcDbEntity
  8
0
100
AcDbSpline
 70
0
 71
7
 72
22
 73
14
 74
0
 40
0.0
 40
0.0
 40
0.0
 40
0.0
 40
0.0
 40
0.0
 40
0.0
 40
0.0
 40
0.505047619733849
 40
0.505047619733849
 40
0.505047619733849
 40
0.505047619733849
 40
0.505047619733849
 40
0.505047619733849
 40
1.0
 40
1.0
 40
1.0
 40
1.0
 40
1.0
 40
1.0
 40
1.0
 40
1.0
 10
377.0999999999161
 20
19.953563910447823
 30
26.0
 10
375.498051715548
 20
20.06395514598557
 30
26.0
 10
373.8961394459993
 20
20.174868262375753
 30
26.0
 10
372.29426375800057
 20
20.286308506637766
 30
26.0
 10
370.6924252393234
 20
20.398281304134525
 30
26.0
 10
369.0906244987801
 20
20.51079225857245
 30
26.0
 10
367.4888621662239
 20
20.62384715200146
 30
26.0
 10
364.3174319661985
 20
20.848785926831006
 30
26.0
 10
362.74776251205725
 20
20.96064757007661
 30
26.0
 10
361.1781313897975
 20
21.07304575735851
 30
26.0
 10
359.60853851812715
 20
21.185976450890443
 30
26.0
 10
358.0389857891673
 20
21.299462500983083
 30
26.0
 10
356.46947276887994
 20
21.413494969507113
 30
26.0
 10
354.8999999999271
 20
21.528077895924334
 30
26.0
  0
LINE
  5
12E
330
17
100
AcDbEntity
  8
0
100
AcDbLine
 10
354.9
 20
35.254900350352564
 30
26.0
 11
354.9
 21
21.52807789692206
 31
26.0
  0
SPLINE
  5
12F
330
17
100
AcDbEntity
  8
0
100
AcDbSpline
 70
0
 71
4
 72
10
 73
5
 74
0
 40
0.0
 40
0.0
 40
0.0
 40
0.0
 40
0.0
 40
1.0
 40
1.0
 40
1.0
 40
1.0
 40
1.0
 10
351.09999940117257
 20
35.46540984300769
 30
26.0
 10
352.049983305845
 20
35.412435180197924
 30
26.0
 10
352.9999781836053
 20
35.35969224839887
 30
26.0
 10
353.9499839694764
 20
35.30718073261916
 30
26.0
 10
354.90000059880686
 20
35.25490031739959
 30
26.0
  0
LINE
  5
130
330
17
100
AcDbEntity
  8
0
100
AcDbLine
 10
351.1
 20
35.465409809614826
 30
26.0
 11
351.1
 21
21.806897913518448
 31
26.0
  0
SPLINE
  5
131
330
17
100
AcDbEntity
  8
0
100
AcDbSpline
 70
0
 71
4
 72
10
 73
5
 74
0
 40
0.0
 40
0.0
 40
0.0
 40
0.0
 40
0.0
 40
1.0
 40
1.0
 40
1.0
 40
1.0
 40
1.0
 10
351.09999999993454
 20
21.806897912630376
 30
26.0
 10
345.5490972334027
 20
22.2162257695914
 30
26.0
 10
339.998778538054
 20
22.633462248314753
 30
26.0
 10
334.4490699338346
 20
23.058729303503455
 30
26.0
 10
328.8999999999515
 20
23.49216012447653
 30
26.0
  0
LINE
  5
132
330
17
100
AcDbEntity
  8
0
100
AcDbLine
 10
328.9
 20
36.751210139567846
 30
26.0
 11
328.9
 21
23.49216012509799
 31
26.0
  0
SPLINE
  5
133
330
17
100
AcDbEntity
  8
0
100
AcDbSpline
 70
0
 71
4
 72
10
 73
5
 74
0
 40
0.0
 40
0.0
 40
0.0
 40
0.0
 40
0.0
 40
1.0
 40
1.0
 40
1.0
 40
1.0
 40
1.0
 10
325.09999940132946
 20
36.98095571429087
 30
26.0
 10
326.0499819413428
 20
36.92316539592949
 30
26.0
 10
326.9999763657804
 20
36.86561123091253
 30
26.0
 10
327.9499826072571
 20
36.80829290503254
 30
26.0
 10
328.90000059871693
 20
36.75121010359334
 30
26.0
  0
LINE
  5
134
330
17
100
AcDbEntity
  8
0
100
AcDbLine
 10
325.1
 20
36.980955677871926
 30
26.0
 11
325.1
 21
23.79042060102946
 31
26.0
  0
SPLINE
  5
135
330
17
100
AcDbEntity
  8
0
100
AcDbSpline
 70
0
 71
4
 72
13
 73
8
 74
0
 40
0.0
 40
0.0
 40
0.0
 40
0.0
 40
0.0
 40
0.5558710404406015
 40
0.5558710404406015
 40
0.5558710404406015
 40
1.0
 40
1.0
 40
1.0
 40
1.0
 40
1.0
 10
325.0999999999652
 20
23.790420600588288
 30
26.0
 10
322.01435786940925
 20
24.033788933685656
 30
26.0
 10
318.92891630538986
 20
24.2796961360906
 30
26.0
 10
315.84368032066135
 20
24.528165641086595
 30
26.0
 10
310.29378675051925
 20
24.979810704872378
 30
26.0
 10
307.82905290688757
 20
25.182050750652717
 30
26.0
 10
305.3644563822023
 20
25.385954811997646
 30
26.0
 10
302.8999999999901
 20
25.591535975118468
 30
26.0
  0
LINE
  5
136
330
17
100
AcDbEntity
  8
0
100
AcDbLine
 10
302.9
 20
38.380223421903644
 30
26.0
 11
302.9
 21
25.591535975236166
 31
26.0
  0
SPLINE
  5
137
330
17
100
AcDbEntity
  8
0
100
AcDbSpline
 70
0
 71
4
 72
10
 73
5
 74
0
 40
0.0
 40
0.0
 40
0.0
 40
0.0
 40
0.0
 40
1.0
 40
1.0
 40
1.0
 40
1.0
 40
1.0
 10
299.0999994014315
 20
38.629577816906874
 30
26.0
 10
300.0499805255454
 20
38.56687865548593
 30
26.0
 10
300.99997447960476
 20
38.504420070202
 30
26.0
 10
301.94998119377885
 20
38.44220174771568
 30
26.0
 10
302.90000059856476
 20
38.38022337417774
 30
26.0
  0
LINE
  5
138
330
17
100
AcDbEntity
  8
0
100
AcDbLine
 10
299.1
 20
38.62957778573294
 30
26.0
 11
299.1
 21
25.9100350492806
 31
26.0
  0
SPLINE
  5
139
330
17
100
AcDbEntity
  8
0
100
AcDbSpline
 70
0
 71
4
 72
13
 73
8
 74
0
 40
0.0
 40
0.0
 40
0.0
 40
0.0
 40
0.0
 40
0.5054188301399073
 40
0.5054188301399073
 40
0.5054188301399073
 40
1.0
 40
1.0
 40
1.0
 40
1.0
 40
1.0
 10
299.09999999995273
 20
25.91003504871887
 30
26.0
 10
296.29436076650944
 20
26.146307664040496
 30
26.0
 10
293.48890604507625
 20
26.384767450920833
 30
26.0
 10
290.683640094061
 20
26.625434248427403
 30
26.0
 10
285.13364368771977
 20
27.106015084795377
 30
26.0
 10
282.388905033602
 20
27.34583460958931
 30
26.0
 10
279.6443556559202
 20
27.587807009749508
 30
26.0
 10
276.8999999999817
 20
27.831952831738885
 30
26.0
  0
LINE
  5
13A
330
17
100
AcDbEntity
  8
0
100
AcDbLine
 10
276.9
 20
40.14449374740856
 30
26.0
 11
276.9
 21
27.831952831945877
 31
26.0
  0
SPLINE
  5
13B
330
17
100
AcDbEntity
  8
0
100
AcDbSpline
 70
0
 71
4
 72
10
 73
5
 74
0
 40
0.0
 40
0.0
 40
0.0
 40
0.0
 40
0.0
 40
1.0
 40
1.0
 40
1.0
 40
1.0
 40
1.0
 10
273.09999940158264
 20
40.41383082962504
 30
26.0
 10
274.0499790575846
 20
40.34612936265889
 30
26.0
 10
274.99997252388715
 20
40.278672894613564
 30
26.0
 10
275.94997972817356
 20
40.21146111310643
 30
26.0
 10
276.90000059845795
 20
40.14449370522297
 30
26.0
  0
LINE
  5
13C
330
17
100
AcDbEntity
  8
0
100
AcDbLine
 10
273.1
 20
40.413830786978096
 30
26.0
 11
273.1
 21
28.171590543159624
 31
26.0
  0
SPLINE
  5
13D
330
17
100
AcDbEntity
  8
0
100
AcDbSpline
 70
0
 71
4
 72
13
 73
8
 74
0
 40
0.0
 40
0.0
 40
0.0
 40
0.0
 40
0.0
 40
0.5060301162026674
 40
0.5060301162026674
 40
0.5060301162026674
 40
1.0
 40
1.0
 40
1.0
 40
1.0
 40
1.0
 10
273.09999999999474
 20
28.171590543101264
 30
26.0
 10
270.29090181087423
 20
28.423832823942192
 30
26.0
 10
267.48200988748783
 20
28.678367739596606
 30
26.0
 10
264.67332910790816
 20
28.935217920051464
 30
26.0
 10
259.123334401842
 20
29.44741925765213
 30
26.0
 10
256.3820102881869
 20
29.70266025077617
 30
26.0
 10
253.640897118334
 20
29.960152488141897
 30
26.0
 10
250.89999999999898
 20
30.21991948768776
 30
26.0
  0
LINE
  5
13E
330
17
100
AcDbEntity
  8
0
100
AcDbLine
 10
250.9
 20
42.0465823577984
 30
26.0
 11
250.9
 21
30.21991948769883
 31
26.0
  0
SPLINE
  5
13F
330
17
100
AcDbEntity
  8
0
100
AcDbSpline
 70
0
 71
4
 72
10
 73
5
 74
0
 40
0.0
 40
0.0
 40
0.0
 40
0.0
 40
0.0
 40
1.0
 40
1.0
 40
1.0
 40
1.0
 40
1.0
 10
247.09999940171707
 20
42.3362771027869
 30
26.0
 10
248.04997753642238
 20
42.26347958476941
 30
26.0
 10
248.9999704972596
 20
42.190931487948035
 30
26.0
 10
249.94997820938877
 20
42.11863250098996
 30
26.0
 10
250.90000059830322
 20
42.04658231200749
 30
26.0
  0
LINE
  5
140
330
17
100
AcDbEntity
  8
0
100
AcDbLine
 10
247.1
 20
42.336277056940034
 30
26.0
 11
247.1
 21
30.58172099529633
 31
26.0
  0
SPLINE
  5
141
330
17
100
AcDbEntity
  8
0
100
AcDbSpline
 70
0
 71
4
 72
13
 73
8
 74
0
 40
0.0
 40
0.0
 40
0.0
 40
0.0
 40
0.0
 40
0.5067981954386627
 40
0.5067981954386627
 40
0.5067981954386627
 40
1.0
 40
1.0
 40
1.0
 40
1.0
 40
1.0
 10
247.09999999996873
 20
30.581720994969817
 30
26.0
 10
244.2865621796203
 20
30.85082211850666
 30
26.0
 10
241.47335581797276
 20
31.122337836681226
 30
26.0
 10
238.66038657648812
 20
31.39629429162669
 30
26.0
 10
233.1103942728244
 20
31.941728219230857
 30
26.0
 10
230.3733583400403
 20
32.213075025573474
 30
26.0
 10
227.63655826697388
 20
32.486785299009235
 30
26.0
 10
224.8999999999831
 20
32.762886291482495
 30
26.0
  0
LINE
  5
142
330
17
100
AcDbEntity
  8
0
100
AcDbLine
 10
224.9
 20
44.08905834771028
 30
26.0
 11
224.9
 21
32.76288629165014
 31
26.0
  0
SPLINE
  5
143
330
17
100
AcDbEntity
  8
0
100
AcDbSpline
 70
0
 71
4
 72
10
 73
5
 74
0
 40
0.0
 40
0.0
 40
0.0
 40
0.0
 40
0.0
 40
1.0
 40
1.0
 40
1.0
 40
1.0
 40
1.0
 10
221.09999940184252
 20
44.3994868806616
 30
26.0
 10
222.04997596112293
 20
44.32149927496315
 30
26.0
 10
222.9999683984805
 20
44.24376551169529
 30
26.0
 10
223.9499766365157
 20
44.16628528067218
 30
26.0
 10
224.90000059816458
 20
44.08905827112962
 30
26.0
  0
LINE
  5
144
330
17
100
AcDbEntity
  8
0
100
AcDbLine
 10
221.1
 20
44.39948683889175
 30
26.0
 11
221.1
 21
33.14803291118858
 31
26.0
  0
SPLINE
  5
145
330
17
100
AcDbEntity
  8
0
100
AcDbSpline
 70
0
 71
4
 72
13
 73
8
 74
0
 40
0.0
 40
0.0
 40
0.0
 40
0.0
 40
0.0
 40
0.5077922230088127
 40
0.5077922230088127
 40
0.5077922230088127
 40
1.0
 40
1.0
 40
1.0
 40
1.0
 40
1.0
 10
221.09999999995975
 20
33.14803291079353
 30
26.0
 10
218.28095504243072
 20
33.43505824832101
 30
26.0
 10
215.46217118268856
 20
33.72464146791934
 30
26.0
 10
212.64365509580514
 20
34.01681322335136
 30
26.0
 10
207.0936663098672
 20
34.59735196094294
 30
26.0
 10
204.36217699536527
 20
34.88556052139788
 30
26.0
 10
201.6309525486793
 20
35.17626189101867
 30
26.0
 10
198.8999999999522
 20
35.46948808886642
 30
26.0
  0
LINE
  5
146
330
17
100
AcDbEntity
  8
0
100
AcDbLine
 10
198.9
 20
46.27449879622519
 30
26.0
 11
198.9
 21
35.46948808931177
 31
26.0
  0
SPLINE
  5
147
330
17
100
AcDbEntity
  8
0
100
AcDbSpline
 70
0
 71
4
 72
10
 73
5
 74
0
 40
0.0
 40
0.0
 40
0.0
 40
0.0
 40
0.0
 40
1.0
 40
1.0
 40
1.0
 40
1.0
 40
1.0
 10
195.09999940198776
 20
46.606038525461926
 30
26.0
 10
196.0499743307538
 20
46.522766496169965
 30
26.0
 10
196.9999662262887
 20
46.439752728936476
 30
26.0
 10
197.94997500859537
 20
46.3569969148246
 30
26.0
 10
198.9000005980215
 20
46.2744987442943
 30
26.0
  0
LINE
  5
148
330
17
100
AcDbEntity
  8
0
100
AcDbLine
 10
195.1
 20
46.606038473041906
 30
26.0
 11
195.1
 21
35.87935958674191
 31
26.0
  0
SPLINE
  5
149
330
17
100
AcDbEntity
  8
0
100
AcDbSpline
 70
0
 71
4
 72
13
 73
8
 74
0
 40
0.0
 40
0.0
 40
0.0
 40
0.0
 40
0.0
 40
0.5709958445430757
 40
0.5709958445430757
 40
0.5709958445430757
 40
1.0
 40
1.0
 40
1.0
 40
1.0
 40
1.0
 10
195.0999999999668
 20
35.87935958643566
 30
26.0
 10
191.92995667927087
 20
36.222840019434514
 30
26.0
 10
188.7602864966142
 20
36.569753691067795
 30
26.0
 10
185.5910007624976
 20
36.92015216301532
 30
26.0
 10
180.04124251950256
 20
37.540015571155735
 30
26.0
 10
177.66059718559126
 20
37.807938393464646
 30
26.0
 10
175.28018112994835
 20
38.07788394719262
 30
26.0
 10
172.8999999999506
 20
38.349877707099566
 30
26.0
  0
LINE
  5
14A
330
17
100
AcDbEntity
  8
0
100
AcDbLine
 10
172.9
 20
48.60548927924073
 30
26.0
 11
172.9
 21
38.34987770753193
 31
26.0
  0
SPLINE
  5
14B
330
17
100
AcDbEntity
  8
0
100
AcDbSpline
 70
0
 71
4
 72
10
 73
5
 74
0
 40
0.0
 40
0.0
 40
0.0
 40
0.0
 40
0.0
 40
1.0
 40
1.0
 40
1.0
 40
1.0
 40
1.0
 10
169.0999994021489
 20
48.95851874306065
 30
26.0
 10
170.04997264437682
 20
48.86986764675452
 30
26.0
 10
170.9999639794347
 20
48.78147922992911
 30
26.0
 10
171.94997332469708
 20
48.693353185002536
 30
26.0
 10
172.90000059788525
 20
48.60548920376468
 30
26.0
  0
LINE
  5
14C
330
17
100
AcDbEntity
  8
0
100
AcDbLine
 10
169.1
 20
48.958518937509034
 30
26.0
 11
169.1
 21
38.786110797375656
 31
26.0
  0
SPLINE
  5
14D
330
17
100
AcDbEntity
  8
0
100
AcDbSpline
 70
0
 71
4
 72
19
 73
14
 74
0
 40
0.0
 40
0.0
 40
0.0
 40
0.0
 40
0.0
 40
0.258255597947383
 40
0.258255597947383
 40
0.258255597947383
 40
0.5110218654394939
 40
0.5110218654394939
 40
0.5110218654394939
 40
0.7582764339441781
 40
0.7582764339441781
 40
0.7582764339441781
 40
1.0
 40
1.0
 40
1.0
 40
1.0
 40
1.0
 10
169.0999999999634
 20
38.78611079705832
 30
26.0
 10
167.6661564608343
 20
38.951467095502935
 30
26.0
 10
166.23239986011976
 20
39.11757436221597
 30
26.0
 10
164.79873147666632
 20
39.28443837980666
 30
26.0
 10
161.96204512407812
 20
39.616128885093815
 30
26.0
 10
160.5590233893297
 20
39.780923299271294
 30
26.0
 10
159.15608868923465
 20
39.9464539849923
 30
26.0
 10
156.38098576745023
 20
40.27537396629029
 30
26.0
 10
155.0088137351322
 20
40.43873124978466
 30
26.0
 10
153.63672746289973
 20
40.60280414891342
 30
26.0
 10
150.92342017243146
 20
40.92870623846156
 30
26.0
 10
149.58219530294062
 20
41.09050351272407
 30
26.0
 10
148.24105482828955
 20
41.252995584732105
 30
26.0
 10
146.89999999995473
 20
41.41618799752673
 30
26.0
  0
LINE
  5
14E
330
17
100
AcDbEntity
  8
0
100
AcDbLine
 10
146.9
 20
51.08462371829209
 30
26.0
 11
146.9
 21
41.41618799789898
 31
26.0
  0
SPLINE
  5
14F
330
17
100
AcDbEntity
  8
0
100
AcDbSpline
 70
0
 71
4
 72
10
 73
5
 74
0
 40
0.0
 40
0.0
 40
0.0
 40
0.0
 40
0.0
 40
1.0
 40
1.0
 40
1.0
 40
1.0
 40
1.0
 10
143.09999940192563
 20
51.45952281049446
 30
26.0
 10
144.0499709007552
 20
51.36539768794848
 30
26.0
 10
144.99996165646334
 20
51.27153965946651
 30
26.0
 10
145.94997158376424
 20
51.177948418932395
 30
26.0
 10
146.90000059772018
 20
51.08462365957591
 30
26.0
  0
LINE
  5
150
330
17
100
AcDbEntity
  8
0
100
AcDbLine
 10
143.1
 20
51.45952275123602
 30
26.0
 11
143.1
 21
41.88075709803965
 31
26.0
  0
SPLINE
  5
151
330
17
100
AcDbEntity
  8
0
100
AcDbSpline
 70
0
 71
5
 72
24
 73
18
 74
0
 40
0.0
 40
0.0
 40
0.0
 40
0.0
 40
0.0
 40
0.0
 40
0.2602349146667044
 40
0.2602349146667044
 40
0.2602349146667044
 40
0.2602349146667044
 40
0.5135913060669638
 40
0.5135913060669638
 40
0.5135913060669638
 40
0.5135913060669638
 40
0.7601448949367672
 40
0.7601448949367672
 40
0.7601448949367672
 40
0.7601448949367672
 40
1.0
 40
1.0
 40
1.0
 40
1.0
 40
1.0
 40
1.0
 10
143.09999999995702
 20
41.88075709768971
 30
26.0
 10
141.9440514661447
 20
42.0227338375265
 30
26.0
 10
140.78816388202216
 20
42.165204219797936
 30
26.0
 10
139.63233786318565
 20
42.30817091280708
 30
26.0
 10
138.47657398690933
 20
42.45163607098667
 30
26.0
 10
136.1957205365789
 20
42.73577364849164
 30
26.0
 10
135.07062761071273
 20
42.87641928447776
 30
26.0
 10
133.94559572133332
 20
43.01754990171893
 30
26.0
 10
132.82062586294973
 20
43.15917105105807
 30
26.0
 10
130.60101682616224
 20
43.43958984661125
 30
26.0
 10
129.50637430715966
 20
43.57836120302883
 30
26.0
 10
128.41179245399397
 20
43.71760774262815
 30
26.0
 10
127.31727224630765
 20
43.85733484549264
 30
26.0
 10
125.15809188284452
 20
44.133951825850495
 30
26.0
 10
124.09342836853361
 20
44.270815647477626
 30
26.0
 10
123.02882508584268
 20
44.40814457375456
 30
26.0
 10
121.9642829968196
 20
44.54594379993906
 30
26.0
 10
120.89980309274608
 20
44.684218632125024
 30
26.0
  0
LINE
  5
152
330
17
100
AcDbEntity
  8
0
100
AcDbLine
 10
120.9
 20
53.71450496003366
 30
26.0
 11
120.9
 21
44.68419305434138
 31
26.0
  0
SPLINE
  5
153
330
17
100
AcDbEntity
  8
0
100
AcDbSpline
 70
0
 71
4
 72
10
 73
5
 74
0
 40
0.0
 40
0.0
 40
0.0
 40
0.0
 40
0.0
 40
1.0
 40
1.0
 40
1.0
 40
1.0
 40
1.0
 10
117.09999940245035
 20
54.111654805052595
 30
26.0
 10
118.04996909983304
 20
54.011960372917734
 30
26.0
 10
118.99995925673981
 20
53.91253744592335
 30
26.0
 10
119.9499697851934
 20
53.81338571953423
 30
26.0
 10
120.90000059756647
 20
53.71450488853471
 30
26.0
  0
LINE
  5
154
330
17
100
AcDbEntity
  8
0
100
AcDbLine
 10
117.1
 20
54.111654742342836
 30
26.0
 11
117.1
 21
45.18029488144102
 31
26.0
  0
SPLINE
  5
155
330
17
100
AcDbEntity
  8
0
100
AcDbSpline
 70
0
 71
4
 72
19
 73
14
 74
0
 40
0.0
 40
0.0
 40
0.0
 40
0.0
 40
0.0
 40
0.2626070961504259
 40
0.2626070961504259
 40
0.2626070961504259
 40
0.5167132921749309
 40
0.5167132921749309
 40
0.5167132921749309
 40
0.7624613078696376
 40
0.7624613078696376
 40
0.7624613078696376
 40
1.0
 40
1.0
 40
1.0
 40
1.0
 40
1.0
 10
117.09999999996259
 20
45.18029488115599
 30
26.0
 10
115.64174140816908
 20
45.37163700303969
 30
26.0
 10
114.1836117014235
 20
45.5639547173184
 30
26.0
 10
112.72561430571025
 20
45.757266155774
 30
26.0
 10
109.85708414557274
 20
46.13962388151154
 30
26.0
 10
108.44654272154003
 20
46.328605671005135
 30
26.0
 10
107.03613193047183
 20
46.518552829488534
 30
26.0
 10
104.26196617725176
 20
46.89413356371244
 30
26.0
 10
102.8982025338864
 20
47.07970351487429
 30
26.0
 10
101.5345675869061
 20
47.26620935550728
 30
26.0
 10
98.85311031323681
 20
47.63486426423185
 30
26.0
 10
97.5352793077628
 20
47.816950737290924
 30
26.0
 10
96.21757479256071
 20
47.99994248725102
 30
26.0
 10
94.89999999997633
 20
48.18385504736952
 30
26.0
  0
LINE
  5
156
330
17
100
AcDbEntity
  8
0
100
AcDbLine
 10
94.9
 20
56.49774473083788
 30
26.0
 11
94.9
 21
48.183855047539325
 31
26.0
  0
SPLINE
  5
157
330
17
100
AcDbEntity
  8
0
100
AcDbSpline
 70
0
 71
4
 72
10
 73
5
 74
0
 40
0.0
 40
0.0
 40
0.0
 40
0.0
 40
0.0
 40
1.0
 40
1.0
 40
1.0
 40
1.0
 40
1.0
 10
91.09999940261991
 20
56.917527835799675
 30
26.0
 10
92.04996723987905
 20
56.8121684781255
 30
26.0
 10
92.9999567785044
 20
56.707085032459
 30
26.0
 10
93.94996792779877
 20
56.60227719596582
 30
26.0
 10
94.90000059741527
 20
56.49774466510401
 30
26.0
  0
LINE
  5
158
330
17
100
AcDbEntity
  8
0
100
AcDbLine
 10
91.1
 20
56.917527769545245
 30
26.0
 11
91.1
 21
48.717228313745686
 31
26.0
  0
SPLINE
  5
159
330
17
100
AcDbEntity
  8
0
100
AcDbSpline
 70
0
 71
4
 72
19
 73
14
 74
0
 40
0.0
 40
0.0
 40
0.0
 40
0.0
 40
0.0
 40
0.26635607082557206
 40
0.26635607082557206
 40
0.26635607082557206
 40
0.5216367017051028
 40
0.5216367017051028
 40
0.5216367017051028
 40
0.7660956767779108
 40
0.7660956767779108
 40
0.7660956767779108
 40
1.0
 40
1.0
 40
1.0
 40
1.0
 40
1.0
 10
91.09999999997889
 20
48.717228313596316
 30
26.0
 10
89.6206994444107
 20
48.926024412919844
 30
26.0
 10
88.14156847195649
 20
49.13601020935997
 30
26.0
 10
86.66261183583983
 20
49.34720807733537
 30
26.0
 10
83.76654668067205
 20
49.7632394546807
 30
26.0
 10
82.34942355951371
 20
49.967972424981404
 30
26.0
 10
80.93246949954346
 20
50.17385900611482
 30
26.0
 10
78.15896750899388
 20
50.579200254662005
 30
26.0
 10
76.80240517362297
 20
50.778557571621974
 30
26.0
 10
75.44600591347448
 20
50.979007193964115
 30
26.0
 10
72.79209748989804
 20
51.37342002754431
 30
25.999999999999996
 10
71.49457421102296
 20
51.567289592483604
 30
26.0
 10
70.19720727811779
 20
51.76218725441548
 30
26.0
 10
68.89999999999192
 20
51.95812480340136
 30
26.0
  0
LINE
  5
15A
330
17
100
AcDbEntity
  8
0
100
AcDbLine
 10
68.9
 20
59.43696406352256
 30
26.0
 11
68.9
 21
51.95812480345488
 31
26.0
  0
SPLINE
  5
15B
330
17
100
AcDbEntity
  8
0
100
AcDbSpline
 70
0
 71
4
 72
10
 73
5
 74
0
 40
0.0
 40
0.0
 40
0.0
 40
0.0
 40
0.0
 40
1.0
 40
1.0
 40
1.0
 40
1.0
 40
1.0
 10
65.09999940279363
 20
59.87976427628966
 30
26.0
 10
66.04996532027018
 20
59.7686440360669
 30
26.0
 10
66.99995422074115
 20
59.65780410977209
 30
26.0
 10
67.94996601076481
 20
59.547244196395916
 30
26.0
 10
68.90000059724338
 20
59.436963994194436
 30
26.0
  0
LINE
  5
15C
330
17
100
AcDbEntity
  8
0
100
AcDbLine
 10
65.1
 20
59.879764206432725
 30
26.0
 11
65.1
 21
52.53554158250732
 31
26.0
  0
SPLINE
  5
15D
330
17
100
AcDbEntity
  8
0
100
AcDbSpline
 70
0
 71
4
 72
19
 73
14
 74
0
 40
0.0
 40
0.0
 40
0.0
 40
0.0
 40
0.0
 40
0.2732092295620162
 40
0.2732092295620162
 40
0.2732092295620162
 40
0.5305815349797054
 40
0.5305815349797054
 40
0.5305815349797054
 40
0.7726549726506261
 40
0.7726549726506261
 40
0.7726549726506261
 40
1.0
 40
1.0
 40
1.0
 40
1.0
 40
1.0
 10
65.09999999999307
 20
52.535541582461974
 30
26.0
 10
63.58240527012862
 20
52.76752528161136
 30
26.0
 10
62.06503555988362
 20
53.00095422351923
 30
26.0
 10
60.547895872120186
 20
53.235844052292016
 30
26.0
 10
57.602013631762354
 20
53.69485693091855
 30
26.0
 10
56.17324472099961
 20
53.91881464786127
 30
26.0
 10
54.74468656990401
 20
54.14407927270604
 30
26.0
 10
51.97289927574031
 20
54.58373926219278
 30
26.0
 10
50.629645611680644
 20
54.79798452391894
 30
26.0
 10
49.2865809275901
 20
55.01337254635382
 30
26.0
 10
46.68253141867928
 20
55.433214394067214
 30
26.0
 10
45.42152439229596
 20
55.637535847593824
 30
26.0
 10
44.1606819827997
 20
55.84282514270896
 30
26.0
 10
42.899999999975996
 20
56.04904121665596
 30
26.0
  0
LINE
  5
15E
330
17
100
AcDbEntity
  8
0
100
AcDbLine
 10
42.9
 20
62.53479341901117
 30
26.0
 11
42.9
 21
56.04904121680262
 31
26.0
  0
SPLINE
  5
15F
330
17
100
AcDbEntity
  8
0
100
AcDbSpline
 70
0
 71
4
 72
10
 73
5
 74
0
 40
0.0
 40
0.0
 40
0.0
 40
0.0
 40
0.0
 40
1.0
 40
1.0
 40
1.0
 40
1.0
 40
1.0
 10
39.09999940296774
 20
63.00099599981627
 30
26.0
 10
40.04996334013743
 20
62.88401857039898
 30
26.0
 10
40.99995158229712
 20
62.76732585110962
 30
26.0
 10
41.9499640332323
 20
62.65091754289347
 30
26.0
 10
42.90000059707239
 20
62.534793345932584
 30
26.0
  0
LINE
  5
160
330
17
100
AcDbEntity
  8
0
100
AcDbLine
 10
39.1
 20
63.00099592665058
 30
26.0
 11
39.1
 21
56.67379023192565
 31
26.0
  0
SPLINE
  5
161
330
17
100
AcDbEntity
  8
0
100
AcDbSpline
 70
0
 71
6
 72
34
 73
27
 74
0
 40
0.0
 40
0.0
 40
0.0
 40
0.0
 40
0.0
 40
0.0
 40
0.0
 40
0.22735364482241652
 40
0.22735364482241652
 40
0.22735364482241652
 40
0.22735364482241652
 40
0.22735364482241652
 40
0.335219251915898
 40
0.335219251915898
 40
0.335219251915898
 40
0.335219251915898
 40
0.335219251915898
 40
0.43892164258886435
 40
0.43892164258886435
 40
0.43892164258886435
 40
0.43892164258886435
 40
0.43892164258886435
 40
0.8109516344411539
 40
0.8109516344411539
 40
0.8109516344411539
 40
0.8109516344411539
 40
0.8109516344411539
 40
1.0
 40
1.0
 40
1.0
 40
1.0
 40
1.0
 40
1.0
 40
1.0
 10
39.09999999998896
 20
56.67379023185876
 30
26.0
 10
38.25816303720838
 20
56.8128749179584
 30
26.0
 10
37.41638678598886
 20
56.952298898072385
 30
26.0
 10
36.57466959943883
 20
57.09204851391309
 30
26.0
 10
35.73300946002918
 20
57.23210746028616
 30
26.0
 10
34.89140383789146
 20
57.37245583681612
 30
26.0
 10
33.65058274021198
 20
57.579781768814314
 30
26.0
 10
33.251327488141456
 20
57.64655398387595
 30
26.0
 10
32.85208345277767
 20
57.71338323116664
 30
26.0
 10
32.452850260161476
 20
57.780266641514125
 30
26.0
 10
32.053627502501165
 20
57.847201090264385
 30
26.0
 10
31.27061012089369
 20
57.97858004088324
 30
26.0
 10
30.88681479096069
 20
58.043021226285084
 30
26.0
 10
30.503028971750624
 20
58.107507407558664
 30
26.0
 10
30.11925290802348
 20
58.17203927345693
 30
26.0
 10
29.735486865922013
 20
58.23661754741437
 30
26.0
 10
27.97501608063551
 20
58.533085299087716
 30
26.0
 10
26.598435411290556
 20
58.76553438163356
 30
26.0
 10
25.221999455246305
 20
58.99862575151722
 30
26.0
 10
23.845726620199827
 20
59.2324012294945
 30
26.0
 10
22.469643634631247
 20
59.46691044014397
 30
26.0
 10
20.394650111173192
 20
59.821795774424615
 30
26.000000000000004
 10
19.695567773343488
 20
59.94157681849213
 30
26.0
 10
18.99655181891194
 20
60.06157428977631
 30
26.0
 10
18.29761012635864
 20
60.181796533515964
 30
26.0
 10
17.598754453101236
 20
60.30225793650408
 30
26.0
 10
16.900000000132085
 20
60.422968833065156
 30
26.0
  0
LINE
  5
162
330
17
100
AcDbEntity
  8
0
100
AcDbLine
 10
16.9
 20
65.79387297253648
 30
26.0
 11
16.9
 21
60.42296883230057
 31
26.0
  0
SPLINE
  5
163
330
17
100
AcDbEntity
  8
0
100
AcDbSpline
 70
0
 71
4
 72
10
 73
5
 74
0
 40
0.0
 40
0.0
 40
0.0
 40
0.0
 40
0.0
 40
1.0
 40
1.0
 40
1.0
 40
1.0
 40
1.0
 10
13.099999403143897
 20
66.28386461649617
 30
26.0
 10
14.049961298622996
 20
66.16093333296006
 30
26.0
 10
14.999948862021913
 20
66.03829114922283
 30
26.0
 10
15.949961994329914
 20
65.9159377683182
 30
26.0
 10
16.90000059687992
 20
65.79387289248746
 30
26.0
  0
LINE
  5
164
330
17
100
AcDbEntity
  8
0
100
AcDbLine
 10
13.1
 20
66.28386457662606
 30
26.0
 11
13.1
 21
61.08295946681562
 31
26.0
  0
ENDSEC
  0
SECTION
  2
OBJECTS
  0
DICTIONARY
  5
A
330
0
100
AcDbDictionary
281
1
  3
ACAD_COLOR
350
B
  3
ACAD_GROUP
350
C
  3
ACAD_LAYOUT
350
D
  3
ACAD_MATERIAL
350
E
  3
ACAD_MLEADERSTYLE
350
F
  3
ACAD_MLINESTYLE
350
10
  3
ACAD_PLOTSETTINGS
350
11
  3
ACAD_PLOTSTYLENAME
350
12
  3
ACAD_SCALELIST
350
14
  3
ACAD_TABLESTYLE
350
15
  3
ACAD_VISUALSTYLE
350
16
  3
EZDXF_META
350
2D
  0
DICTIONARY
  5
B
330
A
100
AcDbDictionary
281
1
  0
DICTIONARY
  5
C
330
A
100
AcDbDictionary
281
1
  0
DICTIONARY
  5
D
330
A
100
AcDbDictionary
281
1
  3
Model
350
1A
  3
Layout1
350
1E
  0
DICTIONARY
  5
E
330
A
100
AcDbDictionary
281
1
  3
ByBlock
350
1F
  3
ByLayer
350
20
  3
Global
350
21
  0
DICTIONARY
  5
F
330
A
100
AcDbDictionary
281
1
  3
Standard
350
2C
  0
DICTIONARY
  5
10
330
A
100
AcDbDictionary
281
1
  3
Standard
350
22
  0
DICTIONARY
  5
11
330
A
100
AcDbDictionary
281
1
  0
ACDBDICTIONARYWDFLT
  5
12
330
A
100
AcDbDictionary
281
1
  3
Normal
350
13
100
AcDbDictionaryWithDefault
340
13
  0
ACDBPLACEHOLDER
  5
13
330
12
  0
DICTIONARY
  5
14
330
A
100
AcDbDictionary
281
1
  0
DICTIONARY
  5
15
330
A
100
AcDbDictionary
281
1
  0
DICTIONARY
  5
16
330
A
100
AcDbDictionary
281
1
  0
LAYOUT
  5
1A
330
D
100
AcDbPlotSettings
  1

  2
Adobe PDF
  4
A3
  6

 40
7.5
 41
20.0
 42
7.5
 43
20.0
 44
420.0
 45
297.0
 46
0.0
 47
0.0
 48
0.0
 49
0.0
140
0.0
141
0.0
142
1.0
143
1.0
 70
1024
 72
1
 73
1
 74
5
  7

 75
16
 76
0
 77
2
 78
300
147
1.0
148
0.0
149
0.0
100
AcDbLayout
  1
Model
 70
1
 71
0
 10
0.0
 20
0.0
 11
420.0
 21
297.0
 12
0.0
 22
0.0
 32
0.0
 14
1e+20
 24
1e+20
 34
1e+20
 15
-1e+20
 25
-1e+20
 35
-1e+20
146
0.0
 13
0.0
 23
0.0
 33
0.0
 16
1.0
 26
0.0
 36
0.0
 17
0.0
 27
1.0
 37
0.0
 76
1
330
17
  0
LAYOUT
  5
1E
330
D
100
AcDbPlotSettings
  1

  2
Adobe PDF
  4
A3
  6

 40
7.5
 41
20.0
 42
7.5
 43
20.0
 44
420.0
 45
297.0
 46
0.0
 47
0.0
 48
0.0
 49
0.0
140
0.0
141
0.0
142
1.0
143
1.0
 70
0
 72
1
 73
1
 74
5
  7

 75
16
 76
0
 77
2
 78
300
147
1.0
148
0.0
149
0.0
100
AcDbLayout
  1
Layout1
 70
1
 71
1
 10
0.0
 20
0.0
 11
420.0
 21
297.0
 12
0.0
 22
0.0
 32
0.0
 14
1e+20
 24
1e+20
 34
1e+20
 15
-1e+20
 25
-1e+20
 35
-1e+20
146
0.0
 13
0.0
 23
0.0
 33
0.0
 16
1.0
 26
0.0
 36
0.0
 17
0.0
 27
1.0
 37
0.0
 76
1
330
1B
  0
MATERIAL
  5
1F
102
{ACAD_REACTORS
330
E
102
}
330
E
100
AcDbMaterial
  1
ByBlock
  2

 70
0
 40
1.0
 71
1
 41
1.0
 91
-1023410177
 42
1.0
 72
1
  3

 73
1
 74
1
 75
1
 44
0.5
 73
0
 45
1.0
 46
1.0
 77
1
  4

 78
1
 79
1
170
1
 48
1.0
171
1
  6

172
1
173
1
174
1
140
1.0
141
1.0
175
1
  7

176
1
177
1
178
1
143
1.0
179
1
  8

270
1
271
1
272
1
145
1.0
146
1.0
273
1
  9

274
1
275
1
276
1
 42
1.0
 72
1
  3

 73
1
 74
1
 75
1
 94
63
  0
MATERIAL
  5
20
102
{ACAD_REACTORS
330
E
102
}
330
E
100
AcDbMaterial
  1
ByLayer
  2

 70
0
 40
1.0
 71
1
 41
1.0
 91
-1023410177
 42
1.0
 72
1
  3

 73
1
 74
1
 75
1
 44
0.5
 73
0
 45
1.0
 46
1.0
 77
1
  4

 78
1
 79
1
170
1
 48
1.0
171
1
  6

172
1
173
1
174
1
140
1.0
141
1.0
175
1
  7

176
1
177
1
178
1
143
1.0
179
1
  8

270
1
271
1
272
1
145
1.0
146
1.0
273
1
  9

274
1
275
1
276
1
 42
1.0
 72
1
  3

 73
1
 74
1
 75
1
 94
63
  0
MATERIAL
  5
21
102
{ACAD_REACTORS
330
E
102
}
330
E
100
AcDbMaterial
  1
Global
  2

 70
0
 40
1.0
 71
1
 41
1.0
 91
-1023410177
 42
1.0
 72
1
  3

 73
1
 74
1
 75
1
 44
0.5
 73
0
 45
1.0
 46
1.0
 77
1
  4

 78
1
 79
1
170
1
 48
1.0
171
1
  6

172
1
173
1
174
1
140
1.0
141
1.0
175
1
  7

176
1
177
1
178
1
143
1.0
179
1
  8

270
1
271
1
272
1
145
1.0
146
1.0
273
1
  9

274
1
275
1
276
1
 42
1.0
 72
1
  3

 73
1
 74
1
 75
1
 94
63
  0
MLINESTYLE
  5
22
102
{ACAD_REACTORS
330
10
102
}
330
10
100
AcDbMlineStyle
  2
Standard
 70
0
  3

 62
256
 51
90.0
 52
90.0
 71
2
 49
0.5
 62
256
  6
BYLAYER
 49
-0.5
 62
256
  6
BYLAYER
  0
MLEADERSTYLE
  5
2C
102
{ACAD_REACTORS
330
F
102
}
330
F
100
AcDbMLeaderStyle
179
2
170
2
171
1
172
0
 90
2
 40
0.0
 41
0.0
173
1
 91
-1056964608
 92
-2
290
1
 42
2.0
291
1
 43
8.0
  3
Standard
 44
4.0
300

342
29
174
1
175
1
176
0
178
1
 93
-1056964608
 45
4.0
292
0
297
0
 46
4.0
 94
-1056964608
 47
1.0
 49
1.0
140
1.0
294
1
141
0.0
177
0
142
1.0
295
0
296
0
143
3.75
271
0
272
9
273
9
  0
DICTIONARY
  5
2D
330
A
100
AcDbDictionary
280
1
281
1
  3
CREATED_BY_EZDXF
350
2E
  3
WRITTEN_BY_EZDXF
350
167
  0
DICTIONARYVAR
  5
2E
330
2D
100
DictionaryVariables
280
0
  1
0.17 @ 2022-02-15T16:54:10.092481+00:00
  0
DICTIONARYVAR
  5
167
330
2D
100
DictionaryVariables
280
0
  1
0.17 @ 2022-02-15T16:54:10.518729+00:00
  0
ENDSEC
  0
EOF
