  0
SECTION
  2
HEADER
  9
$ACADVER
  1
AC1027
  9
$ACADMAINTVER
 70
105
  9
$DWGCODEPAGE
  3
ANSI_1252
  9
$LASTSAVEDBY
  1
ezdxf
  9
$REQUIREDVERSIONS
160
0
  9
$INSBASE
 10
0.0
 20
0.0
 30
0.0
  9
$EXTMIN
 10
1e+20
 20
1e+20
 30
1e+20
  9
$EXTMAX
 10
-1e+20
 20
-1e+20
 30
-1e+20
  9
$LIMMIN
 10
0.0
 20
0.0
  9
$LIMMAX
 10
420.0
 20
297.0
  9
$ORTHOMODE
 70
0
  9
$REGENMODE
 70
1
  9
$FILLMODE
 70
1
  9
$QTEXTMODE
 70
0
  9
$MIRRTEXT
 70
1
  9
$LTSCALE
 40
1.0
  9
$ATTMODE
 70
1
  9
$TEXTSIZE
 40
2.5
  9
$TRACEWID
 40
1.0
  9
$TEXTSTYLE
  7
Standard
  9
$CLAYER
  8
0
  9
$CELTYPE
  6
ByLayer
  9
$CECOLOR
 62
256
  9
$CELTSCALE
 40
1.0
  9
$DISPSILH
 70
0
  9
$DIMSCALE
 40
1.0
  9
$DIMASZ
 40
2.5
  9
$DIMEXO
 40
0.625
  9
$DIMDLI
 40
3.75
  9
$DIMRND
 40
0.0
  9
$DIMDLE
 40
0.0
  9
$DIMEXE
 40
1.25
  9
$DIMTP
 40
0.0
  9
$DIMTM
 40
0.0
  9
$DIMTXT
 40
2.5
  9
$DIMCEN
 40
2.5
  9
$DIMTSZ
 40
0.0
  9
$DIMTOL
 70
0
  9
$DIMLIM
 70
0
  9
$DIMTIH
 70
0
  9
$DIMTOH
 70
0
  9
$DIMSE1
 70
0
  9
$DIMSE2
 70
0
  9
$DIMTAD
 70
1
  9
$DIMZIN
 70
8
  9
$DIMBLK
  1

  9
$DIMASO
 70
1
  9
$DIMSHO
 70
1
  9
$DIMPOST
  1

  9
$DIMAPOST
  1

  9
$DIMALT
 70
0
  9
$DIMALTD
 70
3
  9
$DIMALTF
 40
0.03937007874
  9
$DIMLFAC
 40
1.0
  9
$DIMTOFL
 70
1
  9
$DIMTVP
 40
0.0
  9
$DIMTIX
 70
0
  9
$DIMSOXD
 70
0
  9
$DIMSAH
 70
0
  9
$DIMBLK1
  1

  9
$DIMBLK2
  1

  9
$DIMSTYLE
  2
ISO-25
  9
$DIMCLRD
 70
0
  9
$DIMCLRE
 70
0
  9
$DIMCLRT
 70
0
  9
$DIMTFAC
 40
1.0
  9
$DIMGAP
 40
0.625
  9
$DIMJUST
 70
0
  9
$DIMSD1
 70
0
  9
$DIMSD2
 70
0
  9
$DIMTOLJ
 70
0
  9
$DIMTZIN
 70
8
  9
$DIMALTZ
 70
0
  9
$DIMALTTZ
 70
0
  9
$DIMUPT
 70
0
  9
$DIMDEC
 70
2
  9
$DIMTDEC
 70
2
  9
$DIMALTU
 70
2
  9
$DIMALTTD
 70
3
  9
$DIMTXSTY
  7
Standard
  9
$DIMAUNIT
 70
0
  9
$DIMADEC
 70
0
  9
$DIMALTRND
 40
0.0
  9
$DIMAZIN
 70
0
  9
$DIMDSEP
 70
44
  9
$DIMATFIT
 70
3
  9
$DIMFRAC
 70
0
  9
$DIMLDRBLK
  1

  9
$DIMLUNIT
 70
2
  9
$DIMLWD
 70
-2
  9
$DIMLWE
 70
-2
  9
$DIMTMOVE
 70
0
  9
$DIMFXL
 40
1.0
  9
$DIMFXLON
 70
0
  9
$DIMJOGANG
 40
0.785398163397
  9
$DIMTFILL
 70
0
  9
$DIMTFILLCLR
 70
0
  9
$DIMARCSYM
 70
0
  9
$DIMLTYPE
  6

  9
$DIMLTEX1
  6

  9
$DIMLTEX2
  6

  9
$DIMTXTDIRECTION
 70
0
  9
$LUNITS
 70
2
  9
$LUPREC
 70
4
  9
$SKETCHINC
 40
1.0
  9
$FILLETRAD
 40
10.0
  9
$AUNITS
 70
0
  9
$AUPREC
 70
2
  9
$MENU
  1
.
  9
$ELEVATION
 40
0.0
  9
$PELEVATION
 40
0.0
  9
$THICKNESS
 40
0.0
  9
$LIMCHECK
 70
0
  9
$CHAMFERA
 40
0.0
  9
$CHAMFERB
 40
0.0
  9
$CHAMFERC
 40
0.0
  9
$CHAMFERD
 40
0.0
  9
$SKPOLY
 70
0
  9
$TDCREATE
 40
2459626.745983796
  9
$TDUCREATE
 40
2458532.153996898
  9
$TDUPDATE
 40
2459626.74599537
  9
$TDUUPDATE
 40
2458532.1544311
  9
$TDINDWG
 40
0.0
  9
$TDUSRTIMER
 40
0.0
  9
$USRTIMER
 70
1
  9
$ANGBASE
 50
0.0
  9
$ANGDIR
 70
0
  9
$PDMODE
 70
0
  9
$PDSIZE
 40
0.0
  9
$PLINEWID
 40
0.0
  9
$SPLFRAME
 70
0
  9
$SPLINETYPE
 70
6
  9
$SPLINESEGS
 70
8
  9
$HANDSEED
  5
160
  9
$SURFTAB1
 70
6
  9
$SURFTAB2
 70
6
  9
$SURFTYPE
 70
6
  9
$SURFU
 70
6
  9
$SURFV
 70
6
  9
$UCSBASE
  2

  9
$UCSNAME
  2

  9
$UCSORG
 10
0.0
 20
0.0
 30
0.0
  9
$UCSXDIR
 10
1.0
 20
0.0
 30
0.0
  9
$UCSYDIR
 10
0.0
 20
1.0
 30
0.0
  9
$UCSORTHOREF
  2

  9
$UCSORTHOVIEW
 70
0
  9
$UCSORGTOP
 10
0.0
 20
0.0
 30
0.0
  9
$UCSORGBOTTOM
 10
0.0
 20
0.0
 30
0.0
  9
$UCSORGLEFT
 10
0.0
 20
0.0
 30
0.0
  9
$UCSORGRIGHT
 10
0.0
 20
0.0
 30
0.0
  9
$UCSORGFRONT
 10
0.0
 20
0.0
 30
0.0
  9
$UCSORGBACK
 10
0.0
 20
0.0
 30
0.0
  9
$PUCSBASE
  2

  9
$PUCSNAME
  2

  9
$PUCSORG
 10
0.0
 20
0.0
 30
0.0
  9
$PUCSXDIR
 10
1.0
 20
0.0
 30
0.0
  9
$PUCSYDIR
 10
0.0
 20
1.0
 30
0.0
  9
$PUCSORTHOREF
  2

  9
$PUCSORTHOVIEW
 70
0
  9
$PUCSORGTOP
 10
0.0
 20
0.0
 30
0.0
  9
$PUCSORGBOTTOM
 10
0.0
 20
0.0
 30
0.0
  9
$PUCSORGLEFT
 10
0.0
 20
0.0
 30
0.0
  9
$PUCSORGRIGHT
 10
0.0
 20
0.0
 30
0.0
  9
$PUCSORGFRONT
 10
0.0
 20
0.0
 30
0.0
  9
$PUCSORGBACK
 10
0.0
 20
0.0
 30
0.0
  9
$USERI1
 70
0
  9
$USERI2
 70
0
  9
$USERI3
 70
0
  9
$USERI4
 70
0
  9
$USERI5
 70
0
  9
$USERR1
 40
0.0
  9
$USERR2
 40
0.0
  9
$USERR3
 40
0.0
  9
$USERR4
 40
0.0
  9
$USERR5
 40
0.0
  9
$WORLDVIEW
 70
1
  9
$SHADEDGE
 70
3
  9
$SHADEDIF
 70
70
  9
$TILEMODE
 70
1
  9
$MAXACTVP
 70
64
  9
$PINSBASE
 10
0.0
 20
0.0
 30
0.0
  9
$PLIMCHECK
 70
0
  9
$PEXTMIN
 10
1e+20
 20
1e+20
 30
1e+20
  9
$PEXTMAX
 10
-1e+20
 20
-1e+20
 30
-1e+20
  9
$PLIMMIN
 10
0.0
 20
0.0
  9
$PLIMMAX
 10
420.0
 20
297.0
  9
$UNITMODE
 70
0
  9
$VISRETAIN
 70
1
  9
$PLINEGEN
 70
0
  9
$PSLTSCALE
 70
1
  9
$TREEDEPTH
 70
3020
  9
$CMLSTYLE
  2
Standard
  9
$CMLJUST
 70
0
  9
$CMLSCALE
 40
20.0
  9
$PROXYGRAPHICS
 70
1
  9
$MEASUREMENT
 70
1
  9
$CELWEIGHT
370
-1
  9
$ENDCAPS
280
0
  9
$JOINSTYLE
280
0
  9
$LWDISPLAY
290
0
  9
$INSUNITS
 70
6
  9
$HYPERLINKBASE
  1

  9
$STYLESHEET
  1

  9
$XEDIT
290
1
  9
$CEPSNTYPE
380
0
  9
$PSTYLEMODE
290
1
  9
$FINGERPRINTGUID
  2
{2391CD3B-D193-4AA0-B54E-4D63CEE366E9}
  9
$VERSIONGUID
  2
{AC11625C-8A70-4C2A-BA54-16877605F5F5}
  9
$EXTNAMES
290
1
  9
$PSVPSCALE
 40
0.0
  9
$OLESTARTUP
290
0
  9
$SORTENTS
280
127
  9
$INDEXCTL
280
0
  9
$HIDETEXT
280
1
  9
$XCLIPFRAME
280
0
  9
$HALOGAP
280
0
  9
$OBSCOLOR
 70
257
  9
$OBSLTYPE
280
0
  9
$INTERSECTIONDISPLAY
280
0
  9
$INTERSECTIONCOLOR
 70
257
  9
$DIMASSOC
280
2
  9
$PROJECTNAME
  1

  9
$CAMERADISPLAY
290
0
  9
$LENSLENGTH
 40
50.0
  9
$CAMERAHEIGHT
 40
0.0
  9
$STEPSPERSEC
 40
24.0
  9
$STEPSIZE
 40
100.0
  9
$3DDWFPREC
 40
2.0
  9
$PSOLWIDTH
 40
0.005
  9
$PSOLHEIGHT
 40
0.08
  9
$LOFTANG1
 40
1.570796326795
  9
$LOFTANG2
 40
1.570796326795
  9
$LOFTMAG1
 40
0.0
  9
$LOFTMAG2
 40
0.0
  9
$LOFTPARAM
 70
7
  9
$LOFTNORMALS
280
1
  9
$LATITUDE
 40
37.795
  9
$LONGITUDE
 40
-122.394
  9
$NORTHDIRECTION
 40
0.0
  9
$TIMEZONE
 70
-8000
  9
$LIGHTGLYPHDISPLAY
280
1
  9
$TILEMODELIGHTSYNCH
280
1
  9
$CMATERIAL
347
20
  9
$SOLIDHIST
280
0
  9
$SHOWHIST
280
1
  9
$DWFFRAME
280
2
  9
$DGNFRAME
280
2
  9
$REALWORLDSCALE
290
1
  9
$INTERFERECOLOR
 62
256
  9
$CSHADOW
280
0
  9
$SHADOWPLANELOCATION
 40
0.0
  0
ENDSEC
  0
SECTION
  2
CLASSES
  0
CLASS
  1
ACDBDICTIONARYWDFLT
  2
AcDbDictionaryWithDefault
  3
ObjectDBX Classes
 90
0
 91
0
280
0
281
0
  0
CLASS
  1
SUN
  2
AcDbSun
  3
SCENEOE
 90
1153
 91
0
280
0
281
0
  0
CLASS
  1
VISUALSTYLE
  2
AcDbVisualStyle
  3
ObjectDBX Classes
 90
4095
 91
0
280
0
281
0
  0
CLASS
  1
MATERIAL
  2
AcDbMaterial
  3
ObjectDBX Classes
 90
1153
 91
0
280
0
281
0
  0
CLASS
  1
SCALE
  2
AcDbScale
  3
ObjectDBX Classes
 90
1153
 91
0
280
0
281
0
  0
CLASS
  1
TABLESTYLE
  2
AcDbTableStyle
  3
ObjectDBX Classes
 90
4095
 91
0
280
0
281
0
  0
CLASS
  1
MLEADERSTYLE
  2
AcDbMLeaderStyle
  3
ACDB_MLEADERSTYLE_CLASS
 90
4095
 91
0
280
0
281
0
  0
CLASS
  1
DICTIONARYVAR
  2
AcDbDictionaryVar
  3
ObjectDBX Classes
 90
0
 91
0
280
0
281
0
  0
CLASS
  1
CELLSTYLEMAP
  2
AcDbCellStyleMap
  3
ObjectDBX Classes
 90
1152
 91
0
280
0
281
0
  0
CLASS
  1
MENTALRAYRENDERSETTINGS
  2
AcDbMentalRayRenderSettings
  3
SCENEOE
 90
1024
 91
0
280
0
281
0
  0
CLASS
  1
ACDBDETAILVIEWSTYLE
  2
AcDbDetailViewStyle
  3
ObjectDBX Classes
 90
1025
 91
0
280
0
281
0
  0
CLASS
  1
ACDBSECTIONVIEWSTYLE
  2
AcDbSectionViewStyle
  3
ObjectDBX Classes
 90
1025
 91
0
280
0
281
0
  0
CLASS
  1
RASTERVARIABLES
  2
AcDbRasterVariables
  3
ISM
 90
0
 91
0
280
0
281
0
  0
CLASS
  1
ACDBPLACEHOLDER
  2
AcDbPlaceHolder
  3
ObjectDBX Classes
 90
0
 91
0
280
0
281
0
  0
CLASS
  1
LAYOUT
  2
AcDbLayout
  3
ObjectDBX Classes
 90
0
 91
0
280
0
281
0
  0
ENDSEC
  0
SECTION
  2
TABLES
  0
TABLE
  2
VPORT
  5
8
330
0
100
AcDbSymbolTable
 70
1
  0
VPORT
  5
23
330
8
100
AcDbSymbolTableRecord
100
AcDbViewportTableRecord
  2
*Active
 70
0
 10
0.0
 20
0.0
 11
1.0
 21
1.0
 12
344.2
 22
148.5
 13
0.0
 23
0.0
 14
0.5
 24
0.5
 15
0.5
 25
0.5
 16
0.0
 26
0.0
 36
1.0
 17
0.0
 27
0.0
 37
0.0
 40
297.0
 41
1.34
 42
50.0
 43
0.0
 44
0.0
 50
0.0
 51
0.0
 71
0
 72
1000
 73
1
 74
3
 75
0
 76
0
 77
0
 78
0
281
0
 65
0
146
0.0
  0
ENDTAB
  0
TABLE
  2
LTYPE
  5
2
330
0
100
AcDbSymbolTable
 70
3
  0
LTYPE
  5
24
330
2
100
AcDbSymbolTableRecord
100
AcDbLinetypeTableRecord
  2
ByBlock
 70
0
  3

 72
65
 73
0
 40
0.0
  0
LTYPE
  5
25
330
2
100
AcDbSymbolTableRecord
100
AcDbLinetypeTableRecord
  2
ByLayer
 70
0
  3

 72
65
 73
0
 40
0.0
  0
LTYPE
  5
26
330
2
100
AcDbSymbolTableRecord
100
AcDbLinetypeTableRecord
  2
Continuous
 70
0
  3

 72
65
 73
0
 40
0.0
  0
ENDTAB
  0
TABLE
  2
LAYER
  5
1
330
0
100
AcDbSymbolTable
 70
2
  0
LAYER
  5
27
330
1
100
AcDbSymbolTableRecord
100
AcDbLayerTableRecord
  2
0
 70
0
 62
7
  6
Continuous
370
-3
390
13
347
21
  0
LAYER
  5
28
330
1
100
AcDbSymbolTableRecord
100
AcDbLayerTableRecord
  2
Defpoints
 70
0
 62
7
  6
Continuous
290
0
370
-3
390
13
347
21
  0
ENDTAB
  0
TABLE
  2
STYLE
  5
5
330
0
100
AcDbSymbolTable
 70
1
  0
STYLE
  5
29
330
5
100
AcDbSymbolTableRecord
100
AcDbTextStyleTableRecord
  2
Standard
 70
0
 40
0.0
 41
1.0
 50
0.0
 71
0
 42
2.5
  3
txt
  4

  0
ENDTAB
  0
TABLE
  2
VIEW
  5
7
330
0
100
AcDbSymbolTable
 70
0
  0
ENDTAB
  0
TABLE
  2
UCS
  5
6
330
0
100
AcDbSymbolTable
 70
0
  0
ENDTAB
  0
TABLE
  2
APPID
  5
3
330
0
100
AcDbSymbolTable
 70
3
  0
APPID
  5
2A
330
3
100
AcDbSymbolTableRecord
100
AcDbRegAppTableRecord
  2
ACAD
 70
0
  0
APPID
  5
15D
330
3
100
AcDbSymbolTableRecord
100
AcDbRegAppTableRecord
  2
HATCHBACKGROUNDCOLOR
 70
0
  0
APPID
  5
15E
330
3
100
AcDbSymbolTableRecord
100
AcDbRegAppTableRecord
  2
EZDXF
 70
0
  0
ENDTAB
  0
TABLE
  2
DIMSTYLE
  5
4
330
0
100
AcDbSymbolTable
 70
1
100
AcDbDimStyleTable
  0
DIMSTYLE
105
2B
330
4
100
AcDbSymbolTableRecord
100
AcDbDimStyleTableRecord
  2
Standard
 70
0
 40
1.0
 41
2.5
 42
0.625
 43
3.75
 44
1.25
 45
0.0
 46
0.0
 47
0.0
 48
0.0
 49
2.5
140
2.5
141
2.5
142
0.0
143
0.03937007874
144
1.0
145
0.0
146
1.0
147
0.625
148
0.0
 69
0
 70
0
 71
0
 72
0
 73
0
 74
0
 75
0
 76
0
 77
1
 78
8
 79
0
170
0
171
3
172
1
173
0
174
0
175
0
176
0
177
0
178
0
179
0
271
0
272
2
273
2
274
3
275
0
276
0
277
2
278
44
279
0
280
0
281
0
282
0
283
0
284
8
285
0
286
0
288
0
289
3
290
0
371
-2
372
-2
  0
ENDTAB
  0
TABLE
  2
BLOCK_RECORD
  5
9
330
0
100
AcDbSymbolTable
 70
2
  0
BLOCK_RECORD
  5
17
330
9
100
AcDbSymbolTableRecord
100
AcDbBlockTableRecord
  2
*Model_Space
340
1A
 70
0
280
1
281
0
  0
BLOCK_RECORD
  5
1B
330
9
100
AcDbSymbolTableRecord
100
AcDbBlockTableRecord
  2
*Paper_Space
340
1E
 70
0
280
1
281
0
  0
ENDTAB
  0
ENDSEC
  0
SECTION
  2
BLOCKS
  0
BLOCK
  5
18
330
17
100
AcDbEntity
  8
0
100
AcDbBlockBegin
  2
*Model_Space
 70
0
 10
0.0
 20
0.0
 30
0.0
  3
*Model_Space
  1

  0
ENDBLK
  5
19
330
17
100
AcDbEntity
  8
0
100
AcDbBlockEnd
  0
BLOCK
  5
1C
330
1B
100
AcDbEntity
  8
0
100
AcDbBlockBegin
  2
*Paper_Space
 70
0
 10
0.0
 20
0.0
 30
0.0
  3
*Paper_Space
  1

  0
ENDBLK
  5
1D
330
1B
100
AcDbEntity
  8
0
100
AcDbBlockEnd
  0
ENDSEC
  0
SECTION
  2
ENTITIES
  0
SPLINE
  5
2F
330
17
100
AcDbEntity
  8
0
100
AcDbSpline
 70
0
 71
8
 72
88
 73
79
 74
0
 40
0.0
 40
0.0
 40
0.0
 40
0.0
 40
0.0
 40
0.0
 40
0.0
 40
0.0
 40
0.0
 40
0.2641264258265353
 40
0.2641264258265353
 40
0.2641264258265353
 40
0.2641264258265353
 40
0.2641264258265353
 40
0.2641264258265353
 40
0.2641264258265353
 40
0.5196945722903935
 40
0.5196945722903935
 40
0.5196945722903935
 40
0.5196945722903935
 40
0.5196945722903935
 40
0.5196945722903935
 40
0.5196945722903935
 40
0.6315277754436831
 40
0.6315277754436831
 40
0.6315277754436831
 40
0.6315277754436831
 40
0.6315277754436831
 40
0.6315277754436831
 40
0.6315277754436831
 40
0.7434104079602154
 40
0.7434104079602154
 40
0.7434104079602154
 40
0.7434104079602154
 40
0.7434104079602154
 40
0.7434104079602154
 40
0.7434104079602154
 40
0.860371161573231
 40
0.860371161573231
 40
0.860371161573231
 40
0.860371161573231
 40
0.860371161573231
 40
0.860371161573231
 40
0.860371161573231
 40
0.9217386303419322
 40
0.9217386303419322
 40
0.9217386303419322
 40
0.9217386303419322
 40
0.9217386303419322
 40
0.9217386303419322
 40
0.9217386303419322
 40
0.9535380194472718
 40
0.9535380194472718
 40
0.9535380194472718
 40
0.9535380194472718
 40
0.9535380194472718
 40
0.9535380194472718
 40
0.9535380194472718
 40
0.9785433420693109
 40
0.9785433420693109
 40
0.9785433420693109
 40
0.9785433420693109
 40
0.9785433420693109
 40
0.9785433420693109
 40
0.9785433420693109
 40
0.9884806415668919
 40
0.9884806415668919
 40
0.9884806415668919
 40
0.9884806415668919
 40
0.9884806415668919
 40
0.9884806415668919
 40
0.9884806415668919
 40
0.9931539257286183
 40
0.9931539257286183
 40
0.9931539257286183
 40
0.9931539257286183
 40
0.9931539257286183
 40
0.9931539257286183
 40
0.9931539257286183
 40
1.0
 40
1.0
 40
1.0
 40
1.0
 40
1.0
 40
1.0
 40
1.0
 40
1.0
 40
1.0
 10
1966.9000000000005
 20
86.08373599023189
 30
52.0
 10
1967.3455071914573
 20
86.22412372007224
 30
52.0
 10
1967.790910975923
 20
86.36480625127372
 30
52.0
 10
1968.236209972126
 20
86.50578416944438
 30
52.0
 10
1968.681402504565
 20
86.64705793816279
 30
52.0
 10
1969.1264865929443
 20
86.78862789718877
 30
52.0
 10
1969.5714599037058
 20
86.9304942435504
 30
52.0
 10
1970.0163196636825
 20
87.07265699550851
 30
52.0
 10
1970.8913947569908
 20
87.3529588989693
 30
52.0
 10
1971.3216164621888
 20
87.49107882131096
 30
52.0
 10
1971.7517255488997
 20
87.62947580514977
 30
52.0
 10
1972.1817185744324
 20
87.76814948367812
 30
52.0
 10
1972.6115903367497
 20
87.90709886716637
 30
52.0
 10
1973.041333809946
 20
88.04632231085509
 30
52.0
 10
1973.470939536855
 20
88.18581728813669
 30
52.0
 10
1974.0883169280373
 20
88.38673778910932
 30
52.0
 10
1974.2762109495225
 20
88.44794703432635
 30
52.0
 10
1974.4640747339186
 20
88.509207140937
 30
52.0
 10
1974.6519056103075
 20
88.57051719224626
 30
52.0
 10
1974.8397034966904
 20
88.63187729852659
 30
52.0
 10
1975.0274652946036
 20
88.69328641405215
 30
52.0
 10
1975.2151891004435
 20
88.7547439747334
 30
52.0
 10
1975.5906376481084
 20
88.87778122520756
 30
52.0
 10
1975.7783617803657
 20
88.93936077005601
 30
52.0
 10
1975.966041956219
 20
89.00098689926062
 30
52.0
 10
1976.1536746832792
 20
89.06265848524934
 30
52.0
 10
1976.3412552935774
 20
89.12437400648439
 30
52.0
 10
1976.5287777534866
 20
89.18613148126491
 30
52.0
 10
1976.716234304458
 20
89.24792834462014
 30
52.0
 10
1977.0995003836003
 20
89.37440066037871
 30
52.0
 10
1977.295291690576
 20
89.43907577382302
 30
52.0
 10
1977.4909876534057
 20
89.50378616852169
 30
52.0
 10
1977.6865772801557
 20
89.5685281765858
 30
52.0
 10
1977.882035005465
 20
89.63329327363938
 30
52.0
 10
1978.0773217596154
 20
89.69806840952275
 30
52.0
 10
1978.272380287777
 20
89.76283440766207
 30
52.0
 10
1978.5692863711831
 20
89.86151827836557
 30
52.0
 10
1978.6713523031908
 20
89.89546062028012
 30
52.0
 10
1978.7733098459807
 20
89.92938515324734
 30
52.0
 10
1978.8751442198134
 20
89.96328690899432
 30
52.0
 10
1978.976819849071
 20
89.99715397406607
 30
52.0
 10
1979.0782821509695
 20
90.0309680685304
 30
52.0
 10
1979.179450865064
 20
90.06470228781079
 30
52.0
 10
1979.3323873402323
 20
90.1157251451841
 30
52.0
 10
1979.3844478903611
 20
90.13309843387293
 30
52.0
 10
1979.436367089841
 20
90.15042930359485
 30
52.0
 10
1979.4881237733346
 20
90.1677106508507
 30
52.0
 10
1979.5396693324
 20
90.18492619432756
 30
52.0
 10
1979.5909294434657
 20
90.20205103909277
 30
52.0
 10
1979.641795559068
 20
90.21904881064928
 30
52.0
 10
1979.7316312709022
 20
90.24907678108883
 30
52.0
 10
1979.7704598008802
 20
90.26205813119175
 30
52.0
 10
1979.808846913967
 20
90.27489451138348
 30
52.0
 10
1979.8468024370425
 20
90.28758914115122
 30
52.0
 10
1979.8840169017553
 20
90.30003845899803
 30
52.0
 10
1979.9198710744618
 20
90.31203511904663
 30
52.0
 10
1979.9533559480014
 20
90.32324103484024
 30
52.0
 10
1979.9944321986345
 20
90.33698931443342
 30
52.0
 10
1980.0054682899668
 20
90.34068335000224
 30
52.0
 10
1980.0156682668962
 20
90.3440977301218
 30
52.0
 10
1980.0248498429378
 20
90.3471713797672
 30
52.0
 10
1980.0328433028383
 20
90.34984741640254
 30
52.0
 10
1980.039534862605
 20
90.35208768209583
 30
52.0
 10
1980.044912224933
 20
90.35388801133293
 30
52.0
 10
1980.0510333248226
 20
90.35593737703813
 30
52.0
 10
1980.0527067550577
 20
90.3564976538594
 30
52.0
 10
1980.054119896
 20
90.35697078847323
 30
52.0
 10
1980.0552968828852
 20
90.357364859147
 30
52.0
 10
1980.0562618346346
 20
90.3576879393427
 30
52.0
 10
1980.0570388538565
 20
90.35794809771699
 30
52.0
 10
1980.057652026843
 20
90.35815339812106
 30
52.0
 10
1980.058818920707
 20
90.3585440945335
 30
52.0
 10
1980.059065366458
 20
90.35861234897177
 30
52.0
 10
1980.0591177567187
 20
90.3586213294703
 30
52.0
 10
1980.0591437068085
 20
90.35863685235995
 30
52.0
 10
1980.0592254514777
 20
90.35868588374764
 30
52.0
 10
1980.0593598449068
 20
90.3587565395164
 30
52.0
 10
1980.0594583607035
 20
90.35879808532529
 30
52.0
 10
1980.0593470919068
 20
90.35872093660942
 30
52.0
  0
LINE
  5
30
330
17
100
AcDbEntity
  8
0
100
AcDbLine
 10
1966.9
 20
94.39537539446587
 30
52.0
 11
1966.9
 21
86.08373599023354
 31
52.0
  0
SPLINE
  5
31
330
17
100
AcDbEntity
  8
0
100
AcDbSpline
 70
0
 71
4
 72
10
 73
5
 74
0
 40
0.0
 40
0.0
 40
0.0
 40
0.0
 40
0.0
 40
1.0
 40
1.0
 40
1.0
 40
1.0
 40
1.0
 10
1963.0999994145643
 20
93.45193889817801
 30
52.0
 10
1964.0502073030004
 20
93.68672685846022
 30
52.0
 10
1965.000277273692
 20
93.92222801140622
 30
52.0
 10
1965.9502086084444
 20
94.15844376423546
 30
52.0
 10
1966.90000058524
 20
94.39537551679001
 30
52.0
  0
LINE
  5
32
330
17
100
AcDbEntity
  8
0
100
AcDbLine
 10
1963.1
 20
93.45193906516663
 30
52.0
 11
1963.1
 21
84.89661674486379
 31
52.0
  0
SPLINE
  5
33
330
17
100
AcDbEntity
  8
0
100
AcDbSpline
 70
0
 71
5
 72
24
 73
18
 74
0
 40
0.0
 40
0.0
 40
0.0
 40
0.0
 40
0.0
 40
0.0
 40
0.23554013988754907
 40
0.23554013988754907
 40
0.23554013988754907
 40
0.23554013988754907
 40
0.4803177939371698
 40
0.4803177939371698
 40
0.4803177939371698
 40
0.4803177939371698
 40
0.7354956883406133
 40
0.7354956883406133
 40
0.7354956883406133
 40
0.7354956883406133
 40
1.0
 40
1.0
 40
1.0
 40
1.0
 40
1.0
 40
1.0
 10
1963.099999999997
 20
84.89661674487415
 30
52.0
 10
1962.0585804106681
 20
84.57408471042814
 30
52.0
 10
1961.0165909976245
 20
84.25328262536196
 30
52.0
 10
1959.9740481047181
 20
83.9341963508271
 30
52.0
 10
1958.9309654693202
 20
83.6168101277896
 30
52.0
 10
1956.8028160740157
 20
82.97302341210109
 30
52.0
 10
1955.7177072565632
 20
82.64675760220037
 30
52.0
 10
1954.6320423796699
 20
82.32229151971032
 30
52.0
 10
1953.5458339731026
 20
81.99960599023868
 30
52.0
 10
1951.3261793486945
 20
81.34412160227635
 30
52.0
 10
1950.1926870249915
 20
81.0114755952496
 30
52.0
 10
1949.0586298934668
 20
80.68072158400824
 30
52.0
 10
1947.9240204213752
 20
80.35183738232584
 30
52.0
 10
1945.6122321362968
 20
79.68581163653299
 30
52.0
 10
1944.435013116182
 20
79.34880763575282
 30
51.999999999999986
 10
1943.2572264877515
 20
79.0137642418626
 30
51.99999999999998
 10
1942.0788847999954
 20
78.68065702899587
 30
51.99999999999997
 10
1940.9000000036253
 20
78.3494617880706
 30
51.999999999999964
  0
LINE
  5
34
330
17
100
AcDbEntity
  8
0
100
AcDbLine
 10
1940.9
 20
88.1178315875131
 30
52.0
 11
1940.9
 21
78.34946180097606
 31
52.0
  0
SPLINE
  5
35
330
17
100
AcDbEntity
  8
0
100
AcDbSpline
 70
0
 71
4
 72
10
 73
5
 74
0
 40
0.0
 40
0.0
 40
0.0
 40
0.0
 40
0.0
 40
1.0
 40
1.0
 40
1.0
 40
1.0
 40
1.0
 10
1937.099999413285
 20
87.23473656362306
 30
52.0
 10
1938.0501917307201
 20
87.45447436472463
 30
52.0
 10
1939.0002564890149
 20
87.67490186845632
 30
52.0
 10
1939.9501930037236
 20
87.89602051056569
 30
52.0
 10
1940.9000005865037
 20
88.11783172018028
 30
52.0
  0
LINE
  5
36
330
17
100
AcDbEntity
  8
0
100
AcDbLine
 10
1937.1
 20
87.23473672718586
 30
52.0
 11
1937.1
 21
77.29038924015083
 31
52.0
  0
SPLINE
  5
37
330
17
100
AcDbEntity
  8
0
100
AcDbSpline
 70
0
 71
4
 72
19
 73
14
 74
0
 40
0.0
 40
0.0
 40
0.0
 40
0.0
 40
0.0
 40
0.23800082439687656
 40
0.23800082439687656
 40
0.23800082439687656
 40
0.48392330932196376
 40
0.48392330932196376
 40
0.48392330932196376
 40
0.7379067552773447
 40
0.7379067552773447
 40
0.7379067552773447
 40
1.0
 40
1.0
 40
1.0
 40
1.0
 40
1.0
 10
1937.0999999975975
 20
77.29038924884027
 30
52.0
 10
1935.7831236221045
 20
76.92628759872295
 30
52.0
 10
1934.4655559454088
 20
76.56466347398428
 30
52.0
 10
1933.147317055805
 20
76.20547479002536
 30
52.0
 10
1930.4656359203777
 20
75.48001123948897
 30
52.0
 10
1929.1021495167356
 20
75.11389845007007
 30
52.0
 10
1927.7379869423444
 20
74.75029753762989
 30
52.0
 10
1924.9636108589257
 20
74.0161958788016
 30
52.0
 10
1923.5533535722075
 20
73.6458596329011
 30
52.0
 10
1922.1424163727052
 20
73.27810915989858
 30
52.0
 10
1919.2741480790871
 20
72.5360277254053
 30
52.0
 10
1917.8167741409904
 20
72.16186157908271
 30
52.0
 10
1916.3587182009383
 20
71.79035085504151
 30
52.0
 10
1914.8999999948949
 20
71.42144808252034
 30
52.0
  0
LINE
  5
38
330
17
100
AcDbEntity
  8
0
100
AcDbLine
 10
1914.9
 20
82.2464606281374
 30
52.0
 11
1914.9
 21
71.42144806233418
 31
52.0
  0
SPLINE
  5
39
330
17
100
AcDbEntity
  8
0
100
AcDbSpline
 70
0
 71
4
 72
10
 73
5
 74
0
 40
0.0
 40
0.0
 40
0.0
 40
0.0
 40
0.0
 40
1.0
 40
1.0
 40
1.0
 40
1.0
 40
1.0
 10
1911.0999994121132
 20
81.42142614368835
 30
52.0
 10
1912.0501770144072
 20
81.62668391605374
 30
52.0
 10
1913.0002368458547
 20
81.83260796976532
 30
52.0
 10
1913.9501782553218
 20
82.03919976502495
 30
52.0
 10
1914.900000587735
 20
82.24646075612432
 30
52.0
  0
LINE
  5
3A
330
17
100
AcDbEntity
  8
0
100
AcDbLine
 10
1911.1
 20
81.42142627068388
 30
52.0
 11
1911.1
 21
70.46744604333671
 31
52.0
  0
SPLINE
  5
3B
330
17
100
AcDbEntity
  8
0
100
AcDbSpline
 70
0
 71
4
 72
19
 73
14
 74
0
 40
0.0
 40
0.0
 40
0.0
 40
0.0
 40
0.0
 40
0.24018125596956122
 40
0.24018125596956122
 40
0.24018125596956122
 40
0.486855314049481
 40
0.486855314049481
 40
0.486855314049481
 40
0.7401117344353457
 40
0.7401117344353457
 40
0.7401117344353457
 40
1.0
 40
1.0
 40
1.0
 40
1.0
 40
1.0
 10
1911.0999999999974
 20
70.46744604334637
 30
52.0
 10
1909.7700555843878
 20
70.13598703419731
 30
52.0
 10
1908.4395824221472
 20
69.80664169755714
 30
52.0
 10
1907.1085946707776
 20
69.479375431489
 30
52.0
 10
1904.4096223769222
 20
68.82014322672586
 30
52.0
 10
1903.041610362409
 20
68.4882894076828
 30
52.0
 10
1901.673083809296
 20
68.15855791502705
 30
52.0
 10
1898.8984965429238
 20
67.49452833594263
 30
52.0
 10
1897.4924087268441
 20
67.16034318350414
 30
52.0
 10
1896.0858070327586
 20
66.82832225068543
 30
52.0
 10
1893.2347559416476
 20
66.15990006019783
 30
52.0
 10
1891.7902800061813
 20
65.82361173363132
 30
52.0
 10
1890.3452913206906
 20
65.48952866220837
 30
52.0
 10
1888.899804845505
 20
65.1576084857068
 30
52.0
  0
LINE
  5
3C
330
17
100
AcDbEntity
  8
0
100
AcDbLine
 10
1888.9
 20
76.76579514599894
 30
52.0
 11
1888.9
 21
65.15765329809801
 31
52.0
  0
SPLINE
  5
3D
330
17
100
AcDbEntity
  8
0
100
AcDbSpline
 70
0
 71
4
 72
10
 73
5
 74
0
 40
0.0
 40
0.0
 40
0.0
 40
0.0
 40
0.0
 40
1.0
 40
1.0
 40
1.0
 40
1.0
 40
1.0
 10
1885.099999410963
 20
75.99658732886134
 30
52.0
 10
1886.0501631222946
 20
76.18792341518169
 30
52.0
 10
1887.0002183019835
 20
76.37990244704537
 30
52.0
 10
1887.9501643316294
 20
76.57252590536895
 30
52.0
 10
1888.9000005888797
 20
76.76579526582212
 30
52.0
  0
LINE
  5
3E
330
17
100
AcDbEntity
  8
0
100
AcDbLine
 10
1885.1
 20
75.99658744747668
 30
52.0
 11
1885.1
 21
64.29092823462084
 31
52.0
  0
SPLINE
  5
3F
330
17
100
AcDbEntity
  8
0
100
AcDbSpline
 70
0
 71
4
 72
19
 73
14
 74
0
 40
0.0
 40
0.0
 40
0.0
 40
0.0
 40
0.0
 40
0.24197890590893747
 40
0.24197890590893747
 40
0.24197890590893747
 40
0.4893165404307387
 40
0.4893165404307387
 40
0.4893165404307387
 40
0.7419990999335991
 40
0.7419990999335991
 40
0.7419990999335991
 40
1.0
 40
1.0
 40
1.0
 40
1.0
 40
1.0
 10
1885.0999999999992
 20
64.29092823462447
 30
52.0
 10
1883.759393113989
 20
63.98720158507434
 30
52.0
 10
1882.418374099459
 20
63.68529012338486
 30
52.0
 10
1881.0769535497707
 20
63.385164458000865
 30
52.0
 10
1878.3636137274993
 20
62.78182321569659
 30
52.0
 10
1876.9916769100741
 20
62.47868639809991
 30
52.0
 10
1875.61934103103
 20
62.17735830205122
 30
52.0
 10
1872.8442256807368
 20
61.57179350606546
 30
52.0
 10
1871.441429193571
 20
61.26763465709887
 30
52.0
 10
1870.0382361561174
 20
60.965307713718765
 30
52.0
 10
1867.2015335775036
 20
60.35794049406604
 30
52.0
 10
1865.7680075674493
 20
60.05297701855593
 30
52.0
 10
1864.3340876051393
 20
59.74986869574627
 30
52.0
 10
1862.8997827458477
 20
59.44858996251851
 30
52.0
  0
LINE
  5
40
330
17
100
AcDbEntity
  8
0
100
AcDbLine
 10
1862.9
 20
71.66068203619125
 30
52.0
 11
1862.9
 21
59.448635614654094
 31
52.0
  0
SPLINE
  5
41
330
17
100
AcDbEntity
  8
0
100
AcDbSpline
 70
0
 71
4
 72
10
 73
5
 74
0
 40
0.0
 40
0.0
 40
0.0
 40
0.0
 40
0.0
 40
1.0
 40
1.0
 40
1.0
 40
1.0
 40
1.0
 10
1859.099999409865
 20
70.94511146830015
 30
52.0
 10
1860.0501500223975
 20
71.12307307652905
 30
52.0
 10
1861.0002008148347
 20
71.30165439449797
 30
52.0
 10
1861.9501512008103
 20
71.4808569204241
 30
52.0
 10
1862.9000005900211
 20
71.66068214789387
 30
52.0
  0
LINE
  5
42
330
17
100
AcDbEntity
  8
0
100
AcDbLine
 10
1859.1
 20
70.94511157883144
 30
52.0
 11
1859.1
 21
58.655431769248956
 31
52.0
  0
SPLINE
  5
43
330
17
100
AcDbEntity
  8
0
100
AcDbSpline
 70
0
 71
4
 72
19
 73
14
 74
0
 40
0.0
 40
0.0
 40
0.0
 40
0.0
 40
0.0
 40
0.24334860941421046
 40
0.24334860941421046
 40
0.24334860941421046
 40
0.4911450497811748
 40
0.4911450497811748
 40
0.4911450497811748
 40
0.7433749950644706
 40
0.7433749950644706
 40
0.7433749950644706
 40
1.0
 40
1.0
 40
1.0
 40
1.0
 40
1.0
 10
1859.1000000050979
 20
58.65543174467269
 30
52.0
 10
1857.7513353486222
 20
58.375675105387714
 30
52.0
 10
1856.4023410538944
 20
58.097505302013936
 30
52.0
 10
1855.0530242211466
 20
57.82090230073674
 30
52.0
 10
1852.329090661721
 20
57.26576500064127
 30
52.0
 10
1850.9544622809526
 20
56.9872878131106
 30
52.0
 10
1849.5795133112583
 20
56.710395981030516
 30
52.0
 10
1846.8043813692966
 20
56.15482006221157
 30
52.0
 10
1845.404187059497
 20
55.87619254112429
 30
52.0
 10
1844.0036741779882
 20
55.59916900277265
 30
52.0
 10
1841.17761494226
 20
55.043494026802534
 30
52.0
 10
1839.7520576179327
 20
54.764898318558814
 30
52.0
 10
1838.326183869386
 20
54.48792498751017
 30
52.0
 10
1836.8999999999992
 20
54.21255600344868
 30
52.0
  0
LINE
  5
44
330
17
100
AcDbEntity
  8
0
100
AcDbLine
 10
1836.9
 20
66.91626502051422
 30
52.0
 11
1836.9
 21
54.21255600344358
 31
52.0
  0
SPLINE
  5
45
330
17
100
AcDbEntity
  8
0
100
AcDbSpline
 70
0
 71
4
 72
10
 73
5
 74
0
 40
0.0
 40
0.0
 40
0.0
 40
0.0
 40
0.0
 40
1.0
 40
1.0
 40
1.0
 40
1.0
 40
1.0
 10
1833.099999408819
 20
66.25218425230457
 30
52.0
 10
1834.0501376824882
 20
66.41730807931528
 30
52.0
 10
1835.0001843415012
 20
66.58302849264916
 30
52.0
 10
1835.9501388307208
 20
66.74934700472413
 30
52.0
 10
1836.9000005911132
 20
66.91626512389689
 30
52.0
  0
LINE
  5
46
330
17
100
AcDbEntity
  8
0
100
AcDbLine
 10
1833.1
 20
66.25218435640662
 30
52.0
 11
1833.1
 21
53.483254642861375
 31
52.0
  0
SPLINE
  5
47
330
17
100
AcDbEntity
  8
0
100
AcDbSpline
 70
0
 71
4
 72
19
 73
14
 74
0
 40
0.0
 40
0.0
 40
0.0
 40
0.0
 40
0.0
 40
0.24430713817812652
 40
0.24430713817812652
 40
0.24430713817812652
 40
0.49242659532033595
 40
0.49242659532033595
 40
0.49242659532033595
 40
0.7443356443686385
 40
0.7443356443686385
 40
0.7443356443686385
 40
1.0
 40
1.0
 40
1.0
 40
1.0
 40
1.0
 10
1833.0999999999963
 20
53.48325464288133
 30
52.0
 10
1831.7456843173086
 20
53.22489431861635
 30
52.0
 10
1830.3910966130566
 20
52.96795836821519
 30
52.0
 10
1829.036242022042
 20
52.712432142209586
 30
52.0
 10
1826.3048627033056
 20
52.20020567393571
 30
52.0
 10
1824.928329732797
 20
51.94354934182046
 30
52.0
 10
1823.5515315648938
 20
51.688318171614206
 30
52.0
 10
1820.7763822348031
 20
51.17680203607912
 30
52.0
 10
1819.378023058297
 20
50.92056051179342
 30
52.0
 10
1817.979400461202
 20
50.66575948595709
 30
52.0
 10
1815.1607842042101
 20
50.15523411310048
 30
52.00000000000001
 10
1813.7407827767368
 20
49.89955261233909
 30
52.0
 10
1812.3205198159126
 20
49.645326716629384
 30
52.0
 10
1810.8999999999996
 20
49.39254290894226
 30
52.0
  0
LINE
  5
48
330
17
100
AcDbEntity
  8
0
100
AcDbLine
 10
1810.9
 20
62.51796798429814
 30
52.0
 11
1810.9
 21
49.3925429089402
 31
52.0
  0
SPLINE
  5
49
330
17
100
AcDbEntity
  8
0
100
AcDbSpline
 70
0
 71
4
 72
10
 73
5
 74
0
 40
0.0
 40
0.0
 40
0.0
 40
0.0
 40
0.0
 40
1.0
 40
1.0
 40
1.0
 40
1.0
 40
1.0
 10
1807.0999994077938
 20
61.90326916125839
 30
52.0
 10
1808.0501260702576
 20
62.05608198926453
 30
52.0
 10
1809.0001688389648
 20
62.20946840290653
 30
52.0
 10
1809.9501271891152
 20
62.363429926005544
 30
52.0
 10
1810.900000592071
 20
62.51796807884481
 30
52.0
  0
LINE
  5
4A
330
17
100
AcDbEntity
  8
0
100
AcDbLine
 10
1807.1
 20
61.90326925700781
 30
52.0
 11
1807.1
 21
48.72030104752471
 31
52.0
  0
SPLINE
  5
4B
330
17
100
AcDbEntity
  8
0
100
AcDbSpline
 70
0
 71
4
 72
19
 73
14
 74
0
 40
0.0
 40
0.0
 40
0.0
 40
0.0
 40
0.0
 40
0.24503307323120557
 40
0.24503307323120557
 40
0.24503307323120557
 40
0.49338553122429946
 40
0.49338553122429946
 40
0.49338553122429946
 40
0.7450483469034513
 40
0.7450483469034513
 40
0.7450483469034513
 40
1.0
 40
1.0
 40
1.0
 40
1.0
 40
1.0
 10
1807.0999999999995
 20
48.72030104752671
 30
52.0
 10
1805.7414072198908
 20
48.48137257994484
 30
52.0
 10
1804.3825852624686
 20
48.24374611270823
 30
52.0
 10
1803.0235380436347
 20
48.007410385792625
 30
52.0
 10
1800.2865869854875
 20
47.53411452988737
 30
52.0
 10
1798.908677102223
 20
47.2971893228185
 30
52.0
 10
1797.5305435404182
 20
47.061567723517356
 30
52.0
 10
1794.7554639978562
 20
46.5897869310564
 30
52.0
 10
1793.3585121142082
 20
46.35366243353752
 30
52.0
 10
1791.9613381876466
 20
46.118854427567825
 30
52.0
 10
1789.1482918434913
 20
45.648798693623036
 30
52.0
 10
1787.7324136830166
 20
45.413585307490294
 30
52.0
 10
1786.3163151904103
 20
45.17970118327873
 30
52.0
 10
1784.899999999995
 20
44.947135731899145
 30
52.0
  0
LINE
  5
4C
330
17
100
AcDbEntity
  8
0
100
AcDbLine
 10
1784.9
 20
58.45147903317143
 30
52.0
 11
1784.9
 21
44.947135731868144
 31
52.0
  0
SPLINE
  5
4D
330
17
100
AcDbEntity
  8
0
100
AcDbSpline
 70
0
 71
4
 72
10
 73
5
 74
0
 40
0.0
 40
0.0
 40
0.0
 40
0.0
 40
0.0
 40
1.0
 40
1.0
 40
1.0
 40
1.0
 40
1.0
 10
1781.0999994068807
 20
57.88409162530388
 30
52.0
 10
1782.0501151536225
 20
58.02511089300953
 30
52.0
 10
1783.0001542644795
 20
58.1666808767859
 30
52.0
 10
1783.9501162440206
 20
58.30880310934892
 30
52.0
 10
1784.900000593056
 20
58.451479120355266
 30
52.0
  0
LINE
  5
4E
330
17
100
AcDbEntity
  8
0
100
AcDbLine
 10
1781.1
 20
57.88409171490052
 30
52.0
 11
1781.1
 21
44.32679980202789
 31
52.0
  0
SPLINE
  5
4F
330
17
100
AcDbEntity
  8
0
100
AcDbSpline
 70
0
 71
4
 72
19
 73
14
 74
0
 40
0.0
 40
0.0
 40
0.0
 40
0.0
 40
0.0
 40
0.245587789187838
 40
0.245587789187838
 40
0.245587789187838
 40
0.494125125523209
 40
0.494125125523209
 40
0.494125125523209
 40
0.7456025838581983
 40
0.7456025838581983
 40
0.7456025838581983
 40
1.0
 40
1.0
 40
1.0
 40
1.0
 40
1.0
 10
1781.099999999987
 20
44.32679980210881
 30
52.0
 10
1779.7381343553561
 20
44.10578021513418
 30
52.0
 10
1778.376072897333
 20
43.885966281135936
 30
52.0
 10
1777.0138187298646
 20
43.66734902165211
 30
52.0
 10
1774.2725677925046
 20
43.22987905901539
 30
52.0
 10
1772.8935664364112
 20
43.011055072983375
 30
52.0
 10
1771.5143738624774
 20
42.79343877639218
 30
52.0
 10
1768.7392945308284
 20
42.35804419025299
 30
52.0
 10
1767.343403293015
 20
42.14029443713212
 30
52.0
 10
1765.947322376155
 20
41.92376337935145
 30
52.0
 10
1763.1385746917686
 20
41.49062141105934
 30
52.0
 10
1761.725903564322
 20
41.274038753466925
 30
52.0
 10
1760.3130443600774
 20
41.058685685387616
 30
52.0
 10
1758.9000000000037
 20
40.84455363219317
 30
52.0
  0
LINE
  5
50
330
17
100
AcDbEntity
  8
0
100
AcDbLine
 10
1758.9
 20
54.70273522206125
 30
52.0
 11
1758.9
 21
40.84455363221681
 31
52.0
  0
SPLINE
  5
51
330
17
100
AcDbEntity
  8
0
100
AcDbSpline
 70
0
 71
4
 72
10
 73
5
 74
0
 40
0.0
 40
0.0
 40
0.0
 40
0.0
 40
0.0
 40
1.0
 40
1.0
 40
1.0
 40
1.0
 40
1.0
 10
1755.099999405988
 20
54.1806238427478
 30
52.0
 10
1756.050104900456
 20
54.31035819304538
 30
52.0
 10
1757.0001405752657
 20
54.44062052750899
 30
52.0
 10
1757.9501059633296
 20
54.571412385516744
 30
52.0
 10
1758.9000005938883
 20
54.70273530382251
 30
52.0
  0
LINE
  5
52
330
17
100
AcDbEntity
  8
0
100
AcDbLine
 10
1755.1
 20
54.18062392635757
 30
52.0
 11
1755.1
 21
40.27207942183329
 31
52.0
  0
SPLINE
  5
53
330
17
100
AcDbEntity
  8
0
100
AcDbSpline
 70
0
 71
4
 72
19
 73
14
 74
0
 40
0.0
 40
0.0
 40
0.0
 40
0.0
 40
0.0
 40
0.24603033358288884
 40
0.24603033358288884
 40
0.24603033358288884
 40
0.49471778343875616
 40
0.49471778343875616
 40
0.49471778343875616
 40
0.7460507467594165
 40
0.7460507467594165
 40
0.7460507467594165
 40
1.0
 40
1.0
 40
1.0
 40
1.0
 40
1.0
 10
1755.1000000000038
 20
40.272079421807376
 30
52.0
 10
1753.7355213529336
 20
40.06772724751519
 30
52.0
 10
1752.3708737459176
 20
39.864502496439634
 30
52.0
 10
1751.006059712849
 20
39.662397803940394
 30
52.0
 10
1748.2613620050752
 20
39.258243414829735
 30
52.0
 10
1746.8814747677995
 20
39.05621789653272
 30
52.0
 10
1745.501422524485
 20
38.85532200980853
 30
52.0
 10
1742.7263102942854
 20
38.45365008338136
 30
52.0
 10
1741.331246830355
 20
38.25289805242967
 30
52.0
 10
1739.9360198244149
 20
38.053285186074376
 30
52.0
 10
1737.1307180477693
 20
37.654257495517584
 30
52.0
 10
1735.7206399067627
 20
37.45486635068975
 30
51.999999999999986
 10
1734.3103997542146
 20
37.256623705894675
 30
51.99999999999998
 10
1732.900000000004
 20
37.05952243654187
 30
51.99999999999997
  0
LINE
  5
54
330
17
100
AcDbEntity
  8
0
100
AcDbLine
 10
1732.9
 20
51.25790789961838
 30
52.0
 11
1732.9
 21
37.05952243657017
 31
52.0
  0
SPLINE
  5
55
330
17
100
AcDbEntity
  8
0
100
AcDbSpline
 70
0
 71
4
 72
10
 73
5
 74
0
 40
0.0
 40
0.0
 40
0.0
 40
0.0
 40
0.0
 40
1.0
 40
1.0
 40
1.0
 40
1.0
 40
1.0
 10
1729.099999405146
 20
50.77907020894261
 30
52.0
 10
1730.050095279298
 20
50.89802001492713
 30
52.0
 10
1731.0001277295694
 20
51.01747521561645
 30
52.0
 10
1731.9500963161356
 20
51.13743735507953
 30
52.0
 10
1732.9000005956054
 20
51.2579079751554
 30
52.0
  0
LINE
  5
56
330
17
100
AcDbEntity
  8
0
100
AcDbLine
 10
1729.1
 20
50.77907028341698
 30
52.0
 11
1729.1
 21
36.53163627238814
 31
52.0
  0
SPLINE
  5
57
330
17
100
AcDbEntity
  8
0
100
AcDbSpline
 70
0
 71
4
 72
19
 73
14
 74
0
 40
0.0
 40
0.0
 40
0.0
 40
0.0
 40
0.0
 40
0.24637733282159324
 40
0.24637733282159324
 40
0.24637733282159324
 40
0.49518907558350395
 40
0.49518907558350395
 40
0.49518907558350395
 40
0.7464063516576284
 40
0.7464063516576284
 40
0.7464063516576284
 40
1.0
 40
1.0
 40
1.0
 40
1.0
 40
1.0
 10
1729.1000000000008
 20
36.531636272381014
 30
52.0
 10
1727.7334655232391
 20
36.34293310840815
 30
52.0
 10
1726.366784282376
 20
36.1552921397059
 30
52.0
 10
1724.999958393827
 20
35.968707189890566
 30
52.0
 10
1722.2525146745293
 20
35.59580390742077
 30
52.0
 10
1720.8718940104766
 20
35.409506436886076
 30
52.0
 10
1719.4911300416716
 20
35.22427353211738
 30
52.0
 10
1716.7159688702557
 20
34.854144203976944
 30
52.0
 10
1715.3215689231592
 20
34.669268347426986
 30
52.0
 10
1713.9270270728264
 20
34.48546541055006
 30
52.0
 10
1711.1244707353767
 20
34.118264812608366
 30
52.00000000000001
 10
1709.7164535910463
 20
33.93488741978538
 30
52.0
 10
1708.308296002514
 20
33.752591108111325
 30
52.0
 10
1706.8999999999965
 20
33.57136983343572
 30
52.0
  0
LINE
  5
58
330
17
100
AcDbEntity
  8
0
100
AcDbLine
 10
1706.9
 20
48.10338864413637
 30
52.0
 11
1706.9
 21
33.571369833411126
 31
52.0
  0
SPLINE
  5
59
330
17
100
AcDbEntity
  8
0
100
AcDbSpline
 70
0
 71
4
 72
10
 73
5
 74
0
 40
0.0
 40
0.0
 40
0.0
 40
0.0
 40
0.0
 40
1.0
 40
1.0
 40
1.0
 40
1.0
 40
1.0
 10
1703.0999994043543
 20
47.66585331020275
 30
52.0
 10
1704.0500862580877
 20
47.77451118091602
 30
52.0
 10
1705.0001156842234
 20
47.883652002441075
 30
52.0
 10
1705.9500872690805
 20
47.99327732181424
 30
52.0
 10
1706.9000005955331
 20
48.10338868419734
 30
52.0
  0
LINE
  5
5A
330
17
100
AcDbEntity
  8
0
100
AcDbLine
 10
1703.1
 20
47.665853404986024
 30
52.0
 11
1703.1
 21
33.08535688903402
 31
52.0
  0
SPLINE
  5
5B
330
17
100
AcDbEntity
  8
0
100
AcDbSpline
 70
0
 71
4
 72
13
 73
8
 74
0
 40
0.0
 40
0.0
 40
0.0
 40
0.0
 40
0.0
 40
0.3688590483810184
 40
0.3688590483810184
 40
0.3688590483810184
 40
1.0
 40
1.0
 40
1.0
 40
1.0
 40
1.0
 10
1703.099999999994
 20
33.08535688908321
 30
52.0
 10
1701.0539536998226
 20
32.82526923174527
 30
52.0
 10
1699.0076210393079
 20
32.56743307188744
 30
52.0
 10
1696.961008056761
 20
32.31183063710077
 30
52.0
 10
1691.4117676936667
 20
31.624885646836795
 30
52.0
 10
1687.9086110799808
 20
31.197816038662822
 30
52.0
 10
1684.404679593616
 20
30.777150494189303
 30
52.0
 10
1680.899999999979
 20
30.36280942687546
 30
52.0
  0
LINE
  5
5C
330
17
100
AcDbEntity
  8
0
100
AcDbLine
 10
1680.9
 20
45.22577556575234
 30
52.0
 11
1680.9
 21
30.36280942669544
 31
52.0
  0
SPLINE
  5
5D
330
17
100
AcDbEntity
  8
0
100
AcDbSpline
 70
0
 71
4
 72
10
 73
5
 74
0
 40
0.0
 40
0.0
 40
0.0
 40
0.0
 40
0.0
 40
1.0
 40
1.0
 40
1.0
 40
1.0
 40
1.0
 10
1677.0999994035997
 20
44.82760044046215
 30
52.0
 10
1678.0500778064832
 20
44.92645170830696
 30
52.0
 10
1679.0001043992356
 20
45.02576363020712
 30
52.0
 10
1679.9500787931709
 20
45.12553775467741
 30
52.0
 10
1680.9000005962826
 20
45.22577562867342
 30
52.0
  0
LINE
  5
5E
330
17
100
AcDbEntity
  8
0
100
AcDbLine
 10
1677.1
 20
44.827600502514855
 30
52.0
 11
1677.1
 21
29.916374327016833
 31
52.0
  0
SPLINE
  5
5F
330
17
100
AcDbEntity
  8
0
100
AcDbSpline
 70
0
 71
8
 72
25
 73
16
 74
0
 40
0.0
 40
0.0
 40
0.0
 40
0.0
 40
0.0
 40
0.0
 40
0.0
 40
0.0
 40
0.0
 40
0.49603052722672547
 40
0.49603052722672547
 40
0.49603052722672547
 40
0.49603052722672547
 40
0.49603052722672547
 40
0.49603052722672547
 40
0.49603052722672547
 40
1.0
 40
1.0
 40
1.0
 40
1.0
 40
1.0
 40
1.0
 40
1.0
 40
1.0
 40
1.0
 10
1677.0999999999704
 20
29.916374327265174
 30
52.0
 10
1675.7241640551294
 20
29.75575567323215
 30
52.0
 10
1674.3482310997902
 20
29.595967577318053
 30
52.0
 10
1672.972202905102
 20
29.43699979606671
 30
52.0
 10
1671.5960778044025
 20
29.278872397068003
 30
52.0
 10
1670.2198601178507
 20
29.12155191170314
 30
52.0
 10
1668.8435501137208
 20
28.965041843278758
 30
52.0
 10
1667.4671495338007
 20
28.809331200940164
 30
52.0
 10
1664.6921394395404
 20
28.497014146240986
 30
52.0
 10
1663.2935270228206
 20
28.340433300777267
 30
52.0
 10
1661.8948240481855
 20
28.184661684258504
 30
52.0
 10
1660.4960319607335
 20
28.02969129701851
 30
52.0
 10
1659.097152165998
 20
27.875514326711013
 30
52.0
 10
1657.69818602995
 20
27.722123148309684
 30
52.0
 10
1656.299134878994
 20
27.56951032410811
 30
52.0
 10
1654.8999999999735
 20
27.417668603719804
 30
52.0
  0
LINE
  5
60
330
17
100
AcDbEntity
  8
0
100
AcDbLine
 10
1654.9
 20
42.611860658340966
 30
52.0
 11
1654.9
 21
27.41766860347166
 31
52.0
  0
SPLINE
  5
61
330
17
100
AcDbEntity
  8
0
100
AcDbSpline
 70
0
 71
4
 72
10
 73
5
 74
0
 40
0.0
 40
0.0
 40
0.0
 40
0.0
 40
0.0
 40
1.0
 40
1.0
 40
1.0
 40
1.0
 40
1.0
 10
1651.0999994027811
 20
42.251130600852306
 30
52.0
 10
1652.0500698937608
 20
42.34065379154886
 30
52.0
 10
1653.0000938336123
 20
42.43061548678661
 30
52.0
 10
1653.950070857474
 20
42.52101723528808
 30
52.0
 10
1654.9000005972996
 20
42.611860584497734
 30
52.0
  0
LINE
  5
62
330
17
100
AcDbEntity
  8
0
100
AcDbLine
 10
1651.1
 20
42.25113148022125
 30
52.0
 11
1651.1
 21
27.007773459470197
 31
52.0
  0
SPLINE
  5
63
330
17
100
AcDbEntity
  8
0
100
AcDbSpline
 70
0
 71
4
 72
13
 73
8
 74
0
 40
0.0
 40
0.0
 40
0.0
 40
0.0
 40
0.0
 40
0.496643106095458
 40
0.496643106095458
 40
0.496643106095458
 40
1.0
 40
1.0
 40
1.0
 40
1.0
 40
1.0
 10
1651.0999999999788
 20
27.00777345966694
 30
52.0
 10
1648.3446771712154
 20
26.712366701848794
 30
52.0
 10
1645.5889872441523
 20
26.420382293813667
 30
52.0
 10
1642.8329465984605
 20
26.13172749545631
 30
52.0
 10
1637.282930960108
 20
25.557053290881424
 30
51.99999999999999
 10
1634.4889468251392
 20
25.27112221484186
 30
52.0
 10
1631.6946321245598
 20
24.98844025108904
 30
52.0
 10
1628.9000000000046
 20
24.708930418717244
 30
52.0
  0
LINE
  5
64
330
17
100
AcDbEntity
  8
0
100
AcDbLine
 10
1628.9
 20
40.248616411951815
 30
52.0
 11
1628.9
 21
24.70893041876581
 31
52.0
  0
SPLINE
  5
65
330
17
100
AcDbEntity
  8
0
100
AcDbSpline
 70
0
 71
4
 72
10
 73
5
 74
0
 40
0.0
 40
0.0
 40
0.0
 40
0.0
 40
0.0
 40
1.0
 40
1.0
 40
1.0
 40
1.0
 40
1.0
 10
1625.0999994022777
 20
39.92344194453569
 30
52.0
 10
1626.0500624560673
 20
40.004109229437745
 30
52.0
 10
1627.0000839577249
 20
40.08519301985147
 30
52.0
 10
1627.9500634286183
 20
40.1666948558138
 30
52.0
 10
1628.9000005978312
 20
40.248616288429005
 30
52.0
  0
LINE
  5
66
330
17
100
AcDbEntity
  8
0
100
AcDbLine
 10
1625.1
 20
39.923442150485776
 30
52.0
 11
1625.1
 21
24.331076047461536
 31
52.0
  0
SPLINE
  5
67
330
17
100
AcDbEntity
  8
0
100
AcDbSpline
 70
0
 71
4
 72
13
 73
8
 74
0
 40
0.0
 40
0.0
 40
0.0
 40
0.0
 40
0.0
 40
0.49715447319581646
 40
0.49715447319581646
 40
0.49715447319581646
 40
1.0
 40
1.0
 40
1.0
 40
1.0
 40
1.0
 10
1625.1000000000045
 20
24.331076047413607
 30
52.0
 10
1622.3416535269046
 20
24.05839341302502
 30
52.0
 10
1619.5830064332065
 20
23.788750312771747
 30
52.0
 10
1616.824070804535
 20
23.522075739003082
 30
52.0
 10
1611.2740585258425
 20
22.991516354683316
 30
52.0
 10
1608.4829754871243
 20
22.727698394675595
 30
52.0
 10
1605.6916193511152
 20
22.466785898663648
 30
52.0
 10
1602.900000000003
 20
22.20871936877167
 30
52.0
  0
LINE
  5
68
330
17
100
AcDbEntity
  8
0
100
AcDbLine
 10
1602.9
 20
38.12318340416883
 30
52.0
 11
1602.9
 21
22.208719368800963
 31
52.0
  0
SPLINE
  5
69
330
17
100
AcDbEntity
  8
0
100
AcDbSpline
 70
0
 71
4
 72
10
 73
5
 74
0
 40
0.0
 40
0.0
 40
0.0
 40
0.0
 40
0.0
 40
1.0
 40
1.0
 40
1.0
 40
1.0
 40
1.0
 10
1599.0999994012411
 20
37.831696521933424
 30
52.0
 10
1600.0500511557775
 20
37.90397396481631
 30
52.0
 10
1601.0000689661672
 20
37.9766463029638
 30
52.0
 10
1601.950052294088
 20
38.04971506264098
 30
52.0
 10
1602.9000005982014
 20
38.123181770301834
 30
52.0
  0
LINE
  5
6A
330
17
100
AcDbEntity
  8
0
100
AcDbLine
 10
1599.1
 20
37.83169821905051
 30
52.0
 11
1599.1
 21
21.85941964399197
 31
52.0
  0
SPLINE
  5
6B
330
17
100
AcDbEntity
  8
0
100
AcDbSpline
 70
0
 71
4
 72
13
 73
8
 74
0
 40
0.0
 40
0.0
 40
0.0
 40
0.0
 40
0.0
 40
0.4975774887534619
 40
0.4975774887534619
 40
0.4975774887534619
 40
1.0
 40
1.0
 40
1.0
 40
1.0
 40
1.0
 10
1599.0999999999967
 20
21.859419644030233
 30
52.0
 10
1596.3391662182717
 20
21.60707623223895
 30
52.0
 10
1593.5780815083467
 20
21.357476939308807
 30
52.0
 10
1590.8167550446835
 20
21.110566480024996
 30
52.0
 10
1585.2667451624127
 20
20.61964455922745
 30
52.00000000000001
 10
1582.4780571788979
 20
20.375684716825734
 30
52.0
 10
1579.689139583303
 20
20.134363856403002
 30
52.0
 10
1576.8999999999883
 20
19.895635386696938
 30
52.0
  0
LINE
  5
6C
330
17
100
AcDbEntity
  8
0
100
AcDbLine
 10
1576.9
 20
36.22287234724196
 30
52.0
 11
1576.9
 21
19.895635386560375
 31
52.0
  0
SPLINE
  5
6D
330
17
100
AcDbEntity
  8
0
100
AcDbSpline
 70
0
 71
4
 72
10
 73
5
 74
0
 40
0.0
 40
0.0
 40
0.0
 40
0.0
 40
0.0
 40
1.0
 40
1.0
 40
1.0
 40
1.0
 40
1.0
 10
1573.0999993983185
 20
35.96323971302668
 30
52.0
 10
1574.0500402419302
 20
36.02758565090209
 30
52.0
 10
1575.0000544018328
 20
36.092305148106504
 30
52.0
 10
1575.9500413607602
 20
36.157399722653565
 30
52.0
 10
1576.9000005986456
 20
36.22287089278565
 30
52.0
  0
LINE
  5
6E
330
17
100
AcDbEntity
  8
0
100
AcDbLine
 10
1573.1
 20
35.963241157843754
 30
52.0
 11
1573.1
 21
19.572195451655926
 31
52.0
  0
SPLINE
  5
6F
330
17
100
AcDbEntity
  8
0
100
AcDbSpline
 70
0
 71
4
 72
13
 73
8
 74
0
 40
0.0
 40
0.0
 40
0.0
 40
0.0
 40
0.0
 40
0.4979520815664645
 40
0.4979520815664645
 40
0.4979520815664645
 40
1.0
 40
1.0
 40
1.0
 40
1.0
 40
1.0
 10
1573.099999999989
 20
19.572195451785813
 30
52.0
 10
1570.3369795405333
 20
19.33832965376211
 30
52.0
 10
1567.5737462807597
 20
19.10697692448718
 30
52.0
 10
1564.8103073560608
 20
18.878093731845137
 30
52.0
 10
1559.2602991849803
 20
18.423324602042108
 30
52.0
 10
1556.4737266512436
 20
18.197478790593465
 30
52.0
 10
1553.6869582517133
 20
17.97406264022979
 30
52.0
 10
1550.8999999999862
 20
17.753039396124045
 30
52.0
  0
LINE
  5
70
330
17
100
AcDbEntity
  8
0
100
AcDbLine
 10
1550.9
 20
34.535231873782465
 30
52.0
 11
1550.9
 21
17.753039395943865
 31
52.0
  0
SPLINE
  5
71
330
17
100
AcDbEntity
  8
0
100
AcDbSpline
 70
0
 71
4
 72
10
 73
5
 74
0
 40
0.0
 40
0.0
 40
0.0
 40
0.0
 40
0.0
 40
1.0
 40
1.0
 40
1.0
 40
1.0
 40
1.0
 10
1547.0999994009849
 20
34.305654053093875
 30
52.0
 10
1548.0500297729614
 20
34.362518213480826
 30
52.0
 10
1549.0000404290213
 20
34.41973484486955
 30
52.0
 10
1549.9500308712065
 20
34.47730545777644
 30
52.0
 10
1550.9000005989644
 20
34.535231562959936
 30
52.0
  0
LINE
  5
72
330
17
100
AcDbEntity
  8
0
100
AcDbLine
 10
1547.1
 20
34.30565426453622
 30
52.0
 11
1547.1
 21
17.45334846108036
 31
52.0
  0
SPLINE
  5
73
330
17
100
AcDbEntity
  8
0
100
AcDbSpline
 70
0
 71
4
 72
13
 73
8
 74
0
 40
0.0
 40
0.0
 40
0.0
 40
0.0
 40
0.0
 40
0.4982852895246886
 40
0.4982852895246886
 40
0.4982852895246886
 40
1.0
 40
1.0
 40
1.0
 40
1.0
 40
1.0
 10
1547.099999999985
 20
17.453348461270412
 30
52.0
 10
1544.3350452825998
 20
17.23650035863537
 30
52.0
 10
1541.5699076983901
 20
17.021982992205547
 30
52.0
 10
1538.804592915139
 20
16.80976188463044
 30
52.0
 10
1533.2545860038617
 20
16.388404381026476
 30
52.0
 10
1530.4698915018541
 20
16.179299258650065
 30
51.999999999999986
 10
1527.6850278881416
 20
15.972458357128993
 30
51.99999999999998
 10
1524.8999999999935
 20
15.767852637012064
 30
51.99999999999997
  0
LINE
  5
74
330
17
100
AcDbEntity
  8
0
100
AcDbLine
 10
1524.9
 20
33.04803708750138
 30
52.0
 11
1524.9
 21
15.767852636926012
 31
52.0
  0
SPLINE
  5
75
330
17
100
AcDbEntity
  8
0
100
AcDbSpline
 70
0
 71
4
 72
10
 73
5
 74
0
 40
0.0
 40
0.0
 40
0.0
 40
0.0
 40
0.0
 40
1.0
 40
1.0
 40
1.0
 40
1.0
 40
1.0
 10
1521.0999994008246
 20
32.84674356673289
 30
52.0
 10
1522.05002013515
 20
32.896568087832826
 30
52.0
 10
1523.0000273220994
 20
32.94672416212145
 30
52.0
 10
1523.9500209290168
 20
32.99721333433459
 30
52.0
 10
1524.9000005991572
 20
33.04803711955621
 30
52.0
  0
LINE
  5
76
330
17
100
AcDbEntity
  8
0
100
AcDbLine
 10
1521.1
 20
32.84674359815708
 30
52.0
 11
1521.1
 21
15.49024489836944
 31
52.0
  0
SPLINE
  5
77
330
17
100
AcDbEntity
  8
0
100
AcDbSpline
 70
0
 71
4
 72
13
 73
8
 74
0
 40
0.0
 40
0.0
 40
0.0
 40
0.0
 40
0.0
 40
0.49858117924589196
 40
0.49858117924589196
 40
0.49858117924589196
 40
1.0
 40
1.0
 40
1.0
 40
1.0
 40
1.0
 10
1521.1000000000026
 20
15.49024489832814
 30
52.0
 10
1518.333334739323
 20
15.289262560636567
 30
52.0
 10
1515.566510592604
 20
15.090466590401205
 30
52.0
 10
1512.7995321477272
 20
14.893829686022357
 30
52.0
 10
1507.2495261890706
 20
14.50371733626531
 30
51.99999999999999
 10
1504.4664969634744
 20
14.310266247190672
 30
52.000000000000014
 10
1501.683320246423
 20
14.118948609893751
 30
52.00000000000002
 10
1498.900000000026
 20
13.929741606737366
 30
52.00000000000003
  0
LINE
  5
78
330
17
100
AcDbEntity
  8
0
100
AcDbLine
 10
1498.9
 20
31.749241199452236
 30
52.0
 11
1498.9
 21
13.929741607109047
 31
52.0
  0
SPLINE
  5
79
330
17
100
AcDbEntity
  8
0
100
AcDbSpline
 70
0
 71
4
 72
10
 73
5
 74
0
 40
0.0
 40
0.0
 40
0.0
 40
0.0
 40
0.0
 40
1.0
 40
1.0
 40
1.0
 40
1.0
 40
1.0
 10
1495.0999994007025
 20
31.574477437883534
 30
52.0
 10
1496.050017270514
 20
31.617701225869297
 30
52.0
 10
1497.0000235140249
 20
31.661235374689692
 30
52.0
 10
1497.9500180010816
 20
31.70508142194397
 30
52.0
 10
1498.9000005992832
 20
31.749240904241745
 30
52.0
  0
LINE
  5
7A
330
17
100
AcDbEntity
  8
0
100
AcDbLine
 10
1495.1
 20
31.574477761757308
 30
52.0
 11
1495.1
 21
13.672900340888035
 31
52.0
  0
SPLINE
  5
7B
330
17
100
AcDbEntity
  8
0
100
AcDbSpline
 70
0
 71
4
 72
13
 73
8
 74
0
 40
0.0
 40
0.0
 40
0.0
 40
0.0
 40
0.0
 40
0.49885364361400386
 40
0.49885364361400386
 40
0.49885364361400386
 40
1.0
 40
1.0
 40
1.0
 40
1.0
 40
1.0
 10
1495.100000000024
 20
13.672900340530386
 30
52.0
 10
1492.3317665658224
 20
13.486870358199853
 30
52.0
 10
1489.5633938083363
 20
13.30291288837673
 30
52.0
 10
1486.7948855071338
 20
13.121006473150738
 30
52.0
 10
1481.244880266719
 20
12.76043019029434
 30
52.0
 10
1478.4633821118991
 20
12.58177903552939
 30
52.0
 10
1475.681754255761
 20
12.40515864084433
 30
52.0
 10
1472.9000000000278
 20
12.230551348520397
 30
52.0
  0
LINE
  5
7C
330
17
100
AcDbEntity
  8
0
100
AcDbLine
 10
1472.9
 20
30.6268432549559
 30
52.0
 11
1472.9
 21
12.23055134896406
 31
52.0
  0
SPLINE
  5
7D
330
17
100
AcDbEntity
  8
0
100
AcDbSpline
 70
0
 71
4
 72
10
 73
5
 74
0
 40
0.0
 40
0.0
 40
0.0
 40
0.0
 40
0.0
 40
1.0
 40
1.0
 40
1.0
 40
1.0
 40
1.0
 10
1469.0999994005824
 20
30.476856085931573
 30
52.0
 10
1470.0500147316868
 20
30.513917480101895
 30
52.0
 10
1471.000020119002
 20
30.551268041192753
 30
52.0
 10
1471.950015447337
 20
30.588909308899865
 30
52.0
 10
1472.9000005993958
 20
30.62684282209466
 30
52.0
  0
LINE
  5
7E
330
17
100
AcDbEntity
  8
0
100
AcDbLine
 10
1469.1
 20
30.476856965414328
 30
52.0
 11
1469.1
 21
11.993441490275307
 31
52.0
  0
SPLINE
  5
7F
330
17
100
AcDbEntity
  8
0
100
AcDbSpline
 70
0
 71
4
 72
10
 73
5
 74
0
 40
0.0
 40
0.0
 40
0.0
 40
0.0
 40
0.0
 40
1.0
 40
1.0
 40
1.0
 40
1.0
 40
1.0
 10
1469.1000000000201
 20
11.993441489945438
 30
52.0
 10
1463.5507165160607
 20
11.64923807651726
 30
52.0
 10
1458.0009389329907
 20
11.312998376201218
 30
52.0
 10
1452.4506926975046
 20
10.984588952142404
 30
52.0
 10
1446.9000000000026
 20
10.66390503355564
 30
52.0
  0
LINE
  5
80
330
17
100
AcDbEntity
  8
0
100
AcDbLine
 10
1446.9
 20
29.668855506711296
 30
52.0
 11
1446.9
 21
10.663905033598587
 31
52.0
  0
SPLINE
  5
81
330
17
100
AcDbEntity
  8
0
100
AcDbSpline
 70
0
 71
4
 72
10
 73
5
 74
0
 40
0.0
 40
0.0
 40
0.0
 40
0.0
 40
0.0
 40
1.0
 40
1.0
 40
1.0
 40
1.0
 40
1.0
 10
1443.0999994004799
 20
29.541895307513343
 30
52.0
 10
1444.0500124924188
 20
29.573231853883797
 30
52.0
 10
1445.0000171240754
 20
29.604836378351287
 30
52.0
 10
1445.9500131941795
 20
29.636710422020975
 30
52.0
 10
1446.9000005995108
 20
29.668855525318943
 30
52.0
  0
LINE
  5
82
330
17
100
AcDbEntity
  8
0
100
AcDbLine
 10
1443.1
 20
29.541895329137958
 30
52.0
 11
1443.1
 21
10.445725262479787
 31
52.0
  0
SPLINE
  5
83
330
17
100
AcDbEntity
  8
0
100
AcDbSpline
 70
0
 71
4
 72
10
 73
5
 74
0
 40
0.0
 40
0.0
 40
0.0
 40
0.0
 40
0.0
 40
1.0
 40
1.0
 40
1.0
 40
1.0
 40
1.0
 10
1443.100000000004
 20
10.445725262409521
 30
52.0
 10
1437.550636937143
 20
10.129087791065476
 30
52.0
 10
1432.0008352208508
 20
9.820136357842154
 30
52.0
 10
1426.4506165136597
 20
9.518771512596235
 30
52.0
 10
1420.9000000000062
 20
9.224919113801027
 30
52.0
  0
LINE
  5
84
330
17
100
AcDbEntity
  8
0
100
AcDbLine
 10
1420.9
 20
28.863312574760553
 30
52.0
 11
1420.9
 21
9.224919113927127
 31
52.0
  0
SPLINE
  5
85
330
17
100
AcDbEntity
  8
0
100
AcDbSpline
 70
0
 71
4
 72
10
 73
5
 74
0
 40
0.0
 40
0.0
 40
0.0
 40
0.0
 40
0.0
 40
1.0
 40
1.0
 40
1.0
 40
1.0
 40
1.0
 10
1417.099999400371
 20
28.75763162275248
 30
52.0
 10
1418.0500105307938
 20
28.783680126323116
 30
52.0
 10
1419.000014500035
 20
28.80997542779687
 30
52.0
 10
1419.950011219705
 20
28.836519069116576
 30
52.0
 10
1420.9000005996072
 20
28.863312591671882
 30
52.0
  0
LINE
  5
86
330
17
100
AcDbEntity
  8
0
100
AcDbLine
 10
1417.1
 20
28.757631639193804
 30
52.0
 11
1417.1
 21
9.02506780680954
 31
52.0
  0
SPLINE
  5
87
330
17
100
AcDbEntity
  8
0
100
AcDbSpline
 70
0
 71
4
 72
10
 73
5
 74
0
 40
0.0
 40
0.0
 40
0.0
 40
0.0
 40
0.0
 40
1.0
 40
1.0
 40
1.0
 40
1.0
 40
1.0
 10
1417.1000000000054
 20
9.025067806703056
 30
52.0
 10
1411.5505682951525
 20
8.73513886404486
 30
52.00000000000001
 10
1406.000745521202
 20
8.45269393833641
 30
52.000000000000014
 10
1400.4505504536394
 20
8.177663706656414
 30
52.00000000000002
 10
1394.900000000016
 20
7.910001930930456
 30
52.00000000000003
  0
LINE
  5
88
330
17
100
AcDbEntity
  8
0
100
AcDbLine
 10
1394.9
 20
28.198267133380664
 30
52.0
 11
1394.9
 21
7.9100019312512835
 31
52.0
  0
SPLINE
  5
89
330
17
100
AcDbEntity
  8
0
100
AcDbSpline
 70
0
 71
4
 72
10
 73
5
 74
0
 40
0.0
 40
0.0
 40
0.0
 40
0.0
 40
0.0
 40
1.0
 40
1.0
 40
1.0
 40
1.0
 40
1.0
 10
1391.099999400284
 20
28.11212089226537
 30
52.0
 10
1392.0500088249084
 20
28.133317468713997
 30
52.0
 10
1393.0000122176737
 20
28.154739674204595
 30
52.0
 10
1393.9500095020137
 20
28.17638905105193
 30
52.0
 10
1394.9000005997123
 20
28.198267141126294
 30
52.0
  0
LINE
  5
8A
330
17
100
AcDbEntity
  8
0
100
AcDbLine
 10
1391.1
 20
28.11212091148174
 30
52.0
 11
1391.1
 21
7.728053375609958
 31
52.0
  0
SPLINE
  5
8B
330
17
100
AcDbEntity
  8
0
100
AcDbSpline
 70
0
 71
4
 72
10
 73
5
 74
0
 40
0.0
 40
0.0
 40
0.0
 40
0.0
 40
0.0
 40
1.0
 40
1.0
 40
1.0
 40
1.0
 40
1.0
 10
1391.1000000000224
 20
7.728053375132444
 30
52.0
 10
1385.5505079351867
 20
7.46423006887205
 30
52.0
 10
1380.000666411678
 20
7.207756801427988
 30
52.0
 10
1374.4504920244945
 20
6.958591832509677
 30
52.0
 10
1368.9000000000283
 20
6.716715220859017
 30
52.0
  0
LINE
  5
8C
330
17
100
AcDbEntity
  8
0
100
AcDbLine
 10
1368.9
 20
27.661790449457968
 30
52.0
 11
1368.9
 21
6.716715221496064
 31
52.0
  0
SPLINE
  5
8D
330
17
100
AcDbEntity
  8
0
100
AcDbSpline
 70
0
 71
4
 72
10
 73
5
 74
0
 40
0.0
 40
0.0
 40
0.0
 40
0.0
 40
0.0
 40
1.0
 40
1.0
 40
1.0
 40
1.0
 40
1.0
 10
1365.0999994001957
 20
27.593436940519297
 30
52.0
 10
1366.0500073527971
 20
27.61021706756906
 30
52.0
 10
1367.0000102477095
 20
27.62720166806658
 30
52.0
 10
1367.9500080191403
 20
27.644392284330408
 30
52.0
 10
1368.9000005997916
 20
27.661790458327353
 30
52.0
  0
LINE
  5
8E
330
17
100
AcDbEntity
  8
0
100
AcDbLine
 10
1365.1
 20
27.593436952045465
 30
52.0
 11
1365.1
 21
6.552403785777097
 31
52.0
  0
SPLINE
  5
8F
330
17
100
AcDbEntity
  8
0
100
AcDbSpline
 70
0
 71
4
 72
13
 73
8
 74
0
 40
0.0
 40
0.0
 40
0.0
 40
0.0
 40
0.0
 40
0.5010073619141897
 40
0.5010073619141897
 40
0.5010073619141897
 40
1.0
 40
1.0
 40
1.0
 40
1.0
 40
1.0
 10
1365.1000000000279
 20
6.552403785129209
 30
52.0
 10
1362.3196360441327
 20
6.433119770582133
 30
52.0
 10
1359.5391936993592
 20
6.3156627707162825
 30
52.0
 10
1356.7586748315953
 20
6.200031492784614
 30
52.0
 10
1351.2086695059004
 20
5.972874691316274
 30
52.0
 10
1348.439183713475
 20
5.861332940287792
 30
52.0
 10
1345.6696264146026
 20
5.751581576403334
 30
52.0
 10
1342.9000000000294
 20
5.643602989699716
 30
52.0
  0
LINE
  5
90
330
17
100
AcDbEntity
  8
0
100
AcDbLine
 10
1342.9
 20
27.241970613721044
 30
52.0
 11
1342.9
 21
5.643602990446751
 31
52.0
  0
SPLINE
  5
91
330
17
100
AcDbEntity
  8
0
100
AcDbSpline
 70
0
 71
4
 72
10
 73
5
 74
0
 40
0.0
 40
0.0
 40
0.0
 40
0.0
 40
0.0
 40
1.0
 40
1.0
 40
1.0
 40
1.0
 40
1.0
 10
1339.0999994001154
 20
27.189670185106195
 30
52.0
 10
1340.0500060925417
 20
27.202468753583215
 30
52.0
 10
1341.000008560924
 20
27.21545065441338
 30
52.0
 10
1341.950006749179
 20
27.22861742963964
 30
52.0
 10
1342.900000599874
 20
27.241970621031232
 30
52.0
  0
LINE
  5
92
330
17
100
AcDbEntity
  8
0
100
AcDbLine
 10
1339.1
 20
27.18967019445622
 30
52.0
 11
1339.1
 21
5.496704062631659
 31
52.0
  0
SPLINE
  5
93
330
17
100
AcDbEntity
  8
0
100
AcDbSpline
 70
0
 71
4
 72
10
 73
5
 74
0
 40
0.0
 40
0.0
 40
0.0
 40
0.0
 40
0.0
 40
1.0
 40
1.0
 40
1.0
 40
1.0
 40
1.0
 10
1339.1000000000254
 20
5.49670406196718
 30
52.0
 10
1333.550387905579
 20
5.283991400900015
 30
52.0
 10
1328.0005048561463
 20
5.078347834500191
 30
52.0
 10
1322.4503697678665
 20
4.879632621071391
 30
52.0
 10
1316.9000000000176
 20
4.687703991768385
 30
52.0
  0
LINE
  5
94
330
17
100
AcDbEntity
  8
0
100
AcDbLine
 10
1316.9
 20
26.92691112896161
 30
52.0
 11
1316.9
 21
4.687703992280303
 31
52.0
  0
SPLINE
  5
95
330
17
100
AcDbEntity
  8
0
100
AcDbSpline
 70
0
 71
4
 72
10
 73
5
 74
0
 40
0.0
 40
0.0
 40
0.0
 40
0.0
 40
0.0
 40
1.0
 40
1.0
 40
1.0
 40
1.0
 40
1.0
 10
1313.0999994000413
 20
26.888926271477494
 30
52.0
 10
1314.0500050222365
 20
26.898177636074493
 30
52.0
 10
1315.0000071281065
 20
26.90759120702821
 30
52.0
 10
1315.950005670219
 20
26.917168525906277
 30
52.0
 10
1316.9000005999485
 20
26.926911134067705
 30
52.0
  0
LINE
  5
96
330
17
100
AcDbEntity
  8
0
100
AcDbLine
 10
1313.1
 20
26.888926278072482
 30
52.0
 11
1313.1
 21
4.557493651191624
 31
52.0
  0
SPLINE
  5
97
330
17
100
AcDbEntity
  8
0
100
AcDbSpline
 70
0
 71
4
 72
10
 73
5
 74
0
 40
0.0
 40
0.0
 40
0.0
 40
0.0
 40
0.0
 40
1.0
 40
1.0
 40
1.0
 40
1.0
 40
1.0
 10
1313.100000000018
 20
4.557493650656438
 30
52.0
 10
1307.5502258508798
 20
4.369061702110241
 30
52.0
 10
1302.000222979228
 20
4.187366162657048
 30
52.0
 10
1296.4500084541874
 20
4.012265799599252
 30
52.0
 10
1290.899597854685
 20
3.8436184218359806
 30
52.0
  0
LINE
  5
98
330
17
100
AcDbEntity
  8
0
100
AcDbLine
 10
1290.9
 20
26.704729564246403
 30
52.0
 11
1290.9
 21
3.8436306408769276
 31
52.0
  0
SPLINE
  5
99
330
17
100
AcDbEntity
  8
0
100
AcDbSpline
 70
0
 71
4
 72
10
 73
5
 74
0
 40
0.0
 40
0.0
 40
0.0
 40
0.0
 40
0.0
 40
1.0
 40
1.0
 40
1.0
 40
1.0
 40
1.0
 10
1287.099999399974
 20
26.679324712703277
 30
52.0
 10
1288.050004120015
 20
26.68546274246563
 30
52.0
 10
1289.0000059201016
 20
26.69174186771826
 30
52.0
 10
1289.9500047603956
 20
26.698163629424673
 30
52.0
 10
1290.9000006000167
 20
26.704729568393443
 30
52.0
  0
LINE
  5
9A
330
17
100
AcDbEntity
  8
0
100
AcDbLine
 10
1287.1
 20
26.679324716596085
 30
52.0
 11
1287.1
 21
3.729301127463005
 31
52.0
  0
SPLINE
  5
9B
330
17
100
AcDbEntity
  8
0
100
AcDbSpline
 70
0
 71
4
 72
10
 73
5
 74
0
 40
0.0
 40
0.0
 40
0.0
 40
0.0
 40
0.0
 40
1.0
 40
1.0
 40
1.0
 40
1.0
 40
1.0
 10
1287.0999999999997
 20
3.729301127468938
 30
52.0
 10
1281.550170476976
 20
3.5639747311075975
 30
52.0
 10
1276.0001502171704
 20
3.405051167235424
 30
52.0
 10
1270.4499545256056
 20
3.2523887582592956
 30
52.0
 10
1264.899597285374
 20
3.105844934746754
 30
52.0
  0
LINE
  5
9C
330
17
100
AcDbEntity
  8
0
100
AcDbLine
 10
1264.9
 20
26.563556202997
 30
52.0
 11
1264.9
 21
3.10585556667029
 31
52.0
  0
SPLINE
  5
9D
330
17
100
AcDbEntity
  8
0
100
AcDbSpline
 70
0
 71
4
 72
10
 73
5
 74
0
 40
0.0
 40
0.0
 40
0.0
 40
0.0
 40
0.0
 40
1.0
 40
1.0
 40
1.0
 40
1.0
 40
1.0
 10
1261.0999993999135
 20
26.54899753381526
 30
52.0
 10
1262.050003364055
 20
26.552455662365766
 30
52.0
 10
1263.00000490781
 20
26.556033790202186
 30
52.0
 10
1263.950003997884
 20
26.55973345761702
 30
52.0
 10
1264.9000006000788
 20
26.56355620479205
 30
52.0
  0
LINE
  5
9E
330
17
100
AcDbEntity
  8
0
100
AcDbLine
 10
1261.1
 20
26.548997536699787
 30
52.0
 11
1261.1
 21
3.0065988893240467
 31
52.0
  0
SPLINE
  5
9F
330
17
100
AcDbEntity
  8
0
100
AcDbSpline
 70
0
 71
4
 72
10
 73
5
 74
0
 40
0.0
 40
0.0
 40
0.0
 40
0.0
 40
0.0
 40
1.0
 40
1.0
 40
1.0
 40
1.0
 40
1.0
 10
1261.1000000000045
 20
3.0065988891536906
 30
52.0
 10
1255.5501211363826
 20
2.8631985589141915
 30
52.0
 10
1250.0000854690086
 20
2.725866872650689
 30
52.0
 10
1244.4499066237038
 20
2.5944617445245504
 30
52.0
 10
1238.899596873999
 20
2.4688402610297957
 30
52.0
  0
LINE
  5
A0
330
17
100
AcDbEntity
  8
0
100
AcDbLine
 10
1238.9
 20
26.491532680830716
 30
52.0
 11
1238.9
 21
2.4688493838748395
 31
52.0
  0
SPLINE
  5
A1
330
17
100
AcDbEntity
  8
0
100
AcDbSpline
 70
0
 71
4
 72
10
 73
5
 74
0
 40
0.0
 40
0.0
 40
0.0
 40
0.0
 40
0.0
 40
1.0
 40
1.0
 40
1.0
 40
1.0
 40
1.0
 10
1235.0999993998598
 20
26.486087920298267
 30
52.0
 10
1236.0500027325804
 20
26.487299195816934
 30
52.0
 10
1237.000004062205
 20
26.48860938817773
 30
52.0
 10
1237.950003360909
 20
26.490020036990245
 30
52.0
 10
1238.9000006001347
 20
26.49153268178629
 30
52.0
  0
LINE
  5
A2
330
17
100
AcDbEntity
  8
0
100
AcDbLine
 10
1235.1
 20
26.486087921063458
 30
52.0
 11
1235.1
 21
2.383857176267826
 31
52.0
  0
SPLINE
  5
A3
330
17
100
AcDbEntity
  8
0
100
AcDbSpline
 70
0
 71
4
 72
10
 73
5
 74
0
 40
0.0
 40
0.0
 40
0.0
 40
0.0
 40
0.0
 40
1.0
 40
1.0
 40
1.0
 40
1.0
 40
1.0
 10
1235.099999999973
 20
2.383857177482613
 30
52.0
 10
1229.5500775157764
 20
2.2612027609978083
 30
52.0
 10
1224.0000283129855
 20
2.1442822137191055
 30
52.0
 10
1218.4498644240257
 20
2.032953076249318
 30
52.0
 10
1212.899596599968
 20
1.9270721233963648
 30
52.0
  0
LINE
  5
A4
330
17
100
AcDbEntity
  8
0
100
AcDbLine
 10
1212.9
 20
26.476810647559233
 30
52.0
 11
1212.9
 21
1.9270798181597786
 31
52.0
  0
SPLINE
  5
A5
330
17
100
AcDbEntity
  8
0
100
AcDbSpline
 70
0
 71
4
 72
10
 73
5
 74
0
 40
0.0
 40
0.0
 40
0.0
 40
0.0
 40
0.0
 40
1.0
 40
1.0
 40
1.0
 40
1.0
 40
1.0
 10
1209.099999399813
 20
26.478748870297007
 30
52.0
 10
1210.0500022038623
 20
26.4781460052723
 30
52.0
 10
1211.0000033543045
 20
26.477620987140106
 30
52.0
 10
1211.9500028277391
 20
26.477175354856122
 30
52.0
 10
1212.9000006001813
 20
26.47681064732882
 30
52.0
  0
LINE
  5
A6
330
17
100
AcDbEntity
  8
0
100
AcDbLine
 10
1209.1
 20
26.47874886991613
 30
52.0
 11
1209.1
 21
1.8555432317529363
 31
52.0
  0
SPLINE
  5
A7
330
17
100
AcDbEntity
  8
0
100
AcDbSpline
 70
0
 71
4
 72
10
 73
5
 74
0
 40
0.0
 40
0.0
 40
0.0
 40
0.0
 40
0.0
 40
1.0
 40
1.0
 40
1.0
 40
1.0
 40
1.0
 10
1209.0999999999847
 20
1.8555432325733408
 30
52.0
 10
1203.550039300408
 20
1.7524537604131016
 30
52.0
 10
1197.999978325421
 20
1.6547628238871934
 30
52.0
 10
1192.4498276007384
 20
1.5623276228754972
 30
52.0
 10
1186.899596442837
 20
1.4750046513158928
 30
52.0
  0
LINE
  5
A8
330
17
100
AcDbEntity
  8
0
100
AcDbLine
 10
1186.9
 20
26.507550414983736
 30
52.0
 11
1186.9
 21
1.4750109983243176
 31
52.0
  0
SPLINE
  5
A9
330
17
100
AcDbEntity
  8
0
100
AcDbSpline
 70
0
 71
4
 72
10
 73
5
 74
0
 40
0.0
 40
0.0
 40
0.0
 40
0.0
 40
0.0
 40
1.0
 40
1.0
 40
1.0
 40
1.0
 40
1.0
 10
1183.099999399768
 20
26.51514185010758
 30
52.0
 10
1184.050001756214
 20
26.51315727087533
 30
52.0
 10
1185.000002755197
 20
26.511229479510412
 30
52.0
 10
1185.9500023766889
 20
26.509360014383795
 30
52.0
 10
1186.9000006002218
 20
26.507550413840406
 30
52.0
  0
LINE
  5
AA
330
17
100
AcDbEntity
  8
0
100
AcDbLine
 10
1183.1
 20
26.51514184885368
 30
52.0
 11
1183.1
 21
1.4161206089978229
 31
52.0
  0
SPLINE
  5
AB
330
17
100
AcDbEntity
  8
0
100
AcDbSpline
 70
0
 71
4
 72
10
 73
5
 74
0
 40
0.0
 40
0.0
 40
0.0
 40
0.0
 40
0.0
 40
1.0
 40
1.0
 40
1.0
 40
1.0
 40
1.0
 10
1183.0999999999651
 20
1.4161206112694842
 30
52.0
 10
1177.5500061737857
 20
1.3314141800732653
 30
52.0
 10
1171.9999350804442
 20
1.2517704215848482
 30
52.0
 10
1166.4497958264483
 20
1.1770462262655643
 30
52.0
 10
1160.899596382277
 20
1.1070978368990674
 30
52.0
  0
LINE
  5
AC
330
17
100
AcDbEntity
  8
0
100
AcDbLine
 10
1160.9
 20
26.571919619249798
 30
52.0
 11
1160.9
 21
1.1071029244164112
 31
52.0
  0
SPLINE
  5
AD
330
17
100
AcDbEntity
  8
0
100
AcDbSpline
 70
0
 71
4
 72
10
 73
5
 74
0
 40
0.0
 40
0.0
 40
0.0
 40
0.0
 40
0.0
 40
1.0
 40
1.0
 40
1.0
 40
1.0
 40
1.0
 10
1157.0999993997368
 20
26.583435452524885
 30
52.0
 10
1158.0500013680014
 20
26.580501348611108
 30
52.0
 10
1159.0000022360348
 20
26.577602982661507
 30
52.0
 10
1159.9500019861168
 20
26.574741892555657
 30
52.0
 10
1160.9000006002561
 20
26.571919616166603
 30
52.0
  0
LINE
  5
AE
330
17
100
AcDbEntity
  8
0
100
AcDbLine
 10
1157.1
 20
26.583435452398643
 30
52.0
 11
1157.1
 21
1.0600486674426315
 31
52.0
  0
SPLINE
  5
AF
330
17
100
AcDbEntity
  8
0
100
AcDbSpline
 70
0
 71
4
 72
10
 73
5
 74
0
 40
0.0
 40
0.0
 40
0.0
 40
0.0
 40
0.0
 40
1.0
 40
1.0
 40
1.0
 40
1.0
 40
1.0
 10
1157.1000000000095
 20
1.0600486666749753
 30
52.0
 10
1151.5499778178892
 20
0.9925423561581646
 30
52.0
 10
1145.999898150061
 20
0.9297623578921546
 30
52.0
 10
1140.449768772212
 20
0.8715652838980318
 30
52.0
 10
1134.8995963980458
 20
0.8178071543106372
 30
52.0
  0
LINE
  5
B0
330
17
100
AcDbEntity
  8
0
100
AcDbLine
 10
1134.9
 20
26.658091881500578
 30
52.0
 11
1134.9
 21
0.817811065038158
 31
52.0
  0
SPLINE
  5
B1
330
17
100
AcDbEntity
  8
0
100
AcDbSpline
 70
0
 71
5
 72
12
 73
6
 74
0
 40
0.0
 40
0.0
 40
0.0
 40
0.0
 40
0.0
 40
0.0
 40
1.0
 40
1.0
 40
1.0
 40
1.0
 40
1.0
 40
1.0
 10
1131.0999993997127
 20
26.671804057619397
 30
52.0
 10
1131.932792815952
 20
26.66877828171489
 30
52.0
 10
1132.6632709675516
 20
26.6661348396731
 30
52.0
 10
1133.461106763763
 20
26.663252810710517
 30
52.0
 10
1134.2888775277052
 20
26.66028093563606
 30
52.0
 10
1134.9000006002864
 20
26.658091872026
 30
52.0
  0
LINE
  5
B2
330
17
100
AcDbEntity
  8
0
100
AcDbLine
 10
1131.1
 20
26.671804062962153
 30
52.0
 11
1131.1
 21
0.781782192157082
 31
52.0
  0
SPLINE
  5
B3
330
17
100
AcDbEntity
  8
0
100
AcDbSpline
 70
0
 71
4
 72
10
 73
5
 74
0
 40
0.0
 40
0.0
 40
0.0
 40
0.0
 40
0.0
 40
1.0
 40
1.0
 40
1.0
 40
1.0
 40
1.0
 10
1131.1000000000006
 20
0.7817821920663877
 30
52.0
 10
1125.5499539126952
 20
0.7302920172479892
 30
52.0
 10
1119.999867103923
 20
0.6831913330609293
 30
52.0
 10
1114.4497461073438
 20
0.6403365014873028
 30
52.0
 10
1108.8995964699593
 20
0.6015833508864102
 30
52.0
  0
LINE
  5
B4
330
17
100
AcDbEntity
  8
0
100
AcDbLine
 10
1108.9
 20
26.75424545527991
 30
52.0
 11
1108.9
 21
0.601586170612789
 31
52.0
  0
SPLINE
  5
B5
330
17
100
AcDbEntity
  8
0
100
AcDbSpline
 70
0
 71
4
 72
10
 73
5
 74
0
 40
0.0
 40
0.0
 40
0.0
 40
0.0
 40
0.0
 40
1.0
 40
1.0
 40
1.0
 40
1.0
 40
1.0
 10
1105.0999993996932
 20
26.768426495517843
 30
52.0
 10
1106.0500006834488
 20
26.764889209229572
 30
52.0
 10
1107.0000013222934
 20
26.761345580465584
 30
52.0
 10
1107.9500012999833
 20
26.757797146473358
 30
52.0
 10
1108.9000006003093
 20
26.754245444524535
 30
52.0
  0
LINE
  5
B6
330
17
100
AcDbEntity
  8
0
100
AcDbLine
 10
1105.1
 20
26.768426501376194
 30
52.0
 11
1105.1
 21
0.5757712402606694
 31
52.0
  0
SPLINE
  5
B7
330
17
100
AcDbEntity
  8
0
100
AcDbSpline
 70
0
 71
4
 72
10
 73
5
 74
0
 40
0.0
 40
0.0
 40
0.0
 40
0.0
 40
0.0
 40
1.0
 40
1.0
 40
1.0
 40
1.0
 40
1.0
 10
1105.1004035160338
 20
0.5757739034217353
 30
52.0
 10
1099.5502354391645
 20
0.5391139083690032
 30
52.0
 10
1094.0000405970982
 20
0.506506315404835
 30
52.0
 10
1088.4498243715966
 20
0.4778072593854551
 30
52.0
 10
1082.8995912337036
 20
0.45287239863476136
 30
52.0
  0
LINE
  5
B8
330
17
100
AcDbEntity
  8
0
100
AcDbLine
 10
1082.9
 20
26.848561913623413
 30
52.0
 11
1082.9
 21
0.4528742375405864
 31
52.0
  0
SPLINE
  5
B9
330
17
100
AcDbEntity
  8
0
100
AcDbSpline
 70
0
 71
4
 72
10
 73
5
 74
0
 40
0.0
 40
0.0
 40
0.0
 40
0.0
 40
0.0
 40
1.0
 40
1.0
 40
1.0
 40
1.0
 40
1.0
 10
1079.0999993996784
 20
26.861484710763943
 30
52.0
 10
1080.0500003439515
 20
26.858293538336333
 30
52.0
 10
1081.0000008701718
 20
26.855074988699958
 30
52.0
 10
1081.9500009612589
 20
26.851830598972708
 30
52.0
 10
1082.9000006003187
 20
26.848561906311737
 30
52.0
  0
LINE
  5
BA
330
17
100
AcDbEntity
  8
0
100
AcDbLine
 10
1079.1
 20
26.86148470900231
 30
52.0
 11
1079.1
 21
0.43646111919838315
 31
52.0
  0
SPLINE
  5
BB
330
17
100
AcDbEntity
  8
0
100
AcDbSpline
 70
0
 71
4
 72
10
 73
5
 74
0
 40
0.0
 40
0.0
 40
0.0
 40
0.0
 40
0.0
 40
1.0
 40
1.0
 40
1.0
 40
1.0
 40
1.0
 10
1079.1000000000104
 20
0.43646111670315396
 30
52.0
 10
1073.549916791345
 20
0.4134469839563983
 30
52.0
 10
1067.9998181812118
 20
0.39414748315507697
 30
52.0
 10
1062.4497084892166
 20
0.37841856900809845
 30
52.0
 10
1056.8995912011064
 20
0.3661157778837776
 30
52.0
  0
LINE
  5
BC
330
17
100
AcDbEntity
  8
0
100
AcDbLine
 10
1056.9
 20
26.92922480684573
 30
52.0
 11
1056.9
 21
0.36611668643305534
 31
52.0
  0
SPLINE
  5
BD
330
17
100
AcDbEntity
  8
0
100
AcDbSpline
 70
0
 71
4
 72
10
 73
5
 74
0
 40
0.0
 40
0.0
 40
0.0
 40
0.0
 40
0.0
 40
1.0
 40
1.0
 40
1.0
 40
1.0
 40
1.0
 10
1053.099999399673
 20
26.93916242783633
 30
52.0
 10
1054.049999977562
 20
26.936749101621647
 30
52.0
 10
1055.0000003828898
 20
26.93428736432377
 30
52.0
 10
1055.9500005966859
 20
26.931778753047197
 30
52.0
 10
1056.9000006003257
 20
26.929224804955776
 30
52.0
  0
LINE
  5
BE
330
17
100
AcDbEntity
  8
0
100
AcDbLine
 10
1053.1
 20
26.939162426741756
 30
52.0
 11
1053.1
 21
0.35829260977550725
 31
52.0
  0
SPLINE
  5
BF
330
17
100
AcDbEntity
  8
0
100
AcDbSpline
 70
0
 71
4
 72
10
 73
5
 74
0
 40
0.0
 40
0.0
 40
0.0
 40
0.0
 40
0.0
 40
1.0
 40
1.0
 40
1.0
 40
1.0
 40
1.0
 10
1053.100000000005
 20
0.3582926073973345
 30
52.0
 10
1047.549905676804
 20
0.34773637927995454
 30
52.0
 10
1041.9998049328622
 20
0.3405568437850518
 30
52.0
 10
1036.4497011169265
 20
0.33660980083707975
 30
52.0
 10
1030.8995968214044
 20
0.3357506919465987
 30
52.0
  0
LINE
  5
C0
330
17
100
AcDbEntity
  8
0
100
AcDbLine
 10
1030.9
 20
26.98441833014381
 30
52.0
 11
1030.9
 21
0.33575075401686316
 31
52.0
  0
SPLINE
  5
C1
330
17
100
AcDbEntity
  8
0
100
AcDbSpline
 70
0
 71
4
 72
10
 73
5
 74
0
 40
0.0
 40
0.0
 40
0.0
 40
0.0
 40
0.0
 40
1.0
 40
1.0
 40
1.0
 40
1.0
 40
1.0
 10
1027.0999993996743
 20
26.989643817401536
 30
52.0
 10
1028.0499995627165
 20
26.988440077272195
 30
52.0
 10
1028.9999998316919
 20
26.987166891037383
 30
52.0
 10
1029.9500001846998
 20
26.98582579589449
 30
52.0
 10
1030.9000006003262
 20
26.98441832911547
 30
52.0
  0
LINE
  5
C2
330
17
100
AcDbEntity
  8
0
100
AcDbLine
 10
1027.1
 20
26.98964381665867
 30
52.0
 11
1027.1
 21
0.33570238441070493
 31
52.0
  0
SPLINE
  5
C3
330
17
100
AcDbEntity
  8
0
100
AcDbSpline
 70
0
 71
4
 72
13
 73
8
 74
0
 40
0.0
 40
0.0
 40
0.0
 40
0.0
 40
0.0
 40
0.5050039695101617
 40
0.5050039695101617
 40
0.5050039695101617
 40
1.0
 40
1.0
 40
1.0
 40
1.0
 40
1.0
 10
1027.1
 20
0.3357023847569309
 30
52.0
 10
1024.2972264917184
 20
0.33606282601595416
 30
52.0
 10
1021.4944530832133
 20
0.3371981430064399
 30
52.0
 10
1018.6916800930086
 20
0.33908974840023576
 30
52.0
 10
1013.1416795635729
 20
0.3442962491184747
 30
52.0
 10
1010.394451997574
 20
0.34758266227216844
 30
52.0
 10
1007.6472253777238
 20
0.35158486301893105
 30
52.0
 10
1004.9000000000005
 20
0.3563093648422388
 30
52.0
  0
LINE
  5
C4
330
17
100
AcDbEntity
  8
0
100
AcDbLine
 10
1004.9
 20
27.0025846510589
 30
52.0
 11
1004.9
 21
0.35630936452387213
 31
52.0
  0
SPLINE
  5
C5
330
17
100
AcDbEntity
  8
0
100
AcDbSpline
 70
0
 71
4
 72
10
 73
5
 74
0
 40
0.0
 40
0.0
 40
0.0
 40
0.0
 40
0.0
 40
1.0
 40
1.0
 40
1.0
 40
1.0
 40
1.0
 10
1001.099999399677
 20
27.001737831819543
 30
52.0
 10
1002.0499991694155
 20
27.0020557980771
 30
52.0
 10
1002.9999993030123
 20
27.002303627900776
 30
52.0
 10
1003.9499997851916
 20
27.002480263949344
 30
52.0
 10
1004.9000006003203
 20
27.002584648982964
 30
52.0
  0
LINE
  5
C6
330
17
100
AcDbEntity
  8
0
100
AcDbLine
 10
1001.1
 20
27.001737835068454
 30
52.0
 11
1001.1
 21
0.3633637053396951
 31
52.0
  0
SPLINE
  5
C7
330
17
100
AcDbEntity
  8
0
100
AcDbSpline
 70
0
 71
4
 72
10
 73
5
 74
0
 40
0.0
 40
0.0
 40
0.0
 40
0.0
 40
0.0
 40
1.0
 40
1.0
 40
1.0
 40
1.0
 40
1.0
 10
1001.1000000000006
 20
0.36336370565861664
 30
52.0
 10
995.5499885785781
 20
0.3744268786012743
 30
52.00000000000001
 10
989.999983070531
 20
0.3884565025119466
 30
52.000000000000014
 10
984.4499859612225
 20
0.4055067146261993
 30
52.00000000000002
 10
978.900000000001
 20
0.425631414019648
 30
52.00000000000003
  0
LINE
  5
C8
330
17
100
AcDbEntity
  8
0
100
AcDbLine
 10
978.9
 20
26.980787961716906
 30
52.0
 11
978.9
 21
0.42563141369559265
 31
52.0
  0
SPLINE
  5
C9
330
17
100
AcDbEntity
  8
0
100
AcDbSpline
 70
0
 71
4
 72
10
 73
5
 74
0
 40
0.0
 40
0.0
 40
0.0
 40
0.0
 40
0.0
 40
1.0
 40
1.0
 40
1.0
 40
1.0
 40
1.0
 10
975.0999993996879
 20
26.974689642568602
 30
52.0
 10
976.0499988765961
 20
26.97629878373448
 30
52.0
 10
976.9999989111274
 20
26.97785225565055
 30
52.0
 10
977.9499994901684
 20
26.979349000951895
 30
52.0
 10
978.9000006003095
 20
26.980787962354867
 30
52.0
  0
LINE
  5
CA
330
17
100
AcDbEntity
  8
0
100
AcDbLine
 10
975.1
 20
26.97468964358543
 30
52.0
 11
975.1
 21
0.4399521218517197
 31
52.0
  0
SPLINE
  5
CB
330
17
100
AcDbEntity
  8
0
100
AcDbSpline
 70
0
 71
4
 72
10
 73
5
 74
0
 40
0.0
 40
0.0
 40
0.0
 40
0.0
 40
0.0
 40
1.0
 40
1.0
 40
1.0
 40
1.0
 40
1.0
 10
975.1000000000014
 20
0.439952122176572
 30
52.0
 10
969.5499789873893
 20
0.4616605803820095
 30
52.0
 10
963.9999700730147
 20
0.48646206371378947
 30
52.0
 10
958.4499760535274
 20
0.5144107257881257
 30
52.0
 10
952.9000000000018
 20
0.5455604476580289
 30
52.0
  0
LINE
  5
CC
330
17
100
AcDbEntity
  8
0
100
AcDbLine
 10
952.9
 20
26.926529476481846
 30
52.0
 11
952.9
 21
0.5455604473358164
 31
52.0
  0
SPLINE
  5
CD
330
17
100
AcDbEntity
  8
0
100
AcDbSpline
 70
0
 71
4
 72
10
 73
5
 74
0
 40
0.0
 40
0.0
 40
0.0
 40
0.0
 40
0.0
 40
1.0
 40
1.0
 40
1.0
 40
1.0
 40
1.0
 10
949.0999993997075
 20
26.916367424249653
 30
52.0
 10
950.0499986234003
 20
26.91897079693658
 30
52.0
 10
950.9999985724071
 20
26.92153296814846
 30
52.0
 10
951.9499992352653
 20
26.92405288046331
 30
52.0
 10
952.9000006002993
 20
26.926529476523037
 30
52.0
  0
LINE
  5
CE
330
17
100
AcDbEntity
  8
0
100
AcDbLine
 10
949.1
 20
26.916367428349822
 30
52.0
 11
949.1
 21
0.5674521416114339
 31
52.0
  0
SPLINE
  5
CF
330
17
100
AcDbEntity
  8
0
100
AcDbSpline
 70
0
 71
4
 72
10
 73
5
 74
0
 40
0.0
 40
0.0
 40
0.0
 40
0.0
 40
0.0
 40
1.0
 40
1.0
 40
1.0
 40
1.0
 40
1.0
 10
949.100000000002
 20
0.5674521419337923
 30
52.0
 10
943.5498675476977
 20
0.6002514440171053
 30
52.0
 10
937.999754123012
 20
0.636270485787471
 30
52.0
 10
932.4496628469958
 20
0.6755634132261409
 30
52.0
 10
926.8995971253959
 20
0.7181840698737236
 30
52.0
  0
LINE
  5
D0
330
17
100
AcDbEntity
  8
0
100
AcDbLine
 10
926.9
 20
26.847936191992233
 30
52.0
 11
926.9
 21
0.7181809757610167
 31
52.0
  0
SPLINE
  5
D1
330
17
100
AcDbEntity
  8
0
100
AcDbSpline
 70
0
 71
4
 72
10
 73
5
 74
0
 40
0.0
 40
0.0
 40
0.0
 40
0.0
 40
0.0
 40
1.0
 40
1.0
 40
1.0
 40
1.0
 40
1.0
 10
923.0999993997272
 20
26.83489823936029
 30
52.0
 10
924.0499983996295
 20
26.83819888230766
 30
52.0
 10
924.9999982732465
 20
26.841472792924776
 30
52.0
 10
925.9499990102772
 20
26.844718913689306
 30
52.0
 10
926.9000006002794
 20
26.847936187128862
 30
52.0
  0
LINE
  5
D2
330
17
100
AcDbEntity
  8
0
100
AcDbLine
 10
923.1
 20
26.834898248352633
 30
52.0
 11
923.1
 21
0.7479483483473587
 31
52.0
  0
SPLINE
  5
D3
330
17
100
AcDbEntity
  8
0
100
AcDbSpline
 70
0
 71
4
 72
10
 73
5
 74
0
 40
0.0
 40
0.0
 40
0.0
 40
0.0
 40
0.0
 40
0.9999751506197052
 40
0.9999751506197052
 40
0.9999751506197052
 40
0.9999751506197052
 40
0.9999751506197052
 10
923.1004028613877
 20
0.7479451305985791
 30
52.0
 10
917.5502585185022
 20
0.7922797769956496
 30
52.0
 10
912.000140906137
 20
0.8399607354937603
 30
52.0
 10
906.4500534823708
 20
0.8910421199103472
 30
52.0
 10
900.900000000003
 20
0.9455777162275895
 30
52.0
  0
LINE
  5
D4
330
17
100
AcDbEntity
  8
0
100
AcDbLine
 10
900.9
 20
26.75313578617915
 30
52.0
 11
900.9
 21
0.9455777159089636
 31
52.0
  0
SPLINE
  5
D5
330
17
100
AcDbEntity
  8
0
100
AcDbSpline
 70
0
 71
5
 72
12
 73
6
 74
0
 40
0.0
 40
0.0
 40
0.0
 40
0.0
 40
0.0
 40
0.0
 40
1.0
 40
1.0
 40
1.0
 40
1.0
 40
1.0
 40
1.0
 10
897.0999993997474
 20
26.73840992675459
 30
52.0
 10
897.9088202467193
 20
26.741560852971457
 30
52.0
 10
898.659472618627
 20
26.74447682789365
 30
52.0
 10
899.4395002622095
 20
26.747500845565796
 30
52.0
 10
900.2289152679145
 20
26.750549668621833
 30
52.0
 10
900.9000006002533
 20
26.75313578482977
 30
52.0
  0
LINE
  5
D6
330
17
100
AcDbEntity
  8
0
100
AcDbLine
 10
897.1
 20
26.738409931529674
 30
52.0
 11
897.1
 21
0.9835254374293576
 31
52.0
  0
SPLINE
  5
D7
330
17
100
AcDbEntity
  8
0
100
AcDbSpline
 70
0
 71
4
 72
10
 73
5
 74
0
 40
0.0
 40
0.0
 40
0.0
 40
0.0
 40
0.0
 40
1.0
 40
1.0
 40
1.0
 40
1.0
 40
1.0
 10
897.1000000000032
 20
0.983525437747163
 30
52.0
 10
891.5498426077397
 20
1.039840839621238
 30
52.0
 10
885.9997204530886
 20
1.099629063132938
 30
52.0
 10
880.4496373438379
 20
1.1629441746557394
 30
52.0
 10
874.8995973922641
 20
1.229839889618102
 30
52.0
  0
LINE
  5
D8
330
17
100
AcDbEntity
  8
0
100
AcDbLine
 10
874.9
 20
26.650257209986755
 30
52.0
 11
874.9
 21
1.2298350366049047
 31
52.0
  0
SPLINE
  5
D9
330
17
100
AcDbEntity
  8
0
100
AcDbSpline
 70
0
 71
1
 72
4
 73
2
 74
0
 40
0.0
 40
0.0
 40
1.0
 40
1.0
 10
871.099999399778
 20
26.63503165835063
 30
52.0
 10
874.9000006002261
 20
26.650257211961755
 30
52.0
  0
LINE
  5
DA
330
17
100
AcDbEntity
  8
0
100
AcDbLine
 10
871.1
 20
26.635031660955207
 30
52.0
 11
871.1
 21
1.2762676936240598
 31
52.0
  0
SPLINE
  5
DB
330
17
100
AcDbEntity
  8
0
100
AcDbSpline
 70
0
 71
4
 72
10
 73
5
 74
0
 40
0.0
 40
0.0
 40
0.0
 40
0.0
 40
0.0
 40
1.0
 40
1.0
 40
1.0
 40
1.0
 40
1.0
 10
871.1000000000039
 20
1.2762676939335489
 30
52.0
 10
865.5499288868863
 20
1.345007354330231
 30
52.00000000000001
 10
859.9999023503493
 20
1.417346122055024
 30
52.000000000000014
 10
854.4499245600709
 20
1.4933379998894754
 30
52.00000000000002
 10
848.9000000000042
 20
1.5730366250489307
 30
52.00000000000003
  0
LINE
  5
DC
330
17
100
AcDbEntity
  8
0
100
AcDbLine
 10
848.9
 20
26.547431217331905
 30
52.0
 11
848.9
 21
1.5730366247509926
 31
52.0
  0
SPLINE
  5
DD
330
17
100
AcDbEntity
  8
0
100
AcDbSpline
 70
0
 71
5
 72
12
 73
6
 74
0
 40
0.0
 40
0.0
 40
0.0
 40
0.0
 40
0.0
 40
0.0
 40
1.0
 40
1.0
 40
1.0
 40
1.0
 40
1.0
 40
1.0
 10
845.09999939981
 20
26.532894496206733
 30
52.0
 10
845.9087537775049
 20
26.535967939243854
 30
52.0
 10
846.5484088661681
 20
26.538409827892806
 30
52.0
 10
847.3888988166075
 20
26.541617934665375
 30
52.0
 10
848.3533963673971
 20
26.545327026865884
 30
52.0
 10
848.9000006001978
 20
26.547431219555083
 30
52.0
  0
LINE
  5
DE
330
17
100
AcDbEntity
  8
0
100
AcDbLine
 10
845.1
 20
26.53289449874356
 30
52.0
 11
845.1
 21
1.6282586892832076
 31
52.0
  0
SPLINE
  5
DF
330
17
100
AcDbEntity
  8
0
100
AcDbSpline
 70
0
 71
4
 72
10
 73
5
 74
0
 40
0.0
 40
0.0
 40
0.0
 40
0.0
 40
0.0
 40
1.0
 40
1.0
 40
1.0
 40
1.0
 40
1.0
 10
845.1000000000045
 20
1.6282586895786642
 30
52.0
 10
839.5498126883812
 20
1.7098698749104613
 30
52.0
 10
833.9996801585808
 20
1.7952066085398837
 30
52.0
 10
828.4496069551462
 20
1.8843228305145818
 30
52.0
 10
822.8995979465564
 20
1.9772721028046898
 30
52.0
  0
LINE
  5
E0
330
17
100
AcDbEntity
  8
0
100
AcDbLine
 10
822.9
 20
26.452790923910676
 30
52.0
 11
822.9
 21
1.977265369109078
 31
52.0
  0
SPLINE
  5
E1
330
17
100
AcDbEntity
  8
0
100
AcDbSpline
 70
0
 71
4
 72
10
 73
5
 74
0
 40
0.0
 40
0.0
 40
0.0
 40
0.0
 40
0.0
 40
1.0
 40
1.0
 40
1.0
 40
1.0
 40
1.0
 10
819.0999993998457
 20
26.44013195007374
 30
52.0
 10
820.0499975948718
 20
26.44325098943658
 30
52.0
 10
820.9999972003228
 20
26.446401203969803
 30
52.0
 10
821.9499982055771
 20
26.449581535240977
 30
52.0
 10
822.9000006001602
 20
26.452790924810266
 30
52.0
  0
LINE
  5
E2
330
17
100
AcDbEntity
  8
0
100
AcDbLine
 10
819.1
 20
26.44013195321662
 30
52.0
 11
819.1
 21
2.041581199705176
 31
52.0
  0
SPLINE
  5
E3
330
17
100
AcDbEntity
  8
0
100
AcDbSpline
 70
0
 71
4
 72
10
 73
5
 74
0
 40
0.0
 40
0.0
 40
0.0
 40
0.0
 40
0.0
 40
1.0
 40
1.0
 40
1.0
 40
1.0
 40
1.0
 10
819.1000000000046
 20
2.041581199978992
 30
52.0
 10
813.5497957631864
 20
2.1365072883839558
 30
52.0
 10
807.9996574044098
 20
2.235285129431166
 30
52.0
 10
802.4495898553245
 20
2.3379685966358834
 30
52.0
 10
796.8995983811843
 20
2.4446111769511507
 30
52.0
  0
LINE
  5
E4
330
17
100
AcDbEntity
  8
0
100
AcDbLine
 10
796.9
 20
26.37447236920623
 30
52.0
 11
796.9
 21
2.4446034596429667
 31
52.0
  0
SPLINE
  5
E5
330
17
100
AcDbEntity
  8
0
100
AcDbSpline
 70
0
 71
4
 72
10
 73
5
 74
0
 40
0.0
 40
0.0
 40
0.0
 40
0.0
 40
0.0
 40
1.0
 40
1.0
 40
1.0
 40
1.0
 40
1.0
 10
793.0999993998789
 20
26.36488053553023
 30
52.0
 10
794.0499973652207
 20
26.367211056427372
 30
52.0
 10
794.9999968949696
 20
26.369587241522837
 30
52.0
 10
795.9499979771764
 20
26.372008032030273
 30
52.0
 10
796.9000006001204
 20
26.37447236914146
 30
52.0
  0
LINE
  5
E6
330
17
100
AcDbEntity
  8
0
100
AcDbLine
 10
793.1
 20
26.36488053758456
 30
52.0
 11
793.1
 21
2.518317333972895
 31
52.0
  0
SPLINE
  5
E7
330
17
100
AcDbEntity
  8
0
100
AcDbSpline
 70
0
 71
4
 72
10
 73
5
 74
0
 40
0.0
 40
0.0
 40
0.0
 40
0.0
 40
0.0
 40
1.0
 40
1.0
 40
1.0
 40
1.0
 40
1.0
 10
793.1004015447456
 20
2.5183094710964804
 30
52.0
 10
787.5500786291589
 20
2.6269967380665458
 30
52.0
 10
781.9998336127684
 20
2.739662009656878
 30
52.0
 10
776.4496718272305
 20
2.8563590995469648
 30
52.0
 10
770.8995989474633
 20
2.9771414314982305
 30
52.0
  0
LINE
  5
E8
330
17
100
AcDbEntity
  8
0
100
AcDbLine
 10
770.9
 20
26.320615075996425
 30
52.0
 11
770.9
 21
2.9771327034779262
 31
52.0
  0
SPLINE
  5
E9
330
17
100
AcDbEntity
  8
0
100
AcDbSpline
 70
0
 71
4
 72
10
 73
5
 74
0
 40
0.0
 40
0.0
 40
0.0
 40
0.0
 40
0.0
 40
1.0
 40
1.0
 40
1.0
 40
1.0
 40
1.0
 10
767.09999939993
 20
26.315280332808324
 30
52.0
 10
768.0499971037498
 20
26.316524838343177
 30
52.0
 10
768.9999965475109
 20
26.317829503661287
 30
52.0
 10
769.9499977174497
 20
26.319193269585167
 30
52.0
 10
770.9000006000841
 20
26.320615076894534
 30
52.0
  0
LINE
  5
EA
330
17
100
AcDbEntity
  8
0
100
AcDbLine
 10
767.1
 20
26.315280333594423
 30
52.0
 11
767.1
 21
3.060548882936681
 31
52.0
  0
SPLINE
  5
EB
330
17
100
AcDbEntity
  8
0
100
AcDbSpline
 70
0
 71
4
 72
10
 73
5
 74
0
 40
0.0
 40
0.0
 40
0.0
 40
0.0
 40
0.0
 40
1.0
 40
1.0
 40
1.0
 40
1.0
 40
1.0
 10
767.1000000000043
 20
3.0605488831335843
 30
52.0
 10
761.5497577829026
 20
3.183438354734876
 30
52.0
 10
755.9996064333794
 20
3.3104317290939655
 30
52.0
 10
750.4495516952909
 20
3.4415827637905316
 30
52.0
 10
744.8995996655465
 20
3.576944827772268
 30
52.0
  0
LINE
  5
EC
330
17
100
AcDbEntity
  8
0
100
AcDbLine
 10
744.9
 20
26.29936261959105
 30
52.0
 11
744.9
 21
3.576935063569853
 31
52.0
  0
SPLINE
  5
ED
330
17
100
AcDbEntity
  8
0
100
AcDbSpline
 70
0
 71
4
 72
10
 73
5
 74
0
 40
0.0
 40
0.0
 40
0.0
 40
0.0
 40
0.0
 40
1.0
 40
1.0
 40
1.0
 40
1.0
 40
1.0
 10
741.099999399971
 20
26.299475546417526
 30
52.0
 10
742.0499968001851
 20
26.299336379120952
 30
52.0
 10
742.9999961442642
 20
26.299271874504537
 30
52.0
 10
743.949997416121
 20
26.299280972966933
 30
52.0
 10
744.9000006000294
 20
26.29936261484759
 30
52.0
  0
LINE
  5
EE
330
17
100
AcDbEntity
  8
0
100
AcDbLine
 10
741.1
 20
26.299475550204555
 30
52.0
 11
741.1
 21
3.6703578913451698
 31
52.0
  0
SPLINE
  5
EF
330
17
100
AcDbEntity
  8
0
100
AcDbSpline
 70
0
 71
4
 72
10
 73
5
 74
0
 40
0.0
 40
0.0
 40
0.0
 40
0.0
 40
0.0
 40
1.0
 40
1.0
 40
1.0
 40
1.0
 40
1.0
 10
741.1000000000033
 20
3.6703578914799535
 30
52.0
 10
735.5497366459223
 20
3.8078959920202706
 30
52.0
 10
729.999578113725
 20
3.9496640037190316
 30
52.0
 10
724.4495305728241
 20
4.095715646227655
 30
52.0
 10
718.8996005557616
 20
4.246104257347573
 30
52.0
  0
LINE
  5
F0
330
17
100
AcDbEntity
  8
0
100
AcDbLine
 10
718.9
 20
26.318863154245964
 30
52.0
 11
718.9
 21
4.246093433861383
 31
52.0
  0
SPLINE
  5
F1
330
17
100
AcDbEntity
  8
0
100
AcDbSpline
 70
0
 71
4
 72
10
 73
5
 74
0
 40
0.0
 40
0.0
 40
0.0
 40
0.0
 40
0.0
 40
1.0
 40
1.0
 40
1.0
 40
1.0
 40
1.0
 10
715.0999994000301
 20
26.325615065675088
 30
52.0
 10
716.0499964442865
 20
26.323794387139316
 30
52.0
 10
716.9999956715639
 20
26.322062882155397
 30
52.0
 10
717.9499970629531
 20
26.3204194906835
 30
52.0
 10
718.90000059998
 20
26.31886315260211
 30
52.0
  0
LINE
  5
F2
330
17
100
AcDbEntity
  8
0
100
AcDbLine
 10
715.1
 20
26.32561506533374
 30
52.0
 11
715.1
 21
4.349827468488075
 31
52.0
  0
SPLINE
  5
F3
330
17
100
AcDbEntity
  8
0
100
AcDbSpline
 70
0
 71
4
 72
10
 73
5
 74
0
 40
0.0
 40
0.0
 40
0.0
 40
0.0
 40
0.0
 40
0.9999754948616978
 40
0.9999754948616978
 40
0.9999754948616978
 40
0.9999754948616978
 40
0.9999754948616978
 10
715.100399298485
 20
4.349816488128467
 30
52.0
 10
709.5501130853942
 20
4.502448012929723
 30
52.0
 10
703.9999466633632
 20
4.659435477374833
 30
52.0
 10
698.4499066408713
 20
4.820832585001657
 30
52.0
 10
692.9000000000052
 20
4.986692670781355
 30
52.0
  0
LINE
  5
F4
330
17
100
AcDbEntity
  8
0
100
AcDbLine
 10
692.9
 20
26.38727003400075
 30
52.0
 11
692.9
 21
4.986692670608606
 31
52.0
  0
SPLINE
  5
F5
330
17
100
AcDbEntity
  8
0
100
AcDbSpline
 70
0
 71
4
 72
10
 73
5
 74
0
 40
0.0
 40
0.0
 40
0.0
 40
0.0
 40
0.0
 40
1.0
 40
1.0
 40
1.0
 40
1.0
 40
1.0
 10
689.099999400087
 20
26.401853026250826
 30
52.0
 10
690.0499960257531
 20
26.39805279675671
 30
52.0
 10
690.999995115684
 20
26.39435626021722
 30
52.0
 10
691.9499966476496
 20
26.390762356150063
 30
52.0
 10
692.900000599925
 20
26.387270023972672
 30
52.0
  0
LINE
  5
F6
330
17
100
AcDbEntity
  8
0
100
AcDbLine
 10
689.1
 20
26.4018530306867
 30
52.0
 11
689.1
 21
5.101042863462896
 31
52.0
  0
SPLINE
  5
F7
330
17
100
AcDbEntity
  8
0
100
AcDbSpline
 70
0
 71
4
 72
13
 73
8
 74
0
 40
0.0
 40
0.0
 40
0.0
 40
0.0
 40
0.0
 40
0.5310052236906844
 40
0.5310052236906844
 40
0.5310052236906844
 40
1.0
 40
1.0
 40
1.0
 40
1.0
 40
1.0
 10
689.1003981856932
 20
5.101030798836003
 30
52.0
 10
686.153101800707
 20
5.1903319692871905
 30
52.0
 10
683.2058437103436
 20
5.280896966716517
 30
52.0
 10
680.2586249728572
 20
5.372733866894405
 30
52.0
 10
674.7084379574586
 20
5.548093312516211
 30
52.0
 10
672.1054607849692
 20
5.631334355227201
 30
52.0
 10
669.5025156290427
 20
5.715570458146098
 30
52.0
 10
666.8996029687764
 20
5.800798877910088
 30
52.0
  0
LINE
  5
F8
330
17
100
AcDbEntity
  8
0
100
AcDbLine
 10
666.9
 20
26.512742519193857
 30
52.0
 11
666.9
 21
5.800785877669935
 31
52.0
  0
SPLINE
  5
F9
330
17
100
AcDbEntity
  8
0
100
AcDbSpline
 70
0
 71
4
 72
10
 73
5
 74
0
 40
0.0
 40
0.0
 40
0.0
 40
0.0
 40
0.0
 40
1.0
 40
1.0
 40
1.0
 40
1.0
 40
1.0
 10
663.0999994001472
 20
26.536349372835534
 30
52.0
 10
664.0499955342835
 20
26.530271330969384
 30
52.0
 10
664.9999944628869
 20
26.524311510411422
 30
52.0
 10
665.949996159907
 20
26.518468850261538
 30
52.0
 10
666.9000005998618
 20
26.512742289484372
 30
52.0
  0
LINE
  5
FA
330
17
100
AcDbEntity
  8
0
100
AcDbLine
 10
663.1
 20
26.53634969753878
 30
52.0
 11
663.1
 21
5.926004429162406
 31
52.0
  0
SPLINE
  5
FB
330
17
100
AcDbEntity
  8
0
100
AcDbSpline
 70
0
 71
4
 72
10
 73
5
 74
0
 40
0.0
 40
0.0
 40
0.0
 40
0.0
 40
0.0
 40
1.0
 40
1.0
 40
1.0
 40
1.0
 40
1.0
 10
663.100396793771
 20
5.925991271166086
 30
52.0
 10
657.5499699632458
 20
6.110048378770578
 30
52.0
 10
651.9996925076699
 20
6.2986092772966185
 30
52.0
 10
646.4495691319582
 20
6.491650391864145
 30
52.0
 10
640.8996048683296
 20
6.689161229141563
 30
52.0
  0
LINE
  5
FC
330
17
100
AcDbEntity
  8
0
100
AcDbLine
 10
640.9
 20
26.703445305301415
 30
52.0
 11
640.9
 21
6.689147167357508
 31
52.0
  0
SPLINE
  5
FD
330
17
100
AcDbEntity
  8
0
100
AcDbSpline
 70
0
 71
4
 72
10
 73
5
 74
0
 40
0.0
 40
0.0
 40
0.0
 40
0.0
 40
0.0
 40
1.0
 40
1.0
 40
1.0
 40
1.0
 40
1.0
 10
637.0999994002118
 20
26.737270423042023
 30
52.0
 10
638.0499949595578
 20
26.728616065298127
 30
52.0
 10
638.9999936994194
 20
26.720094466439477
 30
52.0
 10
639.9499955894065
 20
26.711704565185766
 30
52.0
 10
640.9000005997977
 20
26.70344530008682
 30
52.0
  0
LINE
  5
FE
330
17
100
AcDbEntity
  8
0
100
AcDbLine
 10
637.1
 20
26.737270535311225
 30
52.0
 11
637.1
 21
6.8251671378814525
 31
52.0
  0
SPLINE
  5
FF
330
17
100
AcDbEntity
  8
0
100
AcDbSpline
 70
0
 71
4
 72
10
 73
5
 74
0
 40
0.0
 40
0.0
 40
0.0
 40
0.0
 40
0.0
 40
1.0
 40
1.0
 40
1.0
 40
1.0
 40
1.0
 10
637.0999999999972
 20
6.825167137800372
 30
52.0
 10
631.5496541300416
 20
7.024988966137816
 30
52.0
 10
625.9994691472746
 20
7.229278129710696
 30
52.0
 10
620.4494501682916
 20
7.438026766057458
 30
52.0
 10
614.8996027943753
 20
7.65124022149895
 30
52.0
  0
LINE
  5
100
330
17
100
AcDbEntity
  8
0
100
AcDbLine
 10
614.9
 20
26.967551302795997
 30
52.0
 11
614.9
 21
7.651224961747409
 31
52.0
  0
SPLINE
  5
101
330
17
100
AcDbEntity
  8
0
100
AcDbSpline
 70
0
 71
4
 72
10
 73
5
 74
0
 40
0.0
 40
0.0
 40
0.0
 40
0.0
 40
0.0
 40
1.0
 40
1.0
 40
1.0
 40
1.0
 40
1.0
 10
611.0999994002809
 20
27.012789432648713
 30
52.0
 10
612.049994291239
 20
27.00125999301362
 30
52.0
 10
612.9999928114876
 20
26.989877859159964
 30
52.0
 10
613.9499949258179
 20
26.978641969487295
 30
52.0
 10
614.900000599747
 20
26.96755126219454
 30
52.0
  0
LINE
  5
102
330
17
100
AcDbEntity
  8
0
100
AcDbLine
 10
611.1
 20
27.01278945497661
 30
52.0
 11
611.1
 21
7.797999073766757
 31
52.0
  0
SPLINE
  5
103
330
17
100
AcDbEntity
  8
0
100
AcDbSpline
 70
0
 71
4
 72
10
 73
5
 74
0
 40
0.0
 40
0.0
 40
0.0
 40
0.0
 40
0.0
 40
1.0
 40
1.0
 40
1.0
 40
1.0
 40
1.0
 10
611.0999999999972
 20
7.797999073695218
 30
52.0
 10
605.5496352566938
 20
8.01352928680168
 30
52.0
 10
599.9994441057711
 20
8.23352762195896
 30
52.0
 10
594.4494322620084
 20
8.458002119926924
 30
52.0
 10
588.8996061068377
 20
8.686974672568518
 30
52.0
  0
LINE
  5
104
330
17
100
AcDbEntity
  8
0
100
AcDbLine
 10
588.9
 20
27.31323985775647
 30
52.0
 11
588.9
 21
8.68695842172422
 31
52.0
  0
SPLINE
  5
105
330
17
100
AcDbEntity
  8
0
100
AcDbSpline
 70
0
 71
4
 72
10
 73
5
 74
0
 40
0.0
 40
0.0
 40
0.0
 40
0.0
 40
0.0
 40
1.0
 40
1.0
 40
1.0
 40
1.0
 40
1.0
 10
585.0999994003398
 20
27.371087162296128
 30
52.0
 10
586.0499935189388
 20
27.356383591811205
 30
52.0
 10
586.9999917852504
 20
27.341841883218898
 30
52.0
 10
587.9499941587362
 20
27.327460974692805
 30
52.0
 10
588.9000005996575
 20
27.313239804164958
 30
52.0
  0
LINE
  5
106
330
17
100
AcDbEntity
  8
0
100
AcDbLine
 10
585.1
 20
27.371087447122953
 30
52.0
 11
585.1
 21
8.844529816477626
 31
52.0
  0
SPLINE
  5
107
330
17
100
AcDbEntity
  8
0
100
AcDbSpline
 70
0
 71
4
 72
10
 73
5
 74
0
 40
0.0
 40
0.0
 40
0.0
 40
0.0
 40
0.0
 40
1.0
 40
1.0
 40
1.0
 40
1.0
 40
1.0
 10
585.099999999989
 20
8.844529816213596
 30
52.0
 10
579.5497113222135
 20
9.075837412852486
 30
52.00000000000001
 10
573.999610595651
 20
9.31165202142251
 30
52.000000000000014
 10
568.449704349075
 20
9.551998384249455
 30
52.00000000000002
 10
562.9000000001574
 20
9.796916322745401
 30
52.00000000000003
  0
LINE
  5
108
330
17
100
AcDbEntity
  8
0
100
AcDbLine
 10
562.9
 20
27.748698577560017
 30
52.0
 11
562.9
 21
9.796916319178813
 31
52.0
  0
SPLINE
  5
109
330
17
100
AcDbEntity
  8
0
100
AcDbSpline
 70
0
 71
4
 72
10
 73
5
 74
0
 40
0.0
 40
0.0
 40
0.0
 40
0.0
 40
0.0
 40
1.0
 40
1.0
 40
1.0
 40
1.0
 40
1.0
 10
559.0999994004308
 20
27.820352445745662
 30
52.0
 10
560.0499926323288
 20
27.802175392043285
 30
52.0
 10
560.9999906069227
 20
27.784174765240028
 30
52.0
 10
561.9499932778433
 20
27.766349503405287
 30
52.0
 10
562.9000005995929
 20
27.748698544320593
 30
52.0
  0
LINE
  5
10A
330
17
100
AcDbEntity
  8
0
100
AcDbLine
 10
559.1
 20
27.820352457906683
 30
52.0
 11
559.1
 21
9.965423009712831
 31
52.0
  0
SPLINE
  5
10B
330
17
100
AcDbEntity
  8
0
100
AcDbSpline
 70
0
 71
4
 72
10
 73
5
 74
0
 40
0.0
 40
0.0
 40
0.0
 40
0.0
 40
0.0
 40
1.0
 40
1.0
 40
1.0
 40
1.0
 40
1.0
 10
559.1000000001593
 20
9.965423013286742
 30
52.0
 10
553.5496852870821
 20
10.21272421060629
 30
52.0
 10
547.9995751153244
 20
10.46461243984177
 30
52.0
 10
542.4496770927075
 20
10.721130641380642
 30
52.0
 10
536.8999999999827
 20
10.982338783144908
 30
52.0
  0
LINE
  5
10C
330
17
100
AcDbEntity
  8
0
100
AcDbLine
 10
536.9
 20
28.282123674127302
 30
52.0
 11
536.9
 21
10.982338783509949
 31
52.0
  0
SPLINE
  5
10D
330
17
100
AcDbEntity
  8
0
100
AcDbSpline
 70
0
 71
4
 72
10
 73
5
 74
0
 40
0.0
 40
0.0
 40
0.0
 40
0.0
 40
0.0
 40
1.0
 40
1.0
 40
1.0
 40
1.0
 40
1.0
 10
533.099999400494
 20
28.368782759817048
 30
52.0
 10
534.049991620961
 20
28.346832546627052
 30
52.0
 10
534.9999892625945
 20
28.32507333367671
 30
52.0
 10
535.9499922726936
 20
28.303504059086094
 30
52.0
 10
536.9000005994999
 20
28.282123660635264
 30
52.0
  0
LINE
  5
10E
330
17
100
AcDbEntity
  8
0
100
AcDbLine
 10
533.1
 20
28.368782745965053
 30
52.0
 11
533.1
 21
11.16202209334588
 31
52.0
  0
SPLINE
  5
10F
330
17
100
AcDbEntity
  8
0
100
AcDbSpline
 70
0
 71
4
 72
10
 73
5
 74
0
 40
0.0
 40
0.0
 40
0.0
 40
0.0
 40
0.0
 40
1.0
 40
1.0
 40
1.0
 40
1.0
 40
1.0
 10
533.0999999999816
 20
11.162022092961022
 30
52.0
 10
527.5496544878149
 20
11.425681423739054
 30
52.0
 10
521.9995330416701
 20
11.694053317069859
 30
52.0
 10
516.449644687247
 20
11.967201264799307
 30
52.0
 10
510.8999999999777
 20
12.245208672642926
 30
52.0
  0
LINE
  5
110
330
17
100
AcDbEntity
  8
0
100
AcDbLine
 10
510.9
 20
28.921720478217157
 30
52.0
 11
510.9
 21
12.245208673085278
 31
52.0
  0
SPLINE
  5
111
330
17
100
AcDbEntity
  8
0
100
AcDbSpline
 70
0
 71
4
 72
10
 73
5
 74
0
 40
0.0
 40
0.0
 40
0.0
 40
0.0
 40
0.0
 40
1.0
 40
1.0
 40
1.0
 40
1.0
 40
1.0
 10
507.0999994005975
 20
29.02458475658293
 30
52.0
 10
508.04999047576047
 20
28.99856148832648
 30
52.0
 10
508.9999877380235
 20
28.972743534813066
 30
52.0
 10
509.94999113306767
 20
28.947130297601785
 30
52.0
 10
510.90000059941536
 20
28.921720462184638
 30
52.0
  0
LINE
  5
112
330
17
100
AcDbEntity
  8
0
100
AcDbLine
 10
507.1
 20
29.024584746081764
 30
52.0
 11
507.1
 21
12.436426576467134
 31
52.0
  0
SPLINE
  5
113
330
17
100
AcDbEntity
  8
0
100
AcDbSpline
 70
0
 71
4
 72
10
 73
5
 74
0
 40
0.0
 40
0.0
 40
0.0
 40
0.0
 40
0.0
 40
1.0
 40
1.0
 40
1.0
 40
1.0
 40
1.0
 10
507.1000000001437
 20
12.436426579308463
 30
52.0
 10
501.5496174104081
 20
12.716980838957706
 30
52.0
 10
495.9994822737342
 20
13.002425570381911
 30
52.0
 10
490.4496054836087
 20
13.292848290804367
 30
52.0
 10
484.9000000000957
 20
13.588360604274783
 30
52.0
  0
LINE
  5
114
330
17
100
AcDbEntity
  8
0
100
AcDbLine
 10
484.9
 20
29.675035601760904
 30
52.0
 11
484.9
 21
13.588360602477469
 31
52.0
  0
SPLINE
  5
115
330
17
100
AcDbEntity
  8
0
100
AcDbSpline
 70
0
 71
4
 72
10
 73
5
 74
0
 40
0.0
 40
0.0
 40
0.0
 40
0.0
 40
0.0
 40
1.0
 40
1.0
 40
1.0
 40
1.0
 40
1.0
 10
481.0999994006853
 20
29.794919516794796
 30
52.0
 10
482.0499893944344
 20
29.764634387209828
 30
52.0
 10
482.99998629444497
 20
29.734558898027405
 30
52.0
 10
483.9499900471611
 20
29.70469273145829
 30
52.0
 10
484.90000059932606
 20
29.675035569339503
 30
52.0
  0
LINE
  5
116
330
17
100
AcDbEntity
  8
0
100
AcDbLine
 10
481.1
 20
29.794919511845364
 30
52.0
 11
481.1
 21
13.791607500817388
 31
52.0
  0
SPLINE
  5
117
330
17
100
AcDbEntity
  8
0
100
AcDbSpline
 70
0
 71
4
 72
10
 73
5
 74
0
 40
0.0
 40
0.0
 40
0.0
 40
0.0
 40
0.0
 40
1.0
 40
1.0
 40
1.0
 40
1.0
 40
1.0
 10
481.10000000001946
 20
13.791607501179515
 30
52.0
 10
475.5495719836117
 20
14.089795468786285
 30
52.0
 10
469.99941992593773
 20
14.39311419922025
 30
52.0
 10
464.4495572056473
 20
14.701680248890764
 30
52.0
 10
458.8999999999862
 20
15.015640279146965
 30
52.0
  0
LINE
  5
118
330
17
100
AcDbEntity
  8
0
100
AcDbLine
 10
458.9
 20
30.545879583054447
 30
52.0
 11
458.9
 21
15.015640279389666
 31
52.0
  0
SPLINE
  5
119
330
17
100
AcDbEntity
  8
0
100
AcDbSpline
 70
0
 71
4
 72
10
 73
5
 74
0
 40
0.0
 40
0.0
 40
0.0
 40
0.0
 40
0.0
 40
1.0
 40
1.0
 40
1.0
 40
1.0
 40
1.0
 10
455.0999994007805
 20
30.68315127891382
 30
52.0
 10
456.0499882713066
 20
30.64851258435408
 30
52.0
 10
456.99998479834306
 20
30.614087944312264
 30
52.0
 10
457.94998892613563
 20
30.579877041422492
 30
52.0
 10
458.9000005992334
 20
30.545879557927705
 30
52.0
  0
LINE
  5
11A
330
17
100
AcDbEntity
  8
0
100
AcDbLine
 10
455.1
 20
30.68315126112414
 30
52.0
 11
455.1
 21
15.231575576645737
 31
52.0
  0
SPLINE
  5
11B
330
17
100
AcDbEntity
  8
0
100
AcDbSpline
 70
0
 71
4
 72
13
 73
8
 74
0
 40
0.0
 40
0.0
 40
0.0
 40
0.0
 40
0.0
 40
0.502466040436683
 40
0.502466040436683
 40
0.502466040436683
 40
1.0
 40
1.0
 40
1.0
 40
1.0
 40
1.0
 10
455.0999999999883
 20
15.231575576441164
 30
52.0
 10
452.31106992311555
 20
15.390759546324283
 30
52.0
 10
449.5222184451556
 20
15.55131890626676
 30
52.0
 10
446.73344770244313
 20
15.713273162945828
 30
52.0
 10
441.183445470905
 20
16.03841140130613
 30
52.00000000000001
 10
438.4222123599492
 20
16.201567717029455
 30
52.0
 10
435.66106302094227
 20
16.366134244607604
 30
52.0
 10
432.89999999999145
 20
16.532134640687424
 30
52.0
  0
LINE
  5
11C
330
17
100
AcDbEntity
  8
0
100
AcDbLine
 10
432.9
 20
31.536766095480175
 30
52.0
 11
432.9
 21
16.532134640830222
 31
52.0
  0
SPLINE
  5
11D
330
17
100
AcDbEntity
  8
0
100
AcDbSpline
 70
0
 71
4
 72
10
 73
5
 74
0
 40
0.0
 40
0.0
 40
0.0
 40
0.0
 40
0.0
 40
1.0
 40
1.0
 40
1.0
 40
1.0
 40
1.0
 10
429.0999994008814
 20
31.691793277014185
 30
52.0
 10
430.0499871018803
 20
31.652709086103272
 30
52.0
 10
430.9999832405349
 20
31.613843366158402
 30
52.0
 10
431.94998775884903
 20
31.575195800301223
 30
52.0
 10
432.9000005991345
 20
31.536766071244102
 30
52.0
  0
LINE
  5
11E
330
17
100
AcDbEntity
  8
0
100
AcDbLine
 10
429.1
 20
31.691793252365382
 30
52.0
 11
429.1
 21
16.76162409992643
 31
52.0
  0
SPLINE
  5
11F
330
17
100
AcDbEntity
  8
0
100
AcDbSpline
 70
0
 71
4
 72
13
 73
8
 74
0
 40
0.0
 40
0.0
 40
0.0
 40
0.0
 40
0.0
 40
0.5029001330837819
 40
0.5029001330837819
 40
0.5029001330837819
 40
1.0
 40
1.0
 40
1.0
 40
1.0
 40
1.0
 10
429.0999999999937
 20
16.76162409982247
 30
52.0
 10
426.3086241671643
 20
16.93095751382672
 30
52.0
 10
423.51733839624296
 20
17.101773599001476
 30
52.0
 10
420.72614542542914
 20
17.274097908544185
 30
52.0
 10
415.17614269430385
 20
17.61981489887625
 30
52.0
 10
412.4173307374541
 20
17.79317234748209
 30
51.999999999999986
 10
409.6586154011476
 20
17.968059062068015
 30
51.99999999999998
 10
406.8999999999991
 20
18.14450603297241
 30
51.99999999999997
  0
LINE
  5
120
330
17
100
AcDbEntity
  8
0
100
AcDbLine
 10
406.9
 20
32.65021379511336
 30
52.0
 11
406.9
 21
18.14450603298523
 31
52.0
  0
SPLINE
  5
121
330
17
100
AcDbEntity
  8
0
100
AcDbSpline
 70
0
 71
4
 72
10
 73
5
 74
0
 40
0.0
 40
0.0
 40
0.0
 40
0.0
 40
0.0
 40
1.0
 40
1.0
 40
1.0
 40
1.0
 40
1.0
 10
403.09999940098106
 20
32.82336511395952
 30
52.0
 10
404.04998588515525
 20
32.77974325975855
 30
52.0
 10
404.99998161969046
 20
32.73634429498958
 30
52.0
 10
405.94998654430344
 20
32.69316790332996
 30
52.0
 10
406.9000005990292
 20
32.65021376802873
 30
52.0
  0
LINE
  5
122
330
17
100
AcDbEntity
  8
0
100
AcDbLine
 10
403.1
 20
32.82336508929138
 30
52.0
 11
403.1
 21
18.388682235664724
 31
52.0
  0
SPLINE
  5
123
330
17
100
AcDbEntity
  8
0
100
AcDbSpline
 70
0
 71
4
 72
13
 73
8
 74
0
 40
0.0
 40
0.0
 40
0.0
 40
0.0
 40
0.0
 40
0.5034163786703213
 40
0.5034163786703213
 40
0.5034163786703213
 40
1.0
 40
1.0
 40
1.0
 40
1.0
 40
1.0
 10
403.0999999999978
 20
18.388682235630387
 30
52.0
 10
400.3056686491804
 20
18.569064781596946
 30
52.0
 10
397.5114422478607
 20
18.75107082110368
 30
52.0
 10
394.71732439328076
 20
18.93473403222156
 30
52.0
 10
389.16723631743184
 20
19.302934756094647
 30
52.0
 10
386.41126306312185
 20
19.487426588748335
 30
52.0
 10
383.65540329834613
 20
19.673604255891426
 30
52.0
 10
380.8996614585136
 20
19.8615088344831
 30
52.0
  0
LINE
  5
124
330
17
100
AcDbEntity
  8
0
100
AcDbLine
 10
380.9
 20
33.888747893708285
 30
52.0
 11
380.9
 21
19.86148575059882
 31
52.0
  0
SPLINE
  5
125
330
17
100
AcDbEntity
  8
0
100
AcDbSpline
 70
0
 71
4
 72
10
 73
5
 74
0
 40
0.0
 40
0.0
 40
0.0
 40
0.0
 40
0.0
 40
1.0
 40
1.0
 40
1.0
 40
1.0
 40
1.0
 10
377.09999940108986
 20
34.080392975052106
 30
52.0
 10
378.0499846201486
 20
34.03214104727706
 30
52.0
 10
378.99997993449267
 20
33.98411642907363
 30
52.0
 10
379.9499852815126
 20
33.93631880474682
 30
52.0
 10
380.90000059892066
 20
33.88874785815383
 30
52.0
  0
LINE
  5
126
330
17
100
AcDbEntity
  8
0
100
AcDbLine
 10
377.1
 20
34.080392950373664
 30
52.0
 11
377.1
 21
20.12183858689132
 31
52.0
  0
SPLINE
  5
127
330
17
100
AcDbEntity
  8
0
100
AcDbSpline
 70
0
 71
7
 72
22
 73
14
 74
0
 40
0.0
 40
0.0
 40
0.0
 40
0.0
 40
0.0
 40
0.0
 40
0.0
 40
0.0
 40
0.5040475147215007
 40
0.5040475147215007
 40
0.5040475147215007
 40
0.5040475147215007
 40
0.5040475147215007
 40
0.5040475147215007
 40
1.0
 40
1.0
 40
1.0
 40
1.0
 40
1.0
 40
1.0
 40
1.0
 40
1.0
 10
377.0999999999916
 20
20.12183858676875
 30
52.0
 10
375.5012253459464
 20
20.231903259189956
 30
52.0
 10
373.9024863515673
 20
20.342485137573135
 30
52.0
 10
372.3037835730134
 20
20.453589366872006
 30
52.0
 10
370.70511758695494
 20
20.5652212662337
 30
52.0
 10
369.10648899057105
 20
20.67738632899877
 30
52.0
 10
367.50789840155244
 20
20.790090222701174
 30
52.0
 10
364.3364673424459
 20
21.01476857753783
 30
52.00000000000001
 10
362.7636256005051
 20
21.126725212811177
 30
52.0
 10
361.1908220852514
 20
21.239217507955527
 30
52.0
 10
359.6180567172859
 20
21.352241465355757
 30
52.0
 10
358.04533136933435
 20
21.465819705939705
 30
52.0
 10
356.4726456181874
 20
21.57994344940904
 30
52.0
 10
354.9000000000365
 20
21.69461666829838
 30
52.0
  0
LINE
  5
128
330
17
100
AcDbEntity
  8
0
100
AcDbLine
 10
354.9
 20
35.254900350352564
 30
52.0
 11
354.9
 21
21.694616667797707
 31
52.0
  0
SPLINE
  5
129
330
17
100
AcDbEntity
  8
0
100
AcDbSpline
 70
0
 71
4
 72
10
 73
5
 74
0
 40
0.0
 40
0.0
 40
0.0
 40
0.0
 40
0.0
 40
1.0
 40
1.0
 40
1.0
 40
1.0
 40
1.0
 10
351.09999940117257
 20
35.46540984300769
 30
52.0
 10
352.049983305845
 20
35.412435180197924
 30
52.0
 10
352.9999781836053
 20
35.35969224839887
 30
52.0
 10
353.9499839694764
 20
35.30718073261916
 30
52.0
 10
354.90000059880686
 20
35.25490031739959
 30
52.0
  0
LINE
  5
12A
330
17
100
AcDbEntity
  8
0
100
AcDbLine
 10
351.1
 20
35.465409809614826
 30
52.0
 11
351.1
 21
21.973087039901284
 31
52.0
  0
SPLINE
  5
12B
330
17
100
AcDbEntity
  8
0
100
AcDbSpline
 70
0
 71
4
 72
13
 73
8
 74
0
 40
0.0
 40
0.0
 40
0.0
 40
0.0
 40
0.0
 40
0.5045072717314467
 40
0.5045072717314467
 40
0.5045072717314467
 40
1.0
 40
1.0
 40
1.0
 40
1.0
 40
1.0
 10
351.1000000000482
 20
21.97308704055509
 30
52.0
 10
348.2995324574512
 20
22.179332010578193
 30
52.0
 10
345.4992125300094
 20
22.387578186519647
 30
52.0
 10
342.699043525913
 20
22.597841103783388
 30
52.0
 10
337.1490449849543
 20
23.0186393742069
 30
52.0
 10
334.3992099804995
 20
23.22910273140044
 30
52.0
 10
331.64952717440684
 20
23.441542338420245
 30
52.0
 10
328.9000000000733
 20
23.65597417192444
 30
52.0
  0
LINE
  5
12C
330
17
100
AcDbEntity
  8
0
100
AcDbLine
 10
328.9
 20
36.751210139567846
 30
52.0
 11
328.9
 21
23.65597417098411
 31
52.0
  0
SPLINE
  5
12D
330
17
100
AcDbEntity
  8
0
100
AcDbSpline
 70
0
 71
4
 72
10
 73
5
 74
0
 40
0.0
 40
0.0
 40
0.0
 40
0.0
 40
0.0
 40
1.0
 40
1.0
 40
1.0
 40
1.0
 40
1.0
 10
325.09999940132946
 20
36.98095571429087
 30
52.0
 10
326.0499819413428
 20
36.92316539592949
 30
52.0
 10
326.9999763657804
 20
36.86561123091253
 30
52.0
 10
327.9499826072571
 20
36.80829290503254
 30
52.0
 10
328.90000059871693
 20
36.75121010359334
 30
52.0
  0
LINE
  5
12E
330
17
100
AcDbEntity
  8
0
100
AcDbLine
 10
325.1
 20
36.980955677871926
 30
52.0
 11
325.1
 21
23.953769456017188
 31
52.0
  0
SPLINE
  5
12F
330
17
100
AcDbEntity
  8
0
100
AcDbSpline
 70
0
 71
4
 72
13
 73
8
 74
0
 40
0.0
 40
0.0
 40
0.0
 40
0.0
 40
0.0
 40
0.5049208516332017
 40
0.5049208516332017
 40
0.5049208516332017
 40
1.0
 40
1.0
 40
1.0
 40
1.0
 40
1.0
 10
325.09999999998274
 20
23.95376945579815
 30
52.0
 10
322.29718644929545
 20
24.174481145526077
 30
52.0
 10
319.49453713352267
 20
24.39727490546742
 30
52.0
 10
316.69205576429647
 20
24.622168101358447
 30
52.0
 10
311.14205813953384
 20
25.07176479426426
 30
52.0
 10
308.39453525061214
 20
25.296386549320324
 30
51.999999999999986
 10
305.647181249938
 20
25.52306128102527
 30
51.99999999999998
 10
302.9000000000991
 20
25.7518069149384
 30
51.99999999999997
  0
LINE
  5
130
330
17
100
AcDbEntity
  8
0
100
AcDbLine
 10
302.9
 20
38.380223421903644
 30
52.0
 11
302.9
 21
25.751806913747203
 31
52.0
  0
SPLINE
  5
131
330
17
100
AcDbEntity
  8
0
100
AcDbSpline
 70
0
 71
4
 72
10
 73
5
 74
0
 40
0.0
 40
0.0
 40
0.0
 40
0.0
 40
0.0
 40
1.0
 40
1.0
 40
1.0
 40
1.0
 40
1.0
 10
299.0999994014315
 20
38.629577816906874
 30
52.0
 10
300.0499805255454
 20
38.56687865548593
 30
52.0
 10
300.99997447960476
 20
38.504420070202
 30
52.0
 10
301.94998119377885
 20
38.44220174771568
 30
52.0
 10
302.90000059856476
 20
38.38022337417774
 30
52.0
  0
LINE
  5
132
330
17
100
AcDbEntity
  8
0
100
AcDbLine
 10
299.1
 20
38.62957778573294
 30
52.0
 11
299.1
 21
26.069715501575377
 31
52.0
  0
SPLINE
  5
133
330
17
100
AcDbEntity
  8
0
100
AcDbSpline
 70
0
 71
4
 72
13
 73
8
 74
0
 40
0.0
 40
0.0
 40
0.0
 40
0.0
 40
0.0
 40
0.5054188859228018
 40
0.5054188859228018
 40
0.5054188859228018
 40
1.0
 40
1.0
 40
1.0
 40
1.0
 40
1.0
 10
299.10000000008074
 20
26.069715502536326
 30
52.0
 10
296.2943650930297
 20
26.305544723389712
 30
52.0
 10
293.48891320988974
 20
26.54354730900731
 30
52.0
 10
290.68364855453706
 20
26.78374285789068
 30
52.0
 10
285.133652158169
 20
27.26336296946504
 30
52.00000000000001
 10
282.3889122861887
 20
27.502693623648927
 30
51.999999999999986
 10
279.64436010402073
 20
27.744163232639234
 30
51.99999999999998
 10
276.90000000009593
 20
27.98779210771253
 30
51.99999999999997
  0
LINE
  5
134
330
17
100
AcDbEntity
  8
0
100
AcDbLine
 10
276.9
 20
40.14449374740856
 30
52.0
 11
276.9
 21
27.987792106630756
 31
52.0
  0
SPLINE
  5
135
330
17
100
AcDbEntity
  8
0
100
AcDbSpline
 70
0
 71
4
 72
10
 73
5
 74
0
 40
0.0
 40
0.0
 40
0.0
 40
0.0
 40
0.0
 40
1.0
 40
1.0
 40
1.0
 40
1.0
 40
1.0
 10
273.09999940158264
 20
40.41383082962504
 30
52.0
 10
274.0499790575846
 20
40.34612936265889
 30
52.0
 10
274.99997252388715
 20
40.278672894613564
 30
52.0
 10
275.94997972817356
 20
40.21146111310643
 30
52.0
 10
276.90000059845795
 20
40.14449370522297
 30
52.0
  0
LINE
  5
136
330
17
100
AcDbEntity
  8
0
100
AcDbLine
 10
273.1
 20
40.413830786978096
 30
52.0
 11
273.1
 21
28.32670311777904
 31
52.0
  0
SPLINE
  5
137
330
17
100
AcDbEntity
  8
0
100
AcDbSpline
 70
0
 71
4
 72
13
 73
8
 74
0
 40
0.0
 40
0.0
 40
0.0
 40
0.0
 40
0.0
 40
0.5060301537326389
 40
0.5060301537326389
 40
0.5060301537326389
 40
1.0
 40
1.0
 40
1.0
 40
1.0
 40
1.0
 10
273.10000000010166
 20
28.326703118913038
 30
52.0
 10
270.2909070868416
 20
28.57840003587761
 30
52.0
 10
267.4820186735916
 20
28.83237456252748
 30
52.0
 10
264.6733395757513
 20
29.088649069567513
 30
52.0
 10
259.12334486226126
 20
29.599682030674156
 30
52.0
 10
256.38201914861344
 20
29.854331052256626
 30
52.0
 10
253.64090251298396
 20
30.111216266405417
 30
52.0
 10
250.900000000089
 20
30.370360957768515
 30
52.0
  0
LINE
  5
138
330
17
100
AcDbEntity
  8
0
100
AcDbLine
 10
250.9
 20
42.0465823577984
 30
52.0
 11
250.9
 21
30.37036095682719
 31
52.0
  0
SPLINE
  5
139
330
17
100
AcDbEntity
  8
0
100
AcDbSpline
 70
0
 71
4
 72
10
 73
5
 74
0
 40
0.0
 40
0.0
 40
0.0
 40
0.0
 40
0.0
 40
1.0
 40
1.0
 40
1.0
 40
1.0
 40
1.0
 10
247.09999940171707
 20
42.3362771027869
 30
52.0
 10
248.04997753642238
 20
42.26347958476941
 30
52.0
 10
248.9999704972596
 20
42.190931487948035
 30
52.0
 10
249.94997820938877
 20
42.11863250098996
 30
52.0
 10
250.90000059830322
 20
42.04658231200749
 30
52.0
  0
LINE
  5
13A
330
17
100
AcDbEntity
  8
0
100
AcDbLine
 10
247.1
 20
42.336277056940034
 30
52.0
 11
247.1
 21
30.731287749819217
 31
52.0
  0
SPLINE
  5
13B
330
17
100
AcDbEntity
  8
0
100
AcDbSpline
 70
0
 71
4
 72
13
 73
8
 74
0
 40
0.0
 40
0.0
 40
0.0
 40
0.0
 40
0.0
 40
0.5955848417168204
 40
0.5955848417168204
 40
0.5955848417168204
 40
1.0
 40
1.0
 40
1.0
 40
1.0
 40
1.0
 10
247.10000000007335
 20
30.73128775058779
 30
52.0
 10
243.79367984517793
 20
31.046761445720453
 30
52.0
 10
240.4876764795764
 20
31.365547375468797
 30
52.0
 10
237.18199897212423
 20
31.687687501958706
 30
52.0
 10
231.63225758109425
 20
32.234275476444665
 30
52.0
 10
229.38801280136417
 20
32.4568912968292
 30
52.0
 10
227.14392586037374
 20
32.68108868282027
 30
52.0
 10
224.90000000005998
 20
32.90688254390462
 30
52.0
  0
LINE
  5
13C
330
17
100
AcDbEntity
  8
0
100
AcDbLine
 10
224.9
 20
44.08905834771028
 30
52.0
 11
224.9
 21
32.906882543308356
 31
52.0
  0
SPLINE
  5
13D
330
17
100
AcDbEntity
  8
0
100
AcDbSpline
 70
0
 71
4
 72
10
 73
5
 74
0
 40
0.0
 40
0.0
 40
0.0
 40
0.0
 40
0.0
 40
1.0
 40
1.0
 40
1.0
 40
1.0
 40
1.0
 10
221.09999940184252
 20
44.3994868806616
 30
52.0
 10
222.04997596112293
 20
44.32149927496315
 30
52.0
 10
222.9999683984805
 20
44.24376551169529
 30
52.0
 10
223.9499766365157
 20
44.16628528067218
 30
52.0
 10
224.90000059816458
 20
44.08905827112962
 30
52.0
  0
LINE
  5
13E
330
17
100
AcDbEntity
  8
0
100
AcDbLine
 10
221.1
 20
44.39948683889175
 30
52.0
 11
221.1
 21
33.2909947584161
 31
52.0
  0
SPLINE
  5
13F
330
17
100
AcDbEntity
  8
0
100
AcDbSpline
 70
0
 71
4
 72
19
 73
14
 74
0
 40
0.0
 40
0.0
 40
0.0
 40
0.0
 40
0.0
 40
0.2558387767553736
 40
0.2558387767553736
 40
0.2558387767553736
 40
0.5077921030509035
 40
0.5077921030509035
 40
0.5077921030509035
 40
0.7558493718760614
 40
0.7558493718760614
 40
0.7558493718760614
 40
1.0
 40
1.0
 40
1.0
 40
1.0
 40
1.0
 10
221.10000000004845
 20
33.290994758893135
 30
52.0
 10
219.67969640756667
 20
33.435213988291096
 30
52.0
 10
218.25945847677642
 20
33.580078070023745
 30
52.0
 10
216.8392870558219
 20
33.7255909308729
 30
52.0
 10
214.02064625167023
 20
34.01570239816491
 30
52.0
 10
212.62217483786435
 20
34.160281332974044
 30
52.0
 10
211.2237696146659
 20
34.305497238392995
 30
52.0
 10
208.44871636367796
 20
34.59495554072884
 30
52.0
 10
207.0720662780604
 20
34.73917826810778
 30
52.0
 10
205.69548202399992
 20
34.88402610878345
 30
52.0
 10
202.96412560401765
 20
35.172688827507216
 30
52.00000000000001
 10
201.6093513534102
 20
35.316484042157654
 30
52.0
 10
200.25464253543495
 20
35.46089246355882
 30
52.0
 10
198.90000000002715
 20
35.60591797701967
 30
52.0
  0
LINE
  5
140
330
17
100
AcDbEntity
  8
0
100
AcDbLine
 10
198.9
 20
46.27449879622519
 30
52.0
 11
198.9
 21
35.60591797676526
 31
52.0
  0
SPLINE
  5
141
330
17
100
AcDbEntity
  8
0
100
AcDbSpline
 70
0
 71
4
 72
10
 73
5
 74
0
 40
0.0
 40
0.0
 40
0.0
 40
0.0
 40
0.0
 40
1.0
 40
1.0
 40
1.0
 40
1.0
 40
1.0
 10
195.09999940198776
 20
46.606038525461926
 30
52.0
 10
196.0499743307538
 20
46.522766496169965
 30
52.0
 10
196.9999662262887
 20
46.439752728936476
 30
52.0
 10
197.94997500859537
 20
46.3569969148246
 30
52.0
 10
198.9000005980215
 20
46.2744987442943
 30
52.0
  0
LINE
  5
142
330
17
100
AcDbEntity
  8
0
100
AcDbLine
 10
195.1
 20
46.606038473041906
 30
52.0
 11
195.1
 21
36.01458664788076
 31
52.0
  0
SPLINE
  5
143
330
17
100
AcDbEntity
  8
0
100
AcDbSpline
 70
0
 71
4
 72
19
 73
14
 74
0
 40
0.0
 40
0.0
 40
0.0
 40
0.0
 40
0.0
 40
0.2568443256509347
 40
0.2568443256509347
 40
0.2568443256509347
 40
0.5091339274120444
 40
0.5091339274120444
 40
0.5091339274120444
 40
0.7568587919708786
 40
0.7568587919708786
 40
0.7568587919708786
 40
1.0
 40
1.0
 40
1.0
 40
1.0
 40
1.0
 10
195.10000000003004
 20
36.01458664815893
 30
52.0
 10
193.6740609181545
 20
36.16863392622868
 30
52.0
 10
192.24819664107096
 20
36.32337128392029
 30
52.0
 10
190.8224081964922
 20
36.478803455993145
 30
52.0
 10
187.99626782137528
 20
36.7882984287702
 30
52.0
 10
186.59591318833031
 20
36.94233663955627
 30
52.0
 10
185.19563376367086
 20
37.09705459096111
 30
52.0
 10
182.42056166172
 20
37.40504792097635
 30
52.0
 10
181.04576624975562
 20
37.558298751567115
 30
52.0
 10
179.6710453689993
 20
37.712214198495595
 30
52.0
 10
176.94718984083286
 20
38.018523603717796
 30
52.0
 10
175.59805242202248
 20
38.170893014835656
 30
51.999999999999986
 10
174.24898879881837
 20
38.32391181989516
 30
51.99999999999998
 10
172.90000000000873
 20
38.47758470615636
 30
51.99999999999997
  0
LINE
  5
144
330
17
100
AcDbEntity
  8
0
100
AcDbLine
 10
172.9
 20
48.60548927924073
 30
52.0
 11
172.9
 21
38.477584706079384
 31
52.0
  0
SPLINE
  5
145
330
17
100
AcDbEntity
  8
0
100
AcDbSpline
 70
0
 71
4
 72
10
 73
5
 74
0
 40
0.0
 40
0.0
 40
0.0
 40
0.0
 40
0.0
 40
1.0
 40
1.0
 40
1.0
 40
1.0
 40
1.0
 10
169.0999994021489
 20
48.95851874306065
 30
52.0
 10
170.04997264437682
 20
48.86986764675452
 30
52.0
 10
170.9999639794347
 20
48.78147922992911
 30
52.0
 10
171.94997332469708
 20
48.693353185002536
 30
52.0
 10
172.90000059788525
 20
48.60548920376468
 30
52.0
  0
LINE
  5
146
330
17
100
AcDbEntity
  8
0
100
AcDbLine
 10
169.1
 20
48.958518937509034
 30
52.0
 11
169.1
 21
38.9124484681338
 31
52.0
  0
SPLINE
  5
147
330
17
100
AcDbEntity
  8
0
100
AcDbSpline
 70
0
 71
4
 72
19
 73
14
 74
0
 40
0.0
 40
0.0
 40
0.0
 40
0.0
 40
0.0
 40
0.2582553449218907
 40
0.2582553449218907
 40
0.2582553449218907
 40
0.5110209673712078
 40
0.5110209673712078
 40
0.5110209673712078
 40
0.7582745363584491
 40
0.7582745363584491
 40
0.7582745363584491
 40
1.0
 40
1.0
 40
1.0
 40
1.0
 40
1.0
 10
169.10000000000878
 20
38.91244846821052
 30
52.0
 10
167.66616183268854
 20
39.077283131740266
 30
52.0
 10
166.23240988969653
 20
39.242864556654126
 30
52.0
 10
164.79874545564826
 20
39.409198627873224
 30
52.0
 10
161.9620677454607
 20
39.73983241415716
 30
52.0
 10
160.55905073276486
 20
39.90410021994958
 30
52.0
 10
159.15612009796374
 20
40.06910063798401
 30
52.0
 10
156.38102599884883
 20
40.39696452641148
 30
52.0
 10
155.00885875130362
 20
40.55979613301506
 30
52.0
 10
153.63677666823747
 20
40.7233401965469
 30
52.0
 10
150.92346058074514
 20
41.04819255308763
 30
52.0
 10
149.58222275243867
 20
41.20946907688291
 30
52.0
 10
148.2410687975221
 20
41.371437820635116
 30
52.0
 10
146.9000000000129
 20
41.53410460428878
 30
52.0
  0
LINE
  5
148
330
17
100
AcDbEntity
  8
0
100
AcDbLine
 10
146.9
 20
51.08462371829209
 30
52.0
 11
146.9
 21
41.53410460418266
 31
52.0
  0
SPLINE
  5
149
330
17
100
AcDbEntity
  8
0
100
AcDbSpline
 70
0
 71
4
 72
10
 73
5
 74
0
 40
0.0
 40
0.0
 40
0.0
 40
0.0
 40
0.0
 40
1.0
 40
1.0
 40
1.0
 40
1.0
 40
1.0
 10
143.09999940192563
 20
51.45952281049446
 30
52.0
 10
144.0499709007552
 20
51.36539768794848
 30
52.0
 10
144.99996165646334
 20
51.27153965946651
 30
52.0
 10
145.94997158376424
 20
51.177948418932395
 30
52.0
 10
146.90000059772018
 20
51.08462365957591
 30
52.0
  0
LINE
  5
14A
330
17
100
AcDbEntity
  8
0
100
AcDbLine
 10
143.1
 20
51.45952275123602
 30
52.0
 11
143.1
 21
41.99717264334798
 31
52.0
  0
SPLINE
  5
14B
330
17
100
AcDbEntity
  8
0
100
AcDbSpline
 70
0
 71
5
 72
24
 73
18
 74
0
 40
0.0
 40
0.0
 40
0.0
 40
0.0
 40
0.0
 40
0.0
 40
0.26023404743955697
 40
0.26023404743955697
 40
0.26023404743955697
 40
0.26023404743955697
 40
0.5135892896904127
 40
0.5135892896904127
 40
0.5135892896904127
 40
0.5135892896904127
 40
0.7601414657543891
 40
0.7601414657543891
 40
0.7601414657543891
 40
0.7601414657543891
 40
1.0
 40
1.0
 40
1.0
 40
1.0
 40
1.0
 40
1.0
 10
143.1000000000011
 20
41.99717264335706
 30
52.0
 10
141.9440573797471
 20
42.13869009170544
 30
52.0
 10
140.7881754017609
 20
42.280699857485615
 30
52.0
 10
139.6323547039962
 20
42.42320478525383
 30
52.0
 10
138.47659589542238
 20
42.566207282395816
 30
52.0
 10
136.19575326898206
 20
42.849429583251194
 30
52.0
 10
135.0706661162765
 20
42.98962268047153
 30
52.0
 10
133.945639748965
 20
43.13029982463512
 30
52.0
 10
132.82067516335115
 20
43.271466578835685
 30
52.0
 10
130.60107735101153
 20
43.55098682933876
 30
52.0
 10
129.50644079664977
 20
43.68931408286962
 30
52.0
 10
128.41186467640276
 20
43.828115672193725
 30
52.0
 10
127.3173499728637
 20
43.96739699313285
 30
52.0
 10
125.15815870077927
 20
44.24313563921242
 30
52.0
 10
124.09347878819956
 20
44.379566970820726
 30
52.0
 10
123.02885890000375
 20
44.51646267230564
 30
52.0
 10
121.9643000026191
 20
44.65382795911789
 30
52.0
 10
120.89980309274608
 20
44.791668161430465
 30
52.0
  0
LINE
  5
14C
330
17
100
AcDbEntity
  8
0
100
AcDbLine
 10
120.9
 20
53.71450496003366
 30
52.0
 11
120.9
 21
44.791642664005444
 31
52.0
  0
SPLINE
  5
14D
330
17
100
AcDbEntity
  8
0
100
AcDbSpline
 70
0
 71
4
 72
10
 73
5
 74
0
 40
0.0
 40
0.0
 40
0.0
 40
0.0
 40
0.0
 40
1.0
 40
1.0
 40
1.0
 40
1.0
 40
1.0
 10
117.09999940245035
 20
54.111654805052595
 30
52.0
 10
118.04996909983304
 20
54.011960372917734
 30
52.0
 10
118.99995925673981
 20
53.91253744592335
 30
52.0
 10
119.9499697851934
 20
53.81338571953423
 30
52.0
 10
120.90000059756647
 20
53.71450488853471
 30
52.0
  0
LINE
  5
14E
330
17
100
AcDbEntity
  8
0
100
AcDbLine
 10
117.1
 20
54.111654742342836
 30
52.0
 11
117.1
 21
45.28618130212364
 31
52.0
  0
SPLINE
  5
14F
330
17
100
AcDbEntity
  8
0
100
AcDbSpline
 70
0
 71
4
 72
19
 73
14
 74
0
 40
0.0
 40
0.0
 40
0.0
 40
0.0
 40
0.0
 40
0.2626051318581378
 40
0.2626051318581378
 40
0.2626051318581378
 40
0.5167090894552989
 40
0.5167090894552989
 40
0.5167090894552989
 40
0.7624546333992707
 40
0.7624546333992707
 40
0.7624546333992707
 40
1.0
 40
1.0
 40
1.0
 40
1.0
 40
1.0
 10
117.10000000003653
 20
45.286181302402944
 30
52.0
 10
115.64175394935685
 20
45.476920491627716
 30
52.0
 10
114.18363640814869
 20
45.668633950887404
 30
52.0
 10
112.72565082427045
 20
45.861339899002836
 30
52.0
 10
109.85714515070048
 20
46.24250381227954
 30
52.0
 10
108.4466164215539
 20
46.430897347655915
 30
52.0
 10
107.03621805572033
 20
46.62025532226191
 30
52.0
 10
104.2620780037615
 20
46.99467530628229
 30
52.0
 10
102.89832765092615
 20
47.179673739629635
 30
52.0
 10
101.5347058227835
 20
47.36560746816927
 30
52.0
 10
98.85322383340159
 20
47.73314334699113
 30
52.0
 10
97.53535501071772
 20
47.91468299833109
 30
52.000000000000014
 10
96.21761263123054
 20
48.09712777413448
 30
52.00000000000002
 10
94.90000000003545
 20
48.28049343271421
 30
52.00000000000003
  0
LINE
  5
150
330
17
100
AcDbEntity
  8
0
100
AcDbLine
 10
94.9
 20
56.49774473083788
 30
52.0
 11
94.9
 21
48.28049343245962
 31
52.0
  0
SPLINE
  5
151
330
17
100
AcDbEntity
  8
0
100
AcDbSpline
 70
0
 71
4
 72
10
 73
5
 74
0
 40
0.0
 40
0.0
 40
0.0
 40
0.0
 40
0.0
 40
1.0
 40
1.0
 40
1.0
 40
1.0
 40
1.0
 10
91.09999940261991
 20
56.917527835799675
 30
52.0
 10
92.04996723987905
 20
56.8121684781255
 30
52.0
 10
92.9999567785044
 20
56.707085032459
 30
52.0
 10
93.94996792779877
 20
56.60227719596582
 30
52.0
 10
94.90000059741527
 20
56.49774466510401
 30
52.0
  0
LINE
  5
152
330
17
100
AcDbEntity
  8
0
100
AcDbLine
 10
91.1
 20
56.917527769545245
 30
52.0
 11
91.1
 21
48.812274438938246
 31
52.0
  0
SPLINE
  5
153
330
17
100
AcDbEntity
  8
0
100
AcDbSpline
 70
0
 71
4
 72
19
 73
14
 74
0
 40
0.0
 40
0.0
 40
0.0
 40
0.0
 40
0.0
 40
0.2663508996786317
 40
0.2663508996786317
 40
0.2663508996786317
 40
0.5216263236514548
 40
0.5216263236514548
 40
0.5216263236514548
 40
0.7660801772054011
 40
0.7660801772054011
 40
0.7660801772054011
 40
1.0
 40
1.0
 40
1.0
 40
1.0
 40
1.0
 10
91.10000000238085
 20
48.8122744558567
 30
52.0
 10
89.6207244898605
 20
49.0204474365505
 30
52.0
 10
88.14161872835352
 20
49.22981054781996
 30
52.0
 10
86.66268759922805
 20
49.44038653881178
 30
52.0
 10
83.76667474789363
 20
49.855202455684015
 30
52.0
 10
82.34957838461439
 20
50.05934173210786
 30
52.0
 10
80.9326517013552
 20
50.26463632250219
 30
52.0
 10
78.1592057597195
 20
50.66882319977274
 30
52.0
 10
76.80267203477943
 20
50.86761800231026
 30
52.0
 10
75.44630236177241
 20
51.067507556691034
 30
52.0
 10
72.79234100123702
 20
51.46084616999418
 30
51.99999999999999
 10
71.4947351273437
 20
51.65420155806122
 30
52.0
 10
70.19728692432967
 20
51.8485876803311
 30
52.0
 10
68.89999999870024
 20
52.04401646954774
 30
52.0
  0
LINE
  5
154
330
17
100
AcDbEntity
  8
0
100
AcDbLine
 10
68.9
 20
59.43696406352256
 30
52.0
 11
68.9
 21
52.04401647817602
 31
52.0
  0
SPLINE
  5
155
330
17
100
AcDbEntity
  8
0
100
AcDbSpline
 70
0
 71
4
 72
10
 73
5
 74
0
 40
0.0
 40
0.0
 40
0.0
 40
0.0
 40
0.0
 40
1.0
 40
1.0
 40
1.0
 40
1.0
 40
1.0
 10
65.09999940279363
 20
59.87976427628966
 30
52.0
 10
66.04996532027018
 20
59.7686440360669
 30
52.0
 10
66.99995422074115
 20
59.65780410977209
 30
52.0
 10
67.94996601076481
 20
59.547244196395916
 30
52.0
 10
68.90000059724338
 20
59.436963994194436
 30
52.0
  0
LINE
  5
156
330
17
100
AcDbEntity
  8
0
100
AcDbLine
 10
65.1
 20
59.879764206432725
 30
52.0
 11
65.1
 21
52.61991713066921
 31
52.0
  0
SPLINE
  5
157
330
17
100
AcDbEntity
  8
0
100
AcDbSpline
 70
0
 71
5
 72
24
 73
18
 74
0
 40
0.0
 40
0.0
 40
0.0
 40
0.0
 40
0.0
 40
0.0
 40
0.2742521858364931
 40
0.2742521858364931
 40
0.2742521858364931
 40
0.2742521858364931
 40
0.5315457665103821
 40
0.5315457665103821
 40
0.5315457665103821
 40
0.5315457665103821
 40
0.7735443886532921
 40
0.7735443886532921
 40
0.7735443886532921
 40
0.7735443886532921
 40
1.0
 40
1.0
 40
1.0
 40
1.0
 40
1.0
 40
1.0
 10
65.10000000136283
 20
52.619917139607836
 30
52.0
 10
63.881263607399944
 20
52.80573339189919
 30
52.0
 10
62.66266502388929
 20
52.9924258156943
 30
52.0
 10
61.44420652766963
 20
53.18000082550927
 30
52.0
 10
60.225890256485805
 20
53.36846287299515
 30
52.0
 10
57.86487281280182
 20
53.735457313547194
 30
52.0
 10
56.72215434781651
 20
53.91388297760636
 30
52.0
 10
55.57956446609744
 20
54.09309356752468
 30
52.0
 10
54.437104613425184
 20
54.27308854601561
 30
52.0
 10
52.220353796648034
 20
54.62389453559512
 30
52.0
 10
51.14604769518165
 20
54.79461536658536
 30
52.0
 10
50.07185871071393
 20
54.96602426206169
 30
52.0
 10
48.997787680343436
 20
55.13811564655283
 30
52.0
 10
46.918859991503524
 20
55.47254712484244
 30
52.0
 10
45.91398863426543
 20
55.634803608736405
 30
52.0
 10
44.90922139122186
 20
55.79764068508861
 30
52.0
 10
43.90455852741947
 20
55.96104670457819
 30
52.0
 10
42.90000000001106
 20
56.1250043563527
 30
52.0
  0
LINE
  5
158
330
17
100
AcDbEntity
  8
0
100
AcDbLine
 10
42.9
 20
62.53479341901117
 30
52.0
 11
42.9
 21
56.12500435628497
 31
52.0
  0
SPLINE
  5
159
330
17
100
AcDbEntity
  8
0
100
AcDbSpline
 70
0
 71
4
 72
10
 73
5
 74
0
 40
0.0
 40
0.0
 40
0.0
 40
0.0
 40
0.0
 40
1.0
 40
1.0
 40
1.0
 40
1.0
 40
1.0
 10
39.09999940296774
 20
63.00099599981627
 30
52.0
 10
40.04996334013743
 20
62.88401857039898
 30
52.0
 10
40.99995158229712
 20
62.76732585110962
 30
52.0
 10
41.9499640332323
 20
62.65091754289347
 30
52.0
 10
42.90000059707239
 20
62.534793345932584
 30
52.0
  0
LINE
  5
15A
330
17
100
AcDbEntity
  8
0
100
AcDbLine
 10
39.1
 20
63.00099592665058
 30
52.0
 11
39.1
 21
56.748386606588724
 31
52.0
  0
SPLINE
  5
15B
330
17
100
AcDbEntity
  8
0
100
AcDbSpline
 70
0
 71
8
 72
109
 73
100
 74
0
 40
0.0
 40
0.0
 40
0.0
 40
0.0
 40
0.0
 40
0.0
 40
0.0
 40
0.0
 40
0.0
 40
0.2598397957019084
 40
0.2598397957019084
 40
0.2598397957019084
 40
0.2598397957019084
 40
0.2598397957019084
 40
0.2598397957019084
 40
0.2598397957019084
 40
0.3821453704029315
 40
0.3821453704029315
 40
0.3821453704029315
 40
0.3821453704029315
 40
0.3821453704029315
 40
0.3821453704029315
 40
0.3821453704029315
 40
0.49911113233163007
 40
0.49911113233163007
 40
0.49911113233163007
 40
0.49911113233163007
 40
0.49911113233163007
 40
0.49911113233163007
 40
0.49911113233163007
 40
0.7314490992615166
 40
0.7314490992615166
 40
0.7314490992615166
 40
0.7314490992615166
 40
0.7314490992615166
 40
0.7314490992615166
 40
0.7314490992615166
 40
0.7892656858436768
 40
0.7892656858436768
 40
0.7892656858436768
 40
0.7892656858436768
 40
0.7892656858436768
 40
0.7892656858436768
 40
0.7892656858436768
 40
0.8175539132578771
 40
0.8175539132578771
 40
0.8175539132578771
 40
0.8175539132578771
 40
0.8175539132578771
 40
0.8175539132578771
 40
0.8175539132578771
 40
0.8454368722869142
 40
0.8454368722869142
 40
0.8454368722869142
 40
0.8454368722869142
 40
0.8454368722869142
 40
0.8454368722869142
 40
0.8454368722869142
 40
0.9139297486254399
 40
0.9139297486254399
 40
0.9139297486254399
 40
0.9139297486254399
 40
0.9139297486254399
 40
0.9139297486254399
 40
0.9139297486254399
 40
0.9501141308550877
 40
0.9501141308550877
 40
0.9501141308550877
 40
0.9501141308550877
 40
0.9501141308550877
 40
0.9501141308550877
 40
0.9501141308550877
 40
0.9693201973436106
 40
0.9693201973436106
 40
0.9693201973436106
 40
0.9693201973436106
 40
0.9693201973436106
 40
0.9693201973436106
 40
0.9693201973436106
 40
0.9826871563016506
 40
0.9826871563016506
 40
0.9826871563016506
 40
0.9826871563016506
 40
0.9826871563016506
 40
0.9826871563016506
 40
0.9826871563016506
 40
0.9904647766741763
 40
0.9904647766741763
 40
0.9904647766741763
 40
0.9904647766741763
 40
0.9904647766741763
 40
0.9904647766741763
 40
0.9904647766741763
 40
0.9938030413113547
 40
0.9938030413113547
 40
0.9938030413113547
 40
0.9938030413113547
 40
0.9938030413113547
 40
0.9938030413113547
 40
0.9938030413113547
 40
1.0
 40
1.0
 40
1.0
 40
1.0
 40
1.0
 40
1.0
 40
1.0
 40
1.0
 40
1.0
 10
39.09999999998438
 20
56.74838660649396
 30
52.0
 10
38.393543335630206
 20
56.864851008157736
 30
52.0
 10
37.687133978197494
 20
56.98154200602781
 30
52.0
 10
36.98077179450831
 20
57.09845242716688
 30
52.0
 10
36.27445677721473
 20
57.215574144554346
 30
52.0
 10
35.56818906166012
 20
57.3328978636708
 30
52.0
 10
34.8619689427404
 20
57.45041290908259
 30
52.0
 10
34.15579689176532
 20
57.5681070110265
 30
52.0
 10
33.11730409142812
 20
57.74144190004972
 30
52.0
 10
32.78494540204495
 20
57.79695400510236
 30
52.0
 10
32.45259772668642
 20
57.8525017888853
 30
52.0
 10
32.12026106417956
 20
57.90808302374011
 30
52.0
 10
31.787935441991067
 20
57.96369533493337
 30
52.0
 10
31.45562109103027
 20
58.019337211853156
 30
52.0
 10
31.12331854392608
 20
58.075008568085806
 30
52.0
 10
30.473246414010674
 20
58.18398119315783
 30
52.0
 10
30.155475725005417
 20
58.2372794649971
 30
52.0
 10
29.837717146239573
 20
58.290605864192294
 30
52.0
 10
29.519971327484523
 20
58.34396058048089
 30
52.0
 10
29.202239023276316
 20
58.39734379292309
 30
52.0
 10
28.884521104386007
 20
58.4507556677888
 30
52.0
 10
28.566818569290064
 20
58.504196356444595
 30
52.0
 10
27.618088724383902
 20
58.663876789467515
 30
52.0
 10
26.987118612263014
 20
58.77020036911523
 30
52.0
 10
26.35622226602257
 20
58.87663927765552
 30
52.0
 10
25.725408610371296
 20
58.98319463723524
 30
52.0
 10
25.09469441451604
 20
59.08986640760513
 30
52.0
 10
24.464109789638368
 20
59.196652143051836
 30
52.0
 10
23.833694895332172
 20
59.30354784169056
 30
52.0
 10
23.046705329016817
 20
59.43716820867012
 30
52.0
 10
22.88990423474212
 20
59.463799642841
 30
52.0
 10
22.73311988809552
 20
59.49043694919485
 30
52.0
 10
22.57635382984482
 20
59.517079886082776
 30
52.0
 10
22.419607972388324
 20
59.543728142038475
 30
52.0
 10
22.262884673058384
 20
59.570381319661735
 30
52.0
 10
22.106186807425097
 20
59.59703891950158
 30
52.0
 10
21.87286358873064
 20
59.63674509044203
 30
52.0
 10
21.796216302793894
 20
59.64979075885569
 30
52.0
 10
21.719576383187704
 20
59.66283725863727
 30
52.0
 10
21.64294430548053
 20
59.6758845042972
 30
52.0
 10
21.56632062241115
 20
59.68893239539967
 30
52.0
 10
21.48970596388875
 20
59.7019808165626
 30
52.0
 10
21.41310103699286
 20
59.71502963745771
 30
52.0
 10
21.261009536917992
 20
59.74094084192512
 30
52.0
 10
21.185522691168252
 20
59.753803216044254
 30
52.0
 10
21.110046927814544
 20
59.76666566773949
 30
52.0
 10
21.034583080101097
 20
59.77952804981743
 30
52.0
 10
20.959132027324117
 20
59.79239021904284
 30
52.0
 10
20.883694746729976
 20
59.805252019861946
 30
52.0
 10
20.808272365413327
 20
59.8181132681257
 30
52.0
 10
20.547635357743182
 20
59.862564727488724
 30
52.0
 10
20.362520159215656
 20
59.89414799442375
 30
52.0
 10
20.177521250899378
 20
59.92572349303397
 30
52.0
 10
19.9926554975751
 20
59.957288416311066
 30
52.0
 10
19.8079633668898
 20
59.98883592006502
 30
52.0
 10
19.62350731364706
 20
60.02035539124203
 30
52.0
 10
19.439378928271708
 20
60.051831210800586
 30
52.0
 10
19.15871333148453
 20
60.099828438976346
 30
52.0
 10
19.061858013749966
 20
60.11639532851905
 30
52.0
 10
18.96516762663749
 20
60.13293746010355
 30
52.0
 10
18.86866638258586
 20
60.14945068875527
 30
52.0
 10
18.772412545187148
 20
60.165925035779715
 30
52.0
 10
18.676495888481185
 20
60.182345117531334
 30
52.0
 10
18.58104808903463
 20
60.19868835458652
 30
52.0
 10
18.435997570837053
 20
60.223530053959614
 30
52.0
 10
18.385936696561615
 20
60.23210455204538
 30
52.0
 10
18.336113966846092
 20
60.24063920421925
 30
52.0
 10
18.286567981691306
 20
60.24912738664685
 30
52.0
 10
18.237383189416025
 20
60.25755461575526
 30
52.0
 10
18.188688525334825
 20
60.265898776242324
 30
52.0
 10
18.14067044784482
 20
60.27412787919234
 30
52.0
 10
18.060886959337722
 20
60.287802187052094
 30
52.0
 10
18.028731440717998
 20
60.29331381764379
 30
52.0
 10
17.997148836569274
 20
60.29872763978808
 30
52.0
 10
17.96628345852186
 20
60.30401889436042
 30
52.0
 10
17.936413590201976
 20
60.30913984879291
 30
52.0
 10
17.9079830202589
 20
60.31401437187231
 30
52.0
 10
17.88161389109424
 20
60.31853571891161
 30
52.0
 10
17.844304564449825
 20
60.3249332151688
 30
52.0
 10
17.831511851085487
 20
60.32712687690873
 30
52.0
 10
17.81987352982155
 20
60.329122648338625
 30
52.0
 10
17.809577306865883
 20
60.33088832105545
 30
52.0
 10
17.80076275332358
 20
60.33239993873101
 30
52.0
 10
17.793485589041797
 20
60.33364792723177
 30
52.0
 10
17.78769122503655
 20
60.33464163566271
 30
52.0
 10
17.78131560297626
 20
60.335735035795544
 30
52.0
 10
17.779656056697657
 20
60.33601964440089
 30
52.0
 10
17.778231729565224
 20
60.33626391442177
 30
52.0
 10
17.77702272485475
 20
60.33647125762797
 30
52.0
 10
17.776009177273036
 20
60.336645080521144
 30
52.0
 10
17.775171252957872
 20
60.33678878433479
 30
52.0
 10
17.774489149478047
 20
60.336905765034274
 30
52.0
 10
17.772929433872505
 20
60.337173256496115
 30
52.0
 10
17.772997360249537
 20
60.337167191154805
 30
52.0
 10
17.772839906888365
 20
60.33718393313203
 30
52.0
 10
17.772472874222835
 20
60.33724447452008
 30
52.0
 10
17.772233572390743
 20
60.33729822018793
 30
52.0
 10
17.772237474873414
 20
60.33730219788688
 30
52.0
 10
17.77229278458081
 20
60.337269341938125
 30
52.0
 10
17.772272912382217
 20
60.33728585050232
 30
52.0
  0
SPLINE
  5
15C
330
17
100
AcDbEntity
  8
0
100
AcDbSpline
 70
0
 71
8
 72
508
 73
499
 74
0
 40
0.0
 40
0.0
 40
0.0
 40
0.0
 40
0.0
 40
0.0
 40
0.0
 40
0.0
 40
0.0
 40
0.00017795492256967
 40
0.00017795492256967
 40
0.00017795492256967
 40
0.00017795492256967
 40
0.00017795492256967
 40
0.00017795492256967
 40
0.00017795492256967
 40
0.00047508294588117464
 40
0.00047508294588117464
 40
0.00047508294588117464
 40
0.00047508294588117464
 40
0.00047508294588117464
 40
0.00047508294588117464
 40
0.00047508294588117464
 40
0.0008403473123427371
 40
0.0008403473123427371
 40
0.0008403473123427371
 40
0.0008403473123427371
 40
0.0008403473123427371
 40
0.0008403473123427371
 40
0.0008403473123427371
 40
0.001299902200196272
 40
0.001299902200196272
 40
0.001299902200196272
 40
0.001299902200196272
 40
0.001299902200196272
 40
0.001299902200196272
 40
0.001299902200196272
 40
0.0020303239859076247
 40
0.0020303239859076247
 40
0.0020303239859076247
 40
0.0020303239859076247
 40
0.0020303239859076247
 40
0.0020303239859076247
 40
0.0020303239859076247
 40
0.0029579071717734406
 40
0.0029579071717734406
 40
0.0029579071717734406
 40
0.0029579071717734406
 40
0.0029579071717734406
 40
0.0029579071717734406
 40
0.0029579071717734406
 40
0.0031798839243921636
 40
0.0031798839243921636
 40
0.0031798839243921636
 40
0.0031798839243921636
 40
0.0031798839243921636
 40
0.0031798839243921636
 40
0.0031798839243921636
 40
0.0038514063954209732
 40
0.0038514063954209732
 40
0.0038514063954209732
 40
0.0038514063954209732
 40
0.0038514063954209732
 40
0.0038514063954209732
 40
0.0038514063954209732
 40
0.004756190312600671
 40
0.004756190312600671
 40
0.004756190312600671
 40
0.004756190312600671
 40
0.004756190312600671
 40
0.004756190312600671
 40
0.004756190312600671
 40
0.005436952745934131
 40
0.005436952745934131
 40
0.005436952745934131
 40
0.005436952745934131
 40
0.005436952745934131
 40
0.005436952745934131
 40
0.005436952745934131
 40
0.006874546447669529
 40
0.006874546447669529
 40
0.006874546447669529
 40
0.006874546447669529
 40
0.006874546447669529
 40
0.006874546447669529
 40
0.006874546447669529
 40
0.007749567522945523
 40
0.007749567522945523
 40
0.007749567522945523
 40
0.007749567522945523
 40
0.007749567522945523
 40
0.007749567522945523
 40
0.007749567522945523
 40
0.008203641974894054
 40
0.008203641974894054
 40
0.008203641974894054
 40
0.008203641974894054
 40
0.008203641974894054
 40
0.008203641974894054
 40
0.008203641974894054
 40
0.008769270351122118
 40
0.008769270351122118
 40
0.008769270351122118
 40
0.008769270351122118
 40
0.008769270351122118
 40
0.008769270351122118
 40
0.008769270351122118
 40
0.011321198401965304
 40
0.011321198401965304
 40
0.011321198401965304
 40
0.011321198401965304
 40
0.011321198401965304
 40
0.011321198401965304
 40
0.011321198401965304
 40
0.015454557731616357
 40
0.015454557731616357
 40
0.015454557731616357
 40
0.015454557731616357
 40
0.015454557731616357
 40
0.015454557731616357
 40
0.015454557731616357
 40
0.020557101773235924
 40
0.020557101773235924
 40
0.020557101773235924
 40
0.020557101773235924
 40
0.020557101773235924
 40
0.020557101773235924
 40
0.020557101773235924
 40
0.030952266247184942
 40
0.030952266247184942
 40
0.030952266247184942
 40
0.030952266247184942
 40
0.030952266247184942
 40
0.030952266247184942
 40
0.030952266247184942
 40
0.03901119469730495
 40
0.03901119469730495
 40
0.03901119469730495
 40
0.03901119469730495
 40
0.03901119469730495
 40
0.03901119469730495
 40
0.03901119469730495
 40
0.05082607333849836
 40
0.05082607333849836
 40
0.05082607333849836
 40
0.05082607333849836
 40
0.05082607333849836
 40
0.05082607333849836
 40
0.05082607333849836
 40
0.05761288756815558
 40
0.05761288756815558
 40
0.05761288756815558
 40
0.05761288756815558
 40
0.05761288756815558
 40
0.05761288756815558
 40
0.05761288756815558
 40
0.08760526589147105
 40
0.08760526589147105
 40
0.08760526589147105
 40
0.08760526589147105
 40
0.08760526589147105
 40
0.08760526589147105
 40
0.08760526589147105
 40
0.14566593249305687
 40
0.14566593249305687
 40
0.14566593249305687
 40
0.14566593249305687
 40
0.14566593249305687
 40
0.14566593249305687
 40
0.14566593249305687
 40
0.16195219748794587
 40
0.16195219748794587
 40
0.16195219748794587
 40
0.16195219748794587
 40
0.16195219748794587
 40
0.16195219748794587
 40
0.16195219748794587
 40
0.1741666076710228
 40
0.1741666076710228
 40
0.1741666076710228
 40
0.1741666076710228
 40
0.1741666076710228
 40
0.1741666076710228
 40
0.1741666076710228
 40
0.21253352631543912
 40
0.21253352631543912
 40
0.21253352631543912
 40
0.21253352631543912
 40
0.21253352631543912
 40
0.21253352631543912
 40
0.21253352631543912
 40
0.3058644847098789
 40
0.3058644847098789
 40
0.3058644847098789
 40
0.3058644847098789
 40
0.3058644847098789
 40
0.3058644847098789
 40
0.3058644847098789
 40
0.3170585241512773
 40
0.3170585241512773
 40
0.3170585241512773
 40
0.3170585241512773
 40
0.3170585241512773
 40
0.3170585241512773
 40
0.3170585241512773
 40
0.4018122825699377
 40
0.4018122825699377
 40
0.4018122825699377
 40
0.4018122825699377
 40
0.4018122825699377
 40
0.4018122825699377
 40
0.4018122825699377
 40
0.46257879395046003
 40
0.46257879395046003
 40
0.46257879395046003
 40
0.46257879395046003
 40
0.46257879395046003
 40
0.46257879395046003
 40
0.46257879395046003
 40
0.47647911085309147
 40
0.47647911085309147
 40
0.47647911085309147
 40
0.47647911085309147
 40
0.47647911085309147
 40
0.47647911085309147
 40
0.47647911085309147
 40
0.526051728657093
 40
0.526051728657093
 40
0.526051728657093
 40
0.526051728657093
 40
0.526051728657093
 40
0.526051728657093
 40
0.526051728657093
 40
0.5724253545057306
 40
0.5724253545057306
 40
0.5724253545057306
 40
0.5724253545057306
 40
0.5724253545057306
 40
0.5724253545057306
 40
0.5724253545057306
 40
0.6171984894829378
 40
0.6171984894829378
 40
0.6171984894829378
 40
0.6171984894829378
 40
0.6171984894829378
 40
0.6171984894829378
 40
0.6171984894829378
 40
0.6363865826920119
 40
0.6363865826920119
 40
0.6363865826920119
 40
0.6363865826920119
 40
0.6363865826920119
 40
0.6363865826920119
 40
0.6363865826920119
 40
0.6555744760544227
 40
0.6555744760544227
 40
0.6555744760544227
 40
0.6555744760544227
 40
0.6555744760544227
 40
0.6555744760544227
 40
0.6555744760544227
 40
0.7168143621746073
 40
0.7168143621746073
 40
0.7168143621746073
 40
0.7168143621746073
 40
0.7168143621746073
 40
0.7168143621746073
 40
0.7168143621746073
 40
0.7749341229678395
 40
0.7749341229678395
 40
0.7749341229678395
 40
0.7749341229678395
 40
0.7749341229678395
 40
0.7749341229678395
 40
0.7749341229678395
 40
0.7831164890959479
 40
0.7831164890959479
 40
0.7831164890959479
 40
0.7831164890959479
 40
0.7831164890959479
 40
0.7831164890959479
 40
0.7831164890959479
 40
0.7911948226245915
 40
0.7911948226245915
 40
0.7911948226245915
 40
0.7911948226245915
 40
0.7911948226245915
 40
0.7911948226245915
 40
0.7911948226245915
 40
0.8493429402715288
 40
0.8493429402715288
 40
0.8493429402715288
 40
0.8493429402715288
 40
0.8493429402715288
 40
0.8493429402715288
 40
0.8493429402715288
 40
0.8736521052408397
 40
0.8736521052408397
 40
0.8736521052408397
 40
0.8736521052408397
 40
0.8736521052408397
 40
0.8736521052408397
 40
0.8736521052408397
 40
0.8844536591512591
 40
0.8844536591512591
 40
0.8844536591512591
 40
0.8844536591512591
 40
0.8844536591512591
 40
0.8844536591512591
 40
0.8844536591512591
 40
0.8898544361093623
 40
0.8898544361093623
 40
0.8898544361093623
 40
0.8898544361093623
 40
0.8898544361093623
 40
0.8898544361093623
 40
0.8898544361093623
 40
0.8961552891497534
 40
0.8961552891497534
 40
0.8961552891497534
 40
0.8961552891497534
 40
0.8961552891497534
 40
0.8961552891497534
 40
0.8961552891497534
 40
0.9195207849830637
 40
0.9195207849830637
 40
0.9195207849830637
 40
0.9195207849830637
 40
0.9195207849830637
 40
0.9195207849830637
 40
0.9195207849830637
 40
0.9259576524894836
 40
0.9259576524894836
 40
0.9259576524894836
 40
0.9259576524894836
 40
0.9259576524894836
 40
0.9259576524894836
 40
0.9259576524894836
 40
0.9309641049920703
 40
0.9309641049920703
 40
0.9309641049920703
 40
0.9309641049920703
 40
0.9309641049920703
 40
0.9309641049920703
 40
0.9309641049920703
 40
0.938831398443321
 40
0.938831398443321
 40
0.938831398443321
 40
0.938831398443321
 40
0.938831398443321
 40
0.938831398443321
 40
0.938831398443321
 40
0.9473303868838852
 40
0.9473303868838852
 40
0.9473303868838852
 40
0.9473303868838852
 40
0.9473303868838852
 40
0.9473303868838852
 40
0.9473303868838852
 40
0.9623184761124055
 40
0.9623184761124055
 40
0.9623184761124055
 40
0.9623184761124055
 40
0.9623184761124055
 40
0.9623184761124055
 40
0.9623184761124055
 40
0.9673982314879798
 40
0.9673982314879798
 40
0.9673982314879798
 40
0.9673982314879798
 40
0.9673982314879798
 40
0.9673982314879798
 40
0.9673982314879798
 40
0.9694024856436305
 40
0.9694024856436305
 40
0.9694024856436305
 40
0.9694024856436305
 40
0.9694024856436305
 40
0.9694024856436305
 40
0.9694024856436305
 40
0.9714906786178379
 40
0.9714906786178379
 40
0.9714906786178379
 40
0.9714906786178379
 40
0.9714906786178379
 40
0.9714906786178379
 40
0.9714906786178379
 40
0.975851703759933
 40
0.975851703759933
 40
0.975851703759933
 40
0.975851703759933
 40
0.975851703759933
 40
0.975851703759933
 40
0.975851703759933
 40
0.9776881534624077
 40
0.9776881534624077
 40
0.9776881534624077
 40
0.9776881534624077
 40
0.9776881534624077
 40
0.9776881534624077
 40
0.9776881534624077
 40
0.9786063809132824
 40
0.9786063809132824
 40
0.9786063809132824
 40
0.9786063809132824
 40
0.9786063809132824
 40
0.9786063809132824
 40
0.9786063809132824
 40
0.9796165687761831
 40
0.9796165687761831
 40
0.9796165687761831
 40
0.9796165687761831
 40
0.9796165687761831
 40
0.9796165687761831
 40
0.9796165687761831
 40
0.9832857613199483
 40
0.9832857613199483
 40
0.9832857613199483
 40
0.9832857613199483
 40
0.9832857613199483
 40
0.9832857613199483
 40
0.9832857613199483
 40
0.9856595135084423
 40
0.9856595135084423
 40
0.9856595135084423
 40
0.9856595135084423
 40
0.9856595135084423
 40
0.9856595135084423
 40
0.9856595135084423
 40
0.9871911087090588
 40
0.9871911087090588
 40
0.9871911087090588
 40
0.9871911087090588
 40
0.9871911087090588
 40
0.9871911087090588
 40
0.9871911087090588
 40
0.9904428677506011
 40
0.9904428677506011
 40
0.9904428677506011
 40
0.9904428677506011
 40
0.9904428677506011
 40
0.9904428677506011
 40
0.9904428677506011
 40
0.9912947239918141
 40
0.9912947239918141
 40
0.9912947239918141
 40
0.9912947239918141
 40
0.9912947239918141
 40
0.9912947239918141
 40
0.9912947239918141
 40
0.9938973333977228
 40
0.9938973333977228
 40
0.9938973333977228
 40
0.9938973333977228
 40
0.9938973333977228
 40
0.9938973333977228
 40
0.9938973333977228
 40
0.9957927763871374
 40
0.9957927763871374
 40
0.9957927763871374
 40
0.9957927763871374
 40
0.9957927763871374
 40
0.9957927763871374
 40
0.9957927763871374
 40
0.9974058497729986
 40
0.9974058497729986
 40
0.9974058497729986
 40
0.9974058497729986
 40
0.9974058497729986
 40
0.9974058497729986
 40
0.9974058497729986
 40
0.9984254326800099
 40
0.9984254326800099
 40
0.9984254326800099
 40
0.9984254326800099
 40
0.9984254326800099
 40
0.9984254326800099
 40
0.9984254326800099
 40
0.9988549347477188
 40
0.9988549347477188
 40
0.9988549347477188
 40
0.9988549347477188
 40
0.9988549347477188
 40
0.9988549347477188
 40
0.9988549347477188
 40
0.9991889919131302
 40
0.9991889919131302
 40
0.9991889919131302
 40
0.9991889919131302
 40
0.9991889919131302
 40
0.9991889919131302
 40
0.9991889919131302
 40
0.9996662164204461
 40
0.9996662164204461
 40
0.9996662164204461
 40
0.9996662164204461
 40
0.9996662164204461
 40
0.9996662164204461
 40
0.9996662164204461
 40
1.0
 40
1.0
 40
1.0
 40
1.0
 40
1.0
 40
1.0
 40
1.0
 40
1.0
 40
1.0
 10
1980.059347091907
 20
90.35872093660942
 30
52.0
 10
1980.0915395607826
 20
90.37053857792365
 30
52.0
 10
1980.1223007424474
 20
90.38741141770609
 30
52.0
 10
1980.151707254156
 20
90.40778990363498
 30
52.0
 10
1980.1797610027288
 20
90.43069839965952
 30
52.0
 10
1980.2065436269468
 20
90.45537640528758
 30
52.0
 10
1980.2321813316405
 20
90.48137998504339
 30
52.0
 10
1980.256873408934
 20
90.50848408084101
 30
52.0
 10
1980.3209744179273
 20
90.58386295245572
 30
52.0
 10
1980.358695171215
 20
90.63360526483808
 30
52.0
 10
1980.394637886522
 20
90.68510917123423
 30
52.0
 10
1980.4290342895297
 20
90.73795737007318
 30
52.0
 10
1980.4621082252306
 20
90.79181375780027
 30
52.0
 10
1980.4940071151027
 20
90.84649711929679
 30
52.0
 10
1980.5248819786618
 20
90.90189438401642
 30
52.0
 10
1980.5917331603741
 20
91.02693793307239
 30
52.0
 10
1980.6271946508632
 20
91.09682205761561
 30
52.0
 10
1980.6614466007634
 20
91.16746140560842
 30
52.0
 10
1980.694618695618
 20
91.2387318949613
 30
52.0
 10
1980.7268057156555
 20
91.3105430094157
 30
52.0
 10
1980.7580853496204
 20
91.38282640833545
 30
52.0
 10
1980.788525562899
 20
91.45553138395255
 30
52.0
 10
1980.8554929613867
 20
91.62059212908186
 30
52.0
 10
1980.891556854856
 20
91.71315839130429
 30
52.0
 10
1980.9264797722935
 20
91.80624610847676
 30
52.0
 10
1980.9603395314048
 20
91.89979380947096
 30
52.0
 10
1980.9931956437047
 20
91.9937532493665
 30
52.0
 10
1981.025096267368
 20
92.08808599765489
 30
52.0
 10
1981.0560816649192
 20
92.1827617615689
 30
52.0
 10
1981.1340294242536
 20
92.4287472570699
 30
52.0
 10
1981.179641021868
 20
92.58053481984749
 30
52.0
 10
1981.2231477243702
 20
92.73302418996333
 30
52.0
 10
1981.264630175552
 20
92.88614010837942
 30
52.0
 10
1981.3041369471125
 20
93.03982281171007
 30
52.0
 10
1981.3416945828324
 20
93.19402409538456
 30
52.0
 10
1981.3773116370248
 20
93.34870562819042
 30
52.0
 10
1981.453728927592
 20
93.7008484118823
 30
52.0
 10
1981.4933291573773
 20
93.89856748440278
 30
52.0
 10
1981.529757179846
 20
94.09694058907614
 30
52.0
 10
1981.5629391458606
 20
94.29591147337725
 30
52.0
 10
1981.5927550473484
 20
94.49542167899376
 30
52.0
 10
1981.6190367181682
 20
94.69540992750409
 30
52.0
 10
1981.641556362424
 20
94.89581299167743
 30
52.0
 10
1981.6644206364817
 20
95.14461005782375
 30
52.0
 10
1981.6685942952265
 20
95.19258237740989
 30
52.0
 10
1981.672523214151
 20
95.24047678161688
 30
52.0
 10
1981.676204007588
 20
95.28828504862567
 30
52.0
 10
1981.6796332765239
 20
95.3359989643357
 30
52.0
 10
1981.6828076085899
 20
95.38361032236487
 30
52.0
 10
1981.6857235780683
 20
95.43111092404956
 30
52.0
 10
1981.6964071152413
 20
95.62183121758328
 30
52.0
 10
1981.7021062420804
 20
95.76525332410343
 30
52.0
 10
1981.7051148857852
 20
95.90876196896699
 30
52.0
 10
1981.7050371535433
 20
96.05231254552916
 30
52.0
 10
1981.7014374277437
 20
96.19581271389634
 30
52.0
 10
1981.6938413674088
 20
96.33912254829036
 30
52.0
 10
1981.6817419836814
 20
96.4820548874201
 30
52.0
 10
1981.641528867635
 20
96.81613380785573
 30
52.0
 10
1981.6092890851085
 20
97.00697826993672
 30
52.0
 10
1981.566599036466
 20
97.19605312087043
 30
52.0
 10
1981.5121816718138
 20
97.3822489207326
 30
52.0
 10
1981.4448980247894
 20
97.5642466192894
 30
52.0
 10
1981.363994158098
 20
97.74060761637921
 30
52.0
 10
1981.269411809999
 20
97.90988283297993
 30
52.0
 10
1981.081362136226
 20
98.19172288882262
 30
52.0
 10
1980.9933790882858
 20
98.3080089772825
 30
52.0
 10
1980.8985262316191
 20
98.4190103636163
 30
52.0
 10
1980.7973380135886
 20
98.52442403265329
 30
52.0
 10
1980.6904485324847
 20
98.6241435588845
 30
52.0
 10
1980.57853776238
 20
98.71820631248947
 30
52.0
 10
1980.462285649099
 20
98.8067495879686
 30
52.0
 10
1980.0890274673898
 20
99.06572752486424
 30
52.0
 10
1979.819657435258
 20
99.21746741423411
 30
52.0
 10
1979.5387075821986
 20
99.34841030412326
 30
52.0
 10
1979.2498876318
 20
99.46173695313317
 30
52.0
 10
1978.9558939130475
 20
99.56009794389217
 30
52.0
 10
1978.6584816965687
 20
99.64578168223912
 30
52.0
 10
1978.3584375525222
 20
99.72068415877965
 30
52.0
 10
1977.8712923269406
 20
99.82636638546455
 30
52.0
 10
1977.686185025192
 20
99.86288936799383
 30
52.0
 10
1977.5004338601284
 20
99.89628111161397
 30
52.0
 10
1977.3141571665706
 20
99.92682236106378
 30
52.0
 10
1977.1274508937431
 20
99.95475432515306
 30
52.0
 10
1976.9403902134995
 20
99.98028778654914
 30
52.0
 10
1976.7530305304524
 20
100.00360897543028
 30
52.0
 10
1976.4680449296106
 20
100.03592151936236
 30
52.0
 10
1976.3690660226134
 20
100.04658454210536
 30
52.0
 10
1976.268442955134
 20
100.05686699099473
 30
52.0
 10
1976.1661466283388
 20
100.06676447655023
 30
52.0
 10
1976.0621470624578
 20
100.0762725040512
 30
52.0
 10
1975.956413396784
 20
100.0853864735364
 30
52.0
 10
1975.848913889675
 20
100.09410167980421
 30
52.0
 10
1975.6034663649586
 20
100.11276689041257
 30
52.0
 10
1975.4672453827282
 20
100.12228350519699
 30
52.0
 10
1975.330962899395
 20
100.13101394383017
 30
52.0
 10
1975.1946277075033
 20
100.13900537466752
 30
52.0
 10
1975.0582474646092
 20
100.14630134735533
 30
52.0
 10
1974.9218286932803
 20
100.15294179283087
 30
52.0
 10
1974.7853767810968
 20
100.15896302332231
 30
52.0
 10
1974.0331397744594
 20
100.18891734097468
 30
52.0
 10
1973.4168673684019
 20
100.20148495687476
 30
52.0
 10
1972.8003489159128
 20
100.20507141797316
 30
52.0
 10
1972.1837772429858
 20
100.20130461369803
 30
52.0
 10
1971.5672772041225
 20
100.19145508643476
 30
52.0
 10
1970.9509033936567
 20
100.1764124071893
 30
52.0
 10
1970.334644588467
 20
100.15690199447849
 30
52.0
 10
1968.7203260622832
 20
100.09556505464059
 30
52.0
 10
1967.7225735442796
 20
100.04741257908759
 30
52.0
 10
1966.7251480903278
 20
99.99146164702644
 30
52.0
 10
1965.7280547464725
 20
99.92918085505943
 30
52.0
 10
1964.731286578889
 20
99.8616950010877
 30
52.0
 10
1963.7348216377345
 20
99.7898310106957
 30
52.0
 10
1962.7386161404688
 20
99.71425550391653
 30
52.0
 10
1960.5130454542164
 20
99.5382743168299
 30
52.0
 10
1959.2838419798152
 20
99.4362069512776
 30
52.0
 10
1958.0549311535137
 20
99.33030078356306
 30
52.0
 10
1956.8262702891352
 20
99.22127036350491
 30
52.0
 10
1955.5978244513346
 20
99.1096675553687
 30
52.0
 10
1954.3695618288687
 20
98.99593587989519
 30
52.0
 10
1953.1414519224707
 20
98.88043169156347
 30
52.0
 10
1949.4117417164828
 20
98.5251349140949
 30
52.0
 10
1946.9105575813835
 20
98.28069674257173
 30
52.0
 10
1944.4096852151656
 20
98.03264381822717
 30
52.0
 10
1941.908996366023
 20
97.7824297770564
 30
52.0
 10
1939.4083964362762
 20
97.53110962082289
 30
52.0
 10
1936.9078170142357
 20
97.27941788397595
 30
52.0
 10
1934.4072015839845
 20
97.02791411936064
 30
52.0
 10
1929.9678166956012
 20
96.58250667790331
 30
52.0
 10
1928.029085277241
 20
96.38836172393191
 30
52.0
 10
1926.0902897171206
 20
96.19477744150228
 30
52.0
 10
1924.1514163600878
 20
96.00190202582117
 30
52.0
 10
1922.212454962945
 20
95.80984968266266
 30
52.0
 10
1920.2733977408934
 20
95.6187103869755
 30
52.0
 10
1918.3342387690125
 20
95.42855601813774
 30
52.0
 10
1913.551893405291
 20
94.96219151188157
 30
52.0
 10
1910.7085847773506
 20
94.6871789533428
 30
52.0
 10
1907.8650347061016
 20
94.41457952614414
 30
52.0
 10
1905.021235495366
 20
94.14450979837564
 30
52.0
 10
1902.17718336092
 20
93.87704630480656
 30
52.0
 10
1899.3328774076822
 20
93.61223666016878
 30
52.0
 10
1896.4883189013153
 20
93.35010706191997
 30
52.0
 10
1892.009368951393
 20
92.94164043169475
 30
52.0
 10
1890.3751448587311
 20
92.7934988737371
 30
52.0
 10
1888.7408386136394
 20
92.6462488307916
 30
52.0
 10
1887.1064506002167
 20
92.49989340572178
 30
52.0
 10
1885.471981305744
 20
92.3544344867639
 30
52.0
 10
1883.8374313206857
 20
92.20987274752747
 30
52.0
 10
1882.2028013386882
 20
92.06620764699478
 30
52.0
 10
1873.3439639309752
 20
91.29250541475375
 30
52.0
 10
1866.1182893410678
 20
90.67905157162717
 30
52.0
 10
1858.8911363609627
 20
90.08293733960627
 30
52.0
 10
1851.6625943900356
 20
89.50369671030418
 30
52.0
 10
1844.43275311223
 20
88.94079913564741
 30
52.0
 10
1837.201697153555
 20
88.39371720411502
 30
52.0
 10
1829.969506717321
 20
87.86191934167157
 30
52.0
 10
1808.7337818796045
 20
86.34405235086449
 30
52.0
 10
1794.7273433030025
 20
85.39860813684062
 30
52.0
 10
1780.7174333460625
 20
84.50493717108472
 30
52.0
 10
1766.7044875559254
 20
83.6597501461851
 30
52.0
 10
1752.688869570291
 20
82.86031098837628
 30
52.0
 10
1738.670884788743
 20
82.10421561956909
 30
52.0
 10
1724.650780289554
 20
81.3893886057759
 30
52.0
 10
1706.695511161952
 20
80.52454347172684
 30
52.0
 10
1702.7315056896514
 20
80.33672062900793
 30
52.0
 10
1698.7367267976763
 20
80.15056955921936
 30
52.0
 10
1694.7111673208642
 20
79.96613381951082
 30
52.0
 10
1690.6548201477058
 20
79.78345686138563
 30
52.0
 10
1686.5676782203475
 20
79.60258203070079
 30
52.0
 10
1682.449734534591
 20
79.42355256766699
 30
52.0
 10
1675.1894913522399
 20
79.11355902485153
 30
52.0
 10
1672.0604852875463
 20
78.98176332073314
 30
52.0
 10
1668.9141474028904
 20
78.85105381092308
 30
52.0
 10
1665.7506871150088
 20
78.72143695297589
 30
52.0
 10
1662.5703393790818
 20
78.59290604753119
 30
52.0
 10
1659.3733642675127
 20
78.46545094027367
 30
52.0
 10
1656.1600465487115
 20
78.33906772389311
 30
52.0
 10
1642.7869178680792
 20
77.82018845070601
 30
52.0
 10
1632.642490255891
 20
77.44337369594027
 30
52.0
 10
1622.497489761886
 20
77.08206483402427
 30
52.0
 10
1612.3519811574474
 20
76.73522322847609
 30
52.0
 10
1602.206018626303
 20
76.40197407414963
 30
52.0
 10
1592.0596472015627
 20
76.08156478959054
 30
52.0
 10
1581.9129036662662
 20
75.77333867565332
 30
52.0
 10
1547.082121571526
 20
74.75518174556943
 30
52.0
 10
1522.3964422355082
 20
74.10234844101217
 30
52.0
 10
1497.709185392418
 20
73.50997377825935
 30
52.0
 10
1473.020656902243
 20
72.9726409463232
 30
52.0
 10
1448.3310945605467
 20
72.48633078889206
 30
52.0
 10
1423.6406743443342
 20
72.04814345356722
 30
52.0
 10
1398.9495180569245
 20
71.65597949412961
 30
52.0
 10
1371.296177730058
 20
71.26679192060483
 30
52.0
 10
1368.3340354578643
 20
71.22574516323002
 30
52.0
 10
1365.3714066827936
 20
71.18533250596687
 30
52.0
 10
1362.4084218563876
 20
71.14555433418762
 30
52.0
 10
1359.4452033447978
 20
71.10641036156498
 30
52.0
 10
1356.4818654287844
 20
71.06789963007216
 30
52.0
 10
1353.5185143037147
 20
71.03002050998279
 30
52.0
 10
1328.1193837960236
 20
70.71074012244765
 30
52.0
 10
1305.683071461036
 20
70.46460494889521
 30
52.0
 10
1283.2464088995537
 20
70.25155415875625
 30
52.0
 10
1260.8094795183395
 20
70.06874024538043
 30
52.0
 10
1238.3723522288528
 20
69.91328841334682
 30
52.0
 10
1215.935081390833
 20
69.78230345481438
 30
52.0
 10
1193.4977067765944
 20
69.67287430480124
 30
52.0
 10
1154.9731114408346
 20
69.51697615959442
 30
52.0
 10
1138.8859312456625
 20
69.46145353932647
 30
52.0
 10
1122.798723007234
 20
69.41443048559485
 30
52.0
 10
1106.7114949777522
 20
69.37482572902293
 30
52.0
 10
1090.6242536238103
 20
69.34155510990432
 30
52.0
 10
1074.5370036253069
 20
69.31353202825562
 30
52.0
 10
1058.4497478743583
 20
69.28966789386928
 30
52.0
 10
1038.6825326343358
 20
69.26411565521342
 30
52.0
 10
1035.0025775872755
 20
69.25952004311588
 30
52.0
 10
1031.3226223595539
 20
69.25506988871327
 30
52.0
 10
1027.6426669705563
 20
69.25075526439065
 30
52.0
 10
1023.9627114401978
 20
69.2465639990624
 30
52.0
 10
1020.2827557905206
 20
69.24247992633146
 30
52.0
 10
1016.6028000412211
 20
69.23848754802475
 30
52.0
 10
999.799039484825
 20
69.22065874998505
 30
52.0
 10
986.6752335688413
 20
69.20787079031592
 30
52.0
 10
973.5514266423826
 20
69.19614194984635
 30
52.0
 10
960.4276188742524
 20
69.18539468578437
 30
52.0
 10
947.3038104109684
 20
69.17555103446088
 30
52.0
 10
934.1800013768967
 20
69.16653244899342
 30
52.0
 10
921.0561918743907
 20
69.15825963695002
 30
52.0
 10
895.6554703232329
 20
69.14353606508921
 30
52.0
 10
883.3785583297911
 20
69.1370021789007
 30
52.0
 10
871.1016460697958
 20
69.13098506232046
 30
52.0
 10
858.8247336009841
 20
69.125418356942
 30
52.0
 10
846.547820972707
 20
69.12023486321273
 30
52.0
 10
834.2709082260058
 20
69.11536638056694
 30
52.0
 10
821.9939953936854
 20
69.11074354755888
 30
52.0
 10
797.863882151787
 20
69.10200132541767
 30
52.0
 10
786.0106817530379
 20
69.09787007274515
 30
52.0
 10
774.1574813256544
 20
69.09383826037616
 30
52.0
 10
762.3042808925338
 20
69.08984110355274
 30
52.0
 10
750.4510804780577
 20
69.0858124642598
 30
52.0
 10
738.5978801081866
 20
69.08168461912351
 30
52.0
 10
726.7446798105565
 20
69.07738802730991
 30
52.0
 10
709.811640771438
 20
69.07090674017377
 30
52.0
 10
704.731825382368
 20
69.06891879575511
 30
52.0
 10
699.6520257382007
 20
69.06687770358823
 30
52.0
 10
694.5722381118189
 20
69.06479068387655
 30
52.0
 10
689.4924628483961
 20
69.06262603922035
 30
52.0
 10
684.4127042461868
 20
69.06041275413047
 30
52.0
 10
679.3329706741304
 20
69.05811214813738
 30
52.0
 10
669.1736312003113
 20
69.05336754363924
 30
52.0
 10
664.0942837734323
 20
69.05092402712518
 30
52.0
 10
659.015848699091
 20
69.04842065038638
 30
52.0
 10
653.9389424736975
 20
69.04586879097485
 30
52.0
 10
648.8641815946921
 20
69.0432798376008
 30
52.0
 10
643.7921825605459
 20
69.04066519013236
 30
52.0
 10
638.7235618707608
 20
69.03803625959571
 30
52.0
 10
617.4947274739218
 20
69.027004869332
 30
52.0
 10
601.3305194873802
 20
69.0185552290445
 30
52.0
 10
585.1663118840528
 20
69.01041562663391
 30
52.0
 10
569.0021046251387
 20
69.00295799364571
 30
52.0
 10
552.837897814742
 20
68.99657414234707
 30
52.0
 10
536.6736916998995
 20
68.99169059910241
 30
52.0
 10
520.5094866711279
 20
68.98879024262666
 30
52.0
 10
489.00463364794734
 20
68.98810905813465
 30
52.0
 10
473.66398653183126
 20
68.99007495394878
 30
52.0
 10
458.3233415108888
 20
68.99482553959477
 30
52.0
 10
442.9826992671126
 20
69.00291561397546
 30
52.0
 10
427.64206162374626
 20
69.01500385799677
 30
52.0
 10
412.3014315800013
 20
69.03188185023666
 30
52.0
 10
396.96081339874286
 20
69.05454495572079
 30
52.0
 10
379.4604928070359
 20
69.08855080594327
 30
52.0
 10
377.3078590360444
 20
69.09287535152686
 30
52.0
 10
375.16238854964666
 20
69.09732979406628
 30
52.0
 10
373.024158389064
 20
69.10191617889771
 30
52.0
 10
370.89324559451893
 20
69.10663657275656
 30
52.0
 10
368.76972720523446
 20
69.11149306377756
 30
52.0
 10
366.65368025943434
 20
69.11648776149468
 30
52.0
 10
362.46349129321436
 20
69.12669254409538
 30
52.0
 10
360.3818012694465
 20
69.13191726195795
 30
52.0
 10
358.30011175053414
 20
69.13730148861889
 30
52.0
 10
356.2184227620665
 20
69.1428487550608
 30
52.0
 10
354.1367343277275
 20
69.14856158505889
 30
52.0
 10
352.0550464692956
 20
69.15444149518098
 30
52.0
 10
349.97335920664375
 20
69.16048899478747
 30
52.0
 10
332.90762173397485
 20
69.21143642375037
 30
52.0
 10
317.92360398162884
 20
69.26487792615939
 30
52.0
 10
302.93962573961136
 20
69.32745162181472
 30
52.0
 10
287.95569601302424
 20
69.39964595876613
 30
52.0
 10
272.9718264589639
 20
69.48202027661844
 30
52.0
 10
257.988031583071
 20
69.57523220924291
 30
52.0
 10
243.00432900006
 20
69.68006165622445
 30
52.0
 10
221.75676146781814
 20
69.84646315180593
 30
52.0
 10
215.49280324627694
 20
69.89770706507531
 30
52.0
 10
209.22886667512788
 20
69.95120392736654
 30
52.0
 10
202.96495358668756
 20
70.00702226382641
 30
52.0
 10
196.70106602883519
 20
70.0652341416243
 30
52.0
 10
190.4372062642852
 20
70.12591406026331
 30
52.0
 10
184.1733767575922
 20
70.18913598889876
 30
52.0
 10
175.12631972825557
 20
70.28422064409777
 30
52.0
 10
172.37367365887093
 20
70.3136664219245
 30
52.0
 10
169.65163600287622
 20
70.34329220483343
 30
52.0
 10
166.96020079616193
 20
70.37308372415622
 30
52.0
 10
164.2993620493672
 20
70.40302612186716
 30
52.0
 10
161.6691137478795
 20
70.4331039505832
 30
52.0
 10
159.06944985183483
 20
70.46330117356398
 30
52.0
 10
155.21582151757056
 20
70.50875116029374
 30
52.0
 10
153.93892332272296
 20
70.52392683164491
 30
52.0
 10
152.6696689528039
 20
70.53912609051831
 30
52.0
 10
151.4080576467328
 20
70.55434680017628
 30
52.0
 10
150.15408864111885
 20
70.5695867753905
 30
52.0
 10
148.9077611702612
 20
70.58484378244195
 30
52.0
 10
147.66907446614883
 20
70.60011553912092
 30
52.0
 10
145.0018187738693
 20
70.6332311017819
 30
52.0
 10
143.57598047879387
 20
70.65108256217599
 30
52.0
 10
142.1605449608449
 20
70.66894496511121
 30
52.0
 10
140.75552508431917
 20
70.68681272364545
 30
52.0
 10
139.36091449019932
 20
70.70468379469227
 30
52.0
 10
137.97668759615394
 20
70.72255967902099
 30
52.0
 10
136.60279959653758
 20
70.74044542125667
 30
52.0
 10
130.18249067851718
 20
70.82474383332884
 30
52.0
 10
125.12583288214965
 20
70.89324200602633
 30
52.0
 10
120.06921819233024
 20
70.96432224500714
 30
52.0
 10
115.01265628972655
 20
71.03854858396562
 30
52.0
 10
109.95616177082809
 20
71.11659321210409
 30
52.0
 10
104.89975469894192
 20
71.19926736618025
 30
52.0
 10
99.84346135198673
 20
71.28756087575343
 30
52.0
 10
93.39441756638983
 20
71.40889720529825
 30
52.0
 10
92.01648317628498
 20
71.43534145918349
 30
52.0
 10
90.65340745889036
 20
71.46203112258165
 30
52.0
 10
89.30508589597962
 20
71.48897359280168
 30
52.0
 10
87.97141398898121
 20
71.51617566516542
 30
52.0
 10
86.65228725897848
 20
71.54364353300754
 30
52.0
 10
85.34760124670956
 20
71.57138278767563
 30
52.0
 10
83.05364616427259
 20
71.6211883536288
 30
52.0
 10
82.05871337787309
 20
71.64314542035699
 30
52.0
 10
81.07240401428461
 20
71.66527195587527
 30
52.0
 10
80.09466893931773
 20
71.6875699867948
 30
52.0
 10
79.125459023678
 20
71.71004122917743
 30
52.0
 10
78.16472514296603
 20
71.7326870885357
 30
52.0
 10
77.21241817767728
 20
71.75550865983277
 30
52.0
 10
74.78516969073117
 20
71.81464659836278
 30
52.0
 10
73.32253909417783
 20
71.8512214917818
 30
52.0
 10
71.8804137185488
 20
71.8882395742678
 30
52.0
 10
70.45860809470607
 20
71.92568874858604
 30
52.0
 10
69.05693534886325
 20
71.96356023498406
 30
52.0
 10
67.67520708960477
 20
72.00184395822562
 30
52.0
 10
66.31323317935252
 20
72.04051910195896
 30
52.0
 10
63.520623398594495
 20
72.12174228083391
 30
52.0
 10
62.0608720012709
 20
72.16529347947503
 30
52.0
 10
60.62432426854001
 20
72.20931330716161
 30
52.0
 10
59.23403236042956
 20
72.25303462030581
 30
52.0
 10
57.903346014979185
 20
72.29587608076616
 30
52.0
 10
56.63591580388462
 20
72.33752833807709
 30
52.0
 10
55.42569621549608
 20
72.37803227485763
 30
52.0
 10
52.19584101674026
 20
72.4879438501955
 30
52.0
 10
50.13483841304807
 20
72.56019271463323
 30
52.0
 10
48.07393099185626
 20
72.63437411017196
 30
52.0
 10
46.01310919259228
 20
72.7101164833206
 30
52.0
 10
43.95236291002706
 20
72.78687811397381
 30
52.0
 10
41.89166559793321
 20
72.86348156639336
 30
52.0
 10
39.83097748638207
 20
72.93821244349354
 30
52.0
 10
37.071718086753314
 20
73.02968790717591
 30
52.0
 10
36.37326057209714
 20
73.05210599623251
 30
52.0
 10
35.67478691596974
 20
73.07361156466695
 30
52.0
 10
34.9762921604635
 20
73.09398718508086
 30
52.0
 10
34.277773713176735
 20
73.11296882891678
 30
52.0
 10
33.57923090353401
 20
73.13022749364248
 30
52.0
 10
32.880664237972994
 20
73.14533713907547
 30
52.0
 10
31.906440671953437
 20
73.16261820453977
 30
52.0
 10
31.630804169114167
 20
73.1670887521628
 30
52.0
 10
31.355164847064113
 20
73.17110052802701
 30
52.0
 10
31.079523153166488
 20
73.1746058966061
 30
52.0
 10
30.803879980563437
 20
73.17754963453652
 30
52.0
 10
30.52823666817606
 20
73.17986893061753
 30
52.0
 10
30.252595000704364
 20
73.18149338581125
 30
52.0
 10
29.68977561580453
 20
73.18323230710901
 30
52.0
 10
29.409541075415515
 20
73.1832610378282
 30
52.0
 10
29.136034501001827
 20
73.18241684488474
 30
52.0
 10
28.86904677428275
 20
73.18068791601864
 30
52.0
 10
28.608378745441627
 20
73.17806469740357
 30
52.0
 10
28.353841233412332
 20
73.17453960382478
 30
52.0
 10
28.105255026165676
 20
73.17010672885723
 30
52.0
 10
27.35537371199391
 20
73.15359858415081
 30
52.0
 10
26.84855566058375
 20
73.13790706126122
 30
52.0
 10
26.341925626938
 20
73.11689906998919
 30
52.0
 10
25.835540893187634
 20
73.08960694138729
 30
52.0
 10
25.329588802284977
 20
73.05484866094069
 30
52.0
 10
24.824400572485118
 20
73.01108197623324
 30
52.0
 10
24.320455297125427
 20
72.95633741310786
 30
52.0
 10
23.607029406496494
 20
72.85863332603836
 30
52.0
 10
23.40245051564284
 20
72.8280853414973
 30
52.0
 10
23.20448258440698
 20
72.79595045219705
 30
52.0
 10
23.012923588734175
 20
72.76223780707885
 30
52.0
 10
22.827583596568854
 20
72.7269565193506
 30
52.0
 10
22.64828476785463
 20
72.69011566648682
 30
52.0
 10
22.474861354534294
 20
72.65172429022871
 30
52.0
 10
22.223308636162862
 20
72.59182489323362
 30
52.0
 10
22.140887664315027
 20
72.57147292941512
 30
52.0
 10
22.059877398089924
 20
72.5507365877067
 30
52.0
 10
21.98025906531248
 20
72.52961691926401
 30
52.0
 10
21.902014508548966
 20
72.50811494382036
 30
52.0
 10
21.82512618510697
 20
72.48623164968652
 30
52.0
 10
21.749577167035437
 20
72.4639679937509
 30
52.0
 10
21.593691384149313
 20
72.41641410517357
 30
52.0
 10
21.512305384949173
 20
72.39063647491459
 30
52.0
 10
21.43121639362791
 20
72.36395400294305
 30
52.0
 10
21.35044938959017
 20
72.33633056755157
 30
52.0
 10
21.270031081541497
 20
72.30773193308455
 30
52.0
 10
21.1899899074883
 20
72.2781257499385
 30
52.0
 10
21.110356034737922
 20
72.24748155456176
 30
52.0
 10
20.743511387949724
 20
72.10059122657448
 30
52.0
 10
20.461270676778653
 20
71.97115151194524
 30
52.0
 10
20.186323648742025
 20
71.82594546623574
 30
52.0
 10
19.920997889054547
 20
71.66355534658385
 30
52.0
 10
19.66795987168325
 20
71.4827997689589
 30
52.0
 10
19.429946965932434
 20
71.28308987242393
 30
52.0
 10
19.20940398482555
 20
71.06492986626753
 30
52.0
 10
18.877855846548822
 20
70.67883454328177
 30
52.0
 10
18.755626588628914
 20
70.52031220944947
 30
52.0
 10
18.64187896218274
 20
70.35549450786017
 30
52.0
 10
18.53679446952725
 20
70.18502765366856
 30
52.0
 10
18.440320660578156
 20
70.00960788761611
 30
52.0
 10
18.35222640656524
 20
69.82994979510369
 30
52.0
 10
18.272153702629144
 20
69.64675574552405
 30
52.0
 10
18.152895397439337
 20
69.34063060164901
 30
52.0
 10
18.109272420066866
 20
69.21935141852524
 30
52.0
 10
18.06867177784546
 20
69.09700219736166
 30
52.0
 10
18.030957318754968
 20
68.9737236712378
 30
52.0
 10
17.9959855893583
 20
68.8496428747421
 30
52.0
 10
17.963609396067838
 20
68.72487200727969
 30
52.0
 10
17.933681366411882
 20
68.59950729638024
 30
52.0
 10
17.847408773458163
 20
68.2063708260153
 30
52.0
 10
17.799165443213575
 20
67.9368853884039
 30
52.0
 10
17.759907862786953
 20
67.66583893610554
 30
52.0
 10
17.728329700122156
 20
67.3937643633173
 30
52.0
 10
17.703238900145415
 20
67.12105935798078
 30
52.0
 10
17.683549137813397
 20
66.84798689060328
 30
52.0
 10
17.668261771951226
 20
66.57467690441837
 30
52.0
 10
17.653340930626502
 20
66.2294685117257
 30
52.0
 10
17.65047868143782
 20
66.15773306892105
 30
52.0
 10
17.647835890020673
 20
66.08593063686274
 30
52.0
 10
17.64539671218459
 20
66.01406899724897
 30
52.0
 10
17.643145254078753
 20
65.94215595842698
 30
52.0
 10
17.641065704428428
 20
65.87019935873421
 30
52.0
 10
17.63914246677134
 20
65.79820706983944
 30
52.0
 10
17.631915352284786
 20
65.50614974274876
 30
52.0
 10
17.62780811439795
 20
65.28607718989323
 30
52.0
 10
17.624936444803694
 20
65.06598749839091
 30
52.0
 10
17.623217059116566
 20
64.84589751557996
 30
52.0
 10
17.62258088093727
 20
64.62582304515722
 30
52.0
 10
17.62296976907489
 20
64.40577929795077
 30
52.0
 10
17.62433461284973
 20
64.18578152757061
 30
52.0
 10
17.628309985393763
 20
63.80566986162097
 30
52.0
 10
17.630481257684252
 20
63.645527964775766
 30
52.0
 10
17.633132864119847
 20
63.485426278029045
 30
52.0
 10
17.636251394149642
 20
63.325372221687196
 30
52.0
 10
17.639825512779034
 20
63.165374539244866
 30
52.0
 10
17.64384587427154
 20
63.005443698463466
 30
52.0
 10
17.64830521167344
 20
62.84559267301949
 30
52.0
 10
17.657363010168638
 20
62.549882634772345
 30
52.0
 10
17.661841671117294
 20
62.41400053553659
 30
52.0
 10
17.666631640804493
 20
62.27819927378076
 30
52.0
 10
17.671731116675044
 20
62.1424907190828
 30
52.0
 10
17.677139711130714
 20
62.006893226995636
 30
52.0
 10
17.682858507168795
 20
61.87143178312734
 30
52.0
 10
17.688890628117534
 20
61.73614087906023
 30
52.0
 10
17.699258260557695
 20
61.515702931400504
 30
52.0
 10
17.703400944362976
 20
61.430431150635265
 30
52.0
 10
17.707673251592432
 20
61.34526530744684
 30
52.0
 10
17.71207758087246
 20
61.26021962456755
 30
52.0
 10
17.716616995346822
 20
61.17532386534229
 30
52.0
 10
17.721295121030483
 20
61.0906209843731
 30
52.0
 10
17.72611672755275
 20
61.006173201948
 30
52.0
 10
17.733185271938513
 20
60.886676050291946
 30
52.0
 10
17.735247488938377
 20
60.852334378020274
 30
52.0
 10
17.73727379904523
 20
60.819087988767976
 30
52.0
 10
17.739261158314815
 20
60.78695543787262
 30
52.0
 10
17.741206518969438
 20
60.755955282411264
 30
52.0
 10
17.74310682939797
 20
60.7261060812003
 30
52.0
 10
17.744959034155833
 20
60.6974263947955
 30
52.0
 10
17.74816088271234
 20
60.64855242259566
 30
52.0
 10
17.749530740398487
 20
60.62788877234865
 30
52.0
 10
17.750868207746706
 20
60.60795256831247
 30
52.0
 10
17.752171844929755
 20
60.58875254402658
 30
52.0
 10
17.753440211569913
 20
60.57029743300861
 30
52.0
 10
17.754671866738985
 20
60.55259596875431
 30
52.0
 10
17.755865368958275
 20
60.53565688473753
 30
52.0
 10
17.758667715062572
 20
60.49639181465407
 30
52.0
 10
17.760235349945745
 20
60.47486841390163
 30
52.0
 10
17.761717974802124
 20
60.454944175774834
 30
52.0
 10
17.763111386219446
 20
60.43664456033045
 30
52.0
 10
17.764411383419198
 20
60.41999502406003
 30
52.0
 10
17.76561376825659
 20
60.40502101988992
 30
52.0
 10
17.76671434522057
 20
60.39174799718128
 30
52.0
 10
17.76840455462849
 20
60.37212540416011
 30
52.0
 10
17.769084926439916
 20
60.36446924539551
 30
52.0
 10
17.76975510563672
 20
60.35721026170346
 30
52.0
 10
17.77040545662496
 20
60.35052909614244
 30
52.0
 10
17.771017389736876
 20
60.34472305331926
 30
52.0
 10
17.771558862782584
 20
60.34025505074865
 30
52.0
 10
17.77198671473048
 20
60.33769192496091
 30
52.0
 10
17.77227291238222
 20
60.33728585050232
 30
52.0
  0
ENDSEC
  0
SECTION
  2
OBJECTS
  0
DICTIONARY
  5
A
330
0
100
AcDbDictionary
281
1
  3
ACAD_COLOR
350
B
  3
ACAD_GROUP
350
C
  3
ACAD_LAYOUT
350
D
  3
ACAD_MATERIAL
350
E
  3
ACAD_MLEADERSTYLE
350
F
  3
ACAD_MLINESTYLE
350
10
  3
ACAD_PLOTSETTINGS
350
11
  3
ACAD_PLOTSTYLENAME
350
12
  3
ACAD_SCALELIST
350
14
  3
ACAD_TABLESTYLE
350
15
  3
ACAD_VISUALSTYLE
350
16
  3
EZDXF_META
350
2D
  0
DICTIONARY
  5
B
330
A
100
AcDbDictionary
281
1
  0
DICTIONARY
  5
C
330
A
100
AcDbDictionary
281
1
  0
DICTIONARY
  5
D
330
A
100
AcDbDictionary
281
1
  3
Model
350
1A
  3
Layout1
350
1E
  0
DICTIONARY
  5
E
330
A
100
AcDbDictionary
281
1
  3
ByBlock
350
1F
  3
ByLayer
350
20
  3
Global
350
21
  0
DICTIONARY
  5
F
330
A
100
AcDbDictionary
281
1
  3
Standard
350
2C
  0
DICTIONARY
  5
10
330
A
100
AcDbDictionary
281
1
  3
Standard
350
22
  0
DICTIONARY
  5
11
330
A
100
AcDbDictionary
281
1
  0
ACDBDICTIONARYWDFLT
  5
12
330
A
100
AcDbDictionary
281
1
  3
Normal
350
13
100
AcDbDictionaryWithDefault
340
13
  0
ACDBPLACEHOLDER
  5
13
330
12
  0
DICTIONARY
  5
14
330
A
100
AcDbDictionary
281
1
  0
DICTIONARY
  5
15
330
A
100
AcDbDictionary
281
1
  0
DICTIONARY
  5
16
330
A
100
AcDbDictionary
281
1
  0
LAYOUT
  5
1A
330
D
100
AcDbPlotSettings
  1

  2
Adobe PDF
  4
A3
  6

 40
7.5
 41
20.0
 42
7.5
 43
20.0
 44
420.0
 45
297.0
 46
0.0
 47
0.0
 48
0.0
 49
0.0
140
0.0
141
0.0
142
1.0
143
1.0
 70
1024
 72
1
 73
1
 74
5
  7

 75
16
 76
0
 77
2
 78
300
147
1.0
148
0.0
149
0.0
100
AcDbLayout
  1
Model
 70
1
 71
0
 10
0.0
 20
0.0
 11
420.0
 21
297.0
 12
0.0
 22
0.0
 32
0.0
 14
1e+20
 24
1e+20
 34
1e+20
 15
-1e+20
 25
-1e+20
 35
-1e+20
146
0.0
 13
0.0
 23
0.0
 33
0.0
 16
1.0
 26
0.0
 36
0.0
 17
0.0
 27
1.0
 37
0.0
 76
1
330
17
  0
LAYOUT
  5
1E
330
D
100
AcDbPlotSettings
  1

  2
Adobe PDF
  4
A3
  6

 40
7.5
 41
20.0
 42
7.5
 43
20.0
 44
420.0
 45
297.0
 46
0.0
 47
0.0
 48
0.0
 49
0.0
140
0.0
141
0.0
142
1.0
143
1.0
 70
0
 72
1
 73
1
 74
5
  7

 75
16
 76
0
 77
2
 78
300
147
1.0
148
0.0
149
0.0
100
AcDbLayout
  1
Layout1
 70
1
 71
1
 10
0.0
 20
0.0
 11
420.0
 21
297.0
 12
0.0
 22
0.0
 32
0.0
 14
1e+20
 24
1e+20
 34
1e+20
 15
-1e+20
 25
-1e+20
 35
-1e+20
146
0.0
 13
0.0
 23
0.0
 33
0.0
 16
1.0
 26
0.0
 36
0.0
 17
0.0
 27
1.0
 37
0.0
 76
1
330
1B
  0
MATERIAL
  5
1F
102
{ACAD_REACTORS
330
E
102
}
330
E
100
AcDbMaterial
  1
ByBlock
  2

 70
0
 40
1.0
 71
1
 41
1.0
 91
-1023410177
 42
1.0
 72
1
  3

 73
1
 74
1
 75
1
 44
0.5
 73
0
 45
1.0
 46
1.0
 77
1
  4

 78
1
 79
1
170
1
 48
1.0
171
1
  6

172
1
173
1
174
1
140
1.0
141
1.0
175
1
  7

176
1
177
1
178
1
143
1.0
179
1
  8

270
1
271
1
272
1
145
1.0
146
1.0
273
1
  9

274
1
275
1
276
1
 42
1.0
 72
1
  3

 73
1
 74
1
 75
1
 94
63
  0
MATERIAL
  5
20
102
{ACAD_REACTORS
330
E
102
}
330
E
100
AcDbMaterial
  1
ByLayer
  2

 70
0
 40
1.0
 71
1
 41
1.0
 91
-1023410177
 42
1.0
 72
1
  3

 73
1
 74
1
 75
1
 44
0.5
 73
0
 45
1.0
 46
1.0
 77
1
  4

 78
1
 79
1
170
1
 48
1.0
171
1
  6

172
1
173
1
174
1
140
1.0
141
1.0
175
1
  7

176
1
177
1
178
1
143
1.0
179
1
  8

270
1
271
1
272
1
145
1.0
146
1.0
273
1
  9

274
1
275
1
276
1
 42
1.0
 72
1
  3

 73
1
 74
1
 75
1
 94
63
  0
MATERIAL
  5
21
102
{ACAD_REACTORS
330
E
102
}
330
E
100
AcDbMaterial
  1
Global
  2

 70
0
 40
1.0
 71
1
 41
1.0
 91
-1023410177
 42
1.0
 72
1
  3

 73
1
 74
1
 75
1
 44
0.5
 73
0
 45
1.0
 46
1.0
 77
1
  4

 78
1
 79
1
170
1
 48
1.0
171
1
  6

172
1
173
1
174
1
140
1.0
141
1.0
175
1
  7

176
1
177
1
178
1
143
1.0
179
1
  8

270
1
271
1
272
1
145
1.0
146
1.0
273
1
  9

274
1
275
1
276
1
 42
1.0
 72
1
  3

 73
1
 74
1
 75
1
 94
63
  0
MLINESTYLE
  5
22
102
{ACAD_REACTORS
330
10
102
}
330
10
100
AcDbMlineStyle
  2
Standard
 70
0
  3

 62
256
 51
90.0
 52
90.0
 71
2
 49
0.5
 62
256
  6
BYLAYER
 49
-0.5
 62
256
  6
BYLAYER
  0
MLEADERSTYLE
  5
2C
102
{ACAD_REACTORS
330
F
102
}
330
F
100
AcDbMLeaderStyle
179
2
170
2
171
1
172
0
 90
2
 40
0.0
 41
0.0
173
1
 91
-1056964608
 92
-2
290
1
 42
2.0
291
1
 43
8.0
  3
Standard
 44
4.0
300

342
29
174
1
175
1
176
0
178
1
 93
-1056964608
 45
4.0
292
0
297
0
 46
4.0
 94
-1056964608
 47
1.0
 49
1.0
140
1.0
294
1
141
0.0
177
0
142
1.0
295
0
296
0
143
3.75
271
0
272
9
273
9
  0
DICTIONARY
  5
2D
330
A
100
AcDbDictionary
280
1
281
1
  3
CREATED_BY_EZDXF
350
2E
  3
WRITTEN_BY_EZDXF
350
15F
  0
DICTIONARYVAR
  5
2E
330
2D
100
DictionaryVariables
280
0
  1
0.17 @ 2022-02-15T16:54:13.738800+00:00
  0
DICTIONARYVAR
  5
15F
330
2D
100
DictionaryVariables
280
0
  1
0.17 @ 2022-02-15T16:54:14.109302+00:00
  0
ENDSEC
  0
EOF
