  0
SECTION
  2
HEADER
  9
$ACADVER
  1
AC1027
  9
$ACADMAINTVER
 70
105
  9
$DWGCODEPAGE
  3
ANSI_1252
  9
$LASTSAVEDBY
  1
ezdxf
  9
$REQUIREDVERSIONS
160
0
  9
$INSBASE
 10
0.0
 20
0.0
 30
0.0
  9
$EXTMIN
 10
1e+20
 20
1e+20
 30
1e+20
  9
$EXTMAX
 10
-1e+20
 20
-1e+20
 30
-1e+20
  9
$LIMMIN
 10
0.0
 20
0.0
  9
$LIMMAX
 10
420.0
 20
297.0
  9
$ORTHOMODE
 70
0
  9
$REGENMODE
 70
1
  9
$FILLMODE
 70
1
  9
$QTEXTMODE
 70
0
  9
$MIRRTEXT
 70
1
  9
$LTSCALE
 40
1.0
  9
$ATTMODE
 70
1
  9
$TEXTSIZE
 40
2.5
  9
$TRACEWID
 40
1.0
  9
$TEXTSTYLE
  7
Standard
  9
$CLAYER
  8
0
  9
$CELTYPE
  6
ByLayer
  9
$CECOLOR
 62
256
  9
$CELTSCALE
 40
1.0
  9
$DISPSILH
 70
0
  9
$DIMSCALE
 40
1.0
  9
$DIMASZ
 40
2.5
  9
$DIMEXO
 40
0.625
  9
$DIMDLI
 40
3.75
  9
$DIMRND
 40
0.0
  9
$DIMDLE
 40
0.0
  9
$DIMEXE
 40
1.25
  9
$DIMTP
 40
0.0
  9
$DIMTM
 40
0.0
  9
$DIMTXT
 40
2.5
  9
$DIMCEN
 40
2.5
  9
$DIMTSZ
 40
0.0
  9
$DIMTOL
 70
0
  9
$DIMLIM
 70
0
  9
$DIMTIH
 70
0
  9
$DIMTOH
 70
0
  9
$DIMSE1
 70
0
  9
$DIMSE2
 70
0
  9
$DIMTAD
 70
1
  9
$DIMZIN
 70
8
  9
$DIMBLK
  1

  9
$DIMASO
 70
1
  9
$DIMSHO
 70
1
  9
$DIMPOST
  1

  9
$DIMAPOST
  1

  9
$DIMALT
 70
0
  9
$DIMALTD
 70
3
  9
$DIMALTF
 40
0.03937007874
  9
$DIMLFAC
 40
1.0
  9
$DIMTOFL
 70
1
  9
$DIMTVP
 40
0.0
  9
$DIMTIX
 70
0
  9
$DIMSOXD
 70
0
  9
$DIMSAH
 70
0
  9
$DIMBLK1
  1

  9
$DIMBLK2
  1

  9
$DIMSTYLE
  2
ISO-25
  9
$DIMCLRD
 70
0
  9
$DIMCLRE
 70
0
  9
$DIMCLRT
 70
0
  9
$DIMTFAC
 40
1.0
  9
$DIMGAP
 40
0.625
  9
$DIMJUST
 70
0
  9
$DIMSD1
 70
0
  9
$DIMSD2
 70
0
  9
$DIMTOLJ
 70
0
  9
$DIMTZIN
 70
8
  9
$DIMALTZ
 70
0
  9
$DIMALTTZ
 70
0
  9
$DIMUPT
 70
0
  9
$DIMDEC
 70
2
  9
$DIMTDEC
 70
2
  9
$DIMALTU
 70
2
  9
$DIMALTTD
 70
3
  9
$DIMTXSTY
  7
Standard
  9
$DIMAUNIT
 70
0
  9
$DIMADEC
 70
0
  9
$DIMALTRND
 40
0.0
  9
$DIMAZIN
 70
0
  9
$DIMDSEP
 70
44
  9
$DIMATFIT
 70
3
  9
$DIMFRAC
 70
0
  9
$DIMLDRBLK
  1

  9
$DIMLUNIT
 70
2
  9
$DIMLWD
 70
-2
  9
$DIMLWE
 70
-2
  9
$DIMTMOVE
 70
0
  9
$DIMFXL
 40
1.0
  9
$DIMFXLON
 70
0
  9
$DIMJOGANG
 40
0.785398163397
  9
$DIMTFILL
 70
0
  9
$DIMTFILLCLR
 70
0
  9
$DIMARCSYM
 70
0
  9
$DIMLTYPE
  6

  9
$DIMLTEX1
  6

  9
$DIMLTEX2
  6

  9
$DIMTXTDIRECTION
 70
0
  9
$LUNITS
 70
2
  9
$LUPREC
 70
4
  9
$SKETCHINC
 40
1.0
  9
$FILLETRAD
 40
10.0
  9
$AUNITS
 70
0
  9
$AUPREC
 70
2
  9
$MENU
  1
.
  9
$ELEVATION
 40
0.0
  9
$PELEVATION
 40
0.0
  9
$THICKNESS
 40
0.0
  9
$LIMCHECK
 70
0
  9
$CHAMFERA
 40
0.0
  9
$CHAMFERB
 40
0.0
  9
$CHAMFERC
 40
0.0
  9
$CHAMFERD
 40
0.0
  9
$SKPOLY
 70
0
  9
$TDCREATE
 40
2459626.7460300927
  9
$TDUCREATE
 40
2458532.153996898
  9
$TDUPDATE
 40
2459626.7460300927
  9
$TDUUPDATE
 40
2458532.1544311
  9
$TDINDWG
 40
0.0
  9
$TDUSRTIMER
 40
0.0
  9
$USRTIMER
 70
1
  9
$ANGBASE
 50
0.0
  9
$ANGDIR
 70
0
  9
$PDMODE
 70
0
  9
$PDSIZE
 40
0.0
  9
$PLINEWID
 40
0.0
  9
$SPLFRAME
 70
0
  9
$SPLINETYPE
 70
6
  9
$SPLINESEGS
 70
8
  9
$HANDSEED
  5
15A
  9
$SURFTAB1
 70
6
  9
$SURFTAB2
 70
6
  9
$SURFTYPE
 70
6
  9
$SURFU
 70
6
  9
$SURFV
 70
6
  9
$UCSBASE
  2

  9
$UCSNAME
  2

  9
$UCSORG
 10
0.0
 20
0.0
 30
0.0
  9
$UCSXDIR
 10
1.0
 20
0.0
 30
0.0
  9
$UCSYDIR
 10
0.0
 20
1.0
 30
0.0
  9
$UCSORTHOREF
  2

  9
$UCSORTHOVIEW
 70
0
  9
$UCSORGTOP
 10
0.0
 20
0.0
 30
0.0
  9
$UCSORGBOTTOM
 10
0.0
 20
0.0
 30
0.0
  9
$UCSORGLEFT
 10
0.0
 20
0.0
 30
0.0
  9
$UCSORGRIGHT
 10
0.0
 20
0.0
 30
0.0
  9
$UCSORGFRONT
 10
0.0
 20
0.0
 30
0.0
  9
$UCSORGBACK
 10
0.0
 20
0.0
 30
0.0
  9
$PUCSBASE
  2

  9
$PUCSNAME
  2

  9
$PUCSORG
 10
0.0
 20
0.0
 30
0.0
  9
$PUCSXDIR
 10
1.0
 20
0.0
 30
0.0
  9
$PUCSYDIR
 10
0.0
 20
1.0
 30
0.0
  9
$PUCSORTHOREF
  2

  9
$PUCSORTHOVIEW
 70
0
  9
$PUCSORGTOP
 10
0.0
 20
0.0
 30
0.0
  9
$PUCSORGBOTTOM
 10
0.0
 20
0.0
 30
0.0
  9
$PUCSORGLEFT
 10
0.0
 20
0.0
 30
0.0
  9
$PUCSORGRIGHT
 10
0.0
 20
0.0
 30
0.0
  9
$PUCSORGFRONT
 10
0.0
 20
0.0
 30
0.0
  9
$PUCSORGBACK
 10
0.0
 20
0.0
 30
0.0
  9
$USERI1
 70
0
  9
$USERI2
 70
0
  9
$USERI3
 70
0
  9
$USERI4
 70
0
  9
$USERI5
 70
0
  9
$USERR1
 40
0.0
  9
$USERR2
 40
0.0
  9
$USERR3
 40
0.0
  9
$USERR4
 40
0.0
  9
$USERR5
 40
0.0
  9
$WORLDVIEW
 70
1
  9
$SHADEDGE
 70
3
  9
$SHADEDIF
 70
70
  9
$TILEMODE
 70
1
  9
$MAXACTVP
 70
64
  9
$PINSBASE
 10
0.0
 20
0.0
 30
0.0
  9
$PLIMCHECK
 70
0
  9
$PEXTMIN
 10
1e+20
 20
1e+20
 30
1e+20
  9
$PEXTMAX
 10
-1e+20
 20
-1e+20
 30
-1e+20
  9
$PLIMMIN
 10
0.0
 20
0.0
  9
$PLIMMAX
 10
420.0
 20
297.0
  9
$UNITMODE
 70
0
  9
$VISRETAIN
 70
1
  9
$PLINEGEN
 70
0
  9
$PSLTSCALE
 70
1
  9
$TREEDEPTH
 70
3020
  9
$CMLSTYLE
  2
Standard
  9
$CMLJUST
 70
0
  9
$CMLSCALE
 40
20.0
  9
$PROXYGRAPHICS
 70
1
  9
$MEASUREMENT
 70
1
  9
$CELWEIGHT
370
-1
  9
$ENDCAPS
280
0
  9
$JOINSTYLE
280
0
  9
$LWDISPLAY
290
0
  9
$INSUNITS
 70
6
  9
$HYPERLINKBASE
  1

  9
$STYLESHEET
  1

  9
$XEDIT
290
1
  9
$CEPSNTYPE
380
0
  9
$PSTYLEMODE
290
1
  9
$FINGERPRINTGUID
  2
{7B3B4974-6FF2-4C56-97B5-01F7EFA3BAC4}
  9
$VERSIONGUID
  2
{B85D99A6-9E46-46D8-9308-34697790C0B6}
  9
$EXTNAMES
290
1
  9
$PSVPSCALE
 40
0.0
  9
$OLESTARTUP
290
0
  9
$SORTENTS
280
127
  9
$INDEXCTL
280
0
  9
$HIDETEXT
280
1
  9
$XCLIPFRAME
280
0
  9
$HALOGAP
280
0
  9
$OBSCOLOR
 70
257
  9
$OBSLTYPE
280
0
  9
$INTERSECTIONDISPLAY
280
0
  9
$INTERSECTIONCOLOR
 70
257
  9
$DIMASSOC
280
2
  9
$PROJECTNAME
  1

  9
$CAMERADISPLAY
290
0
  9
$LENSLENGTH
 40
50.0
  9
$CAMERAHEIGHT
 40
0.0
  9
$STEPSPERSEC
 40
24.0
  9
$STEPSIZE
 40
100.0
  9
$3DDWFPREC
 40
2.0
  9
$PSOLWIDTH
 40
0.005
  9
$PSOLHEIGHT
 40
0.08
  9
$LOFTANG1
 40
1.570796326795
  9
$LOFTANG2
 40
1.570796326795
  9
$LOFTMAG1
 40
0.0
  9
$LOFTMAG2
 40
0.0
  9
$LOFTPARAM
 70
7
  9
$LOFTNORMALS
280
1
  9
$LATITUDE
 40
37.795
  9
$LONGITUDE
 40
-122.394
  9
$NORTHDIRECTION
 40
0.0
  9
$TIMEZONE
 70
-8000
  9
$LIGHTGLYPHDISPLAY
280
1
  9
$TILEMODELIGHTSYNCH
280
1
  9
$CMATERIAL
347
20
  9
$SOLIDHIST
280
0
  9
$SHOWHIST
280
1
  9
$DWFFRAME
280
2
  9
$DGNFRAME
280
2
  9
$REALWORLDSCALE
290
1
  9
$INTERFERECOLOR
 62
256
  9
$CSHADOW
280
0
  9
$SHADOWPLANELOCATION
 40
0.0
  0
ENDSEC
  0
SECTION
  2
CLASSES
  0
CLASS
  1
ACDBDICTIONARYWDFLT
  2
AcDbDictionaryWithDefault
  3
ObjectDBX Classes
 90
0
 91
0
280
0
281
0
  0
CLASS
  1
SUN
  2
AcDbSun
  3
SCENEOE
 90
1153
 91
0
280
0
281
0
  0
CLASS
  1
VISUALSTYLE
  2
AcDbVisualStyle
  3
ObjectDBX Classes
 90
4095
 91
0
280
0
281
0
  0
CLASS
  1
MATERIAL
  2
AcDbMaterial
  3
ObjectDBX Classes
 90
1153
 91
0
280
0
281
0
  0
CLASS
  1
SCALE
  2
AcDbScale
  3
ObjectDBX Classes
 90
1153
 91
0
280
0
281
0
  0
CLASS
  1
TABLESTYLE
  2
AcDbTableStyle
  3
ObjectDBX Classes
 90
4095
 91
0
280
0
281
0
  0
CLASS
  1
MLEADERSTYLE
  2
AcDbMLeaderStyle
  3
ACDB_MLEADERSTYLE_CLASS
 90
4095
 91
0
280
0
281
0
  0
CLASS
  1
DICTIONARYVAR
  2
AcDbDictionaryVar
  3
ObjectDBX Classes
 90
0
 91
0
280
0
281
0
  0
CLASS
  1
CELLSTYLEMAP
  2
AcDbCellStyleMap
  3
ObjectDBX Classes
 90
1152
 91
0
280
0
281
0
  0
CLASS
  1
MENTALRAYRENDERSETTINGS
  2
AcDbMentalRayRenderSettings
  3
SCENEOE
 90
1024
 91
0
280
0
281
0
  0
CLASS
  1
ACDBDETAILVIEWSTYLE
  2
AcDbDetailViewStyle
  3
ObjectDBX Classes
 90
1025
 91
0
280
0
281
0
  0
CLASS
  1
ACDBSECTIONVIEWSTYLE
  2
AcDbSectionViewStyle
  3
ObjectDBX Classes
 90
1025
 91
0
280
0
281
0
  0
CLASS
  1
RASTERVARIABLES
  2
AcDbRasterVariables
  3
ISM
 90
0
 91
0
280
0
281
0
  0
CLASS
  1
ACDBPLACEHOLDER
  2
AcDbPlaceHolder
  3
ObjectDBX Classes
 90
0
 91
0
280
0
281
0
  0
CLASS
  1
LAYOUT
  2
AcDbLayout
  3
ObjectDBX Classes
 90
0
 91
0
280
0
281
0
  0
ENDSEC
  0
SECTION
  2
TABLES
  0
TABLE
  2
VPORT
  5
8
330
0
100
AcDbSymbolTable
 70
1
  0
VPORT
  5
23
330
8
100
AcDbSymbolTableRecord
100
AcDbViewportTableRecord
  2
*Active
 70
0
 10
0.0
 20
0.0
 11
1.0
 21
1.0
 12
344.2
 22
148.5
 13
0.0
 23
0.0
 14
0.5
 24
0.5
 15
0.5
 25
0.5
 16
0.0
 26
0.0
 36
1.0
 17
0.0
 27
0.0
 37
0.0
 40
297.0
 41
1.34
 42
50.0
 43
0.0
 44
0.0
 50
0.0
 51
0.0
 71
0
 72
1000
 73
1
 74
3
 75
0
 76
0
 77
0
 78
0
281
0
 65
0
146
0.0
  0
ENDTAB
  0
TABLE
  2
LTYPE
  5
2
330
0
100
AcDbSymbolTable
 70
3
  0
LTYPE
  5
24
330
2
100
AcDbSymbolTableRecord
100
AcDbLinetypeTableRecord
  2
ByBlock
 70
0
  3

 72
65
 73
0
 40
0.0
  0
LTYPE
  5
25
330
2
100
AcDbSymbolTableRecord
100
AcDbLinetypeTableRecord
  2
ByLayer
 70
0
  3

 72
65
 73
0
 40
0.0
  0
LTYPE
  5
26
330
2
100
AcDbSymbolTableRecord
100
AcDbLinetypeTableRecord
  2
Continuous
 70
0
  3

 72
65
 73
0
 40
0.0
  0
ENDTAB
  0
TABLE
  2
LAYER
  5
1
330
0
100
AcDbSymbolTable
 70
2
  0
LAYER
  5
27
330
1
100
AcDbSymbolTableRecord
100
AcDbLayerTableRecord
  2
0
 70
0
 62
7
  6
Continuous
370
-3
390
13
347
21
  0
LAYER
  5
28
330
1
100
AcDbSymbolTableRecord
100
AcDbLayerTableRecord
  2
Defpoints
 70
0
 62
7
  6
Continuous
290
0
370
-3
390
13
347
21
  0
ENDTAB
  0
TABLE
  2
STYLE
  5
5
330
0
100
AcDbSymbolTable
 70
1
  0
STYLE
  5
29
330
5
100
AcDbSymbolTableRecord
100
AcDbTextStyleTableRecord
  2
Standard
 70
0
 40
0.0
 41
1.0
 50
0.0
 71
0
 42
2.5
  3
txt
  4

  0
ENDTAB
  0
TABLE
  2
VIEW
  5
7
330
0
100
AcDbSymbolTable
 70
0
  0
ENDTAB
  0
TABLE
  2
UCS
  5
6
330
0
100
AcDbSymbolTable
 70
0
  0
ENDTAB
  0
TABLE
  2
APPID
  5
3
330
0
100
AcDbSymbolTable
 70
3
  0
APPID
  5
2A
330
3
100
AcDbSymbolTableRecord
100
AcDbRegAppTableRecord
  2
ACAD
 70
0
  0
APPID
  5
157
330
3
100
AcDbSymbolTableRecord
100
AcDbRegAppTableRecord
  2
HATCHBACKGROUNDCOLOR
 70
0
  0
APPID
  5
158
330
3
100
AcDbSymbolTableRecord
100
AcDbRegAppTableRecord
  2
EZDXF
 70
0
  0
ENDTAB
  0
TABLE
  2
DIMSTYLE
  5
4
330
0
100
AcDbSymbolTable
 70
1
100
AcDbDimStyleTable
  0
DIMSTYLE
105
2B
330
4
100
AcDbSymbolTableRecord
100
AcDbDimStyleTableRecord
  2
Standard
 70
0
 40
1.0
 41
2.5
 42
0.625
 43
3.75
 44
1.25
 45
0.0
 46
0.0
 47
0.0
 48
0.0
 49
2.5
140
2.5
141
2.5
142
0.0
143
0.03937007874
144
1.0
145
0.0
146
1.0
147
0.625
148
0.0
 69
0
 70
0
 71
0
 72
0
 73
0
 74
0
 75
0
 76
0
 77
1
 78
8
 79
0
170
0
171
3
172
1
173
0
174
0
175
0
176
0
177
0
178
0
179
0
271
0
272
2
273
2
274
3
275
0
276
0
277
2
278
44
279
0
280
0
281
0
282
0
283
0
284
8
285
0
286
0
288
0
289
3
290
0
371
-2
372
-2
  0
ENDTAB
  0
TABLE
  2
BLOCK_RECORD
  5
9
330
0
100
AcDbSymbolTable
 70
2
  0
BLOCK_RECORD
  5
17
330
9
100
AcDbSymbolTableRecord
100
AcDbBlockTableRecord
  2
*Model_Space
340
1A
 70
0
280
1
281
0
  0
BLOCK_RECORD
  5
1B
330
9
100
AcDbSymbolTableRecord
100
AcDbBlockTableRecord
  2
*Paper_Space
340
1E
 70
0
280
1
281
0
  0
ENDTAB
  0
ENDSEC
  0
SECTION
  2
BLOCKS
  0
BLOCK
  5
18
330
17
100
AcDbEntity
  8
0
100
AcDbBlockBegin
  2
*Model_Space
 70
0
 10
0.0
 20
0.0
 30
0.0
  3
*Model_Space
  1

  0
ENDBLK
  5
19
330
17
100
AcDbEntity
  8
0
100
AcDbBlockEnd
  0
BLOCK
  5
1C
330
1B
100
AcDbEntity
  8
0
100
AcDbBlockBegin
  2
*Paper_Space
 70
0
 10
0.0
 20
0.0
 30
0.0
  3
*Paper_Space
  1

  0
ENDBLK
  5
1D
330
1B
100
AcDbEntity
  8
0
100
AcDbBlockEnd
  0
ENDSEC
  0
SECTION
  2
ENTITIES
  0
SPLINE
  5
2F
330
17
100
AcDbEntity
  8
0
100
AcDbSpline
 70
0
 71
7
 72
58
 73
50
 74
0
 40
0.0
 40
0.0
 40
0.0
 40
0.0
 40
0.0
 40
0.0
 40
0.0
 40
0.0
 40
0.45907826301288057
 40
0.45907826301288057
 40
0.45907826301288057
 40
0.45907826301288057
 40
0.45907826301288057
 40
0.45907826301288057
 40
0.6925783648875482
 40
0.6925783648875482
 40
0.6925783648875482
 40
0.6925783648875482
 40
0.6925783648875482
 40
0.6925783648875482
 40
0.8155723369136681
 40
0.8155723369136681
 40
0.8155723369136681
 40
0.8155723369136681
 40
0.8155723369136681
 40
0.8155723369136681
 40
0.8683912817607907
 40
0.8683912817607907
 40
0.8683912817607907
 40
0.8683912817607907
 40
0.8683912817607907
 40
0.8683912817607907
 40
0.922243681980812
 40
0.922243681980812
 40
0.922243681980812
 40
0.922243681980812
 40
0.922243681980812
 40
0.922243681980812
 40
0.9702313540401755
 40
0.9702313540401755
 40
0.9702313540401755
 40
0.9702313540401755
 40
0.9702313540401755
 40
0.9702313540401755
 40
0.9873068631609085
 40
0.9873068631609085
 40
0.9873068631609085
 40
0.9873068631609085
 40
0.9873068631609085
 40
0.9873068631609085
 40
1.0
 40
1.0
 40
1.0
 40
1.0
 40
1.0
 40
1.0
 40
1.0
 40
1.0
 10
1940.9
 20
78.35577589867586
 30
78.0
 10
1941.2521419043971
 20
78.45471541619715
 30
78.0
 10
1941.604180726885
 20
78.55379820536089
 30
78.0
 10
1941.95611524201
 20
78.65302439764801
 30
78.0
 10
1942.3079327543644
 20
78.75239090657827
 30
78.0
 10
1942.6596013181404
 20
78.85188915308478
 30
78.0
 10
1943.0110763887615
 20
78.95150691153468
 30
78.0
 10
1943.5408895864555
 20
79.10193382965734
 30
78.0
 10
1943.7194278538975
 20
79.15267037925803
 30
78.0
 10
1943.897878096262
 20
79.20342711517758
 30
78.0
 10
1944.0762242431367
 20
79.25419948644755
 30
78.0
 10
1944.2544263895047
 20
79.30497611612859
 30
78.0
 10
1944.4324288065438
 20
79.35574106708778
 30
78.0
 10
1944.7037104125932
 20
79.43317732579246
 30
78.0
 10
1944.7971999775966
 20
79.4598760739542
 30
78.0
 10
1944.8905830642489
 20
79.48655691167055
 30
78.0
 10
1944.9838380374313
 20
79.51321362874295
 30
78.0
 10
1945.0769080582597
 20
79.53982992185799
 30
78.0
 10
1945.169714372642
 20
79.56638318276505
 30
78.0
 10
1945.3017583786025
 20
79.60418037171193
 30
78.0
 10
1945.3413784126703
 20
79.61552374498206
 30
78.0
 10
1945.3809425374425
 20
79.62685336668672
 30
78.0
 10
1945.42044209579
 20
79.63816674593212
 30
78.0
 10
1945.459868751977
 20
79.64946148370828
 30
78.0
 10
1945.4992069439115
 20
79.66073310707132
 30
78.0
 10
1945.5783925630424
 20
79.68342672160885
 30
78.0
 10
1945.6174850994812
 20
79.6946324564851
 30
78.0
 10
1945.6534799558071
 20
79.7049525624101
 30
78.0
 10
1945.6852507238732
 20
79.71406324588467
 30
78.0
 10
1945.7127081846959
 20
79.72193805052534
 30
78.0
 10
1945.7367604291737
 20
79.7288369697763
 30
78.0
 10
1945.7786227184665
 20
79.74084558244482
 30
78.0
 10
1945.797728439863
 20
79.74632680931362
 30
78.0
 10
1945.816034546912
 20
79.75157915649707
 30
78.0
 10
1945.8330301262595
 20
79.75645597150354
 30
78.0
 10
1945.8480041303794
 20
79.76075308594784
 30
78.0
 10
1945.859849456662
 20
79.7641525335039
 30
78.0
 10
1945.871446476165
 20
79.76748082415695
 30
78.0
 10
1945.873998822755
 20
79.76821334872537
 30
78.0
 10
1945.8761075857904
 20
79.76881857307008
 30
78.0
 10
1945.8778203817176
 20
79.76931015793934
 30
78.0
 10
1945.879184793341
 20
79.76970175625186
 30
78.0
 10
1945.88024836982
 20
79.77000701309672
 30
78.0
 10
1945.8816609338178
 20
79.77041243451397
 30
78.0
 10
1945.8820307283283
 20
79.77050006543438
 30
78.0
 10
1945.8826034729714
 20
79.77068215339348
 30
78.0
 10
1945.8831463116162
 20
79.77086326431186
 30
78.0
 10
1945.883273900139
 20
79.77088705825169
 30
78.0
 10
1945.8829642373262
 20
79.77075051253644
 30
78.0
 10
1945.8830744957743
 20
79.77081814487066
 30
78.0
  0
LINE
  5
30
330
17
100
AcDbEntity
  8
0
100
AcDbLine
 10
1940.9
 20
88.1178315875131
 30
78.0
 11
1940.9
 21
78.3557758986758
 31
78.0
  0
SPLINE
  5
31
330
17
100
AcDbEntity
  8
0
100
AcDbSpline
 70
0
 71
4
 72
10
 73
5
 74
0
 40
0.0
 40
0.0
 40
0.0
 40
0.0
 40
0.0
 40
1.0
 40
1.0
 40
1.0
 40
1.0
 40
1.0
 10
1937.099999413285
 20
87.23473656362306
 30
78.0
 10
1938.0501917307201
 20
87.45447436472463
 30
78.0
 10
1939.0002564890149
 20
87.67490186845632
 30
78.0
 10
1939.9501930037236
 20
87.89602051056569
 30
78.0
 10
1940.9000005865037
 20
88.11783172018028
 30
78.0
  0
LINE
  5
32
330
17
100
AcDbEntity
  8
0
100
AcDbLine
 10
1937.1
 20
87.23473672718586
 30
78.0
 11
1937.1
 21
77.29662119280245
 31
78.0
  0
SPLINE
  5
33
330
17
100
AcDbEntity
  8
0
100
AcDbSpline
 70
0
 71
6
 72
39
 73
32
 74
0
 40
0.0
 40
0.0
 40
0.0
 40
0.0
 40
0.0
 40
0.0
 40
0.0
 40
0.10954644888946484
 40
0.10954644888946484
 40
0.10954644888946484
 40
0.10954644888946484
 40
0.10954644888946484
 40
0.2217235673362298
 40
0.2217235673362298
 40
0.2217235673362298
 40
0.2217235673362298
 40
0.2217235673362298
 40
0.4482514436371817
 40
0.4482514436371817
 40
0.4482514436371817
 40
0.4482514436371817
 40
0.4482514436371817
 40
0.6816095822207701
 40
0.6816095822207701
 40
0.6816095822207701
 40
0.6816095822207701
 40
0.6816095822207701
 40
0.9219282125883794
 40
0.9219282125883794
 40
0.9219282125883794
 40
0.9219282125883794
 40
0.9219282125883794
 40
1.0
 40
1.0
 40
1.0
 40
1.0
 40
1.0
 40
1.0
 40
1.0
 10
1937.1000000000156
 20
77.29662119274613
 30
78.0
 10
1936.6960377307487
 20
77.18492289606195
 30
78.0
 10
1936.2920000514275
 20
77.0734301324315
 30
78.0
 10
1935.8878900727939
 20
76.96214286244575
 30
78.0
 10
1935.4837104123521
 20
76.85106091923521
 30
78.0
 10
1935.0794627426912
 20
76.74018382479683
 30
78.0
 10
1934.2611259816824
 20
76.51618100150283
 30
78.0
 10
1933.8470337202932
 20
76.40306522098429
 30
78.0
 10
1933.4328740618141
 20
76.2901634986146
 30
78.0
 10
1933.018648502013
 20
76.17747529980895
 30
78.0
 10
1932.6043582594255
 20
76.0650000106464
 30
78.0
 10
1931.3532676628297
 20
75.72603556654852
 30
78.0
 10
1930.5162715754675
 20
75.50019972878874
 30
78.0
 10
1929.6790243972014
 20
75.27522393261246
 30
78.0
 10
1928.841532537716
 20
75.05110215376466
 30
78.0
 10
1928.003801377841
 20
74.82782816628611
 30
78.0
 10
1926.30260291653
 20
74.37625618212026
 30
78.0
 10
1925.4391214289642
 20
74.14800974087154
 30
78.0
 10
1924.5753958761552
 20
73.9206492972456
 30
78.0
 10
1923.7114307707163
 20
73.6941678686839
 30
78.0
 10
1922.847230206259
 20
73.46855846935388
 30
78.0
 10
1921.0925818388166
 20
73.01236625827009
 30
78.0
 10
1920.202120052578
 20
72.78183583363858
 30
78.0
 10
1919.3114167424912
 20
72.5522152833885
 30
78.0
 10
1918.4204758132194
 20
72.3234970847872
 30
78.0
 10
1917.5293009547747
 20
72.09567379041032
 30
78.0
 10
1916.348306788752
 20
71.7950139169552
 30
78.0
 10
1916.0586935881981
 20
71.72138346602951
 30
78.0
 10
1915.7690561906857
 20
71.64784643404275
 30
78.0
 10
1915.4793947152975
 20
71.57440256990735
 30
78.0
 10
1915.1897092796721
 20
71.50105162270313
 30
78.0
 10
1914.8999999999999
 20
71.42779334167689
 30
78.0
  0
LINE
  5
34
330
17
100
AcDbEntity
  8
0
100
AcDbLine
 10
1914.9
 20
82.2464606281374
 30
78.0
 11
1914.9
 21
71.42779334167469
 31
78.0
  0
SPLINE
  5
35
330
17
100
AcDbEntity
  8
0
100
AcDbSpline
 70
0
 71
4
 72
10
 73
5
 74
0
 40
0.0
 40
0.0
 40
0.0
 40
0.0
 40
0.0
 40
1.0
 40
1.0
 40
1.0
 40
1.0
 40
1.0
 10
1911.0999994121132
 20
81.42142614368835
 30
78.0
 10
1912.0501770144072
 20
81.62668391605374
 30
78.0
 10
1913.0002368458547
 20
81.83260796976532
 30
78.0
 10
1913.9501782553218
 20
82.03919976502495
 30
78.0
 10
1914.900000587735
 20
82.24646075612432
 30
78.0
  0
LINE
  5
36
330
17
100
AcDbEntity
  8
0
100
AcDbLine
 10
1911.1
 20
81.42142627068388
 30
78.0
 11
1911.1
 21
70.47390526673892
 31
78.0
  0
SPLINE
  5
37
330
17
100
AcDbEntity
  8
0
100
AcDbSpline
 70
0
 71
4
 72
19
 73
14
 74
0
 40
0.0
 40
0.0
 40
0.0
 40
0.0
 40
0.0
 40
0.24020459986103013
 40
0.24020459986103013
 40
0.24020459986103013
 40
0.48689737877135286
 40
0.48689737877135286
 40
0.48689737877135286
 40
0.7401689755468761
 40
0.7401689755468761
 40
0.7401689755468761
 40
1.0
 40
1.0
 40
1.0
 40
1.0
 40
1.0
 10
1911.0999999999979
 20
70.47390526674734
 30
78.0
 10
1909.7699503979368
 20
70.14246391653128
 30
78.0
 10
1908.4393661002214
 20
69.81313875337457
 30
78.0
 10
1907.1082623514576
 20
69.485895221435
 30
78.0
 10
1904.409075522399
 20
68.82672139318313
 30
78.0
 10
1903.0409647725862
 20
68.49490326335324
 30
78.0
 10
1901.6723358056818
 20
68.16521003331941
 30
78.0
 10
1898.8975568825474
 20
67.50126858636365
 30
78.0
 10
1897.4913796724752
 20
67.16713336862662
 30
78.0
 10
1896.084685708101
 20
66.83516498441215
 30
78.0
 10
1893.2338470811248
 20
66.16694927492851
 30
78.0
 10
1891.7896760439571
 20
65.83081376568009
 30
78.0
 10
1890.3449902505197
 20
65.49688486226535
 30
78.0
 10
1888.899804845505
 20
65.16512044929706
 30
78.0
  0
LINE
  5
38
330
17
100
AcDbEntity
  8
0
100
AcDbLine
 10
1888.9
 20
76.76579514599894
 30
78.0
 11
1888.9
 21
65.16516524999707
 31
78.0
  0
SPLINE
  5
39
330
17
100
AcDbEntity
  8
0
100
AcDbSpline
 70
0
 71
4
 72
10
 73
5
 74
0
 40
0.0
 40
0.0
 40
0.0
 40
0.0
 40
0.0
 40
1.0
 40
1.0
 40
1.0
 40
1.0
 40
1.0
 10
1885.099999410963
 20
75.99658732886134
 30
78.0
 10
1886.0501631222946
 20
76.18792341518169
 30
78.0
 10
1887.0002183019835
 20
76.37990244704537
 30
78.0
 10
1887.9501643316294
 20
76.57252590536895
 30
78.0
 10
1888.9000005888797
 20
76.76579526582212
 30
78.0
  0
LINE
  5
3A
330
17
100
AcDbEntity
  8
0
100
AcDbLine
 10
1885.1
 20
75.99658744747668
 30
78.0
 11
1885.1
 21
64.2986754938002
 31
78.0
  0
SPLINE
  5
3B
330
17
100
AcDbEntity
  8
0
100
AcDbSpline
 70
0
 71
4
 72
19
 73
14
 74
0
 40
0.0
 40
0.0
 40
0.0
 40
0.0
 40
0.0
 40
0.24198874412072527
 40
0.24198874412072527
 40
0.24198874412072527
 40
0.4893349186927553
 40
0.4893349186927553
 40
0.4893349186927553
 40
0.7420248763558922
 40
0.7420248763558922
 40
0.7420248763558922
 40
1.0
 40
1.0
 40
1.0
 40
1.0
 40
1.0
 10
1885.1000000000042
 20
64.29867549378213
 30
78.0
 10
1883.7593459805396
 20
63.99502383993064
 30
78.0
 10
1882.4182782963717
 20
63.69318970260846
 30
78.0
 10
1881.076807691202
 20
63.39314370876021
 30
78.0
 10
1878.363372470928
 20
62.78997023884093
 30
78.0
 10
1876.9913902601377
 20
62.48692160283149
 30
78.0
 10
1875.6190077769018
 20
62.18568415395034
 30
78.0
 10
1872.8438033115003
 20
61.58030918720401
 30
78.0
 10
1871.4409642692024
 20
61.27624960844112
 30
78.0
 10
1870.037727612306
 20
60.97402447504448
 30
78.0
 10
1867.20112002459
 20
60.36690773472819
 30
78.0
 10
1865.7677326873004
 20
60.0620925514918
 30
78.0
 10
1864.3339505558201
 20
59.759134640519406
 30
78.0
 10
1862.8997827458477
 20
59.458008434582155
 30
78.0
  0
LINE
  5
3C
330
17
100
AcDbEntity
  8
0
100
AcDbLine
 10
1862.9
 20
71.66068203619125
 30
78.0
 11
1862.9
 21
59.45805405053986
 31
78.0
  0
SPLINE
  5
3D
330
17
100
AcDbEntity
  8
0
100
AcDbSpline
 70
0
 71
4
 72
10
 73
5
 74
0
 40
0.0
 40
0.0
 40
0.0
 40
0.0
 40
0.0
 40
1.0
 40
1.0
 40
1.0
 40
1.0
 40
1.0
 10
1859.099999409865
 20
70.94511146830015
 30
78.0
 10
1860.0501500223975
 20
71.12307307652905
 30
78.0
 10
1861.0002008148347
 20
71.30165439449797
 30
78.0
 10
1861.9501512008103
 20
71.4808569204241
 30
78.0
 10
1862.9000005900211
 20
71.66068214789387
 30
78.0
  0
LINE
  5
3E
330
17
100
AcDbEntity
  8
0
100
AcDbLine
 10
1859.1
 20
70.94511157883144
 30
78.0
 11
1859.1
 21
58.66518484305287
 31
78.0
  0
SPLINE
  5
3F
330
17
100
AcDbEntity
  8
0
100
AcDbSpline
 70
0
 71
4
 72
19
 73
14
 74
0
 40
0.0
 40
0.0
 40
0.0
 40
0.0
 40
0.0
 40
0.24335394470144994
 40
0.24335394470144994
 40
0.24335394470144994
 40
0.49115513924652127
 40
0.49115513924652127
 40
0.49115513924652127
 40
0.7433893086277327
 40
0.7433893086277327
 40
0.7433893086277327
 40
1.0
 40
1.0
 40
1.0
 40
1.0
 40
1.0
 10
1859.0999999999815
 20
58.66518484314132
 30
78.0
 10
1857.7513092608656
 20
58.3855439525517
 30
78.0
 10
1856.4022881895028
 20
58.10749209812843
 30
78.0
 10
1855.0529439384081
 20
57.83100920241539
 30
78.0
 10
1852.3289575879533
 20
57.27611938643937
 30
78.0
 10
1850.9543038147092
 20
56.99776964506939
 30
78.0
 10
1849.5793288730529
 20
56.72100743073042
 30
78.0
 10
1846.8041468408321
 20
56.165698065019
 30
78.0
 10
1845.4039283947882
 20
55.887207548625184
 30
78.0
 10
1844.0033908546052
 20
55.610323188228136
 30
78.0
 10
1841.17738424654
 20
55.0549536212455
 30
78.0
 10
1839.7519042379993
 20
54.77652398281674
 30
78.0
 10
1838.3261073794479
 20
54.49971865897159
 30
78.0
 10
1836.8999999999855
 20
54.22451960126205
 30
78.0
  0
LINE
  5
40
330
17
100
AcDbEntity
  8
0
100
AcDbLine
 10
1836.9
 20
66.91626502051422
 30
78.0
 11
1836.9
 21
54.224519601187076
 31
78.0
  0
SPLINE
  5
41
330
17
100
AcDbEntity
  8
0
100
AcDbSpline
 70
0
 71
4
 72
10
 73
5
 74
0
 40
0.0
 40
0.0
 40
0.0
 40
0.0
 40
0.0
 40
1.0
 40
1.0
 40
1.0
 40
1.0
 40
1.0
 10
1833.099999408819
 20
66.25218425230457
 30
78.0
 10
1834.0501376824882
 20
66.41730807931528
 30
78.0
 10
1835.0001843415012
 20
66.58302849264916
 30
78.0
 10
1835.9501388307208
 20
66.74934700472413
 30
78.0
 10
1836.9000005911132
 20
66.91626512389689
 30
78.0
  0
LINE
  5
42
330
17
100
AcDbEntity
  8
0
100
AcDbLine
 10
1833.1
 20
66.25218435640662
 30
78.0
 11
1833.1
 21
53.49563729835668
 31
78.0
  0
SPLINE
  5
43
330
17
100
AcDbEntity
  8
0
100
AcDbSpline
 70
0
 71
4
 72
19
 73
14
 74
0
 40
0.0
 40
0.0
 40
0.0
 40
0.0
 40
0.0
 40
0.24431037772234893
 40
0.24431037772234893
 40
0.24431037772234893
 40
0.49243276891054166
 40
0.49243276891054166
 40
0.49243276891054166
 40
0.744344470129574
 40
0.744344470129574
 40
0.744344470129574
 40
1.0
 40
1.0
 40
1.0
 40
1.0
 40
1.0
 10
1833.0999999999935
 20
53.49563729838948
 30
78.0
 10
1831.745668208166
 20
53.23742524166039
 30
78.0
 10
1830.3910640314596
 20
52.98063943536928
 30
78.0
 10
1829.0361926297362
 20
52.72526518961812
 30
78.0
 10
1826.3047807571695
 20
52.21334908515828
 30
78.0
 10
1824.928232034667
 20
51.9568511877754
 30
78.0
 10
1823.5514178065812
 20
51.70178029186036
 30
78.0
 10
1820.7762373392643
 20
51.19059114107111
 30
78.0
 10
1819.3778630775007
 20
50.93451637927891
 30
78.0
 10
1817.9792251156994
 20
50.67988395384004
 30
78.0
 10
1815.1606413284178
 20
50.16971352405865
 30
78.0
 10
1813.7406877512813
 20
49.91421828931959
 30
78.0
 10
1812.3204724114398
 20
49.66018036496042
 30
78.0
 10
1810.9000000000237
 20
49.40758622147514
 30
78.0
  0
LINE
  5
44
330
17
100
AcDbEntity
  8
0
100
AcDbLine
 10
1810.9
 20
62.51796798429814
 30
78.0
 11
1810.9
 21
49.407586221608
 31
78.0
  0
SPLINE
  5
45
330
17
100
AcDbEntity
  8
0
100
AcDbSpline
 70
0
 71
4
 72
10
 73
5
 74
0
 40
0.0
 40
0.0
 40
0.0
 40
0.0
 40
0.0
 40
1.0
 40
1.0
 40
1.0
 40
1.0
 40
1.0
 10
1807.0999994077938
 20
61.90326916125839
 30
78.0
 10
1808.0501260702576
 20
62.05608198926453
 30
78.0
 10
1809.0001688389648
 20
62.20946840290653
 30
78.0
 10
1809.9501271891152
 20
62.363429926005544
 30
78.0
 10
1810.900000592071
 20
62.51796807884481
 30
78.0
  0
LINE
  5
46
330
17
100
AcDbEntity
  8
0
100
AcDbLine
 10
1807.1
 20
61.90326925700781
 30
78.0
 11
1807.1
 21
48.73583394939634
 31
78.0
  0
SPLINE
  5
47
330
17
100
AcDbEntity
  8
0
100
AcDbSpline
 70
0
 71
4
 72
19
 73
14
 74
0
 40
0.0
 40
0.0
 40
0.0
 40
0.0
 40
0.0
 40
0.24503517952166023
 40
0.24503517952166023
 40
0.24503517952166023
 40
0.49338957182692056
 40
0.49338957182692056
 40
0.49338957182692056
 40
0.7450541627391685
 40
0.7450541627391685
 40
0.7450541627391685
 40
1.0
 40
1.0
 40
1.0
 40
1.0
 40
1.0
 10
1807.1000000000029
 20
48.735833949377266
 30
78.0
 10
1805.7413965547655
 20
48.49708034256277
 30
78.0
 10
1804.382563732779
 20
48.259630363308425
 30
78.0
 10
1803.0235054637267
 20
48.02347272308256
 30
78.0
 10
1800.2865329134438
 20
47.550538840268594
 30
78.0
 10
1798.9086125841138
 20
47.313797559360445
 30
78.0
 10
1797.5304684073462
 20
47.078361494399935
 30
78.0
 10
1794.7553681993675
 20
46.606957622634916
 30
78.0
 10
1793.3584062613406
 20
46.371024552231695
 30
78.0
 10
1791.9612221279065
 20
46.13640958879535
 30
78.0
 10
1789.1481972275099
 20
45.66675274293362
 30
78.0
 10
1787.7323507271358
 20
45.43174516543104
 30
78.0
 10
1786.316283770834
 20
45.198068393611166
 30
78.0
 10
1784.8999999999924
 20
44.96571183290225
 30
78.0
  0
LINE
  5
48
330
17
100
AcDbEntity
  8
0
100
AcDbLine
 10
1784.9
 20
58.45147903317143
 30
78.0
 11
1784.9
 21
44.965711832854055
 31
78.0
  0
SPLINE
  5
49
330
17
100
AcDbEntity
  8
0
100
AcDbSpline
 70
0
 71
4
 72
10
 73
5
 74
0
 40
0.0
 40
0.0
 40
0.0
 40
0.0
 40
0.0
 40
1.0
 40
1.0
 40
1.0
 40
1.0
 40
1.0
 10
1781.0999994068807
 20
57.88409162530388
 30
78.0
 10
1782.0501151536225
 20
58.02511089300953
 30
78.0
 10
1783.0001542644795
 20
58.1666808767859
 30
78.0
 10
1783.9501162440206
 20
58.30880310934892
 30
78.0
 10
1784.900000593056
 20
58.451479120355266
 30
78.0
  0
LINE
  5
4A
330
17
100
AcDbEntity
  8
0
100
AcDbLine
 10
1781.1
 20
57.88409171490052
 30
78.0
 11
1781.1
 21
44.345926779387995
 31
78.0
  0
SPLINE
  5
4B
330
17
100
AcDbEntity
  8
0
100
AcDbSpline
 70
0
 71
4
 72
19
 73
14
 74
0
 40
0.0
 40
0.0
 40
0.0
 40
0.0
 40
0.0
 40
0.24558922275881376
 40
0.24558922275881376
 40
0.24558922275881376
 40
0.49412789456941203
 40
0.49412789456941203
 40
0.49412789456941203
 40
0.7456065995170393
 40
0.7456065995170393
 40
0.7456065995170393
 40
1.0
 40
1.0
 40
1.0
 40
1.0
 40
1.0
 10
1781.0999999999988
 20
44.34592677939204
 30
78.0
 10
1779.7381269299633
 20
44.12510493070565
 30
78.0
 10
1778.3760579376903
 20
43.90549020810783
 30
78.0
 10
1777.013796135963
 20
43.68707361121203
 30
78.0
 10
1774.2725302915287
 20
43.25001037344052
 30
78.0
 10
1772.8935216606565
 20
43.03139248274528
 30
78.0
 10
1771.514321725115
 20
42.81398373137175
 30
78.0
 10
1768.739228003658
 20
42.379009665383414
 30
78.0
 10
1767.3433297359115
 20
42.161472920277376
 30
78.0
 10
1765.9472417150348
 20
41.94515631964178
 30
78.0
 10
1763.1385089023745
 20
41.51245315314392
 30
78.0
 10
1761.7258597569119
 20
41.296094823127405
 30
78.00000000000003
 10
1760.3130224807196
 20
41.08096747995594
 30
78.00000000000004
 10
1758.8999999999999
 20
40.8670625408749
 30
78.00000000000006
  0
LINE
  5
4C
330
17
100
AcDbEntity
  8
0
100
AcDbLine
 10
1758.9
 20
54.70273522206125
 30
78.0
 11
1758.9
 21
40.867062540871636
 31
78.0
  0
SPLINE
  5
4D
330
17
100
AcDbEntity
  8
0
100
AcDbSpline
 70
0
 71
4
 72
10
 73
5
 74
0
 40
0.0
 40
0.0
 40
0.0
 40
0.0
 40
0.0
 40
1.0
 40
1.0
 40
1.0
 40
1.0
 40
1.0
 10
1755.099999405988
 20
54.1806238427478
 30
78.0
 10
1756.050104900456
 20
54.31035819304538
 30
78.0
 10
1757.0001405752657
 20
54.44062052750899
 30
78.0
 10
1757.9501059633296
 20
54.571412385516744
 30
78.0
 10
1758.9000005938883
 20
54.70273530382251
 30
78.0
  0
LINE
  5
4E
330
17
100
AcDbEntity
  8
0
100
AcDbLine
 10
1755.1
 20
54.18062392635757
 30
78.0
 11
1755.1
 21
40.295193968103746
 31
78.0
  0
SPLINE
  5
4F
330
17
100
AcDbEntity
  8
0
100
AcDbSpline
 70
0
 71
4
 72
19
 73
14
 74
0
 40
0.0
 40
0.0
 40
0.0
 40
0.0
 40
0.0
 40
0.24603133804443414
 40
0.24603133804443414
 40
0.24603133804443414
 40
0.494719742494734
 40
0.494719742494734
 40
0.494719742494734
 40
0.7460536168503066
 40
0.7460536168503066
 40
0.7460536168503066
 40
1.0
 40
1.0
 40
1.0
 40
1.0
 40
1.0
 10
1755.0999999999924
 20
40.295193968153434
 30
78.0
 10
1753.7355159628905
 20
40.091059807492165
 30
78.0
 10
1752.370862921348
 20
39.88805439140954
 30
78.0
 10
1751.006043415394
 20
39.68617033776991
 30
78.0
 10
1748.2613349710762
 20
39.2824622656269
 30
78.0
 10
1746.8814424696275
 20
39.0806624521962
 30
78.0
 10
1745.5013849325462
 20
38.879993582250364
 30
78.0
 10
1742.7262623063318
 20
38.478780764904435
 30
78.0
 10
1741.331193739691
 20
38.278260853605886
 30
78.0
 10
1739.9359616102997
 20
38.07888142561274
 30
78.0
 10
1737.130670545744
 20
37.6803286640796
 30
77.99999999999999
 10
1735.7206082447622
 20
37.48117900345893
 30
78.0
 10
1734.3103839250907
 20
37.28317913355995
 30
78.0
 10
1732.9000000000171
 20
37.08632192604495
 30
78.0
  0
LINE
  5
50
330
17
100
AcDbEntity
  8
0
100
AcDbLine
 10
1732.9
 20
51.25790789961838
 30
78.0
 11
1732.9
 21
37.08632192616863
 31
78.0
  0
SPLINE
  5
51
330
17
100
AcDbEntity
  8
0
100
AcDbSpline
 70
0
 71
4
 72
10
 73
5
 74
0
 40
0.0
 40
0.0
 40
0.0
 40
0.0
 40
0.0
 40
1.0
 40
1.0
 40
1.0
 40
1.0
 40
1.0
 10
1729.099999405146
 20
50.77907020894261
 30
78.0
 10
1730.050095279298
 20
50.89802001492713
 30
78.0
 10
1731.0001277295694
 20
51.01747521561645
 30
78.0
 10
1731.9500963161356
 20
51.13743735507953
 30
78.0
 10
1732.9000005956054
 20
51.2579079751554
 30
78.0
  0
LINE
  5
52
330
17
100
AcDbEntity
  8
0
100
AcDbLine
 10
1729.1
 20
50.77907028341698
 30
78.0
 11
1729.1
 21
36.55909085961627
 31
78.0
  0
SPLINE
  5
53
330
17
100
AcDbEntity
  8
0
100
AcDbSpline
 70
0
 71
4
 72
19
 73
14
 74
0
 40
0.0
 40
0.0
 40
0.0
 40
0.0
 40
0.0
 40
0.24637805330760454
 40
0.24637805330760454
 40
0.24637805330760454
 40
0.4951904974216782
 40
0.4951904974216782
 40
0.4951904974216782
 40
0.7464084603986353
 40
0.7464084603986353
 40
0.7464084603986353
 40
1.0
 40
1.0
 40
1.0
 40
1.0
 40
1.0
 10
1729.100000000025
 20
36.55909085943196
 30
78.0
 10
1727.7334614821361
 20
36.370623968602175
 30
78.0
 10
1726.3667761974555
 20
36.183220500586394
 30
78.0
 10
1724.999946266585
 20
35.99687426752902
 30
78.0
 10
1722.252494577189
 20
35.62445323372451
 30
78.0
 10
1720.8718699855833
 20
35.43839931828911
 30
78.0
 10
1719.491102097243
 20
35.25341119755315
 30
78.0
 10
1716.7159331891664
 20
34.88377627777127
 30
78.0
 10
1715.3215294251863
 20
34.699150069126674
 30
78.0
 10
1713.9269837726556
 20
34.51559802081257
 30
78.0
 10
1711.1244353870889
 20
34.148906091184465
 30
78.0
 10
1709.7164300002642
 20
33.96578647808263
 30
78.0
 10
1708.30828419372
 20
33.78374917398697
 30
78.0
 10
1706.90000000007
 20
33.60278813382155
 30
78.0
  0
LINE
  5
54
330
17
100
AcDbEntity
  8
0
100
AcDbLine
 10
1706.9
 20
48.10338864413637
 30
78.0
 11
1706.9
 21
33.6027881343646
 31
78.0
  0
SPLINE
  5
55
330
17
100
AcDbEntity
  8
0
100
AcDbSpline
 70
0
 71
4
 72
10
 73
5
 74
0
 40
0.0
 40
0.0
 40
0.0
 40
0.0
 40
0.0
 40
1.0
 40
1.0
 40
1.0
 40
1.0
 40
1.0
 10
1703.0999994043543
 20
47.66585331020275
 30
78.0
 10
1704.0500862580877
 20
47.77451118091602
 30
78.0
 10
1705.0001156842234
 20
47.883652002441075
 30
78.0
 10
1705.9500872690805
 20
47.99327732181424
 30
78.0
 10
1706.9000005955331
 20
48.10338868419734
 30
78.0
  0
LINE
  5
56
330
17
100
AcDbEntity
  8
0
100
AcDbLine
 10
1703.1
 20
47.665853404986024
 30
78.0
 11
1703.1
 21
33.11747659364644
 31
78.0
  0
SPLINE
  5
57
330
17
100
AcDbEntity
  8
0
100
AcDbSpline
 70
0
 71
4
 72
19
 73
14
 74
0
 40
0.0
 40
0.0
 40
0.0
 40
0.0
 40
0.0
 40
0.2466725122390086
 40
0.2466725122390086
 40
0.2466725122390086
 40
0.495581007360904
 40
0.495581007360904
 40
0.495581007360904
 40
0.7466956533274567
 40
0.7466956533274567
 40
0.7466956533274567
 40
1.0
 40
1.0
 40
1.0
 40
1.0
 40
1.0
 10
1703.100000000085
 20
33.11747659297417
 30
78.0
 10
1701.731717296354
 20
32.94379808631443
 30
78.0
 10
1700.3633065549095
 20
32.77112765015057
 30
78.0
 10
1698.9947695796573
 20
32.59946000240427
 30
78.0
 10
1696.245040345591
 20
32.256572752582244
 30
78.0
 10
1694.8638458185198
 20
32.08537132816712
 30
78.0
 10
1693.4825263574176
 20
31.91518029539277
 30
78.0
 10
1690.7073969236458
 20
31.57530911723033
 30
78.0
 10
1689.3135847577748
 20
31.40564686960766
 30
78.0
 10
1687.9196490097063
 20
31.237002421397136
 30
78.0
 10
1685.119377754417
 20
30.900277072806215
 30
77.99999999999999
 10
1683.7130401143377
 20
30.73221389800121
 30
78.00000000000003
 10
1682.3065802817994
 20
30.56517584595989
 30
78.00000000000004
 10
1680.8999999980915
 20
30.399157702463327
 30
78.00000000000006
  0
LINE
  5
58
330
17
100
AcDbEntity
  8
0
100
AcDbLine
 10
1680.9
 20
45.22577556575234
 30
78.0
 11
1680.9
 21
30.399157686290515
 31
78.0
  0
SPLINE
  5
59
330
17
100
AcDbEntity
  8
0
100
AcDbSpline
 70
0
 71
4
 72
10
 73
5
 74
0
 40
0.0
 40
0.0
 40
0.0
 40
0.0
 40
0.0
 40
1.0
 40
1.0
 40
1.0
 40
1.0
 40
1.0
 10
1677.0999994035997
 20
44.82760044046215
 30
78.0
 10
1678.0500778064832
 20
44.92645170830696
 30
78.0
 10
1679.0001043992356
 20
45.02576363020712
 30
78.0
 10
1679.9500787931709
 20
45.12553775467741
 30
78.0
 10
1680.9000005962826
 20
45.22577562867342
 30
78.0
  0
LINE
  5
5A
330
17
100
AcDbEntity
  8
0
100
AcDbLine
 10
1677.1
 20
44.827600502514855
 30
78.0
 11
1677.1
 21
29.95346859989015
 31
78.0
  0
SPLINE
  5
5B
330
17
100
AcDbEntity
  8
0
100
AcDbSpline
 70
0
 71
5
 72
24
 73
18
 74
0
 40
0.0
 40
0.0
 40
0.0
 40
0.0
 40
0.0
 40
0.0
 40
0.24699754019110806
 40
0.24699754019110806
 40
0.24699754019110806
 40
0.24699754019110806
 40
0.49603130745241014
 40
0.49603130745241014
 40
0.49603130745241014
 40
0.49603130745241014
 40
0.7470509514619647
 40
0.7470509514619647
 40
0.7470509514619647
 40
0.7470509514619647
 40
1.0
 40
1.0
 40
1.0
 40
1.0
 40
1.0
 40
1.0
 10
1677.099999999995
 20
29.953468599934325
 30
78.0
 10
1676.0038475413262
 20
29.825717040864944
 30
78.0
 10
1674.9076278209964
 20
29.69854224688584
 30
78.0
 10
1673.811341608984
 20
29.571941164548043
 30
78.0
 10
1672.7149890996618
 20
29.445915636218672
 30
78.0
 10
1670.513115484459
 20
29.193964208626262
 30
78.0
 10
1669.4075932589226
 20
29.068048091228615
 30
78.0
 10
1668.3020060864158
 20
28.94270278499555
 30
78.0
 10
1667.196355012534
 20
28.81792255047792
 30
78.0
 10
1664.9761097510304
 20
28.56849053089901
 30
78.0
 10
1663.8615145567953
 20
28.443847703441804
 30
78.0
 10
1662.746856492929
 20
28.319767653774125
 30
78.0
 10
1661.6321365546432
 20
28.196244860867274
 30
78.0
 10
1659.3940063417542
 20
27.94935790291214
 30
78.0
 10
1658.2705951281705
 20
27.82600224684079
 30
78.0
 10
1657.1471230398479
 20
27.70320155184453
 30
78.0
 10
1656.0235910249064
 20
27.580950502482025
 30
78.0
 10
1654.8999999999915
 20
27.459243923358482
 30
78.0
  0
LINE
  5
5C
330
17
100
AcDbEntity
  8
0
100
AcDbLine
 10
1654.9
 20
42.611860658340966
 30
78.0
 11
1654.9
 21
27.45924392328365
 31
78.0
  0
SPLINE
  5
5D
330
17
100
AcDbEntity
  8
0
100
AcDbSpline
 70
0
 71
4
 72
10
 73
5
 74
0
 40
0.0
 40
0.0
 40
0.0
 40
0.0
 40
0.0
 40
1.0
 40
1.0
 40
1.0
 40
1.0
 40
1.0
 10
1651.0999994027811
 20
42.251130600852306
 30
78.0
 10
1652.0500698937608
 20
42.34065379154886
 30
78.0
 10
1653.0000938336123
 20
42.43061548678661
 30
78.0
 10
1653.950070857474
 20
42.52101723528808
 30
78.0
 10
1654.9000005972996
 20
42.611860584497734
 30
78.0
  0
LINE
  5
5E
330
17
100
AcDbEntity
  8
0
100
AcDbLine
 10
1651.1
 20
42.25113148022125
 30
78.0
 11
1651.1
 21
27.050134646276646
 31
78.0
  0
SPLINE
  5
5F
330
17
100
AcDbEntity
  8
0
100
AcDbSpline
 70
0
 71
4
 72
13
 73
8
 74
0
 40
0.0
 40
0.0
 40
0.0
 40
0.0
 40
0.0
 40
0.40873675893379513
 40
0.40873675893379513
 40
0.40873675893379513
 40
1.0
 40
1.0
 40
1.0
 40
1.0
 40
1.0
 10
1651.0999999999897
 20
27.050134646371788
 30
78.0
 10
1648.8323713557013
 20
26.80748554055483
 30
78.0
 10
1646.5644942751792
 20
26.567156870887665
 30
78.0
 10
1644.2963779018662
 20
26.329096833130585
 30
78.0
 10
1638.7467242260823
 20
25.75210282242468
 30
78.0
 10
1635.4649344729792
 20
25.41559574417734
 30
78.0
 10
1632.1826859684584
 20
25.08359437367719
 30
78.0
 10
1628.8999999999858
 20
24.75597384297764
 30
78.0
  0
LINE
  5
60
330
17
100
AcDbEntity
  8
0
100
AcDbLine
 10
1628.9
 20
40.248616411951815
 30
78.0
 11
1628.9
 21
24.755973842831395
 31
78.0
  0
SPLINE
  5
61
330
17
100
AcDbEntity
  8
0
100
AcDbSpline
 70
0
 71
4
 72
10
 73
5
 74
0
 40
0.0
 40
0.0
 40
0.0
 40
0.0
 40
0.0
 40
1.0
 40
1.0
 40
1.0
 40
1.0
 40
1.0
 10
1625.0999994022777
 20
39.92344194453569
 30
78.0
 10
1626.0500624560673
 20
40.004109229437745
 30
78.0
 10
1627.0000839577249
 20
40.08519301985147
 30
78.0
 10
1627.9500634286183
 20
40.1666948558138
 30
78.0
 10
1628.9000005978312
 20
40.248616288429005
 30
78.0
  0
LINE
  5
62
330
17
100
AcDbEntity
  8
0
100
AcDbLine
 10
1625.1
 20
39.923442150485776
 30
78.0
 11
1625.1
 21
24.378934952029773
 31
78.0
  0
SPLINE
  5
63
330
17
100
AcDbEntity
  8
0
100
AcDbSpline
 70
0
 71
4
 72
13
 73
8
 74
0
 40
0.0
 40
0.0
 40
0.0
 40
0.0
 40
0.0
 40
0.49715487837323097
 40
0.49715487837323097
 40
0.49715487837323097
 40
1.0
 40
1.0
 40
1.0
 40
1.0
 40
1.0
 10
1625.0999999999822
 20
24.378934952207757
 30
78.0
 10
1622.3416501288243
 20
24.10684528300004
 30
78.0
 10
1619.583000008357
 20
23.83779785756277
 30
78.0
 10
1616.8240617328254
 20
23.57172152622269
 30
78.0
 10
1611.274049428101
 20
23.042370844673126
 30
78.00000000000001
 10
1608.4829690200615
 20
22.779163391654315
 30
78.0
 10
1605.6916159155462
 20
22.518863784763724
 30
78.0
 10
1602.8999999999794
 20
22.261412431870017
 30
78.0
  0
LINE
  5
64
330
17
100
AcDbEntity
  8
0
100
AcDbLine
 10
1602.9
 20
38.12318340416883
 30
78.0
 11
1602.9
 21
22.261412431639855
 31
78.0
  0
SPLINE
  5
65
330
17
100
AcDbEntity
  8
0
100
AcDbSpline
 70
0
 71
4
 72
10
 73
5
 74
0
 40
0.0
 40
0.0
 40
0.0
 40
0.0
 40
0.0
 40
1.0
 40
1.0
 40
1.0
 40
1.0
 40
1.0
 10
1599.0999994012411
 20
37.831696521933424
 30
78.0
 10
1600.0500511557775
 20
37.90397396481631
 30
78.0
 10
1601.0000689661672
 20
37.9766463029638
 30
78.0
 10
1601.950052294088
 20
38.04971506264098
 30
78.0
 10
1602.9000005982014
 20
38.123181770301834
 30
78.0
  0
LINE
  5
66
330
17
100
AcDbEntity
  8
0
100
AcDbLine
 10
1599.1
 20
37.83169821905051
 30
78.0
 11
1599.1
 21
21.912951177381238
 31
78.0
  0
SPLINE
  5
67
330
17
100
AcDbEntity
  8
0
100
AcDbSpline
 70
0
 71
4
 72
13
 73
8
 74
0
 40
0.0
 40
0.0
 40
0.0
 40
0.0
 40
0.0
 40
0.49757778662595276
 40
0.49757778662595276
 40
0.49757778662595276
 40
1.0
 40
1.0
 40
1.0
 40
1.0
 40
1.0
 10
1599.099999999974
 20
21.912951177665327
 30
78.0
 10
1596.3391633616948
 20
21.661217772152792
 30
78.0
 10
1593.5780761912833
 20
21.412230673499856
 30
78.0
 10
1590.816747666286
 20
21.165934506711725
 30
78.0
 10
1585.2667377684677
 20
20.676251522231794
 30
77.99999999999999
 10
1582.4780518391785
 20
20.432916356773312
 30
78.0
 10
1579.6891367081848
 20
20.192222160649877
 30
78.0
 10
1576.9000000000144
 20
19.954122285738762
 30
78.0
  0
LINE
  5
68
330
17
100
AcDbEntity
  8
0
100
AcDbLine
 10
1576.9
 20
36.22287234724196
 30
78.0
 11
1576.9
 21
19.95412228590731
 31
78.0
  0
SPLINE
  5
69
330
17
100
AcDbEntity
  8
0
100
AcDbSpline
 70
0
 71
4
 72
10
 73
5
 74
0
 40
0.0
 40
0.0
 40
0.0
 40
0.0
 40
0.0
 40
1.0
 40
1.0
 40
1.0
 40
1.0
 40
1.0
 10
1573.0999993983185
 20
35.96323971302668
 30
78.0
 10
1574.0500402419302
 20
36.02758565090209
 30
78.0
 10
1575.0000544018328
 20
36.092305148106504
 30
78.0
 10
1575.9500413607602
 20
36.157399722653565
 30
78.0
 10
1576.9000005986456
 20
36.22287089278565
 30
78.0
  0
LINE
  5
6A
330
17
100
AcDbEntity
  8
0
100
AcDbLine
 10
1573.1
 20
35.963241157843754
 30
78.0
 11
1573.1
 21
19.631539709660306
 31
78.0
  0
SPLINE
  5
6B
330
17
100
AcDbEntity
  8
0
100
AcDbSpline
 70
0
 71
4
 72
13
 73
8
 74
0
 40
0.0
 40
0.0
 40
0.0
 40
0.0
 40
0.0
 40
0.4979523012644659
 40
0.4979523012644659
 40
0.4979523012644659
 40
1.0
 40
1.0
 40
1.0
 40
1.0
 40
1.0
 10
1573.0999999999997
 20
19.631539709665052
 30
78.0
 10
1570.33697711047
 20
19.398298024667877
 30
78.0
 10
1567.57374182273
 20
19.16757127503109
 30
78.0
 10
1564.8103012724334
 20
18.939315873995962
 30
78.0
 10
1559.2602930920539
 20
18.485811248801184
 30
78.0
 10
1556.4737221816288
 20
18.2606021751643
 30
78.0
 10
1553.686955813501
 20
18.0378245155119
 30
78.0
 10
1550.9000000000012
 20
17.8174414840274
 30
78.0
  0
LINE
  5
6C
330
17
100
AcDbEntity
  8
0
100
AcDbLine
 10
1550.9
 20
34.535231873782465
 30
78.0
 11
1550.9
 21
17.81744148403881
 31
78.0
  0
SPLINE
  5
6D
330
17
100
AcDbEntity
  8
0
100
AcDbSpline
 70
0
 71
4
 72
10
 73
5
 74
0
 40
0.0
 40
0.0
 40
0.0
 40
0.0
 40
0.0
 40
1.0
 40
1.0
 40
1.0
 40
1.0
 40
1.0
 10
1547.0999994009849
 20
34.305654053093875
 30
78.0
 10
1548.0500297729614
 20
34.362518213480826
 30
78.0
 10
1549.0000404290213
 20
34.41973484486955
 30
78.0
 10
1549.9500308712065
 20
34.47730545777644
 30
78.0
 10
1550.9000005989644
 20
34.535231562959936
 30
78.0
  0
LINE
  5
6E
330
17
100
AcDbEntity
  8
0
100
AcDbLine
 10
1547.1
 20
34.30565426453622
 30
78.0
 11
1547.1
 21
17.51862435727874
 31
78.0
  0
SPLINE
  5
6F
330
17
100
AcDbEntity
  8
0
100
AcDbSpline
 70
0
 71
4
 72
13
 73
8
 74
0
 40
0.0
 40
0.0
 40
0.0
 40
0.0
 40
0.0
 40
0.4982854507416871
 40
0.4982854507416871
 40
0.4982854507416871
 40
1.0
 40
1.0
 40
1.0
 40
1.0
 40
1.0
 10
1547.100000000001
 20
17.518624357265917
 30
78.0
 10
1544.3350431920317
 20
17.302412721039097
 30
78.0
 10
1541.569903916169
 20
17.08853350312065
 30
78.0
 10
1538.8045878391172
 20
16.876952196208343
 30
78.0
 10
1533.2545809222768
 20
16.45688210959913
 30
78.0
 10
1530.4698877142205
 20
16.248424623066544
 30
78.0
 10
1527.6850257949711
 20
16.04223298804572
 30
78.0
 10
1524.9000000000044
 20
15.838278152850904
 30
78.0
  0
LINE
  5
70
330
17
100
AcDbEntity
  8
0
100
AcDbLine
 10
1524.9
 20
33.04803708750138
 30
78.0
 11
1524.9
 21
15.838278152909236
 31
78.0
  0
SPLINE
  5
71
330
17
100
AcDbEntity
  8
0
100
AcDbSpline
 70
0
 71
4
 72
10
 73
5
 74
0
 40
0.0
 40
0.0
 40
0.0
 40
0.0
 40
0.0
 40
1.0
 40
1.0
 40
1.0
 40
1.0
 40
1.0
 10
1521.0999994008246
 20
32.84674356673289
 30
78.0
 10
1522.05002013515
 20
32.896568087832826
 30
78.0
 10
1523.0000273220994
 20
32.94672416212145
 30
78.0
 10
1523.9500209290168
 20
32.99721333433459
 30
78.0
 10
1524.9000005991572
 20
33.04803711955621
 30
78.0
  0
LINE
  5
72
330
17
100
AcDbEntity
  8
0
100
AcDbLine
 10
1521.1
 20
32.84674359815708
 30
78.0
 11
1521.1
 21
15.561559380495858
 31
78.0
  0
SPLINE
  5
73
330
17
100
AcDbEntity
  8
0
100
AcDbSpline
 70
0
 71
4
 72
13
 73
8
 74
0
 40
0.0
 40
0.0
 40
0.0
 40
0.0
 40
0.0
 40
0.4985812955655751
 40
0.4985812955655751
 40
0.4985812955655751
 40
1.0
 40
1.0
 40
1.0
 40
1.0
 40
1.0
 10
1521.1000000000083
 20
15.561559380379993
 30
78.0
 10
1518.333332921606
 20
15.361224927701462
 30
78.0
 10
1515.5665073489579
 20
15.163078438009943
 30
78.0
 10
1512.7995278683698
 20
14.967092597929575
 30
78.0
 10
1507.2495219062898
 20
14.578289341736253
 30
78.0
 10
1504.4664937175687
 20
14.385496297899355
 30
78.00000000000003
 10
1501.6833184286977
 20
14.194838296677753
 30
78.00000000000004
 10
1498.899999999986
 20
14.00629252252242
 30
78.00000000000006
  0
LINE
  5
74
330
17
100
AcDbEntity
  8
0
100
AcDbLine
 10
1498.9
 20
31.749241199452236
 30
78.0
 11
1498.9
 21
14.006292522316986
 31
78.0
  0
SPLINE
  5
75
330
17
100
AcDbEntity
  8
0
100
AcDbSpline
 70
0
 71
4
 72
10
 73
5
 74
0
 40
0.0
 40
0.0
 40
0.0
 40
0.0
 40
0.0
 40
1.0
 40
1.0
 40
1.0
 40
1.0
 40
1.0
 10
1495.0999994007025
 20
31.574477437883534
 30
78.0
 10
1496.050017270514
 20
31.617701225869297
 30
78.0
 10
1497.0000235140249
 20
31.661235374689692
 30
78.0
 10
1497.9500180010816
 20
31.70508142194397
 30
78.0
 10
1498.9000005992832
 20
31.749240904241745
 30
78.0
  0
LINE
  5
76
330
17
100
AcDbEntity
  8
0
100
AcDbLine
 10
1495.1
 20
31.574477761757308
 30
78.0
 11
1495.1
 21
13.750354921229548
 31
78.0
  0
SPLINE
  5
77
330
17
100
AcDbEntity
  8
0
100
AcDbSpline
 70
0
 71
4
 72
13
 73
8
 74
0
 40
0.0
 40
0.0
 40
0.0
 40
0.0
 40
0.0
 40
0.4988537245469281
 40
0.4988537245469281
 40
0.4988537245469281
 40
1.0
 40
1.0
 40
1.0
 40
1.0
 40
1.0
 10
1495.0999999999863
 20
13.750354921431846
 30
78.0
 10
1492.3317649690773
 20
13.5649839186992
 30
78.0
 10
1489.5633909986066
 20
13.381687011158851
 30
78.0
 10
1486.794881866562
 20
13.200442743212685
 30
78.0
 10
1481.2448766238845
 20
12.84119705096487
 30
78.0
 10
1478.4633793012438
 20
12.663214352845017
 30
78.0
 10
1475.6817526598754
 20
12.48726402965486
 30
78.0
 10
1472.9000000000153
 20
12.313328437364657
 30
78.0
  0
LINE
  5
78
330
17
100
AcDbEntity
  8
0
100
AcDbLine
 10
1472.9
 20
30.6268432549559
 30
78.0
 11
1472.9
 21
12.313328437610018
 31
78.0
  0
SPLINE
  5
79
330
17
100
AcDbEntity
  8
0
100
AcDbSpline
 70
0
 71
4
 72
10
 73
5
 74
0
 40
0.0
 40
0.0
 40
0.0
 40
0.0
 40
0.0
 40
1.0
 40
1.0
 40
1.0
 40
1.0
 40
1.0
 10
1469.0999994005824
 20
30.476856085931573
 30
78.0
 10
1470.0500147316868
 20
30.513917480101895
 30
78.0
 10
1471.000020119002
 20
30.551268041192753
 30
78.0
 10
1471.950015447337
 20
30.588909308899865
 30
78.0
 10
1472.9000005993958
 20
30.62684282209466
 30
78.0
  0
LINE
  5
7A
330
17
100
AcDbEntity
  8
0
100
AcDbLine
 10
1469.1
 20
30.476856965414328
 30
78.0
 11
1469.1
 21
12.077137120167242
 31
78.0
  0
SPLINE
  5
7B
330
17
100
AcDbEntity
  8
0
100
AcDbSpline
 70
0
 71
4
 72
13
 73
8
 74
0
 40
0.0
 40
0.0
 40
0.0
 40
0.0
 40
0.0
 40
0.49911192238575075
 40
0.49911192238575075
 40
0.49911192238575075
 40
1.0
 40
1.0
 40
1.0
 40
1.0
 40
1.0
 10
1469.1000000000183
 20
12.077137119875168
 30
78.0
 10
1466.3302853264918
 20
11.906011329234461
 30
78.0
 10
1463.5604479410508
 20
11.736871023605357
 30
78.0
 10
1460.7904910093862
 20
11.569699651365339
 30
78.0
 10
1455.2404863050415
 20
11.238677160499652
 30
78.0
 10
1452.4604377016658
 20
11.074839971237791
 30
78.0
 10
1449.6802746673125
 20
10.912955941407946
 30
78.0
 10
1446.9000000000171
 20
10.753011841057958
 30
78.0
  0
LINE
  5
7C
330
17
100
AcDbEntity
  8
0
100
AcDbLine
 10
1446.9
 20
29.668855506711296
 30
78.0
 11
1446.9
 21
10.75301184134149
 31
78.0
  0
SPLINE
  5
7D
330
17
100
AcDbEntity
  8
0
100
AcDbSpline
 70
0
 71
4
 72
10
 73
5
 74
0
 40
0.0
 40
0.0
 40
0.0
 40
0.0
 40
0.0
 40
1.0
 40
1.0
 40
1.0
 40
1.0
 40
1.0
 10
1443.0999994004799
 20
29.541895307513343
 30
78.0
 10
1444.0500124924188
 20
29.573231853883797
 30
78.0
 10
1445.0000171240754
 20
29.604836378351287
 30
78.0
 10
1445.9500131941795
 20
29.636710422020975
 30
78.0
 10
1446.9000005995108
 20
29.668855525318943
 30
78.0
  0
LINE
  5
7E
330
17
100
AcDbEntity
  8
0
100
AcDbLine
 10
1443.1
 20
29.541895329137958
 30
78.0
 11
1443.1
 21
10.535766181556404
 31
78.0
  0
SPLINE
  5
7F
330
17
100
AcDbEntity
  8
0
100
AcDbSpline
 70
0
 71
4
 72
13
 73
8
 74
0
 40
0.0
 40
0.0
 40
0.0
 40
0.0
 40
0.0
 40
0.49935014166769875
 40
0.49935014166769875
 40
0.49935014166769875
 40
1.0
 40
1.0
 40
1.0
 40
1.0
 40
1.0
 10
1443.1000000000176
 20
10.53576618124612
 30
78.0
 10
1440.3289236561723
 20
10.378335192024911
 30
78.0
 10
1437.5577383036223
 20
10.222822435875347
 30
78.0
 10
1434.7864466408437
 20
10.069215588063761
 30
78.0
 10
1429.2364423481918
 20
9.765397179336443
 30
78.0
 10
1426.4577291778003
 20
9.615195494172387
 30
78.0
 10
1423.6789142565974
 20
9.46688797532519
 30
78.0
 10
1420.8999999999899
 20
9.32046527552098
 30
78.0
  0
LINE
  5
80
330
17
100
AcDbEntity
  8
0
100
AcDbLine
 10
1420.9
 20
28.863312574760553
 30
78.0
 11
1420.9
 21
9.32046527532891
 31
78.0
  0
SPLINE
  5
81
330
17
100
AcDbEntity
  8
0
100
AcDbSpline
 70
0
 71
4
 72
10
 73
5
 74
0
 40
0.0
 40
0.0
 40
0.0
 40
0.0
 40
0.0
 40
1.0
 40
1.0
 40
1.0
 40
1.0
 40
1.0
 10
1417.099999400371
 20
28.75763162275248
 30
78.0
 10
1418.0500105307938
 20
28.783680126323116
 30
78.0
 10
1419.000014500035
 20
28.80997542779687
 30
78.0
 10
1419.950011219705
 20
28.836519069116576
 30
78.0
 10
1420.9000005996072
 20
28.863312591671882
 30
78.0
  0
LINE
  5
82
330
17
100
AcDbEntity
  8
0
100
AcDbLine
 10
1417.1
 20
28.757631639193804
 30
78.0
 11
1417.1
 21
9.121564793713471
 31
78.0
  0
SPLINE
  5
83
330
17
100
AcDbEntity
  8
0
100
AcDbSpline
 70
0
 71
4
 72
13
 73
8
 74
0
 40
0.0
 40
0.0
 40
0.0
 40
0.0
 40
0.0
 40
0.49958081849059344
 40
0.49958081849059344
 40
0.49958081849059344
 40
1.0
 40
1.0
 40
1.0
 40
1.0
 40
1.0
 10
1417.0999999999908
 20
9.121564793888483
 30
78.0
 10
1414.3276092588528
 20
8.977416428545487
 30
78.0
 10
1411.555121282179
 20
8.83513778482236
 30
78.0
 10
1408.7825384121572
 20
8.694720293788418
 30
78.0
 10
1403.2325344188887
 20
8.417360654202323
 30
78.0
 10
1400.4551129845927
 20
8.280424731804056
 30
78.0
 10
1397.6776008029108
 20
8.145341834107487
 30
78.0
 10
1394.8999999999885
 20
8.012106141347438
 30
78.0
  0
LINE
  5
84
330
17
100
AcDbEntity
  8
0
100
AcDbLine
 10
1394.9
 20
28.198267133380664
 30
78.0
 11
1394.9
 21
8.012106141102322
 31
78.0
  0
SPLINE
  5
85
330
17
100
AcDbEntity
  8
0
100
AcDbSpline
 70
0
 71
4
 72
10
 73
5
 74
0
 40
0.0
 40
0.0
 40
0.0
 40
0.0
 40
0.0
 40
1.0
 40
1.0
 40
1.0
 40
1.0
 40
1.0
 10
1391.099999400284
 20
28.11212089226537
 30
78.0
 10
1392.0500088249084
 20
28.133317468713997
 30
78.0
 10
1393.0000122176737
 20
28.154739674204595
 30
78.0
 10
1393.9500095020137
 20
28.17638905105193
 30
78.0
 10
1394.9000005997123
 20
28.198267141126294
 30
78.0
  0
LINE
  5
86
330
17
100
AcDbEntity
  8
0
100
AcDbLine
 10
1391.1
 20
28.11212091148174
 30
78.0
 11
1391.1
 21
7.8311266877472185
 31
78.0
  0
SPLINE
  5
87
330
17
100
AcDbEntity
  8
0
100
AcDbSpline
 70
0
 71
4
 72
13
 73
8
 74
0
 40
0.0
 40
0.0
 40
0.0
 40
0.0
 40
0.0
 40
0.499805392937077
 40
0.499805392937077
 40
0.499805392937077
 40
1.0
 40
1.0
 40
1.0
 40
1.0
 40
1.0
 10
1391.099999999986
 20
7.831126688044084
 30
78.0
 10
1388.326332822984
 20
7.6999747102042875
 30
78.0
 10
1385.5525787187325
 20
7.5706608474149855
 30
78.0
 10
1382.7787397607804
 20
7.443179978570628
 30
78.0
 10
1377.2287359749982
 20
7.191778665124617
 30
78.0
 10
1374.452571018206
 20
7.0678610697719115
 30
78.0
 10
1371.6763250555784
 20
6.945771709816354
 30
78.0
 10
1368.8999999999867
 20
6.825508081131366
 30
78.0
  0
LINE
  5
88
330
17
100
AcDbEntity
  8
0
100
AcDbLine
 10
1368.9
 20
27.661790449457968
 30
78.0
 11
1368.9
 21
6.825508080818043
 31
78.0
  0
SPLINE
  5
89
330
17
100
AcDbEntity
  8
0
100
AcDbSpline
 70
0
 71
4
 72
10
 73
5
 74
0
 40
0.0
 40
0.0
 40
0.0
 40
0.0
 40
0.0
 40
1.0
 40
1.0
 40
1.0
 40
1.0
 40
1.0
 10
1365.0999994001957
 20
27.593436940519297
 30
78.0
 10
1366.0500073527971
 20
27.61021706756906
 30
78.0
 10
1367.0000102477095
 20
27.62720166806658
 30
78.0
 10
1367.9500080191403
 20
27.644392284330408
 30
78.0
 10
1368.9000005997916
 20
27.661790458327353
 30
78.0
  0
LINE
  5
8A
330
17
100
AcDbEntity
  8
0
100
AcDbLine
 10
1365.1
 20
27.593436952045465
 30
78.0
 11
1365.1
 21
6.662186005032627
 31
78.0
  0
SPLINE
  5
8B
330
17
100
AcDbEntity
  8
0
100
AcDbSpline
 70
0
 71
4
 72
13
 73
8
 74
0
 40
0.0
 40
0.0
 40
0.0
 40
0.0
 40
0.0
 40
0.5000072785801244
 40
0.5000072785801244
 40
0.5000072785801244
 40
1.0
 40
1.0
 40
1.0
 40
1.0
 40
1.0
 10
1365.0999999999863
 20
6.662186005355993
 30
78.0
 10
1362.325184914412
 20
6.543863639723509
 30
78.0
 10
1359.5502921285135
 20
6.42736328744713
 30
78.0
 10
1356.775323499785
 20
6.312683691002257
 30
78.0
 10
1351.2253190555602
 20
6.086966162849612
 30
78.0
 10
1348.450283309817
 20
5.975926546865925
 30
78.0
 10
1345.6751761541575
 20
5.86668671310254
 30
78.0
 10
1342.8999999999853
 20
5.75922876225252
 30
78.0
  0
LINE
  5
8C
330
17
100
AcDbEntity
  8
0
100
AcDbLine
 10
1342.9
 20
27.241970613721044
 30
78.0
 11
1342.9
 21
5.7592287618774325
 31
78.0
  0
SPLINE
  5
8D
330
17
100
AcDbEntity
  8
0
100
AcDbSpline
 70
0
 71
4
 72
10
 73
5
 74
0
 40
0.0
 40
0.0
 40
0.0
 40
0.0
 40
0.0
 40
1.0
 40
1.0
 40
1.0
 40
1.0
 40
1.0
 10
1339.0999994001154
 20
27.189670185106195
 30
78.0
 10
1340.0500060925417
 20
27.202468753583215
 30
78.0
 10
1341.000008560924
 20
27.21545065441338
 30
78.0
 10
1341.950006749179
 20
27.22861742963964
 30
78.0
 10
1342.900000599874
 20
27.241970621031232
 30
78.0
  0
LINE
  5
8E
330
17
100
AcDbEntity
  8
0
100
AcDbLine
 10
1339.1
 20
27.18967019445622
 30
78.0
 11
1339.1
 21
5.613340346949855
 31
78.0
  0
SPLINE
  5
8F
330
17
100
AcDbEntity
  8
0
100
AcDbSpline
 70
0
 71
4
 72
10
 73
5
 74
0
 40
0.0
 40
0.0
 40
0.0
 40
0.0
 40
0.0
 40
1.0
 40
1.0
 40
1.0
 40
1.0
 40
1.0
 10
1339.0999999999894
 20
5.61334034722234
 30
78.0
 10
1333.5503854722926
 20
5.40210529812002
 30
78.0
 10
1328.000501583433
 20
5.197946821439567
 30
78.0
 10
1322.4503672964865
 20
5.000722710209533
 30
78.0
 10
1316.8999999999921
 20
4.810289718638519
 30
78.0
  0
LINE
  5
90
330
17
100
AcDbEntity
  8
0
100
AcDbLine
 10
1316.9
 20
26.92691112896161
 30
78.0
 11
1316.9
 21
4.81028971841204
 31
78.0
  0
SPLINE
  5
91
330
17
100
AcDbEntity
  8
0
100
AcDbSpline
 70
0
 71
4
 72
10
 73
5
 74
0
 40
0.0
 40
0.0
 40
0.0
 40
0.0
 40
0.0
 40
1.0
 40
1.0
 40
1.0
 40
1.0
 40
1.0
 10
1313.0999994000413
 20
26.888926271477494
 30
78.0
 10
1314.0500050222365
 20
26.898177636074493
 30
78.0
 10
1315.0000071281065
 20
26.90759120702821
 30
78.0
 10
1315.950005670219
 20
26.917168525906277
 30
78.0
 10
1316.9000005999485
 20
26.926911134067705
 30
78.0
  0
LINE
  5
92
330
17
100
AcDbEntity
  8
0
100
AcDbLine
 10
1313.1
 20
26.888926278072482
 30
78.0
 11
1313.1
 21
4.68110403900422
 31
78.0
  0
SPLINE
  5
93
330
17
100
AcDbEntity
  8
0
100
AcDbSpline
 70
0
 71
4
 72
10
 73
5
 74
0
 40
0.0
 40
0.0
 40
0.0
 40
0.0
 40
0.0
 40
1.0
 40
1.0
 40
1.0
 40
1.0
 40
1.0
 10
1313.0999999999913
 20
4.6811040392475745
 30
78.0
 10
1307.550223310326
 20
4.494169538735314
 30
78.0
 10
1302.0002195768425
 20
4.313975490017071
 30
78.0
 10
1296.4500058951523
 20
4.140379181809861
 30
78.0
 10
1290.899597854685
 20
3.9732369169609836
 30
78.0
  0
LINE
  5
94
330
17
100
AcDbEntity
  8
0
100
AcDbLine
 10
1290.9
 20
26.704729564246403
 30
78.0
 11
1290.9
 21
3.9732490271007075
 31
78.0
  0
SPLINE
  5
95
330
17
100
AcDbEntity
  8
0
100
AcDbSpline
 70
0
 71
4
 72
10
 73
5
 74
0
 40
0.0
 40
0.0
 40
0.0
 40
0.0
 40
0.0
 40
1.0
 40
1.0
 40
1.0
 40
1.0
 40
1.0
 10
1287.099999399974
 20
26.679324712703277
 30
78.0
 10
1288.050004120015
 20
26.68546274246563
 30
78.0
 10
1289.0000059201016
 20
26.69174186771826
 30
78.0
 10
1289.9500047603956
 20
26.698163629424673
 30
78.0
 10
1290.9000006000167
 20
26.704729568393443
 30
78.0
  0
LINE
  5
96
330
17
100
AcDbEntity
  8
0
100
AcDbLine
 10
1287.1
 20
26.679324716596085
 30
78.0
 11
1287.1
 21
3.8599500509074707
 31
78.0
  0
SPLINE
  5
97
330
17
100
AcDbEntity
  8
0
100
AcDbSpline
 70
0
 71
4
 72
10
 73
5
 74
0
 40
0.0
 40
0.0
 40
0.0
 40
0.0
 40
0.0
 40
1.0
 40
1.0
 40
1.0
 40
1.0
 40
1.0
 10
1287.1000000000029
 20
3.859950050803121
 30
78.0
 10
1281.5501678951791
 20
3.6961288172004645
 30
78.0
 10
1276.0001467717252
 20
3.5387109703355777
 30
78.0
 10
1270.4499519428389
 20
3.387553319893151
 30
78.0
 10
1264.899597285374
 20
3.2425117401222714
 30
78.0
  0
LINE
  5
98
330
17
100
AcDbEntity
  8
0
100
AcDbLine
 10
1264.9
 20
26.563556202997
 30
78.0
 11
1264.9
 21
3.242522264357838
 31
78.0
  0
SPLINE
  5
99
330
17
100
AcDbEntity
  8
0
100
AcDbSpline
 70
0
 71
4
 72
10
 73
5
 74
0
 40
0.0
 40
0.0
 40
0.0
 40
0.0
 40
0.0
 40
1.0
 40
1.0
 40
1.0
 40
1.0
 40
1.0
 10
1261.0999993999135
 20
26.54899753381526
 30
78.0
 10
1262.050003364055
 20
26.552455662365766
 30
78.0
 10
1263.00000490781
 20
26.556033790202186
 30
78.0
 10
1263.950003997884
 20
26.55973345761702
 30
78.0
 10
1264.9000006000788
 20
26.56355620479205
 30
78.0
  0
LINE
  5
9A
330
17
100
AcDbEntity
  8
0
100
AcDbLine
 10
1261.1
 20
26.548997536699787
 30
78.0
 11
1261.1
 21
3.1442935512473613
 31
78.0
  0
SPLINE
  5
9B
330
17
100
AcDbEntity
  8
0
100
AcDbSpline
 70
0
 71
4
 72
10
 73
5
 74
0
 40
0.0
 40
0.0
 40
0.0
 40
0.0
 40
0.0
 40
1.0
 40
1.0
 40
1.0
 40
1.0
 40
1.0
 10
1261.1000000000631
 20
3.144293548790957
 30
78.0
 10
1255.5501185725552
 20
3.002393729912413
 30
78.0
 10
1250.0000820582916
 20
2.866559518952081
 30
78.0
 10
1244.4499040747496
 20
2.7366472643629076
 30
78.0
 10
1238.899596873999
 20
2.6125124302471336
 30
78.0
  0
LINE
  5
9C
330
17
100
AcDbEntity
  8
0
100
AcDbLine
 10
1238.9
 20
26.491532680830716
 30
78.0
 11
1238.9
 21
2.6125214473386764
 31
78.0
  0
SPLINE
  5
9D
330
17
100
AcDbEntity
  8
0
100
AcDbSpline
 70
0
 71
4
 72
10
 73
5
 74
0
 40
0.0
 40
0.0
 40
0.0
 40
0.0
 40
0.0
 40
1.0
 40
1.0
 40
1.0
 40
1.0
 40
1.0
 10
1235.0999993998598
 20
26.486087920298267
 30
78.0
 10
1236.0500027325804
 20
26.487299195816934
 30
78.0
 10
1237.000004062205
 20
26.48860938817773
 30
78.0
 10
1237.950003360909
 20
26.490020036990245
 30
78.0
 10
1238.9000006001347
 20
26.49153268178629
 30
78.0
  0
LINE
  5
9E
330
17
100
AcDbEntity
  8
0
100
AcDbLine
 10
1235.1
 20
26.486087921063458
 30
78.0
 11
1235.1
 21
2.528545891815575
 31
78.0
  0
SPLINE
  5
9F
330
17
100
AcDbEntity
  8
0
100
AcDbSpline
 70
0
 71
4
 72
10
 73
5
 74
0
 40
0.0
 40
0.0
 40
0.0
 40
0.0
 40
0.0
 40
1.0
 40
1.0
 40
1.0
 40
1.0
 40
1.0
 10
1235.1000000000215
 20
2.528545890812097
 30
78.0
 10
1229.5500750236206
 20
2.407374536326319
 30
78.0
 10
1224.0000250076744
 20
2.2919302822894982
 30
78.0
 10
1218.4498619612264
 20
2.1820690352292664
 30
78.0
 10
1212.899596599968
 20
2.0776458689115076
 30
78.0
  0
LINE
  5
A0
330
17
100
AcDbEntity
  8
0
100
AcDbLine
 10
1212.9
 20
26.476810647559233
 30
78.0
 11
1212.9
 21
2.0776534585079123
 31
78.0
  0
SPLINE
  5
A1
330
17
100
AcDbEntity
  8
0
100
AcDbSpline
 70
0
 71
4
 72
10
 73
5
 74
0
 40
0.0
 40
0.0
 40
0.0
 40
0.0
 40
0.0
 40
1.0
 40
1.0
 40
1.0
 40
1.0
 40
1.0
 10
1209.099999399813
 20
26.478748870297007
 30
78.0
 10
1210.0500022038623
 20
26.4781460052723
 30
78.0
 10
1211.0000033543045
 20
26.477620987140106
 30
78.0
 10
1211.9500028277391
 20
26.477175354856122
 30
78.0
 10
1212.9000006001813
 20
26.47681064732882
 30
78.0
  0
LINE
  5
A2
330
17
100
AcDbEntity
  8
0
100
AcDbLine
 10
1209.1
 20
26.47874886991613
 30
78.0
 11
1209.1
 21
2.0071130972958215
 31
78.0
  0
SPLINE
  5
A3
330
17
100
AcDbEntity
  8
0
100
AcDbSpline
 70
0
 71
4
 72
10
 73
5
 74
0
 40
0.0
 40
0.0
 40
0.0
 40
0.0
 40
0.0
 40
1.0
 40
1.0
 40
1.0
 40
1.0
 40
1.0
 10
1209.0999999999997
 20
2.00711309731628
 30
78.0
 10
1203.550036928985
 20
1.905475877488826
 30
78.0
 10
1197.9999751900953
 20
1.8092265168313633
 30
78.0
 10
1192.4498252719193
 20
1.718220500619666
 30
78.0
 10
1186.899596442837
 20
1.632312533685998
 30
78.0
  0
LINE
  5
A4
330
17
100
AcDbEntity
  8
0
100
AcDbLine
 10
1186.9
 20
26.507550414983736
 30
78.0
 11
1186.9
 21
1.6323187820207945
 31
78.0
  0
SPLINE
  5
A5
330
17
100
AcDbEntity
  8
0
100
AcDbSpline
 70
0
 71
4
 72
10
 73
5
 74
0
 40
0.0
 40
0.0
 40
0.0
 40
0.0
 40
0.0
 40
1.0
 40
1.0
 40
1.0
 40
1.0
 40
1.0
 10
1183.099999399768
 20
26.51514185010758
 30
78.0
 10
1184.050001756214
 20
26.51315727087533
 30
78.0
 10
1185.000002755197
 20
26.511229479510412
 30
78.0
 10
1185.9500023766889
 20
26.509360014383795
 30
78.0
 10
1186.9000006002218
 20
26.507550413840406
 30
78.0
  0
LINE
  5
A6
330
17
100
AcDbEntity
  8
0
100
AcDbLine
 10
1183.1
 20
26.51514184885368
 30
78.0
 11
1183.1
 21
1.5743946247381433
 31
78.0
  0
SPLINE
  5
A7
330
17
100
AcDbEntity
  8
0
100
AcDbSpline
 70
0
 71
4
 72
10
 73
5
 74
0
 40
0.0
 40
0.0
 40
0.0
 40
0.0
 40
0.0
 40
1.0
 40
1.0
 40
1.0
 40
1.0
 40
1.0
 10
1183.1000000000295
 20
1.5743946227668613
 30
78.0
 10
1177.5500039679284
 20
1.491095608674443
 30
78.0
 10
1171.9999321740358
 20
1.4128444830675124
 30
78.0
 10
1166.449793675177
 20
1.339496332292589
 30
78.0
 10
1160.899596382277
 20
1.2709055158111109
 30
78.0
  0
LINE
  5
A8
330
17
100
AcDbEntity
  8
0
100
AcDbLine
 10
1160.9
 20
26.571919619249798
 30
78.0
 11
1160.9
 21
1.2709105040790147
 31
78.0
  0
SPLINE
  5
A9
330
17
100
AcDbEntity
  8
0
100
AcDbSpline
 70
0
 71
4
 72
10
 73
5
 74
0
 40
0.0
 40
0.0
 40
0.0
 40
0.0
 40
0.0
 40
1.0
 40
1.0
 40
1.0
 40
1.0
 40
1.0
 10
1157.0999993997368
 20
26.583435452524885
 30
78.0
 10
1158.0500013680014
 20
26.580501348611108
 30
78.0
 10
1159.0000022360348
 20
26.577602982661507
 30
78.0
 10
1159.9500019861168
 20
26.574741892555657
 30
78.0
 10
1160.9000006002561
 20
26.571919616166603
 30
78.0
  0
LINE
  5
AA
330
17
100
AcDbEntity
  8
0
100
AcDbLine
 10
1157.1
 20
26.583435452398643
 30
78.0
 11
1157.1
 21
1.2247824157485823
 31
78.0
  0
SPLINE
  5
AB
330
17
100
AcDbEntity
  8
0
100
AcDbSpline
 70
0
 71
4
 72
10
 73
5
 74
0
 40
0.0
 40
0.0
 40
0.0
 40
0.0
 40
0.0
 40
1.0
 40
1.0
 40
1.0
 40
1.0
 40
1.0
 10
1157.1000000000026
 20
1.2247824155050684
 30
78.0
 10
1151.549975817959
 20
1.1586239201979494
 30
78.0
 10
1145.9998955256524
 20
1.0971726279691012
 30
78.0
 10
1140.4497668376646
 20
1.0402832508089377
 30
78.0
 10
1134.8995963980458
 20
0.9878098293786721
 30
78.0
  0
LINE
  5
AC
330
17
100
AcDbEntity
  8
0
100
AcDbLine
 10
1134.9
 20
26.658091881500578
 30
78.0
 11
1134.9
 21
0.9878136454931326
 31
78.0
  0
SPLINE
  5
AD
330
17
100
AcDbEntity
  8
0
100
AcDbSpline
 70
0
 71
5
 72
12
 73
6
 74
0
 40
0.0
 40
0.0
 40
0.0
 40
0.0
 40
0.0
 40
0.0
 40
1.0
 40
1.0
 40
1.0
 40
1.0
 40
1.0
 40
1.0
 10
1131.0999993997127
 20
26.671804057619397
 30
78.0
 10
1131.932792815952
 20
26.66877828171489
 30
78.0
 10
1132.6632709675516
 20
26.6661348396731
 30
78.0
 10
1133.461106763763
 20
26.663252810710517
 30
78.0
 10
1134.2888775277052
 20
26.66028093563606
 30
78.0
 10
1134.9000006002864
 20
26.658091872026
 30
78.0
  0
LINE
  5
AE
330
17
100
AcDbEntity
  8
0
100
AcDbLine
 10
1131.1
 20
26.671804062962153
 30
78.0
 11
1131.1
 21
0.9526602708236153
 31
78.0
  0
SPLINE
  5
AF
330
17
100
AcDbEntity
  8
0
100
AcDbSpline
 70
0
 71
4
 72
10
 73
5
 74
0
 40
0.0
 40
0.0
 40
0.0
 40
0.0
 40
0.0
 40
1.0
 40
1.0
 40
1.0
 40
1.0
 40
1.0
 10
1131.1000000000026
 20
0.9526602705229552
 30
78.0
 10
1125.5499521547151
 20
0.9024427533646915
 30
78.0
 10
1119.9998648084984
 20
0.8565910652351144
 30
78.0
 10
1114.4497444240542
 20
0.8149595722978711
 30
78.0
 10
1108.8995964699593
 20
0.7774020262014
 30
78.0
  0
LINE
  5
B0
330
17
100
AcDbEntity
  8
0
100
AcDbLine
 10
1108.9
 20
26.75424545527991
 30
78.0
 11
1108.9
 21
0.7774047571854568
 31
78.0
  0
SPLINE
  5
B1
330
17
100
AcDbEntity
  8
0
100
AcDbSpline
 70
0
 71
4
 72
10
 73
5
 74
0
 40
0.0
 40
0.0
 40
0.0
 40
0.0
 40
0.0
 40
1.0
 40
1.0
 40
1.0
 40
1.0
 40
1.0
 10
1105.0999993996932
 20
26.768426495517843
 30
78.0
 10
1106.0500006834488
 20
26.764889209229572
 30
78.0
 10
1107.0000013222934
 20
26.761345580465584
 30
78.0
 10
1107.9500012999833
 20
26.757797146473358
 30
78.0
 10
1108.9000006003093
 20
26.754245444524535
 30
78.0
  0
LINE
  5
B2
330
17
100
AcDbEntity
  8
0
100
AcDbLine
 10
1105.1
 20
26.768426501376194
 30
78.0
 11
1105.1
 21
0.7524034911270935
 31
78.0
  0
SPLINE
  5
B3
330
17
100
AcDbEntity
  8
0
100
AcDbSpline
 70
0
 71
4
 72
10
 73
5
 74
0
 40
0.0
 40
0.0
 40
0.0
 40
0.0
 40
0.0
 40
1.0
 40
1.0
 40
1.0
 40
1.0
 40
1.0
 10
1105.1004035160338
 20
0.7524060702376023
 30
78.0
 10
1099.5502339537964
 20
0.7169272359943712
 30
78.0
 10
1094.0000386705594
 20
0.6854723625139852
 30
78.0
 10
1088.4498229686897
 20
0.6578954919663149
 30
78.0
 10
1082.8995912337036
 20
0.6340501167451748
 30
78.0
  0
LINE
  5
B4
330
17
100
AcDbEntity
  8
0
100
AcDbLine
 10
1082.9
 20
26.848561913623413
 30
78.0
 11
1082.9
 21
0.6340518731865902
 31
78.0
  0
SPLINE
  5
B5
330
17
100
AcDbEntity
  8
0
100
AcDbSpline
 70
0
 71
4
 72
10
 73
5
 74
0
 40
0.0
 40
0.0
 40
0.0
 40
0.0
 40
0.0
 40
1.0
 40
1.0
 40
1.0
 40
1.0
 40
1.0
 10
1079.0999993996784
 20
26.861484710763943
 30
78.0
 10
1080.0500003439515
 20
26.858293538336333
 30
78.0
 10
1081.0000008701718
 20
26.855074988699958
 30
78.0
 10
1081.9500009612589
 20
26.851830598972708
 30
78.0
 10
1082.9000006003187
 20
26.848561906311737
 30
78.0
  0
LINE
  5
B6
330
17
100
AcDbEntity
  8
0
100
AcDbLine
 10
1079.1
 20
26.86148470900231
 30
78.0
 11
1079.1
 21
0.6183788820392677
 31
78.0
  0
SPLINE
  5
B7
330
17
100
AcDbEntity
  8
0
100
AcDbSpline
 70
0
 71
4
 72
10
 73
5
 74
0
 40
0.0
 40
0.0
 40
0.0
 40
0.0
 40
0.0
 40
1.0
 40
1.0
 40
1.0
 40
1.0
 40
1.0
 10
1079.1000000000008
 20
0.6183788817808885
 30
78.0
 10
1073.549915603597
 20
0.5964372118476062
 30
78.0
 10
1067.9998166557361
 20
0.5781767361222876
 30
78.0
 10
1062.449707389812
 20
0.5634512277031499
 30
78.0
 10
1056.8995912011064
 20
0.5521139764832765
 30
78.0
  0
LINE
  5
B8
330
17
100
AcDbEntity
  8
0
100
AcDbLine
 10
1056.9
 20
26.92922480684573
 30
78.0
 11
1056.9
 21
0.5521148116777472
 31
78.0
  0
SPLINE
  5
B9
330
17
100
AcDbEntity
  8
0
100
AcDbSpline
 70
0
 71
4
 72
10
 73
5
 74
0
 40
0.0
 40
0.0
 40
0.0
 40
0.0
 40
0.0
 40
1.0
 40
1.0
 40
1.0
 40
1.0
 40
1.0
 10
1053.099999399673
 20
26.93916242783633
 30
78.0
 10
1054.049999977562
 20
26.936749101621647
 30
78.0
 10
1055.0000003828898
 20
26.93428736432377
 30
78.0
 10
1055.9500005966859
 20
26.931778753047197
 30
78.0
 10
1056.9000006003257
 20
26.929224804955776
 30
78.0
  0
LINE
  5
BA
330
17
100
AcDbEntity
  8
0
100
AcDbLine
 10
1053.1
 20
26.939162426741756
 30
78.0
 11
1053.1
 21
0.54494510940391
 31
78.0
  0
SPLINE
  5
BB
330
17
100
AcDbEntity
  8
0
100
AcDbSpline
 70
0
 71
4
 72
10
 73
5
 74
0
 40
0.0
 40
0.0
 40
0.0
 40
0.0
 40
0.0
 40
1.0
 40
1.0
 40
1.0
 40
1.0
 40
1.0
 10
1053.1000000000004
 20
0.5449451092720545
 30
78.0
 10
1047.5499048046981
 20
0.5353347725084808
 30
78.0
 10
1041.999803831083
 20
0.5290624952544946
 30
78.0
 10
1036.4497003369277
 20
0.5259818169669124
 30
78.0
 10
1030.8995968214044
 20
0.5259458678429483
 30
78.0
  0
LINE
  5
BC
330
17
100
AcDbEntity
  8
0
100
AcDbLine
 10
1030.9
 20
26.98441833014381
 30
78.0
 11
1030.9
 21
0.5259458705937619
 31
78.0
  0
SPLINE
  5
BD
330
17
100
AcDbEntity
  8
0
100
AcDbSpline
 70
0
 71
4
 72
10
 73
5
 74
0
 40
0.0
 40
0.0
 40
0.0
 40
0.0
 40
0.0
 40
1.0
 40
1.0
 40
1.0
 40
1.0
 40
1.0
 10
1027.0999993996743
 20
26.989643817401536
 30
78.0
 10
1028.0499995627165
 20
26.988440077272195
 30
78.0
 10
1028.9999998316919
 20
26.987166891037383
 30
78.0
 10
1029.9500001846998
 20
26.98582579589449
 30
78.0
 10
1030.9000006003262
 20
26.98441832911547
 30
78.0
  0
LINE
  5
BE
330
17
100
AcDbEntity
  8
0
100
AcDbLine
 10
1027.1
 20
26.98964381665867
 30
78.0
 11
1027.1
 21
0.5264534554174171
 31
78.0
  0
SPLINE
  5
BF
330
17
100
AcDbEntity
  8
0
100
AcDbSpline
 70
0
 71
4
 72
13
 73
8
 74
0
 40
0.0
 40
0.0
 40
0.0
 40
0.0
 40
0.0
 40
0.503003831891704
 40
0.503003831891704
 40
0.503003831891704
 40
1.0
 40
1.0
 40
1.0
 40
1.0
 40
1.0
 10
1027.1
 20
0.5264534552844079
 30
78.0
 10
1024.3083269846525
 20
0.5272152534416589
 30
78.0
 10
1021.5166541761286
 20
0.5287346669936446
 30
78.0
 10
1018.7249818774291
 20
0.5309930480517421
 30
78.0
 10
1013.1749813541703
 20
0.5369147850554048
 30
78.0
 10
1010.4166531116626
 20
0.5405613317686728
 30
78.0
 10
1007.6583258962162
 20
0.5449182252891517
 30
78.0
 10
1004.9000000000001
 20
0.5499922912199097
 30
78.0
  0
LINE
  5
C0
330
17
100
AcDbEntity
  8
0
100
AcDbLine
 10
1004.9
 20
27.0025846510589
 30
78.0
 11
1004.9
 21
0.5499922911558696
 31
78.0
  0
SPLINE
  5
C1
330
17
100
AcDbEntity
  8
0
100
AcDbSpline
 70
0
 71
4
 72
10
 73
5
 74
0
 40
0.0
 40
0.0
 40
0.0
 40
0.0
 40
0.0
 40
1.0
 40
1.0
 40
1.0
 40
1.0
 40
1.0
 10
1001.099999399677
 20
27.001737831819543
 30
78.0
 10
1002.0499991694155
 20
27.0020557980771
 30
78.0
 10
1002.9999993030123
 20
27.002303627900776
 30
78.0
 10
1003.9499997851916
 20
27.002480263949344
 30
78.0
 10
1004.9000006003203
 20
27.002584648982964
 30
78.0
  0
LINE
  5
C2
330
17
100
AcDbEntity
  8
0
100
AcDbLine
 10
1001.1
 20
27.001737835068454
 30
78.0
 11
1001.1
 21
0.5574941335822384
 31
78.0
  0
SPLINE
  5
C3
330
17
100
AcDbEntity
  8
0
100
AcDbSpline
 70
0
 71
4
 72
10
 73
5
 74
0
 40
0.0
 40
0.0
 40
0.0
 40
0.0
 40
0.0
 40
1.0
 40
1.0
 40
1.0
 40
1.0
 40
1.0
 10
1001.1
 20
0.5574941336466289
 30
78.0
 10
995.5499882602871
 20
0.5691995960657497
 30
78.0
 10
989.9999826848696
 20
0.5838277137419912
 30
78.0
 10
984.4499856996587
 20
0.6014345186902975
 30
78.0
 10
978.9000000000005
 20
0.6220758323282995
 30
78.0
  0
LINE
  5
C4
330
17
100
AcDbEntity
  8
0
100
AcDbLine
 10
978.9
 20
26.980787961716906
 30
78.0
 11
978.9
 21
0.6220758322590324
 31
78.0
  0
SPLINE
  5
C5
330
17
100
AcDbEntity
  8
0
100
AcDbSpline
 70
0
 71
4
 72
10
 73
5
 74
0
 40
0.0
 40
0.0
 40
0.0
 40
0.0
 40
0.0
 40
1.0
 40
1.0
 40
1.0
 40
1.0
 40
1.0
 10
975.0999993996879
 20
26.974689642568602
 30
78.0
 10
976.0499988765961
 20
26.97629878373448
 30
78.0
 10
976.9999989111274
 20
26.97785225565055
 30
78.0
 10
977.9499994901684
 20
26.979349000951895
 30
78.0
 10
978.9000006003095
 20
26.980787962354867
 30
78.0
  0
LINE
  5
C6
330
17
100
AcDbEntity
  8
0
100
AcDbLine
 10
975.1
 20
26.97468964358543
 30
78.0
 11
975.1
 21
0.6367432702202278
 31
78.0
  0
SPLINE
  5
C7
330
17
100
AcDbEntity
  8
0
100
AcDbSpline
 70
0
 71
4
 72
10
 73
5
 74
0
 40
0.0
 40
0.0
 40
0.0
 40
0.0
 40
0.0
 40
1.0
 40
1.0
 40
1.0
 40
1.0
 40
1.0
 10
975.1000000000003
 20
0.6367432702904505
 30
78.0
 10
969.5499788597134
 20
0.6589479866487006
 30
78.0
 10
963.9999699369312
 20
0.6842064065543253
 30
78.0
 10
958.4499759754791
 20
0.7125746051191029
 30
78.0
 10
952.9000000000018
 20
0.7441083973495188
 30
78.0
  0
LINE
  5
C8
330
17
100
AcDbEntity
  8
0
100
AcDbLine
 10
952.9
 20
26.926529476481846
 30
78.0
 11
952.9
 21
0.7441083970446111
 31
78.0
  0
SPLINE
  5
C9
330
17
100
AcDbEntity
  8
0
100
AcDbSpline
 70
0
 71
4
 72
10
 73
5
 74
0
 40
0.0
 40
0.0
 40
0.0
 40
0.0
 40
0.0
 40
1.0
 40
1.0
 40
1.0
 40
1.0
 40
1.0
 10
949.0999993997075
 20
26.916367424249653
 30
78.0
 10
950.0499986234003
 20
26.91897079693658
 30
78.0
 10
950.9999985724071
 20
26.92153296814846
 30
78.0
 10
951.9499992352653
 20
26.92405288046331
 30
78.0
 10
952.9000006002993
 20
26.926529476523037
 30
78.0
  0
LINE
  5
CA
330
17
100
AcDbEntity
  8
0
100
AcDbLine
 10
949.1
 20
26.916367428349822
 30
78.0
 11
949.1
 21
0.766256863674587
 31
78.0
  0
SPLINE
  5
CB
330
17
100
AcDbEntity
  8
0
100
AcDbSpline
 70
0
 71
4
 72
10
 73
5
 74
0
 40
0.0
 40
0.0
 40
0.0
 40
0.0
 40
0.0
 40
1.0
 40
1.0
 40
1.0
 40
1.0
 40
1.0
 10
949.100000000002
 20
0.7662568639812377
 30
78.0
 10
943.549867584445
 20
0.799422204265776
 30
78.0
 10
937.9997542009412
 20
0.8357724769748114
 30
78.0
 10
932.4496629253123
 20
0.875363759316551
 30
78.0
 10
926.8995971253959
 20
0.9182518271318854
 30
78.0
  0
LINE
  5
CC
330
17
100
AcDbEntity
  8
0
100
AcDbLine
 10
926.9
 20
26.847936191992233
 30
78.0
 11
926.9
 21
0.9182487136117214
 31
78.0
  0
SPLINE
  5
CD
330
17
100
AcDbEntity
  8
0
100
AcDbSpline
 70
0
 71
4
 72
10
 73
5
 74
0
 40
0.0
 40
0.0
 40
0.0
 40
0.0
 40
0.0
 40
1.0
 40
1.0
 40
1.0
 40
1.0
 40
1.0
 10
923.0999993997272
 20
26.83489823936029
 30
78.0
 10
924.0499983996295
 20
26.83819888230766
 30
78.0
 10
924.9999982732465
 20
26.841472792924776
 30
78.0
 10
925.9499990102772
 20
26.844718913689306
 30
78.0
 10
926.9000006002794
 20
26.847936187128862
 30
78.0
  0
LINE
  5
CE
330
17
100
AcDbEntity
  8
0
100
AcDbLine
 10
923.1
 20
26.834898248352633
 30
78.0
 11
923.1
 21
0.9481937759501434
 31
78.0
  0
SPLINE
  5
CF
330
17
100
AcDbEntity
  8
0
100
AcDbSpline
 70
0
 71
4
 72
10
 73
5
 74
0
 40
0.0
 40
0.0
 40
0.0
 40
0.0
 40
0.0
 40
0.9999751506206156
 40
0.9999751506206156
 40
0.9999751506206156
 40
0.9999751506206156
 40
0.9999751506206156
 10
923.1004028613877
 20
0.94819053993069
 30
78.0
 10
917.5502586902545
 20
0.992776881694872
 30
78.0
 10
912.0001411582114
 20
1.04067925063541
 30
78.0
 10
906.4500536867556
 20
1.0919536889204382
 30
78.0
 10
900.900000000003
 20
1.1466559043325146
 30
78.0
  0
LINE
  5
D0
330
17
100
AcDbEntity
  8
0
100
AcDbLine
 10
900.9
 20
26.75313578617915
 30
78.0
 11
900.9
 21
1.1466559039963569
 31
78.0
  0
SPLINE
  5
D1
330
17
100
AcDbEntity
  8
0
100
AcDbSpline
 70
0
 71
5
 72
12
 73
6
 74
0
 40
0.0
 40
0.0
 40
0.0
 40
0.0
 40
0.0
 40
0.0
 40
1.0
 40
1.0
 40
1.0
 40
1.0
 40
1.0
 40
1.0
 10
897.0999993997474
 20
26.73840992675459
 30
78.0
 10
897.9088202467193
 20
26.741560852971457
 30
78.0
 10
898.659472618627
 20
26.74447682789365
 30
78.0
 10
899.4395002622095
 20
26.747500845565796
 30
78.0
 10
900.2289152679145
 20
26.750549668621833
 30
78.0
 10
900.9000006002533
 20
26.75313578482977
 30
78.0
  0
LINE
  5
D2
330
17
100
AcDbEntity
  8
0
100
AcDbLine
 10
897.1
 20
26.738409931529674
 30
78.0
 11
897.1
 21
1.1847130956663394
 31
78.0
  0
SPLINE
  5
D3
330
17
100
AcDbEntity
  8
0
100
AcDbSpline
 70
0
 71
4
 72
10
 73
5
 74
0
 40
0.0
 40
0.0
 40
0.0
 40
0.0
 40
0.0
 40
1.0
 40
1.0
 40
1.0
 40
1.0
 40
1.0
 10
897.1000000000034
 20
1.1847130960055543
 30
78.0
 10
891.5498428821064
 20
1.2411817082318177
 30
78.0
 10
885.9997208356378
 20
1.3010973627030011
 30
78.0
 10
880.4496376411057
 20
1.3645160422431097
 30
78.0
 10
874.8995973922641
 20
1.4314933704805104
 30
78.0
  0
LINE
  5
D4
330
17
100
AcDbEntity
  8
0
100
AcDbLine
 10
874.9
 20
26.650257209986755
 30
78.0
 11
874.9
 21
1.43148851149845
 31
78.0
  0
SPLINE
  5
D5
330
17
100
AcDbEntity
  8
0
100
AcDbSpline
 70
0
 71
1
 72
4
 73
2
 74
0
 40
0.0
 40
0.0
 40
1.0
 40
1.0
 10
871.099999399778
 20
26.63503165835063
 30
78.0
 10
874.9000006002261
 20
26.650257211961755
 30
78.0
  0
LINE
  5
D6
330
17
100
AcDbEntity
  8
0
100
AcDbLine
 10
871.1
 20
26.635031660955207
 30
78.0
 11
871.1
 21
1.4779732238763346
 31
78.0
  0
SPLINE
  5
D7
330
17
100
AcDbEntity
  8
0
100
AcDbSpline
 70
0
 71
4
 72
10
 73
5
 74
0
 40
0.0
 40
0.0
 40
0.0
 40
0.0
 40
0.0
 40
1.0
 40
1.0
 40
1.0
 40
1.0
 40
1.0
 10
871.1000000000042
 20
1.4779732242400834
 30
78.0
 10
865.5499292286528
 20
1.5467833832395164
 30
78.0
 10
859.9999028158336
 20
1.6191713451736147
 30
78.0
 10
854.4499249141887
 20
1.695193015801173
 30
78.0
 10
848.9000000000057
 20
1.7749039251815462
 30
78.0
  0
LINE
  5
D8
330
17
100
AcDbEntity
  8
0
100
AcDbLine
 10
848.9
 20
26.547431217331905
 30
78.0
 11
848.9
 21
1.774903924791512
 31
78.0
  0
SPLINE
  5
D9
330
17
100
AcDbEntity
  8
0
100
AcDbSpline
 70
0
 71
5
 72
12
 73
6
 74
0
 40
0.0
 40
0.0
 40
0.0
 40
0.0
 40
0.0
 40
0.0
 40
1.0
 40
1.0
 40
1.0
 40
1.0
 40
1.0
 40
1.0
 10
845.09999939981
 20
26.532894496206733
 30
78.0
 10
845.9087537775049
 20
26.535967939243854
 30
78.0
 10
846.5484088661681
 20
26.538409827892806
 30
78.0
 10
847.3888988166075
 20
26.541617934665375
 30
78.0
 10
848.3533963673971
 20
26.545327026865884
 30
78.0
 10
848.9000006001978
 20
26.547431219555083
 30
78.0
  0
LINE
  5
DA
330
17
100
AcDbEntity
  8
0
100
AcDbLine
 10
845.1
 20
26.53289449874356
 30
78.0
 11
845.1
 21
1.8301313558626704
 31
78.0
  0
SPLINE
  5
DB
330
17
100
AcDbEntity
  8
0
100
AcDbSpline
 70
0
 71
4
 72
10
 73
5
 74
0
 40
0.0
 40
0.0
 40
0.0
 40
0.0
 40
0.0
 40
1.0
 40
1.0
 40
1.0
 40
1.0
 40
1.0
 10
845.1000000000057
 20
1.830131356257708
 30
78.0
 10
839.54981305949
 20
1.9117459882881604
 30
78.0
 10
833.9996806557202
 20
1.9970693047507773
 30
78.0
 10
828.4496073272087
 20
2.0861571353585573
 30
78.0
 10
822.8995979465564
 20
2.179064925655696
 30
78.0
  0
LINE
  5
DC
330
17
100
AcDbEntity
  8
0
100
AcDbLine
 10
822.9
 20
26.452790923910676
 30
78.0
 11
822.9
 21
2.179058194815908
 31
78.0
  0
SPLINE
  5
DD
330
17
100
AcDbEntity
  8
0
100
AcDbSpline
 70
0
 71
4
 72
10
 73
5
 74
0
 40
0.0
 40
0.0
 40
0.0
 40
0.0
 40
0.0
 40
1.0
 40
1.0
 40
1.0
 40
1.0
 40
1.0
 10
819.0999993998457
 20
26.44013195007374
 30
78.0
 10
820.0499975948718
 20
26.44325098943658
 30
78.0
 10
820.9999972003228
 20
26.446401203969803
 30
78.0
 10
821.9499982055771
 20
26.449581535240977
 30
78.0
 10
822.9000006001602
 20
26.452790924810266
 30
78.0
  0
LINE
  5
DE
330
17
100
AcDbEntity
  8
0
100
AcDbLine
 10
819.1
 20
26.44013195321662
 30
78.0
 11
819.1
 21
2.2433433550642774
 31
78.0
  0
SPLINE
  5
DF
330
17
100
AcDbEntity
  8
0
100
AcDbSpline
 70
0
 71
4
 72
10
 73
5
 74
0
 40
0.0
 40
0.0
 40
0.0
 40
0.0
 40
0.0
 40
1.0
 40
1.0
 40
1.0
 40
1.0
 40
1.0
 10
819.1000000000073
 20
2.243343355497361
 30
78.0
 10
813.5497961224085
 20
2.33822138890227
 30
78.0
 10
807.9996578775982
 20
2.4369387269898155
 30
78.0
 10
802.4495902031335
 20
2.539551124846026
 30
78.0
 10
796.8995983811843
 20
2.6461139532179385
 30
78.0
  0
LINE
  5
E0
330
17
100
AcDbEntity
  8
0
100
AcDbLine
 10
796.9
 20
26.37447236920623
 30
78.0
 11
796.9
 21
2.646106241458818
 31
78.0
  0
SPLINE
  5
E1
330
17
100
AcDbEntity
  8
0
100
AcDbSpline
 70
0
 71
4
 72
10
 73
5
 74
0
 40
0.0
 40
0.0
 40
0.0
 40
0.0
 40
0.0
 40
1.0
 40
1.0
 40
1.0
 40
1.0
 40
1.0
 10
793.0999993998789
 20
26.36488053553023
 30
78.0
 10
794.0499973652207
 20
26.367211056427372
 30
78.0
 10
794.9999968949696
 20
26.369587241522837
 30
78.0
 10
795.9499979771764
 20
26.372008032030273
 30
78.0
 10
796.9000006001204
 20
26.37447236914146
 30
78.0
  0
LINE
  5
E2
330
17
100
AcDbEntity
  8
0
100
AcDbLine
 10
793.1
 20
26.36488053758456
 30
78.0
 11
793.1
 21
2.719764016819987
 31
78.0
  0
SPLINE
  5
E3
330
17
100
AcDbEntity
  8
0
100
AcDbSpline
 70
0
 71
4
 72
10
 73
5
 74
0
 40
0.0
 40
0.0
 40
0.0
 40
0.0
 40
0.0
 40
1.0
 40
1.0
 40
1.0
 40
1.0
 40
1.0
 10
793.1004015447456
 20
2.719756160259461
 30
78.0
 10
787.5500789316184
 20
2.82835936231758
 30
78.0
 10
781.9998340014334
 20
2.9409325295537654
 30
78.0
 10
776.4496721047269
 20
3.0575313596464304
 30
78.0
 10
770.8995989474633
 20
3.1782111744354493
 30
78.0
  0
LINE
  5
E4
330
17
100
AcDbEntity
  8
0
100
AcDbLine
 10
770.9
 20
26.320615075996425
 30
78.0
 11
770.9
 21
3.1782024535127964
 31
78.0
  0
SPLINE
  5
E5
330
17
100
AcDbEntity
  8
0
100
AcDbSpline
 70
0
 71
4
 72
10
 73
5
 74
0
 40
0.0
 40
0.0
 40
0.0
 40
0.0
 40
0.0
 40
1.0
 40
1.0
 40
1.0
 40
1.0
 40
1.0
 10
767.09999939993
 20
26.315280332808324
 30
78.0
 10
768.0499971037498
 20
26.316524838343177
 30
78.0
 10
768.9999965475109
 20
26.317829503661287
 30
78.0
 10
769.9499977174497
 20
26.319193269585167
 30
78.0
 10
770.9000006000841
 20
26.320615076894534
 30
78.0
  0
LINE
  5
E6
330
17
100
AcDbEntity
  8
0
100
AcDbLine
 10
767.1
 20
26.315280333594423
 30
78.0
 11
767.1
 21
3.2615477266558974
 31
78.0
  0
SPLINE
  5
E7
330
17
100
AcDbEntity
  8
0
100
AcDbSpline
 70
0
 71
4
 72
10
 73
5
 74
0
 40
0.0
 40
0.0
 40
0.0
 40
0.0
 40
0.0
 40
1.0
 40
1.0
 40
1.0
 40
1.0
 40
1.0
 10
767.1000000000115
 20
3.261547727177428
 30
78.0
 10
761.5497579792267
 20
3.3843326461405163
 30
78.0
 10
755.9996066707539
 20
3.5112178605127164
 30
78.0
 10
750.4495518516369
 20
3.6422590289362646
 30
78.0
 10
744.8995996655465
 20
3.7775114523078557
 30
78.0
  0
LINE
  5
E8
330
17
100
AcDbEntity
  8
0
100
AcDbLine
 10
744.9
 20
26.29936261959105
 30
78.0
 11
744.9
 21
3.777501695603112
 31
78.0
  0
SPLINE
  5
E9
330
17
100
AcDbEntity
  8
0
100
AcDbSpline
 70
0
 71
4
 72
10
 73
5
 74
0
 40
0.0
 40
0.0
 40
0.0
 40
0.0
 40
0.0
 40
1.0
 40
1.0
 40
1.0
 40
1.0
 40
1.0
 10
741.099999399971
 20
26.299475546417526
 30
78.0
 10
742.0499968001851
 20
26.299336379120952
 30
78.0
 10
742.9999961442642
 20
26.299271874504537
 30
78.0
 10
743.949997416121
 20
26.299280972966933
 30
78.0
 10
744.9000006000294
 20
26.29936261484759
 30
78.0
  0
LINE
  5
EA
330
17
100
AcDbEntity
  8
0
100
AcDbLine
 10
741.1
 20
26.299475550204555
 30
78.0
 11
741.1
 21
3.870849528655399
 31
78.0
  0
SPLINE
  5
EB
330
17
100
AcDbEntity
  8
0
100
AcDbSpline
 70
0
 71
4
 72
10
 73
5
 74
0
 40
0.0
 40
0.0
 40
0.0
 40
0.0
 40
0.0
 40
1.0
 40
1.0
 40
1.0
 40
1.0
 40
1.0
 10
741.100000000014
 20
3.870849529216582
 30
78.0
 10
735.5497366810947
 20
4.008278262369605
 30
78.0
 10
729.9995781252687
 20
4.149937795760765
 30
78.0
 10
724.4495305511214
 20
4.295883787700224
 30
78.0
 10
718.8996005557616
 20
4.44617156767475
 30
78.0
  0
LINE
  5
EC
330
17
100
AcDbEntity
  8
0
100
AcDbLine
 10
718.9
 20
26.318863154245964
 30
78.0
 11
718.9
 21
4.446160751387975
 31
78.0
  0
SPLINE
  5
ED
330
17
100
AcDbEntity
  8
0
100
AcDbSpline
 70
0
 71
4
 72
10
 73
5
 74
0
 40
0.0
 40
0.0
 40
0.0
 40
0.0
 40
0.0
 40
1.0
 40
1.0
 40
1.0
 40
1.0
 40
1.0
 10
715.0999994000301
 20
26.325615065675088
 30
78.0
 10
716.0499964442865
 20
26.323794387139316
 30
78.0
 10
716.9999956715639
 20
26.322062882155397
 30
78.0
 10
717.9499970629531
 20
26.3204194906835
 30
78.0
 10
718.90000059998
 20
26.31886315260211
 30
78.0
  0
LINE
  5
EE
330
17
100
AcDbEntity
  8
0
100
AcDbLine
 10
715.1
 20
26.32561506533374
 30
78.0
 11
715.1
 21
4.5498266349716525
 31
78.0
  0
SPLINE
  5
EF
330
17
100
AcDbEntity
  8
0
100
AcDbSpline
 70
0
 71
4
 72
13
 73
8
 74
0
 40
0.0
 40
0.0
 40
0.0
 40
0.0
 40
0.0
 40
0.5379922432121447
 40
0.5379922432121447
 40
0.5379922432121447
 40
0.9999754948600575
 40
0.9999754948600575
 40
0.9999754948600575
 40
0.9999754948600575
 40
0.9999754948600575
 10
715.100399298485
 20
4.549815661893798
 30
78.0
 10
712.114315092499
 20
4.631879428269606
 30
78.0
 10
709.1282655822944
 20
4.715205605869676
 30
78.0
 10
706.1422518082
 20
4.799802898373665
 30
78.0
 10
700.5921647347917
 20
4.95942401152564
 30
78.0
 10
698.0280817694506
 20
5.034111766673225
 30
78.0
 10
695.4640266259212
 20
5.109748700953081
 30
78.0
 10
692.9000000000156
 20
5.186340245695762
 30
78.0
  0
LINE
  5
F0
330
17
100
AcDbEntity
  8
0
100
AcDbLine
 10
692.9
 20
26.38727003400075
 30
78.0
 11
692.9
 21
5.186340245169397
 31
78.0
  0
SPLINE
  5
F1
330
17
100
AcDbEntity
  8
0
100
AcDbSpline
 70
0
 71
4
 72
10
 73
5
 74
0
 40
0.0
 40
0.0
 40
0.0
 40
0.0
 40
0.0
 40
1.0
 40
1.0
 40
1.0
 40
1.0
 40
1.0
 10
689.099999400087
 20
26.401853026250826
 30
78.0
 10
690.0499960257531
 20
26.39805279675671
 30
78.0
 10
690.999995115684
 20
26.39435626021722
 30
78.0
 10
691.9499966476496
 20
26.390762356150063
 30
78.0
 10
692.900000599925
 20
26.387270023972672
 30
78.0
  0
LINE
  5
F2
330
17
100
AcDbEntity
  8
0
100
AcDbLine
 10
689.1
 20
26.4018530306867
 30
78.0
 11
689.1
 21
5.300640427851611
 31
78.0
  0
SPLINE
  5
F3
330
17
100
AcDbEntity
  8
0
100
AcDbSpline
 70
0
 71
4
 72
13
 73
8
 74
0
 40
0.0
 40
0.0
 40
0.0
 40
0.0
 40
0.0
 40
0.530005093304502
 40
0.530005093304502
 40
0.530005093304502
 40
1.0
 40
1.0
 40
1.0
 40
1.0
 40
1.0
 10
689.1003981856932
 20
5.300628368661592
 30
78.0
 10
686.1586526828899
 20
5.389724007258786
 30
78.0
 10
683.2169454036473
 20
5.480081614035917
 30
78.0
 10
680.2752774134361
 20
5.571709532442843
 30
78.0
 10
674.7250899854923
 20
5.7470031044080345
 30
78.0
 10
672.1165619205495
 20
5.830395624441249
 30
78.0
 10
669.508066087584
 20
5.914790142639208
 30
78.0
 10
666.8996029687764
 20
6.0001838058405506
 30
78.0
  0
LINE
  5
F4
330
17
100
AcDbEntity
  8
0
100
AcDbLine
 10
666.9
 20
26.512742519193857
 30
78.0
 11
666.9
 21
6.000170807627966
 31
78.0
  0
SPLINE
  5
F5
330
17
100
AcDbEntity
  8
0
100
AcDbSpline
 70
0
 71
4
 72
10
 73
5
 74
0
 40
0.0
 40
0.0
 40
0.0
 40
0.0
 40
0.0
 40
1.0
 40
1.0
 40
1.0
 40
1.0
 40
1.0
 10
663.0999994001472
 20
26.536349372835534
 30
78.0
 10
664.0499955342835
 20
26.530271330969384
 30
78.0
 10
664.9999944628869
 20
26.524311510411422
 30
78.0
 10
665.949996159907
 20
26.518468850261538
 30
78.0
 10
666.9000005998618
 20
26.512742289484372
 30
78.0
  0
LINE
  5
F6
330
17
100
AcDbEntity
  8
0
100
AcDbLine
 10
663.1
 20
26.53634969753878
 30
78.0
 11
663.1
 21
6.125367371205901
 31
78.0
  0
SPLINE
  5
F7
330
17
100
AcDbEntity
  8
0
100
AcDbSpline
 70
0
 71
4
 72
13
 73
8
 74
0
 40
0.0
 40
0.0
 40
0.0
 40
0.0
 40
0.0
 40
0.5002079016372217
 40
0.5002079016372217
 40
0.5002079016372217
 40
1.0
 40
1.0
 40
1.0
 40
1.0
 40
1.0
 10
663.100396793771
 20
6.125354215792591
 30
78.0
 10
660.324029166223
 20
6.21740646145451
 30
78.0
 10
657.5476990028498
 20
6.310588441781053
 30
78.0
 10
654.7714068945965
 20
6.404897127778644
 30
78.0
 10
649.2212077935764
 20
6.595684029811838
 30
78.0
 10
646.447300736596
 20
6.692160377184994
 30
78.0
 10
643.6734328857382
 20
6.789757086680203
 30
78.0
 10
640.8996048683296
 20
6.888472706514553
 30
78.0
  0
LINE
  5
F8
330
17
100
AcDbEntity
  8
0
100
AcDbLine
 10
640.9
 20
26.703445305301415
 30
78.0
 11
640.9
 21
6.888458643982929
 31
78.0
  0
SPLINE
  5
F9
330
17
100
AcDbEntity
  8
0
100
AcDbSpline
 70
0
 71
4
 72
10
 73
5
 74
0
 40
0.0
 40
0.0
 40
0.0
 40
0.0
 40
0.0
 40
1.0
 40
1.0
 40
1.0
 40
1.0
 40
1.0
 10
637.0999994002118
 20
26.737270423042023
 30
78.0
 10
638.0499949595578
 20
26.728616065298127
 30
78.0
 10
638.9999936994194
 20
26.720094466439477
 30
78.0
 10
639.9499955894065
 20
26.711704565185766
 30
78.0
 10
640.9000005997977
 20
26.70344530008682
 30
78.0
  0
LINE
  5
FA
330
17
100
AcDbEntity
  8
0
100
AcDbLine
 10
637.1
 20
26.737270535311225
 30
78.0
 11
637.1
 21
7.024482046430682
 31
78.0
  0
SPLINE
  5
FB
330
17
100
AcDbEntity
  8
0
100
AcDbSpline
 70
0
 71
4
 72
13
 73
8
 74
0
 40
0.0
 40
0.0
 40
0.0
 40
0.0
 40
0.0
 40
0.5004215018125883
 40
0.5004215018125883
 40
0.5004215018125883
 40
1.0
 40
1.0
 40
1.0
 40
1.0
 40
1.0
 10
637.1000000000175
 20
7.024482046921691
 30
78.0
 10
634.322487325918
 20
7.124480924962891
 30
78.0
 10
631.545015028256
 20
7.225600861280294
 30
78.0
 10
628.7675837496704
 20
7.327840797823259
 30
78.0
 10
623.2174833220203
 20
7.534385946960155
 30
78.0
 10
620.4448140326741
 20
7.6386873906143204
 30
78.0
 10
617.6721869579402
 20
7.744104531082809
 30
78.0
 10
614.8996027943753
 20
7.850637895929638
 30
78.0
  0
LINE
  5
FC
330
17
100
AcDbEntity
  8
0
100
AcDbLine
 10
614.9
 20
26.967551302795997
 30
78.0
 11
614.9
 21
7.8506226332848685
 31
78.0
  0
SPLINE
  5
FD
330
17
100
AcDbEntity
  8
0
100
AcDbSpline
 70
0
 71
4
 72
10
 73
5
 74
0
 40
0.0
 40
0.0
 40
0.0
 40
0.0
 40
0.0
 40
1.0
 40
1.0
 40
1.0
 40
1.0
 40
1.0
 10
611.0999994002809
 20
27.012789432648713
 30
78.0
 10
612.049994291239
 20
27.00125999301362
 30
78.0
 10
612.9999928114876
 20
26.989877859159964
 30
78.0
 10
613.9499949258179
 20
26.978641969487295
 30
78.0
 10
614.900000599747
 20
26.96755126219454
 30
78.0
  0
LINE
  5
FE
330
17
100
AcDbEntity
  8
0
100
AcDbLine
 10
611.1
 20
27.01278945497661
 30
78.0
 11
611.1
 21
7.997420712143192
 31
78.0
  0
SPLINE
  5
FF
330
17
100
AcDbEntity
  8
0
100
AcDbSpline
 70
0
 71
4
 72
13
 73
8
 74
0
 40
0.0
 40
0.0
 40
0.0
 40
0.0
 40
0.0
 40
0.5006588511121634
 40
0.5006588511121634
 40
0.5006588511121634
 40
1.0
 40
1.0
 40
1.0
 40
1.0
 40
1.0
 10
611.1000000000181
 20
7.997420712611729
 30
78.0
 10
608.3211605309538
 20
8.105346316534435
 30
78.0
 10
605.5423646542199
 20
8.214393726943213
 30
78.0
 10
602.7636130877922
 20
8.324563881671567
 30
78.0
 10
597.2135134630382
 20
8.54686021133392
 30
78.0
 10
594.4421651678914
 20
8.658980475752307
 30
78.0
 10
591.6708624519305
 20
8.772221081955836
 30
78.0
 10
588.8996061068377
 20
8.88658461445745
 30
78.0
  0
LINE
  5
100
330
17
100
AcDbEntity
  8
0
100
AcDbLine
 10
588.9
 20
27.31323985775647
 30
78.0
 11
588.9
 21
8.886568359036591
 31
78.0
  0
SPLINE
  5
101
330
17
100
AcDbEntity
  8
0
100
AcDbSpline
 70
0
 71
4
 72
10
 73
5
 74
0
 40
0.0
 40
0.0
 40
0.0
 40
0.0
 40
0.0
 40
1.0
 40
1.0
 40
1.0
 40
1.0
 40
1.0
 10
585.0999994003398
 20
27.371087162296128
 30
78.0
 10
586.0499935189388
 20
27.356383591811205
 30
78.0
 10
586.9999917852504
 20
27.341841883218898
 30
78.0
 10
587.9499941587362
 20
27.327460974692805
 30
78.0
 10
588.9000005996575
 20
27.313239804164958
 30
78.0
  0
LINE
  5
102
330
17
100
AcDbEntity
  8
0
100
AcDbLine
 10
585.1
 20
27.371087447122953
 30
78.0
 11
585.1
 21
9.044179275695877
 31
78.0
  0
SPLINE
  5
103
330
17
100
AcDbEntity
  8
0
100
AcDbSpline
 70
0
 71
4
 72
13
 73
8
 74
0
 40
0.0
 40
0.0
 40
0.0
 40
0.0
 40
0.0
 40
0.5009115913489339
 40
0.5009115913489339
 40
0.5009115913489339
 40
1.0
 40
1.0
 40
1.0
 40
1.0
 40
1.0
 10
585.1000000000131
 20
9.044179276008546
 30
78.0
 10
582.3197958738992
 20
9.160073542720124
 30
78.0
 10
579.5396389746077
 20
9.277099970024457
 30
78.0
 10
576.7595301227891
 20
9.395261593703253
 30
78.0
 10
571.2095289206644
 20
9.633428795781445
 30
78.0
 10
568.4396362150397
 20
9.753426098594213
 30
78.0
 10
565.6697929354583
 20
9.874558133705568
 30
78.0
 10
562.9000000000052
 20
9.996829703093244
 30
78.0
  0
LINE
  5
104
330
17
100
AcDbEntity
  8
0
100
AcDbLine
 10
562.9
 20
27.748698577560017
 30
78.0
 11
562.9
 21
9.99682970297356
 31
78.0
  0
SPLINE
  5
105
330
17
100
AcDbEntity
  8
0
100
AcDbSpline
 70
0
 71
4
 72
10
 73
5
 74
0
 40
0.0
 40
0.0
 40
0.0
 40
0.0
 40
0.0
 40
1.0
 40
1.0
 40
1.0
 40
1.0
 40
1.0
 10
559.0999994004308
 20
27.820352445745662
 30
78.0
 10
560.0499926323288
 20
27.802175392043285
 30
78.0
 10
560.9999906069227
 20
27.784174765240028
 30
78.0
 10
561.9499932778433
 20
27.766349503405287
 30
78.0
 10
562.9000005995929
 20
27.748698544320593
 30
78.0
  0
LINE
  5
106
330
17
100
AcDbEntity
  8
0
100
AcDbLine
 10
559.1
 20
27.820352457906683
 30
78.0
 11
559.1
 21
10.165386161638606
 31
78.0
  0
SPLINE
  5
107
330
17
100
AcDbEntity
  8
0
100
AcDbSpline
 70
0
 71
4
 72
13
 73
8
 74
0
 40
0.0
 40
0.0
 40
0.0
 40
0.0
 40
0.0
 40
0.5011674245390989
 40
0.5011674245390989
 40
0.5011674245390989
 40
1.0
 40
1.0
 40
1.0
 40
1.0
 40
1.0
 10
559.1000000000038
 20
10.165386161726838
 30
78.0
 10
556.3183629404609
 20
10.289362291352958
 30
78.0
 10
553.5367773039073
 20
10.414491249560976
 30
78.0
 10
550.7552440472172
 20
10.54077836030355
 30
78.0
 10
545.2052427550262
 20
10.79508769514673
 30
78.0
 10
542.4367742232956
 20
10.923099096573408
 30
78.0
 10
539.6683596101816
 20
11.052270392428957
 30
78.0
 10
536.9000000000032
 20
11.182608864334789
 30
78.0
  0
LINE
  5
108
330
17
100
AcDbEntity
  8
0
100
AcDbLine
 10
536.9
 20
28.282123674127302
 30
78.0
 11
536.9
 21
11.182608864267982
 31
78.0
  0
SPLINE
  5
109
330
17
100
AcDbEntity
  8
0
100
AcDbSpline
 70
0
 71
4
 72
10
 73
5
 74
0
 40
0.0
 40
0.0
 40
0.0
 40
0.0
 40
0.0
 40
1.0
 40
1.0
 40
1.0
 40
1.0
 40
1.0
 10
533.099999400494
 20
28.368782759817048
 30
78.0
 10
534.049991620961
 20
28.346832546627052
 30
78.0
 10
534.9999892625945
 20
28.32507333367671
 30
78.0
 10
535.9499922726936
 20
28.303504059086094
 30
78.0
 10
536.9000005994999
 20
28.282123660635264
 30
78.0
  0
LINE
  5
10A
330
17
100
AcDbEntity
  8
0
100
AcDbLine
 10
533.1
 20
28.368782745965053
 30
78.0
 11
533.1
 21
11.362346275751186
 31
78.0
  0
SPLINE
  5
10B
330
17
100
AcDbEntity
  8
0
100
AcDbSpline
 70
0
 71
4
 72
13
 73
8
 74
0
 40
0.0
 40
0.0
 40
0.0
 40
0.0
 40
0.0
 40
0.501441689837376
 40
0.501441689837376
 40
0.501441689837376
 40
1.0
 40
1.0
 40
1.0
 40
1.0
 40
1.0
 10
533.100000000002
 20
11.362346275791559
 30
78.0
 10
530.3168253291086
 20
11.494595732389282
 30
78.0
 10
527.5337070189619
 20
11.62803017308022
 30
78.0
 10
524.7506462056676
 20
11.762657509223995
 30
78.0
 10
519.200644782465
 20
12.033535018292515
 30
78.0
 10
516.4337034994926
 20
12.169771411017175
 30
78.0
 10
513.666821471062
 20
12.30720492304447
 30
78.0
 10
510.9000000000374
 20
12.445845707227038
 30
78.0
  0
LINE
  5
10C
330
17
100
AcDbEntity
  8
0
100
AcDbLine
 10
510.9
 20
28.921720478217157
 30
78.0
 11
510.9
 21
12.445845706475247
 31
78.0
  0
SPLINE
  5
10D
330
17
100
AcDbEntity
  8
0
100
AcDbSpline
 70
0
 71
4
 72
10
 73
5
 74
0
 40
0.0
 40
0.0
 40
0.0
 40
0.0
 40
0.0
 40
1.0
 40
1.0
 40
1.0
 40
1.0
 40
1.0
 10
507.0999994005975
 20
29.02458475658293
 30
78.0
 10
508.04999047576047
 20
28.99856148832648
 30
78.0
 10
508.9999877380235
 20
28.972743534813066
 30
78.0
 10
509.94999113306767
 20
28.947130297601785
 30
78.0
 10
510.90000059941536
 20
28.921720462184638
 30
78.0
  0
LINE
  5
10E
330
17
100
AcDbEntity
  8
0
100
AcDbLine
 10
507.1
 20
29.024584746081764
 30
78.0
 11
507.1
 21
12.637115187367598
 31
78.0
  0
SPLINE
  5
10F
330
17
100
AcDbEntity
  8
0
100
AcDbSpline
 70
0
 71
4
 72
13
 73
8
 74
0
 40
0.0
 40
0.0
 40
0.0
 40
0.0
 40
0.0
 40
0.5017473797915615
 40
0.5017473797915615
 40
0.5017473797915615
 40
1.0
 40
1.0
 40
1.0
 40
1.0
 40
1.0
 10
507.1000000000647
 20
12.637115188648142
 30
78.0
 10
504.31511017219856
 20
12.777919993491997
 30
78.0
 10
501.5302826212481
 20
12.919955220403752
 30
78.0
 10
498.74551871985466
 20
13.063231810898788
 30
78.0
 10
493.1955171187969
 20
13.351285670539443
 30
78.0
 10
490.43027851534134
 20
13.496045540350822
 30
78.0
 10
487.6651056116549
 20
13.642053821034088
 30
78.0
 10
484.90000000032876
 20
13.78932410380193
 30
78.0
  0
LINE
  5
110
330
17
100
AcDbEntity
  8
0
100
AcDbLine
 10
484.9
 20
29.675035601760904
 30
78.0
 11
484.9
 21
13.789324097631315
 31
78.0
  0
SPLINE
  5
111
330
17
100
AcDbEntity
  8
0
100
AcDbSpline
 70
0
 71
4
 72
10
 73
5
 74
0
 40
0.0
 40
0.0
 40
0.0
 40
0.0
 40
0.0
 40
1.0
 40
1.0
 40
1.0
 40
1.0
 40
1.0
 10
481.0999994006853
 20
29.794919516794796
 30
78.0
 10
482.0499893944344
 20
29.764634387209828
 30
78.0
 10
482.99998629444497
 20
29.734558898027405
 30
78.0
 10
483.9499900471611
 20
29.70469273145829
 30
78.0
 10
484.90000059932606
 20
29.675035569339503
 30
78.0
  0
LINE
  5
112
330
17
100
AcDbEntity
  8
0
100
AcDbLine
 10
481.1
 20
29.794919511845364
 30
78.0
 11
481.1
 21
13.99261178557875
 31
78.0
  0
SPLINE
  5
113
330
17
100
AcDbEntity
  8
0
100
AcDbSpline
 70
0
 71
4
 72
13
 73
8
 74
0
 40
0.0
 40
0.0
 40
0.0
 40
0.0
 40
0.0
 40
0.50208276338967
 40
0.50208276338967
 40
0.50208276338967
 40
1.0
 40
1.0
 40
1.0
 40
1.0
 40
1.0
 10
481.1000000000446
 20
13.992611786407883
 30
78.0
 10
478.31322604597904
 20
14.142355874787187
 30
78.0
 10
475.52652158009414
 20
14.29339162616911
 30
78.0
 10
472.7398882903307
 20
14.445733652102257
 30
78.0
 10
467.18988644075637
 20
14.751788041189927
 30
78.0
 10
464.42651667501684
 20
14.905478555234227
 30
78.0
 10
461.6632205340795
 20
15.060485830614683
 30
78.0
 10
458.90000000045063
 20
15.216827714782
 30
78.0
  0
LINE
  5
114
330
17
100
AcDbEntity
  8
0
100
AcDbLine
 10
458.9
 20
30.545879583054447
 30
78.0
 11
458.9
 21
15.216827706816908
 31
78.0
  0
SPLINE
  5
115
330
17
100
AcDbEntity
  8
0
100
AcDbSpline
 70
0
 71
4
 72
10
 73
5
 74
0
 40
0.0
 40
0.0
 40
0.0
 40
0.0
 40
0.0
 40
1.0
 40
1.0
 40
1.0
 40
1.0
 40
1.0
 10
455.0999994007805
 20
30.68315127891382
 30
78.0
 10
456.0499882713066
 20
30.64851258435408
 30
78.0
 10
456.99998479834306
 20
30.614087944312264
 30
78.0
 10
457.94998892613563
 20
30.579877041422492
 30
78.0
 10
458.9000005992334
 20
30.545879557927705
 30
78.0
  0
LINE
  5
116
330
17
100
AcDbEntity
  8
0
100
AcDbLine
 10
455.1
 20
30.68315126112414
 30
78.0
 11
455.1
 21
15.432782710569677
 31
78.0
  0
SPLINE
  5
117
330
17
100
AcDbEntity
  8
0
100
AcDbSpline
 70
0
 71
4
 72
13
 73
8
 74
0
 40
0.0
 40
0.0
 40
0.0
 40
0.0
 40
0.0
 40
0.5024658628282141
 40
0.5024658628282141
 40
0.5024658628282141
 40
1.0
 40
1.0
 40
1.0
 40
1.0
 40
1.0
 10
455.1000000005048
 20
15.432782719413053
 30
78.0
 10
452.3110714644136
 20
15.59197959414091
 30
78.0
 10
449.5222213716554
 20
15.752548920078372
 30
78.0
 10
446.73345183751314
 20
15.914509904568774
 30
78.0
 10
441.18344964880407
 20
16.239654537541185
 30
78.0
 10
438.4222153761323
 20
16.40281059164982
 30
78.0
 10
435.661064654077
 20
16.567373030926024
 30
78.0
 10
432.90000000054636
 20
16.733365146881127
 30
78.0
  0
LINE
  5
118
330
17
100
AcDbEntity
  8
0
100
AcDbLine
 10
432.9
 20
31.536766095480175
 30
78.0
 11
432.9
 21
16.73336513779278
 31
78.0
  0
SPLINE
  5
119
330
17
100
AcDbEntity
  8
0
100
AcDbSpline
 70
0
 71
4
 72
10
 73
5
 74
0
 40
0.0
 40
0.0
 40
0.0
 40
0.0
 40
0.0
 40
1.0
 40
1.0
 40
1.0
 40
1.0
 40
1.0
 10
429.0999994008814
 20
31.691793277014185
 30
78.0
 10
430.0499871018803
 20
31.652709086103272
 30
78.0
 10
430.9999832405349
 20
31.613843366158402
 30
78.0
 10
431.94998775884903
 20
31.575195800301223
 30
78.0
 10
432.9000005991345
 20
31.536766071244102
 30
78.0
  0
LINE
  5
11A
330
17
100
AcDbEntity
  8
0
100
AcDbLine
 10
429.1
 20
31.691793252365382
 30
78.0
 11
429.1
 21
16.962840014246183
 31
78.0
  0
SPLINE
  5
11B
330
17
100
AcDbEntity
  8
0
100
AcDbSpline
 70
0
 71
4
 72
13
 73
8
 74
0
 40
0.0
 40
0.0
 40
0.0
 40
0.0
 40
0.0
 40
0.5028999637692051
 40
0.5028999637692051
 40
0.5028999637692051
 40
1.0
 40
1.0
 40
1.0
 40
1.0
 40
1.0
 10
429.10000000058574
 20
16.96284002390155
 30
78.0
 10
426.30862606413876
 20
17.132160324656088
 30
78.0
 10
423.5173419137244
 20
17.302958743974468
 30
78.0
 10
420.7261502565444
 20
17.475260438995882
 30
78.0
 10
415.17614758586967
 20
17.820921846688712
 30
78.0
 10
412.4173343838006
 20
17.99424645269112
 30
78.0
 10
409.65861743121303
 20
18.16909461960978
 30
78.0
 10
406.9000000006994
 20
18.345496845301913
 30
78.0
  0
LINE
  5
11C
330
17
100
AcDbEntity
  8
0
100
AcDbLine
 10
406.9
 20
32.65021379511336
 30
78.0
 11
406.9
 21
18.345496834364955
 31
78.0
  0
SPLINE
  5
11D
330
17
100
AcDbEntity
  8
0
100
AcDbSpline
 70
0
 71
4
 72
10
 73
5
 74
0
 40
0.0
 40
0.0
 40
0.0
 40
0.0
 40
0.0
 40
1.0
 40
1.0
 40
1.0
 40
1.0
 40
1.0
 10
403.09999940098106
 20
32.82336511395952
 30
78.0
 10
404.04998588515525
 20
32.77974325975855
 30
78.0
 10
404.99998161969046
 20
32.73634429498958
 30
78.0
 10
405.94998654430344
 20
32.69316790332996
 30
78.0
 10
406.9000005990292
 20
32.65021376802873
 30
78.0
  0
LINE
  5
11E
330
17
100
AcDbEntity
  8
0
100
AcDbLine
 10
403.1
 20
32.82336508929138
 30
78.0
 11
403.1
 21
18.589606706574422
 31
78.0
  0
SPLINE
  5
11F
330
17
100
AcDbEntity
  8
0
100
AcDbSpline
 70
0
 71
4
 72
13
 73
8
 74
0
 40
0.0
 40
0.0
 40
0.0
 40
0.0
 40
0.0
 40
0.5034162316201013
 40
0.5034162316201013
 40
0.5034162316201013
 40
1.0
 40
1.0
 40
1.0
 40
1.0
 40
1.0
 10
403.10000000069374
 20
18.589606717325815
 30
78.0
 10
400.30567102395736
 20
18.76993695206574
 30
78.0
 10
397.5114465416057
 20
18.951883956644295
 30
78.0
 10
394.7173301042964
 20
19.135480869834353
 30
78.0
 10
389.16724211530084
 20
19.50353435050461
 30
78.0
 10
386.41126754565437
 20
19.687945451831624
 30
78.0
 10
383.6554058696498
 20
19.874034125883984
 30
78.0
 10
380.8996614585136
 20
20.061840765779205
 30
78.0
  0
LINE
  5
120
330
17
100
AcDbEntity
  8
0
100
AcDbLine
 10
380.9
 20
33.888747893708285
 30
78.0
 11
380.9
 21
20.061817686624295
 31
78.0
  0
SPLINE
  5
121
330
17
100
AcDbEntity
  8
0
100
AcDbSpline
 70
0
 71
4
 72
10
 73
5
 74
0
 40
0.0
 40
0.0
 40
0.0
 40
0.0
 40
0.0
 40
1.0
 40
1.0
 40
1.0
 40
1.0
 40
1.0
 10
377.09999940108986
 20
34.080392975052106
 30
78.0
 10
378.0499846201486
 20
34.03214104727706
 30
78.0
 10
378.99997993449267
 20
33.98411642907363
 30
78.0
 10
379.9499852815126
 20
33.93631880474682
 30
78.0
 10
380.90000059892066
 20
33.88874785815383
 30
78.0
  0
LINE
  5
122
330
17
100
AcDbEntity
  8
0
100
AcDbLine
 10
377.1
 20
34.080392950373664
 30
78.0
 11
377.1
 21
20.32202869868991
 31
78.0
  0
SPLINE
  5
123
330
17
100
AcDbEntity
  8
0
100
AcDbSpline
 70
0
 71
7
 72
22
 73
14
 74
0
 40
0.0
 40
0.0
 40
0.0
 40
0.0
 40
0.0
 40
0.0
 40
0.0
 40
0.0
 40
0.5040474141695748
 40
0.5040474141695748
 40
0.5040474141695748
 40
0.5040474141695748
 40
0.5040474141695748
 40
0.5040474141695748
 40
1.0
 40
1.0
 40
1.0
 40
1.0
 40
1.0
 40
1.0
 40
1.0
 40
1.0
 10
377.10000000044994
 20
20.32202870522915
 30
78.0
 10
375.5012270826
 20
20.432030790398525
 30
78.0
 10
373.9024896162545
 20
20.54254730094753
 30
78.0
 10
372.3037881493565
 20
20.653583295316743
 30
78.0
 10
370.70512324992154
 20
20.765144002629388
 30
78.0
 10
369.10649550603847
 20
20.87723482269128
 30
78.0
 10
367.50790552586864
 20
20.989861325990912
 30
78.0
 10
364.3364745388532
 20
21.214379743360244
 30
78.0
 10
362.76363226910297
 20
21.326253944288403
 30
78.0
 10
361.1908279669685
 20
21.43866051264353
 30
78.0
 10
359.6180615570691
 20
21.55159553428453
 30
78.0
 10
358.04533487758926
 20
21.665081213123234
 30
78.0
 10
356.47264751597515
 20
21.77910894071618
 30
78.0
 10
354.90000000016437
 20
21.89368262430303
 30
78.0
  0
LINE
  5
124
330
17
100
AcDbEntity
  8
0
100
AcDbLine
 10
354.9
 20
35.254900350352564
 30
78.0
 11
354.9
 21
21.89368262204849
 31
78.0
  0
SPLINE
  5
125
330
17
100
AcDbEntity
  8
0
100
AcDbSpline
 70
0
 71
4
 72
10
 73
5
 74
0
 40
0.0
 40
0.0
 40
0.0
 40
0.0
 40
0.0
 40
1.0
 40
1.0
 40
1.0
 40
1.0
 40
1.0
 10
351.09999940117257
 20
35.46540984300769
 30
78.0
 10
352.049983305845
 20
35.412435180197924
 30
78.0
 10
352.9999781836053
 20
35.35969224839887
 30
78.0
 10
353.9499839694764
 20
35.30718073261916
 30
78.0
 10
354.90000059880686
 20
35.25490031739959
 30
78.0
  0
LINE
  5
126
330
17
100
AcDbEntity
  8
0
100
AcDbLine
 10
351.1
 20
35.465409809614826
 30
78.0
 11
351.1
 21
22.17190325719178
 31
78.0
  0
SPLINE
  5
127
330
17
100
AcDbEntity
  8
0
100
AcDbSpline
 70
0
 71
4
 72
13
 73
8
 74
0
 40
0.0
 40
0.0
 40
0.0
 40
0.0
 40
0.0
 40
0.5045071814880956
 40
0.5045071814880956
 40
0.5045071814880956
 40
1.0
 40
1.0
 40
1.0
 40
1.0
 40
1.0
 10
351.10000000010257
 20
22.171903258584322
 30
78.0
 10
348.29953631562967
 20
22.37795731504981
 30
78.0
 10
345.4992191766498
 20
22.585999677926246
 30
78.0
 10
342.6990518475975
 20
22.796045665094997
 30
78.0
 10
337.1490533352341
 20
23.216387580715462
 30
78.0
 10
334.3992167255247
 20
23.426611987194534
 30
78.0
 10
331.64953115145147
 20
23.638799558949355
 30
78.0
 10
328.8999999998465
 20
23.85296604999512
 30
78.0
  0
LINE
  5
128
330
17
100
AcDbEntity
  8
0
100
AcDbLine
 10
328.9
 20
36.751210139567846
 30
78.0
 11
328.9
 21
23.85296605196516
 31
78.0
  0
SPLINE
  5
129
330
17
100
AcDbEntity
  8
0
100
AcDbSpline
 70
0
 71
4
 72
10
 73
5
 74
0
 40
0.0
 40
0.0
 40
0.0
 40
0.0
 40
0.0
 40
1.0
 40
1.0
 40
1.0
 40
1.0
 40
1.0
 10
325.09999940132946
 20
36.98095571429087
 30
78.0
 10
326.0499819413428
 20
36.92316539592949
 30
78.0
 10
326.9999763657804
 20
36.86561123091253
 30
78.0
 10
327.9499826072571
 20
36.80829290503254
 30
78.0
 10
328.90000059871693
 20
36.75121010359334
 30
78.0
  0
LINE
  5
12A
330
17
100
AcDbEntity
  8
0
100
AcDbLine
 10
325.1
 20
36.980955677871926
 30
78.0
 11
325.1
 21
24.150384534207554
 31
78.0
  0
SPLINE
  5
12B
330
17
100
AcDbEntity
  8
0
100
AcDbSpline
 70
0
 71
4
 72
13
 73
8
 74
0
 40
0.0
 40
0.0
 40
0.0
 40
0.0
 40
0.0
 40
0.5049207299449944
 40
0.5049207299449944
 40
0.5049207299449944
 40
1.0
 40
1.0
 40
1.0
 40
1.0
 40
1.0
 10
325.0999999998858
 20
24.150384532754885
 30
78.0
 10
322.2971911675547
 20
24.370810779202937
 30
78.0
 10
319.49454527821183
 20
24.5933050883824
 30
78.0
 10
316.6920659926191
 20
24.817884580706842
 30
78.0
 10
311.1420683911875
 20
25.266831363812916
 30
78.0
 10
308.3945434960509
 20
25.49111747460964
 30
78.0
 10
305.64718609585617
 20
25.717442379567178
 30
78.0
 10
302.89999999981495
 20
25.9458237605155
 30
78.0
  0
LINE
  5
12C
330
17
100
AcDbEntity
  8
0
100
AcDbLine
 10
302.9
 20
38.380223421903644
 30
78.0
 11
302.9
 21
25.945823762742084
 31
78.0
  0
SPLINE
  5
12D
330
17
100
AcDbEntity
  8
0
100
AcDbSpline
 70
0
 71
4
 72
10
 73
5
 74
0
 40
0.0
 40
0.0
 40
0.0
 40
0.0
 40
0.0
 40
1.0
 40
1.0
 40
1.0
 40
1.0
 40
1.0
 10
299.0999994014315
 20
38.629577816906874
 30
78.0
 10
300.0499805255454
 20
38.56687865548593
 30
78.0
 10
300.99997447960476
 20
38.504420070202
 30
78.0
 10
301.94998119377885
 20
38.44220174771568
 30
78.0
 10
302.90000059856476
 20
38.38022337417774
 30
78.0
  0
LINE
  5
12E
330
17
100
AcDbEntity
  8
0
100
AcDbLine
 10
299.1
 20
38.62957778573294
 30
78.0
 11
299.1
 21
26.263217441332266
 31
78.0
  0
SPLINE
  5
12F
330
17
100
AcDbEntity
  8
0
100
AcDbSpline
 70
0
 71
4
 72
13
 73
8
 74
0
 40
0.0
 40
0.0
 40
0.0
 40
0.0
 40
0.0
 40
0.6131685886203374
 40
0.6131685886203374
 40
0.6131685886203374
 40
1.0
 40
1.0
 40
1.0
 40
1.0
 40
1.0
 10
299.09999999981545
 20
26.263217439133026
 30
78.0
 10
295.6962407016257
 20
26.54885167737879
 30
78.0
 10
292.2927485036319
 20
26.837662307624864
 30
78.0
 10
288.88953080229066
 20
27.1296837938695
 30
78.0
 10
283.33977602290656
 20
27.611230000454125
 30
78.0
 10
281.1930689425949
 20
27.79879971277523
 30
77.99999999999997
 10
279.04647624516934
 20
27.987671202105133
 30
77.99999999999996
 10
276.89999999998986
 20
28.17785404370739
 30
77.99999999999994
  0
LINE
  5
130
330
17
100
AcDbEntity
  8
0
100
AcDbLine
 10
276.9
 20
40.14449374740856
 30
78.0
 11
276.9
 21
28.177854043820552
 31
78.0
  0
SPLINE
  5
131
330
17
100
AcDbEntity
  8
0
100
AcDbSpline
 70
0
 71
4
 72
10
 73
5
 74
0
 40
0.0
 40
0.0
 40
0.0
 40
0.0
 40
0.0
 40
1.0
 40
1.0
 40
1.0
 40
1.0
 40
1.0
 10
273.09999940158264
 20
40.41383082962504
 30
78.0
 10
274.0499790575846
 20
40.34612936265889
 30
78.0
 10
274.99997252388715
 20
40.278672894613564
 30
78.0
 10
275.94997972817356
 20
40.21146111310643
 30
78.0
 10
276.90000059845795
 20
40.14449370522297
 30
78.0
  0
LINE
  5
132
330
17
100
AcDbEntity
  8
0
100
AcDbLine
 10
273.1
 20
40.413830786978096
 30
78.0
 11
273.1
 21
28.51609991715112
 31
78.0
  0
SPLINE
  5
133
330
17
100
AcDbEntity
  8
0
100
AcDbSpline
 70
0
 71
4
 72
19
 73
14
 74
0
 40
0.0
 40
0.0
 40
0.0
 40
0.0
 40
0.0
 40
0.2545165784037198
 40
0.2545165784037198
 40
0.2545165784037198
 40
0.506029878533444
 40
0.506029878533444
 40
0.506029878533444
 40
0.7545281727643015
 40
0.7545281727643015
 40
0.7545281727643015
 40
1.0
 40
1.0
 40
1.0
 40
1.0
 40
1.0
 10
273.10000000001895
 20
28.516099917362858
 30
78.0
 10
271.68712123194103
 20
28.642443391379427
 30
78.0
 10
270.2742937301182
 20
28.76935884403364
 30
78.0
 10
268.8615181016412
 20
28.89684911547807
 30
78.0
 10
266.0527418690208
 20
29.151473833146603
 30
78.0
 10
264.65674003381923
 20
29.278594732122325
 30
78.0
 10
263.26079006206425
 20
29.406282555262695
 30
78.0
 10
260.48572835091403
 20
29.661260312687155
 30
78.0
 10
259.10661536083234
 20
29.788536668160127
 30
78.0
 10
257.72755420013164
 20
29.91637201292947
 30
78.0
 10
254.98633175150263
 20
30.171602642456335
 30
78.0
 10
253.62416919338474
 20
30.298984319973602
 30
78.0
 10
252.26205840648774
 20
30.42691701249651
 30
78.0
 10
250.90000000005153
 20
30.555403525861937
 30
78.0
  0
LINE
  5
134
330
17
100
AcDbEntity
  8
0
100
AcDbLine
 10
250.9
 20
42.0465823577984
 30
78.0
 11
250.9
 21
30.555403525316994
 31
78.0
  0
SPLINE
  5
135
330
17
100
AcDbEntity
  8
0
100
AcDbSpline
 70
0
 71
4
 72
10
 73
5
 74
0
 40
0.0
 40
0.0
 40
0.0
 40
0.0
 40
0.0
 40
1.0
 40
1.0
 40
1.0
 40
1.0
 40
1.0
 10
247.09999940171707
 20
42.3362771027869
 30
78.0
 10
248.04997753642238
 20
42.26347958476941
 30
78.0
 10
248.9999704972596
 20
42.190931487948035
 30
78.0
 10
249.94997820938877
 20
42.11863250098996
 30
78.0
 10
250.90000059830322
 20
42.04658231200749
 30
78.0
  0
LINE
  5
136
330
17
100
AcDbEntity
  8
0
100
AcDbLine
 10
247.1
 20
42.336277056940034
 30
78.0
 11
247.1
 21
30.915502496254735
 31
78.0
  0
SPLINE
  5
137
330
17
100
AcDbEntity
  8
0
100
AcDbSpline
 70
0
 71
4
 72
19
 73
14
 74
0
 40
0.0
 40
0.0
 40
0.0
 40
0.0
 40
0.0
 40
0.255092885657517
 40
0.255092885657517
 40
0.255092885657517
 40
0.5067977346016447
 40
0.5067977346016447
 40
0.5067977346016447
 40
0.755103370001191
 40
0.755103370001191
 40
0.755103370001191
 40
1.0
 40
1.0
 40
1.0
 40
1.0
 40
1.0
 10
247.10000000002023
 20
30.915502496467504
 30
78.0
 10
245.6838847901609
 20
31.05030852756833
 30
78.0
 10
244.2678271447759
 20
31.185717641812385
 30
78.0
 10
242.85182777127733
 20
31.32173313927448
 30
78.0
 10
240.0387529467374
 20
31.59316900768964
 30
78.0
 10
238.64167593944367
 20
31.728573295195478
 30
78.0
 10
237.24465707370783
 20
31.864574478642158
 30
78.0
 10
234.46960268279994
 20
32.135932579239515
 30
78.0
 10
233.09156557849337
 20
32.271273393586895
 30
78.0
 10
231.7135864557502
 20
32.40720157831537
 30
78.0
 10
228.97666317830593
 20
32.67836508131124
 30
78.00000000000001
 10
227.61771742234785
 20
32.81358428640165
 30
78.0
 10
226.25882945897877
 20
32.949381304676834
 30
78.0
 10
224.899999999815
 20
33.08575941668807
 30
78.0
  0
LINE
  5
138
330
17
100
AcDbEntity
  8
0
100
AcDbLine
 10
224.9
 20
44.08905834771028
 30
78.0
 11
224.9
 21
33.08575941853208
 31
78.0
  0
SPLINE
  5
139
330
17
100
AcDbEntity
  8
0
100
AcDbSpline
 70
0
 71
4
 72
10
 73
5
 74
0
 40
0.0
 40
0.0
 40
0.0
 40
0.0
 40
0.0
 40
1.0
 40
1.0
 40
1.0
 40
1.0
 40
1.0
 10
221.09999940184252
 20
44.3994868806616
 30
78.0
 10
222.04997596112293
 20
44.32149927496315
 30
78.0
 10
222.9999683984805
 20
44.24376551169529
 30
78.0
 10
223.9499766365157
 20
44.16628528067218
 30
78.0
 10
224.90000059816458
 20
44.08905827112962
 30
78.0
  0
LINE
  5
13A
330
17
100
AcDbEntity
  8
0
100
AcDbLine
 10
221.1
 20
44.39948683889175
 30
78.0
 11
221.1
 21
33.468870442842324
 31
78.0
  0
SPLINE
  5
13B
330
17
100
AcDbEntity
  8
0
100
AcDbSpline
 70
0
 71
4
 72
19
 73
14
 74
0
 40
0.0
 40
0.0
 40
0.0
 40
0.0
 40
0.0
 40
0.2558385867277233
 40
0.2558385867277233
 40
0.2558385867277233
 40
0.5077913537760025
 40
0.5077913537760025
 40
0.5077913537760025
 40
0.75584769679699
 40
0.75584769679699
 40
0.75584769679699
 40
1.0
 40
1.0
 40
1.0
 40
1.0
 40
1.0
 10
221.09999999993786
 20
33.468870442228216
 30
78.0
 10
219.67970130645475
 20
33.61271012837636
 30
78.0
 10
218.2594676493645
 20
33.757189924452256
 30
78.0
 10
216.83929986597056
 20
33.90231371069349
 30
78.0
 10
214.02066705938367
 20
34.19164309408015
 30
78.0
 10
212.62220002510162
 20
34.33582916564023
 30
78.0
 10
211.2237985406634
 20
34.48064744718208
 30
78.0
 10
208.44875349790127
 20
34.76930688631854
 30
78.0
 10
207.07210790156995
 20
34.91312852020551
 30
78.0
 10
205.69552749393753
 20
35.057570554250205
 30
78.0
 10
202.96416305842394
 20
35.34542012630477
 30
78.0
 10
201.6093769676801
 20
35.48880816281679
 30
77.99999999999997
 10
200.25465566837022
 20
35.63280476970224
 30
77.99999999999996
 10
198.9000000017234
 20
35.777413801182846
 30
77.99999999999994
  0
LINE
  5
13C
330
17
100
AcDbEntity
  8
0
100
AcDbLine
 10
198.9
 20
46.27449879622519
 30
78.0
 11
198.9
 21
35.777413785037915
 31
78.0
  0
SPLINE
  5
13D
330
17
100
AcDbEntity
  8
0
100
AcDbSpline
 70
0
 71
4
 72
10
 73
5
 74
0
 40
0.0
 40
0.0
 40
0.0
 40
0.0
 40
0.0
 40
1.0
 40
1.0
 40
1.0
 40
1.0
 40
1.0
 10
195.09999940198776
 20
46.606038525461926
 30
78.0
 10
196.0499743307538
 20
46.522766496169965
 30
78.0
 10
196.9999662262887
 20
46.439752728936476
 30
78.0
 10
197.94997500859537
 20
46.3569969148246
 30
78.0
 10
198.9000005980215
 20
46.2744987442943
 30
78.0
  0
LINE
  5
13E
330
17
100
AcDbEntity
  8
0
100
AcDbLine
 10
195.1
 20
46.606038473041906
 30
78.0
 11
195.1
 21
36.18489609603536
 31
78.0
  0
SPLINE
  5
13F
330
17
100
AcDbEntity
  8
0
100
AcDbSpline
 70
0
 71
4
 72
19
 73
14
 74
0
 40
0.0
 40
0.0
 40
0.0
 40
0.0
 40
0.0
 40
0.2568439030136819
 40
0.2568439030136819
 40
0.2568439030136819
 40
0.5091326446288629
 40
0.5091326446288629
 40
0.5091326446288629
 40
0.7568562242040953
 40
0.7568562242040953
 40
0.7568562242040953
 40
1.0
 40
1.0
 40
1.0
 40
1.0
 40
1.0
 10
195.10000000152783
 20
36.18489611021956
 30
78.0
 10
193.67406768023787
 20
36.33849216191468
 30
78.0
 10
192.24820942778075
 20
36.492773052121784
 30
78.0
 10
190.8224262618425
 20
36.64774348062204
 30
78.0
 10
187.99629732642887
 20
36.95631239502807
 30
78.0
 10
186.5959488806679
 20
37.10988647442101
 30
78.0
 10
185.19567490821473
 20
37.264135169306385
 30
78.0
 10
182.42061458908054
 20
37.571188051915705
 30
78.0
 10
181.04582553404515
 20
37.72396787320166
 30
78.0
 10
179.67111029131297
 20
37.877407370343484
 30
78.0
 10
176.94724325924224
 20
38.18276632240303
 30
78.0
 10
175.59808872730102
 20
38.334661431251554
 30
78.00000000000003
 10
174.2490072969103
 20
38.4872012394706
 30
78.00000000000004
 10
172.8999999992578
 20
38.64039048758651
 30
78.00000000000006
  0
LINE
  5
140
330
17
100
AcDbEntity
  8
0
100
AcDbLine
 10
172.9
 20
48.60548927924073
 30
78.0
 11
172.9
 21
38.64039049412318
 31
78.0
  0
SPLINE
  5
141
330
17
100
AcDbEntity
  8
0
100
AcDbSpline
 70
0
 71
4
 72
10
 73
5
 74
0
 40
0.0
 40
0.0
 40
0.0
 40
0.0
 40
0.0
 40
1.0
 40
1.0
 40
1.0
 40
1.0
 40
1.0
 10
169.0999994021489
 20
48.95851874306065
 30
78.0
 10
170.04997264437682
 20
48.86986764675452
 30
78.0
 10
170.9999639794347
 20
48.78147922992911
 30
78.0
 10
171.94997332469708
 20
48.693353185002536
 30
78.0
 10
172.90000059788525
 20
48.60548920376468
 30
78.0
  0
LINE
  5
142
330
17
100
AcDbEntity
  8
0
100
AcDbLine
 10
169.1
 20
48.958518937509034
 30
78.0
 11
169.1
 21
39.073871851154074
 31
78.0
  0
SPLINE
  5
143
330
17
100
AcDbEntity
  8
0
100
AcDbSpline
 70
0
 71
4
 72
19
 73
14
 74
0
 40
0.0
 40
0.0
 40
0.0
 40
0.0
 40
0.0
 40
0.2582543640686193
 40
0.2582543640686193
 40
0.2582543640686193
 40
0.5110185431798913
 40
0.5110185431798913
 40
0.5110185431798913
 40
0.7582702472259002
 40
0.7582702472259002
 40
0.7582702472259002
 40
1.0
 40
1.0
 40
1.0
 40
1.0
 40
1.0
 10
169.09999999989526
 20
39.073871850239826
 30
78.0
 10
167.66617157296062
 20
39.23817849011066
 30
78.0
 10
166.232428591167
 20
39.403226714382704
 30
78.0
 10
164.79877234512358
 20
39.5690224928187
 30
78.0
 10
161.96211201896415
 20
39.898581035623415
 30
78.0
 10
160.55910423391825
 20
40.062312096077164
 30
78.0
 10
159.1561821133409
 20
40.226771161065635
 30
78.0
 10
156.38110600660693
 20
40.5535551329694
 30
78.0
 10
155.00894826679848
 20
40.715848364294125
 30
78.0
 10
153.63687505288593
 20
40.878850019612656
 30
78.0
 10
150.92354139253828
 20
41.20262628364098
 30
78.0
 10
149.58227715332038
 20
41.36336932556013
 30
78.0
 10
148.24109624554256
 20
41.52480126831611
 30
78.0
 10
146.90000000030713
 20
41.686928277397556
 30
78.0
  0
LINE
  5
144
330
17
100
AcDbEntity
  8
0
100
AcDbLine
 10
146.9
 20
51.08462371829209
 30
78.0
 11
146.9
 21
41.686928274857216
 31
78.0
  0
SPLINE
  5
145
330
17
100
AcDbEntity
  8
0
100
AcDbSpline
 70
0
 71
4
 72
10
 73
5
 74
0
 40
0.0
 40
0.0
 40
0.0
 40
0.0
 40
0.0
 40
1.0
 40
1.0
 40
1.0
 40
1.0
 40
1.0
 10
143.09999940192563
 20
51.45952281049446
 30
78.0
 10
144.0499709007552
 20
51.36539768794848
 30
78.0
 10
144.99996165646334
 20
51.27153965946651
 30
78.0
 10
145.94997158376424
 20
51.177948418932395
 30
78.0
 10
146.90000059772018
 20
51.08462365957591
 30
78.0
  0
LINE
  5
146
330
17
100
AcDbEntity
  8
0
100
AcDbLine
 10
143.1
 20
51.45952275123602
 30
78.0
 11
143.1
 21
42.148448618085915
 31
78.0
  0
SPLINE
  5
147
330
17
100
AcDbEntity
  8
0
100
AcDbSpline
 70
0
 71
4
 72
19
 73
14
 74
0
 40
0.0
 40
0.0
 40
0.0
 40
0.0
 40
0.0
 40
0.26023177785659996
 40
0.26023177785659996
 40
0.26023177785659996
 40
0.5135844059800809
 40
0.5135844059800809
 40
0.5135844059800809
 40
0.760133629674002
 40
0.760133629674002
 40
0.760133629674002
 40
1.0
 40
1.0
 40
1.0
 40
1.0
 40
1.0
 10
143.100000000416
 20
42.148448621495646
 30
78.0
 10
141.65508660644204
 20
42.32475197444223
 30
78.0
 10
140.2102738385269
 20
42.50187339649383
 30
78.0
 10
138.76556306889975
 20
42.67981801528607
 30
78.0
 10
135.9145388894414
 20
43.032660123242366
 30
78.0
 10
134.5082199978036
 20
43.20751370668709
 30
78.0
 10
133.1020028505826
 20
43.38317636305141
 30
78.0
 10
130.3275362660092
 20
43.73140897566065
 30
78.0
 10
128.9592813012217
 20
43.90393531038125
 30
78.0
 10
127.5911275231334
 20
44.07725440173127
 30
78.0
 10
124.89210920339848
 20
44.420785855800865
 30
78.0
 10
123.56123911409449
 20
44.59095508528877
 30
78.0
 10
122.23046957240966
 20
44.761900395282154
 30
78.0
 10
120.89980309274608
 20
44.93363505093534
 30
78.0
  0
LINE
  5
148
330
17
100
AcDbEntity
  8
0
100
AcDbLine
 10
120.9
 20
53.71450496003366
 30
78.0
 11
120.9
 21
44.93360963837082
 31
78.0
  0
SPLINE
  5
149
330
17
100
AcDbEntity
  8
0
100
AcDbSpline
 70
0
 71
4
 72
10
 73
5
 74
0
 40
0.0
 40
0.0
 40
0.0
 40
0.0
 40
0.0
 40
1.0
 40
1.0
 40
1.0
 40
1.0
 40
1.0
 10
117.09999940245035
 20
54.111654805052595
 30
78.0
 10
118.04996909983304
 20
54.011960372917734
 30
78.0
 10
118.99995925673981
 20
53.91253744592335
 30
78.0
 10
119.9499697851934
 20
53.81338571953423
 30
78.0
 10
120.90000059756647
 20
53.71450488853471
 30
78.0
  0
LINE
  5
14A
330
17
100
AcDbEntity
  8
0
100
AcDbLine
 10
117.1
 20
54.111654742342836
 30
78.0
 11
117.1
 21
45.426509147739885
 31
78.0
  0
SPLINE
  5
14B
330
17
100
AcDbEntity
  8
0
100
AcDbSpline
 70
0
 71
4
 72
19
 73
14
 74
0
 40
0.0
 40
0.0
 40
0.0
 40
0.0
 40
0.0
 40
0.2626001739777499
 40
0.2626001739777499
 40
0.2626001739777499
 40
0.5166987090320017
 40
0.5166987090320017
 40
0.5166987090320017
 40
0.7624383757237522
 40
0.7624383757237522
 40
0.7624383757237522
 40
1.0
 40
1.0
 40
1.0
 40
1.0
 40
1.0
 10
117.09999999998983
 20
45.42650914766183
 30
78.0
 10
115.64178211055165
 20
45.6166128568866
 30
78.0
 10
114.18369246012394
 20
45.80768799154249
 30
78.0
 10
112.72573453334452
 20
45.99975266495382
 30
78.0
 10
109.85728640472662
 20
46.37964828665725
 30
78.0
 10
108.44678757431552
 20
46.56741499491916
 30
78.0
 10
107.03641899528307
 20
46.75614314892764
 30
78.0
 10
104.26234098749498
 20
47.12931756304979
 30
78.0
 10
102.89862289408856
 20
47.31370044491741
 30
78.0
 10
101.53503336690822
 20
47.499015551002984
 30
78.0
 10
98.853493472483
 20
47.86534507653058
 30
78.0
 10
97.53553445778586
 20
48.04629737410971
 30
78.0
 10
96.2177021483538
 20
48.228151772999425
 30
78.0
 10
94.90000000001788
 20
48.41092383089691
 30
78.0
  0
LINE
  5
14C
330
17
100
AcDbEntity
  8
0
100
AcDbLine
 10
94.9
 20
56.49774473083788
 30
78.0
 11
94.9
 21
48.410923830767956
 31
78.0
  0
SPLINE
  5
14D
330
17
100
AcDbEntity
  8
0
100
AcDbSpline
 70
0
 71
4
 72
10
 73
5
 74
0
 40
0.0
 40
0.0
 40
0.0
 40
0.0
 40
0.0
 40
1.0
 40
1.0
 40
1.0
 40
1.0
 40
1.0
 10
91.09999940261991
 20
56.917527835799675
 30
78.0
 10
92.04996723987905
 20
56.8121684781255
 30
78.0
 10
92.9999567785044
 20
56.707085032459
 30
78.0
 10
93.94996792779877
 20
56.60227719596582
 30
78.0
 10
94.90000059741527
 20
56.49774466510401
 30
78.0
  0
LINE
  5
14E
330
17
100
AcDbEntity
  8
0
100
AcDbLine
 10
91.1
 20
56.917527769545245
 30
78.0
 11
91.1
 21
48.94094631395899
 31
78.0
  0
SPLINE
  5
14F
330
17
100
AcDbEntity
  8
0
100
AcDbSpline
 70
0
 71
4
 72
19
 73
14
 74
0
 40
0.0
 40
0.0
 40
0.0
 40
0.0
 40
0.0
 40
0.2673796249377776
 40
0.2673796249377776
 40
0.2673796249377776
 40
0.5225963437369395
 40
0.5225963437369395
 40
0.5225963437369395
 40
0.7669918948266786
 40
0.7669918948266786
 40
0.7669918948266786
 40
1.0
 40
1.0
 40
1.0
 40
1.0
 40
1.0
 10
91.10000000007449
 20
48.940946314490084
 30
78.0
 10
89.61499866519156
 20
49.149233507616636
 30
78.0
 10
88.1301692299126
 20
49.35871536449517
 30
78.0
 10
86.64551691555917
 20
49.5694145112317
 30
78.0
 10
83.74410537725464
 20
49.98365160581046
 30
78.0
 10
82.32732990566136
 20
50.18707929774935
 30
78.0
 10
80.91072596038956
 20
50.39165628630159
 30
78.0
 10
78.13792844692293
 20
50.79442335287196
 30
78.0
 10
76.78172019960358
 20
50.99251642638707
 30
78.0
 10
75.42567905384294
 20
51.19169757837854
 30
78.0
 10
72.77711762594319
 20
51.582934647391305
 30
78.0
 10
71.48458166318012
 20
51.77489008946992
 30
78.00000000000003
 10
70.1922072335558
 20
51.96786186279802
 30
78.00000000000004
 10
68.90000000001164
 20
52.16186105958707
 30
78.00000000000006
  0
LINE
  5
150
330
17
100
AcDbEntity
  8
0
100
AcDbLine
 10
68.9
 20
59.43696406352256
 30
78.0
 11
68.9
 21
52.161861059509576
 31
78.0
  0
SPLINE
  5
151
330
17
100
AcDbEntity
  8
0
100
AcDbSpline
 70
0
 71
4
 72
10
 73
5
 74
0
 40
0.0
 40
0.0
 40
0.0
 40
0.0
 40
0.0
 40
1.0
 40
1.0
 40
1.0
 40
1.0
 40
1.0
 10
65.09999940279363
 20
59.87976427628966
 30
78.0
 10
66.04996532027018
 20
59.7686440360669
 30
78.0
 10
66.99995422074115
 20
59.65780410977209
 30
78.0
 10
67.94996601076481
 20
59.547244196395916
 30
78.0
 10
68.90000059724338
 20
59.436963994194436
 30
78.0
  0
LINE
  5
152
330
17
100
AcDbEntity
  8
0
100
AcDbLine
 10
65.1
 20
59.879764206432725
 30
78.0
 11
65.1
 21
52.73578750829341
 31
78.0
  0
SPLINE
  5
153
330
17
100
AcDbEntity
  8
0
100
AcDbSpline
 70
0
 71
7
 72
46
 73
38
 74
0
 40
0.0
 40
0.0
 40
0.0
 40
0.0
 40
0.0
 40
0.0
 40
0.0
 40
0.0
 40
0.30573262913285126
 40
0.30573262913285126
 40
0.30573262913285126
 40
0.30573262913285126
 40
0.30573262913285126
 40
0.30573262913285126
 40
0.5905654133851215
 40
0.5905654133851215
 40
0.5905654133851215
 40
0.5905654133851215
 40
0.5905654133851215
 40
0.5905654133851215
 40
0.7077221349605782
 40
0.7077221349605782
 40
0.7077221349605782
 40
0.7077221349605782
 40
0.7077221349605782
 40
0.7077221349605782
 40
0.8213959822089522
 40
0.8213959822089522
 40
0.8213959822089522
 40
0.8213959822089522
 40
0.8213959822089522
 40
0.8213959822089522
 40
0.9486965497679696
 40
0.9486965497679696
 40
0.9486965497679696
 40
0.9486965497679696
 40
0.9486965497679696
 40
0.9486965497679696
 40
1.0
 40
1.0
 40
1.0
 40
1.0
 40
1.0
 40
1.0
 40
1.0
 40
1.0
 10
65.09999999997862
 20
52.735787508152804
 30
78.0
 10
64.12901459778966
 20
52.88332017088103
 30
78.0
 10
63.158116640072
 20
53.03136771550215
 30
78.0
 10
62.18730780307202
 20
53.179932308015175
 30
78.0
 10
61.21659019453027
 20
53.32901565497229
 30
78.0
 10
60.245966364597514
 20
53.47861895189717
 30
78.0
 10
59.27543941835112
 20
53.62874272319882
 30
78.0
 10
57.40092525622083
 20
53.91973239026937
 30
78.0
 10
56.496925783840254
 20
54.060529452469936
 30
78.0
 10
55.59301689438342
 20
54.201777559765446
 30
78.0
 10
54.68920252007223
 20
54.34347565811207
 30
78.0
 10
53.78548909016772
 20
54.485621434920695
 30
78.0
 10
52.88188539189877
 20
54.62821126887076
 30
78.0
 10
51.60678866943374
 20
54.83006825987662
 30
78.0
 10
51.23519285940313
 20
54.88897187693897
 30
78.0
 10
50.863619139287366
 20
54.94794911769757
 30
78.0
 10
50.49206926945025
 20
55.00699904785417
 30
78.0
 10
50.12054444641045
 20
55.06612159810232
 30
78.0
 10
49.749047916420906
 20
55.12531500506695
 30
78.0
 10
49.01715948996466
 20
55.24208078414971
 30
78.0
 10
48.65676630074613
 20
55.29964893210063
 30
78.0
 10
48.29640476100358
 20
55.35728261510666
 30
78.0
 10
47.936078265822346
 20
55.414980971972916
 30
78.0
 10
47.57579149798737
 20
55.47274289886748
 30
78.0
 10
47.21555078099522
 20
55.53056698710502
 30
78.0
 10
46.45200117780278
 20
55.653274763761885
 30
78.0
 10
46.048716365351595
 20
55.71817214878155
 30
78.0
 10
45.64551105953674
 20
55.783142816095946
 30
78.0
 10
45.24239935812684
 20
55.84818381659571
 30
78.0
 10
44.839417108878344
 20
55.9132885968077
 30
78.0
 10
44.43661494624171
 20
55.97844810301792
 30
78.0
 10
43.87187779318847
 20
56.06991925824287
 30
78.0
 10
43.709708558470886
 20
56.09619945928391
 30
78.0
 10
43.54759406748418
 20
56.12248417899617
 30
78.0
 10
43.38554518127769
 20
56.14877158324335
 30
78.0
 10
43.22357822654183
 20
56.1750589446377
 30
78.0
 10
43.06171740142428
 20
56.20134224608484
 30
78.0
 10
42.90000000000002
 20
56.2276153236871
 30
78.0
  0
LINE
  5
154
330
17
100
AcDbEntity
  8
0
100
AcDbLine
 10
42.9
 20
62.53479341901117
 30
78.0
 11
42.9
 21
56.22761532368706
 31
78.0
  0
SPLINE
  5
155
330
17
100
AcDbEntity
  8
0
100
AcDbSpline
 70
0
 71
4
 72
10
 73
5
 74
0
 40
0.0
 40
0.0
 40
0.0
 40
0.0
 40
0.0
 40
1.0
 40
1.0
 40
1.0
 40
1.0
 40
1.0
 10
40.17203455465393
 20
62.869124233032224
 30
78.0
 10
40.85400735442713
 20
62.78532166507282
 30
78.0
 10
41.53599265177896
 20
62.70166573508163
 30
78.0
 10
42.217990411150055
 20
62.6181563323415
 30
78.0
 10
42.90000059707239
 20
62.534793345932584
 30
78.0
  0
SPLINE
  5
156
330
17
100
AcDbEntity
  8
0
100
AcDbSpline
 70
0
 71
8
 72
410
 73
401
 74
0
 40
0.0
 40
0.0
 40
0.0
 40
0.0
 40
0.0
 40
0.0
 40
0.0
 40
0.0
 40
0.0
 40
0.0009021272304306345
 40
0.0009021272304306345
 40
0.0009021272304306345
 40
0.0009021272304306345
 40
0.0009021272304306345
 40
0.0009021272304306345
 40
0.0009021272304306345
 40
0.0021203261781206338
 40
0.0021203261781206338
 40
0.0021203261781206338
 40
0.0021203261781206338
 40
0.0021203261781206338
 40
0.0021203261781206338
 40
0.0021203261781206338
 40
0.004780187822549445
 40
0.004780187822549445
 40
0.004780187822549445
 40
0.004780187822549445
 40
0.004780187822549445
 40
0.004780187822549445
 40
0.004780187822549445
 40
0.007144431259612628
 40
0.007144431259612628
 40
0.007144431259612628
 40
0.007144431259612628
 40
0.007144431259612628
 40
0.007144431259612628
 40
0.007144431259612628
 40
0.007722591156825706
 40
0.007722591156825706
 40
0.007722591156825706
 40
0.007722591156825706
 40
0.007722591156825706
 40
0.007722591156825706
 40
0.007722591156825706
 40
0.008589812708125043
 40
0.008589812708125043
 40
0.008589812708125043
 40
0.008589812708125043
 40
0.008589812708125043
 40
0.008589812708125043
 40
0.008589812708125043
 40
0.009176315189982997
 40
0.009176315189982997
 40
0.009176315189982997
 40
0.009176315189982997
 40
0.009176315189982997
 40
0.009176315189982997
 40
0.009176315189982997
 40
0.011028977178565859
 40
0.011028977178565859
 40
0.011028977178565859
 40
0.011028977178565859
 40
0.011028977178565859
 40
0.011028977178565859
 40
0.011028977178565859
 40
0.012375137241149822
 40
0.012375137241149822
 40
0.012375137241149822
 40
0.012375137241149822
 40
0.012375137241149822
 40
0.012375137241149822
 40
0.012375137241149822
 40
0.015334823542367574
 40
0.015334823542367574
 40
0.015334823542367574
 40
0.015334823542367574
 40
0.015334823542367574
 40
0.015334823542367574
 40
0.015334823542367574
 40
0.019682741827665447
 40
0.019682741827665447
 40
0.019682741827665447
 40
0.019682741827665447
 40
0.019682741827665447
 40
0.019682741827665447
 40
0.019682741827665447
 40
0.022096827269118532
 40
0.022096827269118532
 40
0.022096827269118532
 40
0.022096827269118532
 40
0.022096827269118532
 40
0.022096827269118532
 40
0.022096827269118532
 40
0.02473004327838268
 40
0.02473004327838268
 40
0.02473004327838268
 40
0.02473004327838268
 40
0.02473004327838268
 40
0.02473004327838268
 40
0.02473004327838268
 40
0.03093302653643885
 40
0.03093302653643885
 40
0.03093302653643885
 40
0.03093302653643885
 40
0.03093302653643885
 40
0.03093302653643885
 40
0.03093302653643885
 40
0.03958096405161225
 40
0.03958096405161225
 40
0.03958096405161225
 40
0.03958096405161225
 40
0.03958096405161225
 40
0.03958096405161225
 40
0.03958096405161225
 40
0.04948999280837692
 40
0.04948999280837692
 40
0.04948999280837692
 40
0.04948999280837692
 40
0.04948999280837692
 40
0.04948999280837692
 40
0.04948999280837692
 40
0.05398323639412959
 40
0.05398323639412959
 40
0.05398323639412959
 40
0.05398323639412959
 40
0.05398323639412959
 40
0.05398323639412959
 40
0.05398323639412959
 40
0.05911835382973348
 40
0.05911835382973348
 40
0.05911835382973348
 40
0.05911835382973348
 40
0.05911835382973348
 40
0.05911835382973348
 40
0.05911835382973348
 40
0.07396695129383274
 40
0.07396695129383274
 40
0.07396695129383274
 40
0.07396695129383274
 40
0.07396695129383274
 40
0.07396695129383274
 40
0.07396695129383274
 40
0.09295952059059068
 40
0.09295952059059068
 40
0.09295952059059068
 40
0.09295952059059068
 40
0.09295952059059068
 40
0.09295952059059068
 40
0.09295952059059068
 40
0.11177348116903926
 40
0.11177348116903926
 40
0.11177348116903926
 40
0.11177348116903926
 40
0.11177348116903926
 40
0.11177348116903926
 40
0.11177348116903926
 40
0.15052129495171537
 40
0.15052129495171537
 40
0.15052129495171537
 40
0.15052129495171537
 40
0.15052129495171537
 40
0.15052129495171537
 40
0.15052129495171537
 40
0.16565256441254092
 40
0.16565256441254092
 40
0.16565256441254092
 40
0.16565256441254092
 40
0.16565256441254092
 40
0.16565256441254092
 40
0.16565256441254092
 40
0.2276947738436459
 40
0.2276947738436459
 40
0.2276947738436459
 40
0.2276947738436459
 40
0.2276947738436459
 40
0.2276947738436459
 40
0.2276947738436459
 40
0.29726514770645085
 40
0.29726514770645085
 40
0.29726514770645085
 40
0.29726514770645085
 40
0.29726514770645085
 40
0.29726514770645085
 40
0.29726514770645085
 40
0.3142055363492248
 40
0.3142055363492248
 40
0.3142055363492248
 40
0.3142055363492248
 40
0.3142055363492248
 40
0.3142055363492248
 40
0.3142055363492248
 40
0.329451634706031
 40
0.329451634706031
 40
0.329451634706031
 40
0.329451634706031
 40
0.329451634706031
 40
0.329451634706031
 40
0.329451634706031
 40
0.44464218967415936
 40
0.44464218967415936
 40
0.44464218967415936
 40
0.44464218967415936
 40
0.44464218967415936
 40
0.44464218967415936
 40
0.44464218967415936
 40
0.48699138469809833
 40
0.48699138469809833
 40
0.48699138469809833
 40
0.48699138469809833
 40
0.48699138469809833
 40
0.48699138469809833
 40
0.48699138469809833
 40
0.4985448409876785
 40
0.4985448409876785
 40
0.4985448409876785
 40
0.4985448409876785
 40
0.4985448409876785
 40
0.4985448409876785
 40
0.4985448409876785
 40
0.5375059937977889
 40
0.5375059937977889
 40
0.5375059937977889
 40
0.5375059937977889
 40
0.5375059937977889
 40
0.5375059937977889
 40
0.5375059937977889
 40
0.5764666548604299
 40
0.5764666548604299
 40
0.5764666548604299
 40
0.5764666548604299
 40
0.5764666548604299
 40
0.5764666548604299
 40
0.5764666548604299
 40
0.6069569656116969
 40
0.6069569656116969
 40
0.6069569656116969
 40
0.6069569656116969
 40
0.6069569656116969
 40
0.6069569656116969
 40
0.6069569656116969
 40
0.6628533699964013
 40
0.6628533699964013
 40
0.6628533699964013
 40
0.6628533699964013
 40
0.6628533699964013
 40
0.6628533699964013
 40
0.6628533699964013
 40
0.7067148848404118
 40
0.7067148848404118
 40
0.7067148848404118
 40
0.7067148848404118
 40
0.7067148848404118
 40
0.7067148848404118
 40
0.7067148848404118
 40
0.7365257314544886
 40
0.7365257314544886
 40
0.7365257314544886
 40
0.7365257314544886
 40
0.7365257314544886
 40
0.7365257314544886
 40
0.7365257314544886
 40
0.7810691683787283
 40
0.7810691683787283
 40
0.7810691683787283
 40
0.7810691683787283
 40
0.7810691683787283
 40
0.7810691683787283
 40
0.7810691683787283
 40
0.8036226874201002
 40
0.8036226874201002
 40
0.8036226874201002
 40
0.8036226874201002
 40
0.8036226874201002
 40
0.8036226874201002
 40
0.8036226874201002
 40
0.8197561885356485
 40
0.8197561885356485
 40
0.8197561885356485
 40
0.8197561885356485
 40
0.8197561885356485
 40
0.8197561885356485
 40
0.8197561885356485
 40
0.8312902971556952
 40
0.8312902971556952
 40
0.8312902971556952
 40
0.8312902971556952
 40
0.8312902971556952
 40
0.8312902971556952
 40
0.8312902971556952
 40
0.8672635618142039
 40
0.8672635618142039
 40
0.8672635618142039
 40
0.8672635618142039
 40
0.8672635618142039
 40
0.8672635618142039
 40
0.8672635618142039
 40
0.8909764985660619
 40
0.8909764985660619
 40
0.8909764985660619
 40
0.8909764985660619
 40
0.8909764985660619
 40
0.8909764985660619
 40
0.8909764985660619
 40
0.9131935261592369
 40
0.9131935261592369
 40
0.9131935261592369
 40
0.9131935261592369
 40
0.9131935261592369
 40
0.9131935261592369
 40
0.9131935261592369
 40
0.9343805733693936
 40
0.9343805733693936
 40
0.9343805733693936
 40
0.9343805733693936
 40
0.9343805733693936
 40
0.9343805733693936
 40
0.9343805733693936
 40
0.9409805689341068
 40
0.9409805689341068
 40
0.9409805689341068
 40
0.9409805689341068
 40
0.9409805689341068
 40
0.9409805689341068
 40
0.9409805689341068
 40
0.959752745516714
 40
0.959752745516714
 40
0.959752745516714
 40
0.959752745516714
 40
0.959752745516714
 40
0.959752745516714
 40
0.959752745516714
 40
0.968140639116184
 40
0.968140639116184
 40
0.968140639116184
 40
0.968140639116184
 40
0.968140639116184
 40
0.968140639116184
 40
0.968140639116184
 40
0.9744773118491528
 40
0.9744773118491528
 40
0.9744773118491528
 40
0.9744773118491528
 40
0.9744773118491528
 40
0.9744773118491528
 40
0.9744773118491528
 40
0.9794481340905733
 40
0.9794481340905733
 40
0.9794481340905733
 40
0.9794481340905733
 40
0.9794481340905733
 40
0.9794481340905733
 40
0.9794481340905733
 40
0.9830341976483415
 40
0.9830341976483415
 40
0.9830341976483415
 40
0.9830341976483415
 40
0.9830341976483415
 40
0.9830341976483415
 40
0.9830341976483415
 40
0.9846429243545372
 40
0.9846429243545372
 40
0.9846429243545372
 40
0.9846429243545372
 40
0.9846429243545372
 40
0.9846429243545372
 40
0.9846429243545372
 40
0.9863981668726671
 40
0.9863981668726671
 40
0.9863981668726671
 40
0.9863981668726671
 40
0.9863981668726671
 40
0.9863981668726671
 40
0.9863981668726671
 40
0.9896594279292354
 40
0.9896594279292354
 40
0.9896594279292354
 40
0.9896594279292354
 40
0.9896594279292354
 40
0.9896594279292354
 40
0.9896594279292354
 40
0.9909529655640306
 40
0.9909529655640306
 40
0.9909529655640306
 40
0.9909529655640306
 40
0.9909529655640306
 40
0.9909529655640306
 40
0.9909529655640306
 40
0.9930111139968921
 40
0.9930111139968921
 40
0.9930111139968921
 40
0.9930111139968921
 40
0.9930111139968921
 40
0.9930111139968921
 40
0.9930111139968921
 40
0.9939259048453225
 40
0.9939259048453225
 40
0.9939259048453225
 40
0.9939259048453225
 40
0.9939259048453225
 40
0.9939259048453225
 40
0.9939259048453225
 40
0.9943710866749532
 40
0.9943710866749532
 40
0.9943710866749532
 40
0.9943710866749532
 40
0.9943710866749532
 40
0.9943710866749532
 40
0.9943710866749532
 40
0.9943710866749532
 40
0.9943710866749532
 10
1945.8830744957747
 20
79.77081814487067
 30
78.0
 10
1945.9887193039685
 20
79.81635538297435
 30
78.0
 10
1946.0906711448315
 20
79.87058026824135
 30
78.0
 10
1946.1893759348302
 20
79.93122278087753
 30
78.0
 10
1946.2849812293314
 20
79.99692660265299
 30
78.0
 10
1946.3776963431221
 20
80.06661647953558
 30
78.0
 10
1946.4677418778206
 20
80.13959859589463
 30
78.0
 10
1946.5554187020612
 20
80.21541889130175
 30
78.0
 10
1946.7567877027282
 20
80.39987243719408
 30
78.0
 10
1946.868475964104
 20
80.51036697106416
 30
78.0
 10
1946.9766855332566
 20
80.62449875550085
 30
78.0
 10
1947.0817262856656
 20
80.74167873441685
 30
78.0
 10
1947.183837602438
 20
80.86146529442233
 30
78.0
 10
1947.2832291631494
 20
80.98352479367252
 30
78.0
 10
1947.3800813932148
 20
81.10763158551676
 30
78.0
 10
1947.6808812412705
 20
81.50877314623494
 30
78.0
 10
1947.875685455587
 20
81.79265576730845
 30
78.0
 10
1948.0605977662497
 20
82.08344233959916
 30
78.0
 10
1948.2362423351908
 20
82.38007415549689
 30
78.0
 10
1948.403079653259
 20
82.68172804682995
 30
78.0
 10
1948.5613066066655
 20
82.98788628771634
 30
78.0
 10
1948.71101793499
 20
83.29821692425418
 30
78.0
 10
1948.9775757339116
 20
83.89207639253075
 30
78.0
 10
1949.0961508728947
 20
84.17458425696293
 30
78.0
 10
1949.207798276474
 20
84.45999119015099
 30
78.0
 10
1949.3123061474314
 20
84.74815624590562
 30
78.0
 10
1949.4093415551633
 20
85.03893860153087
 30
78.0
 10
1949.4984450021022
 20
85.33219795002653
 30
78.0
 10
1949.5789949945104
 20
85.62780461388918
 30
78.0
 10
1949.6675412923412
 20
85.9984977687068
 30
78.0
 10
1949.6843257537053
 20
86.07125334544126
 30
78.0
 10
1949.700486486485
 20
86.14391097689996
 30
78.0
 10
1949.716013936358
 20
86.21645555615804
 30
78.0
 10
1949.7308985099282
 20
86.28887200318154
 30
78.0
 10
1949.7451305747238
 20
86.36114526482737
 30
78.0
 10
1949.7587004592
 20
86.43326031484338
 30
78.0
 10
1949.7909450349161
 20
86.61311263597406
 30
78.0
 10
1949.8087743332796
 20
86.72064212205397
 30
78.0
 10
1949.8251065066286
 20
86.82771768053703
 30
78.0
 10
1949.8397051669037
 20
86.93432175671366
 30
78.0
 10
1949.8529656478124
 20
87.04034445984746
 30
78.0
 10
1949.8643651083914
 20
87.14581134442616
 30
78.0
 10
1949.87402135268
 20
87.25068202042758
 30
78.0
 10
1949.8870369457406
 20
87.42546823954794
 30
78.0
 10
1949.8914508298935
 20
87.49604263512231
 30
78.0
 10
1949.89498505837
 20
87.56666660875193
 30
78.0
 10
1949.8975953271392
 20
87.63732984379489
 30
78.0
 10
1949.8992357144896
 20
87.70801932101696
 30
78.0
 10
1949.8998589463743
 20
87.77871931712967
 30
78.0
 10
1949.8994166617551
 20
87.84941140332809
 30
78.0
 10
1949.8929414298498
 20
88.1432870186819
 30
78.0
 10
1949.8768940495397
 20
88.366524838253
 30
78.0
 10
1949.848117767865
 20
88.58886285741026
 30
78.0
 10
1949.8050032770866
 20
88.80906835775717
 30
78.0
 10
1949.7460862091925
 20
89.02564066433318
 30
78.0
 10
1949.6703524611605
 20
89.2368922499696
 30
78.0
 10
1949.5776306611012
 20
89.44104810470162
 30
78.0
 10
1949.390081963993
 20
89.7782411907039
 30
78.0
 10
1949.3027228487672
 20
89.91553107910264
 30
78.0
 10
1949.2073083891028
 20
90.04756382830189
 30
78.0
 10
1949.1044066114043
 20
90.17395636563676
 30
78.0
 10
1948.9947055414784
 20
90.29452868487604
 30
78.0
 10
1948.878952188459
 20
90.40925271438738
 30
78.0
 10
1948.7579008741093
 20
90.51820999890306
 30
78.0
 10
1948.3560591095916
 20
90.84878098095002
 30
78.0
 10
1948.0582795620585
 20
91.04842610467324
 30
78.0
 10
1947.7447630801419
 20
91.22400349238484
 30
78.0
 10
1947.4203511969674
 20
91.37903051535136
 30
78.0
 10
1947.0885803792428
 20
91.5164799885129
 30
78.0
 10
1946.751781330785
 20
91.63896906284876
 30
78.0
 10
1946.4110409686068
 20
91.74872116832799
 30
78.0
 10
1945.5597267013688
 20
91.99295944513761
 30
78.0
 10
1945.0465183514934
 20
92.11430992597273
 30
78.0
 10
1944.528938238166
 20
92.21731707196008
 30
78.0
 10
1944.0085174405988
 20
92.30525530357555
 30
78.0
 10
1943.4863225140373
 20
92.38068641523736
 30
78.0
 10
1942.9629494051899
 20
92.4454686951888
 30
78.0
 10
1942.4386026500933
 20
92.50111477595128
 30
78.0
 10
1941.6213159037336
 20
92.57529780492699
 30
78.0
 10
1941.3204064534052
 20
92.60012835764032
 30
78.0
 10
1941.0100739809322
 20
92.62327232934213
 30
78.0
 10
1940.69000906664
 20
92.64469537204138
 30
78.0
 10
1940.3598838486496
 20
92.66436180328154
 30
78.0
 10
1940.019352003433
 20
92.6822343770323
 30
78.0
 10
1939.6680487263702
 20
92.69827405458118
 30
78.0
 10
1938.9102317788877
 20
92.72789134241117
 30
78.0
 10
1938.5014324482108
 20
92.74112722730219
 30
78.0
 10
1938.078910591543
 20
92.75201880839614
 30
78.0
 10
1937.6423815075862
 20
92.76069841837628
 30
78.0
 10
1937.1915438064436
 20
92.76704586469174
 30
78.0
 10
1936.7260878350503
 20
92.77111835721223
 30
78.0
 10
1936.2456921586909
 20
92.77287644399354
 30
78.0
 10
1934.5823947197896
 20
92.77099060947734
 30
78.0
 10
1933.4147703623853
 20
92.7568838471343
 30
78.0
 10
1932.247236500238
 20
92.73307430948145
 30
78.0
 10
1931.0798654203088
 20
92.70134262766598
 30
78.0
 10
1929.9126984709058
 20
92.66305944965156
 30
78.0
 10
1928.7457445413063
 20
92.61921279887048
 30
78.0
 10
1927.5789772291475
 20
92.57060339739917
 30
78.0
 10
1924.7858484668477
 20
92.44433787691074
 30
78.0
 10
1923.1597088893348
 20
92.36279063501858
 30
78.0
 10
1921.5338666331265
 20
92.27494891855818
 30
78.0
 10
1919.90829224984
 20
92.18197247785722
 30
78.0
 10
1918.282960040135
 20
92.08473697213793
 30
78.0
 10
1916.657842295017
 20
91.98393884403528
 30
78.0
 10
1915.032907607925
 20
91.88012519507659
 30
78.0
 10
1911.546392307129
 20
91.65186516213534
 30
78.0
 10
1909.6848752930312
 20
91.52661876489512
 30
78.0
 10
1907.8235282656078
 20
91.39869203818134
 30
78.0
 10
1905.9623218165075
 20
91.2686005691297
 30
78.0
 10
1904.101232178239
 20
91.13674873400028
 30
78.0
 10
1902.2402387051418
 20
91.00346668242584
 30
78.0
 10
1900.3793224505348
 20
90.86903108138749
 30
78.0
 10
1897.6746614436236
 20
90.67229003894782
 30
78.0
 10
1896.8157438755998
 20
90.60962010954097
 30
78.0
 10
1895.9413210605717
 20
90.54564054336444
 30
78.0
 10
1895.050981553049
 20
90.48033141247535
 30
78.0
 10
1894.1442945374454
 20
90.41367214832096
 30
78.0
 10
1893.2208098280787
 20
90.34564154173849
 30
78.0
 10
1892.2800578691686
 20
90.2762177429553
 30
78.0
 10
1890.2261157262349
 20
90.12441913953079
 30
78.0
 10
1889.1074926333258
 20
90.04161223824433
 30
78.0
 10
1887.964971002308
 20
89.95692721251653
 30
78.0
 10
1886.7977987665663
 20
89.87033253867251
 30
78.0
 10
1885.6051812466765
 20
89.78179551457522
 30
78.0
 10
1884.3862811504016
 20
89.69128225962541
 30
78.0
 10
1883.1402185726943
 20
89.59875771476153
 30
78.0
 10
1878.181772687439
 20
89.23072302927483
 30
78.0
 10
1874.4974400410206
 20
88.95756944289481
 30
78.0
 10
1870.8130217329142
 20
88.68544042649651
 30
78.0
 10
1867.1284835888252
 20
88.41482235103302
 30
78.0
 10
1863.4438015728604
 20
88.14606880103658
 30
78.0
 10
1859.758958525327
 20
87.87944554650042
 30
78.0
 10
1856.0739427086583
 20
87.61515061142485
 30
78.0
 10
1847.67507883021
 20
87.0184536067254
 30
78.0
 10
1842.9611150195992
 20
86.68762934960398
 30
78.0
 10
1838.2468384123367
 20
86.3611780544114
 30
78.0
 10
1833.5322413006725
 20
86.03929243079169
 30
78.0
 10
1828.817321611249
 20
85.72208767635242
 30
78.0
 10
1824.1020808279554
 20
85.40963211779265
 30
78.0
 10
1819.3865228722786
 20
85.10196383867678
 30
78.0
 10
1809.9991336862108
 20
84.49907098504337
 30
78.0
 10
1805.327307525274
 20
84.203756943197
 30
78.0
 10
1800.6551809655164
 20
83.91316051366586
 30
78.0
 10
1795.9827598775848
 20
83.6272815846866
 30
78.0
 10
1791.3100512623032
 20
83.34610035801185
 30
78.0
 10
1786.6370626773528
 20
83.06958611932446
 30
78.0
 10
1781.9638015910323
 20
82.797706963254
 30
78.0
 10
1767.6650350745924
 20
81.97994336397855
 30
78.0
 10
1758.0386718046936
 20
81.44895411125482
 30
78.0
 10
1748.4112532311544
 20
80.93711155032398
 30
78.0
 10
1738.7828470915774
 20
80.44399376418343
 30
78.0
 10
1729.153518442099
 20
79.96916451569615
 30
78.0
 10
1719.5233285567895
 20
79.51219499940306
 30
78.0
 10
1709.8923347744437
 20
79.07266697990853
 30
78.0
 10
1696.49933201948
 20
78.48519811556991
 30
78.0
 10
1692.7379593590567
 20
78.32281629314843
 30
78.0
 10
1688.9764757604598
 20
78.16299786795267
 30
78.0
 10
1685.2148831243574
 20
78.00575077166579
 30
78.0
 10
1681.4531855680004
 20
77.85102342204456
 30
78.0
 10
1677.6913863799234
 20
77.69878343529074
 30
78.0
 10
1673.9294861495437
 20
77.54906606681624
 30
78.0
 10
1654.7423117546625
 20
76.79785721485136
 30
78.0
 10
1639.3155448271052
 20
76.23476576994497
 30
78.0
 10
1623.8874856782022
 20
75.70736964083103
 30
78.0
 10
1608.4583578474055
 20
75.21200394802213
 30
78.0
 10
1593.0283338706836
 20
74.74582027283972
 30
78.0
 10
1577.5975441661917
 20
74.3065139981091
 30
78.0
 10
1562.166080308318
 20
73.89222318276667
 30
78.0
 10
1529.4293998972466
 20
73.06313467422463
 30
78.0
 10
1512.1240550904834
 20
72.65437674272727
 30
78.0
 10
1494.8180714506934
 20
72.27292860421821
 30
78.0
 10
1477.5115366443304
 20
71.91710571194903
 30
78.0
 10
1460.204523316344
 20
71.58556603721941
 30
78.0
 10
1442.8970908088504
 20
71.27722740732005
 30
78.0
 10
1425.5892860191118
 20
70.99122641400199
 30
78.0
 10
1404.0666110269447
 20
70.66251408300448
 30
78.0
 10
1399.8486837519858
 20
70.5993787379565
 30
78.0
 10
1395.6277189364425
 20
70.53747514679937
 30
78.0
 10
1391.404073143582
 20
70.47680250195246
 30
78.0
 10
1387.178102945478
 20
70.41735997231075
 30
78.0
 10
1382.9501649230106
 20
70.35914670324469
 30
78.0
 10
1378.7206156658663
 20
70.3021618166003
 30
78.0
 10
1370.6821510602458
 20
70.19622357291469
 30
78.0
 10
1366.8733340024928
 20
70.14703565136284
 30
78.0
 10
1363.0637785317933
 20
70.09884010516687
 30
78.0
 10
1359.253816190694
 20
70.05163884345053
 30
78.0
 10
1355.4436921709075
 20
70.00543305746396
 30
78.0
 10
1351.6335653524445
 20
69.96022005270976
 30
78.0
 10
1347.8235083427458
 20
69.91599008106895
 30
78.0
 10
1315.227381425561
 20
69.54582385455858
 30
78.0
 10
1286.4406399203378
 20
69.27398267298894
 30
78.0
 10
1257.6534553830938
 20
69.05164134980201
 30
78.0
 10
1228.8659691118714
 20
68.87305198702573
 30
78.0
 10
1200.0782909298764
 20
68.73233616958862
 30
78.0
 10
1171.2904989134545
 20
68.62352759943063
 30
78.0
 10
1142.5026392379852
 20
68.54059826126881
 30
78.0
 10
1103.131002967641
 20
68.4542586592726
 30
78.0
 10
1092.5472740047724
 20
68.43372546424392
 30
78.0
 10
1081.9635405886363
 20
68.41556628788823
 30
78.0
 10
1071.379803842813
 20
68.39947822321022
 30
78.0
 10
1060.7960646789059
 20
68.38515770326293
 30
78.0
 10
1050.212323796541
 20
68.37230050114758
 30
78.0
 10
1039.6285816833683
 20
68.3606017300137
 30
78.0
 10
1026.1574445842969
 20
68.34679693248749
 30
78.0
 10
1023.2700504876562
 20
68.34390296317973
 30
78.0
 10
1020.3826563351266
 20
68.34106502300092
 30
78.0
 10
1017.4952621346346
 20
68.33827613146073
 30
78.0
 10
1014.6078678920459
 20
68.33553123971316
 30
78.0
 10
1011.7204736111652
 20
68.33282723055665
 30
78.0
 10
1008.8330792937364
 20
68.33016291843407
 30
78.0
 10
996.2086668696085
 20
68.31869070495875
 30
78.0
 10
986.4716483878985
 20
68.31029710143764
 30
78.0
 10
976.7346295503543
 20
68.3023220898007
 30
78.0
 10
966.9976104077405
 20
68.29472932238644
 30
78.0
 10
957.2605910055455
 20
68.28748225294073
 30
78.0
 10
947.5235713839812
 20
68.28054413661671
 30
78.0
 10
937.7865515779837
 20
68.27387802997475
 30
78.0
 10
918.312634552057
 20
68.26101563316207
 30
78.0
 10
908.5757373348697
 20
68.25481917087234
 30
78.0
 10
898.8388399952242
 20
68.24882029936379
 30
78.0
 10
889.1019425610829
 20
68.24298138497713
 30
78.0
 10
879.3650450587947
 20
68.23726426514324
 30
78.0
 10
869.628147513098
 20
68.23163024838313
 30
78.0
 10
859.8912499471176
 20
68.22604011430799
 30
78.0
 10
842.5343319719019
 20
68.21608255286506
 30
78.0
 10
834.9143115636496
 20
68.21171342592221
 30
78.0
 10
827.2942911681856
 20
68.207327660322
 30
78.0
 10
819.6742707969637
 20
68.20290583589248
 30
78.0
 10
812.0542504623187
 20
68.1984281847584
 30
78.0
 10
804.4342301774623
 20
68.1938745913413
 30
78.0
 10
796.814209956486
 20
68.18922459235942
 30
78.0
 10
775.2247773423614
 20
68.17571787235629
 30
78.0
 10
761.2553651554872
 20
68.16658436638717
 30
78.0
 10
747.2859533262821
 20
68.15692790943
 30
78.0
 10
733.316541967169
 20
68.1466150791884
 30
78.0
 10
719.3471312315919
 20
68.13550661519648
 30
78.0
 10
705.3777213151536
 20
68.1234560534551
 30
78.0
 10
691.4083124567546
 20
68.11030836106818
 30
78.0
 10
666.4772092472381
 20
68.08459131000525
 30
78.0
 10
655.515514407196
 20
68.07250527714115
 30
78.0
 10
644.5538203900758
 20
68.05976781287667
 30
78.0
 10
633.5921271510172
 20
68.04650345706115
 30
78.0
 10
622.6304346278243
 20
68.03283613936846
 30
78.0
 10
611.6687427389603
 20
68.01889136986196
 30
78.0
 10
600.7070513815404
 20
68.00479842955956
 30
78.0
 10
582.2951551920116
 20
67.9811053890663
 30
78.0
 10
574.8449501519344
 20
67.97151225069622
 30
78.0
 10
567.394745271417
 20
67.96195572508445
 30
78.0
 10
559.9445405158529
 20
67.95247963746631
 30
78.0
 10
552.4943358532424
 20
67.94312956064485
 30
78.0
 10
545.0441312537318
 20
67.93395331651865
 30
78.0
 10
537.5939266891494
 20
67.92500147761008
 30
78.0
 10
519.0116090115711
 20
67.90336774165858
 30
78.0
 10
507.8794960040652
 20
67.89102891754465
 30
78.0
 10
496.74738292613256
 20
67.87949089897421
 30
78.0
 10
485.6152697117249
 20
67.86895083344658
 30
78.0
 10
474.4831564106963
 20
67.859627104327
 30
78.0
 10
463.3510431853087
 20
67.85176637320123
 30
78.0
 10
452.2189303051882
 20
67.84565407349527
 30
78.0
 10
435.45033561921343
 20
67.83959002790132
 30
78.0
 10
429.81385331635823
 20
67.8380866073874
 30
78.0
 10
424.17737128522407
 20
67.83716216827702
 30
78.0
 10
418.5408896095055
 20
67.83686409240588
 30
78.0
 10
412.90440840389857
 20
67.83724385072668
 30
78.0
 10
407.26792781446716
 20
67.83835778504881
 30
78.0
 10
401.6314480190083
 20
67.8402678897778
 30
78.0
 10
391.9629537931484
 20
67.84502745854542
 30
78.0
 10
387.9534794488979
 20
67.84744369713711
 30
78.0
 10
383.967020826281
 20
67.85030749003262
 30
78.0
 10
380.0040525326649
 20
67.85363540889698
 30
78.0
 10
376.06504915116864
 20
67.85744441645767
 30
78.0
 10
372.15048524066344
 20
67.86175186650465
 30
78.0
 10
368.26083533577287
 20
67.86657550389039
 30
78.0
 10
361.6339491280798
 20
67.87576395981746
 30
78.0
 10
358.8713249107407
 20
67.87988834381143
 30
78.0
 10
356.1087013498215
 20
67.884315996138
 30
78.0
 10
353.34607850017585
 20
67.88905427156169
 30
78.0
 10
350.583456416545
 20
67.89410849998548
 30
78.0
 10
347.82083515355777
 20
67.89948198645064
 30
78.0
 10
345.05821476573067
 20
67.90517601113685
 30
78.0
 10
333.6793732658149
 20
67.9299460836817
 30
78.0
 10
325.0631602979727
 20
67.95183619796177
 30
78.0
 10
316.4469580389957
 20
67.9769470292364
 30
78.0
 10
307.83076835889136
 20
68.0053725059794
 30
78.0
 10
299.21459336623917
 20
68.0372131983434
 30
78.0
 10
290.5984354118124
 20
68.07257588839884
 30
78.0
 10
281.9822970921983
 20
68.11157314037322
 30
78.0
 10
267.68659081671086
 20
68.18250273350536
 30
78.0
 10
262.0070101752418
 20
68.21231313831339
 30
78.0
 10
256.32744015606994
 20
68.2437872970522
 30
78.0
 10
250.64788165741902
 20
68.27695969119847
 30
78.0
 10
244.96833564545122
 20
68.3118651679634
 30
78.0
 10
239.28880315103885
 20
68.34853803628862
 30
78.0
 10
233.6092852665366
 20
68.38701116284217
 30
78.0
 10
222.60856727104726
 20
68.46507643779745
 30
78.0
 10
217.28736520844475
 20
68.50444416431885
 30
78.0
 10
211.96617797623594
 20
68.54544742144739
 30
78.0
 10
206.6450064323216
 20
68.58809331511185
 30
78.0
 10
201.32385191552052
 20
68.63243206357784
 30
78.0
 10
196.00271505233013
 20
68.67842975489064
 30
78.0
 10
190.68159731426138
 20
68.72613601255779
 30
78.0
 10
180.28608721981828
 20
68.82257399158296
 30
78.0
 10
175.21169298289638
 20
68.87115631156145
 30
78.0
 10
170.13731741655045
 20
68.92121560090693
 30
78.0
 10
165.06296102196964
 20
68.97269432908197
 30
78.0
 10
159.9886240060809
 20
69.0255066293458
 30
78.0
 10
154.91430612808463
 20
69.07952165832863
 30
78.0
 10
149.84000639829765
 20
69.1345317204417
 30
78.0
 10
143.18502806449186
 20
69.20754803796522
 30
78.0
 10
141.6043350546337
 20
69.22495568925326
 30
78.0
 10
140.02364348729472
 20
69.24241401551524
 30
78.0
 10
138.44295330231355
 20
69.25991339511901
 30
78.0
 10
136.86226449180032
 20
69.27744868027226
 30
78.0
 10
135.28157710013656
 20
69.29501919702237
 30
78.0
 10
133.70089122397516
 20
69.31262874525649
 30
78.0
 10
127.6243126054824
 20
69.38050647650536
 30
78.0
 10
123.12843209258196
 20
69.43107491794359
 30
78.0
 10
118.63256619946796
 20
69.48200750363375
 30
78.0
 10
114.13671593616766
 20
69.53326584900509
 30
78.0
 10
109.64088250819873
 20
69.58474477681037
 30
78.0
 10
105.14506612317035
 20
69.63615283965514
 30
78.0
 10
100.6492656979924
 20
69.68697690673746
 30
78.0
 10
94.1446358094773
 20
69.75770077367132
 30
78.0
 10
92.13580164078292
 20
69.7791543272574
 30
78.0
 10
90.12696841694442
 20
69.80010029500053
 30
78.0
 10
88.11813508465914
 20
69.82038026927678
 30
78.0
 10
86.10930100488355
 20
69.8397936801748
 30
78.0
 10
84.1004657847693
 20
69.8580776294178
 30
78.0
 10
82.09162897398949
 20
69.87486967255481
 30
78.0
 10
78.56520271596395
 20
69.90082209707985
 30
78.0
 10
77.04761795630111
 20
69.910844326558
 30
78.0
 10
75.53003195525099
 20
69.91949601937556
 30
78.0
 10
74.01244427949644
 20
69.92650236545872
 30
78.0
 10
72.49485744762833
 20
69.93151513933172
 30
78.0
 10
70.97727689519876
 20
69.93409249335063
 30
78.0
 10
69.45971089981099
 20
69.93365249542438
 30
78.0
 10
66.7517312275851
 20
69.9260133290915
 30
78.0
 10
65.56132369210917
 20
69.92029182652685
 30
78.0
 10
64.37093978985635
 20
69.91180723880773
 30
78.0
 10
63.18058582835506
 20
69.90007392268774
 30
78.0
 10
61.990283524341564
 20
69.88446935858721
 30
78.0
 10
60.80007044000993
 20
69.86420339797662
 30
78.0
 10
59.61000148825018
 20
69.838221893518
 30
78.0
 10
57.5617697113796
 20
69.78096209025838
 30
78.0
 10
56.703559654450856
 20
69.75317688742379
 30
78.0
 10
55.84550315226265
 20
69.72101528875868
 30
78.0
 10
54.98763336837705
 20
69.68374107773754
 30
78.0
 10
54.1300374744156
 20
69.64044169987375
 30
78.0
 10
53.27286611985638
 20
69.58988123807117
 30
78.0
 10
52.416335840746044
 20
69.53044370953536
 30
78.0
 10
51.1769550824412
 20
69.42763845945095
 30
78.0
 10
50.80542391330861
 20
69.39448894081798
 30
78.0
 10
50.445904769916474
 20
69.35999317695685
 30
78.0
 10
50.09809983129195
 20
69.32419188089213
 30
78.0
 10
49.761711118592686
 20
69.28704852198221
 30
78.0
 10
49.436427157330975
 20
69.24850792318932
 30
78.0
 10
49.12190623275084
 20
69.20859383851229
 30
78.0
 10
48.48598586058717
 20
69.12240087491125
 30
78.0
 10
48.1664415884864
 20
69.075846263014
 30
78.0
 10
47.85862400996736
 20
69.02774151603963
 30
78.0
 10
47.56202648749411
 20
68.97811593519093
 30
78.0
 10
47.27617342522505
 20
68.92699775694108
 30
78.0
 10
47.000620148466396
 20
68.8744147387826
 30
78.0
 10
46.734952783125564
 20
68.82039474497628
 30
78.0
 10
46.00283123357695
 20
68.66197969551273
 30
78.0
 10
45.530171848520965
 20
68.54774674582498
 30
78.0
 10
45.06061574608337
 20
68.420345224122
 30
78.0
 10
44.59491038153315
 20
68.27746532255242
 30
78.0
 10
44.13479118683625
 20
68.11629009739647
 30
78.0
 10
43.683027476026204
 20
67.93336864960875
 30
78.0
 10
43.24351391878267
 20
67.72436504409586
 30
78.0
 10
42.6540486593452
 20
67.38805604254642
 30
78.0
 10
42.489507874793524
 20
67.28761171466185
 30
78.0
 10
42.32821965705987
 20
67.1819279952084
 30
78.0
 10
42.170654733983554
 20
67.07071528078384
 30
78.0
 10
42.01735828904297
 20
66.95370954059824
 30
78.0
 10
41.86893284251991
 20
66.83069443524197
 30
78.0
 10
41.72601180788241
 20
66.70153533813559
 30
78.0
 10
41.371580127894674
 20
66.35093332035477
 30
78.0
 10
41.168912604076105
 20
66.11952562494074
 30
78.0
 10
40.98477621102861
 20
65.87271953415625
 30
78.0
 10
40.82165454551378
 20
65.61168555577969
 30
78.0
 10
40.68080049461916
 20
65.33814770860204
 30
78.0
 10
40.562225869477686
 20
65.05440844126782
 30
78.0
 10
40.46485292828871
 20
64.7632832134953
 30
78.0
 10
40.3521665320293
 20
64.33665333075778
 30
78.0
 10
40.321275486441344
 20
64.20438412875328
 30
78.0
 10
40.293995859688636
 20
64.07129758258938
 30
78.0
 10
40.27013224538788
 20
63.93755101589014
 30
78.0
 10
40.249475032028904
 20
63.80328209185974
 30
78.0
 10
40.23180774226642
 20
63.66860752595418
 30
78.0
 10
40.21691231067977
 20
63.53362215384945
 30
78.0
 10
40.19856704913836
 20
63.33259186088822
 30
78.0
 10
40.19316170922754
 20
63.26667158951088
 30
78.0
 10
40.18833309868241
 20
63.2006439936822
 30
78.0
 10
40.184058107014295
 20
63.134515558290786
 30
78.0
 10
40.1803136948319
 20
63.068292800006
 30
78.0
 10
40.17707689384137
 20
63.00198226727796
 30
78.0
 10
40.174324806846236
 20
62.93559054033756
 30
78.0
 10
40.17203460774746
 20
62.86912423119641
 30
78.0
  0
ENDSEC
  0
SECTION
  2
OBJECTS
  0
DICTIONARY
  5
A
330
0
100
AcDbDictionary
281
1
  3
ACAD_COLOR
350
B
  3
ACAD_GROUP
350
C
  3
ACAD_LAYOUT
350
D
  3
ACAD_MATERIAL
350
E
  3
ACAD_MLEADERSTYLE
350
F
  3
ACAD_MLINESTYLE
350
10
  3
ACAD_PLOTSETTINGS
350
11
  3
ACAD_PLOTSTYLENAME
350
12
  3
ACAD_SCALELIST
350
14
  3
ACAD_TABLESTYLE
350
15
  3
ACAD_VISUALSTYLE
350
16
  3
EZDXF_META
350
2D
  0
DICTIONARY
  5
B
330
A
100
AcDbDictionary
281
1
  0
DICTIONARY
  5
C
330
A
100
AcDbDictionary
281
1
  0
DICTIONARY
  5
D
330
A
100
AcDbDictionary
281
1
  3
Model
350
1A
  3
Layout1
350
1E
  0
DICTIONARY
  5
E
330
A
100
AcDbDictionary
281
1
  3
ByBlock
350
1F
  3
ByLayer
350
20
  3
Global
350
21
  0
DICTIONARY
  5
F
330
A
100
AcDbDictionary
281
1
  3
Standard
350
2C
  0
DICTIONARY
  5
10
330
A
100
AcDbDictionary
281
1
  3
Standard
350
22
  0
DICTIONARY
  5
11
330
A
100
AcDbDictionary
281
1
  0
ACDBDICTIONARYWDFLT
  5
12
330
A
100
AcDbDictionary
281
1
  3
Normal
350
13
100
AcDbDictionaryWithDefault
340
13
  0
ACDBPLACEHOLDER
  5
13
330
12
  0
DICTIONARY
  5
14
330
A
100
AcDbDictionary
281
1
  0
DICTIONARY
  5
15
330
A
100
AcDbDictionary
281
1
  0
DICTIONARY
  5
16
330
A
100
AcDbDictionary
281
1
  0
LAYOUT
  5
1A
330
D
100
AcDbPlotSettings
  1

  2
Adobe PDF
  4
A3
  6

 40
7.5
 41
20.0
 42
7.5
 43
20.0
 44
420.0
 45
297.0
 46
0.0
 47
0.0
 48
0.0
 49
0.0
140
0.0
141
0.0
142
1.0
143
1.0
 70
1024
 72
1
 73
1
 74
5
  7

 75
16
 76
0
 77
2
 78
300
147
1.0
148
0.0
149
0.0
100
AcDbLayout
  1
Model
 70
1
 71
0
 10
0.0
 20
0.0
 11
420.0
 21
297.0
 12
0.0
 22
0.0
 32
0.0
 14
1e+20
 24
1e+20
 34
1e+20
 15
-1e+20
 25
-1e+20
 35
-1e+20
146
0.0
 13
0.0
 23
0.0
 33
0.0
 16
1.0
 26
0.0
 36
0.0
 17
0.0
 27
1.0
 37
0.0
 76
1
330
17
  0
LAYOUT
  5
1E
330
D
100
AcDbPlotSettings
  1

  2
Adobe PDF
  4
A3
  6

 40
7.5
 41
20.0
 42
7.5
 43
20.0
 44
420.0
 45
297.0
 46
0.0
 47
0.0
 48
0.0
 49
0.0
140
0.0
141
0.0
142
1.0
143
1.0
 70
0
 72
1
 73
1
 74
5
  7

 75
16
 76
0
 77
2
 78
300
147
1.0
148
0.0
149
0.0
100
AcDbLayout
  1
Layout1
 70
1
 71
1
 10
0.0
 20
0.0
 11
420.0
 21
297.0
 12
0.0
 22
0.0
 32
0.0
 14
1e+20
 24
1e+20
 34
1e+20
 15
-1e+20
 25
-1e+20
 35
-1e+20
146
0.0
 13
0.0
 23
0.0
 33
0.0
 16
1.0
 26
0.0
 36
0.0
 17
0.0
 27
1.0
 37
0.0
 76
1
330
1B
  0
MATERIAL
  5
1F
102
{ACAD_REACTORS
330
E
102
}
330
E
100
AcDbMaterial
  1
ByBlock
  2

 70
0
 40
1.0
 71
1
 41
1.0
 91
-1023410177
 42
1.0
 72
1
  3

 73
1
 74
1
 75
1
 44
0.5
 73
0
 45
1.0
 46
1.0
 77
1
  4

 78
1
 79
1
170
1
 48
1.0
171
1
  6

172
1
173
1
174
1
140
1.0
141
1.0
175
1
  7

176
1
177
1
178
1
143
1.0
179
1
  8

270
1
271
1
272
1
145
1.0
146
1.0
273
1
  9

274
1
275
1
276
1
 42
1.0
 72
1
  3

 73
1
 74
1
 75
1
 94
63
  0
MATERIAL
  5
20
102
{ACAD_REACTORS
330
E
102
}
330
E
100
AcDbMaterial
  1
ByLayer
  2

 70
0
 40
1.0
 71
1
 41
1.0
 91
-1023410177
 42
1.0
 72
1
  3

 73
1
 74
1
 75
1
 44
0.5
 73
0
 45
1.0
 46
1.0
 77
1
  4

 78
1
 79
1
170
1
 48
1.0
171
1
  6

172
1
173
1
174
1
140
1.0
141
1.0
175
1
  7

176
1
177
1
178
1
143
1.0
179
1
  8

270
1
271
1
272
1
145
1.0
146
1.0
273
1
  9

274
1
275
1
276
1
 42
1.0
 72
1
  3

 73
1
 74
1
 75
1
 94
63
  0
MATERIAL
  5
21
102
{ACAD_REACTORS
330
E
102
}
330
E
100
AcDbMaterial
  1
Global
  2

 70
0
 40
1.0
 71
1
 41
1.0
 91
-1023410177
 42
1.0
 72
1
  3

 73
1
 74
1
 75
1
 44
0.5
 73
0
 45
1.0
 46
1.0
 77
1
  4

 78
1
 79
1
170
1
 48
1.0
171
1
  6

172
1
173
1
174
1
140
1.0
141
1.0
175
1
  7

176
1
177
1
178
1
143
1.0
179
1
  8

270
1
271
1
272
1
145
1.0
146
1.0
273
1
  9

274
1
275
1
276
1
 42
1.0
 72
1
  3

 73
1
 74
1
 75
1
 94
63
  0
MLINESTYLE
  5
22
102
{ACAD_REACTORS
330
10
102
}
330
10
100
AcDbMlineStyle
  2
Standard
 70
0
  3

 62
256
 51
90.0
 52
90.0
 71
2
 49
0.5
 62
256
  6
BYLAYER
 49
-0.5
 62
256
  6
BYLAYER
  0
MLEADERSTYLE
  5
2C
102
{ACAD_REACTORS
330
F
102
}
330
F
100
AcDbMLeaderStyle
179
2
170
2
171
1
172
0
 90
2
 40
0.0
 41
0.0
173
1
 91
-1056964608
 92
-2
290
1
 42
2.0
291
1
 43
8.0
  3
Standard
 44
4.0
300

342
29
174
1
175
1
176
0
178
1
 93
-1056964608
 45
4.0
292
0
297
0
 46
4.0
 94
-1056964608
 47
1.0
 49
1.0
140
1.0
294
1
141
0.0
177
0
142
1.0
295
0
296
0
143
3.75
271
0
272
9
273
9
  0
DICTIONARY
  5
2D
330
A
100
AcDbDictionary
280
1
281
1
  3
CREATED_BY_EZDXF
350
2E
  3
WRITTEN_BY_EZDXF
350
159
  0
DICTIONARYVAR
  5
2E
330
2D
100
DictionaryVariables
280
0
  1
0.17 @ 2022-02-15T16:54:17.148992+00:00
  0
DICTIONARYVAR
  5
159
330
2D
100
DictionaryVariables
280
0
  1
0.17 @ 2022-02-15T16:54:17.506758+00:00
  0
ENDSEC
  0
EOF
