  0
SECTION
  2
HEADER
  9
$ACADVER
  1
AC1027
  9
$ACADMAINTVER
 70
105
  9
$DWGCODEPAGE
  3
ANSI_1252
  9
$LASTSAVEDBY
  1
ezdxf
  9
$REQUIREDVERSIONS
160
0
  9
$INSBASE
 10
0.0
 20
0.0
 30
0.0
  9
$EXTMIN
 10
1e+20
 20
1e+20
 30
1e+20
  9
$EXTMAX
 10
-1e+20
 20
-1e+20
 30
-1e+20
  9
$LIMMIN
 10
0.0
 20
0.0
  9
$LIMMAX
 10
420.0
 20
297.0
  9
$ORTHOMODE
 70
0
  9
$REGENMODE
 70
1
  9
$FILLMODE
 70
1
  9
$QTEXTMODE
 70
0
  9
$MIRRTEXT
 70
1
  9
$LTSCALE
 40
1.0
  9
$ATTMODE
 70
1
  9
$TEXTSIZE
 40
2.5
  9
$TRACEWID
 40
1.0
  9
$TEXTSTYLE
  7
Standard
  9
$CLAYER
  8
0
  9
$CELTYPE
  6
ByLayer
  9
$CECOLOR
 62
256
  9
$CELTSCALE
 40
1.0
  9
$DISPSILH
 70
0
  9
$DIMSCALE
 40
1.0
  9
$DIMASZ
 40
2.5
  9
$DIMEXO
 40
0.625
  9
$DIMDLI
 40
3.75
  9
$DIMRND
 40
0.0
  9
$DIMDLE
 40
0.0
  9
$DIMEXE
 40
1.25
  9
$DIMTP
 40
0.0
  9
$DIMTM
 40
0.0
  9
$DIMTXT
 40
2.5
  9
$DIMCEN
 40
2.5
  9
$DIMTSZ
 40
0.0
  9
$DIMTOL
 70
0
  9
$DIMLIM
 70
0
  9
$DIMTIH
 70
0
  9
$DIMTOH
 70
0
  9
$DIMSE1
 70
0
  9
$DIMSE2
 70
0
  9
$DIMTAD
 70
1
  9
$DIMZIN
 70
8
  9
$DIMBLK
  1

  9
$DIMASO
 70
1
  9
$DIMSHO
 70
1
  9
$DIMPOST
  1

  9
$DIMAPOST
  1

  9
$DIMALT
 70
0
  9
$DIMALTD
 70
3
  9
$DIMALTF
 40
0.03937007874
  9
$DIMLFAC
 40
1.0
  9
$DIMTOFL
 70
1
  9
$DIMTVP
 40
0.0
  9
$DIMTIX
 70
0
  9
$DIMSOXD
 70
0
  9
$DIMSAH
 70
0
  9
$DIMBLK1
  1

  9
$DIMBLK2
  1

  9
$DIMSTYLE
  2
ISO-25
  9
$DIMCLRD
 70
0
  9
$DIMCLRE
 70
0
  9
$DIMCLRT
 70
0
  9
$DIMTFAC
 40
1.0
  9
$DIMGAP
 40
0.625
  9
$DIMJUST
 70
0
  9
$DIMSD1
 70
0
  9
$DIMSD2
 70
0
  9
$DIMTOLJ
 70
0
  9
$DIMTZIN
 70
8
  9
$DIMALTZ
 70
0
  9
$DIMALTTZ
 70
0
  9
$DIMUPT
 70
0
  9
$DIMDEC
 70
2
  9
$DIMTDEC
 70
2
  9
$DIMALTU
 70
2
  9
$DIMALTTD
 70
3
  9
$DIMTXSTY
  7
Standard
  9
$DIMAUNIT
 70
0
  9
$DIMADEC
 70
0
  9
$DIMALTRND
 40
0.0
  9
$DIMAZIN
 70
0
  9
$DIMDSEP
 70
44
  9
$DIMATFIT
 70
3
  9
$DIMFRAC
 70
0
  9
$DIMLDRBLK
  1

  9
$DIMLUNIT
 70
2
  9
$DIMLWD
 70
-2
  9
$DIMLWE
 70
-2
  9
$DIMTMOVE
 70
0
  9
$DIMFXL
 40
1.0
  9
$DIMFXLON
 70
0
  9
$DIMJOGANG
 40
0.785398163397
  9
$DIMTFILL
 70
0
  9
$DIMTFILLCLR
 70
0
  9
$DIMARCSYM
 70
0
  9
$DIMLTYPE
  6

  9
$DIMLTEX1
  6

  9
$DIMLTEX2
  6

  9
$DIMTXTDIRECTION
 70
0
  9
$LUNITS
 70
2
  9
$LUPREC
 70
4
  9
$SKETCHINC
 40
1.0
  9
$FILLETRAD
 40
10.0
  9
$AUNITS
 70
0
  9
$AUPREC
 70
2
  9
$MENU
  1
.
  9
$ELEVATION
 40
0.0
  9
$PELEVATION
 40
0.0
  9
$THICKNESS
 40
0.0
  9
$LIMCHECK
 70
0
  9
$CHAMFERA
 40
0.0
  9
$CHAMFERB
 40
0.0
  9
$CHAMFERC
 40
0.0
  9
$CHAMFERD
 40
0.0
  9
$SKPOLY
 70
0
  9
$TDCREATE
 40
2459626.7460648147
  9
$TDUCREATE
 40
2458532.153996898
  9
$TDUPDATE
 40
2459626.7460648147
  9
$TDUUPDATE
 40
2458532.1544311
  9
$TDINDWG
 40
0.0
  9
$TDUSRTIMER
 40
0.0
  9
$USRTIMER
 70
1
  9
$ANGBASE
 50
0.0
  9
$ANGDIR
 70
0
  9
$PDMODE
 70
0
  9
$PDSIZE
 40
0.0
  9
$PLINEWID
 40
0.0
  9
$SPLFRAME
 70
0
  9
$SPLINETYPE
 70
6
  9
$SPLINESEGS
 70
8
  9
$HANDSEED
  5
14F
  9
$SURFTAB1
 70
6
  9
$SURFTAB2
 70
6
  9
$SURFTYPE
 70
6
  9
$SURFU
 70
6
  9
$SURFV
 70
6
  9
$UCSBASE
  2

  9
$UCSNAME
  2

  9
$UCSORG
 10
0.0
 20
0.0
 30
0.0
  9
$UCSXDIR
 10
1.0
 20
0.0
 30
0.0
  9
$UCSYDIR
 10
0.0
 20
1.0
 30
0.0
  9
$UCSORTHOREF
  2

  9
$UCSORTHOVIEW
 70
0
  9
$UCSORGTOP
 10
0.0
 20
0.0
 30
0.0
  9
$UCSORGBOTTOM
 10
0.0
 20
0.0
 30
0.0
  9
$UCSORGLEFT
 10
0.0
 20
0.0
 30
0.0
  9
$UCSORGRIGHT
 10
0.0
 20
0.0
 30
0.0
  9
$UCSORGFRONT
 10
0.0
 20
0.0
 30
0.0
  9
$UCSORGBACK
 10
0.0
 20
0.0
 30
0.0
  9
$PUCSBASE
  2

  9
$PUCSNAME
  2

  9
$PUCSORG
 10
0.0
 20
0.0
 30
0.0
  9
$PUCSXDIR
 10
1.0
 20
0.0
 30
0.0
  9
$PUCSYDIR
 10
0.0
 20
1.0
 30
0.0
  9
$PUCSORTHOREF
  2

  9
$PUCSORTHOVIEW
 70
0
  9
$PUCSORGTOP
 10
0.0
 20
0.0
 30
0.0
  9
$PUCSORGBOTTOM
 10
0.0
 20
0.0
 30
0.0
  9
$PUCSORGLEFT
 10
0.0
 20
0.0
 30
0.0
  9
$PUCSORGRIGHT
 10
0.0
 20
0.0
 30
0.0
  9
$PUCSORGFRONT
 10
0.0
 20
0.0
 30
0.0
  9
$PUCSORGBACK
 10
0.0
 20
0.0
 30
0.0
  9
$USERI1
 70
0
  9
$USERI2
 70
0
  9
$USERI3
 70
0
  9
$USERI4
 70
0
  9
$USERI5
 70
0
  9
$USERR1
 40
0.0
  9
$USERR2
 40
0.0
  9
$USERR3
 40
0.0
  9
$USERR4
 40
0.0
  9
$USERR5
 40
0.0
  9
$WORLDVIEW
 70
1
  9
$SHADEDGE
 70
3
  9
$SHADEDIF
 70
70
  9
$TILEMODE
 70
1
  9
$MAXACTVP
 70
64
  9
$PINSBASE
 10
0.0
 20
0.0
 30
0.0
  9
$PLIMCHECK
 70
0
  9
$PEXTMIN
 10
1e+20
 20
1e+20
 30
1e+20
  9
$PEXTMAX
 10
-1e+20
 20
-1e+20
 30
-1e+20
  9
$PLIMMIN
 10
0.0
 20
0.0
  9
$PLIMMAX
 10
420.0
 20
297.0
  9
$UNITMODE
 70
0
  9
$VISRETAIN
 70
1
  9
$PLINEGEN
 70
0
  9
$PSLTSCALE
 70
1
  9
$TREEDEPTH
 70
3020
  9
$CMLSTYLE
  2
Standard
  9
$CMLJUST
 70
0
  9
$CMLSCALE
 40
20.0
  9
$PROXYGRAPHICS
 70
1
  9
$MEASUREMENT
 70
1
  9
$CELWEIGHT
370
-1
  9
$ENDCAPS
280
0
  9
$JOINSTYLE
280
0
  9
$LWDISPLAY
290
0
  9
$INSUNITS
 70
6
  9
$HYPERLINKBASE
  1

  9
$STYLESHEET
  1

  9
$XEDIT
290
1
  9
$CEPSNTYPE
380
0
  9
$PSTYLEMODE
290
1
  9
$FINGERPRINTGUID
  2
{579C3205-CBC7-4A91-86DF-E52329C5D429}
  9
$VERSIONGUID
  2
{44D2C667-A45F-410C-9592-543E57EDC49C}
  9
$EXTNAMES
290
1
  9
$PSVPSCALE
 40
0.0
  9
$OLESTARTUP
290
0
  9
$SORTENTS
280
127
  9
$INDEXCTL
280
0
  9
$HIDETEXT
280
1
  9
$XCLIPFRAME
280
0
  9
$HALOGAP
280
0
  9
$OBSCOLOR
 70
257
  9
$OBSLTYPE
280
0
  9
$INTERSECTIONDISPLAY
280
0
  9
$INTERSECTIONCOLOR
 70
257
  9
$DIMASSOC
280
2
  9
$PROJECTNAME
  1

  9
$CAMERADISPLAY
290
0
  9
$LENSLENGTH
 40
50.0
  9
$CAMERAHEIGHT
 40
0.0
  9
$STEPSPERSEC
 40
24.0
  9
$STEPSIZE
 40
100.0
  9
$3DDWFPREC
 40
2.0
  9
$PSOLWIDTH
 40
0.005
  9
$PSOLHEIGHT
 40
0.08
  9
$LOFTANG1
 40
1.570796326795
  9
$LOFTANG2
 40
1.570796326795
  9
$LOFTMAG1
 40
0.0
  9
$LOFTMAG2
 40
0.0
  9
$LOFTPARAM
 70
7
  9
$LOFTNORMALS
280
1
  9
$LATITUDE
 40
37.795
  9
$LONGITUDE
 40
-122.394
  9
$NORTHDIRECTION
 40
0.0
  9
$TIMEZONE
 70
-8000
  9
$LIGHTGLYPHDISPLAY
280
1
  9
$TILEMODELIGHTSYNCH
280
1
  9
$CMATERIAL
347
20
  9
$SOLIDHIST
280
0
  9
$SHOWHIST
280
1
  9
$DWFFRAME
280
2
  9
$DGNFRAME
280
2
  9
$REALWORLDSCALE
290
1
  9
$INTERFERECOLOR
 62
256
  9
$CSHADOW
280
0
  9
$SHADOWPLANELOCATION
 40
0.0
  0
ENDSEC
  0
SECTION
  2
CLASSES
  0
CLASS
  1
ACDBDICTIONARYWDFLT
  2
AcDbDictionaryWithDefault
  3
ObjectDBX Classes
 90
0
 91
0
280
0
281
0
  0
CLASS
  1
SUN
  2
AcDbSun
  3
SCENEOE
 90
1153
 91
0
280
0
281
0
  0
CLASS
  1
VISUALSTYLE
  2
AcDbVisualStyle
  3
ObjectDBX Classes
 90
4095
 91
0
280
0
281
0
  0
CLASS
  1
MATERIAL
  2
AcDbMaterial
  3
ObjectDBX Classes
 90
1153
 91
0
280
0
281
0
  0
CLASS
  1
SCALE
  2
AcDbScale
  3
ObjectDBX Classes
 90
1153
 91
0
280
0
281
0
  0
CLASS
  1
TABLESTYLE
  2
AcDbTableStyle
  3
ObjectDBX Classes
 90
4095
 91
0
280
0
281
0
  0
CLASS
  1
MLEADERSTYLE
  2
AcDbMLeaderStyle
  3
ACDB_MLEADERSTYLE_CLASS
 90
4095
 91
0
280
0
281
0
  0
CLASS
  1
DICTIONARYVAR
  2
AcDbDictionaryVar
  3
ObjectDBX Classes
 90
0
 91
0
280
0
281
0
  0
CLASS
  1
CELLSTYLEMAP
  2
AcDbCellStyleMap
  3
ObjectDBX Classes
 90
1152
 91
0
280
0
281
0
  0
CLASS
  1
MENTALRAYRENDERSETTINGS
  2
AcDbMentalRayRenderSettings
  3
SCENEOE
 90
1024
 91
0
280
0
281
0
  0
CLASS
  1
ACDBDETAILVIEWSTYLE
  2
AcDbDetailViewStyle
  3
ObjectDBX Classes
 90
1025
 91
0
280
0
281
0
  0
CLASS
  1
ACDBSECTIONVIEWSTYLE
  2
AcDbSectionViewStyle
  3
ObjectDBX Classes
 90
1025
 91
0
280
0
281
0
  0
CLASS
  1
RASTERVARIABLES
  2
AcDbRasterVariables
  3
ISM
 90
0
 91
0
280
0
281
0
  0
CLASS
  1
ACDBPLACEHOLDER
  2
AcDbPlaceHolder
  3
ObjectDBX Classes
 90
0
 91
0
280
0
281
0
  0
CLASS
  1
LAYOUT
  2
AcDbLayout
  3
ObjectDBX Classes
 90
0
 91
0
280
0
281
0
  0
ENDSEC
  0
SECTION
  2
TABLES
  0
TABLE
  2
VPORT
  5
8
330
0
100
AcDbSymbolTable
 70
1
  0
VPORT
  5
23
330
8
100
AcDbSymbolTableRecord
100
AcDbViewportTableRecord
  2
*Active
 70
0
 10
0.0
 20
0.0
 11
1.0
 21
1.0
 12
344.2
 22
148.5
 13
0.0
 23
0.0
 14
0.5
 24
0.5
 15
0.5
 25
0.5
 16
0.0
 26
0.0
 36
1.0
 17
0.0
 27
0.0
 37
0.0
 40
297.0
 41
1.34
 42
50.0
 43
0.0
 44
0.0
 50
0.0
 51
0.0
 71
0
 72
1000
 73
1
 74
3
 75
0
 76
0
 77
0
 78
0
281
0
 65
0
146
0.0
  0
ENDTAB
  0
TABLE
  2
LTYPE
  5
2
330
0
100
AcDbSymbolTable
 70
3
  0
LTYPE
  5
24
330
2
100
AcDbSymbolTableRecord
100
AcDbLinetypeTableRecord
  2
ByBlock
 70
0
  3

 72
65
 73
0
 40
0.0
  0
LTYPE
  5
25
330
2
100
AcDbSymbolTableRecord
100
AcDbLinetypeTableRecord
  2
ByLayer
 70
0
  3

 72
65
 73
0
 40
0.0
  0
LTYPE
  5
26
330
2
100
AcDbSymbolTableRecord
100
AcDbLinetypeTableRecord
  2
Continuous
 70
0
  3

 72
65
 73
0
 40
0.0
  0
ENDTAB
  0
TABLE
  2
LAYER
  5
1
330
0
100
AcDbSymbolTable
 70
2
  0
LAYER
  5
27
330
1
100
AcDbSymbolTableRecord
100
AcDbLayerTableRecord
  2
0
 70
0
 62
7
  6
Continuous
370
-3
390
13
347
21
  0
LAYER
  5
28
330
1
100
AcDbSymbolTableRecord
100
AcDbLayerTableRecord
  2
Defpoints
 70
0
 62
7
  6
Continuous
290
0
370
-3
390
13
347
21
  0
ENDTAB
  0
TABLE
  2
STYLE
  5
5
330
0
100
AcDbSymbolTable
 70
1
  0
STYLE
  5
29
330
5
100
AcDbSymbolTableRecord
100
AcDbTextStyleTableRecord
  2
Standard
 70
0
 40
0.0
 41
1.0
 50
0.0
 71
0
 42
2.5
  3
txt
  4

  0
ENDTAB
  0
TABLE
  2
VIEW
  5
7
330
0
100
AcDbSymbolTable
 70
0
  0
ENDTAB
  0
TABLE
  2
UCS
  5
6
330
0
100
AcDbSymbolTable
 70
0
  0
ENDTAB
  0
TABLE
  2
APPID
  5
3
330
0
100
AcDbSymbolTable
 70
3
  0
APPID
  5
2A
330
3
100
AcDbSymbolTableRecord
100
AcDbRegAppTableRecord
  2
ACAD
 70
0
  0
APPID
  5
14C
330
3
100
AcDbSymbolTableRecord
100
AcDbRegAppTableRecord
  2
HATCHBACKGROUNDCOLOR
 70
0
  0
APPID
  5
14D
330
3
100
AcDbSymbolTableRecord
100
AcDbRegAppTableRecord
  2
EZDXF
 70
0
  0
ENDTAB
  0
TABLE
  2
DIMSTYLE
  5
4
330
0
100
AcDbSymbolTable
 70
1
100
AcDbDimStyleTable
  0
DIMSTYLE
105
2B
330
4
100
AcDbSymbolTableRecord
100
AcDbDimStyleTableRecord
  2
Standard
 70
0
 40
1.0
 41
2.5
 42
0.625
 43
3.75
 44
1.25
 45
0.0
 46
0.0
 47
0.0
 48
0.0
 49
2.5
140
2.5
141
2.5
142
0.0
143
0.03937007874
144
1.0
145
0.0
146
1.0
147
0.625
148
0.0
 69
0
 70
0
 71
0
 72
0
 73
0
 74
0
 75
0
 76
0
 77
1
 78
8
 79
0
170
0
171
3
172
1
173
0
174
0
175
0
176
0
177
0
178
0
179
0
271
0
272
2
273
2
274
3
275
0
276
0
277
2
278
44
279
0
280
0
281
0
282
0
283
0
284
8
285
0
286
0
288
0
289
3
290
0
371
-2
372
-2
  0
ENDTAB
  0
TABLE
  2
BLOCK_RECORD
  5
9
330
0
100
AcDbSymbolTable
 70
2
  0
BLOCK_RECORD
  5
17
330
9
100
AcDbSymbolTableRecord
100
AcDbBlockTableRecord
  2
*Model_Space
340
1A
 70
0
280
1
281
0
  0
BLOCK_RECORD
  5
1B
330
9
100
AcDbSymbolTableRecord
100
AcDbBlockTableRecord
  2
*Paper_Space
340
1E
 70
0
280
1
281
0
  0
ENDTAB
  0
ENDSEC
  0
SECTION
  2
BLOCKS
  0
BLOCK
  5
18
330
17
100
AcDbEntity
  8
0
100
AcDbBlockBegin
  2
*Model_Space
 70
0
 10
0.0
 20
0.0
 30
0.0
  3
*Model_Space
  1

  0
ENDBLK
  5
19
330
17
100
AcDbEntity
  8
0
100
AcDbBlockEnd
  0
BLOCK
  5
1C
330
1B
100
AcDbEntity
  8
0
100
AcDbBlockBegin
  2
*Paper_Space
 70
0
 10
0.0
 20
0.0
 30
0.0
  3
*Paper_Space
  1

  0
ENDBLK
  5
1D
330
1B
100
AcDbEntity
  8
0
100
AcDbBlockEnd
  0
ENDSEC
  0
SECTION
  2
ENTITIES
  0
SPLINE
  5
2F
330
17
100
AcDbEntity
  8
0
100
AcDbSpline
 70
0
 71
8
 72
74
 73
65
 74
0
 40
0.0
 40
0.0
 40
0.0
 40
0.0
 40
0.0
 40
0.0
 40
0.0
 40
0.0
 40
0.0
 40
0.5243969180929311
 40
0.5243969180929311
 40
0.5243969180929311
 40
0.5243969180929311
 40
0.5243969180929311
 40
0.5243969180929311
 40
0.5243969180929311
 40
0.7393964053215313
 40
0.7393964053215313
 40
0.7393964053215313
 40
0.7393964053215313
 40
0.7393964053215313
 40
0.7393964053215313
 40
0.7393964053215313
 40
0.847120800055375
 40
0.847120800055375
 40
0.847120800055375
 40
0.847120800055375
 40
0.847120800055375
 40
0.847120800055375
 40
0.847120800055375
 40
0.9021628079928095
 40
0.9021628079928095
 40
0.9021628079928095
 40
0.9021628079928095
 40
0.9021628079928095
 40
0.9021628079928095
 40
0.9021628079928095
 40
0.9311561433088412
 40
0.9311561433088412
 40
0.9311561433088412
 40
0.9311561433088412
 40
0.9311561433088412
 40
0.9311561433088412
 40
0.9311561433088412
 40
0.9443360952304769
 40
0.9443360952304769
 40
0.9443360952304769
 40
0.9443360952304769
 40
0.9443360952304769
 40
0.9443360952304769
 40
0.9443360952304769
 40
0.9550098583576807
 40
0.9550098583576807
 40
0.9550098583576807
 40
0.9550098583576807
 40
0.9550098583576807
 40
0.9550098583576807
 40
0.9550098583576807
 40
0.9717463361406152
 40
0.9717463361406152
 40
0.9717463361406152
 40
0.9717463361406152
 40
0.9717463361406152
 40
0.9717463361406152
 40
0.9717463361406152
 40
1.0
 40
1.0
 40
1.0
 40
1.0
 40
1.0
 40
1.0
 40
1.0
 40
1.0
 40
1.0
 10
1888.899804845505
 20
65.17509897158567
 30
104.0
 10
1889.8974805488556
 20
65.40405432334978
 30
104.0
 10
1890.8949232000532
 20
65.63388821938452
 30
104.0
 10
1891.8921333890255
 20
65.86460842602061
 30
104.0
 10
1892.889104389158
 20
66.09622170482069
 30
104.0
 10
1893.88582370122
 20
66.32873544627437
 30
104.0
 10
1894.882268930691
 20
66.56214801861087
 30
104.0
 10
1895.8784097894954
 20
66.79646245365333
 30
104.0
 10
1897.28245083407
 20
67.12810589687282
 30
104.0
 10
1897.690647346339
 20
67.22468933354472
 30
104.0
 10
1898.0987769796577
 20
67.32142229845334
 30
104.0
 10
1898.5068353282506
 20
67.4183042637129
 30
104.0
 10
1898.9148120170298
 20
67.51533327282229
 30
104.0
 10
1899.322691232104
 20
67.61250605608288
 30
104.0
 10
1899.7304497839525
 20
67.70981754544081
 30
104.0
 10
1900.342272446987
 20
67.85608087874974
 30
104.0
 10
1900.5464508949185
 20
67.90493427583215
 30
104.0
 10
1900.7505822088388
 20
67.95381860998361
 30
104.0
 10
1900.9546609503418
 20
68.0027326265145
 30
104.0
 10
1901.1586745839597
 20
68.05167336067188
 30
104.0
 10
1901.3626040323668
 20
68.1006362641818
 30
104.0
 10
1901.5664213127718
 20
68.1496146234107
 30
104.0
 10
1901.8741373570047
 20
68.22362440762817
 30
104.0
 10
1901.978147080396
 20
68.24865119217239
 30
104.0
 10
1902.0821064420415
 20
68.2736769243311
 30
104.0
 10
1902.1860084729337
 20
68.29869992050655
 30
104.0
 10
1902.2898373325474
 20
68.32371635459124
 30
104.0
 10
1902.3935689601408
 20
68.34872041055455
 30
104.0
 10
1902.4971681042825
 20
68.37370355726208
 30
104.0
 10
1902.6550436919783
 20
68.41179233151435
 30
104.0
 10
1902.7094487467634
 20
68.42492104514257
 30
104.0
 10
1902.7637887085205
 20
68.43803709326122
 30
104.0
 10
1902.8180542817145
 20
68.45113822269512
 30
104.0
 10
1902.8722234029042
 20
68.46421909349819
 30
104.0
 10
1902.9262623324348
 20
68.47727153931095
 30
104.0
 10
1902.9801214934555
 20
68.49028355556949
 30
104.0
 10
1903.058078295537
 20
68.50912168884724
 30
104.0
 10
1903.0823806121016
 20
68.51499491594421
 30
104.0
 10
1903.1066166250728
 20
68.52085272729241
 30
104.0
 10
1903.1307762597235
 20
68.52669268282864
 30
104.0
 10
1903.154842558013
 20
68.5325106772222
 30
104.0
 10
1903.1787892286652
 20
68.53830034566921
 30
104.0
 10
1903.202578197239
 20
68.54405246968707
 30
104.0
 10
1903.2452525386602
 20
68.55437206827371
 30
104.0
 10
1903.2632069249732
 20
68.55871421547438
 30
104.0
 10
1903.2799818916296
 20
68.56277144667662
 30
104.0
 10
1903.295568428674
 20
68.56654150794088
 30
104.0
 10
1903.309986939702
 20
68.57002926922219
 30
104.0
 10
1903.3232872418616
 20
68.57324672437014
 30
104.0
 10
1903.3355485658547
 20
68.5762129911289
 30
104.0
 10
1903.3646465666409
 20
68.58325270532745
 30
104.0
 10
1903.3799826308123
 20
68.58696329433303
 30
104.0
 10
1903.3930831636815
 20
68.59013321869281
 30
104.0
 10
1903.404143117664
 20
68.59280953617576
 30
104.0
 10
1903.4133569823537
 20
68.59503922178074
 30
104.0
 10
1903.4209187845236
 20
68.59686916773659
 30
104.0
 10
1903.4270220881283
 20
68.59834618350219
 30
104.0
 10
1903.4400270995127
 20
68.60149350101352
 30
104.0
 10
1903.4395254796775
 20
68.60134426648801
 30
104.0
 10
1903.4426351450911
 20
68.60224415027164
 30
104.0
 10
1903.4432003714687
 20
68.60202305927852
 30
104.0
 10
1903.4481360864054
 20
68.6037356525537
 30
104.0
 10
1903.4449538262897
 20
68.6024852535464
 30
104.0
 10
1903.4462311667603
 20
68.60307269042563
 30
104.0
 10
1903.4459563375394
 20
68.60292851426141
 30
104.0
  0
LINE
  5
30
330
17
100
AcDbEntity
  8
0
100
AcDbLine
 10
1888.9
 20
76.76579514599894
 30
104.0
 11
1888.9
 21
65.17514375736246
 31
104.0
  0
SPLINE
  5
31
330
17
100
AcDbEntity
  8
0
100
AcDbSpline
 70
0
 71
4
 72
10
 73
5
 74
0
 40
0.0
 40
0.0
 40
0.0
 40
0.0
 40
0.0
 40
1.0
 40
1.0
 40
1.0
 40
1.0
 40
1.0
 10
1885.099999410963
 20
75.99658732886134
 30
104.0
 10
1886.0501631222946
 20
76.18792341518169
 30
104.0
 10
1887.0002183019835
 20
76.37990244704537
 30
104.0
 10
1887.9501643316294
 20
76.57252590536895
 30
104.0
 10
1888.9000005888797
 20
76.76579526582212
 30
104.0
  0
LINE
  5
32
330
17
100
AcDbEntity
  8
0
100
AcDbLine
 10
1885.1
 20
75.99658744747668
 30
104.0
 11
1885.1
 21
64.308949469091
 31
104.0
  0
SPLINE
  5
33
330
17
100
AcDbEntity
  8
0
100
AcDbSpline
 70
0
 71
5
 72
24
 73
18
 74
0
 40
0.0
 40
0.0
 40
0.0
 40
0.0
 40
0.0
 40
0.0
 40
0.24303692353401793
 40
0.24303692353401793
 40
0.24303692353401793
 40
0.24303692353401793
 40
0.4904500599536011
 40
0.4904500599536011
 40
0.4904500599536011
 40
0.4904500599536011
 40
0.7431934129999722
 40
0.7431934129999722
 40
0.7431934129999722
 40
0.7431934129999722
 40
1.0
 40
1.0
 40
1.0
 40
1.0
 40
1.0
 40
1.0
 10
1885.0999999999633
 20
64.308949469253
 30
104.0
 10
1884.0228895268963
 20
64.06507424151148
 30
104.0
 10
1882.9455138090434
 20
63.82229652165618
 30
104.0
 10
1881.8678812443077
 20
63.58060558300862
 30
104.0
 10
1880.7899981962887
 20
63.33999064173398
 30
104.0
 10
1878.6143285675162
 20
62.856578281149346
 30
104.0
 10
1877.5165331668552
 20
62.61381959570589
 30
104.0
 10
1876.4184894589198
 20
62.37215401552069
 30
104.0
 10
1875.3202024131156
 20
62.131570775181665
 30
104.0
 10
1873.0994841990241
 20
61.647388160818466
 30
104.0
 10
1871.9770426533757
 20
61.40383547633332
 30
104.0
 10
1870.8543566745766
 20
61.16139030562783
 30
104.0
 10
1869.731430672175
 20
60.92004195795107
 30
104.0
 10
1867.467050292101
 20
60.435655706779094
 30
104.0
 10
1866.3255882802223
 20
60.19265301600406
 30
104.0
 10
1865.1838870185973
 20
59.950761245895194
 30
104.0
 10
1864.0419505679129
 20
59.70996997850921
 30
104.0
 10
1862.8997827458475
 20
59.47026917941071
 30
104.0
  0
LINE
  5
34
330
17
100
AcDbEntity
  8
0
100
AcDbLine
 10
1862.9
 20
71.66068203619125
 30
104.0
 11
1862.9
 21
59.470314773392076
 31
104.0
  0
SPLINE
  5
35
330
17
100
AcDbEntity
  8
0
100
AcDbSpline
 70
0
 71
4
 72
10
 73
5
 74
0
 40
0.0
 40
0.0
 40
0.0
 40
0.0
 40
0.0
 40
1.0
 40
1.0
 40
1.0
 40
1.0
 40
1.0
 10
1859.099999409865
 20
70.94511146830015
 30
104.0
 10
1860.0501500223975
 20
71.12307307652905
 30
104.0
 10
1861.0002008148347
 20
71.30165439449797
 30
104.0
 10
1861.9501512008103
 20
71.4808569204241
 30
104.0
 10
1862.9000005900211
 20
71.66068214789387
 30
104.0
  0
LINE
  5
36
330
17
100
AcDbEntity
  8
0
100
AcDbLine
 10
1859.1
 20
70.94511157883144
 30
104.0
 11
1859.1
 21
58.677837040317186
 31
104.0
  0
SPLINE
  5
37
330
17
100
AcDbEntity
  8
0
100
AcDbSpline
 70
0
 71
4
 72
19
 73
14
 74
0
 40
0.0
 40
0.0
 40
0.0
 40
0.0
 40
0.0
 40
0.24337129271088373
 40
0.24337129271088373
 40
0.24337129271088373
 40
0.491186916508914
 40
0.491186916508914
 40
0.491186916508914
 40
0.743433191916996
 40
0.743433191916996
 40
0.743433191916996
 40
1.0
 40
1.0
 40
1.0
 40
1.0
 40
1.0
 10
1859.0999999999958
 20
58.67783704033658
 30
104.0
 10
1857.7512238266306
 20
58.398320057386655
 30
104.0
 10
1856.4021148475258
 20
58.12039437507405
 30
104.0
 10
1855.0526805742966
 20
57.844039945930106
 30
104.0
 10
1852.3285266812597
 20
57.289417759429014
 30
104.0
 10
1850.9537953298536
 20
57.01120722167969
 30
104.0
 10
1849.5787411210754
 20
56.73458659714428
 30
104.0
 10
1846.803410406924
 20
56.17957061604146
 30
104.0
 10
1845.4031224994364
 20
55.90123194752522
 30
104.0
 10
1844.002514121982
 20
55.624501867147984
 30
104.0
 10
1841.1766742234397
 20
55.069509707273276
 30
104.0
 10
1839.7514318608253
 20
54.79130256284911
 30
104.0
 10
1838.325871644199
 20
54.514721495434365
 30
104.0
 10
1836.8999999999985
 20
54.239748459919554
 30
104.0
  0
LINE
  5
38
330
17
100
AcDbEntity
  8
0
100
AcDbLine
 10
1836.9
 20
66.91626502051422
 30
104.0
 11
1836.9
 21
54.23974845991016
 31
104.0
  0
SPLINE
  5
39
330
17
100
AcDbEntity
  8
0
100
AcDbSpline
 70
0
 71
4
 72
10
 73
5
 74
0
 40
0.0
 40
0.0
 40
0.0
 40
0.0
 40
0.0
 40
1.0
 40
1.0
 40
1.0
 40
1.0
 40
1.0
 10
1833.099999408819
 20
66.25218425230457
 30
104.0
 10
1834.0501376824882
 20
66.41730807931528
 30
104.0
 10
1835.0001843415012
 20
66.58302849264916
 30
104.0
 10
1835.9501388307208
 20
66.74934700472413
 30
104.0
 10
1836.9000005911132
 20
66.91626512389689
 30
104.0
  0
LINE
  5
3A
330
17
100
AcDbEntity
  8
0
100
AcDbLine
 10
1833.1
 20
66.25218435640662
 30
104.0
 11
1833.1
 21
53.511353712387006
 31
104.0
  0
SPLINE
  5
3B
330
17
100
AcDbEntity
  8
0
100
AcDbSpline
 70
0
 71
4
 72
19
 73
14
 74
0
 40
0.0
 40
0.0
 40
0.0
 40
0.0
 40
0.0
 40
0.24431842242152552
 40
0.24431842242152552
 40
0.24431842242152552
 40
0.4924479113948725
 40
0.4924479113948725
 40
0.4924479113948725
 40
0.7443658912818832
 40
0.7443658912818832
 40
0.7443658912818832
 40
1.0
 40
1.0
 40
1.0
 40
1.0
 40
1.0
 10
1833.0999999999967
 20
53.511353712402624
 30
104.0
 10
1831.7456274483093
 20
53.25330992650019
 30
104.0
 10
1830.390981702476
 20
52.99669451131733
 30
104.0
 10
1829.0360680013223
 20
52.7414927326786
 30
104.0
 10
1826.3045754615766
 20
52.22992951618141
 30
104.0
 10
1824.9279883532995
 20
51.973612089148645
 30
104.0
 10
1823.5511351106081
 20
51.718723740980955
 30
104.0
 10
1820.7758799995156
 20
51.20790754317855
 30
104.0
 10
1819.377470092899
 20
50.95202323888146
 30
104.0
 10
1817.9787959441949
 20
50.69758333541368
 30
104.0
 10
1815.1602925780799
 20
50.18783281588518
 30
104.0
 10
1813.7404556519111
 20
49.93256471218201
 30
104.0
 10
1812.320356551236
 20
49.67875565210962
 30
104.0
 10
1810.8999999999971
 20
49.426392090540915
 30
104.0
  0
LINE
  5
3C
330
17
100
AcDbEntity
  8
0
100
AcDbLine
 10
1810.9
 20
62.51796798429814
 30
104.0
 11
1810.9
 21
49.42639209052526
 31
104.0
  0
SPLINE
  5
3D
330
17
100
AcDbEntity
  8
0
100
AcDbSpline
 70
0
 71
4
 72
10
 73
5
 74
0
 40
0.0
 40
0.0
 40
0.0
 40
0.0
 40
0.0
 40
1.0
 40
1.0
 40
1.0
 40
1.0
 40
1.0
 10
1807.0999994077938
 20
61.90326916125839
 30
104.0
 10
1808.0501260702576
 20
62.05608198926453
 30
104.0
 10
1809.0001688389648
 20
62.20946840290653
 30
104.0
 10
1809.9501271891152
 20
62.363429926005544
 30
104.0
 10
1810.900000592071
 20
62.51796807884481
 30
104.0
  0
LINE
  5
3E
330
17
100
AcDbEntity
  8
0
100
AcDbLine
 10
1807.1
 20
61.90326925700781
 30
104.0
 11
1807.1
 21
48.75520685443068
 31
104.0
  0
SPLINE
  5
3F
330
17
100
AcDbEntity
  8
0
100
AcDbSpline
 70
0
 71
4
 72
19
 73
14
 74
0
 40
0.0
 40
0.0
 40
0.0
 40
0.0
 40
0.0
 40
0.24503972684184114
 40
0.24503972684184114
 40
0.24503972684184114
 40
0.4933982507273559
 40
0.4933982507273559
 40
0.4933982507273559
 40
0.7450666035475181
 40
0.7450666035475181
 40
0.7450666035475181
 40
1.0
 40
1.0
 40
1.0
 40
1.0
 40
1.0
 10
1807.1000000000024
 20
48.755206854415995
 30
104.0
 10
1805.7413730214562
 20
48.51665370913885
 30
104.0
 10
1804.3825163159072
 20
48.279405979761734
 30
104.0
 10
1803.023433844133
 20
48.04345233406091
 30
104.0
 10
1800.2864146113682
 20
47.570933133042196
 30
104.0
 10
1798.9084717955293
 20
47.33440257923124
 30
104.0
 10
1797.5303048542166
 20
47.0991789755884
 30
104.0
 10
1794.7551606548002
 20
46.62820669163616
 30
104.0
 10
1793.3581774837958
 20
46.392492789003164
 30
104.0
 10
1791.9609718773945
 20
46.158098709874224
 30
104.0
 10
1789.1479935472664
 20
45.68890496206049
 30
104.0
 10
1787.7322151127316
 20
45.45413947307688
 30
104.0
 10
1786.316216044849
 20
45.22070631742072
 30
104.0
 10
1784.8999999999953
 20
44.988594885860046
 30
104.0
  0
LINE
  5
40
330
17
100
AcDbEntity
  8
0
100
AcDbLine
 10
1784.9
 20
58.45147903317143
 30
104.0
 11
1784.9
 21
44.988594885831574
 31
104.0
  0
SPLINE
  5
41
330
17
100
AcDbEntity
  8
0
100
AcDbSpline
 70
0
 71
4
 72
10
 73
5
 74
0
 40
0.0
 40
0.0
 40
0.0
 40
0.0
 40
0.0
 40
1.0
 40
1.0
 40
1.0
 40
1.0
 40
1.0
 10
1781.0999994068807
 20
57.88409162530388
 30
104.0
 10
1782.0501151536225
 20
58.02511089300953
 30
104.0
 10
1783.0001542644795
 20
58.1666808767859
 30
104.0
 10
1783.9501162440206
 20
58.30880310934892
 30
104.0
 10
1784.900000593056
 20
58.451479120355266
 30
104.0
  0
LINE
  5
42
330
17
100
AcDbEntity
  8
0
100
AcDbLine
 10
1781.1
 20
57.88409171490052
 30
104.0
 11
1781.1
 21
44.36944210058394
 31
104.0
  0
SPLINE
  5
43
330
17
100
AcDbEntity
  8
0
100
AcDbSpline
 70
0
 71
4
 72
19
 73
14
 74
0
 40
0.0
 40
0.0
 40
0.0
 40
0.0
 40
0.0
 40
0.24559206194802063
 40
0.24559206194802063
 40
0.24559206194802063
 40
0.49413336973375854
 40
0.49413336973375854
 40
0.49413336973375854
 40
0.7456145282406615
 40
0.7456145282406615
 40
0.7456145282406615
 40
1.0
 40
1.0
 40
1.0
 40
1.0
 40
1.0
 10
1781.0999999999947
 20
44.3694421006136
 30
104.0
 10
1779.738111897681
 20
44.14884595966843
 30
104.0
 10
1778.3760277203385
 20
43.92945845110173
 30
104.0
 10
1777.0137505961156
 20
43.711270543605345
 30
104.0
 10
1774.2724549820593
 20
43.27467059871115
 30
104.0
 10
1772.8934319017599
 20
43.05628734244554
 30
104.0
 10
1771.5142173983288
 20
42.83911471144319
 30
104.0
 10
1768.7390953365732
 20
42.40461882605713
 30
104.0
 10
1767.3431832941803
 20
42.1873241741217
 30
104.0
 10
1765.947081398868
 20
41.971251156883476
 30
104.0
 10
1763.1383782977591
 20
41.53904984579217
 30
104.0
 10
1761.725772751657
 20
41.32294972197957
 30
104.0
 10
1760.312979008007
 20
41.108081977516115
 30
104.0
 10
1758.9000000000035
 20
40.8944380269733
 30
104.0
  0
LINE
  5
44
330
17
100
AcDbEntity
  8
0
100
AcDbLine
 10
1758.9
 20
54.70273522206125
 30
104.0
 11
1758.9
 21
40.89443802699883
 31
104.0
  0
SPLINE
  5
45
330
17
100
AcDbEntity
  8
0
100
AcDbSpline
 70
0
 71
4
 72
10
 73
5
 74
0
 40
0.0
 40
0.0
 40
0.0
 40
0.0
 40
0.0
 40
1.0
 40
1.0
 40
1.0
 40
1.0
 40
1.0
 10
1755.099999405988
 20
54.1806238427478
 30
104.0
 10
1756.050104900456
 20
54.31035819304538
 30
104.0
 10
1757.0001405752657
 20
54.44062052750899
 30
104.0
 10
1757.9501059633296
 20
54.571412385516744
 30
104.0
 10
1758.9000005938883
 20
54.70273530382251
 30
104.0
  0
LINE
  5
46
330
17
100
AcDbEntity
  8
0
100
AcDbLine
 10
1755.1
 20
54.18062392635757
 30
104.0
 11
1755.1
 21
40.32325752414336
 31
104.0
  0
SPLINE
  5
47
330
17
100
AcDbEntity
  8
0
100
AcDbSpline
 70
0
 71
4
 72
19
 73
14
 74
0
 40
0.0
 40
0.0
 40
0.0
 40
0.0
 40
0.0
 40
0.24603322506399822
 40
0.24603322506399822
 40
0.24603322506399822
 40
0.4947234139256222
 40
0.4947234139256222
 40
0.4947234139256222
 40
0.7460589817763174
 40
0.7460589817763174
 40
0.7460589817763174
 40
1.0
 40
1.0
 40
1.0
 40
1.0
 40
1.0
 10
1755.1000000000008
 20
40.32325752413646
 30
104.0
 10
1753.7355057288637
 20
40.119370289293194
 30
104.0
 10
1752.3708423947216
 20
39.9166131662113
 30
104.0
 10
1751.006012546102
 20
39.71497875381871
 30
104.0
 10
1748.2612838976709
 20
39.31177546295365
 30
104.0
 10
1746.8813815341955
 20
39.11023081632339
 30
104.0
 10
1745.5013140967008
 20
38.90981847408066
 30
104.0
 10
1742.726172109123
 20
38.50912424767666
 30
104.0
 10
1741.331094080989
 20
38.30886642753072
 30
104.0
 10
1739.935852463334
 20
38.1097504616523
 30
104.0
 10
1737.130581566729
 20
37.711735676946496
 30
104.00000000000001
 10
1735.7205489305602
 20
37.51286049602214
 30
104.0
 10
1734.3103542692077
 20
37.31513642170229
 30
104.0
 10
1732.8999999999974
 20
37.11855632606513
 30
104.0
  0
LINE
  5
48
330
17
100
AcDbEntity
  8
0
100
AcDbLine
 10
1732.9
 20
51.25790789961838
 30
104.0
 11
1732.9
 21
37.11855632604749
 31
104.0
  0
SPLINE
  5
49
330
17
100
AcDbEntity
  8
0
100
AcDbSpline
 70
0
 71
4
 72
10
 73
5
 74
0
 40
0.0
 40
0.0
 40
0.0
 40
0.0
 40
0.0
 40
1.0
 40
1.0
 40
1.0
 40
1.0
 40
1.0
 10
1729.099999405146
 20
50.77907020894261
 30
104.0
 10
1730.050095279298
 20
50.89802001492713
 30
104.0
 10
1731.0001277295694
 20
51.01747521561645
 30
104.0
 10
1731.9500963161356
 20
51.13743735507953
 30
104.0
 10
1732.9000005956054
 20
51.2579079751554
 30
104.0
  0
LINE
  5
4A
330
17
100
AcDbEntity
  8
0
100
AcDbLine
 10
1729.1
 20
50.77907028341698
 30
104.0
 11
1729.1
 21
36.592064356099456
 31
104.0
  0
SPLINE
  5
4B
330
17
100
AcDbEntity
  8
0
100
AcDbSpline
 70
0
 71
4
 72
19
 73
14
 74
0
 40
0.0
 40
0.0
 40
0.0
 40
0.0
 40
0.0
 40
0.24637935961599833
 40
0.24637935961599833
 40
0.24637935961599833
 40
0.4951930631821359
 40
0.4951930631821359
 40
0.4951930631821359
 40
0.7464122461762881
 40
0.7464122461762881
 40
0.7464122461762881
 40
1.0
 40
1.0
 40
1.0
 40
1.0
 40
1.0
 10
1729.0999999999995
 20
36.59206435610509
 30
104.0
 10
1727.7334541825714
 20
36.40386354566006
 30
104.0
 10
1726.366761594452
 20
36.21672744124986
 30
104.0
 10
1724.999924361592
 20
36.03064984263578
 30
104.0
 10
1722.2524583373731
 20
35.658771329488474
 30
104.0
 10
1720.8718267132606
 20
35.47299132396265
 30
104.0
 10
1719.4910518017032
 20
35.28827840173442
 30
104.0
 10
1716.7158690919723
 20
34.919199158792225
 30
104.0
 10
1715.3214585498704
 20
34.73485345298789
 30
104.0
 10
1713.926906136464
 20
34.55158321199634
 30
104.0
 10
1711.1243720616908
 20
34.18546381271744
 30
104.0
 10
1709.7163877524742
 20
34.00263490505194
 30
103.99999999999997
 10
1708.308263054219
 20
33.82088958301418
 30
103.99999999999996
 10
1706.9000000020792
 20
33.64022180458515
 30
103.99999999999994
  0
LINE
  5
4C
330
17
100
AcDbEntity
  8
0
100
AcDbLine
 10
1706.9
 20
48.10338864413637
 30
104.0
 11
1706.9
 21
33.64022182079272
 31
104.0
  0
SPLINE
  5
4D
330
17
100
AcDbEntity
  8
0
100
AcDbSpline
 70
0
 71
4
 72
10
 73
5
 74
0
 40
0.0
 40
0.0
 40
0.0
 40
0.0
 40
0.0
 40
1.0
 40
1.0
 40
1.0
 40
1.0
 40
1.0
 10
1703.0999994043543
 20
47.66585331020275
 30
104.0
 10
1704.0500862580877
 20
47.77451118091602
 30
104.0
 10
1705.0001156842234
 20
47.883652002441075
 30
104.0
 10
1705.9500872690805
 20
47.99327732181424
 30
104.0
 10
1706.9000005955331
 20
48.10338868419734
 30
104.0
  0
LINE
  5
4E
330
17
100
AcDbEntity
  8
0
100
AcDbLine
 10
1703.1
 20
47.665853404986024
 30
104.0
 11
1703.1
 21
33.155697757976505
 31
104.0
  0
SPLINE
  5
4F
330
17
100
AcDbEntity
  8
0
100
AcDbSpline
 70
0
 71
4
 72
19
 73
14
 74
0
 40
0.0
 40
0.0
 40
0.0
 40
0.0
 40
0.0
 40
0.24667344249770953
 40
0.24667344249770953
 40
0.24667344249770953
 40
0.4955828545616209
 40
0.4955828545616209
 40
0.4955828545616209
 40
0.7466984094665103
 40
0.7466984094665103
 40
0.7466984094665103
 40
1.0
 40
1.0
 40
1.0
 40
1.0
 40
1.0
 10
1703.1000000024326
 20
33.155697738783
 30
104.0
 10
1701.7317119013164
 20
32.982303349498814
 30
104.0
 10
1700.3632957929929
 20
32.80991827370963
 30
104.0
 10
1698.994753484959
 20
32.638537222134445
 30
104.0
 10
1696.2450137306428
 20
32.29622826415294
 30
104.0
 10
1694.863814016904
 20
32.12531855697429
 30
104.0
 10
1693.4824894090136
 20
31.95542049927677
 30
104.0
 10
1690.7073498108202
 20
31.616140404237527
 30
104.0
 10
1689.3135326280883
 20
31.446776286910744
 30
104.0
 10
1687.9195919089907
 20
31.278431247542265
 30
104.0
 10
1685.1193311558616
 20
30.942312342921092
 30
104.0
 10
1683.7130089933423
 20
30.77455619637239
 30
104.0
 10
1682.3065646937475
 20
30.60782644144604
 30
104.0
 10
1680.9000000001315
 20
30.442117868947964
 30
104.0
  0
LINE
  5
50
330
17
100
AcDbEntity
  8
0
100
AcDbLine
 10
1680.9
 20
45.22577556575234
 30
104.0
 11
1680.9
 21
30.44211787006175
 31
104.0
  0
SPLINE
  5
51
330
17
100
AcDbEntity
  8
0
100
AcDbSpline
 70
0
 71
4
 72
10
 73
5
 74
0
 40
0.0
 40
0.0
 40
0.0
 40
0.0
 40
0.0
 40
1.0
 40
1.0
 40
1.0
 40
1.0
 40
1.0
 10
1677.0999994035997
 20
44.82760044046215
 30
104.0
 10
1678.0500778064832
 20
44.92645170830696
 30
104.0
 10
1679.0001043992356
 20
45.02576363020712
 30
104.0
 10
1679.9500787931709
 20
45.12553775467741
 30
104.0
 10
1680.9000005962826
 20
45.22577562867342
 30
104.0
  0
LINE
  5
52
330
17
100
AcDbEntity
  8
0
100
AcDbLine
 10
1677.1
 20
44.827600502514855
 30
104.0
 11
1677.1
 21
29.99726358959161
 31
104.0
  0
SPLINE
  5
53
330
17
100
AcDbEntity
  8
0
100
AcDbSpline
 70
0
 71
5
 72
24
 73
18
 74
0
 40
0.0
 40
0.0
 40
0.0
 40
0.0
 40
0.0
 40
0.0
 40
0.24699821089310162
 40
0.24699821089310162
 40
0.24699821089310162
 40
0.24699821089310162
 40
0.496032655445212
 40
0.496032655445212
 40
0.496032655445212
 40
0.496032655445212
 40
0.747052989103058
 40
0.747052989103058
 40
0.747052989103058
 40
0.747052989103058
 40
1.0
 40
1.0
 40
1.0
 40
1.0
 40
1.0
 40
1.0
 10
1677.100000000131
 20
29.997263588463895
 30
104.0
 10
1676.0038442541158
 20
29.869753456502725
 30
104.0
 10
1674.9076212785938
 20
29.74282083338486
 30
104.0
 10
1673.8113318454054
 20
29.616462655271622
 30
104.0
 10
1672.7149761479902
 20
29.490680786706754
 30
104.0
 10
1670.5130961983582
 20
29.23922013792752
 30
104.0
 10
1669.4075708269029
 20
29.113551153858538
 30
104.0
 10
1668.3019805471115
 20
28.988453699827538
 30
104.0
 10
1667.196326406421
 20
28.86392201934489
 30
104.0
 10
1664.9760750406144
 20
28.614990463363046
 30
104.0
 10
1663.8614768095595
 20
28.49059955646937
 30
104.0
 10
1662.746815753436
 20
28.36677210761391
 30
104.0
 10
1661.632092869045
 20
28.243502580149215
 30
104.0
 10
1659.393968972337
 20
27.997126740389344
 30
103.99999999999999
 10
1658.2705670230832
 20
27.87402893525982
 30
104.0
 10
1657.1471042502797
 20
27.751486723541394
 30
104.0
 10
1656.0235816033548
 20
27.629494775904266
 30
104.0
 10
1654.9000000000306
 20
27.508047904909912
 30
104.0
  0
LINE
  5
54
330
17
100
AcDbEntity
  8
0
100
AcDbLine
 10
1654.9
 20
42.611860658340966
 30
104.0
 11
1654.9
 21
27.508047905187116
 31
104.0
  0
SPLINE
  5
55
330
17
100
AcDbEntity
  8
0
100
AcDbSpline
 70
0
 71
4
 72
10
 73
5
 74
0
 40
0.0
 40
0.0
 40
0.0
 40
0.0
 40
0.0
 40
1.0
 40
1.0
 40
1.0
 40
1.0
 40
1.0
 10
1651.0999994027811
 20
42.251130600852306
 30
104.0
 10
1652.0500698937608
 20
42.34065379154886
 30
104.0
 10
1653.0000938336123
 20
42.43061548678661
 30
104.0
 10
1653.950070857474
 20
42.52101723528808
 30
104.0
 10
1654.9000005972996
 20
42.611860584497734
 30
104.0
  0
LINE
  5
56
330
17
100
AcDbEntity
  8
0
100
AcDbLine
 10
1651.1
 20
42.25113148022125
 30
104.0
 11
1651.1
 21
27.09981620109624
 31
104.0
  0
SPLINE
  5
57
330
17
100
AcDbEntity
  8
0
100
AcDbSpline
 70
0
 71
4
 72
19
 73
14
 74
0
 40
0.0
 40
0.0
 40
0.0
 40
0.0
 40
0.0
 40
0.24745844958039176
 40
0.24745844958039176
 40
0.24745844958039176
 40
0.49664463007926657
 40
0.49664463007926657
 40
0.49664463007926657
 40
0.7475116149216408
 40
0.7475116149216408
 40
0.7475116149216408
 40
1.0
 40
1.0
 40
1.0
 40
1.0
 40
1.0
 10
1651.0999999999772
 20
27.099816201307718
 30
104.0
 10
1649.7271259253664
 20
26.95322890744679
 30
104.0
 10
1648.35416087783
 20
26.807493066687826
 30
104.0
 10
1646.9811068866577
 20
26.662597184684248
 30
104.0
 10
1644.2252376969025
 20
26.373457586651735
 30
104.0
 10
1642.8424212780149
 20
26.22922549573066
 30
104.0
 10
1641.4595185481217
 20
26.08582290969867
 30
104.0
 10
1638.684215614577
 20
25.799693982047398
 30
104.0
 10
1637.291814267716
 20
25.656978724752978
 30
104.0
 10
1635.8993291426038
 20
25.515082828204935
 30
104.0
 10
1633.1051943921411
 20
25.231997640224485
 30
104.0
 10
1631.7035437041577
 20
25.090818832063572
 30
104.0
 10
1630.3018116838416
 20
24.95044946359897
 30
104.0
 10
1628.8999999998998
 20
24.810879720738598
 30
104.0
  0
LINE
  5
58
330
17
100
AcDbEntity
  8
0
100
AcDbLine
 10
1628.9
 20
40.248616411951815
 30
104.0
 11
1628.9
 21
24.810879719730735
 31
104.0
  0
SPLINE
  5
59
330
17
100
AcDbEntity
  8
0
100
AcDbSpline
 70
0
 71
4
 72
10
 73
5
 74
0
 40
0.0
 40
0.0
 40
0.0
 40
0.0
 40
0.0
 40
1.0
 40
1.0
 40
1.0
 40
1.0
 40
1.0
 10
1625.0999994022777
 20
39.92344194453569
 30
104.0
 10
1626.0500624560673
 20
40.004109229437745
 30
104.0
 10
1627.0000839577249
 20
40.08519301985147
 30
104.0
 10
1627.9500634286183
 20
40.1666948558138
 30
104.0
 10
1628.9000005978312
 20
40.248616288429005
 30
104.0
  0
LINE
  5
5A
330
17
100
AcDbEntity
  8
0
100
AcDbLine
 10
1625.1
 20
39.923442150485776
 30
104.0
 11
1625.1
 21
24.43475011284061
 31
104.0
  0
SPLINE
  5
5B
330
17
100
AcDbEntity
  8
0
100
AcDbSpline
 70
0
 71
4
 72
19
 73
14
 74
0
 40
0.0
 40
0.0
 40
0.0
 40
0.0
 40
0.0
 40
0.2478402675408859
 40
0.2478402675408859
 40
0.2478402675408859
 40
0.49715558710658425
 40
0.49715558710658425
 40
0.49715558710658425
 40
0.7478982456608515
 40
0.7478982456608515
 40
0.7478982456608515
 40
1.0
 40
1.0
 40
1.0
 40
1.0
 40
1.0
 10
1625.099999999892
 20
24.434750113931816
 30
104.0
 10
1623.724914452631
 20
24.299438432772853
 30
104.0
 10
1622.3497543916553
 20
24.164883521695735
 30
104.0
 10
1620.9745213138592
 20
24.031076585202847
 30
104.0
 10
1618.2157266656643
 20
23.76414984064273
 30
104.0
 10
1616.832164239735
 20
23.631038870216432
 30
104.0
 10
1615.4485307998168
 20
23.49866774672772
 30
104.0
 10
1612.6732028549318
 20
23.234635375959048
 30
104.0
 10
1611.2815075503734
 20
23.102982530376202
 30
104.0
 10
1609.8897431676294
 20
22.9720616158794
 30
104.0
 10
1607.0985347240978
 20
22.710962349580136
 30
104.00000000000001
 10
1605.6990899275604
 20
22.58079185910994
 30
104.0
 10
1604.2995779355356
 20
22.45134547508572
 30
104.0
 10
1602.8999999999523
 20
22.322615624437223
 30
104.0
  0
LINE
  5
5C
330
17
100
AcDbEntity
  8
0
100
AcDbLine
 10
1602.9
 20
38.12318340416883
 30
104.0
 11
1602.9
 21
22.32261562391874
 31
104.0
  0
SPLINE
  5
5D
330
17
100
AcDbEntity
  8
0
100
AcDbSpline
 70
0
 71
4
 72
10
 73
5
 74
0
 40
0.0
 40
0.0
 40
0.0
 40
0.0
 40
0.0
 40
1.0
 40
1.0
 40
1.0
 40
1.0
 40
1.0
 10
1599.0999994012411
 20
37.831696521933424
 30
104.0
 10
1600.0500511557775
 20
37.90397396481631
 30
104.0
 10
1601.0000689661672
 20
37.9766463029638
 30
104.0
 10
1601.950052294088
 20
38.04971506264098
 30
104.0
 10
1602.9000005982014
 20
38.123181770301834
 30
104.0
  0
LINE
  5
5E
330
17
100
AcDbEntity
  8
0
100
AcDbLine
 10
1599.1
 20
37.83169821905051
 30
104.0
 11
1599.1
 21
21.975088692128512
 31
104.0
  0
SPLINE
  5
5F
330
17
100
AcDbEntity
  8
0
100
AcDbSpline
 70
0
 71
4
 72
13
 73
8
 74
0
 40
0.0
 40
0.0
 40
0.0
 40
0.0
 40
0.0
 40
0.45758790498235974
 40
0.45758790498235974
 40
0.45758790498235974
 40
1.0
 40
1.0
 40
1.0
 40
1.0
 40
1.0
 10
1599.0999999999704
 20
21.975088692470397
 30
104.0
 10
1596.5610481143372
 20
21.74421213544666
 30
104.0
 10
1594.0218847185388
 20
21.515660234305933
 30
104.0
 10
1591.482516952451
 20
21.289389867952327
 30
104.0
 10
1585.932620108154
 20
20.799804777638407
 30
104.0
 10
1582.9220108630554
 20
20.537398347191022
 30
104.0
 10
1579.9111342976516
 20
20.278076974874267
 30
104.0
 10
1576.9000000000365
 20
20.021781942046562
 30
104.0
  0
LINE
  5
60
330
17
100
AcDbEntity
  8
0
100
AcDbLine
 10
1576.9
 20
36.22287234724196
 30
104.0
 11
1576.9
 21
20.021781942471137
 31
104.0
  0
SPLINE
  5
61
330
17
100
AcDbEntity
  8
0
100
AcDbSpline
 70
0
 71
4
 72
10
 73
5
 74
0
 40
0.0
 40
0.0
 40
0.0
 40
0.0
 40
0.0
 40
1.0
 40
1.0
 40
1.0
 40
1.0
 40
1.0
 10
1573.0999993983185
 20
35.96323971302668
 30
104.0
 10
1574.0500402419302
 20
36.02758565090209
 30
104.0
 10
1575.0000544018328
 20
36.092305148106504
 30
104.0
 10
1575.9500413607602
 20
36.157399722653565
 30
104.0
 10
1576.9000005986456
 20
36.22287089278565
 30
104.0
  0
LINE
  5
62
330
17
100
AcDbEntity
  8
0
100
AcDbLine
 10
1573.1
 20
35.963241157843754
 30
104.0
 11
1573.1
 21
19.700154970066325
 31
104.0
  0
SPLINE
  5
63
330
17
100
AcDbEntity
  8
0
100
AcDbSpline
 70
0
 71
4
 72
13
 73
8
 74
0
 40
0.0
 40
0.0
 40
0.0
 40
0.0
 40
0.0
 40
0.49795269841170137
 40
0.49795269841170137
 40
0.49795269841170137
 40
1.0
 40
1.0
 40
1.0
 40
1.0
 40
1.0
 10
1573.099999997274
 20
19.70015500245339
 30
104.0
 10
1570.3369735882186
 20
19.467608942937414
 30
104.0
 10
1567.5737352194092
 20
19.237579978810896
 30
104.0
 10
1564.8102920257368
 20
19.010024480904043
 30
104.0
 10
1559.2602838386085
 20
18.557929979649376
 30
104.0
 10
1556.4737155726834
 20
18.333431153366817
 30
104.0
 10
1553.686952291131
 20
18.111365830189637
 30
104.0
 10
1550.9000000039325
 20
17.89169720932384
 30
104.0
  0
LINE
  5
64
330
17
100
AcDbEntity
  8
0
100
AcDbLine
 10
1550.9
 20
34.535231873782465
 30
104.0
 11
1550.9
 21
17.891697259205568
 31
104.0
  0
SPLINE
  5
65
330
17
100
AcDbEntity
  8
0
100
AcDbSpline
 70
0
 71
4
 72
10
 73
5
 74
0
 40
0.0
 40
0.0
 40
0.0
 40
0.0
 40
0.0
 40
1.0
 40
1.0
 40
1.0
 40
1.0
 40
1.0
 10
1547.0999994009849
 20
34.305654053093875
 30
104.0
 10
1548.0500297729614
 20
34.362518213480826
 30
104.0
 10
1549.0000404290213
 20
34.41973484486955
 30
104.0
 10
1549.9500308712065
 20
34.47730545777644
 30
104.0
 10
1550.9000005989644
 20
34.535231562959936
 30
104.0
  0
LINE
  5
66
330
17
100
AcDbEntity
  8
0
100
AcDbLine
 10
1547.1
 20
34.30565426453622
 30
104.0
 11
1547.1
 21
17.59385523768783
 31
104.0
  0
SPLINE
  5
67
330
17
100
AcDbEntity
  8
0
100
AcDbSpline
 70
0
 71
4
 72
13
 73
8
 74
0
 40
0.0
 40
0.0
 40
0.0
 40
0.0
 40
0.0
 40
0.49828575069216346
 40
0.49828575069216346
 40
0.49828575069216346
 40
1.0
 40
1.0
 40
1.0
 40
1.0
 40
1.0
 10
1547.1000000038966
 20
17.59385518769232
 30
104.0
 10
1544.335040241809
 20
17.378353836544967
 30
104.0
 10
1541.569898442155
 20
17.165186946804198
 30
104.0
 10
1538.804580269676
 20
16.954319995168696
 30
104.0
 10
1533.254573345642
 20
16.53568781530898
 30
103.99999999999999
 10
1530.4698822320508
 20
16.327953903527245
 30
104.0
 10
1527.6850228390479
 20
16.122487856983557
 30
104.0
 10
1524.90000000011
 20
15.919260618839683
 30
104.0
  0
LINE
  5
68
330
17
100
AcDbEntity
  8
0
100
AcDbLine
 10
1524.9
 20
33.04803708750138
 30
104.0
 11
1524.9
 21
15.919260620346334
 31
104.0
  0
SPLINE
  5
69
330
17
100
AcDbEntity
  8
0
100
AcDbSpline
 70
0
 71
4
 72
10
 73
5
 74
0
 40
0.0
 40
0.0
 40
0.0
 40
0.0
 40
0.0
 40
1.0
 40
1.0
 40
1.0
 40
1.0
 40
1.0
 10
1521.0999994008246
 20
32.84674356673289
 30
104.0
 10
1522.05002013515
 20
32.896568087832826
 30
104.0
 10
1523.0000273220994
 20
32.94672416212145
 30
104.0
 10
1523.9500209290168
 20
32.99721333433459
 30
104.0
 10
1524.9000005991572
 20
33.04803711955621
 30
104.0
  0
LINE
  5
6A
330
17
100
AcDbEntity
  8
0
100
AcDbLine
 10
1521.1
 20
32.84674359815708
 30
104.0
 11
1521.1
 21
15.643535668400036
 31
104.0
  0
SPLINE
  5
6B
330
17
100
AcDbEntity
  8
0
100
AcDbSpline
 70
0
 71
4
 72
13
 73
8
 74
0
 40
0.0
 40
0.0
 40
0.0
 40
0.0
 40
0.0
 40
0.49858152084064733
 40
0.49858152084064733
 40
0.49858152084064733
 40
1.0
 40
1.0
 40
1.0
 40
1.0
 40
1.0
 10
1521.1000000001216
 20
15.643535666713156
 30
104.0
 10
1518.3333304085377
 20
15.443925588006
 30
104.0
 10
1515.5665027448617
 20
15.246505459891232
 30
104.0
 10
1512.7995215936899
 20
15.05124796365198
 30
104.0
 10
1507.2495156278733
 20
14.663909700335726
 30
104.0
 10
1504.4664891110615
 20
14.471853324246286
 30
104.0
 10
1501.6833159157093
 20
14.281933999599236
 30
104.0
 10
1498.9000000000995
 20
14.094128923001364
 30
104.0
  0
LINE
  5
6C
330
17
100
AcDbEntity
  8
0
100
AcDbLine
 10
1498.9
 20
31.749241199452236
 30
104.0
 11
1498.9
 21
14.094128924475298
 31
104.0
  0
SPLINE
  5
6D
330
17
100
AcDbEntity
  8
0
100
AcDbSpline
 70
0
 71
4
 72
10
 73
5
 74
0
 40
0.0
 40
0.0
 40
0.0
 40
0.0
 40
0.0
 40
1.0
 40
1.0
 40
1.0
 40
1.0
 40
1.0
 10
1495.0999994007025
 20
31.574477437883534
 30
104.0
 10
1496.050017270514
 20
31.617701225869297
 30
104.0
 10
1497.0000235140249
 20
31.661235374689692
 30
104.0
 10
1497.9500180010816
 20
31.70508142194397
 30
104.0
 10
1498.9000005992832
 20
31.749240904241745
 30
104.0
  0
LINE
  5
6E
330
17
100
AcDbEntity
  8
0
100
AcDbLine
 10
1495.1
 20
31.574477761757308
 30
104.0
 11
1495.1
 21
13.839203719371953
 31
104.0
  0
SPLINE
  5
6F
330
17
100
AcDbEntity
  8
0
100
AcDbSpline
 70
0
 71
4
 72
13
 73
8
 74
0
 40
0.0
 40
0.0
 40
0.0
 40
0.0
 40
0.0
 40
0.4988538917466926
 40
0.4988538917466926
 40
0.4988538917466926
 40
1.0
 40
1.0
 40
1.0
 40
1.0
 40
1.0
 10
1495.1000000000945
 20
13.839203717956247
 30
104.0
 10
1492.331762805654
 20
13.654571084091312
 30
104.0
 10
1489.5633870848608
 20
13.472014560106219
 30
104.0
 10
1486.7948766139561
 20
13.291512702286953
 30
104.0
 10
1481.2448713687932
 20
12.933759464461712
 30
104.00000000000001
 10
1478.4633753864896
 20
12.756526826692738
 30
104.0
 10
1475.6817504973628
 20
12.581328645415551
 30
104.0
 10
1472.8999999999905
 20
12.408147302973063
 30
104.0
  0
LINE
  5
70
330
17
100
AcDbEntity
  8
0
100
AcDbLine
 10
1472.9
 20
30.6268432549559
 30
104.0
 11
1472.9
 21
12.408147302818826
 31
104.0
  0
SPLINE
  5
71
330
17
100
AcDbEntity
  8
0
100
AcDbSpline
 70
0
 71
4
 72
10
 73
5
 74
0
 40
0.0
 40
0.0
 40
0.0
 40
0.0
 40
0.0
 40
1.0
 40
1.0
 40
1.0
 40
1.0
 40
1.0
 10
1469.0999994005824
 20
30.476856085931573
 30
104.0
 10
1470.0500147316868
 20
30.513917480101895
 30
104.0
 10
1471.000020119002
 20
30.551268041192753
 30
104.0
 10
1471.950015447337
 20
30.588909308899865
 30
104.0
 10
1472.9000005993958
 20
30.62684282209466
 30
104.0
  0
LINE
  5
72
330
17
100
AcDbEntity
  8
0
100
AcDbLine
 10
1469.1
 20
30.476856965414328
 30
104.0
 11
1469.1
 21
12.1729875801518
 31
104.0
  0
SPLINE
  5
73
330
17
100
AcDbEntity
  8
0
100
AcDbSpline
 70
0
 71
4
 72
13
 73
8
 74
0
 40
0.0
 40
0.0
 40
0.0
 40
0.0
 40
0.0
 40
0.4991120431720163
 40
0.4991120431720163
 40
0.4991120431720163
 40
1.0
 40
1.0
 40
1.0
 40
1.0
 40
1.0
 10
1469.0999999999835
 20
12.172987580422777
 30
104.0
 10
1466.330283443482
 20
12.002614627370118
 30
104.0
 10
1463.5604445802956
 20
11.834229273151534
 30
104.0
 10
1460.7904865747228
 20
11.667814992386822
 30
104.0
 10
1455.2404818683785
 20
11.338313812437137
 30
104.00000000000001
 10
1452.4604343399033
 20
11.175240856170893
 30
104.0
 10
1449.6802727847712
 20
11.014123278569446
 30
104.0
 10
1446.89999999999
 20
10.854947888631868
 30
104.0
  0
LINE
  5
74
330
17
100
AcDbEntity
  8
0
100
AcDbLine
 10
1446.9
 20
29.668855506711296
 30
104.0
 11
1446.9
 21
10.854947888463292
 31
104.0
  0
SPLINE
  5
75
330
17
100
AcDbEntity
  8
0
100
AcDbSpline
 70
0
 71
4
 72
10
 73
5
 74
0
 40
0.0
 40
0.0
 40
0.0
 40
0.0
 40
0.0
 40
1.0
 40
1.0
 40
1.0
 40
1.0
 40
1.0
 10
1443.0999994004799
 20
29.541895307513343
 30
104.0
 10
1444.0500124924188
 20
29.573231853883797
 30
104.0
 10
1445.0000171240754
 20
29.604836378351287
 30
104.0
 10
1445.9500131941795
 20
29.636710422020975
 30
104.0
 10
1446.9000005995108
 20
29.668855525318943
 30
104.0
  0
LINE
  5
76
330
17
100
AcDbEntity
  8
0
100
AcDbLine
 10
1443.1
 20
29.541895329137958
 30
104.0
 11
1443.1
 21
10.638754285102777
 31
104.0
  0
SPLINE
  5
77
330
17
100
AcDbEntity
  8
0
100
AcDbSpline
 70
0
 71
4
 72
13
 73
8
 74
0
 40
0.0
 40
0.0
 40
0.0
 40
0.0
 40
0.0
 40
0.4993502243263059
 40
0.4993502243263059
 40
0.4993502243263059
 40
1.0
 40
1.0
 40
1.0
 40
1.0
 40
1.0
 10
1443.1000000000065
 20
10.638754284989647
 30
104.0
 10
1440.328921999409
 20
10.48209153023233
 30
104.0
 10
1437.5577353897797
 20
10.327349283704889
 30
104.0
 10
1434.7864428688144
 20
10.174515259782163
 30
104.0
 10
1429.2364385739836
 20
9.87224928561864
 30
104.00000000000001
 10
1426.4577262617504
 20
9.722827222142788
 30
103.99999999999997
 10
1423.6789125987125
 20
9.575301740534135
 30
103.99999999999996
 10
1420.9000000000847
 20
9.429663544461752
 30
103.99999999999994
  0
LINE
  5
78
330
17
100
AcDbEntity
  8
0
100
AcDbLine
 10
1420.9
 20
28.863312574760553
 30
104.0
 11
1420.9
 21
9.429663546079766
 31
104.0
  0
SPLINE
  5
79
330
17
100
AcDbEntity
  8
0
100
AcDbSpline
 70
0
 71
4
 72
10
 73
5
 74
0
 40
0.0
 40
0.0
 40
0.0
 40
0.0
 40
0.0
 40
1.0
 40
1.0
 40
1.0
 40
1.0
 40
1.0
 10
1417.099999400371
 20
28.75763162275248
 30
104.0
 10
1418.0500105307938
 20
28.783680126323116
 30
104.0
 10
1419.000014500035
 20
28.80997542779687
 30
104.0
 10
1419.950011219705
 20
28.836519069116576
 30
104.0
 10
1420.9000005996072
 20
28.863312591671882
 30
104.0
  0
LINE
  5
7A
330
17
100
AcDbEntity
  8
0
100
AcDbLine
 10
1417.1
 20
28.757631639193804
 30
104.0
 11
1417.1
 21
9.231837412535336
 31
104.0
  0
SPLINE
  5
7B
330
17
100
AcDbEntity
  8
0
100
AcDbSpline
 70
0
 71
4
 72
13
 73
8
 74
0
 40
0.0
 40
0.0
 40
0.0
 40
0.0
 40
0.0
 40
0.49958086877664065
 40
0.49958086877664065
 40
0.49958086877664065
 40
1.0
 40
1.0
 40
1.0
 40
1.0
 40
1.0
 10
1417.1000000000745
 20
9.231837411091993
 30
104.0
 10
1414.3276077850883
 20
9.088474038805323
 30
104.0
 10
1411.5551187321832
 20
8.94698288263562
 30
104.0
 10
1408.7825351835925
 20
8.807355425151284
 30
104.0
 10
1403.2325311874527
 20
8.531582417442133
 30
104.0
 10
1400.4551104302316
 20
8.395443101351502
 30
104.0
 10
1397.6775993254869
 20
8.261159478671457
 30
104.0
 10
1394.9000000001943
 20
8.12872579281784
 30
104.0
  0
LINE
  5
7C
330
17
100
AcDbEntity
  8
0
100
AcDbLine
 10
1394.9
 20
28.198267133380664
 30
104.0
 11
1394.9
 21
8.128725796897008
 31
104.0
  0
SPLINE
  5
7D
330
17
100
AcDbEntity
  8
0
100
AcDbSpline
 70
0
 71
4
 72
10
 73
5
 74
0
 40
0.0
 40
0.0
 40
0.0
 40
0.0
 40
0.0
 40
1.0
 40
1.0
 40
1.0
 40
1.0
 40
1.0
 10
1391.099999400284
 20
28.11212089226537
 30
104.0
 10
1392.0500088249084
 20
28.133317468713997
 30
104.0
 10
1393.0000122176737
 20
28.154739674204595
 30
104.0
 10
1393.9500095020137
 20
28.17638905105193
 30
104.0
 10
1394.9000005997123
 20
28.198267141126294
 30
104.0
  0
LINE
  5
7E
330
17
100
AcDbEntity
  8
0
100
AcDbLine
 10
1391.1
 20
28.11212091148174
 30
104.0
 11
1391.1
 21
7.948845360868445
 31
104.0
  0
SPLINE
  5
7F
330
17
100
AcDbEntity
  8
0
100
AcDbSpline
 70
0
 71
4
 72
13
 73
8
 74
0
 40
0.0
 40
0.0
 40
0.0
 40
0.0
 40
0.0
 40
0.4998054147018238
 40
0.4998054147018238
 40
0.4998054147018238
 40
1.0
 40
1.0
 40
1.0
 40
1.0
 40
1.0
 10
1391.100000000222
 20
7.948845356138957
 30
104.0
 10
1388.3263314967912
 20
7.818496894587281
 30
104.0
 10
1385.5525764660983
 20
7.68998931988702
 30
104.0
 10
1382.7787369827615
 20
7.563317575175935
 30
104.0
 10
1377.228733192947
 20
7.313540965968008
 30
104.0
 10
1374.4525687581504
 20
7.190438954921236
 30
104.0
 10
1371.6763237222983
 20
7.069168160073941
 30
104.0
 10
1368.9000000003198
 20
6.949726153713151
 30
104.0
  0
LINE
  5
80
330
17
100
AcDbEntity
  8
0
100
AcDbLine
 10
1368.9
 20
27.661790449457968
 30
104.0
 11
1368.9
 21
6.949726161153652
 31
104.0
  0
SPLINE
  5
81
330
17
100
AcDbEntity
  8
0
100
AcDbSpline
 70
0
 71
4
 72
10
 73
5
 74
0
 40
0.0
 40
0.0
 40
0.0
 40
0.0
 40
0.0
 40
1.0
 40
1.0
 40
1.0
 40
1.0
 40
1.0
 10
1365.0999994001957
 20
27.593436940519297
 30
104.0
 10
1366.0500073527971
 20
27.61021706756906
 30
104.0
 10
1367.0000102477095
 20
27.62720166806658
 30
104.0
 10
1367.9500080191403
 20
27.644392284330408
 30
104.0
 10
1368.9000005997916
 20
27.661790458327353
 30
104.0
  0
LINE
  5
82
330
17
100
AcDbEntity
  8
0
100
AcDbLine
 10
1365.1
 20
27.593436952045465
 30
104.0
 11
1365.1
 21
6.78753070800516
 31
104.0
  0
SPLINE
  5
83
330
17
100
AcDbEntity
  8
0
100
AcDbSpline
 70
0
 71
4
 72
13
 73
8
 74
0
 40
0.0
 40
0.0
 40
0.0
 40
0.0
 40
0.0
 40
0.5000072734055852
 40
0.5000072734055852
 40
0.5000072734055852
 40
1.0
 40
1.0
 40
1.0
 40
1.0
 40
1.0
 10
1365.1000000003576
 20
6.787530699554761
 30
104.0
 10
1362.3251837060473
 20
6.670032524691322
 30
104.0
 10
1359.550290119143
 20
6.554359471212988
 30
104.0
 10
1356.7753210993021
 20
6.440510370115218
 30
104.0
 10
1351.2253166415912
 20
6.21646033483341
 30
104.0
 10
1348.4502812741384
 20
6.106257688250561
 30
104.0
 10
1345.6751749205098
 20
5.997857840117
 30
104.0
 10
1342.9000000005096
 20
5.89124267278769
 30
104.0
  0
LINE
  5
84
330
17
100
AcDbEntity
  8
0
100
AcDbLine
 10
1342.9
 20
27.241970613721044
 30
104.0
 11
1342.9
 21
5.891242686055286
 31
104.0
  0
SPLINE
  5
85
330
17
100
AcDbEntity
  8
0
100
AcDbSpline
 70
0
 71
4
 72
10
 73
5
 74
0
 40
0.0
 40
0.0
 40
0.0
 40
0.0
 40
0.0
 40
1.0
 40
1.0
 40
1.0
 40
1.0
 40
1.0
 10
1339.0999994001154
 20
27.189670185106195
 30
104.0
 10
1340.0500060925417
 20
27.202468753583215
 30
104.0
 10
1341.000008560924
 20
27.21545065441338
 30
104.0
 10
1341.950006749179
 20
27.22861742963964
 30
104.0
 10
1342.900000599874
 20
27.241970621031232
 30
104.0
  0
LINE
  5
86
330
17
100
AcDbEntity
  8
0
100
AcDbLine
 10
1339.1
 20
27.18967019445622
 30
104.0
 11
1339.1
 21
5.746510108536271
 31
104.0
  0
SPLINE
  5
87
330
17
100
AcDbEntity
  8
0
100
AcDbSpline
 70
0
 71
4
 72
13
 73
8
 74
0
 40
0.0
 40
0.0
 40
0.0
 40
0.0
 40
0.0
 40
0.5000220319625235
 40
0.5000220319625235
 40
0.5000220319625235
 40
1.0
 40
1.0
 40
1.0
 40
1.0
 40
1.0
 10
1339.1000000000004
 20
5.746510108524928
 30
104.0
 10
1336.3250691258718
 20
5.641733300386239
 30
104.0
 10
1333.550071343506
 20
5.538728426596306
 30
104.0
 10
1330.7750090297186
 20
5.437477543698949
 30
104.0
 10
1325.2250044563643
 20
5.238456294176268
 30
104.0
 10
1322.4500622074447
 20
5.140685622127104
 30
104.0
 10
1319.6750599952277
 20
5.0446325157781065
 30
104.0
 10
1316.900000000006
 20
4.950278804217987
 30
104.0
  0
LINE
  5
88
330
17
100
AcDbEntity
  8
0
100
AcDbLine
 10
1316.9
 20
26.92691112896161
 30
104.0
 11
1316.9
 21
4.950278804396542
 31
104.0
  0
SPLINE
  5
89
330
17
100
AcDbEntity
  8
0
100
AcDbSpline
 70
0
 71
4
 72
10
 73
5
 74
0
 40
0.0
 40
0.0
 40
0.0
 40
0.0
 40
0.0
 40
1.0
 40
1.0
 40
1.0
 40
1.0
 40
1.0
 10
1313.0999994000413
 20
26.888926271477494
 30
104.0
 10
1314.0500050222365
 20
26.898177636074493
 30
104.0
 10
1315.0000071281065
 20
26.90759120702821
 30
104.0
 10
1315.950005670219
 20
26.917168525906277
 30
104.0
 10
1316.9000005999485
 20
26.926911134067705
 30
104.0
  0
LINE
  5
8A
330
17
100
AcDbEntity
  8
0
100
AcDbLine
 10
1313.1
 20
26.888926278072482
 30
104.0
 11
1313.1
 21
4.822269954168831
 31
104.0
  0
SPLINE
  5
8B
330
17
100
AcDbEntity
  8
0
100
AcDbSpline
 70
0
 71
4
 72
13
 73
8
 74
0
 40
0.0
 40
0.0
 40
0.0
 40
0.0
 40
0.0
 40
0.5000009772629987
 40
0.5000009772629987
 40
0.5000009772629987
 40
1.0
 40
1.0
 40
1.0
 40
1.0
 40
1.0
 10
1313.1000000000065
 20
4.822269953969822
 30
104.0
 10
1310.3251048145255
 20
4.729662682194773
 30
104.0
 10
1307.5501533350619
 20
4.638742147839729
 30
104.0
 10
1304.7751477018783
 20
4.549490344001389
 30
104.0
 10
1299.2250430723384
 20
4.3742881901695245
 30
104.0
 10
1296.449944076106
 20
4.288337827796393
 30
104.0
 10
1293.6747950193433
 20
4.204019939520816
 30
104.0
 10
1290.899597854685
 20
4.121316293852817
 30
104.0
  0
LINE
  5
8C
330
17
100
AcDbEntity
  8
0
100
AcDbLine
 10
1290.9
 20
26.704729564246403
 30
104.0
 11
1290.9
 21
4.12132827881234
 31
104.0
  0
SPLINE
  5
8D
330
17
100
AcDbEntity
  8
0
100
AcDbSpline
 70
0
 71
4
 72
10
 73
5
 74
0
 40
0.0
 40
0.0
 40
0.0
 40
0.0
 40
0.0
 40
1.0
 40
1.0
 40
1.0
 40
1.0
 40
1.0
 10
1287.099999399974
 20
26.679324712703277
 30
104.0
 10
1288.050004120015
 20
26.68546274246563
 30
104.0
 10
1289.0000059201016
 20
26.69174186771826
 30
104.0
 10
1289.9500047603956
 20
26.698163629424673
 30
104.0
 10
1290.9000006000167
 20
26.704729568393443
 30
104.0
  0
LINE
  5
8E
330
17
100
AcDbEntity
  8
0
100
AcDbLine
 10
1287.1
 20
26.679324716596085
 30
104.0
 11
1287.1
 21
4.009217319271647
 31
104.0
  0
SPLINE
  5
8F
330
17
100
AcDbEntity
  8
0
100
AcDbSpline
 70
0
 71
4
 72
10
 73
5
 74
0
 40
0.0
 40
0.0
 40
0.0
 40
0.0
 40
0.0
 40
1.0
 40
1.0
 40
1.0
 40
1.0
 40
1.0
 10
1287.1000000000186
 20
4.009217318637927
 30
104.0
 10
1281.550164989934
 20
3.8471317176927218
 30
104.0
 10
1276.0001428904156
 20
3.6914519184311443
 30
104.0
 10
1270.4499490304765
 20
3.5420329441926643
 30
104.0
 10
1264.899597285374
 20
3.3987288331413756
 30
104.0
  0
LINE
  5
90
330
17
100
AcDbEntity
  8
0
100
AcDbLine
 10
1264.9
 20
26.563556202997
 30
104.0
 11
1264.9
 21
3.398739231862093
 31
104.0
  0
SPLINE
  5
91
330
17
100
AcDbEntity
  8
0
100
AcDbSpline
 70
0
 71
4
 72
10
 73
5
 74
0
 40
0.0
 40
0.0
 40
0.0
 40
0.0
 40
0.0
 40
1.0
 40
1.0
 40
1.0
 40
1.0
 40
1.0
 10
1261.0999993999135
 20
26.54899753381526
 30
104.0
 10
1262.050003364055
 20
26.552455662365766
 30
104.0
 10
1263.00000490781
 20
26.556033790202186
 30
104.0
 10
1263.950003997884
 20
26.55973345761702
 30
104.0
 10
1264.9000006000788
 20
26.56355620479205
 30
104.0
  0
LINE
  5
92
330
17
100
AcDbEntity
  8
0
100
AcDbLine
 10
1261.1
 20
26.548997536699787
 30
104.0
 11
1261.1
 21
3.3016997407828645
 31
104.0
  0
SPLINE
  5
93
330
17
100
AcDbEntity
  8
0
100
AcDbSpline
 70
0
 71
4
 72
10
 73
5
 74
0
 40
0.0
 40
0.0
 40
0.0
 40
0.0
 40
0.0
 40
1.0
 40
1.0
 40
1.0
 40
1.0
 40
1.0
 10
1261.0999999999958
 20
3.3016997409424294
 30
104.0
 10
1255.5501156679345
 20
3.1615362647640644
 30
104.0
 10
1250.0000781908989
 20
3.0274365715388405
 30
104.0
 10
1244.449901182223
 20
2.8992551602370438
 30
104.0
 10
1238.899596873999
 20
2.776845573133653
 30
104.0
  0
LINE
  5
94
330
17
100
AcDbEntity
  8
0
100
AcDbLine
 10
1238.9
 20
26.491532680830716
 30
104.0
 11
1238.9
 21
2.7768544660757453
 31
104.0
  0
SPLINE
  5
95
330
17
100
AcDbEntity
  8
0
100
AcDbSpline
 70
0
 71
4
 72
10
 73
5
 74
0
 40
0.0
 40
0.0
 40
0.0
 40
0.0
 40
0.0
 40
1.0
 40
1.0
 40
1.0
 40
1.0
 40
1.0
 10
1235.0999993998598
 20
26.486087920298267
 30
104.0
 10
1236.0500027325804
 20
26.487299195816934
 30
104.0
 10
1237.000004062205
 20
26.48860938817773
 30
104.0
 10
1237.950003360909
 20
26.490020036990245
 30
104.0
 10
1238.9000006001347
 20
26.49153268178629
 30
104.0
  0
LINE
  5
96
330
17
100
AcDbEntity
  8
0
100
AcDbLine
 10
1235.1
 20
26.486087921063458
 30
104.0
 11
1235.1
 21
2.6940590163562863
 31
104.0
  0
SPLINE
  5
97
330
17
100
AcDbEntity
  8
0
100
AcDbSpline
 70
0
 71
4
 72
10
 73
5
 74
0
 40
0.0
 40
0.0
 40
0.0
 40
0.0
 40
0.0
 40
1.0
 40
1.0
 40
1.0
 40
1.0
 40
1.0
 10
1235.100000000047
 20
2.6940590141639467
 30
104.0
 10
1229.5500721847193
 20
2.5746095821558077
 30
104.0
 10
1224.0000212397513
 20
2.4608810079585166
 30
104.0
 10
1218.4498591518775
 20
2.352727261385696
 30
104.0
 10
1212.899596599968
 20
2.250001391997087
 30
104.0
  0
LINE
  5
98
330
17
100
AcDbEntity
  8
0
100
AcDbLine
 10
1212.9
 20
26.476810647559233
 30
104.0
 11
1212.9
 21
2.2500088613050275
 31
104.0
  0
SPLINE
  5
99
330
17
100
AcDbEntity
  8
0
100
AcDbSpline
 70
0
 71
4
 72
10
 73
5
 74
0
 40
0.0
 40
0.0
 40
0.0
 40
0.0
 40
0.0
 40
1.0
 40
1.0
 40
1.0
 40
1.0
 40
1.0
 10
1209.099999399813
 20
26.478748870297007
 30
104.0
 10
1210.0500022038623
 20
26.4781460052723
 30
104.0
 10
1211.0000033543045
 20
26.477620987140106
 30
104.0
 10
1211.9500028277391
 20
26.477175354856122
 30
104.0
 10
1212.9000006001813
 20
26.47681064732882
 30
104.0
  0
LINE
  5
9A
330
17
100
AcDbEntity
  8
0
100
AcDbLine
 10
1209.1
 20
26.47874886991613
 30
104.0
 11
1209.1
 21
2.1806286778831088
 31
104.0
  0
SPLINE
  5
9B
330
17
100
AcDbEntity
  8
0
100
AcDbSpline
 70
0
 71
4
 72
10
 73
5
 74
0
 40
0.0
 40
0.0
 40
0.0
 40
0.0
 40
0.0
 40
1.0
 40
1.0
 40
1.0
 40
1.0
 40
1.0
 10
1209.1000000000552
 20
2.180628674790337
 30
104.0
 10
1203.5500342151734
 20
2.08068311153024
 30
104.0
 10
1197.9999715998474
 20
1.986114521326205
 30
104.0
 10
1192.4498226036915
 20
1.8967763476938548
 30
104.0
 10
1186.899596442837
 20
1.8125211548834248
 30
104.0
  0
LINE
  5
9C
330
17
100
AcDbEntity
  8
0
100
AcDbLine
 10
1186.9
 20
26.507550414983736
 30
104.0
 11
1186.9
 21
1.812527286016853
 31
104.0
  0
SPLINE
  5
9D
330
17
100
AcDbEntity
  8
0
100
AcDbSpline
 70
0
 71
4
 72
10
 73
5
 74
0
 40
0.0
 40
0.0
 40
0.0
 40
0.0
 40
0.0
 40
1.0
 40
1.0
 40
1.0
 40
1.0
 40
1.0
 10
1183.099999399768
 20
26.51514185010758
 30
104.0
 10
1184.050001756214
 20
26.51315727087533
 30
104.0
 10
1185.000002755197
 20
26.511229479510412
 30
104.0
 10
1185.9500023766889
 20
26.509360014383795
 30
104.0
 10
1186.9000006002218
 20
26.507550413840406
 30
104.0
  0
LINE
  5
9E
330
17
100
AcDbEntity
  8
0
100
AcDbLine
 10
1183.1
 20
26.51514184885368
 30
104.0
 11
1183.1
 21
1.7557319844544117
 31
104.0
  0
SPLINE
  5
9F
330
17
100
AcDbEntity
  8
0
100
AcDbSpline
 70
0
 71
4
 72
10
 73
5
 74
0
 40
0.0
 40
0.0
 40
0.0
 40
0.0
 40
0.0
 40
1.0
 40
1.0
 40
1.0
 40
1.0
 40
1.0
 10
1183.1000000000734
 20
1.75573197946495
 30
104.0
 10
1177.5500014336344
 20
1.6740776447530092
 30
104.0
 10
1171.9999288331276
 20
1.5974554062375097
 30
104.0
 10
1166.4497912011432
 20
1.525718190052885
 30
104.0
 10
1160.899596382277
 20
1.45871808923199
 30
104.0
  0
LINE
  5
A0
330
17
100
AcDbEntity
  8
0
100
AcDbLine
 10
1160.9
 20
26.571919619249798
 30
104.0
 11
1160.9
 21
1.4587229677849356
 31
104.0
  0
SPLINE
  5
A1
330
17
100
AcDbEntity
  8
0
100
AcDbSpline
 70
0
 71
4
 72
10
 73
5
 74
0
 40
0.0
 40
0.0
 40
0.0
 40
0.0
 40
0.0
 40
1.0
 40
1.0
 40
1.0
 40
1.0
 40
1.0
 10
1157.0999993997368
 20
26.583435452524885
 30
104.0
 10
1158.0500013680014
 20
26.580501348611108
 30
104.0
 10
1159.0000022360348
 20
26.577602982661507
 30
104.0
 10
1159.9500019861168
 20
26.574741892555657
 30
104.0
 10
1160.9000006002561
 20
26.571919616166603
 30
104.0
  0
LINE
  5
A2
330
17
100
AcDbEntity
  8
0
100
AcDbLine
 10
1157.1
 20
26.583435452398643
 30
104.0
 11
1157.1
 21
1.4136803544526464
 31
104.0
  0
SPLINE
  5
A3
330
17
100
AcDbEntity
  8
0
100
AcDbSpline
 70
0
 71
4
 72
10
 73
5
 74
0
 40
0.0
 40
0.0
 40
0.0
 40
0.0
 40
0.0
 40
1.0
 40
1.0
 40
1.0
 40
1.0
 40
1.0
 10
1157.1000000000731
 20
1.4136803481775364
 30
104.0
 10
1151.549973512822
 20
1.3491018655463487
 30
104.0
 10
1145.99989249926
 20
1.2892095984302088
 30
104.0
 10
1140.4497646059863
 20
1.2338559716583284
 30
104.0
 10
1134.8995963980458
 20
1.1828926286800776
 30
104.0
  0
LINE
  5
A4
330
17
100
AcDbEntity
  8
0
100
AcDbLine
 10
1134.9
 20
26.658091881500578
 30
104.0
 11
1134.9
 21
1.1828963421892258
 31
104.0
  0
SPLINE
  5
A5
330
17
100
AcDbEntity
  8
0
100
AcDbSpline
 70
0
 71
5
 72
12
 73
6
 74
0
 40
0.0
 40
0.0
 40
0.0
 40
0.0
 40
0.0
 40
0.0
 40
1.0
 40
1.0
 40
1.0
 40
1.0
 40
1.0
 40
1.0
 10
1131.0999993997127
 20
26.671804057619397
 30
104.0
 10
1131.932792815952
 20
26.66877828171489
 30
104.0
 10
1132.6632709675516
 20
26.6661348396731
 30
104.0
 10
1133.461106763763
 20
26.663252810710517
 30
104.0
 10
1134.2888775277052
 20
26.66028093563606
 30
104.0
 10
1134.9000006002864
 20
26.658091872026
 30
104.0
  0
LINE
  5
A6
330
17
100
AcDbEntity
  8
0
100
AcDbLine
 10
1131.1
 20
26.671804062962153
 30
104.0
 11
1131.1
 21
1.148772285726503
 31
104.0
  0
SPLINE
  5
A7
330
17
100
AcDbEntity
  8
0
100
AcDbSpline
 70
0
 71
4
 72
10
 73
5
 74
0
 40
0.0
 40
0.0
 40
0.0
 40
0.0
 40
0.0
 40
1.0
 40
1.0
 40
1.0
 40
1.0
 40
1.0
 10
1131.1000000000663
 20
1.1487722781517766
 30
104.0
 10
1125.5499501230279
 20
1.100051365226941
 30
104.0
 10
1119.9998621547652
 20
1.0556697949480665
 30
104.0
 10
1114.4497424774738
 20
1.0154795139859263
 30
104.0
 10
1108.8995964699593
 20
0.979331748269448
 30
104.0
  0
LINE
  5
A8
330
17
100
AcDbEntity
  8
0
100
AcDbLine
 10
1108.9
 20
26.75424545527991
 30
104.0
 11
1108.9
 21
0.9793343851413474
 31
104.0
  0
SPLINE
  5
A9
330
17
100
AcDbEntity
  8
0
100
AcDbSpline
 70
0
 71
4
 72
10
 73
5
 74
0
 40
0.0
 40
0.0
 40
0.0
 40
0.0
 40
0.0
 40
1.0
 40
1.0
 40
1.0
 40
1.0
 40
1.0
 10
1105.0999993996932
 20
26.768426495517843
 30
104.0
 10
1106.0500006834488
 20
26.764889209229572
 30
104.0
 10
1107.0000013222934
 20
26.761345580465584
 30
104.0
 10
1107.9500012999833
 20
26.757797146473358
 30
104.0
 10
1108.9000006003093
 20
26.754245444524535
 30
104.0
  0
LINE
  5
AA
330
17
100
AcDbEntity
  8
0
100
AcDbLine
 10
1105.1
 20
26.768426501376194
 30
104.0
 11
1105.1
 21
0.955292762622492
 31
104.0
  0
SPLINE
  5
AB
330
17
100
AcDbEntity
  8
0
100
AcDbSpline
 70
0
 71
4
 72
10
 73
5
 74
0
 40
0.0
 40
0.0
 40
0.0
 40
0.0
 40
0.0
 40
1.0
 40
1.0
 40
1.0
 40
1.0
 40
1.0
 10
1105.1004035160338
 20
0.9552952319767388
 30
104.0
 10
1099.550232233982
 20
0.9212097946337536
 30
104.0
 10
1094.0000364394518
 20
0.8911160240375468
 30
104.0
 10
1088.4498213437382
 20
0.8648654146969936
 30
104.0
 10
1082.8995912337036
 20
0.8423088087154407
 30
104.0
  0
LINE
  5
AC
330
17
100
AcDbEntity
  8
0
100
AcDbLine
 10
1082.9
 20
26.848561913623413
 30
104.0
 11
1082.9
 21
0.8423104796176251
 31
104.0
  0
SPLINE
  5
AD
330
17
100
AcDbEntity
  8
0
100
AcDbSpline
 70
0
 71
4
 72
10
 73
5
 74
0
 40
0.0
 40
0.0
 40
0.0
 40
0.0
 40
0.0
 40
1.0
 40
1.0
 40
1.0
 40
1.0
 40
1.0
 10
1079.0999993996784
 20
26.861484710763943
 30
104.0
 10
1080.0500003439515
 20
26.858293538336333
 30
104.0
 10
1081.0000008701718
 20
26.855074988699958
 30
104.0
 10
1081.9500009612589
 20
26.851830598972708
 30
104.0
 10
1082.9000006003187
 20
26.848561906311737
 30
104.0
  0
LINE
  5
AE
330
17
100
AcDbEntity
  8
0
100
AcDbLine
 10
1079.1
 20
26.86148470900231
 30
104.0
 11
1079.1
 21
0.8275132044031449
 31
104.0
  0
SPLINE
  5
AF
330
17
100
AcDbEntity
  8
0
100
AcDbSpline
 70
0
 71
4
 72
10
 73
5
 74
0
 40
0.0
 40
0.0
 40
0.0
 40
0.0
 40
0.0
 40
1.0
 40
1.0
 40
1.0
 40
1.0
 40
1.0
 10
1079.1000000000358
 20
0.8275131947164536
 30
104.0
 10
1073.5499142273677
 20
0.8068407624811221
 30
104.0
 10
1067.9998148880748
 20
0.7898111297509645
 30
104.0
 10
1062.4497061160048
 20
0.7762753997108364
 30
104.0
 10
1056.8995912011064
 20
0.7660841032460703
 30
104.0
  0
LINE
  5
B0
330
17
100
AcDbEntity
  8
0
100
AcDbLine
 10
1056.9
 20
26.92922480684573
 30
104.0
 11
1056.9
 21
0.7660848640548701
 31
104.0
  0
SPLINE
  5
B1
330
17
100
AcDbEntity
  8
0
100
AcDbSpline
 70
0
 71
4
 72
10
 73
5
 74
0
 40
0.0
 40
0.0
 40
0.0
 40
0.0
 40
0.0
 40
1.0
 40
1.0
 40
1.0
 40
1.0
 40
1.0
 10
1053.099999399673
 20
26.93916242783633
 30
104.0
 10
1054.049999977562
 20
26.936749101621647
 30
104.0
 10
1055.0000003828898
 20
26.93428736432377
 30
104.0
 10
1055.9500005966859
 20
26.931778753047197
 30
104.0
 10
1056.9000006003257
 20
26.929224804955776
 30
104.0
  0
LINE
  5
B2
330
17
100
AcDbEntity
  8
0
100
AcDbLine
 10
1053.1
 20
26.939162426741756
 30
104.0
 11
1053.1
 21
0.7596920035720838
 31
104.0
  0
SPLINE
  5
B3
330
17
100
AcDbEntity
  8
0
100
AcDbSpline
 70
0
 71
4
 72
10
 73
5
 74
0
 40
0.0
 40
0.0
 40
0.0
 40
0.0
 40
0.0
 40
1.0
 40
1.0
 40
1.0
 40
1.0
 40
1.0
 10
1053.1000000000158
 20
0.7596919933841119
 30
104.0
 10
1047.5499037952582
 20
0.7512048581837388
 30
104.0
 10
1041.9998025562472
 20
0.7460110161265123
 30
104.0
 10
1036.4496994348801
 20
0.7439612292220957
 30
104.0
 10
1030.8995968214044
 20
0.7449057803347849
 30
104.0
  0
LINE
  5
B4
330
17
100
AcDbEntity
  8
0
100
AcDbLine
 10
1030.9
 20
26.98441833014381
 30
104.0
 11
1030.9
 21
0.7449057220790845
 31
104.0
  0
SPLINE
  5
B5
330
17
100
AcDbEntity
  8
0
100
AcDbSpline
 70
0
 71
4
 72
10
 73
5
 74
0
 40
0.0
 40
0.0
 40
0.0
 40
0.0
 40
0.0
 40
1.0
 40
1.0
 40
1.0
 40
1.0
 40
1.0
 10
1027.0999993996743
 20
26.989643817401536
 30
104.0
 10
1028.0499995627165
 20
26.988440077272195
 30
104.0
 10
1028.9999998316919
 20
26.987166891037383
 30
104.0
 10
1029.9500001846998
 20
26.98582579589449
 30
104.0
 10
1030.9000006003262
 20
26.98441832911547
 30
104.0
  0
LINE
  5
B6
330
17
100
AcDbEntity
  8
0
100
AcDbLine
 10
1027.1
 20
26.98964381665867
 30
104.0
 11
1027.1
 21
0.7460757143961544
 31
104.0
  0
SPLINE
  5
B7
330
17
100
AcDbEntity
  8
0
100
AcDbSpline
 70
0
 71
4
 72
13
 73
8
 74
0
 40
0.0
 40
0.0
 40
0.0
 40
0.0
 40
0.0
 40
0.5040038630224047
 40
0.5040038630224047
 40
0.5040038630224047
 40
1.0
 40
1.0
 40
1.0
 40
1.0
 40
1.0
 10
1027.0999999999951
 20
0.7460757040208676
 30
104.0
 10
1024.3027764889569
 20
0.7473200176377554
 30
104.0
 10
1021.5055533105825
 20
0.74931191676809
 30
104.0
 10
1018.7083307556771
 20
0.7520322674862991
 30
104.0
 10
1013.1583302685998
 20
0.7588370600277318
 30
104.0
 10
1010.4055523094764
 20
0.7628995380145066
 30
104.0
 10
1007.6527754592439
 20
0.7676564593034838
 30
104.0
 10
1004.8999999999795
 20
0.7731148894873595
 30
104.0
  0
LINE
  5
B8
330
17
100
AcDbEntity
  8
0
100
AcDbLine
 10
1004.9
 20
27.0025846510589
 30
104.0
 11
1004.9
 21
0.7731148996807946
 31
104.0
  0
SPLINE
  5
B9
330
17
100
AcDbEntity
  8
0
100
AcDbSpline
 70
0
 71
4
 72
10
 73
5
 74
0
 40
0.0
 40
0.0
 40
0.0
 40
0.0
 40
0.0
 40
1.0
 40
1.0
 40
1.0
 40
1.0
 40
1.0
 10
1001.099999399677
 20
27.001737831819543
 30
104.0
 10
1002.0499991694155
 20
27.0020557980771
 30
104.0
 10
1002.9999993030123
 20
27.002303627900776
 30
104.0
 10
1003.9499997851916
 20
27.002480263949344
 30
104.0
 10
1004.9000006003203
 20
27.002584648982964
 30
104.0
  0
LINE
  5
BA
330
17
100
AcDbEntity
  8
0
100
AcDbLine
 10
1001.1
 20
27.001737835068454
 30
104.0
 11
1001.1
 21
0.7811523361230701
 31
104.0
  0
SPLINE
  5
BB
330
17
100
AcDbEntity
  8
0
100
AcDbSpline
 70
0
 71
4
 72
10
 73
5
 74
0
 40
0.0
 40
0.0
 40
0.0
 40
0.0
 40
0.0
 40
1.0
 40
1.0
 40
1.0
 40
1.0
 40
1.0
 10
1001.0999999999768
 20
0.7811523259216794
 30
104.0
 10
995.5499878908339
 20
0.7936268363267165
 30
104.00000000000001
 10
989.9999822360246
 20
0.8089728405591842
 30
104.00000000000003
 10
984.4499853941078
 20
0.8272486782757282
 30
104.00000000000004
 10
978.899999999961
 20
0.8485125184877658
 30
104.00000000000006
  0
LINE
  5
BC
330
17
100
AcDbEntity
  8
0
100
AcDbLine
 10
978.9
 20
26.980787961716906
 30
104.0
 11
978.9
 21
0.8485125286914896
 31
104.0
  0
SPLINE
  5
BD
330
17
100
AcDbEntity
  8
0
100
AcDbSpline
 70
0
 71
4
 72
10
 73
5
 74
0
 40
0.0
 40
0.0
 40
0.0
 40
0.0
 40
0.0
 40
1.0
 40
1.0
 40
1.0
 40
1.0
 40
1.0
 10
975.0999993996879
 20
26.974689642568602
 30
104.0
 10
976.0499988765961
 20
26.97629878373448
 30
104.0
 10
976.9999989111274
 20
26.97785225565055
 30
104.0
 10
977.9499994901684
 20
26.979349000951895
 30
104.0
 10
978.9000006003095
 20
26.980787962354867
 30
104.0
  0
LINE
  5
BE
330
17
100
AcDbEntity
  8
0
100
AcDbLine
 10
975.1
 20
26.97468964358543
 30
104.0
 11
975.1
 21
0.8635980743420949
 31
104.0
  0
SPLINE
  5
BF
330
17
100
AcDbEntity
  8
0
100
AcDbSpline
 70
0
 71
4
 72
10
 73
5
 74
0
 40
0.0
 40
0.0
 40
0.0
 40
0.0
 40
0.0
 40
1.0
 40
1.0
 40
1.0
 40
1.0
 40
1.0
 10
975.099999999958
 20
0.8635980641467949
 30
104.0
 10
969.549978704334
 20
0.8864016374052855
 30
104.0
 10
963.9999697680005
 20
0.9122132102712383
 30
104.0
 10
958.4499758754325
 20
0.9410912063966584
 30
104.0
 10
952.8999999999473
 20
0.9730938072574168
 30
104.0
  0
LINE
  5
C0
330
17
100
AcDbEntity
  8
0
100
AcDbLine
 10
952.9
 20
26.926529476481846
 30
104.0
 11
952.9
 21
0.9730938164151406
 31
104.0
  0
SPLINE
  5
C1
330
17
100
AcDbEntity
  8
0
100
AcDbSpline
 70
0
 71
4
 72
10
 73
5
 74
0
 40
0.0
 40
0.0
 40
0.0
 40
0.0
 40
0.0
 40
1.0
 40
1.0
 40
1.0
 40
1.0
 40
1.0
 10
949.0999993997075
 20
26.916367424249653
 30
104.0
 10
950.0499986234003
 20
26.91897079693658
 30
104.0
 10
950.9999985724071
 20
26.92153296814846
 30
104.0
 10
951.9499992352653
 20
26.92405288046331
 30
104.0
 10
952.9000006002993
 20
26.926529476523037
 30
104.0
  0
LINE
  5
C2
330
17
100
AcDbEntity
  8
0
100
AcDbLine
 10
949.1
 20
26.916367428349822
 30
104.0
 11
949.1
 21
0.9955561125397641
 31
104.0
  0
SPLINE
  5
C3
330
17
100
AcDbEntity
  8
0
100
AcDbSpline
 70
0
 71
4
 72
10
 73
5
 74
0
 40
0.0
 40
0.0
 40
0.0
 40
0.0
 40
0.0
 40
1.0
 40
1.0
 40
1.0
 40
1.0
 40
1.0
 10
949.099999999945
 20
0.995556103425732
 30
104.0
 10
943.5498676114588
 20
1.0291694248573933
 30
104.0
 10
937.9997542688003
 20
1.0659274964052488
 30
104.0
 10
932.4496629978662
 20
1.10588876085017
 30
104.0
 10
926.8995971253959
 20
1.1491113616864386
 30
104.0
  0
LINE
  5
C4
330
17
100
AcDbEntity
  8
0
100
AcDbLine
 10
926.9
 20
26.847936191992233
 30
104.0
 11
926.9
 21
1.149108232952409
 31
104.0
  0
SPLINE
  5
C5
330
17
100
AcDbEntity
  8
0
100
AcDbSpline
 70
0
 71
4
 72
10
 73
5
 74
0
 40
0.0
 40
0.0
 40
0.0
 40
0.0
 40
0.0
 40
1.0
 40
1.0
 40
1.0
 40
1.0
 40
1.0
 10
923.0999993997272
 20
26.83489823936029
 30
104.0
 10
924.0499983996295
 20
26.83819888230766
 30
104.0
 10
924.9999982732465
 20
26.841472792924776
 30
104.0
 10
925.9499990102772
 20
26.844718913689306
 30
104.0
 10
926.9000006002794
 20
26.847936187128862
 30
104.0
  0
LINE
  5
C6
330
17
100
AcDbEntity
  8
0
100
AcDbLine
 10
923.1
 20
26.834898248352633
 30
104.0
 11
923.1
 21
1.1792761587218892
 31
104.0
  0
SPLINE
  5
C7
330
17
100
AcDbEntity
  8
0
100
AcDbSpline
 70
0
 71
4
 72
10
 73
5
 74
0
 40
0.0
 40
0.0
 40
0.0
 40
0.0
 40
0.0
 40
0.9999751506252723
 40
0.9999751506252723
 40
0.9999751506252723
 40
0.9999751506252723
 40
0.9999751506252723
 10
923.1004028613877
 20
1.1792728907367513
 30
104.0
 10
917.5502588637381
 20
1.224175776110839
 30
104.0
 10
912.0001414142145
 20
1.2723600476368644
 30
104.0
 10
906.4500538947823
 20
1.3238841119779028
 30
104.0
 10
900.8999999999207
 20
1.3788060350418898
 30
104.0
  0
LINE
  5
C8
330
17
100
AcDbEntity
  8
0
100
AcDbLine
 10
900.9
 20
26.75313578617915
 30
104.0
 11
900.9
 21
1.3788060430835196
 31
104.0
  0
SPLINE
  5
C9
330
17
100
AcDbEntity
  8
0
100
AcDbSpline
 70
0
 71
5
 72
12
 73
6
 74
0
 40
0.0
 40
0.0
 40
0.0
 40
0.0
 40
0.0
 40
0.0
 40
1.0
 40
1.0
 40
1.0
 40
1.0
 40
1.0
 40
1.0
 10
897.0999993997474
 20
26.73840992675459
 30
104.0
 10
897.9088202467193
 20
26.741560852971457
 30
104.0
 10
898.659472618627
 20
26.74447682789365
 30
104.0
 10
899.4395002622095
 20
26.747500845565796
 30
104.0
 10
900.2289152679145
 20
26.750549668621833
 30
104.0
 10
900.9000006002533
 20
26.75313578482977
 30
104.0
  0
LINE
  5
CA
330
17
100
AcDbEntity
  8
0
100
AcDbLine
 10
897.1
 20
26.738409931529674
 30
104.0
 11
897.1
 21
1.4170084496917306
 31
104.0
  0
SPLINE
  5
CB
330
17
100
AcDbEntity
  8
0
100
AcDbSpline
 70
0
 71
4
 72
10
 73
5
 74
0
 40
0.0
 40
0.0
 40
0.0
 40
0.0
 40
0.0
 40
1.0
 40
1.0
 40
1.0
 40
1.0
 40
1.0
 10
897.0999999999192
 20
1.4170084417839095
 30
104.0
 10
891.5498431622398
 20
1.473681603303532
 30
104.0
 10
885.9997212260192
 20
1.5337726925267379
 30
104.0
 10
880.4496379438569
 20
1.5973400469366053
 30
104.0
 10
874.8995973922641
 20
1.6644416321011017
 30
104.0
  0
LINE
  5
CC
330
17
100
AcDbEntity
  8
0
100
AcDbLine
 10
874.9
 20
26.650257209986755
 30
104.0
 11
874.9
 21
1.6644367714148607
 31
104.0
  0
SPLINE
  5
CD
330
17
100
AcDbEntity
  8
0
100
AcDbSpline
 70
0
 71
1
 72
4
 73
2
 74
0
 40
0.0
 40
0.0
 40
1.0
 40
1.0
 10
871.099999399778
 20
26.63503165835063
 30
104.0
 10
874.9000006002261
 20
26.650257211961755
 30
104.0
  0
LINE
  5
CE
330
17
100
AcDbEntity
  8
0
100
AcDbLine
 10
871.1
 20
26.635031660955207
 30
104.0
 11
871.1
 21
1.7110023121292166
 31
104.0
  0
SPLINE
  5
CF
330
17
100
AcDbEntity
  8
0
100
AcDbSpline
 70
0
 71
4
 72
10
 73
5
 74
0
 40
0.0
 40
0.0
 40
0.0
 40
0.0
 40
0.0
 40
1.0
 40
1.0
 40
1.0
 40
1.0
 40
1.0
 10
871.0999999999161
 20
1.7110023053776366
 30
104.0
 10
865.5499295719529
 20
1.779924380775657
 30
104.0
 10
859.9999032818831
 20
1.8524006413995715
 30
104.0
 10
854.4499252670034
 20
1.9284893315693983
 30
104.0
 10
848.8999999999227
 20
2.0082483107142046
 30
104.0
  0
LINE
  5
D0
330
17
100
AcDbEntity
  8
0
100
AcDbLine
 10
848.9
 20
26.547431217331905
 30
104.0
 11
848.9
 21
2.008248316100436
 31
104.0
  0
SPLINE
  5
D1
330
17
100
AcDbEntity
  8
0
100
AcDbSpline
 70
0
 71
5
 72
12
 73
6
 74
0
 40
0.0
 40
0.0
 40
0.0
 40
0.0
 40
0.0
 40
0.0
 40
1.0
 40
1.0
 40
1.0
 40
1.0
 40
1.0
 40
1.0
 10
845.09999939981
 20
26.532894496206733
 30
104.0
 10
845.9087537775049
 20
26.535967939243854
 30
104.0
 10
846.5484088661681
 20
26.538409827892806
 30
104.0
 10
847.3888988166075
 20
26.541617934665375
 30
104.0
 10
848.3533963673971
 20
26.545327026865884
 30
104.0
 10
848.9000006001978
 20
26.547431219555083
 30
104.0
  0
LINE
  5
D2
330
17
100
AcDbEntity
  8
0
100
AcDbLine
 10
845.1
 20
26.53289449874356
 30
104.0
 11
845.1
 21
2.063505371063211
 31
104.0
  0
SPLINE
  5
D3
330
17
100
AcDbEntity
  8
0
100
AcDbSpline
 70
0
 71
4
 72
10
 73
5
 74
0
 40
0.0
 40
0.0
 40
0.0
 40
0.0
 40
0.0
 40
1.0
 40
1.0
 40
1.0
 40
1.0
 40
1.0
 10
845.0999999999246
 20
2.0635053659498888
 30
104.0
 10
839.5498134186985
 20
2.1451585305557903
 30
104.0
 10
833.9996811336794
 20
2.2305022240314964
 30
104.0
 10
828.4496076817379
 20
2.319594602439704
 30
104.0
 10
822.8995979465564
 20
2.4124934353763567
 30
104.0
  0
LINE
  5
D4
330
17
100
AcDbEntity
  8
0
100
AcDbLine
 10
822.9
 20
26.452790923910676
 30
104.0
 11
822.9
 21
2.4124867088803694
 31
104.0
  0
SPLINE
  5
D5
330
17
100
AcDbEntity
  8
0
100
AcDbSpline
 70
0
 71
4
 72
10
 73
5
 74
0
 40
0.0
 40
0.0
 40
0.0
 40
0.0
 40
0.0
 40
1.0
 40
1.0
 40
1.0
 40
1.0
 40
1.0
 10
819.0999993998457
 20
26.44013195007374
 30
104.0
 10
820.0499975948718
 20
26.44325098943658
 30
104.0
 10
820.9999972003228
 20
26.446401203969803
 30
104.0
 10
821.9499982055771
 20
26.449581535240977
 30
104.0
 10
822.9000006001602
 20
26.452790924810266
 30
104.0
  0
LINE
  5
D6
330
17
100
AcDbEntity
  8
0
100
AcDbLine
 10
819.1
 20
26.44013195321662
 30
104.0
 11
819.1
 21
2.476763403830618
 31
104.0
  0
SPLINE
  5
D7
330
17
100
AcDbEntity
  8
0
100
AcDbSpline
 70
0
 71
4
 72
10
 73
5
 74
0
 40
0.0
 40
0.0
 40
0.0
 40
0.0
 40
0.0
 40
1.0
 40
1.0
 40
1.0
 40
1.0
 40
1.0
 10
819.0999999999506
 20
2.4767634009261195
 30
104.0
 10
813.5497964458649
 20
2.5716257323021603
 30
104.0
 10
807.9996582976971
 20
2.670314657062522
 30
104.0
 10
802.4495905063129
 20
2.7728882533681833
 30
104.0
 10
796.8995983811843
 20
2.8794042254631256
 30
104.0
  0
LINE
  5
D8
330
17
100
AcDbEntity
  8
0
100
AcDbLine
 10
796.9
 20
26.37447236920623
 30
104.0
 11
796.9
 21
2.879396516838517
 31
104.0
  0
SPLINE
  5
D9
330
17
100
AcDbEntity
  8
0
100
AcDbSpline
 70
0
 71
4
 72
10
 73
5
 74
0
 40
0.0
 40
0.0
 40
0.0
 40
0.0
 40
0.0
 40
1.0
 40
1.0
 40
1.0
 40
1.0
 40
1.0
 10
793.0999993998789
 20
26.36488053553023
 30
104.0
 10
794.0499973652207
 20
26.367211056427372
 30
104.0
 10
794.9999968949696
 20
26.369587241522837
 30
104.0
 10
795.9499979771764
 20
26.372008032030273
 30
104.0
 10
796.9000006001204
 20
26.37447236914146
 30
104.0
  0
LINE
  5
DA
330
17
100
AcDbEntity
  8
0
100
AcDbLine
 10
793.1
 20
26.36488053758456
 30
104.0
 11
793.1
 21
2.9530208366488147
 31
104.0
  0
SPLINE
  5
DB
330
17
100
AcDbEntity
  8
0
100
AcDbSpline
 70
0
 71
4
 72
10
 73
5
 74
0
 40
0.0
 40
0.0
 40
0.0
 40
0.0
 40
0.0
 40
1.0
 40
1.0
 40
1.0
 40
1.0
 40
1.0
 10
793.1004015447456
 20
2.9530129840402672
 30
104.0
 10
787.5500791625892
 20
3.061565383814423
 30
104.0
 10
781.9998342869524
 20
3.174080492224602
 30
104.0
 10
776.4496722981372
 20
3.2906163427555226
 30
104.0
 10
770.8995989474633
 20
3.4112306224882314
 30
104.0
  0
LINE
  5
DC
330
17
100
AcDbEntity
  8
0
100
AcDbLine
 10
770.9
 20
26.320615075996425
 30
104.0
 11
770.9
 21
3.411221905891881
 31
104.0
  0
SPLINE
  5
DD
330
17
100
AcDbEntity
  8
0
100
AcDbSpline
 70
0
 71
4
 72
10
 73
5
 74
0
 40
0.0
 40
0.0
 40
0.0
 40
0.0
 40
0.0
 40
1.0
 40
1.0
 40
1.0
 40
1.0
 40
1.0
 10
767.09999939993
 20
26.315280332808324
 30
104.0
 10
768.0499971037498
 20
26.316524838343177
 30
104.0
 10
768.9999965475109
 20
26.317829503661287
 30
104.0
 10
769.9499977174497
 20
26.319193269585167
 30
104.0
 10
770.9000006000841
 20
26.320615076894534
 30
104.0
  0
LINE
  5
DE
330
17
100
AcDbEntity
  8
0
100
AcDbLine
 10
767.1
 20
26.315280333594423
 30
104.0
 11
767.1
 21
3.494521903640006
 31
104.0
  0
SPLINE
  5
DF
330
17
100
AcDbEntity
  8
0
100
AcDbSpline
 70
0
 71
4
 72
13
 73
8
 74
0
 40
0.0
 40
0.0
 40
0.0
 40
0.0
 40
0.0
 40
0.524982387913052
 40
0.524982387913052
 40
0.524982387913052
 40
1.0
 40
1.0
 40
1.0
 40
1.0
 40
1.0
 10
767.100000000021
 20
3.4945219045959783
 30
104.0
 10
764.1862207299469
 20
3.5589468352185847
 30
104.0
 10
761.2724664371285
 20
3.6245013446516685
 30
104.0
 10
758.3587379649781
 20
3.6911938580165047
 30
104.0
 10
752.8086436243485
 20
3.820415065959715
 30
104.0
 10
750.1722729167188
 20
3.8827359381953435
 30
104.0
 10
747.5359247088722
 20
3.9460015685703107
 30
104.0
 10
744.8995996655465
 20
4.010218113182181
 30
104.0
  0
LINE
  5
E0
330
17
100
AcDbEntity
  8
0
100
AcDbLine
 10
744.9
 20
26.29936261959105
 30
104.0
 11
744.9
 21
4.010208360551897
 31
104.0
  0
SPLINE
  5
E1
330
17
100
AcDbEntity
  8
0
100
AcDbSpline
 70
0
 71
4
 72
10
 73
5
 74
0
 40
0.0
 40
0.0
 40
0.0
 40
0.0
 40
0.0
 40
1.0
 40
1.0
 40
1.0
 40
1.0
 40
1.0
 10
741.099999399971
 20
26.299475546417526
 30
104.0
 10
742.0499968001851
 20
26.299336379120952
 30
104.0
 10
742.9999961442642
 20
26.299271874504537
 30
104.0
 10
743.949997416121
 20
26.299280972966933
 30
104.0
 10
744.9000006000294
 20
26.29936261484759
 30
104.0
  0
LINE
  5
E2
330
17
100
AcDbEntity
  8
0
100
AcDbLine
 10
741.1
 20
26.299475550204555
 30
104.0
 11
741.1
 21
4.103512472376521
 31
104.0
  0
SPLINE
  5
E3
330
17
100
AcDbEntity
  8
0
100
AcDbSpline
 70
0
 71
4
 72
13
 73
8
 74
0
 40
0.0
 40
0.0
 40
0.0
 40
0.0
 40
0.0
 40
0.49998083871066684
 40
0.49998083871066684
 40
0.49998083871066684
 40
1.0
 40
1.0
 40
1.0
 40
1.0
 40
1.0
 10
741.1000000000292
 20
4.103512473559632
 30
104.0
 10
738.3249746148007
 20
4.1721927439396085
 30
104.0
 10
735.5499754310904
 20
4.2419315959537816
 30
104.0
 10
732.7750032354877
 20
4.312736322758951
 30
104.0
 10
727.2249017463372
 20
4.45649745971816
 30
104.0
 10
724.449772456913
 20
4.529454034248094
 30
104.0
 10
721.6746717817273
 20
4.603491142527222
 30
104.0
 10
718.8996005557616
 20
4.678615985980041
 30
104.0
  0
LINE
  5
E4
330
17
100
AcDbEntity
  8
0
100
AcDbLine
 10
718.9
 20
26.318863154245964
 30
104.0
 11
718.9
 21
4.678605170408595
 31
104.0
  0
SPLINE
  5
E5
330
17
100
AcDbEntity
  8
0
100
AcDbSpline
 70
0
 71
4
 72
10
 73
5
 74
0
 40
0.0
 40
0.0
 40
0.0
 40
0.0
 40
0.0
 40
1.0
 40
1.0
 40
1.0
 40
1.0
 40
1.0
 10
715.0999994000301
 20
26.325615065675088
 30
104.0
 10
716.0499964442865
 20
26.323794387139316
 30
104.0
 10
716.9999956715639
 20
26.322062882155397
 30
104.0
 10
717.9499970629531
 20
26.3204194906835
 30
104.0
 10
718.90000059998
 20
26.31886315260211
 30
104.0
  0
LINE
  5
E6
330
17
100
AcDbEntity
  8
0
100
AcDbLine
 10
715.1
 20
26.32561506533374
 30
104.0
 11
715.1
 21
4.782242636527748
 31
104.0
  0
SPLINE
  5
E7
330
17
100
AcDbEntity
  8
0
100
AcDbSpline
 70
0
 71
4
 72
13
 73
8
 74
0
 40
0.0
 40
0.0
 40
0.0
 40
0.0
 40
0.0
 40
0.49999211671551086
 40
0.49999211671551086
 40
0.49999211671551086
 40
0.9999754948401057
 40
0.9999754948401057
 40
0.9999754948401057
 40
0.9999754948401057
 40
0.9999754948401057
 10
715.100399298485
 20
4.782231675023338
 30
104.0
 10
712.3252316156477
 20
4.858479482795638
 30
104.0
 10
709.5500939606708
 20
4.935820093892523
 30
104.0
 10
706.7749871805354
 20
5.014260823314612
 30
104.0
 10
701.2248856136154
 20
5.173355602806536
 30
104.0
 10
698.4498908255752
 20
5.254009614065906
 30
104.0
 10
695.6749286555148
 20
5.335778249245196
 30
104.0
 10
692.9000000004033
 20
5.418668738507892
 30
104.0
  0
LINE
  5
E8
330
17
100
AcDbEntity
  8
0
100
AcDbLine
 10
692.9
 20
26.38727003400075
 30
104.0
 11
692.9
 21
5.4186687250054595
 31
104.0
  0
SPLINE
  5
E9
330
17
100
AcDbEntity
  8
0
100
AcDbSpline
 70
0
 71
4
 72
10
 73
5
 74
0
 40
0.0
 40
0.0
 40
0.0
 40
0.0
 40
0.0
 40
1.0
 40
1.0
 40
1.0
 40
1.0
 40
1.0
 10
689.099999400087
 20
26.401853026250826
 30
104.0
 10
690.0499960257531
 20
26.39805279675671
 30
104.0
 10
690.999995115684
 20
26.39435626021722
 30
104.0
 10
691.9499966476496
 20
26.390762356150063
 30
104.0
 10
692.900000599925
 20
26.387270023972672
 30
104.0
  0
LINE
  5
EA
330
17
100
AcDbEntity
  8
0
100
AcDbLine
 10
689.1
 20
26.4018530306867
 30
104.0
 11
689.1
 21
5.532970178659529
 31
104.0
  0
SPLINE
  5
EB
330
17
100
AcDbEntity
  8
0
100
AcDbSpline
 70
0
 71
4
 72
13
 73
8
 74
0
 40
0.0
 40
0.0
 40
0.0
 40
0.0
 40
0.0
 40
0.5300049371192859
 40
0.5300049371192859
 40
0.5300049371192859
 40
1.0
 40
1.0
 40
1.0
 40
1.0
 40
1.0
 10
689.1003981856932
 20
5.532958132782568
 30
104.0
 10
686.1586530967003
 20
5.622056865408931
 30
104.0
 10
683.2169463696795
 20
5.71242203035907
 30
104.0
 10
680.2752790882217
 20
5.80406237529108
 30
104.0
 10
674.7250916956341
 20
5.979389419824908
 30
104.0
 10
672.1165629195705
 20
6.062801858195706
 30
104.0
 10
669.5080665161379
 20
6.147220348440834
 30
104.0
 10
666.8996029687764
 20
6.232641935909912
 30
104.0
  0
LINE
  5
EC
330
17
100
AcDbEntity
  8
0
100
AcDbLine
 10
666.9
 20
26.512742519193857
 30
104.0
 11
666.9
 21
6.23262891537454
 31
104.0
  0
SPLINE
  5
ED
330
17
100
AcDbEntity
  8
0
100
AcDbSpline
 70
0
 71
4
 72
10
 73
5
 74
0
 40
0.0
 40
0.0
 40
0.0
 40
0.0
 40
0.0
 40
1.0
 40
1.0
 40
1.0
 40
1.0
 40
1.0
 10
663.0999994001472
 20
26.536349372835534
 30
104.0
 10
664.0499955342835
 20
26.530271330969384
 30
104.0
 10
664.9999944628869
 20
26.524311510411422
 30
104.0
 10
665.949996159907
 20
26.518468850261538
 30
104.0
 10
666.9000005998618
 20
26.512742289484372
 30
104.0
  0
LINE
  5
EE
330
17
100
AcDbEntity
  8
0
100
AcDbLine
 10
663.1
 20
26.53634969753878
 30
104.0
 11
663.1
 21
6.357869266724857
 31
104.0
  0
SPLINE
  5
EF
330
17
100
AcDbEntity
  8
0
100
AcDbSpline
 70
0
 71
4
 72
13
 73
8
 74
0
 40
0.0
 40
0.0
 40
0.0
 40
0.0
 40
0.0
 40
0.5002077266579044
 40
0.5002077266579044
 40
0.5002077266579044
 40
1.0
 40
1.0
 40
1.0
 40
1.0
 40
1.0
 10
663.100396793771
 20
6.3578561252062435
 30
104.0
 10
660.3240296473274
 20
6.449942619709318
 30
104.0
 10
657.5477001268181
 20
6.5431632424648445
 30
104.0
 10
654.7714088245931
 20
6.6375148435885665
 30
104.0
 10
649.2212097217614
 20
6.828395914234404
 30
104.0
 10
646.4473018567223
 20
6.924923509744029
 30
104.0
 10
643.6734333628915
 20
7.022575500281989
 30
104.0
 10
640.8996048683296
 20
7.121350319616792
 30
104.0
  0
LINE
  5
F0
330
17
100
AcDbEntity
  8
0
100
AcDbLine
 10
640.9
 20
26.703445305301415
 30
104.0
 11
640.9
 21
7.121336226115912
 31
104.0
  0
SPLINE
  5
F1
330
17
100
AcDbEntity
  8
0
100
AcDbSpline
 70
0
 71
4
 72
10
 73
5
 74
0
 40
0.0
 40
0.0
 40
0.0
 40
0.0
 40
0.0
 40
1.0
 40
1.0
 40
1.0
 40
1.0
 40
1.0
 10
637.0999994002118
 20
26.737270423042023
 30
104.0
 10
638.0499949595578
 20
26.728616065298127
 30
104.0
 10
638.9999936994194
 20
26.720094466439477
 30
104.0
 10
639.9499955894065
 20
26.711704565185766
 30
104.0
 10
640.9000005997977
 20
26.70344530008682
 30
104.0
  0
LINE
  5
F2
330
17
100
AcDbEntity
  8
0
100
AcDbLine
 10
637.1
 20
26.737270535311225
 30
104.0
 11
637.1
 21
7.257443448295488
 31
104.0
  0
SPLINE
  5
F3
330
17
100
AcDbEntity
  8
0
100
AcDbSpline
 70
0
 71
4
 72
13
 73
8
 74
0
 40
0.0
 40
0.0
 40
0.0
 40
0.0
 40
0.0
 40
0.500421305904405
 40
0.500421305904405
 40
0.500421305904405
 40
1.0
 40
1.0
 40
1.0
 40
1.0
 40
1.0
 10
637.1000000008476
 20
7.257443471823466
 30
104.0
 10
634.3224879124517
 20
7.357505587244672
 30
104.0
 10
631.5450163671964
 20
7.458692610685602
 30
104.0
 10
628.7675860083381
 20
7.561003369647566
 30
104.0
 10
623.2174855806988
 20
7.767697363450305
 30
104.0
 10
620.4448153711378
 20
7.872076818891457
 30
104.0
 10
617.6721875435437
 20
7.977575470105605
 30
104.0
 10
614.8996027943753
 20
8.08419373233056
 30
104.0
  0
LINE
  5
F4
330
17
100
AcDbEntity
  8
0
100
AcDbLine
 10
614.9
 20
26.967551302795997
 30
104.0
 11
614.9
 21
8.08417843676873
 31
104.0
  0
SPLINE
  5
F5
330
17
100
AcDbEntity
  8
0
100
AcDbSpline
 70
0
 71
4
 72
10
 73
5
 74
0
 40
0.0
 40
0.0
 40
0.0
 40
0.0
 40
0.0
 40
1.0
 40
1.0
 40
1.0
 40
1.0
 40
1.0
 10
611.0999994002809
 20
27.012789432648713
 30
104.0
 10
612.049994291239
 20
27.00125999301362
 30
104.0
 10
612.9999928114876
 20
26.989877859159964
 30
104.0
 10
613.9499949258179
 20
26.978641969487295
 30
104.0
 10
614.900000599747
 20
26.96755126219454
 30
104.0
  0
LINE
  5
F6
330
17
100
AcDbEntity
  8
0
100
AcDbLine
 10
611.1
 20
27.01278945497661
 30
104.0
 11
611.1
 21
8.231095213854509
 31
104.0
  0
SPLINE
  5
F7
330
17
100
AcDbEntity
  8
0
100
AcDbSpline
 70
0
 71
4
 72
13
 73
8
 74
0
 40
0.0
 40
0.0
 40
0.0
 40
0.0
 40
0.0
 40
0.5006586338011964
 40
0.5006586338011964
 40
0.5006586338011964
 40
1.0
 40
1.0
 40
1.0
 40
1.0
 40
1.0
 10
611.1000000008295
 20
8.231095235186556
 30
104.0
 10
608.3211612365644
 20
8.339109334479113
 30
104.0
 10
605.5423662324954
 20
8.448248563782151
 30
104.0
 10
602.7636157063514
 20
8.558513747248472
 30
104.0
 10
597.2135160839074
 20
8.781006162973839
 30
104.0
 10
594.4421667499857
 20
8.893227470373143
 30
104.0
 10
591.6708631607662
 20
9.006572086234813
 30
104.0
 10
588.8996061068377
 20
9.121042478958778
 30
104.0
  0
LINE
  5
F8
330
17
100
AcDbEntity
  8
0
100
AcDbLine
 10
588.9
 20
27.31323985775647
 30
104.0
 11
588.9
 21
9.121026188233827
 31
104.0
  0
SPLINE
  5
F9
330
17
100
AcDbEntity
  8
0
100
AcDbSpline
 70
0
 71
4
 72
10
 73
5
 74
0
 40
0.0
 40
0.0
 40
0.0
 40
0.0
 40
0.0
 40
1.0
 40
1.0
 40
1.0
 40
1.0
 40
1.0
 10
585.0999994003398
 20
27.371087162296128
 30
104.0
 10
586.0499935189388
 20
27.356383591811205
 30
104.0
 10
586.9999917852504
 20
27.341841883218898
 30
104.0
 10
587.9499941587362
 20
27.327460974692805
 30
104.0
 10
588.9000005996575
 20
27.313239804164958
 30
104.0
  0
LINE
  5
FA
330
17
100
AcDbEntity
  8
0
100
AcDbLine
 10
585.1
 20
27.371087447122953
 30
104.0
 11
585.1
 21
9.278785590174797
 31
104.0
  0
SPLINE
  5
FB
330
17
100
AcDbEntity
  8
0
100
AcDbSpline
 70
0
 71
4
 72
13
 73
8
 74
0
 40
0.0
 40
0.0
 40
0.0
 40
0.0
 40
0.0
 40
0.5009113517992647
 40
0.5009113517992647
 40
0.5009113517992647
 40
1.0
 40
1.0
 40
1.0
 40
1.0
 40
1.0
 10
585.1000000008327
 20
9.278785610131454
 30
104.0
 10
582.3197967173934
 20
9.394789925080447
 30
104.0
 10
579.5396408253962
 20
9.511929187767619
 30
104.0
 10
576.7595331441969
 20
9.630206314966447
 30
104.0
 10
571.2095319473063
 20
9.86860929926988
 30
104.0
 10
568.4396380752153
 20
9.988726864435456
 30
104.0
 10
565.6697937877738
 20
10.109981569128054
 30
104.0
 10
562.90000000067
 20
10.232378088641976
 30
104.0
  0
LINE
  5
FC
330
17
100
AcDbEntity
  8
0
100
AcDbLine
 10
562.9
 20
27.748698577560017
 30
104.0
 11
562.9
 21
10.232378073478916
 31
104.0
  0
SPLINE
  5
FD
330
17
100
AcDbEntity
  8
0
100
AcDbSpline
 70
0
 71
4
 72
10
 73
5
 74
0
 40
0.0
 40
0.0
 40
0.0
 40
0.0
 40
0.0
 40
1.0
 40
1.0
 40
1.0
 40
1.0
 40
1.0
 10
559.0999994004308
 20
27.820352445745662
 30
104.0
 10
560.0499926323288
 20
27.802175392043285
 30
104.0
 10
560.9999906069227
 20
27.784174765240028
 30
104.0
 10
561.9499932778433
 20
27.766349503405287
 30
104.0
 10
562.9000005995929
 20
27.748698544320593
 30
104.0
  0
LINE
  5
FE
330
17
100
AcDbEntity
  8
0
100
AcDbLine
 10
559.1
 20
27.820352457906683
 30
104.0
 11
559.1
 21
10.401107501005034
 31
104.0
  0
SPLINE
  5
FF
330
17
100
AcDbEntity
  8
0
100
AcDbSpline
 70
0
 71
4
 72
13
 73
8
 74
0
 40
0.0
 40
0.0
 40
0.0
 40
0.0
 40
0.0
 40
0.501167161631582
 40
0.501167161631582
 40
0.501167161631582
 40
1.0
 40
1.0
 40
1.0
 40
1.0
 40
1.0
 10
559.1000000006247
 20
10.401107515007563
 30
104.0
 10
556.318363946179
 20
10.525211366158258
 30
104.0
 10
553.5367794704541
 20
10.650470255792518
 30
104.0
 10
550.7552475276276
 20
10.776889376374973
 30
104.0
 10
545.2052462440982
 20
11.031466120169608
 30
104.0
 10
542.4367764058832
 20
11.159612905066158
 30
104.0
 10
539.6683606312204
 20
11.288921371406584
 30
104.0
 10
536.9000000002144
 20
11.419398655124105
 30
104.0
  0
LINE
  5
100
330
17
100
AcDbEntity
  8
0
100
AcDbLine
 10
536.9
 20
28.282123674127302
 30
104.0
 11
536.9
 21
11.419398650574534
 31
104.0
  0
SPLINE
  5
101
330
17
100
AcDbEntity
  8
0
100
AcDbSpline
 70
0
 71
4
 72
10
 73
5
 74
0
 40
0.0
 40
0.0
 40
0.0
 40
0.0
 40
0.0
 40
1.0
 40
1.0
 40
1.0
 40
1.0
 40
1.0
 10
533.099999400494
 20
28.368782759817048
 30
104.0
 10
534.049991620961
 20
28.346832546627052
 30
104.0
 10
534.9999892625945
 20
28.32507333367671
 30
104.0
 10
535.9499922726936
 20
28.303504059086094
 30
104.0
 10
536.9000005994999
 20
28.282123660635264
 30
104.0
  0
LINE
  5
102
330
17
100
AcDbEntity
  8
0
100
AcDbLine
 10
533.1
 20
28.368782745965053
 30
104.0
 11
533.1
 21
11.599327679424064
 31
104.0
  0
SPLINE
  5
103
330
17
100
AcDbEntity
  8
0
100
AcDbSpline
 70
0
 71
4
 72
13
 73
8
 74
0
 40
0.0
 40
0.0
 40
0.0
 40
0.0
 40
0.0
 40
0.5014414023712218
 40
0.5014414023712218
 40
0.5014414023712218
 40
1.0
 40
1.0
 40
1.0
 40
1.0
 40
1.0
 10
533.1000000001559
 20
11.599327682700409
 30
104.0
 10
530.3168265291994
 20
11.731718243187379
 30
104.0
 10
527.5337095580697
 20
11.865295342066062
 30
104.0
 10
524.7506502182106
 20
12.000066737699555
 30
104.0
 10
519.2006488083605
 20
12.271234159413208
 30
104.0
 10
516.4337060639607
 20
12.407616393788647
 30
104.0
 10
513.6668226958036
 20
12.545196810347402
 30
104.0
 10
510.8999999999088
 20
12.683985386143751
 30
104.0
  0
LINE
  5
104
330
17
100
AcDbEntity
  8
0
100
AcDbLine
 10
510.9
 20
28.921720478217157
 30
104.0
 11
510.9
 21
12.68398538796146
 31
104.0
  0
SPLINE
  5
105
330
17
100
AcDbEntity
  8
0
100
AcDbSpline
 70
0
 71
4
 72
10
 73
5
 74
0
 40
0.0
 40
0.0
 40
0.0
 40
0.0
 40
0.0
 40
1.0
 40
1.0
 40
1.0
 40
1.0
 40
1.0
 10
507.0999994005975
 20
29.02458475658293
 30
104.0
 10
508.04999047576047
 20
28.99856148832648
 30
104.0
 10
508.9999877380235
 20
28.972743534813066
 30
104.0
 10
509.94999113306767
 20
28.947130297601785
 30
104.0
 10
510.90000059941536
 20
28.921720462184638
 30
104.0
  0
LINE
  5
106
330
17
100
AcDbEntity
  8
0
100
AcDbLine
 10
507.1
 20
29.024584746081764
 30
104.0
 11
507.1
 21
12.875458368235243
 31
104.0
  0
SPLINE
  5
107
330
17
100
AcDbEntity
  8
0
100
AcDbSpline
 70
0
 71
4
 72
13
 73
8
 74
0
 40
0.0
 40
0.0
 40
0.0
 40
0.0
 40
0.0
 40
0.501747067108491
 40
0.501747067108491
 40
0.501747067108491
 40
1.0
 40
1.0
 40
1.0
 40
1.0
 40
1.0
 10
507.099999999909
 20
12.875458366438307
 30
104.0
 10
504.3151116100387
 20
13.01641265697913
 30
104.0
 10
501.5302856081481
 20
13.15859813750552
 30
104.0
 10
498.7455233602615
 20
13.30202557975026
 30
104.0
 10
493.19552178238314
 20
13.590380989091122
 30
104.0
 10
490.4302815473477
 20
13.735291552573864
 30
104.0
 10
487.66510709345886
 20
13.881450645054555
 30
104.0
 10
484.9000000000098
 20
14.028871591583252
 30
104.0
  0
LINE
  5
108
330
17
100
AcDbEntity
  8
0
100
AcDbLine
 10
484.9
 20
29.675035601760904
 30
104.0
 11
484.9
 21
14.028871591397158
 31
104.0
  0
SPLINE
  5
109
330
17
100
AcDbEntity
  8
0
100
AcDbSpline
 70
0
 71
4
 72
10
 73
5
 74
0
 40
0.0
 40
0.0
 40
0.0
 40
0.0
 40
0.0
 40
1.0
 40
1.0
 40
1.0
 40
1.0
 40
1.0
 10
481.0999994006853
 20
29.794919516794796
 30
104.0
 10
482.0499893944344
 20
29.764634387209828
 30
104.0
 10
482.99998629444497
 20
29.734558898027405
 30
104.0
 10
483.9499900471611
 20
29.70469273145829
 30
104.0
 10
484.90000059932606
 20
29.675035569339503
 30
104.0
  0
LINE
  5
10A
330
17
100
AcDbEntity
  8
0
100
AcDbLine
 10
481.1
 20
29.794919511845364
 30
104.0
 11
481.1
 21
14.23236606924217
 31
104.0
  0
SPLINE
  5
10B
330
17
100
AcDbEntity
  8
0
100
AcDbSpline
 70
0
 71
4
 72
13
 73
8
 74
0
 40
0.0
 40
0.0
 40
0.0
 40
0.0
 40
0.0
 40
0.502082427993873
 40
0.502082427993873
 40
0.502082427993873
 40
1.0
 40
1.0
 40
1.0
 40
1.0
 40
1.0
 10
481.10000000019596
 20
14.232366072884478
 30
104.0
 10
478.3132277950974
 20
14.38226158628173
 30
104.0
 10
475.5265251374667
 20
14.533448418367042
 30
104.0
 10
472.7398937005434
 20
14.685940894324297
 30
104.0
 10
467.1898918869603
 20
14.992293239689099
 30
104.0
 10
464.4265203041026
 20
15.146131279062084
 30
104.00000000000003
 10
461.6632223549276
 20
15.301284828051502
 30
104.00000000000004
 10
458.9000000007132
 20
15.457771375602077
 30
104.00000000000006
  0
LINE
  5
10C
330
17
100
AcDbEntity
  8
0
100
AcDbLine
 10
458.9
 20
30.545879583054447
 30
104.0
 11
458.9
 21
15.45777136301217
 31
104.0
  0
SPLINE
  5
10D
330
17
100
AcDbEntity
  8
0
100
AcDbSpline
 70
0
 71
4
 72
10
 73
5
 74
0
 40
0.0
 40
0.0
 40
0.0
 40
0.0
 40
0.0
 40
1.0
 40
1.0
 40
1.0
 40
1.0
 40
1.0
 10
455.0999994007805
 20
30.68315127891382
 30
104.0
 10
456.0499882713066
 20
30.64851258435408
 30
104.0
 10
456.99998479834306
 20
30.614087944312264
 30
104.0
 10
457.94998892613563
 20
30.579877041422492
 30
104.0
 10
458.9000005992334
 20
30.545879557927705
 30
104.0
  0
LINE
  5
10E
330
17
100
AcDbEntity
  8
0
100
AcDbLine
 10
455.1
 20
30.68315126112414
 30
104.0
 11
455.1
 21
15.673923965326768
 31
104.0
  0
SPLINE
  5
10F
330
17
100
AcDbEntity
  8
0
100
AcDbSpline
 70
0
 71
4
 72
13
 73
8
 74
0
 40
0.0
 40
0.0
 40
0.0
 40
0.0
 40
0.0
 40
0.5024655080888814
 40
0.5024655080888814
 40
0.5024655080888814
 40
1.0
 40
1.0
 40
1.0
 40
1.0
 40
1.0
 10
455.1000000007954
 20
15.673923979247824
 30
104.0
 10
452.31107362099283
 20
15.833264828507508
 30
104.0
 10
449.5222256561896
 20
15.993976226003133
 30
104.0
 10
446.7334581981809
 20
16.156076990622157
 30
104.0
 10
441.1834560632534
 20
16.481494600270825
 30
104.0
 10
438.4222197699935
 20
16.644783907988177
 30
104.0
 10
435.66106692107456
 20
16.809476492383563
 30
104.0
 10
432.9000000008942
 20
16.97559515248094
 30
104.0
  0
LINE
  5
110
330
17
100
AcDbEntity
  8
0
100
AcDbLine
 10
432.9
 20
31.536766095480175
 30
104.0
 11
432.9
 21
16.975595137619774
 31
104.0
  0
SPLINE
  5
111
330
17
100
AcDbEntity
  8
0
100
AcDbSpline
 70
0
 71
4
 72
10
 73
5
 74
0
 40
0.0
 40
0.0
 40
0.0
 40
0.0
 40
0.0
 40
1.0
 40
1.0
 40
1.0
 40
1.0
 40
1.0
 10
429.0999994008814
 20
31.691793277014185
 30
104.0
 10
430.0499871018803
 20
31.652709086103272
 30
104.0
 10
430.9999832405349
 20
31.613843366158402
 30
104.0
 10
431.94998775884903
 20
31.575195800301223
 30
104.0
 10
432.9000005991345
 20
31.536766071244102
 30
104.0
  0
LINE
  5
112
330
17
100
AcDbEntity
  8
0
100
AcDbLine
 10
429.1
 20
31.691793252365382
 30
104.0
 11
429.1
 21
17.205241341635926
 31
104.0
  0
SPLINE
  5
113
330
17
100
AcDbEntity
  8
0
100
AcDbSpline
 70
0
 71
4
 72
13
 73
8
 74
0
 40
0.0
 40
0.0
 40
0.0
 40
0.0
 40
0.0
 40
0.5028995969018488
 40
0.5028995969018488
 40
0.5028995969018488
 40
1.0
 40
1.0
 40
1.0
 40
1.0
 40
1.0
 10
429.1000000008826
 20
17.20524135617569
 30
104.0
 10
426.30862876382866
 20
17.374685340175848
 30
104.0
 10
423.51734714499645
 20
17.545603399374397
 30
104.0
 10
420.72615781438236
 20
17.71802015343862
 30
104.0
 10
415.1761552238285
 20
18.063900267421765
 30
104.0
 10
412.4173397812637
 20
18.23732864384062
 30
104.00000000000003
 10
409.6586203002698
 20
18.412274907116775
 30
104.00000000000004
 10
406.9000000005291
 20
18.588768866076304
 30
104.00000000000006
  0
LINE
  5
114
330
17
100
AcDbEntity
  8
0
100
AcDbLine
 10
406.9
 20
32.65021379511336
 30
104.0
 11
406.9
 21
18.58876885780849
 31
104.0
  0
SPLINE
  5
115
330
17
100
AcDbEntity
  8
0
100
AcDbSpline
 70
0
 71
4
 72
10
 73
5
 74
0
 40
0.0
 40
0.0
 40
0.0
 40
0.0
 40
0.0
 40
1.0
 40
1.0
 40
1.0
 40
1.0
 40
1.0
 10
403.09999940098106
 20
32.82336511395952
 30
104.0
 10
404.04998588515525
 20
32.77974325975855
 30
104.0
 10
404.99998161969046
 20
32.73634429498958
 30
104.0
 10
405.94998654430344
 20
32.69316790332996
 30
104.0
 10
406.9000005990292
 20
32.65021376802873
 30
104.0
  0
LINE
  5
116
330
17
100
AcDbEntity
  8
0
100
AcDbLine
 10
403.1
 20
32.82336508929138
 30
104.0
 11
403.1
 21
18.83300018315428
 31
104.0
  0
SPLINE
  5
117
330
17
100
AcDbEntity
  8
0
100
AcDbSpline
 70
0
 71
4
 72
13
 73
8
 74
0
 40
0.0
 40
0.0
 40
0.0
 40
0.0
 40
0.0
 40
0.5034158668944554
 40
0.5034158668944554
 40
0.5034158668944554
 40
1.0
 40
1.0
 40
1.0
 40
1.0
 40
1.0
 10
403.10000000029646
 20
18.833000187745814
 30
104.0
 10
400.30567446656414
 20
19.013415995193178
 30
104.0
 10
397.51145303794164
 20
19.195441532429356
 30
104.0
 10
394.71733920599365
 20
19.37910918024199
 30
104.0
 10
389.1672513375767
 20
19.747286200682016
 30
104.0
 10
386.41127429738646
 20
19.9317503451626
 30
104.0
 10
383.65540957541
 20
20.117882777152364
 30
104.0
 10
380.8996614585136
 20
20.305722907039982
 30
104.0
  0
LINE
  5
118
330
17
100
AcDbEntity
  8
0
100
AcDbLine
 10
380.9
 20
33.888747893708285
 30
104.0
 11
380.9
 21
20.305699835451207
 31
104.0
  0
SPLINE
  5
119
330
17
100
AcDbEntity
  8
0
100
AcDbSpline
 70
0
 71
4
 72
10
 73
5
 74
0
 40
0.0
 40
0.0
 40
0.0
 40
0.0
 40
0.0
 40
1.0
 40
1.0
 40
1.0
 40
1.0
 40
1.0
 10
377.09999940108986
 20
34.080392975052106
 30
104.0
 10
378.0499846201486
 20
34.03214104727706
 30
104.0
 10
378.99997993449267
 20
33.98411642907363
 30
104.0
 10
379.9499852815126
 20
33.93631880474682
 30
104.0
 10
380.90000059892066
 20
33.88874785815383
 30
104.0
  0
LINE
  5
11A
330
17
100
AcDbEntity
  8
0
100
AcDbLine
 10
377.1
 20
34.080392950373664
 30
104.0
 11
377.1
 21
20.565949158135574
 31
104.0
  0
SPLINE
  5
11B
330
17
100
AcDbEntity
  8
0
100
AcDbSpline
 70
0
 71
7
 72
22
 73
14
 74
0
 40
0.0
 40
0.0
 40
0.0
 40
0.0
 40
0.0
 40
0.0
 40
0.0
 40
0.0
 40
0.5040470784202863
 40
0.5040470784202863
 40
0.5040470784202863
 40
0.5040470784202863
 40
0.5040470784202863
 40
0.5040470784202863
 40
1.0
 40
1.0
 40
1.0
 40
1.0
 40
1.0
 40
1.0
 40
1.0
 40
1.0
 10
377.0999999996107
 20
20.565949152478197
 30
104.0
 10
375.50122964866665
 20
20.675963943070094
 30
104.0
 10
373.9024945367557
 20
20.786489925019374
 30
104.0
 10
372.3037952009629
 20
20.897532032056205
 30
104.0
 10
370.7051321978231
 20
21.009095363243997
 30
104.0
 10
369.1065061033204
 20
21.12118518297935
 30
104.0
 10
367.5079175128884
 20
21.233806920992155
 30
104.0
 10
364.33648662891613
 20
21.458308274532378
 30
104.0
 10
362.76364308227693
 20
21.570170314223255
 30
104.0
 10
361.1908372213342
 20
21.68256072966155
 30
104.0
 10
359.618068974537
 20
21.795475697354583
 30
104.0
 10
358.04534013619747
 20
21.908936866783886
 30
104.0
 10
356.47265030566444
 20
22.02293583170522
 30
104.0
 10
354.89999999948435
 20
22.137476396807358
 30
104.0
  0
LINE
  5
11C
330
17
100
AcDbEntity
  8
0
100
AcDbLine
 10
354.9
 20
35.254900350352564
 30
104.0
 11
354.9
 21
22.137476403886247
 31
104.0
  0
SPLINE
  5
11D
330
17
100
AcDbEntity
  8
0
100
AcDbSpline
 70
0
 71
4
 72
10
 73
5
 74
0
 40
0.0
 40
0.0
 40
0.0
 40
0.0
 40
0.0
 40
1.0
 40
1.0
 40
1.0
 40
1.0
 40
1.0
 10
351.09999940117257
 20
35.46540984300769
 30
104.0
 10
352.049983305845
 20
35.412435180197924
 30
104.0
 10
352.9999781836053
 20
35.35969224839887
 30
104.0
 10
353.9499839694764
 20
35.30718073261916
 30
104.0
 10
354.90000059880686
 20
35.25490031739959
 30
104.0
  0
LINE
  5
11E
330
17
100
AcDbEntity
  8
0
100
AcDbLine
 10
351.1
 20
35.465409809614826
 30
104.0
 11
351.1
 21
22.41560548775852
 31
104.0
  0
SPLINE
  5
11F
330
17
100
AcDbEntity
  8
0
100
AcDbSpline
 70
0
 71
4
 72
13
 73
8
 74
0
 40
0.0
 40
0.0
 40
0.0
 40
0.0
 40
0.0
 40
0.6003432231645217
 40
0.6003432231645217
 40
0.6003432231645217
 40
1.0
 40
1.0
 40
1.0
 40
1.0
 40
1.0
 10
351.0999999999623
 20
22.415605487245116
 30
104.0
 10
347.7675656308519
 20
22.660711159925103
 30
104.0
 10
344.435337059649
 20
22.9086095026432
 30
104.0
 10
341.10331967074495
 20
23.15932550185904
 30
104.0
 10
335.5534935027003
 20
23.581683640253047
 30
104.0
 10
333.33556397068844
 20
23.751742250986872
 30
104.0
 10
331.1177322247481
 20
23.923068965994876
 30
104.0
 10
328.9000000002202
 20
24.095671755494195
 30
104.0
  0
LINE
  5
120
330
17
100
AcDbEntity
  8
0
100
AcDbLine
 10
328.9
 20
36.751210139567846
 30
104.0
 11
328.9
 21
24.095671752665424
 31
104.0
  0
SPLINE
  5
121
330
17
100
AcDbEntity
  8
0
100
AcDbSpline
 70
0
 71
4
 72
10
 73
5
 74
0
 40
0.0
 40
0.0
 40
0.0
 40
0.0
 40
0.0
 40
1.0
 40
1.0
 40
1.0
 40
1.0
 40
1.0
 10
325.09999940132946
 20
36.98095571429087
 30
104.0
 10
326.0499819413428
 20
36.92316539592949
 30
104.0
 10
326.9999763657804
 20
36.86561123091253
 30
104.0
 10
327.9499826072571
 20
36.80829290503254
 30
104.0
 10
328.90000059871693
 20
36.75121010359334
 30
104.0
  0
LINE
  5
122
330
17
100
AcDbEntity
  8
0
100
AcDbLine
 10
325.1
 20
36.980955677871926
 30
104.0
 11
325.1
 21
24.392836256801544
 31
104.0
  0
SPLINE
  5
123
330
17
100
AcDbEntity
  8
0
100
AcDbSpline
 70
0
 71
4
 72
19
 73
14
 74
0
 40
0.0
 40
0.0
 40
0.0
 40
0.0
 40
0.0
 40
0.25368391636667087
 40
0.25368391636667087
 40
0.25368391636667087
 40
0.5049202755061536
 40
0.5049202755061536
 40
0.5049202755061536
 40
0.7536963199354837
 40
0.7536963199354837
 40
0.7536963199354837
 40
1.0
 40
1.0
 40
1.0
 40
1.0
 40
1.0
 10
325.10000000029646
 20
24.392836260574384
 30
104.0
 10
323.691806171766
 20
24.50348448014488
 30
104.0
 10
322.2836530796318
 20
24.61465004783935
 30
104.0
 10
320.8755411796757
 20
24.72633508924169
 30
104.0
 10
318.0729858333199
 20
24.94966577835568
 30
104.0
 10
316.6785415874194
 20
25.061301415336978
 30
104.0
 10
315.28413864789263
 20
25.173450711787545
 30
104.0
 10
312.5090710468903
 20
25.397677573397722
 30
104.0
 10
311.1284055713725
 20
25.50974508602255
 30
104.0
 10
309.7477814994891
 20
25.622320403306432
 30
104.0
 10
307.0003374651633
 20
25.84736703133937
 30
104.0
 10
305.633516674309
 20
25.959828252007533
 30
104.00000000000003
 10
304.26673736759676
 20
26.072791384390626
 30
104.00000000000004
 10
302.90000000023366
 20
26.186258502269855
 30
104.00000000000006
  0
LINE
  5
124
330
17
100
AcDbEntity
  8
0
100
AcDbLine
 10
302.9
 20
38.380223421903644
 30
104.0
 11
302.9
 21
26.186258499456297
 31
104.0
  0
SPLINE
  5
125
330
17
100
AcDbEntity
  8
0
100
AcDbSpline
 70
0
 71
4
 72
10
 73
5
 74
0
 40
0.0
 40
0.0
 40
0.0
 40
0.0
 40
0.0
 40
1.0
 40
1.0
 40
1.0
 40
1.0
 40
1.0
 10
299.0999994014315
 20
38.629577816906874
 30
104.0
 10
300.0499805255454
 20
38.56687865548593
 30
104.0
 10
300.99997447960476
 20
38.504420070202
 30
104.0
 10
301.94998119377885
 20
38.44220174771568
 30
104.0
 10
302.90000059856476
 20
38.38022337417774
 30
104.0
  0
LINE
  5
126
330
17
100
AcDbEntity
  8
0
100
AcDbLine
 10
299.1
 20
38.62957778573294
 30
104.0
 11
299.1
 21
26.50321025696901
 31
104.0
  0
SPLINE
  5
127
330
17
100
AcDbEntity
  8
0
100
AcDbSpline
 70
0
 71
4
 72
19
 73
14
 74
0
 40
0.0
 40
0.0
 40
0.0
 40
0.0
 40
0.0
 40
0.2540576874484952
 40
0.2540576874484952
 40
0.2540576874484952
 40
0.5054181039956297
 40
0.5054181039956297
 40
0.5054181039956297
 40
0.7540689909866031
 40
0.7540689909866031
 40
0.7540689909866031
 40
1.0
 40
1.0
 40
1.0
 40
1.0
 40
1.0
 10
299.100000000158
 20
26.50321025885347
 30
104.0
 10
297.6897039418542
 20
26.621388948892662
 30
104.0
 10
296.2794532290465
 20
26.740107479122166
 30
104.0
 10
294.8692483770664
 20
26.859368241608525
 30
104.0
 10
292.063902765985
 20
27.097707081169123
 30
104.0
 10
290.6687610276051
 20
27.21677366050124
 30
104.0
 10
289.27366520535713
 20
27.33637571616869
 30
104.0
 10
286.4986043199947
 20
27.575360551350567
 30
104.0
 10
285.1186382611077
 20
27.694731797277502
 30
104.0
 10
283.73871815366965
 20
27.814631723772223
 30
104.0
 10
280.9940646888898
 20
28.054176387141585
 30
103.99999999999999
 10
279.62933031996624
 20
28.173809564305316
 30
104.00000000000001
 10
278.2646419185057
 20
28.293964594283235
 30
104.00000000000001
 10
276.9000000000433
 20
28.414643825187028
 30
104.00000000000001
  0
LINE
  5
128
330
17
100
AcDbEntity
  8
0
100
AcDbLine
 10
276.9
 20
40.14449374740856
 30
104.0
 11
276.9
 21
28.414643824697865
 31
104.0
  0
SPLINE
  5
129
330
17
100
AcDbEntity
  8
0
100
AcDbSpline
 70
0
 71
4
 72
10
 73
5
 74
0
 40
0.0
 40
0.0
 40
0.0
 40
0.0
 40
0.0
 40
1.0
 40
1.0
 40
1.0
 40
1.0
 40
1.0
 10
273.09999940158264
 20
40.41383082962504
 30
104.0
 10
274.0499790575846
 20
40.34612936265889
 30
104.0
 10
274.99997252388715
 20
40.278672894613564
 30
104.0
 10
275.94997972817356
 20
40.21146111310643
 30
104.0
 10
276.90000059845795
 20
40.14449370522297
 30
104.0
  0
LINE
  5
12A
330
17
100
AcDbEntity
  8
0
100
AcDbLine
 10
273.1
 20
40.413830786978096
 30
104.0
 11
273.1
 21
28.752228493292403
 31
104.0
  0
SPLINE
  5
12B
330
17
100
AcDbEntity
  8
0
100
AcDbSpline
 70
0
 71
4
 72
19
 73
14
 74
0
 40
0.0
 40
0.0
 40
0.0
 40
0.0
 40
0.0
 40
0.25451634843237
 40
0.25451634843237
 40
0.25451634843237
 40
0.5060290228403461
 40
0.5060290228403461
 40
0.5060290228403461
 40
0.754526288438953
 40
0.754526288438953
 40
0.754526288438953
 40
1.0
 40
1.0
 40
1.0
 40
1.0
 40
1.0
 10
273.10000000005226
 20
28.75222849387748
 30
104.0
 10
271.68712661313344
 20
28.878319177543304
 30
104.0
 10
270.2743038421611
 20
29.004975442329997
 30
104.0
 10
268.8615322771136
 20
29.132200017228712
 30
104.0
 10
266.0527649734275
 20
29.386283116526517
 30
104.0
 10
264.6567680196039
 20
29.51312824679281
 30
104.0
 10
263.2608222432073
 20
29.64053372664677
 30
104.0
 10
260.4857697512069
 20
29.89493667996374
 30
104.0
 10
259.1066618015208
 20
30.0219207321569
 30
104.0
 10
257.7276049769743
 20
30.14945713627737
 30
104.0
 10
254.9863736170142
 20
30.40408160463224
 30
104.00000000000001
 10
253.624197830134
 20
30.531156238292702
 30
104.0
 10
252.26207309385651
 20
30.658775205195926
 30
104.0
 10
250.89999999998105
 20
30.786941203710388
 30
104.0
  0
LINE
  5
12C
330
17
100
AcDbEntity
  8
0
100
AcDbLine
 10
250.9
 20
42.0465823577984
 30
104.0
 11
250.9
 21
30.78694120391253
 31
104.0
  0
SPLINE
  5
12D
330
17
100
AcDbEntity
  8
0
100
AcDbSpline
 70
0
 71
4
 72
10
 73
5
 74
0
 40
0.0
 40
0.0
 40
0.0
 40
0.0
 40
0.0
 40
1.0
 40
1.0
 40
1.0
 40
1.0
 40
1.0
 10
247.09999940171707
 20
42.3362771027869
 30
104.0
 10
248.04997753642238
 20
42.26347958476941
 30
104.0
 10
248.9999704972596
 20
42.190931487948035
 30
104.0
 10
249.94997820938877
 20
42.11863250098996
 30
104.0
 10
250.90000059830322
 20
42.04658231200749
 30
104.0
  0
LINE
  5
12E
330
17
100
AcDbEntity
  8
0
100
AcDbLine
 10
247.1
 20
42.336277056940034
 30
104.0
 11
247.1
 21
31.1461218628056
 31
104.0
  0
SPLINE
  5
12F
330
17
100
AcDbEntity
  8
0
100
AcDbSpline
 70
0
 71
4
 72
19
 73
14
 74
0
 40
0.0
 40
0.0
 40
0.0
 40
0.0
 40
0.0
 40
0.25509249157794917
 40
0.25509249157794917
 40
0.25509249157794917
 40
0.5067964358495912
 40
0.5067964358495912
 40
0.5067964358495912
 40
0.7551006495153781
 40
0.7551006495153781
 40
0.7551006495153781
 40
1.0
 40
1.0
 40
1.0
 40
1.0
 40
1.0
 10
247.0999999999782
 20
31.14612186257596
 30
104.0
 10
245.6838921646743
 20
31.28057736734614
 30
104.0
 10
244.2678410668586
 20
31.415628426512505
 30
104.0
 10
242.85184739316486
 20
31.551278210122195
 30
104.0
 10
240.03878502983966
 20
31.82197176308198
 30
104.0
 10
238.64171480660565
 20
31.956999651570836
 30
104.0
 10
237.24470185855802
 20
32.09261672742645
 30
104.0
 10
234.4696603980794
 20
32.363195948108476
 30
104.0
 10
233.09163033007974
 20
32.498142197902865
 30
104.0
 10
231.71365735990412
 20
32.63366806806068
 30
104.0
 10
228.9767216289541
 20
32.90401908564781
 30
104.0
 10
227.61775729354105
 20
33.03882835428907
 30
104.0
 10
226.25884985320914
 20
33.17420767569797
 30
104.0
 10
224.9000000000287
 20
33.31016021456933
 30
104.0
  0
LINE
  5
130
330
17
100
AcDbEntity
  8
0
100
AcDbLine
 10
224.9
 20
44.08905834771028
 30
104.0
 11
224.9
 21
33.310160214282874
 31
104.0
  0
SPLINE
  5
131
330
17
100
AcDbEntity
  8
0
100
AcDbSpline
 70
0
 71
4
 72
10
 73
5
 74
0
 40
0.0
 40
0.0
 40
0.0
 40
0.0
 40
0.0
 40
1.0
 40
1.0
 40
1.0
 40
1.0
 40
1.0
 10
221.09999940184252
 20
44.3994868806616
 30
104.0
 10
222.04997596112293
 20
44.32149927496315
 30
104.0
 10
222.9999683984805
 20
44.24376551169529
 30
104.0
 10
223.9499766365157
 20
44.16628528067218
 30
104.0
 10
224.90000059816458
 20
44.08905827112962
 30
104.0
  0
LINE
  5
132
330
17
100
AcDbEntity
  8
0
100
AcDbLine
 10
221.1
 20
44.39948683889175
 30
104.0
 11
221.1
 21
33.69205175648778
 31
104.0
  0
SPLINE
  5
133
330
17
100
AcDbEntity
  8
0
100
AcDbSpline
 70
0
 71
4
 72
19
 73
14
 74
0
 40
0.0
 40
0.0
 40
0.0
 40
0.0
 40
0.0
 40
0.25583783411999245
 40
0.25583783411999245
 40
0.25583783411999245
 40
0.5077891980375554
 40
0.5077891980375554
 40
0.5077891980375554
 40
0.7558434905911385
 40
0.7558434905911385
 40
0.7558434905911385
 40
1.0
 40
1.0
 40
1.0
 40
1.0
 40
1.0
 10
221.10000000002262
 20
33.6920517567115
 30
104.0
 10
219.67971182025232
 20
33.83542567981871
 30
104.0
 10
218.25948764043346
 20
33.97943088621603
 30
104.0
 10
216.83932827821678
 20
34.12407115180009
 30
104.0
 10
214.02071373290096
 20
34.41242260297306
 30
104.0
 10
212.6222565704754
 20
34.55611452854122
 30
104.0
 10
211.2238639016063
 20
34.70042985723509
 30
104.0
 10
208.44883794103478
 20
34.988073177069055
 30
104.0
 10
207.07220264387803
 20
35.131381913597956
 30
104.0
 10
205.6956314826004
 20
35.27530238510729
 30
104.0
 10
202.9642487398347
 20
35.56210337281165
 30
104.0
 10
201.60943513206672
 20
35.70496469088766
 30
104.0
 10
200.2546852747706
 20
35.84842611575001
 30
104.0
 10
198.89999999997266
 20
35.992491471673986
 30
104.0
  0
LINE
  5
134
330
17
100
AcDbEntity
  8
0
100
AcDbLine
 10
198.9
 20
46.27449879622519
 30
104.0
 11
198.9
 21
35.99249147192974
 31
104.0
  0
SPLINE
  5
135
330
17
100
AcDbEntity
  8
0
100
AcDbSpline
 70
0
 71
4
 72
10
 73
5
 74
0
 40
0.0
 40
0.0
 40
0.0
 40
0.0
 40
0.0
 40
1.0
 40
1.0
 40
1.0
 40
1.0
 40
1.0
 10
195.09999940198776
 20
46.606038525461926
 30
104.0
 10
196.0499743307538
 20
46.522766496169965
 30
104.0
 10
196.9999662262887
 20
46.439752728936476
 30
104.0
 10
197.94997500859537
 20
46.3569969148246
 30
104.0
 10
198.9000005980215
 20
46.2744987442943
 30
104.0
  0
LINE
  5
136
330
17
100
AcDbEntity
  8
0
100
AcDbLine
 10
195.1
 20
46.606038473041906
 30
104.0
 11
195.1
 21
36.39841425297974
 31
104.0
  0
SPLINE
  5
137
330
17
100
AcDbEntity
  8
0
100
AcDbSpline
 70
0
 71
4
 72
19
 73
14
 74
0
 40
0.0
 40
0.0
 40
0.0
 40
0.0
 40
0.0
 40
0.2568423189528779
 40
0.2568423189528779
 40
0.2568423189528779
 40
0.5091286923078223
 40
0.5091286923078223
 40
0.5091286923078223
 40
0.756849135590371
 40
0.756849135590371
 40
0.756849135590371
 40
1.0
 40
1.0
 40
1.0
 40
1.0
 40
1.0
 10
195.09999999993735
 20
36.39841425239501
 30
104.0
 10
193.6740834397082
 20
36.55141377984672
 30
104.0
 10
192.2482397659432
 20
36.70508864227394
 30
104.0
 10
190.82246998663157
 20
36.859443507555845
 30
104.0
 10
187.99636972416747
 20
37.16677282298842
 30
104.0
 10
186.59603660631436
 20
37.31972319705835
 30
104.0
 10
185.19577680227917
 20
37.47333898099043
 30
104.0
 10
182.42074676786783
 20
37.77911880891057
 30
104.0
 10
181.04597387028292
 20
37.931258811608544
 30
104.0
 10
179.6712736684364
 20
38.084049663841704
 30
104.0
 10
176.94737782533224
 20
38.3881122472445
 30
104.00000000000001
 10
175.5981794882233
 20
38.53936000738087
 30
103.99999999999997
 10
174.24905319730595
 20
38.69124413140894
 30
103.99999999999996
 10
172.8999999999606
 20
38.8437694640373
 30
103.99999999999994
  0
LINE
  5
138
330
17
100
AcDbEntity
  8
0
100
AcDbLine
 10
172.9
 20
48.60548927924073
 30
104.0
 11
172.9
 21
38.8437694643856
 31
104.0
  0
SPLINE
  5
139
330
17
100
AcDbEntity
  8
0
100
AcDbSpline
 70
0
 71
4
 72
10
 73
5
 74
0
 40
0.0
 40
0.0
 40
0.0
 40
0.0
 40
0.0
 40
1.0
 40
1.0
 40
1.0
 40
1.0
 40
1.0
 10
169.0999994021489
 20
48.95851874306065
 30
104.0
 10
170.04997264437682
 20
48.86986764675452
 30
104.0
 10
170.9999639794347
 20
48.78147922992911
 30
104.0
 10
171.94997332469708
 20
48.693353185002536
 30
104.0
 10
172.90000059788525
 20
48.60548920376468
 30
104.0
  0
LINE
  5
13A
330
17
100
AcDbEntity
  8
0
100
AcDbLine
 10
169.1
 20
48.958518937509034
 30
104.0
 11
169.1
 21
39.2753410862299
 31
104.0
  0
SPLINE
  5
13B
330
17
100
AcDbEntity
  8
0
100
AcDbSpline
 70
0
 71
4
 72
19
 73
14
 74
0
 40
0.0
 40
0.0
 40
0.0
 40
0.0
 40
0.0
 40
0.25825079379800914
 40
0.25825079379800914
 40
0.25825079379800914
 40
0.5110105024092703
 40
0.5110105024092703
 40
0.5110105024092703
 40
0.758256877040865
 40
0.758256877040865
 40
0.758256877040865
 40
1.0
 40
1.0
 40
1.0
 40
1.0
 40
1.0
 10
169.09999999997166
 20
39.275341085981516
 30
104.0
 10
167.66619739030475
 20
39.43891483690188
 30
104.0
 10
166.23247907334525
 20
39.60322097785341
 30
104.0
 10
164.79884636608267
 20
39.7682656308851
 30
104.0
 10
161.96223589542362
 20
40.09631984340928
 30
104.0
 10
160.55925447208307
 20
40.259298063573134
 30
104.0
 10
159.15635771779958
 20
40.4229960681252
 30
104.0
 10
156.38133525244535
 20
40.748258241909326
 30
104.0
 10
155.00920582762666
 20
40.90979107225545
 30
104.0
 10
153.63716009342696
 20
41.072025037965254
 30
104.0
 10
150.92377619024984
 20
41.39428166798616
 30
104.0
 10
149.58243427467502
 20
41.55427317610361
 30
104.0
 10
148.241175063574
 20
41.714947456463165
 30
104.0
 10
146.8999999999487
 20
41.876311163183715
 30
104.0
  0
LINE
  5
13C
330
17
100
AcDbEntity
  8
0
100
AcDbLine
 10
146.9
 20
51.08462371829209
 30
104.0
 11
146.9
 21
41.87631116360979
 31
104.0
  0
SPLINE
  5
13D
330
17
100
AcDbEntity
  8
0
100
AcDbSpline
 70
0
 71
4
 72
10
 73
5
 74
0
 40
0.0
 40
0.0
 40
0.0
 40
0.0
 40
0.0
 40
1.0
 40
1.0
 40
1.0
 40
1.0
 40
1.0
 10
143.09999940192563
 20
51.45952281049446
 30
104.0
 10
144.0499709007552
 20
51.36539768794848
 30
104.0
 10
144.99996165646334
 20
51.27153965946651
 30
104.0
 10
145.94997158376424
 20
51.177948418932395
 30
104.0
 10
146.90000059772018
 20
51.08462365957591
 30
104.0
  0
LINE
  5
13E
330
17
100
AcDbEntity
  8
0
100
AcDbLine
 10
143.1
 20
51.45952275123602
 30
104.0
 11
143.1
 21
42.3356249799312
 31
104.0
  0
SPLINE
  5
13F
330
17
100
AcDbEntity
  8
0
100
AcDbSpline
 70
0
 71
4
 72
19
 73
14
 74
0
 40
0.0
 40
0.0
 40
0.0
 40
0.0
 40
0.0
 40
0.260222855388282
 40
0.260222855388282
 40
0.260222855388282
 40
0.513565480480897
 40
0.513565480480897
 40
0.513565480480897
 40
0.7601034910955551
 40
0.7601034910955551
 40
0.7601034910955551
 40
1.0
 40
1.0
 40
1.0
 40
1.0
 40
1.0
 10
143.0999999999302
 20
42.335624979356155
 30
104.0
 10
141.65513598932063
 20
42.51107721594024
 30
104.0
 10
140.21037218406428
 20
42.687341602498115
 30
104.0
 10
138.76571019735073
 20
42.86442450372103
 30
104.0
 10
135.91478942369864
 20
43.21555519326276
 30
104.0
 10
134.50852516110027
 20
43.38955933771365
 30
104.0
 10
133.1023626666768
 20
43.564367737539726
 30
104.0
 10
130.3280125022533
 20
43.91090401226137
 30
104.0
 10
128.9598192951412
 20
44.08258851702394
 30
104.0
 10
127.59172760699106
 20
44.25506098536363
 30
104.0
 10
124.89260514529833
 20
44.59694121097776
 30
104.0
 10
123.56156883021532
 20
44.7663063598896
 30
104.0
 10
122.23063385661297
 20
44.93644300772347
 30
104.0
 10
120.89980309274608
 20
45.10736419844371
 30
104.0
  0
LINE
  5
140
330
17
100
AcDbEntity
  8
0
100
AcDbLine
 10
120.9
 20
53.71450496003366
 30
104.0
 11
120.9
 21
45.10733890891618
 31
104.0
  0
SPLINE
  5
141
330
17
100
AcDbEntity
  8
0
100
AcDbSpline
 70
0
 71
4
 72
10
 73
5
 74
0
 40
0.0
 40
0.0
 40
0.0
 40
0.0
 40
0.0
 40
1.0
 40
1.0
 40
1.0
 40
1.0
 40
1.0
 10
117.09999940245035
 20
54.111654805052595
 30
104.0
 10
118.04996909983304
 20
54.011960372917734
 30
104.0
 10
118.99995925673981
 20
53.91253744592335
 30
104.0
 10
119.9499697851934
 20
53.81338571953423
 30
104.0
 10
120.90000059756647
 20
53.71450488853471
 30
104.0
  0
LINE
  5
142
330
17
100
AcDbEntity
  8
0
100
AcDbLine
 10
117.1
 20
54.111654742342836
 30
104.0
 11
117.1
 21
45.597839773882384
 31
104.0
  0
SPLINE
  5
143
330
17
100
AcDbEntity
  8
0
100
AcDbSpline
 70
0
 71
8
 72
39
 73
30
 74
0
 40
0.0
 40
0.0
 40
0.0
 40
0.0
 40
0.0
 40
0.0
 40
0.0
 40
0.0
 40
0.0
 40
0.26256920829145586
 40
0.26256920829145586
 40
0.26256920829145586
 40
0.26256920829145586
 40
0.26256920829145586
 40
0.26256920829145586
 40
0.26256920829145586
 40
0.516632544082287
 40
0.516632544082287
 40
0.516632544082287
 40
0.516632544082287
 40
0.516632544082287
 40
0.516632544082287
 40
0.516632544082287
 40
0.7623302337374054
 40
0.7623302337374054
 40
0.7623302337374054
 40
0.7623302337374054
 40
0.7623302337374054
 40
0.7623302337374054
 40
0.7623302337374054
 40
1.0
 40
1.0
 40
1.0
 40
1.0
 40
1.0
 40
1.0
 40
1.0
 40
1.0
 40
1.0
 10
117.09999999996016
 20
45.59783977357532
 30
104.0
 10
116.37095945490928
 20
45.692419509886655
 30
104.0
 10
115.64194683574792
 20
45.787205976212704
 30
104.0
 10
114.9129624365971
 20
45.882200434523384
 30
104.0
 10
114.18400656420131
 20
45.977404153235724
 30
104.0
 10
113.45507953792834
 20
46.07281840721383
 30
104.0
 10
112.72618168976928
 20
46.16844447776887
 30
104.0
 10
111.99731336433855
 20
46.26428365265909
 30
104.0
 10
110.5632470366243
 20
46.453279164861904
 30
104.0
 10
109.85804713565608
 20
46.54642183526898
 30
104.0
 10
109.1528755386643
 20
46.63976640786521
 30
104.0
 10
108.44773258661517
 20
46.733314057022255
 30
104.0
 10
107.7426186406659
 20
46.827065958176355
 30
104.0
 10
107.03753408408465
 20
46.92102328507536
 30
104.0
 10
106.33247932417048
 20
47.015187207025704
 30
104.0
 10
104.94564489180638
 20
47.20082315083535
 30
104.0
 10
104.26386327630473
 20
47.29228171461166
 30
104.0
 10
103.58211033222028
 20
47.38393562669545
 30
104.0
 10
102.90038648191668
 20
47.4757859302567
 30
104.0
 10
102.21869219204403
 20
47.56783365425527
 30
104.0
 10
101.53702798001306
 20
47.66007980528768
 30
104.0
 10
100.85539442046948
 20
47.752525359433974
 30
104.0
 10
99.51446054749664
 20
47.934790037913565
 30
104.0
 10
98.85515824238962
 20
48.02459633249826
 30
103.99999999999997
 10
98.19588588305199
 20
48.11459061093187
 30
103.99999999999996
 10
97.53664389197627
 20
48.20477484189291
 30
103.99999999999994
 10
96.87743348949097
 20
48.295147780715865
 30
103.99999999999993
 10
96.21825525490856
 20
48.38571172153627
 30
103.99999999999991
 10
95.55911036580066
 20
48.47646728273445
 30
103.9999999999999
 10
94.90000000000005
 20
48.56741543350486
 30
103.99999999999989
  0
LINE
  5
144
330
17
100
AcDbEntity
  8
0
100
AcDbLine
 10
94.9
 20
56.49774473083788
 30
104.0
 11
94.9
 21
48.56741543350467
 31
104.0
  0
SPLINE
  5
145
330
17
100
AcDbEntity
  8
0
100
AcDbSpline
 70
0
 71
4
 72
10
 73
5
 74
0
 40
0.0
 40
0.0
 40
0.0
 40
0.0
 40
0.0
 40
1.0
 40
1.0
 40
1.0
 40
1.0
 40
1.0
 10
91.09999940261991
 20
56.917527835799675
 30
104.0
 10
92.04996723987905
 20
56.8121684781255
 30
104.0
 10
92.9999567785044
 20
56.707085032459
 30
104.0
 10
93.94996792779877
 20
56.60227719596582
 30
104.0
 10
94.90000059741527
 20
56.49774466510401
 30
104.0
  0
LINE
  5
146
330
17
100
AcDbEntity
  8
0
100
AcDbLine
 10
91.1
 20
56.917527769545245
 30
104.0
 11
91.1
 21
49.09465729688589
 31
104.0
  0
SPLINE
  5
147
330
17
100
AcDbEntity
  8
0
100
AcDbSpline
 70
0
 71
8
 72
74
 73
65
 74
0
 40
0.0
 40
0.0
 40
0.0
 40
0.0
 40
0.0
 40
0.0
 40
0.0
 40
0.0
 40
0.0
 40
0.49192179354239124
 40
0.49192179354239124
 40
0.49192179354239124
 40
0.49192179354239124
 40
0.49192179354239124
 40
0.49192179354239124
 40
0.49192179354239124
 40
0.7344192517179773
 40
0.7344192517179773
 40
0.7344192517179773
 40
0.7344192517179773
 40
0.7344192517179773
 40
0.7344192517179773
 40
0.7344192517179773
 40
0.8572339778149625
 40
0.8572339778149625
 40
0.8572339778149625
 40
0.8572339778149625
 40
0.8572339778149625
 40
0.8572339778149625
 40
0.8572339778149625
 40
0.9217508320766984
 40
0.9217508320766984
 40
0.9217508320766984
 40
0.9217508320766984
 40
0.9217508320766984
 40
0.9217508320766984
 40
0.9217508320766984
 40
0.9468218235504965
 40
0.9468218235504965
 40
0.9468218235504965
 40
0.9468218235504965
 40
0.9468218235504965
 40
0.9468218235504965
 40
0.9468218235504965
 40
0.9737153024916333
 40
0.9737153024916333
 40
0.9737153024916333
 40
0.9737153024916333
 40
0.9737153024916333
 40
0.9737153024916333
 40
0.9737153024916333
 40
0.9887465777313355
 40
0.9887465777313355
 40
0.9887465777313355
 40
0.9887465777313355
 40
0.9887465777313355
 40
0.9887465777313355
 40
0.9887465777313355
 40
0.9937991832498371
 40
0.9937991832498371
 40
0.9937991832498371
 40
0.9937991832498371
 40
0.9937991832498371
 40
0.9937991832498371
 40
0.9937991832498371
 40
1.0
 40
1.0
 40
1.0
 40
1.0
 40
1.0
 40
1.0
 40
1.0
 40
1.0
 40
1.0
 10
91.10000000000001
 20
49.09465729688605
 30
104.0
 10
90.33482138828187
 20
49.20141185809906
 30
104.0
 10
89.569704572874
 20
49.3084305267215
 30
104.0
 10
88.80464980501233
 20
49.41571501317796
 30
104.0
 10
88.03966081474634
 20
49.52326653850449
 30
104.0
 10
87.27474663632893
 20
49.63108557392765
 30
104.0
 10
86.50992111046152
 20
49.739171895158535
 30
104.0
 10
85.74520450986708
 20
49.847524324115234
 30
104.0
 10
84.6037284199289
 20
50.00968241480421
 30
104.0
 10
84.22686527143453
 20
50.06328841523721
 30
104.0
 10
83.85004280633288
 20
50.116957649579646
 30
104.0
 10
83.47326553612419
 20
50.1706896684885
 30
104.0
 10
83.09654398405743
 20
50.22448315788421
 30
104.0
 10
82.71989422265247
 20
50.278335999789164
 30
104.0
 10
82.34333982560452
 20
50.3322449822633
 30
104.0
 10
81.77628094780466
 20
50.41353264081833
 30
104.0
 10
81.58568166629043
 20
50.44087290870622
 30
104.0
 10
81.39512421558987
 20
50.4682251328631
 30
104.0
 10
81.20461434144255
 20
50.49558850403339
 30
104.0
 10
81.01416498523518
 20
50.52296117502557
 30
104.0
 10
80.8237957932673
 20
50.550340328075464
 30
104.0
 10
80.63353551444918
 20
50.577721823344476
 30
104.0
 10
80.34356869425346
 20
50.619480119635156
 30
104.0
 10
80.2437564119027
 20
50.63385911433318
 30
104.0
 10
80.14399705444774
 20
50.64823544979332
 30
104.0
 10
80.04429811045911
 20
50.66260804277519
 30
104.0
 10
79.94467722991678
 20
50.67697434207368
 30
104.0
 10
79.84516136145076
 20
50.691330450675295
 30
104.0
 10
79.74579011810758
 20
50.7056706353657
 30
104.0
 10
79.60809953802993
 20
50.7255474715203
 30
104.0
 10
79.56960161345442
 20
50.73110572579812
 30
104.0
 10
79.53114137585439
 20
50.736659280651764
 30
104.0
 10
79.4927245345746
 20
50.742207309384206
 30
104.0
 10
79.45435925046425
 20
50.74774863072106
 30
104.0
 10
79.41605661560175
 20
50.753281639068696
 30
104.0
 10
79.37783171096181
 20
50.75880415110201
 30
104.0
 10
79.2988072428164
 20
50.770222653690226
 30
104.0
 10
79.25809891933713
 20
50.7761055704186
 30
104.0
 10
79.21752842688186
 20
50.78196939724623
 30
104.0
 10
79.17711118596222
 20
50.787811896688154
 30
104.0
 10
79.13689367651847
 20
50.79362634467585
 30
104.0
 10
79.097041667603
 20
50.79938875497989
 30
104.0
 10
79.05774049219146
 20
50.805072300744555
 30
104.0
 10
78.9980879265722
 20
50.81370008254065
 30
104.0
 10
78.97725988703237
 20
50.81671275254435
 30
104.0
 10
78.95681319081041
 20
50.819670475185454
 30
104.0
 10
78.9367783469509
 20
50.822568832910406
 30
104.0
 10
78.9176825376586
 20
50.825331544899484
 30
104.0
 10
78.90005751827941
 20
50.82788164924019
 30
104.0
 10
78.88522630872475
 20
50.83002763004411
 30
104.0
 10
78.87024742306065
 20
50.83219504241949
 30
104.0
 10
78.86704197818395
 20
50.83265887023816
 30
104.0
 10
78.86435027267031
 20
50.83304836476983
 30
104.0
 10
78.86212320656983
 20
50.833370628206865
 30
104.0
 10
78.86031171130293
 20
50.83363275892407
 30
104.0
 10
78.85886674966044
 20
50.8338418514788
 30
104.0
 10
78.85773931580356
 20
50.834004996610965
 30
104.0
 10
78.85582637299498
 20
50.83428180972057
 30
104.0
 10
78.85531536160627
 20
50.83434323989333
 30
104.0
 10
78.8550925540308
 20
50.834367964983166
 30
104.0
 10
78.85498032495825
 20
50.83439019780662
 30
104.0
 10
78.85487827083492
 20
50.83442397077476
 30
104.0
 10
78.8547632098638
 20
50.834463135893195
 30
104.0
 10
78.85468918200456
 20
50.834481364762055
 30
104.0
 10
78.85478744897351
 20
50.83443214857603
 30
104.0
  0
SPLINE
  5
148
330
17
100
AcDbEntity
  8
0
100
AcDbSpline
 70
0
 71
8
 72
368
 73
359
 74
0
 40
0.0
 40
0.0
 40
0.0
 40
0.0
 40
0.0
 40
0.0
 40
0.0
 40
0.0
 40
0.0
 40
0.0016219417564863384
 40
0.0016219417564863384
 40
0.0016219417564863384
 40
0.0016219417564863384
 40
0.0016219417564863384
 40
0.0016219417564863384
 40
0.0016219417564863384
 40
0.00368217332107346
 40
0.00368217332107346
 40
0.00368217332107346
 40
0.00368217332107346
 40
0.00368217332107346
 40
0.00368217332107346
 40
0.00368217332107346
 40
0.0068878183328980715
 40
0.0068878183328980715
 40
0.0068878183328980715
 40
0.0068878183328980715
 40
0.0068878183328980715
 40
0.0068878183328980715
 40
0.0068878183328980715
 40
0.01319681794265305
 40
0.01319681794265305
 40
0.01319681794265305
 40
0.01319681794265305
 40
0.01319681794265305
 40
0.01319681794265305
 40
0.01319681794265305
 40
0.016509051769145293
 40
0.016509051769145293
 40
0.016509051769145293
 40
0.016509051769145293
 40
0.016509051769145293
 40
0.016509051769145293
 40
0.016509051769145293
 40
0.02015280539631703
 40
0.02015280539631703
 40
0.02015280539631703
 40
0.02015280539631703
 40
0.02015280539631703
 40
0.02015280539631703
 40
0.02015280539631703
 40
0.028586677022389793
 40
0.028586677022389793
 40
0.028586677022389793
 40
0.028586677022389793
 40
0.028586677022389793
 40
0.028586677022389793
 40
0.028586677022389793
 40
0.046842734710300364
 40
0.046842734710300364
 40
0.046842734710300364
 40
0.046842734710300364
 40
0.046842734710300364
 40
0.046842734710300364
 40
0.046842734710300364
 40
0.07396373498367469
 40
0.07396373498367469
 40
0.07396373498367469
 40
0.07396373498367469
 40
0.07396373498367469
 40
0.07396373498367469
 40
0.07396373498367469
 40
0.1078916501152415
 40
0.1078916501152415
 40
0.1078916501152415
 40
0.1078916501152415
 40
0.1078916501152415
 40
0.1078916501152415
 40
0.1078916501152415
 40
0.13092748934031084
 40
0.13092748934031084
 40
0.13092748934031084
 40
0.13092748934031084
 40
0.13092748934031084
 40
0.13092748934031084
 40
0.13092748934031084
 40
0.1413659555079848
 40
0.1413659555079848
 40
0.1413659555079848
 40
0.1413659555079848
 40
0.1413659555079848
 40
0.1413659555079848
 40
0.1413659555079848
 40
0.18523400588105385
 40
0.18523400588105385
 40
0.18523400588105385
 40
0.18523400588105385
 40
0.18523400588105385
 40
0.18523400588105385
 40
0.18523400588105385
 40
0.2568192428206638
 40
0.2568192428206638
 40
0.2568192428206638
 40
0.2568192428206638
 40
0.2568192428206638
 40
0.2568192428206638
 40
0.2568192428206638
 40
0.29395782235755424
 40
0.29395782235755424
 40
0.29395782235755424
 40
0.29395782235755424
 40
0.29395782235755424
 40
0.29395782235755424
 40
0.29395782235755424
 40
0.31172343702527916
 40
0.31172343702527916
 40
0.31172343702527916
 40
0.31172343702527916
 40
0.31172343702527916
 40
0.31172343702527916
 40
0.31172343702527916
 40
0.33126641611823915
 40
0.33126641611823915
 40
0.33126641611823915
 40
0.33126641611823915
 40
0.33126641611823915
 40
0.33126641611823915
 40
0.33126641611823915
 40
0.4396387777358619
 40
0.4396387777358619
 40
0.4396387777358619
 40
0.4396387777358619
 40
0.4396387777358619
 40
0.4396387777358619
 40
0.4396387777358619
 40
0.4733938850045754
 40
0.4733938850045754
 40
0.4733938850045754
 40
0.4733938850045754
 40
0.4733938850045754
 40
0.4733938850045754
 40
0.4733938850045754
 40
0.4878590482035576
 40
0.4878590482035576
 40
0.4878590482035576
 40
0.4878590482035576
 40
0.4878590482035576
 40
0.4878590482035576
 40
0.4878590482035576
 40
0.505624875815937
 40
0.505624875815937
 40
0.505624875815937
 40
0.505624875815937
 40
0.505624875815937
 40
0.505624875815937
 40
0.505624875815937
 40
0.5553687532183524
 40
0.5553687532183524
 40
0.5553687532183524
 40
0.5553687532183524
 40
0.5553687532183524
 40
0.5553687532183524
 40
0.5553687532183524
 40
0.6086639195727982
 40
0.6086639195727982
 40
0.6086639195727982
 40
0.6086639195727982
 40
0.6086639195727982
 40
0.6086639195727982
 40
0.6086639195727982
 40
0.6566263866819577
 40
0.6566263866819577
 40
0.6566263866819577
 40
0.6566263866819577
 40
0.6566263866819577
 40
0.6566263866819577
 40
0.6566263866819577
 40
0.6832375127446316
 40
0.6832375127446316
 40
0.6832375127446316
 40
0.6832375127446316
 40
0.6832375127446316
 40
0.6832375127446316
 40
0.6832375127446316
 40
0.7096403950685857
 40
0.7096403950685857
 40
0.7096403950685857
 40
0.7096403950685857
 40
0.7096403950685857
 40
0.7096403950685857
 40
0.7096403950685857
 40
0.7559633311724837
 40
0.7559633311724837
 40
0.7559633311724837
 40
0.7559633311724837
 40
0.7559633311724837
 40
0.7559633311724837
 40
0.7559633311724837
 40
0.7996862240308804
 40
0.7996862240308804
 40
0.7996862240308804
 40
0.7996862240308804
 40
0.7996862240308804
 40
0.7996862240308804
 40
0.7996862240308804
 40
0.8168015839413356
 40
0.8168015839413356
 40
0.8168015839413356
 40
0.8168015839413356
 40
0.8168015839413356
 40
0.8168015839413356
 40
0.8168015839413356
 40
0.8305464826043311
 40
0.8305464826043311
 40
0.8305464826043311
 40
0.8305464826043311
 40
0.8305464826043311
 40
0.8305464826043311
 40
0.8305464826043311
 40
0.8686032237269056
 40
0.8686032237269056
 40
0.8686032237269056
 40
0.8686032237269056
 40
0.8686032237269056
 40
0.8686032237269056
 40
0.8686032237269056
 40
0.9108428039607037
 40
0.9108428039607037
 40
0.9108428039607037
 40
0.9108428039607037
 40
0.9108428039607037
 40
0.9108428039607037
 40
0.9108428039607037
 40
0.9304245672426872
 40
0.9304245672426872
 40
0.9304245672426872
 40
0.9304245672426872
 40
0.9304245672426872
 40
0.9304245672426872
 40
0.9304245672426872
 40
0.9438330943415129
 40
0.9438330943415129
 40
0.9438330943415129
 40
0.9438330943415129
 40
0.9438330943415129
 40
0.9438330943415129
 40
0.9438330943415129
 40
0.9509209997948347
 40
0.9509209997948347
 40
0.9509209997948347
 40
0.9509209997948347
 40
0.9509209997948347
 40
0.9509209997948347
 40
0.9509209997948347
 40
0.9573304608286833
 40
0.9573304608286833
 40
0.9573304608286833
 40
0.9573304608286833
 40
0.9573304608286833
 40
0.9573304608286833
 40
0.9573304608286833
 40
0.9683664836660867
 40
0.9683664836660867
 40
0.9683664836660867
 40
0.9683664836660867
 40
0.9683664836660867
 40
0.9683664836660867
 40
0.9683664836660867
 40
0.9726069376271442
 40
0.9726069376271442
 40
0.9726069376271442
 40
0.9726069376271442
 40
0.9726069376271442
 40
0.9726069376271442
 40
0.9726069376271442
 40
0.9764258554814391
 40
0.9764258554814391
 40
0.9764258554814391
 40
0.9764258554814391
 40
0.9764258554814391
 40
0.9764258554814391
 40
0.9764258554814391
 40
0.9826546670607058
 40
0.9826546670607058
 40
0.9826546670607058
 40
0.9826546670607058
 40
0.9826546670607058
 40
0.9826546670607058
 40
0.9826546670607058
 40
0.9864778989369511
 40
0.9864778989369511
 40
0.9864778989369511
 40
0.9864778989369511
 40
0.9864778989369511
 40
0.9864778989369511
 40
0.9864778989369511
 40
0.9891854019865316
 40
0.9891854019865316
 40
0.9891854019865316
 40
0.9891854019865316
 40
0.9891854019865316
 40
0.9891854019865316
 40
0.9891854019865316
 40
0.9909927796322903
 40
0.9909927796322903
 40
0.9909927796322903
 40
0.9909927796322903
 40
0.9909927796322903
 40
0.9909927796322903
 40
0.9909927796322903
 40
0.9923057155486278
 40
0.9923057155486278
 40
0.9923057155486278
 40
0.9923057155486278
 40
0.9923057155486278
 40
0.9923057155486278
 40
0.9923057155486278
 40
0.9943861390957656
 40
0.9943861390957656
 40
0.9943861390957656
 40
0.9943861390957656
 40
0.9943861390957656
 40
0.9943861390957656
 40
0.9943861390957656
 40
0.9964453062480695
 40
0.9964453062480695
 40
0.9964453062480695
 40
0.9964453062480695
 40
0.9964453062480695
 40
0.9964453062480695
 40
0.9964453062480695
 40
0.9977193572951226
 40
0.9977193572951226
 40
0.9977193572951226
 40
0.9977193572951226
 40
0.9977193572951226
 40
0.9977193572951226
 40
0.9977193572951226
 40
0.9983247014117855
 40
0.9983247014117855
 40
0.9983247014117855
 40
0.9983247014117855
 40
0.9983247014117855
 40
0.9983247014117855
 40
0.9983247014117855
 40
0.9989300454603848
 40
0.9989300454603848
 40
0.9989300454603848
 40
0.9989300454603848
 40
0.9989300454603848
 40
0.9989300454603848
 40
0.9989300454603848
 40
0.9995353894256235
 40
0.9995353894256235
 40
0.9995353894256235
 40
0.9995353894256235
 40
0.9995353894256235
 40
0.9995353894256235
 40
0.9995353894256235
 40
1.0
 40
1.0
 40
1.0
 40
1.0
 40
1.0
 40
1.0
 40
1.0
 40
1.0
 40
1.0
 10
1911.295766272687
 20
81.46372677951051
 30
104.0
 10
1911.1620278381545
 20
81.67520681600597
 30
104.0
 10
1911.0102720893258
 20
81.87515464527283
 30
104.0
 10
1910.8425272503962
 20
82.06261511807597
 30
104.0
 10
1910.6612999419403
 20
82.23753921806218
 30
104.0
 10
1910.4691148273707
 20
82.40037601971935
 30
104.0
 10
1910.2682227311057
 20
82.55182925318447
 30
104.0
 10
1910.0604797697433
 20
82.69275332664836
 30
104.0
 10
1909.5763696628003
 20
82.99087528546563
 30
104.0
 10
1909.2962745930354
 20
83.1423989449779
 30
104.0
 10
1909.0091589053152
 20
83.28078556999407
 30
104.0
 10
1908.7167226823174
 20
83.4077021938978
 30
104.0
 10
1908.4202494663589
 20
83.5245362192198
 30
104.0
 10
1908.1206426386716
 20
83.63247712094181
 30
104.0
 10
1907.818438591506
 20
83.73254698031647
 30
104.0
 10
1907.0398651088667
 20
83.97049791130607
 30
104.0
 10
1906.560768230585
 20
84.09825751393217
 30
104.0
 10
1906.077991522414
 20
84.2121656153468
 30
104.0
 10
1905.592555298044
 20
84.31433896082135
 30
104.0
 10
1905.1052001330484
 20
84.40644130668423
 30
104.0
 10
1904.616402161349
 20
84.48976094527654
 30
104.0
 10
1904.1264101681372
 20
84.56536203948723
 30
104.0
 10
1902.6686084887874
 20
84.76944358671572
 30
104.0
 10
1901.6983668551206
 20
84.87813604433478
 30
104.0
 10
1900.7258696436681
 20
84.9668087249117
 30
104.0
 10
1899.7519935574308
 20
85.03912779468914
 30
104.0
 10
1898.777339447791
 20
85.09793719103072
 30
104.0
 10
1897.8022245142558
 20
85.14524101509245
 30
104.0
 10
1896.8267309256596
 20
85.1826675110409
 30
104.0
 10
1895.3382858307657
 20
85.2266164096768
 30
104.0
 10
1894.8112214749433
 20
85.23980284615654
 30
104.0
 10
1894.268912862623
 20
85.25101684738968
 30
104.0
 10
1893.710843897239
 20
85.2601937922316
 30
104.0
 10
1893.136581448468
 20
85.26729774773698
 30
104.0
 10
1892.5457763553475
 20
85.27233852126783
 30
104.0
 10
1891.9381627110295
 20
85.27534135132917
 30
104.0
 10
1890.626431521852
 20
85.27728999455421
 30
104.0
 10
1889.9185866792234
 20
85.27580933922245
 30
104.0
 10
1889.1895632050873
 20
85.27181732862161
 30
104.0
 10
1888.4388706140212
 20
85.26530242826826
 30
104.0
 10
1887.6659856313775
 20
85.25625151171104
 30
104.0
 10
1886.8703521932885
 20
85.24464986053076
 30
104.0
 10
1886.051381446662
 20
85.23048116434035
 30
104.0
 10
1883.2573975381279
 20
85.17494935588326
 30
104.0
 10
1881.3065640234756
 20
85.1248793387737
 30
104.0
 10
1879.3559441363202
 20
85.06604803356079
 30
104.0
 10
1877.4055398831538
 20
85.00007940705105
 30
104.0
 10
1875.4553475107018
 20
84.92818238505812
 30
104.0
 10
1873.5053522552255
 20
84.8513145266113
 30
104.0
 10
1871.5555271861094
 20
84.77021422227703
 30
104.0
 10
1865.385494614517
 20
84.50211970839982
 30
104.0
 10
1861.1658903353036
 20
84.30180110662124
 30
104.0
 10
1856.9467706225716
 20
84.09074212457921
 30
104.0
 10
1852.7280171913883
 20
83.8721614805042
 30
104.0
 10
1848.5095322477384
 20
83.6484878339399
 30
104.0
 10
1844.2912387139738
 20
83.42133447954433
 30
104.0
 10
1840.073057389239
 20
83.1919781611937
 30
104.0
 10
1829.5884652035766
 20
82.61878680278767
 30
104.0
 10
1823.3221585628903
 20
82.27344969722076
 30
104.0
 10
1817.0558142325883
 20
81.9285129405207
 30
104.0
 10
1810.7893384349516
 20
81.58572903116325
 30
104.0
 10
1804.5226671228122
 20
81.24633419303858
 30
104.0
 10
1798.2557602087647
 20
80.91115402988112
 30
104.0
 10
1791.988591029022
 20
80.5807964780403
 30
104.0
 10
1777.8806730805584
 20
79.8490005441016
 30
104.0
 10
1770.0397649984113
 20
79.45053267388
 30
104.0
 10
1762.198389769238
 20
79.0611442324399
 30
104.0
 10
1754.3565380533064
 20
78.68128972132051
 30
104.0
 10
1746.5142112399676
 20
78.31122974474023
 30
104.0
 10
1738.6714175347001
 20
77.9511121569008
 30
104.0
 10
1730.8281706913199
 20
77.60099834857311
 30
104.0
 10
1717.6589085167345
 20
77.02998911232689
 30
104.0
 10
1712.3331269535192
 20
76.80369413169431
 30
104.0
 10
1707.0071481488449
 20
76.58202047889131
 30
104.0
 10
1701.68097719456
 20
76.36496148490856
 30
104.0
 10
1696.3546194357368
 20
76.15250261305752
 30
104.0
 10
1691.0280803884605
 20
75.94462347128946
 30
104.0
 10
1685.7013656576244
 20
75.74129982451436
 30
104.0
 10
1677.9606548920144
 20
75.45242394354244
 30
104.0
 10
1675.5363412460504
 20
75.36288341490321
 30
104.0
 10
1673.1015308843437
 20
75.27389693947698
 30
104.0
 10
1670.6562561105195
 20
75.18547381841127
 30
104.0
 10
1668.200590564309
 20
75.09761973552621
 30
104.0
 10
1665.734649221553
 20
75.01033675731469
 30
104.0
 10
1663.258588394198
 20
74.9236233329423
 30
104.0
 10
1650.3251692032559
 20
74.4754296884249
 30
104.0
 10
1639.87717340709
 20
74.1294906103876
 30
104.0
 10
1629.4286877922714
 20
73.79839188293329
 30
104.0
 10
1618.979769187919
 20
73.48112738972918
 30
104.0
 10
1608.5304655217528
 20
73.17683367086575
 30
104.0
 10
1598.080816648763
 20
72.8847625562835
 30
104.0
 10
1587.6308543923622
 20
72.60427853654308
 30
104.0
 10
1560.127562996487
 20
71.89510022724464
 30
104.0
 10
1543.073766707708
 20
71.48473568458749
 30
104.0
 10
1526.0193281856498
 20
71.10128128890601
 30
104.0
 10
1508.9643396267065
 20
70.74286203696774
 30
104.0
 10
1491.9088764055725
 20
70.40797752978362
 30
104.0
 10
1474.8529991649355
 20
70.09540405391898
 30
104.0
 10
1457.796754866851
 20
69.80414544252285
 30
104.0
 10
1431.8911878401934
 20
69.39291747966449
 30
104.0
 10
1423.042110065201
 20
69.25796542368614
 30
104.0
 10
1414.1929502259788
 20
69.1284178242949
 30
104.0
 10
1405.3437136717134
 20
69.004174286141
 30
104.0
 10
1396.4944053734803
 20
68.88514645024613
 30
104.0
 10
1387.6450299380026
 20
68.77125704952638
 30
104.0
 10
1378.7955916214132
 20
68.66243896431531
 30
104.0
 10
1365.712847928868
 20
68.50897825757626
 30
104.0
 10
1361.4795880174497
 20
68.46047001395605
 30
104.0
 10
1357.246315116462
 20
68.41309940011523
 30
104.0
 10
1353.0130295667927
 20
68.36686873153054
 30
104.0
 10
1348.779731777342
 20
68.32177241059145
 30
104.0
 10
1344.5464222986582
 20
68.27779088704233
 30
104.0
 10
1340.31310173538
 20
68.2348989543421
 30
104.0
 10
1331.4229148005177
 20
68.1470948625735
 30
104.0
 10
1326.766063787204
 20
68.10240780396244
 30
104.0
 10
1322.1092169266733
 20
68.05900581186624
 30
104.0
 10
1317.4523737268828
 20
68.01686731168573
 30
104.0
 10
1312.795533734627
 20
67.97597054846406
 30
104.0
 10
1308.138696535533
 20
67.9362935868869
 30
104.0
 10
1303.481861754063
 20
67.89781431128227
 30
104.0
 10
1273.0013327267711
 20
67.65364789112975
 30
104.0
 10
1247.1773519374635
 20
67.48292724384174
 30
104.0
 10
1221.3531690810194
 20
67.3445518205772
 30
104.0
 10
1195.5288512683549
 20
67.23457541643819
 30
104.0
 10
1169.7044501316825
 20
67.14894700750249
 30
104.0
 10
1143.8800016826845
 20
67.08354418666855
 30
104.0
 10
1118.055526223052
 20
67.03419531265095
 30
104.0
 10
1084.1873842980474
 20
66.98500858101646
 30
104.0
 10
1076.1437386378266
 20
66.97447589313418
 30
104.0
 10
1068.1000916760088
 20
66.96496504295203
 30
104.0
 10
1060.056443710971
 20
66.95634850195799
 30
104.0
 10
1052.0127949901926
 20
66.94849847865558
 30
104.0
 10
1043.9691457102515
 20
66.94128691856386
 30
104.0
 10
1035.9254960168255
 20
66.93458550421742
 30
104.0
 10
1024.4348799140578
 20
66.92555739394858
 30
104.0
 10
1020.9879137694746
 20
66.92291904989736
 30
104.0
 10
1017.5409475774993
 20
66.92034237194896
 30
104.0
 10
1014.0939813510352
 20
66.91781189766255
 30
104.0
 10
1010.6470150979251
 20
66.91531877411738
 30
104.0
 10
1007.2000488177341
 20
66.91286434447161
 30
104.0
 10
1003.7530825067205
 20
66.9104535001825
 30
104.0
 10
996.0726202288058
 20
66.9051600095017
 30
104.0
 10
991.8391253632838
 20
66.90229763925797
 30
104.0
 10
987.6056317879951
 20
66.89948680639164
 30
104.0
 10
983.3721397203605
 20
66.89672363087023
 30
104.0
 10
979.1386493816622
 20
66.89400423439388
 30
104.0
 10
974.9051609970444
 20
66.89132474039536
 30
104.0
 10
970.6716747955124
 20
66.8886812740402
 30
104.0
 10
954.5845412386007
 20
66.8787583538088
 30
104.0
 10
942.7308913196588
 20
66.8716988211969
 30
104.0
 10
930.8772413041066
 20
66.8648062313977
 30
104.0
 10
919.0235912433692
 20
66.85799542871561
 30
104.0
 10
907.1699411895275
 20
66.85118085367003
 30
104.0
 10
895.3162911955517
 20
66.84427616191279
 30
104.0
 10
883.4626413155302
 20
66.83719384314567
 30
104.0
 10
858.9090923163033
 20
66.82197118073285
 30
104.0
 10
846.2091932412862
 20
66.81379141674778
 30
104.0
 10
833.509294442192
 20
66.80519586953126
 30
104.0
 10
820.8093960087677
 20
66.79607289381502
 30
104.0
 10
808.1094980588545
 20
66.78630801962272
 30
104.0
 10
795.4096007390782
 20
66.77578309427868
 30
104.0
 10
782.7097042255384
 20
66.7643754244167
 30
104.0
 10
758.5806611690249
 20
66.74078100379555
 30
104.0
 10
747.1515144583473
 20
66.72878643018286
 30
104.0
 10
735.7223687370796
 20
66.71587963388423
 30
104.0
 10
724.2932241986645
 20
66.70196357569903
 30
104.0
 10
712.8640810865702
 20
66.68693685709195
 30
104.0
 10
701.4349396954904
 20
66.67069283679271
 30
104.0
 10
690.0058003725437
 20
66.65311874739558
 30
104.0
 10
672.2354092014474
 20
66.62353971805693
 30
104.0
 10
665.894155659134
 20
66.61253389044607
 30
104.0
 10
659.5529028969048
 20
66.60109704334417
 30
104.0
 10
653.2116508960839
 20
66.58927469435386
 30
104.0
 10
646.8703996524125
 20
66.57707667865
 30
104.0
 10
640.5291491419714
 20
66.56454597967492
 30
104.0
 10
634.1878993367162
 20
66.55170351457575
 30
104.0
 10
621.5550241306313
 20
66.5255595216585
 30
104.0
 10
615.2633987206353
 20
66.5122620441361
 30
104.0
 10
608.9717739422576
 20
66.49871565033966
 30
104.0
 10
602.6801497589807
 20
66.48494839351268
 30
104.0
 10
596.3885261302836
 20
66.47098866242516
 30
104.0
 10
590.096903011261
 20
66.45686537641058
 30
104.0
 10
583.8052803522435
 20
66.44260818040307
 30
104.0
 10
566.4752263060884
 20
66.40305257268886
 30
104.0
 10
555.4367958022774
 20
66.37753944040843
 30
104.0
 10
544.398366249926
 20
66.35187324469517
 30
104.0
 10
533.3599373183459
 20
66.32622832134153
 30
104.0
 10
522.3215086770016
 20
66.30079143754557
 30
104.0
 10
511.2830799858255
 20
66.2757666263213
 30
104.0
 10
500.2446508820657
 20
66.25138175814399
 30
104.0
 10
478.787363066474
 20
66.20573011740059
 30
104.0
 10
468.3685046475396
 20
66.18436528374879
 30
104.0
 10
457.94964522201235
 20
66.16402069728342
 30
104.0
 10
447.5307844899961
 20
66.14494173165657
 30
104.0
 10
437.1119223292226
 20
66.12740568496658
 30
104.0
 10
426.69305878127227
 20
66.11173181241863
 30
104.0
 10
416.27419403133825
 20
66.09829649244341
 30
104.0
 10
401.7768554398512
 20
66.08334818393523
 30
104.0
 10
397.72006405299106
 20
66.07957777551283
 30
104.0
 10
393.6854282735227
 20
66.07626232218368
 30
104.0
 10
389.6734224906926
 20
66.07342240595844
 30
104.0
 10
385.68452143065156
 20
66.07107902756228
 30
104.0
 10
381.719200156682
 20
66.06925346431561
 30
104.0
 10
377.7779340694243
 20
66.06796712801497
 30
104.0
 10
370.7157711639817
 20
66.06665862791482
 30
104.0
 10
367.57034359034213
 20
66.06643430590901
 30
104.0
 10
364.4249162564737
 20
66.06658482982769
 30
104.0
 10
361.2794892344716
 20
66.06713204934589
 30
104.0
 10
358.1340625990189
 20
66.0680978787722
 30
104.0
 10
354.98863642816605
 20
66.06949888503824
 30
104.0
 10
351.84321080411127
 20
66.07134087568836
 30
104.0
 10
339.98876383391
 20
66.07990587050266
 30
104.0
 10
331.2797466091512
 20
66.08953648472597
 30
104.0
 10
322.5707359814825
 20
66.10257245056113
 30
104.0
 10
313.86173388489505
 20
66.11907504483662
 30
104.0
 10
305.15274234952096
 20
66.13909925597851
 30
104.0
 10
296.4437634915091
 20
66.16268662590575
 30
104.0
 10
287.73479948884767
 20
66.18985137802986
 30
104.0
 10
269.35970004519805
 20
66.25464346910539
 30
104.0
 10
259.6935674695725
 20
66.29309321832571
 30
104.0
 10
250.0274587720227
 20
66.33585653484303
 30
104.0
 10
240.36137717356806
 20
66.38282203766965
 30
104.0
 10
230.69532465660205
 20
66.43372589066007
 30
104.0
 10
221.0293018642392
 20
66.48812763839243
 30
104.0
 10
211.36330728991
 20
66.5452403521951
 30
104.0
 10
197.2163055433237
 20
66.63036203130991
 30
104.0
 10
192.7352815140567
 20
66.6575484299617
 30
104.0
 10
188.2542615139602
 20
66.68479449287483
 30
104.0
 10
183.77324452601295
 20
66.71188879596336
 30
104.0
 10
179.2922295309645
 20
66.73856828345961
 30
104.0
 10
174.81121538714396
 20
66.76449596753186
 30
104.0
 10
170.3302006177549
 20
66.78922118043138
 30
104.0
 10
162.78082588592895
 20
66.82780387523474
 30
104.0
 10
159.712468428741
 20
66.84262958961128
 30
104.0
 10
156.6441093053799
 20
66.85640044132765
 30
104.0
 10
153.57574788867853
 20
66.86887487808008
 30
104.0
 10
150.50738433127128
 20
66.87976369423633
 30
104.0
 10
147.43901951355247
 20
66.88871249176012
 30
104.0
 10
144.37065496133764
 20
66.8952717840559
 30
104.0
 10
139.68032029665082
 20
66.90074873691839
 30
104.0
 10
138.0583489650389
 20
66.90180942787946
 30
104.0
 10
136.43637901011604
 20
66.90195003830053
 30
104.0
 10
134.81441109931416
 20
66.90109346654658
 30
104.0
 10
133.1924462534366
 20
66.89915225908447
 30
104.0
 10
131.5704858329985
 20
66.89601777424629
 30
104.0
 10
129.9485315532439
 20
66.89155853733493
 30
104.0
 10
126.85988991271107
 20
66.88026471994895
 30
104.0
 10
125.43445320323137
 20
66.87384827660802
 30
104.0
 10
124.04883994523415
 20
66.86637996088984
 30
104.0
 10
122.70168185505533
 20
66.85785990870788
 30
104.0
 10
121.39167781792152
 20
66.84828704175786
 30
104.0
 10
120.11759388633887
 20
66.83765922122716
 30
104.0
 10
118.87826327848133
 20
66.82597340150409
 30
104.0
 10
115.59661185178663
 20
66.79127651258355
 30
104.0
 10
113.52072033155451
 20
66.76512504749289
 30
104.0
 10
111.44489621496339
 20
66.73410703784369
 30
104.0
 10
109.36915311421197
 20
66.69737848080757
 30
104.0
 10
107.29353427130351
 20
66.65388268125285
 30
104.0
 10
105.21811782777388
 20
66.60215765839088
 30
104.0
 10
103.1430179252518
 20
66.54026938049208
 30
104.0
 10
100.27126235129926
 20
66.43599560444025
 30
104.0
 10
99.49704201151442
 20
66.40589655681097
 30
104.0
 10
98.74511410018954
 20
66.37463269121828
 30
104.0
 10
98.01487821543861
 20
66.34219344626949
 30
104.0
 10
97.30576448921614
 20
66.30856784932848
 30
104.0
 10
96.6172335873172
 20
66.27374451651586
 30
104.0
 10
95.94877670937741
 20
66.23771165270882
 30
104.0
 10
94.7155566167419
 20
66.16690586507383
 30
104.0
 10
94.13131159980917
 20
66.13145635497995
 30
104.0
 10
93.54719573297832
 20
66.09395541513015
 30
104.0
 10
92.96323196172507
 20
66.05417269635541
 30
104.0
 10
92.37944670648938
 20
66.01188493116305
 30
104.0
 10
91.79586909978806
 20
65.96689798246999
 30
104.0
 10
91.21253373604722
 20
65.9190066163531
 30
104.0
 10
89.67851369790208
 20
65.78452196213928
 30
104.0
 10
88.72854704007335
 20
65.69261892021976
 30
104.0
 10
87.77952586134828
 20
65.5909310676366
 30
104.0
 10
86.83163371820905
 20
65.47788409494387
 30
104.0
 10
85.88530095457713
 20
65.35154176974953
 30
104.0
 10
84.94126499592896
 20
65.20923334784437
 30
104.0
 10
84.0005742056709
 20
65.0474957281721
 30
104.0
 10
82.49048754966216
 20
64.74551476614508
 30
104.0
 10
81.91855302343599
 20
64.62120284111992
 30
104.0
 10
81.34896337063903
 20
64.48600565801237
 30
104.0
 10
80.7821729224471
 20
64.33816880932562
 30
104.0
 10
80.21916543668978
 20
64.17558166067892
 30
104.0
 10
79.66158089985424
 20
63.99541080197727
 30
104.0
 10
79.11171638046542
 20
63.79406720560562
 30
104.0
 10
78.19159783609933
 20
63.40367845067797
 30
104.0
 10
77.8167888101121
 20
63.22862943057668
 30
104.0
 10
77.44894007321511
 20
63.03798741086921
 30
104.0
 10
77.08995517929728
 20
62.82916321842642
 30
104.0
 10
76.7433872731726
 20
62.59930508537052
 30
104.0
 10
76.41428967333135
 20
62.345456797980106
 30
104.0
 10
76.10932248929421
 20
62.064408368465344
 30
104.0
 10
75.65308460956345
 20
61.5469027311794
 30
104.0
 10
75.48428323710726
 20
61.32652558686648
 30
104.0
 10
75.332595780669
 20
61.09351251676696
 30
104.0
 10
75.20067592696384
 20
60.848780262175595
 30
104.0
 10
75.09034165476506
 20
60.59369221089593
 30
104.0
 10
75.0023404912245
 20
60.330178006689955
 30
104.0
 10
74.93623050904343
 20
60.060803880786466
 30
104.0
 10
74.85730453088486
 20
59.59108751532217
 30
104.0
 10
74.83480268020045
 20
59.39169739078181
 30
104.0
 10
74.82241866417584
 20
59.19131022629792
 30
104.0
 10
74.81935241761468
 20
58.99054387050765
 30
104.0
 10
74.8247129172251
 20
58.789881659472655
 30
104.0
 10
74.83760386077131
 20
58.58967085730277
 30
104.0
 10
74.85717595669672
 20
58.390121606782856
 30
104.0
 10
74.92300431504485
 20
57.87627208149444
 30
104.0
 10
74.97813157083438
 20
57.563203608844965
 30
104.0
 10
75.04636245009638
 20
57.25253897668139
 30
104.0
 10
75.12632165595667
 20
56.94463366585531
 30
104.0
 10
75.21685043948133
 20
56.639745888732776
 30
104.0
 10
75.31698307195279
 20
56.338030125452875
 30
104.0
 10
75.42594517124988
 20
56.0395362132044
 30
104.0
 10
75.65914928333063
 20
55.45190374340505
 30
104.0
 10
75.78317854605443
 20
55.16281585495785
 30
104.0
 10
75.91462223688936
 20
54.876962504745954
 30
104.0
 10
76.05298904513772
 20
54.59438768951602
 30
104.0
 10
76.19788081541019
 20
54.31515086196014
 30
104.0
 10
76.34898368620945
 20
54.039323898270844
 30
104.0
 10
76.50607741985837
 20
53.76699866453623
 30
104.0
 10
76.76990556381027
 20
53.332058739858844
 30
104.0
 10
76.8729943559544
 20
53.16721807744574
 30
104.0
 10
76.97830605003786
 20
53.0038140052969
 30
104.0
 10
77.08582840478014
 20
52.84189235472314
 30
104.0
 10
77.19556629671273
 20
52.68151973437865
 30
104.0
 10
77.30754243721769
 20
52.52278417753437
 30
104.0
 10
77.42180860263933
 20
52.3658046543747
 30
104.0
 10
77.59391931156854
 20
52.13709816741445
 30
104.0
 10
77.64888794800797
 20
52.06521415351425
 30
104.0
 10
77.70332318218013
 20
51.995161603287066
 30
104.0
 10
77.75715822609484
 20
51.92699096090082
 30
104.0
 10
77.81032551333662
 20
51.860752893364825
 30
104.0
 10
77.86275669906468
 20
51.79649829052997
 30
104.0
 10
77.91438266001286
 20
51.734278265088506
 30
104.0
 10
78.01588432326031
 20
51.614010046821214
 30
104.0
 10
78.06576011964535
 20
51.5559617849659
 30
104.0
 10
78.1146909459315
 20
51.50005071431434
 30
104.0
 10
78.16260622697438
 20
51.44632832315506
 30
104.0
 10
78.20943475019885
 20
51.394846240759016
 30
104.0
 10
78.25510466559892
 20
51.34565623737964
 30
104.0
 10
78.29954348573769
 20
51.29881022425282
 30
104.0
 10
78.38581267981738
 20
51.20991028906201
 30
104.0
 10
78.42764322145527
 20
51.16785626394706
 30
104.0
 10
78.46809654723877
 20
51.12825024309186
 30
104.0
 10
78.50709910648972
 20
51.09114431592904
 30
104.0
 10
78.54457696127422
 20
51.056590596484064
 30
104.0
 10
78.58045578640275
 20
51.02464122337518
 30
104.0
 10
78.61466086943011
 20
50.99534835981348
 30
104.0
 10
78.67202776268725
 20
50.9483604472343
 30
104.0
 10
78.6968824120422
 20
50.92876286060331
 30
104.0
 10
78.72203345504116
 20
50.90971903463529
 30
104.0
 10
78.74765846522608
 20
50.89149297223915
 30
104.0
 10
78.7738382705256
 20
50.87383020176508
 30
104.0
 10
78.80054940384568
 20
50.8579607522881
 30
104.0
 10
78.82754474228251
 20
50.84379517710101
 30
104.0
 10
78.85478744897351
 20
50.83443214857604
 30
104.0
  0
SPLINE
  5
149
330
17
100
AcDbEntity
  8
0
100
AcDbSpline
 70
0
 71
4
 72
10
 73
5
 74
0
 40
0.0
 40
0.0
 40
0.0
 40
0.0
 40
0.0
 40
0.05150847029876538
 40
0.05150847029876538
 40
0.05150847029876538
 40
0.05150847029876538
 40
0.05150847029876538
 10
1911.0999994121132
 20
81.42142614368835
 30
104.0
 10
1911.1489416069196
 20
81.43199865755982
 30
104.0
 10
1911.1978834892652
 20
81.44257293915733
 30
104.0
 10
1911.2468250590616
 20
81.45314898868043
 30
104.0
 10
1911.2957663162197
 20
81.46372680632862
 30
104.0
  0
LINE
  5
14A
330
17
100
AcDbEntity
  8
0
100
AcDbLine
 10
1911.1
 20
81.42142627068388
 30
104.0
 11
1911.1
 21
76.6870784828225
 31
104.0
  0
SPLINE
  5
14B
330
17
100
AcDbEntity
  8
0
100
AcDbSpline
 70
0
 71
8
 72
39
 73
30
 74
0
 40
0.0
 40
0.0
 40
0.0
 40
0.0
 40
0.0
 40
0.0
 40
0.0
 40
0.0
 40
0.0
 40
0.0021272371128585052
 40
0.0021272371128585052
 40
0.0021272371128585052
 40
0.0021272371128585052
 40
0.0021272371128585052
 40
0.0021272371128585052
 40
0.0021272371128585052
 40
0.004577172866975168
 40
0.004577172866975168
 40
0.004577172866975168
 40
0.004577172866975168
 40
0.004577172866975168
 40
0.004577172866975168
 40
0.004577172866975168
 40
0.0070449329436690624
 40
0.0070449329436690624
 40
0.0070449329436690624
 40
0.0070449329436690624
 40
0.0070449329436690624
 40
0.0070449329436690624
 40
0.0070449329436690624
 40
0.008744079007701274
 40
0.008744079007701274
 40
0.008744079007701274
 40
0.008744079007701274
 40
0.008744079007701274
 40
0.008744079007701274
 40
0.008744079007701274
 40
0.008744079007701274
 40
0.008744079007701274
 10
1903.4459563375397
 20
68.60292851426141
 30
104.0
 10
1903.7580519023193
 20
68.74856314787473
 30
104.0
 10
1904.0637347320612
 20
68.90787850651134
 30
104.0
 10
1904.363519140142
 20
69.07850333368975
 30
104.0
 10
1904.6575981449425
 20
69.25892250456212
 30
104.0
 10
1904.946144793964
 20
69.4479519390465
 30
104.0
 10
1905.2293142381395
 20
69.64473555018397
 30
104.0
 10
1905.5072988384923
 20
69.84864279257863
 30
104.0
 10
1906.0947711777926
 20
70.30185504520806
 30
104.0
 10
1906.4024527944266
 20
70.55320886372135
 30
104.0
 10
1906.7035661354746
 20
70.81257343565392
 30
104.0
 10
1906.9981749340395
 20
71.07938472900773
 30
104.0
 10
1907.286273005931
 20
71.3532042757863
 30
104.0
 10
1907.5678063379546
 20
71.63369365222567
 30
104.0
 10
1907.842674803573
 20
71.92061183740691
 30
104.0
 10
1908.3807405955356
 20
72.50914658546752
 30
104.0
 10
1908.6437880621338
 20
72.81080034026829
 30
104.0
 10
1908.8997270846799
 20
73.11861620166299
 30
104.0
 10
1909.1483055605238
 20
73.43247831324132
 30
104.0
 10
1909.3891789770807
 20
73.75230325634382
 30
104.0
 10
1909.6219056855082
 20
74.07804286775144
 30
104.0
 10
1909.8459256529527
 20
74.40969927496218
 30
104.0
 10
1910.2082808648524
 20
74.97983891202838
 30
104.0
 10
1910.3515256015967
 20
75.21509585331144
 30
104.0
 10
1910.490051034134
 20
75.45318477186464
 30
104.0
 10
1910.6235889556328
 20
75.69414869059993
 30
104.0
 10
1910.7518029510798
 20
75.93801391647311
 30
104.0
 10
1910.8742852966302
 20
76.18479124929456
 30
104.0
 10
1910.990548079914
 20
76.43448000089026
 30
104.0
 10
1911.099999992101
 20
76.68707848624514
 30
104.0
  0
ENDSEC
  0
SECTION
  2
OBJECTS
  0
DICTIONARY
  5
A
330
0
100
AcDbDictionary
281
1
  3
ACAD_COLOR
350
B
  3
ACAD_GROUP
350
C
  3
ACAD_LAYOUT
350
D
  3
ACAD_MATERIAL
350
E
  3
ACAD_MLEADERSTYLE
350
F
  3
ACAD_MLINESTYLE
350
10
  3
ACAD_PLOTSETTINGS
350
11
  3
ACAD_PLOTSTYLENAME
350
12
  3
ACAD_SCALELIST
350
14
  3
ACAD_TABLESTYLE
350
15
  3
ACAD_VISUALSTYLE
350
16
  3
EZDXF_META
350
2D
  0
DICTIONARY
  5
B
330
A
100
AcDbDictionary
281
1
  0
DICTIONARY
  5
C
330
A
100
AcDbDictionary
281
1
  0
DICTIONARY
  5
D
330
A
100
AcDbDictionary
281
1
  3
Model
350
1A
  3
Layout1
350
1E
  0
DICTIONARY
  5
E
330
A
100
AcDbDictionary
281
1
  3
ByBlock
350
1F
  3
ByLayer
350
20
  3
Global
350
21
  0
DICTIONARY
  5
F
330
A
100
AcDbDictionary
281
1
  3
Standard
350
2C
  0
DICTIONARY
  5
10
330
A
100
AcDbDictionary
281
1
  3
Standard
350
22
  0
DICTIONARY
  5
11
330
A
100
AcDbDictionary
281
1
  0
ACDBDICTIONARYWDFLT
  5
12
330
A
100
AcDbDictionary
281
1
  3
Normal
350
13
100
AcDbDictionaryWithDefault
340
13
  0
ACDBPLACEHOLDER
  5
13
330
12
  0
DICTIONARY
  5
14
330
A
100
AcDbDictionary
281
1
  0
DICTIONARY
  5
15
330
A
100
AcDbDictionary
281
1
  0
DICTIONARY
  5
16
330
A
100
AcDbDictionary
281
1
  0
LAYOUT
  5
1A
330
D
100
AcDbPlotSettings
  1

  2
Adobe PDF
  4
A3
  6

 40
7.5
 41
20.0
 42
7.5
 43
20.0
 44
420.0
 45
297.0
 46
0.0
 47
0.0
 48
0.0
 49
0.0
140
0.0
141
0.0
142
1.0
143
1.0
 70
1024
 72
1
 73
1
 74
5
  7

 75
16
 76
0
 77
2
 78
300
147
1.0
148
0.0
149
0.0
100
AcDbLayout
  1
Model
 70
1
 71
0
 10
0.0
 20
0.0
 11
420.0
 21
297.0
 12
0.0
 22
0.0
 32
0.0
 14
1e+20
 24
1e+20
 34
1e+20
 15
-1e+20
 25
-1e+20
 35
-1e+20
146
0.0
 13
0.0
 23
0.0
 33
0.0
 16
1.0
 26
0.0
 36
0.0
 17
0.0
 27
1.0
 37
0.0
 76
1
330
17
  0
LAYOUT
  5
1E
330
D
100
AcDbPlotSettings
  1

  2
Adobe PDF
  4
A3
  6

 40
7.5
 41
20.0
 42
7.5
 43
20.0
 44
420.0
 45
297.0
 46
0.0
 47
0.0
 48
0.0
 49
0.0
140
0.0
141
0.0
142
1.0
143
1.0
 70
0
 72
1
 73
1
 74
5
  7

 75
16
 76
0
 77
2
 78
300
147
1.0
148
0.0
149
0.0
100
AcDbLayout
  1
Layout1
 70
1
 71
1
 10
0.0
 20
0.0
 11
420.0
 21
297.0
 12
0.0
 22
0.0
 32
0.0
 14
1e+20
 24
1e+20
 34
1e+20
 15
-1e+20
 25
-1e+20
 35
-1e+20
146
0.0
 13
0.0
 23
0.0
 33
0.0
 16
1.0
 26
0.0
 36
0.0
 17
0.0
 27
1.0
 37
0.0
 76
1
330
1B
  0
MATERIAL
  5
1F
102
{ACAD_REACTORS
330
E
102
}
330
E
100
AcDbMaterial
  1
ByBlock
  2

 70
0
 40
1.0
 71
1
 41
1.0
 91
-1023410177
 42
1.0
 72
1
  3

 73
1
 74
1
 75
1
 44
0.5
 73
0
 45
1.0
 46
1.0
 77
1
  4

 78
1
 79
1
170
1
 48
1.0
171
1
  6

172
1
173
1
174
1
140
1.0
141
1.0
175
1
  7

176
1
177
1
178
1
143
1.0
179
1
  8

270
1
271
1
272
1
145
1.0
146
1.0
273
1
  9

274
1
275
1
276
1
 42
1.0
 72
1
  3

 73
1
 74
1
 75
1
 94
63
  0
MATERIAL
  5
20
102
{ACAD_REACTORS
330
E
102
}
330
E
100
AcDbMaterial
  1
ByLayer
  2

 70
0
 40
1.0
 71
1
 41
1.0
 91
-1023410177
 42
1.0
 72
1
  3

 73
1
 74
1
 75
1
 44
0.5
 73
0
 45
1.0
 46
1.0
 77
1
  4

 78
1
 79
1
170
1
 48
1.0
171
1
  6

172
1
173
1
174
1
140
1.0
141
1.0
175
1
  7

176
1
177
1
178
1
143
1.0
179
1
  8

270
1
271
1
272
1
145
1.0
146
1.0
273
1
  9

274
1
275
1
276
1
 42
1.0
 72
1
  3

 73
1
 74
1
 75
1
 94
63
  0
MATERIAL
  5
21
102
{ACAD_REACTORS
330
E
102
}
330
E
100
AcDbMaterial
  1
Global
  2

 70
0
 40
1.0
 71
1
 41
1.0
 91
-1023410177
 42
1.0
 72
1
  3

 73
1
 74
1
 75
1
 44
0.5
 73
0
 45
1.0
 46
1.0
 77
1
  4

 78
1
 79
1
170
1
 48
1.0
171
1
  6

172
1
173
1
174
1
140
1.0
141
1.0
175
1
  7

176
1
177
1
178
1
143
1.0
179
1
  8

270
1
271
1
272
1
145
1.0
146
1.0
273
1
  9

274
1
275
1
276
1
 42
1.0
 72
1
  3

 73
1
 74
1
 75
1
 94
63
  0
MLINESTYLE
  5
22
102
{ACAD_REACTORS
330
10
102
}
330
10
100
AcDbMlineStyle
  2
Standard
 70
0
  3

 62
256
 51
90.0
 52
90.0
 71
2
 49
0.5
 62
256
  6
BYLAYER
 49
-0.5
 62
256
  6
BYLAYER
  0
MLEADERSTYLE
  5
2C
102
{ACAD_REACTORS
330
F
102
}
330
F
100
AcDbMLeaderStyle
179
2
170
2
171
1
172
0
 90
2
 40
0.0
 41
0.0
173
1
 91
-1056964608
 92
-2
290
1
 42
2.0
291
1
 43
8.0
  3
Standard
 44
4.0
300

342
29
174
1
175
1
176
0
178
1
 93
-1056964608
 45
4.0
292
0
297
0
 46
4.0
 94
-1056964608
 47
1.0
 49
1.0
140
1.0
294
1
141
0.0
177
0
142
1.0
295
0
296
0
143
3.75
271
0
272
9
273
9
  0
DICTIONARY
  5
2D
330
A
100
AcDbDictionary
280
1
281
1
  3
CREATED_BY_EZDXF
350
2E
  3
WRITTEN_BY_EZDXF
350
14E
  0
DICTIONARYVAR
  5
2E
330
2D
100
DictionaryVariables
280
0
  1
0.17 @ 2022-02-15T16:54:20.534789+00:00
  0
DICTIONARYVAR
  5
14E
330
2D
100
DictionaryVariables
280
0
  1
0.17 @ 2022-02-15T16:54:20.891414+00:00
  0
ENDSEC
  0
EOF
