  0
SECTION
  2
HEADER
  9
$ACADVER
  1
AC1027
  9
$ACADMAINTVER
 70
105
  9
$DWGCODEPAGE
  3
ANSI_1252
  9
$LASTSAVEDBY
  1
ezdxf
  9
$REQUIREDVERSIONS
160
0
  9
$INSBASE
 10
0.0
 20
0.0
 30
0.0
  9
$EXTMIN
 10
1e+20
 20
1e+20
 30
1e+20
  9
$EXTMAX
 10
-1e+20
 20
-1e+20
 30
-1e+20
  9
$LIMMIN
 10
0.0
 20
0.0
  9
$LIMMAX
 10
420.0
 20
297.0
  9
$ORTHOMODE
 70
0
  9
$REGENMODE
 70
1
  9
$FILLMODE
 70
1
  9
$QTEXTMODE
 70
0
  9
$MIRRTEXT
 70
1
  9
$LTSCALE
 40
1.0
  9
$ATTMODE
 70
1
  9
$TEXTSIZE
 40
2.5
  9
$TRACEWID
 40
1.0
  9
$TEXTSTYLE
  7
Standard
  9
$CLAYER
  8
0
  9
$CELTYPE
  6
ByLayer
  9
$CECOLOR
 62
256
  9
$CELTSCALE
 40
1.0
  9
$DISPSILH
 70
0
  9
$DIMSCALE
 40
1.0
  9
$DIMASZ
 40
2.5
  9
$DIMEXO
 40
0.625
  9
$DIMDLI
 40
3.75
  9
$DIMRND
 40
0.0
  9
$DIMDLE
 40
0.0
  9
$DIMEXE
 40
1.25
  9
$DIMTP
 40
0.0
  9
$DIMTM
 40
0.0
  9
$DIMTXT
 40
2.5
  9
$DIMCEN
 40
2.5
  9
$DIMTSZ
 40
0.0
  9
$DIMTOL
 70
0
  9
$DIMLIM
 70
0
  9
$DIMTIH
 70
0
  9
$DIMTOH
 70
0
  9
$DIMSE1
 70
0
  9
$DIMSE2
 70
0
  9
$DIMTAD
 70
1
  9
$DIMZIN
 70
8
  9
$DIMBLK
  1

  9
$DIMASO
 70
1
  9
$DIMSHO
 70
1
  9
$DIMPOST
  1

  9
$DIMAPOST
  1

  9
$DIMALT
 70
0
  9
$DIMALTD
 70
3
  9
$DIMALTF
 40
0.03937007874
  9
$DIMLFAC
 40
1.0
  9
$DIMTOFL
 70
1
  9
$DIMTVP
 40
0.0
  9
$DIMTIX
 70
0
  9
$DIMSOXD
 70
0
  9
$DIMSAH
 70
0
  9
$DIMBLK1
  1

  9
$DIMBLK2
  1

  9
$DIMSTYLE
  2
ISO-25
  9
$DIMCLRD
 70
0
  9
$DIMCLRE
 70
0
  9
$DIMCLRT
 70
0
  9
$DIMTFAC
 40
1.0
  9
$DIMGAP
 40
0.625
  9
$DIMJUST
 70
0
  9
$DIMSD1
 70
0
  9
$DIMSD2
 70
0
  9
$DIMTOLJ
 70
0
  9
$DIMTZIN
 70
8
  9
$DIMALTZ
 70
0
  9
$DIMALTTZ
 70
0
  9
$DIMUPT
 70
0
  9
$DIMDEC
 70
2
  9
$DIMTDEC
 70
2
  9
$DIMALTU
 70
2
  9
$DIMALTTD
 70
3
  9
$DIMTXSTY
  7
Standard
  9
$DIMAUNIT
 70
0
  9
$DIMADEC
 70
0
  9
$DIMALTRND
 40
0.0
  9
$DIMAZIN
 70
0
  9
$DIMDSEP
 70
44
  9
$DIMATFIT
 70
3
  9
$DIMFRAC
 70
0
  9
$DIMLDRBLK
  1

  9
$DIMLUNIT
 70
2
  9
$DIMLWD
 70
-2
  9
$DIMLWE
 70
-2
  9
$DIMTMOVE
 70
0
  9
$DIMFXL
 40
1.0
  9
$DIMFXLON
 70
0
  9
$DIMJOGANG
 40
0.785398163397
  9
$DIMTFILL
 70
0
  9
$DIMTFILLCLR
 70
0
  9
$DIMARCSYM
 70
0
  9
$DIMLTYPE
  6

  9
$DIMLTEX1
  6

  9
$DIMLTEX2
  6

  9
$DIMTXTDIRECTION
 70
0
  9
$LUNITS
 70
2
  9
$LUPREC
 70
4
  9
$SKETCHINC
 40
1.0
  9
$FILLETRAD
 40
10.0
  9
$AUNITS
 70
0
  9
$AUPREC
 70
2
  9
$MENU
  1
.
  9
$ELEVATION
 40
0.0
  9
$PELEVATION
 40
0.0
  9
$THICKNESS
 40
0.0
  9
$LIMCHECK
 70
0
  9
$CHAMFERA
 40
0.0
  9
$CHAMFERB
 40
0.0
  9
$CHAMFERC
 40
0.0
  9
$CHAMFERD
 40
0.0
  9
$SKPOLY
 70
0
  9
$TDCREATE
 40
2459626.7460995372
  9
$TDUCREATE
 40
2458532.153996898
  9
$TDUPDATE
 40
2459626.7461111112
  9
$TDUUPDATE
 40
2458532.1544311
  9
$TDINDWG
 40
0.0
  9
$TDUSRTIMER
 40
0.0
  9
$USRTIMER
 70
1
  9
$ANGBASE
 50
0.0
  9
$ANGDIR
 70
0
  9
$PDMODE
 70
0
  9
$PDSIZE
 40
0.0
  9
$PLINEWID
 40
0.0
  9
$SPLFRAME
 70
0
  9
$SPLINETYPE
 70
6
  9
$SPLINESEGS
 70
8
  9
$HANDSEED
  5
140
  9
$SURFTAB1
 70
6
  9
$SURFTAB2
 70
6
  9
$SURFTYPE
 70
6
  9
$SURFU
 70
6
  9
$SURFV
 70
6
  9
$UCSBASE
  2

  9
$UCSNAME
  2

  9
$UCSORG
 10
0.0
 20
0.0
 30
0.0
  9
$UCSXDIR
 10
1.0
 20
0.0
 30
0.0
  9
$UCSYDIR
 10
0.0
 20
1.0
 30
0.0
  9
$UCSORTHOREF
  2

  9
$UCSORTHOVIEW
 70
0
  9
$UCSORGTOP
 10
0.0
 20
0.0
 30
0.0
  9
$UCSORGBOTTOM
 10
0.0
 20
0.0
 30
0.0
  9
$UCSORGLEFT
 10
0.0
 20
0.0
 30
0.0
  9
$UCSORGRIGHT
 10
0.0
 20
0.0
 30
0.0
  9
$UCSORGFRONT
 10
0.0
 20
0.0
 30
0.0
  9
$UCSORGBACK
 10
0.0
 20
0.0
 30
0.0
  9
$PUCSBASE
  2

  9
$PUCSNAME
  2

  9
$PUCSORG
 10
0.0
 20
0.0
 30
0.0
  9
$PUCSXDIR
 10
1.0
 20
0.0
 30
0.0
  9
$PUCSYDIR
 10
0.0
 20
1.0
 30
0.0
  9
$PUCSORTHOREF
  2

  9
$PUCSORTHOVIEW
 70
0
  9
$PUCSORGTOP
 10
0.0
 20
0.0
 30
0.0
  9
$PUCSORGBOTTOM
 10
0.0
 20
0.0
 30
0.0
  9
$PUCSORGLEFT
 10
0.0
 20
0.0
 30
0.0
  9
$PUCSORGRIGHT
 10
0.0
 20
0.0
 30
0.0
  9
$PUCSORGFRONT
 10
0.0
 20
0.0
 30
0.0
  9
$PUCSORGBACK
 10
0.0
 20
0.0
 30
0.0
  9
$USERI1
 70
0
  9
$USERI2
 70
0
  9
$USERI3
 70
0
  9
$USERI4
 70
0
  9
$USERI5
 70
0
  9
$USERR1
 40
0.0
  9
$USERR2
 40
0.0
  9
$USERR3
 40
0.0
  9
$USERR4
 40
0.0
  9
$USERR5
 40
0.0
  9
$WORLDVIEW
 70
1
  9
$SHADEDGE
 70
3
  9
$SHADEDIF
 70
70
  9
$TILEMODE
 70
1
  9
$MAXACTVP
 70
64
  9
$PINSBASE
 10
0.0
 20
0.0
 30
0.0
  9
$PLIMCHECK
 70
0
  9
$PEXTMIN
 10
1e+20
 20
1e+20
 30
1e+20
  9
$PEXTMAX
 10
-1e+20
 20
-1e+20
 30
-1e+20
  9
$PLIMMIN
 10
0.0
 20
0.0
  9
$PLIMMAX
 10
420.0
 20
297.0
  9
$UNITMODE
 70
0
  9
$VISRETAIN
 70
1
  9
$PLINEGEN
 70
0
  9
$PSLTSCALE
 70
1
  9
$TREEDEPTH
 70
3020
  9
$CMLSTYLE
  2
Standard
  9
$CMLJUST
 70
0
  9
$CMLSCALE
 40
20.0
  9
$PROXYGRAPHICS
 70
1
  9
$MEASUREMENT
 70
1
  9
$CELWEIGHT
370
-1
  9
$ENDCAPS
280
0
  9
$JOINSTYLE
280
0
  9
$LWDISPLAY
290
0
  9
$INSUNITS
 70
6
  9
$HYPERLINKBASE
  1

  9
$STYLESHEET
  1

  9
$XEDIT
290
1
  9
$CEPSNTYPE
380
0
  9
$PSTYLEMODE
290
1
  9
$FINGERPRINTGUID
  2
{6E741F8F-1F2A-434A-A656-3D1DABAABECD}
  9
$VERSIONGUID
  2
{E47F792C-DDA1-4EA1-9BA7-E5548D1C3C1C}
  9
$EXTNAMES
290
1
  9
$PSVPSCALE
 40
0.0
  9
$OLESTARTUP
290
0
  9
$SORTENTS
280
127
  9
$INDEXCTL
280
0
  9
$HIDETEXT
280
1
  9
$XCLIPFRAME
280
0
  9
$HALOGAP
280
0
  9
$OBSCOLOR
 70
257
  9
$OBSLTYPE
280
0
  9
$INTERSECTIONDISPLAY
280
0
  9
$INTERSECTIONCOLOR
 70
257
  9
$DIMASSOC
280
2
  9
$PROJECTNAME
  1

  9
$CAMERADISPLAY
290
0
  9
$LENSLENGTH
 40
50.0
  9
$CAMERAHEIGHT
 40
0.0
  9
$STEPSPERSEC
 40
24.0
  9
$STEPSIZE
 40
100.0
  9
$3DDWFPREC
 40
2.0
  9
$PSOLWIDTH
 40
0.005
  9
$PSOLHEIGHT
 40
0.08
  9
$LOFTANG1
 40
1.570796326795
  9
$LOFTANG2
 40
1.570796326795
  9
$LOFTMAG1
 40
0.0
  9
$LOFTMAG2
 40
0.0
  9
$LOFTPARAM
 70
7
  9
$LOFTNORMALS
280
1
  9
$LATITUDE
 40
37.795
  9
$LONGITUDE
 40
-122.394
  9
$NORTHDIRECTION
 40
0.0
  9
$TIMEZONE
 70
-8000
  9
$LIGHTGLYPHDISPLAY
280
1
  9
$TILEMODELIGHTSYNCH
280
1
  9
$CMATERIAL
347
20
  9
$SOLIDHIST
280
0
  9
$SHOWHIST
280
1
  9
$DWFFRAME
280
2
  9
$DGNFRAME
280
2
  9
$REALWORLDSCALE
290
1
  9
$INTERFERECOLOR
 62
256
  9
$CSHADOW
280
0
  9
$SHADOWPLANELOCATION
 40
0.0
  0
ENDSEC
  0
SECTION
  2
CLASSES
  0
CLASS
  1
ACDBDICTIONARYWDFLT
  2
AcDbDictionaryWithDefault
  3
ObjectDBX Classes
 90
0
 91
0
280
0
281
0
  0
CLASS
  1
SUN
  2
AcDbSun
  3
SCENEOE
 90
1153
 91
0
280
0
281
0
  0
CLASS
  1
VISUALSTYLE
  2
AcDbVisualStyle
  3
ObjectDBX Classes
 90
4095
 91
0
280
0
281
0
  0
CLASS
  1
MATERIAL
  2
AcDbMaterial
  3
ObjectDBX Classes
 90
1153
 91
0
280
0
281
0
  0
CLASS
  1
SCALE
  2
AcDbScale
  3
ObjectDBX Classes
 90
1153
 91
0
280
0
281
0
  0
CLASS
  1
TABLESTYLE
  2
AcDbTableStyle
  3
ObjectDBX Classes
 90
4095
 91
0
280
0
281
0
  0
CLASS
  1
MLEADERSTYLE
  2
AcDbMLeaderStyle
  3
ACDB_MLEADERSTYLE_CLASS
 90
4095
 91
0
280
0
281
0
  0
CLASS
  1
DICTIONARYVAR
  2
AcDbDictionaryVar
  3
ObjectDBX Classes
 90
0
 91
0
280
0
281
0
  0
CLASS
  1
CELLSTYLEMAP
  2
AcDbCellStyleMap
  3
ObjectDBX Classes
 90
1152
 91
0
280
0
281
0
  0
CLASS
  1
MENTALRAYRENDERSETTINGS
  2
AcDbMentalRayRenderSettings
  3
SCENEOE
 90
1024
 91
0
280
0
281
0
  0
CLASS
  1
ACDBDETAILVIEWSTYLE
  2
AcDbDetailViewStyle
  3
ObjectDBX Classes
 90
1025
 91
0
280
0
281
0
  0
CLASS
  1
ACDBSECTIONVIEWSTYLE
  2
AcDbSectionViewStyle
  3
ObjectDBX Classes
 90
1025
 91
0
280
0
281
0
  0
CLASS
  1
RASTERVARIABLES
  2
AcDbRasterVariables
  3
ISM
 90
0
 91
0
280
0
281
0
  0
CLASS
  1
ACDBPLACEHOLDER
  2
AcDbPlaceHolder
  3
ObjectDBX Classes
 90
0
 91
0
280
0
281
0
  0
CLASS
  1
LAYOUT
  2
AcDbLayout
  3
ObjectDBX Classes
 90
0
 91
0
280
0
281
0
  0
ENDSEC
  0
SECTION
  2
TABLES
  0
TABLE
  2
VPORT
  5
8
330
0
100
AcDbSymbolTable
 70
1
  0
VPORT
  5
23
330
8
100
AcDbSymbolTableRecord
100
AcDbViewportTableRecord
  2
*Active
 70
0
 10
0.0
 20
0.0
 11
1.0
 21
1.0
 12
344.2
 22
148.5
 13
0.0
 23
0.0
 14
0.5
 24
0.5
 15
0.5
 25
0.5
 16
0.0
 26
0.0
 36
1.0
 17
0.0
 27
0.0
 37
0.0
 40
297.0
 41
1.34
 42
50.0
 43
0.0
 44
0.0
 50
0.0
 51
0.0
 71
0
 72
1000
 73
1
 74
3
 75
0
 76
0
 77
0
 78
0
281
0
 65
0
146
0.0
  0
ENDTAB
  0
TABLE
  2
LTYPE
  5
2
330
0
100
AcDbSymbolTable
 70
3
  0
LTYPE
  5
24
330
2
100
AcDbSymbolTableRecord
100
AcDbLinetypeTableRecord
  2
ByBlock
 70
0
  3

 72
65
 73
0
 40
0.0
  0
LTYPE
  5
25
330
2
100
AcDbSymbolTableRecord
100
AcDbLinetypeTableRecord
  2
ByLayer
 70
0
  3

 72
65
 73
0
 40
0.0
  0
LTYPE
  5
26
330
2
100
AcDbSymbolTableRecord
100
AcDbLinetypeTableRecord
  2
Continuous
 70
0
  3

 72
65
 73
0
 40
0.0
  0
ENDTAB
  0
TABLE
  2
LAYER
  5
1
330
0
100
AcDbSymbolTable
 70
2
  0
LAYER
  5
27
330
1
100
AcDbSymbolTableRecord
100
AcDbLayerTableRecord
  2
0
 70
0
 62
7
  6
Continuous
370
-3
390
13
347
21
  0
LAYER
  5
28
330
1
100
AcDbSymbolTableRecord
100
AcDbLayerTableRecord
  2
Defpoints
 70
0
 62
7
  6
Continuous
290
0
370
-3
390
13
347
21
  0
ENDTAB
  0
TABLE
  2
STYLE
  5
5
330
0
100
AcDbSymbolTable
 70
1
  0
STYLE
  5
29
330
5
100
AcDbSymbolTableRecord
100
AcDbTextStyleTableRecord
  2
Standard
 70
0
 40
0.0
 41
1.0
 50
0.0
 71
0
 42
2.5
  3
txt
  4

  0
ENDTAB
  0
TABLE
  2
VIEW
  5
7
330
0
100
AcDbSymbolTable
 70
0
  0
ENDTAB
  0
TABLE
  2
UCS
  5
6
330
0
100
AcDbSymbolTable
 70
0
  0
ENDTAB
  0
TABLE
  2
APPID
  5
3
330
0
100
AcDbSymbolTable
 70
3
  0
APPID
  5
2A
330
3
100
AcDbSymbolTableRecord
100
AcDbRegAppTableRecord
  2
ACAD
 70
0
  0
APPID
  5
13D
330
3
100
AcDbSymbolTableRecord
100
AcDbRegAppTableRecord
  2
HATCHBACKGROUNDCOLOR
 70
0
  0
APPID
  5
13E
330
3
100
AcDbSymbolTableRecord
100
AcDbRegAppTableRecord
  2
EZDXF
 70
0
  0
ENDTAB
  0
TABLE
  2
DIMSTYLE
  5
4
330
0
100
AcDbSymbolTable
 70
1
100
AcDbDimStyleTable
  0
DIMSTYLE
105
2B
330
4
100
AcDbSymbolTableRecord
100
AcDbDimStyleTableRecord
  2
Standard
 70
0
 40
1.0
 41
2.5
 42
0.625
 43
3.75
 44
1.25
 45
0.0
 46
0.0
 47
0.0
 48
0.0
 49
2.5
140
2.5
141
2.5
142
0.0
143
0.03937007874
144
1.0
145
0.0
146
1.0
147
0.625
148
0.0
 69
0
 70
0
 71
0
 72
0
 73
0
 74
0
 75
0
 76
0
 77
1
 78
8
 79
0
170
0
171
3
172
1
173
0
174
0
175
0
176
0
177
0
178
0
179
0
271
0
272
2
273
2
274
3
275
0
276
0
277
2
278
44
279
0
280
0
281
0
282
0
283
0
284
8
285
0
286
0
288
0
289
3
290
0
371
-2
372
-2
  0
ENDTAB
  0
TABLE
  2
BLOCK_RECORD
  5
9
330
0
100
AcDbSymbolTable
 70
2
  0
BLOCK_RECORD
  5
17
330
9
100
AcDbSymbolTableRecord
100
AcDbBlockTableRecord
  2
*Model_Space
340
1A
 70
0
280
1
281
0
  0
BLOCK_RECORD
  5
1B
330
9
100
AcDbSymbolTableRecord
100
AcDbBlockTableRecord
  2
*Paper_Space
340
1E
 70
0
280
1
281
0
  0
ENDTAB
  0
ENDSEC
  0
SECTION
  2
BLOCKS
  0
BLOCK
  5
18
330
17
100
AcDbEntity
  8
0
100
AcDbBlockBegin
  2
*Model_Space
 70
0
 10
0.0
 20
0.0
 30
0.0
  3
*Model_Space
  1

  0
ENDBLK
  5
19
330
17
100
AcDbEntity
  8
0
100
AcDbBlockEnd
  0
BLOCK
  5
1C
330
1B
100
AcDbEntity
  8
0
100
AcDbBlockBegin
  2
*Paper_Space
 70
0
 10
0.0
 20
0.0
 30
0.0
  3
*Paper_Space
  1

  0
ENDBLK
  5
1D
330
1B
100
AcDbEntity
  8
0
100
AcDbBlockEnd
  0
ENDSEC
  0
SECTION
  2
ENTITIES
  0
SPLINE
  5
2F
330
17
100
AcDbEntity
  8
0
100
AcDbSpline
 70
0
 71
8
 72
67
 73
58
 74
0
 40
0.0
 40
0.0
 40
0.0
 40
0.0
 40
0.0
 40
0.0
 40
0.0
 40
0.0
 40
0.0
 40
0.5010654536652362
 40
0.5010654536652362
 40
0.5010654536652362
 40
0.5010654536652362
 40
0.5010654536652362
 40
0.5010654536652362
 40
0.5010654536652362
 40
0.7265375936707863
 40
0.7265375936707863
 40
0.7265375936707863
 40
0.7265375936707863
 40
0.7265375936707863
 40
0.7265375936707863
 40
0.7265375936707863
 40
0.8418352738177399
 40
0.8418352738177399
 40
0.8418352738177399
 40
0.8418352738177399
 40
0.8418352738177399
 40
0.8418352738177399
 40
0.8418352738177399
 40
0.9009615945489032
 40
0.9009615945489032
 40
0.9009615945489032
 40
0.9009615945489032
 40
0.9009615945489032
 40
0.9009615945489032
 40
0.9009615945489032
 40
0.9245952576197163
 40
0.9245952576197163
 40
0.9245952576197163
 40
0.9245952576197163
 40
0.9245952576197163
 40
0.9245952576197163
 40
0.9245952576197163
 40
0.9500795878591609
 40
0.9500795878591609
 40
0.9500795878591609
 40
0.9500795878591609
 40
0.9500795878591609
 40
0.9500795878591609
 40
0.9500795878591609
 40
0.971081582515082
 40
0.971081582515082
 40
0.971081582515082
 40
0.971081582515082
 40
0.971081582515082
 40
0.971081582515082
 40
0.971081582515082
 40
1.0
 40
1.0
 40
1.0
 40
1.0
 40
1.0
 40
1.0
 40
1.0
 40
1.0
 40
1.0
 10
1836.9
 20
54.257032175334224
 30
130.0
 10
1837.722678730688
 20
54.41555802208581
 30
130.0
 10
1838.5452486539916
 20
54.57453948120991
 30
130.0
 10
1839.3677099151062
 20
54.73397867003754
 30
130.0
 10
1840.1900587577109
 20
54.89387695368426
 30
130.0
 10
1841.012288026218
 20
55.054235106823434
 30
130.0
 10
1841.8343845313193
 20
55.21505268443381
 30
130.0
 10
1842.656330674232
 20
55.376328401476634
 30
130.0
 10
1843.8478749484887
 20
55.61083379868344
 30
130.0
 10
1844.2176155417744
 20
55.68370087387744
 30
130.0
 10
1844.5873148547632
 20
55.75665919545037
 30
130.0
 10
1844.9569695767302
 20
55.8297083013324
 30
130.0
 10
1845.3265722220347
 20
55.90284689873133
 30
130.0
 10
1845.6961114395192
 20
55.976072920242835
 30
130.0
 10
1846.0655706215302
 20
56.0493832371784
 30
130.0
 10
1846.6237930100106
 20
56.1603006759473
 30
130.0
 10
1846.812631924214
 20
56.19784874669082
 30
130.0
 10
1847.001437443977
 20
56.23541643218784
 30
130.0
 10
1847.1902054380416
 20
56.27300292723203
 30
130.0
 10
1847.3789265840178
 20
56.31060638845646
 30
130.0
 10
1847.56758674323
 20
56.34822400573086
 30
130.0
 10
1847.7561652090794
 20
56.38585164583493
 30
130.0
 10
1848.041272292882
 20
56.442779713927564
 30
130.0
 10
1848.1378818580813
 20
56.46207691427204
 30
130.0
 10
1848.2344543110155
 20
56.48137361817437
 30
130.0
 10
1848.3309844017538
 20
56.50066877268512
 30
130.0
 10
1848.4274604518826
 20
56.51996003691404
 30
130.0
 10
1848.5238647852113
 20
56.53924386601871
 30
130.0
 10
1848.620171552682
 20
56.55851507163278
 30
130.0
 10
1848.754775437063
 20
56.58545922815674
 30
130.0
 10
1848.7931898938625
 20
56.593149890327034
 30
130.0
 10
1848.8315779485572
 20
56.60083636389466
 30
130.0
 10
1848.8699356410243
 20
56.60851785358578
 30
130.0
 10
1848.9082573201204
 20
56.616193224930576
 30
130.0
 10
1848.9465353067794
 20
56.6238609363212
 30
130.0
 10
1848.984759150341
 20
56.63151888939293
 30
130.0
 10
1849.0640576123897
 20
56.64740818266747
 30
130.0
 10
1849.1050611423866
 20
56.65562545494783
 30
130.0
 10
1849.145967666586
 20
56.663824536280295
 30
130.0
 10
1849.1867668148993
 20
56.67200333860275
 30
130.0
 10
1849.2274312745378
 20
56.6801563827807
 30
130.0
 10
1849.2678341439666
 20
56.68825820336596
 30
130.0
 10
1849.3078465586595
 20
56.69628293115759
 30
130.0
 10
1849.3794314935114
 20
56.710641770580075
 30
130.0
 10
1849.4070409684446
 20
56.71618058619507
 30
130.0
 10
1849.4303261823911
 20
56.720852405257254
 30
130.0
 10
1849.4496931279843
 20
56.72473839754613
 30
130.0
 10
1849.46554643457
 20
56.727919562004494
 30
130.0
 10
1849.4782895385017
 20
56.7304767348448
 30
130.0
 10
1849.4883248534375
 20
56.73249059765585
 30
130.0
 10
1849.5066964045543
 20
56.73617743531968
 30
130.0
 10
1849.507435146293
 20
56.73630638077056
 30
130.0
 10
1849.5114463799237
 20
56.73721008741805
 30
130.0
 10
1849.5144068273955
 20
56.737574030411025
 30
130.0
 10
1849.5172108682978
 20
56.738453434531564
 30
130.0
 10
1849.5151512809048
 20
56.73776620380942
 30
130.0
 10
1849.5159493108386
 20
56.73807033435937
 30
130.0
 10
1849.5157953147377
 20
56.73800354909288
 30
130.0
  0
LINE
  5
30
330
17
100
AcDbEntity
  8
0
100
AcDbLine
 10
1836.9
 20
66.91626502051422
 30
130.0
 11
1836.9
 21
54.25703217533388
 31
130.0
  0
SPLINE
  5
31
330
17
100
AcDbEntity
  8
0
100
AcDbSpline
 70
0
 71
4
 72
10
 73
5
 74
0
 40
0.0
 40
0.0
 40
0.0
 40
0.0
 40
0.0
 40
1.0
 40
1.0
 40
1.0
 40
1.0
 40
1.0
 10
1833.099999408819
 20
66.25218425230457
 30
130.0
 10
1834.0501376824882
 20
66.41730807931528
 30
130.0
 10
1835.0001843415012
 20
66.58302849264916
 30
130.0
 10
1835.9501388307208
 20
66.74934700472413
 30
130.0
 10
1836.9000005911132
 20
66.91626512389689
 30
130.0
  0
LINE
  5
32
330
17
100
AcDbEntity
  8
0
100
AcDbLine
 10
1833.1
 20
66.25218435640662
 30
130.0
 11
1833.1
 21
53.52921634454243
 31
130.0
  0
SPLINE
  5
33
330
17
100
AcDbEntity
  8
0
100
AcDbSpline
 70
0
 71
6
 72
29
 73
22
 74
0
 40
0.0
 40
0.0
 40
0.0
 40
0.0
 40
0.0
 40
0.0
 40
0.0
 40
0.24539014531859543
 40
0.24539014531859543
 40
0.24539014531859543
 40
0.24539014531859543
 40
0.24539014531859543
 40
0.4935957696320213
 40
0.4935957696320213
 40
0.4935957696320213
 40
0.4935957696320213
 40
0.4935957696320213
 40
0.7455732629245821
 40
0.7455732629245821
 40
0.7455732629245821
 40
0.7455732629245821
 40
0.7455732629245821
 40
1.0
 40
1.0
 40
1.0
 40
1.0
 40
1.0
 40
1.0
 40
1.0
 10
1833.1
 20
53.529216344542974
 30
130.0
 10
1832.1931765321463
 20
53.35658198534208
 30
130.0
 10
1831.2862321285172
 20
53.18452267872962
 30
130.0
 10
1830.3791699167953
 20
53.013035845829926
 30
130.0
 10
1829.471992442624
 20
52.8421188450343
 30
130.0
 10
1828.5647017914814
 20
52.67176900153702
 30
130.0
 10
1826.7394865697424
 20
52.33025024317149
 30
130.0
 10
1825.8215594858975
 20
52.15909436595492
 30
130.0
 10
1824.9035203148458
 20
51.988513239728775
 30
130.0
 10
1823.9853707092855
 20
51.81850411787144
 30
130.0
 10
1823.0671121513835
 20
51.64906427732819
 30
130.0
 10
1821.2164238227417
 20
51.30875147857394
 30
130.0
 10
1820.2839907771827
 20
51.13789588046001
 30
130.0
 10
1819.3514482539
 20
50.96762138517472
 30
130.0
 10
1818.4187975847924
 20
50.79792523968943
 30
130.0
 10
1817.4860400847265
 20
50.628804794179054
 30
130.0
 10
1815.6112462029168
 20
50.29007161655474
 30
130.0
 10
1814.669207769469
 20
50.12047008266405
 30
130.0
 10
1813.7270628071894
 20
49.95145000633473
 30
130.0
 10
1812.7848124685524
 20
49.78300867809465
 30
130.0
 10
1811.8424578516117
 20
49.61514342446249
 30
130.0
 10
1810.9000000000021
 20
49.4478516079478
 30
130.0
  0
LINE
  5
34
330
17
100
AcDbEntity
  8
0
100
AcDbLine
 10
1810.9
 20
62.51796798429814
 30
130.0
 11
1810.9
 21
49.44785160796107
 31
130.0
  0
SPLINE
  5
35
330
17
100
AcDbEntity
  8
0
100
AcDbSpline
 70
0
 71
4
 72
10
 73
5
 74
0
 40
0.0
 40
0.0
 40
0.0
 40
0.0
 40
0.0
 40
1.0
 40
1.0
 40
1.0
 40
1.0
 40
1.0
 10
1807.0999994077938
 20
61.90326916125839
 30
130.0
 10
1808.0501260702576
 20
62.05608198926453
 30
130.0
 10
1809.0001688389648
 20
62.20946840290653
 30
130.0
 10
1809.9501271891152
 20
62.363429926005544
 30
130.0
 10
1810.900000592071
 20
62.51796807884481
 30
130.0
  0
LINE
  5
36
330
17
100
AcDbEntity
  8
0
100
AcDbLine
 10
1807.1
 20
61.90326925700781
 30
130.0
 11
1807.1
 21
48.77731934702258
 31
130.0
  0
SPLINE
  5
37
330
17
100
AcDbEntity
  8
0
100
AcDbSpline
 70
0
 71
4
 72
19
 73
14
 74
0
 40
0.0
 40
0.0
 40
0.0
 40
0.0
 40
0.0
 40
0.24506159247495643
 40
0.24506159247495643
 40
0.24506159247495643
 40
0.4934379991361084
 40
0.4934379991361084
 40
0.4934379991361084
 40
0.7451212159404733
 40
0.7451212159404733
 40
0.7451212159404733
 40
1.0
 40
1.0
 40
1.0
 40
1.0
 40
1.0
 10
1807.1000000000072
 20
48.77731934698107
 30
130.0
 10
1805.7412608467466
 20
48.538982055289544
 30
130.0
 10
1804.3822897598254
 20
48.30195205214835
 30
130.0
 10
1803.023091072319
 20
48.06621805859721
 30
130.0
 10
1800.2858583349393
 20
47.5941492137641
 30
130.0
 10
1798.9078181978641
 20
47.357849369292566
 30
130.0
 10
1797.5295525395188
 20
47.12285849786716
 30
130.0
 10
1794.754225183102
 20
46.65236194693013
 30
130.0
 10
1793.3571575464193
 20
46.416891065699055
 30
130.0
 10
1791.9598663849347
 20
46.18274208258721
 30
130.0
 10
1789.1471007294545
 20
45.71411033850136
 30
130.0
 10
1787.7316206229161
 20
45.47966107959905
 30
130.0
 10
1786.3159191331986
 20
45.246545550396874
 30
130.0
 10
1784.900000000022
 20
45.01475316396486
 30
130.0
  0
LINE
  5
38
330
17
100
AcDbEntity
  8
0
100
AcDbLine
 10
1784.9
 20
58.45147903317143
 30
130.0
 11
1784.9
 21
45.014753164099446
 31
130.0
  0
SPLINE
  5
39
330
17
100
AcDbEntity
  8
0
100
AcDbSpline
 70
0
 71
4
 72
10
 73
5
 74
0
 40
0.0
 40
0.0
 40
0.0
 40
0.0
 40
0.0
 40
1.0
 40
1.0
 40
1.0
 40
1.0
 40
1.0
 10
1781.0999994068807
 20
57.88409162530388
 30
130.0
 10
1782.0501151536225
 20
58.02511089300953
 30
130.0
 10
1783.0001542644795
 20
58.1666808767859
 30
130.0
 10
1783.9501162440206
 20
58.30880310934892
 30
130.0
 10
1784.900000593056
 20
58.451479120355266
 30
130.0
  0
LINE
  5
3A
330
17
100
AcDbEntity
  8
0
100
AcDbLine
 10
1781.1
 20
57.88409171490052
 30
130.0
 11
1781.1
 21
44.396331506389465
 31
130.0
  0
SPLINE
  5
3B
330
17
100
AcDbEntity
  8
0
100
AcDbSpline
 70
0
 71
4
 72
19
 73
14
 74
0
 40
0.0
 40
0.0
 40
0.0
 40
0.0
 40
0.0
 40
0.24560152324599147
 40
0.24560152324599147
 40
0.24560152324599147
 40
0.4941511572400992
 40
0.4941511572400992
 40
0.4941511572400992
 40
0.7456396889768881
 40
0.7456396889768881
 40
0.7456396889768881
 40
1.0
 40
1.0
 40
1.0
 40
1.0
 40
1.0
 10
1781.1000000000013
 20
44.396331506389245
 30
130.0
 10
1779.7380622114213
 20
44.175991311971536
 30
130.0
 10
1778.3759277355248
 20
43.95686165163676
 30
130.0
 10
1777.0135997694213
 20
43.73893346612166
 30
130.0
 10
1774.2722077928127
 20
43.30286095676654
 30
130.0
 10
1772.8931391825843
 20
43.084745444147124
 30
130.0
 10
1771.5138786976433
 20
42.86784244887279
 30
130.0
 10
1768.7386691391166
 20
42.43389371537261
 30
130.0
 10
1767.342715573455
 20
42.21687661402159
 30
130.0
 10
1765.9465717793732
 20
42.00108304571558
 30
130.0
 10
1763.137964820367
 20
41.5694754796863
 30
130.0
 10
1761.725497356122
 20
41.35368937939503
 30
130.0
 10
1760.312841429791
 20
41.13913724673139
 30
130.0
 10
1758.8999999999967
 20
40.925810499411874
 30
130.0
  0
LINE
  5
3C
330
17
100
AcDbEntity
  8
0
100
AcDbLine
 10
1758.9
 20
54.70273522206125
 30
130.0
 11
1758.9
 21
40.92581049938849
 31
130.0
  0
SPLINE
  5
3D
330
17
100
AcDbEntity
  8
0
100
AcDbSpline
 70
0
 71
4
 72
10
 73
5
 74
0
 40
0.0
 40
0.0
 40
0.0
 40
0.0
 40
0.0
 40
1.0
 40
1.0
 40
1.0
 40
1.0
 40
1.0
 10
1755.099999405988
 20
54.1806238427478
 30
130.0
 10
1756.050104900456
 20
54.31035819304538
 30
130.0
 10
1757.0001405752657
 20
54.44062052750899
 30
130.0
 10
1757.9501059633296
 20
54.571412385516744
 30
130.0
 10
1758.9000005938883
 20
54.70273530382251
 30
130.0
  0
LINE
  5
3E
330
17
100
AcDbEntity
  8
0
100
AcDbLine
 10
1755.1
 20
54.18062392635757
 30
130.0
 11
1755.1
 21
40.35543211709954
 31
130.0
  0
SPLINE
  5
3F
330
17
100
AcDbEntity
  8
0
100
AcDbSpline
 70
0
 71
4
 72
19
 73
14
 74
0
 40
0.0
 40
0.0
 40
0.0
 40
0.0
 40
0.0
 40
0.24603841529876036
 40
0.24603841529876036
 40
0.24603841529876036
 40
0.49473333398667185
 40
0.49473333398667185
 40
0.49473333398667185
 40
0.7460732309250571
 40
0.7460732309250571
 40
0.7460732309250571
 40
1.0
 40
1.0
 40
1.0
 40
1.0
 40
1.0
 10
1755.1000000000013
 20
40.35543211708788
 30
130.0
 10
1753.7354779758768
 20
40.15183052061945
 30
130.0
 10
1752.3707866592372
 20
39.949360767958126
 30
130.0
 10
1751.0059286236747
 20
39.74801542934626
 30
130.0
 10
1748.2611457865605
 20
39.34539724453357
 30
130.0
 10
1746.8812174184015
 20
39.14414866006696
 30
130.0
 10
1745.5011238061477
 20
38.944034094863014
 30
130.0
 10
1742.7259313855582
 20
38.54394237182745
 30
130.0
 10
1741.3308290965151
 20
38.343989310274104
 30
130.0
 10
1739.9355630791451
 20
38.14517982275191
 30
130.0
 10
1737.13034627536
 20
37.74779924939256
 30
130.0
 10
1735.7203921530854
 20
37.54925166872057
 30
130.0
 10
1734.3102759185444
 20
37.35185674882798
 30
130.0
 10
1732.899999999991
 20
37.15560736276474
 30
130.0
  0
LINE
  5
40
330
17
100
AcDbEntity
  8
0
100
AcDbLine
 10
1732.9
 20
51.25790789961838
 30
130.0
 11
1732.9
 21
37.15560736270216
 31
130.0
  0
SPLINE
  5
41
330
17
100
AcDbEntity
  8
0
100
AcDbSpline
 70
0
 71
4
 72
10
 73
5
 74
0
 40
0.0
 40
0.0
 40
0.0
 40
0.0
 40
0.0
 40
1.0
 40
1.0
 40
1.0
 40
1.0
 40
1.0
 10
1729.099999405146
 20
50.77907020894261
 30
130.0
 10
1730.050095279298
 20
50.89802001492713
 30
130.0
 10
1731.0001277295694
 20
51.01747521561645
 30
130.0
 10
1731.9500963161356
 20
51.13743735507953
 30
130.0
 10
1732.9000005956054
 20
51.2579079751554
 30
130.0
  0
LINE
  5
42
330
17
100
AcDbEntity
  8
0
100
AcDbLine
 10
1729.1
 20
50.77907028341698
 30
130.0
 11
1729.1
 21
36.62998154223134
 31
130.0
  0
SPLINE
  5
43
330
17
100
AcDbEntity
  8
0
100
AcDbSpline
 70
0
 71
4
 72
19
 73
14
 74
0
 40
0.0
 40
0.0
 40
0.0
 40
0.0
 40
0.0
 40
0.24638255162387207
 40
0.24638255162387207
 40
0.24638255162387207
 40
0.4951992356875044
 40
0.4951992356875044
 40
0.4951992356875044
 40
0.7464212141026235
 40
0.7464212141026235
 40
0.7464212141026235
 40
1.0
 40
1.0
 40
1.0
 40
1.0
 40
1.0
 10
1729.0999999999965
 20
36.62998154225514
 30
130.0
 10
1727.7334367579465
 20
36.44209142181996
 30
130.0
 10
1726.3667266690288
 20
36.25526759790354
 30
130.0
 10
1724.9998718716256
 20
36.06950384800431
 30
130.0
 10
1722.2523717820418
 20
35.69825946156712
 30
130.0
 10
1720.8717236565735
 20
35.51279976127238
 30
130.0
 10
1719.4909321975329
 20
35.32840872642687
 30
130.0
 10
1716.7157173445305
 20
34.95997968821888
 30
130.0
 10
1715.3212912061645
 20
34.77596232847632
 30
130.0
 10
1713.926723167335
 20
34.593022025071825
 30
130.0
 10
1711.1242231044
 20
34.227577326912325
 30
130.0
 10
1709.716288445137
 20
34.04509311271928
 30
130.0
 10
1708.308213396706
 20
33.86369398243212
 30
130.0
 10
1706.8999999999999
 20
33.68337389605329
 30
130.0
  0
LINE
  5
44
330
17
100
AcDbEntity
  8
0
100
AcDbLine
 10
1706.9
 20
48.10338864413637
 30
130.0
 11
1706.9
 21
33.68337389604869
 31
130.0
  0
SPLINE
  5
45
330
17
100
AcDbEntity
  8
0
100
AcDbSpline
 70
0
 71
4
 72
10
 73
5
 74
0
 40
0.0
 40
0.0
 40
0.0
 40
0.0
 40
0.0
 40
1.0
 40
1.0
 40
1.0
 40
1.0
 40
1.0
 10
1703.0999994043543
 20
47.66585331020275
 30
130.0
 10
1704.0500862580877
 20
47.77451118091602
 30
130.0
 10
1705.0001156842234
 20
47.883652002441075
 30
130.0
 10
1705.9500872690805
 20
47.99327732181424
 30
130.0
 10
1706.9000005955331
 20
48.10338868419734
 30
130.0
  0
LINE
  5
46
330
17
100
AcDbEntity
  8
0
100
AcDbLine
 10
1703.1
 20
47.665853404986024
 30
130.0
 11
1703.1
 21
33.19977505631425
 31
130.0
  0
SPLINE
  5
47
330
17
100
AcDbEntity
  8
0
100
AcDbSpline
 70
0
 71
4
 72
19
 73
14
 74
0
 40
0.0
 40
0.0
 40
0.0
 40
0.0
 40
0.0
 40
0.2466755411536003
 40
0.2466755411536003
 40
0.2466755411536003
 40
0.4955869564580008
 40
0.4955869564580008
 40
0.4955869564580008
 40
0.7467044333679189
 40
0.7467044333679189
 40
0.7467044333679189
 40
1.0
 40
1.0
 40
1.0
 40
1.0
 40
1.0
 10
1703.100000000002
 20
33.19977505629682
 30
130.0
 10
1701.7317001351764
 20
33.02671383377909
 30
130.0
 10
1700.363272265755
 20
32.854663419859186
 30
130.0
 10
1698.9947182065189
 20
32.683618509501805
 30
130.0
 10
1696.2449555076316
 20
32.341987930852824
 30
130.0
 10
1694.863744601107
 20
32.171420486423514
 30
130.0
 10
1693.4824088212936
 20
32.00186618864442
 30
130.0
 10
1690.7072473818168
 20
31.66327972390488
 30
130.0
 10
1689.313419530289
 20
31.49426550270959
 30
130.0
 10
1687.919468174185
 20
31.32627187129955
 30
130.0
 10
1685.1192303322828
 20
30.990867163578432
 30
130.0
 10
1683.7129417263106
 20
30.823473768481726
 30
130.0
 10
1682.3065310333743
 20
30.65710822546011
 30
130.0
 10
1680.8999999999796
 20
30.491765329060517
 30
130.0
  0
LINE
  5
48
330
17
100
AcDbEntity
  8
0
100
AcDbLine
 10
1680.9
 20
45.22577556575234
 30
130.0
 11
1680.9
 21
30.491765328882508
 31
130.0
  0
SPLINE
  5
49
330
17
100
AcDbEntity
  8
0
100
AcDbSpline
 70
0
 71
4
 72
10
 73
5
 74
0
 40
0.0
 40
0.0
 40
0.0
 40
0.0
 40
0.0
 40
1.0
 40
1.0
 40
1.0
 40
1.0
 40
1.0
 10
1677.0999994035997
 20
44.82760044046215
 30
130.0
 10
1678.0500778064832
 20
44.92645170830696
 30
130.0
 10
1679.0001043992356
 20
45.02576363020712
 30
130.0
 10
1679.9500787931709
 20
45.12553775467741
 30
130.0
 10
1680.9000005962826
 20
45.22577562867342
 30
130.0
  0
LINE
  5
4A
330
17
100
AcDbEntity
  8
0
100
AcDbLine
 10
1677.1
 20
44.827600502514855
 30
130.0
 11
1677.1
 21
30.047892297350625
 31
130.0
  0
SPLINE
  5
4B
330
17
100
AcDbEntity
  8
0
100
AcDbSpline
 70
0
 71
5
 72
24
 73
18
 74
0
 40
0.0
 40
0.0
 40
0.0
 40
0.0
 40
0.0
 40
0.0
 40
0.2469996465328998
 40
0.2469996465328998
 40
0.2469996465328998
 40
0.2469996465328998
 40
0.4960354896981837
 40
0.4960354896981837
 40
0.4960354896981837
 40
0.4960354896981837
 40
0.7470571952778718
 40
0.7470571952778718
 40
0.7470571952778718
 40
0.7470571952778718
 40
1.0
 40
1.0
 40
1.0
 40
1.0
 40
1.0
 40
1.0
 10
1677.09999999998
 20
30.04789229751947
 30
130.0
 10
1676.003837566152
 20
29.920665601139014
 30
130.0
 10
1674.9076079322258
 20
29.79401728153357
 30
130.0
 10
1673.8113118730819
 20
29.667944258665305
 30
130.0
 10
1672.7149495813896
 20
29.542448423223636
 30
130.0
 10
1670.5130566778237
 20
29.291563905283265
 30
130.0
 10
1669.4075249470975
 20
29.166185035458646
 30
130.0
 10
1668.301928347112
 20
29.041378527534743
 30
130.0
 10
1667.1962679278906
 20
28.91713860397177
 30
130.0
 10
1664.9760042114226
 20
28.668794495201166
 30
130.0
 10
1663.8613999089655
 20
28.54469929107942
 30
130.0
 10
1662.7467328286493
 20
28.421168327880526
 30
130.0
 10
1661.632003969528
 20
28.298196049521458
 30
130.0
 10
1659.3938930001
 20
28.05242121071413
 30
129.99999999999997
 10
1658.2705099563352
 20
27.929627144566304
 30
130.0
 10
1657.1470661462236
 20
27.807389384124566
 30
130.0
 10
1656.0235625210403
 20
27.685702582882683
 30
130.0
 10
1654.9000000000083
 20
27.56456153891161
 30
130.0
  0
LINE
  5
4C
330
17
100
AcDbEntity
  8
0
100
AcDbLine
 10
1654.9
 20
42.611860658340966
 30
130.0
 11
1654.9
 21
27.564561538990343
 31
130.0
  0
SPLINE
  5
4D
330
17
100
AcDbEntity
  8
0
100
AcDbSpline
 70
0
 71
4
 72
10
 73
5
 74
0
 40
0.0
 40
0.0
 40
0.0
 40
0.0
 40
0.0
 40
1.0
 40
1.0
 40
1.0
 40
1.0
 40
1.0
 10
1651.0999994027811
 20
42.251130600852306
 30
130.0
 10
1652.0500698937608
 20
42.34065379154886
 30
130.0
 10
1653.0000938336123
 20
42.43061548678661
 30
130.0
 10
1653.950070857474
 20
42.52101723528808
 30
130.0
 10
1654.9000005972996
 20
42.611860584497734
 30
130.0
  0
LINE
  5
4E
330
17
100
AcDbEntity
  8
0
100
AcDbLine
 10
1651.1
 20
42.25113148022125
 30
130.0
 11
1651.1
 21
27.157360232249243
 31
130.0
  0
SPLINE
  5
4F
330
17
100
AcDbEntity
  8
0
100
AcDbSpline
 70
0
 71
4
 72
19
 73
14
 74
0
 40
0.0
 40
0.0
 40
0.0
 40
0.0
 40
0.0
 40
0.24745943153801053
 40
0.24745943153801053
 40
0.24745943153801053
 40
0.496646603291548
 40
0.496646603291548
 40
0.496646603291548
 40
0.7475145956470753
 40
0.7475145956470753
 40
0.7475145956470753
 40
1.0
 40
1.0
 40
1.0
 40
1.0
 40
1.0
 10
1651.1000000000147
 20
27.15736023211036
 30
130.0
 10
1649.727119827343
 20
27.011145631711543
 30
130.0
 10
1648.354148779561
 20
26.865783552483077
 30
130.0
 10
1646.9810888902532
 20
26.721262458133417
 30
130.0
 10
1644.2252080599853
 20
26.432877049675046
 30
130.0
 10
1642.8423859002871
 20
26.28902437386536
 30
130.0
 10
1641.459477539229
 20
26.14600217811221
 30
130.0
 10
1638.6841634776688
 20
25.860638486753068
 30
130.0
 10
1637.2917566354738
 20
25.718308088309655
 30
130.0
 10
1635.899266131617
 20
25.576797976681675
 30
130.0
 10
1633.1051430023301
 20
25.294490894074055
 30
130.0
 10
1631.7035093183827
 20
25.15370439262661
 30
130.0
 10
1630.3017944275646
 20
25.013728184380177
 30
130.0
 10
1628.9000000000262
 20
24.87455243385604
 30
130.0
  0
LINE
  5
50
330
17
100
AcDbEntity
  8
0
100
AcDbLine
 10
1628.9
 20
40.248616411951815
 30
130.0
 11
1628.9
 21
24.874552434121764
 31
130.0
  0
SPLINE
  5
51
330
17
100
AcDbEntity
  8
0
100
AcDbSpline
 70
0
 71
4
 72
10
 73
5
 74
0
 40
0.0
 40
0.0
 40
0.0
 40
0.0
 40
0.0
 40
1.0
 40
1.0
 40
1.0
 40
1.0
 40
1.0
 10
1625.0999994022777
 20
39.92344194453569
 30
130.0
 10
1626.0500624560673
 20
40.004109229437745
 30
130.0
 10
1627.0000839577249
 20
40.08519301985147
 30
130.0
 10
1627.9500634286183
 20
40.1666948558138
 30
130.0
 10
1628.9000005978312
 20
40.248616288429005
 30
130.0
  0
LINE
  5
52
330
17
100
AcDbEntity
  8
0
100
AcDbLine
 10
1625.1
 20
39.923442150485776
 30
130.0
 11
1625.1
 21
24.499488421881118
 31
130.0
  0
SPLINE
  5
53
330
17
100
AcDbEntity
  8
0
100
AcDbSpline
 70
0
 71
4
 72
19
 73
14
 74
0
 40
0.0
 40
0.0
 40
0.0
 40
0.0
 40
0.0
 40
0.24784095695977537
 40
0.24784095695977537
 40
0.24784095695977537
 40
0.4971570003217774
 40
0.4971570003217774
 40
0.4971570003217774
 40
0.7479004211350477
 40
0.7479004211350477
 40
0.7479004211350477
 40
1.0
 40
1.0
 40
1.0
 40
1.0
 40
1.0
 10
1625.1000000000256
 20
24.499488421623766
 30
130.0
 10
1623.72490986499
 20
24.364562681229195
 30
130.0
 10
1622.34974533823
 20
24.23039450337855
 30
130.0
 10
1620.9745079186025
 20
24.09697506633154
 30
130.0
 10
1618.2157046435848
 20
23.830827111772482
 30
130.0
 10
1616.8321379342067
 20
23.69810744044871
 30
130.0
 10
1615.4485003386421
 20
23.566128352301423
 30
130.0
 10
1612.6731641266053
 20
23.30288371829647
 30
130.0
 10
1611.2814647120024
 20
23.171626582575016
 30
130.0
 10
1609.8896963505538
 20
23.041102085438425
 30
130.0
 10
1607.0984965228763
 20
22.780800710778955
 30
130.0
 10
1605.6990643238935
 20
22.651031685429096
 30
130.0
 10
1604.299565065512
 20
22.52198742963162
 30
130.0
 10
1602.8999999999623
 20
22.3936603584118
 30
130.0
  0
LINE
  5
54
330
17
100
AcDbEntity
  8
0
100
AcDbLine
 10
1602.9
 20
38.12318340416883
 30
130.0
 11
1602.9
 21
22.393660358003938
 31
130.0
  0
SPLINE
  5
55
330
17
100
AcDbEntity
  8
0
100
AcDbSpline
 70
0
 71
4
 72
10
 73
5
 74
0
 40
0.0
 40
0.0
 40
0.0
 40
0.0
 40
0.0
 40
1.0
 40
1.0
 40
1.0
 40
1.0
 40
1.0
 10
1599.0999994012411
 20
37.831696521933424
 30
130.0
 10
1600.0500511557775
 20
37.90397396481631
 30
130.0
 10
1601.0000689661672
 20
37.9766463029638
 30
130.0
 10
1601.950052294088
 20
38.04971506264098
 30
130.0
 10
1602.9000005982014
 20
38.123181770301834
 30
130.0
  0
LINE
  5
56
330
17
100
AcDbEntity
  8
0
100
AcDbLine
 10
1599.1
 20
37.83169821905051
 30
130.0
 11
1599.1
 21
22.04722553681658
 31
130.0
  0
SPLINE
  5
57
330
17
100
AcDbEntity
  8
0
100
AcDbSpline
 70
0
 71
4
 72
19
 73
14
 74
0
 40
0.0
 40
0.0
 40
0.0
 40
0.0
 40
0.0
 40
0.24815267130104599
 40
0.24815267130104599
 40
0.24815267130104599
 40
0.4975793489540226
 40
0.4975793489540226
 40
0.4975793489540226
 40
0.7482177820329227
 40
0.7482177820329227
 40
0.7482177820329227
 40
1.0
 40
1.0
 40
1.0
 40
1.0
 40
1.0
 10
1599.0999999999567
 20
22.047225537297862
 30
130.0
 10
1597.7231103312959
 20
21.922416054070958
 30
130.0
 10
1596.3461585905934
 20
21.79829085569254
 30
130.0
 10
1594.9691459145672
 20
21.674843084719615
 30
130.0
 10
1592.2079310212323
 20
21.42865886713973
 30
130.0
 10
1590.8237281871268
 20
21.30592933402339
 30
130.0
 10
1589.4394659814595
 20
21.183870877054993
 30
130.0
 10
1586.6640996492386
 20
20.94049370444628
 30
130.0
 10
1585.2729949547065
 20
20.819181462732036
 30
130.0
 10
1583.881832412765
 20
20.69853401773177
 30
130.0
 10
1581.093044820894
 20
20.458008952391392
 30
130.0
 10
1579.6954192517037
 20
20.33813734882691
 30
130.0
 10
1578.297737323404
 20
20.218924307449974
 30
130.0
 10
1576.8999999999555
 20
20.100363898585968
 30
130.0
  0
LINE
  5
58
330
17
100
AcDbEntity
  8
0
100
AcDbLine
 10
1576.9
 20
36.22287234724196
 30
130.0
 11
1576.9
 21
20.100363898059825
 31
130.0
  0
SPLINE
  5
59
330
17
100
AcDbEntity
  8
0
100
AcDbSpline
 70
0
 71
4
 72
10
 73
5
 74
0
 40
0.0
 40
0.0
 40
0.0
 40
0.0
 40
0.0
 40
1.0
 40
1.0
 40
1.0
 40
1.0
 40
1.0
 10
1573.0999993983185
 20
35.96323971302668
 30
130.0
 10
1574.0500402419302
 20
36.02758565090209
 30
130.0
 10
1575.0000544018328
 20
36.092305148106504
 30
130.0
 10
1575.9500413607602
 20
36.157399722653565
 30
130.0
 10
1576.9000005986456
 20
36.22287089278565
 30
130.0
  0
LINE
  5
5A
330
17
100
AcDbEntity
  8
0
100
AcDbLine
 10
1573.1
 20
35.963241157843754
 30
130.0
 11
1573.1
 21
19.779850598479708
 31
130.0
  0
SPLINE
  5
5B
330
17
100
AcDbEntity
  8
0
100
AcDbSpline
 70
0
 71
4
 72
19
 73
14
 74
0
 40
0.0
 40
0.0
 40
0.0
 40
0.0
 40
0.0
 40
0.24843568485911785
 40
0.24843568485911785
 40
0.24843568485911785
 40
0.49795346808748486
 40
0.49795346808748486
 40
0.49795346808748486
 40
0.7484956530932707
 40
0.7484956530932707
 40
0.7484956530932707
 40
1.0
 40
1.0
 40
1.0
 40
1.0
 40
1.0
 10
1573.0999999999433
 20
19.77985059916188
 30
130.0
 10
1571.7214860186782
 20
19.664234512746074
 30
130.0
 10
1570.3429194110035
 20
19.549245492659395
 30
130.0
 10
1568.9643010604111
 20
19.434878149170743
 30
130.0
 10
1566.2009575697832
 20
19.20688093561271
 30
130.0
 10
1564.8162319847816
 20
19.093256455113437
 30
130.0
 10
1563.4314559141721
 20
18.980248585614724
 30
130.0
 10
1560.6561189901452
 20
18.7549946468087
 30
130.0
 10
1559.2655577281503
 20
18.642753609432106
 30
130.0
 10
1557.874947208723
 20
18.531124177147504
 30
130.0
 10
1555.0882886483055
 20
18.308652555553245
 30
130.0
 10
1553.6922402349526
 20
18.197815027499377
 30
130.0
 10
1552.296143765844
 20
18.087584138469612
 30
130.0
 10
1550.8999999999853
 20
17.97795521668822
 30
130.0
  0
LINE
  5
5C
330
17
100
AcDbEntity
  8
0
100
AcDbLine
 10
1550.9
 20
34.535231873782465
 30
130.0
 11
1550.9
 21
17.977955216503965
 31
130.0
  0
SPLINE
  5
5D
330
17
100
AcDbEntity
  8
0
100
AcDbSpline
 70
0
 71
4
 72
10
 73
5
 74
0
 40
0.0
 40
0.0
 40
0.0
 40
0.0
 40
0.0
 40
1.0
 40
1.0
 40
1.0
 40
1.0
 40
1.0
 10
1547.0999994009849
 20
34.305654053093875
 30
130.0
 10
1548.0500297729614
 20
34.362518213480826
 30
130.0
 10
1549.0000404290213
 20
34.41973484486955
 30
130.0
 10
1549.9500308712065
 20
34.47730545777644
 30
130.0
 10
1550.9000005989644
 20
34.535231562959936
 30
130.0
  0
LINE
  5
5E
330
17
100
AcDbEntity
  8
0
100
AcDbLine
 10
1547.1
 20
34.30565426453622
 30
130.0
 11
1547.1
 21
17.681245852698932
 31
130.0
  0
SPLINE
  5
5F
330
17
100
AcDbEntity
  8
0
100
AcDbSpline
 70
0
 71
4
 72
13
 73
8
 74
0
 40
0.0
 40
0.0
 40
0.0
 40
0.0
 40
0.0
 40
0.4123253933960875
 40
0.4123253933960875
 40
0.4123253933960875
 40
1.0
 40
1.0
 40
1.0
 40
1.0
 40
1.0
 10
1547.1000000000026
 20
17.681245852659337
 30
130.0
 10
1544.812028158702
 20
17.503603785344783
 30
130.0
 10
1542.5239320290025
 20
17.32756156492229
 30
130.0
 10
1540.2357148181359
 20
17.153099640149296
 30
130.0
 10
1534.685886095694
 20
16.733771198284945
 30
130.0
 10
1531.4241527783956
 20
16.49051587691724
 30
130.0
 10
1528.1621881622775
 20
16.250381654316502
 30
130.0
 10
1524.9000000000005
 20
16.013321935649174
 30
130.0
  0
LINE
  5
60
330
17
100
AcDbEntity
  8
0
100
AcDbLine
 10
1524.9
 20
33.04803708750138
 30
130.0
 11
1524.9
 21
16.013321935651515
 31
130.0
  0
SPLINE
  5
61
330
17
100
AcDbEntity
  8
0
100
AcDbSpline
 70
0
 71
4
 72
10
 73
5
 74
0
 40
0.0
 40
0.0
 40
0.0
 40
0.0
 40
0.0
 40
1.0
 40
1.0
 40
1.0
 40
1.0
 40
1.0
 10
1521.0999994008246
 20
32.84674356673289
 30
130.0
 10
1522.05002013515
 20
32.896568087832826
 30
130.0
 10
1523.0000273220994
 20
32.94672416212145
 30
130.0
 10
1523.9500209290168
 20
32.99721333433459
 30
130.0
 10
1524.9000005991572
 20
33.04803711955621
 30
130.0
  0
LINE
  5
62
330
17
100
AcDbEntity
  8
0
100
AcDbLine
 10
1521.1
 20
32.84674359815708
 30
130.0
 11
1521.1
 21
15.738748042319973
 31
130.0
  0
SPLINE
  5
63
330
17
100
AcDbEntity
  8
0
100
AcDbSpline
 70
0
 71
4
 72
13
 73
8
 74
0
 40
0.0
 40
0.0
 40
0.0
 40
0.0
 40
0.0
 40
0.4985819602582117
 40
0.4985819602582117
 40
0.4985819602582117
 40
1.0
 40
1.0
 40
1.0
 40
1.0
 40
1.0
 10
1521.0999999999997
 20
15.738748042324307
 30
130.0
 10
1518.333326465707
 20
15.53997672831837
 30
130.0
 10
1515.5664953645596
 20
15.3433973952536
 30
130.0
 10
1512.7995112771612
 20
15.148982741840506
 30
130.0
 10
1507.2495053103664
 20
14.76333946743921
 30
130.0
 10
1504.4664817350263
 20
14.572135253439434
 30
130.0
 10
1501.6833119802009
 20
14.383070212802025
 30
130.0
 10
1498.8999999999808
 20
14.196121581433625
 30
130.0
  0
LINE
  5
64
330
17
100
AcDbEntity
  8
0
100
AcDbLine
 10
1498.9
 20
31.749241199452236
 30
130.0
 11
1498.9
 21
14.19612158115108
 31
130.0
  0
SPLINE
  5
65
330
17
100
AcDbEntity
  8
0
100
AcDbSpline
 70
0
 71
4
 72
10
 73
5
 74
0
 40
0.0
 40
0.0
 40
0.0
 40
0.0
 40
0.0
 40
1.0
 40
1.0
 40
1.0
 40
1.0
 40
1.0
 10
1495.0999994007025
 20
31.574477437883534
 30
130.0
 10
1496.050017270514
 20
31.617701225869297
 30
130.0
 10
1497.0000235140249
 20
31.661235374689692
 30
130.0
 10
1497.9500180010816
 20
31.70508142194397
 30
130.0
 10
1498.9000005992832
 20
31.749240904241745
 30
130.0
  0
LINE
  5
66
330
17
100
AcDbEntity
  8
0
100
AcDbLine
 10
1495.1
 20
31.574477761757308
 30
130.0
 11
1495.1
 21
13.942366767611977
 31
130.0
  0
SPLINE
  5
67
330
17
100
AcDbEntity
  8
0
100
AcDbSpline
 70
0
 71
4
 72
13
 73
8
 74
0
 40
0.0
 40
0.0
 40
0.0
 40
0.0
 40
0.0
 40
0.49885422496348664
 40
0.49885422496348664
 40
0.49885422496348664
 40
1.0
 40
1.0
 40
1.0
 40
1.0
 40
1.0
 10
1495.0999999999988
 20
13.942366767634914
 30
130.0
 10
1492.33175950939
 20
13.758587598592992
 30
130.0
 10
1489.5633809784294
 20
13.57688671473142
 30
130.0
 10
1486.794868179645
 20
13.397242709864637
 30
130.0
 10
1481.2448629346213
 20
13.041213889000257
 30
130.0
 10
1478.463369285112
 20
12.864847830505456
 30
130.0
 10
1475.6817472085604
 20
12.690518550719501
 30
130.0
 10
1472.90000000013
 20
12.518208487649963
 30
130.0
  0
LINE
  5
68
330
17
100
AcDbEntity
  8
0
100
AcDbLine
 10
1472.9
 20
30.6268432549559
 30
130.0
 11
1472.9
 21
12.518208489743905
 31
130.0
  0
SPLINE
  5
69
330
17
100
AcDbEntity
  8
0
100
AcDbSpline
 70
0
 71
4
 72
10
 73
5
 74
0
 40
0.0
 40
0.0
 40
0.0
 40
0.0
 40
0.0
 40
1.0
 40
1.0
 40
1.0
 40
1.0
 40
1.0
 10
1469.0999994005824
 20
30.476856085931573
 30
130.0
 10
1470.0500147316868
 20
30.513917480101895
 30
130.0
 10
1471.000020119002
 20
30.551268041192753
 30
130.0
 10
1471.950015447337
 20
30.588909308899865
 30
130.0
 10
1472.9000005993958
 20
30.62684282209466
 30
130.0
  0
LINE
  5
6A
330
17
100
AcDbEntity
  8
0
100
AcDbLine
 10
1469.1
 20
30.476856965414328
 30
130.0
 11
1469.1
 21
12.284240324239903
 31
130.0
  0
SPLINE
  5
6B
330
17
100
AcDbEntity
  8
0
100
AcDbSpline
 70
0
 71
4
 72
13
 73
8
 74
0
 40
0.0
 40
0.0
 40
0.0
 40
0.0
 40
0.0
 40
0.49911229371074817
 40
0.49911229371074817
 40
0.49911229371074817
 40
1.0
 40
1.0
 40
1.0
 40
1.0
 40
1.0
 10
1469.1000000001247
 20
12.284240322203457
 30
130.0
 10
1466.330280653601
 20
12.114736884839065
 30
130.0
 10
1463.56043946984
 20
11.947223450330615
 30
130.0
 10
1460.7904796101427
 20
11.78168354774436
 30
130.0
 10
1455.240474903881
 20
11.453939451944322
 30
130.0
 10
1452.4604292331617
 20
11.291749215618857
 30
130.0
 10
1449.6802700003211
 20
11.131516955839498
 30
130.0
 10
1446.9000000000083
 20
10.973229552034685
 30
130.0
  0
LINE
  5
6C
330
17
100
AcDbEntity
  8
0
100
AcDbLine
 10
1446.9
 20
29.668855506711296
 30
130.0
 11
1446.9
 21
10.973229552180346
 31
130.0
  0
SPLINE
  5
6D
330
17
100
AcDbEntity
  8
0
100
AcDbSpline
 70
0
 71
4
 72
10
 73
5
 74
0
 40
0.0
 40
0.0
 40
0.0
 40
0.0
 40
0.0
 40
1.0
 40
1.0
 40
1.0
 40
1.0
 40
1.0
 10
1443.0999994004799
 20
29.541895307513343
 30
130.0
 10
1444.0500124924188
 20
29.573231853883797
 30
130.0
 10
1445.0000171240754
 20
29.604836378351287
 30
130.0
 10
1445.9500131941795
 20
29.636710422020975
 30
130.0
 10
1446.9000005995108
 20
29.668855525318943
 30
130.0
  0
LINE
  5
6E
330
17
100
AcDbEntity
  8
0
100
AcDbLine
 10
1443.1
 20
29.541895329137958
 30
130.0
 11
1443.1
 21
10.758251246298864
 31
130.0
  0
SPLINE
  5
6F
330
17
100
AcDbEntity
  8
0
100
AcDbSpline
 70
0
 71
4
 72
13
 73
8
 74
0
 40
0.0
 40
0.0
 40
0.0
 40
0.0
 40
0.0
 40
0.49935040874789044
 40
0.49935040874789044
 40
0.49935040874789044
 40
1.0
 40
1.0
 40
1.0
 40
1.0
 40
1.0
 10
1443.1000000000092
 20
10.758251246133279
 30
130.0
 10
1440.3289196096323
 20
10.602475939753733
 30
130.0
 10
1437.5577310673868
 20
10.44862384773731
 30
130.0
 10
1434.786437068983
 20
10.296682754332926
 30
130.0
 10
1429.2364327734733
 20
9.996210790947998
 30
130.0
 10
1426.4577219405232
 20
9.847689819751269
 30
129.99999999999994
 10
1423.6789102113103
 20
9.701068373512776
 30
129.99999999999991
 10
1420.8999999999585
 20
9.556337240809821
 30
129.9999999999999
  0
LINE
  5
70
330
17
100
AcDbEntity
  8
0
100
AcDbLine
 10
1420.9
 20
28.863312574760553
 30
130.0
 11
1420.9
 21
9.55633724001435
 31
130.0
  0
SPLINE
  5
71
330
17
100
AcDbEntity
  8
0
100
AcDbSpline
 70
0
 71
4
 72
10
 73
5
 74
0
 40
0.0
 40
0.0
 40
0.0
 40
0.0
 40
0.0
 40
1.0
 40
1.0
 40
1.0
 40
1.0
 40
1.0
 10
1417.099999400371
 20
28.75763162275248
 30
130.0
 10
1418.0500105307938
 20
28.783680126323116
 30
130.0
 10
1419.000014500035
 20
28.80997542779687
 30
130.0
 10
1419.950011219705
 20
28.836519069116576
 30
130.0
 10
1420.9000005996072
 20
28.863312591671882
 30
130.0
  0
LINE
  5
72
330
17
100
AcDbEntity
  8
0
100
AcDbLine
 10
1417.1
 20
28.757631639193804
 30
130.0
 11
1417.1
 21
9.359753392438853
 31
130.0
  0
SPLINE
  5
73
330
17
100
AcDbEntity
  8
0
100
AcDbSpline
 70
0
 71
4
 72
13
 73
8
 74
0
 40
0.0
 40
0.0
 40
0.0
 40
0.0
 40
0.0
 40
0.4995809986435209
 40
0.4995809986435209
 40
0.4995809986435209
 40
1.0
 40
1.0
 40
1.0
 40
1.0
 40
1.0
 10
1417.099999999965
 20
9.35975339312371
 30
130.0
 10
1414.3276057139565
 20
9.217297799435345
 30
130.0
 10
1411.555115040355
 20
9.076717500148428
 30
130.0
 10
1408.7825303206544
 20
8.938004062940818
 30
130.0
 10
1403.2325263224827
 20
8.664067218480621
 30
130.0
 10
1400.4551067359528
 20
8.528850054337546
 30
130.0
 10
1397.6775972526648
 20
8.395491941303378
 30
130.0
 10
1394.8999999999821
 20
8.263987222971762
 30
130.0
  0
LINE
  5
74
330
17
100
AcDbEntity
  8
0
100
AcDbLine
 10
1394.9
 20
28.198267133380664
 30
130.0
 11
1394.9
 21
8.263987222589538
 31
130.0
  0
SPLINE
  5
75
330
17
100
AcDbEntity
  8
0
100
AcDbSpline
 70
0
 71
4
 72
10
 73
5
 74
0
 40
0.0
 40
0.0
 40
0.0
 40
0.0
 40
0.0
 40
1.0
 40
1.0
 40
1.0
 40
1.0
 40
1.0
 10
1391.099999400284
 20
28.11212089226537
 30
130.0
 10
1392.0500088249084
 20
28.133317468713997
 30
130.0
 10
1393.0000122176737
 20
28.154739674204595
 30
130.0
 10
1393.9500095020137
 20
28.17638905105193
 30
130.0
 10
1394.9000005997123
 20
28.198267141126294
 30
130.0
  0
LINE
  5
76
330
17
100
AcDbEntity
  8
0
100
AcDbLine
 10
1391.1
 20
28.11212091148174
 30
130.0
 11
1391.1
 21
8.085379970150615
 31
130.0
  0
SPLINE
  5
77
330
17
100
AcDbEntity
  8
0
100
AcDbSpline
 70
0
 71
4
 72
13
 73
8
 74
0
 40
0.0
 40
0.0
 40
0.0
 40
0.0
 40
0.0
 40
0.49980549792187173
 40
0.49980549792187173
 40
0.49980549792187173
 40
1.0
 40
1.0
 40
1.0
 40
1.0
 40
1.0
 10
1391.0999999999822
 20
8.085379970530175
 30
130.0
 10
1388.32632968001
 20
7.95596250817993
 30
130.0
 10
1385.552573282739
 20
7.828389455188313
 30
130.0
 10
1382.7787328835157
 20
7.70265585593565
 30
130.0
 10
1377.2287290897536
 20
7.454763778292583
 30
130.0
 10
1374.452565567661
 20
7.332608157932754
 30
130.0
 10
1371.6763218987305
 20
7.212287600403459
 30
130.0
 10
1368.8999999999983
 20
7.093799795227538
 30
130.0
  0
LINE
  5
78
330
17
100
AcDbEntity
  8
0
100
AcDbLine
 10
1368.9
 20
27.661790449457968
 30
130.0
 11
1368.9
 21
7.093799795194155
 31
130.0
  0
SPLINE
  5
79
330
17
100
AcDbEntity
  8
0
100
AcDbSpline
 70
0
 71
4
 72
10
 73
5
 74
0
 40
0.0
 40
0.0
 40
0.0
 40
0.0
 40
0.0
 40
1.0
 40
1.0
 40
1.0
 40
1.0
 40
1.0
 10
1365.0999994001957
 20
27.593436940519297
 30
130.0
 10
1366.0500073527971
 20
27.61021706756906
 30
130.0
 10
1367.0000102477095
 20
27.62720166806658
 30
130.0
 10
1367.9500080191403
 20
27.644392284330408
 30
130.0
 10
1368.9000005997916
 20
27.661790458327353
 30
130.0
  0
LINE
  5
7A
330
17
100
AcDbEntity
  8
0
100
AcDbLine
 10
1365.1
 20
27.593436952045465
 30
130.0
 11
1365.1
 21
6.932913038061849
 31
130.0
  0
SPLINE
  5
7B
330
17
100
AcDbEntity
  8
0
100
AcDbSpline
 70
0
 71
4
 72
13
 73
8
 74
0
 40
0.0
 40
0.0
 40
0.0
 40
0.0
 40
0.0
 40
0.5000073140987923
 40
0.5000073140987923
 40
0.5000073140987923
 40
1.0
 40
1.0
 40
1.0
 40
1.0
 40
1.0
 10
1365.099999999999
 20
6.932913038084913
 30
130.0
 10
1362.325182091775
 20
6.8163724640387615
 30
130.0
 10
1359.5502873481435
 20
6.701661053701928
 30
130.0
 10
1356.775317631017
 20
6.588777770547567
 30
130.0
 10
1351.225313156621
 20
6.366667924239066
 30
130.0
 10
1348.4502784706672
 20
6.257439612418022
 30
130.0
 10
1345.675173275048
 20
6.150018087094582
 30
130.0
 10
1342.9000000001897
 20
6.044384975416564
 30
130.0
  0
LINE
  5
7C
330
17
100
AcDbEntity
  8
0
100
AcDbLine
 10
1342.9
 20
27.241970613721044
 30
130.0
 11
1342.9
 21
6.044384980394837
 31
130.0
  0
SPLINE
  5
7D
330
17
100
AcDbEntity
  8
0
100
AcDbSpline
 70
0
 71
4
 72
10
 73
5
 74
0
 40
0.0
 40
0.0
 40
0.0
 40
0.0
 40
0.0
 40
1.0
 40
1.0
 40
1.0
 40
1.0
 40
1.0
 10
1339.0999994001154
 20
27.189670185106195
 30
130.0
 10
1340.0500060925417
 20
27.202468753583215
 30
130.0
 10
1341.000008560924
 20
27.21545065441338
 30
130.0
 10
1341.950006749179
 20
27.22861742963964
 30
130.0
 10
1342.900000599874
 20
27.241970621031232
 30
130.0
  0
LINE
  5
7E
330
17
100
AcDbEntity
  8
0
100
AcDbLine
 10
1339.1
 20
27.18967019445622
 30
130.0
 11
1339.1
 21
5.900999598752184
 31
130.0
  0
SPLINE
  5
7F
330
17
100
AcDbEntity
  8
0
100
AcDbSpline
 70
0
 71
4
 72
13
 73
8
 74
0
 40
0.0
 40
0.0
 40
0.0
 40
0.0
 40
0.0
 40
0.5000220184882165
 40
0.5000220184882165
 40
0.5000220184882165
 40
1.0
 40
1.0
 40
1.0
 40
1.0
 40
1.0
 10
1339.1000000002257
 20
5.900999592719272
 30
130.0
 10
1336.3250676820942
 20
5.797208339241159
 30
130.0
 10
1333.5500689496791
 20
5.695192581925688
 30
130.0
 10
1330.7750061898962
 20
5.594934122229305
 30
130.0
 10
1325.2250015998197
 20
5.3979037302267665
 30
130.0
 10
1322.450059780081
 20
5.301131492103206
 30
130.0
 10
1319.6750585177738
 20
5.206079616648438
 30
130.0
 10
1316.8999999999626
 20
5.1127296774969535
 30
130.0
  0
LINE
  5
80
330
17
100
AcDbEntity
  8
0
100
AcDbLine
 10
1316.9
 20
26.92691112896161
 30
130.0
 11
1316.9
 21
5.112729676388987
 31
130.0
  0
SPLINE
  5
81
330
17
100
AcDbEntity
  8
0
100
AcDbSpline
 70
0
 71
4
 72
10
 73
5
 74
0
 40
0.0
 40
0.0
 40
0.0
 40
0.0
 40
0.0
 40
1.0
 40
1.0
 40
1.0
 40
1.0
 40
1.0
 10
1313.0999994000413
 20
26.888926271477494
 30
130.0
 10
1314.0500050222365
 20
26.898177636074493
 30
130.0
 10
1315.0000071281065
 20
26.90759120702821
 30
130.0
 10
1315.950005670219
 20
26.917168525906277
 30
130.0
 10
1316.9000005999485
 20
26.926911134067705
 30
130.0
  0
LINE
  5
82
330
17
100
AcDbEntity
  8
0
100
AcDbLine
 10
1313.1
 20
26.888926278072482
 30
130.0
 11
1313.1
 21
4.986096983924373
 31
130.0
  0
SPLINE
  5
83
330
17
100
AcDbEntity
  8
0
100
AcDbSpline
 70
0
 71
4
 72
13
 73
8
 74
0
 40
0.0
 40
0.0
 40
0.0
 40
0.0
 40
0.0
 40
0.5000009213262511
 40
0.5000009213262511
 40
0.5000009213262511
 40
1.0
 40
1.0
 40
1.0
 40
1.0
 40
1.0
 10
1313.0999999999633
 20
4.9860969850394135
 30
130.0
 10
1310.3251035073558
 20
4.894495815988754
 30
130.0
 10
1307.55015125254
 20
4.804583754299215
 30
130.0
 10
1304.7751453820995
 20
4.716342536918795
 30
130.0
 10
1299.2250407429372
 20
4.543165243742221
 30
130.0
 10
1296.4499419743154
 20
4.458229156258963
 30
130.0
 10
1293.674793692886
 20
4.374927140746312
 30
130.0
 10
1290.899597854685
 20
4.293240704308005
 30
130.0
  0
LINE
  5
84
330
17
100
AcDbEntity
  8
0
100
AcDbLine
 10
1290.9
 20
26.704729564246403
 30
130.0
 11
1290.9
 21
4.2932525401119115
 31
130.0
  0
SPLINE
  5
85
330
17
100
AcDbEntity
  8
0
100
AcDbSpline
 70
0
 71
4
 72
10
 73
5
 74
0
 40
0.0
 40
0.0
 40
0.0
 40
0.0
 40
0.0
 40
1.0
 40
1.0
 40
1.0
 40
1.0
 40
1.0
 10
1287.099999399974
 20
26.679324712703277
 30
130.0
 10
1288.050004120015
 20
26.68546274246563
 30
130.0
 10
1289.0000059201016
 20
26.69174186771826
 30
130.0
 10
1289.9500047603956
 20
26.698163629424673
 30
130.0
 10
1290.9000006000167
 20
26.704729568393443
 30
130.0
  0
LINE
  5
86
330
17
100
AcDbEntity
  8
0
100
AcDbLine
 10
1287.1
 20
26.679324716596085
 30
130.0
 11
1287.1
 21
4.1825352384917895
 31
130.0
  0
SPLINE
  5
87
330
17
100
AcDbEntity
  8
0
100
AcDbSpline
 70
0
 71
4
 72
13
 73
8
 74
0
 40
0.0
 40
0.0
 40
0.0
 40
0.0
 40
0.0
 40
0.4999984489599208
 40
0.4999984489599208
 40
0.4999984489599208
 40
1.0
 40
1.0
 40
1.0
 40
1.0
 40
1.0
 10
1287.0999999999722
 20
4.182535239439756
 30
130.0
 10
1284.3250894344765
 20
4.102510954353764
 30
130.0
 10
1281.5501326502301
 20
4.024089255500379
 30
130.0
 10
1278.7751315652147
 20
3.9472518064783877
 30
130.0
 10
1273.2250272335875
 20
3.796707937541402
 30
130.0
 10
1270.4499239862068
 20
3.7230015375695165
 30
130.0
 10
1267.674780091392
 20
3.6508425034243506
 30
130.0
 10
1264.899597285374
 20
3.580212272681306
 30
130.0
  0
LINE
  5
88
330
17
100
AcDbEntity
  8
0
100
AcDbLine
 10
1264.9
 20
26.563556202997
 30
130.0
 11
1264.9
 21
3.580222521919218
 31
130.0
  0
SPLINE
  5
89
330
17
100
AcDbEntity
  8
0
100
AcDbSpline
 70
0
 71
4
 72
10
 73
5
 74
0
 40
0.0
 40
0.0
 40
0.0
 40
0.0
 40
0.0
 40
1.0
 40
1.0
 40
1.0
 40
1.0
 40
1.0
 10
1261.0999993999135
 20
26.54899753381526
 30
130.0
 10
1262.050003364055
 20
26.552455662365766
 30
130.0
 10
1263.00000490781
 20
26.556033790202186
 30
130.0
 10
1263.950003997884
 20
26.55973345761702
 30
130.0
 10
1264.9000006000788
 20
26.56355620479205
 30
130.0
  0
LINE
  5
8A
330
17
100
AcDbEntity
  8
0
100
AcDbLine
 10
1261.1
 20
26.548997536699787
 30
130.0
 11
1261.1
 21
3.4845824428719885
 31
130.0
  0
SPLINE
  5
8B
330
17
100
AcDbEntity
  8
0
100
AcDbSpline
 70
0
 71
4
 72
13
 73
8
 74
0
 40
0.0
 40
0.0
 40
0.0
 40
0.0
 40
0.0
 40
0.49999627721315126
 40
0.49999627721315126
 40
0.49999627721315126
 40
1.0
 40
1.0
 40
1.0
 40
1.0
 40
1.0
 10
1261.099999999998
 20
3.4845824429275654
 30
130.0
 10
1258.3250768182938
 20
3.415523063993516
 30
130.0
 10
1255.5501159107773
 20
3.3479795033810036
 30
130.0
 10
1252.7751189782657
 20
3.281933345468357
 30
130.0
 10
1247.2250149701151
 20
3.152797722417128
 30
130.0
 10
1244.449907893247
 20
3.089708301855468
 30
130.0
 10
1241.674768018569
 20
3.0280792711357565
 30
130.0
 10
1238.899596873999
 20
2.967891993920843
 30
130.0
  0
LINE
  5
8C
330
17
100
AcDbEntity
  8
0
100
AcDbLine
 10
1238.9
 20
26.491532680830716
 30
130.0
 11
1238.9
 21
2.9679007379859756
 31
130.0
  0
SPLINE
  5
8D
330
17
100
AcDbEntity
  8
0
100
AcDbSpline
 70
0
 71
4
 72
10
 73
5
 74
0
 40
0.0
 40
0.0
 40
0.0
 40
0.0
 40
0.0
 40
1.0
 40
1.0
 40
1.0
 40
1.0
 40
1.0
 10
1235.0999993998598
 20
26.486087920298267
 30
130.0
 10
1236.0500027325804
 20
26.487299195816934
 30
130.0
 10
1237.000004062205
 20
26.48860938817773
 30
130.0
 10
1237.950003360909
 20
26.490020036990245
 30
130.0
 10
1238.9000006001347
 20
26.49153268178629
 30
130.0
  0
LINE
  5
8E
330
17
100
AcDbEntity
  8
0
100
AcDbLine
 10
1235.1
 20
26.486087921063458
 30
130.0
 11
1235.1
 21
2.886498219942025
 31
130.0
  0
SPLINE
  5
8F
330
17
100
AcDbEntity
  8
0
100
AcDbSpline
 70
0
 71
4
 72
10
 73
5
 74
0
 40
0.0
 40
0.0
 40
0.0
 40
0.0
 40
0.0
 40
1.0
 40
1.0
 40
1.0
 40
1.0
 40
1.0
 10
1235.1000000000472
 20
2.8864982177064924
 30
130.0
 10
1229.5500688924665
 20
2.769081701222075
 30
130.0
 10
1224.000016867557
 20
2.657380425422626
 30
130.0
 10
1218.4498558901853
 20
2.5512460523838842
 30
130.0
 10
1212.899596599968
 20
2.450529196598562
 30
130.0
  0
LINE
  5
90
330
17
100
AcDbEntity
  8
0
100
AcDbLine
 10
1212.9
 20
26.476810647559233
 30
130.0
 11
1212.9
 21
2.450536518919889
 31
130.0
  0
SPLINE
  5
91
330
17
100
AcDbEntity
  8
0
100
AcDbSpline
 70
0
 71
4
 72
10
 73
5
 74
0
 40
0.0
 40
0.0
 40
0.0
 40
0.0
 40
0.0
 40
1.0
 40
1.0
 40
1.0
 40
1.0
 40
1.0
 10
1209.099999399813
 20
26.478748870297007
 30
130.0
 10
1210.0500022038623
 20
26.4781460052723
 30
130.0
 10
1211.0000033543045
 20
26.477620987140106
 30
130.0
 10
1211.9500028277391
 20
26.477175354856122
 30
130.0
 10
1212.9000006001813
 20
26.47681064732882
 30
130.0
  0
LINE
  5
92
330
17
100
AcDbEntity
  8
0
100
AcDbLine
 10
1209.1
 20
26.47874886991613
 30
130.0
 11
1209.1
 21
2.382529889354551
 31
130.0
  0
SPLINE
  5
93
330
17
100
AcDbEntity
  8
0
100
AcDbSpline
 70
0
 71
4
 72
10
 73
5
 74
0
 40
0.0
 40
0.0
 40
0.0
 40
0.0
 40
0.0
 40
1.0
 40
1.0
 40
1.0
 40
1.0
 40
1.0
 10
1209.100000000037
 20
2.382529887259386
 30
130.0
 10
1203.5500310559719
 20
2.2845875479225772
 30
130.0
 10
1197.9999674182645
 20
2.192011001404557
 30
130.0
 10
1192.449819494571
 20
2.1046512355184834
 30
130.0
 10
1186.899596442837
 20
2.022358222428471
 30
130.0
  0
LINE
  5
94
330
17
100
AcDbEntity
  8
0
100
AcDbLine
 10
1186.9
 20
26.507550414983736
 30
130.0
 11
1186.9
 21
2.0223642069781214
 31
130.0
  0
SPLINE
  5
95
330
17
100
AcDbEntity
  8
0
100
AcDbSpline
 70
0
 71
4
 72
10
 73
5
 74
0
 40
0.0
 40
0.0
 40
0.0
 40
0.0
 40
0.0
 40
1.0
 40
1.0
 40
1.0
 40
1.0
 40
1.0
 10
1183.099999399768
 20
26.51514185010758
 30
130.0
 10
1184.050001756214
 20
26.51315727087533
 30
130.0
 10
1185.000002755197
 20
26.511229479510412
 30
130.0
 10
1185.9500023766889
 20
26.509360014383795
 30
130.0
 10
1186.9000006002218
 20
26.507550413840406
 30
130.0
  0
LINE
  5
96
330
17
100
AcDbEntity
  8
0
100
AcDbLine
 10
1183.1
 20
26.51514184885368
 30
130.0
 11
1183.1
 21
1.9669093929088013
 31
130.0
  0
SPLINE
  5
97
330
17
100
AcDbEntity
  8
0
100
AcDbSpline
 70
0
 71
4
 72
10
 73
5
 74
0
 40
0.0
 40
0.0
 40
0.0
 40
0.0
 40
0.0
 40
1.0
 40
1.0
 40
1.0
 40
1.0
 40
1.0
 10
1183.100000000195
 20
1.9669093793288135
 30
130.0
 10
1177.5499984740068
 20
1.8872084690653037
 30
130.0
 10
1171.9999249297914
 20
1.8125225491430201
 30
130.0
 10
1166.4497883095257
 20
1.7427019270028783
 30
130.0
 10
1160.899596382277
 20
1.6775959305255796
 30
130.0
  0
LINE
  5
98
330
17
100
AcDbEntity
  8
0
100
AcDbLine
 10
1160.9
 20
26.571919619249798
 30
130.0
 11
1160.9
 21
1.6776006725736914
 31
130.0
  0
SPLINE
  5
99
330
17
100
AcDbEntity
  8
0
100
AcDbSpline
 70
0
 71
4
 72
10
 73
5
 74
0
 40
0.0
 40
0.0
 40
0.0
 40
0.0
 40
0.0
 40
1.0
 40
1.0
 40
1.0
 40
1.0
 40
1.0
 10
1157.0999993997368
 20
26.583435452524885
 30
130.0
 10
1158.0500013680014
 20
26.580501348611108
 30
130.0
 10
1159.0000022360348
 20
26.577602982661507
 30
130.0
 10
1159.9500019861168
 20
26.574741892555657
 30
130.0
 10
1160.9000006002561
 20
26.571919616166603
 30
130.0
  0
LINE
  5
9A
330
17
100
AcDbEntity
  8
0
100
AcDbLine
 10
1157.1
 20
26.583435452398643
 30
130.0
 11
1157.1
 21
1.6338508402238772
 31
130.0
  0
SPLINE
  5
9B
330
17
100
AcDbEntity
  8
0
100
AcDbSpline
 70
0
 71
4
 72
10
 73
5
 74
0
 40
0.0
 40
0.0
 40
0.0
 40
0.0
 40
0.0
 40
1.0
 40
1.0
 40
1.0
 40
1.0
 40
1.0
 10
1157.1000000000847
 20
1.6338508327349857
 30
130.0
 10
1151.549970813654
 20
1.5711545236771922
 30
130.0
 10
1145.9998889544945
 20
1.5131210016798318
 30
130.0
 10
1140.4497619913118
 20
1.4595998976115223
 30
130.0
 10
1134.8995963980458
 20
1.4104399109810228
 30
130.0
  0
LINE
  5
9C
330
17
100
AcDbEntity
  8
0
100
AcDbLine
 10
1134.9
 20
26.658091881500578
 30
130.0
 11
1134.9
 21
1.4104434950133553
 31
130.0
  0
SPLINE
  5
9D
330
17
100
AcDbEntity
  8
0
100
AcDbSpline
 70
0
 71
5
 72
12
 73
6
 74
0
 40
0.0
 40
0.0
 40
0.0
 40
0.0
 40
0.0
 40
0.0
 40
1.0
 40
1.0
 40
1.0
 40
1.0
 40
1.0
 40
1.0
 10
1131.0999993997127
 20
26.671804057619397
 30
130.0
 10
1131.932792815952
 20
26.66877828171489
 30
130.0
 10
1132.6632709675516
 20
26.6661348396731
 30
130.0
 10
1133.461106763763
 20
26.663252810710517
 30
130.0
 10
1134.2888775277052
 20
26.66028093563606
 30
130.0
 10
1134.9000006002864
 20
26.658091872026
 30
130.0
  0
LINE
  5
9E
330
17
100
AcDbEntity
  8
0
100
AcDbLine
 10
1131.1
 20
26.671804062962153
 30
130.0
 11
1131.1
 21
1.3775489211482266
 31
130.0
  0
SPLINE
  5
9F
330
17
100
AcDbEntity
  8
0
100
AcDbSpline
 70
0
 71
4
 72
10
 73
5
 74
0
 40
0.0
 40
0.0
 40
0.0
 40
0.0
 40
0.0
 40
1.0
 40
1.0
 40
1.0
 40
1.0
 40
1.0
 10
1131.1000000000345
 20
1.3775489171378508
 30
130.0
 10
1125.5499477397193
 20
1.3306160322349183
 30
130.0
 10
1119.9998590410923
 20
1.2879923214660494
 30
130.0
 10
1114.4497401932347
 20
1.2495267579727622
 30
130.0
 10
1108.8995964699593
 20
1.2150674456892672
 30
130.0
  0
LINE
  5
A0
330
17
100
AcDbEntity
  8
0
100
AcDbLine
 10
1108.9
 20
26.75424545527991
 30
130.0
 11
1108.9
 21
1.2150699619173682
 31
130.0
  0
SPLINE
  5
A1
330
17
100
AcDbEntity
  8
0
100
AcDbSpline
 70
0
 71
4
 72
10
 73
5
 74
0
 40
0.0
 40
0.0
 40
0.0
 40
0.0
 40
0.0
 40
1.0
 40
1.0
 40
1.0
 40
1.0
 40
1.0
 10
1105.0999993996932
 20
26.768426495517843
 30
130.0
 10
1106.0500006834488
 20
26.764889209229572
 30
130.0
 10
1107.0000013222934
 20
26.761345580465584
 30
130.0
 10
1107.9500012999833
 20
26.757797146473358
 30
130.0
 10
1108.9000006003093
 20
26.754245444524535
 30
130.0
  0
LINE
  5
A2
330
17
100
AcDbEntity
  8
0
100
AcDbLine
 10
1105.1
 20
26.768426501376194
 30
130.0
 11
1105.1
 21
1.1921779120750844
 31
130.0
  0
SPLINE
  5
A3
330
17
100
AcDbEntity
  8
0
100
AcDbSpline
 70
0
 71
4
 72
10
 73
5
 74
0
 40
0.0
 40
0.0
 40
0.0
 40
0.0
 40
0.0
 40
1.0
 40
1.0
 40
1.0
 40
1.0
 40
1.0
 10
1105.1004035160338
 20
1.1921802646937716
 30
130.0
 10
1099.5502302148777
 20
1.1597643627049719
 30
130.0
 10
1094.0000338200268
 20
1.1313027978903512
 30
130.0
 10
1088.4498194361051
 20
1.1066439128538463
 30
130.0
 10
1082.8995912337036
 20
1.0856352606496262
 30
130.0
  0
LINE
  5
A4
330
17
100
AcDbEntity
  8
0
100
AcDbLine
 10
1082.9
 20
26.848561913623413
 30
130.0
 11
1082.9
 21
1.0856368202752606
 31
130.0
  0
SPLINE
  5
A5
330
17
100
AcDbEntity
  8
0
100
AcDbSpline
 70
0
 71
4
 72
10
 73
5
 74
0
 40
0.0
 40
0.0
 40
0.0
 40
0.0
 40
0.0
 40
1.0
 40
1.0
 40
1.0
 40
1.0
 40
1.0
 10
1079.0999993996784
 20
26.861484710763943
 30
130.0
 10
1080.0500003439515
 20
26.858293538336333
 30
130.0
 10
1081.0000008701718
 20
26.855074988699958
 30
130.0
 10
1081.9500009612589
 20
26.851830598972708
 30
130.0
 10
1082.9000006003187
 20
26.848561906311737
 30
130.0
  0
LINE
  5
A6
330
17
100
AcDbEntity
  8
0
100
AcDbLine
 10
1079.1
 20
26.86148470900231
 30
130.0
 11
1079.1
 21
1.0718915966251732
 31
130.0
  0
SPLINE
  5
A7
330
17
100
AcDbEntity
  8
0
100
AcDbSpline
 70
0
 71
4
 72
10
 73
5
 74
0
 40
0.0
 40
0.0
 40
0.0
 40
0.0
 40
0.0
 40
1.0
 40
1.0
 40
1.0
 40
1.0
 40
1.0
 10
1079.1000000000427
 20
1.0718915842062702
 30
130.0
 10
1073.5499126127565
 20
1.052744286571101
 30
130.0
 10
1067.9998128148727
 20
1.0371948960100668
 30
130.0
 10
1062.4497046225108
 20
1.0250911979409905
 30
130.0
 10
1056.8995912011064
 20
1.0162802858490485
 30
130.0
  0
LINE
  5
A8
330
17
100
AcDbEntity
  8
0
100
AcDbLine
 10
1056.9
 20
26.92922480684573
 30
130.0
 11
1056.9
 21
1.0162809485939286
 31
130.0
  0
SPLINE
  5
A9
330
17
100
AcDbEntity
  8
0
100
AcDbSpline
 70
0
 71
4
 72
10
 73
5
 74
0
 40
0.0
 40
0.0
 40
0.0
 40
0.0
 40
0.0
 40
1.0
 40
1.0
 40
1.0
 40
1.0
 40
1.0
 10
1053.099999399673
 20
26.93916242783633
 30
130.0
 10
1054.049999977562
 20
26.936749101621647
 30
130.0
 10
1055.0000003828898
 20
26.93428736432377
 30
130.0
 10
1055.9500005966859
 20
26.931778753047197
 30
130.0
 10
1056.9000006003257
 20
26.929224804955776
 30
130.0
  0
LINE
  5
AA
330
17
100
AcDbEntity
  8
0
100
AcDbLine
 10
1053.1
 20
26.939162426741756
 30
130.0
 11
1053.1
 21
1.0108240483258144
 31
130.0
  0
SPLINE
  5
AB
330
17
100
AcDbEntity
  8
0
100
AcDbSpline
 70
0
 71
4
 72
10
 73
5
 74
0
 40
0.0
 40
0.0
 40
0.0
 40
0.0
 40
0.0
 40
1.0
 40
1.0
 40
1.0
 40
1.0
 40
1.0
 10
1053.1000000000176
 20
1.0108240344981667
 30
130.0
 10
1047.5499026150899
 20
1.0036904530088402
 30
130.0
 10
1041.9998010670308
 20
0.9997973415323695
 30
130.0
 10
1036.4496983822546
 20
0.9989919994681425
 30
130.0
 10
1030.8995968214044
 20
1.0011211528838224
 30
130.0
  0
LINE
  5
AC
330
17
100
AcDbEntity
  8
0
100
AcDbLine
 10
1030.9
 20
26.98441833014381
 30
130.0
 11
1030.9
 21
1.0011210131609458
 31
130.0
  0
SPLINE
  5
AD
330
17
100
AcDbEntity
  8
0
100
AcDbSpline
 70
0
 71
4
 72
10
 73
5
 74
0
 40
0.0
 40
0.0
 40
0.0
 40
0.0
 40
0.0
 40
1.0
 40
1.0
 40
1.0
 40
1.0
 40
1.0
 10
1027.0999993996743
 20
26.989643817401536
 30
130.0
 10
1028.0499995627165
 20
26.988440077272195
 30
130.0
 10
1028.9999998316919
 20
26.987166891037383
 30
130.0
 10
1029.9500001846998
 20
26.98582579589449
 30
130.0
 10
1030.9000006003262
 20
26.98441832911547
 30
130.0
  0
LINE
  5
AE
330
17
100
AcDbEntity
  8
0
100
AcDbLine
 10
1027.1
 20
26.98964381665867
 30
130.0
 11
1027.1
 21
1.0030914809328932
 31
130.0
  0
SPLINE
  5
AF
330
17
100
AcDbEntity
  8
0
100
AcDbSpline
 70
0
 71
4
 72
13
 73
8
 74
0
 40
0.0
 40
0.0
 40
0.0
 40
0.0
 40
0.0
 40
0.5040038327146515
 40
0.5040038327146515
 40
0.5040038327146515
 40
1.0
 40
1.0
 40
1.0
 40
1.0
 40
1.0
 10
1027.0999999999901
 20
1.0030914659222496
 30
130.0
 10
1024.302776287186
 20
1.0049171699076231
 30
130.0
 10
1021.5055530523053
 20
1.0074749497588695
 30
130.0
 10
1018.708330569561
 20
1.0107452130005548
 30
130.0
 10
1013.1583301141189
 20
1.0186084974605403
 30
130.0
 10
1010.4055521110391
 20
1.0231800851012331
 30
129.99999999999994
 10
1007.6527753154726
 20
1.0284305582735567
 30
129.99999999999991
 10
1004.8999999999667
 20
1.0343673294640492
 30
129.9999999999999
  0
LINE
  5
B0
330
17
100
AcDbEntity
  8
0
100
AcDbLine
 10
1004.9
 20
27.0025846510589
 30
130.0
 11
1004.9
 21
1.0343673448649575
 31
130.0
  0
SPLINE
  5
B1
330
17
100
AcDbEntity
  8
0
100
AcDbSpline
 70
0
 71
4
 72
10
 73
5
 74
0
 40
0.0
 40
0.0
 40
0.0
 40
0.0
 40
0.0
 40
1.0
 40
1.0
 40
1.0
 40
1.0
 40
1.0
 10
1001.099999399677
 20
27.001737831819543
 30
130.0
 10
1002.0499991694155
 20
27.0020557980771
 30
130.0
 10
1002.9999993030123
 20
27.002303627900776
 30
130.0
 10
1003.9499997851916
 20
27.002480263949344
 30
130.0
 10
1004.9000006003203
 20
27.002584648982964
 30
130.0
  0
LINE
  5
B2
330
17
100
AcDbEntity
  8
0
100
AcDbLine
 10
1001.1
 20
27.001737835068454
 30
130.0
 11
1001.1
 21
1.0430542829617455
 31
130.0
  0
SPLINE
  5
B3
330
17
100
AcDbEntity
  8
0
100
AcDbSpline
 70
0
 71
4
 72
10
 73
5
 74
0
 40
0.0
 40
0.0
 40
0.0
 40
0.0
 40
0.0
 40
1.0
 40
1.0
 40
1.0
 40
1.0
 40
1.0
 10
1001.0999999999625
 20
1.043054267497359
 30
130.0
 10
995.549987462186
 20
1.0564616862068772
 30
130.0
 10
989.9999817144172
 20
1.072679741017961
 30
130.0
 10
984.4499850383369
 20
1.091769620322432
 30
130.0
 10
978.8999999999355
 20
1.1137923989497438
 30
130.0
  0
LINE
  5
B4
330
17
100
AcDbEntity
  8
0
100
AcDbLine
 10
978.9
 20
26.980787961716906
 30
130.0
 11
978.9
 21
1.113792415195014
 31
130.0
  0
SPLINE
  5
B5
330
17
100
AcDbEntity
  8
0
100
AcDbSpline
 70
0
 71
4
 72
10
 73
5
 74
0
 40
0.0
 40
0.0
 40
0.0
 40
0.0
 40
0.0
 40
1.0
 40
1.0
 40
1.0
 40
1.0
 40
1.0
 10
975.0999993996879
 20
26.974689642568602
 30
130.0
 10
976.0499988765961
 20
26.97629878373448
 30
130.0
 10
976.9999989111274
 20
26.97785225565055
 30
130.0
 10
977.9499994901684
 20
26.979349000951895
 30
130.0
 10
978.9000006003095
 20
26.980787962354867
 30
130.0
  0
LINE
  5
B6
330
17
100
AcDbEntity
  8
0
100
AcDbLine
 10
975.1
 20
26.97468964358543
 30
130.0
 11
975.1
 21
1.1293879680276397
 31
130.0
  0
SPLINE
  5
B7
330
17
100
AcDbEntity
  8
0
100
AcDbSpline
 70
0
 71
4
 72
10
 73
5
 74
0
 40
0.0
 40
0.0
 40
0.0
 40
0.0
 40
0.0
 40
1.0
 40
1.0
 40
1.0
 40
1.0
 40
1.0
 10
975.099999999931
 20
1.1293879517133267
 30
130.0
 10
969.5499785190926
 20
1.1529224294333995
 30
130.0
 10
963.9999695642688
 20
1.1794107972519559
 30
130.0
 10
958.4499757526983
 20
1.2089143855891855
 30
130.0
 10
952.8999999999013
 20
1.241494312423411
 30
130.0
  0
LINE
  5
B8
330
17
100
AcDbEntity
  8
0
100
AcDbLine
 10
952.9
 20
26.926529476481846
 30
130.0
 11
952.9
 21
1.2414943291656628
 31
130.0
  0
SPLINE
  5
B9
330
17
100
AcDbEntity
  8
0
100
AcDbSpline
 70
0
 71
4
 72
10
 73
5
 74
0
 40
0.0
 40
0.0
 40
0.0
 40
0.0
 40
0.0
 40
1.0
 40
1.0
 40
1.0
 40
1.0
 40
1.0
 10
949.0999993997075
 20
26.916367424249653
 30
130.0
 10
950.0499986234003
 20
26.91897079693658
 30
130.0
 10
950.9999985724071
 20
26.92153296814846
 30
130.0
 10
951.9499992352653
 20
26.92405288046331
 30
130.0
 10
952.9000006002993
 20
26.926529476523037
 30
130.0
  0
LINE
  5
BA
330
17
100
AcDbEntity
  8
0
100
AcDbLine
 10
949.1
 20
26.916367428349822
 30
130.0
 11
949.1
 21
1.2643434875117463
 31
130.0
  0
SPLINE
  5
BB
330
17
100
AcDbEntity
  8
0
100
AcDbSpline
 70
0
 71
4
 72
10
 73
5
 74
0
 40
0.0
 40
0.0
 40
0.0
 40
0.0
 40
0.0
 40
1.0
 40
1.0
 40
1.0
 40
1.0
 40
1.0
 10
949.0999999998967
 20
1.264343470690069
 30
130.0
 10
943.5498676310956
 20
1.2985096064402917
 30
130.0
 10
937.9997543305143
 20
1.335773226561102
 30
130.0
 10
932.4496630680575
 20
1.3761957064860262
 30
130.0
 10
926.8995971253959
 20
1.4198381294826832
 30
130.0
  0
LINE
  5
BC
330
17
100
AcDbEntity
  8
0
100
AcDbLine
 10
926.9
 20
26.847936191992233
 30
130.0
 11
926.9
 21
1.419834978863252
 31
130.0
  0
SPLINE
  5
BD
330
17
100
AcDbEntity
  8
0
100
AcDbSpline
 70
0
 71
4
 72
10
 73
5
 74
0
 40
0.0
 40
0.0
 40
0.0
 40
0.0
 40
0.0
 40
1.0
 40
1.0
 40
1.0
 40
1.0
 40
1.0
 10
923.0999993997272
 20
26.83489823936029
 30
130.0
 10
924.0499983996295
 20
26.83819888230766
 30
130.0
 10
924.9999982732465
 20
26.841472792924776
 30
130.0
 10
925.9499990102772
 20
26.844718913689306
 30
130.0
 10
926.9000006002794
 20
26.847936187128862
 30
130.0
  0
LINE
  5
BE
330
17
100
AcDbEntity
  8
0
100
AcDbLine
 10
923.1
 20
26.834898248352633
 30
130.0
 11
923.1
 21
1.4502831304186916
 31
130.0
  0
SPLINE
  5
BF
330
17
100
AcDbEntity
  8
0
100
AcDbSpline
 70
0
 71
4
 72
10
 73
5
 74
0
 40
0.0
 40
0.0
 40
0.0
 40
0.0
 40
0.0
 40
0.9999751506232873
 40
0.9999751506232873
 40
0.9999751506232873
 40
0.9999751506232873
 40
0.9999751506232873
 10
923.1004028613877
 20
1.450279824712345
 30
130.0
 10
917.5502590443455
 20
1.4955815419831107
 30
130.0
 10
912.0001416817623
 20
1.5441242541147588
 30
130.0
 10
906.4500541124886
 20
1.595969302495604
 30
130.0
 10
900.8999999999862
 20
1.6511776773044118
 30
130.0
  0
LINE
  5
C0
330
17
100
AcDbEntity
  8
0
100
AcDbLine
 10
900.9
 20
26.75313578617915
 30
130.0
 11
900.9
 21
1.6511776786763512
 31
130.0
  0
SPLINE
  5
C1
330
17
100
AcDbEntity
  8
0
100
AcDbSpline
 70
0
 71
5
 72
12
 73
6
 74
0
 40
0.0
 40
0.0
 40
0.0
 40
0.0
 40
0.0
 40
0.0
 40
1.0
 40
1.0
 40
1.0
 40
1.0
 40
1.0
 40
1.0
 10
897.0999993997474
 20
26.73840992675459
 30
130.0
 10
897.9088202467193
 20
26.741560852971457
 30
130.0
 10
898.659472618627
 20
26.74447682789365
 30
130.0
 10
899.4395002622095
 20
26.747500845565796
 30
130.0
 10
900.2289152679145
 20
26.750549668621833
 30
130.0
 10
900.9000006002533
 20
26.75313578482977
 30
130.0
  0
LINE
  5
C2
330
17
100
AcDbEntity
  8
0
100
AcDbLine
 10
897.1
 20
26.738409931529674
 30
130.0
 11
897.1
 21
1.6895701989185965
 31
130.0
  0
SPLINE
  5
C3
330
17
100
AcDbEntity
  8
0
100
AcDbSpline
 70
0
 71
4
 72
10
 73
5
 74
0
 40
0.0
 40
0.0
 40
0.0
 40
0.0
 40
0.0
 40
1.0
 40
1.0
 40
1.0
 40
1.0
 40
1.0
 10
897.099999999986
 20
1.6895701975498154
 30
130.0
 10
891.5498434548679
 20
1.7465123339619282
 30
130.0
 10
885.9997216332262
 20
1.8068388638761272
 30
130.0
 10
880.44963825874
 20
1.8706110424410551
 30
130.0
 10
874.8995973922641
 20
1.9378897382274287
 30
130.0
  0
LINE
  5
C4
330
17
100
AcDbEntity
  8
0
100
AcDbLine
 10
874.9
 20
26.650257209986755
 30
130.0
 11
874.9
 21
1.9378848590851812
 31
130.0
  0
SPLINE
  5
C5
330
17
100
AcDbEntity
  8
0
100
AcDbSpline
 70
0
 71
1
 72
4
 73
2
 74
0
 40
0.0
 40
0.0
 40
1.0
 40
1.0
 10
871.099999399778
 20
26.63503165835063
 30
130.0
 10
874.9000006002261
 20
26.650257211961755
 30
130.0
  0
LINE
  5
C6
330
17
100
AcDbEntity
  8
0
100
AcDbLine
 10
871.1
 20
26.635031660955207
 30
130.0
 11
871.1
 21
1.984566848118553
 31
130.0
  0
SPLINE
  5
C7
330
17
100
AcDbEntity
  8
0
100
AcDbSpline
 70
0
 71
4
 72
10
 73
5
 74
0
 40
0.0
 40
0.0
 40
0.0
 40
0.0
 40
0.0
 40
1.0
 40
1.0
 40
1.0
 40
1.0
 40
1.0
 10
871.0999999999833
 20
1.9845668467841273
 30
130.0
 10
865.5499299229497
 20
2.053652048861593
 30
130.0
 10
859.9999037563551
 20
2.12626471293021
 30
130.0
 10
854.4499256241526
 20
2.202465979002701
 30
130.0
 10
848.8999999999817
 20
2.2823165848791778
 30
130.0
  0
LINE
  5
C8
330
17
100
AcDbEntity
  8
0
100
AcDbLine
 10
848.9
 20
26.547431217331905
 30
130.0
 11
848.9
 21
2.2823165861620875
 31
130.0
  0
SPLINE
  5
C9
330
17
100
AcDbEntity
  8
0
100
AcDbSpline
 70
0
 71
5
 72
12
 73
6
 74
0
 40
0.0
 40
0.0
 40
0.0
 40
0.0
 40
0.0
 40
0.0
 40
1.0
 40
1.0
 40
1.0
 40
1.0
 40
1.0
 40
1.0
 10
845.09999939981
 20
26.532894496206733
 30
130.0
 10
845.9087537775049
 20
26.535967939243854
 30
130.0
 10
846.5484088661681
 20
26.538409827892806
 30
130.0
 10
847.3888988166075
 20
26.541617934665375
 30
130.0
 10
848.3533963673971
 20
26.545327026865884
 30
130.0
 10
848.9000006001978
 20
26.547431219555083
 30
130.0
  0
LINE
  5
CA
330
17
100
AcDbEntity
  8
0
100
AcDbLine
 10
845.1
 20
26.53289449874356
 30
130.0
 11
845.1
 21
2.3376327482495585
 31
130.0
  0
SPLINE
  5
CB
330
17
100
AcDbEntity
  8
0
100
AcDbSpline
 70
0
 71
4
 72
10
 73
5
 74
0
 40
0.0
 40
0.0
 40
0.0
 40
0.0
 40
0.0
 40
1.0
 40
1.0
 40
1.0
 40
1.0
 40
1.0
 10
845.0999999999813
 20
2.337632746978022
 30
130.0
 10
839.5498137696628
 20
2.4193670248120207
 30
130.0
 10
833.9996815966217
 20
2.504771864008878
 30
130.0
 10
828.4496080212884
 20
2.5939082943196197
 30
130.0
 10
822.8995979465564
 20
2.6868369482619805
 30
130.0
  0
LINE
  5
CC
330
17
100
AcDbEntity
  8
0
100
AcDbLine
 10
822.9
 20
26.452790923910676
 30
130.0
 11
822.9
 21
2.6868302175259338
 31
130.0
  0
SPLINE
  5
CD
330
17
100
AcDbEntity
  8
0
100
AcDbSpline
 70
0
 71
4
 72
10
 73
5
 74
0
 40
0.0
 40
0.0
 40
0.0
 40
0.0
 40
0.0
 40
1.0
 40
1.0
 40
1.0
 40
1.0
 40
1.0
 10
819.0999993998457
 20
26.44013195007374
 30
130.0
 10
820.0499975948718
 20
26.44325098943658
 30
130.0
 10
820.9999972003228
 20
26.446401203969803
 30
130.0
 10
821.9499982055771
 20
26.449581535240977
 30
130.0
 10
822.9000006001602
 20
26.452790924810266
 30
130.0
  0
LINE
  5
CE
330
17
100
AcDbEntity
  8
0
100
AcDbLine
 10
819.1
 20
26.44013195321662
 30
130.0
 11
819.1
 21
2.751124882322589
 31
130.0
  0
SPLINE
  5
CF
330
17
100
AcDbEntity
  8
0
100
AcDbSpline
 70
0
 71
4
 72
10
 73
5
 74
0
 40
0.0
 40
0.0
 40
0.0
 40
0.0
 40
0.0
 40
1.0
 40
1.0
 40
1.0
 40
1.0
 40
1.0
 10
819.0999999999802
 20
2.7511248811538755
 30
130.0
 10
813.5497967331894
 20
2.8460099661208518
 30
130.0
 10
807.999658663263
 20
2.9447083918700114
 30
130.0
 10
802.4495907630778
 20
3.0472810964866692
 30
130.0
 10
796.8995983811843
 20
3.1537886478398995
 30
130.0
  0
LINE
  5
D0
330
17
100
AcDbEntity
  8
0
100
AcDbLine
 10
796.9
 20
26.37447236920623
 30
130.0
 11
796.9
 21
3.1537809415903313
 31
130.0
  0
SPLINE
  5
D1
330
17
100
AcDbEntity
  8
0
100
AcDbSpline
 70
0
 71
4
 72
10
 73
5
 74
0
 40
0.0
 40
0.0
 40
0.0
 40
0.0
 40
0.0
 40
1.0
 40
1.0
 40
1.0
 40
1.0
 40
1.0
 10
793.0999993998789
 20
26.36488053553023
 30
130.0
 10
794.0499973652207
 20
26.367211056427372
 30
130.0
 10
794.9999968949696
 20
26.369587241522837
 30
130.0
 10
795.9499979771764
 20
26.372008032030273
 30
130.0
 10
796.9000006001204
 20
26.37447236914146
 30
130.0
  0
LINE
  5
D2
330
17
100
AcDbEntity
  8
0
100
AcDbLine
 10
793.1
 20
26.36488053758456
 30
130.0
 11
793.1
 21
3.2273982259644853
 31
130.0
  0
SPLINE
  5
D3
330
17
100
AcDbEntity
  8
0
100
AcDbSpline
 70
0
 71
4
 72
13
 73
8
 74
0
 40
0.0
 40
0.0
 40
0.0
 40
0.0
 40
0.0
 40
0.4999949583566205
 40
0.4999949583566205
 40
0.4999949583566205
 40
1.0
 40
1.0
 40
1.0
 40
1.0
 40
1.0
 10
793.1004015447456
 20
3.2273903724619535
 30
130.0
 10
790.3252684134172
 20
3.281660002619312
 30
130.0
 10
787.5501546246645
 20
3.3369186434514186
 30
130.0
 10
784.7750608568273
 20
3.3931739366249216
 30
130.0
 10
779.2248588019271
 20
3.5076941021388883
 30
130.0
 10
776.4497505155803
 20
3.5659590148258236
 30
130.0
 10
773.674663655459
 20
3.625235804540189
 30
130.0
 10
770.8995989474633
 20
3.6855320134477196
 30
130.0
  0
LINE
  5
D4
330
17
100
AcDbEntity
  8
0
100
AcDbLine
 10
770.9
 20
26.320615075996425
 30
130.0
 11
770.9
 21
3.6855233002651526
 31
130.0
  0
SPLINE
  5
D5
330
17
100
AcDbEntity
  8
0
100
AcDbSpline
 70
0
 71
4
 72
10
 73
5
 74
0
 40
0.0
 40
0.0
 40
0.0
 40
0.0
 40
0.0
 40
1.0
 40
1.0
 40
1.0
 40
1.0
 40
1.0
 10
767.09999939993
 20
26.315280332808324
 30
130.0
 10
768.0499971037498
 20
26.316524838343177
 30
130.0
 10
768.9999965475109
 20
26.317829503661287
 30
130.0
 10
769.9499977174497
 20
26.319193269585167
 30
130.0
 10
770.9000006000841
 20
26.320615076894534
 30
130.0
  0
LINE
  5
D6
330
17
100
AcDbEntity
  8
0
100
AcDbLine
 10
767.1
 20
26.315280333594423
 30
130.0
 11
767.1
 21
3.7688074131995366
 31
130.0
  0
SPLINE
  5
D7
330
17
100
AcDbEntity
  8
0
100
AcDbSpline
 70
0
 71
4
 72
13
 73
8
 74
0
 40
0.0
 40
0.0
 40
0.0
 40
0.0
 40
0.0
 40
0.49998169906090106
 40
0.49998169906090106
 40
0.49998169906090106
 40
1.0
 40
1.0
 40
1.0
 40
1.0
 40
1.0
 10
767.0999999999826
 20
3.7688074124174658
 30
130.0
 10
764.3249805736277
 20
3.8301526843739913
 30
130.0
 10
761.5499837999503
 20
3.892522557850343
 30
130.0
 10
758.7750104157357
 20
3.9559246782873547
 30
130.0
 10
753.2249088037403
 20
4.084813262055528
 30
130.0
 10
750.4497805793682
 20
4.150299877503551
 30
130.0
 10
747.6746772712305
 20
4.216834091413103
 30
130.0
 10
744.8995996655465
 20
4.284423457918389
 30
130.0
  0
LINE
  5
D8
330
17
100
AcDbEntity
  8
0
100
AcDbLine
 10
744.9
 20
26.29936261959105
 30
130.0
 11
744.9
 21
4.2844137328260565
 31
130.0
  0
SPLINE
  5
D9
330
17
100
AcDbEntity
  8
0
100
AcDbSpline
 70
0
 71
4
 72
10
 73
5
 74
0
 40
0.0
 40
0.0
 40
0.0
 40
0.0
 40
0.0
 40
1.0
 40
1.0
 40
1.0
 40
1.0
 40
1.0
 10
741.099999399971
 20
26.299475546417526
 30
130.0
 10
742.0499968001851
 20
26.299336379120952
 30
130.0
 10
742.9999961442642
 20
26.299271874504537
 30
130.0
 10
743.949997416121
 20
26.299280972966933
 30
130.0
 10
744.9000006000294
 20
26.29936261484759
 30
130.0
  0
LINE
  5
DA
330
17
100
AcDbEntity
  8
0
100
AcDbLine
 10
741.1
 20
26.299475550204555
 30
130.0
 11
741.1
 21
4.377709430487373
 31
130.0
  0
SPLINE
  5
DB
330
17
100
AcDbEntity
  8
0
100
AcDbSpline
 70
0
 71
4
 72
13
 73
8
 74
0
 40
0.0
 40
0.0
 40
0.0
 40
0.0
 40
0.0
 40
0.4999807296878858
 40
0.4999807296878858
 40
0.4999807296878858
 40
1.0
 40
1.0
 40
1.0
 40
1.0
 40
1.0
 10
741.0999999993709
 20
4.377709405056522
 30
130.0
 10
738.32497504259
 20
4.4463843812565065
 30
130.0
 10
735.5499763302466
 20
4.516119699086397
 30
130.0
 10
732.7750046601712
 20
4.586923021367994
 30
130.0
 10
727.2249031456628
 20
4.730686389183617
 30
130.0
 10
724.4497733053907
 20
4.803646600446893
 30
130.0
 10
721.6746721590002
 20
4.877690225710383
 30
130.0
 10
718.8996005557616
 20
4.952824846994147
 30
130.0
  0
LINE
  5
DC
330
17
100
AcDbEntity
  8
0
100
AcDbLine
 10
718.9
 20
26.318863154245964
 30
130.0
 11
718.9
 21
4.952814057405501
 31
130.0
  0
SPLINE
  5
DD
330
17
100
AcDbEntity
  8
0
100
AcDbSpline
 70
0
 71
4
 72
10
 73
5
 74
0
 40
0.0
 40
0.0
 40
0.0
 40
0.0
 40
0.0
 40
1.0
 40
1.0
 40
1.0
 40
1.0
 40
1.0
 10
715.0999994000301
 20
26.325615065675088
 30
130.0
 10
716.0499964442865
 20
26.323794387139316
 30
130.0
 10
716.9999956715639
 20
26.322062882155397
 30
130.0
 10
717.9499970629531
 20
26.3204194906835
 30
130.0
 10
718.90000059998
 20
26.31886315260211
 30
130.0
  0
LINE
  5
DE
330
17
100
AcDbEntity
  8
0
100
AcDbLine
 10
715.1
 20
26.32561506533374
 30
130.0
 11
715.1
 21
5.056467261016648
 31
130.0
  0
SPLINE
  5
DF
330
17
100
AcDbEntity
  8
0
100
AcDbSpline
 70
0
 71
4
 72
13
 73
8
 74
0
 40
0.0
 40
0.0
 40
0.0
 40
0.0
 40
0.0
 40
0.49999195528872314
 40
0.49999195528872314
 40
0.49999195528872314
 40
0.9999754948860016
 40
0.9999754948860016
 40
0.9999754948860016
 40
0.9999754948860016
 40
0.9999754948860016
 10
715.100399298485
 20
5.056456263208151
 30
130.0
 10
712.3252321370078
 20
5.132717309683555
 30
130.0
 10
709.5500951073009
 20
5.210074681455002
 30
130.0
 10
706.7749890711931
 20
5.288536076487734
 30
130.0
 10
701.224887470792
 20
5.447680829007039
 30
130.0
 10
698.4498919052837
 20
5.528364149010669
 30
130.0
 10
695.6749291096695
 20
5.610166780196364
 30
130.0
 10
692.8999999992976
 20
5.693096352057171
 30
130.0
  0
LINE
  5
E0
330
17
100
AcDbEntity
  8
0
100
AcDbLine
 10
692.9
 20
26.38727003400075
 30
130.0
 11
692.9
 21
5.693096375555906
 31
130.0
  0
SPLINE
  5
E1
330
17
100
AcDbEntity
  8
0
100
AcDbSpline
 70
0
 71
4
 72
10
 73
5
 74
0
 40
0.0
 40
0.0
 40
0.0
 40
0.0
 40
0.0
 40
1.0
 40
1.0
 40
1.0
 40
1.0
 40
1.0
 10
689.099999400087
 20
26.401853026250826
 30
130.0
 10
690.0499960257531
 20
26.39805279675671
 30
130.0
 10
690.999995115684
 20
26.39435626021722
 30
130.0
 10
691.9499966476496
 20
26.390762356150063
 30
130.0
 10
692.900000599925
 20
26.387270023972672
 30
130.0
  0
LINE
  5
E2
330
17
100
AcDbEntity
  8
0
100
AcDbLine
 10
689.1
 20
26.4018530306867
 30
130.0
 11
689.1
 21
5.807454975920047
 31
130.0
  0
SPLINE
  5
E3
330
17
100
AcDbEntity
  8
0
100
AcDbSpline
 70
0
 71
4
 72
13
 73
8
 74
0
 40
0.0
 40
0.0
 40
0.0
 40
0.0
 40
0.0
 40
0.5300046983604139
 40
0.5300046983604139
 40
0.5300046983604139
 40
1.0
 40
1.0
 40
1.0
 40
1.0
 40
1.0
 10
689.1003981856932
 20
5.807442886327674
 30
130.0
 10
686.1586537631445
 20
5.896588709522387
 30
130.0
 10
683.2169479083433
 20
5.987006989631846
 30
130.0
 10
680.2752817275558
 20
6.078706954124751
 30
130.0
 10
674.7250943900194
 20
6.254159769835399
 30
130.0
 10
672.116564514228
 20
6.337636867342432
 30
130.0
 10
669.5080672122749
 20
6.422125370847028
 30
130.0
 10
666.8996029687764
 20
6.507622177081296
 30
130.0
  0
LINE
  5
E4
330
17
100
AcDbEntity
  8
0
100
AcDbLine
 10
666.9
 20
26.512742519193857
 30
130.0
 11
666.9
 21
6.507609182987686
 31
130.0
  0
SPLINE
  5
E5
330
17
100
AcDbEntity
  8
0
100
AcDbSpline
 70
0
 71
4
 72
10
 73
5
 74
0
 40
0.0
 40
0.0
 40
0.0
 40
0.0
 40
0.0
 40
1.0
 40
1.0
 40
1.0
 40
1.0
 40
1.0
 10
663.0999994001472
 20
26.536349372835534
 30
130.0
 10
664.0499955342835
 20
26.530271330969384
 30
130.0
 10
664.9999944628869
 20
26.524311510411422
 30
130.0
 10
665.949996159907
 20
26.518468850261538
 30
130.0
 10
666.9000005998618
 20
26.512742289484372
 30
130.0
  0
LINE
  5
E6
330
17
100
AcDbEntity
  8
0
100
AcDbLine
 10
663.1
 20
26.53634969753878
 30
130.0
 11
663.1
 21
6.632963198271808
 31
130.0
  0
SPLINE
  5
E7
330
17
100
AcDbEntity
  8
0
100
AcDbSpline
 70
0
 71
4
 72
13
 73
8
 74
0
 40
0.0
 40
0.0
 40
0.0
 40
0.0
 40
0.0
 40
0.5002074579505422
 40
0.5002074579505422
 40
0.5002074579505422
 40
1.0
 40
1.0
 40
1.0
 40
1.0
 40
1.0
 10
663.100396793771
 20
6.632950006729793
 30
130.0
 10
660.3240304449209
 20
6.7251225088739
 30
130.0
 10
657.5477019521512
 20
6.818434913073594
 30
130.0
 10
654.7714119090219
 20
6.912883890959467
 30
130.0
 10
649.2212128054922
 20
7.103970568351139
 30
130.0
 10
646.4473036803579
 20
7.20060638724207
 30
130.0
 10
643.673434158643
 20
7.298371835487102
 30
130.0
 10
640.8996048683296
 20
7.397265169387047
 30
130.0
  0
LINE
  5
E8
330
17
100
AcDbEntity
  8
0
100
AcDbLine
 10
640.9
 20
26.703445305301415
 30
130.0
 11
640.9
 21
7.397251093920477
 31
130.0
  0
SPLINE
  5
E9
330
17
100
AcDbEntity
  8
0
100
AcDbSpline
 70
0
 71
4
 72
10
 73
5
 74
0
 40
0.0
 40
0.0
 40
0.0
 40
0.0
 40
0.0
 40
1.0
 40
1.0
 40
1.0
 40
1.0
 40
1.0
 10
637.0999994002118
 20
26.737270423042023
 30
130.0
 10
638.0499949595578
 20
26.728616065298127
 30
130.0
 10
638.9999936994194
 20
26.720094466439477
 30
130.0
 10
639.9499955894065
 20
26.711704565185766
 30
130.0
 10
640.9000005997977
 20
26.70344530008682
 30
130.0
  0
LINE
  5
EA
330
17
100
AcDbEntity
  8
0
100
AcDbLine
 10
637.1
 20
26.737270535311225
 30
130.0
 11
637.1
 21
7.533524171324133
 31
130.0
  0
SPLINE
  5
EB
330
17
100
AcDbEntity
  8
0
100
AcDbSpline
 70
0
 71
4
 72
13
 73
8
 74
0
 40
0.0
 40
0.0
 40
0.0
 40
0.0
 40
0.0
 40
0.5004210025770747
 40
0.5004210025770747
 40
0.5004210025770747
 40
1.0
 40
1.0
 40
1.0
 40
1.0
 40
1.0
 10
637.0999999996213
 20
7.5335241608251104
 30
130.0
 10
634.322488900434
 20
7.633710033165404
 30
130.0
 10
631.5450185769572
 20
7.7350257603377255
 30
130.0
 10
628.7675896721232
 20
7.837469990645212
 30
130.0
 10
623.2174892479245
 20
8.044439991276635
 30
130.0
 10
620.4448175871016
 20
8.148961969457615
 30
130.0
 10
617.6721885377109
 20
8.254607534783053
 30
130.0
 10
614.8996027943753
 20
8.361376916549851
 30
130.0
  0
LINE
  5
EC
330
17
100
AcDbEntity
  8
0
100
AcDbLine
 10
614.9
 20
26.967551302795997
 30
130.0
 11
614.9
 21
8.361361617579512
 31
130.0
  0
SPLINE
  5
ED
330
17
100
AcDbEntity
  8
0
100
AcDbSpline
 70
0
 71
4
 72
10
 73
5
 74
0
 40
0.0
 40
0.0
 40
0.0
 40
0.0
 40
0.0
 40
1.0
 40
1.0
 40
1.0
 40
1.0
 40
1.0
 10
611.0999994002809
 20
27.012789432648713
 30
130.0
 10
612.049994291239
 20
27.00125999301362
 30
130.0
 10
612.9999928114876
 20
26.989877859159964
 30
130.0
 10
613.9499949258179
 20
26.978641969487295
 30
130.0
 10
614.900000599747
 20
26.96755126219454
 30
130.0
  0
LINE
  5
EE
330
17
100
AcDbEntity
  8
0
100
AcDbLine
 10
611.1
 20
27.01278945497661
 30
130.0
 11
611.1
 21
8.508488398310515
 31
130.0
  0
SPLINE
  5
EF
330
17
100
AcDbEntity
  8
0
100
AcDbSpline
 70
0
 71
4
 72
13
 73
8
 74
0
 40
0.0
 40
0.0
 40
0.0
 40
0.0
 40
0.0
 40
0.5006582943009645
 40
0.5006582943009645
 40
0.5006582943009645
 40
1.0
 40
1.0
 40
1.0
 40
1.0
 40
1.0
 10
611.1000000001771
 20
8.50848840286227
 30
130.0
 10
608.3211624498682
 20
8.616658153547947
 30
130.0
 10
605.5423688869776
 20
8.725957128049975
 30
130.0
 10
602.7636200270709
 20
8.836385960425133
 30
130.0
 10
597.213520412531
 20
9.0592127975205
 30
130.0
 10
594.4421694192293
 20
9.171604860911502
 30
130.0
 10
591.6708643884942
 20
9.285123726366013
 30
130.0
 10
588.8996061068377
 20
9.399771656911813
 30
130.0
  0
LINE
  5
F0
330
17
100
AcDbEntity
  8
0
100
AcDbLine
 10
588.9
 20
27.31323985775647
 30
130.0
 11
588.9
 21
9.39975534780812
 31
130.0
  0
SPLINE
  5
F1
330
17
100
AcDbEntity
  8
0
100
AcDbSpline
 70
0
 71
4
 72
10
 73
5
 74
0
 40
0.0
 40
0.0
 40
0.0
 40
0.0
 40
0.0
 40
1.0
 40
1.0
 40
1.0
 40
1.0
 40
1.0
 10
585.0999994003398
 20
27.371087162296128
 30
130.0
 10
586.0499935189388
 20
27.356383591811205
 30
130.0
 10
586.9999917852504
 20
27.341841883218898
 30
130.0
 10
587.9499941587362
 20
27.327460974692805
 30
130.0
 10
588.9000005996575
 20
27.313239804164958
 30
130.0
  0
LINE
  5
F2
330
17
100
AcDbEntity
  8
0
100
AcDbLine
 10
585.1
 20
27.371087447122953
 30
130.0
 11
585.1
 21
9.557760413410648
 31
130.0
  0
SPLINE
  5
F3
330
17
100
AcDbEntity
  8
0
100
AcDbSpline
 70
0
 71
4
 72
13
 73
8
 74
0
 40
0.0
 40
0.0
 40
0.0
 40
0.0
 40
0.0
 40
0.5009109737351379
 40
0.5009109737351379
 40
0.5009109737351379
 40
1.0
 40
1.0
 40
1.0
 40
1.0
 40
1.0
 10
585.1000000006286
 20
9.557760428453372
 30
130.0
 10
582.3197982007774
 20
9.673946071109604
 30
130.0
 10
579.5396440044856
 20
9.791269825432959
 30
130.0
 10
576.7595382265661
 20
9.90973439577355
 30
130.0
 10
571.209537043313
 20
10.148517207974765
 30
130.0
 10
568.4396412802575
 20
10.268827141465179
 30
130.0
 10
565.6697952966097
 20
10.390276701574926
 30
130.0
 10
562.9000000009697
 20
10.512870325889736
 30
130.0
  0
LINE
  5
F4
330
17
100
AcDbEntity
  8
0
100
AcDbLine
 10
562.9
 20
27.748698577560017
 30
130.0
 11
562.9
 21
10.512870303981044
 31
130.0
  0
SPLINE
  5
F5
330
17
100
AcDbEntity
  8
0
100
AcDbSpline
 70
0
 71
4
 72
10
 73
5
 74
0
 40
0.0
 40
0.0
 40
0.0
 40
0.0
 40
0.0
 40
1.0
 40
1.0
 40
1.0
 40
1.0
 40
1.0
 10
559.0999994004308
 20
27.820352445745662
 30
130.0
 10
560.0499926323288
 20
27.802175392043285
 30
130.0
 10
560.9999906069227
 20
27.784174765240028
 30
130.0
 10
561.9499932778433
 20
27.766349503405287
 30
130.0
 10
562.9000005995929
 20
27.748698544320593
 30
130.0
  0
LINE
  5
F6
330
17
100
AcDbEntity
  8
0
100
AcDbLine
 10
559.1
 20
27.820352457906683
 30
130.0
 11
559.1
 21
10.681871610569736
 31
130.0
  0
SPLINE
  5
F7
330
17
100
AcDbEntity
  8
0
100
AcDbSpline
 70
0
 71
4
 72
13
 73
8
 74
0
 40
0.0
 40
0.0
 40
0.0
 40
0.0
 40
0.0
 40
0.5011667419567662
 40
0.5011667419567662
 40
0.5011667419567662
 40
1.0
 40
1.0
 40
1.0
 40
1.0
 40
1.0
 10
559.1000000010135
 20
10.681871633248646
 30
130.0
 10
556.3183657592084
 20
10.80617553333115
 30
130.0
 10
553.5367832801609
 20
10.931636570689335
 30
130.0
 10
550.7552535102737
 20
11.058259689334482
 30
130.0
 10
545.2052522477725
 20
11.313246851322427
 30
130.0
 10
542.4367802562684
 20
11.441600045443241
 30
130.0
 10
539.668362484362
 20
11.571116228494459
 30
130.0
 10
536.9000000008907
 20
11.701802250272298
 30
130.0
  0
LINE
  5
F8
330
17
100
AcDbEntity
  8
0
100
AcDbLine
 10
536.9
 20
28.282123674127302
 30
130.0
 11
536.9
 21
11.701802231401096
 31
130.0
  0
SPLINE
  5
F9
330
17
100
AcDbEntity
  8
0
100
AcDbSpline
 70
0
 71
4
 72
10
 73
5
 74
0
 40
0.0
 40
0.0
 40
0.0
 40
0.0
 40
0.0
 40
1.0
 40
1.0
 40
1.0
 40
1.0
 40
1.0
 10
533.099999400494
 20
28.368782759817048
 30
130.0
 10
534.049991620961
 20
28.346832546627052
 30
130.0
 10
534.9999892625945
 20
28.32507333367671
 30
130.0
 10
535.9499922726936
 20
28.303504059086094
 30
130.0
 10
536.9000005994999
 20
28.282123660635264
 30
130.0
  0
LINE
  5
FA
330
17
100
AcDbEntity
  8
0
100
AcDbLine
 10
533.1
 20
28.368782745965053
 30
130.0
 11
533.1
 21
11.882018345736396
 31
130.0
  0
SPLINE
  5
FB
330
17
100
AcDbEntity
  8
0
100
AcDbSpline
 70
0
 71
4
 72
13
 73
8
 74
0
 40
0.0
 40
0.0
 40
0.0
 40
0.0
 40
0.0
 40
0.5014409373893827
 40
0.5014409373893827
 40
0.5014409373893827
 40
1.0
 40
1.0
 40
1.0
 40
1.0
 40
1.0
 10
533.1000000008536
 20
11.882018363649003
 30
130.0
 10
530.3168287511662
 20
12.014619548038254
 30
130.0
 10
527.5337141393434
 20
12.148408097219313
 30
130.0
 10
524.7506572845327
 20
12.283391467792335
 30
130.0
 10
519.2006559055019
 20
12.554982262718713
 30
130.0
 10
516.4337107058046
 20
12.691575897441576
 30
130.0
 10
513.6668249778455
 20
12.829367587277115
 30
130.0
 10
510.9000000004561
 20
12.968366953886244
 30
130.0
  0
LINE
  5
FC
330
17
100
AcDbEntity
  8
0
100
AcDbLine
 10
510.9
 20
28.921720478217157
 30
130.0
 11
510.9
 21
12.968366944807538
 31
130.0
  0
SPLINE
  5
FD
330
17
100
AcDbEntity
  8
0
100
AcDbSpline
 70
0
 71
4
 72
10
 73
5
 74
0
 40
0.0
 40
0.0
 40
0.0
 40
0.0
 40
0.0
 40
1.0
 40
1.0
 40
1.0
 40
1.0
 40
1.0
 10
507.0999994005975
 20
29.02458475658293
 30
130.0
 10
508.04999047576047
 20
28.99856148832648
 30
130.0
 10
508.9999877380235
 20
28.972743534813066
 30
130.0
 10
509.94999113306767
 20
28.947130297601785
 30
130.0
 10
510.90000059941536
 20
28.921720462184638
 30
130.0
  0
LINE
  5
FE
330
17
100
AcDbEntity
  8
0
100
AcDbLine
 10
507.1
 20
29.024584746081764
 30
130.0
 11
507.1
 21
13.160128877151568
 31
130.0
  0
SPLINE
  5
FF
330
17
100
AcDbEntity
  8
0
100
AcDbSpline
 70
0
 71
4
 72
13
 73
8
 74
0
 40
0.0
 40
0.0
 40
0.0
 40
0.0
 40
0.0
 40
0.501746552205391
 40
0.501746552205391
 40
0.501746552205391
 40
1.0
 40
1.0
 40
1.0
 40
1.0
 40
1.0
 10
507.1000000003676
 20
13.160128884402287
 30
130.0
 10
504.31511434772943
 20
13.301294464409109
 30
130.0
 10
501.53029114996315
 20
13.44369049176329
 30
130.0
 10
498.7455317534275
 20
13.587327343612301
 30
130.0
 10
493.19553021637694
 20
13.876097381694796
 30
129.99999999999997
 10
490.4302871708013
 20
14.02121319263171
 30
130.0
 10
487.6651099133034
 20
14.167575668211125
 30
130.0
 10
484.8999999999918
 20
14.31519772579473
 30
130.0
  0
LINE
  5
100
330
17
100
AcDbEntity
  8
0
100
AcDbLine
 10
484.9
 20
29.675035601760904
 30
130.0
 11
484.9
 21
14.315197725946948
 31
130.0
  0
SPLINE
  5
101
330
17
100
AcDbEntity
  8
0
100
AcDbSpline
 70
0
 71
4
 72
10
 73
5
 74
0
 40
0.0
 40
0.0
 40
0.0
 40
0.0
 40
0.0
 40
1.0
 40
1.0
 40
1.0
 40
1.0
 40
1.0
 10
481.0999994006853
 20
29.794919516794796
 30
130.0
 10
482.0499893944344
 20
29.764634387209828
 30
130.0
 10
482.99998629444497
 20
29.734558898027405
 30
130.0
 10
483.9499900471611
 20
29.70469273145829
 30
130.0
 10
484.90000059932606
 20
29.675035569339503
 30
130.0
  0
LINE
  5
102
330
17
100
AcDbEntity
  8
0
100
AcDbLine
 10
481.1
 20
29.794919511845364
 30
130.0
 11
481.1
 21
14.51896670396489
 31
130.0
  0
SPLINE
  5
103
330
17
100
AcDbEntity
  8
0
100
AcDbSpline
 70
0
 71
4
 72
13
 73
8
 74
0
 40
0.0
 40
0.0
 40
0.0
 40
0.0
 40
0.0
 40
0.5020818555607578
 40
0.5020818555607578
 40
0.5020818555607578
 40
1.0
 40
1.0
 40
1.0
 40
1.0
 40
1.0
 10
481.1000000000187
 20
14.518966704312305
 30
130.0
 10
478.3132311807596
 20
14.669062061633477
 30
130.0
 10
475.52653187537294
 20
14.820446132738116
 30
130.0
 10
472.73990373184597
 20
14.973132807461734
 30
130.0
 10
467.18990197406384
 20
15.279865279185099
 30
130.00000000000003
 10
464.42652715537855
 20
15.433889310057506
 30
129.99999999999994
 10
461.66322585486427
 20
15.589224925067018
 30
129.99999999999991
 10
458.90000000007655
 20
15.745889094366204
 30
129.9999999999999
  0
LINE
  5
104
330
17
100
AcDbEntity
  8
0
100
AcDbLine
 10
458.9
 20
30.545879583054447
 30
130.0
 11
458.9
 21
15.745889093016505
 31
130.0
  0
SPLINE
  5
105
330
17
100
AcDbEntity
  8
0
100
AcDbSpline
 70
0
 71
4
 72
10
 73
5
 74
0
 40
0.0
 40
0.0
 40
0.0
 40
0.0
 40
0.0
 40
1.0
 40
1.0
 40
1.0
 40
1.0
 40
1.0
 10
455.0999994007805
 20
30.68315127891382
 30
130.0
 10
456.0499882713066
 20
30.64851258435408
 30
130.0
 10
456.99998479834306
 20
30.614087944312264
 30
130.0
 10
457.94998892613563
 20
30.579877041422492
 30
130.0
 10
458.9000005992334
 20
30.545879557927705
 30
130.0
  0
LINE
  5
106
330
17
100
AcDbEntity
  8
0
100
AcDbLine
 10
455.1
 20
30.68315126112414
 30
130.0
 11
455.1
 21
15.962282445876067
 31
130.0
  0
SPLINE
  5
107
330
17
100
AcDbEntity
  8
0
100
AcDbSpline
 70
0
 71
4
 72
13
 73
8
 74
0
 40
0.0
 40
0.0
 40
0.0
 40
0.0
 40
0.0
 40
0.5024648708021651
 40
0.5024648708021651
 40
0.5024648708021651
 40
1.0
 40
1.0
 40
1.0
 40
1.0
 40
1.0
 10
455.1000000000799
 20
15.962282447271312
 30
130.0
 10
452.31107784414206
 20
16.121797302695285
 30
130.0
 10
449.52223392623574
 20
16.282677798302554
 30
130.0
 10
446.7334703012583
 20
16.444942194565282
 30
130.0
 10
441.1834682438432
 20
16.770673758873237
 30
130.0
 10
438.4222282004629
 20
16.934113515253014
 30
130.0
 10
435.66107130752323
 20
17.098949979985143
 30
130.0
 10
432.900000000031
 20
17.26520527585559
 30
130.0
  0
LINE
  5
108
330
17
100
AcDbEntity
  8
0
100
AcDbLine
 10
432.9
 20
31.536766095480175
 30
130.0
 11
432.9
 21
17.265205275338463
 31
130.0
  0
SPLINE
  5
109
330
17
100
AcDbEntity
  8
0
100
AcDbSpline
 70
0
 71
4
 72
10
 73
5
 74
0
 40
0.0
 40
0.0
 40
0.0
 40
0.0
 40
0.0
 40
1.0
 40
1.0
 40
1.0
 40
1.0
 40
1.0
 10
429.0999994008814
 20
31.691793277014185
 30
130.0
 10
430.0499871018803
 20
31.652709086103272
 30
130.0
 10
430.9999832405349
 20
31.613843366158402
 30
130.0
 10
431.94998775884903
 20
31.575195800301223
 30
130.0
 10
432.9000005991345
 20
31.536766071244102
 30
130.0
  0
LINE
  5
10A
330
17
100
AcDbEntity
  8
0
100
AcDbLine
 10
429.1
 20
31.691793252365382
 30
130.0
 11
429.1
 21
17.495033889428196
 31
130.0
  0
SPLINE
  5
10B
330
17
100
AcDbEntity
  8
0
100
AcDbSpline
 70
0
 71
4
 72
13
 73
8
 74
0
 40
0.0
 40
0.0
 40
0.0
 40
0.0
 40
0.0
 40
0.6646138679101303
 40
0.6646138679101303
 40
0.6646138679101303
 40
1.0
 40
1.0
 40
1.0
 40
1.0
 40
1.0
 10
429.1000000000149
 20
17.495033889672307
 30
130.0
 10
425.41102684828064
 20
17.719136650708844
 30
130.0
 10
421.72220954417014
 20
17.94580015853276
 30
130.0
 10
418.0335541128725
 20
18.17507942246047
 30
130.0
 10
412.4837352294594
 20
18.524092530130257
 30
130.0
 10
410.62244593627986
 20
18.641829085190846
 30
130.00000000000006
 10
408.76120053787366
 20
18.760256301280812
 30
130.00000000000009
 10
406.89999999996024
 20
18.879383040433854
 30
130.0000000000001
  0
LINE
  5
10C
330
17
100
AcDbEntity
  8
0
100
AcDbLine
 10
406.9
 20
32.65021379511336
 30
130.0
 11
406.9
 21
18.879383041056187
 31
130.0
  0
SPLINE
  5
10D
330
17
100
AcDbEntity
  8
0
100
AcDbSpline
 70
0
 71
4
 72
10
 73
5
 74
0
 40
0.0
 40
0.0
 40
0.0
 40
0.0
 40
0.0
 40
1.0
 40
1.0
 40
1.0
 40
1.0
 40
1.0
 10
403.09999940098106
 20
32.82336511395952
 30
130.0
 10
404.04998588515525
 20
32.77974325975855
 30
130.0
 10
404.99998161969046
 20
32.73634429498958
 30
130.0
 10
405.94998654430344
 20
32.69316790332996
 30
130.0
 10
406.9000005990292
 20
32.65021376802873
 30
130.0
  0
LINE
  5
10E
330
17
100
AcDbEntity
  8
0
100
AcDbLine
 10
403.1
 20
32.82336508929138
 30
130.0
 11
403.1
 21
19.123706151374442
 31
130.0
  0
SPLINE
  5
10F
330
17
100
AcDbEntity
  8
0
100
AcDbSpline
 70
0
 71
4
 72
19
 73
14
 74
0
 40
0.0
 40
0.0
 40
0.0
 40
0.0
 40
0.0
 40
0.2525379533003913
 40
0.2525379533003913
 40
0.2525379533003913
 40
0.5034150749268473
 40
0.5034150749268473
 40
0.5034150749268473
 40
0.7525799503938443
 40
0.7525799503938443
 40
0.7525799503938443
 40
1.0
 40
1.0
 40
1.0
 40
1.0
 40
1.0
 10
403.0999999999536
 20
19.123706150656673
 30
130.0
 10
401.6982312405672
 20
19.21424230326627
 30
130.0
 10
400.2964885022655
 20
19.30518054338011
 30
130.0
 10
398.89477221775
 20
19.39652486245722
 30
130.0
 10
396.10061176667455
 20
19.57943059674544
 30
130.0
 10
394.7081672476933
 20
19.670986638682432
 30
130.0
 10
393.3157497346809
 20
19.762951691523597
 30
130.0
 10
390.5404727901577
 20
19.947078083637845
 30
130.0
 10
389.1576129848875
 20
20.03923380002897
 30
130.0
 10
387.7747807553037
 20
20.131801566430916
 30
130.0
 10
385.0188557979558
 20
20.31711916273601
 30
130.0
 10
383.64576267815215
 20
20.40986317425487
 30
130.0
 10
382.2726977264556
 20
20.503022447186783
 30
130.0
 10
380.8996614585136
 20
20.596601685438852
 30
130.0
  0
LINE
  5
110
330
17
100
AcDbEntity
  8
0
100
AcDbLine
 10
380.9
 20
33.888747893708285
 30
130.0
 11
380.9
 21
20.596578612117106
 31
130.0
  0
SPLINE
  5
111
330
17
100
AcDbEntity
  8
0
100
AcDbSpline
 70
0
 71
4
 72
10
 73
5
 74
0
 40
0.0
 40
0.0
 40
0.0
 40
0.0
 40
0.0
 40
1.0
 40
1.0
 40
1.0
 40
1.0
 40
1.0
 10
377.09999940108986
 20
34.080392975052106
 30
130.0
 10
378.0499846201486
 20
34.03214104727706
 30
130.0
 10
378.99997993449267
 20
33.98411642907363
 30
130.0
 10
379.9499852815126
 20
33.93631880474682
 30
130.0
 10
380.90000059892066
 20
33.88874785815383
 30
130.0
  0
LINE
  5
112
330
17
100
AcDbEntity
  8
0
100
AcDbLine
 10
377.1
 20
34.080392950373664
 30
130.0
 11
377.1
 21
20.8567856628986
 31
130.0
  0
SPLINE
  5
113
330
17
100
AcDbEntity
  8
0
100
AcDbSpline
 70
0
 71
5
 72
24
 73
18
 74
0
 40
0.0
 40
0.0
 40
0.0
 40
0.0
 40
0.0
 40
0.0
 40
0.25300508774245234
 40
0.25300508774245234
 40
0.25300508774245234
 40
0.25300508774245234
 40
0.5040461956018744
 40
0.5040461956018744
 40
0.5040461956018744
 40
0.5040461956018744
 40
0.7530615254172913
 40
0.7530615254172913
 40
0.7530615254172913
 40
0.7530615254172913
 40
1.0
 40
1.0
 40
1.0
 40
1.0
 40
1.0
 40
1.0
 10
377.1000000000151
 20
20.856785663118004
 30
130.0
 10
375.9765036950185
 20
20.934079833579744
 30
130.0
 10
374.85302585664
 20
21.0116418426562
 30
130.0
 10
373.7295667174636
 20
21.089473818156986
 30
130.0
 10
372.6061265173926
 20
21.167577946560936
 30
130.0
 10
370.3680051693583
 20
21.32372657751992
 30
130.0
 10
369.25332372495404
 20
21.401766840001024
 30
130.0
 10
368.13866141245427
 20
21.480079461755846
 30
130.0
 10
367.02401848240424
 20
21.55866671690236
 30
130.0
 10
364.80376636607116
 20
21.715758792336665
 30
130.0
 10
363.69815686417326
 20
21.79425916107607
 30
130.0
 10
362.59256694101424
 20
21.873034349098322
 30
130.0
 10
361.4869968584903
 20
21.952086723416848
 30
130.0
 10
359.2851175025443
 20
22.110089081318797
 30
130.0
 10
358.1888078828384
 20
22.189034249305408
 30
130.0
 10
357.0925183827113
 20
22.26825785488089
 30
130.0
 10
355.9962490276785
 20
22.347758936759824
 30
130.0
 10
354.9000000000594
 20
22.427538674592657
 30
130.0
  0
LINE
  5
114
330
17
100
AcDbEntity
  8
0
100
AcDbLine
 10
354.9
 20
35.254900350352564
 30
130.0
 11
354.9
 21
22.42753867377529
 31
130.0
  0
SPLINE
  5
115
330
17
100
AcDbEntity
  8
0
100
AcDbSpline
 70
0
 71
4
 72
10
 73
5
 74
0
 40
0.0
 40
0.0
 40
0.0
 40
0.0
 40
0.0
 40
1.0
 40
1.0
 40
1.0
 40
1.0
 40
1.0
 10
351.09999940117257
 20
35.46540984300769
 30
130.0
 10
352.049983305845
 20
35.412435180197924
 30
130.0
 10
352.9999781836053
 20
35.35969224839887
 30
130.0
 10
353.9499839694764
 20
35.30718073261916
 30
130.0
 10
354.90000059880686
 20
35.25490031739959
 30
130.0
  0
LINE
  5
116
330
17
100
AcDbEntity
  8
0
100
AcDbLine
 10
351.1
 20
35.465409809614826
 30
130.0
 11
351.1
 21
22.705432803142152
 31
130.0
  0
SPLINE
  5
117
330
17
100
AcDbEntity
  8
0
100
AcDbSpline
 70
0
 71
4
 72
19
 73
14
 74
0
 40
0.0
 40
0.0
 40
0.0
 40
0.0
 40
0.0
 40
0.25337305733114723
 40
0.25337305733114723
 40
0.25337305733114723
 40
0.5045057016646227
 40
0.5045057016646227
 40
0.5045057016646227
 40
0.7533846924874141
 40
0.7533846924874141
 40
0.7533846924874141
 40
1.0
 40
1.0
 40
1.0
 40
1.0
 40
1.0
 10
351.10000000001435
 20
22.705432803337132
 30
130.0
 10
349.6935588854983
 20
22.808785804326185
 30
130.0
 10
348.2871539804912
 20
22.912630372945074
 30
130.0
 10
346.88078568122455
 20
23.01696834684087
 30
130.0
 10
344.0805583688792
 20
23.225707777746713
 30
130.0
 10
342.6866987045818
 20
23.33010052058639
 30
130.0
 10
341.29287578832304
 20
23.43498157175956
 30
130.0
 10
338.5178120275882
 20
23.644778363805735
 30
130.0
 10
337.13657051936826
 20
23.74968534715834
 30
130.0
 10
335.7553658871282
 20
23.85507550194747
 30
130.0
 10
333.0055936060254
 20
24.06586281657691
 30
130.0
 10
331.6370252817719
 20
24.1712511891933
 30
130.0
 10
330.26849394799353
 20
24.27711756832733
 30
130.0
 10
328.89999999991664
 20
24.383463738825775
 30
130.0
  0
LINE
  5
118
330
17
100
AcDbEntity
  8
0
100
AcDbLine
 10
328.9
 20
36.751210139567846
 30
130.0
 11
328.9
 21
24.38346373989899
 31
130.0
  0
SPLINE
  5
119
330
17
100
AcDbEntity
  8
0
100
AcDbSpline
 70
0
 71
4
 72
10
 73
5
 74
0
 40
0.0
 40
0.0
 40
0.0
 40
0.0
 40
0.0
 40
1.0
 40
1.0
 40
1.0
 40
1.0
 40
1.0
 10
325.09999940132946
 20
36.98095571429087
 30
130.0
 10
326.0499819413428
 20
36.92316539592949
 30
130.0
 10
326.9999763657804
 20
36.86561123091253
 30
130.0
 10
327.9499826072571
 20
36.80829290503254
 30
130.0
 10
328.90000059871693
 20
36.75121010359334
 30
130.0
  0
LINE
  5
11A
330
17
100
AcDbEntity
  8
0
100
AcDbLine
 10
325.1
 20
36.980955677871926
 30
130.0
 11
325.1
 21
24.68016145404942
 31
130.0
  0
SPLINE
  5
11B
330
17
100
AcDbEntity
  8
0
100
AcDbSpline
 70
0
 71
4
 72
19
 73
14
 74
0
 40
0.0
 40
0.0
 40
0.0
 40
0.0
 40
0.0
 40
0.2536833025182718
 40
0.2536833025182718
 40
0.2536833025182718
 40
0.504918687956725
 40
0.504918687956725
 40
0.504918687956725
 40
0.7536933908233087
 40
0.7536933908233087
 40
0.7536933908233087
 40
1.0
 40
1.0
 40
1.0
 40
1.0
 40
1.0
 10
325.0999999998863
 20
24.68016145260083
 30
130.0
 10
323.6918130666819
 20
24.790629491289877
 30
130.0
 10
322.283666313703
 20
24.90160830868458
 30
130.0
 10
320.87556018397976
 20
25.013099948164417
 30
130.0
 10
318.07301719502004
 20
25.23603214222333
 30
130.0
 10
316.6785795472972
 20
25.347462813325667
 30
130.0
 10
315.2841826228486
 20
25.45940046226548
 30
130.0
 10
312.50912790158026
 20
25.68319247415226
 30
130.0
 10
311.12846930221184
 20
25.79503691484601
 30
130.0
 10
309.74785150953727
 20
25.907382449811106
 30
130.0
 10
307.0003951316379
 20
26.131960213982584
 30
130.0
 10
305.63355573151404
 20
26.244182505054614
 30
130.0
 10
304.26675720666
 20
26.35689998863992
 30
130.0
 10
302.89999999991215
 20
26.470114662601144
 30
130.0
  0
LINE
  5
11C
330
17
100
AcDbEntity
  8
0
100
AcDbLine
 10
302.9
 20
38.380223421903644
 30
130.0
 11
302.9
 21
26.470114663661775
 31
130.0
  0
SPLINE
  5
11D
330
17
100
AcDbEntity
  8
0
100
AcDbSpline
 70
0
 71
4
 72
10
 73
5
 74
0
 40
0.0
 40
0.0
 40
0.0
 40
0.0
 40
0.0
 40
1.0
 40
1.0
 40
1.0
 40
1.0
 40
1.0
 10
299.0999994014315
 20
38.629577816906874
 30
130.0
 10
300.0499805255454
 20
38.56687865548593
 30
130.0
 10
300.99997447960476
 20
38.504420070202
 30
130.0
 10
301.94998119377885
 20
38.44220174771568
 30
130.0
 10
302.90000059856476
 20
38.38022337417774
 30
130.0
  0
LINE
  5
11E
330
17
100
AcDbEntity
  8
0
100
AcDbLine
 10
299.1
 20
38.62957778573294
 30
130.0
 11
299.1
 21
26.786339937516715
 31
130.0
  0
SPLINE
  5
11F
330
17
100
AcDbEntity
  8
0
100
AcDbSpline
 70
0
 71
4
 72
19
 73
14
 74
0
 40
0.0
 40
0.0
 40
0.0
 40
0.0
 40
0.0
 40
0.2540567298283596
 40
0.2540567298283596
 40
0.2540567298283596
 40
0.5054157287605888
 40
0.5054157287605888
 40
0.5054157287605888
 40
0.7540647283218989
 40
0.7540647283218989
 40
0.7540647283218989
 40
1.0
 40
1.0
 40
1.0
 40
1.0
 40
1.0
 10
299.09999999996586
 20
26.786339937108906
 30
130.0
 10
297.689713510546
 20
26.904240731250777
 30
130.0
 10
296.27947168409617
 20
27.022673986562047
 30
130.0
 10
294.8692750213897
 20
27.141642001623854
 30
130.0
 10
292.0639468963533
 20
27.379383190749703
 30
130.0
 10
290.6688144695579
 20
27.498145024194283
 30
130.0
 10
289.273727248272
 20
27.617434841102156
 30
130.0
 10
286.49868472240183
 20
27.85578324799802
 30
130.0
 10
285.11872843741617
 20
27.974830464986937
 30
130.0
 10
283.7388173805117
 20
28.09439885185164
 30
130.0
 10
280.9941464360642
 20
28.333271905378417
 30
130.0
 10
279.6293855552857
 20
28.45256520393416
 30
130.0
 10
278.2646699091624
 20
28.57237285701997
 30
130.0
 10
276.9000000000732
 20
28.692697129157793
 30
130.0
  0
LINE
  5
120
330
17
100
AcDbEntity
  8
0
100
AcDbLine
 10
276.9
 20
40.14449374740856
 30
130.0
 11
276.9
 21
28.692697128326582
 31
130.0
  0
SPLINE
  5
121
330
17
100
AcDbEntity
  8
0
100
AcDbSpline
 70
0
 71
4
 72
10
 73
5
 74
0
 40
0.0
 40
0.0
 40
0.0
 40
0.0
 40
0.0
 40
1.0
 40
1.0
 40
1.0
 40
1.0
 40
1.0
 10
273.09999940158264
 20
40.41383082962504
 30
130.0
 10
274.0499790575846
 20
40.34612936265889
 30
130.0
 10
274.99997252388715
 20
40.278672894613564
 30
130.0
 10
275.94997972817356
 20
40.21146111310643
 30
130.0
 10
276.90000059845795
 20
40.14449370522297
 30
130.0
  0
LINE
  5
122
330
17
100
AcDbEntity
  8
0
100
AcDbLine
 10
273.1
 20
40.413830786978096
 30
130.0
 11
273.1
 21
29.029264032582738
 31
130.0
  0
SPLINE
  5
123
330
17
100
AcDbEntity
  8
0
100
AcDbSpline
 70
0
 71
4
 72
19
 73
14
 74
0
 40
0.0
 40
0.0
 40
0.0
 40
0.0
 40
0.0
 40
0.25451475496298015
 40
0.25451475496298015
 40
0.25451475496298015
 40
0.5060252381400413
 40
0.5060252381400413
 40
0.5060252381400413
 40
0.7545197004521811
 40
0.7545197004521811
 40
0.7545197004521811
 40
1.0
 40
1.0
 40
1.0
 40
1.0
 40
1.0
 10
273.10000000004663
 20
29.0292640331074
 30
130.0
 10
271.68714053891983
 20
29.15496666292181
 30
130.0
 10
270.2743308705528
 20
29.28122657752896
 30
130.0
 10
268.8615715693351
 20
29.408046401377618
 30
130.0
 10
266.05283037386437
 20
29.661307568872978
 30
130.0
 10
264.6568472841567
 20
29.787735714375582
 30
130.0
 10
263.26091452352927
 20
29.914715808580393
 30
130.0
 10
260.48588973485766
 20
30.16825586814096
 30
130.0
 10
259.1067964930446
 20
30.294802612050027
 30
130.0
 10
257.72775352031545
 20
30.42189331143173
 30
130.0
 10
254.98649604077985
 20
30.675619715290342
 30
130.0
 10
253.62428030741864
 20
30.802242236172404
 30
130.0
 10
252.2621147670846
 20
30.929400746216935
 30
130.0
 10
250.90000000007424
 20
31.05709785474313
 30
130.0
  0
LINE
  5
124
330
17
100
AcDbEntity
  8
0
100
AcDbLine
 10
250.9
 20
42.0465823577984
 30
130.0
 11
250.9
 21
31.057097853951106
 31
130.0
  0
SPLINE
  5
125
330
17
100
AcDbEntity
  8
0
100
AcDbSpline
 70
0
 71
4
 72
10
 73
5
 74
0
 40
0.0
 40
0.0
 40
0.0
 40
0.0
 40
0.0
 40
1.0
 40
1.0
 40
1.0
 40
1.0
 40
1.0
 10
247.09999940171707
 20
42.3362771027869
 30
130.0
 10
248.04997753642238
 20
42.26347958476941
 30
130.0
 10
248.9999704972596
 20
42.190931487948035
 30
130.0
 10
249.94997820938877
 20
42.11863250098996
 30
130.0
 10
250.90000059830322
 20
42.04658231200749
 30
130.0
  0
LINE
  5
126
330
17
100
AcDbEntity
  8
0
100
AcDbLine
 10
247.1
 20
42.336277056940034
 30
130.0
 11
247.1
 21
31.414934325145257
 31
130.0
  0
SPLINE
  5
127
330
17
100
AcDbEntity
  8
0
100
AcDbSpline
 70
0
 71
4
 72
19
 73
14
 74
0
 40
0.0
 40
0.0
 40
0.0
 40
0.0
 40
0.0
 40
0.2550896285778195
 40
0.2550896285778195
 40
0.2550896285778195
 40
0.5067898977247128
 40
0.5067898977247128
 40
0.5067898977247128
 40
0.7550895946318276
 40
0.7550895946318276
 40
0.7550895946318276
 40
1.0
 40
1.0
 40
1.0
 40
1.0
 40
1.0
 10
247.10000000008338
 20
31.41493432602634
 30
130.0
 10
245.68391388328118
 20
31.54887742930376
 30
130.0
 10
244.2678835414517
 20
31.683406770830317
 30
130.0
 10
242.8519096477322
 20
31.818525406547252
 30
130.0
 10
240.03888933958632
 20
32.08814432248683
 30
130.0
 10
238.64184141717828
 20
32.222628968688376
 30
130.0
 10
237.24484979760007
 20
32.35769340852503
 30
130.0
 10
234.4698537033681
 20
32.62715546944861
 30
130.0
 10
233.09184769910968
 20
32.76153744632117
 30
130.0
 10
231.71389782889744
 20
32.896489692255045
 30
130.0
 10
228.97691998711437
 20
33.16569101257088
 30
130.0
 10
227.6178904744804
 20
33.29992453741921
 30
130.0
 10
226.2589169150602
 20
33.43471888606218
 30
130.0
 10
224.89999999991127
 20
33.57007712985032
 30
130.0
  0
LINE
  5
128
330
17
100
AcDbEntity
  8
0
100
AcDbLine
 10
224.9
 20
44.08905834771028
 30
130.0
 11
224.9
 21
33.570077130740366
 31
130.0
  0
SPLINE
  5
129
330
17
100
AcDbEntity
  8
0
100
AcDbSpline
 70
0
 71
4
 72
10
 73
5
 74
0
 40
0.0
 40
0.0
 40
0.0
 40
0.0
 40
0.0
 40
1.0
 40
1.0
 40
1.0
 40
1.0
 40
1.0
 10
221.09999940184252
 20
44.3994868806616
 30
130.0
 10
222.04997596112293
 20
44.32149927496315
 30
130.0
 10
222.9999683984805
 20
44.24376551169529
 30
130.0
 10
223.9499766365157
 20
44.16628528067218
 30
130.0
 10
224.90000059816458
 20
44.08905827112962
 30
130.0
  0
LINE
  5
12A
330
17
100
AcDbEntity
  8
0
100
AcDbLine
 10
221.1
 20
44.39948683889175
 30
130.0
 11
221.1
 21
33.95026004322399
 31
130.0
  0
SPLINE
  5
12B
330
17
100
AcDbEntity
  8
0
100
AcDbSpline
 70
0
 71
4
 72
19
 73
14
 74
0
 40
0.0
 40
0.0
 40
0.0
 40
0.0
 40
0.0
 40
0.25583209889728137
 40
0.25583209889728137
 40
0.25583209889728137
 40
0.5077764801472782
 40
0.5077764801472782
 40
0.5077764801472782
 40
0.7558224412079358
 40
0.7558224412079358
 40
0.7558224412079358
 40
1.0
 40
1.0
 40
1.0
 40
1.0
 40
1.0
 10
221.0999999999792
 20
33.95026004301671
 30
130.0
 10
219.67974958373583
 20
34.09298102969198
 30
130.0
 10
218.25956212742875
 20
34.236322861846624
 30
130.0
 10
216.83943844944633
 20
34.38028918978294
 30
130.0
 10
214.02090009485323
 20
34.66728104957608
 30
130.0
 10
212.6224834693317
 20
34.810287635731285
 30
130.0
 10
211.2241303468815
 20
34.95390714137418
 30
130.0
 10
208.44918902505955
 20
35.240147690896194
 30
130.0
 10
207.07259884951927
 20
35.382749798586374
 30
130.0
 10
205.69607188574633
 20
35.52595323223527
 30
130.0
 10
202.96461275909226
 20
35.811327453390916
 30
130.0
 10
201.6096786130758
 20
35.9534795130324
 30
130.0
 10
200.25480739883318
 20
36.09622147874955
 30
130.0
 10
198.89999999995194
 20
36.239557039202005
 30
130.0
  0
LINE
  5
12C
330
17
100
AcDbEntity
  8
0
100
AcDbLine
 10
198.9
 20
46.27449879622519
 30
130.0
 11
198.9
 21
36.23955703965666
 31
130.0
  0
SPLINE
  5
12D
330
17
100
AcDbEntity
  8
0
100
AcDbSpline
 70
0
 71
4
 72
10
 73
5
 74
0
 40
0.0
 40
0.0
 40
0.0
 40
0.0
 40
0.0
 40
1.0
 40
1.0
 40
1.0
 40
1.0
 40
1.0
 10
195.09999940198776
 20
46.606038525461926
 30
130.0
 10
196.0499743307538
 20
46.522766496169965
 30
130.0
 10
196.9999662262887
 20
46.439752728936476
 30
130.0
 10
197.94997500859537
 20
46.3569969148246
 30
130.0
 10
198.9000005980215
 20
46.2744987442943
 30
130.0
  0
LINE
  5
12E
330
17
100
AcDbEntity
  8
0
100
AcDbLine
 10
195.1
 20
46.606038473041906
 30
130.0
 11
195.1
 21
36.64336505108184
 31
130.0
  0
SPLINE
  5
12F
330
17
100
AcDbEntity
  8
0
100
AcDbSpline
 70
0
 71
4
 72
19
 73
14
 74
0
 40
0.0
 40
0.0
 40
0.0
 40
0.0
 40
0.0
 40
0.2578465139366925
 40
0.2578465139366925
 40
0.2578465139366925
 40
0.510097852025231
 40
0.510097852025231
 40
0.510097852025231
 40
0.7577797931115756
 40
0.7577797931115756
 40
0.7577797931115756
 40
1.0
 40
1.0
 40
1.0
 40
1.0
 40
1.0
 10
195.100000000051
 20
36.64336505155977
 30
130.0
 10
193.6685107199478
 20
36.796153970549526
 30
130.0
 10
192.23709412296833
 20
36.9496115989507
 30
130.0
 10
190.80575130880203
 20
37.10374245055454
 30
130.0
 10
187.97427364108833
 20
37.41000061633554
 30
130.0
 10
186.5741355707037
 20
37.562098831664514
 30
130.0
 10
185.17407039080862
 20
37.71485019805102
 30
130.0
 10
182.39944841311197
 20
38.01888929799327
 30
130.0
 10
181.02488895659278
 20
38.17015341841255
 30
130.0
 10
179.65040217827152
 20
38.32205582975324
 30
130.0
 10
176.93188447472642
 20
38.6237819716085
 30
130.0
 10
175.58785032564734
 20
38.77357766602035
 30
130.0
 10
174.2438882997466
 20
38.923991927960444
 30
130.0
 10
172.89999999989348
 20
39.07502858320193
 30
130.0
  0
LINE
  5
130
330
17
100
AcDbEntity
  8
0
100
AcDbLine
 10
172.9
 20
48.60548927924073
 30
130.0
 11
172.9
 21
39.07502858414983
 31
130.0
  0
SPLINE
  5
131
330
17
100
AcDbEntity
  8
0
100
AcDbSpline
 70
0
 71
4
 72
10
 73
5
 74
0
 40
0.0
 40
0.0
 40
0.0
 40
0.0
 40
0.0
 40
1.0
 40
1.0
 40
1.0
 40
1.0
 40
1.0
 10
169.0999994021489
 20
48.95851874306065
 30
130.0
 10
170.04997264437682
 20
48.86986764675452
 30
130.0
 10
170.9999639794347
 20
48.78147922992911
 30
130.0
 10
171.94997332469708
 20
48.693353185002536
 30
130.0
 10
172.90000059788525
 20
48.60548920376468
 30
130.0
  0
LINE
  5
132
330
17
100
AcDbEntity
  8
0
100
AcDbLine
 10
169.1
 20
48.958518937509034
 30
130.0
 11
169.1
 21
39.50399929383379
 31
130.0
  0
SPLINE
  5
133
330
17
100
AcDbEntity
  8
0
100
AcDbSpline
 70
0
 71
7
 72
28
 73
20
 74
0
 40
0.0
 40
0.0
 40
0.0
 40
0.0
 40
0.0
 40
0.0
 40
0.0
 40
0.0
 40
0.4396854847104631
 40
0.4396854847104631
 40
0.4396854847104631
 40
0.4396854847104631
 40
0.4396854847104631
 40
0.4396854847104631
 40
0.8631237806269472
 40
0.8631237806269472
 40
0.8631237806269472
 40
0.8631237806269472
 40
0.8631237806269472
 40
0.8631237806269472
 40
1.0
 40
1.0
 40
1.0
 40
1.0
 40
1.0
 40
1.0
 40
1.0
 40
1.0
 10
169.09999999971228
 20
39.5039992912963
 30
130.0
 10
167.70501335920991
 20
39.66217410290228
 30
130.0
 10
166.31009876858076
 20
39.82094175405086
 30
130.0
 10
164.91525748549572
 20
39.98030574214832
 30
130.0
 10
163.5204910911181
 20
40.140269619455076
 30
130.0
 10
162.12580150696536
 20
40.30083703080422
 30
130.0
 10
160.73119108186984
 20
40.46201171700082
 30
130.0
 10
157.99366480756677
 20
40.77960496862138
 30
130.0
 10
156.65074387232423
 20
40.935979107584714
 30
130.0
 10
155.30790165904563
 20
41.092923408154824
 30
130.0
 10
153.96514143669512
 20
41.25044132607821
 30
130.0
 10
152.62246853886583
 20
41.408536208966964
 30
130.0
 10
151.27989029894567
 20
41.56721131203603
 30
130.0
 10
149.503465183738
 20
41.77794963463191
 30
130.0
 10
149.0695230649212
 20
41.82949068196813
 30
130.0
 10
148.63559259043052
 20
41.88109273857066
 30
130.0
 10
148.20167429500353
 20
41.93275588679412
 30
130.0
 10
147.76776884776115
 20
41.98448019453141
 30
130.0
 10
147.3338770778358
 20
42.03626571173001
 30
130.0
 10
146.9
 20
42.08811246690844
 30
130.0
  0
LINE
  5
134
330
17
100
AcDbEntity
  8
0
100
AcDbLine
 10
146.9
 20
51.08462371829209
 30
130.0
 11
146.9
 21
42.08811246690829
 31
130.0
  0
SPLINE
  5
135
330
17
100
AcDbEntity
  8
0
100
AcDbSpline
 70
0
 71
4
 72
10
 73
5
 74
0
 40
0.0
 40
0.0
 40
0.0
 40
0.0
 40
0.0
 40
1.0
 40
1.0
 40
1.0
 40
1.0
 40
1.0
 10
143.09999940192563
 20
51.45952281049446
 30
130.0
 10
144.0499709007552
 20
51.36539768794848
 30
130.0
 10
144.99996165646334
 20
51.27153965946651
 30
130.0
 10
145.94997158376424
 20
51.177948418932395
 30
130.0
 10
146.90000059772018
 20
51.08462365957591
 30
130.0
  0
LINE
  5
136
330
17
100
AcDbEntity
  8
0
100
AcDbLine
 10
143.1
 20
51.45952275123602
 30
130.0
 11
143.1
 21
42.54428074310875
 31
130.0
  0
SPLINE
  5
137
330
17
100
AcDbEntity
  8
0
100
AcDbSpline
 70
0
 71
8
 72
60
 73
51
 74
0
 40
0.0
 40
0.0
 40
0.0
 40
0.0
 40
0.0
 40
0.0
 40
0.0
 40
0.0
 40
0.0
 40
0.45482301785040374
 40
0.45482301785040374
 40
0.45482301785040374
 40
0.45482301785040374
 40
0.45482301785040374
 40
0.45482301785040374
 40
0.45482301785040374
 40
0.6864312089138934
 40
0.6864312089138934
 40
0.6864312089138934
 40
0.6864312089138934
 40
0.6864312089138934
 40
0.6864312089138934
 40
0.6864312089138934
 40
0.8065498508199054
 40
0.8065498508199054
 40
0.8065498508199054
 40
0.8065498508199054
 40
0.8065498508199054
 40
0.8065498508199054
 40
0.8065498508199054
 40
0.8531551187472252
 40
0.8531551187472252
 40
0.8531551187472252
 40
0.8531551187472252
 40
0.8531551187472252
 40
0.8531551187472252
 40
0.8531551187472252
 40
0.9032557163820546
 40
0.9032557163820546
 40
0.9032557163820546
 40
0.9032557163820546
 40
0.9032557163820546
 40
0.9032557163820546
 40
0.9032557163820546
 40
0.945822896960286
 40
0.945822896960286
 40
0.945822896960286
 40
0.945822896960286
 40
0.945822896960286
 40
0.945822896960286
 40
0.945822896960286
 40
1.0
 40
1.0
 40
1.0
 40
1.0
 40
1.0
 40
1.0
 40
1.0
 40
1.0
 40
1.0
 10
143.10000000000002
 20
42.544280743108835
 30
130.0
 10
142.71092775371875
 20
42.59120094977728
 30
130.0
 10
142.32188169244606
 20
42.638168425706596
 30
130.0
 10
141.93286226003
 20
42.685183219913746
 30
130.0
 10
141.5438724547615
 20
42.7322450735752
 30
130.0
 10
141.15491913469003
 20
42.779353259969504
 30
130.0
 10
140.76601272849265
 20
42.82650661650317
 30
130.0
 10
140.3771685195928
 20
42.873703383072375
 30
130.0
 10
139.79044767105069
 20
42.94499485963492
 30
130.0
 10
139.59250953361862
 20
42.96905923200797
 30
130.0
 10
139.39459891203424
 20
42.99313350399243
 30
130.0
 10
139.19671958809803
 20
43.017217238348906
 30
130.0
 10
138.998880048837
 20
43.04130941555886
 30
130.0
 10
138.80109315849148
 20
43.06540847737537
 30
130.0
 10
138.60337774906532
 20
43.08951213924824
 30
130.0
 10
138.30327881462458
 20
43.12611767814997
 30
130.0
 10
138.20082471450755
 20
43.13861843017543
 30
130.0
 10
138.09840440919578
 20
43.15111864041509
 30
130.0
 10
137.99602273548123
 20
43.1636177179769
 30
130.0
 10
137.89369072659443
 20
43.176114314118706
 30
130.0
 10
137.79142514084967
 20
43.188606378829974
 30
130.0
 10
137.68925055087965
 20
43.201090903522875
 30
130.0
 10
137.54761772540573
 20
43.21840170392764
 30
130.0
 10
137.5080477365498
 20
43.223238607113856
 30
130.0
 10
137.46850115823517
 20
43.2280731853687
 30
130.0
 10
137.42898147634713
 20
43.232905011621014
 30
130.0
 10
137.3894936298314
 20
43.237733480909775
 30
130.0
 10
137.35004429781705
 20
43.24255777508619
 30
130.0
 10
137.31064252393404
 20
43.24737678620147
 30
130.0
 10
137.22900824845374
 20
43.25736212013605
 30
130.0
 10
137.18683064161763
 20
43.26252181102097
 30
130.0
 10
137.14473736742573
 20
43.26767179532824
 30
130.0
 10
137.1027382698894
 20
43.272810864847166
 30
130.0
 10
137.06085886943535
 20
43.27793589484622
 30
130.0
 10
137.01919914096945
 20
43.2830346419833
 30
130.0
 10
136.97786603760872
 20
43.288094004657985
 30
130.0
 10
136.9025667069138
 20
43.29731202938777
 30
130.0
 10
136.87162062227668
 20
43.30110081160974
 30
130.0
 10
136.84498069090827
 20
43.30436270198923
 30
130.0
 10
136.82287093225486
 20
43.30707010107682
 30
130.0
 10
136.80513041369213
 20
43.30924258297687
 30
130.0
 10
136.791187702208
 20
43.31095004675218
 30
130.0
 10
136.7801836557969
 20
43.31229766787998
 30
130.0
 10
136.7603814991253
 20
43.314722804905294
 30
130.0
 10
136.75855427264946
 20
43.31493295356955
 30
130.0
 10
136.7544668804093
 20
43.31550208527388
 30
130.0
 10
136.7507874192583
 20
43.31579581830379
 30
130.0
 10
136.74903517475093
 20
43.316221155958814
 30
130.0
 10
136.75041135968212
 20
43.315876276020134
 30
130.0
 10
136.74991110012502
 20
43.31602591502255
 30
130.0
 10
136.74999617366592
 20
43.31599474785548
 30
130.0
  0
SPLINE
  5
138
330
17
100
AcDbEntity
  8
0
100
AcDbSpline
 70
0
 71
8
 72
375
 73
366
 74
0
 40
0.0
 40
0.0
 40
0.0
 40
0.0
 40
0.0
 40
0.0
 40
0.0
 40
0.0
 40
0.0
 40
0.0012034675112474467
 40
0.0012034675112474467
 40
0.0012034675112474467
 40
0.0012034675112474467
 40
0.0012034675112474467
 40
0.0012034675112474467
 40
0.0012034675112474467
 40
0.0046847637440426615
 40
0.0046847637440426615
 40
0.0046847637440426615
 40
0.0046847637440426615
 40
0.0046847637440426615
 40
0.0046847637440426615
 40
0.0046847637440426615
 40
0.006208833783504566
 40
0.006208833783504566
 40
0.006208833783504566
 40
0.006208833783504566
 40
0.006208833783504566
 40
0.006208833783504566
 40
0.006208833783504566
 40
0.007923351546657062
 40
0.007923351546657062
 40
0.007923351546657062
 40
0.007923351546657062
 40
0.007923351546657062
 40
0.007923351546657062
 40
0.007923351546657062
 40
0.011919250398855297
 40
0.011919250398855297
 40
0.011919250398855297
 40
0.011919250398855297
 40
0.011919250398855297
 40
0.011919250398855297
 40
0.011919250398855297
 40
0.016297927762075205
 40
0.016297927762075205
 40
0.016297927762075205
 40
0.016297927762075205
 40
0.016297927762075205
 40
0.016297927762075205
 40
0.016297927762075205
 40
0.019206949320401734
 40
0.019206949320401734
 40
0.019206949320401734
 40
0.019206949320401734
 40
0.019206949320401734
 40
0.019206949320401734
 40
0.019206949320401734
 40
0.022115970094008976
 40
0.022115970094008976
 40
0.022115970094008976
 40
0.022115970094008976
 40
0.022115970094008976
 40
0.022115970094008976
 40
0.022115970094008976
 40
0.02862398599981764
 40
0.02862398599981764
 40
0.02862398599981764
 40
0.02862398599981764
 40
0.02862398599981764
 40
0.02862398599981764
 40
0.02862398599981764
 40
0.04004371491253527
 40
0.04004371491253527
 40
0.04004371491253527
 40
0.04004371491253527
 40
0.04004371491253527
 40
0.04004371491253527
 40
0.04004371491253527
 40
0.046968821614225505
 40
0.046968821614225505
 40
0.046968821614225505
 40
0.046968821614225505
 40
0.046968821614225505
 40
0.046968821614225505
 40
0.046968821614225505
 40
0.054624765911878925
 40
0.054624765911878925
 40
0.054624765911878925
 40
0.054624765911878925
 40
0.054624765911878925
 40
0.054624765911878925
 40
0.054624765911878925
 40
0.07212349018418351
 40
0.07212349018418351
 40
0.07212349018418351
 40
0.07212349018418351
 40
0.07212349018418351
 40
0.07212349018418351
 40
0.07212349018418351
 40
0.11096070942477408
 40
0.11096070942477408
 40
0.11096070942477408
 40
0.11096070942477408
 40
0.11096070942477408
 40
0.11096070942477408
 40
0.11096070942477408
 40
0.17543156678429414
 40
0.17543156678429414
 40
0.17543156678429414
 40
0.17543156678429414
 40
0.17543156678429414
 40
0.17543156678429414
 40
0.17543156678429414
 40
0.19391015041852241
 40
0.19391015041852241
 40
0.19391015041852241
 40
0.19391015041852241
 40
0.19391015041852241
 40
0.19391015041852241
 40
0.19391015041852241
 40
0.26949203396698646
 40
0.26949203396698646
 40
0.26949203396698646
 40
0.26949203396698646
 40
0.26949203396698646
 40
0.26949203396698646
 40
0.26949203396698646
 40
0.39465021692771035
 40
0.39465021692771035
 40
0.39465021692771035
 40
0.39465021692771035
 40
0.39465021692771035
 40
0.39465021692771035
 40
0.39465021692771035
 40
0.4275205996249371
 40
0.4275205996249371
 40
0.4275205996249371
 40
0.4275205996249371
 40
0.4275205996249371
 40
0.4275205996249371
 40
0.4275205996249371
 40
0.45217297826755454
 40
0.45217297826755454
 40
0.45217297826755454
 40
0.45217297826755454
 40
0.45217297826755454
 40
0.45217297826755454
 40
0.45217297826755454
 40
0.526128308910418
 40
0.526128308910418
 40
0.526128308910418
 40
0.526128308910418
 40
0.526128308910418
 40
0.526128308910418
 40
0.526128308910418
 40
0.6658158675539089
 40
0.6658158675539089
 40
0.6658158675539089
 40
0.6658158675539089
 40
0.6658158675539089
 40
0.6658158675539089
 40
0.6658158675539089
 40
0.7110276149317841
 40
0.7110276149317841
 40
0.7110276149317841
 40
0.7110276149317841
 40
0.7110276149317841
 40
0.7110276149317841
 40
0.7110276149317841
 40
0.7202347127466582
 40
0.7202347127466582
 40
0.7202347127466582
 40
0.7202347127466582
 40
0.7202347127466582
 40
0.7202347127466582
 40
0.7202347127466582
 40
0.7305436799973034
 40
0.7305436799973034
 40
0.7305436799973034
 40
0.7305436799973034
 40
0.7305436799973034
 40
0.7305436799973034
 40
0.7305436799973034
 40
0.7697170409922124
 40
0.7697170409922124
 40
0.7697170409922124
 40
0.7697170409922124
 40
0.7697170409922124
 40
0.7697170409922124
 40
0.7697170409922124
 40
0.8171329504811007
 40
0.8171329504811007
 40
0.8171329504811007
 40
0.8171329504811007
 40
0.8171329504811007
 40
0.8171329504811007
 40
0.8171329504811007
 40
0.8356506222151954
 40
0.8356506222151954
 40
0.8356506222151954
 40
0.8356506222151954
 40
0.8356506222151954
 40
0.8356506222151954
 40
0.8356506222151954
 40
0.8539572592317343
 40
0.8539572592317343
 40
0.8539572592317343
 40
0.8539572592317343
 40
0.8539572592317343
 40
0.8539572592317343
 40
0.8539572592317343
 40
0.8872077384223901
 40
0.8872077384223901
 40
0.8872077384223901
 40
0.8872077384223901
 40
0.8872077384223901
 40
0.8872077384223901
 40
0.8872077384223901
 40
0.9010250627320321
 40
0.9010250627320321
 40
0.9010250627320321
 40
0.9010250627320321
 40
0.9010250627320321
 40
0.9010250627320321
 40
0.9010250627320321
 40
0.9082194250393674
 40
0.9082194250393674
 40
0.9082194250393674
 40
0.9082194250393674
 40
0.9082194250393674
 40
0.9082194250393674
 40
0.9082194250393674
 40
0.9154137837285323
 40
0.9154137837285323
 40
0.9154137837285323
 40
0.9154137837285323
 40
0.9154137837285323
 40
0.9154137837285323
 40
0.9154137837285323
 40
0.9398577989742781
 40
0.9398577989742781
 40
0.9398577989742781
 40
0.9398577989742781
 40
0.9398577989742781
 40
0.9398577989742781
 40
0.9398577989742781
 40
0.9519441747606802
 40
0.9519441747606802
 40
0.9519441747606802
 40
0.9519441747606802
 40
0.9519441747606802
 40
0.9519441747606802
 40
0.9519441747606802
 40
0.9629174652691568
 40
0.9629174652691568
 40
0.9629174652691568
 40
0.9629174652691568
 40
0.9629174652691568
 40
0.9629174652691568
 40
0.9629174652691568
 40
0.9713686117325085
 40
0.9713686117325085
 40
0.9713686117325085
 40
0.9713686117325085
 40
0.9713686117325085
 40
0.9713686117325085
 40
0.9713686117325085
 40
0.978479982330242
 40
0.978479982330242
 40
0.978479982330242
 40
0.978479982330242
 40
0.978479982330242
 40
0.978479982330242
 40
0.978479982330242
 40
0.9814947261274187
 40
0.9814947261274187
 40
0.9814947261274187
 40
0.9814947261274187
 40
0.9814947261274187
 40
0.9814947261274187
 40
0.9814947261274187
 40
0.984168847307631
 40
0.984168847307631
 40
0.984168847307631
 40
0.984168847307631
 40
0.984168847307631
 40
0.984168847307631
 40
0.984168847307631
 40
0.988423501804453
 40
0.988423501804453
 40
0.988423501804453
 40
0.988423501804453
 40
0.988423501804453
 40
0.988423501804453
 40
0.988423501804453
 40
0.9908342540212579
 40
0.9908342540212579
 40
0.9908342540212579
 40
0.9908342540212579
 40
0.9908342540212579
 40
0.9908342540212579
 40
0.9908342540212579
 40
0.9919534567206244
 40
0.9919534567206244
 40
0.9919534567206244
 40
0.9919534567206244
 40
0.9919534567206244
 40
0.9919534567206244
 40
0.9919534567206244
 40
0.9927546663124205
 40
0.9927546663124205
 40
0.9927546663124205
 40
0.9927546663124205
 40
0.9927546663124205
 40
0.9927546663124205
 40
0.9927546663124205
 40
0.9939215694431335
 40
0.9939215694431335
 40
0.9939215694431335
 40
0.9939215694431335
 40
0.9939215694431335
 40
0.9939215694431335
 40
0.9939215694431335
 40
0.9943676053400039
 40
0.9943676053400039
 40
0.9943676053400039
 40
0.9943676053400039
 40
0.9943676053400039
 40
0.9943676053400039
 40
0.9943676053400039
 40
0.9948136404657515
 40
0.9948136404657515
 40
0.9948136404657515
 40
0.9948136404657515
 40
0.9948136404657515
 40
0.9948136404657515
 40
0.9948136404657515
 40
0.9961508527753473
 40
0.9961508527753473
 40
0.9961508527753473
 40
0.9961508527753473
 40
0.9961508527753473
 40
0.9961508527753473
 40
0.9961508527753473
 40
0.9976352643595301
 40
0.9976352643595301
 40
0.9976352643595301
 40
0.9976352643595301
 40
0.9976352643595301
 40
0.9976352643595301
 40
0.9976352643595301
 40
0.9989303352384896
 40
0.9989303352384896
 40
0.9989303352384896
 40
0.9989303352384896
 40
0.9989303352384896
 40
0.9989303352384896
 40
0.9989303352384896
 40
0.9995225880199563
 40
0.9995225880199563
 40
0.9995225880199563
 40
0.9995225880199563
 40
0.9995225880199563
 40
0.9995225880199563
 40
0.9995225880199563
 40
1.0
 40
1.0
 40
1.0
 40
1.0
 40
1.0
 40
1.0
 40
1.0
 40
1.0
 40
1.0
 10
1862.8999999969064
 20
65.8775049137973
 30
130.0
 10
1862.964848766091
 20
65.95046329898264
 30
130.0
 10
1863.029292885069
 20
66.023778879709
 30
130.0
 10
1863.0933215860418
 20
66.09745670581444
 30
130.0
 10
1863.156923599181
 20
66.17150206355616
 30
130.0
 10
1863.2200871206646
 20
66.24592050569687
 30
130.0
 10
1863.2827997760635
 20
66.32071788593963
 30
130.0
 10
1863.345048578389
 20
66.39590039834164
 30
130.0
 10
1863.5855070469854
 20
66.69008979793139
 30
130.0
 10
1863.7601625731802
 20
66.91193934880538
 30
130.0
 10
1863.9304690760819
 20
67.13719130544244
 30
130.0
 10
1864.096026863218
 20
67.36600475478122
 30
130.0
 10
1864.2563529185484
 20
67.59853082800538
 30
130.0
 10
1864.4108700540341
 20
67.83492011950153
 30
130.0
 10
1864.558886226482
 20
68.0753365369855
 30
130.0
 10
1864.7611510825118
 20
68.42707851975008
 30
130.0
 10
1864.8207053316323
 20
68.5339000805331
 30
130.0
 10
1864.878205397837
 20
68.64042821901012
 30
130.0
 10
1864.9336296711642
 20
68.7466488877409
 30
130.0
 10
1864.9869563008954
 20
68.85254803798077
 30
130.0
 10
1865.0381631955568
 20
68.95811161968079
 30
130.0
 10
1865.0872280229157
 20
69.06332558148767
 30
130.0
 10
1865.186889042323
 20
69.28612824743676
 30
130.0
 10
1865.2369032064066
 20
69.40363065530798
 30
130.0
 10
1865.2841698597986
 20
69.52064805042106
 30
130.0
 10
1865.328641066682
 20
69.63715962017096
 30
130.0
 10
1865.3702382051085
 20
69.75315293792725
 30
130.0
 10
1865.4088683742443
 20
69.86861811767776
 30
130.0
 10
1865.4444408016168
 20
69.9835419686719
 30
130.0
 10
1865.552494449317
 20
70.364432907216
 30
130.0
 10
1865.6133154040674
 20
70.63576132949876
 30
130.0
 10
1865.656522010268
 20
70.91130748389324
 30
130.0
 10
1865.6787978031475
 20
71.1897872391146
 30
130.0
 10
1865.6766190498108
 20
71.46921237128291
 30
130.0
 10
1865.6468307362263
 20
71.74691085743652
 30
130.0
 10
1865.5876746675829
 20
72.0195448083119
 30
130.0
 10
1865.404829805339
 20
72.57190921088392
 30
130.0
 10
1865.2757144205457
 20
72.8491764078167
 30
130.0
 10
1865.114956977519
 20
73.10987951788766
 30
130.0
 10
1864.9272714555032
 20
73.35229674044865
 30
130.0
 10
1864.7181083164398
 20
73.57640271545287
 30
130.0
 10
1864.4925100304733
 20
73.78303897879961
 30
130.0
 10
1864.2545685441542
 20
73.97354738928404
 30
130.0
 10
1863.8427346146086
 20
74.26648209633956
 30
130.0
 10
1863.667578132267
 20
74.3816847968211
 30
130.0
 10
1863.481360239421
 20
74.49512604758013
 30
130.0
 10
1863.283772652431
 20
74.60677265763563
 30
130.0
 10
1863.0744946490922
 20
74.71659151445412
 30
130.0
 10
1862.853192756921
 20
74.8245490795763
 30
130.0
 10
1862.6195204414453
 20
74.93061088424422
 30
130.0
 10
1862.1267152140106
 20
75.13887113772257
 30
130.0
 10
1861.8675789637787
 20
75.2410709840057
 30
130.0
 10
1861.595349782834
 20
75.34130458769097
 30
130.0
 10
1861.309650680247
 20
75.43953634274206
 30
130.0
 10
1861.0100867301765
 20
75.53573046950972
 30
130.0
 10
1860.6962448669256
 20
75.62985047096866
 30
130.0
 10
1860.367693679996
 20
75.72185858895462
 30
130.0
 10
1859.255039504235
 20
76.01274120436179
 30
130.0
 10
1858.478843490626
 20
76.18506185287569
 30
130.0
 10
1857.6978740616178
 20
76.33581558410083
 30
130.0
 10
1856.913675654142
 20
76.46882496766517
 30
130.0
 10
1856.127341668015
 20
76.58711949642093
 30
130.0
 10
1855.3394781030465
 20
76.69281100240812
 30
130.0
 10
1854.5503236639934
 20
76.78764795897176
 30
130.0
 10
1852.372480154537
 20
77.02277256415553
 30
130.0
 10
1850.9821817468778
 20
77.14320088894719
 30
130.0
 10
1849.589978776321
 20
77.24162819051125
 30
130.0
 10
1848.196610470468
 20
77.32209389142851
 30
130.0
 10
1846.802583425795
 20
77.38773034170319
 30
130.0
 10
1845.4081642756846
 20
77.44073694733399
 30
130.0
 10
1844.0134221299045
 20
77.4829044501551
 30
130.0
 10
1841.772155515365
 20
77.5354791259885
 30
130.0
 10
1840.926000626826
 20
77.55184610286386
 30
130.0
 10
1840.0797828338054
 20
77.56507329537449
 30
130.0
 10
1839.2335207947353
 20
77.57540038017152
 30
130.0
 10
1838.3872292183662
 20
77.58304192919371
 30
130.0
 10
1837.540918962214
 20
77.58822231242645
 30
130.0
 10
1836.6945976019206
 20
77.59117030290624
 30
130.0
 10
1834.9126266400033
 20
77.5930717712351
 30
130.0
 10
1833.9501242325398
 20
77.59159507630044
 30
130.0
 10
1832.9601678283177
 20
77.58763855494935
 30
130.0
 10
1831.9421193645167
 20
77.581196277371
 30
130.0
 10
1830.8952981363025
 20
77.57226112816168
 30
130.0
 10
1829.818980796824
 20
77.56082480632479
 30
130.0
 10
1828.7124013572154
 20
77.54687782527081
 30
130.0
 10
1824.974493676868
 20
77.49276889689216
 30
130.0
 10
1822.3743926572233
 20
77.44430946463683
 30
130.0
 10
1819.7744432768707
 20
77.38740600840238
 30
130.0
 10
1817.174645928023
 20
77.32362798926688
 30
130.0
 10
1814.574996987612
 20
77.2541557419397
 30
130.0
 10
1811.9754853502882
 20
77.17992831350985
 30
130.0
 10
1809.3760914976826
 20
77.10168036784553
 30
130.0
 10
1801.0078051057965
 20
76.83879839860907
 30
130.0
 10
1795.239353083655
 20
76.64079058781698
 30
130.0
 10
1789.4712308445737
 20
76.43266396956217
 30
130.0
 10
1783.703340933504
 20
76.21789116114195
 30
130.0
 10
1777.935604129173
 20
75.99908114034103
 30
130.0
 10
1772.1679591353766
 20
75.77796955923588
 30
130.0
 10
1766.400344888649
 20
75.55592538144909
 30
130.0
 10
1751.0582485589166
 20
74.9655188885654
 30
130.0
 10
1741.4837727752013
 20
74.59731878745379
 30
130.0
 10
1731.9090938511677
 20
74.23407511809192
 30
130.0
 10
1722.334126503999
 20
73.87814524117917
 30
130.0
 10
1712.758817758866
 20
73.53117023759148
 30
130.0
 10
1703.183143603678
 20
73.19416457969041
 30
130.0
 10
1693.6070959827157
 20
72.86785860830372
 30
130.0
 10
1681.2858972517977
 20
72.46242265085777
 30
130.0
 10
1678.5275618107994
 20
72.37257420399419
 30
130.0
 10
1675.7555628380894
 20
72.28322950401662
 30
130.0
 10
1672.9698733838432
 20
72.19441540027634
 30
130.0
 10
1670.1705516725765
 20
72.10615205639638
 30
130.0
 10
1667.3577411031451
 20
72.01845295027155
 30
130.0
 10
1664.5316702487441
 20
71.93132487406842
 30
130.0
 10
1650.080383965023
 20
71.49072908162547
 30
130.0
 10
1638.46761641686
 20
71.15292014573343
 30
130.0
 10
1626.8544049606385
 20
70.83036867959639
 30
130.0
 10
1615.240798842793
 20
70.5221612651653
 30
130.0
 10
1603.6268406467502
 20
70.22748650770781
 30
130.0
 10
1592.0125664509765
 20
69.94562991310492
 30
130.0
 10
1580.3980063797198
 20
69.6759538123783
 30
130.0
 10
1549.549872103195
 20
68.99056942129616
 30
130.0
 10
1530.315852043314
 20
68.59510008228078
 30
130.0
 10
1511.0812343295167
 20
68.22892894207335
 30
130.0
 10
1491.8461100615818
 20
67.89003728750477
 30
130.0
 10
1472.6105539276684
 20
67.57681527590032
 30
130.0
 10
1453.3746259719862
 20
67.28796440742617
 30
130.0
 10
1434.1383727521975
 20
67.02243342479375
 30
130.0
 10
1409.8497204130422
 20
66.71555635291044
 30
130.0
 10
1404.7921435436406
 20
66.6532071085318
 30
130.0
 10
1399.7297125878476
 20
66.5923383793293
 30
130.0
 10
1394.6630429145928
 20
66.53294846640156
 30
130.0
 10
1389.5927499522295
 20
66.47503549980296
 30
130.0
 10
1384.5194491885366
 20
66.4185974385437
 30
130.0
 10
1379.443756170717
 20
66.36363207058984
 30
130.0
 10
1370.558247338688
 20
66.27001638418878
 30
130.0
 10
1366.749067736736
 20
66.23072163115019
 30
130.0
 10
1362.9391668823278
 20
66.19225217551285
 30
130.0
 10
1359.1288765257468
 20
66.15460881187298
 30
130.0
 10
1355.3184410051294
 20
66.11779161431241
 30
130.0
 10
1351.5080172668224
 20
66.08179784305344
 30
130.0
 10
1347.6976748857433
 20
66.0466198511135
 30
130.0
 10
1332.4568387110958
 20
65.90911492790498
 30
130.0
 10
1321.026216158208
 20
65.81320430175506
 30
130.0
 10
1309.5955361323663
 20
65.72424492235842
 30
130.0
 10
1298.1648057377372
 20
65.64195999793142
 30
130.0
 10
1286.734031468185
 20
65.56606340860192
 30
130.0
 10
1275.3032191980974
 20
65.49626097995285
 30
130.0
 10
1263.8723741732063
 20
65.43225175656568
 30
130.0
 10
1230.8507549030505
 20
65.2631914356835
 30
130.0
 10
1209.2599103192877
 20
65.1722280544136
 30
130.0
 10
1187.6689960409276
 20
65.09877222862296
 30
130.0
 10
1166.0780354685025
 20
65.04068476069794
 30
130.0
 10
1144.4870465596616
 20
64.99577438885875
 30
130.0
 10
1122.8960417878727
 20
64.9618138766329
 30
130.0
 10
1101.3050281124445
 20
64.93655196148563
 30
130.0
 10
1072.7257840754492
 20
64.91162632259424
 30
130.0
 10
1065.7375606104833
 20
64.90620521452696
 30
130.0
 10
1058.7493366965548
 20
64.9013809113926
 30
130.0
 10
1051.7611124447794
 20
64.89707635384595
 30
130.0
 10
1044.7728879458039
 20
64.89321435020966
 30
130.0
 10
1037.7846632698026
 20
64.8897175764743
 30
130.0
 10
1030.7964384664801
 20
64.88650857629825
 30
130.0
 10
1022.3851039983941
 20
64.88289907048362
 30
130.0
 10
1019.5525531585477
 20
64.88169005522535
 30
130.0
 10
1015.9268082661074
 20
64.88019060001406
 30
130.0
 10
1011.9666118631823
 20
64.8786077623632
 30
130.0
 10
1007.9754781806799
 20
64.87706178730443
 30
130.0
 10
1004.1039695055703
 20
64.8756001221735
 30
130.0
 10
1000.3519725481485
 20
64.87421143139613
 30
130.0
 10
992.3374820574807
 20
64.87130361708768
 30
130.0
 10
988.1039909796228
 20
64.86980176094453
 30
130.0
 10
983.870501834432
 20
64.86832851913427
 30
130.0
 10
979.637014886913
 20
64.86687838683163
 30
130.0
 10
975.4035304083711
 20
64.8654458780962
 30
130.0
 10
971.170048676412
 20
64.86402552587235
 30
130.0
 10
966.9365699749413
 20
64.86261188198927
 30
130.0
 10
946.6161815870659
 20
64.8558326287103
 30
130.0
 10
930.5292686343458
 20
64.85048430766288
 30
130.0
 10
914.4423557617177
 20
64.84485594626578
 30
130.0
 10
898.3554430631783
 20
64.83865278521382
 30
130.0
 10
882.2685307023112
 20
64.8315810023245
 30
130.0
 10
866.1816189135856
 20
64.82334480121284
 30
130.0
 10
850.0947080036565
 20
64.81364349996628
 30
130.0
 10
814.5360085293075
 20
64.7882792862362
 30
130.0
 10
795.0642209393732
 20
64.77179120789995
 30
130.0
 10
775.592435995121
 20
64.75215721429763
 30
130.0
 10
756.1206547563725
 20
64.72881041616095
 30
130.0
 10
736.6488789402383
 20
64.70115627850547
 30
130.0
 10
717.177110939826
 20
64.66855911140506
 30
130.0
 10
697.7053538519344
 20
64.63032297850162
 30
130.0
 10
670.6291737501914
 20
64.56822721603683
 30
130.0
 10
663.0247383064241
 20
64.54980096446174
 30
130.0
 10
655.4203052107773
 20
64.53044276976864
 30
130.0
 10
647.8158744447742
 20
64.51022781843909
 30
130.0
 10
640.2114459984448
 20
64.48919954234998
 30
130.0
 10
632.6070198143989
 20
64.4674294838749
 30
130.0
 10
625.0025958188602
 20
64.4449696902193
 30
130.0
 10
609.880415009393
 20
64.39905532409638
 30
130.0
 10
602.3626581559863
 20
64.37561471650547
 30
130.0
 10
594.8449032570932
 20
64.35161590797497
 30
130.0
 10
587.3271502032725
 20
64.32711582543152
 30
130.0
 10
579.8093988698165
 20
64.30217202882059
 30
130.0
 10
572.2916491152869
 20
64.27684320504086
 30
130.0
 10
564.7739007800517
 20
64.25118966187841
 30
130.0
 10
543.6016144526974
 20
64.17820269163084
 30
130.0
 10
529.9470794922795
 20
64.13026637129063
 30
130.0
 10
516.2925475426824
 20
64.08183863599619
 30
130.0
 10
502.63801736022185
 20
64.0333179258183
 30
130.0
 10
488.9834876891269
 20
63.985136376529624
 30
130.0
 10
475.32895721867624
 20
63.93777384962559
 30
130.0
 10
461.67442452675436
 20
63.8917769616592
 30
130.0
 10
442.3457093530219
 20
63.82950135302132
 30
130.0
 10
436.67153007984325
 20
63.811565490210214
 30
130.0
 10
430.9973500878039
 20
63.79402134057748
 30
130.0
 10
425.323169289881
 20
63.77691739293987
 30
130.0
 10
419.6489876136712
 20
63.7603052230662
 30
130.0
 10
413.97480500054627
 20
63.74423990793345
 30
130.0
 10
408.3006214048074
 20
63.72878043998302
 30
130.0
 10
399.6720196435876
 20
63.70628917377851
 30
130.0
 10
396.72923063868757
 20
63.698799925495244
 30
130.0
 10
393.79825250007485
 20
63.69152933773957
 30
130.0
 10
390.87926794764246
 20
63.684484312516624
 30
130.0
 10
387.9724596992423
 20
63.6776717126241
 30
130.0
 10
385.078010470685
 20
63.67109836165237
 30
130.0
 10
382.19610297573985
 20
63.66477104398449
 30
130.0
 10
376.45773831949106
 20
63.652621968662785
 30
130.0
 10
373.60127819693594
 20
63.646799521878975
 30
130.0
 10
370.75772531664273
 20
63.64123686237767
 30
130.0
 10
367.9272639282654
 20
63.63594110025556
 30
130.0
 10
365.1100767729373
 20
63.63091875777314
 30
130.0
 10
362.30634508327176
 20
63.62617576935463
 30
130.0
 10
359.516248583362
 20
63.62171748158799
 30
130.0
 10
347.30708769904095
 20
63.60338437417439
 30
130.0
 10
337.87420825765804
 20
63.59226598742905
 30
130.0
 10
328.4413292312536
 20
63.58405448764844
 30
130.0
 10
319.0084524131712
 20
63.5785525853693
 30
130.0
 10
309.5755793375583
 20
63.57546480490799
 30
130.0
 10
300.14271129769554
 20
63.574368396437414
 30
130.0
 10
290.70984939518206
 20
63.57463049971352
 30
130.0
 10
276.6129070945235
 20
63.575492046739214
 30
130.0
 10
271.94882145135836
 20
63.57585376811587
 30
130.0
 10
267.2847376864352
 20
63.57616628040002
 30
130.0
 10
262.62065589947196
 20
63.576277265488876
 30
130.0
 10
257.9565763216741
 20
63.57600393232417
 30
130.0
 10
253.29249931936212
 20
63.57512294841744
 30
130.0
 10
248.62842540010607
 20
63.57335433840983
 30
130.0
 10
239.72981891969843
 20
63.567602023941575
 30
130.0
 10
235.49528696719216
 20
63.56383667427954
 30
130.0
 10
231.2607587227894
 20
63.558776589491984
 30
130.0
 10
227.02623486065573
 20
63.55209430350461
 30
130.0
 10
222.79171737247225
 20
63.54339571168868
 30
130.0
 10
218.55720962994062
 20
63.53219340716548
 30
130.0
 10
214.32271650750513
 20
63.51785923708359
 30
130.0
 10
206.82704023000707
 20
63.485459790186006
 30
130.0
 10
203.56585277770074
 20
63.469009112970106
 30
130.0
 10
200.3046819215122
 20
63.44981937354106
 30
130.0
 10
197.04353182382437
 20
63.42743219185211
 30
130.0
 10
193.78241141045598
 20
63.40128349409089
 30
130.0
 10
190.52133459458847
 20
63.370676736825345
 30
130.0
 10
187.26032082366436
 20
63.33471933136083
 30
130.0
 10
181.25543228198276
 20
63.25638498065652
 30
130.0
 10
178.5115578123195
 20
63.21592942797106
 30
130.0
 10
175.76776548543324
 20
63.17008104254823
 30
130.0
 10
173.02407288733508
 20
63.117927411768534
 30
130.0
 10
170.28052325171427
 20
63.058339840998194
 30
130.0
 10
167.53719008234017
 20
62.98979917164999
 30
130.0
 10
164.79417861026855
 20
62.91031886446996
 30
130.0
 10
160.8889944157046
 20
62.77696325355085
 30
130.0
 10
159.72643538355445
 20
62.7347207058369
 30
130.0
 10
158.56398107073585
 20
62.68964657188256
 30
130.0
 10
157.40164607742457
 20
62.64157233302482
 30
130.0
 10
156.23946160864176
 20
62.59002923445476
 30
130.0
 10
155.07746215883245
 20
62.53455349290636
 30
130.0
 10
153.91567610156633
 20
62.47493476606079
 30
130.0
 10
151.72386503397541
 20
62.35357676039593
 30
130.0
 10
150.7284675849363
 20
62.2947685618553
 30
130.0
 10
149.76658141639288
 20
62.23422555642211
 30
130.0
 10
148.83690128719547
 20
62.17197400721556
 30
130.0
 10
147.93819578585286
 20
62.1080393436317
 30
130.0
 10
147.0693072927627
 20
62.04244662809258
 30
130.0
 10
146.22915194244214
 20
61.97522102279541
 30
130.0
 10
144.1241009096467
 20
61.796872038207866
 30
130.0
 10
142.83258216585057
 20
61.67743476008438
 30
130.0
 10
141.54210656782843
 20
61.54664969105194
 30
130.0
 10
140.25286166048656
 20
61.40273337540764
 30
130.0
 10
138.96528899793327
 20
61.243452188096654
 30
130.0
 10
137.6801424195985
 20
61.06571877673074
 30
130.0
 10
136.3984977918598
 20
60.86551696733909
 30
130.0
 10
134.39882449657728
 20
60.505243748123
 30
130.0
 10
133.67771417109262
 20
60.36546401760897
 30
130.0
 10
132.9586882079185
 20
60.214843119239454
 30
130.0
 10
132.24212020665564
 20
60.051676653654276
 30
130.0
 10
131.52879590330957
 20
59.8739241901905
 30
130.0
 10
130.82006208917613
 20
59.67871488686636
 30
130.0
 10
130.11779117662493
 20
59.462430974303345
 30
130.0
 10
129.1033692367876
 20
59.10516914959281
 30
130.0
 10
128.78398159601724
 20
58.985995464574245
 30
130.0
 10
128.46704878909136
 20
58.86023686045294
 30
130.0
 10
128.15299485188356
 20
58.72712338065165
 30
130.0
 10
127.84248019632044
 20
58.585753905799336
 30
130.0
 10
127.53641336267027
 20
58.43506966288072
 30
130.0
 10
127.2359908972869
 20
58.27376820339812
 30
130.0
 10
126.73292097455135
 20
57.975739910547375
 30
130.0
 10
126.52692228497915
 20
57.84515658301265
 30
130.0
 10
126.32529348403426
 20
57.70764565439782
 30
130.0
 10
126.12884182029462
 20
57.562510464022694
 30
130.0
 10
125.93868785470501
 20
57.40905091560339
 30
130.0
 10
125.7562630086561
 20
57.2465663122614
 30
130.0
 10
125.58328757872162
 20
57.07438143684652
 30
130.0
 10
125.18636553239614
 20
56.626192340701614
 30
130.0
 10
124.97233597018578
 20
56.33545098809735
 30
130.0
 10
124.79092358210312
 20
56.0218608232032
 30
130.0
 10
124.65108078135881
 20
55.688406563605895
 30
130.0
 10
124.55822328850618
 20
55.33929490311938
 30
130.0
 10
124.51309084889834
 20
54.98038393569445
 30
130.0
 10
124.51139509258327
 20
54.619395497741195
 30
130.0
 10
124.55784742324245
 20
54.130448957429316
 30
130.0
 10
124.57600408866557
 20
53.99468532502531
 30
130.0
 10
124.59928397900954
 20
53.8583909539399
 30
130.0
 10
124.62750138177681
 20
53.72158786528447
 30
130.0
 10
124.66047226548184
 20
53.584298524511624
 30
130.0
 10
124.6980139798399
 20
53.44654578031804
 30
130.0
 10
124.73994495595585
 20
53.30835280354718
 30
130.0
 10
124.83222377730286
 20
53.0311334882706
 30
130.0
 10
124.882562580045
 20
52.892104856805176
 30
130.0
 10
124.93699884882513
 20
52.75270155415543
 30
130.0
 10
124.99545248349953
 20
52.61297351961109
 30
130.0
 10
125.05783180184956
 20
52.47296759345104
 30
130.0
 10
125.12404335095927
 20
52.33273001491591
 30
130.0
 10
125.19400589865559
 20
52.192310124233906
 30
130.0
 10
125.48835299554038
 20
51.63037248689077
 30
130.0
 10
125.73425172540992
 20
51.22254550794678
 30
130.0
 10
126.00033941458906
 20
50.827070865740495
 30
130.0
 10
126.28318636267886
 20
50.443320846857205
 30
130.0
 10
126.58011484742276
 20
50.070687313238324
 30
130.0
 10
126.8891948063668
 20
49.70857450825322
 30
130.0
 10
127.2090833434469
 20
49.35629830880798
 30
130.0
 10
127.90532218693542
 20
48.632115018376396
 30
130.0
 10
128.28359985455975
 20
48.262742727790986
 30
130.0
 10
128.6724466185597
 20
47.904275382555916
 30
130.0
 10
129.07079939682765
 20
47.55630930708204
 30
130.0
 10
129.4778394859639
 20
47.21860872905993
 30
130.0
 10
129.89294909883156
 20
46.89105773414177
 30
130.0
 10
130.31571345725303
 20
46.57366461522638
 30
130.0
 10
131.12128354699124
 20
45.998677076745004
 30
130.0
 10
131.5021947586146
 20
45.73869930529375
 30
130.0
 10
131.8885453256403
 20
45.48674746486911
 30
130.0
 10
132.28024001663886
 20
45.243061675908386
 30
130.0
 10
132.6772292279056
 20
45.008063388243656
 30
130.0
 10
133.07950635437362
 20
44.78235100809369
 30
130.0
 10
133.4871515900605
 20
44.56677681555422
 30
130.0
 10
134.08951096583527
 20
44.269411338438054
 30
130.0
 10
134.27970402420536
 20
44.178517230587175
 30
130.0
 10
134.47109999569193
 20
44.090172882131405
 30
130.0
 10
134.66372989083172
 20
44.004542683638164
 30
130.0
 10
134.85762209701716
 20
43.92182587019439
 30
130.0
 10
135.0528067448395
 20
43.84226703582654
 30
130.0
 10
135.24932445911995
 20
43.76617780064108
 30
130.0
 10
135.60677780654316
 20
43.635762989075644
 30
130.0
 10
135.76718313368121
 20
43.58009322853602
 30
130.0
 10
135.9285202839001
 20
43.52716462604627
 30
130.0
 10
136.09082877581392
 20
43.47723686712026
 30
130.0
 10
136.25412836047505
 20
43.43065018078056
 30
130.0
 10
136.4184209423679
 20
43.38783162783546
 30
130.0
 10
136.58370219591112
 20
43.349338495056735
 30
130.0
 10
136.74999617366595
 20
43.31599474785548
 30
130.0
  0
LINE
  5
139
330
17
100
AcDbEntity
  8
0
100
AcDbLine
 10
1862.9
 20
71.66068203619125
 30
130.0
 11
1862.9
 21
65.87750491104667
 31
130.0
  0
SPLINE
  5
13A
330
17
100
AcDbEntity
  8
0
100
AcDbSpline
 70
0
 71
4
 72
10
 73
5
 74
0
 40
0.0
 40
0.0
 40
0.0
 40
0.0
 40
0.0
 40
1.0
 40
1.0
 40
1.0
 40
1.0
 40
1.0
 10
1859.099999409865
 20
70.94511146830015
 30
130.0
 10
1860.0501500223975
 20
71.12307307652905
 30
130.0
 10
1861.0002008148347
 20
71.30165439449797
 30
130.0
 10
1861.9501512008103
 20
71.4808569204241
 30
130.0
 10
1862.9000005900211
 20
71.66068214789387
 30
130.0
  0
LINE
  5
13B
330
17
100
AcDbEntity
  8
0
100
AcDbLine
 10
1859.1
 20
70.94511157883144
 30
130.0
 11
1859.1
 21
62.39449142814161
 31
130.0
  0
SPLINE
  5
13C
330
17
100
AcDbEntity
  8
0
100
AcDbSpline
 70
0
 71
8
 72
25
 73
16
 74
0
 40
0.0
 40
0.0
 40
0.0
 40
0.0
 40
0.0
 40
0.0
 40
0.0
 40
0.0
 40
0.0
 40
0.013600173111288996
 40
0.013600173111288996
 40
0.013600173111288996
 40
0.013600173111288996
 40
0.013600173111288996
 40
0.013600173111288996
 40
0.013600173111288996
 40
0.016757980641725023
 40
0.016757980641725023
 40
0.016757980641725023
 40
0.016757980641725023
 40
0.016757980641725023
 40
0.016757980641725023
 40
0.016757980641725023
 40
0.016757980641725023
 40
0.016757980641725023
 10
1849.515795314738
 20
56.73800354909288
 30
130.0
 10
1850.5476738642758
 20
57.202425233494004
 30
130.0
 10
1851.5679573575264
 20
57.69221432944748
 30
130.0
 10
1852.5764610919796
 20
58.20644869874776
 30
130.0
 10
1853.5724334611818
 20
58.74501751960453
 30
130.0
 10
1854.5547800527374
 20
59.30818858662184
 30
130.0
 10
1855.5220175763227
 20
59.896675149459
 30
130.0
 10
1856.4722815001228
 20
60.511609732800544
 30
130.0
 10
1857.6191393331205
 20
61.304439361063565
 30
130.0
 10
1857.8341835971103
 20
61.455364504779624
 30
130.0
 10
1858.048130644458
 20
61.60784187990669
 30
130.0
 10
1858.2609443790877
 20
61.76189775368321
 30
130.0
 10
1858.4725847073928
 20
61.917559944689714
 30
130.0
 10
1858.6830073746735
 20
62.07485803311963
 30
130.0
 10
1858.89216367024
 20
62.233823733035734
 30
130.0
 10
1859.1000000011813
 20
62.39449142661218
 30
130.0
  0
ENDSEC
  0
SECTION
  2
OBJECTS
  0
DICTIONARY
  5
A
330
0
100
AcDbDictionary
281
1
  3
ACAD_COLOR
350
B
  3
ACAD_GROUP
350
C
  3
ACAD_LAYOUT
350
D
  3
ACAD_MATERIAL
350
E
  3
ACAD_MLEADERSTYLE
350
F
  3
ACAD_MLINESTYLE
350
10
  3
ACAD_PLOTSETTINGS
350
11
  3
ACAD_PLOTSTYLENAME
350
12
  3
ACAD_SCALELIST
350
14
  3
ACAD_TABLESTYLE
350
15
  3
ACAD_VISUALSTYLE
350
16
  3
EZDXF_META
350
2D
  0
DICTIONARY
  5
B
330
A
100
AcDbDictionary
281
1
  0
DICTIONARY
  5
C
330
A
100
AcDbDictionary
281
1
  0
DICTIONARY
  5
D
330
A
100
AcDbDictionary
281
1
  3
Model
350
1A
  3
Layout1
350
1E
  0
DICTIONARY
  5
E
330
A
100
AcDbDictionary
281
1
  3
ByBlock
350
1F
  3
ByLayer
350
20
  3
Global
350
21
  0
DICTIONARY
  5
F
330
A
100
AcDbDictionary
281
1
  3
Standard
350
2C
  0
DICTIONARY
  5
10
330
A
100
AcDbDictionary
281
1
  3
Standard
350
22
  0
DICTIONARY
  5
11
330
A
100
AcDbDictionary
281
1
  0
ACDBDICTIONARYWDFLT
  5
12
330
A
100
AcDbDictionary
281
1
  3
Normal
350
13
100
AcDbDictionaryWithDefault
340
13
  0
ACDBPLACEHOLDER
  5
13
330
12
  0
DICTIONARY
  5
14
330
A
100
AcDbDictionary
281
1
  0
DICTIONARY
  5
15
330
A
100
AcDbDictionary
281
1
  0
DICTIONARY
  5
16
330
A
100
AcDbDictionary
281
1
  0
LAYOUT
  5
1A
330
D
100
AcDbPlotSettings
  1

  2
Adobe PDF
  4
A3
  6

 40
7.5
 41
20.0
 42
7.5
 43
20.0
 44
420.0
 45
297.0
 46
0.0
 47
0.0
 48
0.0
 49
0.0
140
0.0
141
0.0
142
1.0
143
1.0
 70
1024
 72
1
 73
1
 74
5
  7

 75
16
 76
0
 77
2
 78
300
147
1.0
148
0.0
149
0.0
100
AcDbLayout
  1
Model
 70
1
 71
0
 10
0.0
 20
0.0
 11
420.0
 21
297.0
 12
0.0
 22
0.0
 32
0.0
 14
1e+20
 24
1e+20
 34
1e+20
 15
-1e+20
 25
-1e+20
 35
-1e+20
146
0.0
 13
0.0
 23
0.0
 33
0.0
 16
1.0
 26
0.0
 36
0.0
 17
0.0
 27
1.0
 37
0.0
 76
1
330
17
  0
LAYOUT
  5
1E
330
D
100
AcDbPlotSettings
  1

  2
Adobe PDF
  4
A3
  6

 40
7.5
 41
20.0
 42
7.5
 43
20.0
 44
420.0
 45
297.0
 46
0.0
 47
0.0
 48
0.0
 49
0.0
140
0.0
141
0.0
142
1.0
143
1.0
 70
0
 72
1
 73
1
 74
5
  7

 75
16
 76
0
 77
2
 78
300
147
1.0
148
0.0
149
0.0
100
AcDbLayout
  1
Layout1
 70
1
 71
1
 10
0.0
 20
0.0
 11
420.0
 21
297.0
 12
0.0
 22
0.0
 32
0.0
 14
1e+20
 24
1e+20
 34
1e+20
 15
-1e+20
 25
-1e+20
 35
-1e+20
146
0.0
 13
0.0
 23
0.0
 33
0.0
 16
1.0
 26
0.0
 36
0.0
 17
0.0
 27
1.0
 37
0.0
 76
1
330
1B
  0
MATERIAL
  5
1F
102
{ACAD_REACTORS
330
E
102
}
330
E
100
AcDbMaterial
  1
ByBlock
  2

 70
0
 40
1.0
 71
1
 41
1.0
 91
-1023410177
 42
1.0
 72
1
  3

 73
1
 74
1
 75
1
 44
0.5
 73
0
 45
1.0
 46
1.0
 77
1
  4

 78
1
 79
1
170
1
 48
1.0
171
1
  6

172
1
173
1
174
1
140
1.0
141
1.0
175
1
  7

176
1
177
1
178
1
143
1.0
179
1
  8

270
1
271
1
272
1
145
1.0
146
1.0
273
1
  9

274
1
275
1
276
1
 42
1.0
 72
1
  3

 73
1
 74
1
 75
1
 94
63
  0
MATERIAL
  5
20
102
{ACAD_REACTORS
330
E
102
}
330
E
100
AcDbMaterial
  1
ByLayer
  2

 70
0
 40
1.0
 71
1
 41
1.0
 91
-1023410177
 42
1.0
 72
1
  3

 73
1
 74
1
 75
1
 44
0.5
 73
0
 45
1.0
 46
1.0
 77
1
  4

 78
1
 79
1
170
1
 48
1.0
171
1
  6

172
1
173
1
174
1
140
1.0
141
1.0
175
1
  7

176
1
177
1
178
1
143
1.0
179
1
  8

270
1
271
1
272
1
145
1.0
146
1.0
273
1
  9

274
1
275
1
276
1
 42
1.0
 72
1
  3

 73
1
 74
1
 75
1
 94
63
  0
MATERIAL
  5
21
102
{ACAD_REACTORS
330
E
102
}
330
E
100
AcDbMaterial
  1
Global
  2

 70
0
 40
1.0
 71
1
 41
1.0
 91
-1023410177
 42
1.0
 72
1
  3

 73
1
 74
1
 75
1
 44
0.5
 73
0
 45
1.0
 46
1.0
 77
1
  4

 78
1
 79
1
170
1
 48
1.0
171
1
  6

172
1
173
1
174
1
140
1.0
141
1.0
175
1
  7

176
1
177
1
178
1
143
1.0
179
1
  8

270
1
271
1
272
1
145
1.0
146
1.0
273
1
  9

274
1
275
1
276
1
 42
1.0
 72
1
  3

 73
1
 74
1
 75
1
 94
63
  0
MLINESTYLE
  5
22
102
{ACAD_REACTORS
330
10
102
}
330
10
100
AcDbMlineStyle
  2
Standard
 70
0
  3

 62
256
 51
90.0
 52
90.0
 71
2
 49
0.5
 62
256
  6
BYLAYER
 49
-0.5
 62
256
  6
BYLAYER
  0
MLEADERSTYLE
  5
2C
102
{ACAD_REACTORS
330
F
102
}
330
F
100
AcDbMLeaderStyle
179
2
170
2
171
1
172
0
 90
2
 40
0.0
 41
0.0
173
1
 91
-1056964608
 92
-2
290
1
 42
2.0
291
1
 43
8.0
  3
Standard
 44
4.0
300

342
29
174
1
175
1
176
0
178
1
 93
-1056964608
 45
4.0
292
0
297
0
 46
4.0
 94
-1056964608
 47
1.0
 49
1.0
140
1.0
294
1
141
0.0
177
0
142
1.0
295
0
296
0
143
3.75
271
0
272
9
273
9
  0
DICTIONARY
  5
2D
330
A
100
AcDbDictionary
280
1
281
1
  3
CREATED_BY_EZDXF
350
2E
  3
WRITTEN_BY_EZDXF
350
13F
  0
DICTIONARYVAR
  5
2E
330
2D
100
DictionaryVariables
280
0
  1
0.17 @ 2022-02-15T16:54:23.746379+00:00
  0
DICTIONARYVAR
  5
13F
330
2D
100
DictionaryVariables
280
0
  1
0.17 @ 2022-02-15T16:54:24.083803+00:00
  0
ENDSEC
  0
EOF
