  0
SECTION
  2
HEADER
  9
$ACADVER
  1
AC1027
  9
$ACADMAINTVER
 70
105
  9
$DWGCODEPAGE
  3
ANSI_1252
  9
$LASTSAVEDBY
  1
ezdxf
  9
$REQUIREDVERSIONS
160
0
  9
$INSBASE
 10
0.0
 20
0.0
 30
0.0
  9
$EXTMIN
 10
1e+20
 20
1e+20
 30
1e+20
  9
$EXTMAX
 10
-1e+20
 20
-1e+20
 30
-1e+20
  9
$LIMMIN
 10
0.0
 20
0.0
  9
$LIMMAX
 10
420.0
 20
297.0
  9
$ORTHOMODE
 70
0
  9
$REGENMODE
 70
1
  9
$FILLMODE
 70
1
  9
$QTEXTMODE
 70
0
  9
$MIRRTEXT
 70
1
  9
$LTSCALE
 40
1.0
  9
$ATTMODE
 70
1
  9
$TEXTSIZE
 40
2.5
  9
$TRACEWID
 40
1.0
  9
$TEXTSTYLE
  7
Standard
  9
$CLAYER
  8
0
  9
$CELTYPE
  6
ByLayer
  9
$CECOLOR
 62
256
  9
$CELTSCALE
 40
1.0
  9
$DISPSILH
 70
0
  9
$DIMSCALE
 40
1.0
  9
$DIMASZ
 40
2.5
  9
$DIMEXO
 40
0.625
  9
$DIMDLI
 40
3.75
  9
$DIMRND
 40
0.0
  9
$DIMDLE
 40
0.0
  9
$DIMEXE
 40
1.25
  9
$DIMTP
 40
0.0
  9
$DIMTM
 40
0.0
  9
$DIMTXT
 40
2.5
  9
$DIMCEN
 40
2.5
  9
$DIMTSZ
 40
0.0
  9
$DIMTOL
 70
0
  9
$DIMLIM
 70
0
  9
$DIMTIH
 70
0
  9
$DIMTOH
 70
0
  9
$DIMSE1
 70
0
  9
$DIMSE2
 70
0
  9
$DIMTAD
 70
1
  9
$DIMZIN
 70
8
  9
$DIMBLK
  1

  9
$DIMASO
 70
1
  9
$DIMSHO
 70
1
  9
$DIMPOST
  1

  9
$DIMAPOST
  1

  9
$DIMALT
 70
0
  9
$DIMALTD
 70
3
  9
$DIMALTF
 40
0.03937007874
  9
$DIMLFAC
 40
1.0
  9
$DIMTOFL
 70
1
  9
$DIMTVP
 40
0.0
  9
$DIMTIX
 70
0
  9
$DIMSOXD
 70
0
  9
$DIMSAH
 70
0
  9
$DIMBLK1
  1

  9
$DIMBLK2
  1

  9
$DIMSTYLE
  2
ISO-25
  9
$DIMCLRD
 70
0
  9
$DIMCLRE
 70
0
  9
$DIMCLRT
 70
0
  9
$DIMTFAC
 40
1.0
  9
$DIMGAP
 40
0.625
  9
$DIMJUST
 70
0
  9
$DIMSD1
 70
0
  9
$DIMSD2
 70
0
  9
$DIMTOLJ
 70
0
  9
$DIMTZIN
 70
8
  9
$DIMALTZ
 70
0
  9
$DIMALTTZ
 70
0
  9
$DIMUPT
 70
0
  9
$DIMDEC
 70
2
  9
$DIMTDEC
 70
2
  9
$DIMALTU
 70
2
  9
$DIMALTTD
 70
3
  9
$DIMTXSTY
  7
Standard
  9
$DIMAUNIT
 70
0
  9
$DIMADEC
 70
0
  9
$DIMALTRND
 40
0.0
  9
$DIMAZIN
 70
0
  9
$DIMDSEP
 70
44
  9
$DIMATFIT
 70
3
  9
$DIMFRAC
 70
0
  9
$DIMLDRBLK
  1

  9
$DIMLUNIT
 70
2
  9
$DIMLWD
 70
-2
  9
$DIMLWE
 70
-2
  9
$DIMTMOVE
 70
0
  9
$DIMFXL
 40
1.0
  9
$DIMFXLON
 70
0
  9
$DIMJOGANG
 40
0.785398163397
  9
$DIMTFILL
 70
0
  9
$DIMTFILLCLR
 70
0
  9
$DIMARCSYM
 70
0
  9
$DIMLTYPE
  6

  9
$DIMLTEX1
  6

  9
$DIMLTEX2
  6

  9
$DIMTXTDIRECTION
 70
0
  9
$LUNITS
 70
2
  9
$LUPREC
 70
4
  9
$SKETCHINC
 40
1.0
  9
$FILLETRAD
 40
10.0
  9
$AUNITS
 70
0
  9
$AUPREC
 70
2
  9
$MENU
  1
.
  9
$ELEVATION
 40
0.0
  9
$PELEVATION
 40
0.0
  9
$THICKNESS
 40
0.0
  9
$LIMCHECK
 70
0
  9
$CHAMFERA
 40
0.0
  9
$CHAMFERB
 40
0.0
  9
$CHAMFERC
 40
0.0
  9
$CHAMFERD
 40
0.0
  9
$SKPOLY
 70
0
  9
$TDCREATE
 40
2459626.7461458333
  9
$TDUCREATE
 40
2458532.153996898
  9
$TDUPDATE
 40
2459626.7461458333
  9
$TDUUPDATE
 40
2458532.1544311
  9
$TDINDWG
 40
0.0
  9
$TDUSRTIMER
 40
0.0
  9
$USRTIMER
 70
1
  9
$ANGBASE
 50
0.0
  9
$ANGDIR
 70
0
  9
$PDMODE
 70
0
  9
$PDSIZE
 40
0.0
  9
$PLINEWID
 40
0.0
  9
$SPLFRAME
 70
0
  9
$SPLINETYPE
 70
6
  9
$SPLINESEGS
 70
8
  9
$HANDSEED
  5
12F
  9
$SURFTAB1
 70
6
  9
$SURFTAB2
 70
6
  9
$SURFTYPE
 70
6
  9
$SURFU
 70
6
  9
$SURFV
 70
6
  9
$UCSBASE
  2

  9
$UCSNAME
  2

  9
$UCSORG
 10
0.0
 20
0.0
 30
0.0
  9
$UCSXDIR
 10
1.0
 20
0.0
 30
0.0
  9
$UCSYDIR
 10
0.0
 20
1.0
 30
0.0
  9
$UCSORTHOREF
  2

  9
$UCSORTHOVIEW
 70
0
  9
$UCSORGTOP
 10
0.0
 20
0.0
 30
0.0
  9
$UCSORGBOTTOM
 10
0.0
 20
0.0
 30
0.0
  9
$UCSORGLEFT
 10
0.0
 20
0.0
 30
0.0
  9
$UCSORGRIGHT
 10
0.0
 20
0.0
 30
0.0
  9
$UCSORGFRONT
 10
0.0
 20
0.0
 30
0.0
  9
$UCSORGBACK
 10
0.0
 20
0.0
 30
0.0
  9
$PUCSBASE
  2

  9
$PUCSNAME
  2

  9
$PUCSORG
 10
0.0
 20
0.0
 30
0.0
  9
$PUCSXDIR
 10
1.0
 20
0.0
 30
0.0
  9
$PUCSYDIR
 10
0.0
 20
1.0
 30
0.0
  9
$PUCSORTHOREF
  2

  9
$PUCSORTHOVIEW
 70
0
  9
$PUCSORGTOP
 10
0.0
 20
0.0
 30
0.0
  9
$PUCSORGBOTTOM
 10
0.0
 20
0.0
 30
0.0
  9
$PUCSORGLEFT
 10
0.0
 20
0.0
 30
0.0
  9
$PUCSORGRIGHT
 10
0.0
 20
0.0
 30
0.0
  9
$PUCSORGFRONT
 10
0.0
 20
0.0
 30
0.0
  9
$PUCSORGBACK
 10
0.0
 20
0.0
 30
0.0
  9
$USERI1
 70
0
  9
$USERI2
 70
0
  9
$USERI3
 70
0
  9
$USERI4
 70
0
  9
$USERI5
 70
0
  9
$USERR1
 40
0.0
  9
$USERR2
 40
0.0
  9
$USERR3
 40
0.0
  9
$USERR4
 40
0.0
  9
$USERR5
 40
0.0
  9
$WORLDVIEW
 70
1
  9
$SHADEDGE
 70
3
  9
$SHADEDIF
 70
70
  9
$TILEMODE
 70
1
  9
$MAXACTVP
 70
64
  9
$PINSBASE
 10
0.0
 20
0.0
 30
0.0
  9
$PLIMCHECK
 70
0
  9
$PEXTMIN
 10
1e+20
 20
1e+20
 30
1e+20
  9
$PEXTMAX
 10
-1e+20
 20
-1e+20
 30
-1e+20
  9
$PLIMMIN
 10
0.0
 20
0.0
  9
$PLIMMAX
 10
420.0
 20
297.0
  9
$UNITMODE
 70
0
  9
$VISRETAIN
 70
1
  9
$PLINEGEN
 70
0
  9
$PSLTSCALE
 70
1
  9
$TREEDEPTH
 70
3020
  9
$CMLSTYLE
  2
Standard
  9
$CMLJUST
 70
0
  9
$CMLSCALE
 40
20.0
  9
$PROXYGRAPHICS
 70
1
  9
$MEASUREMENT
 70
1
  9
$CELWEIGHT
370
-1
  9
$ENDCAPS
280
0
  9
$JOINSTYLE
280
0
  9
$LWDISPLAY
290
0
  9
$INSUNITS
 70
6
  9
$HYPERLINKBASE
  1

  9
$STYLESHEET
  1

  9
$XEDIT
290
1
  9
$CEPSNTYPE
380
0
  9
$PSTYLEMODE
290
1
  9
$FINGERPRINTGUID
  2
{CCCFFBEA-F674-4454-98B0-38FE2241E6BC}
  9
$VERSIONGUID
  2
{96EE0FBD-D2EB-4E17-83CA-73B54B70537C}
  9
$EXTNAMES
290
1
  9
$PSVPSCALE
 40
0.0
  9
$OLESTARTUP
290
0
  9
$SORTENTS
280
127
  9
$INDEXCTL
280
0
  9
$HIDETEXT
280
1
  9
$XCLIPFRAME
280
0
  9
$HALOGAP
280
0
  9
$OBSCOLOR
 70
257
  9
$OBSLTYPE
280
0
  9
$INTERSECTIONDISPLAY
280
0
  9
$INTERSECTIONCOLOR
 70
257
  9
$DIMASSOC
280
2
  9
$PROJECTNAME
  1

  9
$CAMERADISPLAY
290
0
  9
$LENSLENGTH
 40
50.0
  9
$CAMERAHEIGHT
 40
0.0
  9
$STEPSPERSEC
 40
24.0
  9
$STEPSIZE
 40
100.0
  9
$3DDWFPREC
 40
2.0
  9
$PSOLWIDTH
 40
0.005
  9
$PSOLHEIGHT
 40
0.08
  9
$LOFTANG1
 40
1.570796326795
  9
$LOFTANG2
 40
1.570796326795
  9
$LOFTMAG1
 40
0.0
  9
$LOFTMAG2
 40
0.0
  9
$LOFTPARAM
 70
7
  9
$LOFTNORMALS
280
1
  9
$LATITUDE
 40
37.795
  9
$LONGITUDE
 40
-122.394
  9
$NORTHDIRECTION
 40
0.0
  9
$TIMEZONE
 70
-8000
  9
$LIGHTGLYPHDISPLAY
280
1
  9
$TILEMODELIGHTSYNCH
280
1
  9
$CMATERIAL
347
20
  9
$SOLIDHIST
280
0
  9
$SHOWHIST
280
1
  9
$DWFFRAME
280
2
  9
$DGNFRAME
280
2
  9
$REALWORLDSCALE
290
1
  9
$INTERFERECOLOR
 62
256
  9
$CSHADOW
280
0
  9
$SHADOWPLANELOCATION
 40
0.0
  0
ENDSEC
  0
SECTION
  2
CLASSES
  0
CLASS
  1
ACDBDICTIONARYWDFLT
  2
AcDbDictionaryWithDefault
  3
ObjectDBX Classes
 90
0
 91
0
280
0
281
0
  0
CLASS
  1
SUN
  2
AcDbSun
  3
SCENEOE
 90
1153
 91
0
280
0
281
0
  0
CLASS
  1
VISUALSTYLE
  2
AcDbVisualStyle
  3
ObjectDBX Classes
 90
4095
 91
0
280
0
281
0
  0
CLASS
  1
MATERIAL
  2
AcDbMaterial
  3
ObjectDBX Classes
 90
1153
 91
0
280
0
281
0
  0
CLASS
  1
SCALE
  2
AcDbScale
  3
ObjectDBX Classes
 90
1153
 91
0
280
0
281
0
  0
CLASS
  1
TABLESTYLE
  2
AcDbTableStyle
  3
ObjectDBX Classes
 90
4095
 91
0
280
0
281
0
  0
CLASS
  1
MLEADERSTYLE
  2
AcDbMLeaderStyle
  3
ACDB_MLEADERSTYLE_CLASS
 90
4095
 91
0
280
0
281
0
  0
CLASS
  1
DICTIONARYVAR
  2
AcDbDictionaryVar
  3
ObjectDBX Classes
 90
0
 91
0
280
0
281
0
  0
CLASS
  1
CELLSTYLEMAP
  2
AcDbCellStyleMap
  3
ObjectDBX Classes
 90
1152
 91
0
280
0
281
0
  0
CLASS
  1
MENTALRAYRENDERSETTINGS
  2
AcDbMentalRayRenderSettings
  3
SCENEOE
 90
1024
 91
0
280
0
281
0
  0
CLASS
  1
ACDBDETAILVIEWSTYLE
  2
AcDbDetailViewStyle
  3
ObjectDBX Classes
 90
1025
 91
0
280
0
281
0
  0
CLASS
  1
ACDBSECTIONVIEWSTYLE
  2
AcDbSectionViewStyle
  3
ObjectDBX Classes
 90
1025
 91
0
280
0
281
0
  0
CLASS
  1
RASTERVARIABLES
  2
AcDbRasterVariables
  3
ISM
 90
0
 91
0
280
0
281
0
  0
CLASS
  1
ACDBPLACEHOLDER
  2
AcDbPlaceHolder
  3
ObjectDBX Classes
 90
0
 91
0
280
0
281
0
  0
CLASS
  1
LAYOUT
  2
AcDbLayout
  3
ObjectDBX Classes
 90
0
 91
0
280
0
281
0
  0
ENDSEC
  0
SECTION
  2
TABLES
  0
TABLE
  2
VPORT
  5
8
330
0
100
AcDbSymbolTable
 70
1
  0
VPORT
  5
23
330
8
100
AcDbSymbolTableRecord
100
AcDbViewportTableRecord
  2
*Active
 70
0
 10
0.0
 20
0.0
 11
1.0
 21
1.0
 12
344.2
 22
148.5
 13
0.0
 23
0.0
 14
0.5
 24
0.5
 15
0.5
 25
0.5
 16
0.0
 26
0.0
 36
1.0
 17
0.0
 27
0.0
 37
0.0
 40
297.0
 41
1.34
 42
50.0
 43
0.0
 44
0.0
 50
0.0
 51
0.0
 71
0
 72
1000
 73
1
 74
3
 75
0
 76
0
 77
0
 78
0
281
0
 65
0
146
0.0
  0
ENDTAB
  0
TABLE
  2
LTYPE
  5
2
330
0
100
AcDbSymbolTable
 70
3
  0
LTYPE
  5
24
330
2
100
AcDbSymbolTableRecord
100
AcDbLinetypeTableRecord
  2
ByBlock
 70
0
  3

 72
65
 73
0
 40
0.0
  0
LTYPE
  5
25
330
2
100
AcDbSymbolTableRecord
100
AcDbLinetypeTableRecord
  2
ByLayer
 70
0
  3

 72
65
 73
0
 40
0.0
  0
LTYPE
  5
26
330
2
100
AcDbSymbolTableRecord
100
AcDbLinetypeTableRecord
  2
Continuous
 70
0
  3

 72
65
 73
0
 40
0.0
  0
ENDTAB
  0
TABLE
  2
LAYER
  5
1
330
0
100
AcDbSymbolTable
 70
2
  0
LAYER
  5
27
330
1
100
AcDbSymbolTableRecord
100
AcDbLayerTableRecord
  2
0
 70
0
 62
7
  6
Continuous
370
-3
390
13
347
21
  0
LAYER
  5
28
330
1
100
AcDbSymbolTableRecord
100
AcDbLayerTableRecord
  2
Defpoints
 70
0
 62
7
  6
Continuous
290
0
370
-3
390
13
347
21
  0
ENDTAB
  0
TABLE
  2
STYLE
  5
5
330
0
100
AcDbSymbolTable
 70
1
  0
STYLE
  5
29
330
5
100
AcDbSymbolTableRecord
100
AcDbTextStyleTableRecord
  2
Standard
 70
0
 40
0.0
 41
1.0
 50
0.0
 71
0
 42
2.5
  3
txt
  4

  0
ENDTAB
  0
TABLE
  2
VIEW
  5
7
330
0
100
AcDbSymbolTable
 70
0
  0
ENDTAB
  0
TABLE
  2
UCS
  5
6
330
0
100
AcDbSymbolTable
 70
0
  0
ENDTAB
  0
TABLE
  2
APPID
  5
3
330
0
100
AcDbSymbolTable
 70
3
  0
APPID
  5
2A
330
3
100
AcDbSymbolTableRecord
100
AcDbRegAppTableRecord
  2
ACAD
 70
0
  0
APPID
  5
12C
330
3
100
AcDbSymbolTableRecord
100
AcDbRegAppTableRecord
  2
HATCHBACKGROUNDCOLOR
 70
0
  0
APPID
  5
12D
330
3
100
AcDbSymbolTableRecord
100
AcDbRegAppTableRecord
  2
EZDXF
 70
0
  0
ENDTAB
  0
TABLE
  2
DIMSTYLE
  5
4
330
0
100
AcDbSymbolTable
 70
1
100
AcDbDimStyleTable
  0
DIMSTYLE
105
2B
330
4
100
AcDbSymbolTableRecord
100
AcDbDimStyleTableRecord
  2
Standard
 70
0
 40
1.0
 41
2.5
 42
0.625
 43
3.75
 44
1.25
 45
0.0
 46
0.0
 47
0.0
 48
0.0
 49
2.5
140
2.5
141
2.5
142
0.0
143
0.03937007874
144
1.0
145
0.0
146
1.0
147
0.625
148
0.0
 69
0
 70
0
 71
0
 72
0
 73
0
 74
0
 75
0
 76
0
 77
1
 78
8
 79
0
170
0
171
3
172
1
173
0
174
0
175
0
176
0
177
0
178
0
179
0
271
0
272
2
273
2
274
3
275
0
276
0
277
2
278
44
279
0
280
0
281
0
282
0
283
0
284
8
285
0
286
0
288
0
289
3
290
0
371
-2
372
-2
  0
ENDTAB
  0
TABLE
  2
BLOCK_RECORD
  5
9
330
0
100
AcDbSymbolTable
 70
2
  0
BLOCK_RECORD
  5
17
330
9
100
AcDbSymbolTableRecord
100
AcDbBlockTableRecord
  2
*Model_Space
340
1A
 70
0
280
1
281
0
  0
BLOCK_RECORD
  5
1B
330
9
100
AcDbSymbolTableRecord
100
AcDbBlockTableRecord
  2
*Paper_Space
340
1E
 70
0
280
1
281
0
  0
ENDTAB
  0
ENDSEC
  0
SECTION
  2
BLOCKS
  0
BLOCK
  5
18
330
17
100
AcDbEntity
  8
0
100
AcDbBlockBegin
  2
*Model_Space
 70
0
 10
0.0
 20
0.0
 30
0.0
  3
*Model_Space
  1

  0
ENDBLK
  5
19
330
17
100
AcDbEntity
  8
0
100
AcDbBlockEnd
  0
BLOCK
  5
1C
330
1B
100
AcDbEntity
  8
0
100
AcDbBlockBegin
  2
*Paper_Space
 70
0
 10
0.0
 20
0.0
 30
0.0
  3
*Paper_Space
  1

  0
ENDBLK
  5
1D
330
1B
100
AcDbEntity
  8
0
100
AcDbBlockEnd
  0
ENDSEC
  0
SECTION
  2
ENTITIES
  0
SPLINE
  5
2F
330
17
100
AcDbEntity
  8
0
100
AcDbSpline
 70
0
 71
8
 72
81
 73
72
 74
0
 40
0.0
 40
0.0
 40
0.0
 40
0.0
 40
0.0
 40
0.0
 40
0.0
 40
0.0
 40
0.0
 40
0.29252655567944036
 40
0.29252655567944036
 40
0.29252655567944036
 40
0.29252655567944036
 40
0.29252655567944036
 40
0.29252655567944036
 40
0.29252655567944036
 40
0.5802421324638206
 40
0.5802421324638206
 40
0.5802421324638206
 40
0.5802421324638206
 40
0.5802421324638206
 40
0.5802421324638206
 40
0.5802421324638206
 40
0.7801902489096785
 40
0.7801902489096785
 40
0.7801902489096785
 40
0.7801902489096785
 40
0.7801902489096785
 40
0.7801902489096785
 40
0.7801902489096785
 40
0.8794235535713816
 40
0.8794235535713816
 40
0.8794235535713816
 40
0.8794235535713816
 40
0.8794235535713816
 40
0.8794235535713816
 40
0.8794235535713816
 40
0.9303594730800969
 40
0.9303594730800969
 40
0.9303594730800969
 40
0.9303594730800969
 40
0.9303594730800969
 40
0.9303594730800969
 40
0.9303594730800969
 40
0.9567809155212094
 40
0.9567809155212094
 40
0.9567809155212094
 40
0.9567809155212094
 40
0.9567809155212094
 40
0.9567809155212094
 40
0.9567809155212094
 40
0.96693554195949
 40
0.96693554195949
 40
0.96693554195949
 40
0.96693554195949
 40
0.96693554195949
 40
0.96693554195949
 40
0.96693554195949
 40
0.974054445402637
 40
0.974054445402637
 40
0.974054445402637
 40
0.974054445402637
 40
0.974054445402637
 40
0.974054445402637
 40
0.974054445402637
 40
0.9846618203200853
 40
0.9846618203200853
 40
0.9846618203200853
 40
0.9846618203200853
 40
0.9846618203200853
 40
0.9846618203200853
 40
0.9846618203200853
 40
1.0
 40
1.0
 40
1.0
 40
1.0
 40
1.0
 40
1.0
 40
1.0
 40
1.0
 40
1.0
 10
1758.8999999999999
 20
40.95973859387469
 30
156.0
 10
1759.6820480924048
 20
41.0776331689765
 30
156.0
 10
1760.4640442005743
 20
41.19584953804338
 30
156.0
 10
1761.24598769965
 20
41.31438847813508
 30
156.0
 10
1762.027877851855
 20
41.43325075476525
 30
156.0
 10
1762.8097137759373
 20
41.55243711755111
 30
156.0
 10
1763.5914944166043
 20
41.67194829586313
 30
156.0
 10
1764.373218513962
 20
41.79178499447476
 30
156.0
 10
1765.9236951190333
 20
42.03013454917906
 30
156.0
 10
1766.692448910994
 20
42.14863666988873
 30
156.0
 10
1767.461145095973
 20
42.267454980217956
 30
156.0
 10
1768.229781959406
 20
42.38659008223186
 30
156.0
 10
1768.9983570172583
 20
42.50604246415532
 30
156.0
 10
1769.7668668521871
 20
42.625812471781536
 30
156.0
 10
1770.5353066936464
 20
42.74590023831797
 30
156.0
 10
1771.8376441133041
 20
42.94998133358131
 30
156.0
 10
1772.3715789546927
 20
43.033810083209616
 30
156.0
 10
1772.905473961574
 20
43.117792064271086
 30
156.0
 10
1773.4393268613292
 20
43.20192721413574
 30
156.0
 10
1773.9731323400042
 20
43.28621498734002
 30
156.0
 10
1774.5068823167117
 20
43.37065439496763
 30
156.0
 10
1775.0405649402196
 20
43.45524383710759
 30
156.0
 10
1775.838980229463
 20
43.582034612707
 30
156.0
 10
1776.103776241757
 20
43.624124675735956
 30
156.0
 10
1776.3685472327747
 20
43.666250445335166
 30
156.0
 10
1776.6332904458625
 20
43.70841151311353
 30
156.0
 10
1776.8979997010667
 20
43.75060692232974
 30
156.0
 10
1777.1626656369042
 20
43.79283520408633
 30
156.0
 10
1777.427274551886
 20
43.83509418746429
 30
156.0
 10
1777.8275841010486
 20
43.89908528058739
 30
156.0
 10
1777.9633404184003
 20
43.92079696514484
 30
156.0
 10
1778.0990713615993
 20
43.94251508313597
 30
156.0
 10
1778.2347734604507
 20
43.96423907899079
 30
156.0
 10
1778.3704389880734
 20
43.985967713578844
 30
156.0
 10
1778.5060562518256
 20
44.00769910929751
 30
156.0
 10
1778.6416081449806
 20
44.02943051477842
 30
156.0
 10
1778.8473298406946
 20
44.06242729893974
 30
156.0
 10
1778.9175641516927
 20
44.07369536783794
 30
156.0
 10
1778.9877676635908
 20
44.08496131177403
 30
156.0
 10
1779.057935939741
 20
44.096224415788356
 30
156.0
 10
1779.1280590153765
 20
44.10748307615728
 30
156.0
 10
1779.198121789941
 20
44.118734862365265
 30
156.0
 10
1779.2681021579385
 20
44.129976214779774
 30
156.0
 10
1779.3648119290647
 20
44.14551512331079
 30
156.0
 10
1779.391641853205
 20
44.14982645195781
 30
156.0
 10
1779.4184503759384
 20
44.15413475318204
 30
156.0
 10
1779.4452350039578
 20
44.15843962518693
 30
156.0
 10
1779.4719925439929
 20
44.162740553493435
 30
156.0
 10
1779.498718863142
 20
44.16703687230803
 30
156.0
 10
1779.5254083751147
 20
44.171327681755514
 30
156.0
 10
1779.5707326503466
 20
44.17861504776119
 30
156.0
 10
1779.5893843666352
 20
44.18161412319777
 30
156.0
 10
1779.6080071125052
 20
44.184608739612024
 30
156.0
 10
1779.6265966035837
 20
44.18759820705349
 30
156.0
 10
1779.645145559862
 20
44.190581353296004
 30
156.0
 10
1779.663643705693
 20
44.19355652383764
 30
156.0
 10
1779.682077769796
 20
44.19652158190078
 30
156.0
 10
1779.7277790595717
 20
44.20387296155111
 30
156.0
 10
1779.7587648993126
 20
44.20885768145181
 30
156.0
 10
1779.7893446037456
 20
44.21377771178001
 30
156.0
 10
1779.8167520870861
 20
44.218187948846534
 30
156.0
 10
1779.8394184922452
 20
44.22183562739983
 30
156.0
 10
1779.8571297247042
 20
44.22468600633245
 30
156.0
 10
1779.8708985088624
 20
44.22690199831709
 30
156.0
 10
1779.8981183896387
 20
44.23128298787717
 30
156.0
 10
1779.900138589493
 20
44.23158670876232
 30
156.0
 10
1779.9059713867744
 20
44.2326352947506
 30
156.0
 10
1779.9113794328016
 20
44.233249353979716
 30
156.0
 10
1779.9150182530161
 20
44.23418884488154
 30
156.0
 10
1779.9121837363198
 20
44.23342530524906
 30
156.0
 10
1779.9133044713844
 20
44.23376814686393
 30
156.0
 10
1779.9130844226863
 20
44.233691985008015
 30
156.0
  0
LINE
  5
30
330
17
100
AcDbEntity
  8
0
100
AcDbLine
 10
1758.9
 20
54.70273522206125
 30
156.0
 11
1758.9
 21
40.959738593874356
 31
156.0
  0
SPLINE
  5
31
330
17
100
AcDbEntity
  8
0
100
AcDbSpline
 70
0
 71
4
 72
10
 73
5
 74
0
 40
0.0
 40
0.0
 40
0.0
 40
0.0
 40
0.0
 40
1.0
 40
1.0
 40
1.0
 40
1.0
 40
1.0
 10
1755.099999405988
 20
54.1806238427478
 30
156.0
 10
1756.050104900456
 20
54.31035819304538
 30
156.0
 10
1757.0001405752657
 20
54.44062052750899
 30
156.0
 10
1757.9501059633296
 20
54.571412385516744
 30
156.0
 10
1758.9000005938883
 20
54.70273530382251
 30
156.0
  0
LINE
  5
32
330
17
100
AcDbEntity
  8
0
100
AcDbLine
 10
1755.1
 20
54.18062392635757
 30
156.0
 11
1755.1
 21
40.39027774194348
 31
156.0
  0
SPLINE
  5
33
330
17
100
AcDbEntity
  8
0
100
AcDbSpline
 70
0
 71
5
 72
24
 73
18
 74
0
 40
0.0
 40
0.0
 40
0.0
 40
0.0
 40
0.0
 40
0.0
 40
0.24609368885230712
 40
0.24609368885230712
 40
0.24609368885230712
 40
0.24609368885230712
 40
0.4948318327214021
 40
0.4948318327214021
 40
0.4948318327214021
 40
0.4948318327214021
 40
0.7462064250971385
 40
0.7462064250971385
 40
0.7462064250971385
 40
0.7462064250971385
 40
1.0
 40
1.0
 40
1.0
 40
1.0
 40
1.0
 40
1.0
 10
1755.0999999999997
 20
40.39027774194393
 30
156.0
 10
1754.008158129966
 20
40.22762795830354
 30
156.0
 10
1752.916210123752
 20
40.06565786611304
 30
156.0
 10
1751.824157821606
 20
39.904364606584025
 30
156.0
 10
1750.7320028068818
 20
39.743745311754985
 30
156.0
 10
1748.5357530597707
 20
39.42213025413891
 30
156.0
 10
1747.4316561501369
 20
39.2611489930005
 30
156.0
 10
1746.3274571938928
 20
39.10085046199448
 30
156.0
 10
1745.2231575225196
 20
38.94123178415795
 30
156.0
 10
1743.0026533317027
 20
38.62166379155037
 30
156.0
 10
1741.8864466988252
 20
38.46172890536661
 30
156.0
 10
1740.7701397168985
 20
38.30248253694437
 30
156.0
 10
1739.653733579688
 20
38.14392180558353
 30
156.0
 10
1737.4099811024482
 20
37.82664668583037
 30
156.0
 10
1736.2826328702754
 20
37.6679454997295
 30
156.0
 10
1735.1551858745843
 20
37.50993740863491
 30
156.0
 10
1734.0276412286628
 20
37.35261954271859
 30
156.0
 10
1732.8999999995708
 20
37.195989072262954
 30
156.0
  0
LINE
  5
34
330
17
100
AcDbEntity
  8
0
100
AcDbLine
 10
1732.9
 20
51.25790789961838
 30
156.0
 11
1732.9
 21
37.195989069172626
 31
156.0
  0
SPLINE
  5
35
330
17
100
AcDbEntity
  8
0
100
AcDbSpline
 70
0
 71
4
 72
10
 73
5
 74
0
 40
0.0
 40
0.0
 40
0.0
 40
0.0
 40
0.0
 40
1.0
 40
1.0
 40
1.0
 40
1.0
 40
1.0
 10
1729.099999405146
 20
50.77907020894261
 30
156.0
 10
1730.050095279298
 20
50.89802001492713
 30
156.0
 10
1731.0001277295694
 20
51.01747521561645
 30
156.0
 10
1731.9500963161356
 20
51.13743735507953
 30
156.0
 10
1732.9000005956054
 20
51.2579079751554
 30
156.0
  0
LINE
  5
36
330
17
100
AcDbEntity
  8
0
100
AcDbLine
 10
1729.1
 20
50.77907028341698
 30
156.0
 11
1729.1
 21
36.67133911226642
 31
156.0
  0
SPLINE
  5
37
330
17
100
AcDbEntity
  8
0
100
AcDbSpline
 70
0
 71
4
 72
19
 73
14
 74
0
 40
0.0
 40
0.0
 40
0.0
 40
0.0
 40
0.0
 40
0.24640253018067815
 40
0.24640253018067815
 40
0.24640253018067815
 40
0.4952358608509917
 40
0.4952358608509917
 40
0.4952358608509917
 40
0.7464719387929921
 40
0.7464719387929921
 40
0.7464719387929921
 40
1.0
 40
1.0
 40
1.0
 40
1.0
 40
1.0
 10
1729.100000000029
 20
36.671339112053765
 30
156.0
 10
1727.7333303413236
 20
36.483786797968435
 30
156.0
 10
1726.3665127489764
 20
36.2973022927028
 30
156.0
 10
1724.9995495437931
 20
36.11187942394436
 30
156.0
 10
1722.2518495606384
 20
35.74132607518117
 30
156.0
 10
1720.8711099396317
 20
35.55621652955373
 30
156.0
 10
1719.490226306273
 20
35.372177321319434
 30
156.0
 10
1716.7148400462272
 20
35.004460748700566
 30
156.0
 10
1715.3203346673379
 20
34.82080403788041
 30
156.0
 10
1713.925686871118
 20
34.638226126359925
 30
156.0
 10
1711.1233862498332
 20
34.273560080854516
 30
155.99999999999997
 10
1709.7157308542878
 20
34.09149160412907
 30
156.0
 10
1708.3079347430207
 20
33.910509462048836
 30
156.0
 10
1706.9000000000194
 20
33.730607652752006
 30
156.0
  0
LINE
  5
38
330
17
100
AcDbEntity
  8
0
100
AcDbLine
 10
1706.9
 20
48.10338864413637
 30
156.0
 11
1706.9
 21
33.7306076529048
 31
156.0
  0
SPLINE
  5
39
330
17
100
AcDbEntity
  8
0
100
AcDbSpline
 70
0
 71
4
 72
10
 73
5
 74
0
 40
0.0
 40
0.0
 40
0.0
 40
0.0
 40
0.0
 40
1.0
 40
1.0
 40
1.0
 40
1.0
 40
1.0
 10
1703.0999994043543
 20
47.66585331020275
 30
156.0
 10
1704.0500862580877
 20
47.77451118091602
 30
156.0
 10
1705.0001156842234
 20
47.883652002441075
 30
156.0
 10
1705.9500872690805
 20
47.99327732181424
 30
156.0
 10
1706.9000005955331
 20
48.10338868419734
 30
156.0
  0
LINE
  5
3A
330
17
100
AcDbEntity
  8
0
100
AcDbLine
 10
1703.1
 20
47.665853404986024
 30
156.0
 11
1703.1
 21
33.24804610435829
 31
156.0
  0
SPLINE
  5
3B
330
17
100
AcDbEntity
  8
0
100
AcDbSpline
 70
0
 71
4
 72
19
 73
14
 74
0
 40
0.0
 40
0.0
 40
0.0
 40
0.0
 40
0.0
 40
0.2466845781547141
 40
0.2466845781547141
 40
0.2466845781547141
 40
0.49560402982597507
 40
0.49560402982597507
 40
0.49560402982597507
 40
0.7467287094282017
 40
0.7467287094282017
 40
0.7467287094282017
 40
1.0
 40
1.0
 40
1.0
 40
1.0
 40
1.0
 10
1703.1000000000163
 20
33.24804610422729
 30
156.0
 10
1701.7316511296713
 20
33.07535388754871
 30
156.0
 10
1700.3631739817329
 20
32.903674186386475
 30
156.0
 10
1698.994570409692
 20
32.73300168497535
 30
156.0
 10
1696.2447138254604
 20
32.3921234882121
 30
156.0
 10
1694.8634585442442
 20
32.22193603609477
 30
156.0
 10
1693.482078208828
 20
32.05276346999594
 30
156.0
 10
1690.7068319683983
 20
31.714947964641357
 30
156.0
 10
1689.312963869686
 20
31.546322994807127
 30
156.0
 10
1687.9189721304779
 20
31.37872038525258
 30
156.0
 10
1685.1188280381555
 20
31.044125597071385
 30
156.0
 10
1683.7126735935185
 20
30.87715087523369
 30
156.0
 10
1682.3063969940345
 20
30.71120554837665
 30
156.0
 10
1680.9000000000199
 20
30.546284430270873
 30
156.0
  0
LINE
  5
3C
330
17
100
AcDbEntity
  8
0
100
AcDbLine
 10
1680.9
 20
45.22577556575234
 30
156.0
 11
1680.9
 21
30.54628443044054
 31
156.0
  0
SPLINE
  5
3D
330
17
100
AcDbEntity
  8
0
100
AcDbSpline
 70
0
 71
4
 72
10
 73
5
 74
0
 40
0.0
 40
0.0
 40
0.0
 40
0.0
 40
0.0
 40
1.0
 40
1.0
 40
1.0
 40
1.0
 40
1.0
 10
1677.0999994035997
 20
44.82760044046215
 30
156.0
 10
1678.0500778064832
 20
44.92645170830696
 30
156.0
 10
1679.0001043992356
 20
45.02576363020712
 30
156.0
 10
1679.9500787931709
 20
45.12553775467741
 30
156.0
 10
1680.9000005962826
 20
45.22577562867342
 30
156.0
  0
LINE
  5
3E
330
17
100
AcDbEntity
  8
0
100
AcDbLine
 10
1677.1
 20
44.827600502514855
 30
156.0
 11
1677.1
 21
30.103513153661385
 31
156.0
  0
SPLINE
  5
3F
330
17
100
AcDbEntity
  8
0
100
AcDbSpline
 70
0
 71
5
 72
24
 73
18
 74
0
 40
0.0
 40
0.0
 40
0.0
 40
0.0
 40
0.0
 40
0.0
 40
0.24700468327704883
 40
0.24700468327704883
 40
0.24700468327704883
 40
0.24700468327704883
 40
0.49604515226509954
 40
0.49604515226509954
 40
0.49604515226509954
 40
0.49604515226509954
 40
0.7470711299565111
 40
0.7470711299565111
 40
0.7470711299565111
 40
0.7470711299565111
 40
1.0
 40
1.0
 40
1.0
 40
1.0
 40
1.0
 40
1.0
 10
1677.1000000000179
 20
30.103513153504583
 30
156.0
 10
1676.0038152982188
 20
29.976603053857634
 30
156.0
 10
1674.9075633610107
 20
29.850272360144135
 30
156.0
 10
1673.8112449712187
 20
29.72451796806118
 30
156.0
 10
1672.7148603229734
 20
29.599341806505684
 30
156.0
 10
1670.512924494556
 20
29.349101501143316
 30
156.0
 10
1669.4073721951306
 20
29.22404718839119
 30
156.0
 10
1668.3017550142838
 20
29.09956622987379
 30
156.0
 10
1667.1960740076095
 20
28.97565282648568
 30
156.0
 10
1664.9757706832504
 20
28.727966463256916
 30
156.0
 10
1663.8611473605422
 20
28.604202497932437
 30
156.0
 10
1662.7464612638069
 20
28.481003716134257
 30
156.0
 10
1661.6317133968482
 20
28.35836454170096
 30
156.0
 10
1659.393645293902
 20
28.1132691444076
 30
156.0
 10
1658.2703241334725
 20
27.99082134958638
 30
156.0
 10
1657.1469422331106
 20
27.86893067639588
 30
156.0
 10
1656.023500547863
 20
27.74759176162562
 30
156.0
 10
1654.8999999999899
 20
27.626799391152197
 30
156.0
  0
LINE
  5
40
330
17
100
AcDbEntity
  8
0
100
AcDbLine
 10
1654.9
 20
42.611860658340966
 30
156.0
 11
1654.9
 21
27.62679939105447
 31
156.0
  0
SPLINE
  5
41
330
17
100
AcDbEntity
  8
0
100
AcDbSpline
 70
0
 71
4
 72
10
 73
5
 74
0
 40
0.0
 40
0.0
 40
0.0
 40
0.0
 40
0.0
 40
1.0
 40
1.0
 40
1.0
 40
1.0
 40
1.0
 10
1651.0999994027811
 20
42.251130600852306
 30
156.0
 10
1652.0500698937608
 20
42.34065379154886
 30
156.0
 10
1653.0000938336123
 20
42.43061548678661
 30
156.0
 10
1653.950070857474
 20
42.52101723528808
 30
156.0
 10
1654.9000005972996
 20
42.611860584497734
 30
156.0
  0
LINE
  5
42
330
17
100
AcDbEntity
  8
0
100
AcDbLine
 10
1651.1
 20
42.25113148022125
 30
156.0
 11
1651.1
 21
27.220758503901294
 31
156.0
  0
SPLINE
  5
43
330
17
100
AcDbEntity
  8
0
100
AcDbSpline
 70
0
 71
4
 72
19
 73
14
 74
0
 40
0.0
 40
0.0
 40
0.0
 40
0.0
 40
0.0
 40
0.24746250745226694
 40
0.24746250745226694
 40
0.24746250745226694
 40
0.49665258105306526
 40
0.49665258105306526
 40
0.49665258105306526
 40
0.7475233280958378
 40
0.7475233280958378
 40
0.7475233280958378
 40
1.0
 40
1.0
 40
1.0
 40
1.0
 40
1.0
 10
1651.099999999997
 20
27.220758503931833
 30
156.0
 10
1649.7271023284522
 20
27.07496260642671
 30
156.0
 10
1648.3541138332055
 20
26.93002054605638
 30
156.0
 10
1646.9810365566584
 20
26.7859207374626
 30
156.0
 10
1644.2251220478845
 20
26.49838344042263
 30
156.0
 10
1642.842283598181
 20
26.354957604705497
 30
156.0
 10
1641.4593590208926
 20
26.212363465945245
 30
156.0
 10
1638.6840135020468
 20
25.927861247561875
 30
156.0
 10
1637.2915914199916
 20
25.78596428001795
 30
156.0
 10
1635.8990857624563
 20
25.64488876546826
 30
156.0
 10
1633.1049962744523
 20
25.36346239122902
 30
156.0
 10
1631.703411394097
 20
25.223121942067678
 30
156.00000000000006
 10
1630.3017454115354
 20
25.083592829172126
 30
156.00000000000009
 10
1628.9000000000144
 20
24.944865198692895
 30
156.0000000000001
  0
LINE
  5
44
330
17
100
AcDbEntity
  8
0
100
AcDbLine
 10
1628.9
 20
40.248616411951815
 30
156.0
 11
1628.9
 21
24.944865198834915
 31
156.0
  0
SPLINE
  5
45
330
17
100
AcDbEntity
  8
0
100
AcDbSpline
 70
0
 71
4
 72
10
 73
5
 74
0
 40
0.0
 40
0.0
 40
0.0
 40
0.0
 40
0.0
 40
1.0
 40
1.0
 40
1.0
 40
1.0
 40
1.0
 10
1625.0999994022777
 20
39.92344194453569
 30
156.0
 10
1626.0500624560673
 20
40.004109229437745
 30
156.0
 10
1627.0000839577249
 20
40.08519301985147
 30
156.0
 10
1627.9500634286183
 20
40.1666948558138
 30
156.0
 10
1628.9000005978312
 20
40.248616288429005
 30
156.0
  0
LINE
  5
46
330
17
100
AcDbEntity
  8
0
100
AcDbLine
 10
1625.1
 20
39.923442150485776
 30
156.0
 11
1625.1
 21
24.57100563779113
 31
156.0
  0
SPLINE
  5
47
330
17
100
AcDbEntity
  8
0
100
AcDbSpline
 70
0
 71
4
 72
19
 73
14
 74
0
 40
0.0
 40
0.0
 40
0.0
 40
0.0
 40
0.0
 40
0.24784296236411044
 40
0.24784296236411044
 40
0.24784296236411044
 40
0.4971609459582944
 40
0.4971609459582944
 40
0.4971609459582944
 40
0.7479062555191964
 40
0.7479062555191964
 40
0.7479062555191964
 40
1.0
 40
1.0
 40
1.0
 40
1.0
 40
1.0
 10
1625.1000000000076
 20
24.57100563771218
 30
156.0
 10
1623.724898065
 20
24.43651560626615
 30
156.0
 10
1622.3497218402663
 20
24.30278415585872
 30
156.0
 10
1620.974472828844
 20
24.16980243319095
 30
156.0
 10
1618.2156469468814
 20
23.90453449909324
 30
156.0
 10
1616.832069223821
 20
23.772257143832526
 30
156.0
 10
1615.4484207275186
 20
23.64072132935305
 30
156.0
 10
1612.6730632304168
 20
23.378367694074797
 30
156.0
 10
1611.2813534328502
 20
23.247558293803543
 30
156.0
 10
1609.8895748076698
 20
23.117482459930265
 30
156.0
 10
1607.098397566806
 20
22.858086652059537
 30
156.0
 10
1605.6989982238028
 20
22.728774495949157
 30
156.0
 10
1604.299531950425
 20
22.600187963500694
 30
156.0
 10
1602.9000000000053
 20
22.47231945968722
 30
156.0
  0
LINE
  5
48
330
17
100
AcDbEntity
  8
0
100
AcDbLine
 10
1602.9
 20
38.12318340416883
 30
156.0
 11
1602.9
 21
22.472319459746753
 31
156.0
  0
SPLINE
  5
49
330
17
100
AcDbEntity
  8
0
100
AcDbSpline
 70
0
 71
4
 72
10
 73
5
 74
0
 40
0.0
 40
0.0
 40
0.0
 40
0.0
 40
0.0
 40
1.0
 40
1.0
 40
1.0
 40
1.0
 40
1.0
 10
1599.0999994012411
 20
37.831696521933424
 30
156.0
 10
1600.0500511557775
 20
37.90397396481631
 30
156.0
 10
1601.0000689661672
 20
37.9766463029638
 30
156.0
 10
1601.950052294088
 20
38.04971506264098
 30
156.0
 10
1602.9000005982014
 20
38.123181770301834
 30
156.0
  0
LINE
  5
4A
330
17
100
AcDbEntity
  8
0
100
AcDbLine
 10
1599.1
 20
37.83169821905051
 30
156.0
 11
1599.1
 21
22.12712379925724
 31
156.0
  0
SPLINE
  5
4B
330
17
100
AcDbEntity
  8
0
100
AcDbSpline
 70
0
 71
4
 72
19
 73
14
 74
0
 40
0.0
 40
0.0
 40
0.0
 40
0.0
 40
0.0
 40
0.24815403797591215
 40
0.24815403797591215
 40
0.24815403797591215
 40
0.49758207191209475
 40
0.49758207191209475
 40
0.49758207191209475
 40
0.7482218584933991
 40
0.7482218584933991
 40
0.7482218584933991
 40
1.0
 40
1.0
 40
1.0
 40
1.0
 40
1.0
 10
1599.1000000000154
 20
22.127123799088466
 30
156.0
 10
1597.7231019727374
 20
22.002763386108462
 30
156.0
 10
1596.3461419976552
 20
21.87908809558837
 30
156.0
 10
1594.96912121344
 20
21.756091050371296
 30
156.0
 10
1592.207890413408
 20
21.51081222814209
 30
156.0
 10
1590.8236797821965
 20
21.388537372030818
 30
156.0
 10
1589.4394099090407
 20
21.266934395094932
 30
156.0
 10
1586.664028518376
 20
21.024471987068985
 30
156.0
 10
1585.2729164341658
 20
20.903619037561718
 30
156.0
 10
1583.8817466353657
 20
20.783431672563683
 30
156.0
 10
1581.0929749388185
 20
20.543833018302553
 30
156.0
 10
1579.695372525457
 20
20.424427724817747
 30
156.0
 10
1578.297713891139
 20
20.305681737863054
 30
156.0
 10
1576.9000000000062
 20
20.18758912351331
 30
156.0
  0
LINE
  5
4C
330
17
100
AcDbEntity
  8
0
100
AcDbLine
 10
1576.9
 20
36.22287234724196
 30
156.0
 11
1576.9
 21
20.187589123580345
 31
156.0
  0
SPLINE
  5
4D
330
17
100
AcDbEntity
  8
0
100
AcDbSpline
 70
0
 71
4
 72
10
 73
5
 74
0
 40
0.0
 40
0.0
 40
0.0
 40
0.0
 40
0.0
 40
1.0
 40
1.0
 40
1.0
 40
1.0
 40
1.0
 10
1573.0999993983185
 20
35.96323971302668
 30
156.0
 10
1574.0500402419302
 20
36.02758565090209
 30
156.0
 10
1575.0000544018328
 20
36.092305148106504
 30
156.0
 10
1575.9500413607602
 20
36.157399722653565
 30
156.0
 10
1576.9000005986456
 20
36.22287089278565
 30
156.0
  0
LINE
  5
4E
330
17
100
AcDbEntity
  8
0
100
AcDbLine
 10
1573.1
 20
35.963241157843754
 30
156.0
 11
1573.1
 21
19.868344235871895
 31
156.0
  0
SPLINE
  5
4F
330
17
100
AcDbEntity
  8
0
100
AcDbSpline
 70
0
 71
4
 72
19
 73
14
 74
0
 40
0.0
 40
0.0
 40
0.0
 40
0.0
 40
0.0
 40
0.24843664549046332
 40
0.24843664549046332
 40
0.24843664549046332
 40
0.49795540830205776
 40
0.49795540830205776
 40
0.49795540830205776
 40
0.748498596322324
 40
0.748498596322324
 40
0.748498596322324
 40
1.0
 40
1.0
 40
1.0
 40
1.0
 40
1.0
 10
1573.0999999999997
 20
19.86834423587383
 30
156.0
 10
1571.721479876892
 20
19.753188500043628
 30
156.0
 10
1570.3429072603144
 20
19.6386605664861
 30
156.0
 10
1568.9642830345786
 20
19.52475503401392
 30
156.0
 10
1566.200927954435
 20
19.297684891605304
 30
156.0
 10
1564.8161966562818
 20
19.184525677004032
 30
156.0
 10
1563.4314150079456
 20
19.07198379333505
 30
156.0
 10
1560.6560670696972
 20
18.847665162766685
 30
156.0
 10
1559.265500372317
 20
18.735893453771123
 30
156.0
 10
1557.8748845544899
 20
18.624734065075724
 30
156.0
 10
1555.0882375770632
 20
18.403207503292382
 30
156.0
 10
1553.692206047652
 20
18.292844978163348
 30
156.0
 10
1552.2961266023938
 20
18.183089783593275
 30
156.0
 10
1550.9000000000558
 20
18.073937247759506
 30
156.0
  0
LINE
  5
50
330
17
100
AcDbEntity
  8
0
100
AcDbLine
 10
1550.9
 20
34.535231873782465
 30
156.0
 11
1550.9
 21
18.073937248477492
 31
156.0
  0
SPLINE
  5
51
330
17
100
AcDbEntity
  8
0
100
AcDbSpline
 70
0
 71
4
 72
10
 73
5
 74
0
 40
0.0
 40
0.0
 40
0.0
 40
0.0
 40
0.0
 40
1.0
 40
1.0
 40
1.0
 40
1.0
 40
1.0
 10
1547.0999994009849
 20
34.305654053093875
 30
156.0
 10
1548.0500297729614
 20
34.362518213480826
 30
156.0
 10
1549.0000404290213
 20
34.41973484486955
 30
156.0
 10
1549.9500308712065
 20
34.47730545777644
 30
156.0
 10
1550.9000005989644
 20
34.535231562959936
 30
156.0
  0
LINE
  5
52
330
17
100
AcDbEntity
  8
0
100
AcDbLine
 10
1547.1
 20
34.30565426453622
 30
156.0
 11
1547.1
 21
17.77852272856175
 31
156.0
  0
SPLINE
  5
53
330
17
100
AcDbEntity
  8
0
100
AcDbSpline
 70
0
 71
4
 72
19
 73
14
 74
0
 40
0.0
 40
0.0
 40
0.0
 40
0.0
 40
0.0
 40
0.24868623369408294
 40
0.24868623369408294
 40
0.24868623369408294
 40
0.4982877452231921
 40
0.4982877452231921
 40
0.4982877452231921
 40
0.7487478809523388
 40
0.7487478809523388
 40
0.7487478809523388
 40
1.0
 40
1.0
 40
1.0
 40
1.0
 40
1.0
 10
1547.100000000007
 20
17.77852272847051
 30
156.0
 10
1545.7200524021396
 20
17.671852120608744
 30
156.0
 10
1544.3400597281498
 20
17.565764161275467
 30
156.0
 10
1542.9600226797136
 20
17.460254586362932
 30
156.0
 10
1540.19478186423
 20
17.249997729282978
 30
156.0
 10
1538.8095777743813
 20
17.145254688949304
 30
156.0
 10
1537.4243303439425
 20
17.041085993491354
 30
156.0
 10
1534.648984731881
 20
16.833533026057307
 30
156.0
 10
1533.2588862561286
 20
16.730152684844253
 30
156.0
 10
1531.868745452665
 20
16.627342688162305
 30
156.0
 10
1529.0839845312178
 20
16.422532499024225
 30
156.0
 10
1527.68936414964
 20
16.320535887672136
 30
156.0
 10
1526.294702436123
 20
16.219105616941313
 30
156.0
 10
1524.9000000000028
 20
16.11823800270374
 30
156.0
  0
LINE
  5
54
330
17
100
AcDbEntity
  8
0
100
AcDbLine
 10
1524.9
 20
33.04803708750138
 30
156.0
 11
1524.9
 21
16.118238002752136
 31
156.0
  0
SPLINE
  5
55
330
17
100
AcDbEntity
  8
0
100
AcDbSpline
 70
0
 71
4
 72
10
 73
5
 74
0
 40
0.0
 40
0.0
 40
0.0
 40
0.0
 40
0.0
 40
1.0
 40
1.0
 40
1.0
 40
1.0
 40
1.0
 10
1521.0999994008246
 20
32.84674356673289
 30
156.0
 10
1522.05002013515
 20
32.896568087832826
 30
156.0
 10
1523.0000273220994
 20
32.94672416212145
 30
156.0
 10
1523.9500209290168
 20
32.99721333433459
 30
156.0
 10
1524.9000005991572
 20
33.04803711955621
 30
156.0
  0
LINE
  5
56
330
17
100
AcDbEntity
  8
0
100
AcDbLine
 10
1521.1
 20
32.84674359815708
 30
156.0
 11
1521.1
 21
15.844984452643603
 31
156.0
  0
SPLINE
  5
57
330
17
100
AcDbEntity
  8
0
100
AcDbSpline
 70
0
 71
4
 72
19
 73
14
 74
0
 40
0.0
 40
0.0
 40
0.0
 40
0.0
 40
0.0
 40
0.24890618821242982
 40
0.24890618821242982
 40
0.24890618821242982
 40
0.49858300975155945
 40
0.49858300975155945
 40
0.49858300975155945
 40
0.748969119082729
 40
0.748969119082729
 40
0.748969119082729
 40
1.0
 40
1.0
 40
1.0
 40
1.0
 40
1.0
 10
1521.100000000002
 20
15.844984452615892
 30
156.0
 10
1519.7187976712626
 20
15.74623273299304
 30
156.0
 10
1518.337556207087
 20
15.648027989564982
 30
156.0
 10
1516.9562761750647
 20
15.55036685965373
 30
156.0
 10
1514.1893634038208
 20
15.35582459125907
 30
156.0
 10
1512.8037304283043
 20
15.258946810840394
 30
156.0
 10
1511.4180597503348
 20
15.162609460038146
 30
156.0
 10
1508.6427074968374
 20
14.970737253343477
 30
156.0
 10
1507.2530257098665
 20
14.875205454443797
 30
156.0
 10
1505.8633070723638
 20
14.780210902219894
 30
156.0
 10
1503.080218349855
 20
14.591047097987243
 30
156.0
 10
1501.6868480779335
 20
14.496880593785837
 30
156.0
 10
1500.2934417951253
 20
14.403248143415777
 30
156.0
 10
1498.8999999999946
 20
14.310146857626204
 30
156.0
  0
LINE
  5
58
330
17
100
AcDbEntity
  8
0
100
AcDbLine
 10
1498.9
 20
31.749241199452236
 30
156.0
 11
1498.9
 21
14.310146857543039
 31
156.0
  0
SPLINE
  5
59
330
17
100
AcDbEntity
  8
0
100
AcDbSpline
 70
0
 71
4
 72
10
 73
5
 74
0
 40
0.0
 40
0.0
 40
0.0
 40
0.0
 40
0.0
 40
1.0
 40
1.0
 40
1.0
 40
1.0
 40
1.0
 10
1495.0999994007025
 20
31.574477437883534
 30
156.0
 10
1496.050017270514
 20
31.617701225869297
 30
156.0
 10
1497.0000235140249
 20
31.661235374689692
 30
156.0
 10
1497.9500180010816
 20
31.70508142194397
 30
156.0
 10
1498.9000005992832
 20
31.749240904241745
 30
156.0
  0
LINE
  5
5A
330
17
100
AcDbEntity
  8
0
100
AcDbLine
 10
1495.1
 20
31.574477761757308
 30
156.0
 11
1495.1
 21
14.057738366385049
 31
156.0
  0
SPLINE
  5
5B
330
17
100
AcDbEntity
  8
0
100
AcDbSpline
 70
0
 71
4
 72
19
 73
14
 74
0
 40
0.0
 40
0.0
 40
0.0
 40
0.0
 40
0.0
 40
0.24911083161251169
 40
0.24911083161251169
 40
0.24911083161251169
 40
0.4988550113913193
 40
0.4988550113913193
 40
0.4988550113913193
 40
0.7491717378399924
 40
0.7491717378399924
 40
0.7491717378399924
 40
1.0
 40
1.0
 40
1.0
 40
1.0
 40
1.0
 10
1495.099999999993
 20
14.057738366489634
 30
156.0
 10
1493.7176340704825
 20
13.96645572243971
 30
156.0
 10
1492.3352338507377
 20
13.875692032771692
 30
156.0
 10
1490.952799808242
 20
13.785444669289651
 30
156.0
 10
1488.184350153236
 20
13.605749324714813
 30
156.0
 10
1486.798334370358
 20
13.516303966293332
 30
156.0
 10
1485.4122855051353
 20
13.427372438905856
 30
156.0
 10
1482.6369448506707
 20
13.250329506312816
 30
156.0
 10
1481.24765291163
 20
13.162220448503385
 30
156.0
 10
1479.858328621171
 20
13.074622718543734
 30
156.0
 10
1477.0767769641448
 20
12.900267343181131
 30
156.0
 10
1475.6845494673798
 20
12.81351177317306
 30
156.0
 10
1474.2922903409094
 20
12.727265021092073
 30
156.0
 10
1472.8999999999962
 20
12.64152485593242
 30
156.0
  0
LINE
  5
5C
330
17
100
AcDbEntity
  8
0
100
AcDbLine
 10
1472.9
 20
30.6268432549559
 30
156.0
 11
1472.9
 21
12.641524855869566
 31
156.0
  0
SPLINE
  5
5D
330
17
100
AcDbEntity
  8
0
100
AcDbSpline
 70
0
 71
4
 72
10
 73
5
 74
0
 40
0.0
 40
0.0
 40
0.0
 40
0.0
 40
0.0
 40
1.0
 40
1.0
 40
1.0
 40
1.0
 40
1.0
 10
1469.0999994005824
 20
30.476856085931573
 30
156.0
 10
1470.0500147316868
 20
30.513917480101895
 30
156.0
 10
1471.000020119002
 20
30.551268041192753
 30
156.0
 10
1471.950015447337
 20
30.588909308899865
 30
156.0
 10
1472.9000005993958
 20
30.62684282209466
 30
156.0
  0
LINE
  5
5E
330
17
100
AcDbEntity
  8
0
100
AcDbLine
 10
1469.1
 20
30.476856965414328
 30
156.0
 11
1469.1
 21
12.408930602359309
 31
156.0
  0
SPLINE
  5
5F
330
17
100
AcDbEntity
  8
0
100
AcDbSpline
 70
0
 71
4
 72
19
 73
14
 74
0
 40
0.0
 40
0.0
 40
0.0
 40
0.0
 40
0.0
 40
0.23833392840853893
 40
0.23833392840853893
 40
0.23833392840853893
 40
0.47611245235601596
 40
0.47611245235601596
 40
0.47611245235601596
 40
0.7142966494764394
 40
0.7142966494764394
 40
0.7142966494764394
 40
1.0
 40
1.0
 40
1.0
 40
1.0
 40
1.0
 10
1469.0999999999942
 20
12.40893060245333
 30
156.0
 10
1467.7774149415313
 20
12.328468934298566
 30
156.0
 10
1466.4548022204235
 20
12.248461718127906
 30
156.0
 10
1465.1321621787924
 20
12.16890719933976
 30
156.0
 10
1462.4899104186288
 20
12.010884443784963
 30
156.0
 10
1461.1702988252957
 20
11.932414114153662
 30
156.0
 10
1459.8506607029337
 20
11.854390976169675
 30
156.0
 10
1457.2090805656608
 20
11.699103548587708
 30
156.0
 10
1455.8871384612703
 20
11.62184078067778
 30
156.0
 10
1454.565170380584
 20
11.545023537813101
 30
156.0
 10
1451.657437333564
 20
11.377040186103864
 30
155.99999999999997
 10
1450.071661105602
 20
11.286068912989599
 30
156.0
 10
1448.4858484875926
 20
11.195733932417621
 30
156.0
 10
1446.8999999999862
 20
11.106032789619354
 30
156.0
  0
LINE
  5
60
330
17
100
AcDbEntity
  8
0
100
AcDbLine
 10
1446.9
 20
29.668855506711296
 30
156.0
 11
1446.9
 21
11.106032789375192
 31
156.0
  0
SPLINE
  5
61
330
17
100
AcDbEntity
  8
0
100
AcDbSpline
 70
0
 71
4
 72
10
 73
5
 74
0
 40
0.0
 40
0.0
 40
0.0
 40
0.0
 40
0.0
 40
1.0
 40
1.0
 40
1.0
 40
1.0
 40
1.0
 10
1443.0999994004799
 20
29.541895307513343
 30
156.0
 10
1444.0500124924188
 20
29.573231853883797
 30
156.0
 10
1445.0000171240754
 20
29.604836378351287
 30
156.0
 10
1445.9500131941795
 20
29.636710422020975
 30
156.0
 10
1446.9000005995108
 20
29.668855525318943
 30
156.0
  0
LINE
  5
62
330
17
100
AcDbEntity
  8
0
100
AcDbLine
 10
1443.1
 20
29.541895329137958
 30
156.0
 11
1443.1
 21
10.892458557629588
 31
156.0
  0
SPLINE
  5
63
330
17
100
AcDbEntity
  8
0
100
AcDbSpline
 70
0
 71
4
 72
13
 73
8
 74
0
 40
0.0
 40
0.0
 40
0.0
 40
0.0
 40
0.0
 40
0.4993508519006629
 40
0.4993508519006629
 40
0.4993508519006629
 40
1.0
 40
1.0
 40
1.0
 40
1.0
 40
1.0
 10
1443.099999999985
 20
10.892458557900733
 30
156.0
 10
1440.328915618241
 20
10.737708619911835
 30
156.0
 10
1437.5577235956114
 20
10.584885287441233
 30
156.0
 10
1434.7864266268384
 20
10.433976418587523
 30
156.0
 10
1429.2364223281188
 20
10.135578963819983
 30
156.0
 10
1426.4577144653606
 20
9.988100288335398
 30
156.0
 10
1423.6789062180235
 20
9.8425247830931
 30
156.0
 10
1420.8999999999833
 20
9.698843330854304
 30
156.0
  0
LINE
  5
64
330
17
100
AcDbEntity
  8
0
100
AcDbLine
 10
1420.9
 20
28.863312574760553
 30
156.0
 11
1420.9
 21
9.698843330525442
 31
156.0
  0
SPLINE
  5
65
330
17
100
AcDbEntity
  8
0
100
AcDbSpline
 70
0
 71
4
 72
10
 73
5
 74
0
 40
0.0
 40
0.0
 40
0.0
 40
0.0
 40
0.0
 40
1.0
 40
1.0
 40
1.0
 40
1.0
 40
1.0
 10
1417.099999400371
 20
28.75763162275248
 30
156.0
 10
1418.0500105307938
 20
28.783680126323116
 30
156.0
 10
1419.000014500035
 20
28.80997542779687
 30
156.0
 10
1419.950011219705
 20
28.836519069116576
 30
156.0
 10
1420.9000005996072
 20
28.863312591671882
 30
156.0
  0
LINE
  5
66
330
17
100
AcDbEntity
  8
0
100
AcDbLine
 10
1417.1
 20
28.757631639193804
 30
156.0
 11
1417.1
 21
9.503697173960896
 31
156.0
  0
SPLINE
  5
67
330
17
100
AcDbEntity
  8
0
100
AcDbSpline
 70
0
 71
4
 72
13
 73
8
 74
0
 40
0.0
 40
0.0
 40
0.0
 40
0.0
 40
0.0
 40
0.4995813253190263
 40
0.4995813253190263
 40
0.4995813253190263
 40
1.0
 40
1.0
 40
1.0
 40
1.0
 40
1.0
 10
1417.0999999999797
 20
9.50369717435616
 30
156.0
 10
1414.3276023725657
 20
9.36229222237967
 30
156.0
 10
1411.5551088659913
 20
9.222766361273726
 30
156.0
 10
1408.7825218219127
 20
9.085111252472121
 30
156.0
 10
1403.2325178194708
 20
8.813301013469257
 30
156.0
 10
1400.455100555007
 20
8.679152134857043
 30
156.0
 10
1397.6775939056436
 20
8.546866413755051
 30
156.0
 10
1394.9000000000015
 20
8.416438307419487
 30
156.0
  0
LINE
  5
68
330
17
100
AcDbEntity
  8
0
100
AcDbLine
 10
1394.9
 20
28.198267133380664
 30
156.0
 11
1394.9
 21
8.416438307435323
 31
156.0
  0
SPLINE
  5
69
330
17
100
AcDbEntity
  8
0
100
AcDbSpline
 70
0
 71
4
 72
10
 73
5
 74
0
 40
0.0
 40
0.0
 40
0.0
 40
0.0
 40
0.0
 40
1.0
 40
1.0
 40
1.0
 40
1.0
 40
1.0
 10
1391.099999400284
 20
28.11212089226537
 30
156.0
 10
1392.0500088249084
 20
28.133317468713997
 30
156.0
 10
1393.0000122176737
 20
28.154739674204595
 30
156.0
 10
1393.9500095020137
 20
28.17638905105193
 30
156.0
 10
1394.9000005997123
 20
28.198267141126294
 30
156.0
  0
LINE
  5
6A
330
17
100
AcDbEntity
  8
0
100
AcDbLine
 10
1391.1
 20
28.11212091148174
 30
156.0
 11
1391.1
 21
8.23930668311671
 31
156.0
  0
SPLINE
  5
6B
330
17
100
AcDbEntity
  8
0
100
AcDbSpline
 70
0
 71
4
 72
13
 73
8
 74
0
 40
0.0
 40
0.0
 40
0.0
 40
0.0
 40
0.0
 40
0.49980573013421353
 40
0.49980573013421353
 40
0.49980573013421353
 40
1.0
 40
1.0
 40
1.0
 40
1.0
 40
1.0
 10
1391.0999999999997
 20
8.23930668311738
 30
156.0
 10
1388.3263268458866
 20
8.110968331281965
 30
156.0
 10
1385.552568126696
 20
7.984478683572731
 30
156.0
 10
1382.7787259194376
 20
7.85983289883711
 30
156.0
 10
1377.228722119521
 20
7.614126483076383
 30
156.0
 10
1374.4525604002731
 20
7.493068713690578
 30
155.99999999999994
 10
1371.6763190537129
 20
7.37385066942924
 30
155.99999999999991
 10
1368.9
 20
7.256470174805488
 30
155.9999999999999
  0
LINE
  5
6C
330
17
100
AcDbEntity
  8
0
100
AcDbLine
 10
1368.9
 20
27.661790449457968
 30
156.0
 11
1368.9
 21
7.256470174806718
 31
156.0
  0
SPLINE
  5
6D
330
17
100
AcDbEntity
  8
0
100
AcDbSpline
 70
0
 71
4
 72
10
 73
5
 74
0
 40
0.0
 40
0.0
 40
0.0
 40
0.0
 40
0.0
 40
1.0
 40
1.0
 40
1.0
 40
1.0
 40
1.0
 10
1365.0999994001957
 20
27.593436940519297
 30
156.0
 10
1366.0500073527971
 20
27.61021706756906
 30
156.0
 10
1367.0000102477095
 20
27.62720166806658
 30
156.0
 10
1367.9500080191403
 20
27.644392284330408
 30
156.0
 10
1368.9000005997916
 20
27.661790458327353
 30
156.0
  0
LINE
  5
6E
330
17
100
AcDbEntity
  8
0
100
AcDbLine
 10
1365.1
 20
27.593436952045465
 30
156.0
 11
1365.1
 21
7.097102205228227
 31
156.0
  0
SPLINE
  5
6F
330
17
100
AcDbEntity
  8
0
100
AcDbSpline
 70
0
 71
4
 72
13
 73
8
 74
0
 40
0.0
 40
0.0
 40
0.0
 40
0.0
 40
0.0
 40
0.5000074656070655
 40
0.5000074656070655
 40
0.5000074656070655
 40
1.0
 40
1.0
 40
1.0
 40
1.0
 40
1.0
 10
1365.1000000000004
 20
7.09710220521955
 30
156.0
 10
1362.3251796569116
 20
6.981673039173412
 30
156.0
 10
1359.5502830024705
 20
6.868077925797927
 30
156.0
 10
1356.7753119019071
 20
6.75631598114478
 30
156.0
 10
1351.2253074068649
 20
6.536459175232635
 30
156.0
 10
1348.4502740847956
 20
6.4283625212211115
 30
156.0
 10
1345.675170801441
 20
6.322077470489228
 30
156.0
 10
1342.8999999999983
 20
6.217585348794391
 30
156.0
  0
LINE
  5
70
330
17
100
AcDbEntity
  8
0
100
AcDbLine
 10
1342.9
 20
27.241970613721044
 30
156.0
 11
1342.9
 21
6.217585348741801
 31
156.0
  0
SPLINE
  5
71
330
17
100
AcDbEntity
  8
0
100
AcDbSpline
 70
0
 71
4
 72
10
 73
5
 74
0
 40
0.0
 40
0.0
 40
0.0
 40
0.0
 40
0.0
 40
1.0
 40
1.0
 40
1.0
 40
1.0
 40
1.0
 10
1339.0999994001154
 20
27.189670185106195
 30
156.0
 10
1340.0500060925417
 20
27.202468753583215
 30
156.0
 10
1341.000008560924
 20
27.21545065441338
 30
156.0
 10
1341.950006749179
 20
27.22861742963964
 30
156.0
 10
1342.900000599874
 20
27.241970621031232
 30
156.0
  0
LINE
  5
72
330
17
100
AcDbEntity
  8
0
100
AcDbLine
 10
1339.1
 20
27.18967019445622
 30
156.0
 11
1339.1
 21
6.075765271801908
 31
156.0
  0
SPLINE
  5
73
330
17
100
AcDbEntity
  8
0
100
AcDbSpline
 70
0
 71
4
 72
13
 73
8
 74
0
 40
0.0
 40
0.0
 40
0.0
 40
0.0
 40
0.0
 40
0.5000220774717069
 40
0.5000220774717069
 40
0.5000220774717069
 40
1.0
 40
1.0
 40
1.0
 40
1.0
 40
1.0
 10
1339.099999999997
 20
6.075765271887287
 30
156.0
 10
1336.3250656020994
 20
5.973119223079489
 30
156.0
 10
1333.5500653592462
 20
5.872252984869625
 30
156.0
 10
1330.7750016705145
 20
5.773148057107788
 30
156.0
 10
1325.2249970603784
 20
5.57843207389343
 30
156.0
 10
1322.4500561494597
 20
5.482820711090522
 30
156.0
 10
1319.6750563975897
 20
5.388933120247231
 30
156.0
 10
1316.8999999999985
 20
5.296750573171471
 30
156.0
  0
LINE
  5
74
330
17
100
AcDbEntity
  8
0
100
AcDbLine
 10
1316.9
 20
26.92691112896161
 30
156.0
 11
1316.9
 21
5.2967505731240365
 31
156.0
  0
SPLINE
  5
75
330
17
100
AcDbEntity
  8
0
100
AcDbSpline
 70
0
 71
4
 72
10
 73
5
 74
0
 40
0.0
 40
0.0
 40
0.0
 40
0.0
 40
0.0
 40
1.0
 40
1.0
 40
1.0
 40
1.0
 40
1.0
 10
1313.0999994000413
 20
26.888926271477494
 30
156.0
 10
1314.0500050222365
 20
26.898177636074493
 30
156.0
 10
1315.0000071281065
 20
26.90759120702821
 30
156.0
 10
1315.950005670219
 20
26.917168525906277
 30
156.0
 10
1316.9000005999485
 20
26.926911134067705
 30
156.0
  0
LINE
  5
76
330
17
100
AcDbEntity
  8
0
100
AcDbLine
 10
1313.1
 20
26.888926278072482
 30
156.0
 11
1313.1
 21
5.1717184488300845
 31
156.0
  0
SPLINE
  5
77
330
17
100
AcDbEntity
  8
0
100
AcDbSpline
 70
0
 71
4
 72
13
 73
8
 74
0
 40
0.0
 40
0.0
 40
0.0
 40
0.0
 40
0.0
 40
0.5000009083843693
 40
0.5000009083843693
 40
0.5000009083843693
 40
1.0
 40
1.0
 40
1.0
 40
1.0
 40
1.0
 10
1313.0999999999976
 20
5.17171844889691
 30
156.0
 10
1310.3251017075218
 20
5.081287517255738
 30
156.0
 10
1307.5501482677598
 20
4.992548598404859
 30
156.0
 10
1304.7751418349312
 20
4.905483126449932
 30
156.0
 10
1299.225037184073
 20
4.734661910263146
 30
156.0
 10
1296.449938966138
 20
4.650906154456171
 30
156.0
 10
1293.67479186962
 20
4.568786462848039
 30
156.0
 10
1290.899597854685
 20
4.488284033776164
 30
156.0
  0
LINE
  5
78
330
17
100
AcDbEntity
  8
0
100
AcDbLine
 10
1290.9
 20
26.704729564246403
 30
156.0
 11
1290.9
 21
4.488295699134479
 31
156.0
  0
SPLINE
  5
79
330
17
100
AcDbEntity
  8
0
100
AcDbSpline
 70
0
 71
4
 72
10
 73
5
 74
0
 40
0.0
 40
0.0
 40
0.0
 40
0.0
 40
0.0
 40
1.0
 40
1.0
 40
1.0
 40
1.0
 40
1.0
 10
1287.099999399974
 20
26.679324712703277
 30
156.0
 10
1288.050004120015
 20
26.68546274246563
 30
156.0
 10
1289.0000059201016
 20
26.69174186771826
 30
156.0
 10
1289.9500047603956
 20
26.698163629424673
 30
156.0
 10
1290.9000006000167
 20
26.704729568393443
 30
156.0
  0
LINE
  5
7A
330
17
100
AcDbEntity
  8
0
100
AcDbLine
 10
1287.1
 20
26.679324716596085
 30
156.0
 11
1287.1
 21
4.379200662138099
 31
156.0
  0
SPLINE
  5
7B
330
17
100
AcDbEntity
  8
0
100
AcDbSpline
 70
0
 71
4
 72
13
 73
8
 74
0
 40
0.0
 40
0.0
 40
0.0
 40
0.0
 40
0.0
 40
0.4999983845534299
 40
0.4999983845534299
 40
0.4999983845534299
 40
1.0
 40
1.0
 40
1.0
 40
1.0
 40
1.0
 10
1287.099999999999
 20
4.379200662169479
 30
156.0
 10
1284.3250878583501
 20
4.300361747785636
 30
156.0
 10
1281.5501301386907
 20
4.223126895363394
 30
156.0
 10
1278.7751287626588
 20
4.147477458029604
 30
156.0
 10
1273.225024426923
 20
3.999311300851106
 30
156.0
 10
1270.4499214664388
 20
3.9267946017367112
 30
156.0
 10
1267.6747785070086
 20
3.855825803893485
 30
156.0
 10
1264.899597285374
 20
3.7863860238738987
 30
156.0
  0
LINE
  5
7C
330
17
100
AcDbEntity
  8
0
100
AcDbLine
 10
1264.9
 20
26.563556202997
 30
156.0
 11
1264.9
 21
3.78639610048825
 31
156.0
  0
SPLINE
  5
7D
330
17
100
AcDbEntity
  8
0
100
AcDbSpline
 70
0
 71
4
 72
10
 73
5
 74
0
 40
0.0
 40
0.0
 40
0.0
 40
0.0
 40
0.0
 40
1.0
 40
1.0
 40
1.0
 40
1.0
 40
1.0
 10
1261.0999993999135
 20
26.54899753381526
 30
156.0
 10
1262.050003364055
 20
26.552455662365766
 30
156.0
 10
1263.00000490781
 20
26.556033790202186
 30
156.0
 10
1263.950003997884
 20
26.55973345761702
 30
156.0
 10
1264.9000006000788
 20
26.56355620479205
 30
156.0
  0
LINE
  5
7E
330
17
100
AcDbEntity
  8
0
100
AcDbLine
 10
1261.1
 20
26.548997536699787
 30
156.0
 11
1261.1
 21
3.692386104116585
 31
156.0
  0
SPLINE
  5
7F
330
17
100
AcDbEntity
  8
0
100
AcDbSpline
 70
0
 71
4
 72
13
 73
8
 74
0
 40
0.0
 40
0.0
 40
0.0
 40
0.0
 40
0.0
 40
0.4999961776203264
 40
0.4999961776203264
 40
0.4999961776203264
 40
1.0
 40
1.0
 40
1.0
 40
1.0
 40
1.0
 10
1261.1000000000042
 20
3.6923861039497723
 30
156.0
 10
1258.325075426737
 20
3.624517066380936
 30
156.0
 10
1255.550113776629
 20
3.558163844863099
 30
156.0
 10
1252.7751167505837
 20
3.493307700361152
 30
156.0
 10
1247.2250127451798
 20
3.3665507849984118
 30
156.0
 10
1244.4499057645874
 20
3.3046500598521633
 30
156.0
 10
1241.6747666324834
 20
3.2442087395704085
 30
156.0
 10
1238.899596873999
 20
3.185207850117154
 30
156.0
  0
LINE
  5
80
330
17
100
AcDbEntity
  8
0
100
AcDbLine
 10
1238.9
 20
26.491532680830716
 30
156.0
 11
1238.9
 21
3.185216420572277
 31
156.0
  0
SPLINE
  5
81
330
17
100
AcDbEntity
  8
0
100
AcDbSpline
 70
0
 71
4
 72
10
 73
5
 74
0
 40
0.0
 40
0.0
 40
0.0
 40
0.0
 40
0.0
 40
1.0
 40
1.0
 40
1.0
 40
1.0
 40
1.0
 10
1235.0999993998598
 20
26.486087920298267
 30
156.0
 10
1236.0500027325804
 20
26.487299195816934
 30
156.0
 10
1237.000004062205
 20
26.48860938817773
 30
156.0
 10
1237.950003360909
 20
26.490020036990245
 30
156.0
 10
1238.9000006001347
 20
26.49153268178629
 30
156.0
  0
LINE
  5
82
330
17
100
AcDbEntity
  8
0
100
AcDbLine
 10
1235.1
 20
26.486087921063458
 30
156.0
 11
1235.1
 21
3.1054373619405427
 31
156.0
  0
SPLINE
  5
83
330
17
100
AcDbEntity
  8
0
100
AcDbSpline
 70
0
 71
4
 72
13
 73
8
 74
0
 40
0.0
 40
0.0
 40
0.0
 40
0.0
 40
0.0
 40
0.49999426575260414
 40
0.49999426575260414
 40
0.49999426575260414
 40
1.0
 40
1.0
 40
1.0
 40
1.0
 40
1.0
 10
1235.0999999999933
 20
3.1054373622651816
 30
156.0
 10
1232.3250643625495
 20
3.047914491762682
 30
156.0
 10
1229.5500991377842
 20
2.9918188350309545
 30
156.0
 10
1226.7751058175463
 20
2.93713155228911
 30
156.0
 10
1221.225002152953
 20
2.8305345086231273
 30
156.0
 10
1218.4498918072084
 20
2.7786248119744004
 30
156.0
 10
1215.6747561811276
 20
2.728085637454728
 30
156.0
 10
1212.899596599968
 20
2.678897914027244
 30
156.0
  0
LINE
  5
84
330
17
100
AcDbEntity
  8
0
100
AcDbLine
 10
1212.9
 20
26.476810647559233
 30
156.0
 11
1212.9
 21
2.6789050633607716
 31
156.0
  0
SPLINE
  5
85
330
17
100
AcDbEntity
  8
0
100
AcDbSpline
 70
0
 71
4
 72
10
 73
5
 74
0
 40
0.0
 40
0.0
 40
0.0
 40
0.0
 40
0.0
 40
1.0
 40
1.0
 40
1.0
 40
1.0
 40
1.0
 10
1209.099999399813
 20
26.478748870297007
 30
156.0
 10
1210.0500022038623
 20
26.4781460052723
 30
156.0
 10
1211.0000033543045
 20
26.477620987140106
 30
156.0
 10
1211.9500028277391
 20
26.477175354856122
 30
156.0
 10
1212.9000006001813
 20
26.47681064732882
 30
156.0
  0
LINE
  5
86
330
17
100
AcDbEntity
  8
0
100
AcDbLine
 10
1209.1
 20
26.47874886991613
 30
156.0
 11
1209.1
 21
2.6125000692269604
 31
156.0
  0
SPLINE
  5
87
330
17
100
AcDbEntity
  8
0
100
AcDbSpline
 70
0
 71
4
 72
13
 73
8
 74
0
 40
0.0
 40
0.0
 40
0.0
 40
0.0
 40
0.0
 40
0.4939924800988407
 40
0.4939924800988407
 40
0.4939924800988407
 40
1.0
 40
1.0
 40
1.0
 40
1.0
 40
1.0
 10
1209.0999999999885
 20
2.612500069886797
 30
156.0
 10
1206.3583552691598
 20
2.5652712276621554
 30
156.0
 10
1203.616688034559
 20
2.5193486666718012
 30
156.0
 10
1200.8749995445398
 20
2.4747141157629815
 30
156.0
 10
1195.3248977065662
 20
2.3869294498458387
 30
156.0
 10
1192.516483369721
 20
2.3438418452688787
 30
156.0
 10
1189.7080492223038
 20
2.302066622169188
 30
156.0
 10
1186.899596442837
 20
2.261583911575169
 30
156.0
  0
LINE
  5
88
330
17
100
AcDbEntity
  8
0
100
AcDbLine
 10
1186.9
 20
26.507550414983736
 30
156.0
 11
1186.9
 21
2.2615897284102813
 31
156.0
  0
SPLINE
  5
89
330
17
100
AcDbEntity
  8
0
100
AcDbSpline
 70
0
 71
4
 72
10
 73
5
 74
0
 40
0.0
 40
0.0
 40
0.0
 40
0.0
 40
0.0
 40
1.0
 40
1.0
 40
1.0
 40
1.0
 40
1.0
 10
1183.099999399768
 20
26.51514185010758
 30
156.0
 10
1184.050001756214
 20
26.51315727087533
 30
156.0
 10
1185.000002755197
 20
26.511229479510412
 30
156.0
 10
1185.9500023766889
 20
26.509360014383795
 30
156.0
 10
1186.9000006002218
 20
26.507550413840406
 30
156.0
  0
LINE
  5
8A
330
17
100
AcDbEntity
  8
0
100
AcDbLine
 10
1183.1
 20
26.51514184885368
 30
156.0
 11
1183.1
 21
2.2076985843766335
 31
156.0
  0
SPLINE
  5
8B
330
17
100
AcDbEntity
  8
0
100
AcDbSpline
 70
0
 71
4
 72
10
 73
5
 74
0
 40
0.0
 40
0.0
 40
0.0
 40
0.0
 40
0.0
 40
1.0
 40
1.0
 40
1.0
 40
1.0
 40
1.0
 10
1183.100000000001
 20
2.2076985843220736
 30
156.0
 10
1177.5499950505925
 20
2.1302764335716406
 30
156.0
 10
1171.999920416156
 20
2.057849549310415
 30
156.0
 10
1166.4497849668383
 20
1.9902651627622678
 30
156.0
 10
1160.899596382277
 20
1.9273693592336056
 30
156.0
  0
LINE
  5
8C
330
17
100
AcDbEntity
  8
0
100
AcDbLine
 10
1160.9
 20
26.571919619249798
 30
156.0
 11
1160.9
 21
1.9273739331866893
 31
156.0
  0
SPLINE
  5
8D
330
17
100
AcDbEntity
  8
0
100
AcDbSpline
 70
0
 71
4
 72
10
 73
5
 74
0
 40
0.0
 40
0.0
 40
0.0
 40
0.0
 40
0.0
 40
1.0
 40
1.0
 40
1.0
 40
1.0
 40
1.0
 10
1157.0999993997368
 20
26.583435452524885
 30
156.0
 10
1158.0500013680014
 20
26.580501348611108
 30
156.0
 10
1159.0000022360348
 20
26.577602982661507
 30
156.0
 10
1159.9500019861168
 20
26.574741892555657
 30
156.0
 10
1160.9000006002561
 20
26.571919616166603
 30
156.0
  0
LINE
  5
8E
330
17
100
AcDbEntity
  8
0
100
AcDbLine
 10
1157.1
 20
26.583435452398643
 30
156.0
 11
1157.1
 21
1.8851326585303032
 31
156.0
  0
SPLINE
  5
8F
330
17
100
AcDbEntity
  8
0
100
AcDbSpline
 70
0
 71
4
 72
10
 73
5
 74
0
 40
0.0
 40
0.0
 40
0.0
 40
0.0
 40
0.0
 40
1.0
 40
1.0
 40
1.0
 40
1.0
 40
1.0
 10
1157.1000000000006
 20
1.8851326584574881
 30
156.0
 10
1151.5499676987856
 20
1.8246327283983956
 30
156.0
 10
1145.9998848653709
 20
1.7687684416907679
 30
156.0
 10
1140.4497589764064
 20
1.717386154276353
 30
156.0
 10
1134.8995963980458
 20
1.6703311208402178
 30
156.0
  0
LINE
  5
90
330
17
100
AcDbEntity
  8
0
100
AcDbLine
 10
1134.9
 20
26.658091881500578
 30
156.0
 11
1134.9
 21
1.670334544632623
 31
156.0
  0
SPLINE
  5
91
330
17
100
AcDbEntity
  8
0
100
AcDbSpline
 70
0
 71
5
 72
12
 73
6
 74
0
 40
0.0
 40
0.0
 40
0.0
 40
0.0
 40
0.0
 40
0.0
 40
1.0
 40
1.0
 40
1.0
 40
1.0
 40
1.0
 40
1.0
 10
1131.0999993997127
 20
26.671804057619397
 30
156.0
 10
1131.932792815952
 20
26.66877828171489
 30
156.0
 10
1132.6632709675516
 20
26.6661348396731
 30
156.0
 10
1133.461106763763
 20
26.663252810710517
 30
156.0
 10
1134.2888775277052
 20
26.66028093563606
 30
156.0
 10
1134.9000006002864
 20
26.658091872026
 30
156.0
  0
LINE
  5
92
330
17
100
AcDbEntity
  8
0
100
AcDbLine
 10
1131.1
 20
26.671804062962153
 30
156.0
 11
1131.1
 21
1.6388751191573996
 31
156.0
  0
SPLINE
  5
93
330
17
100
AcDbEntity
  8
0
100
AcDbSpline
 70
0
 71
4
 72
10
 73
5
 74
0
 40
0.0
 40
0.0
 40
0.0
 40
0.0
 40
0.0
 40
1.0
 40
1.0
 40
1.0
 40
1.0
 40
1.0
 10
1131.1000000000154
 20
1.638875117277466
 30
156.0
 10
1125.5499449981007
 20
1.5940293913705768
 30
156.0
 10
1119.999855461304
 20
1.5534578037481046
 30
156.0
 10
1114.4497375685012
 20
1.5170058495290162
 30
156.0
 10
1108.8995964699593
 20
1.4845179889977334
 30
156.0
  0
LINE
  5
94
330
17
100
AcDbEntity
  8
0
100
AcDbLine
 10
1108.9
 20
26.75424545527991
 30
156.0
 11
1108.9
 21
1.4845203528149586
 31
156.0
  0
SPLINE
  5
95
330
17
100
AcDbEntity
  8
0
100
AcDbSpline
 70
0
 71
4
 72
10
 73
5
 74
0
 40
0.0
 40
0.0
 40
0.0
 40
0.0
 40
0.0
 40
1.0
 40
1.0
 40
1.0
 40
1.0
 40
1.0
 10
1105.0999993996932
 20
26.768426495517843
 30
156.0
 10
1106.0500006834488
 20
26.764889209229572
 30
156.0
 10
1107.0000013222934
 20
26.761345580465584
 30
156.0
 10
1107.9500012999833
 20
26.757797146473358
 30
156.0
 10
1108.9000006003093
 20
26.754245444524535
 30
156.0
  0
LINE
  5
96
330
17
100
AcDbEntity
  8
0
100
AcDbLine
 10
1105.1
 20
26.768426501376194
 30
156.0
 11
1105.1
 21
1.4629706021959579
 31
156.0
  0
SPLINE
  5
97
330
17
100
AcDbEntity
  8
0
100
AcDbSpline
 70
0
 71
4
 72
10
 73
5
 74
0
 40
0.0
 40
0.0
 40
0.0
 40
0.0
 40
0.0
 40
1.0
 40
1.0
 40
1.0
 40
1.0
 40
1.0
 10
1105.1004035160338
 20
1.4629728151494632
 30
156.0
 10
1099.5502279024042
 20
1.432506375328698
 30
156.0
 10
1094.0000308222834
 20
1.4059508710278634
 30
156.0
 10
1088.4498172546193
 20
1.3831509687352104
 30
156.0
 10
1082.8995912337036
 20
1.363950391257827
 30
156.0
  0
LINE
  5
98
330
17
100
AcDbEntity
  8
0
100
AcDbLine
 10
1082.9
 20
26.848561913623413
 30
156.0
 11
1082.9
 21
1.3639518067144023
 31
156.0
  0
SPLINE
  5
99
330
17
100
AcDbEntity
  8
0
100
AcDbSpline
 70
0
 71
4
 72
10
 73
5
 74
0
 40
0.0
 40
0.0
 40
0.0
 40
0.0
 40
0.0
 40
1.0
 40
1.0
 40
1.0
 40
1.0
 40
1.0
 10
1079.0999993996784
 20
26.861484710763943
 30
156.0
 10
1080.0500003439515
 20
26.858293538336333
 30
156.0
 10
1081.0000008701718
 20
26.855074988699958
 30
156.0
 10
1081.9500009612589
 20
26.851830598972708
 30
156.0
 10
1082.9000006003187
 20
26.848561906311737
 30
156.0
  0
LINE
  5
9A
330
17
100
AcDbEntity
  8
0
100
AcDbLine
 10
1079.1
 20
26.86148470900231
 30
156.0
 11
1079.1
 21
1.3514354630068695
 31
156.0
  0
SPLINE
  5
9B
330
17
100
AcDbEntity
  8
0
100
AcDbSpline
 70
0
 71
4
 72
10
 73
5
 74
0
 40
0.0
 40
0.0
 40
0.0
 40
0.0
 40
0.0
 40
1.0
 40
1.0
 40
1.0
 40
1.0
 40
1.0
 10
1079.1000000000042
 20
1.3514354616463515
 30
156.0
 10
1073.5499107750181
 20
1.3340697013814407
 30
156.0
 10
1067.9998104577326
 20
1.3202496341564711
 30
156.0
 10
1062.4497029265124
 20
1.309819185547313
 30
156.0
 10
1056.8995912011064
 20
1.3026214566219296
 30
156.0
  0
LINE
  5
9C
330
17
100
AcDbEntity
  8
0
100
AcDbLine
 10
1056.9
 20
26.92922480684573
 30
156.0
 11
1056.9
 21
1.3026219876710923
 31
156.0
  0
SPLINE
  5
9D
330
17
100
AcDbEntity
  8
0
100
AcDbSpline
 70
0
 71
4
 72
10
 73
5
 74
0
 40
0.0
 40
0.0
 40
0.0
 40
0.0
 40
0.0
 40
1.0
 40
1.0
 40
1.0
 40
1.0
 40
1.0
 10
1053.099999399673
 20
26.93916242783633
 30
156.0
 10
1054.049999977562
 20
26.936749101621647
 30
156.0
 10
1055.0000003828898
 20
26.93428736432377
 30
156.0
 10
1055.9500005966859
 20
26.931778753047197
 30
156.0
 10
1056.9000006003257
 20
26.929224804955776
 30
156.0
  0
LINE
  5
9E
330
17
100
AcDbEntity
  8
0
100
AcDbLine
 10
1053.1
 20
26.939162426741756
 30
156.0
 11
1053.1
 21
1.2982589477631876
 31
156.0
  0
SPLINE
  5
9F
330
17
100
AcDbEntity
  8
0
100
AcDbSpline
 70
0
 71
4
 72
10
 73
5
 74
0
 40
0.0
 40
0.0
 40
0.0
 40
0.0
 40
0.0
 40
1.0
 40
1.0
 40
1.0
 40
1.0
 40
1.0
 10
1053.1000000000004
 20
1.2982589468706969
 30
156.0
 10
1047.549901284717
 20
1.2927073471829404
 30
156.0
 10
1041.9997993914808
 20
1.2903347866819666
 30
156.0
 10
1036.4496972002728
 20
1.2909845456032283
 30
156.0
 10
1030.8995968214044
 20
1.2944992306182568
 30
156.0
  0
LINE
  5
A0
330
17
100
AcDbEntity
  8
0
100
AcDbLine
 10
1030.9
 20
26.98441833014381
 30
156.0
 11
1030.9
 21
1.2944989756875196
 31
156.0
  0
SPLINE
  5
A1
330
17
100
AcDbEntity
  8
0
100
AcDbSpline
 70
0
 71
4
 72
10
 73
5
 74
0
 40
0.0
 40
0.0
 40
0.0
 40
0.0
 40
0.0
 40
1.0
 40
1.0
 40
1.0
 40
1.0
 40
1.0
 10
1027.0999993996743
 20
26.989643817401536
 30
156.0
 10
1028.0499995627165
 20
26.988440077272195
 30
156.0
 10
1028.9999998316919
 20
26.987166891037383
 30
156.0
 10
1029.9500001846998
 20
26.98582579589449
 30
156.0
 10
1030.9000006003262
 20
26.98441832911547
 30
156.0
  0
LINE
  5
A2
330
17
100
AcDbEntity
  8
0
100
AcDbLine
 10
1027.1
 20
26.98964381665867
 30
156.0
 11
1027.1
 21
1.2974057690963963
 31
156.0
  0
SPLINE
  5
A3
330
17
100
AcDbEntity
  8
0
100
AcDbSpline
 70
0
 71
4
 72
13
 73
8
 74
0
 40
0.0
 40
0.0
 40
0.0
 40
0.0
 40
0.0
 40
0.5040037993769889
 40
0.5040037993769889
 40
0.5040037993769889
 40
1.0
 40
1.0
 40
1.0
 40
1.0
 40
1.0
 10
1027.0999999999997
 20
1.29740576870959
 30
156.0
 10
1024.3027760624875
 20
1.2999115888690762
 30
156.0
 10
1021.5055527647438
 20
1.303131455650033
 30
156.0
 10
1018.708330361747
 20
1.3070452456749233
 30
156.0
 10
1013.158329942158
 20
1.3161474775875703
 30
156.0
 10
1010.4055518914168
 20
1.3213151019328837
 30
156.0
 10
1007.6527751567246
 20
1.327143521201918
 30
156.0
 10
1004.8999999999988
 20
1.3336405412949175
 30
156.0
  0
LINE
  5
A4
330
17
100
AcDbEntity
  8
0
100
AcDbLine
 10
1004.9
 20
27.0025846510589
 30
156.0
 11
1004.9
 21
1.3336405417071484
 31
156.0
  0
SPLINE
  5
A5
330
17
100
AcDbEntity
  8
0
100
AcDbSpline
 70
0
 71
4
 72
10
 73
5
 74
0
 40
0.0
 40
0.0
 40
0.0
 40
0.0
 40
0.0
 40
1.0
 40
1.0
 40
1.0
 40
1.0
 40
1.0
 10
1001.099999399677
 20
27.001737831819543
 30
156.0
 10
1002.0499991694155
 20
27.0020557980771
 30
156.0
 10
1002.9999993030123
 20
27.002303627900776
 30
156.0
 10
1003.9499997851916
 20
27.002480263949344
 30
156.0
 10
1004.9000006003203
 20
27.002584648982964
 30
156.0
  0
LINE
  5
A6
330
17
100
AcDbEntity
  8
0
100
AcDbLine
 10
1001.1
 20
27.001737835068454
 30
156.0
 11
1001.1
 21
1.3430882801109676
 31
156.0
  0
SPLINE
  5
A7
330
17
100
AcDbEntity
  8
0
100
AcDbSpline
 70
0
 71
4
 72
10
 73
5
 74
0
 40
0.0
 40
0.0
 40
0.0
 40
0.0
 40
0.0
 40
1.0
 40
1.0
 40
1.0
 40
1.0
 40
1.0
 10
1001.099999999999
 20
1.3430882796941774
 30
156.0
 10
995.5499869934295
 20
1.3575885895078086
 30
156.0
 10
989.9999811453033
 20
1.3748287015839802
 30
156.0
 10
984.4499846513561
 20
1.3948730350655902
 30
156.0
 10
978.9000000000005
 20
1.417785963873845
 30
156.0
  0
LINE
  5
A8
330
17
100
AcDbEntity
  8
0
100
AcDbLine
 10
978.9
 20
26.980787961716906
 30
156.0
 11
978.9
 21
1.4177859637783772
 31
156.0
  0
SPLINE
  5
A9
330
17
100
AcDbEntity
  8
0
100
AcDbSpline
 70
0
 71
4
 72
10
 73
5
 74
0
 40
0.0
 40
0.0
 40
0.0
 40
0.0
 40
0.0
 40
1.0
 40
1.0
 40
1.0
 40
1.0
 40
1.0
 10
975.0999993996879
 20
26.974689642568602
 30
156.0
 10
976.0499988765961
 20
26.97629878373448
 30
156.0
 10
976.9999989111274
 20
26.97785225565055
 30
156.0
 10
977.9499994901684
 20
26.979349000951895
 30
156.0
 10
978.9000006003095
 20
26.980787962354867
 30
156.0
  0
LINE
  5
AA
330
17
100
AcDbEntity
  8
0
100
AcDbLine
 10
975.1
 20
26.97468964358543
 30
156.0
 11
975.1
 21
1.4339797531088618
 31
156.0
  0
SPLINE
  5
AB
330
17
100
AcDbEntity
  8
0
100
AcDbSpline
 70
0
 71
4
 72
10
 73
5
 74
0
 40
0.0
 40
0.0
 40
0.0
 40
0.0
 40
0.0
 40
1.0
 40
1.0
 40
1.0
 40
1.0
 40
1.0
 10
975.1000000000003
 20
1.4339797532006602
 30
156.0
 10
969.5499783244456
 20
1.4583716580128305
 30
156.0
 10
963.9999693536938
 20
1.4856542761792881
 30
156.0
 10
958.4499756289584
 20
1.5158922399672141
 30
156.0
 10
952.8999999999999
 20
1.549150001437736
 30
156.0
  0
LINE
  5
AC
330
17
100
AcDbEntity
  8
0
100
AcDbLine
 10
952.9
 20
26.926529476481846
 30
156.0
 11
952.9
 21
1.5491500014546684
 31
156.0
  0
SPLINE
  5
AD
330
17
100
AcDbEntity
  8
0
100
AcDbSpline
 70
0
 71
4
 72
10
 73
5
 74
0
 40
0.0
 40
0.0
 40
0.0
 40
0.0
 40
0.0
 40
1.0
 40
1.0
 40
1.0
 40
1.0
 40
1.0
 10
949.0999993997075
 20
26.916367424249653
 30
156.0
 10
950.0499986234003
 20
26.91897079693658
 30
156.0
 10
950.9999985724071
 20
26.92153296814846
 30
156.0
 10
951.9499992352653
 20
26.92405288046331
 30
156.0
 10
952.9000006002993
 20
26.926529476523037
 30
156.0
  0
LINE
  5
AE
330
17
100
AcDbEntity
  8
0
100
AcDbLine
 10
949.1
 20
26.916367428349822
 30
156.0
 11
949.1
 21
1.5724533923053676
 31
156.0
  0
SPLINE
  5
AF
330
17
100
AcDbEntity
  8
0
100
AcDbSpline
 70
0
 71
4
 72
10
 73
5
 74
0
 40
0.0
 40
0.0
 40
0.0
 40
0.0
 40
0.0
 40
1.0
 40
1.0
 40
1.0
 40
1.0
 40
1.0
 10
949.0999999999998
 20
1.5724533922833968
 30
156.0
 10
943.549867669902
 20
1.607268639785368
 30
156.0
 10
937.9997544228786
 20
1.6451259673795509
 30
156.0
 10
932.4496631649171
 20
1.6860900830310355
 30
156.0
 10
926.8995971253959
 20
1.7302254088825042
 30
156.0
  0
LINE
  5
B0
330
17
100
AcDbEntity
  8
0
100
AcDbLine
 10
926.9
 20
26.847936191992233
 30
156.0
 11
926.9
 21
1.7302222052028453
 31
156.0
  0
SPLINE
  5
B1
330
17
100
AcDbEntity
  8
0
100
AcDbSpline
 70
0
 71
4
 72
10
 73
5
 74
0
 40
0.0
 40
0.0
 40
0.0
 40
0.0
 40
0.0
 40
1.0
 40
1.0
 40
1.0
 40
1.0
 40
1.0
 10
923.0999993997272
 20
26.83489823936029
 30
156.0
 10
924.0499983996295
 20
26.83819888230766
 30
156.0
 10
924.9999982732465
 20
26.841472792924776
 30
156.0
 10
925.9499990102772
 20
26.844718913689306
 30
156.0
 10
926.9000006002794
 20
26.847936187128862
 30
156.0
  0
LINE
  5
B2
330
17
100
AcDbEntity
  8
0
100
AcDbLine
 10
923.1
 20
26.834898248352633
 30
156.0
 11
923.1
 21
1.760999336805626
 31
156.0
  0
SPLINE
  5
B3
330
17
100
AcDbEntity
  8
0
100
AcDbSpline
 70
0
 71
4
 72
10
 73
5
 74
0
 40
0.0
 40
0.0
 40
0.0
 40
0.0
 40
0.0
 40
0.9999751506237404
 40
0.9999751506237404
 40
0.9999751506237404
 40
0.9999751506237404
 40
0.9999751506237404
 10
923.1004028613877
 20
1.7609960144884003
 30
156.0
 10
917.5502592693733
 20
1.8067659117029053
 30
156.0
 10
912.0001420130466
 20
1.8557292098098066
 30
156.0
 10
906.4500543811238
 20
1.9079505829401788
 30
156.0
 10
900.9000000000028
 20
1.963494342753756
 30
156.0
  0
LINE
  5
B4
330
17
100
AcDbEntity
  8
0
100
AcDbLine
 10
900.9
 20
26.75313578617915
 30
156.0
 11
900.9
 21
1.9634943424771012
 31
156.0
  0
SPLINE
  5
B5
330
17
100
AcDbEntity
  8
0
100
AcDbSpline
 70
0
 71
5
 72
12
 73
6
 74
0
 40
0.0
 40
0.0
 40
0.0
 40
0.0
 40
0.0
 40
0.0
 40
1.0
 40
1.0
 40
1.0
 40
1.0
 40
1.0
 40
1.0
 10
897.0999993997474
 20
26.73840992675459
 30
156.0
 10
897.9088202467193
 20
26.741560852971457
 30
156.0
 10
898.659472618627
 20
26.74447682789365
 30
156.0
 10
899.4395002622095
 20
26.747500845565796
 30
156.0
 10
900.2289152679145
 20
26.750549668621833
 30
156.0
 10
900.9000006002533
 20
26.75313578482977
 30
156.0
  0
LINE
  5
B6
330
17
100
AcDbEntity
  8
0
100
AcDbLine
 10
897.1
 20
26.738409931529674
 30
156.0
 11
897.1
 21
2.002109360787436
 31
156.0
  0
SPLINE
  5
B7
330
17
100
AcDbEntity
  8
0
100
AcDbSpline
 70
0
 71
4
 72
10
 73
5
 74
0
 40
0.0
 40
0.0
 40
0.0
 40
0.0
 40
0.0
 40
1.0
 40
1.0
 40
1.0
 40
1.0
 40
1.0
 10
897.1000000000029
 20
2.0021093610527463
 30
156.0
 10
891.5498438131982
 20
2.0593661492297413
 30
156.0
 10
885.9997221317193
 20
2.1199675232241284
 30
156.0
 10
880.4496386445466
 20
2.1839780515860503
 30
156.0
 10
874.8995973922641
 20
2.2514618927732744
 30
156.0
  0
LINE
  5
B8
330
17
100
AcDbEntity
  8
0
100
AcDbLine
 10
874.9
 20
26.650257209986755
 30
156.0
 11
874.9
 21
2.251456997224202
 31
156.0
  0
SPLINE
  5
B9
330
17
100
AcDbEntity
  8
0
100
AcDbSpline
 70
0
 71
1
 72
4
 73
2
 74
0
 40
0.0
 40
0.0
 40
1.0
 40
1.0
 10
871.099999399778
 20
26.63503165835063
 30
156.0
 10
874.9000006002261
 20
26.650257211961755
 30
156.0
  0
LINE
  5
BA
330
17
100
AcDbEntity
  8
0
100
AcDbLine
 10
871.1
 20
26.635031660955207
 30
156.0
 11
871.1
 21
2.2982736712767107
 31
156.0
  0
SPLINE
  5
BB
330
17
100
AcDbEntity
  8
0
100
AcDbSpline
 70
0
 71
4
 72
10
 73
5
 74
0
 40
0.0
 40
0.0
 40
0.0
 40
0.0
 40
0.0
 40
1.0
 40
1.0
 40
1.0
 40
1.0
 40
1.0
 10
871.1000000000022
 20
2.2982736714445022
 30
156.0
 10
865.5499303560619
 20
2.3675472476560357
 30
156.0
 10
859.9999043430179
 20
2.440316204123067
 30
156.0
 10
854.4499260671082
 20
2.516644962561267
 30
156.0
 10
848.9000000000009
 20
2.596597515564227
 30
156.0
  0
LINE
  5
BC
330
17
100
AcDbEntity
  8
0
100
AcDbLine
 10
848.9
 20
26.547431217331905
 30
156.0
 11
848.9
 21
2.596597515510409
 31
156.0
  0
SPLINE
  5
BD
330
17
100
AcDbEntity
  8
0
100
AcDbSpline
 70
0
 71
5
 72
12
 73
6
 74
0
 40
0.0
 40
0.0
 40
0.0
 40
0.0
 40
0.0
 40
0.0
 40
1.0
 40
1.0
 40
1.0
 40
1.0
 40
1.0
 40
1.0
 10
845.09999939981
 20
26.532894496206733
 30
156.0
 10
845.9087537775049
 20
26.535967939243854
 30
156.0
 10
846.5484088661681
 20
26.538409827892806
 30
156.0
 10
847.3888988166075
 20
26.541617934665375
 30
156.0
 10
848.3533963673971
 20
26.545327026865884
 30
156.0
 10
848.9000006001978
 20
26.547431219555083
 30
156.0
  0
LINE
  5
BE
330
17
100
AcDbEntity
  8
0
100
AcDbLine
 10
845.1
 20
26.53289449874356
 30
156.0
 11
845.1
 21
2.6519790492857482
 31
156.0
  0
SPLINE
  5
BF
330
17
100
AcDbEntity
  8
0
100
AcDbSpline
 70
0
 71
4
 72
13
 73
8
 74
0
 40
0.0
 40
0.0
 40
0.0
 40
0.0
 40
0.0
 40
0.4999840935466292
 40
0.4999840935466292
 40
0.4999840935466292
 40
1.0
 40
1.0
 40
1.0
 40
1.0
 40
1.0
 10
845.1000000000008
 20
2.651979049317034
 30
156.0
 10
842.3249953906037
 20
2.6928894385081925
 30
156.0
 10
839.5500042196932
 20
2.7347112927310024
 30
156.0
 10
836.7750270552664
 20
2.7774526730078777
 30
156.0
 10
831.224925356394
 20
2.864793221053884
 30
156.0
 10
828.4498008237072
 20
2.9093925066516797
 30
156.0
 10
825.6746914821975
 20
2.954927453792208
 30
156.0
 10
822.8995979465564
 20
3.001406017476098
 30
156.0
  0
LINE
  5
C0
330
17
100
AcDbEntity
  8
0
100
AcDbLine
 10
822.9
 20
26.452790923910676
 30
156.0
 11
822.9
 21
3.001399283823027
 31
156.0
  0
SPLINE
  5
C1
330
17
100
AcDbEntity
  8
0
100
AcDbSpline
 70
0
 71
4
 72
10
 73
5
 74
0
 40
0.0
 40
0.0
 40
0.0
 40
0.0
 40
0.0
 40
1.0
 40
1.0
 40
1.0
 40
1.0
 40
1.0
 10
819.0999993998457
 20
26.44013195007374
 30
156.0
 10
820.0499975948718
 20
26.44325098943658
 30
156.0
 10
820.9999972003228
 20
26.446401203969803
 30
156.0
 10
821.9499982055771
 20
26.449581535240977
 30
156.0
 10
822.9000006001602
 20
26.452790924810266
 30
156.0
  0
LINE
  5
C2
330
17
100
AcDbEntity
  8
0
100
AcDbLine
 10
819.1
 20
26.44013195321662
 30
156.0
 11
819.1
 21
3.0657083207148172
 31
156.0
  0
SPLINE
  5
C3
330
17
100
AcDbEntity
  8
0
100
AcDbSpline
 70
0
 71
4
 72
13
 73
8
 74
0
 40
0.0
 40
0.0
 40
0.0
 40
0.0
 40
0.0
 40
0.49998334779950787
 40
0.49998334779950787
 40
0.49998334779950787
 40
1.0
 40
1.0
 40
1.0
 40
1.0
 40
1.0
 10
819.0999999999975
 20
3.0657083205683526
 30
156.0
 10
816.3249909822749
 20
3.113157562729436
 30
156.0
 10
813.5499981940621
 20
3.161555852544181
 30
156.0
 10
810.7750222600002
 20
3.2109112374535282
 30
156.0
 10
805.2249205540709
 20
3.3115554784613237
 30
156.0
 10
802.4497947844269
 20
3.3628444629560033
 30
156.0
 10
799.6746871691171
 20
3.415106663276425
 30
156.0
 10
796.8995983811843
 20
3.4683500234953435
 30
156.0
  0
LINE
  5
C4
330
17
100
AcDbEntity
  8
0
100
AcDbLine
 10
796.9
 20
26.37447236920623
 30
156.0
 11
796.9
 21
3.4683423182993254
 31
156.0
  0
SPLINE
  5
C5
330
17
100
AcDbEntity
  8
0
100
AcDbSpline
 70
0
 71
4
 72
10
 73
5
 74
0
 40
0.0
 40
0.0
 40
0.0
 40
0.0
 40
0.0
 40
1.0
 40
1.0
 40
1.0
 40
1.0
 40
1.0
 10
793.0999993998789
 20
26.36488053553023
 30
156.0
 10
794.0499973652207
 20
26.367211056427372
 30
156.0
 10
794.9999968949696
 20
26.369587241522837
 30
156.0
 10
795.9499979771764
 20
26.372008032030273
 30
156.0
 10
796.9000006001204
 20
26.37447236914146
 30
156.0
  0
LINE
  5
C6
330
17
100
AcDbEntity
  8
0
100
AcDbLine
 10
793.1
 20
26.36488053758456
 30
156.0
 11
793.1
 21
3.541941137046841
 31
156.0
  0
SPLINE
  5
C7
330
17
100
AcDbEntity
  8
0
100
AcDbSpline
 70
0
 71
4
 72
13
 73
8
 74
0
 40
0.0
 40
0.0
 40
0.0
 40
0.0
 40
0.0
 40
0.4999948917113955
 40
0.4999948917113955
 40
0.4999948917113955
 40
1.0
 40
1.0
 40
1.0
 40
1.0
 40
1.0
 10
793.1004015447456
 20
3.5419332863266564
 30
156.0
 10
790.3252689083843
 20
3.596188175522721
 30
156.0
 10
787.5501555648576
 20
3.6514297411259244
 30
156.0
 10
784.7750621979065
 20
3.7076660258086083
 30
156.0
 10
779.2248601296403
 20
3.8221451256597168
 30
156.0
 10
776.4497514290551
 20
3.880387981662318
 30
156.0
 10
773.6746641236982
 20
3.9396415847336694
 30
156.0
 10
770.8995989474633
 20
3.9999138794262032
 30
156.0
  0
LINE
  5
C8
330
17
100
AcDbEntity
  8
0
100
AcDbLine
 10
770.9
 20
26.320615075996425
 30
156.0
 11
770.9
 21
3.9999051694394225
 31
156.0
  0
SPLINE
  5
C9
330
17
100
AcDbEntity
  8
0
100
AcDbSpline
 70
0
 71
4
 72
10
 73
5
 74
0
 40
0.0
 40
0.0
 40
0.0
 40
0.0
 40
0.0
 40
1.0
 40
1.0
 40
1.0
 40
1.0
 40
1.0
 10
767.09999939993
 20
26.315280332808324
 30
156.0
 10
768.0499971037498
 20
26.316524838343177
 30
156.0
 10
768.9999965475109
 20
26.317829503661287
 30
156.0
 10
769.9499977174497
 20
26.319193269585167
 30
156.0
 10
770.9000006000841
 20
26.320615076894534
 30
156.0
  0
LINE
  5
CA
330
17
100
AcDbEntity
  8
0
100
AcDbLine
 10
767.1
 20
26.315280333594423
 30
156.0
 11
767.1
 21
4.083156074173975
 31
156.0
  0
SPLINE
  5
CB
330
17
100
AcDbEntity
  8
0
100
AcDbSpline
 70
0
 71
4
 72
13
 73
8
 74
0
 40
0.0
 40
0.0
 40
0.0
 40
0.0
 40
0.0
 40
0.4999815874046287
 40
0.4999815874046287
 40
0.4999815874046287
 40
1.0
 40
1.0
 40
1.0
 40
1.0
 40
1.0
 10
767.099999999987
 20
4.083156073581083
 30
156.0
 10
764.3249812088255
 20
4.144476800710624
 30
156.0
 10
761.5499850529559
 20
4.2068216765643776
 30
156.0
 10
758.7750122776155
 20
4.270198749122783
 30
156.0
 10
753.2249106458286
 20
4.3990379728338835
 30
156.0
 10
750.4497817928158
 20
4.464500277109877
 30
156.0
 10
747.6746778668631
 20
4.531010939784771
 30
156.0
 10
744.8995996655465
 20
4.598577922478392
 30
156.0
  0
LINE
  5
CC
330
17
100
AcDbEntity
  8
0
100
AcDbLine
 10
744.9
 20
26.29936261959105
 30
156.0
 11
744.9
 21
4.5985681764887785
 31
156.0
  0
SPLINE
  5
CD
330
17
100
AcDbEntity
  8
0
100
AcDbSpline
 70
0
 71
4
 72
10
 73
5
 74
0
 40
0.0
 40
0.0
 40
0.0
 40
0.0
 40
0.0
 40
1.0
 40
1.0
 40
1.0
 40
1.0
 40
1.0
 10
741.099999399971
 20
26.299475546417526
 30
156.0
 10
742.0499968001851
 20
26.299336379120952
 30
156.0
 10
742.9999961442642
 20
26.299271874504537
 30
156.0
 10
743.949997416121
 20
26.299280972966933
 30
156.0
 10
744.9000006000294
 20
26.29936261484759
 30
156.0
  0
LINE
  5
CE
330
17
100
AcDbEntity
  8
0
100
AcDbLine
 10
741.1
 20
26.299475550204555
 30
156.0
 11
741.1
 21
4.69183408943615
 31
156.0
  0
SPLINE
  5
CF
330
17
100
AcDbEntity
  8
0
100
AcDbSpline
 70
0
 71
4
 72
13
 73
8
 74
0
 40
0.0
 40
0.0
 40
0.0
 40
0.0
 40
0.0
 40
0.4999805569852311
 40
0.4999805569852311
 40
0.4999805569852311
 40
1.0
 40
1.0
 40
1.0
 40
1.0
 40
1.0
 10
741.0999999999684
 20
4.691834088160008
 30
156.0
 10
738.3249758605142
 20
4.760487988328258
 30
156.0
 10
735.5499779956153
 20
4.8302036758397024
 30
156.0
 10
732.7750072149779
 20
4.900989221920394
 30
156.0
 10
727.2249056732581
 20
5.0447216193719004
 30
156.0
 10
724.449774916388
 20
5.1176686383484356
 30
156.0
 10
721.674672922405
 20
5.191701752643408
 30
156.0
 10
718.8996005557616
 20
5.266828962335632
 30
156.0
  0
LINE
  5
D0
330
17
100
AcDbEntity
  8
0
100
AcDbLine
 10
718.9
 20
26.318863154245964
 30
156.0
 11
718.9
 21
5.266818149863094
 31
156.0
  0
SPLINE
  5
D1
330
17
100
AcDbEntity
  8
0
100
AcDbSpline
 70
0
 71
4
 72
10
 73
5
 74
0
 40
0.0
 40
0.0
 40
0.0
 40
0.0
 40
0.0
 40
1.0
 40
1.0
 40
1.0
 40
1.0
 40
1.0
 10
715.0999994000301
 20
26.325615065675088
 30
156.0
 10
716.0499964442865
 20
26.323794387139316
 30
156.0
 10
716.9999956715639
 20
26.322062882155397
 30
156.0
 10
717.9499970629531
 20
26.3204194906835
 30
156.0
 10
718.90000059998
 20
26.31886315260211
 30
156.0
  0
LINE
  5
D2
330
17
100
AcDbEntity
  8
0
100
AcDbLine
 10
715.1
 20
26.32561506533374
 30
156.0
 11
715.1
 21
5.370463423584916
 31
156.0
  0
SPLINE
  5
D3
330
17
100
AcDbEntity
  8
0
100
AcDbSpline
 70
0
 71
4
 72
13
 73
8
 74
0
 40
0.0
 40
0.0
 40
0.0
 40
0.0
 40
0.0
 40
0.49999170118338415
 40
0.49999170118338415
 40
0.49999170118338415
 40
0.9999754948522793
 40
0.9999754948522793
 40
0.9999754948522793
 40
0.9999754948522793
 40
0.9999754948522793
 10
715.100399298485
 20
5.370452450188066
 30
156.0
 10
712.3252331961454
 20
5.446709366544887
 30
156.0
 10
709.5500973203439
 20
5.52406599344497
 30
156.0
 10
706.7749925486914
 20
5.602530448820313
 30
156.0
 10
701.2248909130624
 20
5.76168986743601
 30
156.0
 10
698.4498940479374
 20
5.842384795371723
 30
156.0
 10
695.674930098585
 20
5.92420369595048
 30
156.0
 10
692.8999999999639
 20
6.0071546342614175
 30
156.0
  0
LINE
  5
D4
330
17
100
AcDbEntity
  8
0
100
AcDbLine
 10
692.9
 20
26.38727003400075
 30
156.0
 11
692.9
 21
6.0071546354679874
 31
156.0
  0
SPLINE
  5
D5
330
17
100
AcDbEntity
  8
0
100
AcDbSpline
 70
0
 71
4
 72
10
 73
5
 74
0
 40
0.0
 40
0.0
 40
0.0
 40
0.0
 40
0.0
 40
1.0
 40
1.0
 40
1.0
 40
1.0
 40
1.0
 10
689.099999400087
 20
26.401853026250826
 30
156.0
 10
690.0499960257531
 20
26.39805279675671
 30
156.0
 10
690.999995115684
 20
26.39435626021722
 30
156.0
 10
691.9499966476496
 20
26.390762356150063
 30
156.0
 10
692.900000599925
 20
26.387270023972672
 30
156.0
  0
LINE
  5
D6
330
17
100
AcDbEntity
  8
0
100
AcDbLine
 10
689.1
 20
26.4018530306867
 30
156.0
 11
689.1
 21
6.121546112742877
 31
156.0
  0
SPLINE
  5
D7
330
17
100
AcDbEntity
  8
0
100
AcDbSpline
 70
0
 71
4
 72
13
 73
8
 74
0
 40
0.0
 40
0.0
 40
0.0
 40
0.0
 40
0.0
 40
0.5300043189689281
 40
0.5300043189689281
 40
0.5300043189689281
 40
1.0
 40
1.0
 40
1.0
 40
1.0
 40
1.0
 10
689.1003981856932
 20
6.121534041221283
 30
156.0
 10
686.1586552180994
 20
6.210708156839696
 30
156.0
 10
683.2169510195577
 20
6.301160792288663
 30
156.0
 10
680.2752867205277
 20
6.392901697524232
 30
156.0
 10
674.7250994367897
 20
6.568445321743792
 30
156.0
 10
672.1165676792306
 20
6.651970769375569
 30
156.0
 10
669.5080686949469
 20
6.736513039976579
 30
156.0
 10
666.8996029687764
 20
6.822068846803637
 30
156.0
  0
LINE
  5
D8
330
17
100
AcDbEntity
  8
0
100
AcDbLine
 10
666.9
 20
26.512742519193857
 30
156.0
 11
666.9
 21
6.822055825264124
 31
156.0
  0
SPLINE
  5
D9
330
17
100
AcDbEntity
  8
0
100
AcDbSpline
 70
0
 71
4
 72
10
 73
5
 74
0
 40
0.0
 40
0.0
 40
0.0
 40
0.0
 40
0.0
 40
1.0
 40
1.0
 40
1.0
 40
1.0
 40
1.0
 10
663.0999994001472
 20
26.536349372835534
 30
156.0
 10
664.0499955342835
 20
26.530271330969384
 30
156.0
 10
664.9999944628869
 20
26.524311510411422
 30
156.0
 10
665.949996159907
 20
26.518468850261538
 30
156.0
 10
666.9000005998618
 20
26.512742289484372
 30
156.0
  0
LINE
  5
DA
330
17
100
AcDbEntity
  8
0
100
AcDbLine
 10
663.1
 20
26.53634969753878
 30
156.0
 11
663.1
 21
6.947499855861015
 31
156.0
  0
SPLINE
  5
DB
330
17
100
AcDbEntity
  8
0
100
AcDbSpline
 70
0
 71
4
 72
13
 73
8
 74
0
 40
0.0
 40
0.0
 40
0.0
 40
0.0
 40
0.0
 40
0.5002070223075696
 40
0.5002070223075696
 40
0.5002070223075696
 40
1.0
 40
1.0
 40
1.0
 40
1.0
 40
1.0
 10
663.100396793771
 20
6.947486672175374
 30
156.0
 10
660.3240321859159
 20
7.039727877405327
 30
156.0
 10
657.5477056603428
 20
7.133114759852896
 30
156.0
 10
654.7714178106087
 20
7.227643770332913
 30
156.0
 10
649.2212187089477
 20
7.418901280070779
 30
156.0
 10
646.4473073920517
 20
7.515627893803234
 30
156.0
 10
643.6734359030239
 20
7.613489249058594
 30
156.0
 10
640.8996048683296
 20
7.712483384286984
 30
156.0
  0
LINE
  5
DC
330
17
100
AcDbEntity
  8
0
100
AcDbLine
 10
640.9
 20
26.703445305301415
 30
156.0
 11
640.9
 21
7.712469282703234
 31
156.0
  0
SPLINE
  5
DD
330
17
100
AcDbEntity
  8
0
100
AcDbSpline
 70
0
 71
4
 72
10
 73
5
 74
0
 40
0.0
 40
0.0
 40
0.0
 40
0.0
 40
0.0
 40
1.0
 40
1.0
 40
1.0
 40
1.0
 40
1.0
 10
637.0999994002118
 20
26.737270423042023
 30
156.0
 10
638.0499949595578
 20
26.728616065298127
 30
156.0
 10
638.9999936994194
 20
26.720094466439477
 30
156.0
 10
639.9499955894065
 20
26.711704565185766
 30
156.0
 10
640.9000005997977
 20
26.70344530008682
 30
156.0
  0
LINE
  5
DE
330
17
100
AcDbEntity
  8
0
100
AcDbLine
 10
637.1
 20
26.737270535311225
 30
156.0
 11
637.1
 21
7.848883782685336
 31
156.0
  0
SPLINE
  5
DF
330
17
100
AcDbEntity
  8
0
100
AcDbSpline
 70
0
 71
4
 72
13
 73
8
 74
0
 40
0.0
 40
0.0
 40
0.0
 40
0.0
 40
0.0
 40
0.5004204954926893
 40
0.5004204954926893
 40
0.5004204954926893
 40
1.0
 40
1.0
 40
1.0
 40
1.0
 40
1.0
 10
637.1000000000005
 20
7.848883782698481
 30
156.0
 10
634.3224910577165
 20
7.949175415768796
 30
156.0
 10
631.5450231134153
 20
8.050601657892626
 30
156.0
 10
628.7675968081966
 20
8.153160937195167
 30
156.0
 10
623.2174963900623
 20
8.360369669565507
 30
156.0
 10
620.4448221351286
 20
8.46501532054362
 30
156.0
 10
617.6721907061956
 20
8.570788639577057
 30
156.0
 10
614.8996027943753
 20
8.677689631539561
 30
156.0
  0
LINE
  5
E0
330
17
100
AcDbEntity
  8
0
100
AcDbLine
 10
614.9
 20
26.967551302795997
 30
156.0
 11
614.9
 21
8.677674317380443
 31
156.0
  0
SPLINE
  5
E1
330
17
100
AcDbEntity
  8
0
100
AcDbSpline
 70
0
 71
4
 72
10
 73
5
 74
0
 40
0.0
 40
0.0
 40
0.0
 40
0.0
 40
0.0
 40
1.0
 40
1.0
 40
1.0
 40
1.0
 40
1.0
 10
611.0999994002809
 20
27.012789432648713
 30
156.0
 10
612.049994291239
 20
27.00125999301362
 30
156.0
 10
612.9999928114876
 20
26.989877859159964
 30
156.0
 10
613.9499949258179
 20
26.978641969487295
 30
156.0
 10
614.900000599747
 20
26.96755126219454
 30
156.0
  0
LINE
  5
E2
330
17
100
AcDbEntity
  8
0
100
AcDbLine
 10
611.1
 20
27.01278945497661
 30
156.0
 11
611.1
 21
8.824984050326892
 31
156.0
  0
SPLINE
  5
E3
330
17
100
AcDbEntity
  8
0
100
AcDbSpline
 70
0
 71
4
 72
13
 73
8
 74
0
 40
0.0
 40
0.0
 40
0.0
 40
0.0
 40
0.0
 40
0.5006577057178485
 40
0.5006577057178485
 40
0.5006577057178485
 40
1.0
 40
1.0
 40
1.0
 40
1.0
 40
1.0
 10
611.0999999999688
 20
8.824984049523758
 30
156.0
 10
608.3211651067015
 20
8.933289420877784
 30
156.0
 10
605.5423744101664
 20
9.042727730490277
 30
156.0
 10
602.7636286220129
 20
9.153299382971737
 30
156.0
 10
597.2135290185823
 20
9.376418238453443
 30
156.0
 10
594.4421749637985
 20
9.488959488341141
 30
156.0
 10
591.6708670663552
 20
9.602630544158671
 30
156.0
 10
588.8996061068377
 20
9.717433427499095
 30
156.0
  0
LINE
  5
E4
330
17
100
AcDbEntity
  8
0
100
AcDbLine
 10
588.9
 20
27.31323985775647
 30
156.0
 11
588.9
 21
9.717417111534662
 31
156.0
  0
SPLINE
  5
E5
330
17
100
AcDbEntity
  8
0
100
AcDbSpline
 70
0
 71
4
 72
10
 73
5
 74
0
 40
0.0
 40
0.0
 40
0.0
 40
0.0
 40
0.0
 40
1.0
 40
1.0
 40
1.0
 40
1.0
 40
1.0
 10
585.0999994003398
 20
27.371087162296128
 30
156.0
 10
586.0499935189388
 20
27.356383591811205
 30
156.0
 10
586.9999917852504
 20
27.341841883218898
 30
156.0
 10
587.9499941587362
 20
27.327460974692805
 30
156.0
 10
588.9000005996575
 20
27.313239804164958
 30
156.0
  0
LINE
  5
E6
330
17
100
AcDbEntity
  8
0
100
AcDbLine
 10
585.1
 20
27.371087447122953
 30
156.0
 11
585.1
 21
9.875636413942676
 31
156.0
  0
SPLINE
  5
E7
330
17
100
AcDbEntity
  8
0
100
AcDbSpline
 70
0
 71
4
 72
13
 73
8
 74
0
 40
0.0
 40
0.0
 40
0.0
 40
0.0
 40
0.0
 40
0.5009102892337339
 40
0.5009102892337339
 40
0.5009102892337339
 40
1.0
 40
1.0
 40
1.0
 40
1.0
 40
1.0
 10
585.0999999999328
 20
9.8756364123346
 30
156.0
 10
582.3198014713751
 20
9.991980030809799
 30
156.0
 10
579.5396507319795
 20
10.109464367852462
 30
156.0
 10
576.7595485900736
 20
10.228091878188083
 30
156.0
 10
571.2095474236506
 20
10.467204491773076
 30
156.0
 10
568.4396480404348
 20
10.58768127762144
 30
156.0
 10
565.6697985993576
 20
10.709299519916058
 30
156.0
 10
562.8999999999943
 20
10.832063385673527
 30
156.0
  0
LINE
  5
E8
330
17
100
AcDbEntity
  8
0
100
AcDbLine
 10
562.9
 20
27.748698577560017
 30
156.0
 11
562.9
 21
10.832063385801254
 31
156.0
  0
SPLINE
  5
E9
330
17
100
AcDbEntity
  8
0
100
AcDbSpline
 70
0
 71
4
 72
10
 73
5
 74
0
 40
0.0
 40
0.0
 40
0.0
 40
0.0
 40
0.0
 40
1.0
 40
1.0
 40
1.0
 40
1.0
 40
1.0
 10
559.0999994004308
 20
27.820352445745662
 30
156.0
 10
560.0499926323288
 20
27.802175392043285
 30
156.0
 10
560.9999906069227
 20
27.784174765240028
 30
156.0
 10
561.9499932778433
 20
27.766349503405287
 30
156.0
 10
562.9000005995929
 20
27.748698544320593
 30
156.0
  0
LINE
  5
EA
330
17
100
AcDbEntity
  8
0
100
AcDbLine
 10
559.1
 20
27.820352457906683
 30
156.0
 11
559.1
 21
11.00129911442225
 31
156.0
  0
SPLINE
  5
EB
330
17
100
AcDbEntity
  8
0
100
AcDbSpline
 70
0
 71
4
 72
13
 73
8
 74
0
 40
0.0
 40
0.0
 40
0.0
 40
0.0
 40
0.0
 40
0.5031661782501246
 40
0.5031661782501246
 40
0.5031661782501246
 40
1.0
 40
1.0
 40
1.0
 40
1.0
 40
1.0
 10
559.0999999999888
 20
11.001299114172728
 30
156.0
 10
556.3072678496535
 20
11.126271980336599
 30
156.0
 10
553.5145880255437
 20
11.252412626291353
 30
156.0
 10
550.7219614754825
 20
11.379725768890147
 30
156.0
 10
545.1719615236929
 20
11.63509129821048
 30
156.0
 10
542.4145867643899
 20
11.763114219005807
 30
156.0
 10
539.6572659088057
 20
11.892291341228061
 30
156.0
 10
536.8999999999518
 20
12.022629121267286
 30
156.0
  0
LINE
  5
EC
330
17
100
AcDbEntity
  8
0
100
AcDbLine
 10
536.9
 20
28.282123674127302
 30
156.0
 11
536.9
 21
12.022629122289581
 31
156.0
  0
SPLINE
  5
ED
330
17
100
AcDbEntity
  8
0
100
AcDbSpline
 70
0
 71
4
 72
10
 73
5
 74
0
 40
0.0
 40
0.0
 40
0.0
 40
0.0
 40
0.0
 40
1.0
 40
1.0
 40
1.0
 40
1.0
 40
1.0
 10
533.099999400494
 20
28.368782759817048
 30
156.0
 10
534.049991620961
 20
28.346832546627052
 30
156.0
 10
534.9999892625945
 20
28.32507333367671
 30
156.0
 10
535.9499922726936
 20
28.303504059086094
 30
156.0
 10
536.9000005994999
 20
28.282123660635264
 30
156.0
  0
LINE
  5
EE
330
17
100
AcDbEntity
  8
0
100
AcDbLine
 10
533.1
 20
28.368782745965053
 30
156.0
 11
533.1
 21
12.203087315536909
 31
156.0
  0
SPLINE
  5
EF
330
17
100
AcDbEntity
  8
0
100
AcDbSpline
 70
0
 71
4
 72
19
 73
14
 74
0
 40
0.0
 40
0.0
 40
0.0
 40
0.0
 40
0.0
 40
0.25105000940122035
 40
0.25105000940122035
 40
0.25105000940122035
 40
0.5014399931658525
 40
0.5014399931658525
 40
0.5014399931658525
 40
0.7511083530700106
 40
0.7511083530700106
 40
0.7511083530700106
 40
1.0
 40
1.0
 40
1.0
 40
1.0
 40
1.0
 10
533.0999999999497
 20
12.203087314480909
 30
156.0
 10
531.7065852011989
 20
12.269563833854365
 30
156.0
 10
530.313184622117
 20
12.33633795805246
 30
156.0
 10
528.9197984023787
 20
12.40341060162542
 30
156.0
 10
526.1367182258972
 20
12.537977688019074
 30
156.0
 10
524.7470241931843
 20
12.605470562356333
 30
156.0
 10
523.3573447293834
 20
12.673262282653683
 30
156.0
 10
520.5820202491898
 20
12.809249225719878
 30
156.0
 10
519.1963751481054
 20
12.877442722603616
 30
156.0
 10
517.8107448261507
 20
12.945935381208269
 30
156.0
 10
515.043824665788
 20
13.083307190776921
 30
156.00000000000003
 10
513.6625347344162
 20
13.15218447260971
 30
156.0
 10
512.2812597938577
 20
13.221361235719593
 30
156.0
 10
510.8999999999715
 20
13.290838611284036
 30
156.0
  0
LINE
  5
F0
330
17
100
AcDbEntity
  8
0
100
AcDbLine
 10
510.9
 20
28.921720478217157
 30
156.0
 11
510.9
 21
13.290838611848407
 31
156.0
  0
SPLINE
  5
F1
330
17
100
AcDbEntity
  8
0
100
AcDbSpline
 70
0
 71
4
 72
10
 73
5
 74
0
 40
0.0
 40
0.0
 40
0.0
 40
0.0
 40
0.0
 40
1.0
 40
1.0
 40
1.0
 40
1.0
 40
1.0
 10
507.0999994005975
 20
29.02458475658293
 30
156.0
 10
508.04999047576047
 20
28.99856148832648
 30
156.0
 10
508.9999877380235
 20
28.972743534813066
 30
156.0
 10
509.94999113306767
 20
28.947130297601785
 30
156.0
 10
510.90000059941536
 20
28.921720462184638
 30
156.0
  0
LINE
  5
F2
330
17
100
AcDbEntity
  8
0
100
AcDbLine
 10
507.1
 20
29.024584746081764
 30
156.0
 11
507.1
 21
13.482835608834801
 31
156.0
  0
SPLINE
  5
F3
330
17
100
AcDbEntity
  8
0
100
AcDbSpline
 70
0
 71
4
 72
19
 73
14
 74
0
 40
0.0
 40
0.0
 40
0.0
 40
0.0
 40
0.0
 40
0.25128077811737914
 40
0.25128077811737914
 40
0.25128077811737914
 40
0.5017454246228401
 40
0.5017454246228401
 40
0.5017454246228401
 40
0.7513368909761008
 40
0.7513368909761008
 40
0.7513368909761008
 40
1.0
 40
1.0
 40
1.0
 40
1.0
 40
1.0
 10
507.09999999998024
 20
13.482835608446548
 30
156.0
 10
505.70529540589257
 20
13.553618901451308
 30
156.0
 10
504.31060647913876
 20
13.624710363168209
 30
156.0
 10
502.91593338737783
 20
13.696111267275796
 30
156.0
 10
500.1311489076775
 20
13.839301678847512
 30
156.0
 10
498.74103741612754
 20
13.911089175068156
 30
156.0
 10
497.3509420000836
 20
13.983186736253154
 30
156.0
 10
494.57562982797214
 20
14.127752364407973
 30
156.0
 10
493.19041295878793
 20
14.200218263558723
 30
156.0
 10
491.80521240794087
 20
14.27299485638738
 30
156.0
 10
489.0399965147123
 20
14.418900535257258
 30
156.0
 10
487.65998104958106
 20
14.492027299505343
 30
156.0
 10
486.2799821482651
 20
14.565465395919954
 30
156.0
 10
484.89999999992693
 20
14.639216353401261
 30
156.0
  0
LINE
  5
F4
330
17
100
AcDbEntity
  8
0
100
AcDbLine
 10
484.9
 20
29.675035601760904
 30
156.0
 11
484.9
 21
14.639216354767257
 31
156.0
  0
SPLINE
  5
F5
330
17
100
AcDbEntity
  8
0
100
AcDbSpline
 70
0
 71
4
 72
10
 73
5
 74
0
 40
0.0
 40
0.0
 40
0.0
 40
0.0
 40
0.0
 40
1.0
 40
1.0
 40
1.0
 40
1.0
 40
1.0
 10
481.0999994006853
 20
29.794919516794796
 30
156.0
 10
482.0499893944344
 20
29.764634387209828
 30
156.0
 10
482.99998629444497
 20
29.734558898027405
 30
156.0
 10
483.9499900471611
 20
29.70469273145829
 30
156.0
 10
484.90000059932606
 20
29.675035569339503
 30
156.0
  0
LINE
  5
F6
330
17
100
AcDbEntity
  8
0
100
AcDbLine
 10
481.1
 20
29.794919511845364
 30
156.0
 11
481.1
 21
14.84319563097264
 31
156.0
  0
SPLINE
  5
F7
330
17
100
AcDbEntity
  8
0
100
AcDbSpline
 70
0
 71
4
 72
19
 73
14
 74
0
 40
0.0
 40
0.0
 40
0.0
 40
0.0
 40
0.0
 40
0.25153040138529315
 40
0.25153040138529315
 40
0.25153040138529315
 40
0.5020804871496651
 40
0.5020804871496651
 40
0.5020804871496651
 40
0.7515887997481422
 40
0.7515887997481422
 40
0.7515887997481422
 40
1.0
 40
1.0
 40
1.0
 40
1.0
 40
1.0
 10
481.09999999988776
 20
14.843195628885436
 30
156.0
 10
479.703899017827
 20
14.918465930493493
 30
156.0
 10
478.3078154560689
 20
14.994058699015495
 30
156.0
 10
476.9117495193768
 20
15.069975638981079
 30
156.0
 10
474.12509428335767
 20
15.222164241362774
 30
156.0
 10
472.7345048454878
 20
15.298433372273609
 30
156.0
 10
471.34393331615024
 20
15.375027668099285
 30
156.0
 10
468.5686083572912
 20
15.528550489222273
 30
156.0
 10
467.1838547773557
 20
15.605476300783366
 30
156.0
 10
465.79911939271545
 20
15.682728274500171
 30
156.0
 10
463.03577420425887
 20
15.83754732663115
 30
156.0
 10
461.6571642385666
 20
15.91511152205969
 30
156.0
 10
460.2785727592183
 20
15.99300289534407
 30
156.0
 10
458.89999999986816
 20
16.071223461664765
 30
156.0
  0
LINE
  5
F8
330
17
100
AcDbEntity
  8
0
100
AcDbLine
 10
458.9
 20
30.545879583054447
 30
156.0
 11
458.9
 21
16.07122346398961
 31
156.0
  0
SPLINE
  5
F9
330
17
100
AcDbEntity
  8
0
100
AcDbSpline
 70
0
 71
4
 72
10
 73
5
 74
0
 40
0.0
 40
0.0
 40
0.0
 40
0.0
 40
0.0
 40
1.0
 40
1.0
 40
1.0
 40
1.0
 40
1.0
 10
455.0999994007805
 20
30.68315127891382
 30
156.0
 10
456.0499882713066
 20
30.64851258435408
 30
156.0
 10
456.99998479834306
 20
30.614087944312264
 30
156.0
 10
457.94998892613563
 20
30.579877041422492
 30
156.0
 10
458.9000005992334
 20
30.545879557927705
 30
156.0
  0
LINE
  5
FA
330
17
100
AcDbEntity
  8
0
100
AcDbLine
 10
455.1
 20
30.68315126112414
 30
156.0
 11
455.1
 21
16.287780216968347
 31
156.0
  0
SPLINE
  5
FB
330
17
100
AcDbEntity
  8
0
100
AcDbSpline
 70
0
 71
4
 72
19
 73
14
 74
0
 40
0.0
 40
0.0
 40
0.0
 40
0.0
 40
0.0
 40
0.251818031179281
 40
0.251818031179281
 40
0.251818031179281
 40
0.5024631752512156
 40
0.5024631752512156
 40
0.5024631752512156
 40
0.7518756857517401
 40
0.7518756857517401
 40
0.7518756857517401
 40
1.0
 40
1.0
 40
1.0
 40
1.0
 40
1.0
 10
455.0999999998932
 20
16.287780215102895
 30
156.0
 10
453.70228907195934
 20
16.367781995452134
 30
156.0
 10
452.3045977274075
 20
16.448125142797608
 30
156.0
 10
450.90692622101307
 20
16.52881189675738
 30
156.0
 10
448.11813322375355
 20
16.690499846905208
 30
156.0
 10
446.7270115463027
 20
16.771497832362048
 30
156.0
 10
445.33591004775496
 20
16.852840851199122
 30
156.0
 10
442.5605890784549
 20
17.015820107214072
 30
156.0
 10
441.1763694070523
 20
17.097452935345498
 30
156.0
 10
439.79217026108427
 20
17.179432244516217
 30
156.0
 10
437.0309627648161
 20
17.34366370670693
 30
156.0
 10
435.6539541998728
 20
17.425912259830763
 30
156.0
 10
434.2769665135525
 20
17.50850877292258
 30
156.0
 10
432.9000000001027
 20
17.591455876005703
 30
156.0
  0
LINE
  5
FC
330
17
100
AcDbEntity
  8
0
100
AcDbLine
 10
432.9
 20
31.536766095480175
 30
156.0
 11
432.9
 21
17.59145587430092
 31
156.0
  0
SPLINE
  5
FD
330
17
100
AcDbEntity
  8
0
100
AcDbSpline
 70
0
 71
4
 72
10
 73
5
 74
0
 40
0.0
 40
0.0
 40
0.0
 40
0.0
 40
0.0
 40
1.0
 40
1.0
 40
1.0
 40
1.0
 40
1.0
 10
429.0999994008814
 20
31.691793277014185
 30
156.0
 10
430.0499871018803
 20
31.652709086103272
 30
156.0
 10
430.9999832405349
 20
31.613843366158402
 30
156.0
 10
431.94998775884903
 20
31.575195800301223
 30
156.0
 10
432.9000005991345
 20
31.536766071244102
 30
156.0
  0
LINE
  5
FE
330
17
100
AcDbEntity
  8
0
100
AcDbLine
 10
429.1
 20
31.691793252365382
 30
156.0
 11
429.1
 21
17.821372668398016
 31
156.0
  0
SPLINE
  5
FF
330
17
100
AcDbEntity
  8
0
100
AcDbSpline
 70
0
 71
4
 72
19
 73
14
 74
0
 40
0.0
 40
0.0
 40
0.0
 40
0.0
 40
0.0
 40
0.25214393020627346
 40
0.25214393020627346
 40
0.25214393020627346
 40
0.5028967281670665
 40
0.5028967281670665
 40
0.5028967281670665
 40
0.7521966537042372
 40
0.7521966537042372
 40
0.7521966537042372
 40
1.0
 40
1.0
 40
1.0
 40
1.0
 40
1.0
 10
429.10000000011627
 20
17.82137267031085
 30
156.0
 10
427.7004631473855
 20
17.906423613894177
 30
156.0
 10
426.3009485984301
 20
17.991840621668175
 30
156.0
 10
424.90145667688273
 20
18.07762662078606
 30
156.0
 10
422.11023993714457
 20
18.249467357584297
 30
156.0
 10
420.71851486651536
 20
18.33551800569143
 30
156.0
 10
419.32681284383517
 20
18.421939630500074
 30
156.0
 10
416.5515190455561
 20
18.595028332811445
 30
156.0
 10
415.16792699963247
 20
18.681691087273645
 30
156.0
 10
413.78435843101863
 20
18.76872683791685
 30
156.0
 10
411.02557457682116
 20
18.94302624358846
 30
156.0
 10
409.6503590056004
 20
19.03028539024989
 30
156.0
 10
408.27516735364514
 20
19.11791964003513
 30
156.0
 10
406.89999999988805
 20
19.20593242823764
 30
156.0
  0
LINE
  5
100
330
17
100
AcDbEntity
  8
0
100
AcDbLine
 10
406.9
 20
32.65021379511336
 30
156.0
 11
406.9
 21
19.205932429987868
 31
156.0
  0
SPLINE
  5
101
330
17
100
AcDbEntity
  8
0
100
AcDbSpline
 70
0
 71
4
 72
10
 73
5
 74
0
 40
0.0
 40
0.0
 40
0.0
 40
0.0
 40
0.0
 40
1.0
 40
1.0
 40
1.0
 40
1.0
 40
1.0
 10
403.09999940098106
 20
32.82336511395952
 30
156.0
 10
404.04998588515525
 20
32.77974325975855
 30
156.0
 10
404.99998161969046
 20
32.73634429498958
 30
156.0
 10
405.94998654430344
 20
32.69316790332996
 30
156.0
 10
406.9000005990292
 20
32.65021376802873
 30
156.0
  0
LINE
  5
102
330
17
100
AcDbEntity
  8
0
100
AcDbLine
 10
403.1
 20
32.82336508929138
 30
156.0
 11
403.1
 21
19.450231284272054
 31
156.0
  0
SPLINE
  5
103
330
17
100
AcDbEntity
  8
0
100
AcDbSpline
 70
0
 71
4
 72
19
 73
14
 74
0
 40
0.0
 40
0.0
 40
0.0
 40
0.0
 40
0.0
 40
0.2525366308091762
 40
0.2525366308091762
 40
0.2525366308091762
 40
0.5034122272449362
 40
0.5034122272449362
 40
0.5034122272449362
 40
0.7525753583267825
 40
0.7525753583267825
 40
0.7525753583267825
 40
1.0
 40
1.0
 40
1.0
 40
1.0
 40
1.0
 10
403.0999999998826
 20
19.450231282451362
 30
156.0
 10
401.6982400461339
 20
19.540754247681978
 30
156.0
 10
400.2965058991615
 20
19.631675635808996
 30
156.0
 10
398.89479798016
 20
19.72299929057607
 30
156.0
 10
396.1006549040823
 20
19.905855852750978
 30
156.0
 10
394.7082193976254
 20
19.997383437613454
 30
156.0
 10
393.3158106501802
 20
20.089315968492137
 30
156.0
 10
390.54055193293624
 20
20.273369028979616
 30
156.0
 10
389.15770159286234
 20
20.365483992430853
 30
156.0
 10
387.7748785590577
 20
20.458006676794913
 30
156.0
 10
385.0189362660774
 20
20.643227816151107
 30
156.0
 10
383.6458166202644
 20
20.735920536967264
 30
156.0
 10
382.2727248507112
 20
20.82902393461925
 30
156.0
 10
380.8996614585136
 20
20.922542538693612
 30
156.0
  0
LINE
  5
104
330
17
100
AcDbEntity
  8
0
100
AcDbLine
 10
380.9
 20
33.888747893708285
 30
156.0
 11
380.9
 21
20.922519479809427
 31
156.0
  0
SPLINE
  5
105
330
17
100
AcDbEntity
  8
0
100
AcDbSpline
 70
0
 71
4
 72
10
 73
5
 74
0
 40
0.0
 40
0.0
 40
0.0
 40
0.0
 40
0.0
 40
1.0
 40
1.0
 40
1.0
 40
1.0
 40
1.0
 10
377.09999940108986
 20
34.080392975052106
 30
156.0
 10
378.0499846201486
 20
34.03214104727706
 30
156.0
 10
378.99997993449267
 20
33.98411642907363
 30
156.0
 10
379.9499852815126
 20
33.93631880474682
 30
156.0
 10
380.90000059892066
 20
33.88874785815383
 30
156.0
  0
LINE
  5
106
330
17
100
AcDbEntity
  8
0
100
AcDbLine
 10
377.1
 20
34.080392950373664
 30
156.0
 11
377.1
 21
21.182539577321446
 31
156.0
  0
SPLINE
  5
107
330
17
100
AcDbEntity
  8
0
100
AcDbSpline
 70
0
 71
4
 72
19
 73
14
 74
0
 40
0.0
 40
0.0
 40
0.0
 40
0.0
 40
0.0
 40
0.2530032780729824
 40
0.2530032780729824
 40
0.2530032780729824
 40
0.5040422506654643
 40
0.5040422506654643
 40
0.5040422506654643
 40
0.7530550930525964
 40
0.7530550930525964
 40
0.7530550930525964
 40
1.0
 40
1.0
 40
1.0
 40
1.0
 40
1.0
 10
377.10000000010666
 20
21.182539578871754
 30
156.0
 10
375.69564199344353
 20
21.279082072074598
 30
156.0
 10
374.2913144199209
 20
21.376065692605316
 30
156.0
 10
372.8870178437561
 20
21.473495553641133
 30
156.0
 10
370.08939053248184
 20
21.66849860623187
 30
156.0
 10
368.6960593090469
 20
21.76606481704389
 30
156.0
 10
367.3027597813623
 20
21.864080976826685
 30
156.0
 10
364.52747040327074
 20
22.060229706707354
 30
156.0
 10
363.14548003336444
 20
22.158354953367333
 30
156.0
 10
361.7635220804171
 20
22.256933965707354
 30
156.0
 10
359.01114856222847
 20
22.454188785164344
 30
156.0
 10
357.64073247031996
 20
22.552857256732445
 30
156.0
 10
356.27034954537703
 20
22.651983490662246
 30
156.0
 10
354.89999999993574
 20
22.751567073685163
 30
156.0
  0
LINE
  5
108
330
17
100
AcDbEntity
  8
0
100
AcDbLine
 10
354.9
 20
35.254900350352564
 30
156.0
 11
354.9
 21
22.75156707456953
 31
156.0
  0
SPLINE
  5
109
330
17
100
AcDbEntity
  8
0
100
AcDbSpline
 70
0
 71
4
 72
10
 73
5
 74
0
 40
0.0
 40
0.0
 40
0.0
 40
0.0
 40
0.0
 40
1.0
 40
1.0
 40
1.0
 40
1.0
 40
1.0
 10
351.09999940117257
 20
35.46540984300769
 30
156.0
 10
352.049983305845
 20
35.412435180197924
 30
156.0
 10
352.9999781836053
 20
35.35969224839887
 30
156.0
 10
353.9499839694764
 20
35.30718073261916
 30
156.0
 10
354.90000059880686
 20
35.25490031739959
 30
156.0
  0
LINE
  5
10A
330
17
100
AcDbEntity
  8
0
100
AcDbLine
 10
351.1
 20
35.465409809614826
 30
156.0
 11
351.1
 21
23.029043095437274
 31
156.0
  0
SPLINE
  5
10B
330
17
100
AcDbEntity
  8
0
100
AcDbSpline
 70
0
 71
4
 72
19
 73
14
 74
0
 40
0.0
 40
0.0
 40
0.0
 40
0.0
 40
0.0
 40
0.2533702902270194
 40
0.2533702902270194
 40
0.2533702902270194
 40
0.5044996433206524
 40
0.5044996433206524
 40
0.5044996433206524
 40
0.7533747842265115
 40
0.7533747842265115
 40
0.7533747842265115
 40
1.0
 40
1.0
 40
1.0
 40
1.0
 40
1.0
 10
351.09999999986405
 20
23.02904309358491
 30
156.0
 10
349.6935773627398
 20
23.13223286252373
 30
156.0
 10
348.2871904331901
 20
23.235907155239797
 30
156.0
 10
346.88083959731676
 20
23.340067712013173
 30
156.0
 10
344.080649064071
 20
23.54843924627702
 30
156.0
 10
342.68680872444725
 20
23.652641633909553
 30
156.0
 10
341.29300461099984
 20
23.75732512542383
 30
156.0
 10
338.517980494261
 20
23.966713779035913
 30
156.0
 10
337.1367598365516
 20
24.071410311863584
 30
156.0
 10
335.7555755240146
 20
24.176582740298574
 30
156.0
 10
333.0057664657893
 20
24.386927711451868
 30
156.00000000000003
 10
331.63714105859884
 20
24.49209165388352
 30
156.0
 10
330.2685521073783
 20
24.59772630020959
 30
156.0
 10
328.89999999992693
 20
24.70383333087053
 30
156.0
  0
LINE
  5
10C
330
17
100
AcDbEntity
  8
0
100
AcDbLine
 10
328.9
 20
36.751210139567846
 30
156.0
 11
328.9
 21
24.70383333181159
 31
156.0
  0
SPLINE
  5
10D
330
17
100
AcDbEntity
  8
0
100
AcDbSpline
 70
0
 71
4
 72
10
 73
5
 74
0
 40
0.0
 40
0.0
 40
0.0
 40
0.0
 40
0.0
 40
1.0
 40
1.0
 40
1.0
 40
1.0
 40
1.0
 10
325.09999940132946
 20
36.98095571429087
 30
156.0
 10
326.0499819413428
 20
36.92316539592949
 30
156.0
 10
326.9999763657804
 20
36.86561123091253
 30
156.0
 10
327.9499826072571
 20
36.80829290503254
 30
156.0
 10
328.90000059871693
 20
36.75121010359334
 30
156.0
  0
LINE
  5
10E
330
17
100
AcDbEntity
  8
0
100
AcDbLine
 10
325.1
 20
36.980955677871926
 30
156.0
 11
325.1
 21
24.999832642162776
 31
156.0
  0
SPLINE
  5
10F
330
17
100
AcDbEntity
  8
0
100
AcDbSpline
 70
0
 71
4
 72
19
 73
14
 74
0
 40
0.0
 40
0.0
 40
0.0
 40
0.0
 40
0.0
 40
0.25367851031506267
 40
0.25367851031506267
 40
0.25367851031506267
 40
0.504908251428859
 40
0.504908251428859
 40
0.504908251428859
 40
0.7536763682164946
 40
0.7536763682164946
 40
0.7536763682164946
 40
1.0
 40
1.0
 40
1.0
 40
1.0
 40
1.0
 10
325.09999999989645
 20
24.99983264084027
 30
156.0
 10
323.6918432637013
 20
25.110031351096882
 30
156.0
 10
322.28372611723285
 20
25.220732761049852
 30
156.0
 10
320.87564899455685
 20
25.33193877618501
 30
156.0
 10
318.07316751906365
 20
25.554285450401895
 30
156.0
 10
316.6787623890647
 20
25.66541638164339
 30
156.0
 10
315.284397380004
 20
25.777045950153465
 30
156.0
 10
312.5094105002758
 20
26.000207460672115
 30
156.0
 10
311.12878783862544
 20
26.111729641971817
 30
156.0
 10
309.7482053815552
 20
26.223744428164892
 30
156.0
 10
307.0006874648652
 20
26.447657381774484
 30
156.0
 10
305.63375121009824
 20
26.55954587599537
 30
156.0
 10
304.2668552407787
 20
26.671920988644125
 30
156.0
 10
302.90000000008735
 20
26.784784530271462
 30
156.0
  0
LINE
  5
110
330
17
100
AcDbEntity
  8
0
100
AcDbLine
 10
302.9
 20
38.380223421903644
 30
156.0
 11
302.9
 21
26.784784529213
 31
156.0
  0
SPLINE
  5
111
330
17
100
AcDbEntity
  8
0
100
AcDbSpline
 70
0
 71
4
 72
10
 73
5
 74
0
 40
0.0
 40
0.0
 40
0.0
 40
0.0
 40
0.0
 40
1.0
 40
1.0
 40
1.0
 40
1.0
 40
1.0
 10
299.0999994014315
 20
38.629577816906874
 30
156.0
 10
300.0499805255454
 20
38.56687865548593
 30
156.0
 10
300.99997447960476
 20
38.504420070202
 30
156.0
 10
301.94998119377885
 20
38.44220174771568
 30
156.0
 10
302.90000059856476
 20
38.38022337417774
 30
156.0
  0
LINE
  5
112
330
17
100
AcDbEntity
  8
0
100
AcDbLine
 10
299.1
 20
38.62957778573294
 30
156.0
 11
299.1
 21
27.09998497147143
 31
156.0
  0
SPLINE
  5
113
330
17
100
AcDbEntity
  8
0
100
AcDbSpline
 70
0
 71
4
 72
19
 73
14
 74
0
 40
0.0
 40
0.0
 40
0.0
 40
0.0
 40
0.0
 40
0.25404718055469416
 40
0.25404718055469416
 40
0.25404718055469416
 40
0.5053948473399723
 40
0.5053948473399723
 40
0.5053948473399723
 40
0.7540303727027496
 40
0.7540303727027496
 40
0.7540303727027496
 40
1.0
 40
1.0
 40
1.0
 40
1.0
 40
1.0
 10
299.1000000001197
 20
27.099984972907492
 30
156.0
 10
297.689770097967
 20
27.217490926329184
 30
156.0
 10
296.2795842226601
 20
27.335519582051287
 30
156.0
 10
294.8694428763879
 20
27.454072984437914
 30
156.0
 10
292.0642340114611
 20
27.69096796523869
 30
156.0
 10
290.66916554095
 20
27.809298410642775
 30
156.0
 10
289.27414167154956
 20
27.928146452115744
 30
156.0
 10
286.4992365669652
 20
28.16559360330148
 30
156.0
 10
285.1193543634353
 20
28.284181560065168
 30
156.0
 10
283.7395168312661
 20
28.40327979888784
 30
156.0
 10
280.99472647826565
 20
28.641218040612337
 30
156.0
 10
279.6297726955539
 20
28.760047163177475
 30
156.0
 10
278.26486367427026
 20
28.879379086917954
 30
156.0
 10
276.8999999991704
 20
28.99921594856544
 30
156.0
  0
LINE
  5
114
330
17
100
AcDbEntity
  8
0
100
AcDbLine
 10
276.9
 20
40.14449374740856
 30
156.0
 11
276.9
 21
28.999215958013345
 31
156.0
  0
SPLINE
  5
115
330
17
100
AcDbEntity
  8
0
100
AcDbSpline
 70
0
 71
4
 72
10
 73
5
 74
0
 40
0.0
 40
0.0
 40
0.0
 40
0.0
 40
0.0
 40
1.0
 40
1.0
 40
1.0
 40
1.0
 40
1.0
 10
273.09999940158264
 20
40.41383082962504
 30
156.0
 10
274.0499790575846
 20
40.34612936265889
 30
156.0
 10
274.99997252388715
 20
40.278672894613564
 30
156.0
 10
275.94997972817356
 20
40.21146111310643
 30
156.0
 10
276.90000059845795
 20
40.14449370522297
 30
156.0
  0
LINE
  5
116
330
17
100
AcDbEntity
  8
0
100
AcDbLine
 10
273.1
 20
40.413830786978096
 30
156.0
 11
273.1
 21
29.334343610257843
 31
156.0
  0
SPLINE
  5
117
330
17
100
AcDbEntity
  8
0
100
AcDbSpline
 70
0
 71
4
 72
19
 73
14
 74
0
 40
0.0
 40
0.0
 40
0.0
 40
0.0
 40
0.0
 40
0.2555034151981201
 40
0.2555034151981201
 40
0.2555034151981201
 40
0.5069748156831884
 40
0.5069748156831884
 40
0.5069748156831884
 40
0.755425691178431
 40
0.755425691178431
 40
0.755425691178431
 40
1.0
 40
1.0
 40
1.0
 40
1.0
 40
1.0
 10
273.0999999993083
 20
29.334343602449167
 30
156.0
 10
271.68165066453633
 20
29.459984472947255
 30
156.0
 10
270.26335122254636
 20
29.58617402736611
 30
156.0
 10
268.84510237574733
 20
29.712914764134492
 30
156.0
 10
266.0310875631298
 20
29.965494911281333
 30
156.0
 10
264.6353199906973
 20
30.091316985160717
 30
156.0
 10
263.2396029542769
 20
30.217677896066956
 30
156.0
 10
260.4650356430686
 20
30.46995814342531
 30
156.0
 10
259.08618414454537
 20
30.595864553010323
 30
156.0
 10
257.70738370427273
 20
30.72230180987694
 30
156.0
 10
254.97139963907333
 20
30.974261881260208
 30
156.0
 10
253.61421440842997
 20
31.099768180490795
 30
156.0
 10
252.25708072471807
 20
31.225793682437526
 30
156.0
 10
250.90000000000006
 20
31.352340803852663
 30
156.0
  0
LINE
  5
118
330
17
100
AcDbEntity
  8
0
100
AcDbLine
 10
250.9
 20
42.0465823577984
 30
156.0
 11
250.9
 21
31.352340803852307
 31
156.0
  0
SPLINE
  5
119
330
17
100
AcDbEntity
  8
0
100
AcDbSpline
 70
0
 71
4
 72
10
 73
5
 74
0
 40
0.0
 40
0.0
 40
0.0
 40
0.0
 40
0.0
 40
1.0
 40
1.0
 40
1.0
 40
1.0
 40
1.0
 10
247.09999940171707
 20
42.3362771027869
 30
156.0
 10
248.04997753642238
 20
42.26347958476941
 30
156.0
 10
248.9999704972596
 20
42.190931487948035
 30
156.0
 10
249.94997820938877
 20
42.11863250098996
 30
156.0
 10
250.90000059830322
 20
42.04658231200749
 30
156.0
  0
LINE
  5
11A
330
17
100
AcDbEntity
  8
0
100
AcDbLine
 10
247.1
 20
42.336277056940034
 30
156.0
 11
247.1
 21
31.708240864098745
 31
156.0
  0
SPLINE
  5
11B
330
17
100
AcDbEntity
  8
0
100
AcDbSpline
 70
0
 71
7
 72
34
 73
26
 74
0
 40
0.0
 40
0.0
 40
0.0
 40
0.0
 40
0.0
 40
0.0
 40
0.0
 40
0.0
 40
0.3389149688360699
 40
0.3389149688360699
 40
0.3389149688360699
 40
0.3389149688360699
 40
0.3389149688360699
 40
0.3389149688360699
 40
0.6717721318385671
 40
0.6717721318385671
 40
0.6717721318385671
 40
0.6717721318385671
 40
0.6717721318385671
 40
0.6717721318385671
 40
0.9371667637451683
 40
0.9371667637451683
 40
0.9371667637451683
 40
0.9371667637451683
 40
0.9371667637451683
 40
0.9371667637451683
 40
1.0
 40
1.0
 40
1.0
 40
1.0
 40
1.0
 40
1.0
 40
1.0
 40
1.0
 10
247.10000000000002
 20
31.708240864098997
 30
156.0
 10
246.0248069255999
 20
31.809381345263166
 30
156.0
 10
244.94964427676464
 20
31.910810239815493
 30
156.0
 10
243.87451260004775
 20
32.01252829811658
 30
156.0
 10
242.7994125832854
 20
32.11453626377992
 30
156.0
 10
241.7243451014488
 20
32.21683487098052
 30
156.0
 10
240.64931126249525
 20
32.31942484176364
 30
156.0
 10
238.5185282985235
 20
32.52334999928634
 30
156.0
 10
237.46277830841228
 20
32.624674801817925
 30
156.0
 10
236.4070633949522
 20
32.726281997638274
 30
156.0
 10
235.35138533620128
 20
32.82817221955222
 30
156.0
 10
234.29574671706342
 20
32.93034603126083
 30
156.0
 10
233.24015128331513
 20
33.03280389048704
 30
156.0
 10
231.342993273811
 20
33.21746476128985
 30
156.0
 10
230.50141535764942
 20
33.2995639623745
 30
156.0
 10
229.65987133627232
 20
33.38184405323167
 30
156.0
 10
228.81836464494936
 20
33.46430512138044
 30
156.0
 10
227.97690394863113
 20
33.546946739221205
 30
156.0
 10
227.13550126025683
 20
33.629768146129756
 30
156.0
 10
226.09499617116646
 20
33.73241760988989
 30
155.99999999999997
 10
225.89581525498977
 20
33.752077924109585
 30
155.99999999999994
 10
225.69663951655207
 20
33.77174815340752
 30
155.99999999999991
 10
225.49746943697602
 20
33.79142825548621
 30
155.9999999999999
 10
225.29830562315425
 20
33.811118175485184
 30
155.99999999999986
 10
225.0991488328838
 20
33.8308178433879
 30
155.99999999999983
 10
224.89999999999992
 20
33.85052717142855
 30
155.9999999999998
  0
LINE
  5
11C
330
17
100
AcDbEntity
  8
0
100
AcDbLine
 10
224.9
 20
44.08905834771028
 30
156.0
 11
224.9
 21
33.850527171428546
 31
156.0
  0
SPLINE
  5
11D
330
17
100
AcDbEntity
  8
0
100
AcDbSpline
 70
0
 71
4
 72
10
 73
5
 74
0
 40
0.0
 40
0.0
 40
0.0
 40
0.0
 40
0.0
 40
1.0
 40
1.0
 40
1.0
 40
1.0
 40
1.0
 10
221.09999940184252
 20
44.3994868806616
 30
156.0
 10
222.04997596112293
 20
44.32149927496315
 30
156.0
 10
222.9999683984805
 20
44.24376551169529
 30
156.0
 10
223.9499766365157
 20
44.16628528067218
 30
156.0
 10
224.90000059816458
 20
44.08905827112962
 30
156.0
  0
LINE
  5
11E
330
17
100
AcDbEntity
  8
0
100
AcDbLine
 10
221.1
 20
44.39948683889175
 30
156.0
 11
221.1
 21
34.228239627334396
 31
156.0
  0
SPLINE
  5
11F
330
17
100
AcDbEntity
  8
0
100
AcDbSpline
 70
0
 71
7
 72
34
 73
26
 74
0
 40
0.0
 40
0.0
 40
0.0
 40
0.0
 40
0.0
 40
0.0
 40
0.0
 40
0.0
 40
0.3063337402104765
 40
0.3063337402104765
 40
0.3063337402104765
 40
0.3063337402104765
 40
0.3063337402104765
 40
0.3063337402104765
 40
0.6345611642245729
 40
0.6345611642245729
 40
0.6345611642245729
 40
0.6345611642245729
 40
0.6345611642245729
 40
0.6345611642245729
 40
0.8440178527680638
 40
0.8440178527680638
 40
0.8440178527680638
 40
0.8440178527680638
 40
0.8440178527680638
 40
0.8440178527680638
 40
1.0
 40
1.0
 40
1.0
 40
1.0
 40
1.0
 40
1.0
 40
1.0
 40
1.0
 10
221.09999999999997
 20
34.22823962733438
 30
156.0
 10
221.05468213361272
 20
34.23276368166555
 30
156.0
 10
221.0093840192777
 20
34.2372863096517
 30
156.0
 10
220.96410837554464
 20
34.24180723905782
 30
156.0
 10
220.91885931631933
 20
34.24632605827827
 30
156.0
 10
220.87364319190954
 20
34.25084213202619
 30
156.0
 10
220.828469432892
 20
34.255354516741505
 30
156.0
 10
220.7350163662604
 20
34.26469061720118
 30
156.0
 10
220.68676858392564
 20
34.26951126355286
 30
156.0
 10
220.63859909656247
 20
34.27432470456963
 30
156.0
 10
220.5905175451605
 20
34.279129975860926
 30
156.0
 10
220.5426108965837
 20
34.28391837960069
 30
156.0
 10
220.49495794583078
 20
34.2886820337615
 30
156.0
 10
220.41775904520478
 20
34.29640022374266
 30
156.0
 10
220.3834513012808
 20
34.29983047007242
 30
156.0
 10
220.35148538370885
 20
34.30302699186833
 30
156.0
 10
220.32593761378908
 20
34.30558194600726
 30
156.0
 10
220.30740782814772
 20
34.307435122630636
 30
156.0
 10
220.2936893724596
 20
34.30880714622189
 30
156.0
 10
220.27353318210558
 20
34.31082308306254
 30
156.0
 10
220.26569240088946
 20
34.31160730444777
 30
156.0
 10
220.25992698695376
 20
34.312183969786005
 30
156.0
 10
220.2568840911415
 20
34.312488328185374
 30
156.0
 10
220.2560184683501
 20
34.312574907167935
 30
156.0
 10
220.25599428032115
 20
34.31257732739725
 30
156.0
 10
220.25599885253294
 20
34.31257686988915
 30
156.0
  0
SPLINE
  5
120
330
17
100
AcDbEntity
  8
0
100
AcDbSpline
 70
0
 71
8
 72
32
 73
23
 74
0
 40
0.0
 40
0.0
 40
0.0
 40
0.0
 40
0.0
 40
0.0
 40
0.0
 40
0.0
 40
0.0
 40
0.18206386649037848
 40
0.18206386649037848
 40
0.18206386649037848
 40
0.18206386649037848
 40
0.18206386649037848
 40
0.18206386649037848
 40
0.18206386649037848
 40
0.5692476367798739
 40
0.5692476367798739
 40
0.5692476367798739
 40
0.5692476367798739
 40
0.5692476367798739
 40
0.5692476367798739
 40
0.5692476367798739
 40
1.0
 40
1.0
 40
1.0
 40
1.0
 40
1.0
 40
1.0
 40
1.0
 40
1.0
 40
1.0
 10
198.89999996671617
 20
41.32658175604196
 30
156.0
 10
199.34581167109502
 20
41.070189384866595
 30
156.0
 10
199.79543703337373
 20
40.82040814358042
 30
156.0
 10
200.2485459886828
 20
40.57691821735088
 30
156.0
 10
200.70486051379117
 20
40.339458408591
 30
156.0
 10
201.16414484010346
 20
40.10780812881854
 30
156.0
 10
201.62619873124603
 20
39.881774950717066
 30
156.0
 10
202.09085382524458
 20
39.661187720398964
 30
156.0
 10
203.55136608918087
 20
38.98804623542282
 30
156.0
 10
204.55578808979902
 20
38.55419434453951
 30
156.0
 10
205.56986503377965
 20
38.142890316462484
 30
156.0
 10
206.59251085183354
 20
37.753182844843565
 30
156.0
 10
207.62283097028384
 20
37.38437357697487
 30
156.0
 10
208.66008484983922
 20
37.03592053897337
 30
156.0
 10
209.70367423679022
 20
36.70740786936387
 30
156.0
 10
211.92066479673576
 20
36.054831183292926
 30
156.0
 10
213.09535781086674
 20
35.73545713212094
 30
156.0
 10
214.27645968022262
 20
35.43993872278008
 30
156.0
 10
215.46329267474633
 20
35.167988277954436
 30
156.0
 10
216.65523044745518
 20
34.91941061887431
 30
156.0
 10
217.8516880489977
 20
34.694060774025345
 30
156.0
 10
219.0521160616188
 20
34.49181810791401
 30
156.0
 10
220.25599885253294
 20
34.31257686988916
 30
156.0
  0
LINE
  5
121
330
17
100
AcDbEntity
  8
0
100
AcDbLine
 10
198.9
 20
46.27449879622519
 30
156.0
 11
198.9
 21
41.326581813915354
 31
156.0
  0
SPLINE
  5
122
330
17
100
AcDbEntity
  8
0
100
AcDbSpline
 70
0
 71
4
 72
10
 73
5
 74
0
 40
0.0
 40
0.0
 40
0.0
 40
0.0
 40
0.0
 40
1.0
 40
1.0
 40
1.0
 40
1.0
 40
1.0
 10
195.09999940198776
 20
46.606038525461926
 30
156.0
 10
196.0499743307538
 20
46.522766496169965
 30
156.0
 10
196.9999662262887
 20
46.439752728936476
 30
156.0
 10
197.94997500859537
 20
46.3569969148246
 30
156.0
 10
198.9000005980215
 20
46.2744987442943
 30
156.0
  0
LINE
  5
123
330
17
100
AcDbEntity
  8
0
100
AcDbLine
 10
195.1
 20
46.606038473041906
 30
156.0
 11
195.1
 21
43.86901889051283
 31
156.0
  0
SPLINE
  5
124
330
17
100
AcDbEntity
  8
0
100
AcDbSpline
 70
0
 71
8
 72
305
 73
296
 74
0
 40
0.0
 40
0.0
 40
0.0
 40
0.0
 40
0.0
 40
0.0
 40
0.0
 40
0.0
 40
0.0
 40
0.0008796589568214747
 40
0.0008796589568214747
 40
0.0008796589568214747
 40
0.0008796589568214747
 40
0.0008796589568214747
 40
0.0008796589568214747
 40
0.0008796589568214747
 40
0.0021154736450445105
 40
0.0021154736450445105
 40
0.0021154736450445105
 40
0.0021154736450445105
 40
0.0021154736450445105
 40
0.0021154736450445105
 40
0.0021154736450445105
 40
0.0038210875241940713
 40
0.0038210875241940713
 40
0.0038210875241940713
 40
0.0038210875241940713
 40
0.0038210875241940713
 40
0.0038210875241940713
 40
0.0038210875241940713
 40
0.006331239662101376
 40
0.006331239662101376
 40
0.006331239662101376
 40
0.006331239662101376
 40
0.006331239662101376
 40
0.006331239662101376
 40
0.006331239662101376
 40
0.009938090438010904
 40
0.009938090438010904
 40
0.009938090438010904
 40
0.009938090438010904
 40
0.009938090438010904
 40
0.009938090438010904
 40
0.009938090438010904
 40
0.018132617250772108
 40
0.018132617250772108
 40
0.018132617250772108
 40
0.018132617250772108
 40
0.018132617250772108
 40
0.018132617250772108
 40
0.018132617250772108
 40
0.03187474202501806
 40
0.03187474202501806
 40
0.03187474202501806
 40
0.03187474202501806
 40
0.03187474202501806
 40
0.03187474202501806
 40
0.03187474202501806
 40
0.03965909270501164
 40
0.03965909270501164
 40
0.03965909270501164
 40
0.03965909270501164
 40
0.03965909270501164
 40
0.03965909270501164
 40
0.03965909270501164
 40
0.04820803270530115
 40
0.04820803270530115
 40
0.04820803270530115
 40
0.04820803270530115
 40
0.04820803270530115
 40
0.04820803270530115
 40
0.04820803270530115
 40
0.06365847961022175
 40
0.06365847961022175
 40
0.06365847961022175
 40
0.06365847961022175
 40
0.06365847961022175
 40
0.06365847961022175
 40
0.06365847961022175
 40
0.08622816296495817
 40
0.08622816296495817
 40
0.08622816296495817
 40
0.08622816296495817
 40
0.08622816296495817
 40
0.08622816296495817
 40
0.08622816296495817
 40
0.0997440720711742
 40
0.0997440720711742
 40
0.0997440720711742
 40
0.0997440720711742
 40
0.0997440720711742
 40
0.0997440720711742
 40
0.0997440720711742
 40
0.1420667510968388
 40
0.1420667510968388
 40
0.1420667510968388
 40
0.1420667510968388
 40
0.1420667510968388
 40
0.1420667510968388
 40
0.1420667510968388
 40
0.20677371127690655
 40
0.20677371127690655
 40
0.20677371127690655
 40
0.20677371127690655
 40
0.20677371127690655
 40
0.20677371127690655
 40
0.20677371127690655
 40
0.2564708181561695
 40
0.2564708181561695
 40
0.2564708181561695
 40
0.2564708181561695
 40
0.2564708181561695
 40
0.2564708181561695
 40
0.2564708181561695
 40
0.27452847451054607
 40
0.27452847451054607
 40
0.27452847451054607
 40
0.27452847451054607
 40
0.27452847451054607
 40
0.27452847451054607
 40
0.27452847451054607
 40
0.2905826762077467
 40
0.2905826762077467
 40
0.2905826762077467
 40
0.2905826762077467
 40
0.2905826762077467
 40
0.2905826762077467
 40
0.2905826762077467
 40
0.4109812046145148
 40
0.4109812046145148
 40
0.4109812046145148
 40
0.4109812046145148
 40
0.4109812046145148
 40
0.4109812046145148
 40
0.4109812046145148
 40
0.46917120711724974
 40
0.46917120711724974
 40
0.46917120711724974
 40
0.46917120711724974
 40
0.46917120711724974
 40
0.46917120711724974
 40
0.46917120711724974
 40
0.48117741378502726
 40
0.48117741378502726
 40
0.48117741378502726
 40
0.48117741378502726
 40
0.48117741378502726
 40
0.48117741378502726
 40
0.48117741378502726
 40
0.5067775833075872
 40
0.5067775833075872
 40
0.5067775833075872
 40
0.5067775833075872
 40
0.5067775833075872
 40
0.5067775833075872
 40
0.5067775833075872
 40
0.5709856050042104
 40
0.5709856050042104
 40
0.5709856050042104
 40
0.5709856050042104
 40
0.5709856050042104
 40
0.5709856050042104
 40
0.5709856050042104
 40
0.6833359232823396
 40
0.6833359232823396
 40
0.6833359232823396
 40
0.6833359232823396
 40
0.6833359232823396
 40
0.6833359232823396
 40
0.6833359232823396
 40
0.8085786256868558
 40
0.8085786256868558
 40
0.8085786256868558
 40
0.8085786256868558
 40
0.8085786256868558
 40
0.8085786256868558
 40
0.8085786256868558
 40
0.8429995947959057
 40
0.8429995947959057
 40
0.8429995947959057
 40
0.8429995947959057
 40
0.8429995947959057
 40
0.8429995947959057
 40
0.8429995947959057
 40
0.8588363558726002
 40
0.8588363558726002
 40
0.8588363558726002
 40
0.8588363558726002
 40
0.8588363558726002
 40
0.8588363558726002
 40
0.8588363558726002
 40
0.8764326086420753
 40
0.8764326086420753
 40
0.8764326086420753
 40
0.8764326086420753
 40
0.8764326086420753
 40
0.8764326086420753
 40
0.8764326086420753
 40
0.9003126290888835
 40
0.9003126290888835
 40
0.9003126290888835
 40
0.9003126290888835
 40
0.9003126290888835
 40
0.9003126290888835
 40
0.9003126290888835
 40
0.923457818877633
 40
0.923457818877633
 40
0.923457818877633
 40
0.923457818877633
 40
0.923457818877633
 40
0.923457818877633
 40
0.923457818877633
 40
0.9437766656129888
 40
0.9437766656129888
 40
0.9437766656129888
 40
0.9437766656129888
 40
0.9437766656129888
 40
0.9437766656129888
 40
0.9437766656129888
 40
0.9521264109290316
 40
0.9521264109290316
 40
0.9521264109290316
 40
0.9521264109290316
 40
0.9521264109290316
 40
0.9521264109290316
 40
0.9521264109290316
 40
0.9603446052295028
 40
0.9603446052295028
 40
0.9603446052295028
 40
0.9603446052295028
 40
0.9603446052295028
 40
0.9603446052295028
 40
0.9603446052295028
 40
0.9729022959120768
 40
0.9729022959120768
 40
0.9729022959120768
 40
0.9729022959120768
 40
0.9729022959120768
 40
0.9729022959120768
 40
0.9729022959120768
 40
0.9800524837544368
 40
0.9800524837544368
 40
0.9800524837544368
 40
0.9800524837544368
 40
0.9800524837544368
 40
0.9800524837544368
 40
0.9800524837544368
 40
0.9824097275683944
 40
0.9824097275683944
 40
0.9824097275683944
 40
0.9824097275683944
 40
0.9824097275683944
 40
0.9824097275683944
 40
0.9824097275683944
 40
0.9850616259722998
 40
0.9850616259722998
 40
0.9850616259722998
 40
0.9850616259722998
 40
0.9850616259722998
 40
0.9850616259722998
 40
0.9850616259722998
 40
0.9884519549544917
 40
0.9884519549544917
 40
0.9884519549544917
 40
0.9884519549544917
 40
0.9884519549544917
 40
0.9884519549544917
 40
0.9884519549544917
 40
0.9909760924757168
 40
0.9909760924757168
 40
0.9909760924757168
 40
0.9909760924757168
 40
0.9909760924757168
 40
0.9909760924757168
 40
0.9909760924757168
 40
0.9937499885745202
 40
0.9937499885745202
 40
0.9937499885745202
 40
0.9937499885745202
 40
0.9937499885745202
 40
0.9937499885745202
 40
0.9937499885745202
 40
0.9958076830397986
 40
0.9958076830397986
 40
0.9958076830397986
 40
0.9958076830397986
 40
0.9958076830397986
 40
0.9958076830397986
 40
0.9958076830397986
 40
0.9982355456893283
 40
0.9982355456893283
 40
0.9982355456893283
 40
0.9982355456893283
 40
0.9982355456893283
 40
0.9982355456893283
 40
0.9982355456893283
 40
1.0
 40
1.0
 40
1.0
 40
1.0
 40
1.0
 40
1.0
 40
1.0
 40
1.0
 40
1.0
 10
1809.1431281840207
 20
62.23289323988976
 30
156.0
 10
1809.170101641239
 20
62.37771882157246
 30
156.0
 10
1809.1900785252012
 20
62.52370099310028
 30
156.0
 10
1809.2024593329088
 20
62.67056444499322
 30
156.0
 10
1809.206656113935
 20
62.81796977131158
 30
156.0
 10
1809.2021272747832
 20
62.96550820381336
 30
156.0
 10
1809.1884268450833
 20
63.11269374284956
 30
156.0
 10
1809.1652765021513
 20
63.25895109136753
 30
156.0
 10
1809.0868744520913
 20
63.606805979111634
 30
156.0
 10
1809.022625349017
 20
63.80592690060078
 30
156.0
 10
1808.9403289940242
 20
63.998604328650075
 30
156.0
 10
1808.8414525014432
 20
64.18342928633199
 30
156.0
 10
1808.7280250844203
 20
64.35966377626843
 30
156.0
 10
1808.602251184778
 20
64.52703155228589
 30
156.0
 10
1808.466240706424
 20
64.68557469776927
 30
156.0
 10
1808.122583790941
 20
65.04260083708238
 30
156.0
 10
1807.9072086954343
 20
65.23351178499321
 30
156.0
 10
1807.6794839250533
 20
65.41014231712916
 30
156.0
 10
1807.4423866696693
 20
65.57406680440009
 30
156.0
 10
1807.1981946811206
 20
65.72670240018324
 30
156.0
 10
1806.9485171084573
 20
65.86935324182951
 30
156.0
 10
1806.6943064261195
 20
66.00322859764485
 30
156.0
 10
1806.0555487180272
 20
66.31525102679662
 30
156.0
 10
1805.6670916462506
 20
66.48400151288683
 30
156.0
 10
1805.2727001355338
 20
66.63895283476512
 30
156.0
 10
1804.8738666414733
 20
66.782138027347
 30
156.0
 10
1804.471691416556
 20
66.91518278610323
 30
156.0
 10
1804.0668915863484
 20
67.03934863368619
 30
156.0
 10
1803.65987438402
 20
67.1557045498725
 30
156.0
 10
1802.6628561112962
 20
67.4224163429364
 30
156.0
 10
1802.0711715138789
 20
67.56526560155109
 30
156.0
 10
1801.476645221204
 20
67.69624869605954
 30
156.0
 10
1800.8799547892831
 20
67.81706811268901
 30
156.0
 10
1800.281595317002
 20
67.92902775216686
 30
156.0
 10
1799.681910982331
 20
68.03318586954748
 30
156.0
 10
1799.0811011254054
 20
68.13038798007574
 30
156.0
 10
1797.1118560786786
 20
68.42802648144715
 30
156.0
 10
1795.7397685823803
 20
68.60240468712769
 30
156.0
 10
1794.3646467549752
 20
68.75281864454513
 30
156.0
 10
1792.9875203926526
 20
68.88362400441275
 30
156.0
 10
1791.6091121217837
 20
68.99825400082614
 30
156.0
 10
1790.2298103519947
 20
69.09905727434652
 30
156.0
 10
1788.8497527866186
 20
69.18797130710838
 30
156.0
 10
1785.153002025047
 20
69.39819393602787
 30
156.0
 10
1782.8356014570509
 20
69.50063750103993
 30
156.0
 10
1780.517227851386
 20
69.5809425396404
 30
156.0
 10
1778.198293100631
 20
69.64319829193127
 30
156.0
 10
1775.8790760470533
 20
69.69054615454553
 30
156.0
 10
1773.5597221164055
 20
69.72524477368648
 30
156.0
 10
1771.2402610437773
 20
69.74912456961094
 30
156.0
 10
1767.6066171167947
 20
69.77185199679175
 30
156.0
 10
1766.292607527048
 20
69.77705307557758
 30
156.0
 10
1764.9785863701575
 20
69.77954900196309
 30
156.0
 10
1763.6645607669684
 20
69.77960611039595
 30
156.0
 10
1762.3505362234876
 20
69.77745133472942
 30
156.0
 10
1761.0365166103543
 20
69.7732788778596
 30
156.0
 10
1759.7225041423137
 20
69.76725688136278
 30
156.0
 10
1756.9654312681773
 20
69.75105276652513
 30
156.0
 10
1755.483508717715
 20
69.74029218636143
 30
156.0
 10
1753.9616834910817
 20
69.72725021977321
 30
156.0
 10
1752.3988249132697
 20
69.71192416711766
 30
156.0
 10
1750.7937198494851
 20
69.69431076397777
 30
156.0
 10
1749.1450727051479
 20
69.67440618116224
 30
156.0
 10
1747.45150542589
 20
69.65220602470549
 30
156.0
 10
1742.5669602629132
 20
69.58342539098447
 30
156.0
 10
1739.4224367840957
 20
69.53376605087932
 30
156.0
 10
1736.2779799835837
 20
69.47972840128267
 30
156.0
 10
1733.1335844774567
 20
69.42206528967162
 30
156.0
 10
1729.9892448735113
 20
69.36137808518411
 30
156.0
 10
1726.8449549502484
 20
69.29816258349673
 30
156.0
 10
1723.7007072719186
 20
69.23283032525697
 30
156.0
 10
1715.9634913377122
 20
69.06771520481891
 30
156.0
 10
1711.3705674202429
 20
68.96592946600396
 30
156.0
 10
1706.7776994398844
 20
68.86146413393655
 30
156.0
 10
1702.1848713025965
 20
68.75512524407141
 30
156.0
 10
1697.5920698898763
 20
68.64754681837934
 30
156.0
 10
1692.9992838411247
 20
68.53924391334388
 30
156.0
 10
1688.4065029837939
 20
68.43063723903816
 30
156.0
 10
1681.063317267445
 20
68.25706956048946
 30
156.0
 10
1678.2995163570972
 20
68.1917577471641
 30
156.0
 10
1675.5222036584664
 20
68.1262243558096
 30
156.0
 10
1672.7313524733345
 20
68.06053962907767
 30
156.0
 10
1669.9270207595007
 20
67.99476383363475
 30
156.0
 10
1667.1093511307806
 20
67.92894726016192
 30
156.0
 10
1664.2785708570088
 20
67.86313022335506
 30
156.0
 10
1652.5308271454126
 20
67.59134220061767
 30
156.0
 10
1643.6265818806896
 20
67.38858642131895
 30
156.0
 10
1634.722239233419
 20
67.18994169287558
 30
156.0
 10
1625.8177922043533
 20
66.99584570431898
 30
156.0
 10
1616.913238514813
 20
66.80654291092782
 30
156.0
 10
1608.0085787222133
 20
66.62217161488161
 30
156.0
 10
1599.1038157232538
 20
66.44278697170952
 30
156.0
 10
1576.5843490748339
 20
66.00179016076207
 30
156.0
 10
1562.9695108681615
 20
65.74686722736186
 30
156.0
 10
1549.3544515232516
 20
65.50367902707745
 30
156.0
 10
1535.7391868091431
 20
65.27202439488161
 30
156.0
 10
1522.1237327966312
 20
65.05163778759612
 30
156.0
 10
1508.5081049512949
 20
64.84224331818926
 30
156.0
 10
1494.892318096001
 20
64.64355765040182
 30
156.0
 10
1470.818895140228
 20
64.31074256464323
 30
156.0
 10
1460.3613183924658
 20
64.17232927147055
 30
156.0
 10
1449.9036615900318
 20
64.03995664659938
 30
156.0
 10
1439.445930348563
 20
63.91351007376083
 30
156.0
 10
1428.9881299508404
 20
63.79288202685377
 30
156.0
 10
1418.5302653366139
 20
63.67797292235249
 30
156.0
 10
1408.0723410924206
 20
63.568691971714145
 30
156.0
 10
1393.814409803213
 20
63.42726586373824
 30
156.0
 10
1390.0122809363554
 20
63.390284505492005
 30
156.0
 10
1386.2082340831146
 20
63.354014064162996
 30
156.0
 10
1382.402528521433
 20
63.318454514055986
 30
156.0
 10
1378.5954235649085
 20
63.28360569866519
 30
156.0
 10
1374.7871785627965
 20
63.24946733067416
 30
156.0
 10
1370.9780529000068
 20
63.216038991955834
 30
156.0
 10
1363.7812415855283
 20
63.15423135585531
 30
156.0
 10
1360.394172305463
 20
63.125707019870646
 30
156.0
 10
1357.007098279677
 20
63.09774621557045
 30
156.0
 10
1353.6200196369496
 20
63.07034690151659
 30
156.0
 10
1350.232936512074
 20
63.04350590488092
 30
156.0
 10
1346.8458490458565
 20
63.01721892144539
 30
156.0
 10
1343.4587573851172
 20
62.99148051560195
 30
156.0
 10
1314.6701284369556
 20
62.77732368704045
 30
156.0
 10
1289.2683690530077
 20
62.61888375411164
 30
156.0
 10
1263.8664418799701
 20
62.48874302610752
 30
156.0
 10
1238.4643964226693
 20
62.38428846538915
 30
156.0
 10
1213.0622726924855
 20
62.30267140988553
 30
156.0
 10
1187.660100854522
 20
62.24089541182989
 30
156.0
 10
1162.2579010265392
 20
62.19586661046243
 30
156.0
 10
1124.5784970999762
 20
62.1492473754164
 30
156.0
 10
1112.3013072669066
 20
62.13723407216624
 30
156.0
 10
1100.0241148494802
 20
62.12804194921006
 30
156.0
 10
1087.7469208536265
 20
62.12131267624177
 30
156.0
 10
1075.469726027233
 20
62.116685810521204
 30
156.0
 10
1063.1925308597563
 20
62.11379942202813
 30
156.0
 10
1050.9153355818296
 20
62.11229071861648
 30
156.0
 10
1036.1050152441453
 20
62.11169473551783
 30
156.0
 10
1033.5718903216814
 20
62.111635992671154
 30
156.0
 10
1031.0387653984292
 20
62.111617252233536
 30
156.0
 10
1028.5056404751597
 20
62.11163532299609
 30
156.0
 10
1025.9725155524611
 20
62.11168701293571
 30
156.0
 10
1023.4393906307412
 20
62.11176912921523
 30
156.0
 10
1020.9062657102251
 20
62.1118784781833
 30
156.0
 10
1012.9718988209054
 20
62.11229627949474
 30
156.0
 10
1007.5706568555886
 20
62.11268896500204
 30
156.0
 10
1002.169414901158
 20
62.11316184672654
 30
156.0
 10
996.7681729464493
 20
62.11371509834214
 30
156.0
 10
991.3669310072091
 20
62.11431277702014
 30
156.0
 10
985.9656890657318
 20
62.11495249210247
 30
156.0
 10
980.5644471316134
 20
62.11561024582327
 30
156.0
 10
961.6163003983585
 20
62.117930746860836
 30
156.0
 10
948.0693956524204
 20
62.11961126253644
 30
156.0
 10
934.522490864567
 20
62.12105152292778
 30
156.0
 10
920.9755860003818
 20
62.12199518258029
 30
156.0
 10
907.4286810853921
 20
62.12218964388489
 30
156.0
 10
893.8817762050833
 20
62.12138441273104
 30
156.0
 10
880.3348715049151
 20
62.11932945415962
 30
156.0
 10
843.0837792834494
 20
62.10955147207455
 30
156.0
 10
819.3795942830574
 20
62.09873360252823
 30
156.0
 10
795.6754116426031
 20
62.08197163278912
 30
156.0
 10
771.971233422382
 20
62.05790201678246
 30
156.0
 10
748.2670643495101
 20
62.02510083999828
 30
156.0
 10
724.562911886665
 20
61.98203579439226
 30
156.0
 10
700.8587863534294
 20
61.92698152415198
 30
156.0
 10
650.730533102999
 20
61.780816414689156
 30
156.0
 10
624.3064202869045
 20
61.686320482007716
 30
156.0
 10
597.88236325515
 20
61.577345315311454
 30
156.0
 10
571.4583618785427
 20
61.45630440187015
 30
156.0
 10
545.0344136032561
 20
61.325417746299344
 30
156.0
 10
518.6105143175557
 20
61.1866118863544
 30
156.0
 10
492.18665645915627
 20
61.04190902824871
 30
156.0
 10
458.5006673353813
 20
60.851236061170674
 30
156.0
 10
451.2385023955839
 20
60.80976245215925
 30
156.0
 10
443.9763403857453
 20
60.76794280386625
 30
156.0
 10
436.7141813220926
 20
60.72579210995011
 30
156.0
 10
429.4520252799886
 20
60.68331788283528
 30
156.0
 10
422.1898724151759
 20
60.64051677635968
 30
156.0
 10
414.92772299971006
 20
60.59736882033675
 30
156.0
 10
404.3243332660915
 20
60.53379713194378
 30
156.0
 10
400.9975550508612
 20
60.51376882009422
 30
156.0
 10
397.68550470223187
 20
60.493742753194645
 30
156.0
 10
394.388444259274
 20
60.47371642732693
 30
156.0
 10
391.10663592571353
 20
60.453686263983776
 30
156.0
 10
387.84034207085836
 20
60.43364746110864
 30
156.0
 10
384.5898252305248
 20
60.4135938441358
 30
156.0
 10
377.76151495293885
 20
60.37121109729473
 30
156.0
 10
374.1874213067911
 20
60.34887426523513
 30
156.0
 10
370.63349249350773
 20
60.32650563001938
 30
156.0
 10
367.1001219404771
 20
60.304080926494066
 30
156.0
 10
363.5876709888037
 20
60.28158350715852
 30
156.0
 10
360.0964688717583
 20
60.25900793983807
 30
156.0
 10
356.62681286136166
 20
60.2363369110564
 30
156.0
 10
348.4998705421263
 20
60.182487650384594
 30
156.0
 10
343.82077785398263
 20
60.15090301390759
 30
156.0
 10
339.14169144677913
 20
60.118574218127804
 30
156.0
 10
334.4626127826906
 20
60.08530913680124
 30
156.0
 10
329.783543888876
 20
60.050882538983146
 30
156.0
 10
325.10448743326367
 20
60.01502599836246
 30
156.0
 10
320.425446845206
 20
59.97741199793611
 30
156.0
 10
311.21138788687585
 20
59.899076556247316
 30
156.0
 10
306.676370761542
 20
59.85848634979143
 30
156.0
 10
302.1413769135808
 20
59.81548857954934
 30
156.0
 10
297.60641129724513
 20
59.769639542074984
 30
156.0
 10
293.07148234740066
 20
59.72039653873654
 30
156.0
 10
288.5366022625889
 20
59.66709222029829
 30
156.0
 10
284.0017876395794
 20
59.60887773319023
 30
156.0
 10
275.48608601636164
 20
59.48817295944026
 30
156.0
 10
271.5051983143174
 20
59.42707284828799
 30
156.0
 10
267.5243955555349
 20
59.36052173093878
 30
156.0
 10
263.5436950947469
 20
59.28755122151862
 30
156.0
 10
259.5631345500127
 20
59.20696182070754
 30
156.0
 10
255.58277590535096
 20
59.117147977213406
 30
156.0
 10
251.60270719998152
 20
59.01600760438689
 30
156.0
 10
245.98767911086813
 20
58.852562827278184
 30
156.0
 10
244.35237348042688
 20
58.802470420938896
 30
156.0
 10
242.7171517944599
 20
58.74968972492379
 30
156.0
 10
241.08202974844454
 20
58.693890787776674
 30
156.0
 10
239.44702553115542
 20
58.6347466214826
 30
156.0
 10
237.81215881622393
 20
58.57197262522647
 30
156.0
 10
236.1774528056586
 20
58.50527179462551
 30
156.0
 10
232.9341777572007
 20
58.36421960603186
 30
156.0
 10
231.38068691339615
 20
58.2924102769587
 30
156.0
 10
229.8802108697763
 20
58.21877043056009
 30
156.0
 10
228.43062080952953
 20
58.1433124209847
 30
156.0
 10
227.02991498761827
 20
58.066048817260345
 30
156.0
 10
225.67621869522802
 20
57.98699296536893
 30
156.0
 10
224.36778422421594
 20
57.906159550321085
 30
156.0
 10
221.17034192820645
 20
57.697358014658974
 30
156.0
 10
219.23858745599327
 20
57.560442654503305
 30
156.0
 10
217.30769260715277
 20
57.411293668732945
 30
156.0
 10
215.377814025137
 20
57.24797656821178
 30
156.0
 10
213.4492980771954
 20
57.068125536668745
 30
156.0
 10
211.52274292951
 20
56.86838886804474
 30
156.0
 10
209.59899187880004
 20
56.6444452753488
 30
156.0
 10
206.58639673011106
 20
56.242716921400216
 30
156.0
 10
205.49512713998652
 20
56.08662960071088
 30
156.0
 10
204.40553075428224
 20
55.91874213537793
 30
156.0
 10
203.3178962474536
 20
55.73719095486314
 30
156.0
 10
202.23283693168122
 20
55.53974256267003
 30
156.0
 10
201.15143581806353
 20
55.32313742053646
 30
156.0
 10
200.07519533295832
 20
55.0832765265001
 30
156.0
 10
198.6543514344085
 20
54.72289443800554
 30
156.0
 10
198.31335632460699
 20
54.6328052398813
 30
156.0
 10
197.9834105453089
 20
54.54198566866093
 30
156.0
 10
197.66428578790277
 20
54.45044252264583
 30
156.0
 10
197.35576072839152
 20
54.358182617103736
 30
156.0
 10
197.05762102739297
 20
54.265212784268826
 30
156.0
 10
196.7696593301396
 20
54.17153987334169
 30
156.0
 10
196.17894329943783
 20
53.97100552278212
 30
156.0
 10
195.8788377283878
 20
53.86395878271318
 30
156.0
 10
195.59107322236713
 20
53.75604071452096
 30
156.0
 10
195.31537328300305
 20
53.647261131784276
 30
156.0
 10
195.05147015272982
 20
53.53762968560217
 30
156.0
 10
194.79910472300676
 20
53.427156072773954
 30
156.0
 10
194.55802644253663
 20
53.31585024397916
 30
156.0
 10
194.0339064378856
 20
53.060372640485106
 30
156.0
 10
193.74428560727532
 20
52.909057816684296
 30
156.0
 10
193.45939136994193
 20
52.74852824389575
 30
156.0
 10
193.180161421092
 20
52.57745594268497
 30
156.0
 10
192.90827054193008
 20
52.39436535448282
 30
156.0
 10
192.646140013454
 20
52.197614431759966
 30
156.0
 10
192.39701750207385
 20
51.98527741571631
 30
156.0
 10
191.99269391173235
 20
51.58317282021407
 30
156.0
 10
191.82962897683524
 20
51.40137022069851
 30
156.0
 10
191.67835786731132
 20
51.208759688441084
 30
156.0
 10
191.54175105060082
 20
51.00504176604473
 30
156.0
 10
191.42303377137614
 20
50.790347165453
 30
156.0
 10
191.32539457470483
 20
50.56543707799718
 30
156.0
 10
191.25131866326387
 20
50.33205874230837
 30
156.0
 10
191.14685866798624
 20
49.83139494852381
 30
156.0
 10
191.12160187146736
 20
49.56341744421601
 30
156.0
 10
191.12662487900548
 20
49.293988852719615
 30
156.0
 10
191.15954325769982
 20
49.02636506682956
 30
156.0
 10
191.21665179470298
 20
48.762908040572476
 30
156.0
 10
191.29402890938567
 20
48.50520505405391
 30
156.0
 10
191.38810965763983
 20
48.254118849644534
 30
156.0
 10
191.5760329866434
 20
47.82860420572244
 30
156.0
 10
191.66566031422246
 20
47.64654426688761
 30
156.0
 10
191.76467757712877
 20
47.46374671923604
 30
156.0
 10
191.87238515927112
 20
47.28005099441468
 30
156.0
 10
191.98872439137963
 20
47.09563170160552
 30
156.0
 10
192.1137877761693
 20
46.91068960369896
 30
156.0
 10
192.2472188158426
 20
46.72511359927568
 30
156.0
 10
192.55632484404325
 20
46.31938849673833
 30
156.0
 10
192.7306032659038
 20
46.10512056148892
 30
156.0
 10
192.91093616563344
 20
45.89581745825902
 30
156.0
 10
193.09657922693472
 20
45.69117827638191
 30
156.0
 10
193.28692339999688
 20
45.49093984665312
 30
156.0
 10
193.48147013361645
 20
45.29485491545895
 30
156.0
 10
193.6798187823244
 20
45.10268074765358
 30
156.0
 10
194.02835921748022
 20
44.77718350297774
 30
156.0
 10
194.1768638755725
 20
44.642161544918295
 30
156.0
 10
194.32706004697224
 20
44.509020125680905
 30
156.0
 10
194.4788404524095
 20
44.377679405943944
 30
156.0
 10
194.6321084144822
 20
44.24806899493623
 30
156.0
 10
194.78677629885146
 20
44.120125940987805
 30
156.0
 10
194.9427643855314
 20
43.99379327494128
 30
156.0
 10
195.10000002335244
 20
43.86901891994057
 30
156.0
  0
SPLINE
  5
125
330
17
100
AcDbEntity
  8
0
100
AcDbSpline
 70
0
 71
4
 72
10
 73
5
 74
0
 40
0.0
 40
0.0
 40
0.0
 40
0.0
 40
0.0
 40
0.5376321634899104
 40
0.5376321634899104
 40
0.5376321634899104
 40
0.5376321634899104
 40
0.5376321634899104
 10
1807.0999994077938
 20
61.90326916125839
 30
156.0
 10
1807.6108180609235
 20
61.98542625258834
 30
156.0
 10
1808.1216124647021
 20
62.06774913789604
 30
156.0
 10
1808.6323825375744
 20
62.150238053985845
 30
156.0
 10
1809.1431281976652
 20
62.232893237366554
 30
156.0
  0
LINE
  5
126
330
17
100
AcDbEntity
  8
0
100
AcDbLine
 10
1807.1
 20
61.90326925700781
 30
156.0
 11
1807.1
 21
58.78852904409105
 31
156.0
  0
SPLINE
  5
127
330
17
100
AcDbEntity
  8
0
100
AcDbSpline
 70
0
 71
8
 72
46
 73
37
 74
0
 40
0.0
 40
0.0
 40
0.0
 40
0.0
 40
0.0
 40
0.0
 40
0.0
 40
0.0
 40
0.0
 40
0.2127794877117994
 40
0.2127794877117994
 40
0.2127794877117994
 40
0.2127794877117994
 40
0.2127794877117994
 40
0.2127794877117994
 40
0.2127794877117994
 40
0.5754577124439747
 40
0.5754577124439747
 40
0.5754577124439747
 40
0.5754577124439747
 40
0.5754577124439747
 40
0.5754577124439747
 40
0.5754577124439747
 40
0.7633124067530334
 40
0.7633124067530334
 40
0.7633124067530334
 40
0.7633124067530334
 40
0.7633124067530334
 40
0.7633124067530334
 40
0.7633124067530334
 40
0.9220265956444873
 40
0.9220265956444873
 40
0.9220265956444873
 40
0.9220265956444873
 40
0.9220265956444873
 40
0.9220265956444873
 40
0.9220265956444873
 40
1.0
 40
1.0
 40
1.0
 40
1.0
 40
1.0
 40
1.0
 40
1.0
 40
1.0
 40
1.0
 10
1784.9000000010737
 20
46.15812372006951
 30
156.0
 10
1785.5345032782675
 20
46.413184877489016
 30
156.0
 10
1786.1678843176528
 20
46.67103065606776
 30
156.0
 10
1786.800082537426
 20
46.93176841642995
 30
156.0
 10
1787.431031339363
 20
47.19551384765716
 30
156.0
 10
1788.0606575798793
 20
47.462392255012766
 30
156.0
 10
1788.6888808808862
 20
47.73254023853463
 30
156.0
 10
1789.3156126919412
 20
48.00610797729058
 30
156.0
 10
1791.0062971425737
 20
48.75566618834508
 30
156.0
 10
1792.0671399223563
 20
49.23845347318576
 30
156.0
 10
1793.1228568295526
 20
49.73247672061594
 30
156.0
 10
1794.172867738462
 20
50.23868996744872
 30
156.0
 10
1795.2164050548492
 20
50.75821333544462
 30
156.0
 10
1796.2524953758204
 20
51.29236979967667
 30
156.0
 10
1797.2798976208458
 20
51.842808192411376
 30
156.0
 10
1798.8237303860983
 20
52.70655815831338
 30
156.0
 10
1799.3477098819828
 20
53.006257102767485
 30
156.0
 10
1799.8686524944228
 20
53.31124414665548
 30
156.0
 10
1800.3862735748519
 20
53.621877875969574
 30
156.0
 10
1800.9002262661909
 20
53.93855847354217
 30
156.0
 10
1801.4100901152083
 20
54.26174615174583
 30
156.0
 10
1801.9153504277792
 20
54.5919941835457
 30
156.0
 10
1802.8378222320302
 20
55.21556708291172
 30
156.0
 10
1803.2564759709767
 20
55.50663379174426
 30
156.0
 10
1803.6709857577578
 20
55.80364275685467
 30
156.0
 10
1804.080887690453
 20
56.10707630507749
 30
156.0
 10
1804.4855746101166
 20
56.41748164892094
 30
156.0
 10
1804.8842808282488
 20
56.73549071607784
 30
156.0
 10
1805.2760377541506
 20
57.061877383816984
 30
156.0
 10
1805.8479826183839
 20
57.56268110539608
 30
156.0
 10
1806.0343929716216
 20
57.72992183985146
 30
156.0
 10
1806.2186487986296
 20
57.899549039454385
 30
156.0
 10
1806.400570498675
 20
58.07169702607134
 30
156.0
 10
1806.5799436589614
 20
58.24650698434058
 30
156.0
 10
1806.7565150628416
 20
58.42413098770151
 30
156.0
 10
1806.9299855919846
 20
58.60473902437444
 30
156.0
 10
1807.1000000224853
 20
58.78852902329098
 30
156.0
  0
LINE
  5
128
330
17
100
AcDbEntity
  8
0
100
AcDbLine
 10
1784.9
 20
58.45147903317143
 30
156.0
 11
1784.9
 21
46.1581237227401
 31
156.0
  0
SPLINE
  5
129
330
17
100
AcDbEntity
  8
0
100
AcDbSpline
 70
0
 71
4
 72
10
 73
5
 74
0
 40
0.0
 40
0.0
 40
0.0
 40
0.0
 40
0.0
 40
1.0
 40
1.0
 40
1.0
 40
1.0
 40
1.0
 10
1781.0999994068807
 20
57.88409162530388
 30
156.0
 10
1782.0501151536225
 20
58.02511089300953
 30
156.0
 10
1783.0001542644795
 20
58.1666808767859
 30
156.0
 10
1783.9501162440206
 20
58.30880310934892
 30
156.0
 10
1784.900000593056
 20
58.451479120355266
 30
156.0
  0
LINE
  5
12A
330
17
100
AcDbEntity
  8
0
100
AcDbLine
 10
1781.1
 20
57.88409171490052
 30
156.0
 11
1781.1
 21
44.67808201492224
 31
156.0
  0
SPLINE
  5
12B
330
17
100
AcDbEntity
  8
0
100
AcDbSpline
 70
0
 71
8
 72
18
 73
9
 74
0
 40
0.0
 40
0.0
 40
0.0
 40
0.0
 40
0.0
 40
0.0
 40
0.0
 40
0.0
 40
0.0
 40
0.0007512938028758903
 40
0.0007512938028758903
 40
0.0007512938028758903
 40
0.0007512938028758903
 40
0.0007512938028758903
 40
0.0007512938028758903
 40
0.0007512938028758903
 40
0.0007512938028758903
 40
0.0007512938028758903
 10
1779.913084422686
 20
44.23369198500802
 30
156.0
 10
1780.061610774453
 20
44.288810488720166
 30
156.0
 10
1780.2100917746914
 20
44.34404998898469
 30
156.0
 10
1780.358526986448
 20
44.399411434347996
 30
156.0
 10
1780.5069159597033
 20
44.45489578698756
 30
156.0
 10
1780.6552582311647
 20
44.51050402321708
 30
156.0
 10
1780.8035533240586
 20
44.5662371339872
 30
156.0
 10
1780.951800747923
 20
44.62209612538941
 30
156.0
 10
1781.0999999983949
 20
44.678082019170915
 30
156.0
  0
ENDSEC
  0
SECTION
  2
OBJECTS
  0
DICTIONARY
  5
A
330
0
100
AcDbDictionary
281
1
  3
ACAD_COLOR
350
B
  3
ACAD_GROUP
350
C
  3
ACAD_LAYOUT
350
D
  3
ACAD_MATERIAL
350
E
  3
ACAD_MLEADERSTYLE
350
F
  3
ACAD_MLINESTYLE
350
10
  3
ACAD_PLOTSETTINGS
350
11
  3
ACAD_PLOTSTYLENAME
350
12
  3
ACAD_SCALELIST
350
14
  3
ACAD_TABLESTYLE
350
15
  3
ACAD_VISUALSTYLE
350
16
  3
EZDXF_META
350
2D
  0
DICTIONARY
  5
B
330
A
100
AcDbDictionary
281
1
  0
DICTIONARY
  5
C
330
A
100
AcDbDictionary
281
1
  0
DICTIONARY
  5
D
330
A
100
AcDbDictionary
281
1
  3
Model
350
1A
  3
Layout1
350
1E
  0
DICTIONARY
  5
E
330
A
100
AcDbDictionary
281
1
  3
ByBlock
350
1F
  3
ByLayer
350
20
  3
Global
350
21
  0
DICTIONARY
  5
F
330
A
100
AcDbDictionary
281
1
  3
Standard
350
2C
  0
DICTIONARY
  5
10
330
A
100
AcDbDictionary
281
1
  3
Standard
350
22
  0
DICTIONARY
  5
11
330
A
100
AcDbDictionary
281
1
  0
ACDBDICTIONARYWDFLT
  5
12
330
A
100
AcDbDictionary
281
1
  3
Normal
350
13
100
AcDbDictionaryWithDefault
340
13
  0
ACDBPLACEHOLDER
  5
13
330
12
  0
DICTIONARY
  5
14
330
A
100
AcDbDictionary
281
1
  0
DICTIONARY
  5
15
330
A
100
AcDbDictionary
281
1
  0
DICTIONARY
  5
16
330
A
100
AcDbDictionary
281
1
  0
LAYOUT
  5
1A
330
D
100
AcDbPlotSettings
  1

  2
Adobe PDF
  4
A3
  6

 40
7.5
 41
20.0
 42
7.5
 43
20.0
 44
420.0
 45
297.0
 46
0.0
 47
0.0
 48
0.0
 49
0.0
140
0.0
141
0.0
142
1.0
143
1.0
 70
1024
 72
1
 73
1
 74
5
  7

 75
16
 76
0
 77
2
 78
300
147
1.0
148
0.0
149
0.0
100
AcDbLayout
  1
Model
 70
1
 71
0
 10
0.0
 20
0.0
 11
420.0
 21
297.0
 12
0.0
 22
0.0
 32
0.0
 14
1e+20
 24
1e+20
 34
1e+20
 15
-1e+20
 25
-1e+20
 35
-1e+20
146
0.0
 13
0.0
 23
0.0
 33
0.0
 16
1.0
 26
0.0
 36
0.0
 17
0.0
 27
1.0
 37
0.0
 76
1
330
17
  0
LAYOUT
  5
1E
330
D
100
AcDbPlotSettings
  1

  2
Adobe PDF
  4
A3
  6

 40
7.5
 41
20.0
 42
7.5
 43
20.0
 44
420.0
 45
297.0
 46
0.0
 47
0.0
 48
0.0
 49
0.0
140
0.0
141
0.0
142
1.0
143
1.0
 70
0
 72
1
 73
1
 74
5
  7

 75
16
 76
0
 77
2
 78
300
147
1.0
148
0.0
149
0.0
100
AcDbLayout
  1
Layout1
 70
1
 71
1
 10
0.0
 20
0.0
 11
420.0
 21
297.0
 12
0.0
 22
0.0
 32
0.0
 14
1e+20
 24
1e+20
 34
1e+20
 15
-1e+20
 25
-1e+20
 35
-1e+20
146
0.0
 13
0.0
 23
0.0
 33
0.0
 16
1.0
 26
0.0
 36
0.0
 17
0.0
 27
1.0
 37
0.0
 76
1
330
1B
  0
MATERIAL
  5
1F
102
{ACAD_REACTORS
330
E
102
}
330
E
100
AcDbMaterial
  1
ByBlock
  2

 70
0
 40
1.0
 71
1
 41
1.0
 91
-1023410177
 42
1.0
 72
1
  3

 73
1
 74
1
 75
1
 44
0.5
 73
0
 45
1.0
 46
1.0
 77
1
  4

 78
1
 79
1
170
1
 48
1.0
171
1
  6

172
1
173
1
174
1
140
1.0
141
1.0
175
1
  7

176
1
177
1
178
1
143
1.0
179
1
  8

270
1
271
1
272
1
145
1.0
146
1.0
273
1
  9

274
1
275
1
276
1
 42
1.0
 72
1
  3

 73
1
 74
1
 75
1
 94
63
  0
MATERIAL
  5
20
102
{ACAD_REACTORS
330
E
102
}
330
E
100
AcDbMaterial
  1
ByLayer
  2

 70
0
 40
1.0
 71
1
 41
1.0
 91
-1023410177
 42
1.0
 72
1
  3

 73
1
 74
1
 75
1
 44
0.5
 73
0
 45
1.0
 46
1.0
 77
1
  4

 78
1
 79
1
170
1
 48
1.0
171
1
  6

172
1
173
1
174
1
140
1.0
141
1.0
175
1
  7

176
1
177
1
178
1
143
1.0
179
1
  8

270
1
271
1
272
1
145
1.0
146
1.0
273
1
  9

274
1
275
1
276
1
 42
1.0
 72
1
  3

 73
1
 74
1
 75
1
 94
63
  0
MATERIAL
  5
21
102
{ACAD_REACTORS
330
E
102
}
330
E
100
AcDbMaterial
  1
Global
  2

 70
0
 40
1.0
 71
1
 41
1.0
 91
-1023410177
 42
1.0
 72
1
  3

 73
1
 74
1
 75
1
 44
0.5
 73
0
 45
1.0
 46
1.0
 77
1
  4

 78
1
 79
1
170
1
 48
1.0
171
1
  6

172
1
173
1
174
1
140
1.0
141
1.0
175
1
  7

176
1
177
1
178
1
143
1.0
179
1
  8

270
1
271
1
272
1
145
1.0
146
1.0
273
1
  9

274
1
275
1
276
1
 42
1.0
 72
1
  3

 73
1
 74
1
 75
1
 94
63
  0
MLINESTYLE
  5
22
102
{ACAD_REACTORS
330
10
102
}
330
10
100
AcDbMlineStyle
  2
Standard
 70
0
  3

 62
256
 51
90.0
 52
90.0
 71
2
 49
0.5
 62
256
  6
BYLAYER
 49
-0.5
 62
256
  6
BYLAYER
  0
MLEADERSTYLE
  5
2C
102
{ACAD_REACTORS
330
F
102
}
330
F
100
AcDbMLeaderStyle
179
2
170
2
171
1
172
0
 90
2
 40
0.0
 41
0.0
173
1
 91
-1056964608
 92
-2
290
1
 42
2.0
291
1
 43
8.0
  3
Standard
 44
4.0
300

342
29
174
1
175
1
176
0
178
1
 93
-1056964608
 45
4.0
292
0
297
0
 46
4.0
 94
-1056964608
 47
1.0
 49
1.0
140
1.0
294
1
141
0.0
177
0
142
1.0
295
0
296
0
143
3.75
271
0
272
9
273
9
  0
DICTIONARY
  5
2D
330
A
100
AcDbDictionary
280
1
281
1
  3
CREATED_BY_EZDXF
350
2E
  3
WRITTEN_BY_EZDXF
350
12E
  0
DICTIONARYVAR
  5
2E
330
2D
100
DictionaryVariables
280
0
  1
0.17 @ 2022-02-15T16:54:27.080064+00:00
  0
DICTIONARYVAR
  5
12E
330
2D
100
DictionaryVariables
280
0
  1
0.17 @ 2022-02-15T16:54:27.382908+00:00
  0
ENDSEC
  0
EOF
