  0
SECTION
  2
HEADER
  9
$ACADVER
  1
AC1027
  9
$ACADMAINTVER
 70
105
  9
$DWGCODEPAGE
  3
ANSI_1252
  9
$LASTSAVEDBY
  1
ezdxf
  9
$REQUIREDVERSIONS
160
0
  9
$INSBASE
 10
0.0
 20
0.0
 30
0.0
  9
$EXTMIN
 10
1e+20
 20
1e+20
 30
1e+20
  9
$EXTMAX
 10
-1e+20
 20
-1e+20
 30
-1e+20
  9
$LIMMIN
 10
0.0
 20
0.0
  9
$LIMMAX
 10
420.0
 20
297.0
  9
$ORTHOMODE
 70
0
  9
$REGENMODE
 70
1
  9
$FILLMODE
 70
1
  9
$QTEXTMODE
 70
0
  9
$MIRRTEXT
 70
1
  9
$LTSCALE
 40
1.0
  9
$ATTMODE
 70
1
  9
$TEXTSIZE
 40
2.5
  9
$TRACEWID
 40
1.0
  9
$TEXTSTYLE
  7
Standard
  9
$CLAYER
  8
0
  9
$CELTYPE
  6
ByLayer
  9
$CECOLOR
 62
256
  9
$CELTSCALE
 40
1.0
  9
$DISPSILH
 70
0
  9
$DIMSCALE
 40
1.0
  9
$DIMASZ
 40
2.5
  9
$DIMEXO
 40
0.625
  9
$DIMDLI
 40
3.75
  9
$DIMRND
 40
0.0
  9
$DIMDLE
 40
0.0
  9
$DIMEXE
 40
1.25
  9
$DIMTP
 40
0.0
  9
$DIMTM
 40
0.0
  9
$DIMTXT
 40
2.5
  9
$DIMCEN
 40
2.5
  9
$DIMTSZ
 40
0.0
  9
$DIMTOL
 70
0
  9
$DIMLIM
 70
0
  9
$DIMTIH
 70
0
  9
$DIMTOH
 70
0
  9
$DIMSE1
 70
0
  9
$DIMSE2
 70
0
  9
$DIMTAD
 70
1
  9
$DIMZIN
 70
8
  9
$DIMBLK
  1

  9
$DIMASO
 70
1
  9
$DIMSHO
 70
1
  9
$DIMPOST
  1

  9
$DIMAPOST
  1

  9
$DIMALT
 70
0
  9
$DIMALTD
 70
3
  9
$DIMALTF
 40
0.03937007874
  9
$DIMLFAC
 40
1.0
  9
$DIMTOFL
 70
1
  9
$DIMTVP
 40
0.0
  9
$DIMTIX
 70
0
  9
$DIMSOXD
 70
0
  9
$DIMSAH
 70
0
  9
$DIMBLK1
  1

  9
$DIMBLK2
  1

  9
$DIMSTYLE
  2
ISO-25
  9
$DIMCLRD
 70
0
  9
$DIMCLRE
 70
0
  9
$DIMCLRT
 70
0
  9
$DIMTFAC
 40
1.0
  9
$DIMGAP
 40
0.625
  9
$DIMJUST
 70
0
  9
$DIMSD1
 70
0
  9
$DIMSD2
 70
0
  9
$DIMTOLJ
 70
0
  9
$DIMTZIN
 70
8
  9
$DIMALTZ
 70
0
  9
$DIMALTTZ
 70
0
  9
$DIMUPT
 70
0
  9
$DIMDEC
 70
2
  9
$DIMTDEC
 70
2
  9
$DIMALTU
 70
2
  9
$DIMALTTD
 70
3
  9
$DIMTXSTY
  7
Standard
  9
$DIMAUNIT
 70
0
  9
$DIMADEC
 70
0
  9
$DIMALTRND
 40
0.0
  9
$DIMAZIN
 70
0
  9
$DIMDSEP
 70
44
  9
$DIMATFIT
 70
3
  9
$DIMFRAC
 70
0
  9
$DIMLDRBLK
  1

  9
$DIMLUNIT
 70
2
  9
$DIMLWD
 70
-2
  9
$DIMLWE
 70
-2
  9
$DIMTMOVE
 70
0
  9
$DIMFXL
 40
1.0
  9
$DIMFXLON
 70
0
  9
$DIMJOGANG
 40
0.785398163397
  9
$DIMTFILL
 70
0
  9
$DIMTFILLCLR
 70
0
  9
$DIMARCSYM
 70
0
  9
$DIMLTYPE
  6

  9
$DIMLTEX1
  6

  9
$DIMLTEX2
  6

  9
$DIMTXTDIRECTION
 70
0
  9
$LUNITS
 70
2
  9
$LUPREC
 70
4
  9
$SKETCHINC
 40
1.0
  9
$FILLETRAD
 40
10.0
  9
$AUNITS
 70
0
  9
$AUPREC
 70
2
  9
$MENU
  1
.
  9
$ELEVATION
 40
0.0
  9
$PELEVATION
 40
0.0
  9
$THICKNESS
 40
0.0
  9
$LIMCHECK
 70
0
  9
$CHAMFERA
 40
0.0
  9
$CHAMFERB
 40
0.0
  9
$CHAMFERC
 40
0.0
  9
$CHAMFERD
 40
0.0
  9
$SKPOLY
 70
0
  9
$TDCREATE
 40
2459626.746215278
  9
$TDUCREATE
 40
2458532.153996898
  9
$TDUPDATE
 40
2459626.746215278
  9
$TDUUPDATE
 40
2458532.1544311
  9
$TDINDWG
 40
0.0
  9
$TDUSRTIMER
 40
0.0
  9
$USRTIMER
 70
1
  9
$ANGBASE
 50
0.0
  9
$ANGDIR
 70
0
  9
$PDMODE
 70
0
  9
$PDSIZE
 40
0.0
  9
$PLINEWID
 40
0.0
  9
$SPLFRAME
 70
0
  9
$SPLINETYPE
 70
6
  9
$SPLINESEGS
 70
8
  9
$HANDSEED
  5
F4
  9
$SURFTAB1
 70
6
  9
$SURFTAB2
 70
6
  9
$SURFTYPE
 70
6
  9
$SURFU
 70
6
  9
$SURFV
 70
6
  9
$UCSBASE
  2

  9
$UCSNAME
  2

  9
$UCSORG
 10
0.0
 20
0.0
 30
0.0
  9
$UCSXDIR
 10
1.0
 20
0.0
 30
0.0
  9
$UCSYDIR
 10
0.0
 20
1.0
 30
0.0
  9
$UCSORTHOREF
  2

  9
$UCSORTHOVIEW
 70
0
  9
$UCSORGTOP
 10
0.0
 20
0.0
 30
0.0
  9
$UCSORGBOTTOM
 10
0.0
 20
0.0
 30
0.0
  9
$UCSORGLEFT
 10
0.0
 20
0.0
 30
0.0
  9
$UCSORGRIGHT
 10
0.0
 20
0.0
 30
0.0
  9
$UCSORGFRONT
 10
0.0
 20
0.0
 30
0.0
  9
$UCSORGBACK
 10
0.0
 20
0.0
 30
0.0
  9
$PUCSBASE
  2

  9
$PUCSNAME
  2

  9
$PUCSORG
 10
0.0
 20
0.0
 30
0.0
  9
$PUCSXDIR
 10
1.0
 20
0.0
 30
0.0
  9
$PUCSYDIR
 10
0.0
 20
1.0
 30
0.0
  9
$PUCSORTHOREF
  2

  9
$PUCSORTHOVIEW
 70
0
  9
$PUCSORGTOP
 10
0.0
 20
0.0
 30
0.0
  9
$PUCSORGBOTTOM
 10
0.0
 20
0.0
 30
0.0
  9
$PUCSORGLEFT
 10
0.0
 20
0.0
 30
0.0
  9
$PUCSORGRIGHT
 10
0.0
 20
0.0
 30
0.0
  9
$PUCSORGFRONT
 10
0.0
 20
0.0
 30
0.0
  9
$PUCSORGBACK
 10
0.0
 20
0.0
 30
0.0
  9
$USERI1
 70
0
  9
$USERI2
 70
0
  9
$USERI3
 70
0
  9
$USERI4
 70
0
  9
$USERI5
 70
0
  9
$USERR1
 40
0.0
  9
$USERR2
 40
0.0
  9
$USERR3
 40
0.0
  9
$USERR4
 40
0.0
  9
$USERR5
 40
0.0
  9
$WORLDVIEW
 70
1
  9
$SHADEDGE
 70
3
  9
$SHADEDIF
 70
70
  9
$TILEMODE
 70
1
  9
$MAXACTVP
 70
64
  9
$PINSBASE
 10
0.0
 20
0.0
 30
0.0
  9
$PLIMCHECK
 70
0
  9
$PEXTMIN
 10
1e+20
 20
1e+20
 30
1e+20
  9
$PEXTMAX
 10
-1e+20
 20
-1e+20
 30
-1e+20
  9
$PLIMMIN
 10
0.0
 20
0.0
  9
$PLIMMAX
 10
420.0
 20
297.0
  9
$UNITMODE
 70
0
  9
$VISRETAIN
 70
1
  9
$PLINEGEN
 70
0
  9
$PSLTSCALE
 70
1
  9
$TREEDEPTH
 70
3020
  9
$CMLSTYLE
  2
Standard
  9
$CMLJUST
 70
0
  9
$CMLSCALE
 40
20.0
  9
$PROXYGRAPHICS
 70
1
  9
$MEASUREMENT
 70
1
  9
$CELWEIGHT
370
-1
  9
$ENDCAPS
280
0
  9
$JOINSTYLE
280
0
  9
$LWDISPLAY
290
0
  9
$INSUNITS
 70
6
  9
$HYPERLINKBASE
  1

  9
$STYLESHEET
  1

  9
$XEDIT
290
1
  9
$CEPSNTYPE
380
0
  9
$PSTYLEMODE
290
1
  9
$FINGERPRINTGUID
  2
{B06AA21A-A289-4B12-89CC-73F7EBF7874D}
  9
$VERSIONGUID
  2
{A1911CB6-5636-47CC-BC6A-C01342526BDA}
  9
$EXTNAMES
290
1
  9
$PSVPSCALE
 40
0.0
  9
$OLESTARTUP
290
0
  9
$SORTENTS
280
127
  9
$INDEXCTL
280
0
  9
$HIDETEXT
280
1
  9
$XCLIPFRAME
280
0
  9
$HALOGAP
280
0
  9
$OBSCOLOR
 70
257
  9
$OBSLTYPE
280
0
  9
$INTERSECTIONDISPLAY
280
0
  9
$INTERSECTIONCOLOR
 70
257
  9
$DIMASSOC
280
2
  9
$PROJECTNAME
  1

  9
$CAMERADISPLAY
290
0
  9
$LENSLENGTH
 40
50.0
  9
$CAMERAHEIGHT
 40
0.0
  9
$STEPSPERSEC
 40
24.0
  9
$STEPSIZE
 40
100.0
  9
$3DDWFPREC
 40
2.0
  9
$PSOLWIDTH
 40
0.005
  9
$PSOLHEIGHT
 40
0.08
  9
$LOFTANG1
 40
1.570796326795
  9
$LOFTANG2
 40
1.570796326795
  9
$LOFTMAG1
 40
0.0
  9
$LOFTMAG2
 40
0.0
  9
$LOFTPARAM
 70
7
  9
$LOFTNORMALS
280
1
  9
$LATITUDE
 40
37.795
  9
$LONGITUDE
 40
-122.394
  9
$NORTHDIRECTION
 40
0.0
  9
$TIMEZONE
 70
-8000
  9
$LIGHTGLYPHDISPLAY
280
1
  9
$TILEMODELIGHTSYNCH
280
1
  9
$CMATERIAL
347
20
  9
$SOLIDHIST
280
0
  9
$SHOWHIST
280
1
  9
$DWFFRAME
280
2
  9
$DGNFRAME
280
2
  9
$REALWORLDSCALE
290
1
  9
$INTERFERECOLOR
 62
256
  9
$CSHADOW
280
0
  9
$SHADOWPLANELOCATION
 40
0.0
  0
ENDSEC
  0
SECTION
  2
CLASSES
  0
CLASS
  1
ACDBDICTIONARYWDFLT
  2
AcDbDictionaryWithDefault
  3
ObjectDBX Classes
 90
0
 91
0
280
0
281
0
  0
CLASS
  1
SUN
  2
AcDbSun
  3
SCENEOE
 90
1153
 91
0
280
0
281
0
  0
CLASS
  1
VISUALSTYLE
  2
AcDbVisualStyle
  3
ObjectDBX Classes
 90
4095
 91
0
280
0
281
0
  0
CLASS
  1
MATERIAL
  2
AcDbMaterial
  3
ObjectDBX Classes
 90
1153
 91
0
280
0
281
0
  0
CLASS
  1
SCALE
  2
AcDbScale
  3
ObjectDBX Classes
 90
1153
 91
0
280
0
281
0
  0
CLASS
  1
TABLESTYLE
  2
AcDbTableStyle
  3
ObjectDBX Classes
 90
4095
 91
0
280
0
281
0
  0
CLASS
  1
MLEADERSTYLE
  2
AcDbMLeaderStyle
  3
ACDB_MLEADERSTYLE_CLASS
 90
4095
 91
0
280
0
281
0
  0
CLASS
  1
DICTIONARYVAR
  2
AcDbDictionaryVar
  3
ObjectDBX Classes
 90
0
 91
0
280
0
281
0
  0
CLASS
  1
CELLSTYLEMAP
  2
AcDbCellStyleMap
  3
ObjectDBX Classes
 90
1152
 91
0
280
0
281
0
  0
CLASS
  1
MENTALRAYRENDERSETTINGS
  2
AcDbMentalRayRenderSettings
  3
SCENEOE
 90
1024
 91
0
280
0
281
0
  0
CLASS
  1
ACDBDETAILVIEWSTYLE
  2
AcDbDetailViewStyle
  3
ObjectDBX Classes
 90
1025
 91
0
280
0
281
0
  0
CLASS
  1
ACDBSECTIONVIEWSTYLE
  2
AcDbSectionViewStyle
  3
ObjectDBX Classes
 90
1025
 91
0
280
0
281
0
  0
CLASS
  1
RASTERVARIABLES
  2
AcDbRasterVariables
  3
ISM
 90
0
 91
0
280
0
281
0
  0
CLASS
  1
ACDBPLACEHOLDER
  2
AcDbPlaceHolder
  3
ObjectDBX Classes
 90
0
 91
0
280
0
281
0
  0
CLASS
  1
LAYOUT
  2
AcDbLayout
  3
ObjectDBX Classes
 90
0
 91
0
280
0
281
0
  0
ENDSEC
  0
SECTION
  2
TABLES
  0
TABLE
  2
VPORT
  5
8
330
0
100
AcDbSymbolTable
 70
1
  0
VPORT
  5
23
330
8
100
AcDbSymbolTableRecord
100
AcDbViewportTableRecord
  2
*Active
 70
0
 10
0.0
 20
0.0
 11
1.0
 21
1.0
 12
344.2
 22
148.5
 13
0.0
 23
0.0
 14
0.5
 24
0.5
 15
0.5
 25
0.5
 16
0.0
 26
0.0
 36
1.0
 17
0.0
 27
0.0
 37
0.0
 40
297.0
 41
1.34
 42
50.0
 43
0.0
 44
0.0
 50
0.0
 51
0.0
 71
0
 72
1000
 73
1
 74
3
 75
0
 76
0
 77
0
 78
0
281
0
 65
0
146
0.0
  0
ENDTAB
  0
TABLE
  2
LTYPE
  5
2
330
0
100
AcDbSymbolTable
 70
3
  0
LTYPE
  5
24
330
2
100
AcDbSymbolTableRecord
100
AcDbLinetypeTableRecord
  2
ByBlock
 70
0
  3

 72
65
 73
0
 40
0.0
  0
LTYPE
  5
25
330
2
100
AcDbSymbolTableRecord
100
AcDbLinetypeTableRecord
  2
ByLayer
 70
0
  3

 72
65
 73
0
 40
0.0
  0
LTYPE
  5
26
330
2
100
AcDbSymbolTableRecord
100
AcDbLinetypeTableRecord
  2
Continuous
 70
0
  3

 72
65
 73
0
 40
0.0
  0
ENDTAB
  0
TABLE
  2
LAYER
  5
1
330
0
100
AcDbSymbolTable
 70
2
  0
LAYER
  5
27
330
1
100
AcDbSymbolTableRecord
100
AcDbLayerTableRecord
  2
0
 70
0
 62
7
  6
Continuous
370
-3
390
13
347
21
  0
LAYER
  5
28
330
1
100
AcDbSymbolTableRecord
100
AcDbLayerTableRecord
  2
Defpoints
 70
0
 62
7
  6
Continuous
290
0
370
-3
390
13
347
21
  0
ENDTAB
  0
TABLE
  2
STYLE
  5
5
330
0
100
AcDbSymbolTable
 70
1
  0
STYLE
  5
29
330
5
100
AcDbSymbolTableRecord
100
AcDbTextStyleTableRecord
  2
Standard
 70
0
 40
0.0
 41
1.0
 50
0.0
 71
0
 42
2.5
  3
txt
  4

  0
ENDTAB
  0
TABLE
  2
VIEW
  5
7
330
0
100
AcDbSymbolTable
 70
0
  0
ENDTAB
  0
TABLE
  2
UCS
  5
6
330
0
100
AcDbSymbolTable
 70
0
  0
ENDTAB
  0
TABLE
  2
APPID
  5
3
330
0
100
AcDbSymbolTable
 70
3
  0
APPID
  5
2A
330
3
100
AcDbSymbolTableRecord
100
AcDbRegAppTableRecord
  2
ACAD
 70
0
  0
APPID
  5
F1
330
3
100
AcDbSymbolTableRecord
100
AcDbRegAppTableRecord
  2
HATCHBACKGROUNDCOLOR
 70
0
  0
APPID
  5
F2
330
3
100
AcDbSymbolTableRecord
100
AcDbRegAppTableRecord
  2
EZDXF
 70
0
  0
ENDTAB
  0
TABLE
  2
DIMSTYLE
  5
4
330
0
100
AcDbSymbolTable
 70
1
100
AcDbDimStyleTable
  0
DIMSTYLE
105
2B
330
4
100
AcDbSymbolTableRecord
100
AcDbDimStyleTableRecord
  2
Standard
 70
0
 40
1.0
 41
2.5
 42
0.625
 43
3.75
 44
1.25
 45
0.0
 46
0.0
 47
0.0
 48
0.0
 49
2.5
140
2.5
141
2.5
142
0.0
143
0.03937007874
144
1.0
145
0.0
146
1.0
147
0.625
148
0.0
 69
0
 70
0
 71
0
 72
0
 73
0
 74
0
 75
0
 76
0
 77
1
 78
8
 79
0
170
0
171
3
172
1
173
0
174
0
175
0
176
0
177
0
178
0
179
0
271
0
272
2
273
2
274
3
275
0
276
0
277
2
278
44
279
0
280
0
281
0
282
0
283
0
284
8
285
0
286
0
288
0
289
3
290
0
371
-2
372
-2
  0
ENDTAB
  0
TABLE
  2
BLOCK_RECORD
  5
9
330
0
100
AcDbSymbolTable
 70
2
  0
BLOCK_RECORD
  5
17
330
9
100
AcDbSymbolTableRecord
100
AcDbBlockTableRecord
  2
*Model_Space
340
1A
 70
0
280
1
281
0
  0
BLOCK_RECORD
  5
1B
330
9
100
AcDbSymbolTableRecord
100
AcDbBlockTableRecord
  2
*Paper_Space
340
1E
 70
0
280
1
281
0
  0
ENDTAB
  0
ENDSEC
  0
SECTION
  2
BLOCKS
  0
BLOCK
  5
18
330
17
100
AcDbEntity
  8
0
100
AcDbBlockBegin
  2
*Model_Space
 70
0
 10
0.0
 20
0.0
 30
0.0
  3
*Model_Space
  1

  0
ENDBLK
  5
19
330
17
100
AcDbEntity
  8
0
100
AcDbBlockEnd
  0
BLOCK
  5
1C
330
1B
100
AcDbEntity
  8
0
100
AcDbBlockBegin
  2
*Paper_Space
 70
0
 10
0.0
 20
0.0
 30
0.0
  3
*Paper_Space
  1

  0
ENDBLK
  5
1D
330
1B
100
AcDbEntity
  8
0
100
AcDbBlockEnd
  0
ENDSEC
  0
SECTION
  2
ENTITIES
  0
SPLINE
  5
2F
330
17
100
AcDbEntity
  8
0
100
AcDbSpline
 70
0
 71
8
 72
74
 73
65
 74
0
 40
0.0
 40
0.0
 40
0.0
 40
0.0
 40
0.0
 40
0.0
 40
0.0
 40
0.0
 40
0.0
 40
0.26524462631999957
 40
0.26524462631999957
 40
0.26524462631999957
 40
0.26524462631999957
 40
0.26524462631999957
 40
0.26524462631999957
 40
0.26524462631999957
 40
0.5285262121871435
 40
0.5285262121871435
 40
0.5285262121871435
 40
0.5285262121871435
 40
0.5285262121871435
 40
0.5285262121871435
 40
0.5285262121871435
 40
0.7541148843224853
 40
0.7541148843224853
 40
0.7541148843224853
 40
0.7541148843224853
 40
0.7541148843224853
 40
0.7541148843224853
 40
0.7541148843224853
 40
0.8688793613039633
 40
0.8688793613039633
 40
0.8688793613039633
 40
0.8688793613039633
 40
0.8688793613039633
 40
0.8688793613039633
 40
0.8688793613039633
 40
0.9272624303933522
 40
0.9272624303933522
 40
0.9272624303933522
 40
0.9272624303933522
 40
0.9272624303933522
 40
0.9272624303933522
 40
0.9272624303933522
 40
0.9580775987531371
 40
0.9580775987531371
 40
0.9580775987531371
 40
0.9580775987531371
 40
0.9580775987531371
 40
0.9580775987531371
 40
0.9580775987531371
 40
0.9773832007668427
 40
0.9773832007668427
 40
0.9773832007668427
 40
0.9773832007668427
 40
0.9773832007668427
 40
0.9773832007668427
 40
0.9773832007668427
 40
0.9878036203949608
 40
0.9878036203949608
 40
0.9878036203949608
 40
0.9878036203949608
 40
0.9878036203949608
 40
0.9878036203949608
 40
0.9878036203949608
 40
1.0
 40
1.0
 40
1.0
 40
1.0
 40
1.0
 40
1.0
 40
1.0
 40
1.0
 40
1.0
 10
1524.8999999999999
 20
16.348864854542658
 30
208.0
 10
1525.538591132655
 20
16.39453641870565
 30
208.0
 10
1526.1771736099495
 20
16.44030929100567
 30
208.0
 10
1526.8157472668402
 20
16.4861836619585
 30
208.0
 10
1527.454311902756
 20
16.532159720445197
 30
208.0
 10
1528.0928672732432
 20
16.5782376534423
 30
208.0
 10
1528.731413081623
 20
16.624417645752025
 30
208.0
 10
1529.369948970637
 20
16.670699879732453
 30
208.0
 10
1530.642274414341
 20
16.76312590361442
 30
208.0
 10
1531.2760639991443
 20
16.809268174000298
 30
208.0
 10
1531.9098429582004
 20
16.855511529029965
 30
208.0
 10
1532.543610779804
 20
16.901856138527446
 30
208.0
 10
1533.1773667561552
 20
16.948302159534407
 30
208.0
 10
1533.8111099452967
 20
16.994849733234002
 30
208.0
 10
1534.4448390896953
 20
17.041498978560327
 30
208.0
 10
1535.6215398194431
 20
17.12830784245948
 30
208.0
 10
1536.1645145638533
 20
17.168440334347498
 30
208.0
 10
1536.7074765442144
 20
17.208647577762644
 30
208.0
 10
1537.2504247000381
 20
17.24892962862312
 30
208.0
 10
1537.7933566331849
 20
17.289286443505326
 30
208.0
 10
1538.3362687100753
 20
17.329717886411967
 30
208.0
 10
1538.8791556113574
 20
17.370223693412257
 30
208.0
 10
1539.6981754316232
 20
17.431447514494316
 30
208.0
 10
1539.9743324042022
 20
17.45211071904287
 30
208.0
 10
1540.2504789027987
 20
17.472792923376353
 30
208.0
 10
1540.5266136177665
 20
17.493494046188772
 30
208.0
 10
1540.8027336054943
 20
17.514213882999893
 30
208.0
 10
1541.0788344067673
 20
17.53495211450726
 30
208.0
 10
1541.3549094905302
 20
17.555708263659206
 30
208.0
 10
1541.7713740219187
 20
17.58704927466835
 30
208.0
 10
1541.9117892058691
 20
17.59762135066153
 30
208.0
 10
1542.0521928907067
 20
17.608197702916875
 30
208.0
 10
1542.192583443433
 20
17.618778209680123
 30
208.0
 10
1542.3329572888342
 20
17.629362602358295
 30
208.0
 10
1542.4733090320171
 20
17.63995047442955
 30
208.0
 10
1542.6136307919876
 20
17.65054123046969
 30
208.0
 10
1542.8279495331267
 20
17.66672475175403
 30
208.0
 10
1542.901975508667
 20
17.672315994662704
 30
208.0
 10
1542.9759868185633
 20
17.677907562865432
 30
208.0
 10
1543.0499813776403
 20
17.68349929834261
 30
208.0
 10
1543.1239543417864
 20
17.68909083424906
 30
208.0
 10
1543.1978983414454
 20
17.69468161233043
 30
208.0
 10
1543.2718025471536
 20
17.70027081175691
 30
208.0
 10
1543.3919122492819
 20
17.70935674397077
 30
208.0
 10
1543.4381394329391
 20
17.712854249766327
 30
208.0
 10
1543.4843381460694
 20
17.716350160953436
 30
208.0
 10
1543.530504887346
 20
17.719844211515472
 30
208.0
 10
1543.5766311913017
 20
17.72333576014629
 30
208.0
 10
1543.6226863916156
 20
17.726822483125915
 30
208.0
 10
1543.6686370967782
 20
17.730301849402874
 30
208.0
 10
1543.7390886879152
 20
17.735637252916565
 30
208.0
 10
1543.7624881193701
 20
17.73740948492831
 30
208.0
 10
1543.785843399664
 20
17.739178507067024
 30
208.0
 10
1543.8097347558767
 20
17.74098827451904
 30
208.0
 10
1543.8340888765306
 20
17.74283325527372
 30
208.0
 10
1543.8581982803087
 20
17.744659864869778
 30
208.0
 10
1543.8807406847736
 20
17.74636790114159
 30
208.0
 10
1543.9221040819302
 20
17.749502172062147
 30
208.0
 10
1543.9287438926062
 20
17.749949364118645
 30
208.0
 10
1543.9345406784716
 20
17.750415364602162
 30
208.0
 10
1543.9424617816228
 20
17.75109389834505
 30
208.0
 10
1543.9491222174015
 20
17.7516291351178
 30
208.0
 10
1543.9502878768933
 20
17.751634219201907
 30
208.0
 10
1543.946378729431
 20
17.751209798962837
 30
208.0
 10
1543.9479720250981
 20
17.75146255642292
 30
208.0
  0
LINE
  5
30
330
17
100
AcDbEntity
  8
0
100
AcDbLine
 10
1524.9
 20
33.04803708750138
 30
208.0
 11
1524.9
 21
16.348864854542107
 31
208.0
  0
SPLINE
  5
31
330
17
100
AcDbEntity
  8
0
100
AcDbSpline
 70
0
 71
4
 72
10
 73
5
 74
0
 40
0.0
 40
0.0
 40
0.0
 40
0.0
 40
0.0
 40
1.0
 40
1.0
 40
1.0
 40
1.0
 40
1.0
 10
1521.0999994008246
 20
32.84674356673289
 30
208.0
 10
1522.05002013515
 20
32.896568087832826
 30
208.0
 10
1523.0000273220994
 20
32.94672416212145
 30
208.0
 10
1523.9500209290168
 20
32.99721333433459
 30
208.0
 10
1524.9000005991572
 20
33.04803711955621
 30
208.0
  0
LINE
  5
32
330
17
100
AcDbEntity
  8
0
100
AcDbLine
 10
1521.1
 20
32.84674359815708
 30
208.0
 11
1521.1
 21
16.078666011400323
 31
208.0
  0
SPLINE
  5
33
330
17
100
AcDbEntity
  8
0
100
AcDbSpline
 70
0
 71
5
 72
24
 73
18
 74
0
 40
0.0
 40
0.0
 40
0.0
 40
0.0
 40
0.0
 40
0.0
 40
0.24897342951476784
 40
0.24897342951476784
 40
0.24897342951476784
 40
0.24897342951476784
 40
0.4987029798504863
 40
0.4987029798504863
 40
0.4987029798504863
 40
0.4987029798504863
 40
0.7491317264382132
 40
0.7491317264382132
 40
0.7491317264382132
 40
0.7491317264382132
 40
1.0
 40
1.0
 40
1.0
 40
1.0
 40
1.0
 40
1.0
 10
1521.0999999999995
 20
16.078666011401076
 30
208.0
 10
1519.9947515594934
 20
16.000533914031667
 30
208.0
 10
1518.8894768851858
 20
15.922730952291095
 30
208.0
 10
1517.7841767511056
 20
15.845255811508814
 30
208.0
 10
1516.678851753633
 20
15.768107181462119
 30
208.0
 10
1514.464796093429
 20
15.614227087909859
 30
208.0
 10
1513.3560652906513
 20
15.53749760258699
 30
208.0
 10
1512.2473104485034
 20
15.461094045089911
 30
208.0
 10
1511.1385319863525
 20
15.385015155721732
 30
208.0
 10
1508.9178240895576
 20
15.23329214964464
 30
208.0
 10
1507.8058945289674
 20
15.157649846797316
 30
208.0
 10
1506.6939419366893
 20
15.082331553521323
 30
208.0
 10
1505.5819666392686
 20
15.007336058520599
 30
208.0
 10
1503.3560195528662
 20
14.857857242320998
 30
208.0
 10
1502.2420476871969
 20
14.783375049623531
 30
208.0
 10
1501.128053626625
 20
14.709214418874865
 30
208.0
 10
1500.01403764602
 20
14.635374191364992
 30
208.0
 10
1498.9
 20
14.56185323311176
 30
208.0
  0
LINE
  5
34
330
17
100
AcDbEntity
  8
0
100
AcDbLine
 10
1498.9
 20
31.749241199452236
 30
208.0
 11
1498.9
 21
14.561853233110245
 31
208.0
  0
SPLINE
  5
35
330
17
100
AcDbEntity
  8
0
100
AcDbSpline
 70
0
 71
4
 72
10
 73
5
 74
0
 40
0.0
 40
0.0
 40
0.0
 40
0.0
 40
0.0
 40
1.0
 40
1.0
 40
1.0
 40
1.0
 40
1.0
 10
1495.0999994007025
 20
31.574477437883534
 30
208.0
 10
1496.050017270514
 20
31.617701225869297
 30
208.0
 10
1497.0000235140249
 20
31.661235374689692
 30
208.0
 10
1497.9500180010816
 20
31.70508142194397
 30
208.0
 10
1498.9000005992832
 20
31.749240904241745
 30
208.0
  0
LINE
  5
36
330
17
100
AcDbEntity
  8
0
100
AcDbLine
 10
1495.1
 20
31.574477761757308
 30
208.0
 11
1495.1
 21
14.31256097204379
 31
208.0
  0
SPLINE
  5
37
330
17
100
AcDbEntity
  8
0
100
AcDbSpline
 70
0
 71
4
 72
19
 73
14
 74
0
 40
0.0
 40
0.0
 40
0.0
 40
0.0
 40
0.0
 40
0.2491379920923206
 40
0.2491379920923206
 40
0.2491379920923206
 40
0.4989056648042005
 40
0.4989056648042005
 40
0.4989056648042005
 40
0.7492429032077843
 40
0.7492429032077843
 40
0.7492429032077843
 40
1.0
 40
1.0
 40
1.0
 40
1.0
 40
1.0
 10
1495.0999999999992
 20
14.312560972045556
 30
208.0
 10
1493.7174848648901
 20
14.222403879307357
 30
208.0
 10
1492.3349349714329
 20
14.132767483669847
 30
208.0
 10
1490.95235089572
 20
14.043649142361327
 30
208.0
 10
1488.1836209538305
 20
13.866219567733104
 30
208.0
 10
1486.797474917703
 20
13.777910946088138
 30
208.0
 10
1485.411295586703
 20
13.690117919592247
 30
208.0
 10
1482.6357102256761
 20
13.515359219845852
 30
208.0
 10
1481.2463040462378
 20
13.428395889676741
 30
208.0
 10
1479.8568654100802
 20
13.34194567556861
 30
208.0
 10
1477.0755937740407
 20
13.169922773143142
 30
208.0
 10
1475.6837606671952
 20
13.084351795945844
 30
208.0
 10
1474.2918959280723
 20
12.999291078581724
 30
208.0
 10
1472.8999999999999
 20
12.91473843000335
 30
208.0
  0
LINE
  5
38
330
17
100
AcDbEntity
  8
0
100
AcDbLine
 10
1472.9
 20
30.6268432549559
 30
208.0
 11
1472.9
 21
12.914738430001133
 31
208.0
  0
SPLINE
  5
39
330
17
100
AcDbEntity
  8
0
100
AcDbSpline
 70
0
 71
4
 72
10
 73
5
 74
0
 40
0.0
 40
0.0
 40
0.0
 40
0.0
 40
0.0
 40
1.0
 40
1.0
 40
1.0
 40
1.0
 40
1.0
 10
1469.0999994005824
 20
30.476856085931573
 30
208.0
 10
1470.0500147316868
 20
30.513917480101895
 30
208.0
 10
1471.000020119002
 20
30.551268041192753
 30
208.0
 10
1471.950015447337
 20
30.588909308899865
 30
208.0
 10
1472.9000005993958
 20
30.62684282209466
 30
208.0
  0
LINE
  5
3A
330
17
100
AcDbEntity
  8
0
100
AcDbLine
 10
1469.1
 20
30.476856965414328
 30
208.0
 11
1469.1
 21
12.685324737618629
 31
208.0
  0
SPLINE
  5
3B
330
17
100
AcDbEntity
  8
0
100
AcDbSpline
 70
0
 71
4
 72
19
 73
14
 74
0
 40
0.0
 40
0.0
 40
0.0
 40
0.0
 40
0.0
 40
0.24932877401185177
 40
0.24932877401185177
 40
0.24932877401185177
 40
0.49914006121626076
 40
0.49914006121626076
 40
0.49914006121626076
 40
0.7493954297579911
 40
0.7493954297579911
 40
0.7493954297579911
 40
1.0
 40
1.0
 40
1.0
 40
1.0
 40
1.0
 10
1469.1000000000001
 20
12.68532473761965
 30
208.0
 10
1467.7164007226365
 20
12.602310997451553
 30
208.0
 10
1466.3327712162786
 20
12.519796376778034
 30
208.0
 10
1464.9491118986248
 20
12.437778857944348
 30
208.0
 10
1462.1790566610243
 20
12.274576382012151
 30
208.0
 10
1460.7926606269732
 20
12.193393347012934
 30
208.0
 10
1459.4062354710113
 20
12.112705464870443
 30
208.0
 10
1456.6308630321398
 20
11.952173817489598
 30
208.0
 10
1455.2419156470498
 20
11.872331807683114
 30
208.0
 10
1453.852939810482
 20
11.792983066856701
 30
208.0
 10
1451.072993787789
 20
11.635158670025007
 30
208.0
 10
1449.6820235235343
 20
11.556684382077595
 30
208.0
 10
1448.2910254739606
 20
11.478701326120252
 30
208.0
 10
1446.8999999999996
 20
11.40120786922798
 30
208.0
  0
LINE
  5
3C
330
17
100
AcDbEntity
  8
0
100
AcDbLine
 10
1446.9
 20
29.668855506711296
 30
208.0
 11
1446.9
 21
11.401207869226404
 31
208.0
  0
SPLINE
  5
3D
330
17
100
AcDbEntity
  8
0
100
AcDbSpline
 70
0
 71
4
 72
10
 73
5
 74
0
 40
0.0
 40
0.0
 40
0.0
 40
0.0
 40
0.0
 40
1.0
 40
1.0
 40
1.0
 40
1.0
 40
1.0
 10
1443.0999994004799
 20
29.541895307513343
 30
208.0
 10
1444.0500124924188
 20
29.573231853883797
 30
208.0
 10
1445.0000171240754
 20
29.604836378351287
 30
208.0
 10
1445.9500131941795
 20
29.636710422020975
 30
208.0
 10
1446.9000005995108
 20
29.668855525318943
 30
208.0
  0
LINE
  5
3E
330
17
100
AcDbEntity
  8
0
100
AcDbLine
 10
1443.1
 20
29.541895329137958
 30
208.0
 11
1443.1
 21
11.190883821427123
 31
208.0
  0
SPLINE
  5
3F
330
17
100
AcDbEntity
  8
0
100
AcDbSpline
 70
0
 71
4
 72
19
 73
14
 74
0
 40
0.0
 40
0.0
 40
0.0
 40
0.0
 40
0.0
 40
0.24950016800916847
 40
0.24950016800916847
 40
0.24950016800916847
 40
0.4993669463528648
 40
0.4993669463528648
 40
0.4993669463528648
 40
0.7495583944691021
 40
0.7495583944691021
 40
0.7495583944691021
 40
1.0
 40
1.0
 40
1.0
 40
1.0
 40
1.0
 10
1443.0999999999997
 20
11.190883821428752
 30
208.0
 10
1441.7154291578183
 20
11.114749283354909
 30
208.0
 10
1440.3308316277255
 20
11.03909765461429
 30
208.0
 10
1438.9462077534122
 20
10.96392746101405
 30
208.0
 10
1436.1748734101263
 20
10.814437359084838
 30
208.0
 10
1434.7881628644063
 20
10.740118867092821
 30
208.0
 10
1433.4014265674173
 20
10.666280403368573
 30
208.0
 10
1430.6261011999916
 20
10.519465611056257
 30
208.0
 10
1429.237512063471
 20
10.446490527293436
 30
208.0
 10
1427.8488977586353
 20
10.373994111685882
 30
208.0
 10
1425.0702309916828
 20
10.229884203904126
 30
208.00000000000003
 10
1423.680178480106
 20
10.158271661640148
 30
207.99999999999994
 10
1422.290101380276
 20
10.087136352353747
 30
207.99999999999991
 10
1420.9
 20
10.016477137069698
 30
207.9999999999999
  0
LINE
  5
40
330
17
100
AcDbEntity
  8
0
100
AcDbLine
 10
1420.9
 20
28.863312574760553
 30
208.0
 11
1420.9
 21
10.01647713706787
 31
208.0
  0
SPLINE
  5
41
330
17
100
AcDbEntity
  8
0
100
AcDbSpline
 70
0
 71
4
 72
10
 73
5
 74
0
 40
0.0
 40
0.0
 40
0.0
 40
0.0
 40
0.0
 40
1.0
 40
1.0
 40
1.0
 40
1.0
 40
1.0
 10
1417.099999400371
 20
28.75763162275248
 30
208.0
 10
1418.0500105307938
 20
28.783680126323116
 30
208.0
 10
1419.000014500035
 20
28.80997542779687
 30
208.0
 10
1419.950011219705
 20
28.836519069116576
 30
208.0
 10
1420.9000005996072
 20
28.863312591671882
 30
208.0
  0
LINE
  5
42
330
17
100
AcDbEntity
  8
0
100
AcDbLine
 10
1417.1
 20
28.757631639193804
 30
208.0
 11
1417.1
 21
9.824658349804547
 31
208.0
  0
SPLINE
  5
43
330
17
100
AcDbEntity
  8
0
100
AcDbSpline
 70
0
 71
4
 72
19
 73
14
 74
0
 40
0.0
 40
0.0
 40
0.0
 40
0.0
 40
0.0
 40
0.2496717743351452
 40
0.2496717743351452
 40
0.2496717743351452
 40
0.4995914019079513
 40
0.4995914019079513
 40
0.4995914019079513
 40
0.7497209276122513
 40
0.7497209276122513
 40
0.7497209276122513
 40
1.0
 40
1.0
 40
1.0
 40
1.0
 40
1.0
 10
1417.1000000000602
 20
9.824658348603334
 30
208.0
 10
1415.7144594614165
 20
9.755204840382317
 30
208.0
 10
1414.3288952146818
 20
9.686222820464925
 30
208.0
 10
1412.9433075549364
 20
9.617711298742627
 30
208.0
 10
1410.1707104705183
 20
9.48155980349036
 30
208.0
 10
1408.7837009996308
 20
9.413920767998935
 30
208.0
 10
1407.3966686486492
 20
9.34675128666266
 30
208.0
 10
1404.6213938140254
 20
9.213293742369668
 30
208.0
 10
1403.2331512924338
 20
9.147006467016407
 30
208.0
 10
1401.844886416526
 20
9.081187860843476
 30
208.0
 10
1399.0674824809998
 20
8.950447430226477
 30
208.0
 10
1397.678343395222
 20
8.88552615964478
 30
208.0
 10
1396.2891824781666
 20
8.821072650106506
 30
208.0
 10
1394.8999999999996
 20
8.757086213449796
 30
208.0
  0
LINE
  5
44
330
17
100
AcDbEntity
  8
0
100
AcDbLine
 10
1394.9
 20
28.198267133380664
 30
208.0
 11
1394.9
 21
8.757086213448085
 31
208.0
  0
SPLINE
  5
45
330
17
100
AcDbEntity
  8
0
100
AcDbSpline
 70
0
 71
4
 72
10
 73
5
 74
0
 40
0.0
 40
0.0
 40
0.0
 40
0.0
 40
0.0
 40
1.0
 40
1.0
 40
1.0
 40
1.0
 40
1.0
 10
1391.099999400284
 20
28.11212089226537
 30
208.0
 10
1392.0500088249084
 20
28.133317468713997
 30
208.0
 10
1393.0000122176737
 20
28.154739674204595
 30
208.0
 10
1393.9500095020137
 20
28.17638905105193
 30
208.0
 10
1394.9000005997123
 20
28.198267141126294
 30
208.0
  0
LINE
  5
46
330
17
100
AcDbEntity
  8
0
100
AcDbLine
 10
1391.1
 20
28.11212091148174
 30
208.0
 11
1391.1
 21
8.583368896684636
 31
208.0
  0
SPLINE
  5
47
330
17
100
AcDbEntity
  8
0
100
AcDbSpline
 70
0
 71
4
 72
19
 73
14
 74
0
 40
0.0
 40
0.0
 40
0.0
 40
0.0
 40
0.0
 40
0.24983890005378165
 40
0.24983890005378165
 40
0.24983890005378165
 40
0.49981225572385035
 40
0.49981225572385035
 40
0.49981225572385035
 40
0.7498837571092286
 40
0.7498837571092286
 40
0.7498837571092286
 40
1.0
 40
1.0
 40
1.0
 40
1.0
 40
1.0
 10
1391.0999999999997
 20
8.583368896686064
 30
208.0
 10
1389.7135167581514
 20
8.520464301942988
 30
208.0
 10
1388.327012403165
 20
8.458024094864626
 30
208.0
 10
1386.9404871957224
 20
8.396047731012569
 30
208.0
 10
1384.1666493950684
 20
8.272988553278488
 30
208.0
 10
1382.7793367793965
 20
8.211906244043243
 30
208.0
 10
1381.3920038034814
 20
8.151287274329178
 30
208.0
 10
1378.6167529247805
 20
8.030951592238141
 30
208.0
 10
1377.2288350062215
 20
7.971235243433396
 30
208.0
 10
1375.840897214658
 20
7.911981794276472
 30
208.0
 10
1373.0647340523117
 20
7.794389553465966
 30
208.0
 10
1371.6765086747353
 20
7.7360509211818735
 30
207.99999999999994
 10
1370.2882639095144
 20
7.6781747503573925
 30
207.99999999999991
 10
1368.9000000001024
 20
7.620760778500758
 30
207.9999999999999
  0
LINE
  5
48
330
17
100
AcDbEntity
  8
0
100
AcDbLine
 10
1368.9
 20
27.661790449457968
 30
208.0
 11
1368.9
 21
7.620760780974605
 31
208.0
  0
SPLINE
  5
49
330
17
100
AcDbEntity
  8
0
100
AcDbSpline
 70
0
 71
4
 72
10
 73
5
 74
0
 40
0.0
 40
0.0
 40
0.0
 40
0.0
 40
0.0
 40
1.0
 40
1.0
 40
1.0
 40
1.0
 40
1.0
 10
1365.0999994001957
 20
27.593436940519297
 30
208.0
 10
1366.0500073527971
 20
27.61021706756906
 30
208.0
 10
1367.0000102477095
 20
27.62720166806658
 30
208.0
 10
1367.9500080191403
 20
27.644392284330408
 30
208.0
 10
1368.9000005997916
 20
27.661790458327353
 30
208.0
  0
LINE
  5
4A
330
17
100
AcDbEntity
  8
0
100
AcDbLine
 10
1365.1
 20
27.593436952045465
 30
208.0
 11
1365.1
 21
7.464906040576479
 31
208.0
  0
SPLINE
  5
4B
330
17
100
AcDbEntity
  8
0
100
AcDbSpline
 70
0
 71
4
 72
19
 73
14
 74
0
 40
0.0
 40
0.0
 40
0.0
 40
0.0
 40
0.0
 40
0.249993821915606
 40
0.249993821915606
 40
0.249993821915606
 40
0.5000117612770297
 40
0.5000117612770297
 40
0.5000117612770297
 40
0.7500230774677046
 40
0.7500230774677046
 40
0.7500230774677046
 40
1.0
 40
1.0
 40
1.0
 40
1.0
 40
1.0
 10
1365.0999999997302
 20
7.464906047201831
 30
208.0
 10
1363.7126430637836
 20
7.408479169423517
 30
208.0
 10
1362.3252673383563
 20
7.352513599436512
 30
208.0
 10
1360.9378730600445
 20
7.297009217918136
 30
208.0
 10
1358.1629140218306
 20
7.186917327575842
 30
208.0
 10
1356.7753492602744
 20
7.1323298467614995
 30
208.0
 10
1355.3877664037702
 20
7.0782037048538955
 30
208.0
 10
1352.6126017563643
 20
6.97087458510062
 30
208.0
 10
1351.2250199792504
 20
6.917671259854198
 30
208.0
 10
1349.8374206931273
 20
6.864926054285381
 30
208.0
 10
1347.0623786280037
 20
6.760354263797758
 30
208.0
 10
1345.6749358539244
 20
6.708527547197464
 30
208.0
 10
1344.2874762077126
 20
6.657154033969215
 30
208.0
 10
1342.9
 20
6.606231275471806
 30
208.0
  0
LINE
  5
4C
330
17
100
AcDbEntity
  8
0
100
AcDbLine
 10
1342.9
 20
27.241970613721044
 30
208.0
 11
1342.9
 21
6.6062312754699315
 31
208.0
  0
SPLINE
  5
4D
330
17
100
AcDbEntity
  8
0
100
AcDbSpline
 70
0
 71
4
 72
10
 73
5
 74
0
 40
0.0
 40
0.0
 40
0.0
 40
0.0
 40
0.0
 40
1.0
 40
1.0
 40
1.0
 40
1.0
 40
1.0
 10
1339.0999994001154
 20
27.189670185106195
 30
208.0
 10
1340.0500060925417
 20
27.202468753583215
 30
208.0
 10
1341.000008560924
 20
27.21545065441338
 30
208.0
 10
1341.950006749179
 20
27.22861742963964
 30
208.0
 10
1342.900000599874
 20
27.241970621031232
 30
208.0
  0
LINE
  5
4E
330
17
100
AcDbEntity
  8
0
100
AcDbLine
 10
1339.1
 20
27.18967019445622
 30
208.0
 11
1339.1
 21
6.468031314847614
 31
208.0
  0
SPLINE
  5
4F
330
17
100
AcDbEntity
  8
0
100
AcDbSpline
 70
0
 71
4
 72
19
 73
14
 74
0
 40
0.0
 40
0.0
 40
0.0
 40
0.0
 40
0.0
 40
0.2500099773845151
 40
0.2500099773845151
 40
0.2500099773845151
 40
0.5000247061731354
 40
0.5000247061731354
 40
0.5000247061731354
 40
0.7500316944379037
 40
0.7500316944379037
 40
0.7500316944379037
 40
1.0
 40
1.0
 40
1.0
 40
1.0
 40
1.0
 10
1339.0999999999997
 20
6.468031314849163
 30
208.0
 10
1337.7125367101467
 20
6.418032784593483
 30
208.0
 10
1336.3250572800473
 20
6.368481681963051
 30
208.0
 10
1334.937562012441
 20
6.3193756402199375
 30
208.0
 10
1332.1625140295496
 20
6.222047880000808
 30
208.0
 10
1330.774961313408
 20
6.173826184633666
 30
208.0
 10
1329.387393354648
 20
6.126044725871028
 30
208.0
 10
1326.612270492716
 20
6.0313589216241885
 30
208.0
 10
1325.2247155904745
 20
5.984454549026387
 30
208.0
 10
1323.8371460274002
 20
5.937985560441387
 30
208.0
 10
1321.0621928427443
 20
5.845920644222652
 30
208.0
 10
1319.6748092257735
 20
5.8003245764354086
 30
208.0
 10
1318.2874115188818
 20
5.75515894949896
 30
208.0
 10
1316.9000000000003
 20
5.7104213062335685
 30
208.0
  0
LINE
  5
50
330
17
100
AcDbEntity
  8
0
100
AcDbLine
 10
1316.9
 20
26.92691112896161
 30
208.0
 11
1316.9
 21
5.710421306230635
 31
208.0
  0
SPLINE
  5
51
330
17
100
AcDbEntity
  8
0
100
AcDbSpline
 70
0
 71
4
 72
10
 73
5
 74
0
 40
0.0
 40
0.0
 40
0.0
 40
0.0
 40
0.0
 40
1.0
 40
1.0
 40
1.0
 40
1.0
 40
1.0
 10
1313.0999994000413
 20
26.888926271477494
 30
208.0
 10
1314.0500050222365
 20
26.898177636074493
 30
208.0
 10
1315.0000071281065
 20
26.90759120702821
 30
208.0
 10
1315.950005670219
 20
26.917168525906277
 30
208.0
 10
1316.9000005999485
 20
26.926911134067705
 30
208.0
  0
LINE
  5
52
330
17
100
AcDbEntity
  8
0
100
AcDbLine
 10
1313.1
 20
26.888926278072482
 30
208.0
 11
1313.1
 21
5.589090936871527
 31
208.0
  0
SPLINE
  5
53
330
17
100
AcDbEntity
  8
0
100
AcDbSpline
 70
0
 71
4
 72
19
 73
14
 74
0
 40
0.0
 40
0.0
 40
0.0
 40
0.0
 40
0.0
 40
0.24999216356353363
 40
0.24999216356353363
 40
0.24999216356353363
 40
0.5000024579130815
 40
0.5000024579130815
 40
0.5000024579130815
 40
0.7500064130343891
 40
0.7500064130343891
 40
0.7500064130343891
 40
1.0
 40
1.0
 40
1.0
 40
1.0
 40
1.0
 10
1313.0999999999995
 20
5.589090936874447
 30
208.0
 10
1311.712594729296
 20
5.5452301829048745
 30
208.0
 10
1310.3251760231383
 20
5.501794081334882
 30
208.0
 10
1308.9377441522697
 20
5.458780254693716
 30
208.0
 10
1306.1627539889319
 20
5.373589168972761
 30
208.0
 10
1304.7751956943594
 20
5.331411976936847
 30
208.0
 10
1303.3876247649532
 20
5.289652259019611
 30
208.0
 10
1300.6124933378958
 20
5.206963971547616
 30
208.0
 10
1299.2249328408768
 20
5.166035380941629
 30
208.0
 10
1297.8373602276815
 20
5.125519395382573
 30
208.0
 10
1295.0622488198776
 20
5.045309443925129
 30
208.0
 10
1293.6747100263867
 20
5.005615438030544
 30
208.0
 10
1292.2871596222744
 20
4.966329168867267
 30
208.0
 10
1290.899597854685
 20
4.927448167441208
 30
208.0
  0
LINE
  5
54
330
17
100
AcDbEntity
  8
0
100
AcDbLine
 10
1290.9
 20
26.704729564246403
 30
208.0
 11
1290.9
 21
4.927459436004369
 31
208.0
  0
SPLINE
  5
55
330
17
100
AcDbEntity
  8
0
100
AcDbSpline
 70
0
 71
4
 72
10
 73
5
 74
0
 40
0.0
 40
0.0
 40
0.0
 40
0.0
 40
0.0
 40
1.0
 40
1.0
 40
1.0
 40
1.0
 40
1.0
 10
1287.099999399974
 20
26.679324712703277
 30
208.0
 10
1288.050004120015
 20
26.68546274246563
 30
208.0
 10
1289.0000059201016
 20
26.69174186771826
 30
208.0
 10
1289.9500047603956
 20
26.698163629424673
 30
208.0
 10
1290.9000006000167
 20
26.704729568393443
 30
208.0
  0
LINE
  5
56
330
17
100
AcDbEntity
  8
0
100
AcDbLine
 10
1287.1
 20
26.679324716596085
 30
208.0
 11
1287.1
 21
4.82211667476683
 31
208.0
  0
SPLINE
  5
57
330
17
100
AcDbEntity
  8
0
100
AcDbSpline
 70
0
 71
4
 72
19
 73
14
 74
0
 40
0.0
 40
0.0
 40
0.0
 40
0.0
 40
0.0
 40
0.24998989643232725
 40
0.24998989643232725
 40
0.24998989643232725
 40
0.4999992423168774
 40
0.4999992423168774
 40
0.4999992423168774
 40
0.75000347585093
 40
0.75000347585093
 40
0.75000347585093
 40
1.0
 40
1.0
 40
1.0
 40
1.0
 40
1.0
 10
1287.0999999999997
 20
4.822116674769662
 30
208.0
 10
1285.7125933037476
 20
4.784069505378476
 30
208.0
 10
1284.3251755809251
 20
4.74642417274825
 30
208.0
 10
1282.9377470720751
 20
4.709178285241459
 30
208.0
 10
1280.1627610106632
 20
4.635477615757536
 30
208.0
 10
1278.7752034562634
 20
4.599022901485469
 30
208.0
 10
1277.3876355857055
 20
4.562962806554596
 30
208.0
 10
1274.6125080449642
 20
4.49162770898092
 30
208.0
 10
1273.2249483751966
 20
4.456352690295998
 30
208.0
 10
1271.8373788482845
 20
4.421467399304863
 30
208.0
 10
1269.0622633153218
 20
4.352472454263442
 30
208.0
 10
1267.6747173099725
 20
4.318362770613216
 30
208.0
 10
1266.2871618940105
 20
4.28463792700804
 30
208.0
 10
1264.899597285374
 20
4.251295441354616
 30
208.0
  0
LINE
  5
58
330
17
100
AcDbEntity
  8
0
100
AcDbLine
 10
1264.9
 20
26.563556202997
 30
208.0
 11
1264.9
 21
4.251305118396364
 31
208.0
  0
SPLINE
  5
59
330
17
100
AcDbEntity
  8
0
100
AcDbSpline
 70
0
 71
4
 72
10
 73
5
 74
0
 40
0.0
 40
0.0
 40
0.0
 40
0.0
 40
0.0
 40
1.0
 40
1.0
 40
1.0
 40
1.0
 40
1.0
 10
1261.0999993999135
 20
26.54899753381526
 30
208.0
 10
1262.050003364055
 20
26.552455662365766
 30
208.0
 10
1263.00000490781
 20
26.556033790202186
 30
208.0
 10
1263.950003997884
 20
26.55973345761702
 30
208.0
 10
1264.9000006000788
 20
26.56355620479205
 30
208.0
  0
LINE
  5
5A
330
17
100
AcDbEntity
  8
0
100
AcDbLine
 10
1261.1
 20
26.548997536699787
 30
208.0
 11
1261.1
 21
4.161065701528505
 31
208.0
  0
SPLINE
  5
5B
330
17
100
AcDbEntity
  8
0
100
AcDbSpline
 70
0
 71
4
 72
19
 73
14
 74
0
 40
0.0
 40
0.0
 40
0.0
 40
0.0
 40
0.0
 40
0.24998799541548583
 40
0.24998799541548583
 40
0.24998799541548583
 40
0.49999658450049855
 40
0.49999658450049855
 40
0.49999658450049855
 40
0.7500011305253123
 40
0.7500011305253123
 40
0.7500011305253123
 40
1.0
 40
1.0
 40
1.0
 40
1.0
 40
1.0
 10
1261.0999999999997
 20
4.161065701531209
 30
208.0
 10
1259.7125914992816
 20
4.128509189519417
 30
208.0
 10
1258.3251741026315
 20
4.096331591751323
 30
208.0
 10
1256.937748022027
 20
4.064530499709365
 30
208.0
 10
1254.162764613235
 20
4.001673791445671
 30
208.0
 10
1252.7752072834874
 20
3.9706182425169887
 30
208.0
 10
1251.3876416829278
 20
3.93993434309116
 30
208.0
 10
1248.6125167819944
 20
3.87930542573175
 30
208.0
 10
1247.2249574818852
 20
3.8493603958547165
 30
208.0
 10
1245.837390313624
 20
3.8197820959024753
 30
208.0
 10
1243.0622721375937
 20
3.761354704073173
 30
208.0
 10
1241.6747211302559
 20
3.7325055902360957
 30
208.0
 10
1240.2871626456117
 20
3.7040182921735787
 30
208.0
 10
1238.899596873999
 20
3.6758903128968767
 30
208.0
  0
LINE
  5
5C
330
17
100
AcDbEntity
  8
0
100
AcDbLine
 10
1238.9
 20
26.491532680830716
 30
208.0
 11
1238.9
 21
3.6758984853367394
 31
208.0
  0
SPLINE
  5
5D
330
17
100
AcDbEntity
  8
0
100
AcDbSpline
 70
0
 71
4
 72
10
 73
5
 74
0
 40
0.0
 40
0.0
 40
0.0
 40
0.0
 40
0.0
 40
1.0
 40
1.0
 40
1.0
 40
1.0
 40
1.0
 10
1235.0999993998598
 20
26.486087920298267
 30
208.0
 10
1236.0500027325804
 20
26.487299195816934
 30
208.0
 10
1237.000004062205
 20
26.48860938817773
 30
208.0
 10
1237.950003360909
 20
26.490020036990245
 30
208.0
 10
1238.9000006001347
 20
26.49153268178629
 30
208.0
  0
LINE
  5
5E
330
17
100
AcDbEntity
  8
0
100
AcDbLine
 10
1235.1
 20
26.486087921063458
 30
208.0
 11
1235.1
 21
3.599874627241096
 31
208.0
  0
SPLINE
  5
5F
330
17
100
AcDbEntity
  8
0
100
AcDbSpline
 70
0
 71
4
 72
13
 73
8
 74
0
 40
0.0
 40
0.0
 40
0.0
 40
0.0
 40
0.0
 40
0.4839939642757016
 40
0.4839939642757016
 40
0.4839939642757016
 40
1.0
 40
1.0
 40
1.0
 40
1.0
 40
1.0
 10
1235.1000000000117
 20
3.5998746266211152
 30
208.0
 10
1232.4138607565535
 20
3.5468451881056193
 30
208.0
 10
1229.7276951681006
 20
3.4951496920941207
 30
208.0
 10
1227.0415045808907
 20
3.44477033261087
 30
208.0
 10
1221.491405791529
 20
3.3433616351016284
 30
208.0
 10
1218.6274943465967
 20
3.2925097020725684
 30
208.0
 10
1215.7635574690482
 20
3.2431116508876667
 30
208.0
 10
1212.899596599968
 20
3.195145608226478
 30
208.0
  0
LINE
  5
60
330
17
100
AcDbEntity
  8
0
100
AcDbLine
 10
1212.9
 20
26.476810647559233
 30
208.0
 11
1212.9
 21
3.1951523658282124
 31
208.0
  0
SPLINE
  5
61
330
17
100
AcDbEntity
  8
0
100
AcDbSpline
 70
0
 71
4
 72
10
 73
5
 74
0
 40
0.0
 40
0.0
 40
0.0
 40
0.0
 40
0.0
 40
1.0
 40
1.0
 40
1.0
 40
1.0
 40
1.0
 10
1209.099999399813
 20
26.478748870297007
 30
208.0
 10
1210.0500022038623
 20
26.4781460052723
 30
208.0
 10
1211.0000033543045
 20
26.477620987140106
 30
208.0
 10
1211.9500028277391
 20
26.477175354856122
 30
208.0
 10
1212.9000006001813
 20
26.47681064732882
 30
208.0
  0
LINE
  5
62
330
17
100
AcDbEntity
  8
0
100
AcDbLine
 10
1209.1
 20
26.47874886991613
 30
208.0
 11
1209.1
 21
3.132451698725835
 31
208.0
  0
SPLINE
  5
63
330
17
100
AcDbEntity
  8
0
100
AcDbSpline
 70
0
 71
4
 72
13
 73
8
 74
0
 40
0.0
 40
0.0
 40
0.0
 40
0.0
 40
0.0
 40
0.4999925574782251
 40
0.4999925574782251
 40
0.4999925574782251
 40
1.0
 40
1.0
 40
1.0
 40
1.0
 40
1.0
 10
1209.100000000024
 20
3.132451697234779
 30
208.0
 10
1206.32505081548
 20
3.087350473934655
 30
208.0
 10
1203.550079995236
 20
3.0435800201103125
 30
208.0
 10
1200.7750888188193
 20
3.001120546456689
 30
208.0
 10
1195.2249855362147
 20
2.9187824019986923
 30
208.0
 10
1192.4498734287665
 20
2.8789038086057523
 30
208.0
 10
1189.6747433588484
 20
2.8402964214362476
 30
208.0
 10
1186.899596442837
 20
2.8029401836267973
 30
208.0
  0
LINE
  5
64
330
17
100
AcDbEntity
  8
0
100
AcDbLine
 10
1186.9
 20
26.507550414983736
 30
208.0
 11
1186.9
 21
2.802945617855949
 31
208.0
  0
SPLINE
  5
65
330
17
100
AcDbEntity
  8
0
100
AcDbSpline
 70
0
 71
4
 72
10
 73
5
 74
0
 40
0.0
 40
0.0
 40
0.0
 40
0.0
 40
0.0
 40
1.0
 40
1.0
 40
1.0
 40
1.0
 40
1.0
 10
1183.099999399768
 20
26.51514185010758
 30
208.0
 10
1184.050001756214
 20
26.51315727087533
 30
208.0
 10
1185.000002755197
 20
26.511229479510412
 30
208.0
 10
1185.9500023766889
 20
26.509360014383795
 30
208.0
 10
1186.9000006002218
 20
26.507550413840406
 30
208.0
  0
LINE
  5
66
330
17
100
AcDbEntity
  8
0
100
AcDbLine
 10
1183.1
 20
26.51514184885368
 30
208.0
 11
1183.1
 21
2.7526703352989905
 31
208.0
  0
SPLINE
  5
67
330
17
100
AcDbEntity
  8
0
100
AcDbSpline
 70
0
 71
4
 72
13
 73
8
 74
0
 40
0.0
 40
0.0
 40
0.0
 40
0.0
 40
0.0
 40
0.4999910676821519
 40
0.4999910676821519
 40
0.4999910676821519
 40
1.0
 40
1.0
 40
1.0
 40
1.0
 40
1.0
 10
1183.1000000000256
 20
2.752670333309392
 30
208.0
 10
1180.3250431956506
 20
2.7165945682361543
 30
208.0
 10
1177.5500703024247
 20
2.6817560726631484
 30
208.0
 10
1174.7750824074649
 20
2.6481348953728054
 30
208.0
 10
1169.2249794843442
 20
2.583285774175472
 30
208.0
 10
1166.449864455098
 20
2.552057916411623
 30
208.0
 10
1163.674736443054
 20
2.522007292757958
 30
208.0
 10
1160.899596382277
 20
2.493113690355885
 30
208.0
  0
LINE
  5
68
330
17
100
AcDbEntity
  8
0
100
AcDbLine
 10
1160.9
 20
26.571919619249798
 30
208.0
 11
1160.9
 21
2.493117894865061
 31
208.0
  0
SPLINE
  5
69
330
17
100
AcDbEntity
  8
0
100
AcDbSpline
 70
0
 71
4
 72
10
 73
5
 74
0
 40
0.0
 40
0.0
 40
0.0
 40
0.0
 40
0.0
 40
1.0
 40
1.0
 40
1.0
 40
1.0
 40
1.0
 10
1157.0999993997368
 20
26.583435452524885
 30
208.0
 10
1158.0500013680014
 20
26.580501348611108
 30
208.0
 10
1159.0000022360348
 20
26.577602982661507
 30
208.0
 10
1159.9500019861168
 20
26.574741892555657
 30
208.0
 10
1160.9000006002561
 20
26.571919616166603
 30
208.0
  0
LINE
  5
6A
330
17
100
AcDbEntity
  8
0
100
AcDbLine
 10
1157.1
 20
26.583435452398643
 30
208.0
 11
1157.1
 21
2.454364112769941
 31
208.0
  0
SPLINE
  5
6B
330
17
100
AcDbEntity
  8
0
100
AcDbSpline
 70
0
 71
4
 72
13
 73
8
 74
0
 40
0.0
 40
0.0
 40
0.0
 40
0.0
 40
0.0
 40
0.4999898708566022
 40
0.4999898708566022
 40
0.4999898708566022
 40
1.0
 40
1.0
 40
1.0
 40
1.0
 40
1.0
 10
1157.100000000022
 20
2.45436411054613
 30
208.0
 10
1154.3250365322788
 20
2.4266534601900074
 30
208.0
 10
1151.5500616481497
 20
2.4000858704760684
 30
208.0
 10
1148.7750762548035
 20
2.3746412244400847
 30
208.0
 10
1143.2249736849317
 20
2.325956272838722
 30
208.0
 10
1140.4498565075708
 20
2.3027160572650036
 30
208.0
 10
1137.6747304904397
 20
2.2805583828478135
 30
208.0
 10
1134.8995963980458
 20
2.259462881368884
 30
208.0
  0
LINE
  5
6C
330
17
100
AcDbEntity
  8
0
100
AcDbLine
 10
1134.9
 20
26.658091881500578
 30
208.0
 11
1134.9
 21
2.259465951734378
 31
208.0
  0
SPLINE
  5
6D
330
17
100
AcDbEntity
  8
0
100
AcDbSpline
 70
0
 71
5
 72
12
 73
6
 74
0
 40
0.0
 40
0.0
 40
0.0
 40
0.0
 40
0.0
 40
0.0
 40
1.0
 40
1.0
 40
1.0
 40
1.0
 40
1.0
 40
1.0
 10
1131.0999993997127
 20
26.671804057619397
 30
208.0
 10
1131.932792815952
 20
26.66877828171489
 30
208.0
 10
1132.6632709675516
 20
26.6661348396731
 30
208.0
 10
1133.461106763763
 20
26.663252810710517
 30
208.0
 10
1134.2888775277052
 20
26.66028093563606
 30
208.0
 10
1134.9000006002864
 20
26.658091872026
 30
208.0
  0
LINE
  5
6E
330
17
100
AcDbEntity
  8
0
100
AcDbLine
 10
1131.1
 20
26.671804062962153
 30
208.0
 11
1131.1
 21
2.2313233052981336
 31
208.0
  0
SPLINE
  5
6F
330
17
100
AcDbEntity
  8
0
100
AcDbSpline
 70
0
 71
4
 72
13
 73
8
 74
0
 40
0.0
 40
0.0
 40
0.0
 40
0.0
 40
0.0
 40
0.499988934138985
 40
0.499988934138985
 40
0.499988934138985
 40
1.0
 40
1.0
 40
1.0
 40
1.0
 40
1.0
 10
1131.1000000000167
 20
2.2313233029540105
 30
208.0
 10
1128.3250308258448
 20
2.211312663327648
 30
208.0
 10
1125.5500540928224
 20
2.1923501514788537
 30
208.0
 10
1122.775070540875
 20
2.1744154859330993
 30
208.0
 10
1117.224968312469
 20
2.140560228998272
 30
208.0
 10
1114.4498496354474
 20
2.1246397274771045
 30
208.0
 10
1111.6747254852667
 20
2.1097063547382735
 30
208.0
 10
1108.8995964699593
 20
2.0957395933653116
 30
208.0
  0
LINE
  5
70
330
17
100
AcDbEntity
  8
0
100
AcDbLine
 10
1108.9
 20
26.75424545527991
 30
208.0
 11
1108.9
 21
2.095741626694439
 31
208.0
  0
SPLINE
  5
71
330
17
100
AcDbEntity
  8
0
100
AcDbSpline
 70
0
 71
4
 72
10
 73
5
 74
0
 40
0.0
 40
0.0
 40
0.0
 40
0.0
 40
0.0
 40
1.0
 40
1.0
 40
1.0
 40
1.0
 40
1.0
 10
1105.0999993996932
 20
26.768426495517843
 30
208.0
 10
1106.0500006834488
 20
26.764889209229572
 30
208.0
 10
1107.0000013222934
 20
26.761345580465584
 30
208.0
 10
1107.9500012999833
 20
26.757797146473358
 30
208.0
 10
1108.9000006003093
 20
26.754245444524535
 30
208.0
  0
LINE
  5
72
330
17
100
AcDbEntity
  8
0
100
AcDbLine
 10
1105.1
 20
26.768426501376194
 30
208.0
 11
1105.1
 21
2.0772931252180973
 31
208.0
  0
SPLINE
  5
73
330
17
100
AcDbEntity
  8
0
100
AcDbSpline
 70
0
 71
4
 72
10
 73
5
 74
0
 40
0.0
 40
0.0
 40
0.0
 40
0.0
 40
0.0
 40
1.0
 40
1.0
 40
1.0
 40
1.0
 40
1.0
 10
1105.1004035160338
 20
2.077295010330445
 30
208.0
 10
1099.5502227387922
 20
2.0513325457971807
 30
208.0
 10
1094.0000241392022
 20
2.0291803735647567
 30
208.0
 10
1088.4498123993933
 20
2.010674721558475
 30
208.0
 10
1082.8995912337036
 20
1.995650552868828
 30
208.0
  0
LINE
  5
74
330
17
100
AcDbEntity
  8
0
100
AcDbLine
 10
1082.9
 20
26.848561913623413
 30
208.0
 11
1082.9
 21
1.9956516618967097
 31
208.0
  0
SPLINE
  5
75
330
17
100
AcDbEntity
  8
0
100
AcDbSpline
 70
0
 71
4
 72
10
 73
5
 74
0
 40
0.0
 40
0.0
 40
0.0
 40
0.0
 40
0.0
 40
1.0
 40
1.0
 40
1.0
 40
1.0
 40
1.0
 10
1079.0999993996784
 20
26.861484710763943
 30
208.0
 10
1080.0500003439515
 20
26.858293538336333
 30
208.0
 10
1081.0000008701718
 20
26.855074988699958
 30
208.0
 10
1081.9500009612589
 20
26.851830598972708
 30
208.0
 10
1082.9000006003187
 20
26.848561906311737
 30
208.0
  0
LINE
  5
76
330
17
100
AcDbEntity
  8
0
100
AcDbLine
 10
1079.1
 20
26.86148470900231
 30
208.0
 11
1079.1
 21
1.9859738274940462
 31
208.0
  0
SPLINE
  5
77
330
17
100
AcDbEntity
  8
0
100
AcDbSpline
 70
0
 71
4
 72
10
 73
5
 74
0
 40
0.0
 40
0.0
 40
0.0
 40
0.0
 40
0.0
 40
1.0
 40
1.0
 40
1.0
 40
1.0
 40
1.0
 10
1079.100000000006
 20
1.9859738249702756
 30
208.0
 10
1073.5499067250641
 20
1.972723067092957
 30
208.0
 10
1067.9998052756196
 20
1.9628971731401663
 30
208.0
 10
1062.4496992069605
 20
1.9563312458478654
 30
208.0
 10
1056.8995912011064
 20
1.9528592900324686
 30
208.0
  0
LINE
  5
78
330
17
100
AcDbEntity
  8
0
100
AcDbLine
 10
1056.9
 20
26.92922480684573
 30
208.0
 11
1056.9
 21
1.9528595483687226
 31
208.0
  0
SPLINE
  5
79
330
17
100
AcDbEntity
  8
0
100
AcDbSpline
 70
0
 71
4
 72
10
 73
5
 74
0
 40
0.0
 40
0.0
 40
0.0
 40
0.0
 40
0.0
 40
1.0
 40
1.0
 40
1.0
 40
1.0
 40
1.0
 10
1053.099999399673
 20
26.93916242783633
 30
208.0
 10
1054.049999977562
 20
26.936749101621647
 30
208.0
 10
1055.0000003828898
 20
26.93428736432377
 30
208.0
 10
1055.9500005966859
 20
26.931778753047197
 30
208.0
 10
1056.9000006003257
 20
26.929224804955776
 30
208.0
  0
LINE
  5
7A
330
17
100
AcDbEntity
  8
0
100
AcDbLine
 10
1053.1
 20
26.939162426741756
 30
208.0
 11
1053.1
 21
1.9510228668786596
 31
208.0
  0
SPLINE
  5
7B
330
17
100
AcDbEntity
  8
0
100
AcDbSpline
 70
0
 71
4
 72
10
 73
5
 74
0
 40
0.0
 40
0.0
 40
0.0
 40
0.0
 40
0.0
 40
1.0
 40
1.0
 40
1.0
 40
1.0
 40
1.0
 10
1053.1000000000013
 20
1.9510228642672147
 30
208.0
 10
1047.5498984128042
 20
1.9491249841247786
 30
208.0
 10
1041.9997957893715
 20
1.9502642854220087
 30
208.0
 10
1036.449694670338
 20
1.9542748983563547
 30
208.0
 10
1030.8995968214044
 20
1.9609900757020728
 30
208.0
  0
LINE
  5
7C
330
17
100
AcDbEntity
  8
0
100
AcDbLine
 10
1030.9
 20
26.98441833014381
 30
208.0
 11
1030.9
 21
1.9609895905711114
 31
208.0
  0
SPLINE
  5
7D
330
17
100
AcDbEntity
  8
0
100
AcDbSpline
 70
0
 71
4
 72
10
 73
5
 74
0
 40
0.0
 40
0.0
 40
0.0
 40
0.0
 40
0.0
 40
1.0
 40
1.0
 40
1.0
 40
1.0
 40
1.0
 10
1027.0999993996743
 20
26.989643817401536
 30
208.0
 10
1028.0499995627165
 20
26.988440077272195
 30
208.0
 10
1028.9999998316919
 20
26.987166891037383
 30
208.0
 10
1029.9500001846998
 20
26.98582579589449
 30
208.0
 10
1030.9000006003262
 20
26.98441832911547
 30
208.0
  0
LINE
  5
7E
330
17
100
AcDbEntity
  8
0
100
AcDbLine
 10
1027.1
 20
26.98964381665867
 30
208.0
 11
1027.1
 21
1.9660593029988287
 31
208.0
  0
SPLINE
  5
7F
330
17
100
AcDbEntity
  8
0
100
AcDbSpline
 70
0
 71
4
 72
13
 73
8
 74
0
 40
0.0
 40
0.0
 40
0.0
 40
0.0
 40
0.0
 40
0.5020036179435676
 40
0.5020036179435676
 40
0.5020036179435676
 40
1.0
 40
1.0
 40
1.0
 40
1.0
 40
1.0
 10
1027.0999999999958
 20
1.9660593003113573
 30
208.0
 10
1024.3138762340259
 20
1.9701200644229733
 30
208.0
 10
1021.5277534405301
 20
1.9748479990396735
 30
208.0
 10
1018.7416318280519
 20
1.9802220429521793
 30
208.0
 10
1013.1916314549356
 20
1.9921722025147555
 30
208.0
 10
1010.4277526734222
 20
1.998738612979183
 30
208.0
 10
1007.6638754410584
 20
2.0059291023694663
 30
208.0
 10
1004.8999999999925
 20
2.01375245647681
 30
208.0
  0
LINE
  5
80
330
17
100
AcDbEntity
  8
0
100
AcDbLine
 10
1004.9
 20
27.0025846510589
 30
208.0
 11
1004.9
 21
2.013752459215014
 31
208.0
  0
SPLINE
  5
81
330
17
100
AcDbEntity
  8
0
100
AcDbSpline
 70
0
 71
4
 72
10
 73
5
 74
0
 40
0.0
 40
0.0
 40
0.0
 40
0.0
 40
0.0
 40
1.0
 40
1.0
 40
1.0
 40
1.0
 40
1.0
 10
1001.099999399677
 20
27.001737831819543
 30
208.0
 10
1002.0499991694155
 20
27.0020557980771
 30
208.0
 10
1002.9999993030123
 20
27.002303627900776
 30
208.0
 10
1003.9499997851916
 20
27.002480263949344
 30
208.0
 10
1004.9000006003203
 20
27.002584648982964
 30
208.0
  0
LINE
  5
82
330
17
100
AcDbEntity
  8
0
100
AcDbLine
 10
1001.1
 20
27.001737835068454
 30
208.0
 11
1001.1
 21
2.024958710088999
 31
208.0
  0
SPLINE
  5
83
330
17
100
AcDbEntity
  8
0
100
AcDbSpline
 70
0
 71
4
 72
10
 73
5
 74
0
 40
0.0
 40
0.0
 40
0.0
 40
0.0
 40
0.0
 40
1.0
 40
1.0
 40
1.0
 40
1.0
 40
1.0
 10
1001.0999999999916
 20
2.0249587073429427
 30
208.0
 10
995.5499860547874
 20
2.0419852061828516
 30
208.0
 10
989.999980013751
 20
2.061588068971176
 30
208.0
 10
984.4499838888277
 20
2.083838887672708
 30
208.0
 10
978.8999999999876
 20
2.1088093654011724
 30
208.0
  0
LINE
  5
84
330
17
100
AcDbEntity
  8
0
100
AcDbLine
 10
978.9
 20
26.980787961716906
 30
208.0
 11
978.9
 21
2.108809368183604
 31
208.0
  0
SPLINE
  5
85
330
17
100
AcDbEntity
  8
0
100
AcDbSpline
 70
0
 71
4
 72
10
 73
5
 74
0
 40
0.0
 40
0.0
 40
0.0
 40
0.0
 40
0.0
 40
1.0
 40
1.0
 40
1.0
 40
1.0
 40
1.0
 10
975.0999993996879
 20
26.974689642568602
 30
208.0
 10
976.0499988765961
 20
26.97629878373448
 30
208.0
 10
976.9999989111274
 20
26.97785225565055
 30
208.0
 10
977.9499994901684
 20
26.979349000951895
 30
208.0
 10
978.9000006003095
 20
26.980787962354867
 30
208.0
  0
LINE
  5
86
330
17
100
AcDbEntity
  8
0
100
AcDbLine
 10
975.1
 20
26.97468964358543
 30
208.0
 11
975.1
 21
2.1263859002025947
 31
208.0
  0
SPLINE
  5
87
330
17
100
AcDbEntity
  8
0
100
AcDbSpline
 70
0
 71
4
 72
10
 73
5
 74
0
 40
0.0
 40
0.0
 40
0.0
 40
0.0
 40
0.0
 40
1.0
 40
1.0
 40
1.0
 40
1.0
 40
1.0
 10
975.0999999999867
 20
2.1263858974153154
 30
208.0
 10
969.5499779797051
 20
2.152759532357045
 30
208.0
 10
963.9999690009353
 20
2.1818774488008827
 30
208.0
 10
958.4499754396572
 20
2.2138116138102104
 30
208.0
 10
952.899999999978
 20
2.2486338929598526
 30
208.0
  0
LINE
  5
88
330
17
100
AcDbEntity
  8
0
100
AcDbLine
 10
952.9
 20
26.926529476481846
 30
208.0
 11
952.9
 21
2.2486338964583954
 31
208.0
  0
SPLINE
  5
89
330
17
100
AcDbEntity
  8
0
100
AcDbSpline
 70
0
 71
4
 72
10
 73
5
 74
0
 40
0.0
 40
0.0
 40
0.0
 40
0.0
 40
0.0
 40
1.0
 40
1.0
 40
1.0
 40
1.0
 40
1.0
 10
949.0999993997075
 20
26.916367424249653
 30
208.0
 10
950.0499986234003
 20
26.91897079693658
 30
208.0
 10
950.9999985724071
 20
26.92153296814846
 30
208.0
 10
951.9499992352653
 20
26.92405288046331
 30
208.0
 10
952.9000006002993
 20
26.926529476523037
 30
208.0
  0
LINE
  5
8A
330
17
100
AcDbEntity
  8
0
100
AcDbLine
 10
949.1
 20
26.916367428349822
 30
208.0
 11
949.1
 21
2.272985492779261
 31
208.0
  0
SPLINE
  5
8B
330
17
100
AcDbEntity
  8
0
100
AcDbSpline
 70
0
 71
4
 72
10
 73
5
 74
0
 40
0.0
 40
0.0
 40
0.0
 40
0.0
 40
0.0
 40
1.0
 40
1.0
 40
1.0
 40
1.0
 40
1.0
 10
949.0999999999772
 20
2.272985489282548
 30
208.0
 10
943.549867840405
 20
2.309298325943309
 30
208.0
 10
937.999754740858
 20
2.3485240849774507
 30
208.0
 10
932.4496634654737
 20
2.3907348831471027
 30
208.0
 10
926.8995971253959
 20
2.436002568864982
 30
208.0
  0
LINE
  5
8C
330
17
100
AcDbEntity
  8
0
100
AcDbLine
 10
926.9
 20
26.847936191992233
 30
208.0
 11
926.9
 21
2.4359992863815485
 31
208.0
  0
SPLINE
  5
8D
330
17
100
AcDbEntity
  8
0
100
AcDbSpline
 70
0
 71
4
 72
10
 73
5
 74
0
 40
0.0
 40
0.0
 40
0.0
 40
0.0
 40
0.0
 40
1.0
 40
1.0
 40
1.0
 40
1.0
 40
1.0
 10
923.0999993997272
 20
26.83489823936029
 30
208.0
 10
924.0499983996295
 20
26.83819888230766
 30
208.0
 10
924.9999982732465
 20
26.841472792924776
 30
208.0
 10
925.9499990102772
 20
26.844718913689306
 30
208.0
 10
926.9000006002794
 20
26.847936187128862
 30
208.0
  0
LINE
  5
8E
330
17
100
AcDbEntity
  8
0
100
AcDbLine
 10
923.1
 20
26.834898248352633
 30
208.0
 11
923.1
 21
2.4675317718848406
 31
208.0
  0
SPLINE
  5
8F
330
17
100
AcDbEntity
  8
0
100
AcDbSpline
 70
0
 71
4
 72
13
 73
8
 74
0
 40
0.0
 40
0.0
 40
0.0
 40
0.0
 40
0.0
 40
0.4999982683508755
 40
0.4999982683508755
 40
0.4999982683508755
 40
0.9999751506284712
 40
0.9999751506284712
 40
0.9999751506284712
 40
0.9999751506284712
 40
0.9999751506284712
 10
923.1004028613877
 20
2.467528368216689
 30
208.0
 10
920.3252720115382
 20
2.490950979978009
 30
208.0
 10
917.5501476651368
 20
2.515144020576321
 30
208.0
 10
914.7750302193149
 20
2.540116523413238
 30
208.0
 10
909.2249286656121
 20
2.5916372775661
 30
208.0
 10
906.4499445570438
 20
2.6181854610909903
 30
208.0
 10
903.6749681877448
 20
2.6455310141957296
 30
208.0
 10
900.8999999999668
 20
2.6736828733877562
 30
208.0
  0
LINE
  5
90
330
17
100
AcDbEntity
  8
0
100
AcDbLine
 10
900.9
 20
26.75313578617915
 30
208.0
 11
900.9
 21
2.673682876666096
 31
208.0
  0
SPLINE
  5
91
330
17
100
AcDbEntity
  8
0
100
AcDbSpline
 70
0
 71
5
 72
12
 73
6
 74
0
 40
0.0
 40
0.0
 40
0.0
 40
0.0
 40
0.0
 40
0.0
 40
1.0
 40
1.0
 40
1.0
 40
1.0
 40
1.0
 40
1.0
 10
897.0999993997474
 20
26.73840992675459
 30
208.0
 10
897.9088202467193
 20
26.741560852971457
 30
208.0
 10
898.659472618627
 20
26.74447682789365
 30
208.0
 10
899.4395002622095
 20
26.747500845565796
 30
208.0
 10
900.2289152679145
 20
26.750549668621833
 30
208.0
 10
900.9000006002533
 20
26.75313578482977
 30
208.0
  0
LINE
  5
92
330
17
100
AcDbEntity
  8
0
100
AcDbLine
 10
897.1
 20
26.738409931529674
 30
208.0
 11
897.1
 21
2.7128021375176123
 31
208.0
  0
SPLINE
  5
93
330
17
100
AcDbEntity
  8
0
100
AcDbSpline
 70
0
 71
4
 72
13
 73
8
 74
0
 40
0.0
 40
0.0
 40
0.0
 40
0.0
 40
0.0
 40
0.49998528376492024
 40
0.49998528376492024
 40
0.49998528376492024
 40
1.0
 40
1.0
 40
1.0
 40
1.0
 40
1.0
 10
897.0999999999663
 20
2.7128021342825615
 30
208.0
 10
894.3250040349227
 20
2.7417856739826436
 30
208.0
 10
891.5500165576409
 20
2.7715816859850366
 30
208.0
 10
888.7750380192783
 20
2.8021991848326864
 30
208.0
 10
883.224936416153
 20
2.865096879474045
 30
208.0
 10
880.4498133524273
 20
2.89737717273587
 30
208.0
 10
877.6747001783139
 20
2.930496976981215
 30
208.0
 10
874.8995973922641
 20
2.9644652002928438
 30
208.0
  0
LINE
  5
94
330
17
100
AcDbEntity
  8
0
100
AcDbLine
 10
874.9
 20
26.650257209986755
 30
208.0
 11
874.9
 21
2.9644602750829447
 31
208.0
  0
SPLINE
  5
95
330
17
100
AcDbEntity
  8
0
100
AcDbSpline
 70
0
 71
1
 72
4
 73
2
 74
0
 40
0.0
 40
0.0
 40
1.0
 40
1.0
 10
871.099999399778
 20
26.63503165835063
 30
208.0
 10
874.9000006002261
 20
26.650257211961755
 30
208.0
  0
LINE
  5
96
330
17
100
AcDbEntity
  8
0
100
AcDbLine
 10
871.1
 20
26.635031660955207
 30
208.0
 11
871.1
 21
3.011571579980266
 31
208.0
  0
SPLINE
  5
97
330
17
100
AcDbEntity
  8
0
100
AcDbSpline
 70
0
 71
4
 72
13
 73
8
 74
0
 40
0.0
 40
0.0
 40
0.0
 40
0.0
 40
0.0
 40
0.4999970246213023
 40
0.4999970246213023
 40
0.4999970246213023
 40
1.0
 40
1.0
 40
1.0
 40
1.0
 40
1.0
 10
871.0999999999657
 20
3.011571577236354
 30
208.0
 10
868.3249822361574
 20
3.046413279246391
 30
208.0
 10
865.5499752045052
 20
3.0821094803782594
 30
208.0
 10
862.77497941291
 20
3.118669168853688
 30
208.0
 10
857.2249783474946
 20
3.1935337746961836
 30
208.0
 10
854.4499730738723
 20
3.2318387125713444
 30
208.0
 10
851.6749801056517
 20
3.271025022954082
 30
208.0
 10
848.8999999999719
 20
3.3111015794456162
 30
208.0
  0
LINE
  5
98
330
17
100
AcDbEntity
  8
0
100
AcDbLine
 10
848.9
 20
26.547431217331905
 30
208.0
 11
848.9
 21
3.311101581395399
 31
208.0
  0
SPLINE
  5
99
330
17
100
AcDbEntity
  8
0
100
AcDbSpline
 70
0
 71
5
 72
12
 73
6
 74
0
 40
0.0
 40
0.0
 40
0.0
 40
0.0
 40
0.0
 40
0.0
 40
1.0
 40
1.0
 40
1.0
 40
1.0
 40
1.0
 40
1.0
 10
845.09999939981
 20
26.532894496206733
 30
208.0
 10
845.9087537775049
 20
26.535967939243854
 30
208.0
 10
846.5484088661681
 20
26.538409827892806
 30
208.0
 10
847.3888988166075
 20
26.541617934665375
 30
208.0
 10
848.3533963673971
 20
26.545327026865884
 30
208.0
 10
848.9000006001978
 20
26.547431219555083
 30
208.0
  0
LINE
  5
9A
330
17
100
AcDbEntity
  8
0
100
AcDbLine
 10
845.1
 20
26.53289449874356
 30
208.0
 11
845.1
 21
3.3666091977077706
 31
208.0
  0
SPLINE
  5
9B
330
17
100
AcDbEntity
  8
0
100
AcDbSpline
 70
0
 71
4
 72
13
 73
8
 74
0
 40
0.0
 40
0.0
 40
0.0
 40
0.0
 40
0.0
 40
0.49998381379844664
 40
0.49998381379844664
 40
0.49998381379844664
 40
1.0
 40
1.0
 40
1.0
 40
1.0
 40
1.0
 10
845.0999999999738
 20
3.366609195934508
 30
208.0
 10
842.3249975128629
 20
3.4076037716648644
 30
208.0
 10
839.5500082737644
 20
3.449494721119892
 30
208.0
 10
836.775032849965
 20
3.492291003011414
 30
208.0
 10
831.2249311478885
 20
3.579714806105271
 30
208.0
 10
828.4498048713867
 20
3.6243424454854827
 30
208.0
 10
825.6746935980509
 20
3.6698933396331683
 30
208.0
 10
822.8995979465564
 20
3.7163763323200447
 30
208.0
  0
LINE
  5
9C
330
17
100
AcDbEntity
  8
0
100
AcDbLine
 10
822.9
 20
26.452790923910676
 30
208.0
 11
822.9
 21
3.7163695985089085
 31
208.0
  0
SPLINE
  5
9D
330
17
100
AcDbEntity
  8
0
100
AcDbSpline
 70
0
 71
4
 72
10
 73
5
 74
0
 40
0.0
 40
0.0
 40
0.0
 40
0.0
 40
0.0
 40
1.0
 40
1.0
 40
1.0
 40
1.0
 40
1.0
 10
819.0999993998457
 20
26.44013195007374
 30
208.0
 10
820.0499975948718
 20
26.44325098943658
 30
208.0
 10
820.9999972003228
 20
26.446401203969803
 30
208.0
 10
821.9499982055771
 20
26.449581535240977
 30
208.0
 10
822.9000006001602
 20
26.452790924810266
 30
208.0
  0
LINE
  5
9E
330
17
100
AcDbEntity
  8
0
100
AcDbLine
 10
819.1
 20
26.44013195321662
 30
208.0
 11
819.1
 21
3.7806766928698097
 31
208.0
  0
SPLINE
  5
9F
330
17
100
AcDbEntity
  8
0
100
AcDbSpline
 70
0
 71
4
 72
13
 73
8
 74
0
 40
0.0
 40
0.0
 40
0.0
 40
0.0
 40
0.0
 40
0.641986456622957
 40
0.641986456622957
 40
0.641986456622957
 40
1.0
 40
1.0
 40
1.0
 40
1.0
 40
1.0
 10
819.0999999999932
 20
3.7806766924649917
 30
208.0
 10
815.5368455847466
 20
3.841593099892748
 30
208.0
 10
811.9737176287214
 20
3.9040562165995154
 30
208.0
 10
808.4106174637083
 20
3.968084912861191
 30
208.0
 10
802.8605456011353
 20
4.070288036118765
 30
208.0
 10
800.8735537871962
 20
4.107370846044847
 30
208.0
 10
798.8865712970852
 20
4.144949643204723
 30
208.0
 10
796.8995983811843
 20
4.183027648599885
 30
208.0
  0
LINE
  5
A0
330
17
100
AcDbEntity
  8
0
100
AcDbLine
 10
796.9
 20
26.37447236920623
 30
208.0
 11
796.9
 21
4.183019952052729
 31
208.0
  0
SPLINE
  5
A1
330
17
100
AcDbEntity
  8
0
100
AcDbSpline
 70
0
 71
4
 72
10
 73
5
 74
0
 40
0.0
 40
0.0
 40
0.0
 40
0.0
 40
0.0
 40
1.0
 40
1.0
 40
1.0
 40
1.0
 40
1.0
 10
793.0999993998789
 20
26.36488053553023
 30
208.0
 10
794.0499973652207
 20
26.367211056427372
 30
208.0
 10
794.9999968949696
 20
26.369587241522837
 30
208.0
 10
795.9499979771764
 20
26.372008032030273
 30
208.0
 10
796.9000006001204
 20
26.37447236914146
 30
208.0
  0
LINE
  5
A2
330
17
100
AcDbEntity
  8
0
100
AcDbLine
 10
793.1
 20
26.36488053758456
 30
208.0
 11
793.1
 21
4.256528761566772
 31
208.0
  0
SPLINE
  5
A3
330
17
100
AcDbEntity
  8
0
100
AcDbSpline
 70
0
 71
4
 72
19
 73
14
 74
0
 40
0.0
 40
0.0
 40
0.0
 40
0.0
 40
0.0
 40
0.2499958868387053
 40
0.2499958868387053
 40
0.2499958868387053
 40
0.4999940724641303
 40
0.4999940724641303
 40
0.4999940724641303
 40
0.749994641517119
 40
0.749994641517119
 40
0.749994641517119
 40
1.0
 40
1.0
 40
1.0
 40
1.0
 40
1.0
 10
793.1004015447456
 20
4.256520921240133
 30
208.0
 10
791.7128440718877
 20
4.28361353054945
 30
208.0
 10
790.3252913859177
 20
4.31095110150054
 30
208.0
 10
788.9377435740033
 20
4.338534766735739
 30
208.0
 10
786.1626451158971
 20
4.39419672692384
 30
208.0
 10
784.7750944698547
 20
4.422275030098166
 30
208.0
 10
783.3875488747681
 20
4.450601636469794
 30
208.0
 10
780.6124547386225
 20
4.5077539436319976
 30
208.0
 10
779.2249061976623
 20
4.5365796491810695
 30
208.0
 10
777.83736288838
 20
4.565655878304206
 30
208.0
 10
775.0622603354315
 20
4.624312160810897
 30
208.0
 10
773.6747010918738
 20
4.653892220068668
 30
208.0
 10
772.28714726475
 20
4.6837250399320105
 30
208.0
 10
770.8995989474633
 20
4.713811703102333
 30
208.0
  0
LINE
  5
A4
330
17
100
AcDbEntity
  8
0
100
AcDbLine
 10
770.9
 20
26.320615075996425
 30
208.0
 11
770.9
 21
4.713803006955894
 31
208.0
  0
SPLINE
  5
A5
330
17
100
AcDbEntity
  8
0
100
AcDbSpline
 70
0
 71
4
 72
10
 73
5
 74
0
 40
0.0
 40
0.0
 40
0.0
 40
0.0
 40
0.0
 40
1.0
 40
1.0
 40
1.0
 40
1.0
 40
1.0
 10
767.09999939993
 20
26.315280332808324
 30
208.0
 10
768.0499971037498
 20
26.316524838343177
 30
208.0
 10
768.9999965475109
 20
26.317829503661287
 30
208.0
 10
769.9499977174497
 20
26.319193269585167
 30
208.0
 10
770.9000006000841
 20
26.320615076894534
 30
208.0
  0
LINE
  5
A6
330
17
100
AcDbEntity
  8
0
100
AcDbLine
 10
767.1
 20
26.315280333594423
 30
208.0
 11
767.1
 21
4.796915261487772
 31
208.0
  0
SPLINE
  5
A7
330
17
100
AcDbEntity
  8
0
100
AcDbSpline
 70
0
 71
4
 72
19
 73
14
 74
0
 40
0.0
 40
0.0
 40
0.0
 40
0.0
 40
0.0
 40
0.2499764314958131
 40
0.2499764314958131
 40
0.2499764314958131
 40
0.4999802792985543
 40
0.4999802792985543
 40
0.4999802792985543
 40
0.74998692770345
 40
0.74998692770345
 40
0.74998692770345
 40
1.0
 40
1.0
 40
1.0
 40
1.0
 40
1.0
 10
767.1000000000003
 20
4.796915261489563
 30
208.0
 10
765.712570396753
 20
4.82752248784965
 30
208.0
 10
764.3251464320355
 20
4.858385034474071
 30
208.0
 10
762.9377282015888
 20
4.889504033646367
 30
208.0
 10
760.1627512375637
 20
4.95226056125154
 30
208.0
 10
758.7751925053343
 20
4.983898149969423
 30
208.0
 10
757.3876397026376
 20
5.015794450705255
 30
208.0
 10
754.612530610737
 20
5.080107052171286
 30
208.0
 10
753.224974321669
 20
5.112523358725892
 30
208.0
 10
751.8374241603254
 20
5.1452005988980805
 30
208.0
 10
749.0623006422021
 20
5.21108000914862
 30
208.0
 10
747.6747272856337
 20
5.244282188834476
 30
208.0
 10
746.2871602593351
 20
5.27774754435272
 30
208.0
 10
744.8995996655465
 20
5.311477158788106
 30
208.0
  0
LINE
  5
A8
330
17
100
AcDbEntity
  8
0
100
AcDbLine
 10
744.9
 20
26.29936261959105
 30
208.0
 11
744.9
 21
5.311467427236762
 31
208.0
  0
SPLINE
  5
A9
330
17
100
AcDbEntity
  8
0
100
AcDbSpline
 70
0
 71
4
 72
10
 73
5
 74
0
 40
0.0
 40
0.0
 40
0.0
 40
0.0
 40
0.0
 40
1.0
 40
1.0
 40
1.0
 40
1.0
 40
1.0
 10
741.099999399971
 20
26.299475546417526
 30
208.0
 10
742.0499968001851
 20
26.299336379120952
 30
208.0
 10
742.9999961442642
 20
26.299271874504537
 30
208.0
 10
743.949997416121
 20
26.299280972966933
 30
208.0
 10
744.9000006000294
 20
26.29936261484759
 30
208.0
  0
LINE
  5
AA
330
17
100
AcDbEntity
  8
0
100
AcDbLine
 10
741.1
 20
26.299475550204555
 30
208.0
 11
741.1
 21
5.40458499244764
 31
208.0
  0
SPLINE
  5
AB
330
17
100
AcDbEntity
  8
0
100
AcDbSpline
 70
0
 71
4
 72
19
 73
14
 74
0
 40
0.0
 40
0.0
 40
0.0
 40
0.0
 40
0.0
 40
0.24997535351234582
 40
0.24997535351234582
 40
0.24997535351234582
 40
0.4999785069949394
 40
0.4999785069949394
 40
0.4999785069949394
 40
0.7499849089855043
 40
0.7499849089855043
 40
0.7499849089855043
 40
1.0
 40
1.0
 40
1.0
 40
1.0
 40
1.0
 10
741.1000000000003
 20
5.40458499244947
 30
208.0
 10
739.7125706806444
 20
5.438856013039472
 30
208.0
 10
738.325147934508
 20
5.473392765384901
 30
208.0
 10
736.9377318663983
 20
5.50819638362264
 30
208.0
 10
734.1627590029334
 20
5.578343437862311
 30
208.0
 10
732.7752022091668
 20
5.613686937344223
 30
208.0
 10
731.3876523070763
 20
5.649299568473039
 30
208.0
 10
728.6125484731673
 20
5.721065780370691
 30
208.0
 10
727.2249945415329
 20
5.757219368165202
 30
208.0
 10
725.8374477182332
 20
5.793644314765115
 30
208.0
 10
723.0623202846308
 20
5.86704042252018
 30
208.0
 10
721.674739674708
 20
5.904011598699298
 30
208.0
 10
720.2871663945479
 20
5.941256386799851
 30
208.0
 10
718.8996005557616
 20
5.978775872576765
 30
208.0
  0
LINE
  5
AC
330
17
100
AcDbEntity
  8
0
100
AcDbLine
 10
718.9
 20
26.318863154245964
 30
208.0
 11
718.9
 21
5.978765071696529
 31
208.0
  0
SPLINE
  5
AD
330
17
100
AcDbEntity
  8
0
100
AcDbSpline
 70
0
 71
4
 72
10
 73
5
 74
0
 40
0.0
 40
0.0
 40
0.0
 40
0.0
 40
0.0
 40
1.0
 40
1.0
 40
1.0
 40
1.0
 40
1.0
 10
715.0999994000301
 20
26.325615065675088
 30
208.0
 10
716.0499964442865
 20
26.323794387139316
 30
208.0
 10
716.9999956715639
 20
26.322062882155397
 30
208.0
 10
717.9499970629531
 20
26.3204194906835
 30
208.0
 10
718.90000059998
 20
26.31886315260211
 30
208.0
  0
LINE
  5
AE
330
17
100
AcDbEntity
  8
0
100
AcDbLine
 10
715.1
 20
26.32561506533374
 30
208.0
 11
715.1
 21
6.082290743113962
 31
208.0
  0
SPLINE
  5
AF
330
17
100
AcDbEntity
  8
0
100
AcDbSpline
 70
0
 71
4
 72
19
 73
14
 74
0
 40
0.0
 40
0.0
 40
0.0
 40
0.0
 40
0.0
 40
0.2499924403127102
 40
0.2499924403127102
 40
0.2499924403127102
 40
0.49998849704972814
 40
0.49998849704972814
 40
0.49998849704972814
 40
0.7499882713664268
 40
0.7499882713664268
 40
0.7499882713664268
 40
0.9999754947947097
 40
0.9999754947947097
 40
0.9999754947947097
 40
0.9999754947947097
 40
0.9999754947947097
 10
715.100399298485
 20
6.0822797832471895
 30
208.0
 10
713.7128348631561
 20
6.120365355547835
 30
208.0
 10
712.3252780241687
 20
6.158727153305602
 30
208.0
 10
710.937728895979
 20
6.197366314604567
 30
208.0
 10
708.1626262197947
 20
6.275202120346597
 30
208.0
 10
706.7750726721189
 20
6.314398776770069
 30
208.0
 10
705.3875270669386
 20
6.353875018316564
 30
208.0
 10
702.6124313442009
 20
6.433389490665933
 30
208.0
 10
701.2248812268896
 20
6.4734277299797185
 30
208.0
 10
699.8373392883904
 20
6.513747790074766
 30
208.0
 10
697.0623416687088
 20
6.5949517453367985
 30
208.0
 10
695.6748859865785
 20
6.635835608901208
 30
208.0
 10
694.2874387234426
 20
6.677003514018276
 30
208.0
 10
692.900000001089
 20
6.718456557218409
 30
208.0
  0
LINE
  5
B0
330
17
100
AcDbEntity
  8
0
100
AcDbLine
 10
692.9
 20
26.38727003400075
 30
208.0
 11
692.9
 21
6.718456520768694
 31
208.0
  0
SPLINE
  5
B1
330
17
100
AcDbEntity
  8
0
100
AcDbSpline
 70
0
 71
4
 72
10
 73
5
 74
0
 40
0.0
 40
0.0
 40
0.0
 40
0.0
 40
0.0
 40
1.0
 40
1.0
 40
1.0
 40
1.0
 40
1.0
 10
689.099999400087
 20
26.401853026250826
 30
208.0
 10
690.0499960257531
 20
26.39805279675671
 30
208.0
 10
690.999995115684
 20
26.39435626021722
 30
208.0
 10
691.9499966476496
 20
26.390762356150063
 30
208.0
 10
692.900000599925
 20
26.387270023972672
 30
208.0
  0
LINE
  5
B2
330
17
100
AcDbEntity
  8
0
100
AcDbLine
 10
689.1
 20
26.4018530306867
 30
208.0
 11
689.1
 21
6.832794925803
 31
208.0
  0
SPLINE
  5
B3
330
17
100
AcDbEntity
  8
0
100
AcDbSpline
 70
0
 71
4
 72
19
 73
14
 74
0
 40
0.0
 40
0.0
 40
0.0
 40
0.0
 40
0.0
 40
0.2499972148125866
 40
0.2499972148125866
 40
0.2499972148125866
 40
0.499998531448658
 40
0.499998531448658
 40
0.499998531448658
 40
0.750001381578432
 40
0.750001381578432
 40
0.750001381578432
 40
1.0
 40
1.0
 40
1.0
 40
1.0
 40
1.0
 10
689.1003981856932
 20
6.8327828816672
 30
208.0
 10
687.7128097392584
 20
6.874828271731969
 30
208.0
 10
686.325230004695
 20
6.917160407255911
 30
208.0
 10
684.9376591069721
 20
6.9597804386973445
 30
208.0
 10
682.1625124710275
 20
7.0455992195738215
 30
208.0
 10
680.7749367332054
 20
7.088797982417582
 30
208.0
 10
679.3873700852994
 20
7.1322868932152605
 30
208.0
 10
676.6122467160694
 20
7.219847540733627
 30
208.0
 10
675.2246900026215
 20
7.263919521451757
 30
208.0
 10
673.8371425991644
 20
7.308282713577512
 30
208.0
 10
671.0620900317964
 20
7.397589096532885
 30
208.0
 10
669.6745848688062
 20
7.442532323724879
 30
208.0
 10
668.2870891568314
 20
7.487765362435578
 30
208.0
 10
666.8996029687764
 20
7.533287624161497
 30
208.0
  0
LINE
  5
B4
330
17
100
AcDbEntity
  8
0
100
AcDbLine
 10
666.9
 20
26.512742519193857
 30
208.0
 11
666.9
 21
7.533274607366365
 31
208.0
  0
SPLINE
  5
B5
330
17
100
AcDbEntity
  8
0
100
AcDbSpline
 70
0
 71
4
 72
10
 73
5
 74
0
 40
0.0
 40
0.0
 40
0.0
 40
0.0
 40
0.0
 40
1.0
 40
1.0
 40
1.0
 40
1.0
 40
1.0
 10
663.0999994001472
 20
26.536349372835534
 30
208.0
 10
664.0499955342835
 20
26.530271330969384
 30
208.0
 10
664.9999944628869
 20
26.524311510411422
 30
208.0
 10
665.949996159907
 20
26.518468850261538
 30
208.0
 10
666.9000005998618
 20
26.512742289484372
 30
208.0
  0
LINE
  5
B6
330
17
100
AcDbEntity
  8
0
100
AcDbLine
 10
663.1
 20
26.53634969753878
 30
208.0
 11
663.1
 21
7.6587630119371175
 31
208.0
  0
SPLINE
  5
B7
330
17
100
AcDbEntity
  8
0
100
AcDbSpline
 70
0
 71
4
 72
19
 73
14
 74
0
 40
0.0
 40
0.0
 40
0.0
 40
0.0
 40
0.0
 40
0.2501400464595714
 40
0.2501400464595714
 40
0.2501400464595714
 40
0.5001996561497013
 40
0.5001996561497013
 40
0.5001996561497013
 40
0.7501550283600035
 40
0.7501550283600035
 40
0.7501550283600035
 40
1.0
 40
1.0
 40
1.0
 40
1.0
 40
1.0
 10
663.100396793771
 20
7.658749822953245
 30
208.0
 10
661.7120110044569
 20
7.7048958640522045
 30
208.0
 10
660.3236348532969
 20
7.751330764023838
 30
208.0
 10
658.9352684156219
 20
7.7980540193450825
 30
208.0
 10
656.1590015671203
 20
7.892061142883078
 30
208.0
 10
654.7711011501143
 20
7.939344829688556
 30
208.0
 10
653.3832105910998
 20
7.986915725896463
 30
208.0
 10
650.6080278813614
 20
8.082611144693914
 30
208.0
 10
649.220735722365
 20
8.130735428224696
 30
208.0
 10
647.8334535665305
 20
8.179145839697084
 30
208.0
 10
645.0595221491936
 20
8.276516673071008
 30
208.0
 10
643.6728728786588
 20
8.325476839179938
 30
208.0
 10
642.2862337588151
 20
8.374722154963994
 30
208.0
 10
640.8996048683296
 20
8.42425228167105
 30
208.0
  0
LINE
  5
B8
330
17
100
AcDbEntity
  8
0
100
AcDbLine
 10
640.9
 20
26.703445305301415
 30
208.0
 11
640.9
 21
8.424238167648607
 31
208.0
  0
SPLINE
  5
B9
330
17
100
AcDbEntity
  8
0
100
AcDbSpline
 70
0
 71
4
 72
10
 73
5
 74
0
 40
0.0
 40
0.0
 40
0.0
 40
0.0
 40
0.0
 40
1.0
 40
1.0
 40
1.0
 40
1.0
 40
1.0
 10
637.0999994002118
 20
26.737270423042023
 30
208.0
 10
638.0499949595578
 20
26.728616065298127
 30
208.0
 10
638.9999936994194
 20
26.720094466439477
 30
208.0
 10
639.9499955894065
 20
26.711704565185766
 30
208.0
 10
640.9000005997977
 20
26.70344530008682
 30
208.0
  0
LINE
  5
BA
330
17
100
AcDbEntity
  8
0
100
AcDbLine
 10
637.1
 20
26.737270535311225
 30
208.0
 11
637.1
 21
8.560776100382293
 31
208.0
  0
SPLINE
  5
BB
330
17
100
AcDbEntity
  8
0
100
AcDbSpline
 70
0
 71
4
 72
19
 73
14
 74
0
 40
0.0
 40
0.0
 40
0.0
 40
0.0
 40
0.0
 40
0.2502893207330603
 40
0.2502893207330603
 40
0.2502893207330603
 40
0.5004096306958967
 40
0.5004096306958967
 40
0.5004096306958967
 40
0.7503126407628099
 40
0.7503126407628099
 40
0.7503126407628099
 40
1.0
 40
1.0
 40
1.0
 40
1.0
 40
1.0
 10
637.1
 20
8.560776100383855
 30
208.0
 10
635.7108058922671
 20
8.610984635031624
 30
208.0
 10
634.3216221622916
 20
8.661478633703435
 30
208.0
 10
632.9324488919782
 20
8.712257836158749
 30
208.0
 10
630.1550614840367
 20
8.814351677848565
 30
208.0
 10
628.7668473322935
 20
8.865665935721967
 30
208.0
 10
627.3786437915031
 20
8.91726454146987
 30
208.0
 10
624.6034641380135
 20
9.02098501742703
 30
208.0
 10
623.2164880067492
 20
9.07310639408809
 30
208.0
 10
621.8295226375842
 20
9.125511269040594
 30
208.0
 10
619.056810453548
 20
9.230842296384413
 30
208.0
 10
617.6710636198433
 20
9.283767956925889
 30
208.0
 10
616.2853277038887
 20
9.33697638437522
 30
208.0
 10
614.8996027943753
 20
9.390467484510248
 30
208.0
  0
LINE
  5
BC
330
17
100
AcDbEntity
  8
0
100
AcDbLine
 10
614.9
 20
26.967551302795997
 30
208.0
 11
614.9
 21
9.390452151773534
 31
208.0
  0
SPLINE
  5
BD
330
17
100
AcDbEntity
  8
0
100
AcDbSpline
 70
0
 71
4
 72
10
 73
5
 74
0
 40
0.0
 40
0.0
 40
0.0
 40
0.0
 40
0.0
 40
1.0
 40
1.0
 40
1.0
 40
1.0
 40
1.0
 10
611.0999994002809
 20
27.012789432648713
 30
208.0
 10
612.049994291239
 20
27.00125999301362
 30
208.0
 10
612.9999928114876
 20
26.989877859159964
 30
208.0
 10
613.9499949258179
 20
26.978641969487295
 30
208.0
 10
614.900000599747
 20
26.96755126219454
 30
208.0
  0
LINE
  5
BE
330
17
100
AcDbEntity
  8
0
100
AcDbLine
 10
611.1
 20
27.01278945497661
 30
208.0
 11
611.1
 21
9.53793609288896
 31
208.0
  0
SPLINE
  5
BF
330
17
100
AcDbEntity
  8
0
100
AcDbSpline
 70
0
 71
4
 72
19
 73
14
 74
0
 40
0.0
 40
0.0
 40
0.0
 40
0.0
 40
0.0
 40
0.2504681051456877
 40
0.2504681051456877
 40
0.2504681051456877
 40
0.5006409807912875
 40
0.5006409807912875
 40
0.5006409807912875
 40
0.7504800341663775
 40
0.7504800341663775
 40
0.7504800341663775
 40
1.0
 40
1.0
 40
1.0
 40
1.0
 40
1.0
 10
611.1
 20
9.53793609288975
 30
208.0
 10
609.7098087316891
 20
9.592183618392978
 30
208.0
 10
608.319628666179
 20
9.646715573022798
 30
208.0
 10
606.9294598965646
 20
9.70153193674347
 30
208.0
 10
604.1507837331876
 20
9.811668535851501
 30
208.0
 10
602.762276312711
 20
9.866988104105006
 30
208.0
 10
601.3737803518486
 20
9.922591427986442
 30
208.0
 10
598.5986642941731
 20
10.034291144155983
 30
208.0
 10
597.2120441665586
 20
10.090386779519731
 30
208.0
 10
595.8254356652842
 20
10.146765544396171
 30
208.0
 10
593.0540130441209
 20
10.260017201905013
 30
208.0
 10
591.6691988942056
 20
10.316889369008742
 30
208.0
 10
590.2843965462502
 20
10.374044186006207
 30
208.0
 10
588.8996061068377
 20
10.431481806806088
 30
208.0
  0
LINE
  5
C0
330
17
100
AcDbEntity
  8
0
100
AcDbLine
 10
588.9
 20
27.31323985775647
 30
208.0
 11
588.9
 21
10.4314654691172
 31
208.0
  0
SPLINE
  5
C1
330
17
100
AcDbEntity
  8
0
100
AcDbSpline
 70
0
 71
4
 72
10
 73
5
 74
0
 40
0.0
 40
0.0
 40
0.0
 40
0.0
 40
0.0
 40
1.0
 40
1.0
 40
1.0
 40
1.0
 40
1.0
 10
585.0999994003398
 20
27.371087162296128
 30
208.0
 10
586.0499935189388
 20
27.356383591811205
 30
208.0
 10
586.9999917852504
 20
27.341841883218898
 30
208.0
 10
587.9499941587362
 20
27.327460974692805
 30
208.0
 10
588.9000005996575
 20
27.313239804164958
 30
208.0
  0
LINE
  5
C2
330
17
100
AcDbEntity
  8
0
100
AcDbLine
 10
585.1
 20
27.371087447122953
 30
208.0
 11
585.1
 21
10.589879989268308
 31
208.0
  0
SPLINE
  5
C3
330
17
100
AcDbEntity
  8
0
100
AcDbSpline
 70
0
 71
4
 72
19
 73
14
 74
0
 40
0.0
 40
0.0
 40
0.0
 40
0.0
 40
0.0
 40
0.2506448890795775
 40
0.2506448890795775
 40
0.2506448890795775
 40
0.5008828045059813
 40
0.5008828045059813
 40
0.5008828045059813
 40
0.7506647329474692
 40
0.7506647329474692
 40
0.7506647329474692
 40
1.0
 40
1.0
 40
1.0
 40
1.0
 40
1.0
 10
585.1
 20
10.589879989269416
 30
208.0
 10
583.708846119449
 20
10.648167520075395
 30
208.0
 10
582.3177044089722
 20
10.706740731555353
 30
208.0
 10
580.9265749819133
 20
10.765599849539003
 30
208.0
 10
578.14659969805
 20
10.883794373095043
 30
208.0
 10
576.7577538011634
 20
10.943128852576821
 30
208.0
 10
575.3689203855091
 20
11.002748830488589
 30
208.0
 10
572.5938094994158
 20
11.12245125941629
 30
208.0
 10
571.2075319831667
 20
11.182532669766436
 30
208.0
 10
569.8212671558672
 20
11.242899173548777
 30
208.0
 10
567.0512420561786
 20
11.3640946549955
 30
207.99999999999997
 10
565.6674817380099
 20
11.424922610791135
 30
208.0
 10
564.2837343362538
 20
11.48603538917738
 30
208.0
 10
562.9000000000001
 20
11.547433404524677
 30
208.0
  0
LINE
  5
C4
330
17
100
AcDbEntity
  8
0
100
AcDbLine
 10
562.9
 20
27.748698577560017
 30
208.0
 11
562.9
 21
11.547433404523604
 31
208.0
  0
SPLINE
  5
C5
330
17
100
AcDbEntity
  8
0
100
AcDbSpline
 70
0
 71
4
 72
10
 73
5
 74
0
 40
0.0
 40
0.0
 40
0.0
 40
0.0
 40
0.0
 40
1.0
 40
1.0
 40
1.0
 40
1.0
 40
1.0
 10
559.0999994004308
 20
27.820352445745662
 30
208.0
 10
560.0499926323288
 20
27.802175392043285
 30
208.0
 10
560.9999906069227
 20
27.784174765240028
 30
208.0
 10
561.9499932778433
 20
27.766349503405287
 30
208.0
 10
562.9000005995929
 20
27.748698544320593
 30
208.0
  0
LINE
  5
C6
330
17
100
AcDbEntity
  8
0
100
AcDbLine
 10
559.1
 20
27.820352457906683
 30
208.0
 11
559.1
 21
11.716853064482024
 31
208.0
  0
SPLINE
  5
C7
330
17
100
AcDbEntity
  8
0
100
AcDbSpline
 70
0
 71
4
 72
19
 73
14
 74
0
 40
0.0
 40
0.0
 40
0.0
 40
0.0
 40
0.0
 40
0.2508230907994402
 40
0.2508230907994402
 40
0.2508230907994402
 40
0.501115430308557
 40
0.501115430308557
 40
0.501115430308557
 40
0.7508207912951638
 40
0.7508207912951638
 40
0.7508207912951638
 40
1.0
 40
1.0
 40
1.0
 40
1.0
 40
1.0
 10
559.1000000000001
 20
11.716853064483027
 30
208.0
 10
557.7078483763976
 20
11.779217497193585
 30
208.0
 10
556.3157101953274
 20
11.841871279568489
 30
208.0
 10
554.9235856216281
 20
11.90481489752946
 30
208.0
 10
552.1423098255989
 20
12.031149050513227
 30
208.0
 10
550.7531585455446
 20
12.094538359786318
 30
208.0
 10
549.3640211904274
 20
12.158217334392846
 30
208.0
 10
546.5890325083653
 20
12.286005773295571
 30
208.0
 10
545.203181116068
 20
12.350113877797728
 30
208.0
 10
543.8173440264035
 20
12.414511461607216
 30
208.0
 10
541.0486190615603
 20
12.54375057247715
 30
207.99999999999997
 10
539.6657311267135
 20
12.60859087706468
 30
207.99999999999994
 10
538.2828579838772
 20
12.673720726743396
 30
207.99999999999991
 10
536.9000000000001
 20
12.73914081218698
 30
207.9999999999999
  0
LINE
  5
C8
330
17
100
AcDbEntity
  8
0
100
AcDbLine
 10
536.9
 20
28.282123674127302
 30
208.0
 11
536.9
 21
12.739140812186303
 31
208.0
  0
SPLINE
  5
C9
330
17
100
AcDbEntity
  8
0
100
AcDbSpline
 70
0
 71
4
 72
10
 73
5
 74
0
 40
0.0
 40
0.0
 40
0.0
 40
0.0
 40
0.0
 40
1.0
 40
1.0
 40
1.0
 40
1.0
 40
1.0
 10
533.099999400494
 20
28.368782759817048
 30
208.0
 10
534.049991620961
 20
28.346832546627052
 30
208.0
 10
534.9999892625945
 20
28.32507333367671
 30
208.0
 10
535.9499922726936
 20
28.303504059086094
 30
208.0
 10
536.9000005994999
 20
28.282123660635264
 30
208.0
  0
LINE
  5
CA
330
17
100
AcDbEntity
  8
0
100
AcDbLine
 10
533.1
 20
28.368782745965053
 30
208.0
 11
533.1
 21
12.919735631173966
 31
208.0
  0
SPLINE
  5
CB
330
17
100
AcDbEntity
  8
0
100
AcDbSpline
 70
0
 71
6
 72
24
 73
17
 74
0
 40
0.0
 40
0.0
 40
0.0
 40
0.0
 40
0.0
 40
0.0
 40
0.0
 40
0.436303551269553
 40
0.436303551269553
 40
0.436303551269553
 40
0.436303551269553
 40
0.436303551269553
 40
0.8704284617265355
 40
0.8704284617265355
 40
0.8704284617265355
 40
0.8704284617265355
 40
0.8704284617265355
 40
1.0
 40
1.0
 40
1.0
 40
1.0
 40
1.0
 40
1.0
 40
1.0
 10
533.1000000000001
 20
12.919735631174627
 30
208.0
 10
531.4855482921351
 20
12.996813231808952
 30
208.0
 10
529.8711159239233
 20
13.074248088490819
 30
208.0
 10
528.2567033666753
 20
13.152041001043035
 30
208.0
 10
526.6423112596617
 20
13.230192792949161
 30
208.0
 10
525.0279404951773
 20
13.308704315107903
 30
208.0
 10
521.8073052081371
 20
13.466054743469845
 30
208.0
 10
520.2010407699421
 20
13.544890041360839
 30
208.0
 10
518.5947997772519
 20
13.624083229676819
 30
208.0
 10
516.9885841768946
 20
13.7036351789556
 30
208.0
 10
515.382396909061
 20
13.783546751470029
 30
208.0
 10
513.2968613577486
 20
13.887777167366538
 30
208.0
 10
512.8174821988175
 20
13.91176772386006
 30
208.00000000000006
 10
512.3381062439433
 20
13.935790403360079
 30
208.00000000000009
 10
511.8587337037916
 20
13.959845223422214
 30
208.0000000000001
 10
511.3793648469641
 20
13.983932198847441
 30
208.00000000000014
 10
510.90000000000015
 20
14.008051341682116
 30
208.00000000000017
  0
LINE
  5
CC
330
17
100
AcDbEntity
  8
0
100
AcDbLine
 10
510.9
 20
28.921720478217157
 30
208.0
 11
510.9
 21
14.008051341681952
 31
208.0
  0
SPLINE
  5
CD
330
17
100
AcDbEntity
  8
0
100
AcDbSpline
 70
0
 71
4
 72
10
 73
5
 74
0
 40
0.0
 40
0.0
 40
0.0
 40
0.0
 40
0.0
 40
1.0
 40
1.0
 40
1.0
 40
1.0
 40
1.0
 10
507.0999994005975
 20
29.02458475658293
 30
208.0
 10
508.04999047576047
 20
28.99856148832648
 30
208.0
 10
508.9999877380235
 20
28.972743534813066
 30
208.0
 10
509.94999113306767
 20
28.947130297601785
 30
208.0
 10
510.90000059941536
 20
28.921720462184638
 30
208.0
  0
LINE
  5
CE
330
17
100
AcDbEntity
  8
0
100
AcDbLine
 10
507.1
 20
29.024584746081764
 30
208.0
 11
507.1
 21
14.200096473027775
 31
208.0
  0
SPLINE
  5
CF
330
17
100
AcDbEntity
  8
0
100
AcDbSpline
 70
0
 71
8
 72
60
 73
51
 74
0
 40
0.0
 40
0.0
 40
0.0
 40
0.0
 40
0.0
 40
0.0
 40
0.0
 40
0.0
 40
0.0
 40
0.4835616608299285
 40
0.4835616608299285
 40
0.4835616608299285
 40
0.4835616608299285
 40
0.4835616608299285
 40
0.4835616608299285
 40
0.4835616608299285
 40
0.7288221289132785
 40
0.7288221289132785
 40
0.7288221289132785
 40
0.7288221289132785
 40
0.7288221289132785
 40
0.7288221289132785
 40
0.7288221289132785
 40
0.8565771140516338
 40
0.8565771140516338
 40
0.8565771140516338
 40
0.8565771140516338
 40
0.8565771140516338
 40
0.8565771140516338
 40
0.8565771140516338
 40
0.921599079076254
 40
0.921599079076254
 40
0.921599079076254
 40
0.921599079076254
 40
0.921599079076254
 40
0.921599079076254
 40
0.921599079076254
 40
0.9646993653174467
 40
0.9646993653174467
 40
0.9646993653174467
 40
0.9646993653174467
 40
0.9646993653174467
 40
0.9646993653174467
 40
0.9646993653174467
 40
0.9855063002809319
 40
0.9855063002809319
 40
0.9855063002809319
 40
0.9855063002809319
 40
0.9855063002809319
 40
0.9855063002809319
 40
0.9855063002809319
 40
1.0
 40
1.0
 40
1.0
 40
1.0
 40
1.0
 40
1.0
 40
1.0
 40
1.0
 40
1.0
 10
507.09999999999997
 20
14.200096473027871
 30
208.0
 10
506.6066416284078
 20
14.22514031140162
 30
208.0
 10
506.11329181298504
 20
14.25021653116063
 30
208.0
 10
505.6199507212707
 20
14.275325151181342
 30
208.0
 10
505.12661937676694
 20
14.300466145839327
 30
208.0
 10
504.63330010548844
 20
14.32563942373133
 30
208.0
 10
504.1399964370606
 20
14.350844831645567
 30
208.0
 10
503.6467135457172
 20
14.376082130214371
 30
208.0
 10
502.90328432521625
 20
14.414167096632287
 30
208.0
 10
502.65311726026187
 20
14.426991331915602
 30
208.0
 10
502.4029593666959
 20
14.439823583830778
 30
208.0
 10
502.1528119210998
 20
14.452663789879848
 30
208.0
 10
501.9026777538216
 20
14.46551180748397
 30
208.0
 10
501.6525611439743
 20
14.478367419136152
 30
208.0
 10
501.40246835108167
 20
14.491230304559537
 30
208.0
 10
501.02215589273646
 20
14.510803631639932
 30
208.0
 10
500.89191283200654
 20
14.517509084067367
 30
208.0
 10
500.76168111971225
 20
14.524216258477454
 30
208.0
 10
500.63146237185924
 20
14.530925071599132
 30
208.0
 10
500.5012602940388
 20
14.537635332274032
 30
208.0
 10
500.37108051377476
 20
14.544346749933705
 30
208.0
 10
500.24093129230334
 20
14.551058897545866
 30
208.0
 10
500.04460917124896
 20
14.561187236591792
 30
208.0
 10
499.97840521472597
 20
14.56460332286758
 30
208.0
 10
499.912215366784
 20
14.568019277811825
 30
208.0
 10
499.8460416673715
 20
14.571434995833032
 30
208.0
 10
499.779888741078
 20
14.574850237778678
 30
208.0
 10
499.71376360049726
 20
14.578264640982704
 30
208.0
 10
499.64767652564296
 20
14.581677673631182
 30
208.0
 10
499.53787582175187
 20
14.587349260847501
 30
208.0
 10
499.49415045668826
 20
14.589608088605393
 30
208.0
 10
499.45045545102124
 20
14.591865608338633
 30
208.0
 10
499.40679413433173
 20
14.594121647408144
 30
208.0
 10
499.363173426974
 20
14.596375848057226
 30
208.0
 10
499.31963389865723
 20
14.598626112334433
 30
208.0
 10
499.27621339211913
 20
14.600870482819001
 30
208.0
 10
499.21219011120616
 20
14.604180168575896
 30
208.0
 10
499.1917465516937
 20
14.605237053331734
 30
208.0
 10
499.17135546167646
 20
14.60629128591349
 30
208.0
 10
499.150874203229
 20
14.607350241486104
 30
208.0
 10
499.1303661932165
 20
14.608410638687301
 30
208.0
 10
499.1101009032937
 20
14.609458539627612
 30
208.0
 10
499.09055385990547
 20
14.610469349890366
 30
208.0
 10
499.0597656525039
 20
14.61206153724166
 30
208.0
 10
499.0526944716577
 20
14.612337972866307
 30
208.0
 10
499.0480290641338
 20
14.612523298327579
 30
208.0
 10
499.04382818964774
 20
14.61277811182738
 30
208.0
 10
499.03937340524453
 20
14.613137436847573
 30
208.0
 10
499.0351690652995
 20
14.613510722150004
 30
208.0
 10
499.03294232151785
 20
14.613681841776456
 30
208.0
 10
499.03564312293474
 20
14.61330909504869
 30
208.0
  0
SPLINE
  5
D0
330
17
100
AcDbEntity
  8
0
100
AcDbSpline
 70
0
 71
8
 72
18
 73
9
 74
0
 40
0.0
 40
0.0
 40
0.0
 40
0.0
 40
0.0
 40
0.0
 40
0.0
 40
0.0
 40
0.0
 40
1.0
 40
1.0
 40
1.0
 40
1.0
 40
1.0
 40
1.0
 40
1.0
 40
1.0
 40
1.0
 10
484.90000000010315
 20
16.166656940328785
 30
208.0
 10
486.6662817705097
 20
15.966463460325796
 30
208.0
 10
488.43278146280295
 20
15.768199070251029
 30
208.0
 10
490.1994838865647
 20
15.571749339985727
 30
208.0
 10
491.9663758944301
 20
15.377008930977798
 30
208.0
 10
493.7334462802588
 20
15.183880758655585
 30
208.0
 10
495.5006856962797
 20
14.992275310170083
 30
208.0
 10
497.2680865832273
 20
14.802110065766572
 30
208.0
 10
499.0356431229349
 20
14.613309095048683
 30
208.0
  0
LINE
  5
D1
330
17
100
AcDbEntity
  8
0
100
AcDbLine
 10
484.9
 20
29.675035601760904
 30
208.0
 11
484.9
 21
16.166656939417386
 31
208.0
  0
SPLINE
  5
D2
330
17
100
AcDbEntity
  8
0
100
AcDbSpline
 70
0
 71
4
 72
10
 73
5
 74
0
 40
0.0
 40
0.0
 40
0.0
 40
0.0
 40
0.0
 40
1.0
 40
1.0
 40
1.0
 40
1.0
 40
1.0
 10
481.0999994006853
 20
29.794919516794796
 30
208.0
 10
482.0499893944344
 20
29.764634387209828
 30
208.0
 10
482.99998629444497
 20
29.734558898027405
 30
208.0
 10
483.9499900471611
 20
29.70469273145829
 30
208.0
 10
484.90000059932606
 20
29.675035569339503
 30
208.0
  0
LINE
  5
D3
330
17
100
AcDbEntity
  8
0
100
AcDbLine
 10
481.1
 20
29.794919511845364
 30
208.0
 11
481.1
 21
16.60144303430944
 31
208.0
  0
SPLINE
  5
D4
330
17
100
AcDbEntity
  8
0
100
AcDbSpline
 70
0
 71
8
 72
18
 73
9
 74
0
 40
0.0
 40
0.0
 40
0.0
 40
0.0
 40
0.0
 40
0.0
 40
0.0
 40
0.0
 40
0.0
 40
1.0
 40
1.0
 40
1.0
 40
1.0
 40
1.0
 40
1.0
 40
1.0
 40
1.0
 40
1.0
 10
458.8999999980356
 20
19.348548583062655
 30
208.0
 10
461.6715115669923
 20
18.97788113029101
 30
208.0
 10
464.44427805305554
 20
18.616614959638532
 30
208.0
 10
467.2181464107396
 20
18.2638086146882
 30
208.0
 10
469.99298506669606
 20
17.91865003221219
 30
208.0
 10
472.7686804130693
 20
17.580427738104778
 30
208.0
 10
475.5451347160952
 20
17.2485136029761
 30
208.0
 10
478.3222646193744
 20
16.92235052742077
 30
208.0
 10
481.1000000002747
 20
16.60144303668476
 30
208.0
  0
LINE
  5
D5
330
17
100
AcDbEntity
  8
0
100
AcDbLine
 10
458.9
 20
30.545879583054447
 30
208.0
 11
458.9
 21
19.348548597750902
 31
208.0
  0
SPLINE
  5
D6
330
17
100
AcDbEntity
  8
0
100
AcDbSpline
 70
0
 71
4
 72
10
 73
5
 74
0
 40
0.0
 40
0.0
 40
0.0
 40
0.0
 40
0.0
 40
1.0
 40
1.0
 40
1.0
 40
1.0
 40
1.0
 10
455.0999994007805
 20
30.68315127891382
 30
208.0
 10
456.0499882713066
 20
30.64851258435408
 30
208.0
 10
456.99998479834306
 20
30.614087944312264
 30
208.0
 10
457.94998892613563
 20
30.579877041422492
 30
208.0
 10
458.9000005992334
 20
30.545879557927705
 30
208.0
  0
LINE
  5
D7
330
17
100
AcDbEntity
  8
0
100
AcDbLine
 10
455.1
 20
30.68315126112414
 30
208.0
 11
455.1
 21
19.864922411093062
 31
208.0
  0
SPLINE
  5
D8
330
17
100
AcDbEntity
  8
0
100
AcDbSpline
 70
0
 71
8
 72
32
 73
23
 74
0
 40
0.0
 40
0.0
 40
0.0
 40
0.0
 40
0.0
 40
0.0
 40
0.0
 40
0.0
 40
0.0
 40
0.12044469339742166
 40
0.12044469339742166
 40
0.12044469339742166
 40
0.12044469339742166
 40
0.12044469339742166
 40
0.12044469339742166
 40
0.12044469339742166
 40
0.9925993301090914
 40
0.9925993301090914
 40
0.9925993301090914
 40
0.9925993301090914
 40
0.9925993301090914
 40
0.9925993301090914
 40
0.9925993301090914
 40
1.0
 40
1.0
 40
1.0
 40
1.0
 40
1.0
 40
1.0
 40
1.0
 40
1.0
 40
1.0
 10
432.9000000011605
 20
23.306499029966666
 30
208.0
 10
433.233107463718
 20
23.247787354579792
 30
208.0
 10
433.5662671238127
 20
23.18937090227022
 30
208.0
 10
433.8994779427829
 20
23.131245313873713
 30
208.0
 10
434.2327389295233
 20
23.073406336987695
 30
208.0
 10
434.56604913945046
 20
23.015849820639897
 30
208.0
 10
434.8994076735258
 20
22.958571710266675
 30
208.0
 10
435.23281367730385
 20
22.901568042838754
 30
208.0
 10
437.98083752337976
 20
22.434023675986026
 30
208.0
 10
440.3978183137144
 20
22.037405116593128
 30
208.0
 10
442.8168772672614
 20
21.653514459291465
 30
208.0
 10
445.2377408446074
 20
21.281132374192442
 30
208.0
 10
447.66018297971175
 20
20.919218175145577
 30
208.0
 10
450.08401765875584
 20
20.566862054610215
 30
208.0
 10
452.5090945087721
 20
20.223256384274062
 30
208.0
 10
454.9558849454413
 20
19.88483859895141
 30
208.0
 10
454.9764725738254
 20
19.881991695311562
 30
208.0
 10
454.99706028113445
 20
19.879145370060776
 30
208.0
 10
455.0176480672974
 20
19.87629962276133
 30
208.0
 10
455.0382359322431
 20
19.873454452975977
 30
208.0
 10
455.05882387590054
 20
19.87060986026793
 30
208.0
 10
455.0794118981989
 20
19.867765844200857
 30
208.0
 10
455.09999999906717
 20
19.864922404338895
 30
208.0
  0
LINE
  5
D9
330
17
100
AcDbEntity
  8
0
100
AcDbLine
 10
432.9
 20
31.536766095480175
 30
208.0
 11
432.9
 21
23.30649902338134
 31
208.0
  0
SPLINE
  5
DA
330
17
100
AcDbEntity
  8
0
100
AcDbSpline
 70
0
 71
4
 72
10
 73
5
 74
0
 40
0.0
 40
0.0
 40
0.0
 40
0.0
 40
0.0
 40
1.0
 40
1.0
 40
1.0
 40
1.0
 40
1.0
 10
429.0999994008814
 20
31.691793277014185
 30
208.0
 10
430.0499871018803
 20
31.652709086103272
 30
208.0
 10
430.9999832405349
 20
31.613843366158402
 30
208.0
 10
431.94998775884903
 20
31.575195800301223
 30
208.0
 10
432.9000005991345
 20
31.536766071244102
 30
208.0
  0
LINE
  5
DB
330
17
100
AcDbEntity
  8
0
100
AcDbLine
 10
429.1
 20
31.691793252365382
 30
208.0
 11
429.1
 21
23.994401788751443
 31
208.0
  0
SPLINE
  5
DC
330
17
100
AcDbEntity
  8
0
100
AcDbSpline
 70
0
 71
8
 72
32
 73
23
 74
0
 40
0.0
 40
0.0
 40
0.0
 40
0.0
 40
0.0
 40
0.0
 40
0.0
 40
0.0
 40
0.0
 40
0.15941903681409447
 40
0.15941903681409447
 40
0.15941903681409447
 40
0.15941903681409447
 40
0.15941903681409447
 40
0.15941903681409447
 40
0.15941903681409447
 40
0.6306524889128393
 40
0.6306524889128393
 40
0.6306524889128393
 40
0.6306524889128393
 40
0.6306524889128393
 40
0.6306524889128393
 40
0.6306524889128393
 40
1.0
 40
1.0
 40
1.0
 40
1.0
 40
1.0
 40
1.0
 40
1.0
 40
1.0
 40
1.0
 10
406.8999999959369
 20
29.08447564410823
 30
208.0
 10
407.33575786706
 20
28.956957446364108
 30
208.0
 10
407.7720244066374
 20
28.83117610615057
 30
208.0
 10
408.2087697737765
 20
28.70706112214275
 30
208.0
 10
408.64596748346054
 20
28.584547839526095
 30
208.0
 10
409.08359411695324
 20
28.46357649781462
 30
208.0
 10
409.5216291181126
 20
28.344091562693272
 30
208.0
 10
409.9600546224541
 20
28.226041172088717
 30
208.0
 10
411.6959245875106
 20
27.764522582652816
 30
208.0
 10
412.99620954417367
 20
27.431793444824738
 30
208.0
 10
414.29926388053383
 20
27.10994279997785
 30
208.0
 10
415.60473225612327
 20
26.797991002112155
 30
208.0
 10
416.91232572382194
 20
26.49512377309664
 30
208.0
 10
418.2218100390362
 20
26.200643536015967
 30
208.0
 10
419.5330001462902
 20
25.9139464033113
 30
208.0
 10
421.8746761321461
 20
25.415469183723904
 30
208.0
 10
422.9045443330597
 20
25.200896614667116
 30
208.0
 10
423.9352850399324
 20
24.990524052085377
 30
208.0
 10
424.96683248226384
 20
24.784123709421742
 30
208.0
 10
425.99912777100053
 20
24.5814904012559
 30
208.0
 10
427.03211811144615
 20
24.38243746155157
 30
208.0
 10
428.06575624015466
 20
24.186793818221787
 30
208.0
 10
429.099999995993
 20
23.994401767211095
 30
208.0
  0
LINE
  5
DD
330
17
100
AcDbEntity
  8
0
100
AcDbLine
 10
406.9
 20
32.65021379511336
 30
208.0
 11
406.9
 21
29.08447565799268
 31
208.0
  0
SPLINE
  5
DE
330
17
100
AcDbEntity
  8
0
100
AcDbSpline
 70
0
 71
4
 72
10
 73
5
 74
0
 40
0.0
 40
0.0
 40
0.0
 40
0.0
 40
0.0
 40
1.0
 40
1.0
 40
1.0
 40
1.0
 40
1.0
 10
403.09999940098106
 20
32.82336511395952
 30
208.0
 10
404.04998588515525
 20
32.77974325975855
 30
208.0
 10
404.99998161969046
 20
32.73634429498958
 30
208.0
 10
405.94998654430344
 20
32.69316790332996
 30
208.0
 10
406.9000005990292
 20
32.65021376802873
 30
208.0
  0
LINE
  5
DF
330
17
100
AcDbEntity
  8
0
100
AcDbLine
 10
403.1
 20
32.82336508929138
 30
208.0
 11
403.1
 21
30.266514451615937
 31
208.0
  0
SPLINE
  5
E0
330
17
100
AcDbEntity
  8
0
100
AcDbSpline
 70
0
 71
8
 72
347
 73
338
 74
0
 40
0.0
 40
0.0
 40
0.0
 40
0.0
 40
0.0
 40
0.0
 40
0.0
 40
0.0
 40
0.0
 40
0.010551084909986368
 40
0.010551084909986368
 40
0.010551084909986368
 40
0.010551084909986368
 40
0.010551084909986368
 40
0.010551084909986368
 40
0.010551084909986368
 40
0.018696917899633146
 40
0.018696917899633146
 40
0.018696917899633146
 40
0.018696917899633146
 40
0.018696917899633146
 40
0.018696917899633146
 40
0.018696917899633146
 40
0.027747843082710315
 40
0.027747843082710315
 40
0.027747843082710315
 40
0.027747843082710315
 40
0.027747843082710315
 40
0.027747843082710315
 40
0.027747843082710315
 40
0.034083491339192
 40
0.034083491339192
 40
0.034083491339192
 40
0.034083491339192
 40
0.034083491339192
 40
0.034083491339192
 40
0.034083491339192
 40
0.04198786337515673
 40
0.04198786337515673
 40
0.04198786337515673
 40
0.04198786337515673
 40
0.04198786337515673
 40
0.04198786337515673
 40
0.04198786337515673
 40
0.04944302776463595
 40
0.04944302776463595
 40
0.04944302776463595
 40
0.04944302776463595
 40
0.04944302776463595
 40
0.04944302776463595
 40
0.04944302776463595
 40
0.057318432723961324
 40
0.057318432723961324
 40
0.057318432723961324
 40
0.057318432723961324
 40
0.057318432723961324
 40
0.057318432723961324
 40
0.057318432723961324
 40
0.06306848639741353
 40
0.06306848639741353
 40
0.06306848639741353
 40
0.06306848639741353
 40
0.06306848639741353
 40
0.06306848639741353
 40
0.06306848639741353
 40
0.06881854155001811
 40
0.06881854155001811
 40
0.06881854155001811
 40
0.06881854155001811
 40
0.06881854155001811
 40
0.06881854155001811
 40
0.06881854155001811
 40
0.07374716228493791
 40
0.07374716228493791
 40
0.07374716228493791
 40
0.07374716228493791
 40
0.07374716228493791
 40
0.07374716228493791
 40
0.07374716228493791
 40
0.08196150356179435
 40
0.08196150356179435
 40
0.08196150356179435
 40
0.08196150356179435
 40
0.08196150356179435
 40
0.08196150356179435
 40
0.08196150356179435
 40
0.09099725128320231
 40
0.09099725128320231
 40
0.09099725128320231
 40
0.09099725128320231
 40
0.09099725128320231
 40
0.09099725128320231
 40
0.09099725128320231
 40
0.10873576216313482
 40
0.10873576216313482
 40
0.10873576216313482
 40
0.10873576216313482
 40
0.10873576216313482
 40
0.10873576216313482
 40
0.10873576216313482
 40
0.14030189175148677
 40
0.14030189175148677
 40
0.14030189175148677
 40
0.14030189175148677
 40
0.14030189175148677
 40
0.14030189175148677
 40
0.14030189175148677
 40
0.15914078083110694
 40
0.15914078083110694
 40
0.15914078083110694
 40
0.15914078083110694
 40
0.15914078083110694
 40
0.15914078083110694
 40
0.15914078083110694
 40
0.1780128107100062
 40
0.1780128107100062
 40
0.1780128107100062
 40
0.1780128107100062
 40
0.1780128107100062
 40
0.1780128107100062
 40
0.1780128107100062
 40
0.20734038704605776
 40
0.20734038704605776
 40
0.20734038704605776
 40
0.20734038704605776
 40
0.20734038704605776
 40
0.20734038704605776
 40
0.20734038704605776
 40
0.23936435077447327
 40
0.23936435077447327
 40
0.23936435077447327
 40
0.23936435077447327
 40
0.23936435077447327
 40
0.23936435077447327
 40
0.23936435077447327
 40
0.271781908561862
 40
0.271781908561862
 40
0.271781908561862
 40
0.271781908561862
 40
0.271781908561862
 40
0.271781908561862
 40
0.271781908561862
 40
0.2934698302902497
 40
0.2934698302902497
 40
0.2934698302902497
 40
0.2934698302902497
 40
0.2934698302902497
 40
0.2934698302902497
 40
0.2934698302902497
 40
0.35851949495683855
 40
0.35851949495683855
 40
0.35851949495683855
 40
0.35851949495683855
 40
0.35851949495683855
 40
0.35851949495683855
 40
0.35851949495683855
 40
0.4343925874932843
 40
0.4343925874932843
 40
0.4343925874932843
 40
0.4343925874932843
 40
0.4343925874932843
 40
0.4343925874932843
 40
0.4343925874932843
 40
0.4712426896190329
 40
0.4712426896190329
 40
0.4712426896190329
 40
0.4712426896190329
 40
0.4712426896190329
 40
0.4712426896190329
 40
0.4712426896190329
 40
0.4907513558095068
 40
0.4907513558095068
 40
0.4907513558095068
 40
0.4907513558095068
 40
0.4907513558095068
 40
0.4907513558095068
 40
0.4907513558095068
 40
0.5099779777131282
 40
0.5099779777131282
 40
0.5099779777131282
 40
0.5099779777131282
 40
0.5099779777131282
 40
0.5099779777131282
 40
0.5099779777131282
 40
0.572837763760276
 40
0.572837763760276
 40
0.572837763760276
 40
0.572837763760276
 40
0.572837763760276
 40
0.572837763760276
 40
0.572837763760276
 40
0.6530289246742426
 40
0.6530289246742426
 40
0.6530289246742426
 40
0.6530289246742426
 40
0.6530289246742426
 40
0.6530289246742426
 40
0.6530289246742426
 40
0.7180272858201648
 40
0.7180272858201648
 40
0.7180272858201648
 40
0.7180272858201648
 40
0.7180272858201648
 40
0.7180272858201648
 40
0.7180272858201648
 40
0.7331893425130265
 40
0.7331893425130265
 40
0.7331893425130265
 40
0.7331893425130265
 40
0.7331893425130265
 40
0.7331893425130265
 40
0.7331893425130265
 40
0.7827592569566929
 40
0.7827592569566929
 40
0.7827592569566929
 40
0.7827592569566929
 40
0.7827592569566929
 40
0.7827592569566929
 40
0.7827592569566929
 40
0.8103338895256378
 40
0.8103338895256378
 40
0.8103338895256378
 40
0.8103338895256378
 40
0.8103338895256378
 40
0.8103338895256378
 40
0.8103338895256378
 40
0.8250511296247991
 40
0.8250511296247991
 40
0.8250511296247991
 40
0.8250511296247991
 40
0.8250511296247991
 40
0.8250511296247991
 40
0.8250511296247991
 40
0.8396418603056177
 40
0.8396418603056177
 40
0.8396418603056177
 40
0.8396418603056177
 40
0.8396418603056177
 40
0.8396418603056177
 40
0.8396418603056177
 40
0.8726735291517533
 40
0.8726735291517533
 40
0.8726735291517533
 40
0.8726735291517533
 40
0.8726735291517533
 40
0.8726735291517533
 40
0.8726735291517533
 40
0.8847053373285378
 40
0.8847053373285378
 40
0.8847053373285378
 40
0.8847053373285378
 40
0.8847053373285378
 40
0.8847053373285378
 40
0.8847053373285378
 40
0.8967371774671042
 40
0.8967371774671042
 40
0.8967371774671042
 40
0.8967371774671042
 40
0.8967371774671042
 40
0.8967371774671042
 40
0.8967371774671042
 40
0.9063626837086544
 40
0.9063626837086544
 40
0.9063626837086544
 40
0.9063626837086544
 40
0.9063626837086544
 40
0.9063626837086544
 40
0.9063626837086544
 40
0.9171913753977006
 40
0.9171913753977006
 40
0.9171913753977006
 40
0.9171913753977006
 40
0.9171913753977006
 40
0.9171913753977006
 40
0.9171913753977006
 40
0.9316295896598742
 40
0.9316295896598742
 40
0.9316295896598742
 40
0.9316295896598742
 40
0.9316295896598742
 40
0.9316295896598742
 40
0.9316295896598742
 40
0.9460678244155402
 40
0.9460678244155402
 40
0.9460678244155402
 40
0.9460678244155402
 40
0.9460678244155402
 40
0.9460678244155402
 40
0.9460678244155402
 40
0.9586309040230868
 40
0.9586309040230868
 40
0.9586309040230868
 40
0.9586309040230868
 40
0.9586309040230868
 40
0.9586309040230868
 40
0.9586309040230868
 40
0.9629022772531746
 40
0.9629022772531746
 40
0.9629022772531746
 40
0.9629022772531746
 40
0.9629022772531746
 40
0.9629022772531746
 40
0.9629022772531746
 40
0.9676157733973825
 40
0.9676157733973825
 40
0.9676157733973825
 40
0.9676157733973825
 40
0.9676157733973825
 40
0.9676157733973825
 40
0.9676157733973825
 40
0.9759068653844027
 40
0.9759068653844027
 40
0.9759068653844027
 40
0.9759068653844027
 40
0.9759068653844027
 40
0.9759068653844027
 40
0.9759068653844027
 40
0.9841981264023039
 40
0.9841981264023039
 40
0.9841981264023039
 40
0.9841981264023039
 40
0.9841981264023039
 40
0.9841981264023039
 40
0.9841981264023039
 40
0.9917356238423541
 40
0.9917356238423541
 40
0.9917356238423541
 40
0.9917356238423541
 40
0.9917356238423541
 40
0.9917356238423541
 40
0.9917356238423541
 40
0.9992731206968201
 40
0.9992731206968201
 40
0.9992731206968201
 40
0.9992731206968201
 40
0.9992731206968201
 40
0.9992731206968201
 40
0.9992731206968201
 40
1.0
 40
1.0
 40
1.0
 40
1.0
 40
1.0
 40
1.0
 40
1.0
 40
1.0
 40
1.0
 10
1628.8999999953764
 20
35.27818539667528
 30
208.0
 10
1629.5145445058777
 20
35.502039786209714
 30
208.0
 10
1630.1277487677146
 20
35.72957442568931
 30
208.0
 10
1630.7395006649972
 20
35.96101737524941
 30
208.0
 10
1631.3496664749782
 20
36.196627100764644
 30
208.0
 10
1631.9580878624752
 20
36.43670024999363
 30
208.0
 10
1632.5645776025558
 20
36.68158279111954
 30
208.0
 10
1633.168912234025
 20
36.93168905171837
 30
208.0
 10
1634.2355150814956
 20
37.38505446437797
 30
208.0
 10
1634.6887412566716
 20
37.58173571338337
 30
208.0
 10
1635.130522717553
 20
37.77757311139528
 30
208.0
 10
1635.560878941628
 20
37.972562901975174
 30
208.0
 10
1635.9798245380955
 20
38.1667014040533
 30
208.0
 10
1636.3873692478644
 20
38.359985011928636
 30
208.0
 10
1636.7835179435538
 20
38.55241019526897
 30
208.0
 10
1637.5957735968216
 20
38.95682160600181
 30
208.0
 10
1638.009207894589
 20
39.16860569693614
 30
208.0
 10
1638.4085735640463
 20
39.379321023246014
 30
208.0
 10
1638.79386399498
 20
39.5889628718107
 30
208.0
 10
1639.165065925716
 20
39.7975265650564
 30
208.0
 10
1639.5221594431187
 20
40.00500746095634
 30
208.0
 10
1639.865117982591
 20
40.21140095303073
 30
208.0
 10
1640.4240615927365
 20
40.560413546720206
 30
208.0
 10
1640.6472725430456
 20
40.70358955572252
 30
208.0
 10
1640.8635298459133
 20
40.846228919880446
 30
208.0
 10
1641.0728206614658
 20
40.98833005499529
 30
208.0
 10
1641.2751306430396
 20
41.12989137014282
 30
208.0
 10
1641.470443937184
 20
41.27091126767341
 30
208.0
 10
1641.6587431836601
 20
41.41138814321192
 30
208.0
 10
1642.066157885108
 20
41.72590023279288
 30
208.0
 10
1642.2884134761428
 20
41.90507275964341
 30
208.0
 10
1642.5065063650295
 20
42.08945464999685
 30
208.0
 10
1642.7197059063512
 20
42.279805263594234
 30
208.0
 10
1642.9269330068398
 20
42.476890337363784
 30
208.0
 10
1643.1267122810875
 20
42.68151875417828
 30
208.0
 10
1643.3169640888925
 20
42.894752379135745
 30
208.0
 10
1643.6622116500182
 20
43.329121901755215
 30
208.0
 10
1643.810101817494
 20
43.53843918816251
 30
208.0
 10
1643.9378336905163
 20
43.74621008339202
 30
208.0
 10
1644.0449241245362
 20
43.95240304737928
 30
208.0
 10
1644.1308788235026
 20
44.15698616638613
 30
208.0
 10
1644.1951910667424
 20
44.35992758019812
 30
208.0
 10
1644.237340435842
 20
44.561195909321675
 30
208.0
 10
1644.2773390876505
 20
44.971574732654204
 30
208.0
 10
1644.2730696045246
 20
45.18574382632276
 30
208.0
 10
1644.2406130865668
 20
45.39766684845013
 30
208.0
 10
1644.1801489621298
 20
45.60341695992117
 30
208.0
 10
1644.0945680859827
 20
45.80038204601072
 30
208.0
 10
1643.9881018090398
 20
45.986863627360584
 30
208.0
 10
1643.8655984287593
 20
46.16181476411182
 30
208.0
 10
1643.634300721751
 20
46.44358644687193
 30
208.0
 10
1643.5260652158458
 20
46.56173269739254
 30
208.0
 10
1643.4070396430955
 20
46.679107662685915
 30
208.0
 10
1643.2770552962977
 20
46.795703731520256
 30
208.0
 10
1643.1359388238582
 20
46.91151328958085
 30
208.0
 10
1642.9835122297884
 20
47.02652871946997
 30
208.0
 10
1642.819592873708
 20
47.140742400706884
 30
208.0
 10
1642.4683940228074
 20
47.36755104792119
 30
208.0
 10
1642.2811135951022
 20
47.48014619255861
 30
208.0
 10
1642.0819648815293
 20
47.59192456486412
 30
208.0
 10
1641.8707546008447
 20
47.70287858365758
 30
208.0
 10
1641.6472834967585
 20
47.813000665354636
 30
208.0
 10
1641.4113463379356
 20
47.922283223966836
 30
208.0
 10
1641.1627319179956
 20
48.030718671101546
 30
208.0
 10
1640.6770725095091
 20
48.23051152101588
 30
208.0
 10
1640.443447793894
 20
48.322095766601436
 30
208.0
 10
1640.2002120158754
 20
48.41304737920801
 30
208.0
 10
1639.947224241564
 20
48.503361577569066
 30
208.0
 10
1639.6843394959694
 20
48.593033572662065
 30
208.0
 10
1639.4114087630016
 20
48.682058567708516
 30
208.0
 10
1639.1282789854706
 20
48.77043175817399
 30
208.0
 10
1638.345651449275
 20
49.004342147420004
 30
208.0
 10
1637.8277371518816
 20
49.14871342925075
 30
208.0
 10
1637.280327364012
 20
49.29123811364019
 30
208.0
 10
1636.7026585734632
 20
49.43189369077237
 30
208.0
 10
1636.093926342728
 20
49.57065838493887
 30
208.0
 10
1635.4532850870053
 20
49.70751033484216
 30
208.0
 10
1634.7798478522072
 20
49.84242677389889
 30
208.0
 10
1633.2948105410107
 20
50.12163484277562
 30
208.0
 10
1632.4761097683004
 20
50.26551832757435
 30
208.0
 10
1631.6153546413875
 20
50.40700030081556
 30
208.0
 10
1630.7112290795587
 20
50.54604979384654
 30
208.0
 10
1629.762329830517
 20
50.68263692176852
 30
208.0
 10
1628.7671662460612
 20
50.8167315717195
 30
208.0
 10
1627.7241600577636
 20
50.948302091157196
 30
208.0
 10
1624.4868766035067
 20
51.3305834117213
 30
208.0
 10
1622.3384510437027
 20
51.55189484762861
 30
208.0
 10
1620.1875740150026
 20
51.74923855412224
 30
208.0
 10
1618.0349834028038
 20
51.926870929327556
 30
208.0
 10
1615.8812056276424
 20
52.08812437237757
 30
208.0
 10
1613.7265395720356
 20
52.23530541558041
 30
208.0
 10
1611.5711196723278
 20
52.370312286419214
 30
208.0
 10
1605.5778812157296
 20
52.715859888932634
 30
208.0
 10
1601.738971440458
 20
52.90321254864135
 30
208.0
 10
1597.8988284873044
 20
53.0650771022165
 30
208.0
 10
1594.0578669201363
 20
53.206160962882144
 30
208.0
 10
1590.2163753528203
 20
53.33008806140152
 30
208.0
 10
1586.3745148795676
 20
53.4394305501999
 30
208.0
 10
1582.532345397239
 20
53.53627745304926
 30
208.0
 10
1576.3965817783378
 20
53.673597590556206
 30
208.0
 10
1574.027861853161
 20
53.72274299939499
 30
208.0
 10
1571.5805554638134
 20
53.7696869841853
 30
208.0
 10
1569.0512357579175
 20
53.81440749134334
 30
208.0
 10
1566.4361588319189
 20
53.85688310688966
 30
208.0
 10
1563.7312637153518
 20
53.8970923545201
 30
208.0
 10
1560.932172355093
 20
53.935012993676466
 30
208.0
 10
1555.1311088012496
 20
54.00629228263593
 30
208.0
 10
1552.139406570311
 20
54.03951261156986
 30
208.0
 10
1549.0437515773817
 20
54.070431800702416
 30
208.0
 10
1545.8335025329072
 20
54.09906876104812
 30
208.0
 10
1542.5027085177437
 20
54.12536228569893
 30
208.0
 10
1539.0501093137034
 20
54.14922151717058
 30
208.0
 10
1535.479135734094
 20
54.170576414748965
 30
208.0
 10
1526.0771988934416
 20
54.2187243714811
 30
208.0
 10
1520.3564504949823
 20
54.2406333681879
 30
208.0
 10
1514.6356787236423
 20
54.256572288934066
 30
208.0
 10
1508.914893937472
 20
54.26756422010753
 30
208.0
 10
1503.1941032856469
 20
54.27440645219847
 30
208.0
 10
1497.4733108608132
 20
54.27774461180226
 30
208.0
 10
1491.7525177553957
 20
54.27810314304635
 30
208.0
 10
1479.7849546859231
 20
54.27354147364163
 30
208.0
 10
1473.5381877198201
 20
54.26813298096186
 30
208.0
 10
1467.2914221796248
 20
54.260268030447506
 30
208.0
 10
1461.0446587034724
 20
54.250396808029095
 30
208.0
 10
1454.7978976122106
 20
54.23888359977164
 30
208.0
 10
1448.5511388733235
 20
54.22603183818824
 30
208.0
 10
1442.3043820775672
 20
54.2120993227297
 30
208.0
 10
1429.7340943396864
 20
54.18232605788612
 30
208.0
 10
1423.4105638770905
 20
54.166464227336654
 30
208.0
 10
1417.0870346127256
 20
54.14994458564285
 30
208.0
 10
1410.763506179803
 20
54.132954536999705
 30
208.0
 10
1404.4399782486512
 20
54.11565160812613
 30
208.0
 10
1398.116450508573
 20
54.09817039315564
 30
208.0
 10
1391.7929226554807
 20
54.080627262247795
 30
208.0
 10
1381.2388416993288
 20
54.05141206058118
 30
208.0
 10
1377.0064883588987
 20
54.039713602482266
 30
208.0
 10
1372.772689055902
 20
54.02805874408912
 30
208.0
 10
1368.5377959086377
 20
54.01647570246889
 30
208.0
 10
1364.3021584605538
 20
54.00499000411276
 30
208.0
 10
1360.0661236789751
 20
53.99362486175831
 30
208.0
 10
1355.8300359538318
 20
53.98240155121171
 30
208.0
 10
1338.8895944513906
 20
53.938161690909595
 30
208.0
 10
1326.184947298564
 20
53.906432526507324
 30
208.0
 10
1313.480294754615
 20
53.87667301509733
 30
208.0
 10
1300.7756364690524
 20
53.8492252958512
 30
208.0
 10
1288.070972510765
 20
53.82430525067635
 30
208.0
 10
1275.3663032866189
 20
53.802040390284695
 30
208.0
 10
1262.6616294920725
 20
53.78249330263207
 30
208.0
 10
1235.13837971801
 20
53.74604895399574
 30
208.0
 10
1220.319802078241
 20
53.73013433319346
 30
208.0
 10
1205.5012204683253
 20
53.71793889992346
 30
208.0
 10
1190.682636090175
 20
53.70938010200157
 30
208.0
 10
1175.8640500369029
 20
53.70430980362056
 30
208.0
 10
1161.0454632805622
 20
53.702536114345385
 30
208.0
 10
1146.2268766645234
 20
53.703837979940936
 30
208.0
 10
1124.2111887327844
 20
53.70998060893892
 30
208.0
 10
1117.0140867387715
 20
53.7126569138998
 30
208.0
 10
1109.8169849844032
 20
53.71597366072533
 30
208.0
 10
1102.619883524754
 20
53.71990198413935
 30
208.0
 10
1095.4227824041238
 20
53.724412146537055
 30
208.0
 10
1088.2256816561496
 20
53.72947374174317
 30
208.0
 10
1081.0285813039175
 20
53.7350558987701
 30
208.0
 10
1070.021293267113
 20
53.74434182022953
 30
208.0
 10
1066.2111101639452
 20
53.74769332619409
 30
208.0
 10
1062.400931742859
 20
53.75117736908319
 30
208.0
 10
1058.5907577125988
 20
53.75478930101343
 30
208.0
 10
1054.7805877983653
 20
53.758524460604626
 30
208.0
 10
1050.9704217418168
 20
53.76237817297971
 30
208.0
 10
1047.160259301069
 20
53.766345749764824
 30
208.0
 10
1039.5950261344515
 20
53.77444028942612
 30
208.0
 10
1035.8399521318993
 20
53.77856455688992
 30
208.0
 10
1032.0848782403748
 20
53.782789705140985
 30
208.0
 10
1028.329804458536
 20
53.78711151423985
 30
208.0
 10
1024.574730785241
 20
53.7915262941369
 30
208.0
 10
1020.8196572184304
 20
53.79603004816155
 30
208.0
 10
1017.0645837540089
 20
53.800617636511646
 30
208.0
 10
1001.0326210919804
 20
53.820531477838294
 30
208.0
 10
988.7557329388626
 20
53.83657917510675
 30
208.0
 10
976.4788452230542
 20
53.85297939104002
 30
208.0
 10
964.2019573303347
 20
53.86929468943129
 30
208.0
 10
951.9250687312236
 20
53.885093184816384
 30
208.0
 10
939.6481789776195
 20
53.89994588891529
 30
208.0
 10
927.3712876994407
 20
53.91342405707363
 30
208.0
 10
899.432580079321
 20
53.93998728745385
 30
208.0
 10
883.7707636577833
 20
53.95193870787014
 30
208.0
 10
868.1089440668736
 20
53.960054943591416
 30
208.0
 10
852.4471216102197
 20
53.96342697682433
 30
208.0
 10
836.7852981622851
 20
53.961122165693844
 30
208.0
 10
821.1234771703126
 20
53.95216130981074
 30
208.0
 10
805.4616636607825
 20
53.93548324005711
 30
208.0
 10
777.1053068618847
 20
53.8891581375125
 30
208.0
 10
764.410760674635
 20
53.862566172761134
 30
208.0
 10
751.7162281555318
 20
53.82948806435139
 30
208.0
 10
739.0217144230055
 20
53.78922792833347
 30
208.0
 10
726.3272272749806
 20
53.741016414364765
 30
208.0
 10
713.632777301719
 20
53.683980431686635
 30
208.0
 10
700.9383780835417
 20
53.61709315750496
 30
208.0
 10
685.2828614195736
 20
53.520912006661604
 30
208.0
 10
682.3218104083103
 20
53.50211846647542
 30
208.0
 10
679.3608194558458
 20
53.48270174569709
 30
208.0
 10
676.3998702068757
 20
53.46264502043042
 30
208.0
 10
673.4389999345857
 20
53.44193660440203
 30
208.0
 10
670.4783015406514
 20
53.420569948961294
 30
208.0
 10
667.5179235552386
 20
53.398543643080416
 30
208.0
 10
654.8813037404755
 20
53.30170549838259
 30
208.0
 10
645.2045941529204
 20
53.220458015896746
 30
208.0
 10
635.5279466835851
 20
53.13193425675889
 30
208.0
 10
625.8513695315067
 20
53.035859105895234
 30
208.0
 10
616.1748740906214
 20
52.93184078596267
 30
208.0
 10
606.4984752263993
 20
52.81934561232739
 30
208.0
 10
596.8221919029438
 20
52.697640543739055
 30
208.0
 10
581.7634268237492
 20
52.492258231155795
 30
208.0
 10
576.3808494811128
 20
52.41566949643503
 30
208.0
 10
570.9983204958866
 20
52.33572288058678
 30
208.0
 10
565.6158452947587
 20
52.25220454022688
 30
208.0
 10
560.2334308152114
 20
52.1648635736507
 30
208.0
 10
554.8510856782484
 20
52.0734013629473
 30
208.0
 10
549.4688204654443
 20
51.97745470149957
 30
208.0
 10
541.214054140815
 20
51.82272957648852
 30
208.0
 10
538.3459128505954
 20
51.76756214764205
 30
208.0
 10
535.4823636015502
 20
51.71101448745107
 30
208.0
 10
532.6235488689509
 20
51.65302230622577
 30
208.0
 10
529.7696142314389
 20
51.593512957466615
 30
208.0
 10
526.9207083710259
 20
51.53240543786424
 30
208.0
 10
524.0769830730933
 20
51.46961038729944
 30
208.0
 10
518.4246021831443
 20
51.34100492273105
 30
208.0
 10
515.6106541821961
 20
51.275109316098224
 30
208.0
 10
512.7967533272338
 20
51.207219765459676
 30
208.0
 10
509.9829043665846
 20
51.13720642588961
 30
208.0
 10
507.16911269321713
 20
51.06493311102145
 30
208.0
 10
504.35538434474086
 20
50.99025729304793
 30
208.0
 10
501.54172600340723
 20
50.91303010272103
 30
208.0
 10
492.35853417003693
 20
50.65213582851699
 30
208.0
 10
485.9894199209933
 20
50.45727151808227
 30
208.0
 10
479.62078582715014
 20
50.24654605711187
 30
208.0
 10
473.252716479617
 20
50.0174504791537
 30
208.0
 10
466.8853976313661
 20
49.76687516371418
 30
208.0
 10
460.5191496377516
 20
49.49038798572095
 30
208.0
 10
454.15442673680366
 20
49.18219295391608
 30
208.0
 10
445.4744240387822
 20
48.704206958958586
 30
208.0
 10
443.2372426032864
 20
48.57539909416978
 30
208.0
 10
441.07726061187554
 20
48.44540108698987
 30
208.0
 10
438.99151147784437
 20
48.31420764055011
 30
208.0
 10
436.9772147673525
 20
48.18181266425996
 30
208.0
 10
435.0317761008935
 20
48.04821072566864
 30
208.0
 10
433.152787054762
 20
47.91339850232661
 30
208.0
 10
429.52325824947735
 20
47.64135360363245
 30
208.0
 10
427.77266793572375
 20
47.50411714058322
 30
208.0
 10
426.08401656695105
 20
47.36566613764533
 30
208.0
 10
424.45518630777684
 20
47.22599842982232
 30
208.0
 10
422.88417893980596
 20
47.085111487660456
 30
208.0
 10
421.3691157596897
 20
46.94300351093375
 30
208.0
 10
419.9082374771859
 20
46.799674522329155
 30
208.0
 10
417.3732334270266
 20
46.53948940213717
 30
208.0
 10
416.2801761913725
 20
46.423070529533554
 30
208.0
 10
415.219885950974
 20
46.30587111998936
 30
208.0
 10
414.1915504904035
 20
46.18789174428933
 30
208.0
 10
413.1943918340867
 20
46.06913326733424
 30
208.0
 10
412.2276662463036
 20
45.94959684814098
 30
208.0
 10
411.2906642311881
 20
45.82928393984246
 30
208.0
 10
409.3612628891621
 20
45.571972718898536
 30
208.0
 10
408.3765698823519
 20
45.43476770372382
 30
208.0
 10
407.427669652544
 20
45.2965846450018
 30
208.0
 10
406.5136406951533
 20
45.157426433809235
 30
208.0
 10
405.6336017794129
 20
45.01729593923449
 30
208.0
 10
404.7867118670249
 20
44.876196496150946
 30
208.0
 10
403.9721700308101
 20
44.734132392990226
 30
208.0
 10
402.1452788179132
 20
44.40041252733724
 30
208.0
 10
401.1574755431879
 20
44.20800718088573
 30
208.0
 10
400.2240069063615
 20
44.01390724785668
 30
208.0
 10
399.34316324067873
 20
43.81812611625108
 30
208.0
 10
398.513323940617
 20
43.62067636947766
 30
208.0
 10
397.7329571704685
 20
43.42157101204638
 30
208.0
 10
397.00061919633697
 20
43.22082618585306
 30
208.0
 10
395.6292865135321
 20
42.81610428102763
 30
208.0
 10
394.9902712379866
 20
42.61212120757716
 30
208.0
 10
394.3965471712714
 20
42.40653689419116
 30
208.0
 10
393.8468138860811
 20
42.19937189363916
 30
208.0
 10
393.339831286876
 20
41.99064580558651
 30
208.0
 10
392.8744191737468
 20
41.78037835547303
 30
208.0
 10
392.4494559547154
 20
41.568592320656286
 30
208.0
 10
391.72837390623516
 20
41.16974309347754
 30
208.0
 10
391.40467470996816
 20
40.973077915577434
 30
208.0
 10
391.08935531341166
 20
40.7605191682121
 30
208.0
 10
390.78404026826405
 20
40.52756174039474
 30
208.0
 10
390.49553429661415
 20
40.2699897648016
 30
208.0
 10
390.23568196531755
 20
39.98385339074257
 30
208.0
 10
390.0218461225629
 20
39.6651288579656
 30
208.0
 10
389.8265555669325
 20
39.18965143656677
 30
208.0
 10
389.78508237212725
 20
39.06541695504541
 30
208.0
 10
389.7527984379302
 20
38.9382643230016
 30
208.0
 10
389.73045077877225
 20
38.80893619594409
 30
208.0
 10
389.7184216638953
 20
38.678243522410355
 30
208.0
 10
389.7167286173522
 20
38.54706554396667
 30
208.0
 10
389.72502441800685
 20
38.416349795208085
 30
208.0
 10
389.7619887008201
 20
38.14449722851331
 30
208.0
 10
389.792799506262
 20
38.003586528865696
 30
208.0
 10
389.8338506107119
 20
37.865122601252686
 30
208.0
 10
389.8840148653738
 20
37.72965296759746
 30
208.0
 10
389.9422168778024
 20
37.59753007530923
 30
208.0
 10
390.0074330119042
 20
37.46891129728327
 30
208.0
 10
390.0786913879371
 20
37.343758931900894
 30
208.0
 10
390.2894260194711
 20
37.00738380695152
 30
208.0
 10
390.44682131310276
 20
36.79206020512495
 30
208.0
 10
390.6267076139693
 20
36.57590059029427
 30
208.0
 10
390.82854545785744
 20
36.35893845373446
 30
208.0
 10
391.0518052993337
 20
36.14120897173568
 30
208.0
 10
391.29596674530154
 20
35.922748392088
 30
208.0
 10
391.560517788559
 20
35.70359342056623
 30
208.0
 10
392.1293960929685
 20
35.263963312928865
 30
208.0
 10
392.4336398208603
 20
35.043511215306665
 30
208.0
 10
392.75757427721
 20
34.82240516114657
 30
208.0
 10
393.10119504279226
 20
34.600732312260575
 30
208.0
 10
393.46445210616656
 20
34.37851451428731
 30
208.0
 10
393.84729446002495
 20
34.15575873483323
 30
208.0
 10
394.24973360142195
 20
33.93252999695439
 30
208.0
 10
395.0553970471999
 20
33.505499606562466
 30
208.0
 10
395.4552255765028
 20
33.301779255041
 30
208.0
 10
395.87122789227783
 20
33.09771170546483
 30
208.0
 10
396.30340533034837
 20
32.89332215325739
 30
208.0
 10
396.7517663805958
 20
32.68863546302753
 30
208.0
 10
397.21632668695975
 20
32.483676168569616
 30
208.0
 10
397.69710904743755
 20
32.27846847286348
 30
208.0
 10
398.69117774211685
 20
31.867604039245283
 30
208.0
 10
399.2044642948922
 20
31.661947106867395
 30
208.0
 10
399.734032920291
 20
31.45608934723929
 30
208.0
 10
400.27992089109375
 20
31.25005400577436
 30
208.0
 10
400.8421729049817
 20
31.04386367700092
 30
208.0
 10
401.42084108453645
 20
30.83754030456217
 30
208.0
 10
402.01598497723984
 20
30.6311051812162
 30
208.0
 10
402.68665961508293
 20
30.404662569860413
 30
208.0
 10
402.74566310630746
 20
30.384792074526132
 30
208.0
 10
402.8046818817753
 20
30.364967132011994
 30
208.0
 10
402.86371579622346
 20
30.34518741659032
 30
208.0
 10
402.9227647064572
 20
30.325452607492277
 30
208.0
 10
402.98182847131034
 20
30.30576238877791
 30
208.0
 10
403.04090695160687
 20
30.286116449210688
 30
208.0
 10
403.100000010124
 20
30.26651448213641
 30
208.0
  0
LINE
  5
E1
330
17
100
AcDbEntity
  8
0
100
AcDbLine
 10
1628.9
 20
40.248616411951815
 30
208.0
 11
1628.9
 21
35.2781853839827
 31
208.0
  0
SPLINE
  5
E2
330
17
100
AcDbEntity
  8
0
100
AcDbSpline
 70
0
 71
4
 72
10
 73
5
 74
0
 40
0.0
 40
0.0
 40
0.0
 40
0.0
 40
0.0
 40
1.0
 40
1.0
 40
1.0
 40
1.0
 40
1.0
 10
1625.0999994022777
 20
39.92344194453569
 30
208.0
 10
1626.0500624560673
 20
40.004109229437745
 30
208.0
 10
1627.0000839577249
 20
40.08519301985147
 30
208.0
 10
1627.9500634286183
 20
40.1666948558138
 30
208.0
 10
1628.9000005978312
 20
40.248616288429005
 30
208.0
  0
LINE
  5
E3
330
17
100
AcDbEntity
  8
0
100
AcDbLine
 10
1625.1
 20
39.923442150485776
 30
208.0
 11
1625.1
 21
33.956972461087155
 31
208.0
  0
SPLINE
  5
E4
330
17
100
AcDbEntity
  8
0
100
AcDbSpline
 70
0
 71
8
 72
32
 73
23
 74
0
 40
0.0
 40
0.0
 40
0.0
 40
0.0
 40
0.0
 40
0.0
 40
0.0
 40
0.0
 40
0.0
 40
0.059496964288805416
 40
0.059496964288805416
 40
0.059496964288805416
 40
0.059496964288805416
 40
0.059496964288805416
 40
0.059496964288805416
 40
0.059496964288805416
 40
0.6340015468803547
 40
0.6340015468803547
 40
0.6340015468803547
 40
0.6340015468803547
 40
0.6340015468803547
 40
0.6340015468803547
 40
0.6340015468803547
 40
1.0
 40
1.0
 40
1.0
 40
1.0
 40
1.0
 40
1.0
 40
1.0
 40
1.0
 40
1.0
 10
1602.8999999940286
 20
27.817737466994764
 30
208.0
 10
1603.0668228638447
 20
27.856914048110603
 30
208.0
 10
1603.2336248311772
 20
27.896179519058542
 30
208.0
 10
1603.4004057426134
 20
27.935534297823683
 30
208.0
 10
1603.5671654426628
 20
27.974978808800447
 30
208.0
 10
1603.7339037737213
 20
28.01451348295769
 30
208.0
 10
1603.9006205760325
 20
28.054138758008072
 30
208.0
 10
1604.06731568765
 20
28.093855078581633
 30
208.0
 10
1605.84339122133
 20
28.51804845346587
 30
208.0
 10
1607.450740247618
 20
28.91096218341555
 30
208.0
 10
1609.0558978276897
 20
29.312811171765947
 30
208.0
 10
1610.6586889602427
 20
29.72406847819676
 30
208.0
 10
1612.258900136888
 20
30.145280112513195
 30
208.0
 10
1613.856271963705
 20
30.577093052316236
 30
208.0
 10
1615.4504861057094
 20
31.02030430238404
 30
208.0
 10
1618.0545053354192
 20
31.766196156444117
 30
208.0
 10
1619.0664078842724
 20
32.061496421361284
 30
208.0
 10
1620.0767578468688
 20
32.36209739641871
 30
208.0
 10
1621.0854355746342
 20
32.668298751367146
 30
208.0
 10
1622.0922946193025
 20
32.98044516977074
 30
208.0
 10
1623.0971583623054
 20
33.29893704392687
 30
208.0
 10
1624.0998138600785
 20
33.62425002027728
 30
208.0
 10
1625.099999986774
 20
33.95697250084733
 30
208.0
  0
LINE
  5
E5
330
17
100
AcDbEntity
  8
0
100
AcDbLine
 10
1602.9
 20
38.12318340416883
 30
208.0
 11
1602.9
 21
27.817737441568333
 31
208.0
  0
SPLINE
  5
E6
330
17
100
AcDbEntity
  8
0
100
AcDbSpline
 70
0
 71
4
 72
10
 73
5
 74
0
 40
0.0
 40
0.0
 40
0.0
 40
0.0
 40
0.0
 40
1.0
 40
1.0
 40
1.0
 40
1.0
 40
1.0
 10
1599.0999994012411
 20
37.831696521933424
 30
208.0
 10
1600.0500511557775
 20
37.90397396481631
 30
208.0
 10
1601.0000689661672
 20
37.9766463029638
 30
208.0
 10
1601.950052294088
 20
38.04971506264098
 30
208.0
 10
1602.9000005982014
 20
38.123181770301834
 30
208.0
  0
LINE
  5
E7
330
17
100
AcDbEntity
  8
0
100
AcDbLine
 10
1599.1
 20
37.83169821905051
 30
208.0
 11
1599.1
 21
26.946034560420564
 31
208.0
  0
SPLINE
  5
E8
330
17
100
AcDbEntity
  8
0
100
AcDbSpline
 70
0
 71
8
 72
25
 73
16
 74
0
 40
0.0
 40
0.0
 40
0.0
 40
0.0
 40
0.0
 40
0.0
 40
0.0
 40
0.0
 40
0.0
 40
0.5114351555175463
 40
0.5114351555175463
 40
0.5114351555175463
 40
0.5114351555175463
 40
0.5114351555175463
 40
0.5114351555175463
 40
0.5114351555175463
 40
1.0
 40
1.0
 40
1.0
 40
1.0
 40
1.0
 40
1.0
 40
1.0
 40
1.0
 40
1.0
 10
1576.8999999952584
 20
22.558881747500163
 30
208.0
 10
1578.3254145847284
 20
22.806893111353872
 30
208.0
 10
1579.750073558138
 20
23.059232446202003
 30
208.0
 10
1581.1739454093304
 20
23.315988705343223
 30
208.0
 10
1582.5969968198706
 20
23.5772559155707
 30
208.0
 10
1584.0191924996516
 20
23.8431341328616
 30
208.0
 10
1585.4404949841783
 20
24.11373066042703
 30
208.0
 10
1586.86086437193
 20
24.38916162753664
 30
208.0
 10
1589.6361792670414
 20
24.937407957598616
 30
208.0
 10
1590.9912016519443
 20
25.209788014061495
 30
208.0
 10
1592.345287643017
 20
25.486804551838166
 30
208.0
 10
1593.6983948758425
 20
25.768577231533335
 30
208.0
 10
1595.0504759134874
 20
26.055235998584745
 30
208.0
 10
1596.4014777900397
 20
26.346923174673123
 30
208.0
 10
1597.7513412943993
 20
26.643796708478185
 30
208.0
 10
1599.099999994317
 20
26.946034585780602
 30
208.0
  0
LINE
  5
E9
330
17
100
AcDbEntity
  8
0
100
AcDbLine
 10
1576.9
 20
36.22287234724196
 30
208.0
 11
1576.9
 21
22.558881720245132
 31
208.0
  0
SPLINE
  5
EA
330
17
100
AcDbEntity
  8
0
100
AcDbSpline
 70
0
 71
4
 72
10
 73
5
 74
0
 40
0.0
 40
0.0
 40
0.0
 40
0.0
 40
0.0
 40
1.0
 40
1.0
 40
1.0
 40
1.0
 40
1.0
 10
1573.0999993983185
 20
35.96323971302668
 30
208.0
 10
1574.0500402419302
 20
36.02758565090209
 30
208.0
 10
1575.0000544018328
 20
36.092305148106504
 30
208.0
 10
1575.9500413607602
 20
36.157399722653565
 30
208.0
 10
1576.9000005986456
 20
36.22287089278565
 30
208.0
  0
LINE
  5
EB
330
17
100
AcDbEntity
  8
0
100
AcDbLine
 10
1573.1
 20
35.963241157843754
 30
208.0
 11
1573.1
 21
21.911368652013344
 31
208.0
  0
SPLINE
  5
EC
330
17
100
AcDbEntity
  8
0
100
AcDbSpline
 70
0
 71
8
 72
18
 73
9
 74
0
 40
0.0
 40
0.0
 40
0.0
 40
0.0
 40
0.0
 40
0.0
 40
0.0
 40
0.0
 40
0.0
 40
1.0
 40
1.0
 40
1.0
 40
1.0
 40
1.0
 40
1.0
 40
1.0
 40
1.0
 40
1.0
 10
1550.899999999376
 20
18.62514958978698
 30
208.0
 10
1553.6817628907395
 20
18.988469343944935
 30
208.0
 10
1556.461865956452
 20
19.364420047296193
 30
208.0
 10
1559.2401941957492
 20
19.753440131229667
 30
208.0
 10
1562.0166163868475
 20
20.15598430616022
 30
208.0
 10
1564.7909844297294
 20
20.572527379519073
 30
208.0
 10
1567.563132122039
 20
21.00357116658632
 30
208.0
 10
1570.3328735973917
 20
21.449653612605566
 30
208.0
 10
1573.1000000001263
 20
21.9113686512558
 30
208.0
  0
LINE
  5
ED
330
17
100
AcDbEntity
  8
0
100
AcDbLine
 10
1550.9
 20
34.535231873782465
 30
208.0
 11
1550.9
 21
18.6251495850089
 31
208.0
  0
SPLINE
  5
EE
330
17
100
AcDbEntity
  8
0
100
AcDbSpline
 70
0
 71
4
 72
10
 73
5
 74
0
 40
0.0
 40
0.0
 40
0.0
 40
0.0
 40
0.0
 40
1.0
 40
1.0
 40
1.0
 40
1.0
 40
1.0
 10
1547.0999994009849
 20
34.305654053093875
 30
208.0
 10
1548.0500297729614
 20
34.362518213480826
 30
208.0
 10
1549.0000404290213
 20
34.41973484486955
 30
208.0
 10
1549.9500308712065
 20
34.47730545777644
 30
208.0
 10
1550.9000005989644
 20
34.535231562959936
 30
208.0
  0
LINE
  5
EF
330
17
100
AcDbEntity
  8
0
100
AcDbLine
 10
1547.1
 20
34.30565426453622
 30
208.0
 11
1547.1
 21
18.139196573091745
 31
208.0
  0
SPLINE
  5
F0
330
17
100
AcDbEntity
  8
0
100
AcDbSpline
 70
0
 71
8
 72
18
 73
9
 74
0
 40
0.0
 40
0.0
 40
0.0
 40
0.0
 40
0.0
 40
0.0
 40
0.0
 40
0.0
 40
0.0
 40
0.004860929356372394
 40
0.004860929356372394
 40
0.004860929356372394
 40
0.004860929356372394
 40
0.004860929356372394
 40
0.004860929356372394
 40
0.004860929356372394
 40
0.004860929356372394
 40
0.004860929356372394
 10
1543.9479720250981
 20
17.75146255642292
 30
208.0
 10
1544.342080228823
 20
17.79909185668241
 30
208.0
 10
1544.7361590427497
 20
17.84695806039242
 30
208.0
 10
1545.130208211508
 20
17.895062345436003
 30
208.0
 10
1545.524227473403
 20
17.943405895115205
 30
208.0
 10
1545.9182165604147
 20
17.991989898172474
 30
208.0
 10
1546.3121751981903
 20
18.04081554884866
 30
208.0
 10
1546.7061031060307
 20
18.089884046973296
 30
208.0
 10
1547.0999999968717
 20
18.13919659808432
 30
208.0
  0
ENDSEC
  0
SECTION
  2
OBJECTS
  0
DICTIONARY
  5
A
330
0
100
AcDbDictionary
281
1
  3
ACAD_COLOR
350
B
  3
ACAD_GROUP
350
C
  3
ACAD_LAYOUT
350
D
  3
ACAD_MATERIAL
350
E
  3
ACAD_MLEADERSTYLE
350
F
  3
ACAD_MLINESTYLE
350
10
  3
ACAD_PLOTSETTINGS
350
11
  3
ACAD_PLOTSTYLENAME
350
12
  3
ACAD_SCALELIST
350
14
  3
ACAD_TABLESTYLE
350
15
  3
ACAD_VISUALSTYLE
350
16
  3
EZDXF_META
350
2D
  0
DICTIONARY
  5
B
330
A
100
AcDbDictionary
281
1
  0
DICTIONARY
  5
C
330
A
100
AcDbDictionary
281
1
  0
DICTIONARY
  5
D
330
A
100
AcDbDictionary
281
1
  3
Model
350
1A
  3
Layout1
350
1E
  0
DICTIONARY
  5
E
330
A
100
AcDbDictionary
281
1
  3
ByBlock
350
1F
  3
ByLayer
350
20
  3
Global
350
21
  0
DICTIONARY
  5
F
330
A
100
AcDbDictionary
281
1
  3
Standard
350
2C
  0
DICTIONARY
  5
10
330
A
100
AcDbDictionary
281
1
  3
Standard
350
22
  0
DICTIONARY
  5
11
330
A
100
AcDbDictionary
281
1
  0
ACDBDICTIONARYWDFLT
  5
12
330
A
100
AcDbDictionary
281
1
  3
Normal
350
13
100
AcDbDictionaryWithDefault
340
13
  0
ACDBPLACEHOLDER
  5
13
330
12
  0
DICTIONARY
  5
14
330
A
100
AcDbDictionary
281
1
  0
DICTIONARY
  5
15
330
A
100
AcDbDictionary
281
1
  0
DICTIONARY
  5
16
330
A
100
AcDbDictionary
281
1
  0
LAYOUT
  5
1A
330
D
100
AcDbPlotSettings
  1

  2
Adobe PDF
  4
A3
  6

 40
7.5
 41
20.0
 42
7.5
 43
20.0
 44
420.0
 45
297.0
 46
0.0
 47
0.0
 48
0.0
 49
0.0
140
0.0
141
0.0
142
1.0
143
1.0
 70
1024
 72
1
 73
1
 74
5
  7

 75
16
 76
0
 77
2
 78
300
147
1.0
148
0.0
149
0.0
100
AcDbLayout
  1
Model
 70
1
 71
0
 10
0.0
 20
0.0
 11
420.0
 21
297.0
 12
0.0
 22
0.0
 32
0.0
 14
1e+20
 24
1e+20
 34
1e+20
 15
-1e+20
 25
-1e+20
 35
-1e+20
146
0.0
 13
0.0
 23
0.0
 33
0.0
 16
1.0
 26
0.0
 36
0.0
 17
0.0
 27
1.0
 37
0.0
 76
1
330
17
  0
LAYOUT
  5
1E
330
D
100
AcDbPlotSettings
  1

  2
Adobe PDF
  4
A3
  6

 40
7.5
 41
20.0
 42
7.5
 43
20.0
 44
420.0
 45
297.0
 46
0.0
 47
0.0
 48
0.0
 49
0.0
140
0.0
141
0.0
142
1.0
143
1.0
 70
0
 72
1
 73
1
 74
5
  7

 75
16
 76
0
 77
2
 78
300
147
1.0
148
0.0
149
0.0
100
AcDbLayout
  1
Layout1
 70
1
 71
1
 10
0.0
 20
0.0
 11
420.0
 21
297.0
 12
0.0
 22
0.0
 32
0.0
 14
1e+20
 24
1e+20
 34
1e+20
 15
-1e+20
 25
-1e+20
 35
-1e+20
146
0.0
 13
0.0
 23
0.0
 33
0.0
 16
1.0
 26
0.0
 36
0.0
 17
0.0
 27
1.0
 37
0.0
 76
1
330
1B
  0
MATERIAL
  5
1F
102
{ACAD_REACTORS
330
E
102
}
330
E
100
AcDbMaterial
  1
ByBlock
  2

 70
0
 40
1.0
 71
1
 41
1.0
 91
-1023410177
 42
1.0
 72
1
  3

 73
1
 74
1
 75
1
 44
0.5
 73
0
 45
1.0
 46
1.0
 77
1
  4

 78
1
 79
1
170
1
 48
1.0
171
1
  6

172
1
173
1
174
1
140
1.0
141
1.0
175
1
  7

176
1
177
1
178
1
143
1.0
179
1
  8

270
1
271
1
272
1
145
1.0
146
1.0
273
1
  9

274
1
275
1
276
1
 42
1.0
 72
1
  3

 73
1
 74
1
 75
1
 94
63
  0
MATERIAL
  5
20
102
{ACAD_REACTORS
330
E
102
}
330
E
100
AcDbMaterial
  1
ByLayer
  2

 70
0
 40
1.0
 71
1
 41
1.0
 91
-1023410177
 42
1.0
 72
1
  3

 73
1
 74
1
 75
1
 44
0.5
 73
0
 45
1.0
 46
1.0
 77
1
  4

 78
1
 79
1
170
1
 48
1.0
171
1
  6

172
1
173
1
174
1
140
1.0
141
1.0
175
1
  7

176
1
177
1
178
1
143
1.0
179
1
  8

270
1
271
1
272
1
145
1.0
146
1.0
273
1
  9

274
1
275
1
276
1
 42
1.0
 72
1
  3

 73
1
 74
1
 75
1
 94
63
  0
MATERIAL
  5
21
102
{ACAD_REACTORS
330
E
102
}
330
E
100
AcDbMaterial
  1
Global
  2

 70
0
 40
1.0
 71
1
 41
1.0
 91
-1023410177
 42
1.0
 72
1
  3

 73
1
 74
1
 75
1
 44
0.5
 73
0
 45
1.0
 46
1.0
 77
1
  4

 78
1
 79
1
170
1
 48
1.0
171
1
  6

172
1
173
1
174
1
140
1.0
141
1.0
175
1
  7

176
1
177
1
178
1
143
1.0
179
1
  8

270
1
271
1
272
1
145
1.0
146
1.0
273
1
  9

274
1
275
1
276
1
 42
1.0
 72
1
  3

 73
1
 74
1
 75
1
 94
63
  0
MLINESTYLE
  5
22
102
{ACAD_REACTORS
330
10
102
}
330
10
100
AcDbMlineStyle
  2
Standard
 70
0
  3

 62
256
 51
90.0
 52
90.0
 71
2
 49
0.5
 62
256
  6
BYLAYER
 49
-0.5
 62
256
  6
BYLAYER
  0
MLEADERSTYLE
  5
2C
102
{ACAD_REACTORS
330
F
102
}
330
F
100
AcDbMLeaderStyle
179
2
170
2
171
1
172
0
 90
2
 40
0.0
 41
0.0
173
1
 91
-1056964608
 92
-2
290
1
 42
2.0
291
1
 43
8.0
  3
Standard
 44
4.0
300

342
29
174
1
175
1
176
0
178
1
 93
-1056964608
 45
4.0
292
0
297
0
 46
4.0
 94
-1056964608
 47
1.0
 49
1.0
140
1.0
294
1
141
0.0
177
0
142
1.0
295
0
296
0
143
3.75
271
0
272
9
273
9
  0
DICTIONARY
  5
2D
330
A
100
AcDbDictionary
280
1
281
1
  3
CREATED_BY_EZDXF
350
2E
  3
WRITTEN_BY_EZDXF
350
F3
  0
DICTIONARYVAR
  5
2E
330
2D
100
DictionaryVariables
280
0
  1
0.17 @ 2022-02-15T16:54:33.703561+00:00
  0
DICTIONARYVAR
  5
F3
330
2D
100
DictionaryVariables
280
0
  1
0.17 @ 2022-02-15T16:54:33.938457+00:00
  0
ENDSEC
  0
EOF
