  0
SECTION
  2
HEADER
  9
$ACADVER
  1
AC1027
  9
$ACADMAINTVER
 70
105
  9
$DWGCODEPAGE
  3
ANSI_1252
  9
$LASTSAVEDBY
  1
ezdxf
  9
$REQUIREDVERSIONS
160
0
  9
$INSBASE
 10
0.0
 20
0.0
 30
0.0
  9
$EXTMIN
 10
1e+20
 20
1e+20
 30
1e+20
  9
$EXTMAX
 10
-1e+20
 20
-1e+20
 30
-1e+20
  9
$LIMMIN
 10
0.0
 20
0.0
  9
$LIMMAX
 10
420.0
 20
297.0
  9
$ORTHOMODE
 70
0
  9
$REGENMODE
 70
1
  9
$FILLMODE
 70
1
  9
$QTEXTMODE
 70
0
  9
$MIRRTEXT
 70
1
  9
$LTSCALE
 40
1.0
  9
$ATTMODE
 70
1
  9
$TEXTSIZE
 40
2.5
  9
$TRACEWID
 40
1.0
  9
$TEXTSTYLE
  7
Standard
  9
$CLAYER
  8
0
  9
$CELTYPE
  6
ByLayer
  9
$CECOLOR
 62
256
  9
$CELTSCALE
 40
1.0
  9
$DISPSILH
 70
0
  9
$DIMSCALE
 40
1.0
  9
$DIMASZ
 40
2.5
  9
$DIMEXO
 40
0.625
  9
$DIMDLI
 40
3.75
  9
$DIMRND
 40
0.0
  9
$DIMDLE
 40
0.0
  9
$DIMEXE
 40
1.25
  9
$DIMTP
 40
0.0
  9
$DIMTM
 40
0.0
  9
$DIMTXT
 40
2.5
  9
$DIMCEN
 40
2.5
  9
$DIMTSZ
 40
0.0
  9
$DIMTOL
 70
0
  9
$DIMLIM
 70
0
  9
$DIMTIH
 70
0
  9
$DIMTOH
 70
0
  9
$DIMSE1
 70
0
  9
$DIMSE2
 70
0
  9
$DIMTAD
 70
1
  9
$DIMZIN
 70
8
  9
$DIMBLK
  1

  9
$DIMASO
 70
1
  9
$DIMSHO
 70
1
  9
$DIMPOST
  1

  9
$DIMAPOST
  1

  9
$DIMALT
 70
0
  9
$DIMALTD
 70
3
  9
$DIMALTF
 40
0.03937007874
  9
$DIMLFAC
 40
1.0
  9
$DIMTOFL
 70
1
  9
$DIMTVP
 40
0.0
  9
$DIMTIX
 70
0
  9
$DIMSOXD
 70
0
  9
$DIMSAH
 70
0
  9
$DIMBLK1
  1

  9
$DIMBLK2
  1

  9
$DIMSTYLE
  2
ISO-25
  9
$DIMCLRD
 70
0
  9
$DIMCLRE
 70
0
  9
$DIMCLRT
 70
0
  9
$DIMTFAC
 40
1.0
  9
$DIMGAP
 40
0.625
  9
$DIMJUST
 70
0
  9
$DIMSD1
 70
0
  9
$DIMSD2
 70
0
  9
$DIMTOLJ
 70
0
  9
$DIMTZIN
 70
8
  9
$DIMALTZ
 70
0
  9
$DIMALTTZ
 70
0
  9
$DIMUPT
 70
0
  9
$DIMDEC
 70
2
  9
$DIMTDEC
 70
2
  9
$DIMALTU
 70
2
  9
$DIMALTTD
 70
3
  9
$DIMTXSTY
  7
Standard
  9
$DIMAUNIT
 70
0
  9
$DIMADEC
 70
0
  9
$DIMALTRND
 40
0.0
  9
$DIMAZIN
 70
0
  9
$DIMDSEP
 70
44
  9
$DIMATFIT
 70
3
  9
$DIMFRAC
 70
0
  9
$DIMLDRBLK
  1

  9
$DIMLUNIT
 70
2
  9
$DIMLWD
 70
-2
  9
$DIMLWE
 70
-2
  9
$DIMTMOVE
 70
0
  9
$DIMFXL
 40
1.0
  9
$DIMFXLON
 70
0
  9
$DIMJOGANG
 40
0.785398163397
  9
$DIMTFILL
 70
0
  9
$DIMTFILLCLR
 70
0
  9
$DIMARCSYM
 70
0
  9
$DIMLTYPE
  6

  9
$DIMLTEX1
  6

  9
$DIMLTEX2
  6

  9
$DIMTXTDIRECTION
 70
0
  9
$LUNITS
 70
2
  9
$LUPREC
 70
4
  9
$SKETCHINC
 40
1.0
  9
$FILLETRAD
 40
10.0
  9
$AUNITS
 70
0
  9
$AUPREC
 70
2
  9
$MENU
  1
.
  9
$ELEVATION
 40
0.0
  9
$PELEVATION
 40
0.0
  9
$THICKNESS
 40
0.0
  9
$LIMCHECK
 70
0
  9
$CHAMFERA
 40
0.0
  9
$CHAMFERB
 40
0.0
  9
$CHAMFERC
 40
0.0
  9
$CHAMFERD
 40
0.0
  9
$SKPOLY
 70
0
  9
$TDCREATE
 40
2459626.7462731483
  9
$TDUCREATE
 40
2458532.153996898
  9
$TDUPDATE
 40
2459626.7462731483
  9
$TDUUPDATE
 40
2458532.1544311
  9
$TDINDWG
 40
0.0
  9
$TDUSRTIMER
 40
0.0
  9
$USRTIMER
 70
1
  9
$ANGBASE
 50
0.0
  9
$ANGDIR
 70
0
  9
$PDMODE
 70
0
  9
$PDSIZE
 40
0.0
  9
$PLINEWID
 40
0.0
  9
$SPLFRAME
 70
0
  9
$SPLINETYPE
 70
6
  9
$SPLINESEGS
 70
8
  9
$HANDSEED
  5
C7
  9
$SURFTAB1
 70
6
  9
$SURFTAB2
 70
6
  9
$SURFTYPE
 70
6
  9
$SURFU
 70
6
  9
$SURFV
 70
6
  9
$UCSBASE
  2

  9
$UCSNAME
  2

  9
$UCSORG
 10
0.0
 20
0.0
 30
0.0
  9
$UCSXDIR
 10
1.0
 20
0.0
 30
0.0
  9
$UCSYDIR
 10
0.0
 20
1.0
 30
0.0
  9
$UCSORTHOREF
  2

  9
$UCSORTHOVIEW
 70
0
  9
$UCSORGTOP
 10
0.0
 20
0.0
 30
0.0
  9
$UCSORGBOTTOM
 10
0.0
 20
0.0
 30
0.0
  9
$UCSORGLEFT
 10
0.0
 20
0.0
 30
0.0
  9
$UCSORGRIGHT
 10
0.0
 20
0.0
 30
0.0
  9
$UCSORGFRONT
 10
0.0
 20
0.0
 30
0.0
  9
$UCSORGBACK
 10
0.0
 20
0.0
 30
0.0
  9
$PUCSBASE
  2

  9
$PUCSNAME
  2

  9
$PUCSORG
 10
0.0
 20
0.0
 30
0.0
  9
$PUCSXDIR
 10
1.0
 20
0.0
 30
0.0
  9
$PUCSYDIR
 10
0.0
 20
1.0
 30
0.0
  9
$PUCSORTHOREF
  2

  9
$PUCSORTHOVIEW
 70
0
  9
$PUCSORGTOP
 10
0.0
 20
0.0
 30
0.0
  9
$PUCSORGBOTTOM
 10
0.0
 20
0.0
 30
0.0
  9
$PUCSORGLEFT
 10
0.0
 20
0.0
 30
0.0
  9
$PUCSORGRIGHT
 10
0.0
 20
0.0
 30
0.0
  9
$PUCSORGFRONT
 10
0.0
 20
0.0
 30
0.0
  9
$PUCSORGBACK
 10
0.0
 20
0.0
 30
0.0
  9
$USERI1
 70
0
  9
$USERI2
 70
0
  9
$USERI3
 70
0
  9
$USERI4
 70
0
  9
$USERI5
 70
0
  9
$USERR1
 40
0.0
  9
$USERR2
 40
0.0
  9
$USERR3
 40
0.0
  9
$USERR4
 40
0.0
  9
$USERR5
 40
0.0
  9
$WORLDVIEW
 70
1
  9
$SHADEDGE
 70
3
  9
$SHADEDIF
 70
70
  9
$TILEMODE
 70
1
  9
$MAXACTVP
 70
64
  9
$PINSBASE
 10
0.0
 20
0.0
 30
0.0
  9
$PLIMCHECK
 70
0
  9
$PEXTMIN
 10
1e+20
 20
1e+20
 30
1e+20
  9
$PEXTMAX
 10
-1e+20
 20
-1e+20
 30
-1e+20
  9
$PLIMMIN
 10
0.0
 20
0.0
  9
$PLIMMAX
 10
420.0
 20
297.0
  9
$UNITMODE
 70
0
  9
$VISRETAIN
 70
1
  9
$PLINEGEN
 70
0
  9
$PSLTSCALE
 70
1
  9
$TREEDEPTH
 70
3020
  9
$CMLSTYLE
  2
Standard
  9
$CMLJUST
 70
0
  9
$CMLSCALE
 40
20.0
  9
$PROXYGRAPHICS
 70
1
  9
$MEASUREMENT
 70
1
  9
$CELWEIGHT
370
-1
  9
$ENDCAPS
280
0
  9
$JOINSTYLE
280
0
  9
$LWDISPLAY
290
0
  9
$INSUNITS
 70
6
  9
$HYPERLINKBASE
  1

  9
$STYLESHEET
  1

  9
$XEDIT
290
1
  9
$CEPSNTYPE
380
0
  9
$PSTYLEMODE
290
1
  9
$FINGERPRINTGUID
  2
{4BB6C7DF-8C0B-4697-A0F7-1F63044E3451}
  9
$VERSIONGUID
  2
{D5C8D9E9-8E21-41F7-94B3-5453248805BE}
  9
$EXTNAMES
290
1
  9
$PSVPSCALE
 40
0.0
  9
$OLESTARTUP
290
0
  9
$SORTENTS
280
127
  9
$INDEXCTL
280
0
  9
$HIDETEXT
280
1
  9
$XCLIPFRAME
280
0
  9
$HALOGAP
280
0
  9
$OBSCOLOR
 70
257
  9
$OBSLTYPE
280
0
  9
$INTERSECTIONDISPLAY
280
0
  9
$INTERSECTIONCOLOR
 70
257
  9
$DIMASSOC
280
2
  9
$PROJECTNAME
  1

  9
$CAMERADISPLAY
290
0
  9
$LENSLENGTH
 40
50.0
  9
$CAMERAHEIGHT
 40
0.0
  9
$STEPSPERSEC
 40
24.0
  9
$STEPSIZE
 40
100.0
  9
$3DDWFPREC
 40
2.0
  9
$PSOLWIDTH
 40
0.005
  9
$PSOLHEIGHT
 40
0.08
  9
$LOFTANG1
 40
1.570796326795
  9
$LOFTANG2
 40
1.570796326795
  9
$LOFTMAG1
 40
0.0
  9
$LOFTMAG2
 40
0.0
  9
$LOFTPARAM
 70
7
  9
$LOFTNORMALS
280
1
  9
$LATITUDE
 40
37.795
  9
$LONGITUDE
 40
-122.394
  9
$NORTHDIRECTION
 40
0.0
  9
$TIMEZONE
 70
-8000
  9
$LIGHTGLYPHDISPLAY
280
1
  9
$TILEMODELIGHTSYNCH
280
1
  9
$CMATERIAL
347
20
  9
$SOLIDHIST
280
0
  9
$SHOWHIST
280
1
  9
$DWFFRAME
280
2
  9
$DGNFRAME
280
2
  9
$REALWORLDSCALE
290
1
  9
$INTERFERECOLOR
 62
256
  9
$CSHADOW
280
0
  9
$SHADOWPLANELOCATION
 40
0.0
  0
ENDSEC
  0
SECTION
  2
CLASSES
  0
CLASS
  1
ACDBDICTIONARYWDFLT
  2
AcDbDictionaryWithDefault
  3
ObjectDBX Classes
 90
0
 91
0
280
0
281
0
  0
CLASS
  1
SUN
  2
AcDbSun
  3
SCENEOE
 90
1153
 91
0
280
0
281
0
  0
CLASS
  1
VISUALSTYLE
  2
AcDbVisualStyle
  3
ObjectDBX Classes
 90
4095
 91
0
280
0
281
0
  0
CLASS
  1
MATERIAL
  2
AcDbMaterial
  3
ObjectDBX Classes
 90
1153
 91
0
280
0
281
0
  0
CLASS
  1
SCALE
  2
AcDbScale
  3
ObjectDBX Classes
 90
1153
 91
0
280
0
281
0
  0
CLASS
  1
TABLESTYLE
  2
AcDbTableStyle
  3
ObjectDBX Classes
 90
4095
 91
0
280
0
281
0
  0
CLASS
  1
MLEADERSTYLE
  2
AcDbMLeaderStyle
  3
ACDB_MLEADERSTYLE_CLASS
 90
4095
 91
0
280
0
281
0
  0
CLASS
  1
DICTIONARYVAR
  2
AcDbDictionaryVar
  3
ObjectDBX Classes
 90
0
 91
0
280
0
281
0
  0
CLASS
  1
CELLSTYLEMAP
  2
AcDbCellStyleMap
  3
ObjectDBX Classes
 90
1152
 91
0
280
0
281
0
  0
CLASS
  1
MENTALRAYRENDERSETTINGS
  2
AcDbMentalRayRenderSettings
  3
SCENEOE
 90
1024
 91
0
280
0
281
0
  0
CLASS
  1
ACDBDETAILVIEWSTYLE
  2
AcDbDetailViewStyle
  3
ObjectDBX Classes
 90
1025
 91
0
280
0
281
0
  0
CLASS
  1
ACDBSECTIONVIEWSTYLE
  2
AcDbSectionViewStyle
  3
ObjectDBX Classes
 90
1025
 91
0
280
0
281
0
  0
CLASS
  1
RASTERVARIABLES
  2
AcDbRasterVariables
  3
ISM
 90
0
 91
0
280
0
281
0
  0
CLASS
  1
ACDBPLACEHOLDER
  2
AcDbPlaceHolder
  3
ObjectDBX Classes
 90
0
 91
0
280
0
281
0
  0
CLASS
  1
LAYOUT
  2
AcDbLayout
  3
ObjectDBX Classes
 90
0
 91
0
280
0
281
0
  0
ENDSEC
  0
SECTION
  2
TABLES
  0
TABLE
  2
VPORT
  5
8
330
0
100
AcDbSymbolTable
 70
1
  0
VPORT
  5
23
330
8
100
AcDbSymbolTableRecord
100
AcDbViewportTableRecord
  2
*Active
 70
0
 10
0.0
 20
0.0
 11
1.0
 21
1.0
 12
344.2
 22
148.5
 13
0.0
 23
0.0
 14
0.5
 24
0.5
 15
0.5
 25
0.5
 16
0.0
 26
0.0
 36
1.0
 17
0.0
 27
0.0
 37
0.0
 40
297.0
 41
1.34
 42
50.0
 43
0.0
 44
0.0
 50
0.0
 51
0.0
 71
0
 72
1000
 73
1
 74
3
 75
0
 76
0
 77
0
 78
0
281
0
 65
0
146
0.0
  0
ENDTAB
  0
TABLE
  2
LTYPE
  5
2
330
0
100
AcDbSymbolTable
 70
3
  0
LTYPE
  5
24
330
2
100
AcDbSymbolTableRecord
100
AcDbLinetypeTableRecord
  2
ByBlock
 70
0
  3

 72
65
 73
0
 40
0.0
  0
LTYPE
  5
25
330
2
100
AcDbSymbolTableRecord
100
AcDbLinetypeTableRecord
  2
ByLayer
 70
0
  3

 72
65
 73
0
 40
0.0
  0
LTYPE
  5
26
330
2
100
AcDbSymbolTableRecord
100
AcDbLinetypeTableRecord
  2
Continuous
 70
0
  3

 72
65
 73
0
 40
0.0
  0
ENDTAB
  0
TABLE
  2
LAYER
  5
1
330
0
100
AcDbSymbolTable
 70
2
  0
LAYER
  5
27
330
1
100
AcDbSymbolTableRecord
100
AcDbLayerTableRecord
  2
0
 70
0
 62
7
  6
Continuous
370
-3
390
13
347
21
  0
LAYER
  5
28
330
1
100
AcDbSymbolTableRecord
100
AcDbLayerTableRecord
  2
Defpoints
 70
0
 62
7
  6
Continuous
290
0
370
-3
390
13
347
21
  0
ENDTAB
  0
TABLE
  2
STYLE
  5
5
330
0
100
AcDbSymbolTable
 70
1
  0
STYLE
  5
29
330
5
100
AcDbSymbolTableRecord
100
AcDbTextStyleTableRecord
  2
Standard
 70
0
 40
0.0
 41
1.0
 50
0.0
 71
0
 42
2.5
  3
txt
  4

  0
ENDTAB
  0
TABLE
  2
VIEW
  5
7
330
0
100
AcDbSymbolTable
 70
0
  0
ENDTAB
  0
TABLE
  2
UCS
  5
6
330
0
100
AcDbSymbolTable
 70
0
  0
ENDTAB
  0
TABLE
  2
APPID
  5
3
330
0
100
AcDbSymbolTable
 70
3
  0
APPID
  5
2A
330
3
100
AcDbSymbolTableRecord
100
AcDbRegAppTableRecord
  2
ACAD
 70
0
  0
APPID
  5
C4
330
3
100
AcDbSymbolTableRecord
100
AcDbRegAppTableRecord
  2
HATCHBACKGROUNDCOLOR
 70
0
  0
APPID
  5
C5
330
3
100
AcDbSymbolTableRecord
100
AcDbRegAppTableRecord
  2
EZDXF
 70
0
  0
ENDTAB
  0
TABLE
  2
DIMSTYLE
  5
4
330
0
100
AcDbSymbolTable
 70
1
100
AcDbDimStyleTable
  0
DIMSTYLE
105
2B
330
4
100
AcDbSymbolTableRecord
100
AcDbDimStyleTableRecord
  2
Standard
 70
0
 40
1.0
 41
2.5
 42
0.625
 43
3.75
 44
1.25
 45
0.0
 46
0.0
 47
0.0
 48
0.0
 49
2.5
140
2.5
141
2.5
142
0.0
143
0.03937007874
144
1.0
145
0.0
146
1.0
147
0.625
148
0.0
 69
0
 70
0
 71
0
 72
0
 73
0
 74
0
 75
0
 76
0
 77
1
 78
8
 79
0
170
0
171
3
172
1
173
0
174
0
175
0
176
0
177
0
178
0
179
0
271
0
272
2
273
2
274
3
275
0
276
0
277
2
278
44
279
0
280
0
281
0
282
0
283
0
284
8
285
0
286
0
288
0
289
3
290
0
371
-2
372
-2
  0
ENDTAB
  0
TABLE
  2
BLOCK_RECORD
  5
9
330
0
100
AcDbSymbolTable
 70
2
  0
BLOCK_RECORD
  5
17
330
9
100
AcDbSymbolTableRecord
100
AcDbBlockTableRecord
  2
*Model_Space
340
1A
 70
0
280
1
281
0
  0
BLOCK_RECORD
  5
1B
330
9
100
AcDbSymbolTableRecord
100
AcDbBlockTableRecord
  2
*Paper_Space
340
1E
 70
0
280
1
281
0
  0
ENDTAB
  0
ENDSEC
  0
SECTION
  2
BLOCKS
  0
BLOCK
  5
18
330
17
100
AcDbEntity
  8
0
100
AcDbBlockBegin
  2
*Model_Space
 70
0
 10
0.0
 20
0.0
 30
0.0
  3
*Model_Space
  1

  0
ENDBLK
  5
19
330
17
100
AcDbEntity
  8
0
100
AcDbBlockEnd
  0
BLOCK
  5
1C
330
1B
100
AcDbEntity
  8
0
100
AcDbBlockBegin
  2
*Paper_Space
 70
0
 10
0.0
 20
0.0
 30
0.0
  3
*Paper_Space
  1

  0
ENDBLK
  5
1D
330
1B
100
AcDbEntity
  8
0
100
AcDbBlockEnd
  0
ENDSEC
  0
SECTION
  2
ENTITIES
  0
SPLINE
  5
2F
330
17
100
AcDbEntity
  8
0
100
AcDbSpline
 70
0
 71
8
 72
144
 73
135
 74
0
 40
0.0
 40
0.0
 40
0.0
 40
0.0
 40
0.0
 40
0.0
 40
0.0
 40
0.0
 40
0.0
 40
0.0056735769610167805
 40
0.0056735769610167805
 40
0.0056735769610167805
 40
0.0056735769610167805
 40
0.0056735769610167805
 40
0.0056735769610167805
 40
0.0056735769610167805
 40
0.011346926845354495
 40
0.011346926845354495
 40
0.011346926845354495
 40
0.011346926845354495
 40
0.011346926845354495
 40
0.011346926845354495
 40
0.011346926845354495
 40
0.024362110656032304
 40
0.024362110656032304
 40
0.024362110656032304
 40
0.024362110656032304
 40
0.024362110656032304
 40
0.024362110656032304
 40
0.024362110656032304
 40
0.03368046202533856
 40
0.03368046202533856
 40
0.03368046202533856
 40
0.03368046202533856
 40
0.03368046202533856
 40
0.03368046202533856
 40
0.03368046202533856
 40
0.03854152194412903
 40
0.03854152194412903
 40
0.03854152194412903
 40
0.03854152194412903
 40
0.03854152194412903
 40
0.03854152194412903
 40
0.03854152194412903
 40
0.04340258259270096
 40
0.04340258259270096
 40
0.04340258259270096
 40
0.04340258259270096
 40
0.04340258259270096
 40
0.04340258259270096
 40
0.04340258259270096
 40
0.047858555582204074
 40
0.047858555582204074
 40
0.047858555582204074
 40
0.047858555582204074
 40
0.047858555582204074
 40
0.047858555582204074
 40
0.047858555582204074
 40
0.05271968613366758
 40
0.05271968613366758
 40
0.05271968613366758
 40
0.05271968613366758
 40
0.05271968613366758
 40
0.05271968613366758
 40
0.05271968613366758
 40
0.059899296375988204
 40
0.059899296375988204
 40
0.059899296375988204
 40
0.059899296375988204
 40
0.059899296375988204
 40
0.059899296375988204
 40
0.059899296375988204
 40
0.06460758256635869
 40
0.06460758256635869
 40
0.06460758256635869
 40
0.06460758256635869
 40
0.06460758256635869
 40
0.06460758256635869
 40
0.06460758256635869
 40
0.06686082277951969
 40
0.06686082277951969
 40
0.06686082277951969
 40
0.06686082277951969
 40
0.06686082277951969
 40
0.06686082277951969
 40
0.06686082277951969
 40
0.0678388218645478
 40
0.0678388218645478
 40
0.0678388218645478
 40
0.0678388218645478
 40
0.0678388218645478
 40
0.0678388218645478
 40
0.0678388218645478
 40
0.06881682112955852
 40
0.06881682112955852
 40
0.06881682112955852
 40
0.06881682112955852
 40
0.06881682112955852
 40
0.06881682112955852
 40
0.06881682112955852
 40
0.06979482053368964
 40
0.06979482053368964
 40
0.06979482053368964
 40
0.06979482053368964
 40
0.06979482053368964
 40
0.06979482053368964
 40
0.06979482053368964
 40
0.07133166517831521
 40
0.07133166517831521
 40
0.07133166517831521
 40
0.07133166517831521
 40
0.07133166517831521
 40
0.07133166517831521
 40
0.07133166517831521
 40
0.07286851999952405
 40
0.07286851999952405
 40
0.07286851999952405
 40
0.07286851999952405
 40
0.07286851999952405
 40
0.07286851999952405
 40
0.07286851999952405
 40
0.07441869700314364
 40
0.07441869700314364
 40
0.07441869700314364
 40
0.07441869700314364
 40
0.07441869700314364
 40
0.07441869700314364
 40
0.07441869700314364
 40
0.07750975434144138
 40
0.07750975434144138
 40
0.07750975434144138
 40
0.07750975434144138
 40
0.07750975434144138
 40
0.07750975434144138
 40
0.07750975434144138
 40
0.07846521587244334
 40
0.07846521587244334
 40
0.07846521587244334
 40
0.07846521587244334
 40
0.07846521587244334
 40
0.07846521587244334
 40
0.07846521587244334
 40
0.07846521587244334
 40
0.07846521587244334
 10
923.505288095116
 20
47.264129977777365
 30
234.0
 10
929.4325187344417
 20
47.260017904482226
 30
234.0
 10
935.3597486976415
 20
47.25492627905026
 30
234.0
 10
941.2869778826314
 20
47.248950696354335
 30
234.0
 10
947.2142062298603
 20
47.2421842731289
 30
234.0
 10
953.1414337227857
 20
47.2347180680116
 30
234.0
 10
959.0686603883487
 20
47.22664150158504
 30
234.0
 10
964.9958862974498
 20
47.21804277641849
 30
234.0
 10
976.8500997289858
 20
47.199975993068314
 30
234.0
 10
982.7770872264681
 20
47.190508949470164
 30
234.0
 10
988.704074163725
 20
47.18069198417819
 30
234.0
 10
994.6310606717309
 20
47.17061713165907
 30
234.0
 10
1000.5580468744879
 20
47.16036608505294
 30
234.0
 10
1006.4850329100626
 20
47.15002240451304
 30
234.0
 10
1012.4120189452905
 20
47.13968002592364
 30
234.0
 10
1031.9360544533051
 20
47.105854848175724
 30
234.0
 10
1045.5331042367793
 20
47.08257127611183
 30
234.0
 10
1059.1301542514484
 20
47.05942180541363
 30
234.0
 10
1072.7272042419597
 20
47.03625773408996
 30
234.0
 10
1086.3242539095618
 20
47.01291614918806
 30
234.0
 10
1099.9213028873326
 20
46.98920587155556
 30
234.0
 10
1113.5183507023128
 20
46.96488593683484
 30
234.0
 10
1136.850338163901
 20
46.921559095715104
 30
234.0
 10
1146.585278595899
 20
46.903004866536364
 30
234.0
 10
1156.3202178473068
 20
46.88385669207412
 30
234.0
 10
1166.0551556126613
 20
46.86397501466443
 30
234.0
 10
1175.7900914441277
 20
46.843193343000124
 30
234.0
 10
1185.5250247319689
 20
46.82130930933831
 30
234.0
 10
1195.259954675619
 20
46.79807139297411
 30
234.0
 10
1210.073252091864
 20
46.76016643618779
 30
234.0
 10
1215.151480441072
 20
46.7467174066271
 30
234.0
 10
1220.2295533561426
 20
46.73276749170308
 30
234.0
 10
1225.3074573275085
 20
46.7182677819531
 30
234.0
 10
1230.385177258727
 20
46.703162635937396
 30
234.0
 10
1235.4626964610047
 20
46.687387881346424
 30
234.0
 10
1240.5399966564044
 20
46.67087176932554
 30
234.0
 10
1250.694120087966
 20
46.63620559678879
 30
234.0
 10
1255.7709427256116
 20
46.61805563648677
 30
234.0
 10
1260.8475064234822
 20
46.59901140999358
 30
234.0
 10
1265.9237880804717
 20
46.57898767632837
 30
234.0
 10
1270.9997609658512
 20
46.55788949548998
 30
234.0
 10
1276.0753947115677
 20
46.53561037930026
 30
234.0
 10
1281.1506553045435
 20
46.51203044224756
 30
234.0
 10
1290.8774508960153
 20
46.464083192697785
 30
234.0
 10
1295.5290491687767
 20
46.439945355305156
 30
234.0
 10
1300.1802716081024
 20
46.414496010804505
 30
234.0
 10
1304.8310844956268
 20
46.38761974391707
 30
234.0
 10
1309.4814486674143
 20
46.35918807887314
 30
234.0
 10
1314.1313194975985
 20
46.3290568048521
 30
234.0
 10
1318.7806468820218
 20
46.29706330142247
 30
234.0
 10
1328.5007753238624
 20
46.22589006264779
 30
234.0
 10
1333.5713332480077
 20
46.18631754339602
 30
234.0
 10
1338.641108160817
 20
46.14408441725674
 30
234.0
 10
1343.710077203306
 20
46.09887838838855
 30
234.0
 10
1348.7781370439448
 20
46.05045016004154
 30
234.0
 10
1353.8451015801752
 20
45.9983916875972
 30
234.0
 10
1358.9107037928702
 20
45.94230403820826
 30
234.0
 10
1371.4536922383782
 20
45.7922973188103
 30
234.0
 10
1378.9326435739395
 20
45.69303464807433
 30
234.0
 10
1386.4114496543434
 20
45.582432951235056
 30
234.0
 10
1393.8900738734364
 20
45.45858525859507
 30
234.0
 10
1401.3684409208295
 20
45.31912448299877
 30
234.0
 10
1408.8464296173997
 20
45.16086017255335
 30
234.0
 10
1416.323869413808
 20
44.97959837814753
 30
234.0
 10
1428.703585678078
 20
44.63009041825493
 30
234.0
 10
1433.6062135934858
 20
44.47883849834931
 30
234.0
 10
1438.5084019581814
 20
44.31285292076087
 30
234.0
 10
1443.4100525697
 20
44.12965721275794
 30
234.0
 10
1448.3109611071145
 20
43.92624727693053
 30
234.0
 10
1453.2107789799838
 20
43.69822917936107
 30
234.0
 10
1458.1090199645369
 20
43.439956977031116
 30
234.0
 10
1465.347902237187
 20
42.99748992601119
 30
234.0
 10
1467.690278986141
 20
42.84489342322045
 30
234.0
 10
1470.0319778528738
 20
42.68174069489306
 30
234.0
 10
1472.3728664812847
 20
42.50656334435974
 30
234.0
 10
1474.7127207831127
 20
42.317571605336745
 30
234.0
 10
1477.0511967181942
 20
42.11231646880852
 30
234.0
 10
1479.3878249745903
 20
41.887623875131915
 30
234.0
 10
1482.7349614057664
 20
41.5297902629065
 30
234.0
 10
1483.7138905086074
 20
41.42040508748018
 30
234.0
 10
1484.6595597426333
 20
41.309946453987735
 30
234.0
 10
1485.5728160746712
 20
41.19842053157635
 30
234.0
 10
1486.4544663630306
 20
41.0858334776079
 30
234.0
 10
1487.3052773574993
 20
40.97219143765894
 30
234.0
 10
1488.125975699347
 20
40.85750054552079
 30
234.0
 10
1489.7085207545572
 20
40.626033283236104
 30
234.0
 10
1490.47037622294
 20
40.50925691991791
 30
234.0
 10
1491.2035027430163
 20
40.39144393063456
 30
234.0
 10
1491.9085601276986
 20
40.27260041128978
 30
234.0
 10
1492.5861795862697
 20
40.152732456301244
 30
234.0
 10
1493.2369637243837
 20
40.0318461586006
 30
234.0
 10
1493.8614865440647
 20
39.9099476096335
 30
234.0
 10
1495.0591007080782
 20
39.66413817195296
 30
234.0
 10
1495.6321979449556
 20
39.54022729423485
 30
234.0
 10
1496.1801316847184
 20
39.415316332606565
 30
234.0
 10
1496.7034276091363
 20
39.289411366680724
 30
234.0
 10
1497.2025905513676
 20
39.16251848928126
 30
234.0
 10
1497.6781044959591
 20
39.03464380644333
 30
234.0
 10
1498.1304325788474
 20
38.905793437413365
 30
234.0
 10
1499.2350745133203
 20
38.57197231505328
 30
234.0
 10
1499.8539891806477
 20
38.365573319596336
 30
234.0
 10
1500.4184688120622
 20
38.15680431801428
 30
234.0
 10
1500.93013393753
 20
37.94569183917173
 30
234.0
 10
1501.390516563182
 20
37.732258239697785
 30
234.0
 10
1501.801060964638
 20
37.516523241788654
 30
234.0
 10
1502.163126604708
 20
37.29850992017697
 30
234.0
 10
1502.7928619447782
 20
36.85799890407648
 30
234.0
 10
1503.0605477200988
 20
36.6354905230639
 30
234.0
 10
1503.2823355451224
 20
36.410758438606265
 30
234.0
 10
1503.45945330444
 20
36.18382926635232
 30
234.0
 10
1503.593069748668
 20
35.95472712203892
 30
234.0
 10
1503.6842969504744
 20
35.72347503707137
 30
234.0
 10
1503.7341971915305
 20
35.490098461868556
 30
234.0
 10
1503.753474939371
 20
35.01712212313551
 30
234.0
 10
1503.7221040561003
 20
34.77859113710762
 30
234.0
 10
1503.6510424463972
 20
34.5480806146908
 30
234.0
 10
1503.5504882566283
 20
34.32880487373534
 30
234.0
 10
1503.428745670045
 20
34.12202671451448
 30
234.0
 10
1503.2923308819204
 20
33.92720752481832
 30
234.0
 10
1503.1446175021533
 20
33.74253774179569
 30
234.0
 10
1502.6697507589458
 20
33.21093354612153
 30
234.0
 10
1502.3174516522822
 20
32.89324153684335
 30
234.0
 10
1501.9453365214918
 20
32.597263080571395
 30
234.0
 10
1501.5585481175358
 20
32.320661400431696
 30
234.0
 10
1501.1629787189927
 20
32.058373325433344
 30
234.0
 10
1500.7601818580542
 20
31.8092414748648
 30
234.0
 10
1500.3518325503655
 20
31.570113701557048
 30
234.0
 10
1499.8090090790758
 20
31.267984863673703
 30
234.0
 10
1499.6803703767062
 20
31.19751386629514
 30
234.0
 10
1499.5512892928384
 20
31.127870962185174
 30
234.0
 10
1499.4217889416655
 20
31.05902051805458
 30
234.0
 10
1499.2918906423038
 20
30.990930070907595
 30
234.0
 10
1499.1616141328566
 20
30.923569867321607
 30
234.0
 10
1499.030977742563
 20
30.856912492869206
 30
234.0
 10
1498.8999985319633
 20
30.790932570334956
 30
234.0
  0
LINE
  5
30
330
17
100
AcDbEntity
  8
0
100
AcDbLine
 10
1498.9
 20
31.749241199452236
 30
234.0
 11
1498.9
 21
30.790929656080984
 31
234.0
  0
SPLINE
  5
31
330
17
100
AcDbEntity
  8
0
100
AcDbSpline
 70
0
 71
4
 72
10
 73
5
 74
0
 40
0.0
 40
0.0
 40
0.0
 40
0.0
 40
0.0
 40
1.0
 40
1.0
 40
1.0
 40
1.0
 40
1.0
 10
1495.0999994007025
 20
31.574477437883534
 30
234.0
 10
1496.050017270514
 20
31.617701225869297
 30
234.0
 10
1497.0000235140249
 20
31.661235374689692
 30
234.0
 10
1497.9500180010816
 20
31.70508142194397
 30
234.0
 10
1498.9000005992832
 20
31.749240904241745
 30
234.0
  0
LINE
  5
32
330
17
100
AcDbEntity
  8
0
100
AcDbLine
 10
1495.1
 20
31.574477761757308
 30
234.0
 11
1495.1
 21
29.11209682990049
 31
234.0
  0
SPLINE
  5
33
330
17
100
AcDbEntity
  8
0
100
AcDbSpline
 70
0
 71
8
 72
39
 73
30
 74
0
 40
0.0
 40
0.0
 40
0.0
 40
0.0
 40
0.0
 40
0.0
 40
0.0
 40
0.0
 40
0.0
 40
0.03797249745427458
 40
0.03797249745427458
 40
0.03797249745427458
 40
0.03797249745427458
 40
0.03797249745427458
 40
0.03797249745427458
 40
0.03797249745427458
 40
0.40977309974405296
 40
0.40977309974405296
 40
0.40977309974405296
 40
0.40977309974405296
 40
0.40977309974405296
 40
0.40977309974405296
 40
0.40977309974405296
 40
0.9397972177479516
 40
0.9397972177479516
 40
0.9397972177479516
 40
0.9397972177479516
 40
0.9397972177479516
 40
0.9397972177479516
 40
0.9397972177479516
 40
1.0
 40
1.0
 40
1.0
 40
1.0
 40
1.0
 40
1.0
 40
1.0
 40
1.0
 40
1.0
 10
1495.1000000142635
 20
29.112096793723193
 30
234.0
 10
1494.9980242781182
 20
29.071889375813655
 30
234.0
 10
1494.8959681813678
 20
29.031882855836344
 30
234.0
 10
1494.7938332952333
 20
28.9920734530497
 30
234.0
 10
1494.6916210367235
 20
28.952457501755067
 30
234.0
 10
1494.5893326717705
 20
28.913031444555433
 30
234.0
 10
1494.4869693171497
 20
28.873791828238815
 30
234.0
 10
1494.3845319408128
 20
28.83473530309079
 30
234.0
 10
1493.278308191751
 20
28.415204930931054
 30
234.0
 10
1492.26807470649
 20
28.05197110751712
 30
234.0
 10
1491.252656029951
 20
27.70325856232455
 30
234.0
 10
1490.2329701264457
 20
27.367182835332137
 30
234.0
 10
1489.2097036381301
 20
27.042314913315124
 30
234.0
 10
1488.1833731964543
 20
26.72749719789238
 30
234.0
 10
1487.1543372538677
 20
26.421807784042556
 30
234.0
 10
1484.652360967194
 20
25.70054054024074
 30
234.0
 10
1483.177032597959
 20
25.293609033156386
 30
234.0
 10
1481.69766986185
 20
24.901396960454544
 30
234.0
 10
1480.2148757035827
 20
24.522315718276232
 30
234.0
 10
1478.7291172799005
 20
24.155123712101116
 30
234.0
 10
1477.240758006178
 20
23.798801707077853
 30
234.0
 10
1475.750067990975
 20
23.452512148981505
 30
234.0
 10
1474.0876779907094
 20
23.077255472720566
 30
234.0
 10
1473.91808822886
 20
23.03909975745683
 30
234.0
 10
1473.7484717836428
 20
23.00106323035152
 30
234.0
 10
1473.578828965995
 20
22.96314486555023
 30
234.0
 10
1473.4091600811075
 20
22.925343658253684
 30
234.0
 10
1473.2394654285758
 20
22.887658623988717
 30
234.0
 10
1473.0697453025416
 20
22.850088797912782
 30
234.0
 10
1472.8999999918285
 20
22.81263323415043
 30
234.0
  0
LINE
  5
34
330
17
100
AcDbEntity
  8
0
100
AcDbLine
 10
1472.9
 20
30.6268432549559
 30
234.0
 11
1472.9
 21
22.81263319711615
 31
234.0
  0
SPLINE
  5
35
330
17
100
AcDbEntity
  8
0
100
AcDbSpline
 70
0
 71
4
 72
10
 73
5
 74
0
 40
0.0
 40
0.0
 40
0.0
 40
0.0
 40
0.0
 40
1.0
 40
1.0
 40
1.0
 40
1.0
 40
1.0
 10
1469.0999994005824
 20
30.476856085931573
 30
234.0
 10
1470.0500147316868
 20
30.513917480101895
 30
234.0
 10
1471.000020119002
 20
30.551268041192753
 30
234.0
 10
1471.950015447337
 20
30.588909308899865
 30
234.0
 10
1472.9000005993958
 20
30.62684282209466
 30
234.0
  0
LINE
  5
36
330
17
100
AcDbEntity
  8
0
100
AcDbLine
 10
1469.1
 20
30.476856965414328
 30
234.0
 11
1469.1
 21
21.99918053586686
 31
234.0
  0
SPLINE
  5
37
330
17
100
AcDbEntity
  8
0
100
AcDbSpline
 70
0
 71
8
 72
25
 73
16
 74
0
 40
0.0
 40
0.0
 40
0.0
 40
0.0
 40
0.0
 40
0.0
 40
0.0
 40
0.0
 40
0.0
 40
0.5292583853596435
 40
0.5292583853596435
 40
0.5292583853596435
 40
0.5292583853596435
 40
0.5292583853596435
 40
0.5292583853596435
 40
0.5292583853596435
 40
1.0
 40
1.0
 40
1.0
 40
1.0
 40
1.0
 40
1.0
 40
1.0
 40
1.0
 40
1.0
 10
1469.1000000072054
 20
21.99918050119121
 30
234.0
 10
1467.6389641108672
 20
21.69561187464235
 30
234.0
 10
1466.176387170264
 20
21.3994393597171
 30
234.0
 10
1464.7124107453535
 20
21.110203563280983
 30
234.0
 10
1463.2471542188919
 20
20.827515222054394
 30
234.0
 10
1461.7807188844315
 20
20.551035079565473
 30
234.0
 10
1460.3131900978394
 20
20.28046311198926
 30
234.0
 10
1458.8446385687143
 20
20.01553181404074
 30
234.0
 10
1456.0680801924964
 20
19.525159687445196
 30
234.0
 10
1454.760290872659
 20
19.29859391660323
 30
234.0
 10
1453.451796174214
 20
19.07613104084273
 30
234.0
 10
1452.142634945651
 20
18.857617714633427
 30
234.0
 10
1450.832842942526
 20
18.642914352483984
 30
234.0
 10
1449.5224531628598
 20
18.431892927109416
 30
234.0
 10
1448.211496109247
 20
18.224435245751128
 30
234.0
 10
1446.8999999950408
 20
18.020431589480296
 30
234.0
  0
LINE
  5
38
330
17
100
AcDbEntity
  8
0
100
AcDbLine
 10
1446.9
 20
29.668855506711296
 30
234.0
 11
1446.9
 21
18.02043155759884
 31
234.0
  0
SPLINE
  5
39
330
17
100
AcDbEntity
  8
0
100
AcDbSpline
 70
0
 71
4
 72
10
 73
5
 74
0
 40
0.0
 40
0.0
 40
0.0
 40
0.0
 40
0.0
 40
1.0
 40
1.0
 40
1.0
 40
1.0
 40
1.0
 10
1443.0999994004799
 20
29.541895307513343
 30
234.0
 10
1444.0500124924188
 20
29.573231853883797
 30
234.0
 10
1445.0000171240754
 20
29.604836378351287
 30
234.0
 10
1445.9500131941795
 20
29.636710422020975
 30
234.0
 10
1446.9000005995108
 20
29.668855525318943
 30
234.0
  0
LINE
  5
3A
330
17
100
AcDbEntity
  8
0
100
AcDbLine
 10
1443.1
 20
29.541895329137958
 30
234.0
 11
1443.1
 21
17.442028631110254
 31
234.0
  0
SPLINE
  5
3B
330
17
100
AcDbEntity
  8
0
100
AcDbSpline
 70
0
 71
8
 72
25
 73
16
 74
0
 40
0.0
 40
0.0
 40
0.0
 40
0.0
 40
0.0
 40
0.0
 40
0.0
 40
0.0
 40
0.0
 40
0.7785434371806169
 40
0.7785434371806169
 40
0.7785434371806169
 40
0.7785434371806169
 40
0.7785434371806169
 40
0.7785434371806169
 40
0.7785434371806169
 40
1.0
 40
1.0
 40
1.0
 40
1.0
 40
1.0
 40
1.0
 40
1.0
 40
1.0
 40
1.0
 10
1443.0999999973587
 20
17.442028648842808
 30
234.0
 10
1440.944382935471
 20
17.120949485278402
 30
234.0
 10
1438.7874660322987
 20
16.808582240086405
 30
234.0
 10
1436.6293569355526
 20
16.50450189104245
 30
234.0
 10
1434.4701485258029
 20
16.20833260964347
 30
234.0
 10
1432.309920733904
 20
15.919735683858349
 30
234.0
 10
1430.1487415073254
 20
15.63840292112944
 30
234.0
 10
1427.986667477625
 20
15.36405182504297
 30
234.0
 10
1425.2085018368014
 20
15.02029067683875
 30
234.0
 10
1424.593192194382
 20
14.944706366665214
 30
234.0
 10
1423.9778171120458
 20
14.869659892672926
 30
234.0
 10
1423.3623777534165
 20
14.795145378669353
 30
234.0
 10
1422.7468752576779
 20
14.721157081759271
 30
234.0
 10
1422.1313107402093
 20
14.647689386288167
 30
234.0
 10
1421.515685293178
 20
14.574736798172554
 30
234.0
 10
1420.899999986093
 20
14.50229393959322
 30
234.0
  0
LINE
  5
3C
330
17
100
AcDbEntity
  8
0
100
AcDbLine
 10
1420.9
 20
28.863312574760553
 30
234.0
 11
1420.9
 21
14.502293821398347
 31
234.0
  0
SPLINE
  5
3D
330
17
100
AcDbEntity
  8
0
100
AcDbSpline
 70
0
 71
4
 72
10
 73
5
 74
0
 40
0.0
 40
0.0
 40
0.0
 40
0.0
 40
0.0
 40
1.0
 40
1.0
 40
1.0
 40
1.0
 40
1.0
 10
1417.099999400371
 20
28.75763162275248
 30
234.0
 10
1418.0500105307938
 20
28.783680126323116
 30
234.0
 10
1419.000014500035
 20
28.80997542779687
 30
234.0
 10
1419.950011219705
 20
28.836519069116576
 30
234.0
 10
1420.9000005996072
 20
28.863312591671882
 30
234.0
  0
LINE
  5
3E
330
17
100
AcDbEntity
  8
0
100
AcDbLine
 10
1417.1
 20
28.757631639193804
 30
234.0
 11
1417.1
 21
14.063647233094947
 31
234.0
  0
SPLINE
  5
3F
330
17
100
AcDbEntity
  8
0
100
AcDbSpline
 70
0
 71
8
 72
18
 73
9
 74
0
 40
0.0
 40
0.0
 40
0.0
 40
0.0
 40
0.0
 40
0.0
 40
0.0
 40
0.0
 40
0.0
 40
1.0
 40
1.0
 40
1.0
 40
1.0
 40
1.0
 40
1.0
 40
1.0
 40
1.0
 40
1.0
 10
1417.099999995632
 20
14.063647271666273
 30
234.0
 10
1414.3283471113302
 20
13.749781582341082
 30
234.0
 10
1411.5555785557258
 20
13.445751685579355
 30
234.0
 10
1408.7817840782377
 20
13.151105816561138
 30
234.0
 10
1406.007044787204
 20
12.865433665988217
 30
234.0
 10
1403.231434013342
 20
12.588358063209604
 30
234.0
 10
1400.4550178796585
 20
12.319529363973711
 30
234.0
 10
1397.677855662718
 20
12.058621647835862
 30
234.0
 10
1394.899999990088
 20
11.805329833920768
 30
234.0
  0
LINE
  5
40
330
17
100
AcDbEntity
  8
0
100
AcDbLine
 10
1394.9
 20
28.198267133380664
 30
234.0
 11
1394.9
 21
11.805329725218972
 31
234.0
  0
SPLINE
  5
41
330
17
100
AcDbEntity
  8
0
100
AcDbSpline
 70
0
 71
4
 72
10
 73
5
 74
0
 40
0.0
 40
0.0
 40
0.0
 40
0.0
 40
0.0
 40
1.0
 40
1.0
 40
1.0
 40
1.0
 40
1.0
 10
1391.099999400284
 20
28.11212089226537
 30
234.0
 10
1392.0500088249084
 20
28.133317468713997
 30
234.0
 10
1393.0000122176737
 20
28.154739674204595
 30
234.0
 10
1393.9500095020137
 20
28.17638905105193
 30
234.0
 10
1394.9000005997123
 20
28.198267141126294
 30
234.0
  0
LINE
  5
42
330
17
100
AcDbEntity
  8
0
100
AcDbLine
 10
1391.1
 20
28.11212091148174
 30
234.0
 11
1391.1
 21
11.4650357167203
 31
234.0
  0
SPLINE
  5
43
330
17
100
AcDbEntity
  8
0
100
AcDbSpline
 70
0
 71
8
 72
25
 73
16
 74
0
 40
0.0
 40
0.0
 40
0.0
 40
0.0
 40
0.0
 40
0.0
 40
0.0
 40
0.0
 40
0.0
 40
0.649039628341999
 40
0.649039628341999
 40
0.649039628341999
 40
0.649039628341999
 40
0.649039628341999
 40
0.649039628341999
 40
0.649039628341999
 40
1.0
 40
1.0
 40
1.0
 40
1.0
 40
1.0
 40
1.0
 40
1.0
 40
1.0
 40
1.0
 10
1391.0999999773296
 20
11.465035974512514
 30
234.0
 10
1389.3001883367226
 20
11.306756651642955
 30
234.0
 10
1387.5001071902964
 20
11.151545005217
 30
234.0
 10
1385.6997693087355
 20
10.99932275154993
 30
234.0
 10
1383.899186311209
 20
10.850014953219896
 30
234.0
 10
1382.0983686787258
 20
10.703549735016813
 30
234.0
 10
1380.2973257564397
 20
10.55985804521276
 30
234.0
 10
1378.4960657467145
 20
10.418873419548394
 30
234.0
 10
1375.7204724323456
 20
10.205725087668885
 30
234.0
 10
1374.746288200325
 20
10.13169054492679
 30
234.0
 10
1373.7720449258786
 20
10.058418271646465
 30
234.0
 10
1372.7977443609245
 20
9.985898617624349
 30
234.0
 10
1371.8233881217366
 20
9.91412208385047
 30
234.0
 10
1370.8489777180039
 20
9.8430793195397
 30
234.0
 10
1369.8745145734997
 20
9.772761120020085
 30
234.0
 10
1368.9000000428532
 20
9.703158424784643
 30
234.0
  0
LINE
  5
44
330
17
100
AcDbEntity
  8
0
100
AcDbLine
 10
1368.9
 20
27.661790449457968
 30
234.0
 11
1368.9
 21
9.703159024773242
 31
234.0
  0
SPLINE
  5
45
330
17
100
AcDbEntity
  8
0
100
AcDbSpline
 70
0
 71
4
 72
10
 73
5
 74
0
 40
0.0
 40
0.0
 40
0.0
 40
0.0
 40
0.0
 40
1.0
 40
1.0
 40
1.0
 40
1.0
 40
1.0
 10
1365.0999994001957
 20
27.593436940519297
 30
234.0
 10
1366.0500073527971
 20
27.61021706756906
 30
234.0
 10
1367.0000102477095
 20
27.62720166806658
 30
234.0
 10
1367.9500080191403
 20
27.644392284330408
 30
234.0
 10
1368.9000005997916
 20
27.661790458327353
 30
234.0
  0
LINE
  5
46
330
17
100
AcDbEntity
  8
0
100
AcDbLine
 10
1365.1
 20
27.593436952045465
 30
234.0
 11
1365.1
 21
9.436476993821886
 31
234.0
  0
SPLINE
  5
47
330
17
100
AcDbEntity
  8
0
100
AcDbSpline
 70
0
 71
8
 72
25
 73
16
 74
0
 40
0.0
 40
0.0
 40
0.0
 40
0.0
 40
0.0
 40
0.0
 40
0.0
 40
0.0
 40
0.0
 40
0.6944768392930947
 40
0.6944768392930947
 40
0.6944768392930947
 40
0.6944768392930947
 40
0.6944768392930947
 40
0.6944768392930947
 40
0.6944768392930947
 40
1.0
 40
1.0
 40
1.0
 40
1.0
 40
1.0
 40
1.0
 40
1.0
 40
1.0
 40
1.0
 10
1365.1000000856338
 20
9.43647575188455
 30
234.0
 10
1363.173632036432
 20
9.303649036029691
 30
234.0
 10
1361.2470779170578
 20
9.173515696775329
 30
234.0
 10
1359.3203471674187
 20
9.046008461781673
 30
234.0
 10
1357.3934486192431
 20
8.921062198809587
 30
234.0
 10
1355.4663909303629
 20
8.798613848064646
 30
234.0
 10
1353.5391830630952
 20
8.678602319091894
 30
234.0
 10
1351.6118353982918
 20
8.560968250666196
 30
234.0
 10
1348.8364036495009
 20
8.394922685842774
 30
234.0
 10
1347.9884192947807
 20
8.344638854705146
 30
234.0
 10
1347.1404097449486
 20
8.294796488881337
 30
234.0
 10
1346.2923754722335
 20
8.245390214673302
 30
234.0
 10
1345.444316941672
 20
8.196414752032462
 30
234.0
 10
1344.5962346110857
 20
8.147864912623309
 30
234.0
 10
1343.7481289310642
 20
8.099735597936396
 30
234.0
 10
1342.9000003449548
 20
8.052021797449255
 30
234.0
  0
LINE
  5
48
330
17
100
AcDbEntity
  8
0
100
AcDbLine
 10
1342.9
 20
27.241970613721044
 30
234.0
 11
1342.9
 21
8.052027929132027
 31
234.0
  0
SPLINE
  5
49
330
17
100
AcDbEntity
  8
0
100
AcDbSpline
 70
0
 71
4
 72
10
 73
5
 74
0
 40
0.0
 40
0.0
 40
0.0
 40
0.0
 40
0.0
 40
1.0
 40
1.0
 40
1.0
 40
1.0
 40
1.0
 10
1339.0999994001154
 20
27.189670185106195
 30
234.0
 10
1340.0500060925417
 20
27.202468753583215
 30
234.0
 10
1341.000008560924
 20
27.21545065441338
 30
234.0
 10
1341.950006749179
 20
27.22861742963964
 30
234.0
 10
1342.900000599874
 20
27.241970621031232
 30
234.0
  0
LINE
  5
4A
330
17
100
AcDbEntity
  8
0
100
AcDbLine
 10
1339.1
 20
27.18967019445622
 30
234.0
 11
1339.1
 21
7.841857831800427
 31
234.0
  0
SPLINE
  5
4B
330
17
100
AcDbEntity
  8
0
100
AcDbSpline
 70
0
 71
8
 72
18
 73
9
 74
0
 40
0.0
 40
0.0
 40
0.0
 40
0.0
 40
0.0
 40
0.0
 40
0.0
 40
0.0
 40
0.0
 40
1.0
 40
1.0
 40
1.0
 40
1.0
 40
1.0
 40
1.0
 40
1.0
 40
1.0
 40
1.0
 10
1339.1000002266653
 20
7.841853662850801
 30
234.0
 10
1336.3257069938077
 20
7.691015688489454
 30
234.0
 10
1333.55118428921
 20
7.544447030306491
 30
234.0
 10
1330.776446914848
 20
7.401980794009653
 30
234.0
 10
1328.0015088420403
 20
7.2634596934204065
 30
234.0
 10
1325.226383210445
 20
7.1287353916974805
 30
234.0
 10
1322.4510823329479
 20
6.997667899191251
 30
234.0
 10
1319.675617704304
 20
6.8701250219860475
 30
234.0
 10
1316.900000012056
 20
6.7459818550429
 30
234.0
  0
LINE
  5
4C
330
17
100
AcDbEntity
  8
0
100
AcDbLine
 10
1316.9
 20
26.92691112896161
 30
234.0
 11
1316.9
 21
6.745982124593716
 31
234.0
  0
SPLINE
  5
4D
330
17
100
AcDbEntity
  8
0
100
AcDbSpline
 70
0
 71
4
 72
10
 73
5
 74
0
 40
0.0
 40
0.0
 40
0.0
 40
0.0
 40
0.0
 40
1.0
 40
1.0
 40
1.0
 40
1.0
 40
1.0
 10
1313.0999994000413
 20
26.888926271477494
 30
234.0
 10
1314.0500050222365
 20
26.898177636074493
 30
234.0
 10
1315.0000071281065
 20
26.90759120702821
 30
234.0
 10
1315.950005670219
 20
26.917168525906277
 30
234.0
 10
1316.9000005999485
 20
26.926911134067705
 30
234.0
  0
LINE
  5
4E
330
17
100
AcDbEntity
  8
0
100
AcDbLine
 10
1313.1
 20
26.888926278072482
 30
234.0
 11
1313.1
 21
6.578780513613847
 31
234.0
  0
SPLINE
  5
4F
330
17
100
AcDbEntity
  8
0
100
AcDbSpline
 70
0
 71
8
 72
18
 73
9
 74
0
 40
0.0
 40
0.0
 40
0.0
 40
0.0
 40
0.0
 40
0.0
 40
0.0
 40
0.0
 40
0.0
 40
1.0
 40
1.0
 40
1.0
 40
1.0
 40
1.0
 40
1.0
 40
1.0
 40
1.0
 40
1.0
 10
1313.1000000067227
 20
6.578780358297029
 30
234.0
 10
1310.3254351017526
 20
6.458687355986284
 30
234.0
 10
1307.5507278794958
 20
6.341866066577735
 30
234.0
 10
1304.7758883268339
 20
6.228197833287349
 30
234.0
 10
1302.0009256326969
 20
6.117570936666393
 30
234.0
 10
1299.225848199997
 20
6.009880111177965
 30
234.0
 10
1296.4506636593487
 20
5.905026104173383
 30
234.0
 10
1293.6753788832148
 20
5.802915271175137
 30
234.0
 10
1290.899999999774
 20
5.703459201229107
 30
234.0
  0
LINE
  5
50
330
17
100
AcDbEntity
  8
0
100
AcDbLine
 10
1290.9
 20
26.704729564246403
 30
234.0
 11
1290.9
 21
5.703459194917642
 31
234.0
  0
SPLINE
  5
51
330
17
100
AcDbEntity
  8
0
100
AcDbSpline
 70
0
 71
4
 72
10
 73
5
 74
0
 40
0.0
 40
0.0
 40
0.0
 40
0.0
 40
0.0
 40
1.0
 40
1.0
 40
1.0
 40
1.0
 40
1.0
 10
1287.099999399974
 20
26.679324712703277
 30
234.0
 10
1288.050004120015
 20
26.68546274246563
 30
234.0
 10
1289.0000059201016
 20
26.69174186771826
 30
234.0
 10
1289.9500047603956
 20
26.698163629424673
 30
234.0
 10
1290.9000006000167
 20
26.704729568393443
 30
234.0
  0
LINE
  5
52
330
17
100
AcDbEntity
  8
0
100
AcDbLine
 10
1287.1
 20
26.679324716596085
 30
234.0
 11
1287.1
 21
5.5694411285585925
 31
234.0
  0
SPLINE
  5
53
330
17
100
AcDbEntity
  8
0
100
AcDbSpline
 70
0
 71
8
 72
18
 73
9
 74
0
 40
0.0
 40
0.0
 40
0.0
 40
0.0
 40
0.0
 40
0.0
 40
0.0
 40
0.0
 40
0.0
 40
1.0
 40
1.0
 40
1.0
 40
1.0
 40
1.0
 40
1.0
 40
1.0
 40
1.0
 40
1.0
 10
1287.099999999242
 20
5.569441150398493
 30
234.0
 10
1284.3252762131292
 20
5.473138564081086
 30
234.0
 10
1281.5504643354416
 20
5.379400803800687
 30
234.0
 10
1278.7755698569654
 20
5.288143898188999
 30
234.0
 10
1276.0005975344427
 20
5.199288852599961
 30
234.0
 10
1273.2255514042226
 20
5.112761289846711
 30
234.0
 10
1270.4504347954085
 20
5.028491118822527
 30
234.0
 10
1267.675250341921
 20
4.946412224755817
 30
234.0
 10
1264.8999999935422
 20
4.86646217470558
 30
234.0
  0
LINE
  5
54
330
17
100
AcDbEntity
  8
0
100
AcDbLine
 10
1264.9
 20
26.563556202997
 30
234.0
 11
1264.9
 21
4.866461950539579
 31
234.0
  0
SPLINE
  5
55
330
17
100
AcDbEntity
  8
0
100
AcDbSpline
 70
0
 71
4
 72
10
 73
5
 74
0
 40
0.0
 40
0.0
 40
0.0
 40
0.0
 40
0.0
 40
1.0
 40
1.0
 40
1.0
 40
1.0
 40
1.0
 10
1261.0999993999135
 20
26.54899753381526
 30
234.0
 10
1262.050003364055
 20
26.552455662365766
 30
234.0
 10
1263.00000490781
 20
26.556033790202186
 30
234.0
 10
1263.950003997884
 20
26.55973345761702
 30
234.0
 10
1264.9000006000788
 20
26.56355620479205
 30
234.0
  0
LINE
  5
56
330
17
100
AcDbEntity
  8
0
100
AcDbLine
 10
1261.1
 20
26.548997536699787
 30
234.0
 11
1261.1
 21
4.758720961774263
 31
234.0
  0
SPLINE
  5
57
330
17
100
AcDbEntity
  8
0
100
AcDbSpline
 70
0
 71
8
 72
18
 73
9
 74
0
 40
0.0
 40
0.0
 40
0.0
 40
0.0
 40
0.0
 40
0.0
 40
0.0
 40
0.0
 40
0.0
 40
1.0
 40
1.0
 40
1.0
 40
1.0
 40
1.0
 40
1.0
 40
1.0
 40
1.0
 40
1.0
 10
1261.0999999920468
 20
4.758721246799561
 30
234.0
 10
1258.3251656336251
 20
4.68129771581655
 30
234.0
 10
1255.550279759576
 20
4.605940097779178
 30
234.0
 10
1252.7753445628864
 20
4.5325891177184054
 30
234.0
 10
1250.0003621554501
 20
4.461189013872389
 30
234.0
 10
1247.2253345714153
 20
4.3916872710187995
 30
234.0
 10
1244.4502637702656
 20
4.324034375236655
 30
234.0
 10
1241.6751516396596
 20
4.258183588042388
 30
234.0
 10
1238.899999998053
 20
4.19409073806244
 30
234.0
  0
LINE
  5
58
330
17
100
AcDbEntity
  8
0
100
AcDbLine
 10
1238.9
 20
26.491532680830716
 30
234.0
 11
1238.9
 21
4.194090653738496
 31
234.0
  0
SPLINE
  5
59
330
17
100
AcDbEntity
  8
0
100
AcDbSpline
 70
0
 71
4
 72
10
 73
5
 74
0
 40
0.0
 40
0.0
 40
0.0
 40
0.0
 40
0.0
 40
1.0
 40
1.0
 40
1.0
 40
1.0
 40
1.0
 10
1235.0999993998598
 20
26.486087920298267
 30
234.0
 10
1236.0500027325804
 20
26.487299195816934
 30
234.0
 10
1237.000004062205
 20
26.48860938817773
 30
234.0
 10
1237.950003360909
 20
26.490020036990245
 30
234.0
 10
1238.9000006001347
 20
26.49153268178629
 30
234.0
  0
LINE
  5
5A
330
17
100
AcDbEntity
  8
0
100
AcDbLine
 10
1235.1
 20
26.486087921063458
 30
234.0
 11
1235.1
 21
4.107759178499775
 31
234.0
  0
SPLINE
  5
5B
330
17
100
AcDbEntity
  8
0
100
AcDbSpline
 70
0
 71
8
 72
18
 73
9
 74
0
 40
0.0
 40
0.0
 40
0.0
 40
0.0
 40
0.0
 40
0.0
 40
0.0
 40
0.0
 40
0.0
 40
1.0
 40
1.0
 40
1.0
 40
1.0
 40
1.0
 40
1.0
 40
1.0
 40
1.0
 40
1.0
 10
1235.0999999985575
 20
4.107759243031202
 30
234.0
 10
1232.325120083532
 20
4.045752991948123
 30
234.0
 10
1229.550202503473
 20
3.985460030506287
 30
234.0
 10
1226.7752490177631
 20
3.926838338556172
 30
234.0
 10
1224.0002613183701
 20
3.8698483223621776
 30
234.0
 10
1221.225241032355
 20
3.8144526152337273
 30
234.0
 10
1218.4501897241712
 20
3.7606158950585638
 30
234.0
 10
1215.6751088977762
 20
3.7083047169392214
 30
234.0
 10
1212.8999999985715
 20
3.65748735935104
 30
234.0
  0
LINE
  5
5C
330
17
100
AcDbEntity
  8
0
100
AcDbLine
 10
1212.9
 20
26.476810647559233
 30
234.0
 11
1212.9
 21
3.6574872813328345
 31
234.0
  0
SPLINE
  5
5D
330
17
100
AcDbEntity
  8
0
100
AcDbSpline
 70
0
 71
4
 72
10
 73
5
 74
0
 40
0.0
 40
0.0
 40
0.0
 40
0.0
 40
0.0
 40
1.0
 40
1.0
 40
1.0
 40
1.0
 40
1.0
 10
1209.099999399813
 20
26.478748870297007
 30
234.0
 10
1210.0500022038623
 20
26.4781460052723
 30
234.0
 10
1211.0000033543045
 20
26.477620987140106
 30
234.0
 10
1211.9500028277391
 20
26.477175354856122
 30
234.0
 10
1212.9000006001813
 20
26.47681064732882
 30
234.0
  0
LINE
  5
5E
330
17
100
AcDbEntity
  8
0
100
AcDbLine
 10
1209.1
 20
26.47874886991613
 30
234.0
 11
1209.1
 21
3.5891192888720784
 31
234.0
  0
SPLINE
  5
5F
330
17
100
AcDbEntity
  8
0
100
AcDbSpline
 70
0
 71
8
 72
18
 73
9
 74
0
 40
0.0
 40
0.0
 40
0.0
 40
0.0
 40
0.0
 40
0.0
 40
0.0
 40
0.0
 40
0.0
 40
1.0
 40
1.0
 40
1.0
 40
1.0
 40
1.0
 40
1.0
 40
1.0
 40
1.0
 40
1.0
 10
1209.0999999986107
 20
3.5891193674768234
 30
234.0
 10
1206.3250838523209
 20
3.5400765893076174
 30
234.0
 10
1203.5501410964062
 20
3.492495558771906
 30
234.0
 10
1200.7751731263763
 20
3.4463459922211817
 30
234.0
 10
1198.0001812805044
 20
3.401599225869916
 30
234.0
 10
1195.2251668416825
 20
3.358228068818562
 30
234.0
 10
1192.450131039116
 20
3.3162066690566916
 30
234.0
 10
1189.675075049874
 20
3.2755103909027286
 30
234.0
 10
1186.9000000003125
 20
3.236115702553949
 30
234.0
  0
LINE
  5
60
330
17
100
AcDbEntity
  8
0
100
AcDbLine
 10
1186.9
 20
26.507550414983736
 30
234.0
 11
1186.9
 21
3.2361157245605017
 31
234.0
  0
SPLINE
  5
61
330
17
100
AcDbEntity
  8
0
100
AcDbSpline
 70
0
 71
4
 72
10
 73
5
 74
0
 40
0.0
 40
0.0
 40
0.0
 40
0.0
 40
0.0
 40
1.0
 40
1.0
 40
1.0
 40
1.0
 40
1.0
 10
1183.099999399768
 20
26.51514185010758
 30
234.0
 10
1184.050001756214
 20
26.51315727087533
 30
234.0
 10
1185.000002755197
 20
26.511229479510412
 30
234.0
 10
1185.9500023766889
 20
26.509360014383795
 30
234.0
 10
1186.9000006002218
 20
26.507550413840406
 30
234.0
  0
LINE
  5
62
330
17
100
AcDbEntity
  8
0
100
AcDbLine
 10
1183.1
 20
26.51514184885368
 30
234.0
 11
1183.1
 21
3.183232735472062
 31
234.0
  0
SPLINE
  5
63
330
17
100
AcDbEntity
  8
0
100
AcDbSpline
 70
0
 71
8
 72
18
 73
9
 74
0
 40
0.0
 40
0.0
 40
0.0
 40
0.0
 40
0.0
 40
0.0
 40
0.0
 40
0.0
 40
0.0
 40
1.0
 40
1.0
 40
1.0
 40
1.0
 40
1.0
 40
1.0
 40
1.0
 40
1.0
 40
1.0
 10
1183.100000000501
 20
3.183232698722643
 30
234.0
 10
1180.3250555774416
 20
3.145385320621634
 30
234.0
 10
1177.5500932306534
 20
3.1088156985454116
 30
234.0
 10
1174.775114043323
 20
3.0735012167147717
 30
234.0
 10
1172.0001190488883
 20
3.039420287763294
 30
234.0
 10
1169.2251092323982
 20
3.006552245393021
 30
234.0
 10
1166.4500855317506
 20
2.9748772466895446
 30
234.0
 10
1163.6750488388261
 20
2.9443761828078716
 30
234.0
 10
1160.9000000005292
 20
2.9150305969575885
 30
234.0
  0
LINE
  5
64
330
17
100
AcDbEntity
  8
0
100
AcDbLine
 10
1160.9
 20
26.571919619249798
 30
234.0
 11
1160.9
 21
2.9150306470040697
 31
234.0
  0
SPLINE
  5
65
330
17
100
AcDbEntity
  8
0
100
AcDbSpline
 70
0
 71
4
 72
10
 73
5
 74
0
 40
0.0
 40
0.0
 40
0.0
 40
0.0
 40
0.0
 40
1.0
 40
1.0
 40
1.0
 40
1.0
 40
1.0
 10
1157.0999993997368
 20
26.583435452524885
 30
234.0
 10
1158.0500013680014
 20
26.580501348611108
 30
234.0
 10
1159.0000022360348
 20
26.577602982661507
 30
234.0
 10
1159.9500019861168
 20
26.574741892555657
 30
234.0
 10
1160.9000006002561
 20
26.571919616166603
 30
234.0
  0
LINE
  5
66
330
17
100
AcDbEntity
  8
0
100
AcDbLine
 10
1157.1
 20
26.583435452398643
 30
234.0
 11
1157.1
 21
2.875789262843412
 31
234.0
  0
SPLINE
  5
67
330
17
100
AcDbEntity
  8
0
100
AcDbSpline
 70
0
 71
8
 72
18
 73
9
 74
0
 40
0.0
 40
0.0
 40
0.0
 40
0.0
 40
0.0
 40
0.0
 40
0.0
 40
0.0
 40
0.0
 40
1.0
 40
1.0
 40
1.0
 40
1.0
 40
1.0
 40
1.0
 40
1.0
 40
1.0
 40
1.0
 10
1157.100000000453
 20
2.8757892178710476
 30
234.0
 10
1154.3250342513886
 20
2.8478178310199596
 30
234.0
 10
1151.5500572078554
 20
2.820983165813499
 30
234.0
 10
1148.7750696784808
 20
2.7952673017290004
 30
234.0
 10
1146.0000724276188
 20
2.770652915323444
 30
234.0
 10
1143.2250661763444
 20
2.747123201887449
 30
234.0
 10
1140.4500516033618
 20
2.7246618040366615
 30
234.0
 10
1137.6750293458347
 20
2.7032527462064624
 30
234.0
 10
1134.900000000155
 20
2.6828803742330294
 30
234.0
  0
LINE
  5
68
330
17
100
AcDbEntity
  8
0
100
AcDbLine
 10
1134.9
 20
26.658091881500578
 30
234.0
 11
1134.9
 21
2.6828803952853484
 31
234.0
  0
SPLINE
  5
69
330
17
100
AcDbEntity
  8
0
100
AcDbSpline
 70
0
 71
5
 72
12
 73
6
 74
0
 40
0.0
 40
0.0
 40
0.0
 40
0.0
 40
0.0
 40
0.0
 40
1.0
 40
1.0
 40
1.0
 40
1.0
 40
1.0
 40
1.0
 10
1131.0999993997127
 20
26.671804057619397
 30
234.0
 10
1131.932792815952
 20
26.66877828171489
 30
234.0
 10
1132.6632709675516
 20
26.6661348396731
 30
234.0
 10
1133.461106763763
 20
26.663252810710517
 30
234.0
 10
1134.2888775277052
 20
26.66028093563606
 30
234.0
 10
1134.9000006002864
 20
26.658091872026
 30
234.0
  0
LINE
  5
6A
330
17
100
AcDbEntity
  8
0
100
AcDbLine
 10
1131.1
 20
26.671804062962153
 30
234.0
 11
1131.1
 21
2.655829520116666
 31
234.0
  0
SPLINE
  5
6B
330
17
100
AcDbEntity
  8
0
100
AcDbSpline
 70
0
 71
8
 72
18
 73
9
 74
0
 40
0.0
 40
0.0
 40
0.0
 40
0.0
 40
0.0
 40
0.0
 40
0.0
 40
0.0
 40
0.0
 40
1.0
 40
1.0
 40
1.0
 40
1.0
 40
1.0
 40
1.0
 40
1.0
 40
1.0
 40
1.0
 10
1131.1000000001732
 20
2.655829495085267
 30
234.0
 10
1128.3250191419954
 20
2.636690076756531
 30
234.0
 10
1125.5500317905903
 20
2.6185713608308343
 30
234.0
 10
1122.7750385076415
 20
2.6014579517057452
 30
234.0
 10
1120.000039814578
 20
2.585334734667218
 30
234.0
 10
1117.2250361933075
 20
2.5701868180177065
 30
234.0
 10
1114.45002808689
 20
2.5559994800167116
 30
234.0
 10
1111.675015900159
 20
2.5427581198540494
 30
234.0
 10
1108.9000000002961
 20
2.5304482120931757
 30
234.0
  0
LINE
  5
6C
330
17
100
AcDbEntity
  8
0
100
AcDbLine
 10
1108.9
 20
26.75424545527991
 30
234.0
 11
1108.9
 21
2.530448278688526
 31
234.0
  0
SPLINE
  5
6D
330
17
100
AcDbEntity
  8
0
100
AcDbSpline
 70
0
 71
4
 72
10
 73
5
 74
0
 40
0.0
 40
0.0
 40
0.0
 40
0.0
 40
0.0
 40
1.0
 40
1.0
 40
1.0
 40
1.0
 40
1.0
 10
1105.0999993996932
 20
26.768426495517843
 30
234.0
 10
1106.0500006834488
 20
26.764889209229572
 30
234.0
 10
1107.0000013222934
 20
26.761345580465584
 30
234.0
 10
1107.9500012999833
 20
26.757797146473358
 30
234.0
 10
1108.9000006003093
 20
26.754245444524535
 30
234.0
  0
LINE
  5
6E
330
17
100
AcDbEntity
  8
0
100
AcDbLine
 10
1105.1
 20
26.768426501376194
 30
234.0
 11
1105.1
 21
2.5143516542808038
 31
234.0
  0
SPLINE
  5
6F
330
17
100
AcDbEntity
  8
0
100
AcDbSpline
 70
0
 71
8
 72
18
 73
9
 74
0
 40
0.0
 40
0.0
 40
0.0
 40
0.0
 40
0.0
 40
0.0
 40
0.0
 40
0.0
 40
0.0
 40
1.0
 40
1.0
 40
1.0
 40
1.0
 40
1.0
 40
1.0
 40
1.0
 40
1.0
 40
1.0
 10
1105.1000000003069
 20
2.5143515782212553
 30
234.0
 10
1102.3250097103773
 20
2.5031489228716195
 30
234.0
 10
1099.5500160680012
 20
2.4928628108940196
 30
234.0
 10
1096.7750194082917
 20
2.4834787686512825
 30
234.0
 10
1094.0000200290986
 20
2.4749823672851106
 30
234.0
 10
1091.2250181915615
 20
2.4673591788953018
 30
234.0
 10
1088.4500141206195
 20
2.4605947360025526
 30
234.0
 10
1085.6750080054835
 20
2.45467449376937
 30
234.0
 10
1082.9000000000785
 20
2.449583794670649
 30
234.0
  0
LINE
  5
70
330
17
100
AcDbEntity
  8
0
100
AcDbLine
 10
1082.9
 20
26.848561913623413
 30
234.0
 11
1082.9
 21
2.4495838374924768
 31
234.0
  0
SPLINE
  5
71
330
17
100
AcDbEntity
  8
0
100
AcDbSpline
 70
0
 71
4
 72
10
 73
5
 74
0
 40
0.0
 40
0.0
 40
0.0
 40
0.0
 40
0.0
 40
1.0
 40
1.0
 40
1.0
 40
1.0
 40
1.0
 10
1079.0999993996784
 20
26.861484710763943
 30
234.0
 10
1080.0500003439515
 20
26.858293538336333
 30
234.0
 10
1081.0000008701718
 20
26.855074988699958
 30
234.0
 10
1081.9500009612589
 20
26.851830598972708
 30
234.0
 10
1082.9000006003187
 20
26.848561906311737
 30
234.0
  0
LINE
  5
72
330
17
100
AcDbEntity
  8
0
100
AcDbLine
 10
1079.1
 20
26.86148470900231
 30
234.0
 11
1079.1
 21
2.443289221897618
 31
234.0
  0
SPLINE
  5
73
330
17
100
AcDbEntity
  8
0
100
AcDbSpline
 70
0
 71
8
 72
18
 73
9
 74
0
 40
0.0
 40
0.0
 40
0.0
 40
0.0
 40
0.0
 40
0.0
 40
0.0
 40
0.0
 40
0.0
 40
1.0
 40
1.0
 40
1.0
 40
1.0
 40
1.0
 40
1.0
 40
1.0
 40
1.0
 40
1.0
 10
1079.1000000000486
 20
2.443289189226837
 30
234.0
 10
1076.3250055530968
 20
2.4391834278176456
 30
234.0
 10
1073.5500093585156
 20
2.4358920936443456
 30
234.0
 10
1070.7750115401545
 20
2.433400422759206
 30
234.0
 10
1068.0000121868732
 20
2.431693514765186
 30
234.0
 10
1065.2250113529642
 20
2.4307562987193894
 30
234.0
 10
1062.4500090585468
 20
2.4305735013868737
 30
234.0
 10
1059.6750052899288
 20
2.4311296175735286
 30
234.0
 10
1056.8999999999423
 20
2.4324088824837617
 30
234.0
  0
LINE
  5
74
330
17
100
AcDbEntity
  8
0
100
AcDbLine
 10
1056.9
 20
26.92922480684573
 30
234.0
 11
1056.9
 21
2.432409008016732
 31
234.0
  0
SPLINE
  5
75
330
17
100
AcDbEntity
  8
0
100
AcDbSpline
 70
0
 71
4
 72
10
 73
5
 74
0
 40
0.0
 40
0.0
 40
0.0
 40
0.0
 40
0.0
 40
1.0
 40
1.0
 40
1.0
 40
1.0
 40
1.0
 10
1053.099999399673
 20
26.93916242783633
 30
234.0
 10
1054.049999977562
 20
26.936749101621647
 30
234.0
 10
1055.0000003828898
 20
26.93428736432377
 30
234.0
 10
1055.9500005966859
 20
26.931778753047197
 30
234.0
 10
1056.9000006003257
 20
26.929224804955776
 30
234.0
  0
LINE
  5
76
330
17
100
AcDbEntity
  8
0
100
AcDbLine
 10
1053.1
 20
26.939162426741756
 30
234.0
 11
1053.1
 21
2.4347496269899827
 31
234.0
  0
SPLINE
  5
77
330
17
100
AcDbEntity
  8
0
100
AcDbSpline
 70
0
 71
8
 72
25
 73
16
 74
0
 40
0.0
 40
0.0
 40
0.0
 40
0.0
 40
0.0
 40
0.0
 40
0.0
 40
0.0
 40
0.0
 40
0.2751408568217909
 40
0.2751408568217909
 40
0.2751408568217909
 40
0.2751408568217909
 40
0.2751408568217909
 40
0.2751408568217909
 40
0.2751408568217909
 40
1.0
 40
1.0
 40
1.0
 40
1.0
 40
1.0
 40
1.0
 40
1.0
 40
1.0
 40
1.0
 10
1053.0999999998871
 20
2.4347494811970547
 30
234.0
 10
1052.3364857493393
 20
2.4353371771500676
 30
234.0
 10
1051.5729713788428
 20
2.435978382227602
 30
234.0
 10
1050.8094568868207
 20
2.4366727632774716
 30
234.0
 10
1050.045942271505
 20
2.437419985553349
 30
234.0
 10
1049.282427530938
 20
2.438219712672814
 30
234.0
 10
1048.5189126629728
 20
2.439071606576276
 30
234.0
 10
1047.7553976652725
 20
2.4399753274867675
 30
234.0
 10
1044.9804003828633
 20
2.443447027018697
 30
234.0
 10
1042.968917398613
 20
2.4463207845999158
 30
234.0
 10
1040.9574335330851
 20
2.4495455907433517
 30
234.0
 10
1038.9459487461047
 20
2.453115115607811
 30
234.0
 10
1036.9344630086314
 20
2.457022921168951
 30
234.0
 10
1034.922976303346
 20
2.461262463078293
 30
234.0
 10
1032.91148862484
 20
2.4658270912603895
 30
234.0
 10
1030.900000000172
 20
2.4707101237441744
 30
234.0
  0
LINE
  5
78
330
17
100
AcDbEntity
  8
0
100
AcDbLine
 10
1030.9
 20
26.98441833014381
 30
234.0
 11
1030.9
 21
2.4707100529612998
 31
234.0
  0
SPLINE
  5
79
330
17
100
AcDbEntity
  8
0
100
AcDbSpline
 70
0
 71
4
 72
10
 73
5
 74
0
 40
0.0
 40
0.0
 40
0.0
 40
0.0
 40
0.0
 40
1.0
 40
1.0
 40
1.0
 40
1.0
 40
1.0
 10
1027.0999993996743
 20
26.989643817401536
 30
234.0
 10
1028.0499995627165
 20
26.988440077272195
 30
234.0
 10
1028.9999998316919
 20
26.987166891037383
 30
234.0
 10
1029.9500001846998
 20
26.98582579589449
 30
234.0
 10
1030.9000006003262
 20
26.98441832911547
 30
234.0
  0
LINE
  5
7A
330
17
100
AcDbEntity
  8
0
100
AcDbLine
 10
1027.1
 20
26.98964381665867
 30
234.0
 11
1027.1
 21
2.480426721282933
 31
234.0
  0
SPLINE
  5
7B
330
17
100
AcDbEntity
  8
0
100
AcDbSpline
 70
0
 71
8
 72
25
 73
16
 74
0
 40
0.0
 40
0.0
 40
0.0
 40
0.0
 40
0.0
 40
0.0
 40
0.0
 40
0.0
 40
0.0
 40
0.17187394660034006
 40
0.17187394660034006
 40
0.17187394660034006
 40
0.17187394660034006
 40
0.17187394660034006
 40
0.17187394660034006
 40
0.17187394660034006
 40
1.0
 40
1.0
 40
1.0
 40
1.0
 40
1.0
 40
1.0
 40
1.0
 40
1.0
 40
1.0
 10
1027.1000000010501
 20
2.480427112439063
 30
234.0
 10
1026.6230504172063
 20
2.4817078820650633
 30
234.0
 10
1026.1461007842122
 20
2.483006020658453
 30
234.0
 10
1025.669151103133
 20
2.484321439333192
 30
234.0
 10
1025.1922013752223
 20
2.485654049413422
 30
234.0
 10
1024.7152516019528
 20
2.4870037625377406
 30
234.0
 10
1024.238301785049
 20
2.4883704907834514
 30
234.0
 10
1023.7613519265306
 20
2.489754146814648
 30
234.0
 10
1020.9863536955269
 20
2.497902544356899
 30
234.0
 10
1018.688302445799
 20
2.505039043214294
 30
234.0
 10
1016.3902498474497
 20
2.512550036118276
 30
234.0
 10
1014.0921973127063
 20
2.5204280149933402
 30
234.0
 10
1011.7941458224568
 20
2.5286710776323273
 30
234.0
 10
1009.4960958999792
 20
2.537282833305546
 30
234.0
 10
1007.1980476084384
 20
2.5462723937663103
 30
234.0
 10
1004.8999999831523
 20
2.5556520582655513
 30
234.0
  0
LINE
  5
7C
330
17
100
AcDbEntity
  8
0
100
AcDbLine
 10
1004.9
 20
27.0025846510589
 30
234.0
 11
1004.9
 21
2.555656185966815
 31
234.0
  0
SPLINE
  5
7D
330
17
100
AcDbEntity
  8
0
100
AcDbSpline
 70
0
 71
4
 72
10
 73
5
 74
0
 40
0.0
 40
0.0
 40
0.0
 40
0.0
 40
0.0
 40
1.0
 40
1.0
 40
1.0
 40
1.0
 40
1.0
 10
1001.099999399677
 20
27.001737831819543
 30
234.0
 10
1002.0499991694155
 20
27.0020557980771
 30
234.0
 10
1002.9999993030123
 20
27.002303627900776
 30
234.0
 10
1003.9499997851916
 20
27.002480263949344
 30
234.0
 10
1004.9000006003203
 20
27.002584648982964
 30
234.0
  0
LINE
  5
7E
330
17
100
AcDbEntity
  8
0
100
AcDbLine
 10
1001.1
 20
27.001737835068454
 30
234.0
 11
1001.1
 21
2.5716376888773644
 31
234.0
  0
SPLINE
  5
7F
330
17
100
AcDbEntity
  8
0
100
AcDbSpline
 70
0
 71
8
 72
18
 73
9
 74
0
 40
0.0
 40
0.0
 40
0.0
 40
0.0
 40
0.0
 40
0.0
 40
0.0
 40
0.0
 40
0.0
 40
1.0
 40
1.0
 40
1.0
 40
1.0
 40
1.0
 40
1.0
 40
1.0
 40
1.0
 40
1.0
 10
1001.0999999795154
 20
2.5716329576989554
 30
234.0
 10
998.324986408768
 20
2.5836480947791167
 30
234.0
 10
995.5499767721835
 20
2.5962411046781586
 30
234.0
 10
992.7749709883005
 20
2.609424266438921
 30
234.0
 10
989.9999690179786
 20
2.62321035293001
 30
234.0
 10
987.2249708647763
 20
2.637612657743123
 30
234.0
 10
984.4499765753337
 20
2.652645023092535
 30
234.0
 10
981.6749862397517
 20
2.6683218681788285
 30
234.0
 10
978.8999999919619
 20
2.684658217478214
 30
234.0
  0
LINE
  5
80
330
17
100
AcDbEntity
  8
0
100
AcDbLine
 10
978.9
 20
26.980787961716906
 30
234.0
 11
978.9
 21
2.684659582862026
 31
234.0
  0
SPLINE
  5
81
330
17
100
AcDbEntity
  8
0
100
AcDbSpline
 70
0
 71
4
 72
10
 73
5
 74
0
 40
0.0
 40
0.0
 40
0.0
 40
0.0
 40
0.0
 40
1.0
 40
1.0
 40
1.0
 40
1.0
 40
1.0
 10
975.0999993996879
 20
26.974689642568602
 30
234.0
 10
976.0499988765961
 20
26.97629878373448
 30
234.0
 10
976.9999989111274
 20
26.97785225565055
 30
234.0
 10
977.9499994901684
 20
26.979349000951895
 30
234.0
 10
978.9000006003095
 20
26.980787962354867
 30
234.0
  0
LINE
  5
82
330
17
100
AcDbEntity
  8
0
100
AcDbLine
 10
975.1
 20
26.97468964358543
 30
234.0
 11
975.1
 21
2.7075752424381916
 31
234.0
  0
SPLINE
  5
83
330
17
100
AcDbEntity
  8
0
100
AcDbSpline
 70
0
 71
8
 72
18
 73
9
 74
0
 40
0.0
 40
0.0
 40
0.0
 40
0.0
 40
0.0
 40
0.0
 40
0.0
 40
0.0
 40
0.0
 40
1.0
 40
1.0
 40
1.0
 40
1.0
 40
1.0
 40
1.0
 40
1.0
 40
1.0
 40
1.0
 10
975.099999993295
 20
2.707574156650308
 30
234.0
 10
972.3249835480301
 20
2.724710296237775
 30
234.0
 10
969.5499713475183
 20
2.7425216566484427
 30
234.0
 10
966.7749635633195
 20
2.761023789264484
 30
234.0
 10
963.9999604110792
 20
2.7802328701208747
 30
234.0
 10
961.2249621508947
 20
2.800165728110941
 30
234.0
 10
958.4499690876704
 20
2.8208398729330626
 30
234.0
 10
955.6749815714576
 20
2.8422735222397035
 30
234.0
 10
952.8999999977727
 20
2.8644856274492296
 30
234.0
  0
LINE
  5
84
330
17
100
AcDbEntity
  8
0
100
AcDbLine
 10
952.9
 20
26.926529476481846
 30
234.0
 11
952.9
 21
2.8644859057053145
 31
234.0
  0
SPLINE
  5
85
330
17
100
AcDbEntity
  8
0
100
AcDbSpline
 70
0
 71
4
 72
10
 73
5
 74
0
 40
0.0
 40
0.0
 40
0.0
 40
0.0
 40
0.0
 40
1.0
 40
1.0
 40
1.0
 40
1.0
 40
1.0
 10
949.0999993997075
 20
26.916367424249653
 30
234.0
 10
950.0499986234003
 20
26.91897079693658
 30
234.0
 10
950.9999985724071
 20
26.92153296814846
 30
234.0
 10
951.9499992352653
 20
26.92405288046331
 30
234.0
 10
952.9000006002993
 20
26.926529476523037
 30
234.0
  0
LINE
  5
86
330
17
100
AcDbEntity
  8
0
100
AcDbLine
 10
949.1
 20
26.916367428349822
 30
234.0
 11
949.1
 21
2.8955466716109806
 31
234.0
  0
SPLINE
  5
87
330
17
100
AcDbEntity
  8
0
100
AcDbSpline
 70
0
 71
8
 72
18
 73
9
 74
0
 40
0.0
 40
0.0
 40
0.0
 40
0.0
 40
0.0
 40
0.0
 40
0.0
 40
0.0
 40
0.0
 40
1.0
 40
1.0
 40
1.0
 40
1.0
 40
1.0
 40
1.0
 40
1.0
 40
1.0
 40
1.0
 10
949.0999999982248
 20
2.895546458865539
 30
234.0
 10
946.3249742634024
 20
2.9187035363825595
 30
234.0
 10
943.5499548975672
 20
2.9426588882860525
 30
234.0
 10
940.7749423352637
 20
2.9674321025819514
 30
234.0
 10
937.9999370567185
 20
2.993043518525081
 30
234.0
 10
935.2249395881464
 20
3.0195142516991913
 30
234.0
 10
932.4499505020336
 20
3.0468662175748666
 30
234.0
 10
929.67497041739
 20
3.0751221530055854
 30
234.0
 10
926.8999999999671
 20
3.104305635121449
 30
234.0
  0
LINE
  5
88
330
17
100
AcDbEntity
  8
0
100
AcDbLine
 10
926.9
 20
26.847936191992233
 30
234.0
 11
926.9
 21
3.1043056382482526
 31
234.0
  0
SPLINE
  5
89
330
17
100
AcDbEntity
  8
0
100
AcDbSpline
 70
0
 71
4
 72
10
 73
5
 74
0
 40
0.0
 40
0.0
 40
0.0
 40
0.0
 40
0.0
 40
1.0
 40
1.0
 40
1.0
 40
1.0
 40
1.0
 10
923.0999993997272
 20
26.83489823936029
 30
234.0
 10
924.0499983996295
 20
26.83819888230766
 30
234.0
 10
924.9999982732465
 20
26.841472792924776
 30
234.0
 10
925.9499990102772
 20
26.844718913689306
 30
234.0
 10
926.9000006002794
 20
26.847936187128862
 30
234.0
  0
LINE
  5
8A
330
17
100
AcDbEntity
  8
0
100
AcDbLine
 10
923.1
 20
26.834898248352633
 30
234.0
 11
923.1
 21
3.1450367463155695
 31
234.0
  0
SPLINE
  5
8B
330
17
100
AcDbEntity
  8
0
100
AcDbSpline
 70
0
 71
8
 72
18
 73
9
 74
0
 40
0.0
 40
0.0
 40
0.0
 40
0.0
 40
0.0
 40
0.0
 40
0.0
 40
0.0
 40
0.0
 40
1.0
 40
1.0
 40
1.0
 40
1.0
 40
1.0
 40
1.0
 40
1.0
 40
1.0
 40
1.0
 10
923.1000000000761
 20
3.1450367532816887
 30
234.0
 10
920.3249583447766
 20
3.17534719879677
 30
234.0
 10
917.5499270616383
 20
3.2066098339457367
 30
234.0
 10
914.7749068565423
 20
3.238848962613611
 30
234.0
 10
911.9998984822597
 20
3.272089741532435
 30
234.0
 10
909.2249027386497
 20
3.30635819779377
 30
234.0
 10
906.4499204728211
 20
3.3416812435733165
 30
234.0
 10
903.6749525792493
 20
3.3780866875269546
 30
234.0
 10
900.8999999998439
 20
3.4156032423167697
 30
234.0
  0
LINE
  5
8C
330
17
100
AcDbEntity
  8
0
100
AcDbLine
 10
900.9
 20
26.75313578617915
 30
234.0
 11
900.9
 21
3.4156032538677903
 31
234.0
  0
SPLINE
  5
8D
330
17
100
AcDbEntity
  8
0
100
AcDbSpline
 70
0
 71
5
 72
12
 73
6
 74
0
 40
0.0
 40
0.0
 40
0.0
 40
0.0
 40
0.0
 40
0.0
 40
1.0
 40
1.0
 40
1.0
 40
1.0
 40
1.0
 40
1.0
 10
897.0999993997474
 20
26.73840992675459
 30
234.0
 10
897.9088202467193
 20
26.741560852971457
 30
234.0
 10
898.659472618627
 20
26.74447682789365
 30
234.0
 10
899.4395002622095
 20
26.747500845565796
 30
234.0
 10
900.2289152679145
 20
26.750549668621833
 30
234.0
 10
900.9000006002533
 20
26.75313578482977
 30
234.0
  0
LINE
  5
8E
330
17
100
AcDbEntity
  8
0
100
AcDbLine
 10
897.1
 20
26.738409931529674
 30
234.0
 11
897.1
 21
3.4678980274699307
 31
234.0
  0
SPLINE
  5
8F
330
17
100
AcDbEntity
  8
0
100
AcDbSpline
 70
0
 71
8
 72
18
 73
9
 74
0
 40
0.0
 40
0.0
 40
0.0
 40
0.0
 40
0.0
 40
0.0
 40
0.0
 40
0.0
 40
0.0
 40
1.0
 40
1.0
 40
1.0
 40
1.0
 40
1.0
 40
1.0
 40
1.0
 40
1.0
 40
1.0
 10
897.099999999795
 20
3.4678980128823116
 30
234.0
 10
894.3249356419005
 20
3.506765583003993
 30
234.0
 10
891.5498875879491
 20
3.5467742587694886
 30
234.0
 10
888.7748568206046
 20
3.587953532731918
 30
234.0
 10
885.999844370011
 20
3.6303338060836268
 30
234.0
 10
883.224851313835
 20
3.673946394148561
 30
234.0
 10
880.4498787772543
 20
3.7188235278181008
 30
234.0
 10
877.6749279328899
 20
3.7649983503886215
 30
234.0
 10
874.9000000006722
 20
3.8125049092583074
 30
234.0
  0
LINE
  5
90
330
17
100
AcDbEntity
  8
0
100
AcDbLine
 10
874.9
 20
26.650257209986755
 30
234.0
 11
874.9
 21
3.8125048699794286
 31
234.0
  0
SPLINE
  5
91
330
17
100
AcDbEntity
  8
0
100
AcDbSpline
 70
0
 71
1
 72
4
 73
2
 74
0
 40
0.0
 40
0.0
 40
1.0
 40
1.0
 10
871.099999399778
 20
26.63503165835063
 30
234.0
 10
874.9000006002261
 20
26.650257211961755
 30
234.0
  0
LINE
  5
92
330
17
100
AcDbEntity
  8
0
100
AcDbLine
 10
871.1
 20
26.635031660955207
 30
234.0
 11
871.1
 21
3.8786631285815254
 31
234.0
  0
SPLINE
  5
93
330
17
100
AcDbEntity
  8
0
100
AcDbSpline
 70
0
 71
8
 72
18
 73
9
 74
0
 40
0.0
 40
0.0
 40
0.0
 40
0.0
 40
0.0
 40
0.0
 40
0.0
 40
0.0
 40
0.0
 40
1.0
 40
1.0
 40
1.0
 40
1.0
 40
1.0
 40
1.0
 40
1.0
 40
1.0
 40
1.0
 10
871.1000000008878
 20
3.8786631787354984
 30
234.0
 10
868.3249061022104
 20
3.9277900174403197
 30
234.0
 10
865.5498363927845
 20
3.9782841489371044
 30
234.0
 10
862.7747921332543
 20
4.03018039904575
 30
234.0
 10
859.9997746314841
 20
4.083514491339304
 30
234.0
 10
857.2247852423912
 20
4.138323036149323
 30
234.0
 10
854.4498253677123
 20
4.194643514242523
 30
234.0
 10
851.6748964556962
 20
4.252514254625865
 30
234.0
 10
848.9000000007172
 20
4.311974405936487
 30
234.0
  0
LINE
  5
94
330
17
100
AcDbEntity
  8
0
100
AcDbLine
 10
848.9
 20
26.547431217331905
 30
234.0
 11
848.9
 21
4.311974372480994
 31
234.0
  0
SPLINE
  5
95
330
17
100
AcDbEntity
  8
0
100
AcDbSpline
 70
0
 71
5
 72
12
 73
6
 74
0
 40
0.0
 40
0.0
 40
0.0
 40
0.0
 40
0.0
 40
0.0
 40
1.0
 40
1.0
 40
1.0
 40
1.0
 40
1.0
 40
1.0
 10
845.09999939981
 20
26.532894496206733
 30
234.0
 10
845.9087537775049
 20
26.535967939243854
 30
234.0
 10
846.5484088661681
 20
26.538409827892806
 30
234.0
 10
847.3888988166075
 20
26.541617934665375
 30
234.0
 10
848.3533963673971
 20
26.545327026865884
 30
234.0
 10
848.9000006001978
 20
26.547431219555083
 30
234.0
  0
LINE
  5
96
330
17
100
AcDbEntity
  8
0
100
AcDbLine
 10
845.1
 20
26.53289449874356
 30
234.0
 11
845.1
 21
4.394715962162038
 31
234.0
  0
SPLINE
  5
97
330
17
100
AcDbEntity
  8
0
100
AcDbSpline
 70
0
 71
8
 72
25
 73
16
 74
0
 40
0.0
 40
0.0
 40
0.0
 40
0.0
 40
0.0
 40
0.0
 40
0.0
 40
0.0
 40
0.0
 40
0.0583775800364035
 40
0.0583775800364035
 40
0.0583775800364035
 40
0.0583775800364035
 40
0.0583775800364035
 40
0.0583775800364035
 40
0.0583775800364035
 40
1.0
 40
1.0
 40
1.0
 40
1.0
 40
1.0
 40
1.0
 40
1.0
 40
1.0
 40
1.0
 10
845.1000000014735
 20
4.394716028767308
 30
234.0
 10
844.9379939204064
 20
4.398300132785563
 30
234.0
 10
844.7759879552743
 20
4.401889792812755
 30
234.0
 10
844.6139821063827
 20
4.405485016777682
 30
234.0
 10
844.451976374037
 20
4.409085812618425
 30
234.0
 10
844.2899707585437
 20
4.412692188282327
 30
234.0
 10
844.1279652602097
 20
4.416304151725968
 30
234.0
 10
843.9659598793423
 20
4.419921710915143
 30
234.0
 10
841.1908317737935
 20
4.4819859983940535
 30
234.0
 10
838.5777424241942
 20
4.5418848674212935
 30
234.0
 10
835.9646880019696
 20
4.603274997952038
 30
234.0
 10
833.3516700846542
 20
4.666190473309129
 30
234.0
 10
830.7386903926707
 20
4.730665941104728
 30
234.0
 10
828.1257507886789
 20
4.796736595939906
 30
234.0
 10
825.5128532765351
 20
4.864438150637962
 30
234.0
 10
822.8999999999975
 20
4.933806799857882
 30
234.0
  0
LINE
  5
98
330
17
100
AcDbEntity
  8
0
100
AcDbLine
 10
822.9
 20
26.452790923910676
 30
234.0
 11
822.9
 21
4.933806799943804
 31
234.0
  0
SPLINE
  5
99
330
17
100
AcDbEntity
  8
0
100
AcDbSpline
 70
0
 71
4
 72
10
 73
5
 74
0
 40
0.0
 40
0.0
 40
0.0
 40
0.0
 40
0.0
 40
1.0
 40
1.0
 40
1.0
 40
1.0
 40
1.0
 10
819.0999993998457
 20
26.44013195007374
 30
234.0
 10
820.0499975948718
 20
26.44325098943658
 30
234.0
 10
820.9999972003228
 20
26.446401203969803
 30
234.0
 10
821.9499982055771
 20
26.449581535240977
 30
234.0
 10
822.9000006001602
 20
26.452790924810266
 30
234.0
  0
LINE
  5
9A
330
17
100
AcDbEntity
  8
0
100
AcDbLine
 10
819.1
 20
26.44013195321662
 30
234.0
 11
819.1
 21
5.0362490325094065
 31
234.0
  0
SPLINE
  5
9B
330
17
100
AcDbEntity
  8
0
100
AcDbSpline
 70
0
 71
8
 72
18
 73
9
 74
0
 40
0.0
 40
0.0
 40
0.0
 40
0.0
 40
0.0
 40
0.0
 40
0.0
 40
0.0
 40
0.0
 40
1.0
 40
1.0
 40
1.0
 40
1.0
 40
1.0
 40
1.0
 40
1.0
 40
1.0
 40
1.0
 10
819.100000000316
 20
5.03624904404994
 30
234.0
 10
816.3247952451748
 20
5.1122097449378625
 30
234.0
 10
813.5496431120118
 20
5.1900960374010605
 30
234.0
 10
810.7745463215683
 20
5.269951803727375
 30
234.0
 10
807.9995077713937
 20
5.35182150399948
 30
234.0
 10
805.2245305339268
 20
5.435750121800901
 30
234.0
 10
802.4496178542834
 20
5.521783100988589
 30
234.0
 10
799.6747731479559
 20
5.609966279398775
 30
234.0
 10
796.8999999986345
 20
5.700345825353397
 30
234.0
  0
LINE
  5
9C
330
17
100
AcDbEntity
  8
0
100
AcDbLine
 10
796.9
 20
26.37447236920623
 30
234.0
 11
796.9
 21
5.700345867283848
 31
234.0
  0
SPLINE
  5
9D
330
17
100
AcDbEntity
  8
0
100
AcDbSpline
 70
0
 71
4
 72
10
 73
5
 74
0
 40
0.0
 40
0.0
 40
0.0
 40
0.0
 40
0.0
 40
1.0
 40
1.0
 40
1.0
 40
1.0
 40
1.0
 10
793.0999993998789
 20
26.36488053553023
 30
234.0
 10
794.0499973652207
 20
26.367211056427372
 30
234.0
 10
794.9999968949696
 20
26.369587241522837
 30
234.0
 10
795.9499979771764
 20
26.372008032030273
 30
234.0
 10
796.9000006001204
 20
26.37447236914146
 30
234.0
  0
LINE
  5
9E
330
17
100
AcDbEntity
  8
0
100
AcDbLine
 10
793.1
 20
26.36488053758456
 30
234.0
 11
793.1
 21
5.825936140831594
 31
234.0
  0
SPLINE
  5
9F
330
17
100
AcDbEntity
  8
0
100
AcDbSpline
 70
0
 71
8
 72
18
 73
9
 74
0
 40
0.0
 40
0.0
 40
0.0
 40
0.0
 40
0.0
 40
0.0
 40
0.0
 40
0.0
 40
0.0
 40
1.0
 40
1.0
 40
1.0
 40
1.0
 40
1.0
 40
1.0
 40
1.0
 40
1.0
 40
1.0
 10
793.0999999981441
 20
5.825936085477522
 30
234.0
 10
790.3247087400109
 20
5.918996363499442
 30
234.0
 10
787.5494928264137
 20
6.014301549164182
 30
234.0
 10
784.7743559868206
 20
6.111898105662527
 30
234.0
 10
781.999302117576
 20
6.211832784055217
 30
234.0
 10
779.2243352797987
 20
6.314152561666254
 30
234.0
 10
776.4494596974714
 20
6.4189045852919255
 30
234.0
 10
773.6746797559301
 20
6.526136125101974
 30
234.0
 10
770.9000000009594
 20
6.635894545109879
 30
234.0
  0
LINE
  5
A0
330
17
100
AcDbEntity
  8
0
100
AcDbLine
 10
770.9
 20
26.320615075996425
 30
234.0
 11
770.9
 21
6.635894520856602
 31
234.0
  0
SPLINE
  5
A1
330
17
100
AcDbEntity
  8
0
100
AcDbSpline
 70
0
 71
4
 72
10
 73
5
 74
0
 40
0.0
 40
0.0
 40
0.0
 40
0.0
 40
0.0
 40
1.0
 40
1.0
 40
1.0
 40
1.0
 40
1.0
 10
767.09999939993
 20
26.315280332808324
 30
234.0
 10
768.0499971037498
 20
26.316524838343177
 30
234.0
 10
768.9999965475109
 20
26.317829503661287
 30
234.0
 10
769.9499977174497
 20
26.319193269585167
 30
234.0
 10
770.9000006000841
 20
26.320615076894534
 30
234.0
  0
LINE
  5
A2
330
17
100
AcDbEntity
  8
0
100
AcDbLine
 10
767.1
 20
26.315280333594423
 30
234.0
 11
767.1
 21
6.788301908046455
 31
234.0
  0
SPLINE
  5
A3
330
17
100
AcDbEntity
  8
0
100
AcDbSpline
 70
0
 71
8
 72
18
 73
9
 74
0
 40
0.0
 40
0.0
 40
0.0
 40
0.0
 40
0.0
 40
0.0
 40
0.0
 40
0.0
 40
0.0
 40
1.0
 40
1.0
 40
1.0
 40
1.0
 40
1.0
 40
1.0
 40
1.0
 40
1.0
 40
1.0
 10
767.100000000435
 20
6.788301918741732
 30
234.0
 10
764.3245983250442
 20
6.901151974835388
 30
234.0
 10
761.5493016398685
 20
7.01657916911726
 30
234.0
 10
758.7741146320776
 20
7.134630981474779
 30
234.0
 10
755.9990421489774
 20
7.255354968542752
 30
234.0
 10
753.2240891974338
 20
7.378798743168775
 30
234.0
 10
750.4492609439799
 20
7.505009972493988
 30
234.0
 10
747.6745627158072
 20
7.634036400538803
 30
234.0
 10
744.9000000028585
 20
7.7659259011838655
 30
234.0
  0
LINE
  5
A4
330
17
100
AcDbEntity
  8
0
100
AcDbLine
 10
744.9
 20
26.29936261959105
 30
234.0
 11
744.9
 21
7.765925841053379
 31
234.0
  0
SPLINE
  5
A5
330
17
100
AcDbEntity
  8
0
100
AcDbSpline
 70
0
 71
4
 72
10
 73
5
 74
0
 40
0.0
 40
0.0
 40
0.0
 40
0.0
 40
0.0
 40
1.0
 40
1.0
 40
1.0
 40
1.0
 40
1.0
 10
741.099999399971
 20
26.299475546417526
 30
234.0
 10
742.0499968001851
 20
26.299336379120952
 30
234.0
 10
742.9999961442642
 20
26.299271874504537
 30
234.0
 10
743.949997416121
 20
26.299280972966933
 30
234.0
 10
744.9000006000294
 20
26.29936261484759
 30
234.0
  0
LINE
  5
A6
330
17
100
AcDbEntity
  8
0
100
AcDbLine
 10
741.1
 20
26.299475550204555
 30
234.0
 11
741.1
 21
7.948928367685203
 31
234.0
  0
SPLINE
  5
A7
330
17
100
AcDbEntity
  8
0
100
AcDbSpline
 70
0
 71
8
 72
18
 73
9
 74
0
 40
0.0
 40
0.0
 40
0.0
 40
0.0
 40
0.0
 40
0.0
 40
0.0
 40
0.0
 40
0.0
 40
1.0
 40
1.0
 40
1.0
 40
1.0
 40
1.0
 40
1.0
 40
1.0
 40
1.0
 40
1.0
 10
741.0999999998635
 20
7.948928364880801
 30
234.0
 10
738.3244578247402
 20
8.084334509841762
 30
234.0
 10
735.5490582486921
 20
8.22265558224659
 30
234.0
 10
732.773807060717
 20
8.363939631242289
 30
234.0
 10
729.9987103367821
 20
8.508235129030737
 30
234.0
 10
727.2237744405784
 20
8.65559096904596
 30
234.0
 10
724.4490060324841
 20
8.806056608284848
 30
234.0
 10
721.674412090052
 20
8.95968235374097
 30
234.0
 10
718.8999999996433
 20
9.116519793892094
 30
234.0
  0
LINE
  5
A8
330
17
100
AcDbEntity
  8
0
100
AcDbLine
 10
718.9
 20
26.318863154245964
 30
234.0
 11
718.9
 21
9.11651980020238
 31
234.0
  0
SPLINE
  5
A9
330
17
100
AcDbEntity
  8
0
100
AcDbSpline
 70
0
 71
4
 72
10
 73
5
 74
0
 40
0.0
 40
0.0
 40
0.0
 40
0.0
 40
0.0
 40
1.0
 40
1.0
 40
1.0
 40
1.0
 40
1.0
 10
715.0999994000301
 20
26.325615065675088
 30
234.0
 10
716.0499964442865
 20
26.323794387139316
 30
234.0
 10
716.9999956715639
 20
26.322062882155397
 30
234.0
 10
717.9499970629531
 20
26.3204194906835
 30
234.0
 10
718.90000059998
 20
26.31886315260211
 30
234.0
  0
LINE
  5
AA
330
17
100
AcDbEntity
  8
0
100
AcDbLine
 10
715.1
 20
26.32561506533374
 30
234.0
 11
715.1
 21
9.333992963763464
 31
234.0
  0
SPLINE
  5
AB
330
17
100
AcDbEntity
  8
0
100
AcDbSpline
 70
0
 71
8
 72
18
 73
9
 74
0
 40
0.0
 40
0.0
 40
0.0
 40
0.0
 40
0.0
 40
0.0
 40
0.0
 40
0.0
 40
0.0
 40
1.0
 40
1.0
 40
1.0
 40
1.0
 40
1.0
 40
1.0
 40
1.0
 40
1.0
 40
1.0
 10
715.1000000015338
 20
9.333992990247147
 30
234.0
 10
712.3242755282758
 20
9.494800567775862
 30
234.0
 10
709.5487408947741
 20
9.658877059138772
 30
234.0
 10
706.7734038809565
 20
9.826275371350677
 30
234.0
 10
703.9982727531491
 20
9.99705001750034
 30
234.0
 10
701.223356398152
 20
10.17125762423407
 30
234.0
 10
698.4486645508352
 20
10.348957585131261
 30
234.0
 10
695.6742081847921
 20
10.530212861098288
 30
234.0
 10
692.9000001921295
 20
10.715090929912519
 30
234.0
  0
LINE
  5
AC
330
17
100
AcDbEntity
  8
0
100
AcDbLine
 10
692.9
 20
26.38727003400075
 30
234.0
 11
692.9
 21
10.715088046891822
 31
234.0
  0
SPLINE
  5
AD
330
17
100
AcDbEntity
  8
0
100
AcDbSpline
 70
0
 71
4
 72
10
 73
5
 74
0
 40
0.0
 40
0.0
 40
0.0
 40
0.0
 40
0.0
 40
1.0
 40
1.0
 40
1.0
 40
1.0
 40
1.0
 10
689.099999400087
 20
26.401853026250826
 30
234.0
 10
690.0499960257531
 20
26.39805279675671
 30
234.0
 10
690.999995115684
 20
26.39435626021722
 30
234.0
 10
691.9499966476496
 20
26.390762356150063
 30
234.0
 10
692.900000599925
 20
26.387270023972672
 30
234.0
  0
LINE
  5
AE
330
17
100
AcDbEntity
  8
0
100
AcDbLine
 10
689.1
 20
26.4018530306867
 30
234.0
 11
689.1
 21
10.971331676757435
 31
234.0
  0
SPLINE
  5
AF
330
17
100
AcDbEntity
  8
0
100
AcDbSpline
 70
0
 71
8
 72
18
 73
9
 74
0
 40
0.0
 40
0.0
 40
0.0
 40
0.0
 40
0.0
 40
0.0
 40
0.0
 40
0.0
 40
0.0
 40
1.0
 40
1.0
 40
1.0
 40
1.0
 40
1.0
 40
1.0
 40
1.0
 40
1.0
 40
1.0
 10
689.1000001906613
 20
10.971334471218574
 30
234.0
 10
686.3240182418699
 20
11.160735009013242
 30
233.99999999999997
 10
683.5483049670025
 20
11.353832329052517
 30
233.99999999999997
 10
680.772855923332
 20
11.550705321583514
 30
233.99999999999997
 10
677.9976824064873
 20
11.751433899966607
 30
233.99999999999997
 10
675.2227966586693
 20
11.95609875059472
 30
233.99999999999997
 10
672.4482114964583
 20
12.164781329373131
 30
233.99999999999997
 10
669.6739405157006
 20
12.377563891100646
 30
233.99999999999997
 10
666.9000000995719
 20
12.59452976501347
 30
233.99999999999997
  0
LINE
  5
B0
330
17
100
AcDbEntity
  8
0
100
AcDbLine
 10
666.9
 20
26.512742519193857
 30
234.0
 11
666.9
 21
12.594528491968243
 31
234.0
  0
SPLINE
  5
B1
330
17
100
AcDbEntity
  8
0
100
AcDbSpline
 70
0
 71
4
 72
10
 73
5
 74
0
 40
0.0
 40
0.0
 40
0.0
 40
0.0
 40
0.0
 40
1.0
 40
1.0
 40
1.0
 40
1.0
 40
1.0
 10
663.0999994001472
 20
26.536349372835534
 30
234.0
 10
664.0499955342835
 20
26.530271330969384
 30
234.0
 10
664.9999944628869
 20
26.524311510411422
 30
234.0
 10
665.949996159907
 20
26.518468850261538
 30
234.0
 10
666.9000005998618
 20
26.512742289484372
 30
234.0
  0
LINE
  5
B2
330
17
100
AcDbEntity
  8
0
100
AcDbLine
 10
663.1
 20
26.53634969753878
 30
234.0
 11
663.1
 21
12.895240819297413
 31
234.0
  0
SPLINE
  5
B3
330
17
100
AcDbEntity
  8
0
100
AcDbSpline
 70
0
 71
8
 72
25
 73
16
 74
0
 40
0.0
 40
0.0
 40
0.0
 40
0.0
 40
0.0
 40
0.0
 40
0.0
 40
0.0
 40
0.0
 40
0.7942339494195672
 40
0.7942339494195672
 40
0.7942339494195672
 40
0.7942339494195672
 40
0.7942339494195672
 40
0.7942339494195672
 40
0.7942339494195672
 40
1.0
 40
1.0
 40
1.0
 40
1.0
 40
1.0
 40
1.0
 40
1.0
 40
1.0
 40
1.0
 10
663.0999999973864
 20
12.895240786652632
 30
234.0
 10
660.8949274861595
 20
13.071782373566476
 30
234.0
 10
658.6900740926786
 20
13.251041224009336
 30
234.0
 10
656.4854468801952
 20
13.433071604050525
 30
234.0
 10
654.2810551142359
 20
13.61793589251048
 30
234.0
 10
652.0769091334873
 20
13.80570442542226
 30
234.0
 10
649.8730204015478
 20
13.9964554990719
 30
234.0
 10
647.6694018448233
 20
14.190275389848704
 30
234.0
 10
644.8952421809081
 20
14.43829185167667
 30
234.0
 10
644.3244336280521
 20
14.489537732136482
 30
234.0
 10
643.7536445959867
 20
14.540997811588873
 30
234.0
 10
643.1828752938927
 20
14.592673830308337
 30
234.0
 10
642.6121259440026
 20
14.644567583197993
 30
234.0
 10
642.041396781463
 20
14.696680920802002
 30
234.0
 10
641.470688054262
 20
14.749015750613852
 30
234.0
 10
640.9000000232141
 20
14.801574038680286
 30
234.0
  0
LINE
  5
B4
330
17
100
AcDbEntity
  8
0
100
AcDbLine
 10
640.9
 20
26.703445305301415
 30
234.0
 11
640.9
 21
14.80157378661769
 31
234.0
  0
SPLINE
  5
B5
330
17
100
AcDbEntity
  8
0
100
AcDbSpline
 70
0
 71
4
 72
10
 73
5
 74
0
 40
0.0
 40
0.0
 40
0.0
 40
0.0
 40
0.0
 40
1.0
 40
1.0
 40
1.0
 40
1.0
 40
1.0
 10
637.0999994002118
 20
26.737270423042023
 30
234.0
 10
638.0499949595578
 20
26.728616065298127
 30
234.0
 10
638.9999936994194
 20
26.720094466439477
 30
234.0
 10
639.9499955894065
 20
26.711704565185766
 30
234.0
 10
640.9000005997977
 20
26.70344530008682
 30
234.0
  0
LINE
  5
B6
330
17
100
AcDbEntity
  8
0
100
AcDbLine
 10
637.1
 20
26.737270535311225
 30
234.0
 11
637.1
 21
15.155978892578755
 31
234.0
  0
SPLINE
  5
B7
330
17
100
AcDbEntity
  8
0
100
AcDbSpline
 70
0
 71
8
 72
18
 73
9
 74
0
 40
0.0
 40
0.0
 40
0.0
 40
0.0
 40
0.0
 40
0.0
 40
0.0
 40
0.0
 40
0.0
 40
1.0
 40
1.0
 40
1.0
 40
1.0
 40
1.0
 40
1.0
 40
1.0
 40
1.0
 40
1.0
 10
637.1000000089954
 20
15.155978987817218
 30
234.0
 10
634.3228424060941
 20
15.418283822527078
 30
234.0
 10
631.546209153
 20
15.686130272006428
 30
234.0
 10
628.7701365089686
 20
15.959774634235337
 30
234.0
 10
625.9946680388416
 20
16.23950975958158
 30
234.0
 10
623.2198549542682
 20
16.525671448153464
 30
234.0
 10
620.4457571528146
 20
16.818648772725616
 30
234.0
 10
617.6724447234803
 20
17.11889831250089
 30
234.0
 10
614.9000000260669
 20
17.426962299860946
 30
234.0
  0
LINE
  5
B8
330
17
100
AcDbEntity
  8
0
100
AcDbLine
 10
614.9
 20
26.967551302795997
 30
234.0
 11
614.9
 21
17.426962065269574
 31
234.0
  0
SPLINE
  5
B9
330
17
100
AcDbEntity
  8
0
100
AcDbSpline
 70
0
 71
4
 72
10
 73
5
 74
0
 40
0.0
 40
0.0
 40
0.0
 40
0.0
 40
0.0
 40
1.0
 40
1.0
 40
1.0
 40
1.0
 40
1.0
 10
611.0999994002809
 20
27.012789432648713
 30
234.0
 10
612.049994291239
 20
27.00125999301362
 30
234.0
 10
612.9999928114876
 20
26.989877859159964
 30
234.0
 10
613.9499949258179
 20
26.978641969487295
 30
234.0
 10
614.900000599747
 20
26.96755126219454
 30
234.0
  0
LINE
  5
BA
330
17
100
AcDbEntity
  8
0
100
AcDbLine
 10
611.1
 20
27.01278945497661
 30
234.0
 11
611.1
 21
17.85586985511952
 31
234.0
  0
SPLINE
  5
BB
330
17
100
AcDbEntity
  8
0
100
AcDbSpline
 70
0
 71
8
 72
18
 73
9
 74
0
 40
0.0
 40
0.0
 40
0.0
 40
0.0
 40
0.0
 40
0.0
 40
0.0
 40
0.0
 40
0.0
 40
1.0
 40
1.0
 40
1.0
 40
1.0
 40
1.0
 40
1.0
 40
1.0
 40
1.0
 40
1.0
 10
611.1000000207671
 20
17.85587003622382
 30
234.0
 10
608.3206343114759
 20
18.174577836009316
 30
234.0
 10
605.5422492666473
 20
18.501746832528365
 30
234.0
 10
602.764934780864
 20
18.838008936615736
 30
234.0
 10
599.9888118200746
 20
19.184098613755047
 30
234.0
 10
597.2140361320819
 20
19.54088755859701
 30
234.0
 10
594.4408024598848
 20
19.909417705225493
 30
234.0
 10
591.6693536814817
 20
20.2909720257018
 30
234.0
 10
588.900000000193
 20
20.687222588115215
 30
234.0
  0
LINE
  5
BC
330
17
100
AcDbEntity
  8
0
100
AcDbLine
 10
588.9
 20
27.31323985775647
 30
234.0
 11
588.9
 21
20.687222586766374
 31
234.0
  0
SPLINE
  5
BD
330
17
100
AcDbEntity
  8
0
100
AcDbSpline
 70
0
 71
4
 72
10
 73
5
 74
0
 40
0.0
 40
0.0
 40
0.0
 40
0.0
 40
0.0
 40
1.0
 40
1.0
 40
1.0
 40
1.0
 40
1.0
 10
585.0999994003398
 20
27.371087162296128
 30
234.0
 10
586.0499935189388
 20
27.356383591811205
 30
234.0
 10
586.9999917852504
 20
27.341841883218898
 30
234.0
 10
587.9499941587362
 20
27.327460974692805
 30
234.0
 10
588.9000005996575
 20
27.313239804164958
 30
234.0
  0
LINE
  5
BE
330
17
100
AcDbEntity
  8
0
100
AcDbLine
 10
585.1
 20
27.371087447122953
 30
234.0
 11
585.1
 21
21.24381882307423
 31
234.0
  0
SPLINE
  5
BF
330
17
100
AcDbEntity
  8
0
100
AcDbSpline
 70
0
 71
8
 72
25
 73
16
 74
0
 40
0.0
 40
0.0
 40
0.0
 40
0.0
 40
0.0
 40
0.0
 40
0.0
 40
0.0
 40
0.0
 40
0.454088099630686
 40
0.454088099630686
 40
0.454088099630686
 40
0.454088099630686
 40
0.454088099630686
 40
0.454088099630686
 40
0.454088099630686
 40
1.0
 40
1.0
 40
1.0
 40
1.0
 40
1.0
 40
1.0
 40
1.0
 40
1.0
 40
1.0
 10
585.10000000031
 20
21.243818825139353
 30
234.0
 10
583.5595535949091
 20
21.474896156431953
 30
234.0
 10
582.05868696911
 20
21.705299694193986
 30
234.0
 10
580.5965069655717
 20
21.935065254122062
 30
234.0
 10
579.1721838829314
 20
22.164227153081967
 30
234.0
 10
577.7849512965636
 20
22.392817319044763
 30
234.0
 10
576.4341059121507
 20
22.620864402150936
 30
234.0
 10
575.1190074058334
 20
22.848392885673874
 30
234.0
 10
572.3003270172537
 20
23.34836042698972
 30
234.0
 10
570.812368613516
 20
23.62058391226645
 30
234.0
 10
569.3741852196335
 20
23.892128994428848
 30
234.0
 10
567.9848409888623
 20
24.16303035188659
 30
234.0
 10
566.643481984116
 20
24.433319817341257
 30
234.0
 10
565.3493359400412
 20
24.70302519407975
 30
234.0
 10
564.1017120250026
 20
24.972169072266787
 30
234.0
 10
562.899999981799
 20
25.240767639587776
 30
234.0
  0
LINE
  5
C0
330
17
100
AcDbEntity
  8
0
100
AcDbLine
 10
562.9
 20
27.748698577560017
 30
234.0
 11
562.9
 21
25.24076772102033
 31
234.0
  0
SPLINE
  5
C1
330
17
100
AcDbEntity
  8
0
100
AcDbSpline
 70
0
 71
4
 72
10
 73
5
 74
0
 40
0.0
 40
0.0
 40
0.0
 40
0.0
 40
0.0
 40
1.0
 40
1.0
 40
1.0
 40
1.0
 40
1.0
 10
559.0999994004308
 20
27.820352445745662
 30
234.0
 10
560.0499926323288
 20
27.802175392043285
 30
234.0
 10
560.9999906069227
 20
27.784174765240028
 30
234.0
 10
561.9499932778433
 20
27.766349503405287
 30
234.0
 10
562.9000005995929
 20
27.748698544320593
 30
234.0
  0
LINE
  5
C2
330
17
100
AcDbEntity
  8
0
100
AcDbLine
 10
559.1
 20
27.820352457906683
 30
234.0
 11
559.1
 21
26.13728281684736
 31
234.0
  0
SPLINE
  5
C3
330
17
100
AcDbEntity
  8
0
100
AcDbSpline
 70
0
 71
8
 72
144
 73
135
 74
0
 40
0.0
 40
0.0
 40
0.0
 40
0.0
 40
0.0
 40
0.0
 40
0.0
 40
0.0
 40
0.0
 40
0.05184164218007469
 40
0.05184164218007469
 40
0.05184164218007469
 40
0.05184164218007469
 40
0.05184164218007469
 40
0.05184164218007469
 40
0.05184164218007469
 40
0.08777659300775897
 40
0.08777659300775897
 40
0.08777659300775897
 40
0.08777659300775897
 40
0.08777659300775897
 40
0.08777659300775897
 40
0.08777659300775897
 40
0.12371162816357542
 40
0.12371162816357542
 40
0.12371162816357542
 40
0.12371162816357542
 40
0.12371162816357542
 40
0.12371162816357542
 40
0.12371162816357542
 40
0.15964671958891927
 40
0.15964671958891927
 40
0.15964671958891927
 40
0.15964671958891927
 40
0.15964671958891927
 40
0.15964671958891927
 40
0.15964671958891927
 40
0.21611636295309206
 40
0.21611636295309206
 40
0.21611636295309206
 40
0.21611636295309206
 40
0.21611636295309206
 40
0.21611636295309206
 40
0.21611636295309206
 40
0.26957449449640386
 40
0.26957449449640386
 40
0.26957449449640386
 40
0.26957449449640386
 40
0.26957449449640386
 40
0.26957449449640386
 40
0.26957449449640386
 40
0.31344005543574255
 40
0.31344005543574255
 40
0.31344005543574255
 40
0.31344005543574255
 40
0.31344005543574255
 40
0.31344005543574255
 40
0.31344005543574255
 40
0.3621794356809507
 40
0.3621794356809507
 40
0.3621794356809507
 40
0.3621794356809507
 40
0.3621794356809507
 40
0.3621794356809507
 40
0.3621794356809507
 40
0.3962971824146261
 40
0.3962971824146261
 40
0.3962971824146261
 40
0.3962971824146261
 40
0.3962971824146261
 40
0.3962971824146261
 40
0.3962971824146261
 40
0.4499100635585519
 40
0.4499100635585519
 40
0.4499100635585519
 40
0.4499100635585519
 40
0.4499100635585519
 40
0.4499100635585519
 40
0.4499100635585519
 40
0.5035223912601522
 40
0.5035223912601522
 40
0.5035223912601522
 40
0.5035223912601522
 40
0.5035223912601522
 40
0.5035223912601522
 40
0.5035223912601522
 40
0.5522603589045462
 40
0.5522603589045462
 40
0.5522603589045462
 40
0.5522603589045462
 40
0.5522603589045462
 40
0.5522603589045462
 40
0.5522603589045462
 40
0.6015137358488605
 40
0.6015137358488605
 40
0.6015137358488605
 40
0.6015137358488605
 40
0.6015137358488605
 40
0.6015137358488605
 40
0.6015137358488605
 40
0.6357234929834058
 40
0.6357234929834058
 40
0.6357234929834058
 40
0.6357234929834058
 40
0.6357234929834058
 40
0.6357234929834058
 40
0.6357234929834058
 40
0.6894160023363052
 40
0.6894160023363052
 40
0.6894160023363052
 40
0.6894160023363052
 40
0.6894160023363052
 40
0.6894160023363052
 40
0.6894160023363052
 40
0.7430644817140863
 40
0.7430644817140863
 40
0.7430644817140863
 40
0.7430644817140863
 40
0.7430644817140863
 40
0.7430644817140863
 40
0.7430644817140863
 40
0.806446020080613
 40
0.806446020080613
 40
0.806446020080613
 40
0.806446020080613
 40
0.806446020080613
 40
0.806446020080613
 40
0.806446020080613
 40
0.9039061879749009
 40
0.9039061879749009
 40
0.9039061879749009
 40
0.9039061879749009
 40
0.9039061879749009
 40
0.9039061879749009
 40
0.9039061879749009
 40
1.0
 40
1.0
 40
1.0
 40
1.0
 40
1.0
 40
1.0
 40
1.0
 40
1.0
 40
1.0
 10
559.0999999989518
 20
26.137282812647953
 30
234.0
 10
558.3798313624369
 20
26.31713799938023
 30
234.0
 10
557.6607900928365
 20
26.501524238466565
 30
234.0
 10
556.9430088750498
 20
26.690820512496025
 30
234.0
 10
556.2266527041894
 20
26.885468675623883
 30
234.0
 10
555.5119241825579
 20
27.085993180256214
 30
234.0
 10
554.7990714276013
 20
27.293030564103148
 30
234.0
 10
554.0884012209585
 20
27.507378427311824
 30
234.0
 10
552.8894873965633
 20
27.88451400446638
 30
234.0
 10
552.4132156695545
 20
28.038754697347297
 30
234.0
 10
551.9514380050023
 20
28.192841467679944
 30
234.0
 10
551.5041012068137
 20
28.346775514607323
 30
234.0
 10
551.0711573924546
 20
28.500557933805048
 30
234.0
 10
550.6525639929494
 20
28.65418971748134
 30
234.0
 10
550.2482837528819
 20
28.807671754377
 30
234.0
 10
549.4682769714639
 20
29.11433870792947
 30
234.0
 10
549.0925956874943
 20
29.267520141632716
 30
234.0
 10
548.7311154428255
 20
29.420556748282017
 30
234.0
 10
548.3837995984876
 20
29.57345022264114
 30
234.0
 10
548.0507003122016
 20
29.726196336830846
 30
234.0
 10
547.7319585383796
 20
29.878784940328845
 30
234.0
 10
547.4278040281243
 20
30.03119995996982
 30
234.0
 10
546.8492609697489
 20
30.3356419583068
 30
234.0
 10
546.5747615917248
 20
30.487676689898684
 30
234.0
 10
546.3152357003305
 20
30.63951146793157
 30
234.0
 10
546.0708658847069
 20
30.791134397212257
 30
234.0
 10
545.8418388179638
 20
30.942533814143815
 30
234.0
 10
545.6283452571795
 20
31.09369828672561
 30
234.0
 10
545.4305800434013
 20
31.244616614553276
 30
234.0
 10
544.9629963709896
 20
31.632032058727017
 30
234.0
 10
544.7165839054148
 20
31.86814915932233
 30
234.0
 10
544.5102774090568
 20
32.10358960785711
 30
234.0
 10
544.344879758931
 20
32.33831255199865
 30
234.0
 10
544.2212268774385
 20
32.572277114483896
 30
234.0
 10
544.140190604871
 20
32.805443697774386
 30
234.0
 10
544.102681571917
 20
33.03777528871109
 30
234.0
 10
544.1162550850536
 20
33.488358275855475
 30
234.0
 10
544.1628882926302
 20
33.71297969623812
 30
234.0
 10
544.2543908069553
 20
33.941326508606245
 30
234.0
 10
544.3940465952513
 20
34.17097518716212
 30
234.0
 10
544.582788149383
 20
34.400141942868395
 30
234.0
 10
544.8202552353391
 20
34.62783648209286
 30
234.0
 10
545.1063727319428
 20
34.85362021013669
 30
234.0
 10
545.7176073199823
 20
35.26158217327323
 30
234.0
 10
546.0271767715805
 20
35.44474774098642
 30
234.0
 10
546.3714843673189
 20
35.62718433304199
 30
234.0
 10
546.7512283019407
 20
35.80887608361332
 30
234.0
 10
547.1671410854165
 20
35.98980879662078
 30
234.0
 10
547.6199901079458
 20
36.169968798475765
 30
234.0
 10
548.1105782049593
 20
36.34934179082476
 30
234.0
 10
549.2277039614848
 20
36.72632221185607
 30
234.0
 10
549.8633061641921
 20
36.92374631161815
 30
234.0
 10
550.5476943226714
 20
37.12016095769091
 30
234.0
 10
551.2820883308067
 20
37.315547737163236
 30
234.0
 10
552.0677850189227
 20
37.50989088624485
 30
234.0
 10
552.9061586887722
 20
37.70317530740958
 30
234.0
 10
553.798661648523
 20
37.89538458653868
 30
234.0
 10
555.4105408728849
 20
38.220279856512924
 30
234.0
 10
556.101539363401
 20
38.35352559008508
 30
234.0
 10
556.8203469011299
 20
38.48623087412582
 30
234.0
 10
557.5675170023582
 20
38.61839047999097
 30
234.0
 10
558.3436300178229
 20
38.74999928704692
 30
234.0
 10
559.1492931327114
 20
38.88105228267061
 30
234.0
 10
559.9851403666605
 20
39.0115445622496
 30
234.0
 10
562.2137595501208
 20
39.345639236679744
 30
234.0
 10
563.6519133032406
 20
39.54841741314636
 30
234.0
 10
565.1688070052215
 20
39.74977738526086
 30
234.0
 10
566.7672069112222
 20
39.94970004632033
 30
234.0
 10
568.4501329363815
 20
40.14817104972188
 30
234.0
 10
570.2208592327466
 20
40.34517620244461
 30
234.0
 10
572.0829147662009
 20
40.54069685853159
 30
234.0
 10
575.9972290099175
 20
40.92871196990647
 30
234.0
 10
578.0496607840909
 20
41.12122339966849
 30
234.0
 10
580.2010897191004
 20
41.312205916620236
 30
234.0
 10
582.4557039294938
 20
41.50163934317919
 30
234.0
 10
584.8181697627529
 20
41.689509584396866
 30
234.0
 10
587.2936324208771
 20
41.87580120293788
 30
234.0
 10
589.8877165819622
 20
42.06048999405897
 30
234.0
 10
595.0781426869431
 20
42.409939129642844
 30
234.0
 10
597.6531431682299
 20
42.57500524963432
 30
234.0
 10
600.3360036911079
 20
42.738696462611586
 30
234.0
 10
603.1318933947601
 20
42.90098979001835
 30
234.0
 10
606.0466758546991
 20
43.06186765278164
 30
234.0
 10
609.0869096053771
 20
43.22130879140061
 30
234.0
 10
612.2598486627979
 20
43.379279186035234
 30
234.0
 10
618.9220777107914
 20
43.693820989582136
 30
234.0
 10
622.3378316012241
 20
43.846750734283205
 30
234.0
 10
625.9070561398529
 20
43.99879810240126
 30
234.0
 10
629.6775920789207
 20
44.15124784172009
 30
234.0
 10
633.6587290421197
 20
44.303367557086766
 30
234.0
 10
637.8211725478471
 20
44.453201542690095
 30
234.0
 10
642.0970185150878
 20
44.59817444563526
 30
234.0
 10
649.3543929665742
 20
44.83088775359953
 30
234.0
 10
652.3291722119612
 20
44.9224843721738
 30
234.0
 10
655.3040609969308
 20
45.01050651220236
 30
234.0
 10
658.2790486195269
 20
45.095147135058646
 30
234.0
 10
661.2541256669859
 20
45.17658026782447
 30
234.0
 10
664.2292840157379
 20
45.25496100329009
 30
234.0
 10
667.2045168314057
 20
45.33042549995412
 30
234.0
 10
674.8495762064797
 20
45.51713558646021
 30
234.0
 10
679.519500708236
 20
45.62434696270267
 30
234.0
 10
684.1895737136658
 20
45.725009826011394
 30
234.0
 10
688.8597706169552
 20
45.81980396834817
 30
234.0
 10
693.5300742536415
 20
45.909142753417456
 30
234.0
 10
698.2004720013834
 20
45.993320471851064
 30
234.0
 10
702.870950499845
 20
46.07277088967565
 30
234.0
 10
712.2082217219199
 20
46.22264876866645
 30
234.0
 10
716.8741440058967
 20
46.293085821701716
 30
234.0
 10
721.5393502327639
 20
46.35935402212781
 30
234.0
 10
726.2039131504796
 20
46.421722784818144
 30
234.0
 10
730.8678970065544
 20
46.48043210028778
 30
234.0
 10
735.5313574856947
 20
46.5356972352809
 30
234.0
 10
740.1943416474476
 20
46.587713433358324
 30
234.0
 10
750.365327960841
 20
46.69448763132316
 30
234.0
 10
755.8738129428767
 20
46.74803769110315
 30
234.0
 10
761.3823362520197
 20
46.79760186001102
 30
234.0
 10
766.890892192389
 20
46.843440754045766
 30
234.0
 10
772.3994758962103
 20
46.88578866040796
 30
234.0
 10
777.9080832898685
 20
46.92485765788841
 30
234.0
 10
783.4167110599614
 20
46.96084173725674
 30
234.0
 10
797.3958590708198
 20
47.04478622644432
 30
234.0
 10
805.8664024192788
 20
47.08877736264666
 30
234.0
 10
814.336977135987
 20
47.12657091679575
 30
234.0
 10
822.8075757825598
 20
47.158656254101025
 30
234.0
 10
831.2781915487503
 20
47.185663742725346
 30
234.0
 10
839.7488199893008
 20
47.20794986731823
 30
234.0
 10
848.2194575267466
 20
47.22597938808911
 30
234.0
 10
865.0419911220421
 20
47.25404495814757
 30
234.0
 10
873.3938862335966
 20
47.264194275269624
 30
234.0
 10
881.7457852481676
 20
47.27092033149256
 30
234.0
 10
890.0976862745422
 20
47.27455586131679
 30
234.0
 10
898.4495878634268
 20
47.27541007008004
 30
234.0
 10
906.8014890052627
 20
47.273773685949536
 30
234.0
 10
915.1533891280411
 20
47.2699240119143
 30
234.0
 10
923.505288095116
 20
47.264129977777365
 30
234.0
  0
ENDSEC
  0
SECTION
  2
OBJECTS
  0
DICTIONARY
  5
A
330
0
100
AcDbDictionary
281
1
  3
ACAD_COLOR
350
B
  3
ACAD_GROUP
350
C
  3
ACAD_LAYOUT
350
D
  3
ACAD_MATERIAL
350
E
  3
ACAD_MLEADERSTYLE
350
F
  3
ACAD_MLINESTYLE
350
10
  3
ACAD_PLOTSETTINGS
350
11
  3
ACAD_PLOTSTYLENAME
350
12
  3
ACAD_SCALELIST
350
14
  3
ACAD_TABLESTYLE
350
15
  3
ACAD_VISUALSTYLE
350
16
  3
EZDXF_META
350
2D
  0
DICTIONARY
  5
B
330
A
100
AcDbDictionary
281
1
  0
DICTIONARY
  5
C
330
A
100
AcDbDictionary
281
1
  0
DICTIONARY
  5
D
330
A
100
AcDbDictionary
281
1
  3
Model
350
1A
  3
Layout1
350
1E
  0
DICTIONARY
  5
E
330
A
100
AcDbDictionary
281
1
  3
ByBlock
350
1F
  3
ByLayer
350
20
  3
Global
350
21
  0
DICTIONARY
  5
F
330
A
100
AcDbDictionary
281
1
  3
Standard
350
2C
  0
DICTIONARY
  5
10
330
A
100
AcDbDictionary
281
1
  3
Standard
350
22
  0
DICTIONARY
  5
11
330
A
100
AcDbDictionary
281
1
  0
ACDBDICTIONARYWDFLT
  5
12
330
A
100
AcDbDictionary
281
1
  3
Normal
350
13
100
AcDbDictionaryWithDefault
340
13
  0
ACDBPLACEHOLDER
  5
13
330
12
  0
DICTIONARY
  5
14
330
A
100
AcDbDictionary
281
1
  0
DICTIONARY
  5
15
330
A
100
AcDbDictionary
281
1
  0
DICTIONARY
  5
16
330
A
100
AcDbDictionary
281
1
  0
LAYOUT
  5
1A
330
D
100
AcDbPlotSettings
  1

  2
Adobe PDF
  4
A3
  6

 40
7.5
 41
20.0
 42
7.5
 43
20.0
 44
420.0
 45
297.0
 46
0.0
 47
0.0
 48
0.0
 49
0.0
140
0.0
141
0.0
142
1.0
143
1.0
 70
1024
 72
1
 73
1
 74
5
  7

 75
16
 76
0
 77
2
 78
300
147
1.0
148
0.0
149
0.0
100
AcDbLayout
  1
Model
 70
1
 71
0
 10
0.0
 20
0.0
 11
420.0
 21
297.0
 12
0.0
 22
0.0
 32
0.0
 14
1e+20
 24
1e+20
 34
1e+20
 15
-1e+20
 25
-1e+20
 35
-1e+20
146
0.0
 13
0.0
 23
0.0
 33
0.0
 16
1.0
 26
0.0
 36
0.0
 17
0.0
 27
1.0
 37
0.0
 76
1
330
17
  0
LAYOUT
  5
1E
330
D
100
AcDbPlotSettings
  1

  2
Adobe PDF
  4
A3
  6

 40
7.5
 41
20.0
 42
7.5
 43
20.0
 44
420.0
 45
297.0
 46
0.0
 47
0.0
 48
0.0
 49
0.0
140
0.0
141
0.0
142
1.0
143
1.0
 70
0
 72
1
 73
1
 74
5
  7

 75
16
 76
0
 77
2
 78
300
147
1.0
148
0.0
149
0.0
100
AcDbLayout
  1
Layout1
 70
1
 71
1
 10
0.0
 20
0.0
 11
420.0
 21
297.0
 12
0.0
 22
0.0
 32
0.0
 14
1e+20
 24
1e+20
 34
1e+20
 15
-1e+20
 25
-1e+20
 35
-1e+20
146
0.0
 13
0.0
 23
0.0
 33
0.0
 16
1.0
 26
0.0
 36
0.0
 17
0.0
 27
1.0
 37
0.0
 76
1
330
1B
  0
MATERIAL
  5
1F
102
{ACAD_REACTORS
330
E
102
}
330
E
100
AcDbMaterial
  1
ByBlock
  2

 70
0
 40
1.0
 71
1
 41
1.0
 91
-1023410177
 42
1.0
 72
1
  3

 73
1
 74
1
 75
1
 44
0.5
 73
0
 45
1.0
 46
1.0
 77
1
  4

 78
1
 79
1
170
1
 48
1.0
171
1
  6

172
1
173
1
174
1
140
1.0
141
1.0
175
1
  7

176
1
177
1
178
1
143
1.0
179
1
  8

270
1
271
1
272
1
145
1.0
146
1.0
273
1
  9

274
1
275
1
276
1
 42
1.0
 72
1
  3

 73
1
 74
1
 75
1
 94
63
  0
MATERIAL
  5
20
102
{ACAD_REACTORS
330
E
102
}
330
E
100
AcDbMaterial
  1
ByLayer
  2

 70
0
 40
1.0
 71
1
 41
1.0
 91
-1023410177
 42
1.0
 72
1
  3

 73
1
 74
1
 75
1
 44
0.5
 73
0
 45
1.0
 46
1.0
 77
1
  4

 78
1
 79
1
170
1
 48
1.0
171
1
  6

172
1
173
1
174
1
140
1.0
141
1.0
175
1
  7

176
1
177
1
178
1
143
1.0
179
1
  8

270
1
271
1
272
1
145
1.0
146
1.0
273
1
  9

274
1
275
1
276
1
 42
1.0
 72
1
  3

 73
1
 74
1
 75
1
 94
63
  0
MATERIAL
  5
21
102
{ACAD_REACTORS
330
E
102
}
330
E
100
AcDbMaterial
  1
Global
  2

 70
0
 40
1.0
 71
1
 41
1.0
 91
-1023410177
 42
1.0
 72
1
  3

 73
1
 74
1
 75
1
 44
0.5
 73
0
 45
1.0
 46
1.0
 77
1
  4

 78
1
 79
1
170
1
 48
1.0
171
1
  6

172
1
173
1
174
1
140
1.0
141
1.0
175
1
  7

176
1
177
1
178
1
143
1.0
179
1
  8

270
1
271
1
272
1
145
1.0
146
1.0
273
1
  9

274
1
275
1
276
1
 42
1.0
 72
1
  3

 73
1
 74
1
 75
1
 94
63
  0
MLINESTYLE
  5
22
102
{ACAD_REACTORS
330
10
102
}
330
10
100
AcDbMlineStyle
  2
Standard
 70
0
  3

 62
256
 51
90.0
 52
90.0
 71
2
 49
0.5
 62
256
  6
BYLAYER
 49
-0.5
 62
256
  6
BYLAYER
  0
MLEADERSTYLE
  5
2C
102
{ACAD_REACTORS
330
F
102
}
330
F
100
AcDbMLeaderStyle
179
2
170
2
171
1
172
0
 90
2
 40
0.0
 41
0.0
173
1
 91
-1056964608
 92
-2
290
1
 42
2.0
291
1
 43
8.0
  3
Standard
 44
4.0
300

342
29
174
1
175
1
176
0
178
1
 93
-1056964608
 45
4.0
292
0
297
0
 46
4.0
 94
-1056964608
 47
1.0
 49
1.0
140
1.0
294
1
141
0.0
177
0
142
1.0
295
0
296
0
143
3.75
271
0
272
9
273
9
  0
DICTIONARY
  5
2D
330
A
100
AcDbDictionary
280
1
281
1
  3
CREATED_BY_EZDXF
350
2E
  3
WRITTEN_BY_EZDXF
350
C6
  0
DICTIONARYVAR
  5
2E
330
2D
100
DictionaryVariables
280
0
  1
0.17 @ 2022-02-15T16:54:38.732838+00:00
  0
DICTIONARYVAR
  5
C6
330
2D
100
DictionaryVariables
280
0
  1
0.17 @ 2022-02-15T16:54:38.920923+00:00
  0
ENDSEC
  0
EOF
